<svg width="24" height="24" viewBox="0 0 24 24" fill="none" xmlns="http://www.w3.org/2000/svg">
<path d="M18.3638 5.63624C16.676 3.94852 14.3869 3.00037 12 3.00037C9.61313 3.00037 7.32401 3.94852 5.6362 5.63624L4.9642 6.30794L3 4.34314V10H8.6569L6.3785 7.72174L7.05 7.05004C8.16525 5.92913 9.62639 5.21772 11.1966 5.03113C12.7667 4.84455 14.3539 5.19373 15.7008 6.02208C17.0477 6.85042 18.0753 8.10937 18.6171 9.59485C19.159 11.0803 19.1832 12.7053 18.686 14.2063C18.1887 15.7073 17.1991 16.9963 15.8776 17.8645C14.556 18.7327 12.98 19.1291 11.405 18.9895C9.82992 18.8499 8.3482 18.1824 7.19998 17.0953C6.05176 16.0082 5.30435 14.5651 5.0789 13H3.0589C3.2467 14.6842 3.9063 16.281 4.96176 17.6068C6.01722 18.9325 7.42563 19.9332 9.02483 20.4937C10.624 21.0542 12.349 21.1516 14.0012 20.7748C15.6533 20.398 17.1654 19.5623 18.3635 18.3638C19.1993 17.5282 19.8623 16.5361 20.3146 15.4442C20.7669 14.3522 20.9997 13.1819 20.9997 12C20.9997 10.8182 20.7669 9.64784 20.3146 8.55593C19.8623 7.46403 19.1993 6.47191 18.3635 5.63624H18.3638Z" fill="black"/>
</svg>
