<svg width="24" height="24" viewBox="0 0 24 24" fill="none" xmlns="http://www.w3.org/2000/svg">
<path d="M10.7812 7.99999L11.2422 13H12.7578L13.2188 7.99999H10.7812ZM12 14C11.8022 14 11.6089 14.0586 11.4444 14.1685C11.28 14.2784 11.1518 14.4346 11.0761 14.6173C11.0004 14.8 10.9806 15.0011 11.0192 15.1951C11.0578 15.3891 11.153 15.5672 11.2929 15.7071C11.4327 15.847 11.6109 15.9422 11.8049 15.9808C11.9989 16.0194 12.2 15.9996 12.3827 15.9239C12.5654 15.8482 12.7216 15.72 12.8315 15.5556C12.9413 15.3911 13 15.1978 13 15C13 14.7348 12.8946 14.4804 12.7071 14.2929C12.5196 14.1053 12.2652 14 12 14ZM19.7782 7.04999L18.3638 5.63599C17.2277 4.49702 15.8068 3.68381 14.2493 3.28123C12.6918 2.87866 11.0548 2.90147 9.50913 3.34728C7.96345 3.7931 6.56574 4.64558 5.46186 5.81577C4.35798 6.98595 3.58839 8.43096 3.2334 9.99999H5.3034C5.64823 8.83863 6.28898 7.78683 7.16281 6.94773C8.03664 6.10864 9.11356 5.51105 10.2879 5.21359C11.4623 4.91613 12.6939 4.929 13.8618 5.25093C15.0297 5.57287 16.0939 6.19282 16.95 7.04999L18.3644 8.46399L16.92 9.90809H21.2215V5.60659L19.7782 7.04999ZM16.95 16.95C15.6372 18.2627 13.8568 19.0002 12.0003 19.0002C10.1438 19.0002 8.36335 18.2627 7.0506 16.95L5.6362 15.536L7.08 14.0919H2.7782V18.3934L4.2218 16.95L5.6362 18.364C6.77225 19.503 8.19317 20.3162 9.75067 20.7188C11.3082 21.1213 12.9452 21.0985 14.4909 20.6527C16.0365 20.2069 17.4343 19.3544 18.5381 18.1842C19.642 17.014 20.4116 15.569 20.7666 14H18.6966C18.371 15.1142 17.7704 16.1287 16.95 16.95Z" fill="black"/>
</svg>
