<svg width="24" height="24" viewBox="0 0 24 24" fill="none" xmlns="http://www.w3.org/2000/svg">
<path d="M6.6968 6.69631C8.10461 5.29229 10.0117 4.50384 12 4.50384C13.9883 4.50384 15.8954 5.29229 17.3032 6.69631L18.7781 8.17151H15.3691V9.17151H20.4854V4.05541H19.4854V7.46461L18.01 5.98931C16.8212 4.80069 15.3067 3.99126 13.6579 3.66337C12.0091 3.33549 10.3001 3.50387 8.74698 4.14724C7.19388 4.7906 5.86643 5.88005 4.93248 7.27783C3.99853 8.6756 3.50002 10.3189 3.5 12H4.5C4.49742 11.0146 4.69025 10.0386 5.06732 9.12819C5.4444 8.21782 5.99824 7.39126 6.6968 6.69631ZM19.5 12C19.5001 13.4834 19.0602 14.9335 18.2362 16.1669C17.4121 17.4003 16.2408 18.3616 14.8703 18.9293C13.4999 19.497 11.9919 19.6456 10.537 19.3562C9.08212 19.0669 7.74572 18.3526 6.6968 17.3037L5.2219 15.8285H8.6309V14.8285H3.5146V19.9447H4.5146V16.5356L5.99 18.0107C7.17879 19.1993 8.69333 20.0088 10.3421 20.3366C11.9909 20.6645 13.6999 20.4961 15.253 19.8528C16.8061 19.2094 18.1336 18.12 19.0675 16.7222C20.0015 15.3244 20.5 13.6811 20.5 12H19.5Z" fill="black"/>
</svg>
