<svg width="24" height="24" viewBox="0 0 24 24" fill="none" xmlns="http://www.w3.org/2000/svg">
<path d="M21.8906 14.1924C21.2203 12.6072 20.1707 11.2111 18.8344 10.1266C17.498 9.04206 15.9156 8.30248 14.2264 7.97283C12.5372 7.64319 10.7929 7.73358 9.14678 8.23605C7.50069 8.73852 6.00325 9.63769 4.7861 10.8545L1.5005 14.14V9.6423H1V15H6.3579V14.5H1.8479L5.14 11.208C6.29955 10.0498 7.72578 9.19401 9.29341 8.71591C10.861 8.2378 12.5221 8.15199 14.1307 8.466C15.7392 8.78001 17.246 9.48423 18.5188 10.5168C19.7915 11.5494 20.7912 12.8787 21.43 14.388C21.5152 14.589 21.5826 14.7953 21.6539 15.0003H22.1861C22.0962 14.7283 22.0028 14.4576 21.8906 14.1924Z" fill="black"/>
</svg>
