<svg width="24" height="24" viewBox="0 0 24 24" fill="none" xmlns="http://www.w3.org/2000/svg">
<path d="M22.5811 13.9009C21.8632 12.2024 20.7389 10.7063 19.3072 9.54417C17.8755 8.38205 16.1801 7.58952 14.3703 7.23627C12.5604 6.88303 10.6915 6.97988 8.92781 7.51833C7.16416 8.05678 5.55983 9.02032 4.2559 10.3242L3.8259 10.7542L1 7.92901V15H8.071L5.24 12.1685L5.67 11.7385C6.7427 10.6672 8.06206 9.87568 9.51218 9.43348C10.9623 8.99127 12.4988 8.91191 13.9868 9.20235C15.4748 9.4928 16.8686 10.1442 18.046 11.0993C19.2234 12.0544 20.1482 13.2839 20.7393 14.68C20.7837 14.7852 20.8158 14.8939 20.8562 15H22.978C22.8648 14.627 22.7323 14.2602 22.5811 13.9009Z" fill="black"/>
</svg>
