<svg width="24" height="24" viewBox="0 0 24 24" fill="none" xmlns="http://www.w3.org/2000/svg">
<path d="M19.071 4.92895C17.6725 3.53042 15.8907 2.57801 13.9509 2.19216C12.011 1.8063 10.0004 2.00433 8.17312 2.7612C6.34585 3.51808 4.78406 4.7998 3.68525 6.4443C2.58643 8.08879 1.99994 10.0222 1.99994 12C1.99994 13.9778 2.58643 15.9112 3.68525 17.5557C4.78406 19.2002 6.34585 20.4819 8.17312 21.2388C10.0004 21.9957 12.011 22.1937 13.9509 21.8079C15.8907 21.422 17.6725 20.4696 19.071 19.0711C20.0034 18.1446 20.7433 17.0429 21.2482 15.8293C21.7531 14.6158 22.013 13.3144 22.013 12C22.013 10.6856 21.7531 9.38421 21.2482 8.17068C20.7433 6.95714 20.0034 5.85543 19.071 4.92895ZM18.3639 18.3641C16.8916 19.8364 14.9543 20.7526 12.8821 20.9567C10.8099 21.1608 8.73111 20.64 6.99983 19.4832C5.26856 18.3264 3.99196 16.6051 3.38754 14.6125C2.78313 12.62 2.8883 10.4795 3.68513 8.55583C4.48196 6.63214 5.92116 5.04425 7.75749 4.06272C9.59383 3.08119 11.7137 2.76675 13.7559 3.17297C15.7981 3.5792 17.6362 4.68095 18.9571 6.29052C20.2781 7.90008 21 9.91786 21 12.0001C21.0032 13.1824 20.7719 14.3537 20.3194 15.4461C19.8669 16.5385 19.2023 17.5303 18.3639 18.3641ZM15 9.50005V8.50005H8.50002V15.0001H9.50002V10.2071L15.1821 15.8888L15.8892 15.1817L10.207 9.50005H15Z" fill="black"/>
</svg>
