<svg width="24" height="24" viewBox="0 0 24 24" fill="none" xmlns="http://www.w3.org/2000/svg">
<path d="M22.5 9.64229V14.14L19.2144 10.8544C17.9969 9.63836 16.4993 8.73989 14.8534 8.2379C13.2074 7.73591 11.4633 7.64575 9.77439 7.97535C8.08543 8.30494 6.50324 9.04421 5.16678 10.1282C3.83031 11.2122 2.78046 12.6078 2.10943 14.1924C1.99723 14.4576 1.90383 14.7283 1.81433 15H2.34643C2.41773 14.795 2.48513 14.5887 2.57033 14.3877C3.20861 12.8779 4.20804 11.5481 5.48075 10.5151C6.75345 9.48207 8.26045 8.77757 9.86925 8.46352C11.478 8.14946 13.1394 8.23546 14.7071 8.71396C16.2749 9.19246 17.7011 10.0488 18.8603 11.2077L22.1519 14.5H17.6419V15H23V9.64219L22.5 9.64229Z" fill="black"/>
</svg>
