<svg width="24" height="24" viewBox="0 0 24 24" fill="none" xmlns="http://www.w3.org/2000/svg">
<path d="M18.187 5.81296C17.3764 4.99788 16.4122 4.35168 15.3502 3.91174C14.2882 3.4718 13.1495 3.24687 12 3.24996H10.2159V0.784058L7 3.99996L10.2159 7.21586V4.74996H12C13.4339 4.74996 14.8356 5.17516 16.0279 5.9718C17.2201 6.76844 18.1494 7.90074 18.6981 9.2255C19.2469 10.5503 19.3904 12.008 19.1107 13.4144C18.8309 14.8207 18.1405 16.1126 17.1265 17.1265C16.1126 18.1404 14.8208 18.8309 13.4144 19.1107C12.008 19.3904 10.5503 19.2468 9.22554 18.6981C7.90078 18.1493 6.76849 17.2201 5.97185 16.0278C5.1752 14.8356 4.75 13.4339 4.75 12H3.25C3.24994 13.4389 3.60477 14.8557 4.28305 16.1248C4.96134 17.3939 5.94214 18.4761 7.13858 19.2756C8.33503 20.075 9.71018 20.5671 11.1422 20.7082C12.5743 20.8492 14.019 20.635 15.3484 20.0843C16.6779 19.5336 17.851 18.6636 18.7639 17.5512C19.6767 16.4389 20.3012 15.1186 20.5819 13.7073C20.8626 12.2959 20.7909 10.8372 20.3732 9.46016C19.9554 8.08316 19.2045 6.83043 18.187 5.81296Z" fill="black"/>
</svg>
