<svg width="24" height="24" viewBox="0 0 24 24" fill="none" xmlns="http://www.w3.org/2000/svg">
<path d="M14.5146 17V14.5146H17V13.2146H14.5146V9.4854H10.7854V7H9.4854V9.4854H7V10.7854H9.4854V14.5146H13.2146V17H14.5146ZM10.7854 13.2146V10.7854H13.2146V13.2146H10.7854ZM19.25 12C19.25 13.4339 18.8248 14.8356 18.0282 16.0279C17.2315 17.2201 16.0992 18.1494 14.7745 18.6981C13.4497 19.2469 11.992 19.3904 10.5856 19.1107C9.17924 18.8309 7.88741 18.1405 6.87348 17.1265C5.85955 16.1126 5.16905 14.8208 4.88931 13.4144C4.60957 12.008 4.75314 10.5503 5.30188 9.22554C5.85061 7.90078 6.77986 6.76849 7.97212 5.97185C9.16438 5.1752 10.5661 4.75 12 4.75H13.5416V6.5L16.0416 4L13.5416 1.5V3.25H12C10.2694 3.25 8.57769 3.76318 7.13876 4.72464C5.69983 5.6861 4.57832 7.05267 3.91606 8.65152C3.25379 10.2504 3.08051 12.0097 3.41813 13.707C3.75575 15.4044 4.58911 16.9635 5.81282 18.1872C7.03653 19.4109 8.59563 20.2443 10.293 20.5819C11.9903 20.9195 13.7496 20.7462 15.3485 20.0839C16.9473 19.4217 18.3139 18.3002 19.2754 16.8612C20.2368 15.4223 20.75 13.7306 20.75 12H19.25Z" fill="black"/>
</svg>
