<svg width="24" height="24" viewBox="0 0 24 24" fill="none" xmlns="http://www.w3.org/2000/svg">
<path d="M19.25 12C19.25 13.6773 18.6684 15.3027 17.6043 16.5993C16.5403 17.8959 15.0595 18.7835 13.4144 19.1107C11.7693 19.4379 10.0617 19.1846 8.58238 18.394C7.10311 17.6033 5.94375 16.3242 5.30186 14.7745C4.65997 13.2249 4.57525 11.5006 5.06214 9.89549C5.54904 8.29039 6.57742 6.90377 7.97206 5.97189C9.3667 5.04001 11.0413 4.62053 12.7106 4.78493C14.3798 4.94933 15.9404 5.68743 17.1265 6.87347L17.6809 7.42787L15.9373 9.17157H20.4854V4.62347L18.7415 6.36737L18.187 5.81297C16.7556 4.3818 14.8723 3.49121 12.8579 3.29294C10.8435 3.09467 8.82267 3.60099 7.13974 4.72562C5.4568 5.85025 4.21588 7.52362 3.62839 9.46062C3.04091 11.3976 3.14321 13.4784 3.91788 15.3484C4.69254 17.2184 6.09164 18.762 7.87678 19.7161C9.66193 20.6702 11.7227 20.9758 13.7079 20.5809C15.6931 20.186 17.48 19.115 18.7641 17.5503C20.0481 15.9856 20.75 14.0241 20.75 12H19.25Z" fill="black"/>
</svg>
