<svg width="24" height="24" viewBox="0 0 24 24" fill="none" xmlns="http://www.w3.org/2000/svg">
<path d="M19.5 12C19.5 13.4834 19.0601 14.9334 18.236 16.1668C17.4119 17.4002 16.2406 18.3615 14.8701 18.9291C13.4997 19.4968 11.9917 19.6453 10.5368 19.3559C9.08197 19.0665 7.7456 18.3522 6.6967 17.3033C5.64781 16.2544 4.9335 14.9181 4.64411 13.4632C4.35472 12.0083 4.50325 10.5003 5.07091 9.1299C5.63856 7.75945 6.59986 6.58811 7.83323 5.764C9.0666 4.93989 10.5166 4.50002 12 4.50002H15.0857L12.6757 6.91062L13.3827 7.61772L17 4.00002L13.3823 0.382324L12.6753 1.08942L15.0857 3.50002H12C10.3189 3.50002 8.67548 3.99854 7.27766 4.93253C5.87984 5.86652 4.79037 7.19404 4.14703 8.74721C3.50368 10.3004 3.33535 12.0095 3.66333 13.6583C3.9913 15.3071 4.80085 16.8217 5.9896 18.0104C7.17834 19.1992 8.6929 20.0087 10.3417 20.3367C11.9906 20.6647 13.6996 20.4963 15.2528 19.853C16.806 19.2097 18.1335 18.1202 19.0675 16.7224C20.0015 15.3246 20.5 13.6812 20.5 12H19.5Z" fill="black"/>
</svg>
