<svg width="24" height="24" viewBox="0 0 24 24" fill="none" xmlns="http://www.w3.org/2000/svg">
<path d="M19.9841 7.61006L18.187 5.81306C17.0856 4.70949 15.7091 3.92059 14.2002 3.52814C12.6913 3.1357 11.1049 3.15398 9.6054 3.58111C8.10592 4.00823 6.74798 4.82865 5.67234 5.9573C4.59671 7.08596 3.84253 8.48178 3.488 10.0001H5.033C5.38085 8.78729 6.03923 7.68633 6.94303 6.80602C7.84684 5.92572 8.96476 5.29656 10.1863 4.98077C11.4078 4.66498 12.6906 4.67348 13.9078 5.00545C15.125 5.33742 16.2344 5.98134 17.1265 6.87356L18.9236 8.67076L17.6863 9.90816H21.2218V6.37266L19.9841 7.61006ZM17.1265 17.1264C15.7669 18.486 13.9228 19.2498 12 19.2498C10.0772 19.2498 8.23313 18.486 6.8735 17.1264L5.0764 15.3294L6.3137 14.092H2.7782V17.6275L4.0159 16.3901L5.813 18.1871C6.91436 19.2906 8.29085 20.0795 9.79978 20.472C11.3087 20.8644 12.8951 20.8461 14.3946 20.419C15.8941 19.9919 17.252 19.1715 18.3277 18.0428C19.4033 16.9142 20.1575 15.5183 20.512 14.0001H18.967C18.63 15.1821 17.9965 16.2583 17.1265 17.1266V17.1264ZM10.0576 14.9325L12 12.9901L13.9424 14.9325L14.9324 13.9425L12.99 12.0001L14.9324 10.0577L13.9424 9.06766L12 11.0101L10.0576 9.06746L9.0676 10.0575L11.01 12.0001L9.0674 13.9425L10.0576 14.9325Z" fill="black"/>
</svg>
