<svg width="24" height="24" viewBox="0 0 24 24" fill="none" xmlns="http://www.w3.org/2000/svg">
<path d="M7.7571 9.3853L8.7012 7.75C8.7312 7.6972 8.7706 7.6512 8.8022 7.5992C7.69716 6.57608 6.24814 6.00533 4.7422 6H2V8H4.7422C5.31452 8.00219 5.87973 8.12696 6.39978 8.36592C6.91983 8.60487 7.38266 8.95247 7.7571 9.3853ZM16.0625 8H18V11L22 7L18 3V6H16.0625C15.0096 6.00166 13.9756 6.2796 13.0637 6.80604C12.1519 7.33248 11.3941 8.089 10.8662 9L7.98 14C7.62817 14.6074 7.12308 15.1117 6.51521 15.4627C5.90735 15.8137 5.21801 15.999 4.5161 16H2V18H4.5156C5.56851 17.9983 6.60255 17.7204 7.5144 17.194C8.42626 16.6675 9.18399 15.911 9.7119 15L12.5986 10C12.9504 9.39263 13.4555 8.88825 14.0634 8.53728C14.6712 8.18631 15.3606 8.00105 16.0625 8ZM18 16H15.8867C15.2974 16.0004 14.719 15.8415 14.2125 15.5403C13.7061 15.2391 13.2903 14.8067 13.0093 14.2888L11.9252 16.1664C12.4063 16.7489 13.012 17.2161 13.6976 17.5334C14.3832 17.8508 15.1313 18.0102 15.8867 18H18V21L22 17L18 13V16Z" fill="black"/>
</svg>
