<svg width="24" height="24" viewBox="0 0 24 24" fill="none" xmlns="http://www.w3.org/2000/svg">
<path d="M18.3638 5.6362C17.5301 4.79779 16.5383 4.1331 15.446 3.68059C14.3536 3.22808 13.1824 2.99675 12 3H11V0L7 4L11 8V5H12C13.3845 5 14.7378 5.41054 15.889 6.17971C17.0401 6.94888 17.9373 8.04213 18.4672 9.32122C18.997 10.6003 19.1356 12.0078 18.8655 13.3656C18.5954 14.7235 17.9287 15.9708 16.9497 16.9497C15.9708 17.9287 14.7235 18.5954 13.3656 18.8655C12.0078 19.1356 10.6003 18.997 9.32122 18.4672C8.04213 17.9373 6.94888 17.0401 6.17971 15.889C5.41054 14.7378 5 13.3845 5 12H3C3.00006 13.78 3.52794 15.52 4.51688 17C5.50581 18.4799 6.9114 19.6334 8.55589 20.3146C10.2004 20.9958 12.0099 21.174 13.7557 20.8268C15.5015 20.4795 17.1051 19.6224 18.3638 18.3638C19.1996 17.5281 19.8626 16.536 20.3149 15.4441C20.7672 14.3522 21 13.1819 21 12C21 10.8181 20.7672 9.6478 20.3149 8.55589C19.8626 7.46398 19.1996 6.47187 18.3638 5.6362Z" fill="black"/>
</svg>
