<svg width="24" height="24" viewBox="0 0 24 24" fill="none" xmlns="http://www.w3.org/2000/svg">
<path d="M18.01 5.98932C17.2225 5.19769 16.2859 4.57008 15.2543 4.1428C14.2227 3.71551 13.1166 3.49704 12 3.50002H8.9143L11.3243 1.08942L10.6173 0.382324L7 4.00002L10.6177 7.61772L11.3247 6.91062L8.9143 4.50002H12C13.4834 4.50002 14.9334 4.93989 16.1668 5.764C17.4001 6.58811 18.3614 7.75945 18.9291 9.1299C19.4968 10.5003 19.6453 12.0083 19.3559 13.4632C19.0665 14.9181 18.3522 16.2544 17.3033 17.3033C16.2544 18.3522 14.918 19.0665 13.4632 19.3559C12.0083 19.6453 10.5003 19.4968 9.12987 18.9291C7.75943 18.3615 6.58809 17.4002 5.76398 16.1668C4.93987 14.9334 4.5 13.4834 4.5 12H3.5C3.49998 13.3979 3.84471 14.7742 4.50366 16.007C5.1626 17.2398 6.11542 18.2911 7.2777 19.0677C8.43999 19.8443 9.77586 20.3222 11.167 20.4592C12.5581 20.5962 13.9616 20.388 15.253 19.853C16.5445 19.3181 17.684 18.4728 18.5708 17.3922C19.4575 16.3116 20.0641 15.029 20.3368 13.658C20.6094 12.287 20.5397 10.8699 20.1339 9.53225C19.728 8.1946 18.9985 6.97769 18.01 5.98932Z" fill="black"/>
</svg>
