<svg width="24" height="24" viewBox="0 0 24 24" fill="none" xmlns="http://www.w3.org/2000/svg">
<path d="M13.75 13.7501H7.99996V14.2501H14.25V8.00005H13.75V13.7501ZM19.071 4.92895C17.6724 3.53042 15.8906 2.57801 13.9508 2.19216C12.011 1.8063 10.0003 2.00433 8.17306 2.7612C6.34579 3.51808 4.784 4.7998 3.68519 6.4443C2.58637 8.08879 1.99988 10.0222 1.99988 12C1.99988 13.9778 2.58637 15.9112 3.68519 17.5557C4.784 19.2002 6.34579 20.4819 8.17306 21.2388C10.0003 21.9957 12.011 22.1937 13.9508 21.8079C15.8906 21.422 17.6724 20.4696 19.071 19.0711C20.0033 18.1446 20.7432 17.0429 21.2481 15.8293C21.753 14.6158 22.013 13.3144 22.013 12C22.013 10.6856 21.753 9.38421 21.2481 8.17068C20.7432 6.95714 20.0033 5.85543 19.071 4.92895ZM18.7175 18.7176C17.836 19.6027 16.7886 20.3053 15.6352 20.7852C14.4818 21.265 13.2451 21.5127 11.9959 21.514C10.7467 21.5153 9.50947 21.2702 8.3551 20.7927C7.20073 20.3153 6.15186 19.6148 5.26853 18.7315C4.3852 17.8482 3.68476 16.7993 3.20731 15.6449C2.72985 14.4905 2.48475 13.2533 2.48605 12.0041C2.48734 10.7549 2.735 9.51822 3.21485 8.36485C3.6947 7.21147 4.39731 6.16405 5.28246 5.28255C6.16396 4.3974 7.21138 3.69479 8.36475 3.21494C9.51813 2.73509 10.7548 2.48743 12.004 2.48614C13.2533 2.48485 14.4905 2.72994 15.6448 3.2074C16.7992 3.68485 17.8481 4.38529 18.7314 5.26862C19.6147 6.15195 20.3152 7.20082 20.7926 8.35519C21.2701 9.50956 21.5152 10.7468 21.5139 11.996C21.5126 13.2452 21.2649 14.4819 20.7851 15.6353C20.3052 16.7886 19.6026 17.8361 18.7175 18.7176Z" fill="black"/>
</svg>
