<svg width="24" height="24" viewBox="0 0 24 24" fill="none" xmlns="http://www.w3.org/2000/svg">
<path d="M6.8735 6.8735C8.23314 5.51388 10.0772 4.75005 12 4.75005C13.9228 4.75005 15.7669 5.51388 17.1265 6.8735L17.6809 7.4279L15.9373 9.1716H20.4854V4.6235L18.7415 6.3674L18.187 5.813C16.9633 4.58937 15.4042 3.75607 13.7069 3.41848C12.0097 3.08089 10.2504 3.25417 8.65157 3.9164C7.05276 4.57864 5.68623 5.70009 4.72476 7.13895C3.76329 8.57782 3.25007 10.2695 3.25 12H4.75C4.74734 11.0475 4.93365 10.104 5.29815 9.22401C5.66266 8.34404 6.19811 7.54511 6.8735 6.8735ZM19.25 12C19.25 13.4339 18.8248 14.8356 18.0281 16.0279C17.2315 17.2201 16.0992 18.1494 14.7744 18.6981C13.4497 19.2468 11.992 19.3904 10.5856 19.1106C9.17925 18.8309 7.88743 18.1404 6.8735 17.1265C6.68901 16.9405 6.51469 16.7447 6.3513 16.5399L8.0627 14.8284H3.5146V19.3765L5.2906 17.6005C5.4578 17.8005 5.6262 18.0005 5.813 18.187C7.03671 19.4106 8.59578 20.2439 10.2931 20.5815C11.9903 20.9191 13.7496 20.7458 15.3484 20.0836C16.9472 19.4214 18.3138 18.2999 19.2752 16.861C20.2367 15.4222 20.7499 13.7305 20.75 12H19.25Z" fill="black"/>
</svg>
