<svg width="24" height="24" viewBox="0 0 24 24" fill="none" xmlns="http://www.w3.org/2000/svg">
<path d="M19 12C19 13.3845 18.5895 14.7378 17.8203 15.889C17.0512 17.0401 15.9579 17.9373 14.6788 18.4672C13.3997 18.997 11.9923 19.1356 10.6344 18.8655C9.27655 18.5954 8.02927 17.9287 7.0503 16.9497C6.07133 15.9708 5.40465 14.7235 5.13455 13.3656C4.86445 12.0078 5.00308 10.6003 5.53289 9.32122C6.0627 8.04213 6.95991 6.94888 8.11106 6.17971C9.2622 5.41054 10.6156 5 12 5H13V8L17 4L13 0V3H12C10.2201 3.00006 8.48007 3.52794 7.00008 4.51688C5.5201 5.50581 4.3666 6.9114 3.68544 8.55589C3.00427 10.2004 2.82604 12.0099 3.17329 13.7557C3.52053 15.5015 4.37764 17.1051 5.63625 18.3638C6.89492 19.6224 8.49854 20.4795 10.2443 20.8268C11.9901 21.174 13.7997 20.9958 15.4442 20.3146C17.0887 19.6334 18.4942 18.4799 19.4832 17C20.4721 15.52 21 13.78 21 12H19Z" fill="black"/>
</svg>
