<svg width="24" height="24" viewBox="0 0 24 24" fill="none" xmlns="http://www.w3.org/2000/svg">
<path d="M6.6968 6.69631C8.10341 5.29002 10.011 4.5 12 4.5C13.989 4.5 15.8966 5.29002 17.3032 6.69631L18.77 8.16331H16.6892V9.16331H20.4768V5.37551H19.4768V7.45641L18.01 5.98931C16.8212 4.80069 15.3067 3.99126 13.6579 3.66337C12.0091 3.33549 10.3001 3.50387 8.74698 4.14724C7.19388 4.7906 5.86643 5.88005 4.93248 7.27783C3.99853 8.6756 3.50002 10.3189 3.5 12H4.5C4.49742 11.0146 4.69025 10.0386 5.06732 9.12819C5.4444 8.21782 5.99824 7.39126 6.6968 6.69631ZM19.5 12C19.5001 13.4834 19.0602 14.9335 18.2362 16.1669C17.4121 17.4003 16.2408 18.3616 14.8703 18.9293C13.4999 19.497 11.9919 19.6456 10.537 19.3562C9.08212 19.0669 7.74572 18.3526 6.6968 17.3037L5.23 15.8367H7.3108V14.8367H3.5232V18.6242H4.5232V16.5442L5.99 18.0107C7.17879 19.1993 8.69333 20.0088 10.3421 20.3366C11.9909 20.6645 13.6999 20.4961 15.253 19.8528C16.8061 19.2094 18.1336 18.12 19.0675 16.7222C20.0015 15.3244 20.5 13.6811 20.5 12H19.5ZM14.084 9.20901L12 11.293L9.916 9.20901L9.209 9.91601L11.293 12L9.209 14.084L9.916 14.791L12 12.707L14.084 14.791L14.791 14.084L12.707 12L14.791 9.91601L14.084 9.20901Z" fill="black"/>
</svg>
