<svg width="24" height="24" viewBox="0 0 24 24" fill="none" xmlns="http://www.w3.org/2000/svg">
<path d="M19.0711 4.92895C17.6726 3.53042 15.8907 2.57801 13.9509 2.19216C12.0111 1.8063 10.0004 2.00433 8.17318 2.7612C6.34591 3.51808 4.78412 4.7998 3.68531 6.4443C2.58649 8.08879 2 10.0222 2 12C2 13.9778 2.58649 15.9112 3.68531 17.5557C4.78412 19.2002 6.34591 20.4819 8.17318 21.2388C10.0004 21.9957 12.0111 22.1937 13.9509 21.8079C15.8907 21.422 17.6726 20.4696 19.0711 19.0711C20.0034 18.1446 20.7433 17.0429 21.2482 15.8293C21.7531 14.6158 22.0131 13.3144 22.0131 12C22.0131 10.6856 21.7531 9.38421 21.2482 8.17068C20.7433 6.95714 20.0034 5.85543 19.0711 4.92895ZM18.3641 18.3641C16.8918 19.8364 14.9545 20.7527 12.8823 20.9568C10.8101 21.1609 8.73129 20.6402 7 19.4834C5.26871 18.3266 3.99208 16.6053 3.38764 14.6128C2.7832 12.6202 2.88834 10.4797 3.68514 8.55604C4.48195 6.63234 5.92113 5.04443 7.75745 4.06287C9.59378 3.08132 11.7136 2.76685 13.7558 3.17305C15.798 3.57925 17.6362 4.68099 18.9571 6.29053C20.2781 7.90008 21.0001 9.91786 21.0001 12.0001C21.0033 13.1824 20.772 14.3537 20.3195 15.4461C19.867 16.5385 19.2024 17.5303 18.3641 18.3641ZM14.5001 13.7931L8.81799 8.11135L8.11089 8.81845L13.793 14.5001H9.00009V15.5001H15.5001V9.00005H14.5001V13.7931Z" fill="black"/>
</svg>
