<svg width="24" height="24" viewBox="0 0 24 24" fill="none" xmlns="http://www.w3.org/2000/svg">
<path d="M14.1145 16.9999V14.1145H17V13.6145H14.1145V9.88535H10.3855V6.99995H9.8855V9.88535H7V10.3853H9.8855V14.1145H13.6145V16.9999H14.1145ZM10.3855 13.6145V10.3853H13.6145V13.6145H10.3855ZM19.75 11.9999C19.75 13.5328 19.2955 15.0311 18.4439 16.3056C17.5923 17.5801 16.3819 18.5734 14.9658 19.16C13.5497 19.7466 11.9914 19.9001 10.4881 19.601C8.9847 19.302 7.60378 18.5639 6.51993 17.48C5.43607 16.3962 4.69795 15.0153 4.39892 13.5119C4.09988 12.0085 4.25336 10.4503 4.83994 9.03415C5.42652 7.61803 6.41985 6.40764 7.69433 5.55606C8.96882 4.70448 10.4672 4.24995 12 4.24995H15.0839L13.2555 6.07825L13.6095 6.43215L16.0416 3.99995L13.61 1.56775L13.256 1.92165L15.0839 3.74995H12C10.3683 3.74995 8.77325 4.2338 7.41655 5.14032C6.05984 6.04685 5.00242 7.33532 4.378 8.84281C3.75357 10.3503 3.5902 12.0091 3.90853 13.6094C4.22685 15.2098 5.01259 16.6798 6.16637 17.8336C7.32016 18.9874 8.79017 19.7731 10.3905 20.0914C11.9909 20.4098 13.6497 20.2464 15.1571 19.622C16.6646 18.9975 17.9531 17.9401 18.8596 16.5834C19.7661 15.2267 20.25 13.6316 20.25 11.9999H19.75Z" fill="black"/>
</svg>
