<svg width="24" height="24" viewBox="0 0 24 24" fill="none" xmlns="http://www.w3.org/2000/svg">
<path d="M19.75 18.7841V9.5C19.75 8.37283 19.3022 7.29183 18.5052 6.4948C17.7082 5.69777 16.6271 5.25 15.5 5.25C14.3728 5.25 13.2918 5.69777 12.4948 6.4948C11.6977 7.29183 11.25 8.37283 11.25 9.5V14.5C11.25 15.2293 10.9602 15.9288 10.4445 16.4445C9.9288 16.9603 9.22933 17.25 8.49998 17.25C7.77063 17.25 7.07116 16.9603 6.55544 16.4445C6.03971 15.9288 5.74998 15.2293 5.74998 14.5V5.2159H8.21578L4.99998 2L1.78418 5.2159H4.24998V14.5C4.24998 15.6272 4.69775 16.7082 5.49478 17.5052C6.29181 18.3022 7.37281 18.75 8.49998 18.75C9.62715 18.75 10.7082 18.3022 11.5052 17.5052C12.3022 16.7082 12.75 15.6272 12.75 14.5V9.5C12.75 8.77065 13.0397 8.07118 13.5554 7.55546C14.0712 7.03973 14.7706 6.75 15.5 6.75C16.2293 6.75 16.9288 7.03973 17.4445 7.55546C17.9602 8.07118 18.25 8.77065 18.25 9.5V18.7841H15.7842L19 22L22.2158 18.7841H19.75Z" fill="black"/>
</svg>
