<svg width="24" height="24" viewBox="0 0 24 24" fill="none" xmlns="http://www.w3.org/2000/svg">
<path d="M6.52 6.52C7.97457 5.06884 9.94534 4.25387 12 4.25387C14.0547 4.25387 16.0254 5.06884 17.48 6.52L19.3953 8.4357H15.6526V8.9357H20.25V4.3388H19.749V8.0818L17.8335 6.166C16.6797 5.01224 15.2097 4.22653 13.6093 3.90824C12.0089 3.58995 10.3501 3.75337 8.84267 4.37783C7.33519 5.0023 6.04674 6.05976 5.14025 7.41649C4.23376 8.77323 3.74995 10.3683 3.75 12H4.25C4.24738 10.9819 4.44665 9.97333 4.83629 9.0327C5.22593 8.09208 5.7982 7.23804 6.52 6.52ZM19.75 12C19.75 13.5328 19.2954 15.0311 18.4438 16.3056C17.5923 17.58 16.3819 18.5734 14.9658 19.1599C13.5497 19.7465 11.9914 19.9 10.4881 19.6009C8.98476 19.3019 7.60386 18.5638 6.52 17.48L4.6046 15.5647H8.3474V15.0647H3.7505V19.6616H4.251V15.9181L6.1665 17.834C7.32031 18.9878 8.79034 19.7735 10.3907 20.0918C11.9911 20.41 13.6499 20.2466 15.1573 19.6222C16.6648 18.9977 17.9533 17.9402 18.8597 16.5835C19.7662 15.2268 20.25 13.6317 20.25 12H19.75Z" fill="black"/>
</svg>
