<svg width="24" height="24" viewBox="0 0 24 24" fill="none" xmlns="http://www.w3.org/2000/svg">
<path d="M19.071 4.92895C17.6725 3.53042 15.8907 2.57801 13.9509 2.19216C12.011 1.8063 10.0004 2.00433 8.17312 2.7612C6.34585 3.51808 4.78406 4.7998 3.68525 6.4443C2.58643 8.08879 1.99994 10.0222 1.99994 12C1.99994 13.9778 2.58643 15.9112 3.68525 17.5557C4.78406 19.2002 6.34585 20.4819 8.17312 21.2388C10.0004 21.9957 12.011 22.1937 13.9509 21.8079C15.8907 21.422 17.6725 20.4696 19.071 19.0711C20.0034 18.1446 20.7433 17.0429 21.2482 15.8293C21.7531 14.6158 22.013 13.3144 22.013 12C22.013 10.6856 21.7531 9.38421 21.2482 8.17068C20.7433 6.95714 20.0034 5.85543 19.071 4.92895ZM17.6568 17.657C16.3481 18.9657 14.626 19.7801 12.7841 19.9615C10.9422 20.1429 9.09432 19.6801 7.55541 18.6518C6.0165 17.6235 4.88175 16.0934 4.34449 14.3223C3.80723 12.5511 3.90071 10.6485 4.609 8.93854C5.3173 7.22859 6.59658 5.81713 8.22888 4.94466C9.86118 4.07219 11.7455 3.79268 13.5608 4.15377C15.376 4.51486 17.01 5.49419 18.1841 6.92491C19.3583 8.35563 20 10.1492 20 12.0001C20.0029 13.0511 19.7973 14.0922 19.395 15.0632C18.9928 16.0342 18.402 16.9158 17.6568 17.657ZM14.8286 7.75695L10 12.586V9.00005H8.00002V16.0001H15V14.0001H11.4141L16.2427 9.17145L14.8286 7.75695Z" fill="black"/>
</svg>
