<svg width="24" height="24" viewBox="0 0 24 24" fill="none" xmlns="http://www.w3.org/2000/svg">
<path d="M22 8.63595V13.287L19.3906 10.6776C18.1441 9.43271 16.6111 8.51287 14.926 7.99893C13.241 7.48499 11.4555 7.39266 9.72643 7.73006C7.99736 8.06745 6.37759 8.82425 5.00937 9.93399C3.64116 11.0437 2.56636 12.4724 1.87938 14.0946C1.75368 14.3919 1.64648 14.6946 1.54858 14.9999H2.61178C2.67358 14.8277 2.72858 14.6536 2.80028 14.4843C3.42275 13.0124 4.3973 11.7158 5.63826 10.7087C6.87923 9.70163 8.3486 9.01482 9.91719 8.70867C11.4858 8.40253 13.1056 8.48641 14.6342 8.95297C16.1627 9.41952 17.5533 10.2544 18.6836 11.3844L21.2988 13.9999H16.6361V14.9999H23V8.63595H22Z" fill="black"/>
</svg>
