<svg width="24" height="24" viewBox="0 0 24 24" fill="none" xmlns="http://www.w3.org/2000/svg">
<path d="M20 18V9.5C20 8.30653 19.5259 7.16193 18.682 6.31802C17.8381 5.47411 16.6935 5 15.5 5C14.3065 5 13.1619 5.47411 12.318 6.31802C11.4741 7.16193 11 8.30653 11 9.5V14.5C11 15.163 10.7366 15.7989 10.2678 16.2678C9.79893 16.7366 9.16304 17 8.5 17C7.83696 17 7.20107 16.7366 6.73223 16.2678C6.26339 15.7989 6 15.163 6 14.5V6H9L5 2L1 6H4V14.5C4 15.6935 4.47411 16.8381 5.31802 17.682C6.16193 18.5259 7.30653 19 8.5 19C9.69347 19 10.8381 18.5259 11.682 17.682C12.5259 16.8381 13 15.6935 13 14.5V9.5C13 8.83696 13.2634 8.20107 13.7322 7.73223C14.2011 7.26339 14.837 7 15.5 7C16.163 7 16.7989 7.26339 17.2678 7.73223C17.7366 8.20107 18 8.83696 18 9.5V18H15L19 22L23 18H20Z" fill="black"/>
</svg>
