<svg width="24" height="24" viewBox="0 0 24 24" fill="none" xmlns="http://www.w3.org/2000/svg">
<path d="M11.75 1.9578V9H12.25V1.9578L14.8965 4.6042L15.2505 4.2505L12 1L8.75 4.2505L9.104 4.6042L11.75 1.9578ZM19.75 8.7495L19.3963 9.1034L22.0422 11.75H15V12.25H22.0422L19.3958 14.8966L19.7495 15.2505L23 12L19.75 8.7495ZM12.25 22.0422V15H11.75V22.0422L9.1035 19.3958L8.75 19.75L12 23L15.2505 19.75L14.8965 19.3963L12.25 22.0422ZM9 12.25V11.75H1.9578L4.6042 9.1034L4.2505 8.75L1 12L4.25 15.2505L4.6037 14.8966L1.9578 12.25H9Z" fill="black"/>
</svg>
