<svg width="24" height="24" viewBox="0 0 24 24" fill="none" xmlns="http://www.w3.org/2000/svg">
<path d="M19.071 4.92895C17.6724 3.53042 15.8906 2.57801 13.9508 2.19216C12.011 1.8063 10.0003 2.00433 8.17306 2.7612C6.34579 3.51808 4.784 4.7998 3.68519 6.4443C2.58637 8.08879 1.99988 10.0222 1.99988 12C1.99988 13.9778 2.58637 15.9112 3.68519 17.5557C4.784 19.2002 6.34579 20.4819 8.17306 21.2388C10.0003 21.9957 12.011 22.1937 13.9508 21.8079C15.8906 21.422 17.6724 20.4696 19.071 19.0711C20.9463 17.1957 21.9999 14.6522 21.9999 12C21.9999 9.34785 20.9463 6.80432 19.071 4.92895ZM14.5 14.5001H7.99996V13.5001H13.5V8.00005H14.5V14.5001Z" fill="black"/>
</svg>
