<svg width="24" height="24" viewBox="0 0 24 24" fill="none" xmlns="http://www.w3.org/2000/svg">
<g clip-path="url(#clip0)">
<path d="M12 4C10.0222 4 8.08879 4.58649 6.4443 5.6853C4.79981 6.78412 3.51809 8.3459 2.76121 10.1732C2.00433 12.0004 1.8063 14.0111 2.19215 15.9509C2.578 17.8907 3.53041 19.6725 4.92894 21.0711C6.32746 22.4696 8.10929 23.422 10.0491 23.8079C11.9889 24.1937 13.9996 23.9957 15.8268 23.2388C17.6541 22.4819 19.2159 21.2002 20.3147 19.5557C21.4135 17.9112 22 15.9778 22 14C22 12.6868 21.7413 11.3864 21.2388 10.1732C20.7363 8.95991 19.9997 7.85752 19.0711 6.92893C18.1425 6.00035 17.0401 5.26375 15.8268 4.7612C14.6136 4.25866 13.3132 4 12 4ZM12 22.5C10.3189 22.5 8.67548 22.0015 7.27766 21.0675C5.87984 20.1335 4.79037 18.806 4.14703 17.2528C3.50368 15.6996 3.33536 13.9906 3.66333 12.3417C3.9913 10.6929 4.80085 9.17834 5.9896 7.98959C7.17834 6.80085 8.6929 5.9913 10.3417 5.66333C11.9906 5.33535 13.6996 5.50368 15.2528 6.14702C16.806 6.79037 18.1335 7.87984 19.0675 9.27765C20.0015 10.6755 20.5 12.3189 20.5 14C20.4974 16.2535 19.601 18.414 18.0075 20.0075C16.414 21.601 14.2535 22.4974 12 22.5ZM7.2271 13.47L8.2871 14.5306L11.25 11.5679V19H12.75V11.5679L15.7124 14.53L16.7724 13.4694L12 8.6968L7.2271 13.47Z" fill="black"/>
</g>
<defs>
<clipPath id="clip0">
<rect width="24" height="24" fill="white"/>
</clipPath>
</defs>
</svg>
