<svg width="24" height="24" viewBox="0 0 24 24" fill="none" xmlns="http://www.w3.org/2000/svg">
<path d="M12.5 12C12.5 11.9011 12.4707 11.8045 12.4158 11.7222C12.3608 11.64 12.2827 11.5759 12.1914 11.5381C12.1 11.5002 11.9995 11.4903 11.9025 11.5096C11.8055 11.5289 11.7164 11.5765 11.6465 11.6465C11.5765 11.7164 11.5289 11.8055 11.5096 11.9025C11.4903 11.9995 11.5002 12.1 11.5381 12.1914C11.5759 12.2827 11.64 12.3608 11.7222 12.4158C11.8045 12.4707 11.9011 12.5 12 12.5C12.1326 12.5 12.2598 12.4473 12.3536 12.3536C12.4473 12.2598 12.5 12.1326 12.5 12ZM17.8335 6.16602C16.2852 4.62108 14.1873 3.75342 12 3.75342C9.81277 3.75342 7.71483 4.62108 6.16653 6.16602L4.24213 8.09092V4.34792H3.74213V8.94462H8.33913V8.44462H4.59573L6.52003 6.52002C7.78799 5.25198 9.4564 4.46284 11.241 4.28704C13.0256 4.11124 14.8159 4.55967 16.3069 5.55593C17.7979 6.55218 18.8974 8.0346 19.4179 9.75061C19.9384 11.4666 19.8478 13.31 19.1616 14.9667C18.4753 16.6234 17.2358 17.9909 15.6543 18.8362C14.0728 19.6815 12.2472 19.9522 10.4884 19.6023C8.72967 19.2524 7.14666 18.3035 6.00912 16.9173C4.87159 15.531 4.24991 13.7932 4.25003 12H3.75003C3.75007 13.3567 4.0847 14.6925 4.72429 15.889C5.36387 17.0855 6.28867 18.1058 7.41676 18.8595C8.54485 19.6132 9.84141 20.0771 11.1916 20.2101C12.5418 20.343 13.9039 20.1409 15.1574 19.6217C16.4108 19.1025 17.5168 18.2821 18.3775 17.2334C19.2382 16.1846 19.8269 14.9397 20.0915 13.6091C20.3562 12.2784 20.2886 10.903 19.8947 9.60475C19.5009 8.30646 18.7929 7.12534 17.8335 6.16602Z" fill="black"/>
</svg>
