<svg width="24" height="24" viewBox="0 0 24 24" fill="none" xmlns="http://www.w3.org/2000/svg">
<path d="M11.5 2.9142V9H12.5V2.9142L14.9106 5.3247L15.6177 4.6177L12 1L8.3823 4.6177L9.0894 5.3247L11.5 2.9142ZM19.3823 8.3823L18.6753 9.0894L21.0853 11.5H15V12.5H21.0857L18.6757 14.9106L19.3827 15.6177L23 12L19.3823 8.3823ZM12.5 21.0858V15H11.5V21.0858L9.0894 18.6758L8.3823 19.3828L12 23L15.6177 19.3823L14.9106 18.6753L12.5 21.0858ZM9 12.5V11.5H2.9143L5.3243 9.0894L4.6173 8.3823L1 12L4.6177 15.6177L5.3247 14.9106L2.9143 12.5H9Z" fill="black"/>
</svg>
