<svg width="24" height="24" viewBox="0 0 24 24" fill="none" xmlns="http://www.w3.org/2000/svg">
<path d="M9.00001 16H11V11H16V9H9.00001V16ZM19.071 4.929C17.6725 3.53046 15.8907 2.57803 13.9509 2.19217C12.011 1.8063 10.0004 2.00432 8.17309 2.76119C6.34582 3.51806 4.78402 4.79979 3.6852 6.44428C2.58637 8.08878 1.99988 10.0222 1.99988 12C1.99988 13.9778 2.58637 15.9112 3.6852 17.5557C4.78402 19.2002 6.34582 20.4819 8.17309 21.2388C10.0004 21.9957 12.011 22.1937 13.9509 21.8078C15.8907 21.422 17.6725 20.4695 19.071 19.071C20.0034 18.1446 20.7433 17.0429 21.2482 15.8293C21.7531 14.6158 22.0131 13.3144 22.0131 12C22.0131 10.6856 21.7531 9.38421 21.2482 8.17068C20.7433 6.95715 20.0034 5.85546 19.071 4.929ZM17.6569 17.6569C16.3482 18.9657 14.6261 19.7801 12.7842 19.9616C10.9423 20.143 9.09444 19.6802 7.55551 18.6519C6.01658 17.6236 4.8818 16.0936 4.34451 14.3224C3.80723 12.5513 3.90068 10.6487 4.60895 8.9387C5.31722 7.22874 6.59648 5.81726 8.22877 4.94476C9.86105 4.07227 11.7454 3.79274 13.5607 4.1538C15.3759 4.51486 17.0099 5.49417 18.184 6.92488C19.3582 8.35559 20 10.1492 20 12C20.0029 13.051 19.7972 14.0921 19.3951 15.0631C18.9929 16.0341 18.4021 16.9157 17.6569 17.6569Z" fill="black"/>
</svg>
