<svg width="24" height="24" viewBox="0 0 24 24" fill="none" xmlns="http://www.w3.org/2000/svg">
<path d="M13 12C13 11.8022 12.9414 11.6089 12.8315 11.4444C12.7216 11.28 12.5654 11.1518 12.3827 11.0761C12.2 11.0004 11.9989 10.9806 11.8049 11.0192C11.6109 11.0578 11.4327 11.153 11.2929 11.2929C11.153 11.4327 11.0578 11.6109 11.0192 11.8049C10.9806 11.9989 11.0004 12.2 11.0761 12.3827C11.1518 12.5654 11.28 12.7216 11.4444 12.8315C11.6089 12.9414 11.8022 13 12 13C12.2652 13 12.5196 12.8946 12.7071 12.7071C12.8946 12.5196 13 12.2652 13 12ZM18.187 5.813C17.3746 5.00044 16.41 4.35587 15.3484 3.91611C14.2869 3.47634 13.1491 3.25 12 3.25C10.8509 3.25 9.71314 3.47634 8.65157 3.91611C7.59 4.35587 6.62545 5.00044 5.813 5.813L5.2585 6.3674L3.5146 4.6235V9.1716H8.0627L6.3191 7.428L6.8735 6.8735C8.05955 5.68746 9.62016 4.94936 11.2894 4.78496C12.9587 4.62056 14.6333 5.04004 16.0279 5.97192C17.4226 6.9038 18.4509 8.29042 18.9378 9.89553C19.4247 11.5006 19.34 13.2249 18.6981 14.7745C18.0562 16.3242 16.8969 17.6033 15.4176 18.394C13.9383 19.1847 12.2306 19.438 10.5856 19.1107C8.94046 18.7835 7.45972 17.896 6.39564 16.5994C5.33157 15.3028 4.74999 13.6773 4.75 12H3.25C3.24994 13.439 3.60477 14.8558 4.28305 16.1248C4.96134 17.3939 5.94214 18.4761 7.13858 19.2756C8.33503 20.0751 9.71018 20.5672 11.1422 20.7082C12.5743 20.8493 14.019 20.635 15.3484 20.0843C16.6779 19.5337 17.851 18.6636 18.7639 17.5513C19.6767 16.439 20.3012 15.1186 20.5819 13.7073C20.8626 12.296 20.7909 10.8372 20.3732 9.46021C19.9554 8.0832 19.2045 6.83048 18.187 5.813Z" fill="black"/>
</svg>
