<svg width="24" height="24" viewBox="0 0 24 24" fill="none" xmlns="http://www.w3.org/2000/svg">
<path d="M10.5 8.00005H9.49996V14.5001H16V13.5001H10.5V8.00005ZM19.071 4.92895C17.6724 3.53042 15.8906 2.57801 13.9508 2.19216C12.011 1.8063 10.0003 2.00433 8.17306 2.7612C6.34579 3.51808 4.784 4.7998 3.68519 6.4443C2.58637 8.08879 1.99988 10.0222 1.99988 12C1.99988 13.9778 2.58637 15.9112 3.68519 17.5557C4.784 19.2002 6.34579 20.4819 8.17306 21.2388C10.0003 21.9957 12.011 22.1937 13.9508 21.8079C15.8906 21.422 17.6724 20.4696 19.071 19.0711C20.0033 18.1446 20.7432 17.0429 21.2481 15.8293C21.753 14.6158 22.013 13.3144 22.013 12C22.013 10.6856 21.753 9.38421 21.2481 8.17068C20.7432 6.95714 20.0033 5.85543 19.071 4.92895ZM18.3639 18.3641C16.8915 19.8364 14.9542 20.7526 12.882 20.9567C10.8099 21.1608 8.73105 20.64 6.99977 19.4832C5.2685 18.3264 3.9919 16.6051 3.38748 14.6125C2.78307 12.62 2.88824 10.4795 3.68507 8.55583C4.4819 6.63214 5.9211 5.04425 7.75743 4.06272C9.59377 3.08119 11.7136 2.76675 13.7558 3.17297C15.798 3.5792 17.6362 4.68095 18.9571 6.29052C20.278 7.90008 21 9.91786 21 12.0001C21.0032 13.1824 20.7719 14.3537 20.3194 15.4461C19.8669 16.5385 19.2022 17.5303 18.3639 18.3641Z" fill="black"/>
</svg>
