<svg width="24" height="24" viewBox="0 0 24 24" fill="none" xmlns="http://www.w3.org/2000/svg">
<path d="M20.705 11.6382L19.5674 10.501C18.292 9.22699 16.7232 8.28571 14.999 7.7598C13.2747 7.23389 11.4476 7.13944 9.6783 7.48474C7.90898 7.83005 6.25151 8.60454 4.8515 9.74019C3.45149 10.8758 2.35177 12.3379 1.64894 13.998C1.50984 14.3271 1.38894 14.6616 1.28284 15H2.87824C2.92944 14.8608 2.97274 14.7193 3.03084 14.582C3.63724 13.1476 4.58676 11.8842 5.79592 10.9029C7.00508 9.92154 8.43683 9.25231 9.96527 8.95405C11.4937 8.65579 13.072 8.73763 14.5614 9.19237C16.0508 9.64711 17.4057 10.4608 18.5068 11.562L19.6444 12.6992L17.3431 15H23V9.34306L20.705 11.6382Z" fill="black"/>
</svg>
