<svg width="24" height="24" viewBox="0 0 24 24" fill="none" xmlns="http://www.w3.org/2000/svg">
<path d="M19.9844 7.61006L18.187 5.81306C17.0856 4.70949 15.7091 3.92059 14.2002 3.52814C12.6913 3.1357 11.1049 3.15398 9.6054 3.58111C8.10592 4.00823 6.74798 4.82865 5.67234 5.9573C4.59671 7.08596 3.84253 8.48178 3.488 10.0001H5.033C5.38085 8.78729 6.03923 7.68633 6.94303 6.80602C7.84684 5.92572 8.96476 5.29656 10.1863 4.98077C11.4078 4.66498 12.6906 4.67348 13.9078 5.00545C15.125 5.33742 16.2344 5.98134 17.1265 6.87356L18.9238 8.67056L17.6863 9.90816H21.2218V6.37266L19.9844 7.61006ZM17.1265 17.1266C15.7669 18.4862 13.9228 19.25 12 19.25C10.0772 19.25 8.23313 18.4862 6.8735 17.1266L5.0762 15.3301L6.3137 14.0925H2.7782V17.628L4.0156 16.3901L5.813 18.1871C6.91436 19.2906 8.29085 20.0795 9.79978 20.472C11.3087 20.8644 12.8951 20.8461 14.3946 20.419C15.8941 19.9919 17.252 19.1715 18.3277 18.0428C19.4033 16.9142 20.1575 15.5183 20.512 14.0001H18.967C18.63 15.1821 17.9965 16.2583 17.1265 17.1266ZM11.1 15.0001C11.1 15.1781 11.1528 15.3521 11.2517 15.5001C11.3506 15.6481 11.4911 15.7634 11.6556 15.8315C11.82 15.8997 12.001 15.9175 12.1756 15.8828C12.3502 15.848 12.5105 15.7623 12.6364 15.6365C12.7623 15.5106 12.848 15.3502 12.8827 15.1756C12.9174 15.0011 12.8996 14.8201 12.8315 14.6556C12.7634 14.4912 12.648 14.3506 12.5 14.2517C12.352 14.1528 12.178 14.1001 12 14.1001C11.7613 14.1001 11.5324 14.1949 11.3636 14.3637C11.1948 14.5324 11.1 14.7614 11.1 15.0001ZM11.0863 8.00006L11.4319 13.0001H12.5681L12.9137 8.00006H11.0863Z" fill="black"/>
</svg>
