<svg width="24" height="24" viewBox="0 0 24 24" fill="none" xmlns="http://www.w3.org/2000/svg">
<path d="M19.0358 6.30735L18.3638 5.63565C17.2272 4.49732 15.806 3.68471 14.2485 3.28253C12.691 2.88035 11.0541 2.90334 9.50841 3.34908C7.96278 3.79483 6.565 4.64702 5.4608 5.81682C4.3566 6.98662 3.58641 8.43119 3.2305 9.99995H5.29C5.63642 8.83812 6.27861 7.78616 7.15369 6.94706C8.02877 6.10796 9.10675 5.51048 10.2821 5.21311C11.4574 4.91575 12.6899 4.92869 13.8587 5.25068C15.0275 5.57266 16.0927 6.19266 16.95 7.04995L17.6218 7.72135L15.3431 9.99995H21V4.34305L19.0358 6.30735ZM16.95 16.95C15.6372 18.2627 13.8568 19.0002 12.0003 19.0002C10.1438 19.0002 8.36335 18.2627 7.0506 16.95C6.82758 16.7235 6.62008 16.4822 6.4295 16.2279L8.6569 14H3V19.6569L5.0012 17.6557C5.20043 17.9026 5.41238 18.1389 5.6362 18.3638C6.77272 19.5023 8.19387 20.3151 9.75147 20.7175C11.3091 21.1198 12.9461 21.0969 14.4918 20.6512C16.0376 20.2055 17.4355 19.3533 18.5397 18.1834C19.644 17.0135 20.4142 15.5688 20.77 14H18.71C18.3789 15.1148 17.7738 16.129 16.95 16.95Z" fill="black"/>
</svg>
