<svg width="24" height="24" viewBox="0 0 24 24" fill="none" xmlns="http://www.w3.org/2000/svg">
<path d="M19.7871 7.22852L19.6976 7.30242L19.0642 7.93582C19.8328 8.89019 20.3155 10.0426 20.4567 11.2598C20.5979 12.477 20.3918 13.7093 19.8621 14.8142C19.3324 15.9192 18.5008 16.8517 17.4635 17.5039C16.4261 18.1561 15.2254 18.5015 14 18.5H8.3945L10.8051 16.0894L10.098 15.3823L6.48 19L10.0977 22.6177L10.8048 21.9106L8.3945 19.5H14C15.4222 19.4999 16.815 19.0955 18.016 18.3339C19.2171 17.5723 20.1769 16.485 20.7835 15.1987C21.3901 13.9124 21.6185 12.4802 21.4421 11.069C21.2657 9.65784 20.6917 8.3259 19.7871 7.22852ZM10 5.50002H15.6055L13.1949 7.91062L13.902 8.61772L17.52 5.00002L13.902 1.38232L13.1949 2.08942L15.6055 4.50002H10C8.57785 4.50014 7.18503 4.90456 5.98398 5.66614C4.78293 6.42771 3.82314 7.51504 3.21654 8.80134C2.60994 10.0876 2.38152 11.5199 2.55794 12.931C2.73435 14.3422 3.30831 15.6741 4.2129 16.7715L4.3024 16.6976L4.9358 16.0642C4.16724 15.1099 3.68446 13.9575 3.54327 12.7403C3.40208 11.5231 3.60824 10.2908 4.13793 9.18582C4.66762 8.08087 5.4992 7.14837 6.53654 6.49614C7.57389 5.8439 8.77464 5.49856 10 5.50002Z" fill="black"/>
</svg>
