<svg width="24" height="24" viewBox="0 0 24 24" fill="none" xmlns="http://www.w3.org/2000/svg">
<path d="M19.9487 7.05116L18.8818 8.11816C19.6169 9.03606 20.0774 10.1431 20.2102 11.3116C20.3429 12.4801 20.1425 13.6622 19.632 14.7216C19.1216 15.781 18.3219 16.6745 17.3253 17.2988C16.3288 17.9231 15.176 18.2529 14 18.25H9.21591V15.7841L6.00001 19L9.21591 22.2159V19.75H14C15.4727 19.7526 16.9155 19.3348 18.1589 18.5457C19.4024 17.7567 20.3947 16.6291 21.0195 15.2955C21.6442 13.9619 21.8753 12.4777 21.6856 11.0173C21.4959 9.55686 20.8934 8.18093 19.9487 7.05116ZM10 5.74996H14.7841V8.21586L18 4.99996L14.7841 1.78406V4.24996H10C8.52726 4.24748 7.08438 4.66535 5.8409 5.4545C4.59741 6.24364 3.60496 7.37127 2.98014 8.70492C2.35532 10.0386 2.12409 11.5228 2.3136 12.9833C2.50312 14.4439 3.10551 15.8199 4.05001 16.95L5.12001 15.88C4.38445 14.9625 3.92348 13.8556 3.79038 12.6872C3.65728 11.5188 3.85748 10.3366 4.36785 9.27717C4.87821 8.21775 5.67791 7.32434 6.67454 6.70019C7.67118 6.07603 8.82407 5.7466 10 5.74996Z" fill="black"/>
</svg>
