<svg width="24" height="24" viewBox="0 0 24 24" fill="none" xmlns="http://www.w3.org/2000/svg">
<path d="M6.3191 7.4279L6.8735 6.8735C7.88743 5.85958 9.17925 5.16909 10.5856 4.88935C11.992 4.60961 13.4497 4.75319 14.7744 5.30192C16.0992 5.85065 17.2315 6.7799 18.0281 7.97214C18.8248 9.16439 19.25 10.5661 19.25 12H20.75C20.7499 10.2695 20.2367 8.57782 19.2752 7.13895C18.3138 5.70009 16.9472 4.57864 15.3484 3.9164C13.7496 3.25417 11.9903 3.08089 10.2931 3.41848C8.59578 3.75607 7.03671 4.58937 5.813 5.813L5.2585 6.3674L3.5146 4.6235V9.1716H8.0627L6.3191 7.4279ZM17.6491 16.5399C17.4857 16.7447 17.3114 16.9405 17.1269 17.1265C16.113 18.1406 14.8211 18.8312 13.4147 19.111C12.0083 19.3908 10.5505 19.2473 9.22563 18.6985C7.90079 18.1498 6.76843 17.2205 5.97177 16.0281C5.17511 14.8358 4.74993 13.434 4.75 12H3.25C3.25007 13.7305 3.76329 15.4222 4.72476 16.861C5.68623 18.2999 7.05276 19.4214 8.65157 20.0836C10.2504 20.7458 12.0097 20.9191 13.7069 20.5815C15.4042 20.2439 16.9633 19.4106 18.187 18.187C18.3738 18.0002 18.5422 17.8008 18.7094 17.6005L20.4854 19.3765V14.8284H15.9373L17.6491 16.5399Z" fill="black"/>
</svg>
