<svg width="24" height="24" viewBox="0 0 24 24" fill="none" xmlns="http://www.w3.org/2000/svg">
<path d="M22.3511 13.998C21.649 12.3372 20.5497 10.8744 19.1497 9.73814C17.7497 8.60188 16.092 7.82699 14.3224 7.48161C12.5527 7.13624 10.7253 7.23097 9.00078 7.75746C7.2763 8.28395 5.70759 9.22608 4.4326 10.501L3.295 11.6382L1 9.34311V15H6.6569L4.3556 12.6987L5.4932 11.5615C6.5948 10.4612 7.94973 9.64825 9.43898 9.19404C10.9282 8.73983 12.5062 8.65827 14.0344 8.95652C15.5625 9.25477 16.9941 9.92371 18.2032 10.9046C19.4124 11.8854 20.3622 13.1482 20.9692 14.582C21.0273 14.7193 21.0706 14.8608 21.1218 15H22.7172C22.6113 14.6616 22.49 14.3271 22.3511 13.998Z" fill="black"/>
</svg>
