<svg width="24" height="24" viewBox="0 0 24 24" fill="none" xmlns="http://www.w3.org/2000/svg">
<path d="M7.8887 9.15726L8.6659 7.81116C7.6029 6.81265 6.20061 6.2547 4.7422 6.24996H2V7.74996H4.7422C5.3358 7.75219 5.92238 7.87854 6.46426 8.1209C7.00613 8.36326 7.49133 8.71627 7.8887 9.15726ZM16.0625 7.74996H18.7841V10.2159L22 6.99996L18.7841 3.78406V6.24996H16.0625C15.0535 6.25155 14.0626 6.51791 13.1888 7.02242C12.315 7.52693 11.5889 8.25192 11.083 9.12496L8.1963 14.125C7.82233 14.7702 7.28559 15.3061 6.6397 15.6789C5.99382 16.0518 5.2614 16.2487 4.5156 16.25H2V17.75H4.5156C5.52468 17.7485 6.5157 17.4821 7.38961 16.9776C8.26351 16.4731 8.9897 15.7481 9.4956 14.875L12.3823 9.87496C12.7562 9.22978 13.2929 8.69399 13.9387 8.32111C14.5845 7.94822 15.3168 7.75128 16.0625 7.74996ZM18.7841 16.25H15.8867C15.2769 16.255 14.6766 16.0988 14.1466 15.7973C13.6166 15.4957 13.1756 15.0594 12.8684 14.5327L12.059 15.9347C12.517 16.5084 13.0998 16.9701 13.7631 17.2846C14.4264 17.5992 15.1527 17.7583 15.8867 17.75H18.7841V20.2159L22 17L18.7841 13.7841V16.25Z" fill="black"/>
</svg>
