<svg width="24" height="24" viewBox="0 0 24 24" fill="none" xmlns="http://www.w3.org/2000/svg">
<path d="M19.6016 7.3984L19.2434 7.7567C20.0465 8.74673 20.5525 9.94407 20.7029 11.21C20.8533 12.4758 20.6418 13.7584 20.093 14.909C19.5442 16.0596 18.6806 17.0311 17.6022 17.711C16.5238 18.3908 15.2748 18.751 14 18.75H7.77002L10.4164 16.1034L10.063 15.75L6.81252 19L10.063 22.25L10.4167 21.8961L7.77002 19.25H14C15.3737 19.2502 16.7191 18.86 17.8796 18.125C19.0401 17.39 19.9678 16.3404 20.5548 15.0985C21.1418 13.8566 21.3639 12.4734 21.1951 11.1102C21.0264 9.74694 20.4737 8.4597 19.6016 7.3984ZM10 5.25H16.23L13.5833 7.8966L13.937 8.2505L17.1875 5L13.937 1.75L13.5833 2.1039L16.23 4.75H10C8.62636 4.74985 7.28093 5.13999 6.12044 5.87498C4.95996 6.60997 4.03219 7.65955 3.4452 8.90148C2.85821 10.1434 2.63616 11.5266 2.80492 12.8898C2.97368 14.2531 3.5263 15.5403 4.39842 16.6016L4.75662 16.2433C3.95355 15.2533 3.4475 14.0559 3.29714 12.79C3.14677 11.5242 3.35824 10.2416 3.90704 9.09098C4.45583 7.94037 5.31948 6.96886 6.39787 6.28905C7.47626 5.60924 8.72523 5.24897 10 5.25Z" fill="black"/>
</svg>
