<svg width="24" height="24" viewBox="0 0 24 24" fill="none" xmlns="http://www.w3.org/2000/svg">
<path d="M19.0711 4.92895C17.6726 3.53042 15.8907 2.57801 13.9509 2.19216C12.0111 1.8063 10.0004 2.00433 8.17318 2.7612C6.34591 3.51808 4.78412 4.7998 3.68531 6.4443C2.58649 8.08879 2 10.0222 2 12C2 13.9778 2.58649 15.9112 3.68531 17.5557C4.78412 19.2002 6.34591 20.4819 8.17318 21.2388C10.0004 21.9957 12.0111 22.1937 13.9509 21.8079C15.8907 21.422 17.6726 20.4696 19.0711 19.0711C20.9464 17.1957 22 14.6522 22 12C22 9.34785 20.9464 6.80432 19.0711 4.92895ZM15.5 15.5001H8.99999V14.5001H13.7929L8.11079 8.81845L8.81789 8.11135L14.5 13.7931V9.00005H15.5V15.5001Z" fill="black"/>
</svg>
