<svg width="24" height="24" viewBox="0 0 24 24" fill="none" xmlns="http://www.w3.org/2000/svg">
<path d="M21.9106 16.6753L19.5 19.0858V9.5C19.5 8.43913 19.0786 7.42172 18.3285 6.67157C17.5783 5.92143 16.5609 5.5 15.5 5.5C14.4392 5.5 13.4217 5.92143 12.6716 6.67157C11.9215 7.42172 11.5 8.43913 11.5 9.5V14.5C11.5 15.2956 11.184 16.0587 10.6213 16.6213C10.0587 17.1839 9.29567 17.5 8.50002 17.5C7.70437 17.5 6.94131 17.1839 6.3787 16.6213C5.81609 16.0587 5.50002 15.2956 5.50002 14.5V4.9142L7.91062 7.3247L8.61772 6.6177L5.00002 3L1.38232 6.6177L2.08942 7.3247L4.50002 4.9142V14.5C4.50002 15.5609 4.92145 16.5783 5.6716 17.3284C6.42174 18.0786 7.43916 18.5 8.50002 18.5C9.56089 18.5 10.5783 18.0786 11.3285 17.3284C12.0786 16.5783 12.5 15.5609 12.5 14.5V9.5C12.5 8.70435 12.8161 7.94129 13.3787 7.37868C13.9413 6.81607 14.7044 6.5 15.5 6.5C16.2957 6.5 17.0587 6.81607 17.6213 7.37868C18.184 7.94129 18.5 8.70435 18.5 9.5V19.0858L16.0894 16.6758L15.3823 17.3828L19 21L22.6177 17.3823L21.9106 16.6753Z" fill="black"/>
</svg>
