<svg width="24" height="24" viewBox="0 0 24 24" fill="none" xmlns="http://www.w3.org/2000/svg">
<path d="M8.02 8.93002L8.5387 8.03162C7.51677 7.0526 6.1574 6.5042 4.7422 6.50002H2V7.50002H4.7422C5.35721 7.50216 5.96528 7.63013 6.52898 7.87605C7.09269 8.12198 7.6001 8.48066 8.02 8.93002ZM16.0625 7.50002H20.0857L17.6757 9.91062L18.3827 10.6177L22 7.00002L18.3823 3.38232L17.6753 4.08942L20.0857 6.50002H16.0625C15.0974 6.5016 14.1495 6.7564 13.3137 7.23897C12.4778 7.72153 11.7832 8.41498 11.2993 9.25002L8.4126 14.25C8.01668 14.9332 7.44841 15.5006 6.76456 15.8954C6.08072 16.2903 5.30524 16.4987 4.5156 16.5H2V17.5H4.5156C5.48074 17.4985 6.42858 17.2437 7.26442 16.7611C8.10027 16.2785 8.79486 15.5851 9.2788 14.75L12.1655 9.75002C12.5614 9.06682 13.1297 8.49946 13.8135 8.10463C14.4974 7.70981 15.2729 7.50133 16.0625 7.50002ZM17.6753 14.0894L20.0853 16.5H15.8863C15.2567 16.5045 14.6363 16.3485 14.0837 16.0467C13.5311 15.7449 13.0646 15.3072 12.7281 14.775L12.1923 15.7031C12.6272 16.268 13.1871 16.7242 13.8282 17.036C14.4692 17.3478 15.1739 17.5067 15.8867 17.5H20.0857L17.6757 19.9106L18.3827 20.6177L22 17L18.3823 13.3823L17.6753 14.0894Z" fill="black"/>
</svg>
