<svg width="24" height="24" viewBox="0 0 24 24" fill="none" xmlns="http://www.w3.org/2000/svg">
<path d="M17.8335 6.166C17.0691 5.39778 16.1599 4.78871 15.1586 4.37402C14.1573 3.95932 13.0838 3.74723 12 3.75H7.9578L10.6042 1.1034L10.2505 0.75L7 4L10.2505 7.25L10.6042 6.8961L7.9578 4.25H12C13.5328 4.25 15.0312 4.70453 16.3057 5.55611C17.5802 6.40769 18.5735 7.61808 19.1601 9.0342C19.7466 10.4503 19.9001 12.0086 19.6011 13.5119C19.3021 15.0153 18.5639 16.3962 17.4801 17.4801C16.3962 18.5639 15.0153 19.302 13.5119 19.6011C12.0086 19.9001 10.4503 19.7466 9.0342 19.1601C7.61808 18.5735 6.40769 17.5802 5.55611 16.3057C4.70453 15.0312 4.25 13.5328 4.25 12H3.75C3.75004 13.3567 4.08467 14.6925 4.72426 15.889C5.36385 17.0855 6.28864 18.1058 7.41673 18.8595C8.54482 19.6132 9.84139 20.0771 11.1916 20.2101C12.5418 20.343 13.9039 20.1409 15.1573 19.6217C16.4108 19.1025 17.5168 18.2821 18.3775 17.2333C19.2381 16.1846 19.8269 14.9397 20.0915 13.6091C20.3562 12.2784 20.2886 10.903 19.8947 9.60473C19.5008 8.30644 18.7929 7.12532 17.8335 6.166Z" fill="black"/>
</svg>
