<svg width="24" height="24" viewBox="0 0 24 24" fill="none" xmlns="http://www.w3.org/2000/svg">
<path d="M15.6614 8.94469H20.2584V4.34769H19.7584V8.09069L17.8335 6.16599C16.4837 4.81624 14.7078 3.97625 12.8081 3.78914C10.9085 3.60203 9.00276 4.07938 7.41563 5.13985C5.8285 6.20033 4.65817 7.77832 4.10406 9.60495C3.54995 11.4316 3.64634 13.3938 4.37681 15.1573C5.10728 16.9209 6.42663 18.3766 8.11006 19.2764C9.79349 20.1762 11.7368 20.4645 13.609 20.0921C15.4811 19.7197 17.1662 18.7097 18.3772 17.2341C19.5881 15.7586 20.25 13.9088 20.25 12H19.75C19.75 13.7928 19.1283 15.5302 17.9909 16.9161C16.8535 18.302 15.2708 19.2506 13.5124 19.6004C11.754 19.9502 9.92876 19.6794 8.34761 18.8343C6.76645 17.9892 5.52724 16.622 4.84112 14.9656C4.155 13.3092 4.06442 11.4662 4.58481 9.75055C5.10521 8.03489 6.20438 6.55274 7.69504 5.55664C9.18571 4.56055 10.9756 4.11212 12.7599 4.28778C14.5441 4.46345 16.2122 5.25232 17.48 6.51999L19.4043 8.44469H15.6616L15.6614 8.94469Z" fill="black"/>
</svg>
