<svg width="24" height="24" viewBox="0 0 24 24" fill="none" xmlns="http://www.w3.org/2000/svg">
<path d="M19.75 12C19.75 13.5328 19.2955 15.0312 18.4439 16.3057C17.5923 17.5802 16.3819 18.5735 14.9658 19.1601C13.5497 19.7466 11.9914 19.9001 10.4881 19.6011C8.9847 19.302 7.60378 18.5639 6.51993 17.4801C5.43607 16.3962 4.69795 15.0153 4.39892 13.5119C4.09988 12.0086 4.25336 10.4503 4.83994 9.0342C5.42652 7.61808 6.41985 6.40769 7.69433 5.55611C8.96882 4.70453 10.4672 4.25 12 4.25H16.0422L13.3958 6.8966L13.7495 7.2505L17 4L13.75 0.75L13.3963 1.1039L16.0422 3.75H12C10.3683 3.75 8.77325 4.23385 7.41655 5.14038C6.05984 6.0469 5.00242 7.33537 4.378 8.84286C3.75357 10.3504 3.5902 12.0092 3.90853 13.6095C4.22685 15.2098 5.01259 16.6798 6.16637 17.8336C7.32016 18.9874 8.79017 19.7731 10.3905 20.0915C11.9909 20.4098 13.6497 20.2464 15.1571 19.622C16.6646 18.9976 17.9531 17.9402 18.8596 16.5835C19.7661 15.2267 20.25 13.6317 20.25 12H19.75Z" fill="black"/>
</svg>
