<svg width="24" height="24" viewBox="0 0 24 24" fill="none" xmlns="http://www.w3.org/2000/svg">
<path d="M19.5 12C19.4999 13.7352 18.8982 15.4166 17.7974 16.7579C16.6966 18.0991 15.1648 19.0172 13.463 19.3556C11.7612 19.6941 9.99466 19.432 8.46441 18.6141C6.93416 17.7961 5.73487 16.4728 5.07088 14.8698C4.40688 13.2667 4.31927 11.483 4.82296 9.82257C5.32665 8.16214 6.39048 6.72772 7.8332 5.76372C9.27592 4.79972 11.0083 4.36577 12.735 4.53583C14.4618 4.70588 16.0762 5.46941 17.3032 6.69632L18.7781 8.17152H15.3691V9.17152H20.4854V4.05542H19.4854V7.46462L18.01 5.98932C16.6194 4.59889 14.7897 3.73365 12.8326 3.54101C10.8756 3.34838 8.9123 3.84028 7.27727 4.9329C5.64225 6.02552 4.43665 7.65125 3.86589 9.5331C3.29514 11.415 3.39454 13.4365 4.14716 15.2533C4.89978 17.07 6.25905 18.5697 7.99338 19.4966C9.72771 20.4235 11.7298 20.7205 13.6585 20.3368C15.5872 19.9531 17.3232 18.9125 18.5707 17.3923C19.8182 15.8722 20.5 13.9665 20.5 12H19.5Z" fill="black"/>
</svg>
