<svg width="24" height="24" viewBox="0 0 24 24" fill="none" xmlns="http://www.w3.org/2000/svg">
<path d="M19.25 12C19.25 13.4339 18.8248 14.8356 18.0282 16.0278C17.2315 17.2201 16.0992 18.1493 14.7745 18.6981C13.4497 19.2468 11.992 19.3904 10.5856 19.1107C9.17924 18.8309 7.88741 18.1404 6.87348 17.1265C5.85955 16.1126 5.16905 14.8207 4.88931 13.4144C4.60957 12.008 4.75314 10.5503 5.30188 9.2255C5.85061 7.90074 6.77986 6.76844 7.97212 5.9718C9.16438 5.17516 10.5661 4.74996 12 4.74996H13.7841V7.21586L17 3.99996L13.7841 0.784058V3.24996H12C10.2694 3.24996 8.57769 3.76314 7.13876 4.7246C5.69983 5.68606 4.57832 7.05262 3.91606 8.65148C3.25379 10.2503 3.08051 12.0097 3.41813 13.707C3.75575 15.4043 4.58911 16.9634 5.81282 18.1871C7.03653 19.4109 8.59563 20.2442 10.293 20.5818C11.9903 20.9194 13.7496 20.7462 15.3485 20.0839C16.9473 19.4216 18.3139 18.3001 19.2754 16.8612C20.2368 15.4223 20.75 13.7305 20.75 12H19.25Z" fill="black"/>
</svg>
