<svg width="24" height="24" viewBox="0 0 24 24" fill="none" xmlns="http://www.w3.org/2000/svg">
<path d="M9.99996 6H14V9L18 5L14 1V4H9.99996C8.47802 3.99883 6.98738 4.4322 5.70329 5.24915C4.41919 6.0661 3.39503 7.23267 2.75119 8.61172C2.10735 9.99077 1.87061 11.525 2.0688 13.034C2.26698 14.5429 2.89186 15.964 3.86996 17.13L5.29196 15.7079C4.59321 14.8244 4.1577 13.7617 4.03539 12.6419C3.91308 11.5221 4.10893 10.3905 4.60047 9.37699C5.09201 8.36344 5.85932 7.50899 6.81437 6.91167C7.76942 6.31436 8.87351 5.99838 9.99996 6ZM20.13 6.87L18.708 8.2921C19.4067 9.17564 19.8422 10.2383 19.9645 11.3581C20.0868 12.4779 19.891 13.6095 19.3994 14.623C18.9079 15.6366 18.1406 16.491 17.1855 17.0883C16.2305 17.6856 15.1264 18.0016 14 18H9.99996V15L5.99996 19L9.99996 23V20H14C15.5219 20.0012 17.0125 19.5678 18.2966 18.7508C19.5807 17.9339 20.6049 16.7673 21.2487 15.3883C21.8926 14.0092 22.1293 12.475 21.9311 10.966C21.7329 9.45706 21.1081 8.03603 20.13 6.87Z" fill="black"/>
</svg>
