<svg width="24" height="24" viewBox="0 0 24 24" fill="none" xmlns="http://www.w3.org/2000/svg">
<path d="M19.071 4.92895C17.6725 3.53042 15.8907 2.57801 13.9509 2.19216C12.011 1.8063 10.0004 2.00433 8.17312 2.7612C6.34585 3.51808 4.78406 4.7998 3.68525 6.4443C2.58643 8.08879 1.99994 10.0222 1.99994 12C1.99994 13.9778 2.58643 15.9112 3.68525 17.5557C4.78406 19.2002 6.34585 20.4819 8.17312 21.2388C10.0004 21.9957 12.011 22.1937 13.9509 21.8079C15.8907 21.422 17.6725 20.4696 19.071 19.0711C20.0034 18.1446 20.7433 17.0429 21.2482 15.8293C21.7531 14.6158 22.013 13.3144 22.013 12C22.013 10.6856 21.7531 9.38421 21.2482 8.17068C20.7433 6.95714 20.0034 5.85543 19.071 4.92895ZM18.364 18.3641C16.8917 19.8364 14.9544 20.7527 12.8822 20.9568C10.8101 21.1609 8.73123 20.6402 6.99994 19.4834C5.26865 18.3266 3.99202 16.6053 3.38758 14.6128C2.78314 12.6202 2.88828 10.4797 3.68508 8.55604C4.48189 6.63234 5.92107 5.04443 7.75739 4.06287C9.59372 3.08132 11.7136 2.76685 13.7558 3.17305C15.798 3.57925 17.6361 4.68099 18.9571 6.29053C20.278 7.90008 21 9.91786 21 12.0001C21.0032 13.1824 20.7719 14.3537 20.3195 15.4461C19.867 16.5385 19.2024 17.5303 18.364 18.3641ZM15.1821 8.11135L9.50002 13.7931V9.00005H8.50002V15.5001H15V14.5001H10.2071L15.8892 8.81845L15.1821 8.11135Z" fill="black"/>
</svg>
