<svg width="24" height="24" viewBox="0 0 24 24" fill="none" xmlns="http://www.w3.org/2000/svg">
<path d="M19.071 4.92895C17.6725 3.53042 15.8907 2.57801 13.9509 2.19216C12.011 1.8063 10.0004 2.00433 8.17312 2.7612C6.34585 3.51808 4.78406 4.7998 3.68525 6.4443C2.58643 8.08879 1.99994 10.0222 1.99994 12C1.99994 13.9778 2.58643 15.9112 3.68525 17.5557C4.78406 19.2002 6.34585 20.4819 8.17312 21.2388C10.0004 21.9957 12.011 22.1937 13.9509 21.8079C15.8907 21.422 17.6725 20.4696 19.071 19.0711C20.0034 18.1446 20.7433 17.0429 21.2482 15.8293C21.7531 14.6158 22.013 13.3144 22.013 12C22.013 10.6856 21.7531 9.38421 21.2482 8.17068C20.7433 6.95714 20.0034 5.85543 19.071 4.92895ZM18.7175 18.7176C17.836 19.6027 16.7886 20.3053 15.6352 20.7852C14.4819 21.265 13.2452 21.5127 11.9959 21.514C10.7467 21.5153 9.50953 21.2702 8.35516 20.7927C7.20079 20.3153 6.15192 19.6148 5.26859 18.7315C4.38526 17.8482 3.68482 16.7993 3.20737 15.6449C2.72991 14.4905 2.48482 13.2533 2.48611 12.0041C2.4874 10.7549 2.73506 9.51822 3.21491 8.36485C3.69476 7.21147 4.39737 6.16405 5.28252 5.28255C6.16402 4.3974 7.21144 3.69479 8.36482 3.21494C9.51819 2.73509 10.7549 2.48743 12.0041 2.48614C13.2533 2.48485 14.4905 2.72994 15.6449 3.2074C16.7993 3.68485 17.8481 4.38529 18.7315 5.26862C19.6148 6.15195 20.3152 7.20082 20.7927 8.35519C21.2701 9.50956 21.5152 10.7468 21.5139 11.996C21.5126 13.2452 21.265 14.4819 20.7851 15.6353C20.3053 16.7886 19.6027 17.8361 18.7175 18.7176ZM15.3589 8.28815L9.25002 14.3966V9.00005H8.75002V15.2501H15V14.7501H9.60362L15.7124 8.64165L15.3589 8.28815Z" fill="black"/>
</svg>
