<svg width="24" height="24" viewBox="0 0 24 24" fill="none" xmlns="http://www.w3.org/2000/svg">
<path d="M12 7.58328L11.5 7.87188V11.7113L8.175 13.6313V14.2086L8.675 14.4973L12 12.5773L15.325 14.4973L15.825 14.2086V13.631L12.5 11.711V7.87188L12 7.58328ZM19.5 12C19.5 13.4833 19.0601 14.9334 18.236 16.1668C17.4119 17.4001 16.2406 18.3614 14.8701 18.9291C13.4997 19.4967 11.9917 19.6453 10.5368 19.3559C9.08197 19.0665 7.7456 18.3522 6.6967 17.3033C5.64781 16.2544 4.9335 14.918 4.64411 13.4632C4.35472 12.0083 4.50325 10.5003 5.07091 9.12985C5.63856 7.75941 6.59986 6.58807 7.83323 5.76396C9.0666 4.93984 10.5166 4.49998 12 4.49998H14.1276L12.6564 5.97118L13.3634 6.67818L16.0416 3.99998L13.3634 1.32178L12.6564 2.02878L14.1276 3.49998H12C10.3189 3.49998 8.67548 3.99849 7.27766 4.93249C5.87984 5.86648 4.79037 7.194 4.14703 8.74717C3.50368 10.3003 3.33535 12.0094 3.66333 13.6582C3.9913 15.3071 4.80085 16.8216 5.9896 18.0104C7.17834 19.1991 8.6929 20.0087 10.3417 20.3367C11.9906 20.6646 13.6996 20.4963 15.2528 19.853C16.806 19.2096 18.1335 18.1201 19.0675 16.7223C20.0015 15.3245 20.5 13.6811 20.5 12H19.5Z" fill="black"/>
</svg>
