<svg width="24" height="24" viewBox="0 0 24 24" fill="none" xmlns="http://www.w3.org/2000/svg">
<path d="M22.1206 14.0957C21.4345 12.4728 20.3601 11.0432 18.992 9.9328C17.6238 8.82238 16.0038 8.0651 14.2744 7.72753C12.545 7.38997 10.7592 7.48247 9.07387 7.99689C7.38858 8.51132 5.85549 9.43192 4.6094 10.6777L2 13.2871V8.63604H1V15H7.364V14H2.7012L5.3164 11.3848C6.44699 10.2554 7.83764 9.42099 9.36617 8.95478C10.8947 8.48857 12.5143 8.40488 14.0828 8.71105C15.6512 9.01722 17.1205 9.70389 18.3615 10.7107C19.6024 11.7176 20.5772 13.0138 21.2 14.4854C21.2715 14.6543 21.3265 14.8281 21.3882 15H22.4515C22.3533 14.6951 22.2463 14.3926 22.1206 14.0957Z" fill="black"/>
</svg>
