<svg width="24" height="24" viewBox="0 0 24 24" fill="none" xmlns="http://www.w3.org/2000/svg">
<path d="M12 5.5C12.6628 5.49926 13.2983 5.23563 13.7669 4.76695C14.2356 4.29827 14.4993 3.66281 14.5 3H9.5C9.50074 3.66281 9.76437 4.29827 10.2331 4.76695C10.7017 5.23563 11.3372 5.49926 12 5.5ZM18.69 3.6221C17.9504 3.21404 17.1194 3.00001 16.2747 3H15C15 3.79565 14.6839 4.55871 14.1213 5.12132C13.5587 5.68393 12.7956 6 12 6C11.2044 6 10.4413 5.68393 9.87868 5.12132C9.31607 4.55871 9 3.79565 9 3H7.7006C6.8517 2.99999 6.01678 3.21611 5.2745 3.628L1 6L3.1075 10.265L6 9.2916V19H7.1732C7.73512 19 8.28833 19.1388 8.78376 19.404C9.27918 19.6691 9.70148 20.0525 10.0132 20.52L11 22H13L13.9867 20.52C14.2984 20.0525 14.7207 19.6691 15.2161 19.4039C15.7116 19.1388 16.2648 19 16.8267 19H18V9.2916L20.8925 10.265L23 6L18.69 3.6221Z" fill="black"/>
</svg>
