<svg width="24" height="24" viewBox="0 0 24 24" fill="none" xmlns="http://www.w3.org/2000/svg">
<path d="M21.3215 3L21.1072 4.8213H20.4746C19.557 4.83183 18.666 5.13078 17.9277 5.6758C17.448 6.05982 16.8518 6.26906 16.2373 6.26906C15.6228 6.26906 15.0266 6.05982 14.5469 5.6758C13.8127 5.12388 12.919 4.82545 12.0005 4.82545C11.082 4.82545 10.1883 5.12388 9.45411 5.6758C8.9654 6.04319 8.37395 6.24842 7.76271 6.2627C7.1518 6.24895 6.56065 6.04366 6.07271 5.6758C5.3327 5.13413 4.44278 4.83556 3.52581 4.8213H2.89281L2.67851 3H1.23541L3.00001 18H21L22.7646 3H21.3215ZM19.7253 16.5667H4.27471L3.06921 6.3213H3.52541C4.13665 6.33558 4.7281 6.5408 5.21681 6.9082C5.95659 7.44959 6.84611 7.74815 7.76271 7.7627C8.67981 7.74853 9.56989 7.44995 10.31 6.9082C10.7901 6.52461 11.3864 6.31566 12.0009 6.31566C12.6154 6.31566 13.2117 6.52461 13.6918 6.9082C14.4248 7.46265 15.3187 7.76267 16.2377 7.76267C17.1567 7.76267 18.0507 7.46265 18.7836 6.9082C19.2723 6.5408 19.8638 6.33558 20.475 6.3213H20.9312L19.7253 16.5667ZM3.00001 21H21V19.6333H3.00001V21Z" fill="black"/>
</svg>
