<svg width="24" height="24" viewBox="0 0 24 24" fill="none" xmlns="http://www.w3.org/2000/svg">
<path d="M13.6913 3H10.3245L12.0163 5.1826L13.6913 3ZM18.606 3.5174C18.0057 3.17823 17.3279 3 16.6384 3H16.2059L13.5645 6.4078C13.3795 6.64649 13.1423 6.83969 12.8712 6.9726C12.6 7.10551 12.302 7.17461 12 7.17461C11.698 7.17461 11.4 7.10551 11.1288 6.9726C10.8577 6.83969 10.6205 6.64649 10.4355 6.4078L7.7941 3H7.3616C6.6721 3 5.99431 3.17823 5.394 3.5174L1 6L3.1075 10.265L6 9.4062V21H18V9.4062L20.8925 10.265L23 6L18.606 3.5174Z" fill="black"/>
</svg>
