<svg width="24" height="24" viewBox="0 0 24 24" fill="none" xmlns="http://www.w3.org/2000/svg">
<path d="M20.5145 12.15L12 8.6666V3H9L6.2916 4H2V19.9847H3.004V19H4V19.9847H5.004V19H6V19.9847H7.0035V19H8.0013V19.9847H9.0013V19H9.9991V19.9847H11.0032V19H12.001V19.9847H13.001V19H14.001V19.9847H15.001V19H16.001V19.9847H17.001V19H18.001V19.9847H19.001V19H20.001V19.9847H21.001V19H22.001V19.9847H23.001V15.8521C23.0009 15.0579 22.7644 14.2817 22.3216 13.6224C21.8787 12.9631 21.2497 12.4505 20.5145 12.15ZM2.95 18.05V4.95H6.4614L9.1698 3.95H11.0498V6.4375H9.2861C9.15349 6.4375 9.02631 6.49018 8.93255 6.58395C8.83878 6.67771 8.7861 6.80489 8.7861 6.9375C8.7861 7.07011 8.83878 7.19729 8.93255 7.29105C9.02631 7.38482 9.15349 7.4375 9.2861 7.4375H11.05V9.0526L9.9106 10.1416C9.81476 10.2333 9.75928 10.3593 9.75636 10.4919C9.75343 10.6245 9.8033 10.7529 9.895 10.8487C9.9867 10.9445 10.1127 11 10.2453 11.0029C10.3779 11.0059 10.5063 10.956 10.6021 10.8643L11.8792 9.6436L13.6272 10.3587L13.0127 11.86C12.9625 11.9828 12.963 12.1205 13.0143 12.2428C13.0656 12.3651 13.1634 12.4621 13.2861 12.5124C13.4089 12.5626 13.5466 12.562 13.669 12.5107C13.7913 12.4594 13.8883 12.3617 13.9385 12.2389L14.553 10.7371L16.6794 11.6071L16.105 13.0124C16.0801 13.0732 16.0675 13.1383 16.0678 13.204C16.0681 13.2697 16.0813 13.3347 16.1068 13.3953C16.1322 13.4559 16.1693 13.5109 16.216 13.5571C16.2627 13.6033 16.3181 13.6399 16.3789 13.6647C16.4389 13.6893 16.5031 13.7019 16.5679 13.7018C16.6671 13.7019 16.7641 13.6724 16.8465 13.6172C16.929 13.562 16.9931 13.4836 17.0308 13.3918L17.6052 11.9863L20.1552 13.0293C20.7165 13.2573 21.1969 13.6479 21.5346 14.1509C21.8723 14.654 22.0519 15.2464 22.0504 15.8523V18.05H2.95Z" fill="black"/>
</svg>
