<svg width="24" height="24" viewBox="0 0 24 24" fill="none" xmlns="http://www.w3.org/2000/svg">
<path d="M19 4H7V6H19C19.2652 6 19.5196 6.10536 19.7071 6.29289C19.8946 6.48043 20 6.73478 20 7V10H10.8125C5.0938 10 2 14 2 20H22V7C22 6.20435 21.6839 5.44129 21.1213 4.87868C20.5587 4.31607 19.7956 4 19 4ZM16.1284 16.8716L14.9966 18.0034L13.125 16.1318L11.2534 18.0034L10.1216 16.8716L11.9932 15L10.1216 13.1284L11.2534 11.9966L13.125 13.8682L14.9966 11.9966L16.1284 13.1284L14.2568 15L16.1284 16.8716Z" fill="black"/>
</svg>
