<svg width="24" height="24" viewBox="0 0 24 24" fill="none" xmlns="http://www.w3.org/2000/svg">
<path d="M12 12.2188C11.7033 12.2188 11.4133 12.3068 11.1666 12.4716C10.92 12.6364 10.7277 12.8707 10.6142 13.1448C10.5006 13.4189 10.4709 13.7205 10.5288 14.0114C10.5867 14.3024 10.7296 14.5697 10.9393 14.7795C11.1491 14.9892 11.4164 15.1321 11.7074 15.19C11.9983 15.2479 12.2999 15.2182 12.574 15.1046C12.8481 14.9911 13.0824 14.7988 13.2472 14.5522C13.412 14.3055 13.5 14.0155 13.5 13.7188C13.5 13.321 13.342 12.9394 13.0607 12.6581C12.7793 12.3768 12.3978 12.2188 12 12.2188ZM12 14.7188C11.8022 14.7188 11.6089 14.6602 11.4444 14.5503C11.28 14.4404 11.1518 14.2842 11.0761 14.1015C11.0004 13.9188 10.9806 13.7177 11.0192 13.5237C11.0578 13.3297 11.153 13.1515 11.2929 13.0117C11.4327 12.8718 11.6109 12.7766 11.8049 12.738C11.9989 12.6994 12.1999 12.7192 12.3827 12.7949C12.5654 12.8706 12.7216 12.9988 12.8315 13.1632C12.9413 13.3277 13 13.521 13 13.7188C12.9997 13.9839 12.8942 14.2381 12.7067 14.4256C12.5193 14.613 12.2651 14.7185 12 14.7188ZM16.6875 12.2188C16.3908 12.2188 16.1008 12.3068 15.8541 12.4716C15.6075 12.6364 15.4152 12.8707 15.3017 13.1448C15.1881 13.4189 15.1584 13.7205 15.2163 14.0114C15.2742 14.3024 15.4171 14.5697 15.6268 14.7795C15.8366 14.9892 16.1039 15.1321 16.3949 15.19C16.6858 15.2479 16.9874 15.2182 17.2615 15.1046C17.5356 14.9911 17.7699 14.7988 17.9347 14.5522C18.0995 14.3055 18.1875 14.0155 18.1875 13.7188C18.1875 13.321 18.0295 12.9394 17.7481 12.6581C17.4668 12.3768 17.0853 12.2188 16.6875 12.2188ZM16.6875 14.7188C16.4897 14.7188 16.2964 14.6602 16.1319 14.5503C15.9675 14.4404 15.8393 14.2842 15.7636 14.1015C15.6879 13.9188 15.6681 13.7177 15.7067 13.5237C15.7453 13.3297 15.8405 13.1515 15.9804 13.0117C16.1202 12.8718 16.2984 12.7766 16.4924 12.738C16.6864 12.6994 16.8874 12.7192 17.0702 12.7949C17.2529 12.8706 17.4091 12.9988 17.519 13.1632C17.6288 13.3277 17.6875 13.521 17.6875 13.7188C17.6872 13.9839 17.5817 14.2381 17.3942 14.4256C17.2068 14.613 16.9526 14.7185 16.6875 14.7188ZM7.31249 12.2188C7.01582 12.2188 6.72581 12.3068 6.47914 12.4716C6.23246 12.6364 6.0402 12.8707 5.92667 13.1448C5.81314 13.4189 5.78344 13.7205 5.84131 14.0114C5.89919 14.3024 6.04205 14.5697 6.25183 14.7795C6.46161 14.9892 6.72888 15.1321 7.01986 15.19C7.31083 15.2479 7.61243 15.2182 7.88652 15.1046C8.16061 14.9911 8.39487 14.7988 8.5597 14.5522C8.72452 14.3055 8.81249 14.0155 8.81249 13.7188C8.81249 13.321 8.65446 12.9394 8.37315 12.6581C8.09185 12.3768 7.71032 12.2188 7.31249 12.2188ZM7.31249 14.7188C7.11471 14.7188 6.92137 14.6602 6.75692 14.5503C6.59247 14.4404 6.4643 14.2842 6.38861 14.1015C6.31292 13.9188 6.29312 13.7177 6.33171 13.5237C6.37029 13.3297 6.46553 13.1515 6.60538 13.0117C6.74524 12.8718 6.92342 12.7766 7.1174 12.738C7.31138 12.6994 7.51245 12.7192 7.69517 12.7949C7.8779 12.8706 8.03408 12.9988 8.14396 13.1632C8.25384 13.3277 8.31249 13.521 8.31249 13.7188C8.31217 13.9839 8.20671 14.2381 8.01925 14.4256C7.83178 14.613 7.57761 14.7185 7.31249 14.7188ZM22.2866 4L22.0656 6.1006H21.9256C20.9794 6.11443 20.0615 6.42531 19.3016 6.9893C18.631 7.50505 17.8087 7.78468 16.9627 7.78468C16.1167 7.78468 15.2944 7.50505 14.6238 6.9893C13.8694 6.41532 12.9477 6.10452 11.9998 6.10452C11.0519 6.10452 10.1301 6.41532 9.37579 6.9893C8.69784 7.4909 7.88104 7.76998 7.03789 7.7881C6.19446 7.76985 5.37738 7.49079 4.69899 6.9893C3.9373 6.42879 3.02053 6.11829 2.07499 6.1006H1.93439L1.71339 4H1.20999L2.99999 21H21L22.79 4H22.2866ZM20.55 20.5H3.44999L1.98709 6.6006H2.07519C2.91863 6.61881 3.73572 6.89787 4.41409 7.3994C5.17578 7.95991 6.09256 8.27041 7.03809 8.2881C7.98337 8.27071 8.89992 7.96017 9.66109 7.3994C10.3317 6.88365 11.154 6.60402 12 6.60402C12.846 6.60402 13.6683 6.88365 14.3389 7.3994C15.1006 7.95991 16.0174 8.27041 16.9629 8.2881C17.9084 8.27041 18.8252 7.95991 19.5869 7.3994C20.2637 6.89496 21.0818 6.61558 21.9258 6.6006H22.0129L20.55 20.5Z" fill="black"/>
</svg>
