<svg width="24" height="24" viewBox="0 0 24 24" fill="none" xmlns="http://www.w3.org/2000/svg">
<path d="M11.4083 8L10.4083 6H7.7913V8.8414C7.79137 9.30469 7.64373 9.75593 7.36984 10.1296C7.09594 10.5032 6.71005 10.7798 6.26823 10.9192C5.8264 11.0586 5.35165 11.0535 4.91293 10.9046C4.47421 10.7557 4.09437 10.4709 3.8286 10.0914L2.7286 8.5214L1 8.5382V18H15L20.2552 17.261C21.0165 17.1539 21.7135 16.7754 22.2179 16.1952C22.7222 15.6149 23 14.872 23 14.1032V12.5L11.4083 8ZM22.5 14.1032C22.4975 14.7508 22.2624 15.3759 21.8376 15.8646C21.4127 16.3533 20.8265 16.6732 20.1856 16.7659L14.965 17.5H1.5V9.0331L2.4706 9.0231L3.4192 10.3775C3.74591 10.8441 4.21284 11.1943 4.75219 11.3774C5.29154 11.5605 5.87522 11.5669 6.41843 11.3956C6.96165 11.2243 7.43612 10.8843 7.77294 10.425C8.10975 9.96571 8.29137 9.41098 8.2914 8.8414V6.5H10.0994L11.0475 8.3962L11.2275 8.4662L11.8175 8.6952L11.0828 10.588C11.0708 10.6186 11.065 10.6514 11.0657 10.6843C11.0664 10.7171 11.0735 10.7496 11.0868 10.7797C11.1 10.8098 11.1191 10.837 11.1429 10.8598C11.1667 10.8825 11.1947 10.9003 11.2254 10.9122C11.2542 10.9229 11.2847 10.9285 11.3154 10.9288C11.3657 10.9288 11.4149 10.9136 11.4565 10.8852C11.498 10.8568 11.53 10.8165 11.5483 10.7696L12.2833 8.8761L14.3207 9.667L13.6362 11.43C13.6122 11.4919 13.6137 11.5608 13.6404 11.6216C13.6672 11.6824 13.7169 11.7301 13.7788 11.7542C13.8076 11.7649 13.8381 11.7705 13.8688 11.7708C13.9192 11.7708 13.9683 11.7556 14.0099 11.7272C14.0515 11.6988 14.0835 11.6585 14.1018 11.6116L14.7864 9.8482L16.8239 10.6391L16.19 12.2715C16.166 12.3334 16.1675 12.4023 16.1942 12.4631C16.221 12.5239 16.2707 12.5716 16.3326 12.5957C16.3614 12.6064 16.3919 12.612 16.4226 12.6123C16.4729 12.6123 16.5221 12.5971 16.5637 12.5687C16.6052 12.5403 16.6372 12.5 16.6555 12.4531L17.29 10.82L22.5 12.8424V14.1032Z" fill="black"/>
</svg>
