<svg width="24" height="24" viewBox="0 0 24 24" fill="none" xmlns="http://www.w3.org/2000/svg">
<path d="M20.3815 10.0607L19.8334 9.3313V4H18.3334V8.7468L16.7034 9.6454C15.5825 10.2576 14.6471 11.1603 13.9954 12.2587C13.3438 13.3572 12.9999 14.6108 13 15.888V17.5H11V15.888C11.0001 14.6108 10.6562 13.3571 10.0045 12.2587C9.35276 11.1602 8.41729 10.2575 7.2963 9.6454L5.6663 8.7469V4H4.1663V9.3313L3.6181 10.0607C2.56787 11.4545 1.99988 13.1523 2 14.8975V19H22V14.8975C22 13.1523 21.4319 11.4545 20.3815 10.0607ZM3.5 17.5V14.8975C3.50289 13.4776 3.96522 12.0968 4.8179 10.9614L5.3241 10.2888L6.5568 10.9501C7.44741 11.4309 8.19127 12.1437 8.70945 13.0131C9.22763 13.8825 9.50081 14.8759 9.5 15.888V17.5H3.5ZM20.5 17.5H14.5V15.888C14.4992 14.8759 14.7724 13.8824 15.2906 13.013C15.8088 12.1437 16.5527 11.4308 17.4433 10.95L18.6759 10.2887L19.1821 10.9613C20.0348 12.0967 20.4972 13.4776 20.5 14.8975V17.5Z" fill="black"/>
</svg>
