<svg width="24" height="24" viewBox="0 0 24 24" fill="none" xmlns="http://www.w3.org/2000/svg">
<path d="M22.2866 4L22.0044 6.6822H21.1482C20.34 6.68898 19.5491 6.91681 18.8611 7.341C18.176 7.77151 17.3833 7.99989 16.5741 7.99989C15.765 7.99989 14.9722 7.77151 14.2871 7.341C13.6019 6.91055 12.8092 6.68221 12 6.68221C11.1908 6.68221 10.3981 6.91055 9.71291 7.341C9.02431 7.76371 8.23385 7.99149 7.42591 8C6.61797 7.99152 5.82751 7.76378 5.13891 7.3411C4.45023 6.91852 3.65975 6.69082 2.85181 6.6823H1.99561L1.71341 4H1.21001L3.00001 21H21L22.79 4H22.2866ZM14.6143 16.1566L14.2607 16.5101L12 14.2493L9.73931 16.51L9.38571 16.1565L11.6465 13.8957L9.38571 11.6351L9.73931 11.2816L12 13.5423L14.2607 11.2816L14.6143 11.6351L12.3535 13.8958L14.6143 16.1566Z" fill="black"/>
</svg>
