<svg width="24" height="24" viewBox="0 0 24 24" fill="none" xmlns="http://www.w3.org/2000/svg">
<path d="M21.01 10.7886L17.7584 9.6267L17.1884 11.2305C17.1712 11.2792 17.1393 11.3213 17.0972 11.351C17.055 11.3808 17.0046 11.3966 16.953 11.3965C16.9244 11.3964 16.896 11.3914 16.8691 11.3818C16.8067 11.3595 16.7557 11.3134 16.7273 11.2535C16.6989 11.1936 16.6955 11.1249 16.7177 11.0625L17.2877 9.4586L15.23 8.7231L14.6113 10.4631C14.5941 10.5117 14.5622 10.5538 14.5201 10.5836C14.4779 10.6133 14.4276 10.6292 14.376 10.6291C14.3474 10.629 14.319 10.624 14.292 10.6145C14.2296 10.5922 14.1786 10.546 14.1502 10.4861C14.1218 10.4263 14.1183 10.3575 14.1406 10.2951L14.7593 8.5551L12.7012 7.8196L12.0347 9.6955C12.011 9.75607 11.9647 9.80504 11.9056 9.83202C11.8464 9.859 11.779 9.86187 11.7178 9.84001C11.6565 9.81815 11.6062 9.77329 11.5775 9.71494C11.5488 9.6566 11.544 9.58936 11.564 9.5275L12.2306 7.6514L10.4083 7H9.0312V8.02C9.0312 8.1516 9.00523 8.28191 8.95477 8.40345C8.9043 8.52499 8.83035 8.63537 8.73714 8.72828C8.64393 8.82118 8.5333 8.89477 8.4116 8.94483C8.28989 8.99489 8.1595 9.02043 8.0279 9.02L4.6863 9.0085C4.29363 9.00716 3.90529 8.92641 3.54463 8.77113C3.18396 8.61585 2.85843 8.38923 2.5876 8.1049L2.0312 7.5207L1 7.5382V17H16L23 16.2083V13.6136C23 12.995 22.8088 12.3915 22.4526 11.8858C22.0963 11.3801 21.5925 10.9969 21.01 10.7886Z" fill="black"/>
</svg>
