<svg width="24" height="24" viewBox="0 0 24 24" fill="none" xmlns="http://www.w3.org/2000/svg">
<path d="M9.7891 10.5C9.49243 10.5 9.20242 10.588 8.95574 10.7528C8.70907 10.9176 8.51681 11.1519 8.40328 11.426C8.28975 11.7001 8.26004 12.0017 8.31792 12.2926C8.3758 12.5836 8.51866 12.8509 8.72844 13.0607C8.93822 13.2704 9.20549 13.4133 9.49646 13.4712C9.78744 13.5291 10.089 13.4994 10.3631 13.3858C10.6372 13.2723 10.8715 13.08 11.0363 12.8334C11.2011 12.5867 11.2891 12.2967 11.2891 12C11.2891 11.6022 11.1311 11.2206 10.8498 10.9393C10.5685 10.658 10.1869 10.5 9.7891 10.5ZM9.7891 12.7C9.65065 12.7 9.51532 12.6589 9.4002 12.582C9.28509 12.5051 9.19537 12.3958 9.14238 12.2679C9.0894 12.14 9.07554 11.9992 9.10255 11.8634C9.12956 11.7276 9.19623 11.6029 9.29413 11.505C9.39202 11.4071 9.51675 11.3405 9.65254 11.3134C9.78832 11.2864 9.92907 11.3003 10.057 11.3533C10.1849 11.4063 10.2942 11.496 10.3711 11.6111C10.448 11.7262 10.4891 11.8616 10.4891 12C10.4889 12.1856 10.4151 12.3635 10.2838 12.4947C10.1526 12.626 9.97469 12.6998 9.7891 12.7ZM14.2109 10.5C13.9142 10.5 13.6242 10.588 13.3775 10.7528C13.1309 10.9176 12.9386 11.1519 12.8251 11.426C12.7115 11.7001 12.6818 12.0017 12.7397 12.2926C12.7976 12.5836 12.9405 12.8509 13.1502 13.0607C13.36 13.2704 13.6273 13.4133 13.9183 13.4712C14.2092 13.5291 14.5108 13.4994 14.7849 13.3858C15.059 13.2723 15.2933 13.08 15.4581 12.8334C15.6229 12.5867 15.7109 12.2967 15.7109 12C15.7109 11.6022 15.5529 11.2206 15.2716 10.9393C14.9903 10.658 14.6087 10.5 14.2109 10.5ZM14.2109 12.7C14.0725 12.7 13.9371 12.6589 13.822 12.582C13.7069 12.5051 13.6172 12.3958 13.5642 12.2679C13.5112 12.14 13.4973 11.9992 13.5244 11.8634C13.5514 11.7276 13.618 11.6029 13.7159 11.505C13.8138 11.4071 13.9385 11.3405 14.0743 11.3134C14.2101 11.2864 14.3509 11.3003 14.4788 11.3533C14.6067 11.4063 14.716 11.496 14.7929 11.6111C14.8698 11.7262 14.9109 11.8616 14.9109 12C14.9107 12.1856 14.8369 12.3635 14.7056 12.4947C14.5744 12.626 14.3965 12.6998 14.2109 12.7ZM3 3V21H21V3H3ZM3.9333 3.9333H9.6152C8.26989 4.33224 7.04552 5.06088 6.05327 6.05308C5.06102 7.04528 4.33231 8.26961 3.9333 9.6149V3.9333ZM3.9333 20.0667V14.3851C4.3323 15.7304 5.06097 16.9546 6.05316 17.9468C7.04536 18.939 8.26965 19.6677 9.6149 20.0667H3.9333ZM4.5186 12C4.5186 10.5203 4.95738 9.07387 5.77944 7.84356C6.60151 6.61325 7.76995 5.65434 9.13699 5.08809C10.504 4.52184 12.0083 4.37368 13.4595 4.66235C14.9108 4.95102 16.2439 5.66356 17.2901 6.70985C18.3364 7.75614 19.049 9.0892 19.3376 10.5405C19.6263 11.9917 19.4782 13.496 18.9119 14.863C18.3457 16.2301 17.3868 17.3985 16.1564 18.2206C14.9261 19.0426 13.4797 19.4814 12 19.4814C10.0165 19.4791 8.11491 18.6902 6.71237 17.2876C5.30982 15.8851 4.52088 13.9835 4.5186 12ZM20.0667 20.0667H14.3851C15.7304 19.6677 16.9546 18.939 17.9468 17.9468C18.939 16.9546 19.6677 15.7304 20.0667 14.3851V20.0667ZM20.0667 9.6149C19.6677 8.26961 18.939 7.04528 17.9467 6.05308C16.9545 5.06088 15.7301 4.33224 14.3848 3.9333H20.0667V9.6149Z" fill="black"/>
</svg>
