<svg width="24" height="24" viewBox="0 0 24 24" fill="none" xmlns="http://www.w3.org/2000/svg">
<path d="M21.01 10.7886L18.0208 9.7205L17.3862 11.3555C17.3497 11.4495 17.2857 11.5304 17.2025 11.5873C17.1193 11.6443 17.0208 11.6748 16.9199 11.6748C16.8581 11.6749 16.7968 11.6633 16.7393 11.6406C16.6157 11.5927 16.5162 11.4977 16.4626 11.3765C16.4091 11.2553 16.4058 11.1177 16.4536 10.9941L17.0786 9.3841L15.4912 8.8168L14.835 10.5081C14.7985 10.6021 14.7345 10.683 14.6513 10.7399C14.5681 10.7969 14.4696 10.8274 14.3687 10.8274C14.3069 10.8275 14.2455 10.816 14.188 10.7933C14.0644 10.7454 13.9649 10.6504 13.9113 10.5292C13.8578 10.408 13.8545 10.2704 13.9023 10.1468L14.5491 8.48L12.9617 7.9127L12.2837 9.6594C12.2472 9.75344 12.1832 9.83426 12.1 9.89125C12.0168 9.94823 11.9183 9.97872 11.8174 9.9787C11.7554 9.9788 11.6939 9.96719 11.6362 9.9445C11.5128 9.89649 11.4134 9.80146 11.3599 9.68027C11.3065 9.55908 11.3033 9.42163 11.3511 9.2981L12.02 7.5758L10.4083 7H8.6183V8.02C8.6183 8.15174 8.59227 8.28217 8.54171 8.40382C8.49115 8.52546 8.41705 8.63592 8.32368 8.72884C8.2303 8.82177 8.11948 8.89532 7.99759 8.94529C7.8757 8.99526 7.74513 9.02065 7.6134 9.02L4.8785 9.0085C4.48595 9.0066 4.09781 8.92547 3.73736 8.76998C3.37691 8.61449 3.05156 8.38784 2.7808 8.1036L2.2257 7.5207L1 7.5382V17H16L23 16.2083V13.6136C23 12.995 22.8088 12.3915 22.4526 11.8858C22.0963 11.3801 21.5925 10.9969 21.01 10.7886Z" fill="black"/>
</svg>
