<svg width="24" height="24" viewBox="0 0 24 24" fill="none" xmlns="http://www.w3.org/2000/svg">
<path d="M16.1578 8.8438L15.4673 10.6221C15.4015 10.7911 15.2862 10.9364 15.1366 11.0388C14.9869 11.1413 14.8098 11.1961 14.6284 11.1963C14.5169 11.1964 14.4065 11.1755 14.3027 11.1348C14.0803 11.0483 13.9013 10.877 13.8052 10.6586C13.709 10.4401 13.7036 10.1925 13.79 9.97L14.48 8.1926L13.1067 7.6595L12.3108 9.6028C12.266 9.71219 12.2002 9.8117 12.117 9.89563C12.0338 9.97957 11.9348 10.0463 11.8258 10.092C11.7168 10.1377 11.5999 10.1615 11.4817 10.162C11.3635 10.1625 11.2464 10.1398 11.137 10.095C11.0276 10.0502 10.9281 9.98438 10.8442 9.90117C10.7602 9.81796 10.6935 9.71904 10.6478 9.61004C10.6021 9.50104 10.5783 9.38411 10.5778 9.26592C10.5773 9.14773 10.6 9.03059 10.6448 8.9212L11.4283 7.0079L11.4083 7L10.4083 5H7.7913V7.8414C7.79137 8.30469 7.64373 8.75593 7.36984 9.12959C7.09594 9.50324 6.71005 9.77984 6.26823 9.91921C5.8264 10.0586 5.35165 10.0535 4.91293 9.9046C4.47421 9.75573 4.09437 9.47087 3.8286 9.0914L2.7286 7.5214L1 7.5382V17H15L20.2552 16.261C21.0165 16.1539 21.7135 15.7754 22.2179 15.1952C22.7222 14.6149 23 13.872 23 13.1032V11.5L16.1578 8.8438Z" fill="black"/>
</svg>
