<svg width="24" height="24" viewBox="0 0 24 24" fill="none" xmlns="http://www.w3.org/2000/svg">
<path d="M3 3V21H21V3H3ZM4.8 4.8H11.2136C9.57422 4.97932 8.04509 5.71263 6.87894 6.87873C5.71278 8.04484 4.9794 9.57393 4.8 11.2133V4.8ZM4.8 19.2V12.7867C4.97942 14.4261 5.7128 15.9551 6.87896 17.1212C8.04511 18.2873 9.57423 19.0207 11.2136 19.2H4.8ZM6.5557 12C6.5557 10.9232 6.875 9.87062 7.47323 8.97531C8.07146 8.08 8.92174 7.38219 9.91656 6.97012C10.9114 6.55806 12.006 6.45024 13.0621 6.66031C14.1182 6.87038 15.0883 7.3889 15.8497 8.1503C16.6111 8.9117 17.1296 9.88178 17.3397 10.9379C17.5498 11.994 17.4419 13.0886 17.0299 14.0834C16.6178 15.0783 15.92 15.9285 15.0247 16.5268C14.1294 17.125 13.0768 17.4443 12 17.4443C10.5565 17.4428 9.17264 16.8687 8.15197 15.848C7.13129 14.8274 6.55721 13.4435 6.5557 12ZM19.2 19.2H12.7864C14.4258 19.0207 15.9549 18.2873 17.121 17.1212C18.2872 15.9551 19.0206 14.4261 19.2 12.7867V19.2ZM19.2 11.2133C19.0206 9.57393 18.2872 8.04484 17.1211 6.87873C15.9549 5.71263 14.4258 4.97932 12.7864 4.8H19.2V11.2133ZM13.8716 8.9966L12 10.8682L10.1284 8.9966L8.9966 10.1284L10.8682 12L8.9966 13.8716L10.1284 15.0034L12 13.1318L13.8716 15.0034L15.0034 13.8716L13.1318 12L15.0034 10.1284L13.8716 8.9966Z" fill="black"/>
</svg>
