<svg width="24" height="24" viewBox="0 0 24 24" fill="none" xmlns="http://www.w3.org/2000/svg">
<path d="M9.78909 12.2188C9.49242 12.2188 9.20241 12.3068 8.95574 12.4716C8.70906 12.6364 8.5168 12.8707 8.40327 13.1448C8.28974 13.4189 8.26004 13.7205 8.31791 14.0114C8.37579 14.3024 8.51865 14.5697 8.72843 14.7795C8.93821 14.9892 9.20548 15.1321 9.49646 15.19C9.78743 15.2479 10.089 15.2182 10.3631 15.1046C10.6372 14.9911 10.8715 14.7988 11.0363 14.5522C11.2011 14.3055 11.2891 14.0155 11.2891 13.7188C11.2891 13.321 11.1311 12.9394 10.8498 12.6581C10.5684 12.3768 10.1869 12.2188 9.78909 12.2188ZM9.78909 14.4188C9.65064 14.4188 9.51531 14.3777 9.40019 14.3008C9.28508 14.2239 9.19536 14.1146 9.14238 13.9867C9.08939 13.8588 9.07553 13.718 9.10254 13.5822C9.12955 13.4465 9.19622 13.3217 9.29412 13.2238C9.39201 13.1259 9.51674 13.0593 9.65253 13.0323C9.78831 13.0052 9.92906 13.0191 10.057 13.0721C10.1849 13.1251 10.2942 13.2148 10.3711 13.3299C10.448 13.445 10.4891 13.5804 10.4891 13.7188C10.4889 13.9044 10.4151 14.0823 10.2838 14.2135C10.1526 14.3448 9.97468 14.4186 9.78909 14.4188ZM14.2109 12.2188C13.9142 12.2188 13.6242 12.3068 13.3775 12.4716C13.1309 12.6364 12.9386 12.8707 12.8251 13.1448C12.7115 13.4189 12.6818 13.7205 12.7397 14.0114C12.7976 14.3024 12.9405 14.5697 13.1502 14.7795C13.36 14.9892 13.6273 15.1321 13.9183 15.19C14.2092 15.2479 14.5108 15.2182 14.7849 15.1046C15.059 14.9911 15.2933 14.7988 15.4581 14.5522C15.6229 14.3055 15.7109 14.0155 15.7109 13.7188C15.7109 13.321 15.5529 12.9394 15.2716 12.6581C14.9902 12.3768 14.6087 12.2188 14.2109 12.2188ZM14.2109 14.4188C14.0724 14.4188 13.9371 14.3777 13.822 14.3008C13.7069 14.2239 13.6172 14.1146 13.5642 13.9867C13.5112 13.8588 13.4973 13.718 13.5243 13.5822C13.5514 13.4465 13.618 13.3217 13.7159 13.2238C13.8138 13.1259 13.9385 13.0593 14.0743 13.0323C14.2101 13.0052 14.3509 13.0191 14.4788 13.0721C14.6067 13.1251 14.716 13.2148 14.7929 13.3299C14.8698 13.445 14.9109 13.5804 14.9109 13.7188C14.9107 13.9044 14.8369 14.0823 14.7056 14.2135C14.5744 14.3448 14.3965 14.4186 14.2109 14.4188ZM21.8174 4L21.6111 5.9609H21.2C20.2683 5.9731 19.364 6.27782 18.615 6.832C18.0397 7.28187 17.3303 7.52628 16.6 7.52628C15.8697 7.52628 15.1603 7.28187 14.585 6.832C13.8407 6.26931 12.9331 5.96486 12 5.96486C11.0669 5.96486 10.1593 6.26931 9.41499 6.832C8.83108 7.26573 8.12716 7.50797 7.39999 7.5254C6.67307 7.50779 5.96943 7.26557 5.38569 6.832C4.63496 6.28115 3.73181 5.97679 2.80079 5.9609H2.38889L2.18259 4H1.20999L2.99999 21H21L22.79 4H21.8174ZM20.13 20.0333H3.86999L2.49429 6.9609H2.80079C3.52782 6.97842 4.23159 7.22064 4.81539 7.6543C5.56607 8.20505 6.46909 8.5094 7.39999 8.5254C8.33103 8.50948 9.23421 8.20513 9.98499 7.6543C10.5613 7.2071 11.2701 6.96437 11.9996 6.96437C12.7291 6.96437 13.4378 7.2071 14.0142 7.6543C14.7576 8.21943 15.6658 8.5254 16.5996 8.5254C17.5335 8.5254 18.4416 8.21943 19.1851 7.6543C19.7675 7.2177 20.4723 6.97514 21.2 6.9609H21.5055L20.13 20.0333Z" fill="black"/>
</svg>
