<svg width="24" height="24" viewBox="0 0 24 24" fill="none" xmlns="http://www.w3.org/2000/svg">
<path d="M3 3V21H10.75L11.75 13H12.25L13.25 21H21V3H3ZM19.1 7.6748H18.0488C17.783 7.67448 17.5283 7.56877 17.3403 7.38085C17.1524 7.19294 17.0467 6.93816 17.0464 6.6724V4.9H19.1V7.6748ZM6.9536 4.9V6.6724C6.95328 6.93816 6.84757 7.19294 6.65965 7.38085C6.47174 7.56877 6.21696 7.67448 5.9512 7.6748H4.9V4.9H6.9536ZM14.9273 19.1L14.1353 12.7643L13.9273 11.1H10.0727L9.8647 12.7643L9.0727 19.1H4.9V9.5752H5.9512C6.72079 9.5743 7.45861 9.26818 8.0028 8.724C8.54698 8.17981 8.8531 7.44199 8.854 6.6724V4.9H15.146V6.6724C15.1469 7.44199 15.453 8.17981 15.9972 8.724C16.5414 9.26818 17.2792 9.5743 18.0488 9.5752H19.1V19.1H14.9273Z" fill="black"/>
</svg>
