<svg width="24" height="24" viewBox="0 0 24 24" fill="none" xmlns="http://www.w3.org/2000/svg">
<path d="M21.3483 4L21.1565 5.8213H20.4746C19.557 5.83183 18.666 6.13078 17.9277 6.6758C17.448 7.05982 16.8518 7.26906 16.2373 7.26906C15.6228 7.26906 15.0266 7.05982 14.5469 6.6758C13.8127 6.12388 12.919 5.82545 12.0005 5.82545C11.082 5.82545 10.1883 6.12388 9.45411 6.6758C8.96539 7.04319 8.37395 7.24842 7.76271 7.2627C7.1518 7.24895 6.56064 7.04366 6.07271 6.6758C5.33269 6.13413 4.44277 5.83556 3.52581 5.8213H2.84351L2.65171 4H1.21001L3.00001 21H21L22.79 4H21.3483ZM19.71 19.5667H4.29001L3.00131 7.3213H3.52541C4.13665 7.33558 4.72809 7.5408 5.21681 7.9082C5.95659 8.44959 6.8461 8.74815 7.76271 8.7627C8.67981 8.74853 9.56988 8.44995 10.31 7.9082C10.7901 7.52461 11.3864 7.31566 12.0009 7.31566C12.6154 7.31566 13.2117 7.52461 13.6918 7.9082C14.4248 8.46265 15.3187 8.76267 16.2377 8.76267C17.1567 8.76267 18.0507 8.46265 18.7836 7.9082C19.2723 7.5408 19.8638 7.33558 20.475 7.3213H20.9991L19.71 19.5667ZM13.9427 10.9632L12 12.9056L10.0576 10.9632L9.06761 11.9532L11.01 13.8958L9.06741 15.8382L10.0574 16.8282L12 14.886L13.9424 16.8284L14.9324 15.8384L12.99 13.8958L14.9324 11.9534L13.9427 10.9632Z" fill="black"/>
</svg>
