<svg width="24" height="24" viewBox="0 0 24 24" fill="none" xmlns="http://www.w3.org/2000/svg">
<g clip-path="url(#clip0)">
<path d="M17.3462 3V5.625C17.3469 6.35412 17.6369 7.05316 18.1525 7.56873C18.668 8.08429 19.3671 8.37426 20.0962 8.375H21V3H17.3462ZM6.6538 5.625V3H3V8.375H3.9038C4.63292 8.37426 5.33196 8.08429 5.84753 7.56873C6.36309 7.05316 6.65306 6.35412 6.6538 5.625ZM16.8462 5.625V3H7.1538V5.625C7.15279 6.48664 6.81006 7.31271 6.20079 7.92199C5.59151 8.53126 4.76544 8.87399 3.9038 8.875H3V21H10.75L11.75 11H12.25L13.25 21H21V8.875H20.0962C19.2346 8.87399 18.4085 8.53126 17.7992 7.92199C17.1899 7.31271 16.8472 6.48664 16.8462 5.625Z" fill="black"/>
</g>
<defs>
<clipPath id="clip0">
<rect width="24" height="24" fill="white"/>
</clipPath>
</defs>
</svg>
