<svg width="24" height="24" viewBox="0 0 24 24" fill="none" xmlns="http://www.w3.org/2000/svg">
<path d="M21.0745 13.7123L18.5376 12.6745L17.8228 14.4226C17.778 14.532 17.7122 14.6315 17.629 14.7154C17.5457 14.7994 17.4468 14.8661 17.3378 14.9118C17.2288 14.9575 17.1118 14.9813 16.9936 14.9818C16.8754 14.9823 16.7583 14.9596 16.6489 14.9148C16.5395 14.87 16.44 14.8042 16.3561 14.721C16.2721 14.6377 16.2054 14.5388 16.1597 14.4298C16.114 14.3208 16.0902 14.2038 16.0897 14.0856C16.0892 13.9674 16.1119 13.8503 16.1567 13.7409L16.8716 11.9929L15.4616 11.4161L14.7321 13.1991C14.6873 13.3085 14.6215 13.408 14.5383 13.4919C14.4551 13.5759 14.3561 13.6426 14.2471 13.6883C14.1381 13.734 14.0212 13.7578 13.903 13.7583C13.7848 13.7588 13.6677 13.7361 13.5583 13.6913C13.4489 13.6465 13.3494 13.5807 13.2655 13.4975C13.1815 13.4143 13.1148 13.3153 13.0691 13.2063C13.0234 13.0973 12.9996 12.9804 12.9991 12.8622C12.9986 12.744 13.0213 12.6269 13.0661 12.5175L13.7955 10.7345L12.812 10.3322L11.1188 11.5468C10.9247 11.6835 10.6845 11.7379 10.4505 11.6983C10.2164 11.6587 10.0075 11.5283 9.8692 11.3354C9.73089 11.1424 9.67439 10.9027 9.71199 10.6683C9.7496 10.434 9.87828 10.2239 10.07 10.084L12 8.7V7.7949H10.0176C9.7788 7.7949 9.54978 7.70004 9.38092 7.53118C9.21206 7.36232 9.1172 7.1333 9.1172 6.8945C9.1172 6.6557 9.21206 6.42668 9.38092 6.25782C9.54978 6.08896 9.7788 5.9941 10.0176 5.9941H12V3.625H9L6.2917 4.625H2V20.2656H4V19H5.8V20.2656H7.8V19H9.6V20.2656H11.6V19H13.4V20.2656H15.4V19H17.2V20.2656H19.2V19H21V20.2656H23V16.58C22.9999 15.9649 22.8168 15.3637 22.4739 14.853C22.131 14.3423 21.6438 13.9452 21.0745 13.7123Z" fill="black"/>
</svg>
