<svg width="24" height="24" viewBox="0 0 24 24" fill="none" xmlns="http://www.w3.org/2000/svg">
<path d="M3 3V21H10.75L11.75 11H12.25L13.25 21H21V3H3ZM3.5 3.5H7.6538V5.625C7.65306 6.35412 7.36309 7.05316 6.84753 7.56873C6.33196 8.08429 5.63292 8.37426 4.9038 8.375H3.5V3.5ZM20.5 3.5V8.375H19.0962C18.3671 8.37426 17.668 8.08429 17.1525 7.56873C16.6369 7.05316 16.3469 6.35412 16.3462 5.625V3.5H20.5ZM3.5 20.5V8.875H4.9038C5.76544 8.87399 6.59151 8.53126 7.20079 7.92199C7.81006 7.31271 8.15279 6.48664 8.1538 5.625V3.5H15.8462V5.625C15.8472 6.48664 16.1899 7.31271 16.7992 7.92199C17.4085 8.53126 18.2346 8.87399 19.0962 8.875H20.5V20.5H13.7025L12.7475 10.95L12.7025 10.5H11.2975L11.2525 10.95L10.2975 20.5H3.5Z" fill="black"/>
</svg>
