<svg width="24" height="24" viewBox="0 0 24 24" fill="none" xmlns="http://www.w3.org/2000/svg">
<path d="M22.2612 3L22.0142 5.1006H21.9258C20.9796 5.11443 20.0617 5.42531 19.3018 5.9893C18.6312 6.50505 17.8089 6.78468 16.9629 6.78468C16.1169 6.78468 15.2946 6.50505 14.624 5.9893C13.8697 5.41532 12.9479 5.10452 12 5.10452C11.0521 5.10452 10.1304 5.41532 9.37601 5.9893C8.69806 6.4909 7.88126 6.76998 7.03811 6.7881C6.19468 6.76985 5.37761 6.49079 4.69921 5.9893C3.93752 5.42879 3.02075 5.11829 2.07521 5.1006H1.98581L1.73881 3H1.23541L3.00001 18H21L22.7646 3H22.2612ZM20.5554 17.5H3.44461L2.04461 5.6006H2.07461C2.91805 5.61881 3.73514 5.89787 4.41351 6.3994C5.1752 6.95991 6.09198 7.27041 7.03751 7.2881C7.98279 7.27071 8.89934 6.96017 9.66051 6.3994C10.3311 5.88365 11.1534 5.60402 11.9994 5.60402C12.8454 5.60402 13.6677 5.88365 14.3383 6.3994C15.1 6.95991 16.0168 7.27041 16.9623 7.2881C17.9078 7.27041 18.8246 6.95991 19.5863 6.3994C20.2632 5.89496 21.0812 5.61558 21.9252 5.6006H21.9552L20.5554 17.5ZM3.00001 21H21V20.5H3.00001V21Z" fill="black"/>
</svg>
