<svg width="24" height="24" viewBox="0 0 24 24" fill="none" xmlns="http://www.w3.org/2000/svg">
<path d="M5.46774 19V14.2879C5.46774 14.1598 5.49297 14.033 5.54199 13.9146C5.59101 13.7963 5.66286 13.6888 5.75343 13.5982C5.84401 13.5076 5.95153 13.4358 6.06987 13.3867C6.18821 13.3377 6.31505 13.3125 6.44314 13.3125C6.5818 13.3125 6.71886 13.342 6.84518 13.3992C6.97151 13.4563 7.0842 13.5398 7.17574 13.6439L10.391 17.3013C10.8603 17.8351 11.4379 18.2627 12.0855 18.5556C12.733 18.8485 13.4355 19 14.1462 19H22.9999V16.7888C23 16.5087 22.9295 16.2332 22.7949 15.9876C22.6603 15.742 22.466 15.5343 22.2299 15.3836L16.8156 11.9391L15.1919 12.9037C14.7907 13.1422 14.3205 13.2378 13.8579 13.1748C13.3954 13.1119 12.9678 12.894 12.6449 12.5569L5.45494 5.0569L3.99994 5L3.16124 6.9132C2.40616 8.63603 2.20987 10.5522 2.59994 12.3923L3.99994 19H5.46774Z" fill="black"/>
</svg>
