<svg width="24" height="24" viewBox="0 0 24 24" fill="none" xmlns="http://www.w3.org/2000/svg">
<path d="M21.7378 3L21.4578 4.9609H21.2C20.2683 4.9731 19.364 5.27782 18.615 5.832C18.0399 6.28234 17.3305 6.52703 16.6 6.52703C15.8695 6.52703 15.1601 6.28234 14.585 5.832C13.8407 5.26931 12.9331 4.96486 12 4.96486C11.0669 4.96486 10.1593 5.26931 9.415 5.832C8.83109 6.26573 8.12717 6.50797 7.4 6.5254C6.67308 6.50779 5.96943 6.26557 5.3857 5.832C4.63496 5.28115 3.73181 4.97679 2.8008 4.9609H2.5424L2.2622 3H1.2856L3 15H21L22.7144 3H21.7378ZM20.1616 14.0333H3.8384L2.6852 5.9609H2.8008C3.52783 5.97842 4.2316 6.22064 4.8154 6.6543C5.56607 7.20505 6.4691 7.5094 7.4 7.5254C8.33104 7.50948 9.23421 7.20513 9.985 6.6543C10.5613 6.2071 11.2701 5.96437 11.9996 5.96437C12.7291 5.96437 13.4379 6.2071 14.0142 6.6543C14.7577 7.21943 15.6658 7.5254 16.5996 7.5254C17.5335 7.5254 18.4416 7.21943 19.1851 6.6543C19.7675 6.2177 20.4723 5.97514 21.2 5.9609H21.3146L20.1616 14.0333ZM3 21H21V20.0667H3V21ZM3 18H21V17.0667H3V18Z" fill="black"/>
</svg>
