<svg width="24" height="24" viewBox="0 0 24 24" fill="none" xmlns="http://www.w3.org/2000/svg">
<path d="M7.9986 2.6165L10.3086 6.2634C10.4895 6.54907 10.7395 6.78449 11.0355 6.94787C11.3316 7.11125 11.664 7.19731 12.0022 7.19809C12.3403 7.19887 12.6731 7.11434 12.9699 6.95232C13.2667 6.7903 13.5178 6.55603 13.7 6.2712L16.0359 2.62L17.724 3.3059L16.3112 9.965C16.1647 10.649 16.291 11.3632 16.663 11.9556L17.4537 13.2202C18.1378 14.3135 18.5004 15.5772 18.5 16.8669V17.9069L16.52 18.4336C15.2233 18.7889 14.0899 19.5828 13.3128 20.68L12.7252 21.5H11.2752L10.6876 20.68C9.91036 19.5829 8.77679 18.7891 7.48 18.434L5.5 17.9073V17.06C5.49955 15.7674 5.8638 14.5008 6.5509 13.4059L7.3269 12.1683C7.69972 11.5764 7.82687 10.8625 7.6813 10.1783L6.2349 3.3105L7.9986 2.6165ZM15.8389 2L13.2789 6.0017C13.142 6.21569 12.9534 6.39169 12.7304 6.51342C12.5075 6.63514 12.2574 6.69865 12.0034 6.69808C11.7494 6.6975 11.4996 6.63285 11.2772 6.51011C11.0548 6.38737 10.867 6.21051 10.7311 5.9959L8.2 2L5.6585 3L7.192 10.2812C7.3094 10.8385 7.2059 11.4197 6.9033 11.9022L6.1273 13.14C5.39065 14.3148 4.99996 15.6734 5 17.06V18.2922L7.3518 18.9177C8.53704 19.2416 9.5726 19.9679 10.2808 20.972L11.0181 22H12.9819L13.7192 20.9715C14.4274 19.9674 15.463 19.2411 16.6482 18.9172L19 18.2917V16.8669C19 15.4835 18.6111 14.128 17.8777 12.9551L17.0869 11.6905C16.7848 11.2075 16.6819 10.6261 16.8 10.0687L18.3 3L15.839 2H15.8389Z" fill="black"/>
</svg>
