<svg width="24" height="24" viewBox="0 0 24 24" fill="none" xmlns="http://www.w3.org/2000/svg">
<path d="M12 2L1.453 22H22.547L12 2ZM12 6.2876L19.2313 20H4.7688L12 6.2876ZM14.4865 17.1776V13.5576H12.8865V18.49H16.2191V17.1773L14.4865 17.1776ZM8.6075 15.144V16.903C8.60742 17.1114 8.6484 17.3177 8.7281 17.5103C8.80779 17.7028 8.92464 17.8778 9.07197 18.0252C9.2193 18.1726 9.39422 18.2895 9.58674 18.3692C9.77927 18.449 9.98561 18.49 10.194 18.49H11.9062V17.1773H10.2333C10.2265 17.1773 10.22 17.1746 10.2153 17.1698C10.2105 17.165 10.2078 17.1585 10.2078 17.1517V14.8951C10.2078 14.8917 10.2084 14.8884 10.2097 14.8853C10.211 14.8822 10.2129 14.8794 10.2152 14.877C10.2176 14.8746 10.2204 14.8727 10.2235 14.8715C10.2266 14.8702 10.2299 14.8695 10.2333 14.8695H11.9062V13.5573H10.194C9.98567 13.5573 9.77937 13.5983 9.58688 13.678C9.3944 13.7577 9.2195 13.8746 9.07218 14.0219C8.92486 14.1692 8.808 14.3441 8.72827 14.5366C8.64854 14.7291 8.6075 14.9354 8.6075 15.1437V15.144Z" fill="black"/>
</svg>
