<svg width="24" height="24" viewBox="0 0 24 24" fill="none" xmlns="http://www.w3.org/2000/svg">
<path d="M3 3V21H21V3H3ZM3.9333 3.9333H9.6152C8.26989 4.33224 7.04552 5.06088 6.05327 6.05308C5.06102 7.04528 4.33231 8.26961 3.9333 9.6149V3.9333ZM3.9333 20.0667V14.3851C4.33231 15.7304 5.061 16.9547 6.05321 17.9468C7.04543 18.939 8.26974 19.6677 9.615 20.0667H3.9333ZM4.5186 12C4.5186 10.5203 4.95738 9.07387 5.77944 7.84356C6.60151 6.61325 7.76995 5.65434 9.13699 5.08809C10.504 4.52184 12.0083 4.37368 13.4595 4.66235C14.9108 4.95102 16.2439 5.66356 17.2901 6.70985C18.3364 7.75614 19.049 9.0892 19.3376 10.5405C19.6263 11.9917 19.4782 13.496 18.9119 14.863C18.3457 16.2301 17.3868 17.3985 16.1564 18.2206C14.9261 19.0426 13.4797 19.4814 12 19.4814C10.0165 19.4791 8.11491 18.6902 6.71237 17.2876C5.30982 15.8851 4.52088 13.9835 4.5186 12ZM20.0667 20.0667H14.385C15.7303 19.6677 16.9546 18.939 17.9468 17.9468C18.939 16.9547 19.6677 15.7304 20.0667 14.3851V20.0667ZM20.0667 9.6149C19.6677 8.26961 18.939 7.04528 17.9467 6.05308C16.9545 5.06088 15.7301 4.33224 14.3848 3.9333H20.0667V9.6149ZM14.084 9.209L12 11.293L9.916 9.209L9.209 9.916L11.293 12L9.209 14.084L9.916 14.791L12 12.707L14.084 14.791L14.791 14.084L12.707 12L14.791 9.916L14.084 9.209Z" fill="black"/>
</svg>
