<svg width="24" height="24" viewBox="0 0 24 24" fill="none" xmlns="http://www.w3.org/2000/svg">
<path d="M19.9445 10.3947L19.5 9.8087V4H19V9.6025L17.1024 10.5386C15.871 11.1461 14.8342 12.086 14.1092 13.252C13.3843 14.4181 13 15.7637 13 17.1368V18.5H11V17.1368C11 15.7638 10.6158 14.4181 9.8908 13.2521C9.16583 12.086 8.12904 11.1461 6.8977 10.5386L5 9.6025V4H4.5V9.8087L4.0555 10.3947C2.72189 12.1526 2 14.2986 2 16.5051V19H22V16.5051C22 14.2986 21.2781 12.1526 19.9445 10.3947Z" fill="black"/>
</svg>
