<svg width="24" height="24" viewBox="0 0 24 24" fill="none" xmlns="http://www.w3.org/2000/svg">
<path d="M19.5 4H7V4.498H19.498C20.0284 4.498 20.5371 4.70871 20.9122 5.08379C21.2873 5.45886 21.498 5.96757 21.498 6.498V10H10.8125C5.0938 10 2 14 2 20H22V6.5C22 5.83696 21.7366 5.20107 21.2678 4.73223C20.7989 4.26339 20.163 4 19.5 4ZM21.5 19.5H2.5074C2.6774 13.8527 5.7549 10.5 10.8125 10.5H21.498V14H21.5V19.5ZM15.1719 13.5C14.8752 13.5 14.5852 13.588 14.3385 13.7528C14.0919 13.9176 13.8996 14.1519 13.7861 14.426C13.6725 14.7001 13.6428 15.0017 13.7007 15.2926C13.7586 15.5836 13.9015 15.8509 14.1112 16.0607C14.321 16.2704 14.5883 16.4133 14.8793 16.4712C15.1702 16.5291 15.4718 16.4993 15.7459 16.3858C16.02 16.2723 16.2543 16.08 16.4191 15.8334C16.5839 15.5867 16.6719 15.2967 16.6719 15C16.6719 14.6022 16.5139 14.2206 16.2326 13.9393C15.9513 13.658 15.5697 13.5 15.1719 13.5ZM15.1719 16C14.9741 16 14.7808 15.9414 14.6163 15.8315C14.4519 15.7216 14.3237 15.5654 14.248 15.3827C14.1723 15.2 14.1525 14.9989 14.1911 14.8049C14.2297 14.6109 14.3249 14.4327 14.4648 14.2929C14.6046 14.153 14.7828 14.0578 14.9768 14.0192C15.1708 13.9806 15.3719 14.0004 15.5546 14.0761C15.7373 14.1518 15.8935 14.28 16.0034 14.4444C16.1133 14.6089 16.1719 14.8022 16.1719 15C16.1716 15.2651 16.0662 15.5193 15.8787 15.7068C15.6912 15.8943 15.437 15.9997 15.1719 16ZM10.9219 13.5C10.6252 13.5 10.3352 13.588 10.0885 13.7528C9.84187 13.9176 9.64961 14.1519 9.53608 14.426C9.42255 14.7001 9.39284 15.0017 9.45072 15.2926C9.5086 15.5836 9.65146 15.8509 9.86124 16.0607C10.071 16.2704 10.3383 16.4133 10.6293 16.4712C10.9202 16.5291 11.2218 16.4993 11.4959 16.3858C11.77 16.2723 12.0043 16.08 12.1691 15.8334C12.3339 15.5867 12.4219 15.2967 12.4219 15C12.4219 14.6022 12.2639 14.2206 11.9826 13.9393C11.7013 13.658 11.3197 13.5 10.9219 13.5ZM10.9219 16C10.7241 16 10.5308 15.9414 10.3663 15.8315C10.2019 15.7216 10.0737 15.5654 9.99802 15.3827C9.92233 15.2 9.90253 14.9989 9.94111 14.8049C9.9797 14.6109 10.0749 14.4327 10.2148 14.2929C10.3546 14.153 10.5328 14.0578 10.7268 14.0192C10.9208 13.9806 11.1219 14.0004 11.3046 14.0761C11.4873 14.1518 11.6435 14.28 11.7534 14.4444C11.8633 14.6089 11.9219 14.8022 11.9219 15C11.9216 15.2651 11.8162 15.5193 11.6287 15.7068C11.4412 15.8943 11.187 15.9997 10.9219 16Z" fill="black"/>
</svg>
