<svg width="24" height="24" viewBox="0 0 24 24" fill="none" xmlns="http://www.w3.org/2000/svg">
<path d="M22.2092 3L21.9092 5.102C20.969 5.1192 20.0576 5.42938 19.3021 5.9893C18.6315 6.50505 17.8092 6.78468 16.9632 6.78468C16.1172 6.78468 15.2949 6.50505 14.6243 5.9893C13.8699 5.41532 12.9482 5.10452 12.0003 5.10452C11.0524 5.10452 10.1307 5.41532 9.3763 5.9893C8.69834 6.4909 7.88155 6.76998 7.0384 6.7881C6.19497 6.76985 5.37789 6.49079 4.6995 5.9893C3.94195 5.43258 3.03129 5.12273 2.0914 5.1019L1.7908 3H1.2856L3 15H21L22.7144 3H22.2092ZM20.5664 14.5H3.4336L2.1636 5.6081C2.97563 5.64337 3.75894 5.91876 4.4144 6.3994C5.17609 6.95991 6.09286 7.27041 7.0384 7.2881C7.98368 7.27071 8.90022 6.96017 9.6614 6.3994C10.332 5.88365 11.1543 5.60402 12.0003 5.60402C12.8463 5.60402 13.6686 5.88365 14.3392 6.3994C15.1009 6.95991 16.0177 7.27041 16.9632 7.2881C17.9087 7.27041 18.8255 6.95991 19.5872 6.3994C20.241 5.91612 21.0248 5.6404 21.8372 5.608L20.5664 14.5ZM3 21H21V20.5H3V21ZM3 18H21V17.5H3V18Z" fill="black"/>
</svg>
