<svg width="24" height="24" viewBox="0 0 24 24" fill="none" xmlns="http://www.w3.org/2000/svg">
<path d="M19.1667 4H7V5.4993H19.166C19.5196 5.4993 19.8587 5.63977 20.1088 5.88981C20.3588 6.13986 20.4993 6.47899 20.4993 6.8326V10H10.8125C5.0938 10 2 14 2 20H22V6.8333C22 6.08186 21.7015 5.3612 21.1701 4.82985C20.6388 4.29851 19.9181 4 19.1667 4ZM20.5 18.5H3.5975C3.9347 14.7457 5.9731 11.5 10.8125 11.5H20.4993V14H20.5V18.5ZM11.07 14C10.8722 14 10.6789 14.0586 10.5144 14.1685C10.35 14.2784 10.2218 14.4346 10.1461 14.6173C10.0704 14.8 10.0506 15.0011 10.0892 15.1951C10.1278 15.3891 10.223 15.5673 10.3629 15.7071C10.5027 15.847 10.6809 15.9422 10.8749 15.9808C11.0689 16.0194 11.27 15.9996 11.4527 15.9239C11.6354 15.8482 11.7916 15.72 11.9015 15.5556C12.0114 15.3911 12.07 15.1978 12.07 15C12.07 14.7348 11.9646 14.4804 11.7771 14.2929C11.5896 14.1054 11.3352 14 11.07 14ZM15.0231 14C14.8253 14 14.632 14.0586 14.4675 14.1685C14.3031 14.2784 14.1749 14.4346 14.0992 14.6173C14.0235 14.8 14.0037 15.0011 14.0423 15.1951C14.0809 15.3891 14.1761 15.5673 14.316 15.7071C14.4558 15.847 14.634 15.9422 14.828 15.9808C15.022 16.0194 15.2231 15.9996 15.4058 15.9239C15.5885 15.8482 15.7447 15.72 15.8546 15.5556C15.9645 15.3911 16.0231 15.1978 16.0231 15C16.0231 14.7348 15.9178 14.4805 15.7303 14.293C15.5428 14.1055 15.2886 14.0001 15.0234 14H15.0231Z" fill="black"/>
</svg>
