<svg width="24" height="24" viewBox="0 0 24 24" fill="none" xmlns="http://www.w3.org/2000/svg">
<path d="M18.7137 3.626C17.9723 3.2154 17.1387 2.99999 16.2912 3H7.6923C6.8419 2.99994 6.00555 3.21677 5.2623 3.63L1 6L3.7025 11.4216L6 10.4305V21H18V10.4305L20.9642 11.4216L23 6L18.7137 3.626ZM20.0782 9.615L18.4537 9.0709L16.5667 8.4409V19.5667H7.4333V8.1491L5.38 9.14L4.3535 9.5182L2.8948 6.5861L5.96 4.8826C6.49016 4.58832 7.08645 4.43371 7.6928 4.4333H16.2917C16.896 4.43369 17.4902 4.5872 18.0191 4.8795L21.2462 6.6662L20.0782 9.615ZM14.2391 8.6841C14.242 8.39583 14.1846 8.11013 14.0706 7.84537C13.9565 7.58061 13.7883 7.34263 13.5768 7.14674C13.3653 6.95085 13.1152 6.80137 12.8425 6.70792C12.5698 6.61447 12.2805 6.5791 11.9933 6.6041C11.6935 6.5815 11.3923 6.62341 11.1101 6.72702C10.8278 6.83062 10.5711 6.99351 10.3571 7.20471C10.1431 7.41591 9.97687 7.67051 9.86958 7.95137C9.76229 8.23223 9.71643 8.53282 9.7351 8.8329C9.7351 8.8329 10.8358 8.8366 10.9922 8.8366C10.9812 8.70034 10.999 8.56329 11.0443 8.43433C11.0897 8.30537 11.1617 8.18739 11.2555 8.08802C11.3494 7.98866 11.4631 7.91013 11.5893 7.85753C11.7155 7.80494 11.8513 7.77944 11.988 7.7827C12.1158 7.77734 12.2433 7.79827 12.3627 7.84417C12.4821 7.89008 12.5908 7.96 12.6821 8.0496C12.7733 8.1392 12.8453 8.24658 12.8934 8.36509C12.9415 8.4836 12.9648 8.61073 12.9618 8.7386C12.9618 9.895 9.8553 11.9737 9.8553 11.9737V13.1569H14.2312V11.9045H11.55C11.9331 11.6265 14.2391 10.1251 14.2391 8.6841Z" fill="black"/>
</svg>
