<svg width="24" height="24" viewBox="0 0 24 24" fill="none" xmlns="http://www.w3.org/2000/svg">
<path d="M18.7019 3.6241C17.9614 3.21472 17.1291 2.99998 16.283 3H7.6965C6.8469 2.99999 6.01132 3.21647 5.2686 3.629L1 6L3.405 10.8433L6 9.8611V21H18V9.8611L20.9283 10.8433L23 6L18.7019 3.6241ZM20.358 9.6334L18.3066 8.9443L17.0333 8.5186V20.0333H6.9667V8.3725L5.6105 8.9787L3.858 9.5847L2.2771 6.396L5.7383 4.4739C6.33751 4.14162 7.01133 3.96709 7.6965 3.9667H16.283C16.9652 3.96715 17.6362 4.14019 18.2336 4.4697L21.7929 6.4366L20.358 9.6334ZM14.1958 8.3217C14.2008 8.04361 14.1482 7.76749 14.0414 7.51068C13.9346 7.25386 13.7759 7.02189 13.5752 6.82932C13.3745 6.63675 13.1362 6.48773 12.8752 6.39162C12.6142 6.2955 12.3361 6.25437 12.0585 6.2708C11.7737 6.25644 11.4891 6.30178 11.2229 6.40391C10.9566 6.50604 10.7147 6.6627 10.5126 6.86385C10.3105 7.06499 10.1527 7.30617 10.0493 7.5719C9.94589 7.83764 9.89919 8.12206 9.9122 8.4069C9.9122 8.4069 10.7304 8.4085 10.8086 8.4085C10.793 8.23914 10.8142 8.0684 10.8708 7.90802C10.9275 7.74764 11.0181 7.60142 11.1366 7.4794C11.2551 7.35739 11.3986 7.26247 11.5573 7.20117C11.7159 7.13987 11.886 7.11365 12.0557 7.1243C12.2192 7.11589 12.3826 7.14174 12.5354 7.20018C12.6883 7.25863 12.8273 7.34838 12.9435 7.46368C13.0596 7.57899 13.1504 7.71729 13.21 7.86974C13.2695 8.02218 13.2966 8.18539 13.2894 8.3489C13.2894 9.6375 9.9724 11.9677 9.9724 11.9677V12.8235H14.2224V11.9335H11.1794C11.371 11.7941 14.1958 9.8331 14.1958 8.3217Z" fill="black"/>
</svg>
