<svg width="24" height="24" viewBox="0 0 24 24" fill="none" xmlns="http://www.w3.org/2000/svg">
<path d="M5 2V16H19V2H5ZM5.9333 2.9333H9.9293C9.00267 3.25056 8.16086 3.77554 7.46827 4.46808C6.77567 5.16062 6.25063 6.00239 5.9333 6.929V2.9333ZM5.9333 15.0667V11.071C6.2506 11.9976 6.77559 12.8393 7.46814 13.5319C8.16068 14.2244 9.00242 14.7494 9.929 15.0667H5.9333ZM6.5186 9C6.51862 7.91589 6.84011 6.85612 7.44243 5.95472C8.04475 5.05333 8.90083 4.35078 9.90243 3.93592C10.904 3.52106 12.0061 3.41252 13.0694 3.62404C14.1327 3.83555 15.1094 4.35761 15.876 5.1242C16.6425 5.89079 17.1646 6.86748 17.3761 7.93077C17.5876 8.99405 17.479 10.0962 17.0641 11.0978C16.6493 12.0994 15.9467 12.9554 15.0453 13.5577C14.1439 14.16 13.0841 14.4815 12 14.4815C10.5467 14.4799 9.15345 13.9018 8.12584 12.8742C7.09823 11.8466 6.52021 10.4533 6.5186 9ZM18.0667 15.0667H14.071C14.9976 14.7494 15.8393 14.2244 16.5319 13.5319C17.2244 12.8393 17.7494 11.9976 18.0667 11.071V15.0667ZM18.0667 6.929C17.7494 6.00239 17.2243 5.16062 16.5317 4.46808C15.8391 3.77554 14.9973 3.25056 14.0707 2.9333H18.0667V6.929ZM5 22H19V21.0667H5V22ZM5 19H19V18.0667H5V19Z" fill="black"/>
</svg>
