<svg width="24" height="24" viewBox="0 0 24 24" fill="none" xmlns="http://www.w3.org/2000/svg">
<path d="M3 3V21H21V3H3ZM10.7075 20.3911L20.3911 10.7076C20.6054 12.0278 20.503 13.38 20.0921 14.6528C19.6813 15.9256 18.9739 17.0825 18.0281 18.0282C17.0824 18.9739 15.9255 19.6814 14.6527 20.0922C13.3799 20.503 12.0277 20.6055 10.7075 20.3911ZM10.1106 20.2811C8.63523 19.943 7.27725 19.2161 6.1776 18.176L18.1759 6.1776C19.2161 7.27721 19.9429 8.63521 20.281 10.1106L10.1106 20.2811ZM5.8241 17.8224C4.78393 16.7228 4.05708 15.3648 3.719 13.8894L13.889 3.7194C15.3644 4.05747 16.7224 4.78429 17.8221 5.8244L5.8241 17.8224ZM13.2925 3.6089L3.6089 13.2924C3.39456 11.9722 3.49703 10.62 3.90786 9.34723C4.3187 8.07444 5.02613 6.9175 5.97186 5.97178C6.91759 5.02607 8.07453 4.31864 9.34733 3.90782C10.6201 3.497 11.9723 3.39454 13.2925 3.6089ZM3.5 3.5H9.063C7.77542 3.94621 6.60583 4.67867 5.64225 5.64225C4.67867 6.60583 3.94621 7.77542 3.5 9.063V3.5ZM3.5 20.5V14.937C3.94621 16.2246 4.67867 17.3942 5.64225 18.3578C6.60583 19.3213 7.77542 20.0538 9.063 20.5H3.5ZM20.5 20.5H14.937C16.2246 20.0538 17.3942 19.3213 18.3578 18.3578C19.3213 17.3942 20.0538 16.2246 20.5 14.937V20.5ZM14.937 3.5H20.5V9.063C20.0538 7.77542 19.3213 6.60583 18.3578 5.64225C17.3942 4.67867 16.2246 3.94621 14.937 3.5Z" fill="black"/>
</svg>
