<svg width="24" height="24" viewBox="0 0 24 24" fill="none" xmlns="http://www.w3.org/2000/svg">
<path d="M20.4476 10.5091L11.4083 7H7.7914V8.02C7.7914 8.28522 7.68604 8.53957 7.49851 8.72711C7.31097 8.91464 7.05662 9.02 6.7914 9.02H6.78L5.4452 9.005C5.3117 9.0035 5.17985 8.97529 5.05742 8.92206C4.93498 8.86882 4.82444 8.79161 4.7323 8.695L3.6146 7.5207L1 7.5382V18H16L23 17V14.238C23 13.4316 22.7563 12.644 22.3008 11.9786C21.8453 11.3132 21.1993 10.8009 20.4476 10.5091ZM21.15 15.3955L15.8685 16.15H2.85V9.4L3.3929 9.97C3.65592 10.2448 3.97103 10.4646 4.31985 10.6164C4.66866 10.7682 5.04421 10.849 5.4246 10.8542L6.7916 10.8695C7.4023 10.8687 7.99667 10.6722 8.48742 10.3087C8.97818 9.94522 9.33945 9.43396 9.5182 8.85H11.0619L11.0679 8.8523L10.6387 9.936C10.5935 10.0466 10.5708 10.1652 10.5719 10.2847C10.573 10.4042 10.5978 10.5223 10.6451 10.6321C10.6923 10.7419 10.7609 10.8412 10.847 10.9242C10.933 11.0071 11.0347 11.0722 11.1461 11.1154C11.2575 11.1587 11.3764 11.1793 11.4959 11.1761C11.6154 11.1729 11.733 11.146 11.842 11.0968C11.9509 11.0477 12.049 10.9773 12.1304 10.8898C12.2119 10.8024 12.2751 10.6996 12.3164 10.5874L12.7456 9.5036L14.1476 10.0479L13.7896 10.9702C13.7444 11.0808 13.7217 11.1994 13.7228 11.3189C13.7239 11.4384 13.7487 11.5565 13.796 11.6663C13.8432 11.7761 13.9118 11.8754 13.9979 11.9584C14.0839 12.0413 14.1856 12.1064 14.297 12.1496C14.4084 12.1929 14.5273 12.2135 14.6468 12.2103C14.7663 12.2071 14.8839 12.1802 14.9929 12.131C15.1018 12.0819 15.1999 12.0115 15.2813 11.924C15.3628 11.8366 15.426 11.7338 15.4673 11.6216L15.8253 10.6992L19.7781 12.2337C20.1832 12.389 20.5315 12.6639 20.7766 13.0219C21.0216 13.38 21.1519 13.8041 21.15 14.238V15.3955Z" fill="black"/>
</svg>
