<svg width="24" height="24" viewBox="0 0 24 24" fill="none" xmlns="http://www.w3.org/2000/svg">
<path d="M20.8044 11.4464L16.4731 10.3544L15.6531 9.8113L14.6675 11.3C14.5357 11.499 14.3302 11.6376 14.0962 11.6851C13.8623 11.7326 13.619 11.6853 13.4199 11.5534C13.2209 11.4216 13.0824 11.2161 13.0348 10.9822C12.9873 10.7482 13.0347 10.5049 13.1665 10.3059L14.1521 8.8174L13.3394 8.2791L12.3071 9.8371C12.1753 10.0361 11.9698 10.1746 11.7358 10.2222C11.5019 10.2697 11.2586 10.2223 11.0596 10.0905C10.8606 9.95867 10.7221 9.75318 10.6745 9.51923C10.627 9.28528 10.6744 9.04203 10.8062 8.843L11.8384 7.285L11.4083 7H9.9683L7.8882 8.5236C7.33458 8.92913 6.66978 9.15488 5.98369 9.17033C5.29761 9.18578 4.62332 8.99019 4.052 8.61L2.4161 7.5207L1 7.5382V17H7V15.6666L10.6562 17H23V14.2642C23 13.6171 22.784 12.9885 22.3863 12.4781C21.9885 11.9677 21.4318 11.6046 20.8044 11.4464Z" fill="black"/>
</svg>
