<svg width="24" height="24" viewBox="0 0 24 24" fill="none" xmlns="http://www.w3.org/2000/svg">
<path d="M20.3815 10.8871L19.8334 10.1577V4H18.3334V9.5733L16.7034 10.4719C15.5825 11.084 14.6471 11.9867 13.9954 13.0852C13.3438 14.1836 12.9999 15.4372 13 16.7144V17.5H11V16.7144C11.0001 15.4372 10.6562 14.1835 10.0045 13.0851C9.35277 11.9867 8.41729 11.084 7.2963 10.4719L5.6663 9.5733V4H4.1663V10.1577L3.6181 10.8871C2.56785 12.2809 1.99987 13.9787 2 15.7239V19H22V15.7239C22 13.9787 21.4319 12.2809 20.3815 10.8871Z" fill="black"/>
</svg>
