<svg width="24" height="24" viewBox="0 0 24 24" fill="none" xmlns="http://www.w3.org/2000/svg">
<path d="M3 3V21H21V3H3ZM19.2 10.4994C18.907 9.09814 18.2118 7.81271 17.1996 6.80044C16.1873 5.78817 14.9019 5.09299 13.5006 4.8H19.2V10.4994ZM10.4994 4.8C9.09814 5.09299 7.81271 5.78817 6.80044 6.80044C5.78817 7.81271 5.09299 9.09814 4.8 10.4994V4.8H10.4994ZM4.8 13.5006C5.09305 14.9019 5.78832 16.1874 6.8007 17.1997C7.81308 18.212 9.09864 18.9071 10.5 19.2H4.8V13.5006ZM13.5 19.2C14.9014 18.9071 16.1869 18.212 17.1993 17.1997C18.2117 16.1874 18.907 14.9019 19.2 13.5006V19.2H13.5Z" fill="black"/>
</svg>
