<svg width="24" height="24" viewBox="0 0 24 24" fill="none" xmlns="http://www.w3.org/2000/svg">
<path d="M19 4H7V6H19C19.2652 6 19.5196 6.10536 19.7071 6.29289C19.8946 6.48043 20 6.73478 20 7V10H10.8125C5.0938 10 2 14 2 20H22V7C22 6.20435 21.6839 5.44129 21.1213 4.87868C20.5587 4.31607 19.7956 4 19 4ZM20 18H4.1426C4.5632 15.1921 6.0826 12 10.8126 12H20V18ZM11.9537 17.2093L13.125 16.038L14.2963 17.2093L15.3343 16.1713L14.163 15L15.3343 13.8287L14.2963 12.7906L13.125 13.962L11.9537 12.7906L10.9157 13.8287L12.087 15L10.9157 16.1713L11.9537 17.2093Z" fill="black"/>
</svg>
