<svg width="24" height="24" viewBox="0 0 24 24" fill="none" xmlns="http://www.w3.org/2000/svg">
<path d="M19.5 4H7V4.498H19.498C20.0284 4.498 20.5371 4.70871 20.9122 5.08379C21.2873 5.45886 21.498 5.96757 21.498 6.498V10H10.8125C5.0938 10 2 14 2 20H22V6.5C22 5.83696 21.7366 5.20107 21.2678 4.73223C20.7989 4.26339 20.163 4 19.5 4ZM21.5 19.5H2.5074C2.6774 13.8527 5.7549 10.5 10.8125 10.5H21.498V14H21.5V19.5ZM13.0469 13.5C12.7502 13.5 12.4602 13.588 12.2135 13.7528C11.9669 13.9176 11.7746 14.1519 11.6611 14.426C11.5475 14.7001 11.5178 15.0017 11.5757 15.2926C11.6336 15.5836 11.7765 15.8509 11.9862 16.0607C12.196 16.2704 12.4633 16.4133 12.7543 16.4712C13.0452 16.5291 13.3468 16.4993 13.6209 16.3858C13.895 16.2723 14.1293 16.08 14.2941 15.8334C14.4589 15.5867 14.5469 15.2967 14.5469 15C14.5469 14.6022 14.3889 14.2206 14.1076 13.9393C13.8263 13.658 13.4447 13.5 13.0469 13.5ZM13.0469 16C12.8491 16 12.6558 15.9414 12.4913 15.8315C12.3269 15.7216 12.1987 15.5654 12.123 15.3827C12.0473 15.2 12.0275 14.9989 12.0661 14.8049C12.1047 14.6109 12.1999 14.4327 12.3398 14.2929C12.4796 14.153 12.6578 14.0578 12.8518 14.0192C13.0458 13.9806 13.2469 14.0004 13.4296 14.0761C13.6123 14.1518 13.7685 14.28 13.8784 14.4444C13.9883 14.6089 14.0469 14.8022 14.0469 15C14.0466 15.2651 13.9412 15.5193 13.7537 15.7068C13.5662 15.8943 13.312 15.9997 13.0469 16Z" fill="black"/>
</svg>
