<svg width="24" height="24" viewBox="0 0 24 24" fill="none" xmlns="http://www.w3.org/2000/svg">
<path d="M5 3V17H19V3H5ZM5.5 3.5H9.4121C8.52883 3.85278 7.72654 4.38152 7.05401 5.05407C6.38148 5.72662 5.85276 6.52892 5.5 7.4122V3.5ZM5.5 16.5V12.5878C5.85276 13.4711 6.38148 14.2734 7.05401 14.9459C7.72654 15.6185 8.52883 16.1472 9.4121 16.5H5.5ZM18.5 16.5H14.5879C15.4712 16.1472 16.2735 15.6185 16.946 14.9459C17.6185 14.2734 18.1472 13.4711 18.5 12.5878V16.5ZM12 16.5C10.7144 16.5 9.45771 16.1188 8.38879 15.4046C7.31987 14.6903 6.48675 13.6752 5.99478 12.4874C5.50281 11.2997 5.37409 9.99279 5.6249 8.73191C5.8757 7.47104 6.49476 6.31285 7.40381 5.40381C8.31285 4.49476 9.47104 3.8757 10.7319 3.6249C11.9928 3.37409 13.2997 3.50281 14.4874 3.99478C15.6752 4.48675 16.6903 5.31987 17.4046 6.38879C18.1188 7.45771 18.5 8.71442 18.5 10C18.498 11.7233 17.8126 13.3755 16.594 14.594C15.3755 15.8126 13.7233 16.498 12 16.5ZM18.5 7.4122C18.1472 6.52892 17.6185 5.72662 16.946 5.05407C16.2735 4.38152 15.4712 3.85278 14.5879 3.5H18.5V7.4122ZM5 21H19V20.5H5V21Z" fill="black"/>
</svg>
