<svg width="24" height="24" viewBox="0 0 24 24" fill="none" xmlns="http://www.w3.org/2000/svg">
<path d="M11.8617 9.86L11.1638 12.5722H12.8362L12.1383 9.86H11.8617ZM12 2C10.0222 2 8.08879 2.58649 6.4443 3.6853C4.79981 4.78412 3.51809 6.3459 2.76121 8.17317C2.00433 10.0004 1.8063 12.0111 2.19215 13.9509C2.578 15.8907 3.53041 17.6725 4.92894 19.0711C6.32746 20.4696 8.10929 21.422 10.0491 21.8079C11.9889 22.1937 13.9996 21.9957 15.8268 21.2388C17.6541 20.4819 19.2159 19.2002 20.3147 17.5557C21.4135 15.9112 22 13.9778 22 12C21.9971 9.34874 20.9426 6.8069 19.0678 4.93218C17.1931 3.05745 14.6513 2.00294 12 2ZM13.461 15L13.0569 13.43H10.9431L10.539 15H9.3416L11.0209 9H12.9791L14.6584 15H13.461Z" fill="black"/>
</svg>
