<svg width="24" height="24" viewBox="0 0 24 24" fill="none" xmlns="http://www.w3.org/2000/svg">
<path d="M10.3594 10.8723C10.1364 10.8723 9.91833 10.9384 9.73288 11.0624C9.54743 11.1863 9.40289 11.3624 9.31754 11.5684C9.23219 11.7745 9.20986 12.0013 9.25337 12.22C9.29688 12.4388 9.40428 12.6397 9.562 12.7974C9.71971 12.9551 9.92064 13.0625 10.1394 13.106C10.3581 13.1495 10.5849 13.1272 10.791 13.0419C10.997 12.9565 11.1731 12.812 11.297 12.6265C11.421 12.4411 11.4871 12.223 11.4871 12C11.4871 11.7009 11.3683 11.4141 11.1568 11.2026C10.9453 10.9911 10.6585 10.8723 10.3594 10.8723ZM13.6406 10.8723C13.4176 10.8723 13.1995 10.9384 13.0141 11.0624C12.8286 11.1863 12.6841 11.3624 12.5987 11.5684C12.5134 11.7745 12.4911 12.0013 12.5346 12.22C12.5781 12.4388 12.6855 12.6397 12.8432 12.7974C13.0009 12.9551 13.2018 13.0625 13.4206 13.106C13.6393 13.1495 13.8661 13.1272 14.0722 13.0419C14.2782 12.9565 14.4543 12.812 14.5782 12.6265C14.7022 12.4411 14.7683 12.223 14.7683 12C14.7683 11.8519 14.7391 11.7053 14.6825 11.5684C14.6258 11.4316 14.5427 11.3073 14.438 11.2026C14.3333 11.0979 14.209 11.0148 14.0722 10.9581C13.9353 10.9015 13.7887 10.8723 13.6406 10.8723ZM3 3V21H21V3H3ZM4.8 4.8H11.2137C9.57423 4.97928 8.04501 5.71263 6.87882 6.87882C5.71263 8.04501 4.97928 9.57423 4.8 11.2137V4.8ZM4.8 19.2V12.7863C4.9793 14.4258 5.71265 15.955 6.87884 17.1212C8.04503 18.2873 9.57424 19.0207 11.2137 19.2H4.8ZM6.5556 12C6.55558 10.9232 6.87487 9.87057 7.4731 8.97523C8.07132 8.07989 8.92162 7.38205 9.91645 6.96996C10.9113 6.55787 12.006 6.45004 13.0621 6.6601C14.1182 6.87016 15.0883 7.38868 15.8497 8.15009C16.6112 8.9115 17.1297 9.8816 17.3398 10.9377C17.5499 11.9938 17.4421 13.0885 17.03 14.0834C16.6179 15.0782 15.9201 15.9285 15.0248 16.5267C14.1294 17.125 13.0768 17.4443 12 17.4443C10.5566 17.4427 9.17274 16.8685 8.15208 15.8479C7.13141 14.8272 6.55727 13.4434 6.5556 12ZM19.2 19.2H12.7863C14.4258 19.0207 15.955 18.2873 17.1212 17.1212C18.2873 15.955 19.0207 14.4258 19.2 12.7863V19.2ZM19.2 11.2137C19.0207 9.57423 18.2874 8.04501 17.1212 6.87882C15.955 5.71263 14.4258 4.97928 12.7863 4.8H19.2V11.2137Z" fill="black"/>
</svg>
