<svg width="24" height="24" viewBox="0 0 24 24" fill="none" xmlns="http://www.w3.org/2000/svg">
<path d="M11.4083 7.3335L10.4083 5.3335H7.1247V7.2114C7.12319 7.75242 7.04988 8.29086 6.9067 8.8126C6.8335 9.06673 6.67898 9.28985 6.46681 9.44773C6.25465 9.60562 5.99655 9.68957 5.7321 9.6867H5.72C5.6806 9.6867 5.4244 9.673 5.3862 9.6667C5.11328 9.64873 4.85397 9.54096 4.6487 9.3602C4.43696 9.17361 4.23848 8.97248 4.0547 8.7583L3.5264 8.1409L3.31 7.8588L1 7.8717V18.6668H15L19.819 17.7616C20.7062 17.5892 21.5068 17.1163 22.0861 16.4225C22.6653 15.7287 22.9877 14.8565 22.999 13.9528C23 13.9367 23 13.8049 23 13.7887V11.8335L11.4083 7.3335ZM21.5 13.924C21.493 14.484 21.2938 15.0245 20.9357 15.4552C20.5777 15.8858 20.0825 16.1803 19.5332 16.2893L14.86 17.1672H2.5V9.3635L2.5991 9.3625L2.915 9.7336L2.8892 9.6994C3.12575 9.98353 3.38489 10.2481 3.6641 10.4904L3.6562 10.4856C4.09559 10.8694 4.64574 11.1035 5.227 11.1538C5.386 11.1682 5.6655 11.1867 5.7202 11.1867C6.29185 11.1921 6.85058 11.0166 7.31645 10.6853C7.78233 10.3539 8.13149 9.88376 8.314 9.342C8.55391 8.65837 8.65918 7.93475 8.624 7.2111V6.8332H9.481L10.3257 8.5217L11.2339 8.8743L10.8018 9.9992C10.7321 10.1784 10.7365 10.378 10.814 10.554C10.8914 10.73 11.0356 10.868 11.2149 10.9376C11.3941 11.0073 11.5936 11.0029 11.7696 10.9255C11.9456 10.848 12.0836 10.7038 12.1533 10.5246L12.5857 9.3991L14.3223 10.0731L13.9523 11.0331C13.9167 11.1221 13.8991 11.2172 13.9004 11.313C13.9018 11.4089 13.9222 11.5035 13.9603 11.5914C13.9985 11.6793 14.0537 11.7587 14.1228 11.8252C14.1919 11.8916 14.2734 11.9437 14.3627 11.9784C14.4521 12.0131 14.5474 12.0298 14.6432 12.0275C14.739 12.0251 14.8334 12.0038 14.9209 11.9648C15.0084 11.9257 15.0873 11.8697 15.1531 11.8C15.2188 11.7302 15.2701 11.6482 15.3039 11.5585L15.6739 10.5976L21.5 12.8596V13.924Z" fill="black"/>
</svg>
