<svg width="24" height="24" viewBox="0 0 24 24" fill="none" xmlns="http://www.w3.org/2000/svg">
<path d="M21.3506 17H22V14.4429C22 13.6488 21.7636 12.8726 21.321 12.2133C20.8784 11.554 20.2495 11.0414 19.5145 10.7407L12 7.6666V2H9L6.2917 3H3V15C3 15.5304 3.21071 16.0391 3.58579 16.4142C3.96086 16.7893 4.46957 17 5 17H5.5V19.9727H3V20.9219H19.0811C19.5918 20.9227 20.0964 20.8105 20.5586 20.5933C21.0209 20.3762 21.4294 20.0595 21.7549 19.666L22.6719 18.5615L21.3506 17ZM3.95 15V3.95H6.4615L9.1698 2.95H11.0498V5.4375H9.2861C9.15349 5.4375 9.02631 5.49018 8.93255 5.58395C8.83878 5.67771 8.7861 5.80489 8.7861 5.9375C8.7861 6.07011 8.83878 6.19729 8.93255 6.29105C9.02631 6.38482 9.15349 6.4375 9.2861 6.4375H11.05V8.0526L9.9106 9.1416C9.81476 9.2333 9.75928 9.35931 9.75636 9.49192C9.75343 9.62453 9.8033 9.75286 9.895 9.8487C9.9867 9.94454 10.1127 10 10.2453 10.0029C10.3779 10.0059 10.5063 9.956 10.6021 9.8643L11.8792 8.6436L13.6272 9.3587L13.0127 10.86C12.9625 10.9828 12.963 11.1205 13.0143 11.2428C13.0656 11.3651 13.1634 11.4621 13.2861 11.5124C13.4089 11.5626 13.5466 11.562 13.669 11.5107C13.7913 11.4594 13.8883 11.3617 13.9385 11.2389L14.553 9.737L16.6794 10.607L16.105 12.0124C16.0801 12.0732 16.0675 12.1383 16.0678 12.204C16.0681 12.2697 16.0813 12.3347 16.1068 12.3953C16.1322 12.4559 16.1693 12.5109 16.216 12.5571C16.2627 12.6033 16.3181 12.6399 16.3789 12.6647C16.4389 12.6893 16.5031 12.7019 16.5679 12.7018C16.6671 12.7019 16.7641 12.6724 16.8465 12.6172C16.929 12.562 16.9931 12.4836 17.0308 12.3918L17.6052 10.9863L19.1552 11.6202C19.7164 11.8482 20.1966 12.2388 20.5343 12.7418C20.8719 13.2447 21.0515 13.8371 21.05 14.4429V16.05H5C4.72162 16.0497 4.45473 15.939 4.25789 15.7421C4.06104 15.5453 3.95032 15.2784 3.95 15ZM6.5 17H14.5V19.9727H6.5V17ZM21.0239 19.06C20.7874 19.346 20.4906 19.5763 20.1548 19.7341C19.8189 19.892 19.4522 19.9736 19.0811 19.9731H15.5V17H20.106L21.4326 18.5674L21.0239 19.06Z" fill="black"/>
</svg>
