<svg width="24" height="24" viewBox="0 0 24 24" fill="none" xmlns="http://www.w3.org/2000/svg">
<path d="M7.0791 8.6583C6.82994 8.16001 6.44695 7.74094 5.97304 7.44804C5.49912 7.15515 4.95302 7.00001 4.3959 7H1V17H2.1459C2.70303 17 3.24914 16.8448 3.72305 16.5519C4.19697 16.259 4.57995 15.8399 4.8291 15.3416L7.625 9.75L7.0791 8.6583ZM21.8541 7C21.297 7.00001 20.7509 7.15515 20.277 7.44804C19.8031 7.74094 19.4201 8.16001 19.1709 8.6583L16.375 14.25L16.9209 15.3416C17.17 15.8399 17.553 16.259 18.0269 16.5519C18.5009 16.8448 19.047 17 19.6041 17H23V7H21.8541ZM16.1621 8.8867C15.8786 8.31977 15.4429 7.84299 14.9037 7.50976C14.3645 7.17653 13.7432 7.00002 13.1094 7.00002C12.4755 7.00002 11.8542 7.17653 11.315 7.50976C10.7758 7.84299 10.3401 8.31977 10.0566 8.8867L7.3906 14.2188L7.8379 15.1133C8.12137 15.6802 8.55711 16.157 9.0963 16.4902C9.63548 16.8235 10.2568 17 10.8906 17C11.5245 17 12.1458 16.8235 12.685 16.4902C13.2242 16.157 13.6599 15.6802 13.9434 15.1133L16.6094 9.7812L16.1621 8.8867Z" fill="black"/>
</svg>
