<svg width="24" height="24" viewBox="0 0 24 24" fill="none" xmlns="http://www.w3.org/2000/svg">
<path d="M12 2C10.0222 2 8.08879 2.58649 6.4443 3.6853C4.79981 4.78412 3.51809 6.3459 2.76121 8.17317C2.00433 10.0004 1.8063 12.0111 2.19215 13.9509C2.578 15.8907 3.53041 17.6725 4.92894 19.0711C6.32746 20.4696 8.10929 21.422 10.0491 21.8079C11.9889 22.1937 13.9996 21.9957 15.8268 21.2388C17.6541 20.4819 19.2159 19.2002 20.3147 17.5557C21.4135 15.9112 22 13.9778 22 12C21.9971 9.34874 20.9426 6.8069 19.0678 4.93218C17.1931 3.05745 14.6513 2.00294 12 2ZM12 20C10.4178 20 8.87104 19.5308 7.55544 18.6518C6.23985 17.7727 5.21447 16.5233 4.60897 15.0615C4.00347 13.5997 3.84504 11.9911 4.15372 10.4393C4.4624 8.88743 5.22433 7.46197 6.34315 6.34315C7.46197 5.22433 8.88743 4.4624 10.4393 4.15372C11.9911 3.84504 13.5997 4.00346 15.0615 4.60896C16.5233 5.21447 17.7727 6.23984 18.6518 7.55544C19.5308 8.87103 20 10.4177 20 12C19.9976 14.121 19.154 16.1544 17.6542 17.6542C16.1544 19.154 14.121 19.9976 12 20ZM12.7715 9H9.79V15H11.29V13.1705H12.7712C13.2494 13.1705 13.708 12.9805 14.0461 12.6424C14.3842 12.3043 14.5742 11.8457 14.5742 11.3675V10.8029C14.5742 10.3248 14.3842 9.86626 14.0462 9.52816C13.7081 9.19006 13.2496 9.00008 12.7715 9ZM13.0745 11.3675C13.0744 11.4478 13.0424 11.5248 12.9856 11.5816C12.9288 11.6384 12.8518 11.6704 12.7715 11.6705H11.29V10.5H12.7712C12.8515 10.5001 12.9285 10.532 12.9853 10.5888C13.0421 10.6456 13.0741 10.7226 13.0742 10.8029L13.0745 11.3675Z" fill="black"/>
</svg>
