<svg width="24" height="24" viewBox="0 0 24 24" fill="none" xmlns="http://www.w3.org/2000/svg">
<path d="M20.8223 10.6955L10.7417 7H7.7917V8.02C7.79144 8.28514 7.68599 8.53934 7.49851 8.72681C7.31104 8.91429 7.05684 9.01974 6.7917 9.02H6.7827L5.3239 9.0072C5.01782 9.00475 4.71535 8.94077 4.43449 8.81907C4.15363 8.69737 3.90011 8.52044 3.689 8.2988L2.948 7.5207L1 7.5382V17.3333H16L23 16.3333V13.8218C23 13.1406 22.7913 12.4758 22.4019 11.9168C22.0126 11.3578 21.4613 10.9316 20.8223 10.6955ZM22 15.4658L15.9287 16.333H2V8.5293L2.5229 8.5244L2.9648 8.9883C3.26887 9.3064 3.63355 9.5604 4.03734 9.73533C4.44114 9.91025 4.87587 10.0026 5.3159 10.0068L6.7739 10.0195C7.0378 10.021 7.2994 9.97044 7.54372 9.87069C7.78805 9.77093 8.01028 9.62395 8.19771 9.43816C8.38513 9.25237 8.53406 9.03143 8.63595 8.78799C8.73784 8.54455 8.7907 8.2834 8.7915 8.0195V8H10.564L11.4182 8.3131L10.7661 10.03C10.719 10.1541 10.7232 10.2917 10.7775 10.4128C10.8319 10.5338 10.9321 10.6283 11.0561 10.6755C11.113 10.6966 11.1731 10.7075 11.2338 10.7077C11.3352 10.7077 11.4342 10.6769 11.5176 10.6193C11.6011 10.5617 11.6651 10.4802 11.7011 10.3854L12.3576 8.6569L13.9401 9.2369L13.3266 10.8531C13.3032 10.9145 13.2921 10.98 13.2941 11.0456C13.296 11.1113 13.3108 11.176 13.3378 11.236C13.3647 11.2959 13.4032 11.35 13.451 11.395C13.4989 11.4401 13.5551 11.4753 13.6166 11.4986C13.6733 11.5197 13.7334 11.5306 13.7939 11.5308C13.8953 11.5308 13.9942 11.5 14.0776 11.4424C14.1611 11.3849 14.2251 11.3033 14.2611 11.2086L14.8789 9.581L16.4616 10.161L15.8866 11.6753C15.8632 11.7367 15.8521 11.8022 15.8541 11.8679C15.856 11.9335 15.8708 11.9982 15.8978 12.0582C15.9247 12.1181 15.9632 12.1722 16.011 12.2172C16.0589 12.2623 16.1151 12.2975 16.1766 12.3208C16.2333 12.3419 16.2933 12.3528 16.3538 12.353C16.4552 12.353 16.5542 12.3222 16.6376 12.2646C16.7211 12.207 16.7851 12.1255 16.8211 12.0307L17.4 10.5056L20.478 11.6338C20.9241 11.8006 21.3088 12.0994 21.5807 12.4904C21.8527 12.8814 21.9989 13.346 22 13.8223V15.4658Z" fill="black"/>
</svg>
