<svg width="24" height="24" viewBox="0 0 24 24" fill="none" xmlns="http://www.w3.org/2000/svg">
<path d="M18.7137 3.626C17.9723 3.2154 17.1387 2.99999 16.2912 3H7.6924C6.842 2.99994 6.00565 3.21677 5.2624 3.63L1 6L3.7025 11.4216L6 10.4305V19H7.155C7.71341 18.9999 8.26165 19.1494 8.74273 19.4329C9.22381 19.7164 9.62017 20.1236 9.8906 20.6122L10.6667 22H13.3334L14.1094 20.6122C14.3799 20.1237 14.7762 19.7165 15.2573 19.433C15.7384 19.1494 16.2866 18.9999 16.845 19H18V10.4305L20.9642 11.4216L23 6L18.7137 3.626ZM13.8513 4.5C13.7779 4.93796 13.5517 5.33573 13.2127 5.62262C12.8738 5.90952 12.4441 6.06695 12 6.06695C11.5559 6.06695 11.1262 5.90952 10.7873 5.62262C10.4483 5.33573 10.2221 4.93796 10.1487 4.5H13.8513ZM20.0684 9.541L16.5 8.3477V17.5127C15.7342 17.5701 14.9948 17.8171 14.3483 18.2316C13.7019 18.646 13.1687 19.2148 12.7969 19.8867L12.4536 20.5H11.5464L11.2 19.88C10.8279 19.2096 10.2949 18.6422 9.64905 18.229C9.00317 17.8157 8.26465 17.5696 7.5 17.5128V8.1494L4.4116 9.4824L2.9816 6.6143L5.9917 4.94C6.51216 4.65159 7.09737 4.50018 7.6924 4.5H8.7C8.77762 5.32147 9.15884 6.08446 9.76912 6.63979C10.3794 7.19512 11.1749 7.50287 12 7.50287C12.8251 7.50287 13.6206 7.19512 14.2309 6.63979C14.8412 6.08446 15.2224 5.32147 15.3 4.5H16.2913C16.8849 4.50045 17.4686 4.65131 17.9881 4.9385L21.1409 6.6846L20.0684 9.541Z" fill="black"/>
</svg>
