<svg width="24" height="24" viewBox="0 0 24 24" fill="none" xmlns="http://www.w3.org/2000/svg">
<path d="M12 11C11.8022 11 11.6089 11.0586 11.4444 11.1685C11.28 11.2784 11.1518 11.4346 11.0761 11.6173C11.0004 11.8 10.9806 12.0011 11.0192 12.1951C11.0578 12.3891 11.153 12.5673 11.2929 12.7071C11.4327 12.847 11.6109 12.9422 11.8049 12.9808C11.9989 13.0194 12.2 12.9996 12.3827 12.9239C12.5654 12.8482 12.7216 12.72 12.8315 12.5556C12.9414 12.3911 13 12.1978 13 12C13 11.7348 12.8946 11.4804 12.7071 11.2929C12.5196 11.1054 12.2652 11 12 11ZM15.5676 11C15.3698 11 15.1765 11.0586 15.012 11.1685C14.8476 11.2784 14.7194 11.4346 14.6437 11.6173C14.568 11.8 14.5482 12.0011 14.5868 12.1951C14.6254 12.3891 14.7206 12.5673 14.8605 12.7071C15.0003 12.847 15.1785 12.9422 15.3725 12.9808C15.5665 13.0194 15.7676 12.9996 15.9503 12.9239C16.133 12.8482 16.2892 12.72 16.3991 12.5556C16.509 12.3911 16.5676 12.1978 16.5676 12C16.5676 11.7348 16.4622 11.4804 16.2747 11.2929C16.0872 11.1054 15.8328 11 15.5676 11ZM8.5261 11C8.32832 11 8.13498 11.0586 7.97053 11.1685C7.80608 11.2784 7.67791 11.4346 7.60222 11.6173C7.52653 11.8 7.50673 12.0011 7.54531 12.1951C7.5839 12.3891 7.67914 12.5673 7.81899 12.7071C7.95885 12.847 8.13703 12.9422 8.33101 12.9808C8.52499 13.0194 8.72606 12.9996 8.90878 12.9239C9.09151 12.8482 9.24769 12.72 9.35757 12.5556C9.46745 12.3911 9.5261 12.1978 9.5261 12C9.5261 11.7348 9.42074 11.4804 9.23321 11.2929C9.04567 11.1054 8.79132 11 8.5261 11ZM3 3V21H21V3H3ZM3.9333 3.9333H9.6152C8.26989 4.33224 7.04552 5.06088 6.05327 6.05308C5.06102 7.04528 4.33231 8.26961 3.9333 9.6149V3.9333ZM3.9333 20.0667V14.3851C4.3323 15.7304 5.06097 16.9546 6.05316 17.9468C7.04536 18.939 8.26965 19.6677 9.6149 20.0667H3.9333ZM4.5186 12C4.5186 10.5203 4.95738 9.07387 5.77944 7.84356C6.60151 6.61325 7.76995 5.65434 9.13699 5.08809C10.504 4.52184 12.0083 4.37368 13.4595 4.66235C14.9108 4.95102 16.2439 5.66356 17.2901 6.70985C18.3364 7.75614 19.049 9.0892 19.3376 10.5405C19.6263 11.9917 19.4782 13.496 18.9119 14.863C18.3457 16.2301 17.3868 17.3985 16.1564 18.2206C14.9261 19.0426 13.4797 19.4814 12 19.4814C10.0165 19.4791 8.11491 18.6902 6.71237 17.2876C5.30982 15.8851 4.52088 13.9835 4.5186 12ZM20.0667 20.0667H14.385C15.7303 19.6677 16.9546 18.939 17.9468 17.9468C18.939 16.9547 19.6677 15.7304 20.0667 14.3851V20.0667ZM20.0667 9.6149C19.6677 8.26961 18.939 7.04528 17.9467 6.05308C16.9545 5.06088 15.7301 4.33224 14.3848 3.9333H20.0667V9.6149Z" fill="black"/>
</svg>
