<svg width="24" height="24" viewBox="0 0 24 24" fill="none" xmlns="http://www.w3.org/2000/svg">
<path d="M18.7255 3.628C17.9832 3.21611 17.1483 2.99999 16.2994 3H7.6882C6.83724 3 6.00037 3.21719 5.2568 3.631L1 6L4 12L6 11V21H18V11L21 12L23 6L18.7255 3.628ZM13.3173 4.9L12.0617 6.2831C12.0539 6.2917 12.0444 6.29856 12.0337 6.30326C12.0231 6.30796 12.0116 6.31039 12 6.31039C11.9884 6.31039 11.9769 6.30796 11.9663 6.30326C11.9556 6.29856 11.9461 6.2917 11.9383 6.2831L10.6827 4.9H13.3173ZM19.7983 9.5967L16.1 8.3639V19.1H7.9V7.9257L4.85 9.4509L3.5124 6.7762L6.1807 5.2912C6.64185 5.03497 7.16064 4.90034 7.6882 4.9H8.1166L10.5314 7.56C10.7173 7.76477 10.944 7.92839 11.197 8.04037C11.4499 8.15234 11.7234 8.21018 12 8.21018C12.2766 8.21018 12.5501 8.15234 12.803 8.04037C13.056 7.92839 13.2827 7.76477 13.4686 7.56L15.8834 4.9H16.2994C16.8257 4.90031 17.3433 5.0343 17.8036 5.2894L20.6986 6.8958L19.7983 9.5967Z" fill="black"/>
</svg>
