<svg width="24" height="24" viewBox="0 0 24 24" fill="none" xmlns="http://www.w3.org/2000/svg">
<path d="M18.2655 4.0688L15.52 3H8.47997L5.73467 4.0688C5.0275 4.34304 4.41976 4.82468 3.99122 5.45051C3.56268 6.07634 3.33336 6.81711 3.33337 7.5756V20H6.99997V21H17V20H20.6667V7.5755C20.6667 6.81704 20.4373 6.07631 20.0088 5.4505C19.5803 4.8247 18.9726 4.34306 18.2655 4.0688ZM13.6567 4.4333L12.0867 6.1925C12.0813 6.1984 12.0467 6.2376 12.022 6.2376C11.9973 6.2376 11.9627 6.2521 11.9573 6.2462L10.343 4.4333H13.6567ZM19.2333 18.5667H17V9H15.5667V19.5667H8.43327V9H6.99997V18.5667H4.76667V7.6853C4.76667 7.6621 4.76747 7.5294 4.76917 7.5065C4.78266 7.05006 4.93007 6.60766 5.19306 6.23436C5.45605 5.86106 5.82301 5.57334 6.24827 5.407L8.49997 4.5322L10.8945 7.2072C11.0342 7.36184 11.2049 7.48546 11.3954 7.57006C11.5859 7.65466 11.792 7.69838 12.0005 7.69838C12.2089 7.69838 12.415 7.65466 12.6056 7.57006C12.7961 7.48546 12.9667 7.36184 13.1065 7.2072L15.5025 4.53L17.7519 5.4069C18.1751 5.57243 18.5406 5.85826 18.8033 6.22911C19.066 6.59997 19.2143 7.03962 19.23 7.4938C19.2324 7.5208 19.2335 7.6614 19.2335 7.6888L19.2333 18.5667Z" fill="black"/>
</svg>
