<svg width="24" height="24" viewBox="0 0 24 24" fill="none" xmlns="http://www.w3.org/2000/svg">
<path d="M5.6223 19.6666H6.808C7.49334 19.6765 8.16247 19.8765 8.7408 20.2444C9.31912 20.6122 9.78393 21.1335 10.0834 21.75L10.7245 23H13.2756L13.9167 21.75C14.216 21.1334 14.6808 20.612 15.2591 20.2441C15.8375 19.8761 16.5066 19.6761 17.192 19.6662H18.3778V16.6662H5.6223V19.6666ZM17.192 5.2973L16.9448 5.0056V1H16.058V4.8057L14.5806 5.8833C14.0252 6.29995 13.5756 6.84138 13.2682 7.46387C12.9607 8.08636 12.804 8.77245 12.8106 9.4667V10.05H11.19V9.4667C11.1966 8.77245 11.0399 8.08636 10.7324 7.46387C10.425 6.84138 9.97537 6.29995 9.42 5.8833L7.942 4.8057V1H7.0553V5.0056L6.8081 5.2973C6.03668 6.23226 5.61712 7.40789 5.6223 8.62V11H18.3778V8.62C18.3829 7.4079 17.9634 6.23228 17.192 5.2973Z" fill="black"/>
</svg>
