<svg width="24" height="24" viewBox="0 0 24 24" fill="none" xmlns="http://www.w3.org/2000/svg">
<path d="M19.9445 9.9155L19.5 9.33V4H19V9.1234L17.1024 10.0595C15.871 10.667 14.8342 11.6069 14.1092 12.7729C13.3842 13.939 13 15.2846 13 16.6577V18.5H11V16.6577C10.9999 15.2847 10.6156 13.9392 9.89068 12.7732C9.16572 11.6073 8.12897 10.6674 6.8977 10.06L5 9.1234V4H4.5V9.33L4.0555 9.916C2.72199 11.6738 2.00011 13.8195 2 16.0259V19H22V16.0259C22 13.8194 21.2781 11.6734 19.9445 9.9155ZM2.5 18.5V16.0259C2.50405 13.9291 3.18984 11.8906 4.4539 10.2177L4.8989 9.631L6.6765 10.5079C7.82734 11.0701 8.79645 11.9453 9.47271 13.033C10.149 14.1208 10.505 15.3771 10.5 16.6579V18.5H2.5ZM21.5 18.5H13.5V16.6577C13.495 15.3769 13.851 14.1206 14.5273 13.0328C15.2036 11.9451 16.1727 11.0699 17.3235 10.5077L19.1011 9.6308L19.5462 10.2175C20.8103 11.8904 21.496 13.9291 21.5 16.0259V18.5Z" fill="black"/>
</svg>
