<svg width="24" height="24" viewBox="0 0 24 24" fill="none" xmlns="http://www.w3.org/2000/svg">
<path d="M8.0071 8.65833C7.75794 8.16004 7.37495 7.74097 6.90104 7.44808C6.42712 7.15518 5.88102 7.00004 5.3239 7.00003H1V17H3.0739C3.63103 17 4.17714 16.8449 4.65105 16.5519C5.12497 16.259 5.50795 15.8399 5.7571 15.3416L8.553 9.75003L8.0071 8.65833ZM20.938 7.00003C20.3808 7 19.8347 7.15513 19.3608 7.44802C18.8868 7.74092 18.5038 8.16001 18.2546 8.65833L15.4587 14.25L16.0046 15.3416C16.2538 15.84 16.6368 16.2591 17.1107 16.552C17.5847 16.8449 18.1308 17.0001 18.688 17H23V7.00003H20.938ZM16.9409 9.36803C16.5851 8.65647 16.0382 8.05803 15.3615 7.63978C14.6847 7.22154 13.9049 7 13.1094 7C12.3138 7 11.534 7.22154 10.8572 7.63978C10.1805 8.05803 9.63358 8.65647 9.2778 9.36803L6.8524 14.2188L7.0591 14.632C7.41488 15.3436 7.96178 15.942 8.63852 16.3603C9.31526 16.7785 10.0951 17.0001 10.8906 17.0001C11.6862 17.0001 12.466 16.7785 13.1428 16.3603C13.8195 15.942 14.3664 15.3436 14.7222 14.632L17.1476 9.78123L16.9409 9.36803Z" fill="black"/>
</svg>
