<svg width="24" height="24" viewBox="0 0 24 24" fill="none" xmlns="http://www.w3.org/2000/svg">
<path d="M12 10.8723C11.777 10.8723 11.5589 10.9384 11.3735 11.0624C11.188 11.1863 11.0435 11.3624 10.9581 11.5684C10.8728 11.7745 10.8505 12.0013 10.894 12.22C10.9375 12.4388 11.0449 12.6397 11.2026 12.7974C11.3603 12.9551 11.5612 13.0625 11.78 13.106C11.9987 13.1495 12.2255 13.1272 12.4316 13.0419C12.6376 12.9565 12.8137 12.812 12.9376 12.6265C13.0616 12.4411 13.1277 12.223 13.1277 12C13.1277 11.7009 13.0089 11.4141 12.7974 11.2026C12.5859 10.9911 12.2991 10.8723 12 10.8723ZM3 3V21H21V3H3ZM4.8 4.8H11.2137C9.57423 4.97928 8.04501 5.71263 6.87882 6.87882C5.71263 8.04501 4.97928 9.57423 4.8 11.2137V4.8ZM4.8 19.2V12.7863C4.9793 14.4258 5.71265 15.955 6.87884 17.1212C8.04503 18.2873 9.57424 19.0207 11.2137 19.2H4.8ZM6.5556 12C6.55558 10.9232 6.87487 9.87057 7.4731 8.97523C8.07132 8.07989 8.92162 7.38205 9.91645 6.96996C10.9113 6.55787 12.006 6.45004 13.0621 6.6601C14.1182 6.87016 15.0883 7.38868 15.8497 8.15009C16.6112 8.9115 17.1297 9.8816 17.3398 10.9377C17.5499 11.9938 17.4421 13.0885 17.03 14.0834C16.6179 15.0782 15.9201 15.9285 15.0248 16.5267C14.1294 17.125 13.0768 17.4443 12 17.4443C10.5566 17.4427 9.17274 16.8685 8.15208 15.8479C7.13141 14.8272 6.55727 13.4434 6.5556 12ZM19.2 19.2H12.7863C14.4258 19.0207 15.955 18.2873 17.1212 17.1212C18.2873 15.955 19.0207 14.4258 19.2 12.7863V19.2ZM19.2 11.2137C19.0207 9.57423 18.2874 8.04501 17.1212 6.87882C15.955 5.71263 14.4258 4.97928 12.7863 4.8H19.2V11.2137Z" fill="black"/>
</svg>
