<svg width="24" height="24" viewBox="0 0 24 24" fill="none" xmlns="http://www.w3.org/2000/svg">
<path d="M18.7019 3.6241C17.9614 3.21472 17.1291 2.99998 16.283 3H7.6965C6.84691 3.00002 6.01133 3.21649 5.2686 3.629L1 6L3.405 10.8433L6 9.8611V19H7.1641C7.72412 18.9999 8.27473 19.144 8.76298 19.4182C9.25124 19.6925 9.6607 20.0878 9.952 20.5661L10.8334 22H13.1667L14.048 20.5661C14.3393 20.0878 14.7488 19.6925 15.237 19.4182C15.7253 19.144 16.2759 18.9999 16.8359 19H18V9.8611L20.9283 10.8433L23 6L18.7019 3.6241ZM14.1782 4C14.1402 4.5518 13.8942 5.06862 13.4899 5.44606C13.0856 5.8235 12.5532 6.03343 12 6.03343C11.4469 6.03343 10.9145 5.8235 10.5102 5.44606C10.1058 5.06862 9.85987 4.5518 9.8219 4H14.1782ZM20.3716 9.6025L17 8.4707V18H16.8359C16.1048 18.0024 15.3864 18.1916 14.749 18.5497C14.1116 18.9078 13.5762 19.4228 13.1938 20.0459L12.6074 21H11.3926L10.8042 20.043C10.4217 19.4206 9.88658 18.9062 9.24953 18.5487C8.61247 18.1911 7.89463 18.0023 7.1641 18H7V8.4131L3.8979 9.5879L2.32 6.41L5.7539 4.5029C6.34837 4.17357 7.0167 4.00053 7.6963 4H8.85C8.88871 4.80938 9.23748 5.57281 9.82398 6.13193C10.4105 6.69105 11.1897 7.00296 12 7.00296C12.8103 7.00296 13.5895 6.69105 14.176 6.13193C14.7625 5.57281 15.1113 4.80938 15.15 4H16.2833C16.9599 4.00064 17.6254 4.17229 18.2179 4.499L21.7252 6.4375L20.3716 9.6025Z" fill="black"/>
</svg>
