<svg width="24" height="24" viewBox="0 0 24 24" fill="none" xmlns="http://www.w3.org/2000/svg">
<path d="M5.93329 19.6666H6.90229C7.6013 19.6772 8.28308 19.8851 8.8691 20.2663C9.45512 20.6475 9.92152 21.1865 10.2146 21.8212L10.7867 23H13.2134L13.7855 21.8212C14.0785 21.1865 14.5449 20.6475 15.1309 20.2663C15.7169 19.8851 16.3987 19.6772 17.0977 19.6666H18.0667V17.3333H5.93329V19.6666ZM16.9818 5.673L16.6518 5.2501V1H16.1851V5.123L14.5489 6.3309C14.0416 6.71616 13.6313 7.21462 13.3508 7.78654C13.0703 8.35847 12.9273 8.98802 12.9333 9.625V10.5H11.0667V9.625C11.0726 8.98803 10.9297 8.35849 10.6492 7.78657C10.3687 7.21465 9.95846 6.71618 9.45119 6.3309L7.81459 5.123V1H7.34799V5.25L7.01799 5.6729C6.31051 6.59122 5.92879 7.71887 5.93299 8.8781V11H18.0667V8.8782C18.0709 7.71899 17.6892 6.59135 16.9818 5.673Z" fill="black"/>
</svg>
