<svg width="24" height="24" viewBox="0 0 24 24" fill="none" xmlns="http://www.w3.org/2000/svg">
<path d="M15.2483 10.7415V9.1044H13.8236V10.7415L14.5359 11.0515L15.2483 10.7415ZM18.606 3.5174C18.0057 3.17823 17.3279 3 16.6384 3H15.1667C15.1667 3.83986 14.8331 4.64532 14.2392 5.23919C13.6453 5.83307 12.8399 6.1667 12 6.1667C11.1601 6.1667 10.3547 5.83307 9.76081 5.23919C9.16693 4.64532 8.8333 3.83986 8.8333 3H7.3616C6.6721 3 5.99431 3.17823 5.394 3.5174L1 6L3.1075 10.265L6 9.4062V21H18V9.4062L20.8925 10.265L23 6L18.606 3.5174ZM16.1183 11.3118L14.5359 12L12.9536 11.3118V8.2344H16.1183V11.3118ZM12 5.2333C12.5921 5.23261 13.1597 4.9971 13.5784 4.57842C13.9971 4.15975 14.2326 3.5921 14.2333 3H9.7667C9.76739 3.5921 10.0029 4.15975 10.4216 4.57842C10.8403 4.9971 11.4079 5.23261 12 5.2333Z" fill="black"/>
</svg>
