<svg width="24" height="24" viewBox="0 0 24 24" fill="none" xmlns="http://www.w3.org/2000/svg">
<path d="M21.01 10.7887L10.4083 7H7.7914V8.02C7.79103 8.2851 7.68555 8.53924 7.4981 8.7267C7.31064 8.91415 7.0565 9.01963 6.7914 9.02H6.7839L5.2631 9.0084C4.87073 9.00548 4.48297 8.92363 4.12289 8.76772C3.76282 8.61181 3.4378 8.38504 3.1672 8.1009L2.6146 7.5209L1 7.5382V17H16L23 16V13.6137C23 12.9951 22.8088 12.3916 22.4526 11.8859C22.0963 11.3802 21.5925 10.997 21.01 10.7887ZM22.5 15.5663L15.9645 16.5H1.5V8.0328L2.4026 8.0228L2.8052 8.4455C3.12266 8.77743 3.50334 9.04247 3.92481 9.22501C4.34628 9.40756 4.80002 9.50391 5.2593 9.5084L6.7915 9.52C7.18919 9.51955 7.57046 9.36137 7.85166 9.08016C8.13287 8.79896 8.29105 8.41769 8.2915 8.02V7.5H10.3215L11.6766 7.9843L10.9966 9.8691C10.9741 9.93143 10.9772 10.0001 11.0054 10.0601C11.0335 10.1202 11.0843 10.1665 11.1466 10.1891C11.1739 10.1986 11.2026 10.2036 11.2315 10.2037C11.2829 10.2036 11.3331 10.1878 11.3752 10.1583C11.4173 10.1288 11.4493 10.087 11.4669 10.0387L12.1475 8.1523L14.2053 8.8877L13.5693 10.65C13.5468 10.7123 13.5499 10.781 13.5781 10.841C13.6062 10.9011 13.657 10.9474 13.7193 10.97C13.7466 10.9796 13.7753 10.9846 13.8043 10.9847C13.8557 10.9847 13.9059 10.969 13.9481 10.9395C13.9903 10.91 14.0224 10.8683 14.04 10.82L14.677 9.0562L16.7344 9.7914L16.1426 11.4304C16.1201 11.4927 16.1232 11.5614 16.1514 11.6214C16.1795 11.6815 16.2303 11.7278 16.2926 11.7504C16.3199 11.7599 16.3486 11.7649 16.3775 11.765C16.4289 11.7649 16.4791 11.7491 16.5212 11.7196C16.5633 11.6901 16.5953 11.6483 16.6129 11.6L17.2052 9.96L20.8414 11.26C21.3263 11.4342 21.7458 11.7536 22.0426 12.1748C22.3394 12.596 22.4991 13.0984 22.5 13.6137V15.5663Z" fill="black"/>
</svg>
