<svg width="24" height="24" viewBox="0 0 24 24" fill="none" xmlns="http://www.w3.org/2000/svg">
<path d="M10.9999 2V10.8038L5.36075 14.0686C4.87471 14.347 4.44846 14.7187 4.10647 15.1623C3.76449 15.6059 3.5135 16.1127 3.36793 16.6536C3.22236 17.1944 3.18507 17.7587 3.25821 18.3141C3.33135 18.8694 3.51347 19.4048 3.79411 19.8896C4.07476 20.3743 4.4484 20.7988 4.89358 21.1388C5.33876 21.4787 5.8467 21.7274 6.38825 21.8704C6.92979 22.0135 7.49427 22.0482 8.04925 21.9725C8.60424 21.8968 9.1388 21.7122 9.62225 21.4293L16.5051 17.4443C17.2638 17.0051 17.8937 16.3741 18.3316 15.6146C18.7694 14.8551 18.9999 13.9939 18.9999 13.1172V2H10.9999ZM18.4999 13.1172C18.4986 13.9059 18.2906 14.6806 17.8966 15.3639C17.5027 16.0472 16.9366 16.6153 16.2546 17.0117L9.37165 20.9965C8.5108 21.4868 7.49101 21.6167 6.53471 21.3581C5.57841 21.0994 4.7632 20.4731 4.26688 19.6157C3.77056 18.7583 3.6334 17.7395 3.88532 16.7814C4.13724 15.8233 4.7578 15.0037 5.61165 14.5013L11.2508 11.2365L11.5003 11.0921V5.25H18.5003L18.4999 13.1172ZM18.4999 4.75H11.4999V2.5H18.4999V4.75Z" fill="black"/>
</svg>
