<svg width="24" height="24" viewBox="0 0 24 24" fill="none" xmlns="http://www.w3.org/2000/svg">
<path d="M8.38479 4.11294L8.52979 4.36584C8.88006 4.97669 9.38538 5.48426 9.99467 5.83723C10.604 6.19021 11.2956 6.37609 11.9998 6.37609C12.7039 6.37609 13.3956 6.19021 14.0049 5.83723C14.6142 5.48426 15.1195 4.97669 15.4698 4.36584L15.614 4.11444L16.0392 4.19724L14.4642 10.9011L14.2555 11.7895L14.7898 12.5295L15.6782 13.7595C17.0074 15.5923 17.7872 17.7657 17.9262 20.0254H6.07219C6.20737 17.7691 6.98129 15.5977 8.30369 13.7644L9.19269 12.5267L9.72339 11.7878L9.51529 10.9023L7.93999 4.19884L8.38489 4.11294H8.38479ZM14.5914 1.87744L13.7351 3.37104C13.56 3.67647 13.3073 3.93025 13.0026 4.10674C12.698 4.28323 12.3522 4.37617 12.0001 4.37617C11.648 4.37617 11.3022 4.28323 10.9975 4.10674C10.6929 3.93025 10.4402 3.67647 10.2651 3.37104L9.40919 1.87844L5.51659 2.62944L7.56839 11.36L6.67929 12.5977C4.96959 14.978 4.04996 17.8347 4.04999 20.7653V22.0253H19.95V20.7853C19.95 17.8426 19.0228 14.9747 17.3 12.5889L16.4116 11.3589L18.4616 2.63184L14.591 1.87794L14.5914 1.87744Z" fill="black"/>
</svg>
