<svg width="24" height="24" viewBox="0 0 24 24" fill="none" xmlns="http://www.w3.org/2000/svg">
<path d="M13.9733 3H10.0354L12.0113 5.459L13.9733 3ZM18.606 3.5174C18.0057 3.17823 17.3279 3 16.6384 3H15.8962L13.1681 6.3854C13.0292 6.56242 12.8518 6.70554 12.6495 6.80396C12.4471 6.90239 12.225 6.95353 12 6.95353C11.775 6.95353 11.5529 6.90239 11.3505 6.80396C11.1482 6.70554 10.9708 6.56242 10.8319 6.3854L8.1038 3H7.3616C6.6721 3 5.99431 3.17823 5.394 3.5174L1 6L3.1075 10.265L6 9.4062V21H18V9.4062L20.8925 10.265L23 6L18.606 3.5174Z" fill="black"/>
</svg>
