<svg width="24" height="24" viewBox="0 0 24 24" fill="none" xmlns="http://www.w3.org/2000/svg">
<path d="M12 4.9667C12.5214 4.96609 13.0213 4.75869 13.39 4.38999C13.7587 4.0213 13.9661 3.52141 13.9667 3H10.0333C10.0339 3.52141 10.2413 4.0213 10.61 4.38999C10.9787 4.75869 11.4786 4.96609 12 4.9667ZM18.2687 4.1035L15.3334 3C15.3285 3.8809 14.9752 4.72407 14.3506 5.34526C13.726 5.96645 12.8809 6.31514 12 6.31514C11.1191 6.31514 10.274 5.96645 9.64942 5.34526C9.02482 4.72407 8.6715 3.8809 8.66667 3L5.73127 4.1035C5.02705 4.36676 4.42005 4.83885 3.99151 5.45657C3.56298 6.0743 3.33335 6.80818 3.33337 7.56V20H6.33337V9H7.76667V21H16.2333V9H17.6667V20H20.6667V7.56C20.6667 6.80817 20.437 6.07427 20.0085 5.45655C19.5799 4.83882 18.9729 4.36674 18.2687 4.1035Z" fill="black"/>
</svg>
