<svg width="24" height="24" viewBox="0 0 24 24" fill="none" xmlns="http://www.w3.org/2000/svg">
<path d="M19 4H7V6H19C19.2652 6 19.5196 6.10536 19.7071 6.29289C19.8946 6.48043 20 6.73478 20 7V10H10.8125C5.0938 10 2 14 2 20H22V7C22 6.20435 21.6839 5.44129 21.1213 4.87868C20.5587 4.31607 19.7956 4 19 4ZM20 18H4.1426C4.5632 15.1921 6.0826 12 10.8126 12H20V18ZM17 16.2C17.2373 16.2 17.4693 16.1296 17.6667 15.9978C17.864 15.8659 18.0178 15.6785 18.1087 15.4592C18.1995 15.2399 18.2232 14.9987 18.1769 14.7659C18.1306 14.5331 18.0164 14.3193 17.8485 14.1515C17.6807 13.9836 17.4669 13.8694 17.2341 13.8231C17.0013 13.7768 16.7601 13.8005 16.5408 13.8913C16.3215 13.9822 16.1341 14.136 16.0022 14.3333C15.8704 14.5307 15.8 14.7627 15.8 15C15.8 15.3183 15.9264 15.6235 16.1515 15.8485C16.3765 16.0736 16.6817 16.2 17 16.2ZM9.0938 13.8C8.85646 13.8 8.62445 13.8704 8.42712 14.0022C8.22978 14.1341 8.07597 14.3215 7.98514 14.5408C7.89432 14.7601 7.87056 15.0013 7.91686 15.2341C7.96316 15.4669 8.07745 15.6807 8.24527 15.8485C8.41309 16.0164 8.62691 16.1306 8.85969 16.1769C9.09247 16.2232 9.33375 16.1995 9.55302 16.1087C9.77229 16.0178 9.95971 15.864 10.0916 15.6667C10.2234 15.4693 10.2938 15.2373 10.2938 15C10.2938 14.6817 10.1674 14.3765 9.94233 14.1515C9.71728 13.9264 9.41206 13.8 9.0938 13.8ZM13.0469 16.2C13.2842 16.2 13.5162 16.1296 13.7136 15.9978C13.9109 15.8659 14.0647 15.6785 14.1556 15.4592C14.2464 15.2399 14.2701 14.9987 14.2238 14.7659C14.1775 14.5331 14.0633 14.3193 13.8954 14.1515C13.7276 13.9836 13.5138 13.8694 13.281 13.8231C13.0482 13.7768 12.807 13.8005 12.5877 13.8913C12.3684 13.9822 12.181 14.136 12.0491 14.3333C11.9173 14.5307 11.8469 14.7627 11.8469 15C11.8469 15.3183 11.9733 15.6235 12.1984 15.8485C12.4234 16.0736 12.7286 16.2 13.0469 16.2Z" fill="black"/>
</svg>
