<svg width="24" height="24" viewBox="0 0 24 24" fill="none" xmlns="http://www.w3.org/2000/svg">
<path d="M21.7142 4L21.3015 6.6822H20.6815C19.9099 6.69037 19.1568 6.91899 18.5109 7.3411C17.8686 7.77062 17.1132 7.99989 16.3405 7.99989C15.5678 7.99989 14.8124 7.77062 14.1701 7.3411C13.5278 6.91152 12.7724 6.68221 11.9997 6.68221C11.227 6.68221 10.4716 6.91152 9.8293 7.3411C9.18282 7.76158 8.43033 7.99006 7.6592 8C6.88791 7.99019 6.13523 7.76174 5.4886 7.3412C4.84217 6.92069 4.0897 6.69221 3.3186 6.6823H2.6986L2.2858 4H1.3076L3 15H21L22.6924 4H21.7142ZM3 21H21V20.0667H3V21ZM3 18H21V17.0667H3V18Z" fill="black"/>
</svg>
