<svg width="24" height="24" viewBox="0 0 24 24" fill="none" xmlns="http://www.w3.org/2000/svg">
<path d="M18.69 3.6221C17.9504 3.21409 17.1194 3.00007 16.2747 3H7.7006C6.8517 2.99999 6.01678 3.21611 5.2745 3.628L1 6L3.1075 10.265L6 9.2917V21H18V9.2917L20.8925 10.265L23 6L18.69 3.6221ZM14.5 3.5C14.5 4.16304 14.2366 4.79893 13.7678 5.26777C13.2989 5.73661 12.663 6 12 6C11.337 6 10.7011 5.73661 10.2322 5.26777C9.76339 4.79893 9.5 4.16304 9.5 3.5H14.5ZM20.6378 9.6517L18.16 8.8177L17.5 8.5959V20.5H6.5V8.5959L5.8406 8.8177L3.3622 9.6517L1.66 6.2059L5.5172 4.0652C6.18539 3.69492 6.93668 3.50044 7.7006 3.5H9C9 4.29565 9.31607 5.05871 9.87868 5.62132C10.4413 6.18393 11.2044 6.5 12 6.5C12.7956 6.5 13.5587 6.18393 14.1213 5.62132C14.6839 5.05871 15 4.29565 15 3.5H16.2747C17.0349 3.50054 17.7827 3.69317 18.4485 4.06L22.34 6.2069L20.6378 9.6517Z" fill="black"/>
</svg>
