<svg width="24" height="24" viewBox="0 0 24 24" fill="none" xmlns="http://www.w3.org/2000/svg">
<path d="M19.1667 4H7V5.4993H19.166C19.5196 5.4993 19.8587 5.63977 20.1088 5.88981C20.3588 6.13986 20.4993 6.47899 20.4993 6.8326V10H10.8125C5.0938 10 2 14 2 20H22V6.8333C22 6.08186 21.7015 5.3612 21.1701 4.82985C20.6388 4.29851 19.9181 4 19.1667 4ZM16.0576 16.9424L15.0676 17.9324L13.125 15.99L11.1826 17.9324L10.1926 16.9424L12.1348 15L10.1924 13.0576L11.1824 12.0676L13.125 14.01L15.0674 12.0676L16.0574 13.0576L14.1152 15L16.0576 16.9424Z" fill="black"/>
</svg>
