<svg width="24" height="24" viewBox="0 0 24 24" fill="none" xmlns="http://www.w3.org/2000/svg">
<path d="M10.6667 2V10.5989L10.3019 11.015L5.34879 13.8839C4.85609 14.1692 4.42441 14.5488 4.0784 15.0009C3.73239 15.4531 3.47883 15.9689 3.33219 16.5191C3.18554 17.0692 3.14869 17.6429 3.22374 18.2072C3.29879 18.7716 3.48427 19.3157 3.76959 19.8084C4.05491 20.3011 4.43447 20.7328 4.88662 21.0788C5.33877 21.4248 5.85464 21.6784 6.40478 21.825C6.95492 21.9716 7.52855 22.0085 8.09294 21.9334C8.65732 21.8584 9.20139 21.6729 9.69409 21.3876L16.5052 17.4443C17.2639 17.0051 17.8937 16.3741 18.3316 15.6146C18.7695 14.8551 19 13.9939 19 13.1172V2H10.6667ZM18 3V5.167H11.6667V3H18ZM16.0042 16.5789L9.19309 20.5222C8.42753 20.9655 7.51721 21.0866 6.6624 20.8587C5.8076 20.6309 5.07831 20.0728 4.63499 19.3072C4.19167 18.5416 4.07062 17.6313 4.29848 16.7765C4.52633 15.9217 5.08443 15.1924 5.84999 14.7491L11.1679 11.6691L11.6665 11.3802V6.167H18V13.117C17.9988 13.8181 17.814 14.5067 17.4638 15.1141C17.1136 15.7215 16.6104 16.2266 16.0042 16.5789Z" fill="black"/>
</svg>
