<svg width="24" height="24" viewBox="0 0 24 24" fill="none" xmlns="http://www.w3.org/2000/svg">
<path d="M18.69 3.6221C17.9504 3.21409 17.1194 3.00007 16.2747 3H7.7006C6.8517 2.99999 6.01678 3.21611 5.2745 3.628L1 6L3.1075 10.265L6 9.2917V21H18V9.2917L20.8925 10.265L23 6L18.69 3.6221ZM14.3355 3.5L11.996 6.1724L9.6636 3.5H14.3355ZM20.6378 9.6517L18.16 8.8177L17.5 8.5959V20.5H6.5V8.5959L5.84 8.8177L3.3617 9.6517L1.6594 6.2059L5.5171 4.0652C6.18533 3.69494 6.93665 3.50047 7.7006 3.5H9L11.6193 6.5012C11.6667 6.55556 11.7252 6.59913 11.7909 6.62899C11.8566 6.65885 11.9279 6.67429 12 6.67429C12.0721 6.67429 12.1434 6.65885 12.2091 6.62899C12.2748 6.59913 12.3333 6.55556 12.3807 6.5012L15 3.5H16.2747C17.0349 3.50054 17.7827 3.69317 18.4485 4.06L22.34 6.2069L20.6378 9.6517Z" fill="black"/>
</svg>
