<svg width="24" height="24" viewBox="0 0 24 24" fill="none" xmlns="http://www.w3.org/2000/svg">
<path d="M21.3483 4L21.0659 6.6823H20.2153C19.4803 6.69197 18.765 6.92141 18.1616 7.3411C17.5624 7.76954 16.8443 7.99989 16.1077 7.99989C15.3711 7.99989 14.653 7.76954 14.0538 7.3411C13.4547 6.91265 12.7366 6.68229 12 6.68229C11.2634 6.68229 10.5453 6.91265 9.94619 7.3411C9.34192 7.7593 8.62707 7.98863 7.89229 8C7.15752 7.98866 6.44267 7.75937 5.83839 7.3412C5.23417 6.92307 4.51939 6.69378 3.78469 6.6824H2.93409L2.65169 4H1.20999L2.99999 21H21L22.79 4H21.3483ZM8.21879 14.8464C7.99574 14.8464 7.7777 14.7803 7.59224 14.6564C7.40677 14.5325 7.26222 14.3564 7.17685 14.1503C7.09149 13.9442 7.06915 13.7175 7.11266 13.4987C7.15616 13.28 7.26357 13.079 7.42129 12.9213C7.579 12.7636 7.77995 12.6562 7.99871 12.6127C8.21747 12.5692 8.44423 12.5915 8.65029 12.6769C8.85635 12.7622 9.03248 12.9068 9.15638 13.0922C9.28029 13.2777 9.34641 13.4958 9.34639 13.7188C9.34639 14.0179 9.22759 14.3047 9.01612 14.5161C8.80466 14.7276 8.51785 14.8464 8.21879 14.8464ZM12 14.8464C11.7769 14.8464 11.5589 14.7803 11.3735 14.6563C11.188 14.5324 11.0435 14.3563 10.9581 14.1502C10.8728 13.9442 10.8504 13.7174 10.894 13.4987C10.9375 13.2799 11.0449 13.079 11.2026 12.9213C11.3603 12.7636 11.5613 12.6562 11.78 12.6127C11.9988 12.5692 12.2256 12.5915 12.4316 12.6769C12.6377 12.7622 12.8138 12.9068 12.9377 13.0923C13.0616 13.2777 13.1277 13.4958 13.1277 13.7188C13.1277 13.8669 13.0985 14.0135 13.0418 14.1503C12.9852 14.2872 12.9021 14.4115 12.7974 14.5162C12.6927 14.6209 12.5684 14.7039 12.4315 14.7606C12.2947 14.8173 12.1481 14.8464 12 14.8464ZM15.7812 14.8464C15.5581 14.8464 15.3401 14.7803 15.1547 14.6563C14.9692 14.5324 14.8247 14.3563 14.7393 14.1502C14.654 13.9442 14.6316 13.7174 14.6752 13.4987C14.7187 13.2799 14.8261 13.079 14.9838 12.9213C15.1415 12.7636 15.3425 12.6562 15.5612 12.6127C15.78 12.5692 16.0068 12.5915 16.2128 12.6769C16.4189 12.7622 16.595 12.9068 16.7189 13.0923C16.8428 13.2777 16.9089 13.4958 16.9089 13.7188C16.9089 13.8669 16.8797 14.0135 16.8231 14.1504C16.7664 14.2872 16.6833 14.4115 16.5786 14.5162C16.4739 14.6209 16.3496 14.704 16.2128 14.7606C16.0759 14.8173 15.9293 14.8464 15.7812 14.8464Z" fill="black"/>
</svg>
