<svg width="24" height="24" viewBox="0 0 24 24" fill="none" xmlns="http://www.w3.org/2000/svg">
<path d="M20.5145 11.8165L12 8.3333V3H9L6.2916 4H2V20H3.5V19H4.7858V20H6.2858V19H7.5714V20H9.0714V19H10.3572V20H11.8572V19H13.1428V20H14.6428V19H15.9286V20H17.4286V19H18.7142V20H20.2142V19H21.5V20H23V15.5187C23 14.7246 22.7636 13.9484 22.321 13.2891C21.8784 12.6298 21.2495 12.1172 20.5145 11.8165ZM3.4 5.4H6.5419L9.25 4.4H10.6V6.1934H9.2021C8.96331 6.1934 8.7343 6.28826 8.56546 6.45711C8.39661 6.62595 8.30175 6.85496 8.30175 7.09375C8.30175 7.33254 8.39661 7.56154 8.56546 7.73039C8.7343 7.89924 8.96331 7.9941 9.2021 7.9941H10.6V8.5315L9.6356 9.4531C9.55019 9.53481 9.48171 9.63254 9.43406 9.74071C9.38642 9.84889 9.36055 9.96539 9.35794 10.0836C9.35532 10.2017 9.376 10.3193 9.4188 10.4294C9.46161 10.5396 9.52569 10.6403 9.6074 10.7257C9.68911 10.8111 9.78684 10.8796 9.89501 10.9272C10.0032 10.9749 10.1197 11.0007 10.2379 11.0034C10.356 11.006 10.4736 10.9853 10.5837 10.9425C10.6939 10.8997 10.7946 10.8356 10.88 10.7539L11.881 9.7972L12.8985 10.2134L12.5016 11.1846C12.4569 11.294 12.4341 11.4112 12.4346 11.5294C12.4352 11.6476 12.459 11.7645 12.5047 11.8735C12.5505 11.9825 12.6173 12.0815 12.7012 12.1647C12.7852 12.2479 12.8848 12.3137 12.9942 12.3584C13.102 12.4029 13.2175 12.4258 13.3342 12.4258C13.513 12.4258 13.6879 12.3726 13.8363 12.2728C13.9848 12.1731 14.1001 12.0314 14.1677 11.8658L14.5647 10.8946L15.9511 11.4618L15.5832 12.3609C15.4928 12.5818 15.4939 12.8296 15.5862 13.0498C15.6785 13.2699 15.8544 13.4444 16.0753 13.5347C16.2963 13.6251 16.5441 13.6241 16.7642 13.5318C16.9843 13.4395 17.1588 13.2635 17.2492 13.0426L17.6173 12.1434L19.9847 13.1119C20.4632 13.3064 20.8726 13.6394 21.1604 14.0683C21.4482 14.4971 21.6013 15.0022 21.6 15.5187V17.6H3.4V5.4Z" fill="black"/>
</svg>
