<svg width="24" height="24" viewBox="0 0 24 24" fill="none" xmlns="http://www.w3.org/2000/svg">
<path d="M12 10.5C11.7033 10.5 11.4133 10.588 11.1666 10.7528C10.92 10.9176 10.7277 11.1519 10.6142 11.426C10.5006 11.7001 10.4709 12.0017 10.5288 12.2926C10.5867 12.5836 10.7296 12.8509 10.9393 13.0607C11.1491 13.2704 11.4164 13.4133 11.7074 13.4712C11.9983 13.5291 12.2999 13.4994 12.574 13.3858C12.8481 13.2723 13.0824 13.08 13.2472 12.8334C13.412 12.5867 13.5 12.2967 13.5 12C13.5 11.6022 13.342 11.2206 13.0607 10.9393C12.7794 10.658 12.3978 10.5 12 10.5ZM12 12.7C11.8616 12.7 11.7262 12.6589 11.6111 12.582C11.496 12.5051 11.4063 12.3958 11.3533 12.2679C11.3003 12.14 11.2864 11.9992 11.3134 11.8634C11.3405 11.7276 11.4071 11.6029 11.505 11.505C11.6029 11.4071 11.7276 11.3405 11.8634 11.3134C11.9992 11.2864 12.14 11.3003 12.2679 11.3533C12.3958 11.4063 12.5051 11.496 12.582 11.6111C12.6589 11.7262 12.7 11.8616 12.7 12C12.6998 12.1856 12.626 12.3635 12.4947 12.4947C12.3635 12.626 12.1856 12.6998 12 12.7ZM17.9219 12C17.9219 11.7033 17.8339 11.4133 17.6691 11.1666C17.5043 10.92 17.27 10.7277 16.9959 10.6142C16.7218 10.5006 16.4202 10.4709 16.1293 10.5288C15.8383 10.5867 15.571 10.7296 15.3612 10.9393C15.1515 11.1491 15.0086 11.4164 14.9507 11.7074C14.8928 11.9983 14.9225 12.2999 15.0361 12.574C15.1496 12.8481 15.3419 13.0824 15.5885 13.2472C15.8352 13.412 16.1252 13.5 16.4219 13.5C16.8197 13.5 17.2013 13.342 17.4826 13.0607C17.7639 12.7794 17.9219 12.3978 17.9219 12ZM16.4219 12.7C16.2835 12.7 16.1481 12.6589 16.033 12.582C15.9179 12.5051 15.8282 12.3958 15.7752 12.2679C15.7222 12.14 15.7083 11.9992 15.7354 11.8634C15.7624 11.7276 15.829 11.6029 15.9269 11.505C16.0248 11.4071 16.1496 11.3405 16.2853 11.3134C16.4211 11.2864 16.5619 11.3003 16.6898 11.3533C16.8177 11.4063 16.927 11.496 17.0039 11.6111C17.0808 11.7262 17.1219 11.8616 17.1219 12C17.1217 12.1856 17.0479 12.3635 16.9166 12.4947C16.7854 12.626 16.6075 12.6998 16.4219 12.7ZM7.6719 10.5C7.37523 10.5 7.08522 10.588 6.83854 10.7528C6.59187 10.9176 6.39961 11.1519 6.28608 11.426C6.17255 11.7001 6.14284 12.0017 6.20072 12.2926C6.2586 12.5836 6.40146 12.8509 6.61124 13.0607C6.82102 13.2704 7.08829 13.4133 7.37926 13.4712C7.67024 13.5291 7.97184 13.4994 8.24592 13.3858C8.52001 13.2723 8.75428 13.08 8.9191 12.8334C9.08393 12.5867 9.1719 12.2967 9.1719 12C9.1719 11.6022 9.01386 11.2206 8.73256 10.9393C8.45126 10.658 8.06972 10.5 7.6719 10.5ZM7.6719 12.7C7.53345 12.7 7.39812 12.6589 7.283 12.582C7.16789 12.5051 7.07817 12.3958 7.02518 12.2679C6.9722 12.14 6.95834 11.9992 6.98535 11.8634C7.01236 11.7276 7.07903 11.6029 7.17693 11.505C7.27482 11.4071 7.39955 11.3405 7.53534 11.3134C7.67112 11.2864 7.81187 11.3003 7.93978 11.3533C8.06769 11.4063 8.17701 11.496 8.25393 11.6111C8.33085 11.7262 8.3719 11.8616 8.3719 12C8.37169 12.1856 8.29787 12.3635 8.16664 12.4947C8.03541 12.626 7.85749 12.6998 7.6719 12.7ZM3 3V21H21V3H3ZM3.9333 3.9333H9.6152C8.26989 4.33224 7.04552 5.06088 6.05327 6.05308C5.06102 7.04528 4.33231 8.26961 3.9333 9.6149V3.9333ZM3.9333 20.0667V14.3851C4.3323 15.7304 5.06097 16.9546 6.05316 17.9468C7.04536 18.939 8.26965 19.6677 9.6149 20.0667H3.9333ZM4.5186 12C4.5186 10.5203 4.95738 9.07387 5.77944 7.84356C6.60151 6.61325 7.76995 5.65434 9.13699 5.08809C10.504 4.52184 12.0083 4.37368 13.4595 4.66235C14.9108 4.95102 16.2439 5.66356 17.2901 6.70985C18.3364 7.75614 19.049 9.0892 19.3376 10.5405C19.6263 11.9917 19.4782 13.496 18.9119 14.863C18.3457 16.2301 17.3868 17.3985 16.1564 18.2206C14.9261 19.0426 13.4797 19.4814 12 19.4814C10.0165 19.4791 8.11491 18.6902 6.71237 17.2876C5.30982 15.8851 4.52088 13.9835 4.5186 12ZM20.0667 20.0667H14.385C15.7303 19.6677 16.9546 18.939 17.9468 17.9468C18.939 16.9547 19.6677 15.7304 20.0667 14.3851V20.0667ZM20.0667 9.6149C19.6677 8.26961 18.939 7.04528 17.9467 6.05308C16.9545 5.06088 15.7301 4.33224 14.3848 3.9333H20.0667V9.6149Z" fill="black"/>
</svg>
