<svg width="24" height="24" viewBox="0 0 24 24" fill="none" xmlns="http://www.w3.org/2000/svg">
<path d="M3 3V21H21V3H3ZM20.0667 9.6149C19.6677 8.26961 18.939 7.04528 17.9467 6.05308C16.9545 5.06088 15.7301 4.33224 14.3848 3.9333H20.0667V9.6149ZM19.4814 12C19.4814 13.4797 19.0426 14.9261 18.2205 16.1564C17.3984 17.3867 16.23 18.3456 14.8629 18.9118C13.4959 19.4781 11.9916 19.6262 10.5404 19.3375C9.08915 19.0489 7.7561 18.3363 6.70982 17.29C5.66353 16.2437 4.95101 14.9107 4.66235 13.4594C4.37368 12.0082 4.52184 10.5039 5.0881 9.13687C5.65435 7.76983 6.61326 6.6014 7.84357 5.77934C9.07387 4.95727 10.5203 4.5185 12 4.5185C13.9835 4.52078 15.8851 5.30974 17.2877 6.7123C18.6902 8.11486 19.4792 10.0165 19.4814 12ZM9.6152 3.9333C8.26989 4.33224 7.04552 5.06088 6.05327 6.05308C5.06102 7.04528 4.33231 8.26961 3.9333 9.6149V3.9333H9.6152ZM3.9333 14.3851C4.3323 15.7304 5.06097 16.9546 6.05316 17.9468C7.04536 18.939 8.26965 19.6677 9.6149 20.0667H3.9333V14.3851ZM14.3851 20.0667C15.7304 19.6677 16.9546 18.939 17.9468 17.9468C18.939 16.9546 19.6677 15.7304 20.0667 14.3851V20.0667H14.3851Z" fill="black"/>
</svg>
