<svg width="24" height="24" viewBox="0 0 24 24" fill="none" xmlns="http://www.w3.org/2000/svg">
<path d="M5 2V16H19V2H5ZM6.8 3.8H11.56C10.3321 3.90234 9.18021 4.43647 8.30879 5.30756C7.43737 6.17866 6.90281 7.33035 6.8 8.5582V3.8ZM6.8 14.2V9.442C6.90275 10.6694 7.43697 11.8208 8.30788 12.6918C9.17879 13.5628 10.3301 14.0971 11.5575 14.2H6.8ZM8.5555 9C8.55552 8.31875 8.75755 7.6528 9.13605 7.08637C9.51455 6.51993 10.0525 6.07846 10.6819 5.81777C11.3113 5.55708 12.0039 5.48888 12.672 5.6218C13.3402 5.75472 13.954 6.08278 14.4357 6.56451C14.9174 7.04623 15.2454 7.65998 15.3783 8.32815C15.5112 8.99631 15.443 9.68888 15.1823 10.3183C14.9216 10.9477 14.4801 11.4856 13.9137 11.8641C13.3472 12.2426 12.6813 12.4446 12 12.4446C11.0868 12.4436 10.2112 12.0803 9.56548 11.4346C8.91973 10.7888 8.55651 9.91324 8.5555 9ZM17.2 14.2H12.4425C13.6699 14.0971 14.8212 13.5628 15.6921 12.6918C16.563 11.8208 17.0973 10.6694 17.2 9.442V14.2ZM17.2 8.5582C17.0972 7.33035 16.5626 6.17866 15.6912 5.30756C14.8198 4.43647 13.6679 3.90234 12.44 3.8H17.2V8.5582ZM5 22H19V20.2H5V22ZM5 19H19V17.2H5V19Z" fill="black"/>
</svg>
