<svg width="24" height="24" viewBox="0 0 24 24" fill="none" xmlns="http://www.w3.org/2000/svg">
<path d="M16.88 9.1243L16.168 10.959C16.1497 11.0059 16.1177 11.0462 16.0762 11.0746C16.0346 11.103 15.9854 11.1182 15.9351 11.1182C15.9044 11.1179 15.8739 11.1123 15.8451 11.1016C15.7832 11.0775 15.7334 11.0298 15.7067 10.969C15.68 10.9081 15.6785 10.8392 15.7025 10.7773L16.4146 8.9434L14.377 8.1525L13.6143 10.1172C13.596 10.1641 13.564 10.2044 13.5224 10.2328C13.4808 10.2612 13.4317 10.2764 13.3813 10.2764C13.3506 10.2761 13.3201 10.2705 13.2913 10.2598C13.2294 10.2357 13.1796 10.188 13.1529 10.1272C13.1261 10.0664 13.1246 9.99742 13.1487 9.9355L13.9111 7.9715L11.865 7.1772C11.8627 7.1857 11.8688 7.1937 11.8655 7.2021L11.0608 9.2754C11.0425 9.3223 11.0105 9.36259 10.969 9.39099C10.9274 9.41939 10.8782 9.43459 10.8279 9.4346C10.7972 9.43429 10.7667 9.42867 10.7379 9.418C10.7072 9.40612 10.6792 9.38831 10.6554 9.36557C10.6316 9.34283 10.6125 9.31563 10.5993 9.28551C10.586 9.25539 10.5789 9.22295 10.5782 9.19005C10.5775 9.15715 10.5833 9.12444 10.5953 9.0938L11.4 7.0205C11.4031 7.0123 11.413 7.0105 11.4169 7.0031L11.4083 7L10.4083 5H8.5209V7.0909C8.5209 7.37992 8.46397 7.66611 8.35336 7.93313C8.24276 8.20015 8.08064 8.44277 7.87627 8.64714C7.67189 8.8515 7.42927 9.01361 7.16224 9.1242C6.89522 9.2348 6.60902 9.29171 6.32 9.2917H5.3463C4.95286 9.29172 4.56334 9.21364 4.2003 9.062C3.83726 8.91036 3.50793 8.68816 3.2314 8.4083L2.3542 7.5207L1 7.5382V17H15L20.2552 16.261C21.0165 16.1539 21.7135 15.7754 22.2179 15.1952C22.7222 14.6149 23 13.872 23 13.1032V11.5L16.88 9.1243Z" fill="black"/>
</svg>
