<svg width="24" height="24" viewBox="0 0 24 24" fill="none" xmlns="http://www.w3.org/2000/svg">
<path d="M19.5 4H7V4.498H19.498C20.0284 4.498 20.5371 4.70871 20.9122 5.08379C21.2873 5.45886 21.498 5.96757 21.498 6.498V10H10.8125C5.0938 10 2 14 2 20H22V6.5C22 5.83696 21.7366 5.20107 21.2678 4.73223C20.7989 4.26339 20.163 4 19.5 4ZM10.7719 16.2C10.5346 16.2 10.3026 16.1296 10.1052 15.9978C9.90788 15.8659 9.75407 15.6785 9.66324 15.4592C9.57242 15.2399 9.54866 14.9987 9.59496 14.7659C9.64126 14.5331 9.75555 14.3193 9.92337 14.1515C10.0912 13.9836 10.305 13.8694 10.5378 13.8231C10.7706 13.7768 11.0118 13.8005 11.2311 13.8913C11.4504 13.9822 11.6378 14.136 11.7697 14.3333C11.9015 14.5307 11.9719 14.7627 11.9719 15C11.9719 15.3183 11.8455 15.6235 11.6204 15.8485C11.3954 16.0736 11.0902 16.2 10.7719 16.2ZM15.3219 16.2C15.0846 16.2 14.8526 16.1296 14.6552 15.9978C14.4579 15.8659 14.3041 15.6785 14.2132 15.4592C14.1224 15.2399 14.0987 14.9987 14.145 14.7659C14.1913 14.5331 14.3055 14.3193 14.4734 14.1515C14.6412 13.9836 14.855 13.8694 15.0878 13.8231C15.3206 13.7768 15.5618 13.8005 15.7811 13.8913C16.0004 13.9822 16.1878 14.136 16.3197 14.3333C16.4515 14.5307 16.5219 14.7627 16.5219 15C16.5219 15.3183 16.3955 15.6235 16.1704 15.8485C15.9454 16.0736 15.6402 16.2 15.3219 16.2Z" fill="black"/>
</svg>
