<svg width="24" height="24" viewBox="0 0 24 24" fill="none" xmlns="http://www.w3.org/2000/svg">
<path d="M21.3483 4.0002L21.15 5.8879H20.4749C19.571 5.89895 18.6934 6.19377 17.9661 6.7307C17.7813 6.85854 17.5854 6.96968 17.3809 7.0628L16.8958 5.716C16.4716 4.5471 15.6706 3.55256 14.6189 2.88906C13.5673 2.22556 12.3247 1.93081 11.0871 2.05125C9.84948 2.17169 8.68709 2.70048 7.78309 3.5543C6.87909 4.40813 6.28485 5.53845 6.094 6.7672C6.074 6.7538 6.054 6.7446 6.034 6.7307C5.30499 6.19711 4.42849 5.90266 3.5252 5.8879H2.85L2.6517 4.0002H1.21L3 21.0002H21L22.79 4.0002H21.3483ZM7.4746 7.593C7.48299 6.61963 7.83296 5.68012 8.46342 4.93847C9.09388 4.19682 9.96478 3.70014 10.9241 3.53513C11.8834 3.37012 12.8702 3.54726 13.7122 4.03563C14.5543 4.524 15.1981 5.29257 15.5312 6.2072L17.2686 11.0295C17.2777 11.0541 17.2816 11.0804 17.2801 11.1066C17.2785 11.1328 17.2716 11.1584 17.2598 11.1818C17.2477 11.2065 17.2307 11.2285 17.2099 11.2464C17.1891 11.2644 17.1649 11.2779 17.1387 11.2863L16.9932 11.3332C16.7001 11.4299 16.3828 11.4244 16.0932 11.3177C15.8035 11.2109 15.5586 11.0091 15.3984 10.7453L14.6777 9.5637C14.5954 9.42867 14.4712 9.32426 14.324 9.26639C14.1769 9.20852 14.0148 9.20037 13.8626 9.24319C13.7103 9.286 13.5763 9.37743 13.4809 9.50352C13.3854 9.62962 13.3339 9.78346 13.334 9.9416V14.4616C12.8396 14.7803 12.2822 14.9886 11.7 15.0724C11.1177 15.1562 10.5242 15.1134 9.96 14.947C9.42021 14.8041 8.91814 14.545 8.48886 14.1879C8.05957 13.8308 7.71343 13.3843 7.4746 12.8796V7.593ZM19.71 19.5669H4.29L2.9944 7.2551H3.5254C4.15051 7.26859 4.75563 7.47796 5.2554 7.8537C5.49842 8.02202 5.75632 8.16776 6.0259 8.2891V13.0178C6.02564 13.1041 6.04084 13.1898 6.0708 13.2707C6.37404 14.0179 6.84707 14.6843 7.45244 15.2171C8.05781 15.7498 8.77889 16.1344 9.5586 16.3402C10.0689 16.4877 10.5974 16.563 11.1286 16.5639C12.3483 16.5633 13.5335 16.1584 14.4986 15.4125C14.5871 15.345 14.6588 15.258 14.7081 15.1582C14.7574 15.0584 14.783 14.9486 14.7828 14.8373V12.219C15.1486 12.5182 15.584 12.7202 16.0487 12.8064C16.5133 12.8926 16.9922 12.8602 17.441 12.7121L17.5855 12.6652C17.7962 12.5973 17.9911 12.4878 18.1585 12.343C18.3259 12.1983 18.4625 12.0213 18.5601 11.8226C18.6577 11.624 18.7143 11.4077 18.7266 11.1867C18.7388 10.9657 18.7064 10.7445 18.6314 10.5363L17.8407 8.3402C18.1587 8.21103 18.462 8.04799 18.7451 7.8539C19.2447 7.47826 19.8497 7.26889 20.4746 7.2553H21.0056L19.71 19.5669Z" fill="black"/>
</svg>
