<svg width="24" height="24" viewBox="0 0 24 24" fill="none" xmlns="http://www.w3.org/2000/svg">
<path d="M12 2L2.453 22H21.547L12 2ZM11.8789 13.8023H10.3724C10.2672 13.8023 10.1631 13.823 10.0659 13.8633C9.96874 13.9035 9.88045 13.9625 9.80608 14.0369C9.73171 14.1112 9.67272 14.1995 9.63247 14.2967C9.59222 14.3939 9.5715 14.498 9.5715 14.6032V16.4632C9.5715 16.6756 9.65588 16.8793 9.80608 17.0295C9.95628 17.1797 10.16 17.2641 10.3724 17.2641H11.8789V18.0014H10.3273C10.1164 18.0014 9.90762 17.9599 9.7128 17.8792C9.51797 17.7985 9.34095 17.6802 9.19184 17.5311C9.04272 17.382 8.92444 17.205 8.84374 17.0102C8.76304 16.8154 8.7215 16.6066 8.7215 16.3957V14.6752C8.72149 14.4643 8.76302 14.2555 8.84371 14.0607C8.9244 13.8658 9.04269 13.6888 9.1918 13.5397C9.34092 13.3906 9.51794 13.2723 9.71277 13.1916C9.9076 13.1109 10.1164 13.0694 10.3273 13.0694H11.8789V13.8023ZM13.1426 18.0017V13.0694H14.0094V17.2643H16.254V18.0017H13.1426Z" fill="black"/>
</svg>
