<svg width="24" height="24" viewBox="0 0 24 24" fill="none" xmlns="http://www.w3.org/2000/svg">
<path d="M21.3483 4L21.0659 6.6823H20.2153C19.4803 6.69197 18.7651 6.92141 18.1616 7.3411C17.5624 7.76954 16.8443 7.99989 16.1077 7.99989C15.3711 7.99989 14.653 7.76954 14.0538 7.3411C13.4547 6.91265 12.7366 6.68229 12 6.68229C11.2634 6.68229 10.5453 6.91265 9.94621 7.3411C9.34194 7.7593 8.62709 7.98863 7.89231 8C7.15754 7.98866 6.44269 7.75937 5.83841 7.3412C5.23418 6.92307 4.51941 6.69378 3.78471 6.6824H2.93411L2.65171 4H1.21001L3.00001 21H21L22.79 4H21.3483ZM14.9326 15.8382L13.9426 16.8282L12 14.886L10.0576 16.8284L9.06761 15.8384L11.01 13.8958L9.06741 11.9534L10.0574 10.9634L12 12.9056L13.9424 10.9632L14.9324 11.9532L12.99 13.8958L14.9326 15.8382Z" fill="black"/>
</svg>
