<svg width="24" height="24" viewBox="0 0 24 24" fill="none" xmlns="http://www.w3.org/2000/svg">
<path d="M3 3V21H21V3H3ZM19.6333 10.2775C19.3069 8.8346 18.5785 7.51365 17.5324 6.46757C16.4863 5.42149 15.1654 4.69306 13.7225 4.3666H19.6333V10.2775ZM18.4629 12C18.461 13.7135 17.7795 15.3563 16.5679 16.5679C15.3563 17.7795 13.7135 18.461 12 18.4629C11.9131 18.4629 11.8286 18.4529 11.7426 18.4498L18.45 11.7426C18.4532 11.8286 18.4629 11.9131 18.4629 12ZM5.5371 12C5.53895 10.2865 6.22046 8.64369 7.43208 7.43205C8.6437 6.22041 10.2865 5.53888 12 5.537C12.0869 5.537 12.1714 5.547 12.2576 5.5501L5.55 12.2575C5.5466 12.1714 5.5371 12.0869 5.5371 12ZM13.9144 5.8268C14.695 6.07064 15.4222 6.46066 16.0571 6.9761L6.9761 16.0571C6.46066 15.4222 6.07064 14.695 5.8268 13.9144L13.9144 5.8268ZM17.0244 7.9429C17.5398 8.57784 17.9299 9.30498 18.1737 10.0856L10.0861 18.1732C9.30548 17.9294 8.57834 17.5393 7.9434 17.0239L17.0244 7.9429ZM10.2775 4.3666C8.8346 4.69306 7.51366 5.42149 6.4676 6.46757C5.42154 7.51365 4.69313 8.8346 4.3667 10.2775V4.3666H10.2775ZM4.3667 13.7225C4.69312 15.1654 5.4215 16.4863 6.46753 17.5323C7.51355 18.5784 8.83445 19.3068 10.2773 19.6333H4.3667V13.7225ZM13.7227 19.6333C15.1656 19.3068 16.4864 18.5784 17.5325 17.5323C18.5785 16.4863 19.3069 15.1654 19.6333 13.7225V19.6333H13.7227Z" fill="black"/>
</svg>
