<svg width="24" height="24" viewBox="0 0 24 24" fill="none" xmlns="http://www.w3.org/2000/svg">
<path d="M20.6992 7.18995C20.1116 7.19139 19.5322 7.32893 19.0067 7.5918C18.4811 7.85467 18.0236 8.23571 17.67 8.70505L16.6054 10.1242L15.541 8.70505C15.1885 8.23451 14.7312 7.85257 14.2053 7.58949C13.6795 7.32642 13.0997 7.18945 12.5117 7.18945C11.9237 7.18945 11.3439 7.32642 10.8181 7.58949C10.2922 7.85257 9.83493 8.23451 9.4824 8.70505L8.4973 10.0182L7.8193 9.11425C7.36997 8.51809 6.78865 8.0341 6.12093 7.70024C5.45321 7.36638 4.71723 7.19172 3.9707 7.18995H1.0488V16.811H3.3008C3.88852 16.8094 4.46788 16.6717 4.99345 16.4087C5.51902 16.1456 5.9765 15.7644 6.33 15.2949L7.3946 13.8758L8.459 15.2949C8.81153 15.7654 9.26884 16.1473 9.79465 16.4104C10.3205 16.6735 10.9003 16.8105 11.4883 16.8105C12.0763 16.8105 12.6561 16.6735 13.1819 16.4104C13.7078 16.1473 14.1651 15.7654 14.5176 15.2949L15.5027 13.9818L16.1807 14.8857C16.63 15.4819 17.2113 15.966 17.879 16.2999C18.5467 16.6339 19.2827 16.8086 20.0293 16.8105H22.9512V7.18995H20.6992ZM5.1836 14.4355C4.96378 14.7271 4.6794 14.9639 4.35274 15.1273C4.02608 15.2906 3.66602 15.3761 3.3008 15.377H2.4824V8.62295H3.9707C4.4948 8.6242 5.01151 8.74678 5.48032 8.9811C5.94913 9.21542 6.35732 9.55511 6.6729 9.97355L7.6018 11.2121L5.1836 14.4355ZM13.3711 14.4355C13.1519 14.7278 12.8676 14.965 12.5408 15.1284C12.214 15.2918 11.8537 15.3769 11.4883 15.3769C11.1229 15.3769 10.7626 15.2918 10.4358 15.1284C10.109 14.965 9.82471 14.7278 9.6055 14.4355L8.29 12.6819L10.6286 9.56445C10.8478 9.27214 11.1321 9.03488 11.4589 8.87147C11.7857 8.70806 12.146 8.62299 12.5114 8.62299C12.8768 8.62299 13.2371 8.70806 13.5639 8.87147C13.8907 9.03488 14.175 9.27214 14.3942 9.56445L15.71 11.3181L13.3711 14.4355ZM20.0293 15.377C19.5052 15.3757 18.9885 15.2531 18.5197 15.0188C18.0509 14.7845 17.6427 14.4448 17.3271 14.0264L16.3982 12.7879L18.8164 9.56445C19.0362 9.27279 19.3206 9.036 19.6473 8.87265C19.9739 8.7093 20.334 8.62384 20.6992 8.62295H21.5176V15.377H20.0293Z" fill="black"/>
</svg>
