<svg width="24" height="24" viewBox="0 0 24 24" fill="none" xmlns="http://www.w3.org/2000/svg">
<path d="M9.7129 7.34086C10.3981 6.91041 11.1908 6.68207 12 6.68207C12.8092 6.68207 13.6019 6.91041 14.2871 7.34086C14.9757 7.76356 15.7661 7.99133 16.574 7.99986C16.8535 7.99641 17.1319 7.96455 17.405 7.90476L16.5486 5.29646C16.1829 4.18302 15.4324 3.23635 14.4317 2.62636C13.431 2.01637 12.2457 1.783 11.0885 1.96813C9.93124 2.15327 8.87787 2.74478 8.11742 3.63651C7.35698 4.52825 6.93925 5.66181 6.9392 6.83376L6.9539 7.96626C7.11046 7.9865 7.26805 7.99772 7.4259 7.99986C8.23384 7.99134 9.02431 7.76357 9.7129 7.34086ZM22.2866 3.99986L22.0044 6.68206H21.1482C20.34 6.68884 19.5491 6.91667 18.8611 7.34086C18.4103 7.60816 17.9182 7.79869 17.405 7.90466L18.4276 11.0188C18.4501 11.0797 18.4481 11.147 18.4218 11.2064C18.3956 11.2659 18.3473 11.3127 18.2871 11.3372L17.9816 11.4614C17.7774 11.5446 17.5506 11.5542 17.3401 11.4885C17.1296 11.4228 16.9485 11.2859 16.8279 11.1014L15.47 8.87636V15.9629C15.47 16.155 15.3937 16.3393 15.2578 16.4752C15.1219 16.611 14.9376 16.6874 14.7455 16.6874C14.5533 16.6874 14.3691 16.611 14.2332 16.4752C14.0973 16.3393 14.021 16.155 14.021 15.9629V11.2499H13.121V16.7233C13.121 16.9154 13.0447 17.0997 12.9088 17.2356C12.7729 17.3714 12.5886 17.4478 12.3965 17.4478C12.2043 17.4478 12.0201 17.3714 11.8842 17.2356C11.7483 17.0997 11.672 16.9154 11.672 16.7233V11.2423C11.3706 11.2348 11.07 11.2081 10.772 11.1623V15.9623C10.772 16.1544 10.6957 16.3387 10.5598 16.4746C10.4239 16.6104 10.2396 16.6868 10.0475 16.6868C9.85535 16.6868 9.67107 16.6104 9.5352 16.4746C9.39933 16.3387 9.323 16.1544 9.323 15.9623V10.7837C9.01271 10.6619 8.71188 10.5173 8.423 10.351V14.8674C8.42708 15.0212 8.36989 15.1703 8.26401 15.282C8.15813 15.3937 8.01222 15.4587 7.8584 15.4628C7.70457 15.4668 7.55543 15.4097 7.44377 15.3038C7.33211 15.1979 7.26708 15.052 7.263 14.8982L6.9734 9.47066L6.9539 7.96626C6.31162 7.88787 5.69313 7.67476 5.1389 7.34086C4.45022 6.91828 3.65975 6.69058 2.8518 6.68206H1.9956L1.7134 3.99986H1.21L3 20.9999H21L22.79 3.99986H22.2866Z" fill="black"/>
</svg>
