<svg width="24" height="24" viewBox="0 0 24 24" fill="none" xmlns="http://www.w3.org/2000/svg">
<path d="M3 3V21H21V3H3ZM19.197 4.8L17.6729 6.3242C16.928 7.06927 16.0436 7.6603 15.0702 8.06354C14.0968 8.46677 13.0536 8.67432 12 8.67432C10.9464 8.67432 9.90315 8.46677 8.92979 8.06354C7.95642 7.6603 7.07202 7.06927 6.3271 6.3242L4.803 4.8H19.197ZM4.8 19.2V7.343L5.0537 7.5967C5.96588 8.50894 7.04881 9.23258 8.24066 9.72628C9.43251 10.22 10.7099 10.4741 12 10.4741C13.2901 10.4741 14.5675 10.22 15.7593 9.72628C16.9512 9.23258 18.0341 8.50894 18.9463 7.5967L19.2 7.343V19.2H4.8Z" fill="black"/>
</svg>
