<svg width="24" height="24" viewBox="0 0 24 24" fill="none" xmlns="http://www.w3.org/2000/svg">
<path d="M12 2L2.453 22H21.547L12 2ZM11.8652 13.1594H10.442C10.1268 13.1594 9.82447 13.2846 9.60157 13.5075C9.37867 13.7304 9.25343 14.0327 9.2534 14.3479V16.01C9.2534 16.1661 9.28415 16.3206 9.34388 16.4649C9.40361 16.6091 9.49116 16.7401 9.60154 16.8505C9.71191 16.9608 9.84294 17.0484 9.98715 17.1081C10.1314 17.1679 10.2859 17.1986 10.442 17.1986H11.8652V17.6486H10.394C10.1818 17.6486 9.97177 17.6068 9.77577 17.5256C9.57977 17.4444 9.40168 17.3254 9.25167 17.1754C9.10167 17.0254 8.98268 16.8473 8.90151 16.6512C8.82034 16.4552 8.77858 16.2452 8.7786 16.033V14.3315C8.7786 13.9031 8.9488 13.4922 9.25174 13.1892C9.55469 12.8863 9.96557 12.7161 10.394 12.7161H11.8652V13.1594ZM13.2708 17.6484V12.7161H13.7708V17.1984H16.2717V17.6484H13.2708Z" fill="black"/>
</svg>
