<svg width="24" height="24" viewBox="0 0 24 24" fill="none" xmlns="http://www.w3.org/2000/svg">
<path d="M12.8511 10.1666H11.1168V11.7966H12.8511C12.9958 11.7964 13.1346 11.7389 13.2369 11.6365C13.3393 11.5342 13.3968 11.3954 13.397 11.2507V10.7127C13.3969 10.5679 13.3394 10.4291 13.237 10.3267C13.1347 10.2244 12.9959 10.1668 12.8511 10.1666ZM12 2C10.0222 2 8.08879 2.58649 6.4443 3.6853C4.79981 4.78412 3.51809 6.3459 2.76121 8.17317C2.00433 10.0004 1.8063 12.0111 2.19215 13.9509C2.578 15.8907 3.53041 17.6725 4.92894 19.0711C6.32746 20.4696 8.10929 21.422 10.0491 21.8079C11.9889 22.1937 13.9996 21.9957 15.8268 21.2388C17.6541 20.4819 19.2159 19.2002 20.3147 17.5557C21.4135 15.9112 22 13.9778 22 12C21.9971 9.34874 20.9426 6.8069 19.0678 4.93218C17.1931 3.05745 14.6513 2.00294 12 2ZM14.5637 11.2505C14.5637 11.7047 14.3833 12.1403 14.0621 12.4615C13.7409 12.7827 13.3053 12.9631 12.8511 12.9631H11.1168V15H9.95V9H12.851C13.3052 9 13.7408 9.18042 14.062 9.50157C14.3831 9.82273 14.5636 10.2583 14.5636 10.7125L14.5637 11.2505Z" fill="black"/>
</svg>
