<svg width="24" height="24" viewBox="0 0 24 24" fill="none" xmlns="http://www.w3.org/2000/svg">
<path d="M3 3V21H21V3H3ZM4.3667 4.3666H10.2775C8.83464 4.69306 7.51373 5.42147 6.46767 6.46751C5.42162 7.51355 4.69319 8.83444 4.3667 10.2773V4.3666ZM4.3667 19.6333V13.7227C4.69314 15.1655 5.42154 16.4864 6.46756 17.5324C7.51359 18.5785 8.83447 19.3069 10.2773 19.6333H4.3667ZM5.5371 12C5.5371 10.7218 5.91614 9.47222 6.6263 8.4094C7.33645 7.34659 8.34581 6.51822 9.52676 6.02906C10.7077 5.5399 12.0072 5.41191 13.2608 5.66128C14.5145 5.91066 15.6661 6.52619 16.57 7.43004C17.4738 8.33389 18.0893 9.48547 18.3387 10.7392C18.5881 11.9928 18.4601 13.2923 17.9709 14.4732C17.4818 15.6542 16.6534 16.6636 15.5906 17.3737C14.5278 18.0839 13.2782 18.4629 12 18.4629C10.2865 18.461 8.64374 17.7795 7.43212 16.5679C6.22049 15.3563 5.53898 13.7135 5.5371 12ZM19.6333 19.6333H13.7227C15.1655 19.3069 16.4864 18.5785 17.5324 17.5324C18.5785 16.4864 19.3069 15.1655 19.6333 13.7227V19.6333ZM19.6333 10.2773C19.3068 8.83444 18.5784 7.51355 17.5323 6.46751C16.4863 5.42147 15.1654 4.69306 13.7225 4.3666H19.6333V10.2773ZM13.9424 9.0673L12 11.01L10.0576 9.0674L9.0676 10.0574L11.01 12L9.0674 13.9424L10.0574 14.9324L12 12.99L13.9424 14.9324L14.9324 13.9424L12.99 12L14.9324 10.0576L13.9424 9.0673Z" fill="black"/>
</svg>
