<svg width="24" height="24" viewBox="0 0 24 24" fill="none" xmlns="http://www.w3.org/2000/svg">
<path d="M22.2866 4L22.0656 6.1006H21.9256C20.9794 6.11443 20.0615 6.42531 19.3016 6.9893C18.631 7.50505 17.8087 7.78468 16.9627 7.78468C16.1167 7.78468 15.2944 7.50505 14.6238 6.9893C13.8695 6.41532 12.9477 6.10452 11.9998 6.10452C11.0519 6.10452 10.1302 6.41532 9.37581 6.9893C8.69785 7.4909 7.88106 7.76998 7.03791 7.7881C6.19447 7.76985 5.3774 7.49079 4.69901 6.9893C3.93732 6.42879 3.02054 6.11829 2.07501 6.1006H1.93441L1.71341 4H1.21001L3.00001 21H21L22.79 4H22.2866ZM20.55 20.5H3.45001L1.98711 6.6006H2.07521C2.91865 6.61881 3.73574 6.89787 4.41411 7.3994C5.1758 7.95991 6.09257 8.27041 7.03811 8.2881C7.98339 8.27071 8.89993 7.96017 9.66111 7.3994C10.3317 6.88365 11.154 6.60402 12 6.60402C12.846 6.60402 13.6683 6.88365 14.3389 7.3994C15.1006 7.95991 16.0174 8.27041 16.9629 8.2881C17.9084 8.27041 18.8252 7.95991 19.5869 7.3994C20.2638 6.89496 21.0818 6.61558 21.9258 6.6006H22.0129L20.55 20.5ZM14.2608 11.2816L12 13.5423L9.73931 11.2816L9.38571 11.6351L11.6465 13.8958L9.38571 16.1566L9.73931 16.5101L12 14.2493L14.2607 16.51L14.6143 16.1565L12.3535 13.8957L14.6143 11.635L14.2608 11.2816Z" fill="black"/>
</svg>
