<svg width="24" height="24" viewBox="0 0 24 24" fill="none" xmlns="http://www.w3.org/2000/svg">
<path d="M10.0576 7.93258L12 5.98998L13.9424 7.93238L14.9324 6.94238L12.99 4.99998L14.9324 3.05758L13.9424 2.06758L12 4.00998L10.0576 2.06738L9.0676 3.05738L11.01 4.99998L9.0674 6.94238L10.0576 7.93258ZM7.3552 11.6583C7.10603 11.16 6.72302 10.7409 6.24909 10.448C5.77516 10.1551 5.22903 9.99997 4.6719 9.99998H1V20H2.4219C2.97904 20 3.52518 19.8448 3.99911 19.5519C4.47304 19.259 4.85605 18.8399 5.1052 18.3416L7.901 12.75L7.3552 11.6583ZM21.5812 9.99998C21.0241 9.99997 20.4779 10.1551 20.004 10.448C19.5301 10.7409 19.1471 11.16 18.8979 11.6583L16.1021 17.25L16.6479 18.3416C16.8971 18.8399 17.2801 19.259 17.754 19.5519C18.2279 19.8448 18.7741 20 19.3312 20H23V9.99998H21.5812ZM16.4212 12.0471C16.1136 11.432 15.6409 10.9146 15.0558 10.5531C14.4708 10.1915 13.7967 9.99999 13.1089 9.99999C12.4212 9.99999 11.7471 10.1915 11.1621 10.5531C10.577 10.9146 10.1043 11.432 9.7967 12.0471L7.2112 17.2188L7.5784 17.9528C7.88593 18.5679 8.3587 19.0853 8.94372 19.4469C9.52874 19.8085 10.2029 20 10.8906 20C11.5784 20 12.2526 19.8085 12.8376 19.4469C13.4226 19.0853 13.8954 18.5679 14.2029 17.9528L16.7888 12.7812L16.4212 12.0471Z" fill="black"/>
</svg>
