<svg width="24" height="24" viewBox="0 0 24 24" fill="none" xmlns="http://www.w3.org/2000/svg">
<path d="M22 5.8333C22 5.08186 21.7015 4.3612 21.1701 3.82985C20.6388 3.29851 19.9181 3 19.1667 3H7V4.4993H19.166C19.5196 4.4993 19.8587 4.63977 20.1088 4.88981C20.3588 5.13986 20.4993 5.47899 20.4993 5.8326V8H10.8125C5.0938 8 2 12 2 18H6.3292L5.1458 22H6.6458L7.8292 18H11.2847V22H12.7153V18H16.1708L17.3542 22H18.8542L17.6708 18H22V5.8333ZM20.5 16.5H3.5975C3.9347 12.7457 5.9731 9.5 10.8125 9.5H20.4993V13H20.5V16.5ZM14.579 10.5557L13.125 12.01L11.671 10.5559L10.681 11.5459L12.1348 13L10.6807 14.454L11.6707 15.444L13.125 13.99L14.579 15.4441L15.569 14.4541L14.1152 13L15.5693 11.546L14.579 10.5557Z" fill="black"/>
</svg>
