<svg width="24" height="24" viewBox="0 0 24 24" fill="none" xmlns="http://www.w3.org/2000/svg">
<path d="M18.69 3.6221C17.9504 3.21409 17.1194 3.00007 16.2747 3H7.7006C6.8517 2.99999 6.01678 3.21611 5.2745 3.628L1 6L3.1075 10.265L6 9.2917V19H7.1732C7.73512 19 8.28833 19.1388 8.78376 19.404C9.27918 19.6691 9.70148 20.0525 10.0132 20.52L11 22H13L13.9866 20.52C14.2983 20.0525 14.7206 19.6691 15.216 19.404C15.7115 19.1388 16.2647 19 16.8266 19H18V9.2917L20.8925 10.265L23 6L18.69 3.6221ZM14.5 3.5C14.5 4.16304 14.2366 4.79893 13.7678 5.26777C13.2989 5.73661 12.663 6 12 6C11.337 6 10.7011 5.73661 10.2322 5.26777C9.76339 4.79893 9.5 4.16304 9.5 3.5H14.5ZM20.6378 9.6517L18.16 8.8177L17.5 8.5959V18.5H16.8268C16.1824 18.4993 15.5478 18.6581 14.9797 18.9621C14.4115 19.2662 13.9275 19.7061 13.5706 20.2427L12.7324 21.5H11.2676L10.4294 20.2426C10.0725 19.7061 9.58843 19.2662 9.02028 18.9621C8.45214 18.6581 7.81759 18.4993 7.1732 18.5H6.5V8.5959L5.84 8.8177L3.3617 9.6517L1.6594 6.2059L5.5171 4.0652C6.18533 3.69494 6.93665 3.50047 7.7006 3.5H9C9 4.29565 9.31607 5.05871 9.87868 5.62132C10.4413 6.18393 11.2044 6.5 12 6.5C12.7956 6.5 13.5587 6.18393 14.1213 5.62132C14.6839 5.05871 15 4.29565 15 3.5H16.2747C17.0349 3.50052 17.7827 3.69315 18.4485 4.06L22.34 6.2069L20.6378 9.6517Z" fill="black"/>
</svg>
