<svg width="24" height="24" viewBox="0 0 24 24" fill="none" xmlns="http://www.w3.org/2000/svg">
<path d="M19.3333 4H7V4.9987H19.332C19.774 4.9987 20.1979 5.17428 20.5105 5.48683C20.8231 5.79938 20.9987 6.22328 20.9987 6.6653V10H10.8125C5.0938 10 2 14 2 20H22V6.6666C22 5.95936 21.719 5.2811 21.2189 4.78102C20.7188 4.28094 20.0405 4 19.3333 4ZM15.916 17.084L15.209 17.791L13.125 15.707L11.041 17.791L10.334 17.084L12.418 15L10.334 12.916L11.041 12.209L13.125 14.293L15.209 12.209L15.916 12.916L13.832 15L15.916 17.084Z" fill="black"/>
</svg>
