<svg width="24" height="24" viewBox="0 0 24 24" fill="none" xmlns="http://www.w3.org/2000/svg">
<path d="M18.1063 4.1193L15.2876 3H8.71369L5.89399 4.1194C5.23707 4.37914 4.67342 4.83039 4.27624 5.41455C3.87905 5.99871 3.66667 6.6888 3.66669 7.3952V20H6.99999V21H17V20H20.3334V7.395C20.3334 6.68864 20.1211 5.99858 19.7239 5.41444C19.3268 4.8303 18.7632 4.37905 18.1063 4.1193ZM14.1832 3.9667C14.1527 4.52511 13.9094 5.05061 13.5033 5.43512C13.0973 5.81964 12.5593 6.03393 12 6.03393C11.4408 6.03393 10.9028 5.81964 10.4967 5.43512C10.0907 5.05061 9.84737 4.52511 9.81689 3.9667H14.1832ZM19.3667 19.0333H17V9H16.0333V20.0333H7.96669V9H6.99999V19.0333H4.63339V7.45C4.63339 7.4035 4.63509 7.3026 4.63839 7.2569C4.66372 6.76937 4.82855 6.29939 5.11328 5.90283C5.39801 5.50628 5.79064 5.19985 6.24449 5.02L8.51559 4.12L8.85329 4.03C8.90022 4.8372 9.25545 5.59553 9.84557 6.14829C10.4357 6.70104 11.2156 7.00598 12.0242 7.00008C12.8327 6.99419 13.6081 6.67792 14.1901 6.11662C14.7721 5.55533 15.1162 4.7919 15.1514 3.9841L17.7557 5.02C18.2056 5.19818 18.5954 5.50081 18.8795 5.89248C19.1636 6.28415 19.3303 6.74865 19.36 7.2316C19.3647 7.2856 19.3671 7.3967 19.3671 7.4516L19.3667 19.0333Z" fill="black"/>
</svg>
