<svg width="24" height="24" viewBox="0 0 24 24" fill="none" xmlns="http://www.w3.org/2000/svg">
<path d="M12 5.2333C12.5921 5.23261 13.1597 4.9971 13.5784 4.57842C13.9971 4.15975 14.2326 3.5921 14.2333 3H9.7667C9.76739 3.5921 10.0029 4.15975 10.4216 4.57842C10.8403 4.9971 11.4079 5.23261 12 5.2333ZM18.606 3.5174C18.0057 3.17823 17.3279 3 16.6384 3H15.1667C15.162 3.83677 14.8263 4.63766 14.2329 5.22768C13.6396 5.81771 12.8368 6.1489 12 6.1489C11.1633 6.1489 10.3605 5.81771 9.76716 5.22768C9.1738 4.63766 8.8381 3.83677 8.8334 3H7.3617C6.67217 2.99998 5.99434 3.17822 5.394 3.5174L1 6L3.1075 10.265L6 9.4062V21H18V9.4062L20.8925 10.265L23 6L18.606 3.5174ZM13.75 12H10.25C9.71957 12 9.21086 11.7893 8.83579 11.4142C8.46071 11.0391 8.25 10.5304 8.25 10C8.25 9.46957 8.46071 8.96086 8.83579 8.58579C9.21086 8.21071 9.71957 8 10.25 8H13.75C14.2804 8 14.7891 8.21071 15.1642 8.58579C15.5393 8.96086 15.75 9.46957 15.75 10C15.75 10.5304 15.5393 11.0391 15.1642 11.4142C14.7891 11.7893 14.2804 12 13.75 12Z" fill="black"/>
</svg>
