<svg width="24" height="24" viewBox="0 0 24 24" fill="none" xmlns="http://www.w3.org/2000/svg">
<path d="M20.6 10.1333L20 9.3333V4H18V8.5764L16.5044 9.4384C15.4391 10.0524 14.5543 10.9363 13.9391 12.0009C13.3239 13.0656 13 14.2735 13 15.5031V17H11V15.5031C11 14.2735 10.6761 13.0656 10.0609 12.0009C9.44577 10.9363 8.56101 10.0524 7.4957 9.4384L6 8.5764V4H4V9.3333L3.4 10.1333C2.49125 11.345 2 12.8187 2 14.3333V19H22V14.3333C22 12.8187 21.5088 11.345 20.6 10.1333ZM4 17V14.3333C4.00226 13.2518 4.35292 12.1998 5 11.3333L5.5367 10.6177L6.4967 11.1712C7.25676 11.6108 7.88803 12.2423 8.32735 13.0026C8.76667 13.7628 8.99862 14.6251 9 15.5031V17H4ZM20 17H15V15.5031C15.0014 14.6251 15.2333 13.7628 15.6726 13.0026C16.1119 12.2424 16.7431 11.6109 17.5031 11.1712L18.4631 10.6177L19 11.3333C19.6471 12.1998 19.9978 13.2518 20 14.3333V17Z" fill="black"/>
</svg>
