<svg width="24" height="24" viewBox="0 0 24 24" fill="none" xmlns="http://www.w3.org/2000/svg">
<path d="M21.8174 4L21.5352 6.6822H20.6818C19.9102 6.69037 19.1571 6.91899 18.5112 7.3411C17.8689 7.77062 17.1135 7.99989 16.3408 7.99989C15.5681 7.99989 14.8127 7.77062 14.1704 7.3411C13.5281 6.91152 12.7727 6.68221 12 6.68221C11.2273 6.68221 10.4719 6.91152 9.82959 7.3411C9.18303 7.76164 8.43042 7.99011 7.65919 8C6.8879 7.99019 6.13522 7.76174 5.48859 7.3412C4.84216 6.92069 4.08969 6.69221 3.31859 6.6823H2.46479L2.18259 4H1.20999L2.99999 21H21L22.79 4H21.8174Z" fill="black"/>
</svg>
