<svg width="24" height="24" viewBox="0 0 24 24" fill="none" xmlns="http://www.w3.org/2000/svg">
<path d="M19.5 4H7V4.498H19.498C20.0284 4.498 20.5371 4.70871 20.9122 5.08379C21.2873 5.45886 21.498 5.96757 21.498 6.498V10H10.8125C5.0938 10 2 14 2 20H22V6.5C22 5.83696 21.7366 5.20107 21.2678 4.73223C20.7989 4.26339 20.163 4 19.5 4ZM21.5 19.5H2.5074C2.6774 13.8527 5.7549 10.5 10.8125 10.5H21.498V14H21.5V19.5ZM17.2969 13.5C17.0002 13.5 16.7102 13.588 16.4635 13.7528C16.2169 13.9176 16.0246 14.1519 15.9111 14.426C15.7975 14.7001 15.7678 15.0017 15.8257 15.2926C15.8836 15.5836 16.0265 15.8509 16.2362 16.0607C16.446 16.2704 16.7133 16.4133 17.0043 16.4712C17.2952 16.5291 17.5968 16.4993 17.8709 16.3858C18.145 16.2723 18.3793 16.08 18.5441 15.8334C18.7089 15.5867 18.7969 15.2967 18.7969 15C18.7969 14.6022 18.6389 14.2206 18.3576 13.9393C18.0763 13.658 17.6947 13.5 17.2969 13.5ZM17.2969 16C17.0991 16 16.9058 15.9414 16.7413 15.8315C16.5769 15.7216 16.4487 15.5654 16.373 15.3827C16.2973 15.2 16.2775 14.9989 16.3161 14.8049C16.3547 14.6109 16.4499 14.4327 16.5898 14.2929C16.7296 14.153 16.9078 14.0578 17.1018 14.0192C17.2958 13.9806 17.4969 14.0004 17.6796 14.0761C17.8623 14.1518 18.0185 14.28 18.1284 14.4444C18.2383 14.6089 18.2969 14.8022 18.2969 15C18.2966 15.2651 18.1912 15.5193 18.0037 15.7068C17.8162 15.8943 17.562 15.9997 17.2969 16ZM8.7969 13.5C8.50023 13.5 8.21022 13.588 7.96354 13.7528C7.71687 13.9176 7.52461 14.1519 7.41108 14.426C7.29755 14.7001 7.26784 15.0017 7.32572 15.2926C7.3836 15.5836 7.52646 15.8509 7.73624 16.0607C7.94602 16.2704 8.21329 16.4133 8.50426 16.4712C8.79524 16.5291 9.09684 16.4993 9.37092 16.3858C9.64501 16.2723 9.87928 16.08 10.0441 15.8334C10.2089 15.5867 10.2969 15.2967 10.2969 15C10.2969 14.6022 10.1389 14.2206 9.85756 13.9393C9.57626 13.658 9.19472 13.5 8.7969 13.5ZM8.7969 16C8.59912 16 8.40578 15.9414 8.24133 15.8315C8.07688 15.7216 7.94871 15.5654 7.87302 15.3827C7.79733 15.2 7.77753 14.9989 7.81611 14.8049C7.8547 14.6109 7.94994 14.4327 8.08979 14.2929C8.22965 14.153 8.40783 14.0578 8.60181 14.0192C8.79579 13.9806 8.99686 14.0004 9.17958 14.0761C9.36231 14.1518 9.51849 14.28 9.62837 14.4444C9.73825 14.6089 9.7969 14.8022 9.7969 15C9.79661 15.2651 9.69116 15.5193 9.50368 15.7068C9.31621 15.8943 9.06203 15.9997 8.7969 16ZM13.0469 13.5C12.7502 13.5 12.4602 13.588 12.2135 13.7528C11.9669 13.9176 11.7746 14.1519 11.6611 14.426C11.5475 14.7001 11.5178 15.0017 11.5757 15.2926C11.6336 15.5836 11.7765 15.8509 11.9862 16.0607C12.196 16.2704 12.4633 16.4133 12.7543 16.4712C13.0452 16.5291 13.3468 16.4993 13.6209 16.3858C13.895 16.2723 14.1293 16.08 14.2941 15.8334C14.4589 15.5867 14.5469 15.2967 14.5469 15C14.5469 14.6022 14.3889 14.2206 14.1076 13.9393C13.8263 13.658 13.4447 13.5 13.0469 13.5ZM13.0469 16C12.8491 16 12.6558 15.9414 12.4913 15.8315C12.3269 15.7216 12.1987 15.5654 12.123 15.3827C12.0473 15.2 12.0275 14.9989 12.0661 14.8049C12.1047 14.6109 12.1999 14.4327 12.3398 14.2929C12.4796 14.153 12.6578 14.0578 12.8518 14.0192C13.0458 13.9806 13.2469 14.0004 13.4296 14.0761C13.6123 14.1518 13.7685 14.28 13.8784 14.4444C13.9883 14.6089 14.0469 14.8022 14.0469 15C14.0466 15.2651 13.9412 15.5193 13.7537 15.7068C13.5662 15.8943 13.312 15.9997 13.0469 16Z" fill="black"/>
</svg>
