<svg width="24" height="24" viewBox="0 0 24 24" fill="none" xmlns="http://www.w3.org/2000/svg">
<path d="M7.3884 8.6583C7.13924 8.16001 6.75625 7.74094 6.28234 7.44804C5.80842 7.15515 5.26232 7.00001 4.7052 7H1V17H2.4552C3.01233 17 3.55844 16.8448 4.03235 16.5519C4.50627 16.259 4.88925 15.8399 5.1384 15.3416L7.9343 9.75L7.3884 8.6583ZM21.5487 7C20.9916 7.00001 20.4455 7.15515 19.9716 7.44804C19.4977 7.74094 19.1147 8.16001 18.8655 8.6583L16.07 14.25L16.6159 15.3416C16.865 15.8399 17.2479 16.2589 17.7218 16.5518C18.1956 16.8447 18.7416 16.9999 19.2987 17H23V7H21.5487ZM16.4216 9.0471C16.114 8.43197 15.6413 7.91464 15.0562 7.55308C14.4712 7.19152 13.7971 7.00001 13.1094 7.00001C12.4216 7.00001 11.7475 7.19152 11.1625 7.55308C10.5774 7.91464 10.1047 8.43197 9.7971 9.0471L7.2112 14.2188L7.5784 14.9528C7.88593 15.568 8.3587 16.0853 8.94372 16.4469C9.52874 16.8085 10.2029 17 10.8906 17C11.5784 17 12.2526 16.8085 12.8376 16.4469C13.4226 16.0853 13.8954 15.568 14.2029 14.9528L16.7888 9.7812L16.4216 9.0471Z" fill="black"/>
</svg>
