<svg width="24" height="24" viewBox="0 0 24 24" fill="none" xmlns="http://www.w3.org/2000/svg">
<path d="M21.0977 7.46875C20.5607 7.47016 20.0314 7.59581 19.5511 7.83586C19.0708 8.07591 18.6525 8.42385 18.3291 8.85245L16.8164 10.8693L15.3037 8.85245C14.9812 8.42281 14.5632 8.07412 14.0827 7.83396C13.6022 7.59381 13.0723 7.46878 12.5351 7.46878C11.998 7.46878 11.4681 7.59381 10.9876 7.83396C10.5071 8.07412 10.0891 8.42281 9.7666 8.85245L8.3366 10.7585L7.2285 9.28115C6.80515 8.71976 6.25758 8.264 5.62868 7.94956C4.99978 7.63513 4.30662 7.47056 3.6035 7.46875H1.0469V16.5312H2.9023C3.43925 16.5297 3.96859 16.4041 4.4489 16.164C4.9292 15.924 5.34745 15.5761 5.6709 15.1474L7.1836 13.1305L8.6963 15.1474C9.01876 15.5771 9.4368 15.9258 9.91732 16.1659C10.3978 16.4061 10.9277 16.5311 11.4648 16.5311C12.002 16.5311 12.5319 16.4061 13.0124 16.1659C13.4929 15.9258 13.9109 15.5771 14.2334 15.1474L15.6634 13.2414L16.7718 14.7187C17.1951 15.2801 17.7427 15.7359 18.3716 16.0503C19.0005 16.3648 19.6937 16.5293 20.3968 16.5312H22.9534V7.46875H21.0977ZM5.2705 14.8466C4.99417 15.2137 4.6365 15.5117 4.2256 15.7172C3.81469 15.9227 3.36173 16.0302 2.9023 16.0312H1.5469V7.96875H3.6035C4.2291 7.97015 4.84586 8.11655 5.40535 8.39645C5.96485 8.67635 6.45184 9.08214 6.8281 9.58195L8.0239 11.1758L5.2705 14.8466ZM13.833 14.8466C13.5573 15.2143 13.1998 15.5128 12.7887 15.7183C12.3777 15.9238 11.9244 16.0309 11.4648 16.0309C11.0053 16.0309 10.552 15.9238 10.141 15.7183C9.72994 15.5128 9.37241 15.2143 9.0967 14.8466L7.4967 12.7132L10.1667 9.15325C10.4424 8.78557 10.7999 8.48714 11.211 8.2816C11.622 8.07606 12.0753 7.96905 12.5348 7.96905C12.9944 7.96905 13.4477 8.07606 13.8587 8.2816C14.2698 8.48714 14.6273 8.78557 14.903 9.15325L16.503 11.2867L13.833 14.8466ZM22.453 16.0312H20.3965C19.7709 16.0298 19.1541 15.8834 18.5946 15.6035C18.0351 15.3235 17.5482 14.9178 17.1719 14.418L15.9761 12.8241L18.73 9.15325C19.0063 8.7862 19.364 8.48822 19.7749 8.2827C20.1858 8.07717 20.6388 7.96971 21.0982 7.96875H22.4536L22.453 16.0312Z" fill="black"/>
</svg>
