<svg width="24" height="24" viewBox="0 0 24 24" fill="none" xmlns="http://www.w3.org/2000/svg">
<path d="M22 16.603V13.7762C22 12.9821 21.7636 12.206 21.321 11.5467C20.8783 10.8874 20.2495 10.3748 19.5145 10.0741L12 7V2H9L6.2917 3H3V15C3 15.5304 3.21071 16.0391 3.58579 16.4142C3.96086 16.7893 4.46957 17 5 17V19.0752H3V20.9252H19.0908C19.6678 20.9259 20.2378 20.799 20.7601 20.5538C21.2823 20.3085 21.7439 19.9508 22.1118 19.5063L23.2666 18.1147L22 16.603ZM4.85 4.85H6.6224L9.3307 3.85H10.15V5.1938H9.2021C8.96341 5.1938 8.73449 5.28862 8.5657 5.4574C8.39692 5.62619 8.3021 5.85511 8.3021 6.0938C8.3021 6.33249 8.39692 6.56141 8.5657 6.7302C8.73449 6.89898 8.96341 6.9938 9.2021 6.9938H10.15V7.962L9.6357 8.4537C9.46322 8.6187 9.36335 8.84547 9.35806 9.08411C9.35277 9.32275 9.4425 9.55372 9.6075 9.7262C9.7725 9.89868 9.99927 9.99855 10.2379 10.0038C10.4765 10.0091 10.7075 9.9194 10.88 9.7544L11.7691 8.9044L12.8436 9.3444L12.4557 10.2936C12.3655 10.5145 12.3667 10.7622 12.4591 10.9822C12.5515 11.2023 12.7274 11.3766 12.9483 11.4669C13.0561 11.5114 13.1716 11.5343 13.2883 11.5343C13.4671 11.5343 13.642 11.4811 13.7904 11.3813C13.9389 11.2816 14.0542 11.1399 14.1218 10.9743L14.1618 10.8758L14.1674 10.8664L14.5109 10.0264L15.8957 10.5929L15.537 11.4696C15.4466 11.6905 15.4477 11.9383 15.54 12.1585C15.6323 12.3786 15.8082 12.5531 16.0292 12.6434C16.2501 12.7338 16.4979 12.7328 16.718 12.6405C16.9381 12.5482 17.1126 12.3722 17.203 12.1513L17.244 12.0513L17.2489 12.0431L17.5634 11.2753L18.814 11.7869C19.2097 11.9477 19.5482 12.223 19.7863 12.5776C20.0243 12.9322 20.1509 13.3498 20.1499 13.7769V15.15H4.85V4.85ZM7 17H14V19.0752H7V17ZM20.688 18.3242C20.4937 18.5595 20.2497 18.7488 19.9736 18.8787C19.6974 19.0085 19.3959 19.0756 19.0908 19.0752H16V17H19.9193L20.8574 18.12L20.688 18.3242Z" fill="black"/>
</svg>
