<svg width="24" height="24" viewBox="0 0 24 24" fill="none" xmlns="http://www.w3.org/2000/svg">
<path d="M22.2866 4.00003L22.0656 6.10063H21.9256C20.9794 6.11445 20.0615 6.42533 19.3016 6.98932C18.801 7.34423 18.2303 7.5878 17.6277 7.70362L16.9617 5.96683C16.5182 4.82517 15.7411 3.84357 14.7317 3.14994C13.7222 2.45632 12.5273 2.08282 11.3025 2.07812C9.94352 2.07979 8.64068 2.62039 7.67975 3.58134C6.71881 4.5423 6.17824 5.84515 6.1766 7.20413V7.65703C5.64715 7.52734 5.14621 7.30098 4.699 6.98932C3.93731 6.42881 3.02053 6.11832 2.075 6.10063H1.9344L1.7134 4.00003H1.21L3 21H21L22.79 4.00003H22.2866ZM6.6768 7.20413C6.67817 5.97767 7.16598 4.80185 8.03321 3.9346C8.90043 3.06736 10.0762 2.57953 11.3027 2.57812C12.4265 2.58253 13.5229 2.92531 14.449 3.5618C15.3752 4.1983 16.0882 5.09899 16.4951 6.14653L17.8145 9.58593L17.2861 9.84863C17.202 9.88995 17.1105 9.91392 17.0169 9.91909C16.9234 9.92426 16.8297 9.91053 16.7416 9.87873C16.6535 9.84692 16.5726 9.79768 16.5039 9.73396C16.4353 9.67024 16.3801 9.59333 16.3418 9.50782L15.3086 7.20512C15.2674 7.12393 15.2002 7.0589 15.1177 7.02048C15.0352 6.98206 14.9421 6.97246 14.8535 6.99323C14.7654 7.01178 14.6862 7.05981 14.6291 7.1294C14.5719 7.19899 14.5402 7.28598 14.5391 7.37603L14.5352 14.3447C14.5364 14.4498 14.5167 14.5541 14.4773 14.6515C14.4379 14.7489 14.3796 14.8376 14.3057 14.9123C14.2318 14.987 14.1438 15.0463 14.0468 15.0868C13.9499 15.1273 13.8458 15.1481 13.7407 15.1481C13.6357 15.1481 13.5316 15.1273 13.4346 15.0868C13.3377 15.0463 13.2497 14.987 13.1758 14.9123C13.1019 14.8376 13.0436 14.7489 13.0042 14.6515C12.9648 14.5541 12.9451 14.4498 12.9463 14.3447V9.98002H12.4463V15.2153C12.4463 15.4262 12.3625 15.6284 12.2134 15.7775C12.0644 15.9266 11.8621 16.0103 11.6513 16.0103C11.4405 16.0103 11.2382 15.9266 11.0891 15.7775C10.9401 15.6284 10.8563 15.4262 10.8563 15.2153V9.98002H10.3563V14.3423C10.3521 14.5521 10.2671 14.7522 10.119 14.9008C9.97091 15.0494 9.77116 15.1352 9.5614 15.1401C9.35064 15.1399 9.14856 15.0561 8.99952 14.9071C8.85049 14.7581 8.76669 14.556 8.7665 14.3452V9.29392H8.2665V12.4139C8.2665 12.6248 8.18274 12.827 8.03365 12.9761C7.88456 13.1252 7.68235 13.2089 7.4715 13.2089C7.26065 13.2089 7.05844 13.1252 6.90935 12.9761C6.76026 12.827 6.6765 12.6248 6.6765 12.4139L6.6768 7.20413ZM20.55 20.5H3.45L1.9871 6.60063H2.0752C2.91864 6.61883 3.73573 6.89789 4.4141 7.39943C4.94392 7.77475 5.54312 8.04092 6.1768 8.18242V12.4141C6.17661 12.6566 6.24457 12.8943 6.37291 13.1C6.50125 13.3058 6.68482 13.4713 6.90269 13.5778C7.12055 13.6843 7.36396 13.7274 7.60514 13.7022C7.84633 13.6771 8.07559 13.5847 8.2668 13.4355V14.3447C8.26714 14.6881 8.40364 15.0172 8.64635 15.26C8.88906 15.5029 9.21817 15.6395 9.5615 15.64C9.85411 15.6391 10.1374 15.537 10.3633 15.351C10.3968 15.6684 10.5463 15.9622 10.7831 16.1762C11.0198 16.3901 11.3273 16.5091 11.6464 16.5104C11.9655 16.5116 12.2739 16.395 12.5123 16.1829C12.7508 15.9708 12.9025 15.6781 12.9385 15.361C13.1292 15.5119 13.3586 15.606 13.6004 15.6325C13.8422 15.659 14.0865 15.6168 14.3054 15.5108C14.5243 15.4047 14.7088 15.2391 14.8379 15.033C14.967 14.8269 15.0354 14.5885 15.0352 14.3453L15.0391 7.82582L15.8848 9.71352C15.9508 9.86044 16.0458 9.99253 16.164 10.1019C16.2822 10.2113 16.4213 10.2957 16.5729 10.3501C16.7245 10.4046 16.8855 10.4279 17.0463 10.4186C17.2071 10.4094 17.3644 10.3679 17.5088 10.2965L18.2383 9.93423L18.3613 9.61683L17.8123 8.18493C18.4503 8.0445 19.0538 7.77761 19.5869 7.40003C20.2637 6.89559 21.0818 6.6162 21.9258 6.60122H22.0129L20.55 20.5Z" fill="black"/>
</svg>
