<svg width="24" height="24" viewBox="0 0 24 24" fill="none" xmlns="http://www.w3.org/2000/svg">
<path d="M17.2471 3C16.7733 2.99999 16.3048 3.09927 15.8718 3.29143C15.4387 3.48358 15.0507 3.76435 14.7328 4.11564C14.4149 4.46692 14.1741 4.88093 14.026 5.33096C13.8779 5.781 13.8258 6.25707 13.8729 6.7285L14.5 13V17.25C14.5 18.2446 14.8951 19.1984 15.5984 19.9016C16.3016 20.6049 17.2555 21 18.25 21C19.2446 21 20.1984 20.6049 20.9017 19.9016C21.6049 19.1984 22 18.2446 22 17.25V7.7529C22 7.12874 21.8771 6.51068 21.6382 5.93403C21.3994 5.35737 21.0493 4.83341 20.608 4.39206C20.1666 3.95071 19.6426 3.60062 19.066 3.36177C18.4893 3.12292 17.8713 2.99999 17.2471 3ZM16.1191 10.5989L15.8065 7.473C17.2035 7.09461 18.6633 7.0067 20.0956 7.2147C20.1305 7.39201 20.1487 7.5722 20.15 7.7529V10.4362C18.8092 10.2179 17.438 10.2732 16.1191 10.5989Z" fill="black"/>
<path d="M6.7529 3C6.12874 2.99999 5.51068 3.12292 4.93403 3.36177C4.35737 3.60062 3.83341 3.95071 3.39206 4.39206C2.95071 4.83341 2.60062 5.35737 2.36177 5.93403C2.12292 6.51068 1.99999 7.12874 2 7.7529V17.25C2 18.2446 2.39509 19.1984 3.09835 19.9017C3.80161 20.6049 4.75544 21 5.75 21C6.74456 21 7.69839 20.6049 8.40165 19.9017C9.10491 19.1984 9.5 18.2446 9.5 17.25V13L10.1271 6.7285C10.1743 6.25707 10.1221 5.781 9.97399 5.33096C9.82589 4.88093 9.58512 4.46692 9.26722 4.11564C8.94931 3.76435 8.56132 3.48358 8.12826 3.29143C7.6952 3.09927 7.22668 2.99999 6.7529 3ZM3.85 10.4362V7.7529C3.85129 7.5722 3.8695 7.39201 3.9044 7.2147C5.33673 7.0067 6.79649 7.09461 8.1935 7.473L7.8809 10.5989C6.56202 10.2732 5.19084 10.2178 3.85 10.4362Z" fill="black"/>
</svg>
