<svg width="24" height="24" viewBox="0 0 24 24" fill="none" xmlns="http://www.w3.org/2000/svg">
<g clip-path="url(#clip0)">
<path d="M16.3794 6.3232V3H7.6206V6.3232C7.61967 7.12348 7.30136 7.89072 6.73548 8.45661C6.16961 9.02251 5.40238 9.34085 4.6021 9.3418H3V21H10.75L11.75 11H12.25L13.25 21H21V9.3418H19.3979C18.5976 9.34085 17.8304 9.02251 17.2645 8.45661C16.6986 7.89072 16.3803 7.12348 16.3794 6.3232ZM17.813 3V6.3232C17.8134 6.74342 17.9805 7.14631 18.2777 7.44346C18.5748 7.74061 18.9777 7.90775 19.3979 7.9082H21V3H17.813ZM6.187 6.3232V3H3V7.9082H4.6021C5.02232 7.90775 5.4252 7.74061 5.72233 7.44346C6.01946 7.14631 6.18658 6.74342 6.187 6.3232Z" fill="black"/>
<path d="M16.3794 6.3232V3H7.6206V6.3232C7.61967 7.12348 7.30136 7.89072 6.73548 8.45661C6.16961 9.02251 5.40238 9.34085 4.6021 9.3418H3V21H10.75L11.75 11H12.25L13.25 21H21V9.3418H19.3979C18.5976 9.34085 17.8304 9.02251 17.2645 8.45661C16.6986 7.89072 16.3803 7.12348 16.3794 6.3232ZM17.813 3V6.3232C17.8134 6.74342 17.9805 7.14631 18.2777 7.44346C18.5748 7.74061 18.9777 7.90775 19.3979 7.9082H21V3H17.813ZM6.187 6.3232V3H3V7.9082H4.6021C5.02232 7.90775 5.4252 7.74061 5.72233 7.44346C6.01946 7.14631 6.18658 6.74342 6.187 6.3232Z" fill="black"/>
</g>
<defs>
<clipPath id="clip0">
<rect width="24" height="24" fill="white"/>
</clipPath>
</defs>
</svg>
