<svg width="24" height="24" viewBox="0 0 24 24" fill="none" xmlns="http://www.w3.org/2000/svg">
<path d="M20.8789 4L20.5966 6.6823H19.749C19.0502 6.69376 18.3727 6.92418 17.8118 7.3411C17.2564 7.76835 16.5753 8.00001 15.8745 8.00001C15.1738 8.00001 14.4927 7.76835 13.9373 7.3411C13.3756 6.92565 12.6985 6.6954 12 6.6823C11.3015 6.6954 10.6244 6.92565 10.0627 7.3411C9.50108 7.75663 8.82399 7.98693 8.12549 8C7.42696 7.98691 6.74985 7.75662 6.18819 7.3411C5.62654 6.92566 4.94947 6.6954 4.25099 6.6823H3.40339L3.12109 4H1.20999L2.99999 21H21L22.79 4H20.8789ZM12 14.8464C11.7769 14.8464 11.5589 14.7803 11.3735 14.6563C11.188 14.5324 11.0435 14.3563 10.9581 14.1502C10.8728 13.9442 10.8504 13.7174 10.894 13.4987C10.9375 13.2799 11.0449 13.079 11.2026 12.9213C11.3603 12.7636 11.5613 12.6562 11.78 12.6127C11.9988 12.5692 12.2256 12.5915 12.4316 12.6769C12.6377 12.7622 12.8138 12.9068 12.9377 13.0923C13.0616 13.2777 13.1277 13.4958 13.1277 13.7188C13.1277 13.8669 13.0985 14.0135 13.0418 14.1503C12.9852 14.2872 12.9021 14.4115 12.7974 14.5162C12.6927 14.6209 12.5684 14.7039 12.4315 14.7606C12.2947 14.8173 12.1481 14.8464 12 14.8464Z" fill="black"/>
</svg>
