<svg width="24" height="24" viewBox="0 0 24 24" fill="none" xmlns="http://www.w3.org/2000/svg">
<path d="M16.0179 8.79L15.3279 10.5679C15.2732 10.7088 15.1771 10.8299 15.0523 10.9153C14.9276 11.0007 14.7799 11.0464 14.6287 11.0464C14.5359 11.0462 14.4438 11.029 14.3572 10.9956C14.2654 10.96 14.1815 10.9066 14.1103 10.8385C14.0391 10.7704 13.982 10.689 13.9423 10.5988C13.9026 10.5087 13.881 10.4116 13.8788 10.3131C13.8766 10.2147 13.8938 10.1167 13.9295 10.0249L14.6195 8.2471L12.787 7.5352L11.9937 9.4727C11.958 9.56605 11.9039 9.65132 11.8348 9.72349C11.7656 9.79566 11.6827 9.85328 11.591 9.89296C11.4993 9.93264 11.4005 9.95359 11.3006 9.95456C11.2006 9.95553 11.1015 9.93652 11.009 9.89863C10.9165 9.86075 10.8325 9.80475 10.7619 9.73394C10.6914 9.66313 10.6357 9.57894 10.5982 9.4863C10.5606 9.39366 10.542 9.29445 10.5433 9.19451C10.5447 9.09456 10.566 8.99589 10.606 8.9043L11.396 6.9752L10.4083 5H8.0345V7.5912C8.0345 8.1709 7.80423 8.72686 7.39434 9.13679C6.98444 9.54672 6.4285 9.77705 5.8488 9.7771H5.5242C5.16008 9.77713 4.80064 9.695 4.47267 9.53681C4.1447 9.37863 3.85666 9.14848 3.63 8.8635L2.604 7.5207L1 7.5382V17H15L20.2552 16.261C21.0165 16.1539 21.7135 15.7754 22.2179 15.1952C22.7222 14.6149 23 13.872 23 13.1032V11.5L16.0179 8.79Z" fill="black"/>
</svg>
