<svg width="24" height="24" viewBox="0 0 24 24" fill="none" xmlns="http://www.w3.org/2000/svg">
<path d="M19.5 3H7V3.498H19.498C20.0284 3.498 20.5371 3.70871 20.9122 4.08379C21.2873 4.45886 21.498 4.96757 21.498 5.498V8H10.8125C5.0938 8 2 12 2 18H6.3292L5.1458 22H5.6458L6.8292 18H11.75V22H12.25V18H17.1708L18.3542 22H18.8542L17.6708 18H22V5.5C22 4.83696 21.7366 4.20107 21.2678 3.73223C20.7989 3.26339 20.163 3 19.5 3ZM21.5 17.5H2.5074C2.6774 11.8527 5.7549 8.5 10.8125 8.5H21.498V13H21.5V17.5Z" fill="black"/>
</svg>
