<svg width="24" height="24" viewBox="0 0 24 24" fill="none" xmlns="http://www.w3.org/2000/svg">
<path d="M21.0745 13.7123L18.1675 12.5231L17.4067 14.3831C17.3565 14.5059 17.2595 14.6036 17.1372 14.6549C17.0148 14.7062 16.8772 14.7067 16.7544 14.6565C16.6316 14.6063 16.5339 14.5093 16.4826 14.387C16.4313 14.2646 16.4308 14.127 16.481 14.0042L17.2417 12.1442L15.0917 11.2642L14.3047 13.19C14.2798 13.2508 14.2432 13.3061 14.1969 13.3527C14.1507 13.3994 14.0957 13.4364 14.0351 13.4618C13.9745 13.4872 13.9096 13.5004 13.8439 13.5007C13.7782 13.501 13.7131 13.4883 13.6523 13.4634C13.5915 13.4385 13.5362 13.4019 13.4896 13.3556C13.4429 13.3094 13.4059 13.2544 13.3805 13.1938C13.3551 13.1332 13.3419 13.0683 13.3416 13.0026C13.3413 12.9369 13.354 12.8718 13.3789 12.811L14.1659 10.8865L12.4216 10.173L10.7583 11.3657C10.6506 11.443 10.5165 11.4744 10.3857 11.4528C10.2548 11.4313 10.1379 11.3587 10.0605 11.2509C9.98324 11.1432 9.9519 11.0092 9.97342 10.8783C9.99494 10.7475 10.0676 10.6305 10.1753 10.5532L12 9.2443V7.3943H9.894C9.76139 7.3943 9.63421 7.34162 9.54045 7.24785C9.44668 7.15409 9.394 7.02691 9.394 6.8943C9.394 6.76169 9.44668 6.63451 9.54045 6.54075C9.63421 6.44698 9.76139 6.3943 9.894 6.3943H12V3.625H9L6.2917 4.625H2V19H23V16.58C22.9999 15.9649 22.8168 15.3637 22.4739 14.853C22.131 14.3423 21.6438 13.9452 21.0745 13.7123Z" fill="black"/>
</svg>
