<svg width="24" height="24" viewBox="0 0 24 24" fill="none" xmlns="http://www.w3.org/2000/svg">
<path d="M17.9323 2.1933L15.3647 1H8.63527L6.06777 2.1933C5.54958 2.43433 5.11104 2.8184 4.80377 3.30028C4.4965 3.78216 4.3333 4.34179 4.33337 4.9133V15H7.33337V23H16.6667V15H19.6667V4.913C19.6666 4.34156 19.5034 3.78202 19.1961 3.30021C18.8889 2.8184 18.4504 2.43437 17.9323 2.1933ZM14.1807 1.9333C14.0577 2.41855 13.7765 2.84895 13.3815 3.15639C12.9864 3.46383 12.5002 3.63076 11.9996 3.63076C11.499 3.63076 11.0127 3.46383 10.6177 3.15639C10.2226 2.84895 9.9414 2.41855 9.81847 1.9333H14.1807ZM18.7333 14.0667H16.6667V6.3333H15.7333V22.0667H12.4667V12.9032H11.5333V22.0667H8.26667V6.3333H7.33337V14.0667H5.26667V4.913C5.26739 4.51815 5.38089 4.13173 5.59382 3.79922C5.80675 3.4667 6.11024 3.20194 6.46857 3.0361L8.84597 1.9333H8.91517C8.9295 2.04046 8.95473 2.14587 8.99047 2.2479C9.09265 2.78925 9.36194 3.28495 9.76047 3.6653C10.363 4.24271 11.1654 4.56495 11.9999 4.56469C12.8344 4.56443 13.6366 4.24169 14.2388 3.6639C14.5824 3.33348 14.8393 2.9234 14.9866 2.47C15.0348 2.3199 15.0703 2.16603 15.0929 2.01C15.0974 1.9939 15.1007 1.9574 15.1048 1.9338H15.1541L17.5314 3.0366C17.8896 3.2024 18.1931 3.46708 18.406 3.7995C18.6189 4.13191 18.7325 4.51824 18.7333 4.913V14.0667Z" fill="black"/>
</svg>
