<svg width="24" height="24" viewBox="0 0 24 24" fill="none" xmlns="http://www.w3.org/2000/svg">
<path d="M12 5.5C12.6628 5.49926 13.2983 5.23563 13.7669 4.76695C14.2356 4.29827 14.4993 3.66281 14.5 3H9.5C9.50074 3.66281 9.76437 4.29827 10.2331 4.76695C10.7017 5.23563 11.3372 5.49926 12 5.5ZM15.5013 10.7565V8.7344H13.5706V10.7565L14.5359 11.1765L15.5013 10.7565ZM18.606 3.5174C18.0057 3.17823 17.3279 3 16.6384 3H15C15 3.79565 14.6839 4.55871 14.1213 5.12132C13.5587 5.68393 12.7956 6 12 6C11.2044 6 10.4413 5.68393 9.87868 5.12132C9.31607 4.55871 9 3.79565 9 3H7.3616C6.6721 3 5.99431 3.17823 5.394 3.5174L1 6L3.1075 10.265L6 9.4062V21H18V9.4062L20.8925 10.265L23 6L18.606 3.5174ZM16.0013 11.0842L14.5359 11.7216L13.0706 11.0842V8.2342H16.0013V11.0842Z" fill="black"/>
</svg>
