<svg width="24" height="24" viewBox="0 0 24 24" fill="none" xmlns="http://www.w3.org/2000/svg">
<path d="M18.69 3.6221C17.9504 3.21409 17.1194 3.00007 16.2747 3H7.7006C6.8517 2.99999 6.01678 3.21611 5.2745 3.628L1 6L3.1075 10.265L6 9.2917V21H18V9.2917L20.8925 10.265L23 6L18.69 3.6221ZM20.6377 9.6521L18.16 8.8177L17.5 8.5959V20.5H6.5V8.5959L5.8406 8.8177L3.3622 9.6517L1.66 6.2059L5.5171 4.0652C6.18533 3.69494 6.93665 3.50047 7.7006 3.5H16.2747C17.0349 3.50054 17.7827 3.69317 18.4485 4.06L22.34 6.2069L20.6377 9.6521ZM14.1525 7.9593C14.1496 7.42049 13.9328 6.90488 13.5498 6.52592C13.1668 6.14696 12.6489 5.93567 12.1101 5.93855C11.5712 5.94143 11.0556 6.15823 10.6767 6.54126C10.2977 6.9243 10.0864 7.44219 10.0893 7.981L10.625 7.98C10.6049 7.77754 10.6297 7.57315 10.6977 7.38138C10.7657 7.18962 10.8751 7.01522 11.0182 6.87062C11.1613 6.72602 11.3346 6.61478 11.5257 6.54484C11.7167 6.4749 11.9208 6.44798 12.1235 6.466C12.3226 6.45452 12.5219 6.48528 12.7083 6.55626C12.8947 6.62724 13.064 6.73683 13.205 6.87785C13.3461 7.01887 13.4557 7.18813 13.5267 7.37451C13.5977 7.56088 13.6285 7.76018 13.6171 7.9593C13.6171 9.3799 10.0893 11.9617 10.0893 11.9617V12.49H14.2146V11.9615H10.809C10.809 11.9615 14.1525 9.5411 14.1525 7.9593Z" fill="black"/>
</svg>
