<svg width="24" height="24" viewBox="0 0 24 24" fill="none" xmlns="http://www.w3.org/2000/svg">
<path d="M17.3286 9.2983L16.6167 11.1328C16.5802 11.2268 16.5162 11.3077 16.433 11.3646C16.3498 11.4216 16.2513 11.4521 16.1504 11.4521C16.0886 11.4522 16.0272 11.4407 15.9697 11.418C15.8461 11.3701 15.7466 11.2751 15.6931 11.1539C15.6395 11.0326 15.6363 10.8951 15.6841 10.7715L16.3962 8.9363L14.8255 8.3263L14.063 10.291C14.0266 10.3851 13.9625 10.4659 13.8793 10.5229C13.7961 10.5799 13.6976 10.6104 13.5967 10.6104C13.5155 10.6103 13.4355 10.5905 13.3637 10.5526C13.2918 10.5148 13.2303 10.46 13.1843 10.393C13.1384 10.326 13.1094 10.2489 13.1 10.1682C13.0905 10.0875 13.1008 10.0058 13.13 9.93L13.8927 7.965L12.3175 7.3534C12.315 7.361 12.3165 7.3688 12.3136 7.3763L11.5089 9.4495C11.4725 9.54356 11.4084 9.6244 11.3252 9.68141C11.242 9.73841 11.1435 9.76891 11.0426 9.7689C10.9614 9.7688 10.8814 9.74893 10.8096 9.71101C10.7377 9.67309 10.6762 9.61826 10.6303 9.55126C10.5844 9.48425 10.5555 9.40708 10.5461 9.3264C10.5367 9.24573 10.5471 9.16397 10.5763 9.0882L11.3809 7.0149C11.3855 7.0034 11.3949 6.9959 11.4002 6.9849L10.4083 5H8.2777V7.3411C8.2777 7.92278 8.04663 8.48064 7.63533 8.89196C7.22403 9.30328 6.66618 9.53437 6.0845 9.5344H5.4352C5.0565 9.53452 4.68207 9.45452 4.33648 9.29967C3.99089 9.14482 3.68197 8.91861 3.43 8.6359L2.4791 7.5207L1 7.5382V17H15L20.2552 16.261C21.0165 16.1539 21.7135 15.7754 22.2179 15.1952C22.7222 14.6149 23 13.872 23 13.1032V11.5L17.3286 9.2983Z" fill="black"/>
</svg>
