<svg width="24" height="24" viewBox="0 0 24 24" fill="none" xmlns="http://www.w3.org/2000/svg">
<path d="M19.3333 4H7V4.9987H19.332C19.774 4.9987 20.1979 5.17428 20.5105 5.48683C20.8231 5.79938 20.9987 6.22328 20.9987 6.6653V10H10.8125C5.0938 10 2 14 2 20H22V6.6666C22 5.95936 21.719 5.2811 21.2189 4.78102C20.7188 4.28094 20.0405 4 19.3333 4ZM21 19H3.0525C3.3062 14.2992 5.864 11 10.8125 11H20.9987V14H21V19ZM13.0469 13.5C12.7502 13.5 12.4602 13.588 12.2135 13.7528C11.9669 13.9176 11.7746 14.1519 11.6611 14.426C11.5475 14.7001 11.5178 15.0017 11.5757 15.2926C11.6336 15.5836 11.7765 15.8509 11.9862 16.0607C12.196 16.2704 12.4633 16.4133 12.7543 16.4712C13.0452 16.5291 13.3468 16.4993 13.6209 16.3858C13.895 16.2723 14.1293 16.08 14.2941 15.8334C14.4589 15.5867 14.5469 15.2967 14.5469 15C14.5469 14.6022 14.3889 14.2206 14.1076 13.9393C13.8263 13.658 13.4447 13.5 13.0469 13.5ZM13.0469 15.7C12.9085 15.7 12.7731 15.6589 12.658 15.582C12.5429 15.5051 12.4532 15.3958 12.4002 15.2679C12.3472 15.14 12.3333 14.9992 12.3604 14.8634C12.3874 14.7276 12.454 14.6029 12.5519 14.505C12.6498 14.4071 12.7745 14.3405 12.9103 14.3134C13.0461 14.2864 13.1869 14.3003 13.3148 14.3533C13.4427 14.4063 13.552 14.496 13.6289 14.6111C13.7058 14.7262 13.7469 14.8616 13.7469 15C13.7467 15.1856 13.6729 15.3635 13.5416 15.4947C13.4104 15.626 13.2325 15.6998 13.0469 15.7Z" fill="black"/>
</svg>
