<svg width="24" height="24" viewBox="0 0 24 24" fill="none" xmlns="http://www.w3.org/2000/svg">
<path d="M12 4.7C12.4507 4.6995 12.8828 4.52023 13.2015 4.20153C13.5202 3.88282 13.6995 3.45071 13.7 3H10.3C10.3005 3.45071 10.4798 3.88282 10.7985 4.20153C11.1172 4.52023 11.5493 4.6995 12 4.7ZM18.69 3.6221C17.9504 3.21404 17.1194 3.00001 16.2747 3H15.5C15.5 3.92826 15.1313 4.8185 14.4749 5.47487C13.8185 6.13125 12.9283 6.5 12 6.5C11.0717 6.5 10.1815 6.13125 9.52513 5.47487C8.86875 4.8185 8.5 3.92826 8.5 3H7.7006C6.8517 2.99999 6.01678 3.21611 5.2745 3.628L1 6L3.1075 10.265L6 9.2916V19H7.1732C7.73512 19 8.28833 19.1388 8.78376 19.404C9.27918 19.6691 9.70148 20.0525 10.0132 20.52L11 22H13L13.9867 20.52C14.2984 20.0525 14.7207 19.6691 15.2161 19.4039C15.7116 19.1388 16.2648 19 16.8267 19H18V9.2916L20.8925 10.265L23 6L18.69 3.6221Z" fill="black"/>
</svg>
