<svg width="24" height="24" viewBox="0 0 24 24" fill="none" xmlns="http://www.w3.org/2000/svg">
<path d="M18.1063 4.1193L15.2876 3H8.71369L5.89399 4.1194C5.23707 4.37914 4.67342 4.83039 4.27624 5.41455C3.87905 5.99871 3.66667 6.6888 3.66669 7.3952V20H6.99999V21H17V20H20.3334V7.395C20.3334 6.68864 20.1211 5.99858 19.7239 5.41444C19.3268 4.8303 18.7632 4.37905 18.1063 4.1193ZM13.9963 3.9667L12.1119 6.1019C12.1093 6.1049 12.0566 6.1647 12.0443 6.1647C12.032 6.1647 11.9794 6.2123 11.9767 6.2094L10.0034 3.9667H13.9963ZM19.3669 19.0333H17V9H16.0333V20.0333H7.96669V9H6.99999V19.0333H4.63339V7.45C4.63339 7.4035 4.63509 7.3026 4.63839 7.2569C4.66372 6.76937 4.82855 6.29939 5.11328 5.90283C5.39801 5.50628 5.79064 5.19985 6.24449 5.02L8.51559 4.12L8.77929 4.05L11.2567 6.854C11.3503 6.95849 11.4649 7.04207 11.5929 7.09929C11.721 7.15651 11.8597 7.18609 12 7.18609C12.1403 7.18609 12.279 7.15651 12.407 7.09929C12.5351 7.04207 12.6497 6.95849 12.7433 6.854L15.2456 4.0219L17.7556 5.0199C18.2055 5.19807 18.5953 5.50071 18.8795 5.8924C19.1636 6.28409 19.3303 6.74862 19.36 7.2316C19.3647 7.2856 19.3671 7.3967 19.3671 7.4516L19.3669 19.0333Z" fill="black"/>
</svg>
