<svg width="24" height="24" viewBox="0 0 24 24" fill="none" xmlns="http://www.w3.org/2000/svg">
<path d="M13.0105 9.5H10.77V12.0482H13.0106C13.2841 12.0479 13.5464 11.9391 13.7398 11.7457C13.9332 11.5523 14.042 11.29 14.0423 11.0165V10.5317C14.042 10.2582 13.9332 9.99591 13.7397 9.80249C13.5463 9.60908 13.284 9.50029 13.0105 9.5ZM12 2C10.0222 2 8.08879 2.58649 6.4443 3.6853C4.79981 4.78412 3.51809 6.3459 2.76121 8.17317C2.00433 10.0004 1.8063 12.0111 2.19215 13.9509C2.578 15.8907 3.53041 17.6725 4.92894 19.0711C6.32746 20.4696 8.10929 21.422 10.0491 21.8079C11.9889 22.1937 13.9996 21.9957 15.8268 21.2388C17.6541 20.4819 19.2159 19.2002 20.3147 17.5557C21.4135 15.9112 22 13.9778 22 12C21.9971 9.34874 20.9426 6.8069 19.0678 4.93218C17.1931 3.05745 14.6513 2.00294 12 2ZM14.5422 11.0165C14.5422 11.2176 14.5026 11.4168 14.4256 11.6027C14.3486 11.7885 14.2358 11.9573 14.0936 12.0996C13.9513 12.2418 13.7825 12.3546 13.5967 12.4316C13.4108 12.5086 13.2117 12.5482 13.0105 12.5482H10.77V15H10.27V9H13.0106C13.2118 9 13.4109 9.03962 13.5968 9.11659C13.7826 9.19357 13.9514 9.30639 14.0937 9.44862C14.2359 9.59086 14.3487 9.75971 14.4257 9.94554C14.5027 10.1314 14.5423 10.3306 14.5423 10.5317L14.5422 11.0165Z" fill="black"/>
</svg>
