<svg width="24" height="24" viewBox="0 0 24 24" fill="none" xmlns="http://www.w3.org/2000/svg">
<path d="M22 16.8215V14.7763C22 13.9822 21.7636 13.206 21.321 12.5467C20.8784 11.8874 20.2495 11.3748 19.5145 11.0741L18.5376 10.6741L17.8228 12.4222C17.778 12.5316 17.7122 12.6311 17.629 12.715C17.5457 12.799 17.4468 12.8657 17.3378 12.9114C17.1176 13.0037 16.8698 13.0048 16.6489 12.9144C16.428 12.824 16.252 12.6495 16.1597 12.4294C16.0674 12.2092 16.0663 11.9614 16.1567 11.7405L16.8716 9.9925L15.4616 9.4157L14.7321 11.1987C14.6873 11.3081 14.6215 11.4076 14.5383 11.4915C14.4551 11.5755 14.3561 11.6422 14.2471 11.6879C14.1381 11.7336 14.0212 11.7574 13.903 11.7579C13.7848 11.7584 13.6677 11.7357 13.5583 11.6909C13.4489 11.6461 13.3494 11.5803 13.2655 11.4971C13.1815 11.4139 13.1148 11.3149 13.0691 11.2059C13.0234 11.0969 12.9996 10.98 12.9991 10.8618C12.9986 10.7436 13.0213 10.6265 13.0661 10.5171L13.7955 8.7341L12.812 8.3318L11.1191 9.5469C11.023 9.61578 10.9144 9.66508 10.7993 9.69196C10.6842 9.71884 10.5649 9.72279 10.4482 9.70358C10.3316 9.68436 10.2199 9.64237 10.1195 9.57998C10.0191 9.5176 9.93198 9.43606 9.8631 9.34C9.79422 9.24394 9.74492 9.13526 9.71804 9.02016C9.69116 8.90505 9.68721 8.78578 9.70642 8.66915C9.74522 8.4336 9.87601 8.22312 10.07 8.084L12 6.7V5.7949H10.0176C9.7788 5.7949 9.54978 5.70004 9.38092 5.53118C9.21206 5.36232 9.1172 5.1333 9.1172 4.8945C9.1172 4.6557 9.21206 4.42668 9.38092 4.25782C9.54978 4.08896 9.7788 3.9941 10.0176 3.9941H12V2H9L6.2917 3H3V15C3 15.5304 3.21071 16.0391 3.58579 16.4142C3.96086 16.7893 4.46957 17 5 17V19.0752H3V20.9252H19.0908C19.6678 20.9259 20.2378 20.799 20.7601 20.5538C21.2823 20.3085 21.7439 19.9508 22.1118 19.5063L23.3438 18.0219L22 16.8215ZM14 19.0752H7V17H14V19.0752ZM20.688 18.3242C20.4937 18.5595 20.2497 18.7488 19.9736 18.8787C19.6974 19.0085 19.3959 19.0756 19.0908 19.0752H16V17H19.4211L20.78 18.2129L20.688 18.3242Z" fill="black"/>
</svg>
