<svg width="24" height="24" viewBox="0 0 24 24" fill="none" xmlns="http://www.w3.org/2000/svg">
<path d="M3 3V21H21V3H3ZM19.6334 10.2775C19.3069 8.8346 18.5785 7.51366 17.5324 6.46758C16.4863 5.42151 15.1654 4.69307 13.7225 4.3666H19.6334V10.2775ZM18.463 12C18.463 13.2783 18.084 14.5278 17.3738 15.5907C16.6636 16.6535 15.6542 17.4819 14.4733 17.971C13.2923 18.4602 11.9928 18.5882 10.7391 18.3388C9.48543 18.0894 8.33384 17.4739 7.42997 16.57C6.5261 15.6662 5.91056 14.5146 5.66118 13.2609C5.41181 12.0072 5.5398 10.7077 6.02897 9.52672C6.51814 8.34576 7.34651 7.33638 8.40935 6.62621C9.47218 5.91605 10.7217 5.537 12 5.537C13.7135 5.53885 15.3563 6.22037 16.568 7.43202C17.7796 8.64366 18.4611 10.2865 18.463 12ZM10.2775 4.3666C8.8346 4.69307 7.51366 5.42151 6.46758 6.46758C5.42151 7.51366 4.69307 8.8346 4.3666 10.2775V4.3666H10.2775ZM4.3666 13.7225C4.69306 15.1654 5.42147 16.4863 6.46751 17.5323C7.51355 18.5784 8.83444 19.3068 10.2773 19.6333H4.3666V13.7225ZM13.7227 19.6333C15.1656 19.3068 16.4865 18.5784 17.5325 17.5323C18.5785 16.4863 19.3069 15.1654 19.6334 13.7225V19.6333H13.7227Z" fill="black"/>
</svg>
