<svg width="24" height="24" viewBox="0 0 24 24" fill="none" xmlns="http://www.w3.org/2000/svg">
<path d="M21.2422 4L20.83 6.6823H20.2158C19.4808 6.69197 18.7656 6.92141 18.1621 7.3411C17.5629 7.76954 16.8448 7.99989 16.1082 7.99989C15.3716 7.99989 14.6535 7.76954 14.0543 7.3411C13.4552 6.91265 12.7371 6.68229 12.0005 6.68229C11.2639 6.68229 10.5458 6.91265 9.9467 7.3411C9.34229 7.7594 8.62725 7.98873 7.8923 8C7.15753 7.98866 6.44268 7.75937 5.8384 7.3412C5.23418 6.92307 4.5194 6.69378 3.7847 6.6824H3.1705L2.7578 4H1.3078L3 15H21L22.6924 4H21.2422ZM3 21H21V19.6333H3V21ZM3 18H21V16.6333H3V18Z" fill="black"/>
</svg>
