<svg width="24" height="24" viewBox="0 0 24 24" fill="none" xmlns="http://www.w3.org/2000/svg">
<path d="M11.4083 7L10.4083 5H6.7913V8.02C6.7913 8.28522 6.68594 8.53957 6.49841 8.72711C6.31087 8.91464 6.05652 9.02 5.7913 9.02H5.78L5.4541 9.005C5.32061 9.00352 5.18877 8.97533 5.06635 8.92209C4.94393 8.86885 4.83341 8.79163 4.7413 8.695L3.6235 7.5207L1 7.5382V19H15L19.6008 18.0115C20.5631 17.8048 21.4254 17.2744 22.044 16.5088C22.6626 15.7432 23 14.7887 23 13.8045V11.5L11.4083 7ZM21.15 13.8045C21.1476 14.365 20.9544 14.9079 20.6021 15.3438C20.2499 15.7798 19.7597 16.0827 19.2122 16.2028L14.8035 17.15H2.85V9.391L3.4019 9.9703C3.92333 10.5153 4.63856 10.8327 5.3925 10.8539L5.6946 10.8679L5.7489 10.8699H5.7917C6.54757 10.8699 7.27248 10.5696 7.80695 10.0352C8.34143 9.50068 8.6417 8.77577 8.6417 8.0199V6.85H9.265L9.7537 7.8273L10.0731 8.4661L10.7388 8.7246L11.0511 8.8458L10.6387 9.9358C10.5935 10.0464 10.5708 10.165 10.5719 10.2845C10.573 10.404 10.5978 10.5221 10.6451 10.6319C10.6923 10.7417 10.7609 10.841 10.847 10.924C10.933 11.0069 11.0347 11.072 11.1461 11.1152C11.2575 11.1585 11.3764 11.1791 11.4959 11.1759C11.6154 11.1727 11.733 11.1458 11.842 11.0966C11.9509 11.0475 12.049 10.9771 12.1304 10.8896C12.2119 10.8022 12.2751 10.6994 12.3164 10.5872L12.7289 9.4972L14.1476 10.0479L13.7896 10.9702C13.7444 11.0808 13.7217 11.1994 13.7228 11.3189C13.7239 11.4384 13.7487 11.5565 13.796 11.6663C13.8432 11.7761 13.9118 11.8754 13.9979 11.9584C14.0839 12.0413 14.1856 12.1064 14.297 12.1496C14.4084 12.1929 14.5273 12.2135 14.6468 12.2103C14.7663 12.2071 14.8839 12.1802 14.9929 12.131C15.1018 12.0819 15.1999 12.0115 15.2813 11.924C15.3628 11.8366 15.426 11.7338 15.4673 11.6216L15.8253 10.6992L21.15 12.7663V13.8045Z" fill="black"/>
</svg>
