<svg width="24" height="24" viewBox="0 0 24 24" fill="none" xmlns="http://www.w3.org/2000/svg">
<path d="M18.0464 3V5.6719C18.0467 5.93771 18.1524 6.19256 18.3403 6.38056C18.5282 6.56856 18.783 6.67438 19.0488 6.6748H21V3H18.0464ZM16.1464 5.6719V3H7.854V5.6719C7.85315 6.44156 7.54707 7.17945 7.00288 7.72373C6.4587 8.26801 5.72086 8.57422 4.9512 8.5752H3V21H10.75L11.75 11H12.25L13.25 21H21V8.5752H19.0488C18.2791 8.57422 17.5413 8.26801 16.9971 7.72373C16.4529 7.17945 16.1468 6.44156 16.146 5.6719H16.1464ZM5.954 5.6719V3H3V6.6748H4.9512C5.21701 6.67438 5.4718 6.56856 5.65971 6.38056C5.84762 6.19256 5.95331 5.93771 5.9536 5.6719H5.954Z" fill="black"/>
</svg>
