<svg width="24" height="24" viewBox="0 0 24 24" fill="none" xmlns="http://www.w3.org/2000/svg">
<path d="M8.36002 3.77305L9.01002 4.84185C9.32227 5.35504 9.76136 5.77922 10.285 6.07357C10.8087 6.36792 11.3993 6.52254 12 6.52254C12.6007 6.52254 13.1913 6.36792 13.715 6.07357C14.2387 5.77922 14.6778 5.35504 14.99 4.84185L15.64 3.77425L16.2407 3.89125L14.5459 11.1049L14.3894 11.7713L14.7902 12.3263L15.8355 13.7734C17.2654 15.7446 18.0841 18.0927 18.1898 20.5256H5.81002C5.91155 18.0967 6.72379 15.751 8.14602 13.7795L9.19162 12.3238L9.59002 11.7702L9.43402 11.106L7.73852 3.89285L8.35972 3.77285L8.36002 3.77305ZM14.9011 2.10205L13.7085 4.06205C13.5301 4.35527 13.2792 4.59763 12.98 4.76581C12.6807 4.93399 12.3433 5.02233 12 5.02233C11.6568 5.02233 11.3193 4.93399 11.0201 4.76581C10.7209 4.59763 10.47 4.35527 10.2915 4.06205L9.09912 2.10275L5.92112 2.71585L7.97332 11.4487L6.92762 12.9043C5.21773 15.2847 4.29805 18.1417 4.29822 21.0727V22.0256H19.7018V21.0925C19.7018 18.1493 18.7743 15.281 17.051 12.8951L16.0057 11.448L18.057 2.71685L14.9011 2.10225V2.10205Z" fill="black"/>
</svg>
