<svg width="24" height="24" viewBox="0 0 24 24" fill="none" xmlns="http://www.w3.org/2000/svg">
<path d="M22.2461 4L21.9109 6.6822H21.1482C20.34 6.68898 19.5491 6.91681 18.8611 7.341C18.176 7.77151 17.3833 7.99989 16.5741 7.99989C15.7649 7.99989 14.9722 7.77151 14.2871 7.341C13.6019 6.91055 12.8092 6.68221 12 6.68221C11.1908 6.68221 10.3981 6.91055 9.7129 7.341C9.02431 7.76371 8.23384 7.99149 7.4259 8C6.61797 7.99152 5.8275 7.76378 5.1389 7.3411C4.45022 6.91852 3.65975 6.69082 2.8518 6.6823H2.0891L1.7539 4H1.25L3 18H21L22.75 4H22.2461ZM3 21H21V20.5H3V21Z" fill="black"/>
</svg>
