<svg width="24" height="24" viewBox="0 0 24 24" fill="none" xmlns="http://www.w3.org/2000/svg">
<path d="M21.8174 4L21.5352 6.6822H20.6818C19.9102 6.69037 19.1571 6.91899 18.5112 7.3411C17.8689 7.77062 17.1135 7.99989 16.3408 7.99989C15.5681 7.99989 14.8127 7.77062 14.1704 7.3411C13.5281 6.91152 12.7727 6.68221 12 6.68221C11.2273 6.68221 10.4719 6.91152 9.82961 7.3411C9.18304 7.76164 8.43044 7.99011 7.65921 8C6.88792 7.99019 6.13524 7.76174 5.48861 7.3412C4.84218 6.92069 4.08971 6.69221 3.31861 6.6823H2.46481L2.18261 4H1.21001L3.00001 21H21L22.79 4H21.8174ZM14.791 15.98L14.084 16.687L12 14.6028L9.91601 16.6868L9.20901 15.9798L11.293 13.8958L9.20901 11.8118L9.91601 11.1048L12 13.1888L14.084 11.1048L14.791 11.8118L12.707 13.8958L14.791 15.98Z" fill="black"/>
</svg>
