<svg width="24" height="24" viewBox="0 0 24 24" fill="none" xmlns="http://www.w3.org/2000/svg">
<path d="M17.9471 4.17L15.0549 3H8.9471L6.0533 4.17C5.44669 4.41526 4.92716 4.83611 4.56133 5.3786C4.19549 5.92109 4.00003 6.56048 4 7.2148V20H7V21H17V20H20V7.2144C20 6.56019 19.8045 5.92091 19.4388 5.3785C19.073 4.83609 18.5536 4.41527 17.9471 4.17ZM14.5 3.5C14.5 4.16304 14.2366 4.79893 13.7678 5.26777C13.2989 5.73661 12.663 6 12 6C11.337 6 10.7011 5.73661 10.2322 5.26777C9.76339 4.79893 9.5 4.16304 9.5 3.5H14.5ZM19.5 19.5H17V9H16.5V20.5H7.5V9H7V19.5H4.5V7.2148C4.49842 6.65972 4.66348 6.11694 4.97382 5.65671C5.28416 5.19648 5.72549 4.84 6.2407 4.6334L9.0017 3.5172C9.00637 4.30941 9.32437 5.06758 9.88624 5.62609C10.4481 6.18459 11.2082 6.49803 12.0004 6.49794C12.7926 6.49785 13.5526 6.18423 14.1144 5.62559C14.6761 5.06696 14.9939 4.30871 14.9984 3.5165L17.76 4.6332C18.275 4.8399 18.7162 5.1964 19.0264 5.65658C19.3366 6.11675 19.5016 6.65943 19.5 7.2144V19.5Z" fill="black"/>
</svg>
