<svg width="24" height="24" viewBox="0 0 24 24" fill="none" xmlns="http://www.w3.org/2000/svg">
<path d="M21.8174 4L21.6111 5.9609H21.2C20.2683 5.9731 19.364 6.27782 18.615 6.832C18.0397 7.28187 17.3303 7.52628 16.6 7.52628C15.8697 7.52628 15.1603 7.28187 14.585 6.832C13.8407 6.26931 12.9331 5.96486 12 5.96486C11.0669 5.96486 10.1593 6.26931 9.41501 6.832C8.83109 7.26573 8.12718 7.50797 7.40001 7.5254C6.67308 7.50779 5.96944 7.26557 5.38571 6.832C4.63497 6.28115 3.73182 5.97679 2.80081 5.9609H2.38891L2.18261 4H1.21001L3.00001 21H21L22.79 4H21.8174ZM20.13 20.0333H3.87001L2.49431 6.9609H2.80081C3.52784 6.97842 4.23161 7.22064 4.81541 7.6543C5.56608 8.20505 6.4691 8.5094 7.40001 8.5254C8.33105 8.50948 9.23422 8.20513 9.98501 7.6543C10.5614 7.2071 11.2701 6.96437 11.9996 6.96437C12.7291 6.96437 13.4379 7.2071 14.0142 7.6543C14.7577 8.21943 15.6658 8.5254 16.5997 8.5254C17.5335 8.5254 18.4417 8.21943 19.1851 7.6543C19.7675 7.2177 20.4723 6.97514 21.2 6.9609H21.5055L20.13 20.0333ZM14.084 11.1048L12 13.1888L9.91601 11.1048L9.20901 11.8118L11.293 13.8958L9.20901 15.98L9.91601 16.687L12 14.6028L14.084 16.6868L14.791 15.9798L12.707 13.8958L14.791 11.8118L14.084 11.1048Z" fill="black"/>
</svg>
