<svg width="24" height="24" viewBox="0 0 24 24" fill="none" xmlns="http://www.w3.org/2000/svg">
<path d="M12 5.5C12.6628 5.49926 13.2983 5.23563 13.7669 4.76695C14.2356 4.29827 14.4993 3.66281 14.5 3H9.5C9.50074 3.66281 9.76437 4.29827 10.2331 4.76695C10.7017 5.23563 11.3372 5.49926 12 5.5ZM18.606 3.5174C18.0057 3.17823 17.3279 3 16.6384 3H15C15 3.79565 14.6839 4.55871 14.1213 5.12132C13.5587 5.68393 12.7956 6 12 6C11.2044 6 10.4413 5.68393 9.87868 5.12132C9.31607 4.55871 9 3.79565 9 3H7.3617C6.67217 2.99998 5.99434 3.17822 5.394 3.5174L1 6L3.1075 10.265L6 9.4062V21H18V9.4062L20.8925 10.265L23 6L18.606 3.5174ZM13.75 12H10.25C9.71957 12 9.21086 11.7893 8.83579 11.4142C8.46071 11.0391 8.25 10.5304 8.25 10C8.25 9.46957 8.46071 8.96086 8.83579 8.58579C9.21086 8.21071 9.71957 8 10.25 8H13.75C14.2804 8 14.7891 8.21071 15.1642 8.58579C15.5393 8.96086 15.75 9.46957 15.75 10C15.75 10.5304 15.5393 11.0391 15.1642 11.4142C14.7891 11.7893 14.2804 12 13.75 12Z" fill="black"/>
</svg>
