<svg width="24" height="24" viewBox="0 0 24 24" fill="none" xmlns="http://www.w3.org/2000/svg">
<path d="M9.7393 7.61434L12 5.35354L14.2607 7.61434L14.6143 7.26074L12.3535 5.00004L14.6143 2.73934L14.2607 2.38574L12 4.64654L9.7393 2.38574L9.3857 2.73934L11.6465 5.00004L9.3857 7.26074L9.7393 7.61434ZM7.9071 11.6583C7.65794 11.16 7.27495 10.741 6.80104 10.4481C6.32712 10.1552 5.78102 10.0001 5.2239 10H1V20H2.9739C3.53103 20 4.07714 19.8449 4.55105 19.552C5.02497 19.259 5.40795 18.84 5.6571 18.3416L8.4529 12.75L7.9071 11.6583ZM21.0353 10C20.4782 10.0001 19.9321 10.1552 19.4582 10.4481C18.9843 10.741 18.6013 11.16 18.3521 11.6583L15.5562 17.25L16.1021 18.3416C16.3512 18.84 16.7342 19.259 17.2081 19.552C17.6821 19.8449 18.2282 20 18.7853 20H23V10H21.0353ZM16.9409 12.368C16.5851 11.6565 16.0382 11.058 15.3615 10.6398C14.6847 10.2215 13.9049 10 13.1094 10C12.3138 10 11.534 10.2215 10.8572 10.6398C10.1805 11.058 9.63358 11.6565 9.2778 12.368L6.8524 17.2188L7.0591 17.632C7.41488 18.3436 7.96178 18.942 8.63852 19.3603C9.31526 19.7785 10.0951 20.0001 10.8906 20.0001C11.6862 20.0001 12.466 19.7785 13.1428 19.3603C13.8195 18.942 14.3664 18.3436 14.7222 17.632L17.1476 12.7812L16.9409 12.368Z" fill="black"/>
</svg>
