<svg width="24" height="24" viewBox="0 0 24 24" fill="none" xmlns="http://www.w3.org/2000/svg">
<path d="M22.2866 4L22.0656 6.1006H21.9256C20.9794 6.11443 20.0615 6.42531 19.3016 6.9893C18.631 7.50505 17.8087 7.78468 16.9627 7.78468C16.1167 7.78468 15.2944 7.50505 14.6238 6.9893C13.8694 6.41532 12.9477 6.10452 11.9998 6.10452C11.0519 6.10452 10.1301 6.41532 9.37579 6.9893C8.69784 7.4909 7.88104 7.76998 7.03789 7.7881C6.19446 7.76985 5.37738 7.49079 4.69899 6.9893C3.9373 6.42879 3.02053 6.11829 2.07499 6.1006H1.93439L1.71339 4H1.20999L2.99999 21H21L22.79 4H22.2866ZM20.55 20.5H3.44999L1.98709 6.6006H2.07519C2.91863 6.61881 3.73572 6.89787 4.41409 7.3994C5.17578 7.95991 6.09256 8.27041 7.03809 8.2881C7.98337 8.27071 8.89992 7.96017 9.66109 7.3994C10.3317 6.88365 11.154 6.60402 12 6.60402C12.846 6.60402 13.6683 6.88365 14.3389 7.3994C15.1006 7.95991 16.0174 8.27041 16.9629 8.2881C17.9084 8.27041 18.8252 7.95991 19.5869 7.3994C20.2637 6.89496 21.0818 6.61558 21.9258 6.6006H22.0129L20.55 20.5Z" fill="black"/>
</svg>
