<svg width="24" height="24" viewBox="0 0 24 24" fill="none" xmlns="http://www.w3.org/2000/svg">
<path d="M10.0576 7.93258L12 5.98998L13.9424 7.93238L14.9324 6.94238L12.99 4.99998L14.9324 3.05758L13.9424 2.06758L12 4.00998L10.0576 2.06738L9.0676 3.05738L11.01 4.99998L9.0674 6.94238L10.0576 7.93258ZM20.6992 10.19C20.1116 10.1914 19.5323 10.329 19.0067 10.5918C18.4811 10.8547 18.0236 11.2357 17.67 11.7051L16.6054 13.1242L15.541 11.7051C15.1885 11.2345 14.7312 10.8526 14.2053 10.5895C13.6795 10.3264 13.0997 10.1895 12.5117 10.1895C11.9237 10.1895 11.3439 10.3264 10.8181 10.5895C10.2922 10.8526 9.83494 11.2345 9.4824 11.7051L8.4973 13.0182L7.8193 12.1143C7.36997 11.5181 6.78866 11.0341 6.12093 10.7003C5.45321 10.3664 4.71723 10.1917 3.9707 10.19H1.0488V19.811H3.3008C3.88852 19.8094 4.46789 19.6717 4.99346 19.4087C5.51903 19.1456 5.9765 18.7644 6.33 18.2949L7.3946 16.8758L8.459 18.2949C8.81154 18.7654 9.26884 19.1474 9.79466 19.4104C10.3205 19.6735 10.9003 19.8105 11.4883 19.8105C12.0763 19.8105 12.6561 19.6735 13.1819 19.4104C13.7078 19.1474 14.1651 18.7654 14.5176 18.2949L15.5027 16.9818L16.1807 17.8857C16.63 18.4819 17.2113 18.966 17.879 19.3C18.5467 19.6339 19.2827 19.8087 20.0293 19.8105H22.9512V10.19H20.6992ZM5.1836 17.4355C4.96379 17.7271 4.6794 17.9639 4.35274 18.1273C4.02608 18.2906 3.66602 18.3761 3.3008 18.377H2.4824V11.623H3.9707C4.49481 11.6242 5.01151 11.7468 5.48032 11.9811C5.94913 12.2154 6.35732 12.5551 6.6729 12.9736L7.6018 14.2121L5.1836 17.4355ZM13.3711 17.4355C13.1519 17.7278 12.8676 17.9651 12.5408 18.1285C12.214 18.2919 11.8537 18.3769 11.4883 18.3769C11.1229 18.3769 10.7626 18.2919 10.4358 18.1285C10.109 17.9651 9.82471 17.7278 9.6055 17.4355L8.29 15.6819L10.6286 12.5645C10.8478 12.2722 11.1321 12.0349 11.4589 11.8715C11.7857 11.7081 12.146 11.623 12.5114 11.623C12.8768 11.623 13.2371 11.7081 13.5639 11.8715C13.8907 12.0349 14.175 12.2722 14.3942 12.5645L15.71 14.3181L13.3711 17.4355ZM21.5176 18.377H20.0293C19.5052 18.3757 18.9885 18.2532 18.5197 18.0188C18.0509 17.7845 17.6427 17.4448 17.3271 17.0264L16.3982 15.7879L18.8164 12.5645C19.0362 12.2728 19.3206 12.036 19.6473 11.8727C19.9739 11.7093 20.334 11.6239 20.6992 11.623H21.5176V18.377Z" fill="black"/>
</svg>
