<svg width="24" height="24" viewBox="0 0 24 24" fill="none" xmlns="http://www.w3.org/2000/svg">
<path d="M18.7255 3.628C17.9832 3.21611 17.1483 2.99999 16.2994 3H7.6882C6.83724 3 6.00037 3.21719 5.2568 3.631L1 6L4 12L6 11V21H18V11L21 12L23 6L18.7255 3.628ZM13.5494 4.9C13.4609 5.24363 13.2606 5.54808 12.9801 5.76546C12.6996 5.98284 12.3549 6.1008 12 6.1008C11.6451 6.1008 11.3004 5.98284 11.0199 5.76546C10.7394 5.54808 10.5391 5.24363 10.4506 4.9H13.5494ZM19.7983 9.5967L16.1 8.3639V19.1H7.9V7.9257L4.85 9.4509L3.5124 6.7762L6.1807 5.2912C6.64185 5.03497 7.16064 4.90034 7.6882 4.9H8.54C8.63379 5.75202 9.03869 6.53947 9.6771 7.11146C10.3155 7.68344 11.1425 7.99974 11.9997 7.99974C12.8569 7.99974 13.6839 7.68344 14.3223 7.11146C14.9607 6.53947 15.3656 5.75202 15.4594 4.9H16.2994C16.8257 4.90031 17.3433 5.0343 17.8036 5.2894L20.6986 6.8958L19.7983 9.5967ZM12.3743 11.2605L13.6793 11.8281L14.9844 11.2605V8.7223H12.3744L12.3743 11.2605Z" fill="black"/>
</svg>
