<svg width="24" height="24" viewBox="0 0 24 24" fill="none" xmlns="http://www.w3.org/2000/svg">
<path d="M19.9779 11.238L16.4731 10.3544L11.4083 7H8.7914L7.5044 7.9221C7.05897 8.24126 6.52899 8.42132 5.98133 8.43956C5.43367 8.4578 4.89288 8.31341 4.4272 8.0246L3.6146 7.5207L1 7.5382V18H8V17L10.6562 18H23V15.1166C23 14.2259 22.7027 13.3607 22.1553 12.6581C21.6078 11.9555 20.8416 11.4558 19.9779 11.238ZM21.15 16.15H10.9929L8.6519 15.2686L6.15 14.3268V16.15H2.85V9.3759L3.0933 9.3742L3.4523 9.5969C4.22863 10.0784 5.13019 10.3191 6.04319 10.2887C6.9562 10.2583 7.83973 9.95807 8.5823 9.426L9.3861 8.85H10.8516L10.8604 8.8558L10.3642 9.605C10.2324 9.80403 10.185 10.0473 10.2325 10.2812C10.2801 10.5152 10.4186 10.7207 10.6176 10.8525C10.8166 10.9843 11.0599 11.0317 11.2938 10.9842C11.5278 10.9366 11.7333 10.7981 11.8651 10.5991L12.361 9.85L13.4131 10.5468L12.9238 11.2857C12.792 11.4847 12.7446 11.728 12.7921 11.962C12.8396 12.196 12.9782 12.4015 13.1772 12.5333C13.3762 12.6651 13.6195 12.7125 13.8535 12.665C14.0875 12.6175 14.293 12.4789 14.4248 12.2799L14.9141 11.5409L15.4517 11.8969L15.7148 12.0712L16.0209 12.1484L19.5256 13.032C19.99 13.1487 20.4021 13.4172 20.6964 13.7949C20.9907 14.1726 21.1504 14.6378 21.15 15.1166V16.15Z" fill="black"/>
</svg>
