<svg width="24" height="24" viewBox="0 0 24 24" fill="none" xmlns="http://www.w3.org/2000/svg">
<path d="M12 11C11.8022 11 11.6089 11.0586 11.4444 11.1685C11.28 11.2784 11.1518 11.4346 11.0761 11.6173C11.0004 11.8 10.9806 12.0011 11.0192 12.1951C11.0578 12.3891 11.153 12.5673 11.2929 12.7071C11.4327 12.847 11.6109 12.9422 11.8049 12.9808C11.9989 13.0194 12.2 12.9996 12.3827 12.9239C12.5654 12.8482 12.7216 12.72 12.8315 12.5556C12.9414 12.3911 13 12.1978 13 12C13 11.7348 12.8946 11.4804 12.7071 11.2929C12.5196 11.1054 12.2652 11 12 11ZM3 3V21H21V3H3ZM3.9333 3.9333H9.6152C8.26989 4.33224 7.04552 5.06088 6.05327 6.05308C5.06102 7.04528 4.33231 8.26961 3.9333 9.6149V3.9333ZM3.9333 20.0667V14.3851C4.3323 15.7304 5.06097 16.9546 6.05316 17.9468C7.04536 18.939 8.26965 19.6677 9.6149 20.0667H3.9333ZM4.5186 12C4.5186 10.5203 4.95738 9.07387 5.77944 7.84356C6.60151 6.61325 7.76995 5.65434 9.13699 5.08809C10.504 4.52184 12.0083 4.37368 13.4595 4.66235C14.9108 4.95102 16.2439 5.66356 17.2901 6.70985C18.3364 7.75614 19.049 9.0892 19.3376 10.5405C19.6263 11.9917 19.4782 13.496 18.9119 14.863C18.3457 16.2301 17.3868 17.3985 16.1564 18.2206C14.9261 19.0426 13.4797 19.4814 12 19.4814C10.0165 19.4791 8.11491 18.6902 6.71237 17.2876C5.30982 15.8851 4.52088 13.9835 4.5186 12ZM20.0667 20.0667H14.3851C15.7304 19.6677 16.9546 18.939 17.9468 17.9468C18.939 16.9546 19.6677 15.7304 20.0667 14.3851V20.0667ZM20.0667 9.6149C19.6677 8.26961 18.939 7.04528 17.9467 6.05308C16.9545 5.06088 15.7301 4.33224 14.3848 3.9333H20.0667V9.6149Z" fill="black"/>
</svg>
