<svg width="24" height="24" viewBox="0 0 24 24" fill="none" xmlns="http://www.w3.org/2000/svg">
<path d="M17.2471 3C16.7733 2.99999 16.3048 3.09927 15.8718 3.29143C15.4387 3.48358 15.0507 3.76435 14.7328 4.11564C14.4149 4.46692 14.1741 4.88093 14.026 5.33096C13.8779 5.781 13.8258 6.25707 13.8729 6.7285L14.5 13V17.25C14.5 18.2446 14.8951 19.1984 15.5984 19.9016C16.3016 20.6049 17.2555 21 18.25 21C19.2446 21 20.1984 20.6049 20.9017 19.9016C21.6049 19.1984 22 18.2446 22 17.25V7.7529C22 7.12874 21.8771 6.51068 21.6382 5.93403C21.3994 5.35737 21.0493 4.83341 20.608 4.39206C20.1666 3.95071 19.6426 3.60062 19.066 3.36177C18.4893 3.12292 17.8713 2.99999 17.2471 3ZM20.8063 10.9283C19.1067 10.536 17.3344 10.5909 15.6623 11.0877L15.275 11.2028L14.9271 7.7239L15.2531 7.6165C16.9958 7.0425 18.8576 6.93001 20.6567 7.29L21.01 7.36C21.0302 7.49004 21.0436 7.62105 21.05 7.7525V10.9842L20.8063 10.9283Z" fill="black"/>
<path d="M6.7529 3C6.12874 2.99999 5.51068 3.12292 4.93403 3.36177C4.35737 3.60062 3.83341 3.95071 3.39206 4.39206C2.95071 4.83341 2.60062 5.35737 2.36177 5.93403C2.12292 6.51068 1.99999 7.12874 2 7.7529V17.25C2 18.2446 2.39509 19.1984 3.09835 19.9017C3.80161 20.6049 4.75544 21 5.75 21C6.74456 21 7.69839 20.6049 8.40165 19.9017C9.10491 19.1984 9.5 18.2446 9.5 17.25V13L10.1271 6.7285C10.1743 6.25707 10.1221 5.781 9.97399 5.33096C9.82589 4.88093 9.58512 4.46692 9.26722 4.11564C8.94931 3.76435 8.56132 3.48358 8.12826 3.29143C7.6952 3.09927 7.22668 2.99999 6.7529 3ZM8.3377 11.0877C6.66562 10.5909 4.89333 10.536 3.1937 10.9283L2.95 10.9845V7.7529C2.95635 7.62132 2.96971 7.49016 2.99 7.36L3.3433 7.29C5.14247 6.9301 7.00421 7.04269 8.7469 7.6168L9.0731 7.7242L8.7261 11.2034L8.3377 11.0877Z" fill="black"/>
</svg>
