<svg width="24" height="24" viewBox="0 0 24 24" fill="none" xmlns="http://www.w3.org/2000/svg">
<path d="M11 2V3.5H19V2H11ZM11 10.8038L5.36084 14.0686C4.38555 14.6333 3.67428 15.562 3.38326 16.6507C3.09225 17.7395 3.24527 18.8992 3.80874 19.8752C4.08818 20.3592 4.46029 20.7834 4.90379 21.1235C5.34729 21.4636 5.85348 21.7129 6.39342 21.8573C6.93335 22.0016 7.49644 22.0381 8.05048 21.9646C8.60453 21.8912 9.13866 21.7092 9.62234 21.4292L16.5052 17.4443C17.2639 17.0051 17.8938 16.3741 18.3317 15.6146C18.7695 14.8551 19 13.9939 19 13.1172V4.5H11V10.8038Z" fill="black"/>
</svg>
