<svg width="24" height="24" viewBox="0 0 24 24" fill="none" xmlns="http://www.w3.org/2000/svg">
<path d="M12 2L2.453 22H21.547L12 2ZM11.8926 14.4453H10.3026C10.2483 14.4453 10.1946 14.456 10.1444 14.4767C10.0943 14.4975 10.0487 14.5279 10.0104 14.5663C9.97198 14.6047 9.94154 14.6502 9.92077 14.7004C9.89999 14.7505 9.8893 14.8042 9.8893 14.8585V16.9169C9.8893 17.0265 9.93285 17.1316 10.0104 17.2091C10.0879 17.2867 10.193 17.3302 10.3026 17.3302H11.8926V18.355H10.2606C9.83729 18.355 9.43132 18.1868 9.13199 17.8875C8.83266 17.5882 8.6645 17.1822 8.6645 16.7589V15.0189C8.66449 14.8093 8.70576 14.6017 8.78597 14.4081C8.86618 14.2144 8.98374 14.0384 9.13195 13.8902C9.28017 13.742 9.45612 13.6244 9.64978 13.5442C9.84343 13.464 10.051 13.4227 10.2606 13.4227H11.8926V14.4453ZM13.0144 18.3553V13.4227H14.248V17.33H16.2364V18.355L13.0144 18.3553Z" fill="black"/>
</svg>
