<svg width="24" height="24" viewBox="0 0 24 24" fill="none" xmlns="http://www.w3.org/2000/svg">
<path d="M9.83 7.34115C10.4723 6.91156 11.2277 6.68225 12.0004 6.68225C12.7731 6.68225 13.5285 6.91156 14.1708 7.34115C14.8172 7.76163 15.5697 7.9901 16.3408 8.00005C16.6947 7.9986 17.0466 7.94705 17.386 7.84695L16.5486 5.29695C16.1829 4.18353 15.4324 3.23688 14.4318 2.62689C13.4311 2.0169 12.2458 1.7835 11.0886 1.9686C9.93141 2.15369 8.87804 2.74515 8.11757 3.63683C7.3571 4.52851 6.93932 5.66202 6.9392 6.83395L6.9534 7.92395C7.18569 7.97182 7.42204 7.9973 7.6592 8.00005C8.43057 7.99024 9.18332 7.76176 9.83 7.34115ZM21.8174 4.00005L21.5352 6.68225H20.6818C19.9102 6.69042 19.1571 6.91904 18.5112 7.34115C18.1611 7.56047 17.7825 7.73062 17.386 7.84685L18.4276 11.0189C18.4501 11.0799 18.4481 11.1472 18.4218 11.2066C18.3956 11.266 18.3473 11.3129 18.2871 11.3373L17.9816 11.4615C17.7774 11.5448 17.5506 11.5543 17.3401 11.4887C17.1296 11.423 16.9485 11.2861 16.8279 11.1015L15.47 8.87655V15.963C15.47 16.1552 15.3937 16.3395 15.2578 16.4753C15.1219 16.6112 14.9376 16.6875 14.7455 16.6875C14.5533 16.6875 14.3691 16.6112 14.2332 16.4753C14.0973 16.3395 14.021 16.1552 14.021 15.963V11.25H13.121V16.7234C13.121 16.9156 13.0447 17.0999 12.9088 17.2357C12.7729 17.3716 12.5886 17.4479 12.3965 17.4479C12.2043 17.4479 12.0201 17.3716 11.8842 17.2357C11.7483 17.0999 11.672 16.9156 11.672 16.7234V11.2424C11.3706 11.235 11.07 11.2083 10.772 11.1624V15.9624C10.772 16.1546 10.6957 16.3389 10.5598 16.4747C10.4239 16.6106 10.2396 16.6869 10.0475 16.6869C9.85535 16.6869 9.67107 16.6106 9.5352 16.4747C9.39933 16.3389 9.323 16.1546 9.323 15.9624V10.7838C9.01271 10.6621 8.71188 10.5175 8.423 10.3511V14.8675C8.42708 15.0214 8.36989 15.1705 8.26401 15.2822C8.15813 15.3938 8.01222 15.4589 7.8584 15.4629C7.70457 15.467 7.55543 15.4098 7.44377 15.304C7.33211 15.1981 7.26708 15.0522 7.263 14.8983L6.9734 9.47085L6.9534 7.92365C6.43354 7.82094 5.93702 7.62349 5.4886 7.34115C4.84217 6.92064 4.0897 6.69216 3.3186 6.68225H2.4648L2.1826 4.00005H1.21L3 21H21L22.79 4.00005H21.8174Z" fill="black"/>
</svg>
