<svg width="24" height="24" viewBox="0 0 24 24" fill="none" xmlns="http://www.w3.org/2000/svg">
<path d="M20.635 10.6023L11.075 7H7.7914V8.02C7.7914 8.28522 7.68604 8.53957 7.49851 8.72711C7.31097 8.91464 7.05662 9.02 6.7914 9.02H6.7814L5.3846 9.006C5.16481 9.004 4.94765 8.95789 4.74602 8.87038C4.54439 8.78288 4.36238 8.65577 4.2108 8.4966L3.2808 7.5207L1 7.5382V17.6666H16L23 16.6666V14.03C23 13.2862 22.7738 12.56 22.3514 11.9478C21.929 11.3355 21.3304 10.8663 20.635 10.6023ZM21.5 15.3662L15.8936 16.167H2.5V9.0264L2.6431 9.0254L3.1245 9.5312C3.41529 9.8351 3.76385 10.0779 4.14972 10.2452C4.5356 10.4126 4.95101 10.5012 5.3716 10.5059L6.7666 10.5195C7.34987 10.5227 7.9161 10.323 8.36828 9.95455C8.82046 9.58612 9.13043 9.0719 9.2451 8.5H10.8018L11.2859 8.6824L10.8433 9.8232C10.8076 9.91502 10.7904 10.013 10.7926 10.1114C10.7948 10.2099 10.8164 10.307 10.8561 10.3971C10.8958 10.4873 10.9529 10.5687 11.0241 10.6368C11.0953 10.7049 11.1792 10.7583 11.271 10.7939C11.3576 10.8273 11.4497 10.8445 11.5425 10.8447C11.6937 10.8447 11.8414 10.799 11.9661 10.7136C12.0909 10.6282 12.187 10.5071 12.2417 10.3662L12.69 9.2114L14.385 9.85L13.9941 10.8572C13.9584 10.949 13.9412 11.047 13.9434 11.1455C13.9456 11.2439 13.9672 11.341 14.0069 11.4312C14.0467 11.5213 14.1037 11.6027 14.1749 11.6708C14.2462 11.7389 14.3301 11.7923 14.4219 11.8279C14.5085 11.8613 14.6006 11.8785 14.6934 11.8787C14.8446 11.8787 14.9923 11.833 15.117 11.7476C15.2418 11.6622 15.3379 11.5411 15.3926 11.4002L15.7888 10.379L20.106 12.0057C20.5152 12.1634 20.8673 12.4411 21.116 12.8023C21.3648 13.1635 21.4986 13.5914 21.5 14.03V15.3662Z" fill="black"/>
</svg>
