<svg width="24" height="24" viewBox="0 0 24 24" fill="none" xmlns="http://www.w3.org/2000/svg">
<path d="M10.0627 7.34105C10.6244 6.9256 11.3015 6.69534 12 6.68225C12.6985 6.69534 13.3756 6.9256 13.9373 7.34105C14.4989 7.75658 15.176 7.98687 15.8745 7.99995C16.3774 7.9958 16.8721 7.87134 17.3171 7.63695L16.5486 5.29695C16.1829 4.18354 15.4325 3.23689 14.4318 2.6269C13.4312 2.01691 12.2459 1.78351 11.0887 1.96859C9.93146 2.15367 8.8781 2.74511 8.11762 3.63677C7.35714 4.52843 6.93934 5.66193 6.9392 6.83385L6.9512 7.75145C7.32252 7.91057 7.72155 7.99501 8.1255 7.99995C8.824 7.98687 9.50109 7.75658 10.0627 7.34105ZM20.8789 3.99995L20.5966 6.68225H19.749C19.0502 6.69371 18.3727 6.92413 17.8118 7.34105C17.6538 7.45079 17.4885 7.54965 17.3171 7.63695L18.4276 11.0188C18.4501 11.0798 18.4481 11.1471 18.4218 11.2065C18.3956 11.2659 18.3473 11.3128 18.2871 11.3372L17.9816 11.4614C17.7774 11.5447 17.5506 11.5542 17.3401 11.4886C17.1296 11.4229 16.9485 11.286 16.8279 11.1014L15.47 8.87645V15.9629C15.47 16.1551 15.3937 16.3394 15.2578 16.4752C15.1219 16.6111 14.9376 16.6874 14.7455 16.6874C14.5533 16.6874 14.3691 16.6111 14.2332 16.4752C14.0973 16.3394 14.021 16.1551 14.021 15.9629V11.2499H13.121V16.7233C13.121 16.9155 13.0447 17.0998 12.9088 17.2356C12.7729 17.3715 12.5886 17.4478 12.3965 17.4478C12.2043 17.4478 12.0201 17.3715 11.8842 17.2356C11.7483 17.0998 11.672 16.9155 11.672 16.7233V11.2423C11.3706 11.2349 11.07 11.2082 10.772 11.1623V15.9623C10.772 16.1545 10.6957 16.3388 10.5598 16.4746C10.4239 16.6105 10.2396 16.6868 10.0475 16.6868C9.85535 16.6868 9.67107 16.6105 9.5352 16.4746C9.39933 16.3388 9.323 16.1545 9.323 15.9623V10.7837C9.01271 10.662 8.71188 10.5174 8.423 10.351V14.8674C8.42708 15.0213 8.36989 15.1704 8.26401 15.2821C8.15813 15.3937 8.01222 15.4588 7.8584 15.4628C7.70457 15.4669 7.55543 15.4097 7.44377 15.3039C7.33211 15.198 7.26708 15.0521 7.263 14.8982L6.9734 9.47075L6.9512 7.75145C6.6826 7.64317 6.42673 7.50568 6.1882 7.34145C5.6266 6.92586 4.94952 6.69546 4.251 6.68225H3.4034L3.1211 3.99995H1.21L3 20.9999H21L22.79 3.99995H20.8789Z" fill="black"/>
</svg>
