<svg width="24" height="24" viewBox="0 0 24 24" fill="none" xmlns="http://www.w3.org/2000/svg">
<path d="M12 2L1.453 22H22.547L12 2ZM12 5.2157L20.06 20.5H3.94L12 5.2157ZM14.248 17.1114V13.204H13.0144V18.1362H16.2364V17.1114H14.248ZM8.6645 14.8V16.54C8.6645 16.9633 8.83266 17.3693 9.13199 17.6686C9.43132 17.9679 9.83729 18.1361 10.2606 18.1361H11.8926V17.1115H10.3026C10.193 17.1115 10.0879 17.068 10.0104 16.9904C9.93285 16.9129 9.8893 16.8078 9.8893 16.6982V14.64C9.8893 14.5304 9.93285 14.4253 10.0104 14.3478C10.0879 14.2702 10.193 14.2267 10.3026 14.2267H11.8926V13.204H10.2606C9.83731 13.204 9.43135 13.3721 9.13202 13.6715C8.8327 13.9708 8.66453 14.3767 8.6645 14.8Z" fill="black"/>
</svg>
