<svg width="24" height="24" viewBox="0 0 24 24" fill="none" xmlns="http://www.w3.org/2000/svg">
<path d="M20.5 7.0498C19.8871 7.05151 19.2829 7.19503 18.7347 7.46913C18.1865 7.74324 17.7091 8.14049 17.34 8.6298L16.5 9.7498L15.66 8.6298C15.2921 8.13923 14.815 7.74106 14.2665 7.46682C13.718 7.19258 13.1132 7.0498 12.5 7.0498C11.8868 7.0498 11.282 7.19258 10.7335 7.46682C10.185 7.74106 9.70793 8.13923 9.34 8.6298L8.5771 9.647L8.1143 9.0298C7.65209 8.41625 7.05397 7.91816 6.3669 7.57462C5.67982 7.23108 4.92248 7.05144 4.1543 7.0498H1.05V16.9498H3.5C4.11295 16.9483 4.71721 16.8048 5.26545 16.5307C5.81368 16.2566 6.291 15.8592 6.66 15.3698L7.5 14.2498L8.34 15.3698C8.70793 15.8604 9.18503 16.2586 9.73351 16.5328C10.282 16.807 10.8868 16.9498 11.5 16.9498C12.1132 16.9498 12.718 16.807 13.2665 16.5328C13.815 16.2586 14.2921 15.8604 14.66 15.3698L15.4227 14.3528L15.8855 14.9704C16.3478 15.5838 16.9459 16.0818 17.633 16.4253C18.3201 16.7687 19.0774 16.9483 19.8455 16.9499H22.95V7.0498H20.5ZM5.1406 14.2298C4.94896 14.4838 4.70113 14.69 4.41651 14.8323C4.13189 14.9745 3.8182 15.049 3.5 15.0498H3V8.9498H4.1543C4.62761 8.95086 5.09424 9.06157 5.51758 9.27324C5.94093 9.48491 6.30947 9.79179 6.5943 10.1698L7.39 11.2298L5.1406 14.2298ZM13.1406 14.2298C12.9496 14.4845 12.7019 14.6912 12.4171 14.8336C12.1324 14.9759 11.8184 15.0501 11.5 15.0501C11.1816 15.0501 10.8676 14.9759 10.5829 14.8336C10.2981 14.6912 10.0504 14.4845 9.8594 14.2298L8.6873 12.6669L10.8594 9.7703C11.0504 9.51564 11.2981 9.30894 11.5828 9.16656C11.8676 9.02419 12.1815 8.95004 12.4999 8.94999C12.8182 8.94994 13.1322 9.02399 13.417 9.16628C13.7018 9.30858 13.9495 9.5152 14.1406 9.7698L15.3129 11.3329L13.1406 14.2298ZM19.8457 15.0498C19.3724 15.0486 18.9058 14.9378 18.4825 14.7261C18.0592 14.5145 17.6906 14.2077 17.4057 13.8298L16.61 12.7698L18.8593 9.7703C19.0509 9.51619 19.2987 9.30987 19.5834 9.16752C19.868 9.02518 20.1818 8.95066 20.5 8.9498H21V15.0498H19.8457Z" fill="black"/>
</svg>
