<svg width="24" height="24" viewBox="0 0 24 24" fill="none" xmlns="http://www.w3.org/2000/svg">
<path d="M18.606 3.5174C18.0057 3.17823 17.3279 3 16.6384 3H7.3616C6.6721 3 5.99431 3.17823 5.394 3.5174L1 6L3.1075 10.265L6 9.4062V21H18V9.4062L20.8925 10.265L23 6L18.606 3.5174ZM14.24 10.8759V12.49H9.7384V10.98C9.7384 10.98 12.6342 9.1528 12.6342 8.1285C12.6329 8.03634 12.6134 7.94535 12.5768 7.86079C12.5401 7.77623 12.487 7.69978 12.4206 7.63587C12.3542 7.57196 12.2758 7.52186 12.1899 7.48846C12.104 7.45506 12.0123 7.43903 11.9202 7.4413C11.8169 7.44546 11.7154 7.47019 11.6218 7.51406C11.5282 7.55792 11.4442 7.62002 11.3749 7.69673C11.3056 7.77344 11.2523 7.86322 11.2181 7.9608C11.1839 8.05837 11.1695 8.1618 11.1758 8.265C10.9412 8.265 9.558 8.2591 9.558 8.2591C9.53336 7.94377 9.57816 7.62686 9.68926 7.33072C9.80035 7.03458 9.97504 6.7664 10.201 6.54508C10.427 6.32376 10.6987 6.15468 10.9971 6.04976C11.2955 5.94483 11.6132 5.90662 11.928 5.9378C12.2246 5.90437 12.5249 5.93403 12.8092 6.02485C13.0935 6.11566 13.3554 6.26557 13.5777 6.46474C13.8 6.66391 13.9777 6.90783 14.0991 7.1805C14.2204 7.45318 14.2828 7.74843 14.282 8.0469C14.282 9.4169 12.4949 10.4591 11.9199 10.8762L14.24 10.8759Z" fill="black"/>
</svg>
