<svg width="24" height="24" viewBox="0 0 24 24" fill="none" xmlns="http://www.w3.org/2000/svg">
<path d="M21.0745 12.7123L12 9V2.625H9L6.2916 3.625H2V19H23V15.58C22.9999 14.9649 22.8168 14.3637 22.4739 13.853C22.131 13.3423 21.6438 12.9452 21.0745 12.7123ZM22.5 18.5H2.5V4.125H6.381L6.4648 4.0941L9.0894 3.125H11.5V6.6875H9.2861C9.2198 6.6875 9.15621 6.71384 9.10932 6.76072C9.06244 6.80761 9.0361 6.8712 9.0361 6.9375C9.0361 7.0038 9.06244 7.06739 9.10932 7.11428C9.15621 7.16116 9.2198 7.1875 9.2861 7.1875H11.5V8.99C11.4885 8.9977 11.4733 8.9945 11.4629 9.0043L10.002 10.4C9.97827 10.4227 9.95924 10.4498 9.946 10.4799C9.93275 10.5099 9.92556 10.5423 9.92483 10.5751C9.92409 10.6079 9.92983 10.6406 9.94172 10.6712C9.95361 10.7018 9.9714 10.7298 9.9941 10.7535C10.0173 10.778 10.0454 10.7976 10.0764 10.8108C10.1075 10.8241 10.141 10.8309 10.1748 10.8307C10.2392 10.8305 10.3011 10.8057 10.3477 10.7613L11.7377 9.4325L11.8106 9.4625L13.9121 10.3225L13.244 11.9551C13.2189 12.0165 13.2192 12.0853 13.2448 12.1465C13.2705 12.2077 13.3194 12.2561 13.3807 12.2812C13.4421 12.3064 13.511 12.3061 13.5721 12.2804C13.6333 12.2548 13.6818 12.2059 13.7069 12.1445L14.375 10.5118L16.9643 11.5711L16.3363 13.1074C16.3111 13.1688 16.3113 13.2377 16.3369 13.2989C16.3625 13.3601 16.4114 13.4087 16.4727 13.4339C16.5341 13.459 16.603 13.4588 16.6642 13.4332C16.7255 13.4076 16.774 13.3588 16.7992 13.2974L17.4271 11.761L20.885 13.1755C21.3631 13.3698 21.7723 13.7025 22.06 14.1309C22.3478 14.5593 22.501 15.0639 22.5 15.58V18.5Z" fill="black"/>
</svg>
