<svg width="24" height="24" viewBox="0 0 24 24" fill="none" xmlns="http://www.w3.org/2000/svg">
<path d="M21.2925 17H22V14.7763C22 13.9822 21.7636 13.206 21.321 12.5467C20.8784 11.8874 20.2495 11.3748 19.5145 11.0741L17.936 10.4283L17.1753 12.2883C17.1502 12.3497 17.1017 12.3986 17.0405 12.4242C16.9793 12.4498 16.9105 12.4501 16.8491 12.425C16.7877 12.3999 16.7388 12.3514 16.7132 12.2902C16.6876 12.229 16.6873 12.1602 16.7124 12.0988L17.4731 10.2388L14.86 9.17L14.0728 11.0946C14.0477 11.156 13.9992 11.2049 13.9381 11.2305C13.8769 11.2561 13.8081 11.2564 13.7467 11.2313C13.6853 11.2062 13.6364 11.1577 13.6108 11.0966C13.5852 11.0354 13.5849 10.9666 13.61 10.9052L14.3969 8.9806L12.1479 8.0606L10.6119 9.162C10.5853 9.18252 10.5549 9.19748 10.5224 9.20598C10.4899 9.21448 10.456 9.21634 10.4228 9.21146C10.3896 9.20658 10.3577 9.19505 10.329 9.17757C10.3003 9.16009 10.2755 9.13701 10.2559 9.10971C10.2363 9.08241 10.2225 9.05144 10.2151 9.01867C10.2078 8.98589 10.2072 8.95198 10.2132 8.91895C10.2193 8.88592 10.232 8.85445 10.2505 8.82642C10.269 8.79838 10.2929 8.77437 10.3209 8.7558L12 7.5521V5.1445H9.894C9.8277 5.1445 9.76411 5.11816 9.71722 5.07128C9.67034 5.02439 9.644 4.9608 9.644 4.8945C9.644 4.8282 9.67034 4.76461 9.71722 4.71772C9.76411 4.67084 9.8277 4.6445 9.894 4.6445H12V2H9L6.2917 3H3V15C3 15.5304 3.21071 16.0391 3.58579 16.4142C3.96086 16.7893 4.46957 17 5 17H5.75V20.4209H3V20.9209H19.5132C19.991 20.9215 20.4631 20.8164 20.8956 20.6131C21.328 20.4098 21.7102 20.1134 22.0146 19.7451L22.811 18.7861L21.2925 17ZM14.75 20.4209H6.25V17H14.75V20.4209ZM21.63 19.4268C21.3722 19.7383 21.0488 19.9889 20.6829 20.1607C20.317 20.3326 19.9176 20.4214 19.5133 20.4209H15.25V17H20.636L22.1577 18.79L21.63 19.4268Z" fill="black"/>
</svg>
