<svg width="24" height="24" viewBox="0 0 24 24" fill="none" xmlns="http://www.w3.org/2000/svg">
<path d="M5.00001 20.6666H7.01621C7.56337 20.6711 8.10245 20.799 8.59325 21.0409C9.08406 21.2828 9.51393 21.6323 9.85081 22.0635L10.6 23H13.4L14.1492 22.0635C14.4861 21.6323 14.916 21.2828 15.4068 21.0409C15.8976 20.799 16.4367 20.6711 16.9838 20.6666H19V15.3333H5.00001V20.6666ZM6.85001 17.1833H17.15V18.8167H16.9838C16.1591 18.8202 15.3458 19.0101 14.6048 19.3722C13.8638 19.7343 13.2142 20.2593 12.7047 20.9078L12.5109 21.15H11.4892L11.2954 20.9078C10.7859 20.2593 10.1363 19.7343 9.39529 19.3722C8.65427 19.0101 7.84097 18.8202 7.01621 18.8167H6.85001V17.1833ZM17.6124 3.5318L17.53 3.4447V1H15.8033V3.1472L14.6441 3.9742C13.9924 4.45344 13.464 5.08071 13.1023 5.80431C12.7407 6.52791 12.5562 7.3271 12.5641 8.136V9.15H11.4361V8.136C11.444 7.3271 11.2595 6.52791 10.8979 5.80432C10.5363 5.08072 10.0078 4.45344 9.35611 3.9742L8.19681 3.1472V1H6.47001V3.4447L6.38771 3.5318C5.48921 4.49806 4.99294 5.77056 5.00001 7.09V11H19V7.09C19.0071 5.77058 18.5108 4.4981 17.6124 3.5318ZM9.58611 9.15H6.85001V7.09C6.84675 6.32418 7.10356 5.57994 7.57841 4.9791L8.28151 5.4807C8.69409 5.788 9.02759 6.18909 9.25444 6.65082C9.4813 7.11254 9.59499 7.62163 9.58611 8.136V9.15ZM17.15 9.15H14.4139V8.136C14.4049 7.6215 14.5186 7.11226 14.7454 6.6504C14.9723 6.18855 15.3059 5.78735 15.7186 5.48L16.4216 4.9784C16.8966 5.57942 17.1534 6.32394 17.15 7.09V9.15Z" fill="black"/>
</svg>
