<svg width="24" height="24" viewBox="0 0 24 24" fill="none" xmlns="http://www.w3.org/2000/svg">
<path d="M21.53 17H22V14.7763C22 13.9822 21.7636 13.206 21.321 12.5467C20.8784 11.8874 20.2495 11.3748 19.5145 11.0741L18.1675 10.5231L17.4067 12.3831C17.3818 12.4439 17.3452 12.4992 17.299 12.5458C17.2527 12.5924 17.1977 12.6295 17.1372 12.6549C17.0766 12.6803 17.0116 12.6935 16.9459 12.6938C16.8803 12.694 16.8152 12.6814 16.7544 12.6565C16.6936 12.6316 16.6383 12.595 16.5917 12.5488C16.5451 12.5025 16.508 12.4475 16.4826 12.387C16.4572 12.3264 16.444 12.2614 16.4437 12.1957C16.4435 12.1301 16.4561 12.065 16.481 12.0042L17.2417 10.1442L15.0917 9.2642L14.3047 11.19C14.2798 11.2508 14.2432 11.3061 14.1969 11.3527C14.1507 11.3994 14.0957 11.4364 14.0351 11.4618C13.9745 11.4872 13.9096 11.5004 13.8439 11.5007C13.7782 11.501 13.7131 11.4883 13.6523 11.4634C13.5915 11.4385 13.5362 11.4019 13.4896 11.3556C13.4429 11.3094 13.4059 11.2544 13.3805 11.1938C13.3551 11.1332 13.3419 11.0683 13.3416 11.0026C13.3413 10.9369 13.354 10.8718 13.3789 10.811L14.1659 8.8865L12.4216 8.173L10.7583 9.3652C10.705 9.40348 10.6446 9.43088 10.5806 9.44583C10.5167 9.46078 10.4505 9.46299 10.3857 9.45233C10.3209 9.44168 10.2588 9.41837 10.203 9.38373C10.1472 9.34909 10.0988 9.3038 10.0605 9.25045C10.0223 9.1971 9.99487 9.13673 9.97992 9.0728C9.96497 9.00886 9.96276 8.9426 9.97342 8.87781C9.98407 8.81302 10.0074 8.75096 10.042 8.69518C10.0767 8.63939 10.122 8.59098 10.1753 8.5527L12 7.2443V5.3943H9.894C9.76139 5.3943 9.63421 5.34162 9.54045 5.24785C9.44668 5.15409 9.394 5.02691 9.394 4.8943C9.394 4.76169 9.44668 4.63451 9.54045 4.54075C9.63421 4.44698 9.76139 4.3943 9.894 4.3943H12V2H9L6.2917 3H3V15C3 15.5304 3.21071 16.0391 3.58579 16.4142C3.96086 16.7893 4.46957 17 5 17H5.5V19.9727H3V20.9219H19.3726C19.8833 20.9227 20.3879 20.8105 20.8501 20.5933C21.3124 20.3762 21.7209 20.0595 22.0464 19.666L22.9764 18.546L21.53 17ZM14.5 19.9727H6.5V17H14.5V19.9727ZM21.3154 19.0596C21.0789 19.3456 20.7821 19.5758 20.4463 19.7337C20.1104 19.8916 19.7437 19.9732 19.3726 19.9727H15.5V17H20.23L21.7108 18.583L21.3154 19.0596Z" fill="black"/>
</svg>
