<svg width="24" height="24" viewBox="0 0 24 24" fill="none" xmlns="http://www.w3.org/2000/svg">
<path d="M12 2C10.0222 2 8.08879 2.58649 6.4443 3.6853C4.79981 4.78412 3.51809 6.3459 2.76121 8.17317C2.00433 10.0004 1.8063 12.0111 2.19215 13.9509C2.578 15.8907 3.53041 17.6725 4.92894 19.0711C6.32746 20.4696 8.10929 21.422 10.0491 21.8079C11.9889 22.1937 13.9996 21.9957 15.8268 21.2388C17.6541 20.4819 19.2159 19.2002 20.3147 17.5557C21.4135 15.9112 22 13.9778 22 12C21.9971 9.34874 20.9426 6.8069 19.0678 4.93218C17.1931 3.05745 14.6513 2.00294 12 2ZM12 21.5C10.1211 21.5 8.28435 20.9428 6.72209 19.899C5.15982 18.8551 3.94218 17.3714 3.22315 15.6355C2.50412 13.8996 2.31598 11.9895 2.68254 10.1466C3.0491 8.30382 3.95389 6.61108 5.28249 5.28249C6.61109 3.95389 8.30383 3.0491 10.1466 2.68254C11.9895 2.31598 13.8996 2.50411 15.6355 3.22314C17.3714 3.94218 18.8551 5.15982 19.899 6.72208C20.9428 8.28435 21.5 10.1211 21.5 12C21.4971 14.5187 20.4953 16.9334 18.7144 18.7144C16.9334 20.4953 14.5187 21.4971 12 21.5ZM13.01 9H10.27V15H10.77V12.5482H13.01C13.2112 12.5482 13.4103 12.5086 13.5962 12.4316C13.782 12.3547 13.9509 12.2418 14.0931 12.0996C14.2354 11.9574 14.3482 11.7885 14.4252 11.6027C14.5022 11.4168 14.5418 11.2177 14.5418 11.0165V10.5317C14.5418 10.3305 14.5022 10.1314 14.4252 9.94552C14.3482 9.75968 14.2354 9.59082 14.0931 9.44859C13.9509 9.30636 13.782 9.19353 13.5962 9.11656C13.4103 9.0396 13.2112 8.99999 13.01 9ZM14.0418 11.0165C14.0415 11.29 13.9327 11.5523 13.7392 11.7457C13.5458 11.9391 13.2835 12.0479 13.01 12.0482H10.77V9.5H13.01C13.2835 9.50029 13.5458 9.60908 13.7392 9.80249C13.9327 9.99591 14.0415 10.2582 14.0418 10.5317V11.0165Z" fill="black"/>
</svg>
