<svg width="24" height="24" viewBox="0 0 24 24" fill="none" xmlns="http://www.w3.org/2000/svg">
<path d="M22 16.983V14.7763C22 13.9822 21.7636 13.206 21.321 12.5467C20.8784 11.8874 20.2495 11.3748 19.5145 11.0741L18.3989 10.6177V10.6182L17.6841 12.3662C17.6275 12.504 17.5313 12.6218 17.4076 12.7048C17.2838 12.7877 17.1382 12.832 16.9893 12.832C16.8662 12.832 16.7451 12.8017 16.6365 12.7437C16.5279 12.6858 16.4353 12.6021 16.3667 12.4999C16.2982 12.3977 16.2558 12.2802 16.2434 12.1578C16.2309 12.0354 16.2488 11.9118 16.2954 11.7979L17.01 10.05L15.3229 9.36L14.5935 11.1431C14.5181 11.3273 14.3727 11.4739 14.1892 11.5508C14.0057 11.6278 13.7991 11.6286 13.615 11.5533C13.4308 11.4779 13.2841 11.3324 13.2072 11.1489C13.1303 10.9654 13.1294 10.7589 13.2048 10.5747L13.9341 8.7919L12.6941 8.2846L11.0151 9.4883C10.9352 9.54769 10.8442 9.59057 10.7476 9.61445C10.6509 9.63832 10.5505 9.64271 10.4521 9.62737C10.3537 9.61202 10.2594 9.57723 10.1746 9.52504C10.0898 9.47286 10.0163 9.40431 9.95825 9.32339C9.90023 9.24248 9.8589 9.15083 9.83667 9.05378C9.81444 8.95673 9.81176 8.85622 9.82878 8.75812C9.8458 8.66002 9.88218 8.56629 9.9358 8.4824C9.98942 8.39851 10.0592 8.32614 10.1411 8.2695L12 6.9368V5.6445H10.0176C9.81869 5.6445 9.62792 5.56548 9.48727 5.42483C9.34662 5.28418 9.2676 5.09341 9.2676 4.8945C9.2676 4.69559 9.34662 4.50482 9.48727 4.36417C9.62792 4.22352 9.81869 4.1445 10.0176 4.1445H12V2H9L6.2917 3H3V15C3 15.5304 3.21071 16.0391 3.58579 16.4142C3.96086 16.7893 4.46957 17 5 17H5.25V19.5234H3V20.9234H19.4188C19.9627 20.9241 20.5001 20.8045 20.9924 20.5732C21.4847 20.3419 21.9198 20.0046 22.2665 19.5855L23.3412 18.2906L22 16.983ZM14.25 19.523H6.75V17H14.25V19.523ZM21.1888 18.692C20.9733 18.9525 20.7029 19.1621 20.3969 19.3058C20.0909 19.4494 19.7569 19.5236 19.4188 19.523H15.75V17H20.0125L21.4388 18.3906L21.1888 18.692Z" fill="black"/>
</svg>
