<svg width="24" height="24" viewBox="0 0 24 24" fill="none" xmlns="http://www.w3.org/2000/svg">
<path d="M21.0745 13.7123L18.3989 12.6178L17.6841 14.3658C17.6275 14.5036 17.5313 14.6214 17.4076 14.7044C17.2838 14.7873 17.1382 14.8316 16.9893 14.8316C16.8662 14.8316 16.7451 14.8013 16.6365 14.7433C16.5279 14.6854 16.4353 14.6017 16.3667 14.4995C16.2982 14.3973 16.2558 14.2798 16.2434 14.1574C16.2309 14.035 16.2488 13.9114 16.2954 13.7975L17.01 12.05L15.3229 11.36L14.5935 13.1431C14.5181 13.3273 14.3727 13.4739 14.1892 13.5508C14.0057 13.6278 13.7991 13.6286 13.615 13.5533C13.4308 13.4779 13.2841 13.3324 13.2072 13.1489C13.1303 12.9654 13.1294 12.7589 13.2048 12.5747L13.9341 10.7919L12.6941 10.2846L11.0146 11.4888C10.9347 11.5482 10.8437 11.5911 10.7471 11.6149C10.6504 11.6388 10.55 11.6432 10.4516 11.6279C10.3532 11.6125 10.2589 11.5777 10.1741 11.5255C10.0893 11.4734 10.0158 11.4048 9.95775 11.3239C9.89973 11.243 9.8584 11.1513 9.83617 11.0543C9.81394 10.9572 9.81126 10.8567 9.82828 10.7586C9.8453 10.6605 9.88168 10.5668 9.9353 10.4829C9.98892 10.399 10.0587 10.3266 10.1406 10.27L12 8.9368V7.6445H10.0176C9.81869 7.6445 9.62792 7.56548 9.48727 7.42483C9.34662 7.28418 9.2676 7.09341 9.2676 6.8945C9.2676 6.69559 9.34662 6.50482 9.48727 6.36417C9.62792 6.22352 9.81869 6.1445 10.0176 6.1445H12V3.625H9L6.2917 4.625H2V20H3.5V19H4.7858V20H6.2858V19H7.5714V20H9.0714V19H10.3572V20H11.8572V19H13.1428V20H14.6428V19H15.9286V20H17.4286V19H18.7142V20H20.2142V19H21.5V20H23V16.58C22.9999 15.9649 22.8168 15.3637 22.4739 14.853C22.131 14.3423 21.6438 13.9452 21.0745 13.7123Z" fill="black"/>
</svg>
