<svg width="24" height="24" viewBox="0 0 24 24" fill="none" xmlns="http://www.w3.org/2000/svg">
<path d="M12 11C11.8022 11 11.6089 11.0586 11.4444 11.1685C11.28 11.2784 11.1518 11.4346 11.0761 11.6173C11.0004 11.8 10.9806 12.0011 11.0192 12.1951C11.0578 12.3891 11.153 12.5673 11.2929 12.7071C11.4327 12.847 11.6109 12.9422 11.8049 12.9808C11.9989 13.0194 12.2 12.9996 12.3827 12.9239C12.5654 12.8482 12.7216 12.72 12.8315 12.5556C12.9414 12.3911 13 12.1978 13 12C13 11.7348 12.8946 11.4804 12.7071 11.2929C12.5196 11.1054 12.2652 11 12 11ZM15.5676 11C15.3698 11 15.1765 11.0586 15.012 11.1685C14.8476 11.2784 14.7194 11.4346 14.6437 11.6173C14.568 11.8 14.5482 12.0011 14.5868 12.1951C14.6254 12.3891 14.7206 12.5673 14.8605 12.7071C15.0003 12.847 15.1785 12.9422 15.3725 12.9808C15.5665 13.0194 15.7676 12.9996 15.9503 12.9239C16.133 12.8482 16.2892 12.72 16.3991 12.5556C16.509 12.3911 16.5676 12.1978 16.5676 12C16.5676 11.7348 16.4622 11.4804 16.2747 11.2929C16.0872 11.1054 15.8328 11 15.5676 11ZM8.5261 11C8.32832 11 8.13498 11.0586 7.97053 11.1685C7.80608 11.2784 7.67791 11.4346 7.60222 11.6173C7.52653 11.8 7.50673 12.0011 7.54531 12.1951C7.5839 12.3891 7.67914 12.5673 7.81899 12.7071C7.95885 12.847 8.13703 12.9422 8.33101 12.9808C8.52499 13.0194 8.72606 12.9996 8.90878 12.9239C9.09151 12.8482 9.24769 12.72 9.35757 12.5556C9.46745 12.3911 9.5261 12.1978 9.5261 12C9.5261 11.7348 9.42074 11.4804 9.23321 11.2929C9.04567 11.1054 8.79132 11 8.5261 11ZM3 3V21H21V3H3ZM4.3666 4.3666H10.2775C8.8346 4.69307 7.51366 5.42151 6.46758 6.46758C5.42151 7.51366 4.69307 8.8346 4.3666 10.2775V4.3666ZM4.3666 19.6333V13.7225C4.69306 15.1654 5.42147 16.4863 6.46751 17.5323C7.51355 18.5784 8.83444 19.3068 10.2773 19.6333H4.3666ZM5.537 12C5.53698 10.7217 5.91601 9.47217 6.62616 8.40932C7.33632 7.34647 8.34569 6.51808 9.52665 6.0289C10.7076 5.53971 12.0071 5.41171 13.2608 5.66107C14.5145 5.91044 15.6661 6.52597 16.57 7.42983C17.4739 8.3337 18.0894 9.48529 18.3388 10.739C18.5882 11.9927 18.4602 13.2922 17.971 14.4732C17.4819 15.6541 16.6535 16.6635 15.5907 17.3737C14.5278 18.0838 13.2783 18.4629 12 18.4629C10.2865 18.461 8.64369 17.7795 7.43205 16.5679C6.22041 15.3563 5.53888 13.7135 5.537 12ZM19.6333 19.6333H13.7227C15.1656 19.3068 16.4864 18.5784 17.5325 17.5323C18.5785 16.4863 19.3069 15.1654 19.6333 13.7225V19.6333ZM19.6333 10.2775C19.3069 8.8346 18.5785 7.51365 17.5324 6.46757C16.4863 5.42149 15.1654 4.69306 13.7225 4.3666H19.6333V10.2775Z" fill="black"/>
</svg>
