<svg width="24" height="24" viewBox="0 0 24 24" fill="none" xmlns="http://www.w3.org/2000/svg">
<path d="M5 3V17H19V3H5ZM6.3667 4.3666H10.5225C9.52385 4.62917 8.61286 5.15226 7.88268 5.88239C7.1525 6.61251 6.62934 7.52347 6.3667 8.5221V4.3666ZM6.3667 15.6333V11.478C6.6293 12.4765 7.15236 13.3873 7.88238 14.1174C8.61241 14.8475 9.52322 15.3706 10.5217 15.6333H6.3667ZM7.5371 10C7.53714 9.11733 7.79892 8.25449 8.28933 7.5206C8.77975 6.78671 9.47677 6.21472 10.2923 5.87696C11.1078 5.53921 12.0051 5.45085 12.8708 5.62308C13.7365 5.7953 14.5317 6.22037 15.1558 6.84452C15.7799 7.46868 16.205 8.26389 16.3772 9.12961C16.5493 9.99532 16.461 10.8926 16.1232 11.7081C15.7854 12.5236 15.2134 13.2206 14.4794 13.711C13.7455 14.2014 12.8827 14.4631 12 14.4631C10.8168 14.4617 9.68237 13.9911 8.8457 13.1544C8.00904 12.3177 7.53842 11.1832 7.5371 10ZM17.6333 15.6332H13.4783C14.4768 15.3705 15.3876 14.8474 16.1176 14.1173C16.8476 13.3872 17.3707 12.4764 17.6333 11.4779V15.6332ZM17.6333 8.522C17.3707 7.52337 16.8475 6.61241 16.1173 5.88229C15.3871 5.15216 14.4761 4.62907 13.4775 4.3665H17.6333V8.522ZM5 21H19V19.6333H5V21Z" fill="black"/>
</svg>
