<svg width="24" height="24" viewBox="0 0 24 24" fill="none" xmlns="http://www.w3.org/2000/svg">
<path d="M17.741 2.2008L15.098 1H8.902L6.259 2.2008C5.73451 2.43911 5.28972 2.8234 4.97779 3.30775C4.66587 3.79209 4.5 4.356 4.5 4.9321V15H7.5V23H16.5V15H19.5V4.9321C19.5 4.356 19.3341 3.79209 19.0222 3.30775C18.7103 2.8234 18.2655 2.43911 17.741 2.2008ZM14.45 1.5C14.3352 2.06514 14.0286 2.57324 13.5821 2.93819C13.1356 3.30314 12.5767 3.50251 12 3.50251C11.4233 3.50251 10.8644 3.30314 10.4179 2.93819C9.97136 2.57324 9.66476 2.06514 9.55 1.5H14.45ZM19 14.5H16.5V6H16V22.5H12.25V12.9032H11.75V22.5H8V6H7.5V14.5H5V4.9321C5.00065 4.45216 5.13913 3.98251 5.39899 3.57901C5.65884 3.17551 6.02913 2.85513 6.4658 2.656L9.01 1.5H9.05C9.08563 1.72902 9.14785 1.9531 9.2354 2.1677C9.38627 2.52401 9.60457 2.84781 9.8783 3.1213C10.4409 3.6839 11.204 3.99996 11.9996 3.99996C12.7952 3.99996 13.5583 3.6839 14.1209 3.1213C14.3946 2.84779 14.613 2.524 14.7639 2.1677C14.8517 1.95313 14.9141 1.72905 14.95 1.5H14.99L17.5344 2.656C17.971 2.85515 18.3413 3.17554 18.6011 3.57904C18.8609 3.98254 18.9994 4.45218 19 4.9321V14.5Z" fill="black"/>
</svg>
