<svg width="24" height="24" viewBox="0 0 24 24" fill="none" xmlns="http://www.w3.org/2000/svg">
<path d="M17.9721 4.1888L15 3C15 3.79565 14.6839 4.55871 14.1213 5.12132C13.5587 5.68393 12.7956 6 12 6C11.2044 6 10.4413 5.68393 9.87868 5.12132C9.31607 4.55871 9 3.79565 9 3L6.028 4.1888C5.42935 4.42825 4.91619 4.84158 4.55471 5.37548C4.19323 5.90938 4.00002 6.53934 4 7.1841V20H7V9H7.5V21H16.5V9H17V20H20V7.1841C20 6.53935 19.8068 5.90939 19.4454 5.37549C19.0839 4.84159 18.5707 4.42825 17.9721 4.1888ZM12 5.5C12.6628 5.49926 13.2983 5.23563 13.7669 4.76695C14.2356 4.29827 14.4993 3.66281 14.5 3H9.5C9.50074 3.66281 9.76437 4.29827 10.2331 4.76695C10.7017 5.23563 11.3372 5.49926 12 5.5Z" fill="black"/>
</svg>
