<svg width="24" height="24" viewBox="0 0 24 24" fill="none" xmlns="http://www.w3.org/2000/svg">
<path d="M18.606 3.5174C18.0057 3.17823 17.3279 3 16.6384 3H7.3616C6.6721 3 5.99431 3.17823 5.394 3.5174L1 6L3.1075 10.265L6 9.4062V21H18V9.4062L20.8925 10.265L23 6L18.606 3.5174ZM14.2229 12.49H9.9729V11.6341C9.9729 11.6341 13.2899 9.3041 13.2899 8.0154C13.2971 7.85186 13.27 7.68862 13.2104 7.53616C13.1508 7.38369 13.06 7.24538 12.9437 7.13009C12.8275 7.0148 12.6885 6.92507 12.5356 6.86668C12.3826 6.80828 12.2192 6.78251 12.0557 6.791C11.886 6.78035 11.7159 6.80658 11.5573 6.86787C11.3986 6.92916 11.2551 7.02407 11.1367 7.14607C11.0182 7.26808 10.9275 7.41428 10.8709 7.57465C10.8142 7.73502 10.793 7.90575 10.8086 8.0751C10.7304 8.0751 9.9122 8.0735 9.9122 8.0735C9.89921 7.78866 9.94591 7.50426 10.0493 7.23854C10.1527 6.97281 10.3105 6.73165 10.5126 6.53051C10.7147 6.32938 10.9567 6.17272 11.2229 6.0706C11.4891 5.96847 11.7737 5.92314 12.0585 5.9375C12.3361 5.92107 12.6142 5.9622 12.8752 6.05832C13.1362 6.15443 13.3745 6.30345 13.5752 6.49602C13.7759 6.68859 13.9346 6.92056 14.0414 7.17738C14.1482 7.43419 14.2008 7.71031 14.1958 7.9884C14.1958 9.4998 11.371 11.4608 11.1794 11.5998H14.2229V12.49Z" fill="black"/>
</svg>
