<svg width="24" height="24" viewBox="0 0 24 24" fill="none" xmlns="http://www.w3.org/2000/svg">
<path d="M18.1235 2.1858L15.6313 1H8.3687L5.8765 2.1858C5.36475 2.42954 4.93252 2.81328 4.62988 3.29256C4.32724 3.77185 4.16658 4.32706 4.1665 4.8939V15H7.1665V23H16.8332V15H19.8332V4.8939C19.8332 4.3271 19.6725 3.7719 19.37 3.29262C19.0674 2.81334 18.6352 2.42958 18.1235 2.1858ZM13.9117 2.3666C13.7932 2.77849 13.541 3.13924 13.1949 3.39202C12.8488 3.6448 12.4284 3.77525 12 3.7628C11.5707 3.77828 11.1487 3.64904 10.8017 3.39583C10.4547 3.14262 10.2029 2.78014 10.0867 2.3666H13.9117ZM18.4667 13.6333H16.8334V6.6666H15.4667V21.6333H12.6833V12.9033H11.3167V21.6333H8.5333V6.6666H7.1667V13.6333H5.5333V4.8939C5.53413 4.58413 5.62267 4.28093 5.78867 4.0194C5.95467 3.75787 6.19135 3.54869 6.4713 3.4161L8.6813 2.3666H8.7513C8.80926 3.07026 9.12714 3.72714 9.643 4.2092C10.2853 4.80136 11.127 5.1299 12.0006 5.1294C12.8742 5.1289 13.7155 4.79939 14.3571 4.2065C14.771 3.81825 15.0663 3.32066 15.2089 2.7714C15.239 2.63804 15.2601 2.5028 15.2719 2.3666H15.3184L17.5284 3.4166C17.8084 3.54918 18.0451 3.75835 18.2111 4.01988C18.3771 4.28141 18.4657 4.58462 18.4665 4.8944L18.4667 13.6333Z" fill="black"/>
</svg>
