<svg width="24" height="24" viewBox="0 0 24 24" fill="none" xmlns="http://www.w3.org/2000/svg">
<path d="M5.93329 19.6667H6.90229C7.6013 19.6773 8.2831 19.8851 8.86913 20.2663C9.45516 20.6475 9.92156 21.1865 10.2146 21.8212L10.7867 23H13.2134L13.7855 21.8212C14.0785 21.1865 14.5449 20.6475 15.1309 20.2663C15.7169 19.8851 16.3987 19.6773 17.0977 19.6667H18.0667V16.3333H5.93329V19.6667ZM6.43329 16.8333H17.5667V19.1667H17.0977C16.3044 19.1754 15.5298 19.409 14.8639 19.8402C14.198 20.2715 13.6681 20.8827 13.3356 21.603L12.9 22.5H11.1L10.6646 21.603C10.3321 20.8827 9.80214 20.2715 9.13623 19.8402C8.47033 19.409 7.69578 19.1754 6.90249 19.1667H6.43349L6.43329 16.8333ZM16.9818 5.16L16.6518 4.7371V1H16.1851V4.61L14.5489 5.8175C14.0416 6.20277 13.6313 6.70123 13.3508 7.27315C13.0703 7.84507 12.9274 8.47462 12.9333 9.1116V10.5H11.0667V9.1116C11.0726 8.47464 10.9296 7.8451 10.6492 7.27318C10.3687 6.70126 9.95845 6.20279 9.45119 5.8175L7.81459 4.61V1H7.34799V4.7368L7.01799 5.1597C6.3105 6.07801 5.92877 7.20567 5.93299 8.3649V11H18.0667V8.3649C18.0708 7.20579 17.6891 6.07826 16.9818 5.16ZM10.5667 10.5H6.43329V8.3649C6.4296 7.31712 6.77411 6.2978 7.41269 5.4671L7.67619 5.129L9.15419 6.22C9.59863 6.55866 9.95779 6.99649 10.203 7.49856C10.4483 8.00064 10.5728 8.55307 10.5667 9.1118V10.5ZM17.5667 10.5H13.4333V9.1116C13.4272 8.5529 13.5518 8.00052 13.797 7.49849C14.0423 6.99646 14.4014 6.55866 14.8458 6.22L16.3239 5.129L16.5874 5.4671C17.2259 6.29784 17.5704 7.31714 17.5667 8.3649V10.5Z" fill="black"/>
</svg>
