<svg width="24" height="24" viewBox="0 0 24 24" fill="none" xmlns="http://www.w3.org/2000/svg">
<path d="M18.606 3.5174C18.0057 3.17823 17.3279 3 16.6384 3H7.3616C6.6721 3 5.99431 3.17823 5.394 3.5174L1 6L3.1075 10.265L6 9.4062V21H18V9.4062L20.8925 10.265L23 6L18.606 3.5174ZM14.2146 12.49H10.0893V11.9615C10.0893 11.9615 13.6171 9.38 13.6171 7.9593C13.6285 7.76018 13.5977 7.56088 13.5267 7.37451C13.4557 7.18813 13.3461 7.01887 13.205 6.87785C13.064 6.73683 12.8947 6.62724 12.7083 6.55626C12.5219 6.48528 12.3226 6.45452 12.1235 6.466C11.9208 6.44798 11.7167 6.4749 11.5257 6.54484C11.3346 6.61478 11.1613 6.72602 11.0182 6.87062C10.8751 7.01522 10.7657 7.18962 10.6977 7.38138C10.6297 7.57315 10.6049 7.77754 10.625 7.98L10.0893 7.9807C10.0864 7.44189 10.2977 6.924 10.6767 6.54096C11.0556 6.15793 11.5712 5.94113 12.1101 5.93825C12.6489 5.93537 13.1668 6.14666 13.5498 6.52562C13.9328 6.90458 14.1496 7.42019 14.1525 7.959C14.1525 9.5408 10.809 11.9614 10.809 11.9614H14.2146V12.49Z" fill="black"/>
</svg>
