<svg width="24" height="24" viewBox="0 0 24 24" fill="none" xmlns="http://www.w3.org/2000/svg">
<path d="M19.5 4H7V4.498H19.498C20.0284 4.498 20.5371 4.70871 20.9122 5.08379C21.2873 5.45886 21.498 5.96757 21.498 6.498V10H10.8125C5.0938 10 2 14 2 20H22V6.5C22 5.83696 21.7366 5.20107 21.2678 4.73223C20.7989 4.26339 20.163 4 19.5 4ZM15.7393 17.2607L15.3857 17.6143L13.125 15.3535L10.8643 17.6143L10.5107 17.2607L12.7715 15L10.5107 12.7393L10.8643 12.3857L13.125 14.6465L15.3857 12.3857L15.7393 12.7393L13.4785 15L15.7393 17.2607Z" fill="black"/>
</svg>
