<svg width="24" height="24" viewBox="0 0 24 24" fill="none" xmlns="http://www.w3.org/2000/svg">
<path d="M6.64356 6.85L11.5916 12.6807C12.0408 13.2101 12.6678 13.5572 13.3549 13.657C14.042 13.7568 14.7419 13.6023 15.3232 13.2226L16.1503 12.6826L20.6378 15.6489C20.7954 15.7538 20.9247 15.896 21.0141 16.063C21.1035 16.2299 21.1501 16.4164 21.15 16.6058V17.15H14.2618C13.814 17.15 13.3715 17.0545 12.9635 16.87C12.5556 16.6855 12.1916 16.4162 11.896 16.08L8.68076 12.4224C8.41971 12.1253 8.09915 11.8863 7.73985 11.721C7.38056 11.5557 6.99054 11.4677 6.59507 11.4628C6.19959 11.4579 5.8075 11.5361 5.44418 11.6923C5.08087 11.8486 4.75444 12.0795 4.48606 12.37L4.40946 12.009C4.09684 10.5472 4.25297 9.02407 4.85566 7.6561L5.20896 6.85H6.64356ZM7.49996 5H3.99996L3.16136 6.9132C2.40618 8.636 2.20984 10.5521 2.59996 12.3923L3.99996 19H5.58336V14.2879C5.58335 14.0896 5.64376 13.8961 5.75654 13.733C5.86932 13.57 6.02912 13.4451 6.21463 13.3752C6.40014 13.3052 6.60257 13.2935 6.79493 13.3415C6.98729 13.3895 7.16046 13.495 7.29136 13.6439L10.5066 17.3013C10.9758 17.8351 11.5535 18.2627 12.201 18.5556C12.8485 18.8485 13.5511 19 14.2618 19H23V16.6056C23 16.1117 22.878 15.6255 22.645 15.19C22.4119 14.7545 22.075 14.3834 21.6641 14.1094L16.1562 10.4688L14.3115 11.6738C14.1075 11.8071 13.8619 11.8613 13.6208 11.8263C13.3797 11.7913 13.1597 11.6695 13.0021 11.4838L7.49996 5Z" fill="black"/>
</svg>
