<svg width="24" height="24" viewBox="0 0 24 24" fill="none" xmlns="http://www.w3.org/2000/svg">
<path d="M18.7137 3.626C17.9723 3.2154 17.1387 2.99999 16.2912 3H7.6923C6.8419 2.99994 6.00555 3.21677 5.2623 3.63L1 6L3.7025 11.4216L6 10.4305V21H18V10.4305L20.9642 11.4216L23 6L18.7137 3.626ZM13.6567 4.4333L12.0867 6.1925C12.0813 6.1984 12.0467 6.2376 12.0221 6.2376C11.9975 6.2376 11.9628 6.2521 11.9574 6.2462L10.343 4.4333H13.6567ZM20.0782 9.615L18.4537 9.0709L16.5667 8.4409V19.5667H7.4333V8.1491L5.38 9.14L4.3535 9.5182L2.8947 6.5861L5.96 4.8826C6.49016 4.58832 7.08645 4.43371 7.6928 4.4333H8.4114L10.894 7.2072C11.0338 7.36184 11.2044 7.48546 11.3949 7.57006C11.5854 7.65466 11.7916 7.69838 12 7.69838C12.2084 7.69838 12.4146 7.65466 12.6051 7.57006C12.7956 7.48546 12.9662 7.36184 13.106 7.2072L15.5891 4.4333H16.2912C16.8955 4.43369 17.4897 4.5872 18.0186 4.8795L21.2457 6.6662L20.0782 9.615Z" fill="black"/>
</svg>
