<svg width="24" height="24" viewBox="0 0 24 24" fill="none" xmlns="http://www.w3.org/2000/svg">
<path d="M20.8044 11.4464L16.4731 10.3544L15.2031 9.5134L14.0337 11.2793C13.9604 11.3899 13.8462 11.4668 13.7162 11.4932C13.5861 11.5196 13.4509 11.4932 13.3404 11.4199C13.2298 11.3467 13.1528 11.2324 13.1264 11.1024C13.1001 10.9724 13.1264 10.8372 13.1997 10.7266L14.369 8.9609L13.1133 8.1292L11.8892 9.9775C11.8159 10.0881 11.7017 10.165 11.5717 10.1914C11.4416 10.2178 11.3064 10.1914 11.1959 10.1181C11.0853 10.0449 11.0083 9.93063 10.9819 9.8006C10.9556 9.67058 10.9819 9.5354 11.0552 9.4248L12.2791 7.5767L11.4083 7H9.9683L7.8882 8.5236C7.33458 8.92913 6.66978 9.15488 5.98369 9.17033C5.29761 9.18578 4.62332 8.99019 4.052 8.61L2.4161 7.5207L1 7.5382V17H7V15.6666L10.6562 17H23V14.2642C23 13.6171 22.784 12.9885 22.3863 12.4781C21.9885 11.9677 21.4318 11.6046 20.8044 11.4464Z" fill="black"/>
</svg>
