<svg width="24" height="24" viewBox="0 0 24 24" fill="none" xmlns="http://www.w3.org/2000/svg">
<path d="M17.1191 3C16.5351 3.00002 15.9576 3.12241 15.4238 3.3593C14.89 3.59618 14.4117 3.94229 14.0199 4.37531C13.628 4.80834 13.3312 5.31867 13.1487 5.87342C12.9661 6.42816 12.9019 7.015 12.96 7.5961L13.5 13V16.75C13.5 17.8772 13.9478 18.9582 14.7448 19.7552C15.5418 20.5522 16.6228 21 17.75 21C18.8772 21 19.9582 20.5522 20.7552 19.7552C21.5522 18.9582 22 17.8772 22 16.75V7.8809C22 7.23993 21.8738 6.60523 21.6285 6.01304C21.3832 5.42086 21.0237 4.88279 20.5704 4.42955C20.1172 3.97632 19.5791 3.61679 18.987 3.37151C18.3948 3.12623 17.7601 2.99999 17.1191 3ZM15.3913 5.6166C15.6087 5.3739 15.8751 5.18007 16.173 5.04793C16.4708 4.91578 16.7933 4.84832 17.1191 4.85C17.7552 4.85216 18.3744 5.05483 18.8887 5.42916C19.403 5.8035 19.7862 6.33046 19.9838 6.9351L19.7422 6.8867C18.1038 6.56696 16.4141 6.6251 14.8015 7.0567C14.8241 6.52257 15.0328 6.01316 15.3913 5.6166ZM20.15 16.75C20.15 17.3865 19.8971 17.997 19.4471 18.4471C18.997 18.8971 18.3865 19.15 17.75 19.15C17.1135 19.15 16.503 18.8971 16.0529 18.4471C15.6029 17.997 15.35 17.3865 15.35 16.75V12.9077L15.3408 12.8159L15.297 12.3776C16.6407 11.9453 18.0725 11.8629 19.457 12.1382L20.1495 12.2766L20.15 16.75ZM20.15 10.39L19.82 10.324C18.2568 10.0189 16.6438 10.0858 15.1113 10.5194L14.9519 8.9254C16.3869 8.48735 17.9078 8.41044 19.3796 8.7015L20.1502 8.8555L20.15 10.39ZM6.8809 3C6.23993 2.99999 5.60523 3.12623 5.01304 3.37151C4.42086 3.61679 3.88279 3.97632 3.42955 4.42955C2.97632 4.88279 2.61679 5.42086 2.37151 6.01304C2.12623 6.60523 1.99999 7.23993 2 7.8809V16.75C2 17.8772 2.44777 18.9582 3.2448 19.7552C4.04183 20.5522 5.12283 21 6.25 21C7.37717 21 8.45817 20.5522 9.2552 19.7552C10.0522 18.9582 10.5 17.8772 10.5 16.75V13L11.04 7.5961C11.0981 7.015 11.0339 6.42816 10.8513 5.87342C10.6688 5.31867 10.372 4.80834 9.98014 4.37531C9.58828 3.94229 9.11004 3.59618 8.57623 3.3593C8.04243 3.12241 7.46491 3.00002 6.8809 3ZM8.6592 12.8159L8.65 12.9077V16.75C8.65 17.3865 8.39714 17.997 7.94706 18.4471C7.49697 18.8971 6.88652 19.15 6.25 19.15C5.61348 19.15 5.00303 18.8971 4.55294 18.4471C4.10286 17.997 3.85 17.3865 3.85 16.75V12.2766L4.5425 12.1382C5.92702 11.8632 7.35879 11.9458 8.7025 12.3782L8.6592 12.8159ZM8.8892 10.5191C7.35658 10.0851 5.7433 10.0182 4.18 10.3237L3.85 10.3897V8.8552L4.6211 8.7012C6.09281 8.41093 7.61338 8.48783 9.0483 8.9251L8.8892 10.5191ZM4.2583 6.8867L4.0161 6.9351C4.21374 6.33047 4.59696 5.80354 5.11126 5.42921C5.62557 5.05488 6.24479 4.8522 6.8809 4.85C7.47729 4.84784 8.05145 5.07627 8.48335 5.48755C8.91526 5.89882 9.17149 6.46111 9.1985 7.0569C7.58617 6.62501 5.89653 6.5668 4.2583 6.8867Z" fill="black"/>
</svg>
