<svg width="24" height="24" viewBox="0 0 24 24" fill="none" xmlns="http://www.w3.org/2000/svg">
<path d="M9.6562 10.5C9.35953 10.5 9.06952 10.588 8.82284 10.7528C8.57617 10.9176 8.38391 11.1519 8.27038 11.426C8.15685 11.7001 8.12714 12.0017 8.18502 12.2926C8.2429 12.5836 8.38576 12.8509 8.59554 13.0607C8.80532 13.2704 9.07259 13.4133 9.36356 13.4712C9.65454 13.5291 9.95614 13.4994 10.2302 13.3858C10.5043 13.2723 10.7386 13.08 10.9034 12.8334C11.0682 12.5867 11.1562 12.2967 11.1562 12C11.1562 11.6022 10.9982 11.2206 10.7169 10.9393C10.4356 10.658 10.054 10.5 9.6562 10.5ZM9.6562 13C9.45842 13 9.26508 12.9414 9.10063 12.8315C8.93618 12.7216 8.80801 12.5654 8.73232 12.3827C8.65663 12.2 8.63683 11.9989 8.67542 11.8049C8.714 11.6109 8.80924 11.4327 8.94909 11.2929C9.08895 11.153 9.26713 11.0578 9.46111 11.0192C9.65509 10.9806 9.85616 11.0004 10.0389 11.0761C10.2216 11.1518 10.3778 11.28 10.4877 11.4444C10.5976 11.6089 10.6562 11.8022 10.6562 12C10.6559 12.2651 10.5504 12.5193 10.363 12.7068C10.1755 12.8942 9.92132 12.9997 9.6562 13ZM14.3438 10.5C14.0471 10.5 13.7571 10.588 13.5104 10.7528C13.2638 10.9176 13.0715 11.1519 12.958 11.426C12.8444 11.7001 12.8147 12.0017 12.8726 12.2926C12.9305 12.5836 13.0734 12.8509 13.2831 13.0607C13.4929 13.2704 13.7602 13.4133 14.0512 13.4712C14.3421 13.5291 14.6437 13.4994 14.9178 13.3858C15.1919 13.2723 15.4262 13.08 15.591 12.8334C15.7558 12.5867 15.8438 12.2967 15.8438 12C15.8438 11.6022 15.6858 11.2206 15.4045 10.9393C15.1232 10.658 14.7416 10.5 14.3438 10.5ZM14.3438 13C14.146 13 13.9527 12.9414 13.7882 12.8315C13.6238 12.7216 13.4956 12.5654 13.4199 12.3827C13.3442 12.2 13.3244 11.9989 13.363 11.8049C13.4016 11.6109 13.4968 11.4327 13.6367 11.2929C13.7765 11.153 13.9547 11.0578 14.1487 11.0192C14.3427 10.9806 14.5438 11.0004 14.7265 11.0761C14.9092 11.1518 15.0654 11.28 15.1753 11.4444C15.2852 11.6089 15.3438 11.8022 15.3438 12C15.3435 12.2651 15.2381 12.5193 15.0506 12.7068C14.8631 12.8943 14.6089 12.9997 14.3438 13ZM3 3V21H21V3H3ZM3.5 3.5H9.063C7.77542 3.94621 6.60583 4.67867 5.64225 5.64225C4.67867 6.60583 3.94621 7.77542 3.5 9.063V3.5ZM3.5 20.5V14.937C3.94621 16.2246 4.67867 17.3942 5.64225 18.3578C6.60583 19.3213 7.77542 20.0538 9.063 20.5H3.5ZM20.5 20.5H14.937C16.2246 20.0538 17.3942 19.3213 18.3578 18.3578C19.3213 17.3942 20.0538 16.2246 20.5 14.937V20.5ZM12 20.5C10.3189 20.5 8.67547 20.0015 7.27765 19.0675C5.87984 18.1335 4.79037 16.806 4.14702 15.2528C3.50368 13.6996 3.33535 11.9906 3.66333 10.3417C3.9913 8.69289 4.80085 7.17834 5.98959 5.98959C7.17834 4.80085 8.69289 3.9913 10.3417 3.66333C11.9906 3.33535 13.6996 3.50368 15.2528 4.14702C16.806 4.79037 18.1335 5.87984 19.0675 7.27765C20.0015 8.67547 20.5 10.3189 20.5 12C20.4974 14.2535 19.601 16.414 18.0075 18.0075C16.414 19.601 14.2535 20.4974 12 20.5ZM20.5 9.063C20.0538 7.77542 19.3213 6.60583 18.3578 5.64225C17.3942 4.67867 16.2246 3.94621 14.937 3.5H20.5V9.063Z" fill="black"/>
</svg>
