<svg width="24" height="24" viewBox="0 0 24 24" fill="none" xmlns="http://www.w3.org/2000/svg">
<path d="M12 2L1.453 22H22.547L12 2ZM12 3.0719L21.7181 21.5H2.282L12 3.0719ZM13.7708 16.98V12.4974H13.2708V17.43H16.2717V16.98H13.7708ZM8.7786 14.1128V15.8142C8.77854 16.0264 8.82027 16.2365 8.90143 16.4325C8.98258 16.6286 9.10156 16.8067 9.25157 16.9567C9.40158 17.1068 9.57969 17.2258 9.77571 17.307C9.97173 17.3882 10.1818 17.43 10.394 17.43H11.8652V16.98H10.442C10.1268 16.98 9.82447 16.8547 9.60157 16.6318C9.37867 16.4089 9.25343 16.1066 9.2534 15.7914V14.1292C9.2534 13.814 9.37863 13.5116 9.60154 13.2887C9.82444 13.0658 10.1268 12.9406 10.442 12.9406H11.8652V12.4974H10.394C10.1819 12.4974 9.9718 12.5392 9.7758 12.6203C9.57981 12.7015 9.40172 12.8205 9.25171 12.9705C9.10171 13.1205 8.98272 13.2986 8.90154 13.4946C8.82036 13.6906 8.77859 13.9007 8.7786 14.1128Z" fill="black"/>
</svg>
