<svg width="24" height="24" viewBox="0 0 24 24" fill="none" xmlns="http://www.w3.org/2000/svg">
<path d="M3 3V21H21V3H3ZM19.4814 12C19.4826 13.0498 19.2627 14.088 18.8358 15.0471C18.409 16.0061 17.7849 16.8645 17.0042 17.5663C16.2235 18.268 15.3037 18.7974 14.3047 19.1199C13.3057 19.4425 12.25 19.5509 11.2063 19.4382L19.4382 11.2064C19.4665 11.47 19.481 11.7349 19.4814 12ZM4.5186 12C4.51724 10.9502 4.73711 9.9119 5.16388 8.95277C5.59066 7.99364 6.21476 7.1352 6.99551 6.43341C7.77626 5.73162 8.69613 5.20224 9.69517 4.87976C10.6942 4.55727 11.75 4.44893 12.7937 4.5618L4.5618 12.7936C4.53345 12.53 4.51903 12.2651 4.5186 12ZM13.9027 4.7731C15.0287 5.07012 16.0695 5.62656 16.9419 6.3979L6.3979 16.9419C5.62657 16.0695 5.07016 15.0286 4.7732 13.9026L13.9027 4.7731ZM17.6021 7.0581C18.3734 7.93053 18.9298 8.97139 19.2268 10.0974L10.0974 19.2274C8.97141 18.9303 7.93056 18.3739 7.0581 17.6026L17.6021 7.0581ZM20.0667 9.6149C19.6677 8.26961 18.939 7.04528 17.9467 6.05308C16.9545 5.06088 15.7301 4.33224 14.3848 3.9333H20.0667V9.6149ZM9.6152 3.9333C8.26989 4.33224 7.04552 5.06088 6.05327 6.05308C5.06102 7.04528 4.33231 8.26961 3.9333 9.6149V3.9333H9.6152ZM3.9333 14.3851C4.33231 15.7304 5.061 16.9547 6.05321 17.9468C7.04543 18.939 8.26974 19.6677 9.615 20.0667H3.9333V14.3851ZM14.385 20.0667C15.7303 19.6677 16.9546 18.939 17.9468 17.9468C18.939 16.9547 19.6677 15.7304 20.0667 14.3851V20.0667H14.385Z" fill="black"/>
</svg>
