<svg width="24" height="24" viewBox="0 0 24 24" fill="none" xmlns="http://www.w3.org/2000/svg">
<path d="M18.2655 4.0688L15.52 3H8.47997L5.73467 4.0688C5.0275 4.34304 4.41976 4.82468 3.99122 5.45051C3.56268 6.07634 3.33336 6.81711 3.33337 7.5756V20H6.99997V21H17V20H20.6667V7.5755C20.6667 6.81704 20.4373 6.07631 20.0088 5.4505C19.5803 4.8247 18.9726 4.34306 18.2655 4.0688ZM13.8663 4.4333C13.8059 4.88549 13.5834 5.30039 13.2402 5.60088C12.8969 5.90137 12.4562 6.06701 12 6.06701C11.5438 6.06701 11.1031 5.90137 10.7599 5.60088C10.4166 5.30039 10.1941 4.88549 10.1338 4.4333H13.8663ZM19.2333 18.5667H17V9H15.5667V19.5667H8.43327V9H6.99997V18.5667H4.76667V7.6853C4.76667 7.6621 4.76747 7.5294 4.76917 7.5065C4.78266 7.05006 4.93007 6.60766 5.19306 6.23436C5.45605 5.86106 5.82301 5.57334 6.24827 5.407L8.55627 4.51L8.69997 4.4914C8.77661 5.31737 9.16012 6.08459 9.77481 6.6416C10.3895 7.19862 11.1907 7.50494 12.0202 7.50009C12.8497 7.49524 13.6472 7.17958 14.2553 6.61542C14.8635 6.05126 15.238 5.27961 15.305 4.4528L17.7524 5.4069C18.1755 5.57251 18.5409 5.85837 18.8035 6.22922C19.0661 6.60007 19.2143 7.03968 19.23 7.4938C19.2324 7.5208 19.2335 7.6614 19.2335 7.6888L19.2333 18.5667Z" fill="black"/>
</svg>
