<svg width="24" height="24" viewBox="0 0 24 24" fill="none" xmlns="http://www.w3.org/2000/svg">
<path d="M19.3333 3H7V3.9987H19.332C19.774 3.9987 20.1979 4.17428 20.5105 4.48683C20.8231 4.79938 20.9987 5.22328 20.9987 5.6653V8H10.8125C5.0938 8 2 12 2 18H6.3292L5.1458 22H6.1458L7.3292 18H11.5173V22H12.4827V18H16.6708L17.8542 22H18.8542L17.6708 18H22V5.6666C22 4.95936 21.719 4.2811 21.2189 3.78102C20.7188 3.28094 20.0405 3 19.3333 3ZM15.916 15.084L15.209 15.791L13.125 13.707L11.041 15.791L10.334 15.084L12.418 13L10.334 10.916L11.041 10.209L13.125 12.293L15.209 10.209L15.916 10.916L13.832 13L15.916 15.084Z" fill="black"/>
</svg>
