<svg width="24" height="24" viewBox="0 0 24 24" fill="none" xmlns="http://www.w3.org/2000/svg">
<path d="M20.0254 21.3584H3.97461V15.44C3.97461 10.34 3.97461 9.9957 3.97461 9.9957L4.80321 9.608C5.18375 9.42832 5.50558 9.14448 5.7314 8.78937C5.95722 8.43426 6.07778 8.02243 6.07911 7.6016V3H9.77911V5.7021C9.77911 6.291 10.013 6.85578 10.4295 7.2722C10.8459 7.68861 11.4107 7.92255 11.9996 7.92255C12.5885 7.92255 13.1532 7.68861 13.5697 7.2722C13.9861 6.85578 14.22 6.291 14.22 5.7021V3H17.8992V7.5918C17.9001 8.01355 18.0209 8.42635 18.2476 8.78204C18.4742 9.13772 18.7973 9.42162 19.1792 9.6006L20.021 10.0059L20.0254 21.3584ZM4.94141 20.3916H19.0586L19.0542 10.6133L18.7656 10.4746C18.2184 10.217 17.7556 9.80932 17.4311 9.29896C17.1066 8.78861 16.9338 8.19658 16.9326 7.5918V3.9668H15.187V5.7021C15.1894 6.12216 15.1087 6.53854 14.9495 6.9273C14.7904 7.31606 14.556 7.66953 14.2598 7.96739C13.9636 8.26525 13.6115 8.50163 13.2236 8.66292C12.8357 8.82422 12.4198 8.90725 11.9998 8.90725C11.5797 8.90725 11.1638 8.82422 10.7759 8.66292C10.388 8.50163 10.0359 8.26525 9.73969 7.96739C9.4435 7.66953 9.2091 7.31606 9.04998 6.9273C8.89086 6.53854 8.81016 6.12216 8.81251 5.7021V3.9668H7.04591V7.6016C7.04422 8.20471 6.87199 8.79504 6.54912 9.30444C6.22625 9.81385 5.7659 10.2216 5.22121 10.4805L4.94191 10.6162C4.94141 12.06 4.94141 18.6 4.94141 20.3916Z" fill="black"/>
</svg>
