<svg width="24" height="24" viewBox="0 0 24 24" fill="none" xmlns="http://www.w3.org/2000/svg">
<path d="M18.4247 4.0184L15.7529 3H8.2471L5.5753 4.0184C4.8179 4.3071 4.16608 4.81909 3.70618 5.48655C3.24628 6.15401 3.00002 6.94544 3 7.756V20H7V21H17V20H21V7.756C21 6.94544 20.7537 6.15401 20.2938 5.48655C19.8339 4.81909 19.1821 4.3071 18.4247 4.0184ZM13.5494 4.9C13.4609 5.24363 13.2606 5.54808 12.9801 5.76546C12.6996 5.98284 12.3549 6.1008 12 6.1008C11.6451 6.1008 11.3004 5.98284 11.0199 5.76546C10.7394 5.54808 10.5391 5.24363 10.4506 4.9H13.5494ZM19.1 18.1H17V9H15.1V19.1H8.9V9H7V18.1H4.9V7.756C4.90162 7.33083 5.03155 6.91604 5.2728 6.56594C5.51405 6.21583 5.85537 5.94671 6.2521 5.7938L8.5421 4.9207C8.6405 5.7687 9.0471 6.55097 9.68459 7.11877C10.3221 7.68656 11.146 8.00029 11.9997 8.00029C12.8534 8.00029 13.6773 7.68656 14.3148 7.11877C14.9523 6.55097 15.3589 5.7687 15.4573 4.9207L17.7473 5.7938C18.1441 5.9466 18.4856 6.21568 18.727 6.5658C18.9683 6.91591 19.0984 7.33075 19.1 7.756V18.1Z" fill="black"/>
</svg>
