<svg width="24" height="24" viewBox="0 0 24 24" fill="none" xmlns="http://www.w3.org/2000/svg">
<path d="M12.9308 9.8333H10.9434V11.9223H12.9308C13.1399 11.922 13.3403 11.8387 13.4882 11.6909C13.636 11.543 13.7192 11.3426 13.7195 11.1335V10.6221C13.7192 10.413 13.636 10.2126 13.4882 10.0647C13.3403 9.91686 13.1399 9.83364 12.9308 9.8333ZM12 2C10.0222 2 8.08879 2.58649 6.4443 3.6853C4.79981 4.78412 3.51809 6.3459 2.76121 8.17317C2.00433 10.0004 1.8063 12.0111 2.19215 13.9509C2.578 15.8907 3.53041 17.6725 4.92894 19.0711C6.32746 20.4696 8.10929 21.422 10.0491 21.8079C11.9889 22.1937 13.9996 21.9957 15.8268 21.2388C17.6541 20.4819 19.2159 19.2002 20.3147 17.5557C21.4135 15.9112 22 13.9778 22 12C21.9971 9.34874 20.9426 6.8069 19.0678 4.93218C17.1931 3.05745 14.6513 2.00294 12 2ZM14.5529 11.1335C14.5529 11.5637 14.382 11.9763 14.0778 12.2805C13.7736 12.5847 13.361 12.7556 12.9308 12.7556H10.9434V15H10.11V12.7556V9H12.9308C13.361 9 13.7736 9.1709 14.0778 9.4751C14.382 9.7793 14.5529 10.1919 14.5529 10.6221V11.1335Z" fill="black"/>
</svg>
