<svg width="24" height="24" viewBox="0 0 24 24" fill="none" xmlns="http://www.w3.org/2000/svg">
<path d="M8.38541 3.42296L9.65721 5.01296C9.93826 5.36435 10.2948 5.64802 10.7003 5.84296C11.1058 6.0379 11.55 6.13912 12 6.13912C12.45 6.13912 12.8942 6.0379 13.2997 5.84296C13.7053 5.64802 14.0618 5.36435 14.3428 5.01296L15.6138 3.42386L16.4409 3.58496L14.6262 11.3084L14.5218 11.7527L14.7891 12.1227L15.9913 13.7869C17.5219 15.8965 18.3784 18.4199 18.4482 21.0254H5.55121C5.61687 18.4245 6.46627 15.9041 7.98821 13.7941L9.19001 12.12L9.45531 11.7506L9.35131 11.3079L7.53711 3.58666L8.38541 3.42296ZM15.2109 2.32666L13.5618 4.38836C13.3744 4.6226 13.1368 4.81169 12.8664 4.94163C12.5961 5.07158 12.3 5.13905 12 5.13905C11.7001 5.13905 11.4039 5.07158 11.1336 4.94163C10.8632 4.81169 10.6256 4.6226 10.4382 4.38836L8.78901 2.32666L6.32551 2.80196L8.37821 11.537L7.17601 13.2107C5.46591 15.5913 4.54618 18.4487 4.54651 21.38V22.0256H19.4534V21.4C19.4534 18.4564 18.5256 15.5877 16.8019 13.2017L15.6 11.5371L17.6524 2.80206L15.2112 2.32666H15.2109Z" fill="black"/>
</svg>
