<svg width="24" height="24" viewBox="0 0 24 24" fill="none" xmlns="http://www.w3.org/2000/svg">
<path d="M20.8044 11.4464L16.4731 10.3544L15.5281 9.7285L14.5425 11.2168C14.474 11.3202 14.381 11.405 14.2718 11.4636C14.1625 11.5222 14.0405 11.5528 13.9165 11.5527C13.7693 11.553 13.6253 11.5095 13.5029 11.4277C13.3371 11.3179 13.2218 11.1468 13.1821 10.952C13.1425 10.7571 13.1818 10.5545 13.2915 10.3887L14.2772 8.9L13.2139 8.1958L12.1816 9.7538C12.0692 9.91353 11.899 10.0231 11.7071 10.0593C11.5152 10.0955 11.3167 10.0554 11.1539 9.94755C10.9911 9.8397 10.8768 9.67259 10.8353 9.48177C10.7938 9.29094 10.8283 9.09145 10.9316 8.9257L11.9639 7.3678L11.4083 7H9.9683L7.8882 8.5236C7.33458 8.92913 6.66978 9.15488 5.98369 9.17033C5.29761 9.18578 4.62332 8.99019 4.052 8.61L2.4161 7.5207L1 7.5382V17H7V15.6666L10.6562 17H23V14.2642C23 13.6171 22.784 12.9885 22.3863 12.4781C21.9885 11.9677 21.4318 11.6046 20.8044 11.4464Z" fill="black"/>
</svg>
