<svg width="24" height="24" viewBox="0 0 24 24" fill="none" xmlns="http://www.w3.org/2000/svg">
<path d="M3 3V21H21V3H3ZM20.0667 11.0357C19.8503 9.227 19.0324 7.54349 17.7443 6.25546C16.4562 4.96743 14.7726 4.14961 12.9639 3.9333H20.0667V11.0357ZM11.0361 3.9333C9.22739 4.14961 7.54383 4.96743 6.25573 6.25546C4.96763 7.54349 4.14971 9.227 3.9333 11.0357V3.9333H11.0361ZM3.9333 12.9643C4.14971 14.7729 4.96756 16.4564 6.25556 17.7444C7.54355 19.0324 9.22699 19.8503 11.0356 20.0667H3.9333V12.9643ZM12.9644 20.0667C14.773 19.8503 16.4564 19.0324 17.7444 17.7444C19.0324 16.4564 19.8503 14.7729 20.0667 12.9643V20.0667H12.9644Z" fill="black"/>
</svg>
