<svg width="24" height="24" viewBox="0 0 24 24" fill="none" xmlns="http://www.w3.org/2000/svg">
<path d="M21.0745 13.7123L17.936 12.4284L17.1753 14.2884C17.1502 14.3498 17.1017 14.3987 17.0405 14.4243C16.9793 14.4499 16.9105 14.4502 16.8491 14.4251C16.7877 14.4 16.7388 14.3515 16.7132 14.2903C16.6876 14.2291 16.6873 14.1603 16.7124 14.0989L17.4731 12.2389L14.86 11.17L14.0728 13.0946C14.0477 13.156 13.9992 13.2049 13.9381 13.2305C13.8769 13.2561 13.8081 13.2564 13.7467 13.2313C13.6853 13.2062 13.6364 13.1577 13.6108 13.0966C13.5852 13.0354 13.5849 12.9666 13.61 12.9052L14.3969 10.9806L12.1479 10.0606L10.6119 11.162C10.5853 11.1825 10.5549 11.1975 10.5224 11.206C10.4899 11.2145 10.456 11.2163 10.4228 11.2115C10.3896 11.2066 10.3577 11.1951 10.329 11.1776C10.3003 11.1601 10.2755 11.137 10.2559 11.1097C10.2363 11.0824 10.2225 11.0514 10.2151 11.0187C10.2078 10.9859 10.2072 10.952 10.2132 10.9189C10.2193 10.8859 10.232 10.8544 10.2505 10.8264C10.269 10.7984 10.2929 10.7744 10.3209 10.7558L12 9.5521V7.1445H9.894C9.8277 7.1445 9.76411 7.11816 9.71722 7.07128C9.67034 7.02439 9.644 6.9608 9.644 6.8945C9.644 6.8282 9.67034 6.76461 9.71722 6.71772C9.76411 6.67084 9.8277 6.6445 9.894 6.6445H12V3.625H9L6.2917 4.625H2V19H23V16.58C22.9999 15.9649 22.8168 15.3637 22.4739 14.853C22.131 14.3423 21.6438 13.9452 21.0745 13.7123Z" fill="black"/>
</svg>
