<svg width="24" height="24" viewBox="0 0 24 24" fill="none" xmlns="http://www.w3.org/2000/svg">
<path d="M19.3333 4H7V4.9987H19.332C19.774 4.9987 20.1979 5.17428 20.5105 5.48683C20.8231 5.79938 20.9987 6.22328 20.9987 6.6653V10H10.8125C5.0938 10 2 14 2 20H22V6.6666C22 5.95936 21.719 5.2811 21.2189 4.78102C20.7188 4.28094 20.0405 4 19.3333 4ZM21 19H3.0525C3.3062 14.2992 5.864 11 10.8125 11H20.9987V14H21V19ZM17.2969 13.5C17.0002 13.5 16.7102 13.588 16.4635 13.7528C16.2169 13.9176 16.0246 14.1519 15.9111 14.426C15.7975 14.7001 15.7678 15.0017 15.8257 15.2926C15.8836 15.5836 16.0265 15.8509 16.2362 16.0607C16.446 16.2704 16.7133 16.4133 17.0043 16.4712C17.2952 16.5291 17.5968 16.4993 17.8709 16.3858C18.145 16.2723 18.3793 16.08 18.5441 15.8334C18.7089 15.5867 18.7969 15.2967 18.7969 15C18.7969 14.6022 18.6389 14.2206 18.3576 13.9393C18.0763 13.658 17.6947 13.5 17.2969 13.5ZM17.2969 15.7C17.1585 15.7 17.0231 15.6589 16.908 15.582C16.7929 15.5051 16.7032 15.3958 16.6502 15.2679C16.5972 15.14 16.5833 14.9992 16.6103 14.8634C16.6374 14.7276 16.704 14.6029 16.8019 14.505C16.8998 14.4071 17.0246 14.3405 17.1603 14.3134C17.2961 14.2864 17.4369 14.3003 17.5648 14.3533C17.6927 14.4063 17.802 14.496 17.8789 14.6111C17.9558 14.7262 17.9969 14.8616 17.9969 15C17.9967 15.1856 17.9229 15.3635 17.7916 15.4947C17.6604 15.626 17.4825 15.6998 17.2969 15.7ZM8.7969 13.5C8.50023 13.5 8.21022 13.588 7.96354 13.7528C7.71687 13.9176 7.52461 14.1519 7.41108 14.426C7.29755 14.7001 7.26784 15.0017 7.32572 15.2926C7.3836 15.5836 7.52646 15.8509 7.73624 16.0607C7.94602 16.2704 8.21329 16.4133 8.50426 16.4712C8.79524 16.5291 9.09684 16.4993 9.37092 16.3858C9.64501 16.2723 9.87928 16.08 10.0441 15.8334C10.2089 15.5867 10.2969 15.2967 10.2969 15C10.2969 14.6022 10.1389 14.2206 9.85756 13.9393C9.57626 13.658 9.19472 13.5 8.7969 13.5ZM8.7969 15.7C8.65845 15.7 8.52312 15.6589 8.408 15.582C8.29289 15.5051 8.20317 15.3958 8.15018 15.2679C8.0972 15.14 8.08334 14.9992 8.11035 14.8634C8.13736 14.7276 8.20403 14.6029 8.30193 14.505C8.39982 14.4071 8.52455 14.3405 8.66034 14.3134C8.79612 14.2864 8.93687 14.3003 9.06478 14.3533C9.19269 14.4063 9.30201 14.496 9.37893 14.6111C9.45585 14.7262 9.4969 14.8616 9.4969 15C9.49669 15.1856 9.42287 15.3635 9.29164 15.4947C9.16041 15.626 8.98249 15.6998 8.7969 15.7ZM13.0469 13.5C12.7502 13.5 12.4602 13.588 12.2135 13.7528C11.9669 13.9176 11.7746 14.1519 11.6611 14.426C11.5475 14.7001 11.5178 15.0017 11.5757 15.2926C11.6336 15.5836 11.7765 15.8509 11.9862 16.0607C12.196 16.2704 12.4633 16.4133 12.7543 16.4712C13.0452 16.5291 13.3468 16.4993 13.6209 16.3858C13.895 16.2723 14.1293 16.08 14.2941 15.8334C14.4589 15.5867 14.5469 15.2967 14.5469 15C14.5469 14.6022 14.3889 14.2206 14.1076 13.9393C13.8263 13.658 13.4447 13.5 13.0469 13.5ZM13.0469 15.7C12.9085 15.7 12.7731 15.6589 12.658 15.582C12.5429 15.5051 12.4532 15.3958 12.4002 15.2679C12.3472 15.14 12.3333 14.9992 12.3604 14.8634C12.3874 14.7276 12.454 14.6029 12.5519 14.505C12.6498 14.4071 12.7745 14.3405 12.9103 14.3134C13.0461 14.2864 13.1869 14.3003 13.3148 14.3533C13.4427 14.4063 13.552 14.496 13.6289 14.6111C13.7058 14.7262 13.7469 14.8616 13.7469 15C13.7467 15.1856 13.6729 15.3635 13.5416 15.4947C13.4104 15.626 13.2325 15.6998 13.0469 15.7Z" fill="black"/>
</svg>
