<svg width="24" height="24" viewBox="0 0 24 24" fill="none" xmlns="http://www.w3.org/2000/svg">
<path d="M5.31109 20.3333H6.97829C7.57473 20.3394 8.16036 20.4933 8.68278 20.7811C9.20521 21.069 9.64815 21.4818 9.97199 21.9827L10.6622 23H13.3378L14.0278 21.9827C14.3516 21.4818 14.7946 21.069 15.317 20.7811C15.8394 20.4933 16.4251 20.3394 17.0215 20.3333H18.6887V15.6666H5.31109V20.3333ZM6.71109 17.0667H17.2889V18.9333H17.0217C16.2091 18.938 15.4099 19.1416 14.6941 19.5262C13.9782 19.9109 13.3674 20.4649 12.915 21.14L12.6407 21.6H11.3594L11.0851 21.14C10.6326 20.465 10.0217 19.9111 9.30587 19.5265C8.59001 19.142 7.7909 18.9385 6.97829 18.9338H6.71109V17.0667ZM17.4022 4.0744L17.2374 3.8915V1H15.9307V3.6378L14.6124 4.5887C14.0088 5.03659 13.5197 5.62092 13.1851 6.29395C12.8505 6.96698 12.6798 7.70961 12.6871 8.4612V9.6H11.313V8.4612C11.3202 7.70962 11.1496 6.96699 10.8149 6.29396C10.4803 5.62094 9.99127 5.03661 9.38769 4.5887L8.06929 3.6378V1H6.76259V3.8916L6.59789 4.0744C5.76288 5.02522 5.30511 6.24899 5.31109 7.5144V11H18.6889V7.5146C18.6949 6.24914 18.2372 5.02531 17.4022 4.0744ZM9.91299 9.6H6.71109V7.5146C6.70874 6.7164 6.95535 5.93734 7.41659 5.2859C7.45009 5.2359 7.57349 5.0752 7.61099 5.0287L8.57239 5.7267C8.97833 6.03075 9.3097 6.42325 9.54135 6.87443C9.77301 7.32561 9.89887 7.82363 9.90939 8.3307C9.91169 8.374 9.91299 8.487 9.91299 8.5307V9.6ZM17.2889 9.6H14.087V8.5269C14.087 8.4869 14.0881 8.381 14.0901 8.3413C14.0992 7.83241 14.2244 7.33231 14.4562 6.87918C14.688 6.42606 15.0202 6.03187 15.4276 5.7267L16.389 5.0287C16.4266 5.0752 16.55 5.2361 16.5835 5.2859C17.0447 5.93737 17.2912 6.71642 17.2889 7.5146V9.6Z" fill="black"/>
</svg>
