<svg width="24" height="24" viewBox="0 0 24 24" fill="none" xmlns="http://www.w3.org/2000/svg">
<path d="M6.42 4.9736V3H3V7.1416H4.2529C4.82757 7.14083 5.37847 6.91214 5.78474 6.5057C6.19101 6.09927 6.41947 5.54827 6.42 4.9736ZM17.58 3V4.9736C17.5805 5.54834 17.809 6.0994 18.2154 6.50585C18.6218 6.9123 19.1728 7.14094 19.7475 7.1416H21V3H17.58ZM16.6132 4.9736V3H7.3872V4.9736C7.3863 5.80464 7.05581 6.60139 6.46822 7.18907C5.88064 7.77675 5.08394 8.10737 4.2529 8.1084H3V21H10.75L11.75 11H12.25L13.25 21H21V8.1084H19.7471C18.9161 8.10737 18.1194 7.77675 17.5318 7.18907C16.9442 6.60139 16.6137 5.80464 16.6128 4.9736H16.6132Z" fill="black"/>
</svg>
