<svg width="24" height="24" viewBox="0 0 24 24" fill="none" xmlns="http://www.w3.org/2000/svg">
<path d="M5 2V16H19V2H5ZM5.5 2.5H9.4121C8.52883 2.85278 7.72654 3.38152 7.05401 4.05407C6.38148 4.72662 5.85276 5.52892 5.5 6.4122V2.5ZM5.5 15.5V11.5878C5.85276 12.4711 6.38148 13.2734 7.05401 13.9459C7.72654 14.6185 8.52883 15.1472 9.4121 15.5H5.5ZM18.5 15.5H14.5879C15.4712 15.1472 16.2735 14.6185 16.946 13.9459C17.6185 13.2734 18.1472 12.4711 18.5 11.5878V15.5ZM12 15.5C10.7144 15.5 9.45771 15.1188 8.38879 14.4046C7.31987 13.6903 6.48675 12.6752 5.99478 11.4874C5.50281 10.2997 5.37409 8.99279 5.6249 7.73191C5.8757 6.47104 6.49476 5.31285 7.40381 4.40381C8.31285 3.49476 9.47104 2.8757 10.7319 2.6249C11.9928 2.37409 13.2997 2.50281 14.4874 2.99478C15.6752 3.48675 16.6903 4.31987 17.4046 5.38879C18.1188 6.45771 18.5 7.71442 18.5 9C18.498 10.7233 17.8126 12.3755 16.594 13.594C15.3755 14.8126 13.7233 15.498 12 15.5ZM18.5 6.4122C18.1472 5.52892 17.6185 4.72662 16.946 4.05407C16.2735 3.38152 15.4712 2.85278 14.5879 2.5H18.5V6.4122ZM5 22H19V21.5H5V22ZM5 19H19V18.5H5V19Z" fill="black"/>
</svg>
