<svg width="24" height="24" viewBox="0 0 24 24" fill="none" xmlns="http://www.w3.org/2000/svg">
<path d="M19.1667 3H7V4.4993H19.166C19.5196 4.4993 19.8587 4.63977 20.1088 4.88981C20.3588 5.13986 20.4993 5.47899 20.4993 5.8326V8H10.8125C5.0938 8 2 12 2 18H6.3292L5.1458 22H6.6458L7.8292 18H11.2847V22H12.7153V18H16.1708L17.3542 22H18.8542L17.6708 18H22V5.8333C22 5.08186 21.7015 4.3612 21.1701 3.82985C20.6388 3.29851 19.9181 3 19.1667 3ZM13.125 13.99L11.1826 15.9324L10.1926 14.9424L12.1348 13L10.1924 11.0576L11.1824 10.0676L13.125 12.01L15.0674 10.0676L16.0574 11.0576L14.1152 13L16.0576 14.9424L15.0676 15.9324L13.125 13.99Z" fill="black"/>
</svg>
