<svg width="24" height="24" viewBox="0 0 24 24" fill="none" xmlns="http://www.w3.org/2000/svg">
<path d="M19 4H7V6H19C19.2652 6 19.5196 6.10536 19.7071 6.29289C19.8946 6.48043 20 6.73478 20 7V10H10.8125C5.0938 10 2 14 2 20H22V7C22 6.20435 21.6839 5.44129 21.1213 4.87868C20.5587 4.31607 19.7956 4 19 4ZM20 18H4.1426C4.5632 15.1921 6.0826 12 10.8126 12H20V18ZM13.0469 16.2C13.2842 16.2 13.5162 16.1296 13.7136 15.9978C13.9109 15.8659 14.0647 15.6785 14.1556 15.4592C14.2464 15.2399 14.2701 14.9987 14.2238 14.7659C14.1775 14.5331 14.0633 14.3193 13.8954 14.1515C13.7276 13.9836 13.5138 13.8694 13.281 13.8231C13.0482 13.7768 12.807 13.8005 12.5877 13.8913C12.3684 13.9822 12.181 14.136 12.0491 14.3333C11.9173 14.5307 11.8469 14.7627 11.8469 15C11.8469 15.3183 11.9733 15.6235 12.1984 15.8485C12.4234 16.0736 12.7286 16.2 13.0469 16.2Z" fill="black"/>
</svg>
