<svg width="24" height="24" viewBox="0 0 24 24" fill="none" xmlns="http://www.w3.org/2000/svg">
<path d="M8.17769 3.61L9.85109 6.016C9.87799 6.0518 9.96309 6.1769 9.99199 6.2104C10.2917 6.61138 10.7222 6.89492 11.2089 7.0119C11.665 7.12225 12.1451 7.07385 12.57 6.8747C13.1732 6.8747 14.2157 5.8379 14.5809 5.3577L15.4933 4.0855L16.1233 3.7234L17.0169 4.0043L15.9969 9.7087C15.9589 9.92041 15.9329 10.1341 15.9188 10.3487C15.8949 10.7113 15.9393 11.0752 16.0495 11.4215C16.175 11.8185 16.3412 12.2014 16.5454 12.5643C16.6314 12.7019 17.1913 13.7797 17.246 13.9307C17.6061 14.6956 17.8266 15.5188 17.897 16.3614C17.918 16.5326 17.9298 16.9365 17.9321 17.1091L17.7027 17.2878C17.0635 17.4624 16.4377 17.683 15.8303 17.9478C14.6418 18.4694 13.608 19.2888 12.8289 20.3268L12.1556 20.6001H11.6556C11.5691 20.4878 11.1879 20.3787 11.0937 20.2731C10.9846 20.1509 10.6747 19.76 10.5562 19.6474C9.8249 18.8336 8.91194 18.2037 7.89149 17.809C7.36882 17.6088 6.83645 17.4349 6.29639 17.288L6.07079 17.1334C6.07639 16.9974 6.08789 16.6714 6.10509 16.5364C6.17772 15.6951 6.40011 14.8735 6.76179 14.1104C6.81649 13.9609 7.36659 12.9086 7.45179 12.7723C7.65473 12.4131 7.81988 12.0339 7.94459 11.6406C8.05577 11.2918 8.10048 10.9253 8.07639 10.56C8.06298 10.3481 8.03747 10.1372 7.99999 9.9282L6.94179 4.0118L8.17769 3.61ZM15.3074 2L12.972 5.2828C12.8625 5.43803 12.7172 5.56458 12.5484 5.65176C12.3797 5.73894 12.1924 5.78417 12.0024 5.78362C11.8125 5.78307 11.6254 5.73676 11.4572 5.6486C11.2889 5.56045 11.1444 5.43306 11.0358 5.2772L8.73329 2L5.35659 3L6.67839 10.5313C6.75134 10.9308 6.68048 11.3432 6.47839 11.6954L5.74019 13.0161C5.03608 14.2765 4.6665 15.6963 4.66669 17.14V18.2917L6.58549 18.8135C7.97456 19.1957 9.19728 20.0286 10.0615 21.1813L10.6727 22H13.3273L13.9385 21.1813C14.8027 20.0286 16.0254 19.1957 17.4145 18.8135L19.3333 18.2917V16.9417C19.3333 15.5046 18.9669 14.0911 18.2687 12.835L17.5161 11.4812C17.3155 11.1297 17.2454 10.7186 17.3183 10.3205L18.6 3L15.3074 2Z" fill="black"/>
</svg>
