<svg width="24" height="24" viewBox="0 0 24 24" fill="none" xmlns="http://www.w3.org/2000/svg">
<path d="M21.2925 17H22V14.7763C22 13.9822 21.7636 13.206 21.321 12.5467C20.8784 11.8874 20.2495 11.3748 19.5145 11.0741L12 8V2H9L6.2917 3H3V15C3 15.5304 3.21071 16.0391 3.58579 16.4142C3.96086 16.7893 4.46957 17 5 17H5.75V20.4209H3V20.9209H19.5132C19.991 20.9215 20.4631 20.8164 20.8956 20.6131C21.328 20.4098 21.7102 20.1134 22.0146 19.7451L22.811 18.7861L21.2925 17ZM3.5 15V3.5H6.3811L9.0894 2.5H11.5V5.6875H9.2861C9.2198 5.6875 9.15621 5.71384 9.10932 5.76072C9.06244 5.80761 9.0361 5.8712 9.0361 5.9375C9.0361 6.0038 9.06244 6.06739 9.10932 6.11428C9.15621 6.16116 9.2198 6.1875 9.2861 6.1875H11.5V7.99C11.4885 7.9978 11.4733 7.9946 11.4629 8.0044L10.002 9.4C9.97827 9.42269 9.95924 9.44983 9.946 9.47988C9.93275 9.50993 9.92556 9.54229 9.92483 9.57511C9.92409 9.60794 9.92983 9.64059 9.94172 9.6712C9.95361 9.7018 9.9714 9.72977 9.9941 9.7535C10.0173 9.77804 10.0454 9.79756 10.0764 9.81083C10.1075 9.82411 10.141 9.83087 10.1748 9.8307C10.2392 9.83054 10.3011 9.80571 10.3477 9.7613L11.7377 8.4325L11.8106 8.4625L13.9121 9.3225L13.244 10.9551C13.2189 11.0165 13.2192 11.0853 13.2448 11.1465C13.2705 11.2077 13.3194 11.2561 13.3807 11.2812C13.4421 11.3064 13.511 11.3061 13.5721 11.2804C13.6333 11.2548 13.6818 11.2059 13.7069 11.1445L14.375 9.5118L16.9643 10.5711L16.3363 12.1074C16.3111 12.1688 16.3113 12.2377 16.3369 12.2989C16.3625 12.3601 16.4114 12.4087 16.4727 12.4339C16.5341 12.459 16.603 12.4588 16.6642 12.4332C16.7255 12.4076 16.774 12.3588 16.7992 12.2974L17.4271 10.7609L19.3251 11.5374C19.9692 11.799 20.5203 12.2471 20.9079 12.8242C21.2954 13.4014 21.5016 14.0811 21.5 14.7763V16.5H5C4.60231 16.4995 4.22104 16.3414 3.93984 16.0602C3.65863 15.779 3.50045 15.3977 3.5 15ZM6.25 17H14.75V20.4209H6.25V17ZM21.63 19.4268C21.3722 19.7383 21.0488 19.9889 20.6829 20.1607C20.317 20.3326 19.9176 20.4214 19.5133 20.4209H15.25V17H20.636L22.1577 18.79L21.63 19.4268Z" fill="black"/>
</svg>
