<svg width="24" height="24" viewBox="0 0 24 24" fill="none" xmlns="http://www.w3.org/2000/svg">
<path d="M12 12.2188C11.7033 12.2188 11.4133 12.3068 11.1666 12.4716C10.92 12.6364 10.7277 12.8707 10.6142 13.1448C10.5006 13.4189 10.4709 13.7205 10.5288 14.0114C10.5867 14.3024 10.7296 14.5697 10.9393 14.7795C11.1491 14.9892 11.4164 15.1321 11.7074 15.19C11.9983 15.2479 12.2999 15.2182 12.574 15.1046C12.8481 14.9911 13.0824 14.7988 13.2472 14.5522C13.412 14.3055 13.5 14.0155 13.5 13.7188C13.5 13.321 13.342 12.9394 13.0607 12.6581C12.7793 12.3768 12.3978 12.2188 12 12.2188ZM12 14.4188C11.8615 14.4188 11.7262 14.3777 11.6111 14.3008C11.496 14.2239 11.4063 14.1146 11.3533 13.9867C11.3003 13.8588 11.2864 13.718 11.3134 13.5822C11.3405 13.4465 11.4071 13.3217 11.505 13.2238C11.6029 13.1259 11.7276 13.0593 11.8634 13.0323C11.9992 13.0052 12.14 13.0191 12.2679 13.0721C12.3958 13.1251 12.5051 13.2148 12.582 13.3299C12.6589 13.445 12.7 13.5804 12.7 13.7188C12.6998 13.9044 12.626 14.0823 12.4947 14.2135C12.3635 14.3448 12.1856 14.4186 12 14.4188ZM16.4219 12.2188C16.1252 12.2188 15.8352 12.3068 15.5885 12.4716C15.3419 12.6364 15.1496 12.8707 15.0361 13.1448C14.9225 13.4189 14.8928 13.7205 14.9507 14.0114C15.0086 14.3024 15.1515 14.5697 15.3612 14.7795C15.571 14.9892 15.8383 15.1321 16.1293 15.19C16.4202 15.2479 16.7218 15.2182 16.9959 15.1046C17.27 14.9911 17.5043 14.7988 17.6691 14.5522C17.8339 14.3055 17.9219 14.0155 17.9219 13.7188C17.9219 13.321 17.7639 12.9394 17.4826 12.6581C17.2012 12.3768 16.8197 12.2188 16.4219 12.2188ZM16.4219 14.4188C16.2834 14.4188 16.1481 14.3777 16.033 14.3008C15.9179 14.2239 15.8282 14.1146 15.7752 13.9867C15.7222 13.8588 15.7083 13.718 15.7353 13.5822C15.7624 13.4465 15.829 13.3217 15.9269 13.2238C16.0248 13.1259 16.1495 13.0593 16.2853 13.0323C16.4211 13.0052 16.5619 13.0191 16.6898 13.0721C16.8177 13.1251 16.927 13.2148 17.0039 13.3299C17.0808 13.445 17.1219 13.5804 17.1219 13.7188C17.1217 13.9044 17.0479 14.0823 16.9166 14.2135C16.7854 14.3448 16.6075 14.4186 16.4219 14.4188ZM7.67189 12.2188C7.37522 12.2188 7.08521 12.3068 6.83854 12.4716C6.59186 12.6364 6.3996 12.8707 6.28607 13.1448C6.17254 13.4189 6.14284 13.7205 6.20071 14.0114C6.25859 14.3024 6.40145 14.5697 6.61123 14.7795C6.82101 14.9892 7.08828 15.1321 7.37926 15.19C7.67023 15.2479 7.97183 15.2182 8.24592 15.1046C8.52001 14.9911 8.75427 14.7988 8.9191 14.5522C9.08392 14.3055 9.17189 14.0155 9.17189 13.7188C9.17189 13.321 9.01386 12.9394 8.73255 12.6581C8.45125 12.3768 8.06972 12.2188 7.67189 12.2188ZM7.67189 14.4188C7.53344 14.4188 7.39811 14.3777 7.28299 14.3008C7.16788 14.2239 7.07816 14.1146 7.02518 13.9867C6.97219 13.8588 6.95833 13.718 6.98534 13.5822C7.01235 13.4465 7.07902 13.3217 7.17692 13.2238C7.27481 13.1259 7.39954 13.0593 7.53533 13.0323C7.67111 13.0052 7.81186 13.0191 7.93977 13.0721C8.06768 13.1251 8.177 13.2148 8.25392 13.3299C8.33084 13.445 8.37189 13.5804 8.37189 13.7188C8.37168 13.9044 8.29786 14.0823 8.16663 14.2135C8.0354 14.3448 7.85748 14.4186 7.67189 14.4188ZM21.8174 4L21.6111 5.9609H21.2C20.2683 5.9731 19.364 6.27782 18.615 6.832C18.0397 7.28187 17.3303 7.52628 16.6 7.52628C15.8697 7.52628 15.1603 7.28187 14.585 6.832C13.8407 6.26931 12.9331 5.96486 12 5.96486C11.0669 5.96486 10.1593 6.26931 9.41499 6.832C8.83108 7.26573 8.12716 7.50797 7.39999 7.5254C6.67307 7.50779 5.96943 7.26557 5.38569 6.832C4.63496 6.28115 3.73181 5.97679 2.80079 5.9609H2.38889L2.18259 4H1.20999L2.99999 21H21L22.79 4H21.8174ZM20.13 20.0333H3.86999L2.49429 6.9609H2.80079C3.52782 6.97842 4.23159 7.22064 4.81539 7.6543C5.56607 8.20505 6.46909 8.5094 7.39999 8.5254C8.33103 8.50948 9.23421 8.20513 9.98499 7.6543C10.5613 7.2071 11.2701 6.96437 11.9996 6.96437C12.7291 6.96437 13.4378 7.2071 14.0142 7.6543C14.7576 8.21943 15.6658 8.5254 16.5996 8.5254C17.5335 8.5254 18.4416 8.21943 19.1851 7.6543C19.7675 7.2177 20.4723 6.97514 21.2 6.9609H21.5055L20.13 20.0333Z" fill="black"/>
</svg>
