<svg width="24" height="24" viewBox="0 0 24 24" fill="none" xmlns="http://www.w3.org/2000/svg">
<path d="M18.606 3.5174C18.0057 3.17823 17.3279 3 16.6384 3H7.3616C6.6721 3 5.99431 3.17823 5.394 3.5174L1 6L3.1075 10.265L6 9.4062V21H18V9.4062L20.8925 10.265L23 6L18.606 3.5174ZM14.2312 11.2374V12.49H9.8553V11.307C9.8553 11.307 12.9618 9.2283 12.9618 8.0719C12.9648 7.94403 12.9415 7.81691 12.8934 7.69841C12.8452 7.5799 12.7733 7.47253 12.682 7.38294C12.5908 7.29334 12.4821 7.22342 12.3627 7.17751C12.2433 7.13159 12.1158 7.11066 11.988 7.116C11.8513 7.11274 11.7155 7.13824 11.5893 7.19084C11.4631 7.24345 11.3494 7.32198 11.2555 7.42136C11.1616 7.52073 11.0897 7.63873 11.0443 7.7677C10.9989 7.89667 10.9812 8.03373 10.9922 8.17C10.8358 8.17 9.7351 8.1663 9.7351 8.1663C9.71645 7.86623 9.76231 7.56565 9.86961 7.2848C9.97691 7.00395 10.1432 6.74936 10.3571 6.53817C10.5711 6.32699 10.8279 6.16411 11.1101 6.06051C11.3923 5.95691 11.6935 5.915 11.9933 5.9376C12.2805 5.9126 12.5698 5.94797 12.8425 6.04142C13.1152 6.13487 13.3653 6.28435 13.5768 6.48024C13.7883 6.67613 13.9565 6.9141 14.0706 7.17887C14.1846 7.44363 14.242 7.72933 14.2391 8.0176C14.2391 9.4585 11.9331 10.9599 11.5497 11.2376L14.2312 11.2374Z" fill="black"/>
</svg>
