<svg width="24" height="24" viewBox="0 0 24 24" fill="none" xmlns="http://www.w3.org/2000/svg">
<path d="M19.1667 4H7V5.4993H19.166C19.5196 5.4993 19.8587 5.63977 20.1088 5.88981C20.3588 6.13986 20.4993 6.47899 20.4993 6.8326V10H10.8125C5.0938 10 2 14 2 20H22V6.8333C22 6.08186 21.7015 5.3612 21.1701 4.82985C20.6388 4.29851 19.9181 4 19.1667 4ZM20.5 18.5H3.5975C3.9347 14.7457 5.9731 11.5 10.8125 11.5H20.4993V14H20.5V18.5ZM13.0469 14C12.8491 14 12.6558 14.0586 12.4913 14.1685C12.3269 14.2784 12.1987 14.4346 12.123 14.6173C12.0473 14.8 12.0275 15.0011 12.0661 15.1951C12.1047 15.3891 12.1999 15.5673 12.3398 15.7071C12.4796 15.847 12.6578 15.9422 12.8518 15.9808C13.0458 16.0194 13.2469 15.9996 13.4296 15.9239C13.6123 15.8482 13.7685 15.72 13.8784 15.5556C13.9883 15.3911 14.0469 15.1978 14.0469 15C14.0469 14.7348 13.9415 14.4804 13.754 14.2929C13.5665 14.1054 13.3121 14 13.0469 14Z" fill="black"/>
</svg>
