<svg width="24" height="24" viewBox="0 0 24 24" fill="none" xmlns="http://www.w3.org/2000/svg">
<path d="M12 4.9667C12.5214 4.96609 13.0213 4.75869 13.39 4.38999C13.7587 4.0213 13.9661 3.52141 13.9667 3H10.0333C10.0339 3.52141 10.2413 4.0213 10.61 4.38999C10.9787 4.75869 11.4786 4.96609 12 4.9667ZM18.606 3.5174C18.0057 3.17823 17.3279 3 16.6384 3H15.3334C15.3286 3.8809 14.9753 4.72407 14.3507 5.34526C13.7261 5.96645 12.881 6.31514 12 6.31514C11.1191 6.31514 10.274 5.96645 9.64944 5.34526C9.02484 4.72407 8.67153 3.8809 8.6667 3H7.3617C6.67217 2.99998 5.99434 3.17822 5.394 3.5174L1 6L3.1075 10.265L6 9.4062V21H18V9.4062L20.8925 10.265L23 6L18.606 3.5174ZM13.75 12H10.25C9.71957 12 9.21086 11.7893 8.83579 11.4142C8.46071 11.0391 8.25 10.5304 8.25 10C8.25 9.46957 8.46071 8.96086 8.83579 8.58579C9.21086 8.21071 9.71957 8 10.25 8H13.75C14.2804 8 14.7891 8.21071 15.1642 8.58579C15.5393 8.96086 15.75 9.46957 15.75 10C15.75 10.5304 15.5393 11.0391 15.1642 11.4142C14.7891 11.7893 14.2804 12 13.75 12Z" fill="black"/>
</svg>
