<svg width="24" height="24" viewBox="0 0 24 24" fill="none" xmlns="http://www.w3.org/2000/svg">
<path d="M14.6279 3H9.3727L12.0013 6.0119L14.6279 3ZM18.606 3.5174C18.0057 3.17823 17.3279 3 16.6384 3H15.2909L12.3754 6.3407C12.3286 6.39428 12.2709 6.43723 12.2062 6.46666C12.1414 6.49609 12.0711 6.51131 12 6.51131C11.9289 6.51131 11.8586 6.49609 11.7938 6.46666C11.7291 6.43723 11.6714 6.39428 11.6246 6.3407L8.7091 3H7.3616C6.6721 3 5.99431 3.17823 5.394 3.5174L1 6L3.1075 10.265L6 9.4062V21H18V9.4062L20.8925 10.265L23 6L18.606 3.5174Z" fill="black"/>
</svg>
