<svg width="24" height="24" viewBox="0 0 24 24" fill="none" xmlns="http://www.w3.org/2000/svg">
<path d="M12 2.6892C12.2269 2.70582 12.4548 2.67647 12.6701 2.60289C12.8853 2.52932 13.0835 2.41305 13.2528 2.26104C13.422 2.10903 13.5588 1.92442 13.655 1.71826C13.7512 1.51211 13.8048 1.28866 13.8125 1.0613V1H10.1875V1.0613C10.2139 1.51683 10.4192 1.94349 10.7586 2.24839C11.0981 2.55329 11.5443 2.71172 12 2.6892ZM17 1.9492L14.3125 1V1.0613C14.3043 1.35411 14.2374 1.64229 14.116 1.90885C13.9945 2.1754 13.8209 2.41492 13.6053 2.61326C13.3898 2.81161 13.1367 2.96476 12.861 3.06368C12.5852 3.1626 12.2925 3.20528 12 3.1892C11.4115 3.21267 10.8376 3.00189 10.4041 2.60303C9.97067 2.20418 9.71299 1.64979 9.68752 1.0613V1L7.00532 1.9489C6.42057 2.15578 5.91431 2.53883 5.55625 3.04532C5.19819 3.55181 5.00592 4.15683 5.00592 4.7771V15H7.50592V6H8.00002V23H11.7781V14H12.2589V23H16V6H16.5V15H19V4.778C19.0001 4.15759 18.8077 3.55242 18.4496 3.04585C18.0914 2.53927 17.585 2.1562 17 1.9494V1.9492Z" fill="black"/>
</svg>
