<svg width="24" height="24" viewBox="0 0 24 24" fill="none" xmlns="http://www.w3.org/2000/svg">
<path d="M3 3V21H10.75L11.75 12.3333H12.25L13.25 21H21V3H3ZM19.5667 7.9082H18.3979C17.9777 7.90775 17.5748 7.74061 17.2777 7.44346C16.9805 7.14631 16.8134 6.74342 16.813 6.3232V4.4332H19.5667V7.9082ZM7.187 4.4333V6.3233C7.18658 6.74352 7.01946 7.14641 6.72233 7.44356C6.4252 7.74071 6.02232 7.90785 5.6021 7.9083H4.4333V4.4333H7.187ZM14.519 19.5667L13.6727 12.16L13.519 10.9H10.481L10.3273 12.16L9.481 19.5667H4.4333V9.3418H5.6021C6.40238 9.34085 7.16961 9.02251 7.73548 8.45661C8.30136 7.89072 8.61967 7.12348 8.6206 6.3232V4.4332H15.3794V6.3232C15.3803 7.12348 15.6986 7.89072 16.2645 8.45661C16.8304 9.02251 17.5976 9.34085 18.3979 9.3418H19.5667V19.5667H14.519Z" fill="black"/>
</svg>
