<svg width="24" height="24" viewBox="0 0 24 24" fill="none" xmlns="http://www.w3.org/2000/svg">
<path d="M4.66664 19V14.2879C4.66664 14.0292 4.76941 13.7811 4.95233 13.5982C5.13525 13.4153 5.38335 13.3125 5.64204 13.3125C5.7807 13.3125 5.91776 13.342 6.04408 13.3992C6.17041 13.4563 6.2831 13.5398 6.37464 13.6439L9.58994 17.3013C10.0592 17.8351 10.6368 18.2627 11.2844 18.5556C11.9319 18.8485 12.6344 19 13.3451 19H22.9999V16.4279C22.9999 16.2586 22.957 16.0922 22.8751 15.944C22.7932 15.7959 22.6751 15.671 22.5317 15.581L17.177 12.2188L15.6249 13.3988C15.2368 13.694 14.7541 13.8373 14.2677 13.8015C13.7813 13.7658 13.3247 13.5536 12.9838 13.2048L5.02074 5.0568L3.99994 5L3.16124 6.9132C2.40616 8.63603 2.20987 10.5522 2.59994 12.3923L3.99994 19H4.66664Z" fill="black"/>
</svg>
