<svg width="24" height="24" viewBox="0 0 24 24" fill="none" xmlns="http://www.w3.org/2000/svg">
<path d="M8.08821 3.1131L9.99391 6.0041C10.0073 6.0221 10.1357 6.2201 10.1502 6.2369C10.3146 6.47968 10.5303 6.68331 10.7822 6.83332C11.0341 6.98333 11.316 7.07605 11.6077 7.1049C11.8857 7.13416 12.1668 7.10166 12.4308 7.00971C12.6949 6.91777 12.9353 6.76864 13.135 6.573C13.4367 6.573 14.6886 4.9125 14.8712 4.6724L15.7648 3.3524L16.4861 3.3364L17.3706 3.6547L16.1545 9.8368C16.1089 10.0679 16.0871 10.3031 16.0895 10.5386C16.0935 10.9368 16.1847 11.3294 16.3566 11.6886C16.3746 11.8142 16.9409 12.7798 16.9999 12.8923C17.2526 13.3214 17.4758 13.7673 17.6677 14.2269C17.9841 14.9851 18.164 15.7933 18.1989 16.6142C18.2094 16.6998 18.2153 17.249 18.2165 17.3353L18.1018 17.5976C17.8912 17.6557 16.3676 18.0885 16.1754 18.1908C14.931 18.6307 13.8489 19.4369 13.0713 20.5034L12.4408 21.05H11.9018C11.8586 20.9938 11.2318 20.9393 11.1849 20.8865C11.1303 20.8254 10.6816 20.2201 10.6223 20.1637C9.86706 19.2075 8.84517 18.4968 7.68591 18.1215C7.53541 18.0515 6.05881 17.6415 5.89821 17.5976L5.78541 17.3819C5.78821 17.3139 5.79391 16.8654 5.80251 16.7979C5.83855 15.974 6.02054 15.1629 6.34001 14.4026C6.53027 13.9502 6.75115 13.5112 7.00111 13.0888C7.06041 12.9766 7.61711 12.0294 7.63551 11.9042C7.80747 11.5449 7.89897 11.1525 7.90361 10.7542C7.90691 10.5193 7.88566 10.2847 7.84021 10.0542L6.58831 3.6612L8.08831 3.1131H8.08821ZM15.5732 2L13.1253 5.6422C13.0021 5.82683 12.8351 5.97812 12.6393 6.08256C12.4434 6.18701 12.2248 6.24137 12.0028 6.2408C11.7808 6.24024 11.5624 6.18477 11.3671 6.07933C11.1718 5.97389 11.0056 5.82176 10.8833 5.6365L8.46671 2L5.50761 3L6.93521 10.4062C7.03042 10.8846 6.94335 11.3813 6.69111 11.7988L5.93401 13.0779C5.21338 14.2958 4.83323 15.6849 4.83331 17.1V18.292L6.96871 18.8656C8.25581 19.2186 9.3849 19.9982 10.1711 21.0767L10.8454 22H13.1546L13.8289 21.0764C14.6151 19.9979 15.7442 19.2183 17.0313 18.8653L19.1667 18.2917V16.9045C19.1667 15.4944 18.7891 14.11 18.0732 12.8952L17.3015 11.5861C17.0502 11.1687 16.9638 10.6725 17.0593 10.1948L18.45 3L15.5732 2Z" fill="black"/>
</svg>
