<svg width="24" height="24" viewBox="0 0 24 24" fill="none" xmlns="http://www.w3.org/2000/svg">
<path d="M20.163 9.9881L19.6667 9.33V4H18.6667V8.9285L16.903 9.8525C15.7267 10.4624 14.7405 11.3837 14.0522 12.516C13.3639 13.6482 12.9999 14.9478 13 16.2728V18H11V16.2728C11 14.9478 10.636 13.6483 9.94768 12.5161C9.25939 11.384 8.27327 10.4627 7.097 9.8528L5.3334 8.9286V4H4.3334V9.33L3.837 9.9883C2.64505 11.5641 2.00005 13.4859 2 15.4617V19H22V15.4617C22 13.4858 21.355 11.5639 20.163 9.9881ZM3 18V15.4617C3.0036 13.7035 3.57765 11.994 4.6359 10.59L5.1115 9.96L6.6166 10.7291C7.63743 11.2507 8.4939 12.0447 9.0911 13.0232C9.68829 14.0017 10.0029 15.1265 10 16.2728V18H3ZM21 18H14V16.2728C13.9971 15.1264 14.3117 14.0017 14.9089 13.0231C15.5061 12.0446 16.3626 11.2506 17.3834 10.729L18.8885 9.96L19.3641 10.59C20.4224 11.994 20.9965 13.7035 21 15.4617V18Z" fill="black"/>
</svg>
