<svg width="24" height="24" viewBox="0 0 24 24" fill="none" xmlns="http://www.w3.org/2000/svg">
<path d="M12 5.2333C12.5921 5.23261 13.1597 4.9971 13.5784 4.57842C13.9971 4.15975 14.2326 3.5921 14.2333 3H9.7667C9.76739 3.5921 10.0029 4.15975 10.4216 4.57842C10.8403 4.9971 11.4079 5.23261 12 5.2333ZM18.69 3.6221C17.9504 3.21404 17.1194 3.00001 16.2747 3H15.1667C15.162 3.83677 14.8263 4.63766 14.2329 5.22768C13.6396 5.81771 12.8368 6.1489 12 6.1489C11.1633 6.1489 10.3605 5.81771 9.76716 5.22768C9.1738 4.63766 8.8381 3.83677 8.8334 3H7.7006C6.8517 2.99999 6.01678 3.21611 5.2745 3.628L1 6L3.1075 10.265L6 9.2916V19H7.1732C7.73512 19 8.28833 19.1388 8.78376 19.404C9.27918 19.6691 9.70148 20.0525 10.0132 20.52L11 22H13L13.9867 20.52C14.2984 20.0525 14.7207 19.6691 15.2161 19.4039C15.7116 19.1388 16.2648 19 16.8267 19H18V9.2916L20.8925 10.265L23 6L18.69 3.6221Z" fill="black"/>
</svg>
