<svg width="24" height="24" viewBox="0 0 24 24" fill="none" xmlns="http://www.w3.org/2000/svg">
<path d="M3 3V21H21V3H3ZM20.5 11.6759C20.419 9.53338 19.5316 7.50054 18.0155 5.98446C16.4995 4.46838 14.4666 3.581 12.3241 3.5H20.5V11.6759ZM11.6759 3.5C9.53338 3.581 7.50054 4.46838 5.98446 5.98446C4.46838 7.50054 3.581 9.53338 3.5 11.6759V3.5H11.6759ZM3.5 12.3241C3.581 14.4666 4.46838 16.4995 5.98446 18.0155C7.50054 19.5316 9.53338 20.419 11.6759 20.5H3.5V12.3241ZM12.3241 20.5C14.4666 20.419 16.4995 19.5316 18.0155 18.0155C19.5316 16.4995 20.419 14.4666 20.5 12.3241V20.5H12.3241Z" fill="black"/>
</svg>
