<svg width="24" height="24" viewBox="0 0 24 24" fill="none" xmlns="http://www.w3.org/2000/svg">
<path d="M21.8174 4L21.5352 6.6822H20.6818C19.9102 6.69037 19.1571 6.91899 18.5112 7.3411C17.8689 7.77062 17.1135 7.99989 16.3408 7.99989C15.5681 7.99989 14.8127 7.77062 14.1704 7.3411C13.5281 6.91152 12.7727 6.68221 12 6.68221C11.2273 6.68221 10.4719 6.91152 9.82959 7.3411C9.18303 7.76164 8.43042 7.99011 7.65919 8C6.8879 7.99019 6.13522 7.76174 5.48859 7.3412C4.84216 6.92069 4.08969 6.69221 3.31859 6.6823H2.46479L2.18259 4H1.20999L2.99999 21H21L22.79 4H21.8174ZM12 14.8464C11.7769 14.8464 11.5589 14.7803 11.3735 14.6563C11.188 14.5324 11.0435 14.3563 10.9581 14.1502C10.8728 13.9442 10.8504 13.7174 10.894 13.4987C10.9375 13.2799 11.0449 13.079 11.2026 12.9213C11.3603 12.7636 11.5613 12.6562 11.78 12.6127C11.9988 12.5692 12.2256 12.5915 12.4316 12.6769C12.6377 12.7622 12.8138 12.9068 12.9377 13.0923C13.0616 13.2777 13.1277 13.4958 13.1277 13.7188C13.1277 13.8669 13.0985 14.0135 13.0418 14.1503C12.9852 14.2872 12.9021 14.4115 12.7974 14.5162C12.6927 14.6209 12.5684 14.7039 12.4315 14.7606C12.2947 14.8173 12.1481 14.8464 12 14.8464Z" fill="black"/>
</svg>
