<svg width="24" height="24" viewBox="0 0 24 24" fill="none" xmlns="http://www.w3.org/2000/svg">
<path d="M17.1617 3C16.6145 2.99999 16.0733 3.11467 15.573 3.33663C15.0728 3.5586 14.6246 3.88292 14.2574 4.2887C13.8901 4.69448 13.612 5.17271 13.4409 5.69256C13.2698 6.21241 13.2096 6.76234 13.264 7.3069L13.8334 13V16.9166C13.8334 17.4528 13.9391 17.9838 14.1443 18.4792C14.3495 18.9746 14.6503 19.4248 15.0294 19.8039C15.4086 20.1831 15.8587 20.4839 16.3541 20.6891C16.8495 20.8943 17.3805 20.9999 17.9167 20.9999C18.453 20.9999 18.984 20.8943 19.4794 20.6891C19.9748 20.4839 20.4249 20.1831 20.8041 19.8039C21.1832 19.4248 21.484 18.9746 21.6892 18.4792C21.8944 17.9838 22 17.4528 22 16.9166V7.8383C22.0001 7.20292 21.8749 6.57376 21.6318 5.98675C21.3886 5.39973 21.0323 4.86636 20.583 4.41708C20.1337 3.9678 19.6003 3.61141 19.0133 3.36827C18.4263 3.12512 17.7971 2.99999 17.1617 3ZM14.6606 7.2032L14.6552 7.1458C14.6234 6.79742 14.6646 6.44623 14.7761 6.11465C14.8876 5.78306 15.067 5.47836 15.3028 5.22C15.5387 4.96163 15.8258 4.75527 16.1459 4.61408C16.4659 4.47289 16.8119 4.39998 17.1617 4.4C17.9333 4.40194 18.6818 4.66336 19.2868 5.14221C19.8918 5.62106 20.3181 6.28951 20.4972 7.04L20.0611 6.9529C18.266 6.59887 16.4109 6.70036 14.6652 7.2481L14.6606 7.2032ZM20.6 16.9166C20.6022 17.2704 20.5344 17.6211 20.4005 17.9485C20.2666 18.276 20.0693 18.5737 19.8199 18.8246C19.5705 19.0755 19.274 19.2747 18.9474 19.4105C18.6207 19.5464 18.2705 19.6164 17.9167 19.6164C17.5629 19.6164 17.2127 19.5464 16.886 19.4105C16.5594 19.2747 16.2629 19.0755 16.0135 18.8246C15.7641 18.5737 15.5668 18.276 15.4329 17.9485C15.299 17.6211 15.2312 17.2704 15.2333 16.9166L15.2325 13.0425V12.9514L15.2264 12.8607L15.1589 12.1863L15.4097 12.1063C16.8564 11.6492 18.3963 11.5722 19.8813 11.8827L20.6 12.0337V16.9166ZM20.6 10.6041L20.17 10.5141C18.4592 10.1545 16.6847 10.2409 15.0169 10.765L14.8069 8.665L14.9454 8.6193C16.507 8.10588 18.1747 8.00499 19.7867 8.3264L20.6001 8.4889L20.6 10.6041ZM6.83835 3C6.20297 2.99999 5.57381 3.12512 4.9868 3.36827C4.39978 3.61141 3.86641 3.9678 3.41713 4.41708C2.96785 4.86636 2.61146 5.39973 2.36832 5.98675C2.12517 6.57376 2.00004 7.20292 2.00005 7.8383V16.9166C1.99739 17.4545 2.10104 17.9877 2.30506 18.4854C2.50907 18.9832 2.80943 19.4357 3.18886 19.8171C3.5683 20.1984 4.01935 20.501 4.51608 20.7074C5.01282 20.9139 5.54546 21.0202 6.0834 21.0202C6.62134 21.0202 7.15398 20.9139 7.65072 20.7074C8.14745 20.501 8.5985 20.1984 8.97794 19.8171C9.35737 19.4357 9.65773 18.9832 9.86174 18.4854C10.0658 17.9877 10.1694 17.4545 10.1667 16.9166V13L10.736 7.3069C10.7905 6.76234 10.7303 6.21241 10.5592 5.69256C10.3881 5.17271 10.11 4.69448 9.74273 4.2887C9.37551 3.88292 8.92733 3.5586 8.42708 3.33663C7.92683 3.11467 7.38563 2.99999 6.83835 3ZM8.77285 12.8773L8.76675 12.9603V16.9166C8.76891 17.2704 8.7011 17.6211 8.56721 17.9485C8.43333 18.276 8.23602 18.5737 7.98663 18.8246C7.73725 19.0755 7.44071 19.2747 7.11408 19.4105C6.78744 19.5464 6.43717 19.6164 6.0834 19.6164C5.72963 19.6164 5.37936 19.5464 5.05272 19.4105C4.72609 19.2747 4.42955 19.0755 4.18017 18.8246C3.93078 18.5737 3.73347 18.276 3.59959 17.9485C3.4657 17.6211 3.39789 17.2704 3.40005 16.9166V12.0338L4.11915 11.8828C5.60387 11.5723 7.14352 11.6493 8.58985 12.1064L8.84185 12.1864L8.77285 12.8773ZM8.98385 10.7649C7.31626 10.2396 5.54142 10.1531 3.83065 10.5137L3.40005 10.6037V8.4886L4.21345 8.3262C5.82531 8.00473 7.49291 8.10563 9.05425 8.6191L9.19345 8.665L8.98385 10.7649ZM9.34005 7.197L9.33495 7.2484C7.58936 6.70002 5.73406 6.59849 3.93905 6.9531L3.50295 7.04C3.68202 6.28951 4.10834 5.62106 4.71333 5.14221C5.31831 4.66336 6.06679 4.40194 6.83835 4.4C7.18717 4.39994 7.53219 4.47241 7.85151 4.61279C8.17083 4.75318 8.45748 4.95842 8.69325 5.21548C8.92903 5.47255 9.10879 5.77583 9.22112 6.10607C9.33344 6.4363 9.37589 6.78629 9.34575 7.1338C9.34505 7.1451 9.34115 7.1858 9.34005 7.197Z" fill="black"/>
</svg>
