<svg width="24" height="24" viewBox="0 0 24 24" fill="none" xmlns="http://www.w3.org/2000/svg">
<path d="M12 2.3527C12.1804 2.36201 12.3607 2.33437 12.53 2.27149C12.6992 2.2086 12.8539 2.11179 12.9844 1.987C13.1149 1.8622 13.2185 1.71206 13.289 1.54577C13.3594 1.37949 13.395 1.20057 13.3938 1.02V1H10.6063V1.02C10.6069 1.20004 10.6438 1.37812 10.7148 1.54357C10.7858 1.70902 10.8895 1.85843 11.0196 1.98286C11.1498 2.1073 11.3037 2.20419 11.4721 2.26774C11.6406 2.33128 11.8201 2.36018 12 2.3527ZM17.6429 1.9911L14.76 1V1.02C14.7614 1.38001 14.6905 1.73662 14.5515 2.06872C14.4125 2.40082 14.2083 2.70164 13.9509 2.95336C13.6935 3.20508 13.3882 3.40257 13.0531 3.53414C12.718 3.66571 12.3599 3.72867 12 3.7193C11.6405 3.72729 11.283 3.66338 10.9485 3.53132C10.614 3.39926 10.3093 3.20171 10.0522 2.95026C9.79508 2.69882 9.59081 2.39855 9.45134 2.06708C9.31188 1.73561 9.24003 1.37962 9.24003 1.02V1L6.35913 1.9909C5.76846 2.19417 5.25597 2.57674 4.89317 3.08525C4.53037 3.59376 4.33535 4.20284 4.33533 4.8275V15H6.83533V6H8.00003V23H11.433V14H12.5793V23H16V6H17.1667V15H19.6667V4.8278C19.6667 4.20312 19.4717 3.59402 19.1089 3.08549C18.7461 2.57696 18.2336 2.19437 17.6429 1.9911Z" fill="black"/>
</svg>
