<svg width="24" height="24" viewBox="0 0 24 24" fill="none" xmlns="http://www.w3.org/2000/svg">
<path d="M20.5 7.1665V12.1717C20.0001 12.1867 19.5017 12.2335 19.0077 12.3117C18.0547 12.462 17.1497 12.8321 16.3645 13.3928C15.5793 13.9534 14.9354 14.6891 14.4838 15.5417C14.3638 15.7399 14.0938 16.3424 14.0027 16.5609L13.47 17.8382L13.1324 18.1665H10.6667L9.9367 16.4137C9.874 16.2631 9.701 15.8699 9.6244 15.7288C9.18428 14.838 8.5387 14.0645 7.74088 13.4723C6.94306 12.88 6.01588 12.4859 5.0358 12.3225C4.52786 12.2376 4.01475 12.1872 3.5 12.1717V7.1665H20.5ZM22 5.6665H2V13.6665H3.8333C4.82043 13.6665 5.78547 13.9587 6.60681 14.5062C7.42815 15.0538 8.06903 15.8322 8.4487 16.7434L9.6667 19.6665H14.3333L15.5513 16.7434C15.931 15.8322 16.5719 15.0538 17.3932 14.5062C18.2145 13.9587 19.1796 13.6665 20.1667 13.6665H22V5.6665Z" fill="black"/>
</svg>
