<svg width="24" height="24" viewBox="0 0 24 24" fill="none" xmlns="http://www.w3.org/2000/svg">
<path d="M18.7019 3.6241C17.9614 3.21472 17.1291 2.99998 16.283 3H7.6965C6.8469 2.99999 6.01132 3.21647 5.2686 3.629L1 6L3.405 10.8433L6 9.8611V21H18V9.8611L20.9283 10.8433L23 6L18.7019 3.6241ZM14.1831 3.9667C14.1524 4.52494 13.909 5.0502 13.503 5.43453C13.0969 5.81885 12.5591 6.03302 12 6.03302C11.4409 6.03302 10.9031 5.81885 10.497 5.43453C10.091 5.0502 9.84761 4.52494 9.8169 3.9667H14.1831ZM20.358 9.6334L18.3066 8.9443L17.0333 8.5186V20.0333H6.9667V8.3725L5.6105 8.9787L3.858 9.5847L2.2771 6.396L5.7383 4.4739C6.33751 4.14162 7.01133 3.96709 7.6965 3.9667H8.8465C8.8783 4.78172 9.22444 5.55277 9.81232 6.11816C10.4002 6.68354 11.1842 6.99935 11.9998 6.99935C12.8154 6.99935 13.5994 6.68354 14.1873 6.11816C14.7752 5.55277 15.1213 4.78172 15.1531 3.9667H16.2831C16.9653 3.96715 17.6363 4.14019 18.2337 4.4697L21.793 6.4366L20.358 9.6334ZM12.718 11.1649L14.3694 11.8831L16.0207 11.1649V7.9531H12.7177L12.718 11.1649ZM13.568 8.8031H15.1709V10.6076L14.3694 10.9562L13.568 10.6077V8.8031Z" fill="black"/>
</svg>
