<svg width="24" height="24" viewBox="0 0 24 24" fill="none" xmlns="http://www.w3.org/2000/svg">
<path d="M17.2471 3C16.7733 2.99999 16.3048 3.09927 15.8717 3.29143C15.4387 3.48358 15.0507 3.76435 14.7328 4.11564C14.4149 4.46692 14.1741 4.88093 14.026 5.33096C13.8779 5.781 13.8257 6.25707 13.8729 6.7285L14.5 13V17.25C14.5 18.2446 14.8951 19.1984 15.5983 19.9016C16.3016 20.6049 17.2554 21 18.25 21C19.2446 21 20.1984 20.6049 20.9016 19.9016C21.6049 19.1984 22 18.2446 22 17.25V7.7529C22 7.12874 21.8771 6.51068 21.6382 5.93403C21.3994 5.35737 21.0493 4.83341 20.6079 4.39206C20.1666 3.95071 19.6426 3.60062 19.066 3.36177C18.4893 3.12292 17.8713 2.99999 17.2471 3ZM14.4689 7.6639L14.37 6.6787C14.3298 6.27676 14.3743 5.87085 14.5006 5.48716C14.6269 5.10346 14.8322 4.75049 15.1033 4.451C15.3744 4.15151 15.7052 3.91215 16.0744 3.74835C16.4437 3.58456 16.8432 3.49995 17.2471 3.5C18.2825 3.5032 19.2811 3.8848 20.0548 4.57297C20.8285 5.26113 21.3239 6.20839 21.4478 7.2364L20.7 7.0869C18.8729 6.72271 16.9826 6.83708 15.2127 7.4189L14.4689 7.6639ZM21.5 17.25C21.5 18.112 21.1576 18.9386 20.5481 19.5481C19.9386 20.1576 19.112 20.5 18.25 20.5C17.388 20.5 16.5614 20.1576 15.9519 19.5481C15.3424 18.9386 15 18.112 15 17.25L14.9975 12.95L14.8817 11.7919L15.7681 11.529C17.3854 11.0502 19.0989 10.9971 20.7427 11.3747L21.5 11.5491V17.25ZM21.5 11.0372L20.855 10.8887C19.1271 10.4902 17.3254 10.546 15.6255 11.0508L14.8311 11.2864L14.52 8.1732L15.3689 7.8932C17.0566 7.33783 18.8594 7.22879 20.6018 7.5767L21.5002 7.7567L21.5 11.0372ZM6.7529 3C6.12874 2.99999 5.51068 3.12292 4.93403 3.36177C4.35737 3.60062 3.83341 3.95071 3.39206 4.39206C2.95071 4.83341 2.60062 5.35737 2.36177 5.93403C2.12292 6.51068 1.99999 7.12874 2 7.7529V17.25C2 18.2446 2.39509 19.1984 3.09835 19.9017C3.80161 20.6049 4.75544 21 5.75 21C6.74456 21 7.69839 20.6049 8.40165 19.9017C9.10491 19.1984 9.5 18.2446 9.5 17.25V13L10.1271 6.7285C10.1743 6.25707 10.1221 5.781 9.97399 5.33096C9.82589 4.88093 9.58512 4.46692 9.26722 4.11564C8.94931 3.76435 8.56132 3.48358 8.12826 3.29143C7.6952 3.09927 7.22668 2.99999 6.7529 3ZM9 13V17.25C9 18.112 8.65759 18.9386 8.0481 19.5481C7.4386 20.1576 6.61195 20.5 5.75 20.5C4.88805 20.5 4.0614 20.1576 3.4519 19.5481C2.84241 18.9386 2.5 18.112 2.5 17.25V11.5494L3.2573 11.375C4.90109 10.9969 6.6147 11.05 8.2319 11.5293L9.1202 11.7928L9 13ZM9.1707 11.287L8.3745 11.0508C6.67475 10.545 4.87281 10.4892 3.145 10.8887L2.5 11.0372V7.7566L3.3989 7.5771C5.14116 7.22978 6.94361 7.33881 8.6313 7.8936L9.4813 8.1736L9.1707 11.287ZM9.5315 7.664L8.7876 7.4189C7.01786 6.83711 5.12777 6.72274 3.3008 7.0869L2.5522 7.2364C2.6761 6.20839 3.17153 5.26113 3.94521 4.57297C4.71889 3.8848 5.71746 3.5032 6.7529 3.5C7.15685 3.49995 7.55632 3.58456 7.92557 3.74835C8.29482 3.91215 8.62564 4.15151 8.89671 4.451C9.16779 4.75049 9.37309 5.10346 9.49939 5.48716C9.62569 5.87085 9.67018 6.27676 9.63 6.6787L9.5315 7.664Z" fill="black"/>
</svg>
