<svg width="24" height="24" viewBox="0 0 24 24" fill="none" xmlns="http://www.w3.org/2000/svg">
<path d="M20 7.3335V11.6747C18.6756 11.7354 17.3959 12.1721 16.3107 12.9336C15.2254 13.6951 14.3794 14.75 13.8718 15.9747L13.1667 17.6671H10.8333L10.1282 15.9748C9.62057 14.75 8.77463 13.6952 7.68936 12.9337C6.6041 12.1721 5.3244 11.7355 4 11.6747V7.3335H20ZM22 5.3335H2V13.6669H3.6667C4.65381 13.6669 5.61883 13.9591 6.44015 14.5067C7.26147 15.0542 7.90234 15.8326 8.282 16.7438L9.5 19.6669H14.5L15.718 16.7438C16.0977 15.8326 16.7385 15.0542 17.5599 14.5067C18.3812 13.9591 19.3462 13.6669 20.3333 13.6669H22V5.3335Z" fill="black"/>
</svg>
