<svg width="24" height="24" viewBox="0 0 24 24" fill="none" xmlns="http://www.w3.org/2000/svg">
<path d="M9.916 7.79098L12 5.70698L14.084 7.79098L14.791 7.08398L12.707 4.99998L14.791 2.91598L14.084 2.20898L12 4.29298L9.916 2.20898L9.209 2.91598L11.293 4.99998L9.209 7.08398L9.916 7.79098ZM20.8984 10.3291C20.336 10.3306 19.7816 10.4623 19.2785 10.7138C18.7755 10.9654 18.3376 11.33 17.999 11.7791L16.7114 13.4961L15.4229 11.7781C15.0852 11.3281 14.6474 10.9629 14.1442 10.7114C13.6409 10.4598 13.0861 10.3289 12.5235 10.3289C11.9608 10.3289 11.406 10.4598 10.9027 10.7114C10.3995 10.9629 9.96169 11.3281 9.624 11.7781L8.4167 13.3881L7.5234 12.1972C7.08707 11.6185 6.52269 11.1487 5.87448 10.8246C5.22627 10.5005 4.51182 10.3309 3.7871 10.329H1.0479V19.6708H3.1016C3.66401 19.6693 4.21844 19.5376 4.72146 19.286C5.22448 19.0345 5.66243 18.6699 6.001 18.2208L7.2886 16.5038L8.5771 18.2218C8.91479 18.6718 9.35258 19.037 9.85583 19.2885C10.3591 19.54 10.9139 19.671 11.4766 19.671C12.0392 19.671 12.594 19.54 13.0973 19.2885C13.6005 19.037 14.0383 18.6718 14.376 18.2218L15.5833 16.6118L16.4766 17.8027C16.9129 18.3813 17.4773 18.8511 18.1255 19.1752C18.7737 19.4993 19.4882 19.669 20.2129 19.6709H22.9521V10.3291H20.8984ZM5.2275 17.6406C4.97925 17.9699 4.65814 18.2373 4.28933 18.4218C3.92051 18.6063 3.51399 18.7029 3.1016 18.7041H2.0146V11.2959H3.7871C4.36181 11.2973 4.92838 11.4318 5.44242 11.6888C5.95646 11.9458 6.40401 12.3184 6.75 12.7773L7.8125 14.1939L5.2275 17.6406ZM13.6025 17.6416C13.3549 17.9715 13.0339 18.2392 12.6649 18.4236C12.2959 18.6081 11.8891 18.7041 11.4766 18.7041C11.0641 18.7041 10.6572 18.6081 10.2882 18.4236C9.91924 18.2392 9.59823 17.9715 9.3506 17.6416L7.8928 15.698L10.3975 12.358C10.6451 12.0281 10.9661 11.7603 11.3351 11.5759C11.7041 11.3915 12.111 11.2955 12.5235 11.2955C12.936 11.2955 13.3428 11.3915 13.7118 11.5759C14.0808 11.7603 14.4018 12.0281 14.6494 12.358L16.1072 14.3016L13.6025 17.6416ZM21.9854 18.7041H20.2129C19.6382 18.7026 19.0716 18.5681 18.5576 18.3111C18.0435 18.0541 17.596 17.6816 17.25 17.2227L16.1875 15.8061L18.7725 12.3594C19.0208 12.0301 19.3419 11.7627 19.7107 11.5782C20.0795 11.3937 20.486 11.2971 20.8984 11.2959H21.9854V18.7041Z" fill="black"/>
</svg>
