<svg width="24" height="24" viewBox="0 0 24 24" fill="none" xmlns="http://www.w3.org/2000/svg">
<path d="M8.2672 4.1063L9.7084 6.0279C9.97492 6.38324 10.3202 6.67191 10.7172 6.87121C11.1142 7.0705 11.5519 7.175 11.9961 7.17647C12.4403 7.17794 12.8788 7.07636 13.277 6.8797C13.6753 6.68303 14.0225 6.39666 14.2914 6.0431L15.7614 4.1101L16.6642 4.3536L15.75 10.1592C15.6395 10.8705 15.7596 11.5985 16.0926 12.2366L16.8261 13.6349C17.3512 14.6383 17.6333 15.751 17.6496 16.8833L17.3055 16.9783C15.4323 17.4994 13.7776 18.6119 12.5882 20.15H11.4118C10.2224 18.6119 8.56786 17.4994 6.6947 16.9783L6.3561 16.8848C6.40109 15.8139 6.6836 14.7665 7.1832 13.8182L7.9026 12.4558C8.23952 11.8144 8.36088 11.0816 8.2487 10.3658L7.2952 4.3625L8.2672 4.1063ZM15.0417 2L12.8188 4.9233C12.7231 5.049 12.5996 5.1508 12.458 5.22072C12.3163 5.29063 12.1604 5.32674 12.0025 5.32622C11.8445 5.32569 11.6888 5.28855 11.5476 5.2177C11.4065 5.14685 11.2836 5.04423 11.1888 4.9179L9 2L5.2056 3L6.4216 10.6563C6.4725 10.9768 6.41811 11.3051 6.2666 11.592L5.5472 12.9543C4.85949 14.2567 4.50002 15.7072 4.5 17.18V18.2915L6.2024 18.7615C7.6934 19.1731 9.00965 20.0594 9.9518 21.2861L10.5 22H13.5L14.0482 21.2862C14.9903 20.0595 16.3066 19.1732 17.7976 18.7616L19.5 18.2916V16.98C19.5 15.5154 19.1446 14.0727 18.4642 12.7758L17.7307 11.3775C17.5809 11.092 17.5271 10.7659 17.5772 10.4475L18.75 3L15.0417 2Z" fill="black"/>
</svg>
