<svg width="24" height="24" viewBox="0 0 24 24" fill="none" xmlns="http://www.w3.org/2000/svg">
<path d="M13.9733 3H10.0354L12.0113 5.459L13.9733 3ZM18.2687 4.1035L15.7654 3.1624L13.1681 6.3854C13.0291 6.56242 12.8518 6.70554 12.6494 6.80396C12.4471 6.90239 12.225 6.95353 12 6.95353C11.7749 6.95353 11.5529 6.90239 11.3505 6.80396C11.1481 6.70554 10.9708 6.56242 10.8319 6.3854L8.23467 3.1624L5.73127 4.1035C5.02705 4.36676 4.42005 4.83885 3.99151 5.45657C3.56298 6.0743 3.33335 6.80818 3.33337 7.56V20H6.33337V9H7.76667V21H16.2333V9H17.6667V20H20.6667V7.56C20.6667 6.80817 20.437 6.07427 20.0085 5.45655C19.5799 4.83882 18.9729 4.36674 18.2687 4.1035Z" fill="black"/>
</svg>
