<svg width="24" height="24" viewBox="0 0 24 24" fill="none" xmlns="http://www.w3.org/2000/svg">
<path d="M21.3483 3.99986L21.0659 6.68216H20.2153C19.4803 6.69183 18.7651 6.92127 18.1616 7.34096C17.9078 7.50574 17.6373 7.64317 17.3545 7.75096L18.4276 11.0191C18.4501 11.08 18.4481 11.1473 18.4218 11.2067C18.3956 11.2662 18.3473 11.313 18.2871 11.3375L17.9816 11.4617C17.7774 11.5449 17.5506 11.5545 17.3401 11.4888C17.1296 11.4231 16.9485 11.2862 16.8279 11.1017L15.47 8.87636V15.9629C15.47 16.155 15.3937 16.3393 15.2578 16.4752C15.1219 16.611 14.9376 16.6874 14.7455 16.6874C14.5533 16.6874 14.3691 16.611 14.2332 16.4752C14.0973 16.3393 14.021 16.155 14.021 15.9629V11.2499H13.121V16.7233C13.121 16.9154 13.0447 17.0997 12.9088 17.2356C12.7729 17.3714 12.5886 17.4478 12.3965 17.4478C12.2043 17.4478 12.0201 17.3714 11.8842 17.2356C11.7483 17.0997 11.672 16.9154 11.672 16.7233V11.2423C11.3706 11.2348 11.07 11.2081 10.772 11.1623V15.9623C10.772 16.1544 10.6957 16.3387 10.5598 16.4746C10.4239 16.6104 10.2396 16.6868 10.0475 16.6868C9.85535 16.6868 9.67107 16.6104 9.5352 16.4746C9.39933 16.3387 9.323 16.1544 9.323 15.9623V10.7837C9.01271 10.6619 8.71188 10.5173 8.423 10.351V14.8674C8.42708 15.0212 8.36989 15.1703 8.26401 15.282C8.15813 15.3937 8.01222 15.4587 7.8584 15.4628C7.70457 15.4668 7.55543 15.4097 7.44377 15.3038C7.33211 15.1979 7.26708 15.052 7.263 14.8982L6.9734 9.47066L6.9525 7.85836C6.55734 7.7426 6.18179 7.56819 5.8384 7.34096C5.23418 6.92283 4.5194 6.69354 3.7847 6.68216H2.9341L2.6517 3.99986H1.21L3 20.9999H21L22.79 3.99986H21.3483ZM9.9462 7.34096C10.5453 6.9125 11.2634 6.68215 12 6.68215C12.7366 6.68215 13.4547 6.9125 14.0538 7.34096C14.6581 7.75916 15.3729 7.98849 16.1077 7.99986C16.5352 7.99517 16.958 7.91069 17.3545 7.75076L16.5486 5.29646C16.1829 4.18302 15.4324 3.23635 14.4317 2.62636C13.431 2.01637 12.2457 1.783 11.0885 1.96813C9.93124 2.15327 8.87787 2.74478 8.11742 3.63651C7.35698 4.52825 6.93925 5.66181 6.9392 6.83376L6.9525 7.85836C7.2575 7.94971 7.57392 7.99735 7.8923 7.99986C8.62708 7.98849 9.34193 7.75916 9.9462 7.34096Z" fill="black"/>
</svg>
