<svg width="24" height="24" viewBox="0 0 24 24" fill="none" xmlns="http://www.w3.org/2000/svg">
<path d="M7.6978 8.65834C7.44863 8.16003 7.06562 7.74095 6.59169 7.44806C6.11776 7.15516 5.57163 7.00003 5.0145 7.00004H1V17H2.7645C3.32164 17 3.86778 16.8449 4.34171 16.552C4.81564 16.2591 5.19865 15.84 5.4478 15.3416L8.2437 9.75004L7.6978 8.65834ZM21.2434 7.00004C20.6863 7.00001 20.1401 7.15514 19.6661 7.44803C19.1922 7.74092 18.8092 8.16002 18.56 8.65834L15.7642 14.25L16.3101 15.3416C16.5593 15.84 16.9423 16.2591 17.4162 16.552C17.8901 16.8449 18.4363 17 18.9934 17H23V7.00004H21.2434ZM16.6814 9.20764C16.3497 8.54427 15.8399 7.98637 15.209 7.59645C14.5781 7.20653 13.8511 7 13.1094 7C12.3677 7 11.6407 7.20653 11.0098 7.59645C10.3789 7.98637 9.86908 8.54427 9.5374 9.20764L7.0319 14.2188L7.3186 14.7924C7.65028 15.4558 8.16013 16.0137 8.79103 16.4036C9.42192 16.7935 10.1489 17.0001 10.8906 17.0001C11.6323 17.0001 12.3593 16.7935 12.9902 16.4036C13.6211 16.0137 14.1309 15.4558 14.4626 14.7924L16.9681 9.78124L16.6814 9.20764Z" fill="black"/>
</svg>
