<svg width="24" height="24" viewBox="0 0 24 24" fill="none" xmlns="http://www.w3.org/2000/svg">
<path d="M20.2534 11.3075L16.4734 10.3544L11.4083 7H9.1838L7.6323 8.1226C7.15084 8.47052 6.57597 8.66578 5.98221 8.68308C5.38845 8.70038 4.80319 8.5389 4.3023 8.2196L3.2153 7.5207L1 7.5382V17.6666H7.6667V16.5416L10.9896 17.6666H23V14.8325C23 14.023 22.7298 13.2367 22.2323 12.5982C21.7347 11.9596 21.0383 11.5054 20.2534 11.3075ZM21.5 16.167H11.2368L6.1665 14.45V16.167H2.5V9.0264L2.78 9.0244L3.4909 9.4814C4.24526 9.96372 5.12719 10.2081 6.02221 10.1829C6.91722 10.1577 7.78399 9.86403 8.51 9.34L9.67 8.5H10.9566L11.1784 8.6469L10.4884 9.6885C10.3787 9.85433 10.3394 10.0569 10.379 10.2518C10.4187 10.4466 10.534 10.6177 10.6998 10.7275C10.8222 10.8093 10.9662 10.8528 11.1134 10.8525C11.2374 10.8526 11.3594 10.822 11.4686 10.7633C11.5779 10.7047 11.6709 10.62 11.7393 10.5166L12.4293 9.4752L13.7318 10.3378L13.0489 11.3691C12.9392 11.535 12.8999 11.7376 12.9395 11.9324C12.9792 12.1273 13.0946 12.2984 13.2604 12.4082C13.3828 12.49 13.5267 12.5335 13.6739 12.5332C13.7979 12.5333 13.9199 12.5027 14.0292 12.4441C14.1384 12.3855 14.2314 12.3007 14.2999 12.1973L14.9828 11.1661L15.8585 11.7461L19.8868 12.7617C20.348 12.8779 20.7572 13.1448 21.0494 13.5201C21.3417 13.8953 21.5002 14.3574 21.5 14.833V16.167Z" fill="black"/>
</svg>
