<svg width="24" height="24" viewBox="0 0 24 24" fill="none" xmlns="http://www.w3.org/2000/svg">
<path d="M12 10.5C11.7033 10.5 11.4133 10.588 11.1666 10.7528C10.92 10.9176 10.7277 11.1519 10.6142 11.426C10.5006 11.7001 10.4709 12.0017 10.5288 12.2926C10.5867 12.5836 10.7296 12.8509 10.9393 13.0607C11.1491 13.2704 11.4164 13.4133 11.7074 13.4712C11.9983 13.5291 12.2999 13.4994 12.574 13.3858C12.8481 13.2723 13.0824 13.08 13.2472 12.8334C13.412 12.5867 13.5 12.2967 13.5 12C13.5 11.6022 13.342 11.2206 13.0607 10.9393C12.7794 10.658 12.3978 10.5 12 10.5ZM12 13C11.8022 13 11.6089 12.9414 11.4444 12.8315C11.28 12.7216 11.1518 12.5654 11.0761 12.3827C11.0004 12.2 10.9806 11.9989 11.0192 11.8049C11.0578 11.6109 11.153 11.4327 11.2929 11.2929C11.4327 11.153 11.6109 11.0578 11.8049 11.0192C11.9989 10.9806 12.2 11.0004 12.3827 11.0761C12.5654 11.1518 12.7216 11.28 12.8315 11.4444C12.9414 11.6089 13 11.8022 13 12C12.9997 12.2651 12.8943 12.5193 12.7068 12.7068C12.5193 12.8943 12.2651 12.9997 12 13ZM16.6875 10.5C16.3908 10.5 16.1008 10.588 15.8541 10.7528C15.6075 10.9176 15.4152 11.1519 15.3017 11.426C15.1881 11.7001 15.1584 12.0017 15.2163 12.2926C15.2742 12.5836 15.4171 12.8509 15.6268 13.0607C15.8366 13.2704 16.1039 13.4133 16.3949 13.4712C16.6858 13.5291 16.9874 13.4994 17.2615 13.3858C17.5356 13.2723 17.7699 13.08 17.9347 12.8334C18.0995 12.5867 18.1875 12.2967 18.1875 12C18.1875 11.6022 18.0295 11.2206 17.7482 10.9393C17.4669 10.658 17.0853 10.5 16.6875 10.5ZM16.6875 13C16.4897 13 16.2964 12.9414 16.1319 12.8315C15.9675 12.7216 15.8393 12.5654 15.7636 12.3827C15.6879 12.2 15.6681 11.9989 15.7067 11.8049C15.7453 11.6109 15.8405 11.4327 15.9804 11.2929C16.1202 11.153 16.2984 11.0578 16.4924 11.0192C16.6864 10.9806 16.8875 11.0004 17.0702 11.0761C17.2529 11.1518 17.4091 11.28 17.519 11.4444C17.6289 11.6089 17.6875 11.8022 17.6875 12C17.6872 12.2651 17.5818 12.5193 17.3943 12.7068C17.2068 12.8943 16.9526 12.9997 16.6875 13ZM7.3125 10.5C7.01583 10.5 6.72582 10.588 6.47914 10.7528C6.23247 10.9176 6.04021 11.1519 5.92668 11.426C5.81315 11.7001 5.78344 12.0017 5.84132 12.2926C5.8992 12.5836 6.04206 12.8509 6.25184 13.0607C6.46162 13.2704 6.72889 13.4133 7.01986 13.4712C7.31084 13.5291 7.61244 13.4994 7.88653 13.3858C8.16061 13.2723 8.39488 13.08 8.5597 12.8334C8.72453 12.5867 8.8125 12.2967 8.8125 12C8.8125 11.6022 8.65446 11.2206 8.37316 10.9393C8.09186 10.658 7.71032 10.5 7.3125 10.5ZM7.3125 13C7.11472 13 6.92138 12.9414 6.75693 12.8315C6.59248 12.7216 6.46431 12.5654 6.38862 12.3827C6.31293 12.2 6.29313 11.9989 6.33171 11.8049C6.3703 11.6109 6.46554 11.4327 6.60539 11.2929C6.74525 11.153 6.92343 11.0578 7.11741 11.0192C7.31139 10.9806 7.51246 11.0004 7.69518 11.0761C7.87791 11.1518 8.03409 11.28 8.14397 11.4444C8.25385 11.6089 8.3125 11.8022 8.3125 12C8.31221 12.2651 8.20676 12.5193 8.01929 12.7068C7.83181 12.8943 7.57763 12.9997 7.3125 13ZM3 3V21H21V3H3ZM3.5 3.5H9.063C7.77542 3.94621 6.60583 4.67867 5.64225 5.64225C4.67867 6.60583 3.94621 7.77542 3.5 9.063V3.5ZM3.5 20.5V14.937C3.94621 16.2246 4.67867 17.3942 5.64225 18.3578C6.60583 19.3213 7.77542 20.0538 9.063 20.5H3.5ZM20.5 20.5H14.937C16.2246 20.0538 17.3942 19.3213 18.3578 18.3578C19.3213 17.3942 20.0538 16.2246 20.5 14.937V20.5ZM12 20.5C10.3189 20.5 8.67547 20.0015 7.27765 19.0675C5.87984 18.1335 4.79037 16.806 4.14702 15.2528C3.50368 13.6996 3.33535 11.9906 3.66333 10.3417C3.9913 8.69289 4.80085 7.17834 5.98959 5.98959C7.17834 4.80085 8.69289 3.9913 10.3417 3.66333C11.9906 3.33535 13.6996 3.50368 15.2528 4.14702C16.806 4.79037 18.1335 5.87984 19.0675 7.27765C20.0015 8.67547 20.5 10.3189 20.5 12C20.4974 14.2535 19.601 16.414 18.0075 18.0075C16.414 19.601 14.2535 20.4974 12 20.5ZM20.5 9.063C20.0538 7.77542 19.3213 6.60583 18.3578 5.64225C17.3942 4.67867 16.2246 3.94621 14.937 3.5H20.5V9.063Z" fill="black"/>
</svg>
