<svg width="24" height="24" viewBox="0 0 24 24" fill="none" xmlns="http://www.w3.org/2000/svg">
<path d="M5.86834 19V14.2879C5.86834 14.0292 5.97111 13.7811 6.15403 13.5982C6.33695 13.4153 6.58505 13.3125 6.84374 13.3125C6.9824 13.3125 7.11946 13.342 7.24578 13.3992C7.37211 13.4563 7.4848 13.5398 7.57634 13.6439L10.7916 17.3013C11.2609 17.8351 11.8385 18.2627 12.4861 18.5556C13.1336 18.8485 13.8361 19 14.5468 19H22.9999V16.9693C23 16.6338 22.9155 16.3036 22.7545 16.0093C22.5934 15.7149 22.3609 15.4658 22.0783 15.2849L16.6341 11.7992L14.9746 12.656C14.5683 12.8658 14.1049 12.9379 13.654 12.8616C13.2031 12.7853 12.7892 12.5646 12.4746 12.2327L5.67134 5.0568L3.99994 5L3.16124 6.9132C2.40616 8.63603 2.20987 10.5522 2.59994 12.3923L3.99994 19H5.86834Z" fill="black"/>
</svg>
