<svg width="24" height="24" viewBox="0 0 24 24" fill="none" xmlns="http://www.w3.org/2000/svg">
<path d="M17.9471 4.17L15.0549 3H8.9471L6.0533 4.17C5.44669 4.41526 4.92716 4.83611 4.56133 5.3786C4.19549 5.92109 4.00003 6.56048 4 7.2148V20H7V21H17V20H20V7.2144C20 6.56019 19.8045 5.92091 19.4388 5.3785C19.073 4.83609 18.5536 4.41527 17.9471 4.17ZM14.3355 3.5L11.996 6.1724L9.6636 3.5H14.3355ZM19.5 19.5H17V9H16.5V20.5H7.5V9H7V19.5H4.5V7.2148C4.49842 6.65972 4.66348 6.11694 4.97382 5.65671C5.28416 5.19648 5.72549 4.84 6.2407 4.6334L9.0115 3.5134L11.6193 6.5014C11.6667 6.55576 11.7252 6.59933 11.7909 6.62919C11.8566 6.65905 11.9279 6.67449 12 6.67449C12.0721 6.67449 12.1434 6.65905 12.2091 6.62919C12.2748 6.59933 12.3333 6.55576 12.3807 6.5014L14.989 3.5126L17.76 4.6332C18.275 4.8399 18.7162 5.1964 19.0264 5.65658C19.3366 6.11675 19.5016 6.65943 19.5 7.2144V19.5Z" fill="black"/>
</svg>
