<svg width="24" height="24" viewBox="0 0 24 24" fill="none" xmlns="http://www.w3.org/2000/svg">
<path d="M21.01 10.7886L16.7419 9.2635L16.0742 10.9053C16.0316 11.0174 15.967 11.1198 15.8842 11.2066C15.8015 11.2934 15.7022 11.3628 15.5922 11.4107C15.4823 11.4585 15.3639 11.484 15.244 11.4854C15.124 11.4869 15.005 11.4644 14.894 11.4192C14.7829 11.374 14.6819 11.3071 14.597 11.2224C14.5122 11.1377 14.4451 11.0368 14.3998 10.9258C14.3544 10.8148 14.3317 10.6958 14.333 10.5759C14.3343 10.456 14.3595 10.3375 14.4072 10.2275L15.0459 8.6575L13.6521 8.1594L12.9336 9.8361C12.8883 9.9465 12.8214 10.0468 12.737 10.1311C12.6525 10.2154 12.5522 10.2821 12.4417 10.3273C12.3312 10.3725 12.2129 10.3952 12.0935 10.3942C11.9742 10.3932 11.8563 10.3685 11.7466 10.3215C11.6369 10.2745 11.5376 10.2061 11.4546 10.1204C11.3715 10.0347 11.3064 9.93331 11.2629 9.82217C11.2194 9.71103 11.1985 9.59235 11.2013 9.47304C11.2041 9.35373 11.2306 9.23617 11.2793 9.1272L11.954 7.5526L10.4083 7H7.7913V8.02C7.79112 8.15191 7.76488 8.28249 7.71408 8.40423C7.66329 8.52597 7.58894 8.63647 7.49531 8.72939C7.40168 8.82231 7.29062 8.89582 7.1685 8.94569C7.04638 8.99556 6.91561 9.02082 6.7837 9.02L5.2632 9.0084C4.87082 9.00545 4.48305 8.92358 4.12297 8.76767C3.76288 8.61177 3.43784 8.38501 3.1672 8.1009L2.6146 7.5209L1 7.5382V17H16L23 16.2083V13.6136C23 12.995 22.8088 12.3915 22.4526 11.8858C22.0963 11.3801 21.5925 10.9969 21.01 10.7886Z" fill="black"/>
</svg>
