<svg width="24" height="24" viewBox="0 0 24 24" fill="none" xmlns="http://www.w3.org/2000/svg">
<path d="M12 12.7188C11.8022 12.7188 11.6089 12.7774 11.4444 12.8873C11.28 12.9972 11.1518 13.1534 11.0761 13.3361C11.0004 13.5188 10.9806 13.7199 11.0192 13.9139C11.0578 14.1079 11.153 14.2861 11.2929 14.4259C11.4327 14.5658 11.6109 14.661 11.8049 14.6996C11.9989 14.7382 12.1999 14.7184 12.3827 14.6427C12.5654 14.567 12.7216 14.4388 12.8315 14.2744C12.9413 14.1099 13 13.9166 13 13.7188C13 13.4536 12.8946 13.1992 12.7071 13.0117C12.5196 12.8242 12.2652 12.7188 12 12.7188ZM21.3483 4L21.1565 5.8213H20.4746C19.557 5.83183 18.666 6.13078 17.9277 6.6758C17.448 7.05982 16.8518 7.26906 16.2373 7.26906C15.6228 7.26906 15.0266 7.05982 14.5469 6.6758C13.8127 6.12388 12.919 5.82545 12.0005 5.82545C11.082 5.82545 10.1883 6.12388 9.45409 6.6758C8.96538 7.04319 8.37393 7.24842 7.76269 7.2627C7.15178 7.24895 6.56063 7.04366 6.07269 6.6758C5.33268 6.13413 4.44275 5.83556 3.52579 5.8213H2.84349L2.65169 4H1.20999L2.99999 21H21L22.79 4H21.3483ZM19.71 19.5667H4.28999L3.00129 7.3213H3.52539C4.13663 7.33558 4.72808 7.5408 5.21679 7.9082C5.95657 8.44959 6.84609 8.74815 7.76269 8.7627C8.67979 8.74853 9.56987 8.44995 10.31 7.9082C10.7901 7.52461 11.3864 7.31566 12.0009 7.31566C12.6154 7.31566 13.2117 7.52461 13.6918 7.9082C14.4247 8.46265 15.3187 8.76267 16.2377 8.76267C17.1567 8.76267 18.0506 8.46265 18.7836 7.9082C19.2723 7.5408 19.8637 7.33558 20.475 7.3213H20.9991L19.71 19.5667Z" fill="black"/>
</svg>
