<svg width="24" height="24" viewBox="0 0 24 24" fill="none" xmlns="http://www.w3.org/2000/svg">
<path d="M11.4083 7.6665L10.4083 5.6665H7.458V8.0265C7.45879 8.58257 7.30805 9.12835 7.022 9.6052C6.88046 9.83547 6.68189 10.0253 6.44549 10.1564C6.2091 10.2874 5.94288 10.3553 5.6726 10.3533H5.6605C5.54619 10.3512 5.43208 10.3428 5.3187 10.3281C5.04247 10.2956 4.77953 10.1915 4.5559 10.0261C4.32462 9.85471 4.11796 9.65239 3.9417 9.4248L3.0979 8.1899L1 8.2047V18.3332H15L20.0371 17.5111C20.8491 17.3731 21.588 16.9577 22.1279 16.3357C22.6678 15.7138 22.9753 14.9238 22.9978 14.1005C22.9993 14.0683 23 13.9782 23 13.9458V12.1665L11.4083 7.6665ZM21.9983 14.0702C21.9818 14.6622 21.7608 15.2302 21.3728 15.6777C20.9848 16.1251 20.4537 16.4243 19.87 16.5243L14.9188 17.3329H2V9.1972L2.5728 9.1933L3.1162 9.9892C3.37118 10.3307 3.67869 10.6297 4.0273 10.8749C4.37375 11.1212 4.77744 11.2749 5.2 11.3212C5.2644 11.3329 5.534 11.3512 5.6482 11.3534C6.07781 11.3577 6.50176 11.2551 6.88184 11.0548C7.26193 10.8545 7.58622 10.5628 7.8255 10.206C8.23017 9.55017 8.44874 8.79658 8.4578 8.026V6.6669H9.79L10.6865 8.4599L11.5386 8.7906L10.8726 10.5067C10.85 10.5648 10.8391 10.6268 10.8406 10.6892C10.842 10.7515 10.8556 10.813 10.8808 10.87C10.906 10.9271 10.9421 10.9786 10.9872 11.0217C11.0323 11.0647 11.0855 11.0985 11.1436 11.121C11.1982 11.1429 11.2565 11.1541 11.3154 11.1542C11.4112 11.1542 11.5049 11.1252 11.5839 11.071C11.6629 11.0168 11.7237 10.9399 11.7583 10.8505L12.4244 9.1344L14.0423 9.7625L13.4263 11.3485C13.4037 11.4066 13.3928 11.4686 13.3943 11.531C13.3957 11.5933 13.4093 11.6548 13.4345 11.7118C13.4597 11.7689 13.4958 11.8204 13.5409 11.8635C13.586 11.9065 13.6392 11.9403 13.6973 11.9628C13.7519 11.9847 13.8102 11.9959 13.8691 11.996C13.9649 11.9959 14.0585 11.9669 14.1375 11.9127C14.2166 11.8585 14.2774 11.7817 14.312 11.6923L14.928 10.1063L16.5454 10.7342L15.98 12.1899C15.9574 12.248 15.9466 12.31 15.948 12.3724C15.9494 12.4347 15.9631 12.4961 15.9882 12.5532C16.0134 12.6102 16.0496 12.6618 16.0947 12.7048C16.1397 12.7479 16.1929 12.7817 16.251 12.8042C16.3057 12.826 16.364 12.8373 16.4229 12.8374C16.5187 12.8373 16.6123 12.8082 16.6913 12.7541C16.7703 12.6999 16.8311 12.6231 16.8657 12.5337L17.4311 11.0776L22 12.8515L21.9983 14.0702Z" fill="black"/>
</svg>
