<svg width="24" height="24" viewBox="0 0 24 24" fill="none" xmlns="http://www.w3.org/2000/svg">
<path d="M20.8789 4L20.7019 5.6821H19.749C18.8465 5.69494 17.9703 5.98753 17.2412 6.5195C16.8546 6.83273 16.3721 7.00365 15.8745 7.00365C15.3769 7.00365 14.8944 6.83273 14.5078 6.5195C13.7838 5.97817 12.904 5.68564 12 5.68564C11.096 5.68564 10.2162 5.97817 9.49221 6.5195C9.09802 6.81815 8.62036 6.98615 8.12601 7C7.63141 6.98628 7.15343 6.81848 6.75881 6.52C6.02986 5.98764 5.15356 5.69485 4.25101 5.6821H3.29811L3.12111 4H1.21001L3.00001 21H21L22.79 4H20.8789ZM19.29 19.1H4.71001L3.50871 7.6821H4.25101C4.74577 7.69581 5.22385 7.864 5.61821 8.1631C6.34742 8.6948 7.22362 8.98721 8.12601 9C9.02814 8.98708 9.90403 8.69449 10.6328 8.1626C11.0194 7.84877 11.5022 7.67752 12.0001 7.67761C12.498 7.6777 12.9807 7.84913 13.3672 8.1631C14.0902 8.70639 14.9702 9.00009 15.8746 9C16.779 8.99991 17.6589 8.70603 18.3818 8.1626C18.7754 7.86215 19.254 7.69411 19.749 7.6826H20.4913L19.29 19.1ZM13.872 10.8924L12 12.764L10.1284 10.8924L8.99661 12.0242L10.8682 13.8958L8.99661 15.7674L10.1284 16.8992L12 15.0276L13.8716 16.8992L15.0034 15.7674L13.1318 13.8958L15.0034 12.0242L13.872 10.8924Z" fill="black"/>
</svg>
