<svg width="24" height="24" viewBox="0 0 24 24" fill="none" xmlns="http://www.w3.org/2000/svg">
<path d="M18.69 3.6221C17.9504 3.21409 17.1194 3.00007 16.2747 3H7.7006C6.8517 2.99999 6.01678 3.21611 5.2745 3.628L1 6L3.1075 10.265L6 9.2917V21H18V9.2917L20.8925 10.265L23 6L18.69 3.6221ZM14.5 3.5C14.5 4.16304 14.2366 4.79893 13.7678 5.26777C13.2989 5.73661 12.663 6 12 6C11.337 6 10.7011 5.73661 10.2322 5.26777C9.76339 4.79893 9.5 4.16304 9.5 3.5H14.5ZM20.6379 9.6517L18.16 8.8177L17.5 8.5959V20.5H6.5V8.5959L5.8406 8.8177L3.3622 9.6517L1.66 6.2059L5.5171 4.0652C6.18533 3.69494 6.93665 3.50047 7.7006 3.5H9C9 4.29565 9.31607 5.05871 9.87868 5.62132C10.4413 6.18393 11.2044 6.5 12 6.5C12.7956 6.5 13.5587 6.18393 14.1213 5.62132C14.6839 5.05871 15 4.29565 15 3.5H16.2747C17.0349 3.50052 17.7827 3.69315 18.4485 4.06L22.34 6.2069L20.6379 9.6517ZM13.75 8H10.25C9.71957 8 9.21086 8.21071 8.83579 8.58579C8.46071 8.96086 8.25 9.46957 8.25 10C8.25 10.5304 8.46071 11.0391 8.83579 11.4142C9.21086 11.7893 9.71957 12 10.25 12H13.75C14.2804 12 14.7891 11.7893 15.1642 11.4142C15.5393 11.0391 15.75 10.5304 15.75 10C15.75 9.46957 15.5393 8.96086 15.1642 8.58579C14.7891 8.21071 14.2804 8 13.75 8ZM13.75 11.5H10.25C9.85218 11.5 9.47064 11.342 9.18934 11.0607C8.90804 10.7794 8.75 10.3978 8.75 10C8.75 9.60218 8.90804 9.22064 9.18934 8.93934C9.47064 8.65804 9.85218 8.5 10.25 8.5H13.75C14.1478 8.5 14.5294 8.65804 14.8107 8.93934C15.092 9.22064 15.25 9.60218 15.25 10C15.25 10.3978 15.092 10.7794 14.8107 11.0607C14.5294 11.342 14.1478 11.5 13.75 11.5Z" fill="black"/>
</svg>
