<svg width="24" height="24" viewBox="0 0 24 24" fill="none" xmlns="http://www.w3.org/2000/svg">
<path d="M18.3148 2.1783L15.898 1H8.102L5.6852 2.1783C5.17984 2.42471 4.75389 2.80817 4.45593 3.28496C4.15797 3.76174 3.99999 4.31267 4 4.8749V15H7V23H17V15H20V4.8749C20 4.31267 19.842 3.76174 19.5441 3.28496C19.2461 2.80817 18.8202 2.42471 18.3148 2.1783ZM13.6426 2.8C13.5222 3.13434 13.2976 3.42115 13.0019 3.61814C12.7061 3.81513 12.3549 3.91187 12 3.8941C11.644 3.91636 11.2904 3.82146 10.9934 3.6239C10.6963 3.42634 10.4721 3.13697 10.355 2.8H13.6426ZM18.2 13.2H17V7H15.2V21.2H12.9V12.9032H11.1V21.2H8.8V7H7V13.2H5.8V4.8749C5.80084 4.65019 5.86438 4.43018 5.98348 4.23962C6.10257 4.04906 6.27249 3.89553 6.4741 3.7963L8.5174 2.8H8.541C8.62615 3.54743 8.97509 4.23998 9.5251 4.7532C10.2069 5.36004 11.0881 5.69496 12.0009 5.6942C12.9137 5.69344 13.7943 5.35707 14.4751 4.7491C15.0236 4.23653 15.3722 3.54575 15.4587 2.8H15.4826L17.5259 3.7963C17.7275 3.89553 17.8974 4.04906 18.0165 4.23962C18.1356 4.43018 18.1992 4.65019 18.2 4.8749V13.2Z" fill="black"/>
</svg>
