<svg width="24" height="24" viewBox="0 0 24 24" fill="none" xmlns="http://www.w3.org/2000/svg">
<path d="M3 3V21H21V3H3ZM20.48 3.5L18.666 5.3125C16.8967 7.0779 14.4994 8.06937 12 8.06937C9.5006 8.06937 7.10328 7.0779 5.334 5.3125L3.5205 3.5H20.48ZM3.5 20.5V4.1863L4.9805 5.6663C5.90166 6.58867 6.99599 7.31996 8.20061 7.81815C9.40524 8.31633 10.6964 8.57161 12 8.5693C13.3037 8.57163 14.595 8.31635 15.7997 7.8181C17.0044 7.31986 18.0988 6.58849 19.02 5.666L20.5 4.186V20.5H3.5Z" fill="black"/>
</svg>
