<svg width="24" height="24" viewBox="0 0 24 24" fill="none" xmlns="http://www.w3.org/2000/svg">
<path d="M19.1667 4H7V5.4993H19.166C19.5196 5.4993 19.8587 5.63977 20.1088 5.88981C20.3588 6.13986 20.4993 6.47899 20.4993 6.8326V10H10.8125C5.0938 10 2 14 2 20H22V6.8333C22 6.08186 21.7015 5.3612 21.1701 4.82985C20.6388 4.29851 19.9181 4 19.1667 4ZM13.0467 16.2C12.8094 16.2 12.5774 16.1296 12.38 15.9978C12.1827 15.8659 12.0289 15.6785 11.938 15.4592C11.8472 15.2399 11.8235 14.9987 11.8698 14.7659C11.9161 14.5331 12.0303 14.3193 12.1982 14.1515C12.366 13.9836 12.5798 13.8694 12.8126 13.8231C13.0454 13.7768 13.2866 13.8005 13.5059 13.8913C13.7252 13.9822 13.9126 14.136 14.0445 14.3333C14.1763 14.5307 14.2467 14.7627 14.2467 15C14.2467 15.3182 14.1203 15.6234 13.8953 15.8485C13.6703 16.0735 13.3651 16.1999 13.0469 16.2H13.0467Z" fill="black"/>
</svg>
