<svg width="24" height="24" viewBox="0 0 24 24" fill="none" xmlns="http://www.w3.org/2000/svg">
<path d="M19.3333 4H7V4.9987H19.332C19.774 4.9987 20.1979 5.17428 20.5105 5.48683C20.8231 5.79938 20.9987 6.22328 20.9987 6.6653V10H10.8125C5.0938 10 2 14 2 20H22V6.6666C22 5.95936 21.719 5.2811 21.2189 4.78102C20.7188 4.28094 20.0405 4 19.3333 4ZM21 19H3.0525C3.3062 14.2992 5.864 11 10.8125 11H20.9987V14H21V19ZM10.9219 13.5C10.6252 13.5 10.3352 13.588 10.0885 13.7528C9.84187 13.9176 9.64961 14.1519 9.53608 14.426C9.42255 14.7001 9.39284 15.0017 9.45072 15.2926C9.5086 15.5836 9.65146 15.8509 9.86124 16.0607C10.071 16.2704 10.3383 16.4133 10.6293 16.4712C10.9202 16.5291 11.2218 16.4993 11.4959 16.3858C11.77 16.2723 12.0043 16.08 12.1691 15.8334C12.3339 15.5867 12.4219 15.2967 12.4219 15C12.4219 14.6022 12.2639 14.2206 11.9826 13.9393C11.7013 13.658 11.3197 13.5 10.9219 13.5ZM10.9219 15.7C10.7835 15.7 10.6481 15.6589 10.533 15.582C10.4179 15.5051 10.3282 15.3958 10.2752 15.2679C10.2222 15.14 10.2083 14.9992 10.2354 14.8634C10.2624 14.7276 10.329 14.6029 10.4269 14.505C10.5248 14.4071 10.6495 14.3405 10.7853 14.3134C10.9211 14.2864 11.0619 14.3003 11.1898 14.3533C11.3177 14.4063 11.427 14.496 11.5039 14.6111C11.5808 14.7262 11.6219 14.8616 11.6219 15C11.6217 15.1856 11.5479 15.3635 11.4166 15.4947C11.2854 15.626 11.1075 15.6998 10.9219 15.7ZM15.1719 13.5C14.8752 13.5 14.5852 13.588 14.3385 13.7528C14.0919 13.9176 13.8996 14.1519 13.7861 14.426C13.6725 14.7001 13.6428 15.0017 13.7007 15.2926C13.7586 15.5836 13.9015 15.8509 14.1112 16.0607C14.321 16.2704 14.5883 16.4133 14.8793 16.4712C15.1702 16.5291 15.4718 16.4993 15.7459 16.3858C16.02 16.2723 16.2543 16.08 16.4191 15.8334C16.5839 15.5867 16.6719 15.2967 16.6719 15C16.6719 14.6022 16.5139 14.2206 16.2326 13.9393C15.9513 13.658 15.5697 13.5 15.1719 13.5ZM15.1719 15.7C15.0335 15.7 14.8981 15.6589 14.783 15.582C14.6679 15.5051 14.5782 15.3958 14.5252 15.2679C14.4722 15.14 14.4583 14.9992 14.4854 14.8634C14.5124 14.7276 14.579 14.6029 14.6769 14.505C14.7748 14.4071 14.8995 14.3405 15.0353 14.3134C15.1711 14.2864 15.3119 14.3003 15.4398 14.3533C15.5677 14.4063 15.677 14.496 15.7539 14.6111C15.8308 14.7262 15.8719 14.8616 15.8719 15C15.8717 15.1856 15.7979 15.3635 15.6666 15.4947C15.5354 15.626 15.3575 15.6998 15.1719 15.7Z" fill="black"/>
</svg>
