<svg width="24" height="24" viewBox="0 0 24 24" fill="none" xmlns="http://www.w3.org/2000/svg">
<path d="M12 4.9667C12.5214 4.96609 13.0213 4.75869 13.39 4.38999C13.7587 4.0213 13.9661 3.52141 13.9667 3H10.0333C10.0339 3.52141 10.2413 4.0213 10.61 4.38999C10.9787 4.75869 11.4786 4.96609 12 4.9667ZM18.69 3.6221C17.9504 3.21404 17.1194 3.00001 16.2747 3H15.3334C15.3286 3.8809 14.9753 4.72407 14.3507 5.34526C13.7261 5.96645 12.881 6.31514 12 6.31514C11.1191 6.31514 10.274 5.96645 9.64944 5.34526C9.02484 4.72407 8.67153 3.8809 8.6667 3H7.7006C6.8517 2.99999 6.01678 3.21611 5.2745 3.628L1 6L3.1075 10.265L6 9.2916V19H7.1732C7.73512 19 8.28833 19.1388 8.78376 19.404C9.27918 19.6691 9.70148 20.0525 10.0132 20.52L11 22H13L13.9867 20.52C14.2984 20.0525 14.7207 19.6691 15.2161 19.4039C15.7116 19.1388 16.2648 19 16.8267 19H18V9.2916L20.8925 10.265L23 6L18.69 3.6221Z" fill="black"/>
</svg>
