<svg width="24" height="24" viewBox="0 0 24 24" fill="none" xmlns="http://www.w3.org/2000/svg">
<path d="M18.7019 3.6241C17.9614 3.21472 17.1291 2.99998 16.283 3H7.6965C6.8469 2.99999 6.01132 3.21647 5.2686 3.629L1 6L3.405 10.8433L6 9.8611V21H18V9.8611L20.9283 10.8433L23 6L18.7019 3.6241ZM13.9961 3.9667L12.1119 6.1019C12.1092 6.1049 12.0566 6.1647 12.0443 6.1647C12.032 6.1647 11.9794 6.2123 11.9767 6.2094L10.0034 3.9667H13.9961ZM20.358 9.6334L18.3066 8.9443L17.0333 8.5186V20.0333H6.9667V8.3725L5.6105 8.9787L3.858 9.5847L2.2771 6.396L5.7383 4.4739C6.33751 4.14162 7.01133 3.96709 7.6965 3.9667H8.7054L11.2567 6.8542C11.3503 6.95869 11.4649 7.04227 11.5929 7.09949C11.721 7.15671 11.8597 7.18629 12 7.18629C12.1403 7.18629 12.279 7.15671 12.4071 7.09949C12.5351 7.04227 12.6497 6.95869 12.7433 6.8542L15.2946 3.9667H16.283C16.9652 3.96715 17.6362 4.14019 18.2336 4.4697L21.7929 6.4366L20.358 9.6334Z" fill="black"/>
</svg>
