<svg width="24" height="24" viewBox="0 0 24 24" fill="none" xmlns="http://www.w3.org/2000/svg">
<path d="M13.6913 3H10.3245L12.0163 5.1826L13.6913 3ZM18.4171 4.0607L16.0507 3.2L13.5645 6.4078C13.3795 6.64649 13.1423 6.83969 12.8712 6.9726C12.6 7.10551 12.302 7.17461 12 7.17461C11.698 7.17461 11.4 7.10551 11.1288 6.9726C10.8577 6.83969 10.6205 6.64649 10.4355 6.4078L7.9493 3.2L5.5829 4.06C4.82584 4.33533 4.17186 4.837 3.70977 5.49686C3.24768 6.15673 2.99987 6.94283 3 7.7484V20H6V9H7.9V21H16.1V9H18V20H21V7.7484C21 6.94294 20.7521 6.15698 20.2901 5.49725C19.828 4.83752 19.1741 4.33597 18.4171 4.0607Z" fill="black"/>
</svg>
