<svg width="24" height="24" viewBox="0 0 24 24" fill="none" xmlns="http://www.w3.org/2000/svg">
<path d="M10.2161 11C10.0183 11 9.82498 11.0586 9.66053 11.1685C9.49608 11.2784 9.36791 11.4346 9.29222 11.6173C9.21653 11.8 9.19673 12.0011 9.23531 12.1951C9.2739 12.3891 9.36914 12.5673 9.50899 12.7071C9.64885 12.847 9.82703 12.9422 10.021 12.9808C10.215 13.0194 10.4161 12.9996 10.5988 12.9239C10.7815 12.8482 10.9377 12.72 11.0476 12.5556C11.1575 12.3911 11.2161 12.1978 11.2161 12C11.2161 11.7348 11.1107 11.4804 10.9232 11.2929C10.7357 11.1054 10.4813 11 10.2161 11ZM13.7839 11C13.5861 11 13.3928 11.0586 13.2283 11.1685C13.0639 11.2784 12.9357 11.4346 12.86 11.6173C12.7843 11.8 12.7645 12.0011 12.8031 12.1951C12.8417 12.3891 12.9369 12.5673 13.0768 12.7071C13.2166 12.847 13.3948 12.9422 13.5888 12.9808C13.7828 13.0194 13.9839 12.9996 14.1666 12.9239C14.3493 12.8482 14.5055 12.72 14.6154 12.5556C14.7253 12.3911 14.7839 12.1978 14.7839 12C14.7839 11.7348 14.6785 11.4804 14.491 11.2929C14.3035 11.1054 14.0491 11 13.7839 11ZM3 3V21H21V3H3ZM4.3666 4.3666H10.2775C8.8346 4.69307 7.51366 5.42151 6.46758 6.46758C5.42151 7.51366 4.69307 8.8346 4.3666 10.2775V4.3666ZM4.3666 19.6333V13.7225C4.69306 15.1654 5.42147 16.4863 6.46751 17.5323C7.51355 18.5784 8.83444 19.3068 10.2773 19.6333H4.3666ZM5.537 12C5.53698 10.7217 5.91601 9.47217 6.62616 8.40932C7.33632 7.34647 8.34569 6.51808 9.52665 6.0289C10.7076 5.53971 12.0071 5.41171 13.2608 5.66107C14.5145 5.91044 15.6661 6.52597 16.57 7.42983C17.4739 8.3337 18.0894 9.48529 18.3388 10.739C18.5882 11.9927 18.4602 13.2922 17.971 14.4732C17.4819 15.6541 16.6535 16.6635 15.5907 17.3737C14.5278 18.0838 13.2783 18.4629 12 18.4629C10.2865 18.461 8.64369 17.7795 7.43205 16.5679C6.22041 15.3563 5.53888 13.7135 5.537 12ZM19.6334 19.6333H13.7227C15.1656 19.3068 16.4865 18.5784 17.5325 17.5323C18.5785 16.4863 19.3069 15.1654 19.6334 13.7225V19.6333ZM19.6334 10.2775C19.3069 8.8346 18.5785 7.51366 17.5324 6.46758C16.4863 5.42151 15.1654 4.69307 13.7225 4.3666H19.6334V10.2775Z" fill="black"/>
</svg>
