<svg width="24" height="24" viewBox="0 0 24 24" fill="none" xmlns="http://www.w3.org/2000/svg">
<path d="M5.00001 19.6666H6.62001C7.27834 19.6753 7.92237 19.8599 8.48528 20.2014C9.04819 20.5429 9.50948 21.0287 9.82131 21.6086L10.6 23H13.4L14.1791 21.6086C14.4909 21.0287 14.9522 20.5429 15.5151 20.2014C16.0781 19.8599 16.7221 19.6753 17.3804 19.6666H19V15.3333H5.00001V19.6666ZM17.6124 4.5458L17.53 4.4587V1H15.8033V4.1612L14.6441 4.9882C13.9924 5.46743 13.4639 6.0947 13.1023 6.8183C12.7407 7.5419 12.5562 8.3411 12.5641 9.15H11.4361C11.444 8.3411 11.2595 7.54191 10.8979 6.81831C10.5363 6.09471 10.0078 5.46744 9.35611 4.9882L8.19671 4.1611V1H6.47001V4.4587L6.38771 4.5458C5.48933 5.51194 4.99306 6.78423 5.00001 8.1035V11H19V8.1035C19.0069 6.78425 18.5107 5.51197 17.6124 4.5458Z" fill="black"/>
</svg>
