<svg width="24" height="24" viewBox="0 0 24 24" fill="none" xmlns="http://www.w3.org/2000/svg">
<path d="M20.5145 11.4832L12 8V3H9L6.2916 4H2V20.2656H4V19H5.8V20.2656H7.8V19H9.6V20.2656H11.6V19H13.4V20.2656H15.4V19H17.2V20.2656H19.2V19H21V20.2656H23V15.1856C23 14.3915 22.7637 13.6153 22.321 12.9559C21.8784 12.2966 21.2495 11.7839 20.5145 11.4832ZM3.85 17.15V5.85H6.6223L9.3306 4.85H10.15V6.1938H9.2021C8.96341 6.1938 8.73449 6.28862 8.5657 6.4574C8.39692 6.62619 8.3021 6.85511 8.3021 7.0938C8.3021 7.33249 8.39692 7.56141 8.5657 7.7302C8.73449 7.89898 8.96341 7.9938 9.2021 7.9938H10.15V8.962L9.6357 9.4537C9.46322 9.6187 9.36335 9.84547 9.35806 10.0841C9.35277 10.3227 9.4425 10.5537 9.6075 10.7262C9.7725 10.8987 9.99927 10.9986 10.2379 11.0038C10.4765 11.0091 10.7075 10.9194 10.88 10.7544L11.7691 9.9044L12.8451 10.3444L12.5016 11.1844C12.4112 11.4053 12.4123 11.6531 12.5046 11.8732C12.5969 12.0934 12.7729 12.2678 12.9938 12.3582C13.2147 12.4486 13.4625 12.4475 13.6826 12.3552C13.9028 12.2629 14.0772 12.0869 14.1676 11.866L14.5111 11.026L15.8974 11.5931L15.5831 12.3607C15.5383 12.4701 15.5155 12.5872 15.516 12.7054C15.5165 12.8236 15.5402 12.9406 15.5859 13.0496C15.6316 13.1587 15.6983 13.2576 15.7822 13.3409C15.8661 13.4241 15.9656 13.49 16.075 13.5348C16.2959 13.6253 16.5437 13.6243 16.7639 13.532C16.873 13.4863 16.9719 13.4196 17.0552 13.3357C17.1384 13.2518 17.2043 13.1523 17.2491 13.0429L17.5636 12.2747L19.8142 13.1954C20.2099 13.3561 20.5485 13.6315 20.7865 13.9861C21.0245 14.3407 21.1512 14.7583 21.1501 15.1854V17.15H3.85Z" fill="black"/>
</svg>
