<svg width="24" height="24" viewBox="0 0 24 24" fill="none" xmlns="http://www.w3.org/2000/svg">
<path d="M18.7137 3.626C17.9723 3.2154 17.1387 2.99999 16.2912 3H7.6923C6.8419 2.99994 6.00555 3.21677 5.2623 3.63L1 6L3.7025 11.4216L6 10.4305V21H18V10.4305L20.9642 11.4216L23 6L18.7137 3.626ZM13.8663 4.4333C13.8059 4.88544 13.5833 5.30027 13.2401 5.6007C12.8968 5.90113 12.4562 6.06673 12 6.06673C11.5438 6.06673 11.1032 5.90113 10.7599 5.6007C10.4167 5.30027 10.1941 4.88544 10.1337 4.4333H13.8663ZM20.0782 9.615L18.4537 9.0709L16.5667 8.4409V19.5667H7.4333V8.1491L5.38 9.14L4.3535 9.5182L2.8947 6.5861L5.96 4.8826C6.49016 4.58832 7.08645 4.43371 7.6928 4.4333H8.6936C8.75652 5.26714 9.13217 6.04643 9.74531 6.61504C10.3584 7.18365 11.1638 7.4996 12 7.4996C12.8362 7.4996 13.6416 7.18365 14.2547 6.61504C14.8678 6.04643 15.2435 5.26714 15.3064 4.4333H16.2912C16.8955 4.43371 17.4897 4.58722 18.0186 4.8795L21.2457 6.6662L20.0782 9.615Z" fill="black"/>
</svg>
