<svg width="24" height="24" viewBox="0 0 24 24" fill="none" xmlns="http://www.w3.org/2000/svg">
<path d="M12 12.5911C11.777 12.5911 11.5589 12.6572 11.3735 12.7812C11.188 12.9051 11.0435 13.0812 10.9581 13.2872C10.8728 13.4933 10.8504 13.7201 10.894 13.9388C10.9375 14.1576 11.0449 14.3585 11.2026 14.5162C11.3603 14.6739 11.5612 14.7813 11.78 14.8248C11.9987 14.8683 12.2255 14.846 12.4315 14.7607C12.6376 14.6753 12.8137 14.5308 12.9376 14.3453C13.0616 14.1599 13.1277 13.9418 13.1277 13.7188C13.1277 13.4197 13.0089 13.1329 12.7974 12.9214C12.5859 12.7099 12.2991 12.5911 12 12.5911ZM20.8789 4L20.7019 5.6821H19.749C18.8465 5.69494 17.9703 5.98753 17.2412 6.5195C16.8546 6.83275 16.3721 7.00368 15.8745 7.00368C15.3769 7.00368 14.8944 6.83275 14.5078 6.5195C13.7838 5.97817 12.904 5.68564 12 5.68564C11.096 5.68564 10.2162 5.97817 9.49219 6.5195C9.098 6.81815 8.62034 6.98615 8.12599 7C7.63139 6.98628 7.15342 6.81848 6.75879 6.52C6.02985 5.98764 5.15354 5.69485 4.25099 5.6821H3.29809L3.12109 4H1.20999L2.99999 21H21L22.79 4H20.8789ZM19.29 19.1H4.70999L3.50869 7.6821H4.25099C4.74576 7.69581 5.22383 7.864 5.61819 8.1631C6.34741 8.6948 7.22361 8.98721 8.12599 9C9.02813 8.98708 9.90402 8.69449 10.6328 8.1626C11.0194 7.84877 11.5022 7.67752 12.0001 7.67761C12.498 7.6777 12.9807 7.84913 13.3672 8.1631C14.0902 8.70639 14.9702 9.00009 15.8746 9C16.779 8.99991 17.6589 8.70603 18.3818 8.1626C18.7754 7.86215 19.254 7.69411 19.749 7.6826H20.4913L19.29 19.1Z" fill="black"/>
</svg>
