<svg width="24" height="24" viewBox="0 0 24 24" fill="none" xmlns="http://www.w3.org/2000/svg">
<path d="M12 11C11.8022 11 11.6089 11.0586 11.4444 11.1685C11.28 11.2784 11.1518 11.4346 11.0761 11.6173C11.0004 11.8 10.9806 12.0011 11.0192 12.1951C11.0578 12.3891 11.153 12.5673 11.2929 12.7071C11.4327 12.847 11.6109 12.9422 11.8049 12.9808C11.9989 13.0194 12.2 12.9996 12.3827 12.9239C12.5654 12.8482 12.7216 12.72 12.8315 12.5556C12.9414 12.3911 13 12.1978 13 12C13 11.7348 12.8946 11.4804 12.7071 11.2929C12.5196 11.1054 12.2652 11 12 11ZM15.5676 11C15.3698 11 15.1765 11.0586 15.012 11.1685C14.8476 11.2784 14.7194 11.4346 14.6437 11.6173C14.568 11.8 14.5482 12.0011 14.5868 12.1951C14.6254 12.3891 14.7206 12.5673 14.8605 12.7071C15.0003 12.847 15.1785 12.9422 15.3725 12.9808C15.5665 13.0194 15.7676 12.9996 15.9503 12.9239C16.133 12.8482 16.2892 12.72 16.3991 12.5556C16.509 12.3911 16.5676 12.1978 16.5676 12C16.5676 11.7348 16.4622 11.4804 16.2747 11.2929C16.0872 11.1054 15.8328 11 15.5676 11ZM8.5261 11C8.32832 11 8.13498 11.0586 7.97053 11.1685C7.80608 11.2784 7.67791 11.4346 7.60222 11.6173C7.52653 11.8 7.50673 12.0011 7.54531 12.1951C7.5839 12.3891 7.67914 12.5673 7.81899 12.7071C7.95885 12.847 8.13703 12.9422 8.33101 12.9808C8.52499 13.0194 8.72606 12.9996 8.90878 12.9239C9.09151 12.8482 9.24769 12.72 9.35757 12.5556C9.46745 12.3911 9.5261 12.1978 9.5261 12C9.5261 11.7348 9.42074 11.4804 9.23321 11.2929C9.04567 11.1054 8.79132 11 8.5261 11ZM3 3V21H21V3H3ZM3.5 3.5H9.063C7.77542 3.94621 6.60583 4.67867 5.64225 5.64225C4.67867 6.60583 3.94621 7.77542 3.5 9.063V3.5ZM3.5 20.5V14.937C3.94621 16.2246 4.67867 17.3942 5.64225 18.3578C6.60583 19.3213 7.77542 20.0538 9.063 20.5H3.5ZM20.5 20.5H14.937C16.2246 20.0538 17.3942 19.3213 18.3578 18.3578C19.3213 17.3942 20.0538 16.2246 20.5 14.937V20.5ZM12 20.5C10.3189 20.5 8.67547 20.0015 7.27765 19.0675C5.87984 18.1335 4.79037 16.806 4.14702 15.2528C3.50368 13.6996 3.33535 11.9906 3.66333 10.3417C3.9913 8.69289 4.80085 7.17834 5.98959 5.98959C7.17834 4.80085 8.69289 3.9913 10.3417 3.66333C11.9906 3.33535 13.6996 3.50368 15.2528 4.14702C16.806 4.79037 18.1335 5.87984 19.0675 7.27765C20.0015 8.67547 20.5 10.3189 20.5 12C20.4974 14.2535 19.601 16.414 18.0075 18.0075C16.414 19.601 14.2535 20.4974 12 20.5ZM20.5 9.063C20.0538 7.77542 19.3213 6.60583 18.3578 5.64225C17.3942 4.67867 16.2246 3.94621 14.937 3.5H20.5V9.063Z" fill="black"/>
</svg>
