<svg width="24" height="24" viewBox="0 0 24 24" fill="none" xmlns="http://www.w3.org/2000/svg">
<path d="M12 2.5209C12.2036 2.53395 12.4077 2.50552 12.6 2.43735C12.7922 2.36917 12.9687 2.26267 13.1186 2.12429C13.2685 1.98591 13.3887 1.81853 13.472 1.6323C13.5553 1.44608 13.5999 1.24488 13.6031 1.0409V1H10.3969V1.0408C10.4037 1.24366 10.4507 1.44316 10.5352 1.62771C10.6197 1.81226 10.74 1.9782 10.8891 2.11589C11.0382 2.25358 11.2132 2.36028 11.4039 2.42981C11.5946 2.49933 11.7972 2.5303 12 2.5209ZM17.3212 1.97L14.5365 1V1.0408C14.5331 1.36724 14.4643 1.68968 14.334 1.98904C14.2038 2.2884 14.0149 2.5586 13.7784 2.78363C13.5418 3.00866 13.2626 3.18395 12.9571 3.29913C12.6517 3.41432 12.3262 3.46705 12 3.4542C11.6745 3.46409 11.3503 3.40932 11.0462 3.29306C10.742 3.1768 10.4639 3.00137 10.2281 2.77691C9.99216 2.55246 9.80313 2.28344 9.67191 1.98544C9.54069 1.68743 9.46988 1.36636 9.46359 1.0408V1L6.68199 1.97C6.09434 2.17511 5.58502 2.55792 5.22463 3.0654C4.86424 3.57287 4.67062 4.17988 4.67059 4.8023V15H7.17059V6H7.99999V23H11.6055V14H12.4191V23H16V6H16.8334V15H19.3334V4.8029C19.3334 4.18028 19.1397 3.57307 18.7792 3.06546C18.4186 2.55786 17.9091 2.17501 17.3212 1.97Z" fill="black"/>
</svg>
