<svg width="24" height="24" viewBox="0 0 24 24" fill="none" xmlns="http://www.w3.org/2000/svg">
<path d="M10.1284 8.00338L12 6.13178L13.8716 8.00338L15.0034 6.87158L13.1318 4.99998L15.0034 3.12838L13.8716 1.99658L12 3.86818L10.1284 1.99658L8.9966 3.12838L10.8682 4.99998L8.9966 6.87158L10.1284 8.00338ZM20.5 10.05C19.8871 10.0517 19.2829 10.1952 18.7347 10.4693C18.1865 10.7434 17.7091 11.1407 17.34 11.63L16.5 12.75L15.66 11.63C15.292 11.1394 14.8149 10.7413 14.2664 10.4671C13.7179 10.1929 13.1131 10.0502 12.4999 10.0502C11.8867 10.0503 11.2819 10.1931 10.7334 10.4674C10.185 10.7417 9.70789 11.1399 9.34 11.6305L8.5773 12.6474L8.1145 12.0304C7.65234 11.4167 7.05424 10.9185 6.36716 10.5749C5.68008 10.2313 4.92271 10.0516 4.1545 10.0499H1.05V19.9499H3.5C4.11294 19.9483 4.71721 19.8049 5.26544 19.5308C5.81368 19.2567 6.291 18.8593 6.66 18.3699L7.5 17.2499L8.34 18.3699C8.70793 18.8605 9.18503 19.2586 9.73351 19.5329C10.282 19.8071 10.8868 19.9499 11.5 19.9499C12.1132 19.9499 12.718 19.8071 13.2665 19.5329C13.815 19.2586 14.2921 18.8605 14.66 18.3699L15.4227 17.3529L15.8855 17.9705C16.3478 18.5839 16.9459 19.0819 17.633 19.4253C18.3201 19.7688 19.0774 19.9484 19.8455 19.95H22.95V10.05H20.5ZM5.1406 17.23C4.94896 17.484 4.70113 17.6902 4.41651 17.8325C4.13188 17.9747 3.81819 18.0492 3.5 18.05H3V11.95H4.1543C4.6276 11.9511 5.0942 12.0618 5.51753 12.2735C5.94087 12.4852 6.30942 12.792 6.5943 13.17L7.39 14.2305L5.1406 17.23ZM13.1406 17.23C12.9496 17.4847 12.7019 17.6914 12.4171 17.8338C12.1324 17.9762 11.8184 18.0503 11.5 18.0503C11.1816 18.0503 10.8676 17.9762 10.5829 17.8338C10.2981 17.6914 10.0504 17.4847 9.8594 17.23L8.6874 15.6673L10.8594 12.771C11.0504 12.5163 11.2981 12.3096 11.5828 12.1672C11.8676 12.0249 12.1815 11.9507 12.4999 11.9507C12.8182 11.9506 13.1322 12.0247 13.417 12.167C13.7018 12.3093 13.9495 12.5159 14.1406 12.7705L15.3127 14.3338L13.1406 17.23ZM21 18.05H19.8457C19.3724 18.0488 18.9058 17.938 18.4825 17.7263C18.0592 17.5147 17.6906 17.2079 17.4057 16.83L16.61 15.77L18.859 12.7708C19.0506 12.5166 19.2985 12.3102 19.5832 12.1678C19.8679 12.0254 20.1817 11.9508 20.5 11.95H21V18.05Z" fill="black"/>
</svg>
