<svg width="24" height="24" viewBox="0 0 24 24" fill="none" xmlns="http://www.w3.org/2000/svg">
<path d="M3 3V21H21V3H3ZM19.6333 10.7614C19.3732 9.1593 18.6157 7.67962 17.468 6.53193C16.3204 5.38423 14.8407 4.6267 13.2386 4.3666H19.6333V10.7614ZM10.7614 4.3666C9.1593 4.6267 7.67964 5.38423 6.53196 6.53193C5.38429 7.67962 4.62677 9.1593 4.3667 10.7614V4.3666H10.7614ZM4.3667 13.2386C4.6268 14.8406 5.38427 16.3202 6.53186 17.4679C7.67945 18.6155 9.159 19.3731 10.761 19.6333H4.3667V13.2386ZM13.239 19.6333C14.841 19.3731 16.3205 18.6155 17.4681 17.4679C18.6157 16.3202 19.3732 14.8406 19.6333 13.2386V19.6333H13.239Z" fill="black"/>
</svg>
