<svg width="24" height="24" viewBox="0 0 24 24" fill="none" xmlns="http://www.w3.org/2000/svg">
<path d="M20.8352 4L20.5 6.6823H19.749C19.0502 6.69376 18.3727 6.92418 17.8118 7.3411C17.2564 7.76835 16.5753 8.00001 15.8745 8.00001C15.1738 8.00001 14.4927 7.76835 13.9373 7.3411C13.3756 6.92565 12.6985 6.6954 12 6.6823C11.3015 6.6954 10.6244 6.92565 10.0627 7.3411C9.50109 7.75663 8.824 7.98693 8.1255 8C7.42697 7.98691 6.74986 7.75662 6.1882 7.3411C5.62655 6.92566 4.94948 6.6954 4.251 6.6823H3.5L3.1648 4H1.25L3 18H21L22.75 4H20.8352ZM3 21H21V19.2H3V21Z" fill="black"/>
</svg>
