<svg width="24" height="24" viewBox="0 0 24 24" fill="none" xmlns="http://www.w3.org/2000/svg">
<path d="M21 7V12.6693C20.84 12.6768 19.572 12.7005 19.4205 12.7393C18.3987 12.8141 17.4153 13.16 16.5716 13.7413C15.7279 14.3225 15.0544 15.1182 14.6205 16.0463C14.5605 16.1454 14.1795 17.037 14.134 17.1463L13.5688 18.5027L13.0988 18.6669H10.5L9.7445 16.8536C9.7131 16.7783 9.4721 16.2109 9.4338 16.1403C9.00608 15.1934 8.33195 14.3788 7.48183 13.7815C6.63171 13.1842 5.63679 12.8261 4.601 12.7447C4.4429 12.7028 3.1677 12.6772 3 12.6693V7H21ZM22 6H2V13.6667H4C4.98712 13.6667 5.95216 13.9589 6.77351 14.5064C7.59485 15.054 8.23573 15.8324 8.6154 16.7436L9.8333 19.6667H14.1667L15.3846 16.7436C15.7643 15.8324 16.4052 15.054 17.2265 14.5064C18.0478 13.9589 19.0129 13.6667 20 13.6667H22V6Z" fill="black"/>
</svg>
