<svg width="24" height="24" viewBox="0 0 24 24" fill="none" xmlns="http://www.w3.org/2000/svg">
<path d="M21.7914 3L21.5607 4.9609H21.2C20.2683 4.9731 19.3641 5.27782 18.615 5.832C18.0399 6.28234 17.3305 6.52703 16.6 6.52703C15.8695 6.52703 15.1601 6.28234 14.585 5.832C13.8407 5.26931 12.9331 4.96486 12 4.96486C11.0669 4.96486 10.1593 5.26931 9.41501 5.832C8.8311 6.26573 8.12718 6.50797 7.40001 6.5254C6.67309 6.50779 5.96945 6.26557 5.38571 5.832C4.63498 5.28115 3.73183 4.97679 2.80081 4.9609H2.43931L2.20861 3H1.23541L3.00001 18H21L22.7646 3H21.7914ZM20.14 17.0333H3.86001L2.55691 5.9609H2.80081C3.52784 5.97842 4.23161 6.22064 4.81541 6.6543C5.56609 7.20505 6.46911 7.5094 7.40001 7.5254C8.33105 7.50948 9.23423 7.20513 9.98501 6.6543C10.5614 6.2071 11.2701 5.96437 11.9996 5.96437C12.7291 5.96437 13.4379 6.2071 14.0142 6.6543C14.7577 7.21943 15.6658 7.5254 16.5997 7.5254C17.5335 7.5254 18.4417 7.21943 19.1851 6.6543C19.7675 6.2177 20.4723 5.97514 21.2 5.9609H21.4429L20.14 17.0333ZM3.00001 21H21V20.0667H3.00001V21Z" fill="black"/>
</svg>
