<svg width="24" height="24" viewBox="0 0 24 24" fill="none" xmlns="http://www.w3.org/2000/svg">
<path d="M14.6279 3H9.3727L12.0013 6.0119L14.6279 3ZM17.9721 4.1888L15.2156 3.0862L12.3756 6.3407C12.3288 6.39428 12.2711 6.43723 12.2064 6.46666C12.1416 6.49609 12.0713 6.51131 12.0002 6.51131C11.9291 6.51131 11.8588 6.49609 11.794 6.46666C11.7293 6.43723 11.6716 6.39428 11.6248 6.3407L8.7848 3.0862L6.028 4.1888C5.42935 4.42825 4.91619 4.84158 4.55471 5.37548C4.19323 5.90938 4.00002 6.53934 4 7.1841V20H7V9H7.5V21H16.5V9H17V20H20V7.1841C20 6.53935 19.8068 5.90939 19.4454 5.37549C19.0839 4.84159 18.5707 4.42825 17.9721 4.1888Z" fill="black"/>
</svg>
