<svg width="24" height="24" viewBox="0 0 24 24" fill="none" xmlns="http://www.w3.org/2000/svg">
<path d="M20.8044 11.4464L16.4731 10.3544L14.9944 9.3751L13.8252 11.1406C13.7877 11.1936 13.7311 11.2298 13.6673 11.2418C13.6035 11.2538 13.5376 11.2405 13.4834 11.2047C13.4293 11.1689 13.3911 11.1135 13.3771 11.0502C13.3631 10.9868 13.3742 10.9205 13.4082 10.8652L14.5782 9.0992L12.9045 7.991L11.6807 9.8389C11.6432 9.89185 11.5866 9.92815 11.5228 9.94011C11.459 9.95208 11.3931 9.93877 11.3389 9.90301C11.2848 9.86725 11.2466 9.81183 11.2326 9.74847C11.2186 9.68512 11.2297 9.61879 11.2637 9.5635L12.4879 7.715L11.4083 7H9.9683L7.8882 8.5236C7.33458 8.92913 6.66978 9.15488 5.98369 9.17033C5.29761 9.18578 4.62332 8.99019 4.052 8.61L2.4161 7.5207L1 7.5382V17H7V15.6666L10.6562 17H23V14.2642C23 13.6171 22.784 12.9885 22.3863 12.4781C21.9885 11.9677 21.4318 11.6046 20.8044 11.4464Z" fill="black"/>
</svg>
