<svg width="24" height="24" viewBox="0 0 24 24" fill="none" xmlns="http://www.w3.org/2000/svg">
<path d="M21.8174 4L21.6111 5.9609H21.2C20.2683 5.9731 19.364 6.27782 18.615 6.832C18.0397 7.28187 17.3303 7.52628 16.6 7.52628C15.8697 7.52628 15.1603 7.28187 14.585 6.832C13.8407 6.26931 12.9331 5.96486 12 5.96486C11.0669 5.96486 10.1593 6.26931 9.41499 6.832C8.83108 7.26573 8.12716 7.50797 7.39999 7.5254C6.67307 7.50779 5.96943 7.26557 5.38569 6.832C4.63496 6.28115 3.73181 5.97679 2.80079 5.9609H2.38889L2.18259 4H1.20999L2.99999 21H21L22.79 4H21.8174ZM20.13 20.0333H3.86999L2.49429 6.9609H2.80079C3.52782 6.97842 4.23159 7.22064 4.81539 7.6543C5.56607 8.20505 6.46909 8.5094 7.39999 8.5254C8.33103 8.50948 9.23421 8.20513 9.98499 7.6543C10.5613 7.2071 11.2701 6.96437 11.9996 6.96437C12.7291 6.96437 13.4378 7.2071 14.0142 7.6543C14.7576 8.21943 15.6658 8.5254 16.5996 8.5254C17.5335 8.5254 18.4416 8.21943 19.1851 7.6543C19.7675 7.2177 20.4723 6.97514 21.2 6.9609H21.5055L20.13 20.0333Z" fill="black"/>
</svg>
