<svg width="24" height="24" viewBox="0 0 24 24" fill="none" xmlns="http://www.w3.org/2000/svg">
<path d="M12 2L1.453 22H22.547L12 2ZM12 4.1438L20.8891 21H3.1109L12 4.1438ZM14.0094 17.0455V12.8506H13.1426V17.783H16.254V17.0455H14.0094ZM8.7215 14.4565V16.1771C8.72149 16.388 8.76302 16.5968 8.84371 16.7916C8.9244 16.9865 9.04269 17.1635 9.1918 17.3126C9.34092 17.4617 9.51794 17.58 9.71277 17.6607C9.90761 17.7414 10.1164 17.7829 10.3273 17.7829H11.8789V17.0455H10.3724C10.16 17.0455 9.95628 16.9611 9.80608 16.8109C9.65588 16.6607 9.5715 16.457 9.5715 16.2446V14.3846C9.5715 14.1722 9.65588 13.9685 9.80608 13.8183C9.95628 13.6681 10.16 13.5837 10.3724 13.5837H11.8789V12.8507H10.3273C9.90142 12.8507 9.49298 13.0199 9.19183 13.321C8.89068 13.6222 8.7215 14.0306 8.7215 14.4565Z" fill="black"/>
</svg>
