<svg width="24" height="24" viewBox="0 0 24 24" fill="none" xmlns="http://www.w3.org/2000/svg">
<path d="M20.8516 3L20.6537 4.6821H19.749C18.8466 4.69494 17.9703 4.98753 17.2412 5.5195C16.8547 5.83292 16.3722 6.00396 15.8745 6.00396C15.3769 6.00396 14.8944 5.83292 14.5078 5.5195C13.7838 4.97817 12.904 4.68564 12 4.68564C11.096 4.68564 10.2162 4.97817 9.49221 5.5195C9.09803 5.81815 8.62036 5.98615 8.12601 6C7.63141 5.98628 7.15344 5.81848 6.75881 5.52C6.02987 4.98764 5.15356 4.69485 4.25101 4.6821H3.34631L3.14841 3H1.23541L3.00001 18H21L22.7646 3H20.8516ZM19.31 16.1H4.69001L3.58151 6.6821H4.25151C4.74628 6.69581 5.22435 6.864 5.61871 7.1631C6.34779 7.69471 7.2238 7.9871 8.12601 8C9.02815 7.98708 9.90404 7.69449 10.6328 7.1626C11.0193 6.8487 11.5021 6.67736 12 6.67736C12.4979 6.67736 12.9807 6.8487 13.3672 7.1626C14.0902 7.70596 14.9701 7.99975 15.8745 7.99975C16.7789 7.99975 17.6588 7.70596 18.3818 7.1626C18.7753 6.86197 19.254 6.69376 19.749 6.6821H20.419L19.31 16.1ZM3.00001 21H21V19.2H3.00001V21Z" fill="black"/>
</svg>
