<svg width="24" height="24" viewBox="0 0 24 24" fill="none" xmlns="http://www.w3.org/2000/svg">
<path d="M12 2C10.0222 2 8.08879 2.58649 6.4443 3.6853C4.79981 4.78412 3.51809 6.3459 2.76121 8.17317C2.00433 10.0004 1.8063 12.0111 2.19215 13.9509C2.578 15.8907 3.53041 17.6725 4.92894 19.0711C6.32746 20.4696 8.10929 21.422 10.0491 21.8079C11.9889 22.1937 13.9996 21.9957 15.8268 21.2388C17.6541 20.4819 19.2159 19.2002 20.3147 17.5557C21.4135 15.9112 22 13.9778 22 12C21.9971 9.34874 20.9426 6.8069 19.0678 4.93218C17.1931 3.05745 14.6513 2.00294 12 2ZM12 21.5C10.1211 21.5 8.28435 20.9428 6.72209 19.899C5.15982 18.8551 3.94218 17.3714 3.22315 15.6355C2.50412 13.8996 2.31598 11.9895 2.68254 10.1466C3.0491 8.30382 3.95389 6.61108 5.28249 5.28249C6.61109 3.95389 8.30383 3.0491 10.1466 2.68254C11.9895 2.31598 13.8996 2.50411 15.6355 3.22314C17.3714 3.94218 18.8551 5.15982 19.899 6.72208C20.9428 8.28435 21.5 10.1211 21.5 12C21.4971 14.5187 20.4953 16.9334 18.7144 18.7144C16.9334 20.4953 14.5187 21.4971 12 21.5ZM11.4653 9L9.4906 15H10.0945L10.7228 13.0338H13.2772L13.9055 15H14.5094L12.5347 9H11.4653ZM10.8826 12.5338L11.852 9.5H12.148L13.1174 12.5336L10.8826 12.5338Z" fill="black"/>
</svg>
