<svg width="24" height="24" viewBox="0 0 24 24" fill="none" xmlns="http://www.w3.org/2000/svg">
<path d="M3 3V21H10.75L11.75 11.6666H12.25L13.25 21H21V3H3ZM20.0333 8.1416H18.7471C18.1724 8.14083 17.6215 7.91214 17.2153 7.5057C16.809 7.09927 16.5805 6.54827 16.58 5.9736V3.9667H20.0337L20.0333 8.1416ZM7.42 3.9667V5.9736C7.41947 6.54834 7.19096 7.0994 6.7846 7.50585C6.37824 7.9123 5.82724 8.14094 5.2525 8.1416H3.9667V3.9667H7.42ZM14.11 20.0333L13.21 11.5549L13.1108 10.7H10.8892L10.7899 11.5549L9.8892 20.0333H3.9667V9.1084H5.2529C6.08394 9.10737 6.88064 8.77675 7.46822 8.18907C8.05581 7.60139 8.3863 6.80464 8.3872 5.9736V3.9667H15.6128V5.9736C15.6137 6.80464 15.9442 7.60139 16.5318 8.18907C17.1194 8.77675 17.9161 9.10737 18.7471 9.1084H20.0333V20.0333H14.11Z" fill="black"/>
</svg>
