<svg width="24" height="24" viewBox="0 0 24 24" fill="none" xmlns="http://www.w3.org/2000/svg">
<path d="M18.7255 3.628C17.9832 3.21611 17.1483 2.99999 16.2994 3H7.6882C6.83724 3 6.00037 3.21719 5.2568 3.631L1 6L4 12L6 11V21H18V11L21 12L23 6L18.7255 3.628ZM19.7983 9.5967L16.1 8.3639V19.1H7.9V7.9257L5.15 9.3006L4.8494 9.4506L3.5124 6.7762L6.1807 5.2912C6.64185 5.03497 7.16064 4.90034 7.6882 4.9H16.2994C16.8257 4.90031 17.3433 5.0343 17.8036 5.2894L20.6986 6.8958L19.7983 9.5967ZM14.2823 9.0467C14.2831 8.74823 14.2207 8.45298 14.0994 8.1803C13.978 7.90763 13.8003 7.66371 13.578 7.46454C13.3557 7.26537 13.0938 7.11546 12.8095 7.02465C12.5252 6.93383 12.2249 6.90417 11.9283 6.9376C11.6135 6.90642 11.2958 6.94463 10.9974 7.04956C10.699 7.15448 10.4273 7.32356 10.2013 7.54488C9.97534 7.7662 9.80065 8.03438 9.68956 8.33052C9.57846 8.62667 9.53366 8.94357 9.5583 9.2589C9.5583 9.2589 10.9415 9.2648 11.1761 9.2648C11.1698 9.16163 11.1841 9.05824 11.2183 8.96068C11.2525 8.86312 11.3057 8.77336 11.375 8.69664C11.4443 8.61993 11.5282 8.5578 11.6217 8.51391C11.7153 8.47001 11.8167 8.44522 11.92 8.441C12.0121 8.43873 12.1038 8.45476 12.1897 8.48816C12.2756 8.52155 12.354 8.57166 12.4204 8.63557C12.4868 8.69948 12.5399 8.77593 12.5766 8.86049C12.6132 8.94505 12.6327 9.03604 12.634 9.1282C12.634 10.1525 9.7382 11.9797 9.7382 11.9797V13.49H14.24V11.8759H11.92C12.4952 11.4588 14.2823 10.417 14.2823 9.0466V9.0467Z" fill="black"/>
</svg>
