<svg width="24" height="24" viewBox="0 0 24 24" fill="none" xmlns="http://www.w3.org/2000/svg">
<path d="M21.8174 4L21.5352 6.6822H20.6818C19.9102 6.69037 19.1571 6.91899 18.5112 7.3411C17.8689 7.77062 17.1135 7.99989 16.3408 7.99989C15.5681 7.99989 14.8127 7.77062 14.1704 7.3411C13.5281 6.91152 12.7727 6.68221 12 6.68221C11.2273 6.68221 10.4719 6.91152 9.82959 7.3411C9.18303 7.76164 8.43042 7.99011 7.65919 8C6.8879 7.99019 6.13522 7.76174 5.48859 7.3412C4.84216 6.92069 4.08969 6.69221 3.31859 6.6823H2.46479L2.18259 4H1.20999L2.99999 21H21L22.79 4H21.8174ZM9.85939 14.8464C9.63635 14.8464 9.41832 14.7803 9.23286 14.6563C9.04741 14.5324 8.90287 14.3563 8.81752 14.1502C8.73217 13.9442 8.70985 13.7174 8.75337 13.4987C8.79689 13.2799 8.9043 13.079 9.06202 12.9213C9.21974 12.7636 9.42069 12.6562 9.63945 12.6127C9.85821 12.5692 10.085 12.5915 10.291 12.6769C10.4971 12.7622 10.6732 12.9068 10.7971 13.0923C10.921 13.2777 10.9871 13.4958 10.9871 13.7188C10.9871 13.8669 10.9579 14.0135 10.9012 14.1503C10.8446 14.2872 10.7615 14.4115 10.6568 14.5162C10.5521 14.6209 10.4278 14.7039 10.2909 14.7606C10.1541 14.8173 10.0075 14.8464 9.85939 14.8464ZM14.1406 14.8464C13.9175 14.8464 13.6995 14.7803 13.5141 14.6563C13.3286 14.5324 13.1841 14.3563 13.0987 14.1502C13.0134 13.9442 12.991 13.7174 13.0346 13.4987C13.0781 13.2799 13.1855 13.079 13.3432 12.9213C13.5009 12.7636 13.7019 12.6562 13.9206 12.6127C14.1394 12.5692 14.3662 12.5915 14.5722 12.6769C14.7783 12.7622 14.9544 12.9068 15.0783 13.0923C15.2022 13.2777 15.2683 13.4958 15.2683 13.7188C15.2683 13.8669 15.2391 14.0135 15.1824 14.1503C15.1258 14.2872 15.0427 14.4115 14.938 14.5162C14.8333 14.6209 14.709 14.7039 14.5721 14.7606C14.4353 14.8173 14.2887 14.8464 14.1406 14.8464Z" fill="black"/>
</svg>
