<svg width="24" height="24" viewBox="0 0 24 24" fill="none" xmlns="http://www.w3.org/2000/svg">
<path d="M19 4H7V6H19C19.2652 6 19.5196 6.10536 19.7071 6.29289C19.8946 6.48043 20 6.73478 20 7V10H10.8125C5.0938 10 2 14 2 20H22V7C22 6.20435 21.6839 5.44129 21.1213 4.87868C20.5587 4.31607 19.7956 4 19 4ZM20 18H4.1426C4.5632 15.1921 6.0826 12 10.8126 12H20V18ZM9.87 15C9.87 15.2373 9.94038 15.4693 10.0722 15.6667C10.2041 15.864 10.3915 16.0178 10.6108 16.1087C10.8301 16.1995 11.0713 16.2232 11.3041 16.1769C11.5369 16.1306 11.7507 16.0164 11.9185 15.8485C12.0864 15.6807 12.2006 15.4669 12.2469 15.2341C12.2932 15.0013 12.2695 14.7601 12.1787 14.5408C12.0878 14.3215 11.934 14.1341 11.7367 14.0022C11.5393 13.8704 11.3073 13.8 11.07 13.8C10.7517 13.8 10.4465 13.9264 10.2215 14.1515C9.99643 14.3765 9.87 14.6817 9.87 15ZM15.0231 16.2C15.2604 16.2 15.4924 16.1296 15.6898 15.9978C15.8871 15.8659 16.0409 15.6785 16.1318 15.4592C16.2226 15.2399 16.2463 14.9987 16.2 14.7659C16.1537 14.5331 16.0395 14.3193 15.8716 14.1515C15.7038 13.9836 15.49 13.8694 15.2572 13.8231C15.0244 13.7768 14.7832 13.8005 14.5639 13.8913C14.3446 13.9822 14.1572 14.136 14.0253 14.3333C13.8935 14.5307 13.8231 14.7627 13.8231 15C13.8231 15.1576 13.8541 15.3137 13.9145 15.4593C13.9748 15.6049 14.0632 15.7372 14.1747 15.8486C14.2861 15.9601 14.4185 16.0485 14.5641 16.1087C14.7097 16.169 14.8658 16.2 15.0234 16.2H15.0231Z" fill="black"/>
</svg>
