<svg width="24" height="24" viewBox="0 0 24 24" fill="none" xmlns="http://www.w3.org/2000/svg">
<path d="M19.3333 4H7V4.9987H19.332C19.774 4.9987 20.1979 5.17428 20.5105 5.48683C20.8231 5.79938 20.9987 6.22328 20.9987 6.6653V10H10.8125C5.0938 10 2 14 2 20H22V6.6666C22 5.95936 21.719 5.2811 21.2189 4.78102C20.7188 4.28094 20.0405 4 19.3333 4ZM8.4969 16.2C8.25956 16.2 8.02755 16.1296 7.83022 15.9978C7.63288 15.8659 7.47907 15.6785 7.38824 15.4592C7.29742 15.2399 7.27366 14.9987 7.31996 14.7659C7.36626 14.5331 7.48055 14.3193 7.64837 14.1515C7.81619 13.9836 8.03001 13.8694 8.26279 13.8231C8.49557 13.7768 8.73685 13.8005 8.95612 13.8913C9.17539 13.9822 9.36281 14.136 9.49466 14.3333C9.62652 14.5307 9.6969 14.7627 9.6969 15C9.6969 15.3183 9.57047 15.6235 9.34543 15.8485C9.12038 16.0736 8.81516 16.2 8.4969 16.2ZM13.0469 16.2C12.8096 16.2 12.5776 16.1296 12.3802 15.9978C12.1829 15.8659 12.0291 15.6785 11.9382 15.4592C11.8474 15.2399 11.8237 14.9987 11.87 14.7659C11.9163 14.5331 12.0305 14.3193 12.1984 14.1515C12.3662 13.9836 12.58 13.8694 12.8128 13.8231C13.0456 13.7768 13.2868 13.8005 13.5061 13.8913C13.7254 13.9822 13.9128 14.136 14.0447 14.3333C14.1765 14.5307 14.2469 14.7627 14.2469 15C14.2469 15.3183 14.1205 15.6235 13.8954 15.8485C13.6704 16.0736 13.3652 16.2 13.0469 16.2ZM17.5969 16.2C17.3596 16.2 17.1276 16.1296 16.9302 15.9978C16.7329 15.8659 16.5791 15.6785 16.4882 15.4592C16.3974 15.2399 16.3737 14.9987 16.42 14.7659C16.4663 14.5331 16.5805 14.3193 16.7484 14.1515C16.9162 13.9836 17.13 13.8694 17.3628 13.8231C17.5956 13.7768 17.8368 13.8005 18.0561 13.8913C18.2754 13.9822 18.4628 14.136 18.5947 14.3333C18.7265 14.5307 18.7969 14.7627 18.7969 15C18.7969 15.3183 18.6705 15.6235 18.4454 15.8485C18.2204 16.0736 17.9152 16.2 17.5969 16.2Z" fill="black"/>
</svg>
