<svg width="24" height="24" viewBox="0 0 24 24" fill="none" xmlns="http://www.w3.org/2000/svg">
<path d="M19.1667 4H7V5.4993H19.166C19.5196 5.4993 19.8587 5.63977 20.1088 5.88981C20.3588 6.13986 20.4993 6.47899 20.4993 6.8326V10H10.8125C5.0938 10 2 14 2 20H22V6.8333C22 6.08186 21.7015 5.3612 21.1701 4.82985C20.6388 4.29851 19.9181 4 19.1667 4ZM20.5 18.5H3.5975C3.9347 14.7457 5.9731 11.5 10.8125 11.5H20.4993V14H20.5V18.5ZM14.579 12.5557L13.125 14.01L11.671 12.5559L10.681 13.5459L12.1348 15L10.6807 16.454L11.6707 17.444L13.125 15.99L14.579 17.4441L15.569 16.4541L14.1152 15L15.5693 13.546L14.579 12.5557Z" fill="black"/>
</svg>
