<svg width="24" height="24" viewBox="0 0 24 24" fill="none" xmlns="http://www.w3.org/2000/svg">
<path d="M18.4171 4.0607L15.5 3C15.5 3.92826 15.1313 4.8185 14.4749 5.47487C13.8185 6.13125 12.9283 6.5 12 6.5C11.0717 6.5 10.1815 6.13125 9.52513 5.47487C8.86875 4.8185 8.5 3.92826 8.5 3L5.5829 4.0607C4.82595 4.33599 4.17205 4.83755 3.70997 5.49728C3.24789 6.157 3.00002 6.94294 3 7.7484V20H6V9H7.9V21H16.1V9H18V20H21V7.7484C21 6.94294 20.7521 6.15698 20.2901 5.49725C19.828 4.83752 19.1741 4.33597 18.4171 4.0607ZM12 4.7C12.4507 4.6995 12.8828 4.52023 13.2015 4.20153C13.5202 3.88282 13.6995 3.45071 13.7 3H10.3C10.3005 3.45071 10.4798 3.88282 10.7985 4.20153C11.1172 4.52023 11.5493 4.6995 12 4.7Z" fill="black"/>
</svg>
