<svg width="24" height="24" viewBox="0 0 24 24" fill="none" xmlns="http://www.w3.org/2000/svg">
<path d="M14.2834 3H9.72L12.0063 5.7355L14.2834 3ZM18.606 3.5174C18.0057 3.17823 17.3279 3 16.6384 3H15.5911L12.7717 6.363C12.6788 6.47832 12.5613 6.57135 12.4278 6.63528C12.2942 6.6992 12.1481 6.73238 12 6.73238C11.8519 6.73238 11.7058 6.6992 11.5722 6.63528C11.4387 6.57135 11.3212 6.47832 11.2283 6.363L8.4089 3H7.3616C6.6721 3 5.99431 3.17823 5.394 3.5174L1 6L3.1075 10.265L6 9.4062V21H18V9.4062L20.8925 10.265L23 6L18.606 3.5174Z" fill="black"/>
</svg>
