<svg width="24" height="24" viewBox="0 0 24 24" fill="none" xmlns="http://www.w3.org/2000/svg">
<path d="M3 3V21H21V3H3ZM20.052 3.9333L18.335 5.6494C17.5051 6.48412 16.5179 7.14594 15.4305 7.59652C14.3431 8.0471 13.1771 8.27751 12 8.2744C10.8229 8.27751 9.65695 8.0471 8.56954 7.59652C7.48213 7.14594 6.49489 6.48412 5.665 5.6494L3.948 3.9333H20.052ZM3.9333 20.0667V5.2386L5.0049 6.31C5.92143 7.23138 7.01159 7.96185 8.21229 8.45912C9.413 8.95638 10.7004 9.21058 12 9.207C13.2996 9.21058 14.587 8.95638 15.7877 8.45912C16.9884 7.96185 18.0786 7.23138 18.9951 6.31L20.0667 5.239V20.0667H3.9333Z" fill="black"/>
</svg>
