<svg width="24" height="24" viewBox="0 0 24 24" fill="none" xmlns="http://www.w3.org/2000/svg">
<path d="M12 2.1844C12.157 2.18983 12.3134 2.16291 12.4596 2.10531C12.6057 2.0477 12.7385 1.96066 12.8496 1.84957C12.9607 1.73849 13.0477 1.60575 13.1053 1.45959C13.1629 1.31344 13.1898 1.157 13.1844 1H10.8156C10.8102 1.157 10.8371 1.31344 10.8947 1.45959C10.9523 1.60575 11.0393 1.73849 11.1504 1.84957C11.2615 1.96066 11.3943 2.0477 11.5404 2.10531C11.6866 2.16291 11.843 2.18983 12 2.1844ZM17.9646 2.012L14.9844 1C14.9844 1.79151 14.67 2.55061 14.1103 3.11029C13.5506 3.66997 12.7915 3.9844 12 3.9844C11.2085 3.9844 10.4494 3.66997 9.88971 3.11029C9.33003 2.55061 9.0156 1.79151 9.0156 1L6.0356 2.012C5.44207 2.2135 4.92655 2.59584 4.56145 3.10534C4.19636 3.61484 4.00001 4.2259 4 4.8527V15H6.5V6H8V23H11.26V14H12.74V23H16V6H17.5V15H20V4.8527C20 4.22592 19.8037 3.61488 19.4386 3.10538C19.0736 2.59589 18.5581 2.21353 17.9646 2.012Z" fill="black"/>
</svg>
