<svg width="24" height="24" viewBox="0 0 24 24" fill="none" xmlns="http://www.w3.org/2000/svg">
<path d="M10.2161 11C10.0183 11 9.82498 11.0586 9.66053 11.1685C9.49608 11.2784 9.36791 11.4346 9.29222 11.6173C9.21653 11.8 9.19673 12.0011 9.23531 12.1951C9.2739 12.3891 9.36914 12.5673 9.50899 12.7071C9.64885 12.847 9.82703 12.9422 10.021 12.9808C10.215 13.0194 10.4161 12.9996 10.5988 12.9239C10.7815 12.8482 10.9377 12.72 11.0476 12.5556C11.1575 12.3911 11.2161 12.1978 11.2161 12C11.2161 11.7348 11.1107 11.4804 10.9232 11.2929C10.7357 11.1054 10.4813 11 10.2161 11ZM13.7839 11C13.5861 11 13.3928 11.0586 13.2283 11.1685C13.0639 11.2784 12.9357 11.4346 12.86 11.6173C12.7843 11.8 12.7645 12.0011 12.8031 12.1951C12.8417 12.3891 12.9369 12.5673 13.0768 12.7071C13.2166 12.847 13.3948 12.9422 13.5888 12.9808C13.7828 13.0194 13.9839 12.9996 14.1666 12.9239C14.3493 12.8482 14.5055 12.72 14.6154 12.5556C14.7253 12.3911 14.7839 12.1978 14.7839 12C14.7839 11.7348 14.6785 11.4804 14.491 11.2929C14.3035 11.1054 14.0491 11 13.7839 11ZM3 3V21H21V3H3ZM3.9333 3.9333H9.6152C8.26989 4.33224 7.04552 5.06088 6.05327 6.05308C5.06102 7.04528 4.33231 8.26961 3.9333 9.6149V3.9333ZM3.9333 20.0667V14.3851C4.3323 15.7304 5.06097 16.9546 6.05316 17.9468C7.04536 18.939 8.26965 19.6677 9.6149 20.0667H3.9333ZM4.5186 12C4.5186 10.5203 4.95738 9.07387 5.77944 7.84356C6.60151 6.61325 7.76995 5.65434 9.13699 5.08809C10.504 4.52184 12.0083 4.37368 13.4595 4.66235C14.9108 4.95102 16.2439 5.66356 17.2901 6.70985C18.3364 7.75614 19.049 9.0892 19.3376 10.5405C19.6263 11.9917 19.4782 13.496 18.9119 14.863C18.3457 16.2301 17.3868 17.3985 16.1564 18.2206C14.9261 19.0426 13.4797 19.4814 12 19.4814C10.0165 19.4791 8.11491 18.6902 6.71237 17.2876C5.30982 15.8851 4.52088 13.9835 4.5186 12ZM20.0667 20.0667H14.3851C15.7304 19.6677 16.9546 18.939 17.9468 17.9468C18.939 16.9546 19.6677 15.7304 20.0667 14.3851V20.0667ZM20.0667 9.6149C19.6677 8.26961 18.939 7.04528 17.9467 6.05308C16.9545 5.06088 15.7301 4.33224 14.3848 3.9333H20.0667V9.6149Z" fill="black"/>
</svg>
