<svg width="24" height="24" viewBox="0 0 24 24" fill="none" xmlns="http://www.w3.org/2000/svg">
<path d="M21.9888 17L22 14.11C22 13.3159 21.7636 12.5397 21.321 11.8804C20.8784 11.2211 20.2495 10.7085 19.5145 10.4078L12 7.3333V2H9L6.2917 3H3V15C3 15.5304 3.21071 16.0391 3.58579 16.4142C3.96086 16.7893 4.46957 17 5 17H5.25V19.5234H3V20.9234H19.2314C19.7753 20.9241 20.3127 20.8045 20.805 20.5732C21.2973 20.3419 21.7324 20.0046 22.0791 19.5855L23.1152 18.3375L21.9888 17ZM4.4 15V4.4H6.542L9.25 3.4H10.6V5.3438H9.2021C9.00319 5.3438 8.81242 5.42282 8.67177 5.56347C8.53112 5.70412 8.4521 5.89489 8.4521 6.0938C8.4521 6.29271 8.53112 6.48348 8.67177 6.62413C8.81242 6.76478 9.00319 6.8438 9.2021 6.8438H10.6V7.7393L9.74 8.5615C9.66614 8.62887 9.60649 8.71032 9.56456 8.80107C9.52263 8.89182 9.49927 8.99004 9.49585 9.08995C9.49242 9.18986 9.50901 9.28945 9.54463 9.38286C9.58025 9.47627 9.63418 9.56161 9.70326 9.63388C9.77234 9.70614 9.85516 9.76387 9.94687 9.80366C10.0386 9.84345 10.1373 9.86451 10.2373 9.86559C10.3372 9.86667 10.4364 9.84776 10.529 9.80996C10.6215 9.77217 10.7056 9.71625 10.7762 9.6455L11.7289 8.7349L13.0322 9.2681L12.6058 10.3115C12.5304 10.4956 12.5313 10.7022 12.6082 10.8857C12.6851 11.0692 12.8318 11.2146 13.0159 11.29C13.2 11.3654 13.4066 11.3645 13.5901 11.2876C13.7736 11.2107 13.919 11.064 13.9944 10.8799L14.421 9.8362L16.0855 10.5171L15.6902 11.4824C15.6502 11.574 15.6289 11.6727 15.6275 11.7726C15.6262 11.8726 15.6448 11.9718 15.6824 12.0644C15.7199 12.157 15.7756 12.2412 15.8461 12.312C15.9167 12.3829 16.0007 12.4388 16.0932 12.4767C16.1857 12.5146 16.2848 12.5336 16.3848 12.5327C16.4847 12.5317 16.5835 12.5107 16.6752 12.4711C16.7669 12.4314 16.8498 12.3738 16.919 12.3016C16.9881 12.2294 17.0422 12.1442 17.0779 12.0508L17.4734 11.0849L18.9848 11.7032C19.4633 11.8977 19.8727 12.2307 20.1605 12.6596C20.4483 13.0884 20.6013 13.5935 20.6 14.11V15.6H5C4.84093 15.5998 4.68842 15.5365 4.57594 15.4241C4.46346 15.3116 4.40019 15.1591 4.4 15ZM6.75 17H14.25V19.5234H6.75V17ZM21.0015 18.6924C20.786 18.9529 20.5156 19.1625 20.2096 19.3061C19.9036 19.4498 19.5696 19.524 19.2315 19.5234H15.75V17H20.158L21.29 18.3438L21.0015 18.6924Z" fill="black"/>
</svg>
