<svg width="24" height="24" viewBox="0 0 24 24" fill="none" xmlns="http://www.w3.org/2000/svg">
<path d="M5.06714 19V14.2879C5.06714 14.1598 5.09238 14.033 5.1414 13.9146C5.19043 13.7963 5.26228 13.6887 5.35287 13.5982C5.44345 13.5076 5.55099 13.4357 5.66934 13.3867C5.7877 13.3377 5.91454 13.3125 6.04264 13.3125C6.18128 13.3125 6.31833 13.342 6.44464 13.3992C6.57095 13.4563 6.68362 13.5398 6.77514 13.6439L9.99044 17.3013C10.4597 17.8351 11.0373 18.2627 11.6849 18.5556C12.3324 18.8485 13.0349 19 13.7456 19H22.9999V16.6083C22.9999 16.3836 22.9432 16.1626 22.8349 15.9658C22.7266 15.7689 22.5704 15.6026 22.3806 15.4823L16.996 12.0789L15.4081 13.1515C15.013 13.4186 14.5363 13.5378 14.0619 13.4884C13.5875 13.4389 13.1457 13.2238 12.8141 12.881L5.23764 5.0568L3.99994 5L3.16124 6.9132C2.40616 8.63603 2.20987 10.5522 2.59994 12.3923L3.99994 19H5.06714Z" fill="black"/>
</svg>
