<svg width="24" height="24" viewBox="0 0 24 24" fill="none" xmlns="http://www.w3.org/2000/svg">
<path d="M20.8044 11.4464L16.4731 10.3544L11.4083 7H9.9683L7.8881 8.5236C7.33451 8.92921 6.6697 9.15501 5.9836 9.17046C5.29749 9.18592 4.62319 8.99027 4.0519 8.61L2.4161 7.5207L1 7.5382V17H7V15.625L11.6562 17H23V14.2643C23 13.6172 22.784 12.9886 22.3863 12.4782C21.9886 11.9677 21.4319 11.6046 20.8044 11.4464ZM22.5 16.5H11.7285L7.1416 15.1454L6.5 14.956V16.5H1.5V8.032L2.2677 8.0226L3.7748 9.0258C4.4313 9.46289 5.2062 9.68781 5.9947 9.67014C6.78319 9.65247 7.54724 9.39306 8.1835 8.927L10.1322 7.5H11.2578L12.1511 8.0916L12.1421 8.0977L10.9058 9.9648C10.8864 9.99215 10.8728 10.0231 10.8656 10.0559C10.8584 10.0886 10.8579 10.1224 10.8641 10.1554C10.8703 10.1883 10.883 10.2197 10.9016 10.2476C10.9201 10.2755 10.9441 10.2994 10.972 10.3179C11 10.3364 11.0314 10.349 11.0644 10.3551C11.0973 10.3612 11.1312 10.3606 11.1639 10.3534C11.1966 10.3461 11.2275 10.3324 11.2548 10.3129C11.2821 10.2935 11.3053 10.2688 11.3228 10.2402L12.5591 8.373L12.561 8.363L14.1479 9.4141L12.9751 11.1854C12.9557 11.2128 12.9421 11.2437 12.9349 11.2765C12.9277 11.3092 12.9272 11.343 12.9334 11.376C12.9396 11.4089 12.9523 11.4403 12.9709 11.4682C12.9894 11.4961 13.0134 11.52 13.0413 11.5385C13.0693 11.557 13.1007 11.5696 13.1337 11.5757C13.1666 11.5818 13.2005 11.5812 13.2332 11.574C13.2659 11.5667 13.2968 11.553 13.3241 11.5335C13.3514 11.5141 13.3746 11.4894 13.3921 11.4608L14.5646 9.69L16.197 10.7712L16.2682 10.8183L16.351 10.8391L20.6823 11.9312C21.202 12.0618 21.6632 12.3623 21.9925 12.785C22.3219 13.2078 22.5005 13.7284 22.5 14.2643V16.5Z" fill="black"/>
</svg>
