<svg width="24" height="24" viewBox="0 0 24 24" fill="none" xmlns="http://www.w3.org/2000/svg">
<path d="M10.1284 8.00338L12 6.13178L13.8716 8.00338L15.0034 6.87158L13.1318 4.99998L15.0034 3.12838L13.8716 1.99658L12 3.86818L10.1284 1.99658L8.9966 3.12838L10.8682 4.99998L8.9966 6.87158L10.1284 8.00338ZM7.0791 11.6583C6.82994 11.16 6.44695 10.7409 5.97304 10.448C5.49912 10.1551 4.95302 9.99999 4.3959 9.99998H1V20H2.1459C2.70303 20 3.24914 19.8448 3.72305 19.5519C4.19697 19.259 4.57995 18.8399 4.8291 18.3416L7.625 12.75L7.0791 11.6583ZM21.8541 9.99998C21.297 9.99999 20.7509 10.1551 20.277 10.448C19.8031 10.7409 19.4201 11.16 19.1709 11.6583L16.375 17.25L16.9209 18.3416C17.17 18.8399 17.553 19.259 18.0269 19.5519C18.5009 19.8448 19.047 20 19.6041 20H23V9.99998H21.8541ZM16.1621 11.8867C15.8786 11.3198 15.4429 10.843 14.9037 10.5097C14.3645 10.1765 13.7432 10 13.1094 10C12.4755 10 11.8542 10.1765 11.315 10.5097C10.7758 10.843 10.3401 11.3198 10.0566 11.8867L7.3906 17.2188L7.8379 18.1133C8.12137 18.6802 8.55711 19.157 9.0963 19.4902C9.63548 19.8235 10.2568 20 10.8906 20C11.5245 20 12.1458 19.8235 12.685 19.4902C13.2242 19.157 13.6599 18.6802 13.9434 18.1133L16.6094 12.7812L16.1621 11.8867Z" fill="black"/>
</svg>
