<svg width="24" height="24" viewBox="0 0 24 24" fill="none" xmlns="http://www.w3.org/2000/svg">
<path d="M20.163 10.6409L19.6667 9.9826V4H18.6667V9.5814L16.903 10.5052C15.7267 11.1151 14.7406 12.0365 14.0523 13.1688C13.364 14.301 13 15.6006 13 16.9256V18H11V16.9256C11 15.6006 10.6359 14.3011 9.94764 13.169C9.25935 12.0368 8.27325 11.1155 7.097 10.5056L5.3334 9.5814V4H4.3334V9.9825L3.837 10.6409C2.64499 12.2167 1.99999 14.1386 2 16.1145V19H22V16.1145C22 14.1386 21.355 12.2167 20.163 10.6409Z" fill="black"/>
</svg>
