<svg width="24" height="24" viewBox="0 0 24 24" fill="none" xmlns="http://www.w3.org/2000/svg">
<path d="M12 2L2.453 22H21.547L12 2ZM11.9062 15.0883H10.2333C10.2265 15.0883 10.2201 15.091 10.2153 15.0958C10.2105 15.1006 10.2078 15.107 10.2078 15.1138V17.3705C10.2078 17.3773 10.2105 17.3838 10.2153 17.3886C10.22 17.3934 10.2265 17.3961 10.2333 17.3961H11.9062V18.7083H10.194C9.98566 18.7083 9.77935 18.6673 9.58686 18.5876C9.39437 18.5078 9.21947 18.391 9.07215 18.2437C8.92483 18.0963 8.80797 17.9214 8.72824 17.7289C8.64852 17.5365 8.60749 17.3301 8.6075 17.1218V15.3625C8.60749 15.1542 8.64852 14.9478 8.72824 14.7554C8.80797 14.5629 8.92483 14.388 9.07215 14.2406C9.21947 14.0933 9.39437 13.9765 9.58686 13.8967C9.77935 13.817 9.98566 13.776 10.194 13.776H11.9062V15.0883ZM12.8862 18.7083V13.776H14.4862V17.396H16.2185V18.7082L12.8862 18.7083Z" fill="black"/>
</svg>
