<svg width="24" height="24" viewBox="0 0 24 24" fill="none" xmlns="http://www.w3.org/2000/svg">
<path d="M9.99998 2V10.8038L5.32458 13.5145C4.29289 14.1126 3.54069 15.0957 3.23312 16.2479C2.92555 17.4001 3.08774 18.6273 3.68408 19.66C3.97968 20.1725 4.37347 20.6217 4.84289 20.9819C5.31232 21.342 5.84817 21.606 6.41976 21.7588C6.99135 21.9116 7.58746 21.9501 8.17397 21.8723C8.76049 21.7944 9.32588 21.6016 9.83778 21.3049L16.5052 17.4449C17.264 17.0056 17.8939 16.3745 18.3318 15.6149C18.7696 14.8553 19.0001 13.994 19 13.1172V2H9.99998ZM17 4V6H12V4H17ZM15.5031 15.7135L8.83578 19.5735C8.26191 19.9033 7.5807 19.9923 6.94137 19.8208C6.30205 19.6494 5.75674 19.2315 5.42491 18.6588C5.09308 18.0861 5.00178 17.4052 5.17101 16.7653C5.34024 16.1254 5.75621 15.5786 6.32778 15.2448L11.0032 12.5341L12 11.9561V8H17V13.1172C16.9991 13.643 16.8605 14.1595 16.5978 14.615C16.3352 15.0705 15.9577 15.4493 15.5031 15.7135Z" fill="black"/>
</svg>
