<svg width="24" height="24" viewBox="0 0 24 24" fill="none" xmlns="http://www.w3.org/2000/svg">
<path d="M5.6223 20H6.94C7.58718 20.0081 8.22049 20.1887 8.7747 20.523C9.3289 20.8573 9.78396 21.3333 10.093 21.902L10.7244 23H13.2756L13.9067 21.902C14.2158 21.3333 14.6709 20.8572 15.2251 20.5229C15.7794 20.1886 16.4128 20.0081 17.06 20H18.378V16H5.6223V20ZM6.5723 16.95H17.4278V19.05H17.06C16.2579 19.0563 15.4717 19.2743 14.7808 19.6819C14.09 20.0894 13.5189 20.6722 13.1255 21.3712L12.77 22.05H11.23L10.8752 21.3712C10.4817 20.6721 9.91056 20.0893 9.21957 19.6817C8.52858 19.2741 7.74222 19.0562 6.94 19.05H6.5722L6.5723 16.95ZM17.192 4.6171L17.0308 4.4271V1H16.1442V4.0626L14.5806 5.2031C14.0252 5.61973 13.5757 6.16115 13.2682 6.78362C12.9607 7.40609 12.804 8.09216 12.8106 8.7864V10.05H11.19V8.7864C11.1966 8.09216 11.0399 7.40609 10.7324 6.78362C10.4249 6.16115 9.97537 5.61973 9.42 5.2031L8.0281 4.1882V1H7.1414V4.2236L6.8081 4.6171C6.03665 5.55211 5.61709 6.72782 5.6223 7.94V11H18.3778V7.94C18.383 6.72783 17.9634 5.55214 17.192 4.6171ZM10.24 10.05H6.5722V7.94C6.56912 7.01706 6.86463 6.11788 7.4146 5.3767C7.4313 5.3518 7.6246 5.1023 7.6436 5.0791L8.8636 5.9735C9.28869 6.29484 9.63387 6.70997 9.87226 7.18656C10.1106 7.66314 10.2358 8.18832 10.238 8.7212C10.2393 8.7428 10.2398 8.9036 10.2398 8.9254L10.24 10.05ZM17.428 10.05H13.76V8.9178C13.76 8.8978 13.7605 8.7463 13.7615 8.7264C13.763 8.19258 13.8879 7.66634 14.1265 7.18876C14.365 6.71119 14.7107 6.29521 15.1365 5.9733L16.3565 5.0789C16.3753 5.1021 16.5688 5.3516 16.5855 5.3765C17.1355 6.11775 17.4309 7.01701 17.4278 7.94L17.428 10.05Z" fill="black"/>
</svg>
