<svg width="24" height="24" viewBox="0 0 24 24" fill="none" xmlns="http://www.w3.org/2000/svg">
<path d="M21.8287 14.8216L16.475 11.3557L14.7537 12.3286C14.4146 12.5131 14.0237 12.5793 13.6428 12.5167C13.2619 12.4541 12.9127 12.2663 12.6506 11.983L6.28095 5.0378L3.99995 5L3.16135 6.9131C2.40618 8.63594 2.20985 10.5521 2.59995 12.3923L3.99995 19H5.77335V14.2879C5.77335 14.0896 5.83376 13.8961 5.94654 13.733C6.05932 13.57 6.21911 13.4451 6.40463 13.3752C6.59014 13.3052 6.79256 13.2935 6.98493 13.3415C7.17729 13.3895 7.35046 13.495 7.48135 13.6439L10.6967 17.3013C11.1659 17.8351 11.7435 18.2627 12.3911 18.5556C13.0386 18.8485 13.7411 19 14.4519 19H23V16.9806C22.9999 16.5517 22.8928 16.1295 22.6883 15.7525C22.4837 15.3754 22.1882 15.0555 21.8287 14.8216ZM22 18H14.4517C13.8832 17.9999 13.3213 17.8787 12.8033 17.6445C12.2854 17.4103 11.8232 17.0684 11.4478 16.6416L8.23235 12.9834C7.9672 12.6819 7.61647 12.4683 7.22688 12.3712C6.83729 12.274 6.42735 12.2979 6.05166 12.4396C5.67597 12.5813 5.35239 12.8341 5.12401 13.1643C4.89564 13.4946 4.77332 13.8866 4.77335 14.2881V17.8262L3.57755 12.1855C3.22819 10.5497 3.40296 8.84537 4.07705 7.3145L4.64835 6.0107L5.83445 6.0312L11.9136 12.6592C12.3267 13.1075 12.878 13.4048 13.4796 13.5037C14.0812 13.6026 14.6986 13.4975 15.2336 13.2051L16.4396 12.5234L21.2849 15.6611C21.5048 15.8038 21.6855 15.9993 21.8104 16.2297C21.9353 16.4602 22.0005 16.7183 22 16.9805V18Z" fill="black"/>
</svg>
