<svg width="24" height="24" viewBox="0 0 24 24" fill="none" xmlns="http://www.w3.org/2000/svg">
<path d="M18.7255 3.628C17.9832 3.21611 17.1483 2.99999 16.2994 3H7.6882C6.83724 3 6.00037 3.21719 5.2568 3.631L1 6L4 12L6 11V19H7.1459C7.70303 19 8.24916 19.1551 8.72309 19.448C9.19702 19.7409 9.58003 20.16 9.8292 20.6583L10.5 22H13.5L14.1708 20.6583C14.42 20.16 14.803 19.7409 15.2769 19.448C15.7508 19.1551 16.297 19 16.8541 19H18V11L21 12L23 6L18.7255 3.628ZM13.5494 4.9C13.4609 5.24363 13.2606 5.54808 12.9801 5.76546C12.6996 5.98284 12.3549 6.1008 12 6.1008C11.6451 6.1008 11.3004 5.98284 11.0199 5.76546C10.7394 5.54808 10.5391 5.24363 10.4506 4.9H13.5494ZM19.7983 9.5967L16.1 8.3639V17.1572C15.3267 17.2752 14.5932 17.5778 13.9616 18.0393C13.33 18.5008 12.8188 19.1077 12.4714 19.8086L12.3257 20.1H11.6743L11.5286 19.8087C11.1812 19.1078 10.6701 18.5009 10.0384 18.0394C9.40682 17.5778 8.67332 17.2752 7.9 17.1572V7.9257L4.85 9.4509L3.5124 6.7762L6.1807 5.2912C6.64185 5.03497 7.16064 4.90034 7.6882 4.9H8.54C8.63379 5.75202 9.03869 6.53947 9.6771 7.11146C10.3155 7.68344 11.1425 7.99974 11.9997 7.99974C12.8569 7.99974 13.6839 7.68344 14.3223 7.11146C14.9607 6.53947 15.3656 5.75202 15.4594 4.9H16.2994C16.8257 4.90031 17.3433 5.0343 17.8036 5.2894L20.6986 6.8958L19.7983 9.5967Z" fill="black"/>
</svg>
