<svg width="24" height="24" viewBox="0 0 24 24" fill="none" xmlns="http://www.w3.org/2000/svg">
<path d="M20.8984 7.3293C20.336 7.33081 19.7816 7.4625 19.2785 7.71406C18.7755 7.96562 18.3376 8.33022 17.999 8.7793L16.7114 10.4963L15.4229 8.7783C15.0852 8.32832 14.6474 7.96311 14.1442 7.71158C13.6409 7.46005 13.086 7.3291 12.5234 7.3291C11.9608 7.3291 11.406 7.46005 10.9027 7.71158C10.3995 7.96311 9.96169 8.32832 9.624 8.7783L8.4167 10.3883L7.5234 9.1975C7.08706 8.61885 6.52269 8.14907 5.87448 7.82495C5.22627 7.50084 4.51182 7.33119 3.7871 7.3293H1.0479V16.6711H3.1016C3.66401 16.6696 4.21844 16.5379 4.72145 16.2863C5.22447 16.0348 5.66242 15.6702 6.001 15.2211L7.2886 13.5041L8.5771 15.2221C8.91479 15.6721 9.35258 16.0373 9.85582 16.2888C10.3591 16.5404 10.9139 16.6713 11.4765 16.6713C12.0391 16.6713 12.594 16.5404 13.0973 16.2888C13.6005 16.0373 14.0383 15.6721 14.376 15.2221L15.5833 13.6121L16.4766 14.803C16.9129 15.3817 17.4773 15.8514 18.1255 16.1756C18.7737 16.4997 19.4882 16.6693 20.2129 16.6712H22.9521V7.3293H20.8984ZM5.2275 14.6408C4.97925 14.9701 4.65814 15.2375 4.28932 15.422C3.92051 15.6065 3.51399 15.7031 3.1016 15.7043H2.0146V8.2961H3.7871C4.36181 8.29754 4.92838 8.43204 5.44242 8.68905C5.95646 8.94606 6.40401 9.31861 6.75 9.7775L7.8125 11.1941L5.2275 14.6408ZM13.6025 14.6418C13.3549 14.9717 13.0339 15.2395 12.6649 15.4239C12.2959 15.6083 11.889 15.7043 11.4765 15.7043C11.064 15.7043 10.6572 15.6083 10.2882 15.4239C9.91923 15.2395 9.59822 14.9717 9.3506 14.6418L7.8928 12.6982L10.3975 9.3582C10.6451 9.0283 10.9661 8.76055 11.3351 8.57614C11.7041 8.39174 12.1109 8.29573 12.5234 8.29573C12.9359 8.29573 13.3428 8.39174 13.7118 8.57614C14.0808 8.76055 14.4018 9.0283 14.6494 9.3582L16.1072 11.3018L13.6025 14.6418ZM20.2125 15.7043C19.6379 15.7028 19.0714 15.5683 18.5574 15.3113C18.0434 15.0543 17.5959 14.6817 17.25 14.2229L16.1875 12.8063L18.7725 9.3596C19.0207 9.0303 19.3419 8.76293 19.7107 8.57843C20.0795 8.39392 20.486 8.29729 20.8984 8.2961H21.9854V15.7043H20.2125Z" fill="black"/>
</svg>
