<svg width="24" height="24" viewBox="0 0 24 24" fill="none" xmlns="http://www.w3.org/2000/svg">
<path d="M9.85939 12.5911C9.63635 12.5911 9.41832 12.6572 9.23287 12.7812C9.04743 12.9051 8.90289 13.0812 8.81753 13.2872C8.73218 13.4933 8.70985 13.7201 8.75336 13.9388C8.79687 14.1576 8.90428 14.3585 9.06199 14.5162C9.2197 14.6739 9.42064 14.7813 9.63939 14.8248C9.85814 14.8683 10.0849 14.846 10.2909 14.7607C10.497 14.6753 10.6731 14.5308 10.797 14.3453C10.921 14.1599 10.9871 13.9418 10.9871 13.7188C10.9871 13.4197 10.8683 13.1329 10.6568 12.9214C10.4453 12.7099 10.1585 12.5911 9.85939 12.5911ZM14.1406 12.5911C13.9176 12.5911 13.6995 12.6572 13.5141 12.7812C13.3286 12.9051 13.1841 13.0812 13.0987 13.2872C13.0134 13.4933 12.991 13.7201 13.0346 13.9388C13.0781 14.1576 13.1855 14.3585 13.3432 14.5162C13.5009 14.6739 13.7018 14.7813 13.9206 14.8248C14.1393 14.8683 14.3661 14.846 14.5721 14.7607C14.7782 14.6753 14.9543 14.5308 15.0782 14.3453C15.2022 14.1599 15.2683 13.9418 15.2683 13.7188C15.2683 13.4197 15.1495 13.1329 14.938 12.9214C14.7265 12.7099 14.4397 12.5911 14.1406 12.5911ZM20.8789 4L20.7019 5.6821H19.749C18.8465 5.69494 17.9703 5.98753 17.2412 6.5195C16.8546 6.83273 16.3721 7.00365 15.8745 7.00365C15.3769 7.00365 14.8944 6.83273 14.5078 6.5195C13.7838 5.97817 12.904 5.68564 12 5.68564C11.096 5.68564 10.2162 5.97817 9.49219 6.5195C9.098 6.81815 8.62034 6.98615 8.12599 7C7.63139 6.98628 7.15342 6.81848 6.75879 6.52C6.02985 5.98764 5.15354 5.69485 4.25099 5.6821H3.29809L3.12109 4H1.20999L2.99999 21H21L22.79 4H20.8789ZM19.29 19.1H4.70999L3.50869 7.6821H4.25099C4.74576 7.69581 5.22383 7.864 5.61819 8.1631C6.34741 8.6948 7.22361 8.98721 8.12599 9C9.02813 8.98708 9.90402 8.69449 10.6328 8.1626C11.0194 7.84877 11.5022 7.67752 12.0001 7.67761C12.498 7.6777 12.9807 7.84913 13.3672 8.1631C14.0902 8.70639 14.9702 9.00009 15.8746 9C16.779 8.99991 17.6589 8.70603 18.3818 8.1626C18.7754 7.86215 19.254 7.69411 19.749 7.6826H20.4913L19.29 19.1Z" fill="black"/>
</svg>
