<svg width="24" height="24" viewBox="0 0 24 24" fill="none" xmlns="http://www.w3.org/2000/svg">
<path d="M21.01 10.7886L16.6008 9.213L15.9355 10.8486C15.8792 10.9869 15.783 11.1052 15.6592 11.1885C15.5353 11.2718 15.3895 11.3164 15.2402 11.3164C15.1434 11.3164 15.0475 11.2975 14.958 11.2607C14.8668 11.2237 14.7838 11.169 14.7137 11.0999C14.6437 11.0308 14.5879 10.9485 14.5496 10.8578C14.5114 10.7671 14.4914 10.6698 14.4907 10.5714C14.4901 10.473 14.5088 10.3754 14.5459 10.2842L15.187 8.7078L13.5105 8.1086L12.7959 9.7764C12.7582 9.86844 12.7025 9.95205 12.6322 10.0224C12.5619 10.0927 12.4783 10.1483 12.3862 10.1861C12.2942 10.2238 12.1955 10.2428 12.0961 10.242C11.9966 10.2412 11.8983 10.2207 11.8069 10.1816C11.7154 10.1424 11.6327 10.0855 11.5634 10.0141C11.4942 9.94269 11.4399 9.85822 11.4036 9.76561C11.3673 9.673 11.3498 9.57409 11.3521 9.47466C11.3544 9.37522 11.3765 9.27723 11.417 9.1864L12.0956 7.6029L10.4083 7H8.2046V8.02C8.2045 8.15181 8.17836 8.28229 8.12768 8.40397C8.07701 8.52565 8.0028 8.63612 7.90932 8.72904C7.81583 8.82195 7.70492 8.89549 7.58293 8.94542C7.46095 8.99535 7.33031 9.0207 7.1985 9.02L5.0708 9.0084C4.67833 9.00602 4.29038 8.92454 3.93011 8.76884C3.56985 8.61314 3.24466 8.38641 2.974 8.1022L2.42 7.5207L1 7.5382V17H16L23 16.2083V13.6136C23 12.995 22.8088 12.3915 22.4526 11.8858C22.0963 11.3801 21.5925 10.9969 21.01 10.7886Z" fill="black"/>
</svg>
