<svg width="24" height="24" viewBox="0 0 24 24" fill="none" xmlns="http://www.w3.org/2000/svg">
<path d="M9.916 7.79098L12 5.70698L14.084 7.79098L14.791 7.08398L12.707 4.99998L14.791 2.91598L14.084 2.20898L12 4.29298L9.916 2.20898L9.209 2.91598L11.293 4.99998L9.209 7.08398L9.916 7.79098ZM7.6311 11.6583C7.38194 11.16 6.99895 10.7409 6.52504 10.448C6.05112 10.1551 5.50502 9.99999 4.9479 9.99998H1V20H2.6979C3.25503 20 3.80114 19.8448 4.27505 19.5519C4.74897 19.259 5.13195 18.8399 5.3811 18.3416L8.177 12.75L7.6311 11.6583ZM21.3082 9.99998C20.7511 9.99999 20.205 10.1551 19.7311 10.448C19.2572 10.7409 18.8742 11.16 18.625 11.6583L15.8291 17.25L16.375 18.3416C16.6241 18.8399 17.0071 19.259 17.481 19.5519C17.955 19.8448 18.5011 20 19.0582 20H23V9.99998H21.3082ZM16.6814 12.2076C16.3497 11.5442 15.8399 10.9863 15.209 10.5964C14.5781 10.2065 13.8511 9.99995 13.1094 9.99995C12.3677 9.99995 11.6407 10.2065 11.0098 10.5964C10.3789 10.9863 9.86908 11.5442 9.5374 12.2076L7.0319 17.2188L7.3186 17.7924C7.65028 18.4558 8.16013 19.0137 8.79103 19.4036C9.42192 19.7935 10.1489 20 10.8906 20C11.6323 20 12.3593 19.7935 12.9902 19.4036C13.6211 19.0137 14.1309 18.4558 14.4626 17.7924L16.9681 12.7812L16.6814 12.2076Z" fill="black"/>
</svg>
