<svg width="24" height="24" viewBox="0 0 24 24" fill="none" xmlns="http://www.w3.org/2000/svg">
<path d="M18.606 3.5174C18.0057 3.17823 17.3279 3 16.6384 3H15.3333C15.3333 3.88405 14.9821 4.73188 14.357 5.357C13.7319 5.98211 12.884 6.3333 12 6.3333C11.116 6.3333 10.2681 5.98211 9.643 5.357C9.01789 4.73188 8.6667 3.88405 8.6667 3H7.3616C6.6721 3 5.99431 3.17823 5.394 3.5174L1 6L3.1075 10.265L6 9.4062V21H18V9.4062L20.8925 10.265L23 6L18.606 3.5174ZM12 4.9667C12.5214 4.96609 13.0213 4.75869 13.39 4.38999C13.7587 4.0213 13.9661 3.52141 13.9667 3H10.0333C10.0339 3.52141 10.2413 4.0213 10.61 4.38999C10.9787 4.75869 11.4786 4.96609 12 4.9667Z" fill="black"/>
</svg>
