<svg width="24" height="24" viewBox="0 0 24 24" fill="none" xmlns="http://www.w3.org/2000/svg">
<path d="M10.2161 11C10.0183 11 9.82498 11.0586 9.66053 11.1685C9.49608 11.2784 9.36791 11.4346 9.29222 11.6173C9.21653 11.8 9.19673 12.0011 9.23531 12.1951C9.2739 12.3891 9.36914 12.5673 9.50899 12.7071C9.64885 12.847 9.82703 12.9422 10.021 12.9808C10.215 13.0194 10.4161 12.9996 10.5988 12.9239C10.7815 12.8482 10.9377 12.72 11.0476 12.5556C11.1575 12.3911 11.2161 12.1978 11.2161 12C11.2161 11.7348 11.1107 11.4804 10.9232 11.2929C10.7357 11.1054 10.4813 11 10.2161 11ZM13.7839 11C13.5861 11 13.3928 11.0586 13.2283 11.1685C13.0639 11.2784 12.9357 11.4346 12.86 11.6173C12.7843 11.8 12.7645 12.0011 12.8031 12.1951C12.8417 12.3891 12.9369 12.5673 13.0768 12.7071C13.2166 12.847 13.3948 12.9422 13.5888 12.9808C13.7828 13.0194 13.9839 12.9996 14.1666 12.9239C14.3493 12.8482 14.5055 12.72 14.6154 12.5556C14.7253 12.3911 14.7839 12.1978 14.7839 12C14.7839 11.7348 14.6785 11.4804 14.491 11.2929C14.3035 11.1054 14.0491 11 13.7839 11ZM3 3V21H21V3H3ZM3.5 3.5H9.063C7.77542 3.94621 6.60583 4.67867 5.64225 5.64225C4.67867 6.60583 3.94621 7.77542 3.5 9.063V3.5ZM3.5 20.5V14.937C3.94621 16.2246 4.67867 17.3942 5.64225 18.3578C6.60583 19.3213 7.77542 20.0538 9.063 20.5H3.5ZM20.5 20.5H14.937C16.2246 20.0538 17.3942 19.3213 18.3578 18.3578C19.3213 17.3942 20.0538 16.2246 20.5 14.937V20.5ZM12 20.5C10.3189 20.5 8.67547 20.0015 7.27765 19.0675C5.87984 18.1335 4.79037 16.806 4.14702 15.2528C3.50368 13.6996 3.33535 11.9906 3.66333 10.3417C3.9913 8.69289 4.80085 7.17834 5.98959 5.98959C7.17834 4.80085 8.69289 3.9913 10.3417 3.66333C11.9906 3.33535 13.6996 3.50368 15.2528 4.14702C16.806 4.79037 18.1335 5.87984 19.0675 7.27765C20.0015 8.67547 20.5 10.3189 20.5 12C20.4974 14.2535 19.601 16.414 18.0075 18.0075C16.414 19.601 14.2535 20.4974 12 20.5ZM20.5 9.063C20.0538 7.77542 19.3213 6.60583 18.3578 5.64225C17.3942 4.67867 16.2246 3.94621 14.937 3.5H20.5V9.063Z" fill="black"/>
</svg>
