<svg width="24" height="24" viewBox="0 0 24 24" fill="none" xmlns="http://www.w3.org/2000/svg">
<path d="M19 2H5C4.20435 2 3.44129 2.31607 2.87868 2.87868C2.31607 3.44129 2 4.20435 2 5V24L8 18H19C19.7956 18 20.5587 17.6839 21.1213 17.1213C21.6839 16.5587 22 15.7956 22 15V5C22 4.20435 21.6839 3.44129 21.1213 2.87868C20.5587 2.31607 19.7956 2 19 2ZM14.508 13.5938L12 11.7715L9.492 13.5938L10.45 10.6454L7.942 8.8232H11.042L12 5.875L12.9579 8.8232H16.0579L13.55 10.6454L14.508 13.5938Z" fill="black"/>
</svg>
