<svg width="24" height="24" viewBox="0 0 24 24" fill="none" xmlns="http://www.w3.org/2000/svg">
<path d="M19 2H5C4.20435 2 3.44129 2.31607 2.87868 2.87868C2.31607 3.44129 2 4.20435 2 5V24L8 18H19C19.7956 18 20.5587 17.6839 21.1213 17.1213C21.6839 16.5587 22 15.7956 22 15V5C22 4.20435 21.6839 3.44129 21.1213 2.87868C20.5587 2.31607 19.7956 2 19 2ZM20 15C19.9997 15.2651 19.8943 15.5193 19.7068 15.7068C19.5193 15.8943 19.2651 15.9997 19 16H7.1716L4 19.1716V5C4.00029 4.73487 4.10574 4.48069 4.29321 4.29321C4.48069 4.10574 4.73487 4.00029 5 4H19C19.2651 4.00029 19.5193 4.10574 19.7068 4.29321C19.8943 4.48069 19.9997 4.73487 20 5V15ZM11.2422 11H12.7578L13.2188 6H10.7812L11.2422 11ZM12 12C11.8022 12 11.6089 12.0586 11.4444 12.1685C11.28 12.2784 11.1518 12.4346 11.0761 12.6173C11.0004 12.8 10.9806 13.0011 11.0192 13.1951C11.0578 13.3891 11.153 13.5673 11.2929 13.7071C11.4327 13.847 11.6109 13.9422 11.8049 13.9808C11.9989 14.0194 12.2 13.9996 12.3827 13.9239C12.5654 13.8482 12.7216 13.72 12.8315 13.5556C12.9414 13.3911 13 13.1978 13 13C13 12.7348 12.8946 12.4804 12.7071 12.2929C12.5196 12.1054 12.2652 12 12 12Z" fill="black"/>
</svg>
