<svg width="24" height="24" viewBox="0 0 24 24" fill="none" xmlns="http://www.w3.org/2000/svg">
<path d="M16.5318 13.5806L13.8901 16.222C11.2479 14.8957 9.10436 12.7521 7.77805 10.11L10.4195 7.46868L7.53335 1.95868L5.10585 2.73508C4.05163 3.06089 3.15598 3.76664 2.59266 4.71543C2.02934 5.66423 1.8385 6.78844 2.05715 7.86998C2.81344 11.3145 4.54331 14.4693 7.04095 16.959C9.53064 19.4566 12.6854 21.1865 16.13 21.9428C17.2116 22.1617 18.3361 21.971 19.2851 21.4076C20.234 20.8443 20.9399 19.9485 21.2658 18.8941L22.0422 16.4666L16.5318 13.5806ZM20.3134 18.59C20.0612 19.4057 19.5166 20.0995 18.7841 20.5381C18.0516 20.9768 17.1829 21.1294 16.3448 20.9666C13.0886 20.2459 10.1061 18.6103 7.74798 16.2522C5.38988 13.894 3.75433 10.9114 3.03375 7.65528C2.87097 6.81719 3.02352 5.94851 3.46211 5.21603C3.9007 4.48355 4.59441 3.93891 5.41005 3.68668L7.03665 3.16668L9.19275 7.28068L7.07095 9.40238L6.55765 9.91568L6.88675 10.5627C8.30892 13.3939 10.6061 15.6911 13.4374 17.1133L14.0844 17.4424L14.5977 16.9291L16.7194 14.8073L20.8336 16.9631L20.3134 18.59ZM16.5001 9.99998H17.5001C17.4989 9.07206 17.1298 8.18247 16.4737 7.52633C15.8176 6.8702 14.928 6.50109 14.0001 6.49998V7.49998C14.6629 7.50067 15.2984 7.76428 15.7671 8.23297C16.2358 8.70166 16.4994 9.33715 16.5001 9.99998ZM20.5001 9.99998H21.5001C21.4979 8.01153 20.707 6.10515 19.3009 4.69911C17.8949 3.29306 15.9885 2.50218 14.0001 2.49998V3.49998C15.7234 3.50196 17.3755 4.18742 18.5941 5.40598C19.8126 6.62453 20.4981 8.27668 20.5001 9.99998Z" fill="black"/>
</svg>
