<svg width="24" height="24" viewBox="0 0 24 24" fill="none" xmlns="http://www.w3.org/2000/svg">
<path d="M21 5H20V4C20 3.46957 19.7892 2.96086 19.4142 2.58579C19.0391 2.21071 18.5304 2 18 2C17.4695 2 16.9608 2.21071 16.5857 2.58579C16.2107 2.96086 16 3.46957 16 4V5H15V9H21V5ZM18.6 5H17.4V4C17.4 3.92121 17.4155 3.84319 17.4456 3.77039C17.4758 3.69759 17.52 3.63145 17.5757 3.57574C17.6314 3.52002 17.6976 3.47583 17.7703 3.44567C17.8431 3.41552 17.9212 3.4 18 3.4C18.0788 3.4 18.1568 3.41552 18.2296 3.44567C18.3024 3.47583 18.3685 3.52002 18.4242 3.57574C18.4799 3.63145 18.5241 3.69759 18.5543 3.77039C18.5844 3.84319 18.6 3.92121 18.6 4V5ZM16.8612 14.7384L14.4761 17.1235C12.7878 16.3903 11.2477 15.355 9.93146 14.0685C8.64496 12.7522 7.60964 11.2121 6.87646 9.5239L9.26156 7.1388L6.77156 2.1588L5.16756 2.6719C4.11321 2.99784 3.21752 3.70377 2.65423 4.65276C2.09094 5.60175 1.90022 6.72614 2.11906 7.8078C2.87544 11.2524 4.60533 14.4072 7.10296 16.897C9.59276 19.3946 12.7476 21.1245 16.1922 21.8809C17.2738 22.0997 18.3982 21.909 19.3472 21.3457C20.2961 20.7823 21.002 19.8866 21.328 18.8323L21.8411 17.2283L16.8612 14.7384Z" fill="black"/>
</svg>
