<svg width="24" height="24" viewBox="0 0 24 24" fill="none" xmlns="http://www.w3.org/2000/svg">
<path d="M18 7H12.5V5H17V2H12V7H6C4.93913 7 3.92172 7.42143 3.17157 8.17157C2.42143 8.92172 2 9.93913 2 11V21H22V11C22 9.93913 21.5786 8.92172 20.8284 8.17157C20.0783 7.42143 19.0609 7 18 7ZM12.5 2.5H16.5V4.5H12.5V2.5ZM2.5 20.5V11C2.5 10.0717 2.86875 9.1815 3.52513 8.52513C4.1815 7.86875 5.07174 7.5 6 7.5C6.92826 7.5 7.8185 7.86875 8.47487 8.52513C9.13125 9.1815 9.5 10.0717 9.5 11V20.5H2.5ZM21.5 20.5H10V11C9.99816 10.2813 9.8019 9.57656 9.43203 8.96039C9.06217 8.34421 8.53247 7.83958 7.8991 7.5H12V14C12 14.0663 12.0263 14.1299 12.0732 14.1768C12.1201 14.2237 12.1837 14.25 12.25 14.25C12.3163 14.25 12.3799 14.2237 12.4268 14.1768C12.4737 14.1299 12.5 14.0663 12.5 14V7.5H18C18.9279 7.50106 19.8176 7.87015 20.4737 8.5263C21.1299 9.18244 21.4989 10.0721 21.5 11V20.5Z" fill="black"/>
</svg>
