<svg width="24" height="24" viewBox="0 0 24 24" fill="none" xmlns="http://www.w3.org/2000/svg">
<path d="M15.5 3.5H18V2H14V7H15.5V3.5ZM6 7C4.93913 7 3.92172 7.42143 3.17157 8.17157C2.42143 8.92172 2 9.93913 2 11V21H10V11C10 9.93913 9.57857 8.92172 8.82843 8.17157C8.07828 7.42143 7.06087 7 6 7ZM18 7H15.5V14C15.5 14.1989 15.421 14.3897 15.2803 14.5303C15.1397 14.671 14.9489 14.75 14.75 14.75C14.5511 14.75 14.3603 14.671 14.2197 14.5303C14.079 14.3897 14 14.1989 14 14V7H9.7632C10.311 7.51237 10.7479 8.13176 11.0466 8.8198C11.3454 9.50784 11.4997 10.2499 11.5 11V21H22V11C22 9.93913 21.5786 8.92172 20.8284 8.17157C20.0783 7.42143 19.0609 7 18 7Z" fill="black"/>
</svg>
