<svg width="24" height="24" viewBox="0 0 24 24" fill="none" xmlns="http://www.w3.org/2000/svg">
<path d="M13.6922 16.772C10.8903 15.3797 8.62034 13.1097 7.22804 10.3078L10.0649 7.47092L7.20594 2.02002L5.16774 2.67202C4.11341 2.99793 3.21773 3.70383 2.65442 4.65278C2.09112 5.60173 1.90035 6.72608 2.11914 7.80772C2.87552 11.2523 4.60541 14.4072 7.10304 16.897C9.59287 19.3946 12.7477 21.1245 16.1923 21.8809C17.274 22.0997 18.3983 21.9089 19.3473 21.3456C20.2962 20.7823 21.0021 19.8866 21.328 18.8323L21.98 16.7941L16.5291 13.9351L13.6922 16.772ZM21.3758 17.042L20.8517 18.68C20.5609 19.6137 19.9353 20.4071 19.0952 20.9077C18.2551 21.4084 17.2597 21.581 16.3 21.3925C12.9505 20.6515 9.88235 18.9692 7.45661 16.5434C5.03088 14.1177 3.34852 11.0495 2.60754 7.70002C2.41902 6.74037 2.59166 5.74491 3.09231 4.90479C3.59295 4.06466 4.38631 3.4391 5.32004 3.14822L6.95834 2.62422L9.45134 7.37742L6.61944 10.2093L6.78094 10.5317C8.22155 13.4302 10.5699 15.7785 13.4683 17.2191L13.7907 17.3806L16.6226 14.5487L21.3758 17.042ZM19.2558 8.07862L19.6098 8.43252L22.0416 6.00002L19.61 3.56782L19.256 3.92172L21.0839 5.75002H14V6.25002H21.0839L19.2558 8.07862Z" fill="black"/>
</svg>
