<svg width="24" height="24" viewBox="0 0 24 24" fill="none" xmlns="http://www.w3.org/2000/svg">
<path d="M19 2H5C4.20435 2 3.44129 2.31607 2.87868 2.87868C2.31607 3.44129 2 4.20435 2 5V24L8 18H19C19.7956 18 20.5587 17.6839 21.1213 17.1213C21.6839 16.5587 22 15.7956 22 15V5C22 4.20435 21.6839 3.44129 21.1213 2.87868C20.5587 2.31607 19.7956 2 19 2ZM21 15C20.9994 15.5302 20.7885 16.0386 20.4135 16.4135C20.0386 16.7885 19.5302 16.9994 19 17H7.5858L7.2929 17.2929L3 21.5858V5C3.00061 4.46975 3.21152 3.9614 3.58646 3.58646C3.9614 3.21152 4.46975 3.00061 5 3H19C19.5302 3.00061 20.0386 3.21152 20.4135 3.58646C20.7885 3.9614 20.9994 4.46975 21 5V15ZM11.6114 11H12.3886L12.625 6H11.375L11.6114 11ZM12 12.375C11.8764 12.375 11.7555 12.4117 11.6528 12.4803C11.55 12.549 11.4699 12.6466 11.4226 12.7608C11.3753 12.875 11.3629 13.0007 11.387 13.1219C11.4111 13.2432 11.4706 13.3545 11.5581 13.4419C11.6455 13.5294 11.7568 13.5889 11.8781 13.613C11.9993 13.6371 12.125 13.6247 12.2392 13.5774C12.3534 13.5301 12.451 13.45 12.5197 13.3472C12.5883 13.2445 12.625 13.1236 12.625 13C12.625 12.8342 12.5592 12.6753 12.4419 12.5581C12.3247 12.4408 12.1658 12.375 12 12.375Z" fill="black"/>
</svg>
