<svg width="24" height="24" viewBox="0 0 24 24" fill="none" xmlns="http://www.w3.org/2000/svg">
<path d="M19 2H5C4.20435 2 3.44129 2.31607 2.87868 2.87868C2.31607 3.44129 2 4.20435 2 5V24L8 18H19C19.7956 18 20.5587 17.6839 21.1213 17.1213C21.6839 16.5587 22 15.7956 22 15V5C22 4.20435 21.6839 3.44129 21.1213 2.87868C20.5587 2.31607 19.7956 2 19 2ZM9 13.05C8.79233 13.05 8.58932 12.9884 8.41665 12.873C8.24398 12.7577 8.1094 12.5937 8.02993 12.4018C7.95045 12.21 7.92966 11.9988 7.97018 11.7952C8.01069 11.5915 8.11069 11.4044 8.25754 11.2575C8.40438 11.1107 8.59148 11.0107 8.79516 10.9702C8.99884 10.9297 9.20995 10.9505 9.40182 11.0299C9.59368 11.1094 9.75767 11.244 9.87304 11.4167C9.98842 11.5893 10.05 11.7923 10.05 12C10.05 12.2785 9.93938 12.5455 9.74246 12.7425C9.54555 12.9394 9.27848 13.05 9 13.05ZM9 9.05C8.79233 9.05 8.58932 8.98842 8.41665 8.87304C8.24398 8.75767 8.1094 8.59368 8.02993 8.40182C7.95045 8.20995 7.92966 7.99884 7.97018 7.79516C8.01069 7.59148 8.11069 7.40438 8.25754 7.25754C8.40438 7.11069 8.59148 7.01069 8.79516 6.97018C8.99884 6.92966 9.20995 6.95045 9.40182 7.02993C9.59368 7.1094 9.75767 7.24398 9.87304 7.41665C9.98842 7.58932 10.05 7.79233 10.05 8C10.05 8.27848 9.93938 8.54555 9.74246 8.74246C9.54555 8.93938 9.27848 9.05 9 9.05ZM16 13H11.5V11H16V13ZM16 9H11.5V7H16V9Z" fill="black"/>
</svg>
