<svg width="24" height="24" viewBox="0 0 24 24" fill="none" xmlns="http://www.w3.org/2000/svg">
<path d="M8.03941 15.9606C5.74562 13.6723 4.1563 10.7742 3.46001 7.60995C3.32313 6.8934 3.45576 6.15153 3.83242 5.52678C4.20908 4.90203 4.80323 4.43842 5.50081 4.22495L7.11561 3.70855L8.93411 7.18395L7.26741 8.85055L6.49571 9.62205L6.99231 10.5938C8.39628 13.3576 10.6424 15.6037 13.4062 17.0077L14.3779 17.5043L15.1494 16.7326L16.816 15.0659L20.2912 16.8845L19.7748 18.4993C19.5613 19.1968 19.0977 19.7909 18.473 20.1675C17.8483 20.5441 17.1065 20.6768 16.39 20.54C13.226 19.8435 10.328 18.2542 8.04001 15.9605L8.03941 15.9606ZM6.97871 17.0213C9.46841 19.5188 12.6231 21.2487 16.0676 22.0051C17.1493 22.2239 18.2738 22.0331 19.2228 21.4698C20.1718 20.9064 20.8777 20.0106 21.2035 18.9562L22.1042 16.1395L16.5342 13.2263L14.0887 15.672C11.6058 14.4117 9.5883 12.3941 8.32801 9.91125L10.7737 7.46575L7.86051 1.89575L5.04381 2.79645C3.98937 3.12229 3.09357 3.82819 2.5302 4.77719C1.96683 5.7262 1.77606 6.85064 1.99491 7.93235C2.75128 11.3768 4.48114 14.5315 6.97871 17.0213Z" fill="black"/>
</svg>
