<svg width="24" height="24" viewBox="0 0 24 24" fill="none" xmlns="http://www.w3.org/2000/svg">
<path d="M15 5H19V2H14V7H15V5ZM6 7C4.93913 7 3.92172 7.42143 3.17157 8.17157C2.42143 8.92172 2 9.93913 2 11V21H10V11C10 9.93913 9.57857 8.92172 8.82843 8.17157C8.07828 7.42143 7.06087 7 6 7ZM18 7H15V14C15 14.1326 14.9473 14.2598 14.8536 14.3536C14.7598 14.4473 14.6326 14.5 14.5 14.5C14.3674 14.5 14.2402 14.4473 14.1464 14.3536C14.0527 14.2598 14 14.1326 14 14V7H8.9692C9.59694 7.46146 10.1077 8.06374 10.4604 8.75844C10.8131 9.45315 10.9979 10.2209 11 11V21H22V11C22 9.93913 21.5786 8.92172 20.8284 8.17157C20.0783 7.42143 19.0609 7 18 7Z" fill="black"/>
</svg>
