<svg width="24" height="24" viewBox="0 0 24 24" fill="none" xmlns="http://www.w3.org/2000/svg">
<path d="M19 2H5C4.20435 2 3.44129 2.31607 2.87868 2.87868C2.31607 3.44129 2 4.20435 2 5V24L8 18H19C19.7956 18 20.5587 17.6839 21.1213 17.1213C21.6839 16.5587 22 15.7956 22 15V5C22 4.20435 21.6839 3.44129 21.1213 2.87868C20.5587 2.31607 19.7956 2 19 2ZM21 15C20.9994 15.5302 20.7885 16.0386 20.4135 16.4135C20.0386 16.7885 19.5302 16.9994 19 17H7.5858L7.2929 17.2929L3 21.5858V5C3.00061 4.46975 3.21152 3.9614 3.58646 3.58646C3.9614 3.21152 4.46975 3.00061 5 3H19C19.5302 3.00061 20.0386 3.21152 20.4135 3.58646C20.7885 3.9614 20.9994 4.46975 21 5V15ZM10.5 9H16V8H10.5V9ZM8.55 7.95C8.44122 7.95 8.33488 7.98226 8.24444 8.04269C8.15399 8.10313 8.08349 8.18902 8.04187 8.28952C8.00024 8.39002 7.98935 8.50061 8.01057 8.6073C8.03179 8.71399 8.08417 8.81199 8.16109 8.88891C8.23801 8.96583 8.33601 9.01821 8.4427 9.03943C8.54939 9.06065 8.65998 9.04976 8.76048 9.00813C8.86098 8.96651 8.94687 8.89601 9.00731 8.80556C9.06774 8.71512 9.1 8.60878 9.1 8.5C9.1 8.35413 9.04205 8.21424 8.93891 8.11109C8.83576 8.00795 8.69587 7.95 8.55 7.95ZM10.5 12H16V11H10.5V12ZM8.55 10.95C8.44122 10.95 8.33488 10.9823 8.24444 11.0427C8.15399 11.1031 8.08349 11.189 8.04187 11.2895C8.00024 11.39 7.98935 11.5006 8.01057 11.6073C8.03179 11.714 8.08417 11.812 8.16109 11.8889C8.23801 11.9658 8.33601 12.0182 8.4427 12.0394C8.54939 12.0607 8.65998 12.0498 8.76048 12.0081C8.86098 11.9665 8.94687 11.896 9.00731 11.8056C9.06774 11.7151 9.1 11.6088 9.1 11.5C9.1 11.4278 9.08577 11.3563 9.05813 11.2895C9.03049 11.2228 8.98998 11.1622 8.93891 11.1111C8.88784 11.06 8.82721 11.0195 8.76048 10.9919C8.69375 10.9642 8.62223 10.95 8.55 10.95Z" fill="black"/>
</svg>
