<svg width="24" height="24" viewBox="0 0 24 24" fill="none" xmlns="http://www.w3.org/2000/svg">
<path d="M16.5317 13.5806L13.89 16.222C11.2479 14.8957 9.1043 12.7521 7.77799 10.11L10.4194 7.46868L7.53329 1.95868L5.10579 2.73508C4.05157 3.06089 3.15592 3.76664 2.5926 4.71543C2.02928 5.66423 1.83844 6.78844 2.05709 7.86998C2.81338 11.3145 4.54325 14.4693 7.04089 16.959C9.53058 19.4566 12.6854 21.1865 16.1299 21.9428C17.2116 22.1617 18.336 21.971 19.285 21.4076C20.234 20.8443 20.9399 19.9485 21.2657 18.8941L22.0421 16.4666L16.5317 13.5806ZM20.3133 18.59C20.0611 19.4057 19.5165 20.0995 18.784 20.5381C18.0515 20.9768 17.1828 21.1294 16.3447 20.9666C13.0886 20.2459 10.106 18.6103 7.74792 16.2522C5.38982 13.894 3.75427 10.9114 3.03369 7.65528C2.87091 6.81719 3.02345 5.94851 3.46205 5.21603C3.90064 4.48355 4.59435 3.93891 5.40999 3.68668L7.03659 3.16668L9.19269 7.28068L7.07089 9.40238L6.55759 9.91568L6.88669 10.5627C8.30886 13.3939 10.6061 15.6911 13.4373 17.1133L14.0843 17.4424L14.5976 16.9291L16.7193 14.8073L20.8335 16.9631L20.3133 18.59ZM20 2.99998H19V8.99998H20V2.99998ZM17 2.99998H16V8.99998H17V2.99998Z" fill="black"/>
</svg>
