<svg width="24" height="24" viewBox="0 0 24 24" fill="none" xmlns="http://www.w3.org/2000/svg">
<path d="M19 2H5C4.20435 2 3.44129 2.31607 2.87868 2.87868C2.31607 3.44129 2 4.20435 2 5V24L8 18H19C19.7956 18 20.5587 17.6839 21.1213 17.1213C21.6839 16.5587 22 15.7956 22 15V5C22 4.20435 21.6839 3.44129 21.1213 2.87868C20.5587 2.31607 19.7956 2 19 2ZM21.5 15C21.4993 15.6628 21.2356 16.2983 20.7669 16.7669C20.2983 17.2356 19.6628 17.4993 19 17.5H7.7929L2.5 22.7929V5C2.50074 4.33719 2.76437 3.70173 3.23305 3.23305C3.70173 2.76437 4.33719 2.50074 5 2.5H19C19.6628 2.50074 20.2983 2.76437 20.7669 3.23305C21.2356 3.70173 21.4993 4.33719 21.5 5V15ZM12 11.7393C11.3204 11.7393 10.6686 11.4693 10.188 10.9888C9.70748 10.5082 9.4375 9.85642 9.4375 9.1768H8.9375C8.93989 9.94356 9.23038 10.6814 9.75134 11.244C10.2723 11.8066 10.9857 12.1529 11.75 12.2141V14H12.25V12.2141C13.0143 12.1529 13.7277 11.8066 14.2487 11.244C14.7696 10.6814 15.0601 9.94356 15.0625 9.1768H14.5625C14.5625 9.85642 14.2925 10.5082 13.812 10.9888C13.3314 11.4693 12.6796 11.7393 12 11.7393ZM12 10.5993C12.3774 10.5993 12.7393 10.4494 13.0062 10.1825C13.273 9.91571 13.423 9.55379 13.423 9.1764V6.94C13.4199 6.56468 13.2685 6.2058 13.002 5.94151C12.7355 5.67722 12.3754 5.52893 12 5.52893C11.6247 5.52893 11.2646 5.67722 10.9981 5.94151C10.7316 6.2058 10.5802 6.56468 10.5771 6.94V9.177C10.5773 9.55428 10.7272 9.91606 10.9941 10.1828C11.2609 10.4495 11.6227 10.5994 12 10.5994V10.5993ZM11.0771 6.9393C11.0796 6.69618 11.178 6.46388 11.3508 6.29286C11.5236 6.12184 11.7569 6.02591 12 6.02591C12.2432 6.02591 12.4765 6.12184 12.6493 6.29286C12.8221 6.46388 12.9205 6.69618 12.923 6.9393V9.1763C12.9205 9.41942 12.8221 9.65172 12.6493 9.82274C12.4765 9.99376 12.2432 10.0897 12 10.0897C11.7569 10.0897 11.5236 9.99376 11.3508 9.82274C11.178 9.65172 11.0796 9.41942 11.0771 9.1763V6.9393Z" fill="black"/>
</svg>
