<svg width="24" height="24" viewBox="0 0 24 24" fill="none" xmlns="http://www.w3.org/2000/svg">
<path d="M12 2C10.0222 2 8.08879 2.58649 6.4443 3.6853C4.79981 4.78412 3.51809 6.3459 2.76121 8.17317C2.00433 10.0004 1.8063 12.0111 2.19215 13.9509C2.578 15.8907 3.53041 17.6725 4.92894 19.0711C6.32746 20.4696 8.10929 21.422 10.0491 21.8079C11.9889 22.1937 13.9996 21.9957 15.8268 21.2388C17.6541 20.4819 19.2159 19.2002 20.3147 17.5557C21.4135 15.9112 22 13.9778 22 12C22 10.6868 21.7413 9.38642 21.2388 8.17317C20.7363 6.95991 19.9997 5.85752 19.0711 4.92893C18.1425 4.00035 17.0401 3.26375 15.8268 2.7612C14.6136 2.25866 13.3132 2 12 2ZM19.4959 8H16.3286C16.0485 6.54918 15.4846 5.16797 14.6692 3.9357C16.738 4.62447 18.465 6.07863 19.4959 8ZM20.5 12C20.5003 12.8475 20.3734 13.6902 20.1236 14.5H16.5865C16.6945 13.671 16.7491 12.836 16.75 12C16.7491 11.164 16.6945 10.329 16.5865 9.5H20.1236C20.3734 10.3098 20.5003 11.1525 20.5 12ZM12 20.5C10.7773 20.5 9.7156 18.6771 9.1769 16H14.8231C14.2844 18.6771 13.2227 20.5 12 20.5ZM8.9412 14.5C8.75294 12.8386 8.75294 11.1614 8.9412 9.5H15.0588C15.1537 10.3299 15.2008 11.1646 15.2 12C15.2008 12.8354 15.1537 13.6701 15.0588 14.5H8.9412ZM3.5 12C3.49968 11.1525 3.62656 10.3098 3.8764 9.5H7.4135C7.1955 11.1595 7.1955 12.8405 7.4135 14.5H3.8764C3.62656 13.6902 3.49968 12.8475 3.5 12ZM12 3.5C13.2227 3.5 14.2844 5.3228 14.8231 8H9.1769C9.7156 5.3228 10.7773 3.5 12 3.5ZM9.3308 3.9357C8.51543 5.16797 7.9515 6.54918 7.6714 8H4.5041C5.53504 6.07863 7.26197 4.62447 9.3308 3.9357ZM4.5041 16H7.6714C7.95148 17.4508 8.51541 18.832 9.3308 20.0643C7.26199 19.3755 5.53506 17.9213 4.5041 16ZM14.6692 20.0643C15.4846 18.832 16.0485 17.4508 16.3286 16H19.4959C18.4649 17.9213 16.738 19.3755 14.6692 20.0643Z" fill="black"/>
</svg>
