<svg width="24" height="24" viewBox="0 0 24 24" fill="none" xmlns="http://www.w3.org/2000/svg">
<path d="M16 6.5V3.5C16 2.83696 15.7366 2.20107 15.2678 1.73223C14.7989 1.26339 14.163 1 13.5 1H4.5C3.83696 1 3.20107 1.26339 2.73223 1.73223C2.26339 2.20107 2 2.83696 2 3.5V13.6853L6.6853 9H13.5C14.163 9 14.7989 8.73661 15.2678 8.26777C15.7366 7.79893 16 7.16304 16 6.5ZM6.064 7.5L3.5 10.064V3.5C3.50029 3.23487 3.60574 2.98069 3.79321 2.79321C3.98069 2.60574 4.23487 2.50029 4.5 2.5H13.5C13.7651 2.50029 14.0193 2.60574 14.2068 2.79321C14.3943 2.98069 14.4997 3.23487 14.5 3.5V6.5C14.4997 6.76513 14.3943 7.01931 14.2068 7.20679C14.0193 7.39426 13.7651 7.49971 13.5 7.5H6.064ZM19.5 11H10.5C9.83696 11 9.20107 11.2634 8.73223 11.7322C8.26339 12.2011 8 12.837 8 13.5V16.5C8 17.163 8.26339 17.7989 8.73223 18.2678C9.20107 18.7366 9.83696 19 10.5 19H17.3147L22 23.6853V13.5C22 12.837 21.7366 12.2011 21.2678 11.7322C20.7989 11.2634 20.163 11 19.5 11ZM20.5 20.064L17.936 17.5H10.5C10.2349 17.4997 9.98069 17.3943 9.79321 17.2068C9.60574 17.0193 9.50029 16.7651 9.5 16.5V13.5C9.50029 13.2349 9.60574 12.9807 9.79321 12.7932C9.98069 12.6057 10.2349 12.5003 10.5 12.5H19.5C19.7651 12.5003 20.0193 12.6057 20.2068 12.7932C20.3943 12.9807 20.4997 13.2349 20.5 13.5V20.064Z" fill="black"/>
</svg>
