<svg width="24" height="24" viewBox="0 0 24 24" fill="none" xmlns="http://www.w3.org/2000/svg">
<path d="M19 2H5C4.20435 2 3.44129 2.31607 2.87868 2.87868C2.31607 3.44129 2 4.20435 2 5V24L8 18H19C19.7956 18 20.5587 17.6839 21.1213 17.1213C21.6839 16.5587 22 15.7956 22 15V5C22 4.20435 21.6839 3.44129 21.1213 2.87868C20.5587 2.31607 19.7956 2 19 2ZM8.8 12.55C8.64178 12.55 8.4871 12.5031 8.35554 12.4152C8.22398 12.3273 8.12145 12.2023 8.0609 12.0561C8.00035 11.91 7.9845 11.7491 8.01537 11.5939C8.04624 11.4387 8.12243 11.2962 8.23431 11.1843C8.3462 11.0724 8.48874 10.9962 8.64393 10.9654C8.79911 10.9345 8.95997 10.9503 9.10615 11.0109C9.25233 11.0714 9.37727 11.174 9.46518 11.3055C9.55308 11.4371 9.6 11.5918 9.6 11.75C9.6 11.9622 9.51571 12.1657 9.36569 12.3157C9.21566 12.4657 9.01217 12.55 8.8 12.55ZM8.8 9.05C8.64178 9.05 8.4871 9.00308 8.35554 8.91518C8.22398 8.82727 8.12145 8.70233 8.0609 8.55615C8.00035 8.40997 7.9845 8.24911 8.01537 8.09393C8.04624 7.93874 8.12243 7.7962 8.23431 7.68431C8.3462 7.57243 8.48874 7.49624 8.64393 7.46537C8.79911 7.4345 8.95997 7.45035 9.10615 7.5109C9.25233 7.57145 9.37727 7.67398 9.46518 7.80554C9.55308 7.9371 9.6 8.09177 9.6 8.25C9.6 8.46217 9.51571 8.66566 9.36569 8.81569C9.21566 8.96571 9.01217 9.05 8.8 9.05ZM16 12.5H11V11H16V12.5ZM16 9H11V7.5H16V9Z" fill="black"/>
</svg>
