<svg width="24" height="24" viewBox="0 0 24 24" fill="none" xmlns="http://www.w3.org/2000/svg">
<path d="M21 3.00001H19V9.00001H21V3.00001ZM17 3.00001H15V9.00001H17V3.00001ZM16.5368 12.8718L14.2868 15.1218C11.9637 13.9275 10.0724 12.0362 8.87812 9.71301L11.1281 7.46301L8.18812 1.83301L4.98192 2.85871C3.92745 3.18451 3.0316 3.89039 2.46819 4.8394C1.90478 5.78841 1.71398 6.91287 1.93282 7.99461C2.68918 11.4391 4.41904 14.5938 6.91662 17.0834C9.40628 19.581 12.561 21.3109 16.0054 22.0672C17.0872 22.286 18.2116 22.0952 19.1606 21.5318C20.1096 20.9684 20.8155 20.0726 21.1413 19.0181L22.1664 15.8122L16.5368 12.8718ZM19.2368 18.409C19.0621 18.9885 18.6794 19.483 18.1624 19.7976C17.6454 20.1122 17.0304 20.2248 16.4354 20.1138C13.3658 19.4343 10.5541 17.8923 8.33103 15.6693C6.10792 13.4463 4.56586 10.6347 3.88622 7.56511C3.77518 6.97014 3.88779 6.35513 4.20243 5.8381C4.51706 5.32108 5.01156 4.93847 5.59102 4.76371L7.19412 4.25111L8.67552 7.08731L7.46392 8.29871L6.43392 9.32871L7.09802 10.625C8.48367 13.3214 10.6787 15.5165 13.3751 16.9021L14.6714 17.5662L15.7014 16.5362L16.9128 15.3246L19.749 16.806L19.2368 18.409Z" fill="black"/>
</svg>
