<svg width="24" height="24" viewBox="0 0 24 24" fill="none" xmlns="http://www.w3.org/2000/svg">
<path d="M19.9123 14.3113C17.5485 12.804 14.8034 12.0032 12 12.0032C9.19653 12.0032 6.45142 12.804 4.08767 14.3113C3.35656 14.7965 2.83169 15.5359 2.61486 16.3861C2.39803 17.2364 2.5047 18.1368 2.91417 18.9129L3.84217 20.7135L8.56287 19.238V16.4085C10.7945 15.6685 13.2054 15.6685 15.4371 16.4085V19.238L20.1578 20.7135L21.0858 18.9129C21.4953 18.1368 21.6019 17.2364 21.3851 16.3861C21.1683 15.5359 20.6434 14.7965 19.9123 14.3113ZM20.2561 18.4854L19.6877 19.5883L16.37 18.5523V15.7312L15.726 15.5212C13.3063 14.7199 10.6927 14.7199 8.27297 15.5212L7.62897 15.7312V18.5523L4.31167 19.5883L3.74327 18.4854C3.44197 17.9157 3.36175 17.2547 3.518 16.6294C3.67426 16.0041 4.05598 15.4586 4.58987 15.0976C6.80348 13.6863 9.37413 12.9365 11.9994 12.9365C14.6246 12.9365 17.1953 13.6863 19.4089 15.0976C19.9429 15.4585 20.3247 16.004 20.4811 16.6293C20.6374 17.2546 20.5573 17.9156 20.2561 18.4854ZM5.99997 3.7071L12 9.7071L18.4268 3.28L17.72 2.5732L12 8.293L6.70707 3H10.1161V2H4.99997V7.1161H5.99997V3.7071Z" fill="black"/>
</svg>
