<svg width="24" height="24" viewBox="0 0 24 24" fill="none" xmlns="http://www.w3.org/2000/svg">
<path d="M19 2H5C4.20435 2 3.44129 2.31607 2.87868 2.87868C2.31607 3.44129 2 4.20435 2 5V24L8 18H19C19.7956 18 20.5587 17.6839 21.1213 17.1213C21.6839 16.5587 22 15.7956 22 15V5C22 4.20435 21.6839 3.44129 21.1213 2.87868C20.5587 2.31607 19.7956 2 19 2ZM20 15C19.9997 15.2651 19.8943 15.5193 19.7068 15.7068C19.5193 15.8943 19.2651 15.9997 19 16H7.1716L4 19.1716V5C4.00029 4.73487 4.10574 4.48069 4.29321 4.29321C4.48069 4.10574 4.73487 4.00029 5 4H19C19.2651 4.00029 19.5193 4.10574 19.7068 4.29321C19.8943 4.48069 19.9997 4.73487 20 5V15ZM12 11.3281C11.3626 11.3269 10.7487 11.0873 10.2789 10.6566C9.80914 10.2258 9.51743 9.6349 9.4611 9H8.0611C8.11356 9.88451 8.46121 10.7259 9.04841 11.3894C9.63562 12.053 10.4284 12.5004 11.3 12.66V14H12.7V12.66C13.5715 12.5003 14.3643 12.0529 14.9515 11.3894C15.5387 10.7258 15.8863 9.8845 15.9388 9H14.5388C14.4825 9.63488 14.1908 10.2258 13.721 10.6565C13.2512 11.0873 12.6374 11.3269 12 11.3281ZM12 10.25C12.1642 10.25 12.3267 10.2177 12.4784 10.1548C12.63 10.092 12.7678 9.99996 12.8839 9.88388C13 9.76781 13.092 9.63001 13.1548 9.47835C13.2177 9.3267 13.25 9.16415 13.25 9V6.6665C13.25 6.33498 13.1183 6.01704 12.8839 5.78262C12.6495 5.5482 12.3315 5.4165 12 5.4165C11.6685 5.4165 11.3505 5.5482 11.1161 5.78262C10.8817 6.01704 10.75 6.33498 10.75 6.6665V9C10.75 9.16415 10.7823 9.3267 10.8452 9.47835C10.908 9.63001 11 9.76781 11.1161 9.88388C11.2322 9.99996 11.37 10.092 11.5216 10.1548C11.6733 10.2177 11.8358 10.25 12 10.25Z" fill="black"/>
</svg>
