<svg width="24" height="24" viewBox="0 0 24 24" fill="none" xmlns="http://www.w3.org/2000/svg">
<path d="M19 2H5C4.20435 2 3.44129 2.31607 2.87868 2.87868C2.31607 3.44129 2 4.20435 2 5V24L8 18H19C19.7956 18 20.5587 17.6839 21.1213 17.1213C21.6839 16.5587 22 15.7956 22 15V5C22 4.20435 21.6839 3.44129 21.1213 2.87868C20.5587 2.31607 19.7956 2 19 2ZM12.35 6L12.2177 11H11.7823L11.65 6H12.35ZM12 13.4C11.9209 13.4 11.8436 13.3765 11.7778 13.3326C11.712 13.2886 11.6607 13.2262 11.6304 13.1531C11.6002 13.08 11.5923 12.9996 11.6077 12.922C11.6231 12.8444 11.6612 12.7731 11.7172 12.7172C11.7731 12.6612 11.8444 12.6231 11.922 12.6077C11.9996 12.5923 12.08 12.6002 12.1531 12.6304C12.2262 12.6607 12.2886 12.712 12.3326 12.7778C12.3765 12.8436 12.4 12.9209 12.4 13C12.4 13.1061 12.3579 13.2078 12.2828 13.2828C12.2078 13.3579 12.1061 13.4 12 13.4Z" fill="black"/>
</svg>
