<svg width="24" height="24" viewBox="0 0 24 24" fill="none" xmlns="http://www.w3.org/2000/svg">
<path d="M17 3.00001H15V9.00001H17V3.00001ZM21 3.00001H19V9.00001H21V3.00001ZM16.8612 14.7384L14.4761 17.1235C12.7879 16.3903 11.2478 15.355 9.93152 14.0685C8.64502 12.7523 7.6097 11.2121 6.87652 9.52391L9.26162 7.13881L6.77162 2.15881L5.16762 2.67191C4.11328 2.99785 3.21758 3.70379 2.65429 4.65278C2.091 5.60177 1.90028 6.72616 2.11912 7.80781C2.8755 11.2524 4.60539 14.4072 7.10302 16.897C9.59282 19.3946 12.7476 21.1245 16.1922 21.8809C17.2739 22.0997 18.3982 21.909 19.3472 21.3457C20.2962 20.7824 21.0021 19.8867 21.328 18.8323L21.8411 17.2283L16.8612 14.7384Z" fill="black"/>
</svg>
