<svg width="24" height="24" viewBox="0 0 24 24" fill="none" xmlns="http://www.w3.org/2000/svg">
<path d="M7.74798 16.252C5.38657 13.8964 3.75043 10.9128 3.03368 7.6553C2.87089 6.81721 3.02344 5.94853 3.46203 5.21605C3.90062 4.48357 4.59434 3.93893 5.40998 3.6867L7.03648 3.1667L9.19268 7.2807L7.07088 9.4024L6.55758 9.9157L6.88658 10.5628C8.30891 13.3939 10.6061 15.6911 13.4372 17.1134L14.0843 17.4424L14.5976 16.9291L16.7193 14.8073L20.8335 16.9632L20.3135 18.5897C20.0613 19.4054 19.5167 20.0992 18.7842 20.5378C18.0517 20.9765 17.183 21.1291 16.3449 20.9663C13.0873 20.2496 10.1037 18.6134 7.74798 16.252ZM7.04088 16.9591C9.53061 19.4568 12.6854 21.1867 16.13 21.943C17.2117 22.1619 18.3361 21.9711 19.285 21.4078C20.234 20.8444 20.9399 19.9487 21.2658 18.8943L22.0422 16.4668L16.5322 13.5807L13.89 16.222C11.2479 14.8957 9.10429 12.7521 7.77798 10.11L10.4193 7.4688L7.53318 1.9588L5.10568 2.7352C4.0515 3.06105 3.1559 3.76679 2.59259 4.71555C2.02928 5.66432 1.8384 6.78848 2.05698 7.87C2.81333 11.3145 4.54323 14.4693 7.04088 16.959V16.9591Z" fill="black"/>
</svg>
