<svg width="24" height="24" viewBox="0 0 24 24" fill="none" xmlns="http://www.w3.org/2000/svg">
<path d="M21.1624 8C20.1027 5.58311 18.1328 3.68155 15.68 2.7079C16.4938 4.37084 17.0172 6.16065 17.2278 8H21.1624ZM21.7991 10H17.4321C17.4753 10.662 17.5 11.3308 17.5 12C17.5 12.6692 17.4753 13.338 17.4321 14H21.7991C22.067 12.6801 22.067 11.3199 21.7991 10ZM12 22C13.4349 22 14.6666 19.5305 15.2068 16H8.7932C9.3334 19.5305 10.5651 22 12 22ZM8.57 10C8.5241 10.6463 8.5 11.315 8.5 12C8.5 12.685 8.5244 13.3537 8.57 14H15.43C15.4759 13.3537 15.5 12.685 15.5 12C15.5 11.315 15.4756 10.6463 15.43 10H8.57ZM2.8376 16C3.89723 18.4169 5.86718 20.3185 8.32 21.2921C7.50625 19.6292 6.98277 17.8393 6.7722 16H2.8376ZM15.68 21.2921C18.1328 20.3185 20.1027 18.4169 21.1624 16H17.2278C17.0172 17.8393 16.4938 19.6292 15.68 21.2921ZM2.8376 8H6.7722C6.98277 6.16065 7.50625 4.37084 8.32 2.7079C5.86718 3.68152 3.89723 5.58309 2.8376 8ZM6.5 12C6.5 11.3308 6.5247 10.662 6.5679 10H2.2009C1.93303 11.3199 1.93303 12.6801 2.2009 14H6.5679C6.5247 13.338 6.5 12.6692 6.5 12ZM12 2C10.5651 2 9.3334 4.47 8.7932 8H15.2068C14.6666 4.47 13.4349 2 12 2Z" fill="black"/>
</svg>
