<svg width="24" height="24" viewBox="0 0 24 24" fill="none" xmlns="http://www.w3.org/2000/svg">
<path d="M16 6.5V3.5C16 2.83696 15.7366 2.20107 15.2678 1.73223C14.7989 1.26339 14.163 1 13.5 1H4.5C3.83696 1 3.20107 1.26339 2.73223 1.73223C2.26339 2.20107 2 2.83696 2 3.5V13.3706L6.3706 9H13.5C14.163 9 14.7989 8.73661 15.2678 8.26777C15.7366 7.79893 16 7.16304 16 6.5ZM5.9564 8L5.6635 8.2929L3 10.9564V3.5C3.00045 3.10231 3.15863 2.72104 3.43984 2.43984C3.72104 2.15863 4.10231 2.00045 4.5 2H13.5C13.8977 2.00045 14.279 2.15863 14.5602 2.43984C14.8414 2.72104 14.9995 3.10231 15 3.5V6.5C14.9995 6.89769 14.8414 7.27896 14.5602 7.56016C14.279 7.84137 13.8977 7.99955 13.5 8H5.9564ZM19.5 11H10.5C9.83696 11 9.20107 11.2634 8.73223 11.7322C8.26339 12.2011 8 12.837 8 13.5V16.5C8 17.163 8.26339 17.7989 8.73223 18.2678C9.20107 18.7366 9.83696 19 10.5 19H17.6294L22 23.3706V13.5C22 12.837 21.7366 12.2011 21.2678 11.7322C20.7989 11.2634 20.163 11 19.5 11ZM21 20.9564L18.3365 18.2929L18.0436 18H10.5C10.1023 17.9995 9.72104 17.8414 9.43984 17.5602C9.15863 17.279 9.00045 16.8977 9 16.5V13.5C9.00045 13.1023 9.15863 12.721 9.43984 12.4398C9.72104 12.1586 10.1023 12.0005 10.5 12H19.5C19.8977 12.0005 20.279 12.1586 20.5602 12.4398C20.8414 12.721 20.9995 13.1023 21 13.5V20.9564Z" fill="black"/>
</svg>
