<svg width="24" height="24" viewBox="0 0 24 24" fill="none" xmlns="http://www.w3.org/2000/svg">
<path d="M14.5 5H19V2H14V7H14.5V5ZM6.1427 7H6C4.93913 7 3.92172 7.42143 3.17157 8.17157C2.42143 8.92172 2 9.93913 2 11V21H6.0131V20.9869H10.0131V10.9869C10.012 9.94984 9.60752 8.95388 8.88516 8.20978C8.1628 7.46568 7.17927 7.03182 6.1427 7ZM18 7H14.5V14C14.5 14.0663 14.4737 14.1299 14.4268 14.1768C14.3799 14.2237 14.3163 14.25 14.25 14.25C14.1837 14.25 14.1201 14.2237 14.0732 14.1768C14.0263 14.1299 14 14.0663 14 14V7H8.0554C8.79241 7.37386 9.41189 7.94395 9.84555 8.64744C10.2792 9.35093 10.5102 10.1605 10.5131 10.9869V21H22V11C22 9.93913 21.5786 8.92172 20.8284 8.17157C20.0783 7.42143 19.0609 7 18 7Z" fill="black"/>
</svg>
