<svg width="24" height="24" viewBox="0 0 24 24" fill="none" xmlns="http://www.w3.org/2000/svg">
<path d="M19.9023 14.3068C17.5415 12.8014 14.7999 12.0016 12 12.0016C9.20008 12.0016 6.45844 12.8014 4.09769 14.3068C3.36735 14.7913 2.84303 15.5298 2.62647 16.3791C2.40991 17.2283 2.51654 18.1277 2.92569 18.9028L4.00119 20.99L8.76479 19.4981V17.0331C10.8671 16.3466 13.1333 16.3466 15.2356 17.0331V19.4981L19.9988 20.99L21.0743 18.9032C21.4835 18.1281 21.5902 17.2286 21.3737 16.3792C21.1571 15.5299 20.6327 14.7913 19.9023 14.3068ZM19.8595 18.2768L19.3107 19.3417L16.6019 18.4941V16.0386L15.656 15.7325C13.2802 14.9573 10.7194 14.9573 8.34359 15.7325L7.39769 16.0386V18.494L4.68889 19.3416L4.14009 18.2767C3.88795 17.804 3.81928 17.2549 3.94726 16.7347C4.07523 16.2145 4.39084 15.7599 4.83349 15.4581C6.97443 14.0933 9.46061 13.3682 11.9996 13.3682C14.5386 13.3682 17.0247 14.0933 19.1657 15.4581C19.6085 15.7597 19.9243 16.2143 20.0524 16.7345C20.1806 17.2547 20.112 17.8039 19.86 18.2767L19.8595 18.2768ZM12 10.0605L18.6035 3.457L17.543 2.397L12 7.94L7.80429 3.7437L9.54799 2H4.99999V6.548L6.74379 4.8043L12 10.0605Z" fill="black"/>
</svg>
