<svg width="24" height="24" viewBox="0 0 24 24" fill="none" xmlns="http://www.w3.org/2000/svg">
<path d="M8.3351 16C8.9526 19.5305 10.36 22 12 22C13.64 22 15.0474 19.5305 15.6649 16H8.3351ZM21.5408 9H16.8162C16.9386 9.99531 17 10.9972 17 12C17 13.0028 16.9386 14.0047 16.8162 15H21.5408C22.1531 13.0469 22.1531 10.9531 21.5408 9ZM21.1624 8C20.5508 6.60504 19.629 5.36804 18.4671 4.3832C17.3052 3.39836 15.9339 2.69165 14.4576 2.3169C15.6583 3.99659 16.4188 5.95053 16.6694 8H21.1624ZM8 12C7.99882 13.0028 8.06017 14.0048 8.1837 15H15.8163C15.9398 14.0048 16.0012 13.0028 16 12C16.0012 10.9972 15.9398 9.99521 15.8163 9H8.1837C8.06017 9.99521 7.99882 10.9972 8 12ZM14.4576 21.6831C15.9339 21.3083 17.3052 20.6016 18.4671 19.6168C19.629 18.632 20.5508 17.395 21.1624 16H16.6694C16.4188 18.0495 15.6583 20.0034 14.4576 21.6831ZM7 12C6.99999 10.9972 7.06138 9.99531 7.1838 9H2.4592C1.84693 10.9531 1.84693 13.0469 2.4592 15H7.1838C7.06138 14.0047 6.99999 13.0028 7 12ZM2.8376 16C3.44916 17.395 4.37099 18.632 5.53288 19.6168C6.69478 20.6016 8.06609 21.3083 9.5424 21.6831C8.34166 20.0034 7.58121 18.0495 7.3306 16H2.8376ZM9.5424 2.3169C8.06612 2.6917 6.69482 3.39842 5.53293 4.38326C4.37105 5.3681 3.4492 6.60507 2.8376 8H7.3306C7.58121 5.95053 8.34166 3.99659 9.5424 2.3169ZM15.6649 8C15.0474 4.47 13.64 2 12 2C10.36 2 8.9526 4.47 8.3351 8H15.6649Z" fill="black"/>
</svg>
