<svg width="24" height="24" viewBox="0 0 24 24" fill="none" xmlns="http://www.w3.org/2000/svg">
<path d="M16.5368 12.8718L14.2868 15.1218C11.9636 13.9275 10.0723 12.0362 8.87806 9.71301L11.1281 7.46301L8.18806 1.83301L4.98186 2.85871C3.92739 3.18451 3.03154 3.89039 2.46813 4.8394C1.90472 5.78841 1.71392 6.91287 1.93276 7.99461C2.68912 11.4391 4.41898 14.5938 6.91656 17.0834C9.40622 19.581 12.5609 21.3109 16.0054 22.0672C17.0871 22.286 18.2116 22.0952 19.1606 21.5318C20.1096 20.9684 20.8155 20.0726 21.1413 19.0181L22.1664 15.8122L16.5368 12.8718ZM19.2368 18.409C19.062 18.9885 18.6794 19.483 18.1624 19.7976C17.6453 20.1122 17.0303 20.2248 16.4354 20.1138C13.3658 19.4343 10.5541 17.8923 8.33097 15.6693C6.10786 13.4463 4.5658 10.6347 3.88616 7.56511C3.77512 6.97014 3.88773 6.35513 4.20236 5.8381C4.517 5.32108 5.0115 4.93847 5.59096 4.76371L7.19406 4.25111L8.67546 7.08731L7.46386 8.29871L6.43386 9.32871L7.09796 10.625C8.48361 13.3214 10.6786 15.5165 13.3751 16.9021L14.6714 17.5662L15.7014 16.5362L16.9128 15.3246L19.749 16.806L19.2368 18.409ZM19 9.04161L22.0416 6.00001L19 2.95841V5.00001H14V7.00001H19V9.04161Z" fill="black"/>
</svg>
