<svg width="24" height="24" viewBox="0 0 24 24" fill="none" xmlns="http://www.w3.org/2000/svg">
<path d="M19 2H5C4.20435 2 3.44129 2.31607 2.87868 2.87868C2.31607 3.44129 2 4.20435 2 5V24L8 18H19C19.7956 18 20.5587 17.6839 21.1213 17.1213C21.6839 16.5587 22 15.7956 22 15V5C22 4.20435 21.6839 3.44129 21.1213 2.87868C20.5587 2.31607 19.7956 2 19 2ZM10.85 6.667C10.85 6.36189 10.9712 6.06929 11.1869 5.85354C11.4027 5.6378 11.6953 5.5166 12.0004 5.5166C12.3055 5.5166 12.5981 5.6378 12.8139 5.85354C13.0296 6.06929 13.1508 6.36189 13.1508 6.667V9C13.1508 9.30511 13.0296 9.59771 12.8139 9.81346C12.5981 10.0292 12.3055 10.1504 12.0004 10.1504C11.6953 10.1504 11.4027 10.0292 11.1869 9.81346C10.9712 9.59771 10.85 9.30511 10.85 9V6.667ZM12.6 12.47V14H11.4V12.47C10.5613 12.3322 9.79423 11.9139 9.22408 11.2836C8.65394 10.6533 8.31448 9.84824 8.2612 9H9.4612C9.51622 9.63544 9.80753 10.2272 10.2776 10.6583C10.7476 11.0894 11.3623 11.3286 12.0001 11.3286C12.6379 11.3286 13.2526 11.0894 13.7226 10.6583C14.1927 10.2272 14.484 9.63544 14.539 9H15.739C15.6857 9.84827 15.3462 10.6534 14.776 11.2837C14.2059 11.914 13.4387 12.3322 12.6 12.47Z" fill="black"/>
</svg>
