<svg width="24" height="24" viewBox="0 0 24 24" fill="none" xmlns="http://www.w3.org/2000/svg">
<path d="M16 10H18C17.9988 8.93948 17.5771 7.92271 16.8272 7.1728C16.0773 6.4229 15.0605 6.00111 14 6V8C14.5302 8.00061 15.0386 8.21152 15.4135 8.58646C15.7884 8.9614 15.9994 9.46975 16 10ZM20 10H22C21.9975 7.87902 21.1539 5.8456 19.6541 4.34584C18.1544 2.84607 16.1209 2.00243 14 2V4C15.5907 4.00175 17.1158 4.63445 18.2407 5.75929C19.3655 6.88413 19.9982 8.40924 20 10ZM14.4761 17.1235C12.7878 16.3903 11.2477 15.355 9.93146 14.0685C8.64496 12.7522 7.60964 11.2121 6.87646 9.5239L9.26156 7.1388L6.77156 2.1588L5.16756 2.6719C4.11321 2.99784 3.21752 3.70377 2.65423 4.65276C2.09094 5.60175 1.90022 6.72614 2.11906 7.8078C2.87544 11.2524 4.60533 14.4072 7.10296 16.897C9.59276 19.3946 12.7476 21.1245 16.1922 21.8809C17.2738 22.0997 18.3982 21.909 19.3472 21.3457C20.2961 20.7823 21.002 19.8866 21.328 18.8323L21.8411 17.2283L16.8611 14.7383L14.4761 17.1235Z" fill="black"/>
</svg>
