<svg width="24" height="24" viewBox="0 0 24 24" fill="none" xmlns="http://www.w3.org/2000/svg">
<path d="M19 2H5C4.20435 2 3.44129 2.31607 2.87868 2.87868C2.31607 3.44129 2 4.20435 2 5V24L8 18H19C19.7956 18 20.5587 17.6839 21.1213 17.1213C21.6839 16.5587 22 15.7956 22 15V5C22 4.20435 21.6839 3.44129 21.1213 2.87868C20.5587 2.31607 19.7956 2 19 2ZM21.5 15C21.4993 15.6628 21.2356 16.2983 20.7669 16.7669C20.2983 17.2356 19.6628 17.4993 19 17.5H7.7929L2.5 22.7929V5C2.50074 4.33719 2.76437 3.70173 3.23305 3.23305C3.70173 2.76437 4.33719 2.50074 5 2.5H19C19.6628 2.50074 20.2983 2.76437 20.7669 3.23305C21.2356 3.70173 21.4993 4.33719 21.5 5V15ZM13.0378 8.7252L12 5.5312L10.9622 8.7252H7.6038L10.3208 10.6992L9.283 13.8932L12 11.9192L14.717 13.8932L13.6792 10.6992L16.3962 8.7252H13.0378ZM13.2512 10.8383L13.8612 12.7151L12.2647 11.5551L12 11.363L11.7355 11.5552L10.139 12.7152L10.749 10.8384L10.85 10.5274L10.5855 10.3352L8.989 9.1752H11.289L11.3901 8.8643L12 6.9874L12.61 8.8643L12.711 9.1752H15.011L13.4145 10.3352L13.15 10.5274L13.2512 10.8383Z" fill="black"/>
</svg>
