<svg width="24" height="24" viewBox="0 0 24 24" fill="none" xmlns="http://www.w3.org/2000/svg">
<path d="M21 5H20V4C20 3.46957 19.7892 2.96086 19.4142 2.58579C19.0391 2.21071 18.5304 2 18 2C17.4695 2 16.9608 2.21071 16.5857 2.58579C16.2107 2.96086 16 3.46957 16 4V5H15V9H21V5ZM19.5 5H16.5V4C16.5 3.60218 16.658 3.22064 16.9393 2.93934C17.2206 2.65804 17.6021 2.5 18 2.5C18.3978 2.5 18.7793 2.65804 19.0606 2.93934C19.3419 3.22064 19.5 3.60218 19.5 4V5ZM16.8612 14.7384L14.4761 17.1235C12.7878 16.3903 11.2477 15.355 9.93146 14.0685C8.64496 12.7522 7.60964 11.2121 6.87646 9.5239L9.26156 7.1388L6.77156 2.1588L5.16756 2.6719C4.11321 2.99784 3.21752 3.70377 2.65423 4.65276C2.09094 5.60175 1.90022 6.72614 2.11906 7.8078C2.87544 11.2524 4.60533 14.4072 7.10296 16.897C9.59276 19.3946 12.7476 21.1245 16.1922 21.8809C17.2738 22.0997 18.3982 21.909 19.3472 21.3457C20.2961 20.7823 21.002 19.8866 21.328 18.8323L21.8411 17.2283L16.8612 14.7384Z" fill="black"/>
</svg>
