<svg width="24" height="24" viewBox="0 0 24 24" fill="none" xmlns="http://www.w3.org/2000/svg">
<path d="M19 2H5C4.20435 2 3.44129 2.31607 2.87868 2.87868C2.31607 3.44129 2 4.20435 2 5V24L8 18H19C19.7956 18 20.5587 17.6839 21.1213 17.1213C21.6839 16.5587 22 15.7956 22 15V5C22 4.20435 21.6839 3.44129 21.1213 2.87868C20.5587 2.31607 19.7956 2 19 2ZM20.5 15C20.4995 15.3977 20.3414 15.779 20.0602 16.0602C19.779 16.3414 19.3977 16.4995 19 16.5H7.3787L6.9393 16.9393L3.5 20.3787V5C3.50045 4.60231 3.65863 4.22104 3.93984 3.93984C4.22104 3.65863 4.60231 3.50045 5 3.5H19C19.3977 3.50045 19.779 3.65863 20.0602 3.93984C20.3414 4.22104 20.4995 4.60231 20.5 5V15ZM11 9H16V7.5H11V9ZM8.8 7.45C8.64178 7.45 8.4871 7.49692 8.35554 7.58482C8.22398 7.67273 8.12145 7.79767 8.0609 7.94385C8.00035 8.09003 7.9845 8.25089 8.01537 8.40607C8.04624 8.56126 8.12243 8.7038 8.23431 8.81569C8.3462 8.92757 8.48874 9.00376 8.64393 9.03463C8.79911 9.0655 8.95997 9.04965 9.10615 8.9891C9.25233 8.92855 9.37727 8.82602 9.46518 8.69446C9.55308 8.5629 9.6 8.40823 9.6 8.25C9.6 8.03783 9.51571 7.83434 9.36569 7.68431C9.21566 7.53429 9.01217 7.45 8.8 7.45ZM11 12.5H16V11H11V12.5ZM8.8 10.95C8.64178 10.95 8.4871 10.9969 8.35554 11.0848C8.22398 11.1727 8.12145 11.2977 8.0609 11.4439C8.00035 11.59 7.9845 11.7509 8.01537 11.9061C8.04624 12.0613 8.12243 12.2038 8.23431 12.3157C8.3462 12.4276 8.48874 12.5038 8.64393 12.5346C8.79911 12.5655 8.95997 12.5497 9.10615 12.4891C9.25233 12.4286 9.37727 12.326 9.46518 12.1945C9.55308 12.0629 9.6 11.9082 9.6 11.75C9.6 11.5378 9.51571 11.3343 9.36569 11.1843C9.21566 11.0343 9.01217 10.95 8.8 10.95Z" fill="black"/>
</svg>
