<svg width="24" height="24" viewBox="0 0 24 24" fill="none" xmlns="http://www.w3.org/2000/svg">
<path d="M16.75 10H17.25C17.249 9.13837 16.9062 8.3123 16.2969 7.70303C15.6877 7.09375 14.8616 6.75102 14 6.75001V7.25001C14.7291 7.25075 15.4281 7.54072 15.9437 8.05629C16.4592 8.57185 16.7492 9.2709 16.75 10ZM20.75 10H21.25C21.2478 8.07784 20.4833 6.23501 19.1241 4.87583C17.765 3.51665 15.9221 2.75213 14 2.75001V3.25001C15.7895 3.25205 17.5052 3.96386 18.7707 5.22929C20.0361 6.49472 20.7479 8.21043 20.75 10ZM16.8612 14.7384L14.4761 17.1235C12.7878 16.3903 11.2477 15.355 9.93146 14.0685C8.64496 12.7523 7.60964 11.2121 6.87646 9.52391L9.26156 7.13881L6.77156 2.15881L5.16756 2.67191C4.11321 2.99785 3.21752 3.70379 2.65423 4.65278C2.09094 5.60177 1.90022 6.72616 2.11906 7.80781C2.87544 11.2524 4.60533 14.4072 7.10296 16.897C9.59276 19.3946 12.7476 21.1245 16.1922 21.8809C17.2738 22.0997 18.3982 21.909 19.3472 21.3457C20.2961 20.7824 21.002 19.8867 21.328 18.8323L21.8411 17.2283L16.8612 14.7384Z" fill="black"/>
</svg>
