<svg width="24" height="24" viewBox="0 0 24 24" fill="none" xmlns="http://www.w3.org/2000/svg">
<path d="M14.2629 7.39121C14.42 7.80846 14.6463 8.19625 14.9322 8.53831L16.3266 7.92451L17.17 8.41141L17.3364 9.93311C17.7743 10.0223 18.2257 10.0223 18.6636 9.93311L18.83 8.41141L19.6734 7.92451L21.0678 8.53831C21.3538 8.19625 21.58 7.80846 21.7371 7.39121L20.5034 6.48691V5.51311L21.7371 4.60871C21.5801 4.19147 21.3538 3.8037 21.0678 3.46171L19.6733 4.07541L18.83 3.58861L18.6636 2.06691C18.2257 1.97771 17.7743 1.97771 17.3364 2.06691L17.17 3.58861L16.3267 4.07541L14.9323 3.46171C14.6463 3.80369 14.42 4.19146 14.2629 4.60871L15.4966 5.51311V6.48691L14.2629 7.39121ZM18 5.00001C18.1978 5.00001 18.3911 5.05866 18.5556 5.16854C18.72 5.27842 18.8482 5.4346 18.9239 5.61732C18.9996 5.80005 19.0194 6.00112 18.9808 6.1951C18.9422 6.38908 18.847 6.56726 18.7071 6.70711C18.5673 6.84697 18.3891 6.94221 18.1951 6.98079C18.0011 7.01938 17.8001 6.99957 17.6173 6.92389C17.4346 6.8482 17.2784 6.72003 17.1686 6.55558C17.0587 6.39113 17 6.19779 17 6.00001C17 5.73479 17.1054 5.48044 17.2929 5.2929C17.4804 5.10536 17.7348 5.00001 18 5.00001ZM16.5368 12.8718L14.2868 15.1218C11.9637 13.9275 10.0724 12.0362 8.87812 9.71301L11.1281 7.46301L8.18812 1.83301L4.98192 2.85871C3.92745 3.18451 3.0316 3.89039 2.46819 4.8394C1.90478 5.78841 1.71398 6.91287 1.93282 7.99461C2.68918 11.4391 4.41904 14.5938 6.91662 17.0834C9.40628 19.581 12.561 21.3109 16.0054 22.0672C17.0872 22.286 18.2116 22.0952 19.1606 21.5318C20.1096 20.9684 20.8155 20.0726 21.1413 19.0181L22.1664 15.8122L16.5368 12.8718ZM19.2368 18.409C19.0621 18.9885 18.6794 19.483 18.1624 19.7976C17.6454 20.1122 17.0304 20.2248 16.4354 20.1138C13.3658 19.4343 10.5541 17.8923 8.33103 15.6693C6.10792 13.4463 4.56586 10.6347 3.88622 7.56511C3.77518 6.97014 3.88779 6.35513 4.20243 5.8381C4.51706 5.32108 5.01156 4.93847 5.59102 4.76371L7.19412 4.25111L8.67552 7.08731L7.46392 8.29871L6.43392 9.32871L7.09802 10.625C8.48367 13.3214 10.6787 15.5165 13.3751 16.9021L14.6714 17.5662L15.7014 16.5362L16.9128 15.3246L19.749 16.806L19.2368 18.409Z" fill="black"/>
</svg>
