<svg width="24" height="24" viewBox="0 0 24 24" fill="none" xmlns="http://www.w3.org/2000/svg">
<path d="M19 2H5C4.20435 2 3.44129 2.31607 2.87868 2.87868C2.31607 3.44129 2 4.20435 2 5V24L8 18H19C19.7956 18 20.5587 17.6839 21.1213 17.1213C21.6839 16.5587 22 15.7956 22 15V5C22 4.20435 21.6839 3.44129 21.1213 2.87868C20.5587 2.31607 19.7956 2 19 2ZM14.6143 12.2607L14.2607 12.6143L12 10.3535L9.7393 12.6143L9.3857 12.2607L11.6465 10L9.3857 7.7393L9.7393 7.3857L12 9.6465L14.2607 7.3857L14.6143 7.7393L12.3535 10L14.6143 12.2607Z" fill="black"/>
</svg>
