<svg width="24" height="24" viewBox="0 0 24 24" fill="none" xmlns="http://www.w3.org/2000/svg">
<path d="M16 6.5V3.5C16 2.83696 15.7366 2.20107 15.2678 1.73223C14.7989 1.26339 14.163 1 13.5 1H4.5C3.83696 1 3.20107 1.26339 2.73223 1.73223C2.26339 2.20107 2 2.83696 2 3.5V14L7 9H13.5C14.163 9 14.7989 8.73661 15.2678 8.26777C15.7366 7.79893 16 7.16304 16 6.5ZM6.1716 7L4 9.1716V3.5C4.00016 3.36744 4.05289 3.24036 4.14662 3.14662C4.24036 3.05289 4.36744 3.00016 4.5 3H13.5C13.6326 3.00016 13.7596 3.05289 13.8534 3.14662C13.9471 3.24036 13.9998 3.36744 14 3.5V6.5C13.9998 6.63256 13.9471 6.75964 13.8534 6.85338C13.7596 6.94711 13.6326 6.99984 13.5 7H6.1716ZM19.5 11H10.5C9.83696 11 9.20107 11.2634 8.73223 11.7322C8.26339 12.2011 8 12.837 8 13.5V16.5C8 17.163 8.26339 17.7989 8.73223 18.2678C9.20107 18.7366 9.83696 19 10.5 19H17L22 24V13.5C22 12.837 21.7366 12.2011 21.2678 11.7322C20.7989 11.2634 20.163 11 19.5 11ZM20 19.1716L17.8284 17H10.5C10.3674 16.9998 10.2404 16.9471 10.1466 16.8534C10.0529 16.7596 10.0002 16.6326 10 16.5V13.5C10.0002 13.3674 10.0529 13.2404 10.1466 13.1466C10.2404 13.0529 10.3674 13.0002 10.5 13H19.5C19.6326 13.0002 19.7596 13.0529 19.8534 13.1466C19.9471 13.2404 19.9998 13.3674 20 13.5V19.1716Z" fill="black"/>
</svg>
