<svg width="24" height="24" viewBox="0 0 24 24" fill="none" xmlns="http://www.w3.org/2000/svg">
<path d="M19 2H5C4.20435 2 3.44129 2.31607 2.87868 2.87868C2.31607 3.44129 2 4.20435 2 5V24L8 18H19C19.7956 18 20.5587 17.6839 21.1213 17.1213C21.6839 16.5587 22 15.7956 22 15V5C22 4.20435 21.6839 3.44129 21.1213 2.87868C20.5587 2.31607 19.7956 2 19 2ZM10.75 6.667C10.75 6.33548 10.8817 6.01754 11.1161 5.78312C11.3505 5.5487 11.6685 5.417 12 5.417C12.3315 5.417 12.6495 5.5487 12.8839 5.78312C13.1183 6.01754 13.25 6.33548 13.25 6.667V9C13.25 9.33152 13.1183 9.64946 12.8839 9.88388C12.6495 10.1183 12.3315 10.25 12 10.25C11.6685 10.25 11.3505 10.1183 11.1161 9.88388C10.8817 9.64946 10.75 9.33152 10.75 9V6.667ZM12.7 12.66V14H11.3V12.66C10.4285 12.5003 9.63566 12.0529 9.04847 11.3894C8.46129 10.7258 8.11365 9.8845 8.0612 9H9.4612C9.51622 9.63544 9.80753 10.2272 10.2776 10.6583C10.7476 11.0894 11.3623 11.3286 12.0001 11.3286C12.6379 11.3286 13.2526 11.0894 13.7226 10.6583C14.1927 10.2272 14.484 9.63544 14.539 9H15.939C15.8865 9.88452 15.5389 10.7259 14.9516 11.3894C14.3644 12.053 13.5716 12.5004 12.7 12.66Z" fill="black"/>
</svg>
