<svg width="24" height="24" viewBox="0 0 24 24" fill="none" xmlns="http://www.w3.org/2000/svg">
<path d="M7.49998 12C7.49878 10.8288 7.58304 9.65898 7.75208 8.5H2.64208C1.78581 10.7548 1.78581 13.2452 2.64208 15.5H7.75208C7.58304 14.341 7.49878 13.1712 7.49998 12ZM8.33508 16C8.95258 19.5305 10.36 22 12 22C13.64 22 15.0474 19.5305 15.6649 16H8.33508ZM7.99998 12C7.99901 13.1714 8.08488 14.3413 8.25688 15.5H15.7431C15.9151 14.3413 16.0009 13.1714 16 12C16.0009 10.8286 15.9151 9.65872 15.7431 8.5H8.25688C8.08488 9.65872 7.99901 10.8286 7.99998 12ZM21.3578 8.5H16.2478C16.4169 9.65898 16.5011 10.8288 16.5 12C16.5012 13.1712 16.4169 14.341 16.2479 15.5H21.3579C22.2141 13.2452 22.2141 10.7548 21.3579 8.5H21.3578ZM16.1709 8H21.1624C20.4885 6.46172 19.4382 5.1179 18.1082 4.09247C16.7782 3.06704 15.2115 2.39303 13.5524 2.1326C14.7512 3.1322 15.6992 5.2577 16.1709 8ZM15.6649 8C15.0474 4.47 13.64 2 12 2C10.36 2 8.95258 4.47 8.33508 8H15.6649ZM13.5529 21.8674C15.2119 21.6069 16.7786 20.9329 18.1085 19.9075C19.4384 18.882 20.4886 17.5382 21.1624 16H16.1709C15.6992 18.7423 14.7512 20.8679 13.5529 21.8674ZM7.82908 16H2.83758C3.51139 17.5383 4.56174 18.8821 5.89172 19.9076C7.2217 20.933 8.7885 21.607 10.4476 21.8674C9.24878 20.8679 8.30078 18.7423 7.82908 16ZM10.4471 2.1326C8.78809 2.39309 7.2214 3.06713 5.89151 4.09256C4.56162 5.11798 3.51136 6.46178 2.83758 8H7.82908C8.30078 5.2577 9.24878 3.1322 10.4471 2.1326Z" fill="black"/>
</svg>
