<svg width="24" height="24" viewBox="0 0 24 24" fill="none" xmlns="http://www.w3.org/2000/svg">
<path d="M11.5 9H16V7H11.5V9ZM19 2H5C4.20435 2 3.44129 2.31607 2.87868 2.87868C2.31607 3.44129 2 4.20435 2 5V24L8 18H19C19.7956 18 20.5587 17.6839 21.1213 17.1213C21.6839 16.5587 22 15.7956 22 15V5C22 4.20435 21.6839 3.44129 21.1213 2.87868C20.5587 2.31607 19.7956 2 19 2ZM20 15C19.9997 15.2651 19.8943 15.5193 19.7068 15.7068C19.5193 15.8943 19.2651 15.9997 19 16H7.1716L4 19.1716V5C4.00029 4.73487 4.10574 4.48069 4.29321 4.29321C4.48069 4.10574 4.73487 4.00029 5 4H19C19.2651 4.00029 19.5193 4.10574 19.7068 4.29321C19.8943 4.48069 19.9997 4.73487 20 5V15ZM9 6.95C8.79233 6.95 8.58932 7.01158 8.41665 7.12696C8.24398 7.24233 8.1094 7.40632 8.02993 7.59818C7.95045 7.79004 7.92966 8.00116 7.97018 8.20484C8.01069 8.40852 8.11069 8.59562 8.25754 8.74246C8.40438 8.88931 8.59148 8.98931 8.79516 9.02982C8.99884 9.07034 9.20995 9.04955 9.40182 8.97007C9.59368 8.8906 9.75767 8.75602 9.87304 8.58335C9.98842 8.41068 10.05 8.20767 10.05 8C10.05 7.72152 9.93938 7.45445 9.74246 7.25754C9.54555 7.06062 9.27848 6.95 9 6.95ZM11.5 13H16V11H11.5V13ZM9 10.95C8.79233 10.95 8.58932 11.0116 8.41665 11.127C8.24398 11.2423 8.1094 11.4063 8.02993 11.5982C7.95045 11.79 7.92966 12.0012 7.97018 12.2048C8.01069 12.4085 8.11069 12.5956 8.25754 12.7425C8.40438 12.8893 8.59148 12.9893 8.79516 13.0298C8.99884 13.0703 9.20995 13.0495 9.40182 12.9701C9.59368 12.8906 9.75767 12.756 9.87304 12.5833C9.98842 12.4107 10.05 12.2077 10.05 12C10.05 11.7215 9.93938 11.4545 9.74246 11.2575C9.54555 11.0606 9.27848 10.95 9 10.95Z" fill="black"/>
</svg>
