<svg width="24" height="24" viewBox="0 0 24 24" fill="none" xmlns="http://www.w3.org/2000/svg">
<path d="M19 2H5C4.20435 2 3.44129 2.31607 2.87868 2.87868C2.31607 3.44129 2 4.20435 2 5V24L8 18H19C19.7956 18 20.5587 17.6839 21.1213 17.1213C21.6839 16.5587 22 15.7956 22 15V5C22 4.20435 21.6839 3.44129 21.1213 2.87868C20.5587 2.31607 19.7956 2 19 2ZM8.55 12.05C8.44122 12.05 8.33488 12.0177 8.24444 11.9573C8.15399 11.8969 8.08349 11.811 8.04187 11.7105C8.00024 11.61 7.98935 11.4994 8.01057 11.3927C8.03179 11.286 8.08417 11.188 8.16109 11.1111C8.23801 11.0342 8.33601 10.9818 8.4427 10.9606C8.54939 10.9393 8.65998 10.9502 8.76048 10.9919C8.86098 11.0335 8.94687 11.104 9.00731 11.1944C9.06774 11.2849 9.1 11.3912 9.1 11.5C9.1 11.6459 9.04205 11.7858 8.93891 11.8889C8.83576 11.9921 8.69587 12.05 8.55 12.05ZM8.55 9.05C8.44122 9.05 8.33488 9.01774 8.24444 8.95731C8.15399 8.89687 8.08349 8.81098 8.04187 8.71048C8.00024 8.60998 7.98935 8.49939 8.01057 8.3927C8.03179 8.28601 8.08417 8.18801 8.16109 8.11109C8.23801 8.03417 8.33601 7.98179 8.4427 7.96057C8.54939 7.93935 8.65998 7.95024 8.76048 7.99187C8.86098 8.03349 8.94687 8.10399 9.00731 8.19444C9.06774 8.28488 9.1 8.39122 9.1 8.5C9.1 8.57223 9.08577 8.64375 9.05813 8.71048C9.03049 8.7772 8.98998 8.83784 8.93891 8.88891C8.88784 8.93998 8.82721 8.98049 8.76048 9.00813C8.69375 9.03577 8.62223 9.05 8.55 9.05ZM16 12H10.5V11H16V12ZM16 9H10.5V8H16V9Z" fill="black"/>
</svg>
