<svg width="24" height="24" viewBox="0 0 24 24" fill="none" xmlns="http://www.w3.org/2000/svg">
<path d="M20.5 12C20.5003 12.8475 20.3734 13.6902 20.1236 14.5H16.5865C16.6945 13.6711 16.7491 12.836 16.75 12H15.2C15.2008 12.8354 15.1537 13.6701 15.0588 14.5H8.9412C8.75294 12.8387 8.75294 11.1614 8.9412 9.50004H12V8.00004H9.1769C9.7156 5.32284 10.7769 3.50004 12 3.50004V2.00004C10.0222 2.00004 8.08879 2.58653 6.4443 3.68535C4.79981 4.78416 3.51809 6.34595 2.76121 8.17321C2.00433 10.0005 1.8063 12.0111 2.19215 13.9509C2.578 15.8908 3.53041 17.6726 4.92894 19.0711C6.32746 20.4696 8.10929 21.422 10.0491 21.8079C11.9889 22.1937 13.9996 21.9957 15.8268 21.2388C17.6541 20.482 19.2159 19.2002 20.3147 17.5557C21.4135 15.9113 22 13.9779 22 12H20.5ZM9.3308 3.93574C8.51543 5.16802 7.9515 6.54922 7.6714 8.00004H4.5041C5.53504 6.07868 7.26197 4.62452 9.3308 3.93574ZM3.5 12C3.49968 11.1526 3.62656 10.3099 3.8764 9.50004H7.4135C7.1955 11.1596 7.1955 12.8405 7.4135 14.5H3.8764C3.62656 13.6902 3.49968 12.8475 3.5 12ZM4.5041 16H7.6714C7.95148 17.4509 8.51541 18.8321 9.3308 20.0643C7.26199 19.3755 5.53506 17.9214 4.5041 16ZM12 20.5C10.7773 20.5 9.7156 18.6771 9.1769 16H14.8231C14.2844 18.6771 13.2227 20.5 12 20.5ZM14.6692 20.0643C15.4846 18.8321 16.0485 17.4509 16.3286 16H19.4959C18.4649 17.9214 16.738 19.3755 14.6692 20.0643ZM21 5.00004H20V4.10004C20.0133 3.82916 19.9714 3.5584 19.8769 3.30419C19.7823 3.04998 19.6372 2.81762 19.4502 2.62121C19.2631 2.4248 19.0382 2.26842 18.7889 2.16158C18.5396 2.05473 18.2712 1.99963 18 1.99963C17.7288 1.99963 17.4604 2.05473 17.2111 2.16158C16.9619 2.26842 16.7369 2.4248 16.5499 2.62121C16.3628 2.81762 16.2177 3.04998 16.1231 3.30419C16.0286 3.5584 15.9867 3.82916 16 4.10004V5.00004H15V9.00004H21V5.00004ZM17.2 4.10004C17.1866 3.98704 17.1973 3.87248 17.2314 3.76391C17.2655 3.65534 17.3222 3.55522 17.3978 3.47015C17.4733 3.38508 17.5661 3.31699 17.6699 3.27036C17.7737 3.22373 17.8862 3.19962 18 3.19962C18.1138 3.19962 18.2263 3.22373 18.3301 3.27036C18.4339 3.31699 18.5267 3.38508 18.6022 3.47015C18.6778 3.55522 18.7345 3.65534 18.7686 3.76391C18.8027 3.87248 18.8134 3.98704 18.8 4.10004V5.00004H17.2V4.10004ZM19.8 7.80004H16.2V6.20004H19.8V7.80004Z" fill="black"/>
</svg>
