<svg width="24" height="24" viewBox="0 0 24 24" fill="none" xmlns="http://www.w3.org/2000/svg">
<path d="M19 2H5C4.20435 2 3.44129 2.31607 2.87868 2.87868C2.31607 3.44129 2 4.20435 2 5V24L8 18H19C19.7956 18 20.5587 17.6839 21.1213 17.1213C21.6839 16.5587 22 15.7956 22 15V5C22 4.20435 21.6839 3.44129 21.1213 2.87868C20.5587 2.31607 19.7956 2 19 2ZM21 15C20.9994 15.5302 20.7885 16.0386 20.4135 16.4135C20.0386 16.7885 19.5302 16.9994 19 17H7.5858L7.2929 17.2929L3 21.5858V5C3.00061 4.46975 3.21152 3.9614 3.58646 3.58646C3.9614 3.21152 4.46975 3.00061 5 3H19C19.5302 3.00061 20.0386 3.21152 20.4135 3.58646C20.7885 3.9614 20.9994 4.46975 21 5V15ZM12 11.7393C11.3204 11.7393 10.6686 11.4693 10.188 10.9888C9.70748 10.5082 9.4375 9.85642 9.4375 9.1768H8.5375C8.54004 10.0147 8.84693 10.8232 9.40105 11.4518C9.95518 12.0804 10.7188 12.4862 11.5498 12.5938V14H12.4498V12.5938C13.2808 12.4862 14.0444 12.0804 14.5985 11.4518C15.1527 10.8232 15.4596 10.0147 15.4621 9.1768H14.5621C14.5621 9.85635 14.2922 10.5081 13.8117 10.9886C13.3312 11.4692 12.6795 11.7392 12 11.7393ZM12 10.5993C12.3774 10.5993 12.7393 10.4494 13.0062 10.1825C13.273 9.91571 13.423 9.55379 13.423 9.1764V6.94C13.4199 6.56468 13.2685 6.2058 13.002 5.94151C12.7355 5.67722 12.3754 5.52893 12 5.52893C11.6247 5.52893 11.2646 5.67722 10.9981 5.94151C10.7316 6.2058 10.5802 6.56468 10.5771 6.94V9.177C10.5773 9.55428 10.7272 9.91606 10.9941 10.1828C11.2609 10.4495 11.6227 10.5994 12 10.5994V10.5993ZM11.4771 6.9393C11.4771 6.80062 11.5322 6.66762 11.6303 6.56955C11.7283 6.47149 11.8613 6.4164 12 6.4164C12.1387 6.4164 12.2717 6.47149 12.3697 6.56955C12.4678 6.66762 12.5229 6.80062 12.5229 6.9393V9.1763C12.5229 9.31498 12.4678 9.44798 12.3697 9.54605C12.2717 9.64411 12.1387 9.6992 12 9.6992C11.8613 9.6992 11.7283 9.64411 11.6303 9.54605C11.5322 9.44798 11.4771 9.31498 11.4771 9.1763V6.9393Z" fill="black"/>
</svg>
