<svg width="24" height="24" viewBox="0 0 24 24" fill="none" xmlns="http://www.w3.org/2000/svg">
<path d="M21 12C20.9979 13.0227 20.8203 14.0374 20.4749 15H16.5319C16.6784 14.0067 16.7513 13.004 16.75 12H15.75C15.7513 13.0044 15.6752 14.0073 15.5222 15H8.4778C8.17407 13.0115 8.17407 10.9885 8.4778 9H12V8H8.6655C9.3373 4.9329 10.72 3 12 3V2C10.0222 2 8.08879 2.58649 6.4443 3.6853C4.79981 4.78412 3.51809 6.3459 2.76121 8.17317C2.00433 10.0004 1.8063 12.0111 2.19215 13.9509C2.578 15.8907 3.53041 17.6725 4.92894 19.0711C6.32746 20.4696 8.10929 21.422 10.0491 21.8079C11.9889 22.1937 13.9996 21.9957 15.8268 21.2388C17.6541 20.4819 19.2159 19.2002 20.3147 17.5557C21.4135 15.9112 22 13.9778 22 12H21ZM9.6449 3.3232C8.62103 4.70357 7.93687 6.30581 7.6479 8H3.95C4.51686 6.86372 5.3171 5.85983 6.29843 5.05394C7.27976 4.24805 8.42009 3.65829 9.6449 3.3232ZM3 12C3.00214 10.9773 3.17975 9.9626 3.5251 9H7.4681C7.1773 10.9894 7.1773 13.0106 7.4681 15H3.5251C3.17974 14.0374 3.00213 13.0227 3 12ZM3.95 16H7.6479C7.9368 17.6942 8.62096 19.2964 9.6449 20.6767C8.42009 20.3416 7.27976 19.7519 6.29843 18.946C5.3171 18.1401 4.51686 17.1363 3.95 16ZM12 21C10.72 21 9.3373 19.0671 8.6655 16H15.3345C14.6627 19.0671 13.2806 21 12 21ZM14.3551 20.6767C15.379 19.2964 16.0632 17.6942 16.3521 16H20.05C19.4831 17.1363 18.6829 18.1401 17.7016 18.946C16.7202 19.7519 15.5799 20.3416 14.3551 20.6767ZM21 5H19.75V3.75C19.75 3.28587 19.5656 2.84075 19.2374 2.51256C18.9093 2.18437 18.4641 2 18 2C17.5359 2 17.0908 2.18437 16.7626 2.51256C16.4344 2.84075 16.25 3.28587 16.25 3.75V5H15V9H21V5ZM17.15 3.75C17.15 3.52457 17.2396 3.30837 17.399 3.14896C17.5584 2.98955 17.7746 2.9 18 2.9C18.2254 2.9 18.4416 2.98955 18.601 3.14896C18.7605 3.30837 18.85 3.52457 18.85 3.75V5H17.15V3.75ZM20.1 8.1H15.9V5.9H20.1V8.1Z" fill="black"/>
</svg>
