<svg width="24" height="24" viewBox="0 0 24 24" fill="none" xmlns="http://www.w3.org/2000/svg">
<path d="M16.5342 13.2263L14.0887 15.672C11.6058 14.4117 9.58829 12.3941 8.32799 9.91125L10.7737 7.46575L7.86049 1.89575L5.04379 2.79635C3.98937 3.12221 3.09358 3.82811 2.53021 4.77711C1.96685 5.72611 1.77607 6.85054 1.99489 7.93225C2.75124 11.3768 4.4811 14.5315 6.97869 17.0213C9.46842 19.5188 12.6232 21.2487 16.0677 22.0051C17.1494 22.2239 18.2738 22.0331 19.2228 21.4697C20.1718 20.9064 20.8777 20.0106 21.2036 18.9562L22.1042 16.1395L16.5342 13.2263ZM19.7748 18.4993C19.5613 19.1968 19.0977 19.7909 18.473 20.1675C17.8483 20.5442 17.1065 20.6768 16.39 20.54C13.2272 19.8399 10.3301 18.2511 8.03946 15.9605C5.74887 13.6699 4.16008 10.7728 3.45999 7.60995C3.32307 6.8934 3.45566 6.15153 3.8323 5.52677C4.20895 4.90201 4.8031 4.4384 5.50069 4.22495L7.11549 3.70855L8.93409 7.18395L7.26749 8.85045L6.49579 9.62205L6.99229 10.5938C8.39626 13.3576 10.6423 15.6037 13.4062 17.0077L14.3779 17.5042L15.1495 16.7325L16.816 15.0659L20.2912 16.8845L19.7748 18.4993ZM20.5 2.99995H19V8.99995H20.5V2.99995ZM17 2.99995H15.5V8.99995H17V2.99995Z" fill="black"/>
</svg>
