<svg width="24" height="24" viewBox="0 0 24 24" fill="none" xmlns="http://www.w3.org/2000/svg">
<path d="M19 2H5C4.20435 2 3.44129 2.31607 2.87868 2.87868C2.31607 3.44129 2 4.20435 2 5V24L8 18H19C19.7956 18 20.5587 17.6839 21.1213 17.1213C21.6839 16.5587 22 15.7956 22 15V5C22 4.20435 21.6839 3.44129 21.1213 2.87868C20.5587 2.31607 19.7956 2 19 2ZM14.9326 11.9424L13.9426 12.9324L12 10.99L10.0576 12.9324L9.0676 11.9424L11.01 10L9.0674 8.0576L10.0574 7.0676L12 9.01L13.9424 7.0676L14.9324 8.0576L12.99 10L14.9326 11.9424Z" fill="black"/>
</svg>
