<svg width="24" height="24" viewBox="0 0 24 24" fill="none" xmlns="http://www.w3.org/2000/svg">
<path d="M19 2H5C4.20435 2 3.44129 2.31607 2.87868 2.87868C2.31607 3.44129 2 4.20435 2 5V24L8 18H19C19.7956 18 20.5587 17.6839 21.1213 17.1213C21.6839 16.5587 22 15.7956 22 15V5C22 4.20435 21.6839 3.44129 21.1213 2.87868C20.5587 2.31607 19.7956 2 19 2ZM20.5 15C20.4995 15.3977 20.3414 15.779 20.0602 16.0602C19.779 16.3414 19.3977 16.4995 19 16.5H7.3787L6.9393 16.9393L3.5 20.3787V5C3.50045 4.60231 3.65863 4.22104 3.93984 3.93984C4.22104 3.65863 4.60231 3.50045 5 3.5H19C19.3977 3.50045 19.779 3.65863 20.0602 3.93984C20.3414 4.22104 20.4995 4.60231 20.5 5V15ZM12 11.3281C11.3626 11.3269 10.7487 11.0873 10.2789 10.6566C9.80914 10.2258 9.51743 9.6349 9.4611 9H8.2611C8.31438 9.84826 8.65386 10.6533 9.22402 11.2837C9.79419 11.914 10.5613 12.3322 11.4 12.47V14H12.6V12.47C13.4387 12.3322 14.2058 11.9139 14.7759 11.2836C15.3461 10.6533 15.6855 9.84824 15.7388 9H14.5388C14.4825 9.63488 14.1908 10.2258 13.721 10.6565C13.2512 11.0873 12.6374 11.3269 12 11.3281ZM12 10.15C12.3049 10.1497 12.5972 10.0285 12.8129 9.81285C13.0285 9.59725 13.1497 9.30491 13.15 9V6.667C13.15 6.36189 13.0288 6.06929 12.8131 5.85354C12.5973 5.6378 12.3047 5.5166 11.9996 5.5166C11.6945 5.5166 11.4019 5.6378 11.1861 5.85354C10.9704 6.06929 10.8492 6.36189 10.8492 6.667V9C10.8495 9.30505 10.9709 9.59751 11.1866 9.81313C11.4024 10.0288 11.695 10.1499 12 10.15Z" fill="black"/>
</svg>
