<svg width="24" height="24" viewBox="0 0 24 24" fill="none" xmlns="http://www.w3.org/2000/svg">
<path d="M16.5342 13.2263L14.0887 15.672C11.6058 14.4117 9.58829 12.3941 8.32799 9.91125L10.7737 7.46575L7.86049 1.89575L5.04379 2.79635C3.98937 3.12221 3.09358 3.82811 2.53021 4.77711C1.96685 5.72611 1.77607 6.85054 1.99489 7.93225C2.75124 11.3768 4.4811 14.5315 6.97869 17.0213C9.46842 19.5188 12.6232 21.2487 16.0677 22.0051C17.1494 22.2239 18.2738 22.0331 19.2228 21.4697C20.1718 20.9064 20.8777 20.0106 21.2036 18.9562L22.1042 16.1395L16.5342 13.2263ZM19.7748 18.4993C19.5613 19.1968 19.0977 19.7909 18.473 20.1675C17.8483 20.5442 17.1065 20.6768 16.39 20.54C13.2272 19.8399 10.3301 18.2511 8.03946 15.9605C5.74887 13.6699 4.16008 10.7728 3.45999 7.60995C3.32307 6.8934 3.45566 6.15153 3.8323 5.52677C4.20895 4.90201 4.8031 4.4384 5.50069 4.22495L7.11549 3.70855L8.93409 7.18395L7.26749 8.85045L6.49579 9.62205L6.99229 10.5938C8.39626 13.3576 10.6423 15.6037 13.4062 17.0077L14.3779 17.5042L15.1495 16.7325L16.816 15.0659L20.2912 16.8845L19.7748 18.4993ZM14.2834 7.43925C14.353 7.63238 14.4374 7.81984 14.5359 7.99995C14.6426 8.17532 14.7627 8.34215 14.8952 8.49895L16.1952 7.84835L17.3021 8.48745L17.3885 9.93835C17.5904 9.97461 17.7949 9.99521 18 9.99995C18.2052 9.99522 18.4097 9.97463 18.6118 9.93835L18.6982 8.48745L19.8051 7.84835L21.1051 8.49895C21.2375 8.34214 21.3575 8.17531 21.4641 7.99995C21.5626 7.81989 21.647 7.63246 21.7166 7.43935L20.5034 6.63935V5.36095L21.7166 4.56095C21.6471 4.36769 21.5627 4.18013 21.4641 3.99995C21.3575 3.82457 21.2374 3.65773 21.1049 3.50095L19.8049 4.15155L18.698 3.51245L18.6116 2.06155C18.4096 2.02529 18.2051 2.00469 18 1.99995C17.7948 2.00468 17.5902 2.02528 17.3882 2.06155L17.3018 3.51245L16.1949 4.15155L14.8949 3.50095C14.7625 3.65774 14.6425 3.82458 14.5359 3.99995C14.4374 4.18002 14.353 4.36745 14.2834 4.56055L15.4966 5.36055V6.63895L14.2834 7.43925ZM18 4.78815C18.2397 4.78813 18.474 4.85919 18.6733 4.99233C18.8726 5.12547 19.0279 5.31472 19.1196 5.53615C19.2114 5.75757 19.2354 6.00123 19.1886 6.2363C19.1419 6.47137 19.0265 6.68731 18.857 6.85679C18.6875 7.02627 18.4716 7.14169 18.2365 7.18846C18.0015 7.23523 17.7578 7.21123 17.5364 7.11952C17.3149 7.0278 17.1257 6.87248 16.9925 6.6732C16.8594 6.47392 16.7883 6.23963 16.7883 5.99995C16.7883 5.84082 16.8196 5.68325 16.8805 5.53622C16.9414 5.3892 17.0306 5.25561 17.1432 5.14309C17.2557 5.03056 17.3893 4.9413 17.5363 4.8804C17.6833 4.8195 17.8409 4.78815 18 4.78815Z" fill="black"/>
</svg>
