<svg width="24" height="24" viewBox="0 0 24 24" fill="none" xmlns="http://www.w3.org/2000/svg">
<path d="M16.5317 13.5806L13.89 16.222C11.2479 14.8957 9.1043 12.7521 7.77799 10.11L10.4194 7.46868L7.53329 1.95868L5.10579 2.73508C4.05157 3.06089 3.15592 3.76664 2.5926 4.71543C2.02928 5.66423 1.83844 6.78844 2.05709 7.86998C2.81338 11.3145 4.54325 14.4693 7.04089 16.959C9.53058 19.4566 12.6854 21.1865 16.1299 21.9428C17.2116 22.1617 18.336 21.971 19.285 21.4076C20.234 20.8443 20.9399 19.9485 21.2657 18.8941L22.0421 16.4666L16.5317 13.5806ZM20.3133 18.59C20.0611 19.4057 19.5165 20.0995 18.784 20.5381C18.0515 20.9768 17.1828 21.1294 16.3447 20.9666C13.0886 20.2459 10.106 18.6103 7.74792 16.2522C5.38982 13.894 3.75427 10.9114 3.03369 7.65528C2.87091 6.81719 3.02345 5.94851 3.46205 5.21603C3.90064 4.48355 4.59435 3.93891 5.40999 3.68668L7.03659 3.16668L9.19269 7.28068L7.07089 9.40238L6.55759 9.91568L6.88669 10.5627C8.30886 13.3939 10.6061 15.6911 13.4373 17.1133L14.0843 17.4424L14.5976 16.9291L16.7193 14.8073L20.8335 16.9631L20.3133 18.59ZM14.1179 6.88428C14.2001 7.27514 14.3411 7.65129 14.5359 7.99998C14.7404 8.34311 14.9957 8.6533 15.2931 8.91998L16.6652 8.29998L16.6757 8.30598L16.8248 9.80418C17.5864 10.0652 18.4132 10.0652 19.1748 9.80418L19.324 8.30608L19.3348 8.29998L20.7069 8.91998C21.0043 8.65327 21.2596 8.34309 21.4641 7.99998C21.6589 7.65137 21.7998 7.27528 21.8821 6.88448L20.6592 6.00618V5.99388L21.8821 5.11568C21.7998 4.72482 21.6589 4.34866 21.4641 3.99998C21.2596 3.65686 21.0043 3.34668 20.707 3.07998L19.3349 3.69998L19.3243 3.69388L19.1752 2.19578C18.4136 1.93478 17.5868 1.93478 16.8252 2.19578L16.6757 3.69398L16.6652 3.69998L15.2931 3.07998C14.9957 3.34666 14.7404 3.65685 14.5359 3.99998C14.3411 4.34863 14.2002 4.72476 14.118 5.11558L15.3408 5.99388V6.00598L14.1179 6.88428ZM15.7779 5.38428L14.9832 4.81358C15.0905 4.50842 15.2536 4.22586 15.4642 3.98028L16.3559 4.38308L16.7182 4.53598L17.0519 4.34208L17.384 4.14998L17.422 3.76848L17.519 2.79488C17.8369 2.73541 18.1631 2.73541 18.4811 2.79488L18.5781 3.76838L18.6267 4.15728L18.96 4.34998L19.2932 4.54248L19.6439 4.38398L20.5355 3.98128C20.7462 4.22677 20.9093 4.50931 21.0166 4.81448L20.2219 5.38518L19.9094 5.62178V6.39128L20.2219 6.61568L21.0166 7.18648C20.9092 7.49163 20.7461 7.77416 20.5355 8.01968L19.6438 7.61698L19.2838 7.46488L18.951 7.65628L18.6169 7.84848L18.5787 8.23208L18.4817 9.20568C18.1637 9.26528 17.8375 9.26528 17.5195 9.20568L17.4226 8.23208L17.3739 7.84208L17.0391 7.64998L16.7063 7.45858L16.3563 7.61668L15.4646 8.01948C15.2541 7.77387 15.0909 7.49132 14.9835 7.18618L15.7783 6.61538L16.0907 6.37888V5.60918L15.7779 5.38428ZM18 6.74998C18.1483 6.74998 18.2933 6.70599 18.4167 6.62358C18.54 6.54117 18.6361 6.42404 18.6929 6.28699C18.7497 6.14995 18.7645 5.99915 18.7356 5.85366C18.7066 5.70818 18.6352 5.57454 18.5303 5.46965C18.4254 5.36476 18.2918 5.29333 18.1463 5.26439C18.0008 5.23545 17.85 5.2503 17.713 5.30707C17.5759 5.36384 17.4588 5.45996 17.3764 5.5833C17.294 5.70664 17.25 5.85164 17.25 5.99998C17.25 6.19889 17.329 6.38966 17.4697 6.53031C17.6103 6.67096 17.8011 6.74998 18 6.74998Z" fill="black"/>
</svg>
