<svg width="24" height="24" viewBox="0 0 24 24" fill="none" xmlns="http://www.w3.org/2000/svg">
<path d="M19 2H5C4.20435 2 3.44129 2.31607 2.87868 2.87868C2.31607 3.44129 2 4.20435 2 5V24L8 18H19C19.7956 18 20.5587 17.6839 21.1213 17.1213C21.6839 16.5587 22 15.7956 22 15V5C22 4.20435 21.6839 3.44129 21.1213 2.87868C20.5587 2.31607 19.7956 2 19 2ZM21 15C20.9994 15.5302 20.7885 16.0386 20.4135 16.4135C20.0386 16.7885 19.5302 16.9994 19 17H7.5858L7.2929 17.2929L3 21.5858V5C3.00061 4.46975 3.21152 3.9614 3.58646 3.58646C3.9614 3.21152 4.46975 3.00061 5 3H19C19.5302 3.00061 20.0386 3.21152 20.4135 3.58646C20.7885 3.9614 20.9994 4.46975 21 5V15ZM13.1177 8.6271L12 5.1875L10.8824 8.6275H7.2657L10.1917 10.7534L9.074 14.1934L12 12.0668L14.926 14.1927L13.8083 10.7527L16.7344 8.6268L13.1177 8.6271ZM13.0475 11L13.4043 12.0981L12.47 11.42L12 11.078L11.53 11.4196L10.5959 12.0983L10.9525 11L11.1325 10.4472L10.6625 10.1056L9.7284 9.4269H11.4642L11.6442 8.8741L12 7.7762L12.3568 8.8743L12.5368 9.4271H14.2726L13.3385 10.1058L12.8685 10.4474L13.0475 11Z" fill="black"/>
</svg>
