<svg width="24" height="24" viewBox="0 0 24 24" fill="none" xmlns="http://www.w3.org/2000/svg">
<path d="M20.5 2H15.5C15.1022 2 14.7207 2.15804 14.4394 2.43934C14.1581 2.72064 14 3.10218 14 3.5V10.8062L16.8062 8H20.5C20.8979 8 21.2794 7.84196 21.5607 7.56066C21.842 7.27936 22 6.89782 22 6.5V3.5C22 3.10218 21.842 2.72064 21.5607 2.43934C21.2794 2.15804 20.8979 2 20.5 2ZM21.5 6.5C21.4997 6.76513 21.3943 7.01931 21.2068 7.20679C21.0193 7.39426 20.7652 7.49971 20.5 7.5H16.5991L14.5 9.5991V3.5C14.5003 3.23487 14.6058 2.98069 14.7933 2.79321C14.9807 2.60574 15.2349 2.50029 15.5 2.5H20.5C20.7652 2.50029 21.0193 2.60574 21.2068 2.79321C21.3943 2.98069 21.4997 3.23487 21.5 3.5V6.5ZM13.6922 16.772C10.8903 15.3797 8.62034 13.1097 7.22804 10.3078L10.0649 7.4709L7.20594 2.02L5.16774 2.672C4.11341 2.99791 3.21773 3.70381 2.65442 4.65276C2.09112 5.60171 1.90035 6.72606 2.11914 7.8077C2.87552 11.2523 4.60541 14.4072 7.10304 16.897C9.59287 19.3946 12.7477 21.1245 16.1923 21.8809C17.274 22.0997 18.3983 21.9089 19.3473 21.3456C20.2962 20.7823 21.0021 19.8866 21.328 18.8323L21.98 16.7941L16.5291 13.9351L13.6922 16.772ZM21.3758 17.042L20.8517 18.68C20.5609 19.6137 19.9353 20.4071 19.0952 20.9077C18.2551 21.4084 17.2597 21.581 16.3 21.3925C12.9505 20.6515 9.88235 18.9692 7.45661 16.5434C5.03088 14.1177 3.34852 11.0495 2.60754 7.7C2.41902 6.74036 2.59166 5.74489 3.09231 4.90477C3.59295 4.06464 4.38631 3.43908 5.32004 3.1482L6.95834 2.6242L9.45134 7.3774L6.61944 10.2093L6.78094 10.5317C8.22155 13.4302 10.5699 15.7785 13.4683 17.2191L13.7907 17.3806L16.6226 14.5487L21.3758 17.042Z" fill="black"/>
</svg>
