<svg width="24" height="24" viewBox="0 0 24 24" fill="none" xmlns="http://www.w3.org/2000/svg">
<path d="M16.5 12C16.5012 13.1712 16.4169 14.341 16.2479 15.5H21.3579C21.7804 14.3814 21.9979 13.1958 22 12H16.5ZM12 8V2C10.36 2 8.95258 4.47 8.33508 8H12ZM8.25688 8.5C7.91434 10.8208 7.91434 13.1792 8.25688 15.5H15.7431C15.9151 14.3413 16.0009 13.1714 16 12H12V8.5H8.25688ZM10.4469 2.1326C8.78793 2.39312 7.22128 3.06717 5.89143 4.0926C4.56157 5.11802 3.51134 6.4618 2.83758 8H7.82908C8.30078 5.2577 9.24878 3.1322 10.4471 2.1326H10.4469ZM13.5527 21.8674C15.2117 21.607 16.7784 20.9329 18.1084 19.9075C19.4383 18.8821 20.4886 17.5383 21.1624 16H16.1709C15.6992 18.7423 14.7512 20.8679 13.5529 21.8674H13.5527ZM8.33508 16C8.95258 19.5305 10.36 22 12 22C13.64 22 15.0474 19.5305 15.6649 16H8.33508ZM7.82908 16H2.83758C3.51139 17.5383 4.56174 18.8821 5.89172 19.9076C7.2217 20.933 8.7885 21.607 10.4476 21.8674C9.24878 20.8679 8.30078 18.7423 7.82908 16ZM7.49998 12C7.49878 10.8288 7.58304 9.65898 7.75208 8.5H2.64208C1.78581 10.7548 1.78581 13.2452 2.64208 15.5H7.75208C7.58304 14.341 7.49878 13.1712 7.49998 12ZM21 5H19.5V3.5C19.5 3.10218 19.3419 2.72064 19.0606 2.43934C18.7793 2.15804 18.3978 2 18 2C17.6022 2 17.2206 2.15804 16.9393 2.43934C16.658 2.72064 16.5 3.10218 16.5 3.5V5H15V9H21V5ZM19 5H17V3.5C17 3.23478 17.1053 2.98043 17.2929 2.79289C17.4804 2.60536 17.7348 2.5 18 2.5C18.2652 2.5 18.5196 2.60536 18.7071 2.79289C18.8946 2.98043 19 3.23478 19 3.5V5Z" fill="black"/>
</svg>
