<svg width="24" height="24" viewBox="0 0 24 24" fill="none" xmlns="http://www.w3.org/2000/svg">
<path d="M9.3765 8.3333V11.6666H11.3646L14 14.1666V5.8333L11.3646 8.3333H9.3765ZM19 2H5C4.20435 2 3.44129 2.31607 2.87868 2.87868C2.31607 3.44129 2 4.20435 2 5V24L8 18H19C19.7956 18 20.5587 17.6839 21.1213 17.1213C21.6839 16.5587 22 15.7956 22 15V5C22 4.20435 21.6839 3.44129 21.1213 2.87868C20.5587 2.31607 19.7956 2 19 2ZM20 15C19.9997 15.2651 19.8943 15.5193 19.7068 15.7068C19.5193 15.8943 19.2651 15.9997 19 16H7.1716L4 19.1716V5C4.00029 4.73487 4.10574 4.48069 4.29321 4.29321C4.48069 4.10574 4.73487 4.00029 5 4H19C19.2651 4.00029 19.5193 4.10574 19.7068 4.29321C19.8943 4.48069 19.9997 4.73487 20 5V15Z" fill="black"/>
</svg>
