<svg width="24" height="24" viewBox="0 0 24 24" fill="none" xmlns="http://www.w3.org/2000/svg">
<path d="M19 2H5C4.20435 2 3.44129 2.31607 2.87868 2.87868C2.31607 3.44129 2 4.20435 2 5V24L8 18H19C19.7956 18 20.5587 17.6839 21.1213 17.1213C21.6839 16.5587 22 15.7956 22 15V5C22 4.20435 21.6839 3.44129 21.1213 2.87868C20.5587 2.31607 19.7956 2 19 2ZM21.5 15C21.4993 15.6628 21.2356 16.2983 20.7669 16.7669C20.2983 17.2356 19.6628 17.4993 19 17.5H7.7929L2.5 22.7929V5C2.50074 4.33719 2.76437 3.70173 3.23305 3.23305C3.70173 2.76437 4.33719 2.50074 5 2.5H19C19.6628 2.50074 20.2983 2.76437 20.7669 3.23305C21.2356 3.70173 21.4993 4.33719 21.5 5V15ZM8 13H16V7H8V13ZM8.5 7.5H15.5V12.5H8.5V7.5Z" fill="black"/>
</svg>
