<svg width="24" height="24" viewBox="0 0 24 24" fill="none" xmlns="http://www.w3.org/2000/svg">
<path d="M19.2555 8.07831L19.6095 8.43221L22.0416 6.00001L19.61 3.56781L19.256 3.92171L21.0839 5.75001H14V6.25001H21.0839L19.2555 8.07831ZM14.4761 17.1235C12.7878 16.3903 11.2477 15.355 9.93146 14.0685C8.64496 12.7523 7.60964 11.2121 6.87646 9.52391L9.26156 7.13881L6.77156 2.15881L5.16756 2.67191C4.11321 2.99785 3.21752 3.70379 2.65423 4.65278C2.09094 5.60177 1.90022 6.72616 2.11906 7.80781C2.87544 11.2524 4.60533 14.4072 7.10296 16.897C9.59276 19.3946 12.7476 21.1245 16.1922 21.8809C17.2738 22.0997 18.3982 21.909 19.3472 21.3457C20.2961 20.7824 21.002 19.8867 21.328 18.8323L21.8411 17.2283L16.8611 14.7383L14.4761 17.1235Z" fill="black"/>
</svg>
