<svg width="24" height="24" viewBox="0 0 24 24" fill="none" xmlns="http://www.w3.org/2000/svg">
<path d="M18 7H14V4H16V2H12V7H6C4.93913 7 3.92172 7.42143 3.17157 8.17157C2.42143 8.92172 2 9.93913 2 11V21H22V11C22 9.93913 21.5786 8.92172 20.8284 8.17157C20.0783 7.42143 19.0609 7 18 7ZM4 19V11C4 10.4696 4.21071 9.96086 4.58579 9.58579C4.96086 9.21071 5.46957 9 6 9C6.53043 9 7.03914 9.21071 7.41421 9.58579C7.78929 9.96086 8 10.4696 8 11V19H4ZM20 19H10V11C9.99625 10.2959 9.80477 9.60547 9.4453 9H12V14C12 14.2652 12.1054 14.5196 12.2929 14.7071C12.4804 14.8946 12.7348 15 13 15C13.2652 15 13.5196 14.8946 13.7071 14.7071C13.8946 14.5196 14 14.2652 14 14V9H18C18.5302 9.00061 19.0386 9.21152 19.4135 9.58646C19.7885 9.9614 19.9994 10.4698 20 11V19Z" fill="black"/>
</svg>
