<svg width="24" height="24" viewBox="0 0 24 24" fill="none" xmlns="http://www.w3.org/2000/svg">
<path d="M12 9.6994C12.1386 9.69924 12.2715 9.6441 12.3696 9.54607C12.4676 9.44804 12.5227 9.31513 12.5229 9.1765V6.94C12.5229 6.80132 12.4678 6.66832 12.3697 6.57025C12.2717 6.47219 12.1387 6.4171 12 6.4171C11.8613 6.4171 11.7283 6.47219 11.6303 6.57025C11.5322 6.66832 11.4771 6.80132 11.4771 6.94V9.177C11.4774 9.31555 11.5326 9.44833 11.6306 9.54625C11.7286 9.64417 11.8615 9.69924 12 9.6994ZM19 2H5C4.20435 2 3.44129 2.31607 2.87868 2.87868C2.31607 3.44129 2 4.20435 2 5V24L8 18H19C19.7956 18 20.5587 17.6839 21.1213 17.1213C21.6839 16.5587 22 15.7956 22 15V5C22 4.20435 21.6839 3.44129 21.1213 2.87868C20.5587 2.31607 19.7956 2 19 2ZM10.5771 6.94C10.5802 6.56468 10.7316 6.2058 10.9981 5.94151C11.2646 5.67722 11.6247 5.52893 12 5.52893C12.3754 5.52893 12.7355 5.67722 13.002 5.94151C13.2685 6.2058 13.4199 6.56468 13.423 6.94V9.177C13.4199 9.55232 13.2685 9.9112 13.002 10.1755C12.7355 10.4398 12.3754 10.5881 12 10.5881C11.6247 10.5881 11.2646 10.4398 10.9981 10.1755C10.7316 9.9112 10.5802 9.55232 10.5771 9.177V6.94ZM12.45 12.5938V14H11.55V12.5938C10.719 12.4862 9.95536 12.0804 9.40123 11.4518C8.8471 10.8232 8.54022 10.0147 8.5377 9.1768H9.4377C9.4377 9.85642 9.70768 10.5082 10.1882 10.9888C10.6688 11.4693 11.3206 11.7393 12.0002 11.7393C12.6798 11.7393 13.3316 11.4693 13.8122 10.9888C14.2927 10.5082 14.5627 9.85642 14.5627 9.1768H15.4627C15.4602 10.0148 15.1532 10.8233 14.599 11.4519C14.0448 12.0805 13.2811 12.4863 12.45 12.5938Z" fill="black"/>
</svg>
