<svg width="24" height="24" viewBox="0 0 24 24" fill="none" xmlns="http://www.w3.org/2000/svg">
<path d="M16 6.5V3.5C16 2.83696 15.7366 2.20107 15.2678 1.73223C14.7989 1.26339 14.163 1 13.5 1H4.5C3.83696 1 3.20107 1.26339 2.73223 1.73223C2.26339 2.20107 2 2.83696 2 3.5V13.0559L6.0559 9H13.5C14.163 9 14.7989 8.73661 15.2678 8.26777C15.7366 7.79893 16 7.16304 16 6.5ZM5.8488 8.5L5.7023 8.6464L2.5 11.8488V3.5C2.50061 2.96975 2.71152 2.4614 3.08646 2.08646C3.4614 1.71152 3.96975 1.50061 4.5 1.5H13.5C14.0302 1.50061 14.5386 1.71152 14.9135 2.08646C15.2885 2.4614 15.4994 2.96975 15.5 3.5V6.5C15.4994 7.03025 15.2885 7.5386 14.9135 7.91354C14.5386 8.28848 14.0302 8.49939 13.5 8.5H5.8488ZM19.5 11H10.5C9.83696 11 9.20107 11.2634 8.73223 11.7322C8.26339 12.2011 8 12.837 8 13.5V16.5C8 17.163 8.26339 17.7989 8.73223 18.2678C9.20107 18.7366 9.83696 19 10.5 19H17.9441L22 23.0559V13.5C22 12.837 21.7366 12.2011 21.2678 11.7322C20.7989 11.2634 20.163 11 19.5 11ZM21.5 21.8488L18.2977 18.6464L18.1512 18.5H10.5C9.96975 18.4994 9.4614 18.2885 9.08646 17.9135C8.71152 17.5386 8.50061 17.0302 8.5 16.5V13.5C8.50061 12.9698 8.71152 12.4614 9.08646 12.0865C9.4614 11.7115 9.96975 11.5006 10.5 11.5H19.5C20.0302 11.5006 20.5386 11.7115 20.9135 12.0865C21.2885 12.4614 21.4994 12.9698 21.5 13.5V21.8488Z" fill="black"/>
</svg>
