<svg width="24" height="24" viewBox="0 0 24 24" fill="none" xmlns="http://www.w3.org/2000/svg">
<path d="M19 2H5C4.20435 2 3.44129 2.31607 2.87868 2.87868C2.31607 3.44129 2 4.20435 2 5V24L8 18H19C19.7956 18 20.5587 17.6839 21.1213 17.1213C21.6839 16.5587 22 15.7956 22 15V5C22 4.20435 21.6839 3.44129 21.1213 2.87868C20.5587 2.31607 19.7956 2 19 2ZM12 14C11.8022 14 11.6089 13.9414 11.4444 13.8315C11.28 13.7216 11.1518 13.5654 11.0761 13.3827C11.0004 13.2 10.9806 12.9989 11.0192 12.8049C11.0578 12.6109 11.153 12.4327 11.2929 12.2929C11.4327 12.153 11.6109 12.0578 11.8049 12.0192C11.9989 11.9806 12.2 12.0004 12.3827 12.0761C12.5654 12.1518 12.7216 12.28 12.8315 12.4444C12.9414 12.6089 13 12.8022 13 13C13 13.2652 12.8946 13.5196 12.7071 13.7071C12.5196 13.8946 12.2652 14 12 14ZM12.7578 11H11.2422L10.7812 6H13.2188L12.7578 11Z" fill="black"/>
</svg>
