<svg width="24" height="24" viewBox="0 0 24 24" fill="none" xmlns="http://www.w3.org/2000/svg">
<path d="M21.5 12C21.4989 13.199 21.2693 14.3869 20.8235 15.5H16.4449C16.6489 14.3445 16.751 13.1734 16.75 12H16.25C16.2512 13.1737 16.1462 14.3452 15.9362 15.5H8.0638C7.6454 13.1854 7.6454 10.8146 8.0638 8.5H12V8H8.1653C8.8554 4.7862 10.3318 2.5 12 2.5V2C10.0222 2 8.08879 2.58649 6.4443 3.6853C4.79981 4.78412 3.51809 6.3459 2.76121 8.17317C2.00433 10.0004 1.8063 12.0111 2.19215 13.9509C2.578 15.8907 3.53041 17.6725 4.92894 19.0711C6.32746 20.4696 8.10929 21.422 10.0491 21.8079C11.9889 22.1937 13.9996 21.9957 15.8268 21.2388C17.6541 20.4819 19.2159 19.2002 20.3147 17.5557C21.4135 15.9112 22 13.9778 22 12H21.5ZM10.3165 2.6583C8.8675 4.09966 7.93022 5.97579 7.6479 8H3.3953C4.03812 6.62133 5.00203 5.41682 6.20626 4.48741C7.41048 3.558 8.81994 2.93078 10.3165 2.6583ZM2.5 12C2.50112 10.801 2.73071 9.6131 3.1765 8.5H7.5551C7.1483 10.8156 7.1483 13.1844 7.5551 15.5H3.1765C2.73071 14.3869 2.50112 13.199 2.5 12ZM3.3953 16H7.6479C7.93022 18.0242 8.8675 19.9003 10.3165 21.3417C8.81994 21.0692 7.41048 20.442 6.20626 19.5126C5.00203 18.5832 4.03812 17.3787 3.3953 16ZM8.1653 16H15.8347C15.1447 19.2138 13.6682 21.5 12 21.5C10.3318 21.5 8.8554 19.2138 8.1653 16ZM13.6835 21.3417C15.1325 19.9003 16.0698 18.0242 16.3521 16H20.6048C19.962 17.3787 18.998 18.5832 17.7938 19.5126C16.5895 20.442 15.1801 21.0692 13.6835 21.3417ZM21 5H19.5V3.5C19.5 3.10218 19.342 2.72064 19.0607 2.43934C18.7794 2.15804 18.3978 2 18 2C17.6022 2 17.2206 2.15804 16.9393 2.43934C16.658 2.72064 16.5 3.10218 16.5 3.5V5H15V9H21V5ZM17 3.5C17 3.23478 17.1054 2.98043 17.2929 2.79289C17.4804 2.60536 17.7348 2.5 18 2.5C18.2652 2.5 18.5196 2.60536 18.7071 2.79289C18.8946 2.98043 19 3.23478 19 3.5V5H17V3.5ZM20.5 8.5H15.5V5.5H20.5V8.5Z" fill="black"/>
</svg>
