<svg width="24" height="24" viewBox="0 0 24 24" fill="none" xmlns="http://www.w3.org/2000/svg">
<path d="M18 7H13.5V3.5H16V2H12V7H6C4.93913 7 3.92172 7.42143 3.17157 8.17157C2.42143 8.92172 2 9.93913 2 11V21H22V11C22 9.93913 21.5786 8.92172 20.8284 8.17157C20.0783 7.42143 19.0609 7 18 7ZM3.5 19.5V11C3.5 10.337 3.76339 9.70107 4.23223 9.23223C4.70107 8.76339 5.33696 8.5 6 8.5C6.66304 8.5 7.29893 8.76339 7.76777 9.23223C8.23661 9.70107 8.5 10.337 8.5 11V19.5H3.5ZM20.5 19.5H10V11C9.99654 10.0878 9.67844 9.20481 9.0994 8.5H12V14C12 14.1989 12.079 14.3897 12.2197 14.5303C12.3603 14.671 12.5511 14.75 12.75 14.75C12.9489 14.75 13.1397 14.671 13.2803 14.5303C13.421 14.3897 13.5 14.1989 13.5 14V8.5H18C18.6628 8.50074 19.2983 8.76437 19.7669 9.23305C20.2356 9.70173 20.4993 10.3372 20.5 11V19.5Z" fill="black"/>
</svg>
