<svg width="24" height="24" viewBox="0 0 24 24" fill="none" xmlns="http://www.w3.org/2000/svg">
<path d="M20.49 2.01001H15.49C15.0921 2.01001 14.7106 2.16805 14.4293 2.44935C14.148 2.73065 13.99 3.11219 13.99 3.51001V10.8162L16.7961 8.01001H20.49C20.8878 8.01001 21.2693 7.85197 21.5506 7.57067C21.8319 7.28937 21.99 6.90783 21.99 6.51001V3.51001C21.99 3.11219 21.8319 2.73065 21.5506 2.44935C21.2693 2.16805 20.8878 2.01001 20.49 2.01001ZM14.4761 17.1235C12.7878 16.3903 11.2477 15.355 9.93146 14.0685C8.64496 12.7523 7.60964 11.2121 6.87646 9.52391L9.26156 7.13881L6.77156 2.15881L5.16756 2.67191C4.11321 2.99785 3.21752 3.70378 2.65423 4.65277C2.09094 5.60176 1.90022 6.72615 2.11906 7.80781C2.87544 11.2524 4.60533 14.4072 7.10296 16.897C9.59276 19.3946 12.7476 21.1245 16.1922 21.8809C17.2738 22.0997 18.3982 21.909 19.3472 21.3457C20.2961 20.7824 21.002 19.8867 21.328 18.8323L21.8411 17.2283L16.8611 14.7383L14.4761 17.1235Z" fill="black"/>
</svg>
