<svg width="24" height="24" viewBox="0 0 24 24" fill="none" xmlns="http://www.w3.org/2000/svg">
<path d="M16.5318 13.5806L13.8901 16.222C11.2479 14.8957 9.10436 12.7521 7.77805 10.11L10.4195 7.46868L7.53335 1.95868L5.10585 2.73508C4.05163 3.06089 3.15598 3.76664 2.59266 4.71543C2.02934 5.66423 1.8385 6.78844 2.05715 7.86998C2.81344 11.3145 4.54331 14.4693 7.04095 16.959C9.53064 19.4566 12.6854 21.1865 16.13 21.9428C17.2116 22.1617 18.3361 21.971 19.2851 21.4076C20.234 20.8443 20.9399 19.9485 21.2658 18.8941L22.0422 16.4666L16.5318 13.5806ZM20.3134 18.59C20.0612 19.4057 19.5166 20.0995 18.7841 20.5381C18.0516 20.9768 17.1829 21.1294 16.3448 20.9666C13.0886 20.2459 10.1061 18.6103 7.74798 16.2522C5.38988 13.894 3.75433 10.9114 3.03375 7.65528C2.87097 6.81719 3.02352 5.94851 3.46211 5.21603C3.9007 4.48355 4.59441 3.93891 5.41005 3.68668L7.03665 3.16668L9.19275 7.28068L7.07095 9.40238L6.55765 9.91568L6.88675 10.5627C8.30892 13.3939 10.6061 15.6911 13.4374 17.1133L14.0844 17.4424L14.5977 16.9291L16.7194 14.8073L20.8336 16.9631L20.3134 18.59ZM21.0001 4.99998H20.0001V3.99998C20.0001 3.46955 19.7893 2.96084 19.4143 2.58577C19.0392 2.21069 18.5305 1.99998 18.0001 1.99998C17.4696 1.99998 16.9609 2.21069 16.5858 2.58577C16.2108 2.96084 16.0001 3.46955 16.0001 3.99998V4.99998H15.0001V8.99998H21.0001V4.99998ZM16.9001 3.99998C16.9001 3.70824 17.0159 3.42845 17.2222 3.22216C17.4285 3.01587 17.7083 2.89998 18.0001 2.89998C18.2918 2.89998 18.5716 3.01587 18.7779 3.22216C18.9842 3.42845 19.1001 3.70824 19.1001 3.99998V4.99998H16.9001V3.99998ZM20.0001 7.99998H16.0001V5.99998H20.0001V7.99998Z" fill="black"/>
</svg>
