<svg width="24" height="24" viewBox="0 0 24 24" fill="none" xmlns="http://www.w3.org/2000/svg">
<path d="M6.00001 3.7071L12 9.7071L18.4268 3.28L17.72 2.5732L12 8.293L6.70711 3H10.1161V2H5.00001V7.1161H6.00001V3.7071ZM19.904 14.3377C17.5099 12.8111 14.7296 12 11.8902 12C9.05074 12 6.2704 12.8111 3.87631 14.3377C3.13574 14.829 2.60408 15.5779 2.38445 16.4391C2.16483 17.3003 2.2729 18.2123 2.68771 18.9983L3.30891 20.2038L7.56261 18.7859V16.07C8.94145 15.5262 10.408 15.2387 11.8901 15.2218C13.3723 15.2387 14.8388 15.5262 16.2177 16.07V18.7864L20.4714 20.2043L21.0925 18.9988C21.5075 18.2128 21.6157 17.3006 21.3961 16.4393C21.1765 15.578 20.6447 14.829 19.904 14.3377Z" fill="black"/>
</svg>
