<svg width="24" height="24" viewBox="0 0 24 24" fill="none" xmlns="http://www.w3.org/2000/svg">
<path d="M19 2H5C4.20435 2 3.44129 2.31607 2.87868 2.87868C2.31607 3.44129 2 4.20435 2 5V24L8 18H19C19.7956 18 20.5587 17.6839 21.1213 17.1213C21.6839 16.5587 22 15.7956 22 15V5C22 4.20435 21.6839 3.44129 21.1213 2.87868C20.5587 2.31607 19.7956 2 19 2ZM15.0034 11.8716L13.8716 13.0034L12 11.1318L10.1284 13.0034L8.9966 11.8716L10.8682 10L8.9966 8.1284L10.1284 6.9966L12 8.8682L13.8716 6.9966L15.0034 8.1284L13.1318 10L15.0034 11.8716Z" fill="black"/>
</svg>
