<svg width="24" height="24" viewBox="0 0 24 24" fill="none" xmlns="http://www.w3.org/2000/svg">
<path d="M14.2629 7.3912C14.42 7.80845 14.6463 8.19625 14.9322 8.5383L16.3266 7.9245L17.17 8.4114L17.3364 9.9331C17.7743 10.0223 18.2257 10.0223 18.6636 9.9331L18.83 8.4114L19.6734 7.9245L21.0678 8.5383C21.3538 8.19625 21.58 7.80845 21.7371 7.3912L20.5034 6.4869V5.5131L21.7371 4.6087C21.5801 4.19146 21.3538 3.80369 21.0678 3.4617L19.6733 4.0754L18.83 3.5886L18.6636 2.0669C18.2257 1.9777 17.7743 1.9777 17.3364 2.0669L17.17 3.5886L16.3267 4.0754L14.9323 3.4617C14.6463 3.80368 14.42 4.19145 14.2629 4.6087L15.4966 5.5131V6.4869L14.2629 7.3912ZM18 5C18.1978 5 18.3911 5.05865 18.5556 5.16853C18.72 5.27841 18.8482 5.43459 18.9239 5.61732C18.9996 5.80004 19.0194 6.00111 18.9808 6.19509C18.9422 6.38907 18.847 6.56725 18.7071 6.70711C18.5673 6.84696 18.3891 6.9422 18.1951 6.98078C18.0011 7.01937 17.8001 6.99957 17.6173 6.92388C17.4346 6.84819 17.2784 6.72002 17.1685 6.55557C17.0587 6.39112 17 6.19778 17 6C17 5.73478 17.1054 5.48043 17.2929 5.29289C17.4804 5.10536 17.7348 5 18 5ZM16.8612 14.7384L14.4761 17.1235C12.7879 16.3903 11.2478 15.355 9.93152 14.0685C8.64502 12.7522 7.6097 11.2121 6.87652 9.5239L9.26162 7.1388L6.77162 2.1588L5.16762 2.6719C4.11328 2.99784 3.21758 3.70377 2.65429 4.65276C2.091 5.60175 1.90028 6.72614 2.11912 7.8078C2.8755 11.2524 4.60539 14.4072 7.10302 16.897C9.59282 19.3946 12.7476 21.1245 16.1922 21.8809C17.2739 22.0997 18.3982 21.909 19.3472 21.3457C20.2962 20.7823 21.0021 19.8866 21.328 18.8323L21.8411 17.2283L16.8612 14.7384Z" fill="black"/>
</svg>
