<svg width="24" height="24" viewBox="0 0 24 24" fill="none" xmlns="http://www.w3.org/2000/svg">
<path d="M19 2H5C4.20435 2 3.44129 2.31607 2.87868 2.87868C2.31607 3.44129 2 4.20435 2 5V24L8 18H19C19.7956 18 20.5587 17.6839 21.1213 17.1213C21.6839 16.5587 22 15.7956 22 15V5C22 4.20435 21.6839 3.44129 21.1213 2.87868C20.5587 2.31607 19.7956 2 19 2ZM21.5 15C21.4993 15.6628 21.2356 16.2983 20.7669 16.7669C20.2983 17.2356 19.6628 17.4993 19 17.5H7.7929L2.5 22.7929V5C2.50074 4.33719 2.76437 3.70173 3.23305 3.23305C3.70173 2.76437 4.33719 2.50074 5 2.5H19C19.6628 2.50074 20.2983 2.76437 20.7669 3.23305C21.2356 3.70173 21.4993 4.33719 21.5 5V15ZM10 9H16V8.5H10V9ZM8.35 8.4C8.28078 8.4 8.21311 8.42053 8.15555 8.45899C8.09799 8.49744 8.05313 8.55211 8.02664 8.61606C8.00015 8.68002 7.99322 8.75039 8.00673 8.81828C8.02023 8.88617 8.05356 8.94854 8.10251 8.99749C8.15146 9.04644 8.21382 9.07977 8.28172 9.09328C8.34961 9.10678 8.41998 9.09985 8.48394 9.07336C8.54789 9.04687 8.60256 9.00201 8.64101 8.94445C8.67947 8.88689 8.7 8.81922 8.7 8.75C8.7 8.65717 8.66313 8.56815 8.59749 8.50251C8.53185 8.43688 8.44283 8.4 8.35 8.4ZM10 11.5H16V11H10V11.5ZM8.35 10.9C8.28078 10.9 8.21311 10.9205 8.15555 10.959C8.09799 10.9974 8.05313 11.0521 8.02664 11.1161C8.00015 11.18 7.99322 11.2504 8.00673 11.3183C8.02023 11.3862 8.05356 11.4485 8.10251 11.4975C8.15146 11.5464 8.21382 11.5798 8.28172 11.5933C8.34961 11.6068 8.41998 11.5998 8.48394 11.5734C8.54789 11.5469 8.60256 11.502 8.64101 11.4444C8.67947 11.3869 8.7 11.3192 8.7 11.25C8.7 11.1572 8.66313 11.0682 8.59749 11.0025C8.53185 10.9369 8.44283 10.9 8.35 10.9Z" fill="black"/>
</svg>
