<svg width="24" height="24" viewBox="0 0 24 24" fill="none" xmlns="http://www.w3.org/2000/svg">
<path d="M19 2H5C4.20435 2 3.44129 2.31607 2.87868 2.87868C2.31607 3.44129 2 4.20435 2 5V24L8 18H19C19.7956 18 20.5587 17.6839 21.1213 17.1213C21.6839 16.5587 22 15.7956 22 15V5C22 4.20435 21.6839 3.44129 21.1213 2.87868C20.5587 2.31607 19.7956 2 19 2ZM21.5 15C21.4993 15.6628 21.2356 16.2983 20.7669 16.7669C20.2983 17.2356 19.6628 17.4993 19 17.5H7.7929L2.5 22.7929V5C2.50074 4.33719 2.76437 3.70173 3.23305 3.23305C3.70173 2.76437 4.33719 2.50074 5 2.5H19C19.6628 2.50074 20.2983 2.76437 20.7669 3.23305C21.2356 3.70173 21.4993 4.33719 21.5 5V15ZM12.2177 11L12.35 6H11.65L11.7823 11H12.2177ZM12 12.6C11.9209 12.6 11.8436 12.6235 11.7778 12.6674C11.712 12.7114 11.6607 12.7738 11.6304 12.8469C11.6002 12.92 11.5923 13.0004 11.6077 13.078C11.6231 13.1556 11.6612 13.2269 11.7172 13.2828C11.7731 13.3388 11.8444 13.3769 11.922 13.3923C11.9996 13.4077 12.08 13.3998 12.1531 13.3696C12.2262 13.3393 12.2886 13.288 12.3326 13.2222C12.3765 13.1564 12.4 13.0791 12.4 13C12.4 12.8939 12.3579 12.7922 12.2828 12.7172C12.2078 12.6421 12.1061 12.6 12 12.6Z" fill="black"/>
</svg>
