<svg width="24" height="24" viewBox="0 0 24 24" fill="none" xmlns="http://www.w3.org/2000/svg">
<path d="M20 12C19.9975 12.6741 19.9148 13.3455 19.7534 14H16.6491C16.7164 13.3355 16.7501 12.6679 16.75 12H14.75C14.75 12.692 14.7166 13.36 14.66 14H9.34C9.2833 13.36 9.25 12.692 9.25 12C9.25 11.308 9.2834 10.64 9.34 10H12V8H9.6209C10.0966 5.6111 10.9827 4 12 4V2C10.0222 2 8.08879 2.58649 6.4443 3.6853C4.79981 4.78412 3.51809 6.3459 2.76121 8.17317C2.00433 10.0004 1.8063 12.0111 2.19215 13.9509C2.578 15.8907 3.53041 17.6725 4.92894 19.0711C6.32746 20.4696 8.10929 21.422 10.0491 21.8079C11.9889 22.1937 13.9996 21.9957 15.8268 21.2388C17.6541 20.4819 19.2159 19.2002 20.3147 17.5557C21.4135 15.9112 22 13.9778 22 12H20ZM4.2466 14C3.9178 12.6869 3.9178 11.3131 4.2466 10H7.3509C7.21637 11.3299 7.21637 12.6701 7.3509 14H4.2466ZM5.0054 16H7.6714C7.9316 17.2943 8.40642 18.5359 9.0762 19.6735C7.3336 18.9593 5.8942 17.6604 5.0054 16ZM7.6714 8H5.0054C5.8942 6.33963 7.3336 5.04071 9.0762 4.3265C8.4064 5.46411 7.93158 6.70574 7.6714 8ZM12 20C10.9827 20 10.0966 18.3889 9.6209 16H14.3791C13.9034 18.3889 13.0173 20 12 20ZM14.9238 19.6735C15.5936 18.5359 16.0684 17.2943 16.3286 16H18.9946C18.1058 17.6604 16.6664 18.9593 14.9238 19.6735ZM21 5H20V4C20 3.46957 19.7893 2.96086 19.4142 2.58579C19.0391 2.21071 18.5304 2 18 2C17.4696 2 16.9609 2.21071 16.5858 2.58579C16.2107 2.96086 16 3.46957 16 4V5H15V9H21V5ZM18.7 5H17.3V4C17.3 3.81435 17.3738 3.6363 17.505 3.50503C17.6363 3.37375 17.8144 3.3 18 3.3C18.1857 3.3 18.3637 3.37375 18.495 3.50503C18.6263 3.6363 18.7 3.81435 18.7 4V5Z" fill="black"/>
</svg>
