<svg width="24" height="24" viewBox="0 0 24 24" fill="none" xmlns="http://www.w3.org/2000/svg">
<path d="M19 2H5C4.20435 2 3.44129 2.31607 2.87868 2.87868C2.31607 3.44129 2 4.20435 2 5V24L8 18H19C19.7956 18 20.5587 17.6839 21.1213 17.1213C21.6839 16.5587 22 15.7956 22 15V5C22 4.20435 21.6839 3.44129 21.1213 2.87868C20.5587 2.31607 19.7956 2 19 2ZM20.5 15C20.4995 15.3977 20.3414 15.779 20.0602 16.0602C19.779 16.3414 19.3977 16.4995 19 16.5H7.3787L3.5 20.3787V5C3.50045 4.60231 3.65863 4.22104 3.93984 3.93984C4.22104 3.65863 4.60231 3.50045 5 3.5H19C19.3977 3.50045 19.779 3.65863 20.0602 3.93984C20.3414 4.22104 20.4995 4.60231 20.5 5V15ZM12 12.1C11.822 12.1 11.648 12.1528 11.5 12.2517C11.352 12.3506 11.2366 12.4911 11.1685 12.6556C11.1004 12.82 11.0826 13.001 11.1173 13.1756C11.152 13.3502 11.2377 13.5105 11.3636 13.6364C11.4895 13.7623 11.6498 13.848 11.8244 13.8827C11.999 13.9174 12.18 13.8996 12.3444 13.8315C12.5089 13.7634 12.6494 13.648 12.7483 13.5C12.8472 13.352 12.9 13.178 12.9 13C12.9 12.7613 12.8052 12.5324 12.6364 12.3636C12.4676 12.1948 12.2387 12.1 12 12.1ZM11.4318 11H12.5682L12.9137 6H11.0863L11.4318 11Z" fill="black"/>
</svg>
