<svg width="24" height="24" viewBox="0 0 24 24" fill="none" xmlns="http://www.w3.org/2000/svg">
<path d="M19 2H5C4.20435 2 3.44129 2.31607 2.87868 2.87868C2.31607 3.44129 2 4.20435 2 5V24L8 18H19C19.7956 18 20.5587 17.6839 21.1213 17.1213C21.6839 16.5587 22 15.7956 22 15V5C22 4.20435 21.6839 3.44129 21.1213 2.87868C20.5587 2.31607 19.7956 2 19 2ZM8.35 11.6C8.28078 11.6 8.21311 11.5795 8.15555 11.541C8.09799 11.5026 8.05313 11.4479 8.02664 11.3839C8.00015 11.32 7.99322 11.2496 8.00673 11.1817C8.02023 11.1138 8.05356 11.0515 8.10251 11.0025C8.15146 10.9536 8.21382 10.9202 8.28172 10.9067C8.34961 10.8932 8.41998 10.9002 8.48394 10.9266C8.54789 10.9531 8.60256 10.998 8.64101 11.0556C8.67947 11.1131 8.7 11.1808 8.7 11.25C8.7 11.3428 8.66313 11.4318 8.59749 11.4975C8.53185 11.5631 8.44283 11.6 8.35 11.6ZM8.35 9.1C8.28078 9.1 8.21311 9.07947 8.15555 9.04101C8.09799 9.00256 8.05313 8.94789 8.02664 8.88394C8.00015 8.81998 7.99322 8.74961 8.00673 8.68172C8.02023 8.61383 8.05356 8.55146 8.10251 8.50251C8.15146 8.45356 8.21382 8.42023 8.28172 8.40672C8.34961 8.39322 8.41998 8.40015 8.48394 8.42664C8.54789 8.45313 8.60256 8.49799 8.64101 8.55555C8.67947 8.61311 8.7 8.68078 8.7 8.75C8.7 8.84283 8.66313 8.93185 8.59749 8.99749C8.53185 9.06312 8.44283 9.1 8.35 9.1ZM16 11.5H10V11H16V11.5ZM16 9H10V8.5H16V9Z" fill="black"/>
</svg>
