<svg width="24" height="24" viewBox="0 0 24 24" fill="none" xmlns="http://www.w3.org/2000/svg">
<path d="M19 2H5C4.20435 2 3.44129 2.31607 2.87868 2.87868C2.31607 3.44129 2 4.20435 2 5V24L8 18H19C19.7956 18 20.5587 17.6839 21.1213 17.1213C21.6839 16.5587 22 15.7956 22 15V5C22 4.20435 21.6839 3.44129 21.1213 2.87868C20.5587 2.31607 19.7956 2 19 2ZM14.791 12.084L14.084 12.791L12 10.707L9.916 12.791L9.209 12.084L11.293 10L9.209 7.916L9.916 7.209L12 9.293L14.084 7.209L14.791 7.916L12.707 10L14.791 12.084Z" fill="black"/>
</svg>
