<svg width="24" height="24" viewBox="0 0 24 24" fill="none" xmlns="http://www.w3.org/2000/svg">
<path d="M6 7C5.72922 6.99988 5.45912 7.02708 5.1938 7.0812C4.68226 7.18606 4.19636 7.39058 3.7638 7.6831C3.22028 8.04887 2.77509 8.54275 2.4675 9.12119C2.15991 9.69963 1.99936 10.3449 2 11V21H10V11C10 9.93913 9.57857 8.92172 8.82843 8.17157C8.07828 7.42143 7.06087 7 6 7ZM18 7H16V14C16 14.2652 15.8946 14.5196 15.7071 14.7071C15.5196 14.8946 15.2652 15 15 15C14.7348 15 14.4804 14.8946 14.2929 14.7071C14.1054 14.5196 14 14.2652 14 14V7H10.4594C11.4505 8.09657 11.9995 9.5219 12 11V21H22V11C22 9.93913 21.5786 8.92172 20.8284 8.17157C20.0783 7.42143 19.0609 7 18 7ZM16 4H18V2H14V7H16V4Z" fill="black"/>
</svg>
