<svg width="24" height="24" viewBox="0 0 24 24" fill="none" xmlns="http://www.w3.org/2000/svg">
<path d="M12 10.0994C12.2447 10.0991 12.4793 10.0018 12.6523 9.8288C12.8254 9.65579 12.9227 9.4212 12.923 9.1765V6.94C12.9205 6.69688 12.8221 6.46458 12.6493 6.29356C12.4765 6.12254 12.2432 6.02661 12 6.02661C11.7569 6.02661 11.5236 6.12254 11.3508 6.29356C11.178 6.46458 11.0796 6.69688 11.0771 6.94V9.177C11.0775 9.4216 11.1749 9.65606 11.3479 9.82897C11.5209 10.0019 11.7554 10.0991 12 10.0994ZM19 2H5C4.20435 2 3.44129 2.31607 2.87868 2.87868C2.31607 3.44129 2 4.20435 2 5V24L8 18H19C19.7956 18 20.5587 17.6839 21.1213 17.1213C21.6839 16.5587 22 15.7956 22 15V5C22 4.20435 21.6839 3.44129 21.1213 2.87868C20.5587 2.31607 19.7956 2 19 2ZM10.5771 6.94C10.5802 6.56468 10.7316 6.2058 10.9981 5.94151C11.2646 5.67722 11.6247 5.52893 12 5.52893C12.3754 5.52893 12.7355 5.67722 13.002 5.94151C13.2685 6.2058 13.4199 6.56468 13.423 6.94V9.177C13.4199 9.55232 13.2685 9.9112 13.002 10.1755C12.7355 10.4398 12.3754 10.5881 12 10.5881C11.6247 10.5881 11.2646 10.4398 10.9981 10.1755C10.7316 9.9112 10.5802 9.55232 10.5771 9.177V6.94ZM12.0392 12.2359H12.25V14H11.75V12.2354H11.9608C11.1562 12.2248 10.388 11.898 9.82232 11.3257C9.25663 10.7534 8.9388 9.9815 8.9375 9.1768H9.4375C9.4375 9.85642 9.70748 10.5082 10.188 10.9888C10.6686 11.4693 11.3204 11.7393 12 11.7393C12.6796 11.7393 13.3314 11.4693 13.812 10.9888C14.2925 10.5082 14.5625 9.85642 14.5625 9.1768H15.0625C15.0612 9.9815 14.7434 10.7534 14.1777 11.3257C13.612 11.898 12.8438 12.2248 12.0392 12.2354V12.2359Z" fill="black"/>
</svg>
