<svg width="24" height="24" viewBox="0 0 24 24" fill="none" xmlns="http://www.w3.org/2000/svg">
<path d="M18 7H13V5H17V2H12V7H6C4.93913 7 3.92172 7.42143 3.17157 8.17157C2.42143 8.92172 2 9.93913 2 11V21H22V11C22 9.93913 21.5786 8.92172 20.8284 8.17157C20.0783 7.42143 19.0609 7 18 7ZM13 3H16V4H13V3ZM3 20V11C3 10.2044 3.31607 9.44129 3.87868 8.87868C4.44129 8.31607 5.20435 8 6 8C6.79565 8 7.55871 8.31607 8.12132 8.87868C8.68393 9.44129 9 10.2044 9 11V20H3ZM21 20H10V11C9.99851 10.4302 9.8745 9.86747 9.6364 9.34986C9.3983 8.83224 9.05166 8.37188 8.62 8H12V14C12 14.1326 12.0527 14.2598 12.1464 14.3536C12.2402 14.4473 12.3674 14.5 12.5 14.5C12.6326 14.5 12.7598 14.4473 12.8536 14.3536C12.9473 14.2598 13 14.1326 13 14V8H18C18.7954 8.0009 19.5579 8.31726 20.1203 8.87967C20.6827 9.44209 20.9991 10.2046 21 11V20Z" fill="black"/>
</svg>
