<svg width="24" height="24" viewBox="0 0 24 24" fill="none" xmlns="http://www.w3.org/2000/svg">
<path d="M19 2H5C4.20435 2 3.44129 2.31607 2.87868 2.87868C2.31607 3.44129 2 4.20435 2 5V24L8 18H19C19.7956 18 20.5587 17.6839 21.1213 17.1213C21.6839 16.5587 22 15.7956 22 15V5C22 4.20435 21.6839 3.44129 21.1213 2.87868C20.5587 2.31607 19.7956 2 19 2ZM12 13.9C11.822 13.9 11.648 13.8472 11.5 13.7483C11.352 13.6494 11.2366 13.5089 11.1685 13.3444C11.1004 13.18 11.0826 12.999 11.1173 12.8244C11.152 12.6498 11.2377 12.4895 11.3636 12.3636C11.4895 12.2377 11.6498 12.152 11.8244 12.1173C11.999 12.0826 12.18 12.1004 12.3444 12.1685C12.5089 12.2366 12.6494 12.352 12.7483 12.5C12.8472 12.648 12.9 12.822 12.9 13C12.9 13.2387 12.8052 13.4676 12.6364 13.6364C12.4676 13.8052 12.2387 13.9 12 13.9ZM12.5682 11H11.4318L11.0863 6H12.9137L12.5682 11Z" fill="black"/>
</svg>
