<svg width="24" height="24" viewBox="0 0 24 24" fill="none" xmlns="http://www.w3.org/2000/svg">
<path d="M19 2H5C4.20435 2 3.44129 2.31607 2.87868 2.87868C2.31607 3.44129 2 4.20435 2 5V24L8 18H19C19.7956 18 20.5587 17.6839 21.1213 17.1213C21.6839 16.5587 22 15.7956 22 15V5C22 4.20435 21.6839 3.44129 21.1213 2.87868C20.5587 2.31607 19.7956 2 19 2ZM12 13.625C11.8764 13.625 11.7555 13.5883 11.6528 13.5197C11.55 13.451 11.4699 13.3534 11.4226 13.2392C11.3753 13.125 11.3629 12.9993 11.387 12.8781C11.4111 12.7568 11.4706 12.6455 11.5581 12.5581C11.6455 12.4706 11.7568 12.4111 11.8781 12.387C11.9993 12.3629 12.125 12.3753 12.2392 12.4226C12.3534 12.4699 12.451 12.55 12.5197 12.6528C12.5883 12.7555 12.625 12.8764 12.625 13C12.625 13.1658 12.5592 13.3247 12.4419 13.4419C12.3247 13.5592 12.1658 13.625 12 13.625ZM12.3886 11H11.6114L11.375 6H12.625L12.3886 11Z" fill="black"/>
</svg>
