<svg width="24" height="24" viewBox="0 0 24 24" fill="none" xmlns="http://www.w3.org/2000/svg">
<path d="M16.5291 13.9351L13.6922 16.772C10.8903 15.3797 8.62034 13.1097 7.22804 10.3078L10.0649 7.4709L7.20594 2.02L5.16774 2.672C4.11341 2.99791 3.21773 3.70381 2.65442 4.65276C2.09112 5.60171 1.90035 6.72606 2.11914 7.8077C2.87552 11.2523 4.60541 14.4072 7.10304 16.897C9.59287 19.3946 12.7477 21.1245 16.1923 21.8809C17.274 22.0997 18.3983 21.9089 19.3473 21.3456C20.2962 20.7823 21.0021 19.8866 21.328 18.8323L21.98 16.7941L16.5291 13.9351ZM20.8517 18.68C20.5609 19.6137 19.9353 20.4071 19.0952 20.9077C18.2551 21.4084 17.2597 21.581 16.3 21.3925C12.9505 20.6515 9.88235 18.9692 7.45661 16.5434C5.03088 14.1177 3.34852 11.0495 2.60754 7.7C2.41902 6.74036 2.59166 5.74489 3.09231 4.90477C3.59295 4.06464 4.38631 3.43908 5.32004 3.1482L6.95834 2.6242L9.45134 7.3774L6.61944 10.2093L6.78094 10.5317C8.22155 13.4302 10.5699 15.7785 13.4683 17.2191L13.7907 17.3806L16.6226 14.5487L21.3758 17.0417L20.8517 18.68ZM21 5H20V4C20 3.46957 19.7893 2.96086 19.4142 2.58579C19.0392 2.21071 18.5305 2 18 2C17.4696 2 16.9609 2.21071 16.5858 2.58579C16.2108 2.96086 16 3.46957 16 4V5H15V9H21V5ZM16.5 4C16.5 3.60218 16.6581 3.22064 16.9394 2.93934C17.2207 2.65804 17.6022 2.5 18 2.5C18.3979 2.5 18.7794 2.65804 19.0607 2.93934C19.342 3.22064 19.5 3.60218 19.5 4V5H16.5V4ZM20.5 8.5H15.5V5.5H20.5V8.5Z" fill="black"/>
</svg>
