<svg width="24" height="24" viewBox="0 0 24 24" fill="none" xmlns="http://www.w3.org/2000/svg">
<path d="M18 5V2.5C18 2.36739 17.9473 2.24021 17.8536 2.14645C17.7598 2.05268 17.6326 2 17.5 2C17.3674 2 17.2402 2.05268 17.1464 2.14645C17.0527 2.24021 17 2.36739 17 2.5V5H7V2.5C7 2.36739 6.94732 2.24021 6.85355 2.14645C6.75979 2.05268 6.63261 2 6.5 2C6.36739 2 6.24021 2.05268 6.14645 2.14645C6.05268 2.24021 6 2.36739 6 2.5V5H2V21H22V5H18ZM21 20H3V6H21V20ZM16 11H10.5V12H16V11ZM8.55 12.05C8.65878 12.05 8.76512 12.0177 8.85556 11.9573C8.94601 11.8969 9.01651 11.811 9.05813 11.7105C9.09976 11.61 9.11065 11.4994 9.08943 11.3927C9.06821 11.286 9.01583 11.188 8.93891 11.1111C8.86199 11.0342 8.76399 10.9818 8.6573 10.9606C8.55061 10.9393 8.44002 10.9502 8.33952 10.9919C8.23903 11.0335 8.15313 11.104 8.09269 11.1944C8.03226 11.2849 8 11.3912 8 11.5C8 11.6459 8.05795 11.7858 8.16109 11.8889C8.26424 11.9921 8.40413 12.05 8.55 12.05ZM16 14H10.5V15H16V14ZM8.55 15.05C8.65878 15.05 8.76512 15.0177 8.85556 14.9573C8.94601 14.8969 9.01651 14.811 9.05813 14.7105C9.09976 14.61 9.11065 14.4994 9.08943 14.3927C9.06821 14.286 9.01583 14.188 8.93891 14.1111C8.86199 14.0342 8.76399 13.9818 8.6573 13.9606C8.55061 13.9393 8.44002 13.9502 8.33952 13.9919C8.23903 14.0335 8.15313 14.104 8.09269 14.1944C8.03226 14.2849 8 14.3912 8 14.5C8 14.6459 8.05795 14.7858 8.16109 14.8889C8.26424 14.9921 8.40413 15.05 8.55 15.05Z" fill="black"/>
</svg>
