<svg width="24" height="24" viewBox="0 0 24 24" fill="none" xmlns="http://www.w3.org/2000/svg">
<path d="M19 5.9562V2H5V5.9562C4.99991 7.11584 5.40291 8.23946 6.14 9.1347L8.5 12L6.14 14.8652C5.40288 15.7605 4.99989 16.8841 5 18.0438V22H19V18.0438C19.0001 16.8841 18.5971 15.7605 17.86 14.8652L15.5 12L17.86 9.1347C18.5971 8.23946 19.0001 7.11584 19 5.9562ZM17 5.9562C16.9994 6.65192 16.7576 7.32591 16.3157 7.8633L13.9557 10.7286L12.9091 12L13.9561 13.2714L15.38 15H8.62L10.0435 13.2715L11.0909 12L10.0439 10.7286L7.6839 7.8633C7.24222 7.32583 7.00053 6.65187 7 5.9562V4H17V5.9562Z" fill="black"/>
</svg>
