<svg width="24" height="24" viewBox="0 0 24 24" fill="none" xmlns="http://www.w3.org/2000/svg">
<path d="M12 4.5938C12.3677 4.59377 12.7203 4.44769 12.9803 4.1877C13.2402 3.9277 13.3863 3.57508 13.3863 3.2074C13.3863 2.0984 12 0 12 0C12 0 10.6137 2.0984 10.6137 3.2074C10.6137 3.57508 10.7598 3.9277 11.0197 4.1877C11.2797 4.44769 11.6323 4.59377 12 4.5938ZM18.6924 15.5879C18.1475 15.1949 17.4928 14.9833 16.821 14.9831C16.1491 14.983 15.4943 15.1942 14.9492 15.5869C14.08 16.1792 13.0525 16.4961 12.0007 16.4963C10.9488 16.4965 9.92123 16.18 9.0518 15.5879C8.50692 15.1949 7.85219 14.9833 7.18036 14.9831C6.50854 14.983 5.85369 15.1942 5.3086 15.5869C4.43467 16.1704 3.41014 16.4876 2.3594 16.5H2V22H22V16.5H21.6406C20.5903 16.4876 19.5662 16.1708 18.6924 15.5879ZM18 9H13V6H11V9H6C4.93913 9 3.92172 9.42143 3.17157 10.1716C2.42143 10.9217 2 11.9391 2 13V14.5H2.3594C3.02841 14.488 3.67924 14.2802 4.2314 13.9023C5.10085 13.3103 6.12842 12.9937 7.1803 12.9939C8.23219 12.9941 9.25965 13.311 10.1289 13.9033C10.6744 14.2951 11.3291 14.5058 12.0007 14.5056C12.6723 14.5054 13.3268 14.2944 13.8721 13.9023C14.7415 13.3102 15.7691 12.9937 16.821 12.9939C17.8728 12.9941 18.9003 13.311 19.7695 13.9033C20.3216 14.2806 20.972 14.4881 21.6406 14.5H22V13C22 11.9391 21.5786 10.9217 20.8284 10.1716C20.0783 9.42143 19.0609 9 18 9Z" fill="black"/>
</svg>
