<svg width="24" height="24" viewBox="0 0 24 24" fill="none" xmlns="http://www.w3.org/2000/svg">
<path d="M11.0938 8.06251V13.5625H15.5938V12.5625H12.0938V8.06251H11.0938ZM18.01 5.98931C16.4148 4.39744 14.2533 3.50342 11.9997 3.50342C9.74612 3.50342 7.58458 4.39744 5.9894 5.98931L4.5148 7.46461V4.05541H3.5148V9.17161H8.6309V8.17161H5.2219L6.6968 6.69631C7.92384 5.46922 9.5384 4.70555 11.2654 4.53543C12.9923 4.36531 14.7249 4.79925 16.1678 5.76333C17.6107 6.72741 18.6746 8.16196 19.1784 9.82257C19.6822 11.4832 19.5945 13.2671 18.9305 14.8703C18.2664 16.4736 17.067 17.797 15.5366 18.615C14.0061 19.433 12.2394 19.6951 10.5374 19.3566C8.83544 19.018 7.30348 18.0998 6.2026 16.7584C5.10171 15.417 4.5 13.7353 4.5 12H3.5C3.49998 13.3979 3.84471 14.7742 4.50366 16.007C5.1626 17.2398 6.11542 18.291 7.2777 19.0676C8.43999 19.8442 9.77586 20.3222 11.167 20.4592C12.5581 20.5962 13.9616 20.388 15.253 19.853C16.5445 19.318 17.684 18.4728 18.5708 17.3922C19.4575 16.3116 20.0641 15.029 20.3368 13.658C20.6094 12.287 20.5397 10.8699 20.1339 9.53223C19.728 8.19458 18.9985 6.97768 18.01 5.98931Z" fill="black"/>
</svg>
