<svg width="24" height="24" viewBox="0 0 24 24" fill="none" xmlns="http://www.w3.org/2000/svg">
<path d="M12.707 12L8.30568 7.5985L7.59858 8.3055L12 12.707L12.707 12ZM12 2H11.5V6H12.5V3.0226C14.5807 3.13729 16.5572 3.97012 18.0925 5.37911C19.6278 6.7881 20.6269 8.686 20.9194 10.7492C21.2119 12.8125 20.7797 14.9133 19.6965 16.6935C18.6133 18.4737 16.9461 19.823 14.9793 20.5115C13.0125 21.2 10.8677 21.185 8.91071 20.469C6.95372 19.753 5.30566 18.3804 4.24752 16.5852C3.18938 14.7899 2.78668 12.6833 3.10807 10.6244C3.42946 8.56543 4.45505 6.68172 6.00998 5.2944L5.29608 4.5805C3.56341 6.14621 2.43335 8.26895 2.10188 10.5806C1.77041 12.8923 2.25843 15.247 3.48131 17.2365C4.7042 19.226 6.58481 20.7248 8.79703 21.473C11.0092 22.2211 13.4135 22.1714 15.5929 21.3325C17.7724 20.4936 19.5894 18.9184 20.7291 16.88C21.8687 14.8417 22.259 12.4688 21.8323 10.1728C21.4056 7.8768 20.1888 5.80257 18.3929 4.30979C16.597 2.81702 14.3353 1.99985 12 2Z" fill="black"/>
</svg>
