<svg width="24" height="24" viewBox="0 0 24 24" fill="none" xmlns="http://www.w3.org/2000/svg">
<path d="M17.5 3.5V5.6394C17.4992 6.42689 17.2035 7.18551 16.671 7.7657L13.6394 11.03L12.81 12L13.6395 12.97L16.6712 16.2346C17.2035 16.8148 17.4991 17.5733 17.5 18.3606V20.5H6.5V18.3606C6.50077 17.5731 6.79654 16.8145 7.329 16.2343L10.3606 12.97L11.19 12L10.3605 11.03L7.3289 7.7657C6.79654 7.18546 6.50081 6.42686 6.5 5.6394V3.5H17.5ZM19 2H5V5.6394C4.99988 6.78242 5.4224 7.88513 6.1863 8.7354L9.218 12L6.1863 15.2646C5.4224 16.1149 4.99988 17.2176 5 18.3606V22H19V18.3606C19.0001 17.2176 18.5776 16.1149 17.8137 15.2646L14.782 12L17.8137 8.7354C18.5776 7.88512 19.0001 6.78242 19 5.6394V2Z" fill="black"/>
</svg>
