<svg width="24" height="24" viewBox="0 0 24 24" fill="none" xmlns="http://www.w3.org/2000/svg">
<path d="M12 12C12.2719 12 12.5378 11.9194 12.7639 11.7683C12.99 11.6172 13.1663 11.4024 13.2703 11.1512C13.3744 10.8999 13.4016 10.6235 13.3486 10.3568C13.2955 10.09 13.1646 9.84503 12.9723 9.65273C12.78 9.46043 12.535 9.32948 12.2682 9.27642C12.0015 9.22337 11.7251 9.2506 11.4738 9.35467C11.2226 9.45874 11.0078 9.63497 10.8567 9.86109C10.7056 10.0872 10.625 10.3531 10.625 10.625C10.625 10.9897 10.7699 11.3394 11.0278 11.5972C11.2856 11.8551 11.6353 12 12 12ZM18 5V3C18 2.73478 17.8946 2.48043 17.7071 2.29289C17.5196 2.10536 17.2652 2 17 2C16.7348 2 16.4804 2.10536 16.2929 2.29289C16.1054 2.48043 16 2.73478 16 3V5H8V3C8 2.73478 7.89464 2.48043 7.70711 2.29289C7.51957 2.10536 7.26522 2 7 2C6.73478 2 6.48043 2.10536 6.29289 2.29289C6.10536 2.48043 6 2.73478 6 3V5H2V21H22V5H18ZM20 19H4V7H20V19ZM15 14.5938C14.2043 13.7982 13.1252 13.3512 12 13.3512C10.8748 13.3512 9.79566 13.7982 9 14.5938V16H15V14.5938Z" fill="black"/>
</svg>
