<svg width="24" height="24" viewBox="0 0 24 24" fill="none" xmlns="http://www.w3.org/2000/svg">
<path d="M18.0139 8.99H13.0371V5.5605H10.9907V8.99H6.01389C4.95302 8.99 3.9356 9.41143 3.18546 10.1616C2.43531 10.9117 2.01389 11.9291 2.01389 12.99V21.99H22.0139V12.99C22.0139 11.9291 21.5925 10.9117 20.8423 10.1616C20.0922 9.41143 19.0748 8.99 18.0139 8.99ZM11.4907 6.0605H12.5371V8.99H11.4907V6.0605ZM21.5139 21.49H2.51389V14.75H2.65619C3.54148 14.736 4.4026 14.4589 5.12999 13.9541C5.76954 13.4913 6.53882 13.2422 7.32824 13.2422C8.11765 13.2422 8.88693 13.4913 9.52649 13.9541C10.2483 14.4695 11.1131 14.7466 12.0001 14.7466C12.887 14.7466 13.7518 14.4695 14.4737 13.9541C15.1132 13.4913 15.8825 13.2422 16.6719 13.2422C17.4613 13.2422 18.2306 13.4913 18.8702 13.9541C19.5975 14.4589 20.4586 14.736 21.3439 14.75H21.5139V21.49ZM21.5139 14.25H21.3439C20.5566 14.2352 19.7914 13.9867 19.1456 13.5361C18.4237 13.0207 17.5589 12.7436 16.6719 12.7436C15.785 12.7436 14.9201 13.0207 14.1983 13.5361C13.5584 13.998 12.7893 14.2466 12.0001 14.2466C11.2109 14.2466 10.4418 13.998 9.80189 13.5361C9.08003 13.0207 8.21521 12.7436 7.32824 12.7436C6.44126 12.7436 5.57644 13.0207 4.85459 13.5361C4.20878 13.9867 3.44362 14.2352 2.65629 14.25H2.51389V12.99C2.51492 12.0621 2.884 11.1724 3.54015 10.5163C4.19631 9.86011 5.08594 9.49103 6.01389 9.49H18.0139C18.9418 9.49106 19.8314 9.86015 20.4876 10.5163C21.1437 11.1724 21.5128 12.0621 21.5139 12.99V14.25ZM12 4.5938C12.3677 4.59377 12.7203 4.44769 12.9803 4.1877C13.2402 3.9277 13.3863 3.57508 13.3863 3.2074C13.3863 2.0984 12 0 12 0C12 0 10.6137 2.0984 10.6137 3.2074C10.6137 3.57508 10.7597 3.9277 11.0197 4.1877C11.2797 4.44769 11.6323 4.59377 12 4.5938ZM12 0.96C12.4419 1.64296 12.7432 2.40715 12.8863 3.2079C12.8863 3.44296 12.7929 3.6684 12.6267 3.83461C12.4605 4.00082 12.235 4.0942 12 4.0942C11.7649 4.0942 11.5395 4.00082 11.3733 3.83461C11.2071 3.6684 11.1137 3.44296 11.1137 3.2079C11.2568 2.40715 11.5581 1.64296 12 0.96Z" fill="black"/>
</svg>
