<svg width="24" height="24" viewBox="0 0 24 24" fill="none" xmlns="http://www.w3.org/2000/svg">
<path d="M12 4C10.22 4 8.47991 4.52784 6.99987 5.51677C5.51983 6.5057 4.36627 7.91131 3.68508 9.55585C3.0039 11.2004 2.82567 13.01 3.17293 14.7558C3.5202 16.5016 4.37737 18.1053 5.63604 19.364C6.89471 20.6226 8.49836 21.4798 10.2442 21.8271C11.99 22.1743 13.7996 21.9961 15.4442 21.3149C17.0887 20.6337 18.4943 19.4802 19.4832 18.0001C20.4722 16.5201 21 14.78 21 13C21 10.613 20.0518 8.32386 18.364 6.63604C16.6761 4.94821 14.3869 4 12 4ZM12 21C10.4177 21 8.87103 20.5308 7.55544 19.6518C6.23984 18.7727 5.21447 17.5233 4.60896 16.0615C4.00346 14.5997 3.84504 12.9911 4.15372 11.4393C4.4624 9.88743 5.22433 8.46196 6.34315 7.34314C7.46197 6.22432 8.88743 5.4624 10.4393 5.15372C11.9911 4.84503 13.5997 5.00346 15.0615 5.60896C16.5233 6.21446 17.7727 7.23984 18.6518 8.55544C19.5308 9.87103 20 11.4177 20 13C19.9976 15.121 19.154 17.1544 17.6542 18.6542C16.1544 20.154 14.121 20.9976 12 21ZM16.4426 0.795898L16.1006 1.7359C18.7476 2.70239 20.9712 4.56752 22.3836 7.0059L23.2501 6.5059C21.7205 3.86334 19.311 1.84228 16.4426 0.795898ZM7.8994 1.7359L7.5574 0.795898C4.68909 1.8422 2.27962 3.8631 0.75 6.5055L1.6165 7.0055C3.02885 4.5671 5.25245 2.70194 7.8994 1.7354V1.7359ZM12.5 9.5529H11.5V12.5H8.5529V13.5H11.5V16.4472H12.5V13.5H15.4472V12.5H12.5V9.5529Z" fill="black"/>
</svg>
