<svg width="24" height="24" viewBox="0 0 24 24" fill="none" xmlns="http://www.w3.org/2000/svg">
<path d="M19 5.9562V2H5V5.9562C4.99991 7.11584 5.40291 8.23946 6.14 9.1347L8.5 12L6.14 14.8652C5.40288 15.7605 4.99989 16.8841 5 18.0438V22H19V18.0438C19.0001 16.8841 18.5971 15.7605 17.86 14.8652L15.5 12L17.86 9.1347C18.5971 8.23946 19.0001 7.11584 19 5.9562ZM7 4H17V5.9562C17 5.9709 16.9965 5.9853 16.9962 6H7.0038C7.0035 5.9853 7 5.9709 7 5.9562V4ZM16.3158 16.1367C16.7576 16.6741 16.9994 17.3481 17 18.0438V20H7V18.0438C7.00059 17.3481 7.24243 16.6741 7.6843 16.1367L10.0443 13.2714L10.2674 13H13.7326L13.9561 13.2714L16.3158 16.1367ZM13.9558 10.7286L13.7326 11H10.2674L10.0439 10.7286L7.7968 8H16.2031L13.9558 10.7286Z" fill="black"/>
</svg>
