<svg width="24" height="24" viewBox="0 0 24 24" fill="none" xmlns="http://www.w3.org/2000/svg">
<path d="M12 4C10.22 4 8.47991 4.52784 6.99987 5.51677C5.51983 6.5057 4.36627 7.91131 3.68508 9.55585C3.0039 11.2004 2.82567 13.01 3.17293 14.7558C3.5202 16.5016 4.37737 18.1053 5.63604 19.364C6.89471 20.6226 8.49836 21.4798 10.2442 21.8271C11.99 22.1743 13.7996 21.9961 15.4442 21.3149C17.0887 20.6337 18.4943 19.4802 19.4832 18.0001C20.4722 16.5201 21 14.78 21 13C21 10.613 20.0518 8.32386 18.364 6.63604C16.6761 4.94821 14.3869 4 12 4ZM12 20.5C10.5166 20.5 9.06659 20.0601 7.83322 19.236C6.59985 18.4119 5.63856 17.2406 5.0709 15.8701C4.50325 14.4997 4.35472 12.9917 4.64411 11.5368C4.9335 10.082 5.64781 8.74559 6.6967 7.6967C7.74559 6.6478 9.08196 5.9335 10.5368 5.64411C11.9917 5.35472 13.4997 5.50324 14.8701 6.0709C16.2406 6.63856 17.4119 7.59985 18.236 8.83322C19.0601 10.0666 19.5 11.5166 19.5 13C19.4977 14.9884 18.7069 16.8948 17.3008 18.3008C15.8948 19.7068 13.9884 20.4977 12 20.5ZM16.4428 0.796097L15.9297 2.2061C18.4656 3.13334 20.5959 4.92065 21.9497 7.2568L23.2497 6.506C21.7202 3.86366 19.3109 1.84269 16.4428 0.796097ZM8.07 2.2058L7.5572 0.796097C4.68903 1.84255 2.27967 3.86342 0.75 6.5057L2.05 7.2565C3.40382 4.92035 5.53413 3.13304 8.07 2.2058ZM9.4229 10.15V11.45H12.1719L9.2241 15.85H14.5V14.55H11.66L14.6077 10.15H9.4229Z" fill="black"/>
</svg>
