<svg width="24" height="24" viewBox="0 0 24 24" fill="none" xmlns="http://www.w3.org/2000/svg">
<path d="M18 5V2.25C18 2.1837 17.9737 2.12011 17.9268 2.07322C17.8799 2.02634 17.8163 2 17.75 2C17.6837 2 17.6201 2.02634 17.5732 2.07322C17.5263 2.12011 17.5 2.1837 17.5 2.25V5H6.5V2.25C6.5 2.1837 6.47366 2.12011 6.42678 2.07322C6.37989 2.02634 6.3163 2 6.25 2C6.1837 2 6.12011 2.02634 6.07322 2.07322C6.02634 2.12011 6 2.1837 6 2.25V5H2V21H22V5H18ZM8.35 15.1C8.28078 15.1 8.21311 15.0795 8.15555 15.041C8.09799 15.0026 8.05313 14.9479 8.02664 14.8839C8.00015 14.82 7.99322 14.7496 8.00673 14.6817C8.02023 14.6138 8.05356 14.5515 8.10251 14.5025C8.15146 14.4536 8.21382 14.4202 8.28172 14.4067C8.34961 14.3932 8.41998 14.4002 8.48394 14.4266C8.54789 14.4531 8.60256 14.498 8.64101 14.5556C8.67947 14.6131 8.7 14.6808 8.7 14.75C8.7 14.8428 8.66313 14.9318 8.59749 14.9975C8.53185 15.0631 8.44283 15.1 8.35 15.1ZM8.35 11.6C8.28078 11.6 8.21311 11.5795 8.15555 11.541C8.09799 11.5026 8.05313 11.4479 8.02664 11.3839C8.00015 11.32 7.99322 11.2496 8.00673 11.1817C8.02023 11.1138 8.05356 11.0515 8.10251 11.0025C8.15146 10.9536 8.21382 10.9202 8.28172 10.9067C8.34961 10.8932 8.41998 10.9002 8.48394 10.9266C8.54789 10.9531 8.60256 10.998 8.64101 11.0556C8.67947 11.1131 8.7 11.1808 8.7 11.25C8.7 11.3428 8.66313 11.4318 8.59749 11.4975C8.53185 11.5631 8.44283 11.6 8.35 11.6ZM16 15H11V14.5H16V15ZM16 11.5H11V11H16V11.5Z" fill="black"/>
</svg>
