<svg width="24" height="24" viewBox="0 0 24 24" fill="none" xmlns="http://www.w3.org/2000/svg">
<path d="M5 2V5.0057C5 5.55592 5.11351 6.10023 5.33344 6.60459C5.55338 7.10894 5.875 7.5625 6.2782 7.9369L10.6539 12L6.2782 16.0631C5.875 16.4375 5.55338 16.8911 5.33344 17.3954C5.11351 17.8998 5 18.4441 5 18.9943V22H19V18.9943C19 18.4441 18.8865 17.8998 18.6666 17.3954C18.4466 16.8911 18.125 16.4375 17.7218 16.0631L13.3461 12L17.7218 7.9369C18.125 7.5625 18.4466 7.10894 18.6666 6.60459C18.8865 6.10023 19 5.55592 19 5.0057V2" fill="black"/>
</svg>
