<svg width="24" height="24" viewBox="0 0 24 24" fill="none" xmlns="http://www.w3.org/2000/svg">
<path d="M13.0605 12L8.48242 7.4215L7.42192 8.4821L12 13.0605L13.0605 12ZM12 2H11.25V6H12.75V3.5423C14.7135 3.71264 16.5571 4.55887 17.9663 5.93667C19.3756 7.31447 20.2632 9.1385 20.4777 11.0976C20.6923 13.0568 20.2206 15.0297 19.143 16.6799C18.0654 18.3301 16.4487 19.5553 14.5686 20.1466C12.6886 20.7379 10.6616 20.6587 8.83344 19.9224C7.00527 19.1861 5.48915 17.8384 4.54367 16.1092C3.59819 14.3799 3.28191 12.3762 3.64877 10.4398C4.01564 8.50336 5.04292 6.75419 6.55542 5.4906L5.48162 4.4167C3.70264 5.94594 2.51791 8.05194 2.13467 10.3663C1.75143 12.6807 2.19406 15.0562 3.38515 17.0773C4.57623 19.0983 6.43995 20.6363 8.65032 21.4222C10.8607 22.2081 13.277 22.1918 15.4766 21.3763C17.6762 20.5608 19.5191 18.998 20.6829 16.9611C21.8468 14.9242 22.2574 12.543 21.8431 10.234C21.4288 7.92491 20.2159 5.83502 18.4166 4.32982C16.6172 2.82461 14.3459 1.99993 12 2Z" fill="black"/>
</svg>
