<svg width="24" height="24" viewBox="0 0 24 24" fill="none" xmlns="http://www.w3.org/2000/svg">
<path d="M16.4424 0.795685L16.2715 1.26498C19.0296 2.27102 21.3464 4.2142 22.8173 6.75498L23.2499 6.50498C21.7202 3.8627 19.3107 1.84191 16.4424 0.795685ZM7.7285 1.26498L7.5576 0.795685C4.68924 1.84194 2.27971 3.86281 0.75 6.50518L1.1826 6.75518C2.65345 4.2143 4.97036 2.27105 7.7285 1.26498ZM12 3.99998C10.22 3.99998 8.47991 4.52783 6.99987 5.51676C5.51983 6.50569 4.36627 7.9113 3.68508 9.55583C3.0039 11.2004 2.82567 13.01 3.17293 14.7558C3.5202 16.5016 4.37737 18.1053 5.63604 19.3639C6.89471 20.6226 8.49836 21.4798 10.2442 21.8271C11.99 22.1743 13.7996 21.9961 15.4442 21.3149C17.0887 20.6337 18.4943 19.4802 19.4832 18.0001C20.4722 16.5201 21 14.78 21 13C21 10.613 20.0518 8.32385 18.364 6.63602C16.6761 4.9482 14.3869 3.99998 12 3.99998ZM15.4471 13.25H12.25V16.4472H11.75V13.25H8.5529V12.75H11.75V9.55289H12.25V12.75H15.4471V13.25Z" fill="black"/>
</svg>
