<svg width="24" height="24" viewBox="0 0 24 24" fill="none" xmlns="http://www.w3.org/2000/svg">
<path d="M12 2C10.0222 2 8.08879 2.58649 6.4443 3.6853C4.79981 4.78412 3.51809 6.3459 2.76121 8.17317C2.00433 10.0004 1.8063 12.0111 2.19215 13.9509C2.578 15.8907 3.53041 17.6725 4.92894 19.0711C6.32746 20.4696 8.10929 21.422 10.0491 21.8079C11.9889 22.1937 13.9996 21.9957 15.8268 21.2388C17.6541 20.4819 19.2159 19.2002 20.3147 17.5557C21.4135 15.9112 22 13.9778 22 12C22 10.6868 21.7413 9.38642 21.2388 8.17317C20.7363 6.95991 19.9997 5.85752 19.0711 4.92893C18.1425 4.00035 17.0401 3.26375 15.8268 2.7612C14.6136 2.25866 13.3132 2 12 2ZM12 20C10.4178 20 8.87104 19.5308 7.55544 18.6518C6.23985 17.7727 5.21447 16.5233 4.60897 15.0615C4.00347 13.5997 3.84504 11.9911 4.15372 10.4393C4.4624 8.88743 5.22433 7.46197 6.34315 6.34315C7.46197 5.22433 8.88743 4.4624 10.4393 4.15372C11.9911 3.84504 13.5997 4.00346 15.0615 4.60896C16.5233 5.21447 17.7727 6.23984 18.6518 7.55544C19.5308 8.87103 20 10.4177 20 12C19.9976 14.121 19.154 16.1544 17.6542 17.6542C16.1544 19.154 14.121 19.9976 12 20ZM12 6.8457C10.6445 6.84325 9.34328 7.37855 8.3819 8.3342L6.955 6.9073V11.2088H11.2564L9.7964 9.7488C10.3984 9.18528 11.1933 8.87352 12.0179 8.87752C12.8425 8.88152 13.6343 9.20096 14.2308 9.7703C14.5237 10.0632 14.756 10.4109 14.9145 10.7935C15.073 11.1762 15.1546 11.5864 15.1546 12.0006C15.1546 12.4147 15.073 12.8249 14.9145 13.2076C14.756 13.5902 14.5237 13.9379 14.2308 14.2308C13.6298 14.8043 12.831 15.1243 12.0003 15.1243C11.1696 15.1243 10.3708 14.8043 9.7698 14.2308C9.4516 13.9098 9.2066 13.5237 9.0516 13.0991H6.9706C7.17861 14.0481 7.65075 14.9188 8.33253 15.6109C9.0143 16.303 9.87791 16.7881 10.8236 17.0104C11.7694 17.2326 12.7587 17.1828 13.6773 16.8667C14.596 16.5507 15.4065 15.9813 16.0153 15.2243C16.6242 14.4673 17.0065 13.5535 17.1182 12.5884C17.2299 11.6234 17.0664 10.6464 16.6465 9.77035C16.2267 8.89428 15.5676 8.1548 14.7454 7.6373C13.9233 7.1198 12.9715 6.84537 12 6.8457Z" fill="black"/>
</svg>
