<svg width="24" height="24" viewBox="0 0 24 24" fill="none" xmlns="http://www.w3.org/2000/svg">
<path d="M18 5V2.75C18 2.55109 17.921 2.36032 17.7803 2.21967C17.6397 2.07902 17.4489 2 17.25 2C17.0511 2 16.8603 2.07902 16.7197 2.21967C16.579 2.36032 16.5 2.55109 16.5 2.75V5H7.5V2.75C7.5 2.55109 7.42098 2.36032 7.28033 2.21967C7.13968 2.07902 6.94891 2 6.75 2C6.55109 2 6.36032 2.07902 6.21967 2.21967C6.07902 2.36032 6 2.55109 6 2.75V5H2V21H22V5H18ZM8.8 15.55C8.64178 15.55 8.4871 15.5031 8.35554 15.4152C8.22398 15.3273 8.12145 15.2023 8.0609 15.0561C8.00035 14.91 7.9845 14.7491 8.01537 14.5939C8.04624 14.4387 8.12243 14.2962 8.23431 14.1843C8.3462 14.0724 8.48874 13.9962 8.64393 13.9654C8.79911 13.9345 8.95997 13.9503 9.10615 14.0109C9.25233 14.0714 9.37727 14.174 9.46518 14.3055C9.55308 14.4371 9.6 14.5918 9.6 14.75C9.6 14.9622 9.51571 15.1657 9.36569 15.3157C9.21566 15.4657 9.01217 15.55 8.8 15.55ZM8.8 12.05C8.64178 12.05 8.4871 12.0031 8.35554 11.9152C8.22398 11.8273 8.12145 11.7023 8.0609 11.5561C8.00035 11.41 7.9845 11.2491 8.01537 11.0939C8.04624 10.9387 8.12243 10.7962 8.23431 10.6843C8.3462 10.5724 8.48874 10.4962 8.64393 10.4654C8.79911 10.4345 8.95997 10.4503 9.10615 10.5109C9.25233 10.5714 9.37727 10.674 9.46518 10.8055C9.55308 10.9371 9.6 11.0918 9.6 11.25C9.6 11.4622 9.51571 11.6657 9.36569 11.8157C9.21566 11.9657 9.01217 12.05 8.8 12.05ZM16 15.475H11V14.025H16V15.475ZM16 11.975H11V10.525H16V11.975Z" fill="black"/>
</svg>
