<svg width="24" height="24" viewBox="0 0 24 24" fill="none" xmlns="http://www.w3.org/2000/svg">
<path d="M16.4428 0.796112L15.9297 2.20611C18.4656 3.13336 20.5959 4.92067 21.9497 7.25681L23.2497 6.50601C21.7202 3.86368 19.3109 1.8427 16.4428 0.796112ZM8.07 2.20581L7.5572 0.796112C4.68903 1.84257 2.27967 3.86344 0.75 6.50571L2.05 7.25651C3.40382 4.92037 5.53413 3.13306 8.07 2.20581ZM12 4.00001C10.22 4.00001 8.47991 4.52785 6.99987 5.51679C5.51983 6.50572 4.36627 7.91133 3.68508 9.55586C3.0039 11.2004 2.82567 13.01 3.17293 14.7558C3.5202 16.5017 4.37737 18.1053 5.63604 19.364C6.89471 20.6226 8.49836 21.4798 10.2442 21.8271C11.99 22.1743 13.7996 21.9961 15.4442 21.3149C17.0887 20.6337 18.4943 19.4802 19.4832 18.0001C20.4722 16.5201 21 14.78 21 13C21 10.6131 20.0518 8.32388 18.364 6.63605C16.6761 4.94822 14.3869 4.00001 12 4.00001ZM14.5 14.55V15.85H9.2241L12.1719 11.45H9.4229V10.15H14.6074L11.66 14.55H14.5Z" fill="black"/>
</svg>
