<svg width="24" height="24" viewBox="0 0 24 24" fill="none" xmlns="http://www.w3.org/2000/svg">
<path d="M15.6 11.4H12.4V14.6H15.6V11.4ZM18 5V2.75C18 2.55109 17.921 2.36032 17.7803 2.21967C17.6397 2.07902 17.4489 2 17.25 2C17.0511 2 16.8603 2.07902 16.7197 2.21967C16.579 2.36032 16.5 2.55109 16.5 2.75V5H7.5V2.75C7.5 2.55109 7.42098 2.36032 7.28033 2.21967C7.13968 2.07902 6.94891 2 6.75 2C6.55109 2 6.36032 2.07902 6.21967 2.21967C6.07902 2.36032 6 2.55109 6 2.75V5H2V21H22V5H18ZM17 16H11V10H17V16Z" fill="black"/>
</svg>
