<svg width="24" height="24" viewBox="0 0 24 24" fill="none" xmlns="http://www.w3.org/2000/svg">
<path d="M18 5V2.25C18 2.1837 17.9737 2.12011 17.9268 2.07322C17.8799 2.02634 17.8163 2 17.75 2C17.6837 2 17.6201 2.02634 17.5732 2.07322C17.5263 2.12011 17.5 2.1837 17.5 2.25V5H6.5V2.25C6.5 2.1837 6.47366 2.12011 6.42678 2.07322C6.37989 2.02634 6.3163 2 6.25 2C6.1837 2 6.12011 2.02634 6.07322 2.07322C6.02634 2.12011 6 2.1837 6 2.25V5H2V21H22V5H18ZM12 9.25C12.2719 9.25 12.5378 9.33064 12.7639 9.48173C12.99 9.63282 13.1663 9.84756 13.2703 10.0988C13.3744 10.3501 13.4016 10.6265 13.3486 10.8932C13.2955 11.16 13.1646 11.405 12.9723 11.5973C12.78 11.7896 12.535 11.9205 12.2682 11.9736C12.0015 12.0266 11.7251 11.9994 11.4738 11.8953C11.2226 11.7913 11.0078 11.615 10.8567 11.3889C10.7056 11.1628 10.625 10.8969 10.625 10.625C10.625 10.2603 10.7699 9.91059 11.0277 9.65273C11.2856 9.39487 11.6353 9.25 12 9.25ZM15 16H9V14.5938C9.79566 13.7982 10.8748 13.3512 12 13.3512C13.1252 13.3512 14.2043 13.7982 15 14.5938V16Z" fill="black"/>
</svg>
