<svg width="24" height="24" viewBox="0 0 24 24" fill="none" xmlns="http://www.w3.org/2000/svg">
<path d="M19 5.6393V2H5V5.6393C4.99991 6.78235 5.42243 7.88507 6.1863 8.7354L9.218 12L6.1863 15.2645C5.42245 16.1148 4.99994 17.2176 5 18.3606V22H19V18.3606C19.0001 17.2176 18.5775 16.1148 17.8137 15.2645L14.782 12L17.8137 8.7354C18.5776 7.88507 19.0001 6.78235 19 5.6393ZM6.5 3.5H17.5V5.6393C17.4957 5.76009 17.4844 5.88053 17.4661 6H6.5339C6.51559 5.88053 6.50427 5.76009 6.5 5.6393V3.5ZM16.6711 16.2343C17.2035 16.8145 17.4992 17.5731 17.5 18.3606V20.5H6.5V18.3606C6.50077 17.5731 6.79654 16.8145 7.329 16.2343L10.3606 12.97L11.19 12H12.81L13.6395 12.97L16.6711 16.2343Z" fill="black"/>
</svg>
