<svg width="24" height="24" viewBox="0 0 24 24" fill="none" xmlns="http://www.w3.org/2000/svg">
<path d="M12.3535 12L8.12887 7.7754L7.77538 8.1289L12 12.3535L12.3535 12ZM12 2H11.75V6H12.25V2.5029C14.4441 2.56351 16.5493 3.38295 18.207 4.82163C19.8646 6.26031 20.9722 8.22922 21.3411 10.3929C21.7099 12.5567 21.3171 14.7813 20.2297 16.6879C19.1423 18.5946 17.4274 20.0652 15.3773 20.8493C13.3272 21.6333 11.0687 21.6824 8.98648 20.988C6.90427 20.2936 5.12722 18.8988 3.95805 17.0412C2.78889 15.1836 2.29995 12.9781 2.57452 10.8004C2.84909 8.6227 3.8702 6.60757 5.46388 5.0983L5.10998 4.7442C3.42171 6.34454 2.34377 8.4831 2.0615 10.7921C1.77924 13.1012 2.31029 15.4364 3.56334 17.3963C4.8164 19.3562 6.71315 20.8183 8.92746 21.5312C11.1418 22.244 13.5353 22.1631 15.6964 21.3024C17.8575 20.4416 19.6512 18.8548 20.7691 16.8148C21.8869 14.7748 22.2591 12.409 21.8216 10.1243C21.3841 7.83958 20.1642 5.77868 18.3717 4.29598C16.5793 2.81328 14.3262 2.00142 12 2Z" fill="black"/>
</svg>
