<svg width="24" height="24" viewBox="0 0 24 24" fill="none" xmlns="http://www.w3.org/2000/svg">
<path d="M18 5V2.25C18 2.1837 17.9737 2.12011 17.9268 2.07322C17.8799 2.02634 17.8163 2 17.75 2C17.6837 2 17.6201 2.02634 17.5732 2.07322C17.5263 2.12011 17.5 2.1837 17.5 2.25V5H6.5V2.25C6.5 2.1837 6.47366 2.12011 6.42678 2.07322C6.37989 2.02634 6.3163 2 6.25 2C6.1837 2 6.12011 2.02634 6.07322 2.07322C6.02634 2.12011 6 2.1837 6 2.25V5H2V21H22V5H18ZM9 16H7V14H9V16ZM13 16H11V14H13V16ZM13 12H11V10H13V12ZM17 12H15V10H17V12Z" fill="black"/>
</svg>
