<svg width="24" height="24" viewBox="0 0 24 24" fill="none" xmlns="http://www.w3.org/2000/svg">
<path d="M12 4.5938C12.3677 4.59377 12.7203 4.44769 12.9803 4.1877C13.2402 3.9277 13.3863 3.57508 13.3863 3.2074C13.3863 2.0984 12 0 12 0C12 0 10.6137 2.0984 10.6137 3.2074C10.6137 3.57508 10.7598 3.9277 11.0197 4.1877C11.2797 4.44769 11.6323 4.59377 12 4.5938ZM18 9H13V6H11V9H6C4.93913 9 3.92172 9.42143 3.17157 10.1716C2.42143 10.9217 2 11.9391 2 13V22H22V13C22 11.9391 21.5786 10.9217 20.8284 10.1716C20.0783 9.42143 19.0609 9 18 9ZM20.1 20.1H3.9V16.45H4.3057C5.23142 16.4297 6.12146 16.089 6.8242 15.4861C6.99841 15.3109 7.20555 15.1719 7.43368 15.0771C7.66182 14.9823 7.90645 14.9335 8.15351 14.9336C8.40056 14.9337 8.64516 14.9827 8.87322 15.0777C9.10129 15.1727 9.30832 15.3118 9.4824 15.4871C10.1759 16.1045 11.0722 16.4455 12.0007 16.4453C12.9292 16.4451 13.8253 16.1038 14.5186 15.4861C14.6928 15.3109 14.8999 15.1719 15.1281 15.0771C15.3562 14.9823 15.6009 14.9335 15.8479 14.9336C16.095 14.9337 16.3396 14.9827 16.5676 15.0777C16.7957 15.1727 17.0027 15.3118 17.1768 15.4871C17.8794 16.0895 18.769 16.4297 19.6943 16.45H20.1V20.1ZM20.1 14.55H19.6943C19.2014 14.5276 18.7316 14.3346 18.3652 14.0041C17.6721 13.3864 16.7762 13.0451 15.8478 13.0449C14.9195 13.0447 14.0234 13.3857 13.3301 14.0031C13.1557 14.178 12.9485 14.3168 12.7204 14.4115C12.4923 14.5062 12.2477 14.555 12.0007 14.5551C11.7537 14.5552 11.5091 14.5066 11.2809 14.4121C11.0527 14.3175 10.8454 14.1789 10.6709 14.0041C9.9778 13.3865 9.08187 13.0451 8.15349 13.0449C7.22511 13.0447 6.32905 13.3857 5.6357 14.0031C5.26922 14.3341 4.79905 14.5275 4.3057 14.55H3.9V13C3.90061 12.4432 4.12205 11.9094 4.51575 11.5157C4.90944 11.1221 5.44323 10.9006 6 10.9H18C18.5568 10.9006 19.0906 11.1221 19.4843 11.5157C19.8779 11.9094 20.0994 12.4432 20.1 13V14.55Z" fill="black"/>
</svg>
