<svg width="24" height="24" viewBox="0 0 24 24" fill="none" xmlns="http://www.w3.org/2000/svg">
<path d="M18 5V2.5C18 2.36739 17.9473 2.24021 17.8536 2.14645C17.7598 2.05268 17.6326 2 17.5 2C17.3674 2 17.2402 2.05268 17.1464 2.14645C17.0527 2.24021 17 2.36739 17 2.5V5H7V2.5C7 2.36739 6.94732 2.24021 6.85355 2.14645C6.75979 2.05268 6.63261 2 6.5 2C6.36739 2 6.24021 2.05268 6.14645 2.14645C6.05268 2.24021 6 2.36739 6 2.5V5H2V21H22V5H18ZM8.55 15.05C8.44122 15.05 8.33488 15.0177 8.24444 14.9573C8.15399 14.8969 8.08349 14.811 8.04187 14.7105C8.00024 14.61 7.98935 14.4994 8.01057 14.3927C8.03179 14.286 8.08417 14.188 8.16109 14.1111C8.23801 14.0342 8.33601 13.9818 8.4427 13.9606C8.54939 13.9393 8.65998 13.9502 8.76048 13.9919C8.86098 14.0335 8.94687 14.104 9.00731 14.1944C9.06774 14.2849 9.1 14.3912 9.1 14.5C9.1 14.6459 9.04205 14.7858 8.93891 14.8889C8.83576 14.9921 8.69587 15.05 8.55 15.05ZM8.55 12.05C8.44122 12.05 8.33488 12.0177 8.24444 11.9573C8.15399 11.8969 8.08349 11.811 8.04187 11.7105C8.00024 11.61 7.98935 11.4994 8.01057 11.3927C8.03179 11.286 8.08417 11.188 8.16109 11.1111C8.23801 11.0342 8.33601 10.9818 8.4427 10.9606C8.54939 10.9393 8.65998 10.9502 8.76048 10.9919C8.86098 11.0335 8.94687 11.104 9.00731 11.1944C9.06774 11.2849 9.1 11.3912 9.1 11.5C9.1 11.6459 9.04205 11.7858 8.93891 11.8889C8.83576 11.9921 8.69587 12.05 8.55 12.05ZM16 15H10.5V14H16V15ZM16 12H10.5V11H16V12Z" fill="black"/>
</svg>
