<svg width="24" height="24" viewBox="0 0 24 24" fill="none" xmlns="http://www.w3.org/2000/svg">
<path d="M19.576 5.4845L21.016 4.0445L19.956 2.984L18.516 4.424C16.8997 3.03064 14.8782 2.19408 12.75 2.0379V0H11.25V2.0379C9.00603 2.20599 6.88431 3.1258 5.22768 4.64868C3.57105 6.17155 2.4763 8.20853 2.12034 10.4304C1.76439 12.6523 2.16801 14.9294 3.266 16.8935C4.36399 18.8577 6.09219 20.3943 8.17132 21.255C10.2505 22.1156 12.5591 22.2501 14.7241 21.6367C16.8891 21.0232 18.784 19.6977 20.1026 17.8743C21.4213 16.0509 22.0865 13.8362 21.991 11.5879C21.8954 9.33974 21.0446 7.18943 19.576 5.4845ZM12 20.5C10.3188 20.5 8.67545 20.0015 7.27764 19.0675C5.87982 18.1335 4.79035 16.806 4.14701 15.2528C3.50366 13.6996 3.33533 11.9906 3.66331 10.3417C3.99128 8.69289 4.80083 7.17834 5.98957 5.98959C7.17832 4.80085 8.69288 3.9913 10.3417 3.66333C11.9906 3.33535 13.6996 3.50368 15.2528 4.14702C16.806 4.79037 18.1335 5.87984 19.0675 7.27765C20.0015 8.67547 20.5 10.3189 20.5 12C20.4973 14.2535 19.601 16.414 18.0075 18.0075C16.414 19.601 14.2535 20.4974 12 20.5ZM7.22748 8.2881L12 13.0605L13.06 12.0005L8.28808 7.2275L7.22748 8.2881Z" fill="black"/>
</svg>
