<svg width="24" height="24" viewBox="0 0 24 24" fill="none" xmlns="http://www.w3.org/2000/svg">
<path d="M12 13.4141L13.4141 12L8.65919 7.2446L7.24509 8.6587L12 13.4141ZM12 2H11V6H13V4.062C14.8422 4.28908 16.5485 5.14817 17.8281 6.49278C19.1076 7.83738 19.8811 9.58422 20.0166 11.4354C20.152 13.2865 19.6412 15.1274 18.5711 16.644C17.501 18.1606 15.9379 19.259 14.1484 19.7519C12.3589 20.2447 10.4539 20.1016 8.75815 19.3469C7.06242 18.5921 5.68103 17.2725 4.84955 15.613C4.01808 13.9535 3.78802 12.057 4.19861 10.2469C4.60919 8.43676 5.635 6.82511 7.10109 5.6868L5.66749 4.253C3.84018 5.74376 2.59808 7.83199 2.16032 10.1493C1.72257 12.4666 2.11729 14.864 3.27485 16.9186C4.43241 18.9733 6.27842 20.5531 8.48722 21.3793C10.696 22.2056 13.1257 22.2252 15.3475 21.4347C17.5693 20.6442 19.4406 19.0944 20.6312 17.0587C21.8217 15.023 22.2551 12.6323 21.8548 10.3082C21.4545 7.98415 20.2462 5.87615 18.4432 4.35609C16.6402 2.83603 14.3583 2.0016 12 2Z" fill="black"/>
</svg>
