<svg width="24" height="24" viewBox="0 0 24 24" fill="none" xmlns="http://www.w3.org/2000/svg">
<path d="M19.4077 5.2993L20.8389 3.8682L20.1318 3.1611L18.7007 4.5923C16.9937 3.04394 14.8019 2.13657 12.5 2.0253V0H11.5V2.0253C9.23003 2.13746 7.06587 3.01905 5.36366 4.52498C3.66145 6.03091 2.52262 8.07145 2.13456 10.3108C1.74651 12.5502 2.13236 14.8549 3.22861 16.8458C4.32487 18.8367 6.06622 20.395 8.16609 21.2644C10.266 22.1338 12.5993 22.2625 14.782 21.6292C16.9647 20.9959 18.8668 19.6384 20.1753 17.7802C21.4838 15.9219 22.1207 13.6735 21.9812 11.4051C21.8416 9.13661 20.934 6.98324 19.4077 5.2993ZM12 21C10.22 21 8.47991 20.4722 6.99987 19.4832C5.51983 18.4943 4.36627 17.0887 3.68509 15.4442C3.0039 13.7996 2.82567 11.99 3.17293 10.2442C3.5202 8.49836 4.37737 6.89471 5.63604 5.63604C6.89471 4.37737 8.49836 3.5202 10.2442 3.17293C11.99 2.82567 13.7996 3.0039 15.4442 3.68508C17.0887 4.36627 18.4943 5.51983 19.4832 6.99987C20.4722 8.47991 21 10.22 21 12C20.9974 14.3861 20.0483 16.6738 18.361 18.361C16.6738 20.0483 14.3861 20.9974 12 21ZM7.4043 8.1113L12 12.707L12.707 12L8.1113 7.4043L7.4043 8.1113Z" fill="black"/>
</svg>
