<svg width="24" height="24" viewBox="0 0 24 24" fill="none" xmlns="http://www.w3.org/2000/svg">
<path d="M12 4.5938C12.1631 4.5938 12.3245 4.56168 12.4752 4.49927C12.6259 4.43686 12.7627 4.34539 12.878 4.23007C12.9934 4.11476 13.0848 3.97787 13.1472 3.8272C13.2096 3.67654 13.2417 3.51507 13.2417 3.352C13.0217 2.32171 12.5997 1.34525 12 0.479095C11.4003 1.34525 10.9783 2.32171 10.7583 3.352C10.7583 3.51507 10.7904 3.67654 10.8528 3.8272C10.9152 3.97787 11.0066 4.11476 11.122 4.23007C11.2373 4.34539 11.3741 4.43686 11.5248 4.49927C11.6755 4.56168 11.8369 4.5938 12 4.5938ZM18 9H12.9V6H11.1V9H6C4.93913 9 3.92172 9.42142 3.17157 10.1716C2.42143 10.9217 2 11.9391 2 13V14.417H2.4043C3.11717 14.4053 3.81077 14.1837 4.3984 13.78C5.22372 13.2132 6.20141 12.9099 7.2026 12.9099C8.20379 12.9099 9.18148 13.2132 10.0068 13.78C10.5871 14.1981 11.2843 14.4231 11.9995 14.4231C12.7147 14.4231 13.4119 14.1981 13.9922 13.78C14.8177 13.2132 15.7956 12.9098 16.7969 12.9098C17.7982 12.9098 18.7761 13.2132 19.6016 13.78C20.1893 14.1836 20.8829 14.4051 21.5957 14.4167H22V13C22 11.9391 21.5786 10.9217 20.8284 10.1716C20.0783 9.42142 19.0609 9 18 9ZM18.791 15.042C18.21 14.6248 17.5127 14.4004 16.7973 14.4004C16.082 14.4004 15.3847 14.6248 14.8037 15.042C13.9787 15.6097 13.0009 15.9136 11.9995 15.9136C10.9981 15.9136 10.0203 15.6097 9.1953 15.042C8.61444 14.6248 7.91731 14.4004 7.20215 14.4004C6.48699 14.4004 5.78986 14.6248 5.209 15.042C4.37909 15.6002 3.4044 15.9043 2.4043 15.917H2V22H22V15.917H21.5957C20.5956 15.9043 19.6209 15.6002 18.791 15.042Z" fill="black"/>
</svg>
