<svg width="24" height="24" viewBox="0 0 24 24" fill="none" xmlns="http://www.w3.org/2000/svg">
<path d="M10.5938 8.0625V14.0625H15.5938V12.0625H12.5938V8.0625H10.5938ZM18.3638 5.6362C16.676 3.94847 14.3869 3.00032 12 3.00032C9.61313 3.00032 7.32401 3.94847 5.6362 5.6362L4.9642 6.3079L3 4.3431V10H8.6569L6.3785 7.7217L7.05 7.05C8.16525 5.92908 9.62639 5.21767 11.1966 5.03109C12.7667 4.84451 14.3539 5.19369 15.7008 6.02203C17.0477 6.85038 18.0753 8.10933 18.6171 9.59481C19.159 11.0803 19.1832 12.7052 18.686 14.2062C18.1887 15.7072 17.1991 16.9963 15.8776 17.8645C14.556 18.7327 12.98 19.1291 11.405 18.9895C9.82992 18.8498 8.3482 18.1824 7.19998 17.0952C6.05176 16.0081 5.30435 14.5651 5.0789 13H3.0589C3.2467 14.6841 3.9063 16.281 4.96176 17.6067C6.01722 18.9325 7.42563 19.9332 9.02483 20.4936C10.624 21.0541 12.349 21.1516 14.0012 20.7748C15.6533 20.398 17.1654 19.5622 18.3635 18.3638C19.1993 17.5281 19.8623 16.536 20.3146 15.4441C20.7669 14.3522 20.9997 13.1819 20.9997 12C20.9997 10.8181 20.7669 9.6478 20.3146 8.55589C19.8623 7.46398 19.1993 6.47187 18.3635 5.6362H18.3638Z" fill="black"/>
</svg>
