<svg width="24" height="24" viewBox="0 0 24 24" fill="none" xmlns="http://www.w3.org/2000/svg">
<path d="M12 2C10.0222 2 8.08879 2.58649 6.4443 3.6853C4.79981 4.78412 3.51809 6.3459 2.76121 8.17317C2.00433 10.0004 1.8063 12.0111 2.19215 13.9509C2.578 15.8907 3.53041 17.6725 4.92894 19.0711C6.32746 20.4696 8.10929 21.422 10.0491 21.8079C11.9889 22.1937 13.9996 21.9957 15.8268 21.2388C17.6541 20.4819 19.2159 19.2002 20.3147 17.5557C21.4135 15.9112 22 13.9778 22 12C22 10.6868 21.7413 9.38642 21.2388 8.17317C20.7363 6.95991 19.9997 5.85752 19.0711 4.92893C18.1425 4.00035 17.0401 3.26375 15.8268 2.7612C14.6136 2.25866 13.3132 2 12 2ZM12 20.5C10.3189 20.5 8.67548 20.0015 7.27766 19.0675C5.87984 18.1335 4.79037 16.806 4.14703 15.2528C3.50368 13.6996 3.33536 11.9906 3.66333 10.3417C3.9913 8.69289 4.80085 7.17834 5.9896 5.98959C7.17834 4.80085 8.6929 3.9913 10.3417 3.66333C11.9906 3.33535 13.6996 3.50368 15.2528 4.14702C16.806 4.79037 18.1335 5.87984 19.0675 7.27765C20.0015 8.67547 20.5 10.3189 20.5 12C20.4974 14.2535 19.601 16.414 18.0075 18.0075C16.414 19.601 14.2535 20.4974 12 20.5ZM12 7.0957C11.3557 7.09384 10.7174 7.21985 10.1221 7.46643C9.52688 7.71301 8.98646 8.07526 8.5322 8.5322L8.4022 8.6622L7.1843 7.4438V10.9794H10.72L9.463 9.7225L9.593 9.5925C10.2417 8.97379 11.1038 8.62861 12.0002 8.62861C12.8967 8.62861 13.7587 8.97379 14.4074 9.5925C15.0458 10.2309 15.4045 11.0968 15.4045 11.9997C15.4045 12.9026 15.0458 13.7685 14.4074 14.4069C13.7587 15.0256 12.8967 15.3708 12.0002 15.3708C11.1038 15.3708 10.2417 15.0256 9.593 14.4069C9.17142 13.9806 8.87081 13.4499 8.722 12.8691H7.1805C7.3466 13.786 7.77072 14.6366 8.40311 15.321C9.03549 16.0054 9.84993 16.4953 10.7509 16.7333C11.6519 16.9712 12.602 16.9473 13.4899 16.6644C14.3777 16.3814 15.1665 15.8512 15.7636 15.1358C16.3608 14.4204 16.7416 13.5496 16.8614 12.6255C16.9812 11.7014 16.8349 10.7623 16.4399 9.91831C16.0448 9.07434 15.4173 8.36053 14.6309 7.86059C13.8445 7.36065 12.9319 7.09531 12 7.0957Z" fill="black"/>
</svg>
