<svg width="24" height="24" viewBox="0 0 24 24" fill="none" xmlns="http://www.w3.org/2000/svg">
<path d="M21 21V18H20V21H12.5V18H11.5V21H4V18H3V21H1V22H23V21H21ZM12 15C13.2856 15 14.5423 14.6188 15.6112 13.9046C16.6801 13.1903 17.5132 12.1752 18.0052 10.9874C18.4972 9.79973 18.6259 8.49279 18.3751 7.23192C18.1243 5.97104 17.5052 4.81285 16.5962 3.90381C15.6872 2.99477 14.529 2.3757 13.2681 2.1249C12.0072 1.87409 10.7003 2.00282 9.51256 2.49479C8.32484 2.98676 7.30968 3.81988 6.59545 4.8888C5.88122 5.95772 5.5 7.21442 5.5 8.5C5.5 10.2239 6.18482 11.8772 7.40381 13.0962C8.62279 14.3152 10.2761 15 12 15ZM12 3C13.0878 3 14.1512 3.32257 15.0556 3.92692C15.9601 4.53127 16.6651 5.39025 17.0813 6.39524C17.4976 7.40024 17.6065 8.5061 17.3943 9.573C17.1821 10.6399 16.6583 11.6199 15.8891 12.3891C15.1199 13.1583 14.1399 13.6821 13.073 13.8943C12.0061 14.1065 10.9002 13.9976 9.89524 13.5813C8.89025 13.1651 8.03126 12.4601 7.42692 11.5556C6.82257 10.6512 6.5 9.5878 6.5 8.5C6.50164 7.04182 7.08163 5.64382 8.11273 4.61273C9.14382 3.58163 10.5418 3.00164 12 3ZM14.8184 8.2129H12.2871V5.1318H11.42V9.08H14.8185L14.8184 8.2129Z" fill="black"/>
</svg>
