<svg width="24" height="24" viewBox="0 0 24 24" fill="none" xmlns="http://www.w3.org/2000/svg">
<path d="M19.7417 5.6727L21.1924 4.2217L19.7783 2.8076L18.3276 4.2586C16.8086 3.01281 14.9549 2.24451 13 2.0505V0H11V2.0505C8.78266 2.27266 6.703 3.22888 5.09095 4.76747C3.4789 6.30605 2.42679 8.33889 2.10152 10.5435C1.77626 12.748 2.19648 14.9981 3.29551 16.9367C4.39454 18.8753 6.10944 20.3913 8.16815 21.2444C10.2269 22.0974 12.5115 22.2386 14.6595 21.6455C16.8076 21.0523 18.6961 19.7589 20.0254 17.9704C21.3547 16.1818 22.0487 14.0006 21.9973 11.7728C21.9459 9.54493 21.1521 7.39804 19.7417 5.6727ZM12 20C10.4178 20 8.87104 19.5308 7.55544 18.6518C6.23985 17.7727 5.21447 16.5233 4.60897 15.0615C4.00347 13.5997 3.84504 11.9911 4.15372 10.4393C4.4624 8.88743 5.22433 7.46197 6.34315 6.34315C7.46197 5.22433 8.88743 4.4624 10.4393 4.15372C11.9911 3.84504 13.5997 4.00346 15.0615 4.60896C16.5233 5.21447 17.7727 6.23984 18.6518 7.55544C19.5308 8.87103 20 10.4177 20 12C19.9976 14.121 19.154 16.1544 17.6542 17.6542C16.1544 19.154 14.121 19.9976 12 20ZM7.05081 8.4644L12 13.4141L13.4141 12L8.46481 7.05L7.05081 8.4644Z" fill="black"/>
</svg>
