<svg width="24" height="24" viewBox="0 0 24 24" fill="none" xmlns="http://www.w3.org/2000/svg">
<path d="M21 21.5V18H20.5V21.5H12.25V18H11.75V21.5H3.5V18H3V21.5H1V22H23V21.5H21ZM12 15C13.2856 15 14.5423 14.6188 15.6112 13.9046C16.6801 13.1903 17.5132 12.1752 18.0052 10.9874C18.4972 9.79973 18.6259 8.49279 18.3751 7.23192C18.1243 5.97104 17.5052 4.81285 16.5962 3.90381C15.6872 2.99477 14.529 2.3757 13.2681 2.1249C12.0072 1.87409 10.7003 2.00282 9.51256 2.49479C8.32484 2.98676 7.30968 3.81988 6.59545 4.8888C5.88122 5.95772 5.5 7.21442 5.5 8.5C5.5 10.2239 6.18482 11.8772 7.40381 13.0962C8.62279 14.3152 10.2761 15 12 15ZM12 2.5C13.1867 2.5 14.3467 2.8519 15.3334 3.51119C16.3201 4.17047 17.0892 5.10755 17.5433 6.2039C17.9974 7.30026 18.1162 8.50666 17.8847 9.67054C17.6532 10.8344 17.0818 11.9035 16.2426 12.7426C15.4035 13.5818 14.3344 14.1532 13.1705 14.3847C12.0067 14.6162 10.8003 14.4974 9.7039 14.0433C8.60754 13.5892 7.67047 12.8201 7.01118 11.8334C6.35189 10.8467 6 9.68669 6 8.5C6.0018 6.90926 6.63452 5.38418 7.75935 4.25935C8.88418 3.13452 10.4093 2.5018 12 2.5ZM14.93 8.3965H12.1035V5H11.6035V8.8965H14.93V8.3965Z" fill="black"/>
</svg>
