<svg width="24" height="24" viewBox="0 0 24 24" fill="none" xmlns="http://www.w3.org/2000/svg">
<path d="M12 4.5938C12.2785 4.5938 12.5455 4.48318 12.7425 4.28626C12.9394 4.08935 13.05 3.82228 13.05 3.5438C12.8433 2.54499 12.4894 1.5824 12 0.6875C11.5106 1.58237 11.1567 2.54492 10.95 3.5437C10.95 3.6816 10.9771 3.81814 11.0299 3.94555C11.0827 4.07295 11.16 4.18871 11.2575 4.28623C11.355 4.38374 11.4708 4.46109 11.5982 4.51386C11.7256 4.56664 11.8621 4.5938 12 4.5938ZM18 9H12.75V6H11.25V9H6C4.93913 9 3.92172 9.42143 3.17157 10.1716C2.42143 10.9217 2 11.9391 2 13V22H22V13C22 11.9391 21.5786 10.9217 20.8284 10.1716C20.0783 9.42143 19.0609 9 18 9ZM20.5 20.5H3.5V16.25H3.8135C4.7231 16.2322 5.60118 15.9135 6.3105 15.3438C6.74929 14.951 7.31754 14.734 7.90642 14.7341C8.49531 14.7343 9.06343 14.9517 9.502 15.3447C10.2043 15.9273 11.0882 16.246 12.0007 16.2459C12.9131 16.2457 13.7969 15.9266 14.499 15.3438C14.9376 14.9512 15.5056 14.7342 16.0942 14.7344C16.6828 14.7345 17.2507 14.9519 17.689 15.3447C18.3989 15.914 19.2772 16.2323 20.187 16.25H20.5V20.5ZM20.5 14.75H20.1875C19.6033 14.7319 19.0418 14.5195 18.5918 14.1465C17.8902 13.563 17.0065 13.2435 16.0939 13.2433C15.1814 13.2431 14.2976 13.5623 13.5957 14.1455C13.1574 14.5385 12.5895 14.7559 12.0009 14.7561C11.4122 14.7563 10.8442 14.5392 10.4057 14.1465C9.70369 13.5634 8.8199 13.2442 7.90733 13.244C6.99476 13.2438 6.11085 13.5627 5.4086 14.1455C4.95922 14.519 4.39797 14.7318 3.8139 14.75H3.5V13C3.50074 12.3372 3.76437 11.7017 4.23305 11.2331C4.70173 10.7644 5.33719 10.5007 6 10.5H18C18.6628 10.5007 19.2983 10.7644 19.7669 11.2331C20.2356 11.7017 20.4993 12.3372 20.5 13V14.75Z" fill="black"/>
</svg>
