<svg width="24" height="24" viewBox="0 0 24 24" fill="none" xmlns="http://www.w3.org/2000/svg">
<path d="M19 5.3225V2H5V5.3225C4.99986 6.44971 5.44235 7.5319 6.2322 8.3361L9.9359 12L6.2322 15.6638C5.44235 16.468 4.99986 17.5502 5 18.6774V22H19V18.6774C19.0001 17.5502 18.5577 16.468 17.7678 15.6638L14.0641 12L17.7678 8.3361C18.5577 7.5319 19.0001 6.44971 19 5.3225ZM6 3H18V5.3225C17.9991 5.55026 17.9746 5.77731 17.9268 6H6.0732C6.02543 5.77731 6.0009 5.55026 6 5.3225V3ZM17.0263 16.3319C17.6488 16.9539 17.999 17.7974 18 18.6774V21H6V18.6774C6.00103 17.7974 6.35123 16.9539 6.9737 16.3319L10.6774 12.668L11.2894 12H12.7106L13.3226 12.668L17.0263 16.3319Z" fill="black"/>
</svg>
