<svg width="24" height="24" viewBox="0 0 24 24" fill="none" xmlns="http://www.w3.org/2000/svg">
<path d="M19 5.0057V2H5V5.0057C5 5.55592 5.11351 6.10023 5.33344 6.60459C5.55338 7.10894 5.875 7.5625 6.2782 7.9369L10.6539 12L6.2782 16.0631C5.875 16.4375 5.55338 16.8911 5.33344 17.3954C5.11351 17.8998 5 18.4441 5 18.9943V22H19V18.9943C19 18.4441 18.8865 17.8998 18.6666 17.3954C18.4466 16.8911 18.125 16.4375 17.7218 16.0631L13.3461 12L17.7218 7.9368C18.125 7.56241 18.4466 7.10887 18.6665 6.60453C18.8865 6.10019 19 5.55591 19 5.0057ZM18.5 2.5V5H5.5V2.5H18.5ZM17.3816 16.43C17.7338 16.758 18.0148 17.1548 18.2072 17.596C18.3996 18.0371 18.4993 18.513 18.5 18.9943V21.5H5.5V18.9943C5.50074 18.513 5.6004 18.0371 5.79279 17.596C5.98518 17.1548 6.2662 16.758 6.6184 16.43L10.9941 12.3669L11.1194 12.2505H12.8806L13.0059 12.3669L17.3816 16.43ZM13.0059 11.6341L12.8806 11.7505H11.1194L10.9941 11.6341L6.6184 7.57C6.03682 7.02209 5.66035 6.29159 5.5516 5.5H18.4484C18.3397 6.29159 17.9632 7.02209 17.3816 7.57L13.0059 11.6341Z" fill="black"/>
</svg>
