<svg width="24" height="24" viewBox="0 0 24 24" fill="none" xmlns="http://www.w3.org/2000/svg">
<path d="M18 5V2.25C18 2.1837 17.9737 2.12011 17.9268 2.07322C17.8799 2.02634 17.8163 2 17.75 2C17.6837 2 17.6201 2.02634 17.5732 2.07322C17.5263 2.12011 17.5 2.1837 17.5 2.25V5H6.5V2.25C6.5 2.1837 6.47366 2.12011 6.42678 2.07322C6.37989 2.02634 6.3163 2 6.25 2C6.1837 2 6.12011 2.02634 6.07322 2.07322C6.02634 2.12011 6 2.1837 6 2.25V5H2V21H22V5H18ZM14.6143 15.2607L14.2607 15.6143L12 13.3535L9.7393 15.6143L9.3857 15.2607L11.6465 13L9.3857 10.7393L9.7393 10.3857L12 12.6465L14.2607 10.3857L14.6143 10.7393L12.3535 13L14.6143 15.2607Z" fill="black"/>
</svg>
