<svg width="24" height="24" viewBox="0 0 24 24" fill="none" xmlns="http://www.w3.org/2000/svg">
<path d="M11.3208 13.4854L9.28561 11.3613L8.02201 12.5713L11.3208 16.0141L15.9708 11.1604L14.7075 9.95L11.3208 13.4854ZM12 4C10.22 4 8.47992 4.52784 6.99988 5.51678C5.51984 6.50571 4.36629 7.91132 3.6851 9.55585C3.00391 11.2004 2.82568 13.01 3.17295 14.7558C3.52021 16.5016 4.37738 18.1053 5.63605 19.364C6.89472 20.6226 8.49837 21.4798 10.2442 21.8271C11.99 22.1743 13.7996 21.9961 15.4442 21.3149C17.0887 20.6337 18.4943 19.4802 19.4832 18.0001C20.4722 16.5201 21 14.78 21 13C21 10.6131 20.0518 8.32387 18.364 6.63604C16.6761 4.94821 14.387 4 12 4ZM12 20C10.6155 20 9.26217 19.5895 8.11102 18.8203C6.95988 18.0511 6.06267 16.9579 5.53286 15.6788C5.00304 14.3997 4.86442 12.9922 5.13452 11.6344C5.40461 10.2765 6.0713 9.02922 7.05027 8.05025C8.02923 7.07129 9.27651 6.4046 10.6344 6.1345C11.9922 5.86441 13.3997 6.00303 14.6788 6.53285C15.9579 7.06266 17.0511 7.95987 17.8203 9.11101C18.5895 10.2622 19 11.6155 19 13C18.9979 14.8559 18.2598 16.6351 16.9475 17.9474C15.6351 19.2597 13.8559 19.9979 12 20ZM16.444 0.795502L15.7598 2.6755C18.1847 3.56315 20.222 5.2725 21.5173 7.5064L23.2516 6.5052C21.7219 3.8628 19.3124 1.84187 16.444 0.795502ZM8.24001 2.6754L7.55601 0.795502C4.68761 1.84195 2.27808 3.86298 0.748413 6.5055L2.48271 7.5063C3.77801 5.27244 5.81515 3.56309 8.24001 2.6754Z" fill="black"/>
</svg>
