<svg width="24" height="24" viewBox="0 0 24 24" fill="none" xmlns="http://www.w3.org/2000/svg">
<path d="M12 4C10.22 4 8.47992 4.52784 6.99988 5.51678C5.51984 6.50571 4.36629 7.91132 3.6851 9.55585C3.00391 11.2004 2.82568 13.01 3.17295 14.7558C3.52021 16.5016 4.37738 18.1053 5.63605 19.364C6.89472 20.6226 8.49837 21.4798 10.2442 21.8271C11.99 22.1743 13.7996 21.9961 15.4442 21.3149C17.0887 20.6337 18.4943 19.4802 19.4832 18.0001C20.4722 16.5201 21 14.78 21 13C21 10.6131 20.0518 8.32387 18.364 6.63604C16.6761 4.94821 14.387 4 12 4ZM11.3208 16.0146L8.02201 12.5718L9.28561 11.3618L11.3208 13.4859L14.7075 9.95L15.9712 11.16L11.3208 16.0146ZM16.444 0.795502L15.7598 2.6755C18.1847 3.56315 20.222 5.2725 21.5173 7.5064L23.2516 6.5052C21.7219 3.8628 19.3124 1.84187 16.444 0.795502ZM8.24001 2.6754L7.55601 0.795502C4.68761 1.84195 2.27808 3.86298 0.748413 6.5055L2.48271 7.5063C3.77801 5.27244 5.81515 3.56309 8.24001 2.6754Z" fill="black"/>
</svg>
