<svg width="24" height="24" viewBox="0 0 24 24" fill="none" xmlns="http://www.w3.org/2000/svg">
<path d="M21 20V17H19V20H13V17H11V20H5V17H3V20H1V22H23V20H21ZM12 15C13.2856 15 14.5423 14.6188 15.6112 13.9046C16.6801 13.1903 17.5132 12.1752 18.0052 10.9874C18.4972 9.79973 18.6259 8.49279 18.3751 7.23192C18.1243 5.97104 17.5052 4.81285 16.5962 3.90381C15.6872 2.99477 14.529 2.3757 13.2681 2.1249C12.0072 1.87409 10.7003 2.00282 9.51256 2.49479C8.32484 2.98676 7.30968 3.81988 6.59545 4.8888C5.88122 5.95772 5.5 7.21442 5.5 8.5C5.5 10.2239 6.18482 11.8772 7.40381 13.0962C8.62279 14.3152 10.2761 15 12 15ZM12 3.8C12.9296 3.8 13.8383 4.07565 14.6112 4.5921C15.3841 5.10854 15.9865 5.84258 16.3422 6.70139C16.698 7.5602 16.791 8.50522 16.6097 9.41693C16.4283 10.3286 15.9807 11.1661 15.3234 11.8234C14.6661 12.4807 13.8286 12.9283 12.9169 13.1097C12.0052 13.291 11.0602 13.198 10.2014 12.8422C9.34258 12.4865 8.60854 11.8841 8.09209 11.1112C7.57565 10.3383 7.3 9.42957 7.3 8.5C7.3014 7.25392 7.79703 6.05927 8.67815 5.17815C9.55926 4.29703 10.7539 3.80141 12 3.8ZM14.5957 7.8467H12.6533V5.3967H11.0533V9.4467H14.5953L14.5957 7.8467Z" fill="black"/>
</svg>
