<svg width="24" height="24" viewBox="0 0 24 24" fill="none" xmlns="http://www.w3.org/2000/svg">
<path d="M12 4C10.22 4 8.47991 4.52784 6.99987 5.51677C5.51983 6.5057 4.36627 7.91131 3.68508 9.55585C3.0039 11.2004 2.82567 13.01 3.17293 14.7558C3.5202 16.5016 4.37737 18.1053 5.63604 19.364C6.89471 20.6226 8.49836 21.4798 10.2442 21.8271C11.99 22.1743 13.7996 21.9961 15.4442 21.3149C17.0887 20.6337 18.4943 19.4802 19.4832 18.0001C20.4722 16.5201 21 14.78 21 13C21 10.613 20.0518 8.32386 18.364 6.63604C16.6761 4.94821 14.3869 4 12 4ZM11.2607 15.6221L8.0307 12.251L8.7523 11.5596L11.2606 14.1768L15.2226 10.042L15.9442 10.7334L11.2607 15.6221ZM16.4426 0.795898L16.1006 1.7359C18.7476 2.70239 20.9712 4.56752 22.3836 7.0059L23.2501 6.5059C21.7205 3.86334 19.311 1.84228 16.4426 0.795898ZM7.8994 1.7359L7.5574 0.795898C4.68909 1.8422 2.27962 3.8631 0.75 6.5055L1.6165 7.0055C3.02885 4.5671 5.25245 2.70194 7.8994 1.7354V1.7359Z" fill="black"/>
</svg>
