<svg width="24" height="24" viewBox="0 0 24 24" fill="none" xmlns="http://www.w3.org/2000/svg">
<path d="M12 2C10.0222 2 8.08879 2.58649 6.4443 3.6853C4.79981 4.78412 3.51809 6.3459 2.76121 8.17317C2.00433 10.0004 1.8063 12.0111 2.19215 13.9509C2.578 15.8907 3.53041 17.6725 4.92894 19.0711C6.32746 20.4696 8.10929 21.422 10.0491 21.8079C11.9889 22.1937 13.9996 21.9957 15.8268 21.2388C17.6541 20.4819 19.2159 19.2002 20.3147 17.5557C21.4135 15.9112 22 13.9778 22 12C22 10.6868 21.7413 9.38642 21.2388 8.17317C20.7363 6.95991 19.9997 5.85752 19.0711 4.92893C18.1425 4.00035 17.0401 3.26375 15.8268 2.7612C14.6136 2.25866 13.3132 2 12 2ZM16.03 16.03C15.2697 16.7985 14.3056 17.3336 13.2513 17.5722C12.1969 17.8108 11.0963 17.7431 10.0792 17.3769C9.06215 17.0107 8.17096 16.3613 7.51072 15.5054C6.85048 14.6494 6.44872 13.6225 6.3528 12.5458H7.8528C7.98128 13.4793 8.42161 14.3418 9.10226 14.9934C9.78291 15.645 10.6639 16.0473 11.602 16.135C12.5402 16.2226 13.4805 15.9905 14.27 15.4763C15.0596 14.962 15.6521 14.1959 15.9513 13.3024C16.2504 12.4089 16.2387 11.4405 15.918 10.5545C15.5972 9.66855 14.9864 8.91704 14.1846 8.4221C13.3828 7.92716 12.4372 7.71787 11.5014 7.82823C10.5656 7.93859 9.69466 8.36211 9.03 9.03L8.65 9.41L9.8955 10.6554H6.36V7.1206L7.59 8.3506L7.97 7.9706C8.49564 7.42556 9.12461 6.99072 9.82017 6.69146C10.5157 6.39221 11.264 6.23454 12.0211 6.22767C12.7783 6.2208 13.5293 6.36486 14.2301 6.65144C14.931 6.93802 15.5678 7.36137 16.1032 7.89678C16.6387 8.43218 17.0621 9.06891 17.3487 9.76977C17.6353 10.4706 17.7795 11.2216 17.7726 11.9787C17.7658 12.7359 17.6082 13.4842 17.309 14.1797C17.0098 14.8753 16.575 15.5043 16.03 16.03Z" fill="black"/>
</svg>
