<svg width="24" height="24" viewBox="0 0 24 24" fill="none" xmlns="http://www.w3.org/2000/svg">
<path d="M21 20V17H19V20H13V17H11V20H5V17H3V20H1V22H23V20H21ZM12 15C13.2856 15 14.5423 14.6188 15.6112 13.9046C16.6801 13.1903 17.5132 12.1752 18.0052 10.9874C18.4972 9.79973 18.6259 8.49279 18.3751 7.23192C18.1243 5.97104 17.5052 4.81285 16.5962 3.90381C15.6872 2.99477 14.529 2.3757 13.2681 2.1249C12.0072 1.87409 10.7003 2.00282 9.51256 2.49479C8.32484 2.98676 7.30968 3.81988 6.59545 4.8888C5.88122 5.95772 5.5 7.21442 5.5 8.5C5.5 10.2239 6.18482 11.8772 7.40381 13.0962C8.62279 14.3152 10.2761 15 12 15ZM11.0537 5H12.6537V7.8467H14.93V9.4467H11.054L11.0537 5Z" fill="black"/>
</svg>
