<svg width="24" height="24" viewBox="0 0 24 24" fill="none" xmlns="http://www.w3.org/2000/svg">
<path d="M18 3V5.3225C17.999 6.20249 17.6488 7.04611 17.0263 7.6681L13.3227 11.3319L12.7106 12L13.3227 12.6681L17.0263 16.3319C17.6488 16.9539 17.999 17.7975 18 18.6775V21H6V18.6775C6.001 17.7975 6.3512 16.9539 6.9737 16.3319L10.6773 12.6681L11.2894 12L10.6773 11.3319L6.9737 7.6681C6.3512 7.04611 6.001 6.20249 6 5.3225V3H18ZM19 2H5V5.3225C4.99986 6.44976 5.44239 7.53199 6.2323 8.3362L9.9359 12L6.2323 15.6638C5.44239 16.468 4.99986 17.5502 5 18.6775V22H19V18.6775C19.0001 17.5503 18.5576 16.4681 17.7677 15.6639L14.0641 12L17.7677 8.3361C18.5576 7.53192 19.0001 6.44972 19 5.3225V2Z" fill="black"/>
</svg>
