<svg width="24" height="24" viewBox="0 0 24 24" fill="none" xmlns="http://www.w3.org/2000/svg">
<path d="M11.3438 8.06249V13.3125H15.5938V12.8125H11.8438V8.06249H11.3438ZM17.8338 7.16599C16.2855 5.62104 14.1876 4.75339 12.0003 4.75339C9.81307 4.75339 7.71513 5.62104 6.16683 7.16599L4.24213 9.09089V5.34789H3.74213V9.94459H8.33913V9.44459H4.59573L6.52003 7.51999C7.78799 6.25195 9.4564 5.46281 11.241 5.28701C13.0256 5.11121 14.8159 5.55964 16.3069 6.55589C17.7979 7.55215 18.8974 9.03457 19.4179 10.7506C19.9384 12.4666 19.8478 14.31 19.1616 15.9667C18.4753 17.6234 17.2358 18.9909 15.6543 19.8362C14.0728 20.6814 12.2472 20.9522 10.4884 20.6023C8.72967 20.2524 7.14666 19.3035 6.00912 17.9172C4.87159 16.531 4.24991 14.7932 4.25003 13H3.75003C3.75007 14.3567 4.0847 15.6925 4.72429 16.889C5.36387 18.0855 6.28867 19.1058 7.41676 19.8595C8.54485 20.6132 9.84141 21.0771 11.1916 21.21C12.5418 21.343 13.9039 21.1409 15.1574 20.6217C16.4108 20.1024 17.5168 19.2821 18.3775 18.2333C19.2382 17.1846 19.8269 15.9397 20.0915 14.609C20.3562 13.2784 20.2886 11.903 19.8947 10.6047C19.5009 9.30643 18.7929 8.12531 17.8335 7.16599H17.8338Z" fill="black"/>
</svg>
