<svg width="24" height="24" viewBox="0 0 24 24" fill="none" xmlns="http://www.w3.org/2000/svg">
<path d="M19 5.0057V2H5V5.0057C5 5.55592 5.11351 6.10023 5.33344 6.60459C5.55338 7.10894 5.875 7.5625 6.2782 7.9369L10.6539 12L6.2782 16.0631C5.875 16.4375 5.55338 16.8911 5.33344 17.3954C5.11351 17.8998 5 18.4441 5 18.9943V22H19V18.9943C19 18.4441 18.8865 17.8998 18.6666 17.3954C18.4466 16.8911 18.125 16.4375 17.7218 16.0631L13.3461 12L17.7218 7.9368C18.125 7.56241 18.4466 7.10887 18.6665 6.60453C18.8865 6.10019 19 5.55591 19 5.0057ZM13.0059 11.6336L12.6113 12L13.0059 12.3664L15.842 15H8.158L10.9941 12.3665L11.3887 12L10.9941 11.6336L6.6184 7.57C6.26618 7.24205 5.98515 6.84518 5.79276 6.40406C5.60036 5.96293 5.50071 5.48696 5.5 5.0057V2.5H18.5V5.0057C18.4993 5.48696 18.3996 5.96293 18.2072 6.40406C18.0148 6.84518 17.7338 7.24205 17.3816 7.57L13.0059 11.6336Z" fill="black"/>
</svg>
