<svg width="24" height="24" viewBox="0 0 24 24" fill="none" xmlns="http://www.w3.org/2000/svg">
<path d="M19.7415 5.6725L21.1924 4.2217L19.7783 2.8076L18.3275 4.2585C16.8085 3.01278 14.9548 2.24451 13 2.0505V0H11V2.0505C8.78262 2.27264 6.70291 3.22887 5.09083 4.76748C3.47874 6.30609 2.42661 8.33896 2.10134 10.5436C1.77608 12.7482 2.19631 14.9983 3.29537 16.9369C4.39443 18.8755 6.10938 20.3916 8.16813 21.2446C10.2269 22.0977 12.5115 22.2388 14.6596 21.6456C16.8077 21.0525 18.6962 19.759 20.0255 17.9704C21.3548 16.1818 22.0488 14.0005 21.9974 11.7726C21.9459 9.54473 21.152 7.39782 19.7415 5.6725ZM12 13.4141L7.0508 8.4648L8.4648 7.0508L13.4141 12L12 13.4141Z" fill="black"/>
</svg>
