<svg width="24" height="24" viewBox="0 0 24 24" fill="none" xmlns="http://www.w3.org/2000/svg">
<path d="M18 5V2.25C18 2.1837 17.9737 2.12011 17.9268 2.07322C17.8799 2.02634 17.8163 2 17.75 2C17.6837 2 17.6201 2.02634 17.5732 2.07322C17.5263 2.12011 17.5 2.1837 17.5 2.25V5H6.5V2.25C6.5 2.1837 6.47366 2.12011 6.42678 2.07322C6.37989 2.02634 6.3163 2 6.25 2C6.1837 2 6.12011 2.02634 6.07322 2.07322C6.02634 2.12011 6 2.1837 6 2.25V5H2V21H22V5H18ZM21.5 20.5H2.5V5.5H21.5V20.5ZM12 12C12.3368 12 12.6661 11.9001 12.9462 11.713C13.2263 11.5258 13.4446 11.2598 13.5735 10.9486C13.7024 10.6374 13.7361 10.295 13.6704 9.96464C13.6047 9.63427 13.4425 9.33081 13.2043 9.09263C12.9661 8.85444 12.6626 8.69224 12.3323 8.62652C12.0019 8.56081 11.6595 8.59454 11.3483 8.72344C11.0371 8.85234 10.7711 9.07063 10.5839 9.35071C10.3968 9.63078 10.2969 9.96006 10.2969 10.2969C10.2969 10.7486 10.4763 11.1818 10.7957 11.5012C11.1151 11.8206 11.5483 12 12 12ZM12 9.0938C12.238 9.0938 12.4706 9.16436 12.6684 9.29656C12.8663 9.42876 13.0205 9.61666 13.1115 9.83649C13.2026 10.0563 13.2264 10.2982 13.18 10.5316C13.1336 10.765 13.019 10.9794 12.8507 11.1476C12.6825 11.3159 12.4681 11.4305 12.2347 11.4769C12.0013 11.5233 11.7594 11.4995 11.5396 11.4084C11.3198 11.3174 11.1319 11.1632 10.9997 10.9653C10.8675 10.7675 10.7969 10.5349 10.7969 10.2969C10.7972 9.97792 10.9241 9.67211 11.1497 9.44656C11.3752 9.22101 11.681 9.09414 12 9.0938ZM15.5 14.8255C14.5717 13.8973 13.3127 13.3759 12 13.3759C10.6873 13.3759 9.42829 13.8973 8.5 14.8255V17H15.5V14.8255ZM15 16.5H9V15.0389C9.8199 14.2905 10.8899 13.8756 12 13.8756C13.1101 13.8756 14.1801 14.2905 15 15.0389V16.5Z" fill="black"/>
</svg>
