<svg width="24" height="24" viewBox="0 0 24 24" fill="none" xmlns="http://www.w3.org/2000/svg">
<path d="M12 2C10.0222 2 8.08879 2.58649 6.4443 3.6853C4.79981 4.78412 3.51809 6.3459 2.76121 8.17317C2.00433 10.0004 1.8063 12.0111 2.19215 13.9509C2.578 15.8907 3.53041 17.6725 4.92894 19.0711C6.32746 20.4696 8.10929 21.422 10.0491 21.8079C11.9889 22.1937 13.9996 21.9957 15.8268 21.2388C17.6541 20.4819 19.2159 19.2002 20.3147 17.5557C21.4135 15.9112 22 13.9778 22 12C22 10.6868 21.7413 9.38642 21.2388 8.17317C20.7363 6.95991 19.9997 5.85752 19.0711 4.92893C18.1425 4.00035 17.0401 3.26375 15.8268 2.7612C14.6136 2.25866 13.3132 2 12 2ZM15.8535 15.8535C15.1159 16.5979 14.1785 17.1127 13.1545 17.3357C12.1306 17.5587 11.064 17.4804 10.0836 17.1102C9.10327 16.74 8.2511 16.0938 7.63013 15.2497C7.00915 14.4055 6.64594 13.3996 6.5844 12.3535H7.5844C7.67173 13.3564 8.09877 14.2994 8.79489 15.0265C9.491 15.7537 10.4145 16.2215 11.4126 16.3525C12.4107 16.4835 13.4236 16.2698 14.2838 15.7469C15.1439 15.224 15.7999 14.4231 16.143 13.4768C16.4862 12.5304 16.496 11.4953 16.1709 10.5425C15.8458 9.58983 15.2052 8.77665 14.3551 8.23748C13.505 7.69832 12.4963 7.4655 11.4959 7.57751C10.4955 7.68953 9.5633 8.13968 8.8535 8.8535L8.2435 9.4635H10.34V10.4635H6.5523V6.676H7.5523V8.7407L8.1466 8.1465C8.65062 7.6313 9.25182 7.22119 9.9154 6.93991C10.579 6.65862 11.2918 6.51175 12.0125 6.5078C12.7332 6.50385 13.4476 6.64289 14.1142 6.91687C14.7808 7.19086 15.3865 7.59435 15.8961 8.10399C16.4058 8.61362 16.8092 9.21929 17.0832 9.88591C17.3572 10.5525 17.4963 11.2669 17.4923 11.9876C17.4884 12.7083 17.3415 13.4211 17.0602 14.0847C16.7789 14.7483 16.3688 15.3495 15.8536 15.8535H15.8535Z" fill="black"/>
</svg>
