<svg width="24" height="24" viewBox="0 0 24 24" fill="none" xmlns="http://www.w3.org/2000/svg">
<path d="M18 5V2.25C18 2.1837 17.9737 2.12011 17.9268 2.07322C17.8799 2.02634 17.8163 2 17.75 2C17.6837 2 17.6201 2.02634 17.5732 2.07322C17.5263 2.12011 17.5 2.1837 17.5 2.25V5H6.5V2.25C6.5 2.1837 6.47366 2.12011 6.42678 2.07322C6.37989 2.02634 6.3163 2 6.25 2C6.1837 2 6.12011 2.02634 6.07322 2.07322C6.02634 2.12011 6 2.1837 6 2.25V5H2V21H22V5H18ZM21.5 20.5H2.5V5.5H21.5V20.5ZM16 11H11V11.5H16V11ZM8.35 11.6C8.41922 11.6 8.48689 11.5795 8.54445 11.541C8.60201 11.5026 8.64687 11.4479 8.67336 11.3839C8.69985 11.32 8.70678 11.2496 8.69327 11.1817C8.67977 11.1138 8.64644 11.0515 8.59749 11.0025C8.54854 10.9536 8.48618 10.9202 8.41828 10.9067C8.35039 10.8932 8.28001 10.9002 8.21606 10.9266C8.15211 10.9531 8.09744 10.998 8.05899 11.0556C8.02053 11.1131 8 11.1808 8 11.25C8 11.3428 8.03687 11.4318 8.10251 11.4975C8.16815 11.5631 8.25717 11.6 8.35 11.6ZM16 14.5H11V15H16V14.5ZM8.35 15.1C8.41922 15.1 8.48689 15.0795 8.54445 15.041C8.60201 15.0026 8.64687 14.9479 8.67336 14.8839C8.69985 14.82 8.70678 14.7496 8.69327 14.6817C8.67977 14.6138 8.64644 14.5515 8.59749 14.5025C8.54854 14.4536 8.48618 14.4202 8.41828 14.4067C8.35039 14.3932 8.28001 14.4002 8.21606 14.4266C8.15211 14.4531 8.09744 14.498 8.05899 14.5556C8.02053 14.6131 8 14.6808 8 14.75C8 14.8428 8.03687 14.9318 8.10251 14.9975C8.16815 15.0631 8.25717 15.1 8.35 15.1Z" fill="black"/>
</svg>
