<svg width="24" height="24" viewBox="0 0 24 24" fill="none" xmlns="http://www.w3.org/2000/svg">
<path d="M12 2C10.0222 2 8.08879 2.58649 6.4443 3.6853C4.79981 4.78412 3.51809 6.3459 2.76121 8.17317C2.00433 10.0004 1.8063 12.0111 2.19215 13.9509C2.578 15.8907 3.53041 17.6725 4.92894 19.0711C6.32746 20.4696 8.10929 21.422 10.0491 21.8079C11.9889 22.1937 13.9996 21.9957 15.8268 21.2388C17.6541 20.4819 19.2159 19.2002 20.3147 17.5557C21.4135 15.9112 22 13.9778 22 12C22 10.6868 21.7413 9.38642 21.2388 8.17317C20.7363 6.95991 19.9997 5.85752 19.0711 4.92893C18.1425 4.00035 17.0401 3.26375 15.8268 2.7612C14.6136 2.25866 13.3132 2 12 2ZM12 21.5C10.1211 21.5 8.28435 20.9428 6.72209 19.899C5.15982 18.8551 3.94218 17.3714 3.22315 15.6355C2.50412 13.8996 2.31598 11.9895 2.68254 10.1466C3.0491 8.30382 3.95389 6.61108 5.28249 5.28249C6.61109 3.95389 8.30383 3.0491 10.1466 2.68254C11.9895 2.31598 13.8996 2.50411 15.6355 3.22314C17.3714 3.94218 18.8551 5.15982 19.899 6.72208C20.9428 8.28435 21.5 10.1211 21.5 12C21.4971 14.5187 20.4953 16.9334 18.7144 18.7144C16.9334 20.4953 14.5187 21.4971 12 21.5ZM12 7.5957C11.4214 7.59408 10.8482 7.70726 10.3136 7.92869C9.77904 8.15013 9.2937 8.47541 8.8857 8.8857L8.1157 9.6557V7.1083H7.6157V10.5483H11.0557V10.0477H8.431L9.2393 9.2395C9.86619 8.59817 10.6927 8.1893 11.5828 8.08014C12.473 7.97098 13.3738 8.16803 14.1371 8.63888C14.9004 9.10973 15.4806 9.82634 15.7825 10.6708C16.0844 11.5153 16.0898 12.4374 15.798 13.2854C15.5061 14.1334 14.9344 14.8569 14.1767 15.3367C13.4191 15.8165 12.5206 16.0242 11.6293 15.9256C10.7379 15.827 9.9066 15.4279 9.27217 14.7941C8.63773 14.1602 8.23792 13.3293 8.1385 12.438H7.6385C7.72591 13.2828 8.05647 14.0842 8.59014 14.7449C9.12381 15.4056 9.83767 15.8974 10.6452 16.1606C11.4527 16.4238 12.3193 16.4471 13.1398 16.2277C13.9603 16.0083 14.6996 15.5556 15.268 14.9246C15.8364 14.2935 16.2096 13.5111 16.3423 12.6722C16.475 11.8333 16.3615 10.9739 16.0156 10.1982C15.6697 9.42244 15.1063 8.76371 14.3935 8.30179C13.6808 7.83987 12.8493 7.5946 12 7.5957Z" fill="black"/>
</svg>
