<svg width="24" height="24" viewBox="0 0 24 24" fill="none" xmlns="http://www.w3.org/2000/svg">
<path d="M18 5V3C18 2.73478 17.8946 2.48043 17.7071 2.29289C17.5196 2.10536 17.2652 2 17 2C16.7348 2 16.4804 2.10536 16.2929 2.29289C16.1054 2.48043 16 2.73478 16 3V5H8V3C8 2.73478 7.89464 2.48043 7.70711 2.29289C7.51957 2.10536 7.26522 2 7 2C6.73478 2 6.48043 2.10536 6.29289 2.29289C6.10536 2.48043 6 2.73478 6 3V5H2V21H22V5H18ZM20 19H4V7H20V19ZM16 10.05H11.5V11.95H16V10.05ZM9 12.05C9.20767 12.05 9.41068 11.9884 9.58335 11.873C9.75602 11.7577 9.8906 11.5937 9.97007 11.4018C10.0495 11.21 10.0703 10.9988 10.0298 10.7952C9.98931 10.5915 9.88931 10.4044 9.74246 10.2575C9.59562 10.1107 9.40852 10.0107 9.20484 9.97018C9.00116 9.92966 8.79005 9.95045 8.59818 10.0299C8.40632 10.1094 8.24233 10.244 8.12696 10.4167C8.01158 10.5893 7.95 10.7923 7.95 11C7.95 11.2785 8.06062 11.5455 8.25754 11.7425C8.45445 11.9394 8.72152 12.05 9 12.05ZM16 14.05H11.5V15.95H16V14.05ZM9 16.05C9.20767 16.05 9.41068 15.9884 9.58335 15.873C9.75602 15.7577 9.8906 15.5937 9.97007 15.4018C10.0495 15.21 10.0703 14.9988 10.0298 14.7952C9.98931 14.5915 9.88931 14.4044 9.74246 14.2575C9.59562 14.1107 9.40852 14.0107 9.20484 13.9702C9.00116 13.9297 8.79005 13.9505 8.59818 14.0299C8.40632 14.1094 8.24233 14.244 8.12696 14.4167C8.01158 14.5893 7.95 14.7923 7.95 15C7.95 15.2785 8.06062 15.5455 8.25754 15.7425C8.45445 15.9394 8.72152 16.05 9 16.05Z" fill="black"/>
</svg>
