<svg width="24" height="24" viewBox="0 0 24 24" fill="none" xmlns="http://www.w3.org/2000/svg">
<path d="M19.2394 5.1141L20.6621 3.6914L20.3086 3.3379L18.8859 4.7606C17.093 3.05059 14.7269 2.07073 12.25 2.0126V0H11.75V2.0126C9.45686 2.06872 7.25264 2.91108 5.50653 4.39859C3.76042 5.8861 2.57846 7.92842 2.15861 10.1835C1.73875 12.4386 2.10651 14.7694 3.20029 16.7856C4.29406 18.8019 6.04742 20.3811 8.1667 21.2587C10.286 22.1363 12.6425 22.2591 14.8415 21.6065C17.0405 20.9538 18.9485 19.5654 20.2459 17.6738C21.5432 15.7821 22.1512 13.5021 21.968 11.2156C21.7848 8.92911 20.8215 6.77501 19.2394 5.1141ZM12 12.3535L7.58108 7.9346L7.93458 7.5811L12.3535 12L12 12.3535Z" fill="black"/>
</svg>
