<svg width="24" height="24" viewBox="0 0 24 24" fill="none" xmlns="http://www.w3.org/2000/svg">
<path d="M8.1 10H7V11.1H8.1V10ZM12.55 10H11.45V11.1H12.55V10ZM17 10H15.9V11.1H17V10ZM8.1 14.9H7V16H8.1V14.9ZM12.55 14.9H11.45V16H12.55V14.9ZM17 14.9H15.9V16H17V14.9ZM18 5V2.5C18 2.36739 17.9473 2.24021 17.8536 2.14645C17.7598 2.05268 17.6326 2 17.5 2C17.3674 2 17.2402 2.05268 17.1464 2.14645C17.0527 2.24021 17 2.36739 17 2.5V5H7V2.5C7 2.36739 6.94732 2.24021 6.85355 2.14645C6.75979 2.05268 6.63261 2 6.5 2C6.36739 2 6.24021 2.05268 6.14645 2.14645C6.05268 2.24021 6 2.36739 6 2.5V5H2V21H22V5H18ZM21 20H3V6H21V20Z" fill="black"/>
</svg>
