<svg width="24" height="24" viewBox="0 0 24 24" fill="none" xmlns="http://www.w3.org/2000/svg">
<path d="M18 5V2.5C18 2.36739 17.9473 2.24021 17.8536 2.14645C17.7598 2.05268 17.6326 2 17.5 2C17.3674 2 17.2402 2.05268 17.1464 2.14645C17.0527 2.24021 17 2.36739 17 2.5V5H7V2.5C7 2.36739 6.94732 2.24021 6.85355 2.14645C6.75979 2.05268 6.63261 2 6.5 2C6.36739 2 6.24021 2.05268 6.14645 2.14645C6.05268 2.24021 6 2.36739 6 2.5V5H2V21H22V5H18ZM11.2607 15.6221L8.0307 12.251L8.7523 11.5596L11.2606 14.1768L15.2226 10.042L15.9442 10.7334L11.2607 15.6221Z" fill="black"/>
</svg>
