<svg width="24" height="24" viewBox="0 0 24 24" fill="none" xmlns="http://www.w3.org/2000/svg">
<path d="M12 2C10.0222 2 8.08879 2.58649 6.4443 3.6853C4.79981 4.78412 3.51809 6.3459 2.76121 8.17317C2.00433 10.0004 1.8063 12.0111 2.19215 13.9509C2.578 15.8907 3.53041 17.6725 4.92894 19.0711C6.32746 20.4696 8.10929 21.422 10.0491 21.8079C11.9889 22.1937 13.9996 21.9957 15.8268 21.2388C17.6541 20.4819 19.2159 19.2002 20.3147 17.5557C21.4135 15.9112 22 13.9778 22 12C22 10.6868 21.7413 9.38642 21.2388 8.17317C20.7363 6.95991 19.9997 5.85752 19.0711 4.92893C18.1425 4.00035 17.0401 3.26375 15.8268 2.7612C14.6136 2.25866 13.3132 2 12 2ZM16.207 16.207C15.4268 16.989 14.4442 17.538 13.3693 17.7925C12.2944 18.047 11.1699 17.997 10.1219 17.6479C9.07391 17.2988 8.14396 16.6645 7.43641 15.8163C6.72886 14.9681 6.27172 13.9394 6.1163 12.8458H8.1463C8.30495 13.5833 8.67299 14.2594 9.2063 14.793C9.95874 15.5113 10.959 15.9122 11.9993 15.9122C13.0396 15.9122 14.0399 15.5113 14.7923 14.793C15.1592 14.4263 15.4502 13.9908 15.6487 13.5116C15.8473 13.0324 15.9495 12.5187 15.9495 12C15.9495 11.4813 15.8473 10.9676 15.6487 10.4884C15.4502 10.0092 15.1592 9.57374 14.7923 9.207C14.0399 8.48865 13.0396 8.08783 11.9993 8.08783C10.959 8.08783 9.95874 8.48865 9.2063 9.207L8.9093 9.5041L10.3609 10.9557H6.06V6.6542L7.4959 8.09L7.793 7.793C8.34312 7.22992 8.99949 6.7816 9.72411 6.47402C10.4487 6.16643 11.2272 6.00569 12.0144 6.0011C12.8015 5.99652 13.5818 6.14818 14.31 6.44731C15.0381 6.74644 15.6997 7.18708 16.2563 7.74371C16.8129 8.30035 17.2536 8.9619 17.5527 9.69005C17.8518 10.4182 18.0035 11.1985 17.9989 11.9856C17.9943 12.7728 17.8336 13.5513 17.526 14.2759C17.2184 15.0005 16.7701 15.6569 16.207 16.207Z" fill="black"/>
</svg>
