<svg width="24" height="24" viewBox="0 0 24 24" fill="none" xmlns="http://www.w3.org/2000/svg">
<path d="M12 2C10.0222 2 8.08879 2.58649 6.4443 3.6853C4.79981 4.78412 3.51809 6.3459 2.76121 8.17317C2.00433 10.0004 1.8063 12.0111 2.19215 13.9509C2.578 15.8907 3.53041 17.6725 4.92894 19.0711C6.32746 20.4696 8.10929 21.422 10.0491 21.8079C11.9889 22.1937 13.9996 21.9957 15.8268 21.2388C17.6541 20.4819 19.2159 19.2002 20.3147 17.5557C21.4135 15.9112 22 13.9778 22 12C22 10.6868 21.7413 9.38642 21.2388 8.17317C20.7363 6.95991 19.9997 5.85752 19.0711 4.92893C18.1425 4.00035 17.0401 3.26375 15.8268 2.7612C14.6136 2.25866 13.3132 2 12 2ZM12 21C10.22 21 8.47991 20.4722 6.99987 19.4832C5.51983 18.4943 4.36628 17.0887 3.68509 15.4442C3.0039 13.7996 2.82567 11.99 3.17294 10.2442C3.5202 8.49836 4.37737 6.89471 5.63604 5.63604C6.89472 4.37737 8.49836 3.5202 10.2442 3.17293C11.99 2.82567 13.7996 3.0039 15.4442 3.68508C17.0887 4.36627 18.4943 5.51983 19.4832 6.99987C20.4722 8.47991 21 10.22 21 12C20.9974 14.3861 20.0483 16.6738 18.361 18.361C16.6738 20.0483 14.3861 20.9974 12 21ZM12 7.3457C11.3886 7.34407 10.7829 7.46373 10.218 7.69774C9.65306 7.93175 9.14018 8.27546 8.709 8.709L8.3908 9.0272V6.9926H7.3908V10.78H11.1784V9.78H9.0518L9.416 9.416C10.1121 8.75131 11.0375 8.38041 12 8.38041C12.9625 8.38041 13.8879 8.75131 14.584 9.416C15.2693 10.1013 15.6543 11.0308 15.6543 12C15.6543 12.9692 15.2693 13.8987 14.584 14.584C13.8879 15.2487 12.9625 15.6196 12 15.6196C11.0375 15.6196 10.1121 15.2487 9.416 14.584C8.89937 14.0692 8.54999 13.4105 8.4135 12.694H7.4135C7.54823 13.5724 7.93212 14.3936 8.51962 15.0603C9.10712 15.727 9.87357 16.2112 10.728 16.4554C11.5824 16.6995 12.489 16.6934 13.34 16.4378C14.1911 16.1821 14.951 15.6877 15.5294 15.0132C16.1079 14.3386 16.4807 13.5122 16.6036 12.6321C16.7265 11.7521 16.5943 10.8552 16.2227 10.048C15.8512 9.24076 15.2558 8.55709 14.5073 8.07811C13.7588 7.59912 12.8886 7.34493 12 7.3457Z" fill="black"/>
</svg>
