<svg width="24" height="24" viewBox="0 0 24 24" fill="none" xmlns="http://www.w3.org/2000/svg">
<path d="M18 5V3C18 2.73478 17.8946 2.48043 17.7071 2.29289C17.5196 2.10536 17.2652 2 17 2C16.7348 2 16.4804 2.10536 16.2929 2.29289C16.1054 2.48043 16 2.73478 16 3V5H8V3C8 2.73478 7.89464 2.48043 7.70711 2.29289C7.51957 2.10536 7.26522 2 7 2C6.73478 2 6.48043 2.10536 6.29289 2.29289C6.10536 2.48043 6 2.73478 6 3V5H2V21H22V5H18ZM9 16.05C8.79233 16.05 8.58932 15.9884 8.41665 15.873C8.24398 15.7577 8.1094 15.5937 8.02993 15.4018C7.95045 15.21 7.92966 14.9988 7.97018 14.7952C8.01069 14.5915 8.11069 14.4044 8.25754 14.2575C8.40438 14.1107 8.59148 14.0107 8.79516 13.9702C8.99884 13.9297 9.20995 13.9505 9.40182 14.0299C9.59368 14.1094 9.75767 14.244 9.87304 14.4167C9.98842 14.5893 10.05 14.7923 10.05 15C10.05 15.2785 9.93938 15.5455 9.74246 15.7425C9.54555 15.9394 9.27848 16.05 9 16.05ZM9 12.05C8.79233 12.05 8.58932 11.9884 8.41665 11.873C8.24398 11.7577 8.1094 11.5937 8.02993 11.4018C7.95045 11.21 7.92966 10.9988 7.97018 10.7952C8.01069 10.5915 8.11069 10.4044 8.25754 10.2575C8.40438 10.1107 8.59148 10.0107 8.79516 9.97018C8.99884 9.92966 9.20995 9.95045 9.40182 10.0299C9.59368 10.1094 9.75767 10.244 9.87304 10.4167C9.98842 10.5893 10.05 10.7923 10.05 11C10.05 11.2785 9.93938 11.5455 9.74246 11.7425C9.54555 11.9394 9.27848 12.05 9 12.05ZM16 15.95H11.5V14.05H16V15.95ZM16 11.95H11.5V10.05H16V11.95Z" fill="black"/>
</svg>
