<svg width="24" height="24" viewBox="0 0 24 24" fill="none" xmlns="http://www.w3.org/2000/svg">
<path d="M19 5.3225V2H5V5.3225C4.99986 6.44971 5.44235 7.5319 6.2322 8.3361L9.9359 12L6.2322 15.6638C5.44235 16.468 4.99986 17.5502 5 18.6774V22H19V18.6774C19.0001 17.5502 18.5577 16.468 17.7678 15.6638L14.0641 12L17.7678 8.3361C18.5577 7.5319 19.0001 6.44971 19 5.3225ZM13.3226 11.3319L12.7106 12L13.3226 12.668L15.68 15H8.32L10.6773 12.6681L11.2893 12.0001L10.6773 11.332L6.9737 7.6681C6.3512 7.04611 6.001 6.20249 6 5.3225V3H18V5.3225C17.999 6.20249 17.6488 7.04611 17.0263 7.6681L13.3226 11.3319Z" fill="black"/>
</svg>
