<svg width="24" height="24" viewBox="0 0 24 24" fill="none" xmlns="http://www.w3.org/2000/svg">
<path d="M12 2C10.0222 2 8.08879 2.58649 6.4443 3.6853C4.79981 4.78412 3.51809 6.3459 2.76121 8.17317C2.00433 10.0004 1.8063 12.0111 2.19215 13.9509C2.578 15.8907 3.53041 17.6725 4.92894 19.0711C6.32746 20.4696 8.10929 21.422 10.0491 21.8079C11.9889 22.1937 13.9996 21.9957 15.8268 21.2388C17.6541 20.4819 19.2159 19.2002 20.3147 17.5557C21.4135 15.9112 22 13.9778 22 12C22 10.6868 21.7413 9.38642 21.2388 8.17317C20.7363 6.95991 19.9997 5.85752 19.0711 4.92893C18.1425 4.00035 17.0401 3.26375 15.8268 2.7612C14.6136 2.25866 13.3132 2 12 2ZM15.6768 15.6768C14.9588 16.3979 14.0446 16.8919 13.0479 17.0974C12.0513 17.3029 11.0162 17.2109 10.0715 16.8327C9.1268 16.4545 8.31414 15.8068 7.73465 14.9704C7.15515 14.1339 6.8344 13.1455 6.8123 12.1281H7.3123C7.34555 13.2053 7.74927 14.2381 8.45537 15.0523C9.16147 15.8665 10.1268 16.4123 11.1884 16.5976C12.2501 16.783 13.3432 16.5965 14.2834 16.0697C15.2236 15.5429 15.9534 14.7079 16.3496 13.7057C16.7459 12.7034 16.7843 11.5952 16.4586 10.5679C16.1328 9.54057 15.4628 8.65702 14.5614 8.06624C13.66 7.47546 12.5825 7.2136 11.5105 7.32482C10.4385 7.43605 9.43769 7.91355 8.6768 8.6768L7.6159 9.7376H10.2175V10.2382H6.7775V6.7982H7.2775V9.3682L8.3224 8.3232C8.80363 7.83305 9.3772 7.4431 10.01 7.17587C10.6428 6.90864 11.3222 6.76942 12.0091 6.76626C12.696 6.76311 13.3767 6.89607 14.0119 7.15748C14.6471 7.41888 15.2242 7.80355 15.7099 8.28926C16.1957 8.77496 16.5803 9.35209 16.8417 9.9873C17.1031 10.6225 17.2361 11.3032 17.2329 11.9901C17.2298 12.677 17.0906 13.3564 16.8233 13.9892C16.5561 14.622 16.1662 15.1956 15.676 15.6768H15.6768Z" fill="black"/>
</svg>
