<svg width="24" height="24" viewBox="0 0 24 24" fill="none" xmlns="http://www.w3.org/2000/svg">
<path d="M21 20.5V17H19.5V20.5H12.75V17H11.25V20.5H4.5V17H3V20.5H1V22H23V20.5H21ZM12 15C13.2856 15 14.5423 14.6188 15.6112 13.9046C16.6801 13.1903 17.5132 12.1752 18.0052 10.9874C18.4972 9.79973 18.6259 8.49279 18.3751 7.23192C18.1243 5.97104 17.5052 4.81285 16.5962 3.90381C15.6872 2.99477 14.529 2.3757 13.2681 2.1249C12.0072 1.87409 10.7003 2.00282 9.51256 2.49479C8.32484 2.98676 7.30968 3.81988 6.59545 4.8888C5.88122 5.95772 5.5 7.21442 5.5 8.5C5.5 10.2239 6.18482 11.8772 7.40381 13.0962C8.62279 14.3152 10.2761 15 12 15ZM12 3.5C12.9889 3.5 13.9556 3.79325 14.7779 4.34265C15.6001 4.89206 16.241 5.67296 16.6194 6.58659C16.9978 7.50022 17.0969 8.50555 16.9039 9.47545C16.711 10.4454 16.2348 11.3363 15.5355 12.0355C14.8363 12.7348 13.9454 13.211 12.9755 13.4039C12.0055 13.5969 11.0002 13.4978 10.0866 13.1194C9.17295 12.741 8.39206 12.1001 7.84265 11.2779C7.29324 10.4556 7 9.48891 7 8.5C7.00151 7.17438 7.52878 5.90349 8.46613 4.96614C9.40349 4.02878 10.6744 3.50151 12 3.5ZM14.707 8.03H12.47V5.2646H11.2373V9.2627H14.7073L14.707 8.03Z" fill="black"/>
</svg>
