<svg width="24" height="24" viewBox="0 0 24 24" fill="none" xmlns="http://www.w3.org/2000/svg">
<path d="M15.409 16.2449C15.1794 16.4491 14.9323 16.6328 14.6705 16.7938L15.4253 17.5488C15.4676 17.5911 15.5177 17.6246 15.5729 17.6475C15.6282 17.6704 15.6874 17.6822 15.7471 17.6822C15.8069 17.6823 15.8661 17.6705 15.9213 17.6477C15.9766 17.6248 16.0268 17.5913 16.0691 17.549C16.1113 17.5068 16.1449 17.4566 16.1678 17.4014C16.1907 17.3462 16.2025 17.287 16.2025 17.2272C16.2025 17.1674 16.1908 17.1083 16.1679 17.053C16.1451 16.9978 16.1116 16.9476 16.0693 16.9053L15.409 16.2449ZM12 2C10.0222 2 8.08879 2.58649 6.4443 3.6853C4.79981 4.78412 3.51809 6.3459 2.76121 8.17317C2.00433 10.0004 1.8063 12.0111 2.19215 13.9509C2.578 15.8907 3.53041 17.6725 4.92894 19.0711C6.32746 20.4696 8.10929 21.422 10.0491 21.8079C11.9889 22.1937 13.9996 21.9957 15.8268 21.2388C17.6541 20.4819 19.2159 19.2002 20.3147 17.5557C21.4135 15.9112 22 13.9778 22 12C22 10.6868 21.7413 9.38642 21.2388 8.17317C20.7363 6.95991 19.9997 5.85752 19.0711 4.92893C18.1425 4.00035 17.0401 3.26375 15.8268 2.7612C14.6136 2.25866 13.3132 2 12 2ZM6.1147 11H5.1147C5.11269 10.6909 5.17182 10.3845 5.2887 10.0984C5.40558 9.81225 5.5779 9.55206 5.79573 9.3328C6.01357 9.11353 6.27263 8.93952 6.55799 8.82077C6.84335 8.70202 7.14937 8.64089 7.45845 8.64089C7.76753 8.64089 8.07356 8.70202 8.35892 8.82077C8.64428 8.93952 8.90334 9.11353 9.12118 9.3328C9.33901 9.55206 9.51133 9.81225 9.62821 10.0984C9.74509 10.3845 9.80422 10.6909 9.8022 11H8.8022C8.80374 10.8226 8.77011 10.6466 8.70326 10.4822C8.63642 10.3178 8.53768 10.1683 8.41275 10.0423C8.28782 9.91629 8.13917 9.81627 7.97538 9.74801C7.81159 9.67975 7.6359 9.64461 7.45845 9.64461C7.28101 9.64461 7.10532 9.67975 6.94153 9.74801C6.77774 9.81627 6.62909 9.91629 6.50415 10.0423C6.37922 10.1683 6.28049 10.3178 6.21364 10.4822C6.1468 10.6466 6.11317 10.8226 6.1147 11ZM16.7061 18.1855C16.4517 18.4394 16.107 18.582 15.7476 18.582C15.3882 18.582 15.0435 18.4394 14.7891 18.1855L13.8221 17.2186C13.2234 17.4587 12.5849 17.5842 11.9399 17.5886C10.8583 17.5843 9.80453 17.246 8.92251 16.62C8.04048 15.9941 7.37331 15.111 7.0122 14.0915L7.9546 13.7556C8.24259 14.583 8.78097 15.3003 9.49505 15.808C10.2091 16.3156 11.0635 16.5884 11.9396 16.5885C12.8158 16.5886 13.6702 16.316 14.3844 15.8085C15.0986 15.301 15.6371 14.5839 15.9253 13.7565L16.8677 14.0905C16.6727 14.6338 16.3895 15.1413 16.0294 15.5925L16.7056 16.2683C16.9596 16.5226 17.1023 16.8674 17.1024 17.2268C17.1025 17.5862 16.96 17.931 16.7061 18.1855ZM17.8853 11C17.8868 10.8226 17.8532 10.6466 17.7864 10.4822C17.7195 10.3178 17.6208 10.1683 17.4959 10.0423C17.3709 9.91629 17.2223 9.81627 17.0585 9.74801C16.8947 9.67975 16.719 9.64461 16.5416 9.64461C16.3641 9.64461 16.1884 9.67975 16.0246 9.74801C15.8608 9.81627 15.7122 9.91629 15.5873 10.0423C15.4623 10.1683 15.3636 10.3178 15.2967 10.4822C15.2299 10.6466 15.1963 10.8226 15.1978 11H14.1978C14.1958 10.6909 14.2549 10.3845 14.3718 10.0984C14.4887 9.81225 14.661 9.55206 14.8788 9.3328C15.0967 9.11353 15.3557 8.93952 15.6411 8.82077C15.9264 8.70202 16.2325 8.64089 16.5416 8.64089C16.8506 8.64089 17.1567 8.70202 17.442 8.82077C17.7274 8.93952 17.9864 9.11353 18.2043 9.3328C18.4221 9.55206 18.5944 9.81225 18.7113 10.0984C18.8282 10.3845 18.8873 10.6909 18.8853 11H17.8853Z" fill="black"/>
</svg>
