<svg width="24" height="24" viewBox="0 0 24 24" fill="none" xmlns="http://www.w3.org/2000/svg">
<path d="M12 2C10.0222 2 8.08879 2.58649 6.4443 3.6853C4.79981 4.78412 3.51809 6.3459 2.76121 8.17317C2.00433 10.0004 1.8063 12.0111 2.19215 13.9509C2.578 15.8907 3.53041 17.6725 4.92894 19.0711C6.32746 20.4696 8.10929 21.422 10.0491 21.8079C11.9889 22.1937 13.9996 21.9957 15.8268 21.2388C17.6541 20.4819 19.2159 19.2002 20.3147 17.5557C21.4135 15.9112 22 13.9778 22 12C22 10.6868 21.7413 9.38642 21.2388 8.17317C20.7363 6.95991 19.9997 5.85752 19.0711 4.92893C18.1425 4.00035 17.0401 3.26375 15.8268 2.7612C14.6136 2.25866 13.3132 2 12 2ZM6.2178 8.7764L9.4053 10.37L9.1816 10.8173L5.9941 9.2236L6.2178 8.7764ZM15.3589 15.9248C14.9179 15.4836 14.3942 15.1336 13.8179 14.8949C13.2416 14.6561 12.6238 14.5332 12 14.5332C11.3762 14.5332 10.7585 14.6561 10.1821 14.8949C9.6058 15.1336 9.08215 15.4836 8.6411 15.9248L8.2876 15.5713C8.77506 15.0837 9.35381 14.6969 9.99079 14.4329C10.6278 14.169 11.3105 14.0332 12 14.0332C12.6895 14.0332 13.3722 14.169 14.0092 14.4329C14.6462 14.6969 15.2249 15.0837 15.7124 15.5713L15.3589 15.9248ZM14.8189 10.8174L14.5952 10.3701L17.7827 8.7764L18.0064 9.2236L14.8189 10.8174Z" fill="black"/>
</svg>
