<svg width="24" height="24" viewBox="0 0 24 24" fill="none" xmlns="http://www.w3.org/2000/svg">
<path d="M12 2C10.0222 2 8.08879 2.58649 6.4443 3.6853C4.79981 4.78412 3.51809 6.3459 2.76121 8.17317C2.00433 10.0004 1.8063 12.0111 2.19215 13.9509C2.578 15.8907 3.53041 17.6725 4.92894 19.0711C6.32746 20.4696 8.10929 21.422 10.0491 21.8079C11.9889 22.1937 13.9996 21.9957 15.8268 21.2388C17.6541 20.4819 19.2159 19.2002 20.3147 17.5557C21.4135 15.9112 22 13.9778 22 12C22 10.6868 21.7413 9.38642 21.2388 8.17317C20.7363 6.95991 19.9997 5.85752 19.0711 4.92893C18.1425 4.00035 17.0401 3.26375 15.8268 2.7612C14.6136 2.25866 13.3132 2 12 2ZM8 10.55C7.822 10.55 7.64799 10.4972 7.49999 10.3983C7.35199 10.2994 7.23663 10.1589 7.16851 9.99442C7.10039 9.82996 7.08257 9.649 7.1173 9.47442C7.15202 9.29984 7.23774 9.13947 7.36361 9.0136C7.48948 8.88774 7.64984 8.80202 7.82442 8.76729C7.99901 8.73257 8.17997 8.75039 8.34442 8.81851C8.50887 8.88663 8.64943 9.00198 8.74833 9.14999C8.84722 9.29799 8.9 9.472 8.9 9.65C8.9 9.88869 8.80518 10.1176 8.6364 10.2864C8.46762 10.4552 8.2387 10.55 8 10.55ZM16 10.55C15.822 10.55 15.648 10.4972 15.5 10.3983C15.352 10.2994 15.2366 10.1589 15.1685 9.99442C15.1004 9.82996 15.0826 9.649 15.1173 9.47442C15.152 9.29984 15.2377 9.13947 15.3636 9.0136C15.4895 8.88774 15.6498 8.80202 15.8244 8.76729C15.999 8.73257 16.18 8.75039 16.3444 8.81851C16.5089 8.88663 16.6494 9.00198 16.7483 9.14999C16.8472 9.29799 16.9 9.472 16.9 9.65C16.9 9.88869 16.8052 10.1176 16.6364 10.2864C16.4676 10.4552 16.2387 10.55 16 10.55Z" fill="black"/>
</svg>
