<svg width="24" height="24" viewBox="0 0 24 24" fill="none" xmlns="http://www.w3.org/2000/svg">
<path d="M12 2C10.0222 2 8.08879 2.58649 6.4443 3.6853C4.79981 4.78412 3.51809 6.3459 2.76121 8.17317C2.00433 10.0004 1.8063 12.0111 2.19215 13.9509C2.578 15.8907 3.53041 17.6725 4.92894 19.0711C6.32746 20.4696 8.10929 21.422 10.0491 21.8079C11.9889 22.1937 13.9996 21.9957 15.8268 21.2388C17.6541 20.4819 19.2159 19.2002 20.3147 17.5557C21.4135 15.9112 22 13.9778 22 12C22 10.6868 21.7413 9.38642 21.2388 8.17317C20.7363 6.95991 19.9997 5.85752 19.0711 4.92893C18.1425 4.00035 17.0401 3.26375 15.8268 2.7612C14.6136 2.25866 13.3132 2 12 2ZM7.8 15.15C7.57256 15.15 7.35021 15.0826 7.1611 14.9562C6.97198 14.8298 6.82458 14.6502 6.73754 14.4401C6.6505 14.23 6.62773 13.9987 6.6721 13.7756C6.71647 13.5526 6.826 13.3477 6.98683 13.1868C7.14766 13.026 7.35257 12.9165 7.57565 12.8721C7.79873 12.8277 8.02995 12.8505 8.24009 12.9375C8.45022 13.0246 8.62983 13.172 8.75619 13.3611C8.88256 13.5502 8.95 13.7726 8.95 14C8.95 14.305 8.82884 14.5975 8.61318 14.8132C8.39751 15.0288 8.105 15.15 7.8 15.15ZM12 7.75C11.4416 7.74853 10.8885 7.85782 10.3726 8.07154C9.85673 8.28526 9.38836 8.59917 8.9946 8.9951L7.9341 7.9346C8.46798 7.40053 9.10183 6.97688 9.79947 6.68783C10.4971 6.39879 11.2449 6.25001 12 6.25001C12.7552 6.25001 13.5029 6.39879 14.2005 6.68783C14.8982 6.97688 15.532 7.40053 16.0659 7.9346L15.0059 8.9951C14.6121 8.59911 14.1436 8.28517 13.6277 8.07145C13.1117 7.85773 12.5585 7.74847 12 7.75ZM16.2 15.15C15.9726 15.15 15.7502 15.0826 15.5611 14.9562C15.372 14.8298 15.2246 14.6502 15.1375 14.4401C15.0505 14.23 15.0277 13.9987 15.0721 13.7756C15.1165 13.5526 15.226 13.3477 15.3868 13.1868C15.5477 13.026 15.7526 12.9165 15.9757 12.8721C16.1987 12.8277 16.43 12.8505 16.6401 12.9375C16.8502 13.0246 17.0298 13.172 17.1562 13.3611C17.2826 13.5502 17.35 13.7726 17.35 14C17.35 14.151 17.3203 14.3006 17.2625 14.4401C17.2047 14.5796 17.12 14.7064 17.0132 14.8132C16.9064 14.92 16.7796 15.0047 16.6401 15.0625C16.5006 15.1203 16.351 15.15 16.2 15.15Z" fill="black"/>
</svg>
