<svg width="24" height="24" viewBox="0 0 24 24" fill="none" xmlns="http://www.w3.org/2000/svg">
<path d="M15 8.65C14.733 8.65 14.472 8.72918 14.25 8.87752C14.028 9.02586 13.8549 9.2367 13.7528 9.48338C13.6506 9.73006 13.6239 10.0015 13.6759 10.2634C13.728 10.5252 13.8566 10.7658 14.0454 10.9546C14.2342 11.1434 14.4748 11.272 14.7366 11.3241C14.9985 11.3762 15.2699 11.3494 15.5166 11.2472C15.7633 11.1451 15.9741 10.972 16.1225 10.75C16.2708 10.528 16.35 10.267 16.35 10C16.35 9.64196 16.2078 9.29858 15.9546 9.04541C15.7014 8.79223 15.358 8.65 15 8.65ZM9 8.65C8.733 8.65 8.47199 8.72918 8.24998 8.87752C8.02798 9.02586 7.85495 9.2367 7.75277 9.48338C7.65059 9.73006 7.62385 10.0015 7.67594 10.2634C7.72803 10.5252 7.85661 10.7658 8.04541 10.9546C8.23421 11.1434 8.47476 11.272 8.73663 11.3241C8.99851 11.3762 9.26995 11.3494 9.51663 11.2472C9.76331 11.1451 9.97415 10.972 10.1225 10.75C10.2708 10.528 10.35 10.267 10.35 10C10.35 9.64196 10.2078 9.29858 9.9546 9.04541C9.70142 8.79223 9.35805 8.65 9 8.65ZM12 2C10.0222 2 8.08879 2.58649 6.4443 3.6853C4.79981 4.78412 3.51809 6.3459 2.76121 8.17317C2.00433 10.0004 1.8063 12.0111 2.19215 13.9509C2.578 15.8907 3.53041 17.6725 4.92894 19.0711C6.32746 20.4696 8.10929 21.422 10.0491 21.8079C11.9889 22.1937 13.9996 21.9957 15.8268 21.2388C17.6541 20.4819 19.2159 19.2002 20.3147 17.5557C21.4135 15.9112 22 13.9778 22 12C22 10.6868 21.7413 9.38642 21.2388 8.17317C20.7363 6.95991 19.9997 5.85752 19.0711 4.92893C18.1425 4.00035 17.0401 3.26375 15.8268 2.7612C14.6136 2.25866 13.3132 2 12 2ZM12 20C10.4178 20 8.87104 19.5308 7.55544 18.6518C6.23985 17.7727 5.21447 16.5233 4.60897 15.0615C4.00347 13.5997 3.84504 11.9911 4.15372 10.4393C4.4624 8.88743 5.22433 7.46197 6.34315 6.34315C7.46197 5.22433 8.88743 4.4624 10.4393 4.15372C11.9911 3.84504 13.5997 4.00346 15.0615 4.60896C16.5233 5.21447 17.7727 6.23984 18.6518 7.55544C19.5308 8.87103 20 10.4177 20 12C19.9976 14.121 19.154 16.1544 17.6542 17.6542C16.1544 19.154 14.121 19.9976 12 20Z" fill="black"/>
</svg>
