<svg width="24" height="24" viewBox="0 0 24 24" fill="none" xmlns="http://www.w3.org/2000/svg">
<path d="M15.4 10.15C15.4989 10.15 15.5956 10.1207 15.6778 10.0657C15.76 10.0108 15.8241 9.9327 15.8619 9.84134C15.8998 9.74998 15.9097 9.64945 15.8904 9.55245C15.8711 9.45546 15.8235 9.36637 15.7536 9.29645C15.6836 9.22652 15.5945 9.1789 15.4976 9.15961C15.4006 9.14031 15.3 9.15022 15.2087 9.18806C15.1173 9.2259 15.0392 9.28999 14.9843 9.37222C14.9293 9.45444 14.9 9.55111 14.9 9.65C14.9 9.78261 14.9527 9.90979 15.0465 10.0036C15.1402 10.0973 15.2674 10.15 15.4 10.15ZM8.6 10.15C8.6989 10.15 8.79556 10.1207 8.87779 10.0657C8.96001 10.0108 9.0241 9.9327 9.06194 9.84134C9.09979 9.74998 9.10969 9.64945 9.0904 9.55245C9.0711 9.45546 9.02348 9.36637 8.95356 9.29645C8.88363 9.22652 8.79454 9.1789 8.69755 9.15961C8.60056 9.14031 8.50003 9.15022 8.40866 9.18806C8.3173 9.2259 8.23921 9.28999 8.18427 9.37222C8.12933 9.45444 8.1 9.55111 8.1 9.65C8.1 9.78261 8.15268 9.90979 8.24645 10.0036C8.34022 10.0973 8.4674 10.15 8.6 10.15ZM12 13.75C11.1176 13.7537 10.2579 14.0298 9.53838 14.5405C8.81884 15.0512 8.27458 15.7717 7.98 16.6035L8.4507 16.7715C8.70751 16.0349 9.18715 15.3964 9.82312 14.9446C10.4591 14.4928 11.2199 14.2501 12 14.2501C12.7801 14.2501 13.5409 14.4928 14.1769 14.9446C14.8129 15.3964 15.2925 16.0349 15.5493 16.7715L16.02 16.6035C15.7254 15.7717 15.1812 15.0512 14.4616 14.5405C13.7421 14.0298 12.8824 13.7537 12 13.75ZM12 2C10.0222 2 8.08879 2.58649 6.4443 3.6853C4.79981 4.78412 3.51809 6.3459 2.76121 8.17317C2.00433 10.0004 1.8063 12.0111 2.19215 13.9509C2.578 15.8907 3.53041 17.6725 4.92894 19.0711C6.32746 20.4696 8.10929 21.422 10.0491 21.8079C11.9889 22.1937 13.9996 21.9957 15.8268 21.2388C17.6541 20.4819 19.2159 19.2002 20.3147 17.5557C21.4135 15.9112 22 13.9778 22 12C22 10.6868 21.7413 9.38642 21.2388 8.17317C20.7363 6.95991 19.9997 5.85752 19.0711 4.92893C18.1425 4.00035 17.0401 3.26375 15.8268 2.7612C14.6136 2.25866 13.3132 2 12 2ZM12 21.5C10.1211 21.5 8.28435 20.9428 6.72209 19.899C5.15982 18.8551 3.94218 17.3714 3.22315 15.6355C2.50412 13.8996 2.31598 11.9895 2.68254 10.1466C3.0491 8.30382 3.95389 6.61108 5.28249 5.28249C6.61109 3.95389 8.30383 3.0491 10.1466 2.68254C11.9895 2.31598 13.8996 2.50411 15.6355 3.22314C17.3714 3.94218 18.8551 5.15982 19.899 6.72208C20.9428 8.28435 21.5 10.1211 21.5 12C21.4971 14.5187 20.4953 16.9334 18.7144 18.7144C16.9334 20.4953 14.5187 21.4971 12 21.5Z" fill="black"/>
</svg>
