<svg width="24" height="24" viewBox="0 0 24 24" fill="none" xmlns="http://www.w3.org/2000/svg">
<path d="M12 2C10.0222 2 8.08879 2.58649 6.4443 3.6853C4.79981 4.78412 3.51809 6.3459 2.76121 8.17317C2.00433 10.0004 1.8063 12.0111 2.19215 13.9509C2.578 15.8907 3.53041 17.6725 4.92894 19.0711C6.32746 20.4696 8.10929 21.422 10.0491 21.8079C11.9889 22.1937 13.9996 21.9957 15.8268 21.2388C17.6541 20.4819 19.2159 19.2002 20.3147 17.5557C21.4135 15.9112 22 13.9778 22 12C22 10.6868 21.7413 9.38642 21.2388 8.17317C20.7363 6.95991 19.9997 5.85752 19.0711 4.92893C18.1425 4.00035 17.0401 3.26375 15.8268 2.7612C14.6136 2.25866 13.3132 2 12 2ZM6.8193 8.3291L10.0068 9.9229L9.3359 11.2646L6.1484 9.6709L6.8193 8.3291ZM15.0054 17.2783C14.6107 16.8836 14.1422 16.5705 13.6265 16.3569C13.1109 16.1433 12.5582 16.0333 12 16.0333C11.4418 16.0333 10.8891 16.1433 10.3735 16.3569C9.8578 16.5705 9.38926 16.8836 8.9946 17.2783L7.9341 16.2178C8.46798 15.6837 9.10183 15.2601 9.79947 14.971C10.4971 14.682 11.2449 14.5332 12 14.5332C12.7552 14.5332 13.5029 14.682 14.2005 14.971C14.8982 15.2601 15.532 15.6837 16.0659 16.2178L15.0054 17.2783ZM14.6641 11.2646L13.9932 9.9229L17.1807 8.3291L17.8516 9.6709L14.6641 11.2646Z" fill="black"/>
</svg>
