<svg width="24" height="24" viewBox="0 0 24 24" fill="none" xmlns="http://www.w3.org/2000/svg">
<path d="M15 11.35C15.267 11.35 15.528 11.2708 15.75 11.1225C15.972 10.9741 16.1451 10.7633 16.2472 10.5166C16.3494 10.2699 16.3762 9.9985 16.3241 9.73663C16.272 9.47475 16.1434 9.23421 15.9546 9.04541C15.7658 8.8566 15.5253 8.72803 15.2634 8.67594C15.0015 8.62385 14.7301 8.65058 14.4834 8.75276C14.2367 8.85494 14.0259 9.02797 13.8775 9.24998C13.7292 9.47199 13.65 9.733 13.65 10C13.65 10.358 13.7922 10.7014 14.0454 10.9546C14.2986 11.2078 14.642 11.35 15 11.35ZM9 11.35C9.26701 11.35 9.52802 11.2708 9.75002 11.1225C9.97203 10.9741 10.1451 10.7633 10.2472 10.5166C10.3494 10.2699 10.3762 9.9985 10.3241 9.73663C10.272 9.47475 10.1434 9.23421 9.9546 9.04541C9.7658 8.8566 9.52525 8.72803 9.26338 8.67594C9.0015 8.62385 8.73006 8.65058 8.48338 8.75276C8.2367 8.85494 8.02586 9.02797 7.87752 9.24998C7.72918 9.47199 7.65 9.733 7.65 10C7.65 10.358 7.79224 10.7014 8.04541 10.9546C8.29858 11.2078 8.64196 11.35 9 11.35ZM12 13C10.9627 13.0039 9.95196 13.328 9.10586 13.9281C8.25976 14.5282 7.61961 15.3749 7.2729 16.3525L9.1577 17.0225C9.36257 16.4318 9.74637 15.9196 10.2558 15.5572C10.7651 15.1947 11.3748 14.9999 12 14.9999C12.6252 14.9999 13.2349 15.1947 13.7443 15.5572C14.2536 15.9196 14.6374 16.4318 14.8423 17.0225L16.7271 16.3525C16.3804 15.3749 15.7402 14.5282 14.8941 13.9281C14.048 13.328 13.0373 13.0039 12 13ZM12 2C10.0222 2 8.08879 2.58649 6.4443 3.6853C4.79981 4.78412 3.51809 6.3459 2.76121 8.17317C2.00433 10.0004 1.8063 12.0111 2.19215 13.9509C2.578 15.8907 3.53041 17.6725 4.92894 19.0711C6.32746 20.4696 8.10929 21.422 10.0491 21.8079C11.9889 22.1937 13.9996 21.9957 15.8268 21.2388C17.6541 20.4819 19.2159 19.2002 20.3147 17.5557C21.4135 15.9112 22 13.9778 22 12C22 10.6868 21.7413 9.38642 21.2388 8.17317C20.7363 6.95991 19.9997 5.85752 19.0711 4.92893C18.1425 4.00035 17.0401 3.26375 15.8268 2.7612C14.6136 2.25866 13.3132 2 12 2ZM12 20C10.4178 20 8.87104 19.5308 7.55544 18.6518C6.23985 17.7727 5.21447 16.5233 4.60897 15.0615C4.00347 13.5997 3.84504 11.9911 4.15372 10.4393C4.4624 8.88743 5.22433 7.46197 6.34315 6.34315C7.46197 5.22433 8.88743 4.4624 10.4393 4.15372C11.9911 3.84504 13.5997 4.00346 15.0615 4.60896C16.5233 5.21447 17.7727 6.23984 18.6518 7.55544C19.5308 8.87103 20 10.4177 20 12C19.9976 14.121 19.154 16.1544 17.6542 17.6542C16.1544 19.154 14.121 19.9976 12 20Z" fill="black"/>
</svg>
