<svg width="24" height="24" viewBox="0 0 24 24" fill="none" xmlns="http://www.w3.org/2000/svg">
<path d="M12 2C10.0222 2 8.08879 2.58649 6.4443 3.6853C4.79981 4.78412 3.51809 6.3459 2.76121 8.17317C2.00433 10.0004 1.8063 12.0111 2.19215 13.9509C2.578 15.8907 3.53041 17.6725 4.92894 19.0711C6.32746 20.4696 8.10929 21.422 10.0491 21.8079C11.9889 22.1937 13.9996 21.9957 15.8268 21.2388C17.6541 20.4819 19.2159 19.2002 20.3147 17.5557C21.4135 15.9112 22 13.9778 22 12C22 10.6868 21.7413 9.38642 21.2388 8.17317C20.7363 6.95991 19.9997 5.85752 19.0711 4.92893C18.1425 4.00035 17.0401 3.26375 15.8268 2.7612C14.6136 2.25866 13.3132 2 12 2ZM8 15.25C7.822 15.25 7.64799 15.1972 7.49999 15.0983C7.35199 14.9994 7.23663 14.8589 7.16851 14.6944C7.10039 14.53 7.08257 14.349 7.1173 14.1744C7.15202 13.9998 7.23774 13.8395 7.36361 13.7136C7.48948 13.5877 7.64984 13.502 7.82442 13.4673C7.99901 13.4326 8.17997 13.4504 8.34442 13.5185C8.50887 13.5866 8.64943 13.702 8.74833 13.85C8.84722 13.998 8.9 14.172 8.9 14.35C8.9 14.4682 8.87673 14.5852 8.8315 14.6944C8.78627 14.8036 8.71997 14.9028 8.6364 14.9864C8.55283 15.07 8.45361 15.1363 8.34442 15.1815C8.23523 15.2267 8.11819 15.25 8 15.25ZM8.8179 9.8184L8.1108 9.1113C8.62148 8.60046 9.2278 8.19523 9.89512 7.91876C10.5624 7.64229 11.2777 7.49998 12 7.49998C12.7223 7.49998 13.4376 7.64229 14.1049 7.91876C14.7722 8.19523 15.3785 8.60046 15.8892 9.1113L15.1821 9.8184C14.7643 9.40043 14.2682 9.06887 13.7222 8.84266C13.1762 8.61644 12.591 8.50001 12 8.50001C11.409 8.50001 10.8238 8.61644 10.2778 8.84266C9.73181 9.06887 9.23573 9.40043 8.8179 9.8184ZM16 15.25C15.822 15.25 15.648 15.1972 15.5 15.0983C15.352 14.9994 15.2366 14.8589 15.1685 14.6944C15.1004 14.53 15.0826 14.349 15.1173 14.1744C15.152 13.9998 15.2377 13.8395 15.3636 13.7136C15.4895 13.5877 15.6498 13.502 15.8244 13.4673C15.999 13.4326 16.18 13.4504 16.3444 13.5185C16.5089 13.5866 16.6494 13.702 16.7483 13.85C16.8472 13.998 16.9 14.172 16.9 14.35C16.9 14.4682 16.8767 14.5852 16.8315 14.6944C16.7863 14.8036 16.72 14.9028 16.6364 14.9864C16.5528 15.07 16.4536 15.1363 16.3444 15.1815C16.2352 15.2267 16.1182 15.25 16 15.25Z" fill="black"/>
</svg>
