<svg width="24" height="24" viewBox="0 0 24 24" fill="none" xmlns="http://www.w3.org/2000/svg">
<path d="M15.8892 9.1108C14.8577 8.0794 13.4587 7.49998 12 7.49998C10.5413 7.49998 9.14233 8.0794 8.1108 9.1108L8.8179 9.8179C9.66191 8.97406 10.8065 8.50001 12 8.50001C13.1935 8.50001 14.3381 8.97406 15.1821 9.8179L15.8892 9.1108ZM9 13.45C8.822 13.45 8.64799 13.5028 8.49999 13.6017C8.35199 13.7006 8.23663 13.8411 8.16851 14.0056C8.10039 14.17 8.08257 14.351 8.1173 14.5256C8.15202 14.7002 8.23774 14.8605 8.36361 14.9864C8.48948 15.1123 8.64984 15.198 8.82442 15.2327C8.99901 15.2674 9.17997 15.2496 9.34442 15.1815C9.50887 15.1134 9.64943 14.998 9.74833 14.85C9.84722 14.702 9.9 14.528 9.9 14.35C9.9 14.1113 9.80518 13.8824 9.6364 13.7136C9.46762 13.5448 9.2387 13.45 9 13.45ZM15 13.45C14.822 13.45 14.648 13.5028 14.5 13.6017C14.352 13.7006 14.2366 13.8411 14.1685 14.0056C14.1004 14.17 14.0826 14.351 14.1173 14.5256C14.152 14.7002 14.2377 14.8605 14.3636 14.9864C14.4895 15.1123 14.6498 15.198 14.8244 15.2327C14.999 15.2674 15.18 15.2496 15.3444 15.1815C15.5089 15.1134 15.6494 14.998 15.7483 14.85C15.8472 14.702 15.9 14.528 15.9 14.35C15.9 14.1113 15.8052 13.8824 15.6364 13.7136C15.4676 13.5448 15.2387 13.45 15 13.45ZM12 2C10.0222 2 8.08879 2.58649 6.4443 3.6853C4.79981 4.78412 3.51809 6.3459 2.76121 8.17317C2.00433 10.0004 1.8063 12.0111 2.19215 13.9509C2.578 15.8907 3.53041 17.6725 4.92894 19.0711C6.32746 20.4696 8.10929 21.422 10.0491 21.8079C11.9889 22.1937 13.9996 21.9957 15.8268 21.2388C17.6541 20.4819 19.2159 19.2002 20.3147 17.5557C21.4135 15.9112 22 13.9778 22 12C22 10.6868 21.7413 9.38642 21.2388 8.17317C20.7363 6.95991 19.9997 5.85752 19.0711 4.92893C18.1425 4.00035 17.0401 3.26375 15.8268 2.7612C14.6136 2.25866 13.3132 2 12 2ZM12 21C10.22 21 8.47991 20.4722 6.99987 19.4832C5.51983 18.4943 4.36628 17.0887 3.68509 15.4442C3.0039 13.7996 2.82567 11.99 3.17294 10.2442C3.5202 8.49836 4.37737 6.89471 5.63604 5.63604C6.89472 4.37737 8.49836 3.5202 10.2442 3.17293C11.99 2.82567 13.7996 3.0039 15.4442 3.68508C17.0887 4.36627 18.4943 5.51983 19.4832 6.99987C20.4722 8.47991 21 10.22 21 12C20.9974 14.3861 20.0483 16.6738 18.361 18.361C16.6738 20.0483 14.3861 20.9974 12 21Z" fill="black"/>
</svg>
