<svg width="24" height="24" viewBox="0 0 24 24" fill="none" xmlns="http://www.w3.org/2000/svg">
<path d="M12 2C10.0222 2 8.08879 2.58649 6.4443 3.6853C4.79981 4.78412 3.51809 6.3459 2.76121 8.17317C2.00433 10.0004 1.8063 12.0111 2.19215 13.9509C2.578 15.8907 3.53041 17.6725 4.92894 19.0711C6.32746 20.4696 8.10929 21.422 10.0491 21.8079C11.9889 22.1937 13.9996 21.9957 15.8268 21.2388C17.6541 20.4819 19.2159 19.2002 20.3147 17.5557C21.4135 15.9112 22 13.9778 22 12C22 10.6868 21.7413 9.38642 21.2388 8.17317C20.7363 6.95991 19.9997 5.85752 19.0711 4.92893C18.1425 4.00035 17.0401 3.26375 15.8268 2.7612C14.6136 2.25866 13.3132 2 12 2ZM7.4585 9.4062C7.03594 9.40665 6.63081 9.57471 6.33201 9.87351C6.03322 10.1723 5.86515 10.5774 5.8647 11H5.3647C5.3628 10.7238 5.41554 10.45 5.51991 10.1943C5.62427 9.9386 5.77819 9.70608 5.97281 9.51011C6.16742 9.31415 6.39888 9.15863 6.65385 9.0525C6.90882 8.94637 7.18227 8.89173 7.45845 8.89173C7.73463 8.89173 8.00808 8.94637 8.26306 9.0525C8.51803 9.15863 8.74949 9.31415 8.9441 9.51011C9.13871 9.70608 9.29264 9.9386 9.397 10.1943C9.50137 10.45 9.55411 10.7238 9.5522 11H9.0522C9.05178 10.5774 8.88374 10.1723 8.58496 9.87352C8.28618 9.57472 7.88106 9.40665 7.4585 9.4062ZM12 17.6C11.2332 17.5986 10.4887 17.3425 9.88335 16.8718C9.27802 16.4012 8.84625 15.7428 8.6559 15H15.3441C15.1538 15.7428 14.722 16.4012 14.1167 16.8718C13.5113 17.3425 12.7668 17.5986 12 17.6ZM18.1353 11C18.137 10.7896 18.097 10.581 18.0176 10.3862C17.9383 10.1914 17.8212 10.0142 17.673 9.86486C17.5248 9.71552 17.3486 9.59699 17.1544 9.51611C16.9602 9.43522 16.7519 9.39358 16.5416 9.39358C16.3312 9.39358 16.1229 9.43522 15.9287 9.51611C15.7345 9.59699 15.5583 9.71552 15.4101 9.86486C15.262 10.0142 15.1448 10.1914 15.0655 10.3862C14.9861 10.581 14.9461 10.7896 14.9478 11H14.4478C14.4459 10.7238 14.4986 10.45 14.603 10.1943C14.7074 9.9386 14.8613 9.70608 15.0559 9.51011C15.2505 9.31415 15.482 9.15863 15.737 9.0525C15.9919 8.94637 16.2654 8.89173 16.5416 8.89173C16.8177 8.89173 17.0912 8.94637 17.3462 9.0525C17.6011 9.15863 17.8326 9.31415 18.0272 9.51011C18.2218 9.70608 18.3757 9.9386 18.4801 10.1943C18.5845 10.45 18.6372 10.7238 18.6353 11H18.1353Z" fill="black"/>
</svg>
