<svg width="24" height="24" viewBox="0 0 24 24" fill="none" xmlns="http://www.w3.org/2000/svg">
<path d="M12 17.5C13.0322 17.4982 14.0345 17.1534 14.8494 16.5198C15.6643 15.8863 16.2455 14.9999 16.5017 14H7.4984C7.75459 14.9999 8.3358 15.8863 9.15066 16.5198C9.96552 17.1534 10.9678 17.4982 12 17.5ZM12 17C11.1917 16.9985 10.4015 16.7611 9.7261 16.3171C9.05073 15.873 8.51963 15.2415 8.1979 14.5H15.8021C15.4804 15.2415 14.9493 15.873 14.2739 16.3171C13.5986 16.7611 12.8083 16.9985 12 17ZM15.5415 8.9062C14.9864 8.90691 14.4543 9.12774 14.0618 9.52026C13.6693 9.91277 13.4485 10.4449 13.4478 11H13.9478C13.9461 10.7896 13.9861 10.581 14.0655 10.3862C14.1448 10.1914 14.262 10.0142 14.4101 9.86486C14.5583 9.71552 14.7345 9.59699 14.9287 9.51611C15.1229 9.43522 15.3312 9.39358 15.5416 9.39358C15.7519 9.39358 15.9602 9.43522 16.1544 9.51611C16.3486 9.59699 16.5248 9.71552 16.673 9.86486C16.8212 10.0142 16.9383 10.1914 17.0176 10.3862C17.097 10.581 17.137 10.7896 17.1353 11H17.6353C17.6346 10.4449 17.4138 9.91276 17.0213 9.52025C16.6287 9.12774 16.0966 8.90691 15.5415 8.9062ZM10.0522 11H10.5522C10.5541 10.7238 10.5014 10.45 10.397 10.1943C10.2926 9.9386 10.1387 9.70608 9.9441 9.51011C9.74949 9.31415 9.51803 9.15863 9.26306 9.0525C9.00808 8.94637 8.73463 8.89173 8.45845 8.89173C8.18228 8.89173 7.90882 8.94637 7.65385 9.0525C7.39888 9.15863 7.16742 9.31415 6.97281 9.51011C6.77819 9.70608 6.62427 9.9386 6.51991 10.1943C6.41554 10.45 6.3628 10.7238 6.3647 11H6.8647C6.86304 10.7896 6.90303 10.581 6.98238 10.3862C7.06172 10.1914 7.17885 10.0142 7.32701 9.86486C7.47517 9.71552 7.65143 9.59699 7.84562 9.51611C8.03981 9.43522 8.24809 9.39358 8.45845 9.39358C8.66882 9.39358 8.8771 9.43522 9.07129 9.51611C9.26548 9.59699 9.44174 9.71552 9.5899 9.86486C9.73805 10.0142 9.85518 10.1914 9.93453 10.3862C10.0139 10.581 10.0539 10.7896 10.0522 11ZM12 2C10.0222 2 8.08879 2.58649 6.4443 3.6853C4.79981 4.78412 3.51809 6.3459 2.76121 8.17317C2.00433 10.0004 1.8063 12.0111 2.19215 13.9509C2.578 15.8907 3.53041 17.6725 4.92894 19.0711C6.32746 20.4696 8.10929 21.422 10.0491 21.8079C11.9889 22.1937 13.9996 21.9957 15.8268 21.2388C17.6541 20.4819 19.2159 19.2002 20.3147 17.5557C21.4135 15.9112 22 13.9778 22 12C22 10.6868 21.7413 9.38642 21.2388 8.17317C20.7363 6.95991 19.9997 5.85752 19.0711 4.92893C18.1425 4.00035 17.0401 3.26375 15.8268 2.7612C14.6136 2.25866 13.3132 2 12 2ZM12 21.5C10.1211 21.5 8.28435 20.9428 6.72209 19.899C5.15982 18.8551 3.94218 17.3714 3.22315 15.6355C2.50412 13.8996 2.31598 11.9895 2.68254 10.1466C3.0491 8.30382 3.95389 6.61108 5.28249 5.28249C6.61109 3.95389 8.30383 3.0491 10.1466 2.68254C11.9895 2.31598 13.8996 2.50411 15.6355 3.22314C17.3714 3.94218 18.8551 5.15982 19.899 6.72208C20.9428 8.28435 21.5 10.1211 21.5 12C21.4971 14.5187 20.4953 16.9334 18.7144 18.7144C16.9334 20.4953 14.5187 21.4971 12 21.5Z" fill="black"/>
</svg>
