<svg width="24" height="24" viewBox="0 0 24 24" fill="none" xmlns="http://www.w3.org/2000/svg">
<path d="M12 2C10.0222 2 8.08879 2.58649 6.4443 3.6853C4.79981 4.78412 3.51809 6.3459 2.76121 8.17317C2.00433 10.0004 1.8063 12.0111 2.19215 13.9509C2.578 15.8907 3.53041 17.6725 4.92894 19.0711C6.32746 20.4696 8.10929 21.422 10.0491 21.8079C11.9889 22.1937 13.9996 21.9957 15.8268 21.2388C17.6541 20.4819 19.2159 19.2002 20.3147 17.5557C21.4135 15.9112 22 13.9778 22 12C22 10.6868 21.7413 9.38642 21.2388 8.17317C20.7363 6.95991 19.9997 5.85752 19.0711 4.92893C18.1425 4.00035 17.0401 3.26375 15.8268 2.7612C14.6136 2.25866 13.3132 2 12 2ZM7.8 11.15C7.57256 11.15 7.35021 11.0826 7.1611 10.9562C6.97198 10.8298 6.82458 10.6502 6.73754 10.4401C6.6505 10.23 6.62773 9.99872 6.6721 9.77565C6.71647 9.55257 6.826 9.34766 6.98683 9.18683C7.14766 9.026 7.35257 8.91647 7.57565 8.8721C7.79873 8.82772 8.02995 8.8505 8.24009 8.93754C8.45022 9.02458 8.62983 9.17198 8.75619 9.36109C8.88256 9.55021 8.95 9.77255 8.95 10C8.95 10.305 8.82884 10.5975 8.61318 10.8132C8.39751 11.0288 8.105 11.15 7.8 11.15ZM8.6559 17C8.84502 16.2566 9.27646 15.5974 9.88207 15.1265C10.4877 14.6557 11.2329 14.4001 12 14.4001C12.7671 14.4001 13.5123 14.6557 14.1179 15.1265C14.7235 15.5974 15.155 16.2566 15.3441 17H8.6559ZM16.2 11.15C15.9726 11.15 15.7502 11.0826 15.5611 10.9562C15.372 10.8298 15.2246 10.6502 15.1375 10.4401C15.0505 10.23 15.0277 9.99872 15.0721 9.77565C15.1165 9.55257 15.226 9.34766 15.3868 9.18683C15.5477 9.026 15.7526 8.91647 15.9757 8.8721C16.1987 8.82772 16.43 8.8505 16.6401 8.93754C16.8502 9.02458 17.0298 9.17198 17.1562 9.36109C17.2826 9.55021 17.35 9.77255 17.35 10C17.35 10.151 17.3203 10.3006 17.2625 10.4401C17.2047 10.5796 17.12 10.7064 17.0132 10.8132C16.9064 10.92 16.7796 11.0047 16.6401 11.0625C16.5006 11.1203 16.351 11.15 16.2 11.15Z" fill="black"/>
</svg>
