<svg width="24" height="24" viewBox="0 0 24 24" fill="none" xmlns="http://www.w3.org/2000/svg">
<path d="M15.2 8.85C14.9726 8.85 14.7502 8.91745 14.5611 9.04381C14.372 9.17017 14.2246 9.34978 14.1375 9.55991C14.0505 9.77005 14.0277 10.0013 14.0721 10.2244C14.1165 10.4474 14.226 10.6523 14.3868 10.8132C14.5477 10.974 14.7526 11.0835 14.9757 11.1279C15.1987 11.1723 15.43 11.1495 15.6401 11.0625C15.8502 10.9754 16.0298 10.828 16.1562 10.6389C16.2826 10.4498 16.35 10.2274 16.35 10C16.35 9.84898 16.3203 9.69944 16.2625 9.55991C16.2047 9.42039 16.12 9.29361 16.0132 9.18683C15.9064 9.08004 15.7796 8.99533 15.6401 8.93754C15.5006 8.87975 15.351 8.85 15.2 8.85ZM8.8 8.85C8.57256 8.85 8.35022 8.91745 8.1611 9.04381C7.97198 9.17017 7.82458 9.34978 7.73754 9.55991C7.6505 9.77005 7.62773 10.0013 7.6721 10.2244C7.71647 10.4474 7.826 10.6523 7.98683 10.8132C8.14766 10.974 8.35257 11.0835 8.57565 11.1279C8.79873 11.1723 9.02995 11.1495 9.24009 11.0625C9.45022 10.9754 9.62983 10.828 9.75619 10.6389C9.88256 10.4498 9.95 10.2274 9.95 10C9.95 9.695 9.82884 9.40249 9.61318 9.18683C9.39751 8.97116 9.105 8.85 8.8 8.85ZM12 2C10.0222 2 8.08879 2.58649 6.4443 3.6853C4.79981 4.78412 3.51809 6.3459 2.76121 8.17317C2.00433 10.0004 1.8063 12.0111 2.19215 13.9509C2.578 15.8907 3.53041 17.6725 4.92894 19.0711C6.32746 20.4696 8.10929 21.422 10.0491 21.8079C11.9889 22.1937 13.9996 21.9957 15.8268 21.2388C17.6541 20.4819 19.2159 19.2002 20.3147 17.5557C21.4135 15.9112 22 13.9778 22 12C22 10.6868 21.7413 9.38642 21.2388 8.17317C20.7363 6.95991 19.9997 5.85752 19.0711 4.92893C18.1425 4.00035 17.0401 3.26375 15.8268 2.7612C14.6136 2.25866 13.3132 2 12 2ZM12 20.5C10.3189 20.5 8.67548 20.0015 7.27766 19.0675C5.87984 18.1335 4.79037 16.806 4.14703 15.2528C3.50368 13.6996 3.33536 11.9906 3.66333 10.3417C3.9913 8.69289 4.80085 7.17834 5.9896 5.98959C7.17834 4.80085 8.6929 3.9913 10.3417 3.66333C11.9906 3.33535 13.6996 3.50368 15.2528 4.14702C16.806 4.79037 18.1335 5.87984 19.0675 7.27765C20.0015 8.67547 20.5 10.3189 20.5 12C20.4974 14.2535 19.601 16.414 18.0075 18.0075C16.414 19.601 14.2535 20.4974 12 20.5Z" fill="black"/>
</svg>
