<svg width="24" height="24" viewBox="0 0 24 24" fill="none" xmlns="http://www.w3.org/2000/svg">
<path d="M12.7251 1H11.2751V3.5H12.7251V1ZM6.5024 5.4766L4.7344 3.709L3.709 4.7344L5.4771 6.502L6.5024 5.4766ZM1 12.7246H3.5V11.2754H1V12.7246ZM3.709 19.2656L4.7344 20.291L6.5024 18.5234L5.4771 17.498L3.709 19.2656ZM11.2749 23H12.7249V20.5H11.2749V23ZM17.4976 18.5234L19.2656 20.291L20.291 19.2656L18.5229 17.498L17.4976 18.5234ZM20.5 11.2754V12.7246H23V11.2754H20.5ZM17.4976 5.4766L18.5229 6.502L20.291 4.7344L19.2656 3.709L17.4976 5.4766ZM12 5C10.6155 5 9.26215 5.41054 8.11101 6.17971C6.95986 6.94888 6.06266 8.04213 5.53284 9.32122C5.00303 10.6003 4.86441 12.0078 5.1345 13.3656C5.4046 14.7235 6.07128 15.9708 7.05025 16.9497C8.02922 17.9287 9.2765 18.5954 10.6344 18.8655C11.9922 19.1356 13.3997 18.997 14.6788 18.4672C15.9579 17.9373 17.0511 17.0401 17.8203 15.889C18.5895 14.7378 19 13.3845 19 12C19 10.1435 18.2625 8.36301 16.9497 7.05025C15.637 5.7375 13.8565 5 12 5ZM8.14 10.4062C8.14 10.2298 8.1923 10.0574 8.29029 9.91079C8.38827 9.76415 8.52754 9.64985 8.69048 9.58237C8.85343 9.51488 9.03272 9.49723 9.2057 9.53164C9.37867 9.56606 9.53756 9.65099 9.66226 9.77571C9.78697 9.90042 9.87188 10.0593 9.90628 10.2323C9.94067 10.4053 9.923 10.5846 9.85549 10.7475C9.78799 10.9104 9.67368 11.0497 9.52703 11.1477C9.38038 11.2456 9.20797 11.2979 9.0316 11.2979C8.91451 11.2979 8.79856 11.2748 8.69038 11.23C8.5822 11.1852 8.4839 11.1195 8.40111 11.0367C8.31831 10.9539 8.25264 10.8556 8.20784 10.7474C8.16304 10.6392 8.13999 10.5233 8.14 10.4062ZM12 15.8233C11.3563 15.8221 10.7312 15.6071 10.2231 15.212C9.71488 14.8169 9.3524 14.2641 9.1926 13.6406H14.8074C14.6476 14.2641 14.2851 14.8169 13.7769 15.212C13.2688 15.6071 12.6437 15.8221 12 15.8233ZM14.9688 11.2979C14.7924 11.2979 14.62 11.2456 14.4734 11.1477C14.3267 11.0497 14.2124 10.9104 14.1449 10.7475C14.0774 10.5846 14.0597 10.4053 14.0941 10.2323C14.1285 10.0593 14.2134 9.90042 14.3381 9.77571C14.4628 9.65099 14.6217 9.56606 14.7947 9.53164C14.9677 9.49723 15.147 9.51488 15.3099 9.58237C15.4729 9.64985 15.6121 9.76415 15.7101 9.91079C15.8081 10.0574 15.8604 10.2298 15.8604 10.4062C15.8604 10.6427 15.7665 10.8695 15.5993 11.0367C15.4321 11.2039 15.2053 11.2979 14.9688 11.2979Z" fill="black"/>
</svg>
