<svg width="24" height="24" viewBox="0 0 24 24" fill="none" xmlns="http://www.w3.org/2000/svg">
<path d="M12 2C10.0222 2 8.08879 2.58649 6.4443 3.6853C4.79981 4.78412 3.51809 6.3459 2.76121 8.17317C2.00433 10.0004 1.8063 12.0111 2.19215 13.9509C2.578 15.8907 3.53041 17.6725 4.92894 19.0711C6.32746 20.4696 8.10929 21.422 10.0491 21.8079C11.9889 22.1937 13.9996 21.9957 15.8268 21.2388C17.6541 20.4819 19.2159 19.2002 20.3147 17.5557C21.4135 15.9112 22 13.9778 22 12C22 10.6868 21.7413 9.38642 21.2388 8.17317C20.7363 6.95991 19.9997 5.85752 19.0711 4.92893C18.1425 4.00035 17.0401 3.26375 15.8268 2.7612C14.6136 2.25866 13.3132 2 12 2ZM5.6655 11.1338L6.7993 10L5.6655 8.8662L6.5845 7.9462L7.7188 9.0806L8.853 7.9463L9.772 8.8663L8.6382 10L9.772 11.1338L8.853 12.0538L7.7188 10.9194L6.5845 12.0537L5.6655 11.1338ZM16.1672 17.2488C16.2607 17.3415 16.335 17.4518 16.3858 17.5733C16.4366 17.6948 16.463 17.8251 16.4632 17.9568C16.4635 18.0885 16.4378 18.2189 16.3876 18.3407C16.3373 18.4624 16.2635 18.573 16.1704 18.6661C16.0773 18.7592 15.9667 18.833 15.845 18.8833C15.7233 18.9336 15.5928 18.9593 15.4611 18.959C15.3294 18.9588 15.1991 18.9325 15.0776 18.8817C14.9561 18.8309 14.8458 18.7566 14.7531 18.6631L13.9471 17.8572C13.3312 18.1196 12.6694 18.2571 12 18.2617C10.9384 18.2574 9.90401 17.9254 9.03825 17.311C8.17249 16.6966 7.5176 15.8298 7.1631 14.8291L8.3877 14.3936C8.64883 15.1436 9.13689 15.7936 9.78418 16.2537C10.4315 16.7137 11.2059 16.9609 12 16.9609C12.7941 16.9609 13.5685 16.7137 14.2158 16.2537C14.8631 15.7936 15.3512 15.1436 15.6123 14.3936L16.8369 14.8291C16.5816 15.5401 16.1732 16.1864 15.6406 16.7222L16.1672 17.2488ZM18.3345 11.1338L17.4155 12.0538L16.2812 10.9195L15.147 12.0537L14.228 11.1337L15.3618 10L14.228 8.8662L15.147 7.9462L16.2812 9.0805L17.4155 7.9462L18.3345 8.8662L17.2007 10L18.3345 11.1338Z" fill="black"/>
</svg>
