<svg width="24" height="24" viewBox="0 0 24 24" fill="none" xmlns="http://www.w3.org/2000/svg">
<path d="M12 2C10.0222 2 8.08879 2.58649 6.4443 3.6853C4.79981 4.78412 3.51809 6.3459 2.76121 8.17317C2.00433 10.0004 1.8063 12.0111 2.19215 13.9509C2.578 15.8907 3.53041 17.6725 4.92894 19.0711C6.32746 20.4696 8.10929 21.422 10.0491 21.8079C11.9889 22.1937 13.9996 21.9957 15.8268 21.2388C17.6541 20.4819 19.2159 19.2002 20.3147 17.5557C21.4135 15.9112 22 13.9778 22 12C22 10.6868 21.7413 9.38642 21.2388 8.17317C20.7363 6.95991 19.9997 5.85752 19.0711 4.92893C18.1425 4.00035 17.0401 3.26375 15.8268 2.7612C14.6136 2.25866 13.3132 2 12 2ZM7.1 9.65C7.1 9.472 7.15279 9.29799 7.25168 9.14999C7.35057 9.00198 7.49114 8.88663 7.65559 8.81851C7.82004 8.75039 8.001 8.73257 8.17559 8.76729C8.35017 8.80202 8.51053 8.88774 8.6364 9.0136C8.76227 9.13947 8.84798 9.29984 8.88271 9.47442C8.91744 9.649 8.89961 9.82996 8.8315 9.99442C8.76338 10.1589 8.64802 10.2994 8.50002 10.3983C8.35201 10.4972 8.17801 10.55 8 10.55C7.76131 10.55 7.53239 10.4552 7.36361 10.2864C7.19483 10.1176 7.1 9.88869 7.1 9.65ZM12 16.5C11.2774 16.502 10.5615 16.3606 9.89395 16.0841C9.22635 15.8075 8.62027 15.4012 8.1108 14.8887L8.8179 14.1816C9.23573 14.5996 9.73181 14.9311 10.2778 15.1573C10.8238 15.3836 11.409 15.5 12 15.5C12.591 15.5 13.1762 15.3836 13.7222 15.1573C14.2682 14.9311 14.7643 14.5996 15.1821 14.1816L15.8892 14.8887C15.3797 15.4012 14.7737 15.8075 14.1061 16.0841C13.4385 16.3606 12.7226 16.502 12 16.5ZM16 10.55C15.822 10.55 15.648 10.4972 15.5 10.3983C15.352 10.2994 15.2366 10.1589 15.1685 9.99442C15.1004 9.82996 15.0826 9.649 15.1173 9.47442C15.152 9.29984 15.2377 9.13947 15.3636 9.0136C15.4895 8.88774 15.6498 8.80202 15.8244 8.76729C15.999 8.73257 16.18 8.75039 16.3444 8.81851C16.5089 8.88663 16.6494 9.00198 16.7483 9.14999C16.8472 9.29799 16.9 9.472 16.9 9.65C16.9 9.88869 16.8052 10.1176 16.6364 10.2864C16.4676 10.4552 16.2387 10.55 16 10.55Z" fill="black"/>
</svg>
