<svg width="24" height="24" viewBox="0 0 24 24" fill="none" xmlns="http://www.w3.org/2000/svg">
<path d="M12 2C10.0222 2 8.08879 2.58649 6.4443 3.6853C4.79981 4.78412 3.51809 6.3459 2.76121 8.17317C2.00433 10.0004 1.8063 12.0111 2.19215 13.9509C2.578 15.8907 3.53041 17.6725 4.92894 19.0711C6.32746 20.4696 8.10929 21.422 10.0491 21.8079C11.9889 22.1937 13.9996 21.9957 15.8268 21.2388C17.6541 20.4819 19.2159 19.2002 20.3147 17.5557C21.4135 15.9112 22 13.9778 22 12C22 10.6868 21.7413 9.38642 21.2388 8.17317C20.7363 6.95991 19.9997 5.85752 19.0711 4.92893C18.1425 4.00035 17.0401 3.26375 15.8268 2.7612C14.6136 2.25866 13.3132 2 12 2ZM12 20.5C10.3189 20.5 8.67548 20.0015 7.27766 19.0675C5.87984 18.1335 4.79037 16.806 4.14703 15.2528C3.50368 13.6996 3.33536 11.9906 3.66333 10.3417C3.9913 8.69289 4.80085 7.17834 5.9896 5.98959C7.17834 4.80085 8.6929 3.9913 10.3417 3.66333C11.9906 3.33535 13.6996 3.50368 15.2528 4.14702C16.806 4.79037 18.1335 5.87984 19.0675 7.27765C20.0015 8.67547 20.5 10.3189 20.5 12C20.4974 14.2535 19.601 16.414 18.0075 18.0075C16.414 19.601 14.2535 20.4974 12 20.5ZM15.5417 9.4C15.1174 9.4 14.7104 9.56857 14.4103 9.86863C14.1103 10.1687 13.9417 10.5757 13.9417 11H17.1417C17.1417 10.5757 16.9731 10.1687 16.6731 9.86863C16.373 9.56857 15.9661 9.4 15.5417 9.4ZM8.4583 9.4C8.03396 9.4 7.62699 9.56857 7.32693 9.86863C7.02688 10.1687 6.8583 10.5757 6.8583 11H10.0583C10.0583 10.7899 10.0169 10.5818 9.93651 10.3877C9.8561 10.1936 9.73825 10.0172 9.58968 9.86863C9.4411 9.72006 9.26472 9.6022 9.0706 9.52179C8.87648 9.44138 8.66842 9.4 8.4583 9.4ZM15.5314 15.613C15.9078 15.1798 16.2012 14.681 16.397 14.1416L15.1724 13.7061C14.9432 14.3649 14.5146 14.9359 13.9462 15.3401C13.3777 15.7442 12.6975 15.9613 12 15.9613C11.3025 15.9613 10.6223 15.7442 10.0538 15.3401C9.48536 14.9359 9.05679 14.3649 8.8276 13.7061L7.603 14.1416C7.92527 15.0512 8.52063 15.8391 9.30766 16.3975C10.0947 16.9558 11.035 17.2575 12 17.2612C12.664 17.258 13.3195 17.1113 13.9215 16.8312L14.7531 17.6628C14.8458 17.7563 14.9561 17.8306 15.0776 17.8814C15.1991 17.9322 15.3294 17.9585 15.4611 17.9587C15.5928 17.959 15.7233 17.9333 15.845 17.883C15.9667 17.8327 16.0773 17.7589 16.1704 17.6658C16.2635 17.5727 16.3373 17.4621 16.3876 17.3404C16.4378 17.2186 16.4635 17.0882 16.4632 16.9565C16.463 16.8248 16.4366 16.6945 16.3858 16.573C16.335 16.4515 16.2607 16.3412 16.1672 16.2485L15.5314 15.613Z" fill="black"/>
</svg>
