<svg width="24" height="24" viewBox="0 0 24 24" fill="none" xmlns="http://www.w3.org/2000/svg">
<path d="M12 16.6C12.7668 16.5986 13.5113 16.3425 14.1167 15.8718C14.722 15.4012 15.1538 14.7428 15.3441 14H8.6559C8.84625 14.7428 9.27802 15.4012 9.88335 15.8718C10.4887 16.3425 11.2332 16.5986 12 16.6ZM15.5417 9.4C15.1174 9.4 14.7104 9.56857 14.4103 9.86863C14.1103 10.1687 13.9417 10.5757 13.9417 11H17.1417C17.1417 10.7899 17.1003 10.5818 17.0199 10.3877C16.9395 10.1936 16.8216 10.0172 16.6731 9.86863C16.5245 9.72006 16.3481 9.6022 16.154 9.52179C15.9599 9.44138 15.7518 9.4 15.5417 9.4ZM8.4583 9.4C8.03396 9.4 7.62699 9.56857 7.32693 9.86863C7.02688 10.1687 6.8583 10.5757 6.8583 11H10.0583C10.0583 10.7899 10.0169 10.5818 9.93651 10.3877C9.8561 10.1936 9.73825 10.0172 9.58968 9.86863C9.4411 9.72006 9.26472 9.6022 9.0706 9.52179C8.87648 9.44138 8.66842 9.4 8.4583 9.4ZM12 2C10.0222 2 8.08879 2.58649 6.4443 3.6853C4.79981 4.78412 3.51809 6.3459 2.76121 8.17317C2.00433 10.0004 1.8063 12.0111 2.19215 13.9509C2.578 15.8907 3.53041 17.6725 4.92894 19.0711C6.32746 20.4696 8.10929 21.422 10.0491 21.8079C11.9889 22.1937 13.9996 21.9957 15.8268 21.2388C17.6541 20.4819 19.2159 19.2002 20.3147 17.5557C21.4135 15.9112 22 13.9778 22 12C22 10.6868 21.7413 9.38642 21.2388 8.17317C20.7363 6.95991 19.9997 5.85752 19.0711 4.92893C18.1425 4.00035 17.0401 3.26375 15.8268 2.7612C14.6136 2.25866 13.3132 2 12 2ZM12 20.5C10.3189 20.5 8.67548 20.0015 7.27766 19.0675C5.87984 18.1335 4.79037 16.806 4.14703 15.2528C3.50368 13.6996 3.33536 11.9906 3.66333 10.3417C3.9913 8.69289 4.80085 7.17834 5.9896 5.98959C7.17834 4.80085 8.6929 3.9913 10.3417 3.66333C11.9906 3.33535 13.6996 3.50368 15.2528 4.14702C16.806 4.79037 18.1335 5.87984 19.0675 7.27765C20.0015 8.67547 20.5 10.3189 20.5 12C20.4974 14.2535 19.601 16.414 18.0075 18.0075C16.414 19.601 14.2535 20.4974 12 20.5Z" fill="black"/>
</svg>
