<svg width="24" height="24" viewBox="0 0 24 24" fill="none" xmlns="http://www.w3.org/2000/svg">
<path d="M15.3865 15.94C15.0645 16.246 14.7032 16.5079 14.3122 16.7188L15.2837 17.6906C15.4071 17.8111 15.573 17.8782 15.7455 17.8772C15.918 17.8762 16.0831 17.8072 16.2051 17.6853C16.3271 17.5634 16.3961 17.3983 16.3972 17.2258C16.3983 17.0533 16.3314 16.8874 16.2109 16.7639L15.3865 15.94ZM12 2C10.0222 2 8.08879 2.58649 6.4443 3.6853C4.79981 4.78412 3.51809 6.3459 2.76121 8.17317C2.00433 10.0004 1.8063 12.0111 2.19215 13.9509C2.578 15.8907 3.53041 17.6725 4.92894 19.0711C6.32746 20.4696 8.10929 21.422 10.0491 21.8079C11.9889 22.1937 13.9996 21.9957 15.8268 21.2388C17.6541 20.4819 19.2159 19.2002 20.3147 17.5557C21.4135 15.9112 22 13.9778 22 12C22 10.6868 21.7413 9.38642 21.2388 8.17317C20.7363 6.95991 19.9997 5.85752 19.0711 4.92893C18.1425 4.00035 17.0401 3.26375 15.8268 2.7612C14.6136 2.25866 13.3132 2 12 2ZM5.9482 11.0674L7.3652 9.65L5.9482 8.233L6.3018 7.88L7.7188 9.297L9.1357 7.88L9.4893 8.2335L8.0723 9.65L9.4893 11.067L9.1357 11.4205L7.7188 10.0035L6.3018 11.4205L5.9482 11.0674ZM16.5645 18.0439C16.3476 18.2603 16.0537 18.3818 15.7474 18.3818C15.441 18.3818 15.1471 18.2603 14.9302 18.0439L13.8318 16.9451C13.2335 17.2005 12.5904 17.3344 11.9399 17.3389C10.91 17.3345 9.90655 17.0122 9.06675 16.4159C8.22695 15.8197 7.59176 14.9787 7.248 14.0078L7.7188 13.8398C8.02408 14.716 8.59446 15.4755 9.35083 16.013C10.1072 16.5504 11.0121 16.8392 11.94 16.8392C12.8678 16.8392 13.7727 16.5504 14.5291 16.013C15.2855 15.4755 15.8558 14.716 16.1611 13.8398L16.6318 14.0078C16.425 14.5783 16.116 15.1063 15.7198 15.5659L16.5645 16.4102C16.7809 16.627 16.9024 16.9208 16.9024 17.2271C16.9024 17.5333 16.7809 17.8271 16.5645 18.0439ZM18.0518 11.0674L17.6982 11.4209L16.2812 10.0039L14.8643 11.4209L14.5107 11.0674L15.9277 9.6504L14.5107 8.2334L14.8643 7.8799L16.2812 9.2969L17.6982 7.8799L18.0518 8.2334L16.6348 9.65L18.0518 11.0674Z" fill="black"/>
</svg>
