<svg width="24" height="24" viewBox="0 0 24 24" fill="none" xmlns="http://www.w3.org/2000/svg">
<path d="M12 2C10.0222 2 8.08879 2.58649 6.4443 3.6853C4.79981 4.78412 3.51809 6.3459 2.76121 8.17317C2.00433 10.0004 1.8063 12.0111 2.19215 13.9509C2.578 15.8907 3.53041 17.6725 4.92894 19.0711C6.32746 20.4696 8.10929 21.422 10.0491 21.8079C11.9889 22.1937 13.9996 21.9957 15.8268 21.2388C17.6541 20.4819 19.2159 19.2002 20.3147 17.5557C21.4135 15.9112 22 13.9778 22 12C22 10.6868 21.7413 9.38642 21.2388 8.17317C20.7363 6.95991 19.9997 5.85752 19.0711 4.92893C18.1425 4.00035 17.0401 3.26375 15.8268 2.7612C14.6136 2.25866 13.3132 2 12 2ZM12 21C10.22 21 8.47991 20.4722 6.99987 19.4832C5.51983 18.4943 4.36628 17.0887 3.68509 15.4442C3.0039 13.7996 2.82567 11.99 3.17294 10.2442C3.5202 8.49836 4.37737 6.89471 5.63604 5.63604C6.89472 4.37737 8.49836 3.5202 10.2442 3.17293C11.99 2.82567 13.7996 3.0039 15.4442 3.68508C17.0887 4.36627 18.4943 5.51983 19.4832 6.99987C20.4722 8.47991 21 10.22 21 12C20.9974 14.3861 20.0483 16.6738 18.361 18.361C16.6738 20.0483 14.3861 20.9974 12 21ZM15.5415 8.7061C14.9334 8.70687 14.3503 8.94879 13.9203 9.37882C13.4903 9.80884 13.2484 10.3919 13.2476 11H14.1476C14.1476 10.6304 14.2944 10.2759 14.5558 10.0146C14.8171 9.75323 15.1716 9.6064 15.5412 9.6064C15.9108 9.6064 16.2653 9.75323 16.5266 10.0146C16.788 10.2759 16.9348 10.6304 16.9348 11H17.8348C17.834 10.392 17.5922 9.80903 17.1623 9.37903C16.7324 8.94902 16.1495 8.70703 15.5415 8.7061ZM8.4585 9.6061C8.82805 9.60647 9.18235 9.75346 9.44362 10.0148C9.7049 10.2761 9.85181 10.6305 9.8521 11H10.7521C10.7521 10.3916 10.5104 9.80816 10.0802 9.37797C9.65005 8.94778 9.06658 8.7061 8.4582 8.7061C7.84982 8.7061 7.26636 8.94778 6.83617 9.37797C6.40598 9.80816 6.1643 10.3916 6.1643 11H7.0643C7.06468 10.6304 7.2117 10.2761 7.4731 10.0148C7.7345 9.75349 8.08891 9.60661 8.4585 9.6064V9.6061ZM16.03 15.5923C16.3898 15.1414 16.6729 14.6342 16.8679 14.0913L15.9255 13.7563C15.6374 14.5837 15.099 15.3009 14.3848 15.8085C13.6707 16.316 12.8163 16.5887 11.9402 16.5887C11.064 16.5887 10.2096 16.316 9.49549 15.8085C8.78135 15.3009 8.24288 14.5837 7.9548 13.7563L7.0124 14.0913C7.37343 15.1109 8.04055 15.9941 8.92255 16.6201C9.80456 17.2462 10.8584 17.5845 11.94 17.5889C12.5849 17.5845 13.2232 17.459 13.8218 17.2189L14.7892 18.1862C15.0441 18.4374 15.388 18.5776 15.7458 18.5763C16.1037 18.575 16.4465 18.4322 16.6996 18.1791C16.9526 17.9261 17.0953 17.5832 17.0965 17.2253C17.0978 16.8675 16.9575 16.5236 16.7062 16.2688L16.03 15.5923ZM16.0695 17.5493C15.9841 17.6347 15.8683 17.6827 15.7475 17.6827C15.6267 17.6827 15.5109 17.6347 15.4255 17.5493L14.6704 16.7939C14.9322 16.6328 15.1794 16.4491 15.4091 16.2449L16.0691 16.9049C16.1115 16.9472 16.1451 16.9974 16.168 17.0527C16.1909 17.108 16.2028 17.1672 16.2028 17.2271C16.2028 17.2869 16.191 17.3462 16.1681 17.4015C16.1452 17.4568 16.1116 17.507 16.0693 17.5493H16.0695Z" fill="black"/>
</svg>
