<svg width="24" height="24" viewBox="0 0 24 24" fill="none" xmlns="http://www.w3.org/2000/svg">
<path d="M15.2 11.15C15.4275 11.15 15.6498 11.0826 15.8389 10.9562C16.028 10.8298 16.1754 10.6502 16.2625 10.4401C16.3495 10.23 16.3723 9.99872 16.3279 9.77565C16.2835 9.55257 16.174 9.34766 16.0132 9.18683C15.8523 9.026 15.6474 8.91647 15.4244 8.8721C15.2013 8.82772 14.9701 8.8505 14.7599 8.93754C14.5498 9.02458 14.3702 9.17198 14.2438 9.36109C14.1175 9.55021 14.05 9.77255 14.05 10C14.05 10.305 14.1712 10.5975 14.3868 10.8132C14.6025 11.0288 14.895 11.15 15.2 11.15ZM8.8 11.15C9.02745 11.15 9.24979 11.0826 9.43891 10.9562C9.62803 10.8298 9.77542 10.6502 9.86247 10.4401C9.94951 10.23 9.97228 9.99872 9.92791 9.77565C9.88353 9.55257 9.77401 9.34766 9.61318 9.18683C9.45235 9.026 9.24744 8.91647 9.02436 8.8721C8.80128 8.82772 8.57005 8.8505 8.35992 8.93754C8.14978 9.02458 7.97018 9.17198 7.84381 9.36109C7.71745 9.55021 7.65 9.77255 7.65 10C7.65 10.305 7.77116 10.5975 7.98683 10.8132C8.2025 11.0288 8.49501 11.15 8.8 11.15ZM12 13.25C11.0144 13.2538 10.054 13.5619 9.25011 14.1321C8.44623 14.7024 7.83808 15.507 7.5088 16.436L8.9219 16.939C9.14411 16.2997 9.55988 15.7454 10.1115 15.3531C10.6631 14.9608 11.3231 14.7501 12 14.7501C12.6769 14.7501 13.3369 14.9608 13.8885 15.3531C14.4401 15.7454 14.8559 16.2997 15.0781 16.939L16.4912 16.436C16.1619 15.507 15.5538 14.7024 14.7499 14.1321C13.946 13.5619 12.9856 13.2538 12 13.25ZM12 2C10.0222 2 8.08879 2.58649 6.4443 3.6853C4.79981 4.78412 3.51809 6.3459 2.76121 8.17317C2.00433 10.0004 1.8063 12.0111 2.19215 13.9509C2.578 15.8907 3.53041 17.6725 4.92894 19.0711C6.32746 20.4696 8.10929 21.422 10.0491 21.8079C11.9889 22.1937 13.9996 21.9957 15.8268 21.2388C17.6541 20.4819 19.2159 19.2002 20.3147 17.5557C21.4135 15.9112 22 13.9778 22 12C22 10.6868 21.7413 9.38642 21.2388 8.17317C20.7363 6.95991 19.9997 5.85752 19.0711 4.92893C18.1425 4.00035 17.0401 3.26375 15.8268 2.7612C14.6136 2.25866 13.3132 2 12 2ZM12 20.5C10.3189 20.5 8.67548 20.0015 7.27766 19.0675C5.87984 18.1335 4.79037 16.806 4.14703 15.2528C3.50368 13.6996 3.33536 11.9906 3.66333 10.3417C3.9913 8.69289 4.80085 7.17834 5.9896 5.98959C7.17834 4.80085 8.6929 3.9913 10.3417 3.66333C11.9906 3.33535 13.6996 3.50368 15.2528 4.14702C16.806 4.79037 18.1335 5.87984 19.0675 7.27765C20.0015 8.67547 20.5 10.3189 20.5 12C20.4974 14.2535 19.601 16.414 18.0075 18.0075C16.414 19.601 14.2535 20.4974 12 20.5Z" fill="black"/>
</svg>
