<svg width="24" height="24" viewBox="0 0 24 24" fill="none" xmlns="http://www.w3.org/2000/svg">
<path d="M12 2C10.0222 2 8.08879 2.58649 6.4443 3.6853C4.79981 4.78412 3.51809 6.3459 2.76121 8.17317C2.00433 10.0004 1.8063 12.0111 2.19215 13.9509C2.578 15.8907 3.53041 17.6725 4.92894 19.0711C6.32746 20.4696 8.10929 21.422 10.0491 21.8079C11.9889 22.1937 13.9996 21.9957 15.8268 21.2388C17.6541 20.4819 19.2159 19.2002 20.3147 17.5557C21.4135 15.9112 22 13.9778 22 12C22 10.6868 21.7413 9.38642 21.2388 8.17317C20.7363 6.95991 19.9997 5.85752 19.0711 4.92893C18.1425 4.00035 17.0401 3.26375 15.8268 2.7612C14.6136 2.25866 13.3132 2 12 2ZM12 16.5C11.2774 16.502 10.5615 16.3606 9.89395 16.0841C9.22635 15.8075 8.62027 15.4012 8.1108 14.8887L8.8179 14.1816C9.23573 14.5996 9.73181 14.9311 10.2778 15.1573C10.8238 15.3836 11.409 15.5 12 15.5C12.591 15.5 13.1762 15.3836 13.7222 15.1573C14.2682 14.9311 14.7643 14.5996 15.1821 14.1816L15.8892 14.8887C15.3797 15.4012 14.7737 15.8075 14.1061 16.0841C13.4385 16.3606 12.7226 16.502 12 16.5Z" fill="black"/>
</svg>
