<svg width="24" height="24" viewBox="0 0 24 24" fill="none" xmlns="http://www.w3.org/2000/svg">
<path d="M12 15.94C12.7122 15.9387 13.4038 15.7008 13.966 15.2636C14.5283 14.8265 14.9293 14.2149 15.1061 13.525H8.8939C9.0707 14.2149 9.47174 14.8265 10.034 15.2636C10.5962 15.7008 11.2878 15.9387 12 15.94ZM13.8007 14.325C13.5758 14.5811 13.2988 14.7862 12.9883 14.9268C12.6778 15.0673 12.3408 15.14 12 15.14C11.6592 15.14 11.3222 15.0673 11.0117 14.9268C10.7012 14.7862 10.4242 14.5811 10.1993 14.325H13.8007ZM12 5C10.6155 5 9.26215 5.41054 8.11101 6.17971C6.95986 6.94888 6.06266 8.04213 5.53284 9.32122C5.00303 10.6003 4.86441 12.0078 5.1345 13.3656C5.4046 14.7235 6.07128 15.9708 7.05025 16.9497C8.02922 17.9287 9.2765 18.5954 10.6344 18.8655C11.9922 19.1356 13.3997 18.997 14.6788 18.4672C15.9579 17.9373 17.0511 17.0401 17.8203 15.889C18.5895 14.7378 19 13.3845 19 12C19 10.1435 18.2625 8.36301 16.9497 7.05025C15.637 5.7375 13.8565 5 12 5ZM12 18C10.8133 18 9.65327 17.6481 8.66658 16.9888C7.67988 16.3295 6.91085 15.3925 6.45672 14.2961C6.0026 13.1997 5.88378 11.9933 6.11529 10.8295C6.3468 9.66557 6.91824 8.59647 7.75736 7.75736C8.59647 6.91824 9.66557 6.3468 10.8295 6.11529C11.9933 5.88378 13.1997 6.0026 14.2961 6.45672C15.3925 6.91085 16.3295 7.67988 16.9888 8.66658C17.6481 9.65327 18 10.8133 18 12C17.9982 13.5907 17.3655 15.1158 16.2407 16.2407C15.1158 17.3655 13.5907 17.9982 12 18ZM12.5 1H11.5V3.5H12.5V1ZM6.3433 5.6362L4.5752 3.8682L3.8682 4.5752L5.6362 6.3433L6.3433 5.6362ZM1 12.5H3.5V11.5H1V12.5ZM3.8682 19.4248L4.5752 20.1318L6.3433 18.3638L5.6362 17.6567L3.8682 19.4248ZM11.5 23H12.5V20.5H11.5V23ZM17.6567 18.3638L19.4248 20.1318L20.1318 19.4248L18.3638 17.6567L17.6567 18.3638ZM20.5 11.5V12.5H23V11.5H20.5ZM17.6567 5.6362L18.3638 6.3433L20.1318 4.5752L19.4248 3.8682L17.6567 5.6362ZM14.9688 9.8875C14.8435 9.88748 14.721 9.92461 14.6169 9.99421C14.5127 10.0638 14.4315 10.1627 14.3835 10.2785C14.3356 10.3942 14.323 10.5216 14.3475 10.6444C14.3719 10.7673 14.4322 10.8802 14.5208 10.9688C14.6094 11.0574 14.7223 11.1177 14.8452 11.1421C14.968 11.1666 15.0954 11.154 15.2111 11.1061C15.3269 11.0581 15.4258 10.9769 15.4954 10.8727C15.565 10.7686 15.6021 10.6461 15.6021 10.5208C15.6021 10.3528 15.5353 10.1918 15.4166 10.073C15.2978 9.95426 15.1368 9.88753 14.9688 9.8875ZM9.6646 10.5208C9.6646 10.3955 9.62745 10.2731 9.55785 10.1689C9.48825 10.0647 9.38933 9.98355 9.27359 9.93561C9.15785 9.88767 9.0305 9.87513 8.90763 9.89957C8.78476 9.92401 8.6719 9.98434 8.58332 10.0729C8.49474 10.1615 8.43441 10.2744 8.40997 10.3972C8.38553 10.5201 8.39807 10.6475 8.44601 10.7632C8.49396 10.8789 8.57514 10.9779 8.6793 11.0475C8.78346 11.1171 8.90593 11.1542 9.0312 11.1542C9.19919 11.1542 9.3603 11.0875 9.47908 10.9687C9.59787 10.8499 9.6646 10.6888 9.6646 10.5208Z" fill="black"/>
</svg>
