<svg width="24" height="24" viewBox="0 0 24 24" fill="none" xmlns="http://www.w3.org/2000/svg">
<path d="M12 2C10.0222 2 8.08879 2.58649 6.4443 3.6853C4.79981 4.78412 3.51809 6.3459 2.76121 8.17317C2.00433 10.0004 1.8063 12.0111 2.19215 13.9509C2.578 15.8907 3.53041 17.6725 4.92894 19.0711C6.32746 20.4696 8.10929 21.422 10.0491 21.8079C11.9889 22.1937 13.9996 21.9957 15.8268 21.2388C17.6541 20.4819 19.2159 19.2002 20.3147 17.5557C21.4135 15.9112 22 13.9778 22 12C22 10.6868 21.7413 9.38642 21.2388 8.17317C20.7363 6.95991 19.9997 5.85752 19.0711 4.92893C18.1425 4.00035 17.0401 3.26375 15.8268 2.7612C14.6136 2.25866 13.3132 2 12 2ZM5.5947 11.0635L6.6582 10L5.5947 8.9365L6.6553 7.876L7.7188 8.94L8.7822 7.876L9.8428 8.9365L8.7793 10L9.8428 11.0635L8.7822 12.124L7.7188 11.0605L6.6553 12.124L5.5947 11.0635ZM8.1414 18C8.35962 17.1422 8.85745 16.3816 9.55623 15.8383C10.255 15.295 11.1149 15.0001 12 15.0001C12.8851 15.0001 13.745 15.295 14.4438 15.8383C15.1426 16.3816 15.6404 17.1422 15.8586 18H8.1414ZM18.4053 11.0635L17.3447 12.124L16.2812 11.0605L15.2178 12.124L14.1572 11.0635L15.2207 10L14.1572 8.9365L15.2178 7.876L16.2812 8.94L17.3447 7.876L18.4053 8.9365L17.3418 10L18.4053 11.0635Z" fill="black"/>
</svg>
