<svg width="24" height="24" viewBox="0 0 24 24" fill="none" xmlns="http://www.w3.org/2000/svg">
<path d="M12 2C10.0222 2 8.08879 2.58649 6.4443 3.6853C4.79981 4.78412 3.51809 6.3459 2.76121 8.17317C2.00433 10.0004 1.8063 12.0111 2.19215 13.9509C2.578 15.8907 3.53041 17.6725 4.92894 19.0711C6.32746 20.4696 8.10929 21.422 10.0491 21.8079C11.9889 22.1937 13.9996 21.9957 15.8268 21.2388C17.6541 20.4819 19.2159 19.2002 20.3147 17.5557C21.4135 15.9112 22 13.9778 22 12C22 10.6868 21.7413 9.38642 21.2388 8.17317C20.7363 6.95991 19.9997 5.85752 19.0711 4.92893C18.1425 4.00035 17.0401 3.26375 15.8268 2.7612C14.6136 2.25866 13.3132 2 12 2ZM12 17.75C11.2446 17.752 10.4962 17.6042 9.79828 17.315C9.10036 17.0259 8.46674 16.6011 7.9341 16.0654L8.9946 15.0049C9.38926 15.3996 9.8578 15.7127 10.3735 15.9263C10.8891 16.1399 11.4418 16.2499 12 16.2499C12.5582 16.2499 13.1109 16.1399 13.6265 15.9263C14.1422 15.7127 14.6107 15.3996 15.0054 15.0049L16.0654 16.0654C15.5328 16.6011 14.8993 17.0258 14.2015 17.3149C13.5036 17.6041 12.7554 17.752 12 17.75Z" fill="black"/>
</svg>
