<svg width="24" height="24" viewBox="0 0 24 24" fill="none" xmlns="http://www.w3.org/2000/svg">
<path d="M16.6982 7.8794L15.2812 9.2964L13.8643 7.8794L13.5107 8.2329L14.9277 9.6499L13.5107 11.0669L13.8643 11.4204L15.2812 10.0034L16.6982 11.4204L17.0518 11.0669L15.6348 9.65L17.0518 8.233L16.6982 7.8794ZM10.1357 11.42L10.4893 11.0665L9.0723 9.65L10.4893 8.233L10.1357 7.8795L8.7188 9.2964L7.3018 7.8794L6.9482 8.2329L8.3652 9.65L6.9482 11.067L7.3018 11.4205L8.7188 10.0035L10.1357 11.42ZM12 13C10.9678 13.0018 9.96552 13.3466 9.15066 13.9802C8.3358 14.6137 7.75459 15.5001 7.4984 16.5H16.5017C16.2455 15.5001 15.6643 14.6137 14.8494 13.9802C14.0345 13.3466 13.0322 13.0018 12 13ZM8.1979 16C8.51837 15.2576 9.04917 14.6253 9.72482 14.181C10.4005 13.7367 11.1914 13.5 12 13.5C12.8086 13.5 13.5995 13.7367 14.2752 14.181C14.9508 14.6253 15.4816 15.2576 15.8021 16H8.1979ZM12 2C10.0222 2 8.08879 2.58649 6.4443 3.6853C4.79981 4.78412 3.51809 6.3459 2.76121 8.17317C2.00433 10.0004 1.8063 12.0111 2.19215 13.9509C2.578 15.8907 3.53041 17.6725 4.92894 19.0711C6.32746 20.4696 8.10929 21.422 10.0491 21.8079C11.9889 22.1937 13.9996 21.9957 15.8268 21.2388C17.6541 20.4819 19.2159 19.2002 20.3147 17.5557C21.4135 15.9112 22 13.9778 22 12C22 10.6868 21.7413 9.38642 21.2388 8.17317C20.7363 6.95991 19.9997 5.85752 19.0711 4.92893C18.1425 4.00035 17.0401 3.26375 15.8268 2.7612C14.6136 2.25866 13.3132 2 12 2ZM12 21.5C10.1211 21.5 8.28435 20.9428 6.72209 19.899C5.15982 18.8551 3.94218 17.3714 3.22315 15.6355C2.50412 13.8996 2.31598 11.9895 2.68254 10.1466C3.0491 8.30382 3.95389 6.61108 5.28249 5.28249C6.61109 3.95389 8.30383 3.0491 10.1466 2.68254C11.9895 2.31598 13.8996 2.50411 15.6355 3.22314C17.3714 3.94218 18.8551 5.15982 19.899 6.72208C20.9428 8.28435 21.5 10.1211 21.5 12C21.4971 14.5187 20.4953 16.9334 18.7144 18.7144C16.9334 20.4953 14.5187 21.4971 12 21.5Z" fill="black"/>
</svg>
