<svg width="24" height="24" viewBox="0 0 24 24" fill="none" xmlns="http://www.w3.org/2000/svg">
<path d="M15 8.75C14.822 8.75 14.648 8.80278 14.5 8.90168C14.352 9.00057 14.2366 9.14113 14.1685 9.30558C14.1004 9.47004 14.0826 9.651 14.1173 9.82558C14.152 10.0002 14.2377 10.1605 14.3636 10.2864C14.4895 10.4123 14.6498 10.498 14.8244 10.5327C14.999 10.5674 15.18 10.5496 15.3444 10.4815C15.5089 10.4134 15.6494 10.298 15.7483 10.15C15.8472 10.002 15.9 9.828 15.9 9.65C15.9 9.4113 15.8052 9.18239 15.6364 9.0136C15.4676 8.84482 15.2387 8.75 15 8.75ZM9 8.75C8.822 8.75 8.64799 8.80278 8.49999 8.90168C8.35199 9.00057 8.23663 9.14113 8.16851 9.30558C8.10039 9.47004 8.08257 9.651 8.1173 9.82558C8.15202 10.0002 8.23774 10.1605 8.36361 10.2864C8.48948 10.4123 8.64984 10.498 8.82442 10.5327C8.99901 10.5674 9.17997 10.5496 9.34442 10.4815C9.50887 10.4134 9.64943 10.298 9.74833 10.15C9.84722 10.002 9.9 9.828 9.9 9.65C9.9 9.4113 9.80518 9.18239 9.6364 9.0136C9.46762 8.84482 9.2387 8.75 9 8.75ZM12 2C10.0222 2 8.08879 2.58649 6.4443 3.6853C4.79981 4.78412 3.51809 6.3459 2.76121 8.17317C2.00433 10.0004 1.8063 12.0111 2.19215 13.9509C2.578 15.8907 3.53041 17.6725 4.92894 19.0711C6.32746 20.4696 8.10929 21.422 10.0491 21.8079C11.9889 22.1937 13.9996 21.9957 15.8268 21.2388C17.6541 20.4819 19.2159 19.2002 20.3147 17.5557C21.4135 15.9112 22 13.9778 22 12C22 10.6868 21.7413 9.38642 21.2388 8.17317C20.7363 6.95991 19.9997 5.85752 19.0711 4.92893C18.1425 4.00035 17.0401 3.26375 15.8268 2.7612C14.6136 2.25866 13.3132 2 12 2ZM12 21C10.22 21 8.47991 20.4722 6.99987 19.4832C5.51983 18.4943 4.36628 17.0887 3.68509 15.4442C3.0039 13.7996 2.82567 11.99 3.17294 10.2442C3.5202 8.49836 4.37737 6.89471 5.63604 5.63604C6.89472 4.37737 8.49836 3.5202 10.2442 3.17293C11.99 2.82567 13.7996 3.0039 15.4442 3.68508C17.0887 4.36627 18.4943 5.51983 19.4832 6.99987C20.4722 8.47991 21 10.22 21 12C20.9974 14.3861 20.0483 16.6738 18.361 18.361C16.6738 20.0483 14.3861 20.9974 12 21Z" fill="black"/>
</svg>
