<svg width="24" height="24" viewBox="0 0 24 24" fill="none" xmlns="http://www.w3.org/2000/svg">
<path d="M12 2C10.0222 2 8.08879 2.58649 6.4443 3.6853C4.79981 4.78412 3.51809 6.3459 2.76121 8.17317C2.00433 10.0004 1.8063 12.0111 2.19215 13.9509C2.578 15.8907 3.53041 17.6725 4.92894 19.0711C6.32746 20.4696 8.10929 21.422 10.0491 21.8079C11.9889 22.1937 13.9996 21.9957 15.8268 21.2388C17.6541 20.4819 19.2159 19.2002 20.3147 17.5557C21.4135 15.9112 22 13.9778 22 12C22 10.6868 21.7413 9.38642 21.2388 8.17317C20.7363 6.95991 19.9997 5.85752 19.0711 4.92893C18.1425 4.00035 17.0401 3.26375 15.8268 2.7612C14.6136 2.25866 13.3132 2 12 2ZM8 15.35C7.733 15.35 7.47199 15.2708 7.24998 15.1225C7.02798 14.9741 6.85495 14.7633 6.75277 14.5166C6.65059 14.2699 6.62385 13.9985 6.67594 13.7366C6.72803 13.4748 6.85661 13.2342 7.04541 13.0454C7.23421 12.8566 7.47476 12.728 7.73663 12.6759C7.99851 12.6238 8.26995 12.6506 8.51663 12.7528C8.76331 12.8549 8.97415 13.028 9.12249 13.25C9.27083 13.472 9.35 13.733 9.35 14C9.35 14.358 9.20777 14.7014 8.9546 14.9546C8.70142 15.2078 8.35805 15.35 8 15.35ZM9.1719 9.1719L7.7568 7.7578C8.31398 7.20048 8.97548 6.75838 9.70354 6.45676C10.4316 6.15513 11.2119 5.99988 12 5.99988C12.7881 5.99988 13.5684 6.15513 14.2965 6.45676C15.0245 6.75838 15.686 7.20048 16.2432 7.7578L14.8281 9.1719C14.0664 8.4442 13.0535 8.03812 12 8.03812C10.9465 8.03812 9.93363 8.4442 9.1719 9.1719ZM16 15.35C15.733 15.35 15.472 15.2708 15.25 15.1225C15.028 14.9741 14.8549 14.7633 14.7528 14.5166C14.6506 14.2699 14.6239 13.9985 14.6759 13.7366C14.728 13.4748 14.8566 13.2342 15.0454 13.0454C15.2342 12.8566 15.4748 12.728 15.7366 12.6759C15.9985 12.6238 16.2699 12.6506 16.5166 12.7528C16.7633 12.8549 16.9741 13.028 17.1225 13.25C17.2708 13.472 17.35 13.733 17.35 14C17.35 14.358 17.2078 14.7014 16.9546 14.9546C16.7014 15.2078 16.358 15.35 16 15.35Z" fill="black"/>
</svg>
