<svg width="24" height="24" viewBox="0 0 24 24" fill="none" xmlns="http://www.w3.org/2000/svg">
<path d="M12 2C10.0222 2 8.08879 2.58649 6.4443 3.6853C4.79981 4.78412 3.51809 6.3459 2.76121 8.17317C2.00433 10.0004 1.8063 12.0111 2.19215 13.9509C2.578 15.8907 3.53041 17.6725 4.92894 19.0711C6.32746 20.4696 8.10929 21.422 10.0491 21.8079C11.9889 22.1937 13.9996 21.9957 15.8268 21.2388C17.6541 20.4819 19.2159 19.2002 20.3147 17.5557C21.4135 15.9112 22 13.9778 22 12C22 10.6868 21.7413 9.38642 21.2388 8.17317C20.7363 6.95991 19.9997 5.85752 19.0711 4.92893C18.1425 4.00035 17.0401 3.26375 15.8268 2.7612C14.6136 2.25866 13.3132 2 12 2ZM6.65 10C6.65 9.733 6.72918 9.47199 6.87752 9.24998C7.02586 9.02797 7.2367 8.85494 7.48338 8.75276C7.73006 8.65058 8.0015 8.62385 8.26338 8.67594C8.52525 8.72803 8.7658 8.8566 8.9546 9.04541C9.1434 9.23421 9.27197 9.47475 9.32406 9.73663C9.37615 9.9985 9.34942 10.2699 9.24724 10.5166C9.14506 10.7633 8.97203 10.9741 8.75002 11.1225C8.52802 11.2708 8.26701 11.35 8 11.35C7.64196 11.35 7.29858 11.2078 7.04541 10.9546C6.79224 10.7014 6.65 10.358 6.65 10ZM14.8423 18.0225C14.6374 17.4318 14.2536 16.9196 13.7443 16.5572C13.2349 16.1947 12.6252 15.9999 12 15.9999C11.3748 15.9999 10.7651 16.1947 10.2558 16.5572C9.74637 16.9196 9.36257 17.4318 9.1577 18.0225L7.2729 17.3525C7.61623 16.3727 8.25553 15.5238 9.10238 14.9232C9.94924 14.3226 10.9618 14 12 14C13.0382 14 14.0508 14.3226 14.8976 14.9232C15.7445 15.5238 16.3838 16.3727 16.7271 17.3525L14.8423 18.0225ZM16 11.35C15.733 11.35 15.472 11.2708 15.25 11.1225C15.028 10.9741 14.8549 10.7633 14.7528 10.5166C14.6506 10.2699 14.6239 9.9985 14.6759 9.73663C14.728 9.47475 14.8566 9.23421 15.0454 9.04541C15.2342 8.8566 15.4748 8.72803 15.7366 8.67594C15.9985 8.62385 16.2699 8.65058 16.5166 8.75276C16.7633 8.85494 16.9741 9.02797 17.1225 9.24998C17.2708 9.47199 17.35 9.733 17.35 10C17.35 10.358 17.2078 10.7014 16.9546 10.9546C16.7014 11.2078 16.358 11.35 16 11.35Z" fill="black"/>
</svg>
