<svg width="24" height="24" viewBox="0 0 24 24" fill="none" xmlns="http://www.w3.org/2000/svg">
<path d="M8.8 12.85C8.57256 12.85 8.35022 12.9174 8.1611 13.0438C7.97198 13.1702 7.82458 13.3498 7.73754 13.5599C7.6505 13.77 7.62773 14.0013 7.6721 14.2244C7.71647 14.4474 7.826 14.6523 7.98683 14.8132C8.14766 14.974 8.35257 15.0835 8.57565 15.1279C8.79873 15.1723 9.02995 15.1495 9.24009 15.0625C9.45022 14.9754 9.62983 14.828 9.75619 14.6389C9.88256 14.4498 9.95 14.2274 9.95 14C9.95 13.695 9.82884 13.4025 9.61318 13.1868C9.39751 12.9712 9.105 12.85 8.8 12.85ZM15.2 12.85C14.9726 12.85 14.7502 12.9174 14.5611 13.0438C14.372 13.1702 14.2246 13.3498 14.1375 13.5599C14.0505 13.77 14.0277 14.0013 14.0721 14.2244C14.1165 14.4474 14.226 14.6523 14.3868 14.8132C14.5477 14.974 14.7526 15.0835 14.9757 15.1279C15.1987 15.1723 15.43 15.1495 15.6401 15.0625C15.8502 14.9754 16.0298 14.828 16.1562 14.6389C16.2826 14.4498 16.35 14.2274 16.35 14C16.35 13.849 16.3203 13.6994 16.2625 13.5599C16.2047 13.4204 16.12 13.2936 16.0132 13.1868C15.9064 13.08 15.7796 12.9953 15.6401 12.9375C15.5006 12.8797 15.351 12.85 15.2 12.85ZM16.0659 8.9341C15.532 8.40015 14.8981 7.9766 14.2005 7.68763C13.5028 7.39866 12.7551 7.24993 12 7.24993C11.2449 7.24993 10.4972 7.39866 9.79955 7.68763C9.10192 7.9766 8.46804 8.40015 7.9341 8.9341L8.9946 9.9941C9.79177 9.19717 10.8728 8.74948 12 8.74948C13.1272 8.74948 14.2082 9.19717 15.0054 9.9941L16.0659 8.9341ZM12 2C10.0222 2 8.08879 2.58649 6.4443 3.6853C4.79981 4.78412 3.51809 6.3459 2.76121 8.17317C2.00433 10.0004 1.8063 12.0111 2.19215 13.9509C2.578 15.8907 3.53041 17.6725 4.92894 19.0711C6.32746 20.4696 8.10929 21.422 10.0491 21.8079C11.9889 22.1937 13.9996 21.9957 15.8268 21.2388C17.6541 20.4819 19.2159 19.2002 20.3147 17.5557C21.4135 15.9112 22 13.9778 22 12C22 10.6868 21.7413 9.38642 21.2388 8.17317C20.7363 6.95991 19.9997 5.85752 19.0711 4.92893C18.1425 4.00035 17.0401 3.26375 15.8268 2.7612C14.6136 2.25866 13.3132 2 12 2ZM12 20.5C10.3189 20.5 8.67548 20.0015 7.27766 19.0675C5.87984 18.1335 4.79037 16.806 4.14703 15.2528C3.50368 13.6996 3.33536 11.9906 3.66333 10.3417C3.9913 8.69289 4.80085 7.17834 5.9896 5.98959C7.17834 4.80085 8.6929 3.9913 10.3417 3.66333C11.9906 3.33535 13.6996 3.50368 15.2528 4.14702C16.806 4.79037 18.1335 5.87984 19.0675 7.27765C20.0015 8.67547 20.5 10.3189 20.5 12C20.4974 14.2535 19.601 16.414 18.0075 18.0075C16.414 19.601 14.2535 20.4974 12 20.5Z" fill="black"/>
</svg>
