<svg width="24" height="24" viewBox="0 0 24 24" fill="none" xmlns="http://www.w3.org/2000/svg">
<path d="M12 2C10.0222 2 8.08879 2.58649 6.4443 3.6853C4.79981 4.78412 3.51809 6.3459 2.76121 8.17317C2.00433 10.0004 1.8063 12.0111 2.19215 13.9509C2.578 15.8907 3.53041 17.6725 4.92894 19.0711C6.32746 20.4696 8.10929 21.422 10.0491 21.8079C11.9889 22.1937 13.9996 21.9957 15.8268 21.2388C17.6541 20.4819 19.2159 19.2002 20.3147 17.5557C21.4135 15.9112 22 13.9778 22 12C22 10.6868 21.7413 9.38642 21.2388 8.17317C20.7363 6.95991 19.9997 5.85752 19.0711 4.92893C18.1425 4.00035 17.0401 3.26375 15.8268 2.7612C14.6136 2.25866 13.3132 2 12 2ZM12 16.25C11.3102 16.252 10.6269 16.1171 9.98962 15.8531C9.35236 15.5891 8.77384 15.2012 8.2876 14.7119L8.6411 14.3584C9.08215 14.7996 9.6058 15.1496 10.1821 15.3883C10.7585 15.6271 11.3762 15.75 12 15.75C12.6238 15.75 13.2416 15.6271 13.8179 15.3883C14.3942 15.1496 14.9179 14.7996 15.3589 14.3584L15.7124 14.7119C15.2262 15.2012 14.6477 15.5891 14.0104 15.8531C13.3731 16.1171 12.6898 16.252 12 16.25Z" fill="black"/>
</svg>
