<svg width="24" height="24" viewBox="0 0 24 24" fill="none" xmlns="http://www.w3.org/2000/svg">
<path d="M12 17.5C13.0322 17.4982 14.0345 17.1534 14.8494 16.5198C15.6643 15.8863 16.2455 14.9999 16.5017 14H7.4983C7.75453 14.9999 8.33576 15.8863 9.15063 16.5198C9.96551 17.1534 10.9678 17.4982 12 17.5ZM15.1331 14.9C14.7938 15.4219 14.3294 15.8507 13.7823 16.1476C13.2351 16.4445 12.6225 16.6 12 16.6C11.3775 16.6 10.7649 16.4445 10.2177 16.1476C9.67057 15.8507 9.20624 15.4219 8.8669 14.9H15.1331ZM15 10.55C15.178 10.55 15.352 10.4972 15.5 10.3983C15.648 10.2994 15.7634 10.1589 15.8315 9.99442C15.8996 9.82996 15.9174 9.649 15.8827 9.47442C15.848 9.29984 15.7623 9.13947 15.6364 9.0136C15.5105 8.88774 15.3502 8.80202 15.1756 8.76729C15.001 8.73257 14.82 8.75039 14.6556 8.81851C14.4911 8.88663 14.3506 9.00198 14.2517 9.14999C14.1528 9.29799 14.1 9.472 14.1 9.65C14.1 9.88869 14.1948 10.1176 14.3636 10.2864C14.5324 10.4552 14.7613 10.55 15 10.55ZM9 10.55C9.17801 10.55 9.35201 10.4972 9.50002 10.3983C9.64802 10.2994 9.76338 10.1589 9.8315 9.99442C9.89961 9.82996 9.91744 9.649 9.88271 9.47442C9.84798 9.29984 9.76227 9.13947 9.6364 9.0136C9.51053 8.88774 9.35017 8.80202 9.17559 8.76729C9.001 8.73257 8.82004 8.75039 8.65559 8.81851C8.49114 8.88663 8.35057 9.00198 8.25168 9.14999C8.15279 9.29799 8.1 9.472 8.1 9.65C8.1 9.88869 8.19483 10.1176 8.36361 10.2864C8.53239 10.4552 8.76131 10.55 9 10.55ZM12 2C10.0222 2 8.08879 2.58649 6.4443 3.6853C4.79981 4.78412 3.51809 6.3459 2.76121 8.17317C2.00433 10.0004 1.8063 12.0111 2.19215 13.9509C2.578 15.8907 3.53041 17.6725 4.92894 19.0711C6.32746 20.4696 8.10929 21.422 10.0491 21.8079C11.9889 22.1937 13.9996 21.9957 15.8268 21.2388C17.6541 20.4819 19.2159 19.2002 20.3147 17.5557C21.4135 15.9112 22 13.9778 22 12C22 10.6868 21.7413 9.38642 21.2388 8.17317C20.7363 6.95991 19.9997 5.85752 19.0711 4.92893C18.1425 4.00035 17.0401 3.26375 15.8268 2.7612C14.6136 2.25866 13.3132 2 12 2ZM12 21C10.22 21 8.47991 20.4722 6.99987 19.4832C5.51983 18.4943 4.36628 17.0887 3.68509 15.4442C3.0039 13.7996 2.82567 11.99 3.17294 10.2442C3.5202 8.49836 4.37737 6.89471 5.63604 5.63604C6.89472 4.37737 8.49836 3.5202 10.2442 3.17293C11.99 2.82567 13.7996 3.0039 15.4442 3.68508C17.0887 4.36627 18.4943 5.51983 19.4832 6.99987C20.4722 8.47991 21 10.22 21 12C20.9974 14.3861 20.0483 16.6738 18.361 18.361C16.6738 20.0483 14.3861 20.9974 12 21Z" fill="black"/>
</svg>
