<svg width="24" height="24" viewBox="0 0 24 24" fill="none" xmlns="http://www.w3.org/2000/svg">
<path d="M12.5 1H11.5V3.5H12.5V1ZM6.3433 5.6357L4.5752 3.8682L3.8682 4.5752L5.6362 6.3428L6.3433 5.6357ZM1 12.5H3.5V11.5H1V12.5ZM3.8682 19.4248L4.5752 20.1318L6.3433 18.3643L5.6362 17.6572L3.8682 19.4248ZM11.5 23H12.5V20.5H11.5V23ZM17.6567 18.3643L19.4248 20.1318L20.1318 19.4248L18.3638 17.6572L17.6567 18.3643ZM20.5 11.5V12.5H23V11.5H20.5ZM17.6567 5.6357L18.3638 6.3428L20.1318 4.5752L19.4248 3.8682L17.6567 5.6357ZM12 5C10.6155 5 9.26215 5.41054 8.11101 6.17971C6.95986 6.94888 6.06266 8.04213 5.53284 9.32122C5.00303 10.6003 4.86441 12.0078 5.1345 13.3656C5.4046 14.7235 6.07128 15.9708 7.05025 16.9497C8.02922 17.9287 9.2765 18.5954 10.6344 18.8655C11.9922 19.1356 13.3997 18.997 14.6788 18.4672C15.9579 17.9373 17.0511 17.0401 17.8203 15.889C18.5895 14.7378 19 13.3845 19 12C19 10.1435 18.2625 8.36301 16.9497 7.05025C15.637 5.7375 13.8565 5 12 5ZM8.2651 10.375C8.26508 10.2497 8.30221 10.1272 8.37181 10.0231C8.4414 9.91889 8.54032 9.83769 8.65606 9.78973C8.7718 9.74178 8.89917 9.72923 9.02205 9.75367C9.14492 9.7781 9.25779 9.83843 9.34638 9.92702C9.43497 10.0156 9.4953 10.1285 9.51973 10.2514C9.54417 10.3742 9.53162 10.5016 9.48367 10.6173C9.43571 10.7331 9.35451 10.832 9.25034 10.9016C9.14616 10.9712 9.02368 11.0083 8.8984 11.0083C8.73044 11.0083 8.56936 10.9416 8.45059 10.8228C8.33182 10.704 8.2651 10.543 8.2651 10.375ZM12 15.8233C11.3563 15.8221 10.7312 15.6071 10.2231 15.212C9.71488 14.8169 9.3524 14.2641 9.1926 13.6406H14.8074C14.6476 14.2641 14.2851 14.8169 13.7769 15.212C13.2688 15.6071 12.6437 15.8221 12 15.8233ZM15.1016 11.0083C14.9763 11.0083 14.8538 10.9712 14.7497 10.9016C14.6455 10.832 14.5643 10.7331 14.5163 10.6173C14.4684 10.5016 14.4558 10.3742 14.4803 10.2514C14.5047 10.1285 14.565 10.0156 14.6536 9.92702C14.7422 9.83843 14.8551 9.7781 14.978 9.75367C15.1008 9.72923 15.2282 9.74178 15.3439 9.78973C15.4597 9.83769 15.5586 9.91889 15.6282 10.0231C15.6978 10.1272 15.7349 10.2497 15.7349 10.375C15.7349 10.543 15.6682 10.704 15.5494 10.8228C15.4306 10.9416 15.2696 11.0083 15.1016 11.0083Z" fill="black"/>
</svg>
