<svg width="24" height="24" viewBox="0 0 24 24" fill="none" xmlns="http://www.w3.org/2000/svg">
<path d="M12 2C10.0222 2 8.08879 2.58649 6.4443 3.6853C4.79981 4.78412 3.51809 6.3459 2.76121 8.17317C2.00433 10.0004 1.8063 12.0111 2.19215 13.9509C2.578 15.8907 3.53041 17.6725 4.92894 19.0711C6.32746 20.4696 8.10929 21.422 10.0491 21.8079C11.9889 22.1937 13.9996 21.9957 15.8268 21.2388C17.6541 20.4819 19.2159 19.2002 20.3147 17.5557C21.4135 15.9112 22 13.9778 22 12C22 10.6868 21.7413 9.38642 21.2388 8.17317C20.7363 6.95991 19.9997 5.85752 19.0711 4.92893C18.1425 4.00035 17.0401 3.26375 15.8268 2.7612C14.6136 2.25866 13.3132 2 12 2ZM5.5947 11.0635L6.6582 10L5.5947 8.9365L6.6553 7.876L7.7188 8.94L8.7822 7.876L9.8428 8.9365L8.7793 10L9.8428 11.0635L8.7822 12.124L7.7188 11.0605L6.6553 12.124L5.5947 11.0635ZM16.4891 17.3862C16.7011 17.5983 16.8202 17.8858 16.8201 18.1857C16.8201 18.4855 16.701 18.7731 16.4889 18.9851C16.2768 19.1971 15.9893 19.3162 15.6894 19.3161C15.3896 19.3161 15.102 19.197 14.89 18.9849L13.9684 18.0632C13.3439 18.3211 12.6756 18.4561 12 18.4609C10.8972 18.4567 9.82265 18.1121 8.92315 17.4741C8.02365 16.8361 7.34313 15.9359 6.9746 14.8965L8.5762 14.3265C8.82318 15.0378 9.28558 15.6546 9.89916 16.091C10.5127 16.5275 11.247 16.762 12 16.762C12.753 16.762 13.4873 16.5275 14.1009 16.091C14.7144 15.6546 15.1768 15.0378 15.4238 14.3265L17.0254 14.8965C16.7735 15.593 16.3796 16.2296 15.8687 16.7658L16.4891 17.3862ZM18.4053 11.0635L17.3447 12.124L16.2812 11.0605L15.2178 12.124L14.1572 11.0635L15.2207 10L14.1572 8.9365L15.2178 7.876L16.2812 8.94L17.3447 7.876L18.4053 8.9365L17.3418 10L18.4053 11.0635Z" fill="black"/>
</svg>
