<svg width="24" height="24" viewBox="0 0 24 24" fill="none" xmlns="http://www.w3.org/2000/svg">
<path d="M12 2C10.0222 2 8.08879 2.58649 6.4443 3.6853C4.79981 4.78412 3.51809 6.3459 2.76121 8.17317C2.00433 10.0004 1.8063 12.0111 2.19215 13.9509C2.578 15.8907 3.53041 17.6725 4.92894 19.0711C6.32746 20.4696 8.10929 21.422 10.0491 21.8079C11.9889 22.1937 13.9996 21.9957 15.8268 21.2388C17.6541 20.4819 19.2159 19.2002 20.3147 17.5557C21.4135 15.9112 22 13.9778 22 12C22 10.6868 21.7413 9.38642 21.2388 8.17317C20.7363 6.95991 19.9997 5.85752 19.0711 4.92893C18.1425 4.00035 17.0401 3.26375 15.8268 2.7612C14.6136 2.25866 13.3132 2 12 2ZM7.4585 9.6562C7.10224 9.65662 6.76068 9.79834 6.50876 10.0503C6.25684 10.3022 6.11513 10.6437 6.1147 11H5.1147C5.11269 10.6909 5.17182 10.3845 5.2887 10.0984C5.40558 9.81225 5.5779 9.55206 5.79573 9.3328C6.01357 9.11353 6.27263 8.93952 6.55799 8.82077C6.84335 8.70202 7.14937 8.64089 7.45845 8.64089C7.76753 8.64089 8.07356 8.70202 8.35892 8.82077C8.64428 8.93952 8.90334 9.11353 9.12118 9.3328C9.33901 9.55206 9.51133 9.81225 9.62821 10.0984C9.74509 10.3845 9.80422 10.6909 9.8022 11H8.8022C8.80181 10.6437 8.66012 10.3022 8.40821 10.0503C8.15631 9.79834 7.81476 9.65662 7.4585 9.6562ZM12 17.6C11.2332 17.5986 10.4887 17.3425 9.88335 16.8718C9.27802 16.4012 8.84625 15.7428 8.6559 15H15.3441C15.1538 15.7428 14.722 16.4012 14.1167 16.8718C13.5113 17.3425 12.7668 17.5986 12 17.6ZM17.8853 11C17.8868 10.8226 17.8532 10.6466 17.7864 10.4822C17.7195 10.3178 17.6208 10.1683 17.4959 10.0423C17.3709 9.91629 17.2223 9.81627 17.0585 9.74801C16.8947 9.67975 16.719 9.64461 16.5416 9.64461C16.3641 9.64461 16.1884 9.67975 16.0246 9.74801C15.8608 9.81627 15.7122 9.91629 15.5873 10.0423C15.4623 10.1683 15.3636 10.3178 15.2967 10.4822C15.2299 10.6466 15.1963 10.8226 15.1978 11H14.1978C14.1958 10.6909 14.2549 10.3845 14.3718 10.0984C14.4887 9.81225 14.661 9.55206 14.8788 9.3328C15.0967 9.11353 15.3557 8.93952 15.6411 8.82077C15.9264 8.70202 16.2325 8.64089 16.5416 8.64089C16.8506 8.64089 17.1567 8.70202 17.442 8.82077C17.7274 8.93952 17.9864 9.11353 18.2043 9.3328C18.4221 9.55206 18.5944 9.81225 18.7113 10.0984C18.8282 10.3845 18.8873 10.6909 18.8853 11H17.8853Z" fill="black"/>
</svg>
