<svg width="24" height="24" viewBox="0 0 24 24" fill="none" xmlns="http://www.w3.org/2000/svg">
<path d="M12.25 1H11.75V3.5H12.25V1ZM6.1665 5.8125L4.3984 4.0449L4.0449 4.3984L5.813 6.166L6.1665 5.8125ZM1 12.25H3.5V11.75H1V12.25ZM4.0449 19.6016L4.3984 19.9551L6.1665 18.1875L5.813 17.834L4.0449 19.6016ZM11.75 23H12.25V20.5H11.75V23ZM17.8335 18.1875L19.6016 19.9551L19.9551 19.6016L18.187 17.834L17.8335 18.1875ZM20.5 11.75V12.25H23V11.75H20.5ZM17.8335 5.8125L18.187 6.166L19.9551 4.3984L19.6016 4.0449L17.8335 5.8125ZM12 5C10.6155 5 9.26215 5.41054 8.11101 6.17971C6.95986 6.94888 6.06266 8.04213 5.53284 9.32122C5.00303 10.6003 4.86441 12.0078 5.1345 13.3656C5.4046 14.7235 6.07128 15.9708 7.05025 16.9497C8.02922 17.9287 9.2765 18.5954 10.6344 18.8655C11.9922 19.1356 13.3997 18.997 14.6788 18.4672C15.9579 17.9373 17.0511 17.0401 17.8203 15.889C18.5895 14.7378 19 13.3845 19 12C19 10.1435 18.2625 8.36301 16.9497 7.05025C15.637 5.7375 13.8565 5 12 5ZM8.7656 10.7188C8.69143 10.7188 8.61893 10.6968 8.55726 10.6556C8.49559 10.6144 8.44753 10.5558 8.41915 10.4873C8.39076 10.4188 8.38334 10.3434 8.39781 10.2706C8.41227 10.1979 8.44799 10.1311 8.50043 10.0786C8.55288 10.0262 8.6197 9.99047 8.69244 9.97601C8.76518 9.96154 8.84058 9.96896 8.90911 9.99734C8.97763 10.0257 9.0362 10.0738 9.0774 10.1355C9.11861 10.1971 9.1406 10.2696 9.1406 10.3438C9.14057 10.4432 9.10106 10.5386 9.03074 10.6089C8.96042 10.6793 8.86505 10.7188 8.7656 10.7188ZM12 15.8233C11.3563 15.8221 10.7312 15.6071 10.2231 15.212C9.71488 14.8169 9.3524 14.2641 9.1926 13.6406H14.8074C14.6476 14.2641 14.2851 14.8169 13.7769 15.212C13.2688 15.6071 12.6437 15.8221 12 15.8233ZM15.2344 10.7188C15.1602 10.7188 15.0877 10.6968 15.0261 10.6556C14.9644 10.6144 14.9163 10.5558 14.8879 10.4873C14.8596 10.4188 14.8521 10.3434 14.8666 10.2706C14.8811 10.1979 14.9168 10.1311 14.9692 10.0786C15.0217 10.0262 15.0885 9.99047 15.1612 9.97601C15.234 9.96154 15.3094 9.96896 15.3779 9.99734C15.4464 10.0257 15.505 10.0738 15.5462 10.1355C15.5874 10.1971 15.6094 10.2696 15.6094 10.3438C15.6094 10.4432 15.5699 10.5386 15.4995 10.6089C15.4292 10.6793 15.3338 10.7188 15.2344 10.7188Z" fill="black"/>
</svg>
