<svg width="24" height="24" viewBox="0 0 24 24" fill="none" xmlns="http://www.w3.org/2000/svg">
<path d="M7.9341 15.2173L8.9946 16.2773C9.79177 15.4804 10.8728 15.0327 12 15.0327C13.1272 15.0327 14.2082 15.4804 15.0054 16.2773L16.0654 15.2173C15.5315 14.6834 14.8976 14.2598 14.2 13.9708C13.5023 13.6819 12.7546 13.5331 11.9995 13.5331C11.2444 13.5331 10.4967 13.6819 9.79905 13.9708C9.10142 14.2598 8.46754 14.6834 7.9336 15.2173H7.9341ZM12 2C10.0222 2 8.08879 2.58649 6.4443 3.6853C4.79981 4.78412 3.51809 6.3459 2.76121 8.17317C2.00433 10.0004 1.8063 12.0111 2.19215 13.9509C2.578 15.8907 3.53041 17.6725 4.92894 19.0711C6.32746 20.4696 8.10929 21.422 10.0491 21.8079C11.9889 22.1937 13.9996 21.9957 15.8268 21.2388C17.6541 20.4819 19.2159 19.2002 20.3147 17.5557C21.4135 15.9112 22 13.9778 22 12C22 10.6868 21.7413 9.38642 21.2388 8.17317C20.7363 6.95991 19.9997 5.85752 19.0711 4.92893C18.1425 4.00035 17.0401 3.26375 15.8268 2.7612C14.6136 2.25866 13.3132 2 12 2ZM12 20.5C10.3189 20.5 8.67548 20.0015 7.27766 19.0675C5.87984 18.1335 4.79037 16.806 4.14703 15.2528C3.50368 13.6996 3.33536 11.9906 3.66333 10.3417C3.9913 8.69289 4.80085 7.17834 5.9896 5.98959C7.17834 4.80085 8.6929 3.9913 10.3417 3.66333C11.9906 3.33535 13.6996 3.50368 15.2528 4.14702C16.806 4.79037 18.1335 5.87984 19.0675 7.27765C20.0015 8.67547 20.5 10.3189 20.5 12C20.4974 14.2535 19.601 16.414 18.0075 18.0075C16.414 19.601 14.2535 20.4974 12 20.5ZM13.4771 9.9229L14.1479 11.2646L17.3354 9.6709L16.6646 8.3291L13.4771 9.9229ZM10.5229 9.9229L7.3354 8.3291L6.6646 9.6709L9.8521 11.2646L10.5229 9.9229Z" fill="black"/>
</svg>
