<svg width="24" height="24" viewBox="0 0 24 24" fill="none" xmlns="http://www.w3.org/2000/svg">
<path d="M12 2C10.0222 2 8.08879 2.58649 6.4443 3.6853C4.79981 4.78412 3.51809 6.3459 2.76121 8.17317C2.00433 10.0004 1.8063 12.0111 2.19215 13.9509C2.578 15.8907 3.53041 17.6725 4.92894 19.0711C6.32746 20.4696 8.10929 21.422 10.0491 21.8079C11.9889 22.1937 13.9996 21.9957 15.8268 21.2388C17.6541 20.4819 19.2159 19.2002 20.3147 17.5557C21.4135 15.9112 22 13.9778 22 12C22 10.6868 21.7413 9.38642 21.2388 8.17317C20.7363 6.95991 19.9997 5.85752 19.0711 4.92893C18.1425 4.00035 17.0401 3.26375 15.8268 2.7612C14.6136 2.25866 13.3132 2 12 2ZM7.4583 9.4C7.88265 9.4 8.28962 9.56857 8.58968 9.86863C8.88973 10.1687 9.0583 10.5757 9.0583 11H5.8583C5.8583 10.5757 6.02688 10.1687 6.32693 9.86863C6.62699 9.56857 7.03396 9.4 7.4583 9.4ZM12 17.6C11.2332 17.5986 10.4887 17.3425 9.88335 16.8718C9.27802 16.4012 8.84625 15.7428 8.6559 15H15.3441C15.1538 15.7428 14.722 16.4012 14.1167 16.8718C13.5113 17.3425 12.7668 17.5986 12 17.6ZM14.9417 11C14.9417 10.5757 15.1103 10.1687 15.4103 9.86863C15.7104 9.56857 16.1174 9.4 16.5417 9.4C16.9661 9.4 17.373 9.56857 17.6731 9.86863C17.9731 10.1687 18.1417 10.5757 18.1417 11H14.9417Z" fill="black"/>
</svg>
