<svg width="24" height="24" viewBox="0 0 24 24" fill="none" xmlns="http://www.w3.org/2000/svg">
<path d="M12 2C10.0222 2 8.08879 2.58649 6.4443 3.6853C4.79981 4.78412 3.51809 6.3459 2.76121 8.17317C2.00433 10.0004 1.8063 12.0111 2.19215 13.9509C2.578 15.8907 3.53041 17.6725 4.92894 19.0711C6.32746 20.4696 8.10929 21.422 10.0491 21.8079C11.9889 22.1937 13.9996 21.9957 15.8268 21.2388C17.6541 20.4819 19.2159 19.2002 20.3147 17.5557C21.4135 15.9112 22 13.9778 22 12C22 10.6868 21.7413 9.38642 21.2388 8.17317C20.7363 6.95991 19.9997 5.85752 19.0711 4.92893C18.1425 4.00035 17.0401 3.26375 15.8268 2.7612C14.6136 2.25866 13.3132 2 12 2ZM6.65 10C6.65 9.77255 6.71745 9.55021 6.84381 9.36109C6.97018 9.17198 7.14978 9.02458 7.35992 8.93754C7.57005 8.8505 7.80128 8.82772 8.02436 8.8721C8.24744 8.91647 8.45235 9.026 8.61318 9.18683C8.77401 9.34766 8.88353 9.55257 8.92791 9.77565C8.97228 9.99872 8.94951 10.23 8.86247 10.4401C8.77542 10.6502 8.62803 10.8298 8.43891 10.9562C8.24979 11.0826 8.02745 11.15 7.8 11.15C7.49501 11.15 7.2025 11.0288 6.98683 10.8132C6.77116 10.5975 6.65 10.305 6.65 10ZM15.0781 17.9385C14.8558 17.2992 14.44 16.7451 13.8884 16.3529C13.3368 15.9607 12.6768 15.75 12 15.75C11.3232 15.75 10.6632 15.9607 10.1116 16.3529C9.56001 16.7451 9.1442 17.2992 8.9219 17.9385L7.5088 17.4365C7.8347 16.5053 8.44198 15.6984 9.24661 15.1275C10.0512 14.5567 11.0134 14.25 12 14.25C12.9866 14.25 13.9488 14.5567 14.7534 15.1275C15.558 15.6984 16.1653 16.5053 16.4912 17.4365L15.0781 17.9385ZM16.2 11.15C15.9726 11.15 15.7502 11.0826 15.5611 10.9562C15.372 10.8298 15.2246 10.6502 15.1375 10.4401C15.0505 10.23 15.0277 9.99872 15.0721 9.77565C15.1165 9.55257 15.226 9.34766 15.3868 9.18683C15.5477 9.026 15.7526 8.91647 15.9757 8.8721C16.1987 8.82772 16.43 8.8505 16.6401 8.93754C16.8502 9.02458 17.0298 9.17198 17.1562 9.36109C17.2826 9.55021 17.35 9.77255 17.35 10C17.35 10.151 17.3203 10.3006 17.2625 10.4401C17.2047 10.5796 17.12 10.7064 17.0132 10.8132C16.9064 10.92 16.7796 11.0047 16.6401 11.0625C16.5006 11.1203 16.351 11.15 16.2 11.15Z" fill="black"/>
</svg>
