<svg width="24" height="24" viewBox="0 0 24 24" fill="none" xmlns="http://www.w3.org/2000/svg">
<path d="M12.95 1H11.05V3.5H12.95V1ZM6.6616 5.3174L4.8936 3.55L3.55 4.8936L5.3179 6.6611L6.6616 5.3174ZM1 12.95H3.5V11.05H1V12.95ZM3.55 19.1062L4.8936 20.45L6.6616 18.6824L5.3179 17.3389L3.55 19.1062ZM11.05 23H12.95V20.5H11.05V23ZM17.3386 18.6826L19.1066 20.4502L20.45 19.1064L18.6819 17.3389L17.3386 18.6826ZM20.5 11.05V12.95H23V11.05H20.5ZM17.3384 5.3174L18.6821 6.6611L20.45 4.8936L19.1064 3.55L17.3384 5.3174ZM12 5C10.6155 5 9.26215 5.41054 8.11101 6.17971C6.95986 6.94888 6.06266 8.04213 5.53284 9.32122C5.00303 10.6003 4.86441 12.0078 5.1345 13.3656C5.4046 14.7235 6.07128 15.9708 7.05025 16.9497C8.02922 17.9287 9.2765 18.5954 10.6344 18.8655C11.9922 19.1356 13.3997 18.997 14.6788 18.4672C15.9579 17.9373 17.0511 17.0401 17.8203 15.889C18.5895 14.7378 19 13.3845 19 12C19 10.1435 18.2625 8.36301 16.9497 7.05025C15.637 5.7375 13.8565 5 12 5ZM8.014 10.4375C8.014 10.2101 8.08145 9.98771 8.20781 9.79859C8.33417 9.60948 8.51378 9.46208 8.72391 9.37504C8.93405 9.288 9.16528 9.26522 9.38835 9.3096C9.61143 9.35397 9.81634 9.4635 9.97717 9.62433C10.138 9.78516 10.2475 9.99007 10.2919 10.2131C10.3363 10.4362 10.3135 10.6675 10.2265 10.8776C10.1394 11.0877 9.99202 11.2673 9.80291 11.3937C9.61379 11.5201 9.39145 11.5875 9.164 11.5875C8.859 11.5875 8.56649 11.4663 8.35083 11.2507C8.13516 11.035 8.014 10.7425 8.014 10.4375ZM12 15.8233C11.3563 15.8221 10.7312 15.6071 10.2231 15.212C9.71488 14.8169 9.3524 14.2641 9.1926 13.6406H14.8074C14.6476 14.2641 14.2851 14.8169 13.7769 15.212C13.2688 15.6071 12.6437 15.8221 12 15.8233ZM14.8359 11.5875C14.6085 11.5875 14.3861 11.5201 14.197 11.3937C14.0079 11.2673 13.8605 11.0877 13.7734 10.8776C13.6864 10.6675 13.6636 10.4362 13.708 10.2131C13.7524 9.99007 13.8619 9.78516 14.0227 9.62433C14.1836 9.4635 14.3885 9.35397 14.6115 9.3096C14.8346 9.26522 15.0659 9.288 15.276 9.37504C15.4861 9.46208 15.6657 9.60948 15.7921 9.79859C15.9185 9.98771 15.9859 10.2101 15.9859 10.4375C15.9859 10.7425 15.8647 11.035 15.6491 11.2507C15.4334 11.4663 15.1409 11.5875 14.8359 11.5875Z" fill="black"/>
</svg>
