<svg width="24" height="24" viewBox="0 0 24 24" fill="none" xmlns="http://www.w3.org/2000/svg">
<path d="M12 2C10.0222 2 8.08879 2.58649 6.4443 3.6853C4.79981 4.78412 3.51809 6.3459 2.76121 8.17317C2.00433 10.0004 1.8063 12.0111 2.19215 13.9509C2.578 15.8907 3.53041 17.6725 4.92894 19.0711C6.32746 20.4696 8.10929 21.422 10.0491 21.8079C11.9889 22.1937 13.9996 21.9957 15.8268 21.2388C17.6541 20.4819 19.2159 19.2002 20.3147 17.5557C21.4135 15.9112 22 13.9778 22 12C22 10.6868 21.7413 9.38642 21.2388 8.17317C20.7363 6.95991 19.9997 5.85752 19.0711 4.92893C18.1425 4.00035 17.0401 3.26375 15.8268 2.7612C14.6136 2.25866 13.3132 2 12 2ZM8 11.35C7.733 11.35 7.47199 11.2708 7.24998 11.1225C7.02798 10.9741 6.85495 10.7633 6.75277 10.5166C6.65059 10.2699 6.62385 9.9985 6.67594 9.73663C6.72803 9.47475 6.85661 9.23421 7.04541 9.04541C7.23421 8.8566 7.47476 8.72803 7.73663 8.67594C7.99851 8.62385 8.26995 8.65058 8.51663 8.75276C8.76331 8.85494 8.97415 9.02797 9.12249 9.24998C9.27083 9.47199 9.35 9.733 9.35 10C9.35 10.358 9.20777 10.7014 8.9546 10.9546C8.70142 11.2078 8.35805 11.35 8 11.35ZM16 11.35C15.733 11.35 15.472 11.2708 15.25 11.1225C15.028 10.9741 14.8549 10.7633 14.7528 10.5166C14.6506 10.2699 14.6239 9.9985 14.6759 9.73663C14.728 9.47475 14.8566 9.23421 15.0454 9.04541C15.2342 8.8566 15.4748 8.72803 15.7366 8.67594C15.9985 8.62385 16.2699 8.65058 16.5166 8.75276C16.7633 8.85494 16.9741 9.02797 17.1225 9.24998C17.2708 9.47199 17.35 9.733 17.35 10C17.35 10.358 17.2078 10.7014 16.9546 10.9546C16.7014 11.2078 16.358 11.35 16 11.35Z" fill="black"/>
</svg>
