<svg width="24" height="24" viewBox="0 0 24 24" fill="none" xmlns="http://www.w3.org/2000/svg">
<path d="M16.5566 7.7378L15.2812 9.0132L14.0059 7.7378L13.3691 8.3745L14.6445 9.65L13.3691 10.9254L14.0059 11.5621L15.2812 10.2867L16.5566 11.5621L17.1934 10.9254L15.918 9.65L17.1934 8.3746L16.5566 7.7378ZM9.9941 11.562L10.6309 10.9253L9.3555 9.65L10.6309 8.3746L9.9941 7.7379L8.7188 9.0132L7.4434 7.7378L6.8066 8.3745L8.082 9.65L6.8066 10.9253L7.4434 11.562L8.7188 10.2866L9.9941 11.562ZM12 13C10.9678 13.0018 9.96552 13.3466 9.15066 13.9802C8.3358 14.6137 7.75459 15.5001 7.4984 16.5H16.5017C16.2455 15.5001 15.6643 14.6137 14.8494 13.9802C14.0345 13.3466 13.0322 13.0018 12 13ZM8.8669 15.6C9.20624 15.0781 9.67057 14.6493 10.2177 14.3524C10.7649 14.0555 11.3775 13.9 12 13.9C12.6225 13.9 13.2351 14.0555 13.7823 14.3524C14.3294 14.6493 14.7938 15.0781 15.1331 15.6H8.8669ZM12 2C10.0222 2 8.08879 2.58649 6.4443 3.6853C4.79981 4.78412 3.51809 6.3459 2.76121 8.17317C2.00433 10.0004 1.8063 12.0111 2.19215 13.9509C2.578 15.8907 3.53041 17.6725 4.92894 19.0711C6.32746 20.4696 8.10929 21.422 10.0491 21.8079C11.9889 22.1937 13.9996 21.9957 15.8268 21.2388C17.6541 20.4819 19.2159 19.2002 20.3147 17.5557C21.4135 15.9112 22 13.9778 22 12C22 10.6868 21.7413 9.38642 21.2388 8.17317C20.7363 6.95991 19.9997 5.85752 19.0711 4.92893C18.1425 4.00035 17.0401 3.26375 15.8268 2.7612C14.6136 2.25866 13.3132 2 12 2ZM12 21C10.22 21 8.47991 20.4722 6.99987 19.4832C5.51983 18.4943 4.36628 17.0887 3.68509 15.4442C3.0039 13.7996 2.82567 11.99 3.17294 10.2442C3.5202 8.49836 4.37737 6.89471 5.63604 5.63604C6.89472 4.37737 8.49836 3.5202 10.2442 3.17293C11.99 2.82567 13.7996 3.0039 15.4442 3.68508C17.0887 4.36627 18.4943 5.51983 19.4832 6.99987C20.4722 8.47991 21 10.22 21 12C20.9974 14.3861 20.0483 16.6738 18.361 18.361C16.6738 20.0483 14.3861 20.9974 12 21Z" fill="black"/>
</svg>
