<svg width="24" height="24" viewBox="0 0 24 24" fill="none" xmlns="http://www.w3.org/2000/svg">
<path d="M15.2 8.85C14.9726 8.85 14.7502 8.91745 14.5611 9.04381C14.372 9.17017 14.2246 9.34978 14.1375 9.55991C14.0505 9.77005 14.0277 10.0013 14.0721 10.2244C14.1165 10.4474 14.226 10.6523 14.3868 10.8132C14.5477 10.974 14.7526 11.0835 14.9757 11.1279C15.1987 11.1723 15.43 11.1495 15.6401 11.0625C15.8502 10.9754 16.0298 10.828 16.1562 10.6389C16.2826 10.4498 16.35 10.2274 16.35 10C16.35 9.84898 16.3203 9.69944 16.2625 9.55991C16.2047 9.42039 16.12 9.29361 16.0132 9.18683C15.9064 9.08004 15.7796 8.99533 15.6401 8.93754C15.5006 8.87975 15.351 8.85 15.2 8.85ZM8.8 11.15C9.02745 11.15 9.24979 11.0826 9.43891 10.9562C9.62803 10.8298 9.77542 10.6502 9.86247 10.4401C9.94951 10.23 9.97228 9.99872 9.92791 9.77565C9.88353 9.55257 9.77401 9.34766 9.61318 9.18683C9.45235 9.026 9.24744 8.91647 9.02436 8.8721C8.80128 8.82772 8.57005 8.8505 8.35992 8.93754C8.14978 9.02458 7.97018 9.17198 7.84381 9.36109C7.71745 9.55021 7.65 9.77255 7.65 10C7.65 10.305 7.77116 10.5975 7.98683 10.8132C8.2025 11.0288 8.49501 11.15 8.8 11.15ZM12 15.25C11.4416 15.2516 10.8885 15.1424 10.3726 14.9287C9.85677 14.7151 9.38838 14.4013 8.9946 14.0054L7.9341 15.0654C8.46804 15.5993 9.10192 16.0229 9.79955 16.3119C10.4972 16.6008 11.2449 16.7496 12 16.7496C12.7551 16.7496 13.5028 16.6008 14.2005 16.3119C14.8981 16.0229 15.532 15.5993 16.0659 15.0654L15.0059 14.0054C14.6121 14.4013 14.1436 14.7152 13.6276 14.9288C13.1117 15.1425 12.5584 15.2516 12 15.25ZM12 2C10.0222 2 8.08879 2.58649 6.4443 3.6853C4.79981 4.78412 3.51809 6.3459 2.76121 8.17317C2.00433 10.0004 1.8063 12.0111 2.19215 13.9509C2.578 15.8907 3.53041 17.6725 4.92894 19.0711C6.32746 20.4696 8.10929 21.422 10.0491 21.8079C11.9889 22.1937 13.9996 21.9957 15.8268 21.2388C17.6541 20.4819 19.2159 19.2002 20.3147 17.5557C21.4135 15.9112 22 13.9778 22 12C22 10.6868 21.7413 9.38642 21.2388 8.17317C20.7363 6.95991 19.9997 5.85752 19.0711 4.92893C18.1425 4.00035 17.0401 3.26375 15.8268 2.7612C14.6136 2.25866 13.3132 2 12 2ZM12 20.5C10.3189 20.5 8.67548 20.0015 7.27766 19.0675C5.87984 18.1335 4.79037 16.806 4.14703 15.2528C3.50368 13.6996 3.33536 11.9906 3.66333 10.3417C3.9913 8.69289 4.80085 7.17834 5.9896 5.98959C7.17834 4.80085 8.6929 3.9913 10.3417 3.66333C11.9906 3.33535 13.6996 3.50368 15.2528 4.14702C16.806 4.79037 18.1335 5.87984 19.0675 7.27765C20.0015 8.67547 20.5 10.3189 20.5 12C20.4974 14.2535 19.601 16.414 18.0075 18.0075C16.414 19.601 14.2535 20.4974 12 20.5Z" fill="black"/>
</svg>
