<svg width="24" height="24" viewBox="0 0 24 24" fill="none" xmlns="http://www.w3.org/2000/svg">
<path d="M12 2C10.0222 2 8.08879 2.58649 6.4443 3.6853C4.79981 4.78412 3.51809 6.3459 2.76121 8.17317C2.00433 10.0004 1.8063 12.0111 2.19215 13.9509C2.578 15.8907 3.53041 17.6725 4.92894 19.0711C6.32746 20.4696 8.10929 21.422 10.0491 21.8079C11.9889 22.1937 13.9996 21.9957 15.8268 21.2388C17.6541 20.4819 19.2159 19.2002 20.3147 17.5557C21.4135 15.9112 22 13.9778 22 12C22 10.6868 21.7413 9.38642 21.2388 8.17317C20.7363 6.95991 19.9997 5.85752 19.0711 4.92893C18.1425 4.00035 17.0401 3.26375 15.8268 2.7612C14.6136 2.25866 13.3132 2 12 2ZM7.6 10.15C7.50111 10.15 7.40444 10.1207 7.32222 10.0657C7.24 10.0108 7.17591 9.9327 7.13806 9.84134C7.10022 9.74998 7.09032 9.64945 7.10961 9.55245C7.1289 9.45546 7.17652 9.36637 7.24645 9.29645C7.31638 9.22652 7.40547 9.1789 7.50246 9.15961C7.59945 9.14031 7.69998 9.15022 7.79135 9.18806C7.88271 9.2259 7.9608 9.28999 8.01574 9.37222C8.07068 9.45444 8.1 9.55111 8.1 9.65C8.1 9.78261 8.04733 9.90979 7.95356 10.0036C7.85979 10.0973 7.73261 10.15 7.6 10.15ZM12 17.6C11.2332 17.5986 10.4887 17.3425 9.88335 16.8718C9.27802 16.4012 8.84625 15.7428 8.6559 15H15.3441C15.1538 15.7428 14.722 16.4012 14.1167 16.8718C13.5113 17.3425 12.7668 17.5986 12 17.6ZM16.4 10.15C16.3011 10.15 16.2044 10.1207 16.1222 10.0657C16.04 10.0108 15.9759 9.9327 15.9381 9.84134C15.9002 9.74998 15.8903 9.64945 15.9096 9.55245C15.9289 9.45546 15.9765 9.36637 16.0465 9.29645C16.1164 9.22652 16.2055 9.1789 16.3025 9.15961C16.3994 9.14031 16.5 9.15022 16.5913 9.18806C16.6827 9.2259 16.7608 9.28999 16.8157 9.37222C16.8707 9.45444 16.9 9.55111 16.9 9.65C16.9 9.78261 16.8473 9.90979 16.7536 10.0036C16.6598 10.0973 16.5326 10.15 16.4 10.15Z" fill="black"/>
</svg>
