<svg width="24" height="24" viewBox="0 0 24 24" fill="none" xmlns="http://www.w3.org/2000/svg">
<path d="M16.6982 7.8794L15.2812 9.2964L13.8643 7.8794L13.5107 8.2329L14.9277 9.6499L13.5107 11.0669L13.8643 11.4204L15.2812 10.0034L16.6982 11.4204L17.0518 11.0669L15.6348 9.65L17.0518 8.233L16.6982 7.8794ZM7.3018 11.42L8.7188 10.003L10.1357 11.42L10.4893 11.0665L9.0723 9.65L10.4893 8.233L10.1357 7.8795L8.7188 9.2964L7.3018 7.8794L6.9482 8.2329L8.3652 9.65L6.9482 11.067L7.3018 11.42ZM12 2C10.0222 2 8.08879 2.58649 6.4443 3.6853C4.79981 4.78412 3.51809 6.3459 2.76121 8.17317C2.00433 10.0004 1.8063 12.0111 2.19215 13.9509C2.578 15.8907 3.53041 17.6725 4.92894 19.0711C6.32746 20.4696 8.10929 21.422 10.0491 21.8079C11.9889 22.1937 13.9996 21.9957 15.8268 21.2388C17.6541 20.4819 19.2159 19.2002 20.3147 17.5557C21.4135 15.9112 22 13.9778 22 12C22 10.6868 21.7413 9.38642 21.2388 8.17317C20.7363 6.95991 19.9997 5.85752 19.0711 4.92893C18.1425 4.00035 17.0401 3.26375 15.8268 2.7612C14.6136 2.25866 13.3132 2 12 2ZM12 21.5C10.1211 21.5 8.28435 20.9428 6.72209 19.899C5.15982 18.8551 3.94218 17.3714 3.22315 15.6355C2.50412 13.8996 2.31598 11.9895 2.68254 10.1466C3.0491 8.30382 3.95389 6.61108 5.28249 5.28249C6.61109 3.95389 8.30383 3.0491 10.1466 2.68254C11.9895 2.31598 13.8996 2.50411 15.6355 3.22314C17.3714 3.94218 18.8551 5.15982 19.899 6.72208C20.9428 8.28435 21.5 10.1211 21.5 12C21.4971 14.5187 20.4953 16.9334 18.7144 18.7144C16.9334 20.4953 14.5187 21.4971 12 21.5ZM15.72 15.5656C16.1161 15.1059 16.4251 14.5778 16.6319 14.0073L16.1612 13.8403C15.8559 14.7165 15.2856 15.476 14.5292 16.0135C13.7728 16.5509 12.8679 16.8397 11.9401 16.8397C11.0122 16.8397 10.1073 16.5509 9.35093 16.0135C8.59456 15.476 8.02418 14.7165 7.7189 13.8403L7.2481 14.0083C7.59195 14.9791 8.22717 15.82 9.06696 16.4161C9.90676 17.0123 10.9101 17.3345 11.94 17.3389C12.5904 17.3344 13.2334 17.2006 13.8316 16.9453L14.93 18.0444C15.1467 18.2611 15.4407 18.3829 15.7472 18.3829C15.899 18.3829 16.0493 18.353 16.1895 18.295C16.3297 18.2369 16.4571 18.1518 16.5645 18.0445C16.6718 17.9371 16.7569 17.8097 16.815 17.6695C16.8731 17.5293 16.903 17.379 16.903 17.2272C16.903 17.0755 16.8731 16.9252 16.815 16.785C16.7569 16.6447 16.6718 16.5173 16.5645 16.41L15.72 15.5656ZM16.211 17.6909C16.088 17.8138 15.9213 17.8828 15.7474 17.8828C15.5735 17.8828 15.4068 17.8138 15.2838 17.6909L14.312 16.7188C14.7032 16.5078 15.0646 16.2457 15.3868 15.9395L16.211 16.7637C16.3337 16.8868 16.4025 17.0535 16.4025 17.2273C16.4025 17.4011 16.3336 17.5678 16.2109 17.6909H16.211Z" fill="black"/>
</svg>
