<svg width="24" height="24" viewBox="0 0 24 24" fill="none" xmlns="http://www.w3.org/2000/svg">
<path d="M12 15.2325C12.5421 15.2315 13.0685 15.0504 13.4965 14.7176C13.9245 14.3849 14.2297 13.9193 14.3643 13.3942H9.6357C9.77027 13.9193 10.0755 14.3849 10.5035 14.7176C10.9315 15.0504 11.4579 15.2315 12 15.2325ZM12 5C10.6155 5 9.26215 5.41054 8.11101 6.17971C6.95986 6.94888 6.06266 8.04213 5.53284 9.32122C5.00303 10.6003 4.86441 12.0078 5.1345 13.3656C5.4046 14.7235 6.07128 15.9708 7.05025 16.9497C8.02922 17.9287 9.2765 18.5954 10.6344 18.8655C11.9922 19.1356 13.3997 18.997 14.6788 18.4672C15.9579 17.9373 17.0511 17.0401 17.8203 15.889C18.5895 14.7378 19 13.3845 19 12C19 10.1435 18.2625 8.36301 16.9497 7.05025C15.637 5.7375 13.8565 5 12 5ZM12 17.55C10.9023 17.55 9.82928 17.2245 8.91658 16.6147C8.00389 16.0048 7.29253 15.138 6.87247 14.1239C6.4524 13.1098 6.34249 11.9938 6.55664 10.9172C6.77079 9.84065 7.29938 8.85174 8.07556 8.07556C8.85174 7.29938 9.84065 6.77079 10.9172 6.55664C11.9938 6.34249 13.1098 6.4524 14.1239 6.87247C15.138 7.29253 16.0048 8.00389 16.6147 8.91658C17.2245 9.82928 17.55 10.9023 17.55 12C17.5483 13.4714 16.9631 14.8821 15.9226 15.9226C14.8821 16.9631 13.4714 17.5483 12 17.55ZM12.7251 1H11.2751V3.5H12.7251V1ZM6.5024 5.4771L4.7344 3.709L3.709 4.7344L5.4771 6.5024L6.5024 5.4771ZM1 12.7251H3.5V11.2751H1V12.7251ZM3.709 19.2656L4.7344 20.291L6.5024 18.5229L5.4771 17.4976L3.709 19.2656ZM11.2749 23H12.7249V20.5H11.2749V23ZM17.4976 18.5229L19.2656 20.291L20.291 19.2656L18.5229 17.4976L17.4976 18.5229ZM20.5 11.2749V12.7249H23V11.2749H20.5ZM17.4976 5.4771L18.5229 6.5024L20.291 4.7344L19.2656 3.709L17.4976 5.4771ZM14.7031 9.8063C14.5267 9.8063 14.3543 9.8586 14.2077 9.95659C14.061 10.0546 13.9468 10.1938 13.8793 10.3568C13.8118 10.5197 13.7941 10.699 13.8285 10.872C13.863 11.045 13.9479 11.2039 14.0726 11.3286C14.1973 11.4533 14.3562 11.5382 14.5292 11.5726C14.7022 11.607 14.8815 11.5893 15.0444 11.5218C15.2073 11.4543 15.3466 11.34 15.4446 11.1933C15.5425 11.0467 15.5948 10.8743 15.5948 10.6979C15.5948 10.5808 15.5717 10.4649 15.5269 10.3567C15.4821 10.2485 15.4164 10.1502 15.3336 10.0674C15.2508 9.98461 15.1525 9.91894 15.0443 9.87414C14.9361 9.82934 14.8202 9.80629 14.7031 9.8063ZM10.1885 10.6979C10.1885 10.5215 10.1362 10.3491 10.0382 10.2025C9.94023 10.0558 9.80096 9.94156 9.63802 9.87407C9.47507 9.80658 9.29578 9.78893 9.1228 9.82334C8.94983 9.85776 8.79094 9.94269 8.66624 10.0674C8.54154 10.1921 8.45662 10.351 8.42222 10.524C8.38783 10.697 8.4055 10.8763 8.47301 11.0392C8.54051 11.2021 8.65482 11.3414 8.80147 11.4394C8.94812 11.5373 9.12053 11.5896 9.2969 11.5896C9.41399 11.5896 9.52994 11.5665 9.63812 11.5217C9.7463 11.4769 9.8446 11.4112 9.92739 11.3284C10.0102 11.2456 10.0759 11.1473 10.1207 11.0391C10.1655 10.9309 10.1885 10.815 10.1885 10.6979Z" fill="black"/>
</svg>
