<svg width="24" height="24" viewBox="0 0 24 24" fill="none" xmlns="http://www.w3.org/2000/svg">
<path d="M12 17.5C13.0322 17.4982 14.0345 17.1534 14.8494 16.5198C15.6643 15.8863 16.2455 14.9999 16.5017 14H7.4984C7.75459 14.9999 8.3358 15.8863 9.15066 16.5198C9.96552 17.1534 10.9678 17.4982 12 17.5ZM15.1331 14.9C14.7938 15.4219 14.3294 15.8507 13.7823 16.1476C13.2351 16.4445 12.6225 16.6 12 16.6C11.3775 16.6 10.7649 16.4445 10.2177 16.1476C9.67057 15.8507 9.20624 15.4219 8.8669 14.9H15.1331ZM15.5415 8.7061C14.9334 8.70687 14.3503 8.94879 13.9203 9.37882C13.4903 9.80884 13.2484 10.3919 13.2476 11H14.1476C14.1476 10.6304 14.2944 10.2759 14.5558 10.0146C14.8171 9.75323 15.1716 9.6064 15.5412 9.6064C15.9108 9.6064 16.2653 9.75323 16.5266 10.0146C16.788 10.2759 16.9348 10.6304 16.9348 11H17.8348C17.834 10.392 17.5922 9.80903 17.1623 9.37903C16.7324 8.94902 16.1495 8.70703 15.5415 8.7061ZM9.8521 11H10.7521C10.7521 10.3916 10.5104 9.80816 10.0802 9.37797C9.65005 8.94778 9.06658 8.7061 8.4582 8.7061C7.84982 8.7061 7.26636 8.94778 6.83617 9.37797C6.40598 9.80816 6.1643 10.3916 6.1643 11H7.0643C7.0643 10.6304 7.21113 10.2759 7.47248 10.0146C7.73383 9.75323 8.0883 9.6064 8.4579 9.6064C8.82751 9.6064 9.18198 9.75323 9.44333 10.0146C9.70468 10.2759 9.8515 10.6304 9.8515 11H9.8521ZM12 2C10.0222 2 8.08879 2.58649 6.4443 3.6853C4.79981 4.78412 3.51809 6.3459 2.76121 8.17317C2.00433 10.0004 1.8063 12.0111 2.19215 13.9509C2.578 15.8907 3.53041 17.6725 4.92894 19.0711C6.32746 20.4696 8.10929 21.422 10.0491 21.8079C11.9889 22.1937 13.9996 21.9957 15.8268 21.2388C17.6541 20.4819 19.2159 19.2002 20.3147 17.5557C21.4135 15.9112 22 13.9778 22 12C22 10.6868 21.7413 9.38642 21.2388 8.17317C20.7363 6.95991 19.9997 5.85752 19.0711 4.92893C18.1425 4.00035 17.0401 3.26375 15.8268 2.7612C14.6136 2.25866 13.3132 2 12 2ZM12 21C10.22 21 8.47991 20.4722 6.99987 19.4832C5.51983 18.4943 4.36628 17.0887 3.68509 15.4442C3.0039 13.7996 2.82567 11.99 3.17294 10.2442C3.5202 8.49836 4.37737 6.89471 5.63604 5.63604C6.89472 4.37737 8.49836 3.5202 10.2442 3.17293C11.99 2.82567 13.7996 3.0039 15.4442 3.68508C17.0887 4.36627 18.4943 5.51983 19.4832 6.99987C20.4722 8.47991 21 10.22 21 12C20.9974 14.3861 20.0483 16.6738 18.361 18.361C16.6738 20.0483 14.3861 20.9974 12 21Z" fill="black"/>
</svg>
