<svg width="24" height="24" viewBox="0 0 24 24" fill="none" xmlns="http://www.w3.org/2000/svg">
<path d="M12 2C10.0222 2 8.08879 2.58649 6.4443 3.6853C4.79981 4.78412 3.51809 6.3459 2.76121 8.17317C2.00433 10.0004 1.8063 12.0111 2.19215 13.9509C2.578 15.8907 3.53041 17.6725 4.92894 19.0711C6.32746 20.4696 8.10929 21.422 10.0491 21.8079C11.9889 22.1937 13.9996 21.9957 15.8268 21.2388C17.6541 20.4819 19.2159 19.2002 20.3147 17.5557C21.4135 15.9112 22 13.9778 22 12C22 10.6868 21.7413 9.38642 21.2388 8.17317C20.7363 6.95991 19.9997 5.85752 19.0711 4.92893C18.1425 4.00035 17.0401 3.26375 15.8268 2.7612C14.6136 2.25866 13.3132 2 12 2ZM6.3018 11.4209L5.9482 11.0674L7.3652 9.65L5.9482 8.233L6.3018 7.88L7.7188 9.297L9.1357 7.88L9.4893 8.2335L8.0723 9.65L9.4893 11.067L9.1357 11.4205L7.7188 10.0035L6.3018 11.4209ZM8.6559 18C8.84502 17.2566 9.27646 16.5974 9.88207 16.1265C10.4877 15.6557 11.2329 15.4001 12 15.4001C12.7671 15.4001 13.5123 15.6557 14.1179 16.1265C14.7235 16.5974 15.155 17.2566 15.3441 18H8.6559ZM18.0518 11.0674L17.6982 11.4209L16.2812 10.0039L14.8643 11.4209L14.5107 11.0674L15.9277 9.6504L14.5107 8.2334L14.8643 7.8799L16.2812 9.2969L17.6982 7.8799L18.0518 8.2334L16.6348 9.65L18.0518 11.0674Z" fill="black"/>
</svg>
