<svg width="24" height="24" viewBox="0 0 24 24" fill="none" xmlns="http://www.w3.org/2000/svg">
<path d="M16.3447 7.876L15.2812 8.94L14.2178 7.876L13.1572 8.9365L14.2207 10L13.1572 11.0635L14.2178 12.124L15.2812 11.0605L16.3447 12.124L17.4053 11.0635L16.3418 10L17.4053 8.9365L16.3447 7.876ZM7.6553 12.124L8.7188 11.0605L9.7822 12.124L10.8428 11.0635L9.7793 10L10.8428 8.9365L9.7822 7.876L8.7188 8.94L7.6553 7.876L6.5947 8.9365L7.6582 10L6.5947 11.0635L7.6553 12.124ZM12 2C10.0222 2 8.08879 2.58649 6.4443 3.6853C4.79981 4.78412 3.51809 6.3459 2.76121 8.17317C2.00433 10.0004 1.8063 12.0111 2.19215 13.9509C2.578 15.8907 3.53041 17.6725 4.92894 19.0711C6.32746 20.4696 8.10929 21.422 10.0491 21.8079C11.9889 22.1937 13.9996 21.9957 15.8268 21.2388C17.6541 20.4819 19.2159 19.2002 20.3147 17.5557C21.4135 15.9112 22 13.9778 22 12C22 10.6868 21.7413 9.38642 21.2388 8.17317C20.7363 6.95991 19.9997 5.85752 19.0711 4.92893C18.1425 4.00035 17.0401 3.26375 15.8268 2.7612C14.6136 2.25866 13.3132 2 12 2ZM12 20C10.4178 20 8.87104 19.5308 7.55544 18.6518C6.23985 17.7727 5.21447 16.5233 4.60897 15.0615C4.00347 13.5997 3.84504 11.9911 4.15372 10.4393C4.4624 8.88743 5.22433 7.46197 6.34315 6.34315C7.46197 5.22433 8.88743 4.4624 10.4393 4.15372C11.9911 3.84504 13.5997 4.00346 15.0615 4.60896C16.5233 5.21447 17.7727 6.23984 18.6518 7.55544C19.5308 8.87103 20 10.4177 20 12C19.9976 14.121 19.154 16.1544 17.6542 17.6542C16.1544 19.154 14.121 19.9976 12 20ZM14.9839 13.6392C14.7685 14.259 14.3655 14.7964 13.8308 15.1767C13.296 15.557 12.6562 15.7613 12 15.7613C11.3438 15.7613 10.704 15.557 10.1692 15.1767C9.63451 14.7964 9.23147 14.259 9.0161 13.6392L7.4146 14.2085C7.7507 15.157 8.37158 15.9786 9.19235 16.5608C10.0131 17.1431 10.9937 17.4576 12 17.4614C12.7184 17.4592 13.4272 17.2962 14.0744 16.9844L14.7531 17.6631C14.8458 17.7566 14.9561 17.8309 15.0776 17.8817C15.1991 17.9325 15.3294 17.9588 15.4611 17.959C15.5928 17.9593 15.7233 17.9336 15.845 17.8833C15.9667 17.833 16.0773 17.7592 16.1704 17.6661C16.2635 17.573 16.3373 17.4624 16.3876 17.3407C16.4378 17.2189 16.4635 17.0885 16.4632 16.9568C16.463 16.8251 16.4366 16.6948 16.3858 16.5733C16.335 16.4518 16.2607 16.3415 16.1672 16.2488L15.6727 15.7543C16.07 15.3 16.3795 14.7758 16.5854 14.2085L14.9839 13.6392Z" fill="black"/>
</svg>
