<svg width="24" height="24" viewBox="0 0 24 24" fill="none" xmlns="http://www.w3.org/2000/svg">
<path d="M12 2C10.0222 2 8.08879 2.58649 6.4443 3.6853C4.79981 4.78412 3.51809 6.3459 2.76121 8.17317C2.00433 10.0004 1.8063 12.0111 2.19215 13.9509C2.578 15.8907 3.53041 17.6725 4.92894 19.0711C6.32746 20.4696 8.10929 21.422 10.0491 21.8079C11.9889 22.1937 13.9996 21.9957 15.8268 21.2388C17.6541 20.4819 19.2159 19.2002 20.3147 17.5557C21.4135 15.9112 22 13.9778 22 12C22 10.6868 21.7413 9.38642 21.2388 8.17317C20.7363 6.95991 19.9997 5.85752 19.0711 4.92893C18.1425 4.00035 17.0401 3.26375 15.8268 2.7612C14.6136 2.25866 13.3132 2 12 2ZM7.6 14.85C7.50111 14.85 7.40444 14.8207 7.32222 14.7657C7.24 14.7108 7.17591 14.6327 7.13806 14.5413C7.10022 14.45 7.09032 14.3494 7.10961 14.2525C7.1289 14.1555 7.17652 14.0664 7.24645 13.9964C7.31638 13.9265 7.40547 13.8789 7.50246 13.8596C7.59945 13.8403 7.69998 13.8502 7.79135 13.8881C7.88271 13.9259 7.9608 13.99 8.01574 14.0722C8.07068 14.1544 8.1 14.2511 8.1 14.35C8.1 14.4826 8.04733 14.6098 7.95356 14.7036C7.85979 14.7973 7.73261 14.85 7.6 14.85ZM15.3589 9.6416C14.9179 9.20042 14.3942 8.85045 13.8179 8.61168C13.2416 8.3729 12.6238 8.25001 12 8.25001C11.3762 8.25001 10.7585 8.3729 10.1821 8.61168C9.6058 8.85045 9.08215 9.20042 8.6411 9.6416L8.2876 9.2881C8.77506 8.80047 9.35381 8.41365 9.99079 8.14974C10.6278 7.88583 11.3105 7.74999 12 7.74999C12.6895 7.74999 13.3722 7.88583 14.0092 8.14974C14.6462 8.41365 15.2249 8.80047 15.7124 9.2881L15.3589 9.6416ZM16.4 14.85C16.3011 14.85 16.2044 14.8207 16.1222 14.7657C16.04 14.7108 15.9759 14.6327 15.9381 14.5413C15.9002 14.45 15.8903 14.3494 15.9096 14.2525C15.9289 14.1555 15.9765 14.0664 16.0465 13.9964C16.1164 13.9265 16.2055 13.8789 16.3025 13.8596C16.3994 13.8403 16.5 13.8502 16.5913 13.8881C16.6827 13.9259 16.7608 13.99 16.8157 14.0722C16.8707 14.1544 16.9 14.2511 16.9 14.35C16.9 14.4826 16.8473 14.6098 16.7536 14.7036C16.6598 14.7973 16.5326 14.85 16.4 14.85Z" fill="black"/>
</svg>
