<svg width="24" height="24" viewBox="0 0 24 24" fill="none" xmlns="http://www.w3.org/2000/svg">
<path d="M14.9999 4.65625C14.9999 4.06291 14.824 3.48289 14.4943 2.98954C14.1647 2.49619 13.6962 2.11168 13.148 1.88461C12.5998 1.65755 11.9966 1.59814 11.4147 1.7139C10.8327 1.82965 10.2982 2.11537 9.87862 2.53493C9.45906 2.95449 9.17334 3.48904 9.05758 4.07098C8.94183 4.65292 9.00124 5.25612 9.2283 5.8043C9.45536 6.35248 9.83988 6.82102 10.3332 7.15066C10.8266 7.4803 11.4066 7.65625 11.9999 7.65625C12.7956 7.65625 13.5587 7.34018 14.1213 6.77757C14.6839 6.21496 14.9999 5.4519 14.9999 4.65625ZM11.9999 6.65625C11.6044 6.65625 11.2177 6.53895 10.8888 6.31919C10.5599 6.09943 10.3036 5.78707 10.1522 5.42162C10.0008 5.05617 9.9612 4.65403 10.0384 4.26607C10.1155 3.87811 10.306 3.52174 10.5857 3.24204C10.8654 2.96233 11.2218 2.77185 11.6098 2.69468C11.9977 2.61751 12.3999 2.65712 12.7653 2.80849C13.1308 2.95987 13.4431 3.21621 13.6629 3.54511C13.8826 3.87401 13.9999 4.26069 13.9999 4.65625C13.9993 5.1865 13.7884 5.69485 13.4135 6.06979C13.0385 6.44473 12.5302 6.65564 11.9999 6.65625ZM7.86874 10.6578C8.06367 10.0558 8.06308 9.4076 7.86707 8.80601C7.67106 8.20441 7.28968 7.68028 6.77755 7.30871C6.26543 6.93713 5.64885 6.73716 5.01613 6.73745C4.3834 6.73774 3.76701 6.93828 3.25523 7.31033C2.74345 7.68238 2.36255 8.20686 2.16709 8.80863C1.97163 9.41041 1.97165 10.0586 2.16713 10.6604C2.36261 11.2621 2.74353 11.7866 3.25532 12.1586C3.76711 12.5307 4.38352 12.7312 5.01624 12.7315C5.64976 12.7313 6.26695 12.5305 6.77937 12.158C7.29179 11.7855 7.67313 11.2603 7.86874 10.6578ZM3.11354 9.11265C3.23557 8.73581 3.46665 8.40363 3.77753 8.15817C4.08842 7.9127 4.46514 7.76498 4.86001 7.73371C5.25489 7.70243 5.65016 7.789 5.99582 7.98246C6.34147 8.17592 6.62196 8.46758 6.80179 8.82052C6.98162 9.17345 7.0527 9.57181 7.00605 9.96516C6.95939 10.3585 6.79709 10.7292 6.53968 11.0303C6.28228 11.3313 5.94134 11.5493 5.56002 11.6565C5.1787 11.7637 4.77414 11.7554 4.39754 11.6327C4.1474 11.552 3.91566 11.4228 3.71561 11.2524C3.51557 11.0819 3.35117 10.8736 3.23186 10.6395C3.11255 10.4053 3.04068 10.1499 3.02037 9.88787C3.00007 9.62585 3.03173 9.3624 3.11354 9.11265ZM9.44674 15.5143C8.96672 15.1654 8.39405 14.9668 7.80114 14.9435C7.20823 14.9202 6.62172 15.0732 6.11578 15.3832C5.60984 15.6932 5.2072 16.1463 4.95877 16.6852C4.71035 17.224 4.6273 17.8245 4.72014 18.4105C4.81297 18.9966 5.07751 19.5419 5.48031 19.9777C5.8831 20.4134 6.40606 20.7198 6.98304 20.8583C7.56003 20.9968 8.16512 20.9611 8.72179 20.7556C9.27847 20.5502 9.76172 20.1843 10.1104 19.7043C10.3437 19.3862 10.5117 19.0251 10.6047 18.6418C10.6976 18.2584 10.7137 17.8605 10.652 17.4709C10.5903 17.0813 10.452 16.7078 10.2451 16.372C10.0383 16.0362 9.76691 15.7446 9.44674 15.5143ZM9.30144 19.1169C9.11521 19.3721 8.87141 19.5797 8.58984 19.723C8.30827 19.8663 7.99687 19.9411 7.68094 19.9415C7.31226 19.941 6.95088 19.8387 6.6367 19.6458C6.32252 19.4529 6.06778 19.1769 5.90061 18.8483C5.73345 18.5197 5.66036 18.1513 5.68943 17.7838C5.7185 17.4162 5.8486 17.0639 6.06534 16.7657C6.2516 16.5104 6.49544 16.3027 6.77704 16.1595C7.05865 16.0162 7.37008 15.9414 7.68604 15.9411C8.0547 15.9415 8.41606 16.0438 8.73021 16.2368C9.04436 16.4297 9.29907 16.7057 9.46621 17.0343C9.63335 17.3629 9.70642 17.7313 9.67734 18.0988C9.64827 18.4663 9.51818 18.8186 9.30144 19.1169ZM16.314 14.9411C15.6403 14.9417 14.9864 15.1691 14.4577 15.5866C13.9289 16.0041 13.5561 16.5874 13.3992 17.2427C13.2424 17.8979 13.3107 18.5868 13.593 19.1985C13.8754 19.8102 14.3555 20.309 14.9559 20.6146C15.5563 20.9202 16.2422 21.0149 16.9029 20.8832C17.5636 20.7516 18.1608 20.4014 18.5983 19.889C19.0358 19.3767 19.2881 18.732 19.3145 18.0588C19.3409 17.3856 19.14 16.723 18.744 16.178C18.4663 15.7937 18.101 15.4811 17.6784 15.266C17.2559 15.0509 16.7882 14.9395 16.314 14.9411ZM18.2918 18.2542C18.2174 18.7241 17.9779 19.1521 17.6163 19.4614C17.2548 19.7706 16.7947 19.9409 16.3189 19.9415C16.0031 19.941 15.6918 19.8662 15.4103 19.7229C15.1288 19.5796 14.8851 19.372 14.6989 19.1169C14.4822 18.8186 14.3521 18.4662 14.323 18.0987C14.294 17.7312 14.3671 17.3627 14.5343 17.0341C14.7015 16.7055 14.9562 16.4295 15.2704 16.2366C15.5846 16.0437 15.946 15.9414 16.3147 15.9411C16.6306 15.9414 16.9419 16.0163 17.2234 16.1596C17.5048 16.3029 17.7486 16.5105 17.9347 16.7657C18.0897 16.9778 18.2011 17.2186 18.2624 17.4741C18.3237 17.7296 18.3337 17.9948 18.2918 18.2542ZM21.8374 8.80365C21.6543 8.23863 21.3077 7.74062 20.8415 7.37264C20.3753 7.00466 19.8104 6.78324 19.2183 6.73641C18.6262 6.68957 18.0335 6.81943 17.5152 7.10954C16.9969 7.39965 16.5764 7.83698 16.3067 8.36618C16.037 8.89539 15.9304 9.4927 16.0003 10.0825C16.0702 10.6723 16.3135 11.2282 16.6994 11.6797C17.0853 12.1312 17.5965 12.4581 18.1682 12.619C18.74 12.7799 19.3466 12.7676 19.9113 12.5837C20.6678 12.3375 21.2957 11.8011 21.6568 11.0923C22.018 10.3835 22.083 9.56033 21.8374 8.80365ZM19.6023 11.6329C19.2261 11.7551 18.8221 11.763 18.4414 11.6557C18.0607 11.5483 17.7204 11.3304 17.4635 11.0296C17.2066 10.7288 17.0446 10.3586 16.9981 9.96578C16.9517 9.57295 17.0227 9.17516 17.2023 8.82271C17.3819 8.47026 17.662 8.17898 18.0071 7.98571C18.3523 7.79244 18.747 7.70586 19.1413 7.73692C19.5357 7.76798 19.9119 7.91528 20.2226 8.16019C20.5332 8.4051 20.7642 8.73663 20.8864 9.11285C21.0496 9.61732 21.006 10.1659 20.7653 10.6383C20.5246 11.1107 20.1064 11.4683 19.6023 11.6329Z" fill="black"/>
</svg>
