<svg width="24" height="24" viewBox="0 0 24 24" fill="none" xmlns="http://www.w3.org/2000/svg">
<path d="M15.2235 4.87995C15.2235 4.24239 15.0345 3.61914 14.6803 3.08902C14.3261 2.55889 13.8227 2.14569 13.2337 1.90168C12.6447 1.65767 11.9965 1.59381 11.3712 1.71817C10.7459 1.84252 10.1715 2.14952 9.72069 2.60032C9.26986 3.05113 8.96283 3.6255 8.83844 4.2508C8.71404 4.87611 8.77786 5.52426 9.02184 6.11329C9.26581 6.70231 9.67897 7.20577 10.2091 7.55998C10.7392 7.91419 11.3624 8.10325 12 8.10325C12.8549 8.10325 13.6748 7.76366 14.2793 7.15918C14.8838 6.5547 15.2234 5.73484 15.2235 4.87995ZM12 6.10325C11.758 6.10327 11.5214 6.03152 11.3201 5.89707C11.1189 5.76261 10.962 5.5715 10.8694 5.3479C10.7768 5.1243 10.7526 4.87826 10.7998 4.64089C10.847 4.40352 10.9636 4.18549 11.1347 4.01436C11.3059 3.84324 11.5239 3.72672 11.7613 3.67953C11.9987 3.63235 12.2447 3.65661 12.4683 3.74927C12.6919 3.84192 12.883 3.9988 13.0174 4.20006C13.1518 4.40133 13.2235 4.63793 13.2235 4.87995C13.2231 5.2043 13.094 5.51523 12.8646 5.74456C12.6353 5.97389 12.3243 6.10288 12 6.10325ZM8.29398 10.7958C8.50334 10.149 8.50265 9.45261 8.29201 8.80629C8.08137 8.15997 7.67159 7.59689 7.12137 7.19771C6.57114 6.79853 5.90869 6.58372 5.22891 6.58405C4.54913 6.58439 3.8869 6.79985 3.33707 7.19957C2.78723 7.5993 2.378 8.16278 2.168 8.80931C1.958 9.45583 1.958 10.1522 2.16799 10.7988C2.37799 11.4453 2.78721 12.0088 3.33704 12.4085C3.88687 12.8082 4.5491 13.0237 5.22888 13.0241C5.90962 13.0238 6.57282 12.8081 7.12343 12.4078C7.67404 12.0076 8.0838 11.4432 8.29398 10.7958ZM4.06458 9.42155C4.13911 9.19055 4.28052 8.98687 4.4709 8.8363C4.66128 8.68574 4.89207 8.59507 5.13403 8.57578C5.37599 8.5565 5.61822 8.60946 5.83006 8.72796C6.04189 8.84646 6.21378 9.02517 6.32396 9.24144C6.43414 9.45772 6.47765 9.70183 6.44897 9.94286C6.4203 10.1839 6.32073 10.411 6.16288 10.5954C6.00503 10.7798 5.79601 10.9131 5.56228 10.9786C5.32856 11.0441 5.08066 11.0388 4.84998 10.9633C4.697 10.9139 4.55527 10.8348 4.43293 10.7305C4.31059 10.6262 4.21005 10.4988 4.13708 10.3555C4.0641 10.2123 4.02013 10.056 4.00769 9.89577C3.99525 9.73549 4.01459 9.57434 4.06458 9.42155ZM9.70998 15.1525C9.19418 14.7776 8.57881 14.5642 7.94169 14.5391C7.30458 14.5141 6.67435 14.6785 6.13069 15.0116C5.58702 15.3447 5.15436 15.8316 4.88741 16.4106C4.62045 16.9897 4.5312 17.6349 4.63094 18.2646C4.73068 18.8944 5.01492 19.4804 5.44773 19.9486C5.88054 20.4168 6.44247 20.7462 7.06246 20.895C7.68246 21.0438 8.33266 21.0055 8.93084 20.7848C9.52903 20.564 10.0483 20.1709 10.4231 19.6551C10.6738 19.3133 10.8543 18.9252 10.9542 18.5133C11.054 18.1014 11.0713 17.6738 11.005 17.2551C10.9387 16.8365 10.7901 16.4351 10.5679 16.0742C10.3456 15.7133 10.054 15.4 9.70998 15.1525ZM8.80468 18.48C8.63829 18.709 8.39764 18.8732 8.12373 18.9447C7.84981 19.0162 7.55959 18.9905 7.3025 18.872C7.04541 18.7535 6.83737 18.5495 6.71383 18.2948C6.59028 18.0401 6.55887 17.7504 6.62495 17.4751C6.69103 17.1999 6.85051 16.956 7.07622 16.7852C7.30193 16.6143 7.5799 16.527 7.86277 16.5381C8.14564 16.5492 8.41591 16.6581 8.62752 16.8461C8.83913 17.0342 8.979 17.2898 9.02328 17.5694C9.04896 17.728 9.04286 17.8903 9.00534 18.0466C8.96781 18.2029 8.8996 18.3502 8.80468 18.48ZM16.1826 14.537C15.4586 14.5374 14.7558 14.7815 14.1874 15.23C13.619 15.6785 13.2182 16.3053 13.0495 17.0093C12.8807 17.7134 12.9539 18.4538 13.2572 19.1112C13.5605 19.7686 14.0763 20.3048 14.7215 20.6333C15.3667 20.9619 16.1037 21.0637 16.8138 20.9223C17.5238 20.781 18.1657 20.4047 18.6358 19.8541C19.106 19.3035 19.3772 18.6107 19.4056 17.8873C19.434 17.1638 19.2181 16.4518 18.7926 15.8661C18.4943 15.4532 18.102 15.1173 17.6481 14.8862C17.1943 14.655 16.6919 14.5351 16.1826 14.5366V14.537ZM16.9043 18.7506C16.6753 18.9169 16.3957 18.9987 16.1131 18.9821C15.8305 18.9654 15.5625 18.8513 15.3546 18.6591C15.1468 18.467 15.012 18.2087 14.9732 17.9283C14.9344 17.6479 14.9941 17.3627 15.142 17.1214C15.2899 16.88 15.5169 16.6974 15.7843 16.6047C16.0518 16.512 16.3431 16.5149 16.6087 16.6128C16.8742 16.7108 17.0976 16.8979 17.2407 17.1421C17.3839 17.3863 17.4379 17.6726 17.3936 17.9522C17.369 18.1109 17.313 18.2632 17.229 18.4002C17.145 18.5371 17.0346 18.656 16.9043 18.75V18.7506ZM21.8375 8.80395C21.6407 8.19686 21.2683 7.66177 20.7673 7.26639C20.2664 6.871 19.6594 6.6331 19.0232 6.58277C18.387 6.53244 17.7502 6.67196 17.1933 6.98366C16.6364 7.29536 16.1845 7.76524 15.8947 8.33384C15.605 8.90245 15.4904 9.54423 15.5654 10.178C15.6405 10.8117 15.9019 11.409 16.3165 11.8942C16.7311 12.3793 17.2803 12.7306 17.8945 12.9036C18.5088 13.0766 19.1606 13.0634 19.7675 12.8659C20.5805 12.6015 21.2553 12.025 21.6435 11.2632C22.0317 10.5015 22.1014 9.61675 21.8375 8.80355V8.80395ZM19.1498 10.964C18.9195 11.0389 18.6722 11.0438 18.4392 10.9781C18.2061 10.9125 17.9978 10.7792 17.8405 10.5951C17.6832 10.411 17.5841 10.1844 17.5556 9.94394C17.5271 9.70349 17.5706 9.46 17.6806 9.24427C17.7905 9.02854 17.9619 8.85026 18.1732 8.73198C18.3845 8.6137 18.6261 8.56074 18.8674 8.57979C19.1088 8.59884 19.3391 8.68905 19.5292 8.83901C19.7193 8.98897 19.8607 9.19195 19.9354 9.42225C19.9853 9.57499 20.0045 9.73608 19.9921 9.89629C19.9796 10.0565 19.9356 10.2126 19.8626 10.3558C19.7896 10.499 19.6891 10.6263 19.5668 10.7306C19.4446 10.8348 19.3029 10.9139 19.15 10.9633L19.1498 10.964Z" fill="black"/>
</svg>
