<svg width="24" height="24" viewBox="0 0 24 24" fill="none" xmlns="http://www.w3.org/2000/svg">
<path d="M15.2235 4.87995C15.2235 4.24239 15.0345 3.61914 14.6803 3.08902C14.3261 2.55889 13.8227 2.14569 13.2337 1.90168C12.6447 1.65767 11.9965 1.59381 11.3712 1.71817C10.7459 1.84252 10.1715 2.14952 9.72069 2.60032C9.26986 3.05113 8.96283 3.6255 8.83844 4.2508C8.71404 4.87611 8.77786 5.52426 9.02184 6.11329C9.26581 6.70231 9.67897 7.20577 10.2091 7.55998C10.7392 7.91419 11.3624 8.10325 12 8.10325C12.8549 8.10325 13.6748 7.76366 14.2793 7.15918C14.8838 6.5547 15.2234 5.73484 15.2235 4.87995ZM12 6.60325C11.6591 6.60327 11.3258 6.50219 11.0423 6.3128C10.7589 6.12341 10.5379 5.85421 10.4075 5.53924C10.277 5.22428 10.2429 4.8777 10.3094 4.54334C10.3759 4.20898 10.5401 3.90186 10.7812 3.66081C11.0223 3.41976 11.3294 3.25562 11.6638 3.18914C11.9981 3.12266 12.3447 3.15683 12.6597 3.28733C12.9746 3.41783 13.2438 3.63879 13.4331 3.92228C13.6225 4.20576 13.7235 4.53904 13.7235 4.87995C13.7229 5.33685 13.5411 5.77488 13.218 6.09794C12.8949 6.421 12.4569 6.60272 12 6.60325ZM8.29398 10.7958C8.50334 10.149 8.50265 9.45261 8.29201 8.80629C8.08137 8.15997 7.67159 7.59689 7.12137 7.19771C6.57114 6.79853 5.90869 6.58372 5.22891 6.58405C4.54913 6.58439 3.8869 6.79985 3.33707 7.19957C2.78723 7.5993 2.378 8.16278 2.168 8.80931C1.958 9.45583 1.958 10.1522 2.16799 10.7988C2.37799 11.4453 2.78721 12.0088 3.33704 12.4085C3.88687 12.8082 4.5491 13.0237 5.22888 13.0241C5.90962 13.0238 6.57282 12.8081 7.12343 12.4078C7.67404 12.0076 8.0838 11.4432 8.29398 10.7958ZM3.58908 9.26715C3.69413 8.94209 3.89328 8.6555 4.1613 8.44369C4.42932 8.23187 4.75417 8.10435 5.09471 8.07727C5.43526 8.05019 5.77618 8.12477 6.07431 8.29156C6.37244 8.45835 6.61438 8.70986 6.76948 9.01424C6.92458 9.31862 6.98588 9.66217 6.94561 10.0014C6.90534 10.3406 6.76532 10.6603 6.54326 10.9199C6.32121 11.1795 6.02712 11.3674 5.69822 11.4598C5.36933 11.5521 5.02042 11.5448 4.69568 11.4388C4.48013 11.3693 4.28042 11.2579 4.10803 11.111C3.93564 10.9642 3.79396 10.7847 3.69114 10.5829C3.58831 10.3811 3.52636 10.161 3.50885 9.9352C3.49134 9.70941 3.5186 9.48238 3.58908 9.26715ZM9.70998 15.1525C9.19418 14.7776 8.57881 14.5642 7.94169 14.5391C7.30458 14.5141 6.67435 14.6785 6.13069 15.0116C5.58702 15.3447 5.15436 15.8316 4.88741 16.4106C4.62045 16.9897 4.5312 17.6349 4.63094 18.2646C4.73068 18.8944 5.01492 19.4804 5.44773 19.9486C5.88054 20.4168 6.44247 20.7462 7.06246 20.895C7.68246 21.0438 8.33266 21.0055 8.93084 20.7848C9.52903 20.564 10.0483 20.1709 10.4231 19.6551C10.6738 19.3133 10.8543 18.9252 10.9542 18.5133C11.054 18.1014 11.0713 17.6738 11.005 17.2551C10.9387 16.8365 10.7901 16.4351 10.5679 16.0742C10.3456 15.7133 10.054 15.4 9.70998 15.1525ZM9.20998 18.7734C8.9756 19.0959 8.63663 19.3272 8.25083 19.4279C7.86502 19.5285 7.45626 19.4923 7.09418 19.3253C6.73209 19.1584 6.4391 18.871 6.26512 18.5123C6.09114 18.1535 6.04693 17.7456 6.14003 17.3579C6.23313 16.9702 6.45777 16.6267 6.77569 16.3861C7.09361 16.1455 7.48513 16.0225 7.88353 16.0382C8.28194 16.0539 8.66259 16.2072 8.96062 16.4721C9.25865 16.7369 9.45563 17.0969 9.51798 17.4908C9.55409 17.7143 9.54538 17.9429 9.49236 18.1631C9.43935 18.3832 9.34309 18.5907 9.20918 18.7734H9.20998ZM16.1834 14.5366C15.4594 14.537 14.7566 14.7811 14.1882 15.2296C13.6198 15.6781 13.219 16.3049 13.0503 17.0089C12.8815 17.713 12.9547 18.4534 13.258 19.1108C13.5613 19.7682 14.0771 20.3044 14.7223 20.6329C15.3675 20.9615 16.1045 21.0633 16.8146 20.9219C17.5246 20.7806 18.1665 20.4043 18.6366 19.8537C19.1068 19.3031 19.378 18.6103 19.4064 17.8869C19.4348 17.1634 19.2189 16.4514 18.7934 15.8657C18.4949 15.4528 18.1025 15.1169 17.6485 14.8858C17.1945 14.6547 16.692 14.535 16.1826 14.5366H16.1834ZM17.199 19.1547C16.9232 19.3551 16.5941 19.4692 16.2535 19.4826C15.9128 19.496 15.5758 19.4081 15.2851 19.23C14.9944 19.0519 14.7631 18.7916 14.6203 18.4819C14.4776 18.1723 14.4299 17.8273 14.4832 17.4906C14.5365 17.1539 14.6885 16.8405 14.9199 16.5902C15.1514 16.3398 15.4519 16.1637 15.7834 16.0842C16.1149 16.0046 16.4626 16.0251 16.7824 16.1431C17.1023 16.2612 17.3799 16.4714 17.5803 16.7473C17.7152 16.9297 17.8124 17.1372 17.8663 17.3576C17.9201 17.578 17.9295 17.807 17.894 18.0311C17.8584 18.2552 17.7786 18.4699 17.6591 18.6628C17.5396 18.8558 17.3829 19.0229 17.1982 19.1547H17.199ZM21.8375 8.80355C21.6407 8.19646 21.2683 7.66137 20.7673 7.26599C20.2664 6.8706 19.6594 6.6327 19.0232 6.58237C18.387 6.53204 17.7502 6.67156 17.1933 6.98326C16.6364 7.29496 16.1845 7.76483 15.8947 8.33344C15.605 8.90205 15.4904 9.54383 15.5654 10.1776C15.6405 10.8113 15.9019 11.4086 16.3165 11.8938C16.7311 12.3789 17.2803 12.7302 17.8945 12.9032C18.5088 13.0762 19.1606 13.063 19.7675 12.8655C20.5804 12.6011 21.2551 12.0247 21.6433 11.263C22.0315 10.5013 22.1013 9.6167 21.8375 8.80355ZM19.3044 11.4388C18.9801 11.5442 18.6318 11.5512 18.3035 11.4587C17.9753 11.3662 17.6819 11.1785 17.4604 10.9192C17.2388 10.6599 17.0992 10.3407 17.0591 10.0021C17.019 9.66344 17.0802 9.3205 17.235 9.01665C17.3898 8.71279 17.6313 8.46168 17.9288 8.29507C18.2264 8.12846 18.5666 8.05383 18.9066 8.08064C19.2466 8.10744 19.571 8.23447 19.8387 8.44565C20.1065 8.65684 20.3056 8.94269 20.4109 9.26705C20.4809 9.4823 20.5079 9.70924 20.4902 9.9349C20.4725 10.1606 20.4104 10.3805 20.3077 10.5822C20.2049 10.7839 20.0634 10.9634 19.8913 11.1103C19.7191 11.2573 19.5197 11.3689 19.3044 11.4388Z" fill="black"/>
</svg>
