<svg width="24" height="24" viewBox="0 0 24 24" fill="none" xmlns="http://www.w3.org/2000/svg">
<path d="M15 4.65625C15 4.06291 14.824 3.48289 14.4944 2.98954C14.1647 2.49619 13.6962 2.11168 13.148 1.88461C12.5998 1.65755 11.9966 1.59814 11.4147 1.7139C10.8328 1.82965 10.2982 2.11537 9.87865 2.53493C9.45909 2.95449 9.17337 3.48904 9.05761 4.07098C8.94186 4.65292 9.00127 5.25612 9.22833 5.8043C9.45539 6.35248 9.83991 6.82102 10.3333 7.15066C10.8266 7.4803 11.4066 7.65625 12 7.65625C12.7956 7.65625 13.5587 7.34018 14.1213 6.77757C14.6839 6.21496 15 5.4519 15 4.65625ZM7.86877 10.6578C8.05214 10.0934 8.06406 9.48743 7.90301 8.91635C7.74195 8.34526 7.41517 7.83477 6.96398 7.44941C6.51279 7.06405 5.95746 6.82115 5.36822 6.75141C4.77897 6.68167 4.18228 6.78824 3.6536 7.05763C3.12492 7.32701 2.688 7.74713 2.39809 8.26484C2.10818 8.78255 1.9783 9.3746 2.02489 9.96613C2.07147 10.5577 2.29241 11.1221 2.65978 11.588C3.02715 12.054 3.52444 12.4005 4.08877 12.5839C4.84545 12.8297 5.66877 12.7648 6.37765 12.4036C7.08653 12.0424 7.62289 11.4144 7.86877 10.6578ZM9.44677 15.5143C8.96675 15.1654 8.39408 14.9668 7.80117 14.9435C7.20826 14.9202 6.62175 15.0732 6.11581 15.3832C5.60987 15.6932 5.20723 16.1463 4.9588 16.6852C4.71038 17.224 4.62733 17.8245 4.72017 18.4105C4.813 18.9966 5.07754 19.5419 5.48034 19.9777C5.88313 20.4134 6.40609 20.7198 6.98307 20.8583C7.56005 20.9968 8.16515 20.9611 8.72182 20.7556C9.2785 20.5502 9.76175 20.1843 10.1105 19.7043C10.578 19.0606 10.7707 18.2576 10.6463 17.4718C10.5218 16.6861 10.0903 15.9819 9.44677 15.5143ZM14.5532 15.5143C14.0731 15.863 13.7072 16.3462 13.5018 16.9029C13.2963 17.4596 13.2606 18.0647 13.3991 18.6416C13.5376 19.2186 13.8441 19.7416 14.2798 20.1444C14.7155 20.5472 15.2608 20.8117 15.8469 20.9046C16.433 20.9974 17.0334 20.9143 17.5723 20.6659C18.1111 20.4175 18.5642 20.0149 18.8742 19.5089C19.1842 19.003 19.3373 18.4165 19.3139 17.8236C19.2906 17.2306 19.092 16.658 18.7432 16.178C18.2755 15.5344 17.5714 15.1029 16.7856 14.9784C15.9999 14.854 15.1968 15.0467 14.5532 15.5143ZM21.8375 8.80365C21.6542 8.23932 21.3076 7.74203 20.8417 7.37466C20.3757 7.00729 19.8113 6.78635 19.2197 6.73977C18.6282 6.69319 18.0362 6.82306 17.5185 7.11297C17.0007 7.40288 16.5806 7.83981 16.3112 8.36848C16.0419 8.89716 15.9353 9.49385 16.005 10.0831C16.0748 10.6723 16.3177 11.2277 16.703 11.6789C17.0884 12.1301 17.5989 12.4568 18.17 12.6179C18.741 12.7789 19.3471 12.767 19.9114 12.5837C20.668 12.3378 21.296 11.8014 21.6572 11.0925C22.0184 10.3837 22.0833 9.56033 21.8375 8.80365Z" fill="black"/>
</svg>
