<svg width="24" height="24" viewBox="0 0 24 24" fill="none" xmlns="http://www.w3.org/2000/svg">
<path d="M2 4V20H22V4H2ZM21.5 19.5H2.5V4.5H21.5V19.5ZM8.95 15.5C9.14107 15.513 9.3328 15.4873 9.51369 15.4244C9.69459 15.3615 9.86092 15.2628 10.0027 15.134C10.1445 15.0053 10.2588 14.8493 10.3389 14.6753C10.4189 14.5013 10.4629 14.3129 10.4684 14.1215V9H14.9684V14.0083C14.6032 13.7992 14.1881 13.6934 13.7674 13.702C13.5201 13.6942 13.2798 13.7843 13.0985 13.9526C12.9171 14.1209 12.8095 14.3538 12.7988 14.601C12.7988 15.0791 13.2301 15.5 13.95 15.5C14.1411 15.513 14.3328 15.4873 14.5137 15.4244C14.6946 15.3615 14.8609 15.2628 15.0027 15.134C15.1445 15.0053 15.2588 14.8493 15.3389 14.6753C15.4189 14.5013 15.4629 14.3129 15.4684 14.1215V8.5H9.9684V14.0083C9.60323 13.7992 9.1881 13.6934 8.7674 13.702C8.52014 13.6942 8.27978 13.7843 8.09846 13.9526C7.91714 14.1209 7.80947 14.3538 7.7988 14.601C7.7992 15.0791 8.2305 15.5 8.95 15.5ZM13.95 15C13.5726 15 13.2988 14.8322 13.2988 14.601C13.3099 14.4867 13.365 14.3812 13.4524 14.3068C13.5399 14.2323 13.6528 14.1948 13.7674 14.202C14.1485 14.1844 14.5243 14.2957 14.8344 14.5179L14.8584 14.5384C14.761 14.6885 14.6257 14.8102 14.4662 14.8913C14.3067 14.9723 14.1286 15.0098 13.95 15ZM8.7674 14.202C9.14846 14.1844 9.52434 14.2957 9.8344 14.5179L9.8584 14.5384C9.76101 14.6885 9.62573 14.8102 9.46622 14.8913C9.30672 14.9723 9.12865 15.0098 8.95 15C8.5726 15 8.2988 14.8322 8.2988 14.601C8.30993 14.4866 8.36508 14.3811 8.45259 14.3066C8.54011 14.2322 8.65314 14.1947 8.7678 14.202H8.7674Z" fill="black"/>
</svg>
