<svg width="24" height="24" viewBox="0 0 24 24" fill="none" xmlns="http://www.w3.org/2000/svg">
<path d="M9 13.5981C9.00001 13.8614 9.06932 14.1201 9.20097 14.3481C9.33262 14.5761 9.52198 14.7655 9.75 14.8971L12 16.1962L14.25 14.8971C14.478 14.7655 14.6674 14.5761 14.799 14.3481C14.9307 14.1201 15 13.8614 15 13.5981V11.9415L16.9912 10.7866L12 7.8917L7.0088 10.7866L9 11.9415V13.5981ZM14.5 13.5981C14.4997 13.7736 14.4534 13.9459 14.3656 14.0979C14.2779 14.2498 14.1518 14.3761 14 14.4641L12 15.6188L10 14.4641C9.84819 14.3761 9.72212 14.2498 9.63438 14.0979C9.54664 13.9459 9.50031 13.7736 9.5 13.5981V12.2314L12 13.6814L14.5 12.2314V13.5981ZM8.0054 10.7866L12 8.47L15.9946 10.7869L12 13.1034L8.0054 10.7866ZM2 4V20H22V4H2ZM21.5 19.5H2.5V4.5H21.5V19.5Z" fill="black"/>
</svg>
