<svg width="24" height="24" viewBox="0 0 24 24" fill="none" xmlns="http://www.w3.org/2000/svg">
<path d="M3 3V21H21V3H3ZM15.5 3.5H17.5V5.5H15.5V3.5ZM6.5 3.5H8.5V5.5H6.5V3.5ZM8.5 20.5H6.5V18.5H8.5V20.5ZM17.5 20.5H15.5V18.5H17.5V20.5ZM20.5 20.5H18V18H15V20.5H9V18H6V20.5H3.5V3.5H6V6H9V3.5H15V6H18V3.5H20.5V20.5ZM15 16H18V13H15V16ZM15.5 13.5H17.5V15.5H15.5V13.5ZM15 11H18V8H15V11ZM15.5 8.5H17.5V10.5H15.5V8.5ZM6 16H9V13H6V16ZM6.5 13.5H8.5V15.5H6.5V13.5ZM6 11H9V8H6V11ZM6.5 8.5H8.5V10.5H6.5V8.5Z" fill="black"/>
</svg>
