<svg width="24" height="24" viewBox="0 0 24 24" fill="none" xmlns="http://www.w3.org/2000/svg">
<path d="M15.4141 2H4V22H20V6.5859L15.4141 2ZM18.5 20.5H5.5V3.5H14.7927L18.5 7.2073V20.5ZM14.1484 10.9521C14.5567 10.8163 14.9119 10.5553 15.1635 10.2062C15.4151 9.85711 15.5503 9.43762 15.55 9.0073V8.5H14.45V9.0073C14.4503 9.20669 14.3877 9.40109 14.2711 9.56284C14.1545 9.72459 13.9899 9.84544 13.8006 9.9082L12.8 10.242V9.3C12.8 9.08783 12.7157 8.88434 12.5657 8.73431C12.4157 8.58429 12.2122 8.5 12 8.5C11.7878 8.5 11.5843 8.58429 11.4343 8.73431C11.2843 8.88434 11.2 9.08783 11.2 9.3V10.242L10.1992 9.9082C10.01 9.84541 9.84539 9.72454 9.72883 9.56279C9.61228 9.40105 9.5497 9.20667 9.55 9.0073V8.5H8.45V9.0073C8.44966 9.43759 8.58486 9.85706 8.83642 10.2062C9.08798 10.5553 9.44311 10.8163 9.8514 10.9521L11.1998 11.4014V11.45H8V12.55H11.2V12.5988L9.8516 13.0481C9.4433 13.1839 9.08815 13.4448 8.83656 13.7939C8.58497 14.143 8.44971 14.5624 8.45 14.9927V15.5H9.55V14.9927C9.54971 14.7933 9.61232 14.5989 9.72891 14.4372C9.84551 14.2754 10.0101 14.1546 10.1994 14.0918L11.2467 13.7426C11.2931 13.9067 11.3918 14.0511 11.5278 14.1539C11.6638 14.2568 11.8297 14.3124 12.0002 14.3124C12.1707 14.3124 12.3366 14.2568 12.4726 14.1539C12.6086 14.0511 12.7073 13.9067 12.7537 13.7426L13.801 14.0918C13.9903 14.1546 14.1549 14.2754 14.2715 14.4372C14.3881 14.5989 14.4507 14.7933 14.4504 14.9927V15.5H15.5504V14.9927C15.5507 14.5624 15.4155 14.1429 15.164 13.7938C14.9124 13.4447 14.5573 13.1837 14.149 13.0479L12.8 12.5986V12.55H16V11.45H12.8V11.4012L14.1484 10.9521Z" fill="black"/>
</svg>
