<svg width="24" height="24" viewBox="0 0 24 24" fill="none" xmlns="http://www.w3.org/2000/svg">
<g clip-path="url(#clip0)">
<path d="M21.7937 11.8647C22.1609 10.8559 22.2148 9.75984 21.9486 8.71989C21.6823 7.67994 21.1082 6.74463 20.3015 6.03641C19.4948 5.32819 18.493 4.88008 17.4273 4.75073C16.3616 4.62139 15.2818 4.81684 14.329 5.31151C13.2721 4.3207 11.9298 3.68824 10.4928 3.50404C9.05583 3.31985 7.59737 3.59329 6.32472 4.28549C5.05206 4.9777 4.02998 6.05345 3.40375 7.35983C2.77751 8.66621 2.579 10.1367 2.83643 11.5624C1.87865 11.9189 1.07673 12.6008 0.570965 13.4889C0.0652031 14.3769 -0.112187 15.4145 0.0698314 16.4202C0.25185 17.4258 0.781686 18.3354 1.56663 18.9898C2.35158 19.6443 3.34166 20.0019 4.36363 20H19.6364C20.5983 20.0031 21.5341 19.6873 22.2974 19.102C23.0607 18.5166 23.6085 17.6948 23.8551 16.765C24.1016 15.8353 24.0331 14.85 23.6601 13.9633C23.2871 13.0767 22.6308 12.3387 21.7937 11.8647ZM19.6364 18.5H4.36363C3.60442 18.4991 2.87656 18.1972 2.33972 17.6603C1.80288 17.1235 1.5009 16.3956 1.50003 15.6364C1.49873 15.0538 1.67691 14.485 2.01034 14.0073C2.34376 13.5295 2.81625 13.1661 3.36353 12.9664L4.53463 12.5264L4.31263 11.2953C4.1073 10.1788 4.26014 9.02586 4.74933 8.00138C5.23851 6.9769 6.039 6.13325 7.0364 5.59099C8.03381 5.04873 9.17709 4.83561 10.3029 4.98207C11.4287 5.12854 12.4794 5.6271 13.3048 6.40651L14.0722 7.12381L15.0086 6.64791C15.5454 6.36632 16.1414 6.21649 16.7475 6.21081C17.7743 6.21187 18.7588 6.62026 19.4848 7.34635C20.2108 8.07244 20.6191 9.05692 20.62 10.0837C20.614 10.5214 20.5328 10.9548 20.38 11.365L19.9635 12.5439L21.0481 13.1659C21.4882 13.411 21.8549 13.7692 22.1103 14.2034C22.3656 14.6376 22.5004 15.1322 22.5006 15.6359C22.4999 16.3953 22.1979 17.1234 21.6609 17.6604C21.1239 18.1973 20.3958 18.4993 19.6364 18.5ZM13.9424 9.06741L12 11.01L10.0576 9.06741L9.06763 10.0574L11.01 12L9.06743 13.9424L10.0574 14.9324L12 12.99L13.9424 14.9324L14.9324 13.9424L12.99 12L14.9324 10.0576L13.9424 9.06741Z" fill="black"/>
</g>
<defs>
<clipPath id="clip0">
<rect width="24" height="24" fill="white"/>
</clipPath>
</defs>
</svg>
