<svg width="24" height="24" viewBox="0 0 24 24" fill="none" xmlns="http://www.w3.org/2000/svg">
<path d="M15.4141 2H4V22H20V6.5859L15.4141 2ZM18 20H6V4H14.5856L18 7.4144V20ZM14.1641 11C14.5826 10.8611 14.9467 10.5937 15.2045 10.236C15.4623 9.87822 15.6007 9.44827 15.6 9.0073V8.5H14.4V9.0073C14.4001 9.19615 14.3407 9.38022 14.2303 9.53342C14.1198 9.68661 13.964 9.80116 13.7848 9.8608L13 10.1226V9.5C13 9.23478 12.8946 8.98043 12.7071 8.79289C12.5196 8.60536 12.2652 8.5 12 8.5C11.7348 8.5 11.4804 8.60536 11.2929 8.79289C11.1054 8.98043 11 9.23478 11 9.5V10.1226L10.2148 9.8608C10.0357 9.80109 9.87993 9.68651 9.76958 9.53332C9.65923 9.38013 9.5999 9.1961 9.6 9.0073V8.5H8.4V9.0073C8.39932 9.44827 8.53773 9.87822 8.79553 10.236C9.05332 10.5937 9.41738 10.8611 9.8359 11L11 11.3875V11.4H8V12.6H11V12.6124L9.8359 13.0004C9.41745 13.1393 9.05344 13.4066 8.79564 13.7643C8.53785 14.1219 8.39941 14.5518 8.4 14.9927V15.5H9.6V14.9927C9.59993 14.8039 9.65932 14.6198 9.76974 14.4666C9.88017 14.3134 10.036 14.1988 10.2152 14.1392L11.1613 13.8237C11.2455 13.9721 11.3675 14.0955 11.5149 14.1814C11.6623 14.2673 11.8298 14.3125 12.0005 14.3125C12.1711 14.3125 12.3386 14.2673 12.486 14.1814C12.6334 14.0955 12.7554 13.9721 12.8396 13.8237L13.7856 14.1392C13.9648 14.1988 14.1206 14.3134 14.2311 14.4666C14.3415 14.6198 14.4009 14.8039 14.4008 14.9927V15.5H15.6V14.9927C15.6006 14.5519 15.4622 14.1221 15.2045 13.7644C14.9468 13.4068 14.5829 13.1394 14.1645 13.0005L13 12.6125V12.6H16V11.4H13V11.3876L14.1641 11Z" fill="black"/>
</svg>
