<svg width="24" height="24" viewBox="0 0 24 24" fill="none" xmlns="http://www.w3.org/2000/svg">
<path d="M12 0.924316L3 4.48732V12.06C3.00293 13.9903 3.51243 15.8861 4.47759 17.5578C5.44275 19.2295 6.82976 20.6186 8.5 21.5863L12 23.6064L15.5 21.5859C17.1702 20.6183 18.5572 19.2292 19.5223 17.5576C20.4875 15.8859 20.997 13.9903 21 12.06V4.48732L12 0.924316ZM14.791 13.7843L14.084 14.4913L12 12.407L9.916 14.491L9.209 13.784L11.293 11.7L9.209 9.61602L9.916 8.90902L12 10.993L14.084 8.90902L14.791 9.61602L12.707 11.7L14.791 13.7843Z" fill="black"/>
</svg>
