<svg width="24" height="24" viewBox="0 0 24 24" fill="none" xmlns="http://www.w3.org/2000/svg">
<g clip-path="url(#clip0)">
<path d="M21.7937 11.8647C22.1608 10.856 22.2148 9.75986 21.9485 8.71993C21.6823 7.68 21.1082 6.7447 20.3015 6.03649C19.4948 5.32828 18.493 4.88016 17.4274 4.7508C16.3617 4.62144 15.2818 4.81687 14.3291 5.3115C13.2722 4.32064 11.9299 3.68815 10.4929 3.50393C9.05589 3.31972 7.59739 3.59315 6.32472 4.28536C5.05204 4.97757 4.02994 6.05334 3.40371 7.35974C2.77747 8.66615 2.57897 10.1367 2.83643 11.5624C1.87865 11.9189 1.07673 12.6008 0.570965 13.4889C0.0652031 14.3769 -0.112187 15.4145 0.0698314 16.4202C0.25185 17.4258 0.781686 18.3354 1.56663 18.9898C2.35158 19.6443 3.34166 20.0018 4.36363 20H19.6364C20.5983 20.0031 21.5341 19.6873 22.2974 19.1019C23.0607 18.5166 23.6085 17.6948 23.8551 16.765C24.1016 15.8352 24.0331 14.85 23.6601 13.9633C23.2871 13.0767 22.6308 12.3387 21.7937 11.8647ZM19.6364 19H4.36363C3.57585 19.002 2.81251 18.7267 2.2073 18.2224C1.60209 17.7181 1.1936 17.0169 1.05339 16.2417C0.913177 15.4665 1.05018 14.6667 1.4404 13.9824C1.83062 13.298 2.44918 12.7728 3.18773 12.4987L3.96853 12.2056L3.82063 11.3849C3.59662 10.165 3.76383 8.90541 4.2984 7.78617C4.83296 6.66693 5.70753 5.74523 6.7972 5.15271C7.88687 4.56019 9.1359 4.32715 10.3659 4.48687C11.5959 4.6466 12.744 5.19092 13.6462 6.0421L14.1578 6.5202L14.7821 6.2029C15.389 5.88549 16.0628 5.71708 16.7476 5.7116C17.9068 5.71293 19.018 6.17399 19.8377 6.99363C20.6573 7.81327 21.1183 8.92457 21.1196 10.0837C21.1138 10.5782 21.0229 11.068 20.8508 11.5316L20.5731 12.3175L21.2961 12.7322C21.8131 13.0207 22.2436 13.4419 22.5431 13.9525C22.8427 14.4631 23.0004 15.0444 23 15.6364C22.999 16.5282 22.6443 17.3831 22.0137 18.0137C21.3832 18.6443 20.5282 18.999 19.6364 19ZM14.9854 10.0361L14.4746 9.5254C13.808 8.88885 12.9217 8.53367 12 8.53367C11.0783 8.53367 10.192 8.88885 9.52543 9.5254C9.17822 9.8726 8.90794 10.289 8.73217 10.7474C8.55641 11.2059 8.47907 11.6963 8.50521 12.1866C8.53134 12.6769 8.66034 13.1563 8.88385 13.5935C9.10735 14.0307 9.42034 14.4159 9.80249 14.7243C10.1846 15.0326 10.6274 15.2571 11.1019 15.3831C11.5765 15.5091 12.0723 15.5339 12.5571 15.4558C13.0418 15.3776 13.5047 15.1984 13.9157 14.9297C14.3267 14.661 14.6765 14.3088 14.9424 13.896L14.1006 13.355C13.9107 13.65 13.6608 13.9018 13.3672 14.0939C13.0736 14.286 12.7428 14.4142 12.3964 14.47C12.05 14.5259 11.6957 14.5082 11.3566 14.4181C11.0175 14.328 10.7012 14.1676 10.4281 13.9472C10.1551 13.7268 9.93154 13.4514 9.77196 13.1389C9.61238 12.8264 9.52037 12.4838 9.50191 12.1334C9.48345 11.783 9.53896 11.4327 9.66482 11.1052C9.79068 10.7776 9.98407 10.4803 10.2324 10.2324C10.7088 9.77804 11.3417 9.52456 12 9.52456C12.6583 9.52456 13.2913 9.77804 13.7676 10.2324L14.363 10.8278H12.1978V11.8278H15.9852V8.04H14.9852L14.9854 10.0361Z" fill="black"/>
</g>
<defs>
<clipPath id="clip0">
<rect width="24" height="24" fill="white"/>
</clipPath>
</defs>
</svg>
