<svg width="24" height="24" viewBox="0 0 24 24" fill="none" xmlns="http://www.w3.org/2000/svg">
<g clip-path="url(#clip0)">
<path d="M21.7937 11.8646C22.1608 10.8558 22.2148 9.75972 21.9485 8.71977C21.6823 7.67982 21.1082 6.74451 20.3015 6.03629C19.4947 5.32807 18.493 4.87995 17.4273 4.75061C16.3616 4.62126 15.2817 4.81672 14.329 5.31139C13.2721 4.32057 11.9297 3.68812 10.4928 3.50392C9.0558 3.31973 7.59734 3.59317 6.32468 4.28537C5.05203 4.97758 4.02995 6.05332 3.40372 7.3597C2.77748 8.66609 2.57897 10.1366 2.8364 11.5623C1.87862 11.9188 1.0767 12.6007 0.570934 13.4888C0.0651726 14.3768 -0.112218 15.4144 0.0698009 16.4201C0.251819 17.4257 0.781655 18.3353 1.5666 18.9897C2.35155 19.6441 3.34163 20.0017 4.3636 19.9999H19.6364C20.5983 20.003 21.5341 19.6872 22.2974 19.1018C23.0607 18.5165 23.6085 17.6947 23.855 16.7649C24.1016 15.8351 24.033 14.8499 23.6601 13.9632C23.2871 13.0766 22.6307 12.3385 21.7937 11.8646ZM13.9712 12.3435L12.5 10.8723V14.9999H11.5V10.8723L10.0288 12.3435L9.3218 11.6365L12 8.95829L14.6782 11.6365L13.9712 12.3435Z" fill="black"/>
</g>
<defs>
<clipPath id="clip0">
<rect width="24" height="24" fill="white"/>
</clipPath>
</defs>
</svg>
