<svg width="24" height="24" viewBox="0 0 24 24" fill="none" xmlns="http://www.w3.org/2000/svg">
<path d="M2 4V20H22V4H2ZM15.4688 14.1215C15.4633 14.313 15.4193 14.5014 15.3392 14.6754C15.2592 14.8494 15.1448 15.0055 15.003 15.1342C14.8611 15.2629 14.6948 15.3617 14.5138 15.4246C14.3329 15.4874 14.1411 15.5131 13.95 15.5C13.23 15.5 12.7988 15.0791 12.7988 14.601C12.8095 14.3538 12.9171 14.1209 13.0985 13.9526C13.2798 13.7843 13.5201 13.6942 13.7674 13.702C14.1881 13.6934 14.6032 13.7992 14.9684 14.0083V9H10.4684V14.1215C10.4629 14.3129 10.4189 14.5013 10.3389 14.6753C10.2588 14.8493 10.1445 15.0053 10.0027 15.134C9.86092 15.2628 9.69459 15.3615 9.51369 15.4244C9.3328 15.4873 9.14107 15.513 8.95 15.5C8.23 15.5 7.7988 15.0791 7.7988 14.601C7.80947 14.3538 7.91714 14.1209 8.09846 13.9526C8.27978 13.7843 8.52014 13.6942 8.7674 13.702C9.1881 13.6934 9.60323 13.7992 9.9684 14.0083V8.5H15.4684L15.4688 14.1215Z" fill="black"/>
</svg>
