<svg width="24" height="24" viewBox="0 0 24 24" fill="none" xmlns="http://www.w3.org/2000/svg">
<g clip-path="url(#clip0)">
<path d="M21.7937 11.8647C22.1608 10.856 22.2148 9.75986 21.9485 8.71993C21.6823 7.68 21.1082 6.7447 20.3015 6.03649C19.4948 5.32828 18.493 4.88016 17.4274 4.7508C16.3617 4.62144 15.2818 4.81687 14.3291 5.3115C13.2722 4.32064 11.9299 3.68815 10.4929 3.50393C9.05589 3.31972 7.59739 3.59315 6.32472 4.28536C5.05204 4.97757 4.02994 6.05334 3.40371 7.35974C2.77747 8.66615 2.57897 10.1367 2.83643 11.5624C1.87865 11.9189 1.07673 12.6008 0.570965 13.4889C0.0652031 14.3769 -0.112187 15.4145 0.0698314 16.4202C0.25185 17.4258 0.781686 18.3354 1.56663 18.9898C2.35158 19.6443 3.34166 20.0018 4.36363 20H19.6364C20.5983 20.0031 21.5341 19.6873 22.2974 19.1019C23.0607 18.5166 23.6085 17.6948 23.8551 16.765C24.1016 15.8352 24.0331 14.85 23.6601 13.9633C23.2871 13.0767 22.6308 12.3387 21.7937 11.8647ZM15.6637 11.4324H12.2237V10.9324H14.8204L13.9441 10.0562C13.5278 9.64116 12.9892 9.37074 12.4076 9.28472C11.826 9.1987 11.2322 9.30164 10.7136 9.57838C10.1949 9.85513 9.77873 10.2911 9.52636 10.822C9.27399 11.353 9.19872 11.9509 9.31164 12.5279C9.42455 13.1048 9.71969 13.6303 10.1536 14.0269C10.5875 14.4236 11.1373 14.6705 11.722 14.7313C12.3068 14.792 12.8956 14.6635 13.4018 14.3646C13.908 14.0657 14.305 13.6122 14.5341 13.0708L14.995 13.2661C14.7243 13.9081 14.2545 14.4461 13.6549 14.801C13.0553 15.1558 12.3575 15.3087 11.6645 15.2371C10.9715 15.1655 10.3197 14.8731 9.80535 14.4032C9.29096 13.9333 8.94111 13.3105 8.80733 12.6268C8.67355 11.943 8.76292 11.2343 9.06227 10.6052C9.36162 9.97605 9.85513 9.45968 10.4701 9.13217C11.085 8.80465 11.7889 8.6833 12.478 8.786C13.1672 8.8887 13.8051 9.21001 14.2978 9.7026L15.163 10.5679V7.9927H15.6635L15.6637 11.4324Z" fill="black"/>
</g>
<defs>
<clipPath id="clip0">
<rect width="24" height="24" fill="white"/>
</clipPath>
</defs>
</svg>
