<svg width="24" height="24" viewBox="0 0 24 24" fill="none" xmlns="http://www.w3.org/2000/svg">
<path d="M2 4V20H22V4H2ZM20 18H4V6H20V18ZM10.4706 15.5C10.7627 15.5147 11.0547 15.4701 11.3292 15.3691C11.6037 15.2681 11.8549 15.1126 12.0678 14.9121C12.2807 14.7116 12.4508 14.4701 12.5681 14.2022C12.6853 13.9342 12.7472 13.6454 12.75 13.3529V10.5H15V8.5H11.1459V13.375C10.7897 13.181 10.3876 13.0868 9.9823 13.1025C9.82472 13.0899 9.66627 13.1112 9.51765 13.1651C9.36904 13.219 9.23372 13.3041 9.12085 13.4148C9.00798 13.5255 8.92018 13.6591 8.8634 13.8067C8.80661 13.9542 8.78216 14.1122 8.7917 14.27C8.7917 15.0353 9.3933 15.5 10.4706 15.5Z" fill="black"/>
</svg>
