<svg width="24" height="24" viewBox="0 0 24 24" fill="none" xmlns="http://www.w3.org/2000/svg">
<path d="M15.4141 2H4V22H20V6.5859L15.4141 2ZM19 21H5V3H15L19 7V21ZM14.1172 10.8569C14.5056 10.7278 14.8435 10.4795 15.0828 10.1474C15.3221 9.81532 15.4507 9.41624 15.4502 9.0069V8.5H14.5502V9.0073C14.5505 9.22773 14.4813 9.44264 14.3524 9.62147C14.2236 9.8003 14.0416 9.93395 13.8324 10.0034L13.5004 10.1141V10C13.5004 9.60218 13.3424 9.22064 13.0611 8.93934C12.7798 8.65804 12.3982 8.5 12.0004 8.5C11.6026 8.5 11.221 8.65804 10.9397 8.93934C10.6584 9.22064 10.5004 9.60218 10.5004 10V10.1141L10.1684 10.0034C9.95909 9.93405 9.77698 9.80045 9.648 9.62161C9.51902 9.44277 9.44973 9.2278 9.45 9.0073V8.5H8.55V9.0073C8.54954 9.41664 8.67809 9.81572 8.91738 10.1478C9.15668 10.4799 9.49456 10.7282 9.883 10.8573L10.5002 11.063V11.55H8V12.45H10.5V12.8123C10.5 12.8537 10.5089 12.8923 10.5121 12.9331L9.8828 13.1431C9.49436 13.2722 9.15648 13.5205 8.91718 13.8526C8.67789 14.1847 8.54934 14.5838 8.5498 14.9931V15.5H9.4498V14.9927C9.44949 14.7723 9.51869 14.5574 9.64756 14.3785C9.77643 14.1997 9.9584 14.0661 10.1676 13.9966L10.8524 13.7682C10.9913 13.9383 11.1663 14.0754 11.3647 14.1695C11.5631 14.2637 11.78 14.3125 11.9996 14.3125C12.2192 14.3125 12.4361 14.2637 12.6345 14.1695C12.8329 14.0754 13.0079 13.9383 13.1468 13.7682L13.8316 13.9966C14.0408 14.0661 14.2228 14.1997 14.3516 14.3785C14.4805 14.5574 14.5497 14.7723 14.5494 14.9927V15.5H15.4494V14.9927C15.4499 14.5834 15.3213 14.1843 15.082 13.8522C14.8427 13.5201 14.5048 13.2718 14.1164 13.1427L13.4871 12.9327C13.4903 12.8927 13.4992 12.8533 13.4992 12.8119V12.45H16V11.55H13.5V11.0628L14.1172 10.8569ZM12.6 12.8125C12.6 12.9716 12.5368 13.1242 12.4243 13.2368C12.3117 13.3493 12.1591 13.4125 12 13.4125C11.8409 13.4125 11.6883 13.3493 11.5757 13.2368C11.4632 13.1242 11.4 12.9716 11.4 12.8125V10C11.4 9.84087 11.4632 9.68826 11.5757 9.57574C11.6883 9.46321 11.8409 9.4 12 9.4C12.1591 9.4 12.3117 9.46321 12.4243 9.57574C12.5368 9.68826 12.6 9.84087 12.6 10V12.8125Z" fill="black"/>
</svg>
