<svg width="24" height="24" viewBox="0 0 24 24" fill="none" xmlns="http://www.w3.org/2000/svg">
<path d="M3 3V21H21V3H3ZM19.5 19.5H4.5V4.5H19.5V19.5ZM11 7H7V11H11V7ZM9.7 9.7H8.3V8.3H9.7V9.7ZM9 17.1C9.44501 17.1 9.88002 16.968 10.25 16.7208C10.62 16.4736 10.9084 16.1222 11.0787 15.711C11.249 15.2999 11.2936 14.8475 11.2068 14.411C11.12 13.9746 10.9057 13.5737 10.591 13.259C10.2763 12.9443 9.87541 12.7301 9.43895 12.6432C9.0025 12.5564 8.5501 12.601 8.13896 12.7713C7.72783 12.9416 7.37643 13.23 7.12919 13.6C6.88196 13.97 6.75 14.405 6.75 14.85C6.75 15.4467 6.98705 16.019 7.40901 16.441C7.83097 16.8629 8.40326 17.1 9 17.1ZM9 13.9C9.18789 13.9 9.37157 13.9557 9.52779 14.0601C9.68402 14.1645 9.80578 14.3129 9.87769 14.4865C9.94959 14.66 9.9684 14.8511 9.93175 15.0353C9.89509 15.2196 9.80461 15.3889 9.67175 15.5218C9.53889 15.6546 9.36962 15.7451 9.18534 15.7817C9.00105 15.8184 8.81004 15.7996 8.63645 15.7277C8.46286 15.6558 8.31449 15.534 8.2101 15.3778C8.10572 15.2216 8.05 15.0379 8.05 14.85C8.05029 14.5981 8.15047 14.3567 8.32857 14.1786C8.50667 14.0005 8.74813 13.9003 9 13.9ZM15 6.6176L12.47 11H17.53L15 6.6176ZM15 8.8176L15.625 9.9H14.375L15 8.8176Z" fill="black"/>
</svg>
