<svg width="24" height="24" viewBox="0 0 24 24" fill="none" xmlns="http://www.w3.org/2000/svg">
<path d="M9.9584 5L7.9584 3H2V21H22V5H9.9584ZM21 20H3V4H7.5441L9.5441 6H21V20ZM10.1917 13.753L9.074 17.193L12 15.0668L14.926 17.1927L13.8083 13.7527L16.7344 11.6268H13.1176L12 8.1875L10.8824 11.6275H7.2657L10.1917 13.753ZM11.4636 12.4271L11.6436 11.8743L12 10.7763L12.3568 11.8743L12.5368 12.4271H14.2726L13.3385 13.1058L12.8685 13.4474L13.0485 14.0002L13.4053 15.0983L12.47 14.42L12 14.078L11.53 14.4196L10.5959 15.0983L10.9525 14L11.1325 13.4472L10.6625 13.1056L9.7284 12.4269L11.4636 12.4271Z" fill="black"/>
</svg>
