<svg width="24" height="24" viewBox="0 0 24 24" fill="none" xmlns="http://www.w3.org/2000/svg">
<path d="M15.4141 2H4V22H20V6.5859L15.4141 2ZM19.5 21.5H4.5V2.5H15.207L19.5 6.793V21.5ZM12 8.75C11.5731 8.74896 11.1502 8.83256 10.7557 8.99599C10.3613 9.15941 10.0032 9.39941 9.7021 9.7021L8.8369 10.5674V7.9927H8.3364V11.4327H11.7764V10.9327H9.1794L10.0557 10.0565C10.4721 9.64146 11.0107 9.37103 11.5922 9.28502C12.1738 9.199 12.7676 9.30194 13.2863 9.57868C13.805 9.85542 14.2211 10.2914 14.4735 10.8223C14.7258 11.3533 14.8011 11.9512 14.6882 12.5282C14.5753 13.1051 14.2801 13.6306 13.8462 14.0272C13.4123 14.4239 12.8625 14.6708 12.2778 14.7316C11.693 14.7923 11.1042 14.6638 10.598 14.3649C10.0918 14.066 9.69488 13.6125 9.4657 13.0711L9.0048 13.2664C9.2336 13.8076 9.60483 14.2768 10.079 14.6238C10.5532 14.9709 11.1126 15.1829 11.6977 15.2374C12.2828 15.2919 12.8717 15.1867 13.4018 14.9331C13.9318 14.6796 14.3833 14.287 14.7081 13.7973C15.0328 13.3076 15.2188 12.739 15.2461 12.152C15.2735 11.565 15.1412 10.9816 14.8634 10.4638C14.5856 9.94602 14.1726 9.51321 13.6684 9.21143C13.1642 8.90965 12.5876 8.75019 12 8.75Z" fill="black"/>
</svg>
