<svg width="24" height="24" viewBox="0 0 24 24" fill="none" xmlns="http://www.w3.org/2000/svg">
<path d="M9.9584 5L7.9584 3H2V21H22V5H9.9584ZM21 20H3V4H7.5441L9.5441 6H21V20ZM12 12C12.3368 12 12.6661 11.9001 12.9462 11.713C13.2263 11.5258 13.4446 11.2598 13.5735 10.9486C13.7024 10.6374 13.7361 10.295 13.6704 9.96464C13.6047 9.63427 13.4425 9.33081 13.2043 9.09263C12.9661 8.85444 12.6626 8.69224 12.3323 8.62652C12.0019 8.56081 11.6595 8.59454 11.3483 8.72344C11.0371 8.85234 10.7711 9.07063 10.5839 9.35071C10.3968 9.63078 10.2969 9.96006 10.2969 10.2969C10.2969 10.7486 10.4763 11.1818 10.7957 11.5012C11.1151 11.8206 11.5483 12 12 12ZM12 9.4937C12.1589 9.49368 12.3142 9.54077 12.4463 9.62901C12.5784 9.71726 12.6813 9.8427 12.7421 9.98946C12.8029 10.1362 12.8189 10.2977 12.7879 10.4535C12.7569 10.6093 12.6804 10.7525 12.5681 10.8648C12.4558 10.9772 12.3126 11.0537 12.1568 11.0847C12.001 11.1157 11.8395 11.0998 11.6928 11.039C11.546 10.9782 11.4205 10.8752 11.3323 10.7431C11.244 10.6111 11.1969 10.4558 11.1969 10.2969C11.1971 10.084 11.2818 9.87982 11.4324 9.72925C11.5829 9.57868 11.7871 9.49396 12 9.4937ZM8.5 14.6987V17H15.5V14.6987C14.5717 13.7705 13.3127 13.2491 12 13.2491C10.6873 13.2491 9.42829 13.7705 8.5 14.6987ZM14.6 16.1H9.4V15.0933C10.129 14.4832 11.0494 14.149 12 14.149C12.9506 14.149 13.871 14.4832 14.6 15.0933V16.1Z" fill="black"/>
</svg>
