<svg width="24" height="24" viewBox="0 0 24 24" fill="none" xmlns="http://www.w3.org/2000/svg">
<g clip-path="url(#clip0)">
<path d="M12 12C12.2959 12 12.5852 11.9122 12.8312 11.7478C13.0773 11.5834 13.2691 11.3498 13.3823 11.0764C13.4956 10.803 13.5252 10.5021 13.4675 10.2119C13.4097 9.92167 13.2672 9.65507 13.058 9.44583C12.8487 9.23658 12.5821 9.09408 12.2919 9.03635C12.0017 8.97862 11.7008 9.00825 11.4274 9.12149C11.154 9.23474 10.9204 9.42651 10.756 9.67256C10.5916 9.9186 10.5038 10.2079 10.5038 10.5038C10.5038 10.7003 10.5425 10.8948 10.6177 11.0764C10.6929 11.2579 10.8031 11.4228 10.942 11.5618C11.081 11.7007 11.2459 11.8109 11.4274 11.8861C11.609 11.9613 11.8035 12 12 12ZM9 14.5938V16H15V14.5938C14.2043 13.7982 13.1252 13.3512 12 13.3512C10.8748 13.3512 9.79566 13.7982 9 14.5938ZM14.5 3V2.5C14.5 1.83696 14.2366 1.20107 13.7678 0.732233C13.2989 0.263392 12.663 0 12 0C11.337 0 10.7011 0.263392 10.2322 0.732233C9.76339 1.20107 9.5 1.83696 9.5 2.5V3H4V22H20V3H14.5ZM11.1 2.5C11.1 2.38181 11.1233 2.26478 11.1685 2.15558C11.2137 2.04639 11.28 1.94718 11.3636 1.8636C11.4472 1.78003 11.5464 1.71374 11.6556 1.66851C11.7648 1.62328 11.8818 1.6 12 1.6C12.1182 1.6 12.2352 1.62328 12.3444 1.66851C12.4536 1.71374 12.5528 1.78003 12.6364 1.8636C12.72 1.94718 12.7863 2.04639 12.8315 2.15558C12.8767 2.26478 12.9 2.38181 12.9 2.5V3H11.1V2.5ZM15.107 5L14.9141 5.72C14.8655 5.90063 14.7587 6.06022 14.6103 6.17409C14.4619 6.28797 14.2802 6.34979 14.0931 6.35H9.907C9.71993 6.34979 9.53814 6.28798 9.38972 6.1741C9.24131 6.06023 9.13453 5.90064 9.0859 5.72L8.893 5H15.107ZM18 20H6V5H7.1848L7.4921 6.147C7.63453 6.67861 7.9484 7.14836 8.38503 7.48339C8.82166 7.81842 9.35664 8.00002 9.907 8H14.0931C14.6434 7.99999 15.1784 7.81839 15.615 7.48336C16.0516 7.14833 16.3655 6.67859 16.5079 6.147L16.8152 5H18V20Z" fill="black"/>
</g>
<defs>
<clipPath id="clip0">
<rect width="24" height="24" fill="white"/>
</clipPath>
</defs>
</svg>
