<svg width="24" height="24" viewBox="0 0 24 24" fill="none" xmlns="http://www.w3.org/2000/svg">
<path d="M9.9584 5L7.9584 3H2V21H22V5H9.9584ZM12 9.0077C12.2959 9.0077 12.5852 9.09545 12.8313 9.25986C13.0773 9.42427 13.2691 9.65795 13.3823 9.93135C13.4956 10.2048 13.5252 10.5056 13.4674 10.7958C13.4097 11.0861 13.2672 11.3527 13.0579 11.5619C12.8487 11.7712 12.5821 11.9136 12.2918 11.9714C12.0016 12.0291 11.7008 11.9994 11.4274 11.8862C11.154 11.7729 10.9203 11.5811 10.7559 11.3351C10.5915 11.089 10.5038 10.7997 10.5038 10.5038C10.5038 10.107 10.6615 9.72646 10.9421 9.44589C11.2227 9.16532 11.6032 9.0077 12 9.0077ZM15 16H9V14.5938C9.79566 13.7982 10.8748 13.3512 12 13.3512C13.1252 13.3512 14.2043 13.7982 15 14.5938V16Z" fill="black"/>
</svg>
