<svg width="24" height="24" viewBox="0 0 24 24" fill="none" xmlns="http://www.w3.org/2000/svg">
<path d="M3 7V21H21V7H3ZM15.3623 16.1619C15.3605 16.3441 15.322 16.5241 15.249 16.691C15.1759 16.858 15.0699 17.0085 14.9373 17.1334C14.8047 17.2584 14.6482 17.3553 14.4772 17.4183C14.3062 17.4813 14.1243 17.5091 13.9423 17.5C13.2709 17.5 12.8959 17.21 12.8959 16.7333C12.89 16.635 12.9053 16.5365 12.9407 16.4446C12.9761 16.3527 13.0308 16.2694 13.1011 16.2005C13.1715 16.1315 13.2558 16.0785 13.3484 16.0449C13.441 16.0113 13.5397 15.998 13.6379 16.0059C13.8905 15.9962 14.1411 16.0549 14.3631 16.1759V11.5H10.3731V16.1619C10.3713 16.3442 10.3327 16.5243 10.2596 16.6913C10.1865 16.8583 10.0804 17.0089 9.94768 17.1338C9.81493 17.2588 9.6583 17.3557 9.48718 17.4186C9.31606 17.4815 9.13399 17.5092 8.9519 17.5C8.2805 17.5 7.9056 17.21 7.9056 16.7333C7.89969 16.635 7.91495 16.5365 7.95036 16.4446C7.98577 16.3527 8.0405 16.2694 8.11085 16.2005C8.1812 16.1315 8.26553 16.0784 8.35815 16.0449C8.45076 16.0113 8.54951 15.998 8.6477 16.0059C8.9003 15.9962 9.15083 16.0549 9.3728 16.1759V10.5H15.3628L15.3623 16.1619ZM19 3H5V4H19V3Z" fill="black"/>
</svg>
