<svg width="24" height="24" viewBox="0 0 24 24" fill="none" xmlns="http://www.w3.org/2000/svg">
<path d="M14 3V2.5C14 1.96957 13.7893 1.46086 13.4142 1.08579C13.0391 0.710714 12.5304 0.5 12 0.5C11.4696 0.5 10.9609 0.710714 10.5858 1.08579C10.2107 1.46086 10 1.96957 10 2.5V3H4V22H20V3H14ZM11 2.5C11 2.23478 11.1054 1.98043 11.2929 1.79289C11.4804 1.60536 11.7348 1.5 12 1.5C12.2652 1.5 12.5196 1.60536 12.7071 1.79289C12.8946 1.98043 13 2.23478 13 2.5V3H11V2.5ZM16.5479 4L16.2106 5.2588C16.1534 5.47131 16.0278 5.65906 15.8532 5.79303C15.6786 5.927 15.4648 5.99974 15.2447 6H8.7553C8.53523 5.99974 8.32138 5.927 8.14679 5.79303C7.9722 5.65906 7.8466 5.47131 7.7894 5.2588L7.4521 4H16.5479ZM19 21H5V4H6.4168L6.8235 5.5176C6.93744 5.94287 7.18852 6.31865 7.5378 6.58668C7.88708 6.8547 8.31503 6.99999 8.7553 7H15.2447C15.685 6.99999 16.1129 6.8547 16.4622 6.58668C16.8115 6.31865 17.0626 5.94287 17.1765 5.5176L17.5832 4H19V21ZM11.3436 11.0288L10.6366 10.3218L7.9584 13L10.6366 15.6782L11.3436 14.9712L9.8724 13.5H16V12.5H9.8724L11.3436 11.0288Z" fill="black"/>
</svg>
