<svg width="24" height="24" viewBox="0 0 24 24" fill="none" xmlns="http://www.w3.org/2000/svg">
<path d="M22.1377 11.2162C22.2292 10.8165 22.2758 10.4077 22.2764 9.99755C22.2745 8.42682 21.6497 6.92097 20.5389 5.81033C19.4282 4.69969 17.9223 4.07495 16.3516 4.07315C15.6524 4.07431 14.9593 4.20357 14.3066 4.45455C13.1899 3.58586 11.8452 3.05963 10.4355 2.93959C9.02584 2.81955 7.61157 3.11086 6.36405 3.77823C5.11654 4.4456 4.08931 5.46039 3.40679 6.69968C2.72427 7.93897 2.41576 9.34959 2.51861 10.7606C1.56155 11.3065 0.811983 12.1536 0.386759 13.17C-0.0384649 14.1865 -0.115447 15.315 0.167815 16.3797C0.451076 17.4445 1.07866 18.3856 1.95273 19.0563C2.8268 19.727 3.89824 20.0897 5.00001 20.0878H19C20.0334 20.0908 21.0421 19.7726 21.8867 19.1773C22.7314 18.582 23.3701 17.7389 23.7147 16.7647C24.0592 15.7904 24.0926 14.7332 23.8101 13.7392C23.5276 12.7453 22.9432 11.8636 22.1377 11.2162ZM19 18.0878H5.00001C4.29742 18.0895 3.61665 17.8439 3.07692 17.3941C2.53719 16.9443 2.17291 16.3189 2.04786 15.6275C1.92282 14.9362 2.04498 14.2228 2.39296 13.6125C2.74095 13.0021 3.29256 12.5336 3.95121 12.289L4.73121 11.996L4.58381 11.176C4.40452 10.178 4.51416 9.14954 4.89982 8.21174C5.28547 7.27394 5.93108 6.46586 6.7606 5.88269C7.59013 5.29952 8.56902 4.96553 9.58201 4.92006C10.595 4.87459 11.5999 5.11954 12.4783 5.62605C12.8292 5.83131 13.1558 6.07552 13.4519 6.35405L13.9627 6.83255L14.5877 6.51515C15.1323 6.23014 15.7368 6.07884 16.3514 6.07375C17.3919 6.07486 18.3895 6.48867 19.1253 7.22438C19.8611 7.9601 20.275 8.95764 20.2762 9.99815C20.2708 10.4417 20.1893 10.881 20.035 11.2969L19.7566 12.083L20.4803 12.4981C20.9413 12.7554 21.3253 13.1311 21.5925 13.5865C21.8597 14.0418 22.0005 14.5602 22.0003 15.0881C21.9994 15.8835 21.6829 16.6461 21.1205 17.2084C20.558 17.7708 19.7954 18.0871 19 18.0878ZM8.95841 11.9999H11V14.9999H13V11.9999H15.0416L12 8.95835L8.95841 11.9999Z" fill="black"/>
</svg>
