<svg width="24" height="24" viewBox="0 0 24 24" fill="none" xmlns="http://www.w3.org/2000/svg">
<path d="M15.4141 2H4V22H20V6.5859L15.4141 2ZM14.728 15.6475L12.6731 13.5925C12.0937 13.9469 11.4044 14.0764 10.7358 13.9566C10.0673 13.8367 9.46589 13.4758 9.04563 12.9422C8.62537 12.4087 8.41542 11.7395 8.45555 11.0614C8.49569 10.3834 8.78312 9.74367 9.2634 9.2634C9.74367 8.78312 10.3834 8.49569 11.0614 8.45555C11.7395 8.41542 12.4087 8.62537 12.9422 9.04563C13.4758 9.46589 13.8367 10.0673 13.9566 10.7358C14.0764 11.4044 13.9469 12.0937 13.5925 12.6731L15.647 14.7275L14.728 15.6475ZM11.25 9.8C10.9632 9.8 10.6829 9.88504 10.4444 10.0444C10.206 10.2037 10.0201 10.4302 9.91037 10.6951C9.80063 10.9601 9.77191 11.2516 9.82786 11.5329C9.88381 11.8142 10.0219 12.0725 10.2247 12.2753C10.4275 12.4781 10.6858 12.6162 10.9671 12.6721C11.2484 12.7281 11.5399 12.6994 11.8049 12.5896C12.0698 12.4799 12.2963 12.294 12.4556 12.0556C12.615 11.8171 12.7 11.5368 12.7 11.25C12.6996 10.8656 12.5467 10.497 12.2749 10.2251C12.003 9.95329 11.6344 9.8004 11.25 9.8Z" fill="black"/>
</svg>
