<svg width="24" height="24" viewBox="0 0 24 24" fill="none" xmlns="http://www.w3.org/2000/svg">
<path d="M15 3V4.5H19.5V13H14C14 13.5304 13.7893 14.0391 13.4142 14.4142C13.0391 14.7893 12.5304 15 12 15C11.4696 15 10.9609 14.7893 10.5858 14.4142C10.2107 14.0391 10 13.5304 10 13H4.5V4.5H9V3H3V21H21V3H15ZM19.5 19.5H4.5V14.5H8.838C9.12192 15.0983 9.56974 15.6037 10.1294 15.9576C10.6892 16.3115 11.3378 16.4994 12 16.4994C12.6622 16.4994 13.3108 16.3115 13.8706 15.9576C14.4303 15.6037 14.8781 15.0983 15.162 14.5H19.5V19.5ZM14.5 8.5416H12.75V1H11.25V8.5416H9.5L12 11.0416L14.5 8.5416Z" fill="black"/>
</svg>
