<svg width="24" height="24" viewBox="0 0 24 24" fill="none" xmlns="http://www.w3.org/2000/svg">
<path d="M12 0.924316L3 4.48732V12.06C3.00293 13.9903 3.51243 15.8861 4.47759 17.5578C5.44275 19.2295 6.82976 20.6186 8.5 21.5863L12 23.6064L15.5 21.5859C17.1702 20.6183 18.5572 19.2292 19.5223 17.5576C20.4875 15.8859 20.997 13.9903 21 12.06V4.48732L12 0.924316ZM19.5 12.06C19.4975 13.7271 19.0575 15.3644 18.2239 16.8081C17.3904 18.2519 16.1925 19.4516 14.75 20.2873L12 21.8745L9.25 20.2868C7.80757 19.4511 6.60973 18.2515 5.77618 16.8079C4.94263 15.3642 4.50258 13.727 4.5 12.06V5.50672L12 2.53762L19.5 5.50672V12.06ZM10.0576 8.76742L9.0676 9.75742L11.01 11.7L9.0674 13.6424L10.0574 14.6324L12 12.69L13.9424 14.6324L14.9324 13.6424L12.99 11.7L14.9324 9.75762L13.9424 8.76762L12 10.71L10.0576 8.76742Z" fill="black"/>
</svg>
