<svg width="24" height="24" viewBox="0 0 24 24" fill="none" xmlns="http://www.w3.org/2000/svg">
<path d="M11.25 10.1C11.0226 10.1 10.8002 10.1674 10.6111 10.2938C10.422 10.4202 10.2746 10.5998 10.1875 10.8099C10.1005 11.02 10.0777 11.2513 10.1221 11.4744C10.1665 11.6974 10.276 11.9023 10.4368 12.0632C10.5977 12.224 10.8026 12.3335 11.0256 12.3779C11.2487 12.4223 11.48 12.3995 11.6901 12.3125C11.9002 12.2254 12.0798 12.078 12.2062 11.8889C12.3326 11.6998 12.4 11.4774 12.4 11.25C12.3997 10.9451 12.2784 10.6528 12.0628 10.4372C11.8472 10.2216 11.5549 10.1003 11.25 10.1ZM15.4141 2H4V22H20V6.5859L15.4141 2ZM14.6572 15.7178L12.5816 13.6422C12.1758 13.8738 11.7172 13.9971 11.25 14C10.7061 14 10.1744 13.8387 9.72218 13.5365C9.26995 13.2344 8.91747 12.8049 8.70933 12.3024C8.50119 11.7999 8.44673 11.247 8.55284 10.7135C8.65895 10.1801 8.92086 9.69005 9.30546 9.30546C9.69005 8.92086 10.1801 8.65895 10.7135 8.55284C11.2469 8.44673 11.7999 8.50119 12.3024 8.70933C12.8049 8.91747 13.2344 9.26995 13.5365 9.72218C13.8387 10.1744 14 10.7061 14 11.25C13.997 11.7172 13.8738 12.1758 13.6422 12.5815L15.7178 14.6571L14.6572 15.7178Z" fill="black"/>
</svg>
