<svg width="24" height="24" viewBox="0 0 24 24" fill="none" xmlns="http://www.w3.org/2000/svg">
<g clip-path="url(#clip0)">
<path d="M21.7937 11.8647C22.1608 10.856 22.2148 9.75986 21.9485 8.71993C21.6823 7.68 21.1082 6.7447 20.3015 6.03649C19.4948 5.32828 18.493 4.88016 17.4274 4.7508C16.3617 4.62144 15.2818 4.81687 14.3291 5.3115C13.2722 4.32064 11.9299 3.68815 10.4929 3.50393C9.05589 3.31972 7.59739 3.59315 6.32472 4.28536C5.05204 4.97757 4.02994 6.05334 3.40371 7.35974C2.77747 8.66615 2.57897 10.1367 2.83643 11.5624C1.87865 11.9189 1.07673 12.6008 0.570965 13.4889C0.0652031 14.3769 -0.112187 15.4145 0.0698314 16.4202C0.25185 17.4258 0.781686 18.3354 1.56663 18.9898C2.35158 19.6443 3.34166 20.0018 4.36363 20H19.6364C20.5983 20.0031 21.5341 19.6873 22.2974 19.1019C23.0607 18.5166 23.6085 17.6948 23.8551 16.765C24.1016 15.8352 24.0331 14.85 23.6601 13.9633C23.2871 13.0767 22.6308 12.3387 21.7937 11.8647ZM19.6364 18.5H4.36363C3.60443 18.4991 2.87658 18.1971 2.33975 17.6603C1.80292 17.1234 1.50093 16.3956 1.50003 15.6364C1.49873 15.0538 1.67691 14.485 2.01034 14.0073C2.34376 13.5295 2.81625 13.1661 3.36353 12.9664L4.53473 12.5264L4.31253 11.2953C4.10717 10.1787 4.26 9.02581 4.74919 8.0013C5.23837 6.97679 6.03887 6.13312 7.0363 5.59086C8.03373 5.04859 9.17704 4.83547 10.3029 4.98196C11.4287 5.12845 12.4794 5.62705 13.3048 6.4065L14.0723 7.1238L15.0085 6.6479C15.5453 6.36628 16.1415 6.21645 16.7476 6.2108C17.7742 6.21197 18.7584 6.6203 19.4843 7.34621C20.2102 8.07212 20.6185 9.05633 20.6196 10.0829C20.6136 10.5206 20.5324 10.954 20.3796 11.3642L19.9631 12.5431L21.0477 13.1651C21.4878 13.4102 21.8545 13.7684 22.1099 14.2026C22.3652 14.6368 22.5 15.1314 22.5002 15.6351C22.4997 16.3946 22.1978 17.1228 21.6609 17.6599C21.124 18.197 20.3959 18.4992 19.6364 18.5ZM14.5811 9.4194C13.8858 8.75559 12.9614 8.38521 12 8.38521C11.0387 8.38521 10.1143 8.75559 9.41893 9.4194C9.07538 9.75733 8.80216 10.1599 8.61501 10.604C8.42786 11.0481 8.3305 11.5248 8.32854 12.0067C8.32657 12.4885 8.42005 12.966 8.60358 13.4116C8.7871 13.8572 9.05704 14.262 9.39782 14.6027C9.7386 14.9434 10.1435 15.2133 10.5891 15.3967C11.0347 15.5802 11.5122 15.6736 11.9941 15.6715C12.476 15.6694 12.9527 15.572 13.3967 15.3847C13.8407 15.1975 14.2433 14.9242 14.5811 14.5806C14.7979 14.3635 14.9869 14.1202 15.1436 13.8564L14.0244 13.1943C13.8549 13.4814 13.6261 13.7292 13.3534 13.9211C13.0807 14.113 12.7703 14.2447 12.4428 14.3073C12.1153 14.37 11.7782 14.3623 11.4539 14.2847C11.1296 14.2071 10.8256 14.0613 10.5619 13.8571C10.2983 13.6529 10.0812 13.395 9.92492 13.1004C9.76868 12.8058 9.67691 12.4814 9.65572 12.1486C9.63453 11.8158 9.68441 11.4823 9.80203 11.1703C9.91965 10.8583 10.1023 10.5749 10.3379 10.3389C10.7854 9.91128 11.3805 9.67261 11.9994 9.67252C12.6184 9.67242 13.2135 9.91092 13.6611 10.3384L13.8021 10.4794L12.4336 11.8478H15.9692V8.3123L14.7216 9.56L14.5811 9.4194Z" fill="black"/>
</g>
<defs>
<clipPath id="clip0">
<rect width="24" height="24" fill="white"/>
</clipPath>
</defs>
</svg>
