<svg width="24" height="24" viewBox="0 0 24 24" fill="none" xmlns="http://www.w3.org/2000/svg">
<path d="M14 23C12.6744 22.9984 11.4035 22.4712 10.4662 21.5338C9.52885 20.5965 9.00156 19.3256 9 18V9C9 8.20435 9.31607 7.44129 9.87868 6.87868C10.4413 6.31607 11.2044 6 12 6C12.7956 6 13.5587 6.31607 14.1213 6.87868C14.6839 7.44129 15 8.20435 15 9V18H13V9C13 8.73478 12.8946 8.48043 12.7071 8.29289C12.5196 8.10536 12.2652 8 12 8C11.7348 8 11.4804 8.10536 11.2929 8.29289C11.1054 8.48043 11 8.73478 11 9V18C11 18.7956 11.3161 19.5587 11.8787 20.1213C12.4413 20.6839 13.2044 21 14 21C14.7956 21 15.5587 20.6839 16.1213 20.1213C16.6839 19.5587 17 18.7956 17 18V8C17 6.67392 16.4732 5.40215 15.5355 4.46447C14.5979 3.52678 13.3261 3 12 3C10.6739 3 9.40215 3.52678 8.46447 4.46447C7.52678 5.40215 7 6.67392 7 8V18H5V8C5 6.14348 5.7375 4.36301 7.05025 3.05025C8.36301 1.7375 10.1435 1 12 1C13.8565 1 15.637 1.7375 16.9497 3.05025C18.2625 4.36301 19 6.14348 19 8V18C18.9984 19.3256 18.4712 20.5965 17.5338 21.5338C16.5965 22.4712 15.3256 22.9984 14 23Z" fill="black"/>
</svg>
