<svg width="24" height="24" viewBox="0 0 24 24" fill="none" xmlns="http://www.w3.org/2000/svg">
<path d="M3 3V21H21V3H3ZM20 20H4V16H9.1713C9.37798 16.5851 9.76101 17.0917 10.2676 17.45C10.7742 17.8084 11.3795 18.0008 12 18.0008C12.6205 18.0008 13.2258 17.8084 13.7324 17.45C14.239 17.0917 14.622 16.5851 14.8287 16H20V20ZM14 15C14 15.5304 13.7893 16.0391 13.4142 16.4142C13.0391 16.7893 12.5304 17 12 17C11.4696 17 10.9609 16.7893 10.5858 16.4142C10.2107 16.0391 10 15.5304 10 15H4V11H9.1713C9.37798 11.5851 9.76101 12.0917 10.2676 12.45C10.7742 12.8084 11.3795 13.0008 12 13.0008C12.6205 13.0008 13.2258 12.8084 13.7324 12.45C14.239 12.0917 14.622 11.5851 14.8287 11H20V15H14ZM14 10C14 10.5304 13.7893 11.0391 13.4142 11.4142C13.0391 11.7893 12.5304 12 12 12C11.4696 12 10.9609 11.7893 10.5858 11.4142C10.2107 11.0391 10 10.5304 10 10H4V4H20V10H14Z" fill="black"/>
</svg>
