<svg width="24" height="24" viewBox="0 0 24 24" fill="none" xmlns="http://www.w3.org/2000/svg">
<path d="M3 3V21H21V3H3ZM19 19H5V16H9.1292C9.4513 16.463 9.8806 16.8412 10.3805 17.1024C10.8804 17.3636 11.436 17.5 12 17.5C12.564 17.5 13.1196 17.3636 13.6195 17.1024C14.1194 16.8412 14.5487 16.463 14.8708 16H19V19ZM13.5 14C13.5 14.3978 13.342 14.7794 13.0607 15.0607C12.7794 15.342 12.3978 15.5 12 15.5C11.6022 15.5 11.2206 15.342 10.9393 15.0607C10.658 14.7794 10.5 14.3978 10.5 14H5V11H9.1292C9.4513 11.463 9.8806 11.8412 10.3805 12.1024C10.8804 12.3636 11.436 12.5 12 12.5C12.564 12.5 13.1196 12.3636 13.6195 12.1024C14.1194 11.8412 14.5487 11.463 14.8708 11H19V14H13.5ZM13.5 9C13.5 9.39782 13.342 9.77936 13.0607 10.0607C12.7794 10.342 12.3978 10.5 12 10.5C11.6022 10.5 11.2206 10.342 10.9393 10.0607C10.658 9.77936 10.5 9.39782 10.5 9H5V5H19V9H13.5Z" fill="black"/>
</svg>
