<svg width="24" height="24" viewBox="0 0 24 24" fill="none" xmlns="http://www.w3.org/2000/svg">
<path d="M12 0.924316L3 4.48732V12.06C3.00293 13.9903 3.51243 15.8861 4.47759 17.5578C5.44275 19.2295 6.82976 20.6186 8.5 21.5863L12 23.6064L15.5 21.5859C17.1702 20.6183 18.5572 19.2292 19.5223 17.5576C20.4875 15.8859 20.997 13.9903 21 12.06V4.48732L12 0.924316ZM14.6143 13.9608L14.2607 14.3143L12 12.0535L9.7393 14.3143L9.3857 13.9608L11.6465 11.7L9.3857 9.43932L9.7393 9.08582L12 11.3465L14.2607 9.08582L14.6143 9.43932L12.3535 11.7L14.6143 13.9608Z" fill="black"/>
</svg>
