<svg width="24" height="24" viewBox="0 0 24 24" fill="none" xmlns="http://www.w3.org/2000/svg">
<path d="M15.4141 2H4V22H20V6.5859L15.4141 2ZM19 21H5V3H15L19 7V21ZM9.5254 9.5254L9.0146 10.0361V8.04H8.0146V11.8275H11.8021V10.8275H9.637L10.2324 10.2321C10.7087 9.77774 11.3417 9.52425 12 9.52425C12.6583 9.52425 13.2913 9.77774 13.7676 10.2321C14.0158 10.48 14.2091 10.7773 14.3349 11.1048C14.4606 11.4323 14.5161 11.7826 14.4976 12.1329C14.4791 12.4832 14.387 12.8257 14.2275 13.1381C14.0679 13.4506 13.8444 13.7259 13.5714 13.9463C13.2985 14.1666 12.9822 14.3271 12.6432 14.4172C12.3042 14.5073 11.9499 14.525 11.6036 14.4693C11.2573 14.4135 10.9265 14.2855 10.6329 14.0935C10.3393 13.9015 10.0894 13.6499 9.8994 13.355L9.0576 13.896C9.32355 14.3088 9.67337 14.6609 10.0843 14.9297C10.4953 15.1984 10.9582 15.3776 11.443 15.4558C11.9277 15.5339 12.4235 15.5091 12.8981 15.3831C13.3726 15.2571 13.8154 15.0326 14.1975 14.7243C14.5797 14.4159 14.8927 14.0307 15.1162 13.5935C15.3397 13.1563 15.4687 12.6769 15.4948 12.1866C15.521 11.6963 15.4436 11.2059 15.2679 10.7474C15.0921 10.289 14.8218 9.8726 14.4746 9.5254C13.808 8.88885 12.9217 8.53366 12 8.53366C11.0783 8.53366 10.192 8.88885 9.5254 9.5254Z" fill="black"/>
</svg>
