<svg width="24" height="24" viewBox="0 0 24 24" fill="none" xmlns="http://www.w3.org/2000/svg">
<g clip-path="url(#clip0)">
<path d="M21.7937 11.8647C22.1608 10.8559 22.2148 9.75984 21.9485 8.71989C21.6823 7.67994 21.1082 6.74463 20.3015 6.03641C19.4947 5.32819 18.493 4.88008 17.4273 4.75073C16.3616 4.62139 15.2817 4.81684 14.329 5.31151C13.2721 4.3207 11.9297 3.68824 10.4928 3.50404C9.0558 3.31985 7.59734 3.59329 6.32468 4.28549C5.05203 4.9777 4.02995 6.05345 3.40372 7.35983C2.77748 8.66621 2.57897 10.1367 2.8364 11.5624C1.87862 11.9189 1.0767 12.6008 0.570934 13.4889C0.0651726 14.3769 -0.112218 15.4145 0.0698009 16.4202C0.251819 17.4258 0.781655 18.3354 1.5666 18.9898C2.35155 19.6443 3.34163 20.0019 4.3636 20H19.6364C20.5983 20.0031 21.5341 19.6873 22.2974 19.102C23.0607 18.5166 23.6085 17.6948 23.855 16.765C24.1016 15.8353 24.033 14.85 23.6601 13.9633C23.2871 13.0767 22.6307 12.3387 21.7937 11.8647ZM19.6364 18.5H4.3636C3.60439 18.4991 2.87653 18.1972 2.33969 17.6603C1.80285 17.1235 1.50087 16.3956 1.5 15.6364C1.4987 15.0538 1.67688 14.485 2.01031 14.0073C2.34373 13.5295 2.81622 13.1661 3.3635 12.9664L4.5346 12.5264L4.3126 11.2953C4.10727 10.1788 4.26011 9.02586 4.7493 8.00138C5.23848 6.9769 6.03897 6.13325 7.03637 5.59099C8.03378 5.04873 9.17706 4.83561 10.3029 4.98207C11.4286 5.12854 12.4793 5.6271 13.3048 6.40651L14.0722 7.12381L15.0086 6.64791C15.5453 6.36632 16.1414 6.21649 16.7475 6.21081C17.7743 6.21187 18.7587 6.62026 19.4847 7.34635C20.2108 8.07244 20.619 9.05692 20.62 10.0837C20.614 10.5214 20.5328 10.9548 20.38 11.365L19.9635 12.5439L21.0481 13.1659C21.4882 13.411 21.8549 13.7692 22.1102 14.2034C22.3656 14.6376 22.5003 15.1322 22.5006 15.6359C22.4999 16.3953 22.1978 17.1234 21.6609 17.6604C21.1239 18.1973 20.3958 18.4993 19.6364 18.5ZM11.3975 12.8L9.1421 10.5447L8.188 11.4993L11.398 14.7093L16 10.1077L15.0459 9.15311L11.3975 12.8Z" fill="black"/>
</g>
<defs>
<clipPath id="clip0">
<rect width="24" height="24" fill="white"/>
</clipPath>
</defs>
</svg>
