<svg width="24" height="24" viewBox="0 0 24 24" fill="none" xmlns="http://www.w3.org/2000/svg">
<g clip-path="url(#clip0)">
<path d="M20.4136 9.4137C20.275 9.41952 20.1369 9.43341 20 9.4553V6V4H18H14.5447C14.5666 3.86302 14.5805 3.72489 14.5863 3.5863C14.5863 2.63515 14.2085 1.72296 13.5359 1.0504C12.8633 0.377841 11.9511 0 11 0C10.0489 0 9.13666 0.377841 8.4641 1.0504C7.79154 1.72296 7.4137 2.63515 7.4137 3.5863C7.41952 3.72489 7.43341 3.86302 7.4553 4H4H2V11.7L4.23 11.4425L4.3844 11.4225L4.448 11.4144C4.86244 11.4237 5.25677 11.5949 5.54659 11.8913C5.8364 12.1877 5.99868 12.5858 5.99868 13.0003C5.99868 13.4148 5.8364 13.8129 5.54659 14.1093C5.25677 14.4057 4.86244 14.5769 4.448 14.5862L4.3844 14.5781L4.23 14.5581L2 14.3V22H9.7L9.4425 19.77L9.4225 19.6156L9.4144 19.5519C9.42371 19.1375 9.59488 18.7431 9.89128 18.4533C10.1877 18.1635 10.5858 18.0012 11.0003 18.0012C11.4148 18.0012 11.8129 18.1635 12.1093 18.4533C12.4057 18.7431 12.5769 19.1375 12.5862 19.5519L12.5781 19.6156L12.5581 19.77L12.3 22H20V20V16.5447C20.4846 16.6023 20.9759 16.5601 21.4436 16.4208C21.9113 16.2815 22.3456 16.0479 22.7197 15.7345C23.0938 15.4212 23.3999 15.0346 23.6191 14.5985C23.8382 14.1625 23.9659 13.6862 23.9941 13.199C24.0224 12.7118 23.9507 12.2239 23.7835 11.7654C23.6162 11.307 23.3569 10.8876 23.0216 10.533C22.6862 10.1785 22.2819 9.89625 21.8334 9.70376C21.3849 9.51127 20.9018 9.41256 20.4138 9.4137H20.4136ZM20.4474 14.5859L20.3838 14.5778L20.2292 14.5578L18 14.3V20H14.5447C14.627 19.487 14.5969 18.9623 14.4566 18.4621C14.3163 17.9618 14.0692 17.498 13.7321 17.1026C13.3951 16.7073 12.9763 16.3897 12.5046 16.172C12.0329 15.9543 11.5195 15.8415 11 15.8415C10.4805 15.8415 9.96713 15.9543 9.49542 16.172C9.02372 16.3897 8.6049 16.7073 8.26787 17.1026C7.93085 17.498 7.68366 17.9618 7.54337 18.4621C7.40307 18.9623 7.37303 19.487 7.4553 20H4V16.5447C4.13698 16.5666 4.27511 16.5805 4.4137 16.5863C5.36485 16.5863 6.27704 16.2085 6.9496 15.5359C7.62216 14.8633 8 13.9511 8 13C8 12.0489 7.62216 11.1367 6.9496 10.4641C6.27704 9.79154 5.36485 9.4137 4.4137 9.4137C4.27511 9.41953 4.13698 9.43342 4 9.4553V6H9.7L9.4425 3.77L9.4225 3.6156L9.4144 3.5519C9.42371 3.13746 9.59488 2.74313 9.89128 2.45331C10.1877 2.1635 10.5858 2.00122 11.0003 2.00122C11.4148 2.00122 11.8129 2.1635 12.1093 2.45331C12.4057 2.74313 12.5769 3.13746 12.5862 3.5519L12.5781 3.6156L12.5581 3.77L12.3 6H18V11.7L20.2294 11.4425L20.384 11.4225L20.4476 11.4144C20.862 11.4237 21.2564 11.5949 21.5462 11.8913C21.836 12.1877 21.9983 12.5858 21.9983 13.0003C21.9983 13.4148 21.836 13.8129 21.5462 14.1093C21.2564 14.4057 20.862 14.5769 20.4476 14.5862L20.4474 14.5859Z" fill="black"/>
</g>
<defs>
<clipPath id="clip0">
<rect width="24" height="24" fill="white"/>
</clipPath>
</defs>
</svg>
