<svg width="24" height="24" viewBox="0 0 24 24" fill="none" xmlns="http://www.w3.org/2000/svg">
<g clip-path="url(#clip0)">
<path d="M14.5 3V2.5C14.5 1.83696 14.2366 1.20107 13.7678 0.732233C13.2989 0.263392 12.663 0 12 0C11.337 0 10.7011 0.263392 10.2322 0.732233C9.76339 1.20107 9.5 1.83696 9.5 2.5V3H4V22H20V3H14.5ZM11 2.5C11 2.23478 11.1054 1.98043 11.2929 1.79289C11.4804 1.60536 11.7348 1.5 12 1.5C12.2652 1.5 12.5196 1.60536 12.7071 1.79289C12.8946 1.98043 13 2.23478 13 2.5V3H11V2.5ZM15 16H9V14.5938C9.79566 13.7982 10.8748 13.3512 12 13.3512C13.1252 13.3512 14.2043 13.7982 15 14.5938V16ZM10.5038 10.5038C10.5038 10.2079 10.5916 9.9186 10.756 9.67256C10.9204 9.42651 11.154 9.23474 11.4274 9.12149C11.7008 9.00825 12.0017 8.97862 12.2919 9.03635C12.5821 9.09408 12.8487 9.23658 13.058 9.44583C13.2672 9.65507 13.4097 9.92167 13.4675 10.2119C13.5252 10.5021 13.4956 10.803 13.3823 11.0764C13.2691 11.3498 13.0773 11.5834 12.8312 11.7478C12.5852 11.9122 12.2959 12 12 12C11.8035 12 11.609 11.9613 11.4274 11.8861C11.2459 11.8109 11.081 11.7007 10.942 11.5618C10.8031 11.4228 10.6929 11.2579 10.6177 11.0764C10.5425 10.8948 10.5038 10.7003 10.5038 10.5038ZM17.6627 5.3882C17.5772 5.70714 17.3889 5.98897 17.127 6.18999C16.865 6.39101 16.5441 6.49998 16.2139 6.5H7.7861C7.45591 6.49998 7.13495 6.39101 6.873 6.18999C6.61106 5.98897 6.42275 5.70714 6.3373 5.3882L6.0992 4.5H17.9008L17.6627 5.3882Z" fill="black"/>
</g>
<defs>
<clipPath id="clip0">
<rect width="24" height="24" fill="white"/>
</clipPath>
</defs>
</svg>
