<svg width="24" height="24" viewBox="0 0 24 24" fill="none" xmlns="http://www.w3.org/2000/svg">
<path d="M3 3V21H21V3H3ZM20.5 20.5H3.5V15.5H9.55C9.66476 16.0651 9.97136 16.5732 10.4179 16.9382C10.8644 17.3031 11.4233 17.5025 12 17.5025C12.5767 17.5025 13.1356 17.3031 13.5821 16.9382C14.0286 16.5732 14.3352 16.0651 14.45 15.5H20.5V20.5ZM14 15C14 15.5304 13.7893 16.0391 13.4142 16.4142C13.0391 16.7893 12.5304 17 12 17C11.4696 17 10.9609 16.7893 10.5858 16.4142C10.2107 16.0391 10 15.5304 10 15H3.5V10.5H9.55C9.66476 11.0651 9.97136 11.5732 10.4179 11.9382C10.8644 12.3031 11.4233 12.5025 12 12.5025C12.5767 12.5025 13.1356 12.3031 13.5821 11.9382C14.0286 11.5732 14.3352 11.0651 14.45 10.5H20.5V15H14ZM14 10C14 10.5304 13.7893 11.0391 13.4142 11.4142C13.0391 11.7893 12.5304 12 12 12C11.4696 12 10.9609 11.7893 10.5858 11.4142C10.2107 11.0391 10 10.5304 10 10H3.5V3.5H20.5V10H14Z" fill="black"/>
</svg>
