<svg width="24" height="24" viewBox="0 0 24 24" fill="none" xmlns="http://www.w3.org/2000/svg">
<path d="M14 3V2.5C14 1.96957 13.7893 1.46086 13.4142 1.08579C13.0391 0.710714 12.5304 0.5 12 0.5C11.4696 0.5 10.9609 0.710714 10.5858 1.08579C10.2107 1.46086 10 1.96957 10 2.5V3H4V22H20V3H14ZM10.5 2.5C10.5 2.10218 10.658 1.72064 10.9393 1.43934C11.2206 1.15804 11.6022 1 12 1C12.3978 1 12.7794 1.15804 13.0607 1.43934C13.342 1.72064 13.5 2.10218 13.5 2.5V3H10.5V2.5ZM17.2 3.5L16.962 4.3882C16.8762 4.70705 16.6877 4.98875 16.4257 5.18972C16.1637 5.39069 15.8428 5.49974 15.5126 5.5H8.4874C8.15729 5.49961 7.8365 5.39051 7.57461 5.18955C7.31272 4.98859 7.12431 4.70696 7.0385 4.3882L6.8005 3.5H17.2ZM19.5 21.5H4.5V3.5H6.2829L6.5555 4.5176C6.66945 4.94288 6.92054 5.31868 7.26984 5.58671C7.61914 5.85473 8.04712 6.00001 8.4874 6H15.5126C15.9529 6.00001 16.3809 5.85473 16.7302 5.58671C17.0795 5.31868 17.3306 4.94288 17.4445 4.5176L17.7172 3.5H19.5V21.5ZM12.2177 14L12.35 9H11.65L11.7823 14H12.2177ZM12 15.6C11.9209 15.6 11.8436 15.6235 11.7778 15.6674C11.712 15.7114 11.6607 15.7738 11.6304 15.8469C11.6002 15.92 11.5923 16.0004 11.6077 16.078C11.6231 16.1556 11.6612 16.2269 11.7172 16.2828C11.7731 16.3388 11.8444 16.3769 11.922 16.3923C11.9996 16.4077 12.08 16.3998 12.1531 16.3696C12.2262 16.3393 12.2886 16.288 12.3326 16.2222C12.3765 16.1564 12.4 16.0791 12.4 16C12.4 15.8939 12.3579 15.7922 12.2828 15.7172C12.2078 15.6421 12.1061 15.6 12 15.6Z" fill="black"/>
</svg>
