<svg width="24" height="24" viewBox="0 0 24 24" fill="none" xmlns="http://www.w3.org/2000/svg">
<path d="M2 4V20H22V4H2ZM14.4524 10.14H12.6074V13.7394C12.6051 13.9792 12.5543 14.2161 12.4582 14.4358C12.3621 14.6555 12.2225 14.8535 12.048 15.0179C11.8734 15.1824 11.6674 15.3098 11.4423 15.3927C11.2173 15.4755 10.9778 15.512 10.7383 15.5C9.8547 15.5 9.3616 15.1189 9.3616 14.4911C9.35382 14.3617 9.37389 14.2322 9.42047 14.1112C9.46705 13.9903 9.53905 13.8808 9.6316 13.79C9.72415 13.6993 9.8351 13.6295 9.95695 13.5853C10.0788 13.5411 10.2087 13.5236 10.3379 13.534C10.6703 13.5211 10.9999 13.5984 11.292 13.7575V8.5H14.452L14.4524 10.14Z" fill="black"/>
</svg>
