<svg width="24" height="24" viewBox="0 0 24 24" fill="none" xmlns="http://www.w3.org/2000/svg">
<g clip-path="url(#clip0)">
<path d="M2 5.50005H9.6007L9.2223 3.69265C9.16586 3.42776 9.16934 3.1536 9.23247 2.89022C9.2956 2.62685 9.41679 2.38091 9.58719 2.17038C9.75758 1.95986 9.97287 1.79008 10.2173 1.67345C10.4617 1.55683 10.7292 1.4963 11 1.4963C11.2708 1.4963 11.5383 1.55683 11.7827 1.67345C12.0271 1.79008 12.2424 1.95986 12.4128 2.17038C12.5832 2.38091 12.7044 2.62685 12.7675 2.89022C12.8307 3.1536 12.8341 3.42776 12.7777 3.69265L12.3993 5.50005H20V4.00005H14.2458C14.348 3.51681 14.341 3.01684 14.2253 2.53664C14.1097 2.05644 13.8882 1.60813 13.5772 1.22443C13.2662 0.840731 12.8734 0.531324 12.4275 0.318793C11.9816 0.106262 11.4939 -0.00402832 11 -0.00402832C10.5061 -0.00402832 10.0184 0.106262 9.5725 0.318793C9.12662 0.531324 8.73384 0.840731 8.4228 1.22443C8.11176 1.60813 7.89033 2.05644 7.77466 2.53664C7.65898 3.01684 7.652 3.51681 7.7542 4.00005H2V5.50005Z" fill="black"/>
<path d="M2 22H9.6007L9.2223 20.1926C9.16586 19.9278 9.16934 19.6536 9.23247 19.3902C9.2956 19.1268 9.41679 18.8809 9.58719 18.6704C9.75758 18.4599 9.97287 18.2901 10.2173 18.1735C10.4617 18.0568 10.7292 17.9963 11 17.9963C11.2708 17.9963 11.5383 18.0568 11.7827 18.1735C12.0271 18.2901 12.2424 18.4599 12.4128 18.6704C12.5832 18.8809 12.7044 19.1268 12.7675 19.3902C12.8307 19.6536 12.8341 19.9278 12.7777 20.1926L12.3993 22H20V20.5H14.2458C14.348 20.0168 14.341 19.5168 14.2253 19.0366C14.1097 18.5564 13.8882 18.1081 13.5772 17.7244C13.2662 17.3407 12.8734 17.0313 12.4275 16.8188C11.9816 16.6063 11.4939 16.496 11 16.496C10.5061 16.496 10.0184 16.6063 9.5725 16.8188C9.12662 17.0313 8.73384 17.3407 8.4228 17.7244C8.11176 18.1081 7.89033 18.5564 7.77466 19.0366C7.65898 19.5168 7.652 20.0168 7.7542 20.5H2V22Z" fill="black"/>
<path d="M18.5 4V11.6007L20.3074 11.2223C20.5723 11.1659 20.8464 11.1693 21.1098 11.2325C21.3732 11.2956 21.6191 11.4168 21.8297 11.5872C22.0402 11.7576 22.21 11.9729 22.3266 12.2173C22.4432 12.4617 22.5038 12.7292 22.5038 13C22.5038 13.2708 22.4432 13.5383 22.3266 13.7827C22.21 14.0271 22.0402 14.2424 21.8297 14.4128C21.6191 14.5832 21.3732 14.7044 21.1098 14.7675C20.8464 14.8307 20.5723 14.8341 20.3074 14.7777L18.5 14.3993V22H20V16.2458C20.4832 16.348 20.9832 16.341 21.4634 16.2253C21.9436 16.1097 22.3919 15.8882 22.7756 15.5772C23.1593 15.2662 23.4687 14.8734 23.6813 14.4275C23.8938 13.9816 24.0041 13.4939 24.0041 13C24.0041 12.5061 23.8938 12.0184 23.6813 11.5725C23.4687 11.1266 23.1593 10.7338 22.7756 10.4228C22.3919 10.1118 21.9436 9.89033 21.4634 9.77466C20.9832 9.65898 20.4832 9.652 20 9.7542V4H18.5Z" fill="black"/>
<path d="M2 4V11.6007L3.8074 11.2223C4.07229 11.1659 4.34645 11.1693 4.60983 11.2325C4.8732 11.2956 5.11914 11.4168 5.32967 11.5872C5.54019 11.7576 5.70997 11.9729 5.8266 12.2173C5.94322 12.4617 6.00375 12.7292 6.00375 13C6.00375 13.2708 5.94322 13.5383 5.8266 13.7827C5.70997 14.0271 5.54019 14.2424 5.32967 14.4128C5.11914 14.5832 4.8732 14.7044 4.60983 14.7675C4.34645 14.8307 4.07229 14.8341 3.8074 14.7777L2 14.3993V22H3.5V16.2458C3.98324 16.348 4.48321 16.341 4.96341 16.2253C5.44361 16.1097 5.89192 15.8882 6.27562 15.5772C6.65932 15.2662 6.96873 14.8734 7.18126 14.4275C7.39379 13.9816 7.50408 13.4939 7.50408 13C7.50408 12.5061 7.39379 12.0184 7.18126 11.5725C6.96873 11.1266 6.65932 10.7338 6.27562 10.4228C5.89192 10.1118 5.44361 9.89033 4.96341 9.77466C4.48321 9.65898 3.98324 9.652 3.5 9.7542V4H2Z" fill="black"/>
</g>
<defs>
<clipPath id="clip0">
<rect width="24" height="24" fill="white"/>
</clipPath>
</defs>
</svg>
