<svg width="24" height="24" viewBox="0 0 24 24" fill="none" xmlns="http://www.w3.org/2000/svg">
<path d="M15.4141 2H4V22H20V6.5859L15.4141 2ZM18 20H6V4H14.5856L18 7.4144V20ZM14 11.25C14 10.7061 13.8387 10.1744 13.5365 9.72218C13.2344 9.26995 12.8049 8.91747 12.3024 8.70933C11.7999 8.50119 11.2469 8.44673 10.7135 8.55284C10.1801 8.65895 9.69005 8.92086 9.30546 9.30546C8.92086 9.69005 8.65895 10.1801 8.55284 10.7135C8.44673 11.247 8.50119 11.7999 8.70933 12.3024C8.91747 12.8049 9.26995 13.2344 9.72218 13.5365C10.1744 13.8387 10.7061 14 11.25 14C11.7172 13.997 12.1758 13.8738 12.5815 13.6422L14.6571 15.7178L15.7177 14.6572L13.6421 12.5816C13.8738 12.1758 13.997 11.7172 14 11.25ZM11.25 12.4C11.0226 12.4 10.8002 12.3326 10.6111 12.2062C10.422 12.0798 10.2746 11.9002 10.1875 11.6901C10.1005 11.48 10.0777 11.2487 10.1221 11.0256C10.1665 10.8026 10.276 10.5977 10.4368 10.4368C10.5977 10.276 10.8026 10.1665 11.0256 10.1221C11.2487 10.0777 11.48 10.1005 11.6901 10.1875C11.9002 10.2746 12.0798 10.422 12.2062 10.6111C12.3326 10.8002 12.4 11.0226 12.4 11.25C12.3997 11.5549 12.2784 11.8472 12.0628 12.0628C11.8472 12.2784 11.5549 12.3997 11.25 12.4Z" fill="black"/>
</svg>
