<svg width="24" height="24" viewBox="0 0 24 24" fill="none" xmlns="http://www.w3.org/2000/svg">
<path d="M9.9584 5L7.9584 3H2V21H22V5H9.9584ZM14.7 9.8C14.9274 9.8 15.1498 9.86745 15.3389 9.99381C15.528 10.1202 15.6754 10.2998 15.7625 10.5099C15.8495 10.72 15.8723 10.9513 15.8279 11.1744C15.7835 11.3974 15.674 11.6023 15.5132 11.7632C15.3523 11.924 15.1474 12.0335 14.9244 12.0779C14.7013 12.1223 14.47 12.0995 14.2599 12.0125C14.0498 11.9254 13.8702 11.778 13.7438 11.5889C13.6174 11.3998 13.55 11.1774 13.55 10.95C13.55 10.645 13.6712 10.3525 13.8868 10.1368C14.1025 9.92116 14.395 9.8 14.7 9.8ZM9.3 9.8C9.52745 9.8 9.74979 9.86745 9.93891 9.99381C10.128 10.1202 10.2754 10.2998 10.3625 10.5099C10.4495 10.72 10.4723 10.9513 10.4279 11.1744C10.3835 11.3974 10.274 11.6023 10.1132 11.7632C9.95234 11.924 9.74743 12.0335 9.52435 12.0779C9.30128 12.1223 9.07005 12.0995 8.85991 12.0125C8.64978 11.9254 8.47017 11.778 8.34381 11.5889C8.21745 11.3998 8.15 11.1774 8.15 10.95C8.15 10.799 8.17975 10.6494 8.23754 10.5099C8.29533 10.3704 8.38004 10.2436 8.48683 10.1368C8.59361 10.03 8.72039 9.94533 8.85991 9.88754C8.99944 9.82975 9.14898 9.8 9.3 9.8ZM11.25 16H7.35V13.947C7.86718 13.4298 8.56861 13.1393 9.3 13.1393C10.0314 13.1393 10.7328 13.4298 11.25 13.947V16ZM16.65 16H12.75V13.947C13.2672 13.4298 13.9686 13.1393 14.7 13.1393C15.4314 13.1393 16.1328 13.4298 16.65 13.947V16Z" fill="black"/>
</svg>
