<svg width="24" height="24" viewBox="0 0 24 24" fill="none" xmlns="http://www.w3.org/2000/svg">
<path d="M6.5 2C5.83696 2 5.20107 2.26339 4.73223 2.73223C4.26339 3.20107 4 3.83696 4 4.5V19.5C4 20.163 4.26339 20.7989 4.73223 21.2678C5.20107 21.7366 5.83696 22 6.5 22H20V2H6.5ZM19.5 21.5H6.5C5.96975 21.4994 5.4614 21.2885 5.08646 20.9135C4.71152 20.5386 4.50061 20.0302 4.5 19.5V5.9863C4.73081 6.29996 5.03201 6.55508 5.37938 6.73114C5.72674 6.9072 6.11057 6.99929 6.5 7H19.5V21.5ZM19.5 6.5H6.5C5.96957 6.5 5.46086 6.28929 5.08579 5.91421C4.71071 5.53914 4.5 5.03043 4.5 4.5C4.5 3.96957 4.71071 3.46086 5.08579 3.08579C5.46086 2.71071 5.96957 2.5 6.5 2.5H19.5V6.5ZM15 10H9V10.5H15V10Z" fill="black"/>
</svg>
