<svg width="24" height="24" viewBox="0 0 24 24" fill="none" xmlns="http://www.w3.org/2000/svg">
<path d="M15.4141 2H4V22H20V6.5859L15.4141 2ZM14.2979 14.2979C13.921 14.6739 13.4576 14.9516 12.9484 15.1068C12.4392 15.262 11.8997 15.2898 11.3772 15.1879C10.8547 15.086 10.3651 14.8575 9.95153 14.5223C9.53793 14.1872 9.21289 13.7556 9.0049 13.2656L9.4658 13.0703C9.69481 13.6135 10.0922 14.0688 10.5995 14.3691C11.1068 14.6694 11.6972 14.7988 12.2836 14.7383C12.87 14.6778 13.4215 14.4305 13.8567 14.0329C14.292 13.6353 14.588 13.1085 14.7013 12.5299C14.8145 11.9514 14.7389 11.3518 14.4857 10.8194C14.2324 10.2871 13.8148 9.85015 13.2945 9.57302C12.7742 9.2959 12.1786 9.19322 11.5955 9.28012C11.0125 9.36701 10.4727 9.6389 10.0558 10.0557L9.1795 10.9319H11.7762V11.4319H8.3362V7.9919H8.837V10.5666L9.7022 9.7013C10.0025 9.39302 10.3611 9.14745 10.757 8.97886C11.153 8.81026 11.5785 8.72199 12.0089 8.71918C12.4393 8.71636 12.8659 8.79905 13.2641 8.96244C13.6622 9.12584 14.024 9.36669 14.3283 9.67101C14.6326 9.97533 14.8735 10.3371 15.0369 10.7352C15.2003 11.1334 15.2829 11.56 15.2801 11.9904C15.2773 12.4208 15.189 12.8463 15.0204 13.2423C14.8518 13.6382 14.6063 13.9968 14.298 14.2971L14.2979 14.2979Z" fill="black"/>
</svg>
