<svg width="24" height="24" viewBox="0 0 24 24" fill="none" xmlns="http://www.w3.org/2000/svg">
<path d="M6.5 2C5.83696 2 5.20107 2.26339 4.73223 2.73223C4.26339 3.20107 4 3.83696 4 4.5V19.5C4 20.163 4.26339 20.7989 4.73223 21.2678C5.20107 21.7366 5.83696 22 6.5 22H20V2H6.5ZM19 21H6.5C6.10231 20.9995 5.72104 20.8414 5.43984 20.5602C5.15863 20.279 5.00045 19.8977 5 19.5V6.4887C5.43054 6.81875 5.95751 6.99838 6.5 7H19V21ZM19 6H6.5C6.10218 6 5.72064 5.84196 5.43934 5.56066C5.15804 5.27936 5 4.89782 5 4.5C5 4.10218 5.15804 3.72064 5.43934 3.43934C5.72064 3.15804 6.10218 3 6.5 3H19V6ZM15 10H9V11H15V10Z" fill="black"/>
</svg>
