<svg width="24" height="24" viewBox="0 0 24 24" fill="none" xmlns="http://www.w3.org/2000/svg">
<path d="M12 14.3375L11.4983 14.0465L9 12.5975V13.5981C9.00001 13.8614 9.06932 14.1201 9.20097 14.3481C9.33262 14.5761 9.52198 14.7655 9.75 14.8971L12 16.1962L14.25 14.8971C14.478 14.7655 14.6674 14.5761 14.799 14.3481C14.9307 14.1201 15 13.8614 15 13.5981V12.5975L12.5017 14.0465L12 14.3375ZM16.6748 10.47L12 7.7587L7.3252 10.47L12 13.1815L16.6748 10.47ZM2 4V20H22V4H2ZM20 18H4V6H20V18Z" fill="black"/>
</svg>
