<svg width="24" height="24" viewBox="0 0 24 24" fill="none" xmlns="http://www.w3.org/2000/svg">
<g clip-path="url(#clip0)">
<path d="M14.5 3V2.5C14.5 1.83696 14.2366 1.20107 13.7678 0.732233C13.2989 0.263392 12.663 0 12 0C11.337 0 10.7011 0.263392 10.2322 0.732233C9.76339 1.20107 9.5 1.83696 9.5 2.5V3H4V22H20V3H14.5ZM11.1 2.5C11.1 2.38181 11.1233 2.26478 11.1685 2.15558C11.2137 2.04639 11.28 1.94718 11.3636 1.8636C11.4472 1.78003 11.5464 1.71374 11.6556 1.66851C11.7648 1.62328 11.8818 1.6 12 1.6C12.1182 1.6 12.2352 1.62328 12.3444 1.66851C12.4536 1.71374 12.5528 1.78003 12.6364 1.8636C12.72 1.94718 12.7863 2.04639 12.8315 2.15558C12.8767 2.26478 12.9 2.38181 12.9 2.5V3H11.1V2.5ZM12 17C11.8022 17 11.6089 16.9414 11.4444 16.8315C11.28 16.7216 11.1518 16.5654 11.0761 16.3827C11.0004 16.2 10.9806 15.9989 11.0192 15.8049C11.0578 15.6109 11.153 15.4327 11.2929 15.2929C11.4327 15.153 11.6109 15.0578 11.8049 15.0192C11.9989 14.9806 12.2 15.0004 12.3827 15.0761C12.5654 15.1518 12.7216 15.28 12.8315 15.4444C12.9414 15.6089 13 15.8022 13 16C13 16.2652 12.8946 16.5196 12.7071 16.7071C12.5196 16.8946 12.2652 17 12 17ZM12.7578 14H11.2422L10.7812 9H13.2188L12.7578 14ZM17.6627 5.8882C17.5772 6.20714 17.3889 6.48897 17.127 6.68999C16.865 6.89101 16.5441 6.99998 16.2139 7H7.7861C7.45591 6.99998 7.13495 6.89101 6.873 6.68999C6.61106 6.48897 6.42275 6.20714 6.3373 5.8882L6.0992 5H17.9008L17.6627 5.8882Z" fill="black"/>
</g>
<defs>
<clipPath id="clip0">
<rect width="24" height="24" fill="white"/>
</clipPath>
</defs>
</svg>
