<svg width="24" height="24" viewBox="0 0 24 24" fill="none" xmlns="http://www.w3.org/2000/svg">
<path d="M10.9584 5L8.9584 3H2V21H22V5H10.9584ZM20 19H4V5H8.13L10.13 7H20V19ZM14.7 12.1C14.9274 12.1 15.1498 12.0326 15.3389 11.9062C15.528 11.7798 15.6754 11.6002 15.7625 11.3901C15.8495 11.18 15.8723 10.9487 15.8279 10.7256C15.7835 10.5026 15.674 10.2977 15.5132 10.1368C15.3523 9.976 15.1474 9.86647 14.9244 9.8221C14.7013 9.77772 14.47 9.8005 14.2599 9.88754C14.0498 9.97458 13.8702 10.122 13.7438 10.3111C13.6174 10.5002 13.55 10.7226 13.55 10.95C13.55 11.255 13.6712 11.5475 13.8868 11.7632C14.1025 11.9788 14.395 12.1 14.7 12.1ZM9.3 9.8C9.07255 9.8 8.85021 9.86745 8.66109 9.99381C8.47198 10.1202 8.32458 10.2998 8.23754 10.5099C8.1505 10.72 8.12772 10.9513 8.1721 11.1744C8.21647 11.3974 8.326 11.6023 8.48683 11.7632C8.64766 11.924 8.85257 12.0335 9.07565 12.0779C9.29872 12.1223 9.52995 12.0995 9.74009 12.0125C9.95022 11.9254 10.1298 11.778 10.2562 11.5889C10.3826 11.3998 10.45 11.1774 10.45 10.95C10.45 10.645 10.3288 10.3525 10.1132 10.1368C9.89751 9.92116 9.605 9.8 9.3 9.8ZM7.35 13.947V16H11.25V13.947C10.7328 13.4298 10.0314 13.1393 9.3 13.1393C8.56861 13.1393 7.86718 13.4298 7.35 13.947ZM16.65 13.947C16.1328 13.4298 15.4314 13.1393 14.7 13.1393C13.9686 13.1393 13.2672 13.4298 12.75 13.947V16H16.65V13.947Z" fill="black"/>
</svg>
