<svg width="24" height="24" viewBox="0 0 24 24" fill="none" xmlns="http://www.w3.org/2000/svg">
<path d="M2 4V20H22V4H2ZM15 10.5H12.75V13.3529C12.7472 13.6454 12.6853 13.9342 12.5681 14.2022C12.4508 14.4701 12.2807 14.7116 12.0678 14.9121C11.8549 15.1126 11.6037 15.2681 11.3292 15.3691C11.0547 15.4701 10.7627 15.5147 10.4706 15.5C9.3933 15.5 8.7917 15.0353 8.7917 14.27C8.78221 14.1122 8.80669 13.9543 8.86349 13.8068C8.9203 13.6593 9.0081 13.5257 9.12097 13.415C9.23383 13.3044 9.36913 13.2193 9.51773 13.1654C9.66632 13.1115 9.82475 13.0902 9.9823 13.1028C10.3876 13.0871 10.7897 13.1813 11.1459 13.3753V8.5H15V10.5Z" fill="black"/>
</svg>
