<svg width="24" height="24" viewBox="0 0 24 24" fill="none" xmlns="http://www.w3.org/2000/svg">
<path d="M15.4141 2H4V22H20V6.5859L15.4141 2ZM19.5 21.5H4.5V2.5H15.207L19.5 6.793V21.5ZM14.0537 10.6675C14.4022 10.5516 14.7054 10.3289 14.9202 10.0309C15.1349 9.73288 15.2503 9.37481 15.25 9.0075V8.5H14.75V9.0073C14.7502 9.26964 14.6678 9.52538 14.5144 9.7382C14.361 9.95103 14.1444 10.1101 13.8955 10.1929L13.35 10.3748V9.85C13.35 9.49196 13.2078 9.14858 12.9546 8.89541C12.7014 8.64223 12.358 8.5 12 8.5C11.642 8.5 11.2986 8.64223 11.0454 8.89541C10.7922 9.14858 10.65 9.49196 10.65 9.85V10.3748L10.1045 10.1929C9.85556 10.1101 9.63902 9.95103 9.48563 9.7382C9.33224 9.52538 9.2498 9.26964 9.25 9.0073V8.5H8.75V9.0073C8.74967 9.37461 8.86508 9.73268 9.07983 10.0307C9.29458 10.3287 9.59775 10.5514 9.9463 10.6673L10.65 10.9019V11.75H8V12.25H10.65V12.9625C10.6563 13.0052 10.6649 13.0476 10.6757 13.0894L9.9463 13.3325C9.59775 13.4484 9.29458 13.6711 9.07983 13.9691C8.86508 14.2671 8.74967 14.6252 8.75 14.9925V15.5H9.25V14.9927C9.2498 14.7304 9.33224 14.4746 9.48563 14.2618C9.63902 14.049 9.85556 13.8899 10.1045 13.8071L10.8122 13.5712C10.921 13.7935 11.09 13.9809 11.2999 14.1119C11.5099 14.243 11.7525 14.3125 12 14.3125C12.2475 14.3125 12.4901 14.243 12.7001 14.1119C12.91 13.9809 13.079 13.7935 13.1878 13.5712L13.8955 13.8071C14.1444 13.8899 14.361 14.049 14.5144 14.2618C14.6678 14.4746 14.7502 14.7304 14.75 14.9927V15.5H15.25V14.9927C15.2503 14.6254 15.1349 14.2673 14.9202 13.9693C14.7054 13.6713 14.4022 13.4486 14.0537 13.3327L13.3243 13.0896C13.3351 13.0478 13.3437 13.0054 13.35 12.9627V12.25H16V11.75H13.35V10.9021L14.0537 10.6675ZM12.85 12.9625C12.85 13.1879 12.7604 13.4041 12.601 13.5635C12.4416 13.7229 12.2254 13.8125 12 13.8125C11.7746 13.8125 11.5584 13.7229 11.399 13.5635C11.2396 13.4041 11.15 13.1879 11.15 12.9625V9.85C11.15 9.62457 11.2396 9.40837 11.399 9.24896C11.5584 9.08955 11.7746 9 12 9C12.2254 9 12.4416 9.08955 12.601 9.24896C12.7604 9.40837 12.85 9.62457 12.85 9.85V12.9625Z" fill="black"/>
</svg>
