<svg width="24" height="24" viewBox="0 0 24 24" fill="none" xmlns="http://www.w3.org/2000/svg">
<path d="M2 4V20H22V4H2ZM21.5 19.5H2.5V4.5H21.5V19.5ZM9.283 15.8932L12 13.9192L14.717 15.8932L13.6792 12.6992L16.3962 10.7252H13.0378L12 7.5312L10.9622 10.7252H7.6038L10.3208 12.6992L9.283 15.8932ZM8.9888 11.1752H11.2888L11.3898 10.8643L12 8.9874L12.61 10.8643L12.711 11.1752H15.011L13.4145 12.3352L13.1499 12.5274L13.251 12.8384L13.861 14.7152L12.2644 13.5552L12 13.363L11.7355 13.5552L10.1389 14.7152L10.7489 12.8384L10.85 12.5274L10.5854 12.3352L8.9888 11.1752Z" fill="black"/>
</svg>
