<svg width="24" height="24" viewBox="0 0 24 24" fill="none" xmlns="http://www.w3.org/2000/svg">
<path d="M10.9584 5L8.9584 3H2V21H22V5H10.9584ZM20 19H4V5H8.13L10.13 7H20V19ZM12 12C12.2959 12 12.5852 11.9122 12.8312 11.7478C13.0773 11.5834 13.2691 11.3498 13.3823 11.0764C13.4956 10.803 13.5252 10.5021 13.4675 10.2119C13.4097 9.92167 13.2672 9.65507 13.058 9.44583C12.8487 9.23658 12.5821 9.09408 12.2919 9.03635C12.0017 8.97862 11.7008 9.00825 11.4274 9.12149C11.154 9.23474 10.9204 9.42651 10.756 9.67256C10.5915 9.9186 10.5038 10.2079 10.5038 10.5038C10.5038 10.7003 10.5425 10.8948 10.6177 11.0764C10.6929 11.2579 10.8031 11.4228 10.942 11.5618C11.081 11.7007 11.2459 11.8109 11.4274 11.8861C11.609 11.9613 11.8035 12 12 12ZM9 14.5938V16H15V14.5938C14.2043 13.7982 13.1252 13.3512 12 13.3512C10.8748 13.3512 9.79566 13.7982 9 14.5938Z" fill="black"/>
</svg>
