<svg width="24" height="24" viewBox="0 0 24 24" fill="none" xmlns="http://www.w3.org/2000/svg">
<g clip-path="url(#clip0)">
<path d="M21.7937 11.8647C22.1608 10.856 22.2148 9.75986 21.9485 8.71993C21.6823 7.68 21.1082 6.7447 20.3015 6.03649C19.4948 5.32828 18.493 4.88016 17.4274 4.7508C16.3617 4.62144 15.2818 4.81687 14.3291 5.3115C13.2722 4.32064 11.9299 3.68815 10.4929 3.50393C9.05589 3.31972 7.59739 3.59315 6.32472 4.28536C5.05204 4.97757 4.02994 6.05334 3.40371 7.35974C2.77747 8.66615 2.57897 10.1367 2.83643 11.5624C1.87865 11.9189 1.07673 12.6008 0.570965 13.4889C0.0652031 14.3769 -0.112187 15.4145 0.0698314 16.4202C0.25185 17.4258 0.781686 18.3354 1.56663 18.9898C2.35158 19.6443 3.34166 20.0018 4.36363 20H19.6364C20.5983 20.0031 21.5341 19.6873 22.2974 19.1019C23.0607 18.5166 23.6085 17.6948 23.8551 16.765C24.1016 15.8352 24.0331 14.85 23.6601 13.9633C23.2871 13.0767 22.6308 12.3387 21.7937 11.8647ZM19.6364 19.4H4.36363C3.48222 19.4018 2.62825 19.0936 1.9512 18.5293C1.27415 17.9649 0.817161 17.1804 0.660225 16.3131C0.50329 15.4458 0.656408 14.5509 1.09278 13.7851C1.52915 13.0193 2.22096 12.4313 3.04713 12.1242L3.51563 11.9484L3.42683 11.4559C3.18794 10.1532 3.36672 8.80838 3.93763 7.61335C4.50854 6.41832 5.4424 5.43421 6.60589 4.8015C7.76938 4.16879 9.10302 3.91984 10.4164 4.09017C11.7298 4.26051 12.9558 4.84143 13.9194 5.75L14.2263 6.0369L14.6008 5.8469C15.2638 5.50071 15.9997 5.31739 16.7476 5.3121C18.0128 5.31348 19.2257 5.81662 20.1204 6.71114C21.0151 7.60567 21.5184 8.81855 21.52 10.0837C21.5144 10.6236 21.4157 11.1584 21.2283 11.6648L21.0616 12.1364L21.4955 12.3852C22.2179 12.7934 22.7845 13.4296 23.1066 14.1942C23.4287 14.9588 23.4881 15.8087 23.2756 16.6107C23.063 17.4127 22.5905 18.1216 21.932 18.6263C21.2734 19.1311 20.4661 19.4032 19.6364 19.4ZM15.1631 10.5674L14.2979 9.7021C13.8059 9.21189 13.1696 8.89254 12.4825 8.79103C11.7954 8.68953 11.0939 8.81123 10.4812 9.13822C9.86843 9.46522 9.37683 9.98025 9.07868 10.6075C8.78054 11.2348 8.69161 11.9412 8.82496 12.6228C8.95832 13.3045 9.30693 13.9253 9.81949 14.3939C10.3321 14.8626 10.9815 15.1544 11.6723 15.2263C12.3631 15.2983 13.0588 15.1466 13.6569 14.7937C14.2551 14.4407 14.7241 13.9051 14.9951 13.2656L14.5342 13.0703C14.3052 13.6135 13.9078 14.0688 13.4005 14.3691C12.8932 14.6694 12.3028 14.7989 11.7164 14.7383C11.13 14.6778 10.5786 14.4305 10.1433 14.0329C9.70803 13.6353 9.41198 13.1085 9.29875 12.5299C9.18552 11.9514 9.26111 11.3518 9.51437 10.8194C9.76764 10.2871 10.1852 9.85016 10.7055 9.57303C11.2258 9.2959 11.8214 9.19322 12.4045 9.28012C12.9876 9.36702 13.5273 9.6389 13.9442 10.0557L14.8205 10.9319H12.2239V11.4319H15.6639V7.9919H15.1634L15.1631 10.5674Z" fill="black"/>
</g>
<defs>
<clipPath id="clip0">
<rect width="24" height="24" fill="white"/>
</clipPath>
</defs>
</svg>
