<svg width="24" height="24" viewBox="0 0 24 24" fill="none" xmlns="http://www.w3.org/2000/svg">
<path d="M15.4141 2H4V22H20V6.5859L15.4141 2ZM16 12.45H13.5V12.8123C13.5 12.8537 13.4911 12.8923 13.4879 12.9331L14.1172 13.1431C14.5056 13.2722 14.8435 13.5205 15.0828 13.8526C15.3221 14.1847 15.4507 14.5838 15.4502 14.9931V15.5H14.5502V14.9927C14.5505 14.7723 14.4813 14.5574 14.3524 14.3785C14.2236 14.1997 14.0416 14.0661 13.8324 13.9966L13.1476 13.7682C13.0087 13.9383 12.8337 14.0754 12.6353 14.1695C12.4369 14.2637 12.22 14.3125 12.0004 14.3125C11.7808 14.3125 11.5639 14.2637 11.3655 14.1695C11.1671 14.0754 10.9921 13.9383 10.8532 13.7682L10.1684 13.9966C9.9592 14.0661 9.77723 14.1997 9.64836 14.3785C9.51949 14.5574 9.45029 14.7723 9.4506 14.9927V15.5H8.5506V14.9927C8.55014 14.5834 8.67869 14.1843 8.91798 13.8522C9.15728 13.5201 9.49516 13.2718 9.8836 13.1427L10.5129 12.9327C10.5097 12.8927 10.5008 12.8533 10.5008 12.8119V12.45H8V11.55H10.5V11.0628L9.8828 10.8571C9.49436 10.728 9.15648 10.4797 8.91718 10.1476C8.67789 9.81552 8.54934 9.41644 8.5498 9.0071V8.5H9.4498V9.0073C9.44949 9.22773 9.51869 9.44264 9.64756 9.62147C9.77643 9.8003 9.9584 9.93395 10.1676 10.0034L10.4996 10.1141V10C10.4996 9.60218 10.6576 9.22064 10.9389 8.93934C11.2202 8.65804 11.6018 8.5 11.9996 8.5C12.3974 8.5 12.779 8.65804 13.0603 8.93934C13.3416 9.22064 13.4996 9.60218 13.4996 10V10.1141L13.8316 10.0034C14.0408 9.93395 14.2228 9.8003 14.3516 9.62147C14.4805 9.44264 14.5497 9.22773 14.5494 9.0073V8.5H15.4494V9.0073C15.4499 9.41664 15.3213 9.81572 15.082 10.1478C14.8427 10.4799 14.5048 10.7282 14.1164 10.8573L13.4992 11.063V11.55H16V12.45Z" fill="black"/>
</svg>
