<svg width="24" height="24" viewBox="0 0 24 24" fill="none" xmlns="http://www.w3.org/2000/svg">
<g clip-path="url(#clip0)">
<path d="M21 9.99997C20.6586 10.0033 20.3203 10.0655 20 10.1837V3.99997H13.8163C13.9827 3.54658 14.0372 3.05971 13.9751 2.58075C13.913 2.10179 13.7363 1.64489 13.4598 1.2489C13.1833 0.852899 12.8153 0.529509 12.387 0.306211C11.9588 0.0829129 11.483 -0.0336914 11 -0.0336914C10.517 -0.0336914 10.0412 0.0829129 9.61296 0.306211C9.18471 0.529509 8.81671 0.852899 8.54023 1.2489C8.26374 1.64489 8.08695 2.10179 8.02488 2.58075C7.96281 3.05971 8.01729 3.54658 8.1837 3.99997H2V10.8921L2.6675 10.6548C2.93399 10.5555 3.21565 10.5031 3.5 10.5C4.16304 10.5 4.79893 10.7634 5.26777 11.2322C5.73661 11.701 6 12.3369 6 13C6 13.663 5.73661 14.2989 5.26777 14.7677C4.79893 15.2366 4.16304 15.5 3.5 15.5C3.21565 15.4968 2.93399 15.4444 2.6675 15.3452L2 15.1079V22H8.8921L8.6548 21.3325C8.55554 21.066 8.50317 20.7843 8.5 20.5C8.5 19.8369 8.76339 19.201 9.23223 18.7322C9.70107 18.2634 10.337 18 11 18C11.663 18 12.2989 18.2634 12.7678 18.7322C13.2366 19.201 13.5 19.8369 13.5 20.5C13.4968 20.7843 13.4445 21.066 13.3452 21.3325L13.1079 22H20V15.8163C20.4114 15.9628 20.8498 16.0176 21.2846 15.9769C21.7194 15.9361 22.14 15.8008 22.517 15.5804C22.894 15.3599 23.2182 15.0597 23.4669 14.7008C23.7156 14.3418 23.8828 13.9328 23.9568 13.5025C24.0308 13.0721 24.0098 12.6307 23.8952 12.2093C23.7807 11.7879 23.5754 11.3967 23.2937 11.063C23.012 10.7293 22.6607 10.4612 22.2645 10.2776C21.8683 10.094 21.4367 9.99922 21 9.99997ZM21 15.5C20.7156 15.4968 20.434 15.4444 20.1675 15.3452L19.5 15.1079V21.5H13.8163C13.9827 21.0466 14.0372 20.5597 13.9751 20.0807C13.913 19.6018 13.7363 19.1449 13.4598 18.7489C13.1833 18.3529 12.8153 18.0295 12.387 17.8062C11.9588 17.5829 11.483 17.4663 11 17.4663C10.517 17.4663 10.0412 17.5829 9.61296 17.8062C9.18471 18.0295 8.81671 18.3529 8.54023 18.7489C8.26374 19.1449 8.08695 19.6018 8.02488 20.0807C7.96281 20.5597 8.01729 21.0466 8.1837 21.5H2.5V15.8163C2.95339 15.9827 3.44026 16.0372 3.91922 15.9751C4.39818 15.913 4.85508 15.7362 5.25107 15.4597C5.64707 15.1833 5.97046 14.8153 6.19376 14.387C6.41706 13.9588 6.53366 13.4829 6.53366 13C6.53366 12.517 6.41706 12.0412 6.19376 11.6129C5.97046 11.1847 5.64707 10.8167 5.25107 10.5402C4.85508 10.2637 4.39818 10.0869 3.91922 10.0248C3.44026 9.96278 2.95339 10.0173 2.5 10.1837V4.49997H8.8921L8.6548 3.83247C8.55554 3.56598 8.50317 3.28432 8.5 2.99997C8.5 2.33693 8.76339 1.70104 9.23223 1.2322C9.70107 0.763361 10.337 0.499969 11 0.499969C11.663 0.499969 12.2989 0.763361 12.7678 1.2322C13.2366 1.70104 13.5 2.33693 13.5 2.99997C13.4968 3.28432 13.4445 3.56598 13.3452 3.83247L13.1079 4.49997H19.5V10.8921L20.1675 10.6548C20.434 10.5555 20.7156 10.5031 21 10.5C21.663 10.5 22.2989 10.7634 22.7678 11.2322C23.2366 11.701 23.5 12.3369 23.5 13C23.5 13.663 23.2366 14.2989 22.7678 14.7677C22.2989 15.2366 21.663 15.5 21 15.5Z" fill="black"/>
</g>
<defs>
<clipPath id="clip0">
<rect width="24" height="24" fill="white"/>
</clipPath>
</defs>
</svg>
