<svg width="24" height="24" viewBox="0 0 24 24" fill="none" xmlns="http://www.w3.org/2000/svg">
<path d="M3 3V21H21V3H3ZM19.5 19.5H4.5V17.3776L8.5022 13.8262L9.7731 14.9586L10.7677 15.8447L11.7651 14.9617L15.2271 11.897L19.5 15.6608V19.5ZM19.5 13.6619L15.2245 9.8958L10.7709 13.8386L8.5042 11.8186L4.5 15.3721V4.5H19.5V13.6619ZM8.5 9.75C8.74723 9.75 8.9889 9.67669 9.19446 9.53934C9.40002 9.40199 9.56024 9.20676 9.65485 8.97835C9.74946 8.74995 9.77421 8.49861 9.72598 8.25614C9.67775 8.01366 9.5587 7.79093 9.38388 7.61612C9.20907 7.4413 8.98634 7.32225 8.74386 7.27402C8.50139 7.22579 8.25005 7.25054 8.02165 7.34515C7.79324 7.43976 7.59801 7.59998 7.46066 7.80554C7.32331 8.0111 7.25 8.25277 7.25 8.5C7.25 8.83152 7.3817 9.14946 7.61612 9.38388C7.85054 9.6183 8.16848 9.75 8.5 9.75Z" fill="black"/>
</svg>
