<svg width="24" height="24" viewBox="0 0 24 24" fill="none" xmlns="http://www.w3.org/2000/svg">
<path d="M12 2.5C13.8789 2.5 15.7156 3.05717 17.2779 4.10104C18.8402 5.14491 20.0578 6.62861 20.7769 8.36451C21.4959 10.1004 21.684 12.0105 21.3175 13.8534C20.9509 15.6962 20.0461 17.3889 18.7175 18.7175C17.3889 20.0461 15.6962 20.9509 13.8534 21.3175C12.0105 21.684 10.1004 21.4959 8.3645 20.7769C6.62861 20.0578 5.14491 18.8402 4.10104 17.2779C3.05716 15.7157 2.5 13.8789 2.5 12C2.50286 9.48132 3.50466 7.06662 5.28564 5.28564C7.06662 3.50467 9.48132 2.50286 12 2.5ZM12 2C10.0222 2 8.08879 2.58649 6.44429 3.6853C4.7998 4.78412 3.51808 6.3459 2.7612 8.17317C2.00433 10.0004 1.80629 12.0111 2.19214 13.9509C2.578 15.8907 3.5304 17.6725 4.92893 19.0711C6.32745 20.4696 8.10928 21.422 10.0491 21.8079C11.9889 22.1937 13.9996 21.9957 15.8268 21.2388C17.6541 20.4819 19.2159 19.2002 20.3147 17.5557C21.4135 15.9112 22 13.9778 22 12C21.997 9.34876 20.9424 6.80697 19.0677 4.93226C17.193 3.05755 14.6512 2.00302 12 2Z" fill="black"/>
<path d="M12 8.54885L15.5 10.5768V14.4999H8.5V10.5768L12 8.54885ZM12 7.97095L8 10.2886V14.9999H16V10.2886L12 7.97095Z" fill="black"/>
</svg>
