<svg width="24" height="24" viewBox="0 0 24 24" fill="none" xmlns="http://www.w3.org/2000/svg">
<path d="M2 4V20H22V4H2ZM15.3623 14.1619C15.3605 14.3441 15.322 14.5241 15.249 14.691C15.1759 14.858 15.0699 15.0085 14.9373 15.1334C14.8047 15.2584 14.6482 15.3553 14.4772 15.4183C14.3062 15.4813 14.1243 15.5091 13.9423 15.5C13.2709 15.5 12.8959 15.21 12.8959 14.7333C12.89 14.635 12.9053 14.5365 12.9407 14.4446C12.9761 14.3527 13.0308 14.2694 13.1011 14.2005C13.1715 14.1315 13.2558 14.0785 13.3484 14.0449C13.441 14.0113 13.5397 13.998 13.6379 14.0059C13.8905 13.9962 14.1411 14.0549 14.3631 14.1759V9.5H10.3731V14.1619C10.3713 14.3442 10.3327 14.5243 10.2596 14.6913C10.1865 14.8583 10.0804 15.0089 9.94768 15.1338C9.81493 15.2588 9.6583 15.3557 9.48718 15.4186C9.31606 15.4815 9.13399 15.5092 8.9519 15.5C8.2805 15.5 7.9056 15.21 7.9056 14.7333C7.89969 14.635 7.91495 14.5365 7.95036 14.4446C7.98577 14.3527 8.0405 14.2694 8.11085 14.2004C8.1812 14.1315 8.26553 14.0784 8.35815 14.0449C8.45076 14.0113 8.54951 13.998 8.6477 14.0059C8.9003 13.9962 9.15083 14.0549 9.3728 14.1759V8.5H15.3628L15.3623 14.1619Z" fill="black"/>
</svg>
