<svg width="24" height="24" viewBox="0 0 24 24" fill="none" xmlns="http://www.w3.org/2000/svg">
<path d="M15.4141 2H4V22H20V6.5859L15.4141 2ZM19.5 21.5H4.5V2.5H15.207L19.5 6.793V21.5ZM14 11.25C14.0071 10.616 13.7973 9.99866 13.4055 9.50022C13.0137 9.00178 12.4633 8.65218 11.8456 8.50936C11.2278 8.36654 10.5799 8.43906 10.009 8.71493C9.43816 8.99079 8.97869 9.45342 8.70676 10.0262C8.43483 10.5989 8.36676 11.2474 8.51383 11.8641C8.66089 12.4808 9.01427 13.0288 9.51539 13.4172C10.0165 13.8055 10.6353 14.0111 11.2692 13.9996C11.9031 13.9882 12.5141 13.7605 13.0009 13.3543L15.0109 15.3643L15.3645 15.0107L13.3545 13.0007C13.769 12.5113 13.9975 11.8913 14 11.25ZM11.25 13.5C10.805 13.5 10.37 13.368 9.99997 13.1208C9.62996 12.8736 9.34157 12.5222 9.17127 12.111C9.00097 11.6999 8.95642 11.2475 9.04323 10.811C9.13005 10.3746 9.34434 9.97368 9.65901 9.65901C9.97368 9.34434 10.3746 9.13005 10.811 9.04323C11.2475 8.95642 11.6999 9.00097 12.111 9.17127C12.5222 9.34157 12.8736 9.62996 13.1208 9.99997C13.368 10.37 13.5 10.805 13.5 11.25C13.4994 11.8465 13.2621 12.4185 12.8403 12.8403C12.4185 13.2621 11.8465 13.4994 11.25 13.5Z" fill="black"/>
</svg>
