<svg width="24" height="24" viewBox="0 0 24 24" fill="none" xmlns="http://www.w3.org/2000/svg">
<path d="M11.25 9C10.805 9 10.37 9.13196 9.99997 9.37919C9.62996 9.62643 9.34157 9.97783 9.17127 10.389C9.00097 10.8001 8.95642 11.2525 9.04323 11.689C9.13005 12.1254 9.34434 12.5263 9.65901 12.841C9.97368 13.1557 10.3746 13.37 10.811 13.4568C11.2475 13.5436 11.6999 13.499 12.111 13.3287C12.5222 13.1584 12.8736 12.87 13.1208 12.5C13.368 12.13 13.5 11.695 13.5 11.25C13.4994 10.6535 13.2621 10.0815 12.8403 9.65971C12.4185 9.23789 11.8465 9.00064 11.25 9ZM15.414 2H4V22H20V6.5859L15.414 2ZM15.0106 15.3643L13.0006 13.3543C12.4509 13.813 11.7455 14.042 11.0312 13.9937C10.3169 13.9455 9.64872 13.6236 9.16577 13.0951C8.68281 12.5666 8.42227 11.8722 8.43838 11.1564C8.45449 10.4407 8.746 9.75868 9.25224 9.25244C9.75848 8.7462 10.4405 8.45469 11.1562 8.43858C11.872 8.42247 12.5664 8.68301 13.0949 9.16597C13.6234 9.64892 13.9453 10.3171 13.9935 11.0314C14.0418 11.7457 13.8128 12.4511 13.3541 13.0008L15.3641 15.0108L15.0106 15.3643Z" fill="black"/>
</svg>
