<svg width="24" height="24" viewBox="0 0 24 24" fill="none" xmlns="http://www.w3.org/2000/svg">
<path d="M12 2.5C13.4587 2.5 14.8576 3.07946 15.8891 4.11091C16.9205 5.14236 17.5 6.54131 17.5 8H19C19 6.14348 18.2625 4.36301 16.9497 3.05025C15.637 1.7375 13.8565 1 12 1C10.1435 1 8.36301 1.7375 7.05025 3.05025C5.7375 4.36301 5 6.14348 5 8H6.5C6.5 6.54131 7.07946 5.14236 8.11091 4.11091C9.14236 3.07946 10.5413 2.5 12 2.5Z" fill="black"/>
<path d="M14 21.5C13.0717 21.5 12.1815 21.1313 11.5251 20.4749C10.8687 19.8185 10.5 18.9283 10.5 18H9C9 19.3261 9.52678 20.5979 10.4645 21.5355C11.4021 22.4732 12.6739 23 14 23C15.3261 23 16.5979 22.4732 17.5355 21.5355C18.4732 20.5979 19 19.3261 19 18H17.5C17.5 18.9283 17.1313 19.8185 16.4749 20.4749C15.8185 21.1313 14.9283 21.5 14 21.5Z" fill="black"/>
<path d="M12 7.5C12.3978 7.5 12.7794 7.65804 13.0607 7.93934C13.342 8.22064 13.5 8.60218 13.5 9H15C15 8.20435 14.6839 7.44129 14.1213 6.87868C13.5587 6.31607 12.7956 6 12 6C11.2044 6 10.4413 6.31607 9.87868 6.87868C9.31607 7.44129 9 8.20435 9 9H10.5C10.5 8.60218 10.658 8.22064 10.9393 7.93934C11.2206 7.65804 11.6022 7.5 12 7.5Z" fill="black"/>
<path d="M6.5 8H5V18H6.5V8Z" fill="black"/>
<path d="M10.5 9H9V18H10.5V9Z" fill="black"/>
<path d="M15 9H13.5V18H15V9Z" fill="black"/>
<path d="M19 8H17.5V18H19V8Z" fill="black"/>
</svg>
