<svg width="24" height="24" viewBox="0 0 24 24" fill="none" xmlns="http://www.w3.org/2000/svg">
<path d="M14.7 10.3C14.8483 10.3 14.9933 10.344 15.1167 10.4264C15.24 10.5088 15.3361 10.6259 15.3929 10.763C15.4497 10.9 15.4645 11.0508 15.4356 11.1963C15.4066 11.3418 15.3352 11.4754 15.2303 11.5803C15.1254 11.6852 14.9918 11.7566 14.8463 11.7856C14.7008 11.8145 14.55 11.7997 14.413 11.7429C14.2759 11.6861 14.1588 11.59 14.0764 11.4667C13.994 11.3433 13.95 11.1983 13.95 11.05C13.9502 10.8512 14.0293 10.6605 14.1699 10.5199C14.3105 10.3793 14.5012 10.3002 14.7 10.3ZM9.3 10.3C9.44834 10.3 9.59334 10.344 9.71668 10.4264C9.84001 10.5088 9.93614 10.6259 9.99291 10.763C10.0497 10.9 10.0645 11.0508 10.0356 11.1963C10.0066 11.3418 9.93522 11.4754 9.83033 11.5803C9.72544 11.6852 9.5918 11.7566 9.44632 11.7856C9.30083 11.8145 9.15003 11.7997 9.01299 11.7429C8.87594 11.6861 8.75881 11.59 8.6764 11.4667C8.59399 11.3433 8.55 11.1983 8.55 11.05C8.55024 10.8512 8.62933 10.6605 8.76993 10.5199C8.91053 10.3793 9.10116 10.3002 9.3 10.3ZM14.7 13.6393C15.2305 13.6378 15.7443 13.8245 16.15 14.1662V15.5H13.25V14.1662C13.6557 13.8245 14.1695 13.6378 14.7 13.6393ZM9.3 13.6393C9.83046 13.6378 10.3443 13.8245 10.75 14.1662V15.5H7.85V14.1662C8.25573 13.8245 8.76954 13.6378 9.3 13.6393ZM7.9584 3H2V21H22V5H9.9584L7.9584 3ZM2.5 20.5V3.5H7.7513L9.6048 5.3535L9.7512 5.5H21.5V20.5H2.5ZM14.7 9.8C14.4528 9.8 14.2111 9.87331 14.0055 10.0107C13.8 10.148 13.6398 10.3432 13.5452 10.5716C13.4505 10.8001 13.4258 11.0514 13.474 11.2939C13.5222 11.5363 13.6413 11.7591 13.8161 11.9339C13.9909 12.1087 14.2137 12.2278 14.4561 12.276C14.6986 12.3242 14.9499 12.2995 15.1784 12.2048C15.4068 12.1102 15.602 11.95 15.7393 11.7445C15.8767 11.5389 15.95 11.2972 15.95 11.05C15.95 10.7185 15.8183 10.4005 15.5839 10.1661C15.3495 9.9317 15.0315 9.8 14.7 9.8ZM9.3 9.8C9.05277 9.8 8.8111 9.87331 8.60554 10.0107C8.39998 10.148 8.23976 10.3432 8.14515 10.5716C8.05054 10.8001 8.02579 11.0514 8.07402 11.2939C8.12225 11.5363 8.2413 11.7591 8.41612 11.9339C8.59093 12.1087 8.81366 12.2278 9.05614 12.276C9.29861 12.3242 9.54995 12.2995 9.77835 12.2048C10.0068 12.1102 10.202 11.95 10.3393 11.7445C10.4767 11.5389 10.55 11.2972 10.55 11.05C10.55 10.7185 10.4183 10.4005 10.1839 10.1661C9.94946 9.9317 9.63152 9.8 9.3 9.8ZM14.7 13.1393C14.3378 13.1388 13.979 13.2099 13.6444 13.3486C13.3098 13.4872 13.0058 13.6905 12.75 13.947V16H16.65V13.947C16.3942 13.6905 16.0903 13.4872 15.7556 13.3485C15.421 13.2099 15.0622 13.1388 14.7 13.1393ZM9.3 13.1393C8.93778 13.1388 8.57904 13.2099 8.24439 13.3485C7.90974 13.4872 7.60579 13.6905 7.35 13.947V16H11.25V13.947C10.9942 13.6905 10.6902 13.4872 10.3556 13.3486C10.021 13.2099 9.66222 13.1388 9.3 13.1393Z" fill="black"/>
</svg>
