<svg width="24" height="24" viewBox="0 0 24 24" fill="none" xmlns="http://www.w3.org/2000/svg">
<path d="M12 0.924316L3 4.48732V12.06C3.00293 13.9903 3.51243 15.8861 4.47759 17.5578C5.44275 19.2295 6.82976 20.6186 8.5 21.5863L12 23.6064L15.5 21.5859C17.1702 20.6183 18.5572 19.2292 19.5223 17.5576C20.4875 15.8859 20.997 13.9903 21 12.06V4.48732L12 0.924316ZM15.0034 13.5716L13.8716 14.7034L12 12.8318L10.1284 14.7034L8.9966 13.5716L10.8682 11.7L8.9966 9.82842L10.1284 8.69662L12 10.5682L13.8716 8.69662L15.0034 9.82842L13.1318 11.7L15.0034 13.5716Z" fill="black"/>
</svg>
