<svg width="24" height="24" viewBox="0 0 24 24" fill="none" xmlns="http://www.w3.org/2000/svg">
<path d="M12 1C10.1435 1 8.36301 1.7375 7.05025 3.05025C5.7375 4.36301 5 6.14348 5 8V18H5.5V8C5.5 6.27609 6.18482 4.62279 7.40381 3.40381C8.62279 2.18482 10.2761 1.5 12 1.5C13.7239 1.5 15.3772 2.18482 16.5962 3.40381C17.8152 4.62279 18.5 6.27609 18.5 8V18C18.5 19.1935 18.0259 20.3381 17.182 21.182C16.3381 22.0259 15.1935 22.5 14 22.5C12.8065 22.5 11.6619 22.0259 10.818 21.182C9.97411 20.3381 9.5 19.1935 9.5 18V9C9.5 8.33696 9.76339 7.70107 10.2322 7.23223C10.7011 6.76339 11.337 6.5 12 6.5C12.663 6.5 13.2989 6.76339 13.7678 7.23223C14.2366 7.70107 14.5 8.33696 14.5 9V18H15V9C15 8.20435 14.6839 7.44129 14.1213 6.87868C13.5587 6.31607 12.7956 6 12 6C11.2044 6 10.4413 6.31607 9.87868 6.87868C9.31607 7.44129 9 8.20435 9 9V18C9 19.3261 9.52678 20.5979 10.4645 21.5355C11.4021 22.4732 12.6739 23 14 23C15.3261 23 16.5979 22.4732 17.5355 21.5355C18.4732 20.5979 19 19.3261 19 18V8C19 6.14348 18.2625 4.36301 16.9497 3.05025C15.637 1.7375 13.8565 1 12 1Z" fill="black"/>
</svg>
