<svg width="24" height="24" viewBox="0 0 24 24" fill="none" xmlns="http://www.w3.org/2000/svg">
<g clip-path="url(#clip0)">
<path d="M14.5 3V2.5C14.5 1.83696 14.2366 1.20107 13.7678 0.732233C13.2989 0.263392 12.663 0 12 0C11.337 0 10.7011 0.263392 10.2322 0.732233C9.76339 1.20107 9.5 1.83696 9.5 2.5V3H4V22H20V3H14.5ZM11 2.5C11 2.23478 11.1054 1.98043 11.2929 1.79289C11.4804 1.60536 11.7348 1.5 12 1.5C12.2652 1.5 12.5196 1.60536 12.7071 1.79289C12.8946 1.98043 13 2.23478 13 2.5V3H11V2.5ZM15.3962 4.5L15.218 5.165C15.1608 5.37751 15.0352 5.56527 14.8606 5.69925C14.686 5.83323 14.4722 5.90596 14.2521 5.9062H9.7479C9.52782 5.90595 9.31395 5.83321 9.13934 5.69924C8.96474 5.56527 8.83912 5.37751 8.7819 5.165L8.6038 4.5H15.3962ZM18.5 20.5H5.5V4.5H7.0508L7.3331 5.5533C7.47555 6.08487 7.78941 6.55459 8.22602 6.8896C8.66262 7.22461 9.19757 7.4062 9.7479 7.4062H14.2521C14.8024 7.4062 15.3374 7.22461 15.774 6.8896C16.2106 6.55459 16.5245 6.08487 16.6669 5.5533L16.9492 4.5H18.5V20.5ZM10.4584 10.5L7.9584 13L10.4584 15.5V13.75H16V12.25H10.4584V10.5Z" fill="black"/>
</g>
<defs>
<clipPath id="clip0">
<rect width="24" height="24" fill="white"/>
</clipPath>
</defs>
</svg>
