<svg width="24" height="24" viewBox="0 0 24 24" fill="none" xmlns="http://www.w3.org/2000/svg">
<path d="M12 0.924316L3 4.48732V12.06C3.00293 13.9903 3.51243 15.8861 4.47759 17.5578C5.44275 19.2295 6.82976 20.6186 8.5 21.5863L12 23.6064L15.5 21.5859C17.1702 20.6183 18.5572 19.2292 19.5223 17.5576C20.4875 15.8859 20.997 13.9903 21 12.06V4.48732L12 0.924316ZM20.5 12.06C20.4972 13.9026 20.0109 15.7122 19.0896 17.3079C18.1683 18.9036 16.8443 20.2296 15.25 21.1533L12 23.0291L8.75 21.1529C7.15574 20.2292 5.83181 18.9033 4.91052 17.3077C3.98924 15.712 3.50286 13.9025 3.5 12.06V4.82712L12 1.46202L20.5 4.82712V12.06ZM9.7393 9.08582L9.3857 9.43932L11.6465 11.7L9.3857 13.9608L9.7393 14.3143L12 12.0535L14.2607 14.3143L14.6143 13.9608L12.3535 11.7L14.6143 9.43932L14.2607 9.08582L12 11.3465L9.7393 9.08582Z" fill="black"/>
</svg>
