<svg width="24" height="24" viewBox="0 0 24 24" fill="none" xmlns="http://www.w3.org/2000/svg">
<path d="M3 3V21H21V3H3ZM19 19H5V15H8.5368C8.88767 15.6081 9.39245 16.113 10.0004 16.4641C10.6083 16.8152 11.298 17 12 17C12.702 17 13.3917 16.8152 13.9996 16.4641C14.6076 16.113 15.1123 15.6081 15.4632 15H19V19ZM14 13C14 13.5304 13.7893 14.0391 13.4142 14.4142C13.0391 14.7893 12.5304 15 12 15C11.4696 15 10.9609 14.7893 10.5858 14.4142C10.2107 14.0391 10 13.5304 10 13H5V5H19V13H14Z" fill="black"/>
</svg>
