<svg width="24" height="24" viewBox="0 0 24 24" fill="none" xmlns="http://www.w3.org/2000/svg">
<path d="M3 3V21H21V3H3ZM20 20H4V4H20V20ZM11 7H7V11H11V7ZM10 10H8V8H10V10ZM9 17.1C9.44501 17.1 9.88002 16.968 10.25 16.7208C10.62 16.4736 10.9084 16.1222 11.0787 15.711C11.249 15.2999 11.2936 14.8475 11.2068 14.411C11.12 13.9746 10.9057 13.5737 10.591 13.259C10.2763 12.9443 9.87541 12.7301 9.43895 12.6432C9.0025 12.5564 8.5501 12.601 8.13896 12.7713C7.72783 12.9416 7.37643 13.23 7.12919 13.6C6.88196 13.97 6.75 14.405 6.75 14.85C6.75 15.4467 6.98705 16.019 7.40901 16.441C7.83097 16.8629 8.40326 17.1 9 17.1ZM9 13.6C9.24723 13.6 9.4889 13.6733 9.69446 13.8107C9.90002 13.948 10.0602 14.1432 10.1548 14.3716C10.2495 14.6001 10.2742 14.8514 10.226 15.0939C10.1778 15.3363 10.0587 15.5591 9.88388 15.7339C9.70907 15.9087 9.48634 16.0278 9.24386 16.076C9.00139 16.1242 8.75005 16.0995 8.52165 16.0048C8.29324 15.9102 8.09801 15.75 7.96066 15.5445C7.82331 15.3389 7.75 15.0972 7.75 14.85C7.7504 14.5186 7.88222 14.2009 8.11656 13.9666C8.35089 13.7322 8.6686 13.6004 9 13.6ZM15 6.6176L12.47 11H17.53L15 6.6176ZM15 8.3176L16.058 10.15H13.942L15 8.3176Z" fill="black"/>
</svg>
