<svg width="24" height="24" viewBox="0 0 24 24" fill="none" xmlns="http://www.w3.org/2000/svg">
<g clip-path="url(#clip0)">
<path d="M21.7937 11.8647C22.1609 10.8559 22.2148 9.75984 21.9486 8.71989C21.6823 7.67994 21.1082 6.74463 20.3015 6.03641C19.4948 5.32819 18.493 4.88008 17.4273 4.75073C16.3616 4.62139 15.2818 4.81684 14.329 5.31151C13.2721 4.3207 11.9298 3.68824 10.4928 3.50404C9.05583 3.31985 7.59737 3.59329 6.32472 4.28549C5.05206 4.9777 4.02998 6.05345 3.40375 7.35983C2.77751 8.66621 2.579 10.1367 2.83643 11.5624C1.87865 11.9189 1.07673 12.6008 0.570965 13.4889C0.0652031 14.3769 -0.112187 15.4145 0.0698314 16.4202C0.25185 17.4258 0.781686 18.3354 1.56663 18.9898C2.35158 19.6443 3.34166 20.0019 4.36363 20H19.6364C20.5983 20.0031 21.5341 19.6873 22.2974 19.102C23.0607 18.5166 23.6085 17.6948 23.8551 16.765C24.1016 15.8353 24.0331 14.85 23.6601 13.9633C23.2871 13.0767 22.6308 12.3387 21.7937 11.8647ZM19.6364 19.4H4.36363C3.48216 19.402 2.62809 19.0938 1.95096 18.5294C1.27383 17.9651 0.816791 17.1805 0.659856 16.3131C0.502921 15.4458 0.656093 14.5508 1.09256 13.785C1.52902 13.0191 2.22096 12.4312 3.04723 12.1242L3.51563 11.9484L3.42683 11.4559C3.18794 10.1532 3.36672 8.80839 3.93763 7.61336C4.50854 6.41833 5.4424 5.43422 6.60589 4.80151C7.76938 4.1688 9.10302 3.91984 10.4164 4.09018C11.7298 4.26052 12.9558 4.84144 13.9194 5.75001L14.2263 6.03691L14.6009 5.84691C15.2639 5.50075 15.9997 5.31743 16.7475 5.31211C18.0127 5.31346 19.2257 5.81659 20.1204 6.71112C21.0151 7.60565 21.5184 8.81854 21.52 10.0837C21.5144 10.6236 21.4157 11.1585 21.2283 11.6648L21.0616 12.1364L21.4955 12.3852C22.2179 12.7934 22.7845 13.4296 23.1066 14.1942C23.4287 14.9588 23.4881 15.8087 23.2756 16.6107C23.063 17.4127 22.5905 18.1216 21.932 18.6263C21.2734 19.1311 20.4661 19.4032 19.6364 19.4ZM12.25 14.0839V9.00001H11.75V14.0839L9.92173 12.2555L9.56783 12.6095L12 15.0416L14.4322 12.61L14.0783 12.256L12.25 14.0839Z" fill="black"/>
</g>
<defs>
<clipPath id="clip0">
<rect width="24" height="24" fill="white"/>
</clipPath>
</defs>
</svg>
