<svg width="24" height="24" viewBox="0 0 24 24" fill="none" xmlns="http://www.w3.org/2000/svg">
<path d="M16.4141 3H3V21H21V7.5859L16.4141 3ZM10.4141 15H9V13.5858L12.3428 10.2429L13.7571 11.6571L10.4141 15ZM15.0758 10.3383L14.4641 10.95L13.05 9.5358L13.6616 8.9241C13.722 8.86373 13.7936 8.81585 13.8725 8.78318C13.9514 8.7505 14.0359 8.73369 14.1213 8.73369C14.2066 8.73369 14.2911 8.7505 14.37 8.78318C14.4489 8.81585 14.5205 8.86373 14.5809 8.9241L15.0759 9.4191C15.1978 9.541 15.2663 9.70632 15.2663 9.8787C15.2663 10.0511 15.1978 10.2164 15.0759 10.3383H15.0758Z" fill="black"/>
</svg>
