<svg width="24" height="24" viewBox="0 0 24 24" fill="none" xmlns="http://www.w3.org/2000/svg">
<path d="M15.4141 2H4V22H20V6.5859L15.4141 2ZM19 21H5V3H15L19 7V21ZM14 11.25C14.0012 10.6339 13.7958 10.0352 13.4168 9.54951C13.0377 9.06383 12.5068 8.71922 11.9088 8.57074C11.3109 8.42226 10.6804 8.47847 10.1182 8.7304C9.55594 8.98233 9.09436 9.41544 8.8072 9.96052C8.52003 10.5056 8.42384 11.1312 8.53401 11.7374C8.64417 12.3435 8.95433 12.8953 9.41492 13.3045C9.87551 13.7137 10.46 13.9567 11.0749 13.9947C11.6898 14.0327 12.2997 13.8635 12.8072 13.5141L14.834 15.541L15.541 14.834L13.5142 12.8072C13.8308 12.3497 14.0003 11.8064 14 11.25ZM11.25 13C10.9039 13 10.5655 12.8974 10.2778 12.7051C9.98997 12.5128 9.76566 12.2395 9.63321 11.9197C9.50076 11.5999 9.4661 11.2481 9.53363 10.9086C9.60115 10.5691 9.76782 10.2573 10.0126 10.0126C10.2573 9.76782 10.5691 9.60115 10.9086 9.53363C11.2481 9.4661 11.5999 9.50076 11.9197 9.63321C12.2395 9.76566 12.5128 9.98997 12.7051 10.2778C12.8974 10.5655 13 10.9039 13 11.25C12.9995 11.714 12.815 12.1588 12.4869 12.4869C12.1588 12.815 11.714 12.9995 11.25 13Z" fill="black"/>
</svg>
