<svg width="24" height="24" viewBox="0 0 24 24" fill="none" xmlns="http://www.w3.org/2000/svg">
<g clip-path="url(#clip0)">
<path d="M21.7937 11.8647C22.1608 10.8559 22.2148 9.75984 21.9485 8.71989C21.6823 7.67994 21.1082 6.74463 20.3015 6.03641C19.4947 5.32819 18.493 4.88008 17.4273 4.75073C16.3616 4.62139 15.2817 4.81684 14.329 5.31151C13.2721 4.3207 11.9297 3.68824 10.4928 3.50404C9.0558 3.31985 7.59734 3.59329 6.32468 4.28549C5.05203 4.9777 4.02995 6.05345 3.40372 7.35983C2.77748 8.66621 2.57897 10.1367 2.8364 11.5624C1.87862 11.9189 1.0767 12.6008 0.570934 13.4889C0.0651726 14.3769 -0.112218 15.4145 0.0698009 16.4202C0.251819 17.4258 0.781655 18.3354 1.5666 18.9898C2.35155 19.6443 3.34163 20.0019 4.3636 20H19.6364C20.5983 20.0031 21.5341 19.6873 22.2974 19.102C23.0607 18.5166 23.6085 17.6948 23.855 16.765C24.1016 15.8353 24.033 14.85 23.6601 13.9633C23.2871 13.0767 22.6307 12.3387 21.7937 11.8647ZM11.3975 14.9565L8.0645 11.623L9.2656 10.4209L11.3975 12.5522L14.9219 9.02931L16.123 10.2314L11.3975 14.9565Z" fill="black"/>
</g>
<defs>
<clipPath id="clip0">
<rect width="24" height="24" fill="white"/>
</clipPath>
</defs>
</svg>
