<svg width="24" height="24" viewBox="0 0 24 24" fill="none" xmlns="http://www.w3.org/2000/svg">
<g clip-path="url(#clip0)">
<path d="M21.7937 11.8647C22.1608 10.856 22.2148 9.75986 21.9485 8.71993C21.6823 7.68 21.1082 6.7447 20.3015 6.03649C19.4948 5.32828 18.493 4.88016 17.4274 4.7508C16.3617 4.62144 15.2818 4.81687 14.3291 5.3115C13.2722 4.32064 11.9299 3.68815 10.4929 3.50393C9.05589 3.31972 7.59739 3.59315 6.32472 4.28536C5.05204 4.97757 4.02994 6.05334 3.40371 7.35974C2.77747 8.66615 2.57897 10.1367 2.83643 11.5624C1.87865 11.9189 1.07673 12.6008 0.570965 13.4889C0.0652031 14.3769 -0.112187 15.4145 0.0698314 16.4202C0.25185 17.4258 0.781686 18.3354 1.56663 18.9898C2.35158 19.6443 3.34166 20.0018 4.36363 20H19.6364C20.5983 20.0031 21.5341 19.6873 22.2974 19.1019C23.0607 18.5166 23.6085 17.6948 23.8551 16.765C24.1016 15.8352 24.0331 14.85 23.6601 13.9633C23.2871 13.0767 22.6308 12.3387 21.7937 11.8647ZM15.9692 11.8478H12.4336L13.8021 10.4794L13.6611 10.3384C13.2135 9.91092 12.6184 9.67242 11.9994 9.67252C11.3805 9.67261 10.7854 9.91128 10.3379 10.3389C10.1023 10.5749 9.91965 10.8583 9.80203 11.1703C9.68441 11.4823 9.63453 11.8158 9.65572 12.1486C9.67691 12.4814 9.76868 12.8058 9.92492 13.1004C10.0812 13.395 10.2983 13.6529 10.5619 13.8571C10.8256 14.0613 11.1296 14.2071 11.4539 14.2847C11.7782 14.3623 12.1153 14.37 12.4428 14.3073C12.7703 14.2447 13.0807 14.113 13.3534 13.9211C13.6261 13.7292 13.8549 13.4814 14.0244 13.1943L15.1436 13.8564C14.9869 14.1202 14.7979 14.3635 14.5811 14.5806C14.2433 14.9242 13.8407 15.1975 13.3967 15.3847C12.9527 15.572 12.476 15.6694 11.9941 15.6715C11.5122 15.6736 11.0347 15.5802 10.5891 15.3967C10.1435 15.2133 9.7386 14.9434 9.39782 14.6027C9.05704 14.262 8.7871 13.8572 8.60358 13.4116C8.42005 12.966 8.32657 12.4885 8.32854 12.0067C8.3305 11.5248 8.42786 11.0481 8.61501 10.604C8.80216 10.1599 9.07538 9.75733 9.41893 9.4194C10.1143 8.75559 11.0387 8.38521 12 8.38521C12.9614 8.38521 13.8858 8.75559 14.5811 9.4194L14.7216 9.5599L15.9692 8.3123V11.8478Z" fill="black"/>
</g>
<defs>
<clipPath id="clip0">
<rect width="24" height="24" fill="white"/>
</clipPath>
</defs>
</svg>
