<svg width="24" height="24" viewBox="0 0 24 24" fill="none" xmlns="http://www.w3.org/2000/svg">
<path d="M22.1377 11.2162C22.2292 10.8165 22.2757 10.4077 22.2764 9.99755C22.2745 8.42682 21.6496 6.92097 20.5389 5.81033C19.4282 4.69969 17.9223 4.07495 16.3516 4.07315C15.6523 4.07431 14.9592 4.20357 14.3066 4.45455C13.1899 3.58586 11.8452 3.05963 10.4355 2.93959C9.0258 2.81955 7.61154 3.11086 6.36402 3.77823C5.11651 4.4456 4.08928 5.46039 3.40676 6.69968C2.72424 7.93897 2.41572 9.34959 2.51858 10.7606C1.56152 11.3065 0.811952 12.1536 0.386728 13.17C-0.0384954 14.1865 -0.115477 15.315 0.167784 16.3797C0.451045 17.4445 1.07863 18.3856 1.9527 19.0563C2.82677 19.727 3.89821 20.0897 4.99998 20.0878H19C20.0333 20.0908 21.0421 19.7726 21.8867 19.1773C22.7313 18.582 23.3701 17.7389 23.7147 16.7647C24.0592 15.7904 24.0925 14.7332 23.81 13.7392C23.5275 12.7453 22.9431 11.8636 22.1377 11.2162ZM19 18.0878H4.99998C4.29739 18.0895 3.61662 17.8439 3.07689 17.3941C2.53716 16.9443 2.17288 16.3189 2.04783 15.6275C1.92279 14.9362 2.04495 14.2228 2.39293 13.6125C2.74092 13.0021 3.29253 12.5336 3.95118 12.289L4.73118 11.996L4.58378 11.176C4.40449 10.178 4.51413 9.14954 4.89979 8.21174C5.28544 7.27394 5.93104 6.46586 6.76057 5.88269C7.5901 5.29952 8.56899 4.96553 9.58198 4.92006C10.595 4.87459 11.5998 5.11954 12.4783 5.62605C12.8292 5.83131 13.1558 6.07552 13.4519 6.35405L13.9627 6.83255L14.5877 6.51515C15.1322 6.23014 15.7368 6.07884 16.3514 6.07375C17.3919 6.07486 18.3895 6.48867 19.1253 7.22438C19.8611 7.9601 20.275 8.95764 20.2762 9.99815C20.2708 10.4417 20.1892 10.881 20.035 11.2969L19.7566 12.083L20.4803 12.4981C20.9413 12.7554 21.3253 13.1311 21.5925 13.5865C21.8597 14.0418 22.0005 14.5602 22.0003 15.0881C21.9993 15.8835 21.6829 16.6461 21.1204 17.2084C20.5579 17.7708 19.7954 18.0871 19 18.0878ZM9.31348 9.31295C8.93661 9.69021 8.64336 10.1426 8.45279 10.6406C8.26223 11.1386 8.17862 11.6712 8.2074 12.2037C8.23618 12.7362 8.37671 13.2566 8.61985 13.7312C8.86299 14.2058 9.20329 14.6239 9.61864 14.9583C10.034 15.2928 10.5151 15.5361 11.0306 15.6724C11.5461 15.8087 12.0846 15.8349 12.6109 15.7494C13.1373 15.664 13.6398 15.4687 14.0857 15.1763C14.5316 14.8838 14.911 14.5008 15.1992 14.0521L13.8516 13.1879C13.7672 13.3202 13.6686 13.4428 13.5576 13.5536L13.5557 13.5551C13.1368 13.9556 12.5795 14.1791 12 14.1791C11.4204 14.1791 10.8632 13.9556 10.4443 13.5551C10.24 13.351 10.078 13.1086 9.96742 12.8417C9.85687 12.5749 9.79997 12.289 9.79997 12.0001C9.79997 11.7113 9.85687 11.4254 9.96742 11.1585C10.078 10.8917 10.24 10.6493 10.4443 10.4451C10.8413 10.0676 11.3624 9.84801 11.9098 9.82748C12.4572 9.80695 12.9933 9.98694 13.4175 10.3336L11.7853 11.9658H16.0868V7.66385L14.5488 9.20185C13.8193 8.56452 12.8781 8.22263 11.9096 8.24318C10.9411 8.26373 10.0153 8.64525 9.31348 9.31295Z" fill="black"/>
</svg>
