<svg width="24" height="24" viewBox="0 0 24 24" fill="none" xmlns="http://www.w3.org/2000/svg">
<g clip-path="url(#clip0)">
<path d="M21 9.99997C20.6586 10.0033 20.3203 10.0655 20 10.1837V3.99997H13.8163C13.9827 3.54658 14.0372 3.05971 13.9751 2.58075C13.913 2.10179 13.7363 1.64489 13.4598 1.2489C13.1833 0.852899 12.8153 0.529509 12.387 0.306211C11.9588 0.0829129 11.483 -0.0336914 11 -0.0336914C10.517 -0.0336914 10.0412 0.0829129 9.61296 0.306211C9.18471 0.529509 8.81671 0.852899 8.54023 1.2489C8.26374 1.64489 8.08695 2.10179 8.02488 2.58075C7.96281 3.05971 8.01729 3.54658 8.1837 3.99997H2V10.1837C2.45339 10.0173 2.94026 9.96278 3.41922 10.0248C3.89818 10.0869 4.35508 10.2637 4.75107 10.5402C5.14707 10.8167 5.47046 11.1847 5.69376 11.6129C5.91706 12.0412 6.03366 12.517 6.03366 13C6.03366 13.4829 5.91706 13.9588 5.69376 14.387C5.47046 14.8153 5.14707 15.1833 4.75107 15.4597C4.35508 15.7362 3.89818 15.913 3.41922 15.9751C2.94026 16.0372 2.45339 15.9827 2 15.8163V22H8.1837C8.01729 21.5466 7.96281 21.0597 8.02488 20.5807C8.08695 20.1018 8.26374 19.6449 8.54023 19.2489C8.81671 18.8529 9.18471 18.5295 9.61296 18.3062C10.0412 18.0829 10.517 17.9663 11 17.9663C11.483 17.9663 11.9588 18.0829 12.387 18.3062C12.8153 18.5295 13.1833 18.8529 13.4598 19.2489C13.7363 19.6449 13.913 20.1018 13.9751 20.5807C14.0372 21.0597 13.9827 21.5466 13.8163 22H20V15.8163C20.4114 15.9628 20.8498 16.0176 21.2846 15.9769C21.7194 15.9361 22.14 15.8008 22.517 15.5804C22.894 15.3599 23.2182 15.0597 23.4669 14.7008C23.7156 14.3418 23.8828 13.9328 23.9568 13.5025C24.0308 13.0721 24.0098 12.6307 23.8952 12.2093C23.7807 11.7879 23.5754 11.3967 23.2937 11.063C23.012 10.7293 22.6607 10.4612 22.2645 10.2776C21.8683 10.094 21.4367 9.99922 21 9.99997Z" fill="black"/>
</g>
<defs>
<clipPath id="clip0">
<rect width="24" height="24" fill="white"/>
</clipPath>
</defs>
</svg>
