<svg width="24" height="24" viewBox="0 0 24 24" fill="none" xmlns="http://www.w3.org/2000/svg">
<path d="M3 7V21H21V7H3ZM20.5 20.5H3.5V7.5H20.5V20.5ZM19 3H5V3.5H19V3ZM8.95 17.5C9.14107 17.513 9.3328 17.4873 9.51369 17.4244C9.69459 17.3615 9.86092 17.2628 10.0027 17.134C10.1445 17.0053 10.2588 16.8493 10.3389 16.6753C10.4189 16.5013 10.4629 16.3129 10.4684 16.1215V11H14.9684V16.0083C14.6032 15.7992 14.1881 15.6934 13.7674 15.702C13.5201 15.6942 13.2798 15.7843 13.0985 15.9526C12.9171 16.1209 12.8095 16.3538 12.7988 16.601C12.7988 17.0791 13.2301 17.5 13.95 17.5C14.1411 17.513 14.3328 17.4873 14.5137 17.4244C14.6946 17.3615 14.8609 17.2628 15.0027 17.134C15.1445 17.0053 15.2588 16.8493 15.3389 16.6753C15.4189 16.5013 15.4629 16.3129 15.4684 16.1215V10.5H9.9684V16.0083C9.60323 15.7992 9.1881 15.6934 8.7674 15.702C8.52014 15.6942 8.27978 15.7843 8.09846 15.9526C7.91714 16.1209 7.80947 16.3538 7.7988 16.601C7.7992 17.0791 8.2305 17.5 8.95 17.5ZM13.95 17C13.5726 17 13.2988 16.8322 13.2988 16.601C13.3099 16.4867 13.365 16.3812 13.4524 16.3068C13.5399 16.2323 13.6528 16.1948 13.7674 16.202C14.1485 16.1844 14.5243 16.2957 14.8344 16.5179L14.8584 16.5379C14.7611 16.6881 14.6258 16.8099 14.4663 16.891C14.3068 16.9722 14.1287 17.0098 13.95 17ZM8.7674 16.202C9.14846 16.1844 9.52434 16.2957 9.8344 16.5179L9.8584 16.5379C9.76107 16.6881 9.62581 16.8099 9.46631 16.891C9.3068 16.9722 9.12869 17.0098 8.95 17C8.5726 17 8.2988 16.8322 8.2988 16.601C8.30993 16.4866 8.36508 16.3811 8.45259 16.3066C8.54011 16.2322 8.65314 16.1947 8.7678 16.202H8.7674Z" fill="black"/>
</svg>
