<svg width="24" height="24" viewBox="0 0 24 24" fill="none" xmlns="http://www.w3.org/2000/svg">
<g clip-path="url(#clip0)">
<path d="M14.5 3V2.5C14.5 1.83696 14.2366 1.20107 13.7678 0.732233C13.2989 0.263392 12.663 0 12 0C11.337 0 10.7011 0.263392 10.2322 0.732233C9.76339 1.20107 9.5 1.83696 9.5 2.5V3H4V22H20V3H14.5ZM11 2.5C11 2.23478 11.1054 1.98043 11.2929 1.79289C11.4804 1.60536 11.7348 1.5 12 1.5C12.2652 1.5 12.5196 1.60536 12.7071 1.79289C12.8946 1.98043 13 2.23478 13 2.5V3H11V2.5ZM15.4471 13.7H12.7V16.4469H11.3V13.7H8.5529V12.3H11.3V9.5529H12.7V12.3H15.4469L15.4471 13.7ZM17.6627 5.388C17.5773 5.70698 17.389 5.98886 17.127 6.18991C16.8651 6.39097 16.5441 6.49997 16.2139 6.5H7.7861C7.45591 6.49998 7.13495 6.39101 6.873 6.18999C6.61106 5.98897 6.42275 5.70714 6.3373 5.3882L6.0992 4.5H17.9008L17.6627 5.388Z" fill="black"/>
</g>
<defs>
<clipPath id="clip0">
<rect width="24" height="24" fill="white"/>
</clipPath>
</defs>
</svg>
