<svg width="24" height="24" viewBox="0 0 24 24" fill="none" xmlns="http://www.w3.org/2000/svg">
<path d="M14 3V2.5C14 1.96957 13.7893 1.46086 13.4142 1.08579C13.0391 0.710714 12.5304 0.5 12 0.5C11.4696 0.5 10.9609 0.710714 10.5858 1.08579C10.2107 1.46086 10 1.96957 10 2.5V3H4V22H20V3H14ZM10.5 2.5C10.5 2.10218 10.658 1.72064 10.9393 1.43934C11.2206 1.15804 11.6022 1 12 1C12.3978 1 12.7794 1.15804 13.0607 1.43934C13.342 1.72064 13.5 2.10218 13.5 2.5V3H10.5V2.5ZM15 16H9V14.5938C9.79566 13.7982 10.8748 13.3512 12 13.3512C13.1252 13.3512 14.2043 13.7982 15 14.5938V16ZM10.5038 10.5038C10.5038 10.2079 10.5916 9.9186 10.756 9.67256C10.9204 9.42651 11.154 9.23474 11.4274 9.12149C11.7008 9.00825 12.0017 8.97862 12.2919 9.03635C12.5821 9.09408 12.8487 9.23658 13.058 9.44583C13.2672 9.65507 13.4097 9.92167 13.4675 10.2119C13.5252 10.5021 13.4956 10.803 13.3823 11.0764C13.2691 11.3498 13.0773 11.5834 12.8312 11.7478C12.5852 11.9122 12.2959 12 12 12C11.8035 12 11.609 11.9613 11.4274 11.8861C11.2459 11.8109 11.081 11.7007 10.942 11.5618C10.8031 11.4228 10.6929 11.2579 10.6177 11.0764C10.5425 10.8948 10.5038 10.7003 10.5038 10.5038ZM17.6627 4.3882C17.5772 4.70714 17.3889 4.98897 17.127 5.18999C16.865 5.39101 16.5441 5.49998 16.2139 5.5H7.7861C7.45591 5.49998 7.13495 5.39101 6.873 5.18999C6.61106 4.98897 6.42275 4.70714 6.3373 4.3882L6.0992 3.5H17.9008L17.6627 4.3882Z" fill="black"/>
</svg>
