<svg width="24" height="24" viewBox="0 0 24 24" fill="none" xmlns="http://www.w3.org/2000/svg">
<path d="M10 12H14C14.1326 12 14.2598 11.9473 14.3536 11.8536C14.4473 11.7598 14.5 11.6326 14.5 11.5C14.5 11.3674 14.4473 11.2402 14.3536 11.1464C14.2598 11.0527 14.1326 11 14 11H10C9.86739 11 9.74021 11.0527 9.64645 11.1464C9.55268 11.2402 9.5 11.3674 9.5 11.5C9.5 11.6326 9.55268 11.7598 9.64645 11.8536C9.74021 11.9473 9.86739 12 10 12ZM3 21H21V7H3V21ZM10 10H14C14.3978 10 14.7794 10.158 15.0607 10.4393C15.342 10.7206 15.5 11.1022 15.5 11.5C15.5 11.8978 15.342 12.2794 15.0607 12.5607C14.7794 12.842 14.3978 13 14 13H10C9.60218 13 9.22064 12.842 8.93934 12.5607C8.65804 12.2794 8.5 11.8978 8.5 11.5C8.5 11.1022 8.65804 10.7206 8.93934 10.4393C9.22064 10.158 9.60218 10 10 10ZM2 3V6H22V3H2Z" fill="black"/>
</svg>
