<svg width="24" height="24" viewBox="0 0 24 24" fill="none" xmlns="http://www.w3.org/2000/svg">
<path d="M3 7V21H21V7H3ZM19 19H5V9H19V19ZM19 3H5V5H19V3ZM10.4706 17.5C10.7627 17.5147 11.0547 17.4701 11.3292 17.3691C11.6037 17.2681 11.8549 17.1126 12.0678 16.9121C12.2807 16.7116 12.4508 16.4701 12.5681 16.2022C12.6853 15.9342 12.7472 15.6454 12.75 15.3529V12.5H15V10.5H11.1459V15.375C10.7897 15.181 10.3876 15.0868 9.9823 15.1025C9.82472 15.0899 9.66627 15.1112 9.51765 15.1651C9.36904 15.219 9.23372 15.3041 9.12085 15.4148C9.00798 15.5255 8.92018 15.6591 8.8634 15.8067C8.80661 15.9542 8.78216 16.1122 8.7917 16.27C8.7917 17.0353 9.3933 17.5 10.4706 17.5Z" fill="black"/>
</svg>
