<svg width="24" height="24" viewBox="0 0 24 24" fill="none" xmlns="http://www.w3.org/2000/svg">
<path d="M3 3V21H21V3H3ZM20.5 20.5H3.5V3.5H20.5V20.5ZM11 7H7V11H11V7ZM10.5 10.5H7.5V7.5H10.5V10.5ZM9 17.1C9.44501 17.1 9.88002 16.968 10.25 16.7208C10.62 16.4736 10.9084 16.1222 11.0787 15.711C11.249 15.2999 11.2936 14.8475 11.2068 14.411C11.12 13.9746 10.9057 13.5737 10.591 13.259C10.2763 12.9443 9.87541 12.7301 9.43895 12.6432C9.0025 12.5564 8.5501 12.601 8.13896 12.7713C7.72783 12.9416 7.37643 13.23 7.12919 13.6C6.88196 13.97 6.75 14.405 6.75 14.85C6.75 15.4467 6.98705 16.019 7.40901 16.441C7.83097 16.8629 8.40326 17.1 9 17.1ZM9 13.1C9.34612 13.1 9.68446 13.2026 9.97225 13.3949C10.26 13.5872 10.4843 13.8605 10.6168 14.1803C10.7492 14.5001 10.7839 14.8519 10.7164 15.1914C10.6489 15.5309 10.4822 15.8427 10.2374 16.0874C9.9927 16.3322 9.68087 16.4988 9.34141 16.5664C9.00194 16.6339 8.65007 16.5992 8.3303 16.4668C8.01053 16.3343 7.73722 16.11 7.54493 15.8222C7.35264 15.5345 7.25 15.1961 7.25 14.85C7.25053 14.386 7.43507 13.9412 7.76315 13.6131C8.09122 13.2851 8.53603 13.1005 9 13.1ZM15 6.6176L12.47 11H17.53L15 6.6176ZM15 7.5276L16.7422 10.5451H13.2578L15 7.5276Z" fill="black"/>
</svg>
