<svg width="24" height="24" viewBox="0 0 24 24" fill="none" xmlns="http://www.w3.org/2000/svg">
<path d="M15.4141 2H4V22H20V6.5859L15.4141 2ZM16 12.6H13V12.6124L14.1641 13.0004C14.5826 13.1393 14.9466 13.4066 15.2044 13.7643C15.4621 14.1219 15.6006 14.5518 15.6 14.9927V15.5H14.4V14.9927C14.4001 14.8039 14.3407 14.6198 14.2303 14.4666C14.1198 14.3134 13.964 14.1988 13.7848 14.1392L12.8388 13.8237C12.7546 13.9721 12.6326 14.0955 12.4852 14.1814C12.3378 14.2673 12.1703 14.3125 11.9997 14.3125C11.829 14.3125 11.6615 14.2673 11.5141 14.1814C11.3667 14.0955 11.2447 13.9721 11.1605 13.8237L10.2144 14.1392C10.0352 14.1988 9.87937 14.3134 9.76894 14.4666C9.65852 14.6198 9.59913 14.8039 9.5992 14.9927V15.5H8.4V14.9927C8.3994 14.5519 8.5378 14.1221 8.79551 13.7644C9.05322 13.4068 9.41714 13.1394 9.8355 13.0005L11 12.6125V12.6H8V11.4H11V11.3876L9.8359 11C9.41738 10.8611 9.05332 10.5937 8.79553 10.236C8.53773 9.87822 8.39932 9.44827 8.4 9.0073V8.5H9.6V9.0073C9.59993 9.19615 9.65932 9.38022 9.76974 9.53342C9.88017 9.68661 10.036 9.80116 10.2152 9.8608L11 10.1226V9.5C11 9.23478 11.1054 8.98043 11.2929 8.79289C11.4804 8.60536 11.7348 8.5 12 8.5C12.2652 8.5 12.5196 8.60536 12.7071 8.79289C12.8946 8.98043 13 9.23478 13 9.5V10.1226L13.7852 9.8608C13.9643 9.80109 14.1201 9.68651 14.2304 9.53332C14.3408 9.38013 14.4001 9.1961 14.4 9.0073V8.5H15.6V9.0073C15.6007 9.44827 15.4623 9.87822 15.2045 10.236C14.9467 10.5937 14.5826 10.8611 14.1641 11L13 11.3875V11.4H16V12.6Z" fill="black"/>
</svg>
