<svg width="24" height="24" viewBox="0 0 24 24" fill="none" xmlns="http://www.w3.org/2000/svg">
<path d="M15.4141 2H4V22H20V6.5859L15.4141 2ZM14.6865 14.687C14.2846 15.0878 13.798 15.3936 13.2626 15.5819C12.7272 15.7703 12.1563 15.8365 11.592 15.7756C11.0277 15.7147 10.4841 15.5284 10.0011 15.2302C9.51816 14.932 9.10803 14.5295 8.8008 14.0522L10.1484 13.188C10.2328 13.3202 10.3314 13.4429 10.4424 13.5537L10.4443 13.5552C10.8632 13.9557 11.4204 14.1792 12 14.1792C12.5796 14.1792 13.1368 13.9557 13.5557 13.5552C13.76 13.351 13.922 13.1086 14.0326 12.8418C14.1431 12.575 14.2 12.289 14.2 12.0002C14.2 11.7114 14.1431 11.4254 14.0326 11.1586C13.922 10.8918 13.76 10.6494 13.5557 10.4452C13.1587 10.0677 12.6376 9.84807 12.0902 9.82754C11.5428 9.80701 11.0067 9.98699 10.5826 10.3337L12.2147 11.9659H7.9132V7.6639L9.4512 9.2019C10.1807 8.56457 11.1219 8.22268 12.0904 8.24323C13.0588 8.26378 13.9847 8.6453 14.6865 9.313C15.0395 9.66581 15.3194 10.0847 15.5105 10.5457C15.7015 11.0068 15.7998 11.5009 15.7998 12C15.7998 12.4991 15.7015 12.9932 15.5105 13.4543C15.3194 13.9153 15.0395 14.3342 14.6865 14.687Z" fill="black"/>
</svg>
