<svg width="24" height="24" viewBox="0 0 24 24" fill="none" xmlns="http://www.w3.org/2000/svg">
<g clip-path="url(#clip0)">
<path d="M21.7937 11.8647C22.1609 10.8559 22.2148 9.75984 21.9486 8.71989C21.6823 7.67994 21.1082 6.74463 20.3015 6.03641C19.4948 5.32819 18.493 4.88008 17.4273 4.75073C16.3616 4.62139 15.2818 4.81684 14.329 5.31151C13.2721 4.3207 11.9298 3.68824 10.4928 3.50404C9.05583 3.31985 7.59737 3.59329 6.32472 4.28549C5.05206 4.9777 4.02998 6.05345 3.40375 7.35983C2.77751 8.66621 2.579 10.1367 2.83643 11.5624C1.87865 11.9189 1.07673 12.6008 0.570965 13.4889C0.0652031 14.3769 -0.112187 15.4145 0.0698314 16.4202C0.25185 17.4258 0.781686 18.3354 1.56663 18.9898C2.35158 19.6443 3.34166 20.0019 4.36363 20H19.6364C20.5983 20.0031 21.5341 19.6873 22.2974 19.102C23.0607 18.5166 23.6085 17.6948 23.8551 16.765C24.1016 15.8353 24.0331 14.85 23.6601 13.9633C23.2871 13.0767 22.6308 12.3387 21.7937 11.8647ZM19.6364 19H4.36363C3.57585 19.002 2.81251 18.7267 2.2073 18.2224C1.60209 17.7181 1.1936 17.0169 1.05339 16.2417C0.913177 15.4665 1.05018 14.6667 1.4404 13.9824C1.83062 13.2981 2.44918 12.7728 3.18773 12.4987L3.96853 12.2056L3.82053 11.3849C3.59649 10.1649 3.76369 8.90538 4.29826 7.78611C4.83282 6.66684 5.70741 5.74512 6.7971 5.15259C7.88679 4.56006 9.13586 4.32703 10.3659 4.48678C11.5959 4.64653 12.744 5.19089 13.6462 6.04211L14.1578 6.52021L14.7821 6.20291C15.389 5.8855 16.0627 5.71709 16.7475 5.71161C17.9067 5.7128 19.0182 6.1738 19.8379 6.99346C20.6576 7.81312 21.1187 8.92449 21.12 10.0837C21.1142 10.5782 21.0233 11.068 20.8512 11.5316L20.5735 12.3175L21.2966 12.7322C21.8135 13.0207 22.2439 13.442 22.5434 13.9526C22.8428 14.4632 23.0005 15.0445 23 15.6364C22.999 16.5282 22.6443 17.3831 22.0137 18.0137C21.3832 18.6443 20.5282 18.999 19.6364 19ZM14.084 9.20901L12 11.293L9.91603 9.20901L9.20903 9.91601L11.293 12L9.20903 14.084L9.91603 14.791L12 12.707L14.084 14.791L14.791 14.084L12.707 12L14.791 9.91601L14.084 9.20901Z" fill="black"/>
</g>
<defs>
<clipPath id="clip0">
<rect width="24" height="24" fill="white"/>
</clipPath>
</defs>
</svg>
