<svg width="24" height="24" viewBox="0 0 24 24" fill="none" xmlns="http://www.w3.org/2000/svg">
<g clip-path="url(#clip0)">
<path d="M21.7937 11.8647C22.1608 10.8559 22.2148 9.75984 21.9485 8.71989C21.6823 7.67994 21.1082 6.74463 20.3015 6.03641C19.4947 5.32819 18.493 4.88008 17.4273 4.75073C16.3616 4.62139 15.2817 4.81684 14.329 5.31151C13.2721 4.3207 11.9297 3.68824 10.4928 3.50404C9.0558 3.31985 7.59734 3.59329 6.32468 4.28549C5.05203 4.9777 4.02995 6.05345 3.40372 7.35983C2.77748 8.66621 2.57897 10.1367 2.8364 11.5624C1.87862 11.9189 1.0767 12.6008 0.570934 13.4889C0.0651726 14.3769 -0.112218 15.4145 0.0698009 16.4202C0.251819 17.4258 0.781655 18.3354 1.5666 18.9898C2.35155 19.6443 3.34163 20.0019 4.3636 20H19.6364C20.5983 20.0031 21.5341 19.6873 22.2974 19.102C23.0607 18.5166 23.6085 17.6948 23.855 16.765C24.1016 15.8353 24.033 14.85 23.6601 13.9633C23.2871 13.0767 22.6307 12.3387 21.7937 11.8647ZM19.6364 19.4H4.3636C3.48213 19.402 2.62806 19.0938 1.95093 18.5294C1.2738 17.9651 0.816761 17.1805 0.659825 16.3131C0.50289 15.4458 0.656063 14.5508 1.09253 13.785C1.52899 13.0191 2.22093 12.4312 3.0472 12.1242L3.5156 11.9484L3.4268 11.4559C3.18791 10.1532 3.36669 8.80839 3.9376 7.61336C4.50851 6.41833 5.44237 5.43422 6.60586 4.80151C7.76935 4.1688 9.10299 3.91984 10.4164 4.09018C11.7298 4.26052 12.9558 4.84144 13.9194 5.75001L14.2263 6.03691L14.6009 5.84691C15.2638 5.50075 15.9997 5.31743 16.7475 5.31211C18.0127 5.31346 19.2257 5.81659 20.1204 6.71112C21.0151 7.60565 21.5184 8.81854 21.52 10.0837C21.5143 10.6236 21.4157 11.1585 21.2283 11.6648L21.0616 12.1364L21.4955 12.3852C22.2178 12.7934 22.7844 13.4296 23.1065 14.1942C23.4286 14.9588 23.4881 15.8087 23.2755 16.6107C23.063 17.4127 22.5904 18.1216 21.9319 18.6263C21.2734 19.1311 20.4661 19.4032 19.6364 19.4ZM9.5678 11.3905L9.9217 11.7445L11.75 9.91611V15H12.25V9.91611L14.0783 11.7445L14.4322 11.3905L12 8.95841L9.5678 11.3905Z" fill="black"/>
</g>
<defs>
<clipPath id="clip0">
<rect width="24" height="24" fill="white"/>
</clipPath>
</defs>
</svg>
