<svg width="24" height="24" viewBox="0 0 24 24" fill="none" xmlns="http://www.w3.org/2000/svg">
<g clip-path="url(#clip0)">
<path d="M12 12C12.2426 12 12.4797 11.9281 12.6815 11.7933C12.8832 11.6585 13.0404 11.4669 13.1332 11.2428C13.2261 11.0187 13.2504 10.772 13.203 10.5341C13.1557 10.2962 13.0389 10.0776 12.8673 9.90606C12.6958 9.73452 12.4772 9.6177 12.2393 9.57037C12.0014 9.52304 11.7547 9.54733 11.5306 9.64017C11.3065 9.73301 11.1149 9.89022 10.9801 10.0919C10.8453 10.2937 10.7734 10.5308 10.7734 10.7734C10.7734 11.0987 10.9026 11.4107 11.1327 11.6407C11.3627 11.8708 11.6747 12 12 12ZM9 14.7109V16H15V14.7109C14.606 14.3169 14.1383 14.0044 13.6236 13.7912C13.1089 13.578 12.5572 13.4682 12 13.4682C11.4428 13.4682 10.8911 13.578 10.3764 13.7912C9.86167 14.0044 9.39396 14.3169 9 14.7109ZM14.5 3V2.5C14.5 1.83696 14.2366 1.20107 13.7678 0.732233C13.2989 0.263392 12.663 0 12 0C11.337 0 10.7011 0.263392 10.2322 0.732233C9.76339 1.20107 9.5 1.83696 9.5 2.5V3H4V22H20V3H14.5ZM11 2.5C11 2.23478 11.1054 1.98043 11.2929 1.79289C11.4804 1.60536 11.7348 1.5 12 1.5C12.2652 1.5 12.5196 1.60536 12.7071 1.79289C12.8946 1.98043 13 2.23478 13 2.5V3H11V2.5ZM15.3963 4.5L15.2181 5.165C15.1609 5.37752 15.0353 5.56528 14.8607 5.69926C14.6861 5.83323 14.4722 5.90596 14.2521 5.9062H9.7479C9.52782 5.90595 9.31395 5.83321 9.13934 5.69924C8.96474 5.56527 8.83912 5.37751 8.7819 5.165L8.6038 4.5H15.3963ZM18.5 20.5H5.5V4.5H7.0508L7.3331 5.5533C7.47555 6.08487 7.78941 6.55459 8.22602 6.8896C8.66262 7.22461 9.19757 7.4062 9.7479 7.4062H14.2521C14.8024 7.40622 15.3374 7.22464 15.774 6.88963C16.2107 6.55462 16.5245 6.08489 16.667 5.5533L16.9492 4.5H18.5V20.5Z" fill="black"/>
</g>
<defs>
<clipPath id="clip0">
<rect width="24" height="24" fill="white"/>
</clipPath>
</defs>
</svg>
