<svg width="24" height="24" viewBox="0 0 24 24" fill="none" xmlns="http://www.w3.org/2000/svg">
<path d="M2 3V7.5H3V21H21V7.5H22V3H2ZM20.5 20.5H3.5V7.5H20.5V20.5ZM21.5 7H2.5V3.5H21.5V7ZM9.7 12H14.3C14.5652 12 14.8196 11.8946 15.0071 11.7071C15.1946 11.5196 15.3 11.2652 15.3 11C15.3 10.7348 15.1946 10.4804 15.0071 10.2929C14.8196 10.1054 14.5652 10 14.3 10H9.7C9.43478 10 9.18043 10.1054 8.99289 10.2929C8.80536 10.4804 8.7 10.7348 8.7 11C8.7 11.2652 8.80536 11.5196 8.99289 11.7071C9.18043 11.8946 9.43478 12 9.7 12ZM9.7 10.5H14.3C14.4326 10.5 14.5598 10.5527 14.6536 10.6464C14.7473 10.7402 14.8 10.8674 14.8 11C14.8 11.1326 14.7473 11.2598 14.6536 11.3536C14.5598 11.4473 14.4326 11.5 14.3 11.5H9.7C9.56739 11.5 9.44022 11.4473 9.34645 11.3536C9.25268 11.2598 9.2 11.1326 9.2 11C9.2 10.8674 9.25268 10.7402 9.34645 10.6464C9.44022 10.5527 9.56739 10.5 9.7 10.5Z" fill="black"/>
</svg>
