<svg width="24" height="24" viewBox="0 0 24 24" fill="none" xmlns="http://www.w3.org/2000/svg">
<path d="M2 3V8.5H3V21H21V8.5H22V3H2ZM19.5 19.5H4.5V8.5H19.5V19.5ZM20.5 7H3.5V4.5H20.5V7ZM9.75 12.75H14.25C14.4489 12.75 14.6397 12.671 14.7803 12.5303C14.921 12.3897 15 12.1989 15 12C15 11.8011 14.921 11.6103 14.7803 11.4697C14.6397 11.329 14.4489 11.25 14.25 11.25H9.75C9.55109 11.25 9.36032 11.329 9.21967 11.4697C9.07902 11.6103 9 11.8011 9 12C9 12.1989 9.07902 12.3897 9.21967 12.5303C9.36032 12.671 9.55109 12.75 9.75 12.75Z" fill="black"/>
</svg>
