<svg width="24" height="24" viewBox="0 0 24 24" fill="none" xmlns="http://www.w3.org/2000/svg">
<path d="M14.7 10.6C14.789 10.6 14.876 10.6264 14.95 10.6758C15.024 10.7253 15.0817 10.7956 15.1157 10.8778C15.1498 10.96 15.1587 11.0505 15.1414 11.1378C15.124 11.2251 15.0811 11.3053 15.0182 11.3682C14.9553 11.4311 14.8751 11.474 14.7878 11.4914C14.7005 11.5087 14.61 11.4998 14.5278 11.4657C14.4456 11.4317 14.3753 11.374 14.3258 11.3C14.2764 11.226 14.25 11.139 14.25 11.05C14.25 10.9307 14.2974 10.8162 14.3818 10.7318C14.4662 10.6474 14.5807 10.6 14.7 10.6ZM9.3 10.6C9.389 10.6 9.476 10.6264 9.55001 10.6758C9.62401 10.7253 9.68169 10.7956 9.71575 10.8778C9.74981 10.96 9.75872 11.0505 9.74135 11.1378C9.72399 11.2251 9.68113 11.3053 9.6182 11.3682C9.55526 11.4311 9.47508 11.474 9.38779 11.4914C9.3005 11.5087 9.21002 11.4998 9.12779 11.4657C9.04557 11.4317 8.97529 11.374 8.92584 11.3C8.87639 11.226 8.85 11.139 8.85 11.05C8.85013 10.9307 8.89759 10.8163 8.98195 10.7319C9.06631 10.6476 9.18069 10.6001 9.3 10.6ZM14.7 13.9393C15.1132 13.9381 15.5161 14.0687 15.85 14.3121V15.2H13.55V14.3121C13.884 14.0687 14.2868 13.9381 14.7 13.9393ZM9.3 13.9393C9.71322 13.9381 10.116 14.0687 10.45 14.3121V15.2H8.15V14.3121C8.48393 14.0687 8.88678 13.9381 9.3 13.9393ZM7.9584 3H2V21H22V5H9.9584L7.9584 3ZM3 20V4H7.5441L9.5441 6H21V20H3ZM14.7 9.8C14.4528 9.8 14.2111 9.87331 14.0055 10.0107C13.8 10.148 13.6398 10.3432 13.5452 10.5716C13.4505 10.8001 13.4258 11.0514 13.474 11.2939C13.5222 11.5363 13.6413 11.7591 13.8161 11.9339C13.9909 12.1087 14.2137 12.2278 14.4561 12.276C14.6986 12.3242 14.9499 12.2995 15.1784 12.2048C15.4068 12.1102 15.602 11.95 15.7393 11.7445C15.8767 11.5389 15.95 11.2972 15.95 11.05C15.95 10.7185 15.8183 10.4005 15.5839 10.1661C15.3495 9.9317 15.0315 9.8 14.7 9.8ZM9.3 9.8C9.05277 9.8 8.8111 9.87331 8.60554 10.0107C8.39998 10.148 8.23976 10.3432 8.14515 10.5716C8.05054 10.8001 8.02579 11.0514 8.07402 11.2939C8.12225 11.5363 8.2413 11.7591 8.41612 11.9339C8.59093 12.1087 8.81366 12.2278 9.05614 12.276C9.29861 12.3242 9.54995 12.2995 9.77835 12.2048C10.0068 12.1102 10.202 11.95 10.3393 11.7445C10.4767 11.5389 10.55 11.2972 10.55 11.05C10.55 10.7185 10.4183 10.4005 10.1839 10.1661C9.94946 9.9317 9.63152 9.8 9.3 9.8ZM14.7 13.1393C14.3378 13.1388 13.979 13.2099 13.6444 13.3486C13.3098 13.4872 13.0058 13.6905 12.75 13.947V16H16.65V13.947C16.3942 13.6905 16.0903 13.4872 15.7556 13.3485C15.421 13.2099 15.0622 13.1388 14.7 13.1393ZM9.3 13.1393C8.93778 13.1388 8.57904 13.2099 8.24439 13.3485C7.90974 13.4872 7.60579 13.6905 7.35 13.947V16H11.25V13.947C10.9942 13.6905 10.6902 13.4872 10.3556 13.3486C10.021 13.2099 9.66222 13.1388 9.3 13.1393Z" fill="black"/>
</svg>
