<svg width="24" height="24" viewBox="0 0 24 24" fill="none" xmlns="http://www.w3.org/2000/svg">
<path d="M3 7V21H21V7H3ZM19.5 19.5H4.5V8.5H19.5V19.5ZM19 3H5V4.5H19V3ZM10.7383 17.5C10.9778 17.512 11.2173 17.4755 11.4423 17.3927C11.6674 17.3098 11.8734 17.1824 12.048 17.0179C12.2225 16.8535 12.3621 16.6555 12.4582 16.4358C12.5543 16.2161 12.6051 15.9792 12.6074 15.7394V12.14H14.4524V10.5H11.2924V15.7575C11.0003 15.5984 10.6707 15.5211 10.3383 15.534C10.2091 15.5236 10.0792 15.5411 9.95735 15.5853C9.8355 15.6295 9.72455 15.6993 9.632 15.79C9.53945 15.8808 9.46745 15.9903 9.42087 16.1112C9.37429 16.2322 9.35422 16.3617 9.362 16.4911C9.3616 17.1189 9.8547 17.5 10.7383 17.5Z" fill="black"/>
</svg>
