<svg width="24" height="24" viewBox="0 0 24 24" fill="none" xmlns="http://www.w3.org/2000/svg">
<path d="M14 3V2.5C14 1.96957 13.7893 1.46086 13.4142 1.08579C13.0391 0.710714 12.5304 0.5 12 0.5C11.4696 0.5 10.9609 0.710714 10.5858 1.08579C10.2107 1.46086 10 1.96957 10 2.5V3H4V22H20V3H14ZM11 2.5C11 2.23478 11.1054 1.98043 11.2929 1.79289C11.4804 1.60536 11.7348 1.5 12 1.5C12.2652 1.5 12.5196 1.60536 12.7071 1.79289C12.8946 1.98043 13 2.23478 13 2.5V3H11V2.5ZM12 16.625C11.8764 16.625 11.7555 16.5883 11.6528 16.5197C11.55 16.451 11.4699 16.3534 11.4226 16.2392C11.3753 16.125 11.3629 15.9993 11.387 15.8781C11.4111 15.7568 11.4707 15.6455 11.5581 15.5581C11.6455 15.4706 11.7568 15.4111 11.8781 15.387C11.9993 15.3629 12.125 15.3753 12.2392 15.4226C12.3534 15.4699 12.451 15.55 12.5197 15.6528C12.5883 15.7555 12.625 15.8764 12.625 16C12.625 16.1658 12.5592 16.3247 12.4419 16.4419C12.3247 16.5592 12.1658 16.625 12 16.625ZM12.3886 14H11.6114L11.375 9H12.625L12.3886 14ZM17.6627 4.8882C17.5772 5.20714 17.3889 5.48897 17.127 5.68999C16.865 5.89101 16.5441 5.99998 16.2139 6H7.7861C7.45591 5.99998 7.13495 5.89101 6.873 5.68999C6.61106 5.48897 6.42275 5.20714 6.3373 4.8882L6.0992 4H17.9008L17.6627 4.8882Z" fill="black"/>
</svg>
