<svg width="24" height="24" viewBox="0 0 24 24" fill="none" xmlns="http://www.w3.org/2000/svg">
<g clip-path="url(#clip0)">
<path d="M21.7937 11.8647C22.1609 10.8559 22.2148 9.75984 21.9486 8.71989C21.6823 7.67994 21.1082 6.74463 20.3015 6.03641C19.4948 5.32819 18.493 4.88008 17.4273 4.75073C16.3616 4.62139 15.2818 4.81684 14.329 5.31151C13.2721 4.3207 11.9298 3.68824 10.4928 3.50404C9.05583 3.31985 7.59737 3.59329 6.32472 4.28549C5.05206 4.9777 4.02998 6.05345 3.40375 7.35983C2.77751 8.66621 2.579 10.1367 2.83643 11.5624C1.87865 11.9189 1.07673 12.6008 0.570965 13.4889C0.0652031 14.3769 -0.112187 15.4145 0.0698314 16.4202C0.25185 17.4258 0.781686 18.3354 1.56663 18.9898C2.35158 19.6443 3.34166 20.0019 4.36363 20H19.6364C20.5983 20.0031 21.5341 19.6873 22.2974 19.102C23.0607 18.5166 23.6085 17.6948 23.8551 16.765C24.1016 15.8353 24.0331 14.85 23.6601 13.9633C23.2871 13.0767 22.6308 12.3387 21.7937 11.8647ZM12 15.0416L8.95843 12H11V9.00001H13V12H15.0416L12 15.0416Z" fill="black"/>
</g>
<defs>
<clipPath id="clip0">
<rect width="24" height="24" fill="white"/>
</clipPath>
</defs>
</svg>
