<svg width="24" height="24" viewBox="0 0 24 24" fill="none" xmlns="http://www.w3.org/2000/svg">
<path d="M10.9584 5L8.9584 3H2V21H22V5H10.9584ZM20.5 19.5H3.5V4.5H8.337L10.337 6.5H20.5V19.5ZM12 12C12.2426 12 12.4797 11.9281 12.6815 11.7933C12.8832 11.6585 13.0404 11.4669 13.1332 11.2428C13.2261 11.0187 13.2504 10.772 13.203 10.5341C13.1557 10.2962 13.0389 10.0776 12.8673 9.90606C12.6958 9.73452 12.4772 9.6177 12.2393 9.57037C12.0014 9.52304 11.7547 9.54733 11.5306 9.64017C11.3065 9.73301 11.1149 9.89022 10.9801 10.0919C10.8453 10.2937 10.7734 10.5308 10.7734 10.7734C10.7734 11.0987 10.9026 11.4107 11.1327 11.6407C11.3627 11.8708 11.6747 12 12 12ZM9 14.7109V16H15V14.7109C14.606 14.3169 14.1383 14.0044 13.6236 13.7912C13.1089 13.578 12.5572 13.4682 12 13.4682C11.4428 13.4682 10.8911 13.578 10.3764 13.7912C9.86167 14.0044 9.39396 14.3169 9 14.7109Z" fill="black"/>
</svg>
