<svg width="24" height="24" viewBox="0 0 24 24" fill="none" xmlns="http://www.w3.org/2000/svg">
<path d="M9.5 11.5H14.5C14.6326 11.5 14.7598 11.4473 14.8536 11.3536C14.9473 11.2598 15 11.1326 15 11C15 10.8674 14.9473 10.7402 14.8536 10.6464C14.7598 10.5527 14.6326 10.5 14.5 10.5H9.5C9.36739 10.5 9.24021 10.5527 9.14645 10.6464C9.05268 10.7402 9 10.8674 9 11C9 11.1326 9.05268 11.2598 9.14645 11.3536C9.24021 11.4473 9.36739 11.5 9.5 11.5ZM3 21H21V7.5H3V21ZM9.5 10H14.5C14.7652 10 15.0196 10.1054 15.2071 10.2929C15.3946 10.4804 15.5 10.7348 15.5 11C15.5 11.2652 15.3946 11.5196 15.2071 11.7071C15.0196 11.8946 14.7652 12 14.5 12H9.5C9.23478 12 8.98043 11.8946 8.79289 11.7071C8.60536 11.5196 8.5 11.2652 8.5 11C8.5 10.7348 8.60536 10.4804 8.79289 10.2929C8.98043 10.1054 9.23478 10 9.5 10ZM2 3V7H22V3H2Z" fill="black"/>
</svg>
