<svg width="24" height="24" viewBox="0 0 24 24" fill="none" xmlns="http://www.w3.org/2000/svg">
<path d="M3 3V21H21V3H3ZM20.5 20.5H3.5V14.5H9.0417C9.15954 15.1994 9.52135 15.8344 10.0629 16.2923C10.6045 16.7503 11.2908 17.0015 12 17.0015C12.7092 17.0015 13.3955 16.7503 13.9371 16.2923C14.4787 15.8344 14.8405 15.1994 14.9583 14.5H20.5V20.5ZM14.5 14C14.5 14.663 14.2366 15.2989 13.7678 15.7678C13.2989 16.2366 12.663 16.5 12 16.5C11.337 16.5 10.7011 16.2366 10.2322 15.7678C9.76339 15.2989 9.5 14.663 9.5 14H3.5V3.5H20.5V14H14.5Z" fill="black"/>
</svg>
