<svg width="24" height="24" viewBox="0 0 24 24" fill="none" xmlns="http://www.w3.org/2000/svg">
<path d="M3 3V21H21V3H3ZM8 6C8.39556 6 8.78224 6.1173 9.11114 6.33706C9.44004 6.55682 9.69638 6.86918 9.84776 7.23463C9.99913 7.60009 10.0387 8.00222 9.96157 8.39018C9.8844 8.77814 9.69392 9.13451 9.41421 9.41421C9.13451 9.69392 8.77814 9.8844 8.39018 9.96157C8.00222 10.0387 7.60009 9.99913 7.23463 9.84776C6.86918 9.69638 6.55682 9.44004 6.33706 9.11114C6.1173 8.78224 6 8.39556 6 8C6 7.46957 6.21071 6.96086 6.58579 6.58579C6.96086 6.21071 7.46957 6 8 6ZM19.5 19.5H4.5V16.3721L8.5042 12.819L10.7708 14.839L15.2245 10.8962L19.5 14.6619V19.5Z" fill="black"/>
</svg>
