<svg width="24" height="24" viewBox="0 0 24 24" fill="none" xmlns="http://www.w3.org/2000/svg">
<g clip-path="url(#clip0)">
<path d="M21.7937 11.8646C22.1609 10.8558 22.2148 9.75972 21.9486 8.71977C21.6823 7.67982 21.1082 6.74451 20.3015 6.03629C19.4948 5.32807 18.493 4.87995 17.4273 4.75061C16.3616 4.62126 15.2818 4.81672 14.329 5.31139C13.2721 4.32057 11.9298 3.68812 10.4928 3.50392C9.05583 3.31973 7.59737 3.59317 6.32472 4.28537C5.05206 4.97758 4.02998 6.05332 3.40375 7.3597C2.77751 8.66609 2.579 10.1366 2.83643 11.5623C1.87865 11.9188 1.07673 12.6007 0.570965 13.4888C0.0652031 14.3768 -0.112187 15.4144 0.0698314 16.4201C0.25185 17.4257 0.781686 18.3353 1.56663 18.9897C2.35158 19.6441 3.34166 20.0017 4.36363 19.9999H19.6364C20.5983 20.003 21.5341 19.6872 22.2974 19.1018C23.0607 18.5165 23.6085 17.6947 23.8551 16.7649C24.1016 15.8351 24.0331 14.8499 23.6601 13.9632C23.2871 13.0766 22.6308 12.3385 21.7937 11.8646ZM16 13.9999H8.00003V12.9999H16V13.9999ZM16 10.9999H8.00003V9.99989H16V10.9999Z" fill="black"/>
</g>
<defs>
<clipPath id="clip0">
<rect width="24" height="24" fill="white"/>
</clipPath>
</defs>
</svg>
