<svg width="24" height="24" viewBox="0 0 24 24" fill="none" xmlns="http://www.w3.org/2000/svg">
<path d="M2 4V20H22V4H2ZM20.5 18.5H3.5V5.5H20.5V18.5ZM10.7383 15.5C10.9778 15.512 11.2173 15.4755 11.4423 15.3927C11.6674 15.3098 11.8734 15.1824 12.048 15.0179C12.2225 14.8535 12.3621 14.6555 12.4582 14.4358C12.5543 14.2161 12.6051 13.9792 12.6074 13.7394V10.14H14.4524V8.5H11.2924V13.7575C11.0003 13.5984 10.6707 13.5211 10.3383 13.534C10.2091 13.5236 10.0792 13.5411 9.95735 13.5853C9.8355 13.6295 9.72455 13.6993 9.632 13.79C9.53945 13.8808 9.46745 13.9903 9.42087 14.1112C9.37429 14.2322 9.35422 14.3617 9.362 14.4911C9.3616 15.1189 9.8547 15.5 10.7383 15.5Z" fill="black"/>
</svg>
