<svg width="24" height="24" viewBox="0 0 24 24" fill="none" xmlns="http://www.w3.org/2000/svg">
<path d="M3 7V21H21V7H3ZM20 20H4V8H20V20ZM19 3H5V4H19V3ZM8.9519 17.5C9.13395 17.5091 9.31597 17.4814 9.48703 17.4185C9.65809 17.3555 9.81466 17.2586 9.94735 17.1336C10.08 17.0087 10.1861 16.8582 10.2592 16.6912C10.3323 16.5242 10.3708 16.3442 10.3726 16.1619V11.5H14.3626V16.1757C14.1406 16.0547 13.89 15.996 13.6374 16.0057C13.5392 15.9978 13.4405 16.0111 13.3479 16.0447C13.2553 16.0783 13.171 16.1313 13.1006 16.2003C13.0303 16.2692 12.9756 16.3525 12.9402 16.4444C12.9048 16.5363 12.8895 16.6348 12.8954 16.7331C12.8954 17.2102 13.2704 17.4998 13.9418 17.4998C14.1238 17.5089 14.3057 17.4811 14.4767 17.4181C14.6477 17.3551 14.8042 17.2582 14.9368 17.1332C15.0694 17.0083 15.1754 16.8578 15.2485 16.6908C15.3215 16.5239 15.36 16.3439 15.3618 16.1617V10.5H9.3728V16.1757C9.15083 16.0547 8.9003 15.996 8.6477 16.0057C8.54951 15.9978 8.45076 16.0111 8.35815 16.0447C8.26553 16.0782 8.1812 16.1313 8.11085 16.2003C8.0405 16.2692 7.98577 16.3525 7.95036 16.4444C7.91495 16.5363 7.89969 16.6348 7.9056 16.7331C7.9056 17.21 8.2805 17.5 8.9519 17.5Z" fill="black"/>
</svg>
