<svg width="24" height="24" viewBox="0 0 24 24" fill="none" xmlns="http://www.w3.org/2000/svg">
<path d="M12 2C10.0222 2 8.08879 2.58649 6.44429 3.6853C4.7998 4.78412 3.51808 6.3459 2.7612 8.17317C2.00433 10.0004 1.80629 12.0111 2.19214 13.9509C2.578 15.8907 3.5304 17.6725 4.92893 19.0711C6.32745 20.4696 8.10928 21.422 10.0491 21.8079C11.9889 22.1937 13.9996 21.9957 15.8268 21.2388C17.6541 20.4819 19.2159 19.2002 20.3147 17.5557C21.4135 15.9112 22 13.9778 22 12C21.997 9.34876 20.9424 6.80697 19.0677 4.93226C17.193 3.05755 14.6512 2.00302 12 2ZM12 21C10.22 21 8.47991 20.4722 6.99986 19.4832C5.51982 18.4943 4.36627 17.0887 3.68508 15.4442C3.00389 13.7996 2.82566 11.99 3.17293 10.2442C3.5202 8.49836 4.37736 6.89471 5.63604 5.63604C6.89471 4.37737 8.49836 3.5202 10.2442 3.17293C11.99 2.82567 13.7996 3.0039 15.4441 3.68508C17.0887 4.36627 18.4943 5.51983 19.4832 6.99987C20.4722 8.47991 21 10.22 21 12C20.9973 14.3861 20.0483 16.6738 18.361 18.361C16.6738 20.0483 14.3861 20.9974 12 21ZM8 10.2888V15H16V10.2888L12 7.971L8 10.2888ZM15 14H9V10.8651L12 9.1268L15 10.8651V14Z" fill="black"/>
</svg>
