<svg width="24" height="24" viewBox="0 0 24 24" fill="none" xmlns="http://www.w3.org/2000/svg">
<path d="M14 3V2.5C14 1.96957 13.7893 1.46086 13.4142 1.08579C13.0391 0.710714 12.5304 0.5 12 0.5C11.4696 0.5 10.9609 0.710714 10.5858 1.08579C10.2107 1.46086 10 1.96957 10 2.5V3H4V22H20V3H14ZM10.5 2.5C10.5 2.10218 10.658 1.72064 10.9393 1.43934C11.2206 1.15804 11.6022 1 12 1C12.3978 1 12.7794 1.15804 13.0607 1.43934C13.342 1.72064 13.5 2.10218 13.5 2.5V3H10.5V2.5ZM12 16.4C11.9209 16.4 11.8436 16.3765 11.7778 16.3326C11.712 16.2886 11.6607 16.2262 11.6304 16.1531C11.6002 16.08 11.5923 15.9996 11.6077 15.922C11.6231 15.8444 11.6612 15.7731 11.7172 15.7172C11.7731 15.6612 11.8444 15.6231 11.922 15.6077C11.9996 15.5923 12.08 15.6002 12.1531 15.6304C12.2262 15.6607 12.2886 15.712 12.3326 15.7778C12.3765 15.8436 12.4 15.9209 12.4 16C12.4 16.0525 12.3897 16.1045 12.3696 16.1531C12.3495 16.2016 12.32 16.2457 12.2828 16.2828C12.2457 16.32 12.2016 16.3495 12.1531 16.3696C12.1045 16.3897 12.0525 16.4 12 16.4ZM11.65 9H12.35L12.2177 14H11.7823L11.65 9ZM17.6627 4.3882C17.5772 4.70714 17.3889 4.98897 17.127 5.18999C16.865 5.39101 16.5441 5.49998 16.2139 5.5H7.7861C7.45591 5.49998 7.13495 5.39101 6.873 5.18999C6.61106 4.98897 6.42275 4.70714 6.3373 4.3882L6.0992 3.5H17.9008L17.6627 4.3882Z" fill="black"/>
</svg>
