<svg width="24" height="24" viewBox="0 0 24 24" fill="none" xmlns="http://www.w3.org/2000/svg">
<path d="M14 3V2.5C14 1.96957 13.7893 1.46086 13.4142 1.08579C13.0391 0.710714 12.5304 0.5 12 0.5C11.4696 0.5 10.9609 0.710714 10.5858 1.08579C10.2107 1.46086 10 1.96957 10 2.5V3H4V22H20V3H14ZM11 2.5C11 2.23478 11.1054 1.98043 11.2929 1.79289C11.4804 1.60536 11.7348 1.5 12 1.5C12.2652 1.5 12.5196 1.60536 12.7071 1.79289C12.8946 1.98043 13 2.23478 13 2.5V3H11V2.5ZM13 15H8V14H13V15ZM16 12H8V11H16V12ZM17.6627 4.8882C17.5772 5.20714 17.3889 5.48897 17.127 5.68999C16.865 5.89101 16.5441 5.99998 16.2139 6H7.7861C7.45591 5.99998 7.13495 5.89101 6.873 5.68999C6.61106 5.48897 6.42275 5.20714 6.3373 4.8882L6.0992 4H17.9008L17.6627 4.8882Z" fill="black"/>
</svg>
