<svg width="24" height="24" viewBox="0 0 24 24" fill="none" xmlns="http://www.w3.org/2000/svg">
<path d="M12 12C12.3368 12 12.6661 11.9001 12.9462 11.713C13.2263 11.5258 13.4446 11.2598 13.5735 10.9486C13.7024 10.6374 13.7361 10.295 13.6704 9.96464C13.6047 9.63427 13.4425 9.33081 13.2043 9.09263C12.9661 8.85444 12.6626 8.69224 12.3323 8.62652C12.0019 8.56081 11.6595 8.59454 11.3483 8.72344C11.0371 8.85234 10.7711 9.07063 10.5839 9.35071C10.3968 9.63078 10.2969 9.96006 10.2969 10.2969C10.2969 10.7486 10.4763 11.1818 10.7957 11.5012C11.1151 11.8206 11.5483 12 12 12ZM12 9.0938C12.238 9.0938 12.4706 9.16436 12.6684 9.29656C12.8663 9.42876 13.0205 9.61666 13.1115 9.83649C13.2026 10.0563 13.2264 10.2982 13.18 10.5316C13.1336 10.765 13.019 10.9794 12.8507 11.1476C12.6825 11.3159 12.4681 11.4305 12.2347 11.4769C12.0013 11.5233 11.7594 11.4995 11.5396 11.4084C11.3198 11.3174 11.1319 11.1632 10.9997 10.9653C10.8675 10.7675 10.7969 10.5349 10.7969 10.2969C10.7973 9.97793 10.9241 9.67213 11.1497 9.44659C11.3752 9.22104 11.681 9.09417 12 9.0938ZM8.5 14.8255V17H15.5V14.8255C14.5717 13.8973 13.3127 13.3759 12 13.3759C10.6873 13.3759 9.42829 13.8973 8.5 14.8255ZM15 16.5H9V15.0389C9.8199 14.2905 10.8899 13.8756 12 13.8756C13.1101 13.8756 14.1801 14.2905 15 15.0389V16.5ZM14 3V2.5C14 1.96957 13.7893 1.46086 13.4142 1.08579C13.0391 0.710714 12.5304 0.5 12 0.5C11.4696 0.5 10.9609 0.710714 10.5858 1.08579C10.2107 1.46086 10 1.96957 10 2.5V3H4V22H20V3H14ZM10.5 2.5C10.5 2.10218 10.658 1.72064 10.9393 1.43934C11.2206 1.15804 11.6022 1 12 1C12.3978 1 12.7794 1.15804 13.0607 1.43934C13.342 1.72064 13.5 2.10218 13.5 2.5V3H10.5V2.5ZM17.2 3.5L16.962 4.3882C16.8762 4.70705 16.6877 4.98875 16.4257 5.18972C16.1637 5.39069 15.8428 5.49974 15.5126 5.5H8.4874C8.15729 5.49961 7.8365 5.39051 7.57461 5.18955C7.31272 4.98859 7.12431 4.70696 7.0385 4.3882L6.8005 3.5H17.2ZM19.5 21.5H4.5V3.5H6.2829L6.5555 4.5176C6.66945 4.94288 6.92054 5.31868 7.26984 5.58671C7.61914 5.85473 8.04712 6.00001 8.4874 6H15.5126C15.9529 6.00001 16.3809 5.85473 16.7302 5.58671C17.0795 5.31868 17.3306 4.94288 17.4445 4.5176L17.7172 3.5H19.5V21.5Z" fill="black"/>
</svg>
