<svg width="24" height="24" viewBox="0 0 24 24" fill="none" xmlns="http://www.w3.org/2000/svg">
<path d="M3 3V21H21V3H3ZM19 19H5V5H19V19ZM11 8H8V11H11V8ZM9.5 16.15C9.82634 16.15 10.1453 16.0532 10.4167 15.8719C10.688 15.6906 10.8995 15.4329 11.0244 15.1314C11.1493 14.8299 11.182 14.4982 11.1183 14.1781C11.0546 13.858 10.8975 13.564 10.6667 13.3333C10.436 13.1025 10.142 12.9454 9.8219 12.8817C9.50183 12.818 9.17007 12.8507 8.86857 12.9756C8.56707 13.1005 8.30938 13.312 8.12808 13.5833C7.94677 13.8547 7.85 14.1737 7.85 14.5C7.85 14.9376 8.02384 15.3573 8.33327 15.6667C8.64271 15.9762 9.06239 16.15 9.5 16.15ZM14.5 7.7679L12.634 11H16.366L14.5 7.7679Z" fill="black"/>
</svg>
