<svg width="24" height="24" viewBox="0 0 24 24" fill="none" xmlns="http://www.w3.org/2000/svg">
<path d="M9 13.5981C9.00001 13.8614 9.06932 14.1201 9.20097 14.3481C9.33262 14.5761 9.52198 14.7655 9.75 14.8971L12 16.1962L14.25 14.8971C14.478 14.7655 14.6674 14.5761 14.799 14.3481C14.9307 14.1201 15 13.8614 15 13.5981V11.9415L16.9912 10.7866L12 7.8917L7.0088 10.7866L9 11.9415V13.5981ZM14.1 13.5981C14.0999 13.7035 14.0721 13.8069 14.0195 13.8982C13.9668 13.9895 13.8912 14.0653 13.8 14.1181L12 15.1569L10.2 14.1177C10.1088 14.0649 10.0332 13.9891 9.9805 13.8978C9.92785 13.8065 9.90009 13.7031 9.9 13.5977V12.4635L12 13.6815L14.1 12.4635V13.5981ZM8.8026 10.7866L12 8.9321L15.1974 10.7866L12 12.641L8.8026 10.7866ZM2 4V20H22V4H2ZM21 19H3V5H21V19Z" fill="black"/>
</svg>
