<svg width="24" height="24" viewBox="0 0 24 24" fill="none" xmlns="http://www.w3.org/2000/svg">
<path d="M14 3V2.5C14 1.96957 13.7893 1.46086 13.4142 1.08579C13.0391 0.710714 12.5304 0.5 12 0.5C11.4696 0.5 10.9609 0.710714 10.5858 1.08579C10.2107 1.46086 10 1.96957 10 2.5V3H4V22H20V3H14ZM10.5 2.5C10.5 2.10218 10.658 1.72064 10.9393 1.43934C11.2206 1.15804 11.6022 1 12 1C12.3978 1 12.7794 1.15804 13.0607 1.43934C13.342 1.72064 13.5 2.10218 13.5 2.5V3H10.5V2.5ZM14 15H8V14.5H14V15ZM16 11.5H8V11H16V11.5ZM17.6627 4.3882C17.5772 4.70714 17.3889 4.98897 17.127 5.18999C16.865 5.39101 16.5441 5.49998 16.2139 5.5H7.7861C7.45591 5.49998 7.13495 5.39101 6.873 5.18999C6.61106 4.98897 6.42275 4.70714 6.3373 4.3882L6.0992 3.5H17.9008L17.6627 4.3882Z" fill="black"/>
</svg>
