<svg width="24" height="24" viewBox="0 0 24 24" fill="none" xmlns="http://www.w3.org/2000/svg">
<path d="M3 7V21H21V7H3ZM14.4524 12.14H12.6074V15.7394C12.6051 15.9792 12.5543 16.2161 12.4582 16.4358C12.3621 16.6555 12.2225 16.8535 12.048 17.0179C11.8734 17.1824 11.6674 17.3098 11.4423 17.3927C11.2173 17.4755 10.9778 17.512 10.7383 17.5C9.8547 17.5 9.3616 17.1189 9.3616 16.4911C9.35382 16.3617 9.37389 16.2322 9.42047 16.1112C9.46705 15.9903 9.53905 15.8808 9.6316 15.79C9.72415 15.6993 9.8351 15.6295 9.95695 15.5853C10.0788 15.5411 10.2087 15.5236 10.3379 15.534C10.6703 15.5211 10.9999 15.5984 11.292 15.7575V10.5H14.452L14.4524 12.14ZM19 3H5V4.5H19V3Z" fill="black"/>
</svg>
