<svg width="24" height="24" viewBox="0 0 24 24" fill="none" xmlns="http://www.w3.org/2000/svg">
<path d="M3 3V21H21V3H3ZM19 19H5V17.6024L8.5015 14.4953L9.4404 15.3318L10.7666 16.5134L12.0966 15.3361L15.2278 12.564L19 15.8867V19ZM19 13.2214L15.2245 9.8958L10.7709 13.8386L8.5042 11.8186L5 14.9285V5H19V13.2214ZM8.5 10C8.79667 10 9.08668 9.91203 9.33335 9.7472C9.58003 9.58238 9.77229 9.34811 9.88582 9.07403C9.99935 8.79994 10.0291 8.49834 9.97118 8.20736C9.9133 7.91639 9.77044 7.64912 9.56066 7.43934C9.35088 7.22956 9.08361 7.0867 8.79264 7.02882C8.50166 6.97094 8.20006 7.00065 7.92597 7.11418C7.65189 7.22771 7.41762 7.41997 7.2528 7.66664C7.08797 7.91332 7 8.20333 7 8.5C7 8.89782 7.15804 9.27936 7.43934 9.56066C7.72064 9.84196 8.10218 10 8.5 10Z" fill="black"/>
</svg>
