<svg width="24" height="24" viewBox="0 0 24 24" fill="none" xmlns="http://www.w3.org/2000/svg">
<path d="M3 3V21H21V3H3ZM20.5 16H14.0208V16.0208C14.0153 16.5476 13.8022 17.051 13.4277 17.4216C13.0532 17.7922 12.5476 18 12.0208 18H12C11.4696 18 10.9609 17.7893 10.5858 17.4142C10.2107 17.0391 10 16.5304 10 16H3.5V15.5H20.5V16ZM14.0208 10.5V10.5208C14.0153 11.0476 13.8022 11.551 13.4277 11.9216C13.0532 12.2922 12.5476 12.5 12.0208 12.5H12C11.4696 12.5 10.9609 12.2893 10.5858 11.9142C10.2107 11.5391 10 11.0304 10 10.5H3.5V3.5H20.5V10.5H14.0208Z" fill="black"/>
</svg>
