<svg width="24" height="24" viewBox="0 0 24 24" fill="none" xmlns="http://www.w3.org/2000/svg">
<path d="M15.4141 2H4V22H20V6.5859L15.4141 2ZM14.8341 15.541L12.8073 13.5142C12.2412 13.9039 11.5499 14.068 10.8691 13.9743C10.1882 13.8805 9.56699 13.5357 9.12731 13.0074C8.68763 12.4792 8.46125 11.8057 8.49258 11.1192C8.52392 10.4326 8.81072 9.78257 9.2967 9.2966C9.78267 8.81062 10.4327 8.52382 11.1193 8.49248C11.8058 8.46115 12.4793 8.68753 13.0075 9.12721C13.5358 9.56689 13.8806 10.1881 13.9744 10.869C14.0681 11.5498 13.904 12.2411 13.5143 12.8072L15.541 14.834L14.8341 15.541ZM11.25 9.5C10.9039 9.5 10.5655 9.60264 10.2778 9.79493C9.98997 9.98722 9.76566 10.2605 9.63321 10.5803C9.50076 10.9001 9.4661 11.2519 9.53363 11.5914C9.60115 11.9309 9.76782 12.2427 10.0126 12.4874C10.2573 12.7322 10.5691 12.8989 10.9086 12.9664C11.2481 13.0339 11.5999 12.9992 11.9197 12.8668C12.2395 12.7343 12.5128 12.51 12.7051 12.2222C12.8974 11.9345 13 11.5961 13 11.25C12.9995 10.786 12.815 10.3412 12.4869 10.0131C12.1588 9.68504 11.714 9.5005 11.25 9.5Z" fill="black"/>
</svg>
