<svg width="24" height="24" viewBox="0 0 24 24" fill="none" xmlns="http://www.w3.org/2000/svg">
<g clip-path="url(#clip0)">
<path d="M21.7937 11.8647C22.1608 10.856 22.2148 9.75986 21.9485 8.71993C21.6823 7.68 21.1082 6.7447 20.3015 6.03649C19.4948 5.32828 18.493 4.88016 17.4274 4.7508C16.3617 4.62144 15.2818 4.81687 14.3291 5.3115C13.2722 4.32064 11.9299 3.68815 10.4929 3.50393C9.05589 3.31972 7.59739 3.59315 6.32472 4.28536C5.05204 4.97757 4.02994 6.05334 3.40371 7.35974C2.77747 8.66615 2.57897 10.1367 2.83643 11.5624C1.87865 11.9189 1.07673 12.6008 0.570965 13.4889C0.0652031 14.3769 -0.112187 15.4145 0.0698314 16.4202C0.25185 17.4258 0.781686 18.3354 1.56663 18.9898C2.35158 19.6443 3.34166 20.0018 4.36363 20H19.6364C20.5983 20.0031 21.5341 19.6873 22.2974 19.1019C23.0607 18.5166 23.6085 17.6948 23.8551 16.765C24.1016 15.8352 24.0331 14.85 23.6601 13.9633C23.2871 13.0767 22.6308 12.3387 21.7937 11.8647ZM15.9852 11.8277H12.1978V10.8277H14.363L13.7676 10.2323C13.2913 9.77794 12.6583 9.52446 12 9.52446C11.3417 9.52446 10.7088 9.77794 10.2324 10.2323C9.98407 10.4802 9.79068 10.7775 9.66482 11.1051C9.53896 11.4326 9.48345 11.7829 9.50191 12.1333C9.52037 12.4837 9.61238 12.8263 9.77196 13.1388C9.93154 13.4513 10.1551 13.7267 10.4281 13.9471C10.7012 14.1675 11.0175 14.3279 11.3566 14.418C11.6957 14.5081 12.05 14.5258 12.3964 14.4699C12.7428 14.4141 13.0736 14.2859 13.3672 14.0938C13.6608 13.9017 13.9107 13.6499 14.1006 13.3549L14.9424 13.8959C14.6765 14.3087 14.3267 14.6609 13.9157 14.9296C13.5047 15.1983 13.0418 15.3775 12.5571 15.4557C12.0723 15.5338 11.5765 15.509 11.1019 15.383C10.6274 15.257 10.1846 15.0325 9.80249 14.7242C9.42034 14.4158 9.10735 14.0306 8.88385 13.5934C8.66034 13.1562 8.53134 12.6768 8.50521 12.1865C8.47907 11.6962 8.55641 11.2058 8.73217 10.7473C8.90794 10.2889 9.17822 9.8725 9.52543 9.5253C10.192 8.88875 11.0783 8.53357 12 8.53357C12.9217 8.53357 13.808 8.88875 14.4746 9.5253L14.9854 10.036V8.04H15.9854L15.9852 11.8277Z" fill="black"/>
</g>
<defs>
<clipPath id="clip0">
<rect width="24" height="24" fill="white"/>
</clipPath>
</defs>
</svg>
