<svg width="24" height="24" viewBox="0 0 24 24" fill="none" xmlns="http://www.w3.org/2000/svg">
<g clip-path="url(#clip0)">
<path d="M21 9.99997C20.6586 10.0033 20.3203 10.0655 20 10.1837V3.99997H13.8163C13.9827 3.54658 14.0372 3.05971 13.9751 2.58075C13.913 2.10179 13.7363 1.64489 13.4598 1.2489C13.1833 0.852899 12.8153 0.529509 12.387 0.306211C11.9588 0.0829129 11.483 -0.0336914 11 -0.0336914C10.517 -0.0336914 10.0412 0.0829129 9.61296 0.306211C9.18471 0.529509 8.81671 0.852899 8.54023 1.2489C8.26374 1.64489 8.08695 2.10179 8.02488 2.58075C7.96281 3.05971 8.01729 3.54658 8.1837 3.99997H2V11.6005L3.335 11.126C3.54776 11.046 3.77273 11.0034 4 11C4.53043 11 5.03914 11.2107 5.41421 11.5858C5.78929 11.9608 6 12.4695 6 13C6 13.5304 5.78929 14.0391 5.41421 14.4142C5.03914 14.7893 4.53043 15 4 15C3.77273 14.9966 3.54776 14.954 3.335 14.874L2 14.4V22H9.6005L9.126 20.665C9.04602 20.4522 9.00339 20.2272 9 20C9 19.4695 9.21071 18.9608 9.58579 18.5858C9.96086 18.2107 10.4696 18 11 18C11.5304 18 12.0391 18.2107 12.4142 18.5858C12.7893 18.9608 13 19.4695 13 20C12.9966 20.2272 12.954 20.4522 12.874 20.665L12.4 22H20V15.8163C20.4114 15.9628 20.8498 16.0176 21.2846 15.9769C21.7194 15.9361 22.14 15.8008 22.517 15.5804C22.894 15.3599 23.2182 15.0597 23.4669 14.7008C23.7156 14.3418 23.8828 13.9328 23.9568 13.5025C24.0308 13.0721 24.0098 12.6307 23.8952 12.2093C23.7807 11.7879 23.5754 11.3967 23.2937 11.063C23.012 10.7293 22.6607 10.4612 22.2645 10.2776C21.8683 10.094 21.4367 9.99922 21 9.99997ZM21 15C20.7727 14.9966 20.5478 14.954 20.335 14.874L19 14.4V21H13.8163C13.9827 20.5466 14.0372 20.0597 13.9751 19.5807C13.913 19.1018 13.7363 18.6449 13.4598 18.2489C13.1833 17.8529 12.8153 17.5295 12.387 17.3062C11.9588 17.0829 11.483 16.9663 11 16.9663C10.517 16.9663 10.0412 17.0829 9.61296 17.3062C9.18471 17.5295 8.81671 17.8529 8.54023 18.2489C8.26374 18.6449 8.08695 19.1018 8.02488 19.5807C7.96281 20.0597 8.01729 20.5466 8.1837 21H3V15.8163C3.45339 15.9827 3.94026 16.0372 4.41922 15.9751C4.89818 15.913 5.35508 15.7362 5.75107 15.4597C6.14707 15.1833 6.47046 14.8153 6.69376 14.387C6.91706 13.9588 7.03366 13.4829 7.03366 13C7.03366 12.517 6.91706 12.0412 6.69376 11.6129C6.47046 11.1847 6.14707 10.8167 5.75107 10.5402C5.35508 10.2637 4.89818 10.0869 4.41922 10.0248C3.94026 9.96278 3.45339 10.0173 3 10.1837V4.99997H9.6005L9.126 3.66497C9.04602 3.45221 9.00339 3.22724 9 2.99997C9 2.46954 9.21071 1.96083 9.58579 1.58576C9.96086 1.21068 10.4696 0.999969 11 0.999969C11.5304 0.999969 12.0391 1.21068 12.4142 1.58576C12.7893 1.96083 13 2.46954 13 2.99997C12.9966 3.22724 12.954 3.45221 12.874 3.66497L12.4 4.99997H19V11.6005L20.335 11.126C20.5478 11.046 20.7727 11.0034 21 11C21.5304 11 22.0391 11.2107 22.4142 11.5858C22.7893 11.9608 23 12.4695 23 13C23 13.5304 22.7893 14.0391 22.4142 14.4142C22.0391 14.7893 21.5304 15 21 15Z" fill="black"/>
</g>
<defs>
<clipPath id="clip0">
<rect width="24" height="24" fill="white"/>
</clipPath>
</defs>
</svg>
