<svg width="24" height="24" viewBox="0 0 24 24" fill="none" xmlns="http://www.w3.org/2000/svg">
<path d="M15.4141 2H4V22H20V6.5859L15.4141 2ZM18.5 20.5H5.5V3.5H14.7927L18.5 7.2073V20.5ZM9.4189 9.4194L9.2784 9.56L8.0308 8.3123V11.8478H11.5663L10.1979 10.4794L10.3389 10.3384C10.7865 9.91091 11.3817 9.67242 12.0006 9.67251C12.6195 9.67261 13.2146 9.91128 13.6621 10.3389C13.8977 10.5749 14.0804 10.8583 14.198 11.1703C14.3156 11.4823 14.3655 11.8158 14.3443 12.1486C14.3231 12.4814 14.2313 12.8058 14.0751 13.1004C13.9189 13.395 13.7017 13.6529 13.4381 13.8571C13.1745 14.0613 12.8704 14.2071 12.5461 14.2847C12.2218 14.3623 11.8847 14.37 11.5572 14.3073C11.2297 14.2446 10.9193 14.113 10.6466 13.9211C10.3739 13.7292 10.1452 13.4814 9.9756 13.1943L8.8564 13.8564C9.01315 14.1202 9.2021 14.3635 9.4189 14.5806C9.75676 14.9242 10.1593 15.1975 10.6033 15.3847C11.0474 15.572 11.5241 15.6694 12.0059 15.6715C12.4878 15.6735 12.9653 15.5802 13.411 15.3967C13.8566 15.2133 14.2614 14.9434 14.6022 14.6027C14.943 14.262 15.2129 13.8572 15.3965 13.4116C15.58 12.966 15.6735 12.4885 15.6715 12.0067C15.6695 11.5248 15.5722 11.0481 15.385 10.604C15.1979 10.1599 14.9246 9.75733 14.5811 9.4194C13.8857 8.75559 12.9613 8.38521 12 8.38521C11.0387 8.38521 10.1143 8.75559 9.4189 9.4194Z" fill="black"/>
</svg>
