<svg width="24" height="24" viewBox="0 0 24 24" fill="none" xmlns="http://www.w3.org/2000/svg">
<path d="M7 2C6.20435 2 5.44129 2.31607 4.87868 2.87868C4.31607 3.44129 4 4.20435 4 5V19C4 19.7956 4.31607 20.5587 4.87868 21.1213C5.44129 21.6839 6.20435 22 7 22H20V2H7ZM18.5 20.5H7C6.60231 20.4995 6.22104 20.3414 5.93984 20.0602C5.65863 19.779 5.50045 19.3977 5.5 19V7.5839C5.95411 7.85349 6.4719 7.99713 7 8H18.5V20.5ZM18.5 6.5H7C6.60218 6.5 6.22064 6.34196 5.93934 6.06066C5.65804 5.77936 5.5 5.39782 5.5 5C5.5 4.60218 5.65804 4.22064 5.93934 3.93934C6.22064 3.65804 6.60218 3.5 7 3.5H18.5V6.5ZM15 11H9V12.5H15V11Z" fill="black"/>
</svg>
