<svg width="24" height="24" viewBox="0 0 24 24" fill="none" xmlns="http://www.w3.org/2000/svg">
<path d="M14 3V2.5C14 1.96957 13.7893 1.46086 13.4142 1.08579C13.0391 0.710714 12.5304 0.5 12 0.5C11.4696 0.5 10.9609 0.710714 10.5858 1.08579C10.2107 1.46086 10 1.96957 10 2.5V3H4V22H20V3H14ZM10.5 2.5C10.5 2.10218 10.658 1.72064 10.9393 1.43934C11.2206 1.15804 11.6022 1 12 1C12.3978 1 12.7794 1.15804 13.0607 1.43934C13.342 1.72064 13.5 2.10218 13.5 2.5V3H10.5V2.5ZM17.2 3.5L16.962 4.3882C16.8762 4.70705 16.6877 4.98875 16.4257 5.18972C16.1637 5.39069 15.8428 5.49974 15.5126 5.5H8.4874C8.15729 5.49961 7.8365 5.39051 7.57461 5.18955C7.31272 4.98859 7.12431 4.70696 7.0385 4.3882L6.8005 3.5H17.2ZM19.5 21.5H4.5V3.5H6.2829L6.5555 4.5176C6.66945 4.94288 6.92054 5.31868 7.26984 5.58671C7.61914 5.85473 8.04712 6.00001 8.4874 6H15.5126C15.9529 6.00001 16.3809 5.85473 16.7302 5.58671C17.0795 5.31868 17.3306 4.94288 17.4445 4.5176L17.7172 3.5H19.5V21.5ZM11.3975 14.4009L8.8418 11.8452L8.4883 12.1987L11.3975 15.1079L15.6992 10.8071L15.3457 10.4536L11.3975 14.4009Z" fill="black"/>
</svg>
