<svg width="24" height="24" viewBox="0 0 24 24" fill="none" xmlns="http://www.w3.org/2000/svg">
<g clip-path="url(#clip0)">
<path d="M14.5 3V2.5C14.5 1.83696 14.2366 1.20107 13.7678 0.732233C13.2989 0.263392 12.663 0 12 0C11.337 0 10.7011 0.263392 10.2322 0.732233C9.76339 1.20107 9.5 1.83696 9.5 2.5V3H4V22H20V3H14.5ZM11.1 2.5C11.1 2.38181 11.1233 2.26478 11.1685 2.15558C11.2137 2.04639 11.28 1.94718 11.3636 1.8636C11.4472 1.78003 11.5464 1.71374 11.6556 1.66851C11.7648 1.62328 11.8818 1.6 12 1.6C12.1182 1.6 12.2352 1.62328 12.3444 1.66851C12.4536 1.71374 12.5528 1.78003 12.6364 1.8636C12.72 1.94718 12.7863 2.04639 12.8315 2.15558C12.8767 2.26478 12.9 2.38181 12.9 2.5V3H11.1V2.5ZM15.107 5L14.9141 5.72C14.8655 5.90063 14.7587 6.06022 14.6103 6.17409C14.4619 6.28797 14.2802 6.34979 14.0931 6.35H9.9069C9.71984 6.34979 9.53806 6.28797 9.38967 6.17409C9.24127 6.06022 9.13451 5.90063 9.0859 5.72L8.893 5H15.107ZM18 20H6V5H7.1848L7.4921 6.147C7.63453 6.67859 7.94839 7.14833 8.38499 7.48336C8.8216 7.81839 9.35656 7.99999 9.9069 8H14.0931C14.6434 7.99999 15.1784 7.81839 15.615 7.48336C16.0516 7.14833 16.3655 6.67859 16.5079 6.147L16.8152 5H18V20ZM11 9.9584L7.9584 13L11 16.0416V14H16V12H11V9.9584Z" fill="black"/>
</g>
<defs>
<clipPath id="clip0">
<rect width="24" height="24" fill="white"/>
</clipPath>
</defs>
</svg>
