<svg width="24" height="24" viewBox="0 0 24 24" fill="none" xmlns="http://www.w3.org/2000/svg">
<path d="M15.4141 2H4V22H20V6.5859L15.4141 2ZM18 20H6V4H14.5856L18 7.4144V20ZM9.4512 9.2019L7.9132 7.6639V11.9655H12.2147L10.5826 10.3333C11.0067 9.98659 11.5428 9.80661 12.0902 9.82714C12.6376 9.84767 13.1587 10.0673 13.5557 10.4448C13.76 10.649 13.922 10.8914 14.0326 11.1582C14.1431 11.425 14.2 11.711 14.2 11.9998C14.2 12.2886 14.1431 12.5746 14.0326 12.8414C13.922 13.1082 13.76 13.3506 13.5557 13.5548C13.1368 13.9553 12.5796 14.1788 12 14.1788C11.4204 14.1788 10.8632 13.9553 10.4443 13.5548L10.4424 13.5533C10.3314 13.4425 10.2328 13.3198 10.1484 13.1876L8.8008 14.0518C9.08887 14.5007 9.46821 14.8839 9.91413 15.1765C10.3601 15.4691 10.8626 15.6645 11.389 15.7501C11.9155 15.8357 12.454 15.8095 12.9697 15.6732C13.4853 15.537 13.9665 15.2937 14.3819 14.9592C14.7974 14.6247 15.1377 14.2065 15.3809 13.7319C15.6241 13.2572 15.7646 12.7366 15.7933 12.204C15.822 11.6714 15.7383 11.1388 15.5476 10.6407C15.357 10.1426 15.0635 9.69023 14.6865 9.313C13.9847 8.6453 13.0588 8.26378 12.0904 8.24323C11.1219 8.22268 10.1807 8.56457 9.4512 9.2019Z" fill="black"/>
</svg>
