<svg width="24" height="24" viewBox="0 0 24 24" fill="none" xmlns="http://www.w3.org/2000/svg">
<path d="M3 3V21H21V3H3ZM20 20H4V18.1528L8.5028 14.1572L10.1056 15.5852L10.772 16.1788L11.4373 15.5842L15.63 11.8369L20 15.6863V20ZM20 14.3537L15.625 10.5L10.7709 14.8386L8.5042 12.8186L4 16.8159V4H20V14.3537ZM8.5 10.5C8.89556 10.5 9.28224 10.3827 9.61114 10.1629C9.94004 9.94318 10.1964 9.63082 10.3478 9.26537C10.4991 8.89991 10.5387 8.49778 10.4616 8.10982C10.3844 7.72186 10.1939 7.36549 9.91421 7.08579C9.63451 6.80608 9.27814 6.6156 8.89018 6.53843C8.50222 6.46126 8.10009 6.50087 7.73463 6.65224C7.36918 6.80362 7.05682 7.05996 6.83706 7.38886C6.6173 7.71776 6.5 8.10444 6.5 8.5C6.5 9.03043 6.71071 9.53914 7.08579 9.91421C7.46086 10.2893 7.96957 10.5 8.5 10.5ZM8.5 7.5C8.69778 7.5 8.89112 7.55865 9.05557 7.66853C9.22002 7.77841 9.34819 7.93459 9.42388 8.11732C9.49957 8.30004 9.51937 8.50111 9.48079 8.69509C9.4422 8.88907 9.34696 9.06725 9.20711 9.20711C9.06725 9.34696 8.88907 9.4422 8.69509 9.48079C8.50111 9.51937 8.30004 9.49957 8.11732 9.42388C7.93459 9.34819 7.77841 9.22002 7.66853 9.05557C7.55865 8.89112 7.5 8.69778 7.5 8.5C7.50029 8.23487 7.60574 7.98069 7.79321 7.79321C7.98069 7.60574 8.23487 7.50029 8.5 7.5Z" fill="black"/>
</svg>
