<svg width="24" height="24" viewBox="0 0 24 24" fill="none" xmlns="http://www.w3.org/2000/svg">
<path d="M19 3H5V3.5H19V3ZM3 7V21H21V7H3ZM15.4688 16.1215C15.4633 16.313 15.4193 16.5014 15.3392 16.6754C15.2592 16.8494 15.1448 17.0055 15.003 17.1342C14.8611 17.2629 14.6948 17.3617 14.5138 17.4246C14.3329 17.4874 14.1411 17.5131 13.95 17.5C13.23 17.5 12.7988 17.0791 12.7988 16.601C12.8095 16.3538 12.9171 16.1209 13.0985 15.9526C13.2798 15.7843 13.5201 15.6942 13.7674 15.702C14.1881 15.6934 14.6032 15.7992 14.9684 16.0083V11H10.4684V16.1215C10.4629 16.3129 10.4189 16.5013 10.3389 16.6753C10.2588 16.8493 10.1445 17.0053 10.0027 17.134C9.86092 17.2628 9.69459 17.3615 9.51369 17.4244C9.3328 17.4873 9.14107 17.513 8.95 17.5C8.23 17.5 7.7988 17.0791 7.7988 16.601C7.80947 16.3538 7.91714 16.1209 8.09846 15.9526C8.27978 15.7843 8.52014 15.6942 8.7674 15.702C9.1881 15.6934 9.60323 15.7992 9.9684 16.0083V10.5H15.4684L15.4688 16.1215Z" fill="black"/>
</svg>
