<svg width="24" height="24" viewBox="0 0 24 24" fill="none" xmlns="http://www.w3.org/2000/svg">
<path d="M2 4V20H22V4H2ZM21 19H3V5H21V19ZM8.9519 15.5C9.13395 15.5091 9.31597 15.4814 9.48703 15.4185C9.65809 15.3555 9.81466 15.2586 9.94735 15.1336C10.08 15.0087 10.1861 14.8582 10.2592 14.6912C10.3323 14.5242 10.3708 14.3442 10.3726 14.1619V9.5H14.3626V14.1757C14.1406 14.0547 13.89 13.996 13.6374 14.0057C13.5392 13.9978 13.4405 14.0111 13.3479 14.0447C13.2553 14.0783 13.171 14.1313 13.1006 14.2003C13.0303 14.2692 12.9756 14.3525 12.9402 14.4444C12.9048 14.5363 12.8895 14.6348 12.8954 14.7331C12.8954 15.2102 13.2704 15.4998 13.9418 15.4998C14.1238 15.5089 14.3057 15.4811 14.4767 15.4181C14.6477 15.3551 14.8042 15.2582 14.9368 15.1332C15.0694 15.0083 15.1754 14.8578 15.2485 14.6908C15.3215 14.5239 15.36 14.3439 15.3618 14.1617V8.5H9.3728V14.1757C9.15083 14.0547 8.9003 13.996 8.6477 14.0057C8.54951 13.9978 8.45076 14.0111 8.35815 14.0447C8.26553 14.0782 8.1812 14.1313 8.11085 14.2002C8.0405 14.2692 7.98577 14.3525 7.95036 14.4444C7.91495 14.5363 7.89969 14.6348 7.9056 14.7331C7.9056 15.21 8.2805 15.5 8.9519 15.5Z" fill="black"/>
</svg>
