<svg width="24" height="24" viewBox="0 0 24 24" fill="none" xmlns="http://www.w3.org/2000/svg">
<path d="M15.4141 2H4V22H20V6.5859L15.4141 2ZM14.58 14.5811C14.2411 14.92 13.8388 15.1889 13.396 15.3723C12.9533 15.5557 12.4787 15.6502 11.9994 15.6502C11.5201 15.6502 11.0455 15.5557 10.6028 15.3723C10.16 15.1889 9.75767 14.92 9.4188 14.5811C9.202 14.364 9.01305 14.1207 8.8563 13.8569L9.9755 13.1948C10.1451 13.4819 10.3738 13.7297 10.6465 13.9216C10.9192 14.1135 11.2296 14.2451 11.5571 14.3078C11.8846 14.3705 12.2217 14.3628 12.546 14.2852C12.8703 14.2076 13.1744 14.0618 13.438 13.8576C13.7016 13.6534 13.9188 13.3955 14.075 13.1009C14.2312 12.8063 14.323 12.4819 14.3442 12.1491C14.3654 11.8163 14.3155 11.4828 14.1979 11.1708C14.0803 10.8588 13.8976 10.5754 13.662 10.3394C13.2145 9.91178 12.6194 9.67311 12.0005 9.67301C11.3816 9.67292 10.7864 9.91141 10.3388 10.3389L10.1978 10.4799L11.5662 11.8483H8.0308V8.3123L9.2784 9.56L9.4189 9.4195C10.1143 8.75569 11.0387 8.38531 12 8.38531C12.9613 8.38531 13.8857 8.75569 14.5811 9.4195C14.9202 9.75836 15.1891 10.1607 15.3726 10.6036C15.5561 11.0465 15.6505 11.5212 15.6504 12.0006C15.6503 12.4799 15.5557 12.9546 15.3721 13.3974C15.1884 13.8402 14.9193 14.2425 14.5801 14.5812L14.58 14.5811Z" fill="black"/>
</svg>
