<svg width="24" height="24" viewBox="0 0 24 24" fill="none" xmlns="http://www.w3.org/2000/svg">
<path d="M15.4141 2H4V22H20V6.5859L15.4141 2ZM16 12.55H12.8V12.5988L14.1484 13.0481C14.5567 13.1839 14.9118 13.4448 15.1634 13.7939C15.415 14.143 15.5503 14.5624 15.55 14.9927V15.5H14.45V14.9927C14.4503 14.7933 14.3877 14.5989 14.2711 14.4372C14.1545 14.2754 13.9899 14.1546 13.8006 14.0918L12.7533 13.7426C12.7069 13.9067 12.6082 14.0511 12.4722 14.1539C12.3362 14.2568 12.1703 14.3124 11.9998 14.3124C11.8293 14.3124 11.6634 14.2568 11.5274 14.1539C11.3914 14.0511 11.2927 13.9067 11.2463 13.7426L10.199 14.0918C10.0097 14.1546 9.84511 14.2754 9.72851 14.4372C9.61192 14.5989 9.54931 14.7933 9.5496 14.9927V15.5H8.45V14.9927C8.44966 14.5624 8.58486 14.1429 8.83642 13.7938C9.08798 13.4447 9.44311 13.1837 9.8514 13.0479L11.2 12.5986V12.55H8V11.45H11.2V11.4012L9.8516 10.9519C9.4433 10.8161 9.08815 10.5552 8.83656 10.2061C8.58497 9.85703 8.44971 9.43758 8.45 9.0073V8.5H9.55V9.0073C9.54971 9.20669 9.61232 9.40109 9.72891 9.56284C9.84551 9.72459 10.0101 9.84544 10.1994 9.9082L11.2 10.242V9.3C11.2 9.08783 11.2843 8.88434 11.4343 8.73431C11.5843 8.58429 11.7878 8.5 12 8.5C12.2122 8.5 12.4157 8.58429 12.5657 8.73431C12.7157 8.88434 12.8 9.08783 12.8 9.3V10.242L13.8008 9.9082C13.9901 9.84544 14.1547 9.72459 14.2713 9.56284C14.3879 9.40109 14.4505 9.20669 14.4502 9.0073V8.5H15.5502V9.0073C15.5505 9.43759 15.4153 9.85706 15.1638 10.2062C14.9122 10.5553 14.5571 10.8163 14.1488 10.9521L12.8 11.4014V11.45H16V12.55Z" fill="black"/>
</svg>
