<svg width="24" height="24" viewBox="0 0 24 24" fill="none" xmlns="http://www.w3.org/2000/svg">
<path d="M3 3V21H21V3H3ZM19 16H14.0208V16.0208C14.0153 16.5476 13.8022 17.051 13.4277 17.4216C13.0532 17.7922 12.5476 18 12.0208 18H12C11.4696 18 10.9609 17.7893 10.5858 17.4142C10.2107 17.0391 10 16.5304 10 16H5V14.5H19V16ZM14.0208 9.5V9.5208C14.0153 10.0476 13.8022 10.551 13.4277 10.9216C13.0532 11.2922 12.5476 11.5 12.0208 11.5H12C11.4696 11.5 10.9609 11.2893 10.5858 10.9142C10.2107 10.5391 10 10.0304 10 9.5H5V5H19V9.5H14.0208Z" fill="black"/>
</svg>
