<svg width="24" height="24" viewBox="0 0 24 24" fill="none" xmlns="http://www.w3.org/2000/svg">
<g clip-path="url(#clip0)">
<path d="M14.5 3V2.5C14.5 1.83696 14.2366 1.20107 13.7678 0.732233C13.2989 0.263392 12.663 0 12 0C11.337 0 10.7011 0.263392 10.2322 0.732233C9.76339 1.20107 9.5 1.83696 9.5 2.5V3H4V22H20V3H14.5ZM11 2.5C11 2.23478 11.1054 1.98043 11.2929 1.79289C11.4804 1.60536 11.7348 1.5 12 1.5C12.2652 1.5 12.5196 1.60536 12.7071 1.79289C12.8946 1.98043 13 2.23478 13 2.5V3H11V2.5ZM15.3963 4.5L15.2181 5.165C15.1609 5.37752 15.0353 5.56528 14.8607 5.69926C14.6861 5.83323 14.4722 5.90596 14.2521 5.9062H9.7479C9.52782 5.90595 9.31395 5.83321 9.13934 5.69924C8.96474 5.56527 8.83912 5.37751 8.7819 5.165L8.6038 4.5H15.3963ZM18.5 20.5H5.5V4.5H7.0508L7.3331 5.5533C7.47555 6.08487 7.78941 6.55459 8.22602 6.8896C8.66262 7.22461 9.19757 7.4062 9.7479 7.4062H14.2521C14.8024 7.40622 15.3374 7.22464 15.774 6.88963C16.2107 6.55462 16.5245 6.08489 16.667 5.5533L16.9492 4.5H18.5V20.5ZM12 15.1C11.822 15.1 11.648 15.1528 11.5 15.2517C11.352 15.3506 11.2366 15.4911 11.1685 15.6556C11.1004 15.82 11.0826 16.001 11.1173 16.1756C11.152 16.3502 11.2377 16.5105 11.3636 16.6364C11.4895 16.7623 11.6498 16.848 11.8244 16.8827C11.999 16.9174 12.18 16.8996 12.3444 16.8315C12.5089 16.7634 12.6494 16.648 12.7483 16.5C12.8472 16.352 12.9 16.178 12.9 16C12.9 15.7613 12.8052 15.5324 12.6364 15.3636C12.4676 15.1948 12.2387 15.1 12 15.1ZM11.4318 14H12.5682L12.9137 9H11.0863L11.4318 14Z" fill="black"/>
</g>
<defs>
<clipPath id="clip0">
<rect width="24" height="24" fill="white"/>
</clipPath>
</defs>
</svg>
