<svg width="24" height="24" viewBox="0 0 24 24" fill="none" xmlns="http://www.w3.org/2000/svg">
<path d="M3 3V21H21V3H3ZM20 20H4V15H8.6455C8.86093 15.7223 9.30377 16.3559 9.90816 16.8063C10.5126 17.2568 11.2462 17.5001 12 17.5001C12.7538 17.5001 13.4874 17.2568 14.0918 16.8063C14.6962 16.3559 15.1391 15.7223 15.3545 15H20V20ZM14.5 14C14.5 14.663 14.2366 15.2989 13.7678 15.7678C13.2989 16.2366 12.663 16.5 12 16.5C11.337 16.5 10.7011 16.2366 10.2322 15.7678C9.76339 15.2989 9.5 14.663 9.5 14H4V4H20V14H14.5Z" fill="black"/>
</svg>
