<svg width="24" height="24" viewBox="0 0 24 24" fill="none" xmlns="http://www.w3.org/2000/svg">
<path d="M15.4141 2H4V22H20V6.5859L15.4141 2ZM16 12.25H13.35V12.9625C13.3437 13.0052 13.3351 13.0476 13.3243 13.0894L14.0537 13.3325C14.4022 13.4484 14.7054 13.6711 14.9202 13.9691C15.1349 14.2671 15.2503 14.6252 15.25 14.9925V15.5H14.75V14.9927C14.7502 14.7304 14.6678 14.4746 14.5144 14.2618C14.361 14.049 14.1444 13.8899 13.8955 13.8071L13.1877 13.5712C13.079 13.7936 12.91 13.9809 12.7 14.112C12.4901 14.243 12.2475 14.3125 12 14.3125C11.7525 14.3125 11.5099 14.243 11.3 14.112C11.09 13.9809 10.921 13.7936 10.8123 13.5712L10.1045 13.8071C9.85556 13.8899 9.63902 14.049 9.48563 14.2618C9.33224 14.4746 9.2498 14.7304 9.25 14.9927V15.5H8.75V14.9927C8.74967 14.6254 8.86508 14.2673 9.07983 13.9693C9.29458 13.6713 9.59775 13.4486 9.9463 13.3327L10.6757 13.0896C10.6649 13.0478 10.6563 13.0054 10.65 12.9627V12.25H8V11.75H10.65V10.902L9.9463 10.6675C9.59772 10.5516 9.29452 10.3288 9.07977 10.0308C8.86502 9.73276 8.74963 9.37464 8.75 9.0073V8.5H9.25V9.0073C9.2498 9.26964 9.33224 9.52538 9.48563 9.7382C9.63902 9.95103 9.85556 10.1101 10.1045 10.1929L10.65 10.3747V9.85C10.65 9.49196 10.7922 9.14858 11.0454 8.89541C11.2986 8.64223 11.642 8.5 12 8.5C12.358 8.5 12.7014 8.64223 12.9546 8.89541C13.2078 9.14858 13.35 9.49196 13.35 9.85V10.3747L13.8955 10.1929C14.1444 10.1101 14.361 9.95103 14.5144 9.7382C14.6678 9.52538 14.7502 9.26964 14.75 9.0073V8.5H15.25V9.0073C15.2503 9.37461 15.1349 9.73268 14.9202 10.0307C14.7054 10.3287 14.4022 10.5514 14.0537 10.6673L13.35 10.9018V11.7498H16V12.25Z" fill="black"/>
</svg>
