<svg width="24" height="24" viewBox="0 0 24 24" fill="none" xmlns="http://www.w3.org/2000/svg">
<path d="M15.4141 2H4V22H20V6.5859L15.4141 2ZM14.4746 14.4746C14.105 14.8436 13.6575 15.1252 13.165 15.2989C12.6724 15.4726 12.1473 15.534 11.628 15.4785C11.1087 15.423 10.6083 15.2521 10.1636 14.9783C9.71885 14.7045 9.34096 14.3347 9.0576 13.896L9.8994 13.355C10.0893 13.65 10.3392 13.9018 10.6328 14.0939C10.9264 14.286 11.2572 14.4142 11.6036 14.47C11.95 14.5259 12.3043 14.5082 12.6434 14.4181C12.9825 14.328 13.2989 14.1676 13.5719 13.9472C13.8449 13.7268 14.0685 13.4514 14.2281 13.1389C14.3876 12.8264 14.4797 12.4838 14.4981 12.1334C14.5166 11.783 14.4611 11.4327 14.3352 11.1052C14.2093 10.7776 14.016 10.4803 13.7676 10.2324C13.2913 9.77804 12.6583 9.52455 12 9.52455C11.3417 9.52455 10.7087 9.77804 10.2324 10.2324L9.637 10.8278H11.8023V11.8278H8.0148V8.04H9.0148V10.0359L9.5256 9.5252C10.1922 8.88865 11.0785 8.53346 12.0002 8.53346C12.9219 8.53346 13.8082 8.88865 14.4748 9.5252C14.7999 9.85011 15.0578 10.2359 15.2337 10.6605C15.4096 11.0851 15.5002 11.5402 15.5002 11.9998C15.5002 12.4594 15.4096 12.9145 15.2337 13.3391C15.0578 13.7637 14.7999 14.1495 14.4748 14.4744L14.4746 14.4746Z" fill="black"/>
</svg>
