<svg width="24" height="24" viewBox="0 0 24 24" fill="none" xmlns="http://www.w3.org/2000/svg">
<path d="M12 12C12.3368 12 12.6661 11.9001 12.9462 11.713C13.2263 11.5258 13.4446 11.2598 13.5735 10.9486C13.7024 10.6374 13.7361 10.295 13.6704 9.96464C13.6047 9.63427 13.4425 9.33081 13.2043 9.09263C12.9661 8.85444 12.6626 8.69224 12.3323 8.62652C12.0019 8.56081 11.6595 8.59454 11.3483 8.72344C11.0371 8.85234 10.7711 9.07063 10.5839 9.35071C10.3968 9.63078 10.2969 9.96006 10.2969 10.2969C10.2969 10.7486 10.4763 11.1818 10.7957 11.5012C11.1151 11.8206 11.5483 12 12 12ZM12 9.4937C12.1589 9.49368 12.3142 9.54077 12.4463 9.62901C12.5784 9.71726 12.6813 9.8427 12.7421 9.98946C12.8029 10.1362 12.8189 10.2977 12.7879 10.4535C12.7569 10.6093 12.6804 10.7525 12.5681 10.8648C12.4558 10.9772 12.3126 11.0537 12.1568 11.0847C12.001 11.1157 11.8395 11.0998 11.6928 11.039C11.546 10.9782 11.4205 10.8752 11.3323 10.7431C11.244 10.6111 11.1969 10.4558 11.1969 10.2969C11.1971 10.084 11.2818 9.8798 11.4324 9.72922C11.5829 9.57864 11.7871 9.49394 12 9.4937ZM8.5 14.6987V17H15.5V14.6987C14.5717 13.7705 13.3127 13.2491 12 13.2491C10.6873 13.2491 9.42829 13.7705 8.5 14.6987ZM14.6 16.1H9.4V15.0934C10.129 14.4833 11.0494 14.149 12 14.149C12.9506 14.149 13.871 14.4833 14.6 15.0934V16.1ZM14 3V2.5C14 1.96957 13.7893 1.46086 13.4142 1.08579C13.0391 0.710714 12.5304 0.5 12 0.5C11.4696 0.5 10.9609 0.710714 10.5858 1.08579C10.2107 1.46086 10 1.96957 10 2.5V3H4V22H20V3H14ZM11 2.5C11 2.23478 11.1054 1.98043 11.2929 1.79289C11.4804 1.60536 11.7348 1.5 12 1.5C12.2652 1.5 12.5196 1.60536 12.7071 1.79289C12.8946 1.98043 13 2.23478 13 2.5V3H11V2.5ZM16.5479 4L16.2106 5.2588C16.1534 5.47131 16.0278 5.65907 15.8532 5.79305C15.6786 5.92703 15.4648 5.99976 15.2447 6H8.7554C8.53532 5.99975 8.32145 5.92701 8.14684 5.79304C7.97224 5.65907 7.84662 5.47131 7.7894 5.2588L7.4521 4H16.5479ZM19 21H5V4H6.4169L6.8235 5.5176C6.93745 5.94288 7.18854 6.31868 7.53784 6.58671C7.88714 6.85473 8.31512 7.00001 8.7554 7H15.2447C15.685 6.99999 16.1129 6.8547 16.4622 6.58668C16.8115 6.31865 17.0626 5.94287 17.1765 5.5176L17.5832 4H19V21Z" fill="black"/>
</svg>
