<svg width="24" height="24" viewBox="0 0 24 24" fill="none" xmlns="http://www.w3.org/2000/svg">
<path d="M3 3V21H21V3H3ZM6 6H10V10H6V6ZM8 18.1C7.55499 18.1 7.11998 17.968 6.74997 17.7208C6.37996 17.4736 6.09157 17.1222 5.92127 16.711C5.75097 16.2999 5.70642 15.8475 5.79323 15.411C5.88005 14.9746 6.09434 14.5737 6.40901 14.259C6.72368 13.9443 7.12459 13.7301 7.56105 13.6432C7.9975 13.5564 8.4499 13.601 8.86104 13.7713C9.27217 13.9416 9.62357 14.23 9.87081 14.6C10.118 14.97 10.25 15.405 10.25 15.85C10.25 16.4467 10.0129 17.019 9.59099 17.441C9.16903 17.8629 8.59674 18.1 8 18.1ZM13.5105 10L16 5.6879L18.49 10H13.5105Z" fill="black"/>
</svg>
