<svg width="24" height="24" viewBox="0 0 24 24" fill="none" xmlns="http://www.w3.org/2000/svg">
<path d="M3 3V21H21V3H3ZM20.5 20.5H3.5V17.928L8.5035 13.488L10.4382 15.2118L10.7714 15.5086L11.1041 15.2113L15.6274 11.1684L20.5 15.46V20.5ZM20.5 14.7941L15.625 10.5L10.7709 14.8386L8.5042 12.8186L3.5 17.26V3.5H20.5V14.7941ZM8.5 10.5C8.89556 10.5 9.28224 10.3827 9.61114 10.1629C9.94004 9.94318 10.1964 9.63082 10.3478 9.26537C10.4991 8.89991 10.5387 8.49778 10.4616 8.10982C10.3844 7.72186 10.1939 7.36549 9.91421 7.08579C9.63451 6.80608 9.27814 6.6156 8.89018 6.53843C8.50222 6.46126 8.10009 6.50087 7.73463 6.65224C7.36918 6.80362 7.05682 7.05996 6.83706 7.38886C6.6173 7.71776 6.5 8.10444 6.5 8.5C6.5 9.03043 6.71071 9.53914 7.08579 9.91421C7.46086 10.2893 7.96957 10.5 8.5 10.5ZM8.5 7C8.79667 7 9.08668 7.08797 9.33335 7.2528C9.58003 7.41762 9.77229 7.65189 9.88582 7.92597C9.99935 8.20006 10.0291 8.50166 9.97118 8.79264C9.9133 9.08361 9.77044 9.35088 9.56066 9.56066C9.35088 9.77044 9.08361 9.9133 8.79264 9.97118C8.50166 10.0291 8.20006 9.99935 7.92597 9.88582C7.65189 9.77229 7.41762 9.58003 7.2528 9.33335C7.08797 9.08668 7 8.79667 7 8.5C7.00045 8.10231 7.15863 7.72104 7.43984 7.43984C7.72104 7.15863 8.10231 7.00045 8.5 7Z" fill="black"/>
</svg>
