<svg width="24" height="24" viewBox="0 0 24 24" fill="none" xmlns="http://www.w3.org/2000/svg">
<path d="M10.9584 5L8.9584 3H2V21H22V5H10.9584ZM20.5 19.5H3.5V4.5H8.337L10.337 6.5H20.5V19.5ZM14.7 11.95C14.8978 11.95 15.0911 11.8914 15.2556 11.7815C15.42 11.6716 15.5482 11.5154 15.6239 11.3327C15.6996 11.15 15.7194 10.9489 15.6808 10.7549C15.6422 10.5609 15.547 10.3827 15.4071 10.2429C15.2673 10.103 15.0891 10.0078 14.8951 9.96921C14.7011 9.93063 14.5 9.95043 14.3173 10.0261C14.1346 10.1018 13.9784 10.23 13.8685 10.3944C13.7586 10.5589 13.7 10.7522 13.7 10.95C13.7 11.2152 13.8054 11.4696 13.9929 11.6571C14.1804 11.8446 14.4348 11.95 14.7 11.95ZM16.5 14.1049C16.0226 13.6275 15.3751 13.3593 14.7 13.3593C14.0249 13.3593 13.3774 13.6275 12.9 14.1049V16H16.5V14.1049ZM9.3 11.95C9.49778 11.95 9.69112 11.8914 9.85557 11.7815C10.02 11.6716 10.1482 11.5154 10.2239 11.3327C10.2996 11.15 10.3194 10.9489 10.2808 10.7549C10.2422 10.5609 10.147 10.3827 10.0071 10.2429C9.86725 10.103 9.68907 10.0078 9.49509 9.96921C9.30111 9.93063 9.10004 9.95043 8.91732 10.0261C8.73459 10.1018 8.57841 10.23 8.46853 10.3944C8.35865 10.5589 8.3 10.7522 8.3 10.95C8.3 11.2152 8.40536 11.4696 8.59289 11.6571C8.78043 11.8446 9.03478 11.95 9.3 11.95ZM7.5 14.1049V16H11.1V14.1049C10.6226 13.6275 9.97513 13.3593 9.3 13.3593C8.62487 13.3593 7.97739 13.6275 7.5 14.1049Z" fill="black"/>
</svg>
