<svg width="24" height="24" viewBox="0 0 24 24" fill="none" xmlns="http://www.w3.org/2000/svg">
<path d="M16.4141 3H3V21H21V7.5859L16.4141 3ZM20.5 20.5H3.5V3.5H16.207L20.5 7.793V20.5ZM14.5808 8.9239C14.442 8.78516 14.2538 8.70722 14.0576 8.70722C13.8614 8.70722 13.6732 8.78516 13.5344 8.9239L9 13.4584V15H10.5416L15.076 10.4655C15.2147 10.3267 15.2926 10.1386 15.2926 9.9424C15.2926 9.74622 15.2147 9.55806 15.076 9.4193L14.5808 8.9239ZM10.3345 14.5H9.5V13.6655L12.885 10.2805L13.7195 11.115L10.3345 14.5ZM14.7225 10.112L14.073 10.7614L13.2385 9.9269L13.8879 9.2775C13.9329 9.23253 13.9939 9.20726 14.0576 9.20726C14.1212 9.20726 14.1822 9.23253 14.2272 9.2775L14.7225 9.7729C14.7674 9.8179 14.7927 9.8789 14.7927 9.9425C14.7927 10.0061 14.7674 10.0671 14.7225 10.1121V10.112Z" fill="black"/>
</svg>
