<svg width="24" height="24" viewBox="0 0 24 24" fill="none" xmlns="http://www.w3.org/2000/svg">
<g clip-path="url(#clip0)">
<path d="M21.7937 11.8647C22.1608 10.856 22.2148 9.75986 21.9485 8.71993C21.6823 7.68 21.1082 6.7447 20.3015 6.03649C19.4948 5.32828 18.493 4.88016 17.4274 4.7508C16.3617 4.62144 15.2818 4.81687 14.3291 5.3115C13.2722 4.32064 11.9299 3.68815 10.4929 3.50393C9.05589 3.31972 7.59739 3.59315 6.32472 4.28536C5.05204 4.97757 4.02994 6.05334 3.40371 7.35974C2.77747 8.66615 2.57897 10.1367 2.83643 11.5624C1.87865 11.9189 1.07673 12.6008 0.570965 13.4889C0.0652031 14.3769 -0.112187 15.4145 0.0698314 16.4202C0.25185 17.4258 0.781686 18.3354 1.56663 18.9898C2.35158 19.6443 3.34166 20.0018 4.36363 20H19.6364C20.5983 20.0031 21.5341 19.6873 22.2974 19.1019C23.0607 18.5166 23.6085 17.6948 23.8551 16.765C24.1016 15.8352 24.0331 14.85 23.6601 13.9633C23.2871 13.0767 22.6308 12.3387 21.7937 11.8647ZM16.0868 11.9655H11.7853L13.4175 10.3333C12.9934 9.98659 12.4573 9.80661 11.9099 9.82714C11.3624 9.84767 10.8413 10.0673 10.4443 10.4448C10.2401 10.649 10.078 10.8914 9.96747 11.1582C9.85692 11.425 9.80002 11.711 9.80002 11.9998C9.80002 12.2886 9.85692 12.5746 9.96747 12.8414C10.078 13.1082 10.2401 13.3506 10.4443 13.5548C10.8632 13.9553 11.4205 14.1788 12 14.1788C12.5796 14.1788 13.1368 13.9553 13.5557 13.5548L13.5576 13.5533C13.6686 13.4425 13.7672 13.3198 13.8516 13.1876L15.1992 14.0518C14.9112 14.5007 14.5318 14.8839 14.0859 15.1765C13.64 15.4691 13.1374 15.6645 12.611 15.7501C12.0846 15.8357 11.546 15.8095 11.0304 15.6732C10.5147 15.537 10.0335 15.2937 9.61809 14.9592C9.20265 14.6247 8.86228 14.2066 8.61912 13.7319C8.37595 13.2572 8.23543 12.7366 8.20671 12.204C8.17798 11.6715 8.26168 11.1388 8.45238 10.6407C8.64307 10.1426 8.93648 9.69023 9.31353 9.313C10.0153 8.6453 10.9412 8.26379 11.9097 8.24324C12.8781 8.22268 13.8193 8.56458 14.5488 9.2019L16.0868 7.6639V11.9655Z" fill="black"/>
</g>
<defs>
<clipPath id="clip0">
<rect width="24" height="24" fill="white"/>
</clipPath>
</defs>
</svg>
