<svg width="24" height="24" viewBox="0 0 24 24" fill="none" xmlns="http://www.w3.org/2000/svg">
<path d="M3 3V21H21V3H3ZM19.5 19.5H4.5V15.5H9.4026C9.66575 15.956 10.0443 16.3348 10.5003 16.5981C10.9562 16.8614 11.4735 17 12 17C12.5265 17 13.0438 16.8614 13.4997 16.5981C13.9557 16.3348 14.3342 15.956 14.5974 15.5H19.5V19.5ZM13.5 14C13.5 14.3978 13.342 14.7794 13.0607 15.0607C12.7794 15.342 12.3978 15.5 12 15.5C11.6022 15.5 11.2206 15.342 10.9393 15.0607C10.658 14.7794 10.5 14.3978 10.5 14H4.5V10.5H9.4026C9.66575 10.956 10.0443 11.3348 10.5003 11.5981C10.9562 11.8614 11.4735 12 12 12C12.5265 12 13.0438 11.8614 13.4997 11.5981C13.9557 11.3348 14.3342 10.956 14.5974 10.5H19.5V14H13.5ZM13.5 9C13.5 9.39782 13.342 9.77936 13.0607 10.0607C12.7794 10.342 12.3978 10.5 12 10.5C11.6022 10.5 11.2206 10.342 10.9393 10.0607C10.658 9.77936 10.5 9.39782 10.5 9H4.5V4.5H19.5V9H13.5Z" fill="black"/>
</svg>
