<svg width="24" height="24" viewBox="0 0 24 24" fill="none" xmlns="http://www.w3.org/2000/svg">
<path d="M19.5 4H4.5C3.83696 4 3.20107 4.26339 2.73223 4.73223C2.26339 5.20107 2 5.83696 2 6.5V17.5C2 18.163 2.26339 18.7989 2.73223 19.2678C3.20107 19.7366 3.83696 20 4.5 20H19.5C20.163 20 20.7989 19.7366 21.2678 19.2678C21.7366 18.7989 22 18.163 22 17.5V6.5C22 5.83696 21.7366 5.20107 21.2678 4.73223C20.7989 4.26339 20.163 4 19.5 4ZM7 11H3.5V8H7V11ZM8.9314 9.8139C8.9314 9.6359 8.98418 9.46189 9.08308 9.31389C9.18197 9.16588 9.32253 9.05053 9.48699 8.98241C9.65144 8.91429 9.8324 8.89647 10.007 8.93119C10.1816 8.96592 10.3419 9.05164 10.4678 9.1775C10.5937 9.30337 10.6794 9.46374 10.7141 9.63832C10.7488 9.8129 10.731 9.99386 10.6629 10.1583C10.5948 10.3228 10.4794 10.4633 10.3314 10.5622C10.1834 10.6611 10.0094 10.7139 9.8314 10.7139C9.59271 10.7139 9.36379 10.6191 9.195 10.4503C9.02622 10.2815 8.9314 10.0526 8.9314 9.8139ZM9.3225 15L13.03 9H14.6777L10.97 15H9.3225ZM14.1686 15.0861C13.9906 15.0861 13.8166 15.0333 13.6686 14.9344C13.5206 14.8355 13.4052 14.695 13.3371 14.5305C13.269 14.3661 13.2512 14.1851 13.2859 14.0105C13.3206 13.8359 13.4063 13.6756 13.5322 13.5497C13.6581 13.4238 13.8184 13.3381 13.993 13.3034C14.1676 13.2687 14.3486 13.2865 14.513 13.3546C14.6775 13.4227 14.818 13.5381 14.9169 13.6861C15.0158 13.8341 15.0686 14.0081 15.0686 14.1861C15.0686 14.4248 14.9738 14.6537 14.805 14.8225C14.6362 14.9913 14.4073 15.0861 14.1686 15.0861ZM20.5 11H17V8H20.5V11Z" fill="black"/>
</svg>
