<svg width="24" height="24" viewBox="0 0 24 24" fill="none" xmlns="http://www.w3.org/2000/svg">
<path d="M15.3083 8L13.7764 2.8613C13.7549 2.80101 13.7111 2.75127 13.654 2.72233C13.5969 2.69338 13.5309 2.68744 13.4695 2.70572C13.4082 2.724 13.3562 2.76511 13.3243 2.82059C13.2923 2.87606 13.2829 2.94167 13.2979 3.0039L14.7873 8H9.213L10.7021 3.0039C10.7171 2.94167 10.7077 2.87606 10.6757 2.82059C10.6438 2.76511 10.5918 2.724 10.5305 2.70572C10.4691 2.68744 10.4031 2.69338 10.346 2.72233C10.2889 2.75127 10.2451 2.80101 10.2236 2.8613L8.692 8H1V9.9L3.9385 21H20.0615L22.9658 10.1587L23 8H15.3083ZM22.4669 10.089L19.6779 20.5H4.3234L1.5 9.8348V8.5H22.492L22.4669 10.089ZM7.8116 12.2766C7.9006 12.2766 7.9876 12.2502 8.06161 12.2008C8.13561 12.1513 8.19329 12.081 8.22735 11.9988C8.2614 11.9166 8.27032 11.8261 8.25295 11.7388C8.23559 11.6515 8.19273 11.5713 8.1298 11.5084C8.06686 11.4455 7.98668 11.4026 7.89939 11.3852C7.8121 11.3679 7.72162 11.3768 7.63939 11.4109C7.55717 11.4449 7.48689 11.5026 7.43744 11.5766C7.38799 11.6506 7.3616 11.7376 7.3616 11.8266C7.3616 11.9459 7.40901 12.0604 7.4934 12.1448C7.57779 12.2292 7.69225 12.2766 7.8116 12.2766ZM16.1884 12.2766C16.2774 12.2766 16.3644 12.2502 16.4384 12.2008C16.5124 12.1513 16.5701 12.081 16.6041 11.9988C16.6382 11.9166 16.6471 11.8261 16.6298 11.7388C16.6124 11.6515 16.5695 11.5713 16.5066 11.5084C16.4437 11.4455 16.3635 11.4026 16.2762 11.3852C16.1889 11.3679 16.0984 11.3768 16.0162 11.4109C15.934 11.4449 15.8637 11.5026 15.8142 11.5766C15.7648 11.6506 15.7384 11.7376 15.7384 11.8266C15.7384 11.9459 15.7858 12.0604 15.8702 12.1448C15.9546 12.2292 16.0691 12.2766 16.1884 12.2766Z" fill="black"/>
</svg>
