<svg width="24" height="24" viewBox="0 0 24 24" fill="none" xmlns="http://www.w3.org/2000/svg">
<path d="M12 2C10.0222 2 8.08879 2.58649 6.4443 3.6853C4.79981 4.78412 3.51809 6.3459 2.76121 8.17317C2.00433 10.0004 1.8063 12.0111 2.19215 13.9509C2.578 15.8907 3.53041 17.6725 4.92894 19.0711C6.32746 20.4696 8.10929 21.422 10.0491 21.8079C11.9889 22.1937 13.9996 21.9957 15.8268 21.2388C17.6541 20.4819 19.2159 19.2002 20.3147 17.5557C21.4135 15.9112 22 13.9778 22 12C22 10.6868 21.7413 9.38642 21.2388 8.17317C20.7363 6.95991 19.9997 5.85752 19.0711 4.92893C18.1425 4.00035 17.0401 3.26375 15.8268 2.7612C14.6136 2.25866 13.3132 2 12 2ZM12 20C10.4178 20 8.87104 19.5308 7.55544 18.6518C6.23985 17.7727 5.21447 16.5233 4.60897 15.0615C4.00347 13.5997 3.84504 11.9911 4.15372 10.4393C4.4624 8.88743 5.22433 7.46197 6.34315 6.34315C7.46197 5.22433 8.88743 4.4624 10.4393 4.15372C11.9911 3.84504 13.5997 4.00346 15.0615 4.60896C16.5233 5.21447 17.7727 6.23984 18.6518 7.55544C19.5308 8.87103 20 10.4177 20 12C19.9976 14.121 19.154 16.1544 17.6542 17.6542C16.1544 19.154 14.121 19.9976 12 20ZM10.6594 9.908C10.6594 9.68379 10.5929 9.46463 10.4684 9.27821C10.3438 9.09179 10.1668 8.94649 9.95961 8.86069C9.75248 8.77489 9.52455 8.75244 9.30465 8.79618C9.08475 8.83992 8.88277 8.94789 8.72423 9.10642C8.56569 9.26496 8.45773 9.46695 8.41399 9.68685C8.37025 9.90674 8.39269 10.1347 8.47849 10.3418C8.56429 10.5489 8.70959 10.726 8.89601 10.8506C9.08243 10.9751 9.3016 11.0416 9.5258 11.0416C9.67467 11.0416 9.82209 11.0123 9.95963 10.9553C10.0972 10.8984 10.2221 10.8149 10.3274 10.7096C10.4327 10.6043 10.5162 10.4794 10.5731 10.3418C10.6301 10.2043 10.6594 10.0569 10.6594 9.908ZM14.4742 12.958C14.25 12.958 14.0308 13.0245 13.8444 13.149C13.6579 13.2736 13.5126 13.4506 13.4268 13.6577C13.341 13.8649 13.3185 14.0928 13.3623 14.3127C13.406 14.5326 13.514 14.7346 13.6725 14.8932C13.8311 15.0517 14.0331 15.1597 14.253 15.2034C14.4729 15.2472 14.7008 15.2247 14.908 15.1389C15.1151 15.0531 15.2921 14.9078 15.4167 14.7213C15.5413 14.5349 15.6077 14.3157 15.6077 14.0915C15.6076 13.7909 15.4881 13.5027 15.2756 13.2903C15.063 13.0778 14.7748 12.9584 14.4742 12.9584V12.958ZM12.7957 9L9.0884 15H11.2043L14.9116 9H12.7957Z" fill="black"/>
</svg>
