<svg width="24" height="24" viewBox="0 0 24 24" fill="none" xmlns="http://www.w3.org/2000/svg">
<path d="M18.5 9H15.0643C18.6354 7.7308 18.8243 5.77 18.7678 5.0624C18.6975 4.35206 18.3675 3.69266 17.841 3.21067C17.3145 2.72868 16.6286 2.45802 15.9148 2.4506L15.8762 2.45C14.7942 2.445 12.8689 3.1819 12 7.0028C11.1309 3.1849 9.2057 2.455 8.1238 2.45C8.1106 2.45 8.0979 2.4505 8.0852 2.4505C7.37079 2.45573 6.68368 2.72564 6.15671 3.20805C5.62975 3.69047 5.30035 4.35112 5.2322 5.0623C5.176 5.77 5.3646 7.7308 8.9357 9H5.5C4.83696 9 4.20107 9.26339 3.73223 9.73223C3.26339 10.2011 3 10.837 3 11.5V18.5C3 19.163 3.26339 19.7989 3.73223 20.2678C4.20107 20.7366 4.83696 21 5.5 21H18.5C19.163 21 19.7989 20.7366 20.2678 20.2678C20.7366 19.7989 21 19.163 21 18.5V11.5C21 10.837 20.7366 10.2011 20.2678 9.73223C19.7989 9.26339 19.163 9 18.5 9ZM15.884 3.45C15.8927 3.44972 15.9015 3.44988 15.9102 3.4505C16.3762 3.45542 16.824 3.6322 17.1677 3.94694C17.5113 4.26168 17.7267 4.69223 17.7725 5.156C17.8679 6.4449 16.4717 8.0374 12.574 8.7667C13.0476 4.8679 14.5793 3.4556 15.884 3.45ZM6.2275 5.1561C6.27328 4.69229 6.48869 4.26172 6.83242 3.94697C7.17614 3.63223 7.62397 3.45547 8.09 3.4506C8.09865 3.44996 8.10733 3.44976 8.116 3.45C9.4207 3.4555 10.9524 4.8678 11.426 8.7667C7.5283 8.0375 6.1321 6.445 6.2275 5.1561ZM20 15H4V12H20V15Z" fill="black"/>
</svg>
