<svg width="24" height="24" viewBox="0 0 24 24" fill="none" xmlns="http://www.w3.org/2000/svg">
<path d="M19 4H5C4.20435 4 3.44129 4.31607 2.87868 4.87868C2.31607 5.44129 2 6.20435 2 7V17C2 17.7956 2.31607 18.5587 2.87868 19.1213C3.44129 19.6839 4.20435 20 5 20H19C19.7956 20 20.5587 19.6839 21.1213 19.1213C21.6839 18.5587 22 17.7956 22 17V7C22 6.20435 21.6839 5.44129 21.1213 4.87868C20.5587 4.31607 19.7956 4 19 4ZM21 14H18C17.4696 14 16.9609 13.7893 16.5858 13.4142C16.2107 13.0391 16 12.5304 16 12C16 11.4696 16.2107 10.9609 16.5858 10.5858C16.9609 10.2107 17.4696 10 18 10H21V14ZM21 9H18C17.2044 9 16.4413 9.31607 15.8787 9.87868C15.3161 10.4413 15 11.2044 15 12C15 12.7956 15.3161 13.5587 15.8787 14.1213C16.4413 14.6839 17.2044 15 18 15H21V17C20.9994 17.5302 20.7885 18.0386 20.4135 18.4135C20.0386 18.7885 19.5302 18.9994 19 19H5C4.46975 18.9994 3.9614 18.7885 3.58646 18.4135C3.21152 18.0386 3.00061 17.5302 3 17V7C3.00061 6.46975 3.21152 5.9614 3.58646 5.58646C3.9614 5.21152 4.46975 5.00061 5 5H19C19.5302 5.00061 20.0386 5.21152 20.4135 5.58646C20.7885 5.9614 20.9994 6.46975 21 7V9ZM17.35 12C17.35 12.1286 17.3881 12.2542 17.4595 12.3611C17.531 12.468 17.6325 12.5513 17.7513 12.6005C17.87 12.6497 18.0007 12.6626 18.1268 12.6375C18.2529 12.6124 18.3687 12.5505 18.4596 12.4596C18.5505 12.3687 18.6124 12.2529 18.6375 12.1268C18.6626 12.0007 18.6497 11.87 18.6005 11.7513C18.5513 11.6325 18.468 11.531 18.3611 11.4595C18.2542 11.3881 18.1286 11.35 18 11.35C17.8276 11.35 17.6623 11.4185 17.5404 11.5404C17.4185 11.6623 17.35 11.8276 17.35 12Z" fill="black"/>
</svg>
