<svg width="24" height="24" viewBox="0 0 24 24" fill="none" xmlns="http://www.w3.org/2000/svg">
<path d="M12 0.924301L3 4.4873V12.06C3.00293 13.9903 3.51243 15.8861 4.47759 17.5578C5.44275 19.2295 6.82976 20.6186 8.5 21.5863L12 23.6064L15.5 21.5859C17.1702 20.6182 18.5572 19.2292 19.5223 17.5576C20.4875 15.8859 20.997 13.9903 21 12.06V4.4873L12 0.924301ZM20.5 12.06C20.4972 13.9026 20.0109 15.7122 19.0896 17.3079C18.1683 18.9036 16.8443 20.2296 15.25 21.1533L12 23.0291L8.75 21.1529C7.15574 20.2292 5.83181 18.9033 4.91052 17.3077C3.98924 15.712 3.50286 13.9025 3.5 12.06V4.8271L12 1.462L20.5 4.8271V12.06ZM10.5 7.5V9.5H8.5V12.5H10.5V14.5H13.5V12.5H15.5V9.5H13.5V7.5H10.5ZM15 10V12H13V14H11V12H9V10H11V8H13V10H15Z" fill="black"/>
</svg>
