<svg width="24" height="24" viewBox="0 0 24 24" fill="none" xmlns="http://www.w3.org/2000/svg">
<path d="M19 4H5C4.20435 4 3.44129 4.31607 2.87868 4.87868C2.31607 5.44129 2 6.20435 2 7V17C2 17.7956 2.31607 18.5587 2.87868 19.1213C3.44129 19.6839 4.20435 20 5 20H19C19.7956 20 20.5587 19.6839 21.1213 19.1213C21.6839 18.5587 22 17.7956 22 17V7C22 6.20435 21.6839 5.44129 21.1213 4.87868C20.5587 4.31607 19.7956 4 19 4ZM9 8.0077C9.29593 8.00768 9.58522 8.09542 9.83128 8.25981C10.0773 8.42421 10.2691 8.65788 10.3824 8.93128C10.4956 9.20468 10.5253 9.50553 10.4676 9.79577C10.4098 10.086 10.2673 10.3526 10.0581 10.5619C9.84882 10.7711 9.58221 10.9136 9.29197 10.9714C9.00173 11.0291 8.70088 10.9994 8.42748 10.8862C8.15408 10.7729 7.92041 10.5811 7.75601 10.3351C7.59162 10.089 7.50388 9.79973 7.5039 9.5038C7.5039 9.10701 7.66152 8.72647 7.9421 8.4459C8.22267 8.16532 8.60321 8.0077 9 8.0077ZM12 15H6V13.5938C6.79566 12.7982 7.87479 12.3512 9 12.3512C10.1252 12.3512 11.2043 12.7982 12 13.5938V15Z" fill="black"/>
</svg>
