<svg width="24" height="24" viewBox="0 0 24 24" fill="none" xmlns="http://www.w3.org/2000/svg">
<path d="M15.75 12C15.7507 12.6628 16.0144 13.2983 16.4831 13.7669C16.9517 14.2356 17.5872 14.4993 18.25 14.5H22V9.5H18.25C17.5872 9.50074 16.9517 9.76437 16.4831 10.2331C16.0144 10.7017 15.7507 11.3372 15.75 12ZM18.45 12C18.45 12.089 18.4236 12.176 18.3742 12.25C18.3247 12.324 18.2544 12.3817 18.1722 12.4157C18.09 12.4498 17.9995 12.4587 17.9122 12.4414C17.8249 12.424 17.7447 12.3811 17.6818 12.3182C17.6189 12.2553 17.576 12.1751 17.5586 12.0878C17.5413 12.0005 17.5502 11.91 17.5843 11.8278C17.6183 11.7456 17.676 11.6753 17.75 11.6258C17.824 11.5764 17.911 11.55 18 11.55C18.1193 11.55 18.2338 11.5974 18.3182 11.6818C18.4026 11.7662 18.45 11.8807 18.45 12ZM19 4H5C4.20435 4 3.44129 4.31607 2.87868 4.87868C2.31607 5.44129 2 6.20435 2 7V17C2 17.7956 2.31607 18.5587 2.87868 19.1213C3.44129 19.6839 4.20435 20 5 20H19C19.7956 20 20.5587 19.6839 21.1213 19.1213C21.6839 18.5587 22 17.7956 22 17V15H18.25C17.4544 15 16.6913 14.6839 16.1287 14.1213C15.5661 13.5587 15.25 12.7956 15.25 12C15.25 11.2044 15.5661 10.4413 16.1287 9.87868C16.6913 9.31607 17.4544 9 18.25 9H22V7C22 6.20435 21.6839 5.44129 21.1213 4.87868C20.5587 4.31607 19.7956 4 19 4Z" fill="black"/>
</svg>
