<svg width="24" height="24" viewBox="0 0 24 24" fill="none" xmlns="http://www.w3.org/2000/svg">
<path d="M19.5 4H4.5C3.83696 4 3.20107 4.26339 2.73223 4.73223C2.26339 5.20107 2 5.83696 2 6.5C2 7.16304 2.26339 7.79893 2.73223 8.26777C3.20107 8.73661 3.83696 9 4.5 9H5V18C5 18.7956 5.31607 19.5587 5.87868 20.1213C6.44129 20.6839 7.20435 21 8 21H16C16.7956 21 17.5587 20.6839 18.1213 20.1213C18.6839 19.5587 19 18.7956 19 18V9H19.5C20.163 9 20.7989 8.73661 21.2678 8.26777C21.7366 7.79893 22 7.16304 22 6.5C22 5.83696 21.7366 5.20107 21.2678 4.73223C20.7989 4.26339 20.163 4 19.5 4ZM4.5 7.2C4.31435 7.2 4.1363 7.12625 4.00503 6.99497C3.87375 6.8637 3.8 6.68565 3.8 6.5C3.8 6.31435 3.87375 6.1363 4.00503 6.00503C4.1363 5.87375 4.31435 5.8 4.5 5.8H5V7.2H4.5ZM8 19C7.73487 18.9997 7.48069 18.8943 7.29321 18.7068C7.10574 18.5193 7.00029 18.2651 7 18V6H10V19H8ZM17 18C16.9997 18.2651 16.8943 18.5193 16.7068 18.7068C16.5193 18.8943 16.2651 18.9997 16 19H12V6H17V18ZM19.5 7.2H19V5.8H19.5C19.6857 5.8 19.8637 5.87375 19.995 6.00503C20.1262 6.1363 20.2 6.31435 20.2 6.5C20.2 6.68565 20.1262 6.8637 19.995 6.99497C19.8637 7.12625 19.6857 7.2 19.5 7.2Z" fill="black"/>
</svg>
