<svg width="24" height="24" viewBox="0 0 24 24" fill="none" xmlns="http://www.w3.org/2000/svg">
<path d="M1 5V19H23V5H1ZM21 17H3V7H21V17ZM9.8574 12.9515H11.3034L10.7161 15.9349H12.1068L13.6668 12.9515H15.3689C15.4991 12.9528 15.6283 12.9283 15.749 12.8794C15.8697 12.8304 15.9795 12.7581 16.0721 12.6664C16.1646 12.5748 16.2381 12.4657 16.2883 12.3455C16.3384 12.2253 16.3642 12.0964 16.3642 11.9662C16.3642 11.8359 16.3384 11.707 16.2883 11.5868C16.2381 11.4666 16.1646 11.3575 16.0721 11.2659C15.9795 11.1742 15.8697 11.1019 15.749 11.0529C15.6283 11.004 15.4991 10.9795 15.3689 10.9808H13.6667L12.1067 7.9818H10.7161L11.3034 10.9808H9.8574L9.1914 9.9662H8.1914V13.9662H9.1914L9.8574 12.9515Z" fill="black"/>
</svg>
