<svg width="24" height="24" viewBox="0 0 24 24" fill="none" xmlns="http://www.w3.org/2000/svg">
<path d="M12 2.8038L3 8V21H21V8L12 2.8038ZM8.3923 10.908C8.3923 10.6838 8.45879 10.4646 8.58335 10.2782C8.70792 10.0918 8.88497 9.94648 9.09211 9.86068C9.29926 9.77489 9.52719 9.75244 9.74709 9.79619C9.96699 9.83994 10.169 9.94791 10.3275 10.1065C10.486 10.265 10.594 10.467 10.6377 10.6869C10.6815 10.9068 10.659 11.1347 10.5732 11.3419C10.4874 11.549 10.3421 11.7261 10.1556 11.8506C9.96919 11.9752 9.75001 12.0416 9.5258 12.0416C9.37694 12.0416 9.22953 12.0123 9.092 11.9553C8.95448 11.8983 8.82952 11.8148 8.72426 11.7096C8.619 11.6043 8.53551 11.4793 8.47855 11.3418C8.4216 11.2043 8.39229 11.0569 8.3923 10.908ZM9.0884 16L12.7957 10H14.9116L11.2043 16H9.0884ZM14.4742 16.2255C14.25 16.2255 14.0308 16.1591 13.8444 16.0345C13.6579 15.91 13.5126 15.7329 13.4268 15.5258C13.341 15.3186 13.3185 15.0907 13.3623 14.8708C13.406 14.6509 13.514 14.4489 13.6725 14.2904C13.831 14.1318 14.033 14.0238 14.2529 13.9801C14.4728 13.9363 14.7007 13.9588 14.9079 14.0446C15.115 14.1304 15.2921 14.2757 15.4166 14.4621C15.5412 14.6485 15.6077 14.8677 15.6077 15.0919C15.6077 15.3925 15.4883 15.6809 15.2757 15.8934C15.0631 16.106 14.7748 16.2255 14.4742 16.2255Z" fill="black"/>
</svg>
