<svg width="24" height="24" viewBox="0 0 24 24" fill="none" xmlns="http://www.w3.org/2000/svg">
<path d="M3 3V13H21V3H3ZM20.5 12.5H3.5V3.5H20.5V12.5ZM12 10.25C12.445 10.25 12.88 10.118 13.25 9.87081C13.62 9.62357 13.9084 9.27217 14.0787 8.86104C14.249 8.4499 14.2936 7.9975 14.2068 7.56105C14.12 7.12459 13.9057 6.72368 13.591 6.40901C13.2763 6.09434 12.8754 5.88005 12.439 5.79323C12.0025 5.70642 11.5501 5.75097 11.139 5.92127C10.7278 6.09157 10.3764 6.37996 10.1292 6.74997C9.88196 7.11998 9.75 7.55499 9.75 8C9.75 8.59674 9.98705 9.16903 10.409 9.59099C10.831 10.0129 11.4033 10.25 12 10.25ZM12 6.25C12.3461 6.25 12.6845 6.35264 12.9722 6.54493C13.26 6.73722 13.4843 7.01053 13.6168 7.3303C13.7492 7.65007 13.7839 8.00194 13.7164 8.34141C13.6489 8.68087 13.4822 8.9927 13.2374 9.23744C12.9927 9.48218 12.6809 9.64885 12.3414 9.71637C12.0019 9.7839 11.6501 9.74924 11.3303 9.61679C11.0105 9.48434 10.7372 9.26003 10.5449 8.97225C10.3526 8.68446 10.25 8.34612 10.25 8C10.2505 7.53603 10.435 7.0912 10.7631 6.76312C11.0912 6.43504 11.536 6.2505 12 6.25ZM3 17H21V16.5H3V17ZM3 21H21V20.5H3V21Z" fill="black"/>
</svg>
