<svg width="24" height="24" viewBox="0 0 24 24" fill="none" xmlns="http://www.w3.org/2000/svg">
<path d="M19 4H5C4.20435 4 3.44129 4.31607 2.87868 4.87868C2.31607 5.44129 2 6.20435 2 7V17C2 17.7956 2.31607 18.5587 2.87868 19.1213C3.44129 19.6839 4.20435 20 5 20H19C19.7956 20 20.5587 19.6839 21.1213 19.1213C21.6839 18.5587 22 17.7956 22 17V7C22 6.20435 21.6839 5.44129 21.1213 4.87868C20.5587 4.31607 19.7956 4 19 4ZM20.5 9H17V10.5H20.5V17C20.4995 17.3977 20.3414 17.779 20.0602 18.0602C19.779 18.3414 19.3977 18.4995 19 18.5H5C4.60231 18.4995 4.22104 18.3414 3.93984 18.0602C3.65863 17.779 3.50045 17.3977 3.5 17V10.5H7V9H3.5V7C3.50045 6.60231 3.65863 6.22104 3.93984 5.93984C4.22104 5.65863 4.60231 5.50045 5 5.5H19C19.3977 5.50045 19.779 5.65863 20.0602 5.93984C20.3414 6.22104 20.4995 6.60231 20.5 7V9ZM13.03 9L9.3225 15H10.97L14.6773 9H13.03ZM14.1688 13.2861C13.9908 13.2861 13.8168 13.3389 13.6688 13.4378C13.5208 13.5367 13.4054 13.6772 13.3373 13.8417C13.2692 14.0061 13.2514 14.1871 13.2861 14.3617C13.3208 14.5363 13.4065 14.6966 13.5324 14.8225C13.6583 14.9484 13.8186 15.0341 13.9932 15.0688C14.1678 15.1035 14.3488 15.0857 14.5132 15.0176C14.6777 14.9495 14.8182 14.8341 14.9171 14.6861C15.016 14.5381 15.0688 14.3641 15.0688 14.1861C15.0688 14.0679 15.0455 13.9508 15.0003 13.8416C14.955 13.7324 14.8887 13.6332 14.8051 13.5496C14.7215 13.4661 14.6223 13.3998 14.5131 13.3546C14.4039 13.3093 14.2868 13.2861 14.1686 13.2861H14.1688ZM10.7314 9.8139C10.7314 9.6359 10.6786 9.46189 10.5797 9.31389C10.4808 9.16588 10.3403 9.05053 10.1758 8.98241C10.0114 8.91429 9.8304 8.89647 9.65582 8.93119C9.48124 8.96592 9.32087 9.05164 9.195 9.1775C9.06914 9.30337 8.98342 9.46374 8.94869 9.63832C8.91397 9.8129 8.93179 9.99386 8.99991 10.1583C9.06803 10.3228 9.18338 10.4633 9.33139 10.5622C9.47939 10.6611 9.6534 10.7139 9.8314 10.7139C10.0701 10.7139 10.299 10.6191 10.4678 10.4503C10.6366 10.2815 10.7314 10.0526 10.7314 9.8139Z" fill="black"/>
</svg>
