<svg width="24" height="24" viewBox="0 0 24 24" fill="none" xmlns="http://www.w3.org/2000/svg">
<path d="M19 4H5C4.20435 4 3.44129 4.31607 2.87868 4.87868C2.31607 5.44129 2 6.20435 2 7V17C2 17.7956 2.31607 18.5587 2.87868 19.1213C3.44129 19.6839 4.20435 20 5 20H19C19.7956 20 20.5587 19.6839 21.1213 19.1213C21.6839 18.5587 22 17.7956 22 17V7C22 6.20435 21.6839 5.44129 21.1213 4.87868C20.5587 4.31607 19.7956 4 19 4ZM21.5 14.5H18C17.337 14.5 16.7011 14.2366 16.2322 13.7678C15.7634 13.2989 15.5 12.663 15.5 12C15.5 11.337 15.7634 10.7011 16.2322 10.2322C16.7011 9.76339 17.337 9.5 18 9.5H21.5V14.5ZM21.5 9H18C17.2044 9 16.4413 9.31607 15.8787 9.87868C15.3161 10.4413 15 11.2044 15 12C15 12.7956 15.3161 13.5587 15.8787 14.1213C16.4413 14.6839 17.2044 15 18 15H21.5V17C21.4993 17.6628 21.2356 18.2983 20.7669 18.7669C20.2983 19.2356 19.6628 19.4993 19 19.5H5C4.33719 19.4993 3.70173 19.2356 3.23305 18.7669C2.76437 18.2983 2.50074 17.6628 2.5 17V7C2.50074 6.33719 2.76437 5.70173 3.23305 5.23305C3.70173 4.76437 4.33719 4.50074 5 4.5H19C19.6628 4.50074 20.2983 4.76437 20.7669 5.23305C21.2356 5.70173 21.4993 6.33719 21.5 7V9ZM17.55 12C17.55 12.089 17.5764 12.176 17.6258 12.25C17.6753 12.324 17.7456 12.3817 17.8278 12.4157C17.91 12.4498 18.0005 12.4587 18.0878 12.4414C18.1751 12.424 18.2553 12.3811 18.3182 12.3182C18.3811 12.2553 18.424 12.1751 18.4414 12.0878C18.4587 12.0005 18.4498 11.91 18.4157 11.8278C18.3817 11.7456 18.324 11.6753 18.25 11.6258C18.176 11.5764 18.089 11.55 18 11.55C17.8807 11.55 17.7662 11.5974 17.6818 11.6818C17.5974 11.7662 17.55 11.8807 17.55 12Z" fill="black"/>
</svg>
