<svg width="24" height="24" viewBox="0 0 24 24" fill="none" xmlns="http://www.w3.org/2000/svg">
<path d="M1 5V19H23V5H1ZM22.5 18.5H1.5V5.5H22.5V18.5ZM9.8574 12.9515H11.3034L10.7161 15.9349H12.1068L13.6668 12.9515H15.5C15.6302 12.9528 15.7594 12.9283 15.8801 12.8794C16.0008 12.8304 16.1106 12.7581 16.2032 12.6664C16.2957 12.5748 16.3692 12.4657 16.4194 12.3455C16.4695 12.2253 16.4953 12.0964 16.4953 11.9662C16.4953 11.8359 16.4695 11.707 16.4194 11.5868C16.3692 11.4666 16.2957 11.3575 16.2032 11.2659C16.1106 11.1742 16.0008 11.1019 15.8801 11.0529C15.7594 11.004 15.6302 10.9795 15.5 10.9808H13.6667L12.1067 7.9818H10.7161L11.3034 10.9808H9.8574L9.1914 9.9662H8.1914V13.9662H9.1914L9.8574 12.9515ZM8.6914 13.4662V10.4662H8.9214L9.4393 11.2552L9.5874 11.4808H11.9107L11.794 10.8848L11.3234 8.4818H11.8034L13.2234 11.2118L13.3634 11.4811H15.5C15.5643 11.4802 15.6282 11.492 15.6879 11.516C15.7476 11.54 15.8019 11.5756 15.8477 11.6208C15.8935 11.6659 15.9299 11.7197 15.9547 11.7791C15.9796 11.8384 15.9924 11.9021 15.9924 11.9664C15.9924 12.0308 15.9796 12.0945 15.9547 12.1538C15.9299 12.2132 15.8935 12.267 15.8477 12.3121C15.8019 12.3573 15.7476 12.3929 15.6879 12.4169C15.6282 12.4409 15.5643 12.4527 15.5 12.4518H13.3639L13.2239 12.7201L11.8039 15.4352H11.3239L11.7939 13.0484L11.9113 12.4518H9.5875L9.4394 12.6775L8.9215 13.4665L8.6914 13.4662Z" fill="black"/>
</svg>
