<svg width="24" height="24" viewBox="0 0 24 24" fill="none" xmlns="http://www.w3.org/2000/svg">
<path d="M15.75 12C15.7507 12.5965 15.9879 13.1684 16.4097 13.5903C16.8316 14.0121 17.4035 14.2493 18 14.25H22V9.75H18C17.4035 9.75066 16.8316 9.98793 16.4097 10.4097C15.9879 10.8316 15.7507 11.4035 15.75 12ZM19 12C19 12.1978 18.9414 12.3911 18.8315 12.5556C18.7216 12.72 18.5654 12.8482 18.3827 12.9239C18.2 12.9996 17.9989 13.0194 17.8049 12.9808C17.6109 12.9422 17.4327 12.847 17.2929 12.7071C17.153 12.5673 17.0578 12.3891 17.0192 12.1951C16.9806 12.0011 17.0004 11.8 17.0761 11.6173C17.1518 11.4346 17.28 11.2784 17.4444 11.1685C17.6089 11.0586 17.8022 11 18 11C18.2652 11 18.5196 11.1054 18.7071 11.2929C18.8946 11.4804 19 11.7348 19 12ZM19 4H5C4.20435 4 3.44129 4.31607 2.87868 4.87868C2.31607 5.44129 2 6.20435 2 7V17C2 17.7956 2.31607 18.5587 2.87868 19.1213C3.44129 19.6839 4.20435 20 5 20H19C19.7956 20 20.5587 19.6839 21.1213 19.1213C21.6839 18.5587 22 17.7956 22 17V16H18C16.9391 16 15.9217 15.5786 15.1716 14.8284C14.4214 14.0783 14 13.0609 14 12C14 10.9391 14.4214 9.92172 15.1716 9.17157C15.9217 8.42143 16.9391 8 18 8H22V7C22 6.20435 21.6839 5.44129 21.1213 4.87868C20.5587 4.31607 19.7956 4 19 4Z" fill="black"/>
</svg>
