<svg width="24" height="24" viewBox="0 0 24 24" fill="none" xmlns="http://www.w3.org/2000/svg">
<path d="M14.0071 13.5728C13.9178 13.5728 13.8305 13.5992 13.7563 13.6488C13.682 13.6984 13.6242 13.7689 13.59 13.8514C13.5558 13.9339 13.5469 14.0247 13.5643 14.1122C13.5817 14.1998 13.6247 14.2803 13.6878 14.3434C13.7509 14.4065 13.8314 14.4495 13.919 14.4669C14.0065 14.4843 14.0973 14.4754 14.1798 14.4412C14.2623 14.407 14.3328 14.3492 14.3824 14.2749C14.432 14.2007 14.4584 14.1134 14.4584 14.0241C14.4582 13.9045 14.4106 13.7898 14.326 13.7052C14.2414 13.6206 14.1267 13.573 14.0071 13.5728ZM1 5V19H23V5H1ZM8.7916 9.9758C8.7916 9.73818 8.86206 9.5059 8.99408 9.30833C9.1261 9.11076 9.31373 8.95677 9.53327 8.86584C9.7528 8.77491 9.99437 8.75113 10.2274 8.79749C10.4605 8.84386 10.6745 8.95829 10.8426 9.12632C11.0106 9.29435 11.125 9.50842 11.1713 9.74148C11.2177 9.97454 11.1939 10.2161 11.1029 10.4356C11.012 10.6552 10.858 10.8428 10.6604 10.9748C10.4628 11.1068 10.2305 11.1772 9.9929 11.1772C9.67429 11.1772 9.36873 11.0506 9.14345 10.8253C8.91816 10.6 8.7916 10.2944 8.7916 9.9758ZM9.5524 15L13.26 9H14.4479L10.74 15H9.5524ZM14.0071 15.2255C13.7695 15.2255 13.5372 15.1551 13.3396 15.0231C13.142 14.8911 12.988 14.7035 12.8971 14.4839C12.8061 14.2644 12.7823 14.0228 12.8287 13.7898C12.875 13.5567 12.9894 13.3426 13.1574 13.1746C13.3255 13.0066 13.5395 12.8922 13.7726 12.8458C14.0056 12.7994 14.2472 12.8232 14.4667 12.9141C14.6863 13.0051 14.8739 13.1591 15.0059 13.3566C15.1379 13.5542 15.2084 13.7865 15.2084 14.0241C15.2084 14.3427 15.0818 14.6483 14.8566 14.8736C14.6313 15.0989 14.3257 15.2255 14.0071 15.2255ZM10.4443 9.9755C10.4443 9.88622 10.4178 9.79895 10.3682 9.72472C10.3186 9.65048 10.2481 9.59263 10.1656 9.55846C10.0832 9.5243 9.9924 9.51536 9.90484 9.53277C9.81727 9.55019 9.73684 9.59318 9.67371 9.65631C9.61058 9.71944 9.56759 9.79987 9.55017 9.88744C9.53276 9.975 9.5417 10.0658 9.57586 10.1482C9.61003 10.2307 9.66788 10.3012 9.74212 10.3508C9.81635 10.4004 9.90362 10.4269 9.9929 10.4269C10.1125 10.4268 10.2272 10.3792 10.3118 10.2946C10.3965 10.2101 10.4441 10.0954 10.4443 9.9758V9.9755Z" fill="black"/>
</svg>
