<svg width="24" height="24" viewBox="0 0 24 24" fill="none" xmlns="http://www.w3.org/2000/svg">
<path d="M18.5 9.00001H15.0643C18.6354 7.73081 18.8243 5.77001 18.7678 5.06241C18.6975 4.35207 18.3675 3.69267 17.841 3.21068C17.3145 2.72869 16.6286 2.45803 15.9148 2.45061L15.8762 2.45001C14.7942 2.44501 12.8689 3.18191 12 7.00281C11.1309 3.18491 9.2057 2.45501 8.1238 2.45001C8.1106 2.45001 8.0979 2.45051 8.0852 2.45051C7.37079 2.45574 6.68368 2.72565 6.15671 3.20806C5.62975 3.69048 5.30035 4.35113 5.2322 5.06231C5.176 5.77001 5.3646 7.73081 8.9357 9.00001H5.5C4.83696 9.00001 4.20107 9.2634 3.73223 9.73224C3.26339 10.2011 3 10.837 3 11.5V18.5C3 19.163 3.26339 19.7989 3.73223 20.2678C4.20107 20.7366 4.83696 21 5.5 21H18.5C19.163 21 19.7989 20.7366 20.2678 20.2678C20.7366 19.7989 21 19.163 21 18.5V11.5C21 10.837 20.7366 10.2011 20.2678 9.73224C19.7989 9.2634 19.163 9.00001 18.5 9.00001ZM15.884 3.45001C15.8927 3.44972 15.9015 3.44989 15.9102 3.45051C16.3762 3.45542 16.824 3.63221 17.1677 3.94695C17.5113 4.26169 17.7267 4.69224 17.7725 5.15601C17.8679 6.44491 16.4717 8.03741 12.574 8.76671C13.0476 4.86791 14.5793 3.45561 15.884 3.45001ZM6.2275 5.15611C6.27328 4.6923 6.48869 4.26173 6.83242 3.94698C7.17614 3.63223 7.62397 3.45547 8.09 3.45061C8.09865 3.44996 8.10733 3.44976 8.116 3.45001C9.4207 3.45551 10.9524 4.86781 11.426 8.76671C7.5283 8.03751 6.1321 6.44501 6.2275 5.15611ZM20 18.5C19.9995 18.8977 19.8414 19.279 19.5602 19.5602C19.279 19.8414 18.8977 19.9996 18.5 20H5.5C5.10231 19.9996 4.72104 19.8414 4.43984 19.5602C4.15863 19.279 4.00045 18.8977 4 18.5V16H20V18.5ZM20 15H4V13H20V15ZM4 12V11.5C4.00045 11.1023 4.15863 10.7211 4.43984 10.4398C4.72104 10.1586 5.10231 10.0005 5.5 10H18.5C18.8977 10.0005 19.279 10.1586 19.5602 10.4398C19.8414 10.7211 19.9995 11.1023 20 11.5V12H4Z" fill="black"/>
</svg>
