<svg width="24" height="24" viewBox="0 0 24 24" fill="none" xmlns="http://www.w3.org/2000/svg">
<path d="M9.7275 11.5H8.2646C8.06569 11.5 7.87492 11.421 7.73427 11.2803C7.59362 11.1397 7.5146 10.9489 7.5146 10.75C7.5146 10.5511 7.59362 10.3603 7.73427 10.2197C7.87492 10.079 8.06569 10 8.2646 10H10.9846V9H9.45V7.95H8.55V9H8.2646C7.80047 9 7.35535 9.18437 7.02716 9.51256C6.69897 9.84075 6.5146 10.2859 6.5146 10.75C6.5146 11.2141 6.69897 11.6592 7.02716 11.9874C7.35535 12.3156 7.80047 12.5 8.2646 12.5H9.7275C9.92641 12.5 10.1172 12.579 10.2578 12.7197C10.3985 12.8603 10.4775 13.0511 10.4775 13.25C10.4775 13.4489 10.3985 13.6397 10.2578 13.7803C10.1172 13.921 9.92641 14 9.7275 14H6.75V15H8.55V16.05H9.45V15H9.7273C10.1914 15 10.6365 14.8156 10.9647 14.4874C11.2929 14.1592 11.4773 13.7141 11.4773 13.25C11.4773 12.7859 11.2929 12.3408 10.9647 12.0126C10.6365 11.6844 10.1914 11.5 9.7273 11.5H9.7275ZM19.5 4H4.5C3.83696 4 3.20107 4.26339 2.73223 4.73223C2.26339 5.20107 2 5.83696 2 6.5V17.5C2 18.163 2.26339 18.7989 2.73223 19.2678C3.20107 19.7366 3.83696 20 4.5 20H19.5C20.163 20 20.7989 19.7366 21.2678 19.2678C21.7366 18.7989 22 18.163 22 17.5V6.5C22 5.83696 21.7366 5.20107 21.2678 4.73223C20.7989 4.26339 20.163 4 19.5 4ZM21 17.5C20.9995 17.8977 20.8414 18.279 20.5602 18.5602C20.279 18.8414 19.8977 18.9995 19.5 19H4.5C4.10231 18.9995 3.72104 18.8414 3.43984 18.5602C3.15863 18.279 3.00045 17.8977 3 17.5V6.5C3.00045 6.10231 3.15863 5.72104 3.43984 5.43984C3.72104 5.15863 4.10231 5.00045 4.5 5H19.5C19.8977 5.00045 20.279 5.15863 20.5602 5.43984C20.8414 5.72104 20.9995 6.10231 21 6.5V17.5Z" fill="black"/>
</svg>
