<svg width="24" height="24" viewBox="0 0 24 24" fill="none" xmlns="http://www.w3.org/2000/svg">
<path d="M12 2.8038L3 8V21H21V8L12 2.8038ZM19.5 19.5H4.5V8.866L12 4.536L19.5 8.866V19.5ZM10.97 16L14.6773 10H13.03L9.3225 16H10.97ZM13.2684 15.186C13.2684 15.364 13.3212 15.538 13.4201 15.686C13.519 15.834 13.6595 15.9494 13.824 16.0175C13.9884 16.0856 14.1694 16.1034 14.344 16.0687C14.5186 16.034 14.6789 15.9483 14.8048 15.8224C14.9307 15.6965 15.0164 15.5362 15.0511 15.3616C15.0858 15.187 15.068 15.006 14.9999 14.8416C14.9318 14.6771 14.8164 14.5366 14.6684 14.4377C14.5204 14.3388 14.3464 14.286 14.1684 14.286C13.9297 14.2861 13.7009 14.3809 13.5321 14.5497C13.3634 14.7185 13.2686 14.9473 13.2686 15.186H13.2684ZM10.7312 10.8139C10.7312 10.6359 10.6784 10.4619 10.5795 10.3139C10.4806 10.1659 10.3401 10.0505 10.1756 9.98241C10.0112 9.91429 9.8302 9.89647 9.65562 9.9312C9.48104 9.96592 9.32067 10.0516 9.1948 10.1775C9.06894 10.3034 8.98322 10.4637 8.94849 10.6383C8.91377 10.8129 8.93159 10.9939 8.99971 11.1583C9.06783 11.3228 9.18318 11.4633 9.33119 11.5622C9.47919 11.6611 9.6532 11.7139 9.8312 11.7139C9.94941 11.7139 10.0665 11.6907 10.1757 11.6455C10.2849 11.6002 10.3841 11.5339 10.4677 11.4504C10.5513 11.3668 10.6176 11.2676 10.6629 11.1584C10.7081 11.0492 10.7314 10.9321 10.7314 10.8139H10.7312Z" fill="black"/>
</svg>
