<svg width="24" height="24" viewBox="0 0 24 24" fill="none" xmlns="http://www.w3.org/2000/svg">
<path d="M19 4H5C4.20435 4 3.44129 4.31607 2.87868 4.87868C2.31607 5.44129 2 6.20435 2 7V17C2 17.7956 2.31607 18.5587 2.87868 19.1213C3.44129 19.6839 4.20435 20 5 20H19C19.7956 20 20.5587 19.6839 21.1213 19.1213C21.6839 18.5587 22 17.7956 22 17V7C22 6.20435 21.6839 5.44129 21.1213 4.87868C20.5587 4.31607 19.7956 4 19 4ZM12.5781 12.7631H10.4686L8.9086 15.7465H7.7754L8.3625 12.7631H6.57L5.96 13.7778H5.191V10.1962H5.96L6.57 11.2109H8.3625L7.7754 8.2119H8.9087L10.4687 11.2109H12.5782C12.784 11.2109 12.9814 11.2927 13.127 11.4382C13.2725 11.5838 13.3543 11.7812 13.3543 11.987C13.3543 12.1928 13.2725 12.3902 13.127 12.5358C12.9814 12.6813 12.784 12.7631 12.5782 12.7631H12.5781Z" fill="black"/>
</svg>
