<svg width="24" height="24" viewBox="0 0 24 24" fill="none" xmlns="http://www.w3.org/2000/svg">
<path d="M12 2L8.7841 5.2159H15.2159L12 2ZM20.5 8H3.5C2.96957 8 2.46086 8.21071 2.08579 8.58579C1.71071 8.96086 1.5 9.46957 1.5 10C1.5 10.5304 1.71071 11.0391 2.08579 11.4142C2.46086 11.7893 2.96957 12 3.5 12H4V9.5H5V22H19V9.5H20V12H20.5C21.0304 12 21.5391 11.7893 21.9142 11.4142C22.2893 11.0391 22.5 10.5304 22.5 10C22.5 9.46957 22.2893 8.96086 21.9142 8.58579C21.5391 8.21071 21.0304 8 20.5 8ZM12 16C11.4067 16 10.8266 15.8241 10.3333 15.4944C9.83994 15.1648 9.45542 14.6962 9.22836 14.1481C9.0013 13.5999 8.94189 12.9967 9.05764 12.4147C9.1734 11.8328 9.45912 11.2982 9.87868 10.8787C10.2982 10.4591 10.8328 10.1734 11.4147 10.0576C11.9967 9.94189 12.5999 10.0013 13.1481 10.2284C13.6962 10.4554 14.1648 10.8399 14.4944 11.3333C14.8241 11.8266 15 12.4067 15 13C15 13.7956 14.6839 14.5587 14.1213 15.1213C13.5587 15.6839 12.7956 16 12 16Z" fill="black"/>
</svg>
