<svg width="24" height="24" viewBox="0 0 24 24" fill="none" xmlns="http://www.w3.org/2000/svg">
<path d="M1 5V19H23V5H1ZM21.5 17.5H2.5V6.5H21.5V17.5ZM12 15C12.5933 15 13.1734 14.8241 13.6667 14.4944C14.1601 14.1648 14.5446 13.6962 14.7716 13.1481C14.9987 12.5999 15.0581 11.9967 14.9424 11.4147C14.8266 10.8328 14.5409 10.2982 14.1213 9.87868C13.7018 9.45912 13.1672 9.1734 12.5853 9.05764C12.0033 8.94189 11.4001 9.0013 10.8519 9.22836C10.3038 9.45542 9.83524 9.83994 9.50559 10.3333C9.17595 10.8266 9 11.4067 9 12C9 12.7956 9.31607 13.5587 9.87868 14.1213C10.4413 14.6839 11.2044 15 12 15ZM12 10.4C12.3165 10.4 12.6258 10.4938 12.8889 10.6696C13.152 10.8455 13.3571 11.0953 13.4782 11.3877C13.5993 11.6801 13.631 12.0018 13.5693 12.3121C13.5075 12.6225 13.3551 12.9076 13.1314 13.1314C12.9076 13.3551 12.6225 13.5075 12.3121 13.5693C12.0018 13.631 11.6801 13.5993 11.3877 13.4782C11.0953 13.3571 10.8455 13.152 10.6696 12.8889C10.4938 12.6258 10.4 12.3165 10.4 12C10.4004 11.5758 10.5692 11.1691 10.8691 10.8691C11.1691 10.5692 11.5758 10.4004 12 10.4Z" fill="black"/>
</svg>
