<svg width="24" height="24" viewBox="0 0 24 24" fill="none" xmlns="http://www.w3.org/2000/svg">
<path d="M12 2C10.0222 2 8.08879 2.58649 6.4443 3.6853C4.79981 4.78412 3.51809 6.3459 2.76121 8.17317C2.00433 10.0004 1.8063 12.0111 2.19215 13.9509C2.578 15.8907 3.53041 17.6725 4.92894 19.0711C6.32746 20.4696 8.10929 21.422 10.0491 21.8079C11.9889 22.1937 13.9996 21.9957 15.8268 21.2388C17.6541 20.4819 19.2159 19.2002 20.3147 17.5557C21.4135 15.9112 22 13.9778 22 12C22 10.6868 21.7413 9.38642 21.2388 8.17317C20.7363 6.95991 19.9997 5.85752 19.0711 4.92893C18.1425 4.00035 17.0401 3.26375 15.8268 2.7612C14.6136 2.25866 13.3132 2 12 2ZM12 21.5C10.1211 21.5 8.28435 20.9428 6.72209 19.899C5.15982 18.8551 3.94218 17.3714 3.22315 15.6355C2.50412 13.8996 2.31598 11.9895 2.68254 10.1466C3.0491 8.30382 3.95389 6.61108 5.28249 5.28249C6.61109 3.95389 8.30383 3.0491 10.1466 2.68254C11.9895 2.31598 13.8996 2.50411 15.6355 3.22314C17.3714 3.94218 18.8551 5.15982 19.899 6.72208C20.9428 8.28435 21.5 10.1211 21.5 12C21.4971 14.5187 20.4953 16.9334 18.7144 18.7144C16.9334 20.4953 14.5187 21.4971 12 21.5ZM13.5452 9L9.8379 15H10.4548L14.1621 9H13.5452ZM13.9498 12.837C13.7256 12.837 13.5064 12.9035 13.32 13.028C13.1336 13.1526 12.9883 13.3297 12.9025 13.5368C12.8167 13.7439 12.7942 13.9719 12.838 14.1918C12.8817 14.4117 12.9897 14.6136 13.1482 14.7722C13.3068 14.9307 13.5088 15.0387 13.7287 15.0824C13.9485 15.1262 14.1765 15.1037 14.3836 15.0179C14.5908 14.9321 14.7678 14.7868 14.8924 14.6004C15.0169 14.414 15.0834 14.1948 15.0834 13.9706C15.0834 13.67 14.964 13.3817 14.7515 13.1691C14.5389 12.9565 14.2506 12.8371 13.95 12.837H13.9498ZM13.9498 14.6041C13.8245 14.6041 13.702 14.5669 13.5978 14.4973C13.4936 14.4277 13.4124 14.3287 13.3644 14.2129C13.3165 14.0972 13.3039 13.9698 13.3284 13.8469C13.3528 13.7239 13.4132 13.611 13.5018 13.5224C13.5904 13.4338 13.7033 13.3735 13.8263 13.3491C13.9492 13.3246 14.0766 13.3372 14.1923 13.3852C14.3081 13.4331 14.4071 13.5144 14.4767 13.6186C14.5463 13.7228 14.5834 13.8453 14.5834 13.9706C14.5832 14.1385 14.5164 14.2996 14.3977 14.4183C14.2789 14.5371 14.1179 14.6039 13.95 14.6041H13.9498ZM11.1837 10.0294C11.1837 9.80519 11.1173 9.58602 10.9927 9.39959C10.8682 9.21316 10.6911 9.06785 10.484 8.98203C10.2769 8.89621 10.0489 8.87374 9.82905 8.91746C9.60915 8.96118 9.40715 9.06913 9.2486 9.22765C9.09005 9.38618 8.98207 9.58815 8.93831 9.80805C8.89455 10.0279 8.91698 10.2559 9.00276 10.463C9.08854 10.6702 9.23382 10.8472 9.42023 10.9718C9.60664 11.0964 9.8258 11.1629 10.05 11.1629C10.1989 11.1629 10.3463 11.1336 10.4838 11.0766C10.6214 11.0197 10.7463 10.9362 10.8516 10.8309C10.9569 10.7257 11.0404 10.6007 11.0974 10.4632C11.1544 10.3257 11.1837 10.1783 11.1837 10.0294ZM9.4166 10.0294C9.41658 9.90408 9.45373 9.78157 9.52334 9.67736C9.59295 9.57316 9.69189 9.49193 9.80767 9.44396C9.92344 9.39599 10.0508 9.38343 10.1738 9.40786C10.2967 9.4323 10.4096 9.49264 10.4982 9.58124C10.5868 9.66985 10.6472 9.78274 10.6716 9.90565C10.6961 10.0286 10.6835 10.156 10.6356 10.2717C10.5876 10.3875 10.5064 10.4865 10.4022 10.5561C10.298 10.6257 10.1755 10.6629 10.0502 10.6629C9.88224 10.6627 9.7212 10.5959 9.60242 10.4772C9.48364 10.3584 9.41682 10.1974 9.4166 10.0294Z" fill="black"/>
</svg>
