<svg width="24" height="24" viewBox="0 0 24 24" fill="none" xmlns="http://www.w3.org/2000/svg">
<path d="M10.4443 9.9758C10.4443 9.88652 10.4178 9.79925 10.3682 9.72502C10.3186 9.65078 10.2481 9.59293 10.1656 9.55876C10.0832 9.5246 9.9924 9.51566 9.90484 9.53307C9.81728 9.55049 9.73685 9.59348 9.67372 9.65661C9.61059 9.71974 9.5676 9.80017 9.55018 9.88774C9.53276 9.9753 9.5417 10.0661 9.57587 10.1485C9.61003 10.231 9.66789 10.3015 9.74212 10.3511C9.81635 10.4007 9.90363 10.4272 9.9929 10.4272C10.1126 10.4271 10.2273 10.3795 10.3119 10.2948C10.3966 10.2102 10.4442 10.0955 10.4443 9.9758ZM14.0071 13.5728C13.9178 13.5728 13.8305 13.5992 13.7563 13.6488C13.682 13.6984 13.6242 13.7689 13.59 13.8514C13.5558 13.9339 13.5469 14.0247 13.5643 14.1122C13.5817 14.1998 13.6247 14.2803 13.6878 14.3434C13.751 14.4065 13.8314 14.4495 13.919 14.4669C14.0065 14.4843 14.0973 14.4754 14.1798 14.4412C14.2623 14.407 14.3328 14.3492 14.3824 14.2749C14.432 14.2007 14.4584 14.1134 14.4584 14.0241C14.4582 13.9045 14.4106 13.7898 14.326 13.7052C14.2414 13.6206 14.1267 13.573 14.0071 13.5728ZM12 2C10.0222 2 8.08879 2.58649 6.4443 3.6853C4.79981 4.78412 3.51809 6.3459 2.76121 8.17317C2.00433 10.0004 1.8063 12.0111 2.19215 13.9509C2.578 15.8907 3.53041 17.6725 4.92894 19.0711C6.32746 20.4696 8.10929 21.422 10.0491 21.8079C11.9889 22.1937 13.9996 21.9957 15.8268 21.2388C17.6541 20.4819 19.2159 19.2002 20.3147 17.5557C21.4135 15.9112 22 13.9778 22 12C22 10.6868 21.7413 9.38642 21.2388 8.17317C20.7363 6.95991 19.9997 5.85752 19.0711 4.92893C18.1425 4.00035 17.0401 3.26375 15.8268 2.7612C14.6136 2.25866 13.3132 2 12 2ZM8.7916 9.9758C8.7916 9.73818 8.86207 9.5059 8.99408 9.30833C9.1261 9.11076 9.31374 8.95677 9.53327 8.86584C9.7528 8.77491 9.99437 8.75113 10.2274 8.79749C10.4605 8.84386 10.6745 8.95829 10.8426 9.12632C11.0106 9.29435 11.125 9.50842 11.1713 9.74148C11.2177 9.97454 11.1939 10.2161 11.1029 10.4356C11.012 10.6552 10.858 10.8428 10.6604 10.9748C10.4628 11.1068 10.2305 11.1772 9.9929 11.1772C9.67429 11.1772 9.36874 11.0506 9.14345 10.8253C8.91817 10.6 8.7916 10.2944 8.7916 9.9758ZM10.74 15H9.5524L13.26 9H14.4479L10.74 15ZM14.0068 15.2255C13.7692 15.2255 13.5369 15.1551 13.3393 15.0231C13.1417 14.8911 12.9877 14.7035 12.8968 14.4839C12.8058 14.2644 12.782 14.0228 12.8284 13.7898C12.8747 13.5567 12.9891 13.3426 13.1572 13.1746C13.3252 13.0066 13.5392 12.8922 13.7723 12.8458C14.0053 12.7994 14.2469 12.8232 14.4664 12.9141C14.686 13.0051 14.8736 13.1591 15.0056 13.3566C15.1376 13.5542 15.2081 13.7865 15.2081 14.0241C15.2081 14.3427 15.0816 14.6482 14.8564 14.8735C14.6311 15.0988 14.3257 15.2254 14.0071 15.2255H14.0068Z" fill="black"/>
</svg>
