<svg width="24" height="24" viewBox="0 0 24 24" fill="none" xmlns="http://www.w3.org/2000/svg">
<path d="M19.5 4H4.5C3.83696 4 3.20107 4.26339 2.73223 4.73223C2.26339 5.20107 2 5.83696 2 6.5C2 7.16304 2.26339 7.79893 2.73223 8.26777C3.20107 8.73661 3.83696 9 4.5 9H5V21H19V9H19.5C20.163 9 20.7989 8.73661 21.2678 8.26777C21.7366 7.79893 22 7.16304 22 6.5C22 5.83696 21.7366 5.20107 21.2678 4.73223C20.7989 4.26339 20.163 4 19.5 4ZM5 7.2H4.5C4.31435 7.2 4.1363 7.12625 4.00503 6.99497C3.87375 6.8637 3.8 6.68565 3.8 6.5C3.8 6.31435 3.87375 6.1363 4.00503 6.00503C4.1363 5.87375 4.31435 5.8 4.5 5.8H5V7.2ZM17 19H7V6H17V19ZM19.5 7.2H19V5.8H19.5C19.6857 5.8 19.8637 5.87375 19.995 6.00503C20.1262 6.1363 20.2 6.31435 20.2 6.5C20.2 6.68565 20.1262 6.8637 19.995 6.99497C19.8637 7.12625 19.6857 7.2 19.5 7.2ZM12 14C12.5933 14 13.1734 13.8241 13.6667 13.4944C14.1601 13.1648 14.5446 12.6962 14.7716 12.1481C14.9987 11.5999 15.0581 10.9967 14.9424 10.4147C14.8266 9.83279 14.5409 9.29824 14.1213 8.87868C13.7018 8.45912 13.1672 8.1734 12.5853 8.05764C12.0033 7.94189 11.4001 8.0013 10.8519 8.22836C10.3038 8.45542 9.83524 8.83994 9.50559 9.33329C9.17595 9.82664 9 10.4067 9 11C9 11.7956 9.31607 12.5587 9.87868 13.1213C10.4413 13.6839 11.2044 14 12 14ZM12 9.8C12.2373 9.8 12.4693 9.87038 12.6667 10.0022C12.864 10.1341 13.0178 10.3215 13.1087 10.5408C13.1995 10.7601 13.2232 11.0013 13.1769 11.2341C13.1306 11.4669 13.0164 11.6807 12.8485 11.8485C12.6807 12.0164 12.4669 12.1306 12.2341 12.1769C12.0013 12.2232 11.7601 12.1995 11.5408 12.1087C11.3215 12.0178 11.1341 11.864 11.0022 11.6667C10.8704 11.4693 10.8 11.2373 10.8 11C10.8004 10.6819 10.9269 10.3768 11.1519 10.1519C11.3768 9.92692 11.6819 9.80037 12 9.8Z" fill="black"/>
</svg>
