<svg width="24" height="24" viewBox="0 0 24 24" fill="none" xmlns="http://www.w3.org/2000/svg">
<g clip-path="url(#clip0)">
<path d="M12.1907 9C11.5303 7.85615 10.5109 6.96218 9.29067 6.45673C8.0704 5.95127 6.71745 5.8626 5.44165 6.20445C4.16585 6.5463 3.0385 7.29957 2.23445 8.34743C1.43039 9.3953 0.994568 10.6792 0.994568 12C0.994568 13.3208 1.43039 14.6047 2.23445 15.6526C3.0385 16.7004 4.16585 17.4537 5.44165 17.7956C6.71745 18.1374 8.0704 18.0487 9.29067 17.5433C10.5109 17.0378 11.5303 16.1439 12.1907 15H13.3333L15.3333 13.75L17.3333 15L19.3333 13.75L21.3333 15L24 13.3333V9H12.1907ZM22.55 12.53L21.3333 13.29L20.1018 12.52L19.3333 12.04L18.5648 12.52L17.3333 13.29L16.1018 12.52L15.3333 12.04L14.5648 12.52L12.9175 13.55H11.355L10.936 14.2732C10.4355 15.141 9.66262 15.8194 8.73722 16.2031C7.81181 16.5867 6.78566 16.6543 5.81794 16.3952C4.85023 16.1362 3.99507 15.565 3.38512 14.7703C2.77518 13.9756 2.44457 13.0018 2.44457 12C2.44457 10.9982 2.77518 10.0244 3.38512 9.22973C3.99507 8.43502 4.85023 7.86383 5.81794 7.60477C6.78566 7.34571 7.81181 7.41326 8.73722 7.79695C9.66262 8.18063 10.4355 8.859 10.936 9.7268L11.355 10.45H22.55V12.53ZM5.00002 10.9C4.78246 10.9 4.56979 10.9645 4.38889 11.0854C4.208 11.2063 4.06701 11.3781 3.98375 11.5791C3.9005 11.78 3.87871 12.0012 3.92116 12.2146C3.9636 12.428 4.06837 12.624 4.2222 12.7778C4.37604 12.9317 4.57204 13.0364 4.78542 13.0789C4.9988 13.1213 5.21997 13.0995 5.42097 13.0163C5.62197 12.933 5.79377 12.792 5.91464 12.6111C6.03551 12.4302 6.10002 12.2176 6.10002 12C6.10002 11.7083 5.98413 11.4285 5.77784 11.2222C5.57155 11.0159 5.29176 10.9 5.00002 10.9Z" fill="black"/>
</g>
<defs>
<clipPath id="clip0">
<rect width="24" height="24" fill="white"/>
</clipPath>
</defs>
</svg>
