<svg width="24" height="24" viewBox="0 0 24 24" fill="none" xmlns="http://www.w3.org/2000/svg">
<path d="M3 3V13H21V3H3ZM19.5 11.5H4.5V4.5H19.5V11.5ZM12 9.5C12.2967 9.5 12.5867 9.41203 12.8334 9.2472C13.08 9.08238 13.2723 8.84811 13.3858 8.57403C13.4994 8.29994 13.5291 7.99834 13.4712 7.70736C13.4133 7.41639 13.2704 7.14912 13.0607 6.93934C12.8509 6.72956 12.5836 6.5867 12.2926 6.52882C12.0017 6.47094 11.7001 6.50065 11.426 6.61418C11.1519 6.72771 10.9176 6.91997 10.7528 7.16664C10.588 7.41332 10.5 7.70333 10.5 8C10.5 8.39782 10.658 8.77936 10.9393 9.06066C11.2206 9.34196 11.6022 9.5 12 9.5ZM3 17H21V15.5H3V17ZM3 21H21V19.5H3V21Z" fill="black"/>
</svg>
