<svg width="24" height="24" viewBox="0 0 24 24" fill="none" xmlns="http://www.w3.org/2000/svg">
<path d="M12 2.8038L3 8V21H21V8L12 2.8038ZM20 20H4V8.5773L12 3.9586L20 8.5773V20ZM10.74 16L14.4473 10H13.26L9.5524 16H10.74ZM12.8054 15.0241C12.8054 15.2617 12.8758 15.494 13.0078 15.6916C13.1398 15.8892 13.3274 16.0432 13.547 16.1341C13.7665 16.2251 14.0081 16.2489 14.2411 16.2025C14.4742 16.1562 14.6883 16.0418 14.8563 15.8738C15.0243 15.7057 15.1387 15.4917 15.1851 15.2586C15.2315 15.0256 15.2077 14.784 15.1168 14.5645C15.0258 14.3449 14.8718 14.1573 14.6743 14.0253C14.4767 13.8933 14.2444 13.8228 14.0068 13.8228C13.6882 13.8229 13.3827 13.9495 13.1575 14.1748C12.9323 14.4 12.8057 14.7055 12.8057 15.0241H12.8054ZM14.4581 15.0241C14.4581 15.1134 14.4317 15.2007 14.3821 15.2749C14.3325 15.3492 14.262 15.407 14.1795 15.4412C14.097 15.4754 14.0062 15.4843 13.9187 15.4669C13.8311 15.4495 13.7506 15.4065 13.6875 15.3434C13.6244 15.2803 13.5814 15.1998 13.564 15.1122C13.5466 15.0247 13.5555 14.9339 13.5897 14.8514C13.6239 14.7689 13.6817 14.6984 13.756 14.6488C13.8302 14.5992 13.9175 14.5728 14.0068 14.5728C14.1265 14.5729 14.2413 14.6204 14.3259 14.7051C14.4106 14.7897 14.4582 14.9044 14.4584 15.0241H14.4581ZM11.194 10.9758C11.194 10.7382 11.1235 10.5059 10.9915 10.3083C10.8595 10.1108 10.6719 9.95678 10.4524 9.86585C10.2328 9.77492 9.99127 9.75113 9.75822 9.79749C9.52517 9.84384 9.3111 9.95827 9.14308 10.1263C8.97506 10.2943 8.86064 10.5084 8.81428 10.7414C8.76793 10.9745 8.79172 11.216 8.88265 11.4356C8.97358 11.6551 9.12757 11.8427 9.32514 11.9747C9.52271 12.1067 9.75499 12.1772 9.9926 12.1772C10.1504 12.1773 10.3067 12.1462 10.4525 12.0859C10.5983 12.0255 10.7307 11.937 10.8423 11.8255C10.9539 11.7139 11.0425 11.5814 11.1028 11.4356C11.1632 11.2899 11.1943 11.1336 11.1943 10.9758H11.194ZM9.5413 10.9758C9.5413 10.8865 9.56778 10.7992 9.61738 10.725C9.66699 10.6508 9.73749 10.5929 9.81998 10.5588C9.90247 10.5246 9.99324 10.5157 10.0808 10.5331C10.1684 10.5505 10.2488 10.5935 10.3119 10.6567C10.375 10.7198 10.418 10.8002 10.4354 10.8878C10.4528 10.9754 10.4439 11.0661 10.4097 11.1486C10.3755 11.2311 10.3177 11.3016 10.2434 11.3512C10.1692 11.4008 10.0819 11.4272 9.9926 11.4272C9.87299 11.427 9.75836 11.3793 9.67382 11.2947C9.58928 11.2101 9.54173 11.0954 9.5416 10.9758H9.5413Z" fill="black"/>
</svg>
