<svg width="24" height="24" viewBox="0 0 24 24" fill="none" xmlns="http://www.w3.org/2000/svg">
<path d="M16.75 14.5H13.25C13.1837 14.5 13.1201 14.5263 13.0732 14.5732C13.0263 14.6201 13 14.6837 13 14.75C13 14.8163 13.0263 14.8799 13.0732 14.9268C13.1201 14.9737 13.1837 15 13.25 15H16.75C16.8163 15 16.8799 14.9737 16.9268 14.9268C16.9737 14.8799 17 14.8163 17 14.75C17 14.6837 16.9737 14.6201 16.9268 14.5732C16.8799 14.5263 16.8163 14.5 16.75 14.5ZM18 2H6C5.46957 2 4.96086 2.21071 4.58579 2.58579C4.21071 2.96086 4 3.46957 4 4V22H20V4C20 3.46957 19.7893 2.96086 19.4142 2.58579C19.0391 2.21071 18.5304 2 18 2ZM19.5 21.5H4.5V4C4.50045 3.60231 4.65863 3.22104 4.93984 2.93984C5.22104 2.65863 5.60231 2.50045 6 2.5H18C18.3977 2.50045 18.779 2.65863 19.0602 2.93984C19.3414 3.22104 19.4995 3.60231 19.5 4V21.5ZM7 12H17V5H7V12ZM7.5 5.5H16.5V11.5H7.5V5.5Z" fill="black"/>
</svg>
