<svg width="24" height="24" viewBox="0 0 24 24" fill="none" xmlns="http://www.w3.org/2000/svg">
<path d="M19 4H5C4.20435 4 3.44129 4.31607 2.87868 4.87868C2.31607 5.44129 2 6.20435 2 7V17C2 17.7956 2.31607 18.5587 2.87868 19.1213C3.44129 19.6839 4.20435 20 5 20H19C19.7956 20 20.5587 19.6839 21.1213 19.1213C21.6839 18.5587 22 17.7956 22 17V7C22 6.20435 21.6839 5.44129 21.1213 4.87868C20.5587 4.31607 19.7956 4 19 4ZM21.5 17C21.4993 17.6628 21.2356 18.2983 20.7669 18.7669C20.2983 19.2356 19.6628 19.4993 19 19.5H5C4.33719 19.4993 3.70173 19.2356 3.23305 18.7669C2.76437 18.2983 2.50074 17.6628 2.5 17V7C2.50074 6.33719 2.76437 5.70173 3.23305 5.23305C3.70173 4.76437 4.33719 4.50074 5 4.5H19C19.6628 4.50074 20.2983 4.76437 20.7669 5.23305C21.2356 5.70173 21.4993 6.33719 21.5 7V17ZM9 11C9.29592 11 9.5852 10.9122 9.83124 10.7478C10.0773 10.5834 10.2691 10.3498 10.3823 10.0764C10.4956 9.80298 10.5252 9.50214 10.4675 9.21191C10.4097 8.92167 10.2672 8.65507 10.058 8.44583C9.84873 8.23658 9.58213 8.09408 9.29189 8.03635C9.00166 7.97862 8.70082 8.00825 8.42743 8.12149C8.15403 8.23474 7.92036 8.42651 7.75596 8.67256C7.59155 8.9186 7.5038 9.20788 7.5038 9.5038C7.5038 9.90062 7.66143 10.2812 7.94203 10.5618C8.22262 10.8424 8.60318 11 9 11ZM9 8.5077C9.19703 8.5077 9.38964 8.56613 9.55347 8.6756C9.7173 8.78507 9.84498 8.94066 9.92038 9.12269C9.99578 9.30473 10.0155 9.50504 9.97705 9.69829C9.9386 9.89153 9.84372 10.069 9.70438 10.2084C9.56505 10.3477 9.38754 10.4425 9.19429 10.481C9.00104 10.5194 8.80073 10.4997 8.6187 10.4242C8.43667 10.3488 8.28109 10.2211 8.17164 10.0573C8.06219 9.89345 8.00378 9.70083 8.0038 9.5038C8.00412 9.2397 8.10918 8.98651 8.29594 8.79977C8.4827 8.61303 8.7359 8.50799 9 8.5077ZM6 13.2426V15H12V13.2426C11.2043 12.447 10.1252 12 9 12C7.87479 12 6.79566 12.447 6 13.2426ZM11.5 14.5H6.5V13.4573C7.18682 12.8409 8.07715 12.5 9 12.5C9.92285 12.5 10.8132 12.8409 11.5 13.4573V14.5Z" fill="black"/>
</svg>
