<svg width="24" height="24" viewBox="0 0 24 24" fill="none" xmlns="http://www.w3.org/2000/svg">
<path d="M12 2C10.0222 2 8.08879 2.58649 6.4443 3.6853C4.79981 4.78412 3.51809 6.3459 2.76121 8.17317C2.00433 10.0004 1.8063 12.0111 2.19215 13.9509C2.578 15.8907 3.53041 17.6725 4.92894 19.0711C6.32746 20.4696 8.10929 21.422 10.0491 21.8079C11.9889 22.1937 13.9996 21.9957 15.8268 21.2388C17.6541 20.4819 19.2159 19.2002 20.3147 17.5557C21.4135 15.9112 22 13.9778 22 12C22 10.6868 21.7413 9.38642 21.2388 8.17317C20.7363 6.95991 19.9997 5.85752 19.0711 4.92893C18.1425 4.00035 17.0401 3.26375 15.8268 2.7612C14.6136 2.25866 13.3132 2 12 2ZM12 21C10.22 21 8.47991 20.4722 6.99987 19.4832C5.51983 18.4943 4.36628 17.0887 3.68509 15.4442C3.0039 13.7996 2.82567 11.99 3.17294 10.2442C3.5202 8.49836 4.37737 6.89471 5.63604 5.63604C6.89472 4.37737 8.49836 3.5202 10.2442 3.17293C11.99 2.82567 13.7996 3.0039 15.4442 3.68508C17.0887 4.36627 18.4943 5.51983 19.4832 6.99987C20.4722 8.47991 21 10.22 21 12C20.9974 14.3861 20.0483 16.6738 18.361 18.361C16.6738 20.0483 14.3861 20.9974 12 21ZM11.1943 9.9758C11.1943 9.73818 11.1238 9.50591 10.9918 9.30834C10.8598 9.11077 10.6722 8.95678 10.4527 8.86585C10.2331 8.77492 9.99157 8.75113 9.75852 8.79748C9.52547 8.84384 9.31141 8.95826 9.14339 9.12628C8.97537 9.2943 8.86095 9.50837 8.81459 9.74142C8.76823 9.97447 8.79202 10.216 8.88296 10.4356C8.97389 10.6551 9.12787 10.8427 9.32544 10.9747C9.52301 11.1067 9.75529 11.1772 9.9929 11.1772C10.1507 11.1772 10.3069 11.1461 10.4527 11.0858C10.5984 11.0254 10.7309 10.9369 10.8425 10.8253C10.954 10.7138 11.0425 10.5813 11.1029 10.4356C11.1633 10.2898 11.1943 10.1336 11.1943 9.9758ZM9.5416 9.9758C9.5416 9.88652 9.56808 9.79924 9.61769 9.72501C9.66729 9.65077 9.7378 9.59291 9.82028 9.55875C9.90277 9.52459 9.99354 9.51566 10.0811 9.53308C10.1687 9.55051 10.2491 9.59351 10.3122 9.65665C10.3754 9.71979 10.4183 9.80023 10.4357 9.8878C10.4531 9.97537 10.4442 10.0661 10.41 10.1486C10.3758 10.2311 10.318 10.3016 10.2437 10.3512C10.1695 10.4008 10.0822 10.4272 9.9929 10.4272C9.87324 10.427 9.75853 10.3794 9.67393 10.2948C9.58932 10.2102 9.54174 10.0955 9.5416 9.9758ZM14.0071 12.8228C13.7695 12.8228 13.5372 12.8932 13.3396 13.0252C13.142 13.1572 12.988 13.3449 12.8971 13.5644C12.8061 13.7839 12.7823 14.0255 12.8287 14.2586C12.875 14.4916 12.9895 14.7057 13.1575 14.8737C13.3255 15.0417 13.5396 15.1562 13.7726 15.2025C14.0057 15.2489 14.2473 15.2251 14.4668 15.1341C14.6863 15.0432 14.874 14.8892 15.006 14.6916C15.138 14.494 15.2084 14.2617 15.2084 14.0241C15.2084 13.8663 15.1773 13.7101 15.117 13.5644C15.0566 13.4186 14.9681 13.2862 14.8566 13.1747C14.745 13.0631 14.6126 12.9746 14.4668 12.9142C14.3211 12.8539 14.1649 12.8228 14.0071 12.8228ZM14.0071 14.4755C13.9178 14.4755 13.8305 14.4491 13.7563 14.3995C13.682 14.3499 13.6242 14.2794 13.59 14.1969C13.5558 14.1144 13.5469 14.0237 13.5643 13.9361C13.5817 13.8485 13.6247 13.7681 13.6878 13.7049C13.7509 13.6418 13.8313 13.5988 13.9189 13.5814C14.0065 13.564 14.0972 13.5729 14.1797 13.6071C14.2622 13.6412 14.3327 13.6991 14.3823 13.7733C14.4319 13.8475 14.4584 13.9348 14.4584 14.0241C14.4583 14.1438 14.4107 14.2585 14.3261 14.3431C14.2415 14.4277 14.1268 14.4753 14.0071 14.4755ZM13.26 9L9.5524 15H10.74L14.4473 9H13.26Z" fill="black"/>
</svg>
