<svg width="24" height="24" viewBox="0 0 24 24" fill="none" xmlns="http://www.w3.org/2000/svg">
<path d="M21 4H3C2.60218 4 2.22064 4.15804 1.93934 4.43934C1.65804 4.72064 1.5 5.10218 1.5 5.5C1.5 5.89782 1.65804 6.27936 1.93934 6.56066C2.22064 6.84196 2.60218 7 3 7H4V4.5H5V18C5 18.7956 5.31607 19.5587 5.87868 20.1213C6.44129 20.6839 7.20435 21 8 21H16C16.7956 21 17.5587 20.6839 18.1213 20.1213C18.6839 19.5587 19 18.7956 19 18V4.5H20V7H21C21.3978 7 21.7794 6.84196 22.0607 6.56066C22.342 6.27936 22.5 5.89782 22.5 5.5C22.5 5.10218 22.342 4.72064 22.0607 4.43934C21.7794 4.15804 21.3978 4 21 4ZM11 20.5H8V4.5H11V20.5Z" fill="black"/>
</svg>
