<svg width="24" height="24" viewBox="0 0 24 24" fill="none" xmlns="http://www.w3.org/2000/svg">
<path d="M21 4H3C2.60218 4 2.22064 4.15804 1.93934 4.43934C1.65804 4.72064 1.5 5.10218 1.5 5.5C1.5 5.89782 1.65804 6.27936 1.93934 6.56066C2.22064 6.84196 2.60218 7 3 7H4V4.5H5V21H19V4.5H20V7H21C21.3978 7 21.7794 6.84196 22.0607 6.56066C22.342 6.27936 22.5 5.89782 22.5 5.5C22.5 5.10218 22.342 4.72064 22.0607 4.43934C21.7794 4.15804 21.3978 4 21 4ZM12 14C11.4067 14 10.8266 13.8241 10.3333 13.4944C9.83994 13.1648 9.45542 12.6962 9.22836 12.1481C9.0013 11.5999 8.94189 10.9967 9.05764 10.4147C9.1734 9.83279 9.45912 9.29824 9.87868 8.87868C10.2982 8.45912 10.8328 8.1734 11.4147 8.05764C11.9967 7.94189 12.5999 8.0013 13.1481 8.22836C13.6962 8.45542 14.1648 8.83994 14.4944 9.33329C14.8241 9.82664 15 10.4067 15 11C15 11.7956 14.6839 12.5587 14.1213 13.1213C13.5587 13.6839 12.7956 14 12 14Z" fill="black"/>
</svg>
