<svg width="24" height="24" viewBox="0 0 24 24" fill="none" xmlns="http://www.w3.org/2000/svg">
<path d="M12.66 11.35H11.34C11.2033 11.3462 11.0734 11.2893 10.978 11.1912C10.8827 11.0932 10.8293 10.9618 10.8293 10.825C10.8293 10.6882 10.8827 10.5568 10.978 10.4588C11.0734 10.3607 11.2033 10.3038 11.34 10.3H13.9846V9H12.6V7.95H11.4V9H11.34C10.856 9 10.3918 9.19228 10.0495 9.53453C9.70728 9.87678 9.515 10.341 9.515 10.825C9.515 11.309 9.70728 11.7732 10.0495 12.1155C10.3918 12.4577 10.856 12.65 11.34 12.65H12.66C12.7967 12.6538 12.9266 12.7107 13.022 12.8088C13.1173 12.9068 13.1707 13.0382 13.1707 13.175C13.1707 13.3118 13.1173 13.4432 13.022 13.5412C12.9266 13.6393 12.7967 13.6962 12.66 13.7H9.75V15H11.4V16.05H12.6V15H12.66C12.8997 15 13.137 14.9528 13.3584 14.8611C13.5798 14.7694 13.781 14.6349 13.9505 14.4655C14.1199 14.296 14.2544 14.0948 14.3461 13.8734C14.4378 13.652 14.485 13.4147 14.485 13.175C14.485 12.9353 14.4378 12.698 14.3461 12.4766C14.2544 12.2552 14.1199 12.054 13.9505 11.8845C13.781 11.7151 13.5798 11.5806 13.3584 11.4889C13.137 11.3972 12.8997 11.35 12.66 11.35ZM19 4H5C4.20435 4 3.44129 4.31607 2.87868 4.87868C2.31607 5.44129 2 6.20435 2 7V17C2 17.7956 2.31607 18.5587 2.87868 19.1213C3.44129 19.6839 4.20435 20 5 20H19C19.7956 20 20.5587 19.6839 21.1213 19.1213C21.6839 18.5587 22 17.7956 22 17V7C22 6.20435 21.6839 5.44129 21.1213 4.87868C20.5587 4.31607 19.7956 4 19 4ZM20 9H17V11H20V17C19.9997 17.2651 19.8943 17.5193 19.7068 17.7068C19.5193 17.8943 19.2651 17.9997 19 18H5C4.73487 17.9997 4.48069 17.8943 4.29321 17.7068C4.10574 17.5193 4.00029 17.2651 4 17V11H7V9H4V7C4.00029 6.73487 4.10574 6.48069 4.29321 6.29321C4.48069 6.10574 4.73487 6.00029 5 6H19C19.2651 6.00029 19.5193 6.10574 19.7068 6.29321C19.8943 6.48069 19.9997 6.73487 20 7V9Z" fill="black"/>
</svg>
