<svg width="24" height="24" viewBox="0 0 24 24" fill="none" xmlns="http://www.w3.org/2000/svg">
<path d="M19.5 4H4.5C3.83696 4 3.20107 4.26339 2.73223 4.73223C2.26339 5.20107 2 5.83696 2 6.5V17.5C2 18.163 2.26339 18.7989 2.73223 19.2678C3.20107 19.7366 3.83696 20 4.5 20H19.5C20.163 20 20.7989 19.7366 21.2678 19.2678C21.7366 18.7989 22 18.163 22 17.5V6.5C22 5.83696 21.7366 5.20107 21.2678 4.73223C20.7989 4.26339 20.163 4 19.5 4ZM21.5 8H17V8.5H21.5V11H17V11.5H21.5V17.5C21.4994 18.0302 21.2885 18.5386 20.9135 18.9135C20.5386 19.2885 20.0302 19.4994 19.5 19.5H4.5C3.96975 19.4994 3.4614 19.2885 3.08646 18.9135C2.71152 18.5386 2.50061 18.0302 2.5 17.5V11.5H7V11H2.5V8.5H7V8H2.5V6.5C2.50061 5.96975 2.71152 5.4614 3.08646 5.08646C3.4614 4.71152 3.96975 4.50061 4.5 4.5H19.5C20.0302 4.50061 20.5386 4.71152 20.9135 5.08646C21.2885 5.4614 21.4994 5.96975 21.5 6.5V8ZM13.5452 9L9.8379 15H10.4548L14.1621 9H13.5452ZM13.9498 12.837C13.7256 12.837 13.5064 12.9035 13.32 13.028C13.1336 13.1526 12.9883 13.3297 12.9025 13.5368C12.8167 13.7439 12.7942 13.9719 12.838 14.1918C12.8817 14.4117 12.9897 14.6136 13.1482 14.7722C13.3068 14.9307 13.5087 15.0387 13.7286 15.0824C13.9485 15.1262 14.1765 15.1037 14.3836 15.0179C14.5907 14.9321 14.7678 14.7868 14.8924 14.6004C15.0169 14.414 15.0834 14.1948 15.0834 13.9706C15.0834 13.67 14.964 13.3817 14.7514 13.1691C14.5389 12.9565 14.2506 12.8371 13.95 12.837H13.9498ZM13.9498 14.6041C13.8245 14.6041 13.702 14.5669 13.5978 14.4973C13.4936 14.4277 13.4124 14.3287 13.3644 14.2129C13.3165 14.0972 13.3039 13.9698 13.3284 13.8469C13.3528 13.7239 13.4132 13.611 13.5018 13.5224C13.5904 13.4338 13.7033 13.3735 13.8263 13.3491C13.9492 13.3246 14.0766 13.3372 14.1923 13.3852C14.3081 13.4331 14.4071 13.5144 14.4767 13.6186C14.5463 13.7228 14.5834 13.8453 14.5834 13.9706C14.5832 14.1385 14.5164 14.2996 14.3977 14.4183C14.2789 14.5371 14.1179 14.6039 13.95 14.6041H13.9498ZM11.1837 10.0294C11.1837 9.80519 11.1173 9.58602 10.9927 9.39959C10.8682 9.21316 10.6911 9.06785 10.484 8.98203C10.2769 8.89621 10.0489 8.87374 9.82904 8.91746C9.60914 8.96118 9.40715 9.06913 9.24859 9.22765C9.09004 9.38618 8.98206 9.58815 8.9383 9.80805C8.89454 10.0279 8.91697 10.2559 9.00275 10.463C9.08853 10.6702 9.23381 10.8472 9.42022 10.9718C9.60663 11.0964 9.8258 11.1629 10.05 11.1629C10.1989 11.1629 10.3463 11.1336 10.4838 11.0766C10.6214 11.0197 10.7463 10.9362 10.8516 10.8309C10.9569 10.7257 11.0404 10.6007 11.0974 10.4632C11.1544 10.3257 11.1837 10.1783 11.1837 10.0294ZM9.4166 10.0294C9.41658 9.90408 9.45372 9.78157 9.52333 9.67736C9.59294 9.57316 9.69189 9.49193 9.80766 9.44396C9.92344 9.39599 10.0508 9.38343 10.1737 9.40786C10.2967 9.4323 10.4096 9.49264 10.4982 9.58124C10.5868 9.66985 10.6472 9.78274 10.6716 9.90565C10.6961 10.0286 10.6835 10.156 10.6356 10.2717C10.5876 10.3875 10.5064 10.4865 10.4022 10.5561C10.298 10.6257 10.1755 10.6629 10.0502 10.6629C9.88223 10.6627 9.7212 10.5959 9.60242 10.4772C9.48364 10.3584 9.41681 10.1974 9.4166 10.0294Z" fill="black"/>
</svg>
