<svg width="24" height="24" viewBox="0 0 24 24" fill="none" xmlns="http://www.w3.org/2000/svg">
<path d="M12 1L8 5H16L12 1ZM19.5 8H4.5C3.83696 8 3.20107 8.26339 2.73223 8.73223C2.26339 9.20107 2 9.83696 2 10.5C2 11.163 2.26339 11.7989 2.73223 12.2678C3.20107 12.7366 3.83696 13 4.5 13H5V22H19V13H19.5C20.163 13 20.7989 12.7366 21.2678 12.2678C21.7366 11.7989 22 11.163 22 10.5C22 9.83696 21.7366 9.20107 21.2678 8.73223C20.7989 8.26339 20.163 8 19.5 8ZM5 11.2H4.5C4.31435 11.2 4.1363 11.1263 4.00503 10.995C3.87375 10.8637 3.8 10.6857 3.8 10.5C3.8 10.3143 3.87375 10.1363 4.00503 10.005C4.1363 9.87375 4.31435 9.8 4.5 9.8H5V11.2ZM17 20H7V10H17V20ZM19.5 11.2H19V9.8H19.5C19.6857 9.8 19.8637 9.87375 19.995 10.005C20.1262 10.1363 20.2 10.3143 20.2 10.5C20.2 10.6857 20.1262 10.8637 19.995 10.995C19.8637 11.1263 19.6857 11.2 19.5 11.2ZM12 17C12.5933 17 13.1734 16.8241 13.6667 16.4944C14.1601 16.1648 14.5446 15.6962 14.7716 15.1481C14.9987 14.5999 15.0581 13.9967 14.9424 13.4147C14.8266 12.8328 14.5409 12.2982 14.1213 11.8787C13.7018 11.4591 13.1672 11.1734 12.5853 11.0576C12.0033 10.9419 11.4001 11.0013 10.8519 11.2284C10.3038 11.4554 9.83524 11.8399 9.50559 12.3333C9.17595 12.8266 9 13.4067 9 14C9 14.7956 9.31607 15.5587 9.87868 16.1213C10.4413 16.6839 11.2044 17 12 17ZM12 12.8C12.2373 12.8 12.4693 12.8704 12.6667 13.0022C12.864 13.1341 13.0178 13.3215 13.1087 13.5408C13.1995 13.7601 13.2232 14.0013 13.1769 14.2341C13.1306 14.4669 13.0164 14.6807 12.8485 14.8485C12.6807 15.0164 12.4669 15.1306 12.2341 15.1769C12.0013 15.2232 11.7601 15.1995 11.5408 15.1087C11.3215 15.0178 11.1341 14.864 11.0022 14.6667C10.8704 14.4693 10.8 14.2373 10.8 14C10.8004 13.6819 10.9269 13.3768 11.1519 13.1519C11.3768 12.9269 11.6819 12.8004 12 12.8Z" fill="black"/>
</svg>
