<svg width="24" height="24" viewBox="0 0 24 24" fill="none" xmlns="http://www.w3.org/2000/svg">
<path d="M15.2505 2.5516L14.8966 2.1979L12 5.0944L9.1034 2.1979L8.75 2.5516L12 5.8021L15.2505 2.5516ZM20.5 8H3.5C3.10218 8 2.72064 8.15803 2.43934 8.43934C2.15804 8.72064 2 9.10217 2 9.5C2 9.89782 2.15804 10.2794 2.43934 10.5607C2.72064 10.842 3.10218 11 3.5 11H5V22H19V11H20.5C20.8978 11 21.2794 10.842 21.5607 10.5607C21.842 10.2794 22 9.89782 22 9.5C22 9.10217 21.842 8.72064 21.5607 8.43934C21.2794 8.15803 20.8978 8 20.5 8ZM5 10.5H3.5C3.23478 10.5 2.98043 10.3946 2.79289 10.2071C2.60536 10.0196 2.5 9.76522 2.5 9.5C2.5 9.23478 2.60536 8.98043 2.79289 8.79289C2.98043 8.60536 3.23478 8.5 3.5 8.5H5V10.5ZM18.5 21.5H5.5V8.5H18.5V21.5ZM20.5 10.5H19V8.5H20.5C20.7652 8.5 21.0196 8.60536 21.2071 8.79289C21.3946 8.98043 21.5 9.23478 21.5 9.5C21.5 9.76522 21.3946 10.0196 21.2071 10.2071C21.0196 10.3946 20.7652 10.5 20.5 10.5ZM12 17C12.5933 17 13.1734 16.8241 13.6667 16.4944C14.1601 16.1648 14.5446 15.6962 14.7716 15.148C14.9987 14.5999 15.0581 13.9967 14.9424 13.4147C14.8266 12.8328 14.5409 12.2982 14.1213 11.8787C13.7018 11.4591 13.1672 11.1734 12.5853 11.0576C12.0033 10.9419 11.4001 11.0013 10.8519 11.2284C10.3038 11.4554 9.83524 11.8399 9.50559 12.3333C9.17595 12.8266 9 13.4067 9 14C9 14.7956 9.31607 15.5587 9.87868 16.1213C10.4413 16.6839 11.2044 17 12 17ZM12 11.5C12.4945 11.5 12.9778 11.6466 13.3889 11.9213C13.8 12.196 14.1205 12.5865 14.3097 13.0433C14.4989 13.5001 14.5484 14.0028 14.452 14.4877C14.3555 14.9727 14.1174 15.4181 13.7678 15.7678C13.4181 16.1174 12.9727 16.3555 12.4877 16.452C12.0028 16.5484 11.5001 16.4989 11.0433 16.3097C10.5865 16.1205 10.196 15.8 9.92133 15.3889C9.64662 14.9778 9.5 14.4945 9.5 14C9.50074 13.3372 9.76437 12.7017 10.2331 12.2331C10.7017 11.7644 11.3372 11.5007 12 11.5Z" fill="black"/>
</svg>
