<svg width="24" height="24" viewBox="0 0 24 24" fill="none" xmlns="http://www.w3.org/2000/svg">
<path d="M11 7H13V4H15.0416L12 0.958405L8.9584 4H11V7ZM2 9V21H22V9H2ZM20 19H4V11H20V19ZM12 17.5C12.4945 17.5 12.9778 17.3534 13.3889 17.0787C13.8 16.804 14.1205 16.4135 14.3097 15.9567C14.4989 15.4999 14.5484 14.9972 14.452 14.5123C14.3555 14.0273 14.1174 13.5819 13.7678 13.2322C13.4181 12.8826 12.9727 12.6445 12.4877 12.548C12.0028 12.4516 11.5001 12.5011 11.0433 12.6903C10.5865 12.8795 10.196 13.2 9.92133 13.6111C9.64662 14.0222 9.5 14.5056 9.5 15C9.5 15.663 9.76339 16.2989 10.2322 16.7678C10.7011 17.2366 11.337 17.5 12 17.5ZM12 14C12.1978 14 12.3911 14.0587 12.5556 14.1685C12.72 14.2784 12.8482 14.4346 12.9239 14.6173C12.9996 14.8 13.0194 15.0011 12.9808 15.1951C12.9422 15.3891 12.847 15.5673 12.7071 15.7071C12.5673 15.847 12.3891 15.9422 12.1951 15.9808C12.0011 16.0194 11.8 15.9996 11.6173 15.9239C11.4346 15.8482 11.2784 15.72 11.1685 15.5556C11.0586 15.3911 11 15.1978 11 15C11.0003 14.7349 11.1057 14.4807 11.2932 14.2932C11.4807 14.1057 11.7349 14.0003 12 14Z" fill="black"/>
</svg>
