<svg width="24" height="24" viewBox="0 0 24 24" fill="none" xmlns="http://www.w3.org/2000/svg">
<path d="M1 5V19H23V5H1ZM22.5 18.5H1.5V5.5H22.5V18.5ZM12 15C12.5933 15 13.1734 14.8241 13.6667 14.4944C14.1601 14.1648 14.5446 13.6962 14.7716 13.1481C14.9987 12.5999 15.0581 11.9967 14.9424 11.4147C14.8266 10.8328 14.5409 10.2982 14.1213 9.87868C13.7018 9.45912 13.1672 9.1734 12.5853 9.05764C12.0033 8.94189 11.4001 9.0013 10.8519 9.22836C10.3038 9.45542 9.83524 9.83994 9.50559 10.3333C9.17595 10.8266 9 11.4067 9 12C9 12.7956 9.31607 13.5587 9.87868 14.1213C10.4413 14.6839 11.2044 15 12 15ZM12 9.5C12.4945 9.5 12.9778 9.64662 13.3889 9.92133C13.8 10.196 14.1205 10.5865 14.3097 11.0433C14.4989 11.5001 14.5484 12.0028 14.452 12.4877C14.3555 12.9727 14.1174 13.4181 13.7678 13.7678C13.4181 14.1174 12.9727 14.3555 12.4877 14.452C12.0028 14.5484 11.5001 14.4989 11.0433 14.3097C10.5865 14.1205 10.196 13.8 9.92133 13.3889C9.64662 12.9778 9.5 12.4945 9.5 12C9.50074 11.3372 9.76437 10.7017 10.2331 10.2331C10.7017 9.76437 11.3372 9.50074 12 9.5Z" fill="black"/>
</svg>
