<svg width="24" height="24" viewBox="0 0 24 24" fill="none" xmlns="http://www.w3.org/2000/svg">
<path d="M15.83 8L14.256 2.7188C14.2292 2.62288 14.1837 2.53325 14.1219 2.45514C14.0602 2.37702 13.9835 2.31199 13.8963 2.26383C13.8091 2.21567 13.7133 2.18535 13.6143 2.17463C13.5153 2.16392 13.4151 2.17303 13.3197 2.20142C13.2242 2.22982 13.1354 2.27694 13.0584 2.34003C12.9813 2.40312 12.9176 2.48092 12.871 2.5689C12.8243 2.65687 12.7957 2.75325 12.7866 2.85242C12.7776 2.95159 12.7885 3.05156 12.8185 3.1465L14.265 8H9.735L11.1816 3.1465C11.2116 3.05156 11.2225 2.95159 11.2135 2.85242C11.2044 2.75325 11.1758 2.65687 11.1291 2.5689C11.0825 2.48092 11.0188 2.40312 10.9417 2.34003C10.8647 2.27694 10.7759 2.22982 10.6804 2.20142C10.585 2.17303 10.4848 2.16392 10.3858 2.17463C10.2868 2.18535 10.191 2.21567 10.1038 2.26383C10.0166 2.31199 9.93995 2.37702 9.87819 2.45514C9.81643 2.53325 9.77085 2.62288 9.7441 2.7188L8.17 8H1V9.9L3.9385 21H20.0615L22.9658 10.1587L23 8H15.83ZM7.8116 12.7266C7.6336 12.7266 7.45959 12.6738 7.31159 12.5749C7.16358 12.476 7.04823 12.3355 6.98011 12.171C6.91199 12.0066 6.89417 11.8256 6.92889 11.651C6.96362 11.4764 7.04934 11.3161 7.1752 11.1902C7.30107 11.0643 7.46144 10.9786 7.63602 10.9439C7.8106 10.9092 7.99156 10.927 8.15602 10.9951C8.32047 11.0632 8.46103 11.1786 8.55992 11.3266C8.65882 11.4746 8.7116 11.6486 8.7116 11.8266C8.7116 12.0653 8.61678 12.2942 8.448 12.463C8.27921 12.6318 8.05029 12.7266 7.8116 12.7266ZM16.1884 12.7266C16.0104 12.7266 15.8364 12.6738 15.6884 12.5749C15.5404 12.476 15.425 12.3355 15.3569 12.171C15.2888 12.0066 15.271 11.8256 15.3057 11.651C15.3404 11.4764 15.4261 11.3161 15.552 11.1902C15.6779 11.0643 15.8382 10.9786 16.0128 10.9439C16.1874 10.9092 16.3684 10.927 16.5328 10.9951C16.6973 11.0632 16.8378 11.1786 16.9367 11.3266C17.0356 11.4746 17.0884 11.6486 17.0884 11.8266C17.0884 12.0653 16.9936 12.2942 16.8248 12.463C16.656 12.6318 16.4271 12.7266 16.1884 12.7266Z" fill="black"/>
</svg>
