<svg width="24" height="24" viewBox="0 0 24 24" fill="none" xmlns="http://www.w3.org/2000/svg">
<path d="M1 5V19H23V5H1ZM22 18H2V6H22V18ZM12 15C12.5933 15 13.1734 14.8241 13.6667 14.4944C14.1601 14.1648 14.5446 13.6962 14.7716 13.1481C14.9987 12.5999 15.0581 11.9967 14.9424 11.4147C14.8266 10.8328 14.5409 10.2982 14.1213 9.87868C13.7018 9.45912 13.1672 9.1734 12.5853 9.05764C12.0033 8.94189 11.4001 9.0013 10.8519 9.22836C10.3038 9.45542 9.83524 9.83994 9.50559 10.3333C9.17595 10.8266 9 11.4067 9 12C9 12.7956 9.31607 13.5587 9.87868 14.1213C10.4413 14.6839 11.2044 15 12 15ZM12 10C12.3956 10 12.7822 10.1173 13.1111 10.3371C13.44 10.5568 13.6964 10.8692 13.8478 11.2346C13.9991 11.6001 14.0387 12.0022 13.9616 12.3902C13.8844 12.7781 13.6939 13.1345 13.4142 13.4142C13.1345 13.6939 12.7781 13.8844 12.3902 13.9616C12.0022 14.0387 11.6001 13.9991 11.2346 13.8478C10.8692 13.6964 10.5568 13.44 10.3371 13.1111C10.1173 12.7822 10 12.3956 10 12C10.0006 11.4698 10.2115 10.9614 10.5865 10.5865C10.9614 10.2115 11.4698 10.0006 12 10Z" fill="black"/>
</svg>
