<svg width="24" height="24" viewBox="0 0 24 24" fill="none" xmlns="http://www.w3.org/2000/svg">
<path d="M19.5 4H4.5C3.83696 4 3.20107 4.26339 2.73223 4.73223C2.26339 5.20107 2 5.83696 2 6.5V17.5C2 18.163 2.26339 18.7989 2.73223 19.2678C3.20107 19.7366 3.83696 20 4.5 20H19.5C20.163 20 20.7989 19.7366 21.2678 19.2678C21.7366 18.7989 22 18.163 22 17.5V6.5C22 5.83696 21.7366 5.20107 21.2678 4.73223C20.7989 4.26339 20.163 4 19.5 4ZM7 11H2.5V8H7V11ZM12.86 15H12.2242V16.05H11.775V15H9.75V14.5H12.86C13.1584 14.5 13.4445 14.3815 13.6555 14.1705C13.8665 13.9595 13.985 13.6734 13.985 13.375C13.985 13.0766 13.8665 12.7905 13.6555 12.5795C13.4445 12.3685 13.1584 12.25 12.86 12.25H11.125C10.694 12.25 10.2807 12.0788 9.97595 11.774C9.6712 11.4693 9.5 11.056 9.5 10.625C9.5 10.194 9.6712 9.7807 9.97595 9.47595C10.2807 9.1712 10.694 9 11.125 9H11.775V7.95H12.2242V9H13.9842V9.5H11.125C10.8266 9.5 10.5405 9.61853 10.3295 9.8295C10.1185 10.0405 10 10.3266 10 10.625C10 10.9234 10.1185 11.2095 10.3295 11.4205C10.5405 11.6315 10.8266 11.75 11.125 11.75H12.86C13.291 11.75 13.7043 11.9212 14.009 12.226C14.3138 12.5307 14.485 12.944 14.485 13.375C14.485 13.806 14.3138 14.2193 14.009 14.524C13.7043 14.8288 13.291 15 12.86 15ZM21.5 11H17V8H21.5V11Z" fill="black"/>
</svg>
