<svg width="24" height="24" viewBox="0 0 24 24" fill="none" xmlns="http://www.w3.org/2000/svg">
<path d="M15.3224 8.99999C18.6349 7.72999 18.8224 5.85209 18.7679 5.16309C18.6976 4.45273 18.3675 3.79332 17.841 3.31133C17.3144 2.82933 16.6285 2.55869 15.9147 2.55129H15.8763C14.7943 2.54629 12.869 3.28329 11.9999 7.10409C11.1309 3.28609 9.2057 2.55619 8.1237 2.55129C8.1107 2.55129 8.098 2.55129 8.0853 2.55129C7.37086 2.5565 6.68371 2.82639 6.15671 3.30881C5.62971 3.79122 5.30028 4.45189 5.2321 5.16309C5.1776 5.85209 5.3651 7.72999 8.6776 8.99999H3V21H21V8.99999H15.3224ZM15.8841 3.55079C15.8928 3.55034 15.9015 3.55034 15.9102 3.55079C16.3762 3.55571 16.824 3.73249 17.1677 4.04724C17.5113 4.36198 17.7267 4.79252 17.7725 5.25629C17.8679 6.54519 16.4717 8.13769 12.5739 8.86699C13.0475 4.96859 14.5794 3.55629 15.8841 3.55079ZM6.2275 5.25679C6.27328 4.79299 6.48869 4.36242 6.83242 4.04767C7.17614 3.73292 7.62397 3.55616 8.09 3.55129C8.09869 3.55084 8.10741 3.55084 8.1161 3.55129C9.4208 3.55679 10.9527 4.96909 11.4261 8.86799C7.5283 8.1382 6.1321 6.54569 6.2275 5.25679ZM4 20V9.99999H11.5V20H4ZM20 20H12.5V9.99999H20V20Z" fill="black"/>
</svg>
