<svg width="24" height="24" viewBox="0 0 24 24" fill="none" xmlns="http://www.w3.org/2000/svg">
<path d="M1 5V19H23V5H1ZM21.5 17.5H2.5V6.5H21.5V17.5ZM10.97 15L14.6773 9H13.03L9.3225 15H10.97ZM13.2684 14.186C13.2684 14.364 13.3212 14.538 13.4201 14.686C13.519 14.834 13.6595 14.9494 13.824 15.0175C13.9884 15.0856 14.1694 15.1034 14.344 15.0687C14.5186 15.034 14.6789 14.9483 14.8048 14.8224C14.9307 14.6965 15.0164 14.5362 15.0511 14.3616C15.0858 14.187 15.068 14.006 14.9999 13.8416C14.9318 13.6771 14.8164 13.5366 14.6684 13.4377C14.5204 13.3388 14.3464 13.286 14.1684 13.286C13.9297 13.2861 13.7009 13.3809 13.5321 13.5497C13.3634 13.7185 13.2686 13.9473 13.2686 14.186H13.2684ZM9.8314 10.7139C10.0094 10.7139 10.1834 10.6611 10.3314 10.5622C10.4794 10.4633 10.5948 10.3228 10.6629 10.1583C10.731 9.99386 10.7488 9.8129 10.7141 9.63832C10.6794 9.46374 10.5937 9.30337 10.4678 9.1775C10.3419 9.05164 10.1816 8.96592 10.007 8.93119C9.8324 8.89647 9.65144 8.91429 9.48699 8.98241C9.32253 9.05053 9.18197 9.16588 9.08308 9.31389C8.98418 9.46189 8.9314 9.6359 8.9314 9.8139C8.9314 10.0526 9.02622 10.2815 9.195 10.4503C9.36379 10.6191 9.5927 10.7139 9.8314 10.7139Z" fill="black"/>
</svg>
