<svg width="24" height="24" viewBox="0 0 24 24" fill="none" xmlns="http://www.w3.org/2000/svg">
<path d="M12 2.8038L3 8V21H21V8L12 2.8038ZM19 19H5V9.1547L12 5.1132L19 9.1547V19ZM11.2043 16L14.9116 10H12.7957L9.0884 16H11.2043ZM13.3406 15.0919C13.3406 15.3161 13.407 15.5353 13.5316 15.7217C13.6561 15.9082 13.8332 16.0535 14.0403 16.1393C14.2475 16.2251 14.4754 16.2476 14.6953 16.2038C14.9152 16.1601 15.1172 16.0521 15.2757 15.8936C15.4343 15.7351 15.5423 15.5331 15.586 15.3132C15.6298 15.0933 15.6073 14.8654 15.5215 14.6582C15.4357 14.4511 15.2904 14.274 15.104 14.1495C14.9176 14.0249 14.6984 13.9584 14.4742 13.9584C14.1736 13.9584 13.8852 14.0778 13.6727 14.2904C13.4601 14.503 13.3406 14.7913 13.3406 15.0919ZM10.6594 10.908C10.6594 10.6838 10.5929 10.4646 10.4684 10.2782C10.3438 10.0918 10.1667 9.94649 9.95961 9.86069C9.75247 9.77489 9.52454 9.75244 9.30465 9.79618C9.08475 9.83992 8.88276 9.94789 8.72422 10.1064C8.56569 10.265 8.45772 10.467 8.41398 10.6868C8.37024 10.9067 8.39269 11.1347 8.47849 11.3418C8.56429 11.549 8.70959 11.726 8.89601 11.8506C9.08243 11.9751 9.30159 12.0416 9.5258 12.0416C9.67467 12.0416 9.82208 12.0123 9.95963 11.9553C10.0972 11.8984 10.2221 11.8149 10.3274 11.7096C10.4327 11.6043 10.5162 11.4794 10.5731 11.3418C10.6301 11.2043 10.6594 11.0569 10.6594 10.908Z" fill="black"/>
</svg>
