<svg width="24" height="24" viewBox="0 0 24 24" fill="none" xmlns="http://www.w3.org/2000/svg">
<path d="M18.5 9H16.7653C19.21 7.5836 19.32 5.9417 19.2471 5.2753C19.1382 4.48529 18.7446 3.76223 18.1402 3.24198C17.5358 2.72173 16.7622 2.44009 15.9648 2.45H15.9082C14.4066 2.4749 12.8936 3.49 12 6.0311C11.1064 3.49 9.5934 2.4749 8.0918 2.45H8.0352C7.23779 2.44009 6.4642 2.72173 5.8598 3.24198C5.25539 3.76223 4.86177 4.48529 4.7529 5.2753C4.68 5.9417 4.7905 7.5836 7.2347 9H5.5C4.83696 9 4.20107 9.26339 3.73223 9.73223C3.26339 10.2011 3 10.837 3 11.5V18.5C3 19.163 3.26339 19.7989 3.73223 20.2678C4.20107 20.7366 4.83696 21 5.5 21H18.5C19.163 21 19.7989 20.7366 20.2678 20.2678C20.7366 19.7989 21 19.163 21 18.5V11.5C21 10.837 20.7366 10.2011 20.2678 9.73223C19.7989 9.26339 19.163 9 18.5 9ZM15.9414 4.45H15.9648C16.2706 4.43714 16.5705 4.53606 16.8087 4.72827C17.0468 4.92047 17.2068 5.19281 17.2588 5.4944C17.3672 6.4764 16.1221 7.7444 13.1631 8.5882C13.668 5.5883 14.9219 4.4667 15.9414 4.45ZM6.7414 5.4939C6.79348 5.19244 6.9535 4.92025 7.19159 4.72815C7.42968 4.53605 7.72955 4.43718 8.0352 4.45H8.0586C9.0781 4.4666 10.332 5.5882 10.8369 8.5877C7.8779 7.7435 6.6328 6.476 6.7412 5.494L6.7414 5.4939ZM19 15H5V12H19V15Z" fill="black"/>
</svg>
