<svg width="24" height="24" viewBox="0 0 24 24" fill="none" xmlns="http://www.w3.org/2000/svg">
<path d="M19 4H5C4.20435 4 3.44129 4.31607 2.87868 4.87868C2.31607 5.44129 2 6.20435 2 7V17C2 17.7956 2.31607 18.5587 2.87868 19.1213C3.44129 19.6839 4.20435 20 5 20H19C19.7956 20 20.5587 19.6839 21.1213 19.1213C21.6839 18.5587 22 17.7956 22 17V7C22 6.20435 21.6839 5.44129 21.1213 4.87868C20.5587 4.31607 19.7956 4 19 4ZM20 17C19.9997 17.2651 19.8943 17.5193 19.7068 17.7068C19.5193 17.8943 19.2651 17.9997 19 18H5C4.73487 17.9997 4.48069 17.8943 4.29321 17.7068C4.10574 17.5193 4.00029 17.2651 4 17V7C4.00029 6.73487 4.10574 6.48069 4.29321 6.29321C4.48069 6.10574 4.73487 6.00029 5 6H19C19.2651 6.00029 19.5193 6.10574 19.7068 6.29321C19.8943 6.48069 19.9997 6.73487 20 7V17ZM9 11C9.29592 11 9.58521 10.9123 9.83127 10.7479C10.0773 10.5835 10.2691 10.3498 10.3824 10.0764C10.4956 9.80305 10.5253 9.50221 10.4676 9.21197C10.4098 8.92173 10.2674 8.65512 10.0581 8.44586C9.84887 8.2366 9.58227 8.0941 9.29203 8.03636C9.00179 7.97862 8.70095 8.00824 8.42755 8.12148C8.15415 8.23472 7.92047 8.42649 7.75606 8.67255C7.59165 8.9186 7.5039 9.20788 7.5039 9.5038C7.5039 9.9006 7.66152 10.2811 7.94209 10.5617C8.22266 10.8423 8.6032 11 9 11ZM6 13.5938V15H12V13.5938C11.2043 12.7982 10.1252 12.3512 9 12.3512C7.87479 12.3512 6.79566 12.7982 6 13.5938Z" fill="black"/>
</svg>
