<svg width="24" height="24" viewBox="0 0 24 24" fill="none" xmlns="http://www.w3.org/2000/svg">
<path d="M15.5 12C15.5007 12.6628 15.7644 13.2983 16.2331 13.7669C16.7017 14.2356 17.3372 14.4993 18 14.5H22V9.5H18C17.3372 9.50074 16.7017 9.76437 16.2331 10.2331C15.7644 10.7017 15.5007 11.3372 15.5 12ZM18.9 12C18.9 12.178 18.8472 12.352 18.7483 12.5C18.6494 12.648 18.5089 12.7634 18.3444 12.8315C18.18 12.8996 17.999 12.9174 17.8244 12.8827C17.6498 12.848 17.4895 12.7623 17.3636 12.6364C17.2377 12.5105 17.152 12.3502 17.1173 12.1756C17.0826 12.001 17.1004 11.82 17.1685 11.6556C17.2366 11.4911 17.352 11.3506 17.5 11.2517C17.648 11.1528 17.822 11.1 18 11.1C18.2387 11.1 18.4676 11.1948 18.6364 11.3636C18.8052 11.5324 18.9 11.7613 18.9 12ZM19 4H5C4.20435 4 3.44129 4.31607 2.87868 4.87868C2.31607 5.44129 2 6.20435 2 7V17C2 17.7956 2.31607 18.5587 2.87868 19.1213C3.44129 19.6839 4.20435 20 5 20H19C19.7956 20 20.5587 19.6839 21.1213 19.1213C21.6839 18.5587 22 17.7956 22 17V16H18C16.9391 16 15.9217 15.5786 15.1716 14.8284C14.4214 14.0783 14 13.0609 14 12C14 10.9391 14.4214 9.92172 15.1716 9.17157C15.9217 8.42143 16.9391 8 18 8H22V7C22 6.20435 21.6839 5.44129 21.1213 4.87868C20.5587 4.31607 19.7956 4 19 4Z" fill="black"/>
</svg>
