<svg width="24" height="24" viewBox="0 0 24 24" fill="none" xmlns="http://www.w3.org/2000/svg">
<path d="M1 5V19H23V5H1ZM21 17H3V7H21V17ZM12 15C12.5933 15 13.1734 14.8241 13.6667 14.4944C14.1601 14.1648 14.5446 13.6962 14.7716 13.1481C14.9987 12.5999 15.0581 11.9967 14.9424 11.4147C14.8266 10.8328 14.5409 10.2982 14.1213 9.87868C13.7018 9.45912 13.1672 9.1734 12.5853 9.05764C12.0033 8.94189 11.4001 9.0013 10.8519 9.22836C10.3038 9.45542 9.83524 9.83994 9.50559 10.3333C9.17595 10.8266 9 11.4067 9 12C9 12.7956 9.31607 13.5587 9.87868 14.1213C10.4413 14.6839 11.2044 15 12 15ZM12 10.8C12.2373 10.8 12.4693 10.8704 12.6667 11.0022C12.864 11.1341 13.0178 11.3215 13.1087 11.5408C13.1995 11.7601 13.2232 12.0013 13.1769 12.2341C13.1306 12.4669 13.0164 12.6807 12.8485 12.8485C12.6807 13.0164 12.4669 13.1306 12.2341 13.1769C12.0013 13.2232 11.7601 13.1995 11.5408 13.1087C11.3215 13.0178 11.1341 12.864 11.0022 12.6667C10.8704 12.4693 10.8 12.2373 10.8 12C10.8003 11.6818 10.9269 11.3768 11.1519 11.1519C11.3768 10.9269 11.6818 10.8003 12 10.8Z" fill="black"/>
</svg>
