<svg width="24" height="24" viewBox="0 0 24 24" fill="none" xmlns="http://www.w3.org/2000/svg">
<path d="M3 3V13H21V3H3ZM20 12H4V4H20V12ZM12 10.25C12.445 10.25 12.88 10.118 13.25 9.87081C13.62 9.62357 13.9084 9.27217 14.0787 8.86104C14.249 8.4499 14.2936 7.9975 14.2068 7.56105C14.12 7.12459 13.9057 6.72368 13.591 6.40901C13.2763 6.09434 12.8754 5.88005 12.439 5.79323C12.0025 5.70642 11.5501 5.75097 11.139 5.92127C10.7278 6.09157 10.3764 6.37996 10.1292 6.74997C9.88196 7.11998 9.75 7.55499 9.75 8C9.75 8.59674 9.98705 9.16903 10.409 9.59099C10.831 10.0129 11.4033 10.25 12 10.25ZM12 6.75C12.2472 6.75 12.4889 6.82331 12.6945 6.96066C12.9 7.09801 13.0602 7.29324 13.1548 7.52165C13.2495 7.75005 13.2742 8.00139 13.226 8.24386C13.1778 8.48634 13.0587 8.70907 12.8839 8.88388C12.7091 9.0587 12.4863 9.17775 12.2439 9.22598C12.0014 9.27421 11.7501 9.24946 11.5216 9.15485C11.2932 9.06024 11.098 8.90002 10.9607 8.69446C10.8233 8.4889 10.75 8.24723 10.75 8C10.7504 7.66859 10.8822 7.35087 11.1165 7.11653C11.3509 6.88219 11.6686 6.75037 12 6.75ZM3 17H21V16H3V17ZM3 21H21V20H3V21Z" fill="black"/>
</svg>
