<svg width="24" height="24" viewBox="0 0 24 24" fill="none" xmlns="http://www.w3.org/2000/svg">
<path d="M13.5375 9C18.5724 7.8021 18.8309 5.4194 18.7675 4.6233C18.6972 3.91294 18.3671 3.25355 17.8406 2.77156C17.314 2.28957 16.6281 2.01892 15.9143 2.0115H15.8759C14.845 2.0151 12.8207 2.654 12 6.7593C11.1793 2.654 9.155 2.0151 8.1237 2.011H8.0853C7.37143 2.01843 6.68543 2.28915 6.15889 2.77124C5.63234 3.25333 5.30231 3.91285 5.2321 4.6233C5.1691 5.4194 5.4276 7.8021 10.4621 9H3V21H11.5V9H12.5V21H21V9H13.5375ZM6.2275 4.717C6.27328 4.2532 6.48869 3.82262 6.83242 3.50787C7.17614 3.19313 7.62397 3.01637 8.09 3.0115C8.0985 3.0109 8.1076 3.0109 8.1161 3.0115C9.4208 3.017 10.9527 4.4293 11.4261 8.3283C7.5283 7.5984 6.1321 6.006 6.2275 4.717ZM15.8841 3.011C15.8926 3.011 15.9017 3.011 15.9102 3.011C16.3763 3.01593 16.8241 3.19278 17.1678 3.50763C17.5115 3.82247 17.7268 4.25314 17.7725 4.717C17.8679 6.006 16.4717 7.5984 12.5739 8.3278C13.0475 4.4288 14.5794 3.0165 15.8841 3.011Z" fill="black"/>
</svg>
