<svg width="24" height="24" viewBox="0 0 24 24" fill="none" xmlns="http://www.w3.org/2000/svg">
<path d="M12 2.8038L3 8V21H21V8L12 2.8038ZM20.5 20.5H3.5V8.2886L12 3.3812L20.5 8.2886V20.5ZM10.4548 16L14.1621 10H13.5452L9.8379 16H10.4548ZM12.8163 14.9706C12.8163 15.1948 12.8828 15.414 13.0073 15.6004C13.1319 15.7868 13.3089 15.9321 13.5161 16.0179C13.7232 16.1037 13.9511 16.1262 14.171 16.0824C14.3909 16.0387 14.5929 15.9307 14.7514 15.7722C14.91 15.6137 15.018 15.4117 15.0617 15.1918C15.1055 14.9719 15.083 14.744 14.9972 14.5369C14.9115 14.3297 14.7662 14.1527 14.5798 14.0281C14.3934 13.9035 14.1742 13.837 13.95 13.837C13.8011 13.837 13.6537 13.8663 13.5162 13.9233C13.3786 13.9802 13.2536 14.0637 13.1484 14.169C13.0431 14.2743 12.9596 14.3992 12.9026 14.5368C12.8456 14.6743 12.8163 14.8217 12.8163 14.9706ZM14.5834 14.9706C14.5834 15.0959 14.5462 15.2184 14.4766 15.3226C14.407 15.4268 14.308 15.508 14.1923 15.556C14.0765 15.6039 13.9491 15.6165 13.8262 15.592C13.7033 15.5676 13.5904 15.5072 13.5018 15.4186C13.4132 15.33 13.3528 15.2171 13.3284 15.0942C13.3039 14.9713 13.3165 14.8439 13.3644 14.7281C13.4124 14.6124 13.4936 14.5134 13.5978 14.4438C13.702 14.3742 13.8245 14.337 13.9498 14.337C14.1178 14.3372 14.2788 14.404 14.3976 14.5228C14.5164 14.6416 14.5832 14.8026 14.5834 14.9706ZM11.1834 11.0294C11.1834 10.8052 11.1169 10.586 10.9924 10.3996C10.8678 10.2131 10.6908 10.0678 10.4836 9.982C10.2765 9.89619 10.0485 9.87374 9.82863 9.91749C9.60872 9.96123 9.40673 10.0692 9.24819 10.2278C9.08965 10.3863 8.98169 10.5883 8.93796 10.8082C8.89424 11.0281 8.91671 11.2561 9.00254 11.4632C9.08837 11.6704 9.23369 11.8474 9.42014 11.9719C9.60659 12.0965 9.82578 12.1629 10.05 12.1629C10.1989 12.1629 10.3463 12.1336 10.4838 12.0767C10.6214 12.0197 10.7463 11.9362 10.8516 11.8309C10.9569 11.7257 11.0404 11.6007 11.0974 11.4632C11.1544 11.3257 11.1837 11.1783 11.1837 11.0294H11.1834ZM9.4163 11.0294C9.41628 10.9041 9.45342 10.7816 9.52303 10.6774C9.59264 10.5732 9.69159 10.4919 9.80736 10.444C9.92314 10.396 10.0505 10.3834 10.1734 10.4079C10.2964 10.4323 10.4093 10.4926 10.4979 10.5812C10.5865 10.6699 10.6469 10.7827 10.6713 10.9057C10.6958 11.0286 10.6832 11.156 10.6353 11.2717C10.5873 11.3875 10.5061 11.4865 10.4019 11.5561C10.2977 11.6257 10.1752 11.6629 10.0499 11.6629C9.88199 11.6626 9.72103 11.5958 9.60231 11.4771C9.4836 11.3583 9.41681 11.1973 9.4166 11.0294H9.4163Z" fill="black"/>
</svg>
