<svg width="24" height="24" viewBox="0 0 24 24" fill="none" xmlns="http://www.w3.org/2000/svg">
<path d="M19 4H5C4.20435 4 3.44129 4.31607 2.87868 4.87868C2.31607 5.44129 2 6.20435 2 7V17C2 17.7956 2.31607 18.5587 2.87868 19.1213C3.44129 19.6839 4.20435 20 5 20H19C19.7956 20 20.5587 19.6839 21.1213 19.1213C21.6839 18.5587 22 17.7956 22 17V7C22 6.20435 21.6839 5.44129 21.1213 4.87868C20.5587 4.31607 19.7956 4 19 4ZM20.5 9H16.6063C16.9079 9.46269 17.1376 9.96844 17.2876 10.5H20.5V17C20.4995 17.3977 20.3414 17.779 20.0602 18.0602C19.779 18.3414 19.3977 18.4995 19 18.5H5C4.60231 18.4995 4.22104 18.3414 3.93984 18.0602C3.65863 17.779 3.50045 17.3977 3.5 17V10.5H6.7124C6.86238 9.96844 7.09209 9.46269 7.3937 9H3.5V7C3.50045 6.60231 3.65863 6.22104 3.93984 5.93984C4.22104 5.65863 4.60231 5.50045 5 5.5H19C19.3977 5.50045 19.779 5.65863 20.0602 5.93984C20.3414 6.22104 20.4995 6.60231 20.5 7V9ZM12 8.75C11.3572 8.75 10.7289 8.94061 10.1944 9.29772C9.65994 9.65484 9.24338 10.1624 8.99739 10.7563C8.75141 11.3501 8.68705 12.0036 8.81245 12.634C8.93785 13.2645 9.24738 13.8436 9.7019 14.2981C10.1564 14.7526 10.7355 15.0622 11.366 15.1876C11.9964 15.313 12.6499 15.2486 13.2437 15.0026C13.8376 14.7566 14.3452 14.3401 14.7023 13.8056C15.0594 13.2711 15.25 12.6428 15.25 12C15.25 11.138 14.9076 10.3114 14.2981 9.7019C13.6886 9.09241 12.862 8.75 12 8.75ZM12 13.85C11.6341 13.85 11.2764 13.7415 10.9722 13.5382C10.668 13.3349 10.4308 13.046 10.2908 12.708C10.1508 12.3699 10.1142 11.9979 10.1855 11.6391C10.2569 11.2802 10.4331 10.9506 10.6919 10.6919C10.9506 10.4331 11.2802 10.2569 11.6391 10.1855C11.9979 10.1142 12.3699 10.1508 12.708 10.2908C13.046 10.4308 13.3349 10.668 13.5382 10.9722C13.7415 11.2764 13.85 11.6341 13.85 12C13.8494 12.4905 13.6544 12.9607 13.3075 13.3075C12.9607 13.6544 12.4905 13.8494 12 13.85Z" fill="black"/>
</svg>
