<svg width="24" height="24" viewBox="0 0 24 24" fill="none" xmlns="http://www.w3.org/2000/svg">
<path d="M19.5 4H4.5C3.83696 4 3.20107 4.26339 2.73223 4.73223C2.26339 5.20107 2 5.83696 2 6.5V17.5C2 18.163 2.26339 18.7989 2.73223 19.2678C3.20107 19.7366 3.83696 20 4.5 20H19.5C20.163 20 20.7989 19.7366 21.2678 19.2678C21.7366 18.7989 22 18.163 22 17.5V6.5C22 5.83696 21.7366 5.20107 21.2678 4.73223C20.7989 4.26339 20.163 4 19.5 4ZM21.5 8H15.7671C15.9359 8.15658 16.0948 8.32358 16.2427 8.5H21.5V11H17.4048C17.4348 11.1644 17.4595 11.3307 17.4748 11.5H21.5V17.5C21.4994 18.0302 21.2885 18.5386 20.9135 18.9135C20.5386 19.2885 20.0302 19.4994 19.5 19.5H4.5C3.96975 19.4994 3.4614 19.2885 3.08646 18.9135C2.71152 18.5386 2.50061 18.0302 2.5 17.5V11.5H6.5251C6.5405 11.3307 6.5651 11.1644 6.5951 11H2.5V8.5H7.7573C7.90525 8.32358 8.06409 8.15658 8.2329 8H2.5V6.5C2.50061 5.96975 2.71152 5.4614 3.08646 5.08646C3.4614 4.71152 3.96975 4.50061 4.5 4.5H19.5C20.0302 4.50061 20.5386 4.71152 20.9135 5.08646C21.2885 5.4614 21.4994 5.96975 21.5 6.5V8ZM12 8.75C11.3572 8.75 10.7289 8.94061 10.1944 9.29772C9.65994 9.65484 9.24338 10.1624 8.99739 10.7563C8.75141 11.3501 8.68705 12.0036 8.81245 12.634C8.93785 13.2645 9.24738 13.8436 9.7019 14.2981C10.1564 14.7526 10.7355 15.0622 11.366 15.1876C11.9964 15.313 12.6499 15.2486 13.2437 15.0026C13.8376 14.7566 14.3452 14.3401 14.7023 13.8056C15.0594 13.2711 15.25 12.6428 15.25 12C15.25 11.138 14.9076 10.3114 14.2981 9.7019C13.6886 9.09241 12.862 8.75 12 8.75ZM12 14.75C11.4561 14.75 10.9244 14.5887 10.4722 14.2865C10.0199 13.9844 9.66747 13.5549 9.45933 13.0524C9.25119 12.5499 9.19673 11.9969 9.30284 11.4635C9.40895 10.9301 9.67086 10.4401 10.0555 10.0555C10.4401 9.67086 10.9301 9.40895 11.4635 9.30284C11.997 9.19673 12.5499 9.25119 13.0524 9.45933C13.5549 9.66747 13.9844 10.0199 14.2865 10.4722C14.5887 10.9244 14.75 11.4561 14.75 12C14.7492 12.7291 14.4592 13.4281 13.9436 13.9436C13.4281 14.4592 12.7291 14.7492 12 14.75Z" fill="black"/>
</svg>
