<svg width="24" height="24" viewBox="0 0 24 24" fill="none" xmlns="http://www.w3.org/2000/svg">
<path d="M20.5 4H3.5C3.10218 4 2.72064 4.15804 2.43934 4.43934C2.15804 4.72064 2 5.10218 2 5.5C2 5.89782 2.15804 6.27936 2.43934 6.56066C2.72064 6.84196 3.10218 7 3.5 7H5V21H19V7H20.5C20.8978 7 21.2794 6.84196 21.5607 6.56066C21.842 6.27936 22 5.89782 22 5.5C22 5.10218 21.842 4.72064 21.5607 4.43934C21.2794 4.15804 20.8978 4 20.5 4ZM5 6.5H3.5C3.23478 6.5 2.98043 6.39464 2.79289 6.20711C2.60536 6.01957 2.5 5.76522 2.5 5.5C2.5 5.23478 2.60536 4.98043 2.79289 4.79289C2.98043 4.60536 3.23478 4.5 3.5 4.5H5V6.5ZM18.5 20.5H5.5V4.5H18.5V20.5ZM20.5 6.5H19V4.5H20.5C20.7652 4.5 21.0196 4.60536 21.2071 4.79289C21.3946 4.98043 21.5 5.23478 21.5 5.5C21.5 5.76522 21.3946 6.01957 21.2071 6.20711C21.0196 6.39464 20.7652 6.5 20.5 6.5ZM12 14C12.5933 14 13.1734 13.8241 13.6667 13.4944C14.1601 13.1648 14.5446 12.6962 14.7716 12.1481C14.9987 11.5999 15.0581 10.9967 14.9424 10.4147C14.8266 9.83279 14.5409 9.29824 14.1213 8.87868C13.7018 8.45912 13.1672 8.1734 12.5853 8.05764C12.0033 7.94189 11.4001 8.0013 10.8519 8.22836C10.3038 8.45542 9.83524 8.83994 9.50559 9.33329C9.17595 9.82664 9 10.4067 9 11C9 11.7956 9.31607 12.5587 9.87868 13.1213C10.4413 13.6839 11.2044 14 12 14ZM12 8.5C12.4945 8.5 12.9778 8.64662 13.3889 8.92133C13.8 9.19603 14.1205 9.58648 14.3097 10.0433C14.4989 10.5001 14.5484 11.0028 14.452 11.4877C14.3555 11.9727 14.1174 12.4181 13.7678 12.7678C13.4181 13.1174 12.9727 13.3555 12.4877 13.452C12.0028 13.5484 11.5001 13.4989 11.0433 13.3097C10.5865 13.1205 10.196 12.8 9.92133 12.3889C9.64662 11.9778 9.5 11.4945 9.5 11C9.50074 10.3372 9.76437 9.70173 10.2331 9.23305C10.7017 8.76437 11.3372 8.50074 12 8.5Z" fill="black"/>
</svg>
