<svg width="24" height="24" viewBox="0 0 24 24" fill="none" xmlns="http://www.w3.org/2000/svg">
<path d="M14.5 4.5416H12.75V1H11.25V4.5416H9.5L12 7.0416L14.5 4.5416ZM2 9V21H22V9H2ZM20.5 19.5H3.5V10.5H20.5V19.5ZM12 17.5C12.4945 17.5 12.9778 17.3534 13.3889 17.0787C13.8 16.804 14.1205 16.4135 14.3097 15.9567C14.4989 15.4999 14.5484 14.9972 14.452 14.5123C14.3555 14.0273 14.1174 13.5819 13.7678 13.2322C13.4181 12.8826 12.9727 12.6445 12.4877 12.548C12.0028 12.4516 11.5001 12.5011 11.0433 12.6903C10.5865 12.8795 10.196 13.2 9.92133 13.6111C9.64662 14.0222 9.5 14.5055 9.5 15C9.5 15.663 9.76339 16.2989 10.2322 16.7678C10.7011 17.2366 11.337 17.5 12 17.5ZM12 13.8C12.2373 13.8 12.4693 13.8704 12.6667 14.0022C12.864 14.1341 13.0178 14.3215 13.1087 14.5408C13.1995 14.7601 13.2232 15.0013 13.1769 15.2341C13.1306 15.4669 13.0164 15.6807 12.8485 15.8485C12.6807 16.0164 12.4669 16.1306 12.2341 16.1769C12.0013 16.2232 11.7601 16.1995 11.5408 16.1087C11.3215 16.0178 11.1341 15.864 11.0022 15.6667C10.8704 15.4693 10.8 15.2373 10.8 15C10.8003 14.6818 10.9269 14.3768 11.1519 14.1519C11.3768 13.9269 11.6818 13.8003 12 13.8Z" fill="black"/>
</svg>
