<svg width="24" height="24" viewBox="0 0 24 24" fill="none" xmlns="http://www.w3.org/2000/svg">
<path d="M12.7957 9L9.0884 15H11.2043L14.9116 9H12.7957ZM14.4741 12.9584C14.2499 12.9584 14.0307 13.0249 13.8443 13.1495C13.6579 13.274 13.5126 13.4511 13.4268 13.6582C13.341 13.8654 13.3185 14.0933 13.3623 14.3132C13.406 14.5331 13.514 14.7351 13.6726 14.8936C13.8311 15.0521 14.0331 15.1601 14.253 15.2038C14.4729 15.2476 14.7008 15.2251 14.908 15.1393C15.1151 15.0535 15.2922 14.9082 15.4167 14.7217C15.5413 14.5353 15.6077 14.3161 15.6077 14.0919C15.6077 13.943 15.5784 13.7956 15.5214 13.6581C15.4644 13.5206 15.3809 13.3956 15.2757 13.2904C15.1704 13.1851 15.0454 13.1016 14.9079 13.0447C14.7704 12.9877 14.623 12.9584 14.4741 12.9584ZM10.6594 9.9084C10.6594 9.68419 10.5929 9.46502 10.4683 9.27859C10.3438 9.09217 10.1667 8.94688 9.95959 8.86108C9.75244 8.77528 9.52451 8.75284 9.30461 8.79659C9.08471 8.84034 8.88272 8.94831 8.72419 9.10686C8.56566 9.26541 8.4577 9.4674 8.41397 9.68731C8.37024 9.90721 8.3927 10.1351 8.47852 10.3423C8.56433 10.5494 8.70965 10.7265 8.89608 10.851C9.08251 10.9756 9.30169 11.042 9.5259 11.042C9.6748 11.042 9.82223 11.0127 9.95979 10.9557C10.0973 10.8987 10.2223 10.8151 10.3276 10.7098C10.4328 10.6045 10.5163 10.4795 10.5733 10.3419C10.6302 10.2043 10.6595 10.0569 10.6594 9.908V9.9084ZM19 4H5C4.20435 4 3.44129 4.31607 2.87868 4.87868C2.31607 5.44129 2 6.20435 2 7V17C2 17.7956 2.31607 18.5587 2.87868 19.1213C3.44129 19.6839 4.20435 20 5 20H19C19.7956 20 20.5587 19.6839 21.1213 19.1213C21.6839 18.5587 22 17.7956 22 17V7C22 6.20435 21.6839 5.44129 21.1213 4.87868C20.5587 4.31607 19.7956 4 19 4ZM20 9H17V11H20V17C19.9997 17.2651 19.8943 17.5193 19.7068 17.7068C19.5193 17.8943 19.2651 17.9997 19 18H5C4.73487 17.9997 4.48069 17.8943 4.29321 17.7068C4.10574 17.5193 4.00029 17.2651 4 17V11H7V9H4V7C4.00029 6.73487 4.10574 6.48069 4.29321 6.29321C4.48069 6.10574 4.73487 6.00029 5 6H19C19.2651 6.00029 19.5193 6.10574 19.7068 6.29321C19.8943 6.48069 19.9997 6.73487 20 7V9Z" fill="black"/>
</svg>
