<svg width="24" height="24" viewBox="0 0 24 24" fill="none" xmlns="http://www.w3.org/2000/svg">
<path d="M19.5 4H4.5C3.83696 4 3.20107 4.26339 2.73223 4.73223C2.26339 5.20107 2 5.83696 2 6.5V17.5C2 18.163 2.26339 18.7989 2.73223 19.2678C3.20107 19.7366 3.83696 20 4.5 20H19.5C20.163 20 20.7989 19.7366 21.2678 19.2678C21.7366 18.7989 22 18.163 22 17.5V6.5C22 5.83696 21.7366 5.20107 21.2678 4.73223C20.7989 4.26339 20.163 4 19.5 4ZM9.86 15H9.2246V16.05H8.7754V15H6.75V14.5H9.86C10.1584 14.5 10.4445 14.3815 10.6555 14.1705C10.8665 13.9595 10.985 13.6734 10.985 13.375C10.985 13.0766 10.8665 12.7905 10.6555 12.5795C10.4445 12.3685 10.1584 12.25 9.86 12.25H8.125C7.69402 12.25 7.2807 12.0788 6.97595 11.774C6.67121 11.4693 6.5 11.056 6.5 10.625C6.5 10.194 6.67121 9.7807 6.97595 9.47595C7.2807 9.1712 7.69402 9 8.125 9H8.775V7.95H9.2242V9H10.9842V9.5H8.125C7.82663 9.5 7.54048 9.61853 7.3295 9.8295C7.11853 10.0405 7 10.3266 7 10.625C7 10.9234 7.11853 11.2095 7.3295 11.4205C7.54048 11.6315 7.82663 11.75 8.125 11.75H9.86C10.291 11.75 10.7043 11.9212 11.009 12.226C11.3138 12.5307 11.485 12.944 11.485 13.375C11.485 13.806 11.3138 14.2193 11.009 14.524C10.7043 14.8288 10.291 15 9.86 15Z" fill="black"/>
</svg>
