<svg width="24" height="24" viewBox="0 0 24 24" fill="none" xmlns="http://www.w3.org/2000/svg">
<path d="M15.2159 1.7841H8.7841L12 5L15.2159 1.7841ZM20 8H4C3.46957 8 2.96086 8.21072 2.58579 8.58579C2.21071 8.96086 2 9.46957 2 10C2 10.5304 2.21071 11.0391 2.58579 11.4142C2.96086 11.7893 3.46957 12 4 12H5V22H19V12H20C20.5304 12 21.0391 11.7893 21.4142 11.4142C21.7893 11.0391 22 10.5304 22 10C22 9.46957 21.7893 8.96086 21.4142 8.58579C21.0391 8.21072 20.5304 8 20 8ZM5 10.5H4C3.86739 10.5 3.74021 10.4473 3.64645 10.3536C3.55268 10.2598 3.5 10.1326 3.5 10C3.5 9.8674 3.55268 9.74022 3.64645 9.64645C3.74021 9.55268 3.86739 9.5 4 9.5H5V10.5ZM17.5 20.5H6.5V9.5H17.5V20.5ZM20 10.5H19V9.5H20C20.1326 9.5 20.2598 9.55268 20.3536 9.64645C20.4473 9.74022 20.5 9.8674 20.5 10C20.5 10.1326 20.4473 10.2598 20.3536 10.3536C20.2598 10.4473 20.1326 10.5 20 10.5ZM12 17C12.5933 17 13.1734 16.8241 13.6667 16.4944C14.1601 16.1648 14.5446 15.6962 14.7716 15.1481C14.9987 14.5999 15.0581 13.9967 14.9424 13.4147C14.8266 12.8328 14.5409 12.2982 14.1213 11.8787C13.7018 11.4591 13.1672 11.1734 12.5853 11.0576C12.0033 10.9419 11.4001 11.0013 10.8519 11.2284C10.3038 11.4554 9.83524 11.8399 9.50559 12.3333C9.17595 12.8266 9 13.4067 9 14C9 14.7957 9.31607 15.5587 9.87868 16.1213C10.4413 16.6839 11.2044 17 12 17ZM12 12.5C12.2967 12.5 12.5867 12.588 12.8334 12.7528C13.08 12.9176 13.2723 13.1519 13.3858 13.426C13.4994 13.7001 13.5291 14.0017 13.4712 14.2926C13.4133 14.5836 13.2704 14.8509 13.0607 15.0607C12.8509 15.2704 12.5836 15.4133 12.2926 15.4712C12.0017 15.5291 11.7001 15.4994 11.426 15.3858C11.1519 15.2723 10.9176 15.08 10.7528 14.8334C10.588 14.5867 10.5 14.2967 10.5 14C10.5005 13.6023 10.6586 13.221 10.9398 12.9398C11.221 12.6586 11.6023 12.5005 12 12.5Z" fill="black"/>
</svg>
