<svg width="24" height="24" viewBox="0 0 24 24" fill="none" xmlns="http://www.w3.org/2000/svg">
<path d="M20 4H4C3.46957 4 2.96086 4.21071 2.58579 4.58579C2.21071 4.96086 2 5.46957 2 6C2 6.53043 2.21071 7.03914 2.58579 7.41421C2.96086 7.78929 3.46957 8 4 8H5V18C5 18.7956 5.31607 19.5587 5.87868 20.1213C6.44129 20.6839 7.20435 21 8 21H16C16.7956 21 17.5587 20.6839 18.1213 20.1213C18.6839 19.5587 19 18.7956 19 18V8H20C20.5304 8 21.0391 7.78929 21.4142 7.41421C21.7893 7.03914 22 6.53043 22 6C22 5.46957 21.7893 4.96086 21.4142 4.58579C21.0391 4.21071 20.5304 4 20 4ZM4 6.5C3.86739 6.5 3.74021 6.44732 3.64645 6.35355C3.55268 6.25979 3.5 6.13261 3.5 6C3.5 5.86739 3.55268 5.74021 3.64645 5.64645C3.74021 5.55268 3.86739 5.5 4 5.5H5V6.5H4ZM8 19.5C7.60231 19.4995 7.22104 19.3414 6.93984 19.0602C6.65863 18.779 6.50045 18.3977 6.5 18V5.5H10V19.5H8ZM17.5 18C17.4995 18.3977 17.3414 18.779 17.0602 19.0602C16.779 19.3414 16.3977 19.4995 16 19.5H11.5V5.5H17.5V18ZM20 6.5H19V5.5H20C20.1326 5.5 20.2598 5.55268 20.3536 5.64645C20.4473 5.74021 20.5 5.86739 20.5 6C20.5 6.13261 20.4473 6.25979 20.3536 6.35355C20.2598 6.44732 20.1326 6.5 20 6.5Z" fill="black"/>
</svg>
