<svg width="24" height="24" viewBox="0 0 24 24" fill="none" xmlns="http://www.w3.org/2000/svg">
<path d="M1 5V19H23V5H1ZM22 18H2V6H22V18ZM9.2823 12.5747H11.4223L10.835 15.5581H11.7112L13.2712 12.5747H15.7879C15.9383 12.5747 16.0824 12.515 16.1888 12.4087C16.2951 12.3023 16.3548 12.1582 16.3548 12.0078C16.3548 11.8574 16.2951 11.7133 16.1888 11.6069C16.0824 11.5006 15.9383 11.4409 15.7879 11.4409H13.2706L11.7106 8.4419H10.8344L11.4217 11.4409H9.2823L8.7294 10.4263H8.1914V13.5894H8.7294L9.2823 12.5747Z" fill="black"/>
</svg>
