<svg width="24" height="24" viewBox="0 0 24 24" fill="none" xmlns="http://www.w3.org/2000/svg">
<path d="M20.5 4H3.5C2.96957 4 2.46086 4.21071 2.08579 4.58579C1.71071 4.96086 1.5 5.46957 1.5 6C1.5 6.53043 1.71071 7.03914 2.08579 7.41421C2.46086 7.78929 2.96957 8 3.5 8H4V6H5V21H19V6H20V8H20.5C21.0304 8 21.5391 7.78929 21.9142 7.41421C22.2893 7.03914 22.5 6.53043 22.5 6C22.5 5.46957 22.2893 4.96086 21.9142 4.58579C21.5391 4.21071 21.0304 4 20.5 4ZM12 14C11.4067 14 10.8266 13.8241 10.3333 13.4944C9.83994 13.1648 9.45542 12.6962 9.22836 12.1481C9.0013 11.5999 8.94189 10.9967 9.05764 10.4147C9.1734 9.83279 9.45912 9.29824 9.87868 8.87868C10.2982 8.45912 10.8328 8.1734 11.4147 8.05764C11.9967 7.94189 12.5999 8.0013 13.1481 8.22836C13.6962 8.45542 14.1648 8.83994 14.4944 9.33329C14.8241 9.82664 15 10.4067 15 11C15 11.7956 14.6839 12.5587 14.1213 13.1213C13.5587 13.6839 12.7956 14 12 14Z" fill="black"/>
</svg>
