<svg width="24" height="24" viewBox="0 0 24 24" fill="none" xmlns="http://www.w3.org/2000/svg">
<path d="M1 5V19H23V5H1ZM22 18H2V6H22V18ZM12 15.8C13.4167 14.85 16 12.4222 16 10.5222C16.027 10.2265 15.9918 9.92843 15.8967 9.64713C15.8017 9.36584 15.6488 9.10754 15.4479 8.88884C15.2471 8.67015 15.0027 8.49588 14.7305 8.37725C14.4583 8.25862 14.1643 8.19824 13.8674 8.2C13.4931 8.21783 13.1284 8.32465 12.8037 8.51161C12.4789 8.69856 12.2034 8.96027 12 9.275C11.7966 8.96025 11.5211 8.69855 11.1964 8.51159C10.8716 8.32463 10.5069 8.21781 10.1326 8.2C9.83568 8.19824 9.54167 8.25862 9.26947 8.37725C8.99727 8.49588 8.7529 8.67015 8.55206 8.88884C8.35122 9.10754 8.19835 9.36584 8.10327 9.64713C8.0082 9.92843 7.97302 10.2265 8 10.5222C8 12.4222 10.5833 14.85 12 15.8ZM10.1326 9.2C10.3515 9.22132 10.5623 9.29377 10.7481 9.4115C10.9339 9.52923 11.0894 9.68895 11.2021 9.8778L12 10.934L12.7979 9.8777C12.9107 9.68888 13.0662 9.52919 13.2519 9.41148C13.4377 9.29377 13.6485 9.22133 13.8674 9.2C14.9184 9.2 15 10.212 15 10.5222C15 11.6877 13.3793 13.4828 12 14.5634C10.6206 13.4828 9 11.6877 9 10.5222C9 10.212 9.0817 9.2 10.1326 9.2Z" fill="black"/>
</svg>
