<svg width="24" height="24" viewBox="0 0 24 24" fill="none" xmlns="http://www.w3.org/2000/svg">
<path d="M15.93 8L14.5029 2.6733C14.4309 2.4209 14.2626 2.2069 14.0343 2.07749C13.806 1.94807 13.5359 1.91361 13.2824 1.98154C13.0289 2.04948 12.8122 2.21436 12.6792 2.44061C12.5462 2.66686 12.5074 2.93634 12.5713 3.1909L13.86 8H10.14L11.4285 3.1909C11.4924 2.93634 11.4536 2.66686 11.3206 2.44061C11.1876 2.21436 10.9709 2.04948 10.7174 1.98154C10.4639 1.91361 10.1938 1.94807 9.9655 2.07749C9.73716 2.2069 9.56886 2.4209 9.4969 2.6733L8.07 8H1V9.9L3.9385 21H20.0615L22.9658 10.1587L23 8H15.93ZM18.5267 19H5.4779L3.0954 10H20.9378L18.5267 19ZM7.8116 13.9766C8.03905 13.9766 8.26139 13.9092 8.45051 13.7828C8.63962 13.6564 8.78702 13.4768 8.87406 13.2667C8.9611 13.0566 8.98388 12.8253 8.9395 12.6023C8.89513 12.3792 8.7856 12.1743 8.62477 12.0134C8.46394 11.8526 8.25903 11.7431 8.03595 11.6987C7.81288 11.6543 7.58165 11.6771 7.37151 11.7641C7.16138 11.8512 6.98177 11.9986 6.85541 12.1877C6.72905 12.3768 6.6616 12.5992 6.6616 12.8266C6.6616 12.9776 6.69135 13.1272 6.74914 13.2667C6.80693 13.4062 6.89164 13.533 6.99843 13.6398C7.10521 13.7466 7.23199 13.8313 7.37151 13.8891C7.51104 13.9469 7.66058 13.9766 7.8116 13.9766ZM16.1884 13.9766C16.4158 13.9766 16.6382 13.9092 16.8273 13.7828C17.0164 13.6564 17.1638 13.4768 17.2509 13.2667C17.3379 13.0566 17.3607 12.8253 17.3163 12.6023C17.2719 12.3792 17.1624 12.1743 17.0016 12.0134C16.8407 11.8526 16.6358 11.7431 16.4128 11.6987C16.1897 11.6543 15.9584 11.6771 15.7483 11.7641C15.5382 11.8512 15.3586 11.9986 15.2322 12.1877C15.1058 12.3768 15.0384 12.5992 15.0384 12.8266C15.0384 13.1316 15.1596 13.4241 15.3752 13.6398C15.5909 13.8554 15.8834 13.9766 16.1884 13.9766Z" fill="black"/>
</svg>
