<svg width="24" height="24" viewBox="0 0 24 24" fill="none" xmlns="http://www.w3.org/2000/svg">
<path d="M15.7661 8L14.0107 2.7734C13.9917 2.70889 13.9599 2.64887 13.9171 2.59694C13.8744 2.54501 13.8216 2.50223 13.762 2.47117C13.7023 2.44011 13.637 2.4214 13.57 2.41617C13.5029 2.41094 13.4355 2.41929 13.3718 2.44072C13.308 2.46214 13.2492 2.49621 13.199 2.54089C13.1487 2.58556 13.1079 2.63991 13.0792 2.7007C13.0504 2.76149 13.0342 2.82745 13.0315 2.89465C13.0288 2.96186 13.0397 3.02891 13.0635 3.0918L14.7119 8H9.2884L10.9365 3.0918C10.973 2.96774 10.9601 2.83434 10.9004 2.71963C10.8406 2.60492 10.7388 2.51781 10.6162 2.47661C10.4936 2.4354 10.3598 2.44329 10.2429 2.49863C10.126 2.55398 10.0351 2.65246 9.9893 2.7734L8.2342 8H1V9.9L3.9385 21H20.0615L22.9658 10.1587L23 8H15.7661ZM7.8116 11.4766C7.68304 11.4766 7.55737 11.4385 7.45048 11.3671C7.34359 11.2956 7.26028 11.1941 7.21108 11.0753C7.16188 10.9566 7.14901 10.8259 7.17409 10.6998C7.19917 10.5737 7.26108 10.4579 7.35198 10.367C7.44288 10.2761 7.5587 10.2142 7.68479 10.1891C7.81088 10.164 7.94157 10.1769 8.06034 10.2261C8.17912 10.2753 8.28063 10.3586 8.35206 10.4655C8.42348 10.5724 8.4616 10.698 8.4616 10.8266C8.4616 10.999 8.39312 11.1643 8.27122 11.2862C8.14932 11.4081 7.98399 11.4766 7.8116 11.4766ZM16.1884 11.4766C16.0598 11.4766 15.9342 11.4385 15.8273 11.3671C15.7204 11.2956 15.6371 11.1941 15.5879 11.0753C15.5387 10.9566 15.5258 10.8259 15.5509 10.6998C15.576 10.5737 15.6379 10.4579 15.7288 10.367C15.8197 10.2761 15.9355 10.2142 16.0616 10.1891C16.1877 10.164 16.3184 10.1769 16.4371 10.2261C16.5559 10.2753 16.6574 10.3586 16.7289 10.4655C16.8003 10.5724 16.8384 10.698 16.8384 10.8266C16.8384 10.999 16.7699 11.1643 16.648 11.2862C16.5261 11.4081 16.3608 11.4766 16.1884 11.4766Z" fill="black"/>
</svg>
