<svg width="24" height="24" viewBox="0 0 24 24" fill="none" xmlns="http://www.w3.org/2000/svg">
<path d="M9.66 11.35H8.34C8.20327 11.3462 8.07341 11.2893 7.97803 11.1912C7.88266 11.0932 7.82929 10.9618 7.82929 10.825C7.82929 10.6882 7.88266 10.5568 7.97803 10.4588C8.07341 10.3607 8.20327 10.3038 8.34 10.3H10.9846V9H9.6V7.95H8.4V9H8.34C7.85598 9 7.39178 9.19228 7.04953 9.53453C6.70728 9.87678 6.515 10.341 6.515 10.825C6.515 11.309 6.70728 11.7732 7.04953 12.1155C7.39178 12.4577 7.85598 12.65 8.34 12.65H9.66C9.79673 12.6538 9.92659 12.7107 10.022 12.8088C10.1173 12.9068 10.1707 13.0382 10.1707 13.175C10.1707 13.3118 10.1173 13.4432 10.022 13.5412C9.92659 13.6393 9.79673 13.6962 9.66 13.7H6.75V15H8.4V16.05H9.6V15H9.66C9.89966 15 10.137 14.9528 10.3584 14.8611C10.5798 14.7694 10.781 14.6349 10.9505 14.4655C11.1199 14.296 11.2544 14.0948 11.3461 13.8734C11.4378 13.652 11.485 13.4147 11.485 13.175C11.485 12.9353 11.4378 12.698 11.3461 12.4766C11.2544 12.2552 11.1199 12.054 10.9505 11.8845C10.781 11.7151 10.5798 11.5806 10.3584 11.4889C10.137 11.3972 9.89966 11.35 9.66 11.35ZM19 4H5C4.20435 4 3.44129 4.31607 2.87868 4.87868C2.31607 5.44129 2 6.20435 2 7V17C2 17.7956 2.31607 18.5587 2.87868 19.1213C3.44129 19.6839 4.20435 20 5 20H19C19.7956 20 20.5587 19.6839 21.1213 19.1213C21.6839 18.5587 22 17.7956 22 17V7C22 6.20435 21.6839 5.44129 21.1213 4.87868C20.5587 4.31607 19.7956 4 19 4ZM20 17C19.9997 17.2651 19.8943 17.5193 19.7068 17.7068C19.5193 17.8943 19.2651 17.9997 19 18H5C4.73487 17.9997 4.48069 17.8943 4.29321 17.7068C4.10574 17.5193 4.00029 17.2651 4 17V7C4.00029 6.73487 4.10574 6.48069 4.29321 6.29321C4.48069 6.10574 4.73487 6.00029 5 6H19C19.2651 6.00029 19.5193 6.10574 19.7068 6.29321C19.8943 6.48069 19.9997 6.73487 20 7V17Z" fill="black"/>
</svg>
