<svg width="24" height="24" viewBox="0 0 24 24" fill="none" xmlns="http://www.w3.org/2000/svg">
<path d="M20.5 4H3.5C3.10218 4 2.72064 4.15804 2.43934 4.43934C2.15804 4.72064 2 5.10218 2 5.5C2 5.89782 2.15804 6.27936 2.43934 6.56066C2.72064 6.84196 3.10218 7 3.5 7H5V18C5 18.7956 5.31607 19.5587 5.87868 20.1213C6.44129 20.6839 7.20435 21 8 21H16C16.7956 21 17.5587 20.6839 18.1213 20.1213C18.6839 19.5587 19 18.7956 19 18V7H20.5C20.8978 7 21.2794 6.84196 21.5607 6.56066C21.842 6.27936 22 5.89782 22 5.5C22 5.10218 21.842 4.72064 21.5607 4.43934C21.2794 4.15804 20.8978 4 20.5 4ZM3.5 6.5C3.23478 6.5 2.98043 6.39464 2.79289 6.20711C2.60536 6.01957 2.5 5.76522 2.5 5.5C2.5 5.23478 2.60536 4.98043 2.79289 4.79289C2.98043 4.60536 3.23478 4.5 3.5 4.5H5V6.5H3.5ZM5.5 18V4.5H8.5V20.5H8C7.33719 20.4993 6.70173 20.2356 6.23305 19.7669C5.76437 19.2983 5.50074 18.6628 5.5 18ZM9 20.5V4.5H11.5V20.5H9ZM18.5 18C18.4993 18.6628 18.2356 19.2983 17.7669 19.7669C17.2983 20.2356 16.6628 20.4993 16 20.5H12V4.5H18.5V18ZM20.5 6.5H19V4.5H20.5C20.7652 4.5 21.0196 4.60536 21.2071 4.79289C21.3946 4.98043 21.5 5.23478 21.5 5.5C21.5 5.76522 21.3946 6.01957 21.2071 6.20711C21.0196 6.39464 20.7652 6.5 20.5 6.5Z" fill="black"/>
</svg>
