<svg width="24" height="24" viewBox="0 0 24 24" fill="none" xmlns="http://www.w3.org/2000/svg">
<path d="M20.5 4H3.5C3.10218 4 2.72064 4.15804 2.43934 4.43934C2.15804 4.72064 2 5.10218 2 5.5C2 5.89782 2.15804 6.27936 2.43934 6.56066C2.72064 6.84196 3.10218 7 3.5 7H5V18C5 18.7956 5.31607 19.5587 5.87868 20.1213C6.44129 20.6839 7.20435 21 8 21H16C16.7956 21 17.5587 20.6839 18.1213 20.1213C18.6839 19.5587 19 18.7956 19 18V7H20.5C20.8978 7 21.2794 6.84196 21.5607 6.56066C21.842 6.27936 22 5.89782 22 5.5C22 5.10218 21.842 4.72064 21.5607 4.43934C21.2794 4.15804 20.8978 4 20.5 4ZM3.5 6C3.36739 6 3.24021 5.94732 3.14645 5.85355C3.05268 5.75979 3 5.63261 3 5.5C3 5.36739 3.05268 5.24021 3.14645 5.14645C3.24021 5.05268 3.36739 5 3.5 5H5V6H3.5ZM6 18V5H8V20C7.46975 19.9994 6.9614 19.7885 6.58646 19.4135C6.21152 19.0386 6.00061 18.5302 6 18ZM9 20V5H11V20H9ZM18 18C17.9994 18.5302 17.7885 19.0386 17.4135 19.4135C17.0386 19.7885 16.5302 19.9994 16 20H12V5H18V18ZM20.5 6H19V5H20.5C20.6326 5 20.7598 5.05268 20.8536 5.14645C20.9473 5.24021 21 5.36739 21 5.5C21 5.63261 20.9473 5.75979 20.8536 5.85355C20.7598 5.94732 20.6326 6 20.5 6Z" fill="black"/>
</svg>
