<svg width="24" height="24" viewBox="0 0 24 24" fill="none" xmlns="http://www.w3.org/2000/svg">
<path d="M19.5 4H4.5C3.83696 4 3.20107 4.26339 2.73223 4.73223C2.26339 5.20107 2 5.83696 2 6.5V17.5C2 18.163 2.26339 18.7989 2.73223 19.2678C3.20107 19.7366 3.83696 20 4.5 20H19.5C20.163 20 20.7989 19.7366 21.2678 19.2678C21.7366 18.7989 22 18.163 22 17.5V6.5C22 5.83696 21.7366 5.20107 21.2678 4.73223C20.7989 4.26339 20.163 4 19.5 4ZM21 8H15.7671C16.0854 8.29894 16.3671 8.63462 16.6063 9H21V11H17.4048C17.4669 11.3297 17.4988 11.6645 17.5 12H21V17.5C20.9995 17.8977 20.8414 18.279 20.5602 18.5602C20.279 18.8414 19.8977 18.9995 19.5 19H4.5C4.10231 18.9995 3.72104 18.8414 3.43984 18.5602C3.15863 18.279 3.00045 17.8977 3 17.5V12H6.5C6.50122 11.6645 6.53308 11.3297 6.5952 11H3V9H7.3937C7.63286 8.63462 7.91457 8.29894 8.2329 8H3V6.5C3.00045 6.10231 3.15863 5.72104 3.43984 5.43984C3.72104 5.15863 4.10231 5.00045 4.5 5H19.5C19.8977 5.00045 20.279 5.15863 20.5602 5.43984C20.8414 5.72104 20.9995 6.10231 21 6.5V8ZM12 8.75C11.3572 8.75 10.7289 8.94061 10.1944 9.29772C9.65994 9.65484 9.24338 10.1624 8.99739 10.7563C8.75141 11.3501 8.68705 12.0036 8.81245 12.634C8.93785 13.2645 9.24738 13.8436 9.7019 14.2981C10.1564 14.7526 10.7355 15.0622 11.366 15.1876C11.9964 15.313 12.6499 15.2486 13.2437 15.0026C13.8376 14.7566 14.3452 14.3401 14.7023 13.8056C15.0594 13.2711 15.25 12.6428 15.25 12C15.25 11.138 14.9076 10.3114 14.2981 9.7019C13.6886 9.09241 12.862 8.75 12 8.75ZM12 14.35C11.5352 14.35 11.0809 14.2122 10.6944 13.954C10.308 13.6957 10.0067 13.3287 9.82888 12.8993C9.65102 12.4699 9.60448 11.9974 9.69515 11.5415C9.78583 11.0857 10.0096 10.667 10.3383 10.3383C10.667 10.0096 11.0857 9.78583 11.5415 9.69515C11.9974 9.60448 12.4699 9.65102 12.8993 9.82888C13.3287 10.0067 13.6957 10.308 13.954 10.6944C14.2122 11.0809 14.35 11.5352 14.35 12C14.3493 12.623 14.1015 13.2204 13.6609 13.6609C13.2204 14.1015 12.623 14.3493 12 14.35Z" fill="black"/>
</svg>
