<svg width="24" height="24" viewBox="0 0 24 24" fill="none" xmlns="http://www.w3.org/2000/svg">
<path d="M16.2141 9C18.9291 7.6461 19.0709 5.9367 19.0075 5.27C18.9176 4.51988 18.5557 3.82878 17.9903 3.32763C17.425 2.82648 16.6955 2.55008 15.94 2.5508H15.8925C14.5755 2.5417 12.8946 3.4681 11.9998 6.5521C11.1046 3.4754 9.4244 2.56 8.1077 2.5508C8.0915 2.5508 8.0759 2.5508 8.0602 2.5508C7.30468 2.55003 6.57511 2.82641 6.00973 3.32757C5.44434 3.82872 5.08241 4.51985 4.9925 5.27C4.9291 5.9367 5.0709 7.6461 7.7859 9H3V21H21V9H16.2141ZM15.9128 4.0508C15.9209 4.0508 15.9294 4.0508 15.9375 4.0508C16.3234 4.04653 16.6974 4.18425 16.9884 4.43778C17.2794 4.69131 17.467 5.04294 17.5156 5.4258C17.6175 6.5612 16.2969 7.9912 12.8685 8.778C13.3577 5.3287 14.7507 4.0618 15.9128 4.0508ZM6.4844 5.4258C6.533 5.04294 6.72063 4.69131 7.0116 4.43778C7.30258 4.18425 7.67659 4.04653 8.0625 4.0508C8.0706 4.0508 8.0791 4.0508 8.0872 4.0508C9.2493 4.0618 10.6423 5.3287 11.1315 8.778C7.7031 7.9912 6.3825 6.5612 6.4844 5.4258ZM4.5 19.5V10.5H11.25V19.5H4.5ZM19.5 19.5H12.75V10.5H19.5V19.5Z" fill="black"/>
</svg>
