<svg width="24" height="24" viewBox="0 0 24 24" fill="none" xmlns="http://www.w3.org/2000/svg">
<path d="M19.5 4H4.5C3.83696 4 3.20107 4.26339 2.73223 4.73223C2.26339 5.20107 2 5.83696 2 6.5V17.5C2 18.163 2.26339 18.7989 2.73223 19.2678C3.20107 19.7366 3.83696 20 4.5 20H19.5C20.163 20 20.7989 19.7366 21.2678 19.2678C21.7366 18.7989 22 18.163 22 17.5V6.5C22 5.83696 21.7366 5.20107 21.2678 4.73223C20.7989 4.26339 20.163 4 19.5 4ZM21 17.5C20.9995 17.8977 20.8414 18.279 20.5602 18.5602C20.279 18.8414 19.8977 18.9995 19.5 19H4.5C4.10231 18.9995 3.72104 18.8414 3.43984 18.5602C3.15863 18.279 3.00045 17.8977 3 17.5V12H21V17.5ZM21 11H3V9H21V11ZM3 8V6.5C3.00045 6.10231 3.15863 5.72104 3.43984 5.43984C3.72104 5.15863 4.10231 5.00045 4.5 5H19.5C19.8977 5.00045 20.279 5.15863 20.5602 5.43984C20.8414 5.72104 20.9995 6.10231 21 6.5V8H3Z" fill="black"/>
</svg>
