<svg width="24" height="24" viewBox="0 0 24 24" fill="none" xmlns="http://www.w3.org/2000/svg">
<path d="M15.6718 8L14.2618 2.7383C14.2363 2.64314 14.1923 2.55394 14.1323 2.4758C14.0723 2.39765 13.9975 2.33209 13.9121 2.28285C13.8268 2.23361 13.7326 2.20166 13.6349 2.18883C13.5373 2.17599 13.438 2.18252 13.3428 2.20805C13.2477 2.23357 13.1585 2.27758 13.0804 2.33758C13.0022 2.39757 12.9366 2.47237 12.8874 2.5577C12.8382 2.64303 12.8062 2.73723 12.7934 2.83491C12.7805 2.93259 12.7871 3.03184 12.8126 3.127L14.1183 8H9.8817L11.1875 3.127C11.213 3.03184 11.2196 2.93259 11.2067 2.83491C11.1939 2.73723 11.1619 2.64303 11.1127 2.5577C11.0635 2.47237 10.9979 2.39757 10.9197 2.33758C10.8416 2.27758 10.7524 2.23357 10.6573 2.20805C10.5621 2.18252 10.4628 2.17599 10.3652 2.18883C10.2675 2.20166 10.1733 2.23361 10.088 2.28285C10.0026 2.33209 9.92782 2.39765 9.86783 2.4758C9.80784 2.55394 9.76382 2.64314 9.7383 2.7383L8.3282 8H1V9.9L3.9385 21H20.0615L22.9658 10.1587L23 8H15.6718ZM21.4689 9.95L18.9105 19.5H5.0931L2.5 9.7047V9.5H21.4761L21.4689 9.95ZM7.8116 13.7266C7.9896 13.7266 8.16361 13.6738 8.31161 13.5749C8.45962 13.476 8.57497 13.3355 8.64309 13.171C8.71121 13.0066 8.72903 12.8256 8.69431 12.651C8.65958 12.4764 8.57386 12.3161 8.448 12.1902C8.32213 12.0643 8.16176 11.9786 7.98718 11.9439C7.8126 11.9092 7.63164 11.927 7.46719 11.9951C7.30273 12.0632 7.16217 12.1786 7.06328 12.3266C6.96438 12.4746 6.9116 12.6486 6.9116 12.8266C6.9116 13.0653 7.00642 13.2942 7.1752 13.463C7.34399 13.6318 7.57291 13.7266 7.8116 13.7266ZM16.1884 13.7266C16.3664 13.7266 16.5404 13.6738 16.6884 13.5749C16.8364 13.476 16.9518 13.3355 17.0199 13.171C17.088 13.0066 17.1058 12.8256 17.0711 12.651C17.0364 12.4764 16.9507 12.3161 16.8248 12.1902C16.6989 12.0643 16.5386 11.9786 16.364 11.9439C16.1894 11.9092 16.0084 11.927 15.844 11.9951C15.6795 12.0632 15.539 12.1786 15.4401 12.3266C15.3412 12.4746 15.2884 12.6486 15.2884 12.8266C15.2884 13.0653 15.3832 13.2942 15.552 13.463C15.7208 13.6318 15.9497 13.7266 16.1884 13.7266Z" fill="black"/>
</svg>
