<svg width="24" height="24" viewBox="0 0 24 24" fill="none" xmlns="http://www.w3.org/2000/svg">
<path d="M18.5 9H13.66C18.3038 7.9415 18.5743 5.7015 18.5284 4.9559C18.4755 4.28628 18.1767 3.65991 17.6896 3.19742C17.2025 2.73494 16.5615 2.46906 15.89 2.451L15.86 2.45C15.0638 2.45 12.784 2.8943 12 7.782C11.2156 2.8944 8.9358 2.45 8.14 2.45L8.11 2.451C7.43856 2.46909 6.79755 2.73498 6.31044 3.19746C5.82334 3.65994 5.52457 4.2863 5.4717 4.9559C5.4258 5.7015 5.6963 7.9415 10.34 9H5.5C4.83696 9 4.20107 9.26339 3.73223 9.73223C3.26339 10.2011 3 10.837 3 11.5V18.5C3 19.163 3.26339 19.7989 3.73223 20.2678C4.20107 20.7366 4.83696 21 5.5 21H18.5C19.163 21 19.7989 20.7366 20.2678 20.2678C20.7366 19.7989 21 19.163 21 18.5V11.5C21 10.837 20.7366 10.2011 20.2678 9.73223C19.7989 9.26339 19.163 9 18.5 9ZM15.8555 2.95L15.8828 2.9509C16.4289 2.96536 16.9503 3.18137 17.3466 3.55731C17.7429 3.93326 17.9861 4.44255 18.0293 4.9871C18.1182 6.4295 16.6465 8.1843 12.2793 8.8562C12.7373 4.5077 14.4082 2.95 15.8555 2.95ZM5.9707 4.9872C6.01392 4.44265 6.25711 3.93336 6.65342 3.55741C7.04973 3.18147 7.57113 2.96546 8.1172 2.951L8.1445 2.95C9.5918 2.95 11.2627 4.5076 11.7207 8.8562C7.3535 8.1844 5.8818 6.43 5.9707 4.9872ZM20.5 18.5C20.4994 19.0302 20.2885 19.5386 19.9135 19.9135C19.5386 20.2885 19.0302 20.4994 18.5 20.5H5.5C4.96975 20.4994 4.4614 20.2885 4.08646 19.9135C3.71152 19.5386 3.50061 19.0302 3.5 18.5V15.5H20.5V18.5ZM20.5 15H3.5V13H20.5V15ZM3.5 12.5V11.5C3.50061 10.9698 3.71152 10.4614 4.08646 10.0865C4.4614 9.71152 4.96975 9.50061 5.5 9.5H18.5C19.0302 9.50061 19.5386 9.71152 19.9135 10.0865C20.2885 10.4614 20.4994 10.9698 20.5 11.5V12.5H3.5Z" fill="black"/>
</svg>
