<svg width="24" height="24" viewBox="0 0 24 24" fill="none" xmlns="http://www.w3.org/2000/svg">
<path d="M1 5V19H23V5H1ZM22.5 18.5H1.5V5.5H22.5V18.5ZM12 15.8C13.4167 14.85 16 12.4222 16 10.5222C16.027 10.2265 15.9918 9.92843 15.8967 9.64713C15.8017 9.36584 15.6488 9.10754 15.4479 8.88884C15.2471 8.67015 15.0027 8.49588 14.7305 8.37725C14.4583 8.25862 14.1643 8.19824 13.8674 8.2C13.4931 8.21783 13.1284 8.32465 12.8037 8.51161C12.4789 8.69856 12.2034 8.96027 12 9.275C11.7966 8.96025 11.5211 8.69855 11.1964 8.51159C10.8716 8.32463 10.5069 8.21781 10.1326 8.2C9.83568 8.19824 9.54167 8.25862 9.26947 8.37725C8.99727 8.49588 8.7529 8.67015 8.55206 8.88884C8.35122 9.10754 8.19835 9.36584 8.10327 9.64713C8.0082 9.92843 7.97302 10.2265 8 10.5222C8 12.4222 10.5833 14.85 12 15.8ZM10.1326 8.7C10.4295 8.71848 10.7177 8.80766 10.9731 8.96011C11.2286 9.11256 11.4439 9.32386 11.6011 9.5764L12 10.1044L12.399 9.5763C12.5562 9.32377 12.7715 9.11248 13.0269 8.96005C13.2823 8.80761 13.5705 8.71845 13.8674 8.7C14.0984 8.69945 14.3269 8.74775 14.538 8.84173C14.749 8.9357 14.9378 9.07323 15.092 9.2453C15.2461 9.41736 15.3622 9.62007 15.4325 9.84013C15.5028 10.0602 15.5258 10.2926 15.5 10.5222C15.5 11.9545 13.55 14.063 12 15.1901C10.45 14.063 8.5 11.9545 8.5 10.5222C8.47418 10.2926 8.49718 10.0602 8.56749 9.84013C8.63781 9.62007 8.75385 9.41736 8.90801 9.2453C9.06217 9.07323 9.25097 8.9357 9.46201 8.84173C9.67305 8.74775 9.90158 8.69945 10.1326 8.7Z" fill="black"/>
</svg>
