<svg width="24" height="24" viewBox="0 0 24 24" fill="none" xmlns="http://www.w3.org/2000/svg">
<path d="M14.0071 14.5728C13.9178 14.5728 13.8305 14.5992 13.7563 14.6488C13.682 14.6984 13.6242 14.7689 13.59 14.8514C13.5558 14.9339 13.5469 15.0247 13.5643 15.1122C13.5817 15.1998 13.6247 15.2803 13.6878 15.3434C13.7509 15.4065 13.8314 15.4495 13.919 15.4669C14.0065 15.4843 14.0973 15.4754 14.1798 15.4412C14.2623 15.407 14.3328 15.3492 14.3824 15.2749C14.432 15.2007 14.4584 15.1134 14.4584 15.0241C14.4582 14.9045 14.4106 14.7898 14.326 14.7052C14.2414 14.6206 14.1267 14.573 14.0071 14.5728ZM10.4443 10.9758C10.4443 10.8865 10.4178 10.7992 10.3682 10.725C10.3186 10.6508 10.2481 10.5929 10.1656 10.5588C10.0832 10.5246 9.9924 10.5157 9.90484 10.5331C9.81727 10.5505 9.73684 10.5935 9.67371 10.6566C9.61058 10.7197 9.56759 10.8002 9.55017 10.8877C9.53276 10.9753 9.5417 11.0661 9.57586 11.1485C9.61003 11.231 9.66788 11.3015 9.74212 11.3511C9.81635 11.4007 9.90362 11.4272 9.9929 11.4272C10.1126 11.4271 10.2273 11.3795 10.3119 11.2948C10.3966 11.2102 10.4442 11.0955 10.4443 10.9758ZM12 2.8038L3 8V21H21V8L12 2.8038ZM8.7916 10.9758C8.7916 10.7382 8.86206 10.5059 8.99408 10.3083C9.1261 10.1108 9.31373 9.95677 9.53327 9.86584C9.7528 9.77491 9.99437 9.75113 10.2274 9.79749C10.4605 9.84386 10.6745 9.95829 10.8426 10.1263C11.0106 10.2943 11.125 10.5084 11.1713 10.7415C11.2177 10.9745 11.1939 11.2161 11.1029 11.4356C11.012 11.6552 10.858 11.8428 10.6604 11.9748C10.4628 12.1068 10.2305 12.1772 9.9929 12.1772C9.67429 12.1772 9.36873 12.0506 9.14345 11.8253C8.91816 11.6 8.7916 11.2944 8.7916 10.9758ZM9.5524 16L13.26 10H14.4479L10.74 16H9.5524ZM14.0071 16.2255C13.7695 16.2255 13.5372 16.1551 13.3396 16.0231C13.142 15.8911 12.988 15.7035 12.8971 15.4839C12.8061 15.2644 12.7823 15.0228 12.8287 14.7898C12.875 14.5567 12.9894 14.3426 13.1574 14.1746C13.3255 14.0066 13.5395 13.8922 13.7726 13.8458C14.0056 13.7994 14.2472 13.8232 14.4667 13.9141C14.6863 14.0051 14.8739 14.1591 15.0059 14.3566C15.1379 14.5542 15.2084 14.7865 15.2084 15.0241C15.2084 15.3427 15.0818 15.6483 14.8566 15.8736C14.6313 16.0989 14.3257 16.2255 14.0071 16.2255Z" fill="black"/>
</svg>
