<svg width="24" height="24" viewBox="0 0 24 24" fill="none" xmlns="http://www.w3.org/2000/svg">
<path d="M11.5 2.8724V7H12.5V2.8724L13.9712 4.3436L14.6782 3.6366L12 0.958405L9.3218 3.6366L10.0288 4.3436L11.5 2.8724ZM2 9V21H22V9H2ZM21 20H3V10H21V20ZM12 17.5C12.4945 17.5 12.9778 17.3534 13.3889 17.0787C13.8 16.804 14.1205 16.4135 14.3097 15.9567C14.4989 15.4999 14.5484 14.9972 14.452 14.5123C14.3555 14.0273 14.1174 13.5819 13.7678 13.2322C13.4181 12.8826 12.9727 12.6445 12.4877 12.548C12.0028 12.4516 11.5001 12.5011 11.0433 12.6903C10.5865 12.8795 10.196 13.2 9.92133 13.6111C9.64662 14.0222 9.5 14.5056 9.5 15C9.5 15.663 9.76339 16.2989 10.2322 16.7678C10.7011 17.2366 11.337 17.5 12 17.5ZM12 13.5C12.2967 13.5 12.5867 13.588 12.8334 13.7528C13.08 13.9176 13.2723 14.1519 13.3858 14.426C13.4994 14.7001 13.5291 15.0017 13.4712 15.2926C13.4133 15.5836 13.2704 15.8509 13.0607 16.0607C12.8509 16.2704 12.5836 16.4133 12.2926 16.4712C12.0017 16.5291 11.7001 16.4994 11.426 16.3858C11.1519 16.2723 10.9176 16.08 10.7528 15.8334C10.588 15.5867 10.5 15.2967 10.5 15C10.5005 14.6023 10.6586 14.221 10.9398 13.9398C11.221 13.6586 11.6023 13.5005 12 13.5Z" fill="black"/>
</svg>
