<svg width="24" height="24" viewBox="0 0 24 24" fill="none" xmlns="http://www.w3.org/2000/svg">
<path d="M18 2H6C5.46957 2 4.96086 2.21071 4.58579 2.58579C4.21071 2.96086 4 3.46957 4 4V22H20V4C20 3.46957 19.7893 2.96086 19.4142 2.58579C19.0391 2.21071 18.5304 2 18 2ZM18.5 20.5H5.5V4C5.5 3.86739 5.55268 3.74021 5.64645 3.64645C5.74021 3.55268 5.86739 3.5 6 3.5H18C18.1326 3.5 18.2598 3.55268 18.3536 3.64645C18.4473 3.74021 18.5 3.86739 18.5 4V20.5ZM8 12H16V6H8V12ZM9.5 7.5H14.5V10.5H9.5V7.5ZM15.25 14H12.75C12.5511 14 12.3603 14.079 12.2197 14.2197C12.079 14.3603 12 14.5511 12 14.75C12 14.9489 12.079 15.1397 12.2197 15.2803C12.3603 15.421 12.5511 15.5 12.75 15.5H15.25C15.4489 15.5 15.6397 15.421 15.7803 15.2803C15.921 15.1397 16 14.9489 16 14.75C16 14.5511 15.921 14.3603 15.7803 14.2197C15.6397 14.079 15.4489 14 15.25 14Z" fill="black"/>
</svg>
