<svg width="24" height="24" viewBox="0 0 24 24" fill="none" xmlns="http://www.w3.org/2000/svg">
<path d="M3 17H21V15.5H3V17ZM3 21H21V19.5H3V21ZM3 3V13H21V3H3ZM12 10.25C11.555 10.25 11.12 10.118 10.75 9.87081C10.38 9.62357 10.0916 9.27217 9.92127 8.86104C9.75097 8.4499 9.70642 7.9975 9.79323 7.56105C9.88005 7.12459 10.0943 6.72368 10.409 6.40901C10.7237 6.09434 11.1246 5.88005 11.561 5.79323C11.9975 5.70642 12.4499 5.75097 12.861 5.92127C13.2722 6.09157 13.6236 6.37996 13.8708 6.74997C14.118 7.11998 14.25 7.55499 14.25 8C14.25 8.59674 14.0129 9.16903 13.591 9.59099C13.169 10.0129 12.5967 10.25 12 10.25Z" fill="black"/>
</svg>
