<svg width="24" height="24" viewBox="0 0 24 24" fill="none" xmlns="http://www.w3.org/2000/svg">
<path d="M18 17.0252V16.9982L7.48 16.9882L6.951 14.8609L20.001 12.3632L20 5H4.4982L4.0008 3H1V4H3.219L6.4579 17.0217C6.14811 17.0644 5.85922 17.2022 5.63115 17.4161C5.40307 17.6301 5.24708 17.9096 5.18473 18.216C5.12238 18.5225 5.15674 18.8407 5.28307 19.1268C5.4094 19.4128 5.62146 19.6526 5.88995 19.8129C6.15843 19.9732 6.47009 20.0462 6.78185 20.0218C7.0936 19.9973 7.39007 19.8766 7.63027 19.6764C7.87048 19.4762 8.04257 19.2063 8.12275 18.904C8.20294 18.6018 8.18727 18.2821 8.0779 17.9891L16.3424 17.9966C16.2386 18.2861 16.2265 18.6005 16.3076 18.8971C16.3887 19.1938 16.5592 19.4582 16.7959 19.6546C17.0326 19.8509 17.324 19.9696 17.6306 19.9946C17.9371 20.0195 18.2438 19.9495 18.5092 19.794C18.7745 19.6385 18.9855 19.4051 19.1136 19.1255C19.2416 18.8459 19.2805 18.5336 19.2248 18.2312C19.1692 17.9287 19.0218 17.6507 18.8027 17.435C18.5835 17.2192 18.3033 17.0761 18 17.0252ZM19 6V11.5364L6.7092 13.889L4.747 6H19ZM6.6736 19C6.57471 19 6.47804 18.9707 6.39581 18.9157C6.31359 18.8608 6.2495 18.7827 6.21166 18.6913C6.17382 18.6 6.16391 18.4994 6.18321 18.4025C6.2025 18.3055 6.25012 18.2164 6.32005 18.1464C6.38997 18.0765 6.47906 18.0289 6.57606 18.0096C6.67305 17.9903 6.77358 18.0002 6.86494 18.0381C6.9563 18.0759 7.03439 18.14 7.08933 18.2222C7.14428 18.3044 7.1736 18.4011 7.1736 18.5C7.17344 18.6326 7.12071 18.7596 7.02698 18.8534C6.93324 18.9471 6.80616 18.9998 6.6736 19ZM17.75 19C17.6511 19 17.5544 18.9707 17.4722 18.9157C17.39 18.8608 17.3259 18.7827 17.2881 18.6913C17.2502 18.6 17.2403 18.4994 17.2596 18.4025C17.2789 18.3055 17.3265 18.2164 17.3964 18.1464C17.4664 18.0765 17.5555 18.0289 17.6525 18.0096C17.7494 17.9903 17.85 18.0002 17.9413 18.0381C18.0327 18.0759 18.1108 18.14 18.1657 18.2222C18.2207 18.3044 18.25 18.4011 18.25 18.5C18.2498 18.6326 18.1971 18.7596 18.1034 18.8534C18.0096 18.9471 17.8826 18.9998 17.75 19Z" fill="black"/>
</svg>
