<svg width="24" height="24" viewBox="0 0 24 24" fill="none" xmlns="http://www.w3.org/2000/svg">
<path d="M12.6816 11.4H11.3242C11.1651 11.4 11.0125 11.3368 10.8999 11.2243C10.7874 11.1117 10.7242 10.9591 10.7242 10.8C10.7242 10.6409 10.7874 10.4883 10.8999 10.3757C11.0125 10.2632 11.1651 10.2 11.3242 10.2H14.0342V9H12.55V7.95H11.45V9H11.324C10.8466 9 10.3888 9.18964 10.0512 9.52721C9.71364 9.86477 9.524 10.3226 9.524 10.8C9.524 11.2774 9.71364 11.7352 10.0512 12.0728C10.3888 12.4104 10.8466 12.6 11.324 12.6H12.6814C12.8405 12.6 12.9931 12.6632 13.1057 12.7757C13.2182 12.8883 13.2814 13.0409 13.2814 13.2C13.2814 13.3591 13.2182 13.5117 13.1057 13.6243C12.9931 13.7368 12.8405 13.8 12.6814 13.8H9.7V15H11.45V16.05H12.55V15H12.6818C13.1592 15 13.617 14.8104 13.9546 14.4728C14.2922 14.1352 14.4818 13.6774 14.4818 13.2C14.4818 12.7226 14.2922 12.2648 13.9546 11.9272C13.617 11.5896 13.1592 11.4 12.6818 11.4H12.6816ZM19 4H5C4.20435 4 3.44129 4.31607 2.87868 4.87868C2.31607 5.44129 2 6.20435 2 7V17C2 17.7956 2.31607 18.5587 2.87868 19.1213C3.44129 19.6839 4.20435 20 5 20H19C19.7956 20 20.5587 19.6839 21.1213 19.1213C21.6839 18.5587 22 17.7956 22 17V7C22 6.20435 21.6839 5.44129 21.1213 4.87868C20.5587 4.31607 19.7956 4 19 4ZM20.5 9H17V10.5H20.5V17C20.4995 17.3977 20.3414 17.779 20.0602 18.0602C19.779 18.3414 19.3977 18.4995 19 18.5H5C4.60231 18.4995 4.22104 18.3414 3.93984 18.0602C3.65863 17.779 3.50045 17.3977 3.5 17V10.5H7V9H3.5V7C3.50045 6.60231 3.65863 6.22104 3.93984 5.93984C4.22104 5.65863 4.60231 5.50045 5 5.5H19C19.3977 5.50045 19.779 5.65863 20.0602 5.93984C20.3414 6.22104 20.4995 6.60231 20.5 7V9Z" fill="black"/>
</svg>
