<svg width="24" height="24" viewBox="0 0 24 24" fill="none" xmlns="http://www.w3.org/2000/svg">
<path d="M20.5 4H3.5C3.10218 4 2.72064 4.15804 2.43934 4.43934C2.15804 4.72064 2 5.10218 2 5.5C2 5.89782 2.15804 6.27936 2.43934 6.56066C2.72064 6.84196 3.10218 7 3.5 7H5V21H19V7H20.5C20.8978 7 21.2794 6.84196 21.5607 6.56066C21.842 6.27936 22 5.89782 22 5.5C22 5.10218 21.842 4.72064 21.5607 4.43934C21.2794 4.15804 20.8978 4 20.5 4ZM5 6H3.5C3.36739 6 3.24021 5.94732 3.14645 5.85355C3.05268 5.75979 3 5.63261 3 5.5C3 5.36739 3.05268 5.24021 3.14645 5.14645C3.24021 5.05268 3.36739 5 3.5 5H5V6ZM18 20H6V5H18V20ZM20.5 6H19V5H20.5C20.6326 5 20.7598 5.05268 20.8536 5.14645C20.9473 5.24021 21 5.36739 21 5.5C21 5.63261 20.9473 5.75979 20.8536 5.85355C20.7598 5.94732 20.6326 6 20.5 6ZM12 14C12.5933 14 13.1734 13.8241 13.6667 13.4944C14.1601 13.1648 14.5446 12.6962 14.7716 12.1481C14.9987 11.5999 15.0581 10.9967 14.9424 10.4147C14.8266 9.83279 14.5409 9.29824 14.1213 8.87868C13.7018 8.45912 13.1672 8.1734 12.5853 8.05764C12.0033 7.94189 11.4001 8.0013 10.8519 8.22836C10.3038 8.45542 9.83524 8.83994 9.50559 9.33329C9.17595 9.82664 9 10.4067 9 11C9 11.7956 9.31607 12.5587 9.87868 13.1213C10.4413 13.6839 11.2044 14 12 14ZM12 9C12.3956 9 12.7822 9.1173 13.1111 9.33706C13.44 9.55682 13.6964 9.86918 13.8478 10.2346C13.9991 10.6001 14.0387 11.0022 13.9616 11.3902C13.8844 11.7781 13.6939 12.1345 13.4142 12.4142C13.1345 12.6939 12.7781 12.8844 12.3902 12.9616C12.0022 13.0387 11.6001 12.9991 11.2346 12.8478C10.8692 12.6964 10.5568 12.44 10.3371 12.1111C10.1173 11.7822 10 11.3956 10 11C10.0006 10.4698 10.2115 9.9614 10.5865 9.58646C10.9614 9.21152 11.4698 9.00061 12 9Z" fill="black"/>
</svg>
