<svg width="24" height="24" viewBox="0 0 24 24" fill="none" xmlns="http://www.w3.org/2000/svg">
<path d="M19 4H5C4.20435 4 3.44129 4.31607 2.87868 4.87868C2.31607 5.44129 2 6.20435 2 7V17C2 17.7956 2.31607 18.5587 2.87868 19.1213C3.44129 19.6839 4.20435 20 5 20H19C19.7956 20 20.5587 19.6839 21.1213 19.1213C21.6839 18.5587 22 17.7956 22 17V7C22 6.20435 21.6839 5.44129 21.1213 4.87868C20.5587 4.31607 19.7956 4 19 4ZM21.5 17C21.4993 17.6628 21.2356 18.2983 20.7669 18.7669C20.2983 19.2356 19.6628 19.4993 19 19.5H5C4.33719 19.4993 3.70173 19.2356 3.23305 18.7669C2.76437 18.2983 2.50074 17.6628 2.5 17V7C2.50074 6.33719 2.76437 5.70173 3.23305 5.23305C3.70173 4.76437 4.33719 4.50074 5 4.5H19C19.6628 4.50074 20.2983 4.76437 20.7669 5.23305C21.2356 5.70173 21.4993 6.33719 21.5 7V17ZM12.5 10.9808H10.6666L9.1066 7.9818H7.7162L8.3033 10.9808H6.8574L6.1914 9.9662H5.1914V13.9662H6.1914L6.8574 12.9515H8.3033L7.7162 15.9349H9.1068L10.6668 12.9515H12.5C12.6302 12.9528 12.7594 12.9283 12.8801 12.8794C13.0008 12.8304 13.1106 12.7581 13.2032 12.6664C13.2957 12.5748 13.3692 12.4657 13.4194 12.3455C13.4695 12.2253 13.4953 12.0964 13.4953 11.9662C13.4953 11.8359 13.4695 11.707 13.4194 11.5868C13.3692 11.4666 13.2957 11.3575 13.2032 11.2659C13.1106 11.1742 13.0008 11.1019 12.8801 11.0529C12.7594 11.004 12.6302 10.9795 12.5 10.9808ZM12.5 12.4515H10.3638L10.2238 12.7199L8.804 15.4349H8.324L8.794 13.0481L8.9115 12.4515H6.5875L6.4395 12.6772L5.9215 13.4662H5.6915V10.4662H5.9215L6.4395 11.2552L6.5875 11.4808H8.9108L8.7941 10.8848L8.3241 8.4818H8.8041L10.2241 11.2118L10.3641 11.4811H12.5C12.5643 11.4802 12.6282 11.492 12.6879 11.516C12.7476 11.54 12.8019 11.5756 12.8477 11.6208C12.8935 11.6659 12.9299 11.7197 12.9547 11.7791C12.9796 11.8384 12.9924 11.9021 12.9924 11.9664C12.9924 12.0308 12.9796 12.0945 12.9547 12.1538C12.9299 12.2132 12.8935 12.267 12.8477 12.3121C12.8019 12.3573 12.7476 12.3929 12.6879 12.4169C12.6282 12.4409 12.5643 12.4527 12.5 12.4518V12.4515Z" fill="black"/>
</svg>
