<svg width="24" height="24" viewBox="0 0 24 24" fill="none" xmlns="http://www.w3.org/2000/svg">
<path d="M12.4492 9.5C11.8788 8.25546 10.8999 7.24342 9.67504 6.63188C8.45017 6.02034 7.053 5.84607 5.71545 6.138C4.37789 6.42993 3.18039 7.1705 2.32173 8.23679C1.46306 9.30308 0.994873 10.631 0.994873 12C0.994873 13.369 1.46306 14.6969 2.32173 15.7632C3.18039 16.8295 4.37789 17.5701 5.71545 17.862C7.053 18.1539 8.45017 17.9797 9.67504 17.3681C10.8999 16.7566 11.8788 15.7445 12.4492 14.5H13.75L15.75 13.25L17.75 14.5L19.75 13.25L21.75 14.5L24 13.0938V9.5H12.4492ZM5.00003 13.5C4.70336 13.5 4.41335 13.412 4.16667 13.2472C3.92 13.0824 3.72774 12.8481 3.61421 12.574C3.50068 12.2999 3.47097 11.9983 3.52885 11.7074C3.58673 11.4164 3.72959 11.1491 3.93937 10.9393C4.14915 10.7296 4.41642 10.5867 4.70739 10.5288C4.99837 10.4709 5.29996 10.5006 5.57405 10.6142C5.84814 10.7277 6.08241 10.92 6.24723 11.1666C6.41206 11.4133 6.50003 11.7033 6.50003 12C6.50003 12.3978 6.34199 12.7794 6.06069 13.0607C5.77939 13.342 5.39785 13.5 5.00003 13.5Z" fill="black"/>
</svg>
