<svg width="24" height="24" viewBox="0 0 24 24" fill="none" xmlns="http://www.w3.org/2000/svg">
<path d="M15.57 8L14.0166 2.79C13.9979 2.72703 13.9669 2.66836 13.9255 2.61736C13.8841 2.56635 13.8331 2.52399 13.7753 2.49271C13.7176 2.46142 13.6542 2.44182 13.5889 2.43503C13.5235 2.42823 13.4575 2.43437 13.3945 2.4531C13.3315 2.47182 13.2729 2.50277 13.2219 2.54417C13.1708 2.58557 13.1285 2.63661 13.0972 2.69437C13.0659 2.75214 13.0463 2.8155 13.0395 2.88085C13.0327 2.94619 13.0389 3.01223 13.0576 3.0752L14.5259 8H9.4742L10.9424 3.0752C10.9611 3.01223 10.9673 2.94619 10.9605 2.88085C10.9537 2.8155 10.9341 2.75214 10.9028 2.69437C10.8715 2.63661 10.8292 2.58557 10.7781 2.54417C10.7271 2.50277 10.6685 2.47182 10.6055 2.4531C10.5425 2.43437 10.4765 2.42823 10.4111 2.43503C10.3458 2.44182 10.2824 2.46142 10.2247 2.49271C10.1669 2.52399 10.1159 2.56635 10.0745 2.61736C10.0331 2.66836 10.0021 2.72703 9.9834 2.79L8.43 8H1V9.9L3.9385 21H20.0615L22.9658 10.1587L23 8H15.57ZM21.968 10.0193L19.2941 20H4.7082L2 9.77V9H21.9841L21.968 10.0193ZM7.8116 12.4766C7.94016 12.4766 8.06583 12.4385 8.17272 12.3671C8.27961 12.2956 8.36292 12.1941 8.41212 12.0753C8.46132 11.9566 8.47419 11.8259 8.44911 11.6998C8.42403 11.5737 8.36212 11.4579 8.27122 11.367C8.18032 11.2761 8.0645 11.2142 7.93841 11.1891C7.81232 11.164 7.68163 11.1769 7.56286 11.2261C7.44408 11.2753 7.34257 11.3586 7.27114 11.4655C7.19972 11.5724 7.1616 11.698 7.1616 11.8266C7.1616 11.999 7.23008 12.1643 7.35198 12.2862C7.47388 12.4081 7.63921 12.4766 7.8116 12.4766ZM16.1884 12.4766C16.317 12.4766 16.4426 12.4385 16.5495 12.3671C16.6564 12.2956 16.7397 12.1941 16.7889 12.0753C16.8381 11.9566 16.851 11.8259 16.8259 11.6998C16.8008 11.5737 16.7389 11.4579 16.648 11.367C16.5571 11.2761 16.4413 11.2142 16.3152 11.1891C16.1891 11.164 16.0584 11.1769 15.9397 11.2261C15.8209 11.2753 15.7194 11.3586 15.6479 11.4655C15.5765 11.5724 15.5384 11.698 15.5384 11.8266C15.5384 11.999 15.6069 12.1643 15.7288 12.2862C15.8507 12.4081 16.016 12.4766 16.1884 12.4766Z" fill="black"/>
</svg>
