<svg width="24" height="24" viewBox="0 0 24 24" fill="none" xmlns="http://www.w3.org/2000/svg">
<path d="M19.5 4H4.5C3.83696 4 3.20107 4.26339 2.73223 4.73223C2.26339 5.20107 2 5.83696 2 6.5V17.5C2 18.163 2.26339 18.7989 2.73223 19.2678C3.20107 19.7366 3.83696 20 4.5 20H19.5C20.163 20 20.7989 19.7366 21.2678 19.2678C21.7366 18.7989 22 18.163 22 17.5V6.5C22 5.83696 21.7366 5.20107 21.2678 4.73223C20.7989 4.26339 20.163 4 19.5 4ZM7 11H4V8H7V11ZM8.3923 9.908C8.3923 9.68379 8.45878 9.46463 8.58335 9.27821C8.70791 9.09179 8.88495 8.94649 9.09209 8.86069C9.29923 8.77489 9.52716 8.75244 9.74705 8.79618C9.96695 8.83992 10.1689 8.94789 10.3275 9.10642C10.486 9.26496 10.594 9.46695 10.6377 9.68685C10.6815 9.90674 10.659 10.1347 10.5732 10.3418C10.4874 10.5489 10.3421 10.726 10.1557 10.8506C9.96927 10.9751 9.7501 11.0416 9.5259 11.0416C9.37703 11.0416 9.22962 11.0123 9.09207 10.9553C8.95453 10.8984 8.82956 10.8149 8.72429 10.7096C8.61903 10.6043 8.53553 10.4794 8.47856 10.3418C8.4216 10.2043 8.39229 10.0569 8.3923 9.908ZM9.0884 15L12.7957 9H14.9116L11.2043 15H9.0884ZM14.4741 15.2255C14.2499 15.2255 14.0307 15.159 13.8443 15.0345C13.6579 14.9099 13.5126 14.7328 13.4268 14.5257C13.341 14.3186 13.3185 14.0906 13.3623 13.8707C13.406 13.6508 13.514 13.4489 13.6725 13.2903C13.8311 13.1318 14.033 13.0238 14.2529 12.9801C14.4728 12.9363 14.7008 12.9588 14.9079 13.0446C15.115 13.1304 15.2921 13.2757 15.4167 13.4621C15.5412 13.6485 15.6077 13.8677 15.6077 14.0919C15.6077 14.2408 15.5784 14.3882 15.5214 14.5257C15.4645 14.6633 15.381 14.7882 15.2757 14.8935C15.1704 14.9988 15.0455 15.0823 14.9079 15.1392C14.7704 15.1962 14.623 15.2255 14.4741 15.2255ZM20 11H17V8H20V11Z" fill="black"/>
</svg>
