<svg width="24" height="24" viewBox="0 0 24 24" fill="none" xmlns="http://www.w3.org/2000/svg">
<path d="M19 4H5C4.20435 4 3.44129 4.31607 2.87868 4.87868C2.31607 5.44129 2 6.20435 2 7V17C2 17.7956 2.31607 18.5587 2.87868 19.1213C3.44129 19.6839 4.20435 20 5 20H19C19.7956 20 20.5587 19.6839 21.1213 19.1213C21.6839 18.5587 22 17.7956 22 17V7C22 6.20435 21.6839 5.44129 21.1213 4.87868C20.5587 4.31607 19.7956 4 19 4ZM21 17C20.9994 17.5302 20.7885 18.0386 20.4135 18.4135C20.0386 18.7885 19.5302 18.9994 19 19H5C4.46975 18.9994 3.9614 18.7885 3.58646 18.4135C3.21152 18.0386 3.00061 17.5302 3 17V7C3.00061 6.46975 3.21152 5.9614 3.58646 5.58646C3.9614 5.21152 4.46975 5.00061 5 5H19C19.5302 5.00061 20.0386 5.21152 20.4135 5.58646C20.7885 5.9614 20.9994 6.46975 21 7V17ZM12.7874 11.4409H10.2705L8.7105 8.4419H7.8345L8.4218 11.4409H6.2823L5.73 10.4263H5.1914V13.5894H5.73L6.2828 12.5747H8.4218L7.8345 15.5581H8.7107L10.2707 12.5747H12.7876C12.938 12.5747 13.0821 12.515 13.1885 12.4087C13.2948 12.3023 13.3545 12.1582 13.3545 12.0078C13.3545 11.8574 13.2948 11.7133 13.1885 11.6069C13.0821 11.5006 12.938 11.4409 12.7876 11.4409H12.7874Z" fill="black"/>
</svg>
