<svg width="24" height="24" viewBox="0 0 24 24" fill="none" xmlns="http://www.w3.org/2000/svg">
<path d="M18 2H6C5.46957 2 4.96086 2.21071 4.58579 2.58579C4.21071 2.96086 4 3.46957 4 4V22H20V4C20 3.46957 19.7893 2.96086 19.4142 2.58579C19.0391 2.21071 18.5304 2 18 2ZM19 21H5V4C5.00029 3.73487 5.10574 3.48069 5.29321 3.29321C5.48069 3.10574 5.73487 3.00029 6 3H18C18.2651 3.00029 18.5193 3.10574 18.7068 3.29321C18.8943 3.48069 18.9997 3.73487 19 4V21ZM7 12H17V5H7V12ZM8 6H16V11H8V6ZM16.5 14H13.5C13.3674 14 13.2402 14.0527 13.1464 14.1464C13.0527 14.2402 13 14.3674 13 14.5C13 14.6326 13.0527 14.7598 13.1464 14.8536C13.2402 14.9473 13.3674 15 13.5 15H16.5C16.6326 15 16.7598 14.9473 16.8536 14.8536C16.9473 14.7598 17 14.6326 17 14.5C17 14.3674 16.9473 14.2402 16.8536 14.1464C16.7598 14.0527 16.6326 14 16.5 14Z" fill="black"/>
</svg>
