<svg width="24" height="24" viewBox="0 0 24 24" fill="none" xmlns="http://www.w3.org/2000/svg">
<path d="M1 5V19H23V5H1ZM22 18H2V6H22V18ZM10.74 15L14.4473 9H13.26L9.5524 15H10.74ZM12.8054 14.0241C12.8054 14.2617 12.8758 14.494 13.0078 14.6916C13.1398 14.8892 13.3274 15.0432 13.547 15.1341C13.7665 15.2251 14.0081 15.2489 14.2411 15.2025C14.4742 15.1562 14.6883 15.0418 14.8563 14.8738C15.0243 14.7057 15.1387 14.4917 15.1851 14.2586C15.2315 14.0256 15.2077 13.784 15.1168 13.5645C15.0258 13.3449 14.8718 13.1573 14.6743 13.0253C14.4767 12.8933 14.2444 12.8228 14.0068 12.8228C13.6882 12.8229 13.3827 12.9495 13.1575 13.1748C12.9323 13.4 12.8057 13.7055 12.8057 14.0241H12.8054ZM14.4581 14.0241C14.4581 14.1134 14.4317 14.2007 14.3821 14.2749C14.3325 14.3492 14.262 14.407 14.1795 14.4412C14.097 14.4754 14.0062 14.4843 13.9187 14.4669C13.8311 14.4495 13.7506 14.4065 13.6875 14.3434C13.6244 14.2803 13.5814 14.1998 13.564 14.1122C13.5466 14.0247 13.5555 13.9339 13.5897 13.8514C13.6239 13.7689 13.6817 13.6984 13.756 13.6488C13.8302 13.5992 13.9175 13.5728 14.0068 13.5728C14.1265 13.5729 14.2413 13.6204 14.3259 13.7051C14.4106 13.7897 14.4582 13.9044 14.4584 14.0241H14.4581ZM9.9929 11.1772C10.2305 11.1772 10.4628 11.1068 10.6604 10.9748C10.858 10.8428 11.012 10.6552 11.1029 10.4356C11.1939 10.2161 11.2177 9.97454 11.1713 9.74148C11.125 9.50842 11.0106 9.29435 10.8426 9.12632C10.6745 8.95829 10.4605 8.84386 10.2274 8.79749C9.99437 8.75113 9.7528 8.77491 9.53327 8.86584C9.31373 8.95677 9.1261 9.11076 8.99408 9.30833C8.86206 9.5059 8.7916 9.73818 8.7916 9.9758C8.7916 10.2944 8.91816 10.6 9.14345 10.8253C9.36873 11.0506 9.67429 11.1772 9.9929 11.1772ZM9.9929 9.5245C10.0822 9.52448 10.1695 9.55094 10.2437 9.60053C10.318 9.65013 10.3758 9.72062 10.41 9.80311C10.4442 9.8856 10.4531 9.97637 10.4357 10.0639C10.4183 10.1515 10.3753 10.232 10.3122 10.2951C10.2491 10.3582 10.1686 10.4012 10.081 10.4186C9.99347 10.436 9.9027 10.4271 9.82021 10.3929C9.73772 10.3587 9.66723 10.3009 9.61763 10.2266C9.56804 10.1524 9.54158 10.0651 9.5416 9.9758C9.54176 9.85616 9.58936 9.74146 9.67396 9.65686C9.75856 9.57226 9.87326 9.52466 9.9929 9.5245Z" fill="black"/>
</svg>
