<svg width="24" height="24" viewBox="0 0 24 24" fill="none" xmlns="http://www.w3.org/2000/svg">
<path d="M18.5 9.00001H16.7653C19.21 7.58361 19.32 5.94171 19.2471 5.27531C19.1382 4.4853 18.7446 3.76224 18.1402 3.24199C17.5358 2.72173 16.7622 2.4401 15.9648 2.45001H15.9082C14.4066 2.47491 12.8936 3.49001 12 6.03111C11.1064 3.49001 9.5934 2.47491 8.0918 2.45001H8.0352C7.23779 2.4401 6.4642 2.72173 5.8598 3.24199C5.25539 3.76224 4.86177 4.4853 4.7529 5.27531C4.68 5.94171 4.7905 7.58361 7.2347 9.00001H5.5C4.83696 9.00001 4.20107 9.2634 3.73223 9.73224C3.26339 10.2011 3 10.837 3 11.5V18.5C3 19.163 3.26339 19.7989 3.73223 20.2678C4.20107 20.7366 4.83696 21 5.5 21H18.5C19.163 21 19.7989 20.7366 20.2678 20.2678C20.7366 19.7989 21 19.163 21 18.5V11.5C21 10.837 20.7366 10.2011 20.2678 9.73224C19.7989 9.2634 19.163 9.00001 18.5 9.00001ZM15.9414 4.45001H15.9648C16.2706 4.43715 16.5705 4.53607 16.8087 4.72828C17.0468 4.92048 17.2068 5.19282 17.2588 5.49441C17.3672 6.47641 16.1221 7.7444 13.1631 8.5882C13.668 5.5883 14.9219 4.46671 15.9414 4.45001ZM6.7414 5.49391C6.79348 5.19245 6.9535 4.92026 7.19159 4.72816C7.42968 4.53606 7.72955 4.43718 8.0352 4.45001H8.0586C9.0781 4.4666 10.332 5.58821 10.8369 8.58771C7.8779 7.74351 6.6328 6.47601 6.7412 5.49401L6.7414 5.49391ZM5.5 11H18.5C18.6326 11 18.7598 11.0527 18.8536 11.1465C18.9473 11.2402 19 11.3674 19 11.5V13H5V11.5C5 11.3674 5.05268 11.2402 5.14645 11.1465C5.24021 11.0527 5.36739 11 5.5 11ZM18.5 19H5.5C5.36739 19 5.24021 18.9473 5.14645 18.8536C5.05268 18.7598 5 18.6326 5 18.5V15H19V18.5C19 18.6326 18.9473 18.7598 18.8536 18.8536C18.7598 18.9473 18.6326 19 18.5 19Z" fill="black"/>
</svg>
