<svg width="24" height="24" viewBox="0 0 24 24" fill="none" xmlns="http://www.w3.org/2000/svg">
<path d="M12.5833 9C18.2643 8.0637 18.5775 5.5464 18.5283 4.747C18.4754 4.0774 18.1767 3.45104 17.6896 2.98856C17.2024 2.52608 16.5614 2.26019 15.89 2.2421L15.8608 2.2411C15.0647 2.2411 12.7848 2.6855 12.0008 7.5732C11.2164 2.6855 8.9365 2.2411 8.1408 2.2411L8.1116 2.2421C7.43988 2.2598 6.79848 2.52552 6.31104 2.98804C5.82359 3.45055 5.52461 4.07713 5.4717 4.747C5.4225 5.5464 5.7357 8.0637 11.4167 9H3V21H11.75V9H12.25V21H21V9H12.5833ZM5.9707 4.7783C6.0139 4.23375 6.25708 3.72444 6.6534 3.34849C7.04971 2.97254 7.57113 2.75654 8.1172 2.7421L8.1445 2.7411C9.5918 2.7411 11.2627 4.2988 11.7207 8.6474C7.3535 7.9755 5.8818 6.2206 5.9707 4.7783ZM15.8555 2.7411L15.8828 2.7421C16.4289 2.75654 16.9503 2.97254 17.3466 3.34849C17.7429 3.72444 17.9861 4.23375 18.0293 4.7783C18.1182 6.2206 16.6465 7.9755 12.2793 8.6474C12.7373 4.2988 14.4082 2.7411 15.8555 2.7411Z" fill="black"/>
</svg>
