<svg width="24" height="24" viewBox="0 0 24 24" fill="none" xmlns="http://www.w3.org/2000/svg">
<path d="M18 2H6C5.46957 2 4.96086 2.21071 4.58579 2.58579C4.21071 2.96086 4 3.46957 4 4V22H20V4C20 3.46957 19.7893 2.96086 19.4142 2.58579C19.0391 2.21071 18.5304 2 18 2ZM16.5 15H13.5C13.3674 15 13.2402 14.9473 13.1464 14.8536C13.0527 14.7598 13 14.6326 13 14.5C13 14.3674 13.0527 14.2402 13.1464 14.1464C13.2402 14.0527 13.3674 14 13.5 14H16.5C16.6326 14 16.7598 14.0527 16.8536 14.1464C16.9473 14.2402 17 14.3674 17 14.5C17 14.6326 16.9473 14.7598 16.8536 14.8536C16.7598 14.9473 16.6326 15 16.5 15ZM17 12H7V5H17V12Z" fill="black"/>
</svg>
