<svg width="24" height="24" viewBox="0 0 24 24" fill="none" xmlns="http://www.w3.org/2000/svg">
<path d="M18 17.5505V17.4982L7.0892 17.4882L6.4592 14.9551L20.0007 12.3632L20 5H3.983L3.4855 3H1V3.5H3.0947L6.5815 17.5186C6.34042 17.538 6.11022 17.6272 5.91914 17.7755C5.72805 17.9238 5.58438 18.1245 5.50574 18.3533C5.4271 18.582 5.41692 18.8287 5.47643 19.0631C5.53594 19.2975 5.66256 19.5095 5.84078 19.673C6.01899 19.8365 6.24104 19.9445 6.4797 19.9836C6.71837 20.0228 6.96328 19.9914 7.1844 19.8935C7.40551 19.7955 7.59323 19.6351 7.72454 19.432C7.85584 19.2289 7.92502 18.9919 7.9236 18.75C7.91849 18.4713 7.81849 18.2027 7.6401 17.9886L16.7778 17.9971C16.6032 18.2097 16.5053 18.4749 16.5 18.75C16.5 19.0815 16.6317 19.3995 16.8661 19.6339C17.1005 19.8683 17.4185 20 17.75 20C18.0815 20 18.3995 19.8683 18.6339 19.6339C18.8683 19.3995 19 19.0815 19 18.75C18.9975 18.4653 18.8966 18.1903 18.7143 17.9716C18.532 17.7529 18.2796 17.6041 18 17.5505ZM19.5 5.5V11.95L6.3383 14.4691L4.7283 7.9971L4.1074 5.5H19.5ZM6.6736 19.5C6.52526 19.5 6.38026 19.456 6.25692 19.3736C6.13359 19.2912 6.03746 19.1741 5.98069 19.037C5.92392 18.9 5.90907 18.7492 5.93801 18.6037C5.96695 18.4582 6.03838 18.3246 6.14327 18.2197C6.24816 18.1148 6.3818 18.0434 6.52728 18.0144C6.67277 17.9855 6.82357 18.0003 6.96061 18.0571C7.09766 18.1139 7.21479 18.21 7.2972 18.3333C7.37961 18.4567 7.4236 18.6017 7.4236 18.75C7.42336 18.9488 7.34427 19.1395 7.20367 19.2801C7.06307 19.4207 6.87244 19.4998 6.6736 19.5ZM17.75 19.5C17.6017 19.5 17.4567 19.456 17.3333 19.3736C17.21 19.2912 17.1139 19.1741 17.0571 19.037C17.0003 18.9 16.9855 18.7492 17.0144 18.6037C17.0434 18.4582 17.1148 18.3246 17.2197 18.2197C17.3246 18.1148 17.4582 18.0434 17.6037 18.0144C17.7492 17.9855 17.9 18.0003 18.037 18.0571C18.1741 18.1139 18.2912 18.21 18.3736 18.3333C18.456 18.4567 18.5 18.6017 18.5 18.75C18.4998 18.9488 18.4207 19.1395 18.2801 19.2801C18.1395 19.4207 17.9488 19.4998 17.75 19.5Z" fill="black"/>
</svg>
