<svg width="24" height="24" viewBox="0 0 24 24" fill="none" xmlns="http://www.w3.org/2000/svg">
<path d="M1 5V19H23V5H1ZM21 17H3V7H21V17ZM11.2043 15L14.9116 9H12.7957L9.0884 15H11.2043ZM13.3406 14.0919C13.3406 14.3161 13.407 14.5353 13.5316 14.7217C13.6561 14.9082 13.8332 15.0535 14.0403 15.1393C14.2475 15.2251 14.4754 15.2476 14.6953 15.2038C14.9152 15.1601 15.1172 15.0521 15.2757 14.8936C15.4343 14.7351 15.5423 14.5331 15.586 14.3132C15.6298 14.0933 15.6073 13.8654 15.5215 13.6582C15.4357 13.4511 15.2904 13.274 15.104 13.1495C14.9176 13.0249 14.6984 12.9584 14.4742 12.9584C14.1736 12.9584 13.8852 13.0778 13.6727 13.2904C13.4601 13.503 13.3406 13.7913 13.3406 14.0919ZM9.5258 11.0419C9.75 11.0419 9.96916 10.9755 10.1556 10.8509C10.342 10.7264 10.4873 10.5494 10.5732 10.3422C10.659 10.1351 10.6815 9.90721 10.6378 9.68732C10.594 9.46742 10.4861 9.26542 10.3276 9.10686C10.1691 8.94831 9.96716 8.84031 9.74728 8.79653C9.5274 8.75274 9.29947 8.77514 9.09232 8.86089C8.88517 8.94664 8.7081 9.0919 8.5835 9.27828C8.4589 9.46466 8.39236 9.6838 8.3923 9.908C8.3923 10.2086 8.51172 10.497 8.72429 10.7095C8.93686 10.9221 9.22517 11.0416 9.5258 11.0416V11.0419Z" fill="black"/>
</svg>
