<svg width="24" height="24" viewBox="0 0 24 24" fill="none" xmlns="http://www.w3.org/2000/svg">
<path d="M19 4H5C4.20435 4 3.44129 4.31607 2.87868 4.87868C2.31607 5.44129 2 6.20435 2 7V17C2 17.7956 2.31607 18.5587 2.87868 19.1213C3.44129 19.6839 4.20435 20 5 20H19C19.7956 20 20.5587 19.6839 21.1213 19.1213C21.6839 18.5587 22 17.7956 22 17V7C22 6.20435 21.6839 5.44129 21.1213 4.87868C20.5587 4.31607 19.7956 4 19 4ZM21 17C20.9994 17.5302 20.7885 18.0386 20.4135 18.4135C20.0386 18.7885 19.5302 18.9994 19 19H5C4.46975 18.9994 3.9614 18.7885 3.58646 18.4135C3.21152 18.0386 3.00061 17.5302 3 17V7C3.00061 6.46975 3.21152 5.9614 3.58646 5.58646C3.9614 5.21152 4.46975 5.00061 5 5H19C19.5302 5.00061 20.0386 5.21152 20.4135 5.58646C20.7885 5.9614 20.9994 6.46975 21 7V17ZM9 11C9.29592 11 9.5852 10.9122 9.83124 10.7478C10.0773 10.5834 10.2691 10.3498 10.3823 10.0764C10.4956 9.80298 10.5252 9.50214 10.4675 9.21191C10.4097 8.92167 10.2672 8.65507 10.058 8.44583C9.84873 8.23658 9.58213 8.09408 9.29189 8.03635C9.00166 7.97862 8.70082 8.00825 8.42743 8.12149C8.15403 8.23474 7.92036 8.42651 7.75596 8.67256C7.59155 8.9186 7.5038 9.20788 7.5038 9.5038C7.5038 9.90062 7.66143 10.2812 7.94203 10.5618C8.22262 10.8424 8.60318 11 9 11ZM9 8.9077C9.11792 8.9077 9.23319 8.94267 9.33124 9.00818C9.42929 9.0737 9.5057 9.16682 9.55083 9.27577C9.59595 9.38471 9.60775 9.5046 9.58474 9.62025C9.56172 9.7359 9.50493 9.84214 9.42154 9.92551C9.33815 10.0089 9.23191 10.0657 9.11625 10.0887C9.00059 10.1116 8.88071 10.0998 8.77178 10.0547C8.66284 10.0095 8.56973 9.93312 8.50423 9.83506C8.43873 9.737 8.40378 9.62172 8.4038 9.5038C8.40399 9.34574 8.46686 9.19422 8.57863 9.08246C8.69041 8.97071 8.84194 8.90786 9 8.9077ZM6 13.0769V15H12V13.0769C11.606 12.6829 11.1383 12.3704 10.6236 12.1572C10.1089 11.9439 9.55716 11.8342 9 11.8342C8.44284 11.8342 7.89114 11.9439 7.3764 12.1572C6.86166 12.3704 6.39396 12.6829 6 13.0769ZM11.1 14.1H6.9V13.4758C7.49474 12.996 8.23585 12.7343 9 12.7343C9.76415 12.7343 10.5053 12.996 11.1 13.4758V14.1Z" fill="black"/>
</svg>
