<svg width="24" height="24" viewBox="0 0 24 24" fill="none" xmlns="http://www.w3.org/2000/svg">
<path d="M12.86 11.75H11.125C10.8266 11.75 10.5405 11.6315 10.3295 11.4205C10.1185 11.2095 10 10.9234 10 10.625C10 10.3266 10.1185 10.0405 10.3295 9.8295C10.5405 9.61853 10.8266 9.5 11.125 9.5H13.9844V9H12.2244V7.95H11.7752V9H11.1252C10.6942 9 10.2809 9.1712 9.97615 9.47595C9.6714 9.7807 9.5002 10.194 9.5002 10.625C9.5002 11.056 9.6714 11.4693 9.97615 11.774C10.2809 12.0788 10.6942 12.25 11.1252 12.25H12.86C13.1584 12.25 13.4445 12.3685 13.6555 12.5795C13.8665 12.7905 13.985 13.0766 13.985 13.375C13.985 13.6734 13.8665 13.9595 13.6555 14.1705C13.4445 14.3815 13.1584 14.5 12.86 14.5H9.75V15H11.7754V16.05H12.2246V15H12.86C13.291 15 13.7043 14.8288 14.009 14.524C14.3138 14.2193 14.485 13.806 14.485 13.375C14.485 12.944 14.3138 12.5307 14.009 12.226C13.7043 11.9212 13.291 11.75 12.86 11.75ZM19.5 4H4.5C3.83696 4 3.20107 4.26339 2.73223 4.73223C2.26339 5.20107 2 5.83696 2 6.5V17.5C2 18.163 2.26339 18.7989 2.73223 19.2678C3.20107 19.7366 3.83696 20 4.5 20H19.5C20.163 20 20.7989 19.7366 21.2678 19.2678C21.7366 18.7989 22 18.163 22 17.5V6.5C22 5.83696 21.7366 5.20107 21.2678 4.73223C20.7989 4.26339 20.163 4 19.5 4ZM21.5 8H17V8.5H21.5V11H17V11.5H21.5V17.5C21.4994 18.0302 21.2885 18.5386 20.9135 18.9135C20.5386 19.2885 20.0302 19.4994 19.5 19.5H4.5C3.96975 19.4994 3.4614 19.2885 3.08646 18.9135C2.71152 18.5386 2.50061 18.0302 2.5 17.5V11.5H7V11H2.5V8.5H7V8H2.5V6.5C2.50061 5.96975 2.71152 5.4614 3.08646 5.08646C3.4614 4.71152 3.96975 4.50061 4.5 4.5H19.5C20.0302 4.50061 20.5386 4.71152 20.9135 5.08646C21.2885 5.4614 21.4994 5.96975 21.5 6.5V8Z" fill="black"/>
</svg>
