<svg width="24" height="24" viewBox="0 0 24 24" fill="none" xmlns="http://www.w3.org/2000/svg">
<path d="M14.75 9C19.15 7.4644 19.3368 5.191 19.2475 4.376C19.1388 3.5858 18.7452 2.86251 18.1407 2.34211C17.5362 1.82171 16.7624 1.54002 15.9648 1.55H15.9082C14.4066 1.5748 12.8936 2.59 12 5.131C11.1064 2.5903 9.5934 1.5748 8.0918 1.55H8.0352C7.23768 1.54012 6.46401 1.82185 5.85959 2.34224C5.25517 2.86264 4.86162 3.58586 4.7529 4.376C4.6636 5.191 4.8506 7.4644 9.25 9H3V21H11V9H13V21H21V9H14.75ZM6.7412 4.5947C6.79311 4.29306 6.95309 4.02065 7.19124 3.82838C7.42938 3.63612 7.7294 3.53716 8.0352 3.55L8.0586 3.5505C9.0781 3.5671 10.332 4.6887 10.8369 7.6882C7.8779 6.8442 6.6328 5.5767 6.7412 4.5947ZM15.9412 3.5508L15.9646 3.5503C16.2704 3.53745 16.5703 3.63637 16.8085 3.82857C17.0466 4.02078 17.2066 4.29312 17.2586 4.5947C17.367 5.5767 16.1219 6.8447 13.1629 7.6885C13.668 4.689 14.9219 3.5674 15.9414 3.5508H15.9412Z" fill="black"/>
</svg>
