<svg width="24" height="24" viewBox="0 0 24 24" fill="none" xmlns="http://www.w3.org/2000/svg">
<path d="M18 2H6C5.46957 2 4.96086 2.21071 4.58579 2.58579C4.21071 2.96086 4 3.46957 4 4V22H20V4C20 3.46957 19.7893 2.96086 19.4142 2.58579C19.0391 2.21071 18.5304 2 18 2ZM16.75 15H13.25C13.1837 15 13.1201 14.9737 13.0732 14.9268C13.0263 14.8799 13 14.8163 13 14.75C13 14.6837 13.0263 14.6201 13.0732 14.5732C13.1201 14.5263 13.1837 14.5 13.25 14.5H16.75C16.8163 14.5 16.8799 14.5263 16.9268 14.5732C16.9737 14.6201 17 14.6837 17 14.75C17 14.8163 16.9737 14.8799 16.9268 14.9268C16.8799 14.9737 16.8163 15 16.75 15ZM17 12H7V5H17V12Z" fill="black"/>
</svg>
