<svg width="24" height="24" viewBox="0 0 24 24" fill="none" xmlns="http://www.w3.org/2000/svg">
<path d="M19.5 4H4.5C3.83696 4 3.20107 4.26339 2.73223 4.73223C2.26339 5.20107 2 5.83696 2 6.5V17.5C2 18.163 2.26339 18.7989 2.73223 19.2678C3.20107 19.7366 3.83696 20 4.5 20H19.5C20.163 20 20.7989 19.7366 21.2678 19.2678C21.7366 18.7989 22 18.163 22 17.5V6.5C22 5.83696 21.7366 5.20107 21.2678 4.73223C20.7989 4.26339 20.163 4 19.5 4ZM7 11H3V8H7V11ZM12.7275 15H12.45V16.05H11.55V15H9.75V14H12.7275C12.9264 14 13.1172 13.921 13.2578 13.7803C13.3985 13.6397 13.4775 13.4489 13.4775 13.25C13.4775 13.0511 13.3985 12.8603 13.2578 12.7197C13.1172 12.579 12.9264 12.5 12.7275 12.5H11.2646C10.8005 12.5 10.3554 12.3156 10.0272 11.9874C9.69897 11.6592 9.5146 11.2141 9.5146 10.75C9.5146 10.2859 9.69897 9.84075 10.0272 9.51256C10.3554 9.18437 10.8005 9 11.2646 9H11.55V7.95H12.45V9H13.9842V10H11.2642C11.0653 10 10.8745 10.079 10.7339 10.2197C10.5932 10.3603 10.5142 10.5511 10.5142 10.75C10.5142 10.9489 10.5932 11.1397 10.7339 11.2803C10.8745 11.421 11.0653 11.5 11.2642 11.5H12.7271C13.1912 11.5 13.6363 11.6844 13.9645 12.0126C14.2927 12.3408 14.4771 12.7859 14.4771 13.25C14.4771 13.7141 14.2927 14.1592 13.9645 14.4874C13.6363 14.8156 13.1912 15 12.7271 15H12.7275ZM21 11H17V8H21V11Z" fill="black"/>
</svg>
