<svg width="24" height="24" viewBox="0 0 24 24" fill="none" xmlns="http://www.w3.org/2000/svg">
<path d="M16.94 9C19.2187 7.6074 19.3181 6.02659 19.2468 5.37599C19.1381 4.58591 18.7446 3.86273 18.1402 3.34234C17.5359 2.82195 16.7623 2.54019 15.9648 2.55L15.9082 2.5505C14.4066 2.5753 12.8936 3.59049 12 6.13149C11.1064 3.59079 9.5934 2.5753 8.0918 2.5505L8.0352 2.55C7.23768 2.54011 6.46401 2.82184 5.85959 3.34224C5.25517 3.86263 4.86162 4.58586 4.7529 5.37599C4.6816 6.02659 4.781 7.6074 7.06 9H3V21H21V9H16.94ZM15.9411 4.55079H15.9645C16.2703 4.53794 16.5702 4.63686 16.8084 4.82907C17.0465 5.02127 17.2065 5.29361 17.2585 5.5952C17.3669 6.5772 16.1218 7.8452 13.1628 8.689C13.668 5.689 14.9219 4.56739 15.9414 4.55079H15.9411ZM8.0349 4.55079H8.0583C9.0778 4.56739 10.3317 5.689 10.8366 8.6885C7.8776 7.8442 6.6325 6.57669 6.7409 5.59469C6.79282 5.293 6.95284 5.02055 7.19105 4.82828C7.42926 4.636 7.72935 4.53708 8.0352 4.55L8.0349 4.55079ZM5 19V11H11V19H5ZM19 19H13V11H19V19Z" fill="black"/>
</svg>
