<svg width="24" height="24" viewBox="0 0 24 24" fill="none" xmlns="http://www.w3.org/2000/svg">
<path d="M12.7275 11.5H11.2646C11.0657 11.5 10.8749 11.421 10.7343 11.2803C10.5936 11.1397 10.5146 10.9489 10.5146 10.75C10.5146 10.5511 10.5936 10.3603 10.7343 10.2197C10.8749 10.079 11.0657 10 11.2646 10H13.9846V9H12.45V7.95H11.55V9H11.2648C10.8007 9 10.3556 9.18437 10.0274 9.51256C9.69917 9.84075 9.5148 10.2859 9.5148 10.75C9.5148 11.2141 9.69917 11.6592 10.0274 11.9874C10.3556 12.3156 10.8007 12.5 11.2648 12.5H12.7277C12.9266 12.5 13.1174 12.579 13.258 12.7197C13.3987 12.8603 13.4777 13.0511 13.4777 13.25C13.4777 13.4489 13.3987 13.6397 13.258 13.7803C13.1174 13.921 12.9266 14 12.7277 14H9.75V15H11.55V16.05H12.45V15H12.7273C13.1914 15 13.6365 14.8156 13.9647 14.4874C14.2929 14.1592 14.4773 13.7141 14.4773 13.25C14.4773 12.7859 14.2929 12.3408 13.9647 12.0126C13.6365 11.6844 13.1914 11.5 12.7273 11.5H12.7275ZM19.5 4H4.5C3.83696 4 3.20107 4.26339 2.73223 4.73223C2.26339 5.20107 2 5.83696 2 6.5V17.5C2 18.163 2.26339 18.7989 2.73223 19.2678C3.20107 19.7366 3.83696 20 4.5 20H19.5C20.163 20 20.7989 19.7366 21.2678 19.2678C21.7366 18.7989 22 18.163 22 17.5V6.5C22 5.83696 21.7366 5.20107 21.2678 4.73223C20.7989 4.26339 20.163 4 19.5 4ZM21 8H17V9H21V11H17V12H21V17.5C20.9995 17.8977 20.8414 18.279 20.5602 18.5602C20.279 18.8414 19.8977 18.9995 19.5 19H4.5C4.10231 18.9995 3.72104 18.8414 3.43984 18.5602C3.15863 18.279 3.00045 17.8977 3 17.5V12H7V11H3V9H7V8H3V6.5C3.00045 6.10231 3.15863 5.72104 3.43984 5.43984C3.72104 5.15863 4.10231 5.00045 4.5 5H19.5C19.8977 5.00045 20.279 5.15863 20.5602 5.43984C20.8414 5.72104 20.9995 6.10231 21 6.5V8Z" fill="black"/>
</svg>
