<svg width="24" height="24" viewBox="0 0 24 24" fill="none" xmlns="http://www.w3.org/2000/svg">
<path d="M19.5 4H4.5C3.83696 4 3.20107 4.26339 2.73223 4.73223C2.26339 5.20107 2 5.83696 2 6.5V17.5C2 18.163 2.26339 18.7989 2.73223 19.2678C3.20107 19.7366 3.83696 20 4.5 20H19.5C20.163 20 20.7989 19.7366 21.2678 19.2678C21.7366 18.7989 22 18.163 22 17.5V6.5C22 5.83696 21.7366 5.20107 21.2678 4.73223C20.7989 4.26339 20.163 4 19.5 4ZM7 11H3.5V8H7V11ZM12.6816 15H12.55V16.05H11.45V15H9.7V13.8H12.6814C12.8405 13.8 12.9931 13.7368 13.1057 13.6243C13.2182 13.5117 13.2814 13.3591 13.2814 13.2C13.2814 13.0409 13.2182 12.8883 13.1057 12.7757C12.9931 12.6632 12.8405 12.6 12.6814 12.6H11.3242C10.8468 12.6 10.389 12.4104 10.0514 12.0728C9.71384 11.7352 9.5242 11.2774 9.5242 10.8C9.5242 10.3226 9.71384 9.86477 10.0514 9.52721C10.389 9.18964 10.8468 9 11.3242 9H11.4502V7.95H12.5502V9H14.0346V10.2H11.3246C11.1655 10.2 11.0129 10.2632 10.9003 10.3757C10.7878 10.4883 10.7246 10.6409 10.7246 10.8C10.7246 10.9591 10.7878 11.1117 10.9003 11.2243C11.0129 11.3368 11.1655 11.4 11.3246 11.4H12.682C13.1594 11.4 13.6172 11.5896 13.9548 11.9272C14.2924 12.2648 14.482 12.7226 14.482 13.2C14.482 13.6774 14.2924 14.1352 13.9548 14.4728C13.6172 14.8104 13.1594 15 12.682 15H12.6816ZM20.5 11H17V8H20.5V11Z" fill="black"/>
</svg>
