<svg width="24" height="24" viewBox="0 0 24 24" fill="none" xmlns="http://www.w3.org/2000/svg">
<path d="M12 2C10.0222 2 8.08879 2.58649 6.4443 3.6853C4.79981 4.78412 3.51809 6.3459 2.76121 8.17317C2.00433 10.0004 1.8063 12.0111 2.19215 13.9509C2.578 15.8907 3.53041 17.6725 4.92894 19.0711C6.32746 20.4696 8.10929 21.422 10.0491 21.8079C11.9889 22.1937 13.9996 21.9957 15.8268 21.2388C17.6541 20.4819 19.2159 19.2002 20.3147 17.5557C21.4135 15.9112 22 13.9778 22 12C22 10.6868 21.7413 9.38642 21.2388 8.17317C20.7363 6.95991 19.9997 5.85752 19.0711 4.92893C18.1425 4.00035 17.0401 3.26375 15.8268 2.7612C14.6136 2.25866 13.3132 2 12 2ZM8.9314 9.8139C8.9314 9.6359 8.98419 9.46189 9.08308 9.31389C9.18197 9.16588 9.32254 9.05053 9.48699 8.98241C9.65144 8.91429 9.8324 8.89647 10.007 8.93119C10.1816 8.96592 10.3419 9.05164 10.4678 9.1775C10.5937 9.30337 10.6794 9.46374 10.7141 9.63832C10.7488 9.8129 10.731 9.99386 10.6629 10.1583C10.5948 10.3228 10.4794 10.4633 10.3314 10.5622C10.1834 10.6611 10.0094 10.7139 9.8314 10.7139C9.59271 10.7139 9.36379 10.6191 9.19501 10.4503C9.02623 10.2815 8.9314 10.0526 8.9314 9.8139ZM10.97 15H9.3225L13.03 9H14.6777L10.97 15ZM14.1684 15.0861C13.9904 15.0861 13.8164 15.0333 13.6684 14.9344C13.5204 14.8355 13.405 14.695 13.3369 14.5305C13.2688 14.3661 13.251 14.1851 13.2857 14.0105C13.3204 13.8359 13.4061 13.6756 13.532 13.5497C13.6579 13.4238 13.8182 13.3381 13.9928 13.3034C14.1674 13.2687 14.3484 13.2865 14.5128 13.3546C14.6773 13.4227 14.8178 13.5381 14.9167 13.6861C15.0156 13.8341 15.0684 14.0081 15.0684 14.1861C15.0684 14.4248 14.9736 14.6536 14.8049 14.8224C14.6361 14.9912 14.4073 15.086 14.1686 15.0861H14.1684Z" fill="black"/>
</svg>
