<svg width="24" height="24" viewBox="0 0 24 24" fill="none" xmlns="http://www.w3.org/2000/svg">
<path d="M12 2C10.0222 2 8.08879 2.58649 6.4443 3.6853C4.79981 4.78412 3.51809 6.3459 2.76121 8.17317C2.00433 10.0004 1.8063 12.0111 2.19215 13.9509C2.578 15.8907 3.53041 17.6725 4.92894 19.0711C6.32746 20.4696 8.10929 21.422 10.0491 21.8079C11.9889 22.1937 13.9996 21.9957 15.8268 21.2388C17.6541 20.4819 19.2159 19.2002 20.3147 17.5557C21.4135 15.9112 22 13.9778 22 12C22 10.6868 21.7413 9.38642 21.2388 8.17317C20.7363 6.95991 19.9997 5.85752 19.0711 4.92893C18.1425 4.00035 17.0401 3.26375 15.8268 2.7612C14.6136 2.25866 13.3132 2 12 2ZM12 20.5C10.3189 20.5 8.67548 20.0015 7.27766 19.0675C5.87984 18.1335 4.79037 16.806 4.14703 15.2528C3.50368 13.6996 3.33536 11.9906 3.66333 10.3417C3.9913 8.69289 4.80085 7.17834 5.9896 5.98959C7.17834 4.80085 8.6929 3.9913 10.3417 3.66333C11.9906 3.33535 13.6996 3.50368 15.2528 4.14702C16.806 4.79037 18.1335 5.87984 19.0675 7.27765C20.0015 8.67547 20.5 10.3189 20.5 12C20.4974 14.2535 19.601 16.414 18.0075 18.0075C16.414 19.601 14.2535 20.4974 12 20.5ZM10.7314 9.8139C10.7314 9.6359 10.6786 9.46189 10.5797 9.31389C10.4808 9.16588 10.3403 9.05053 10.1758 8.98241C10.0114 8.91429 9.83041 8.89647 9.65582 8.93119C9.48124 8.96592 9.32088 9.05164 9.19501 9.1775C9.06914 9.30337 8.98342 9.46374 8.9487 9.63832C8.91397 9.8129 8.93179 9.99386 8.99991 10.1583C9.06803 10.3228 9.18339 10.4633 9.33139 10.5622C9.47939 10.6611 9.6534 10.7139 9.8314 10.7139C10.0701 10.7139 10.299 10.6191 10.4678 10.4503C10.6366 10.2815 10.7314 10.0526 10.7314 9.8139ZM13.03 9L9.3225 15H10.97L14.6773 9H13.03ZM14.1688 13.2861C13.9908 13.2861 13.8168 13.3389 13.6688 13.4378C13.5208 13.5367 13.4054 13.6772 13.3373 13.8417C13.2692 14.0061 13.2514 14.1871 13.2861 14.3617C13.3208 14.5363 13.4065 14.6966 13.5324 14.8225C13.6583 14.9484 13.8186 15.0341 13.9932 15.0688C14.1678 15.1035 14.3488 15.0857 14.5132 15.0176C14.6777 14.9495 14.8182 14.8341 14.9171 14.6861C15.016 14.5381 15.0688 14.3641 15.0688 14.1861C15.0688 14.0679 15.0455 13.9508 15.0003 13.8416C14.955 13.7324 14.8887 13.6332 14.8051 13.5496C14.7215 13.4661 14.6223 13.3998 14.5131 13.3546C14.4039 13.3093 14.2868 13.2861 14.1686 13.2861H14.1688Z" fill="black"/>
</svg>
