<svg width="24" height="24" viewBox="0 0 24 24" fill="none" xmlns="http://www.w3.org/2000/svg">
<path d="M5.00003 10.5C4.70336 10.5 4.41335 10.588 4.16667 10.7528C3.92 10.9176 3.72774 11.1519 3.61421 11.426C3.50068 11.7001 3.47097 12.0017 3.52885 12.2926C3.58673 12.5836 3.72959 12.8509 3.93937 13.0607C4.14915 13.2704 4.41642 13.4133 4.70739 13.4712C4.99837 13.5291 5.29996 13.4994 5.57405 13.3858C5.84814 13.2723 6.08241 13.08 6.24723 12.8334C6.41206 12.5867 6.50003 12.2967 6.50003 12C6.50003 11.6022 6.34199 11.2207 6.06069 10.9393C5.77939 10.658 5.39785 10.5 5.00003 10.5ZM5.00003 12.6C4.88136 12.6 4.76536 12.5648 4.66669 12.4989C4.56802 12.433 4.49111 12.3393 4.4457 12.2296C4.40029 12.12 4.38841 11.9993 4.41156 11.883C4.43471 11.7666 4.49185 11.6597 4.57577 11.5757C4.65968 11.4918 4.76659 11.4347 4.88298 11.4115C4.99936 11.3884 5.12 11.4003 5.22964 11.4457C5.33927 11.4911 5.43298 11.568 5.49891 11.6667C5.56484 11.7653 5.60003 11.8813 5.60003 12C5.59984 12.1591 5.53657 12.3116 5.42409 12.4241C5.31161 12.5365 5.1591 12.5998 5.00003 12.6ZM12.4492 9.50001C11.8788 8.25547 10.8999 7.24343 9.67504 6.63189C8.45017 6.02034 7.053 5.84607 5.71545 6.13801C4.37789 6.42994 3.18039 7.17051 2.32173 8.2368C1.46306 9.30309 0.994873 10.631 0.994873 12C0.994873 13.3691 1.46306 14.6969 2.32173 15.7632C3.18039 16.8295 4.37789 17.5701 5.71545 17.862C7.053 18.1539 8.45017 17.9797 9.67504 17.3681C10.8999 16.7566 11.8788 15.7445 12.4492 14.5H13.75L15.75 13.25L17.75 14.5L19.75 13.25L21.75 14.5L24 13.0938V9.50001H12.4492ZM23 12.54L21.75 13.3212L20.28 12.4025L19.75 12.0712L19.22 12.4025L17.75 13.3212L16.28 12.4025L15.75 12.0712L15.22 12.4025L13.4632 13.5H11.8083L11.5406 14.0823C11.0655 15.1196 10.2498 15.9632 9.22908 16.473C8.20836 16.9829 7.04397 17.1282 5.92922 16.8851C4.81448 16.6419 3.81642 16.0248 3.10076 15.1362C2.3851 14.2476 1.99488 13.1409 1.99488 12C1.99488 10.859 2.3851 9.75235 3.10076 8.86374C3.81642 7.97513 4.81448 7.35802 5.92922 7.11484C7.04397 6.87166 8.20836 7.01706 9.22908 7.52688C10.2498 8.03671 11.0655 8.8803 11.5406 9.91761L11.8083 10.5H23V12.54Z" fill="black"/>
</svg>
