<svg width="24" height="24" viewBox="0 0 24 24" fill="none" xmlns="http://www.w3.org/2000/svg">
<path d="M14.4322 4.61L14.0783 4.256L12.25 6.0839V1H11.75V6.0839L9.9217 4.2555L9.5678 4.6095L12 7.0416L14.4322 4.61ZM2 9V21H22V9H2ZM21.5 20.5H2.5V9.5H21.5V20.5ZM12 17.5C12.4945 17.5 12.9778 17.3534 13.3889 17.0787C13.8 16.804 14.1205 16.4135 14.3097 15.9567C14.4989 15.4999 14.5484 14.9972 14.452 14.5123C14.3555 14.0273 14.1174 13.5819 13.7678 13.2322C13.4181 12.8826 12.9727 12.6445 12.4877 12.548C12.0028 12.4516 11.5001 12.5011 11.0433 12.6903C10.5865 12.8795 10.196 13.2 9.92133 13.6111C9.64662 14.0222 9.5 14.5055 9.5 15C9.5 15.663 9.76339 16.2989 10.2322 16.7678C10.7011 17.2366 11.337 17.5 12 17.5ZM12 13C12.3956 13 12.7822 13.1173 13.1111 13.3371C13.44 13.5568 13.6964 13.8692 13.8478 14.2346C13.9991 14.6001 14.0387 15.0022 13.9616 15.3902C13.8844 15.7781 13.6939 16.1345 13.4142 16.4142C13.1345 16.6939 12.7781 16.8844 12.3902 16.9616C12.0022 17.0387 11.6001 16.9991 11.2346 16.8478C10.8692 16.6964 10.5568 16.44 10.3371 16.1111C10.1173 15.7822 10 15.3956 10 15C10.0006 14.4698 10.2115 13.9614 10.5865 13.5865C10.9614 13.2115 11.4698 13.0006 12 13Z" fill="black"/>
</svg>
