<svg width="24" height="24" viewBox="0 0 24 24" fill="none" xmlns="http://www.w3.org/2000/svg">
<path d="M15.5033 8L13.7744 2.8525C13.7639 2.82134 13.7474 2.79255 13.7257 2.76778C13.7041 2.74301 13.6778 2.72274 13.6483 2.70814C13.6189 2.69353 13.5868 2.68487 13.554 2.68265C13.5212 2.68043 13.4883 2.6847 13.4571 2.6952C13.4259 2.70571 13.3971 2.72225 13.3724 2.74388C13.3476 2.76551 13.3273 2.79181 13.3127 2.82127C13.2981 2.85074 13.2895 2.88279 13.2872 2.9156C13.285 2.94841 13.2893 2.98134 13.2998 3.0125L14.9749 8H9.025L10.7 3.0127C10.7212 2.94977 10.7166 2.88098 10.6871 2.82147C10.6576 2.76197 10.6056 2.71662 10.5427 2.6954C10.4798 2.67418 10.411 2.67884 10.3515 2.70834C10.292 2.73784 10.2466 2.78977 10.2254 2.8527L8.4966 8H1V9.9L3.9385 21H20.0615L22.9658 10.1587L23 8H15.5033ZM7.8116 11.2766C7.7226 11.2766 7.6356 11.2502 7.56159 11.2008C7.48759 11.1513 7.42991 11.081 7.39585 10.9988C7.36179 10.9166 7.35288 10.8261 7.37025 10.7388C7.38761 10.6515 7.43047 10.5713 7.4934 10.5084C7.55634 10.4455 7.63652 10.4026 7.72381 10.3852C7.8111 10.3679 7.90158 10.3768 7.98381 10.4109C8.06603 10.4449 8.13631 10.5026 8.18576 10.5766C8.23521 10.6506 8.2616 10.7376 8.2616 10.8266C8.2616 10.9459 8.21419 11.0604 8.1298 11.1448C8.04541 11.2292 7.93095 11.2766 7.8116 11.2766ZM16.1884 11.2766C16.0994 11.2766 16.0124 11.2502 15.9384 11.2008C15.8644 11.1513 15.8067 11.081 15.7727 10.9988C15.7386 10.9166 15.7297 10.8261 15.747 10.7388C15.7644 10.6515 15.8073 10.5713 15.8702 10.5084C15.9331 10.4455 16.0133 10.4026 16.1006 10.3852C16.1879 10.3679 16.2784 10.3768 16.3606 10.4109C16.4428 10.4449 16.5131 10.5026 16.5626 10.5766C16.612 10.6506 16.6384 10.7376 16.6384 10.8266C16.6384 10.9459 16.591 11.0604 16.5066 11.1448C16.4222 11.2292 16.3077 11.2766 16.1884 11.2766Z" fill="black"/>
</svg>
