<svg width="24" height="24" viewBox="0 0 24 24" fill="none" xmlns="http://www.w3.org/2000/svg">
<path d="M18 2H6C5.46957 2 4.96086 2.21071 4.58579 2.58579C4.21071 2.96086 4 3.46957 4 4V22H20V4C20 3.46957 19.7893 2.96086 19.4142 2.58579C19.0391 2.21071 18.5304 2 18 2ZM16.25 15.5H12.75C12.5511 15.5 12.3603 15.421 12.2197 15.2803C12.079 15.1397 12 14.9489 12 14.75C12 14.5511 12.079 14.3603 12.2197 14.2197C12.3603 14.079 12.5511 14 12.75 14H16.25C16.4489 14 16.6397 14.079 16.7803 14.2197C16.921 14.3603 17 14.5511 17 14.75C17 14.9489 16.921 15.1397 16.7803 15.2803C16.6397 15.421 16.4489 15.5 16.25 15.5ZM17 12H7V5H17V12Z" fill="black"/>
</svg>
