<svg width="24" height="24" viewBox="0 0 24 24" fill="none" xmlns="http://www.w3.org/2000/svg">
<path d="M20.5 8H3.5C2.96957 8 2.46086 8.21071 2.08579 8.58579C1.71071 8.96086 1.5 9.46957 1.5 10C1.5 10.5304 1.71071 11.0391 2.08579 11.4142C2.46086 11.7893 2.96957 12 3.5 12H4V10H5V22H19V10H20V12H20.5C21.0304 12 21.5391 11.7893 21.9142 11.4142C22.2893 11.0391 22.5 10.5304 22.5 10C22.5 9.46957 22.2893 8.96086 21.9142 8.58579C21.5391 8.21071 21.0304 8 20.5 8ZM12 17C11.4067 17 10.8266 16.8241 10.3333 16.4944C9.83994 16.1648 9.45542 15.6962 9.22836 15.1481C9.0013 14.5999 8.94189 13.9967 9.05764 13.4147C9.1734 12.8328 9.45912 12.2982 9.87868 11.8787C10.2982 11.4591 10.8328 11.1734 11.4147 11.0576C11.9967 10.9419 12.5999 11.0013 13.1481 11.2284C13.6962 11.4554 14.1648 11.8399 14.4944 12.3333C14.8241 12.8266 15 13.4067 15 14C15 14.7956 14.6839 15.5587 14.1213 16.1213C13.5587 16.6839 12.7956 17 12 17ZM16 2H8L12 6L16 2Z" fill="black"/>
</svg>
