<svg width="24" height="24" viewBox="0 0 24 24" fill="none" xmlns="http://www.w3.org/2000/svg">
<path d="M12 2C10.0222 2 8.08879 2.58649 6.4443 3.6853C4.79981 4.78412 3.51809 6.3459 2.76121 8.17317C2.00433 10.0004 1.8063 12.0111 2.19215 13.9509C2.578 15.8907 3.53041 17.6725 4.92894 19.0711C6.32746 20.4696 8.10929 21.422 10.0491 21.8079C11.9889 22.1937 13.9996 21.9957 15.8268 21.2388C17.6541 20.4819 19.2159 19.2002 20.3147 17.5557C21.4135 15.9112 22 13.9778 22 12C22 10.6868 21.7413 9.38642 21.2388 8.17317C20.7363 6.95991 19.9997 5.85752 19.0711 4.92893C18.1425 4.00035 17.0401 3.26375 15.8268 2.7612C14.6136 2.25866 13.3132 2 12 2ZM8.3923 9.908C8.3923 9.68379 8.45879 9.46462 8.58336 9.2782C8.70792 9.09177 8.88497 8.94648 9.09212 8.86068C9.29926 8.77488 9.5272 8.75244 9.7471 8.79619C9.967 8.83994 10.169 8.94791 10.3275 9.10646C10.486 9.26501 10.594 9.467 10.6377 9.68691C10.6815 9.90681 10.659 10.1347 10.5732 10.3419C10.4874 10.549 10.3421 10.7261 10.1556 10.8506C9.96919 10.9752 9.75001 11.0416 9.5258 11.0416C9.37694 11.0416 9.22954 11.0123 9.09201 10.9553C8.95448 10.8983 8.82952 10.8148 8.72426 10.7096C8.61901 10.6043 8.53552 10.4793 8.47856 10.3418C8.4216 10.2043 8.39229 10.0569 8.3923 9.908ZM11.2043 15H9.0884L12.7957 9H14.9116L11.2043 15ZM14.4743 15.2255C14.2501 15.2255 14.0309 15.1591 13.8445 15.0345C13.6581 14.91 13.5127 14.7329 13.4269 14.5258C13.3411 14.3186 13.3186 14.0907 13.3624 13.8708C13.4061 13.6509 13.5141 13.4489 13.6726 13.2904C13.8311 13.1318 14.0331 13.0238 14.253 12.9801C14.4729 12.9363 14.7008 12.9588 14.908 13.0446C15.1151 13.1304 15.2922 13.2757 15.4168 13.4621C15.5413 13.6485 15.6078 13.8677 15.6078 14.0919C15.6078 14.3925 15.4884 14.6809 15.2758 14.8935C15.0632 15.1061 14.7749 15.2255 14.4742 15.2255H14.4743Z" fill="black"/>
</svg>
