<svg width="24" height="24" viewBox="0 0 24 24" fill="none" xmlns="http://www.w3.org/2000/svg">
<path d="M20 4H4C3.46957 4 2.96086 4.21071 2.58579 4.58579C2.21071 4.96086 2 5.46957 2 6C2 6.53043 2.21071 7.03914 2.58579 7.41421C2.96086 7.78929 3.46957 8 4 8H5V21H19V8H20C20.5304 8 21.0391 7.78929 21.4142 7.41421C21.7893 7.03914 22 6.53043 22 6C22 5.46957 21.7893 4.96086 21.4142 4.58579C21.0391 4.21071 20.5304 4 20 4ZM5 6.5H4C3.86739 6.5 3.74021 6.44732 3.64645 6.35355C3.55268 6.25979 3.5 6.13261 3.5 6C3.5 5.86739 3.55268 5.74021 3.64645 5.64645C3.74021 5.55268 3.86739 5.5 4 5.5H5V6.5ZM17.5 19.5H6.5V5.5H17.5V19.5ZM20 6.5H19V5.5H20C20.1326 5.5 20.2598 5.55268 20.3536 5.64645C20.4473 5.74021 20.5 5.86739 20.5 6C20.5 6.13261 20.4473 6.25979 20.3536 6.35355C20.2598 6.44732 20.1326 6.5 20 6.5ZM12 14C12.5933 14 13.1734 13.8241 13.6667 13.4944C14.1601 13.1648 14.5446 12.6962 14.7716 12.1481C14.9987 11.5999 15.0581 10.9967 14.9424 10.4147C14.8266 9.83279 14.5409 9.29824 14.1213 8.87868C13.7018 8.45912 13.1672 8.1734 12.5853 8.05764C12.0033 7.94189 11.4001 8.0013 10.8519 8.22836C10.3038 8.45542 9.83524 8.83994 9.50559 9.33329C9.17595 9.82664 9 10.4067 9 11C9 11.7956 9.31607 12.5587 9.87868 13.1213C10.4413 13.6839 11.2044 14 12 14ZM12 9.5C12.2967 9.5 12.5867 9.58797 12.8334 9.7528C13.08 9.91762 13.2723 10.1519 13.3858 10.426C13.4994 10.7001 13.5291 11.0017 13.4712 11.2926C13.4133 11.5836 13.2704 11.8509 13.0607 12.0607C12.8509 12.2704 12.5836 12.4133 12.2926 12.4712C12.0017 12.5291 11.7001 12.4994 11.426 12.3858C11.1519 12.2723 10.9176 12.08 10.7528 11.8334C10.588 11.5867 10.5 11.2967 10.5 11C10.5005 10.6023 10.6586 10.221 10.9398 9.93984C11.221 9.65863 11.6023 9.50045 12 9.5Z" fill="black"/>
</svg>
