<svg width="24" height="24" viewBox="0 0 24 24" fill="none" xmlns="http://www.w3.org/2000/svg">
<path d="M19.5 4H4.5C3.83696 4 3.20107 4.26339 2.73223 4.73223C2.26339 5.20107 2 5.83696 2 6.5V17.5C2 18.163 2.26339 18.7989 2.73223 19.2678C3.20107 19.7366 3.83696 20 4.5 20H19.5C20.163 20 20.7989 19.7366 21.2678 19.2678C21.7366 18.7989 22 18.163 22 17.5V6.5C22 5.83696 21.7366 5.20107 21.2678 4.73223C20.7989 4.26339 20.163 4 19.5 4ZM9.7275 15H9.45V16.05H8.55V15H6.75V14H9.7275C9.92641 14 10.1172 13.921 10.2578 13.7803C10.3985 13.6397 10.4775 13.4489 10.4775 13.25C10.4775 13.0511 10.3985 12.8603 10.2578 12.7197C10.1172 12.579 9.92641 12.5 9.7275 12.5H8.2646C7.80047 12.5 7.35535 12.3156 7.02716 11.9874C6.69897 11.6592 6.5146 11.2141 6.5146 10.75C6.5146 10.2859 6.69897 9.84075 7.02716 9.51256C7.35535 9.18437 7.80047 9 8.2646 9H8.55V7.95H9.45V9H10.9842V10H8.2642C8.06529 10 7.87452 10.079 7.73387 10.2197C7.59322 10.3603 7.5142 10.5511 7.5142 10.75C7.5142 10.9489 7.59322 11.1397 7.73387 11.2803C7.87452 11.421 8.06529 11.5 8.2642 11.5H9.7275C10.1916 11.5 10.6367 11.6844 10.9649 12.0126C11.2931 12.3408 11.4775 12.7859 11.4775 13.25C11.4775 13.7141 11.2931 14.1592 10.9649 14.4874C10.6367 14.8156 10.1916 15 9.7275 15Z" fill="black"/>
</svg>
