<svg width="24" height="24" viewBox="0 0 24 24" fill="none" xmlns="http://www.w3.org/2000/svg">
<path d="M19.5 4H4.5C3.83696 4 3.20107 4.26339 2.73223 4.73223C2.26339 5.20107 2 5.83696 2 6.5V17.5C2 18.163 2.26339 18.7989 2.73223 19.2678C3.20107 19.7366 3.83696 20 4.5 20H19.5C20.163 20 20.7989 19.7366 21.2678 19.2678C21.7366 18.7989 22 18.163 22 17.5V6.5C22 5.83696 21.7366 5.20107 21.2678 4.73223C20.7989 4.26339 20.163 4 19.5 4ZM9.66 15H9.6V16.05H8.4V15H6.75V13.7H9.66C9.79673 13.6962 9.92659 13.6393 10.022 13.5412C10.1173 13.4432 10.1707 13.3118 10.1707 13.175C10.1707 13.0382 10.1173 12.9068 10.022 12.8088C9.92659 12.7107 9.79673 12.6538 9.66 12.65H8.34C8.10034 12.65 7.86302 12.6028 7.6416 12.5111C7.42018 12.4194 7.219 12.2849 7.04953 12.1155C6.88006 11.946 6.74563 11.7448 6.65392 11.5234C6.5622 11.302 6.515 11.0647 6.515 10.825C6.515 10.5853 6.5622 10.348 6.65392 10.1266C6.74563 9.90518 6.88006 9.704 7.04953 9.53453C7.219 9.36506 7.42018 9.23063 7.6416 9.13892C7.86302 9.0472 8.10034 9 8.34 9H8.4V7.95H9.6V9H10.9848V10.3H8.34C8.20327 10.3038 8.07341 10.3607 7.97803 10.4588C7.88266 10.5568 7.82929 10.6882 7.82929 10.825C7.82929 10.9618 7.88266 11.0932 7.97803 11.1912C8.07341 11.2893 8.20327 11.3462 8.34 11.35H9.66C10.144 11.35 10.6082 11.5423 10.9505 11.8845C11.2927 12.2268 11.485 12.691 11.485 13.175C11.485 13.659 11.2927 14.1232 10.9505 14.4655C10.6082 14.8077 10.144 15 9.66 15Z" fill="black"/>
</svg>
