<svg width="24" height="24" viewBox="0 0 24 24" fill="none" xmlns="http://www.w3.org/2000/svg">
<path d="M10.6837 11.0294C10.6837 10.9041 10.6466 10.7816 10.577 10.6774C10.5073 10.5731 10.4084 10.4919 10.2926 10.4439C10.1768 10.396 10.0494 10.3834 9.92652 10.4079C9.8036 10.4323 9.69069 10.4927 9.60208 10.5813C9.51346 10.6699 9.45311 10.7828 9.42867 10.9057C9.40423 11.0286 9.41678 11.156 9.46475 11.2718C9.51272 11.3876 9.59394 11.4865 9.69815 11.5562C9.80236 11.6258 9.92488 11.6629 10.0502 11.6629C10.2182 11.6627 10.3792 11.5959 10.4979 11.4771C10.6167 11.3584 10.6835 11.1973 10.6837 11.0294ZM13.95 14.337C13.8247 14.337 13.7022 14.3742 13.598 14.4438C13.4938 14.5134 13.4126 14.6124 13.3646 14.7281C13.3167 14.8439 13.3041 14.9713 13.3286 15.0942C13.353 15.2171 13.4134 15.33 13.502 15.4186C13.5906 15.5072 13.7035 15.5676 13.8264 15.592C13.9493 15.6165 14.0767 15.6039 14.1925 15.556C14.3082 15.508 14.4072 15.4268 14.4768 15.3226C14.5464 15.2184 14.5836 15.0959 14.5836 14.9706C14.5834 14.8026 14.5166 14.6416 14.3978 14.5228C14.279 14.404 14.118 14.3372 13.95 14.337ZM12 2.8038L3 8V21H21V8L12 2.8038ZM8.9166 11.0294C8.91658 10.8052 8.98305 10.586 9.10761 10.3996C9.23217 10.2131 9.40922 10.0678 9.61637 9.982C9.82352 9.89619 10.0515 9.87374 10.2714 9.91748C10.4913 9.96123 10.6933 10.0692 10.8518 10.2278C11.0104 10.3863 11.1183 10.5883 11.162 10.8082C11.2058 11.0281 11.1833 11.2561 11.0975 11.4632C11.0116 11.6704 10.8663 11.8474 10.6799 11.9719C10.4934 12.0965 10.2742 12.1629 10.05 12.1629C9.7494 12.1628 9.46113 12.0434 9.24859 11.8308C9.03604 11.6183 8.91663 11.33 8.9166 11.0294ZM9.8379 16L13.5452 10H14.1621L10.4548 16H9.8379ZM13.9498 16.1042C13.7256 16.1042 13.5064 16.0377 13.32 15.9132C13.1336 15.7886 12.9883 15.6115 12.9025 15.4044C12.8167 15.1973 12.7942 14.9693 12.838 14.7494C12.8817 14.5295 12.9897 14.3276 13.1482 14.169C13.3068 14.0105 13.5087 13.9025 13.7286 13.8588C13.9485 13.815 14.1765 13.8375 14.3836 13.9233C14.5907 14.0091 14.7678 14.1544 14.8924 14.3408C15.0169 14.5272 15.0834 14.7464 15.0834 14.9706C15.0834 15.2712 14.964 15.5595 14.7514 15.7721C14.5389 15.9847 14.2506 16.1041 13.95 16.1042H13.9498Z" fill="black"/>
</svg>
