<svg width="24" height="24" viewBox="0 0 24 24" fill="none" xmlns="http://www.w3.org/2000/svg">
<path d="M1 5V19H23V5H1ZM22.5 18.5H1.5V5.5H22.5V18.5ZM10.4548 15L14.1621 9H13.5452L9.8379 15H10.4548ZM12.8163 13.9706C12.8163 14.1948 12.8828 14.414 13.0073 14.6004C13.1319 14.7868 13.3089 14.9321 13.5161 15.0179C13.7232 15.1037 13.9511 15.1262 14.171 15.0824C14.3909 15.0387 14.5929 14.9307 14.7514 14.7722C14.91 14.6137 15.018 14.4117 15.0617 14.1918C15.1055 13.9719 15.083 13.744 14.9972 13.5369C14.9115 13.3297 14.7662 13.1527 14.5798 13.0281C14.3934 12.9035 14.1742 12.837 13.95 12.837C13.8011 12.837 13.6537 12.8663 13.5162 12.9233C13.3786 12.9802 13.2536 13.0637 13.1484 13.169C13.0431 13.2743 12.9596 13.3992 12.9026 13.5368C12.8456 13.6743 12.8163 13.8217 12.8163 13.9706ZM14.5834 13.9706C14.5834 14.0959 14.5462 14.2184 14.4766 14.3226C14.407 14.4268 14.308 14.508 14.1923 14.556C14.0765 14.6039 13.9491 14.6165 13.8262 14.592C13.7033 14.5676 13.5904 14.5072 13.5018 14.4186C13.4132 14.33 13.3528 14.2171 13.3284 14.0942C13.3039 13.9713 13.3165 13.8439 13.3644 13.7281C13.4124 13.6124 13.4936 13.5134 13.5978 13.4438C13.702 13.3742 13.8245 13.337 13.9498 13.337C14.1178 13.3372 14.2788 13.404 14.3976 13.5228C14.5164 13.6416 14.5832 13.8026 14.5834 13.9706ZM10.05 11.1629C10.2742 11.1629 10.4934 11.0964 10.6798 10.9718C10.8662 10.8473 11.0115 10.6702 11.0973 10.4631C11.1831 10.2559 11.2056 10.028 11.1618 9.80811C11.1181 9.58821 11.0101 9.38622 10.8515 9.22769C10.693 9.06916 10.491 8.9612 10.2711 8.91747C10.0512 8.87374 9.82326 8.8962 9.61612 8.98202C9.40898 9.06783 9.23195 9.21315 9.1074 9.39958C8.98285 9.58601 8.91638 9.80519 8.9164 10.0294C8.91643 10.33 9.03587 10.6183 9.24846 10.8309C9.46105 11.0435 9.74937 11.1629 10.05 11.1629ZM10.05 9.3958C10.1753 9.3958 10.2978 9.43296 10.402 9.50258C10.5062 9.5722 10.5874 9.67116 10.6354 9.78693C10.6833 9.90271 10.6959 10.0301 10.6714 10.153C10.647 10.2759 10.5866 10.3888 10.498 10.4774C10.4094 10.566 10.2965 10.6264 10.1736 10.6508C10.0507 10.6753 9.92331 10.6627 9.80753 10.6148C9.69176 10.5668 9.5928 10.4856 9.52318 10.3814C9.45356 10.2772 9.4164 10.1547 9.4164 10.0294C9.41658 9.86142 9.4834 9.70037 9.60218 9.58158C9.72096 9.4628 9.88202 9.39599 10.05 9.3958Z" fill="black"/>
</svg>
