<svg width="24" height="24" viewBox="0 0 24 24" fill="none" xmlns="http://www.w3.org/2000/svg">
<path d="M12 2.8038L3 8V21H21V8L12 2.8038ZM8.9314 10.8138C8.9314 10.6358 8.98418 10.4618 9.08308 10.3138C9.18197 10.1658 9.32253 10.0504 9.48699 9.98231C9.65144 9.91419 9.8324 9.89637 10.007 9.93109C10.1816 9.96582 10.3419 10.0515 10.4678 10.1774C10.5937 10.3033 10.6794 10.4636 10.7141 10.6382C10.7488 10.8128 10.731 10.9938 10.6629 11.1582C10.5948 11.3227 10.4794 11.4632 10.3314 11.5621C10.1834 11.661 10.0094 11.7138 9.8314 11.7138C9.59272 11.7138 9.36382 11.619 9.19504 11.4502C9.02626 11.2815 8.93143 11.0526 8.9314 10.8139V10.8138ZM9.3225 16L13.03 10H14.6777L10.97 16H9.3225ZM14.1686 16.0861C13.9906 16.0861 13.8166 16.0333 13.6686 15.9344C13.5206 15.8355 13.4052 15.695 13.3371 15.5305C13.269 15.3661 13.2512 15.1851 13.2859 15.0105C13.3206 14.8359 13.4063 14.6756 13.5322 14.5497C13.6581 14.4238 13.8184 14.3381 13.993 14.3034C14.1676 14.2687 14.3486 14.2865 14.513 14.3546C14.6775 14.4227 14.818 14.5381 14.9169 14.6861C15.0158 14.8341 15.0686 15.0081 15.0686 15.1861C15.0686 15.3043 15.0453 15.4213 15.0001 15.5305C14.9549 15.6397 14.8886 15.7389 14.805 15.8225C14.7214 15.9061 14.6222 15.9724 14.513 16.0176C14.4038 16.0628 14.2868 16.0861 14.1686 16.0861Z" fill="black"/>
</svg>
