<svg width="24" height="24" viewBox="0 0 24 24" fill="none" xmlns="http://www.w3.org/2000/svg">
<path d="M19 4H5C4.20435 4 3.44129 4.31607 2.87868 4.87868C2.31607 5.44129 2 6.20435 2 7V17C2 17.7956 2.31607 18.5587 2.87868 19.1213C3.44129 19.6839 4.20435 20 5 20H19C19.7956 20 20.5587 19.6839 21.1213 19.1213C21.6839 18.5587 22 17.7956 22 17V7C22 6.20435 21.6839 5.44129 21.1213 4.87868C20.5587 4.31607 19.7956 4 19 4ZM20.5 17C20.4995 17.3977 20.3414 17.779 20.0602 18.0602C19.779 18.3414 19.3977 18.4995 19 18.5H5C4.60231 18.4995 4.22104 18.3414 3.93984 18.0602C3.65863 17.779 3.50045 17.3977 3.5 17V7C3.50045 6.60231 3.65863 6.22104 3.93984 5.93984C4.22104 5.65863 4.60231 5.50045 5 5.5H19C19.3977 5.50045 19.779 5.65863 20.0602 5.93984C20.3414 6.22104 20.4995 6.60231 20.5 7V17ZM9 11C9.2426 11 9.47975 10.9281 9.68146 10.7933C9.88318 10.6585 10.0404 10.4669 10.1332 10.2428C10.2261 10.0187 10.2504 9.77204 10.203 9.5341C10.1557 9.29617 10.0389 9.07761 9.86734 8.90606C9.69579 8.73452 9.47723 8.6177 9.2393 8.57037C9.00136 8.52304 8.75473 8.54733 8.5306 8.64017C8.30647 8.73301 8.1149 8.89022 7.98012 9.09194C7.84534 9.29365 7.7734 9.5308 7.7734 9.7734C7.7734 9.93448 7.80513 10.094 7.86677 10.2428C7.92841 10.3916 8.01876 10.5268 8.13266 10.6407C8.24656 10.7546 8.38178 10.845 8.5306 10.9066C8.67942 10.9683 8.83892 11 9 11ZM6 13.7109V15H12V13.7109C11.606 13.3169 11.1383 13.0044 10.6236 12.7912C10.1089 12.578 9.55715 12.4682 9 12.4682C8.44285 12.4682 7.89115 12.578 7.37641 12.7912C6.86167 13.0044 6.39396 13.3169 6 13.7109Z" fill="black"/>
</svg>
