<svg width="24" height="24" viewBox="0 0 24 24" fill="none" xmlns="http://www.w3.org/2000/svg">
<path d="M20.5 4H3.5C2.96957 4 2.46086 4.21071 2.08579 4.58579C1.71071 4.96086 1.5 5.46957 1.5 6C1.5 6.53043 1.71071 7.03914 2.08579 7.41421C2.46086 7.78929 2.96957 8 3.5 8H4V6H5V18C5 18.7956 5.31607 19.5587 5.87868 20.1213C6.44129 20.6839 7.20435 21 8 21H16C16.7956 21 17.5587 20.6839 18.1213 20.1213C18.6839 19.5587 19 18.7956 19 18V6H20V8H20.5C21.0304 8 21.5391 7.78929 21.9142 7.41421C22.2893 7.03914 22.5 6.53043 22.5 6C22.5 5.46957 22.2893 4.96086 21.9142 4.58579C21.5391 4.21071 21.0304 4 20.5 4ZM11 19H8V6H11V19Z" fill="black"/>
</svg>
