<svg width="24" height="24" viewBox="0 0 24 24" fill="none" xmlns="http://www.w3.org/2000/svg">
<path d="M19.5 4H4.5C3.83696 4 3.20107 4.26339 2.73223 4.73223C2.26339 5.20107 2 5.83696 2 6.5V17.5C2 18.163 2.26339 18.7989 2.73223 19.2678C3.20107 19.7366 3.83696 20 4.5 20H19.5C20.163 20 20.7989 19.7366 21.2678 19.2678C21.7366 18.7989 22 18.163 22 17.5V6.5C22 5.83696 21.7366 5.20107 21.2678 4.73223C20.7989 4.26339 20.163 4 19.5 4ZM7 11H4V8H7V11ZM12.66 15H12.6V16.05H11.4V15H9.75V13.7H12.66C12.7967 13.6962 12.9266 13.6393 13.022 13.5412C13.1173 13.4432 13.1707 13.3118 13.1707 13.175C13.1707 13.0382 13.1173 12.9068 13.022 12.8088C12.9266 12.7107 12.7967 12.6538 12.66 12.65H11.34C10.856 12.65 10.3918 12.4577 10.0495 12.1155C9.70728 11.7732 9.515 11.309 9.515 10.825C9.515 10.341 9.70728 9.87678 10.0495 9.53453C10.3918 9.19228 10.856 9 11.34 9H11.4V7.95H12.6V9H13.9848V10.3H11.34C11.2033 10.3038 11.0734 10.3607 10.978 10.4588C10.8827 10.5568 10.8293 10.6882 10.8293 10.825C10.8293 10.9618 10.8827 11.0932 10.978 11.1912C11.0734 11.2893 11.2033 11.3462 11.34 11.35H12.66C13.144 11.35 13.6082 11.5423 13.9505 11.8845C14.2927 12.2268 14.485 12.691 14.485 13.175C14.485 13.659 14.2927 14.1232 13.9505 14.4655C13.6082 14.8077 13.144 15 12.66 15ZM20 11H17V8H20V11Z" fill="black"/>
</svg>
