<svg width="24" height="24" viewBox="0 0 24 24" fill="none" xmlns="http://www.w3.org/2000/svg">
<path d="M19 4H5C4.20435 4 3.44129 4.31607 2.87868 4.87868C2.31607 5.44129 2 6.20435 2 7V17C2 17.7956 2.31607 18.5587 2.87868 19.1213C3.44129 19.6839 4.20435 20 5 20H19C19.7956 20 20.5587 19.6839 21.1213 19.1213C21.6839 18.5587 22 17.7956 22 17V7C22 6.20435 21.6839 5.44129 21.1213 4.87868C20.5587 4.31607 19.7956 4 19 4ZM20 9H16.6063C17.0025 9.60709 17.274 10.287 17.4048 11H20V17C19.9997 17.2651 19.8943 17.5193 19.7068 17.7068C19.5193 17.8943 19.2651 17.9997 19 18H5C4.73487 17.9997 4.48069 17.8943 4.29321 17.7068C4.10574 17.5193 4.00029 17.2651 4 17V11H6.5952C6.72604 10.287 6.99748 9.60709 7.3937 9H4V7C4.00029 6.73487 4.10574 6.48069 4.29321 6.29321C4.48069 6.10574 4.73487 6.00029 5 6H19C19.2651 6.00029 19.5193 6.10574 19.7068 6.29321C19.8943 6.48069 19.9997 6.73487 20 7V9ZM12 8.75C11.3572 8.75 10.7289 8.94061 10.1944 9.29772C9.65994 9.65484 9.24338 10.1624 8.99739 10.7563C8.75141 11.3501 8.68705 12.0036 8.81245 12.634C8.93785 13.2645 9.24738 13.8436 9.7019 14.2981C10.1564 14.7526 10.7355 15.0622 11.366 15.1876C11.9964 15.313 12.6499 15.2486 13.2437 15.0026C13.8376 14.7566 14.3452 14.3401 14.7023 13.8056C15.0594 13.2711 15.25 12.6428 15.25 12C15.25 11.138 14.9076 10.3114 14.2981 9.7019C13.6886 9.09241 12.862 8.75 12 8.75ZM12 13.65C11.6737 13.65 11.3547 13.5532 11.0833 13.3719C10.812 13.1906 10.6005 12.9329 10.4756 12.6314C10.3507 12.3299 10.318 11.9982 10.3817 11.6781C10.4454 11.358 10.6025 11.064 10.8333 10.8333C11.064 10.6025 11.358 10.4454 11.6781 10.3817C11.9982 10.318 12.3299 10.3507 12.6314 10.4756C12.9329 10.6005 13.1906 10.812 13.3719 11.0833C13.5532 11.3547 13.65 11.6737 13.65 12C13.6495 12.4375 13.4755 12.8568 13.1662 13.1662C12.8568 13.4755 12.4375 13.6495 12 13.65Z" fill="black"/>
</svg>
