<svg width="24" height="24" viewBox="0 0 24 24" fill="none" xmlns="http://www.w3.org/2000/svg">
<path d="M10.6837 10.0294C10.6837 9.90408 10.6466 9.78156 10.577 9.67735C10.5073 9.57314 10.4084 9.49192 10.2926 9.44395C10.1768 9.39598 10.0494 9.38342 9.92652 9.40787C9.8036 9.43231 9.69069 9.49266 9.60208 9.58128C9.51346 9.66989 9.45311 9.7828 9.42867 9.90571C9.40423 10.0286 9.41678 10.156 9.46475 10.2718C9.51272 10.3876 9.59394 10.4865 9.69815 10.5562C9.80236 10.6258 9.92488 10.6629 10.0502 10.6629C10.2182 10.6627 10.3792 10.5959 10.4979 10.4771C10.6167 10.3584 10.6835 10.1973 10.6837 10.0294ZM13.95 13.337C13.8247 13.337 13.7022 13.3742 13.598 13.4438C13.4938 13.5134 13.4126 13.6124 13.3646 13.7281C13.3167 13.8439 13.3041 13.9713 13.3286 14.0942C13.353 14.2171 13.4134 14.33 13.502 14.4186C13.5906 14.5072 13.7035 14.5676 13.8264 14.592C13.9493 14.6165 14.0767 14.6039 14.1925 14.556C14.3082 14.508 14.4072 14.4268 14.4768 14.3226C14.5464 14.2184 14.5836 14.0959 14.5836 13.9706C14.5834 13.8026 14.5166 13.6416 14.3978 13.5228C14.279 13.404 14.118 13.3372 13.95 13.337ZM19.5 4H4.5C3.83696 4 3.20107 4.26339 2.73223 4.73223C2.26339 5.20107 2 5.83696 2 6.5V17.5C2 18.163 2.26339 18.7989 2.73223 19.2678C3.20107 19.7366 3.83696 20 4.5 20H19.5C20.163 20 20.7989 19.7366 21.2678 19.2678C21.7366 18.7989 22 18.163 22 17.5V6.5C22 5.83696 21.7366 5.20107 21.2678 4.73223C20.7989 4.26339 20.163 4 19.5 4ZM7 11H2.5V8H7V11ZM8.9166 10.0294C8.91658 9.80518 8.98305 9.58599 9.10761 9.39956C9.23217 9.21312 9.40922 9.06781 9.61637 8.982C9.82352 8.89619 10.0515 8.87374 10.2714 8.91748C10.4913 8.96123 10.6933 9.06921 10.8518 9.22776C11.0104 9.38631 11.1183 9.58832 11.162 9.80823C11.2058 10.0281 11.1833 10.2561 11.0975 10.4632C11.0116 10.6704 10.8663 10.8474 10.6799 10.9719C10.4934 11.0965 10.2742 11.1629 10.05 11.1629C9.7494 11.1628 9.46113 11.0434 9.24859 10.8308C9.03604 10.6183 8.91663 10.33 8.9166 10.0294ZM9.8379 15L13.5452 9H14.1621L10.4548 15H9.8379ZM13.9498 15.1042C13.7256 15.1042 13.5064 15.0377 13.32 14.9132C13.1336 14.7886 12.9883 14.6115 12.9025 14.4044C12.8167 14.1973 12.7942 13.9693 12.838 13.7494C12.8817 13.5295 12.9897 13.3276 13.1482 13.169C13.3068 13.0105 13.5087 12.9025 13.7286 12.8588C13.9485 12.815 14.1765 12.8375 14.3836 12.9233C14.5907 13.0091 14.7678 13.1544 14.8924 13.3408C15.0169 13.5272 15.0834 13.7464 15.0834 13.9706C15.0834 14.2712 14.964 14.5595 14.7514 14.7721C14.5389 14.9847 14.2506 15.1041 13.95 15.1042H13.9498ZM21.5 11H17V8H21.5V11Z" fill="black"/>
</svg>
