<svg width="24" height="24" viewBox="0 0 24 24" fill="none" xmlns="http://www.w3.org/2000/svg">
<path d="M4 2L6.0831 20.2271C6.13886 20.715 6.37218 21.1653 6.7386 21.4923C7.10502 21.8192 7.57892 22 8.07 22H15.93C16.4211 22 16.895 21.8193 17.2615 21.4923C17.6279 21.1654 17.8612 20.715 17.917 20.2271L20 2H4ZM17.7584 4L17.3894 7.2289C16.9425 7.07345 16.4731 6.99273 16 6.99C15.0904 7.00092 14.2044 7.28039 13.4531 7.7933C13.0334 8.10646 12.5237 8.27563 12 8.27563C11.4763 8.27563 10.9666 8.10646 10.5469 7.7933C9.98008 7.39923 9.32894 7.14319 8.64551 7.04566C7.96209 6.94813 7.26533 7.01181 6.6109 7.2316L6.2416 4H17.7584ZM8.07 20L6.8467 9.295C7.25114 9.06806 7.71282 8.96357 8.17557 8.99425C8.63831 9.02493 9.08216 9.18945 9.4531 9.4678C10.1995 9.99066 11.0888 10.2711 12.0001 10.271C12.9114 10.2709 13.8006 9.99031 14.5469 9.4673C14.973 9.16725 15.4789 9.00107 16 8.99C16.4037 8.99577 16.7997 9.10068 17.1533 9.2955L15.93 20H8.07Z" fill="black"/>
</svg>
