<svg width="24" height="24" viewBox="0 0 24 24" fill="none" xmlns="http://www.w3.org/2000/svg">
<path d="M9.6667 7V1H5.3333V7L4.3748 7.8231C3.94355 8.1934 3.59743 8.65254 3.36014 9.16906C3.12285 9.68558 3 10.2473 3 10.8157V20C3 20.2652 3.10536 20.5196 3.29289 20.7071C3.48043 20.8946 3.73478 21 4 21H11C11.2652 21 11.5196 20.8946 11.7071 20.7071C11.8946 20.5196 12 20.2652 12 20V10.8181C12 10.2489 11.877 9.68648 11.6394 9.16927C11.4018 8.65206 11.0552 8.19231 10.6234 7.8215L9.6667 7ZM10.5667 19.5667H4.4333V10.8181C4.43254 10.4427 4.51565 10.0718 4.67654 9.73261C4.83744 9.39341 5.07207 9.09443 5.3633 8.8575L6.3219 8.0343L6.7671 7.6143V2.4343H8.2333V7.6138L8.6785 8.0338L9.6371 8.857C9.92833 9.09393 10.163 9.39291 10.3239 9.73211C10.4848 10.0713 10.5679 10.4422 10.5671 10.8176L10.5667 19.5667ZM18.6833 15.9261C19.5649 15.7557 20.3502 15.2597 20.8828 14.5368C21.4155 13.8139 21.6567 12.9171 21.5583 12.0245L21 7H15L14.4417 12.0245C14.3434 12.917 14.5845 13.8139 15.1172 14.5368C15.6499 15.2597 16.4351 15.7557 17.3167 15.9261V19.7435L15 20.25V21H21V20.25L18.6833 19.7435V15.9261ZM16.45 13.8071C16.2543 13.5895 16.1069 13.3329 16.0177 13.0541C15.9286 12.7754 15.8995 12.4809 15.9326 12.1901L16.3426 8.5001H19.6574L20.0674 12.1901C20.1162 12.6283 20.0245 13.0707 19.8055 13.4534C19.5865 13.836 19.2515 14.1392 18.849 14.3192C18.4465 14.4991 17.9972 14.5465 17.566 14.4544C17.1348 14.3624 16.744 14.1357 16.45 13.8071Z" fill="black"/>
</svg>
