<svg width="24" height="24" viewBox="0 0 24 24" fill="none" xmlns="http://www.w3.org/2000/svg">
<path d="M19.5626 7.09989C19.5611 6.03266 19.1795 5.00085 18.4863 4.18945C17.793 3.37805 16.8334 2.84012 15.7795 2.67209C15.3744 2.03693 14.8157 1.5141 14.1552 1.15191C13.4946 0.789719 12.7534 0.599854 12.0001 0.599854C11.2467 0.599854 10.5055 0.789719 9.84495 1.15191C9.18438 1.5141 8.62575 2.03693 8.22066 2.67209C7.31152 2.8148 6.46843 3.23419 5.80614 3.87316C5.14386 4.51214 4.69455 5.33966 4.51937 6.24311C4.34419 7.14656 4.45165 8.08205 4.82712 8.92224C5.2026 9.76244 5.82784 10.4665 6.61776 10.9387L11.5378 22.8781C11.5755 22.9697 11.6396 23.048 11.7219 23.1031C11.8042 23.1582 11.901 23.1876 12.0001 23.1876C12.0991 23.1876 12.1959 23.1582 12.2782 23.1031C12.3605 23.048 12.4246 22.9697 12.4624 22.8781L17.3824 10.9387C18.0466 10.5419 18.5966 9.97964 18.9787 9.30683C19.3609 8.63402 19.562 7.87364 19.5626 7.09989ZM8.93756 4.59989C9.1417 4.60229 9.34477 4.62986 9.54216 4.68199C9.63913 4.10017 9.93935 3.5716 10.3894 3.19033C10.8395 2.80907 11.4102 2.59982 12.0001 2.59982C12.5899 2.59982 13.1606 2.80907 13.6107 3.19033C14.0608 3.5716 14.361 4.10017 14.458 4.68199C15.0045 4.54189 15.5825 4.5918 16.0969 4.82353C16.6114 5.05525 17.0318 5.45502 17.289 5.95719C17.5463 6.45936 17.6252 7.03409 17.5127 7.587C17.4002 8.13991 17.1031 8.63815 16.6701 8.99989H7.33006C6.93717 8.67129 6.65517 8.22952 6.52251 7.73481C6.38984 7.24009 6.41297 6.7165 6.58873 6.23541C6.76449 5.75432 7.08434 5.33913 7.50467 5.04645C7.92501 4.75377 8.42537 4.59783 8.93756 4.59989ZM12.0001 18.7506L8.80606 10.9999H15.1941L12.0001 18.7506Z" fill="black"/>
</svg>
