<svg width="24" height="24" viewBox="0 0 24 24" fill="none" xmlns="http://www.w3.org/2000/svg">
<path d="M7.5625 12C7.38414 12.1783 7.24267 12.39 7.14615 12.623C7.04964 12.856 6.99997 13.1058 7 13.358V14.642C6.99997 14.8942 7.04964 15.144 7.14615 15.377C7.24267 15.61 7.38414 15.8217 7.5625 16H16.4375C16.6159 15.8217 16.7573 15.61 16.8538 15.377C16.9504 15.144 17 14.8942 17 14.642V13.358C17 13.1058 16.9504 12.856 16.8538 12.623C16.7573 12.39 16.6159 12.1783 16.4375 12H7.5625ZM13.6667 0.7C13.6667 0.514348 13.593 0.336301 13.4617 0.205025C13.3304 0.0737498 13.1524 0 12.9667 0H11.0333C10.8476 0 10.6696 0.0737498 10.5383 0.205025C10.407 0.336301 10.3333 0.514348 10.3333 0.7V2H13.6667V0.7ZM7.5625 18C7.38414 18.1783 7.24267 18.39 7.14615 18.623C7.04964 18.856 6.99997 19.1058 7 19.358V20.5729C7 20.9866 7.10575 21.3935 7.30721 21.7548C7.50867 22.1162 7.79915 22.42 8.15107 22.6375C8.503 22.855 8.90468 22.979 9.31797 22.9976C9.73127 23.0162 10.1425 22.9288 10.5125 22.7438C10.9743 22.5128 11.4836 22.3926 12 22.3926C12.5164 22.3926 13.0257 22.5128 13.4875 22.7438C13.8575 22.9288 14.2687 23.0162 14.682 22.9976C15.0953 22.979 15.497 22.855 15.8489 22.6375C16.2008 22.42 16.4913 22.1162 16.6928 21.7548C16.8943 21.3935 17 20.9866 17 20.5729V19.358C17 19.1058 16.9504 18.856 16.8538 18.623C16.7573 18.39 16.6159 18.1783 16.4375 18H7.5625ZM15.4352 5.2086L14.0383 4H9.9611L8.55 5.232C8.06326 5.65686 7.6731 6.18099 7.40575 6.76916C7.1384 7.35733 7.00005 7.99592 7 8.642C6.99997 8.89421 7.04964 9.14395 7.14615 9.37696C7.24267 9.60997 7.38414 9.82168 7.5625 10H16.4375C16.6159 9.82168 16.7573 9.60997 16.8538 9.37696C16.9504 9.14395 17 8.89421 17 8.642V8.632C17.0001 7.98252 16.8603 7.34063 16.5903 6.74993C16.3203 6.15922 15.9264 5.63355 15.4352 5.2086Z" fill="black"/>
</svg>
