<svg width="24" height="24" viewBox="0 0 24 24" fill="none" xmlns="http://www.w3.org/2000/svg">
<path d="M0 20V20.5C2.03693 20.8353 4.09797 21.0025 6.1623 21H17.8377C19.902 21.0025 21.9631 20.8353 24 20.5V20H0ZM9.6641 18H14.3359C15.4458 18 16.5166 17.5898 17.3424 16.8482C18.1682 16.1067 18.6909 15.0861 18.8099 13.9826L18.916 13H19.3168C20.3037 13 21.2557 12.6352 21.9899 11.9757C22.724 11.3162 23.1885 10.4086 23.2939 9.4274L23.4724 7.7674C23.5099 7.41855 23.4736 7.0657 23.3658 6.73181C23.258 6.39792 23.0811 6.09046 22.8466 5.82943C22.6122 5.5684 22.3254 5.35965 22.005 5.21675C21.6845 5.07384 21.3376 4.99999 20.9867 5H19.7789L19.9946 3H4.0054L5.19 13.9826C5.30903 15.0861 5.8317 16.1067 6.65755 16.8483C7.4834 17.5898 8.55418 18 9.6641 18ZM19.671 6H20.9867C21.1972 6.00001 21.4053 6.04431 21.5975 6.13002C21.7898 6.21574 21.9618 6.34095 22.1025 6.49752C22.2431 6.65409 22.3493 6.83851 22.414 7.03879C22.4787 7.23907 22.5006 7.45072 22.4781 7.66L22.3 9.3206C22.222 10.057 21.8739 10.7384 21.323 11.2332C20.7721 11.7281 20.0573 12.0012 19.3168 12H19.0238L19.671 6ZM18.881 4L17.8158 13.8754C17.7244 14.7342 17.3183 15.5287 16.6757 16.1057C16.0331 16.6827 15.1995 17.0013 14.3359 17H9.6641C8.80044 17.0013 7.96689 16.6828 7.32426 16.1058C6.68163 15.5288 6.27545 14.7342 6.1841 13.8754L5.1191 4H18.881Z" fill="black"/>
</svg>
