<svg width="24" height="24" viewBox="0 0 24 24" fill="none" xmlns="http://www.w3.org/2000/svg">
<path d="M4 2L6.0831 20.2271C6.13886 20.715 6.37218 21.1653 6.7386 21.4923C7.10502 21.8192 7.57892 22 8.07 22H15.93C16.4211 22 16.895 21.8193 17.2615 21.4923C17.6279 21.1654 17.8612 20.715 17.917 20.2271L20 2H4ZM18.8792 3L18.3485 7.6434C17.7287 7.21282 16.9909 6.98456 16.2362 6.98993C15.4816 6.9953 14.7471 7.23404 14.1335 7.6734C13.5109 8.11788 12.765 8.3568 12 8.3568C11.2351 8.3568 10.4892 8.11788 9.8666 7.6734C9.2387 7.23956 8.49621 7.00173 7.7331 6.99C6.9906 7.00198 6.26751 7.22909 5.6515 7.6438L5.1208 3H18.8792Z" fill="black"/>
</svg>
