<svg width="24" height="24" viewBox="0 0 24 24" fill="none" xmlns="http://www.w3.org/2000/svg">
<path d="M0 20V20.75C2.01584 21.2503 4.08531 21.5022 6.1623 21.5H17.8377C19.9147 21.5022 21.9842 21.2503 24 20.75V20H0ZM9.6641 18H14.3359C15.4458 18 16.5166 17.5898 17.3424 16.8482C18.1682 16.1067 18.6909 15.0861 18.8099 13.9826L18.916 13H19.3168C20.3037 13 21.2557 12.6352 21.9899 11.9757C22.724 11.3162 23.1885 10.4086 23.2939 9.4274L23.4724 7.7674C23.5099 7.41855 23.4736 7.0657 23.3658 6.73181C23.258 6.39792 23.0811 6.09046 22.8466 5.82943C22.6122 5.5684 22.3254 5.35965 22.005 5.21675C21.6845 5.07384 21.3376 4.99999 20.9867 5H19.7789L19.9946 3H4.0054L5.19 13.9826C5.30903 15.0861 5.8317 16.1067 6.65755 16.8483C7.4834 17.5898 8.55418 18 9.6641 18ZM19.6171 6.5H20.9871C21.1274 6.5 21.2662 6.52953 21.3944 6.58669C21.5226 6.64384 21.6373 6.72734 21.7311 6.83174C21.8248 6.93615 21.8956 7.05913 21.9387 7.19268C21.9819 7.32623 21.9964 7.46736 21.9814 7.6069L21.8029 9.2669C21.7379 9.88063 21.4479 10.4485 20.9888 10.8609C20.5296 11.2734 19.934 11.501 19.3168 11.5H19.0778L19.6171 6.5ZM18.3241 4.5L17.3186 13.8217C17.2403 14.5578 16.8922 15.2388 16.3414 15.7334C15.7906 16.228 15.0762 16.5011 14.3359 16.5H9.6641C8.92384 16.5011 8.20941 16.228 7.65861 15.7334C7.10782 15.2388 6.7597 14.5578 6.6814 13.8217L5.6759 4.5H18.3241Z" fill="black"/>
</svg>
