<svg width="24" height="24" viewBox="0 0 24 24" fill="none" xmlns="http://www.w3.org/2000/svg">
<path d="M18.65 15.7213C19.5375 15.5584 20.3301 15.0648 20.8679 14.3402C21.4057 13.6157 21.6485 12.714 21.5474 11.8174L21 7H15L14.4526 11.8174C14.3515 12.714 14.5943 13.6157 15.1321 14.3402C15.6699 15.0648 16.4625 15.5584 17.35 15.7213V19.7362L15 20.25V21H21V20.25L18.65 19.7362V15.7213ZM10.2187 7.8124L9 7V1H6V7L4.7813 7.8124C4.23335 8.17767 3.78407 8.67259 3.47332 9.2532C3.16258 9.83381 2.99999 10.4822 3 11.1407V20C3 20.2652 3.10536 20.5196 3.29289 20.7071C3.48043 20.8946 3.73478 21 4 21H11C11.2652 21 11.5196 20.8946 11.7071 20.7071C11.8946 20.5196 12 20.2652 12 20V11.1407C12 10.4822 11.8374 9.83381 11.5267 9.2532C11.2159 8.67259 10.7666 8.17767 10.2187 7.8124Z" fill="black"/>
</svg>
