<svg width="24" height="24" viewBox="0 0 24 24" fill="none" xmlns="http://www.w3.org/2000/svg">
<path d="M21.3384 4.50492C18.5155 2.86424 15.3085 2 12.0434 2C8.77831 2 5.57137 2.86424 2.74842 4.50492L1.88422 5.00492L12.0435 22.6016L22.2035 5.00492L21.3384 4.50492ZM8.75232 9.82672C8.65222 9.56779 8.63116 9.28499 8.69179 9.01409C8.75242 8.74319 8.89202 8.49635 9.09294 8.30479C9.29386 8.11322 9.54707 7.98554 9.82055 7.93788C10.094 7.89023 10.3755 7.92474 10.6294 8.03705C10.8832 8.14936 11.0981 8.33444 11.2468 8.56886C11.3955 8.80329 11.4713 9.07654 11.4647 9.35407C11.4581 9.6316 11.3693 9.90093 11.2097 10.128C11.05 10.3551 10.8265 10.5297 10.5676 10.6298C10.3957 10.6963 10.2124 10.7282 10.0281 10.7238C9.84381 10.7195 9.6622 10.6788 9.49364 10.6042C9.32507 10.5297 9.17284 10.4226 9.04565 10.2892C8.91845 10.1558 8.81878 9.99865 8.75232 9.82672ZM12.26 15.1146C12.0858 15.3308 11.8514 15.4904 11.5865 15.5734C11.3216 15.6564 11.038 15.6589 10.7716 15.5807C10.5053 15.5025 10.2681 15.347 10.0901 15.134C9.91205 14.921 9.80119 14.6599 9.77153 14.3839C9.74186 14.1079 9.79472 13.8293 9.92341 13.5833C10.0521 13.3373 10.2508 13.135 10.4945 13.002C10.7382 12.869 11.0158 12.8112 11.2923 12.8359C11.5688 12.8607 11.8318 12.9669 12.0479 13.1411C12.3377 13.3747 12.5229 13.7139 12.5627 14.084C12.6024 14.454 12.4936 14.8248 12.26 15.1146ZM16.2562 11.0363C16.2134 11.3106 16.0902 11.5661 15.9022 11.7704C15.7142 11.9746 15.4699 12.1186 15.2001 12.184C14.9302 12.2494 14.6471 12.2333 14.3864 12.1378C14.1258 12.0422 13.8993 11.8716 13.7356 11.6473C13.572 11.423 13.4785 11.1553 13.467 10.8779C13.4555 10.6005 13.5266 10.326 13.6711 10.089C13.8157 9.85195 14.0273 9.66314 14.2792 9.5464C14.5311 9.42966 14.8119 9.39024 15.0862 9.43312C15.4539 9.49064 15.7837 9.69184 16.0031 9.99249C16.2225 10.2931 16.3134 10.6686 16.256 11.0363H16.2562ZM20.5342 6.89632L20.186 6.69502C17.7132 5.25767 14.904 4.50053 12.0438 4.50053C9.18363 4.50053 6.37441 5.25767 3.90162 6.69502L3.55352 6.89642L3.30352 6.46342L3.65112 6.26232C6.20002 4.78095 9.0956 4.00063 12.0437 4.00063C14.9918 4.00063 17.8874 4.78095 20.4363 6.26232L20.7842 6.46352L20.5342 6.89632Z" fill="black"/>
</svg>
