<svg width="24" height="24" viewBox="0 0 24 24" fill="none" xmlns="http://www.w3.org/2000/svg">
<path d="M7 2C6.20462 2.00087 5.44206 2.31722 4.87964 2.87964C4.31722 3.44206 4.00087 4.20462 4 5V19C4.00087 19.7954 4.31722 20.5579 4.87964 21.1204C5.44206 21.6828 6.20462 21.9991 7 22H20V2H7ZM18.5 20.5H7C6.60231 20.4995 6.22104 20.3414 5.93984 20.0602C5.65863 19.779 5.50045 19.3977 5.5 19V5C5.50045 4.60231 5.65863 4.22104 5.93984 3.93984C6.22104 3.65863 6.60231 3.50045 7 3.5H18.5V20.5ZM9.4929 12.006L9.1544 16.0813C9.14471 16.1982 9.15937 16.3159 9.19747 16.4269C9.23556 16.5379 9.29626 16.6397 9.37573 16.7261C9.4552 16.8124 9.5517 16.8813 9.65916 16.9284C9.76661 16.9756 9.88267 16.9999 10 16.9999C10.1173 16.9999 10.2334 16.9756 10.3408 16.9284C10.4483 16.8813 10.5448 16.8124 10.6243 16.7261C10.7037 16.6397 10.7644 16.5379 10.8025 16.4269C10.8406 16.3159 10.8553 16.1982 10.8456 16.0813L10.5071 12.006L11.1921 11.086C11.4415 10.7508 11.6063 10.3604 11.6725 9.94787C11.7387 9.53535 11.7042 9.11296 11.5721 8.7166L11.3162 7.9491C11.2241 7.67285 11.0474 7.43258 10.8112 7.26232C10.575 7.09206 10.2912 7.00044 10 7.00044C9.70881 7.00044 9.425 7.09206 9.18878 7.26232C8.95255 7.43258 8.77588 7.67285 8.6838 7.9491L8.428 8.7166C8.29589 9.11296 8.26145 9.53535 8.32761 9.94787C8.39376 10.3604 8.55857 10.7508 8.808 11.086L9.4929 12.006ZM13.2729 12.4545L14 13L13.5988 16.2095C13.5869 16.3048 13.5947 16.4015 13.6216 16.4937C13.6485 16.5858 13.694 16.6715 13.7553 16.7454C13.8166 16.8193 13.8924 16.8799 13.978 16.9234C14.0636 16.9669 14.1572 16.9925 14.253 16.9984C14.3489 17.0044 14.4449 16.9907 14.5352 16.9581C14.6256 16.9255 14.7083 16.8748 14.7782 16.8091C14.8482 16.7433 14.904 16.664 14.9421 16.5758C14.9803 16.4877 15 16.3927 15 16.2967V7.6061C15 7.46719 14.9523 7.3325 14.8649 7.22456C14.7774 7.11663 14.6556 7.042 14.5197 7.01317C14.3838 6.98434 14.2421 7.00306 14.1184 7.0662C13.9947 7.12934 13.8964 7.23306 13.84 7.36L12.6461 10.0463C12.4625 10.4594 12.4246 10.9225 12.5384 11.36C12.6523 11.7974 12.9112 12.1833 13.2728 12.4545H13.2729Z" fill="black"/>
</svg>
