<svg width="24" height="24" viewBox="0 0 24 24" fill="none" xmlns="http://www.w3.org/2000/svg">
<path d="M19.5626 6.63341C19.5626 6.10375 19.4582 5.57927 19.2555 5.08993C19.0528 4.60059 18.7558 4.15596 18.3812 3.78143C18.0067 3.40691 17.5621 3.10982 17.0727 2.90712C16.5834 2.70443 16.0589 2.60011 15.5293 2.60011C15.5084 2.60011 15.4893 2.60591 15.4683 2.60621C15.1175 1.99646 14.6123 1.48995 14.0034 1.13775C13.3945 0.785547 12.7035 0.600098 12.0001 0.600098C11.2966 0.600098 10.6056 0.785547 9.99675 1.13775C9.38786 1.48995 8.88258 1.99646 8.53185 2.60621C8.51105 2.60621 8.49185 2.60011 8.47085 2.60011C7.61336 2.59796 6.77761 2.86985 6.0855 3.3761C5.39339 3.88236 4.88114 4.5965 4.62346 5.41437C4.36577 6.23223 4.37614 7.11104 4.65304 7.9226C4.92995 8.73416 5.4589 9.43602 6.16275 9.92581L11.5001 22.8783C11.5378 22.9699 11.6019 23.0482 11.6842 23.1033C11.7665 23.1584 11.8633 23.1878 11.9624 23.1878C12.0614 23.1878 12.1582 23.1584 12.2405 23.1033C12.3228 23.0482 12.3869 22.9699 12.4247 22.8783L17.7347 9.99311C18.2949 9.62953 18.7556 9.13181 19.0748 8.54512C19.394 7.95842 19.5616 7.30131 19.5626 6.63341ZM5.43745 6.63341C5.43473 6.17792 5.53523 5.72772 5.7314 5.31663C5.92758 4.90554 6.21434 4.54424 6.57014 4.25984C6.92595 3.97545 7.34156 3.77535 7.78578 3.67458C8.22999 3.57381 8.69126 3.57498 9.13495 3.67801C9.3324 3.07381 9.71581 2.54749 10.2304 2.17431C10.7449 1.80112 11.3643 1.60016 12 1.60016C12.6356 1.60016 13.255 1.80112 13.7695 2.17431C14.2841 2.54749 14.6675 3.07381 14.865 3.67801C15.5348 3.52317 16.2374 3.60166 16.8565 3.90047C17.4757 4.19929 17.9742 4.70052 18.2697 5.32125C18.5652 5.94197 18.64 6.64499 18.4816 7.31397C18.3232 7.98295 17.9411 8.5778 17.3987 9.00011H6.60145C6.23967 8.72062 5.94667 8.36202 5.74491 7.95178C5.54315 7.54155 5.43798 7.09057 5.43745 6.63341ZM11.9626 21.3755L7.27485 10.0001H16.6501L11.9626 21.3755Z" fill="black"/>
</svg>
