<svg width="24" height="24" viewBox="0 0 24 24" fill="none" xmlns="http://www.w3.org/2000/svg">
<path d="M4 2L6.0831 20.2271C6.13886 20.715 6.37218 21.1653 6.7386 21.4923C7.10502 21.8192 7.57892 22 8.07 22H15.93C16.4211 22 16.895 21.8193 17.2615 21.4923C17.6279 21.1654 17.8612 20.715 17.917 20.2271L20 2H4ZM19.44 2.5L18.85 7.6612C18.1951 7.2355 17.4335 7.00288 16.6525 6.99C15.8205 7.00275 15.0109 7.26206 14.3263 7.7351C13.6416 8.20803 12.832 8.46726 12 8.48C11.1679 8.46717 10.3584 8.20783 9.6737 7.7348C8.98906 7.26186 8.17951 7.00266 7.3475 6.99C6.56649 7.00288 5.80491 7.2355 5.15 7.6612L4.56 2.5H19.44Z" fill="black"/>
</svg>
