<svg width="24" height="24" viewBox="0 0 24 24" fill="none" xmlns="http://www.w3.org/2000/svg">
<path d="M17.67 7.61479L17.2222 6.71939C17.4462 6.35206 17.5675 5.93131 17.5733 5.50109C17.5733 3.54009 15.2293 2.12109 11.9997 2.12109C8.77013 2.12109 6.42643 3.54009 6.42643 5.50109C6.43225 5.93131 6.55351 6.35206 6.77753 6.71939L6.33003 7.61509C6.1107 8.055 5.99627 8.53974 5.99573 9.03129V18.382C5.99533 20.4809 8.52073 22.0001 12 22.0001C15.4793 22.0001 18.0047 20.4809 18.0047 18.382V9.03129C18.0041 8.53961 17.8895 8.05477 17.67 7.61479ZM12 3.55429C14.2866 3.55429 16.14 4.42589 16.14 5.50109C16.14 6.57629 14.2866 7.44789 12 7.44789C9.71343 7.44789 7.86003 6.57629 7.86003 5.50109C7.86003 4.42589 9.71343 3.55429 12 3.55429ZM16.5047 18.382C16.5047 19.552 14.4879 20.5001 12 20.5001C9.51213 20.5001 7.49533 19.5518 7.49533 18.382V9.03129C7.4953 8.77253 7.55556 8.51732 7.67133 8.28589L7.89203 7.84449C9.13594 8.57117 10.5603 8.93061 12 8.88119C13.4398 8.93061 14.8641 8.57117 16.108 7.84449L16.3287 8.28589C16.4445 8.51732 16.5048 8.77253 16.5047 9.03129V18.382ZM13.1706 6.08839L13.1754 6.08789H14.3412C14.477 6.08789 14.6072 6.03396 14.7032 5.93796C14.7992 5.84196 14.8531 5.71176 14.8531 5.57599V5.42599C14.8531 5.29023 14.7992 5.16003 14.7032 5.06403C14.6072 4.96803 14.477 4.91409 14.3412 4.91409H13.1706C12.524 4.91379 12 5.17669 12 5.50109C12 5.82549 12.524 6.08839 13.1706 6.08839Z" fill="black"/>
</svg>
