<svg width="24" height="24" viewBox="0 0 24 24" fill="none" xmlns="http://www.w3.org/2000/svg">
<path d="M19.5625 6.40003C19.5625 5.39221 19.1622 4.42566 18.4495 3.71303C17.7369 3.00039 16.7703 2.60003 15.7625 2.60003C15.6243 2.60626 15.4865 2.62015 15.3498 2.64163C15.0327 2.0265 14.5524 1.51056 13.9615 1.15035C13.3705 0.790155 12.6919 0.599609 11.9998 0.599609C11.3078 0.599609 10.6291 0.790155 10.0382 1.15035C9.44724 1.51056 8.9669 2.0265 8.64981 2.64163C8.51325 2.62017 8.37561 2.60628 8.23751 2.60003C7.43627 2.59668 6.65465 2.84774 6.00523 3.31705C5.35581 3.78635 4.87211 4.44967 4.6238 5.21147C4.37549 5.97327 4.3754 6.79422 4.62353 7.55608C4.87165 8.31794 5.3552 8.98138 6.00451 9.45083L11.5377 22.8782C11.5754 22.9698 11.6395 23.0481 11.7218 23.1032C11.8041 23.1583 11.901 23.1878 12 23.1878C12.0991 23.1878 12.1959 23.1583 12.2782 23.1032C12.3605 23.0481 12.4246 22.9698 12.4623 22.8782L17.9955 9.45093C18.4796 9.1028 18.8741 8.64467 19.1466 8.11426C19.419 7.58385 19.5616 6.99632 19.5625 6.40003ZM4.93751 6.40003C4.9357 5.90654 5.04499 5.41897 5.25729 4.97347C5.46959 4.52798 5.77945 4.13598 6.16389 3.82656C6.54833 3.51713 6.99749 3.29821 7.47807 3.18603C7.95864 3.07385 8.45831 3.07129 8.94001 3.17853C9.18321 2.56549 9.60495 2.03962 10.1506 1.6691C10.6962 1.29858 11.3405 1.10048 12 1.10048C12.6595 1.10048 13.3039 1.29858 13.8495 1.6691C14.3951 2.03962 14.8168 2.56549 15.06 3.17853C15.5417 3.07129 16.0414 3.07385 16.522 3.18603C17.0025 3.29821 17.4517 3.51713 17.8361 3.82656C18.2206 4.13598 18.5304 4.52798 18.7427 4.97347C18.955 5.41897 19.0643 5.90654 19.0625 6.40003C19.062 6.90365 18.9451 7.40033 18.721 7.85133C18.4969 8.30234 18.1716 8.69546 17.7705 9.00003H6.23001C5.82884 8.69551 5.50346 8.30241 5.27926 7.85141C5.05505 7.4004 4.9381 6.90369 4.93751 6.40003ZM12 22.6877L6.56561 9.50003H17.4345L12 22.6877Z" fill="black"/>
</svg>
