<svg width="24" height="24" viewBox="0 0 24 24" fill="none" xmlns="http://www.w3.org/2000/svg">
<path d="M11.1924 9.61007C11.1057 9.43229 10.9682 9.28422 10.7973 9.18459C10.6265 9.08496 10.4299 9.03824 10.2324 9.05035C10.035 9.06245 9.84562 9.13283 9.68819 9.25259C9.53077 9.37234 9.41239 9.5361 9.34804 9.72314C9.28369 9.91017 9.27625 10.1121 9.32667 10.3034C9.37708 10.4946 9.48309 10.6666 9.63128 10.7977C9.77947 10.9287 9.96318 11.0128 10.1592 11.0394C10.3552 11.066 10.5547 11.0339 10.7324 10.9471C10.9707 10.8307 11.153 10.6245 11.2392 10.3738C11.3255 10.1231 11.3087 9.84837 11.1924 9.61007ZM10.3547 14.0477C10.341 14.245 10.3861 14.4419 10.4843 14.6136C10.5826 14.7853 10.7295 14.924 10.9065 15.0121C11.0836 15.1003 11.2828 15.134 11.479 15.1089C11.6752 15.0839 11.8595 15.0012 12.0088 14.8713C12.158 14.7415 12.2653 14.5704 12.3172 14.3795C12.3692 14.1887 12.3633 13.9867 12.3005 13.7992C12.2376 13.6116 12.1206 13.447 11.9641 13.326C11.8076 13.2049 11.6188 13.1331 11.4215 13.1194C11.157 13.101 10.8961 13.1884 10.696 13.3624C10.496 13.5365 10.3732 13.7828 10.3547 14.0473V14.0477ZM15.1756 11.7252C15.2861 11.5611 15.3456 11.368 15.3463 11.1702C15.3471 10.9725 15.2892 10.7789 15.18 10.614C15.0707 10.4491 14.9151 10.3203 14.7326 10.2439C14.5502 10.1675 14.3492 10.1469 14.1551 10.1848C13.9609 10.2226 13.7824 10.3172 13.642 10.4565C13.5016 10.5958 13.4057 10.7736 13.3663 10.9675C13.327 11.1613 13.346 11.3624 13.421 11.5455C13.496 11.7285 13.6236 11.8852 13.7876 11.9957C14.0076 12.1438 14.2774 12.1985 14.5377 12.1477C14.798 12.0969 15.0275 11.9447 15.1756 11.7248V11.7252ZM22.2031 5.00517L21.3384 4.50517C18.5155 2.86449 15.3085 2.00024 12.0434 2.00024C8.77831 2.00024 5.57137 2.86449 2.74842 4.50517L1.88422 5.00517L12.0435 22.6017L20.2306 8.42167L22.2031 5.00517ZM17.8487 9.54717L12.0436 19.6016L5.91402 8.98467C7.80996 8.00901 9.91141 7.50002 12.0437 7.50002C14.1759 7.50002 16.2774 8.00901 18.1733 8.98467L17.8487 9.54717ZM18.9208 7.69007C16.7984 6.57992 14.4389 6.00007 12.0437 6.00007C9.64848 6.00007 7.28889 6.57992 5.16652 7.69007L3.93622 5.55907C6.42487 4.20779 9.21181 3.49997 12.0437 3.49997C14.8755 3.49997 17.6625 4.20779 20.1511 5.55907L18.9208 7.69007Z" fill="black"/>
</svg>
