<svg width="24" height="24" viewBox="0 0 24 24" fill="none" xmlns="http://www.w3.org/2000/svg">
<path d="M4 2L6.0831 20.2271C6.13886 20.715 6.37218 21.1653 6.7386 21.4923C7.10502 21.8192 7.57892 22 8.07 22H15.93C16.4211 22 16.895 21.8193 17.2615 21.4923C17.6279 21.1654 17.8612 20.715 17.917 20.2271L20 2H4ZM19.44 2.5L18.7863 8.22C18.1424 7.84673 17.4135 7.64474 16.6693 7.6333C15.7861 7.64693 14.9266 7.9211 14.1986 8.4214C13.5569 8.87874 12.7884 9.12453 12.0004 9.12453C11.2124 9.12453 10.4439 8.87874 9.8022 8.4214C9.13723 7.95149 8.35119 7.68266 7.53772 7.64696C6.72426 7.61125 5.91768 7.81016 5.2141 8.22L4.56 2.5H19.44ZM17.42 20.17C17.3784 20.536 17.2035 20.8739 16.9287 21.1192C16.6539 21.3645 16.2984 21.5001 15.93 21.5H8.07C7.70163 21.5 7.34614 21.3645 7.07133 21.1192C6.79651 20.8739 6.62162 20.536 6.58 20.17L5.2756 8.7578C5.91018 8.34151 6.65568 8.12652 7.41449 8.14099C8.17329 8.15546 8.91005 8.39871 9.5283 8.8389C10.2564 9.33974 11.1163 9.61423 12 9.6279C12.8837 9.61423 13.7436 9.33974 14.4717 8.8389C15.1187 8.3926 15.883 8.14699 16.6689 8.1328C17.3987 8.14678 18.1103 8.36312 18.7244 8.7577L17.42 20.17Z" fill="black"/>
</svg>
