<svg width="24" height="24" viewBox="0 0 24 24" fill="none" xmlns="http://www.w3.org/2000/svg">
<path d="M12 7.5C15.0376 7.5 17.5 6.2688 17.5 4.75C17.5 3.2312 15.0376 2 12 2C8.9624 2 6.5 3.2312 6.5 4.75C6.5 6.2688 8.9625 7.5 12 7.5ZM14.1706 4.1313H14.8293C14.9651 4.1313 15.0953 4.18523 15.1913 4.28123C15.2873 4.37723 15.3412 4.50744 15.3412 4.6432V4.8563C15.3412 4.99206 15.2873 5.12227 15.1913 5.21827C15.0953 5.31427 14.9651 5.3682 14.8293 5.3682H14.1752H14.1706C13.524 5.3687 13 5.0917 13 4.75C13 4.4083 13.524 4.1313 14.1706 4.1313ZM17.3426 7.6467L17.2926 7.5847C15.7078 8.57081 13.8655 9.06345 12 9C10.1344 9.06353 8.29196 8.57089 6.707 7.5847L6.657 7.6467C6.23159 8.1787 5.99988 8.83963 6 9.5208V19C6 20.6569 8.6863 22 12 22C15.3137 22 18 20.6569 18 19V9.5208C18 8.83958 17.7682 8.17864 17.3426 7.6467Z" fill="black"/>
</svg>
