<svg width="24" height="24" viewBox="0 0 24 24" fill="none" xmlns="http://www.w3.org/2000/svg">
<path d="M17.6575 7.58539L17.205 6.68059C17.4375 6.33038 17.5649 5.92091 17.5721 5.50059C17.5721 3.64409 15.1766 2.24829 12 2.24829C8.82338 2.24829 6.42788 3.64439 6.42788 5.50089C6.43502 5.9212 6.56238 6.33067 6.79488 6.68089L6.34248 7.58579C6.11156 8.04886 5.99107 8.55914 5.99048 9.07659V18.5141C5.99048 20.5036 8.57418 21.9999 12 21.9999C15.4258 21.9999 18.01 20.5036 18.01 18.5138V9.07629C18.0092 8.55877 17.8886 8.04846 17.6575 7.58539ZM12 3.21519C14.5435 3.21519 16.6055 4.23849 16.6055 5.50089C16.6055 6.76329 14.5435 7.78659 12 7.78659C9.45648 7.78659 7.39448 6.76319 7.39448 5.50089C7.39448 4.23859 9.45648 3.21519 12 3.21519ZM17.01 18.5138C17.01 19.8868 14.7667 20.9999 12 20.9999C9.23328 20.9999 6.99048 19.8868 6.99048 18.5138V9.07629C6.99049 8.71401 7.07485 8.35672 7.23688 8.03269L7.52058 7.46519C8.83392 8.37022 10.4065 8.82243 12 8.75329C13.5935 8.82243 15.166 8.37022 16.4794 7.46519L16.7631 8.03269C16.9253 8.35667 17.0098 8.71397 17.01 9.07629V18.5138ZM13.4885 6.65129H13.5508H13.5527H14.2015C14.4946 6.65097 14.7755 6.53441 14.9828 6.32718C15.19 6.11994 15.3066 5.83896 15.3069 5.54589V5.45589C15.3066 5.1628 15.19 4.8818 14.9828 4.67454C14.7756 4.46729 14.4946 4.35071 14.2015 4.35039H13.4885C12.6202 4.35039 11.99 4.83429 11.99 5.50089C11.99 6.16749 12.62 6.65129 13.4885 6.65129ZM13.4885 5.15039H14.2015C14.2825 5.15039 14.3602 5.18258 14.4175 5.23987C14.4748 5.29716 14.507 5.37487 14.507 5.45589V5.54589C14.507 5.58601 14.4991 5.62573 14.4837 5.66279C14.4684 5.69985 14.4459 5.73352 14.4175 5.76188C14.3891 5.79024 14.3554 5.81273 14.3184 5.82807C14.2813 5.84341 14.2416 5.8513 14.2015 5.85129H13.4915H13.4886C13.1028 5.85129 12.7901 5.69439 12.7901 5.50129C12.7901 5.30819 13.1027 5.15039 13.4885 5.15039Z" fill="black"/>
</svg>
