<svg width="24" height="24" viewBox="0 0 24 24" fill="none" xmlns="http://www.w3.org/2000/svg">
<path d="M9.68882 9.31592C9.45951 9.41786 9.26558 9.58551 9.13155 9.79766C8.99752 10.0098 8.92941 10.2569 8.93583 10.5078C8.94225 10.7587 9.02292 11.002 9.16764 11.207C9.31235 11.412 9.51461 11.5695 9.74884 11.6596C9.98306 11.7497 10.2387 11.7682 10.4835 11.713C10.7283 11.6578 10.9512 11.5312 11.1241 11.3492C11.2969 11.1673 11.4119 10.9382 11.4546 10.6909C11.4972 10.4436 11.4656 10.1892 11.3636 9.95992C11.2269 9.65243 10.9737 9.41184 10.6596 9.29106C10.3455 9.17029 9.99631 9.17923 9.68882 9.31592ZM22.2031 5.00492L21.3384 4.50492C18.5155 2.86424 15.3085 2 12.0434 2C8.77831 2 5.57137 2.86424 2.74842 4.50492L1.88422 5.00492L12.0435 22.6016L20.2306 8.42162L22.2031 5.00492ZM16.021 11.7125C15.9881 11.5066 15.9049 11.3121 15.7788 11.146C15.6527 10.9799 15.4877 10.8475 15.2982 10.7604C15.1088 10.6734 14.9008 10.6343 14.6927 10.6468C14.4846 10.6592 14.2827 10.7228 14.105 10.8318C13.9273 10.9409 13.7792 11.092 13.6739 11.272C13.5685 11.4519 13.5091 11.655 13.5009 11.8633C13.4928 12.0716 13.5361 12.2788 13.627 12.4664C13.718 12.654 13.8538 12.8163 14.0224 12.9389C14.1972 13.0628 14.4009 13.1397 14.614 13.1622C14.827 13.1846 15.0423 13.1518 15.239 13.067L12.0436 18.6015L10.7043 16.2815C10.8307 16.3465 10.9673 16.3894 11.1082 16.4084C11.3578 16.4349 11.6096 16.3867 11.8318 16.27C12.054 16.1533 12.2366 15.9733 12.3565 15.7528C12.4764 15.5323 12.5282 15.2813 12.5054 15.0313C12.4826 14.7814 12.3861 14.5438 12.2283 14.3487C12.0704 14.1536 11.8583 14.0097 11.6186 13.9351C11.379 13.8606 11.1226 13.8588 10.8819 13.93C10.6413 14.0012 10.4271 14.1421 10.2666 14.335C10.106 14.5279 10.0063 14.7641 9.98002 15.0137C9.97942 15.0192 9.98202 15.0237 9.98152 15.0295L6.61522 9.19902C8.31589 8.40914 10.1685 7.99992 12.0436 7.99992C13.9188 7.99992 15.7713 8.40914 17.472 9.19902L16.021 11.7125ZM18.4729 7.46562C16.4669 6.50096 14.2695 6.00007 12.0436 6.00007C9.81771 6.00007 7.62033 6.50096 5.61432 7.46562L4.63002 5.76112C6.92963 4.60307 9.46857 3.99987 12.0433 3.99987C14.6181 3.99987 17.157 4.60307 19.4566 5.76112L18.4729 7.46562Z" fill="black"/>
</svg>
