<svg width="24" height="24" viewBox="0 0 24 24" fill="none" xmlns="http://www.w3.org/2000/svg">
<g clip-path="url(#clip0)">
<path d="M17 8.3671V8.3562C17 6.85552 16.4775 5.40168 15.5221 4.2444L14.1111 2.5353V1C14.1111 0.734784 14.0057 0.48043 13.8182 0.292893C13.6307 0.105357 13.3763 0 13.1111 0L10.8889 0C10.6237 0 10.3693 0.105357 10.1818 0.292893C9.99426 0.48043 9.8889 0.734784 9.8889 1V2.5353L8.4651 4.271C7.51777 5.42587 7.00001 6.87339 7 8.3671C7.00006 8.77878 7.12722 9.1804 7.3641 9.5171L7.7032 10L7.3641 10.4824C7.12713 10.8192 6.99997 11.221 7 11.6328V15.2984C7.00012 15.7101 7.12727 16.1117 7.3641 16.4484L7.7032 16.9307L7.5461 17.1543C7.19064 17.6597 6.99992 18.2626 7 18.8805V20.5729C7 20.9866 7.10575 21.3935 7.30721 21.7548C7.50867 22.1162 7.79915 22.42 8.15107 22.6375C8.503 22.855 8.90468 22.979 9.31797 22.9976C9.73127 23.0162 10.1425 22.9288 10.5125 22.7438C10.9743 22.5128 11.4836 22.3926 12 22.3926C12.5164 22.3926 13.0257 22.5128 13.4875 22.7438C13.8575 22.9288 14.2687 23.0162 14.682 22.9976C15.0953 22.979 15.497 22.855 15.8489 22.6375C16.2008 22.42 16.4913 22.1162 16.6928 21.7548C16.8943 21.3935 17 20.9866 17 20.5729V18.5641C17 18.1523 16.8729 17.7505 16.636 17.4136L16.2968 16.9312L16.636 16.4489C16.8728 16.1122 16.9999 15.7106 17 15.2989V11.6328C16.9999 11.2211 16.8728 10.8195 16.636 10.4828L16.2968 10L16.636 9.5176C16.8729 9.18072 17 8.77893 17 8.3671ZM13.1111 1V2H10.8889V1H13.1111ZM9.2383 4.9052L10.662 3.17L10.8011 3H13.1981L13.34 3.1719L14.7509 4.8811C15.5593 5.86288 16.0009 7.09534 16 8.3671C16.0004 8.57308 15.9368 8.7741 15.818 8.9424L15.4788 9.4247L15.4039 9.5312H8.5961L8.5212 9.4247L8.1821 8.9424C8.06326 8.77413 7.99963 8.5731 8 8.3671C8.00118 7.10486 8.43865 5.88183 9.2383 4.9052ZM15.4783 10.5752L15.8175 11.0575C15.9363 11.2258 15.9999 11.4267 15.9995 11.6327V15.2983C15.9998 15.5043 15.9362 15.7053 15.8175 15.8736L15.4783 16.3559L15.355 16.5311H8.6445L8.5212 16.3559L8.1821 15.8736C8.0633 15.7053 7.99967 15.5044 8 15.2984V11.6328C7.99965 11.4268 8.06324 11.2259 8.182 11.0576L8.5212 10.5753L8.5522 10.5312H15.4478L15.4783 10.5752ZM16 20.5729C16 20.8161 15.9378 21.0554 15.8194 21.2678C15.7009 21.4803 15.5301 21.6589 15.3232 21.7868C15.1163 21.9147 14.8801 21.9876 14.6371 21.9986C14.3941 22.0095 14.1524 21.9582 13.9348 21.8494C13.334 21.5489 12.6715 21.3925 11.9998 21.3925C11.3281 21.3925 10.6656 21.5489 10.0648 21.8494C9.84724 21.9581 9.60551 22.0093 9.36257 21.9983C9.11962 21.9873 8.88352 21.9144 8.67667 21.7866C8.46981 21.6587 8.29907 21.4801 8.18064 21.2677C8.06221 21.0552 8.00003 20.8161 8 20.5729V18.8805C7.99936 18.4686 8.12658 18.0666 8.3641 17.73L8.5041 17.5312H15.4965L15.8183 17.9888C15.9371 18.1571 16.0007 18.3581 16.0003 18.5641L16 20.5729Z" fill="black"/>
</g>
<defs>
<clipPath id="clip0">
<rect width="24" height="24" fill="white"/>
</clipPath>
</defs>
</svg>
