<svg width="24" height="24" viewBox="0 0 24 24" fill="none" xmlns="http://www.w3.org/2000/svg">
<path d="M0 20V20.25C1.987 20.4156 4.0678 20.5 6.1623 20.5H17.8377C19.9322 20.5 22.013 20.4156 24 20.25V20H0ZM9.6641 18H14.3359C15.4458 18 16.5166 17.5898 17.3424 16.8482C18.1682 16.1067 18.6909 15.0861 18.8099 13.9826L18.916 13H19.3168C20.3036 13 21.2557 12.6352 21.9898 11.9757C22.724 11.3163 23.1884 10.4087 23.2939 9.4275L23.4724 7.7675C23.5099 7.41864 23.4736 7.06578 23.3658 6.73188C23.258 6.39798 23.0811 6.0905 22.8467 5.82946C22.6122 5.56842 22.3254 5.35966 22.005 5.21675C21.6845 5.07384 21.3376 4.99999 20.9867 5H19.7789L19.9946 3H4.0054L5.19 13.9826C5.30903 15.0861 5.8317 16.1067 6.65755 16.8483C7.4834 17.5898 8.55418 18 9.6641 18ZM20.9867 5.5C21.2674 5.50001 21.5449 5.55909 21.8012 5.6734C22.0576 5.78771 22.287 5.9547 22.4745 6.16349C22.6621 6.37229 22.8036 6.61823 22.8898 6.88531C22.9761 7.15239 23.0052 7.43464 22.9752 7.7137L22.7968 9.3737C22.7058 10.2328 22.2998 11.0277 21.6571 11.605C21.0144 12.1823 20.1807 12.501 19.3168 12.4997H18.97L19.7252 5.4997L20.9867 5.5ZM19.4377 3.5L18.3128 13.929C18.2084 14.9105 17.7442 15.8185 17.0099 16.4779C16.2755 17.1374 15.3229 17.5015 14.3359 17.5H9.6641C8.6771 17.5015 7.72453 17.1374 6.99015 16.4779C6.25576 15.8185 5.7916 14.9105 5.6872 13.929L4.5623 3.5H19.4377Z" fill="black"/>
</svg>
