<svg width="24" height="24" viewBox="0 0 24 24" fill="none" xmlns="http://www.w3.org/2000/svg">
<path d="M17.6831 7.64406L17.24 6.75686C17.4555 6.37308 17.571 5.94121 17.5757 5.50106C17.5757 3.43566 15.2831 1.99316 12.0005 1.99316C8.7179 1.99316 6.4249 3.43566 6.4249 5.50106C6.42956 5.94121 6.54501 6.3731 6.7606 6.75686L6.3168 7.64436C6.10898 8.06112 6.00054 8.52036 6 8.98606V18.2501C6 20.458 8.4673 22.0001 12 22.0001C15.5327 22.0001 18 20.458 18 18.2501V8.98606C17.9994 8.52026 17.891 8.06091 17.6831 7.64406ZM12 3.89316C14.03 3.89316 15.6752 4.61316 15.6752 5.50106C15.6752 6.38896 14.03 7.10896 12 7.10896C9.97 7.10896 8.3248 6.38906 8.3248 5.50106C8.3248 4.61306 9.97 3.89316 12 3.89316ZM16 18.2501C16 19.2166 14.2092 20.0001 12 20.0001C9.7908 20.0001 8 19.2166 8 18.2501V8.98606C7.99998 8.83082 8.03614 8.6777 8.1056 8.53886L8.2833 8.18346C9.43595 8.75871 10.7122 9.04217 12 9.00896C13.2878 9.04217 14.564 8.75871 15.7167 8.18346L15.8944 8.53886C15.9639 8.6777 16 8.83082 16 8.98606V18.2501ZM13.1706 6.12006H13.1752H13.8293C13.8965 6.12006 13.9631 6.10682 14.0252 6.0811C14.0873 6.05537 14.1437 6.01767 14.1913 5.97013C14.2388 5.9226 14.2765 5.86617 14.3022 5.80406C14.328 5.74195 14.3412 5.67539 14.3412 5.60816V5.39516C14.3412 5.32794 14.328 5.26137 14.3022 5.19927C14.2765 5.13716 14.2388 5.08073 14.1913 5.0332C14.1437 4.98566 14.0873 4.94796 14.0252 4.92223C13.9631 4.8965 13.8965 4.88326 13.8293 4.88326H13.1706C12.524 4.88326 12 5.16026 12 5.50196C12 5.84366 12.524 6.12006 13.1706 6.12006Z" fill="black"/>
</svg>
