<svg width="24" height="24" viewBox="0 0 24 24" fill="none" xmlns="http://www.w3.org/2000/svg">
<path d="M7 2C6.20462 2.00087 5.44206 2.31722 4.87964 2.87964C4.31722 3.44206 4.00087 4.20462 4 5V19C4.00087 19.7954 4.31722 20.5579 4.87964 21.1204C5.44206 21.6828 6.20462 21.9991 7 22H20V2H7ZM19.5 21.5H7C6.33719 21.4993 5.70173 21.2356 5.23305 20.7669C4.76437 20.2983 4.50074 19.6628 4.5 19V5C4.50074 4.33719 4.76437 3.70173 5.23305 3.23305C5.70173 2.76437 6.33719 2.50074 7 2.5H19.5V21.5ZM14.1608 12.79L14.5444 13.0228L14 15.7993C13.9714 15.9451 13.9754 16.0955 14.0117 16.2396C14.0481 16.3837 14.1159 16.518 14.2103 16.6328C14.3047 16.7475 14.4234 16.84 14.5577 16.9035C14.6921 16.967 14.8389 17 14.9875 17H14.9933C15.1255 17 15.2564 16.974 15.3786 16.9234C15.5007 16.8728 15.6117 16.7986 15.7052 16.7051C15.7987 16.6116 15.8728 16.5006 15.9234 16.3785C15.974 16.2563 16 16.1254 16 15.9932V7.981C16 7.74425 15.9144 7.51548 15.759 7.3369C15.6035 7.15831 15.3888 7.04196 15.1543 7.00931C14.9198 6.97666 14.6814 7.02991 14.4831 7.15924C14.2848 7.28857 14.14 7.48525 14.0753 7.713L13.2742 10.5342C13.1547 10.9554 13.1767 11.4042 13.3369 11.8117C13.497 12.2192 13.7865 12.5629 14.1608 12.79ZM13.7552 10.67L14.5563 7.85C14.588 7.73837 14.659 7.64197 14.7562 7.57857C14.8534 7.51516 14.9702 7.48903 15.0851 7.50498C15.2001 7.52094 15.3054 7.57791 15.3816 7.66539C15.4579 7.75287 15.4999 7.86496 15.5 7.981V15.9932C15.5004 16.0646 15.4858 16.1352 15.4572 16.2006C15.4286 16.2659 15.3866 16.3246 15.3339 16.3727C15.2812 16.4208 15.219 16.4573 15.1513 16.4799C15.0836 16.5024 15.012 16.5106 14.941 16.5037C14.8699 16.4968 14.8011 16.4751 14.739 16.44C14.6769 16.4049 14.6229 16.3572 14.5804 16.2998C14.5379 16.2425 14.5079 16.1769 14.4923 16.1073C14.4767 16.0377 14.4759 15.9656 14.49 15.8956L15.0349 13.1195L15.1022 12.7769L14.8036 12.5957L14.4199 12.3629C14.1396 12.192 13.9229 11.9342 13.8029 11.6287C13.6829 11.3231 13.6662 10.9867 13.7552 10.6708V10.67ZM8.7576 11.2419L9.1196 11.5052L8.8356 15.9279C8.82665 16.0653 8.84599 16.2031 8.89242 16.3327C8.93884 16.4624 9.01137 16.5811 9.10551 16.6816C9.19965 16.7821 9.31341 16.8622 9.43974 16.9169C9.56608 16.9717 9.7023 17 9.84 17C9.97764 17 10.1138 16.9718 10.2401 16.9171C10.3664 16.8623 10.4802 16.7823 10.5743 16.6819C10.6685 16.5815 10.741 16.4629 10.7875 16.3333C10.834 16.2038 10.8534 16.0661 10.8446 15.9287L10.5605 11.506L10.9227 11.2426C11.2284 11.0203 11.4649 10.716 11.6047 10.3648C11.7445 10.0136 11.782 9.62999 11.7127 9.2584L11.5576 8.4268C11.4829 8.0259 11.2702 7.66379 10.9565 7.40319C10.6429 7.14259 10.2479 6.99994 9.8401 6.99994C9.4323 6.99994 9.03734 7.14259 8.72366 7.40319C8.40998 7.66379 8.19735 8.0259 8.1226 8.4268L7.9676 9.2585C7.89832 9.63009 7.93576 10.0137 8.07558 10.3649C8.2154 10.7161 8.45188 11.0204 8.7576 11.2427V11.2419ZM8.4592 9.35L8.6143 8.5183C8.66768 8.23216 8.81947 7.97371 9.04337 7.78771C9.26727 7.60172 9.54917 7.4999 9.84025 7.4999C10.1313 7.4999 10.4132 7.60172 10.6371 7.78771C10.861 7.97371 11.0128 8.23216 11.0662 8.5183L11.2213 9.3499C11.2724 9.62855 11.2439 9.91595 11.1391 10.1791C11.0343 10.4423 10.8575 10.6707 10.6289 10.838L10.2667 11.1014L10.0442 11.2632L10.0618 11.5378L10.3459 15.9606C10.3502 16.0297 10.3404 16.0989 10.3169 16.1641C10.2935 16.2292 10.257 16.2888 10.2096 16.3393C10.1622 16.3897 10.105 16.43 10.0414 16.4574C9.97791 16.4849 9.90942 16.4991 9.8402 16.4991C9.77098 16.4991 9.70249 16.4849 9.63896 16.4574C9.57544 16.43 9.51822 16.3897 9.47083 16.3393C9.42345 16.2888 9.3869 16.2292 9.36345 16.1641C9.34001 16.0989 9.33015 16.0297 9.3345 15.9606L9.6185 11.5378L9.6362 11.2632L9.4136 11.1014L9.0516 10.8381C8.82299 10.6708 8.64617 10.4424 8.54139 10.1792C8.43661 9.91605 8.40813 9.62865 8.4592 9.35Z" fill="#231F20"/>
</svg>
