<svg width="24" height="24" viewBox="0 0 24 24" fill="none" xmlns="http://www.w3.org/2000/svg">
<path d="M4 2L6.0831 20.2271C6.13886 20.715 6.37218 21.1653 6.7386 21.4923C7.10502 21.8192 7.57892 22 8.07 22H15.93C16.4211 22 16.895 21.8193 17.2615 21.4923C17.6279 21.1654 17.8612 20.715 17.917 20.2271L20 2H4ZM18.3188 3.5L17.8663 7.4592C17.387 7.27964 16.88 7.18538 16.3682 7.1807C15.441 7.19323 14.5381 7.47892 13.7725 8.002C13.2593 8.38155 12.6379 8.5864 11.9995 8.5864C11.3612 8.5864 10.7398 8.38155 10.2266 8.002C9.63741 7.59111 8.95823 7.32757 8.2461 7.23352C7.53397 7.13947 6.80966 7.21765 6.134 7.4615L5.6812 3.5H18.3188ZM16.4266 20.0568C16.4127 20.1788 16.3543 20.2913 16.2628 20.373C16.1712 20.4548 16.0527 20.5 15.93 20.5H8.07C7.94722 20.5 7.82873 20.4548 7.73711 20.3731C7.64549 20.2914 7.58715 20.1788 7.5732 20.0568L6.31 9C6.79865 8.74997 7.34749 8.6416 7.89451 8.68712C8.44152 8.73264 8.9649 8.93024 9.4055 9.2576C10.1703 9.78171 11.073 10.0679 12 10.08C12.9268 10.068 13.8294 9.78191 14.5938 9.2577C15.1146 8.8929 15.7325 8.69195 16.3682 8.6806C16.8276 8.68372 17.2801 8.79325 17.6901 9.0006L16.4266 20.0568Z" fill="black"/>
</svg>
