<svg width="24" height="24" viewBox="0 0 24 24" fill="none" xmlns="http://www.w3.org/2000/svg">
<g clip-path="url(#clip0)">
<path d="M17.2968 11L17.454 10.7764C17.8093 10.2711 18 9.66843 18 9.0507C18 8.26729 17.8323 7.49297 17.5081 6.77976C17.184 6.06656 16.711 5.431 16.1208 4.9158L15 3.9375V2C15 1.46957 14.7893 0.960859 14.4142 0.585786C14.0391 0.210714 13.5304 0 13 0L11 0C10.4696 0 9.96086 0.210714 9.58579 0.585786C9.21071 0.960859 9 1.46957 9 2V3.9375L7.8793 4.9158C7.2891 5.43098 6.81603 6.06653 6.49188 6.77974C6.16773 7.49295 6.00001 8.26728 6 9.0507C5.99997 9.66845 6.19069 10.2711 6.5461 10.7764L6.7032 11L6.5461 11.2235C6.19074 11.7288 6.00002 12.3315 6 12.9492V14.982C6.00002 15.5997 6.19074 16.2024 6.5461 16.7077L6.7032 16.9312L6.5461 17.1548C6.19074 17.6601 6.00002 18.2628 6 18.8805V20.5729C6.00003 21.2166 6.25575 21.8339 6.71091 22.2891C7.16607 22.7443 7.7834 23 8.4271 23H9.4271C9.80388 23 10.1755 22.9122 10.5125 22.7438L10.9146 22.5427C11.2516 22.3741 11.6232 22.2864 12 22.2864C12.3768 22.2864 12.7484 22.3741 13.0854 22.5427L13.4875 22.7438C13.8245 22.9122 14.1961 22.9999 14.5729 23H15.5729C16.2166 23 16.834 22.7443 17.2891 22.2891C17.7443 21.834 18 21.2166 18 20.5729V18.8805C18 18.2628 17.8093 17.6601 17.454 17.1548L17.2968 16.9312L17.454 16.7077C17.8093 16.2024 18 15.5997 18 14.982V12.9492C18 12.3315 17.8093 11.7288 17.454 11.2235L17.2968 11ZM10.9 2C10.9 1.97348 10.9105 1.94804 10.9293 1.92929C10.948 1.91054 10.9735 1.9 11 1.9H13C13.0265 1.9 13.052 1.91054 13.0707 1.92929C13.0895 1.94804 13.1 1.97348 13.1 2V3.8H10.9V2ZM16.1 20.5729C16.0998 20.7126 16.0443 20.8466 15.9454 20.9454C15.8466 21.0443 15.7126 21.0998 15.5729 21.1H14.5729C14.4911 21.0999 14.4105 21.0808 14.3373 21.0443L13.9352 20.8433C13.3344 20.5429 12.6719 20.3866 12.0002 20.3866C11.3285 20.3866 10.666 20.5429 10.0652 20.8433L9.6631 21.0444C9.58986 21.0808 9.5092 21.0999 9.4274 21.1H8.4274C8.28761 21.0999 8.15357 21.0443 8.0547 20.9455C7.95582 20.8467 7.90019 20.7127 7.9 20.5729V18.8805C7.89958 18.654 7.96946 18.4329 8.1 18.2477L8.2572 18.0242L8.393 17.8312H15.6067L15.7424 18.0242L15.8996 18.2477C16.0301 18.4329 16.1 18.654 16.0996 18.8805L16.1 20.5729ZM16.1 14.982C16.1004 15.2085 16.0306 15.4296 15.9 15.6147L15.7428 15.8383L15.6071 16.0312H8.3931L8.2574 15.8382L8.1 15.6147C7.96944 15.4296 7.89956 15.2085 7.9 14.982V12.9492C7.89958 12.7227 7.96946 12.5016 8.1 12.3165L8.2572 12.093L8.371 11.9312H15.6286L15.7424 12.093L15.8996 12.3165C16.0301 12.5016 16.1 12.7227 16.0996 12.9492L16.1 14.982ZM15.9 9.6835L15.7428 9.907L15.5851 10.1312H8.4151L8.2574 9.907L8.1 9.6835C7.96944 9.49835 7.89956 9.27725 7.9 9.0507C7.89995 8.53848 8.00958 8.03218 8.22151 7.56586C8.43345 7.09954 8.74278 6.684 9.1287 6.3472L9.9847 5.6H14.0153L14.8713 6.3472C15.2572 6.684 15.5666 7.09954 15.7785 7.56586C15.9904 8.03218 16.1001 8.53848 16.1 9.0507C16.1004 9.27725 16.0306 9.49835 15.9 9.6835Z" fill="black"/>
</g>
<defs>
<clipPath id="clip0">
<rect width="24" height="24" fill="white"/>
</clipPath>
</defs>
</svg>
