<svg width="24" height="24" viewBox="0 0 24 24" fill="none" xmlns="http://www.w3.org/2000/svg">
<path d="M4 2L6.0831 20.2271C6.13886 20.715 6.37218 21.1653 6.7386 21.4923C7.10502 21.8192 7.57892 22 8.07 22H15.93C16.4211 22 16.895 21.8193 17.2615 21.4923C17.6279 21.1654 17.8612 20.715 17.917 20.2271L20 2H4ZM17.3614 7.4738C16.8615 7.1665 16.2881 6.99927 15.7014 6.9896C15.0394 6.99975 14.3953 7.20605 13.8506 7.5824C13.3105 7.96795 12.6635 8.1752 11.9999 8.1752C11.3363 8.1752 10.6893 7.96795 10.1492 7.5824C9.60451 7.20623 8.96048 7.00007 8.2986 6.99C7.71187 6.99967 7.13852 7.1669 6.6386 7.4742L6.2416 4H17.7584L17.3614 7.4738Z" fill="black"/>
</svg>
