<svg width="24" height="24" viewBox="0 0 24 24" fill="none" xmlns="http://www.w3.org/2000/svg">
<path d="M4 2L6.0831 20.2271C6.13886 20.715 6.37218 21.1653 6.7386 21.4923C7.10502 21.8192 7.57892 22 8.07 22H15.93C16.4211 22 16.895 21.8193 17.2615 21.4923C17.6279 21.1654 17.8612 20.715 17.917 20.2271L20 2H4ZM10.455 19.7738C10.2177 19.7738 9.98565 19.7034 9.78832 19.5716C9.59098 19.4397 9.43717 19.2523 9.34634 19.033C9.25552 18.8137 9.23176 18.5725 9.27806 18.3397C9.32436 18.1069 9.43865 17.8931 9.60647 17.7253C9.77429 17.5574 9.98811 17.4432 10.2209 17.3969C10.4537 17.3506 10.6949 17.3743 10.9142 17.4651C11.1335 17.556 11.3209 17.7098 11.4528 17.9071C11.5846 18.1045 11.655 18.3365 11.655 18.5738C11.655 18.7314 11.624 18.8874 11.5637 19.033C11.5034 19.1786 11.415 19.3109 11.3035 19.4223C11.1921 19.5338 11.0598 19.6221 10.9142 19.6825C10.7686 19.7428 10.6126 19.7738 10.455 19.7738ZM10.455 12.5428C10.2177 12.5428 9.98565 12.4724 9.78832 12.3406C9.59098 12.2087 9.43717 12.0213 9.34634 11.802C9.25552 11.5827 9.23176 11.3415 9.27806 11.1087C9.32436 10.8759 9.43865 10.6621 9.60647 10.4943C9.77429 10.3264 9.98811 10.2122 10.2209 10.1659C10.4537 10.1196 10.6949 10.1433 10.9142 10.2341C11.1335 10.325 11.3209 10.4788 11.4528 10.6761C11.5846 10.8735 11.655 11.1055 11.655 11.3428C11.655 11.6611 11.5286 11.9663 11.3035 12.1913C11.0785 12.4164 10.7733 12.5428 10.455 12.5428ZM14.12 16.1583C13.8827 16.1583 13.6507 16.0879 13.4533 15.9561C13.256 15.8242 13.1022 15.6368 13.0113 15.4175C12.9205 15.1982 12.8968 14.957 12.9431 14.7242C12.9894 14.4914 13.1036 14.2776 13.2715 14.1098C13.4393 13.9419 13.6531 13.8277 13.8859 13.7814C14.1187 13.7351 14.3599 13.7588 14.5792 13.8496C14.7985 13.9405 14.9859 14.0943 15.1178 14.2916C15.2496 14.489 15.32 14.721 15.32 14.9583C15.32 15.2766 15.1936 15.5818 14.9685 15.8068C14.7435 16.0319 14.4383 16.1583 14.12 16.1583ZM17.854 7.5683C17.2927 7.2013 16.6389 7.00079 15.9684 6.99C15.2587 7.00088 14.5682 7.22204 13.9842 7.6255C13.4052 8.03889 12.7115 8.2611 12 8.2611C11.2885 8.2611 10.5948 8.03889 10.0158 7.6255C9.43183 7.22204 8.7413 7.00088 8.0316 6.99C7.36104 7.0011 6.70734 7.20192 6.1462 7.5692L5.6812 3.5H18.3188L17.854 7.5683Z" fill="black"/>
</svg>
