<svg width="24" height="24" viewBox="0 0 24 24" fill="none" xmlns="http://www.w3.org/2000/svg">
<path d="M4 2L6.0831 20.2271C6.13886 20.715 6.37218 21.1653 6.7386 21.4923C7.10502 21.8192 7.57892 22 8.07 22H15.93C16.4211 22 16.895 21.8193 17.2615 21.4923C17.6279 21.1654 17.8612 20.715 17.917 20.2271L20 2H4ZM15.93 20H12.024C12.0537 19.9092 12.0726 19.8152 12.0805 19.72C12.0805 19.5519 12.0474 19.3854 11.983 19.2301C11.9187 19.0747 11.8244 18.9336 11.7055 18.8147C11.5866 18.6958 11.4455 18.6015 11.2901 18.5372C11.1348 18.4728 10.9683 18.4397 10.8002 18.4397C10.6321 18.4397 10.4656 18.4728 10.3103 18.5372C10.1549 18.6015 10.0138 18.6958 9.89489 18.8147C9.776 18.9336 9.6817 19.0747 9.61736 19.2301C9.55302 19.3854 9.5199 19.5519 9.5199 19.72C9.52776 19.8152 9.54675 19.9092 9.5765 20H8.07L6.8467 9.295C7.25114 9.06806 7.71282 8.96357 8.17557 8.99425C8.63831 9.02493 9.08216 9.18945 9.4531 9.4678C10.1995 9.99066 11.0888 10.2711 12.0001 10.271C12.9114 10.2709 13.8006 9.99031 14.5469 9.4673C14.973 9.16725 15.4789 9.00107 16 8.99C16.4037 8.99577 16.7997 9.10068 17.1533 9.2955L15.93 20ZM17.3894 7.2289C16.9425 7.07345 16.4731 6.99273 16 6.99C15.0904 7.00092 14.2044 7.28039 13.4531 7.7933C13.0334 8.10646 12.5237 8.27563 12 8.27563C11.4763 8.27563 10.9666 8.10646 10.5469 7.7933C9.98008 7.39923 9.32894 7.14319 8.64551 7.04566C7.96209 6.94813 7.26533 7.01181 6.6109 7.2316L6.2416 4H17.7584L17.3894 7.2289ZM13.6837 15.0712C13.4305 15.0712 13.1831 15.1463 12.9726 15.2869C12.7621 15.4276 12.598 15.6275 12.5011 15.8614C12.4043 16.0953 12.3789 16.3526 12.4283 16.6009C12.4777 16.8492 12.5996 17.0773 12.7786 17.2563C12.9576 17.4353 13.1857 17.5572 13.434 17.6066C13.6823 17.656 13.9396 17.6306 14.1735 17.5338C14.4074 17.4369 14.6073 17.2728 14.748 17.0623C14.8886 16.8518 14.9637 16.6044 14.9637 16.3512C14.9637 16.1831 14.9306 16.0167 14.8663 15.8614C14.8019 15.7061 14.7077 15.565 14.5888 15.4461C14.4699 15.3272 14.3288 15.233 14.1735 15.1686C14.0182 15.1043 13.8518 15.0712 13.6837 15.0712ZM10.6172 11.7031C10.364 11.7031 10.1166 11.7782 9.90607 11.9188C9.69557 12.0595 9.53151 12.2594 9.43463 12.4933C9.33775 12.7272 9.31241 12.9845 9.36179 13.2328C9.41118 13.4811 9.53309 13.7092 9.7121 13.8882C9.89111 14.0672 10.1192 14.1891 10.3675 14.2385C10.6158 14.2879 10.8731 14.2625 11.107 14.1657C11.3409 14.0688 11.5408 13.9047 11.6815 13.6942C11.8221 13.4837 11.8972 13.2363 11.8972 12.9831C11.8972 12.6436 11.7623 12.318 11.5223 12.078C11.2823 11.838 10.9567 11.7031 10.6172 11.7031Z" fill="black"/>
</svg>
