<svg width="24" height="24" viewBox="0 0 24 24" fill="none" xmlns="http://www.w3.org/2000/svg">
<path d="M17.2968 11L17.454 10.7764C17.8093 10.2711 18 9.66843 18 9.0507C18 8.27509 17.8361 7.50824 17.519 6.80041C17.2019 6.09259 16.7388 5.45979 16.16 4.9435L14.629 3.5781V1.5C14.629 1.10218 14.471 0.720644 14.1897 0.43934C13.9084 0.158035 13.5268 0 13.129 0L10.8713 0C10.4735 0 10.0919 0.158035 9.81064 0.43934C9.52933 0.720644 9.3713 1.10218 9.3713 1.5V3.5781L7.84 4.9435C7.26122 5.4598 6.79809 6.09261 6.48099 6.80043C6.16389 7.50825 5.99998 8.2751 6 9.0507C5.99997 9.66845 6.19069 10.2711 6.5461 10.7764L6.7032 11L6.5461 11.2235C6.19074 11.7288 6.00002 12.3315 6 12.9492V14.982C6.00002 15.5997 6.19074 16.2024 6.5461 16.7077L6.7032 16.9312L6.5461 17.1548C6.19074 17.6601 6.00002 18.2628 6 18.8805V20.5729C6 21.2166 6.25571 21.834 6.71088 22.2891C7.16605 22.7443 7.78339 23 8.4271 23H9.4271C9.80388 23 10.1755 22.9123 10.5125 22.7438C10.9743 22.5128 11.4836 22.3926 12 22.3926C12.5164 22.3926 13.0257 22.5128 13.4875 22.7438C13.8245 22.9123 14.1961 23 14.5729 23H15.5729C15.8916 23 16.2073 22.9372 16.5017 22.8153C16.7962 22.6933 17.0638 22.5145 17.2891 22.2891C17.5145 22.0638 17.6933 21.7962 17.8153 21.5017C17.9372 21.2073 18 20.8916 18 20.5729V18.8805C18 18.2628 17.8093 17.6601 17.454 17.1548L17.2968 16.9312L17.454 16.7077C17.8093 16.2024 18 15.5997 18 14.982V12.9492C18 12.3315 17.8093 11.7288 17.454 11.2235L17.2968 11ZM10.8713 1.5H13.1287V3.5038H10.8713V1.5ZM16.5 20.5729C16.4997 20.8187 16.4019 21.0543 16.2281 21.2281C16.0543 21.4019 15.8187 21.4997 15.5729 21.5H14.5729C14.429 21.4998 14.2872 21.4663 14.1584 21.4021C13.4882 21.067 12.7493 20.8926 12 20.8926C11.2507 20.8926 10.5118 21.067 9.8416 21.4021C9.71282 21.4662 9.57096 21.4997 9.4271 21.4999H8.4271C8.18132 21.4996 7.9457 21.4019 7.7719 21.2281C7.5981 21.0543 7.50032 20.8187 7.5 20.5729V18.8805C7.49951 18.5715 7.59489 18.27 7.773 18.0176L7.9302 17.7941L7.9393 17.7812H16.0608L16.0698 17.7941L16.227 18.0176C16.4051 18.27 16.5005 18.5715 16.5 18.8805V20.5729ZM16.5 14.982C16.5005 15.2909 16.4051 15.5924 16.227 15.8448L16.0698 16.0684L15.9198 16.2812H8.08L7.93 16.0684L7.7729 15.8448C7.59478 15.5924 7.49943 15.2909 7.5 14.982V12.9492C7.49951 12.6403 7.59489 12.3388 7.773 12.0864L7.9302 11.8629L7.9876 11.7812H16.0125L16.0698 11.8629L16.227 12.0864C16.4051 12.3388 16.5005 12.6403 16.5 12.9492V14.982ZM16.227 9.9136L16.0698 10.1371L15.9684 10.2812H8.0316L7.93 10.1371L7.773 9.9136C7.59488 9.66116 7.49949 9.35966 7.5 9.0507C7.50027 8.48653 7.61966 7.92877 7.85035 7.41391C8.08104 6.89906 8.41783 6.43872 8.8387 6.063L10.0263 5.0038H13.9737L15.1613 6.063C15.5822 6.4387 15.919 6.89905 16.1497 7.4139C16.3804 7.92876 16.4997 8.48652 16.5 9.0507C16.5005 9.35966 16.4051 9.66116 16.227 9.9136Z" fill="black"/>
</svg>
