<svg width="24" height="24" viewBox="0 0 24 24" fill="none" xmlns="http://www.w3.org/2000/svg">
<path d="M10.6207 11.0709C10.9661 10.9171 11.2423 10.6407 11.396 10.2952C11.5497 9.94975 11.5701 9.55959 11.4531 9.2C11.3361 8.84042 11.0901 8.53689 10.7625 8.34797C10.435 8.15905 10.0491 8.09811 9.67924 8.17692C9.30941 8.25574 8.98187 8.46871 8.75979 8.77476C8.53771 9.08081 8.43684 9.45825 8.47662 9.83429C8.5164 10.2103 8.69402 10.5583 8.97522 10.8111C9.25643 11.0639 9.62128 11.2036 9.99942 11.2033C10.2135 11.2031 10.4251 11.158 10.6207 11.0709ZM9.05602 10.0909C8.96611 9.88798 8.94417 9.66141 8.99346 9.44499C9.04276 9.22856 9.16065 9.03384 9.32958 8.88985C9.49851 8.74586 9.70943 8.66029 9.93094 8.64589C10.1524 8.6315 10.3727 8.68904 10.5588 8.80996C10.745 8.93087 10.8871 9.10869 10.964 9.31691C11.0409 9.52514 11.0484 9.75263 10.9855 9.96551C10.9227 10.1784 10.7927 10.3653 10.615 10.4983C10.4373 10.6313 10.2214 10.7034 9.99942 10.7037C9.79972 10.7037 9.60432 10.6457 9.43688 10.5369C9.26944 10.428 9.13715 10.273 9.05602 10.0905V10.0909ZM15.6465 9.92802C15.4015 9.74982 15.1091 9.64827 14.8064 9.63623C14.5036 9.62418 14.2041 9.70218 13.9457 9.86035C13.6873 10.0185 13.4816 10.2498 13.3546 10.5249C13.2276 10.7999 13.1851 11.1065 13.2323 11.4058C13.2796 11.705 13.4145 11.9836 13.62 12.2062C13.8256 12.4288 14.0925 12.5854 14.3871 12.6563C14.6816 12.7272 14.9906 12.7091 15.2749 12.6044C15.5592 12.4997 15.8061 12.313 15.9843 12.068C16.1037 11.9057 16.1896 11.7213 16.2373 11.5255C16.2849 11.3297 16.2933 11.1264 16.2619 10.9274C16.2304 10.7283 16.1599 10.5375 16.0543 10.3659C15.9486 10.1943 15.8101 10.0453 15.6465 9.92762V9.92802ZM15.58 11.7734C15.4839 11.905 15.3582 12.012 15.213 12.0859C15.0678 12.1597 14.9072 12.1983 14.7443 12.1984C14.5541 12.1982 14.3676 12.1453 14.2055 12.0457C14.0434 11.9461 13.912 11.8037 13.8258 11.6341C13.7396 11.4645 13.7019 11.2744 13.717 11.0847C13.732 10.8951 13.7992 10.7133 13.9111 10.5594C14.0072 10.4279 14.133 10.3208 14.2782 10.247C14.4234 10.1732 14.584 10.1346 14.7469 10.1344C14.9372 10.1347 15.1236 10.1876 15.2857 10.2872C15.4478 10.3868 15.5792 10.5292 15.6654 10.6988C15.7516 10.8684 15.7892 11.0585 15.7742 11.2481C15.7591 11.4378 15.6919 11.6196 15.58 11.7734ZM11.9784 13.291C11.7334 13.1128 11.441 13.0112 11.1382 12.9991C10.8355 12.987 10.5359 13.065 10.2775 13.2232C10.019 13.3813 9.81328 13.6126 9.68627 13.8877C9.55925 14.1628 9.51667 14.4694 9.5639 14.7687C9.61113 15.068 9.74606 15.3466 9.95161 15.5692C10.1572 15.7918 10.4241 15.9485 10.7187 16.0194C11.0133 16.0903 11.3223 16.0722 11.6067 15.9675C11.891 15.8628 12.1379 15.6761 12.3161 15.431C12.4354 15.2687 12.5213 15.0843 12.5689 14.8886C12.6166 14.6928 12.6249 14.4896 12.5935 14.2906C12.5621 14.0916 12.4916 13.9008 12.386 13.7293C12.2804 13.5577 12.1419 13.4087 11.9784 13.291ZM11.9117 15.1368C11.8157 15.2684 11.6899 15.3754 11.5447 15.4493C11.3995 15.5231 11.2389 15.5617 11.076 15.5618C10.8858 15.5616 10.6993 15.5087 10.5372 15.4091C10.3751 15.3095 10.2437 15.1671 10.1575 14.9975C10.0713 14.8279 10.0336 14.6378 10.0487 14.4481C10.0637 14.2585 10.1309 14.0767 10.2428 13.9228C10.3389 13.7913 10.4647 13.6842 10.6099 13.6104C10.7552 13.5365 10.9158 13.498 11.0787 13.4978C11.269 13.4981 11.4554 13.5509 11.6175 13.6505C11.7796 13.7501 11.911 13.8926 11.9972 14.0622C12.0834 14.2318 12.121 14.4219 12.106 14.6116C12.0909 14.8012 12.0236 14.983 11.9117 15.1368ZM22.2031 5.00492L21.3384 4.50492C18.5155 2.86424 15.3085 2 12.0434 2C8.77831 2 5.57137 2.86424 2.74842 4.50492L1.88422 5.00492L12.0435 22.6016L20.2306 8.42162L22.2031 5.00492ZM12.0436 21.6015L4.54002 8.60412L4.80412 8.45122C7.00289 7.17309 9.50084 6.49981 12.0441 6.49981C14.5874 6.49981 17.0853 7.17309 19.2841 8.45122L19.5484 8.60402L12.0436 21.6015ZM19.5336 8.01862C17.2588 6.69657 14.6747 6.00017 12.0436 6.00017C9.41257 6.00017 6.82839 6.69657 4.55362 8.01862L4.29002 8.17112L2.56712 5.18752L2.99912 4.93752C5.74595 3.34091 8.86647 2.49988 12.0436 2.49988C15.2208 2.49988 18.3413 3.34091 21.0881 4.93752L21.5203 5.18752L19.7977 8.17112L19.5336 8.01862Z" fill="black"/>
</svg>
