<svg width="24" height="24" viewBox="0 0 24 24" fill="none" xmlns="http://www.w3.org/2000/svg">
<path d="M17.6446 7.55637L17.1906 6.64837C17.4317 6.3138 17.5643 5.91336 17.5706 5.50106C17.5706 3.74896 15.1237 2.37646 12 2.37646C8.87634 2.37646 6.42934 3.74896 6.42934 5.50106C6.43568 5.91336 6.56831 6.3138 6.80934 6.64837L6.35534 7.55626C6.113 8.04252 5.98653 8.57827 5.98584 9.12156V18.6459C5.98574 20.5268 8.62754 22.0001 11.9999 22.0001C15.3723 22.0001 18.0141 20.5268 18.0141 18.6459V9.12156C18.0135 8.5783 17.887 8.04258 17.6446 7.55637ZM11.9999 2.87646C14.7999 2.87646 17.0705 4.05156 17.0705 5.50106C17.0705 6.95056 14.7999 8.12556 11.9999 8.12556C9.19994 8.12556 6.92934 6.95056 6.92934 5.50106C6.92934 4.05156 9.19994 2.87646 11.9999 2.87646ZM17.5141 18.6459C17.5141 20.2222 15.0453 21.5001 11.9999 21.5001C8.95454 21.5001 6.48574 20.2222 6.48574 18.6459V9.12156C6.48579 8.65587 6.59425 8.19658 6.80254 7.78007L7.15994 7.06517C8.52346 8.1684 10.2488 8.72464 11.9999 8.62556C13.751 8.72475 15.4764 8.16865 16.8399 7.06556L17.1972 7.78016C17.4056 8.19674 17.514 8.6561 17.514 9.12187L17.5141 18.6459ZM13.4884 6.35146H13.5275H13.5293H14.6632C14.8768 6.35123 15.0815 6.2663 15.2325 6.11531C15.3835 5.96432 15.4685 5.75961 15.4687 5.54606V5.45606C15.4685 5.24251 15.3836 5.03776 15.2326 4.88675C15.0815 4.73574 14.8768 4.6508 14.6632 4.65056H13.4884C12.794 4.65056 12.2899 5.00826 12.2899 5.50106C12.2899 5.99386 12.794 6.35146 13.4884 6.35146ZM13.4884 5.15056H14.6632C14.7443 5.15056 14.822 5.18275 14.8793 5.24004C14.9366 5.29734 14.9687 5.37504 14.9687 5.45606V5.54606C14.9687 5.58618 14.9608 5.6259 14.9455 5.66296C14.9301 5.70002 14.9076 5.73369 14.8793 5.76205C14.8509 5.79041 14.8172 5.8129 14.7801 5.82825C14.7431 5.84359 14.7034 5.85148 14.6632 5.85146H13.4913H13.4884C13.1026 5.85146 12.7899 5.69456 12.7899 5.50146C12.7899 5.30836 13.1026 5.15056 13.4884 5.15056Z" fill="black"/>
</svg>
