<svg width="24" height="24" viewBox="0 0 24 24" fill="none" xmlns="http://www.w3.org/2000/svg">
<path d="M10.6993 11.0813C11.0196 10.9387 11.2757 10.6825 11.4182 10.3622C11.5607 10.0419 11.5796 9.68015 11.4712 9.34676C11.3627 9.01337 11.1346 8.73194 10.831 8.55677C10.5273 8.38161 10.1695 8.32511 9.82658 8.39817C9.48369 8.47124 9.18001 8.6687 8.97411 8.95246C8.76822 9.23622 8.6747 9.58617 8.71159 9.93481C8.74849 10.2834 8.91319 10.6061 9.17391 10.8405C9.43464 11.0748 9.77293 11.2043 10.1235 11.204C10.3219 11.2038 10.5181 11.162 10.6993 11.0813ZM9.55662 10.0358C9.50685 9.92386 9.49141 9.79965 9.51224 9.67891C9.53306 9.55817 9.58923 9.44631 9.67363 9.35749C9.75803 9.26867 9.86687 9.20686 9.98639 9.1799C10.1059 9.15294 10.2307 9.16202 10.3451 9.20601C10.4595 9.24999 10.5582 9.3269 10.6289 9.42701C10.6995 9.52711 10.7389 9.64592 10.742 9.76841C10.7451 9.89089 10.7119 10.0116 10.6464 10.1151C10.581 10.2187 10.4863 10.3006 10.3743 10.3503C10.2954 10.3857 10.21 10.4041 10.1235 10.4041C10.0035 10.4041 9.88615 10.3693 9.78554 10.3039C9.68493 10.2385 9.60541 10.1454 9.55662 10.0358ZM14.5213 12.5898C14.8594 12.5901 15.1866 12.4698 15.4439 12.2504C15.7012 12.0311 15.8718 11.7271 15.925 11.3932C15.9782 11.0593 15.9105 10.7173 15.734 10.4289C15.5576 10.1404 15.284 9.9244 14.9625 9.81967C14.641 9.71493 14.2927 9.72835 13.9802 9.85752C13.6677 9.98668 13.4116 10.2231 13.2579 10.5243C13.1042 10.8255 13.063 11.1716 13.1417 11.5004C13.2204 11.8293 13.4139 12.1192 13.6873 12.3181C13.9296 12.4946 14.2216 12.5898 14.5213 12.59V12.5898ZM14.0213 10.8052C14.1057 10.6892 14.2277 10.606 14.3665 10.5699C14.5053 10.5337 14.6523 10.5468 14.7826 10.607C14.9128 10.6671 15.0182 10.7705 15.0807 10.8996C15.1433 11.0287 15.1591 11.1755 15.1255 11.3149C15.092 11.4544 15.0111 11.5779 14.8967 11.6644C14.7823 11.7509 14.6414 11.7951 14.4981 11.7894C14.3547 11.7837 14.2178 11.7285 14.1106 11.6331C14.0035 11.5378 13.9327 11.4082 13.9103 11.2665C13.8973 11.1861 13.9004 11.1039 13.9195 11.0247C13.9385 10.9456 13.9731 10.8709 14.0212 10.8052H14.0213ZM11.1238 12.8674C10.7857 12.8671 10.4585 12.9874 10.2012 13.2068C9.94392 13.4262 9.77332 13.7302 9.72014 14.0641C9.66696 14.398 9.73467 14.7399 9.91111 15.0284C10.0875 15.3168 10.3611 15.5328 10.6826 15.6376C11.0041 15.7423 11.3524 15.7289 11.6649 15.5997C11.9774 15.4706 12.2335 15.2341 12.3872 14.933C12.541 14.6318 12.5822 14.2857 12.5034 13.9568C12.4247 13.628 12.2312 13.338 11.9578 13.1391C11.7155 12.9627 11.4235 12.8676 11.1237 12.8674H11.1238ZM11.6238 14.652C11.5394 14.768 11.4175 14.8512 11.2787 14.8874C11.1398 14.9235 10.9928 14.9104 10.8625 14.8503C10.7323 14.7902 10.627 14.6868 10.5644 14.5577C10.5019 14.4286 10.486 14.2818 10.5196 14.1423C10.5532 14.0029 10.634 13.8793 10.7485 13.7928C10.8629 13.7063 11.0037 13.6621 11.1471 13.6679C11.2904 13.6736 11.4273 13.7288 11.5345 13.8241C11.6417 13.9195 11.7125 14.049 11.7348 14.1907C11.7478 14.2711 11.7446 14.3533 11.7256 14.4325C11.7065 14.5117 11.6719 14.5863 11.6238 14.652ZM22.2031 5.00492L21.3384 4.50492C18.5155 2.86424 15.3085 2 12.0434 2C8.77831 2 5.57137 2.86424 2.74842 4.50492L1.88422 5.00492L12.0435 22.6016L20.2306 8.42162L22.2031 5.00492ZM12.0436 20.6015L5.22312 8.78782C7.30524 7.61569 9.65429 6.99992 12.0437 6.99992C14.433 6.99992 16.7821 7.61569 18.8642 8.78782L12.0436 20.6015ZM12.0435 6.00002C9.4795 6.00459 6.95965 6.66782 4.72562 7.92612L3.25002 5.37002C5.92065 3.81756 8.95468 2.99978 12.0438 2.99978C15.1329 2.99978 18.1669 3.81756 20.8375 5.37002L19.3617 7.92632C17.1276 6.668 14.6076 6.0047 12.0435 6.00002Z" fill="black"/>
</svg>
