<svg width="24" height="24" viewBox="0 0 24 24" fill="none" xmlns="http://www.w3.org/2000/svg">
<path d="M10.422 7.8178L9.3333 7V1H5.6667V7L4.578 7.8178C4.08799 8.18589 3.69032 8.66293 3.41645 9.2112C3.14257 9.75947 3 10.3639 3 10.9768V20.25C3 20.4489 3.07902 20.6397 3.21967 20.7803C3.36032 20.921 3.55109 21 3.75 21H11.25C11.4489 21 11.6397 20.921 11.7803 20.7803C11.921 20.6397 12 20.4489 12 20.25V10.9768C12 10.3639 11.8574 9.75947 11.5836 9.2112C11.3097 8.66293 10.912 8.18589 10.422 7.8178ZM11.0333 20.0333H3.9667V10.9794C3.96593 10.5037 4.07835 10.0347 4.29467 9.61104C4.511 9.18739 4.82502 8.8213 5.2108 8.543L6.2994 7.7252L6.6334 7.4407V1.9667H8.3666V7.4407L8.7006 7.7252L9.7892 8.543C10.175 8.8213 10.489 9.18739 10.7053 9.61104C10.9217 10.0347 11.0341 10.5037 11.0333 10.9794V20.0333ZM18.4667 15.95C19.3934 15.831 20.2364 15.3532 20.8146 14.6193C21.3927 13.8853 21.6597 12.9538 21.5583 12.025L21 7H15L14.4417 12.0245C14.3403 12.9533 14.6074 13.8848 15.1855 14.6187C15.7636 15.3527 16.6066 15.8305 17.5333 15.9495V20.1175L15 20.5V21H21V20.5L18.4667 20.1175V15.95ZM16.0775 14.1411C15.8353 13.8709 15.6529 13.5525 15.5422 13.2068C15.4316 12.8612 15.3953 12.4961 15.4356 12.1354L15.895 8H20.105L20.5644 12.1349C20.6249 12.6784 20.5111 13.2271 20.2395 13.7018C19.9678 14.1764 19.5524 14.5525 19.0531 14.7757C18.5538 14.9988 17.9966 15.0576 17.4617 14.9435C16.9269 14.8293 16.4422 14.5482 16.0775 14.1406V14.1411Z" fill="black"/>
</svg>
