<svg width="24" height="24" viewBox="0 0 24 24" fill="none" xmlns="http://www.w3.org/2000/svg">
<path d="M10 7V1H5V7L4.1716 7.8284C3.42145 8.57853 3.00001 9.59594 3 10.6568V20C3 20.2652 3.10536 20.5196 3.29289 20.7071C3.48043 20.8946 3.73478 21 4 21H11C11.2652 21 11.5196 20.8946 11.7071 20.7071C11.8946 20.5196 12 20.2652 12 20V10.6568C12 9.59594 11.5785 8.57853 10.8284 7.8284L10 7ZM10.1 19.1H4.9V10.6569C4.89925 10.381 4.95323 10.1077 5.05881 9.85279C5.16439 9.59789 5.31948 9.36646 5.5151 9.1719L6.9 7.787V2.9H8.1V7.787L8.6565 8.3435L9.4849 9.1719C9.68054 9.36645 9.83564 9.59787 9.94122 9.85278C10.0468 10.1077 10.1008 10.381 10.1 10.6569V19.1ZM18.9 15.8743C19.7319 15.6593 20.4585 15.1518 20.9467 14.4447C21.4349 13.7377 21.652 12.8784 21.5583 12.0243L21 7H15L14.4417 12.0245C14.348 12.8786 14.5651 13.7379 15.0533 14.4449C15.5415 15.152 16.2681 15.6595 17.1 15.8745V19.399L15 20V21H21V20L18.9 19.3988V15.8743ZM16.8226 13.4737C16.6733 13.3088 16.5611 13.1138 16.4933 12.902C16.4255 12.6901 16.4037 12.4662 16.4295 12.2453L16.79 9H19.21L19.5706 12.2453C19.6077 12.5782 19.5381 12.9143 19.3717 13.205C19.2054 13.4957 18.9509 13.7261 18.6451 13.8628C18.3393 13.9995 17.998 14.0354 17.6705 13.9655C17.3429 13.8956 17.046 13.7234 16.8227 13.4737H16.8226Z" fill="black"/>
</svg>
