<svg width="24" height="24" viewBox="0 0 24 24" fill="none" xmlns="http://www.w3.org/2000/svg">
<path d="M7 2C6.20462 2.00087 5.44206 2.31722 4.87964 2.87964C4.31722 3.44206 4.00087 4.20462 4 5V19C4.00087 19.7954 4.31722 20.5579 4.87964 21.1204C5.44206 21.6828 6.20462 21.9991 7 22H20V2H7ZM19 21H7C6.46975 20.9994 5.9614 20.7885 5.58646 20.4135C5.21152 20.0386 5.00061 19.5302 5 19V5C5.00061 4.46975 5.21152 3.9614 5.58646 3.58646C5.9614 3.21152 6.46975 3.00061 7 3H19V21ZM14.1765 12.8L15.1875 13.4135L14.7921 16.3113C14.7809 16.3936 14.7868 16.4774 14.8093 16.5574C14.8319 16.6374 14.8706 16.7119 14.9231 16.7763C14.9757 16.8407 15.0409 16.8936 15.1147 16.9317C15.1885 16.9699 15.2694 16.9925 15.3523 16.9981C15.4352 17.0037 15.5183 16.9923 15.5966 16.9644C15.6749 16.9366 15.7467 16.8929 15.8074 16.8362C15.8681 16.7795 15.9166 16.7109 15.9497 16.6347C15.9828 16.5585 15.9999 16.4763 16 16.3932V7.981C16 7.74425 15.9144 7.51548 15.759 7.3369C15.6035 7.15831 15.3888 7.04196 15.1543 7.00931C14.9198 6.97666 14.6814 7.02991 14.4831 7.15924C14.2848 7.28857 14.14 7.48525 14.0753 7.713L13.2793 10.5165C13.1582 10.9429 13.1804 11.3972 13.3425 11.8097C13.5046 12.2222 13.7976 12.5701 14.1765 12.8ZM14.2413 10.79L15 8.1175V12.13L14.6953 11.9451C14.5039 11.8285 14.356 11.6525 14.274 11.4439C14.192 11.2354 14.1805 11.0057 14.2413 10.79ZM8.9837 11.2148L9.4929 11.5064L9.1859 16.3028C9.18026 16.3922 9.193 16.4818 9.22333 16.5661C9.25366 16.6503 9.30094 16.7275 9.36225 16.7928C9.42356 16.8581 9.4976 16.9102 9.57981 16.9457C9.66201 16.9813 9.75063 16.9997 9.8402 16.9997C9.92977 16.9997 10.0184 16.9813 10.1006 16.9457C10.1828 16.9102 10.2568 16.8581 10.3181 16.7928C10.3795 16.7275 10.4267 16.6503 10.4571 16.5661C10.4874 16.4818 10.5001 16.3922 10.4945 16.3028L10.1875 11.5064L10.6969 11.2146C11.0614 11.0059 11.3519 10.689 11.5281 10.3078C11.7044 9.92657 11.7578 9.49997 11.6808 9.0871L11.5577 8.4271C11.483 8.02621 11.2703 7.66409 10.9566 7.40349C10.643 7.14289 10.248 7.00024 9.8402 7.00024C9.4324 7.00024 9.03744 7.14289 8.72376 7.40349C8.41008 7.66409 8.19745 8.02621 8.1227 8.4271L8 9.0868C7.92299 9.49966 7.9763 9.92626 8.15255 10.3075C8.32881 10.6887 8.61927 11.0056 8.9837 11.2144V11.2148ZM8.9828 9.27L9.1058 8.61C9.13776 8.43856 9.22868 8.2837 9.36282 8.17225C9.49696 8.06081 9.66586 7.9998 9.84025 7.9998C10.0146 7.9998 10.1835 8.06081 10.3177 8.17225C10.4518 8.2837 10.5427 8.43856 10.5747 8.61L10.6977 9.27C10.7365 9.47889 10.7095 9.69467 10.6203 9.88752C10.5312 10.0804 10.3843 10.2408 10.2 10.3465L9.84 10.5525L9.4805 10.3466C9.29618 10.2409 9.14928 10.0805 9.06011 9.8876C8.97095 9.69472 8.94393 9.4789 8.9828 9.27Z" fill="#231F20"/>
</svg>
