<svg width="24" height="24" viewBox="0 0 24 24" fill="none" xmlns="http://www.w3.org/2000/svg">
<path d="M4 2L6.0831 20.2271C6.13886 20.715 6.37218 21.1653 6.7386 21.4923C7.10502 21.8192 7.57892 22 8.07 22H15.93C16.4211 22 16.895 21.8193 17.2615 21.4923C17.6279 21.1654 17.8612 20.715 17.917 20.2271L20 2H4ZM18.3188 3.5L17.8538 7.5688C17.2926 7.20166 16.6389 7.00098 15.9684 6.99C15.2587 7.00088 14.5682 7.22204 13.9842 7.6255C13.4052 8.03889 12.7115 8.2611 12 8.2611C11.2885 8.2611 10.5948 8.03889 10.0158 7.6255C9.43183 7.22204 8.7413 7.00088 8.0316 6.99C7.36104 7.0011 6.70734 7.20192 6.1462 7.5692L5.6812 3.5H18.3188Z" fill="black"/>
</svg>
