<svg width="24" height="24" viewBox="0 0 24 24" fill="none" xmlns="http://www.w3.org/2000/svg">
<path d="M4 2L6.0831 20.2271C6.13886 20.715 6.37218 21.1653 6.7386 21.4923C7.10502 21.8192 7.57892 22 8.07 22H15.93C16.4211 22 16.895 21.8193 17.2615 21.4923C17.6279 21.1654 17.8612 20.715 17.917 20.2271L20 2H4ZM17.42 20.17C17.3784 20.536 17.2035 20.8739 16.9287 21.1192C16.6539 21.3645 16.2984 21.5001 15.93 21.5H8.07C7.70163 21.5 7.34614 21.3645 7.07133 21.1192C6.79651 20.8739 6.62162 20.536 6.58 20.17L5.2756 8.7578C5.91018 8.34151 6.65568 8.12652 7.41449 8.14099C8.17329 8.15546 8.91005 8.39871 9.5283 8.8389C10.2564 9.33974 11.1163 9.61423 12 9.6279C12.8837 9.61423 13.7436 9.33974 14.4717 8.8389C15.1187 8.3926 15.883 8.14699 16.6689 8.1328C17.3987 8.14678 18.1103 8.36312 18.7244 8.7577L17.42 20.17ZM16.6689 7.6328C15.7857 7.64643 14.9262 7.9206 14.1982 8.4209C13.5565 8.87824 12.788 9.12403 12 9.12403C11.212 9.12403 10.4435 8.87824 9.8018 8.4209C9.13683 7.95115 8.35083 7.68246 7.53745 7.64684C6.72407 7.61122 5.91759 7.81017 5.2141 8.22L4.56 2.5H19.44L18.7863 8.22C18.1423 7.84649 17.4133 7.64432 16.6689 7.6328ZM14.2349 13.8516C13.9382 13.8516 13.6482 13.9396 13.4015 14.1044C13.1549 14.2692 12.9626 14.5035 12.8491 14.7776C12.7355 15.0517 12.7058 15.3533 12.7637 15.6442C12.8216 15.9352 12.9645 16.2025 13.1742 16.4123C13.384 16.622 13.6513 16.7649 13.9423 16.8228C14.2332 16.8807 14.5348 16.851 14.8089 16.7374C15.083 16.6239 15.3173 16.4316 15.4821 16.185C15.6469 15.9383 15.7349 15.6483 15.7349 15.3516C15.7349 14.9538 15.5769 14.5722 15.2956 14.2909C15.0143 14.0096 14.6327 13.8516 14.2349 13.8516ZM14.2349 16.3516C14.0371 16.3516 13.8438 16.293 13.6793 16.1831C13.5149 16.0732 13.3867 15.917 13.311 15.7343C13.2353 15.5516 13.2155 15.3505 13.2541 15.1565C13.2927 14.9625 13.3879 14.7843 13.5278 14.6445C13.6676 14.5046 13.8458 14.4094 14.0398 14.3708C14.2338 14.3322 14.4349 14.352 14.6176 14.4277C14.8003 14.5034 14.9565 14.6316 15.0664 14.796C15.1763 14.9605 15.2349 15.1538 15.2349 15.3516C15.2346 15.6167 15.1292 15.8709 14.9417 16.0584C14.7542 16.2459 14.5 16.3513 14.2349 16.3516ZM10.406 13.8834C10.7027 13.8834 10.9927 13.7954 11.2394 13.6306C11.486 13.4658 11.6783 13.2315 11.7918 12.9574C11.9054 12.6833 11.9351 12.3817 11.8772 12.0908C11.8193 11.7998 11.6764 11.5325 11.4667 11.3227C11.2569 11.113 10.9896 10.9701 10.6986 10.9122C10.4077 10.8543 10.1061 10.884 9.83197 10.9976C9.55789 11.1111 9.32362 11.3034 9.1588 11.55C8.99397 11.7967 8.906 12.0867 8.906 12.3834C8.906 12.7812 9.06404 13.1628 9.34534 13.4441C9.62664 13.7254 10.0082 13.8834 10.406 13.8834ZM10.406 11.3834C10.6038 11.3834 10.7971 11.442 10.9616 11.5519C11.126 11.6618 11.2542 11.818 11.3299 12.0007C11.4056 12.1834 11.4254 12.3845 11.3868 12.5785C11.3482 12.7725 11.253 12.9507 11.1131 13.0905C10.9733 13.2304 10.7951 13.3256 10.6011 13.3642C10.4071 13.4028 10.206 13.383 10.0233 13.3073C9.84059 13.2316 9.68441 13.1034 9.57453 12.939C9.46465 12.7745 9.406 12.5812 9.406 12.3834C9.40629 12.1183 9.51174 11.8641 9.69921 11.6766C9.88669 11.4891 10.1409 11.3837 10.406 11.3834ZM10.5889 16.8196C10.2922 16.8196 10.0022 16.9076 9.75554 17.0724C9.50887 17.2372 9.31661 17.4715 9.20308 17.7456C9.08955 18.0197 9.05984 18.3213 9.11772 18.6122C9.1756 18.9032 9.31846 19.1705 9.52824 19.3803C9.73802 19.59 10.0053 19.7329 10.2963 19.7908C10.5872 19.8487 10.8888 19.819 11.1629 19.7054C11.437 19.5919 11.6713 19.3996 11.8361 19.153C12.0009 18.9063 12.0889 18.6163 12.0889 18.3196C12.0888 17.9218 11.9307 17.5404 11.6494 17.2592C11.3681 16.978 10.9867 16.82 10.5889 16.82V16.8196ZM10.5889 19.3196C10.3911 19.3196 10.1978 19.261 10.0333 19.1511C9.86888 19.0412 9.74071 18.885 9.66502 18.7023C9.58933 18.5196 9.56953 18.3185 9.60812 18.1245C9.6467 17.9305 9.74194 17.7523 9.88179 17.6125C10.0216 17.4726 10.1998 17.3774 10.3938 17.3388C10.5878 17.3002 10.7889 17.32 10.9716 17.3957C11.1543 17.4714 11.3105 17.5996 11.4204 17.764C11.5303 17.9285 11.5889 18.1218 11.5889 18.3196C11.5887 18.5848 11.4833 18.8391 11.2959 19.0267C11.1084 19.2142 10.8541 19.3197 10.5889 19.32V19.3196Z" fill="black"/>
</svg>
