<svg width="24" height="24" viewBox="0 0 24 24" fill="none" xmlns="http://www.w3.org/2000/svg">
<path d="M18.45 15.5345C19.3779 15.4192 20.2227 14.9423 20.8008 14.2073C21.3788 13.4724 21.6432 12.5389 21.5366 11.61L21 7H15L14.4634 11.61C14.3568 12.5389 14.6212 13.4724 15.1992 14.2073C15.7773 14.9423 16.6221 15.4192 17.55 15.5345V20.1145L15 20.5V21H21V20.5L18.45 20.115V15.5345ZM10.2187 7.8124L9 7V1H6V7L4.7813 7.8124C4.23335 8.17767 3.78407 8.67259 3.47332 9.2532C3.16258 9.83381 2.99999 10.4822 3 11.1407V20C3 20.2652 3.10536 20.5196 3.29289 20.7071C3.48043 20.8946 3.73478 21 4 21H11C11.2652 21 11.5196 20.8946 11.7071 20.7071C11.8946 20.5196 12 20.2652 12 20V11.1407C12 10.4822 11.8374 9.83381 11.5267 9.2532C11.2159 8.67259 10.7666 8.17767 10.2187 7.8124Z" fill="black"/>
</svg>
