<svg width="24" height="24" viewBox="0 0 24 24" fill="none" xmlns="http://www.w3.org/2000/svg">
<path d="M17.3426 7.1782L17.2238 7.03C15.6844 8.06565 13.8536 8.58083 12 8.5C10.1464 8.58083 8.31563 8.06565 6.7762 7.03L6.6574 7.1785C6.23194 7.71038 6.00011 8.37119 6 9.0523V19C6 20.6569 8.6863 22 12 22C15.3137 22 18 20.6569 18 19V9.0523C18 8.37109 17.7681 7.71016 17.3426 7.1782ZM12 7.5C15.0376 7.5 17.5 6.2687 17.5 4.75C17.5 3.2313 15.0376 2 12 2C8.9624 2 6.5 3.2312 6.5 4.75C6.5 6.2688 8.9625 7.5 12 7.5ZM14.1706 4.1313H14.8293C14.9651 4.1313 15.0953 4.18523 15.1913 4.28123C15.2873 4.37723 15.3412 4.50744 15.3412 4.6432V4.8563C15.3412 4.99206 15.2873 5.12227 15.1913 5.21827C15.0953 5.31427 14.9651 5.3682 14.8293 5.3682H14.1752H14.1706C13.524 5.3687 13 5.0917 13 4.75C13 4.4083 13.524 4.1313 14.1706 4.1313Z" fill="black"/>
</svg>
