<svg width="24" height="24" viewBox="0 0 24 24" fill="none" xmlns="http://www.w3.org/2000/svg">
<path d="M16.0625 3.19991C15.8365 3.2008 15.6111 3.22351 15.3895 3.26771C15.2057 2.50726 14.7715 1.8307 14.1568 1.34682C13.542 0.862943 12.7824 0.599854 12 0.599854C11.2177 0.599854 10.458 0.862943 9.84328 1.34682C9.22851 1.8307 8.79432 2.50726 8.61052 3.26771C8.10344 3.16624 7.58014 3.17877 7.0785 3.30441C6.57686 3.43004 6.10942 3.66563 5.71002 3.99413C5.31063 4.32262 4.98926 4.73581 4.76918 5.20377C4.5491 5.67174 4.43581 6.18278 4.43752 6.69991C4.44012 7.54848 4.7535 8.3667 5.31842 8.99991H18.6816C19.129 8.49695 19.4211 7.87517 19.5226 7.20973C19.6242 6.54429 19.5308 5.86369 19.2538 5.2502C18.9767 4.63671 18.5279 4.1166 17.9616 3.75275C17.3953 3.3889 16.7357 3.19688 16.0625 3.19991ZM11.5377 22.8781C11.5755 22.9697 11.6395 23.048 11.7218 23.1031C11.8041 23.1582 11.901 23.1876 12 23.1876C12.0991 23.1876 12.1959 23.1582 12.2782 23.1031C12.3605 23.048 12.4246 22.9697 12.4623 22.8781L17.3572 10.9999H6.64292L11.5377 22.8781Z" fill="black"/>
</svg>
