<svg width="24" height="24" viewBox="0 0 24 24" fill="none" xmlns="http://www.w3.org/2000/svg">
<path d="M0 20V21C1.98702 21.6623 4.06781 22 6.1623 22H17.8377C19.9322 22 22.013 21.6623 24 21V20H0ZM9.6641 18H14.3359C15.4458 18 16.5166 17.5898 17.3424 16.8482C18.1682 16.1067 18.6909 15.0861 18.8099 13.9826L18.916 13H19.3168C20.3037 13 21.2557 12.6352 21.9899 11.9757C22.724 11.3162 23.1885 10.4086 23.2939 9.4274L23.4724 7.7674C23.5099 7.41855 23.4736 7.0657 23.3658 6.73181C23.258 6.39792 23.0811 6.09046 22.8466 5.82943C22.6122 5.5684 22.3254 5.35965 22.005 5.21675C21.6845 5.07384 21.3376 4.99999 20.9867 5H19.7789L19.9946 3H4.0054L5.19 13.9826C5.30903 15.0861 5.8317 16.1067 6.65755 16.8483C7.4834 17.5898 8.55418 18 9.6641 18ZM19.5632 7H20.9867C21.0569 7.00001 21.1262 7.01478 21.1903 7.04336C21.2544 7.07193 21.3117 7.11368 21.3586 7.16587C21.4055 7.21807 21.4409 7.27955 21.4625 7.34632C21.484 7.41308 21.4913 7.48364 21.4838 7.5534L21.3054 9.2134C21.2535 9.70436 21.0215 10.1587 20.6542 10.4886C20.287 10.8186 19.8105 11.0008 19.3168 11H19.1317L19.5632 7Z" fill="black"/>
</svg>
