<svg width="24" height="24" viewBox="0 0 24 24" fill="none" xmlns="http://www.w3.org/2000/svg">
<path d="M4 2L6.0831 20.2271C6.13886 20.715 6.37218 21.1653 6.7386 21.4923C7.10502 21.8192 7.57892 22 8.07 22H15.93C16.4211 22 16.895 21.8193 17.2615 21.4923C17.6279 21.1654 17.8612 20.715 17.917 20.2271L20 2H4ZM18.8792 3L18.3181 7.91C17.7203 7.59927 17.0575 7.43392 16.3838 7.4274C15.5025 7.43999 14.6446 7.71282 13.918 8.2116C13.3589 8.61296 12.688 8.82875 11.9998 8.82857C11.3116 8.82839 10.6408 8.61225 10.082 8.2106C9.44619 7.76292 8.69976 7.49822 7.92395 7.44533C7.14814 7.39243 6.37269 7.55336 5.682 7.9106L5.1208 3H18.8792ZM16.9234 20.1135C16.8955 20.3575 16.7789 20.5826 16.5957 20.7461C16.4125 20.9096 16.1755 21 15.93 21H8.07C7.82444 21 7.58747 20.9096 7.40425 20.7461C7.22103 20.5827 7.10437 20.3575 7.0765 20.1135L5.8051 8.9879C6.35811 8.61463 7.01243 8.42021 7.67954 8.43094C8.34666 8.44167 8.99438 8.65703 9.5351 9.0479C10.2612 9.54705 11.1189 9.81989 12 9.832C12.8809 9.81979 13.7384 9.54729 14.4648 9.0488C15.0046 8.65581 15.6526 8.43905 16.3202 8.42815C16.9878 8.41725 17.6425 8.61274 18.1948 8.9879L16.9234 20.1135Z" fill="black"/>
</svg>
