<svg width="24" height="24" viewBox="0 0 24 24" fill="none" xmlns="http://www.w3.org/2000/svg">
<path d="M7.5625 11.5C7.38414 11.6783 7.24267 11.89 7.14615 12.123C7.04964 12.356 6.99997 12.6058 7 12.858V14.642C6.99997 14.8942 7.04964 15.144 7.14615 15.377C7.24267 15.61 7.38414 15.8217 7.5625 16H16.4375C16.6159 15.8217 16.7573 15.61 16.8538 15.377C16.9504 15.144 17 14.8942 17 14.642V12.858C17 12.6058 16.9504 12.356 16.8538 12.123C16.7573 11.89 16.6159 11.6783 16.4375 11.5H7.5625ZM13.6667 0.7C13.6667 0.514348 13.593 0.336301 13.4617 0.205025C13.3304 0.0737498 13.1524 0 12.9667 0H11.0333C10.8476 0 10.6696 0.0737498 10.5383 0.205025C10.407 0.336301 10.3333 0.514348 10.3333 0.7V2H13.6667V0.7ZM15.434 5.0324L13.6667 3.5034V3.5H10.3333L8.551 5.0558C8.0639 5.481 7.67346 6.00555 7.40594 6.59419C7.13841 7.18283 7 7.82192 7 8.4685V8.642C6.99997 8.89421 7.04964 9.14395 7.14615 9.37696C7.24267 9.60997 7.38414 9.82168 7.5625 10H16.4375C16.6159 9.82168 16.7573 9.60997 16.8538 9.37696C16.9504 9.14395 17 8.89421 17 8.642V8.4582C17 7.80826 16.8602 7.16593 16.59 6.57481C16.3197 5.9837 15.9255 5.45766 15.434 5.0324ZM7.5625 17.5C7.38414 17.6783 7.24267 17.89 7.14615 18.123C7.04964 18.356 6.99997 18.6058 7 18.858V20.5729C7 20.9866 7.10575 21.3935 7.30721 21.7548C7.50867 22.1162 7.79915 22.42 8.15107 22.6375C8.503 22.855 8.90468 22.979 9.31797 22.9976C9.73127 23.0162 10.1425 22.9288 10.5125 22.7438C10.9743 22.5128 11.4836 22.3926 12 22.3926C12.5164 22.3926 13.0257 22.5128 13.4875 22.7438C13.8575 22.9288 14.2687 23.0162 14.682 22.9976C15.0953 22.979 15.497 22.855 15.8489 22.6375C16.2008 22.42 16.4913 22.1162 16.6928 21.7548C16.8943 21.3935 17 20.9866 17 20.5729V18.858C17 18.6058 16.9504 18.356 16.8538 18.123C16.7573 17.89 16.6159 17.6783 16.4375 17.5H7.5625Z" fill="black"/>
</svg>
