<svg width="24" height="24" viewBox="0 0 24 24" fill="none" xmlns="http://www.w3.org/2000/svg">
<path d="M4 2L6.0831 20.2271C6.13886 20.715 6.37218 21.1653 6.7386 21.4923C7.10502 21.8192 7.57892 22 8.07 22H15.93C16.4211 22 16.895 21.8193 17.2615 21.4923C17.6279 21.1654 17.8612 20.715 17.917 20.2271L20 2H4ZM16.4266 20.0568C16.4127 20.1788 16.3543 20.2913 16.2628 20.373C16.1712 20.4548 16.0527 20.5 15.93 20.5H11.5742C11.7291 20.3466 11.8349 20.1506 11.8782 19.9369C11.9215 19.7233 11.9004 19.5016 11.8174 19.2999C11.7345 19.0983 11.5935 18.9259 11.4124 18.8046C11.2313 18.6832 11.0182 18.6184 10.8001 18.6184C10.5821 18.6184 10.369 18.6832 10.1879 18.8046C10.0068 18.9259 9.86581 19.0983 9.78287 19.2999C9.69993 19.5016 9.67876 19.7233 9.72207 19.9369C9.76538 20.1506 9.8712 20.3466 10.0261 20.5H8.07C7.94722 20.5 7.82873 20.4548 7.73711 20.3731C7.64549 20.2914 7.58715 20.1788 7.5732 20.0568L6.31 9C6.79865 8.74997 7.34749 8.6416 7.89451 8.68712C8.44152 8.73264 8.9649 8.93024 9.4055 9.2576C10.1703 9.78171 11.073 10.0679 12 10.08C12.9268 10.068 13.8294 9.78191 14.5938 9.2577C15.1146 8.8929 15.7325 8.69195 16.3682 8.6806C16.8277 8.68371 17.2802 8.79324 17.6902 9.0006L16.4266 20.0568ZM17.8666 7.4592C17.3873 7.27964 16.8803 7.18538 16.3685 7.1807C15.4413 7.19323 14.5384 7.47892 13.7728 8.002C13.2596 8.38155 12.6382 8.5864 11.9999 8.5864C11.3615 8.5864 10.7401 8.38155 10.2269 8.002C9.63767 7.59106 8.95845 7.3275 8.24625 7.23344C7.53406 7.13939 6.8097 7.2176 6.134 7.4615L5.6812 3.5H18.3188L17.8666 7.4592ZM13.684 15.2516C13.4664 15.2516 13.2538 15.3161 13.0729 15.437C12.892 15.5579 12.751 15.7296 12.6677 15.9306C12.5845 16.1316 12.5627 16.3528 12.6051 16.5662C12.6476 16.7796 12.7523 16.9756 12.9062 17.1294C13.06 17.2833 13.256 17.388 13.4694 17.4305C13.6828 17.4729 13.904 17.4511 14.105 17.3679C14.306 17.2846 14.4777 17.1436 14.5986 16.9627C14.7195 16.7818 14.784 16.5692 14.784 16.3516C14.784 16.2071 14.7555 16.0641 14.7002 15.9306C14.6449 15.7971 14.5639 15.6758 14.4617 15.5737C14.3595 15.4715 14.2382 15.3905 14.1047 15.3352C13.9713 15.28 13.8282 15.2516 13.6837 15.2516H13.684ZM10.6175 11.8834C10.3999 11.8834 10.1873 11.9479 10.0064 12.0688C9.82548 12.1897 9.68449 12.3615 9.60123 12.5624C9.51798 12.7634 9.49619 12.9846 9.53864 13.198C9.58108 13.4114 9.68584 13.6074 9.83968 13.7612C9.99352 13.9151 10.1895 14.0198 10.4029 14.0623C10.6163 14.1047 10.8375 14.0829 11.0385 13.9997C11.2395 13.9164 11.4112 13.7754 11.5321 13.5945C11.653 13.4136 11.7175 13.201 11.7175 12.9834C11.7175 12.8389 11.689 12.6959 11.6337 12.5624C11.5784 12.4289 11.4974 12.3076 11.3952 12.2055C11.293 12.1033 11.1717 12.0223 11.0382 11.967C10.9048 11.9118 10.7617 11.8834 10.6172 11.8834H10.6175Z" fill="black"/>
</svg>
