<svg width="24" height="24" viewBox="0 0 24 24" fill="none" xmlns="http://www.w3.org/2000/svg">
<path d="M17 8.3671V8.3557C17 6.95311 16.4978 5.59688 15.5844 4.5325L13.6667 2.298V0.75C13.6667 0.551088 13.5877 0.360322 13.447 0.21967C13.3064 0.0790176 13.1156 0 12.9167 0L11.0834 0C10.8845 0 10.6937 0.0790176 10.5531 0.21967C10.4124 0.360322 10.3334 0.551088 10.3334 0.75V2.2946L8.4034 4.5585C7.4976 5.62076 7.00003 6.97108 7 8.3671C7.00006 8.77878 7.12722 9.1804 7.3641 9.5171L7.7032 10L7.3641 10.4824C7.12713 10.8192 6.99997 11.221 7 11.6328V15.2984C7.00012 15.7101 7.12727 16.1117 7.3641 16.4484L7.7032 16.9307L7.3641 17.4131C7.12703 17.7501 6.99987 18.1521 7 18.5641V20.5729C7 20.9866 7.10575 21.3935 7.30721 21.7548C7.50867 22.1162 7.79915 22.42 8.15107 22.6375C8.503 22.855 8.90468 22.979 9.31797 22.9976C9.73127 23.0162 10.1425 22.9288 10.5125 22.7438C10.9743 22.5128 11.4836 22.3926 12 22.3926C12.5164 22.3926 13.0257 22.5128 13.4875 22.7438C13.8575 22.9288 14.2687 23.0162 14.682 22.9976C15.0953 22.979 15.497 22.855 15.8489 22.6375C16.2008 22.42 16.4913 22.1162 16.6928 21.7548C16.8943 21.3935 17 20.9866 17 20.5729V18.5641C17 18.1523 16.8729 17.7505 16.636 17.4136L16.2968 16.9312L16.636 16.4489C16.8728 16.1122 16.9999 15.7106 17 15.2989V11.6328C16.9999 11.2211 16.8728 10.8195 16.636 10.4828L16.2968 10L16.636 9.5176C16.8729 9.18072 17 8.77893 17 8.3671ZM11.0834 0.5H12.9167C12.983 0.5 13.0466 0.526339 13.0935 0.573223C13.1404 0.620107 13.1667 0.683696 13.1667 0.75V2H10.8334V0.75C10.8334 0.683696 10.8597 0.620107 10.9066 0.573223C10.9535 0.526339 11.0171 0.5 11.0834 0.5ZM16.5 18.5641V20.5729C16.5 20.9014 16.416 21.2244 16.2561 21.5113C16.0961 21.7982 15.8655 22.0394 15.5861 22.2121C15.3067 22.3848 14.9878 22.4833 14.6596 22.498C14.3315 22.5128 14.005 22.4435 13.7112 22.2966C13.1799 22.0309 12.594 21.8926 12 21.8926C11.406 21.8926 10.8201 22.0309 10.2888 22.2966C9.99499 22.4435 9.66852 22.5128 9.34038 22.498C9.01224 22.4833 8.69332 22.3848 8.41391 22.2121C8.1345 22.0394 7.90387 21.7982 7.74392 21.5113C7.58397 21.2244 7.5 20.9014 7.5 20.5729V18.5641C7.4995 18.2551 7.59492 17.9536 7.7731 17.7012L8.0684 17.2812H15.9316L16.227 17.7012C16.4051 17.9536 16.5005 18.2551 16.5 18.5641ZM16.5 11.6328V15.2984C16.5005 15.6074 16.4051 15.9089 16.227 16.1613L15.8878 16.6436L15.791 16.7812H8.209L8.1122 16.6436L7.7731 16.1613C7.59492 15.9089 7.4995 15.6074 7.5 15.2984V11.6328C7.49948 11.3239 7.59491 11.0224 7.7731 10.77L8.1122 10.2876L8.1167 10.2812H15.8833L15.8878 10.2876L16.227 10.77C16.4051 11.0224 16.5005 11.3239 16.5 11.6328ZM16.227 9.23L15.8878 9.7124L15.8394 9.7812H8.1606L8.1122 9.7124L7.7731 9.23C7.59491 8.97758 7.49948 8.67607 7.5 8.3671C7.5004 7.09006 7.95552 5.85489 8.7838 4.8829L10.7138 2.619L10.8152 2.5H13.1811L13.2871 2.6237L15.2048 4.8581C16.0423 5.83525 16.5018 7.08018 16.5 8.3671C16.5005 8.67605 16.4051 8.97755 16.227 9.23Z" fill="black"/>
</svg>
