<svg width="24" height="24" viewBox="0 0 24 24" fill="none" xmlns="http://www.w3.org/2000/svg">
<path d="M12 6.5874C11.5495 6.5874 11.1091 6.72099 10.7345 6.97128C10.3599 7.22157 10.068 7.57731 9.89559 7.99352C9.72319 8.40974 9.67808 8.86773 9.76597 9.30958C9.85386 9.75143 10.0708 10.1573 10.3894 10.4758C10.7079 10.7944 11.1138 11.0113 11.5556 11.0992C11.9975 11.1871 12.4555 11.142 12.8717 10.9696C13.2879 10.7972 13.6436 10.5053 13.8939 10.1307C14.1442 9.7561 14.2778 9.31571 14.2778 8.8652C14.2778 8.56607 14.2189 8.26987 14.1044 7.99351C13.99 7.71715 13.8222 7.46604 13.6107 7.25452C13.3992 7.04301 13.1481 6.87523 12.8717 6.76076C12.5953 6.64629 12.2991 6.58739 12 6.5874ZM12 10.31C11.7143 10.31 11.4351 10.2252 11.1976 10.0665C10.9601 9.90774 10.775 9.68214 10.6657 9.41821C10.5564 9.15428 10.5278 8.86386 10.5836 8.58369C10.6393 8.30352 10.7769 8.04617 10.9789 7.84418C11.1809 7.6422 11.4383 7.50466 11.7185 7.44894C11.9987 7.39322 12.2891 7.42184 12.553 7.53117C12.8169 7.6405 13.0425 7.82563 13.2012 8.06316C13.3599 8.30068 13.4446 8.57993 13.4446 8.8656C13.4441 9.24857 13.2918 9.61571 13.021 9.88649C12.7501 10.1573 12.383 10.3096 12 10.31ZM12 2C10.0222 2 8.08879 2.58649 6.4443 3.6853C4.79981 4.78412 3.51809 6.3459 2.76121 8.17317C2.00433 10.0004 1.8063 12.0111 2.19215 13.9509C2.578 15.8907 3.53041 17.6725 4.92894 19.0711C6.32746 20.4696 8.10929 21.422 10.0491 21.8079C11.9889 22.1937 13.9996 21.9957 15.8268 21.2388C17.6541 20.4819 19.2159 19.2002 20.3147 17.5557C21.4135 15.9112 22 13.9778 22 12C22 10.6868 21.7413 9.38642 21.2388 8.17317C20.7363 6.95991 19.9997 5.85752 19.0711 4.92893C18.1425 4.00035 17.0401 3.26375 15.8268 2.7612C14.6136 2.25866 13.3132 2 12 2ZM12 21C10.22 21 8.47991 20.4722 6.99987 19.4832C5.51983 18.4943 4.36628 17.0887 3.68509 15.4442C3.0039 13.7996 2.82567 11.99 3.17294 10.2442C3.5202 8.49836 4.37737 6.89471 5.63604 5.63604C6.89472 4.37737 8.49836 3.5202 10.2442 3.17293C11.99 2.82567 13.7996 3.0039 15.4442 3.68508C17.0887 4.36627 18.4943 5.51983 19.4832 6.99987C20.4722 8.47991 21 10.22 21 12C20.9974 14.3861 20.0483 16.6738 18.361 18.361C16.6738 20.0483 14.3861 20.9974 12 21ZM16.6445 12.3C16.3083 12.3 15.9796 12.3997 15.7 12.5865C15.4205 12.7733 15.2026 13.0388 15.0739 13.3494C14.9452 13.6601 14.9116 14.0019 14.9772 14.3317C15.0428 14.6614 15.2047 14.9643 15.4424 15.2021C15.6802 15.4398 15.9831 15.6017 16.3129 15.6673C16.6426 15.7329 16.9844 15.6993 17.2951 15.5706C17.6057 15.4419 17.8712 15.224 18.058 14.9445C18.2448 14.6649 18.3445 14.3362 18.3445 14C18.3445 13.5491 18.1654 13.1167 17.8466 12.7979C17.5278 12.4791 17.0954 12.3 16.6445 12.3ZM16.6445 14.8C16.4863 14.8 16.3316 14.7531 16.2 14.6652C16.0685 14.5773 15.966 14.4523 15.9054 14.3061C15.8449 14.16 15.829 13.9991 15.8599 13.8439C15.8907 13.6887 15.9669 13.5462 16.0788 13.4343C16.1907 13.3224 16.3332 13.2462 16.4884 13.2154C16.6436 13.1845 16.8045 13.2003 16.9507 13.2609C17.0968 13.3214 17.2218 13.424 17.3097 13.5555C17.3976 13.6871 17.4445 13.8418 17.4445 14C17.4442 14.2121 17.3598 14.4154 17.2098 14.5653C17.0599 14.7153 16.8566 14.7997 16.6445 14.8ZM7.3555 12.3C7.01928 12.3 6.6906 12.3997 6.41104 12.5865C6.13147 12.7733 5.91358 13.0388 5.78491 13.3494C5.65624 13.6601 5.62257 14.0019 5.68817 14.3317C5.75376 14.6614 5.91567 14.9643 6.15342 15.2021C6.39117 15.4398 6.69408 15.6017 7.02385 15.6673C7.35362 15.7329 7.69543 15.6993 8.00607 15.5706C8.3167 15.4419 8.5822 15.224 8.769 14.9445C8.9558 14.6649 9.0555 14.3362 9.0555 14C9.0555 13.5491 8.8764 13.1167 8.55759 12.7979C8.23877 12.4791 7.80637 12.3 7.3555 12.3ZM7.3555 14.8C7.19728 14.8 7.04261 14.7531 6.91105 14.6652C6.77949 14.5773 6.67695 14.4523 6.6164 14.3061C6.55585 14.16 6.54001 13.9991 6.57088 13.8439C6.60174 13.6887 6.67794 13.5462 6.78982 13.4343C6.9017 13.3224 7.04425 13.2462 7.19943 13.2154C7.35462 13.1845 7.51547 13.2003 7.66165 13.2609C7.80783 13.3214 7.93278 13.424 8.02068 13.5555C8.10858 13.6871 8.1555 13.8418 8.1555 14C8.15524 14.2121 8.07087 14.4154 7.9209 14.5654C7.77093 14.7154 7.5676 14.7997 7.3555 14.8Z" fill="black"/>
</svg>
