<svg width="24" height="24" viewBox="0 0 24 24" fill="none" xmlns="http://www.w3.org/2000/svg">
<path d="M14 1H10C9.46957 1 8.96086 1.21071 8.58579 1.58579C8.21071 1.96086 8 2.46957 8 3V21C8 21.5304 8.21071 22.0391 8.58579 22.4142C8.96086 22.7893 9.46957 23 10 23H14C14.5304 23 15.0391 22.7893 15.4142 22.4142C15.7893 22.0391 16 21.5304 16 21V3C16 2.46957 15.7893 1.96086 15.4142 1.58579C15.0391 1.21071 14.5304 1 14 1ZM10 2.85H14C14.0398 2.85 14.0779 2.8658 14.1061 2.89393C14.1342 2.92206 14.15 2.96022 14.15 3V5.6362C13.5098 5.22097 12.7631 5 12 5C11.2369 5 10.4902 5.22097 9.85 5.6362V3C9.85 2.96022 9.8658 2.92206 9.89393 2.89393C9.92206 2.8658 9.96022 2.85 10 2.85ZM14 9V15C14 15.5304 13.7893 16.0391 13.4142 16.4142C13.0391 16.7893 12.5304 17 12 17C11.4696 17 10.9609 16.7893 10.5858 16.4142C10.2107 16.0391 10 15.5304 10 15V9C10 8.46957 10.2107 7.96086 10.5858 7.58579C10.9609 7.21071 11.4696 7 12 7C12.5304 7 13.0391 7.21071 13.4142 7.58579C13.7893 7.96086 14 8.46957 14 9ZM14 21.15H10C9.96022 21.15 9.92206 21.1342 9.89393 21.1061C9.8658 21.0779 9.85 21.0398 9.85 21V18.3638C10.4902 18.779 11.2369 19 12 19C12.7631 19 13.5098 18.779 14.15 18.3638V21C14.15 21.0398 14.1342 21.0779 14.1061 21.1061C14.0779 21.1342 14.0398 21.15 14 21.15Z" fill="black"/>
</svg>
