<svg width="24" height="24" viewBox="0 0 24 24" fill="none" xmlns="http://www.w3.org/2000/svg">
<path d="M20 4H4C3.46957 4 2.96086 4.21071 2.58579 4.58579C2.21071 4.96086 2 5.46957 2 6V16C2 16.5304 2.21071 17.0391 2.58579 17.4142C2.96086 17.7893 3.46957 18 4 18H8V20H16V18H20C20.5304 18 21.0391 17.7893 21.4142 17.4142C21.7893 17.0391 22 16.5304 22 16V6C22 5.46957 21.7893 4.96086 21.4142 4.58579C21.0391 4.21071 20.5304 4 20 4ZM15.5 19.5H8.5V18H15.5V19.5ZM21.5 16C21.4995 16.3977 21.3414 16.779 21.0602 17.0602C20.779 17.3414 20.3977 17.4995 20 17.5H4C3.60231 17.4995 3.22104 17.3414 2.93984 17.0602C2.65863 16.779 2.50045 16.3977 2.5 16V6C2.50045 5.60231 2.65863 5.22104 2.93984 4.93984C3.22104 4.65863 3.60231 4.50045 4 4.5H20C20.3977 4.50045 20.779 4.65863 21.0602 4.93984C21.3414 5.22104 21.4995 5.60231 21.5 6V16ZM9.75 14.0272L14.9932 11L9.75 7.9728V14.0272ZM10.2 8.7522L14.0933 11L10.2 13.2477V8.7522Z" fill="black"/>
</svg>
