<svg width="24" height="24" viewBox="0 0 24 24" fill="none" xmlns="http://www.w3.org/2000/svg">
<path d="M19 12C19.0003 10.8722 18.7276 9.761 18.2051 8.76145C17.6827 7.76189 16.9261 6.90364 16 6.26V3C16 2.46957 15.7893 1.96086 15.4142 1.58579C15.0391 1.21071 14.5304 1 14 1H9.99997C9.46954 1 8.96083 1.21071 8.58576 1.58579C8.21069 1.96086 7.99997 2.46957 7.99997 3V6.26C7.07404 6.90385 6.31761 7.76215 5.79522 8.76166C5.27283 9.76117 5 10.8722 5 12C5 13.1278 5.27283 14.2388 5.79522 15.2383C6.31761 16.2379 7.07404 17.0961 7.99997 17.74V21C7.99997 21.5304 8.21069 22.0391 8.58576 22.4142C8.96083 22.7893 9.46954 23 9.99997 23H14C14.5304 23 15.0391 22.7893 15.4142 22.4142C15.7893 22.0391 16 21.5304 16 21V17.74C16.9261 17.0964 17.6827 16.2381 18.2051 15.2386C18.7276 14.239 19.0003 13.1278 19 12ZM9.49997 3C9.50013 2.86744 9.55286 2.74036 9.6466 2.64662C9.74033 2.55289 9.86742 2.50016 9.99997 2.5H14C14.1325 2.50016 14.2596 2.55289 14.3534 2.64662C14.4471 2.74036 14.4998 2.86744 14.5 3V5.4678C12.8917 4.84407 11.1083 4.84407 9.49997 5.4678V3ZM6.49997 12C6.49997 10.9122 6.82254 9.84883 7.42689 8.94436C8.03124 8.03989 8.89022 7.33494 9.89522 6.91866C10.9002 6.50238 12.0061 6.39346 13.073 6.60568C14.1399 6.8179 15.1199 7.34172 15.8891 8.11091C16.6583 8.8801 17.1821 9.86011 17.3943 10.927C17.6065 11.9939 17.4976 13.0998 17.0813 14.1048C16.665 15.1098 15.9601 15.9687 15.0556 16.5731C14.1511 17.1774 13.0878 17.5 12 17.5C10.5418 17.4984 9.14379 16.9184 8.1127 15.8873C7.08161 14.8562 6.50162 13.4582 6.49997 12ZM14.5 21C14.4998 21.1326 14.4471 21.2596 14.3534 21.3534C14.2596 21.4471 14.1325 21.4998 14 21.5H9.99997C9.86742 21.4998 9.74033 21.4471 9.6466 21.3534C9.55286 21.2596 9.50013 21.1326 9.49997 21V18.5322C11.1083 19.1559 12.8917 19.1559 14.5 18.5322V21Z" fill="black"/>
</svg>
