<svg width="24" height="24" viewBox="0 0 24 24" fill="none" xmlns="http://www.w3.org/2000/svg">
<path d="M20 4H4C3.46957 4 2.96086 4.21071 2.58579 4.58579C2.21071 4.96086 2 5.46957 2 6V18C2 18.5304 2.21071 19.0391 2.58579 19.4142C2.96086 19.7893 3.46957 20 4 20H20C20.5304 20 21.0391 19.7893 21.4142 19.4142C21.7893 19.0391 22 18.5304 22 18V6C22 5.46957 21.7893 4.96086 21.4142 4.58579C21.0391 4.21071 20.5304 4 20 4ZM5.375 13.375C5.10305 13.375 4.83721 13.2944 4.61109 13.1433C4.38497 12.9922 4.20874 12.7774 4.10467 12.5262C4.0006 12.2749 3.97337 11.9985 4.02642 11.7318C4.07947 11.465 4.21043 11.22 4.40273 11.0277C4.59503 10.8354 4.84003 10.7045 5.10675 10.6514C5.37347 10.5984 5.64994 10.6256 5.90119 10.7297C6.15244 10.8337 6.36718 11.01 6.51827 11.2361C6.66936 11.4622 6.75 11.7281 6.75 12C6.75 12.3647 6.60513 12.7144 6.34727 12.9723C6.08941 13.2301 5.73967 13.375 5.375 13.375ZM5.375 11.425C5.26128 11.425 5.15011 11.4587 5.05555 11.5219C4.96099 11.5851 4.88729 11.6749 4.84377 11.78C4.80025 11.885 4.78886 12.0006 4.81105 12.1122C4.83324 12.2237 4.888 12.3262 4.96841 12.4066C5.04883 12.487 5.15128 12.5418 5.26282 12.564C5.37436 12.5861 5.48998 12.5748 5.59504 12.5312C5.70011 12.4877 5.78991 12.414 5.8531 12.3195C5.91628 12.2249 5.95 12.1137 5.95 12C5.94981 11.8476 5.88917 11.7014 5.78138 11.5936C5.67359 11.4858 5.52744 11.4252 5.375 11.425Z" fill="black"/>
</svg>
