<svg width="24" height="24" viewBox="0 0 24 24" fill="none" xmlns="http://www.w3.org/2000/svg">
<path d="M15.5 2H8.5C7.83696 2 7.20107 2.26339 6.73223 2.73223C6.26339 3.20107 6 3.83696 6 4.5V19.5C6 20.163 6.26339 20.7989 6.73223 21.2678C7.20107 21.7366 7.83696 22 8.5 22H15.5C16.163 22 16.7989 21.7366 17.2678 21.2678C17.7366 20.7989 18 20.163 18 19.5V4.5C18 3.83696 17.7366 3.20107 17.2678 2.73223C16.7989 2.26339 16.163 2 15.5 2ZM8.5 4H15.5C15.6326 4 15.7598 4.05268 15.8536 4.14645C15.9473 4.24021 16 4.36739 16 4.5V12H8V4.5C8 4.36739 8.05268 4.24021 8.14645 4.14645C8.24021 4.05268 8.36739 4 8.5 4ZM8 13.85H11.075V16.075H8V13.85ZM8 19.5V17.925H11.075V20H8.5C8.36739 20 8.24021 19.9473 8.14645 19.8536C8.05268 19.7598 8 19.6326 8 19.5ZM16 19.5C16 19.6326 15.9473 19.7598 15.8536 19.8536C15.7598 19.9473 15.6326 20 15.5 20H12.925V17.925H16V19.5ZM12.925 16.075V13.85H16V16.075H12.925Z" fill="black"/>
</svg>
