<svg width="24" height="24" viewBox="0 0 24 24" fill="none" xmlns="http://www.w3.org/2000/svg">
<path d="M18.9641 5H5.03588L0.571777 12L5.03588 19H18.9641L23.4282 12L18.9641 5ZM18.69 18.5H5.30998L1.16478 12L5.30998 5.5H18.69L22.8352 12L18.69 18.5ZM12 6.5875C11.5495 6.5875 11.1091 6.72109 10.7345 6.97139C10.3599 7.22168 10.068 7.57743 9.89555 7.99365C9.72316 8.40987 9.67805 8.86786 9.76595 9.30971C9.85385 9.75157 10.0708 10.1574 10.3894 10.476C10.7079 10.7945 11.1138 11.0115 11.5557 11.0993C11.9975 11.1872 12.4555 11.1421 12.8717 10.9697C13.2879 10.7973 13.6437 10.5053 13.8939 10.1307C14.1442 9.75611 14.2778 9.31571 14.2778 8.8652C14.2778 8.56608 14.2189 8.26988 14.1044 7.99352C13.9899 7.71717 13.8222 7.46607 13.6106 7.25456C13.3991 7.04305 13.148 6.87528 12.8717 6.76082C12.5953 6.64637 12.2991 6.58747 12 6.5875ZM12 10.643C11.6484 10.643 11.3046 10.5387 11.0123 10.3434C10.7199 10.148 10.4921 9.87038 10.3575 9.54553C10.2229 9.22068 10.1877 8.86323 10.2563 8.51837C10.3249 8.17351 10.4943 7.85674 10.7429 7.60811C10.9915 7.35948 11.3083 7.19016 11.6531 7.12156C11.998 7.05296 12.3555 7.08817 12.6803 7.22273C13.0052 7.35728 13.2828 7.58515 13.4782 7.87751C13.6735 8.16986 13.7778 8.51358 13.7778 8.8652C13.7772 9.33652 13.5897 9.78838 13.2564 10.1217C12.9232 10.4549 12.4713 10.6424 12 10.643ZM17.6445 10.5C17.3478 10.5 17.0578 10.588 16.8111 10.7528C16.5644 10.9176 16.3722 11.1519 16.2587 11.426C16.1451 11.7001 16.1154 12.0017 16.1733 12.2926C16.2312 12.5836 16.374 12.8509 16.5838 13.0607C16.7936 13.2704 17.0609 13.4133 17.3518 13.4712C17.6428 13.5291 17.9444 13.4994 18.2185 13.3858C18.4926 13.2723 18.7269 13.08 18.8917 12.8334C19.0565 12.5867 19.1445 12.2967 19.1445 12C19.1445 11.6022 18.9864 11.2206 18.7051 10.9393C18.4238 10.658 18.0423 10.5 17.6445 10.5ZM17.6445 13C17.4467 13 17.2534 12.9414 17.0889 12.8315C16.9245 12.7216 16.7963 12.5654 16.7206 12.3827C16.6449 12.2 16.6251 11.9989 16.6637 11.8049C16.7023 11.6109 16.7975 11.4327 16.9374 11.2929C17.0772 11.153 17.2554 11.0578 17.4494 11.0192C17.6434 10.9806 17.8444 11.0004 18.0272 11.0761C18.2099 11.1518 18.3661 11.28 18.4759 11.4444C18.5858 11.6089 18.6445 11.8022 18.6445 12C18.6442 12.2651 18.5387 12.5193 18.3513 12.7068C18.1638 12.8943 17.9096 12.9997 17.6445 13ZM12 13.9767C11.7033 13.9767 11.4133 14.0647 11.1666 14.2295C10.9199 14.3943 10.7277 14.6286 10.6142 14.9027C10.5006 15.1768 10.4709 15.4784 10.5288 15.7693C10.5867 16.0603 10.7295 16.3276 10.9393 16.5374C11.1491 16.7471 11.4164 16.89 11.7073 16.9479C11.9983 17.0058 12.2999 16.9761 12.574 16.8625C12.8481 16.749 13.0824 16.5567 13.2472 16.3101C13.412 16.0634 13.5 15.7734 13.5 15.4767C13.5 15.0789 13.3419 14.6973 13.0606 14.416C12.7793 14.1347 12.3978 13.9767 12 13.9767ZM12 16.4767C11.8022 16.4767 11.6089 16.4181 11.4444 16.3082C11.28 16.1983 11.1518 16.0421 11.0761 15.8594C11.0004 15.6767 10.9806 15.4756 11.0192 15.2816C11.0578 15.0876 11.153 14.9094 11.2929 14.7696C11.4327 14.6297 11.6109 14.5345 11.8049 14.4959C11.9989 14.4573 12.1999 14.4771 12.3827 14.5528C12.5654 14.6285 12.7216 14.7567 12.8314 14.9211C12.9413 15.0856 13 15.2789 13 15.4767C12.9997 15.7418 12.8942 15.996 12.7068 16.1835C12.5193 16.371 12.2651 16.4764 12 16.4767ZM6.35548 10.5C6.05881 10.5 5.7688 10.588 5.52212 10.7528C5.27545 10.9176 5.08319 11.1519 4.96966 11.426C4.85613 11.7001 4.82642 12.0017 4.8843 12.2926C4.94218 12.5836 5.08504 12.8509 5.29482 13.0607C5.5046 13.2704 5.77187 13.4133 6.06284 13.4712C6.35381 13.5291 6.65541 13.4994 6.9295 13.3858C7.20359 13.2723 7.43786 13.08 7.60268 12.8334C7.7675 12.5867 7.85548 12.2967 7.85548 12C7.85548 11.6022 7.69744 11.2206 7.41614 10.9393C7.13483 10.658 6.7533 10.5 6.35548 10.5ZM6.35548 13C6.1577 13 5.96436 12.9414 5.79991 12.8315C5.63546 12.7216 5.50729 12.5654 5.4316 12.3827C5.35591 12.2 5.33611 11.9989 5.37469 11.8049C5.41328 11.6109 5.50852 11.4327 5.64837 11.2929C5.78822 11.153 5.96641 11.0578 6.16039 11.0192C6.35437 10.9806 6.55544 11.0004 6.73816 11.0761C6.92089 11.1518 7.07707 11.28 7.18695 11.4444C7.29683 11.6089 7.35548 11.8022 7.35548 12C7.35519 12.2651 7.24974 12.5193 7.06226 12.7068C6.87479 12.8943 6.6206 12.9997 6.35548 13Z" fill="black"/>
</svg>
