<svg width="24" height="24" viewBox="0 0 24 24" fill="none" xmlns="http://www.w3.org/2000/svg">
<path d="M16 3H14C14 2.46957 13.7893 1.96086 13.4142 1.58579C13.0391 1.21071 12.5304 1 12 1C11.4696 1 10.9609 1.21071 10.5858 1.58579C10.2107 1.96086 10 2.46957 10 3H8C7.20435 3 6.44129 3.31607 5.87868 3.87868C5.31607 4.44129 5 5.20435 5 6V20C5 20.7956 5.31607 21.5587 5.87868 22.1213C6.44129 22.6839 7.20435 23 8 23H16C16.7956 23 17.5587 22.6839 18.1213 22.1213C18.6839 21.5587 19 20.7956 19 20V6C19 5.20435 18.6839 4.44129 18.1213 3.87868C17.5587 3.31607 16.7956 3 16 3ZM17 20C16.9997 20.2651 16.8943 20.5193 16.7068 20.7068C16.5193 20.8943 16.2651 20.9997 16 21H8C7.73487 20.9997 7.48069 20.8943 7.29321 20.7068C7.10574 20.5193 7.00029 20.2651 7 20V6C7.00029 5.73487 7.10574 5.48069 7.29321 5.29321C7.48069 5.10574 7.73487 5.00029 8 5H16C16.2651 5.00029 16.5193 5.10574 16.7068 5.29321C16.8943 5.48069 16.9997 5.73487 17 6V20ZM11.1172 14.75H12.6328L13.0938 8.25H10.6562L11.1172 14.75ZM11.875 16.1C11.6476 16.1 11.4252 16.1674 11.2361 16.2938C11.047 16.4202 10.8996 16.5998 10.8125 16.8099C10.7255 17.02 10.7027 17.2513 10.7471 17.4744C10.7915 17.6974 10.901 17.9023 11.0618 18.0632C11.2227 18.224 11.4276 18.3335 11.6506 18.3779C11.8737 18.4223 12.105 18.3995 12.3151 18.3125C12.5252 18.2254 12.7048 18.078 12.8312 17.8889C12.9576 17.6998 13.025 17.4774 13.025 17.25C13.025 16.945 12.9038 16.6525 12.6882 16.4368C12.4725 16.2212 12.18 16.1 11.875 16.1Z" fill="black"/>
</svg>
