<svg width="24" height="24" viewBox="0 0 24 24" fill="none" xmlns="http://www.w3.org/2000/svg">
<path d="M20 5.99997H4C3.20435 5.99997 2.44129 6.31604 1.87868 6.87865C1.31607 7.44126 1 8.20432 1 8.99997V19C1 19.7956 1.31607 20.5587 1.87868 21.1213C2.44129 21.6839 3.20435 22 4 22H20C20.7956 22 21.5587 21.6839 22.1213 21.1213C22.6839 20.5587 23 19.7956 23 19V8.99997C23 8.20432 22.6839 7.44126 22.1213 6.87865C21.5587 6.31604 20.7956 5.99997 20 5.99997ZM21 19C20.9997 19.2651 20.8943 19.5193 20.7068 19.7068C20.5193 19.8942 20.2651 19.9997 20 20H4C3.73487 19.9997 3.48069 19.8942 3.29321 19.7068C3.10574 19.5193 3.00029 19.2651 3 19V8.99997C3.00029 8.73485 3.10574 8.48066 3.29321 8.29319C3.48069 8.10572 3.73487 8.00027 4 7.99997H20C20.2651 8.00027 20.5193 8.10572 20.7068 8.29319C20.8943 8.48066 20.9997 8.73485 21 8.99997V19ZM8 18H16V16H8V18ZM13 13H11V15H13V13ZM13 9.99997H11V12H13V9.99997ZM10 13H8V15H10V13ZM10 9.99997H8V12H10V9.99997ZM5 15H7V13H5V15ZM5 18H7V16H5V18ZM17 18H19V16H17V18ZM5 12H7V9.99997H5V12ZM14 15H16V13H14V15ZM14 12H16V9.99997H14V12ZM17 15H19V13H17V15ZM17 12H19V9.99997H17V12ZM12 2.62107C12.6568 2.61924 13.3075 2.74771 13.9143 2.99906C14.5211 3.25041 15.0721 3.61964 15.5352 4.08537L16.9492 2.67237C16.2995 2.02208 15.5279 1.5062 14.6787 1.15423C13.8295 0.802256 12.9193 0.621094 12 0.621094C11.0807 0.621094 10.1705 0.802256 9.32127 1.15423C8.47206 1.5062 7.70054 2.02208 7.0508 2.67237L8.4648 4.08537C8.92795 3.61964 9.47888 3.25041 10.0857 2.99906C10.6925 2.74771 11.3432 2.61924 12 2.62107Z" fill="black"/>
</svg>
