<svg width="24" height="24" viewBox="0 0 24 24" fill="none" xmlns="http://www.w3.org/2000/svg">
<path d="M7.6124 8.5416H6.3876V10.3876H4.5417V11.6124H6.3876V13.4583H7.6124V11.6124H9.4583V10.3876H7.6124V8.5416ZM17 8.5C16.4216 8.50002 15.8611 8.70058 15.414 9.06751C14.9669 9.43445 14.6609 9.94506 14.5481 10.5123C14.4353 11.0796 14.5226 11.6685 14.7953 12.1785C15.068 12.6886 15.509 13.0884 16.0434 13.3097C16.5778 13.531 17.1724 13.5602 17.7258 13.3923C18.2793 13.2244 18.7574 12.8698 19.0788 12.3889C19.4001 11.908 19.5447 11.3305 19.488 10.7549C19.4313 10.1793 19.1768 9.64117 18.7678 9.2322C18.5359 8.99971 18.2603 8.81534 17.957 8.68968C17.6536 8.56403 17.3284 8.49957 17 8.5ZM17.8956 11.8957C17.6884 12.1028 17.4157 12.2317 17.1242 12.2604C16.8326 12.2891 16.54 12.2158 16.2964 12.053C16.0528 11.8902 15.8732 11.6479 15.7882 11.3675C15.7032 11.0871 15.718 10.7859 15.8301 10.5152C15.9423 10.2445 16.1448 10.0211 16.4032 9.88301C16.6617 9.7449 16.96 9.70067 17.2473 9.75784C17.5347 9.81502 17.7934 9.97006 17.9792 10.1966C18.1651 10.4231 18.2667 10.707 18.2667 11C18.2672 11.1664 18.2346 11.3313 18.1709 11.485C18.1072 11.6388 18.0136 11.7784 17.8956 11.8957ZM18 5H12.75V3.5836C12.7504 3.29638 12.8646 3.02102 13.0677 2.81789C13.2708 2.61477 13.5461 2.50045 13.8333 2.5H17V1H13.8333C13.1484 1.00085 12.4917 1.27333 12.0075 1.75767C11.5232 2.24202 11.2508 2.89867 11.25 3.5836V5H6C5.34339 5 4.69321 5.12933 4.08658 5.3806C3.47996 5.63188 2.92876 6.00017 2.46447 6.46447C1.52678 7.40215 1 8.67392 1 10V18.66C0.999549 19.4436 1.27478 20.2025 1.77749 20.8036C2.28021 21.4048 2.97837 21.8099 3.74973 21.9481C4.52109 22.0863 5.31648 21.9488 5.99664 21.5595C6.67679 21.1703 7.19835 20.5543 7.47 19.8192L8.4979 17H15.5021L16.53 19.8189C16.8016 20.5539 17.3232 21.17 18.0033 21.5592C18.6834 21.9484 19.4788 22.086 20.2501 21.9478C21.0215 21.8097 21.7196 21.4046 22.2224 20.8035C22.7251 20.2024 23.0004 19.4436 23 18.66V10C23 9.34339 22.8707 8.69321 22.6194 8.08658C22.3681 7.47996 21.9998 6.92876 21.5355 6.46447C21.0712 6.00017 20.52 5.63188 19.9134 5.3806C19.3068 5.12933 18.6566 5 18 5ZM21.5 18.66C21.5002 19.0937 21.3471 19.5136 21.0678 19.8454C20.7885 20.1772 20.4009 20.3996 19.9735 20.4734C19.5461 20.5471 19.1063 20.4674 18.732 20.2484C18.3576 20.0293 18.0727 19.685 17.9276 19.2763L16.9 16.4571L16.529 15.5H7.471L7.1 16.4571L6.0724 19.276C5.92729 19.6847 5.64241 20.029 5.26809 20.248C4.89376 20.4671 4.45407 20.5468 4.02667 20.4731C3.59928 20.3994 3.21167 20.177 2.93232 19.8453C2.65297 19.5135 2.49985 19.0937 2.5 18.66V10C2.50106 9.07207 2.87015 8.18244 3.5263 7.5263C4.18244 6.87015 5.07207 6.50106 6 6.5H18C18.9279 6.50106 19.8176 6.87015 20.4737 7.5263C21.1299 8.18244 21.4989 9.07207 21.5 10V18.66Z" fill="black"/>
</svg>
