<svg width="24" height="24" viewBox="0 0 24 24" fill="none" xmlns="http://www.w3.org/2000/svg">
<path d="M16 5.1414V3C16 2.46957 15.7893 1.96086 15.4142 1.58579C15.0391 1.21071 14.5304 1 14 1H10C9.46957 1 8.96086 1.21071 8.58579 1.58579C8.21071 1.96086 8 2.46957 8 3V5.1414C7.14297 5.36103 6.38322 5.85924 5.84018 6.5577C5.29713 7.25616 5.00159 8.11527 5 9V15C5.00161 15.8847 5.29716 16.7438 5.8402 17.4423C6.38324 18.1407 7.14298 18.639 8 18.8586V21C8 21.5304 8.21071 22.0391 8.58579 22.4142C8.96086 22.7893 9.46957 23 10 23H14C14.5304 23 15.0391 22.7893 15.4142 22.4142C15.7893 22.0391 16 21.5304 16 21V18.8586C16.857 18.639 17.6168 18.1407 18.1598 17.4423C18.7028 16.7438 18.9984 15.8847 19 15V9C18.9984 8.11527 18.7029 7.25616 18.1598 6.5577C17.6168 5.85924 16.857 5.36103 16 5.1414ZM10 2.85H14C14.0398 2.85 14.0779 2.8658 14.1061 2.89393C14.1342 2.92206 14.15 2.96022 14.15 3V5H9.85V3C9.85 2.96022 9.8658 2.92206 9.89393 2.89393C9.92206 2.8658 9.96022 2.85 10 2.85ZM14 21.15H10C9.96022 21.15 9.92206 21.1342 9.89393 21.1061C9.8658 21.0779 9.85 21.0398 9.85 21V19H14.15V21C14.15 21.0398 14.1342 21.0779 14.1061 21.1061C14.0779 21.1342 14.0398 21.15 14 21.15ZM17 15C16.9994 15.5302 16.7885 16.0386 16.4135 16.4135C16.0386 16.7885 15.5302 16.9994 15 17H9C8.46975 16.9994 7.9614 16.7885 7.58646 16.4135C7.21152 16.0386 7.00061 15.5302 7 15V9C7.00061 8.46975 7.21152 7.9614 7.58646 7.58646C7.9614 7.21152 8.46975 7.00061 9 7H15C15.5302 7.00061 16.0386 7.21152 16.4135 7.58646C16.7885 7.9614 16.9994 8.46975 17 9V15Z" fill="black"/>
</svg>
