<svg width="24" height="24" viewBox="0 0 24 24" fill="none" xmlns="http://www.w3.org/2000/svg">
<path d="M20.5 6.00001H3.5C2.83696 6.00001 2.20107 6.2634 1.73223 6.73224C1.26339 7.20109 1 7.83697 1 8.50001V19.5C1 20.1631 1.26339 20.7989 1.73223 21.2678C2.20107 21.7366 2.83696 22 3.5 22H20.5C21.163 22 21.7989 21.7366 22.2678 21.2678C22.7366 20.7989 23 20.1631 23 19.5V8.50001C23 7.83697 22.7366 7.20109 22.2678 6.73224C21.7989 6.2634 21.163 6.00001 20.5 6.00001ZM22.5 19.5C22.4994 20.0303 22.2885 20.5386 21.9135 20.9136C21.5386 21.2885 21.0302 21.4994 20.5 21.5H3.5C2.96975 21.4994 2.4614 21.2885 2.08646 20.9136C1.71152 20.5386 1.50061 20.0303 1.5 19.5V8.50001C1.50061 7.96977 1.71152 7.46141 2.08646 7.08647C2.4614 6.71153 2.96975 6.50062 3.5 6.50001H20.5C21.0302 6.50062 21.5386 6.71153 21.9135 7.08647C22.2885 7.46141 22.4994 7.96977 22.5 8.50001V19.5ZM4 11.5H7V9.00001H4V11.5ZM4.5 9.50001H6.5V11H4.5V9.50001ZM17 11.5H20V9.00001H17V11.5ZM17.5 9.50001H19.5V11H17.5V9.50001ZM11.3334 9.00001H8.3334V11.5H11.3334V9.00001ZM10.8334 11H8.8334V9.50001H10.8334V11ZM12.6667 11.5H15.6667V9.00001H12.6667V11.5ZM13.1667 9.50001H15.1667V11H13.1667V9.50001ZM4 19H7V16.5H4V19ZM4.5 17H6.5V18.5H4.5V17ZM17 19H20V16.5H17V19ZM17.5 17H19.5V18.5H17.5V17ZM8.3334 19H15.6667V16.5H8.3334V19ZM8.8334 17H15.1667V18.5H8.8334V17ZM4 15.25H7V12.75H4V15.25ZM4.5 13.25H6.5V14.75H4.5V13.25ZM17 15.25H20V12.75H17V15.25ZM17.5 13.25H19.5V14.75H17.5V13.25ZM11.3334 12.75H8.3334V15.25H11.3334V12.75ZM10.8334 14.75H8.8334V13.25H10.8334V14.75ZM12.6667 15.25H15.6667V12.75H12.6667V15.25ZM13.1667 13.25H15.1667V14.75H13.1667V13.25ZM12 1.87111C12.7554 1.8689 13.5037 2.01667 14.2016 2.30585C14.8994 2.59502 15.533 3.01985 16.0654 3.55571L16.4189 3.20211C15.8387 2.62163 15.1498 2.16114 14.3916 1.84697C13.6334 1.5328 12.8207 1.37109 12 1.37109C11.1793 1.37109 10.3666 1.5328 9.60838 1.84697C8.85017 2.16114 8.16129 2.62163 7.5811 3.20211L7.9346 3.55571C8.46704 3.01985 9.10055 2.59502 9.79842 2.30585C10.4963 2.01667 11.2446 1.8689 12 1.87111Z" fill="black"/>
</svg>
