<svg width="24" height="24" viewBox="0 0 24 24" fill="none" xmlns="http://www.w3.org/2000/svg">
<path d="M18 11V4C18 3.46957 17.7893 2.96086 17.4142 2.58579C17.0391 2.21071 16.5304 2 16 2H8C7.46957 2 6.96086 2.21071 6.58579 2.58579C6.21071 2.96086 6 3.46957 6 4V11C6.00074 11.2849 6.06273 11.5663 6.18179 11.8251C6.30084 12.0839 6.47416 12.3141 6.69 12.5C6.47416 12.6859 6.30084 12.9161 6.18179 13.1749C6.06273 13.4337 6.00074 13.7151 6 14V20C6 20.5304 6.21071 21.0391 6.58579 21.4142C6.96086 21.7893 7.46957 22 8 22H16C16.5304 22 17.0391 21.7893 17.4142 21.4142C17.7893 21.0391 18 20.5304 18 20V14C17.9993 13.7151 17.9373 13.4337 17.8182 13.1749C17.6992 12.9161 17.5258 12.6859 17.31 12.5C17.5258 12.3141 17.6992 12.0839 17.8182 11.8251C17.9373 11.5663 17.9993 11.2849 18 11ZM8 4H16V11H8V4ZM11.075 14V16.075H8V14H11.075ZM8 17.925H11.075V20H8V17.925ZM16 20H12.925V17.925H16V20ZM16 16.075H12.925V14H16V16.075Z" fill="black"/>
</svg>
