<svg width="24" height="24" viewBox="0 0 24 24" fill="none" xmlns="http://www.w3.org/2000/svg">
<path d="M19.6666 3H3.66663C3.13619 3 2.62749 3.21071 2.25241 3.58579C1.87734 3.96086 1.66663 4.46957 1.66663 5V14C1.66663 14.5304 1.87734 15.0391 2.25241 15.4142C2.62749 15.7893 3.13619 16 3.66663 16H19.6666C20.1971 16 20.7058 15.7893 21.0808 15.4142C21.4559 15.0391 21.6666 14.5304 21.6666 14V5C21.6666 4.46957 21.4559 3.96086 21.0808 3.58579C20.7058 3.21071 20.1971 3 19.6666 3ZM14.6666 18.507V17H8.66663V18.507C8.66662 18.6927 8.6149 18.8747 8.51726 19.0327C8.41963 19.1907 8.27993 19.3183 8.11383 19.4014L6.66663 20.125V21H16.6666V20.125L15.22 19.4014C15.0538 19.3184 14.914 19.1908 14.8163 19.0328C14.7186 18.8748 14.6668 18.6928 14.6667 18.507H14.6666Z" fill="black"/>
</svg>
