<svg width="24" height="24" viewBox="0 0 24 24" fill="none" xmlns="http://www.w3.org/2000/svg">
<path d="M18.3125 3H5.68746C4.23999 4.01264 3.05811 5.35947 2.2421 6.92624C1.42608 8.493 1 10.2335 1 12C1 13.7665 1.42608 15.507 2.2421 17.0738C3.05811 18.6405 4.23999 19.9874 5.68746 21H18.3125C19.76 19.9874 20.9419 18.6405 21.7579 17.0738C22.5739 15.507 23 13.7665 23 12C23 10.2335 22.5739 8.49298 21.7579 6.92622C20.9419 5.35945 19.76 4.01263 18.3125 3ZM8.99996 15H6.99996V9H8.99996V15ZM17 14H15V10H17V14Z" fill="black"/>
</svg>
