<svg width="24" height="24" viewBox="0 0 24 24" fill="none" xmlns="http://www.w3.org/2000/svg">
<path d="M4 14V8.3333C3.46957 8.3333 2.96086 8.54401 2.58579 8.91909C2.21071 9.29416 2 9.80287 2 10.3333V18C2 18.5304 2.21071 19.0391 2.58579 19.4142C2.96086 19.7893 3.46957 20 4 20H16C16.5304 20 17.0391 19.7893 17.4142 19.4142C17.7893 19.0391 18 18.5304 18 18H8C6.93945 17.999 5.92264 17.5772 5.17271 16.8273C4.42279 16.0774 4.00103 15.0605 4 14ZM20 4.3333H18.1133L16.7273 2H11.2727L9.8867 4.3333H8C7.46957 4.3333 6.96086 4.54401 6.58579 4.91909C6.21071 5.29416 6 5.80287 6 6.3333V14C6 14.5304 6.21071 15.0391 6.58579 15.4142C6.96086 15.7893 7.46957 16 8 16H20C20.5304 16 21.0391 15.7893 21.4142 15.4142C21.7893 15.0391 22 14.5304 22 14V6.3333C22 5.80287 21.7893 5.29416 21.4142 4.91909C21.0391 4.54401 20.5304 4.3333 20 4.3333ZM14 12.6562C13.4067 12.6562 12.8266 12.4803 12.3333 12.1506C11.8399 11.821 11.4554 11.3524 11.2284 10.8043C11.0013 10.2561 10.9419 9.65287 11.0576 9.07093C11.1734 8.48899 11.4591 7.95444 11.8787 7.53488C12.2982 7.11532 12.8328 6.8296 13.4147 6.71384C13.9967 6.59809 14.5999 6.6575 15.1481 6.88456C15.6962 7.11162 16.1648 7.49614 16.4944 7.98949C16.8241 8.48284 17 9.06286 17 9.6562C17 10.4518 16.6839 11.2149 16.1213 11.7775C15.5587 12.3401 14.7956 12.6562 14 12.6562Z" fill="black"/>
</svg>
