<svg width="24" height="24" viewBox="0 0 24 24" fill="none" xmlns="http://www.w3.org/2000/svg">
<path d="M15.5 2H8.5C7.83696 2 7.20107 2.26339 6.73223 2.73223C6.26339 3.20107 6 3.83696 6 4.5V19.5C6 20.163 6.26339 20.7989 6.73223 21.2678C7.20107 21.7366 7.83696 22 8.5 22H15.5C16.163 22 16.7989 21.7366 17.2678 21.2678C17.7366 20.7989 18 20.163 18 19.5V4.5C18 3.83696 17.7366 3.20107 17.2678 2.73223C16.7989 2.26339 16.163 2 15.5 2ZM17 19.5C16.9995 19.8977 16.8414 20.279 16.5602 20.5602C16.279 20.8414 15.8977 20.9995 15.5 21H8.5C8.10231 20.9995 7.72104 20.8414 7.43984 20.5602C7.15863 20.279 7.00045 19.8977 7 19.5V4.5C7.00045 4.10231 7.15863 3.72104 7.43984 3.43984C7.72104 3.15863 8.10231 3.00045 8.5 3H15.5C15.8977 3.00045 16.279 3.15863 16.5602 3.43984C16.8414 3.72104 16.9995 4.10231 17 4.5V19.5ZM10.38 5C10.2416 5 10.1062 5.04105 9.9911 5.11797C9.87599 5.19489 9.78627 5.30421 9.73328 5.43212C9.6803 5.56003 9.66644 5.70078 9.69345 5.83656C9.72046 5.97235 9.78713 6.09708 9.88503 6.19497C9.98292 6.29287 10.1077 6.35954 10.2434 6.38655C10.3792 6.41356 10.52 6.3997 10.6479 6.34672C10.7758 6.29373 10.8851 6.20401 10.962 6.0889C11.0389 5.97378 11.08 5.83845 11.08 5.7C11.08 5.51435 11.0063 5.3363 10.875 5.20503C10.7437 5.07375 10.5657 5 10.38 5ZM13.62 5C13.4816 5 13.3462 5.04105 13.2311 5.11797C13.116 5.19489 13.0263 5.30421 12.9733 5.43212C12.9203 5.56003 12.9064 5.70078 12.9335 5.83656C12.9605 5.97235 13.0271 6.09708 13.125 6.19497C13.2229 6.29287 13.3477 6.35954 13.4834 6.38655C13.6192 6.41356 13.76 6.3997 13.8879 6.34672C14.0158 6.29373 14.1251 6.20401 14.202 6.0889C14.2789 5.97378 14.32 5.83845 14.32 5.7C14.32 5.51435 14.2463 5.3363 14.115 5.20503C13.9837 5.07375 13.8057 5 13.62 5Z" fill="black"/>
</svg>
