<svg width="24" height="24" viewBox="0 0 24 24" fill="none" xmlns="http://www.w3.org/2000/svg">
<path d="M16 2H8C7.20435 2 6.44129 2.31607 5.87868 2.87868C5.31607 3.44129 5 4.20435 5 5V15C5 16.8565 5.7375 18.637 7.05025 19.9497C8.36301 21.2625 10.1435 22 12 22C13.8565 22 15.637 21.2625 16.9497 19.9497C18.2625 18.637 19 16.8565 19 15V5C19 4.20435 18.6839 3.44129 18.1213 2.87868C17.5587 2.31607 16.7956 2 16 2ZM6.5 5C6.50045 4.60231 6.65863 4.22104 6.93984 3.93984C7.22104 3.65863 7.60231 3.50045 8 3.5H11.25V8.5H6.5V5ZM17.5 15C17.5 16.4587 16.9205 17.8576 15.8891 18.8891C14.8576 19.9205 13.4587 20.5 12 20.5C10.5413 20.5 9.14236 19.9205 8.11091 18.8891C7.07946 17.8576 6.5 16.4587 6.5 15V10H17.5V15ZM12.75 8.5V3.5H16C16.3977 3.50045 16.779 3.65863 17.0602 3.93984C17.3414 4.22104 17.4995 4.60231 17.5 5V8.5H12.75Z" fill="black"/>
</svg>
