<svg width="24" height="24" viewBox="0 0 24 24" fill="none" xmlns="http://www.w3.org/2000/svg">
<path d="M19 6H17.1416L15.4092 3H8.5908L6.8584 6H5C4.20462 6.00087 3.44206 6.31722 2.87964 6.87964C2.31722 7.44206 2.00087 8.20462 2 9V18C2.00087 18.7954 2.31722 19.5579 2.87964 20.1204C3.44206 20.6828 4.20462 20.9991 5 21H19C19.7954 20.9991 20.5579 20.6828 21.1204 20.1204C21.6828 19.5579 21.9991 18.7954 22 18V9C21.9991 8.20462 21.6828 7.44206 21.1204 6.87964C20.5579 6.31722 19.7954 6.00087 19 6ZM10.7246 10.1665C10.7246 9.86139 10.8458 9.56879 11.0615 9.35304C11.2773 9.1373 11.5699 9.0161 11.875 9.0161C12.1801 9.0161 12.4727 9.1373 12.6885 9.35304C12.9042 9.56879 13.0254 9.86139 13.0254 10.1665V12.5C13.0254 12.8051 12.9042 13.0977 12.6885 13.3135C12.4727 13.5292 12.1801 13.6504 11.875 13.6504C11.5699 13.6504 11.2773 13.5292 11.0615 13.3135C10.8458 13.0977 10.7246 12.8051 10.7246 12.5V10.1665ZM12.4746 15.9697V17.5H11.2754V15.97C10.4367 15.8323 9.66946 15.4141 9.09924 14.7837C8.52901 14.1534 8.1895 13.3483 8.1362 12.5H9.3362C9.39122 13.1354 9.68252 13.7271 10.1526 14.1582C10.6226 14.5893 11.2372 14.8285 11.875 14.8285C12.5128 14.8285 13.1274 14.5893 13.5974 14.1582C14.0675 13.7271 14.3588 13.1354 14.4138 12.5H15.6138C15.5605 13.3483 15.221 14.1534 14.6508 14.7837C14.0805 15.4141 13.3133 15.8323 12.4746 15.97V15.9697Z" fill="black"/>
</svg>
