<svg width="24" height="24" viewBox="0 0 24 24" fill="none" xmlns="http://www.w3.org/2000/svg">
<path d="M19 7H18V3H6V7H5C4.20435 7 3.44129 7.31607 2.87868 7.87868C2.31607 8.44129 2 9.20435 2 10V19H6V21H18V19H22V10C22 9.20435 21.6839 8.44129 21.1213 7.87868C20.5587 7.31607 19.7956 7 19 7ZM8 5H16V7H8V5ZM16 19H8V17H16V19ZM20 17H18V15H6V17H4V10C4.00029 9.73487 4.10574 9.48069 4.29321 9.29321C4.48069 9.10574 4.73487 9.00029 5 9H19C19.2651 9.00029 19.5193 9.10574 19.7068 9.29321C19.8943 9.48069 19.9997 9.73487 20 10V17ZM7 10.75C6.75277 10.75 6.5111 10.8233 6.30554 10.9607C6.09998 11.098 5.93976 11.2932 5.84515 11.5216C5.75054 11.7501 5.72579 12.0014 5.77402 12.2439C5.82225 12.4863 5.9413 12.7091 6.11612 12.8839C6.29093 13.0587 6.51366 13.1778 6.75614 13.226C6.99861 13.2742 7.24995 13.2495 7.47835 13.1548C7.70676 13.0602 7.90199 12.9 8.03934 12.6945C8.17669 12.4889 8.25 12.2472 8.25 12C8.25 11.6685 8.1183 11.3505 7.88388 11.1161C7.64946 10.8817 7.33152 10.75 7 10.75Z" fill="black"/>
</svg>
