<svg width="24" height="24" viewBox="0 0 24 24" fill="none" xmlns="http://www.w3.org/2000/svg">
<path d="M12 2C10.6868 2 9.38642 2.25866 8.17317 2.7612C6.95991 3.26375 5.85752 4.00035 4.92893 4.92893C3.05357 6.8043 2 9.34784 2 12V16C2 16.7956 2.31607 17.5587 2.87868 18.1213C3.44129 18.6839 4.20435 19 5 19H7V11H5C4.48354 11.0031 3.97684 11.141 3.53 11.4C3.67895 9.2553 4.63599 7.24696 6.20795 5.78038C7.77992 4.3138 9.84973 3.4982 11.9996 3.4982C14.1495 3.4982 16.2193 4.3138 17.7912 5.78038C19.3632 7.24696 20.3203 9.2553 20.4692 11.4C20.0226 11.1411 19.5162 11.0033 19 11H17V19H19C19.5281 18.9971 20.0459 18.8535 20.5 18.5839V19C20.5 19.3283 20.4353 19.6534 20.3097 19.9567C20.1841 20.26 19.9999 20.5356 19.7678 20.7678C19.5356 20.9999 19.26 21.1841 18.9567 21.3097C18.6534 21.4353 18.3283 21.5 18 21.5H12V23H18C19.0609 23 20.0783 22.5786 20.8284 21.8284C21.5786 21.0783 22 20.0609 22 19V12C22 10.6868 21.7413 9.38642 21.2388 8.17317C20.7362 6.95991 19.9997 5.85752 19.0711 4.92893C18.1425 4.00035 17.0401 3.26375 15.8268 2.7612C14.6136 2.25866 13.3132 2 12 2Z" fill="black"/>
</svg>
