<svg width="24" height="24" viewBox="0 0 24 24" fill="none" xmlns="http://www.w3.org/2000/svg">
<path d="M20.5 4H3.5C2.83696 4 2.20107 4.26339 1.73223 4.73223C1.26339 5.20107 1 5.83696 1 6.5V17.5C1 18.163 1.26339 18.7989 1.73223 19.2678C2.20107 19.7366 2.83696 20 3.5 20H20.5C21.163 20 21.7989 19.7366 22.2678 19.2678C22.7366 18.7989 23 18.163 23 17.5V6.5C23 5.83696 22.7366 5.20107 22.2678 4.73223C21.7989 4.26339 21.163 4 20.5 4ZM22 17.5C21.9995 17.8977 21.8414 18.279 21.5602 18.5602C21.279 18.8414 20.8977 18.9995 20.5 19H3.5C3.10231 18.9995 2.72104 18.8414 2.43984 18.5602C2.15863 18.279 2.00045 17.8977 2 17.5V6.5C2.00045 6.10231 2.15863 5.72104 2.43984 5.43984C2.72104 5.15863 3.10231 5.00045 3.5 5H20.5C20.8977 5.00045 21.279 5.15863 21.5602 5.43984C21.8414 5.72104 21.9995 6.10231 22 6.5V17.5ZM4 9.5H7V7H4V9.5ZM4.86 7.86H6.14V8.64H4.86V7.86ZM17 9.5H20V7H17V9.5ZM17.86 7.86H19.14V8.64H17.86V7.86ZM11.3334 7H8.3334V9.5H11.3334V7ZM10.4734 8.64H9.1934V7.86H10.4734V8.64ZM12.6667 9.5H15.6667V7H12.6667V9.5ZM13.5267 7.86H14.8067V8.64H13.5267V7.86ZM4 17H7V14.5H4V17ZM4.86 15.36H6.14V16.14H4.86V15.36ZM17 17H20V14.5H17V17ZM17.86 15.36H19.14V16.14H17.86V15.36ZM8.3334 17H15.6667V14.5H8.3334V17ZM9.1934 15.36H14.8067V16.14H9.1934V15.36ZM4 13.25H7V10.75H4V13.25ZM4.86 11.61H6.14V12.39H4.86V11.61ZM17 13.25H20V10.75H17V13.25ZM17.86 11.61H19.14V12.39H17.86V11.61ZM11.3334 10.75H8.3334V13.25H11.3334V10.75ZM10.4734 12.39H9.1934V11.61H10.4734V12.39ZM12.6667 13.25H15.6667V10.75H12.6667V13.25ZM13.5267 11.61H14.8067V12.39H13.5267V11.61Z" fill="black"/>
</svg>
