<svg width="24" height="24" viewBox="0 0 24 24" fill="none" xmlns="http://www.w3.org/2000/svg">
<path d="M18.3125 3H5.68746C4.23999 4.01264 3.05811 5.35947 2.2421 6.92624C1.42608 8.493 1 10.2335 1 12C1 13.7665 1.42608 15.507 2.2421 17.0738C3.05811 18.6405 4.23999 19.9874 5.68746 21H18.3125C19.76 19.9874 20.9419 18.6405 21.7579 17.0738C22.5739 15.507 23 13.7665 23 12C23 10.2335 22.5739 8.49298 21.7579 6.92622C20.9419 5.35945 19.76 4.01263 18.3125 3ZM17.645 19H6.35496C5.30774 18.1585 4.46267 17.0927 3.88202 15.8812C3.30137 14.6698 2.99994 13.3434 2.99994 12C2.99994 10.6566 3.30137 9.33024 3.88202 8.11876C4.46267 6.90728 5.30774 5.84152 6.35496 5H17.645C18.6922 5.84152 19.5373 6.90728 20.1179 8.11876C20.6986 9.33024 21 10.6566 21 12C21 13.3434 20.6986 14.6698 20.1179 15.8812C19.5373 17.0927 18.6922 18.1585 17.645 19ZM15 12H17V8.5H15V12ZM6.99996 12.75H8.99996V7.75H6.99996V12.75ZM12 15C11.4695 15 10.9608 15.2107 10.5857 15.5858C10.2107 15.9609 9.99996 16.4696 9.99996 17H14C14 16.4696 13.7892 15.9609 13.4142 15.5858C13.0391 15.2107 12.5304 15 12 15Z" fill="black"/>
</svg>
