<svg width="24" height="24" viewBox="0 0 24 24" fill="none" xmlns="http://www.w3.org/2000/svg">
<path d="M9 3.1001C9 2.96749 8.94732 2.84031 8.85355 2.74654C8.75979 2.65278 8.63261 2.6001 8.5 2.6001H5.5C5.36739 2.6001 5.24021 2.65278 5.14645 2.74654C5.05268 2.84031 5 2.96749 5 3.1001V4.0001H9V3.1001ZM2 7.5001V16.5001C2 17.1631 2.26339 17.799 2.73223 18.2679C3.20107 18.7367 3.83696 19.0001 4.5 19.0001H7.5V5.0001H4.5C3.83696 5.0001 3.20107 5.26349 2.73223 5.73233C2.26339 6.20117 2 6.83706 2 7.5001ZM19.5 5.0001H9V19.0001H19.5C20.163 19.0001 20.7989 18.7367 21.2678 18.2679C21.7366 17.799 22 17.1631 22 16.5001V7.5001C22 6.83706 21.7366 6.20117 21.2678 5.73233C20.7989 5.26349 20.163 5.0001 19.5 5.0001ZM15.5 16.0001C14.7089 16.0001 13.9355 15.7655 13.2777 15.326C12.6199 14.8864 12.1072 14.2617 11.8045 13.5308C11.5017 12.7999 11.4225 11.9957 11.5769 11.2197C11.7312 10.4438 12.1122 9.73108 12.6716 9.17167C13.231 8.61226 13.9437 8.2313 14.7196 8.07696C15.4956 7.92262 16.2998 8.00183 17.0307 8.30458C17.7616 8.60733 18.3864 9.12002 18.8259 9.77782C19.2654 10.4356 19.5 11.209 19.5 12.0001C19.499 13.0606 19.0772 14.0775 18.3273 14.8274C17.5774 15.5773 16.5605 15.9991 15.5 16.0001Z" fill="black"/>
</svg>
