<svg width="24" height="24" viewBox="0 0 24 24" fill="none" xmlns="http://www.w3.org/2000/svg">
<path d="M14 1H10C9.46957 1 8.96086 1.21071 8.58579 1.58579C8.21071 1.96086 8 2.46957 8 3V21C8 21.5304 8.21071 22.0391 8.58579 22.4142C8.96086 22.7893 9.46957 23 10 23H14C14.5304 23 15.0391 22.7893 15.4142 22.4142C15.7893 22.0391 16 21.5304 16 21V3C16 2.46957 15.7893 1.96086 15.4142 1.58579C15.0391 1.21071 14.5304 1 14 1ZM8.5 9C8.5 8.07174 8.86875 7.1815 9.52513 6.52513C10.1815 5.86875 11.0717 5.5 12 5.5C12.9283 5.5 13.8185 5.86875 14.4749 6.52513C15.1313 7.1815 15.5 8.07174 15.5 9V15C15.5 15.9283 15.1313 16.8185 14.4749 17.4749C13.8185 18.1313 12.9283 18.5 12 18.5C11.0717 18.5 10.1815 18.1313 9.52513 17.4749C8.86875 16.8185 8.5 15.9283 8.5 15V9ZM15.5 21C15.4995 21.3977 15.3414 21.779 15.0602 22.0602C14.779 22.3414 14.3977 22.4995 14 22.5H10C9.60231 22.4995 9.22104 22.3414 8.93984 22.0602C8.65863 21.779 8.50045 21.3977 8.5 21V16.899C8.83812 17.5336 9.34241 18.0643 9.95892 18.4344C10.5754 18.8045 11.2809 19 12 19C12.7191 19 13.4246 18.8045 14.0411 18.4344C14.6576 18.0643 15.1619 17.5336 15.5 16.899V21ZM12 5C11.2813 5.00185 10.5765 5.19812 9.96037 5.56801C9.34419 5.93789 8.83957 6.46761 8.5 7.101V3C8.50045 2.60231 8.65863 2.22104 8.93984 1.93984C9.22104 1.65863 9.60231 1.50045 10 1.5H14C14.3977 1.50045 14.779 1.65863 15.0602 1.93984C15.3414 2.22104 15.4995 2.60231 15.5 3V7.1009C15.1604 6.46753 14.6558 5.93783 14.0396 5.56797C13.4234 5.1981 12.7187 5.00184 12 5Z" fill="black"/>
</svg>
