<svg width="24" height="24" viewBox="0 0 24 24" fill="none" xmlns="http://www.w3.org/2000/svg">
<path d="M19 6H17.1416L15.4092 3H8.5908L6.8584 6H5C4.20462 6.00087 3.44206 6.31722 2.87964 6.87964C2.31722 7.44206 2.00087 8.20462 2 9V18C2.00087 18.7954 2.31722 19.5579 2.87964 20.1204C3.44206 20.6828 4.20462 20.9991 5 21H19C19.7954 20.9991 20.5579 20.6828 21.1204 20.1204C21.6828 19.5579 21.9991 18.7954 22 18V9C21.9991 8.20462 21.6828 7.44206 21.1204 6.87964C20.5579 6.31722 19.7954 6.00087 19 6ZM21 18C20.9994 18.5302 20.7885 19.0386 20.4135 19.4135C20.0386 19.7885 19.5302 19.9994 19 20H5C4.46975 19.9994 3.9614 19.7885 3.58646 19.4135C3.21152 19.0386 3.00061 18.5302 3 18V9C3.00061 8.46975 3.21152 7.9614 3.58646 7.58646C3.9614 7.21152 4.46975 7.00061 5 7H7.4357L7.7244 6.5L9.1681 4H14.8319L16.2756 6.5L16.5643 7H19C19.5302 7.00061 20.0386 7.21152 20.4135 7.58646C20.7885 7.9614 20.9994 8.46975 21 9V18ZM11.875 14.0994C12.2524 14.0994 12.6143 13.9495 12.8812 13.6826C13.148 13.4158 13.298 13.0539 13.298 12.6765V10.44C13.2949 10.0647 13.1435 9.7058 12.877 9.44151C12.6105 9.17722 12.2504 9.02893 11.875 9.02893C11.4997 9.02893 11.1396 9.17722 10.8731 9.44151C10.6066 9.7058 10.4552 10.0647 10.4521 10.44V12.677C10.4522 13.0543 10.6022 13.4161 10.869 13.6828C11.1359 13.9496 11.4977 14.0994 11.875 14.0994ZM11.3521 10.4394C11.3521 10.3007 11.4072 10.1677 11.5053 10.0697C11.6033 9.97159 11.7363 9.9165 11.875 9.9165C12.0137 9.9165 12.1467 9.97159 12.2447 10.0697C12.3428 10.1677 12.3979 10.3007 12.3979 10.4394V12.6764C12.3979 12.8151 12.3428 12.9481 12.2447 13.0461C12.1467 13.1442 12.0137 13.1993 11.875 13.1993C11.7363 13.1993 11.6033 13.1442 11.5053 13.0461C11.4072 12.9481 11.3521 12.8151 11.3521 12.6764V10.4394ZM11.875 15.2394C11.1954 15.2394 10.5436 14.9694 10.063 14.4889C9.58248 14.0083 9.3125 13.3565 9.3125 12.6769H8.4125C8.41502 13.5148 8.72188 14.3233 9.27599 14.9519C9.8301 15.5805 10.5937 15.9863 11.4247 16.0939V17.5H12.3247V16.0938C13.1557 15.9862 13.9193 15.5804 14.4734 14.9518C15.0276 14.3232 15.3345 13.5147 15.337 12.6768H14.437C14.437 13.3563 14.1671 14.008 13.6866 14.4886C13.2062 14.9691 12.5545 15.2392 11.875 15.2393V15.2394Z" fill="black"/>
</svg>
