<svg width="24" height="24" viewBox="0 0 24 24" fill="none" xmlns="http://www.w3.org/2000/svg">
<path d="M16 17.125C16.1978 17.125 16.3911 17.0664 16.5556 16.9565C16.72 16.8466 16.8482 16.6904 16.9239 16.5077C16.9996 16.325 17.0194 16.1239 16.9808 15.9299C16.9422 15.7359 16.847 15.5577 16.7071 15.4179C16.5673 15.278 16.3891 15.1828 16.1951 15.1442C16.0011 15.1056 15.8 15.1254 15.6173 15.2011C15.4346 15.2768 15.2784 15.405 15.1685 15.5694C15.0586 15.7339 15 15.9272 15 16.125C15 16.3902 15.1054 16.6446 15.2929 16.8321C15.4804 17.0196 15.7348 17.125 16 17.125ZM3 3V21H21V3H3ZM19.5 19.5H4.5V12.75H19.5V19.5ZM19.5 11.25H4.5V4.5H19.5V11.25ZM16 8.875C16.1978 8.875 16.3911 8.81635 16.5556 8.70647C16.72 8.59659 16.8482 8.44041 16.9239 8.25768C16.9996 8.07496 17.0194 7.87389 16.9808 7.67991C16.9422 7.48593 16.847 7.30775 16.7071 7.16789C16.5673 7.02804 16.3891 6.9328 16.1951 6.89421C16.0011 6.85563 15.8 6.87543 15.6173 6.95112C15.4346 7.02681 15.2784 7.15498 15.1685 7.31943C15.0586 7.48388 15 7.67722 15 7.875C15 8.14022 15.1054 8.39457 15.2929 8.58211C15.4804 8.76964 15.7348 8.875 16 8.875ZM12 17.125C12.1978 17.125 12.3911 17.0664 12.5556 16.9565C12.72 16.8466 12.8482 16.6904 12.9239 16.5077C12.9996 16.325 13.0194 16.1239 12.9808 15.9299C12.9422 15.7359 12.847 15.5577 12.7071 15.4179C12.5673 15.278 12.3891 15.1828 12.1951 15.1442C12.0011 15.1056 11.8 15.1254 11.6173 15.2011C11.4346 15.2768 11.2784 15.405 11.1685 15.5694C11.0586 15.7339 11 15.9272 11 16.125C11 16.3902 11.1054 16.6446 11.2929 16.8321C11.4804 17.0196 11.7348 17.125 12 17.125ZM12 8.875C12.1978 8.875 12.3911 8.81635 12.5556 8.70647C12.72 8.59659 12.8482 8.44041 12.9239 8.25768C12.9996 8.07496 13.0194 7.87389 12.9808 7.67991C12.9422 7.48593 12.847 7.30775 12.7071 7.16789C12.5673 7.02804 12.3891 6.9328 12.1951 6.89421C12.0011 6.85563 11.8 6.87543 11.6173 6.95112C11.4346 7.02681 11.2784 7.15498 11.1685 7.31943C11.0586 7.48388 11 7.67722 11 7.875C11 8.14022 11.1054 8.39457 11.2929 8.58211C11.4804 8.76964 11.7348 8.875 12 8.875Z" fill="black"/>
</svg>
