<svg width="24" height="24" viewBox="0 0 24 24" fill="none" xmlns="http://www.w3.org/2000/svg">
<path d="M20 5H13V4C13.0002 3.73486 13.1057 3.48064 13.2932 3.29316C13.4806 3.10567 13.7349 3.00024 14 3H16V1H14C13.2046 1.00087 12.4421 1.31722 11.8796 1.87964C11.3172 2.44206 11.0009 3.20462 11 4V5H4C3.20435 5 2.44129 5.31607 1.87868 5.87868C1.31607 6.44129 1 7.20435 1 8V18C1 18.7956 1.31607 19.5587 1.87868 20.1213C2.44129 20.6839 3.20435 21 4 21H20C20.7956 21 21.5587 20.6839 22.1213 20.1213C22.6839 19.5587 23 18.7956 23 18V8C23 7.20435 22.6839 6.44129 22.1213 5.87868C21.5587 5.31607 20.7956 5 20 5ZM21 18C20.9997 18.2651 20.8943 18.5193 20.7068 18.7068C20.5193 18.8943 20.2651 18.9997 20 19H4C3.73487 18.9997 3.48069 18.8943 3.29321 18.7068C3.10574 18.5193 3.00029 18.2651 3 18V8C3.00029 7.73487 3.10574 7.48069 3.29321 7.29321C3.48069 7.10574 3.73487 7.00029 4 7H20C20.2651 7.00029 20.5193 7.10574 20.7068 7.29321C20.8943 7.48069 20.9997 7.73487 21 8V18ZM8 17H16V15H8V17ZM13 12H11V14H13V12ZM13 9H11V11H13V9ZM10 12H8V14H10V12ZM10 9H8V11H10V9ZM5 14H7V12H5V14ZM5 17H7V15H5V17ZM17 17H19V15H17V17ZM5 11H7V9H5V11ZM14 14H16V12H14V14ZM14 11H16V9H14V11ZM17 14H19V12H17V14ZM17 11H19V9H17V11Z" fill="black"/>
</svg>
