<svg width="24" height="24" viewBox="0 0 24 24" fill="none" xmlns="http://www.w3.org/2000/svg">
<path d="M15.5 2H8.5C7.83696 2 7.20107 2.26339 6.73223 2.73223C6.26339 3.20107 6 3.83696 6 4.5V19.5C6 20.163 6.26339 20.7989 6.73223 21.2678C7.20107 21.7366 7.83696 22 8.5 22H15.5C16.163 22 16.7989 21.7366 17.2678 21.2678C17.7366 20.7989 18 20.163 18 19.5V4.5C18 3.83696 17.7366 3.20107 17.2678 2.73223C16.7989 2.26339 16.163 2 15.5 2ZM12 4.8C11.9209 4.8 11.8436 4.77654 11.7778 4.73259C11.712 4.68864 11.6607 4.62616 11.6304 4.55307C11.6002 4.47998 11.5923 4.39956 11.6077 4.32196C11.6231 4.24437 11.6612 4.1731 11.7172 4.11716C11.7731 4.06122 11.8444 4.02312 11.922 4.00769C11.9996 3.99225 12.08 4.00017 12.1531 4.03045C12.2262 4.06072 12.2886 4.11199 12.3326 4.17777C12.3765 4.24355 12.4 4.32089 12.4 4.4C12.4 4.45253 12.3897 4.50454 12.3696 4.55307C12.3494 4.6016 12.32 4.6457 12.2828 4.68284C12.2457 4.71999 12.2016 4.74945 12.1531 4.76955C12.1045 4.78965 12.0525 4.8 12 4.8Z" fill="black"/>
</svg>
