<svg width="24" height="24" viewBox="0 0 24 24" fill="none" xmlns="http://www.w3.org/2000/svg">
<path d="M16 17.15C16.2274 17.15 16.4498 17.0826 16.6389 16.9562C16.828 16.8298 16.9754 16.6502 17.0625 16.4401C17.1495 16.23 17.1723 15.9987 17.1279 15.7756C17.0835 15.5526 16.974 15.3477 16.8132 15.1868C16.6523 15.026 16.4474 14.9165 16.2244 14.8721C16.0013 14.8277 15.77 14.8505 15.5599 14.9375C15.3498 15.0246 15.1702 15.172 15.0438 15.3611C14.9174 15.5502 14.85 15.7726 14.85 16C14.85 16.305 14.9712 16.5975 15.1868 16.8132C15.4025 17.0288 15.695 17.15 16 17.15ZM3 3V21H21V3H3ZM19 19H5V13H19V19ZM19 11H5V5H19V11ZM16 9.15C16.2274 9.15 16.4498 9.08255 16.6389 8.95619C16.828 8.82983 16.9754 8.65022 17.0625 8.44009C17.1495 8.22995 17.1723 7.99872 17.1279 7.77565C17.0835 7.55257 16.974 7.34766 16.8132 7.18683C16.6523 7.026 16.4474 6.91647 16.2244 6.8721C16.0013 6.82772 15.77 6.8505 15.5599 6.93754C15.3498 7.02458 15.1702 7.17198 15.0438 7.36109C14.9174 7.55021 14.85 7.77255 14.85 8C14.85 8.305 14.9712 8.59751 15.1868 8.81317C15.4025 9.02884 15.695 9.15 16 9.15ZM12 17.15C12.2274 17.15 12.4498 17.0826 12.6389 16.9562C12.828 16.8298 12.9754 16.6502 13.0625 16.4401C13.1495 16.23 13.1723 15.9987 13.1279 15.7756C13.0835 15.5526 12.974 15.3477 12.8132 15.1868C12.6523 15.026 12.4474 14.9165 12.2244 14.8721C12.0013 14.8277 11.77 14.8505 11.5599 14.9375C11.3498 15.0246 11.1702 15.172 11.0438 15.3611C10.9174 15.5502 10.85 15.7726 10.85 16C10.85 16.305 10.9712 16.5975 11.1868 16.8132C11.4025 17.0288 11.695 17.15 12 17.15ZM12 9.15C12.2274 9.15 12.4498 9.08255 12.6389 8.95619C12.828 8.82983 12.9754 8.65022 13.0625 8.44009C13.1495 8.22995 13.1723 7.99872 13.1279 7.77565C13.0835 7.55257 12.974 7.34766 12.8132 7.18683C12.6523 7.026 12.4474 6.91647 12.2244 6.8721C12.0013 6.82772 11.77 6.8505 11.5599 6.93754C11.3498 7.02458 11.1702 7.17198 11.0438 7.36109C10.9174 7.55021 10.85 7.77255 10.85 8C10.85 8.305 10.9712 8.59751 11.1868 8.81317C11.4025 9.02884 11.695 9.15 12 9.15Z" fill="black"/>
</svg>
