<svg width="24" height="24" viewBox="0 0 24 24" fill="none" xmlns="http://www.w3.org/2000/svg">
<path d="M7.3412 9.99991L21.4779 5.03881L20.7939 3.15991L2 9.99991V16.9999C2 17.5303 2.21071 18.0391 2.58579 18.4141C2.96086 18.7892 3.46957 18.9999 4 18.9999H20C20.5304 18.9999 21.0391 18.7892 21.4142 18.4141C21.7893 18.0391 22 17.5303 22 16.9999V9.99991H7.3412ZM7 15.7499C6.75277 15.7499 6.5111 15.6766 6.30554 15.5392C6.09998 15.4019 5.93976 15.2067 5.84515 14.9783C5.75054 14.7499 5.72579 14.4985 5.77402 14.256C5.82225 14.0136 5.9413 13.7908 6.11612 13.616C6.29093 13.4412 6.51366 13.3222 6.75614 13.2739C6.99861 13.2257 7.24995 13.2505 7.47835 13.3451C7.70676 13.4397 7.90199 13.5999 8.03934 13.8054C8.17669 14.011 8.25 14.2527 8.25 14.4999C8.25 14.8314 8.1183 15.1494 7.88388 15.3838C7.64946 15.6182 7.33152 15.7499 7 15.7499Z" fill="black"/>
</svg>
