<svg width="24" height="24" viewBox="0 0 24 24" fill="none" xmlns="http://www.w3.org/2000/svg">
<path d="M22 10C22 9.20435 21.6839 8.44129 21.1213 7.87868C20.5587 7.31607 19.7956 7 19 7H18V3H6V7H5C4.20435 7 3.44129 7.31607 2.87868 7.87868C2.31607 8.44129 2 9.20435 2 10V19H6V21H18V19H22V10ZM6.5 3.5H17.5V7H6.5V3.5ZM5.25 11.25C5.15111 11.25 5.05444 11.2207 4.97221 11.1657C4.88999 11.1108 4.8259 11.0327 4.78806 10.9413C4.75022 10.85 4.74031 10.7494 4.75961 10.6525C4.7789 10.5555 4.82652 10.4664 4.89645 10.3964C4.96637 10.3265 5.05546 10.2789 5.15245 10.2596C5.24945 10.2403 5.34998 10.2502 5.44134 10.2881C5.5327 10.3259 5.61079 10.39 5.66573 10.4722C5.72068 10.5544 5.75 10.6511 5.75 10.75C5.75 10.8826 5.69732 11.0098 5.60355 11.1036C5.50979 11.1973 5.38261 11.25 5.25 11.25ZM17.5 20.5H6.5V14.5H17.5V20.5Z" fill="black"/>
</svg>
