<svg width="24" height="24" viewBox="0 0 24 24" fill="none" xmlns="http://www.w3.org/2000/svg">
<path d="M14 1H10C9.46957 1 8.96086 1.21071 8.58579 1.58579C8.21071 1.96086 8 2.46957 8 3V6.0308C8.45999 5.40151 9.06196 4.88963 9.757 4.53676C10.452 4.18389 11.2205 3.99998 12 3.99998C12.7795 3.99998 13.548 4.18389 14.243 4.53676C14.938 4.88963 15.54 5.40151 16 6.0308V3C16 2.46957 15.7893 1.96086 15.4142 1.58579C15.0391 1.21071 14.5304 1 14 1ZM12 20C11.2209 19.9979 10.4531 19.8131 9.75844 19.4604C9.06374 19.1077 8.46146 18.5969 8 17.9692V21C8 21.5304 8.21071 22.0391 8.58579 22.4142C8.96086 22.7893 9.46957 23 10 23H14C14.5304 23 15.0391 22.7893 15.4142 22.4142C15.7893 22.0391 16 21.5304 16 21V17.9692C15.5385 18.5969 14.9363 19.1077 14.2416 19.4604C13.5469 19.8131 12.7791 19.9979 12 20ZM12 5C10.9391 5 9.92172 5.42143 9.17157 6.17157C8.42143 6.92172 8 7.93913 8 9V15C8 16.0609 8.42143 17.0783 9.17157 17.8284C9.92172 18.5786 10.9391 19 12 19C13.0609 19 14.0783 18.5786 14.8284 17.8284C15.5786 17.0783 16 16.0609 16 15V9C16 7.93913 15.5786 6.92172 14.8284 6.17157C14.0783 5.42143 13.0609 5 12 5Z" fill="black"/>
</svg>
