<svg width="24" height="24" viewBox="0 0 24 24" fill="none" xmlns="http://www.w3.org/2000/svg">
<path d="M12 13.15C12.2274 13.15 12.4498 13.0826 12.6389 12.9562C12.828 12.8298 12.9754 12.6502 13.0625 12.4401C13.1495 12.23 13.1723 11.9987 13.1279 11.7756C13.0835 11.5526 12.974 11.3477 12.8132 11.1868C12.6523 11.026 12.4474 10.9165 12.2244 10.8721C12.0013 10.8277 11.77 10.8505 11.5599 10.9375C11.3498 11.0246 11.1702 11.172 11.0438 11.3611C10.9174 11.5502 10.85 11.7726 10.85 12C10.85 12.305 10.9712 12.5975 11.1868 12.8132C11.4025 13.0288 11.695 13.15 12 13.15ZM17.125 13.15C17.3524 13.15 17.5748 13.0826 17.7639 12.9562C17.953 12.8298 18.1004 12.6502 18.1875 12.4401C18.2745 12.23 18.2973 11.9987 18.2529 11.7756C18.2085 11.5526 18.099 11.3477 17.9382 11.1868C17.7773 11.026 17.5724 10.9165 17.3494 10.8721C17.1263 10.8277 16.895 10.8505 16.6849 10.9375C16.4748 11.0246 16.2952 11.172 16.1688 11.3611C16.0424 11.5502 15.975 11.7726 15.975 12C15.975 12.305 16.0962 12.5975 16.3118 12.8132C16.5275 13.0288 16.82 13.15 17.125 13.15ZM6.875 13.15C7.10245 13.15 7.3248 13.0826 7.51393 12.9562C7.70306 12.8299 7.85048 12.6503 7.93753 12.4402C8.02459 12.23 8.04738 11.9988 8.00302 11.7757C7.95865 11.5526 7.84913 11.3477 7.68831 11.1869C7.52748 11.026 7.32257 10.9165 7.09949 10.8721C6.87641 10.8277 6.64518 10.8505 6.43504 10.9375C6.2249 11.0246 6.04528 11.172 5.91892 11.3611C5.79255 11.5502 5.7251 11.7725 5.7251 12C5.7251 12.305 5.84625 12.5975 6.06189 12.8131C6.27754 13.0288 6.57002 13.15 6.875 13.15ZM1 5V19H23V5H1ZM21.5 17.5H2.5V6.5H21.5V17.5Z" fill="black"/>
</svg>
