<svg width="24" height="24" viewBox="0 0 24 24" fill="none" xmlns="http://www.w3.org/2000/svg">
<path d="M16.9961 3.3464L16.7446 3.7821C18.5569 4.82682 19.9736 6.44046 20.7751 8.37264C21.5765 10.3048 21.7178 12.4475 21.1771 14.4682C20.6364 16.4889 19.4438 18.2747 17.7845 19.5484C16.1251 20.8221 14.0918 21.5125 12 21.5125C9.9082 21.5125 7.87487 20.8221 6.21553 19.5484C4.5562 18.2747 3.36364 16.4889 2.8229 14.4682C2.28217 12.4475 2.42349 10.3048 3.22494 8.37264C4.02639 6.44046 5.44316 4.82682 7.2554 3.7821L7.0039 3.3464C5.09666 4.44641 3.60575 6.1451 2.7625 8.17895C1.91925 10.2128 1.77079 12.4681 2.34016 14.5949C2.90953 16.7218 4.1649 18.6012 5.9115 19.9418C7.65809 21.2823 9.79828 22.0089 12 22.0089C14.2017 22.0089 16.3419 21.2823 18.0885 19.9418C19.8351 18.6012 21.0905 16.7218 21.6598 14.5949C22.2292 12.4681 22.0808 10.2128 21.2375 8.17895C20.3943 6.1451 18.9034 4.44641 16.9961 3.3464ZM12.25 2H11.75V12H12.25V2Z" fill="black"/>
</svg>
