<svg width="24" height="24" viewBox="0 0 24 24" fill="none" xmlns="http://www.w3.org/2000/svg">
<path d="M18.4385 17.2314C19.4534 15.8627 20.0009 14.2038 20 12.4999V10.4999H19.0001V12.4999C19.0003 13.9385 18.5544 15.3419 17.7239 16.5166L4.35385 3.14658L3.64685 3.85358L8.00005 8.20688V12.4999C8.00108 13.5604 8.42284 14.5772 9.17276 15.3272C9.92269 16.0771 10.9395 16.4988 12.0001 16.4999C12.5594 16.4992 13.1122 16.3797 13.6219 16.1494C14.1316 15.919 14.5866 15.583 14.9568 15.1637L17.0868 17.2937C16.1271 18.3161 14.8822 19.0263 13.5137 19.3319C12.1452 19.6376 10.7164 19.5246 9.41298 19.0076C8.10954 18.4906 6.99172 17.5936 6.20474 16.433C5.41776 15.2725 4.99802 13.9021 5.00005 12.4999V10.4999H4.00005V12.4999C4.00098 14.5338 4.77722 16.4909 6.17067 17.9726C7.56412 19.4542 9.46997 20.349 11.5001 20.4746V23.4999H12.5001V20.4746C14.5145 20.3502 16.4072 19.4677 17.7975 18.0046L19.6466 19.8536L20.3535 19.1466L18.4385 17.2314ZM16.0001 12.4999V5.49988C16.0023 4.44838 15.5899 3.4384 14.8523 2.689C14.1147 1.93959 13.1114 1.51119 12.06 1.49672C11.0086 1.48224 9.99384 1.88285 9.23589 2.61166C8.47794 3.34048 8.03788 4.33872 8.01115 5.38988L15.9194 13.2981C15.9729 13.0354 16 12.768 16.0001 12.4999Z" fill="black"/>
</svg>
