<svg width="24" height="24" viewBox="0 0 24 24" fill="none" xmlns="http://www.w3.org/2000/svg">
<path d="M16.5 2H7.5C6.83696 2 6.20107 2.26339 5.73223 2.73223C5.26339 3.20107 5 3.83696 5 4.5V19.5C5 20.163 5.26339 20.7989 5.73223 21.2678C6.20107 21.7366 6.83696 22 7.5 22H16.5C17.163 22 17.7989 21.7366 18.2678 21.2678C18.7366 20.7989 19 20.163 19 19.5V4.5C19 3.83696 18.7366 3.20107 18.2678 2.73223C17.7989 2.26339 17.163 2 16.5 2ZM18 19.5C17.9995 19.8977 17.8414 20.279 17.5602 20.5602C17.279 20.8414 16.8977 20.9995 16.5 21H7.5C7.10231 20.9995 6.72104 20.8414 6.43984 20.5602C6.15863 20.279 6.00045 19.8977 6 19.5V4.5C6.00045 4.10231 6.15863 3.72104 6.43984 3.43984C6.72104 3.15863 7.10231 3.00045 7.5 3H16.5C16.8977 3.00045 17.279 3.15863 17.5602 3.43984C17.8414 3.72104 17.9995 4.10231 18 4.5V19.5ZM15.8821 11.1157C15.7275 10.3254 15.314 9.60911 14.7069 9.08L13.3349 9.7L13.3243 9.6939L13.1752 8.1958C12.4136 7.9348 11.5868 7.9348 10.8252 8.1958L10.6757 9.694L10.6652 9.7L9.2931 9.08C8.68607 9.60909 8.2726 10.3253 8.118 11.1156L9.3408 11.9939V12.006L8.1179 12.8843C8.27257 13.6746 8.68607 14.3909 9.2931 14.92L10.6652 14.3L10.6757 14.306L10.8248 15.8042C11.5864 16.0652 12.4132 16.0652 13.1748 15.8042L13.324 14.3061L13.3345 14.3L14.7066 14.92C15.3135 14.3909 15.727 13.6748 15.8817 12.8846L14.6589 12.0062V11.9942L15.8821 11.1157ZM14.2221 12.6152L15.0168 13.186C14.9095 13.4911 14.7463 13.7737 14.5357 14.0192L13.644 13.6165L13.284 13.4644L12.9512 13.6558L12.6171 13.848L12.5789 14.2316L12.4819 15.2052C12.1639 15.2648 11.8377 15.2648 11.5197 15.2052L11.4228 14.2316L11.3741 13.8416L11.0399 13.6493L10.7071 13.4579L10.3571 13.616L9.4654 14.0188C9.25486 13.7732 9.09173 13.4906 8.9843 13.1855L9.7791 12.6147L10.0915 12.3782V11.6088L9.7791 11.3843L8.9844 10.8136C9.09174 10.5084 9.25484 10.2259 9.4654 9.9803L10.3571 10.3831L10.7194 10.536L11.0531 10.3421L11.3847 10.1494L11.4227 9.7679L11.5197 8.7943C11.8376 8.73483 12.1639 8.73483 12.4818 8.7943L12.5788 9.7679L12.6276 10.1587L12.9632 10.3507L13.2956 10.5407L13.6444 10.3831L14.536 9.9804C14.7467 10.2259 14.9098 10.5084 15.0171 10.8136L14.2224 11.3844L13.9099 11.6209V12.3903L14.2221 12.6152ZM12 11.25C11.8517 11.25 11.7067 11.294 11.5833 11.3764C11.46 11.4588 11.3639 11.5759 11.3071 11.713C11.2503 11.85 11.2355 12.0008 11.2644 12.1463C11.2933 12.2918 11.3648 12.4254 11.4697 12.5303C11.5746 12.6352 11.7082 12.7066 11.8537 12.7356C11.9992 12.7645 12.15 12.7497 12.287 12.6929C12.4241 12.6361 12.5412 12.54 12.6236 12.4167C12.706 12.2933 12.75 12.1483 12.75 12C12.75 11.8011 12.671 11.6103 12.5303 11.4697C12.3897 11.329 12.1989 11.25 12 11.25Z" fill="black"/>
</svg>
