<svg width="24" height="24" viewBox="0 0 24 24" fill="none" xmlns="http://www.w3.org/2000/svg">
<path d="M16.25 8V2C16.25 1.9337 16.2237 1.87011 16.1768 1.82322C16.1299 1.77634 16.0663 1.75 16 1.75C15.9337 1.75 15.8701 1.77634 15.8232 1.82322C15.7763 1.87011 15.75 1.9337 15.75 2V8H8.25V2C8.25 1.9337 8.22366 1.87011 8.17678 1.82322C8.12989 1.77634 8.0663 1.75 8 1.75C7.9337 1.75 7.87011 1.77634 7.82322 1.82322C7.77634 1.87011 7.75 1.9337 7.75 2V8H4V11.2237C4.00002 12.7031 4.46874 14.1445 5.3389 15.3409L6.802 17.3527C7.17309 17.8629 7.6596 18.2782 8.22182 18.5645C8.78403 18.8507 9.40599 19 10.0369 19H11.75V23H12.25V19H13.9631C14.594 19 15.216 18.8507 15.7782 18.5645C16.3404 18.2782 16.8269 17.8629 17.198 17.3527L18.6611 15.3409C19.5313 14.1445 20 12.7031 20 11.2237V8H16.25Z" fill="black"/>
</svg>
