<svg width="24" height="24" viewBox="0 0 24 24" fill="none" xmlns="http://www.w3.org/2000/svg">
<path d="M11.8333 2.12107C12.4901 2.11923 13.1408 2.2477 13.7476 2.49905C14.3544 2.7504 14.9054 3.11963 15.3685 3.58537L16.7825 2.17237C16.1328 1.52208 15.3612 1.0062 14.512 0.654227C13.6628 0.302256 12.7526 0.121094 11.8333 0.121094C10.914 0.121094 10.0038 0.302256 9.15457 0.654227C8.30536 1.0062 7.53384 1.52208 6.8841 2.17237L8.2982 3.58537C8.76132 3.11964 9.31224 2.7504 9.91905 2.49905C10.5259 2.2477 11.1765 2.11923 11.8333 2.12107ZM17 9.85417C16.735 9.85417 16.4781 9.94606 16.2732 10.1142C16.0683 10.2823 15.9281 10.5163 15.8764 10.7763C15.8247 11.0362 15.8647 11.3061 15.9897 11.5398C16.1146 11.7736 16.3167 11.9568 16.5616 12.0582C16.8065 12.1596 17.0789 12.173 17.3326 12.096C17.5862 12.0191 17.8053 11.8566 17.9525 11.6362C18.0998 11.4158 18.166 11.1512 18.1401 10.8874C18.1141 10.6237 17.9974 10.3771 17.81 10.1897C17.7039 10.083 17.5777 9.99836 17.4386 9.94077C17.2996 9.88318 17.1505 9.85375 17 9.85417ZM18 4.99997H6C5.34339 4.99997 4.69321 5.1293 4.08658 5.38058C3.47995 5.63185 2.92876 6.00015 2.46447 6.46444C1.52678 7.40212 1 8.67389 1 9.99997V19.1346C0.99997 19.8228 1.24762 20.488 1.69766 21.0086C2.14771 21.5292 2.7701 21.8705 3.45105 21.97C4.13199 22.0695 4.82601 21.9206 5.40623 21.5506C5.98644 21.1805 6.41409 20.614 6.611 19.9546L7.4936 17H16.5064L17.389 19.9547C17.5859 20.6141 18.0136 21.1806 18.5938 21.5507C19.174 21.9207 19.868 22.0696 20.549 21.9701C21.2299 21.8706 21.8523 21.5293 22.3023 21.0087C22.7524 20.4881 23 19.8229 23 19.1347V9.99997C23 9.34336 22.8707 8.69318 22.6194 8.08656C22.3681 7.47993 21.9998 6.92873 21.5355 6.46444C21.0712 6.00015 20.52 5.63185 19.9134 5.38058C19.3068 5.1293 18.6566 4.99997 18 4.99997ZM9.5 11.8H7.8V13.5H6.2V11.8H4.5V10.2H6.2V8.49997H7.8V10.2H9.5V11.8ZM18.8709 12.871C18.4381 13.3038 17.8685 13.5732 17.2593 13.6333C16.6502 13.6933 16.039 13.5402 15.53 13.2001C15.021 12.8601 14.6457 12.354 14.468 11.7683C14.2902 11.1825 14.3211 10.5532 14.5554 9.98767C14.7896 9.42211 15.2127 8.95527 15.7525 8.66669C16.2924 8.3781 16.9156 8.28563 17.516 8.40502C18.1164 8.52442 18.6568 8.84829 19.0451 9.32147C19.4335 9.79464 19.6458 10.3878 19.6458 11C19.6463 11.3475 19.5781 11.6917 19.4451 12.0127C19.3121 12.3338 19.117 12.6254 18.8709 12.8708V12.871Z" fill="black"/>
</svg>
