<svg width="24" height="24" viewBox="0 0 24 24" fill="none" xmlns="http://www.w3.org/2000/svg">
<path d="M12 8.0875C11.8462 8.0875 11.6958 8.13312 11.5679 8.21859C11.44 8.30406 11.3403 8.42554 11.2814 8.56767C11.2225 8.7098 11.2071 8.8662 11.2372 9.01708C11.2672 9.16796 11.3413 9.30655 11.4501 9.41532C11.5588 9.5241 11.6974 9.59817 11.8483 9.62817C11.9992 9.65817 12.1556 9.64275 12.2977 9.58387C12.4398 9.52498 12.5613 9.42527 12.6468 9.29735C12.7322 9.16943 12.7778 9.01904 12.7778 8.8652C12.7776 8.65899 12.6956 8.46129 12.5498 8.31548C12.4039 8.16968 12.2062 8.08769 12 8.0875ZM12 2C10.0222 2 8.08879 2.58649 6.4443 3.6853C4.79981 4.78412 3.51809 6.3459 2.76121 8.17317C2.00433 10.0004 1.8063 12.0111 2.19215 13.9509C2.578 15.8907 3.53041 17.6725 4.92894 19.0711C6.32746 20.4696 8.10929 21.422 10.0491 21.8079C11.9889 22.1937 13.9996 21.9957 15.8268 21.2388C17.6541 20.4819 19.2159 19.2002 20.3147 17.5557C21.4135 15.9112 22 13.9778 22 12C22 10.6868 21.7413 9.38642 21.2388 8.17317C20.7363 6.95991 19.9997 5.85752 19.0711 4.92893C18.1425 4.00035 17.0401 3.26375 15.8268 2.7612C14.6136 2.25866 13.3132 2 12 2ZM7.3555 15.35C7.0885 15.35 6.82751 15.2708 6.60551 15.1224C6.38352 14.9741 6.2105 14.7632 6.10834 14.5166C6.00618 14.2699 5.97945 13.9984 6.03156 13.7366C6.08366 13.4747 6.21224 13.2342 6.40105 13.0454C6.58985 12.8566 6.8304 12.728 7.09227 12.6759C7.35414 12.6239 7.62558 12.6506 7.87225 12.7528C8.11892 12.855 8.32976 13.028 8.4781 13.25C8.62643 13.472 8.7056 13.733 8.7056 14C8.7056 14.1773 8.67068 14.3528 8.60283 14.5166C8.53498 14.6804 8.43553 14.8293 8.31016 14.9546C8.18479 15.08 8.03596 15.1794 7.87216 15.2473C7.70836 15.3151 7.5328 15.35 7.3555 15.35ZM12 11.143C11.5495 11.143 11.1091 11.0094 10.7345 10.7591C10.3599 10.5088 10.068 10.1531 9.89559 9.73688C9.72319 9.32066 9.67808 8.86267 9.76597 8.42082C9.85386 7.97897 10.0708 7.57311 10.3894 7.25455C10.7079 6.936 11.1138 6.71906 11.5556 6.63117C11.9975 6.54328 12.4555 6.58839 12.8717 6.76079C13.2879 6.93319 13.6436 7.22514 13.8939 7.59972C14.1442 7.9743 14.2778 8.41469 14.2778 8.8652C14.2778 9.16433 14.2189 9.46053 14.1044 9.73689C13.99 10.0133 13.8222 10.2644 13.6107 10.4759C13.3992 10.6874 13.1481 10.8552 12.8717 10.9696C12.5953 11.0841 12.2991 11.143 12 11.143ZM16.6445 15.35C16.3775 15.35 16.1165 15.2708 15.8945 15.1225C15.6725 14.9741 15.4994 14.7633 15.3973 14.5166C15.2951 14.2699 15.2684 13.9985 15.3204 13.7366C15.3725 13.4748 15.5011 13.2342 15.6899 13.0454C15.8787 12.8566 16.1193 12.728 16.3811 12.6759C16.643 12.6238 16.9144 12.6506 17.1611 12.7528C17.4078 12.8549 17.6186 13.028 17.767 13.25C17.9153 13.472 17.9945 13.733 17.9945 14C17.9945 14.358 17.8523 14.7014 17.5991 14.9546C17.3459 15.2078 17.0025 15.35 16.6445 15.35Z" fill="black"/>
</svg>
