<svg width="24" height="24" viewBox="0 0 24 24" fill="none" xmlns="http://www.w3.org/2000/svg">
<path d="M20 5.99991H9.1917L19.8117 2.24561L19.1281 0.366211L3.2883 6.13141L3.2907 6.13561C2.91179 6.27867 2.58539 6.53364 2.35484 6.86664C2.1243 7.19963 2.00054 7.5949 2 7.99991V18.9999C2 19.5303 2.21071 20.0391 2.58579 20.4141C2.96086 20.7892 3.46957 20.9999 4 20.9999H20C20.5304 20.9999 21.0391 20.7892 21.4142 20.4141C21.7893 20.0391 22 19.5303 22 18.9999V7.99991C22 7.46948 21.7893 6.96077 21.4142 6.5857C21.0391 6.21062 20.5304 5.99991 20 5.99991ZM13 10.9999H4V8.99991H13V10.9999ZM18 18.4999C17.7033 18.4999 17.4133 18.4119 17.1666 18.2471C16.92 18.0823 16.7277 17.848 16.6142 17.5739C16.5007 17.2998 16.4709 16.9982 16.5288 16.7073C16.5867 16.4163 16.7296 16.149 16.9393 15.9393C17.1491 15.7295 17.4164 15.5866 17.7074 15.5287C17.9983 15.4709 18.2999 15.5006 18.574 15.6141C18.8481 15.7276 19.0824 15.9199 19.2472 16.1666C19.412 16.4132 19.5 16.7032 19.5 16.9999C19.5 17.3977 19.342 17.7793 19.0607 18.0606C18.7794 18.3419 18.3978 18.4999 18 18.4999ZM20 10.9999H15V8.99991H20V10.9999Z" fill="black"/>
</svg>
