<svg width="24" height="24" viewBox="0 0 24 24" fill="none" xmlns="http://www.w3.org/2000/svg">
<path d="M16.5 2H7.5C6.83696 2 6.20107 2.26339 5.73223 2.73223C5.26339 3.20107 5 3.83696 5 4.5V19.5C5 20.163 5.26339 20.7989 5.73223 21.2678C6.20107 21.7366 6.83696 22 7.5 22H16.5C17.163 22 17.7989 21.7366 18.2678 21.2678C18.7366 20.7989 19 20.163 19 19.5V4.5C19 3.83696 18.7366 3.20107 18.2678 2.73223C17.7989 2.26339 17.163 2 16.5 2ZM18.5 19.5C18.4994 20.0302 18.2885 20.5386 17.9135 20.9135C17.5386 21.2885 17.0302 21.4994 16.5 21.5H7.5C6.96975 21.4994 6.4614 21.2885 6.08646 20.9135C5.71152 20.5386 5.50061 20.0302 5.5 19.5V4.5C5.50061 3.96975 5.71152 3.4614 6.08646 3.08646C6.4614 2.71152 6.96975 2.50061 7.5 2.5H16.5C17.0302 2.50061 17.5386 2.71152 17.9135 3.08646C18.2885 3.4614 18.4994 3.96975 18.5 4.5V19.5ZM12.25 14.0839V9H11.75V14.0839L9.9217 12.2555L9.5678 12.6095L12 15.0416L14.4322 12.61L14.0783 12.256L12.25 14.0839Z" fill="black"/>
</svg>
