<svg width="24" height="24" viewBox="0 0 24 24" fill="none" xmlns="http://www.w3.org/2000/svg">
<path d="M18 11V4C18 3.46957 17.7893 2.96086 17.4142 2.58579C17.0391 2.21071 16.5304 2 16 2H8C7.46957 2 6.96086 2.21071 6.58579 2.58579C6.21071 2.96086 6 3.46957 6 4V11C6.00074 11.2849 6.06273 11.5663 6.18179 11.8251C6.30084 12.0839 6.47416 12.3141 6.69 12.5C6.47416 12.6859 6.30084 12.9161 6.18179 13.1749C6.06273 13.4337 6.00074 13.7151 6 14V20C6 20.5304 6.21071 21.0391 6.58579 21.4142C6.96086 21.7893 7.46957 22 8 22H16C16.5304 22 17.0391 21.7893 17.4142 21.4142C17.7893 21.0391 18 20.5304 18 20V14C17.9993 13.7151 17.9373 13.4337 17.8182 13.1749C17.6992 12.9161 17.5258 12.6859 17.31 12.5C17.5258 12.3141 17.6992 12.0839 17.8182 11.8251C17.9373 11.5663 17.9993 11.2849 18 11ZM7 14C7.00029 13.7349 7.10574 13.4807 7.29321 13.2932C7.48069 13.1057 7.73487 13.0003 8 13H9.6833V15.1H7V14ZM10.4833 15.1V13H13.5167V15.1H10.4833ZM13.5167 15.9V18.1H10.4833V15.9H13.5167ZM7 15.9H9.6833V18.1H7V15.9ZM8 21C7.73487 20.9997 7.48069 20.8943 7.29321 20.7068C7.10574 20.5193 7.00029 20.2651 7 20V18.9H9.6833V21H8ZM10.4833 21V18.9H13.5167V21H10.4833ZM17 20C16.9997 20.2651 16.8943 20.5193 16.7068 20.7068C16.5193 20.8943 16.2651 20.9997 16 21H14.3167V18.9H17V20ZM17 18.1H14.3167V15.9H17V18.1ZM17 14V15.1H14.3167V13H16C16.2651 13.0003 16.5193 13.1057 16.7068 13.2932C16.8943 13.4807 16.9997 13.7349 17 14ZM14.3167 12H8C7.73487 11.9997 7.48069 11.8943 7.29321 11.7068C7.10574 11.5193 7.00029 11.2651 7 11V4C7.00029 3.73487 7.10574 3.48069 7.29321 3.29321C7.48069 3.10574 7.73487 3.00029 8 3H16C16.2651 3.00029 16.5193 3.10574 16.7068 3.29321C16.8943 3.48069 16.9997 3.73487 17 4V11C16.9997 11.2651 16.8943 11.5193 16.7068 11.7068C16.5193 11.8943 16.2651 11.9997 16 12H14.3167Z" fill="black"/>
</svg>
