<svg width="24" height="24" viewBox="0 0 24 24" fill="none" xmlns="http://www.w3.org/2000/svg">
<path d="M11.8333 1.37108C12.5887 1.36887 13.337 1.51664 14.0349 1.80581C14.7327 2.09499 15.3663 2.51982 15.8987 3.05568L16.2523 2.70208C15.6721 2.1216 14.9832 1.66113 14.225 1.34696C13.4668 1.0328 12.6541 0.871094 11.8334 0.871094C11.0126 0.871094 10.1999 1.0328 9.44172 1.34696C8.6835 1.66113 7.99461 2.1216 7.4144 2.70208L7.7679 3.05568C8.30034 2.51982 8.93385 2.09499 9.63171 1.80581C10.3296 1.51664 11.0779 1.36887 11.8333 1.37108ZM18 4.99998H6C5.34339 4.99998 4.69321 5.12931 4.08658 5.38058C3.47995 5.63186 2.92876 6.00015 2.46447 6.46445C1.52678 7.40213 1 8.6739 1 9.99998V19.1346C0.99997 19.8228 1.24762 20.488 1.69766 21.0086C2.14771 21.5292 2.7701 21.8705 3.45105 21.97C4.13199 22.0695 4.82601 21.9206 5.40623 21.5506C5.98644 21.1805 6.41409 20.614 6.611 19.9546L7.4936 17H16.5064L17.389 19.9547C17.5859 20.6141 18.0136 21.1806 18.5938 21.5507C19.174 21.9207 19.868 22.0696 20.549 21.9701C21.2299 21.8706 21.8523 21.5293 22.3023 21.0087C22.7524 20.4881 23 19.8229 23 19.1347V9.99998C23 9.34337 22.8707 8.69319 22.6194 8.08656C22.3681 7.47993 21.9998 6.92874 21.5355 6.46445C21.0712 6.00015 20.52 5.63186 19.9134 5.38058C19.3068 5.12931 18.6566 4.99998 18 4.99998ZM9.375 11.2375H7.2375V13.375H6.7625V11.2375H4.625V10.7625H6.7625V8.62498H7.2375V10.7625H9.375V11.2375ZM18.7678 12.7675C18.3588 13.1765 17.8207 13.431 17.2451 13.4877C16.6694 13.5444 16.092 13.3998 15.6111 13.0784C15.1301 12.7571 14.7755 12.2789 14.6076 11.7254C14.4397 11.1719 14.469 10.5773 14.6903 10.0429C14.9117 9.50859 15.3115 9.06751 15.8216 8.79488C16.3317 8.52225 16.9206 8.43494 17.4879 8.54781C18.0552 8.66069 18.5658 8.96678 18.9327 9.41392C19.2995 9.86105 19.5001 10.4216 19.5 11C19.5004 11.3284 19.436 11.6536 19.3103 11.9569C19.1847 12.2603 19.0003 12.5359 18.7678 12.7678V12.7675ZM17 8.99998C16.5373 8.99997 16.0889 9.16041 15.7312 9.45394C15.3735 9.74748 15.1287 10.156 15.0384 10.6098C14.9481 11.0636 15.018 11.5347 15.2361 11.9428C15.4542 12.3508 15.8071 12.6707 16.2346 12.8477C16.6621 13.0248 17.1377 13.0482 17.5805 12.9139C18.0233 12.7796 18.4058 12.4959 18.6629 12.1111C18.92 11.7264 19.0357 11.2644 18.9903 10.804C18.945 10.3435 18.7414 9.91297 18.4142 9.58578C18.2289 9.39946 18.0085 9.25175 17.7658 9.1512C17.523 9.05065 17.2628 8.99925 17 8.99998Z" fill="black"/>
</svg>
