<svg width="24" height="24" viewBox="0 0 24 24" fill="none" xmlns="http://www.w3.org/2000/svg">
<path d="M7.4249 7.5833H6.5749V9.5751H4.5833V10.4251H6.5751V12.4168H7.4251V10.4249H9.4167V9.5749H7.4249V7.5833ZM17 7.5C16.4216 7.50002 15.8611 7.70058 15.414 8.06751C14.9669 8.43445 14.6609 8.94506 14.5481 9.51233C14.4353 10.0796 14.5226 10.6685 14.7953 11.1785C15.068 11.6886 15.509 12.0884 16.0434 12.3097C16.5778 12.531 17.1724 12.5602 17.7258 12.3923C18.2793 12.2244 18.7574 11.8698 19.0788 11.3889C19.4001 10.908 19.5447 10.3305 19.488 9.75491C19.4313 9.17931 19.1768 8.64117 18.7678 8.2322C18.5359 7.99971 18.2603 7.81534 17.957 7.68968C17.6536 7.56403 17.3284 7.49957 17 7.5ZM18.1549 11.1549C17.8877 11.422 17.5361 11.5883 17.1601 11.6253C16.7841 11.6623 16.4068 11.5677 16.0927 11.3578C15.7786 11.1478 15.5469 10.8354 15.4373 10.4738C15.3276 10.1123 15.3468 9.72384 15.4914 9.37477C15.636 9.0257 15.8972 8.73758 16.2304 8.55949C16.5637 8.3814 16.9484 8.32437 17.3189 8.39811C17.6895 8.47185 18.0231 8.6718 18.2627 8.9639C18.5024 9.25599 18.6334 9.62216 18.6334 10C18.634 10.2146 18.592 10.4271 18.5098 10.6254C18.4277 10.8236 18.3071 11.0036 18.1549 11.1549ZM18 4H6C5.34339 4 4.69321 4.12933 4.08658 4.3806C3.47996 4.63188 2.92876 5.00017 2.46447 5.46447C1.52679 6.40215 1 7.67392 1 9V17.8971C0.999453 18.633 1.26063 19.3451 1.73684 19.9061C2.21305 20.4672 2.87325 20.8406 3.59946 20.9596C4.32566 21.0786 5.07052 20.9355 5.70091 20.5558C6.33129 20.1761 6.80611 19.5847 7.0405 18.8871L7.9957 16H16.0043L16.9595 18.8868C17.1939 19.5843 17.6687 20.1758 18.299 20.5555C18.9294 20.9351 19.6742 21.0783 20.4004 20.9593C21.1266 20.8403 21.7868 20.467 22.263 19.906C22.7393 19.345 23.0005 18.633 23 17.8971V9C23 8.34339 22.8707 7.69321 22.6194 7.08658C22.3681 6.47995 21.9998 5.92876 21.5355 5.46447C21.0712 5.00017 20.52 4.63188 19.9134 4.3806C19.3068 4.12933 18.6566 4 18 4ZM22 17.8971C22.0003 18.398 21.8216 18.8826 21.4963 19.2634C21.1709 19.6443 20.7202 19.8965 20.2254 19.9745C19.7306 20.0525 19.2242 19.9512 18.7975 19.6889C18.3707 19.4266 18.0517 19.0205 17.8978 18.5438L16.9426 15.657L16.704 15H7.296L7.0574 15.657L6.1022 18.5438C5.94835 19.0205 5.6293 19.4266 5.20255 19.6889C4.7758 19.9512 4.26939 20.0525 3.77458 19.9745C3.27977 19.8965 2.82909 19.6443 2.50373 19.2634C2.17837 18.8826 1.99974 18.398 2 17.8971V9C2.00119 7.9395 2.423 6.92278 3.17289 6.17289C3.92278 5.423 4.9395 5.00119 6 5H18C19.0605 5.00119 20.0772 5.423 20.8271 6.17289C21.577 6.92278 21.9988 7.9395 22 9V17.8971Z" fill="black"/>
</svg>
