<svg width="24" height="24" viewBox="0 0 24 24" fill="none" xmlns="http://www.w3.org/2000/svg">
<path d="M20 4H4C3.46957 4 2.96086 4.21071 2.58579 4.58579C2.21071 4.96086 2 5.46957 2 6V16C2 16.5304 2.21071 17.0391 2.58579 17.4142C2.96086 17.7893 3.46957 18 4 18H8V20H16V18H20C20.5304 18 21.0391 17.7893 21.4142 17.4142C21.7893 17.0391 22 16.5304 22 16V6C22 5.46957 21.7893 4.96086 21.4142 4.58579C21.0391 4.21071 20.5304 4 20 4ZM15 19H9V18H15V19ZM21 16C20.9997 16.2651 20.8943 16.5193 20.7068 16.7068C20.5193 16.8943 20.2651 16.9997 20 17H4C3.73487 16.9997 3.48069 16.8943 3.29321 16.7068C3.10574 16.5193 3.00029 16.2651 3 16V6C3.00029 5.73487 3.10574 5.48069 3.29321 5.29321C3.48069 5.10574 3.73487 5.00029 4 5H20C20.2651 5.00029 20.5193 5.10574 20.7068 5.29321C20.8943 5.48069 20.9997 5.73487 21 6V16ZM9.75 14.0272L14.9932 11L9.75 7.9728V14.0272ZM10.55 9.3584L13.3933 11L10.55 12.6415V9.3584Z" fill="black"/>
</svg>
