<svg width="24" height="24" viewBox="0 0 24 24" fill="none" xmlns="http://www.w3.org/2000/svg">
<path d="M16.5 2H7.5C6.83696 2 6.20107 2.26339 5.73223 2.73223C5.26339 3.20107 5 3.83696 5 4.5V19.5C5 20.163 5.26339 20.7989 5.73223 21.2678C6.20107 21.7366 6.83696 22 7.5 22H16.5C17.163 22 17.7989 21.7366 18.2678 21.2678C18.7366 20.7989 19 20.163 19 19.5V4.5C19 3.83696 18.7366 3.20107 18.2678 2.73223C17.7989 2.26339 17.163 2 16.5 2ZM17.5 19.5C17.4997 19.7651 17.3943 20.0193 17.2068 20.2068C17.0193 20.3943 16.7651 20.4997 16.5 20.5H7.5C7.23487 20.4997 6.98069 20.3943 6.79321 20.2068C6.60574 20.0193 6.50029 19.7651 6.5 19.5V4.5C6.50029 4.23487 6.60574 3.98069 6.79321 3.79321C6.98069 3.60574 7.23487 3.50029 7.5 3.5H16.5C16.7651 3.50029 17.0193 3.60574 17.2068 3.79321C17.3943 3.98069 17.4997 4.23487 17.5 4.5V19.5ZM15.7166 10.5606C15.6471 10.3675 15.5626 10.18 15.4641 10C15.3575 9.82462 15.2374 9.65778 15.1049 9.501L13.8049 10.1516L12.698 9.5125L12.6116 8.0616C12.4096 8.02533 12.2051 8.00474 12 8C11.7948 8.00473 11.5902 8.02532 11.3882 8.0616L11.3018 9.5125L10.1949 10.1516L8.8949 9.501C8.7625 9.65779 8.64247 9.82463 8.5359 10C8.43739 10.1801 8.35297 10.3675 8.2834 10.5606L9.4966 11.3606V12.639L8.2834 13.439C8.35297 13.6322 8.43739 13.8198 8.5359 14C8.64259 14.1754 8.76272 14.3422 8.8952 14.499L10.1952 13.8484L11.3021 14.4875L11.3885 15.9384C11.5904 15.9747 11.7949 15.9953 12 16C12.2052 15.9953 12.4098 15.9747 12.6118 15.9384L12.6982 14.4875L13.8051 13.8484L15.1051 14.499C15.2375 14.3422 15.3575 14.1754 15.4641 14C15.5626 13.8199 15.6471 13.6325 15.7166 13.4394L14.5034 12.6394V11.361L15.7166 10.5606ZM12 13.2118C11.7603 13.2118 11.526 13.1407 11.3268 13.0076C11.1275 12.8744 10.9722 12.6852 10.8804 12.4637C10.7887 12.2423 10.7647 11.9987 10.8115 11.7636C10.8582 11.5285 10.9737 11.3126 11.1431 11.1431C11.3126 10.9737 11.5285 10.8582 11.7636 10.8115C11.9987 10.7647 12.2423 10.7887 12.4637 10.8804C12.6852 10.9722 12.8744 11.1275 13.0076 11.3268C13.1407 11.526 13.2118 11.7603 13.2118 12C13.2118 12.3214 13.0841 12.6296 12.8568 12.8568C12.6296 13.0841 12.3214 13.2118 12 13.2118Z" fill="black"/>
</svg>
