<svg width="24" height="24" viewBox="0 0 24 24" fill="none" xmlns="http://www.w3.org/2000/svg">
<path d="M12 2C10.0222 2 8.08879 2.58649 6.4443 3.6853C4.79981 4.78412 3.51809 6.3459 2.76121 8.17317C2.00433 10.0004 1.8063 12.0111 2.19215 13.9509C2.578 15.8907 3.53041 17.6725 4.92894 19.0711C6.32746 20.4696 8.10929 21.422 10.0491 21.8079C11.9889 22.1937 13.9996 21.9957 15.8268 21.2388C17.6541 20.4819 19.2159 19.2002 20.3147 17.5557C21.4135 15.9112 22 13.9778 22 12C22 10.6868 21.7413 9.38642 21.2388 8.17317C20.7363 6.95991 19.9997 5.85752 19.0711 4.92893C18.1425 4.00035 17.0401 3.26375 15.8268 2.7612C14.6136 2.25866 13.3132 2 12 2ZM12.75 20.462V18H11.25V20.462C9.13415 20.2758 7.16482 19.3037 5.73024 17.7374C4.29566 16.171 3.49994 14.124 3.49994 12C3.49994 9.87597 4.29566 7.82901 5.73024 6.26265C7.16482 4.69629 9.13415 3.72419 11.25 3.538V6H12.75V3.538C14.8659 3.72419 16.8352 4.69629 18.2698 6.26265C19.7043 7.82901 20.5001 9.87597 20.5001 12C20.5001 14.124 19.7043 16.171 18.2698 17.7374C16.8352 19.3037 14.8659 20.2758 12.75 20.462ZM15.6445 10.85C15.4171 10.85 15.1947 10.9174 15.0056 11.0438C14.8165 11.1702 14.6691 11.3498 14.582 11.5599C14.495 11.77 14.4722 12.0013 14.5166 12.2244C14.561 12.4474 14.6705 12.6523 14.8313 12.8132C14.9922 12.974 15.1971 13.0835 15.4202 13.1279C15.6432 13.1723 15.8745 13.1495 16.0846 13.0625C16.2947 12.9754 16.4743 12.828 16.6007 12.6389C16.7271 12.4498 16.7945 12.2274 16.7945 12C16.7945 11.695 16.6733 11.4025 16.4577 11.1868C16.242 10.9712 15.9495 10.85 15.6445 10.85ZM8.3555 10.85C8.12806 10.85 7.90573 10.9175 7.71663 11.0439C7.52752 11.1702 7.38014 11.3498 7.29311 11.56C7.20609 11.7701 7.18333 12.0013 7.22771 12.2244C7.2721 12.4475 7.38163 12.6524 7.54247 12.8132C7.7033 12.974 7.90821 13.0835 8.13129 13.1279C8.35436 13.1723 8.58558 13.1495 8.79571 13.0625C9.00584 12.9754 9.18544 12.828 9.3118 12.6389C9.43816 12.4498 9.5056 12.2274 9.5056 12C9.5056 11.849 9.47586 11.6994 9.41806 11.5599C9.36026 11.4204 9.27554 11.2936 9.16874 11.1868C9.06194 11.08 8.93516 10.9953 8.79562 10.9375C8.65609 10.8797 8.50653 10.85 8.3555 10.85Z" fill="black"/>
</svg>
