<svg width="24" height="24" viewBox="0 0 24 24" fill="none" xmlns="http://www.w3.org/2000/svg">
<path d="M18 10V12C18 13.5913 17.3679 15.1174 16.2426 16.2426C15.1174 17.3679 13.5913 18 12 18C10.4087 18 8.88258 17.3679 7.75736 16.2426C6.63214 15.1174 6 13.5913 6 12V10H4V12C4.00077 13.9477 4.71236 15.8281 6.0012 17.2883C7.29004 18.7486 9.06751 19.6882 11 19.9309V23H13V19.9309C14.9325 19.6882 16.71 18.7486 17.9988 17.2883C19.2876 15.8281 19.9992 13.9477 20 12V10H18ZM12 16C13.0605 15.999 14.0774 15.5772 14.8273 14.8273C15.5772 14.0774 15.999 13.0605 16 12V5C16 3.93913 15.5786 2.92172 14.8284 2.17157C14.0783 1.42143 13.0609 1 12 1C10.9391 1 9.92172 1.42143 9.17157 2.17157C8.42143 2.92172 8 3.93913 8 5V12C8.00103 13.0605 8.42279 14.0774 9.17271 14.8273C9.92264 15.5772 10.9395 15.999 12 16ZM10 5C10 4.46957 10.2107 3.96086 10.5858 3.58579C10.9609 3.21071 11.4696 3 12 3C12.5304 3 13.0391 3.21071 13.4142 3.58579C13.7893 3.96086 14 4.46957 14 5V12C14 12.5304 13.7893 13.0391 13.4142 13.4142C13.0391 13.7893 12.5304 14 12 14C11.4696 14 10.9609 13.7893 10.5858 13.4142C10.2107 13.0391 10 12.5304 10 12V5Z" fill="black"/>
</svg>
