<svg width="24" height="24" viewBox="0 0 24 24" fill="none" xmlns="http://www.w3.org/2000/svg">
<path d="M15.5 2H8.5C7.83696 2 7.20107 2.26339 6.73223 2.73223C6.26339 3.20107 6 3.83696 6 4.5V19.5C6 20.163 6.26339 20.7989 6.73223 21.2678C7.20107 21.7366 7.83696 22 8.5 22H15.5C16.163 22 16.7989 21.7366 17.2678 21.2678C17.7366 20.7989 18 20.163 18 19.5V4.5C18 3.83696 17.7366 3.20107 17.2678 2.73223C16.7989 2.26339 16.163 2 15.5 2ZM8.7073 20C8.5293 20 8.35529 19.9472 8.20729 19.8483C8.05928 19.7494 7.94393 19.6089 7.87581 19.4444C7.80769 19.28 7.78987 19.099 7.82459 18.9244C7.85932 18.7498 7.94504 18.5895 8.0709 18.4636C8.19677 18.3377 8.35714 18.252 8.53172 18.2173C8.7063 18.1826 8.88726 18.2004 9.05171 18.2685C9.21617 18.3366 9.35673 18.452 9.45562 18.6C9.55452 18.748 9.6073 18.922 9.6073 19.1C9.6073 19.3387 9.51248 19.5676 9.3437 19.7364C9.17491 19.9052 8.946 20 8.7073 20ZM8.7073 16.9C8.5293 16.9 8.35529 16.8472 8.20729 16.7483C8.05928 16.6494 7.94393 16.5089 7.87581 16.3444C7.80769 16.18 7.78987 15.999 7.82459 15.8244C7.85932 15.6498 7.94504 15.4895 8.0709 15.3636C8.19677 15.2377 8.35714 15.152 8.53172 15.1173C8.7063 15.0826 8.88726 15.1004 9.05171 15.1685C9.21617 15.2366 9.35673 15.352 9.45562 15.5C9.55452 15.648 9.6073 15.822 9.6073 16C9.6073 16.1182 9.58402 16.2352 9.53879 16.3444C9.49356 16.4536 9.42727 16.5528 9.3437 16.6364C9.26012 16.72 9.16091 16.7863 9.05171 16.8315C8.94252 16.8767 8.82549 16.9 8.7073 16.9ZM8.7073 13.8C8.5293 13.8 8.35529 13.7472 8.20729 13.6483C8.05928 13.5494 7.94393 13.4089 7.87581 13.2444C7.80769 13.08 7.78987 12.899 7.82459 12.7244C7.85932 12.5498 7.94504 12.3895 8.0709 12.2636C8.19677 12.1377 8.35714 12.052 8.53172 12.0173C8.7063 11.9826 8.88726 12.0004 9.05171 12.0685C9.21617 12.1366 9.35673 12.252 9.45562 12.4C9.55452 12.548 9.6073 12.722 9.6073 12.9C9.6073 13.1387 9.51248 13.3676 9.3437 13.5364C9.17491 13.7052 8.946 13.8 8.7073 13.8ZM12 20C11.822 20 11.648 19.9472 11.5 19.8483C11.352 19.7494 11.2366 19.6089 11.1685 19.4444C11.1004 19.28 11.0826 19.099 11.1173 18.9244C11.152 18.7498 11.2377 18.5895 11.3636 18.4636C11.4895 18.3377 11.6498 18.252 11.8244 18.2173C11.999 18.1826 12.18 18.2004 12.3444 18.2685C12.5089 18.3366 12.6494 18.452 12.7483 18.6C12.8472 18.748 12.9 18.922 12.9 19.1C12.9 19.3387 12.8052 19.5676 12.6364 19.7364C12.4676 19.9052 12.2387 20 12 20ZM12 16.9C11.822 16.9 11.648 16.8472 11.5 16.7483C11.352 16.6494 11.2366 16.5089 11.1685 16.3444C11.1004 16.18 11.0826 15.999 11.1173 15.8244C11.152 15.6498 11.2377 15.4895 11.3636 15.3636C11.4895 15.2377 11.6498 15.152 11.8244 15.1173C11.999 15.0826 12.18 15.1004 12.3444 15.1685C12.5089 15.2366 12.6494 15.352 12.7483 15.5C12.8472 15.648 12.9 15.822 12.9 16C12.9 16.1182 12.8767 16.2352 12.8315 16.3444C12.7863 16.4536 12.72 16.5528 12.6364 16.6364C12.5528 16.72 12.4536 16.7863 12.3444 16.8315C12.2352 16.8767 12.1182 16.9 12 16.9ZM12 13.8C11.822 13.8 11.648 13.7472 11.5 13.6483C11.352 13.5494 11.2366 13.4089 11.1685 13.2444C11.1004 13.08 11.0826 12.899 11.1173 12.7244C11.152 12.5498 11.2377 12.3895 11.3636 12.2636C11.4895 12.1377 11.6498 12.052 11.8244 12.0173C11.999 11.9826 12.18 12.0004 12.3444 12.0685C12.5089 12.1366 12.6494 12.252 12.7483 12.4C12.8472 12.548 12.9 12.722 12.9 12.9C12.9 13.1387 12.8052 13.3676 12.6364 13.5364C12.4676 13.7052 12.2387 13.8 12 13.8ZM15.2927 20C15.1147 20 14.9407 19.9472 14.7927 19.8483C14.6447 19.7494 14.5293 19.6089 14.4612 19.4444C14.3931 19.28 14.3753 19.099 14.41 18.9244C14.4447 18.7498 14.5304 18.5895 14.6563 18.4636C14.7822 18.3377 14.9425 18.252 15.1171 18.2173C15.2917 18.1826 15.4727 18.2004 15.6371 18.2685C15.8016 18.3366 15.9421 18.452 16.041 18.6C16.1399 18.748 16.1927 18.922 16.1927 19.1C16.1927 19.3387 16.0979 19.5676 15.9291 19.7364C15.7603 19.9052 15.5314 20 15.2927 20ZM15.2927 16.9C15.1147 16.9 14.9407 16.8472 14.7927 16.7483C14.6447 16.6494 14.5293 16.5089 14.4612 16.3444C14.3931 16.18 14.3753 15.999 14.41 15.8244C14.4447 15.6498 14.5304 15.4895 14.6563 15.3636C14.7822 15.2377 14.9425 15.152 15.1171 15.1173C15.2917 15.0826 15.4727 15.1004 15.6371 15.1685C15.8016 15.2366 15.9421 15.352 16.041 15.5C16.1399 15.648 16.1927 15.822 16.1927 16C16.1927 16.2387 16.0979 16.4676 15.9291 16.6364C15.7603 16.8052 15.5314 16.9 15.2927 16.9ZM15.2927 13.8C15.1147 13.8 14.9407 13.7472 14.7927 13.6483C14.6447 13.5494 14.5293 13.4089 14.4612 13.2444C14.3931 13.08 14.3753 12.899 14.41 12.7244C14.4447 12.5498 14.5304 12.3895 14.6563 12.2636C14.7822 12.1377 14.9425 12.052 15.1171 12.0173C15.2917 11.9826 15.4727 12.0004 15.6371 12.0685C15.8016 12.1366 15.9421 12.252 16.041 12.4C16.1399 12.548 16.1927 12.722 16.1927 12.9C16.1927 13.1387 16.0979 13.3676 15.9291 13.5364C15.7603 13.7052 15.5314 13.8 15.2927 13.8ZM17.5 10H6.5V5H17.5V10Z" fill="black"/>
</svg>
