<svg width="24" height="24" viewBox="0 0 24 24" fill="none" xmlns="http://www.w3.org/2000/svg">
<path d="M18.9641 5H5.03588L0.571777 12L5.03588 19H18.9641L23.4282 12L18.9641 5ZM6.20558 13.35C5.93858 13.35 5.67758 13.2708 5.45558 13.1224C5.23359 12.9741 5.06057 12.7632 4.95841 12.5166C4.85625 12.2699 4.82953 11.9984 4.88163 11.7366C4.93373 11.4747 5.06231 11.2342 5.25112 11.0454C5.43992 10.8566 5.68047 10.728 5.94234 10.6759C6.20421 10.6239 6.47565 10.6506 6.72232 10.7528C6.969 10.855 7.17983 11.028 7.32817 11.25C7.4765 11.472 7.55568 11.733 7.55568 12C7.55568 12.1773 7.52075 12.3528 7.4529 12.5166C7.38505 12.6804 7.28561 12.8293 7.16024 12.9546C7.03487 13.08 6.88603 13.1794 6.72223 13.2473C6.55843 13.3151 6.38287 13.35 6.20558 13.35ZM12 15.8267C11.733 15.8267 11.472 15.7475 11.25 15.5992C11.028 15.4508 10.8549 15.24 10.7527 14.9933C10.6506 14.7466 10.6238 14.4752 10.6759 14.2133C10.728 13.9515 10.8566 13.7109 11.0454 13.5221C11.2342 13.3333 11.4747 13.2047 11.7366 13.1526C11.9985 13.1006 12.2699 13.1273 12.5166 13.2295C12.7633 13.3316 12.9741 13.5047 13.1225 13.7267C13.2708 13.9487 13.35 14.2097 13.35 14.4767C13.35 14.8347 13.2077 15.1781 12.9546 15.4313C12.7014 15.6845 12.358 15.8267 12 15.8267ZM17.7944 13.35C17.5274 13.35 17.2664 13.2708 17.0444 13.1225C16.8224 12.9741 16.6493 12.7633 16.5471 12.5166C16.445 12.2699 16.4182 11.9985 16.4703 11.7366C16.5224 11.4748 16.651 11.2342 16.8398 11.0454C17.0286 10.8566 17.2691 10.728 17.531 10.6759C17.7929 10.6238 18.0643 10.6506 18.311 10.7528C18.5577 10.8549 18.7685 11.028 18.9169 11.25C19.0652 11.472 19.1444 11.733 19.1444 12C19.1444 12.358 19.0021 12.7014 18.749 12.9546C18.4958 13.2078 18.1524 13.35 17.7944 13.35Z" fill="black"/>
</svg>
