<svg width="24" height="24" viewBox="0 0 24 24" fill="none" xmlns="http://www.w3.org/2000/svg">
<path d="M14 5H12.25V3.25C12.2506 2.78605 12.4351 2.34127 12.7632 2.01321C13.0913 1.68514 13.536 1.50058 14 1.5H17V1H14C13.4035 1.00082 12.8317 1.23814 12.4099 1.65992C11.9881 2.08169 11.7508 2.65351 11.75 3.25V5H10C8.67392 5 7.40215 5.52678 6.46447 6.46447C5.52678 7.40215 5 8.67392 5 10V17C5 18.8565 5.7375 20.637 7.05025 21.9497C8.36301 23.2625 10.1435 24 12 24C13.8565 24 15.637 23.2625 16.9497 21.9497C18.2625 20.637 19 18.8565 19 17V10C19 8.67392 18.4732 7.40215 17.5355 6.46447C16.5979 5.52678 15.3261 5 14 5ZM12.25 10.75C12.25 10.8163 12.2237 10.8799 12.1768 10.9268C12.1299 10.9737 12.0663 11 12 11C11.9337 11 11.8701 10.9737 11.8232 10.9268C11.7763 10.8799 11.75 10.8163 11.75 10.75V7.25C11.75 7.1837 11.7763 7.12011 11.8232 7.07322C11.8701 7.02634 11.9337 7 12 7C12.0663 7 12.1299 7.02634 12.1768 7.07322C12.2237 7.12011 12.25 7.1837 12.25 7.25V10.75Z" fill="black"/>
</svg>
