<svg width="24" height="24" viewBox="0 0 24 24" fill="none" xmlns="http://www.w3.org/2000/svg">
<g clip-path="url(#clip0)">
<path d="M13 2.99993H11C11 2.4695 10.7893 1.96079 10.4142 1.58572C10.0391 1.21064 9.53043 0.999931 9 0.999931C8.46957 0.999931 7.96086 1.21064 7.58579 1.58572C7.21071 1.96079 7 2.4695 7 2.99993H5C4.20435 2.99993 3.44129 3.316 2.87868 3.87861C2.31607 4.44122 2 5.20428 2 5.99993V19.9999C2 20.7956 2.31607 21.5586 2.87868 22.1213C3.44129 22.6839 4.20435 22.9999 5 22.9999H13C13.7956 22.9999 14.5587 22.6839 15.1213 22.1213C15.6839 21.5586 16 20.7956 16 19.9999V5.99993C16 5.20428 15.6839 4.44122 15.1213 3.87861C14.5587 3.316 13.7956 2.99993 13 2.99993ZM12 18.9999H6V17.2999H12V18.9999ZM24.0312 4.33323H21.0312V0.671631L18.0312 6.33323H21.0312V9.99483L24.0312 4.33323Z" fill="black"/>
</g>
<defs>
<clipPath id="clip0">
<rect width="24" height="24" fill="white"/>
</clipPath>
</defs>
</svg>
