<svg width="24" height="24" viewBox="0 0 24 24" fill="none" xmlns="http://www.w3.org/2000/svg">
<path d="M16 6.26V3C16 2.46957 15.7893 1.96086 15.4142 1.58579C15.0391 1.21071 14.5304 1 14 1H9.99997C9.46954 1 8.96083 1.21071 8.58576 1.58579C8.21069 1.96086 7.99997 2.46957 7.99997 3V6.26C7.07404 6.90385 6.31761 7.76215 5.79522 8.76166C5.27283 9.76117 5 10.8722 5 12C5 13.1278 5.27283 14.2388 5.79522 15.2383C6.31761 16.2379 7.07404 17.0961 7.99997 17.74V21C7.99997 21.5304 8.21069 22.0391 8.58576 22.4142C8.96083 22.7893 9.46954 23 9.99997 23H14C14.5304 23 15.0391 22.7893 15.4142 22.4142C15.7893 22.0391 16 21.5304 16 21V17.74C16.9259 17.0961 17.6823 16.2379 18.2047 15.2383C18.7271 14.2388 19 13.1278 19 12C19 10.8722 18.7271 9.76117 18.2047 8.76166C17.6823 7.76215 16.9259 6.90385 16 6.26ZM8.99997 3C9.00027 2.73487 9.10572 2.48069 9.29319 2.29321C9.48066 2.10574 9.73485 2.00029 9.99997 2H14C14.2651 2.00029 14.5193 2.10574 14.7068 2.29321C14.8942 2.48069 14.9997 2.73487 15 3V5.6827C14.0637 5.23331 13.0385 5 12 5C10.9615 5 9.93622 5.23331 8.99997 5.6827V3ZM15 21C14.9997 21.2651 14.8942 21.5193 14.7068 21.7068C14.5193 21.8943 14.2651 21.9997 14 22H9.99997C9.73485 21.9997 9.48066 21.8943 9.29319 21.7068C9.10572 21.5193 9.00027 21.2651 8.99997 21V18.3173C9.93622 18.7667 10.9615 19 12 19C13.0385 19 14.0637 18.7667 15 18.3173V21ZM12 18C10.8133 18 9.65325 17.6481 8.66655 16.9888C7.67986 16.3295 6.91082 15.3925 6.4567 14.2961C6.00257 13.1997 5.88375 11.9933 6.11526 10.8295C6.34677 9.66557 6.91822 8.59647 7.75733 7.75736C8.59645 6.91824 9.66555 6.3468 10.8294 6.11529C11.9933 5.88378 13.1997 6.0026 14.2961 6.45672C15.3924 6.91085 16.3295 7.67988 16.9888 8.66658C17.6481 9.65327 18 10.8133 18 12C17.9982 13.5907 17.3655 15.1158 16.2406 16.2407C15.1158 17.3655 13.5907 17.9982 12 18ZM12.3672 8H11.3672V12.6328H15.4072V11.6328H12.3672V8Z" fill="black"/>
</svg>
