<svg width="24" height="24" viewBox="0 0 24 24" fill="none" xmlns="http://www.w3.org/2000/svg">
<path d="M19 6H17.1416L15.4092 3H8.5908L6.8584 6H5C4.20462 6.00087 3.44206 6.31722 2.87964 6.87964C2.31722 7.44206 2.00087 8.20462 2 9V18C2.00087 18.7954 2.31722 19.5579 2.87964 20.1204C3.44206 20.6828 4.20462 20.9991 5 21H19C19.7954 20.9991 20.5579 20.6828 21.1204 20.1204C21.6828 19.5579 21.9991 18.7954 22 18V9C21.9991 8.20462 21.6828 7.44206 21.1204 6.87964C20.5579 6.31722 19.7954 6.00087 19 6ZM21 18C20.9994 18.5302 20.7885 19.0386 20.4135 19.4135C20.0386 19.7885 19.5302 19.9994 19 20H5C4.46975 19.9994 3.9614 19.7885 3.58646 19.4135C3.21152 19.0386 3.00061 18.5302 3 18V9C3.00061 8.46975 3.21152 7.9614 3.58646 7.58646C3.9614 7.21152 4.46975 7.00061 5 7H7.4357L7.7244 6.5L9.1681 4H14.8319L16.2756 6.5L16.5643 7H19C19.5302 7.00061 20.0386 7.21152 20.4135 7.58646C20.7885 7.9614 20.9994 8.46975 21 9V18ZM12 9C11.2089 9 10.4355 9.2346 9.77772 9.67412C9.11992 10.1136 8.60723 10.7384 8.30448 11.4693C8.00173 12.2002 7.92252 13.0044 8.07686 13.7804C8.2312 14.5563 8.61216 15.269 9.17157 15.8284C9.73098 16.3878 10.4437 16.7688 11.2196 16.9231C11.9956 17.0775 12.7998 16.9983 13.5307 16.6955C14.2616 16.3928 14.8864 15.8801 15.3259 15.2223C15.7654 14.5645 16 13.7911 16 13C15.9989 11.9395 15.5771 10.9227 14.8272 10.1728C14.0773 9.4229 13.0605 9.00111 12 9ZM12 16C11.4067 16 10.8266 15.8241 10.3333 15.4944C9.83994 15.1648 9.45542 14.6962 9.22836 14.1481C9.0013 13.5999 8.94189 12.9967 9.05764 12.4147C9.1734 11.8328 9.45912 11.2982 9.87868 10.8787C10.2982 10.4591 10.8328 10.1734 11.4147 10.0576C11.9967 9.94189 12.5999 10.0013 13.1481 10.2284C13.6962 10.4554 14.1648 10.8399 14.4944 11.3333C14.8241 11.8266 15 12.4067 15 13C14.9991 13.7954 14.6827 14.5579 14.1203 15.1203C13.5579 15.6827 12.7954 15.9991 12 16Z" fill="black"/>
</svg>
