<svg width="24" height="24" viewBox="0 0 24 24" fill="none" xmlns="http://www.w3.org/2000/svg">
<path d="M20.7227 17C20.9024 16.6972 20.9981 16.3521 21 16V7C21 6.46957 20.7893 5.96086 20.4142 5.58579C20.0391 5.21071 19.5304 5 19 5H5C4.46957 5 3.96086 5.21071 3.58579 5.58579C3.21071 5.96086 3 6.46957 3 7V16C3.00192 16.3521 3.09764 16.6972 3.2773 17H1V20H23V17H20.7227ZM4 16V7C4.00029 6.73487 4.10574 6.48069 4.29321 6.29321C4.48069 6.10574 4.73487 6.00029 5 6H19C19.2651 6.00029 19.5193 6.10574 19.7068 6.29321C19.8943 6.48069 19.9997 6.73487 20 7V16C19.9997 16.2651 19.8943 16.5193 19.7068 16.7068C19.5193 16.8943 19.2651 16.9997 19 17H5C4.73487 16.9997 4.48069 16.8943 4.29321 16.7068C4.10574 16.5193 4.00029 16.2651 4 16ZM22 19H2V18H22V19Z" fill="black"/>
</svg>
