<svg width="24" height="24" viewBox="0 0 24 24" fill="none" xmlns="http://www.w3.org/2000/svg">
<path d="M16.6445 16.5C16.9412 16.5 17.2312 16.412 17.4779 16.2472C17.7245 16.0824 17.9168 15.8481 18.0303 15.574C18.1439 15.2999 18.1736 14.9983 18.1157 14.7074C18.0578 14.4164 17.9149 14.1491 17.7052 13.9393C17.4954 13.7296 17.2281 13.5867 16.9371 13.5288C16.6462 13.4709 16.3446 13.5006 16.0705 13.6142C15.7964 13.7277 15.5621 13.92 15.3973 14.1666C15.2325 14.4133 15.1445 14.7033 15.1445 15C15.1445 15.3978 15.3025 15.7794 15.5838 16.0607C15.8651 16.342 16.2467 16.5 16.6445 16.5ZM16.6445 14C16.8423 14 17.0356 14.0586 17.2001 14.1685C17.3645 14.2784 17.4927 14.4346 17.5684 14.6173C17.6441 14.8 17.6639 15.0011 17.6253 15.1951C17.5867 15.3891 17.4915 15.5673 17.3516 15.7071C17.2118 15.847 17.0336 15.9422 16.8396 15.9808C16.6456 16.0194 16.4445 15.9996 16.2618 15.9239C16.0791 15.8482 15.9229 15.72 15.813 15.5556C15.7031 15.3911 15.6445 15.1978 15.6445 15C15.6448 14.7349 15.7502 14.4807 15.9377 14.2932C16.1252 14.1057 16.3794 14.0003 16.6445 14ZM7.3555 16.5C7.65217 16.5 7.94218 16.412 8.18886 16.2472C8.43553 16.0824 8.62779 15.8481 8.74132 15.574C8.85485 15.2999 8.88456 14.9983 8.82668 14.7074C8.7688 14.4164 8.62594 14.1491 8.41616 13.9393C8.20638 13.7296 7.93911 13.5867 7.64814 13.5288C7.35716 13.4709 7.05556 13.5006 6.78148 13.6142C6.50739 13.7277 6.27312 13.92 6.1083 14.1666C5.94347 14.4133 5.8555 14.7033 5.8555 15C5.8555 15.3978 6.01354 15.7794 6.29484 16.0607C6.57614 16.342 6.95768 16.5 7.3555 16.5ZM7.3555 14C7.55328 14 7.74662 14.0586 7.91107 14.1685C8.07552 14.2784 8.20369 14.4346 8.27938 14.6173C8.35507 14.8 8.37487 15.0011 8.33629 15.1951C8.2977 15.3891 8.20246 15.5673 8.06261 15.7071C7.92275 15.847 7.74457 15.9422 7.55059 15.9808C7.35661 16.0194 7.15554 15.9996 6.97282 15.9239C6.79009 15.8482 6.63391 15.72 6.52403 15.5556C6.41415 15.3911 6.3555 15.1978 6.3555 15C6.35579 14.7349 6.46124 14.4807 6.64872 14.2932C6.83619 14.1057 7.09037 14.0003 7.3555 14ZM12 11.143C12.4505 11.143 12.8909 11.0094 13.2655 10.7591C13.6401 10.5088 13.932 10.1531 14.1044 9.73688C14.2768 9.32066 14.3219 8.86267 14.234 8.42082C14.1461 7.97897 13.9292 7.57311 13.6106 7.25455C13.2921 6.936 12.8862 6.71906 12.4444 6.63117C12.0025 6.54328 11.5445 6.58839 11.1283 6.76079C10.7121 6.93319 10.3564 7.22514 10.1061 7.59972C9.85579 7.9743 9.7222 8.41469 9.7222 8.8652C9.72219 9.16433 9.78109 9.46053 9.89556 9.73689C10.01 10.0133 10.1778 10.2644 10.3893 10.4759C10.6008 10.6874 10.8519 10.8552 11.1283 10.9696C11.4047 11.0841 11.7009 11.143 12 11.143ZM12 7.0875C12.3516 7.0875 12.6953 7.19177 12.9877 7.38712C13.2801 7.58247 13.5079 7.86013 13.6425 8.18499C13.777 8.50984 13.8122 8.86731 13.7436 9.21217C13.675 9.55703 13.5057 9.8738 13.2571 10.1224C13.0084 10.3711 12.6916 10.5404 12.3468 10.609C12.0019 10.6775 11.6444 10.6423 11.3196 10.5077C10.9947 10.3732 10.7171 10.1453 10.5218 9.85292C10.3264 9.56055 10.2222 9.21682 10.2222 8.8652C10.2228 8.39389 10.4103 7.94207 10.7436 7.60881C11.0769 7.27556 11.5287 7.08808 12 7.0875ZM3 3V21H21V3H3ZM20.5 20.5H3.5V3.5H20.5V20.5Z" fill="black"/>
</svg>
