<svg width="24" height="24" viewBox="0 0 24 24" fill="none" xmlns="http://www.w3.org/2000/svg">
<path d="M15.5 2H8.5C7.83696 2 7.20107 2.26339 6.73223 2.73223C6.26339 3.20107 6 3.83696 6 4.5V19.5C6 20.163 6.26339 20.7989 6.73223 21.2678C7.20107 21.7366 7.83696 22 8.5 22H15.5C16.163 22 16.7989 21.7366 17.2678 21.2678C17.7366 20.7989 18 20.163 18 19.5V4.5C18 3.83696 17.7366 3.20107 17.2678 2.73223C16.7989 2.26339 16.163 2 15.5 2ZM10.38 5.4C10.2416 5.4 10.1062 5.35895 9.9911 5.28203C9.87599 5.20511 9.78627 5.09579 9.73328 4.96788C9.6803 4.83997 9.66644 4.69922 9.69345 4.56344C9.72046 4.42765 9.78713 4.30292 9.88503 4.20503C9.98292 4.10713 10.1077 4.04046 10.2434 4.01345C10.3792 3.98644 10.52 4.0003 10.6479 4.05328C10.7758 4.10627 10.8851 4.19599 10.962 4.3111C11.0389 4.42622 11.08 4.56155 11.08 4.7C11.08 4.79193 11.0619 4.88295 11.0267 4.96788C10.9915 5.05281 10.94 5.12997 10.875 5.19497C10.81 5.25998 10.7328 5.31154 10.6479 5.34672C10.563 5.38189 10.4719 5.4 10.38 5.4ZM13.62 5.4C13.4816 5.4 13.3462 5.35895 13.2311 5.28203C13.116 5.20511 13.0263 5.09579 12.9733 4.96788C12.9203 4.83997 12.9064 4.69922 12.9335 4.56344C12.9605 4.42765 13.0271 4.30292 13.125 4.20503C13.2229 4.10713 13.3477 4.04046 13.4834 4.01345C13.6192 3.98644 13.76 4.0003 13.8879 4.05328C14.0158 4.10627 14.1251 4.19599 14.202 4.3111C14.2789 4.42622 14.32 4.56155 14.32 4.7C14.32 4.79193 14.3019 4.88295 14.2667 4.96788C14.2315 5.05281 14.18 5.12997 14.115 5.19497C14.05 5.25998 13.9728 5.31154 13.8879 5.34672C13.803 5.38189 13.7119 5.4 13.62 5.4Z" fill="black"/>
</svg>
