<svg width="24" height="24" viewBox="0 0 24 24" fill="none" xmlns="http://www.w3.org/2000/svg">
<path d="M16 6.26V3C16 2.46957 15.7893 1.96086 15.4142 1.58579C15.0391 1.21071 14.5304 1 14 1H9.99997C9.46954 1 8.96083 1.21071 8.58576 1.58579C8.21069 1.96086 7.99997 2.46957 7.99997 3V6.26C7.07404 6.90385 6.31761 7.76215 5.79522 8.76166C5.27283 9.76117 5 10.8722 5 12C5 13.1278 5.27283 14.2388 5.79522 15.2383C6.31761 16.2379 7.07404 17.0961 7.99997 17.74V21C7.99997 21.5304 8.21069 22.0391 8.58576 22.4142C8.96083 22.7893 9.46954 23 9.99997 23H14C14.5304 23 15.0391 22.7893 15.4142 22.4142C15.7893 22.0391 16 21.5304 16 21V17.74C16.9259 17.0961 17.6823 16.2379 18.2047 15.2383C18.7271 14.2388 19 13.1278 19 12C19 10.8722 18.7271 9.76117 18.2047 8.76166C17.6823 7.76215 16.9259 6.90385 16 6.26ZM9.49997 3C9.50013 2.86744 9.55286 2.74036 9.6466 2.64662C9.74033 2.55289 9.86742 2.50016 9.99997 2.5H14C14.1325 2.50016 14.2596 2.55289 14.3534 2.64662C14.4471 2.74036 14.4998 2.86744 14.5 3V5.4678C12.8917 4.84407 11.1083 4.84407 9.49997 5.4678V3ZM14.5 21C14.4998 21.1326 14.4471 21.2596 14.3534 21.3534C14.2596 21.4471 14.1325 21.4998 14 21.5H9.99997C9.86742 21.4998 9.74033 21.4471 9.6466 21.3534C9.55286 21.2596 9.50013 21.1326 9.49997 21V18.5322C11.1083 19.1559 12.8917 19.1559 14.5 18.5322V21ZM12 17.5C10.9122 17.5 9.84881 17.1774 8.94434 16.5731C8.03987 15.9687 7.33492 15.1098 6.91864 14.1048C6.50236 13.0998 6.39344 11.9939 6.60566 10.927C6.81787 9.86011 7.3417 8.8801 8.11089 8.11091C8.88008 7.34172 9.86008 6.8179 10.927 6.60568C11.9939 6.39346 13.0997 6.50238 14.1047 6.91866C15.1097 7.33494 15.9687 8.03989 16.5731 8.94436C17.1774 9.84883 17.5 10.9122 17.5 12C17.4983 13.4582 16.9183 14.8562 15.8872 15.8873C14.8562 16.9184 13.4582 17.4984 12 17.5ZM12.5923 8.7676H11.1423V12.8576H14.75V11.4082H12.5923V8.7676Z" fill="black"/>
</svg>
