<svg width="24" height="24" viewBox="0 0 24 24" fill="none" xmlns="http://www.w3.org/2000/svg">
<path d="M3 21H21V12.75H3V21ZM17.3333 15.9635C17.5146 15.9635 17.6918 16.0173 17.8426 16.118C17.9933 16.2187 18.1108 16.3619 18.1802 16.5294C18.2496 16.6969 18.2678 16.8812 18.2324 17.059C18.197 17.2369 18.1097 17.4002 17.9815 17.5284C17.8533 17.6566 17.69 17.7439 17.5121 17.7793C17.3343 17.8147 17.15 17.7965 16.9825 17.7271C16.815 17.6577 16.6718 17.5402 16.5711 17.3895C16.4704 17.2387 16.4166 17.0615 16.4166 16.8802C16.4166 16.6371 16.5132 16.4039 16.6851 16.232C16.857 16.0601 17.0902 15.9635 17.3333 15.9635ZM13.6667 15.9635C13.848 15.9635 14.0252 16.0173 14.176 16.118C14.3267 16.2187 14.4442 16.3619 14.5136 16.5294C14.583 16.6969 14.6012 16.8812 14.5658 17.059C14.5304 17.2369 14.4431 17.4002 14.3149 17.5284C14.1867 17.6566 14.0234 17.7439 13.8455 17.7793C13.6677 17.8147 13.4834 17.7965 13.3159 17.7271C13.1484 17.6577 13.0052 17.5402 12.9045 17.3895C12.8038 17.2387 12.75 17.0615 12.75 16.8802C12.75 16.6371 12.8466 16.4039 13.0185 16.232C13.1904 16.0601 13.4236 15.9635 13.6667 15.9635ZM3 3V11.25H21V3H3ZM13.6667 8.0364C13.4854 8.0364 13.3082 7.98263 13.1574 7.8819C13.0066 7.78117 12.8891 7.63799 12.8198 7.47048C12.7504 7.30297 12.7322 7.11865 12.7676 6.94082C12.803 6.763 12.8903 6.59966 13.0185 6.47146C13.1467 6.34326 13.3101 6.25596 13.4879 6.2206C13.6658 6.18524 13.8501 6.20341 14.0176 6.27281C14.1851 6.34221 14.3282 6.45972 14.429 6.61048C14.5297 6.76125 14.5834 6.93849 14.5834 7.1198C14.5834 7.36291 14.4868 7.59605 14.3149 7.76794C14.143 7.93983 13.9098 8.0364 13.6667 8.0364ZM17.3333 8.0364C17.152 8.0364 16.9747 7.98263 16.824 7.88189C16.6732 7.78115 16.5557 7.63796 16.4864 7.47044C16.417 7.30291 16.3988 7.11858 16.4342 6.94075C16.4696 6.76292 16.557 6.59958 16.6852 6.47139C16.8134 6.3432 16.9768 6.25591 17.1546 6.22058C17.3325 6.18524 17.5168 6.20344 17.6843 6.27287C17.8518 6.34229 17.995 6.45984 18.0957 6.61063C18.1963 6.76142 18.2501 6.93868 18.25 7.12C18.2499 7.36307 18.1533 7.59616 17.9814 7.76801C17.8095 7.93986 17.5764 8.0364 17.3333 8.0364Z" fill="black"/>
</svg>
