<svg width="24" height="24" viewBox="0 0 24 24" fill="none" xmlns="http://www.w3.org/2000/svg">
<path d="M19 5H13.9062L15.6915 2H13.7134L12 4.8789L10.2866 2H8.3085L10.0938 5H5C4.20435 5 3.44129 5.31607 2.87868 5.87868C2.31607 6.44129 2 7.20435 2 8V18C2 18.7956 2.31607 19.5587 2.87868 20.1213C3.44129 20.6839 4.20435 21 5 21H19C19.7956 21 20.5587 20.6839 21.1213 20.1213C21.6839 19.5587 22 18.7956 22 18V8C22 7.20435 21.6839 6.44129 21.1213 5.87868C20.5587 5.31607 19.7956 5 19 5ZM16 18H5V8H16V18ZM19 14.4C18.7627 14.4 18.5307 14.3296 18.3333 14.1978C18.136 14.0659 17.9822 13.8785 17.8913 13.6592C17.8005 13.4399 17.7768 13.1987 17.8231 12.9659C17.8694 12.7331 17.9836 12.5193 18.1515 12.3515C18.3193 12.1836 18.5331 12.0694 18.7659 12.0231C18.9987 11.9768 19.24 12.0005 19.4592 12.0913C19.6785 12.1822 19.8659 12.336 19.9978 12.5333C20.1296 12.7307 20.2 12.9627 20.2 13.2C20.2 13.5183 20.0736 13.8235 19.8485 14.0485C19.6235 14.2736 19.3183 14.4 19 14.4ZM19 10.4C18.7627 10.4 18.5307 10.3296 18.3333 10.1978C18.136 10.0659 17.9822 9.87849 17.8913 9.65922C17.8005 9.43995 17.7768 9.19867 17.8231 8.96589C17.8694 8.73311 17.9836 8.51929 18.1515 8.35147C18.3193 8.18365 18.5331 8.06936 18.7659 8.02306C18.9987 7.97676 19.24 8.00052 19.4592 8.09134C19.6785 8.18217 19.8659 8.33598 19.9978 8.53332C20.1296 8.73065 20.2 8.96266 20.2 9.2C20.2 9.51826 20.0736 9.82348 19.8485 10.0485C19.6235 10.2736 19.3183 10.4 19 10.4Z" fill="black"/>
</svg>
