<svg width="24" height="24" viewBox="0 0 24 24" fill="none" xmlns="http://www.w3.org/2000/svg">
<path d="M15.5 2H8.5C7.83696 2 7.20107 2.26339 6.73223 2.73223C6.26339 3.20107 6 3.83696 6 4.5V19.5C6 20.163 6.26339 20.7989 6.73223 21.2678C7.20107 21.7366 7.83696 22 8.5 22H15.5C16.163 22 16.7989 21.7366 17.2678 21.2678C17.7366 20.7989 18 20.163 18 19.5V4.5C18 3.83696 17.7366 3.20107 17.2678 2.73223C16.7989 2.26339 16.163 2 15.5 2ZM12.25 15H11.75V11.0278H12.25V15ZM12 9.5729C11.9011 9.5729 11.8044 9.54358 11.7222 9.48864C11.64 9.43369 11.5759 9.35561 11.5381 9.26424C11.5002 9.17288 11.4903 9.07235 11.5096 8.97536C11.5289 8.87836 11.5765 8.78927 11.6464 8.71935C11.7164 8.64942 11.8055 8.6018 11.9025 8.58251C11.9994 8.56321 12.1 8.57312 12.1913 8.61096C12.2827 8.6488 12.3608 8.71289 12.4157 8.79511C12.4707 8.87734 12.5 8.97401 12.5 9.0729C12.5 9.20551 12.4473 9.33269 12.3536 9.42645C12.2598 9.52022 12.1326 9.5729 12 9.5729Z" fill="black"/>
</svg>
