<svg width="24" height="24" viewBox="0 0 24 24" fill="none" xmlns="http://www.w3.org/2000/svg">
<path d="M19 6H17.1416L15.4092 3H8.5908L6.8584 6H5C4.20462 6.00087 3.44206 6.31722 2.87964 6.87964C2.31722 7.44206 2.00087 8.20462 2 9V18C2.00087 18.7954 2.31722 19.5579 2.87964 20.1204C3.44206 20.6828 4.20462 20.9991 5 21H19C19.7954 20.9991 20.5579 20.6828 21.1204 20.1204C21.6828 19.5579 21.9991 18.7954 22 18V9C21.9991 8.20462 21.6828 7.44206 21.1204 6.87964C20.5579 6.31722 19.7954 6.00087 19 6ZM20 18C19.9997 18.2651 19.8943 18.5193 19.7068 18.7068C19.5193 18.8943 19.2651 18.9997 19 19H5C4.73487 18.9997 4.48069 18.8943 4.29321 18.7068C4.10574 18.5193 4.00029 18.2651 4 18V9C4.00029 8.73487 4.10574 8.48069 4.29321 8.29321C4.48069 8.10574 4.73487 8.00029 5 8H8.0129L8.59 7L9.7454 5H14.2546L15.41 7L15.9874 8H19C19.2651 8.00029 19.5193 8.10574 19.7068 8.29321C19.8943 8.48069 19.9997 8.73487 20 9V18ZM11.875 13.75C12.2065 13.75 12.5245 13.6183 12.7589 13.3839C12.9933 13.1495 13.125 12.8315 13.125 12.5V10.1665C13.125 9.83498 12.9933 9.51704 12.7589 9.28262C12.5245 9.0482 12.2065 8.9165 11.875 8.9165C11.5435 8.9165 11.2255 9.0482 10.9911 9.28262C10.7567 9.51704 10.625 9.83498 10.625 10.1665V12.5C10.625 12.8315 10.7567 13.1495 10.9911 13.3839C11.2255 13.6183 11.5435 13.75 11.875 13.75ZM11.875 14.8281C11.2376 14.8269 10.6237 14.5873 10.154 14.1566C9.6842 13.7258 9.39251 13.1349 9.3362 12.5H7.9362C7.98861 13.3845 8.33618 14.2258 8.92332 14.8893C9.51045 15.5529 10.3032 16.0003 11.1747 16.16V17.5H12.5747V16.16C13.4462 16.0003 14.239 15.5529 14.8261 14.8893C15.4132 14.2258 15.7609 13.3845 15.8133 12.5H14.4133C14.357 13.1348 14.0654 13.7256 13.5957 14.1564C13.1261 14.5872 12.5123 14.8267 11.875 14.8281Z" fill="black"/>
</svg>
