<svg width="24" height="24" viewBox="0 0 24 24" fill="none" xmlns="http://www.w3.org/2000/svg">
<path d="M15.5 2H8.5C7.83696 2 7.20107 2.26339 6.73223 2.73223C6.26339 3.20107 6 3.83696 6 4.5V19.5C6 20.163 6.26339 20.7989 6.73223 21.2678C7.20107 21.7366 7.83696 22 8.5 22H15.5C16.163 22 16.7989 21.7366 17.2678 21.2678C17.7366 20.7989 18 20.163 18 19.5V4.5C18 3.83696 17.7366 3.20107 17.2678 2.73223C16.7989 2.26339 16.163 2 15.5 2ZM12.75 15H11.25V11.6945H12.75V15ZM12 10.5729C11.8022 10.5729 11.6089 10.5143 11.4444 10.4044C11.28 10.2945 11.1518 10.1383 11.0761 9.95558C11.0004 9.77286 10.9806 9.57179 11.0192 9.37781C11.0578 9.18383 11.153 9.00565 11.2929 8.86579C11.4327 8.72594 11.6109 8.6307 11.8049 8.59211C11.9989 8.55353 12.2 8.57333 12.3827 8.64902C12.5654 8.72471 12.7216 8.85288 12.8315 9.01733C12.9414 9.18178 13 9.37512 13 9.5729C13 9.83812 12.8946 10.0925 12.7071 10.28C12.5196 10.4675 12.2652 10.5729 12 10.5729Z" fill="black"/>
</svg>
