<svg width="24" height="24" viewBox="0 0 24 24" fill="none" xmlns="http://www.w3.org/2000/svg">
<path d="M12 2C10.0222 2 8.08879 2.58649 6.4443 3.6853C4.79981 4.78412 3.51809 6.3459 2.76121 8.17317C2.00433 10.0004 1.8063 12.0111 2.19215 13.9509C2.578 15.8907 3.53041 17.6725 4.92894 19.0711C6.32746 20.4696 8.10929 21.422 10.0491 21.8079C11.9889 22.1937 13.9996 21.9957 15.8268 21.2388C17.6541 20.4819 19.2159 19.2002 20.3147 17.5557C21.4135 15.9112 22 13.9778 22 12C22 10.6868 21.7413 9.38642 21.2388 8.17317C20.7363 6.95991 19.9997 5.85752 19.0711 4.92893C18.1425 4.00035 17.0401 3.26375 15.8268 2.7612C14.6136 2.25866 13.3132 2 12 2ZM12 20C10.4178 20 8.87104 19.5308 7.55544 18.6518C6.23985 17.7727 5.21447 16.5233 4.60897 15.0615C4.00347 13.5997 3.84504 11.9911 4.15372 10.4393C4.4624 8.88743 5.22433 7.46197 6.34315 6.34315C7.46197 5.22433 8.88743 4.4624 10.4393 4.15372C11.9911 3.84504 13.5997 4.00346 15.0615 4.60896C16.5233 5.21447 17.7727 6.23984 18.6518 7.55544C19.5308 8.87103 20 10.4177 20 12C19.9976 14.121 19.154 16.1544 17.6542 17.6542C16.1544 19.154 14.121 19.9976 12 20ZM15.6445 10.65C15.3775 10.65 15.1165 10.7292 14.8945 10.8775C14.6725 11.0259 14.4994 11.2367 14.3973 11.4834C14.2951 11.7301 14.2684 12.0015 14.3204 12.2634C14.3725 12.5252 14.5011 12.7658 14.6899 12.9546C14.8787 13.1434 15.1193 13.272 15.3811 13.3241C15.643 13.3762 15.9144 13.3494 16.1611 13.2472C16.4078 13.1451 16.6186 12.972 16.767 12.75C16.9153 12.528 16.9945 12.267 16.9945 12C16.9945 11.8227 16.9596 11.6472 16.8917 11.4834C16.8239 11.3196 16.7245 11.1708 16.5991 11.0454C16.4737 10.92 16.3249 10.8206 16.1611 10.7528C15.9973 10.6849 15.8218 10.65 15.6445 10.65ZM8.3555 10.65C8.0885 10.65 7.82751 10.7292 7.60551 10.8776C7.38352 11.0259 7.2105 11.2368 7.10834 11.4834C7.00618 11.7301 6.97945 12.0016 7.03156 12.2634C7.08366 12.5253 7.21224 12.7658 7.40105 12.9546C7.58985 13.1434 7.8304 13.272 8.09227 13.3241C8.35414 13.3761 8.62558 13.3494 8.87225 13.2472C9.11892 13.145 9.32976 12.972 9.4781 12.75C9.62643 12.528 9.7056 12.267 9.7056 12C9.7056 11.8227 9.67068 11.6472 9.60283 11.4834C9.53498 11.3196 9.43553 11.1707 9.31016 11.0454C9.18479 10.92 9.03596 10.8206 8.87216 10.7527C8.70836 10.6849 8.5328 10.65 8.3555 10.65ZM12 5.5874C11.5495 5.5874 11.1091 5.72099 10.7345 5.97128C10.3599 6.22157 10.068 6.57731 9.89559 6.99352C9.72319 7.40974 9.67808 7.86773 9.76597 8.30958C9.85386 8.75143 10.0708 9.15729 10.3894 9.47585C10.7079 9.7944 11.1138 10.0113 11.5556 10.0992C11.9975 10.1871 12.4555 10.142 12.8717 9.96961C13.2879 9.79721 13.6436 9.50526 13.8939 9.13068C14.1442 8.7561 14.2778 8.31571 14.2778 7.8652C14.2778 7.56607 14.2189 7.26987 14.1044 6.99351C13.99 6.71715 13.8222 6.46604 13.6107 6.25452C13.3992 6.04301 13.1481 5.87523 12.8717 5.76076C12.5953 5.64629 12.2991 5.58739 12 5.5874ZM12 8.6429C11.8462 8.6429 11.6958 8.59728 11.5679 8.51181C11.44 8.42634 11.3403 8.30486 11.2814 8.16273C11.2225 8.0206 11.2071 7.8642 11.2372 7.71332C11.2672 7.56244 11.3413 7.42385 11.4501 7.31508C11.5588 7.2063 11.6974 7.13223 11.8483 7.10223C11.9992 7.07223 12.1556 7.08765 12.2977 7.14654C12.4398 7.20542 12.5613 7.30513 12.6468 7.43305C12.7322 7.56097 12.7778 7.71136 12.7778 7.8652C12.7776 8.07141 12.6956 8.26911 12.5498 8.41492C12.4039 8.56072 12.2062 8.64271 12 8.6429Z" fill="black"/>
</svg>
