<svg width="24" height="24" viewBox="0 0 24 24" fill="none" xmlns="http://www.w3.org/2000/svg">
<path d="M12 2C10.6868 2 9.38642 2.25866 8.17317 2.7612C6.95991 3.26375 5.85752 4.00035 4.92893 4.92893C3.05357 6.8043 2 9.34784 2 12V16C2 16.7956 2.31607 17.5587 2.87868 18.1213C3.44129 18.6839 4.20435 19 5 19H7V11H5C4.26504 11.0021 3.55683 11.276 3.0117 11.7689C3.0692 9.4232 4.04142 7.19291 5.72078 5.5542C7.40015 3.9155 9.65359 2.99823 12 2.99823C14.3464 2.99823 16.5999 3.9155 18.2792 5.5542C19.9586 7.19291 20.9308 9.4232 20.9883 11.7689C20.4432 11.276 19.735 11.0021 19 11H17V19H19C19.7403 18.9981 20.4533 18.7205 21 18.2214V19C21 19.7956 20.6839 20.5587 20.1213 21.1213C19.5587 21.6839 18.7956 22 18 22H12V23H18C19.0609 23 20.0783 22.5786 20.8284 21.8284C21.5786 21.0783 22 20.0609 22 19V12C22 10.6868 21.7413 9.38642 21.2388 8.17317C20.7362 6.95991 19.9997 5.85752 19.0711 4.92893C18.1425 4.00035 17.0401 3.26375 15.8268 2.7612C14.6136 2.25866 13.3132 2 12 2Z" fill="black"/>
</svg>
