<svg width="24" height="24" viewBox="0 0 24 24" fill="none" xmlns="http://www.w3.org/2000/svg">
<path d="M19 10V12C19 13.8565 18.2625 15.637 16.9497 16.9497C15.637 18.2625 13.8565 19 12 19C10.1435 19 8.36301 18.2625 7.05025 16.9497C5.7375 15.637 5 13.8565 5 12V10H4V12C4.00093 14.034 4.77717 15.9911 6.17062 17.4727C7.56407 18.9544 9.46992 19.8491 11.5 19.9747V23H12.5V19.9747C14.5301 19.8491 16.4359 18.9544 17.8294 17.4727C19.2228 15.9911 19.9991 14.034 20 12V10H19ZM12 16C13.0605 15.999 14.0774 15.5772 14.8273 14.8273C15.5772 14.0774 15.999 13.0605 16 12V5C16 3.93913 15.5786 2.92172 14.8284 2.17157C14.0783 1.42143 13.0609 1 12 1C10.9391 1 9.92172 1.42143 9.17157 2.17157C8.42143 2.92172 8 3.93913 8 5V12C8.00103 13.0605 8.42279 14.0774 9.17271 14.8273C9.92264 15.5772 10.9395 15.999 12 16ZM9 5C9 4.20435 9.31607 3.44129 9.87868 2.87868C10.4413 2.31607 11.2044 2 12 2C12.7956 2 13.5587 2.31607 14.1213 2.87868C14.6839 3.44129 15 4.20435 15 5V12C15 12.7956 14.6839 13.5587 14.1213 14.1213C13.5587 14.6839 12.7956 15 12 15C11.2044 15 10.4413 14.6839 9.87868 14.1213C9.31607 13.5587 9 12.7956 9 12V5Z" fill="black"/>
</svg>
