<svg width="24" height="24" viewBox="0 0 24 24" fill="none" xmlns="http://www.w3.org/2000/svg">
<path d="M11.8333 1.37108C12.5887 1.36887 13.337 1.51664 14.0349 1.80581C14.7327 2.09499 15.3663 2.51982 15.8987 3.05568L16.2523 2.70208C15.6721 2.1216 14.9832 1.66113 14.225 1.34696C13.4668 1.0328 12.6541 0.871094 11.8334 0.871094C11.0126 0.871094 10.1999 1.0328 9.44172 1.34696C8.6835 1.66113 7.99461 2.1216 7.4144 2.70208L7.7679 3.05568C8.30034 2.51982 8.93385 2.09499 9.63171 1.80581C10.3296 1.51664 11.0779 1.36887 11.8333 1.37108ZM7.2375 8.62498H6.7625V10.7625H4.625V11.2375H6.7625V13.375H7.2375V11.2375H9.375V10.7625H7.2375V8.62498ZM17 8.49998C16.4216 8.49999 15.8611 8.70056 15.414 9.06749C14.9669 9.43443 14.6609 9.94504 14.5481 10.5123C14.4353 11.0796 14.5226 11.6684 14.7953 12.1785C15.068 12.6886 15.509 13.0884 16.0434 13.3097C16.5778 13.531 17.1724 13.5602 17.7258 13.3923C18.2793 13.2244 18.7574 12.8698 19.0788 12.3889C19.4001 11.9079 19.5447 11.3305 19.488 10.7549C19.4313 10.1793 19.1768 9.64115 18.7678 9.23218C18.5359 8.99969 18.2603 8.81532 17.957 8.68966C17.6536 8.56401 17.3284 8.49954 17 8.49998ZM18.4142 12.4142C18.087 12.7414 17.6565 12.945 17.196 12.9903C16.7355 13.0357 16.2736 12.92 15.8888 12.6629C15.5041 12.4058 15.2204 12.0233 15.0861 11.5805C14.9518 11.1377 14.9752 10.6621 15.1522 10.2346C15.3293 9.80708 15.6492 9.45421 16.0572 9.2361C16.4653 9.01798 16.9364 8.94811 17.3902 9.03839C17.844 9.12866 18.2525 9.3735 18.546 9.73119C18.8396 10.0889 19 10.5373 19 11C19.0007 11.2627 18.9493 11.523 18.8487 11.7658C18.7482 12.0085 18.6005 12.2289 18.4142 12.4142ZM18 4.99998H6C5.34339 4.99998 4.69321 5.12931 4.08658 5.38058C3.47995 5.63186 2.92876 6.00015 2.46447 6.46445C1.52678 7.40213 1 8.6739 1 9.99998V19.1346C0.99997 19.8228 1.24762 20.488 1.69766 21.0086C2.14771 21.5292 2.7701 21.8705 3.45105 21.97C4.13199 22.0695 4.82601 21.9206 5.40623 21.5506C5.98644 21.1805 6.41409 20.614 6.611 19.9546L7.4936 17H16.5064L17.389 19.9547C17.5859 20.6141 18.0136 21.1806 18.5938 21.5507C19.174 21.9207 19.868 22.0696 20.549 21.9701C21.2299 21.8706 21.8523 21.5293 22.3023 21.0087C22.7524 20.4881 23 19.8229 23 19.1347V9.99998C23 9.34337 22.8707 8.69319 22.6194 8.08656C22.3681 7.47993 21.9998 6.92874 21.5355 6.46445C21.0712 6.00015 20.52 5.63186 19.9134 5.38058C19.3068 5.12931 18.6566 4.99998 18 4.99998ZM22.5 19.1346C22.5 19.7027 22.2956 20.2518 21.9241 20.6816C21.5526 21.1114 21.0388 21.3931 20.4767 21.4753C19.9146 21.5574 19.3416 21.4346 18.8627 21.1291C18.3837 20.8236 18.0307 20.3559 17.8681 19.8116L16.9855 16.8569L16.8789 16.5H7.1211L7.0145 16.8569L6.1319 19.8116C5.96935 20.3559 5.61631 20.8236 5.13733 21.1291C4.65836 21.4346 4.08543 21.5574 3.52331 21.4753C2.96118 21.3931 2.4474 21.1114 2.07589 20.6816C1.70438 20.2518 1.49996 19.7027 1.5 19.1346V9.99998C1.50135 8.80692 1.97589 7.66311 2.81951 6.81949C3.66313 5.97587 4.80694 5.50133 6 5.49998H18C19.1931 5.50133 20.3369 5.97587 21.1805 6.81949C22.0241 7.66311 22.4986 8.80692 22.5 9.99998V19.1346Z" fill="black"/>
</svg>
