<svg width="24" height="24" viewBox="0 0 24 24" fill="none" xmlns="http://www.w3.org/2000/svg">
<path d="M12 5.6666C11.8011 5.6666 11.6103 5.74562 11.4697 5.88627C11.329 6.02692 11.25 6.21769 11.25 6.4166V8.9166C11.25 9.11551 11.329 9.30628 11.4697 9.44693C11.6103 9.58758 11.8011 9.6666 12 9.6666C12.1989 9.6666 12.3897 9.58758 12.5303 9.44693C12.671 9.30628 12.75 9.11551 12.75 8.9166V6.4166C12.75 6.21769 12.671 6.02692 12.5303 5.88627C12.3897 5.74562 12.1989 5.6666 12 5.6666ZM14 2H10C8.67392 2 7.40215 2.52678 6.46447 3.46447C5.52678 4.40215 5 5.67392 5 7V15C5 16.8565 5.7375 18.637 7.05025 19.9497C8.36301 21.2625 10.1435 22 12 22C13.8565 22 15.637 21.2625 16.9497 19.9497C18.2625 18.637 19 16.8565 19 15V7C19 5.67392 18.4732 4.40215 17.5355 3.46447C16.5979 2.52678 15.3261 2 14 2ZM17.5 15C17.5 16.4587 16.9205 17.8576 15.8891 18.8891C14.8576 19.9205 13.4587 20.5 12 20.5C10.5413 20.5 9.14236 19.9205 8.11091 18.8891C7.07946 17.8576 6.5 16.4587 6.5 15V7C6.50106 6.07207 6.87015 5.18244 7.5263 4.5263C8.18244 3.87015 9.07207 3.50106 10 3.5H14C14.9279 3.50106 15.8176 3.87015 16.4737 4.5263C17.1299 5.18244 17.4989 6.07207 17.5 7V15Z" fill="black"/>
</svg>
