<svg width="24" height="24" viewBox="0 0 24 24" fill="none" xmlns="http://www.w3.org/2000/svg">
<path d="M20.5 5H12.25V3.25C12.2506 2.78605 12.4351 2.34127 12.7632 2.01321C13.0913 1.68514 13.536 1.50058 14 1.5H16V1H14C13.4035 1.00082 12.8317 1.23814 12.4099 1.65992C11.9881 2.08169 11.7508 2.65351 11.75 3.25V5H3.5C2.83696 5 2.20107 5.26339 1.73223 5.73223C1.26339 6.20107 1 6.83696 1 7.5V18.5C1 19.163 1.26339 19.7989 1.73223 20.2678C2.20107 20.7366 2.83696 21 3.5 21H20.5C21.163 21 21.7989 20.7366 22.2678 20.2678C22.7366 19.7989 23 19.163 23 18.5V7.5C23 6.83696 22.7366 6.20107 22.2678 5.73223C21.7989 5.26339 21.163 5 20.5 5ZM22.5 18.5C22.4994 19.0302 22.2885 19.5386 21.9135 19.9135C21.5386 20.2885 21.0302 20.4994 20.5 20.5H3.5C2.96975 20.4994 2.4614 20.2885 2.08646 19.9135C1.71152 19.5386 1.50061 19.0302 1.5 18.5V7.5C1.50061 6.96975 1.71152 6.4614 2.08646 6.08646C2.4614 5.71152 2.96975 5.50061 3.5 5.5H20.5C21.0302 5.50061 21.5386 5.71152 21.9135 6.08646C22.2885 6.4614 22.4994 6.96975 22.5 7.5V18.5ZM4 10.5H7V8H4V10.5ZM4.5 8.5H6.5V10H4.5V8.5ZM17 10.5H20V8H17V10.5ZM17.5 8.5H19.5V10H17.5V8.5ZM11.3334 8H8.3334V10.5H11.3334V8ZM10.8334 10H8.8334V8.5H10.8334V10ZM12.6667 10.5H15.6667V8H12.6667V10.5ZM13.1667 8.5H15.1667V10H13.1667V8.5ZM4 18H7V15.5H4V18ZM4.5 16H6.5V17.5H4.5V16ZM17 18H20V15.5H17V18ZM17.5 16H19.5V17.5H17.5V16ZM8.3334 18H15.6667V15.5H8.3334V18ZM8.8334 16H15.1667V17.5H8.8334V16ZM4 14.25H7V11.75H4V14.25ZM4.5 12.25H6.5V13.75H4.5V12.25ZM17 14.25H20V11.75H17V14.25ZM17.5 12.25H19.5V13.75H17.5V12.25ZM11.3334 11.75H8.3334V14.25H11.3334V11.75ZM10.8334 13.75H8.8334V12.25H10.8334V13.75ZM12.6667 14.25H15.6667V11.75H12.6667V14.25ZM13.1667 12.25H15.1667V13.75H13.1667V12.25Z" fill="black"/>
</svg>
