<svg width="24" height="24" viewBox="0 0 24 24" fill="none" xmlns="http://www.w3.org/2000/svg">
<path d="M12 14.6766C11.8418 14.6766 11.6871 14.7235 11.5555 14.8114C11.424 14.8993 11.3214 15.0243 11.2609 15.1705C11.2003 15.3166 11.1845 15.4775 11.2153 15.6327C11.2462 15.7879 11.3224 15.9304 11.4343 16.0423C11.5462 16.1542 11.6887 16.2304 11.8439 16.2612C11.9991 16.2921 12.1599 16.2763 12.3061 16.2157C12.4523 16.1552 12.5772 16.0526 12.6652 15.9211C12.7531 15.7895 12.8 15.6348 12.8 15.4766C12.7997 15.2645 12.7154 15.0612 12.5654 14.9112C12.4154 14.7612 12.2121 14.6768 12 14.6766ZM17.4443 11.2C17.2861 11.2 17.1314 11.2469 16.9998 11.3348C16.8683 11.4227 16.7657 11.5477 16.7052 11.6939C16.6446 11.84 16.6288 12.0009 16.6596 12.1561C16.6905 12.3113 16.7667 12.4538 16.8786 12.5657C16.9905 12.6776 17.133 12.7538 17.2882 12.7846C17.4434 12.8155 17.6042 12.7997 17.7504 12.7391C17.8966 12.6786 18.0215 12.576 18.1095 12.4445C18.1974 12.3129 18.2443 12.1582 18.2443 12C18.244 11.7879 18.1597 11.5846 18.0097 11.4346C17.8597 11.2846 17.6564 11.2002 17.4443 11.2ZM6.55568 11.2C6.39745 11.2 6.24278 11.2469 6.11122 11.3348C5.97966 11.4227 5.87712 11.5477 5.81657 11.6939C5.75602 11.84 5.74018 12.0009 5.77105 12.1561C5.80192 12.3113 5.87811 12.4538 5.98999 12.5657C6.10187 12.6776 6.24442 12.7538 6.3996 12.7846C6.55479 12.8155 6.71564 12.7997 6.86182 12.7391C7.00801 12.6786 7.13295 12.576 7.22085 12.4445C7.30876 12.3129 7.35568 12.1582 7.35568 12C7.35539 11.7879 7.27101 11.5846 7.12104 11.4346C6.97108 11.2847 6.76776 11.2003 6.55568 11.2ZM18.9641 5H5.03588L0.571777 12L5.03588 19H18.9641L23.4282 12L18.9641 5ZM6.55568 13.7C6.21945 13.7 5.89077 13.6003 5.61121 13.4135C5.33164 13.2267 5.11375 12.9612 4.98508 12.6506C4.85641 12.3399 4.82275 11.9981 4.88834 11.6683C4.95394 11.3386 5.11585 11.0357 5.3536 10.7979C5.59134 10.5602 5.89426 10.3983 6.22402 10.3327C6.55379 10.2671 6.8956 10.3007 7.20624 10.4294C7.51687 10.5581 7.78238 10.776 7.96918 11.0555C8.15597 11.3351 8.25568 11.6638 8.25568 12C8.25568 12.4509 8.07657 12.8833 7.75776 13.2021C7.43895 13.5209 7.00655 13.7 6.55568 13.7ZM12 17.1766C11.6637 17.1766 11.3351 17.0769 11.0555 16.8901C10.7759 16.7033 10.5581 16.4378 10.4294 16.1272C10.3007 15.8165 10.267 15.4747 10.3326 15.1449C10.3982 14.8152 10.5601 14.5123 10.7979 14.2745C11.0356 14.0368 11.3386 13.8749 11.6683 13.8093C11.9981 13.7437 12.3399 13.7773 12.6505 13.906C12.9612 14.0347 13.2267 14.2526 13.4135 14.5321C13.6003 14.8117 13.7 15.1404 13.7 15.4766C13.7 15.9275 13.5209 16.3599 13.2021 16.6787C12.8832 16.9975 12.4508 17.1766 12 17.1766ZM17.4443 13.7C17.108 13.7 16.7794 13.6003 16.4998 13.4135C16.2202 13.2267 16.0024 12.9612 15.8737 12.6506C15.745 12.3399 15.7113 11.9981 15.7769 11.6683C15.8425 11.3386 16.0044 11.0357 16.2422 10.7979C16.4799 10.5602 16.7829 10.3983 17.1126 10.3327C17.4424 10.2671 17.7842 10.3007 18.0948 10.4294C18.4055 10.5581 18.671 10.776 18.8578 11.0555C19.0446 11.3351 19.1443 11.6638 19.1443 12C19.1443 12.4509 18.9652 12.8833 18.6464 13.2021C18.3275 13.5209 17.8951 13.7 17.4443 13.7Z" fill="black"/>
</svg>
