<svg width="24" height="24" viewBox="0 0 24 24" fill="none" xmlns="http://www.w3.org/2000/svg">
<path d="M15.5 3H8.5C7.83696 3 7.20108 3.26339 6.73223 3.73223C6.26339 4.20107 6 4.83696 6 5.5V18.5C6 19.163 6.26339 19.7989 6.73223 20.2678C7.20108 20.7366 7.83696 21 8.5 21H15.5C16.163 21 16.7989 20.7366 17.2678 20.2678C17.7366 19.7989 18 19.163 18 18.5V5.5C18 4.83696 17.7366 4.20107 17.2678 3.73223C16.7989 3.26339 16.163 3 15.5 3ZM16.5 18.5C16.4997 18.7651 16.3943 19.0193 16.2068 19.2068C16.0193 19.3943 15.7651 19.4997 15.5 19.5H8.5C8.23487 19.4997 7.98069 19.3943 7.79322 19.2068C7.60574 19.0193 7.50029 18.7651 7.5 18.5V5.5C7.50029 5.23487 7.60574 4.98069 7.79322 4.79321C7.98069 4.60574 8.23487 4.50029 8.5 4.5H15.5C15.7651 4.50029 16.0193 4.60574 16.2068 4.79321C16.3943 4.98069 16.4997 5.23487 16.5 5.5V18.5ZM14 10C14 9.46957 13.7893 8.96086 13.4142 8.58579C13.0391 8.21071 12.5304 8 12 8C11.4696 8 10.9609 8.21071 10.5858 8.58579C10.2107 8.96086 10 9.46957 10 10V11H9V15H15V11H14V10ZM11.1 10C11.1 9.76131 11.1948 9.53239 11.3636 9.3636C11.5324 9.19482 11.7613 9.1 12 9.1C12.2387 9.1 12.4676 9.19482 12.6364 9.3636C12.8052 9.53239 12.9 9.76131 12.9 10V11H11.1V10ZM13.8 13.8H10.2V12.2549H13.8V13.8ZM1.4194 14.5811L1.5599 14.7216L0.312302 15.9692H3.8478V12.4336L2.4794 13.8021L2.3384 13.6611C1.91092 13.2135 1.67242 12.6183 1.67251 11.9994C1.67261 11.3805 1.91128 10.7854 2.3389 10.3379C2.55652 10.1191 2.8154 9.9456 3.10053 9.82752C3.38566 9.70944 3.69139 9.6491 4 9.65V8.35C3.52053 8.34858 3.04555 8.44233 2.60257 8.62581C2.1596 8.8093 1.75744 9.07886 1.4194 9.4189C0.75559 10.1143 0.385208 11.0387 0.385208 12C0.385208 12.9613 0.75559 13.8857 1.4194 14.5811ZM22.44 9.2784L23.6876 8.0308H20.1522V11.5663L21.5206 10.1979L21.6616 10.3389C22.0892 10.7864 22.3277 11.3816 22.3277 12.0005C22.3277 12.6194 22.0892 13.2146 21.6616 13.6621C21.4439 13.881 21.185 14.0545 20.8997 14.1726C20.6145 14.2907 20.3087 14.351 20 14.35V15.65C20.4795 15.6514 20.9545 15.5576 21.3975 15.374C21.8405 15.1904 22.2426 14.9208 22.5806 14.5807C23.2444 13.8853 23.6148 12.9609 23.6148 11.9996C23.6148 11.0383 23.2444 10.1139 22.5806 9.4185L22.44 9.2784Z" fill="black"/>
</svg>
