<svg width="24" height="24" viewBox="0 0 24 24" fill="none" xmlns="http://www.w3.org/2000/svg">
<path d="M16 5.1414V3C16 2.46957 15.7893 1.96086 15.4142 1.58579C15.0391 1.21071 14.5304 1 14 1H10C9.46957 1 8.96086 1.21071 8.58579 1.58579C8.21071 1.96086 8 2.46957 8 3V5.1414C7.14297 5.36103 6.38322 5.85924 5.84018 6.5577C5.29713 7.25616 5.00159 8.11527 5 9V15C5.00161 15.8847 5.29716 16.7438 5.8402 17.4423C6.38324 18.1407 7.14298 18.639 8 18.8586V21C8 21.5304 8.21071 22.0391 8.58579 22.4142C8.96086 22.7893 9.46957 23 10 23H14C14.5304 23 15.0391 22.7893 15.4142 22.4142C15.7893 22.0391 16 21.5304 16 21V18.8586C16.857 18.639 17.6168 18.1407 18.1598 17.4423C18.7028 16.7438 18.9984 15.8847 19 15V9C18.9984 8.11527 18.7029 7.25616 18.1598 6.5577C17.6168 5.85924 16.857 5.36103 16 5.1414ZM9 3C9.00029 2.73487 9.10574 2.48069 9.29321 2.29321C9.48069 2.10574 9.73487 2.00029 10 2H14C14.2651 2.00029 14.5193 2.10574 14.7068 2.29321C14.8943 2.48069 14.9997 2.73487 15 3V5H9V3ZM15 21C14.9997 21.2651 14.8943 21.5193 14.7068 21.7068C14.5193 21.8943 14.2651 21.9997 14 22H10C9.73487 21.9997 9.48069 21.8943 9.29321 21.7068C9.10574 21.5193 9.00029 21.2651 9 21V19H15V21ZM18 15C17.9991 15.7954 17.6827 16.5579 17.1203 17.1203C16.5579 17.6827 15.7954 17.9991 15 18H9C8.20463 17.9991 7.44209 17.6827 6.87967 17.1203C6.31726 16.5579 6.0009 15.7954 6 15V9C6.0009 8.20463 6.31726 7.44209 6.87967 6.87967C7.44209 6.31726 8.20463 6.0009 9 6H15C15.7954 6.0009 16.5579 6.31726 17.1203 6.87967C17.6827 7.44209 17.9991 8.20463 18 9V15Z" fill="black"/>
</svg>
