<svg width="24" height="24" viewBox="0 0 24 24" fill="none" xmlns="http://www.w3.org/2000/svg">
<path d="M9 3.05005C9 2.85114 8.92098 2.66037 8.78033 2.51972C8.63968 2.37907 8.44891 2.30005 8.25 2.30005H5.75C5.55109 2.30005 5.36032 2.37907 5.21967 2.51972C5.07902 2.66037 5 2.85114 5 3.05005V4.00005H9V3.05005ZM19.5 5.00005H9V19H19.5C20.163 19 20.7989 18.7367 21.2678 18.2678C21.7366 17.799 22 17.1631 22 16.5V7.50005C22 6.83701 21.7366 6.20112 21.2678 5.73228C20.7989 5.26344 20.163 5.00005 19.5 5.00005ZM15.5 16C14.7089 16 13.9355 15.7655 13.2777 15.3259C12.6199 14.8864 12.1072 14.2617 11.8045 13.5308C11.5017 12.7999 11.4225 11.9956 11.5769 11.2197C11.7312 10.4438 12.1122 9.73103 12.6716 9.17162C13.231 8.61221 13.9437 8.23125 14.7196 8.07691C15.4956 7.92257 16.2998 8.00178 17.0307 8.30453C17.7616 8.60728 18.3864 9.11997 18.8259 9.77777C19.2654 10.4356 19.5 11.2089 19.5 12C19.499 13.0606 19.0772 14.0774 18.3273 14.8273C17.5774 15.5773 16.5605 15.999 15.5 16ZM2 7.50005V16.5C2 17.1631 2.26339 17.799 2.73223 18.2678C3.20107 18.7367 3.83696 19 4.5 19H7V5.00005H4.5C3.83696 5.00005 3.20107 5.26344 2.73223 5.73228C2.26339 6.20112 2 6.83701 2 7.50005Z" fill="black"/>
</svg>
