<svg width="24" height="24" viewBox="0 0 24 24" fill="none" xmlns="http://www.w3.org/2000/svg">
<path d="M11.8333 2.12107C12.4901 2.11923 13.1408 2.2477 13.7476 2.49905C14.3544 2.7504 14.9054 3.11963 15.3685 3.58537L16.7825 2.17237C16.1328 1.52208 15.3612 1.0062 14.512 0.654227C13.6628 0.302256 12.7526 0.121094 11.8333 0.121094C10.914 0.121094 10.0038 0.302256 9.15457 0.654227C8.30536 1.0062 7.53384 1.52208 6.8841 2.17237L8.2982 3.58537C8.76132 3.11964 9.31224 2.7504 9.91905 2.49905C10.5259 2.2477 11.1765 2.11923 11.8333 2.12107ZM7.8 8.49997H6.2V10.2H4.5V11.8H6.2V13.5H7.8V11.8H9.5V10.2H7.8V8.49997ZM17 8.49997C16.4216 8.49999 15.8611 8.70055 15.414 9.06749C14.9669 9.43442 14.6609 9.94503 14.5481 10.5123C14.4353 11.0796 14.5226 11.6684 14.7953 12.1785C15.068 12.6886 15.509 13.0884 16.0434 13.3097C16.5778 13.531 17.1724 13.5602 17.7258 13.3923C18.2793 13.2244 18.7574 12.8698 19.0788 12.3889C19.4001 11.9079 19.5447 11.3305 19.488 10.7549C19.4313 10.1793 19.1768 9.64115 18.7678 9.23217C18.5359 8.99968 18.2603 8.81531 17.957 8.68966C17.6536 8.564 17.3284 8.49954 17 8.49997ZM17.6364 11.6364C17.4892 11.7836 17.2954 11.8752 17.0882 11.8956C16.881 11.9161 16.6731 11.864 16.5 11.7483C16.3269 11.6326 16.1992 11.4605 16.1388 11.2612C16.0783 11.062 16.0888 10.8479 16.1685 10.6556C16.2482 10.4632 16.3921 10.3044 16.5757 10.2063C16.7594 10.1081 16.9714 10.0767 17.1756 10.1173C17.3798 10.1579 17.5636 10.2681 17.6957 10.429C17.8278 10.59 17.9 10.7918 17.9 11C17.9003 11.1182 17.8772 11.2353 17.8319 11.3446C17.7867 11.4538 17.7202 11.553 17.6364 11.6364ZM18 4.99997H6C5.34339 4.99997 4.69321 5.1293 4.08658 5.38058C3.47995 5.63185 2.92876 6.00015 2.46447 6.46444C1.52678 7.40212 1 8.67389 1 9.99997V18.4222C0.999698 19.2539 1.28916 20.0597 1.81862 20.7011C2.34808 21.3425 3.08446 21.7793 3.90114 21.9366C4.71782 22.0939 5.56379 21.9617 6.29358 21.5628C7.02338 21.164 7.5914 20.5233 7.9 19.751L9 17H15L16.1 19.751C16.4086 20.5233 16.9766 21.164 17.7064 21.5628C18.4362 21.9617 19.2822 22.0939 20.0989 21.9366C20.9155 21.7793 21.6519 21.3425 22.1814 20.7011C22.7108 20.0597 23.0003 19.2539 23 18.4222V9.99997C23 9.34336 22.8707 8.69318 22.6194 8.08656C22.3681 7.47993 21.9998 6.92873 21.5355 6.46444C21.0712 6.00015 20.52 5.63185 19.9134 5.38058C19.3068 5.1293 18.6566 4.99997 18 4.99997ZM21 18.4222C21 18.7888 20.8722 19.144 20.6388 19.4268C20.4053 19.7095 20.0806 19.9021 19.7206 19.9714C19.3605 20.0407 18.9876 19.9825 18.6658 19.8067C18.344 19.631 18.0935 19.3486 17.9573 19.0082L16.8573 16.2572L16.3541 15H7.6459L7.1431 16.2572L6.0431 19.0082C5.90706 19.3489 5.65656 19.6315 5.33469 19.8075C5.01281 19.9834 4.63967 20.0418 4.27945 19.9724C3.91923 19.903 3.59443 19.7103 3.36092 19.4274C3.12742 19.1445 2.99979 18.789 3 18.4222V9.99997C3.0009 9.2046 3.31726 8.44206 3.87967 7.87965C4.44209 7.31723 5.20463 7.00087 6 6.99997H18C18.7954 7.00087 19.5579 7.31723 20.1203 7.87965C20.6827 8.44206 20.9991 9.2046 21 9.99997V18.4222Z" fill="black"/>
</svg>
