<svg width="24" height="24" viewBox="0 0 24 24" fill="none" xmlns="http://www.w3.org/2000/svg">
<path d="M20 3H4C3.46957 3 2.96086 3.21071 2.58579 3.58579C2.21071 3.96086 2 4.46957 2 5V15C2 15.5304 2.21071 16.0391 2.58579 16.4142C2.96086 16.7893 3.46957 17 4 17H9V17.77C9 17.9557 8.9483 18.1377 8.85068 18.2957C8.75306 18.4537 8.61339 18.5813 8.4473 18.6644L7 19.3882V21H17V19.3882L15.5527 18.6646C15.3866 18.5815 15.2469 18.4538 15.1493 18.2958C15.0516 18.1378 15 17.9557 15 17.77V17H20C20.5304 17 21.0391 16.7893 21.4142 16.4142C21.7893 16.0391 22 15.5304 22 15V5C22 4.46957 21.7893 3.96086 21.4142 3.58579C21.0391 3.21071 20.5304 3 20 3ZM15.1056 19.559L15.9874 20H8.0126L8.8945 19.559C9.22753 19.3939 9.50763 19.1388 9.70303 18.8226C9.89843 18.5063 10.0013 18.1417 10 17.77V17.0206H14V17.77C13.9987 18.1417 14.1016 18.5064 14.297 18.8226C14.4924 19.1388 14.7725 19.3939 15.1056 19.559ZM21 15C20.9997 15.2651 20.8943 15.5193 20.7068 15.7068C20.5193 15.8943 20.2651 15.9997 20 16H4C3.73487 15.9997 3.48069 15.8943 3.29321 15.7068C3.10574 15.5193 3.00029 15.2651 3 15V5C3.00029 4.73487 3.10574 4.48069 3.29321 4.29321C3.48069 4.10574 3.73487 4.00029 4 4H20C20.2651 4.00029 20.5193 4.10574 20.7068 4.29321C20.8943 4.48069 20.9997 4.73487 21 5V15Z" fill="black"/>
</svg>
