<svg width="24" height="24" viewBox="0 0 24 24" fill="none" xmlns="http://www.w3.org/2000/svg">
<path d="M18.3125 3H5.68746C4.23999 4.01264 3.05811 5.35947 2.2421 6.92624C1.42608 8.493 1 10.2335 1 12C1 13.7665 1.42608 15.507 2.2421 17.0738C3.05811 18.6405 4.23999 19.9874 5.68746 21H18.3125C19.76 19.9874 20.9419 18.6405 21.7579 17.0738C22.5739 15.507 23 13.7665 23 12C23 10.2335 22.5739 8.49298 21.7579 6.92622C20.9419 5.35945 19.76 4.01263 18.3125 3ZM17.988 20H6.01196C4.76677 19.0708 3.75568 17.8637 3.05917 16.4748C2.36267 15.086 1.99998 13.5537 1.99998 12C1.99998 10.4463 2.36267 8.91403 3.05917 7.52518C3.75568 6.13633 4.76677 4.92925 6.01196 4H17.988C19.2332 4.92925 20.2442 6.13633 20.9408 7.52518C21.6373 8.91403 21.9999 10.4463 21.9999 12C21.9999 13.5537 21.6373 15.086 20.9408 16.4748C20.2442 17.8637 19.2332 19.0708 17.988 20ZM15.5 12H16.5V8.5H15.5V12ZM7.49996 12.75H8.49996V7.75H7.49996V12.75ZM12 14.2833C11.6432 14.2833 11.2899 14.3535 10.9603 14.4901C10.6307 14.6266 10.3312 14.8267 10.0789 15.079C9.82662 15.3312 9.6265 15.6307 9.48997 15.9603C9.35344 16.29 9.28316 16.6432 9.28316 17H14.7168C14.7168 16.6432 14.6465 16.29 14.51 15.9603C14.3734 15.6307 14.1733 15.3312 13.921 15.079C13.6687 14.8267 13.3692 14.6266 13.0396 14.4901C12.71 14.3535 12.3567 14.2833 12 14.2833ZM10.4221 16.1C10.5808 15.8216 10.8104 15.5901 11.0875 15.4291C11.3647 15.2681 11.6795 15.1833 12 15.1833C12.3205 15.1833 12.6353 15.2681 12.9124 15.4291C13.1895 15.5901 13.4191 15.8216 13.5779 16.1H10.4221Z" fill="black"/>
</svg>
