<svg width="24" height="24" viewBox="0 0 24 24" fill="none" xmlns="http://www.w3.org/2000/svg">
<path d="M13.591 6.76534L14.6517 5.70464C13.9478 5.00248 12.9942 4.60815 12 4.60815C11.0058 4.60815 10.0522 5.00248 9.34829 5.70464L10.409 6.76534C10.8313 6.34406 11.4035 6.10748 12 6.10748C12.5965 6.10748 13.1687 6.34406 13.591 6.76534ZM6.51999 2.81644L7.56929 3.88864C8.75498 2.73109 10.3514 2.09115 12.0084 2.10923C13.6653 2.1273 15.2474 2.80191 16.4076 3.98504L17.48 2.93594C16.0413 1.46879 14.0794 0.63224 12.0247 0.609837C9.96999 0.587434 7.99031 1.38101 6.51999 2.81644ZM12 13.8999C12.178 13.8999 12.352 13.8472 12.5 13.7483C12.648 13.6494 12.7634 13.5088 12.8315 13.3444C12.8996 13.1799 12.9174 12.9989 12.8827 12.8244C12.848 12.6498 12.7623 12.4894 12.6364 12.3635C12.5105 12.2377 12.3502 12.152 12.1756 12.1172C12.001 12.0825 11.82 12.1003 11.6556 12.1685C11.4911 12.2366 11.3506 12.3519 11.2517 12.4999C11.1528 12.6479 11.1 12.8219 11.1 12.9999C11.1 13.2386 11.1948 13.4676 11.3636 13.6363C11.5324 13.8051 11.7613 13.8999 12 13.8999ZM7.99999 20.9999C7.99999 21.5304 8.2107 22.0391 8.58578 22.4142C8.96085 22.7892 9.46956 22.9999 9.99999 22.9999H14C14.5304 22.9999 15.0391 22.7892 15.4142 22.4142C15.7893 22.0391 16 21.5304 16 20.9999V8.99994H7.99999V20.9999ZM9.43329 10.4332H14.5667V20.9999C14.5665 21.1502 14.5067 21.2942 14.4005 21.4005C14.2943 21.5067 14.1502 21.5665 14 21.5666H9.99999C9.84975 21.5665 9.70571 21.5067 9.59948 21.4005C9.49324 21.2942 9.43347 21.1502 9.43329 20.9999V10.4332Z" fill="black"/>
</svg>
