<svg width="24" height="24" viewBox="0 0 24 24" fill="none" xmlns="http://www.w3.org/2000/svg">
<path d="M15.5 2H8.5C7.83696 2 7.20107 2.26339 6.73223 2.73223C6.26339 3.20107 6 3.83696 6 4.5V19.5C6 20.163 6.26339 20.7989 6.73223 21.2678C7.20107 21.7366 7.83696 22 8.5 22H15.5C16.163 22 16.7989 21.7366 17.2678 21.2678C17.7366 20.7989 18 20.163 18 19.5V4.5C18 3.83696 17.7366 3.20107 17.2678 2.73223C16.7989 2.26339 16.163 2 15.5 2ZM12.4167 15H11.5834V11.25H12.4167V15ZM12 9.9062C11.8681 9.9062 11.7392 9.8671 11.6296 9.79383C11.52 9.72057 11.4345 9.61644 11.384 9.49461C11.3336 9.37278 11.3204 9.23873 11.3461 9.1094C11.3719 8.98007 11.4354 8.86127 11.5286 8.76804C11.6219 8.6748 11.7407 8.61131 11.87 8.5856C11.9993 8.55988 12.1334 8.5731 12.2552 8.62358C12.377 8.67405 12.4811 8.75952 12.5544 8.86917C12.6276 8.97883 12.6667 9.10774 12.6667 9.2396C12.6667 9.32715 12.6495 9.41384 12.6159 9.49472C12.5824 9.5756 12.5333 9.64909 12.4714 9.71099C12.4095 9.77289 12.336 9.82199 12.2551 9.85549C12.1742 9.88898 12.0875 9.90621 12 9.9062Z" fill="black"/>
</svg>
