<svg width="24" height="24" viewBox="0 0 24 24" fill="none" xmlns="http://www.w3.org/2000/svg">
<path d="M19.5 4H4.5C3.83696 4 3.20107 4.26339 2.73223 4.73223C2.26339 5.20107 2 5.83696 2 6.5V17.5C2 18.163 2.26339 18.7989 2.73223 19.2678C3.20107 19.7366 3.83696 20 4.5 20H19.5C20.163 20 20.7989 19.7366 21.2678 19.2678C21.7366 18.7989 22 18.163 22 17.5V6.5C22 5.83696 21.7366 5.20107 21.2678 4.73223C20.7989 4.26339 20.163 4 19.5 4ZM5.125 13.125C4.9025 13.125 4.68499 13.059 4.49998 12.9354C4.31498 12.8118 4.17078 12.6361 4.08564 12.4305C4.00049 12.225 3.97821 11.9988 4.02162 11.7805C4.06502 11.5623 4.17217 11.3618 4.3295 11.2045C4.48684 11.0472 4.68729 10.94 4.90552 10.8966C5.12375 10.8532 5.34995 10.8755 5.55552 10.9606C5.76109 11.0458 5.93679 11.19 6.0604 11.375C6.18402 11.56 6.25 11.7775 6.25 12C6.25 12.2984 6.13147 12.5845 5.9205 12.7955C5.70952 13.0065 5.42337 13.125 5.125 13.125Z" fill="black"/>
</svg>
