<svg width="24" height="24" viewBox="0 0 24 24" fill="none" xmlns="http://www.w3.org/2000/svg">
<path d="M7.8 8.5H6.2V10.2H4.5V11.8H6.2V13.5H7.8V11.8H9.5V10.2H7.8V8.5ZM17 8.5C16.4216 8.50002 15.8611 8.70058 15.414 9.06751C14.9669 9.43445 14.6609 9.94506 14.5481 10.5123C14.4353 11.0796 14.5226 11.6685 14.7953 12.1785C15.068 12.6886 15.509 13.0884 16.0434 13.3097C16.5778 13.531 17.1724 13.5602 17.7258 13.3923C18.2793 13.2244 18.7574 12.8698 19.0788 12.3889C19.4001 11.908 19.5447 11.3305 19.488 10.7549C19.4313 10.1793 19.1768 9.64117 18.7678 9.2322C18.5359 8.99971 18.2603 8.81534 17.957 8.68968C17.6536 8.56403 17.3284 8.49957 17 8.5ZM17.6364 11.6364C17.4892 11.7836 17.2954 11.8753 17.0882 11.8957C16.881 11.9161 16.6731 11.864 16.5 11.7483C16.3269 11.6327 16.1992 11.4605 16.1388 11.2613C16.0783 11.062 16.0888 10.848 16.1685 10.6556C16.2482 10.4632 16.3921 10.3044 16.5757 10.2063C16.7594 10.1081 16.9714 10.0767 17.1756 10.1173C17.3798 10.1579 17.5636 10.2681 17.6957 10.429C17.8278 10.59 17.9 10.7918 17.9 11C17.9003 11.1182 17.8772 11.2354 17.8319 11.3446C17.7867 11.4538 17.7202 11.553 17.6364 11.6364ZM18 5H13V3.7505C13.0003 3.55162 13.0794 3.36096 13.2199 3.22028C13.3605 3.07961 13.5511 3.0004 13.75 3H17V1H13.75C13.0208 1.00085 12.3218 1.29092 11.8062 1.80657C11.2907 2.32222 11.0007 3.02133 11 3.7505V5H6C5.34339 5 4.69321 5.12933 4.08658 5.3806C3.47995 5.63188 2.92876 6.00017 2.46447 6.46447C1.52678 7.40215 1 8.67392 1 10V18.4222C0.999698 19.2539 1.28916 20.0597 1.81862 20.7011C2.34808 21.3425 3.08446 21.7794 3.90114 21.9366C4.71782 22.0939 5.56379 21.9618 6.29358 21.5629C7.02338 21.164 7.5914 20.5233 7.9 19.751L9 17H15L16.1 19.751C16.4086 20.5233 16.9766 21.164 17.7064 21.5629C18.4362 21.9618 19.2822 22.0939 20.0989 21.9366C20.9155 21.7794 21.6519 21.3425 22.1814 20.7011C22.7108 20.0597 23.0003 19.2539 23 18.4222V10C23 9.34339 22.8707 8.69321 22.6194 8.08658C22.3681 7.47996 21.9998 6.92876 21.5355 6.46447C21.0712 6.00017 20.52 5.63188 19.9134 5.3806C19.3068 5.12933 18.6566 5 18 5ZM21 18.4222C21 18.7889 20.8722 19.1441 20.6388 19.4268C20.4053 19.7095 20.0806 19.9021 19.7206 19.9714C19.3605 20.0408 18.9876 19.9825 18.6658 19.8068C18.344 19.631 18.0935 19.3486 17.9573 19.0082L16.8573 16.2572L16.3541 15H7.6459L7.1431 16.2572L6.0431 19.0082C5.90706 19.3489 5.65656 19.6315 5.33469 19.8075C5.01281 19.9835 4.63967 20.0418 4.27945 19.9724C3.91923 19.9031 3.59443 19.7103 3.36092 19.4274C3.12742 19.1445 2.99979 18.789 3 18.4222V10C3.0009 9.20463 3.31726 8.44209 3.87967 7.87967C4.44209 7.31726 5.20463 7.0009 6 7H18C18.7954 7.0009 19.5579 7.31726 20.1203 7.87967C20.6827 8.44209 20.9991 9.20463 21 10V18.4222Z" fill="black"/>
</svg>
