<svg width="24" height="24" viewBox="0 0 24 24" fill="none" xmlns="http://www.w3.org/2000/svg">
<path d="M15.6445 16.35C15.9115 16.35 16.1725 16.2708 16.3945 16.1225C16.6165 15.9741 16.7896 15.7633 16.8917 15.5166C16.9939 15.2699 17.0206 14.9985 16.9686 14.7366C16.9165 14.4748 16.7879 14.2342 16.5991 14.0454C16.4103 13.8566 16.1697 13.728 15.9079 13.6759C15.646 13.6238 15.3746 13.6506 15.1279 13.7528C14.8812 13.8549 14.6704 14.028 14.522 14.25C14.3737 14.472 14.2945 14.733 14.2945 15C14.2945 15.358 14.4367 15.7014 14.6899 15.9546C14.9431 16.2078 15.2865 16.35 15.6445 16.35ZM8.3555 16.35C8.62251 16.35 8.88353 16.2709 9.10555 16.1225C9.32757 15.9742 9.50062 15.7634 9.60281 15.5167C9.705 15.27 9.73175 14.9986 9.67967 14.7367C9.62759 14.4748 9.49903 14.2343 9.31023 14.0454C9.12143 13.8566 8.88089 13.728 8.61901 13.6759C8.35713 13.6238 8.08569 13.6506 7.839 13.7528C7.59231 13.8549 7.38147 14.028 7.23312 14.25C7.08478 14.472 7.0056 14.733 7.0056 15C7.0056 15.358 7.14782 15.7014 7.40097 15.9546C7.65412 16.2077 7.99748 16.35 8.3555 16.35ZM12 11.1429C12.4505 11.1429 12.8909 11.0093 13.2655 10.759C13.6401 10.5087 13.932 10.153 14.1044 9.73675C14.2768 9.32053 14.3219 8.86254 14.234 8.42069C14.1461 7.97883 13.9292 7.57297 13.6106 7.25442C13.292 6.93586 12.8862 6.71893 12.4443 6.63105C12.0025 6.54318 11.5445 6.5883 11.1283 6.76072C10.712 6.93313 10.3563 7.2251 10.106 7.59969C9.85575 7.97429 9.72218 8.41469 9.7222 8.8652C9.72219 9.16432 9.7811 9.46052 9.89556 9.73688C10.01 10.0132 10.1778 10.2643 10.3893 10.4758C10.6008 10.6873 10.852 10.8551 11.1283 10.9696C11.4047 11.084 11.7009 11.1429 12 11.1429ZM12 8.0874C12.1538 8.0874 12.3042 8.13302 12.4321 8.21848C12.56 8.30395 12.6597 8.42542 12.7186 8.56755C12.7775 8.70967 12.7929 8.86606 12.7629 9.01694C12.7328 9.16782 12.6588 9.30641 12.55 9.41519C12.4412 9.52396 12.3026 9.59804 12.1517 9.62805C12.0009 9.65807 11.8445 9.64266 11.7023 9.58379C11.5602 9.52492 11.4387 9.42523 11.3533 9.29732C11.2678 9.16941 11.2222 9.01903 11.2222 8.8652C11.2224 8.65898 11.3044 8.46127 11.4502 8.31545C11.5961 8.16963 11.7938 8.08761 12 8.0874ZM3 3V21H21V3H3ZM19 19H5V5H19V19Z" fill="black"/>
</svg>
