<svg width="24" height="24" viewBox="0 0 24 24" fill="none" xmlns="http://www.w3.org/2000/svg">
<path d="M15.5 2H8.5C7.83696 2 7.20107 2.26339 6.73223 2.73223C6.26339 3.20107 6 3.83696 6 4.5V19.5C6 20.163 6.26339 20.7989 6.73223 21.2678C7.20107 21.7366 7.83696 22 8.5 22H15.5C16.163 22 16.7989 21.7366 17.2678 21.2678C17.7366 20.7989 18 20.163 18 19.5V4.5C18 3.83696 17.7366 3.20107 17.2678 2.73223C16.7989 2.26339 16.163 2 15.5 2ZM16 19.5C15.9998 19.6326 15.9471 19.7596 15.8534 19.8534C15.7596 19.9471 15.6326 19.9998 15.5 20H8.5C8.36744 19.9998 8.24036 19.9471 8.14662 19.8534C8.05289 19.7596 8.00016 19.6326 8 19.5V4.5C8.00016 4.36744 8.05289 4.24036 8.14662 4.14662C8.24036 4.05289 8.36744 4.00016 8.5 4H15.5C15.6326 4.00016 15.7596 4.05289 15.8534 4.14662C15.9471 4.24036 15.9998 4.36744 16 4.5V19.5ZM12 5.5C11.7528 5.5 11.5111 5.57331 11.3055 5.71066C11.1 5.84801 10.9398 6.04324 10.8452 6.27165C10.7505 6.50005 10.7258 6.75139 10.774 6.99386C10.8222 7.23634 10.9413 7.45907 11.1161 7.63388C11.2909 7.8087 11.5137 7.92775 11.7561 7.97598C11.9986 8.02421 12.2499 7.99946 12.4784 7.90485C12.7068 7.81024 12.902 7.65002 13.0393 7.44446C13.1767 7.2389 13.25 6.99723 13.25 6.75C13.25 6.41848 13.1183 6.10054 12.8839 5.86612C12.6495 5.6317 12.3315 5.5 12 5.5Z" fill="black"/>
</svg>
