<svg width="24" height="24" viewBox="0 0 24 24" fill="none" xmlns="http://www.w3.org/2000/svg">
<path d="M19 6H17.1416L15.4092 3H8.5908L6.8584 6H5C4.20462 6.00087 3.44206 6.31722 2.87964 6.87964C2.31722 7.44206 2.00087 8.20462 2 9V18C2.00087 18.7954 2.31722 19.5579 2.87964 20.1204C3.44206 20.6828 4.20462 20.9991 5 21H19C19.7954 20.9991 20.5579 20.6828 21.1204 20.1204C21.6828 19.5579 21.9991 18.7954 22 18V9C21.9991 8.20462 21.6828 7.44206 21.1204 6.87964C20.5579 6.31722 19.7954 6.00087 19 6ZM10.4521 10.44C10.4552 10.0647 10.6066 9.7058 10.8731 9.44151C11.1396 9.17722 11.4997 9.02893 11.875 9.02893C12.2504 9.02893 12.6105 9.17722 12.877 9.44151C13.1435 9.7058 13.2949 10.0647 13.298 10.44V12.677C13.2949 13.0523 13.1435 13.4112 12.877 13.6755C12.6105 13.9398 12.2504 14.0881 11.875 14.0881C11.4997 14.0881 11.1396 13.9398 10.8731 13.6755C10.6066 13.4112 10.4552 13.0523 10.4521 12.677V10.44ZM12.125 15.7146V17.5H11.625V15.7141C10.8607 15.6529 10.1473 15.3066 9.62634 14.744C9.10538 14.1814 8.81489 13.4436 8.8125 12.6768H9.3125C9.3125 13.3564 9.58248 14.0082 10.063 14.4888C10.5436 14.9693 11.1954 15.2393 11.875 15.2393C12.5546 15.2393 13.2064 14.9693 13.687 14.4888C14.1675 14.0082 14.4375 13.3564 14.4375 12.6768H14.9375C14.9351 13.4436 14.6446 14.1814 14.1237 14.744C13.6027 15.3066 12.8893 15.6529 12.125 15.7141V15.7146Z" fill="black"/>
</svg>
