<svg width="24" height="24" viewBox="0 0 24 24" fill="none" xmlns="http://www.w3.org/2000/svg">
<path d="M20 11H16V5.99997C16 5.73475 15.8946 5.4804 15.7071 5.29286C15.5196 5.10532 15.2652 4.99997 15 4.99997C14.7348 4.99997 14.4804 5.10532 14.2929 5.29286C14.1054 5.4804 14 5.73475 14 5.99997V11H4C3.46957 11 2.96086 11.2107 2.58579 11.5858C2.21071 11.9608 2 12.4695 2 13V19C2 19.5304 2.21071 20.0391 2.58579 20.4142C2.96086 20.7893 3.46957 21 4 21H20C20.5304 21 21.0391 20.7893 21.4142 20.4142C21.7893 20.0391 22 19.5304 22 19V13C22 12.4695 21.7893 11.9608 21.4142 11.5858C21.0391 11.2107 20.5304 11 20 11ZM20 19H4V13H20V19ZM7 17.15C7.22745 17.15 7.44979 17.0825 7.63891 16.9562C7.82802 16.8298 7.97542 16.6502 8.06246 16.4401C8.1495 16.2299 8.17228 15.9987 8.1279 15.7756C8.08353 15.5525 7.974 15.3476 7.81317 15.1868C7.65234 15.026 7.44743 14.9164 7.22435 14.8721C7.00128 14.8277 6.77005 14.8505 6.55991 14.9375C6.34978 15.0245 6.17017 15.1719 6.04381 15.3611C5.91745 15.5502 5.85 15.7725 5.85 16C5.85 16.305 5.97116 16.5975 6.18683 16.8131C6.40249 17.0288 6.695 17.15 7 17.15ZM12.8789 8.12107C12.6003 7.84257 12.3792 7.51191 12.2284 7.14796C12.0776 6.78401 12 6.39392 12 5.99997C12 5.60601 12.0776 5.21592 12.2284 4.85197C12.3792 4.48803 12.6003 4.15736 12.8789 3.87887L11.4648 2.46387C11.0004 2.92822 10.632 3.4795 10.3807 4.08623C10.1294 4.69295 10 5.34325 10 5.99997C10 6.65669 10.1294 7.30698 10.3807 7.91371C10.632 8.52043 11.0004 9.07171 11.4648 9.53607L12.8789 8.12107ZM18.5352 9.53607C18.9996 9.07171 19.368 8.52043 19.6193 7.91371C19.8706 7.30698 20 6.65669 20 5.99997C20 5.34325 19.8706 4.69295 19.6193 4.08623C19.368 3.4795 18.9996 2.92822 18.5352 2.46387L17.1211 3.87887C17.3997 4.15736 17.6208 4.48803 17.7716 4.85197C17.9224 5.21592 18 5.60601 18 5.99997C18 6.39392 17.9224 6.78401 17.7716 7.14796C17.6208 7.51191 17.3997 7.84257 17.1211 8.12107L18.5352 9.53607Z" fill="black"/>
</svg>
