<svg width="24" height="24" viewBox="0 0 24 24" fill="none" xmlns="http://www.w3.org/2000/svg">
<path d="M21.3315 7.7549L20.2315 8.7744C21.0471 9.65051 21.5005 10.803 21.5005 12C21.5005 13.197 21.0471 14.3495 20.2315 15.2256L21.3315 16.2456C22.4038 15.0921 22.9999 13.5755 22.9999 12.0006C22.9999 10.4257 22.4038 8.90908 21.3315 7.7556V7.7549ZM2.6685 7.7549C1.59616 8.90838 1.00011 10.425 1.00011 11.9999C1.00011 13.5748 1.59616 15.0914 2.6685 16.2449L3.769 15.2249C2.95343 14.3488 2.50001 13.1963 2.50001 11.9993C2.50001 10.8023 2.95343 9.64981 3.769 8.7737L2.6685 7.7549ZM15.5 2H8.5C7.83696 2 7.20108 2.26339 6.73224 2.73223C6.2634 3.20107 6 3.83696 6 4.5V19.5C6 20.163 6.2634 20.7989 6.73224 21.2678C7.20108 21.7366 7.83696 22 8.5 22H15.5C16.163 22 16.7989 21.7366 17.2678 21.2678C17.7366 20.7989 18 20.163 18 19.5V4.5C18 3.83696 17.7366 3.20107 17.2678 2.73223C16.7989 2.26339 16.163 2 15.5 2Z" fill="black"/>
</svg>
