<svg width="24" height="24" viewBox="0 0 24 24" fill="none" xmlns="http://www.w3.org/2000/svg">
<path d="M15.5 2H8.5C7.83696 2 7.20107 2.26339 6.73223 2.73223C6.26339 3.20107 6 3.83696 6 4.5V19.5C6 20.163 6.26339 20.7989 6.73223 21.2678C7.20107 21.7366 7.83696 22 8.5 22H15.5C16.163 22 16.7989 21.7366 17.2678 21.2678C17.7366 20.7989 18 20.163 18 19.5V4.5C18 3.83696 17.7366 3.20107 17.2678 2.73223C16.7989 2.26339 16.163 2 15.5 2ZM10.48 6.46C10.2921 6.46 10.1084 6.40428 9.95221 6.2999C9.79598 6.19551 9.67422 6.04714 9.60231 5.87355C9.53041 5.69996 9.5116 5.50895 9.54825 5.32466C9.58491 5.14038 9.67539 4.97111 9.80825 4.83825C9.94111 4.70539 10.1104 4.61491 10.2947 4.57825C10.4789 4.5416 10.67 4.56041 10.8435 4.63231C11.0171 4.70422 11.1655 4.82598 11.2699 4.98221C11.3743 5.13843 11.43 5.32211 11.43 5.51C11.43 5.76196 11.3299 6.00359 11.1518 6.18175C10.9736 6.35991 10.732 6.46 10.48 6.46ZM13.52 6.46C13.3321 6.46 13.1484 6.40428 12.9922 6.2999C12.836 6.19551 12.7142 6.04714 12.6423 5.87355C12.5704 5.69996 12.5516 5.50895 12.5883 5.32466C12.6249 5.14038 12.7154 4.97111 12.8482 4.83825C12.9811 4.70539 13.1504 4.61491 13.3347 4.57825C13.5189 4.5416 13.71 4.56041 13.8835 4.63231C14.0571 4.70422 14.2055 4.82598 14.3099 4.98221C14.4143 5.13843 14.47 5.32211 14.47 5.51C14.47 5.76196 14.3699 6.00359 14.1918 6.18175C14.0136 6.35991 13.772 6.46 13.52 6.46Z" fill="black"/>
</svg>
