<svg width="24" height="24" viewBox="0 0 24 24" fill="none" xmlns="http://www.w3.org/2000/svg">
<g clip-path="url(#clip0)">
<path d="M6 18.9999H12V17.2999H6V18.9999ZM6 12.1332H12V10.4332H6V12.1332ZM6 15.5666H12V13.8666H6V15.5666ZM13 2.99993H11C11 2.4695 10.7893 1.96079 10.4142 1.58572C10.0391 1.21064 9.53043 0.999931 9 0.999931C8.46957 0.999931 7.96086 1.21064 7.58579 1.58572C7.21071 1.96079 7 2.4695 7 2.99993H5C4.20435 2.99993 3.44129 3.316 2.87868 3.87861C2.31607 4.44122 2 5.20428 2 5.99993V19.9999C2 20.7956 2.31607 21.5586 2.87868 22.1213C3.44129 22.6839 4.20435 22.9999 5 22.9999H13C13.7956 22.9999 14.5587 22.6839 15.1213 22.1213C15.6839 21.5586 16 20.7956 16 19.9999V5.99993C16 5.20428 15.6839 4.44122 15.1213 3.87861C14.5587 3.316 13.7956 2.99993 13 2.99993ZM14 19.9999C13.9997 20.2651 13.8943 20.5192 13.7068 20.7067C13.5193 20.8942 13.2651 20.9996 13 20.9999H5C4.73487 20.9996 4.48069 20.8942 4.29321 20.7067C4.10574 20.5192 4.00029 20.2651 4 19.9999V5.99993C4.00029 5.7348 4.10574 5.48062 4.29321 5.29315C4.48069 5.10567 4.73487 5.00022 5 4.99993H13C13.2651 5.00022 13.5193 5.10567 13.7068 5.29315C13.8943 5.48062 13.9997 5.7348 14 5.99993V19.9999ZM24.0312 4.33323H21.0312V0.671631L18.0312 6.33323H21.0312V9.99483L24.0312 4.33323Z" fill="black"/>
</g>
<defs>
<clipPath id="clip0">
<rect width="24" height="24" fill="white"/>
</clipPath>
</defs>
</svg>
