<svg width="24" height="24" viewBox="0 0 24 24" fill="none" xmlns="http://www.w3.org/2000/svg">
<path d="M20.1768 18.8232L18.2886 16.9351C19.399 15.53 20.0021 13.7909 20 12V10H19.5V12C19.4998 13.6574 18.947 15.2675 17.9291 16.5756L15.412 14.0585C15.7933 13.4393 15.9968 12.7271 16 12V5C16 3.93913 15.5786 2.92172 14.8285 2.17157C14.0783 1.42143 13.0609 1 12 1C10.9392 1 9.92176 1.42143 9.17161 2.17157C8.42147 2.92172 8.00004 3.93913 8.00004 5V6.6465L4.17684 2.8232L3.82324 3.1768L8.00004 7.3535V12C7.99653 12.8304 8.25263 13.6412 8.73253 14.3189C9.21243 14.9967 9.89213 15.5075 10.6766 15.78C11.4611 16.0525 12.3111 16.073 13.1078 15.8387C13.9045 15.6043 14.608 15.1269 15.12 14.4731L17.609 16.9622C16.6024 18.1043 15.2717 18.9126 13.7941 19.2792C12.3165 19.6459 10.7622 19.5536 9.33843 19.0147C7.91462 18.4757 6.68885 17.5157 5.82445 16.2625C4.96005 15.0093 4.49806 13.5224 4.50004 12V10H4.00004V12C4.00089 14.0774 4.81033 16.0728 6.25693 17.5637C7.70352 19.0546 9.67365 19.9239 11.75 19.9874V23H12.25V19.9874C13.3337 19.9535 14.3992 19.6991 15.3813 19.2398C16.3634 18.7805 17.2416 18.1258 17.9623 17.3158L19.8232 19.1768L20.1768 18.8232ZM8.50004 5C8.50004 4.07174 8.86879 3.1815 9.52517 2.52513C10.1815 1.86875 11.0718 1.5 12 1.5C12.9283 1.5 13.8185 1.86875 14.4749 2.52513C15.1313 3.1815 15.5 4.07174 15.5 5V12C15.4961 12.5935 15.3394 13.1761 15.045 13.6915L8.50004 7.1465V5ZM12 15.5C11.0721 15.4989 10.1825 15.1299 9.52634 14.4737C8.87019 13.8176 8.5011 12.9279 8.50004 12V7.8535L14.7661 14.12C14.4423 14.5474 14.0243 14.8942 13.5445 15.1336C13.0647 15.3729 12.5362 15.4983 12 15.5Z" fill="black"/>
</svg>
