<svg width="24" height="24" viewBox="0 0 24 24" fill="none" xmlns="http://www.w3.org/2000/svg">
<path d="M3 21H21V13H3V21ZM17 15.85C17.2274 15.85 17.4498 15.9174 17.6389 16.0438C17.828 16.1702 17.9754 16.3498 18.0625 16.5599C18.1495 16.77 18.1723 17.0013 18.1279 17.2244C18.0835 17.4474 17.974 17.6523 17.8132 17.8132C17.6523 17.974 17.4474 18.0835 17.2244 18.1279C17.0013 18.1723 16.77 18.1495 16.5599 18.0625C16.3498 17.9754 16.1702 17.828 16.0438 17.6389C15.9174 17.4498 15.85 17.2274 15.85 17C15.85 16.695 15.9712 16.4025 16.1868 16.1868C16.4025 15.9712 16.695 15.85 17 15.85ZM13 15.85C13.2274 15.85 13.4498 15.9174 13.6389 16.0438C13.828 16.1702 13.9754 16.3498 14.0625 16.5599C14.1495 16.77 14.1723 17.0013 14.1279 17.2244C14.0835 17.4474 13.974 17.6523 13.8132 17.8132C13.6523 17.974 13.4474 18.0835 13.2244 18.1279C13.0013 18.1723 12.77 18.1495 12.5599 18.0625C12.3498 17.9754 12.1702 17.828 12.0438 17.6389C11.9174 17.4498 11.85 17.2274 11.85 17C11.85 16.695 11.9712 16.4025 12.1868 16.1868C12.4025 15.9712 12.695 15.85 13 15.85ZM3 3V11H21V3H3ZM13 8.15C12.7726 8.15 12.5502 8.08255 12.3611 7.95619C12.172 7.82983 12.0246 7.65022 11.9375 7.44009C11.8505 7.22995 11.8277 6.99872 11.8721 6.77565C11.9165 6.55257 12.026 6.34766 12.1868 6.18683C12.3477 6.026 12.5526 5.91647 12.7756 5.8721C12.9987 5.82772 13.23 5.8505 13.4401 5.93754C13.6502 6.02458 13.8298 6.17198 13.9562 6.36109C14.0826 6.55021 14.15 6.77255 14.15 7C14.15 7.305 14.0288 7.59751 13.8132 7.81317C13.5975 8.02884 13.305 8.15 13 8.15ZM17 8.15C16.7726 8.15 16.5502 8.08255 16.3611 7.95619C16.172 7.82983 16.0246 7.65022 15.9375 7.44009C15.8505 7.22995 15.8277 6.99872 15.8721 6.77565C15.9165 6.55257 16.026 6.34766 16.1868 6.18683C16.3477 6.026 16.5526 5.91647 16.7756 5.8721C16.9987 5.82772 17.23 5.8505 17.4401 5.93754C17.6502 6.02458 17.8298 6.17198 17.9562 6.36109C18.0826 6.55021 18.15 6.77255 18.15 7C18.15 7.305 18.0288 7.59751 17.8132 7.81317C17.5975 8.02884 17.305 8.15 17 8.15Z" fill="black"/>
</svg>
