<svg width="24" height="24" viewBox="0 0 24 24" fill="none" xmlns="http://www.w3.org/2000/svg">
<path d="M15.5 2H8.5C7.83696 2 7.20107 2.26339 6.73223 2.73223C6.26339 3.20107 6 3.83696 6 4.5V19.5C6 20.163 6.26339 20.7989 6.73223 21.2678C7.20107 21.7366 7.83696 22 8.5 22H15.5C16.163 22 16.7989 21.7366 17.2678 21.2678C17.7366 20.7989 18 20.163 18 19.5V4.5C18 3.83696 17.7366 3.20107 17.2678 2.73223C16.7989 2.26339 16.163 2 15.5 2ZM16 19.5C15.9998 19.6326 15.9471 19.7596 15.8534 19.8534C15.7596 19.9471 15.6326 19.9998 15.5 20H8.5C8.36744 19.9998 8.24036 19.9471 8.14662 19.8534C8.05289 19.7596 8.00016 19.6326 8 19.5V4.5C8.00016 4.36744 8.05289 4.24036 8.14662 4.14662C8.24036 4.05289 8.36744 4.00016 8.5 4H15.5C15.6326 4.00016 15.7596 4.05289 15.8534 4.14662C15.9471 4.24036 15.9998 4.36744 16 4.5V19.5ZM10.3834 5.5C10.1836 5.5 9.98837 5.55924 9.82227 5.67022C9.65618 5.7812 9.52673 5.93894 9.45028 6.12349C9.37384 6.30804 9.35384 6.51112 9.39281 6.70704C9.43178 6.90296 9.52797 7.08293 9.66922 7.22418C9.81047 7.36543 9.99044 7.46162 10.1864 7.50059C10.3823 7.53956 10.5854 7.51956 10.7699 7.44312C10.9545 7.36667 11.1122 7.23722 11.2232 7.07113C11.3342 6.90503 11.3934 6.70976 11.3934 6.51C11.3934 6.24213 11.287 5.98523 11.0976 5.79582C10.9082 5.60641 10.6513 5.5 10.3834 5.5ZM13.6166 5.5C13.4169 5.5001 13.2216 5.55942 13.0556 5.67046C12.8896 5.7815 12.7602 5.93927 12.6838 6.12384C12.6075 6.3084 12.5875 6.51146 12.6266 6.70735C12.6656 6.90324 12.7618 7.08315 12.9031 7.22435C13.0444 7.36556 13.2243 7.4617 13.4202 7.50063C13.6161 7.53956 13.8192 7.51953 14.0037 7.44307C14.1883 7.36661 14.346 7.23716 14.4569 7.07107C14.5679 6.90499 14.6271 6.70974 14.6271 6.51C14.6271 6.37732 14.601 6.24595 14.5502 6.12337C14.4994 6.0008 14.4249 5.88944 14.3311 5.79565C14.2373 5.70185 14.1259 5.62747 14.0033 5.57674C13.8807 5.52601 13.7493 5.49993 13.6166 5.5Z" fill="black"/>
</svg>
