<svg width="24" height="24" viewBox="0 0 24 24" fill="none" xmlns="http://www.w3.org/2000/svg">
<path d="M21 5.50001H3C2.46979 5.50073 1.96149 5.71167 1.58658 6.08659C1.21166 6.46151 1.00071 6.9698 1 7.50001V19.5C1.00071 20.0302 1.21166 20.5385 1.58658 20.9134C1.96149 21.2884 2.46979 21.4993 3 21.5H21C21.5302 21.4993 22.0385 21.2884 22.4134 20.9134C22.7883 20.5385 22.9993 20.0302 23 19.5V7.50001C22.9993 6.9698 22.7883 6.46151 22.4134 6.08659C22.0385 5.71167 21.5302 5.50073 21 5.50001ZM11 8.50001H13V10.5H11V8.50001ZM11 12.5H13V14.5H11V12.5ZM7 8.50001H9V10.5H7V8.50001ZM7 12.5H9V14.5H7V12.5ZM5 18.5H3V16.5H5V18.5ZM5 14.5H3V12.5H5V14.5ZM5 10.5H3V8.50001H5V10.5ZM17 18.5H7V16.5H17V18.5ZM17 14.5H15V12.5H17V14.5ZM17 10.5H15V8.50001H17V10.5ZM21 18.5H19V16.5H21V18.5ZM21 14.5H19V12.5H21V14.5ZM21 10.5H19V8.50001H21V10.5ZM12 1.37111C12.7554 1.3689 13.5037 1.51667 14.2016 1.80585C14.8994 2.09502 15.533 2.51985 16.0654 3.05571L16.4189 2.70211C15.8387 2.12163 15.1498 1.66114 14.3916 1.34697C13.6334 1.0328 12.8207 0.871094 12 0.871094C11.1793 0.871094 10.3666 1.0328 9.60838 1.34697C8.85017 1.66114 8.16129 2.12163 7.5811 2.70211L7.9346 3.05571C8.46704 2.51985 9.10055 2.09502 9.79842 1.80585C10.4963 1.51667 11.2446 1.3689 12 1.37111Z" fill="black"/>
</svg>
