<svg width="24" height="24" viewBox="0 0 24 24" fill="none" xmlns="http://www.w3.org/2000/svg">
<path d="M17 17.9999C17.3956 17.9999 17.7822 17.8826 18.1111 17.6629C18.44 17.4431 18.6964 17.1308 18.8478 16.7653C18.9991 16.3999 19.0387 15.9977 18.9616 15.6098C18.8844 15.2218 18.6939 14.8654 18.4142 14.5857C18.1345 14.306 17.7781 14.1155 17.3902 14.0384C17.0022 13.9612 16.6001 14.0008 16.2346 14.1522C15.8692 14.3036 15.5568 14.5599 15.3371 14.8888C15.1173 15.2177 15 15.6044 15 15.9999C15 16.5304 15.2107 17.0391 15.5858 17.4142C15.9609 17.7892 16.4696 17.9999 17 17.9999ZM17 14.4999C17.2967 14.4999 17.5867 14.5879 17.8334 14.7527C18.08 14.9176 18.2723 15.1518 18.3858 15.4259C18.4993 15.7 18.5291 16.0016 18.4712 16.2926C18.4133 16.5836 18.2704 16.8508 18.0607 17.0606C17.8509 17.2704 17.5836 17.4132 17.2926 17.4711C17.0017 17.529 16.7001 17.4993 16.426 17.3858C16.1519 17.2722 15.9176 17.08 15.7528 16.8333C15.588 16.5866 15.5 16.2966 15.5 15.9999C15.5005 15.6023 15.6586 15.221 15.9398 14.9398C16.221 14.6586 16.6023 14.5004 17 14.4999ZM20.5 5.99994H4.689L17.423 1.34524L17.252 0.875244L2.9638 6.09824L2.9654 6.10254C2.68187 6.21025 2.43774 6.40154 2.26534 6.65108C2.09294 6.90062 2.00041 7.19664 2 7.49994V19.4999C2 19.8978 2.15804 20.2793 2.43934 20.5606C2.72064 20.8419 3.10218 20.9999 3.5 20.9999H20.5C20.8978 20.9999 21.2794 20.8419 21.5607 20.5606C21.842 20.2793 22 19.8978 22 19.4999V7.49994C22 7.10212 21.842 6.72059 21.5607 6.43928C21.2794 6.15798 20.8978 5.99994 20.5 5.99994ZM2.5 7.49994C2.50029 7.23482 2.60574 6.98063 2.79321 6.79316C2.98069 6.60569 3.23487 6.50024 3.5 6.49994H15V9.99994H2.5V7.49994ZM21.5 19.4999C21.4997 19.7651 21.3943 20.0193 21.2068 20.2067C21.0193 20.3942 20.7651 20.4997 20.5 20.4999H3.5C3.23487 20.4997 2.98069 20.3942 2.79321 20.2067C2.60574 20.0193 2.50029 19.7651 2.5 19.4999V10.4999H21.5V19.4999ZM21.5 9.99994H15.5V6.49994H20.5C20.7651 6.50024 21.0193 6.60569 21.2068 6.79316C21.3943 6.98063 21.4997 7.23482 21.5 7.49994V9.99994Z" fill="black"/>
</svg>
