<svg width="24" height="24" viewBox="0 0 24 24" fill="none" xmlns="http://www.w3.org/2000/svg">
<path d="M5.4 14H6.8V10H5.4V14ZM19.5 4H4.5C3.83696 4 3.20107 4.26339 2.73223 4.73223C2.26339 5.20107 2 5.83696 2 6.5V17.5C2 18.163 2.26339 18.7989 2.73223 19.2678C3.20107 19.7366 3.83696 20 4.5 20H19.5C20.163 20 20.7989 19.7366 21.2678 19.2678C21.7366 18.7989 22 18.163 22 17.5V6.5C22 5.83696 21.7366 5.20107 21.2678 4.73223C20.7989 4.26339 20.163 4 19.5 4ZM20.5 17.5C20.4997 17.7651 20.3943 18.0193 20.2068 18.2068C20.0193 18.3943 19.7651 18.4997 19.5 18.5H4.5C4.23487 18.4997 3.98069 18.3943 3.79321 18.2068C3.60574 18.0193 3.50029 17.7651 3.5 17.5V6.5C3.50029 6.23487 3.60574 5.98069 3.79321 5.79321C3.98069 5.60574 4.23487 5.50029 4.5 5.5H19.5C19.7651 5.50029 20.0193 5.60574 20.2068 5.79321C20.3943 5.98069 20.4997 6.23487 20.5 6.5V17.5Z" fill="black"/>
</svg>
