<svg width="24" height="24" viewBox="0 0 24 24" fill="none" xmlns="http://www.w3.org/2000/svg">
<path d="M18 5H12.75V3.5836C12.7504 3.29638 12.8646 3.02102 13.0677 2.81789C13.2708 2.61477 13.5461 2.50045 13.8333 2.5H17V1H13.8333C13.1484 1.00085 12.4917 1.27333 12.0075 1.75767C11.5232 2.24202 11.2508 2.89867 11.25 3.5836V5H6C5.34339 5 4.69321 5.12933 4.08658 5.3806C3.47995 5.63188 2.92876 6.00017 2.46447 6.46447C1.52678 7.40215 1 8.67392 1 10V19.1346C0.99997 19.8228 1.24762 20.488 1.69766 21.0086C2.14771 21.5292 2.7701 21.8705 3.45105 21.97C4.13199 22.0695 4.82601 21.9206 5.40623 21.5506C5.98644 21.1805 6.41409 20.614 6.611 19.9546L7.4936 17H16.5064L17.389 19.9547C17.5859 20.6141 18.0136 21.1806 18.5938 21.5507C19.174 21.9207 19.868 22.0696 20.549 21.9701C21.2299 21.8706 21.8523 21.5293 22.3023 21.0087C22.7524 20.4881 23 19.8229 23 19.1347V10C23 9.34339 22.8707 8.69321 22.6194 8.08658C22.3681 7.47996 21.9998 6.92876 21.5355 6.46447C21.0712 6.00017 20.52 5.63188 19.9134 5.3806C19.3068 5.12933 18.6566 5 18 5ZM9.4583 11.6124H7.6124V13.4583H6.3876V11.6124H4.5417V10.3876H6.3876V8.5416H7.6124V10.3876H9.4583V11.6124ZM18.8365 12.8365C18.4116 13.2614 17.8526 13.5258 17.2546 13.5847C16.6566 13.6436 16.0567 13.4933 15.5571 13.1595C15.0575 12.8257 14.6891 12.3289 14.5146 11.7539C14.3402 11.1789 14.3706 10.5612 14.6005 10.0061C14.8304 9.45096 15.2458 8.99273 15.7757 8.70948C16.3056 8.42623 16.9174 8.33548 17.5067 8.45271C18.096 8.56993 18.6265 8.88787 19.0077 9.35236C19.3889 9.81684 19.5972 10.3991 19.5972 11C19.5976 11.3411 19.5307 11.679 19.4001 11.9942C19.2696 12.3093 19.078 12.5956 18.8365 12.8365ZM17 9.57C16.6692 9.57009 16.3486 9.68487 16.0929 9.8948C15.8373 10.1047 15.6623 10.3968 15.5978 10.7213C15.5333 11.0457 15.5833 11.3825 15.7393 11.6743C15.8953 11.966 16.1476 12.1946 16.4533 12.3212C16.7589 12.4478 17.099 12.4644 17.4156 12.3684C17.7321 12.2723 18.0056 12.0695 18.1894 11.7944C18.3732 11.5194 18.4559 11.1891 18.4235 10.8599C18.3911 10.5306 18.2455 10.2228 18.0116 9.9889C17.8791 9.85566 17.7214 9.75003 17.5478 9.67812C17.3741 9.60622 17.1879 9.56947 17 9.57Z" fill="black"/>
</svg>
