<svg width="24" height="24" viewBox="0 0 24 24" fill="none" xmlns="http://www.w3.org/2000/svg">
<path d="M19.5 5H4.5C3.83696 5 3.20107 5.26339 2.73223 5.73223C2.26339 6.20107 2 6.83696 2 7.5V16.5C2 17.163 2.26339 17.7989 2.73223 18.2678C3.20107 18.7366 3.83696 19 4.5 19H19.5C20.163 19 20.7989 18.7366 21.2678 18.2678C21.7366 17.7989 22 17.163 22 16.5V7.5C22 6.83696 21.7366 6.20107 21.2678 5.73223C20.7989 5.26339 20.163 5 19.5 5ZM7.3333 18H4.5C4.10231 17.9995 3.72104 17.8414 3.43984 17.5602C3.15863 17.279 3.00045 16.8977 3 16.5V7.5C3.00045 7.10231 3.15863 6.72104 3.43984 6.43984C3.72104 6.15863 4.10231 6.00045 4.5 6H7.3333V18ZM21 16.5C20.9995 16.8977 20.8414 17.279 20.5602 17.5602C20.279 17.8414 19.8977 17.9995 19.5 18H8.3333V6H19.5C19.8977 6.00045 20.279 6.15863 20.5602 6.43984C20.8414 6.72104 20.9995 7.10231 21 7.5V16.5ZM8 3.5C8 3.36739 7.94732 3.24021 7.85355 3.14645C7.75979 3.05268 7.63261 3 7.5 3H5.5C5.36739 3 5.24021 3.05268 5.14645 3.14645C5.05268 3.24021 5 3.36739 5 3.5V4H8V3.5ZM14.75 8.1666C13.9918 8.16658 13.2507 8.39139 12.6202 8.8126C11.9898 9.2338 11.4985 9.83249 11.2083 10.533C10.9182 11.2334 10.8422 12.0042 10.9901 12.7478C11.138 13.4914 11.5031 14.1745 12.0392 14.7106C12.5753 15.2467 13.2584 15.6118 14.002 15.7597C14.7456 15.9077 15.5164 15.8317 16.2169 15.5416C16.9173 15.2515 17.516 14.7601 17.9372 14.1297C18.3585 13.4993 18.5833 12.7582 18.5833 12C18.5822 10.9837 18.178 10.0093 17.4594 9.29061C16.7407 8.57195 15.7663 8.16771 14.75 8.1666ZM14.75 14.8333C14.1896 14.8333 13.6418 14.6672 13.1758 14.3558C12.7098 14.0445 12.3467 13.602 12.1322 13.0842C11.9177 12.5665 11.8616 11.9968 11.9709 11.4472C12.0803 10.8975 12.3501 10.3926 12.7464 9.99638C13.1426 9.60012 13.6475 9.33026 14.1972 9.22094C14.7468 9.11161 15.3165 9.16773 15.8342 9.3822C16.352 9.59666 16.7945 9.95984 17.1058 10.4258C17.4172 10.8918 17.5833 11.4396 17.5833 12C17.5825 12.7512 17.2837 13.4713 16.7525 14.0025C16.2213 14.5337 15.5012 14.8325 14.75 14.8333Z" fill="black"/>
</svg>
