<svg width="24" height="24" viewBox="0 0 24 24" fill="none" xmlns="http://www.w3.org/2000/svg">
<path d="M4 2V22H20V2H4ZM19.5 21.5H4.5V2.5H19.5V21.5ZM12 7.5625C12.2967 7.5625 12.5867 7.47453 12.8334 7.3097C13.08 7.14488 13.2723 6.91061 13.3858 6.63653C13.4994 6.36244 13.5291 6.06084 13.4712 5.76986C13.4133 5.47889 13.2704 5.21162 13.0607 5.00184C12.8509 4.79206 12.5836 4.6492 12.2926 4.59132C12.0017 4.53344 11.7001 4.56315 11.426 4.67668C11.1519 4.79021 10.9176 4.98247 10.7528 5.22914C10.588 5.47582 10.5 5.76583 10.5 6.0625C10.5 6.46032 10.658 6.84186 10.9393 7.12316C11.2206 7.40446 11.6022 7.5625 12 7.5625ZM12 5.0625C12.1978 5.0625 12.3911 5.12115 12.5556 5.23103C12.72 5.34091 12.8482 5.49709 12.9239 5.67982C12.9996 5.86254 13.0194 6.06361 12.9808 6.25759C12.9422 6.45157 12.847 6.62975 12.7071 6.76961C12.5673 6.90946 12.3891 7.0047 12.1951 7.04329C12.0011 7.08187 11.8 7.06207 11.6173 6.98638C11.4346 6.91069 11.2784 6.78252 11.1685 6.61807C11.0586 6.45362 11 6.26028 11 6.0625C11.0003 5.79737 11.1057 5.54319 11.2932 5.35571C11.4807 5.16824 11.7349 5.06279 12 5.0625ZM12 16.3438C12.3956 16.3438 12.7822 16.2265 13.1111 16.0067C13.44 15.787 13.6964 15.4746 13.8478 15.1092C13.9991 14.7437 14.0387 14.3416 13.9616 13.9536C13.8844 13.5657 13.6939 13.2093 13.4142 12.9296C13.1345 12.6499 12.7781 12.4594 12.3902 12.3822C12.0022 12.3051 11.6001 12.3447 11.2346 12.496C10.8692 12.6474 10.5568 12.9038 10.3371 13.2327C10.1173 13.5616 10 13.9482 10 14.3438C10 14.8742 10.2107 15.3829 10.5858 15.758C10.9609 16.1331 11.4696 16.3438 12 16.3438ZM12 12.8438C12.2967 12.8438 12.5867 12.9318 12.8334 13.0966C13.08 13.2614 13.2723 13.4957 13.3858 13.7698C13.4994 14.0439 13.5291 14.3455 13.4712 14.6364C13.4133 14.9274 13.2704 15.1947 13.0607 15.4045C12.8509 15.6142 12.5836 15.7571 12.2926 15.815C12.0017 15.8729 11.7001 15.8432 11.426 15.7296C11.1519 15.6161 10.9176 15.4238 10.7528 15.1772C10.588 14.9305 10.5 14.6405 10.5 14.3438C10.5005 13.9461 10.6586 13.5648 10.9398 13.2836C11.221 13.0024 11.6023 12.8442 12 12.8438ZM12 19.3438C12.9889 19.3438 13.9556 19.0506 14.7779 18.5011C15.6001 17.9517 16.241 17.1708 16.6194 16.2572C16.9978 15.3436 17.0969 14.3383 16.9039 13.3683C16.711 12.3984 16.2348 11.5075 15.5355 10.8083C14.8363 10.109 13.9454 9.6328 12.9755 9.43987C12.0055 9.24695 11.0002 9.34596 10.0866 9.7244C9.17295 10.1028 8.39206 10.7437 7.84265 11.5659C7.29324 12.3882 7 13.3549 7 14.3438C7 15.6699 7.52678 16.9417 8.46447 17.8793C9.40215 18.817 10.6739 19.3438 12 19.3438ZM12 9.8438C12.89 9.8438 13.76 10.1077 14.5001 10.6022C15.2401 11.0967 15.8169 11.7995 16.1575 12.6217C16.4981 13.444 16.5872 14.3488 16.4135 15.2217C16.2399 16.0946 15.8113 16.8964 15.182 17.5258C14.5526 18.1551 13.7508 18.5837 12.8779 18.7573C12.005 18.931 11.1002 18.8419 10.2779 18.5013C9.45566 18.1607 8.75285 17.5839 8.25839 16.8439C7.76392 16.1038 7.5 15.2338 7.5 14.3438C7.50132 13.1507 7.97585 12.0069 8.81948 11.1633C9.66311 10.3197 10.8069 9.84512 12 9.8438Z" fill="black"/>
</svg>
