<svg width="24" height="24" viewBox="0 0 24 24" fill="none" xmlns="http://www.w3.org/2000/svg">
<path d="M17 17.9999C17.3956 17.9999 17.7822 17.8826 18.1111 17.6629C18.44 17.4431 18.6964 17.1307 18.8478 16.7653C18.9991 16.3998 19.0387 15.9977 18.9616 15.6097C18.8844 15.2218 18.6939 14.8654 18.4142 14.5857C18.1345 14.306 17.7781 14.1155 17.3902 14.0384C17.0022 13.9612 16.6001 14.0008 16.2346 14.1522C15.8692 14.3035 15.5568 14.5599 15.3371 14.8888C15.1173 15.2177 15 15.6044 15 15.9999C15 16.5304 15.2107 17.0391 15.5858 17.4141C15.9609 17.7892 16.4696 17.9999 17 17.9999ZM17 14.9999C17.1978 14.9999 17.3911 15.0586 17.5556 15.1685C17.72 15.2783 17.8482 15.4345 17.9239 15.6172C17.9996 15.8 18.0194 16.001 17.9808 16.195C17.9422 16.389 17.847 16.5672 17.7071 16.707C17.5673 16.8469 17.3891 16.9421 17.1951 16.9807C17.0011 17.0193 16.8 16.9995 16.6173 16.9238C16.4346 16.8481 16.2784 16.7199 16.1685 16.5555C16.0586 16.391 16 16.1977 16 15.9999C16.0003 15.7348 16.1057 15.4806 16.2932 15.2931C16.4807 15.1057 16.7349 15.0002 17 14.9999ZM20.3333 5.99992H6.1663L18.2194 1.64532L17.8773 0.705322L3.072 6.10922L3.0741 6.11352C2.75872 6.23296 2.48711 6.44545 2.29528 6.7228C2.10345 7.00016 2.00047 7.32929 2 7.66652V19.3332C2 19.7753 2.1756 20.1992 2.48817 20.5118C2.80073 20.8243 3.22466 20.9999 3.6667 20.9999H20.3333C20.7753 20.9999 21.1993 20.8243 21.5118 20.5118C21.8244 20.1992 22 19.7753 22 19.3332V7.66652C22 7.2245 21.8244 6.8006 21.5118 6.48805C21.1992 6.17551 20.7753 5.99992 20.3333 5.99992ZM3 7.66652C3 7.29902 3.7408 6.99992 4.1085 6.99992H15V9.99992H3V7.66652ZM21 19.3332C21 19.7008 20.2592 19.9999 19.8915 19.9999H3.6667C3.2991 19.9999 3 19.2887 3 18.9211V10.9999H21V19.3332ZM21 9.99992H16V6.99992H20.3333C20.7009 6.99992 21 7.71102 21 8.07862V9.99992Z" fill="black"/>
</svg>
