<svg width="24" height="24" viewBox="0 0 24 24" fill="none" xmlns="http://www.w3.org/2000/svg">
<path d="M15.5 2H8.5C7.83696 2 7.20107 2.26339 6.73223 2.73223C6.26339 3.20107 6 3.83696 6 4.5V19.5C6 20.163 6.26339 20.7989 6.73223 21.2678C7.20107 21.7366 7.83696 22 8.5 22H15.5C16.163 22 16.7989 21.7366 17.2678 21.2678C17.7366 20.7989 18 20.163 18 19.5V4.5C18 3.83696 17.7366 3.20107 17.2678 2.73223C16.7989 2.26339 16.163 2 15.5 2ZM10.3834 6.5208C10.1836 6.5208 9.98837 6.46156 9.82227 6.35058C9.65618 6.2396 9.52673 6.08186 9.45028 5.89731C9.37384 5.71276 9.35384 5.50968 9.39281 5.31376C9.43178 5.11784 9.52797 4.93787 9.66922 4.79662C9.81047 4.65537 9.99044 4.55918 10.1864 4.52021C10.3823 4.48124 10.5854 4.50124 10.7699 4.57768C10.9545 4.65413 11.1122 4.78358 11.2232 4.94967C11.3342 5.11577 11.3934 5.31104 11.3934 5.5108C11.3934 5.77867 11.287 6.03557 11.0976 6.22498C10.9082 6.41439 10.6513 6.5208 10.3834 6.5208ZM13.6167 6.5208C13.4169 6.5208 13.2217 6.46156 13.0556 6.35058C12.8895 6.2396 12.76 6.08186 12.6836 5.89731C12.6071 5.71276 12.5871 5.50968 12.6261 5.31376C12.6651 5.11784 12.7613 4.93787 12.9025 4.79662C13.0438 4.65537 13.2237 4.55918 13.4197 4.52021C13.6156 4.48124 13.8187 4.50124 14.0032 4.57768C14.1878 4.65413 14.3455 4.78358 14.4565 4.94967C14.5675 5.11577 14.6267 5.31104 14.6267 5.5108C14.6267 5.77867 14.5203 6.03557 14.3309 6.22498C14.1415 6.41439 13.8846 6.5208 13.6167 6.5208Z" fill="black"/>
</svg>
