<svg width="24" height="24" viewBox="0 0 24 24" fill="none" xmlns="http://www.w3.org/2000/svg">
<path d="M14 2H10C8.67392 2 7.40215 2.52678 6.46447 3.46447C5.52678 4.40215 5 5.67392 5 7V15C5 16.8565 5.7375 18.637 7.05025 19.9497C8.36301 21.2625 10.1435 22 12 22C13.8565 22 15.637 21.2625 16.9497 19.9497C18.2625 18.637 19 16.8565 19 15V7C19 5.67392 18.4732 4.40215 17.5355 3.46447C16.5979 2.52678 15.3261 2 14 2ZM13 8C13 8.26522 12.8946 8.51957 12.7071 8.70711C12.5196 8.89464 12.2652 9 12 9C11.7348 9 11.4804 8.89464 11.2929 8.70711C11.1054 8.51957 11 8.26522 11 8V6C11 5.73478 11.1054 5.48043 11.2929 5.29289C11.4804 5.10536 11.7348 5 12 5C12.2652 5 12.5196 5.10536 12.7071 5.29289C12.8946 5.48043 13 5.73478 13 6V8Z" fill="black"/>
</svg>
