<svg width="24" height="24" viewBox="0 0 24 24" fill="none" xmlns="http://www.w3.org/2000/svg">
<path d="M16 2H8C7.46957 2 6.96086 2.21071 6.58579 2.58579C6.21071 2.96086 6 3.46957 6 4V12C6.00079 12.3496 6.09362 12.6929 6.26916 12.9953C6.4447 13.2977 6.69676 13.5485 7 13.7226V20C7 20.5304 7.21071 21.0391 7.58579 21.4142C7.96086 21.7893 8.46957 22 9 22H15C15.5304 22 16.0391 21.7893 16.4142 21.4142C16.7893 21.0391 17 20.5304 17 20V13.7226C17.3032 13.5485 17.5553 13.2977 17.7308 12.9953C17.9064 12.6929 17.9992 12.3496 18 12V4C18 3.46957 17.7893 2.96086 17.4142 2.58579C17.0391 2.21071 16.5304 2 16 2ZM7.5 13.9293C7.66298 13.9741 7.831 13.9978 8 14H11.75V17.25H7.5V13.9293ZM9 21.5C8.60231 21.4995 8.22104 21.3414 7.93984 21.0602C7.65863 20.779 7.50045 20.3977 7.5 20V17.75H11.75V21.5H9ZM16.5 20C16.4995 20.3977 16.3414 20.779 16.0602 21.0602C15.779 21.3414 15.3977 21.4995 15 21.5H12.25V17.75H16.5V20ZM16.5 17.25H12.25V14H16C16.169 13.9978 16.337 13.9741 16.5 13.9293V17.25ZM17.5 12C17.4995 12.3977 17.3414 12.779 17.0602 13.0602C16.779 13.3414 16.3977 13.4995 16 13.5H8C7.60231 13.4995 7.22104 13.3414 6.93984 13.0602C6.65863 12.779 6.50045 12.3977 6.5 12V4C6.50045 3.60231 6.65863 3.22104 6.93984 2.93984C7.22104 2.65863 7.60231 2.50045 8 2.5H16C16.3977 2.50045 16.779 2.65863 17.0602 2.93984C17.3414 3.22104 17.4995 3.60231 17.5 4V12Z" fill="black"/>
</svg>
