<svg width="24" height="24" viewBox="0 0 24 24" fill="none" xmlns="http://www.w3.org/2000/svg">
<path d="M7 16.2499C7.24723 16.2499 7.4889 16.1766 7.69446 16.0392C7.90002 15.9019 8.06024 15.7067 8.15485 15.4783C8.24946 15.2499 8.27421 14.9985 8.22598 14.756C8.17775 14.5136 8.0587 14.2908 7.88388 14.116C7.70907 13.9412 7.48634 13.8222 7.24386 13.7739C7.00139 13.7257 6.75005 13.7505 6.52165 13.8451C6.29324 13.9397 6.09801 14.0999 5.96066 14.3054C5.82331 14.511 5.75 14.7527 5.75 14.9999C5.75 15.3314 5.8817 15.6494 6.11612 15.8838C6.35054 16.1182 6.66848 16.2499 7 16.2499ZM7.3412 9.99991L21.4779 5.03881L20.7939 3.15991L2 9.99991V17.9999C2 18.5303 2.21071 19.0391 2.58579 19.4141C2.96086 19.7892 3.46957 19.9999 4 19.9999H20C20.5304 19.9999 21.0391 19.7892 21.4142 19.4141C21.7893 19.0391 22 18.5303 22 17.9999V9.99991H7.3412ZM20 17.9999H4V11.9999H20V17.9999Z" fill="black"/>
</svg>
