<svg width="24" height="24" viewBox="0 0 24 24" fill="none" xmlns="http://www.w3.org/2000/svg">
<path d="M16 2H8C7.46957 2 6.96086 2.21071 6.58579 2.58579C6.21071 2.96086 6 3.46957 6 4V12C6.00091 12.3547 6.09654 12.7028 6.27703 13.0081C6.45751 13.3135 6.71629 13.5651 7.0266 13.737C7.01184 13.824 7.00296 13.9118 7 14V20C7 20.5304 7.21071 21.0391 7.58579 21.4142C7.96086 21.7893 8.46957 22 9 22H15C15.5304 22 16.0391 21.7893 16.4142 21.4142C16.7893 21.0391 17 20.5304 17 20V14C16.997 13.9118 16.9882 13.824 16.9734 13.737C17.2837 13.5651 17.5425 13.3135 17.723 13.0081C17.9035 12.7028 17.9991 12.3547 18 12V4C18 3.46957 17.7893 2.96086 17.4142 2.58579C17.0391 2.21071 16.5304 2 16 2ZM8 4H16V12H8V4ZM9 14H11.075V16.075H9V14ZM9 17.925H11.075V20H9V17.925ZM15 20H12.925V17.925H15V20ZM15 16.075H12.925V14H15V16.075Z" fill="black"/>
</svg>
