<svg width="24" height="24" viewBox="0 0 24 24" fill="none" xmlns="http://www.w3.org/2000/svg">
<path d="M12 2C10.0222 2 8.08879 2.58649 6.4443 3.6853C4.79981 4.78412 3.51809 6.3459 2.76121 8.17317C2.00433 10.0004 1.8063 12.0111 2.19215 13.9509C2.578 15.8907 3.53041 17.6725 4.92894 19.0711C6.32746 20.4696 8.10929 21.422 10.0491 21.8079C11.9889 22.1937 13.9996 21.9957 15.8268 21.2388C17.6541 20.4819 19.2159 19.2002 20.3147 17.5557C21.4135 15.9112 22 13.9778 22 12C22 10.6868 21.7413 9.38642 21.2388 8.17317C20.7363 6.95991 19.9997 5.85752 19.0711 4.92893C18.1425 4.00035 17.0401 3.26375 15.8268 2.7612C14.6136 2.25866 13.3132 2 12 2ZM12 21C10.22 21 8.47991 20.4722 6.99987 19.4832C5.51983 18.4943 4.36628 17.0887 3.68509 15.4442C3.0039 13.7996 2.82567 11.99 3.17294 10.2442C3.5202 8.49836 4.37737 6.89471 5.63604 5.63604C6.89472 4.37737 8.49836 3.5202 10.2442 3.17293C11.99 2.82567 13.7996 3.0039 15.4442 3.68508C17.0887 4.36627 18.4943 5.51983 19.4832 6.99987C20.4722 8.47991 21 10.22 21 12C20.9974 14.3861 20.0483 16.6738 18.361 18.361C16.6738 20.0483 14.3861 20.9974 12 21ZM16.6445 10.3C16.3083 10.3 15.9796 10.3997 15.7 10.5865C15.4205 10.7733 15.2026 11.0388 15.0739 11.3494C14.9452 11.6601 14.9116 12.0019 14.9772 12.3317C15.0428 12.6614 15.2047 12.9643 15.4424 13.2021C15.6802 13.4398 15.9831 13.6017 16.3129 13.6673C16.6426 13.7329 16.9844 13.6993 17.2951 13.5706C17.6057 13.4419 17.8712 13.224 18.058 12.9445C18.2448 12.6649 18.3445 12.3362 18.3445 12C18.3445 11.5491 18.1654 11.1167 17.8466 10.7979C17.5278 10.4791 17.0954 10.3 16.6445 10.3ZM16.6445 12.8C16.4863 12.8 16.3316 12.7531 16.2 12.6652C16.0685 12.5773 15.966 12.4523 15.9054 12.3061C15.8449 12.16 15.829 11.9991 15.8599 11.8439C15.8907 11.6887 15.9669 11.5462 16.0788 11.4343C16.1907 11.3224 16.3332 11.2462 16.4884 11.2154C16.6436 11.1845 16.8045 11.2003 16.9507 11.2609C17.0968 11.3214 17.2218 11.424 17.3097 11.5555C17.3976 11.6871 17.4445 11.8418 17.4445 12C17.4442 12.2121 17.3598 12.4154 17.2098 12.5653C17.0599 12.7153 16.8566 12.7997 16.6445 12.8ZM7.3555 10.3C7.01928 10.3 6.6906 10.3997 6.41104 10.5865C6.13147 10.7733 5.91358 11.0388 5.78491 11.3494C5.65624 11.6601 5.62257 12.0019 5.68817 12.3317C5.75376 12.6614 5.91567 12.9643 6.15342 13.2021C6.39117 13.4398 6.69408 13.6017 7.02385 13.6673C7.35362 13.7329 7.69543 13.6993 8.00607 13.5706C8.3167 13.4419 8.5822 13.224 8.769 12.9445C8.9558 12.6649 9.0555 12.3362 9.0555 12C9.0555 11.5491 8.8764 11.1167 8.55759 10.7979C8.23877 10.4791 7.80637 10.3 7.3555 10.3ZM7.3555 12.8C7.19728 12.8 7.04261 12.7531 6.91105 12.6652C6.77949 12.5773 6.67695 12.4523 6.6164 12.3061C6.55585 12.16 6.54001 11.9991 6.57088 11.8439C6.60174 11.6887 6.67794 11.5462 6.78982 11.4343C6.9017 11.3224 7.04425 11.2462 7.19943 11.2154C7.35462 11.1845 7.51547 11.2003 7.66165 11.2609C7.80783 11.3214 7.93278 11.424 8.02068 11.5555C8.10858 11.6871 8.1555 11.8418 8.1555 12C8.15524 12.2121 8.07087 12.4154 7.9209 12.5654C7.77093 12.7154 7.5676 12.7997 7.3555 12.8ZM12 5.5874C11.5495 5.5874 11.1091 5.72099 10.7345 5.97128C10.3599 6.22157 10.068 6.57731 9.89559 6.99352C9.72319 7.40974 9.67808 7.86773 9.76597 8.30958C9.85386 8.75143 10.0708 9.15729 10.3894 9.47585C10.7079 9.7944 11.1138 10.0113 11.5556 10.0992C11.9975 10.1871 12.4555 10.142 12.8717 9.96961C13.2879 9.79721 13.6436 9.50526 13.8939 9.13068C14.1442 8.7561 14.2778 8.31571 14.2778 7.8652C14.2778 7.56607 14.2189 7.26987 14.1044 6.99351C13.99 6.71715 13.8222 6.46604 13.6107 6.25452C13.3992 6.04301 13.1481 5.87523 12.8717 5.76076C12.5953 5.64629 12.2991 5.58739 12 5.5874ZM12 9.31C11.7143 9.30996 11.4351 9.22521 11.1976 9.06648C10.9601 8.90774 10.775 8.68214 10.6657 8.41821C10.5564 8.15428 10.5278 7.86386 10.5836 7.58369C10.6393 7.30352 10.7769 7.04617 10.9789 6.84418C11.1809 6.6422 11.4383 6.50466 11.7185 6.44894C11.9987 6.39322 12.2891 6.42184 12.553 6.53117C12.8169 6.6405 13.0425 6.82563 13.2012 7.06316C13.3599 7.30068 13.4446 7.57993 13.4446 7.8656C13.4441 8.24857 13.2918 8.61571 13.021 8.88649C12.7501 9.15727 12.383 9.30958 12 9.31Z" fill="black"/>
</svg>
