<svg width="24" height="24" viewBox="0 0 24 24" fill="none" xmlns="http://www.w3.org/2000/svg">
<path d="M12 8.4146C11.7917 8.41458 11.5881 8.47633 11.4149 8.59203C11.2417 8.70773 11.1067 8.8722 11.027 9.06463C10.9472 9.25705 10.9264 9.4688 10.967 9.67309C11.0076 9.87738 11.1079 10.065 11.2552 10.2123C11.4025 10.3596 11.5901 10.4599 11.7944 10.5006C11.9987 10.5412 12.2104 10.5204 12.4029 10.4406C12.5953 10.3609 12.7598 10.226 12.8755 10.0528C12.9912 9.8796 13.053 9.67599 13.053 9.4677C13.0527 9.18851 12.9417 8.92083 12.7442 8.7234C12.5468 8.52597 12.2792 8.41492 12 8.4146ZM18.9641 5H5.03588L0.571777 12L5.03588 19H18.9641L23.4282 12L18.9641 5ZM6.00558 13.15C5.77812 13.15 5.55577 13.0826 5.36664 12.9562C5.17751 12.8299 5.0301 12.6503 4.94304 12.4402C4.85599 12.23 4.8332 11.9988 4.87756 11.7757C4.92192 11.5526 5.03144 11.3477 5.19227 11.1869C5.3531 11.026 5.55801 10.9165 5.78109 10.8721C6.00417 10.8277 6.2354 10.8505 6.44554 10.9375C6.65568 11.0246 6.83529 11.172 6.96166 11.3611C7.08803 11.5502 7.15548 11.7725 7.15548 12C7.15548 12.305 7.03433 12.5975 6.81869 12.8131C6.60304 13.0288 6.31056 13.15 6.00558 13.15ZM12 15.6266C11.7725 15.6266 11.5502 15.5592 11.3611 15.4328C11.172 15.3064 11.0246 15.1268 10.9375 14.9167C10.8505 14.7066 10.8277 14.4753 10.8721 14.2522C10.9164 14.0292 11.026 13.8243 11.1868 13.6634C11.3476 13.5026 11.5525 13.3931 11.7756 13.3487C11.9987 13.3043 12.2299 13.3271 12.4401 13.4141C12.6502 13.5012 12.8298 13.6486 12.9562 13.8377C13.0825 14.0268 13.15 14.2492 13.15 14.4766C13.15 14.7816 13.0288 15.0741 12.8131 15.2898C12.5975 15.5054 12.305 15.6266 12 15.6266ZM12 11.6207C11.5741 11.6207 11.1578 11.4944 10.8038 11.2578C10.4497 11.0212 10.1737 10.685 10.0108 10.2915C9.8478 9.8981 9.80517 9.46518 9.88826 9.04751C9.97134 8.62985 10.1764 8.24621 10.4775 7.94509C10.7787 7.64398 11.1623 7.43893 11.58 7.35586C11.9977 7.27279 12.4306 7.31545 12.824 7.47842C13.2174 7.6414 13.5537 7.91739 13.7903 8.27147C14.0268 8.62556 14.1531 9.04185 14.1531 9.4677C14.1531 10.0387 13.9262 10.5863 13.5224 10.9901C13.1186 11.3939 12.571 11.6207 12 11.6207ZM17.9944 13.15C17.7669 13.15 17.5446 13.0826 17.3555 12.9562C17.1664 12.8298 17.019 12.6502 16.9319 12.4401C16.8449 12.23 16.8221 11.9987 16.8665 11.7756C16.9108 11.5526 17.0204 11.3477 17.1812 11.1868C17.342 11.026 17.5469 10.9165 17.77 10.8721C17.9931 10.8277 18.2243 10.8505 18.4345 10.9375C18.6446 11.0246 18.8242 11.172 18.9506 11.3611C19.0769 11.5502 19.1444 11.7726 19.1444 12C19.1444 12.305 19.0232 12.5975 18.8076 12.8132C18.5919 13.0288 18.2994 13.15 17.9944 13.15Z" fill="black"/>
</svg>
