<svg width="24" height="24" viewBox="0 0 24 24" fill="none" xmlns="http://www.w3.org/2000/svg">
<path d="M13.9445 6.33856L14.2981 5.98496C13.6881 5.3764 12.8617 5.03463 12 5.03463C11.1384 5.03463 10.3119 5.3764 9.7019 5.98496L10.0555 6.33856C10.5716 5.82352 11.2709 5.53427 12 5.53427C12.7291 5.53427 13.4284 5.82352 13.9445 6.33856ZM6.8735 3.15656L7.2271 3.51006C8.49396 2.24609 10.2104 1.53625 12 1.53625C13.7896 1.53625 15.5061 2.24609 16.7729 3.51006L17.1265 3.15656C15.7658 1.79887 13.9222 1.03638 12 1.03638C10.0778 1.03638 8.23417 1.79887 6.8735 3.15656ZM8 21C8 21.5304 8.21072 22.0391 8.58579 22.4142C8.96086 22.7892 9.46957 23 10 23H14C14.5304 23 15.0391 22.7892 15.4142 22.4142C15.7893 22.0391 16 21.5304 16 21V8.99996H8V21ZM8.5 9.49996H15.5V21C15.4996 21.3976 15.3414 21.7789 15.0602 22.0601C14.779 22.3413 14.3977 22.4995 14 22.5H10C9.60232 22.4995 9.22105 22.3413 8.93984 22.0601C8.65863 21.7789 8.50045 21.3976 8.5 21V9.49996ZM12 14.5C12.2967 14.5 12.5867 14.412 12.8334 14.2472C13.08 14.0823 13.2723 13.8481 13.3858 13.574C13.4994 13.2999 13.5291 12.9983 13.4712 12.7073C13.4133 12.4164 13.2704 12.1491 13.0607 11.9393C12.8509 11.7295 12.5836 11.5867 12.2926 11.5288C12.0017 11.4709 11.7001 11.5006 11.426 11.6141C11.1519 11.7277 10.9176 11.9199 10.7528 12.1666C10.588 12.4133 10.5 12.7033 10.5 13C10.5 13.3978 10.658 13.7793 10.9393 14.0606C11.2206 14.3419 11.6022 14.5 12 14.5ZM12 12C12.1978 12 12.3911 12.0586 12.5556 12.1685C12.72 12.2784 12.8482 12.4346 12.9239 12.6173C12.9996 12.8 13.0194 13.0011 12.9808 13.1951C12.9422 13.389 12.847 13.5672 12.7071 13.7071C12.5673 13.8469 12.3891 13.9422 12.1951 13.9807C12.0011 14.0193 11.8 13.9995 11.6173 13.9238C11.4346 13.8482 11.2784 13.72 11.1685 13.5555C11.0587 13.3911 11 13.1977 11 13C11.0003 12.7348 11.1057 12.4807 11.2932 12.2932C11.4807 12.1057 11.7349 12.0003 12 12Z" fill="black"/>
</svg>
