<svg width="24" height="24" viewBox="0 0 24 24" fill="none" xmlns="http://www.w3.org/2000/svg">
<path d="M15.5 2H8.5C7.83696 2 7.20107 2.26339 6.73223 2.73223C6.26339 3.20107 6 3.83696 6 4.5V19.5C6 20.163 6.26339 20.7989 6.73223 21.2678C7.20107 21.7366 7.83696 22 8.5 22H15.5C16.163 22 16.7989 21.7366 17.2678 21.2678C17.7366 20.7989 18 20.163 18 19.5V4.5C18 3.83696 17.7366 3.20107 17.2678 2.73223C16.7989 2.26339 16.163 2 15.5 2ZM17 19.5C16.9995 19.8977 16.8414 20.279 16.5602 20.5602C16.279 20.8414 15.8977 20.9995 15.5 21H8.5C8.10231 20.9995 7.72104 20.8414 7.43984 20.5602C7.15863 20.279 7.00045 19.8977 7 19.5V4.5C7.00045 4.10231 7.15863 3.72104 7.43984 3.43984C7.72104 3.15863 8.10231 3.00045 8.5 3H15.5C15.8977 3.00045 16.279 3.15863 16.5602 3.43984C16.8414 3.72104 16.9995 4.10231 17 4.5V19.5ZM12 17.25C11.7281 17.25 11.4622 17.3306 11.2361 17.4817C11.01 17.6328 10.8337 17.8476 10.7297 18.0988C10.6256 18.3501 10.5984 18.6265 10.6514 18.8932C10.7045 19.16 10.8354 19.405 11.0277 19.5973C11.22 19.7896 11.465 19.9205 11.7318 19.9736C11.9985 20.0266 12.2749 19.9994 12.5262 19.8953C12.7774 19.7913 12.9922 19.615 13.1433 19.3889C13.2944 19.1628 13.375 18.8969 13.375 18.625C13.375 18.2603 13.2301 17.9106 12.9723 17.6527C12.7144 17.3949 12.3647 17.25 12 17.25ZM12 19.2C11.8863 19.2 11.7751 19.1663 11.6805 19.1031C11.586 19.0399 11.5123 18.9501 11.4688 18.845C11.4252 18.74 11.4139 18.6244 11.436 18.5128C11.4582 18.4013 11.513 18.2988 11.5934 18.2184C11.6738 18.138 11.7763 18.0832 11.8878 18.061C11.9994 18.0389 12.115 18.0502 12.22 18.0938C12.3251 18.1373 12.4149 18.211 12.4781 18.3055C12.5413 18.4001 12.575 18.5113 12.575 18.625C12.5748 18.7775 12.5142 18.9236 12.4064 19.0314C12.2986 19.1392 12.1525 19.1998 12 19.2Z" fill="black"/>
</svg>
