<svg width="24" height="24" viewBox="0 0 24 24" fill="none" xmlns="http://www.w3.org/2000/svg">
<path d="M6.44 11C6.24222 11 6.04888 11.0586 5.88443 11.1685C5.71998 11.2784 5.59181 11.4346 5.51612 11.6173C5.44043 11.8 5.42063 12.0011 5.45921 12.1951C5.4978 12.3891 5.59304 12.5673 5.73289 12.7071C5.87275 12.847 6.05093 12.9422 6.24491 12.9808C6.43889 13.0194 6.63996 12.9996 6.82268 12.9239C7.00541 12.8482 7.16159 12.72 7.27147 12.5556C7.38135 12.3911 7.44 12.1978 7.44 12C7.43971 11.7349 7.33426 11.4807 7.14679 11.2932C6.95931 11.1057 6.70513 11.0003 6.44 11ZM12 11C11.8022 11 11.6089 11.0586 11.4444 11.1685C11.28 11.2784 11.1518 11.4346 11.0761 11.6173C11.0004 11.8 10.9806 12.0011 11.0192 12.1951C11.0578 12.3891 11.153 12.5673 11.2929 12.7071C11.4327 12.847 11.6109 12.9422 11.8049 12.9808C11.9989 13.0194 12.2 12.9996 12.3827 12.9239C12.5654 12.8482 12.7216 12.72 12.8315 12.5556C12.9414 12.3911 13 12.1978 13 12C12.9997 11.7349 12.8943 11.4807 12.7068 11.2932C12.5193 11.1057 12.2651 11.0003 12 11ZM1 5V19H23V5H1ZM6.44 13.5C6.14333 13.5 5.85332 13.412 5.60664 13.2472C5.35997 13.0824 5.16771 12.8481 5.05418 12.574C4.94065 12.2999 4.91094 11.9983 4.96882 11.7074C5.0267 11.4164 5.16956 11.1491 5.37934 10.9393C5.58912 10.7296 5.85639 10.5867 6.14736 10.5288C6.43834 10.4709 6.73994 10.5006 7.01403 10.6142C7.28811 10.7277 7.52238 10.92 7.6872 11.1666C7.85203 11.4133 7.94 11.7033 7.94 12C7.94 12.3978 7.78196 12.7794 7.50066 13.0607C7.21936 13.342 6.83782 13.5 6.44 13.5ZM12 13.5C11.7033 13.5 11.4133 13.412 11.1666 13.2472C10.92 13.0824 10.7277 12.8481 10.6142 12.574C10.5006 12.2999 10.4709 11.9983 10.5288 11.7074C10.5867 11.4164 10.7296 11.1491 10.9393 10.9393C11.1491 10.7296 11.4164 10.5867 11.7074 10.5288C11.9983 10.4709 12.2999 10.5006 12.574 10.6142C12.8481 10.7277 13.0824 10.92 13.2472 11.1666C13.412 11.4133 13.5 11.7033 13.5 12C13.5 12.3978 13.342 12.7794 13.0607 13.0607C12.7794 13.342 12.3978 13.5 12 13.5ZM17.56 13.5C17.2633 13.5 16.9733 13.412 16.7266 13.2472C16.48 13.0824 16.2877 12.8481 16.1742 12.574C16.0606 12.2999 16.0309 11.9983 16.0888 11.7074C16.1467 11.4164 16.2896 11.1491 16.4993 10.9393C16.7091 10.7296 16.9764 10.5867 17.2674 10.5288C17.5583 10.4709 17.8599 10.5006 18.134 10.6142C18.4081 10.7277 18.6424 10.92 18.8072 11.1666C18.972 11.4133 19.06 11.7033 19.06 12C19.06 12.3978 18.902 12.7794 18.6207 13.0607C18.3394 13.342 17.9578 13.5 17.56 13.5ZM17.56 11C17.3622 11 17.1689 11.0586 17.0044 11.1685C16.84 11.2784 16.7118 11.4346 16.6361 11.6173C16.5604 11.8 16.5406 12.0011 16.5792 12.1951C16.6178 12.3891 16.713 12.5673 16.8529 12.7071C16.9927 12.847 17.1709 12.9422 17.3649 12.9808C17.5589 13.0194 17.76 12.9996 17.9427 12.9239C18.1254 12.8482 18.2816 12.72 18.3915 12.5556C18.5014 12.3911 18.56 12.1978 18.56 12C18.5597 11.7349 18.4543 11.4807 18.2668 11.2932C18.0793 11.1057 17.8251 11.0003 17.56 11Z" fill="black"/>
</svg>
