<svg width="24" height="24" viewBox="0 0 24 24" fill="none" xmlns="http://www.w3.org/2000/svg">
<path d="M16.6445 14C16.4467 14 16.2534 14.0586 16.0889 14.1685C15.9245 14.2784 15.7963 14.4346 15.7206 14.6173C15.6449 14.8 15.6251 15.0011 15.6637 15.1951C15.7023 15.3891 15.7975 15.5673 15.9374 15.7071C16.0772 15.847 16.2554 15.9422 16.4494 15.9808C16.6434 16.0194 16.8445 15.9996 17.0272 15.9239C17.2099 15.8482 17.3661 15.72 17.476 15.5556C17.5859 15.3911 17.6445 15.1978 17.6445 15C17.6442 14.7349 17.5388 14.4807 17.3513 14.2932C17.1638 14.1057 16.9096 14.0003 16.6445 14ZM7.3555 14C7.15772 14 6.96438 14.0586 6.79993 14.1685C6.63548 14.2784 6.50731 14.4346 6.43162 14.6173C6.35593 14.8 6.33613 15.0011 6.37471 15.1951C6.4133 15.3891 6.50854 15.5673 6.64839 15.7071C6.78825 15.847 6.96643 15.9422 7.16041 15.9808C7.35439 16.0194 7.55546 15.9996 7.73818 15.9239C7.92091 15.8482 8.07709 15.72 8.18697 15.5556C8.29685 15.3911 8.3555 15.1978 8.3555 15C8.35521 14.7349 8.24976 14.4807 8.06229 14.2932C7.87481 14.1057 7.62063 14.0003 7.3555 14ZM3 3V21H21V3H3ZM7.3555 16.5C7.05883 16.5 6.76882 16.412 6.52214 16.2472C6.27547 16.0824 6.08321 15.8481 5.96968 15.574C5.85615 15.2999 5.82644 14.9983 5.88432 14.7074C5.9422 14.4164 6.08506 14.1491 6.29484 13.9393C6.50462 13.7296 6.77189 13.5867 7.06286 13.5288C7.35384 13.4709 7.65544 13.5006 7.92953 13.6142C8.20361 13.7277 8.43788 13.92 8.6027 14.1666C8.76753 14.4133 8.8555 14.7033 8.8555 15C8.8555 15.3978 8.69746 15.7794 8.41616 16.0607C8.13486 16.342 7.75332 16.5 7.3555 16.5ZM12 11.1429C11.5495 11.1429 11.1091 11.0093 10.7345 10.759C10.3599 10.5087 10.068 10.153 9.89558 9.73675C9.72318 9.32053 9.67808 8.86254 9.76597 8.42069C9.85387 7.97883 10.0708 7.57297 10.3894 7.25442C10.708 6.93586 11.1138 6.71893 11.5557 6.63105C11.9975 6.54318 12.4555 6.5883 12.8717 6.76072C13.288 6.93313 13.6437 7.2251 13.894 7.59969C14.1442 7.97429 14.2778 8.41469 14.2778 8.8652C14.2778 9.16432 14.2189 9.46052 14.1044 9.73688C13.99 10.0132 13.8222 10.2643 13.6107 10.4758C13.3992 10.6873 13.148 10.8551 12.8717 10.9696C12.5953 11.084 12.2991 11.1429 12 11.1429ZM16.6445 16.5C16.3478 16.5 16.0578 16.412 15.8111 16.2472C15.5645 16.0824 15.3722 15.8481 15.2587 15.574C15.1451 15.2999 15.1154 14.9983 15.1733 14.7074C15.2312 14.4164 15.3741 14.1491 15.5838 13.9393C15.7936 13.7296 16.0609 13.5867 16.3519 13.5288C16.6428 13.4709 16.9444 13.5006 17.2185 13.6142C17.4926 13.7277 17.7269 13.92 17.8917 14.1666C18.0565 14.4133 18.1445 14.7033 18.1445 15C18.1445 15.3978 17.9865 15.7794 17.7052 16.0607C17.4239 16.342 17.0423 16.5 16.6445 16.5ZM12 7.0874C11.6484 7.0874 11.3047 7.19167 11.0123 7.38701C10.7199 7.58236 10.4921 7.86001 10.3575 8.18486C10.223 8.50972 10.1878 8.86717 10.2564 9.21203C10.325 9.55689 10.4943 9.87366 10.7429 10.1223C10.9915 10.3709 11.3083 10.5402 11.6532 10.6088C11.998 10.6774 12.3555 10.6422 12.6803 10.5077C13.0052 10.3731 13.2828 10.1453 13.4782 9.85289C13.6735 9.56053 13.7778 9.21682 13.7778 8.8652C13.7772 8.39388 13.5897 7.94202 13.2565 7.60875C12.9232 7.27547 12.4713 7.08798 12 7.0874Z" fill="black"/>
</svg>
