<svg width="24" height="24" viewBox="0 0 24 24" fill="none" xmlns="http://www.w3.org/2000/svg">
<path d="M17 17.0499C17.2077 17.0499 17.4107 16.9883 17.5833 16.8729C17.756 16.7576 17.8906 16.5936 17.9701 16.4017C18.0495 16.2099 18.0703 15.9987 18.0298 15.7951C17.9893 15.5914 17.8893 15.4043 17.7425 15.2574C17.5956 15.1106 17.4085 15.0106 17.2048 14.9701C17.0012 14.9296 16.79 14.9504 16.5982 15.0298C16.4063 15.1093 16.2423 15.2439 16.127 15.4166C16.0116 15.5892 15.95 15.7922 15.95 15.9999C15.95 16.2784 16.0606 16.5455 16.2575 16.7424C16.4545 16.9393 16.7215 17.0499 17 17.0499ZM20.1667 5.9999H7.6677L19.0157 1.9454L18.5027 0.5354L3.18 6.1199L3.1823 6.1241C2.83516 6.25547 2.53617 6.48929 2.32501 6.79454C2.11385 7.09979 2.0005 7.46203 2 7.8332V19.1665C1.99999 19.4073 2.0474 19.6457 2.13952 19.8681C2.23165 20.0905 2.36669 20.2927 2.53693 20.4629C2.70716 20.6332 2.90927 20.7682 3.1317 20.8603C3.35414 20.9525 3.59254 20.9999 3.8333 20.9999H20.1667C20.4075 20.9999 20.6459 20.9525 20.8683 20.8603C21.0907 20.7682 21.2928 20.6332 21.4631 20.4629C21.6333 20.2927 21.7684 20.0905 21.8605 19.8681C21.9526 19.6457 22 19.4073 22 19.1665V7.8332C22 7.59245 21.9526 7.35405 21.8604 7.13163C21.7683 6.9092 21.6333 6.7071 21.463 6.53686C21.2928 6.36662 21.0907 6.23158 20.8683 6.13945C20.6458 6.04732 20.4075 5.9999 20.1667 5.9999ZM3.5 7.8332C3.5 7.6499 4.5331 7.4999 4.7169 7.4999H15V9.9999H3.5V7.8332ZM20.5 19.1665C20.5 19.3504 19.4669 19.4999 19.2831 19.4999H3.8333C3.65 19.4999 3.5 18.5262 3.5 18.3424V11.4999H20.5V19.1665ZM20.5 9.9999H16.5V7.4999H20.1667C20.3505 7.4999 20.5 8.4736 20.5 8.6574V9.9999Z" fill="black"/>
</svg>
