<svg width="24" height="24" viewBox="0 0 24 24" fill="none" xmlns="http://www.w3.org/2000/svg">
<path d="M19 6H17.1416L15.4092 3H8.5908L6.8584 6H5C4.20462 6.00087 3.44206 6.31722 2.87964 6.87964C2.31722 7.44206 2.00087 8.20462 2 9V18C2.00087 18.7954 2.31722 19.5579 2.87964 20.1204C3.44206 20.6828 4.20462 20.9991 5 21H19C19.7954 20.9991 20.5579 20.6828 21.1204 20.1204C21.6828 19.5579 21.9991 18.7954 22 18V9C21.9991 8.20462 21.6828 7.44206 21.1204 6.87964C20.5579 6.31722 19.7954 6.00087 19 6ZM20.5 18C20.4995 18.3977 20.3414 18.779 20.0602 19.0602C19.779 19.3414 19.3977 19.4995 19 19.5H5C4.60231 19.4995 4.22104 19.3414 3.93984 19.0602C3.65863 18.779 3.50045 18.3977 3.5 18V9C3.50045 8.60231 3.65863 8.22104 3.93984 7.93984C4.22104 7.65863 4.60231 7.50045 5 7.5H7.7244L8.1573 6.75L9.4573 4.5H14.5437L15.8437 6.75L16.2766 7.5H19C19.3977 7.50045 19.779 7.65863 20.0602 7.93984C20.3414 8.22104 20.4995 8.60231 20.5 9V18ZM11.875 13.65C12.18 13.65 12.4725 13.5288 12.6882 13.3132C12.9038 13.0975 13.025 12.805 13.025 12.5V10.1665C13.025 9.86139 12.9038 9.56879 12.6881 9.35304C12.4723 9.1373 12.1797 9.0161 11.8746 9.0161C11.5695 9.0161 11.2769 9.1373 11.0611 9.35304C10.8454 9.56879 10.7242 9.86139 10.7242 10.1665V12.5C10.7242 12.6511 10.754 12.8007 10.8118 12.9403C10.8697 13.0798 10.9544 13.2067 11.0613 13.3135C11.1682 13.4203 11.2951 13.5049 11.4347 13.5627C11.5743 13.6204 11.7239 13.6501 11.875 13.65ZM11.875 14.8282C11.2376 14.827 10.6237 14.5874 10.1539 14.1566C9.68417 13.7258 9.39248 13.1349 9.3362 12.5H8.1362C8.1895 13.3483 8.52901 14.1534 9.09924 14.7837C9.66946 15.4141 10.4367 15.8323 11.2754 15.97V17.5H12.4746V15.97C13.3133 15.8323 14.0805 15.4141 14.6508 14.7837C15.221 14.1534 15.5605 13.3483 15.6138 12.5H14.4138C14.3575 13.1349 14.0658 13.7258 13.596 14.1566C13.1263 14.5873 12.5124 14.8269 11.875 14.8281V14.8282Z" fill="black"/>
</svg>
