<svg width="24" height="24" viewBox="0 0 24 24" fill="none" xmlns="http://www.w3.org/2000/svg">
<path d="M16.6445 10.5C16.3478 10.5 16.0578 10.588 15.8111 10.7528C15.5645 10.9177 15.3722 11.1519 15.2587 11.426C15.1451 11.7001 15.1154 12.0017 15.1733 12.2927C15.2312 12.5836 15.374 12.8509 15.5838 13.0607C15.7936 13.2705 16.0609 13.4133 16.3518 13.4712C16.6428 13.5291 16.9444 13.4994 17.2185 13.3859C17.4926 13.2723 17.7269 13.0801 17.8917 12.8334C18.0565 12.5867 18.1445 12.2967 18.1445 12C18.1445 11.6022 17.9864 11.2207 17.7051 10.9394C17.4238 10.6581 17.0423 10.5 16.6445 10.5ZM16.6445 13C16.4467 13 16.2534 12.9414 16.0889 12.8315C15.9245 12.7216 15.7963 12.5654 15.7206 12.3827C15.6449 12.2 15.6251 11.9989 15.6637 11.8049C15.7023 11.611 15.7975 11.4328 15.9374 11.2929C16.0772 11.1531 16.2554 11.0578 16.4494 11.0193C16.6434 10.9807 16.8444 11.0005 17.0272 11.0762C17.2099 11.1518 17.3661 11.28 17.476 11.4445C17.5858 11.6089 17.6445 11.8023 17.6445 12C17.6442 12.2652 17.5387 12.5193 17.3513 12.7068C17.1638 12.8943 16.9096 12.9997 16.6445 13ZM7.35548 10.5C7.05881 10.5 6.7688 10.588 6.52213 10.7528C6.27546 10.9177 6.0832 11.1519 5.96966 11.426C5.85613 11.7001 5.82643 12.0017 5.88431 12.2927C5.94218 12.5836 6.08504 12.8509 6.29482 13.0607C6.5046 13.2705 6.77188 13.4133 7.06285 13.4712C7.35382 13.5291 7.65542 13.4994 7.92951 13.3859C8.2036 13.2723 8.43787 13.0801 8.60269 12.8334C8.76751 12.5867 8.85548 12.2967 8.85548 12C8.85548 11.6022 8.69745 11.2207 8.41614 10.9394C8.13484 10.6581 7.75331 10.5 7.35548 10.5ZM7.35548 13C7.1577 13 6.96436 12.9414 6.79991 12.8315C6.63546 12.7216 6.50729 12.5654 6.4316 12.3827C6.35592 12.2 6.33611 11.9989 6.3747 11.8049C6.41328 11.611 6.50852 11.4328 6.64838 11.2929C6.78823 11.1531 6.96641 11.0578 7.16039 11.0193C7.35437 10.9807 7.55544 11.0005 7.73817 11.0762C7.92089 11.1518 8.07707 11.28 8.18695 11.4445C8.29683 11.6089 8.35548 11.8023 8.35548 12C8.35519 12.2652 8.24974 12.5193 8.06227 12.7068C7.8748 12.8943 7.62061 12.9997 7.35548 13ZM13 2.05054V4.50004H11V2.05054C8.53362 2.29873 6.24734 3.4541 4.58461 5.29254C2.92188 7.13099 2.00122 9.52147 2.00122 12.0003C2.00122 14.4791 2.92188 16.8696 4.58461 18.708C6.24734 20.5465 8.53362 21.7019 11 21.95V19.5H13V21.95C15.4659 21.7013 17.7515 20.5457 19.4137 18.7074C21.0759 16.869 21.9963 14.4789 21.9963 12.0005C21.9963 9.52215 21.0759 7.13205 19.4137 5.29372C17.7515 3.45538 15.4659 2.2998 13 2.05104V2.05054ZM13.5 21.3815V19H10.5V21.3815C8.26867 21.0246 6.23762 19.8841 4.77139 18.1647C3.30515 16.4454 2.49976 14.2597 2.49976 12C2.49976 9.74031 3.30515 7.55462 4.77139 5.83523C6.23762 4.11584 8.26867 2.97533 10.5 2.61844V5.00004H13.5V2.61844C15.7313 2.97533 17.7624 4.11584 19.2286 5.83523C20.6948 7.55462 21.5002 9.74031 21.5002 12C21.5002 14.2597 20.6948 16.4454 19.2286 18.1647C17.7624 19.8841 15.7313 21.0246 13.5 21.3815Z" fill="black"/>
</svg>
