<svg width="24" height="24" viewBox="0 0 24 24" fill="none" xmlns="http://www.w3.org/2000/svg">
<path d="M5.54998 11.95V12.95C6.27233 12.9497 6.98763 13.0918 7.65504 13.3681C8.32244 13.6445 8.92886 14.0496 9.43963 14.5603C9.9504 15.0711 10.3555 15.6775 10.6318 16.3449C10.9081 17.0123 11.0502 17.7276 11.05 18.45H12.05C12.0503 17.5963 11.8823 16.7509 11.5558 15.9622C11.2292 15.1735 10.7505 14.4568 10.1468 13.8531C9.54319 13.2495 8.82652 12.7707 8.03777 12.4442C7.24902 12.1176 6.40366 11.9497 5.54998 11.95ZM3.37108 14.972L3.06178 18.11L1.08398 20.0875L3.91248 22.916L5.88998 20.9382L9.02788 20.6289L9.87858 19.7781L4.22178 14.1213L3.37108 14.972ZM8.59498 19.7672L5.80178 20.0426L5.48178 20.0742L5.25418 20.3019L3.91248 21.6431L2.35688 20.0875L3.69808 18.7462L3.92578 18.5186L3.95738 18.1986L4.23268 15.4054L8.59498 19.7672ZM12.95 5.54998H11.95C11.9497 6.40366 12.1176 7.24902 12.4442 8.03777C12.7707 8.82652 13.2495 9.54319 13.8531 10.1468C14.4568 10.7505 15.1735 11.2292 15.9622 11.5558C16.7509 11.8823 17.5963 12.0503 18.45 12.05V11.05C17.7276 11.0503 17.0123 10.9082 16.3449 10.6319C15.6775 10.3556 15.0711 9.95047 14.5603 9.43969C14.0495 8.92891 13.6444 8.32248 13.3681 7.65507C13.0918 6.98765 12.9497 6.27233 12.95 5.54998ZM20.0875 1.08398L18.11 3.06168L14.9721 3.37108L14.1214 4.22178L19.7783 9.87868L20.629 9.02798L20.9382 5.88998L22.916 3.91238L20.0875 1.08398ZM20.0742 5.48138L20.0426 5.80138L19.7673 8.59448L15.405 4.23268L18.1982 3.95728L18.5182 3.92578L20.0871 2.35678L21.6427 3.91248L20.0742 5.48138Z" fill="black"/>
</svg>
