<svg width="24" height="24" viewBox="0 0 24 24" fill="none" xmlns="http://www.w3.org/2000/svg">
<path d="M12 13.35C12.267 13.35 12.528 13.2708 12.75 13.1225C12.972 12.9741 13.1451 12.7633 13.2472 12.5166C13.3494 12.2699 13.3762 11.9985 13.3241 11.7366C13.272 11.4748 13.1434 11.2342 12.9546 11.0454C12.7658 10.8566 12.5252 10.728 12.2634 10.6759C12.0015 10.6238 11.7301 10.6506 11.4834 10.7528C11.2367 10.8549 11.0259 11.028 10.8775 11.25C10.7292 11.472 10.65 11.733 10.65 12C10.65 12.358 10.7922 12.7014 11.0454 12.9546C11.2986 13.2078 11.642 13.35 12 13.35ZM17.125 13.35C17.392 13.35 17.653 13.2708 17.875 13.1225C18.097 12.9741 18.2701 12.7633 18.3722 12.5166C18.4744 12.2699 18.5012 11.9985 18.4491 11.7366C18.397 11.4748 18.2684 11.2342 18.0796 11.0454C17.8908 10.8566 17.6502 10.728 17.3884 10.6759C17.1265 10.6238 16.8551 10.6506 16.6084 10.7528C16.3617 10.8549 16.1509 11.028 16.0025 11.25C15.8542 11.472 15.775 11.733 15.775 12C15.775 12.358 15.9172 12.7014 16.1704 12.9546C16.4236 13.2078 16.767 13.35 17.125 13.35ZM6.875 13.35C7.142 13.35 7.403 13.2708 7.62499 13.1224C7.84699 12.9741 8.02 12.7632 8.12217 12.5166C8.22433 12.2699 8.25105 11.9984 8.19895 11.7366C8.14685 11.4747 8.01826 11.2342 7.82946 11.0454C7.64065 10.8566 7.40011 10.728 7.13824 10.6759C6.87636 10.6239 6.60493 10.6506 6.35825 10.7528C6.11158 10.855 5.90074 11.028 5.75241 11.25C5.60407 11.472 5.5249 11.733 5.5249 12C5.5249 12.1773 5.55982 12.3528 5.62767 12.5166C5.69552 12.6804 5.79497 12.8293 5.92034 12.9546C6.04571 13.08 6.19455 13.1794 6.35835 13.2473C6.52215 13.3151 6.69771 13.35 6.875 13.35ZM1 5V19H23V5H1ZM21 17H3V7H21V17Z" fill="black"/>
</svg>
