<svg width="24" height="24" viewBox="0 0 24 24" fill="none" xmlns="http://www.w3.org/2000/svg">
<path d="M16 3H14C14 2.46957 13.7893 1.96086 13.4142 1.58579C13.0391 1.21071 12.5304 1 12 1C11.4696 1 10.9609 1.21071 10.5858 1.58579C10.2107 1.96086 10 2.46957 10 3H8C7.20435 3 6.44129 3.31607 5.87868 3.87868C5.31607 4.44129 5 5.20435 5 6V20C5 20.7956 5.31607 21.5587 5.87868 22.1213C6.44129 22.6839 7.20435 23 8 23H16C16.7956 23 17.5587 22.6839 18.1213 22.1213C18.6839 21.5587 19 20.7956 19 20V6C19 5.20435 18.6839 4.44129 18.1213 3.87868C17.5587 3.31607 16.7956 3 16 3ZM14.5 17.8H9.5V16.2H14.5V17.8ZM14.5 9.8H12.8V11.5H11.2V9.8H9.5V8.2H11.2V6.5H12.8V8.2H14.5V9.8Z" fill="black"/>
</svg>
