<svg width="24" height="24" viewBox="0 0 24 24" fill="none" xmlns="http://www.w3.org/2000/svg">
<path d="M4 2V22H20V2H4ZM18 20H6V4H18V20ZM12 7.9375C12.2472 7.9375 12.4889 7.86419 12.6945 7.72684C12.9 7.58949 13.0602 7.39426 13.1548 7.16585C13.2495 6.93745 13.2742 6.68611 13.226 6.44364C13.1778 6.20116 13.0587 5.97843 12.8839 5.80362C12.7091 5.6288 12.4863 5.50975 12.2439 5.46152C12.0014 5.41329 11.7501 5.43804 11.5216 5.53265C11.2932 5.62726 11.098 5.78748 10.9607 5.99304C10.8233 6.1986 10.75 6.44027 10.75 6.6875C10.75 7.01902 10.8817 7.33696 11.1161 7.57138C11.3505 7.8058 11.6685 7.9375 12 7.9375ZM12 15.25C12.2472 15.25 12.4889 15.1767 12.6945 15.0393C12.9 14.902 13.0602 14.7068 13.1548 14.4784C13.2495 14.2499 13.2742 13.9986 13.226 13.7561C13.1778 13.5137 13.0587 13.2909 12.8839 13.1161C12.7091 12.9413 12.4863 12.8222 12.2439 12.774C12.0014 12.7258 11.7501 12.7505 11.5216 12.8452C11.2932 12.9398 11.098 13.1 10.9607 13.3055C10.8233 13.5111 10.75 13.7528 10.75 14C10.75 14.3315 10.8817 14.6495 11.1161 14.8839C11.3505 15.1183 11.6685 15.25 12 15.25ZM12 18.75C12.9395 18.75 13.8578 18.4714 14.639 17.9495C15.4201 17.4275 16.0289 16.6857 16.3884 15.8177C16.7479 14.9498 16.842 13.9947 16.6587 13.0733C16.4754 12.1519 16.0231 11.3055 15.3588 10.6412C14.6945 9.97694 13.8481 9.52455 12.9267 9.34127C12.0053 9.15799 11.0502 9.25206 10.1823 9.61157C9.3143 9.97109 8.57246 10.5799 8.05052 11.361C7.52858 12.1422 7.25 13.0605 7.25 14C7.25 15.2598 7.75045 16.468 8.64124 17.3588C9.53204 18.2496 10.7402 18.75 12 18.75ZM12 10.95C12.6032 10.95 13.1929 11.1289 13.6945 11.464C14.1961 11.7992 14.587 12.2755 14.8178 12.8328C15.0487 13.3901 15.1091 14.0034 14.9914 14.595C14.8737 15.1867 14.5832 15.7301 14.1567 16.1567C13.7301 16.5832 13.1867 16.8737 12.595 16.9914C12.0034 17.1091 11.3901 17.0487 10.8328 16.8178C10.2755 16.587 9.79916 16.1961 9.46402 15.6945C9.12888 15.1929 8.95 14.6032 8.95 14C8.9509 13.1914 9.27253 12.4161 9.84432 11.8443C10.4161 11.2725 11.1914 10.9509 12 10.95Z" fill="black"/>
</svg>
