<svg width="24" height="24" viewBox="0 0 24 24" fill="none" xmlns="http://www.w3.org/2000/svg">
<path d="M12 5C11.9337 5 11.8701 5.02634 11.8232 5.07322C11.7763 5.12011 11.75 5.1837 11.75 5.25V8.75C11.75 8.8163 11.7763 8.87989 11.8232 8.92678C11.8701 8.97366 11.9337 9 12 9C12.0663 9 12.1299 8.97366 12.1768 8.92678C12.2237 8.87989 12.25 8.8163 12.25 8.75V5.25C12.25 5.1837 12.2237 5.12011 12.1768 5.07322C12.1299 5.02634 12.0663 5 12 5ZM14 2H10C8.67392 2 7.40215 2.52678 6.46447 3.46447C5.52678 4.40215 5 5.67392 5 7V15C5 16.8565 5.7375 18.637 7.05025 19.9497C8.36301 21.2625 10.1435 22 12 22C13.8565 22 15.637 21.2625 16.9497 19.9497C18.2625 18.637 19 16.8565 19 15V7C19 5.67392 18.4732 4.40215 17.5355 3.46447C16.5979 2.52678 15.3261 2 14 2ZM18.5 15C18.5 16.7239 17.8152 18.3772 16.5962 19.5962C15.3772 20.8152 13.7239 21.5 12 21.5C10.2761 21.5 8.62279 20.8152 7.40381 19.5962C6.18482 18.3772 5.5 16.7239 5.5 15V7C5.50135 5.80694 5.97589 4.66313 6.81951 3.81951C7.66313 2.97589 8.80694 2.50135 10 2.5H14C15.1931 2.50135 16.3369 2.97589 17.1805 3.81951C18.0241 4.66313 18.4987 5.80694 18.5 7V15Z" fill="black"/>
</svg>
