<svg width="24" height="24" viewBox="0 0 24 24" fill="none" xmlns="http://www.w3.org/2000/svg">
<path d="M1 5V19H23V5H1ZM6.09 13.15C5.86255 13.15 5.64021 13.0826 5.45109 12.9562C5.26198 12.8298 5.11458 12.6502 5.02754 12.4401C4.9405 12.23 4.91772 11.9987 4.9621 11.7756C5.00647 11.5526 5.116 11.3477 5.27683 11.1868C5.43766 11.026 5.64257 10.9165 5.86565 10.8721C6.08872 10.8277 6.31995 10.8505 6.53009 10.9375C6.74022 11.0246 6.91983 11.172 7.04619 11.3611C7.17255 11.5502 7.24 11.7726 7.24 12C7.24 12.151 7.21025 12.3006 7.15246 12.4401C7.09467 12.5796 7.00996 12.7064 6.90317 12.8132C6.79639 12.92 6.66961 13.0047 6.53009 13.0625C6.39056 13.1203 6.24102 13.15 6.09 13.15ZM12 13.15C11.7726 13.15 11.5502 13.0826 11.3611 12.9562C11.172 12.8298 11.0246 12.6502 10.9375 12.4401C10.8505 12.23 10.8277 11.9987 10.8721 11.7756C10.9165 11.5526 11.026 11.3477 11.1868 11.1868C11.3477 11.026 11.5526 10.9165 11.7756 10.8721C11.9987 10.8277 12.23 10.8505 12.4401 10.9375C12.6502 11.0246 12.8298 11.172 12.9562 11.3611C13.0826 11.5502 13.15 11.7726 13.15 12C13.15 12.305 13.0288 12.5975 12.8132 12.8132C12.5975 13.0288 12.305 13.15 12 13.15ZM17.91 13.15C17.6826 13.15 17.4602 13.0826 17.2711 12.9562C17.082 12.8298 16.9346 12.6502 16.8475 12.4401C16.7605 12.23 16.7377 11.9987 16.7821 11.7756C16.8265 11.5526 16.936 11.3477 17.0968 11.1868C17.2577 11.026 17.4626 10.9165 17.6856 10.8721C17.9087 10.8277 18.14 10.8505 18.3501 10.9375C18.5602 11.0246 18.7398 11.172 18.8662 11.3611C18.9926 11.5502 19.06 11.7726 19.06 12C19.06 12.305 18.9388 12.5975 18.7232 12.8132C18.5075 13.0288 18.215 13.15 17.91 13.15Z" fill="black"/>
</svg>
