<svg width="24" height="24" viewBox="0 0 24 24" fill="none" xmlns="http://www.w3.org/2000/svg">
<path d="M5.5 6H4V22H16V20.5H5.5V6ZM8 2V18H20V2H8ZM18.5 16.5H9.5V3.5H18.5V16.5ZM14 7.7375C14.2077 7.7375 14.4107 7.67592 14.5833 7.56054C14.756 7.44517 14.8906 7.28118 14.9701 7.08932C15.0495 6.89746 15.0703 6.68634 15.0298 6.48266C14.9893 6.27898 14.8893 6.09188 14.7425 5.94504C14.5956 5.79819 14.4085 5.69819 14.2048 5.65768C14.0012 5.61716 13.79 5.63795 13.5982 5.71743C13.4063 5.7969 13.2423 5.93148 13.127 6.10415C13.0116 6.27682 12.95 6.47983 12.95 6.6875C12.95 6.96598 13.0606 7.23305 13.2575 7.42996C13.4545 7.62688 13.7215 7.7375 14 7.7375ZM14 14.75C14.5439 14.75 15.0756 14.5887 15.5278 14.2865C15.9801 13.9844 16.3325 13.5549 16.5407 13.0524C16.7488 12.5499 16.8033 11.997 16.6972 11.4635C16.591 10.9301 16.3291 10.4401 15.9445 10.0555C15.5599 9.67086 15.0699 9.40895 14.5365 9.30284C14.003 9.19673 13.4501 9.25119 12.9476 9.45933C12.4451 9.66747 12.0156 10.0199 11.7135 10.4722C11.4113 10.9244 11.25 11.4561 11.25 12C11.25 12.7293 11.5397 13.4288 12.0555 13.9445C12.5712 14.4603 13.2707 14.75 14 14.75ZM14 10.55C14.2868 10.55 14.5671 10.635 14.8056 10.7944C15.044 10.9537 15.2299 11.1802 15.3396 11.4451C15.4494 11.7101 15.4781 12.0016 15.4221 12.2829C15.3662 12.5642 15.2281 12.8225 15.0253 13.0253C14.8225 13.2281 14.5642 13.3662 14.2829 13.4221C14.0016 13.4781 13.7101 13.4494 13.4451 13.3396C13.1802 13.2299 12.9537 13.044 12.7944 12.8056C12.635 12.5671 12.55 12.2868 12.55 12C12.5504 11.6156 12.7033 11.247 12.9752 10.9752C13.247 10.7033 13.6156 10.5504 14 10.55Z" fill="black"/>
</svg>
