<svg width="24" height="24" viewBox="0 0 24 24" fill="none" xmlns="http://www.w3.org/2000/svg">
<path d="M7.6124 7.5416H6.3876V9.3876H4.5417V10.6124H6.3876V12.4583H7.6124V10.6124H9.4583V9.3876H7.6124V7.5416ZM17 7.5C16.4216 7.50002 15.8611 7.70058 15.414 8.06751C14.9669 8.43445 14.6609 8.94506 14.5481 9.51233C14.4353 10.0796 14.5226 10.6685 14.7953 11.1785C15.068 11.6886 15.509 12.0884 16.0434 12.3097C16.5778 12.531 17.1724 12.5602 17.7258 12.3923C18.2793 12.2244 18.7574 11.8698 19.0788 11.3889C19.4001 10.908 19.5447 10.3305 19.488 9.75491C19.4313 9.17931 19.1768 8.64117 18.7678 8.2322C18.5359 7.99971 18.2603 7.81534 17.957 7.68968C17.6536 7.56403 17.3284 7.49957 17 7.5ZM17.8956 10.8957C17.6884 11.1028 17.4157 11.2317 17.1242 11.2604C16.8326 11.2891 16.54 11.2158 16.2964 11.053C16.0528 10.8902 15.8732 10.6479 15.7882 10.3675C15.7032 10.0871 15.718 9.78592 15.8301 9.51523C15.9423 9.24454 16.1448 9.02111 16.4032 8.88301C16.6617 8.7449 16.96 8.70067 17.2473 8.75784C17.5347 8.81502 17.7934 8.97006 17.9792 9.19656C18.1651 9.42306 18.2667 9.707 18.2667 10C18.2672 10.1664 18.2346 10.3313 18.1709 10.485C18.1072 10.6388 18.0136 10.7784 17.8956 10.8957ZM18 4H6C5.34339 4 4.69321 4.12933 4.08658 4.3806C3.47996 4.63188 2.92876 5.00017 2.46447 5.46447C1.52678 6.40215 1 7.67392 1 9V17.66C0.999549 18.4436 1.27478 19.2025 1.77749 19.8036C2.28021 20.4048 2.97837 20.8099 3.74973 20.9481C4.52109 21.0863 5.31648 20.9488 5.99664 20.5595C6.67679 20.1703 7.19835 19.5543 7.47 18.8192L8.4979 16H15.5021L16.53 18.8189C16.8016 19.5539 17.3232 20.17 18.0033 20.5592C18.6834 20.9484 19.4788 21.086 20.2501 20.9478C21.0215 20.8097 21.7196 20.4046 22.2224 19.8035C22.7251 19.2024 23.0004 18.4436 23 17.66V9C23 8.34339 22.8707 7.69321 22.6194 7.08658C22.3681 6.47995 21.9998 5.92876 21.5355 5.46447C21.0712 5.00017 20.52 4.63188 19.9134 4.3806C19.3068 4.12933 18.6566 4 18 4ZM21.5 17.66C21.5002 18.0937 21.3471 18.5136 21.0678 18.8454C20.7885 19.1772 20.4009 19.3996 19.9735 19.4734C19.5461 19.5471 19.1063 19.4674 18.732 19.2484C18.3576 19.0293 18.0727 18.685 17.9276 18.2763L16.9 15.4571L16.529 14.5H7.471L7.1 15.4571L6.0724 18.276C5.92729 18.6847 5.64241 19.029 5.26809 19.248C4.89376 19.4671 4.45407 19.5468 4.02667 19.4731C3.59928 19.3994 3.21167 19.177 2.93232 18.8453C2.65297 18.5135 2.49985 18.0937 2.5 17.66V9C2.50106 8.07207 2.87015 7.18244 3.5263 6.5263C4.18244 5.87015 5.07207 5.50106 6 5.5H18C18.9279 5.50106 19.8176 5.87015 20.4737 6.5263C21.1299 7.18244 21.4989 8.07207 21.5 9V17.66Z" fill="black"/>
</svg>
