<svg width="24" height="24" viewBox="0 0 24 24" fill="none" xmlns="http://www.w3.org/2000/svg">
<path d="M16.5 2H7.5C6.83696 2 6.20107 2.26339 5.73223 2.73223C5.26339 3.20107 5 3.83696 5 4.5V19.5C5 20.163 5.26339 20.7989 5.73223 21.2678C6.20107 21.7366 6.83696 22 7.5 22H16.5C17.163 22 17.7989 21.7366 18.2678 21.2678C18.7366 20.7989 19 20.163 19 19.5V4.5C19 3.83696 18.7366 3.20107 18.2678 2.73223C17.7989 2.26339 17.163 2 16.5 2ZM7 5H17V10H7V5ZM7.7073 20C7.5293 20 7.35529 19.9472 7.20729 19.8483C7.05928 19.7494 6.94393 19.6089 6.87581 19.4444C6.80769 19.28 6.78987 19.099 6.82459 18.9244C6.85932 18.7498 6.94504 18.5895 7.0709 18.4636C7.19677 18.3377 7.35714 18.252 7.53172 18.2173C7.7063 18.1826 7.88726 18.2004 8.05171 18.2685C8.21617 18.3366 8.35673 18.452 8.45562 18.6C8.55452 18.748 8.6073 18.922 8.6073 19.1C8.6073 19.3387 8.51248 19.5676 8.3437 19.7364C8.17491 19.9052 7.946 20 7.7073 20ZM7.7073 16.9C7.5293 16.9 7.35529 16.8472 7.20729 16.7483C7.05928 16.6494 6.94393 16.5089 6.87581 16.3444C6.80769 16.18 6.78987 15.999 6.82459 15.8244C6.85932 15.6498 6.94504 15.4895 7.0709 15.3636C7.19677 15.2377 7.35714 15.152 7.53172 15.1173C7.7063 15.0826 7.88726 15.1004 8.05171 15.1685C8.21617 15.2366 8.35673 15.352 8.45562 15.5C8.55452 15.648 8.6073 15.822 8.6073 16C8.6073 16.1182 8.58402 16.2352 8.53879 16.3444C8.49356 16.4536 8.42727 16.5528 8.3437 16.6364C8.26012 16.72 8.16091 16.7863 8.05171 16.8315C7.94252 16.8767 7.82549 16.9 7.7073 16.9ZM7.7073 13.8C7.5293 13.8 7.35529 13.7472 7.20729 13.6483C7.05928 13.5494 6.94393 13.4089 6.87581 13.2444C6.80769 13.08 6.78987 12.899 6.82459 12.7244C6.85932 12.5498 6.94504 12.3895 7.0709 12.2636C7.19677 12.1377 7.35714 12.052 7.53172 12.0173C7.7063 11.9826 7.88726 12.0004 8.05171 12.0685C8.21617 12.1366 8.35673 12.252 8.45562 12.4C8.55452 12.548 8.6073 12.722 8.6073 12.9C8.6073 13.1387 8.51248 13.3676 8.3437 13.5364C8.17491 13.7052 7.946 13.8 7.7073 13.8ZM10.5691 20C10.3911 20 10.2171 19.9472 10.0691 19.8483C9.92108 19.7494 9.80573 19.6089 9.73761 19.4444C9.66949 19.28 9.65167 19.099 9.68639 18.9244C9.72112 18.7498 9.80684 18.5895 9.9327 18.4636C10.0586 18.3377 10.2189 18.252 10.3935 18.2173C10.5681 18.1826 10.7491 18.2004 10.9135 18.2685C11.078 18.3366 11.2185 18.452 11.3174 18.6C11.4163 18.748 11.4691 18.922 11.4691 19.1C11.4691 19.3387 11.3743 19.5676 11.2055 19.7364C11.0367 19.9052 10.8078 20 10.5691 20ZM10.5691 16.9C10.3911 16.9 10.2171 16.8472 10.0691 16.7483C9.92108 16.6494 9.80573 16.5089 9.73761 16.3444C9.66949 16.18 9.65167 15.999 9.68639 15.8244C9.72112 15.6498 9.80684 15.4895 9.9327 15.3636C10.0586 15.2377 10.2189 15.152 10.3935 15.1173C10.5681 15.0826 10.7491 15.1004 10.9135 15.1685C11.078 15.2366 11.2185 15.352 11.3174 15.5C11.4163 15.648 11.4691 15.822 11.4691 16C11.4691 16.1182 11.4458 16.2352 11.4006 16.3444C11.3554 16.4536 11.2891 16.5528 11.2055 16.6364C11.1219 16.72 11.0227 16.7863 10.9135 16.8315C10.8043 16.8767 10.6873 16.9 10.5691 16.9ZM10.5691 13.8C10.3911 13.8 10.2171 13.7472 10.0691 13.6483C9.92108 13.5494 9.80573 13.4089 9.73761 13.2444C9.66949 13.08 9.65167 12.899 9.68639 12.7244C9.72112 12.5498 9.80684 12.3895 9.9327 12.2636C10.0586 12.1377 10.2189 12.052 10.3935 12.0173C10.5681 11.9826 10.7491 12.0004 10.9135 12.0685C11.078 12.1366 11.2185 12.252 11.3174 12.4C11.4163 12.548 11.4691 12.722 11.4691 12.9C11.4691 13.1387 11.3743 13.3676 11.2055 13.5364C11.0367 13.7052 10.8078 13.8 10.5691 13.8ZM13.4309 20C13.2529 20 13.0789 19.9472 12.9309 19.8483C12.7829 19.7494 12.6675 19.6089 12.5994 19.4444C12.5313 19.28 12.5135 19.099 12.5482 18.9244C12.5829 18.7498 12.6686 18.5895 12.7945 18.4636C12.9204 18.3377 13.0807 18.252 13.2553 18.2173C13.4299 18.1826 13.6109 18.2004 13.7753 18.2685C13.9398 18.3366 14.0803 18.452 14.1792 18.6C14.2781 18.748 14.3309 18.922 14.3309 19.1C14.3309 19.3387 14.2361 19.5676 14.0673 19.7364C13.8985 19.9052 13.6696 20 13.4309 20ZM13.4309 16.9C13.2529 16.9 13.0789 16.8472 12.9309 16.7483C12.7829 16.6494 12.6675 16.5089 12.5994 16.3444C12.5313 16.18 12.5135 15.999 12.5482 15.8244C12.5829 15.6498 12.6686 15.4895 12.7945 15.3636C12.9204 15.2377 13.0807 15.152 13.2553 15.1173C13.4299 15.0826 13.6109 15.1004 13.7753 15.1685C13.9398 15.2366 14.0803 15.352 14.1792 15.5C14.2781 15.648 14.3309 15.822 14.3309 16C14.3309 16.1182 14.3076 16.2352 14.2624 16.3444C14.2172 16.4536 14.1509 16.5528 14.0673 16.6364C13.9837 16.72 13.8845 16.7863 13.7753 16.8315C13.6661 16.8767 13.5491 16.9 13.4309 16.9ZM13.4309 13.8C13.2529 13.8 13.0789 13.7472 12.9309 13.6483C12.7829 13.5494 12.6675 13.4089 12.5994 13.2444C12.5313 13.08 12.5135 12.899 12.5482 12.7244C12.5829 12.5498 12.6686 12.3895 12.7945 12.2636C12.9204 12.1377 13.0807 12.052 13.2553 12.0173C13.4299 11.9826 13.6109 12.0004 13.7753 12.0685C13.9398 12.1366 14.0803 12.252 14.1792 12.4C14.2781 12.548 14.3309 12.722 14.3309 12.9C14.3309 13.1387 14.2361 13.3676 14.0673 13.5364C13.8985 13.7052 13.6696 13.8 13.4309 13.8ZM16.2927 20C16.1147 20 15.9407 19.9472 15.7927 19.8483C15.6447 19.7494 15.5293 19.6089 15.4612 19.4444C15.3931 19.28 15.3753 19.099 15.41 18.9244C15.4447 18.7498 15.5304 18.5895 15.6563 18.4636C15.7822 18.3377 15.9425 18.252 16.1171 18.2173C16.2917 18.1826 16.4727 18.2004 16.6371 18.2685C16.8016 18.3366 16.9421 18.452 17.041 18.6C17.1399 18.748 17.1927 18.922 17.1927 19.1C17.1927 19.3387 17.0979 19.5676 16.9291 19.7364C16.7603 19.9052 16.5314 20 16.2927 20ZM16.2927 16.9C16.1147 16.9 15.9407 16.8472 15.7927 16.7483C15.6447 16.6494 15.5293 16.5089 15.4612 16.3444C15.3931 16.18 15.3753 15.999 15.41 15.8244C15.4447 15.6498 15.5304 15.4895 15.6563 15.3636C15.7822 15.2377 15.9425 15.152 16.1171 15.1173C16.2917 15.0826 16.4727 15.1004 16.6371 15.1685C16.8016 15.2366 16.9421 15.352 17.041 15.5C17.1399 15.648 17.1927 15.822 17.1927 16C17.1927 16.1182 17.1694 16.2352 17.1242 16.3444C17.079 16.4536 17.0127 16.5528 16.9291 16.6364C16.8455 16.72 16.7463 16.7863 16.6371 16.8315C16.5279 16.8767 16.4109 16.9 16.2927 16.9ZM16.2927 13.8C16.1147 13.8 15.9407 13.7472 15.7927 13.6483C15.6447 13.5494 15.5293 13.4089 15.4612 13.2444C15.3931 13.08 15.3753 12.899 15.41 12.7244C15.4447 12.5498 15.5304 12.3895 15.6563 12.2636C15.7822 12.1377 15.9425 12.052 16.1171 12.0173C16.2917 11.9826 16.4727 12.0004 16.6371 12.0685C16.8016 12.1366 16.9421 12.252 17.041 12.4C17.1399 12.548 17.1927 12.722 17.1927 12.9C17.1927 13.1387 17.0979 13.3676 16.9291 13.5364C16.7603 13.7052 16.5314 13.8 16.2927 13.8Z" fill="black"/>
</svg>
