<svg width="24" height="24" viewBox="0 0 24 24" fill="none" xmlns="http://www.w3.org/2000/svg">
<path d="M17 9.2847C16.6032 9.2847 16.2186 9.4223 15.9118 9.67406C15.6051 9.92581 15.3951 10.2761 15.3177 10.6654C15.2402 11.0546 15.3002 11.4586 15.4872 11.8086C15.6743 12.1586 15.9769 12.4329 16.3436 12.5847C16.7102 12.7366 17.1182 12.7566 17.4979 12.6414C17.8777 12.5262 18.2057 12.2829 18.4262 11.953C18.6467 11.623 18.7459 11.2268 18.707 10.8319C18.6681 10.4369 18.4935 10.0677 18.2129 9.7871C18.054 9.62732 17.865 9.50064 17.6568 9.4144C17.4486 9.32817 17.2253 9.28408 17 9.2847ZM18 5H12.5V3.4168C12.5005 3.0412 12.6499 2.6811 12.9154 2.4155C13.181 2.1499 13.5411 2.00048 13.9167 2H17V1H13.9167C13.276 1.00087 12.6618 1.25578 12.2088 1.70883C11.7557 2.16189 11.5008 2.7761 11.5 3.4168V5H6C5.34339 5 4.69321 5.12933 4.08658 5.3806C3.47995 5.63188 2.92876 6.00017 2.46447 6.46447C1.52678 7.40215 1 8.67392 1 10V19.1346C0.99997 19.8228 1.24762 20.488 1.69766 21.0086C2.14771 21.5292 2.7701 21.8705 3.45105 21.97C4.13199 22.0695 4.82601 21.9206 5.40623 21.5506C5.98644 21.1805 6.41409 20.614 6.611 19.9546L7.4936 17H16.5064L17.389 19.9547C17.5859 20.6141 18.0136 21.1806 18.5938 21.5507C19.174 21.9207 19.868 22.0696 20.549 21.9701C21.2299 21.8706 21.8523 21.5293 22.3023 21.0087C22.7524 20.4881 23 19.8229 23 19.1347V10C23 9.34339 22.8707 8.69321 22.6194 8.08658C22.3681 7.47996 21.9998 6.92876 21.5355 6.46447C21.0712 6.00017 20.52 5.63188 19.9134 5.3806C19.3068 5.12933 18.6566 5 18 5ZM9.4167 11.4249H7.4249V13.4166H6.5749V11.4249H4.5833V10.5749H6.5751V8.5833H7.4251V10.5751H9.4167V11.4249ZM18.8021 12.8021C18.3852 13.219 17.8366 13.4785 17.2498 13.5363C16.663 13.5941 16.0743 13.4466 15.584 13.119C15.0938 12.7914 14.7323 12.304 14.5611 11.7397C14.39 11.1755 14.4198 10.5693 14.6454 10.0246C14.8711 9.47983 15.2786 9.03018 15.7986 8.75224C16.3187 8.4743 16.919 8.38527 17.4973 8.50032C18.0756 8.61536 18.5961 8.92737 18.9701 9.38317C19.3442 9.83897 19.5486 10.4104 19.5486 11C19.549 11.3347 19.4833 11.6663 19.3552 11.9755C19.2271 12.2848 19.0391 12.5657 18.8021 12.8021Z" fill="black"/>
</svg>
