<svg width="24" height="24" viewBox="0 0 24 24" fill="none" xmlns="http://www.w3.org/2000/svg">
<path d="M15.5 3H8.49999C7.83695 3 7.20107 3.26339 6.73223 3.73223C6.26339 4.20107 5.99999 4.83696 5.99999 5.5V18.5C5.99999 19.163 6.26339 19.7989 6.73223 20.2678C7.20107 20.7366 7.83695 21 8.49999 21H15.5C16.163 21 16.7989 20.7366 17.2678 20.2678C17.7366 19.7989 18 19.163 18 18.5V5.5C18 4.83696 17.7366 4.20107 17.2678 3.73223C16.7989 3.26339 16.163 3 15.5 3ZM17 18.5C16.9995 18.8977 16.8414 19.279 16.5602 19.5602C16.2789 19.8414 15.8977 19.9995 15.5 20H8.49999C8.10231 19.9995 7.72104 19.8414 7.43983 19.5602C7.15862 19.279 7.00044 18.8977 6.99999 18.5V5.5C7.00044 5.10231 7.15862 4.72104 7.43983 4.43984C7.72104 4.15863 8.10231 4.00045 8.49999 4H15.5C15.8977 4.00045 16.2789 4.15863 16.5602 4.43984C16.8414 4.72104 16.9995 5.10231 17 5.5V18.5ZM1.52539 14.4746L2.03609 14.9854H0.0399933V15.9854H3.82779V12.1976H2.82779V14.363L2.23229 13.7676C1.77793 13.2913 1.52444 12.6583 1.52444 12C1.52444 11.3417 1.77793 10.7087 2.23229 10.2324C2.4638 9.9994 2.73926 9.81468 3.04271 9.68896C3.34615 9.56323 3.67154 9.499 3.99999 9.5V8.5C3.54019 8.49872 3.08471 8.5887 2.65993 8.76471C2.23516 8.94073 1.84953 9.19928 1.52539 9.5254C0.888843 10.192 0.533656 11.0783 0.533656 12C0.533656 12.9217 0.888843 13.808 1.52539 14.4746ZM23.96 8.0147H20.1723V11.8023H21.1723V9.637L21.7677 10.2324C22.2221 10.7087 22.4755 11.3417 22.4755 12C22.4755 12.6583 22.2221 13.2913 21.7677 13.7676C21.5362 14.0006 21.2607 14.1853 20.9573 14.311C20.6538 14.4368 20.3284 14.501 20 14.5V15.5C20.4598 15.5013 20.9153 15.4113 21.34 15.2353C21.7648 15.0593 22.1505 14.8007 22.4746 14.4746C23.1111 13.808 23.4663 12.9217 23.4663 12C23.4663 11.0783 23.1111 10.192 22.4746 9.5254L21.9639 9.0146H23.96V8.0147Z" fill="black"/>
</svg>
