<svg width="24" height="24" viewBox="0 0 24 24" fill="none" xmlns="http://www.w3.org/2000/svg">
<path d="M9 3.1001C9 2.96749 8.94732 2.84031 8.85355 2.74654C8.75979 2.65278 8.63261 2.6001 8.5 2.6001H5.5C5.36739 2.6001 5.24021 2.65278 5.14645 2.74654C5.05268 2.84031 5 2.96749 5 3.1001V4.0001H9V3.1001ZM19.5 5.0001H4.5C3.83696 5.0001 3.20107 5.26349 2.73223 5.73233C2.26339 6.20117 2 6.83706 2 7.5001V16.5001C2 17.1631 2.26339 17.799 2.73223 18.2679C3.20107 18.7367 3.83696 19.0001 4.5 19.0001H19.5C20.163 19.0001 20.7989 18.7367 21.2678 18.2679C21.7366 17.799 22 17.1631 22 16.5001V7.5001C22 6.83706 21.7366 6.20117 21.2678 5.73233C20.7989 5.26349 20.163 5.0001 19.5 5.0001ZM13.6875 15.5001C12.9953 15.5001 12.3186 15.2948 11.743 14.9102C11.1674 14.5257 10.7188 13.979 10.4539 13.3395C10.189 12.6999 10.1197 11.9962 10.2548 11.3173C10.3898 10.6383 10.7231 10.0147 11.2126 9.52522C11.7021 9.03574 12.3258 8.7024 13.0047 8.56735C13.6836 8.4323 14.3874 8.50161 15.0269 8.76652C15.6664 9.03143 16.2131 9.48003 16.5976 10.0556C16.9822 10.6312 17.1875 11.3079 17.1875 12.0001C17.1866 12.9281 16.8175 13.8178 16.1614 14.4739C15.5052 15.1301 14.6155 15.4992 13.6875 15.5001Z" fill="black"/>
</svg>
