<svg width="24" height="24" viewBox="0 0 24 24" fill="none" xmlns="http://www.w3.org/2000/svg">
<path d="M12 1C10.2334 0.999686 8.49282 1.42563 6.92601 2.24168C5.35919 3.05773 4.01241 4.23979 3 5.6875V18.3125C4.01264 19.76 5.35947 20.9419 6.92624 21.7579C8.493 22.5739 10.2335 23 12 23C13.7665 23 15.507 22.5739 17.0738 21.7579C18.6405 20.9419 19.9874 19.76 21 18.3125V5.6875C19.9876 4.23979 18.6408 3.05773 17.074 2.24168C15.5072 1.42563 13.7666 0.999686 12 1ZM20.5 18.1524C19.5286 19.4982 18.2514 20.5942 16.7737 21.35C15.2959 22.1059 13.6598 22.5 12 22.5C10.3402 22.5 8.70408 22.1059 7.22634 21.35C5.74859 20.5942 4.47145 19.4982 3.5 18.1524V5.8476C4.47145 4.50175 5.74859 3.40582 7.22634 2.64998C8.70408 1.89415 10.3402 1.50001 12 1.50001C13.6598 1.50001 15.2959 1.89415 16.7737 2.64998C18.2514 3.40582 19.5286 4.50175 20.5 5.8476V18.1524ZM11.7642 13.5L11.7649 16.5H12.2649L12.2642 13.5H11.7642ZM7.2761 10.1349L7.6296 10.4884L9.7505 8.3666L9.397 8.0131L7.2761 10.1349ZM14.2761 8.3656L16.398 10.4865L16.7515 10.1328L14.6292 8.012L14.2761 8.3656Z" fill="black"/>
</svg>
