<svg width="24" height="24" viewBox="0 0 24 24" fill="none" xmlns="http://www.w3.org/2000/svg">
<path d="M14 5H12.5V3.4168C12.5004 3.0412 12.6499 2.6811 12.9154 2.4155C13.181 2.1499 13.5411 2.00048 13.9167 2H17V1H13.9167C13.276 1.00087 12.6618 1.25578 12.2088 1.70883C11.7557 2.16189 11.5008 2.7761 11.5 3.4168V5H10C8.67392 5 7.40215 5.52678 6.46447 6.46447C5.52678 7.40215 5 8.67392 5 10V17C5 18.8565 5.7375 20.637 7.05025 21.9497C8.36301 23.2625 10.1435 24 12 24C13.8565 24 15.637 23.2625 16.9497 21.9497C18.2625 20.637 19 18.8565 19 17V10C19 8.67392 18.4732 7.40215 17.5355 6.46447C16.5979 5.52678 15.3261 5 14 5ZM12.5 10.5C12.5 10.6326 12.4473 10.7598 12.3536 10.8536C12.2598 10.9473 12.1326 11 12 11C11.8674 11 11.7402 10.9473 11.6464 10.8536C11.5527 10.7598 11.5 10.6326 11.5 10.5V7.5C11.5 7.36739 11.5527 7.24021 11.6464 7.14645C11.7402 7.05268 11.8674 7 12 7C12.1326 7 12.2598 7.05268 12.3536 7.14645C12.4473 7.24021 12.5 7.36739 12.5 7.5V10.5Z" fill="black"/>
</svg>
