<svg width="24" height="24" viewBox="0 0 24 24" fill="none" xmlns="http://www.w3.org/2000/svg">
<path d="M14 1H10C9.46957 1 8.96086 1.21071 8.58579 1.58579C8.21071 1.96086 8 2.46957 8 3V21C8 21.5304 8.21071 22.0391 8.58579 22.4142C8.96086 22.7893 9.46957 23 10 23H14C14.5304 23 15.0391 22.7893 15.4142 22.4142C15.7893 22.0391 16 21.5304 16 21V3C16 2.46957 15.7893 1.96086 15.4142 1.58579C15.0391 1.21071 14.5304 1 14 1ZM10 2.5H14C14.1326 2.50016 14.2596 2.55289 14.3534 2.64662C14.4471 2.74036 14.4998 2.86744 14.5 3V5.9006C13.7969 5.31847 12.9128 4.99994 12 4.99994C11.0872 4.99994 10.2031 5.31847 9.5 5.9006V3C9.50016 2.86744 9.55289 2.74036 9.64662 2.64662C9.74036 2.55289 9.86744 2.50016 10 2.5ZM14.5 15C14.5 15.663 14.2366 16.2989 13.7678 16.7678C13.2989 17.2366 12.663 17.5 12 17.5C11.337 17.5 10.7011 17.2366 10.2322 16.7678C9.76339 16.2989 9.5 15.663 9.5 15V9C9.5 8.33696 9.76339 7.70107 10.2322 7.23223C10.7011 6.76339 11.337 6.5 12 6.5C12.663 6.5 13.2989 6.76339 13.7678 7.23223C14.2366 7.70107 14.5 8.33696 14.5 9V15ZM14 21.5H10C9.86744 21.4998 9.74036 21.4471 9.64662 21.3534C9.55289 21.2596 9.50016 21.1326 9.5 21V18.0994C10.2031 18.6815 11.0872 19.0001 12 19.0001C12.9128 19.0001 13.7969 18.6815 14.5 18.0994V21C14.4998 21.1326 14.4471 21.2596 14.3534 21.3534C14.2596 21.4471 14.1326 21.4998 14 21.5Z" fill="black"/>
</svg>
