<svg width="24" height="24" viewBox="0 0 24 24" fill="none" xmlns="http://www.w3.org/2000/svg">
<path d="M20 5H12.75V3.75C12.7503 3.41857 12.8821 3.1008 13.1164 2.86644C13.3508 2.63208 13.6686 2.50029 14 2.5H16V1H14C13.2709 1.00074 12.5718 1.29071 12.0563 1.80628C11.5407 2.32184 11.2507 3.02088 11.25 3.75V5H4C3.20435 5 2.44129 5.31607 1.87868 5.87868C1.31607 6.44129 1 7.20435 1 8V18C1 18.7956 1.31607 19.5587 1.87868 20.1213C2.44129 20.6839 3.20435 21 4 21H20C20.7956 21 21.5587 20.6839 22.1213 20.1213C22.6839 19.5587 23 18.7956 23 18V8C23 7.20435 22.6839 6.44129 22.1213 5.87868C21.5587 5.31607 20.7956 5 20 5ZM21.5 18C21.4995 18.3977 21.3414 18.779 21.0602 19.0602C20.779 19.3414 20.3977 19.4995 20 19.5H4C3.60231 19.4995 3.22104 19.3414 2.93984 19.0602C2.65863 18.779 2.50045 18.3977 2.5 18V8C2.50045 7.60231 2.65863 7.22104 2.93984 6.93984C3.22104 6.65863 3.60231 6.50045 4 6.5H20C20.3977 6.50045 20.779 6.65863 21.0602 6.93984C21.3414 7.22104 21.4995 7.60231 21.5 8V18ZM8 17H16V15H8V17ZM13 12H11V14H13V12ZM13 9H11V11H13V9ZM10 12H8V14H10V12ZM10 9H8V11H10V9ZM5 14H7V12H5V14ZM5 17H7V15H5V17ZM17 17H19V15H17V17ZM5 11H7V9H5V11ZM14 14H16V12H14V14ZM14 11H16V9H14V11ZM17 14H19V12H17V14ZM17 11H19V9H17V11Z" fill="black"/>
</svg>
