<svg width="24" height="24" viewBox="0 0 24 24" fill="none" xmlns="http://www.w3.org/2000/svg">
<path d="M6.69669 3.01631L7.40379 3.72331C8.62376 2.50617 10.2767 1.82264 12 1.82264C13.7233 1.82264 15.3762 2.50617 16.5962 3.72331L17.3033 3.01631C15.8957 1.61179 13.9884 0.822998 12 0.822998C10.0115 0.822998 8.10427 1.61179 6.69669 3.01631ZM13.7678 6.55181L14.4749 5.84471C13.8179 5.1893 12.9279 4.82123 11.9999 4.82123C11.0719 4.82123 10.1818 5.1893 9.52489 5.84471L10.232 6.55181C10.7012 6.08352 11.337 5.82052 11.9999 5.82052C12.6628 5.82052 13.2986 6.08352 13.7678 6.55181ZM7.99999 20.9999C7.99999 21.5303 8.2107 22.039 8.58577 22.4141C8.96085 22.7892 9.46955 22.9999 9.99999 22.9999H14C14.5304 22.9999 15.0391 22.7892 15.4142 22.4141C15.7893 22.039 16 21.5303 16 20.9999V8.99991H7.99999V20.9999ZM12 10.9999C12.2472 10.9999 12.4889 11.0732 12.6944 11.2106C12.9 11.3479 13.0602 11.5431 13.1548 11.7716C13.2494 12 13.2742 12.2513 13.226 12.4938C13.1777 12.7362 13.0587 12.959 12.8839 13.1338C12.7091 13.3086 12.4863 13.4277 12.2438 13.4759C12.0014 13.5241 11.75 13.4994 11.5216 13.4048C11.2932 13.3101 11.098 13.1499 10.9606 12.9444C10.8233 12.7388 10.75 12.4971 10.75 12.2499C10.75 11.9184 10.8817 11.6004 11.1161 11.366C11.3505 11.1316 11.6685 10.9999 12 10.9999Z" fill="black"/>
</svg>
