<svg width="24" height="24" viewBox="0 0 24 24" fill="none" xmlns="http://www.w3.org/2000/svg">
<path d="M20 3H4C3.46957 3 2.96086 3.21071 2.58579 3.58579C2.21071 3.96086 2 4.46957 2 5V15C2 15.5304 2.21071 16.0391 2.58579 16.4142C2.96086 16.7893 3.46957 17 4 17H9V17.382C8.99999 17.5677 8.94827 17.7497 8.85064 17.9077C8.753 18.0657 8.6133 18.1934 8.4472 18.2764L7 19V21H17V19L15.5528 18.2764C15.3867 18.1934 15.247 18.0657 15.1494 17.9077C15.0517 17.7497 15 17.5677 15 17.382V17H20C20.5304 17 21.0391 16.7893 21.4142 16.4142C21.7893 16.0391 22 15.5304 22 15V5C22 4.46957 21.7893 3.96086 21.4142 3.58579C21.0391 3.21071 20.5304 3 20 3ZM13.8674 19.2H10.1325C10.5652 18.6933 10.802 18.0483 10.8 17.382V17H13.2V17.382C13.198 18.0483 13.4348 18.6933 13.8674 19.2ZM20 15H4V5H20V15Z" fill="black"/>
</svg>
