<svg width="24" height="24" viewBox="0 0 24 24" fill="none" xmlns="http://www.w3.org/2000/svg">
<path d="M12 6.5875C11.5495 6.5875 11.1091 6.72109 10.7345 6.97139C10.3599 7.22168 10.068 7.57743 9.89558 7.99365C9.72318 8.40987 9.67808 8.86786 9.76598 9.30971C9.85388 9.75157 10.0708 10.1574 10.3894 10.476C10.708 10.7945 11.1138 11.0115 11.5557 11.0993C11.9975 11.1872 12.4555 11.1421 12.8718 10.9697C13.288 10.7973 13.6437 10.5053 13.894 10.1307C14.1443 9.75611 14.2778 9.31571 14.2778 8.8652C14.2778 8.56608 14.2189 8.26988 14.1044 7.99352C13.99 7.71717 13.8222 7.46607 13.6107 7.25456C13.3992 7.04305 13.148 6.87528 12.8717 6.76082C12.5953 6.64637 12.2991 6.58747 12 6.5875ZM12 10.643C11.6484 10.643 11.3047 10.5387 11.0123 10.3434C10.72 10.148 10.4921 9.87038 10.3575 9.54553C10.223 9.22068 10.1878 8.86323 10.2564 8.51837C10.325 8.17351 10.4943 7.85674 10.7429 7.60811C10.9915 7.35948 11.3083 7.19016 11.6532 7.12156C11.998 7.05296 12.3555 7.08817 12.6803 7.22273C13.0052 7.35728 13.2828 7.58515 13.4782 7.87751C13.6735 8.16987 13.7778 8.51358 13.7778 8.8652C13.7772 9.33652 13.5897 9.78838 13.2565 10.1217C12.9232 10.4549 12.4713 10.6424 12 10.643ZM12 2C10.0222 2 8.08879 2.58649 6.4443 3.6853C4.79981 4.78412 3.51809 6.3459 2.76121 8.17317C2.00433 10.0004 1.8063 12.0111 2.19215 13.9509C2.578 15.8907 3.53041 17.6725 4.92894 19.0711C6.32746 20.4696 8.10929 21.422 10.0491 21.8079C11.9889 22.1937 13.9996 21.9957 15.8268 21.2388C17.6541 20.4819 19.2159 19.2002 20.3147 17.5557C21.4135 15.9112 22 13.9778 22 12C22 10.6868 21.7413 9.38642 21.2388 8.17317C20.7363 6.95991 19.9997 5.85752 19.0711 4.92893C18.1425 4.00035 17.0401 3.26375 15.8268 2.7612C14.6136 2.25866 13.3132 2 12 2ZM12 21.5C10.1211 21.5 8.28435 20.9428 6.72209 19.899C5.15982 18.8551 3.94218 17.3714 3.22315 15.6355C2.50412 13.8996 2.31598 11.9895 2.68254 10.1466C3.0491 8.30382 3.95389 6.61108 5.28249 5.28249C6.61109 3.95389 8.30383 3.0491 10.1466 2.68254C11.9895 2.31598 13.8996 2.50411 15.6355 3.22314C17.3714 3.94218 18.8551 5.15982 19.899 6.72208C20.9428 8.28435 21.5 10.1211 21.5 12C21.4971 14.5187 20.4953 16.9334 18.7144 18.7144C16.9334 20.4953 14.5187 21.4971 12 21.5ZM16.6445 12.5C16.3478 12.5 16.0578 12.588 15.8111 12.7528C15.5645 12.9176 15.3722 13.1519 15.2587 13.426C15.1452 13.7001 15.1154 14.0017 15.1733 14.2926C15.2312 14.5836 15.3741 14.8509 15.5838 15.0607C15.7936 15.2704 16.0609 15.4133 16.3519 15.4712C16.6428 15.5291 16.9444 15.4994 17.2185 15.3858C17.4926 15.2723 17.7269 15.08 17.8917 14.8334C18.0565 14.5867 18.1445 14.2967 18.1445 14C18.1445 13.6022 17.9865 13.2206 17.7052 12.9393C17.4239 12.658 17.0423 12.5 16.6445 12.5ZM16.6445 15C16.4467 15 16.2534 14.9414 16.0889 14.8315C15.9245 14.7216 15.7963 14.5654 15.7206 14.3827C15.6449 14.2 15.6251 13.9989 15.6637 13.8049C15.7023 13.6109 15.7975 13.4327 15.9374 13.2929C16.0773 13.153 16.2554 13.0578 16.4494 13.0192C16.6434 12.9806 16.8445 13.0004 17.0272 13.0761C17.2099 13.1518 17.3661 13.28 17.476 13.4444C17.5859 13.6089 17.6445 13.8022 17.6445 14C17.6442 14.2651 17.5388 14.5193 17.3513 14.7068C17.1638 14.8943 16.9096 14.9997 16.6445 15ZM7.3555 12.5C7.05883 12.5 6.76882 12.588 6.52215 12.7528C6.27548 12.9176 6.08322 13.1519 5.96969 13.426C5.85615 13.7001 5.82645 14.0017 5.88433 14.2926C5.9422 14.5836 6.08507 14.8509 6.29484 15.0607C6.50462 15.2704 6.7719 15.4133 7.06287 15.4712C7.35384 15.5291 7.65544 15.4994 7.92953 15.3858C8.20362 15.2723 8.43789 15.08 8.60271 14.8334C8.76753 14.5867 8.8555 14.2967 8.8555 14C8.8555 13.6022 8.69747 13.2206 8.41616 12.9393C8.13486 12.658 7.75333 12.5 7.3555 12.5ZM7.3555 15C7.15772 15 6.96438 14.9414 6.79993 14.8315C6.63548 14.7216 6.50731 14.5654 6.43162 14.3827C6.35594 14.2 6.33613 13.9989 6.37472 13.8049C6.4133 13.6109 6.50854 13.4327 6.6484 13.2929C6.78825 13.153 6.96643 13.0578 7.16041 13.0192C7.35439 12.9806 7.55546 13.0004 7.73819 13.0761C7.92091 13.1518 8.07709 13.28 8.18697 13.4444C8.29686 13.6089 8.3555 13.8022 8.3555 14C8.35521 14.2651 8.24976 14.5193 8.06229 14.7068C7.87482 14.8943 7.62063 14.9997 7.3555 15Z" fill="black"/>
</svg>
