<svg width="24" height="24" viewBox="0 0 24 24" fill="none" xmlns="http://www.w3.org/2000/svg">
<path d="M20 11.0001H16V6.00007C16 5.73485 15.8946 5.4805 15.7071 5.29296C15.5196 5.10542 15.2652 5.00007 15 5.00007C14.7348 5.00007 14.4804 5.10542 14.2929 5.29296C14.1054 5.4805 14 5.73485 14 6.00007V11.0001H4C3.46957 11.0001 2.96086 11.2108 2.58579 11.5859C2.21071 11.9609 2 12.4696 2 13.0001V19.0001C2 19.5305 2.21071 20.0392 2.58579 20.4143C2.96086 20.7894 3.46957 21.0001 4 21.0001H20C20.5304 21.0001 21.0391 20.7894 21.4142 20.4143C21.7893 20.0392 22 19.5305 22 19.0001V13.0001C22 12.4696 21.7893 11.9609 21.4142 11.5859C21.0391 11.2108 20.5304 11.0001 20 11.0001ZM7 17.1501C6.77255 17.1501 6.55021 17.0826 6.36109 16.9563C6.17198 16.8299 6.02458 16.6503 5.93754 16.4402C5.8505 16.23 5.82772 15.9988 5.8721 15.7757C5.91647 15.5526 6.026 15.3477 6.18683 15.1869C6.34766 15.0261 6.55257 14.9165 6.77565 14.8722C6.99872 14.8278 7.22995 14.8506 7.44009 14.9376C7.65022 15.0246 7.82983 15.172 7.95619 15.3612C8.08255 15.5503 8.15 15.7726 8.15 16.0001C8.15 16.3051 8.02884 16.5976 7.81317 16.8132C7.59751 17.0289 7.305 17.1501 7 17.1501ZM12.8789 8.12007C12.6003 7.84177 12.3793 7.5113 12.2285 7.14753C12.0777 6.78377 12.0001 6.39385 12.0001 6.00007C12.0001 5.60629 12.0777 5.21637 12.2285 4.8526C12.3793 4.48884 12.6003 4.15836 12.8789 3.88007L11.4648 2.46407C11.0004 2.92842 10.632 3.4797 10.3807 4.08643C10.1294 4.69315 10 5.34345 10 6.00017C10 6.65689 10.1294 7.30718 10.3807 7.91391C10.632 8.52063 11.0004 9.07191 11.4648 9.53627L12.8789 8.12007ZM18.5352 9.53607C18.9996 9.07171 19.368 8.52043 19.6193 7.91371C19.8706 7.30698 20 6.65669 20 5.99997C20 5.34325 19.8706 4.69295 19.6193 4.08623C19.368 3.4795 18.9996 2.92822 18.5352 2.46387L17.1211 3.88007C17.3997 4.15836 17.6207 4.48884 17.7715 4.8526C17.9223 5.21637 17.9999 5.60629 17.9999 6.00007C17.9999 6.39385 17.9223 6.78377 17.7715 7.14753C17.6207 7.5113 17.3997 7.84177 17.1211 8.12007L18.5352 9.53607Z" fill="black"/>
</svg>
