<svg width="24" height="24" viewBox="0 0 24 24" fill="none" xmlns="http://www.w3.org/2000/svg">
<path d="M19.5 5H4.5C3.83696 5 3.20107 5.26339 2.73223 5.73223C2.26339 6.20107 2 6.83696 2 7.5V16.5C2 17.163 2.26339 17.7989 2.73223 18.2678C3.20107 18.7366 3.83696 19 4.5 19H19.5C20.163 19 20.7989 18.7366 21.2678 18.2678C21.7366 17.7989 22 17.163 22 16.5V7.5C22 6.83696 21.7366 6.20107 21.2678 5.73223C20.7989 5.26339 20.163 5 19.5 5ZM20 16.5C20 16.6326 19.9473 16.7598 19.8536 16.8536C19.7598 16.9473 19.6326 17 19.5 17H4.5C4.36739 17 4.24021 16.9473 4.14645 16.8536C4.05268 16.7598 4 16.6326 4 16.5V7.5C4 7.36739 4.05268 7.24021 4.14645 7.14645C4.24021 7.05268 4.36739 7 4.5 7H19.5C19.6326 7 19.7598 7.05268 19.8536 7.14645C19.9473 7.24021 20 7.36739 20 7.5V16.5ZM14 10C14 9.46957 13.7893 8.96086 13.4142 8.58579C13.0391 8.21071 12.5304 8 12 8C11.4696 8 10.9609 8.21071 10.5858 8.58579C10.2107 8.96086 10 9.46957 10 10V11H9V15H15V11H14V10ZM12.6 11H11.4V10C11.4 9.84087 11.4632 9.68826 11.5757 9.57574C11.6883 9.46321 11.8409 9.4 12 9.4C12.1591 9.4 12.3117 9.46321 12.4243 9.57574C12.5368 9.68826 12.6 9.84087 12.6 10V11Z" fill="black"/>
</svg>
