<svg width="24" height="24" viewBox="0 0 24 24" fill="none" xmlns="http://www.w3.org/2000/svg">
<path d="M19 6H17.1416L15.4092 3H8.5908L6.8584 6H5C4.20462 6.00087 3.44206 6.31722 2.87964 6.87964C2.31722 7.44206 2.00087 8.20462 2 9V18C2.00087 18.7954 2.31722 19.5579 2.87964 20.1204C3.44206 20.6828 4.20462 20.9991 5 21H19C19.7954 20.9991 20.5579 20.6828 21.1204 20.1204C21.6828 19.5579 21.9991 18.7954 22 18V9C21.9991 8.20462 21.6828 7.44206 21.1204 6.87964C20.5579 6.31722 19.7954 6.00087 19 6ZM10.625 10.1665C10.625 9.83498 10.7567 9.51704 10.9911 9.28262C11.2255 9.0482 11.5435 8.9165 11.875 8.9165C12.2065 8.9165 12.5245 9.0482 12.7589 9.28262C12.9933 9.51704 13.125 9.83498 13.125 10.1665V12.5C13.125 12.8315 12.9933 13.1495 12.7589 13.3839C12.5245 13.6183 12.2065 13.75 11.875 13.75C11.5435 13.75 11.2255 13.6183 10.9911 13.3839C10.7567 13.1495 10.625 12.8315 10.625 12.5V10.1665ZM12.575 16.1596V17.5H11.175V16.16C10.3035 16.0003 9.51067 15.5529 8.92349 14.8894C8.33632 14.2258 7.98871 13.3845 7.9363 12.5H9.3363C9.39132 13.1354 9.68262 13.7271 10.1527 14.1582C10.6227 14.5893 11.2373 14.8285 11.8751 14.8285C12.5129 14.8285 13.1275 14.5893 13.5975 14.1582C14.0676 13.7271 14.3589 13.1354 14.4139 12.5H15.8139C15.7615 13.3845 15.4138 14.2258 14.8267 14.8894C14.2395 15.5529 13.4467 16.0003 12.5752 16.16L12.575 16.1596Z" fill="black"/>
</svg>
