<svg width="24" height="24" viewBox="0 0 24 24" fill="none" xmlns="http://www.w3.org/2000/svg">
<path d="M20 6.00007H6.4448L18.4056 1.67877L18.0636 0.73877L3.2582 6.14267L3.2596 6.14537C2.88819 6.29303 2.56962 6.54871 2.34507 6.87935C2.12052 7.20999 2.00032 7.60039 2 8.00007V19.0001C2 19.5305 2.21071 20.0392 2.58579 20.4143C2.96086 20.7894 3.46957 21.0001 4 21.0001H20C20.5304 21.0001 21.0391 20.7894 21.4142 20.4143C21.7893 20.0392 22 19.5305 22 19.0001V8.00007C22 7.46964 21.7893 6.96093 21.4142 6.58586C21.0391 6.21078 20.5304 6.00007 20 6.00007ZM13 11.0001H4V9.00007H13V11.0001ZM18 18.5001C17.7033 18.5001 17.4133 18.4121 17.1666 18.2473C16.92 18.0825 16.7277 17.8482 16.6142 17.5741C16.5007 17.3 16.4709 16.9984 16.5288 16.7074C16.5867 16.4165 16.7296 16.1492 16.9393 15.9394C17.1491 15.7296 17.4164 15.5868 17.7074 15.5289C17.9983 15.471 18.2999 15.5007 18.574 15.6143C18.8481 15.7278 19.0824 15.92 19.2472 16.1667C19.412 16.4134 19.5 16.7034 19.5 17.0001C19.5 17.3979 19.342 17.7794 19.0607 18.0607C18.7794 18.342 18.3978 18.5001 18 18.5001ZM20 11.0001H14V9.00007H20V11.0001Z" fill="black"/>
</svg>
