<svg width="24" height="24" viewBox="0 0 24 24" fill="none" xmlns="http://www.w3.org/2000/svg">
<path d="M15.5 2H8.5C7.83696 2 7.20107 2.26339 6.73223 2.73223C6.26339 3.20107 6 3.83696 6 4.5V19.5C6 20.163 6.26339 20.7989 6.73223 21.2678C7.20107 21.7366 7.83696 22 8.5 22H15.5C16.163 22 16.7989 21.7366 17.2678 21.2678C17.7366 20.7989 18 20.163 18 19.5V4.5C18 3.83696 17.7366 3.20107 17.2678 2.73223C16.7989 2.26339 16.163 2 15.5 2ZM12 6.7C11.8121 6.7 11.6284 6.64428 11.4722 6.5399C11.316 6.43551 11.1942 6.28714 11.1223 6.11355C11.0504 5.93996 11.0316 5.74895 11.0683 5.56466C11.1049 5.38038 11.1954 5.21111 11.3282 5.07825C11.4611 4.94539 11.6304 4.85491 11.8147 4.81825C11.9989 4.7816 12.19 4.80041 12.3635 4.87231C12.5371 4.94422 12.6855 5.06598 12.7899 5.22221C12.8943 5.37844 12.95 5.56211 12.95 5.75C12.95 6.00196 12.8499 6.24359 12.6718 6.42175C12.4936 6.59991 12.252 6.7 12 6.7Z" fill="black"/>
</svg>
