<svg width="24" height="24" viewBox="0 0 24 24" fill="none" xmlns="http://www.w3.org/2000/svg">
<path d="M16.6445 13.7C16.9807 13.7 17.3094 13.6003 17.589 13.4135C17.8685 13.2267 18.0864 12.9612 18.2151 12.6506C18.3438 12.3399 18.3774 11.9981 18.3118 11.6683C18.2462 11.3386 18.0843 11.0357 17.8466 10.7979C17.6088 10.5602 17.3059 10.3983 16.9762 10.3327C16.6464 10.2671 16.3046 10.3007 15.9939 10.4294C15.6833 10.5581 15.4178 10.776 15.231 11.0555C15.0442 11.3351 14.9445 11.6638 14.9445 12C14.9445 12.4509 15.1236 12.8833 15.4424 13.2021C15.7612 13.5209 16.1936 13.7 16.6445 13.7ZM16.6445 11.2C16.8027 11.2 16.9574 11.2469 17.089 11.3348C17.2205 11.4227 17.3231 11.5477 17.3836 11.6939C17.4442 11.84 17.46 12.0009 17.4291 12.1561C17.3983 12.3113 17.3221 12.4538 17.2102 12.5657C17.0983 12.6776 16.9558 12.7538 16.8006 12.7846C16.6454 12.8155 16.4845 12.7997 16.3384 12.7391C16.1922 12.6786 16.0672 12.576 15.9793 12.4445C15.8914 12.3129 15.8445 12.1582 15.8445 12C15.8448 11.7879 15.9291 11.5846 16.0791 11.4346C16.2291 11.2846 16.4324 11.2003 16.6445 11.2ZM7.3555 13.7C7.69173 13.7 8.02041 13.6003 8.29997 13.4135C8.57953 13.2267 8.79743 12.9612 8.9261 12.6506C9.05476 12.3399 9.08843 11.9981 9.02283 11.6683C8.95724 11.3386 8.79533 11.0357 8.55758 10.7979C8.31983 10.5602 8.01692 10.3983 7.68715 10.3327C7.35739 10.2671 7.01557 10.3007 6.70494 10.4294C6.3943 10.5581 6.1288 10.776 5.942 11.0555C5.7552 11.3351 5.6555 11.6638 5.6555 12C5.6555 12.4509 5.83461 12.8833 6.15342 13.2021C6.47223 13.5209 6.90463 13.7 7.3555 13.7ZM7.3555 11.2C7.51373 11.2 7.6684 11.2469 7.79996 11.3348C7.93152 11.4227 8.03405 11.5477 8.0946 11.6939C8.15515 11.84 8.171 12.0009 8.14013 12.1561C8.10926 12.3113 8.03307 12.4538 7.92119 12.5657C7.8093 12.6776 7.66676 12.7538 7.51157 12.7846C7.35639 12.8155 7.19553 12.7997 7.04935 12.7391C6.90317 12.6786 6.77823 12.576 6.69032 12.4445C6.60242 12.3129 6.5555 12.1582 6.5555 12C6.55582 11.7879 6.6402 11.5846 6.79016 11.4347C6.94013 11.2847 7.14342 11.2003 7.3555 11.2ZM12 10.7C12.3362 10.7 12.6649 10.6003 12.9445 10.4135C13.224 10.2267 13.4419 9.9612 13.5706 9.65056C13.6993 9.33993 13.7329 8.99811 13.6673 8.66835C13.6017 8.33858 13.4398 8.03567 13.2021 7.79792C12.9643 7.56017 12.6614 7.39826 12.3317 7.33266C12.0019 7.26707 11.6601 7.30074 11.3494 7.4294C11.0388 7.55807 10.7733 7.77597 10.5865 8.05553C10.3997 8.33509 10.3 8.66377 10.3 9C10.3 9.45087 10.4791 9.88327 10.7979 10.2021C11.1167 10.5209 11.5491 10.7 12 10.7ZM12 8.2C12.1582 8.2 12.3129 8.24692 12.4445 8.33482C12.576 8.42273 12.6786 8.54767 12.7391 8.69385C12.7997 8.84003 12.8155 9.00089 12.7846 9.15607C12.7538 9.31126 12.6776 9.4538 12.5657 9.56569C12.4538 9.67757 12.3113 9.75376 12.1561 9.78463C12.0009 9.8155 11.84 9.79965 11.6939 9.7391C11.5477 9.67855 11.4227 9.57602 11.3348 9.44446C11.2469 9.3129 11.2 9.15823 11.2 9C11.2002 8.7879 11.2846 8.58456 11.4346 8.43458C11.5846 8.2846 11.7879 8.20024 12 8.2ZM3 3V21H21V3H3ZM20 20H4V4H20V20Z" fill="black"/>
</svg>
