<svg width="24" height="24" viewBox="0 0 24 24" fill="none" xmlns="http://www.w3.org/2000/svg">
<path d="M16 6.26V3C16 2.46957 15.7893 1.96086 15.4142 1.58579C15.0391 1.21071 14.5304 1 14 1H9.99997C9.46954 1 8.96083 1.21071 8.58576 1.58579C8.21069 1.96086 7.99997 2.46957 7.99997 3V6.26C7.07404 6.90385 6.31761 7.76215 5.79522 8.76166C5.27283 9.76117 5 10.8722 5 12C5 13.1278 5.27283 14.2388 5.79522 15.2383C6.31761 16.2379 7.07404 17.0961 7.99997 17.74V21C7.99997 21.5304 8.21069 22.0391 8.58576 22.4142C8.96083 22.7893 9.46954 23 9.99997 23H14C14.5304 23 15.0391 22.7893 15.4142 22.4142C15.7893 22.0391 16 21.5304 16 21V17.74C16.9259 17.0961 17.6823 16.2379 18.2047 15.2383C18.7271 14.2388 19 13.1278 19 12C19 10.8722 18.7271 9.76117 18.2047 8.76166C17.6823 7.76215 16.9259 6.90385 16 6.26ZM9.84998 3C9.84998 2.96022 9.86578 2.92206 9.89391 2.89393C9.92204 2.8658 9.96019 2.85 9.99997 2.85H14C14.0398 2.85 14.0779 2.8658 14.106 2.89393C14.1342 2.92206 14.15 2.96022 14.15 3V5.34C12.7524 4.88706 11.2475 4.88706 9.84998 5.34V3ZM14.15 21C14.15 21.0398 14.1342 21.0779 14.106 21.1061C14.0779 21.1342 14.0398 21.15 14 21.15H9.99997C9.96019 21.15 9.92204 21.1342 9.89391 21.1061C9.86578 21.0779 9.84998 21.0398 9.84998 21V18.66C11.2475 19.1129 12.7524 19.1129 14.15 18.66V21ZM12 17C11.0111 17 10.0444 16.7068 9.22212 16.1573C8.39988 15.6079 7.75902 14.827 7.38058 13.9134C7.00214 12.9998 6.90312 11.9945 7.09605 11.0245C7.28897 10.0546 7.76518 9.16373 8.46444 8.46447C9.1637 7.7652 10.0546 7.289 11.0245 7.09607C11.9944 6.90315 12.9998 7.00216 13.9134 7.3806C14.827 7.75904 15.6079 8.3999 16.1573 9.22215C16.7067 10.0444 17 11.0111 17 12C16.9985 13.3256 16.4712 14.5965 15.5338 15.5339C14.5965 16.4712 13.3256 16.9985 12 17ZM12.7173 8.7676H11.0173V12.9829H14.75V11.2829H12.7173V8.7676Z" fill="black"/>
</svg>
