<svg width="24" height="24" viewBox="0 0 24 24" fill="none" xmlns="http://www.w3.org/2000/svg">
<path d="M12 8.99997C11.7348 8.99997 11.4804 9.10533 11.2929 9.29287C11.1054 9.4804 11 9.73476 11 9.99997V12C11 12.2652 11.1054 12.5195 11.2929 12.7071C11.4804 12.8946 11.7348 13 12 13C12.2652 13 12.5196 12.8946 12.7071 12.7071C12.8946 12.5195 13 12.2652 13 12V9.99997C13 9.73476 12.8946 9.4804 12.7071 9.29287C12.5196 9.10533 12.2652 8.99997 12 8.99997ZM14 4.99997H10C8.67392 4.99997 7.40215 5.52676 6.46447 6.46444C5.52678 7.40212 5 8.67389 5 9.99997V17C5 18.8565 5.7375 20.637 7.05025 21.9497C8.36301 23.2625 10.1435 24 12 24C13.8565 24 15.637 23.2625 16.9497 21.9497C18.2625 20.637 19 18.8565 19 17V9.99997C19 8.67389 18.4732 7.40212 17.5355 6.46444C16.5979 5.52676 15.3261 4.99997 14 4.99997ZM17 17C17 18.3261 16.4732 19.5978 15.5355 20.5355C14.5979 21.4732 13.3261 22 12 22C10.6739 22 9.40215 21.4732 8.46447 20.5355C7.52678 19.5978 7 18.3261 7 17V9.99997C7.0009 9.2046 7.31726 8.44206 7.87967 7.87965C8.44209 7.31723 9.20463 7.00087 10 6.99997H14C14.7954 7.00087 15.5579 7.31723 16.1203 7.87965C16.6827 8.44206 16.9991 9.2046 17 9.99997V17ZM11.8333 2.12107C12.4901 2.11923 13.1408 2.2477 13.7476 2.49905C14.3544 2.7504 14.9054 3.11963 15.3685 3.58537L16.7825 2.17237C16.1328 1.52208 15.3612 1.0062 14.512 0.654227C13.6628 0.302256 12.7526 0.121094 11.8333 0.121094C10.914 0.121094 10.0038 0.302256 9.15457 0.654227C8.30536 1.0062 7.53384 1.52208 6.8841 2.17237L8.2982 3.58537C8.76132 3.11964 9.31224 2.7504 9.91905 2.49905C10.5259 2.2477 11.1765 2.11923 11.8333 2.12107Z" fill="black"/>
</svg>
