<svg width="24" height="24" viewBox="0 0 24 24" fill="none" xmlns="http://www.w3.org/2000/svg">
<path d="M18 5H12.25V3.25C12.2506 2.78605 12.4351 2.34127 12.7632 2.01321C13.0913 1.68514 13.536 1.50058 14 1.5H17V1H14C13.4035 1.00082 12.8317 1.23814 12.4099 1.65992C11.9881 2.08169 11.7508 2.65351 11.75 3.25V5H6C5.34339 5 4.69321 5.12933 4.08658 5.3806C3.47995 5.63188 2.92876 6.00017 2.46447 6.46447C1.52678 7.40215 1 8.67392 1 10V19.1346C0.99997 19.8228 1.24762 20.488 1.69766 21.0086C2.14771 21.5292 2.7701 21.8705 3.45105 21.97C4.13199 22.0695 4.82601 21.9206 5.40623 21.5506C5.98644 21.1805 6.41409 20.614 6.611 19.9546L7.4936 17H16.5064L17.389 19.9547C17.5859 20.6141 18.0136 21.1806 18.5938 21.5507C19.174 21.9207 19.868 22.0696 20.549 21.9701C21.2299 21.8706 21.8523 21.5293 22.3023 21.0087C22.7524 20.4881 23 19.8229 23 19.1347V10C23 9.34339 22.8707 8.69321 22.6194 8.08658C22.3681 7.47996 21.9998 6.92876 21.5355 6.46447C21.0712 6.00017 20.52 5.63188 19.9134 5.3806C19.3068 5.12933 18.6566 5 18 5ZM9.375 11.2375H7.2375V13.375H6.7625V11.2375H4.625V10.7625H6.7625V8.625H7.2375V10.7625H9.375V11.2375ZM18.7678 12.7675C18.3588 13.1765 17.8207 13.431 17.2451 13.4877C16.6694 13.5444 16.092 13.3998 15.6111 13.0784C15.1301 12.7571 14.7755 12.2789 14.6076 11.7254C14.4397 11.1719 14.469 10.5773 14.6903 10.043C14.9117 9.50861 15.3115 9.06753 15.8216 8.7949C16.3317 8.52227 16.9206 8.43496 17.4879 8.54783C18.0552 8.66071 18.5658 8.9668 18.9327 9.41394C19.2995 9.86108 19.5001 10.4216 19.5 11C19.5004 11.3284 19.436 11.6536 19.3103 11.957C19.1847 12.2603 19.0003 12.5359 18.7678 12.7678V12.7675ZM17 9C16.5373 8.99999 16.0889 9.16043 15.7312 9.45396C15.3735 9.7475 15.1287 10.156 15.0384 10.6098C14.9481 11.0636 15.018 11.5347 15.2361 11.9428C15.4542 12.3508 15.8071 12.6707 16.2346 12.8478C16.6621 13.0248 17.1377 13.0482 17.5805 12.9139C18.0233 12.7796 18.4058 12.4959 18.6629 12.1112C18.92 11.7264 19.0357 11.2645 18.9903 10.804C18.945 10.3435 18.7414 9.91299 18.4142 9.5858C18.2289 9.39949 18.0085 9.25178 17.7658 9.15122C17.523 9.05067 17.2628 8.99927 17 9Z" fill="black"/>
</svg>
