<svg width="24" height="24" viewBox="0 0 24 24" fill="none" xmlns="http://www.w3.org/2000/svg">
<path d="M18 11V4C18 3.46957 17.7893 2.96086 17.4142 2.58579C17.0391 2.21071 16.5304 2 16 2H8C7.46957 2 6.96086 2.21071 6.58579 2.58579C6.21071 2.96086 6 3.46957 6 4V11C6.00074 11.2849 6.06273 11.5663 6.18179 11.8251C6.30084 12.0839 6.47416 12.3141 6.69 12.5C6.47416 12.6859 6.30084 12.9161 6.18179 13.1749C6.06273 13.4337 6.00074 13.7151 6 14V20C6 20.5304 6.21071 21.0391 6.58579 21.4142C6.96086 21.7893 7.46957 22 8 22H16C16.5304 22 17.0391 21.7893 17.4142 21.4142C17.7893 21.0391 18 20.5304 18 20V14C17.9993 13.7151 17.9373 13.4337 17.8182 13.1749C17.6992 12.9161 17.5258 12.6859 17.31 12.5C17.5258 12.3141 17.6992 12.0839 17.8182 11.8251C17.9373 11.5663 17.9993 11.2849 18 11ZM7.5 4C7.50016 3.86744 7.55289 3.74036 7.64662 3.64662C7.74036 3.55289 7.86744 3.50016 8 3.5H16C16.1326 3.50016 16.2596 3.55289 16.3534 3.64662C16.4471 3.74036 16.4998 3.86744 16.5 4V11C16.4998 11.1326 16.4471 11.2596 16.3534 11.3534C16.2596 11.4471 16.1326 11.4998 16 11.5H8C7.86744 11.4998 7.74036 11.4471 7.64662 11.3534C7.55289 11.2596 7.50016 11.1326 7.5 11V4ZM7.5 14C7.50016 13.8674 7.55289 13.7404 7.64662 13.6466C7.74036 13.5529 7.86744 13.5002 8 13.5H11.3V16.3H7.5V14ZM8 20.5C7.86744 20.4998 7.74036 20.4471 7.64662 20.3534C7.55289 20.2596 7.50016 20.1326 7.5 20V17.7H11.3V20.5H8ZM16.5 20C16.4998 20.1326 16.4471 20.2596 16.3534 20.3534C16.2596 20.4471 16.1326 20.4998 16 20.5H12.7V17.7H16.5V20ZM12.7 16.3V13.5H16C16.1326 13.5002 16.2596 13.5529 16.3534 13.6466C16.4471 13.7404 16.4998 13.8674 16.5 14V16.3H12.7Z" fill="black"/>
</svg>
