<svg width="24" height="24" viewBox="0 0 24 24" fill="none" xmlns="http://www.w3.org/2000/svg">
<path d="M14 4.99998H10C8.67392 4.99998 7.40215 5.52676 6.46447 6.46445C5.52678 7.40213 5 8.6739 5 9.99998V17C5 18.8565 5.7375 20.637 7.05025 21.9497C8.36301 23.2625 10.1435 24 12 24C13.8565 24 15.637 23.2625 16.9497 21.9497C18.2625 20.637 19 18.8565 19 17V9.99998C19 8.6739 18.4732 7.40213 17.5355 6.46445C16.5979 5.52676 15.3261 4.99998 14 4.99998ZM12.25 10.75C12.25 10.8163 12.2237 10.8799 12.1768 10.9268C12.1299 10.9736 12.0663 11 12 11C11.9337 11 11.8701 10.9736 11.8232 10.9268C11.7763 10.8799 11.75 10.8163 11.75 10.75V7.24998C11.75 7.18367 11.7763 7.12009 11.8232 7.0732C11.8701 7.02632 11.9337 6.99998 12 6.99998C12.0663 6.99998 12.1299 7.02632 12.1768 7.0732C12.2237 7.12009 12.25 7.18367 12.25 7.24998V10.75ZM11.8333 1.37108C12.5887 1.36887 13.337 1.51664 14.0349 1.80581C14.7327 2.09499 15.3663 2.51982 15.8987 3.05568L16.2523 2.70208C15.6721 2.1216 14.9832 1.66113 14.225 1.34696C13.4668 1.0328 12.6541 0.871094 11.8334 0.871094C11.0126 0.871094 10.1999 1.0328 9.44172 1.34696C8.6835 1.66113 7.99461 2.1216 7.4144 2.70208L7.7679 3.05568C8.30034 2.51982 8.93385 2.09499 9.63171 1.80581C10.3296 1.51664 11.0779 1.36887 11.8333 1.37108Z" fill="black"/>
</svg>
