<svg width="24" height="24" viewBox="0 0 24 24" fill="none" xmlns="http://www.w3.org/2000/svg">
<path d="M5.55002 12.2001V12.7001C6.30519 12.6998 7.05302 12.8484 7.75076 13.1372C8.4485 13.4261 9.08248 13.8496 9.61647 14.3836C10.1505 14.9176 10.574 15.5516 10.8629 16.2493C11.1517 16.9471 11.3003 17.6949 11.3 18.4501H11.8C11.8003 17.6292 11.6388 16.8164 11.3249 16.058C11.0109 15.2995 10.5505 14.6104 9.97008 14.03C9.38966 13.4496 8.70055 12.9892 7.94213 12.6752C7.18372 12.3612 6.37086 12.1998 5.55002 12.2001ZM3.50002 14.8432L3.18332 17.9884L1.48932 19.6825L4.31762 22.5109L6.01172 20.8168L9.15692 20.5001L9.52512 20.1318L3.86832 14.475L3.50002 14.8432ZM8.72712 20.0408L5.96172 20.3193L5.78422 20.3372L5.65822 20.4633L4.31762 21.8033L2.19632 19.6825L3.66282 18.2159L3.68072 18.0385L3.95922 15.273L8.72712 20.0408ZM12.7 5.55007H12.2C12.1997 6.37091 12.3612 7.18377 12.6752 7.94218C12.9892 8.7006 13.4495 9.38971 14.03 9.97013C14.6104 10.5506 15.2995 11.0109 16.0579 11.3249C16.8163 11.6389 17.6292 11.8004 18.45 11.8001V11.3001C17.6948 11.3003 16.947 11.1518 16.2493 10.8629C15.5515 10.574 14.9176 10.1505 14.3836 9.61652C13.8496 9.08253 13.426 8.44855 13.1372 7.75081C12.8483 7.05307 12.6998 6.30524 12.7 5.55007ZM19.6822 1.48877L17.9883 3.18327L14.8431 3.50007L14.4749 3.86837L20.1317 9.52517L20.5 9.15697L20.8167 6.01177L22.5107 4.31767L19.6822 1.48877ZM20.4629 5.65777L20.337 5.78387L20.3191 5.96117L20.0406 8.72677L15.2729 3.95927L18.0383 3.68077L18.2158 3.66287L19.6824 2.19627L21.8037 4.31767L20.4629 5.65777Z" fill="black"/>
</svg>
