<svg width="24" height="24" viewBox="0 0 24 24" fill="none" xmlns="http://www.w3.org/2000/svg">
<path d="M18.9641 5H5.03588L0.571777 12L5.03588 19H18.9641L23.4282 12L18.9641 5ZM6.20558 13.35C5.93858 13.35 5.67758 13.2708 5.45558 13.1224C5.23359 12.9741 5.06057 12.7632 4.95841 12.5166C4.85625 12.2699 4.82953 11.9984 4.88163 11.7366C4.93373 11.4747 5.06231 11.2342 5.25112 11.0454C5.43992 10.8566 5.68047 10.728 5.94234 10.6759C6.20421 10.6239 6.47565 10.6506 6.72232 10.7528C6.969 10.855 7.17983 11.028 7.32817 11.25C7.4765 11.472 7.55568 11.733 7.55568 12C7.55568 12.1773 7.52075 12.3528 7.4529 12.5166C7.38505 12.6804 7.28561 12.8293 7.16024 12.9546C7.03487 13.08 6.88603 13.1794 6.72223 13.2473C6.55843 13.3151 6.38287 13.35 6.20558 13.35ZM12 15.8267C11.733 15.8267 11.472 15.7475 11.25 15.5992C11.028 15.4508 10.8549 15.24 10.7527 14.9933C10.6506 14.7466 10.6238 14.4752 10.6759 14.2133C10.728 13.9515 10.8566 13.7109 11.0454 13.5221C11.2342 13.3333 11.4747 13.2047 11.7366 13.1526C11.9985 13.1006 12.2699 13.1273 12.5166 13.2295C12.7633 13.3316 12.9741 13.5047 13.1225 13.7267C13.2708 13.9487 13.35 14.2097 13.35 14.4767C13.35 14.8347 13.2077 15.1781 12.9546 15.4313C12.7014 15.6845 12.358 15.8267 12 15.8267ZM12 11.86C11.5865 11.86 11.1822 11.7374 10.8384 11.5077C10.4946 11.278 10.2266 10.9515 10.0684 10.5694C9.9101 10.1874 9.86868 9.76705 9.94934 9.36149C10.03 8.95592 10.2291 8.58339 10.5215 8.29099C10.8139 7.99859 11.1864 7.79946 11.592 7.71878C11.9975 7.6381 12.4179 7.6795 12.7999 7.83774C13.182 7.99597 13.5085 8.26394 13.7382 8.60776C13.968 8.95157 14.0906 9.35579 14.0906 9.7693C14.0906 10.3238 13.8703 10.8555 13.4783 11.2476C13.0862 11.6397 12.5544 11.86 12 11.86ZM17.7944 13.35C17.5274 13.35 17.2664 13.2708 17.0444 13.1225C16.8224 12.9741 16.6493 12.7633 16.5471 12.5166C16.445 12.2699 16.4182 11.9985 16.4703 11.7366C16.5224 11.4748 16.651 11.2342 16.8398 11.0454C17.0286 10.8566 17.2691 10.728 17.531 10.6759C17.7929 10.6238 18.0643 10.6506 18.311 10.7528C18.5577 10.8549 18.7685 11.028 18.9169 11.25C19.0652 11.472 19.1444 11.733 19.1444 12C19.1444 12.358 19.0021 12.7014 18.749 12.9546C18.4958 13.2078 18.1524 13.35 17.7944 13.35ZM12 9.0782C11.8634 9.0782 11.7298 9.11871 11.6162 9.1946C11.5027 9.2705 11.4141 9.37837 11.3619 9.50458C11.3096 9.63079 11.2959 9.76967 11.3225 9.90365C11.3492 10.0376 11.415 10.1607 11.5116 10.2573C11.6082 10.3539 11.7312 10.4197 11.8652 10.4463C11.9992 10.473 12.1381 10.4593 12.2643 10.407C12.3905 10.3547 12.4984 10.2662 12.5743 10.1526C12.6502 10.039 12.6907 9.90551 12.6907 9.7689C12.6905 9.58578 12.6176 9.41022 12.4881 9.28074C12.3587 9.15125 12.1831 9.07841 12 9.0782Z" fill="black"/>
</svg>
