<svg width="24" height="24" viewBox="0 0 24 24" fill="none" xmlns="http://www.w3.org/2000/svg">
<path d="M12 2C10.0222 2 8.08879 2.58649 6.4443 3.6853C4.79981 4.78412 3.51809 6.3459 2.76121 8.17317C2.00433 10.0004 1.8063 12.0111 2.19215 13.9509C2.578 15.8907 3.53041 17.6725 4.92894 19.0711C6.32746 20.4696 8.10929 21.422 10.0491 21.8079C11.9889 22.1937 13.9996 21.9957 15.8268 21.2388C17.6541 20.4819 19.2159 19.2002 20.3147 17.5557C21.4135 15.9112 22 13.9778 22 12C22 10.6868 21.7413 9.38642 21.2388 8.17317C20.7363 6.95991 19.9997 5.85752 19.0711 4.92893C18.1425 4.00035 17.0401 3.26375 15.8268 2.7612C14.6136 2.25866 13.3132 2 12 2ZM12 21C10.22 21 8.47991 20.4722 6.99987 19.4832C5.51983 18.4943 4.36628 17.0887 3.68509 15.4442C3.0039 13.7996 2.82567 11.99 3.17294 10.2442C3.5202 8.49836 4.37737 6.89471 5.63604 5.63604C6.89472 4.37737 8.49836 3.5202 10.2442 3.17293C11.99 2.82567 13.7996 3.0039 15.4442 3.68508C17.0887 4.36627 18.4943 5.51983 19.4832 6.99987C20.4722 8.47991 21 10.22 21 12C20.9974 14.3861 20.0483 16.6738 18.361 18.361C16.6738 20.0483 14.3861 20.9974 12 21ZM16.6445 10.3C16.3083 10.3 15.9796 10.3997 15.7 10.5865C15.4205 10.7733 15.2026 11.0388 15.0739 11.3494C14.9452 11.6601 14.9116 12.0019 14.9772 12.3317C15.0428 12.6614 15.2047 12.9643 15.4424 13.2021C15.6802 13.4398 15.9831 13.6017 16.3129 13.6673C16.6426 13.7329 16.9844 13.6993 17.2951 13.5706C17.6057 13.4419 17.8712 13.224 18.058 12.9445C18.2448 12.6649 18.3445 12.3362 18.3445 12C18.3445 11.5491 18.1654 11.1167 17.8466 10.7979C17.5278 10.4791 17.0954 10.3 16.6445 10.3ZM16.6445 12.8C16.4863 12.8 16.3316 12.7531 16.2 12.6652C16.0685 12.5773 15.966 12.4523 15.9054 12.3061C15.8449 12.16 15.829 11.9991 15.8599 11.8439C15.8907 11.6887 15.9669 11.5462 16.0788 11.4343C16.1907 11.3224 16.3332 11.2462 16.4884 11.2154C16.6436 11.1845 16.8045 11.2003 16.9507 11.2609C17.0968 11.3214 17.2218 11.424 17.3097 11.5555C17.3976 11.6871 17.4445 11.8418 17.4445 12C17.4442 12.2121 17.3598 12.4154 17.2098 12.5653C17.0599 12.7153 16.8566 12.7997 16.6445 12.8ZM7.3555 10.3C7.01928 10.3 6.6906 10.3997 6.41104 10.5865C6.13147 10.7733 5.91358 11.0388 5.78491 11.3494C5.65624 11.6601 5.62257 12.0019 5.68817 12.3317C5.75376 12.6614 5.91567 12.9643 6.15342 13.2021C6.39117 13.4398 6.69408 13.6017 7.02385 13.6673C7.35362 13.7329 7.69543 13.6993 8.00607 13.5706C8.3167 13.4419 8.5822 13.224 8.769 12.9445C8.9558 12.6649 9.0555 12.3362 9.0555 12C9.0555 11.5491 8.8764 11.1167 8.55759 10.7979C8.23877 10.4791 7.80637 10.3 7.3555 10.3ZM7.3555 12.8C7.19728 12.8 7.04261 12.7531 6.91105 12.6652C6.77949 12.5773 6.67695 12.4523 6.6164 12.3061C6.55585 12.16 6.54001 11.9991 6.57088 11.8439C6.60174 11.6887 6.67794 11.5462 6.78982 11.4343C6.9017 11.3224 7.04425 11.2462 7.19943 11.2154C7.35462 11.1845 7.51547 11.2003 7.66165 11.2609C7.80783 11.3214 7.93278 11.424 8.02068 11.5555C8.10858 11.6871 8.1555 11.8418 8.1555 12C8.15524 12.2121 8.07087 12.4154 7.9209 12.5654C7.77093 12.7154 7.5676 12.7997 7.3555 12.8ZM12 14.3C11.6638 14.3 11.3351 14.3997 11.0555 14.5865C10.776 14.7733 10.5581 15.0388 10.4294 15.3494C10.3007 15.6601 10.2671 16.0019 10.3327 16.3317C10.3983 16.6614 10.5602 16.9643 10.7979 17.2021C11.0357 17.4398 11.3386 17.6017 11.6684 17.6673C11.9981 17.7329 12.3399 17.6993 12.6506 17.5706C12.9612 17.4419 13.2267 17.224 13.4135 16.9445C13.6003 16.6649 13.7 16.3362 13.7 16C13.7 15.5491 13.5209 15.1167 13.2021 14.7979C12.8833 14.4791 12.4509 14.3 12 14.3ZM12 16.8C11.8418 16.8 11.6871 16.7531 11.5555 16.6652C11.424 16.5773 11.3215 16.4523 11.2609 16.3061C11.2004 16.16 11.1845 15.9991 11.2154 15.8439C11.2462 15.6887 11.3224 15.5462 11.4343 15.4343C11.5462 15.3224 11.6887 15.2462 11.8439 15.2154C11.9991 15.1845 12.16 15.2003 12.3062 15.2609C12.4523 15.3214 12.5773 15.424 12.6652 15.5555C12.7531 15.6871 12.8 15.8418 12.8 16C12.7998 16.2121 12.7154 16.4154 12.5654 16.5654C12.4154 16.7154 12.2121 16.7998 12 16.8Z" fill="black"/>
</svg>
