<svg width="24" height="24" viewBox="0 0 24 24" fill="none" xmlns="http://www.w3.org/2000/svg">
<path d="M12 16C13.0605 15.999 14.0774 15.5772 14.8273 14.8273C15.5772 14.0773 15.999 13.0605 16 12V4.99998C16 3.93912 15.5786 2.9217 14.8284 2.17156C14.0783 1.42141 13.0609 0.999983 12 0.999983C10.9391 0.999983 9.92172 1.42141 9.17157 2.17156C8.42143 2.9217 8 3.93912 8 4.99998V12C8.00103 13.0605 8.42279 14.0773 9.17271 14.8273C9.92264 15.5772 10.9395 15.999 12 16ZM9.5 4.99998C9.5 4.33694 9.76339 3.70106 10.2322 3.23222C10.7011 2.76337 11.337 2.49998 12 2.49998C12.663 2.49998 13.2989 2.76337 13.7678 3.23222C14.2366 3.70106 14.5 4.33694 14.5 4.99998V12C14.5 12.663 14.2366 13.2989 13.7678 13.7677C13.2989 14.2366 12.663 14.5 12 14.5C11.337 14.5 10.7011 14.2366 10.2322 13.7677C9.76339 13.2989 9.5 12.663 9.5 12V4.99998ZM18.5 12C18.5 13.7239 17.8152 15.3772 16.5962 16.5962C15.3772 17.8152 13.7239 18.5 12 18.5C10.2761 18.5 8.62279 17.8152 7.40381 16.5962C6.18482 15.3772 5.5 13.7239 5.5 12V9.99998H4V12C4.00039 13.9915 4.74368 15.9112 6.08451 17.3838C7.42533 18.8563 9.26724 19.7756 11.25 19.9621V23H12.75V19.9621C14.7328 19.7756 16.5747 18.8563 17.9155 17.3838C19.2563 15.9112 19.9996 13.9915 20 12V9.99998H18.5V12ZM23.9326 1.55758L22.9426 0.567583L21 2.50998L19.0576 0.567383L18.0676 1.55738L20.01 3.49998L18.0674 5.44238L19.0574 6.43238L21 4.48998L22.9424 6.43238L23.9324 5.44238L21.99 3.49998L23.9326 1.55758Z" fill="black"/>
</svg>
