<svg width="24" height="24" viewBox="0 0 24 24" fill="none" xmlns="http://www.w3.org/2000/svg">
<path d="M18.3125 3H5.68746C4.23999 4.01264 3.05811 5.35947 2.2421 6.92624C1.42608 8.493 1 10.2335 1 12C1 13.7665 1.42608 15.507 2.2421 17.0738C3.05811 18.6405 4.23999 19.9874 5.68746 21H18.3125C19.76 19.9874 20.9419 18.6405 21.7579 17.0738C22.5739 15.507 23 13.7665 23 12C23 10.2335 22.5739 8.49298 21.7579 6.92622C20.9419 5.35945 19.76 4.01263 18.3125 3ZM17.8191 19.5H6.18086C5.03526 18.614 4.10784 17.4774 3.46977 16.1773C2.8317 14.8772 2.49993 13.4482 2.49993 12C2.49993 10.5518 2.8317 9.12279 3.46977 7.8227C4.10784 6.52262 5.03526 5.38598 6.18086 4.5H17.8191C18.9647 5.38598 19.8921 6.52262 20.5302 7.8227C21.1682 9.12279 21.5 10.5518 21.5 12C21.5 13.4482 21.1682 14.8772 20.5302 16.1773C19.8921 17.4774 18.9647 18.614 17.8191 19.5ZM15.25 14H16.75V10H15.25V14ZM7.24996 15H8.74996V9H7.24996V15Z" fill="black"/>
</svg>
