<svg width="24" height="24" viewBox="0 0 24 24" fill="none" xmlns="http://www.w3.org/2000/svg">
<path d="M12 7.0874C11.6484 7.0874 11.3046 7.19167 11.0123 7.38701C10.7199 7.58236 10.4921 7.86001 10.3575 8.18486C10.2229 8.50972 10.1877 8.86717 10.2563 9.21203C10.3249 9.55689 10.4943 9.87366 10.7429 10.1223C10.9915 10.3709 11.3083 10.5402 11.6531 10.6088C11.998 10.6774 12.3555 10.6422 12.6803 10.5077C13.0052 10.3731 13.2828 10.1453 13.4782 9.85289C13.6735 9.56053 13.7778 9.21682 13.7778 8.8652C13.7772 8.39388 13.5897 7.94202 13.2564 7.60875C12.9232 7.27547 12.4713 7.08798 12 7.0874ZM6.35548 11C6.1577 11 5.96436 11.0586 5.79991 11.1685C5.63546 11.2784 5.50729 11.4346 5.4316 11.6173C5.35591 11.8 5.33611 12.0011 5.37469 12.1951C5.41328 12.3891 5.50852 12.5673 5.64837 12.7071C5.78822 12.847 5.96641 12.9422 6.16039 12.9808C6.35437 13.0194 6.55544 12.9996 6.73816 12.9239C6.92089 12.8482 7.07707 12.72 7.18695 12.5556C7.29683 12.3911 7.35548 12.1978 7.35548 12C7.35519 11.7349 7.24974 11.4807 7.06226 11.2932C6.87479 11.1057 6.6206 11.0003 6.35548 11ZM12 14.4767C11.8022 14.4767 11.6089 14.5353 11.4444 14.6452C11.28 14.7551 11.1518 14.9113 11.0761 15.094C11.0004 15.2767 10.9806 15.4778 11.0192 15.6718C11.0578 15.8658 11.153 16.044 11.2929 16.1838C11.4327 16.3237 11.6109 16.4189 11.8049 16.4575C11.9989 16.4961 12.1999 16.4763 12.3827 16.4006C12.5654 16.3249 12.7216 16.1967 12.8314 16.0323C12.9413 15.8678 13 15.6745 13 15.4767C12.9997 15.2116 12.8942 14.9574 12.7068 14.7699C12.5193 14.5824 12.2651 14.477 12 14.4767ZM18.9641 5H5.03588L0.571777 12L5.03588 19H18.9641L23.4282 12L18.9641 5ZM6.35548 13.5C6.05881 13.5 5.7688 13.412 5.52212 13.2472C5.27545 13.0824 5.08319 12.8481 4.96966 12.574C4.85613 12.2999 4.82642 11.9983 4.8843 11.7074C4.94218 11.4164 5.08504 11.1491 5.29482 10.9393C5.5046 10.7296 5.77187 10.5867 6.06284 10.5288C6.35381 10.4709 6.65541 10.5006 6.9295 10.6142C7.20359 10.7277 7.43786 10.92 7.60268 11.1666C7.7675 11.4133 7.85548 11.7033 7.85548 12C7.85548 12.3978 7.69744 12.7794 7.41614 13.0607C7.13483 13.342 6.7533 13.5 6.35548 13.5ZM12 16.9767C11.7033 16.9767 11.4133 16.8887 11.1666 16.7239C10.9199 16.5591 10.7277 16.3248 10.6142 16.0507C10.5006 15.7766 10.4709 15.475 10.5288 15.1841C10.5867 14.8931 10.7295 14.6258 10.9393 14.416C11.1491 14.2063 11.4164 14.0634 11.7073 14.0055C11.9983 13.9476 12.2999 13.9773 12.574 14.0909C12.8481 14.2044 13.0824 14.3967 13.2472 14.6433C13.412 14.89 13.5 15.18 13.5 15.4767C13.5 15.8745 13.3419 16.2561 13.0606 16.5374C12.7793 16.8187 12.3978 16.9767 12 16.9767ZM12 11.1429C11.5495 11.1429 11.1091 11.0093 10.7345 10.759C10.3599 10.5087 10.068 10.153 9.89555 9.73675C9.72316 9.32053 9.67805 8.86254 9.76595 8.42069C9.85385 7.97883 10.0708 7.57297 10.3894 7.25442C10.7079 6.93586 11.1138 6.71893 11.5557 6.63105C11.9975 6.54318 12.4555 6.5883 12.8717 6.76072C13.2879 6.93313 13.6437 7.2251 13.8939 7.59969C14.1442 7.97429 14.2778 8.41469 14.2778 8.8652C14.2778 9.16432 14.2189 9.46052 14.1044 9.73688C13.9899 10.0132 13.8222 10.2643 13.6106 10.4758C13.3991 10.6873 13.148 10.8551 12.8717 10.9696C12.5953 11.084 12.2991 11.1429 12 11.1429ZM17.6445 13.5C17.3478 13.5 17.0578 13.412 16.8111 13.2472C16.5644 13.0824 16.3722 12.8481 16.2587 12.574C16.1451 12.2999 16.1154 11.9983 16.1733 11.7074C16.2312 11.4164 16.374 11.1491 16.5838 10.9393C16.7936 10.7296 17.0609 10.5867 17.3518 10.5288C17.6428 10.4709 17.9444 10.5006 18.2185 10.6142C18.4926 10.7277 18.7269 10.92 18.8917 11.1666C19.0565 11.4133 19.1445 11.7033 19.1445 12C19.1445 12.3978 18.9864 12.7794 18.7051 13.0607C18.4238 13.342 18.0423 13.5 17.6445 13.5ZM17.6445 11C17.4467 11 17.2534 11.0586 17.0889 11.1685C16.9245 11.2784 16.7963 11.4346 16.7206 11.6173C16.6449 11.8 16.6251 12.0011 16.6637 12.1951C16.7023 12.3891 16.7975 12.5673 16.9374 12.7071C17.0772 12.847 17.2554 12.9422 17.4494 12.9808C17.6434 13.0194 17.8444 12.9996 18.0272 12.9239C18.2099 12.8482 18.3661 12.72 18.4759 12.5556C18.5858 12.3911 18.6445 12.1978 18.6445 12C18.6442 11.7349 18.5387 11.4807 18.3513 11.2932C18.1638 11.1057 17.9096 11.0003 17.6445 11Z" fill="black"/>
</svg>
