<svg width="24" height="24" viewBox="0 0 24 24" fill="none" xmlns="http://www.w3.org/2000/svg">
<path d="M19.5 5H4.5C3.83696 5 3.20107 5.26339 2.73223 5.73223C2.26339 6.20107 2 6.83696 2 7.5V16.5C2 17.163 2.26339 17.7989 2.73223 18.2678C3.20107 18.7366 3.83696 19 4.5 19H19.5C20.163 19 20.7989 18.7366 21.2678 18.2678C21.7366 17.7989 22 17.163 22 16.5V7.5C22 6.83696 21.7366 6.20107 21.2678 5.73223C20.7989 5.26339 20.163 5 19.5 5ZM21 16.5C20.9995 16.8977 20.8414 17.279 20.5602 17.5602C20.279 17.8414 19.8977 17.9995 19.5 18H4.5C4.10231 17.9995 3.72104 17.8414 3.43984 17.5602C3.15863 17.279 3.00045 16.8977 3 16.5V7.5C3.00045 7.10231 3.15863 6.72104 3.43984 6.43984C3.72104 6.15863 4.10231 6.00045 4.5 6H19.5C19.8977 6.00045 20.279 6.15863 20.5602 6.43984C20.8414 6.72104 20.9995 7.10231 21 7.5V16.5ZM14 10C14 9.46957 13.7893 8.96086 13.4142 8.58579C13.0391 8.21071 12.5304 8 12 8C11.4696 8 10.9609 8.21071 10.5858 8.58579C10.2107 8.96086 10 9.46957 10 10V11H9V15H15V11H14V10ZM10.9 10C10.9 9.70826 11.0159 9.42847 11.2222 9.22218C11.4285 9.01589 11.7083 8.9 12 8.9C12.2917 8.9 12.5715 9.01589 12.7778 9.22218C12.9841 9.42847 13.1 9.70826 13.1 10V11H10.9V10ZM14 14H10V12H14V14Z" fill="black"/>
</svg>
