<svg width="24" height="24" viewBox="0 0 24 24" fill="none" xmlns="http://www.w3.org/2000/svg">
<path d="M12 5C10.6155 5 9.26216 5.41054 8.11101 6.17971C6.95987 6.94888 6.06266 8.04213 5.53285 9.32122C5.00303 10.6003 4.86441 12.0078 5.13451 13.3656C5.4046 14.7235 6.07129 15.9708 7.05026 16.9497C8.02922 17.9287 9.2765 18.5954 10.6344 18.8655C11.9922 19.1356 13.3997 18.997 14.6788 18.4672C15.9579 17.9373 17.0511 17.0401 17.8203 15.889C18.5895 14.7378 19 13.3845 19 12C19 10.1435 18.2625 8.36301 16.9497 7.05025C15.637 5.7375 13.8565 5 12 5ZM15.4077 12.3828H11.6177V8H12.1177V11.8828H15.4077V12.3828ZM8 18.9175V21C8 21.5304 8.21072 22.0391 8.58579 22.4142C8.96086 22.7893 9.46957 23 10 23H14C14.5304 23 15.0391 22.7893 15.4142 22.4142C15.7893 22.0391 16 21.5304 16 21V18.9175C14.7862 19.6264 13.4057 20 12 20C10.5943 20 9.21386 19.6264 8 18.9175ZM16 5.0825V3C16 2.46957 15.7893 1.96086 15.4142 1.58579C15.0391 1.21071 14.5304 1 14 1H10C9.46957 1 8.96086 1.21071 8.58579 1.58579C8.21072 1.96086 8 2.46957 8 3V5.0825C9.21386 4.37359 10.5943 4.00001 12 4.00001C13.4057 4.00001 14.7862 4.37359 16 5.0825Z" fill="black"/>
</svg>
