<svg width="24" height="24" viewBox="0 0 24 24" fill="none" xmlns="http://www.w3.org/2000/svg">
<path d="M16 19.5H4C3.60231 19.4995 3.22104 19.3414 2.93984 19.0602C2.65863 18.779 2.50045 18.3977 2.5 18V10.3333C2.50045 9.93561 2.65863 9.55434 2.93984 9.27314C3.22104 8.99193 3.60231 8.83375 4 8.8333V8.3333C3.46957 8.3333 2.96086 8.54401 2.58579 8.91909C2.21071 9.29416 2 9.80287 2 10.3333V18C2 18.5304 2.21071 19.0391 2.58579 19.4142C2.96086 19.7893 3.46957 20 4 20H16C16.5304 20 17.0391 19.7893 17.4142 19.4142C17.7893 19.0391 18 18.5304 18 18H17.5C17.4995 18.3977 17.3414 18.779 17.0602 19.0602C16.779 19.3414 16.3977 19.4995 16 19.5ZM20 4.3333H18.1133L16.7273 2H11.2727L9.8867 4.3333H8C7.46957 4.3333 6.96086 4.54401 6.58579 4.91909C6.21071 5.29416 6 5.80287 6 6.3333V14C6 14.5304 6.21071 15.0391 6.58579 15.4142C6.96086 15.7893 7.46957 16 8 16H20C20.5304 16 21.0391 15.7893 21.4142 15.4142C21.7893 15.0391 22 14.5304 22 14V6.3333C22 5.80287 21.7893 5.29416 21.4142 4.91909C21.0391 4.54401 20.5304 4.3333 20 4.3333ZM21.5 14C21.4995 14.3977 21.3414 14.779 21.0602 15.0602C20.779 15.3414 20.3977 15.4995 20 15.5H8C7.60231 15.4995 7.22104 15.3414 6.93984 15.0602C6.65863 14.779 6.50045 14.3977 6.5 14V6.3333C6.50045 5.93561 6.65863 5.55434 6.93984 5.27314C7.22104 4.99193 7.60231 4.83375 8 4.8333H10.1713L10.3167 4.5887L11.5573 2.5H16.4427L17.6833 4.5887L17.8287 4.8333H20C20.3977 4.83375 20.779 4.99193 21.0602 5.27314C21.3414 5.55434 21.4995 5.93561 21.5 6.3333V14ZM14 6.6562C13.4067 6.6562 12.8266 6.83215 12.3333 7.16179C11.8399 7.49144 11.4554 7.95997 11.2284 8.50815C11.0013 9.05633 10.9419 9.65953 11.0576 10.2415C11.1734 10.8234 11.4591 11.358 11.8787 11.7775C12.2982 12.1971 12.8328 12.4828 13.4147 12.5986C13.9967 12.7143 14.5999 12.6549 15.1481 12.4278C15.6962 12.2008 16.1648 11.8163 16.4944 11.3229C16.8241 10.8296 17 10.2495 17 9.6562C17 8.86055 16.6839 8.09749 16.1213 7.53488C15.5587 6.97227 14.7956 6.6562 14 6.6562ZM14 12.1562C13.5055 12.1562 13.0222 12.0096 12.6111 11.7349C12.2 11.4602 11.8795 11.0697 11.6903 10.6129C11.5011 10.1561 11.4516 9.65343 11.548 9.16847C11.6445 8.68352 11.8826 8.23806 12.2322 7.88843C12.5819 7.5388 13.0273 7.3007 13.5123 7.20424C13.9972 7.10777 14.4999 7.15728 14.9567 7.3465C15.4135 7.53572 15.804 7.85615 16.0787 8.26727C16.3534 8.6784 16.5 9.16175 16.5 9.6562C16.4993 10.319 16.2356 10.9545 15.7669 11.4231C15.2983 11.8918 14.6628 12.1555 14 12.1562Z" fill="black"/>
</svg>
