<svg width="24" height="24" viewBox="0 0 24 24" fill="none" xmlns="http://www.w3.org/2000/svg">
<path d="M19 6H17.1416L15.4092 3H8.5908L6.8584 6H5C4.20462 6.00087 3.44206 6.31722 2.87964 6.87964C2.31722 7.44206 2.00087 8.20462 2 9V18C2.00087 18.7954 2.31722 19.5579 2.87964 20.1204C3.44206 20.6828 4.20462 20.9991 5 21H19C19.7954 20.9991 20.5579 20.6828 21.1204 20.1204C21.6828 19.5579 21.9991 18.7954 22 18V9C21.9991 8.20462 21.6828 7.44206 21.1204 6.87964C20.5579 6.31722 19.7954 6.00087 19 6ZM10.4521 10.44C10.4552 10.0647 10.6066 9.7058 10.8731 9.44151C11.1396 9.17722 11.4997 9.02893 11.875 9.02893C12.2504 9.02893 12.6105 9.17722 12.877 9.44151C13.1435 9.7058 13.2949 10.0647 13.298 10.44V12.677C13.2949 13.0523 13.1435 13.4112 12.877 13.6755C12.6105 13.9398 12.2504 14.0881 11.875 14.0881C11.4997 14.0881 11.1396 13.9398 10.8731 13.6755C10.6066 13.4112 10.4552 13.0523 10.4521 12.677V10.44ZM12.3252 16.0943V17.5H11.4252V16.0938C10.5942 15.9862 9.8306 15.5804 9.27649 14.9518C8.72238 14.3232 8.41552 13.5147 8.413 12.6768H9.313C9.313 13.3564 9.58298 14.0082 10.0635 14.4888C10.5441 14.9693 11.1959 15.2393 11.8755 15.2393C12.5551 15.2393 13.2069 14.9693 13.6875 14.4888C14.168 14.0082 14.438 13.3564 14.438 12.6768H15.338C15.3354 13.5148 15.0285 14.3234 14.4743 14.9519C13.92 15.5805 13.1563 15.9863 12.3252 16.0938V16.0943Z" fill="black"/>
</svg>
