<svg width="24" height="24" viewBox="0 0 24 24" fill="none" xmlns="http://www.w3.org/2000/svg">
<path d="M12 7.7541C11.7802 7.7541 11.5654 7.81926 11.3827 7.94135C11.2 8.06344 11.0576 8.23697 10.9735 8.44C10.8894 8.64303 10.8674 8.86643 10.9103 9.08196C10.9531 9.2975 11.0589 9.49548 11.2143 9.65087C11.3697 9.80626 11.5677 9.91208 11.7832 9.95495C11.9988 9.99782 12.2222 9.97582 12.4252 9.89172C12.6282 9.80763 12.8018 9.66521 12.9239 9.48249C13.0459 9.29978 13.1111 9.08495 13.1111 8.8652C13.1108 8.57062 12.9936 8.28819 12.7853 8.07988C12.577 7.87158 12.2946 7.75442 12 7.7541ZM12 2C10.0222 2 8.08879 2.58649 6.4443 3.6853C4.79981 4.78412 3.51809 6.3459 2.76121 8.17317C2.00433 10.0004 1.8063 12.0111 2.19215 13.9509C2.578 15.8907 3.53041 17.6725 4.92894 19.0711C6.32746 20.4696 8.10929 21.422 10.0491 21.8079C11.9889 22.1937 13.9996 21.9957 15.8268 21.2388C17.6541 20.4819 19.2159 19.2002 20.3147 17.5557C21.4135 15.9112 22 13.9778 22 12C22 10.6868 21.7413 9.38642 21.2388 8.17317C20.7363 6.95991 19.9997 5.85752 19.0711 4.92893C18.1425 4.00035 17.0401 3.26375 15.8268 2.7612C14.6136 2.25866 13.3132 2 12 2ZM7.3555 15.35C7.0885 15.35 6.82751 15.2708 6.60551 15.1224C6.38352 14.9741 6.2105 14.7632 6.10834 14.5166C6.00618 14.2699 5.97945 13.9984 6.03156 13.7366C6.08366 13.4747 6.21224 13.2342 6.40105 13.0454C6.58985 12.8566 6.8304 12.728 7.09227 12.6759C7.35414 12.6239 7.62558 12.6506 7.87225 12.7528C8.11892 12.855 8.32976 13.028 8.4781 13.25C8.62643 13.472 8.7056 13.733 8.7056 14C8.7056 14.1773 8.67068 14.3528 8.60283 14.5166C8.53498 14.6804 8.43553 14.8293 8.31016 14.9546C8.18479 15.08 8.03596 15.1794 7.87216 15.2473C7.70836 15.3151 7.5328 15.35 7.3555 15.35ZM12 11.1429C11.5495 11.1429 11.1091 11.0093 10.7345 10.759C10.3599 10.5087 10.068 10.153 9.89558 9.73675C9.72318 9.32053 9.67808 8.86254 9.76598 8.42069C9.85388 7.97883 10.0708 7.57297 10.3894 7.25442C10.708 6.93586 11.1138 6.71893 11.5557 6.63105C11.9975 6.54318 12.4555 6.5883 12.8718 6.76072C13.288 6.93313 13.6437 7.2251 13.894 7.59969C14.1443 7.97429 14.2778 8.41469 14.2778 8.8652C14.2778 9.16432 14.2189 9.46052 14.1044 9.73688C13.99 10.0132 13.8222 10.2643 13.6107 10.4758C13.3992 10.6873 13.148 10.8551 12.8717 10.9696C12.5953 11.084 12.2991 11.1429 12 11.1429ZM16.6445 15.35C16.3775 15.35 16.1165 15.2708 15.8945 15.1225C15.6725 14.9741 15.4994 14.7633 15.3973 14.5166C15.2951 14.2699 15.2684 13.9985 15.3204 13.7366C15.3725 13.4748 15.5011 13.2342 15.6899 13.0454C15.8787 12.8566 16.1193 12.728 16.3811 12.6759C16.643 12.6238 16.9144 12.6506 17.1611 12.7528C17.4078 12.8549 17.6186 13.028 17.767 13.25C17.9153 13.472 17.9945 13.733 17.9945 14C17.9945 14.358 17.8523 14.7014 17.5991 14.9546C17.3459 15.2078 17.0025 15.35 16.6445 15.35Z" fill="black"/>
</svg>
