<svg width="24" height="24" viewBox="0 0 24 24" fill="none" xmlns="http://www.w3.org/2000/svg">
<path d="M15.5 2H8.5C7.83696 2 7.20107 2.26339 6.73223 2.73223C6.26339 3.20107 6 3.83696 6 4.5V19.5C6 20.163 6.26339 20.7989 6.73223 21.2678C7.20107 21.7366 7.83696 22 8.5 22H15.5C16.163 22 16.7989 21.7366 17.2678 21.2678C17.7366 20.7989 18 20.163 18 19.5V4.5C18 3.83696 17.7366 3.20107 17.2678 2.73223C16.7989 2.26339 16.163 2 15.5 2ZM8 5H16V10H8V5ZM8.8073 20C8.60952 20 8.41618 19.9414 8.25173 19.8315C8.08728 19.7216 7.95911 19.5654 7.88342 19.3827C7.80773 19.2 7.78793 18.9989 7.82651 18.8049C7.8651 18.6109 7.96034 18.4327 8.10019 18.2929C8.24005 18.153 8.41823 18.0578 8.61221 18.0192C8.80619 17.9806 9.00726 18.0004 9.18998 18.0761C9.37271 18.1518 9.52889 18.28 9.63877 18.4444C9.74865 18.6089 9.8073 18.8022 9.8073 19C9.8073 19.2652 9.70194 19.5196 9.51441 19.7071C9.32687 19.8946 9.07252 20 8.8073 20ZM8.8073 17C8.60952 17 8.41618 16.9414 8.25173 16.8315C8.08728 16.7216 7.95911 16.5654 7.88342 16.3827C7.80773 16.2 7.78793 15.9989 7.82651 15.8049C7.8651 15.6109 7.96034 15.4327 8.10019 15.2929C8.24005 15.153 8.41823 15.0578 8.61221 15.0192C8.80619 14.9806 9.00726 15.0004 9.18998 15.0761C9.37271 15.1518 9.52889 15.28 9.63877 15.4444C9.74865 15.6089 9.8073 15.8022 9.8073 16C9.8073 16.2652 9.70194 16.5196 9.51441 16.7071C9.32687 16.8946 9.07252 17 8.8073 17ZM8.8073 14C8.60952 14 8.41618 13.9414 8.25173 13.8315C8.08728 13.7216 7.95911 13.5654 7.88342 13.3827C7.80773 13.2 7.78793 12.9989 7.82651 12.8049C7.8651 12.6109 7.96034 12.4327 8.10019 12.2929C8.24005 12.153 8.41823 12.0578 8.61221 12.0192C8.80619 11.9806 9.00726 12.0004 9.18998 12.0761C9.37271 12.1518 9.52889 12.28 9.63877 12.4444C9.74865 12.6089 9.8073 12.8022 9.8073 13C9.8073 13.2652 9.70194 13.5196 9.51441 13.7071C9.32687 13.8946 9.07252 14 8.8073 14ZM12 20C11.8022 20 11.6089 19.9414 11.4444 19.8315C11.28 19.7216 11.1518 19.5654 11.0761 19.3827C11.0004 19.2 10.9806 18.9989 11.0192 18.8049C11.0578 18.6109 11.153 18.4327 11.2929 18.2929C11.4327 18.153 11.6109 18.0578 11.8049 18.0192C11.9989 17.9806 12.2 18.0004 12.3827 18.0761C12.5654 18.1518 12.7216 18.28 12.8315 18.4444C12.9414 18.6089 13 18.8022 13 19C13 19.2652 12.8946 19.5196 12.7071 19.7071C12.5196 19.8946 12.2652 20 12 20ZM12 17C11.8022 17 11.6089 16.9414 11.4444 16.8315C11.28 16.7216 11.1518 16.5654 11.0761 16.3827C11.0004 16.2 10.9806 15.9989 11.0192 15.8049C11.0578 15.6109 11.153 15.4327 11.2929 15.2929C11.4327 15.153 11.6109 15.0578 11.8049 15.0192C11.9989 14.9806 12.2 15.0004 12.3827 15.0761C12.5654 15.1518 12.7216 15.28 12.8315 15.4444C12.9414 15.6089 13 15.8022 13 16C13 16.2652 12.8946 16.5196 12.7071 16.7071C12.5196 16.8946 12.2652 17 12 17ZM12 14C11.8022 14 11.6089 13.9414 11.4444 13.8315C11.28 13.7216 11.1518 13.5654 11.0761 13.3827C11.0004 13.2 10.9806 12.9989 11.0192 12.8049C11.0578 12.6109 11.153 12.4327 11.2929 12.2929C11.4327 12.153 11.6109 12.0578 11.8049 12.0192C11.9989 11.9806 12.2 12.0004 12.3827 12.0761C12.5654 12.1518 12.7216 12.28 12.8315 12.4444C12.9414 12.6089 13 12.8022 13 13C13 13.2652 12.8946 13.5196 12.7071 13.7071C12.5196 13.8946 12.2652 14 12 14ZM15.1927 20C14.9949 20 14.8016 19.9414 14.6371 19.8315C14.4727 19.7216 14.3445 19.5654 14.2688 19.3827C14.1931 19.2 14.1733 18.9989 14.2119 18.8049C14.2505 18.6109 14.3457 18.4327 14.4856 18.2929C14.6254 18.153 14.8036 18.0578 14.9976 18.0192C15.1916 17.9806 15.3927 18.0004 15.5754 18.0761C15.7581 18.1518 15.9143 18.28 16.0242 18.4444C16.1341 18.6089 16.1927 18.8022 16.1927 19C16.1927 19.1313 16.1668 19.2614 16.1166 19.3827C16.0663 19.504 15.9927 19.6142 15.8998 19.7071C15.8069 19.8 15.6967 19.8736 15.5754 19.9239C15.4541 19.9741 15.324 20 15.1927 20ZM15.1927 17C14.9949 17 14.8016 16.9414 14.6371 16.8315C14.4727 16.7216 14.3445 16.5654 14.2688 16.3827C14.1931 16.2 14.1733 15.9989 14.2119 15.8049C14.2505 15.6109 14.3457 15.4327 14.4856 15.2929C14.6254 15.153 14.8036 15.0578 14.9976 15.0192C15.1916 14.9806 15.3927 15.0004 15.5754 15.0761C15.7581 15.1518 15.9143 15.28 16.0242 15.4444C16.1341 15.6089 16.1927 15.8022 16.1927 16C16.1927 16.1313 16.1668 16.2614 16.1166 16.3827C16.0663 16.504 15.9927 16.6142 15.8998 16.7071C15.8069 16.8 15.6967 16.8736 15.5754 16.9239C15.4541 16.9741 15.324 17 15.1927 17ZM15.1927 14C14.9949 14 14.8016 13.9414 14.6371 13.8315C14.4727 13.7216 14.3445 13.5654 14.2688 13.3827C14.1931 13.2 14.1733 12.9989 14.2119 12.8049C14.2505 12.6109 14.3457 12.4327 14.4856 12.2929C14.6254 12.153 14.8036 12.0578 14.9976 12.0192C15.1916 11.9806 15.3927 12.0004 15.5754 12.0761C15.7581 12.1518 15.9143 12.28 16.0242 12.4444C16.1341 12.6089 16.1927 12.8022 16.1927 13C16.1927 13.1313 16.1668 13.2614 16.1166 13.3827C16.0663 13.504 15.9927 13.6142 15.8998 13.7071C15.8069 13.8 15.6967 13.8736 15.5754 13.9239C15.4541 13.9741 15.324 14 15.1927 14Z" fill="black"/>
</svg>
