<svg width="24" height="24" viewBox="0 0 24 24" fill="none" xmlns="http://www.w3.org/2000/svg">
<path d="M19.5 10V12C19.5 13.9891 18.7098 15.8968 17.3033 17.3033C15.8968 18.7098 13.9891 19.5 12 19.5C10.0109 19.5 8.10322 18.7098 6.6967 17.3033C5.29018 15.8968 4.5 13.9891 4.5 12V10H4V12C4.00085 14.0774 4.81029 16.0728 6.25688 17.5637C7.70348 19.0546 9.67361 19.9239 11.75 19.9874V23H12.25V19.9874C14.3264 19.9239 16.2965 19.0546 17.7431 17.5637C19.1897 16.0728 19.9992 14.0774 20 12V10H19.5ZM12 16C13.0605 15.999 14.0774 15.5772 14.8273 14.8273C15.5772 14.0774 15.999 13.0605 16 12V5C16 3.93913 15.5786 2.92172 14.8284 2.17157C14.0783 1.42143 13.0609 1 12 1C10.9391 1 9.92172 1.42143 9.17157 2.17157C8.42143 2.92172 8 3.93913 8 5V12C8.00103 13.0605 8.42279 14.0774 9.17271 14.8273C9.92264 15.5772 10.9395 15.999 12 16ZM8.5 5C8.5 4.07174 8.86875 3.1815 9.52513 2.52513C10.1815 1.86875 11.0717 1.5 12 1.5C12.9283 1.5 13.8185 1.86875 14.4749 2.52513C15.1313 3.1815 15.5 4.07174 15.5 5V12C15.5 12.9283 15.1313 13.8185 14.4749 14.4749C13.8185 15.1313 12.9283 15.5 12 15.5C11.0717 15.5 10.1815 15.1313 9.52513 14.4749C8.86875 13.8185 8.5 12.9283 8.5 12V5Z" fill="black"/>
</svg>
