<svg width="24" height="24" viewBox="0 0 24 24" fill="none" xmlns="http://www.w3.org/2000/svg">
<path d="M3 3V21H21V3H3ZM7.0056 13.15C6.77815 13.15 6.5558 13.0826 6.36667 12.9562C6.17754 12.8299 6.03012 12.6503 5.94307 12.4402C5.85601 12.23 5.83322 11.9988 5.87758 11.7757C5.92195 11.5526 6.03147 11.3477 6.19229 11.1869C6.35312 11.026 6.55803 10.9165 6.78111 10.8721C7.00419 10.8277 7.23542 10.8505 7.44556 10.9375C7.6557 11.0246 7.83532 11.172 7.96168 11.3611C8.08805 11.5502 8.1555 11.7725 8.1555 12C8.1555 12.305 8.03435 12.5975 7.81871 12.8131C7.60306 13.0288 7.31058 13.15 7.0056 13.15ZM12 10.15C11.7726 10.15 11.5502 10.0826 11.3611 9.95619C11.172 9.82983 11.0246 9.65022 10.9375 9.44009C10.8505 9.22995 10.8277 8.99872 10.8721 8.77565C10.9165 8.55257 11.026 8.34766 11.1868 8.18683C11.3477 8.026 11.5526 7.91647 11.7756 7.8721C11.9987 7.82772 12.23 7.8505 12.4401 7.93754C12.6502 8.02458 12.8298 8.17198 12.9562 8.36109C13.0826 8.55021 13.15 8.77255 13.15 9C13.15 9.305 13.0288 9.59751 12.8132 9.81317C12.5975 10.0288 12.305 10.15 12 10.15ZM16.9944 13.15C16.767 13.15 16.5446 13.0826 16.3555 12.9562C16.1664 12.8298 16.019 12.6502 15.9319 12.4401C15.8449 12.23 15.8221 11.9987 15.8665 11.7756C15.9109 11.5526 16.0204 11.3477 16.1812 11.1868C16.3421 11.026 16.547 10.9165 16.77 10.8721C16.9931 10.8277 17.2244 10.8505 17.4345 10.9375C17.6446 11.0246 17.8242 11.172 17.9506 11.3611C18.077 11.5502 18.1444 11.7726 18.1444 12C18.1444 12.305 18.0232 12.5975 17.8076 12.8132C17.5919 13.0288 17.2994 13.15 16.9944 13.15Z" fill="black"/>
</svg>
