<svg width="24" height="24" viewBox="0 0 24 24" fill="none" xmlns="http://www.w3.org/2000/svg">
<path d="M16.5 2H7.5C6.83696 2 6.20107 2.26339 5.73223 2.73223C5.26339 3.20107 5 3.83696 5 4.5V19.5C5 20.163 5.26339 20.7989 5.73223 21.2678C6.20107 21.7366 6.83696 22 7.5 22H16.5C17.163 22 17.7989 21.7366 18.2678 21.2678C18.7366 20.7989 19 20.163 19 19.5V4.5C19 3.83696 18.7366 3.20107 18.2678 2.73223C17.7989 2.26339 17.163 2 16.5 2ZM18 19.5C17.9995 19.8977 17.8414 20.279 17.5602 20.5602C17.279 20.8414 16.8977 20.9995 16.5 21H7.5C7.10231 20.9995 6.72104 20.8414 6.43984 20.5602C6.15863 20.279 6.00045 19.8977 6 19.5V4.5C6.00045 4.10231 6.15863 3.72104 6.43984 3.43984C6.72104 3.15863 7.10231 3.00045 7.5 3H16.5C16.8977 3.00045 17.279 3.15863 17.5602 3.43984C17.8414 3.72104 17.9995 4.10231 18 4.5V19.5ZM11.5834 15H12.4167V11.25H11.5834V15ZM12 8.5729C11.8681 8.5729 11.7392 8.612 11.6296 8.68526C11.52 8.75852 11.4345 8.86264 11.384 8.98446C11.3336 9.10629 11.3204 9.24034 11.3461 9.36967C11.3718 9.49899 11.4353 9.61779 11.5286 9.71103C11.6218 9.80427 11.7406 9.86776 11.8699 9.89349C11.9993 9.91921 12.1333 9.90601 12.2551 9.85555C12.377 9.80509 12.4811 9.71964 12.5543 9.61C12.6276 9.50036 12.6667 9.37146 12.6667 9.2396C12.6667 9.15204 12.6495 9.06534 12.616 8.98445C12.5825 8.90356 12.5334 8.83005 12.4715 8.76814C12.4095 8.70623 12.336 8.65712 12.2552 8.62362C12.1743 8.59012 12.0876 8.57289 12 8.5729Z" fill="black"/>
</svg>
