<svg width="24" height="24" viewBox="0 0 24 24" fill="none" xmlns="http://www.w3.org/2000/svg">
<path d="M15.5 2H8.5C7.83696 2 7.20107 2.26339 6.73223 2.73223C6.26339 3.20107 6 3.83696 6 4.5V19.5C6 20.163 6.26339 20.7989 6.73223 21.2678C7.20107 21.7366 7.83696 22 8.5 22H15.5C16.163 22 16.7989 21.7366 17.2678 21.2678C17.7366 20.7989 18 20.163 18 19.5V4.5C18 3.83696 17.7366 3.20107 17.2678 2.73223C16.7989 2.26339 16.163 2 15.5 2ZM16.5 19.5C16.4997 19.7651 16.3943 20.0193 16.2068 20.2068C16.0193 20.3943 15.7651 20.4997 15.5 20.5H8.5C8.23487 20.4997 7.98069 20.3943 7.79321 20.2068C7.60574 20.0193 7.50029 19.7651 7.5 19.5V4.5C7.50029 4.23487 7.60574 3.98069 7.79321 3.79321C7.98069 3.60574 8.23487 3.50029 8.5 3.5H15.5C15.7651 3.50029 16.0193 3.60574 16.2068 3.79321C16.3943 3.98069 16.4997 4.23487 16.5 4.5V19.5ZM12 5.8C11.8121 5.8 11.6284 5.85572 11.4722 5.9601C11.316 6.06449 11.1942 6.21286 11.1223 6.38645C11.0504 6.56004 11.0316 6.75105 11.0683 6.93534C11.1049 7.11962 11.1954 7.28889 11.3282 7.42175C11.4611 7.55461 11.6304 7.64509 11.8147 7.68175C11.9989 7.7184 12.19 7.69959 12.3635 7.62769C12.5371 7.55578 12.6855 7.43402 12.7899 7.27779C12.8943 7.12156 12.95 6.93789 12.95 6.75C12.95 6.49804 12.8499 6.25641 12.6718 6.07825C12.4936 5.90009 12.252 5.8 12 5.8Z" fill="black"/>
</svg>
