<svg width="24" height="24" viewBox="0 0 24 24" fill="none" xmlns="http://www.w3.org/2000/svg">
<path d="M14 2H10C8.67392 2 7.40215 2.52678 6.46447 3.46447C5.52678 4.40215 5 5.67392 5 7V15C5 16.8565 5.7375 18.637 7.05025 19.9497C8.36301 21.2625 10.1435 22 12 22C13.8565 22 15.637 21.2625 16.9497 19.9497C18.2625 18.637 19 16.8565 19 15V7C19 5.67392 18.4732 4.40215 17.5355 3.46447C16.5979 2.52678 15.3261 2 14 2ZM12.25 8.75C12.25 8.8163 12.2237 8.87989 12.1768 8.92678C12.1299 8.97366 12.0663 9 12 9C11.9337 9 11.8701 8.97366 11.8232 8.92678C11.7763 8.87989 11.75 8.8163 11.75 8.75V5.25C11.75 5.1837 11.7763 5.12011 11.8232 5.07322C11.8701 5.02634 11.9337 5 12 5C12.0663 5 12.1299 5.02634 12.1768 5.07322C12.2237 5.12011 12.25 5.1837 12.25 5.25V8.75Z" fill="black"/>
</svg>
