<svg width="24" height="24" viewBox="0 0 24 24" fill="none" xmlns="http://www.w3.org/2000/svg">
<path d="M17 8.57C16.6692 8.57009 16.3486 8.68487 16.0929 8.8948C15.8373 9.10472 15.6623 9.3968 15.5978 9.72127C15.5333 10.0457 15.5833 10.3825 15.7393 10.6743C15.8953 10.966 16.1476 11.1946 16.4533 11.3212C16.7589 11.4478 17.099 11.4644 17.4156 11.3684C17.7321 11.2723 18.0056 11.0695 18.1894 10.7944C18.3732 10.5194 18.4559 10.1891 18.4235 9.85987C18.3911 9.53064 18.2455 9.22284 18.0116 8.9889C17.8791 8.85566 17.7214 8.75003 17.5478 8.67812C17.3741 8.60622 17.1879 8.56947 17 8.57ZM18 4H6C5.34339 4 4.69321 4.12933 4.08658 4.3806C3.47995 4.63188 2.92876 5.00017 2.46447 5.46447C1.52678 6.40215 1 7.67392 1 9V18.1346C0.99997 18.8228 1.24762 19.488 1.69766 20.0086C2.14771 20.5292 2.7701 20.8705 3.45105 20.97C4.13199 21.0695 4.82601 20.9206 5.40623 20.5506C5.98644 20.1805 6.41409 19.614 6.611 18.9546L7.4936 16H16.5064L17.389 18.9547C17.5859 19.6141 18.0136 20.1806 18.5938 20.5507C19.174 20.9207 19.868 21.0696 20.549 20.9701C21.2299 20.8706 21.8523 20.5293 22.3023 20.0087C22.7524 19.4881 23 18.8229 23 18.1347V9C23 8.34339 22.8707 7.69321 22.6194 7.08658C22.3681 6.47995 21.9998 5.92876 21.5355 5.46447C21.0712 5.00017 20.52 4.63188 19.9134 4.3806C19.3068 4.12933 18.6566 4 18 4ZM9.4583 10.6124H7.6124V12.4583H6.3876V10.6124H4.5417V9.3876H6.3876V7.5416H7.6124V9.3876H9.4583V10.6124ZM18.8365 11.8365C18.4116 12.2614 17.8526 12.5258 17.2546 12.5847C16.6566 12.6436 16.0567 12.4933 15.5571 12.1595C15.0575 11.8257 14.6891 11.3289 14.5146 10.7539C14.3402 10.1789 14.3706 9.56124 14.6005 9.0061C14.8304 8.45097 15.2458 7.99273 15.7757 7.70948C16.3056 7.42623 16.9174 7.33548 17.5067 7.45271C18.096 7.56993 18.6265 7.88787 19.0077 8.35236C19.3889 8.81684 19.5972 9.39912 19.5972 10C19.5976 10.3411 19.5307 10.679 19.4001 10.9942C19.2696 11.3093 19.078 11.5956 18.8365 11.8365Z" fill="black"/>
</svg>
