<svg width="24" height="24" viewBox="0 0 24 24" fill="none" xmlns="http://www.w3.org/2000/svg">
<path d="M12 11.2C11.8418 11.2 11.6871 11.2469 11.5555 11.3348C11.424 11.4227 11.3214 11.5477 11.2609 11.6939C11.2003 11.84 11.1845 12.0009 11.2154 12.1561C11.2462 12.3113 11.3224 12.4538 11.4343 12.5657C11.5462 12.6776 11.6887 12.7538 11.8439 12.7846C11.9991 12.8155 12.16 12.7997 12.3061 12.7391C12.4523 12.6786 12.5773 12.576 12.6652 12.4445C12.7531 12.3129 12.8 12.1582 12.8 12C12.7998 11.7879 12.7154 11.5845 12.5655 11.4345C12.4155 11.2846 12.2121 11.2002 12 11.2ZM17.36 11.2C17.2018 11.2 17.0471 11.2469 16.9155 11.3348C16.784 11.4227 16.6814 11.5477 16.6209 11.6939C16.5603 11.84 16.5445 12.0009 16.5754 12.1561C16.6062 12.3113 16.6824 12.4538 16.7943 12.5657C16.9062 12.6776 17.0487 12.7538 17.2039 12.7846C17.3591 12.8155 17.52 12.7997 17.6661 12.7391C17.8123 12.6786 17.9373 12.576 18.0252 12.4445C18.1131 12.3129 18.16 12.1582 18.16 12C18.1597 11.7879 18.0753 11.5846 17.9254 11.4346C17.7754 11.2847 17.5721 11.2003 17.36 11.2ZM6.64 11.2C6.48177 11.2 6.3271 11.2469 6.19554 11.3348C6.06398 11.4227 5.96145 11.5477 5.9009 11.6939C5.84035 11.84 5.8245 12.0009 5.85537 12.1561C5.88624 12.3113 5.96243 12.4538 6.07431 12.5657C6.1862 12.6776 6.32874 12.7538 6.48393 12.7846C6.63911 12.8155 6.79997 12.7997 6.94615 12.7391C7.09233 12.6786 7.21727 12.576 7.30518 12.4445C7.39308 12.3129 7.44 12.1582 7.44 12C7.43976 11.7879 7.3554 11.5846 7.20542 11.4346C7.05544 11.2846 6.8521 11.2002 6.64 11.2ZM1 5V19H23V5H1ZM6.64 13.7C6.30377 13.7 5.97509 13.6003 5.69553 13.4135C5.41597 13.2267 5.19807 12.9612 5.0694 12.6506C4.94074 12.3399 4.90707 11.9981 4.97266 11.6683C5.03826 11.3386 5.20017 11.0357 5.43792 10.7979C5.67567 10.5602 5.97858 10.3983 6.30835 10.3327C6.63811 10.2671 6.97993 10.3007 7.29056 10.4294C7.6012 10.5581 7.8667 10.776 8.0535 11.0555C8.2403 11.3351 8.34 11.6638 8.34 12C8.34 12.2232 8.29603 12.4443 8.2106 12.6506C8.12516 12.8568 7.99994 13.0442 7.84208 13.2021C7.68422 13.3599 7.49682 13.4852 7.29056 13.5706C7.08431 13.656 6.86325 13.7 6.64 13.7ZM12 13.7C11.6638 13.7 11.3351 13.6003 11.0555 13.4135C10.776 13.2267 10.5581 12.9612 10.4294 12.6506C10.3007 12.3399 10.2671 11.9981 10.3327 11.6683C10.3983 11.3386 10.5602 11.0357 10.7979 10.7979C11.0357 10.5602 11.3386 10.3983 11.6683 10.3327C11.9981 10.2671 12.3399 10.3007 12.6506 10.4294C12.9612 10.5581 13.2267 10.776 13.4135 11.0555C13.6003 11.3351 13.7 11.6638 13.7 12C13.7 12.4509 13.5209 12.8833 13.2021 13.2021C12.8833 13.5209 12.4509 13.7 12 13.7ZM17.36 13.7C17.0238 13.7 16.6951 13.6003 16.4155 13.4135C16.136 13.2267 15.9181 12.9612 15.7894 12.6506C15.6607 12.3399 15.6271 11.9981 15.6927 11.6683C15.7583 11.3386 15.9202 11.0357 16.1579 10.7979C16.3957 10.5602 16.6986 10.3983 17.0283 10.3327C17.3581 10.2671 17.6999 10.3007 18.0106 10.4294C18.3212 10.5581 18.5867 10.776 18.7735 11.0555C18.9603 11.3351 19.06 11.6638 19.06 12C19.06 12.4509 18.8809 12.8833 18.5621 13.2021C18.2433 13.5209 17.8109 13.7 17.36 13.7Z" fill="black"/>
</svg>
