<svg width="24" height="24" viewBox="0 0 24 24" fill="none" xmlns="http://www.w3.org/2000/svg">
<path d="M16.5 3H14C14 2.46957 13.7893 1.96086 13.4142 1.58579C13.0391 1.21071 12.5304 1 12 1C11.4696 1 10.9609 1.21071 10.5858 1.58579C10.2107 1.96086 10 2.46957 10 3H7.5C6.83696 3 6.20107 3.26339 5.73223 3.73223C5.26339 4.20107 5 4.83696 5 5.5V20.5C5 21.163 5.26339 21.7989 5.73223 22.2678C6.20107 22.7366 6.83696 23 7.5 23H16.5C17.163 23 17.7989 22.7366 18.2678 22.2678C18.7366 21.7989 19 21.163 19 20.5V5.5C19 4.83696 18.7366 4.20107 18.2678 3.73223C17.7989 3.26339 17.163 3 16.5 3ZM12 1.5C12.3977 1.50045 12.779 1.65863 13.0602 1.93984C13.3414 2.22104 13.4995 2.60231 13.5 3H10.5C10.5005 2.60231 10.6586 2.22104 10.9398 1.93984C11.221 1.65863 11.6023 1.50045 12 1.5ZM18.5 20.5C18.4994 21.0302 18.2885 21.5386 17.9135 21.9135C17.5386 22.2885 17.0302 22.4994 16.5 22.5H7.5C6.96975 22.4994 6.4614 22.2885 6.08646 21.9135C5.71152 21.5386 5.50061 21.0302 5.5 20.5V5.5C5.50061 4.96975 5.71152 4.4614 6.08646 4.08646C6.4614 3.71152 6.96975 3.50061 7.5 3.5H16.5C17.0302 3.50061 17.5386 3.71152 17.9135 4.08646C18.2885 4.4614 18.4994 4.96975 18.5 5.5V20.5ZM11.7544 17.1281C11.6654 17.1281 11.5784 17.1545 11.5044 17.2039C11.4304 17.2534 11.3727 17.3237 11.3387 17.4059C11.3046 17.4881 11.2957 17.5786 11.313 17.6659C11.3304 17.7532 11.3733 17.8334 11.4362 17.8963C11.4991 17.9592 11.5793 18.0021 11.6666 18.0195C11.7539 18.0368 11.8444 18.0279 11.9266 17.9938C12.0088 17.9598 12.0791 17.9021 12.1286 17.8281C12.178 17.7541 12.2044 17.6671 12.2044 17.5781C12.2044 17.4588 12.157 17.3443 12.0726 17.2599C11.9882 17.1755 11.8737 17.1281 11.7544 17.1281ZM12.0186 8.23C10.7021 8.23 9.165 9.08 9.165 11.4741H9.665C9.665 9.45 10.8809 8.73 12.0186 8.73C12.6169 8.67694 13.2119 8.86272 13.6737 9.2468C14.1355 9.63088 14.4266 10.1821 14.4834 10.78C14.4834 11.6989 13.8965 12.0876 13.2158 12.5368C12.7008 12.7774 12.2651 13.1601 11.9601 13.6398C11.6551 14.1195 11.4934 14.6763 11.4941 15.2448H11.9941C11.9955 14.759 12.1378 14.284 12.4037 13.8773C12.6696 13.4707 13.0477 13.1499 13.4922 12.9538C13.919 12.7669 14.2849 12.4642 14.5485 12.08C14.812 11.6958 14.9627 11.2455 14.9834 10.78C14.9562 10.4179 14.858 10.0646 14.6943 9.74049C14.5305 9.41634 14.3046 9.12762 14.0293 8.89082C13.7539 8.65402 13.4347 8.47377 13.0897 8.36039C12.7447 8.247 12.3807 8.2027 12.0186 8.23Z" fill="black"/>
</svg>
