<svg width="24" height="24" viewBox="0 0 24 24" fill="none" xmlns="http://www.w3.org/2000/svg">
<path d="M18.3125 3H5.68746C4.23999 4.01264 3.05811 5.35947 2.2421 6.92624C1.42608 8.493 1 10.2335 1 12C1 13.7665 1.42608 15.507 2.2421 17.0738C3.05811 18.6405 4.23999 19.9874 5.68746 21H18.3125C19.76 19.9874 20.9419 18.6405 21.7579 17.0738C22.5739 15.507 23 13.7665 23 12C23 10.2335 22.5739 8.49298 21.7579 6.92622C20.9419 5.35945 19.76 4.01263 18.3125 3ZM8.99996 12.75H6.99996V7.75H8.99996V12.75ZM9.99996 17C9.99996 16.4696 10.2107 15.9609 10.5857 15.5858C10.9608 15.2107 11.4695 15 12 15C12.5304 15 13.0391 15.2107 13.4142 15.5858C13.7892 15.9609 14 16.4696 14 17H9.99996ZM17 12H15V8.5H17V12Z" fill="black"/>
</svg>
