<svg width="24" height="24" viewBox="0 0 24 24" fill="none" xmlns="http://www.w3.org/2000/svg">
<path d="M20.5 4H3.5C2.83696 4 2.20107 4.26339 1.73223 4.73223C1.26339 5.20107 1 5.83696 1 6.5V17.5C1 18.163 1.26339 18.7989 1.73223 19.2678C2.20107 19.7366 2.83696 20 3.5 20H20.5C21.163 20 21.7989 19.7366 22.2678 19.2678C22.7366 18.7989 23 18.163 23 17.5V6.5C23 5.83696 22.7366 5.20107 22.2678 4.73223C21.7989 4.26339 21.163 4 20.5 4ZM11 7H13V9H11V7ZM11 11H13V13H11V11ZM7 7H9V9H7V7ZM7 11H9V13H7V11ZM5 17H3V15H5V17ZM5 13H3V11H5V13ZM5 9H3V7H5V9ZM17 17H7V15H17V17ZM17 13H15V11H17V13ZM17 9H15V7H17V9ZM21 17H19V15H21V17ZM21 13H19V11H21V13ZM21 9H19V7H21V9Z" fill="black"/>
</svg>
