<svg width="24" height="24" viewBox="0 0 24 24" fill="none" xmlns="http://www.w3.org/2000/svg">
<path d="M16.5 2H7.5C6.83696 2 6.20107 2.26339 5.73223 2.73223C5.26339 3.20107 5 3.83696 5 4.5V19.5C5 20.163 5.26339 20.7989 5.73223 21.2678C6.20107 21.7366 6.83696 22 7.5 22H16.5C17.163 22 17.7989 21.7366 18.2678 21.2678C18.7366 20.7989 19 20.163 19 19.5V4.5C19 3.83696 18.7366 3.20107 18.2678 2.73223C17.7989 2.26339 17.163 2 16.5 2ZM18.5 19.5C18.4994 20.0302 18.2885 20.5386 17.9135 20.9135C17.5386 21.2885 17.0302 21.4994 16.5 21.5H7.5C6.96975 21.4994 6.4614 21.2885 6.08646 20.9135C5.71152 20.5386 5.50061 20.0302 5.5 19.5V4.5C5.50061 3.96975 5.71152 3.4614 6.08646 3.08646C6.4614 2.71152 6.96975 2.50061 7.5 2.5H16.5C17.0302 2.50061 17.5386 2.71152 17.9135 3.08646C18.2885 3.4614 18.4994 3.96975 18.5 4.5V19.5ZM15.812 10.8056C15.6427 10.2414 15.3442 9.72434 14.9402 9.2956L13.6602 9.8876L12.9988 9.5057L12.8715 8.1012C12.2983 7.9658 11.7015 7.9658 11.1283 8.1012L11.001 9.5056L10.3396 9.8874L9.0596 9.2954C8.6557 9.72417 8.35731 10.2412 8.1881 10.8054L9.3407 11.6178V12.3815L8.1879 13.194C8.35717 13.7583 8.65567 14.2753 9.0597 14.704L10.3397 14.112L11.001 14.4938L11.1284 15.8984C11.7016 16.0338 12.2984 16.0338 12.8716 15.8984L12.9989 14.4939L13.6603 14.1121L14.9403 14.7041C15.3442 14.2753 15.6426 13.7583 15.8118 13.1941L14.6592 12.3816V11.618L15.812 10.8056ZM14.4 12.75L15.2734 13.3657C15.1603 13.6483 15.0074 13.9133 14.8192 14.1526L13.8492 13.704L13.6374 13.606L13.4353 13.7227L12.7739 14.1045L12.5718 14.2212L12.5508 14.4536L12.4543 15.5178C12.153 15.5611 11.847 15.5611 11.5457 15.5178L11.4492 14.4535L11.4282 14.2211L11.2261 14.1044L10.5648 13.7226L10.3627 13.6059L10.1508 13.7039L9.1808 14.1524C8.99249 13.9132 8.83947 13.6482 8.7264 13.3655L9.6 12.75L9.7907 12.6155V11.3855L9.6 11.25L8.7266 10.6345C8.83977 10.3519 8.99275 10.0869 9.1809 9.8476L10.1509 10.2962L10.3627 10.3941L10.5649 10.2774L11.2262 9.8956L11.4283 9.7789L11.4494 9.5465L11.5459 8.4823C11.8472 8.4391 12.1531 8.4391 12.4544 8.4823L12.5509 9.5465L12.5719 9.7789L12.774 9.8956L13.4355 10.2775L13.6376 10.3942L13.8493 10.2962L14.8193 9.8476C15.0074 10.0869 15.1604 10.3518 15.2736 10.6344L14.4 11.25L14.2092 11.3844V12.6144L14.4 12.75ZM12 10.8157C11.7658 10.8157 11.5368 10.8852 11.342 11.0153C11.1473 11.1454 10.9955 11.3304 10.9058 11.5468C10.8162 11.7632 10.7928 12.0013 10.8385 12.231C10.8842 12.4608 10.9969 12.6718 11.1626 12.8374C11.3282 13.0031 11.5392 13.1158 11.769 13.1615C11.9987 13.2072 12.2368 13.1838 12.4532 13.0942C12.6696 13.0045 12.8546 12.8527 12.9847 12.658C13.1148 12.4632 13.1843 12.2342 13.1843 12C13.1843 11.6859 13.0595 11.3847 12.8374 11.1626C12.6153 10.9405 12.3141 10.8157 12 10.8157ZM12 12.7343C11.8548 12.7343 11.7128 12.6912 11.592 12.6105C11.4713 12.5299 11.3772 12.4152 11.3216 12.281C11.266 12.1468 11.2515 11.9992 11.2798 11.8567C11.3081 11.7143 11.3781 11.5835 11.4808 11.4808C11.5835 11.3781 11.7143 11.3081 11.8567 11.2798C11.9992 11.2515 12.1468 11.266 12.281 11.3216C12.4152 11.3772 12.5299 11.4713 12.6105 11.592C12.6912 11.7128 12.7343 11.8548 12.7343 12C12.7341 12.1947 12.6567 12.3813 12.519 12.519C12.3813 12.6567 12.1947 12.7341 12 12.7343Z" fill="black"/>
</svg>
