<svg width="24" height="24" viewBox="0 0 24 24" fill="none" xmlns="http://www.w3.org/2000/svg">
<path d="M17 8.8542C16.735 8.8542 16.4781 8.94609 16.2732 9.11423C16.0683 9.28237 15.9281 9.51635 15.8764 9.7763C15.8247 10.0363 15.8647 10.3061 15.9897 10.5398C16.1146 10.7736 16.3167 10.9568 16.5616 11.0582C16.8065 11.1596 17.0789 11.173 17.3326 11.0961C17.5862 11.0191 17.8053 10.8566 17.9525 10.6362C18.0998 10.4159 18.166 10.1512 18.1401 9.88747C18.1141 9.6237 17.9974 9.37711 17.81 9.1897C17.7039 9.08299 17.5777 8.99839 17.4386 8.9408C17.2996 8.88321 17.1505 8.85378 17 8.8542ZM18 4H6C5.34339 4 4.69321 4.12933 4.08658 4.3806C3.47995 4.63188 2.92876 5.00017 2.46447 5.46447C1.52678 6.40215 1 7.67392 1 9V18.1346C0.99997 18.8228 1.24762 19.488 1.69766 20.0086C2.14771 20.5292 2.7701 20.8705 3.45105 20.97C4.13199 21.0695 4.82601 20.9206 5.40623 20.5506C5.98644 20.1805 6.41409 19.614 6.611 18.9546L7.4936 16H16.5064L17.389 18.9547C17.5859 19.6141 18.0136 20.1806 18.5938 20.5507C19.174 20.9207 19.868 21.0696 20.549 20.9701C21.2299 20.8706 21.8523 20.5293 22.3023 20.0087C22.7524 19.4881 23 18.8229 23 18.1347V9C23 8.34339 22.8707 7.69321 22.6194 7.08658C22.3681 6.47995 21.9998 5.92876 21.5355 5.46447C21.0712 5.00017 20.52 4.63188 19.9134 4.3806C19.3068 4.12933 18.6566 4 18 4ZM9.5 10.8H7.8V12.5H6.2V10.8H4.5V9.2H6.2V7.5H7.8V9.2H9.5V10.8ZM18.8709 11.871C18.4381 12.3039 17.8685 12.5733 17.2593 12.6333C16.6502 12.6933 16.039 12.5402 15.53 12.2002C15.021 11.8601 14.6457 11.3541 14.468 10.7683C14.2902 10.1825 14.3211 9.55325 14.5554 8.98769C14.7896 8.42214 15.2127 7.9553 15.7525 7.66671C16.2924 7.37813 16.9156 7.28565 17.516 7.40505C18.1164 7.52444 18.6568 7.84832 19.0451 8.32149C19.4335 8.79467 19.6458 9.38786 19.6458 10C19.6463 10.3475 19.5781 10.6917 19.4451 11.0127C19.3121 11.3338 19.117 11.6254 18.8709 11.8708V11.871Z" fill="black"/>
</svg>
