<svg width="24" height="24" viewBox="0 0 24 24" fill="none" xmlns="http://www.w3.org/2000/svg">
<path d="M8.3333 19H15.6667V18.1H8.3333V19ZM8.3333 7.9H15.6667V7H8.3333V7.9ZM8.3333 11.6H15.6667V10.7H8.3333V11.6ZM8.3333 15.3H15.6667V14.4H8.3333V15.3ZM16.5 3H14C14 2.46957 13.7893 1.96086 13.4142 1.58579C13.0391 1.21071 12.5304 1 12 1C11.4696 1 10.9609 1.21071 10.5858 1.58579C10.2107 1.96086 10 2.46957 10 3H7.5C6.83696 3 6.20107 3.26339 5.73223 3.73223C5.26339 4.20107 5 4.83696 5 5.5V20.5C5 21.163 5.26339 21.7989 5.73223 22.2678C6.20107 22.7366 6.83696 23 7.5 23H16.5C17.163 23 17.7989 22.7366 18.2678 22.2678C18.7366 21.7989 19 21.163 19 20.5V5.5C19 4.83696 18.7366 4.20107 18.2678 3.73223C17.7989 3.26339 17.163 3 16.5 3ZM12 2C12.2651 2.00029 12.5193 2.10574 12.7068 2.29321C12.8943 2.48069 12.9997 2.73487 13 3H11C11.0003 2.73487 11.1057 2.48069 11.2932 2.29321C11.4807 2.10574 11.7349 2.00029 12 2ZM18 20.5C17.9995 20.8977 17.8414 21.279 17.5602 21.5602C17.279 21.8414 16.8977 21.9995 16.5 22H7.5C7.10231 21.9995 6.72104 21.8414 6.43984 21.5602C6.15863 21.279 6.00045 20.8977 6 20.5V5.5C6.00045 5.10231 6.15863 4.72104 6.43984 4.43984C6.72104 4.15863 7.10231 4.00045 7.5 4H16.5C16.8977 4.00045 17.279 4.15863 17.5602 4.43984C17.8414 4.72104 17.9995 5.10231 18 5.5V20.5Z" fill="black"/>
</svg>
