<svg width="24" height="24" viewBox="0 0 24 24" fill="none" xmlns="http://www.w3.org/2000/svg">
<path d="M3.30102 18.3419L1.89532 19.7477L4.25232 22.1047L5.65812 20.6989L9.28942 20.6031L3.39692 14.7106L3.30102 18.3419ZM19.7477 1.89526L18.3419 3.30106L14.7106 3.39686L20.6031 9.28936L20.699 5.65806L22.1047 4.25226L19.7477 1.89526ZM5.55002 11.95V12.95C6.27237 12.9497 6.98768 13.0918 7.65508 13.3681C8.32248 13.6444 8.9289 14.0495 9.43967 14.5603C9.95044 15.0711 10.3556 15.6775 10.6319 16.3449C10.9082 17.0123 11.0503 17.7276 11.05 18.45H12.05C12.0503 17.5963 11.8824 16.7509 11.5558 15.9622C11.2293 15.1734 10.7505 14.4568 10.1469 13.8531C9.54323 13.2495 8.82656 12.7707 8.03781 12.4442C7.24906 12.1176 6.4037 11.9497 5.55002 11.95ZM12.95 5.54996H11.95C11.9497 6.40364 12.1177 7.249 12.4442 8.03775C12.7708 8.8265 13.2495 9.54316 13.8532 10.1468C14.4568 10.7504 15.1735 11.2292 15.9622 11.5558C16.751 11.8823 17.5964 12.0503 18.45 12.05V11.05C17.7277 11.0502 17.0124 10.9082 16.3449 10.6319C15.6775 10.3556 15.0711 9.95044 14.5603 9.43967C14.0495 8.92889 13.6444 8.32246 13.3681 7.65505C13.0918 6.98763 12.9497 6.27231 12.95 5.54996Z" fill="black"/>
</svg>
