<svg width="24" height="24" viewBox="0 0 24 24" fill="none" xmlns="http://www.w3.org/2000/svg">
<path d="M18.5865 17.0261C19.5072 15.6964 20.0004 14.1174 20 12.5001V10.5001H18.5V12.5001C18.4995 13.7187 18.154 14.9124 17.5033 15.9428L4.52997 2.97007L3.46997 4.03007L7.99997 8.56057V12.5001C7.99725 13.2876 8.22789 14.0584 8.66279 14.715C9.09768 15.3716 9.71735 15.8847 10.4436 16.1895C11.1698 16.4943 11.97 16.5771 12.7433 16.4275C13.5165 16.2779 14.2281 15.9026 14.7883 15.349L16.5623 17.123C15.6508 18.0245 14.4929 18.636 13.2345 18.8807C11.9761 19.1254 10.6735 18.9922 9.49061 18.4979C8.30777 18.0035 7.29766 17.1703 6.58752 16.1029C5.87739 15.0356 5.49898 13.782 5.49997 12.5001V10.5001H3.99997V12.5001C4.00036 14.4916 4.74365 16.4113 6.08448 17.8838C7.4253 19.3564 9.26721 20.2757 11.25 20.4622V23.5001H12.75V20.4622C14.5887 20.2888 16.3101 19.4821 17.62 18.1801L19.47 20.0301L20.53 18.9701L18.5865 17.0261ZM16 5.50007C16.0022 4.53004 15.651 3.59242 15.0121 2.86251C14.3732 2.13261 13.4903 1.6604 12.5285 1.53418C11.5668 1.40796 10.5919 1.63638 9.78633 2.17671C8.98073 2.71705 8.39952 3.53231 8.15137 4.47006L16 12.3185V5.50007Z" fill="black"/>
</svg>
