<svg width="24" height="24" viewBox="0 0 24 24" fill="none" xmlns="http://www.w3.org/2000/svg">
<path d="M20 3H4C3.46957 3 2.96086 3.21071 2.58579 3.58579C2.21071 3.96086 2 4.46957 2 5V14C2 14.5304 2.21071 15.0391 2.58579 15.4142C2.96086 15.7893 3.46957 16 4 16H20C20.5304 16 21.0391 15.7893 21.4142 15.4142C21.7893 15.0391 22 14.5304 22 14V5C22 4.46957 21.7893 3.96086 21.4142 3.58579C21.0391 3.21071 20.5304 3 20 3ZM15 17.757V17H9V17.757C8.99998 17.9427 8.94825 18.1248 8.8506 18.2827C8.75294 18.4407 8.61322 18.5684 8.4471 18.6514L7 19.375V21H17V19.375L15.5527 18.6514C15.3866 18.5683 15.2469 18.4407 15.1493 18.2827C15.0517 18.1247 15 17.9427 15 17.757Z" fill="black"/>
</svg>
