<svg width="24" height="24" viewBox="0 0 24 24" fill="none" xmlns="http://www.w3.org/2000/svg">
<path d="M18 10.5V4C18 3.46957 17.7893 2.96086 17.4142 2.58579C17.0391 2.21071 16.5304 2 16 2H8C7.46957 2 6.96086 2.21071 6.58579 2.58579C6.21071 2.96086 6 3.46957 6 4V10.5C6.00093 10.8593 6.09907 11.2117 6.28401 11.5198C6.46895 11.8279 6.73381 12.0802 7.0505 12.25C6.73381 12.4198 6.46895 12.6721 6.28401 12.9802C6.09907 13.2883 6.00093 13.6407 6 14V20C6 20.5304 6.21071 21.0391 6.58579 21.4142C6.96086 21.7893 7.46957 22 8 22H16C16.5304 22 17.0391 21.7893 17.4142 21.4142C17.7893 21.0391 18 20.5304 18 20V14C17.9991 13.6407 17.9011 13.2884 17.7162 12.9803C17.5314 12.6722 17.2666 12.4199 16.95 12.25C17.2666 12.0801 17.5314 11.8278 17.7162 11.5197C17.9011 11.2116 17.9991 10.8593 18 10.5ZM6.5 14C6.50045 13.6023 6.65863 13.221 6.93984 12.9398C7.22104 12.6586 7.60231 12.5005 8 12.5H9.8333V15.1667H6.5V14ZM10.3333 15.1667V12.5H13.6667V15.1667H10.3333ZM13.6667 15.6667V18.3333H10.3333V15.6667H13.6667ZM6.5 15.6667H9.8333V18.3333H6.5V15.6667ZM8 21.5C7.60231 21.4995 7.22104 21.3414 6.93984 21.0602C6.65863 20.779 6.50045 20.3977 6.5 20V18.8333H9.8333V21.5H8ZM10.3333 21.5V18.8333H13.6667V21.5H10.3333ZM17.5 20C17.4995 20.3977 17.3414 20.779 17.0602 21.0602C16.779 21.3414 16.3977 21.4995 16 21.5H14.1667V18.8333H17.5V20ZM17.5 18.3333H14.1667V15.6667H17.5V18.3333ZM17.5 14V15.1667H14.1667V12.5H16C16.3977 12.5005 16.779 12.6586 17.0602 12.9398C17.3414 13.221 17.4995 13.6023 17.5 14ZM16 12H8C7.60231 11.9995 7.22104 11.8414 6.93984 11.5602C6.65863 11.279 6.50045 10.8977 6.5 10.5V4C6.50045 3.60231 6.65863 3.22104 6.93984 2.93984C7.22104 2.65863 7.60231 2.50045 8 2.5H16C16.3977 2.50045 16.779 2.65863 17.0602 2.93984C17.3414 3.22104 17.4995 3.60231 17.5 4V10.5C17.4995 10.8977 17.3414 11.279 17.0602 11.5602C16.779 11.8414 16.3977 11.9995 16 12Z" fill="black"/>
</svg>
