<svg width="24" height="24" viewBox="0 0 24 24" fill="none" xmlns="http://www.w3.org/2000/svg">
<path d="M18 10.5V12.5C18 14.0913 17.3679 15.6174 16.2426 16.7426C15.1174 17.8679 13.5913 18.5 12 18.5C10.4087 18.5 8.88258 17.8679 7.75736 16.7426C6.63214 15.6174 6 14.0913 6 12.5V10.5H4V12.5C4.00077 14.4477 4.71236 16.3281 6.0012 17.7883C7.29004 19.2486 9.06751 20.1882 11 20.4309V23.5H13V20.4309C14.9325 20.1882 16.71 19.2486 17.9988 17.7883C19.2876 16.3281 19.9992 14.4477 20 12.5V10.5H18ZM12 16.5C13.0605 16.499 14.0774 16.0772 14.8273 15.3273C15.5772 14.5774 15.999 13.5605 16 12.5V5.5C16 4.43913 15.5786 3.42172 14.8284 2.67157C14.0783 1.92143 13.0609 1.5 12 1.5C10.9391 1.5 9.92172 1.92143 9.17157 2.67157C8.42143 3.42172 8 4.43913 8 5.5V12.5C8.00103 13.5605 8.42279 14.5774 9.17271 15.3273C9.92264 16.0772 10.9395 16.499 12 16.5Z" fill="black"/>
</svg>
