<svg width="24" height="24" viewBox="0 0 24 24" fill="none" xmlns="http://www.w3.org/2000/svg">
<path d="M16.5 3H14C14 2.46957 13.7893 1.96086 13.4142 1.58579C13.0391 1.21071 12.5304 1 12 1C11.4696 1 10.9609 1.21071 10.5858 1.58579C10.2107 1.96086 10 2.46957 10 3H7.5C6.83696 3 6.20107 3.26339 5.73223 3.73223C5.26339 4.20107 5 4.83696 5 5.5V20.5C5 21.163 5.26339 21.7989 5.73223 22.2678C6.20107 22.7366 6.83696 23 7.5 23H16.5C17.163 23 17.7989 22.7366 18.2678 22.2678C18.7366 21.7989 19 21.163 19 20.5V5.5C19 4.83696 18.7366 4.20107 18.2678 3.73223C17.7989 3.26339 17.163 3 16.5 3ZM12 1.5C12.3977 1.50045 12.779 1.65863 13.0602 1.93984C13.3414 2.22104 13.4995 2.60231 13.5 3H10.5C10.5005 2.60231 10.6586 2.22104 10.9398 1.93984C11.221 1.65863 11.6023 1.50045 12 1.5ZM18.5 20.5C18.4994 21.0302 18.2885 21.5386 17.9135 21.9135C17.5386 22.2885 17.0302 22.4994 16.5 22.5H7.5C6.96975 22.4994 6.4614 22.2885 6.08646 21.9135C5.71152 21.5386 5.50061 21.0302 5.5 20.5V5.5C5.50061 4.96975 5.71152 4.4614 6.08646 4.08646C6.4614 3.71152 6.96975 3.50061 7.5 3.5H16.5C17.0302 3.50061 17.5386 3.71152 17.9135 4.08646C18.2885 4.4614 18.4994 4.96975 18.5 5.5V20.5ZM12.25 6.5H11.75V8.75H9.5V9.25H11.75V11.5H12.25V9.25H14.5V8.75H12.25V6.5ZM9.5 17.25H14.5V16.75H9.5V17.25Z" fill="black"/>
</svg>
