<svg width="24" height="24" viewBox="0 0 24 24" fill="none" xmlns="http://www.w3.org/2000/svg">
<path d="M16.5 2H7.5C6.83696 2 6.20107 2.26339 5.73223 2.73223C5.26339 3.20107 5 3.83696 5 4.5V19.5C5 20.163 5.26339 20.7989 5.73223 21.2678C6.20107 21.7366 6.83696 22 7.5 22H16.5C17.163 22 17.7989 21.7366 18.2678 21.2678C18.7366 20.7989 19 20.163 19 19.5V4.5C19 3.83696 18.7366 3.20107 18.2678 2.73223C17.7989 2.26339 17.163 2 16.5 2ZM7.4 20C7.222 20 7.04799 19.9472 6.89999 19.8483C6.75198 19.7494 6.63663 19.6089 6.56851 19.4444C6.50039 19.28 6.48257 19.099 6.51729 18.9244C6.55202 18.7498 6.63774 18.5895 6.7636 18.4636C6.88947 18.3377 7.04984 18.252 7.22442 18.2173C7.399 18.1826 7.57996 18.2004 7.74442 18.2685C7.90887 18.3366 8.04943 18.452 8.14832 18.6C8.24722 18.748 8.3 18.922 8.3 19.1C8.3 19.3387 8.20518 19.5676 8.0364 19.7364C7.86761 19.9052 7.6387 20 7.4 20ZM7.4 16.9C7.222 16.9 7.04799 16.8472 6.89999 16.7483C6.75198 16.6494 6.63663 16.5089 6.56851 16.3444C6.50039 16.18 6.48257 15.999 6.51729 15.8244C6.55202 15.6498 6.63774 15.4895 6.7636 15.3636C6.88947 15.2377 7.04984 15.152 7.22442 15.1173C7.399 15.0826 7.57996 15.1004 7.74442 15.1685C7.90887 15.2366 8.04943 15.352 8.14832 15.5C8.24722 15.648 8.3 15.822 8.3 16C8.3 16.1182 8.27672 16.2352 8.23149 16.3444C8.18626 16.4536 8.11997 16.5528 8.0364 16.6364C7.95282 16.72 7.85361 16.7863 7.74442 16.8315C7.63522 16.8767 7.51819 16.9 7.4 16.9ZM7.4 13.8C7.222 13.8 7.04799 13.7472 6.89999 13.6483C6.75198 13.5494 6.63663 13.4089 6.56851 13.2444C6.50039 13.08 6.48257 12.899 6.51729 12.7244C6.55202 12.5498 6.63774 12.3895 6.7636 12.2636C6.88947 12.1377 7.04984 12.052 7.22442 12.0173C7.399 11.9826 7.57996 12.0004 7.74442 12.0685C7.90887 12.1366 8.04943 12.252 8.14832 12.4C8.24722 12.548 8.3 12.722 8.3 12.9C8.3 13.1387 8.20518 13.3676 8.0364 13.5364C7.86761 13.7052 7.6387 13.8 7.4 13.8ZM10.4667 20C10.2887 20 10.1147 19.9472 9.96669 19.8483C9.81868 19.7494 9.70333 19.6089 9.63521 19.4444C9.56709 19.28 9.54927 19.099 9.58399 18.9244C9.61872 18.7498 9.70444 18.5895 9.8303 18.4636C9.95617 18.3377 10.1165 18.252 10.2911 18.2173C10.4657 18.1826 10.6467 18.2004 10.8111 18.2685C10.9756 18.3366 11.1161 18.452 11.215 18.6C11.3139 18.748 11.3667 18.922 11.3667 19.1C11.3667 19.3387 11.2719 19.5676 11.1031 19.7364C10.9343 19.9052 10.7054 20 10.4667 20ZM10.4667 16.9C10.2887 16.9 10.1147 16.8472 9.96669 16.7483C9.81868 16.6494 9.70333 16.5089 9.63521 16.3444C9.56709 16.18 9.54927 15.999 9.58399 15.8244C9.61872 15.6498 9.70444 15.4895 9.8303 15.3636C9.95617 15.2377 10.1165 15.152 10.2911 15.1173C10.4657 15.0826 10.6467 15.1004 10.8111 15.1685C10.9756 15.2366 11.1161 15.352 11.215 15.5C11.3139 15.648 11.3667 15.822 11.3667 16C11.3667 16.1182 11.3434 16.2352 11.2982 16.3444C11.253 16.4536 11.1867 16.5528 11.1031 16.6364C11.0195 16.72 10.9203 16.7863 10.8111 16.8315C10.7019 16.8767 10.5849 16.9 10.4667 16.9ZM10.4667 13.8C10.2887 13.8 10.1147 13.7472 9.96669 13.6483C9.81868 13.5494 9.70333 13.4089 9.63521 13.2444C9.56709 13.08 9.54927 12.899 9.58399 12.7244C9.61872 12.5498 9.70444 12.3895 9.8303 12.2636C9.95617 12.1377 10.1165 12.052 10.2911 12.0173C10.4657 11.9826 10.6467 12.0004 10.8111 12.0685C10.9756 12.1366 11.1161 12.252 11.215 12.4C11.3139 12.548 11.3667 12.722 11.3667 12.9C11.3667 13.1387 11.2719 13.3676 11.1031 13.5364C10.9343 13.7052 10.7054 13.8 10.4667 13.8ZM13.5333 20C13.3553 20 13.1813 19.9472 13.0333 19.8483C12.8853 19.7494 12.7699 19.6089 12.7018 19.4444C12.6337 19.28 12.6159 19.099 12.6506 18.9244C12.6853 18.7498 12.771 18.5895 12.8969 18.4636C13.0228 18.3377 13.1831 18.252 13.3577 18.2173C13.5323 18.1826 13.7133 18.2004 13.8777 18.2685C14.0422 18.3366 14.1827 18.452 14.2816 18.6C14.3805 18.748 14.4333 18.922 14.4333 19.1C14.4333 19.3387 14.3385 19.5676 14.1697 19.7364C14.0009 19.9052 13.772 20 13.5333 20ZM13.5333 16.9C13.3553 16.9 13.1813 16.8472 13.0333 16.7483C12.8853 16.6494 12.7699 16.5089 12.7018 16.3444C12.6337 16.18 12.6159 15.999 12.6506 15.8244C12.6853 15.6498 12.771 15.4895 12.8969 15.3636C13.0228 15.2377 13.1831 15.152 13.3577 15.1173C13.5323 15.0826 13.7133 15.1004 13.8777 15.1685C14.0422 15.2366 14.1827 15.352 14.2816 15.5C14.3805 15.648 14.4333 15.822 14.4333 16C14.4333 16.1182 14.41 16.2352 14.3648 16.3444C14.3196 16.4536 14.2533 16.5528 14.1697 16.6364C14.0861 16.72 13.9869 16.7863 13.8777 16.8315C13.7685 16.8767 13.6515 16.9 13.5333 16.9ZM13.5333 13.8C13.3553 13.8 13.1813 13.7472 13.0333 13.6483C12.8853 13.5494 12.7699 13.4089 12.7018 13.2444C12.6337 13.08 12.6159 12.899 12.6506 12.7244C12.6853 12.5498 12.771 12.3895 12.8969 12.2636C13.0228 12.1377 13.1831 12.052 13.3577 12.0173C13.5323 11.9826 13.7133 12.0004 13.8777 12.0685C14.0422 12.1366 14.1827 12.252 14.2816 12.4C14.3805 12.548 14.4333 12.722 14.4333 12.9C14.4333 13.0182 14.41 13.1352 14.3648 13.2444C14.3196 13.3536 14.2533 13.4528 14.1697 13.5364C14.0861 13.62 13.9869 13.6863 13.8777 13.7315C13.7685 13.7767 13.6515 13.8 13.5333 13.8ZM16.6 20C16.422 20 16.248 19.9472 16.1 19.8483C15.952 19.7494 15.8366 19.6089 15.7685 19.4444C15.7004 19.28 15.6826 19.099 15.7173 18.9244C15.752 18.7498 15.8377 18.5895 15.9636 18.4636C16.0895 18.3377 16.2498 18.252 16.4244 18.2173C16.599 18.1826 16.78 18.2004 16.9444 18.2685C17.1089 18.3366 17.2494 18.452 17.3483 18.6C17.4472 18.748 17.5 18.922 17.5 19.1C17.5 19.3387 17.4052 19.5676 17.2364 19.7364C17.0676 19.9052 16.8387 20 16.6 20ZM16.6 16.9C16.422 16.9 16.248 16.8472 16.1 16.7483C15.952 16.6494 15.8366 16.5089 15.7685 16.3444C15.7004 16.18 15.6826 15.999 15.7173 15.8244C15.752 15.6498 15.8377 15.4895 15.9636 15.3636C16.0895 15.2377 16.2498 15.152 16.4244 15.1173C16.599 15.0826 16.78 15.1004 16.9444 15.1685C17.1089 15.2366 17.2494 15.352 17.3483 15.5C17.4472 15.648 17.5 15.822 17.5 16C17.5 16.1182 17.4767 16.2352 17.4315 16.3444C17.3863 16.4536 17.32 16.5528 17.2364 16.6364C17.1528 16.72 17.0536 16.7863 16.9444 16.8315C16.8352 16.8767 16.7182 16.9 16.6 16.9ZM16.6 13.8C16.422 13.8 16.248 13.7472 16.1 13.6483C15.952 13.5494 15.8366 13.4089 15.7685 13.2444C15.7004 13.08 15.6826 12.899 15.7173 12.7244C15.752 12.5498 15.8377 12.3895 15.9636 12.2636C16.0895 12.1377 16.2498 12.052 16.4244 12.0173C16.599 11.9826 16.78 12.0004 16.9444 12.0685C17.1089 12.1366 17.2494 12.252 17.3483 12.4C17.4472 12.548 17.5 12.722 17.5 12.9C17.5 13.1387 17.4052 13.3676 17.2364 13.5364C17.0676 13.7052 16.8387 13.8 16.6 13.8ZM18.5 10H5.5V5H18.5V10Z" fill="black"/>
</svg>
