<svg width="24" height="24" viewBox="0 0 24 24" fill="none" xmlns="http://www.w3.org/2000/svg">
<path d="M19.5 5H4.5C3.83696 5 3.20107 5.26339 2.73223 5.73223C2.26339 6.20107 2 6.83696 2 7.5V16.5C2 17.163 2.26339 17.7989 2.73223 18.2678C3.20107 18.7366 3.83696 19 4.5 19H19.5C20.163 19 20.7989 18.7366 21.2678 18.2678C21.7366 17.7989 22 17.163 22 16.5V7.5C22 6.83696 21.7366 6.20107 21.2678 5.73223C20.7989 5.26339 20.163 5 19.5 5ZM20.5 16.5C20.4997 16.7651 20.3943 17.0193 20.2068 17.2068C20.0193 17.3943 19.7651 17.4997 19.5 17.5H4.5C4.23487 17.4997 3.98069 17.3943 3.79321 17.2068C3.60574 17.0193 3.50029 16.7651 3.5 16.5V7.5C3.50029 7.23487 3.60574 6.98069 3.79321 6.79321C3.98069 6.60574 4.23487 6.50029 4.5 6.5H19.5C19.7651 6.50029 20.0193 6.60574 20.2068 6.79321C20.3943 6.98069 20.4997 7.23487 20.5 7.5V16.5ZM14 10C14 9.46957 13.7893 8.96086 13.4142 8.58579C13.0391 8.21071 12.5304 8 12 8C11.4696 8 10.9609 8.21071 10.5858 8.58579C10.2107 8.96086 10 9.46957 10 10V11H9V15H15V11H14V10ZM11.1 10C11.1 9.76131 11.1948 9.53239 11.3636 9.3636C11.5324 9.19482 11.7613 9.1 12 9.1C12.2387 9.1 12.4676 9.19482 12.6364 9.3636C12.8052 9.53239 12.9 9.76131 12.9 10V11H11.1V10ZM13.8 13.8H10.2V12.2549H13.8V13.8Z" fill="black"/>
</svg>
