<svg width="24" height="24" viewBox="0 0 24 24" fill="none" xmlns="http://www.w3.org/2000/svg">
<path d="M17 7V2C17 1.73478 16.8946 1.48043 16.7071 1.29289C16.5196 1.10536 16.2652 1 16 1C15.7348 1 15.4804 1.10536 15.2929 1.29289C15.1054 1.48043 15 1.73478 15 2V7H9V2C9 1.73478 8.89464 1.48043 8.70711 1.29289C8.51957 1.10536 8.26522 1 8 1C7.73478 1 7.48043 1.10536 7.29289 1.29289C7.10536 1.48043 7 1.73478 7 2V7H4V11.2237C4.00002 12.7031 4.46874 14.1445 5.3389 15.3409L6.802 17.3527C7.17309 17.8629 7.6596 18.2782 8.22182 18.5645C8.78403 18.8507 9.40599 19 10.0369 19H11V23H13V19H13.9631C14.594 19 15.216 18.8507 15.7782 18.5645C16.3404 18.2782 16.8269 17.8629 17.198 17.3527L18.6611 15.3409C19.5313 14.1445 20 12.7031 20 11.2237V7H17ZM18 11.2237C18.0021 12.2808 17.6671 13.3109 17.0437 14.1646L15.5806 16.1763C15.3947 16.4311 15.1514 16.6384 14.8703 16.7815C14.5893 16.9246 14.2785 16.9995 13.9631 17H10.0369C9.72152 16.9995 9.41071 16.9246 9.12967 16.7815C8.84864 16.6384 8.6053 16.4311 8.4194 16.1763L6.9563 14.1646C6.3329 13.3109 5.99791 12.2808 6 11.2237V9H18V11.2237Z" fill="black"/>
</svg>
