<svg width="24" height="24" viewBox="0 0 24 24" fill="none" xmlns="http://www.w3.org/2000/svg">
<path d="M22 10C22 9.20435 21.6839 8.44129 21.1213 7.87868C20.5587 7.31607 19.7956 7 19 7H18V3H6V7H5C4.20435 7 3.44129 7.31607 2.87868 7.87868C2.31607 8.44129 2 9.20435 2 10V19H6V21H18V19H22V10ZM7 4H17V7H7V4ZM4.75 11C4.75 10.8517 4.79399 10.7067 4.8764 10.5833C4.95881 10.46 5.07594 10.3639 5.21299 10.3071C5.35003 10.2503 5.50083 10.2355 5.64632 10.2644C5.7918 10.2933 5.92544 10.3648 6.03033 10.4697C6.13522 10.5746 6.20665 10.7082 6.23559 10.8537C6.26453 10.9992 6.24968 11.15 6.19291 11.287C6.13614 11.4241 6.04001 11.5412 5.91668 11.6236C5.79334 11.706 5.64834 11.75 5.5 11.75C5.30109 11.75 5.11032 11.671 4.96967 11.5303C4.82902 11.3897 4.75 11.1989 4.75 11ZM17 20H7V15H17V20Z" fill="black"/>
</svg>
