<svg width="24" height="24" viewBox="0 0 24 24" fill="none" xmlns="http://www.w3.org/2000/svg">
<path d="M18.3125 3H5.68746C4.23999 4.01264 3.05811 5.35947 2.2421 6.92624C1.42608 8.493 1 10.2335 1 12C1 13.7665 1.42608 15.507 2.2421 17.0738C3.05811 18.6405 4.23999 19.9874 5.68746 21H18.3125C19.76 19.9874 20.9419 18.6405 21.7579 17.0738C22.5739 15.507 23 13.7665 23 12C23 10.2335 22.5739 8.49298 21.7579 6.92622C20.9419 5.35945 19.76 4.01263 18.3125 3ZM18.1525 20.5H5.84766C4.50178 19.5286 3.40581 18.2514 2.64995 16.7737C1.89408 15.296 1.49993 13.6598 1.49993 12C1.49993 10.3402 1.89408 8.70405 2.64995 7.2263C3.40581 5.74856 4.50178 4.47142 5.84766 3.5H18.1523C19.4981 4.47142 20.5941 5.74856 21.35 7.2263C22.1058 8.70405 22.5 10.3402 22.5 12C22.5 13.6598 22.1058 15.296 21.35 16.7737C20.5941 18.2514 19.4981 19.5286 18.1523 20.5H18.1525ZM15.75 12H16.25V8.5H15.75V12ZM7.74996 12.75H8.24996V7.75H7.74996V12.75ZM12 15C11.4695 15 10.9608 15.2107 10.5857 15.5858C10.2107 15.9609 9.99996 16.4696 9.99996 17H14C14 16.4696 13.7892 15.9609 13.4142 15.5858C13.0391 15.2107 12.5304 15 12 15ZM10.5857 16.5C10.689 16.2075 10.8805 15.9542 11.1338 15.7751C11.3871 15.5959 11.6897 15.4998 12 15.4998C12.3102 15.4998 12.6128 15.5959 12.8661 15.7751C13.1194 15.9542 13.3109 16.2075 13.4143 16.5H10.5857Z" fill="black"/>
</svg>
