<svg width="24" height="24" viewBox="0 0 24 24" fill="none" xmlns="http://www.w3.org/2000/svg">
<g clip-path="url(#clip0)">
<path d="M5 19H13V18.5H5V19ZM5 11.3333H13V10.8333H5V11.3333ZM5 15.1666H13V14.6666H5V15.1666ZM13.5 3H11C11 2.46957 10.7893 1.96086 10.4142 1.58579C10.0391 1.21071 9.53043 1 9 1C8.46957 1 7.96086 1.21071 7.58579 1.58579C7.21071 1.96086 7 2.46957 7 3H4.5C3.83696 3 3.20107 3.26339 2.73223 3.73223C2.26339 4.20107 2 4.83696 2 5.5V20.5C2 21.163 2.26339 21.7989 2.73223 22.2678C3.20107 22.7366 3.83696 23 4.5 23H13.5C14.163 23 14.7989 22.7366 15.2678 22.2678C15.7366 21.7989 16 21.163 16 20.5V5.5C16 4.83696 15.7366 4.20107 15.2678 3.73223C14.7989 3.26339 14.163 3 13.5 3ZM9 1.5C9.39769 1.50045 9.77896 1.65863 10.0602 1.93984C10.3414 2.22104 10.4995 2.60231 10.5 3H7.5C7.50045 2.60231 7.65863 2.22104 7.93984 1.93984C8.22104 1.65863 8.60231 1.50045 9 1.5ZM15.5 20.5C15.4994 21.0302 15.2885 21.5386 14.9135 21.9135C14.5386 22.2885 14.0302 22.4994 13.5 22.5H4.5C3.96975 22.4994 3.4614 22.2885 3.08646 21.9135C2.71152 21.5386 2.50061 21.0302 2.5 20.5V5.5C2.50061 4.96975 2.71152 4.4614 3.08646 4.08646C3.4614 3.71152 3.96975 3.50061 4.5 3.5H13.5C14.0302 3.50061 14.5386 3.71152 14.9135 4.08646C15.2885 4.4614 15.4994 4.96975 15.5 5.5V20.5ZM21.1628 4.0833V1.1717H20.3628L17.6355 6.5833H20.5039V9.4949H21.3039L24.0311 4.0833H21.1628ZM21.0039 8.9793V6.0833H18.4473L20.6628 1.6873V4.5833H23.2192L21.0039 8.9793Z" fill="black"/>
</g>
<defs>
<clipPath id="clip0">
<rect width="24" height="24" fill="white"/>
</clipPath>
</defs>
</svg>
