<svg width="24" height="24" viewBox="0 0 24 24" fill="none" xmlns="http://www.w3.org/2000/svg">
<path d="M9 16.0001C10.0605 15.9991 11.0774 15.5773 11.8273 14.8274C12.5772 14.0775 12.999 13.0607 13 12.0001V5.00011C13 3.93924 12.5786 2.92183 11.8284 2.17168C11.0783 1.42153 10.0609 1.00011 9 1.00011C7.93913 1.00011 6.92172 1.42153 6.17157 2.17168C5.42143 2.92183 5 3.93924 5 5.00011V12.0001C5.00103 13.0607 5.42279 14.0775 6.17271 14.8274C6.92264 15.5773 7.93945 15.9991 9 16.0001ZM5.5 5.00011C5.5 4.07185 5.86875 3.18161 6.52513 2.52523C7.1815 1.86886 8.07174 1.50011 9 1.50011C9.92826 1.50011 10.8185 1.86886 11.4749 2.52523C12.1313 3.18161 12.5 4.07185 12.5 5.00011V12.0001C12.5 12.9284 12.1313 13.8186 11.4749 14.475C10.8185 15.1314 9.92826 15.5001 9 15.5001C8.07174 15.5001 7.1815 15.1314 6.52513 14.475C5.86875 13.8186 5.5 12.9284 5.5 12.0001V5.00011ZM16.5 12.0001C16.5 13.9892 15.7098 15.8969 14.3033 17.3034C12.8968 18.7099 10.9891 19.5001 9 19.5001C7.01088 19.5001 5.10322 18.7099 3.6967 17.3034C2.29018 15.8969 1.5 13.9892 1.5 12.0001V10.0001H1V12.0001C1.00085 14.0775 1.81029 16.0729 3.25688 17.5638C4.70348 19.0547 6.67361 19.924 8.75 19.9875V23.0001H9.25V19.9875C11.3264 19.924 13.2965 19.0547 14.7431 17.5638C16.1897 16.0729 16.9992 14.0775 17 12.0001V10.0001H16.5V12.0001ZM21.6592 4.61831L22.812 3.80571C22.6427 3.24146 22.3442 2.72445 21.9402 2.29571L20.6602 2.88771L19.9988 2.50581L19.8715 1.10131C19.2983 0.965906 18.7015 0.965906 18.1283 1.10131L18.001 2.50571L17.3396 2.88751L16.0596 2.29551C15.6557 2.72428 15.3573 3.24129 15.1881 3.80551L16.3407 4.61791V5.38161L15.1879 6.19411C15.3572 6.75837 15.6557 7.27539 16.0597 7.70411L17.3397 7.11211L18.001 7.49391L18.1284 8.89851C18.7016 9.03391 19.2984 9.03391 19.8716 8.89851L19.9989 7.49401L20.66 7.11211L21.94 7.70411C22.3439 7.27535 22.6423 6.75834 22.8115 6.19411L21.6589 5.38161L21.6592 4.61831ZM22.2733 6.36541C22.1602 6.64803 22.0073 6.91302 21.8191 7.15231L20.8491 6.70371L20.6373 6.60571L20.4352 6.72241L19.7738 7.10421L19.5717 7.22091L19.5506 7.45331L19.4542 8.51751C19.1529 8.56077 18.8469 8.56077 18.5456 8.51751L18.4491 7.45321L18.4281 7.22081L18.226 7.10411L17.5647 6.72231L17.3625 6.60561L17.1507 6.70361L16.1807 7.15211C15.9924 6.91288 15.8394 6.64788 15.7263 6.36521L16.6 5.75011L16.7907 5.61561V4.38561L16.6 4.25011L15.7266 3.63461C15.8397 3.35195 15.9927 3.08696 16.1809 2.84771L17.1509 3.29631L17.3627 3.39421L17.5648 3.27751L18.2262 2.89571L18.4283 2.77901L18.4494 2.54661L18.5458 1.48241C18.8471 1.43921 19.1531 1.43921 19.4544 1.48241L19.5508 2.54661L19.5719 2.77901L19.774 2.89571L20.4354 3.27761L20.6376 3.39431L20.8493 3.29631L21.8193 2.84771C22.0075 3.08695 22.1605 3.35191 22.2737 3.63451L21.4 4.25011L21.2093 4.38451V5.61451L21.4 5.75011L22.2733 6.36541ZM19 3.81581C18.7658 3.81581 18.5368 3.88526 18.342 4.0154C18.1473 4.14553 17.9955 4.33049 17.9058 4.5469C17.8162 4.7633 17.7928 5.00142 17.8385 5.23115C17.8842 5.46088 17.9969 5.67191 18.1626 5.83753C18.3282 6.00316 18.5392 6.11595 18.769 6.16165C18.9987 6.20735 19.2368 6.18389 19.4532 6.09426C19.6696 6.00462 19.8546 5.85283 19.9847 5.65807C20.1148 5.46331 20.1843 5.23434 20.1843 5.00011C20.1843 4.68601 20.0595 4.38478 19.8374 4.16268C19.6153 3.94058 19.3141 3.81581 19 3.81581ZM19 5.73441C18.8548 5.73441 18.7128 5.69134 18.592 5.61065C18.4713 5.52997 18.3772 5.41529 18.3216 5.28111C18.266 5.14694 18.2515 4.99929 18.2798 4.85685C18.3081 4.71441 18.3781 4.58357 18.4808 4.48088C18.5835 4.37818 18.7143 4.30825 18.8567 4.27992C18.9992 4.25158 19.1468 4.26612 19.281 4.3217C19.4152 4.37728 19.5299 4.4714 19.6105 4.59215C19.6912 4.71291 19.7343 4.85488 19.7343 5.00011C19.7341 5.19479 19.6567 5.38144 19.519 5.5191C19.3813 5.65676 19.1947 5.7342 19 5.73441Z" fill="black"/>
</svg>
