<svg width="24" height="24" viewBox="0 0 24 24" fill="none" xmlns="http://www.w3.org/2000/svg">
<path d="M12 8.0875C11.8462 8.0875 11.6958 8.13312 11.5679 8.21859C11.44 8.30406 11.3403 8.42554 11.2814 8.56767C11.2225 8.7098 11.2071 8.8662 11.2372 9.01708C11.2672 9.16796 11.3413 9.30655 11.45 9.41532C11.5588 9.5241 11.6974 9.59817 11.8483 9.62817C11.9992 9.65817 12.1556 9.64275 12.2977 9.58387C12.4398 9.52498 12.5613 9.42527 12.6468 9.29735C12.7322 9.16943 12.7778 9.01904 12.7778 8.8652C12.7776 8.65899 12.6956 8.46129 12.5497 8.31548C12.4039 8.16968 12.2062 8.08769 12 8.0875ZM3 3V21H21V3H3ZM7.2056 16.35C6.9386 16.35 6.6776 16.2708 6.45561 16.1224C6.23361 15.9741 6.0606 15.7632 5.95843 15.5166C5.85627 15.2699 5.82955 14.9984 5.88165 14.7366C5.93375 14.4747 6.06234 14.2342 6.25114 14.0454C6.43995 13.8566 6.68049 13.728 6.94236 13.6759C7.20424 13.6239 7.47567 13.6506 7.72235 13.7528C7.96902 13.855 8.17986 14.028 8.32819 14.25C8.47653 14.472 8.5557 14.733 8.5557 15C8.5557 15.1773 8.52078 15.3528 8.45293 15.5166C8.38508 15.6804 8.28563 15.8293 8.16026 15.9546C8.03489 16.08 7.88605 16.1794 7.72225 16.2473C7.55845 16.3151 7.38289 16.35 7.2056 16.35ZM12 11.143C11.5495 11.143 11.1091 11.0094 10.7345 10.7591C10.3599 10.5088 10.068 10.1531 9.89559 9.73688C9.72319 9.32066 9.67808 8.86267 9.76597 8.42082C9.85386 7.97897 10.0708 7.57311 10.3894 7.25455C10.7079 6.936 11.1138 6.71906 11.5556 6.63117C11.9975 6.54328 12.4555 6.58839 12.8717 6.76079C13.2879 6.93319 13.6436 7.22514 13.8939 7.59972C14.1442 7.9743 14.2778 8.41469 14.2778 8.8652C14.2778 9.16433 14.2189 9.46053 14.1044 9.73689C13.99 10.0133 13.8222 10.2644 13.6107 10.4759C13.3992 10.6874 13.1481 10.8552 12.8717 10.9696C12.5953 11.0841 12.2991 11.143 12 11.143ZM16.7944 16.35C16.5274 16.35 16.2664 16.2708 16.0444 16.1225C15.8224 15.9741 15.6493 15.7633 15.5472 15.5166C15.445 15.2699 15.4183 14.9985 15.4703 14.7366C15.5224 14.4748 15.651 14.2342 15.8398 14.0454C16.0286 13.8566 16.2692 13.728 16.531 13.6759C16.7929 13.6238 17.0643 13.6506 17.311 13.7528C17.5577 13.8549 17.7685 14.028 17.9169 14.25C18.0652 14.472 18.1444 14.733 18.1444 15C18.1444 15.358 18.0022 15.7014 17.749 15.9546C17.4958 16.2078 17.1524 16.35 16.7944 16.35Z" fill="black"/>
</svg>
