<svg width="24" height="24" viewBox="0 0 24 24" fill="none" xmlns="http://www.w3.org/2000/svg">
<path d="M18.9641 5H5.03588L0.571777 12L5.03588 19H18.9641L23.4282 12L18.9641 5ZM18.69 18.5H5.30998L1.16478 12L5.30998 5.5H18.69L22.8352 12L18.69 18.5ZM17.6446 10.5C17.3479 10.5 17.0579 10.588 16.8112 10.7528C16.5645 10.9176 16.3723 11.1519 16.2588 11.426C16.1452 11.7001 16.1155 12.0017 16.1734 12.2926C16.2313 12.5836 16.3741 12.8509 16.5839 13.0607C16.7937 13.2704 17.061 13.4133 17.3519 13.4712C17.6429 13.5291 17.9445 13.4994 18.2186 13.3858C18.4927 13.2723 18.727 13.08 18.8918 12.8334C19.0566 12.5867 19.1446 12.2967 19.1446 12C19.1446 11.803 19.1058 11.6079 19.0304 11.426C18.955 11.244 18.8445 11.0786 18.7052 10.9393C18.5659 10.8 18.4005 10.6895 18.2185 10.6142C18.0365 10.5388 17.8415 10.5 17.6445 10.5H17.6446ZM17.6446 13C17.4468 13 17.2535 12.9414 17.089 12.8315C16.9246 12.7216 16.7964 12.5654 16.7207 12.3827C16.645 12.2 16.6252 11.9989 16.6638 11.8049C16.7024 11.6109 16.7976 11.4327 16.9375 11.2929C17.0773 11.153 17.2555 11.0578 17.4495 11.0192C17.6435 10.9806 17.8445 11.0004 18.0273 11.0761C18.21 11.1518 18.3662 11.28 18.476 11.4444C18.5859 11.6089 18.6446 11.8022 18.6446 12C18.6443 12.2651 18.5388 12.5193 18.3513 12.7068C18.1638 12.8943 17.9096 12.9997 17.6445 13H17.6446ZM12 13.9767C11.7033 13.9767 11.4133 14.0647 11.1666 14.2295C10.9199 14.3943 10.7277 14.6286 10.6142 14.9027C10.5006 15.1768 10.4709 15.4784 10.5288 15.7693C10.5867 16.0603 10.7295 16.3276 10.9393 16.5374C11.1491 16.7471 11.4164 16.89 11.7073 16.9479C11.9983 17.0058 12.2999 16.9761 12.574 16.8625C12.8481 16.749 13.0824 16.5567 13.2472 16.3101C13.412 16.0634 13.5 15.7734 13.5 15.4767C13.5 15.0789 13.3419 14.6973 13.0606 14.416C12.7793 14.1347 12.3978 13.9767 12 13.9767ZM12 16.4767C11.8022 16.4767 11.6089 16.4181 11.4444 16.3082C11.28 16.1983 11.1518 16.0421 11.0761 15.8594C11.0004 15.6767 10.9806 15.4756 11.0192 15.2816C11.0578 15.0876 11.153 14.9094 11.2929 14.7696C11.4327 14.6297 11.6109 14.5345 11.8049 14.4959C11.9989 14.4573 12.1999 14.4771 12.3827 14.5528C12.5654 14.6285 12.7216 14.7567 12.8314 14.9211C12.9413 15.0856 13 15.2789 13 15.4767C12.9997 15.7418 12.8942 15.996 12.7068 16.1835C12.5193 16.371 12.2651 16.4764 12 16.4767ZM6.35548 10.5C6.05881 10.5 5.7688 10.588 5.52212 10.7528C5.27545 10.9176 5.08319 11.1519 4.96966 11.426C4.85613 11.7001 4.82642 12.0017 4.8843 12.2926C4.94218 12.5836 5.08504 12.8509 5.29482 13.0607C5.5046 13.2704 5.77187 13.4133 6.06284 13.4712C6.35381 13.5291 6.65541 13.4994 6.9295 13.3858C7.20359 13.2723 7.43786 13.08 7.60268 12.8334C7.7675 12.5867 7.85548 12.2967 7.85548 12C7.85548 11.6022 7.69744 11.2206 7.41614 10.9393C7.13483 10.658 6.7533 10.5 6.35548 10.5ZM6.35548 13C6.1577 13 5.96436 12.9414 5.79991 12.8315C5.63546 12.7216 5.50729 12.5654 5.4316 12.3827C5.35591 12.2 5.33611 11.9989 5.37469 11.8049C5.41328 11.6109 5.50852 11.4327 5.64837 11.2929C5.78822 11.153 5.96641 11.0578 6.16039 11.0192C6.35437 10.9806 6.55544 11.0004 6.73816 11.0761C6.92089 11.1518 7.07707 11.28 7.18695 11.4444C7.29683 11.6089 7.35548 11.8022 7.35548 12C7.35519 12.2651 7.24974 12.5193 7.06226 12.7068C6.87479 12.8943 6.6206 12.9997 6.35548 13Z" fill="black"/>
</svg>
