<svg width="24" height="24" viewBox="0 0 24 24" fill="none" xmlns="http://www.w3.org/2000/svg">
<path d="M16 3H14C14 2.46957 13.7893 1.96086 13.4142 1.58579C13.0391 1.21071 12.5304 1 12 1C11.4696 1 10.9609 1.21071 10.5858 1.58579C10.2107 1.96086 10 2.46957 10 3H8C7.20435 3 6.44129 3.31607 5.87868 3.87868C5.31607 4.44129 5 5.20435 5 6V20C5 20.7956 5.31607 21.5587 5.87868 22.1213C6.44129 22.6839 7.20435 23 8 23H16C16.7956 23 17.5587 22.6839 18.1213 22.1213C18.6839 21.5587 19 20.7956 19 20V6C19 5.20435 18.6839 4.44129 18.1213 3.87868C17.5587 3.31607 16.7956 3 16 3ZM11.7544 18.152C11.6193 18.152 11.4871 18.1119 11.3748 18.0368C11.2624 17.9618 11.1748 17.855 11.1231 17.7302C11.0714 17.6053 11.0579 17.4679 11.0842 17.3354C11.1106 17.2028 11.1757 17.0811 11.2713 16.9855C11.3668 16.8899 11.4886 16.8249 11.6212 16.7985C11.7537 16.7722 11.8911 16.7857 12.016 16.8374C12.1408 16.8892 12.2475 16.9768 12.3226 17.0892C12.3977 17.2015 12.4377 17.3337 12.4377 17.4688C12.4377 17.65 12.3657 17.8238 12.2375 17.9519C12.1094 18.08 11.9356 18.152 11.7544 18.152ZM13.5205 13.2539C13.1338 13.4219 12.8054 13.7004 12.5766 14.0545C12.3478 14.4085 12.2287 14.8224 12.2344 15.2439H11.2676C11.2608 14.664 11.4182 14.094 11.7217 13.5998C12.0251 13.1056 12.4622 12.7073 12.9824 12.451C13.6855 11.9793 14.083 11.6746 14.083 10.906C14.0285 10.408 13.7824 9.9508 13.3967 9.63112C13.011 9.31143 12.516 9.15438 12.0166 9.1932C10.7451 9.1932 9.9854 10.0932 9.9854 11.6014H9.0186C9.0186 9.1102 10.6338 8.2264 12.0166 8.2264C12.392 8.20205 12.7685 8.25216 13.1244 8.37386C13.4804 8.49555 13.8087 8.68643 14.0906 8.9355C14.3725 9.18458 14.6024 9.48693 14.767 9.82518C14.9316 10.1634 15.0277 10.5309 15.0498 10.9064C15.0356 11.4005 14.8853 11.8812 14.6155 12.2954C14.3457 12.7096 13.9668 13.0413 13.5205 13.2539Z" fill="black"/>
</svg>
