<svg width="24" height="24" viewBox="0 0 24 24" fill="none" xmlns="http://www.w3.org/2000/svg">
<path d="M19.5 4H4.5C3.83696 4 3.20107 4.26339 2.73223 4.73223C2.26339 5.20107 2 5.83696 2 6.5V17.5C2 18.163 2.26339 18.7989 2.73223 19.2678C3.20107 19.7366 3.83696 20 4.5 20H19.5C20.163 20 20.7989 19.7366 21.2678 19.2678C21.7366 18.7989 22 18.163 22 17.5V6.5C22 5.83696 21.7366 5.20107 21.2678 4.73223C20.7989 4.26339 20.163 4 19.5 4ZM4.95 12.95C4.76211 12.95 4.57843 12.8943 4.42221 12.7899C4.26598 12.6855 4.14422 12.5371 4.07231 12.3635C4.00041 12.19 3.9816 11.9989 4.01825 11.8147C4.05491 11.6304 4.14539 11.4611 4.27825 11.3282C4.41111 11.1954 4.58038 11.1049 4.76466 11.0683C4.94895 11.0316 5.13996 11.0504 5.31355 11.1223C5.48714 11.1942 5.63551 11.316 5.7399 11.4722C5.84428 11.6284 5.9 11.8121 5.9 12C5.9 12.252 5.79991 12.4936 5.62175 12.6718C5.44359 12.8499 5.20196 12.95 4.95 12.95Z" fill="black"/>
</svg>
