<svg width="24" height="24" viewBox="0 0 24 24" fill="none" xmlns="http://www.w3.org/2000/svg">
<path d="M18.7287 16.8145C19.5595 15.5289 20.0009 14.0306 20 12.4999V10.4999H18V12.4999C18.0013 13.4991 17.7515 14.4825 17.2736 15.3599L4.70697 2.79292L3.29297 4.20692L7.99997 8.91402V12.4999C8.001 13.5605 8.42276 14.5773 9.17268 15.3272C9.9226 16.0771 10.9394 16.4989 12 16.4999C12.9575 16.4981 13.8815 16.1471 14.5988 15.5127L16.0237 16.9377C15.1648 17.7201 14.097 18.2358 12.9502 18.422C11.8035 18.6083 10.6273 18.457 9.56503 17.9867C8.50272 17.5164 7.60011 16.7473 6.96712 15.7731C6.33414 14.7989 5.99811 13.6617 5.99997 12.4999V10.4999H3.99997V12.4999C4.00074 14.4476 4.71233 16.328 6.00117 17.7882C7.29001 19.2485 9.06748 20.1881 11 20.4308V23.4999H13V20.4308C14.6616 20.2223 16.2155 19.4963 17.4416 18.3556L19.293 20.2069L20.707 18.7929L18.7287 16.8145ZM16 5.49992C16.0027 4.60064 15.7014 3.72683 15.1449 3.02036C14.5885 2.31389 13.8096 1.81624 12.9347 1.60819C12.0598 1.40014 11.1402 1.49391 10.3254 1.87428C9.51046 2.25465 8.84806 2.89928 8.44567 3.70352L16 11.2577V5.49992Z" fill="black"/>
</svg>
