<svg width="24" height="24" viewBox="0 0 24 24" fill="none" xmlns="http://www.w3.org/2000/svg">
<path d="M19 5H13.0791L15.2554 2H14.0193L12 4.7842L9.9807 2H8.7446L10.9209 5H5C4.20435 5 3.44129 5.31607 2.87868 5.87868C2.31607 6.44129 2 7.20435 2 8V18C2 18.7956 2.31607 19.5587 2.87868 20.1213C3.44129 20.6839 4.20435 21 5 21H19C19.7956 21 20.5587 20.6839 21.1213 20.1213C21.6839 19.5587 22 18.7956 22 18V8C22 7.20435 21.6839 6.44129 21.1213 5.87868C20.5587 5.31607 19.7956 5 19 5ZM21 18C21 18.5304 20.7893 19.0391 20.4142 19.4142C20.0391 19.7893 19.5304 20 19 20H5C4.46957 20 3.96086 19.7893 3.58579 19.4142C3.21071 19.0391 3 18.5304 3 18V8C3 7.46957 3.21071 6.96086 3.58579 6.58579C3.96086 6.21071 4.46957 6 5 6H19C19.5304 6 20.0391 6.21071 20.4142 6.58579C20.7893 6.96086 21 7.46957 21 8V18ZM5 18H16V8H5V18ZM6 9H15V17H6V9ZM18.5 8C18.2429 8 17.9915 8.07624 17.7778 8.21909C17.564 8.36194 17.3974 8.56497 17.299 8.80251C17.2006 9.04006 17.1748 9.30144 17.225 9.55362C17.2751 9.80579 17.399 10.0374 17.5808 10.2192C17.7626 10.401 17.9942 10.5249 18.2464 10.575C18.4986 10.6252 18.7599 10.5994 18.9975 10.501C19.235 10.4026 19.4381 10.236 19.5809 10.0222C19.7238 9.80846 19.8 9.55712 19.8 9.3C19.8 9.12928 19.7664 8.96023 19.701 8.80251C19.6357 8.64479 19.54 8.50148 19.4192 8.38076C19.2985 8.26005 19.1552 8.16429 18.9975 8.09896C18.8398 8.03363 18.6707 8 18.5 8ZM18.5 9.8C18.4011 9.8 18.3044 9.77068 18.2222 9.71573C18.14 9.66079 18.0759 9.5827 18.0381 9.49134C18.0002 9.39998 17.9903 9.29945 18.0096 9.20245C18.0289 9.10546 18.0765 9.01637 18.1464 8.94645C18.2164 8.87652 18.3055 8.8289 18.4025 8.80961C18.4994 8.79031 18.6 8.80022 18.6913 8.83806C18.7827 8.8759 18.8608 8.93999 18.9157 9.02221C18.9707 9.10444 19 9.20111 19 9.3C18.9999 9.43257 18.9471 9.55967 18.8534 9.65341C18.7597 9.74715 18.6326 9.79987 18.5 9.8ZM18.5 12C18.2429 12 17.9915 12.0762 17.7778 12.2191C17.564 12.3619 17.3974 12.565 17.299 12.8025C17.2006 13.0401 17.1748 13.3014 17.225 13.5536C17.2751 13.8058 17.399 14.0374 17.5808 14.2192C17.7626 14.401 17.9942 14.5249 18.2464 14.575C18.4986 14.6252 18.7599 14.5994 18.9975 14.501C19.235 14.4026 19.4381 14.236 19.5809 14.0222C19.7238 13.8085 19.8 13.5571 19.8 13.3C19.8 12.9552 19.663 12.6246 19.4192 12.3808C19.1754 12.137 18.8448 12 18.5 12ZM18.5 13.8C18.4011 13.8 18.3044 13.7707 18.2222 13.7157C18.14 13.6608 18.0759 13.5827 18.0381 13.4913C18.0002 13.4 17.9903 13.2994 18.0096 13.2025C18.0289 13.1055 18.0765 13.0164 18.1464 12.9464C18.2164 12.8765 18.3055 12.8289 18.4025 12.8096C18.4994 12.7903 18.6 12.8002 18.6913 12.8381C18.7827 12.8759 18.8608 12.94 18.9157 13.0222C18.9707 13.1044 19 13.2011 19 13.3C18.9999 13.4326 18.9471 13.5597 18.8534 13.6534C18.7597 13.7471 18.6326 13.7999 18.5 13.8Z" fill="black"/>
</svg>
