<svg width="24" height="24" viewBox="0 0 24 24" fill="none" xmlns="http://www.w3.org/2000/svg">
<path d="M15.5 2H8.5C7.83696 2 7.20107 2.26339 6.73223 2.73223C6.26339 3.20107 6 3.83696 6 4.5V19.5C6 20.163 6.26339 20.7989 6.73223 21.2678C7.20107 21.7366 7.83696 22 8.5 22H15.5C16.163 22 16.7989 21.7366 17.2678 21.2678C17.7366 20.7989 18 20.163 18 19.5V4.5C18 3.83696 17.7366 3.20107 17.2678 2.73223C16.7989 2.26339 16.163 2 15.5 2ZM17.5 19.5C17.4994 20.0302 17.2885 20.5386 16.9135 20.9135C16.5386 21.2885 16.0302 21.4994 15.5 21.5H8.5C7.96975 21.4994 7.4614 21.2885 7.08646 20.9135C6.71152 20.5386 6.50061 20.0302 6.5 19.5V4.5C6.50061 3.96975 6.71152 3.4614 7.08646 3.08646C7.4614 2.71152 7.96975 2.50061 8.5 2.5H15.5C16.0302 2.50061 16.5386 2.71152 16.9135 3.08646C17.2885 3.4614 17.4994 3.96975 17.5 4.5V19.5ZM10.78 5C10.691 5 10.604 5.02639 10.53 5.07584C10.456 5.12529 10.3983 5.19557 10.3643 5.27779C10.3302 5.36002 10.3213 5.4505 10.3386 5.53779C10.356 5.62508 10.3989 5.70526 10.4618 5.7682C10.5247 5.83113 10.6049 5.87399 10.6922 5.89135C10.7795 5.90872 10.87 5.89981 10.9522 5.86575C11.0344 5.83169 11.1047 5.77401 11.1542 5.70001C11.2036 5.626 11.23 5.539 11.23 5.45C11.23 5.3909 11.2184 5.33239 11.1957 5.27779C11.1731 5.2232 11.14 5.17359 11.0982 5.1318C11.0564 5.09002 11.0068 5.05687 10.9522 5.03425C10.8976 5.01164 10.8391 5 10.78 5ZM13.22 5C13.131 5 13.044 5.02639 12.97 5.07584C12.896 5.12529 12.8383 5.19557 12.8043 5.27779C12.7702 5.36002 12.7613 5.4505 12.7786 5.53779C12.796 5.62508 12.8389 5.70526 12.9018 5.7682C12.9647 5.83113 13.0449 5.87399 13.1322 5.89135C13.2195 5.90872 13.31 5.89981 13.3922 5.86575C13.4744 5.83169 13.5447 5.77401 13.5942 5.70001C13.6436 5.626 13.67 5.539 13.67 5.45C13.67 5.3909 13.6584 5.33239 13.6357 5.27779C13.6131 5.2232 13.58 5.17359 13.5382 5.1318C13.4964 5.09002 13.4468 5.05687 13.3922 5.03425C13.3376 5.01164 13.2791 5 13.22 5Z" fill="black"/>
</svg>
