<svg width="24" height="24" viewBox="0 0 24 24" fill="none" xmlns="http://www.w3.org/2000/svg">
<path d="M20.53 18.3135L18.65 16.4335C19.5304 15.1226 20.0004 13.5791 20 12V10H18.5V12C18.4993 13.18 18.175 14.3371 17.5624 15.3456L15.7059 13.4891C15.8988 13.0163 15.9986 12.5107 16 12V5C16 3.93913 15.5785 2.92172 14.8284 2.17157C14.0783 1.42143 13.0608 1 12 1C10.9391 1 9.92169 1.42143 9.17154 2.17157C8.4214 2.92172 7.99997 3.93913 7.99997 5V5.7832L4.52997 2.3132L3.46997 3.374L7.99997 7.9043V12C7.99849 12.7969 8.23555 13.5761 8.68063 14.2372C9.12571 14.8983 9.75844 15.411 10.4974 15.7095C11.2364 16.0079 12.0477 16.0784 12.8271 15.9118C13.6064 15.7452 14.3181 15.3492 14.8705 14.7748L16.64 16.5439C15.7376 17.4678 14.5802 18.1016 13.3158 18.3645C12.0513 18.6273 10.7372 18.5071 9.54144 18.0194C8.34562 17.5316 7.32239 16.6984 6.6025 15.6262C5.88261 14.554 5.49875 13.2915 5.49997 12V10H3.99997V12C4.00036 13.9915 4.74365 15.9113 6.08448 17.3838C7.4253 18.8563 9.26721 19.7757 11.25 19.9621V23H12.75V19.9621C14.6264 19.7851 16.3795 18.949 17.6979 17.6021L19.47 19.374L20.53 18.3135ZM9.49997 5C9.49997 4.33696 9.76336 3.70107 10.2322 3.23223C10.701 2.76339 11.3369 2.5 12 2.5C12.663 2.5 13.2989 2.76339 13.7677 3.23223C14.2366 3.70107 14.5 4.33696 14.5 5V12C14.4958 12.0861 14.4872 12.172 14.474 12.2572L9.49997 7.2832V5ZM12 14.5C11.3372 14.4993 10.7017 14.2356 10.233 13.7669C9.76434 13.2983 9.50071 12.6628 9.49997 12V9.4043L13.81 13.7143C13.5778 13.9618 13.2975 14.1592 12.9862 14.2943C12.6749 14.4294 12.3393 14.4994 12 14.5Z" fill="black"/>
</svg>
