<svg width="24" height="24" viewBox="0 0 24 24" fill="none" xmlns="http://www.w3.org/2000/svg">
<path d="M20 3H4C3.46957 3 2.96086 3.21071 2.58579 3.58579C2.21071 3.96086 2 4.46957 2 5V15C2 15.5304 2.21071 16.0391 2.58579 16.4142C2.96086 16.7893 3.46957 17 4 17H9V17.9028C9 18.0885 8.9483 18.2705 8.85068 18.4285C8.75306 18.5865 8.61339 18.7141 8.4473 18.7972L7 19.5208V21H17V19.5208L15.5527 18.7972C15.3866 18.7141 15.2469 18.5865 15.1493 18.4285C15.0517 18.2705 15 18.0885 15 17.9028V17H20C20.5304 17 21.0391 16.7893 21.4142 16.4142C21.7893 16.0391 22 15.5304 22 15V5C22 4.46957 21.7893 3.96086 21.4142 3.58579C21.0391 3.21071 20.5304 3 20 3ZM14.3008 19.6H9.6992C9.92228 19.3774 10.0991 19.1128 10.2193 18.8215C10.3396 18.5302 10.401 18.218 10.4 17.9028V17H13.6V17.9028C13.599 18.218 13.6604 18.5302 13.7807 18.8215C13.9009 19.1128 14.0777 19.3774 14.3008 19.6ZM20.5 15C20.5 15.1326 20.4473 15.2598 20.3536 15.3536C20.2598 15.4473 20.1326 15.5 20 15.5H4C3.86739 15.5 3.74021 15.4473 3.64645 15.3536C3.55268 15.2598 3.5 15.1326 3.5 15V5C3.5 4.86739 3.55268 4.74021 3.64645 4.64645C3.74021 4.55268 3.86739 4.5 4 4.5H20C20.1326 4.5 20.2598 4.55268 20.3536 4.64645C20.4473 4.74021 20.5 4.86739 20.5 5V15Z" fill="black"/>
</svg>
