<svg width="24" height="24" viewBox="0 0 24 24" fill="none" xmlns="http://www.w3.org/2000/svg">
<path d="M16 3H14C14 2.46957 13.7893 1.96086 13.4142 1.58579C13.0391 1.21071 12.5304 1 12 1C11.4696 1 10.9609 1.21071 10.5858 1.58579C10.2107 1.96086 10 2.46957 10 3H8C7.20435 3 6.44129 3.31607 5.87868 3.87868C5.31607 4.44129 5 5.20435 5 6V20C5 20.7956 5.31607 21.5587 5.87868 22.1213C6.44129 22.6839 7.20435 23 8 23H16C16.7956 23 17.5587 22.6839 18.1213 22.1213C18.6839 21.5587 19 20.7956 19 20V6C19 5.20435 18.6839 4.44129 18.1213 3.87868C17.5587 3.31607 16.7956 3 16 3ZM11.7544 18.276C11.5731 18.276 11.3959 18.2222 11.2451 18.1215C11.0943 18.0208 10.9768 17.8776 10.9075 17.7101C10.8381 17.5426 10.8199 17.3582 10.8553 17.1804C10.8907 17.0026 10.978 16.8393 11.1062 16.7111C11.2344 16.5829 11.3978 16.4956 11.5756 16.4602C11.7535 16.4248 11.9378 16.443 12.1053 16.5124C12.2728 16.5818 12.4159 16.6993 12.5167 16.8501C12.6174 17.0008 12.6711 17.1781 12.6711 17.3594C12.6711 17.6025 12.5745 17.8356 12.4026 18.0075C12.2307 18.1794 11.9975 18.276 11.7544 18.276ZM13.5544 13.5508C12.905 13.9941 12.4753 14.2881 12.4753 15.2441H11.042C11.0303 14.6534 11.1837 14.0711 11.4849 13.5629C11.7862 13.0546 12.2233 12.6405 12.7471 12.3672C13.3955 11.9238 13.6826 11.7002 13.6826 11.0332C13.6374 10.6324 13.4381 10.2648 13.1268 10.0082C12.8155 9.75164 12.4167 9.62612 12.0146 9.6582C11.5 9.6582 10.3046 9.8604 10.3046 11.7305H8.8711C8.8711 9.3086 10.4502 8.2246 12.0146 8.2246C12.7976 8.18876 13.563 8.46387 14.144 8.98998C14.725 9.51608 15.0744 10.2505 15.1162 11.0332C15.1112 11.5555 14.9629 12.0665 14.6876 12.5104C14.4123 12.9543 14.0204 13.3142 13.5547 13.5508H13.5544Z" fill="black"/>
</svg>
