<svg width="24" height="24" viewBox="0 0 24 24" fill="none" xmlns="http://www.w3.org/2000/svg">
<path d="M12 6.4208C11.7143 6.42084 11.4351 6.50559 11.1976 6.66432C10.9601 6.82306 10.775 7.04866 10.6657 7.31259C10.5564 7.57652 10.5278 7.86694 10.5836 8.14711C10.6393 8.42728 10.7769 8.68463 10.9789 8.88662C11.1809 9.0886 11.4383 9.22614 11.7185 9.28186C11.9987 9.33758 12.2891 9.30896 12.553 9.19963C12.8169 9.0903 13.0425 8.90517 13.2012 8.66764C13.3599 8.43012 13.4446 8.15087 13.4446 7.8652C13.4441 7.48223 13.2918 7.11509 13.021 6.84431C12.7501 6.57353 12.383 6.42122 12 6.4208ZM12 2C10.0222 2 8.08879 2.58649 6.4443 3.6853C4.79981 4.78412 3.51809 6.3459 2.76121 8.17317C2.00433 10.0004 1.8063 12.0111 2.19215 13.9509C2.578 15.8907 3.53041 17.6725 4.92894 19.0711C6.32746 20.4696 8.10929 21.422 10.0491 21.8079C11.9889 22.1937 13.9996 21.9957 15.8268 21.2388C17.6541 20.4819 19.2159 19.2002 20.3147 17.5557C21.4135 15.9112 22 13.9778 22 12C22 10.6868 21.7413 9.38642 21.2388 8.17317C20.7363 6.95991 19.9997 5.85752 19.0711 4.92893C18.1425 4.00035 17.0401 3.26375 15.8268 2.7612C14.6136 2.25866 13.3132 2 12 2ZM7.3555 13.35C7.0885 13.35 6.82751 13.2708 6.60551 13.1224C6.38352 12.9741 6.2105 12.7632 6.10834 12.5166C6.00618 12.2699 5.97945 11.9984 6.03156 11.7366C6.08366 11.4747 6.21224 11.2342 6.40105 11.0454C6.58985 10.8566 6.8304 10.728 7.09227 10.6759C7.35414 10.6239 7.62558 10.6506 7.87225 10.7528C8.11892 10.855 8.32976 11.028 8.4781 11.25C8.62643 11.472 8.7056 11.733 8.7056 12C8.7056 12.1773 8.67068 12.3528 8.60283 12.5166C8.53498 12.6804 8.43553 12.8293 8.31016 12.9546C8.18479 13.08 8.03596 13.1794 7.87216 13.2473C7.70836 13.3151 7.5328 13.35 7.3555 13.35ZM12 10.1429C11.5495 10.1429 11.1091 10.0093 10.7345 9.75901C10.3599 9.50872 10.068 9.15297 9.89558 8.73675C9.72318 8.32053 9.67808 7.86254 9.76598 7.42069C9.85388 6.97883 10.0708 6.57297 10.3894 6.25442C10.708 5.93586 11.1138 5.71893 11.5557 5.63105C11.9975 5.54318 12.4555 5.5883 12.8718 5.76072C13.288 5.93313 13.6437 6.2251 13.894 6.59969C14.1443 6.97429 14.2778 7.41469 14.2778 7.8652C14.2778 8.16432 14.2189 8.46052 14.1044 8.73688C13.99 9.01323 13.8222 9.26433 13.6107 9.47584C13.3992 9.68735 13.148 9.85512 12.8717 9.96958C12.5953 10.084 12.2991 10.1429 12 10.1429ZM16.6445 13.35C16.3775 13.35 16.1165 13.2708 15.8945 13.1225C15.6725 12.9741 15.4994 12.7633 15.3973 12.5166C15.2951 12.2699 15.2684 11.9985 15.3204 11.7366C15.3725 11.4748 15.5011 11.2342 15.6899 11.0454C15.8787 10.8566 16.1193 10.728 16.3811 10.6759C16.643 10.6238 16.9144 10.6506 17.1611 10.7528C17.4078 10.8549 17.6186 11.028 17.767 11.25C17.9153 11.472 17.9945 11.733 17.9945 12C17.9945 12.358 17.8523 12.7014 17.5991 12.9546C17.3459 13.2078 17.0025 13.35 16.6445 13.35Z" fill="black"/>
</svg>
