<svg width="24" height="24" viewBox="0 0 24 24" fill="none" xmlns="http://www.w3.org/2000/svg">
<path d="M16.5 2H7.5C6.83696 2 6.20107 2.26339 5.73223 2.73223C5.26339 3.20107 5 3.83696 5 4.5V19.5C5 20.163 5.26339 20.7989 5.73223 21.2678C6.20107 21.7366 6.83696 22 7.5 22H16.5C17.163 22 17.7989 21.7366 18.2678 21.2678C18.7366 20.7989 19 20.163 19 19.5V4.5C19 3.83696 18.7366 3.20107 18.2678 2.73223C17.7989 2.26339 17.163 2 16.5 2ZM17 19.5C17 19.6326 16.9473 19.7598 16.8536 19.8536C16.7598 19.9473 16.6326 20 16.5 20H7.5C7.36739 20 7.24021 19.9473 7.14645 19.8536C7.05268 19.7598 7 19.6326 7 19.5V4.5C7 4.36739 7.05268 4.24021 7.14645 4.14645C7.24021 4.05268 7.36739 4 7.5 4H16.5C16.6326 4 16.7598 4.05268 16.8536 4.14645C16.9473 4.24021 17 4.36739 17 4.5V19.5ZM15.7371 10.6087C15.5801 10.1915 15.3538 9.80369 15.0678 9.4617L13.6733 10.0754L12.83 9.5886L12.6636 8.0669C12.4447 8.0261 12.2227 8.00372 12 8C11.7773 8.00372 11.5553 8.0261 11.3364 8.0669L11.17 9.5886L10.3267 10.0754L8.9323 9.4617C8.64627 9.80368 8.41997 10.1915 8.2629 10.6087L9.4966 11.5131V12.4869L8.2629 13.3912C8.41998 13.8085 8.64624 14.1962 8.9322 14.5383L10.3266 13.9245L11.17 14.4114L11.3364 15.9331C11.5553 15.9739 11.7773 15.9963 12 16C12.2227 15.9963 12.4447 15.9739 12.6636 15.9331L12.83 14.4114L13.6734 13.9245L15.0678 14.5383C15.3538 14.1962 15.58 13.8085 15.7371 13.3912L14.5034 12.4869V11.5131L15.7371 10.6087ZM12 13C11.8022 13 11.6089 12.9414 11.4444 12.8315C11.28 12.7216 11.1518 12.5654 11.0761 12.3827C11.0004 12.2 10.9806 11.9989 11.0192 11.8049C11.0578 11.6109 11.153 11.4327 11.2929 11.2929C11.4327 11.153 11.6109 11.0578 11.8049 11.0192C11.9989 10.9806 12.2 11.0004 12.3827 11.0761C12.5654 11.1518 12.7216 11.28 12.8315 11.4444C12.9414 11.6089 13 11.8022 13 12C13 12.2652 12.8946 12.5196 12.7071 12.7071C12.5196 12.8946 12.2652 13 12 13Z" fill="black"/>
</svg>
