<svg width="24" height="24" viewBox="0 0 24 24" fill="none" xmlns="http://www.w3.org/2000/svg">
<path d="M3.5 8.4041C3.0715 8.51391 2.69163 8.76299 2.42011 9.1122C2.14859 9.46141 2.00081 9.89095 2 10.3333V18C2 18.5304 2.21071 19.0391 2.58579 19.4142C2.96086 19.7893 3.46957 20 4 20H16C16.4424 19.9992 16.8719 19.8515 17.2211 19.5799C17.5703 19.3084 17.8194 18.9285 17.9292 18.5H3.5V8.4041ZM20 4.3333H18.1133L16.7273 2H11.2727L9.8867 4.3333H8C7.46957 4.3333 6.96086 4.54401 6.58579 4.91909C6.21071 5.29416 6 5.80287 6 6.3333V14C6 14.5304 6.21071 15.0391 6.58579 15.4142C6.96086 15.7893 7.46957 16 8 16H20C20.5304 16 21.0391 15.7893 21.4142 15.4142C21.7893 15.0391 22 14.5304 22 14V6.3333C22 5.80287 21.7893 5.29416 21.4142 4.91909C21.0391 4.54401 20.5304 4.3333 20 4.3333ZM20.5 14C20.5 14.1326 20.4473 14.2598 20.3536 14.3536C20.2598 14.4473 20.1326 14.5 20 14.5H8C7.86739 14.5 7.74021 14.4473 7.64645 14.3536C7.55268 14.2598 7.5 14.1326 7.5 14V6.3333C7.5 6.20069 7.55268 6.07351 7.64645 5.97975C7.74021 5.88598 7.86739 5.8333 8 5.8333H10.74L11.176 5.0994L12.126 3.5H15.8734L16.8234 5.0994L17.2594 5.8333H20C20.1326 5.8333 20.2598 5.88598 20.3536 5.97975C20.4473 6.07351 20.5 6.20069 20.5 6.3333V14ZM14 7.6562C13.6044 7.6562 13.2178 7.7735 12.8889 7.99326C12.56 8.21302 12.3036 8.52538 12.1522 8.89083C12.0009 9.25629 11.9613 9.65842 12.0384 10.0464C12.1156 10.4343 12.3061 10.7907 12.5858 11.0704C12.8655 11.3501 13.2219 11.5406 13.6098 11.6178C13.9978 11.6949 14.3999 11.6553 14.7654 11.504C15.1308 11.3526 15.4432 11.0962 15.6629 10.7673C15.8827 10.4384 16 10.0518 16 9.6562C16 9.12577 15.7893 8.61706 15.4142 8.24199C15.0391 7.86691 14.5304 7.6562 14 7.6562Z" fill="black"/>
</svg>
