<svg width="24" height="24" viewBox="0 0 24 24" fill="none" xmlns="http://www.w3.org/2000/svg">
<path d="M16.5 2H7.5C6.83696 2 6.20107 2.26339 5.73223 2.73223C5.26339 3.20107 5 3.83696 5 4.5V19.5C5 20.163 5.26339 20.7989 5.73223 21.2678C6.20107 21.7366 6.83696 22 7.5 22H16.5C17.163 22 17.7989 21.7366 18.2678 21.2678C18.7366 20.7989 19 20.163 19 19.5V4.5C19 3.83696 18.7366 3.20107 18.2678 2.73223C17.7989 2.26339 17.163 2 16.5 2ZM18 19.5C17.9995 19.8977 17.8414 20.279 17.5602 20.5602C17.279 20.8414 16.8977 20.9995 16.5 21H7.5C7.10231 20.9995 6.72104 20.8414 6.43984 20.5602C6.15863 20.279 6.00045 19.8977 6 19.5V4.5C6.00045 4.10231 6.15863 3.72104 6.43984 3.43984C6.72104 3.15863 7.10231 3.00045 7.5 3H16.5C16.8977 3.00045 17.279 3.15863 17.5602 3.43984C17.8414 3.72104 17.9995 4.10231 18 4.5V19.5ZM12.5 13.1276V9H11.5V13.1276L10.0288 11.6564L9.3218 12.3634L12 15.0416L14.6782 12.3634L13.9712 11.6564L12.5 13.1276Z" fill="black"/>
</svg>
