<svg width="24" height="24" viewBox="0 0 24 24" fill="none" xmlns="http://www.w3.org/2000/svg">
<path d="M22 10C22 9.20435 21.6839 8.44129 21.1213 7.87868C20.5587 7.31607 19.7956 7 19 7H18V3H6V7H5C4.20435 7 3.44129 7.31607 2.87868 7.87868C2.31607 8.44129 2 9.20435 2 10V19H6V21H18V19H22V10ZM7.5 4.5H16.5V7H7.5V4.5ZM4.75 11.25C4.75 11.0621 4.80572 10.8784 4.9101 10.7222C5.01449 10.566 5.16286 10.4442 5.33645 10.3723C5.51004 10.3004 5.70105 10.2816 5.88534 10.3183C6.06962 10.3549 6.23889 10.4454 6.37175 10.5782C6.50461 10.7111 6.59509 10.8804 6.63175 11.0647C6.6684 11.2489 6.64959 11.44 6.57769 11.6135C6.50578 11.7871 6.38402 11.9355 6.22779 12.0399C6.07157 12.1443 5.88789 12.2 5.7 12.2C5.44804 12.2 5.20641 12.0999 5.02825 11.9218C4.85009 11.7436 4.75 11.502 4.75 11.25ZM16.5 19.5H7.5V15.5H16.5V19.5Z" fill="black"/>
</svg>
