<svg width="24" height="24" viewBox="0 0 24 24" fill="none" xmlns="http://www.w3.org/2000/svg">
<path d="M12 8.6666C11.8011 8.6666 11.6103 8.74562 11.4697 8.88627C11.329 9.02692 11.25 9.21769 11.25 9.4166V11.9166C11.25 12.1155 11.329 12.3063 11.4697 12.4469C11.6103 12.5876 11.8011 12.6666 12 12.6666C12.1989 12.6666 12.3897 12.5876 12.5303 12.4469C12.671 12.3063 12.75 12.1155 12.75 11.9166V9.4166C12.75 9.21769 12.671 9.02692 12.5303 8.88627C12.3897 8.74562 12.1989 8.6666 12 8.6666ZM14 5H12.75V3.5836C12.7504 3.29638 12.8646 3.02102 13.0677 2.81789C13.2708 2.61477 13.5461 2.50045 13.8333 2.5H17V1H13.8333C13.1484 1.00085 12.4917 1.27333 12.0075 1.75767C11.5232 2.24202 11.2508 2.89867 11.25 3.5836V5H10C8.67392 5 7.40215 5.52678 6.46447 6.46447C5.52678 7.40215 5 8.67392 5 10V17C5 18.8565 5.7375 20.637 7.05025 21.9497C8.36301 23.2625 10.1435 24 12 24C13.8565 24 15.637 23.2625 16.9497 21.9497C18.2625 20.637 19 18.8565 19 17V10C19 8.67392 18.4732 7.40215 17.5355 6.46447C16.5979 5.52678 15.3261 5 14 5ZM17.5 17C17.5 18.4587 16.9205 19.8576 15.8891 20.8891C14.8576 21.9205 13.4587 22.5 12 22.5C10.5413 22.5 9.14236 21.9205 8.11091 20.8891C7.07946 19.8576 6.5 18.4587 6.5 17V10C6.50106 9.07207 6.87015 8.18244 7.5263 7.5263C8.18244 6.87015 9.07207 6.50106 10 6.5H14C14.9279 6.50106 15.8176 6.87015 16.4737 7.5263C17.1299 8.18244 17.4989 9.07207 17.5 10V17Z" fill="black"/>
</svg>
