<svg width="24" height="24" viewBox="0 0 24 24" fill="none" xmlns="http://www.w3.org/2000/svg">
<path d="M12 2C10.6868 2 9.38642 2.25866 8.17317 2.7612C6.95991 3.26375 5.85752 4.00035 4.92893 4.92893C3.05357 6.8043 2 9.34784 2 12V16C2 16.7956 2.31607 17.5587 2.87868 18.1213C3.44129 18.6839 4.20435 19 5 19H7V11H5C4.50451 10.9999 4.01675 11.1228 3.58044 11.3576C3.14412 11.5924 2.77288 11.9318 2.5 12.3454V12C2.5 9.48044 3.50089 7.06408 5.28249 5.28249C7.06408 3.50089 9.48044 2.5 12 2.5C14.5196 2.5 16.9359 3.50089 18.7175 5.28249C20.4991 7.06408 21.5 9.48044 21.5 12V12.3454C21.2271 11.9318 20.8559 11.5924 20.4196 11.3576C19.9832 11.1228 19.4955 10.9999 19 11H17V19H19C19.4955 19.0001 19.9832 18.8772 20.4196 18.6424C20.8559 18.4076 21.2271 18.0682 21.5 17.6546V19C21.5 19.9283 21.1313 20.8185 20.4749 21.4749C19.8185 22.1313 18.9283 22.5 18 22.5H12V23H18C19.0609 23 20.0783 22.5786 20.8284 21.8284C21.5786 21.0783 22 20.0609 22 19V12C22 10.6868 21.7413 9.38642 21.2388 8.17317C20.7362 6.95991 19.9997 5.85752 19.0711 4.92893C18.1425 4.00035 17.0401 3.26375 15.8268 2.7612C14.6136 2.25866 13.3132 2 12 2ZM5 11.5H6.5V18.5H5C4.33719 18.4993 3.70173 18.2356 3.23305 17.7669C2.76437 17.2983 2.50074 16.6628 2.5 16V14C2.50074 13.3372 2.76437 12.7017 3.23305 12.2331C3.70173 11.7644 4.33719 11.5007 5 11.5ZM21.5 16C21.4993 16.6628 21.2356 17.2983 20.7669 17.7669C20.2983 18.2356 19.6628 18.4993 19 18.5H17.5V11.5H19C19.6628 11.5007 20.2983 11.7644 20.7669 12.2331C21.2356 12.7017 21.4993 13.3372 21.5 14V16Z" fill="black"/>
</svg>
