<svg width="24" height="24" viewBox="0 0 24 24" fill="none" xmlns="http://www.w3.org/2000/svg">
<path d="M13.4142 6.97854L14.8284 5.56434C14.0777 4.81521 13.0605 4.39449 12 4.39449C10.9395 4.39449 9.92228 4.81521 9.17161 5.56434L10.5858 6.97854C10.9612 6.60401 11.4698 6.39368 12 6.39368C12.5303 6.39368 13.0389 6.60401 13.4142 6.97854ZM6.34311 2.73584L7.75741 4.15004C8.88344 3.02639 10.4092 2.39533 12 2.39533C13.5908 2.39533 15.1166 3.02639 16.2426 4.15004L17.6569 2.73574C16.1554 1.23773 14.121 0.396466 12 0.396484C9.879 0.396503 7.84461 1.23781 6.34311 2.73584ZM12 14C12.1978 14 12.3911 13.9414 12.5556 13.8315C12.72 13.7216 12.8482 13.5654 12.9239 13.3827C12.9996 13.2 13.0194 12.9989 12.9808 12.8049C12.9422 12.611 12.847 12.4328 12.7071 12.2929C12.5673 12.1531 12.3891 12.0578 12.1951 12.0193C12.0011 11.9807 11.8001 12.0005 11.6173 12.0762C11.4346 12.1518 11.2784 12.28 11.1685 12.4445C11.0587 12.6089 11 12.8023 11 13C11 13.2653 11.1054 13.5196 11.2929 13.7071C11.4804 13.8947 11.7348 14 12 14ZM8.00001 21C8.00001 21.5305 8.21072 22.0392 8.5858 22.4143C8.96087 22.7893 9.46958 23 10 23H14C14.5304 23 15.0392 22.7893 15.4142 22.4143C15.7893 22.0392 16 21.5305 16 21V9.00004H8.00001V21ZM9.90001 10.9H14.1V21C14.1 21.0266 14.0895 21.052 14.0707 21.0708C14.052 21.0895 14.0265 21.1 14 21.1H10C9.97349 21.1 9.94805 21.0895 9.9293 21.0708C9.91054 21.052 9.90001 21.0266 9.90001 21V10.9Z" fill="black"/>
</svg>
