<svg width="24" height="24" viewBox="0 0 24 24" fill="none" xmlns="http://www.w3.org/2000/svg">
<path d="M16 3H14C14 2.46957 13.7893 1.96086 13.4142 1.58579C13.0391 1.21071 12.5304 1 12 1C11.4696 1 10.9609 1.21071 10.5858 1.58579C10.2107 1.96086 10 2.46957 10 3H8C7.20435 3 6.44129 3.31607 5.87868 3.87868C5.31607 4.44129 5 5.20435 5 6V20C5 20.7956 5.31607 21.5587 5.87868 22.1213C6.44129 22.6839 7.20435 23 8 23H16C16.7956 23 17.5587 22.6839 18.1213 22.1213C18.6839 21.5587 19 20.7956 19 20V6C19 5.20435 18.6839 4.44129 18.1213 3.87868C17.5587 3.31607 16.7956 3 16 3ZM17 20C16.9997 20.2651 16.8943 20.5193 16.7068 20.7068C16.5193 20.8943 16.2651 20.9997 16 21H8C7.73487 20.9997 7.48069 20.8943 7.29321 20.7068C7.10574 20.5193 7.00029 20.2651 7 20V6C7.00029 5.73487 7.10574 5.48069 7.29321 5.29321C7.48069 5.10574 7.73487 5.00029 8 5H16C16.2651 5.00029 16.5193 5.10574 16.7068 5.29321C16.8943 5.48069 16.9997 5.73487 17 6V20ZM11.7544 16.1141C11.527 16.1141 11.3046 16.1815 11.1155 16.3079C10.9264 16.4343 10.779 16.6139 10.6919 16.824C10.6049 17.0341 10.5821 17.2654 10.6265 17.4885C10.6709 17.7115 10.7804 17.9164 10.9412 18.0773C11.1021 18.2381 11.307 18.3476 11.53 18.392C11.7531 18.4364 11.9844 18.4136 12.1945 18.3266C12.4046 18.2395 12.5842 18.0921 12.7106 17.903C12.837 17.7139 12.9044 17.4915 12.9044 17.2641C12.9044 16.9591 12.7832 16.6666 12.5676 16.4509C12.3519 16.2353 12.0594 16.1141 11.7544 16.1141ZM12.0127 8.2358C11.5496 8.23234 11.091 8.3269 10.667 8.51328C10.2431 8.69965 9.86334 8.97363 9.55279 9.31719C9.24224 9.66076 9.00789 10.0662 8.86516 10.5067C8.72242 10.9473 8.67452 11.4131 8.7246 11.8735H10.6246C10.6246 10.7529 11.1178 10.1362 12.0123 10.1362C12.3174 10.1091 12.621 10.2025 12.858 10.3965C13.0951 10.5904 13.2469 10.8694 13.2808 11.1738C13.2808 11.7349 13.0953 11.8906 12.5084 12.2988C11.9818 12.5894 11.5453 13.0193 11.2466 13.5413C10.948 14.0634 10.7986 14.6576 10.815 15.2588H12.715C12.715 14.4697 13.008 14.2656 13.593 13.8594C14.076 13.5976 14.4789 13.2095 14.7586 12.7366C15.0382 12.2637 15.1842 11.7237 15.1808 11.1743C15.1482 10.3653 14.7967 9.60201 14.203 9.05138C13.6094 8.50075 12.8219 8.20753 12.0127 8.2358Z" fill="black"/>
</svg>
