<svg width="24" height="24" viewBox="0 0 24 24" fill="none" xmlns="http://www.w3.org/2000/svg">
<path d="M19.5 5H4.5C3.83696 5 3.20107 5.26339 2.73223 5.73223C2.26339 6.20107 2 6.83696 2 7.5V16.5C2 17.163 2.26339 17.7989 2.73223 18.2678C3.20107 18.7366 3.83696 19 4.5 19H19.5C20.163 19 20.7989 18.7366 21.2678 18.2678C21.7366 17.7989 22 17.163 22 16.5V7.5C22 6.83696 21.7366 6.20107 21.2678 5.73223C20.7989 5.26339 20.163 5 19.5 5ZM21.5 16.5C21.4994 17.0302 21.2885 17.5386 20.9135 17.9135C20.5386 18.2885 20.0302 18.4994 19.5 18.5H4.5C3.96975 18.4994 3.4614 18.2885 3.08646 17.9135C2.71152 17.5386 2.50061 17.0302 2.5 16.5V7.5C2.50061 6.96975 2.71152 6.4614 3.08646 6.08646C3.4614 5.71152 3.96975 5.50061 4.5 5.5H19.5C20.0302 5.50061 20.5386 5.71152 20.9135 6.08646C21.2885 6.4614 21.4994 6.96975 21.5 7.5V16.5ZM14 10C14 9.46957 13.7893 8.96086 13.4142 8.58579C13.0391 8.21071 12.5304 8 12 8C11.4696 8 10.9609 8.21071 10.5858 8.58579C10.2107 8.96086 10 9.46957 10 10V11H9V15H15V11H14V10ZM10.5 10C10.5 9.60218 10.658 9.22064 10.9393 8.93934C11.2206 8.65804 11.6022 8.5 12 8.5C12.3978 8.5 12.7794 8.65804 13.0607 8.93934C13.342 9.22064 13.5 9.60218 13.5 10V11H10.5V10ZM14.5 11.5V14.5H9.5V11.5H14.5Z" fill="black"/>
</svg>
