<svg width="24" height="24" viewBox="0 0 24 24" fill="none" xmlns="http://www.w3.org/2000/svg">
<path d="M18.5 12.5C18.5 14.2239 17.8152 15.8772 16.5962 17.0962C15.3772 18.3152 13.7239 19 12 19C10.2761 19 8.62279 18.3152 7.40381 17.0962C6.18482 15.8772 5.5 14.2239 5.5 12.5V10.5H4V12.5C4.00039 14.4915 4.74368 16.4112 6.08451 17.8838C7.42533 19.3563 9.26724 20.2756 11.25 20.4621V23.5H12.75V20.4621C14.7328 20.2756 16.5747 19.3563 17.9155 17.8838C19.2563 16.4112 19.9996 14.4915 20 12.5V10.5H18.5V12.5ZM12 16.5C13.0605 16.499 14.0774 16.0772 14.8273 15.3273C15.5772 14.5773 15.999 13.5605 16 12.5V5.49998C16 4.43912 15.5786 3.4217 14.8284 2.67156C14.0783 1.92141 13.0609 1.49998 12 1.49998C10.9391 1.49998 9.92172 1.92141 9.17157 2.67156C8.42143 3.4217 8 4.43912 8 5.49998V12.5C8.00103 13.5605 8.42279 14.5773 9.17271 15.3273C9.92264 16.0772 10.9395 16.499 12 16.5ZM23.9326 1.05758L22.9426 0.0675828L21 2.00998L19.0576 0.0673828L18.0676 1.05738L20.01 2.99998L18.0674 4.94238L19.0574 5.93238L21 3.98998L22.9424 5.93238L23.9324 4.94238L21.99 2.99998L23.9326 1.05758Z" fill="black"/>
</svg>
