<svg width="24" height="24" viewBox="0 0 24 24" fill="none" xmlns="http://www.w3.org/2000/svg">
<path d="M11.8333 1.6211C12.5559 1.61901 13.2716 1.76035 13.9392 2.03695C14.6067 2.31354 15.2127 2.71987 15.722 3.2324L16.429 2.5254C15.8256 1.92168 15.1092 1.44277 14.3206 1.11602C13.5321 0.789272 12.6869 0.621094 11.8333 0.621094C10.9797 0.621094 10.1345 0.789272 9.34599 1.11602C8.55744 1.44277 7.841 1.92168 7.2376 2.5254L7.9446 3.2324C8.45392 2.71987 9.05991 2.31354 9.72743 2.03695C10.395 1.76035 11.1107 1.61901 11.8333 1.6211ZM7.4249 8.5833H6.5749V10.5751H4.5833V11.4251H6.5751V13.4168H7.4251V11.4249H9.4167V10.5749H7.4249V8.5833ZM17 8.5C16.4216 8.50002 15.8611 8.70058 15.414 9.06751C14.9669 9.43445 14.6609 9.94506 14.5481 10.5123C14.4353 11.0796 14.5226 11.6685 14.7953 12.1785C15.068 12.6886 15.509 13.0884 16.0434 13.3097C16.5778 13.531 17.1724 13.5602 17.7258 13.3923C18.2793 13.2244 18.7574 12.8698 19.0788 12.3889C19.4001 11.908 19.5447 11.3305 19.488 10.7549C19.4313 10.1793 19.1768 9.64117 18.7678 9.2322C18.5359 8.99971 18.2603 8.81534 17.957 8.68968C17.6536 8.56403 17.3284 8.49957 17 8.5ZM18.1549 12.1549C17.8877 12.422 17.5361 12.5883 17.1601 12.6253C16.7841 12.6623 16.4068 12.5677 16.0927 12.3578C15.7786 12.1478 15.5469 11.8354 15.4373 11.4738C15.3276 11.1123 15.3468 10.7238 15.4914 10.3748C15.636 10.0257 15.8972 9.73758 16.2304 9.55949C16.5637 9.3814 16.9484 9.32437 17.3189 9.39811C17.6895 9.47185 18.0231 9.67181 18.2627 9.9639C18.5024 10.256 18.6334 10.6222 18.6334 11C18.634 11.2146 18.592 11.4271 18.5098 11.6254C18.4277 11.8236 18.3071 12.0036 18.1549 12.1549ZM18 5H6C5.34339 5 4.69321 5.12933 4.08658 5.3806C3.47996 5.63188 2.92876 6.00017 2.46447 6.46447C1.52679 7.40215 1 8.67392 1 10V18.8971C0.999453 19.633 1.26063 20.3451 1.73684 20.9061C2.21305 21.4672 2.87325 21.8406 3.59946 21.9596C4.32566 22.0786 5.07052 21.9355 5.70091 21.5558C6.33129 21.1761 6.80611 20.5847 7.0405 19.8871L7.9957 17H16.0043L16.9595 19.8868C17.1939 20.5843 17.6687 21.1758 18.299 21.5555C18.9294 21.9351 19.6742 22.0783 20.4004 21.9593C21.1266 21.8403 21.7868 21.467 22.263 20.906C22.7393 20.345 23.0005 19.633 23 18.8971V10C23 9.34339 22.8707 8.69321 22.6194 8.08658C22.3681 7.47996 21.9998 6.92876 21.5355 6.46447C21.0712 6.00017 20.52 5.63188 19.9134 5.3806C19.3068 5.12933 18.6566 5 18 5ZM22 18.8971C22.0003 19.398 21.8216 19.8826 21.4963 20.2634C21.1709 20.6443 20.7202 20.8965 20.2254 20.9745C19.7306 21.0525 19.2242 20.9512 18.7975 20.6889C18.3707 20.4266 18.0517 20.0205 17.8978 19.5438L16.9426 16.657L16.704 16H7.296L7.0574 16.657L6.1022 19.5438C5.94835 20.0205 5.6293 20.4266 5.20255 20.6889C4.7758 20.9512 4.26939 21.0525 3.77458 20.9745C3.27977 20.8965 2.82909 20.6443 2.50373 20.2634C2.17837 19.8826 1.99974 19.398 2 18.8971V10C2.00119 8.9395 2.423 7.92278 3.17289 7.17289C3.92278 6.423 4.9395 6.00119 6 6H18C19.0605 6.00119 20.0772 6.423 20.8271 7.17289C21.577 7.92278 21.9988 8.9395 22 10V18.8971Z" fill="black"/>
</svg>
