<svg width="24" height="24" viewBox="0 0 24 24" fill="none" xmlns="http://www.w3.org/2000/svg">
<path d="M19 7H18V3H6V7H5C4.20435 7 3.44129 7.31607 2.87868 7.87868C2.31607 8.44129 2 9.20435 2 10V19H6V21H18V19H22V10C22 9.20435 21.6839 8.44129 21.1213 7.87868C20.5587 7.31607 19.7956 7 19 7ZM7.5 4.5H16.5V7H7.5V4.5ZM16.5 19.5H7.5V16.5H16.5V19.5ZM20.5 17.5H18V15H6V17.5H3.5V10C3.50045 9.60231 3.65863 9.22104 3.93984 8.93984C4.22104 8.65863 4.60231 8.50045 5 8.5H19C19.3977 8.50045 19.779 8.65863 20.0602 8.93984C20.3414 9.22104 20.4995 9.60231 20.5 10V17.5ZM6.7 10.79C6.51211 10.79 6.32843 10.8457 6.17221 10.9501C6.01598 11.0545 5.89422 11.2029 5.82231 11.3765C5.75041 11.55 5.7316 11.7411 5.76825 11.9253C5.80491 12.1096 5.89539 12.2789 6.02825 12.4118C6.16111 12.5446 6.33038 12.6351 6.51466 12.6717C6.69895 12.7084 6.88996 12.6896 7.06355 12.6177C7.23714 12.5458 7.38551 12.424 7.4899 12.2678C7.59428 12.1116 7.65 11.9279 7.65 11.74C7.65 11.488 7.54991 11.2464 7.37175 11.0682C7.19359 10.8901 6.95196 10.79 6.7 10.79Z" fill="black"/>
</svg>
