<svg width="24" height="24" viewBox="0 0 24 24" fill="none" xmlns="http://www.w3.org/2000/svg">
<path d="M20 7H18V3H6V7H4C3.46957 7 2.96086 7.21071 2.58579 7.58579C2.21071 7.96086 2 8.46957 2 9V19H6V21H18V19H22V9C22 8.46957 21.7893 7.96086 21.4142 7.58579C21.0391 7.21071 20.5304 7 20 7ZM6.5 3.5H17.5V7H6.5V3.5ZM17.5 20.5H6.5V16.5H17.5V20.5ZM21.5 18.5H18V16H6V18.5H2.5V9C2.50045 8.60231 2.65863 8.22104 2.93984 7.93984C3.22104 7.65863 3.60231 7.50045 4 7.5H20C20.3977 7.50045 20.779 7.65863 21.0602 7.93984C21.3414 8.22104 21.4995 8.60231 21.5 9V18.5ZM6.2 11.2947C6.111 11.2947 6.024 11.3211 5.94999 11.3705C5.87599 11.42 5.81831 11.4903 5.78425 11.5725C5.75019 11.6547 5.74128 11.7452 5.75865 11.8325C5.77601 11.9198 5.81887 12 5.8818 12.0629C5.94474 12.1258 6.02492 12.1687 6.11221 12.1861C6.1995 12.2034 6.28998 12.1945 6.37221 12.1604C6.45443 12.1264 6.52471 12.0687 6.57416 11.9947C6.62361 11.9207 6.65 11.8337 6.65 11.7447C6.65 11.6254 6.60259 11.5109 6.5182 11.4265C6.43381 11.3421 6.31935 11.2947 6.2 11.2947Z" fill="black"/>
</svg>
