<svg width="24" height="24" viewBox="0 0 24 24" fill="none" xmlns="http://www.w3.org/2000/svg">
<path d="M12 2C10.0222 2 8.08879 2.58649 6.4443 3.6853C4.79981 4.78412 3.51809 6.3459 2.76121 8.17317C2.00433 10.0004 1.8063 12.0111 2.19215 13.9509C2.578 15.8907 3.53041 17.6725 4.92894 19.0711C6.32746 20.4696 8.10929 21.422 10.0491 21.8079C11.9889 22.1937 13.9996 21.9957 15.8268 21.2388C17.6541 20.4819 19.2159 19.2002 20.3147 17.5557C21.4135 15.9112 22 13.9778 22 12C22 10.6868 21.7413 9.38642 21.2388 8.17317C20.7363 6.95991 19.9997 5.85752 19.0711 4.92893C18.1425 4.00035 17.0401 3.26375 15.8268 2.7612C14.6136 2.25866 13.3132 2 12 2ZM13 19.9305V18H11V19.93C9.06718 19.6882 7.28917 18.7489 6.00011 17.2886C4.71106 15.8282 3.99969 13.9474 3.99969 11.9995C3.99969 10.0516 4.71106 8.17077 6.00011 6.71042C7.28917 5.25008 9.06718 4.31077 11 4.069V6H13V4.0695C14.9328 4.31127 16.7108 5.25058 17.9999 6.71092C19.289 8.17127 20.0003 10.0521 20.0003 12C20.0003 13.9479 19.289 15.8287 17.9999 17.2891C16.7108 18.7494 14.9328 19.6887 13 19.9305ZM15.6445 10.6505C15.3775 10.6505 15.1165 10.7297 14.8945 10.878C14.6725 11.0264 14.4994 11.2372 14.3973 11.4839C14.2951 11.7306 14.2684 12.002 14.3204 12.2639C14.3725 12.5257 14.5011 12.7663 14.6899 12.9551C14.8787 13.1439 15.1193 13.2725 15.3811 13.3246C15.643 13.3766 15.9144 13.3499 16.1611 13.2477C16.4078 13.1456 16.6186 12.9725 16.767 12.7505C16.9153 12.5285 16.9945 12.2675 16.9945 12.0005C16.9946 11.8232 16.9597 11.6476 16.8919 11.4837C16.8241 11.3199 16.7246 11.171 16.5993 11.0456C16.4739 10.9202 16.3251 10.8207 16.1612 10.7528C15.9974 10.6849 15.8218 10.65 15.6445 10.65V10.6505ZM8.3555 10.6505C8.08848 10.6505 7.82746 10.7297 7.60546 10.8781C7.38346 11.0265 7.21044 11.2374 7.10829 11.4841C7.00614 11.7308 6.97945 12.0022 7.03159 12.2641C7.08373 12.526 7.21237 12.7665 7.40122 12.9553C7.59008 13.1441 7.83067 13.2726 8.09258 13.3246C8.35448 13.3767 8.62593 13.3498 8.8726 13.2476C9.11926 13.1453 9.33006 12.9722 9.47834 12.7501C9.62661 12.5281 9.7057 12.267 9.7056 12C9.7056 11.8227 9.67068 11.6472 9.60283 11.4834C9.53498 11.3196 9.43553 11.1707 9.31016 11.0454C9.18479 10.92 9.03596 10.8206 8.87216 10.7527C8.70836 10.6849 8.5328 10.65 8.3555 10.65V10.6505Z" fill="black"/>
</svg>
