<svg width="24" height="24" viewBox="0 0 24 24" fill="none" xmlns="http://www.w3.org/2000/svg">
<path d="M12 16C13.0605 15.999 14.0774 15.5773 14.8273 14.8273C15.5772 14.0774 15.999 13.0606 16 12V5.00004C16 3.93918 15.5786 2.92176 14.8284 2.17162C14.0783 1.42147 13.0609 1.00004 12 1.00004C10.9391 1.00004 9.92172 1.42147 9.17157 2.17162C8.42143 2.92176 8 3.93918 8 5.00004V12C8.00103 13.0606 8.42279 14.0774 9.17271 14.8273C9.92264 15.5773 10.9395 15.999 12 16ZM8.5 5.00004C8.5 4.07178 8.86875 3.18155 9.52513 2.52517C10.1815 1.86879 11.0717 1.50004 12 1.50004C12.9283 1.50004 13.8185 1.86879 14.4749 2.52517C15.1313 3.18155 15.5 4.07178 15.5 5.00004V12C15.5 12.9283 15.1313 13.8185 14.4749 14.4749C13.8185 15.1313 12.9283 15.5 12 15.5C11.0717 15.5 10.1815 15.1313 9.52513 14.4749C8.86875 13.8185 8.5 12.9283 8.5 12V5.00004ZM19.5 12C19.5 13.9892 18.7098 15.8968 17.3033 17.3033C15.8968 18.7099 13.9891 19.5 12 19.5C10.0109 19.5 8.10322 18.7099 6.6967 17.3033C5.29018 15.8968 4.5 13.9892 4.5 12V10H4V12C4.00085 14.0774 4.81029 16.0729 6.25688 17.5638C7.70348 19.0547 9.67361 19.9239 11.75 19.9874V23H12.25V19.9874C14.3264 19.9239 16.2965 19.0547 17.7431 17.5638C19.1897 16.0729 19.9992 14.0774 20 12V10H19.5V12ZM23.6143 1.23934L23.2607 0.885742L21 3.14654L18.7393 0.885742L18.3857 1.23934L20.6465 3.50004L18.3857 5.76074L18.7393 6.11434L21 3.85354L23.2607 6.11434L23.6143 5.76074L21.3535 3.50004L23.6143 1.23934Z" fill="black"/>
</svg>
