<svg width="24" height="24" viewBox="0 0 24 24" fill="none" xmlns="http://www.w3.org/2000/svg">
<path d="M19.6666 3H3.66663C3.13619 3 2.62749 3.21071 2.25241 3.58579C1.87734 3.96086 1.66663 4.46957 1.66663 5V14C1.66663 14.5304 1.87734 15.0391 2.25241 15.4142C2.62749 15.7893 3.13619 16 3.66663 16H19.6666C20.1971 16 20.7058 15.7893 21.0808 15.4142C21.4559 15.0391 21.6666 14.5304 21.6666 14V5C21.6666 4.46957 21.4559 3.96086 21.0808 3.58579C20.7058 3.21071 20.1971 3 19.6666 3ZM14.6666 18.0278V17H8.66663V18.0278C8.66662 18.2135 8.6149 18.3955 8.51726 18.5535C8.41963 18.7115 8.27993 18.8392 8.11383 18.9222L6.66663 19.6458V21H16.6666V19.6458L15.22 18.9222C15.0538 18.8392 14.914 18.7116 14.8163 18.5536C14.7186 18.3956 14.6668 18.2136 14.6667 18.0278H14.6666Z" fill="black"/>
</svg>
