<svg width="24" height="24" viewBox="0 0 24 24" fill="none" xmlns="http://www.w3.org/2000/svg">
<path d="M12 21C10.0189 21.0017 8.09269 20.3491 6.52057 19.1436C4.94844 17.9382 3.81839 16.2473 3.30593 14.3336C2.79348 12.4199 2.92731 10.3906 3.68663 8.56081C4.44596 6.73101 5.78827 5.20317 7.50509 4.2146L7.00389 3.3464C5.48423 4.22402 4.22238 5.48621 3.34517 7.0061C2.46795 8.526 2.00629 10.25 2.00659 12.0049C2.00689 13.7598 2.46914 15.4836 3.34687 17.0032C4.22461 18.5228 5.48689 19.7846 7.00685 20.6617C8.5268 21.5388 10.2509 22.0003 12.0057 21.9999C13.7606 21.9995 15.4844 21.5371 17.004 20.6592C18.5235 19.7814 19.7852 18.519 20.6622 16.999C21.5391 15.479 22.0006 13.7549 22 12H21C20.9973 14.3861 20.0483 16.6738 18.361 18.361C16.6738 20.0483 14.3861 20.9974 12 21ZM22.4924 6.3273L23.7153 5.449C23.6331 5.05813 23.4922 4.68196 23.2974 4.3333C23.0929 3.99021 22.8376 3.68003 22.5403 3.4133L21.1682 4.0333L21.1577 4.0272L21.0085 2.5291C20.2469 2.2681 19.4201 2.2681 18.6585 2.5291L18.509 4.0273L18.4985 4.0334L17.1265 3.4134C16.8291 3.68011 16.5737 3.99028 16.3691 4.3334C16.1743 4.68207 16.0334 5.05819 15.9512 5.449L17.1741 6.3273V6.3394L15.9512 7.2178C16.0335 7.6086 16.1744 7.98472 16.3691 8.3334C16.5737 8.6765 16.8291 8.98668 17.1265 9.2534L18.4985 8.6334L18.509 8.6394L18.6582 10.1377C19.4198 10.3987 20.2466 10.3987 21.0082 10.1377L21.1576 8.6395L21.1681 8.6334L22.5402 9.2534C22.8374 8.98659 23.0927 8.67642 23.2973 8.3334C23.492 7.98472 23.6329 7.60861 23.7152 7.2178L22.4923 6.3395L22.4924 6.3273ZM22.8496 7.5193C22.7957 7.67142 22.7282 7.81835 22.6479 7.9583C22.5667 8.09774 22.4732 8.22969 22.3687 8.3526L21.4771 7.95L21.1165 7.7979L20.7837 7.9894L20.4497 8.1816L20.4114 8.5651L20.3145 9.5388C19.9965 9.5984 19.6703 9.5984 19.3523 9.5388L19.2554 8.5651L19.2065 8.1751L18.8726 7.9829L18.5396 7.7914L18.1896 7.9495L17.298 8.3523C17.0873 8.10679 16.9242 7.82425 16.8168 7.5191L17.6117 6.9482L17.924 6.7117V5.9425L17.6117 5.7181L16.8168 5.1473C16.9242 4.84213 17.0874 4.55957 17.298 4.314L18.1896 4.7169L18.5519 4.8697L18.8856 4.6758L19.2172 4.4832L19.2553 4.1016L19.3522 3.1281C19.6702 3.0685 19.9964 3.0685 20.3144 3.1281L20.4113 4.1017L20.4601 4.4924L20.7958 4.6844L21.1281 4.8744L21.477 4.7168L22.3686 4.314C22.4732 4.43684 22.5666 4.56876 22.6478 4.7082C22.7281 4.84815 22.7956 4.99508 22.8495 5.1472L22.0548 5.718L21.7423 5.9546V6.724L22.0548 6.9484L22.8496 7.5193ZM19.8333 5.5833C19.685 5.5833 19.5399 5.62729 19.4166 5.7097C19.2933 5.79211 19.1971 5.90924 19.1404 6.04629C19.0836 6.18333 19.0688 6.33413 19.0977 6.47962C19.1266 6.6251 19.1981 6.75874 19.303 6.86363C19.4078 6.96852 19.5415 7.03995 19.687 7.06889C19.8325 7.09783 19.9833 7.08298 20.1203 7.02621C20.2573 6.96944 20.3745 6.87331 20.4569 6.74998C20.5393 6.62664 20.5833 6.48164 20.5833 6.3333C20.5833 6.13439 20.5043 5.94362 20.3636 5.80297C20.223 5.66232 20.0322 5.5833 19.8333 5.5833ZM12.5 2H11.5V12H12.5V2Z" fill="black"/>
</svg>
