<svg width="24" height="24" viewBox="0 0 24 24" fill="none" xmlns="http://www.w3.org/2000/svg">
<path d="M16 2.99998H13.5764C13.5764 2.5819 13.4103 2.18093 13.1147 1.8853C12.8191 1.58967 12.4181 1.42358 12 1.42358C11.5819 1.42358 11.1809 1.58967 10.8853 1.8853C10.5897 2.18093 10.4236 2.5819 10.4236 2.99998H8C7.20435 2.99998 6.44129 3.31605 5.87868 3.87866C5.31607 4.44127 5 5.20433 5 5.99998V20C5 20.7956 5.31607 21.5587 5.87868 22.1213C6.44129 22.6839 7.20435 23 8 23H16C16.7956 23 17.5587 22.6839 18.1213 22.1213C18.6839 21.5587 19 20.7956 19 20V5.99998C19 5.20433 18.6839 4.44127 18.1213 3.87866C17.5587 3.31605 16.7956 2.99998 16 2.99998ZM14.9326 14.9424L13.9426 15.9324L12 13.99L10.0576 15.9324L9.0676 14.9424L11.01 13L9.0674 11.0576L10.0574 10.0676L12 12.01L13.9424 10.0676L14.9324 11.0576L12.99 13L14.9326 14.9424Z" fill="black"/>
</svg>
