<svg width="24" height="24" viewBox="0 0 24 24" fill="none" xmlns="http://www.w3.org/2000/svg">
<path d="M19.5 5.00005H4.5C3.83696 5.00005 3.20107 5.26344 2.73223 5.73228C2.26339 6.20112 2 6.83701 2 7.50005V16.5C2 17.1631 2.26339 17.799 2.73223 18.2678C3.20107 18.7367 3.83696 19 4.5 19H19.5C20.163 19 20.7989 18.7367 21.2678 18.2678C21.7366 17.799 22 17.1631 22 16.5V7.50005C22 6.83701 21.7366 6.20112 21.2678 5.73228C20.7989 5.26344 20.163 5.00005 19.5 5.00005ZM20 16.5C20 16.6327 19.9473 16.7598 19.8536 16.8536C19.7598 16.9474 19.6326 17 19.5 17H4.5C4.36739 17 4.24021 16.9474 4.14645 16.8536C4.05268 16.7598 4 16.6327 4 16.5V7.50005C4 7.36744 4.05268 7.24026 4.14645 7.1465C4.24021 7.05273 4.36739 7.00005 4.5 7.00005H19.5C19.6326 7.00005 19.7598 7.05273 19.8536 7.1465C19.9473 7.24026 20 7.36744 20 7.50005V16.5ZM9 3.05005C9 2.85114 8.92098 2.66037 8.78033 2.51972C8.63968 2.37907 8.44891 2.30005 8.25 2.30005H5.75C5.55109 2.30005 5.36032 2.37907 5.21967 2.51972C5.07902 2.66037 5 2.85114 5 3.05005V4.00005H9V3.05005ZM13.6875 8.50005C12.9953 8.50005 12.3186 8.70532 11.743 9.0899C11.1674 9.47449 10.7188 10.0211 10.4539 10.6607C10.189 11.3002 10.1197 12.0039 10.2548 12.6829C10.3898 13.3618 10.7231 13.9854 11.2126 14.4749C11.7021 14.9644 12.3258 15.2977 13.0047 15.4328C13.6836 15.5678 14.3874 15.4985 15.0269 15.2336C15.6664 14.9687 16.2131 14.5201 16.5976 13.9445C16.9822 13.369 17.1875 12.6923 17.1875 12C17.1865 11.0721 16.8175 10.1824 16.1613 9.52626C15.5051 8.87009 14.6155 8.50103 13.6875 8.50005ZM13.6875 13.5C13.3908 13.5 13.1008 13.4121 12.8541 13.2473C12.6075 13.0824 12.4152 12.8482 12.3017 12.5741C12.1881 12.3 12.1584 11.9984 12.2163 11.7074C12.2742 11.4164 12.4171 11.1492 12.6268 10.9394C12.8366 10.7296 13.1039 10.5867 13.3949 10.5289C13.6858 10.471 13.9874 10.5007 14.2615 10.6142C14.5356 10.7278 14.7699 10.92 14.9347 11.1667C15.0995 11.4134 15.1875 11.7034 15.1875 12C15.187 12.3977 15.0289 12.779 14.7477 13.0602C14.4665 13.3414 14.0852 13.4996 13.6875 13.5Z" fill="black"/>
</svg>
