<svg width="24" height="24" viewBox="0 0 24 24" fill="none" xmlns="http://www.w3.org/2000/svg">
<path d="M19 6H17.1416L15.4092 3H8.5908L6.8584 6H5C4.20462 6.00087 3.44206 6.31722 2.87964 6.87964C2.31722 7.44206 2.00087 8.20462 2 9V18C2.00087 18.7954 2.31722 19.5579 2.87964 20.1204C3.44206 20.6828 4.20462 20.9991 5 21H19C19.7954 20.9991 20.5579 20.6828 21.1204 20.1204C21.6828 19.5579 21.9991 18.7954 22 18V9C21.9991 8.20462 21.6828 7.44206 21.1204 6.87964C20.5579 6.31722 19.7954 6.00087 19 6ZM20 18C19.9997 18.2651 19.8943 18.5193 19.7068 18.7068C19.5193 18.8943 19.2651 18.9997 19 19H5C4.73487 18.9997 4.48069 18.8943 4.29321 18.7068C4.10574 18.5193 4.00029 18.2651 4 18V9C4.00029 8.73487 4.10574 8.48069 4.29321 8.29321C4.48069 8.10574 4.73487 8.00029 5 8H8.0129L8.59 7L9.7454 5H14.2546L15.41 7L15.9874 8H19C19.2651 8.00029 19.5193 8.10574 19.7068 8.29321C19.8943 8.48069 19.9997 8.73487 20 9V18ZM12 9C11.2089 9 10.4355 9.2346 9.77772 9.67412C9.11992 10.1136 8.60723 10.7384 8.30448 11.4693C8.00173 12.2002 7.92252 13.0044 8.07686 13.7804C8.2312 14.5563 8.61216 15.269 9.17157 15.8284C9.73098 16.3878 10.4437 16.7688 11.2196 16.9231C11.9956 17.0775 12.7998 16.9983 13.5307 16.6955C14.2616 16.3928 14.8864 15.8801 15.3259 15.2223C15.7654 14.5645 16 13.7911 16 13C15.9989 11.9395 15.5771 10.9227 14.8272 10.1728C14.0773 9.4229 13.0605 9.00111 12 9ZM12 15C11.6044 15 11.2178 14.8827 10.8889 14.6629C10.56 14.4432 10.3036 14.1308 10.1522 13.7654C10.0009 13.3999 9.96126 12.9978 10.0384 12.6098C10.1156 12.2219 10.3061 11.8655 10.5858 11.5858C10.8655 11.3061 11.2219 11.1156 11.6098 11.0384C11.9978 10.9613 12.3999 11.0009 12.7654 11.1522C13.1308 11.3036 13.4432 11.56 13.6629 11.8889C13.8827 12.2178 14 12.6044 14 13C13.9994 13.5302 13.7885 14.0386 13.4135 14.4135C13.0386 14.7885 12.5302 14.9994 12 15Z" fill="black"/>
</svg>
