<svg width="24" height="24" viewBox="0 0 24 24" fill="none" xmlns="http://www.w3.org/2000/svg">
<path d="M20 3H4C3.20435 3 2.44129 3.31607 1.87868 3.87868C1.31607 4.44129 1 5.20435 1 6V16C1 16.7956 1.31607 17.5587 1.87868 18.1213C2.44129 18.6839 3.20435 19 4 19H20C20.7956 19 21.5587 18.6839 22.1213 18.1213C22.6839 17.5587 23 16.7956 23 16V6C23 5.20435 22.6839 4.44129 22.1213 3.87868C21.5587 3.31607 20.7956 3 20 3ZM21.5 16C21.4995 16.3977 21.3414 16.779 21.0602 17.0602C20.779 17.3414 20.3977 17.4995 20 17.5H4C3.60231 17.4995 3.22104 17.3414 2.93984 17.0602C2.65863 16.779 2.50045 16.3977 2.5 16V6C2.50045 5.60231 2.65863 5.22104 2.93984 4.93984C3.22104 4.65863 3.60231 4.50045 4 4.5H20C20.3977 4.50045 20.779 4.65863 21.0602 4.93984C21.3414 5.22104 21.4995 5.60231 21.5 6V16ZM8 15H16V13H8V15ZM13 10H11V12H13V10ZM13 7H11V9H13V7ZM10 10H8V12H10V10ZM10 7H8V9H10V7ZM5 12H7V10H5V12ZM5 15H7V13H5V15ZM17 15H19V13H17V15ZM5 9H7V7H5V9ZM14 12H16V10H14V12ZM14 9H16V7H14V9ZM17 12H19V10H17V12ZM17 9H19V7H17V9ZM12 24L14.5 21.5H9.5L12 24Z" fill="black"/>
</svg>
