<svg width="24" height="24" viewBox="0 0 24 24" fill="none" xmlns="http://www.w3.org/2000/svg">
<path d="M19 6H17.1416L15.4092 3H8.5908L6.8584 6H5C4.20462 6.00087 3.44206 6.31722 2.87964 6.87964C2.31722 7.44206 2.00087 8.20462 2 9V18C2.00087 18.7954 2.31722 19.5579 2.87964 20.1204C3.44206 20.6828 4.20462 20.9991 5 21H19C19.7954 20.9991 20.5579 20.6828 21.1204 20.1204C21.6828 19.5579 21.9991 18.7954 22 18V9C21.9991 8.20462 21.6828 7.44206 21.1204 6.87964C20.5579 6.31722 19.7954 6.00087 19 6ZM20.5 18C20.4995 18.3977 20.3414 18.779 20.0602 19.0602C19.779 19.3414 19.3977 19.4995 19 19.5H5C4.60231 19.4995 4.22104 19.3414 3.93984 19.0602C3.65863 18.779 3.50045 18.3977 3.5 18V9C3.50045 8.60231 3.65863 8.22104 3.93984 7.93984C4.22104 7.65863 4.60231 7.50045 5 7.5H7.7244L8.1573 6.75L9.4573 4.5H14.5437L15.8437 6.75L16.2766 7.5H19C19.3977 7.50045 19.779 7.65863 20.0602 7.93984C20.3414 8.22104 20.4995 8.60231 20.5 9V18ZM12 9C11.2089 9 10.4355 9.2346 9.77772 9.67412C9.11992 10.1136 8.60723 10.7384 8.30448 11.4693C8.00173 12.2002 7.92252 13.0044 8.07686 13.7804C8.2312 14.5563 8.61216 15.269 9.17157 15.8284C9.73098 16.3878 10.4437 16.7688 11.2196 16.9231C11.9956 17.0775 12.7998 16.9983 13.5307 16.6955C14.2616 16.3928 14.8864 15.8801 15.3259 15.2223C15.7654 14.5645 16 13.7911 16 13C15.9989 11.9395 15.5771 10.9227 14.8272 10.1728C14.0773 9.4229 13.0605 9.00111 12 9ZM12 15.5C11.5055 15.5 11.0222 15.3534 10.6111 15.0787C10.2 14.804 9.87952 14.4135 9.6903 13.9567C9.50108 13.4999 9.45157 12.9972 9.54804 12.5123C9.6445 12.0273 9.8826 11.5819 10.2322 11.2322C10.5819 10.8826 11.0273 10.6445 11.5123 10.548C11.9972 10.4516 12.4999 10.5011 12.9567 10.6903C13.4135 10.8795 13.804 11.2 14.0787 11.6111C14.3534 12.0222 14.5 12.5055 14.5 13C14.4993 13.6628 14.2356 14.2983 13.7669 14.7669C13.2983 15.2356 12.6628 15.4993 12 15.5Z" fill="black"/>
</svg>
