<svg width="24" height="24" viewBox="0 0 24 24" fill="none" xmlns="http://www.w3.org/2000/svg">
<path d="M6.5 15.7499C6.64834 15.7499 6.79334 15.7059 6.91668 15.6235C7.04001 15.5411 7.13614 15.424 7.19291 15.2869C7.24968 15.1499 7.26453 14.9991 7.23559 14.8536C7.20665 14.7081 7.13522 14.5745 7.03033 14.4696C6.92544 14.3647 6.7918 14.2933 6.64632 14.2643C6.50083 14.2354 6.35003 14.2502 6.21299 14.307C6.07594 14.3638 5.95881 14.4599 5.8764 14.5832C5.79399 14.7066 5.75 14.8516 5.75 14.9999C5.75 15.1988 5.82902 15.3896 5.96967 15.5302C6.11032 15.6709 6.30109 15.7499 6.5 15.7499ZM4.58 9.99991L21.1351 4.09691L20.7939 3.15991L2 9.99991V17.9999C2 18.5303 2.21071 19.0391 2.58579 19.4141C2.96086 19.7892 3.46957 19.9999 4 19.9999H20C20.5304 19.9999 21.0391 19.7892 21.4142 19.4141C21.7893 19.0391 22 18.5303 22 17.9999V9.99991H4.58ZM21 17.9999C20.9997 18.265 20.8943 18.5192 20.7068 18.7067C20.5193 18.8942 20.2651 18.9996 20 18.9999H4C3.73487 18.9996 3.48069 18.8942 3.29321 18.7067C3.10574 18.5192 3.00029 18.265 3 17.9999V10.9999H21V17.9999Z" fill="black"/>
</svg>
