<svg width="24" height="24" viewBox="0 0 24 24" fill="none" xmlns="http://www.w3.org/2000/svg">
<path d="M14 1H10C9.46957 1 8.96086 1.21071 8.58579 1.58579C8.21071 1.96086 8 2.46957 8 3V21C8 21.5304 8.21071 22.0391 8.58579 22.4142C8.96086 22.7893 9.46957 23 10 23H14C14.5304 23 15.0391 22.7893 15.4142 22.4142C15.7893 22.0391 16 21.5304 16 21V3C16 2.46957 15.7893 1.96086 15.4142 1.58579C15.0391 1.21071 14.5304 1 14 1ZM9 9C9 8.20435 9.31607 7.44129 9.87868 6.87868C10.4413 6.31607 11.2044 6 12 6C12.7956 6 13.5587 6.31607 14.1213 6.87868C14.6839 7.44129 15 8.20435 15 9V15C15 15.7956 14.6839 16.5587 14.1213 17.1213C13.5587 17.6839 12.7956 18 12 18C11.2044 18 10.4413 17.6839 9.87868 17.1213C9.31607 16.5587 9 15.7956 9 15V9ZM15 21C14.9997 21.2651 14.8943 21.5193 14.7068 21.7068C14.5193 21.8943 14.2651 21.9997 14 22H10C9.73487 21.9997 9.48069 21.8943 9.29321 21.7068C9.10574 21.5193 9.00029 21.2651 9 21V17.6205C9.37099 18.0532 9.83119 18.4005 10.349 18.6386C10.8668 18.8767 11.43 19 12 19C12.57 19 13.1332 18.8767 13.651 18.6386C14.1688 18.4005 14.629 18.0532 15 17.6205V21ZM12 5C11.4302 5.0015 10.8675 5.1255 10.3499 5.36361C9.83224 5.60171 9.37188 5.94835 9 6.38V3C9.00029 2.73487 9.10574 2.48069 9.29321 2.29321C9.48069 2.10574 9.73487 2.00029 10 2H14C14.2651 2.00029 14.5193 2.10574 14.7068 2.29321C14.8943 2.48069 14.9997 2.73487 15 3V6.38C14.6281 5.94834 14.1678 5.6017 13.6501 5.3636C13.1325 5.1255 12.5698 5.00149 12 5Z" fill="black"/>
</svg>
