<svg width="24" height="24" viewBox="0 0 24 24" fill="none" xmlns="http://www.w3.org/2000/svg">
<path d="M8.6667 19H15.3333V17.7H8.6667V19ZM8.6667 8.29998H15.3333V6.99998H8.6667V8.29998ZM8.6667 11.8666H15.3333V10.5666H8.6667V11.8666ZM8.6667 15.4333H15.3333V14.1333H8.6667V15.4333ZM16 2.99998H13.5764C13.5764 2.5819 13.4103 2.18093 13.1147 1.8853C12.8191 1.58967 12.4181 1.42358 12 1.42358C11.5819 1.42358 11.1809 1.58967 10.8853 1.8853C10.5897 2.18093 10.4236 2.5819 10.4236 2.99998H8C7.20435 2.99998 6.44129 3.31605 5.87868 3.87866C5.31607 4.44127 5 5.20433 5 5.99998V20C5 20.7956 5.31607 21.5587 5.87868 22.1213C6.44129 22.6839 7.20435 23 8 23H16C16.7956 23 17.5587 22.6839 18.1213 22.1213C18.6839 21.5587 19 20.7956 19 20V5.99998C19 5.20433 18.6839 4.44127 18.1213 3.87866C17.5587 3.31605 16.7956 2.99998 16 2.99998ZM17.5 20C17.4995 20.3977 17.3414 20.7789 17.0602 21.0601C16.779 21.3414 16.3977 21.4995 16 21.5H8C7.60231 21.4995 7.22104 21.3414 6.93984 21.0601C6.65863 20.7789 6.50045 20.3977 6.5 20V5.99998C6.50045 5.6023 6.65863 5.22103 6.93984 4.93982C7.22104 4.65861 7.60231 4.50043 8 4.49998H16C16.3977 4.50043 16.779 4.65861 17.0602 4.93982C17.3414 5.22103 17.4995 5.6023 17.5 5.99998V20Z" fill="black"/>
</svg>
