<svg width="24" height="24" viewBox="0 0 24 24" fill="none" xmlns="http://www.w3.org/2000/svg">
<path d="M12 2C10.6868 2 9.38642 2.25866 8.17317 2.7612C6.95991 3.26375 5.85752 4.00035 4.92893 4.92893C3.05357 6.8043 2 9.34784 2 12V17C2 17.7956 2.31607 18.5587 2.87868 19.1213C3.44129 19.6839 4.20435 20 5 20H7V11H5C4.26504 11.0021 3.55683 11.276 3.0117 11.7689C3.0692 9.4232 4.04142 7.19291 5.72078 5.5542C7.40015 3.9155 9.65359 2.99823 12 2.99823C14.3464 2.99823 16.5999 3.9155 18.2792 5.5542C19.9586 7.19291 20.9308 9.4232 20.9883 11.7689C20.4432 11.276 19.735 11.0021 19 11H17V20H19C19.7956 20 20.5587 19.6839 21.1213 19.1213C21.6839 18.5587 22 17.7956 22 17V12C22 10.6868 21.7413 9.38642 21.2388 8.17317C20.7362 6.95991 19.9997 5.85752 19.0711 4.92893C18.1425 4.00035 17.0401 3.26375 15.8268 2.7612C14.6136 2.25866 13.3132 2 12 2ZM5 12H6V19H5C4.46975 18.9994 3.9614 18.7885 3.58646 18.4135C3.21152 18.0386 3.00061 17.5302 3 17V14C3.00061 13.4698 3.21152 12.9614 3.58646 12.5865C3.9614 12.2115 4.46975 12.0006 5 12ZM21 17C20.9994 17.5302 20.7885 18.0386 20.4135 18.4135C20.0386 18.7885 19.5302 18.9994 19 19H18V12H19C19.5302 12.0006 20.0386 12.2115 20.4135 12.5865C20.7885 12.9614 20.9994 13.4698 21 14V17Z" fill="black"/>
</svg>
