<svg width="24" height="24" viewBox="0 0 24 24" fill="none" xmlns="http://www.w3.org/2000/svg">
<path d="M19 5H13.9062L15.6915 2H13.7134L12 4.8789L10.2866 2H8.3085L10.0938 5H5C4.20435 5 3.44129 5.31607 2.87868 5.87868C2.31607 6.44129 2 7.20435 2 8V18C2 18.7956 2.31607 19.5587 2.87868 20.1213C3.44129 20.6839 4.20435 21 5 21H19C19.7956 21 20.5587 20.6839 21.1213 20.1213C21.6839 19.5587 22 18.7956 22 18V8C22 7.20435 21.6839 6.44129 21.1213 5.87868C20.5587 5.31607 19.7956 5 19 5ZM20 18C20 18.2652 19.8946 18.5196 19.7071 18.7071C19.5196 18.8946 19.2652 19 19 19H5C4.73478 19 4.48043 18.8946 4.29289 18.7071C4.10536 18.5196 4 18.2652 4 18V8C4 7.73478 4.10536 7.48043 4.29289 7.29289C4.48043 7.10536 4.73478 7 5 7H19C19.2652 7 19.5196 7.10536 19.7071 7.29289C19.8946 7.48043 20 7.73478 20 8V18ZM6 17H15V9H6V17ZM7.9 10.9H13.1V15.1H7.9V10.9ZM17.5 9C17.2726 9 17.0502 9.06745 16.8611 9.19381C16.672 9.32017 16.5246 9.49978 16.4375 9.70991C16.3505 9.92005 16.3277 10.1513 16.3721 10.3744C16.4165 10.5974 16.526 10.8023 16.6868 10.9632C16.8477 11.124 17.0526 11.2335 17.2756 11.2779C17.4987 11.3223 17.73 11.2995 17.9401 11.2125C18.1502 11.1254 18.3298 10.978 18.4562 10.7889C18.5826 10.5998 18.65 10.3774 18.65 10.15C18.65 9.845 18.5288 9.55249 18.3132 9.33683C18.0975 9.12116 17.805 9 17.5 9ZM17.5 13C17.2726 13 17.0502 13.0674 16.8611 13.1938C16.672 13.3202 16.5246 13.4998 16.4375 13.7099C16.3505 13.92 16.3277 14.1513 16.3721 14.3744C16.4165 14.5974 16.526 14.8023 16.6868 14.9632C16.8477 15.124 17.0526 15.2335 17.2756 15.2779C17.4987 15.3223 17.73 15.2995 17.9401 15.2125C18.1502 15.1254 18.3298 14.978 18.4562 14.7889C18.5826 14.5998 18.65 14.3774 18.65 14.15C18.65 13.999 18.6203 13.8494 18.5625 13.7099C18.5047 13.5704 18.42 13.4436 18.3132 13.3368C18.2064 13.23 18.0796 13.1453 17.9401 13.0875C17.8006 13.0297 17.651 13 17.5 13Z" fill="black"/>
</svg>
