<svg width="24" height="24" viewBox="0 0 24 24" fill="none" xmlns="http://www.w3.org/2000/svg">
<path d="M15.5 2H8.5C7.83696 2 7.20107 2.26339 6.73223 2.73223C6.26339 3.20107 6 3.83696 6 4.5V19.5C6 20.163 6.26339 20.7989 6.73223 21.2678C7.20107 21.7366 7.83696 22 8.5 22H15.5C16.163 22 16.7989 21.7366 17.2678 21.2678C17.7366 20.7989 18 20.163 18 19.5V4.5C18 3.83696 17.7366 3.20107 17.2678 2.73223C16.7989 2.26339 16.163 2 15.5 2ZM10.78 4.9C10.691 4.9 10.604 4.87361 10.53 4.82416C10.456 4.77471 10.3983 4.70443 10.3643 4.62221C10.3302 4.53998 10.3213 4.4495 10.3386 4.36221C10.356 4.27492 10.3989 4.19474 10.4618 4.1318C10.5247 4.06887 10.6049 4.02601 10.6922 4.00865C10.7795 3.99128 10.87 4.00019 10.9522 4.03425C11.0344 4.06831 11.1047 4.12599 11.1542 4.19999C11.2036 4.274 11.23 4.361 11.23 4.45C11.23 4.56935 11.1826 4.68381 11.0982 4.7682C11.0138 4.85259 10.8993 4.9 10.78 4.9ZM13.22 4.9C13.131 4.9 13.044 4.87361 12.97 4.82416C12.896 4.77471 12.8383 4.70443 12.8043 4.62221C12.7702 4.53998 12.7613 4.4495 12.7786 4.36221C12.796 4.27492 12.8389 4.19474 12.9018 4.1318C12.9647 4.06887 13.0449 4.02601 13.1322 4.00865C13.2195 3.99128 13.31 4.00019 13.3922 4.03425C13.4744 4.06831 13.5447 4.12599 13.5942 4.19999C13.6436 4.274 13.67 4.361 13.67 4.45C13.67 4.56935 13.6226 4.68381 13.5382 4.7682C13.4538 4.85259 13.3393 4.9 13.22 4.9Z" fill="black"/>
</svg>
