<svg width="24" height="24" viewBox="0 0 24 24" fill="none" xmlns="http://www.w3.org/2000/svg">
<path d="M16 5.1414V3C16 2.46957 15.7893 1.96086 15.4142 1.58579C15.0391 1.21071 14.5304 1 14 1H10C9.46957 1 8.96086 1.21071 8.58579 1.58579C8.21071 1.96086 8 2.46957 8 3V5.1414C7.14297 5.36103 6.38322 5.85924 5.84018 6.5577C5.29713 7.25616 5.00159 8.11527 5 9V15C5.00161 15.8847 5.29716 16.7438 5.8402 17.4423C6.38324 18.1407 7.14298 18.639 8 18.8586V21C8 21.5304 8.21071 22.0391 8.58579 22.4142C8.96086 22.7893 9.46957 23 10 23H14C14.5304 23 15.0391 22.7893 15.4142 22.4142C15.7893 22.0391 16 21.5304 16 21V18.8586C16.857 18.639 17.6168 18.1407 18.1598 17.4423C18.7028 16.7438 18.9984 15.8847 19 15V9C18.9984 8.11527 18.7029 7.25616 18.1598 6.5577C17.6168 5.85924 16.857 5.36103 16 5.1414ZM10 2.5H14C14.1326 2.50016 14.2596 2.55289 14.3534 2.64662C14.4471 2.74036 14.4998 2.86744 14.5 3V5H9.5V3C9.50016 2.86744 9.55289 2.74036 9.64662 2.64662C9.74036 2.55289 9.86744 2.50016 10 2.5ZM14 21.5H10C9.86744 21.4998 9.74036 21.4471 9.64662 21.3534C9.55289 21.2596 9.50016 21.1326 9.5 21V19H14.5V21C14.4998 21.1326 14.4471 21.2596 14.3534 21.3534C14.2596 21.4471 14.1326 21.4998 14 21.5ZM17.5 15C17.4993 15.6628 17.2356 16.2983 16.7669 16.7669C16.2983 17.2356 15.6628 17.4993 15 17.5H9C8.33719 17.4993 7.70173 17.2356 7.23305 16.7669C6.76437 16.2983 6.50074 15.6628 6.5 15V9C6.50074 8.33719 6.76437 7.70173 7.23305 7.23305C7.70173 6.76437 8.33719 6.50074 9 6.5H15C15.6628 6.50074 16.2983 6.76437 16.7669 7.23305C17.2356 7.70173 17.4993 8.33719 17.5 9V15Z" fill="black"/>
</svg>
