<svg width="24" height="24" viewBox="0 0 24 24" fill="none" xmlns="http://www.w3.org/2000/svg">
<path d="M16.6445 13.5C16.9412 13.5 17.2312 13.412 17.4779 13.2472C17.7245 13.0824 17.9168 12.8481 18.0303 12.574C18.1439 12.2999 18.1736 11.9983 18.1157 11.7074C18.0578 11.4164 17.9149 11.1491 17.7052 10.9393C17.4954 10.7296 17.2281 10.5867 16.9371 10.5288C16.6462 10.4709 16.3446 10.5006 16.0705 10.6142C15.7964 10.7277 15.5621 10.92 15.3973 11.1666C15.2325 11.4133 15.1445 11.7033 15.1445 12C15.1445 12.3978 15.3025 12.7794 15.5838 13.0607C15.8651 13.342 16.2467 13.5 16.6445 13.5ZM16.6445 11C16.8423 11 17.0356 11.0586 17.2001 11.1685C17.3645 11.2784 17.4927 11.4346 17.5684 11.6173C17.6441 11.8 17.6639 12.0011 17.6253 12.1951C17.5867 12.3891 17.4915 12.5673 17.3516 12.7071C17.2118 12.847 17.0336 12.9422 16.8396 12.9808C16.6456 13.0194 16.4445 12.9996 16.2618 12.9239C16.0791 12.8482 15.9229 12.72 15.813 12.5556C15.7031 12.3911 15.6445 12.1978 15.6445 12C15.6448 11.7349 15.7502 11.4807 15.9377 11.2932C16.1252 11.1057 16.3794 11.0003 16.6445 11ZM12 10.5C12.2967 10.5 12.5867 10.412 12.8334 10.2472C13.08 10.0824 13.2723 9.84811 13.3858 9.57403C13.4994 9.29994 13.5291 8.99834 13.4712 8.70736C13.4133 8.41639 13.2704 8.14912 13.0607 7.93934C12.8509 7.72956 12.5836 7.5867 12.2926 7.52882C12.0017 7.47094 11.7001 7.50065 11.426 7.61418C11.1519 7.72771 10.9176 7.91997 10.7528 8.16665C10.588 8.41332 10.5 8.70333 10.5 9C10.5 9.39782 10.658 9.77936 10.9393 10.0607C11.2206 10.342 11.6022 10.5 12 10.5ZM12 8C12.1978 8 12.3911 8.05865 12.5556 8.16853C12.72 8.27841 12.8482 8.43459 12.9239 8.61732C12.9996 8.80004 13.0194 9.00111 12.9808 9.19509C12.9422 9.38907 12.847 9.56725 12.7071 9.70711C12.5673 9.84696 12.3891 9.9422 12.1951 9.98079C12.0011 10.0194 11.8 9.99957 11.6173 9.92388C11.4346 9.84819 11.2784 9.72002 11.1685 9.55557C11.0586 9.39112 11 9.19778 11 9C11.0003 8.73487 11.1057 8.48069 11.2932 8.29321C11.4807 8.10574 11.7349 8.00029 12 8ZM7.3555 13.5C7.65217 13.5 7.94218 13.412 8.18886 13.2472C8.43553 13.0824 8.62779 12.8481 8.74132 12.574C8.85485 12.2999 8.88456 11.9983 8.82668 11.7074C8.7688 11.4164 8.62594 11.1491 8.41616 10.9393C8.20638 10.7296 7.93911 10.5867 7.64814 10.5288C7.35716 10.4709 7.05556 10.5006 6.78148 10.6142C6.50739 10.7277 6.27312 10.92 6.1083 11.1666C5.94347 11.4133 5.8555 11.7033 5.8555 12C5.8555 12.3978 6.01354 12.7794 6.29484 13.0607C6.57614 13.342 6.95768 13.5 7.3555 13.5ZM7.3555 11C7.55328 11 7.74662 11.0586 7.91107 11.1685C8.07552 11.2784 8.20369 11.4346 8.27938 11.6173C8.35507 11.8 8.37487 12.0011 8.33629 12.1951C8.2977 12.3891 8.20246 12.5673 8.06261 12.7071C7.92275 12.847 7.74457 12.9422 7.55059 12.9808C7.35661 13.0194 7.15554 12.9996 6.97282 12.9239C6.79009 12.8482 6.63391 12.72 6.52403 12.5556C6.41415 12.3911 6.3555 12.1978 6.3555 12C6.35579 11.7349 6.46124 11.4807 6.64872 11.2932C6.83619 11.1057 7.09037 11.0003 7.3555 11ZM3 3V21H21V3H3ZM20.5 20.5H3.5V3.5H20.5V20.5Z" fill="black"/>
</svg>
