<svg width="24" height="24" viewBox="0 0 24 24" fill="none" xmlns="http://www.w3.org/2000/svg">
<path d="M16.5 2H7.5C6.83696 2 6.20107 2.26339 5.73223 2.73223C5.26339 3.20107 5 3.83696 5 4.5V19.5C5 20.163 5.26339 20.7989 5.73223 21.2678C6.20107 21.7366 6.83696 22 7.5 22H16.5C17.163 22 17.7989 21.7366 18.2678 21.2678C18.7366 20.7989 19 20.163 19 19.5V4.5C19 3.83696 18.7366 3.20107 18.2678 2.73223C17.7989 2.26339 17.163 2 16.5 2ZM17.5 19.5C17.4997 19.7651 17.3943 20.0193 17.2068 20.2068C17.0193 20.3943 16.7651 20.4997 16.5 20.5H7.5C7.23487 20.4997 6.98069 20.3943 6.79321 20.2068C6.60574 20.0193 6.50029 19.7651 6.5 19.5V4.5C6.50029 4.23487 6.60574 3.98069 6.79321 3.79321C6.98069 3.60574 7.23487 3.50029 7.5 3.5H16.5C16.7651 3.50029 17.0193 3.60574 17.2068 3.79321C17.3943 3.98069 17.4997 4.23487 17.5 4.5V19.5ZM11.4167 15H12.5834V11.4722H11.4167V15ZM12 8.5729C11.8352 8.5729 11.674 8.62178 11.537 8.71336C11.3999 8.80494 11.2931 8.9351 11.23 9.08739C11.167 9.23968 11.1505 9.40726 11.1826 9.56892C11.2148 9.73059 11.2942 9.87909 11.4107 9.99564C11.5273 10.1122 11.6758 10.1916 11.8375 10.2237C11.9991 10.2558 12.1667 10.2393 12.319 10.1762C12.4713 10.1131 12.6014 10.0063 12.693 9.86924C12.7846 9.73217 12.8334 9.57104 12.8334 9.4062C12.8334 9.29676 12.8118 9.18839 12.77 9.08729C12.7281 8.98618 12.6667 8.89431 12.5893 8.81693C12.5119 8.73955 12.42 8.67817 12.3189 8.6363C12.2178 8.59443 12.1094 8.57289 12 8.5729Z" fill="black"/>
</svg>
