<svg width="24" height="24" viewBox="0 0 24 24" fill="none" xmlns="http://www.w3.org/2000/svg">
<path d="M12 6.5874C11.5495 6.5874 11.1091 6.72099 10.7345 6.97128C10.3599 7.22157 10.068 7.57731 9.89559 7.99352C9.72319 8.40974 9.67808 8.86773 9.76597 9.30958C9.85386 9.75143 10.0708 10.1573 10.3894 10.4758C10.7079 10.7944 11.1138 11.0113 11.5556 11.0992C11.9975 11.1871 12.4555 11.142 12.8717 10.9696C13.2879 10.7972 13.6436 10.5053 13.8939 10.1307C14.1442 9.7561 14.2778 9.31571 14.2778 8.8652C14.2778 8.56607 14.2189 8.26987 14.1044 7.99351C13.99 7.71715 13.8222 7.46604 13.6107 7.25452C13.3992 7.04301 13.1481 6.87523 12.8717 6.76076C12.5953 6.64629 12.2991 6.58739 12 6.5874ZM12 9.9763C11.7802 9.9763 11.5654 9.91114 11.3827 9.78905C11.2 9.66696 11.0576 9.49343 10.9735 9.2904C10.8894 9.08737 10.8674 8.86397 10.9103 8.64844C10.9531 8.4329 11.0589 8.23492 11.2143 8.07953C11.3697 7.92414 11.5677 7.81832 11.7832 7.77545C11.9988 7.73258 12.2222 7.75458 12.4252 7.83868C12.6282 7.92277 12.8018 8.06519 12.9239 8.24791C13.0459 8.43062 13.1111 8.64545 13.1111 8.8652C13.1108 9.15978 12.9936 9.44221 12.7853 9.65052C12.577 9.85882 12.2946 9.97598 12 9.9763ZM12 2C10.0222 2 8.08879 2.58649 6.4443 3.6853C4.79981 4.78412 3.51809 6.3459 2.76121 8.17317C2.00433 10.0004 1.8063 12.0111 2.19215 13.9509C2.578 15.8907 3.53041 17.6725 4.92894 19.0711C6.32746 20.4696 8.10929 21.422 10.0491 21.8079C11.9889 22.1937 13.9996 21.9957 15.8268 21.2388C17.6541 20.4819 19.2159 19.2002 20.3147 17.5557C21.4135 15.9112 22 13.9778 22 12C22 10.6868 21.7413 9.38642 21.2388 8.17317C20.7363 6.95991 19.9997 5.85752 19.0711 4.92893C18.1425 4.00035 17.0401 3.26375 15.8268 2.7612C14.6136 2.25866 13.3132 2 12 2ZM12 20.5C10.3189 20.5 8.67548 20.0015 7.27766 19.0675C5.87984 18.1335 4.79037 16.806 4.14703 15.2528C3.50368 13.6996 3.33536 11.9906 3.66333 10.3417C3.9913 8.69289 4.80085 7.17834 5.9896 5.98959C7.17834 4.80085 8.6929 3.9913 10.3417 3.66333C11.9906 3.33535 13.6996 3.50368 15.2528 4.14702C16.806 4.79037 18.1335 5.87984 19.0675 7.27765C20.0015 8.67547 20.5 10.3189 20.5 12C20.4974 14.2535 19.601 16.414 18.0075 18.0075C16.414 19.601 14.2535 20.4974 12 20.5ZM15.6445 12.85C15.4171 12.85 15.1947 12.9174 15.0056 13.0438C14.8165 13.1702 14.6691 13.3498 14.582 13.5599C14.495 13.77 14.4722 14.0013 14.5166 14.2244C14.561 14.4474 14.6705 14.6523 14.8313 14.8132C14.9922 14.974 15.1971 15.0835 15.4202 15.1279C15.6432 15.1723 15.8745 15.1495 16.0846 15.0625C16.2947 14.9754 16.4743 14.828 16.6007 14.6389C16.7271 14.4498 16.7945 14.2274 16.7945 14C16.7945 13.695 16.6733 13.4025 16.4577 13.1868C16.242 12.9712 15.9495 12.85 15.6445 12.85ZM8.3555 12.85C8.12806 12.85 7.90573 12.9175 7.71663 13.0439C7.52752 13.1702 7.38014 13.3498 7.29311 13.56C7.20609 13.7701 7.18333 14.0013 7.22771 14.2244C7.2721 14.4475 7.38163 14.6524 7.54247 14.8132C7.7033 14.974 7.90821 15.0835 8.13129 15.1279C8.35436 15.1723 8.58558 15.1495 8.79571 15.0625C9.00584 14.9754 9.18544 14.828 9.3118 14.6389C9.43816 14.4498 9.5056 14.2274 9.5056 14C9.5056 13.849 9.47586 13.6994 9.41806 13.5599C9.36026 13.4204 9.27554 13.2936 9.16874 13.1868C9.06194 13.08 8.93516 12.9953 8.79562 12.9375C8.65609 12.8797 8.50653 12.85 8.3555 12.85Z" fill="black"/>
</svg>
