<svg width="24" height="24" viewBox="0 0 24 24" fill="none" xmlns="http://www.w3.org/2000/svg">
<path d="M12 7.7541C11.7802 7.7541 11.5654 7.81926 11.3827 7.94135C11.2 8.06344 11.0576 8.23697 10.9735 8.44C10.8894 8.64303 10.8674 8.86643 10.9102 9.08196C10.9531 9.2975 11.0589 9.49548 11.2143 9.65087C11.3697 9.80626 11.5677 9.91208 11.7832 9.95495C11.9988 9.99782 12.2222 9.97582 12.4252 9.89172C12.6282 9.80763 12.8018 9.66521 12.9238 9.48249C13.0459 9.29978 13.1111 9.08495 13.1111 8.8652C13.1108 8.57062 12.9936 8.28819 12.7853 8.07988C12.577 7.87158 12.2946 7.75442 12 7.7541ZM3 3V21H21V3H3ZM7.0056 16.15C6.77815 16.15 6.5558 16.0826 6.36667 15.9562C6.17754 15.8299 6.03012 15.6503 5.94307 15.4402C5.85601 15.23 5.83322 14.9988 5.87758 14.7757C5.92195 14.5526 6.03147 14.3477 6.19229 14.1869C6.35312 14.026 6.55803 13.9165 6.78111 13.8721C7.00419 13.8277 7.23542 13.8505 7.44556 13.9375C7.6557 14.0246 7.83532 14.172 7.96168 14.3611C8.08805 14.5502 8.1555 14.7725 8.1555 15C8.1555 15.305 8.03435 15.5975 7.81871 15.8131C7.60306 16.0288 7.31058 16.15 7.0056 16.15ZM12 11.1429C11.5495 11.1429 11.1091 11.0093 10.7345 10.759C10.3599 10.5087 10.068 10.153 9.89558 9.73675C9.72318 9.32053 9.67808 8.86254 9.76597 8.42069C9.85387 7.97883 10.0708 7.57297 10.3894 7.25442C10.708 6.93586 11.1138 6.71893 11.5557 6.63105C11.9975 6.54318 12.4555 6.5883 12.8717 6.76072C13.288 6.93313 13.6437 7.2251 13.894 7.59969C14.1442 7.97429 14.2778 8.41469 14.2778 8.8652C14.2778 9.16432 14.2189 9.46052 14.1044 9.73688C13.99 10.0132 13.8222 10.2643 13.6107 10.4758C13.3992 10.6873 13.148 10.8551 12.8717 10.9696C12.5953 11.084 12.2991 11.1429 12 11.1429ZM16.9944 16.15C16.767 16.15 16.5446 16.0826 16.3555 15.9562C16.1664 15.8298 16.019 15.6502 15.9319 15.4401C15.8449 15.23 15.8221 14.9987 15.8665 14.7756C15.9109 14.5526 16.0204 14.3477 16.1812 14.1868C16.3421 14.026 16.547 13.9165 16.77 13.8721C16.9931 13.8277 17.2244 13.8505 17.4345 13.9375C17.6446 14.0246 17.8242 14.172 17.9506 14.3611C18.077 14.5502 18.1444 14.7726 18.1444 15C18.1444 15.305 18.0232 15.5975 17.8076 15.8132C17.5919 16.0288 17.2994 16.15 16.9944 16.15Z" fill="black"/>
</svg>
