<svg width="24" height="24" viewBox="0 0 24 24" fill="none" xmlns="http://www.w3.org/2000/svg">
<path d="M12 16.5C13.0605 16.499 14.0774 16.0773 14.8273 15.3273C15.5772 14.5774 15.999 13.5606 16 12.5V5.50004C16 4.43918 15.5786 3.42176 14.8284 2.67162C14.0783 1.92147 13.0609 1.50004 12 1.50004C10.9391 1.50004 9.92172 1.92147 9.17157 2.67162C8.42143 3.42176 8 4.43918 8 5.50004V12.5C8.00103 13.5606 8.42279 14.5774 9.17271 15.3273C9.92264 16.0773 10.9395 16.499 12 16.5ZM19.5 12.5C19.5 14.4892 18.7098 16.3968 17.3033 17.8033C15.8968 19.2099 13.9891 20 12 20C10.0109 20 8.10322 19.2099 6.6967 17.8033C5.29018 16.3968 4.5 14.4892 4.5 12.5V10.5H4V12.5C4.00085 14.5774 4.81029 16.5729 6.25688 18.0638C7.70348 19.5547 9.67361 20.4239 11.75 20.4874V23.5H12.25V20.4874C14.3264 20.4239 16.2965 19.5547 17.7431 18.0638C19.1897 16.5729 19.9992 14.5774 20 12.5V10.5H19.5V12.5ZM23.6143 0.739342L23.2607 0.385742L21 2.64654L18.7393 0.385742L18.3857 0.739342L20.6465 3.00004L18.3857 5.26074L18.7393 5.61434L21 3.35354L23.2607 5.61434L23.6143 5.26074L21.3535 3.00004L23.6143 0.739342Z" fill="black"/>
</svg>
