<svg width="24" height="24" viewBox="0 0 24 24" fill="none" xmlns="http://www.w3.org/2000/svg">
<path d="M20.707 17.9805L18.8514 16.1248C19.6044 14.8809 20.0017 13.4541 20 12V10H18V12C17.9991 12.9193 17.7854 13.826 17.3755 14.6489L15.8268 13.1C15.9362 12.7434 15.9945 12.373 16 12V5C16 3.93913 15.5785 2.92172 14.8284 2.17157C14.0782 1.42143 13.0608 1 12 1C10.9391 1 9.92169 1.42143 9.17154 2.17157C8.4214 2.92172 7.99997 3.93913 7.99997 5V5.2734L4.70697 1.9805L3.29297 3.3945L7.99997 8.1016V12C7.99836 12.7851 8.22829 13.5532 8.66098 14.2083C9.09368 14.8634 9.70993 15.3763 10.4326 15.6829C11.1554 15.9896 11.9524 16.0763 12.7242 15.9323C13.496 15.7883 14.2081 15.4199 14.7716 14.8732L16.1874 16.289C15.3438 17.1149 14.275 17.6733 13.1152 17.8942C11.9555 18.115 10.7563 17.9884 9.66821 17.5303C8.58011 17.0722 7.65151 16.303 6.99892 15.3191C6.34634 14.3353 5.99882 13.1806 5.99997 12V10H3.99997V12C4.00074 13.9477 4.71233 15.8281 6.00117 17.2883C7.29001 18.7486 9.06748 19.6882 11 19.9309V23H13V19.9309C14.7361 19.712 16.3522 18.9284 17.5993 17.7009L19.293 19.3945L20.707 17.9805ZM9.99997 5C9.99997 4.46957 10.2107 3.96086 10.5858 3.58579C10.9608 3.21071 11.4695 3 12 3C12.5304 3 13.0391 3.21071 13.4142 3.58579C13.7893 3.96086 14 4.46957 14 5V11.2734L9.99997 7.2734V5ZM12 14C11.4697 13.9994 10.9614 13.7885 10.5864 13.4135C10.2115 13.0386 10.0006 12.5302 9.99997 12V10.1016L13.3579 13.46C12.9903 13.8059 12.5048 13.999 12 14Z" fill="black"/>
</svg>
