<svg width="24" height="24" viewBox="0 0 24 24" fill="none" xmlns="http://www.w3.org/2000/svg">
<path d="M17 17.2499C17.2472 17.2499 17.4889 17.1766 17.6945 17.0392C17.9 16.9019 18.0602 16.7067 18.1549 16.4783C18.2495 16.2499 18.2742 15.9985 18.226 15.756C18.1777 15.5136 18.0587 15.2908 17.8839 15.116C17.7091 14.9412 17.4863 14.8222 17.2439 14.7739C17.0014 14.7257 16.7501 14.7505 16.5216 14.8451C16.2932 14.9397 16.098 15.0999 15.9607 15.3054C15.8233 15.511 15.75 15.7527 15.75 15.9999C15.75 16.3314 15.8817 16.6494 16.1161 16.8838C16.3505 17.1182 16.6685 17.2499 17 17.2499ZM20 5.99991H9.1917L19.8117 2.24561L19.1281 0.366211L3.2883 6.13141L3.2907 6.13561C2.91179 6.27867 2.58539 6.53364 2.35484 6.86664C2.1243 7.19963 2.00054 7.5949 2 7.99991V18.9999C2 19.5303 2.21071 20.0391 2.58579 20.4141C2.96086 20.7892 3.46957 20.9999 4 20.9999H20C20.5304 20.9999 21.0391 20.7892 21.4142 20.4141C21.7893 20.0391 22 19.5303 22 18.9999V7.99991C22 7.46948 21.7893 6.96077 21.4142 6.5857C21.0391 6.21062 20.5304 5.99991 20 5.99991ZM4 7.99991H15V9.99991H4V7.99991ZM20 18.9999H4V11.9999H20V18.9999ZM20 9.99991H17V7.99991H20V9.99991Z" fill="black"/>
</svg>
