<svg width="24" height="24" viewBox="0 0 24 24" fill="none" xmlns="http://www.w3.org/2000/svg">
<path d="M12 8.2C11.8418 8.2 11.6871 8.24692 11.5555 8.33482C11.424 8.42273 11.3214 8.54767 11.2609 8.69385C11.2003 8.84003 11.1845 9.00089 11.2154 9.15607C11.2462 9.31126 11.3224 9.4538 11.4343 9.56569C11.5462 9.67757 11.6887 9.75376 11.8439 9.78463C11.9991 9.8155 12.16 9.79965 12.3061 9.7391C12.4523 9.67855 12.5773 9.57602 12.6652 9.44446C12.7531 9.3129 12.8 9.15823 12.8 9C12.7998 8.78789 12.7154 8.58453 12.5655 8.43455C12.4155 8.28456 12.2121 8.20021 12 8.2ZM16.4443 11.2C16.2861 11.2 16.1314 11.2469 15.9998 11.3348C15.8683 11.4227 15.7657 11.5477 15.7052 11.6939C15.6446 11.84 15.6288 12.0009 15.6597 12.1561C15.6905 12.3113 15.7667 12.4538 15.8786 12.5657C15.9905 12.6776 16.133 12.7538 16.2882 12.7846C16.4434 12.8155 16.6043 12.7997 16.7504 12.7391C16.8966 12.6786 17.0216 12.576 17.1095 12.4445C17.1974 12.3129 17.2443 12.1582 17.2443 12C17.2441 11.7879 17.1597 11.5846 17.0097 11.4346C16.8597 11.2846 16.6564 11.2002 16.4443 11.2ZM7.5557 11.2C7.39747 11.2 7.2428 11.2469 7.11124 11.3348C6.97968 11.4227 6.87715 11.5477 6.8166 11.6939C6.75605 11.84 6.7402 12.0009 6.77107 12.1561C6.80194 12.3113 6.87813 12.4538 6.99001 12.5657C7.1019 12.6776 7.24444 12.7538 7.39963 12.7846C7.55481 12.8155 7.71567 12.7997 7.86185 12.7391C8.00803 12.6786 8.13297 12.576 8.22088 12.4445C8.30878 12.3129 8.3557 12.1582 8.3557 12C8.35541 11.7879 8.27103 11.5846 8.12106 11.4346C7.9711 11.2847 7.76778 11.2003 7.5557 11.2ZM3 3V21H21V3H3ZM7.5557 13.7C7.21947 13.7 6.89079 13.6003 6.61123 13.4135C6.33167 13.2267 6.11377 12.9612 5.9851 12.6506C5.85644 12.3399 5.82277 11.9981 5.88836 11.6683C5.95396 11.3386 6.11587 11.0357 6.35362 10.7979C6.59137 10.5602 6.89428 10.3983 7.22405 10.3327C7.55381 10.2671 7.89563 10.3007 8.20626 10.4294C8.5169 10.5581 8.7824 10.776 8.9692 11.0555C9.156 11.3351 9.2557 11.6638 9.2557 12C9.2557 12.4509 9.07659 12.8833 8.75778 13.2021C8.43897 13.5209 8.00657 13.7 7.5557 13.7ZM12 10.7C11.6638 10.7 11.3351 10.6003 11.0555 10.4135C10.776 10.2267 10.5581 9.9612 10.4294 9.65056C10.3007 9.33993 10.2671 8.99811 10.3327 8.66835C10.3983 8.33858 10.5602 8.03567 10.7979 7.79792C11.0357 7.56017 11.3386 7.39826 11.6683 7.33266C11.9981 7.26707 12.3399 7.30074 12.6506 7.4294C12.9612 7.55807 13.2267 7.77597 13.4135 8.05553C13.6003 8.33509 13.7 8.66377 13.7 9C13.7 9.45087 13.5209 9.88327 13.2021 10.2021C12.8833 10.5209 12.4509 10.7 12 10.7ZM16.4443 13.7C16.1081 13.7 15.7794 13.6003 15.4998 13.4135C15.2203 13.2267 15.0024 12.9612 14.8737 12.6506C14.745 12.3399 14.7114 11.9981 14.777 11.6683C14.8426 11.3386 15.0045 11.0357 15.2422 10.7979C15.48 10.5602 15.7829 10.3983 16.1126 10.3327C16.4424 10.2671 16.7842 10.3007 17.0949 10.4294C17.4055 10.5581 17.671 10.776 17.8578 11.0555C18.0446 11.3351 18.1443 11.6638 18.1443 12C18.1443 12.4509 17.9652 12.8833 17.6464 13.2021C17.3276 13.5209 16.8952 13.7 16.4443 13.7Z" fill="black"/>
</svg>
