<svg width="24" height="24" viewBox="0 0 24 24" fill="none" xmlns="http://www.w3.org/2000/svg">
<path d="M4.58 9.99991L21.1351 4.09691L20.7939 3.15991L2 9.99991V16.9999C2 17.5303 2.21071 18.0391 2.58579 18.4141C2.96086 18.7892 3.46957 18.9999 4 18.9999H20C20.5304 18.9999 21.0391 18.7892 21.4142 18.4141C21.7893 18.0391 22 17.5303 22 16.9999V9.99991H4.58ZM6.5 15.2499C6.35166 15.2499 6.20666 15.2059 6.08332 15.1235C5.95999 15.0411 5.86386 14.924 5.80709 14.7869C5.75032 14.6499 5.73547 14.4991 5.76441 14.3536C5.79335 14.2081 5.86478 14.0745 5.96967 13.9696C6.07456 13.8647 6.2082 13.7933 6.35368 13.7643C6.49917 13.7354 6.64997 13.7502 6.78701 13.807C6.92406 13.8638 7.04119 13.9599 7.1236 14.0832C7.20601 14.2066 7.25 14.3516 7.25 14.4999C7.25 14.6988 7.17098 14.8896 7.03033 15.0302C6.88968 15.1709 6.69891 15.2499 6.5 15.2499Z" fill="black"/>
</svg>
