<svg width="24" height="24" viewBox="0 0 24 24" fill="none" xmlns="http://www.w3.org/2000/svg">
<path d="M12 16C13.0605 15.999 14.0774 15.5772 14.8273 14.8273C15.5772 14.0773 15.999 13.0605 16 12V4.99998C16 3.93912 15.5786 2.9217 14.8284 2.17156C14.0783 1.42141 13.0609 0.999984 12 0.999984C10.9391 0.999984 9.92172 1.42141 9.17157 2.17156C8.42143 2.9217 8 3.93912 8 4.99998V12C8.00103 13.0605 8.42279 14.0773 9.17271 14.8273C9.92264 15.5772 10.9395 15.999 12 16ZM9 4.99998C9 4.20433 9.31607 3.44127 9.87868 2.87866C10.4413 2.31605 11.2044 1.99998 12 1.99998C12.7956 1.99998 13.5587 2.31605 14.1213 2.87866C14.6839 3.44127 15 4.20433 15 4.99998V12C15 12.7956 14.6839 13.5587 14.1213 14.1213C13.5587 14.6839 12.7956 15 12 15C11.2044 15 10.4413 14.6839 9.87868 14.1213C9.31607 13.5587 9 12.7956 9 12V4.99998ZM19 12C19 13.8565 18.2625 15.637 16.9497 16.9497C15.637 18.2625 13.8565 19 12 19C10.1435 19 8.36301 18.2625 7.05025 16.9497C5.7375 15.637 5 13.8565 5 12V9.99998H4V12C4.00093 14.0339 4.77717 15.9911 6.17062 17.4727C7.56407 18.9543 9.46992 19.8491 11.5 19.9747V23H12.5V19.9747C14.5301 19.8491 16.4359 18.9543 17.8294 17.4727C19.2228 15.9911 19.9991 14.0339 20 12V9.99998H19V12ZM23.791 1.41598L23.084 0.708984L21 2.79298L18.916 0.708984L18.209 1.41598L20.293 3.49998L18.209 5.58398L18.916 6.29098L21 4.20698L23.084 6.29098L23.791 5.58398L21.707 3.49998L23.791 1.41598Z" fill="black"/>
</svg>
