<svg width="24" height="24" viewBox="0 0 24 24" fill="none" xmlns="http://www.w3.org/2000/svg">
<path d="M13 2.05054V4.50004H11V2.05054C8.53362 2.29873 6.24734 3.4541 4.58461 5.29254C2.92188 7.13099 2.00122 9.52147 2.00122 12.0003C2.00122 14.4791 2.92188 16.8696 4.58461 18.708C6.24734 20.5465 8.53362 21.7019 11 21.95V19.5H13V21.95C15.4659 21.7013 17.7515 20.5457 19.4137 18.7074C21.0759 16.869 21.9963 14.4789 21.9963 12.0005C21.9963 9.52215 21.0759 7.13205 19.4137 5.29372C17.7515 3.45538 15.4659 2.2998 13 2.05104V2.05054ZM7.35548 13.35C7.08848 13.35 6.82749 13.2708 6.60549 13.1225C6.3835 12.9741 6.21048 12.7633 6.10832 12.5166C6.00616 12.2699 5.97943 11.9985 6.03154 11.7366C6.08364 11.4747 6.21222 11.2342 6.40102 11.0454C6.58983 10.8566 6.83038 10.7281 7.09225 10.676C7.35412 10.6239 7.62556 10.6506 7.87223 10.7528C8.1189 10.855 8.32974 11.028 8.47808 11.25C8.62641 11.472 8.70558 11.733 8.70558 12C8.70558 12.1773 8.67066 12.3529 8.60281 12.5167C8.53496 12.6805 8.43551 12.8293 8.31014 12.9547C8.18477 13.08 8.03594 13.1795 7.87214 13.2473C7.70834 13.3151 7.53278 13.3501 7.35548 13.35ZM16.6445 13.35C16.3775 13.35 16.1165 13.2709 15.8945 13.1225C15.6725 12.9742 15.4994 12.7633 15.3972 12.5167C15.2951 12.27 15.2683 11.9985 15.3204 11.7367C15.3725 11.4748 15.5011 11.2342 15.6899 11.0454C15.8787 10.8566 16.1192 10.7281 16.3811 10.676C16.643 10.6239 16.9144 10.6506 17.1611 10.7528C17.4078 10.855 17.6186 11.028 17.767 11.25C17.9153 11.472 17.9945 11.733 17.9945 12C17.9945 12.3581 17.8523 12.7015 17.5991 12.9546C17.3459 13.2078 17.0025 13.35 16.6445 13.35Z" fill="black"/>
</svg>
