<svg width="24" height="24" viewBox="0 0 24 24" fill="none" xmlns="http://www.w3.org/2000/svg">
<path d="M20 3H4C3.46957 3 2.96086 3.21071 2.58579 3.58579C2.21071 3.96086 2 4.46957 2 5V15C2 15.5304 2.21071 16.0391 2.58579 16.4142C2.96086 16.7893 3.46957 17 4 17H9.1V20H7V21H17V20H14.9V17H20C20.5304 17 21.0391 16.7893 21.4142 16.4142C21.7893 16.0391 22 15.5304 22 15V5C22 4.46957 21.7893 3.96086 21.4142 3.58579C21.0391 3.21071 20.5304 3 20 3ZM13.9 20H10.1V17H13.9V20ZM21 15C20.9997 15.2651 20.8943 15.5193 20.7068 15.7068C20.5193 15.8943 20.2651 15.9997 20 16H4C3.73487 15.9997 3.48069 15.8943 3.29321 15.7068C3.10574 15.5193 3.00029 15.2651 3 15V5C3.00029 4.73487 3.10574 4.48069 3.29321 4.29321C3.48069 4.10574 3.73487 4.00029 4 4H20C20.2651 4.00029 20.5193 4.10574 20.7068 4.29321C20.8943 4.48069 20.9997 4.73487 21 5V15Z" fill="black"/>
</svg>
