<svg width="24" height="24" viewBox="0 0 24 24" fill="none" xmlns="http://www.w3.org/2000/svg">
<path d="M12 2C10.0222 2 8.08879 2.58649 6.4443 3.6853C4.79981 4.78412 3.51809 6.3459 2.76121 8.17317C2.00433 10.0004 1.8063 12.0111 2.19215 13.9509C2.578 15.8907 3.53041 17.6725 4.92894 19.0711C6.32746 20.4696 8.10929 21.422 10.0491 21.8079C11.9889 22.1937 13.9996 21.9957 15.8268 21.2388C17.6541 20.4819 19.2159 19.2002 20.3147 17.5557C21.4135 15.9112 22 13.9778 22 12C22 10.6868 21.7413 9.38642 21.2388 8.17317C20.7363 6.95991 19.9997 5.85752 19.0711 4.92893C18.1425 4.00035 17.0401 3.26375 15.8268 2.7612C14.6136 2.25866 13.3132 2 12 2ZM12 20C10.4178 20 8.87104 19.5308 7.55544 18.6518C6.23985 17.7727 5.21447 16.5233 4.60897 15.0615C4.00347 13.5997 3.84504 11.9911 4.15372 10.4393C4.4624 8.88743 5.22433 7.46197 6.34315 6.34315C7.46197 5.22433 8.88743 4.4624 10.4393 4.15372C11.9911 3.84504 13.5997 4.00346 15.0615 4.60896C16.5233 5.21447 17.7727 6.23984 18.6518 7.55544C19.5308 8.87103 20 10.4177 20 12C19.9976 14.121 19.154 16.1544 17.6542 17.6542C16.1544 19.154 14.121 19.9976 12 20ZM15.6445 12.65C15.3775 12.65 15.1165 12.7292 14.8945 12.8775C14.6725 13.0259 14.4994 13.2367 14.3973 13.4834C14.2951 13.7301 14.2684 14.0015 14.3204 14.2634C14.3725 14.5252 14.5011 14.7658 14.6899 14.9546C14.8787 15.1434 15.1193 15.272 15.3811 15.3241C15.643 15.3762 15.9144 15.3494 16.1611 15.2472C16.4078 15.1451 16.6186 14.972 16.767 14.75C16.9153 14.528 16.9945 14.267 16.9945 14C16.9945 13.8227 16.9596 13.6472 16.8917 13.4834C16.8239 13.3196 16.7245 13.1708 16.5991 13.0454C16.4737 12.92 16.3249 12.8206 16.1611 12.7528C15.9973 12.6849 15.8218 12.65 15.6445 12.65ZM12 6.5874C11.5495 6.5874 11.1091 6.72099 10.7345 6.97128C10.3599 7.22157 10.068 7.57731 9.89559 7.99352C9.72319 8.40974 9.67808 8.86773 9.76597 9.30958C9.85386 9.75143 10.0708 10.1573 10.3894 10.4758C10.7079 10.7944 11.1138 11.0113 11.5556 11.0992C11.9975 11.1871 12.4555 11.142 12.8717 10.9696C13.2879 10.7972 13.6436 10.5053 13.8939 10.1307C14.1442 9.7561 14.2778 9.31571 14.2778 8.8652C14.2778 8.56607 14.2189 8.26987 14.1044 7.99351C13.99 7.71715 13.8222 7.46604 13.6107 7.25452C13.3992 7.04301 13.1481 6.87523 12.8717 6.76076C12.5953 6.64629 12.2991 6.58739 12 6.5874ZM12 9.6429C11.8462 9.6429 11.6958 9.59728 11.5679 9.51181C11.44 9.42634 11.3403 9.30486 11.2814 9.16273C11.2225 9.0206 11.2071 8.8642 11.2372 8.71332C11.2672 8.56244 11.3413 8.42385 11.4501 8.31508C11.5588 8.2063 11.6974 8.13223 11.8483 8.10223C11.9992 8.07223 12.1556 8.08765 12.2977 8.14653C12.4398 8.20542 12.5613 8.30513 12.6468 8.43305C12.7322 8.56097 12.7778 8.71136 12.7778 8.8652C12.7776 9.07141 12.6956 9.26911 12.5498 9.41492C12.4039 9.56072 12.2062 9.64271 12 9.6429ZM8.3555 12.65C8.0885 12.65 7.82751 12.7292 7.60551 12.8776C7.38352 13.0259 7.2105 13.2368 7.10834 13.4834C7.00618 13.7301 6.97945 14.0016 7.03156 14.2634C7.08366 14.5253 7.21224 14.7658 7.40105 14.9546C7.58985 15.1434 7.8304 15.272 8.09227 15.3241C8.35414 15.3761 8.62558 15.3494 8.87225 15.2472C9.11892 15.145 9.32976 14.972 9.4781 14.75C9.62643 14.528 9.7056 14.267 9.7056 14C9.7056 13.8227 9.67068 13.6472 9.60283 13.4834C9.53498 13.3196 9.43553 13.1707 9.31016 13.0454C9.18479 12.92 9.03596 12.8206 8.87216 12.7527C8.70836 12.6849 8.5328 12.65 8.3555 12.65Z" fill="black"/>
</svg>
