<svg width="24" height="24" viewBox="0 0 24 24" fill="none" xmlns="http://www.w3.org/2000/svg">
<path d="M8 3.5C8 3.36739 7.94732 3.24021 7.85355 3.14645C7.75979 3.05268 7.63261 3 7.5 3H5.5C5.36739 3 5.24021 3.05268 5.14645 3.14645C5.05268 3.24021 5 3.36739 5 3.5V4H8V3.5ZM19.5 5H8V19H19.5C20.163 19 20.7989 18.7366 21.2678 18.2678C21.7366 17.7989 22 17.163 22 16.5V7.5C22 6.83696 21.7366 6.20107 21.2678 5.73223C20.7989 5.26339 20.163 5 19.5 5ZM15 16C14.2089 16 13.4355 15.7654 12.7777 15.3259C12.1199 14.8864 11.6072 14.2616 11.3045 13.5307C11.0017 12.7998 10.9225 11.9956 11.0769 11.2196C11.2312 10.4437 11.6122 9.73098 12.1716 9.17157C12.731 8.61216 13.4437 8.2312 14.2196 8.07686C14.9956 7.92252 15.7998 8.00173 16.5307 8.30448C17.2616 8.60723 17.8864 9.11992 18.3259 9.77772C18.7654 10.4355 19 11.2089 19 12C18.999 13.0605 18.5772 14.0774 17.8273 14.8273C17.0774 15.5772 16.0605 15.999 15 16ZM2 7.5V16.5C2 17.163 2.26339 17.7989 2.73223 18.2678C3.20107 18.7366 3.83696 19 4.5 19H7V5H4.5C3.83696 5 3.20107 5.26339 2.73223 5.73223C2.26339 6.20107 2 6.83696 2 7.5Z" fill="black"/>
</svg>
