<svg width="24" height="24" viewBox="0 0 24 24" fill="none" xmlns="http://www.w3.org/2000/svg">
<path d="M16 3H14C14 2.46957 13.7893 1.96086 13.4142 1.58579C13.0391 1.21071 12.5304 1 12 1C11.4696 1 10.9609 1.21071 10.5858 1.58579C10.2107 1.96086 10 2.46957 10 3H8C7.20435 3 6.44129 3.31607 5.87868 3.87868C5.31607 4.44129 5 5.20435 5 6V20C5 20.7956 5.31607 21.5587 5.87868 22.1213C6.44129 22.6839 7.20435 23 8 23H16C16.7956 23 17.5587 22.6839 18.1213 22.1213C18.6839 21.5587 19 20.7956 19 20V6C19 5.20435 18.6839 4.44129 18.1213 3.87868C17.5587 3.31607 16.7956 3 16 3ZM12.55 8.25L12.2947 14.75H11.4553L11.2 8.25H12.55ZM11.875 18.152C11.7399 18.152 11.6077 18.1119 11.4954 18.0368C11.383 17.9618 11.2954 17.855 11.2437 17.7302C11.192 17.6053 11.1785 17.4679 11.2048 17.3354C11.2312 17.2028 11.2963 17.0811 11.3919 16.9855C11.4874 16.8899 11.6092 16.8249 11.7418 16.7985C11.8743 16.7722 12.0117 16.7857 12.1366 16.8374C12.2614 16.8892 12.3681 16.9768 12.4432 17.0892C12.5183 17.2015 12.5583 17.3337 12.5583 17.4688C12.5583 17.5585 12.5406 17.6474 12.5063 17.7303C12.4719 17.8132 12.4216 17.8885 12.3582 17.9519C12.2947 18.0154 12.2194 18.0657 12.1365 18.1C12.0536 18.1344 11.9647 18.152 11.875 18.152Z" fill="black"/>
</svg>
