<svg width="24" height="24" viewBox="0 0 24 24" fill="none" xmlns="http://www.w3.org/2000/svg">
<path d="M12 5.3333C11.8674 5.3333 11.7402 5.38598 11.6464 5.47975C11.5527 5.57351 11.5 5.70069 11.5 5.8333V8.8333C11.5 8.96591 11.5527 9.09309 11.6464 9.18685C11.7402 9.28062 11.8674 9.3333 12 9.3333C12.1326 9.3333 12.2598 9.28062 12.3536 9.18685C12.4473 9.09309 12.5 8.96591 12.5 8.8333V5.8333C12.5 5.70069 12.4473 5.57351 12.3536 5.47975C12.2598 5.38598 12.1326 5.3333 12 5.3333ZM14 2H10C8.67392 2 7.40215 2.52678 6.46447 3.46447C5.52678 4.40215 5 5.67392 5 7V15C5 16.8565 5.7375 18.637 7.05025 19.9497C8.36301 21.2625 10.1435 22 12 22C13.8565 22 15.637 21.2625 16.9497 19.9497C18.2625 18.637 19 16.8565 19 15V7C19 5.67392 18.4732 4.40215 17.5355 3.46447C16.5979 2.52678 15.3261 2 14 2ZM18 15C18 16.5913 17.3679 18.1174 16.2426 19.2426C15.1174 20.3679 13.5913 21 12 21C10.4087 21 8.88258 20.3679 7.75736 19.2426C6.63214 18.1174 6 16.5913 6 15V7C6.00119 5.9395 6.423 4.92278 7.17289 4.17289C7.92278 3.423 8.9395 3.00119 10 3H14C15.0605 3.00119 16.0772 3.423 16.8271 4.17289C17.577 4.92278 17.9988 5.9395 18 7V15Z" fill="black"/>
</svg>
