<svg width="24" height="24" viewBox="0 0 24 24" fill="none" xmlns="http://www.w3.org/2000/svg">
<path d="M12 11C11.8022 11 11.6089 11.0586 11.4444 11.1685C11.28 11.2784 11.1518 11.4346 11.0761 11.6173C11.0004 11.8 10.9806 12.0011 11.0192 12.1951C11.0578 12.3891 11.153 12.5673 11.2929 12.7071C11.4327 12.847 11.6109 12.9422 11.8049 12.9808C11.9989 13.0194 12.2 12.9996 12.3827 12.9239C12.5654 12.8482 12.7216 12.72 12.8315 12.5556C12.9414 12.3911 13 12.1978 13 12C13 11.7348 12.8946 11.4804 12.7071 11.2929C12.5196 11.1054 12.2652 11 12 11ZM15.5 2H8.5C7.83696 2 7.20107 2.26339 6.73223 2.73223C6.26339 3.20107 6 3.83696 6 4.5V19.5C6 20.163 6.26339 20.7989 6.73223 21.2678C7.20107 21.7366 7.83696 22 8.5 22H15.5C16.163 22 16.7989 21.7366 17.2678 21.2678C17.7366 20.7989 18 20.163 18 19.5V4.5C18 3.83696 17.7366 3.20107 17.2678 2.73223C16.7989 2.26339 16.163 2 15.5 2ZM15.7371 13.3912C15.58 13.8085 15.3538 14.1962 15.0678 14.5383L13.6734 13.9245L12.83 14.4114L12.6636 15.9331C12.4447 15.9739 12.2227 15.9963 12 16C11.7773 15.9963 11.5553 15.9739 11.3364 15.9331L11.17 14.4114L10.3266 13.9245L8.9322 14.5383C8.64624 14.1962 8.41998 13.8085 8.2629 13.3912L9.4966 12.4869V11.5131L8.2629 10.6087C8.41997 10.1915 8.64627 9.80368 8.9323 9.4617L10.3267 10.0754L11.17 9.5886L11.3364 8.0669C11.5553 8.0261 11.7773 8.00372 12 8C12.2227 8.00372 12.4447 8.0261 12.6636 8.0669L12.83 9.5886L13.6733 10.0754L15.0678 9.4617C15.3538 9.80369 15.5801 10.1915 15.7371 10.6087L14.5034 11.5131V12.4869L15.7371 13.3912Z" fill="black"/>
</svg>
