<svg width="24" height="24" viewBox="0 0 24 24" fill="none" xmlns="http://www.w3.org/2000/svg">
<path d="M20 11H15.25V5.99997C15.25 5.93367 15.2237 5.87008 15.1768 5.8232C15.1299 5.77631 15.0663 5.74997 15 5.74997C14.9337 5.74997 14.8701 5.77631 14.8232 5.8232C14.7763 5.87008 14.75 5.93367 14.75 5.99997V11H4C3.46957 11 2.96086 11.2107 2.58579 11.5858C2.21071 11.9608 2 12.4695 2 13V19C2 19.5304 2.21071 20.0391 2.58579 20.4142C2.96086 20.7893 3.46957 21 4 21H20C20.5304 21 21.0391 20.7893 21.4142 20.4142C21.7893 20.0391 22 19.5304 22 19V13C22 12.4695 21.7893 11.9608 21.4142 11.5858C21.0391 11.2107 20.5304 11 20 11ZM6 16.45C5.911 16.45 5.824 16.4236 5.74999 16.3741C5.67599 16.3247 5.61831 16.2544 5.58425 16.1722C5.55019 16.09 5.54128 15.9995 5.55865 15.9122C5.57601 15.8249 5.61887 15.7447 5.6818 15.6818C5.74474 15.6188 5.82492 15.576 5.91221 15.5586C5.9995 15.5413 6.08998 15.5502 6.17221 15.5842C6.25443 15.6183 6.32471 15.676 6.37416 15.75C6.42361 15.824 6.45 15.911 6.45 16C6.45 16.1193 6.40259 16.2338 6.3182 16.3182C6.23381 16.4026 6.11935 16.45 6 16.45ZM12.3486 8.65137C12.0003 8.30324 11.724 7.8899 11.5355 7.43497C11.347 6.98003 11.25 6.49241 11.25 5.99997C11.25 5.50753 11.347 5.01991 11.5355 4.56498C11.724 4.11004 12.0003 3.6967 12.3486 3.34857L11.9951 2.99507C11.6003 3.38961 11.2872 3.85807 11.0735 4.37368C10.8599 4.88929 10.7499 5.44195 10.7499 6.00007C10.7499 6.5582 10.8599 7.11085 11.0735 7.62646C11.2872 8.14207 11.6003 8.61053 11.9951 9.00507L12.3486 8.65137ZM18.0049 9.00487C18.3997 8.61033 18.7128 8.14187 18.9265 7.62626C19.1401 7.11065 19.2501 6.558 19.2501 5.99987C19.2501 5.44175 19.1401 4.88909 18.9265 4.37348C18.7128 3.85787 18.3997 3.38941 18.0049 2.99487L17.6514 3.34837C17.9997 3.6965 18.276 4.10984 18.4645 4.56478C18.653 5.01971 18.75 5.50733 18.75 5.99977C18.75 6.49222 18.653 6.97983 18.4645 7.43477C18.276 7.8897 17.9997 8.30304 17.6514 8.65117L18.0049 9.00487Z" fill="black"/>
</svg>
