<svg width="24" height="24" viewBox="0 0 24 24" fill="none" xmlns="http://www.w3.org/2000/svg">
<path d="M21 4.5H12.25V2.75C12.2506 2.28605 12.4351 1.84127 12.7632 1.51321C13.0913 1.18514 13.536 1.00058 14 1H16V0.5H14C13.4035 0.50082 12.8317 0.738136 12.4099 1.15992C11.9881 1.58169 11.7508 2.15351 11.75 2.75V4.5H3C2.46979 4.50071 1.96149 4.71166 1.58658 5.08658C1.21166 5.46149 1.00071 5.96979 1 6.5V18.5C1.00071 19.0302 1.21166 19.5385 1.58658 19.9134C1.96149 20.2883 2.46979 20.4993 3 20.5H21C21.5302 20.4993 22.0385 20.2883 22.4134 19.9134C22.7883 19.5385 22.9993 19.0302 23 18.5V6.5C22.9993 5.96979 22.7883 5.46149 22.4134 5.08658C22.0385 4.71166 21.5302 4.50071 21 4.5ZM11 7.5H13V9.5H11V7.5ZM11 11.5H13V13.5H11V11.5ZM7 7.5H9V9.5H7V7.5ZM7 11.5H9V13.5H7V11.5ZM5 17.5H3V15.5H5V17.5ZM5 13.5H3V11.5H5V13.5ZM5 9.5H3V7.5H5V9.5ZM17 17.5H7V15.5H17V17.5ZM17 13.5H15V11.5H17V13.5ZM17 9.5H15V7.5H17V9.5ZM21 17.5H19V15.5H21V17.5ZM21 13.5H19V11.5H21V13.5ZM21 9.5H19V7.5H21V9.5Z" fill="black"/>
</svg>
