<svg width="24" height="24" viewBox="0 0 24 24" fill="none" xmlns="http://www.w3.org/2000/svg">
<path d="M7.2375 8.625H6.7625V10.7625H4.625V11.2375H6.7625V13.375H7.2375V11.2375H9.375V10.7625H7.2375V8.625ZM17 8.5C16.4216 8.50002 15.8611 8.70058 15.414 9.06751C14.9669 9.43445 14.6609 9.94506 14.5481 10.5123C14.4353 11.0796 14.5226 11.6685 14.7953 12.1785C15.068 12.6886 15.509 13.0884 16.0434 13.3097C16.5778 13.531 17.1724 13.5602 17.7258 13.3923C18.2793 13.2244 18.7574 12.8698 19.0788 12.3889C19.4001 11.908 19.5447 11.3305 19.488 10.7549C19.4313 10.1793 19.1768 9.64117 18.7678 9.2322C18.5359 8.99971 18.2603 8.81534 17.957 8.68968C17.6536 8.56403 17.3284 8.49957 17 8.5ZM18.4142 12.4142C18.087 12.7414 17.6565 12.945 17.196 12.9903C16.7355 13.0357 16.2736 12.92 15.8888 12.6629C15.5041 12.4058 15.2204 12.0233 15.0861 11.5805C14.9518 11.1377 14.9752 10.6621 15.1522 10.2346C15.3293 9.8071 15.6492 9.45424 16.0572 9.23612C16.4653 9.018 16.9364 8.94813 17.3902 9.03841C17.844 9.12868 18.2525 9.37352 18.546 9.73121C18.8396 10.0889 19 10.5373 19 11C19.0007 11.2627 18.9493 11.523 18.8487 11.7658C18.7482 12.0085 18.6005 12.2289 18.4142 12.4142ZM18 5H12.25V3.25C12.2506 2.78605 12.4351 2.34127 12.7632 2.01321C13.0913 1.68514 13.536 1.50058 14 1.5H17V1H14C13.4035 1.00082 12.8317 1.23814 12.4099 1.65992C11.9881 2.08169 11.7508 2.65351 11.75 3.25V5H6C5.34339 5 4.69321 5.12933 4.08658 5.3806C3.47995 5.63188 2.92876 6.00017 2.46447 6.46447C1.52678 7.40215 1 8.67392 1 10V19.1346C0.99997 19.8228 1.24762 20.488 1.69766 21.0086C2.14771 21.5292 2.7701 21.8705 3.45105 21.97C4.13199 22.0695 4.82601 21.9206 5.40623 21.5506C5.98644 21.1805 6.41409 20.614 6.611 19.9546L7.4936 17H16.5064L17.389 19.9547C17.5859 20.6141 18.0136 21.1806 18.5938 21.5507C19.174 21.9207 19.868 22.0696 20.549 21.9701C21.2299 21.8706 21.8523 21.5293 22.3023 21.0087C22.7524 20.4881 23 19.8229 23 19.1347V10C23 9.34339 22.8707 8.69321 22.6194 8.08658C22.3681 7.47996 21.9998 6.92876 21.5355 6.46447C21.0712 6.00017 20.52 5.63188 19.9134 5.3806C19.3068 5.12933 18.6566 5 18 5ZM22.5 19.1346C22.5 19.7027 22.2956 20.2518 21.9241 20.6816C21.5526 21.1114 21.0388 21.3931 20.4767 21.4753C19.9146 21.5575 19.3416 21.4346 18.8627 21.1291C18.3837 20.8236 18.0307 20.3559 17.8681 19.8116L16.9855 16.8569L16.8789 16.5H7.1211L7.0145 16.8569L6.1319 19.8116C5.96935 20.3559 5.61631 20.8236 5.13733 21.1291C4.65836 21.4346 4.08543 21.5575 3.52331 21.4753C2.96118 21.3931 2.4474 21.1114 2.07589 20.6816C1.70438 20.2518 1.49996 19.7027 1.5 19.1346V10C1.50135 8.80694 1.97589 7.66313 2.81951 6.81951C3.66313 5.97589 4.80694 5.50135 6 5.5H18C19.1931 5.50135 20.3369 5.97589 21.1805 6.81951C22.0241 7.66313 22.4986 8.80694 22.5 10V19.1346Z" fill="black"/>
</svg>
