<svg width="24" height="24" viewBox="0 0 24 24" fill="none" xmlns="http://www.w3.org/2000/svg">
<path d="M15.5 2H8.5C7.83696 2 7.20107 2.26339 6.73223 2.73223C6.26339 3.20107 6 3.83696 6 4.5V19.5C6 20.163 6.26339 20.7989 6.73223 21.2678C7.20107 21.7366 7.83696 22 8.5 22H15.5C16.163 22 16.7989 21.7366 17.2678 21.2678C17.7366 20.7989 18 20.163 18 19.5V4.5C18 3.83696 17.7366 3.20107 17.2678 2.73223C16.7989 2.26339 16.163 2 15.5 2ZM16.5 19.5C16.4997 19.7651 16.3943 20.0193 16.2068 20.2068C16.0193 20.3943 15.7651 20.4997 15.5 20.5H8.5C8.23487 20.4997 7.98069 20.3943 7.79321 20.2068C7.60574 20.0193 7.50029 19.7651 7.5 19.5V4.5C7.50029 4.23487 7.60574 3.98069 7.79321 3.79321C7.98069 3.60574 8.23487 3.50029 8.5 3.5H15.5C15.7651 3.50029 16.0193 3.60574 16.2068 3.79321C16.3943 3.98069 16.4997 4.23487 16.5 4.5V19.5ZM10.48 5.56C10.2921 5.56 10.1084 5.61572 9.95221 5.7201C9.79598 5.82449 9.67422 5.97286 9.60231 6.14645C9.53041 6.32004 9.5116 6.51105 9.54825 6.69534C9.58491 6.87962 9.67539 7.04889 9.80825 7.18175C9.94111 7.31461 10.1104 7.40509 10.2947 7.44175C10.4789 7.4784 10.67 7.45959 10.8435 7.38769C11.0171 7.31578 11.1655 7.19402 11.2699 7.03779C11.3743 6.88157 11.43 6.69789 11.43 6.51C11.43 6.25804 11.3299 6.01641 11.1518 5.83825C10.9736 5.66009 10.732 5.56 10.48 5.56ZM13.52 5.56C13.3321 5.56 13.1484 5.61572 12.9922 5.7201C12.836 5.82449 12.7142 5.97286 12.6423 6.14645C12.5704 6.32004 12.5516 6.51105 12.5883 6.69534C12.6249 6.87962 12.7154 7.04889 12.8482 7.18175C12.9811 7.31461 13.1504 7.40509 13.3347 7.44175C13.5189 7.4784 13.71 7.45959 13.8835 7.38769C14.0571 7.31578 14.2055 7.19402 14.3099 7.03779C14.4143 6.88157 14.47 6.69789 14.47 6.51C14.47 6.25804 14.3699 6.01641 14.1918 5.83825C14.0136 5.66009 13.772 5.56 13.52 5.56Z" fill="black"/>
</svg>
