<svg width="24" height="24" viewBox="0 0 24 24" fill="none" xmlns="http://www.w3.org/2000/svg">
<path d="M21 5H13V4C13.0002 3.73483 13.1056 3.48057 13.2931 3.29307C13.4806 3.10557 13.7348 3.00016 14 3H16V1H14C13.2046 1.00087 12.4421 1.31722 11.8796 1.87964C11.3172 2.44206 11.0009 3.20462 11 4V5H3C2.46979 5.00071 1.96149 5.21166 1.58658 5.58658C1.21166 5.96149 1.00071 6.46979 1 7V19C1.00071 19.5302 1.21166 20.0385 1.58658 20.4134C1.96149 20.7883 2.46979 20.9993 3 21H21C21.5302 20.9993 22.0385 20.7883 22.4134 20.4134C22.7883 20.0385 22.9993 19.5302 23 19V7C22.9993 6.46979 22.7883 5.96149 22.4134 5.58658C22.0385 5.21166 21.5302 5.00071 21 5ZM11 8H13V10H11V8ZM11 12H13V14H11V12ZM7 8H9V10H7V8ZM7 12H9V14H7V12ZM5 18H3V16H5V18ZM5 14H3V12H5V14ZM5 10H3V8H5V10ZM17 18H7V16H17V18ZM17 14H15V12H17V14ZM17 10H15V8H17V10ZM21 18H19V16H21V18ZM21 14H19V12H21V14ZM21 10H19V8H21V10Z" fill="black"/>
</svg>
