<svg width="24" height="24" viewBox="0 0 24 24" fill="none" xmlns="http://www.w3.org/2000/svg">
<path d="M20 5H4C3.46957 5 2.96086 5.21071 2.58579 5.58579C2.21071 5.96086 2 6.46957 2 7V17C2 17.5304 2.21071 18.0391 2.58579 18.4142C2.96086 18.7893 3.46957 19 4 19H8V20.5H16V19H20C20.5304 19 21.0391 18.7893 21.4142 18.4142C21.7893 18.0391 22 17.5304 22 17V7C22 6.46957 21.7893 5.96086 21.4142 5.58579C21.0391 5.21071 20.5304 5 20 5ZM20.5 17C20.5 17.1326 20.4473 17.2598 20.3536 17.3536C20.2598 17.4473 20.1326 17.5 20 17.5H4C3.86739 17.5 3.74021 17.4473 3.64645 17.3536C3.55268 17.2598 3.5 17.1326 3.5 17V7C3.5 6.86739 3.55268 6.74021 3.64645 6.64645C3.74021 6.55268 3.86739 6.5 4 6.5H20C20.1326 6.5 20.2598 6.55268 20.3536 6.64645C20.4473 6.74021 20.5 6.86739 20.5 7V17Z" fill="black"/>
</svg>
