<svg width="24" height="24" viewBox="0 0 24 24" fill="none" xmlns="http://www.w3.org/2000/svg">
<path d="M21.4648 8.0947L21.0977 8.4347C21.999 9.40321 22.5 10.6771 22.5 12.0001C22.5 13.3231 21.999 14.597 21.0977 15.5655L21.4648 15.9055C22.4515 14.8444 23 13.4492 23 12.0002C23 10.5512 22.4515 9.15598 21.4648 8.0949V8.0947ZM2.5348 8.0947C1.54808 9.15578 0.999588 10.551 0.999588 12C0.999588 13.449 1.54808 14.8442 2.5348 15.9053L2.9019 15.5653C2.00063 14.5968 1.49959 13.3229 1.49959 11.9999C1.49959 10.6769 2.00063 9.40301 2.9019 8.4345L2.5348 8.0947ZM15.5 2H8.5C7.83696 2 7.20107 2.26339 6.73223 2.73223C6.26339 3.20107 6 3.83696 6 4.5V19.5C6 20.163 6.26339 20.7989 6.73223 21.2678C7.20107 21.7366 7.83696 22 8.5 22H15.5C16.163 22 16.7989 21.7366 17.2678 21.2678C17.7366 20.7989 18 20.163 18 19.5V4.5C18 3.83696 17.7366 3.20107 17.2678 2.73223C16.7989 2.26339 16.163 2 15.5 2Z" fill="black"/>
</svg>
