<svg width="24" height="24" viewBox="0 0 24 24" fill="none" xmlns="http://www.w3.org/2000/svg">
<path d="M15.5 21.5H4.5V6.5H6V6H4V22H16V20H15.5V21.5ZM8 2V18H20V2H8ZM19.5 17.5H8.5V2.5H19.5V17.5ZM14 7.5625C14.2967 7.5625 14.5867 7.47453 14.8334 7.3097C15.08 7.14488 15.2723 6.91061 15.3858 6.63653C15.4994 6.36244 15.5291 6.06084 15.4712 5.76986C15.4133 5.47889 15.2704 5.21162 15.0607 5.00184C14.8509 4.79206 14.5836 4.6492 14.2926 4.59132C14.0017 4.53344 13.7001 4.56315 13.426 4.67668C13.1519 4.79021 12.9176 4.98247 12.7528 5.22914C12.588 5.47582 12.5 5.76583 12.5 6.0625C12.5 6.46032 12.658 6.84186 12.9393 7.12316C13.2206 7.40446 13.6022 7.5625 14 7.5625ZM14 5.0625C14.1978 5.0625 14.3911 5.12115 14.5556 5.23103C14.72 5.34091 14.8482 5.49709 14.9239 5.67982C14.9996 5.86254 15.0194 6.06361 14.9808 6.25759C14.9422 6.45157 14.847 6.62975 14.7071 6.76961C14.5673 6.90946 14.3891 7.0047 14.1951 7.04329C14.0011 7.08187 13.8 7.06207 13.6173 6.98638C13.4346 6.91069 13.2784 6.78252 13.1685 6.61807C13.0586 6.45362 13 6.26028 13 6.0625C13.0003 5.79737 13.1057 5.54319 13.2932 5.35571C13.4807 5.16824 13.7349 5.06279 14 5.0625ZM14 14.75C14.5439 14.75 15.0756 14.5887 15.5278 14.2865C15.9801 13.9844 16.3325 13.5549 16.5407 13.0524C16.7488 12.5499 16.8033 11.997 16.6972 11.4635C16.591 10.9301 16.3291 10.4401 15.9445 10.0555C15.5599 9.67086 15.0699 9.40895 14.5365 9.30284C14.003 9.19673 13.4501 9.25119 12.9476 9.45933C12.4451 9.66747 12.0156 10.0199 11.7135 10.4722C11.4113 10.9244 11.25 11.4561 11.25 12C11.25 12.7293 11.5397 13.4288 12.0555 13.9445C12.5712 14.4603 13.2707 14.75 14 14.75ZM14 9.75C14.445 9.75 14.88 9.88196 15.25 10.1292C15.62 10.3764 15.9084 10.7278 16.0787 11.139C16.249 11.5501 16.2936 12.0025 16.2068 12.439C16.1199 12.8754 15.9057 13.2763 15.591 13.591C15.2763 13.9057 14.8754 14.12 14.439 14.2068C14.0025 14.2936 13.5501 14.249 13.139 14.0787C12.7278 13.9084 12.3764 13.62 12.1292 13.25C11.882 12.88 11.75 12.445 11.75 12C11.7507 11.4035 11.988 10.8316 12.4098 10.4098C12.8316 9.98796 13.4035 9.75069 14 9.75Z" fill="black"/>
</svg>
