<svg width="24" height="24" viewBox="0 0 24 24" fill="none" xmlns="http://www.w3.org/2000/svg">
<path d="M16.5 2H7.5C6.83696 2 6.20107 2.26339 5.73223 2.73223C5.26339 3.20107 5 3.83696 5 4.5V19.5C5 20.163 5.26339 20.7989 5.73223 21.2678C6.20107 21.7366 6.83696 22 7.5 22H16.5C17.163 22 17.7989 21.7366 18.2678 21.2678C18.7366 20.7989 19 20.163 19 19.5V4.5C19 3.83696 18.7366 3.20107 18.2678 2.73223C17.7989 2.26339 17.163 2 16.5 2ZM17 19.5C17 19.6326 16.9473 19.7598 16.8536 19.8536C16.7598 19.9473 16.6326 20 16.5 20H7.5C7.36739 20 7.24021 19.9473 7.14645 19.8536C7.05268 19.7598 7 19.6326 7 19.5V4.5C7 4.36739 7.05268 4.24021 7.14645 4.14645C7.24021 4.05268 7.36739 4 7.5 4H16.5C16.6326 4 16.7598 4.05268 16.8536 4.14645C16.9473 4.24021 17 4.36739 17 4.5V19.5ZM11.25 15H12.75V11.6945H11.25V15ZM12 8.5729C11.8022 8.5729 11.6089 8.63155 11.4444 8.74143C11.28 8.85131 11.1518 9.00749 11.0761 9.19022C11.0004 9.37294 10.9806 9.57401 11.0192 9.76799C11.0578 9.96197 11.153 10.1402 11.2929 10.28C11.4327 10.4199 11.6109 10.5151 11.8049 10.5537C11.9989 10.5923 12.2 10.5725 12.3827 10.4968C12.5654 10.4211 12.7216 10.2929 12.8315 10.1285C12.9414 9.96402 13 9.77068 13 9.5729C13 9.30768 12.8946 9.05333 12.7071 8.86579C12.5196 8.67826 12.2652 8.5729 12 8.5729Z" fill="black"/>
</svg>
