<svg width="24" height="24" viewBox="0 0 24 24" fill="none" xmlns="http://www.w3.org/2000/svg">
<path d="M4.4 14H5.4V10H4.4V14ZM20 5H4C3.46957 5 2.96086 5.21071 2.58579 5.58579C2.21071 5.96086 2 6.46957 2 7V17C2 17.5304 2.21071 18.0391 2.58579 18.4142C2.96086 18.7893 3.46957 19 4 19H20C20.5304 19 21.0391 18.7893 21.4142 18.4142C21.7893 18.0391 22 17.5304 22 17V7C22 6.46957 21.7893 5.96086 21.4142 5.58579C21.0391 5.21071 20.5304 5 20 5ZM21 17C20.9997 17.2651 20.8943 17.5193 20.7068 17.7068C20.5193 17.8943 20.2651 17.9997 20 18H4C3.73487 17.9997 3.48069 17.8943 3.29321 17.7068C3.10574 17.5193 3.00029 17.2651 3 17V7C3.00029 6.73487 3.10574 6.48069 3.29321 6.29321C3.48069 6.10574 3.73487 6.00029 4 6H20C20.2651 6.00029 20.5193 6.10574 20.7068 6.29321C20.8943 6.48069 20.9997 6.73487 21 7V17Z" fill="black"/>
</svg>
