<svg width="24" height="24" viewBox="0 0 24 24" fill="none" xmlns="http://www.w3.org/2000/svg">
<path d="M19.5 4H4.5C3.83696 4 3.20107 4.26339 2.73223 4.73223C2.26339 5.20107 2 5.83696 2 6.5V17.5C2 18.163 2.26339 18.7989 2.73223 19.2678C3.20107 19.7366 3.83696 20 4.5 20H19.5C20.163 20 20.7989 19.7366 21.2678 19.2678C21.7366 18.7989 22 18.163 22 17.5V6.5C22 5.83696 21.7366 5.20107 21.2678 4.73223C20.7989 4.26339 20.163 4 19.5 4ZM20.5 17.5C20.4997 17.7651 20.3943 18.0193 20.2068 18.2068C20.0193 18.3943 19.7651 18.4997 19.5 18.5H4.5C4.23487 18.4997 3.98069 18.3943 3.79321 18.2068C3.60574 18.0193 3.50029 17.7651 3.5 17.5V6.5C3.50029 6.23487 3.60574 5.98069 3.79321 5.79321C3.98069 5.60574 4.23487 5.50029 4.5 5.5H19.5C19.7651 5.50029 20.0193 5.60574 20.2068 5.79321C20.3943 5.98069 20.4997 6.23487 20.5 6.5V17.5ZM5.95 11.05C5.76211 11.05 5.57843 11.1057 5.42221 11.2101C5.26598 11.3145 5.14422 11.4629 5.07231 11.6365C5.00041 11.81 4.9816 12.0011 5.01825 12.1853C5.05491 12.3696 5.14539 12.5389 5.27825 12.6718C5.41111 12.8046 5.58038 12.8951 5.76466 12.9317C5.94895 12.9684 6.13996 12.9496 6.31355 12.8777C6.48714 12.8058 6.63551 12.684 6.7399 12.5278C6.84428 12.3716 6.9 12.1879 6.9 12C6.9 11.8752 6.87543 11.7517 6.82769 11.6365C6.77994 11.5212 6.70997 11.4165 6.62175 11.3282C6.53354 11.24 6.42881 11.1701 6.31355 11.1223C6.19829 11.0746 6.07476 11.05 5.95 11.05Z" fill="black"/>
</svg>
