<svg width="24" height="24" viewBox="0 0 24 24" fill="none" xmlns="http://www.w3.org/2000/svg">
<path d="M20 5.99999H5.1052L17.7024 1.39529L17.5314 0.925293L3.2432 6.14829L3.244 6.14999C2.87634 6.29992 2.56167 6.55595 2.34011 6.88544C2.11855 7.21493 2.00015 7.60294 2 7.99999V19C2 19.5304 2.21071 20.0391 2.58579 20.4142C2.96086 20.7893 3.46957 21 4 21H20C20.5304 21 21.0391 20.7893 21.4142 20.4142C21.7893 20.0391 22 19.5304 22 19V7.99999C22 7.46956 21.7893 6.96085 21.4142 6.58578C21.0391 6.21071 20.5304 5.99999 20 5.99999ZM13 11H4V8.99999H13V11ZM18 18.5C17.7033 18.5 17.4133 18.412 17.1666 18.2472C16.92 18.0824 16.7277 17.8481 16.6142 17.574C16.5007 17.2999 16.4709 16.9983 16.5288 16.7074C16.5867 16.4164 16.7296 16.1491 16.9393 15.9393C17.1491 15.7296 17.4164 15.5867 17.7074 15.5288C17.9983 15.4709 18.2999 15.5006 18.574 15.6142C18.8481 15.7277 19.0824 15.92 19.2472 16.1666C19.412 16.4133 19.5 16.7033 19.5 17C19.5 17.3978 19.342 17.7793 19.0607 18.0607C18.7794 18.342 18.3978 18.5 18 18.5ZM20 11H13.5V8.99999H20V11Z" fill="black"/>
</svg>
