<svg width="24" height="24" viewBox="0 0 24 24" fill="none" xmlns="http://www.w3.org/2000/svg">
<path d="M14 5H10C8.67392 5 7.40215 5.52678 6.46447 6.46446C5.52678 7.40214 5 8.67391 5 10V17C5 18.8565 5.7375 20.637 7.05025 21.9497C8.36301 23.2625 10.1435 24 12 24C13.8565 24 15.637 23.2625 16.9497 21.9497C18.2625 20.637 19 18.8565 19 17V10C19 8.67391 18.4732 7.40214 17.5355 6.46446C16.5979 5.52678 15.3261 5 14 5ZM12.75 10.25C12.75 10.4489 12.671 10.6397 12.5303 10.7803C12.3897 10.921 12.1989 11 12 11C11.8011 11 11.6103 10.921 11.4697 10.7803C11.329 10.6397 11.25 10.4489 11.25 10.25V7.75C11.25 7.55108 11.329 7.36032 11.4697 7.21967C11.6103 7.07901 11.8011 7 12 7C12.1989 7 12.3897 7.07901 12.5303 7.21967C12.671 7.36032 12.75 7.55108 12.75 7.75V10.25ZM11.8333 1.8711C12.523 1.86922 13.2062 2.0042 13.8434 2.26822C14.4805 2.53224 15.059 2.92005 15.5452 3.4092L16.6058 2.3486C15.9792 1.72167 15.2352 1.22435 14.4163 0.885043C13.5974 0.545736 12.7197 0.371094 11.8334 0.371094C10.947 0.371094 10.0693 0.545736 9.25039 0.885043C8.43151 1.22435 7.68752 1.72167 7.0609 2.3486L8.1209 3.4092C8.60719 2.92 9.18572 2.53216 9.82297 2.26814C10.4602 2.00412 11.1435 1.86916 11.8333 1.8711Z" fill="black"/>
</svg>
