<svg width="24" height="24" viewBox="0 0 24 24" fill="none" xmlns="http://www.w3.org/2000/svg">
<path d="M16.75 7V2C16.75 1.80109 16.671 1.61032 16.5303 1.46967C16.3897 1.32902 16.1989 1.25 16 1.25C15.8011 1.25 15.6103 1.32902 15.4697 1.46967C15.329 1.61032 15.25 1.80109 15.25 2V7H8.75V2C8.75 1.80109 8.67098 1.61032 8.53033 1.46967C8.38968 1.32902 8.19891 1.25 8 1.25C7.80109 1.25 7.61032 1.32902 7.46967 1.46967C7.32902 1.61032 7.25 1.80109 7.25 2V7H4V11.2237C4.00002 12.7031 4.46874 14.1445 5.3389 15.3409L6.802 17.3527C7.17309 17.8629 7.6596 18.2782 8.22182 18.5645C8.78403 18.8507 9.40599 19 10.0369 19H11.25V23H12.75V19H13.9631C14.594 19 15.216 18.8507 15.7782 18.5645C16.3404 18.2782 16.8269 17.8629 17.198 17.3527L18.6611 15.3409C19.5313 14.1445 20 12.7031 20 11.2237V7H16.75Z" fill="black"/>
</svg>
