<svg width="24" height="24" viewBox="0 0 24 24" fill="none" xmlns="http://www.w3.org/2000/svg">
<path d="M12 9.4C11.8409 9.40019 11.6884 9.46346 11.5759 9.57594C11.4635 9.68842 11.4002 9.84093 11.4 10V11H12.6V10C12.5998 9.84092 12.5366 9.6884 12.4241 9.57591C12.3116 9.46342 12.1591 9.40016 12 9.4ZM15.5 3H8.5C7.83696 3 7.20107 3.26339 6.73223 3.73223C6.26339 4.20107 6 4.83696 6 5.5V18.5C6 19.163 6.26339 19.7989 6.73223 20.2678C7.20107 20.7366 7.83696 21 8.5 21H15.5C16.163 21 16.7989 20.7366 17.2678 20.2678C17.7366 19.7989 18 19.163 18 18.5V5.5C18 4.83696 17.7366 4.20107 17.2678 3.73223C16.7989 3.26339 16.163 3 15.5 3ZM15 15H9V11H10V10C10 9.46957 10.2107 8.96086 10.5858 8.58579C10.9609 8.21071 11.4696 8 12 8C12.5304 8 13.0391 8.21071 13.4142 8.58579C13.7893 8.96086 14 9.46957 14 10V11H15V15ZM22.6434 9.27L24 7.9131H20.0345V11.8787L21.512 10.4012L21.5552 10.4443C21.9557 10.8632 22.1792 11.4204 22.1792 12C22.1792 12.5796 21.9557 13.1368 21.5552 13.5557C21.3514 13.7606 21.1091 13.923 20.8421 14.0336C20.5752 14.1442 20.2889 14.2007 20 14.2V15.8C20.4993 15.8014 20.9938 15.7037 21.455 15.5126C21.9163 15.3215 22.335 15.0408 22.687 14.6867C23.3781 13.963 23.7637 13.0008 23.7637 12.0002C23.7637 10.9996 23.3781 10.0374 22.687 9.3137L22.6434 9.27ZM1.313 14.6865L1.3566 14.7302L0 16.0868H3.9655V12.1213L2.488 13.5988L2.4448 13.5557C2.04432 13.1368 1.82081 12.5796 1.82081 12C1.82081 11.4204 2.04432 10.8632 2.4448 10.4443C2.64857 10.2394 2.89094 10.077 3.15788 9.96642C3.42483 9.85583 3.71105 9.79927 4 9.8V8.2C3.50073 8.19865 3.00616 8.29638 2.54493 8.48751C2.08369 8.67865 1.66497 8.9594 1.313 9.3135C0.621935 10.0372 0.236329 10.9994 0.236329 12C0.236329 13.0006 0.621935 13.9628 1.313 14.6865Z" fill="black"/>
</svg>
