<svg width="24" height="24" viewBox="0 0 24 24" fill="none" xmlns="http://www.w3.org/2000/svg">
<path d="M19 6H17.1416L15.4092 3H8.5908L6.8584 6H5C4.20462 6.00087 3.44206 6.31722 2.87964 6.87964C2.31722 7.44206 2.00087 8.20462 2 9V18C2.00087 18.7954 2.31722 19.5579 2.87964 20.1204C3.44206 20.6828 4.20462 20.9991 5 21H19C19.7954 20.9991 20.5579 20.6828 21.1204 20.1204C21.6828 19.5579 21.9991 18.7954 22 18V9C21.9991 8.20462 21.6828 7.44206 21.1204 6.87964C20.5579 6.31722 19.7954 6.00087 19 6ZM12 17C11.2089 17 10.4355 16.7654 9.77772 16.3259C9.11992 15.8864 8.60723 15.2616 8.30448 14.5307C8.00173 13.7998 7.92252 12.9956 8.07686 12.2196C8.2312 11.4437 8.61216 10.731 9.17157 10.1716C9.73098 9.61216 10.4437 9.2312 11.2196 9.07686C11.9956 8.92252 12.7998 9.00173 13.5307 9.30448C14.2616 9.60723 14.8864 10.1199 15.3259 10.7777C15.7654 11.4355 16 12.2089 16 13C15.999 14.0605 15.5772 15.0774 14.8273 15.8273C14.0774 16.5772 13.0605 16.999 12 17Z" fill="black"/>
</svg>
