<svg width="24" height="24" viewBox="0 0 24 24" fill="none" xmlns="http://www.w3.org/2000/svg">
<path d="M16 3H14C14 2.46957 13.7893 1.96086 13.4142 1.58579C13.0391 1.21071 12.5304 1 12 1C11.4696 1 10.9609 1.21071 10.5858 1.58579C10.2107 1.96086 10 2.46957 10 3H8C7.20435 3 6.44129 3.31607 5.87868 3.87868C5.31607 4.44129 5 5.20435 5 6V20C5 20.7956 5.31607 21.5587 5.87868 22.1213C6.44129 22.6839 7.20435 23 8 23H16C16.7956 23 17.5587 22.6839 18.1213 22.1213C18.6839 21.5587 19 20.7956 19 20V6C19 5.20435 18.6839 4.44129 18.1213 3.87868C17.5587 3.31607 16.7956 3 16 3ZM11.7544 18.0281C11.6654 18.0281 11.5784 18.0017 11.5044 17.9523C11.4304 17.9028 11.3727 17.8325 11.3387 17.7503C11.3046 17.6681 11.2957 17.5776 11.313 17.4903C11.3304 17.403 11.3733 17.3228 11.4362 17.2599C11.4991 17.197 11.5793 17.1541 11.6666 17.1367C11.7539 17.1194 11.8444 17.1283 11.9266 17.1624C12.0088 17.1964 12.0791 17.2541 12.1286 17.3281C12.178 17.4021 12.2044 17.4891 12.2044 17.5781C12.2044 17.6974 12.157 17.8119 12.0726 17.8963C11.9882 17.9807 11.8737 18.0281 11.7544 18.0281ZM13.4922 12.9531C13.0477 13.1492 12.6696 13.47 12.4037 13.8766C12.1378 14.2833 11.9955 14.7583 11.9941 15.2441H11.4941C11.4934 14.6756 11.6551 14.1188 11.9601 13.6391C12.2651 13.1594 12.7008 12.7767 13.2158 12.5361C13.8965 12.0869 14.4834 11.6982 14.4834 10.7793C14.4266 10.1814 14.1355 9.63018 13.6737 9.2461C13.2119 8.86202 12.6169 8.67624 12.0186 8.7293C10.8809 8.7293 9.665 9.45 9.665 11.4734H9.165C9.165 9.0789 10.7021 8.2293 12.0186 8.2293C12.3807 8.202 12.7447 8.2463 13.0897 8.35969C13.4347 8.47307 13.7539 8.65332 14.0293 8.89012C14.3046 9.12692 14.5305 9.41564 14.6943 9.73979C14.858 10.0639 14.9562 10.4172 14.9834 10.7793C14.9627 11.2448 14.812 11.6951 14.5485 12.0793C14.2849 12.4635 13.919 12.7662 13.4922 12.9531Z" fill="black"/>
</svg>
