<svg width="24" height="24" viewBox="0 0 24 24" fill="none" xmlns="http://www.w3.org/2000/svg">
<path d="M19 5H12.5781L14.9263 2H14.2913L12 4.9277L9.7087 2H9.0737L11.4219 5H5C4.20435 5 3.44129 5.31607 2.87868 5.87868C2.31607 6.44129 2 7.20435 2 8V18C2 18.7956 2.31607 19.5587 2.87868 20.1213C3.44129 20.6839 4.20435 21 5 21H19C19.7956 21 20.5587 20.6839 21.1213 20.1213C21.6839 19.5587 22 18.7956 22 18V8C22 7.20435 21.6839 6.44129 21.1213 5.87868C20.5587 5.31607 19.7956 5 19 5ZM21.5 18C21.5 18.663 21.2366 19.2989 20.7678 19.7678C20.2989 20.2366 19.663 20.5 19 20.5H5C4.6717 20.5 4.34661 20.4353 4.04329 20.3097C3.73998 20.1841 3.46438 19.9999 3.23223 19.7678C3.00009 19.5356 2.81594 19.26 2.6903 18.9567C2.56466 18.6534 2.5 18.3283 2.5 18V8C2.5 7.33696 2.76339 6.70107 3.23223 6.23223C3.70107 5.76339 4.33696 5.5 5 5.5H19C19.663 5.5 20.2989 5.76339 20.7678 6.23223C21.2366 6.70107 21.5 7.33696 21.5 8V18ZM5 18H16V8H5V18ZM5.5 8.5H15.5V17.5H5.5V8.5ZM18.75 8C18.4929 8 18.2415 8.07624 18.0278 8.21909C17.814 8.36194 17.6474 8.56497 17.549 8.80251C17.4506 9.04006 17.4248 9.30144 17.475 9.55362C17.5251 9.80579 17.649 10.0374 17.8308 10.2192C18.0126 10.401 18.2442 10.5249 18.4964 10.575C18.7486 10.6252 19.0099 10.5994 19.2475 10.501C19.485 10.4026 19.6881 10.236 19.8309 10.0222C19.9738 9.80846 20.05 9.55712 20.05 9.3C20.05 9.12928 20.0164 8.96023 19.951 8.80251C19.8857 8.64479 19.79 8.50148 19.6692 8.38076C19.5485 8.26005 19.4052 8.16429 19.2475 8.09896C19.0898 8.03363 18.9207 8 18.75 8ZM18.75 10.1C18.5918 10.1 18.4371 10.0531 18.3055 9.96518C18.174 9.87727 18.0714 9.75233 18.0109 9.60615C17.9503 9.45997 17.9345 9.29911 17.9654 9.14393C17.9962 8.98874 18.0724 8.8462 18.1843 8.73431C18.2962 8.62243 18.4387 8.54624 18.5939 8.51537C18.7491 8.4845 18.91 8.50035 19.0561 8.5609C19.2023 8.62145 19.3273 8.72398 19.4152 8.85554C19.5031 8.9871 19.55 9.14178 19.55 9.3C19.5498 9.5121 19.4654 9.71544 19.3154 9.86542C19.1654 10.0154 18.9621 10.0998 18.75 10.1ZM18.75 12C18.4929 12 18.2415 12.0762 18.0278 12.2191C17.814 12.3619 17.6474 12.565 17.549 12.8025C17.4506 13.0401 17.4248 13.3014 17.475 13.5536C17.5251 13.8058 17.649 14.0374 17.8308 14.2192C18.0126 14.401 18.2442 14.5249 18.4964 14.575C18.7486 14.6252 19.0099 14.5994 19.2475 14.501C19.485 14.4026 19.6881 14.236 19.8309 14.0222C19.9738 13.8085 20.05 13.5571 20.05 13.3C20.05 12.9552 19.913 12.6246 19.6692 12.3808C19.4254 12.137 19.0948 12 18.75 12ZM18.75 14.1C18.5918 14.1 18.4371 14.0531 18.3055 13.9652C18.174 13.8773 18.0714 13.7523 18.0109 13.6061C17.9503 13.46 17.9345 13.2991 17.9654 13.1439C17.9962 12.9887 18.0724 12.8462 18.1843 12.7343C18.2962 12.6224 18.4387 12.5462 18.5939 12.5154C18.7491 12.4845 18.91 12.5003 19.0561 12.5609C19.2023 12.6214 19.3273 12.724 19.4152 12.8555C19.5031 12.9871 19.55 13.1418 19.55 13.3C19.5498 13.5121 19.4654 13.7154 19.3154 13.8654C19.1654 14.0154 18.9621 14.0998 18.75 14.1Z" fill="black"/>
</svg>
