<svg width="24" height="24" viewBox="0 0 24 24" fill="none" xmlns="http://www.w3.org/2000/svg">
<path d="M15.6445 13.15C15.8719 13.15 16.0943 13.0826 16.2834 12.9562C16.4725 12.8298 16.6199 12.6502 16.707 12.4401C16.794 12.23 16.8168 11.9987 16.7724 11.7756C16.728 11.5526 16.6185 11.3477 16.4577 11.1868C16.2968 11.026 16.0919 10.9165 15.8689 10.8721C15.6458 10.8277 15.4145 10.8505 15.2044 10.9375C14.9943 11.0246 14.8147 11.172 14.6883 11.3611C14.5619 11.5502 14.4945 11.7726 14.4945 12C14.4945 12.305 14.6157 12.5975 14.8313 12.8132C15.047 13.0288 15.3395 13.15 15.6445 13.15ZM8.3555 13.15C8.58295 13.15 8.8053 13.0826 8.99443 12.9562C9.18356 12.8299 9.33098 12.6503 9.41803 12.4402C9.50509 12.23 9.52788 11.9988 9.48352 11.7757C9.43915 11.5526 9.32963 11.3477 9.16881 11.1869C9.00798 11.026 8.80307 10.9165 8.57999 10.8721C8.35691 10.8277 8.12568 10.8505 7.91554 10.9375C7.7054 11.0246 7.52578 11.172 7.39942 11.3611C7.27305 11.5502 7.2056 11.7725 7.2056 12C7.2056 12.305 7.32675 12.5975 7.54239 12.8131C7.75804 13.0288 8.05052 13.15 8.3555 13.15ZM12 10.15C12.2274 10.15 12.4498 10.0826 12.6389 9.95619C12.828 9.82983 12.9754 9.65022 13.0625 9.44009C13.1495 9.22995 13.1723 8.99872 13.1279 8.77565C13.0835 8.55257 12.974 8.34766 12.8132 8.18683C12.6523 8.026 12.4474 7.91647 12.2244 7.8721C12.0013 7.82772 11.77 7.8505 11.5599 7.93754C11.3498 8.02458 11.1702 8.17198 11.0438 8.36109C10.9174 8.55021 10.85 8.77255 10.85 9C10.85 9.305 10.9712 9.59751 11.1868 9.81317C11.4025 10.0288 11.695 10.15 12 10.15ZM3 3V21H21V3H3ZM19.5 19.5H4.5V4.5H19.5V19.5Z" fill="black"/>
</svg>
