<svg width="24" height="24" viewBox="0 0 24 24" fill="none" xmlns="http://www.w3.org/2000/svg">
<path d="M18.9641 5H5.03588L0.571777 12L5.03588 19H18.9641L23.4282 12L18.9641 5ZM17.8674 17H6.13258L2.94378 12L6.13258 7H17.8674L21.0562 12L17.8674 17ZM17.3057 10.65C17.0387 10.65 16.7777 10.7292 16.5557 10.8775C16.3336 11.0259 16.1606 11.2367 16.0584 11.4834C15.9563 11.7301 15.9295 12.0015 15.9816 12.2634C16.0337 12.5252 16.1623 12.7658 16.3511 12.9546C16.5399 13.1434 16.7804 13.272 17.0423 13.3241C17.3042 13.3762 17.5756 13.3494 17.8223 13.2472C18.069 13.1451 18.2798 12.972 18.4282 12.75C18.5765 12.528 18.6557 12.267 18.6557 12C18.6557 11.642 18.5134 11.2986 18.2603 11.0454C18.0071 10.7922 17.6637 10.65 17.3057 10.65ZM6.69428 10.65C6.42728 10.65 6.16628 10.7292 5.94428 10.8776C5.72229 11.0259 5.54927 11.2368 5.44711 11.4834C5.34495 11.7301 5.31823 12.0016 5.37033 12.2634C5.42243 12.5253 5.55101 12.7658 5.73982 12.9546C5.92862 13.1434 6.16917 13.272 6.43104 13.3241C6.69291 13.3761 6.96435 13.3494 7.21102 13.2472C7.4577 13.145 7.66853 12.972 7.81687 12.75C7.9652 12.528 8.04438 12.267 8.04438 12C8.04438 11.8227 8.00946 11.6472 7.94161 11.4834C7.87376 11.3196 7.77431 11.1707 7.64894 11.0454C7.52357 10.92 7.37473 10.8206 7.21093 10.7527C7.04713 10.6849 6.87157 10.65 6.69428 10.65ZM12 13.1266C11.733 13.1266 11.472 13.2058 11.25 13.3541C11.028 13.5025 10.8549 13.7133 10.7527 13.96C10.6506 14.2067 10.6238 14.4781 10.6759 14.74C10.728 15.0018 10.8566 15.2424 11.0454 15.4312C11.2342 15.62 11.4747 15.7486 11.7366 15.8007C11.9985 15.8527 12.2699 15.826 12.5166 15.7238C12.7633 15.6217 12.9741 15.4486 13.1225 15.2266C13.2708 15.0046 13.35 14.7436 13.35 14.4766C13.35 14.1186 13.2077 13.7752 12.9546 13.522C12.7014 13.2688 12.358 13.1266 12 13.1266Z" fill="black"/>
</svg>
