<svg width="24" height="24" viewBox="0 0 24 24" fill="none" xmlns="http://www.w3.org/2000/svg">
<path d="M9 16C10.0605 15.999 11.0774 15.5772 11.8273 14.8273C12.5772 14.0774 12.999 13.0605 13 12V5C13 3.93913 12.5786 2.92172 11.8284 2.17157C11.0783 1.42143 10.0609 1 9 1C7.93913 1 6.92172 1.42143 6.17157 2.17157C5.42143 2.92172 5 3.93913 5 5V12C5.00103 13.0605 5.42279 14.0774 6.17271 14.8273C6.92264 15.5772 7.93945 15.999 9 16ZM6 5C6 4.20435 6.31607 3.44129 6.87868 2.87868C7.44129 2.31607 8.20435 2 9 2C9.79565 2 10.5587 2.31607 11.1213 2.87868C11.6839 3.44129 12 4.20435 12 5V12C12 12.7956 11.6839 13.5587 11.1213 14.1213C10.5587 14.6839 9.79565 15 9 15C8.20435 15 7.44129 14.6839 6.87868 14.1213C6.31607 13.5587 6 12.7956 6 12V5ZM16 12C16 13.8565 15.2625 15.637 13.9497 16.9497C12.637 18.2625 10.8565 19 9 19C7.14348 19 5.36301 18.2625 4.05025 16.9497C2.7375 15.637 2 13.8565 2 12V10H1V12C1.00093 14.034 1.77717 15.9911 3.17062 17.4727C4.56407 18.9544 6.46992 19.8491 8.5 19.9747V23H9.5V19.9747C11.5301 19.8491 13.4359 18.9544 14.8294 17.4727C16.2228 15.9911 16.9991 14.034 17 12V10H16V12ZM21.6592 4.994L22.8821 4.1157C22.7999 3.72484 22.6589 3.34868 22.4641 3C22.2596 2.65688 22.0043 2.3467 21.7069 2.08L20.3349 2.7L20.3243 2.6939L20.1752 1.1958C19.4136 0.934802 18.5868 0.934802 17.8252 1.1958L17.6757 2.694L17.6652 2.7L16.2931 2.08C15.9957 2.34668 15.7404 2.65687 15.5359 3C15.3411 3.34865 15.2002 3.72478 15.118 4.1156L16.3408 4.9939V5.006L15.1179 5.8843C15.2002 6.27516 15.3411 6.65132 15.5359 7C15.7404 7.34313 15.9957 7.65332 16.2931 7.92L17.6652 7.3L17.6757 7.306L17.8248 8.8042C18.5864 9.0652 19.4132 9.0652 20.1748 8.8042L20.324 7.3061L20.3348 7.3L21.7069 7.92C22.0043 7.65329 22.2596 7.34311 22.4641 7C22.6589 6.65139 22.7998 6.27529 22.882 5.8845L21.6592 5.006V4.994ZM22.0164 6.186C21.909 6.49112 21.7458 6.77364 21.5352 7.0192L20.6436 6.6165L20.2836 6.4644L19.9508 6.6558L19.6166 6.848L19.5784 7.2316L19.4815 8.2052C19.1635 8.2648 18.8373 8.2648 18.5193 8.2052L18.4224 7.2316L18.3737 6.8416L18.0391 6.65L17.7063 6.4586L17.3563 6.6167L16.4646 7.0195C16.2541 6.77389 16.0909 6.49134 15.9835 6.1862L16.7782 5.6154L17.0907 5.3789V4.6092L16.7782 4.3847L15.9836 3.814C16.0909 3.50884 16.254 3.22628 16.4646 2.9807L17.3563 3.3835L17.7185 3.5364L18.0523 3.3425L18.384 3.15L18.422 2.7685L18.5189 1.7949C18.8369 1.73543 19.1631 1.73543 19.4811 1.7949L19.578 2.7685L19.6269 3.1593L19.9625 3.3513L20.2948 3.5413L20.6437 3.3837L21.5353 2.981C21.7459 3.22656 21.909 3.50908 22.0164 3.8142L21.2217 4.385L20.9092 4.6215V5.3909L21.2216 5.6154L22.0164 6.186ZM19 4.25C18.8517 4.25 18.7067 4.29399 18.5833 4.3764C18.46 4.45881 18.3639 4.57594 18.3071 4.71299C18.2503 4.85003 18.2355 5.00083 18.2644 5.14632C18.2934 5.2918 18.3648 5.42544 18.4697 5.53033C18.5746 5.63522 18.7082 5.70665 18.8537 5.73559C18.9992 5.76453 19.15 5.74968 19.287 5.69291C19.4241 5.63614 19.5412 5.54001 19.6236 5.41668C19.706 5.29334 19.75 5.14834 19.75 5C19.75 4.80109 19.671 4.61032 19.5303 4.46967C19.3897 4.32902 19.1989 4.25 19 4.25Z" fill="black"/>
</svg>
