<svg width="24" height="24" viewBox="0 0 24 24" fill="none" xmlns="http://www.w3.org/2000/svg">
<path d="M5.9507 9.99991L21.3065 4.56791L20.7939 3.15991L2 9.99991V16.9999C2 17.5303 2.21071 18.0391 2.58579 18.4141C2.96086 18.7892 3.46957 18.9999 4 18.9999H20C20.5304 18.9999 21.0391 18.7892 21.4142 18.4141C21.7893 18.0391 22 17.5303 22 16.9999V9.99991H5.9507ZM6.7 15.4499C6.51211 15.4499 6.32843 15.3942 6.17221 15.2898C6.01598 15.1854 5.89422 15.0371 5.82231 14.8635C5.75041 14.6899 5.7316 14.4989 5.76825 14.3146C5.80491 14.1303 5.89539 13.961 6.02825 13.8282C6.16111 13.6953 6.33038 13.6048 6.51466 13.5682C6.69895 13.5315 6.88996 13.5503 7.06355 13.6222C7.23714 13.6941 7.38551 13.8159 7.4899 13.9721C7.59428 14.1283 7.65 14.312 7.65 14.4999C7.65 14.7519 7.54991 14.9935 7.37175 15.1717C7.19359 15.3498 6.95196 15.4499 6.7 15.4499Z" fill="black"/>
</svg>
