<svg width="24" height="24" viewBox="0 0 24 24" fill="none" xmlns="http://www.w3.org/2000/svg">
<path d="M16 3H14C14 2.46957 13.7893 1.96086 13.4142 1.58579C13.0391 1.21071 12.5304 1 12 1C11.4696 1 10.9609 1.21071 10.5858 1.58579C10.2107 1.96086 10 2.46957 10 3H8C7.20435 3 6.44129 3.31607 5.87868 3.87868C5.31607 4.44129 5 5.20435 5 6V20C5 20.7956 5.31607 21.5587 5.87868 22.1213C6.44129 22.6839 7.20435 23 8 23H16C16.7956 23 17.5587 22.6839 18.1213 22.1213C18.6839 21.5587 19 20.7956 19 20V6C19 5.20435 18.6839 4.44129 18.1213 3.87868C17.5587 3.31607 16.7956 3 16 3ZM11.875 18.276C11.6937 18.276 11.5165 18.2222 11.3657 18.1215C11.2149 18.0208 11.0975 17.8776 11.0281 17.7101C10.9587 17.5426 10.9405 17.3582 10.9759 17.1804C11.0113 17.0026 11.0986 16.8393 11.2268 16.7111C11.355 16.5829 11.5184 16.4956 11.6962 16.4602C11.8741 16.4248 12.0584 16.443 12.2259 16.5124C12.3934 16.5818 12.5365 16.6993 12.6373 16.8501C12.738 17.0008 12.7917 17.1781 12.7917 17.3594C12.7917 17.6025 12.6951 17.8356 12.5232 18.0075C12.3513 18.1794 12.1181 18.276 11.875 18.276ZM12.4658 14.75H11.2842L10.925 8.25H12.825L12.4658 14.75Z" fill="black"/>
</svg>
