<svg width="24" height="24" viewBox="0 0 24 24" fill="none" xmlns="http://www.w3.org/2000/svg">
<path d="M3 21H21V12.25H3V21ZM18 16.1906C18.089 16.1906 18.176 16.217 18.25 16.2664C18.324 16.3159 18.3817 16.3862 18.4157 16.4684C18.4498 16.5506 18.4587 16.6411 18.4414 16.7284C18.424 16.8157 18.3811 16.8959 18.3182 16.9588C18.2553 17.0217 18.1751 17.0646 18.0878 17.082C18.0005 17.0993 17.91 17.0904 17.8278 17.0563C17.7456 17.0223 17.6753 16.9646 17.6258 16.8906C17.5764 16.8166 17.55 16.7296 17.55 16.6406C17.55 16.5213 17.5974 16.4068 17.6818 16.3224C17.7662 16.238 17.8807 16.1906 18 16.1906ZM15 16.1906C15.089 16.1906 15.176 16.217 15.25 16.2664C15.324 16.3159 15.3817 16.3862 15.4157 16.4684C15.4498 16.5506 15.4587 16.6411 15.4414 16.7284C15.424 16.8157 15.3811 16.8959 15.3182 16.9588C15.2553 17.0217 15.1751 17.0646 15.0878 17.082C15.0005 17.0993 14.91 17.0904 14.8278 17.0563C14.7456 17.0223 14.6753 16.9646 14.6258 16.8906C14.5764 16.8166 14.55 16.7296 14.55 16.6406C14.55 16.5213 14.5974 16.4068 14.6818 16.3224C14.7662 16.238 14.8807 16.1906 15 16.1906ZM3 3V11.75H21V3H3ZM15 7.8094C14.911 7.8094 14.824 7.78301 14.75 7.73356C14.676 7.68411 14.6183 7.61383 14.5843 7.53161C14.5502 7.44938 14.5413 7.3589 14.5586 7.27161C14.576 7.18432 14.6189 7.10414 14.6818 7.0412C14.7447 6.97827 14.8249 6.93541 14.9122 6.91805C14.9995 6.90068 15.09 6.90959 15.1722 6.94365C15.2544 6.97771 15.3247 7.03539 15.3742 7.10939C15.4236 7.1834 15.45 7.2704 15.45 7.3594C15.45 7.47875 15.4026 7.59321 15.3182 7.6776C15.2338 7.76199 15.1193 7.8094 15 7.8094ZM18 7.8094C17.911 7.8094 17.824 7.78301 17.75 7.73356C17.676 7.68411 17.6183 7.61383 17.5843 7.53161C17.5502 7.44938 17.5413 7.3589 17.5586 7.27161C17.576 7.18432 17.6189 7.10414 17.6818 7.0412C17.7447 6.97827 17.8249 6.93541 17.9122 6.91805C17.9995 6.90068 18.09 6.90959 18.1722 6.94365C18.2544 6.97771 18.3247 7.03539 18.3742 7.10939C18.4236 7.1834 18.45 7.2704 18.45 7.3594C18.45 7.47875 18.4026 7.59321 18.3182 7.6776C18.2338 7.76199 18.1193 7.8094 18 7.8094Z" fill="black"/>
</svg>
