<svg width="24" height="24" viewBox="0 0 24 24" fill="none" xmlns="http://www.w3.org/2000/svg">
<path d="M20 11H15.75V6.00001C15.75 5.8011 15.671 5.61034 15.5303 5.46968C15.3897 5.32903 15.1989 5.25001 15 5.25001C14.8011 5.25001 14.6103 5.32903 14.4697 5.46968C14.329 5.61034 14.25 5.8011 14.25 6.00001V11H4C3.46957 11 2.96086 11.2107 2.58579 11.5858C2.21071 11.9609 2 12.4696 2 13V19C2 19.5304 2.21071 20.0392 2.58579 20.4142C2.96086 20.7893 3.46957 21 4 21H20C20.5304 21 21.0391 20.7893 21.4142 20.4142C21.7893 20.0392 22 19.5304 22 19V13C22 12.4696 21.7893 11.9609 21.4142 11.5858C21.0391 11.2107 20.5304 11 20 11ZM20.5 19C20.4998 19.1326 20.4471 19.2597 20.3534 19.3534C20.2596 19.4471 20.1326 19.4999 20 19.5H4C3.86744 19.4999 3.74036 19.4471 3.64662 19.3534C3.55289 19.2597 3.50016 19.1326 3.5 19V13C3.50016 12.8675 3.55289 12.7404 3.64662 12.6466C3.74036 12.5529 3.86744 12.5002 4 12.5H20C20.1326 12.5002 20.2596 12.5529 20.3534 12.6466C20.4471 12.7404 20.4998 12.8675 20.5 13V19ZM7 15C6.80222 15 6.60888 15.0587 6.44443 15.1685C6.27998 15.2784 6.15181 15.4346 6.07612 15.6173C6.00043 15.8001 5.98063 16.0011 6.01921 16.1951C6.0578 16.3891 6.15304 16.5673 6.29289 16.7071C6.43275 16.847 6.61093 16.9422 6.80491 16.9808C6.99889 17.0194 7.19996 16.9996 7.38268 16.9239C7.56541 16.8482 7.72159 16.72 7.83147 16.5556C7.94135 16.3911 8 16.1978 8 16C8 15.7348 7.89464 15.4804 7.70711 15.2929C7.51957 15.1054 7.26522 15 7 15ZM12.7021 8.29791C12.4002 7.9962 12.1608 7.63797 11.9974 7.24369C11.8341 6.8494 11.75 6.4268 11.75 6.00001C11.75 5.57323 11.8341 5.15062 11.9974 4.75634C12.1608 4.36206 12.4002 4.00383 12.7021 3.70211L11.6421 2.64161C11.2009 3.08256 10.851 3.60612 10.6122 4.18237C10.3734 4.75861 10.2505 5.37626 10.2505 6.00001C10.2505 6.62377 10.3734 7.24142 10.6122 7.81766C10.851 8.39391 11.2009 8.91746 11.6421 9.35841L12.7021 8.29791ZM18.3584 9.35791C18.7996 8.91696 19.1495 8.39341 19.3883 7.81716C19.6271 7.24092 19.75 6.62327 19.75 5.99951C19.75 5.37576 19.6271 4.75811 19.3883 4.18187C19.1495 3.60562 18.7996 3.08206 18.3584 2.64111L17.2979 3.70211C17.5997 4.00383 17.8392 4.36206 18.0026 4.75634C18.1659 5.15062 18.25 5.57323 18.25 6.00001C18.25 6.4268 18.1659 6.8494 18.0026 7.24369C17.8392 7.63797 17.5997 7.9962 17.2979 8.29791L18.3584 9.35791Z" fill="black"/>
</svg>
