<svg width="24" height="24" viewBox="0 0 24 24" fill="none" xmlns="http://www.w3.org/2000/svg">
<path d="M12 8.9C11.7084 8.90032 11.4288 9.01631 11.2225 9.22253C11.0163 9.42875 10.9003 9.70836 10.9 10V11H13.1V10C13.0997 9.70836 12.9837 9.42875 12.7775 9.22253C12.5712 9.01631 12.2916 8.90032 12 8.9ZM19.5 6H4.5C3.83696 6 3.20107 6.26339 2.73223 6.73223C2.26339 7.20107 2 7.83696 2 8.5V15.5C2 16.163 2.26339 16.7989 2.73223 17.2678C3.20107 17.7366 3.83696 18 4.5 18H19.5C20.163 18 20.7989 17.7366 21.2678 17.2678C21.7366 16.7989 22 16.163 22 15.5V8.5C22 7.83696 21.7366 7.20107 21.2678 6.73223C20.7989 6.26339 20.163 6 19.5 6ZM15 15H9V11H10V10C10 9.46957 10.2107 8.96086 10.5858 8.58579C10.9609 8.21071 11.4696 8 12 8C12.5304 8 13.0391 8.21071 13.4142 8.58579C13.7893 8.96086 14 9.46957 14 10V11H15V15Z" fill="black"/>
</svg>
