<svg width="24" height="24" viewBox="0 0 24 24" fill="none" xmlns="http://www.w3.org/2000/svg">
<path d="M12 1C10.2334 0.999686 8.49282 1.42563 6.92601 2.24168C5.35919 3.05773 4.01241 4.23979 3 5.6875V18.3125C4.01264 19.76 5.35947 20.9419 6.92624 21.7579C8.493 22.5739 10.2335 23 12 23C13.7665 23 15.507 22.5739 17.0738 21.7579C18.6405 20.9419 19.9874 19.76 21 18.3125V5.6875C19.9876 4.23979 18.6408 3.05773 17.074 2.24168C15.5072 1.42563 13.7666 0.999686 12 1ZM19.5 17.819C18.614 18.9646 17.4774 19.8921 16.1773 20.5301C14.8772 21.1682 13.4482 21.5 12 21.5C10.5518 21.5 9.12278 21.1682 7.82269 20.5301C6.5226 19.8921 5.38596 18.9646 4.5 17.819V6.181C5.38596 5.03538 6.5226 4.10794 7.82269 3.46986C9.12278 2.83178 10.5518 2.50001 12 2.50001C13.4482 2.50001 14.8772 2.83178 16.1773 3.46986C17.4774 4.10794 18.614 5.03538 19.5 6.181V17.819ZM11.2549 17.5H12.7549V14.5H11.2549V17.5ZM6.9136 10.2806L7.9741 11.3413L10.0952 9.22L9.0352 8.1594L6.9136 10.2806ZM13.9136 9.2195L16.0352 11.3406L17.0955 10.28L14.9741 8.1588L13.9136 9.2195Z" fill="black"/>
</svg>
