<svg width="24" height="24" viewBox="0 0 24 24" fill="none" xmlns="http://www.w3.org/2000/svg">
<path d="M7 20C7 20.5304 7.21071 21.0391 7.58579 21.4142C7.96086 21.7893 8.46957 22 9 22H15C15.5304 22 16.0391 21.7893 16.4142 21.4142C16.7893 21.0391 17 20.5304 17 20V14H7V20ZM14 15C14.1978 15 14.3911 15.0586 14.5556 15.1685C14.72 15.2784 14.8482 15.4346 14.9239 15.6173C14.9996 15.8 15.0194 16.0011 14.9808 16.1951C14.9422 16.3891 14.847 16.5673 14.7071 16.7071C14.5673 16.847 14.3891 16.9422 14.1951 16.9808C14.0011 17.0194 13.8 16.9996 13.6173 16.9239C13.4346 16.8482 13.2784 16.72 13.1685 16.5556C13.0586 16.3911 13 16.1978 13 16C13 15.7348 13.1054 15.4804 13.2929 15.2929C13.4804 15.1054 13.7348 15 14 15ZM14 18C14.1978 18 14.3911 18.0586 14.5556 18.1685C14.72 18.2784 14.8482 18.4346 14.9239 18.6173C14.9996 18.8 15.0194 19.0011 14.9808 19.1951C14.9422 19.3891 14.847 19.5673 14.7071 19.7071C14.5673 19.847 14.3891 19.9422 14.1951 19.9808C14.0011 20.0194 13.8 19.9996 13.6173 19.9239C13.4346 19.8482 13.2784 19.72 13.1685 19.5556C13.0586 19.3911 13 19.1978 13 19C13 18.7348 13.1054 18.4804 13.2929 18.2929C13.4804 18.1054 13.7348 18 14 18ZM10 15C10.1978 15 10.3911 15.0586 10.5556 15.1685C10.72 15.2784 10.8482 15.4346 10.9239 15.6173C10.9996 15.8 11.0194 16.0011 10.9808 16.1951C10.9422 16.3891 10.847 16.5673 10.7071 16.7071C10.5673 16.847 10.3891 16.9422 10.1951 16.9808C10.0011 17.0194 9.80004 16.9996 9.61732 16.9239C9.43459 16.8482 9.27841 16.72 9.16853 16.5556C9.05865 16.3911 9 16.1978 9 16C9 15.7348 9.10536 15.4804 9.29289 15.2929C9.48043 15.1054 9.73478 15 10 15ZM10 18C10.1978 18 10.3911 18.0586 10.5556 18.1685C10.72 18.2784 10.8482 18.4346 10.9239 18.6173C10.9996 18.8 11.0194 19.0011 10.9808 19.1951C10.9422 19.3891 10.847 19.5673 10.7071 19.7071C10.5673 19.847 10.3891 19.9422 10.1951 19.9808C10.0011 20.0194 9.80004 19.9996 9.61732 19.9239C9.43459 19.8482 9.27841 19.72 9.16853 19.5556C9.05865 19.3911 9 19.1978 9 19C9 18.7348 9.10536 18.4804 9.29289 18.2929C9.48043 18.1054 9.73478 18 10 18ZM16 2H8C7.46957 2 6.96086 2.21071 6.58579 2.58579C6.21071 2.96086 6 3.46957 6 4V11C6 11.5304 6.21071 12.0391 6.58579 12.4142C6.96086 12.7893 7.46957 13 8 13H16C16.5304 13 17.0391 12.7893 17.4142 12.4142C17.7893 12.0391 18 11.5304 18 11V4C18 3.46957 17.7893 2.96086 17.4142 2.58579C17.0391 2.21071 16.5304 2 16 2ZM16.5 11H7.5V4H16.5V11Z" fill="black"/>
</svg>
