<svg width="24" height="24" viewBox="0 0 24 24" fill="none" xmlns="http://www.w3.org/2000/svg">
<path d="M16.5 2H7.5C6.83696 2 6.20107 2.26339 5.73223 2.73223C5.26339 3.20107 5 3.83696 5 4.5V19.5C5 20.163 5.26339 20.7989 5.73223 21.2678C6.20107 21.7366 6.83696 22 7.5 22H16.5C17.163 22 17.7989 21.7366 18.2678 21.2678C18.7366 20.7989 19 20.163 19 19.5V4.5C19 3.83696 18.7366 3.20107 18.2678 2.73223C17.7989 2.26339 17.163 2 16.5 2ZM7 13.85H9.075V16.075H7V13.85ZM10.925 13.85H13.075V16.075H10.925V13.85ZM7.5 20C7.36744 19.9998 7.24036 19.9471 7.14662 19.8534C7.05289 19.7596 7.00016 19.6326 7 19.5V17.925H9.075V20H7.5ZM10.925 20V17.925H13.075V20H10.925ZM17 19.5C16.9998 19.6326 16.9471 19.7596 16.8534 19.8534C16.7596 19.9471 16.6326 19.9998 16.5 20H14.925V17.925H17V19.5ZM17 16.075H14.925V13.85H17V16.075ZM7 12V4.5C7.00016 4.36744 7.05289 4.24036 7.14662 4.14662C7.24036 4.05289 7.36744 4.00016 7.5 4H16.5C16.6326 4.00016 16.7596 4.05289 16.8534 4.14662C16.9471 4.24036 16.9998 4.36744 17 4.5V12H7Z" fill="black"/>
</svg>
