<svg width="24" height="24" viewBox="0 0 24 24" fill="none" xmlns="http://www.w3.org/2000/svg">
<path d="M19.5 5H4.5C3.83696 5 3.20107 5.26339 2.73223 5.73223C2.26339 6.20107 2 6.83696 2 7.5V16.5C2 17.163 2.26339 17.7989 2.73223 18.2678C3.20107 18.7366 3.83696 19 4.5 19H19.5C20.163 19 20.7989 18.7366 21.2678 18.2678C21.7366 17.7989 22 17.163 22 16.5V7.5C22 6.83696 21.7366 6.20107 21.2678 5.73223C20.7989 5.26339 20.163 5 19.5 5ZM7.5 18.5H4.5C3.96975 18.4994 3.4614 18.2885 3.08646 17.9135C2.71152 17.5386 2.50061 17.0302 2.5 16.5V7.5C2.50061 6.96975 2.71152 6.4614 3.08646 6.08646C3.4614 5.71152 3.96975 5.50061 4.5 5.5H7.5V18.5ZM21.5 16.5C21.4994 17.0302 21.2885 17.5386 20.9135 17.9135C20.5386 18.2885 20.0302 18.4994 19.5 18.5H8V5.5H19.5C20.0302 5.50061 20.5386 5.71152 20.9135 6.08646C21.2885 6.4614 21.4994 6.96975 21.5 7.5V16.5ZM8 3.75C8 3.6837 7.97366 3.62011 7.92678 3.57322C7.87989 3.52634 7.8163 3.5 7.75 3.5H5.25C5.1837 3.5 5.12011 3.52634 5.07322 3.57322C5.02634 3.62011 5 3.6837 5 3.75V4H8V3.75ZM14.875 8C14.0839 8 13.3105 8.2346 12.6527 8.67412C11.9949 9.11365 11.4822 9.73836 11.1795 10.4693C10.8767 11.2002 10.7975 12.0044 10.9519 12.7804C11.1062 13.5563 11.4872 14.269 12.0466 14.8284C12.606 15.3878 13.3187 15.7688 14.0946 15.9231C14.8706 16.0775 15.6748 15.9983 16.4057 15.6955C17.1366 15.3928 17.7614 14.8801 18.2009 14.2223C18.6404 13.5645 18.875 12.7911 18.875 12C18.8739 10.9395 18.4521 9.92271 17.7022 9.1728C16.9523 8.4229 15.9355 8.00111 14.875 8ZM14.875 15.5C14.1828 15.5 13.5061 15.2947 12.9305 14.9101C12.3549 14.5256 11.9063 13.9789 11.6414 13.3394C11.3765 12.6999 11.3072 11.9961 11.4423 11.3172C11.5773 10.6382 11.9106 10.0146 12.4001 9.52513C12.8896 9.03564 13.5133 8.7023 14.1922 8.56725C14.8711 8.4322 15.5749 8.50151 16.2144 8.76642C16.8539 9.03133 17.4006 9.47993 17.7851 10.0555C18.1697 10.6311 18.375 11.3078 18.375 12C18.3739 12.9279 18.0049 13.8176 17.3487 14.4737C16.6926 15.1299 15.8029 15.4989 14.875 15.5Z" fill="black"/>
</svg>
