<svg width="24" height="24" viewBox="0 0 24 24" fill="none" xmlns="http://www.w3.org/2000/svg">
<path d="M12 2C10.6868 2 9.38642 2.25866 8.17317 2.7612C6.95991 3.26375 5.85752 4.00035 4.92893 4.92893C3.05357 6.8043 2 9.34784 2 12V17C2 17.7956 2.31607 18.5587 2.87868 19.1213C3.44129 19.6839 4.20435 20 5 20H8V11H5C4.48354 11.0031 3.97684 11.141 3.53 11.4C3.67895 9.2553 4.63599 7.24696 6.20795 5.78038C7.77992 4.3138 9.84973 3.4982 11.9996 3.4982C14.1495 3.4982 16.2193 4.3138 17.7912 5.78038C19.3632 7.24696 20.3203 9.2553 20.4692 11.4C20.0226 11.1411 19.5162 11.0033 19 11H16V20H19C19.7956 20 20.5587 19.6839 21.1213 19.1213C21.6839 18.5587 22 17.7956 22 17V12C22 10.6868 21.7413 9.38642 21.2388 8.17317C20.7362 6.95991 19.9997 5.85752 19.0711 4.92893C18.1425 4.00035 17.0401 3.26375 15.8268 2.7612C14.6136 2.25866 13.3132 2 12 2ZM5 12.5H6.5V18.5H5C4.60231 18.4995 4.22104 18.3414 3.93984 18.0602C3.65863 17.779 3.50045 17.3977 3.5 17V14C3.50045 13.6023 3.65863 13.221 3.93984 12.9398C4.22104 12.6586 4.60231 12.5005 5 12.5ZM20.5 17C20.4995 17.3977 20.3414 17.779 20.0602 18.0602C19.779 18.3414 19.3977 18.4995 19 18.5H17.5V12.5H19C19.3977 12.5005 19.779 12.6586 20.0602 12.9398C20.3414 13.221 20.4995 13.6023 20.5 14V17Z" fill="black"/>
</svg>
