<svg width="24" height="24" viewBox="0 0 24 24" fill="none" xmlns="http://www.w3.org/2000/svg">
<g clip-path="url(#clip0)">
<path d="M13 2.99995H10.5764C10.5764 2.79293 10.5356 2.58794 10.4564 2.39669C10.3772 2.20543 10.2611 2.03165 10.1147 1.88527C9.9683 1.73888 9.79452 1.62277 9.60326 1.54354C9.412 1.46432 9.20702 1.42355 9 1.42355C8.79298 1.42355 8.588 1.46432 8.39674 1.54354C8.20548 1.62277 8.0317 1.73888 7.88532 1.88527C7.73893 2.03165 7.62282 2.20543 7.5436 2.39669C7.46437 2.58794 7.4236 2.79293 7.4236 2.99995H5C4.20435 2.99995 3.44129 3.31602 2.87868 3.87863C2.31607 4.44124 2 5.2043 2 5.99995V19.9999C2 20.7956 2.31607 21.5587 2.87868 22.1213C3.44129 22.6839 4.20435 22.9999 5 22.9999H13C13.7956 22.9999 14.5587 22.6839 15.1213 22.1213C15.6839 21.5587 16 20.7956 16 19.9999V5.99995C16 5.2043 15.6839 4.44124 15.1213 3.87863C14.5587 3.31602 13.7956 2.99995 13 2.99995ZM14.5 19.9999C14.4995 20.3976 14.3414 20.7789 14.0602 21.0601C13.779 21.3413 13.3977 21.4995 13 21.4999H5C4.60231 21.4995 4.22104 21.3413 3.93984 21.0601C3.65863 20.7789 3.50045 20.3976 3.5 19.9999V5.99995C3.50045 5.60226 3.65863 5.22099 3.93984 4.93979C4.22104 4.65858 4.60231 4.5004 5 4.49995H13C13.3977 4.5004 13.779 4.65858 14.0602 4.93979C14.3414 5.22099 14.4995 5.60226 14.5 5.99995V19.9999ZM24.0312 4.47385H21.4531V1.32715L18.875 6.19265H21.4531V9.33935L24.0312 4.47385Z" fill="black"/>
</g>
<defs>
<clipPath id="clip0">
<rect width="24" height="24" fill="white"/>
</clipPath>
</defs>
</svg>
