<svg width="24" height="24" viewBox="0 0 24 24" fill="none" xmlns="http://www.w3.org/2000/svg">
<path d="M21.2651 7.585L19.7974 8.9434C20.5703 9.7734 21 10.8654 21 11.9995C21 13.1337 20.5703 14.2257 19.7974 15.0557L21.2651 16.415C22.3802 15.2152 23 13.638 23 12C23 10.362 22.3802 8.78476 21.2651 7.585ZM2.73509 7.585C1.61999 8.78476 1.00018 10.362 1.00018 12C1.00018 13.638 1.61999 15.2152 2.73509 16.415L4.20279 15.0557C3.42991 14.2257 3.0002 13.1337 3.0002 11.9995C3.0002 10.8654 3.42991 9.7734 4.20279 8.9434L2.73509 7.585ZM15.5 2H8.49999C7.83695 2 7.20107 2.26339 6.73223 2.73223C6.26339 3.20107 5.99999 3.83696 5.99999 4.5V19.5C5.99999 20.163 6.26339 20.7989 6.73223 21.2678C7.20107 21.7366 7.83695 22 8.49999 22H15.5C16.163 22 16.7989 21.7366 17.2678 21.2678C17.7366 20.7989 18 20.163 18 19.5V4.5C18 3.83696 17.7366 3.20107 17.2678 2.73223C16.7989 2.26339 16.163 2 15.5 2ZM16 19.5C16 19.6326 15.9473 19.7598 15.8535 19.8536C15.7598 19.9473 15.6326 20 15.5 20H8.49999C8.36739 20 8.24021 19.9473 8.14644 19.8536C8.05267 19.7598 7.99999 19.6326 7.99999 19.5V4.5C7.99999 4.36739 8.05267 4.24021 8.14644 4.14645C8.24021 4.05268 8.36739 4 8.49999 4H15.5C15.6326 4 15.7598 4.05268 15.8535 4.14645C15.9473 4.24021 16 4.36739 16 4.5V19.5Z" fill="black"/>
</svg>
