<svg width="24" height="24" viewBox="0 0 24 24" fill="none" xmlns="http://www.w3.org/2000/svg">
<path d="M15.5 2H8.5C7.83696 2 7.20107 2.26339 6.73223 2.73223C6.26339 3.20107 6 3.83696 6 4.5V19.5C6 20.163 6.26339 20.7989 6.73223 21.2678C7.20107 21.7366 7.83696 22 8.5 22H15.5C16.163 22 16.7989 21.7366 17.2678 21.2678C17.7366 20.7989 18 20.163 18 19.5V4.5C18 3.83696 17.7366 3.20107 17.2678 2.73223C16.7989 2.26339 16.163 2 15.5 2ZM7 13H9.6833V15.1H7V13ZM10.4833 15.1V13H13.5167V15.1H10.4833ZM13.5167 15.9V18.1H10.4833V15.9H13.5167ZM7 15.9H9.6833V18.1H7V15.9ZM8.5 21C8.10231 20.9995 7.72104 20.8414 7.43984 20.5602C7.15863 20.279 7.00045 19.8977 7 19.5V18.9H9.6833V21H8.5ZM10.4833 21V18.9H13.5167V21H10.4833ZM17 19.5C16.9995 19.8977 16.8414 20.279 16.5602 20.5602C16.279 20.8414 15.8977 20.9995 15.5 21H14.3167V18.9H17V19.5ZM17 18.1H14.3167V15.9H17V18.1ZM17 15.1H14.3167V13H17V15.1ZM7 12V4.5C7.00045 4.10231 7.15863 3.72104 7.43984 3.43984C7.72104 3.15863 8.10231 3.00045 8.5 3H15.5C15.8977 3.00045 16.279 3.15863 16.5602 3.43984C16.8414 3.72104 16.9995 4.10231 17 4.5V12H7Z" fill="black"/>
</svg>
