<svg width="24" height="24" viewBox="0 0 24 24" fill="none" xmlns="http://www.w3.org/2000/svg">
<path d="M15.5 2H8.5C7.83696 2 7.20107 2.26339 6.73223 2.73223C6.26339 3.20107 6 3.83696 6 4.5V19.5C6 20.163 6.26339 20.7989 6.73223 21.2678C7.20107 21.7366 7.83696 22 8.5 22H15.5C16.163 22 16.7989 21.7366 17.2678 21.2678C17.7366 20.7989 18 20.163 18 19.5V4.5C18 3.83696 17.7366 3.20107 17.2678 2.73223C16.7989 2.26339 16.163 2 15.5 2ZM12 20C11.7775 20 11.56 19.934 11.375 19.8104C11.19 19.6868 11.0458 19.5111 10.9606 19.3055C10.8755 19.1 10.8532 18.8738 10.8966 18.6555C10.94 18.4373 11.0472 18.2368 11.2045 18.0795C11.3618 17.9222 11.5623 17.815 11.7805 17.7716C11.9988 17.7282 12.225 17.7505 12.4305 17.8356C12.6361 17.9208 12.8118 18.065 12.9354 18.25C13.059 18.435 13.125 18.6525 13.125 18.875C13.125 19.1734 13.0065 19.4595 12.7955 19.6705C12.5845 19.8815 12.2984 20 12 20ZM12 18.25C11.8764 18.25 11.7555 18.2867 11.6528 18.3553C11.55 18.424 11.4699 18.5216 11.4226 18.6358C11.3753 18.75 11.3629 18.8757 11.387 18.9969C11.4111 19.1182 11.4707 19.2295 11.5581 19.3169C11.6455 19.4044 11.7568 19.4639 11.8781 19.488C11.9993 19.5121 12.125 19.4997 12.2392 19.4524C12.3534 19.4051 12.451 19.325 12.5197 19.2222C12.5883 19.1194 12.625 18.9986 12.625 18.875C12.6248 18.7093 12.5589 18.5504 12.4417 18.4333C12.3246 18.3161 12.1657 18.2502 12 18.25Z" fill="black"/>
</svg>
