<svg width="24" height="24" viewBox="0 0 24 24" fill="none" xmlns="http://www.w3.org/2000/svg">
<path d="M12 13.7C12.3362 13.7 12.6649 13.6003 12.9445 13.4135C13.224 13.2267 13.4419 12.9612 13.5706 12.6506C13.6993 12.3399 13.7329 11.9981 13.6673 11.6683C13.6017 11.3386 13.4398 11.0357 13.2021 10.7979C12.9643 10.5602 12.6614 10.3983 12.3317 10.3327C12.0019 10.2671 11.6601 10.3007 11.3494 10.4294C11.0388 10.5581 10.7733 10.776 10.5865 11.0555C10.3997 11.3351 10.3 11.6638 10.3 12C10.3 12.4509 10.4791 12.8833 10.7979 13.2021C11.1167 13.5209 11.5491 13.7 12 13.7ZM12 11.2C12.1582 11.2 12.3129 11.2469 12.4445 11.3348C12.576 11.4227 12.6786 11.5477 12.7391 11.6939C12.7997 11.84 12.8155 12.0009 12.7846 12.1561C12.7538 12.3113 12.6776 12.4538 12.5657 12.5657C12.4538 12.6776 12.3113 12.7538 12.1561 12.7846C12.0009 12.8155 11.84 12.7997 11.6939 12.7391C11.5477 12.6786 11.4227 12.576 11.3348 12.4445C11.2469 12.3129 11.2 12.1582 11.2 12C11.2002 11.7879 11.2846 11.5846 11.4346 11.4346C11.5846 11.2846 11.7879 11.2002 12 11.2ZM17.56 13.7C17.8962 13.7 18.2249 13.6003 18.5045 13.4135C18.784 13.2267 19.0019 12.9612 19.1306 12.6506C19.2593 12.3399 19.2929 11.9981 19.2273 11.6683C19.1617 11.3386 18.9998 11.0357 18.7621 10.7979C18.5243 10.5602 18.2214 10.3983 17.8917 10.3327C17.5619 10.2671 17.2201 10.3007 16.9094 10.4294C16.5988 10.5581 16.3333 10.776 16.1465 11.0555C15.9597 11.3351 15.86 11.6638 15.86 12C15.86 12.4509 16.0391 12.8833 16.3579 13.2021C16.6767 13.5209 17.1091 13.7 17.56 13.7ZM17.56 11.2C17.7182 11.2 17.8729 11.2469 18.0045 11.3348C18.136 11.4227 18.2386 11.5477 18.2991 11.6939C18.3597 11.84 18.3755 12.0009 18.3446 12.1561C18.3138 12.3113 18.2376 12.4538 18.1257 12.5657C18.0138 12.6776 17.8713 12.7538 17.7161 12.7846C17.5609 12.8155 17.4 12.7997 17.2539 12.7391C17.1077 12.6786 16.9827 12.576 16.8948 12.4445C16.8069 12.3129 16.76 12.1582 16.76 12C16.7603 11.7879 16.8446 11.5846 16.9946 11.4346C17.1446 11.2846 17.3479 11.2003 17.56 11.2ZM6.44 13.7C6.77623 13.7 7.10491 13.6003 7.38447 13.4135C7.66403 13.2267 7.88193 12.9612 8.0106 12.6506C8.13926 12.3399 8.17293 11.9981 8.10734 11.6683C8.04174 11.3386 7.87983 11.0357 7.64208 10.7979C7.40433 10.5602 7.10142 10.3983 6.77165 10.3327C6.44189 10.2671 6.10007 10.3007 5.78944 10.4294C5.4788 10.5581 5.2133 10.776 5.0265 11.0555C4.8397 11.3351 4.74 11.6638 4.74 12C4.74 12.4509 4.91911 12.8833 5.23792 13.2021C5.55673 13.5209 5.98913 13.7 6.44 13.7ZM6.44 11.2C6.59823 11.2 6.7529 11.2469 6.88446 11.3348C7.01602 11.4227 7.11855 11.5477 7.1791 11.6939C7.23965 11.84 7.2555 12.0009 7.22463 12.1561C7.19376 12.3113 7.11757 12.4538 7.00569 12.5657C6.8938 12.6776 6.75126 12.7538 6.59607 12.7846C6.44089 12.8155 6.28003 12.7997 6.13385 12.7391C5.98767 12.6786 5.86273 12.576 5.77482 12.4445C5.68692 12.3129 5.64 12.1582 5.64 12C5.64024 11.7879 5.7246 11.5846 5.87458 11.4346C6.02456 11.2846 6.2279 11.2002 6.44 11.2ZM1 5V19H23V5H1ZM22 18H2V6H22V18Z" fill="black"/>
</svg>
