<svg width="24" height="24" viewBox="0 0 24 24" fill="none" xmlns="http://www.w3.org/2000/svg">
<path d="M1 5V19H23V5H1ZM6.29 13.35C6.02299 13.35 5.76199 13.2708 5.53998 13.1225C5.31797 12.9741 5.14494 12.7633 5.04276 12.5166C4.94058 12.2699 4.91385 11.9985 4.96594 11.7366C5.01803 11.4748 5.14661 11.2342 5.33541 11.0454C5.52421 10.8566 5.76475 10.728 6.02663 10.6759C6.2885 10.6238 6.55994 10.6506 6.80662 10.7528C7.0533 10.8549 7.26414 11.028 7.41248 11.25C7.56082 11.472 7.64 11.733 7.64 12C7.64 12.358 7.49777 12.7014 7.24459 12.9546C6.99142 13.2078 6.64804 13.35 6.29 13.35ZM12 13.35C11.733 13.35 11.472 13.2708 11.25 13.1225C11.028 12.9741 10.8549 12.7633 10.7528 12.5166C10.6506 12.2699 10.6238 11.9985 10.6759 11.7366C10.728 11.4748 10.8566 11.2342 11.0454 11.0454C11.2342 10.8566 11.4748 10.728 11.7366 10.6759C11.9985 10.6238 12.2699 10.6506 12.5166 10.7528C12.7633 10.8549 12.9741 11.028 13.1225 11.25C13.2708 11.472 13.35 11.733 13.35 12C13.35 12.358 13.2078 12.7014 12.9546 12.9546C12.7014 13.2078 12.358 13.35 12 13.35ZM17.71 13.35C17.443 13.35 17.182 13.2708 16.96 13.1225C16.738 12.9741 16.5649 12.7633 16.4628 12.5166C16.3606 12.2699 16.3339 11.9985 16.3859 11.7366C16.438 11.4748 16.5666 11.2342 16.7554 11.0454C16.9442 10.8566 17.1848 10.728 17.4466 10.6759C17.7085 10.6238 17.9799 10.6506 18.2266 10.7528C18.4733 10.8549 18.6841 11.028 18.8325 11.25C18.9808 11.472 19.06 11.733 19.06 12C19.06 12.358 18.9178 12.7014 18.6646 12.9546C18.4114 13.2078 18.068 13.35 17.71 13.35Z" fill="black"/>
</svg>
