<svg width="24" height="24" viewBox="0 0 24 24" fill="none" xmlns="http://www.w3.org/2000/svg">
<path d="M12 1C10.2334 0.999686 8.49282 1.42563 6.92601 2.24168C5.35919 3.05773 4.01241 4.23979 3 5.6875V18.3125C4.01264 19.76 5.35947 20.9419 6.92624 21.7579C8.493 22.5739 10.2335 23 12 23C13.7665 23 15.507 22.5739 17.0738 21.7579C18.6405 20.9419 19.9874 19.76 21 18.3125V5.6875C19.9876 4.23979 18.6408 3.05773 17.074 2.24168C15.5072 1.42563 13.7666 0.999686 12 1ZM7.63 10.4884L7.2765 10.1349L9.397 8.0131L9.7505 8.3666L7.63 10.4884ZM11.7649 16.5L11.7642 13.5H12.2642L12.2649 16.5H11.7649ZM16.3975 10.4864L14.2756 8.3656L14.6292 8.012L16.751 10.1328L16.3975 10.4864Z" fill="black"/>
</svg>
