<svg width="24" height="24" viewBox="0 0 24 24" fill="none" xmlns="http://www.w3.org/2000/svg">
<path d="M9 3.05005C9 2.85114 8.92098 2.66037 8.78033 2.51972C8.63968 2.37907 8.44891 2.30005 8.25 2.30005H5.75C5.55109 2.30005 5.36032 2.37907 5.21967 2.51972C5.07902 2.66037 5 2.85114 5 3.05005V4.00005H9V3.05005ZM19.5 5.00005H4.5C3.83696 5.00005 3.20107 5.26344 2.73223 5.73228C2.26339 6.20112 2 6.83701 2 7.50005V16.5C2 17.1631 2.26339 17.799 2.73223 18.2678C3.20107 18.7367 3.83696 19 4.5 19H19.5C20.163 19 20.7989 18.7367 21.2678 18.2678C21.7366 17.799 22 17.1631 22 16.5V7.50005C22 6.83701 21.7366 6.20112 21.2678 5.73228C20.7989 5.26344 20.163 5.00005 19.5 5.00005ZM13.6875 15.5C12.9953 15.5 12.3186 15.2948 11.743 14.9102C11.1674 14.5256 10.7188 13.979 10.4539 13.3394C10.189 12.6999 10.1197 11.9962 10.2548 11.3172C10.3898 10.6383 10.7231 10.0147 11.2126 9.52518C11.7021 9.03569 12.3258 8.70235 13.0047 8.5673C13.6836 8.43225 14.3874 8.50156 15.0269 8.76647C15.6664 9.03138 16.2131 9.47998 16.5976 10.0556C16.9822 10.6311 17.1875 11.3078 17.1875 12C17.1866 12.928 16.8175 13.8177 16.1614 14.4739C15.5052 15.1301 14.6155 15.4991 13.6875 15.5Z" fill="black"/>
</svg>
