<svg width="24" height="24" viewBox="0 0 24 24" fill="none" xmlns="http://www.w3.org/2000/svg">
<path d="M12 2C10.6868 2 9.38642 2.25866 8.17317 2.7612C6.95991 3.26375 5.85752 4.00035 4.92893 4.92893C3.05357 6.8043 2 9.34784 2 12V16C2 16.7956 2.31607 17.5587 2.87868 18.1213C3.44129 18.6839 4.20435 19 5 19H8V11H5C4.674 11.0038 4.35084 11.0612 4.0435 11.17C4.24944 9.20327 5.1765 7.3825 6.6458 6.05901C8.1151 4.73553 10.0225 4.00313 12 4.00313C13.9775 4.00313 15.8849 4.73553 17.3542 6.05901C18.8235 7.3825 19.7506 9.20327 19.9565 11.17C19.6492 11.0612 19.326 11.0038 19 11H16V19H19C19.3414 18.9967 19.6797 18.9345 20 18.8163V19C20 19.5304 19.7893 20.0391 19.4142 20.4142C19.0391 20.7893 18.5304 21 18 21H12V23H18C19.0609 23 20.0783 22.5786 20.8284 21.8284C21.5786 21.0783 22 20.0609 22 19V12C22 10.6868 21.7413 9.38642 21.2388 8.17317C20.7362 6.95991 19.9997 5.85752 19.0711 4.92893C18.1425 4.00035 17.0401 3.26375 15.8268 2.7612C14.6136 2.25866 13.3132 2 12 2ZM5 13H6V17H5C4.73487 16.9997 4.48069 16.8943 4.29321 16.7068C4.10574 16.5193 4.00029 16.2651 4 16V14C4.00029 13.7349 4.10574 13.4807 4.29321 13.2932C4.48069 13.1057 4.73487 13.0003 5 13ZM20 16C19.9997 16.2651 19.8943 16.5193 19.7068 16.7068C19.5193 16.8943 19.2651 16.9997 19 17H18V13H19C19.2651 13.0003 19.5193 13.1057 19.7068 13.2932C19.8943 13.4807 19.9997 13.7349 20 14V16Z" fill="black"/>
</svg>
