<svg width="24" height="24" viewBox="0 0 24 24" fill="none" xmlns="http://www.w3.org/2000/svg">
<path d="M19.5 10.5V12.5C19.5 14.4891 18.7098 16.3968 17.3033 17.8033C15.8968 19.2098 13.9891 20 12 20C10.0109 20 8.10322 19.2098 6.6967 17.8033C5.29018 16.3968 4.5 14.4891 4.5 12.5V10.5H4V12.5C4.00085 14.5774 4.81029 16.5728 6.25688 18.0637C7.70348 19.5546 9.67361 20.4239 11.75 20.4874V23.5H12.25V20.4874C14.3264 20.4239 16.2965 19.5546 17.7431 18.0637C19.1897 16.5728 19.9992 14.5774 20 12.5V10.5H19.5ZM12 16.5C13.0605 16.499 14.0774 16.0772 14.8273 15.3273C15.5772 14.5774 15.999 13.5605 16 12.5V5.5C16 4.43913 15.5786 3.42172 14.8284 2.67157C14.0783 1.92143 13.0609 1.5 12 1.5C10.9391 1.5 9.92172 1.92143 9.17157 2.67157C8.42143 3.42172 8 4.43913 8 5.5V12.5C8.00103 13.5605 8.42279 14.5774 9.17271 15.3273C9.92264 16.0772 10.9395 16.499 12 16.5Z" fill="black"/>
</svg>
