<svg width="24" height="24" viewBox="0 0 24 24" fill="none" xmlns="http://www.w3.org/2000/svg">
<path d="M19.5 5H4.5C3.83696 5 3.20107 5.26339 2.73223 5.73223C2.26339 6.20107 2 6.83696 2 7.5V16.5C2 17.163 2.26339 17.7989 2.73223 18.2678C3.20107 18.7366 3.83696 19 4.5 19H19.5C20.163 19 20.7989 18.7366 21.2678 18.2678C21.7366 17.7989 22 17.163 22 16.5V7.5C22 6.83696 21.7366 6.20107 21.2678 5.73223C20.7989 5.26339 20.163 5 19.5 5ZM21.5 16.5C21.4994 17.0302 21.2885 17.5386 20.9135 17.9135C20.5386 18.2885 20.0302 18.4994 19.5 18.5H4.5C3.96975 18.4994 3.4614 18.2885 3.08646 17.9135C2.71152 17.5386 2.50061 17.0302 2.5 16.5V7.5C2.50061 6.96975 2.71152 6.4614 3.08646 6.08646C3.4614 5.71152 3.96975 5.50061 4.5 5.5H19.5C20.0302 5.50061 20.5386 5.71152 20.9135 6.08646C21.2885 6.4614 21.4994 6.96975 21.5 7.5V16.5ZM8 3.75C8 3.6837 7.97366 3.62011 7.92678 3.57322C7.87989 3.52634 7.8163 3.5 7.75 3.5H5.25C5.1837 3.5 5.12011 3.52634 5.07322 3.57322C5.02634 3.62011 5 3.6837 5 3.75V4H8V3.75ZM13.6875 8.5C12.9953 8.5 12.3186 8.70527 11.743 9.08986C11.1674 9.47444 10.7188 10.0211 10.4539 10.6606C10.189 11.3001 10.1197 12.0039 10.2548 12.6828C10.3898 13.3617 10.7231 13.9854 11.2126 14.4749C11.7021 14.9644 12.3258 15.2977 13.0047 15.4327C13.6836 15.5678 14.3874 15.4985 15.0269 15.2336C15.6664 14.9687 16.2131 14.5201 16.5976 13.9445C16.9822 13.3689 17.1875 12.6922 17.1875 12C17.1865 11.072 16.8175 10.1824 16.1613 9.52621C15.5051 8.87004 14.6155 8.50098 13.6875 8.5ZM13.6875 15C13.0942 15 12.5141 14.8241 12.0208 14.4944C11.5274 14.1648 11.1429 13.6962 10.9159 13.1481C10.6888 12.5999 10.6294 11.9967 10.7451 11.4147C10.8609 10.8328 11.1466 10.2982 11.5662 9.87868C11.9857 9.45912 12.5203 9.1734 13.1022 9.05764C13.6842 8.94189 14.2874 9.0013 14.8356 9.22836C15.3837 9.45542 15.8523 9.83994 16.1819 10.3333C16.5116 10.8266 16.6875 11.4067 16.6875 12C16.6866 12.7954 16.3702 13.5579 15.8078 14.1203C15.2454 14.6827 14.4829 14.9991 13.6875 15Z" fill="black"/>
</svg>
