<svg width="24" height="24" viewBox="0 0 24 24" fill="none" xmlns="http://www.w3.org/2000/svg">
<path d="M22 5L15 9.9V7C15 6.46957 14.7893 5.96086 14.4142 5.58579C14.0391 5.21071 13.5304 5 13 5H3C2.46957 5 1.96086 5.21071 1.58579 5.58579C1.21071 5.96086 1 6.46957 1 7V17C1 17.5304 1.21071 18.0391 1.58579 18.4142C1.96086 18.7893 2.46957 19 3 19H13C13.5304 19 14.0391 18.7893 14.4142 18.4142C14.7893 18.0391 15 17.5304 15 17V14.1L22 19H23V5H22ZM14 17C13.9997 17.2651 13.8943 17.5193 13.7068 17.7068C13.5193 17.8943 13.2651 17.9997 13 18H3C2.73487 17.9997 2.48069 17.8943 2.29321 17.7068C2.10574 17.5193 2.00029 17.2651 2 17V7C2.00029 6.73487 2.10574 6.48069 2.29321 6.29321C2.48069 6.10574 2.73487 6.00029 3 6H13C13.2651 6.00029 13.5193 6.10574 13.7068 6.29321C13.8943 6.48069 13.9997 6.73487 14 7V17ZM22 17.7794L15 12.8794V11.1207L22 6.2207V17.7794Z" fill="black"/>
</svg>
