<svg width="24" height="24" viewBox="0 0 24 24" fill="none" xmlns="http://www.w3.org/2000/svg">
<path d="M20 4H4C3.20435 4 2.44129 4.31607 1.87868 4.87868C1.31607 5.44129 1 6.20435 1 7V17C1 17.7956 1.31607 18.5587 1.87868 19.1213C2.44129 19.6839 3.20435 20 4 20H20C20.7956 20 21.5587 19.6839 22.1213 19.1213C22.6839 18.5587 23 17.7956 23 17V7C23 6.20435 22.6839 5.44129 22.1213 4.87868C21.5587 4.31607 20.7956 4 20 4ZM21.5 17C21.4995 17.3977 21.3414 17.779 21.0602 18.0602C20.779 18.3414 20.3977 18.4995 20 18.5H4C3.60231 18.4995 3.22104 18.3414 2.93984 18.0602C2.65863 17.779 2.50045 17.3977 2.5 17V7C2.50045 6.60231 2.65863 6.22104 2.93984 5.93984C3.22104 5.65863 3.60231 5.50045 4 5.5H20C20.3977 5.50045 20.779 5.65863 21.0602 5.93984C21.3414 6.22104 21.4995 6.60231 21.5 7V17ZM8 16H16V14H8V16ZM13 11H11V13H13V11ZM13 8H11V10H13V8ZM10 11H8V13H10V11ZM10 8H8V10H10V8ZM5 13H7V11H5V13ZM5 16H7V14H5V16ZM17 16H19V14H17V16ZM5 10H7V8H5V10ZM14 13H16V11H14V13ZM14 10H16V8H14V10ZM17 13H19V11H17V13ZM17 10H19V8H17V10Z" fill="black"/>
</svg>
