<svg width="24" height="24" viewBox="0 0 24 24" fill="none" xmlns="http://www.w3.org/2000/svg">
<path d="M9 17H15C15.5304 17 16.0391 16.7893 16.4142 16.4142C16.7893 16.0391 17 15.5304 17 15V4C17 3.46957 16.7893 2.96086 16.4142 2.58579C16.0391 2.21071 15.5304 2 15 2H9C8.46957 2 7.96086 2.21071 7.58579 2.58579C7.21071 2.96086 7 3.46957 7 4V15C7 15.5304 7.21071 16.0391 7.58579 16.4142C7.96086 16.7893 8.46957 17 9 17ZM8.5 4C8.5 3.86739 8.55268 3.74021 8.64645 3.64645C8.74021 3.55268 8.86739 3.5 9 3.5H15C15.1326 3.5 15.2598 3.55268 15.3536 3.64645C15.4473 3.74021 15.5 3.86739 15.5 4V15C15.5 15.1326 15.4473 15.2598 15.3536 15.3536C15.2598 15.4473 15.1326 15.5 15 15.5H9C8.86739 15.5 8.74021 15.4473 8.64645 15.3536C8.55268 15.2598 8.5 15.1326 8.5 15V4ZM4 19.5V21H20V19.5H4Z" fill="black"/>
</svg>
