<svg width="24" height="24" viewBox="0 0 24 24" fill="none" xmlns="http://www.w3.org/2000/svg">
<path d="M20 5H4C3.46957 5 2.96086 5.21071 2.58579 5.58579C2.21071 5.96086 2 6.46957 2 7V17C2 17.5304 2.21071 18.0391 2.58579 18.4142C2.96086 18.7893 3.46957 19 4 19H20C20.5304 19 21.0391 18.7893 21.4142 18.4142C21.7893 18.0391 22 17.5304 22 17V7C22 6.46957 21.7893 5.96086 21.4142 5.58579C21.0391 5.21071 20.5304 5 20 5ZM21 17C20.9997 17.2651 20.8943 17.5193 20.7068 17.7068C20.5193 17.8943 20.2651 17.9997 20 18H4C3.73487 17.9997 3.48069 17.8943 3.29321 17.7068C3.10574 17.5193 3.00029 17.2651 3 17V7C3.00029 6.73487 3.10574 6.48069 3.29321 6.29321C3.48069 6.10574 3.73487 6.00029 4 6H20C20.2651 6.00029 20.5193 6.10574 20.7068 6.29321C20.8943 6.48069 20.9997 6.73487 21 7V17ZM5.375 10.625C5.10305 10.625 4.83721 10.7056 4.61109 10.8567C4.38497 11.0078 4.20874 11.2226 4.10467 11.4738C4.0006 11.7251 3.97337 12.0015 4.02642 12.2682C4.07947 12.535 4.21043 12.78 4.40273 12.9723C4.59503 13.1646 4.84003 13.2955 5.10675 13.3486C5.37347 13.4016 5.64994 13.3744 5.90119 13.2703C6.15244 13.1663 6.36718 12.99 6.51827 12.7639C6.66936 12.5378 6.75 12.2719 6.75 12C6.75 11.6353 6.60513 11.2856 6.34727 11.0277C6.08941 10.7699 5.73967 10.625 5.375 10.625ZM5.375 12.575C5.26128 12.575 5.15011 12.5413 5.05555 12.4781C4.96099 12.4149 4.88729 12.3251 4.84377 12.22C4.80025 12.115 4.78886 11.9994 4.81105 11.8878C4.83324 11.7763 4.888 11.6738 4.96841 11.5934C5.04883 11.513 5.15128 11.4582 5.26282 11.436C5.37436 11.4139 5.48998 11.4252 5.59504 11.4688C5.70011 11.5123 5.78991 11.586 5.8531 11.6805C5.91628 11.7751 5.95 11.8863 5.95 12C5.94981 12.1524 5.88917 12.2986 5.78138 12.4064C5.67359 12.5142 5.52744 12.5748 5.375 12.575Z" fill="black"/>
</svg>
