<svg width="24" height="24" viewBox="0 0 24 24" fill="none" xmlns="http://www.w3.org/2000/svg">
<path d="M9 16C10.0605 15.999 11.0774 15.5772 11.8273 14.8273C12.5772 14.0774 12.999 13.0605 13 12V5C13 3.93914 12.5786 2.92172 11.8284 2.17157C11.0783 1.42143 10.0609 1 9 1C7.93913 1 6.92172 1.42143 6.17157 2.17157C5.42143 2.92172 5 3.93914 5 5V12C5.00103 13.0605 5.42279 14.0774 6.17271 14.8273C6.92264 15.5772 7.93945 15.999 9 16ZM6.5 5C6.5 4.33696 6.76339 3.70108 7.23223 3.23223C7.70107 2.76339 8.33696 2.5 9 2.5C9.66304 2.5 10.2989 2.76339 10.7678 3.23223C11.2366 3.70108 11.5 4.33696 11.5 5V12C11.5 12.663 11.2366 13.2989 10.7678 13.7678C10.2989 14.2366 9.66304 14.5 9 14.5C8.33696 14.5 7.70107 14.2366 7.23223 13.7678C6.76339 13.2989 6.5 12.663 6.5 12V5ZM15.5 12C15.5 13.7239 14.8152 15.3772 13.5962 16.5962C12.3772 17.8152 10.7239 18.5 9 18.5C7.27609 18.5 5.62279 17.8152 4.40381 16.5962C3.18482 15.3772 2.5 13.7239 2.5 12V10H1V12C1.00039 13.9915 1.74368 15.9113 3.0845 17.3838C4.42533 18.8563 6.26724 19.7757 8.25 19.9621V23H9.75V19.9621C11.7328 19.7757 13.5747 18.8563 14.9155 17.3838C16.2563 15.9113 16.9996 13.9915 17 12V10H15.5V12ZM21.5034 4.361L22.7166 3.561C22.647 3.36776 22.5626 3.1802 22.4641 3C22.3574 2.82464 22.2373 2.65781 22.1049 2.501L20.8049 3.1516L19.698 2.5125L19.6116 1.0616C19.2079 0.979466 18.7917 0.979466 18.388 1.0616L18.3016 2.5125L17.1947 3.1516L15.8947 2.501C15.7624 2.65782 15.6424 2.82465 15.5359 3C15.4374 3.18007 15.353 3.3675 15.2834 3.5606L16.4966 4.3606V5.639L15.2834 6.439C15.353 6.63223 15.4374 6.81979 15.5359 7C15.6426 7.17534 15.7627 7.34218 15.8951 7.499L17.1951 6.8484L18.302 7.4875L18.3884 8.9384C18.7921 9.02054 19.2083 9.02054 19.612 8.9384L19.6984 7.4875L20.8053 6.8484L22.1053 7.499C22.2376 7.34216 22.3575 7.17533 22.4641 7C22.5626 6.81992 22.647 6.6325 22.7166 6.4394L21.5034 5.6394V4.361ZM19 6.2118C18.7603 6.2118 18.526 6.14073 18.3268 6.00758C18.1275 5.87442 17.9722 5.68516 17.8804 5.46374C17.7887 5.24231 17.7647 4.99866 17.8115 4.76359C17.8582 4.52852 17.9737 4.3126 18.1431 4.14313C18.3126 3.97366 18.5285 3.85824 18.7636 3.81149C18.9987 3.76473 19.2423 3.78873 19.4637 3.88044C19.6852 3.97216 19.8744 4.12748 20.0076 4.32676C20.1407 4.52604 20.2118 4.76033 20.2118 5C20.2118 5.32138 20.0841 5.62959 19.8568 5.85684C19.6296 6.08409 19.3214 6.21177 19 6.2118Z" fill="black"/>
</svg>
