<svg width="24" height="24" viewBox="0 0 24 24" fill="none" xmlns="http://www.w3.org/2000/svg">
<path d="M12 8.3333C11.8674 8.3333 11.7402 8.38598 11.6464 8.47975C11.5527 8.57351 11.5 8.70069 11.5 8.8333V11.8333C11.5 11.9659 11.5527 12.0931 11.6464 12.1869C11.7402 12.2806 11.8674 12.3333 12 12.3333C12.1326 12.3333 12.2598 12.2806 12.3536 12.1869C12.4473 12.0931 12.5 11.9659 12.5 11.8333V8.8333C12.5 8.70069 12.4473 8.57351 12.3536 8.47975C12.2598 8.38598 12.1326 8.3333 12 8.3333ZM14 5H12.5V3.4168C12.5004 3.0412 12.6499 2.6811 12.9154 2.4155C13.181 2.1499 13.5411 2.00048 13.9167 2H17V1H13.9167C13.276 1.00087 12.6618 1.25578 12.2088 1.70883C11.7557 2.16189 11.5008 2.7761 11.5 3.4168V5H10C8.67392 5 7.40215 5.52678 6.46447 6.46447C5.52678 7.40215 5 8.67392 5 10V17C5 18.8565 5.7375 20.637 7.05025 21.9497C8.36301 23.2625 10.1435 24 12 24C13.8565 24 15.637 23.2625 16.9497 21.9497C18.2625 20.637 19 18.8565 19 17V10C19 8.67392 18.4732 7.40215 17.5355 6.46447C16.5979 5.52678 15.3261 5 14 5ZM18 17C18 18.5913 17.3679 20.1174 16.2426 21.2426C15.1174 22.3679 13.5913 23 12 23C10.4087 23 8.88258 22.3679 7.75736 21.2426C6.63214 20.1174 6 18.5913 6 17V10C6.00119 8.9395 6.423 7.92278 7.17289 7.17289C7.92278 6.423 8.9395 6.00119 10 6H14C15.0605 6.00119 16.0772 6.423 16.8271 7.17289C17.577 7.92278 17.9988 8.9395 18 10V17Z" fill="black"/>
</svg>
