<svg width="24" height="24" viewBox="0 0 24 24" fill="none" xmlns="http://www.w3.org/2000/svg">
<path d="M12 8C11.9337 8 11.8701 8.02634 11.8232 8.07322C11.7763 8.12011 11.75 8.1837 11.75 8.25V11.75C11.75 11.8163 11.7763 11.8799 11.8232 11.9268C11.8701 11.9737 11.9337 12 12 12C12.0663 12 12.1299 11.9737 12.1768 11.9268C12.2237 11.8799 12.25 11.8163 12.25 11.75V8.25C12.25 8.1837 12.2237 8.12011 12.1768 8.07322C12.1299 8.02634 12.0663 8 12 8ZM14 5H12.25V3.25C12.2506 2.78605 12.4351 2.34127 12.7632 2.01321C13.0913 1.68514 13.536 1.50058 14 1.5H17V1H14C13.4035 1.00082 12.8317 1.23814 12.4099 1.65992C11.9881 2.08169 11.7508 2.65351 11.75 3.25V5H10C8.67392 5 7.40215 5.52678 6.46447 6.46447C5.52678 7.40215 5 8.67392 5 10V17C5 18.8565 5.7375 20.637 7.05025 21.9497C8.36301 23.2625 10.1435 24 12 24C13.8565 24 15.637 23.2625 16.9497 21.9497C18.2625 20.637 19 18.8565 19 17V10C19 8.67392 18.4732 7.40215 17.5355 6.46447C16.5979 5.52678 15.3261 5 14 5ZM18.5 17C18.5 18.7239 17.8152 20.3772 16.5962 21.5962C15.3772 22.8152 13.7239 23.5 12 23.5C10.2761 23.5 8.62279 22.8152 7.40381 21.5962C6.18482 20.3772 5.5 18.7239 5.5 17V10C5.50135 8.80694 5.97589 7.66313 6.81951 6.81951C7.66313 5.97589 8.80694 5.50135 10 5.5H14C15.1931 5.50135 16.3369 5.97589 17.1805 6.81951C18.0241 7.66313 18.4987 8.80694 18.5 10V17Z" fill="black"/>
</svg>
