<svg width="24" height="24" viewBox="0 0 24 24" fill="none" xmlns="http://www.w3.org/2000/svg">
<path d="M15.5 2H8.5C7.83696 2 7.20107 2.26339 6.73223 2.73223C6.26339 3.20107 6 3.83696 6 4.5V19.5C6 20.163 6.26339 20.7989 6.73223 21.2678C7.20107 21.7366 7.83696 22 8.5 22H15.5C16.163 22 16.7989 21.7366 17.2678 21.2678C17.7366 20.7989 18 20.163 18 19.5V4.5C18 3.83696 17.7366 3.20107 17.2678 2.73223C16.7989 2.26339 16.163 2 15.5 2ZM12 7C11.7528 7 11.5111 6.92669 11.3055 6.78934C11.1 6.65199 10.9398 6.45676 10.8452 6.22835C10.7505 5.99995 10.7258 5.74861 10.774 5.50614C10.8222 5.26366 10.9413 5.04093 11.1161 4.86612C11.2909 4.6913 11.5137 4.57225 11.7561 4.52402C11.9986 4.47579 12.2499 4.50054 12.4784 4.59515C12.7068 4.68976 12.902 4.84998 13.0393 5.05554C13.1767 5.2611 13.25 5.50277 13.25 5.75C13.25 6.08152 13.1183 6.39946 12.8839 6.63388C12.6495 6.8683 12.3315 7 12 7Z" fill="black"/>
</svg>
