<svg width="24" height="24" viewBox="0 0 24 24" fill="none" xmlns="http://www.w3.org/2000/svg">
<path d="M6.2 15.1949C6.289 15.1949 6.376 15.1685 6.45001 15.119C6.52401 15.0696 6.58169 14.9993 6.61575 14.9171C6.64981 14.8348 6.65872 14.7444 6.64135 14.6571C6.62399 14.5698 6.58113 14.4896 6.5182 14.4267C6.45526 14.3637 6.37508 14.3209 6.28779 14.3035C6.2005 14.2862 6.11002 14.2951 6.02779 14.3291C5.94557 14.3632 5.87529 14.4209 5.82584 14.4949C5.77639 14.5689 5.75 14.6559 5.75 14.7449C5.75 14.8642 5.79741 14.9787 5.8818 15.0631C5.96619 15.1475 6.08065 15.1949 6.2 15.1949ZM3.2282 10.0001L20.9637 3.62617L20.7937 3.15967L2 10.0001V18.0001C2 18.5305 2.21071 19.0392 2.58579 19.4143C2.96086 19.7894 3.46957 20.0001 4 20.0001H20C20.5304 20.0001 21.0391 19.7894 21.4142 19.4143C21.7893 19.0392 22 18.5305 22 18.0001V10.0001H3.2282ZM21.5 18.0001C21.4995 18.3978 21.3414 18.779 21.0602 19.0602C20.779 19.3414 20.3977 19.4996 20 19.5001H4C3.60231 19.4996 3.22104 19.3414 2.93984 19.0602C2.65863 18.779 2.50045 18.3978 2.5 18.0001V10.5001H21.5V18.0001Z" fill="black"/>
</svg>
