<svg width="24" height="24" viewBox="0 0 24 24" fill="none" xmlns="http://www.w3.org/2000/svg">
<path d="M18 5H13V3.7505C13.0003 3.55162 13.0794 3.36096 13.2199 3.22028C13.3605 3.07961 13.5511 3.0004 13.75 3H17V1H13.75C13.0208 1.00085 12.3218 1.29092 11.8062 1.80657C11.2907 2.32222 11.0007 3.02133 11 3.7505V5H6C5.34339 5 4.69321 5.12933 4.08658 5.3806C3.47995 5.63188 2.92876 6.00017 2.46447 6.46447C1.52678 7.40215 1 8.67392 1 10V19.1346C0.99997 19.8228 1.24762 20.488 1.69766 21.0086C2.14771 21.5292 2.7701 21.8705 3.45105 21.97C4.13199 22.0695 4.82601 21.9206 5.40623 21.5506C5.98644 21.1805 6.41409 20.614 6.611 19.9546L7.4936 17H16.5064L17.389 19.9547C17.5859 20.6141 18.0136 21.1806 18.5938 21.5507C19.174 21.9207 19.868 22.0696 20.549 21.9701C21.2299 21.8706 21.8523 21.5293 22.3023 21.0087C22.7524 20.4881 23 19.8229 23 19.1347V10C23 9.34339 22.8707 8.69321 22.6194 8.08658C22.3681 7.47996 21.9998 6.92876 21.5355 6.46447C21.0712 6.00017 20.52 5.63188 19.9134 5.3806C19.3068 5.12933 18.6566 5 18 5ZM9.5 11.8H7.8V13.5H6.2V11.8H4.5V10.2H6.2V8.5H7.8V10.2H9.5V11.8ZM18.8709 12.871C18.4381 13.3039 17.8685 13.5733 17.2593 13.6333C16.6502 13.6933 16.039 13.5402 15.53 13.2002C15.021 12.8601 14.6457 12.3541 14.468 11.7683C14.2902 11.1825 14.3211 10.5532 14.5554 9.98769C14.7896 9.42214 15.2127 8.9553 15.7525 8.66671C16.2924 8.37813 16.9156 8.28565 17.516 8.40505C18.1164 8.52444 18.6568 8.84832 19.0451 9.32149C19.4335 9.79467 19.6458 10.3879 19.6458 11C19.6463 11.3475 19.5781 11.6917 19.4451 12.0127C19.3121 12.3338 19.117 12.6254 18.8709 12.8708V12.871ZM17 9.8542C16.735 9.85419 16.4781 9.94609 16.2732 10.1142C16.0683 10.2824 15.9281 10.5164 15.8764 10.7763C15.8247 11.0363 15.8647 11.3061 15.9897 11.5398C16.1146 11.7736 16.3167 11.9568 16.5616 12.0582C16.8065 12.1596 17.0789 12.173 17.3326 12.0961C17.5862 12.0191 17.8053 11.8566 17.9525 11.6362C18.0998 11.4159 18.166 11.1512 18.1401 10.8875C18.1141 10.6237 17.9974 10.3771 17.81 10.1897C17.7039 10.083 17.5777 9.99839 17.4386 9.9408C17.2996 9.88321 17.1505 9.85378 17 9.8542Z" fill="black"/>
</svg>
