<svg width="24" height="24" viewBox="0 0 24 24" fill="none" xmlns="http://www.w3.org/2000/svg">
<path d="M19.5 4H4.5C3.83696 4 3.20107 4.26339 2.73223 4.73223C2.26339 5.20107 2 5.83696 2 6.5V17.5C2 18.163 2.26339 18.7989 2.73223 19.2678C3.20107 19.7366 3.83696 20 4.5 20H19.5C20.163 20 20.7989 19.7366 21.2678 19.2678C21.7366 18.7989 22 18.163 22 17.5V6.5C22 5.83696 21.7366 5.20107 21.2678 4.73223C20.7989 4.26339 20.163 4 19.5 4ZM20 17.5C20 17.6326 19.9473 17.7598 19.8536 17.8536C19.7598 17.9473 19.6326 18 19.5 18H4.5C4.36739 18 4.24021 17.9473 4.14645 17.8536C4.05268 17.7598 4 17.6326 4 17.5V6.5C4 6.36739 4.05268 6.24021 4.14645 6.14645C4.24021 6.05268 4.36739 6 4.5 6H19.5C19.6326 6 19.7598 6.05268 19.8536 6.14645C19.9473 6.24021 20 6.36739 20 6.5V17.5ZM6.125 10.875C5.9025 10.875 5.68499 10.941 5.49998 11.0646C5.31498 11.1882 5.17078 11.3639 5.08564 11.5695C5.00049 11.775 4.97821 12.0012 5.02162 12.2195C5.06502 12.4377 5.17217 12.6382 5.3295 12.7955C5.48684 12.9528 5.68729 13.06 5.90552 13.1034C6.12375 13.1468 6.34995 13.1245 6.55552 13.0394C6.76109 12.9542 6.93679 12.81 7.0604 12.625C7.18402 12.44 7.25 12.2225 7.25 12C7.25 11.7016 7.13147 11.4155 6.9205 11.2045C6.70952 10.9935 6.42337 10.875 6.125 10.875Z" fill="black"/>
</svg>
