<svg width="24" height="24" viewBox="0 0 24 24" fill="none" xmlns="http://www.w3.org/2000/svg">
<path d="M16.5 2H7.5C6.83696 2 6.20107 2.26339 5.73223 2.73223C5.26339 3.20107 5 3.83696 5 4.5V19.5C5 20.163 5.26339 20.7989 5.73223 21.2678C6.20107 21.7366 6.83696 22 7.5 22H16.5C17.163 22 17.7989 21.7366 18.2678 21.2678C18.7366 20.7989 19 20.163 19 19.5V4.5C19 3.83696 18.7366 3.20107 18.2678 2.73223C17.7989 2.26339 17.163 2 16.5 2ZM17 19.5C17 19.6326 16.9473 19.7598 16.8536 19.8536C16.7598 19.9473 16.6326 20 16.5 20H7.5C7.36739 20 7.24021 19.9473 7.14645 19.8536C7.05268 19.7598 7 19.6326 7 19.5V4.5C7 4.36739 7.05268 4.24021 7.14645 4.14645C7.24021 4.05268 7.36739 4 7.5 4H16.5C16.6326 4 16.7598 4.05268 16.8536 4.14645C16.9473 4.24021 17 4.36739 17 4.5V19.5ZM14 10C14 9.46957 13.7893 8.96086 13.4142 8.58579C13.0391 8.21071 12.5304 8 12 8C11.4696 8 10.9609 8.21071 10.5858 8.58579C10.2107 8.96086 10 9.46957 10 10V11H9V15H15V11H14V10ZM12.6 11H11.4V10C11.4 9.84087 11.4632 9.68826 11.5757 9.57574C11.6883 9.46321 11.8409 9.4 12 9.4C12.1591 9.4 12.3117 9.46321 12.4243 9.57574C12.5368 9.68826 12.6 9.84087 12.6 10V11Z" fill="black"/>
</svg>
