<svg width="24" height="24" viewBox="0 0 24 24" fill="none" xmlns="http://www.w3.org/2000/svg">
<path d="M5.54998 11.7V13.2C6.2395 13.1997 6.92231 13.3353 7.55938 13.5991C8.19646 13.8628 8.77532 14.2495 9.26288 14.7371C9.75044 15.2246 10.1371 15.8035 10.4009 16.4406C10.6646 17.0777 10.8002 17.7605 10.8 18.45H12.3C12.3003 17.5635 12.1259 16.6856 11.7868 15.8665C11.4477 15.0474 10.9505 14.3031 10.3237 13.6763C9.69683 13.0494 8.95258 12.5522 8.13349 12.2131C7.31439 11.874 6.4365 11.6997 5.54998 11.7ZM3.03218 15.3109L2.90478 18.2667L1.08398 20.0875L3.91248 22.916L5.73328 21.0952L8.68908 20.9678L9.87908 19.7778L4.22178 14.1213L3.03218 15.3109ZM8.17078 19.789L5.68158 19.8962L5.21508 19.9162L4.88508 20.2462L3.91278 21.2185L2.78108 20.0875L3.75338 19.1152L4.08338 18.7852L4.10338 18.3186L4.21048 15.8294L4.22138 15.8186L8.18138 19.7786L8.17078 19.789ZM13.2 5.54998H11.7C11.6997 6.4365 11.874 7.31439 12.2131 8.13349C12.5522 8.95258 13.0494 9.69683 13.6763 10.3237C14.3031 10.9505 15.0474 11.4477 15.8665 11.7868C16.6856 12.1259 17.5635 12.3003 18.45 12.3V10.8C17.7605 10.8002 17.0777 10.6646 16.4406 10.4008C15.8036 10.1371 15.2247 9.75038 14.7371 9.26282C14.2496 8.77527 13.8629 8.19642 13.5991 7.55935C13.3354 6.92229 13.1997 6.23949 13.2 5.54998ZM20.0875 1.08398L18.2667 2.90478L15.3109 3.03218L14.1209 4.22218L19.7778 9.87908L20.9678 8.68908L21.0952 5.73328L22.916 3.91238L20.0875 1.08398ZM19.9164 5.21498L19.8964 5.68158L19.7893 8.17078L19.7784 8.18158L15.8184 4.22158L15.8292 4.21078L18.3184 4.10348L18.7849 4.08348L20.0875 2.78098L21.2189 3.91238L19.9164 5.21498Z" fill="black"/>
</svg>
