<svg width="24" height="24" viewBox="0 0 24 24" fill="none" xmlns="http://www.w3.org/2000/svg">
<path d="M12 7.4208C11.7143 7.42084 11.4351 7.50559 11.1976 7.66432C10.9601 7.82306 10.775 8.04866 10.6657 8.31259C10.5564 8.57652 10.5278 8.86694 10.5836 9.14711C10.6393 9.42728 10.7769 9.68463 10.9789 9.88662C11.1809 10.0886 11.4383 10.2261 11.7185 10.2819C11.9987 10.3376 12.2891 10.309 12.553 10.1996C12.8169 10.0903 13.0425 9.90517 13.2012 9.66764C13.3599 9.43012 13.4446 9.15087 13.4446 8.8652C13.4441 8.48223 13.2918 8.11509 13.0209 7.84431C12.7501 7.57353 12.383 7.42122 12 7.4208ZM7.5557 14.2C7.39747 14.2 7.2428 14.2469 7.11124 14.3348C6.97968 14.4227 6.87715 14.5477 6.8166 14.6939C6.75605 14.84 6.7402 15.0009 6.77107 15.1561C6.80194 15.3113 6.87813 15.4538 6.99001 15.5657C7.1019 15.6776 7.24444 15.7538 7.39963 15.7846C7.55481 15.8155 7.71567 15.7997 7.86185 15.7391C8.00803 15.6786 8.13297 15.576 8.22088 15.4445C8.30878 15.3129 8.3557 15.1582 8.3557 15C8.35541 14.7879 8.27103 14.5846 8.12106 14.4346C7.9711 14.2847 7.76778 14.2003 7.5557 14.2ZM3 3V21H21V3H3ZM7.5557 16.7C7.21947 16.7 6.89079 16.6003 6.61123 16.4135C6.33167 16.2267 6.11377 15.9612 5.9851 15.6506C5.85644 15.3399 5.82277 14.9981 5.88836 14.6683C5.95396 14.3386 6.11587 14.0357 6.35362 13.7979C6.59137 13.5602 6.89428 13.3983 7.22405 13.3327C7.55381 13.2671 7.89563 13.3007 8.20626 13.4294C8.5169 13.5581 8.7824 13.776 8.9692 14.0555C9.156 14.3351 9.2557 14.6638 9.2557 15C9.2557 15.4509 9.07659 15.8833 8.75778 16.2021C8.43897 16.5209 8.00657 16.7 7.5557 16.7ZM12 11.1429C11.5495 11.1429 11.1091 11.0093 10.7345 10.759C10.3599 10.5087 10.068 10.153 9.89558 9.73675C9.72318 9.32053 9.67808 8.86254 9.76597 8.42069C9.85387 7.97883 10.0708 7.57297 10.3894 7.25442C10.708 6.93586 11.1138 6.71893 11.5557 6.63105C11.9975 6.54318 12.4555 6.5883 12.8717 6.76072C13.288 6.93313 13.6437 7.2251 13.894 7.59969C14.1442 7.97429 14.2778 8.41469 14.2778 8.8652C14.2778 9.16432 14.2189 9.46052 14.1044 9.73688C13.99 10.0132 13.8222 10.2643 13.6107 10.4758C13.3992 10.6873 13.148 10.8551 12.8717 10.9696C12.5953 11.084 12.2991 11.1429 12 11.1429ZM16.4443 16.7C16.1081 16.7 15.7794 16.6003 15.4998 16.4135C15.2203 16.2267 15.0024 15.9612 14.8737 15.6506C14.745 15.3399 14.7114 14.9981 14.777 14.6683C14.8426 14.3386 15.0045 14.0357 15.2422 13.7979C15.48 13.5602 15.7829 13.3983 16.1126 13.3327C16.4424 13.2671 16.7842 13.3007 17.0949 13.4294C17.4055 13.5581 17.671 13.776 17.8578 14.0555C18.0446 14.3351 18.1443 14.6638 18.1443 15C18.1443 15.4509 17.9652 15.8833 17.6464 16.2021C17.3276 16.5209 16.8952 16.7 16.4443 16.7ZM16.4443 14.2C16.2861 14.2 16.1314 14.2469 15.9998 14.3348C15.8683 14.4227 15.7657 14.5477 15.7052 14.6939C15.6446 14.84 15.6288 15.0009 15.6597 15.1561C15.6905 15.3113 15.7667 15.4538 15.8786 15.5657C15.9905 15.6776 16.133 15.7538 16.2882 15.7846C16.4434 15.8155 16.6043 15.7997 16.7504 15.7391C16.8966 15.6786 17.0216 15.576 17.1095 15.4445C17.1974 15.3129 17.2443 15.1582 17.2443 15C17.2441 14.7879 17.1597 14.5846 17.0097 14.4346C16.8597 14.2846 16.6564 14.2002 16.4443 14.2Z" fill="black"/>
</svg>
