<svg width="24" height="24" viewBox="0 0 24 24" fill="none" xmlns="http://www.w3.org/2000/svg">
<path d="M16.6445 16.7C16.9807 16.7 17.3094 16.6003 17.589 16.4135C17.8685 16.2267 18.0864 15.9612 18.2151 15.6506C18.3438 15.3399 18.3774 14.9981 18.3118 14.6683C18.2462 14.3386 18.0843 14.0357 17.8466 13.7979C17.6088 13.5602 17.3059 13.3983 16.9762 13.3327C16.6464 13.2671 16.3046 13.3007 15.9939 13.4294C15.6833 13.5581 15.4178 13.776 15.231 14.0555C15.0442 14.3351 14.9445 14.6638 14.9445 15C14.9445 15.4509 15.1236 15.8833 15.4424 16.2021C15.7612 16.5209 16.1936 16.7 16.6445 16.7ZM16.6445 14.2C16.8027 14.2 16.9574 14.2469 17.089 14.3348C17.2205 14.4227 17.3231 14.5477 17.3836 14.6939C17.4442 14.84 17.46 15.0009 17.4291 15.1561C17.3983 15.3113 17.3221 15.4538 17.2102 15.5657C17.0983 15.6776 16.9558 15.7538 16.8006 15.7846C16.6454 15.8155 16.4845 15.7997 16.3384 15.7391C16.1922 15.6786 16.0672 15.576 15.9793 15.4445C15.8914 15.3129 15.8445 15.1582 15.8445 15C15.8448 14.7879 15.9291 14.5846 16.0791 14.4346C16.2291 14.2846 16.4324 14.2003 16.6445 14.2ZM7.3555 16.7C7.69173 16.7 8.02041 16.6003 8.29997 16.4135C8.57953 16.2267 8.79743 15.9612 8.9261 15.6506C9.05476 15.3399 9.08843 14.9981 9.02283 14.6683C8.95724 14.3386 8.79533 14.0357 8.55758 13.7979C8.31983 13.5602 8.01692 13.3983 7.68715 13.3327C7.35739 13.2671 7.01557 13.3007 6.70494 13.4294C6.3943 13.5581 6.1288 13.776 5.942 14.0555C5.7552 14.3351 5.6555 14.6638 5.6555 15C5.6555 15.4509 5.83461 15.8833 6.15342 16.2021C6.47223 16.5209 6.90463 16.7 7.3555 16.7ZM7.3555 14.2C7.51373 14.2 7.6684 14.2469 7.79996 14.3348C7.93152 14.4227 8.03405 14.5477 8.0946 14.6939C8.15515 14.84 8.171 15.0009 8.14013 15.1561C8.10926 15.3113 8.03307 15.4538 7.92119 15.5657C7.8093 15.6776 7.66676 15.7538 7.51157 15.7846C7.35639 15.8155 7.19553 15.7997 7.04935 15.7391C6.90317 15.6786 6.77823 15.576 6.69032 15.4445C6.60242 15.3129 6.5555 15.1582 6.5555 15C6.55582 14.7879 6.6402 14.5846 6.79016 14.4347C6.94013 14.2847 7.14342 14.2003 7.3555 14.2ZM12 11.1429C12.4505 11.1429 12.8909 11.0093 13.2655 10.759C13.6401 10.5087 13.932 10.153 14.1044 9.73675C14.2768 9.32053 14.3219 8.86254 14.234 8.42069C14.1461 7.97883 13.9292 7.57297 13.6106 7.25442C13.292 6.93586 12.8862 6.71893 12.4443 6.63105C12.0025 6.54318 11.5445 6.5883 11.1283 6.76072C10.712 6.93313 10.3563 7.2251 10.106 7.59969C9.85575 7.97429 9.72218 8.41469 9.7222 8.8652C9.72219 9.16432 9.7811 9.46052 9.89556 9.73688C10.01 10.0132 10.1778 10.2643 10.3893 10.4758C10.6008 10.6873 10.852 10.8551 11.1283 10.9696C11.4047 11.084 11.7009 11.1429 12 11.1429ZM12 7.4208C12.2857 7.42084 12.5649 7.50559 12.8024 7.66432C13.0399 7.82306 13.225 8.04866 13.3343 8.31259C13.4436 8.57652 13.4722 8.86694 13.4164 9.14711C13.3607 9.42728 13.2231 9.68463 13.0211 9.88662C12.8191 10.0886 12.5617 10.2261 12.2815 10.2819C12.0013 10.3376 11.7109 10.309 11.447 10.1996C11.1831 10.0903 10.9575 9.90517 10.7988 9.66764C10.6401 9.43012 10.5554 9.15087 10.5554 8.8652C10.5559 8.48223 10.7082 8.11509 10.9791 7.84431C11.2499 7.57353 11.617 7.42122 12 7.4208ZM3 3V21H21V3H3ZM20 20H4V4H20V20Z" fill="black"/>
</svg>
