<svg width="24" height="24" viewBox="0 0 24 24" fill="none" xmlns="http://www.w3.org/2000/svg">
<path d="M16 3H14C14 2.46957 13.7893 1.96086 13.4142 1.58579C13.0391 1.21071 12.5304 1 12 1C11.4696 1 10.9609 1.21071 10.5858 1.58579C10.2107 1.96086 10 2.46957 10 3H8C7.20435 3 6.44129 3.31607 5.87868 3.87868C5.31607 4.44129 5 5.20435 5 6V20C5 20.7956 5.31607 21.5587 5.87868 22.1213C6.44129 22.6839 7.20435 23 8 23H16C16.7956 23 17.5587 22.6839 18.1213 22.1213C18.6839 21.5587 19 20.7956 19 20V6C19 5.20435 18.6839 4.44129 18.1213 3.87868C17.5587 3.31607 16.7956 3 16 3ZM12.2251 8.25L12.0928 14.75H11.6572L11.5249 8.25H12.2251ZM11.8751 18.0281C11.7861 18.0281 11.6991 18.0017 11.6251 17.9523C11.5511 17.9028 11.4934 17.8325 11.4594 17.7503C11.4253 17.6681 11.4164 17.5776 11.4337 17.4903C11.4511 17.403 11.494 17.3228 11.5569 17.2599C11.6198 17.197 11.7 17.1541 11.7873 17.1367C11.8746 17.1194 11.9651 17.1283 12.0473 17.1624C12.1295 17.1964 12.1998 17.2541 12.2493 17.3281C12.2987 17.4021 12.3251 17.4891 12.3251 17.5781C12.3251 17.6372 12.3135 17.6957 12.2908 17.7503C12.2682 17.8049 12.2351 17.8545 12.1933 17.8963C12.1515 17.9381 12.1018 17.9713 12.0472 17.9939C11.9926 18.0165 11.9341 18.0281 11.875 18.0281H11.8751Z" fill="black"/>
</svg>
