<svg width="24" height="24" viewBox="0 0 24 24" fill="none" xmlns="http://www.w3.org/2000/svg">
<path d="M16.9961 3.3463L16.2451 4.6471C17.8667 5.58182 19.1343 7.02559 19.8515 8.75439C20.5686 10.4832 20.6951 12.4003 20.2113 14.2084C19.7275 16.0164 18.6604 17.6142 17.1758 18.7538C15.6911 19.8935 13.8718 20.5112 12.0001 20.5112C10.1285 20.5112 8.30921 19.8935 6.82453 18.7538C5.33986 17.6142 4.27283 16.0164 3.78903 14.2084C3.30523 12.4003 3.43171 10.4832 4.14883 8.75439C4.86595 7.02559 6.13363 5.58182 7.75515 4.6471L7.00415 3.3463C5.0969 4.44631 3.606 6.145 2.76275 8.17885C1.91949 10.2127 1.77104 12.468 2.34041 14.5948C2.90978 16.7217 4.16514 18.6011 5.91174 19.9417C7.65834 21.2822 9.79852 22.0088 12.0002 22.0088C14.202 22.0088 16.3422 21.2822 18.0888 19.9417C19.8354 18.6011 21.0907 16.7217 21.6601 14.5948C22.2295 12.468 22.081 10.2127 21.2378 8.17885C20.3945 6.145 18.9036 4.44631 16.9963 3.3463H16.9961ZM12.75 2H11.25V12H12.75V2Z" fill="black"/>
</svg>
