<svg width="24" height="24" viewBox="0 0 24 24" fill="none" xmlns="http://www.w3.org/2000/svg">
<path d="M15 21H5V7H6V6H4V22H16V20H15V21ZM8 2V18H20V2H8ZM19 17H9V3H19V17ZM14 7.5625C14.2967 7.5625 14.5867 7.47453 14.8334 7.3097C15.08 7.14488 15.2723 6.91061 15.3858 6.63653C15.4994 6.36244 15.5291 6.06084 15.4712 5.76986C15.4133 5.47889 15.2704 5.21162 15.0607 5.00184C14.8509 4.79206 14.5836 4.6492 14.2926 4.59132C14.0017 4.53344 13.7001 4.56315 13.426 4.67668C13.1519 4.79021 12.9176 4.98247 12.7528 5.22914C12.588 5.47582 12.5 5.76583 12.5 6.0625C12.5 6.46032 12.658 6.84186 12.9393 7.12316C13.2206 7.40446 13.6022 7.5625 14 7.5625ZM14 5.4625C14.1187 5.4625 14.2347 5.49769 14.3333 5.56362C14.432 5.62955 14.5089 5.72325 14.5543 5.83289C14.5997 5.94253 14.6116 6.06317 14.5885 6.17955C14.5653 6.29594 14.5082 6.40285 14.4243 6.48676C14.3404 6.57068 14.2334 6.62782 14.1171 6.65097C14.0007 6.67412 13.88 6.66224 13.7704 6.61683C13.6608 6.57141 13.567 6.49451 13.5011 6.39584C13.4352 6.29717 13.4 6.18117 13.4 6.0625C13.4002 5.90343 13.4635 5.75092 13.5759 5.63844C13.6884 5.52596 13.8409 5.46269 14 5.4625ZM14 14.75C14.5439 14.75 15.0756 14.5887 15.5278 14.2865C15.9801 13.9844 16.3325 13.5549 16.5407 13.0524C16.7488 12.5499 16.8033 11.997 16.6972 11.4635C16.591 10.9301 16.3291 10.4401 15.9445 10.0555C15.5599 9.67086 15.0699 9.40895 14.5365 9.30284C14.003 9.19673 13.4501 9.25119 12.9476 9.45933C12.4451 9.66747 12.0156 10.0199 11.7135 10.4722C11.4113 10.9244 11.25 11.4561 11.25 12C11.25 12.7293 11.5397 13.4288 12.0555 13.9445C12.5712 14.4603 13.2707 14.75 14 14.75ZM14 10.25C14.3461 10.25 14.6845 10.3526 14.9722 10.5449C15.26 10.7372 15.4843 11.0105 15.6168 11.3303C15.7492 11.6501 15.7839 12.0019 15.7164 12.3414C15.6489 12.6809 15.4822 12.9927 15.2374 13.2374C14.9927 13.4822 14.6809 13.6489 14.3414 13.7164C14.0019 13.7839 13.6501 13.7492 13.3303 13.6168C13.0105 13.4843 12.7372 13.26 12.5449 12.9722C12.3526 12.6845 12.25 12.3461 12.25 12C12.2505 11.536 12.435 11.0912 12.7631 10.7631C13.0912 10.435 13.536 10.2505 14 10.25Z" fill="black"/>
</svg>
