<svg width="24" height="24" viewBox="0 0 24 24" fill="none" xmlns="http://www.w3.org/2000/svg">
<path d="M15.5 3H8.5C7.83696 3 7.20107 3.26339 6.73223 3.73223C6.26339 4.20107 6 4.83696 6 5.5V18.5C6 19.163 6.26339 19.7989 6.73223 20.2678C7.20107 20.7366 7.83696 21 8.5 21H15.5C16.163 21 16.7989 20.7366 17.2678 20.2678C17.7366 19.7989 18 19.163 18 18.5V5.5C18 4.83696 17.7366 4.20107 17.2678 3.73223C16.7989 3.26339 16.163 3 15.5 3ZM0.75 12C0.748956 12.4269 0.832564 12.8498 0.995987 13.2443C1.15941 13.6387 1.39941 13.9968 1.7021 14.2979L2.5674 15.1631H0V15.6637H3.44V12.2237H2.9392V14.8277L2.0557 13.9441C1.67127 13.5595 1.4095 13.0696 1.30347 12.5362C1.19744 12.0029 1.25191 11.45 1.46001 10.9476C1.6681 10.4453 2.02047 10.0158 2.47257 9.71366C2.92467 9.41149 3.45621 9.25014 4 9.25V8.75C3.1381 8.75019 2.31156 9.09266 1.70211 9.70211C1.09265 10.3116 0.750186 11.1381 0.75 12ZM21.4326 8.8369H24V8.3364H20.56V11.7764H21.0606V9.1721L21.9441 10.0557C22.3286 10.4403 22.5904 10.9302 22.6965 11.4636C22.8026 11.997 22.7481 12.5498 22.54 13.0522C22.332 13.5547 21.9796 13.9841 21.5275 14.2863C21.0754 14.5885 20.5438 14.7499 20 14.75V15.25C20.6427 15.2499 21.271 15.0593 21.8054 14.7022C22.3398 14.345 22.7563 13.8375 23.0022 13.2437C23.2482 12.6499 23.3125 11.9965 23.1872 11.3661C23.0618 10.7357 22.7523 10.1566 22.2979 9.7021L21.4326 8.8369Z" fill="black"/>
</svg>
