<svg width="24" height="24" viewBox="0 0 24 24" fill="none" xmlns="http://www.w3.org/2000/svg">
<path d="M14 5H12.75V3.5836C12.7504 3.29638 12.8646 3.02102 13.0677 2.81789C13.2708 2.61477 13.5461 2.50045 13.8333 2.5H17V1H13.8333C13.1484 1.00085 12.4917 1.27333 12.0075 1.75767C11.5232 2.24202 11.2508 2.89867 11.25 3.5836V5H10C8.67392 5 7.40215 5.52678 6.46447 6.46447C5.52678 7.40215 5 8.67392 5 10V17C5 18.8565 5.7375 20.637 7.05025 21.9497C8.36301 23.2625 10.1435 24 12 24C13.8565 24 15.637 23.2625 16.9497 21.9497C18.2625 20.637 19 18.8565 19 17V10C19 8.67392 18.4732 7.40215 17.5355 6.46447C16.5979 5.52678 15.3261 5 14 5ZM12.75 10.25C12.75 10.4489 12.671 10.6397 12.5303 10.7803C12.3897 10.921 12.1989 11 12 11C11.8011 11 11.6103 10.921 11.4697 10.7803C11.329 10.6397 11.25 10.4489 11.25 10.25V7.75C11.25 7.55109 11.329 7.36032 11.4697 7.21967C11.6103 7.07902 11.8011 7 12 7C12.1989 7 12.3897 7.07902 12.5303 7.21967C12.671 7.36032 12.75 7.55109 12.75 7.75V10.25Z" fill="black"/>
</svg>
