<svg width="24" height="24" viewBox="0 0 24 24" fill="none" xmlns="http://www.w3.org/2000/svg">
<path d="M19 5H13.5575L15.51 2H13.8392L12 4.8262L10.1608 2H8.49L10.4425 5H5C4.20435 5 3.44129 5.31607 2.87868 5.87868C2.31607 6.44129 2 7.20435 2 8V18C2 18.7956 2.31607 19.5587 2.87868 20.1213C3.44129 20.6839 4.20435 21 5 21H19C19.7956 21 20.5587 20.6839 21.1213 20.1213C21.6839 19.5587 22 18.7956 22 18V8C22 7.20435 21.6839 6.44129 21.1213 5.87868C20.5587 5.31607 19.7956 5 19 5ZM20.5 18C20.5 18.3978 20.342 18.7794 20.0607 19.0607C19.7794 19.342 19.3978 19.5 19 19.5H5C4.60218 19.5 4.22064 19.342 3.93934 19.0607C3.65804 18.7794 3.5 18.3978 3.5 18V8C3.5 7.60218 3.65804 7.22064 3.93934 6.93934C4.22064 6.65804 4.60218 6.5 5 6.5H19C19.3978 6.5 19.7794 6.65804 20.0607 6.93934C20.342 7.22064 20.5 7.60218 20.5 8V18ZM6 17H15V9H6V17ZM7.5 10.5H13.5V15.5H7.5V10.5ZM17.75 9C17.572 9 17.398 9.05278 17.25 9.15168C17.102 9.25057 16.9866 9.39113 16.9185 9.55558C16.8504 9.72004 16.8326 9.901 16.8673 10.0756C16.902 10.2502 16.9877 10.4105 17.1136 10.5364C17.2395 10.6623 17.3998 10.748 17.5744 10.7827C17.749 10.8174 17.93 10.7996 18.0944 10.7315C18.2589 10.6634 18.3994 10.548 18.4983 10.4C18.5972 10.252 18.65 10.078 18.65 9.9C18.65 9.6613 18.5552 9.43239 18.3864 9.2636C18.2176 9.09482 17.9887 9 17.75 9ZM17.75 13C17.572 13 17.398 13.0528 17.25 13.1517C17.102 13.2506 16.9866 13.3911 16.9185 13.5556C16.8504 13.72 16.8326 13.901 16.8673 14.0756C16.902 14.2502 16.9877 14.4105 17.1136 14.5364C17.2395 14.6623 17.3998 14.748 17.5744 14.7827C17.749 14.8174 17.93 14.7996 18.0944 14.7315C18.2589 14.6634 18.3994 14.548 18.4983 14.4C18.5972 14.252 18.65 14.078 18.65 13.9C18.65 13.6613 18.5552 13.4324 18.3864 13.2636C18.2176 13.0948 17.9887 13 17.75 13Z" fill="black"/>
</svg>
