<svg width="24" height="24" viewBox="0 0 24 24" fill="none" xmlns="http://www.w3.org/2000/svg">
<path d="M16 5.1414V3C16 2.46957 15.7893 1.96086 15.4142 1.58579C15.0391 1.21071 14.5304 1 14 1H10C9.46957 1 8.96086 1.21071 8.58579 1.58579C8.21071 1.96086 8 2.46957 8 3V5.1414C7.14297 5.36103 6.38322 5.85924 5.84018 6.5577C5.29713 7.25616 5.00159 8.11527 5 9V15C5.00161 15.8847 5.29716 16.7438 5.8402 17.4423C6.38324 18.1407 7.14298 18.639 8 18.8586V21C8 21.5304 8.21071 22.0391 8.58579 22.4142C8.96086 22.7893 9.46957 23 10 23H14C14.5304 23 15.0391 22.7893 15.4142 22.4142C15.7893 22.0391 16 21.5304 16 21V18.8586C16.857 18.639 17.6168 18.1407 18.1598 17.4423C18.7028 16.7438 18.9984 15.8847 19 15V9C18.9984 8.11527 18.7029 7.25616 18.1598 6.5577C17.6168 5.85924 16.857 5.36103 16 5.1414ZM8.5 3C8.50045 2.60231 8.65863 2.22104 8.93984 1.93984C9.22104 1.65863 9.60231 1.50045 10 1.5H14C14.3977 1.50045 14.779 1.65863 15.0602 1.93984C15.3414 2.22104 15.4995 2.60231 15.5 3V5.05C15.3346 5.02272 15.1676 5.00602 15 5H9C8.83244 5.00602 8.66543 5.02272 8.5 5.05V3ZM15.5 21C15.4995 21.3977 15.3414 21.779 15.0602 22.0602C14.779 22.3414 14.3977 22.4995 14 22.5H10C9.60231 22.4995 9.22104 22.3414 8.93984 22.0602C8.65863 21.779 8.50045 21.3977 8.5 21V18.95C8.66543 18.9773 8.83244 18.994 9 19H15C15.1676 18.994 15.3346 18.9773 15.5 18.95V21ZM18.5 15C18.4989 15.9279 18.1299 16.8176 17.4737 17.4737C16.8176 18.1299 15.9279 18.4989 15 18.5H9C8.07207 18.4989 7.18244 18.1299 6.5263 17.4737C5.87015 16.8176 5.50106 15.9279 5.5 15V9C5.50106 8.07207 5.87015 7.18244 6.5263 6.5263C7.18244 5.87015 8.07207 5.50106 9 5.5H15C15.9279 5.50106 16.8176 5.87015 17.4737 6.5263C18.1299 7.18244 18.4989 8.07207 18.5 9V15Z" fill="black"/>
</svg>
