<svg width="24" height="24" viewBox="0 0 24 24" fill="none" xmlns="http://www.w3.org/2000/svg">
<path d="M12 22.5859L10.0288 20.6147L9.3218 21.3218L12 24L14.6782 21.3218L13.9712 20.6147L12 22.5859ZM20.5 2.5H3.5C2.83696 2.5 2.20107 2.76339 1.73223 3.23223C1.26339 3.70107 1 4.33696 1 5V16C1 16.663 1.26339 17.2989 1.73223 17.7678C2.20107 18.2366 2.83696 18.5 3.5 18.5H20.5C21.163 18.5 21.7989 18.2366 22.2678 17.7678C22.7366 17.2989 23 16.663 23 16V5C23 4.33696 22.7366 3.70107 22.2678 3.23223C21.7989 2.76339 21.163 2.5 20.5 2.5ZM11 5.5H13V7.5H11V5.5ZM11 9.5H13V11.5H11V9.5ZM7 5.5H9V7.5H7V5.5ZM7 9.5H9V11.5H7V9.5ZM5 15.5H3V13.5H5V15.5ZM5 11.5H3V9.5H5V11.5ZM5 7.5H3V5.5H5V7.5ZM17 15.5H7V13.5H17V15.5ZM17 11.5H15V9.5H17V11.5ZM17 7.5H15V5.5H17V7.5ZM21 15.5H19V13.5H21V15.5ZM21 11.5H19V9.5H21V11.5ZM21 7.5H19V5.5H21V7.5Z" fill="black"/>
</svg>
