<svg width="24" height="24" viewBox="0 0 24 24" fill="none" xmlns="http://www.w3.org/2000/svg">
<path d="M18 10V4C18 3.46957 17.7893 2.96086 17.4142 2.58579C17.0391 2.21071 16.5304 2 16 2H8C7.46957 2 6.96086 2.21071 6.58579 2.58579C6.21071 2.96086 6 3.46957 6 4V10C6 10.5304 6.21071 11.0391 6.58579 11.4142C6.96086 11.7893 7.46957 12 8 12C7.46957 12 6.96086 12.2107 6.58579 12.5858C6.21071 12.9609 6 13.4696 6 14V20C6 20.5304 6.21071 21.0391 6.58579 21.4142C6.96086 21.7893 7.46957 22 8 22H16C16.5304 22 17.0391 21.7893 17.4142 21.4142C17.7893 21.0391 18 20.5304 18 20V14C18 13.4696 17.7893 12.9609 17.4142 12.5858C17.0391 12.2107 16.5304 12 16 12C16.5304 12 17.0391 11.7893 17.4142 11.4142C17.7893 11.0391 18 10.5304 18 10ZM8.9 20.5292C8.722 20.5292 8.54799 20.4764 8.39999 20.3775C8.25198 20.2786 8.13663 20.1381 8.06851 19.9736C8.00039 19.8092 7.98257 19.6282 8.01729 19.4536C8.05202 19.279 8.13774 19.1187 8.2636 18.9928C8.38947 18.8669 8.54984 18.7812 8.72442 18.7465C8.899 18.7118 9.07996 18.7296 9.24442 18.7977C9.40887 18.8658 9.54943 18.9812 9.64832 19.1292C9.74722 19.2772 9.8 19.4512 9.8 19.6292C9.8 19.8679 9.70518 20.0968 9.5364 20.2656C9.36761 20.4344 9.13869 20.5292 8.9 20.5292ZM8.9 17.7646C8.722 17.7646 8.54799 17.7118 8.39999 17.6129C8.25198 17.514 8.13663 17.3735 8.06851 17.209C8.00039 17.0446 7.98257 16.8636 8.01729 16.689C8.05202 16.5144 8.13774 16.3541 8.2636 16.2282C8.38947 16.1023 8.54984 16.0166 8.72442 15.9819C8.899 15.9472 9.07996 15.965 9.24442 16.0331C9.40887 16.1012 9.54943 16.2166 9.64832 16.3646C9.74722 16.5126 9.8 16.6866 9.8 16.8646C9.8 16.9828 9.77672 17.0998 9.73149 17.209C9.68626 17.3182 9.61997 17.4174 9.5364 17.501C9.45282 17.5846 9.35361 17.6509 9.24442 17.6961C9.13522 17.7413 9.01819 17.7646 8.9 17.7646ZM8.9 15C8.722 15 8.54799 14.9472 8.39999 14.8483C8.25198 14.7494 8.13663 14.6089 8.06851 14.4444C8.00039 14.28 7.98257 14.099 8.01729 13.9244C8.05202 13.7498 8.13774 13.5895 8.2636 13.4636C8.38947 13.3377 8.54984 13.252 8.72442 13.2173C8.899 13.1826 9.07996 13.2004 9.24442 13.2685C9.40887 13.3366 9.54943 13.452 9.64832 13.6C9.74722 13.748 9.8 13.922 9.8 14.1C9.8 14.3387 9.70518 14.5676 9.5364 14.7364C9.36761 14.9052 9.13869 15 8.9 15ZM12 20.5292C11.822 20.5292 11.648 20.4764 11.5 20.3775C11.352 20.2786 11.2366 20.1381 11.1685 19.9736C11.1004 19.8092 11.0826 19.6282 11.1173 19.4536C11.152 19.279 11.2377 19.1187 11.3636 18.9928C11.4895 18.8669 11.6498 18.7812 11.8244 18.7465C11.999 18.7118 12.18 18.7296 12.3444 18.7977C12.5089 18.8658 12.6494 18.9812 12.7483 19.1292C12.8472 19.2772 12.9 19.4512 12.9 19.6292C12.9 19.8679 12.8052 20.0968 12.6364 20.2656C12.4676 20.4344 12.2387 20.5292 12 20.5292ZM12 17.7646C11.822 17.7646 11.648 17.7118 11.5 17.6129C11.352 17.514 11.2366 17.3735 11.1685 17.209C11.1004 17.0446 11.0826 16.8636 11.1173 16.689C11.152 16.5144 11.2377 16.3541 11.3636 16.2282C11.4895 16.1023 11.6498 16.0166 11.8244 15.9819C11.999 15.9472 12.18 15.965 12.3444 16.0331C12.5089 16.1012 12.6494 16.2166 12.7483 16.3646C12.8472 16.5126 12.9 16.6866 12.9 16.8646C12.9 16.9828 12.8767 17.0998 12.8315 17.209C12.7863 17.3182 12.72 17.4174 12.6364 17.501C12.5528 17.5846 12.4536 17.6509 12.3444 17.6961C12.2352 17.7413 12.1182 17.7646 12 17.7646ZM12 15C11.822 15 11.648 14.9472 11.5 14.8483C11.352 14.7494 11.2366 14.6089 11.1685 14.4444C11.1004 14.28 11.0826 14.099 11.1173 13.9244C11.152 13.7498 11.2377 13.5895 11.3636 13.4636C11.4895 13.3377 11.6498 13.252 11.8244 13.2173C11.999 13.1826 12.18 13.2004 12.3444 13.2685C12.5089 13.3366 12.6494 13.452 12.7483 13.6C12.8472 13.748 12.9 13.922 12.9 14.1C12.9 14.3387 12.8052 14.5676 12.6364 14.7364C12.4676 14.9052 12.2387 15 12 15ZM15.1 20.5292C14.922 20.5292 14.748 20.4764 14.6 20.3775C14.452 20.2786 14.3366 20.1381 14.2685 19.9736C14.2004 19.8092 14.1826 19.6282 14.2173 19.4536C14.252 19.279 14.3377 19.1187 14.4636 18.9928C14.5895 18.8669 14.7498 18.7812 14.9244 18.7465C15.099 18.7118 15.28 18.7296 15.4444 18.7977C15.6089 18.8658 15.7494 18.9812 15.8483 19.1292C15.9472 19.2772 16 19.4512 16 19.6292C16 19.8679 15.9052 20.0968 15.7364 20.2656C15.5676 20.4344 15.3387 20.5292 15.1 20.5292ZM15.1 17.7646C14.922 17.7646 14.748 17.7118 14.6 17.6129C14.452 17.514 14.3366 17.3735 14.2685 17.209C14.2004 17.0446 14.1826 16.8636 14.2173 16.689C14.252 16.5144 14.3377 16.3541 14.4636 16.2282C14.5895 16.1023 14.7498 16.0166 14.9244 15.9819C15.099 15.9472 15.28 15.965 15.4444 16.0331C15.6089 16.1012 15.7494 16.2166 15.8483 16.3646C15.9472 16.5126 16 16.6866 16 16.8646C16 16.9828 15.9767 17.0998 15.9315 17.209C15.8863 17.3182 15.82 17.4174 15.7364 17.501C15.6528 17.5846 15.5536 17.6509 15.4444 17.6961C15.3352 17.7413 15.2182 17.7646 15.1 17.7646ZM15.1 15C14.922 15 14.748 14.9472 14.6 14.8483C14.452 14.7494 14.3366 14.6089 14.2685 14.4444C14.2004 14.28 14.1826 14.099 14.2173 13.9244C14.252 13.7498 14.3377 13.5895 14.4636 13.4636C14.5895 13.3377 14.7498 13.252 14.9244 13.2173C15.099 13.1826 15.28 13.2004 15.4444 13.2685C15.6089 13.3366 15.7494 13.452 15.8483 13.6C15.9472 13.748 16 13.922 16 14.1C16 14.3387 15.9052 14.5676 15.7364 14.7364C15.5676 14.9052 15.3387 15 15.1 15ZM17 10H7V4H17V10Z" fill="black"/>
</svg>
