<svg width="24" height="24" viewBox="0 0 24 24" fill="none" xmlns="http://www.w3.org/2000/svg">
<path d="M20.5 6H3.5C2.83696 6 2.20107 6.26339 1.73223 6.73223C1.26339 7.20107 1 7.83696 1 8.5V19.5C1 20.163 1.26339 20.7989 1.73223 21.2678C2.20107 21.7366 2.83696 22 3.5 22H20.5C21.163 22 21.7989 21.7366 22.2678 21.2678C22.7366 20.7989 23 20.163 23 19.5V8.5C23 7.83696 22.7366 7.20107 22.2678 6.73223C21.7989 6.26339 21.163 6 20.5 6ZM22 19.5C21.9995 19.8977 21.8414 20.279 21.5602 20.5602C21.279 20.8414 20.8977 20.9995 20.5 21H3.5C3.10231 20.9995 2.72104 20.8414 2.43984 20.5602C2.15863 20.279 2.00045 19.8977 2 19.5V8.5C2.00045 8.10231 2.15863 7.72104 2.43984 7.43984C2.72104 7.15863 3.10231 7.00045 3.5 7H20.5C20.8977 7.00045 21.279 7.15863 21.5602 7.43984C21.8414 7.72104 21.9995 8.10231 22 8.5V19.5ZM4 11.5H7V9H4V11.5ZM4.86 9.86H6.14V10.64H4.86V9.86ZM17 11.5H20V9H17V11.5ZM17.86 9.86H19.14V10.64H17.86V9.86ZM11.3334 9H8.3334V11.5H11.3334V9ZM10.4734 10.64H9.1934V9.86H10.4734V10.64ZM12.6667 11.5H15.6667V9H12.6667V11.5ZM13.5267 9.86H14.8067V10.64H13.5267V9.86ZM4 19H7V16.5H4V19ZM4.86 17.36H6.14V18.14H4.86V17.36ZM17 19H20V16.5H17V19ZM17.86 17.36H19.14V18.14H17.86V17.36ZM8.3334 19H15.6667V16.5H8.3334V19ZM9.1934 17.36H14.8067V18.14H9.1934V17.36ZM4 15.25H7V12.75H4V15.25ZM4.86 13.61H6.14V14.39H4.86V13.61ZM17 15.25H20V12.75H17V15.25ZM17.86 13.61H19.14V14.39H17.86V13.61ZM11.3334 12.75H8.3334V15.25H11.3334V12.75ZM10.4734 14.39H9.1934V13.61H10.4734V14.39ZM12.6667 15.25H15.6667V12.75H12.6667V15.25ZM13.5267 13.61H14.8067V14.39H13.5267V13.61ZM12 2.1211C12.7226 2.11901 13.4383 2.26035 14.1059 2.53695C14.7734 2.81354 15.3794 3.21987 15.8887 3.7324L16.5957 3.0254C15.9923 2.42168 15.2759 1.94277 14.4873 1.61602C13.6988 1.28927 12.8536 1.12109 12 1.12109C11.1464 1.12109 10.3012 1.28927 9.51269 1.61602C8.72414 1.94277 8.0077 2.42168 7.4043 3.0254L8.1113 3.7324C8.62062 3.21987 9.22661 2.81354 9.89413 2.53695C10.5617 2.26035 11.2774 2.11901 12 2.1211Z" fill="black"/>
</svg>
