<svg width="24" height="24" viewBox="0 0 24 24" fill="none" xmlns="http://www.w3.org/2000/svg">
<path d="M20 6.00005H7.8074L19.1089 1.96225L18.5958 0.552246L3.2733 6.13715L3.2751 6.14055C2.89995 6.28593 2.57748 6.54127 2.34995 6.87308C2.12242 7.2049 2.00044 7.59771 2 8.00005V19C2 19.5305 2.21071 20.0392 2.58579 20.4143C2.96086 20.7893 3.46957 21 4 21H20C20.5304 21 21.0391 20.7893 21.4142 20.4143C21.7893 20.0392 22 19.5305 22 19V8.00005C22 7.46961 21.7893 6.96091 21.4142 6.58583C21.0391 6.21076 20.5304 6.00005 20 6.00005ZM13 11H4V9.00005H13V11ZM18 18.5C17.7033 18.5 17.4133 18.4121 17.1666 18.2472C16.92 18.0824 16.7277 17.8482 16.6142 17.5741C16.5007 17.3 16.4709 16.9984 16.5288 16.7074C16.5867 16.4164 16.7296 16.1492 16.9393 15.9394C17.1491 15.7296 17.4164 15.5867 17.7074 15.5289C17.9983 15.471 18.2999 15.5007 18.574 15.6142C18.8481 15.7278 19.0824 15.92 19.2472 16.1667C19.412 16.4134 19.5 16.7034 19.5 17C19.5 17.3979 19.342 17.7794 19.0607 18.0607C18.7794 18.342 18.3978 18.5 18 18.5ZM20 11H14.5V9.00005H20V11Z" fill="black"/>
</svg>
