<svg width="24" height="24" viewBox="0 0 24 24" fill="none" xmlns="http://www.w3.org/2000/svg">
<path d="M19.6666 3H3.66663C3.13619 3 2.62749 3.21071 2.25241 3.58579C1.87734 3.96086 1.66663 4.46957 1.66663 5V14C1.66663 14.5304 1.87734 15.0391 2.25241 15.4142C2.62749 15.7893 3.13619 16 3.66663 16H19.6666C20.1971 16 20.7058 15.7893 21.0808 15.4142C21.4559 15.0391 21.6666 14.5304 21.6666 14V5C21.6666 4.46957 21.4559 3.96086 21.0808 3.58579C20.7058 3.21071 20.1971 3 19.6666 3ZM14.6666 19.0447V17H8.66663V19.0447C8.66662 19.2304 8.6149 19.4124 8.51726 19.5704C8.41963 19.7284 8.27993 19.8561 8.11383 19.9391L6.66663 20.6627V21H16.6666V20.6627L15.22 19.9391C15.0538 19.8561 14.914 19.7285 14.8163 19.5705C14.7186 19.4125 14.6668 19.2305 14.6667 19.0447H14.6666Z" fill="black"/>
</svg>
