<svg width="24" height="24" viewBox="0 0 24 24" fill="none" xmlns="http://www.w3.org/2000/svg">
<path d="M16.9961 3.3463L15.9954 5.08C17.5215 5.95975 18.7146 7.31861 19.3895 8.94571C20.0644 10.5728 20.1835 12.3772 19.7281 14.0788C19.2727 15.7805 18.2685 17.2843 16.8711 18.3569C15.4738 19.4295 13.7615 20.0109 12 20.0109C10.2385 20.0109 8.5262 19.4295 7.12886 18.3569C5.73152 17.2843 4.72726 15.7805 4.27191 14.0788C3.81656 12.3772 3.93557 10.5728 4.61049 8.94571C5.28541 7.31861 6.47849 5.95975 8.0046 5.08L7.0039 3.3463C5.09666 4.44631 3.60575 6.145 2.7625 8.17885C1.91925 10.2127 1.77079 12.468 2.34016 14.5948C2.90953 16.7217 4.1649 18.6011 5.9115 19.9417C7.65809 21.2822 9.79828 22.0088 12 22.0088C14.2017 22.0088 16.3419 21.2822 18.0885 19.9417C19.8351 18.6011 21.0905 16.7217 21.6598 14.5948C22.2292 12.468 22.0808 10.2127 21.2375 8.17885C20.3943 6.145 18.9034 4.44631 16.9961 3.3463ZM13 2H11V12H13V2Z" fill="black"/>
</svg>
