<svg width="24" height="24" viewBox="0 0 24 24" fill="none" xmlns="http://www.w3.org/2000/svg">
<path d="M20.31 18.5C20.5258 18.3141 20.6991 18.0839 20.8182 17.8251C20.9372 17.5663 20.9992 17.2849 21 17V6C21 5.46957 20.7893 4.96086 20.4142 4.58579C20.0391 4.21071 19.5304 4 19 4H5C4.46957 4 3.96086 4.21071 3.58579 4.58579C3.21071 4.96086 3 5.46957 3 6V17C3.00076 17.2849 3.06276 17.5663 3.18181 17.8251C3.30086 18.0839 3.47418 18.3141 3.69 18.5H1V20H23V18.5H20.31ZM4.5 6C4.5 5.86739 4.55268 5.74021 4.64645 5.64645C4.74021 5.55268 4.86739 5.5 5 5.5H19C19.1326 5.5 19.2598 5.55268 19.3536 5.64645C19.4473 5.74021 19.5 5.86739 19.5 6V17C19.5 17.1326 19.4473 17.2598 19.3536 17.3536C19.2598 17.4473 19.1326 17.5 19 17.5H5C4.86739 17.5 4.74021 17.4473 4.64645 17.3536C4.55268 17.2598 4.5 17.1326 4.5 17V6Z" fill="black"/>
</svg>
