<svg width="24" height="24" viewBox="0 0 24 24" fill="none" xmlns="http://www.w3.org/2000/svg">
<path d="M9 16H15C15.5304 16 16.0391 15.7893 16.4142 15.4142C16.7893 15.0391 17 14.5304 17 14V4C17 3.46957 16.7893 2.96086 16.4142 2.58579C16.0391 2.21071 15.5304 2 15 2H9C8.46957 2 7.96086 2.21071 7.58579 2.58579C7.21071 2.96086 7 3.46957 7 4V14C7 14.5304 7.21071 15.0391 7.58579 15.4142C7.96086 15.7893 8.46957 16 9 16ZM7.5 4C7.50045 3.60231 7.65863 3.22104 7.93984 2.93984C8.22104 2.65863 8.60231 2.50045 9 2.5H15C15.3977 2.50045 15.779 2.65863 16.0602 2.93984C16.3414 3.22104 16.4995 3.60231 16.5 4V14C16.4995 14.3977 16.3414 14.779 16.0602 15.0602C15.779 15.3414 15.3977 15.4995 15 15.5H9C8.60231 15.4995 8.22104 15.3414 7.93984 15.0602C7.65863 14.779 7.50045 14.3977 7.5 14V4ZM4 18V21H20V18H4ZM19.5 20.5H4.5V18.5H19.5V20.5Z" fill="black"/>
</svg>
