<svg width="24" height="24" viewBox="0 0 24 24" fill="none" xmlns="http://www.w3.org/2000/svg">
<path d="M19.5 5.0001H4.5C3.83696 5.0001 3.20107 5.26349 2.73223 5.73233C2.26339 6.20117 2 6.83706 2 7.5001V16.5001C2 17.1631 2.26339 17.799 2.73223 18.2679C3.20107 18.7367 3.83696 19.0001 4.5 19.0001H19.5C20.163 19.0001 20.7989 18.7367 21.2678 18.2679C21.7366 17.799 22 17.1631 22 16.5001V7.5001C22 6.83706 21.7366 6.20117 21.2678 5.73233C20.7989 5.26349 20.163 5.0001 19.5 5.0001ZM20.5 16.5001C20.4997 16.7652 20.3943 17.0194 20.2068 17.2069C20.0193 17.3944 19.7651 17.4998 19.5 17.5001H4.5C4.23487 17.4998 3.98069 17.3944 3.79321 17.2069C3.60574 17.0194 3.50029 16.7652 3.5 16.5001V7.5001C3.50029 7.23497 3.60574 6.98079 3.79321 6.79331C3.98069 6.60584 4.23487 6.50039 4.5 6.5001H19.5C19.7651 6.50039 20.0193 6.60584 20.2068 6.79331C20.3943 6.98079 20.4997 7.23497 20.5 7.5001V16.5001ZM9 3.1001C9 2.96749 8.94732 2.84031 8.85355 2.74654C8.75979 2.65278 8.63261 2.6001 8.5 2.6001H5.5C5.36739 2.6001 5.24021 2.65278 5.14645 2.74654C5.05268 2.84031 5 2.96749 5 3.1001V4.0001H9V3.1001ZM13.6875 8.5001C12.9953 8.5001 12.3186 8.70537 11.743 9.08995C11.1674 9.47454 10.7188 10.0212 10.4539 10.6607C10.189 11.3002 10.1197 12.004 10.2548 12.6829C10.3898 13.3618 10.7231 13.9855 11.2126 14.475C11.7021 14.9645 12.3258 15.2978 13.0047 15.4328C13.6836 15.5679 14.3874 15.4986 15.0269 15.2337C15.6664 14.9688 16.2131 14.5202 16.5976 13.9446C16.9822 13.369 17.1875 12.6923 17.1875 12.0001C17.1865 11.0721 16.8175 10.1825 16.1613 9.52631C15.5051 8.87014 14.6155 8.50108 13.6875 8.5001ZM13.6875 14.0001C13.2919 14.0001 12.9053 13.8828 12.5764 13.663C12.2475 13.4433 11.9911 13.1309 11.8397 12.7655C11.6884 12.4 11.6488 11.9979 11.7259 11.6099C11.8031 11.222 11.9936 10.8656 12.2733 10.5859C12.553 10.3062 12.9094 10.1157 13.2973 10.0385C13.6853 9.96136 14.0874 10.001 14.4529 10.1523C14.8183 10.3037 15.1307 10.5601 15.3504 10.889C15.5702 11.2179 15.6875 11.6045 15.6875 12.0001C15.6869 12.5303 15.476 13.0387 15.101 13.4136C14.7261 13.7886 14.2177 13.9995 13.6875 14.0001Z" fill="black"/>
</svg>
