<svg width="24" height="24" viewBox="0 0 24 24" fill="none" xmlns="http://www.w3.org/2000/svg">
<path d="M22.3367 5.8464L23.57 4.942C23.413 4.52476 23.1868 4.13699 22.9008 3.795L21.5063 4.4088L20.663 3.9219L20.4968 2.4C20.0589 2.3108 19.6076 2.3108 19.1697 2.4L19.0034 3.9217L18.1599 4.4086L16.7656 3.795C16.4796 4.13704 16.2533 4.52479 16.0962 4.942L17.3301 5.8464V6.82L16.0962 7.7243C16.2533 8.14157 16.4796 8.52937 16.7656 8.8714L18.16 8.2578L19.0035 8.7448L19.1698 10.2664C19.6077 10.3556 20.059 10.3556 20.4969 10.2664L20.6634 8.7448L21.5069 8.2578L22.9012 8.8716C23.187 8.52953 23.4131 8.14173 23.57 7.7245L22.3367 6.82V5.8464ZM19.8333 7.3333C19.6355 7.3333 19.4422 7.27465 19.2777 7.16477C19.1133 7.05489 18.9851 6.89871 18.9094 6.71598C18.8337 6.53326 18.8139 6.33219 18.8525 6.13821C18.8911 5.94423 18.9863 5.76605 19.1262 5.62619C19.266 5.48634 19.4442 5.3911 19.6382 5.35251C19.8322 5.31393 20.0332 5.33373 20.216 5.40942C20.3987 5.48511 20.5549 5.61328 20.6648 5.77773C20.7746 5.94218 20.8333 6.13552 20.8333 6.3333C20.8333 6.59852 20.7279 6.85287 20.5404 7.04041C20.3529 7.22794 20.0985 7.3333 19.8333 7.3333ZM12.5 2H11.5V12H12.5V2ZM12 21C10.0189 21.0017 8.09269 20.3491 6.52057 19.1436C4.94844 17.9382 3.81839 16.2473 3.30593 14.3336C2.79348 12.4199 2.92731 10.3906 3.68663 8.56081C4.44596 6.73101 5.78827 5.20317 7.50509 4.2146L7.00389 3.3464C5.48423 4.22402 4.22238 5.48621 3.34517 7.0061C2.46795 8.526 2.00629 10.25 2.00659 12.0049C2.00689 13.7598 2.46914 15.4836 3.34687 17.0032C4.22461 18.5228 5.48689 19.7846 7.00685 20.6617C8.5268 21.5388 10.2509 22.0003 12.0057 21.9999C13.7606 21.9995 15.4844 21.5371 17.004 20.6592C18.5235 19.7814 19.7852 18.519 20.6622 16.999C21.5391 15.479 22.0006 13.7549 22 12H21C20.9973 14.3861 20.0483 16.6738 18.361 18.361C16.6738 20.0483 14.3861 20.9974 12 21Z" fill="black"/>
</svg>
