<svg width="24" height="24" viewBox="0 0 24 24" fill="none" xmlns="http://www.w3.org/2000/svg">
<path d="M15.5 2H8.5C7.83696 2 7.20107 2.26339 6.73223 2.73223C6.26339 3.20107 6 3.83696 6 4.5V19.5C6 20.163 6.26339 20.7989 6.73223 21.2678C7.20107 21.7366 7.83696 22 8.5 22H15.5C16.163 22 16.7989 21.7366 17.2678 21.2678C17.7366 20.7989 18 20.163 18 19.5V4.5C18 3.83696 17.7366 3.20107 17.2678 2.73223C16.7989 2.26339 16.163 2 15.5 2ZM17.5 19.5C17.4994 20.0302 17.2885 20.5386 16.9135 20.9135C16.5386 21.2885 16.0302 21.4994 15.5 21.5H8.5C7.96975 21.4994 7.4614 21.2885 7.08646 20.9135C6.71152 20.5386 6.50061 20.0302 6.5 19.5V4.5C6.50061 3.96975 6.71152 3.4614 7.08646 3.08646C7.4614 2.71152 7.96975 2.50061 8.5 2.5H15.5C16.0302 2.50061 16.5386 2.71152 16.9135 3.08646C17.2885 3.4614 17.4994 3.96975 17.5 4.5V19.5ZM12 17.75C11.7775 17.75 11.56 17.816 11.375 17.9396C11.19 18.0632 11.0458 18.2389 10.9606 18.4445C10.8755 18.65 10.8532 18.8762 10.8966 19.0945C10.94 19.3127 11.0472 19.5132 11.2045 19.6705C11.3618 19.8278 11.5623 19.935 11.7805 19.9784C11.9988 20.0218 12.225 19.9995 12.4305 19.9144C12.6361 19.8292 12.8118 19.685 12.9354 19.5C13.059 19.315 13.125 19.0975 13.125 18.875C13.125 18.5766 13.0065 18.2905 12.7955 18.0795C12.5845 17.8685 12.2984 17.75 12 17.75ZM12 19.5C11.8764 19.5 11.7555 19.4633 11.6528 19.3947C11.55 19.326 11.4699 19.2284 11.4226 19.1142C11.3753 19 11.3629 18.8743 11.387 18.7531C11.4111 18.6318 11.4707 18.5205 11.5581 18.4331C11.6455 18.3456 11.7568 18.2861 11.8781 18.262C11.9993 18.2379 12.125 18.2503 12.2392 18.2976C12.3534 18.3449 12.451 18.425 12.5197 18.5278C12.5883 18.6306 12.625 18.7514 12.625 18.875C12.6248 19.0407 12.5589 19.1996 12.4417 19.3167C12.3246 19.4339 12.1657 19.4998 12 19.5Z" fill="black"/>
</svg>
