<svg width="24" height="24" viewBox="0 0 24 24" fill="none" xmlns="http://www.w3.org/2000/svg">
<path d="M3 3V21H21V3H3ZM20.5 20.5H3.5V12.25H20.5V20.5ZM20.5 11.75H3.5V3.5H20.5V11.75ZM17 8.075C17.089 8.075 17.176 8.04861 17.25 7.99916C17.324 7.94971 17.3817 7.87943 17.4157 7.79721C17.4498 7.71498 17.4587 7.6245 17.4414 7.53721C17.424 7.44992 17.3811 7.36974 17.3182 7.3068C17.2553 7.24387 17.1751 7.20101 17.0878 7.18365C17.0005 7.16628 16.91 7.17519 16.8278 7.20925C16.7456 7.24331 16.6753 7.30099 16.6258 7.37499C16.5764 7.449 16.55 7.536 16.55 7.625C16.55 7.74435 16.5974 7.85881 16.6818 7.9432C16.7662 8.02759 16.8807 8.075 17 8.075ZM14 8.075C14.089 8.075 14.176 8.04861 14.25 7.99916C14.324 7.94971 14.3817 7.87943 14.4157 7.79721C14.4498 7.71498 14.4587 7.6245 14.4414 7.53721C14.424 7.44992 14.3811 7.36974 14.3182 7.3068C14.2553 7.24387 14.1751 7.20101 14.0878 7.18365C14.0005 7.16628 13.91 7.17519 13.8278 7.20925C13.7456 7.24331 13.6753 7.30099 13.6258 7.37499C13.5764 7.449 13.55 7.536 13.55 7.625C13.55 7.74435 13.5974 7.85881 13.6818 7.9432C13.7662 8.02759 13.8807 8.075 14 8.075ZM17 16.825C17.089 16.825 17.176 16.7986 17.25 16.7492C17.324 16.6997 17.3817 16.6294 17.4157 16.5472C17.4498 16.465 17.4587 16.3745 17.4414 16.2872C17.424 16.1999 17.3811 16.1197 17.3182 16.0568C17.2553 15.9939 17.1751 15.951 17.0878 15.9336C17.0005 15.9163 16.91 15.9252 16.8278 15.9593C16.7456 15.9933 16.6753 16.051 16.6258 16.125C16.5764 16.199 16.55 16.286 16.55 16.375C16.55 16.4943 16.5974 16.6088 16.6818 16.6932C16.7662 16.7776 16.8807 16.825 17 16.825ZM14 16.825C14.089 16.825 14.176 16.7986 14.25 16.7492C14.324 16.6997 14.3817 16.6294 14.4157 16.5472C14.4498 16.465 14.4587 16.3745 14.4414 16.2872C14.424 16.1999 14.3811 16.1197 14.3182 16.0568C14.2553 15.9939 14.1751 15.951 14.0878 15.9336C14.0005 15.9163 13.91 15.9252 13.8278 15.9593C13.7456 15.9933 13.6753 16.051 13.6258 16.125C13.5764 16.199 13.55 16.286 13.55 16.375C13.55 16.4943 13.5974 16.6088 13.6818 16.6932C13.7662 16.7776 13.8807 16.825 14 16.825Z" fill="black"/>
</svg>
