<svg width="24" height="24" viewBox="0 0 24 24" fill="none" xmlns="http://www.w3.org/2000/svg">
<path d="M20 7H18V3H6V7H4C3.46957 7 2.96086 7.21071 2.58579 7.58579C2.21071 7.96086 2 8.46957 2 9V19H6V21H18V19H22V9C22 8.46957 21.7893 7.96086 21.4142 7.58579C21.0391 7.21071 20.5304 7 20 7ZM7 4H17V7H7V4ZM17 20H7V17H17V20ZM21 18H18V16H6V18H3V9C3.00029 8.73487 3.10574 8.48069 3.29321 8.29321C3.48069 8.10574 3.73487 8.00029 4 8H20C20.2651 8.00029 20.5193 8.10574 20.7068 8.29321C20.8943 8.48069 20.9997 8.73487 21 9V18ZM6.5 11.25C6.35166 11.25 6.20666 11.294 6.08332 11.3764C5.95999 11.4588 5.86386 11.5759 5.80709 11.713C5.75032 11.85 5.73547 12.0008 5.76441 12.1463C5.79335 12.2918 5.86478 12.4254 5.96967 12.5303C6.07456 12.6352 6.2082 12.7066 6.35368 12.7356C6.49917 12.7645 6.64997 12.7497 6.78701 12.6929C6.92406 12.6361 7.04119 12.54 7.1236 12.4167C7.20601 12.2933 7.25 12.1483 7.25 12C7.25 11.8011 7.17098 11.6103 7.03033 11.4697C6.88968 11.329 6.69891 11.25 6.5 11.25Z" fill="black"/>
</svg>
