<svg width="24" height="24" viewBox="0 0 24 24" fill="none" xmlns="http://www.w3.org/2000/svg">
<path d="M5.55002 11.4507L5.55082 13.45C6.8768 13.45 8.14848 13.9767 9.08615 14.9142C10.0238 15.8518 10.5507 17.1234 10.5508 18.4494L12.5498 18.4501C12.5503 17.5307 12.3695 16.6203 12.0179 15.7709C11.6662 14.9215 11.1507 14.1497 10.5006 13.4996C9.85049 12.8496 9.07866 12.334 8.22922 11.9825C7.37977 11.6309 6.46936 11.4502 5.55002 11.4507ZM3.30102 18.3419L1.89532 19.7477L4.25232 22.1047L5.65812 20.6989L9.28942 20.6031L3.39692 14.7106L3.30102 18.3419ZM14.9141 9.08586C14.4484 8.6227 14.0792 8.07176 13.8279 7.46494C13.5766 6.85812 13.4482 6.20747 13.45 5.55066L11.4507 5.54996C11.4503 6.46924 11.6311 7.37958 11.9827 8.22896C12.3343 9.07834 12.8498 9.8501 13.4999 10.5001C14.1499 11.1502 14.9216 11.6657 15.771 12.0173C16.6204 12.3689 17.5308 12.5497 18.45 12.5493L18.4492 10.55C17.7924 10.5519 17.1418 10.4234 16.535 10.1721C15.9282 9.9208 15.3772 9.55159 14.9141 9.08586ZM19.7477 1.89526L18.3419 3.30106L14.7106 3.39686L20.6031 9.28936L20.699 5.65806L22.1047 4.25226L19.7477 1.89526Z" fill="black"/>
</svg>
