<svg width="24" height="24" viewBox="0 0 24 24" fill="none" xmlns="http://www.w3.org/2000/svg">
<path d="M18.3125 3H5.68746C4.23999 4.01264 3.05811 5.35947 2.2421 6.92624C1.42608 8.493 1 10.2335 1 12C1 13.7665 1.42608 15.507 2.2421 17.0738C3.05811 18.6405 4.23999 19.9874 5.68746 21H18.3125C19.76 19.9874 20.9419 18.6405 21.7579 17.0738C22.5739 15.507 23 13.7665 23 12C23 10.2335 22.5739 8.49298 21.7579 6.92622C20.9419 5.35945 19.76 4.01263 18.3125 3ZM17.988 20H6.01196C4.76677 19.0708 3.75568 17.8637 3.05917 16.4748C2.36267 15.086 1.99998 13.5537 1.99998 12C1.99998 10.4463 2.36267 8.91403 3.05917 7.52518C3.75568 6.13633 4.76677 4.92925 6.01196 4H17.988C19.2332 4.92925 20.2442 6.13633 20.9408 7.52518C21.6373 8.91403 21.9999 10.4463 21.9999 12C21.9999 13.5537 21.6373 15.086 20.9408 16.4748C20.2442 17.8637 19.2332 19.0708 17.988 20ZM15.5 14H16.5V10H15.5V14ZM7.49996 15H8.49996V9H7.49996V15Z" fill="black"/>
</svg>
