<svg width="24" height="24" viewBox="0 0 24 24" fill="none" xmlns="http://www.w3.org/2000/svg">
<path d="M12 13.5C12.2967 13.5 12.5867 13.412 12.8334 13.2472C13.08 13.0824 13.2723 12.8481 13.3858 12.574C13.4994 12.2999 13.5291 11.9983 13.4712 11.7074C13.4133 11.4164 13.2704 11.1491 13.0607 10.9393C12.8509 10.7296 12.5836 10.5867 12.2926 10.5288C12.0017 10.4709 11.7001 10.5006 11.426 10.6142C11.1519 10.7277 10.9176 10.92 10.7528 11.1666C10.588 11.4133 10.5 11.7033 10.5 12C10.5 12.3978 10.658 12.7794 10.9393 13.0607C11.2206 13.342 11.6022 13.5 12 13.5ZM12 11C12.1978 11 12.3911 11.0586 12.5556 11.1685C12.72 11.2784 12.8482 11.4346 12.9239 11.6173C12.9996 11.8 13.0194 12.0011 12.9808 12.1951C12.9422 12.3891 12.847 12.5673 12.7071 12.7071C12.5673 12.847 12.3891 12.9422 12.1951 12.9808C12.0011 13.0194 11.8 12.9996 11.6173 12.9239C11.4346 12.8482 11.2784 12.72 11.1685 12.5556C11.0586 12.3911 11 12.1978 11 12C11.0003 11.7349 11.1057 11.4807 11.2932 11.2932C11.4807 11.1057 11.7349 11.0003 12 11ZM17.56 13.5C17.8567 13.5 18.1467 13.412 18.3934 13.2472C18.64 13.0824 18.8323 12.8481 18.9458 12.574C19.0594 12.2999 19.0891 11.9983 19.0312 11.7074C18.9733 11.4164 18.8304 11.1491 18.6207 10.9393C18.4109 10.7296 18.1436 10.5867 17.8526 10.5288C17.5617 10.4709 17.2601 10.5006 16.986 10.6142C16.7119 10.7277 16.4776 10.92 16.3128 11.1666C16.148 11.4133 16.06 11.7033 16.06 12C16.06 12.3978 16.218 12.7794 16.4993 13.0607C16.7806 13.342 17.1622 13.5 17.56 13.5ZM17.56 11C17.7578 11 17.9511 11.0586 18.1156 11.1685C18.28 11.2784 18.4082 11.4346 18.4839 11.6173C18.5596 11.8 18.5794 12.0011 18.5408 12.1951C18.5022 12.3891 18.407 12.5673 18.2671 12.7071C18.1273 12.847 17.9491 12.9422 17.7551 12.9808C17.5611 13.0194 17.36 12.9996 17.1773 12.9239C16.9946 12.8482 16.8384 12.72 16.7285 12.5556C16.6186 12.3911 16.56 12.1978 16.56 12C16.5603 11.7349 16.6657 11.4807 16.8532 11.2932C17.0407 11.1057 17.2949 11.0003 17.56 11ZM6.44 13.5C6.73667 13.5 7.02668 13.412 7.27336 13.2472C7.52003 13.0824 7.71229 12.8481 7.82582 12.574C7.93935 12.2999 7.96906 11.9983 7.91118 11.7074C7.8533 11.4164 7.71044 11.1491 7.50066 10.9393C7.29088 10.7296 7.02361 10.5867 6.73264 10.5288C6.44166 10.4709 6.14006 10.5006 5.86597 10.6142C5.59189 10.7277 5.35762 10.92 5.1928 11.1666C5.02797 11.4133 4.94 11.7033 4.94 12C4.94 12.3978 5.09804 12.7794 5.37934 13.0607C5.66064 13.342 6.04218 13.5 6.44 13.5ZM6.44 11C6.63778 11 6.83112 11.0586 6.99557 11.1685C7.16002 11.2784 7.28819 11.4346 7.36388 11.6173C7.43957 11.8 7.45937 12.0011 7.42079 12.1951C7.3822 12.3891 7.28696 12.5673 7.14711 12.7071C7.00725 12.847 6.82907 12.9422 6.63509 12.9808C6.44111 13.0194 6.24004 12.9996 6.05732 12.9239C5.87459 12.8482 5.71841 12.72 5.60853 12.5556C5.49865 12.3911 5.44 12.1978 5.44 12C5.44029 11.7349 5.54574 11.4807 5.73321 11.2932C5.92069 11.1057 6.17487 11.0003 6.44 11ZM1 5V19H23V5H1ZM22.5 18.5H1.5V5.5H22.5V18.5Z" fill="black"/>
</svg>
