<svg width="24" height="24" viewBox="0 0 24 24" fill="none" xmlns="http://www.w3.org/2000/svg">
<path d="M12 20.5C10.129 20.5016 8.30977 19.8853 6.82498 18.7468C5.34019 17.6083 4.27292 16.0113 3.78894 14.2039C3.30496 12.3966 3.43137 10.48 4.14853 8.75183C4.86569 7.02369 6.13345 5.58073 7.75491 4.6471L7.00391 3.3463C5.48421 4.22391 4.22232 5.4861 3.34507 7.006C2.46782 8.52591 2.00613 10.25 2.00641 12.0049C2.00669 13.7598 2.46893 15.4837 3.34666 17.0033C4.2244 18.5229 5.4867 19.7847 7.00667 20.6618C8.52665 21.5389 10.2507 22.0005 12.0056 22.0001C13.7605 21.9996 15.4844 21.5373 17.004 20.6594C18.5235 19.7815 19.7852 18.5191 20.6622 16.9991C21.5392 15.479 22.0006 13.7549 22 12H20.5C20.4974 14.2535 19.601 16.414 18.0075 18.0075C16.414 19.601 14.2535 20.4974 12 20.5ZM22.3367 5.6943L23.5498 4.8943C23.4803 4.70117 23.3959 4.51374 23.2974 4.3337C23.1907 4.15841 23.0706 3.99161 22.9382 3.8348L21.6382 4.4848L20.5313 3.8457L20.4451 2.395C20.0415 2.31273 19.6254 2.31273 19.2217 2.395L19.135 3.8458L18.0283 4.4849L16.7283 3.8349C16.5959 3.99171 16.4757 4.15851 16.3689 4.3338C16.2705 4.51388 16.1861 4.70131 16.1165 4.8944L17.3299 5.6944V6.9724L16.1165 7.7724C16.186 7.96551 16.2704 8.15294 16.3689 8.333C16.4757 8.50834 16.5958 8.67517 16.7283 8.832L18.0283 8.182L19.135 8.821L19.2217 10.2719C19.6254 10.354 20.0414 10.354 20.4451 10.2719L20.5315 8.821L21.6384 8.182L22.9384 8.832C23.0708 8.67517 23.1909 8.50834 23.2976 8.333C23.3962 8.15298 23.4806 7.96554 23.55 7.7724L22.3369 6.9724L22.3367 5.6943ZM19.8333 7.5451C19.5936 7.54508 19.3594 7.47399 19.1601 7.34083C18.9608 7.20766 18.8055 7.0184 18.7138 6.79697C18.6221 6.57554 18.5981 6.33189 18.6449 6.09683C18.6917 5.86177 18.8071 5.64586 18.9766 5.47639C19.146 5.30693 19.362 5.19153 19.597 5.14478C19.8321 5.09803 20.0757 5.12203 20.2972 5.21375C20.5186 5.30547 20.7078 5.46079 20.841 5.66007C20.9741 5.85935 21.0452 6.09363 21.0452 6.3333C21.0452 6.49244 21.0139 6.65003 20.953 6.79706C20.892 6.94409 20.8028 7.07768 20.6902 7.19021C20.5777 7.30273 20.4441 7.39199 20.2971 7.45289C20.15 7.51378 19.9925 7.54511 19.8333 7.5451ZM12.75 2H11.25V12H12.75V2Z" fill="black"/>
</svg>
