<svg width="24" height="24" viewBox="0 0 24 24" fill="none" xmlns="http://www.w3.org/2000/svg">
<path d="M19 6H17.1416L15.4092 3H8.5908L6.8584 6H5C4.20462 6.00087 3.44206 6.31722 2.87964 6.87964C2.31722 7.44206 2.00087 8.20462 2 9V18C2.00087 18.7954 2.31722 19.5579 2.87964 20.1204C3.44206 20.6828 4.20462 20.9991 5 21H19C19.7954 20.9991 20.5579 20.6828 21.1204 20.1204C21.6828 19.5579 21.9991 18.7954 22 18V9C21.9991 8.20462 21.6828 7.44206 21.1204 6.87964C20.5579 6.31722 19.7954 6.00087 19 6ZM21.5 18C21.4993 18.6628 21.2356 19.2983 20.7669 19.7669C20.2983 20.2356 19.6628 20.4993 19 20.5H5C4.33719 20.4993 3.70173 20.2356 3.23305 19.7669C2.76437 19.2983 2.50074 18.6628 2.5 18V9C2.50074 8.33719 2.76437 7.70173 3.23305 7.23305C3.70173 6.76437 4.33719 6.50074 5 6.5H7.1471L7.2914 6.25L8.88 3.5H15.121L16.7091 6.25L16.8534 6.5H19C19.6628 6.50074 20.2983 6.76437 20.7669 7.23305C21.2356 7.70173 21.4993 8.33719 21.5 9V18ZM12 9C11.2089 9 10.4355 9.2346 9.77772 9.67412C9.11992 10.1136 8.60723 10.7384 8.30448 11.4693C8.00173 12.2002 7.92252 13.0044 8.07686 13.7804C8.2312 14.5563 8.61216 15.269 9.17157 15.8284C9.73098 16.3878 10.4437 16.7688 11.2196 16.9231C11.9956 17.0775 12.7998 16.9983 13.5307 16.6955C14.2616 16.3928 14.8864 15.8801 15.3259 15.2223C15.7654 14.5645 16 13.7911 16 13C15.9989 11.9395 15.5771 10.9227 14.8272 10.1728C14.0773 9.4229 13.0605 9.00111 12 9ZM12 16.5C11.3078 16.5 10.6311 16.2947 10.0555 15.9101C9.47993 15.5256 9.03133 14.9789 8.76642 14.3394C8.50151 13.6999 8.4322 12.9961 8.56725 12.3172C8.7023 11.6383 9.03564 11.0146 9.52513 10.5251C10.0146 10.0356 10.6383 9.7023 11.3172 9.56725C11.9961 9.4322 12.6999 9.50151 13.3394 9.76642C13.9789 10.0313 14.5256 10.4799 14.9101 11.0555C15.2947 11.6311 15.5 12.3078 15.5 13C15.4989 13.9279 15.1299 14.8176 14.4737 15.4737C13.8176 16.1299 12.9279 16.4989 12 16.5Z" fill="black"/>
</svg>
