<svg width="24" height="24" viewBox="0 0 24 24" fill="none" xmlns="http://www.w3.org/2000/svg">
<path d="M20.5 5H12.5V3.5C12.5005 3.10231 12.6586 2.72104 12.9398 2.43984C13.221 2.15863 13.6023 2.00045 14 2H16V1H14C13.3371 1.00061 12.7016 1.2642 12.2329 1.73291C11.7642 2.20161 11.5006 2.83715 11.5 3.5V5H3.5C2.83696 5 2.20107 5.26339 1.73223 5.73223C1.26339 6.20107 1 6.83696 1 7.5V18.5C1 19.163 1.26339 19.7989 1.73223 20.2678C2.20107 20.7366 2.83696 21 3.5 21H20.5C21.163 21 21.7989 20.7366 22.2678 20.2678C22.7366 19.7989 23 19.163 23 18.5V7.5C23 6.83696 22.7366 6.20107 22.2678 5.73223C21.7989 5.26339 21.163 5 20.5 5ZM22 18.5C21.9995 18.8977 21.8414 19.279 21.5602 19.5602C21.279 19.8414 20.8977 19.9995 20.5 20H3.5C3.10231 19.9995 2.72104 19.8414 2.43984 19.5602C2.15863 19.279 2.00045 18.8977 2 18.5V7.5C2.00045 7.10231 2.15863 6.72104 2.43984 6.43984C2.72104 6.15863 3.10231 6.00045 3.5 6H20.5C20.8977 6.00045 21.279 6.15863 21.5602 6.43984C21.8414 6.72104 21.9995 7.10231 22 7.5V18.5ZM4 10.5H7V8H4V10.5ZM4.86 8.86H6.14V9.64H4.86V8.86ZM17 10.5H20V8H17V10.5ZM17.86 8.86H19.14V9.64H17.86V8.86ZM11.3334 8H8.3334V10.5H11.3334V8ZM10.4734 9.64H9.1934V8.86H10.4734V9.64ZM12.6667 10.5H15.6667V8H12.6667V10.5ZM13.5267 8.86H14.8067V9.64H13.5267V8.86ZM4 18H7V15.5H4V18ZM4.86 16.36H6.14V17.14H4.86V16.36ZM17 18H20V15.5H17V18ZM17.86 16.36H19.14V17.14H17.86V16.36ZM8.3334 18H15.6667V15.5H8.3334V18ZM9.1934 16.36H14.8067V17.14H9.1934V16.36ZM4 14.25H7V11.75H4V14.25ZM4.86 12.61H6.14V13.39H4.86V12.61ZM17 14.25H20V11.75H17V14.25ZM17.86 12.61H19.14V13.39H17.86V12.61ZM11.3334 11.75H8.3334V14.25H11.3334V11.75ZM10.4734 13.39H9.1934V12.61H10.4734V13.39ZM12.6667 14.25H15.6667V11.75H12.6667V14.25ZM13.5267 12.61H14.8067V13.39H13.5267V12.61Z" fill="black"/>
</svg>
