<svg width="24" height="24" viewBox="0 0 24 24" fill="none" xmlns="http://www.w3.org/2000/svg">
<path d="M5.125 11.375C5.00139 11.375 4.88055 11.4117 4.77777 11.4803C4.67499 11.549 4.59488 11.6466 4.54758 11.7608C4.50027 11.875 4.48789 12.0007 4.51201 12.1219C4.53612 12.2432 4.59565 12.3545 4.68306 12.4419C4.77047 12.5293 4.88183 12.5889 5.00307 12.613C5.12431 12.6371 5.24997 12.6247 5.36418 12.5774C5.47838 12.5301 5.57599 12.45 5.64467 12.3472C5.71334 12.2445 5.75 12.1236 5.75 12C5.74981 11.8343 5.68391 11.6754 5.56674 11.5583C5.44957 11.4411 5.2907 11.3752 5.125 11.375ZM20 5H4C3.46957 5 2.96086 5.21071 2.58579 5.58579C2.21071 5.96086 2 6.46957 2 7V17C2 17.5304 2.21071 18.0391 2.58579 18.4142C2.96086 18.7893 3.46957 19 4 19H20C20.5304 19 21.0391 18.7893 21.4142 18.4142C21.7893 18.0391 22 17.5304 22 17V7C22 6.46957 21.7893 5.96086 21.4142 5.58579C21.0391 5.21071 20.5304 5 20 5ZM5.125 13.125C4.9025 13.125 4.68499 13.059 4.49998 12.9354C4.31498 12.8118 4.17078 12.6361 4.08564 12.4305C4.00049 12.225 3.97821 11.9988 4.02162 11.7805C4.06502 11.5623 4.17217 11.3618 4.3295 11.2045C4.48684 11.0472 4.68729 10.94 4.90552 10.8966C5.12375 10.8532 5.34995 10.8755 5.55552 10.9606C5.76109 11.0458 5.93679 11.19 6.0604 11.375C6.18402 11.56 6.25 11.7775 6.25 12C6.25 12.2984 6.13147 12.5845 5.9205 12.7955C5.70952 13.0065 5.42337 13.125 5.125 13.125Z" fill="black"/>
</svg>
