<svg width="24" height="24" viewBox="0 0 24 24" fill="none" xmlns="http://www.w3.org/2000/svg">
<path d="M8.5752 8.5529H7.1752V11.3H4.4279V12.7H7.1748V15.4469H8.5748V12.7H11.3217V11.3H8.5752V8.5529ZM22 5L15 9.9V7C15 6.46957 14.7893 5.96086 14.4142 5.58579C14.0391 5.21071 13.5304 5 13 5H3C2.46957 5 1.96086 5.21071 1.58579 5.58579C1.21071 5.96086 1 6.46957 1 7V17C1 17.5304 1.21071 18.0391 1.58579 18.4142C1.96086 18.7893 2.46957 19 3 19H13C13.5304 19 14.0391 18.7893 14.4142 18.4142C14.7893 18.0391 15 17.5304 15 17V14.1L22 19H23V5H22ZM13.5 17C13.5 17.1326 13.4473 17.2598 13.3536 17.3536C13.2598 17.4473 13.1326 17.5 13 17.5H3C2.86739 17.5 2.74021 17.4473 2.64645 17.3536C2.55268 17.2598 2.5 17.1326 2.5 17V7C2.5 6.86739 2.55268 6.74021 2.64645 6.64645C2.74021 6.55268 2.86739 6.5 3 6.5H13C13.1326 6.5 13.2598 6.55268 13.3536 6.64645C13.4473 6.74021 13.5 6.86739 13.5 7V17ZM21.5 16.819L15 12.269V11.731L21.5 7.181V16.819Z" fill="black"/>
</svg>
