<svg width="24" height="24" viewBox="0 0 24 24" fill="none" xmlns="http://www.w3.org/2000/svg">
<path d="M3.2282 10.0001L20.9637 3.62617L20.7937 3.15967L2 10.0001V17.0001C2 17.5305 2.21071 18.0392 2.58579 18.4143C2.96086 18.7894 3.46957 19.0001 4 19.0001H20C20.5304 19.0001 21.0391 18.7894 21.4142 18.4143C21.7893 18.0392 22 17.5305 22 17.0001V10.0001H3.2282ZM6.2 14.9501C6.111 14.9501 6.024 14.9237 5.94999 14.8742C5.87599 14.8248 5.81831 14.7545 5.78425 14.6723C5.75019 14.59 5.74128 14.4996 5.75865 14.4123C5.77601 14.325 5.81887 14.2448 5.8818 14.1819C5.94474 14.1189 6.02492 14.0761 6.11221 14.0587C6.1995 14.0414 6.28998 14.0503 6.37221 14.0843C6.45443 14.1184 6.52471 14.1761 6.57416 14.2501C6.62361 14.3241 6.65 14.4111 6.65 14.5001C6.65 14.6194 6.60259 14.7339 6.5182 14.8183C6.43381 14.9027 6.31935 14.9501 6.2 14.9501Z" fill="black"/>
</svg>
