<svg width="24" height="24" viewBox="0 0 24 24" fill="none" xmlns="http://www.w3.org/2000/svg">
<path d="M4 8.3333C3.46957 8.3333 2.96086 8.54401 2.58579 8.91909C2.21071 9.29416 2 9.80287 2 10.3333V18C2 18.5304 2.21071 19.0391 2.58579 19.4142C2.96086 19.7893 3.46957 20 4 20H16C16.5304 20 17.0391 19.7893 17.4142 19.4142C17.7893 19.0391 18 18.5304 18 18H4V8.3333ZM20 4.3333H18.1133L16.7273 2H11.2727L9.8867 4.3333H8C7.46957 4.3333 6.96086 4.54401 6.58579 4.91909C6.21071 5.29416 6 5.80287 6 6.3333V14C6 14.5304 6.21071 15.0391 6.58579 15.4142C6.96086 15.7893 7.46957 16 8 16H20C20.5304 16 21.0391 15.7893 21.4142 15.4142C21.7893 15.0391 22 14.5304 22 14V6.3333C22 5.80287 21.7893 5.29416 21.4142 4.91909C21.0391 4.54401 20.5304 4.3333 20 4.3333ZM20 14H8V6.3333H11.0249L11.6062 5.3547L12.4109 4H15.5891L16.3938 5.3547L16.9751 6.3333H20V14ZM14 7.1562C13.5055 7.1562 13.0222 7.30282 12.6111 7.57753C12.2 7.85223 11.8795 8.24268 11.6903 8.69949C11.5011 9.15631 11.4516 9.65897 11.548 10.1439C11.6445 10.6289 11.8826 11.0743 12.2322 11.424C12.5819 11.7736 13.0273 12.0117 13.5123 12.1082C13.9972 12.2046 14.4999 12.1551 14.9567 11.9659C15.4135 11.7767 15.804 11.4562 16.0787 11.0451C16.3534 10.634 16.5 10.1507 16.5 9.6562C16.5 8.99316 16.2366 8.35727 15.7678 7.88843C15.2989 7.41959 14.663 7.1562 14 7.1562Z" fill="black"/>
</svg>
