<svg width="24" height="24" viewBox="0 0 24 24" fill="none" xmlns="http://www.w3.org/2000/svg">
<path d="M3.30102 18.3419L1.89532 19.7477L4.25232 22.1047L5.65812 20.6989L9.28942 20.6031L3.39692 14.7106L3.30102 18.3419ZM19.7477 1.89526L18.3419 3.30106L14.7106 3.39686L20.6031 9.28936L20.699 5.65806L22.1047 4.25226L19.7477 1.89526ZM5.55002 12.2V12.7C6.3052 12.6997 7.05302 12.8482 7.75077 13.1371C8.44851 13.426 9.08249 13.8495 9.61648 14.3835C10.1505 14.9175 10.574 15.5515 10.8629 16.2492C11.1517 16.947 11.3003 17.6948 11.3 18.45H11.8C11.8003 17.6291 11.6389 16.8163 11.3249 16.0578C11.0109 15.2994 10.5505 14.6103 9.97009 14.0299C9.38966 13.4495 8.70055 12.9891 7.94214 12.6751C7.18372 12.3611 6.37087 12.1997 5.55002 12.2ZM12.7 5.54996H12.2C12.1997 6.37081 12.3612 7.18366 12.6752 7.94208C12.9892 8.70049 13.4495 9.3896 14.03 9.97003C14.6104 10.5504 15.2995 11.0108 16.0579 11.3248C16.8163 11.6388 17.6292 11.8003 18.45 11.8V11.3C17.6949 11.3002 16.947 11.1517 16.2493 10.8628C15.5515 10.5739 14.9176 10.1504 14.3836 9.61641C13.8496 9.08243 13.4261 8.44844 13.1372 7.7507C12.8483 7.05296 12.6998 6.30514 12.7 5.54996Z" fill="black"/>
</svg>
