<svg width="24" height="24" viewBox="0 0 24 24" fill="none" xmlns="http://www.w3.org/2000/svg">
<path d="M3 3V21H21V3H3ZM20 20H4V12.5H20V20ZM20 11.5H4V4H20V11.5ZM17 8.45C17.1384 8.45 17.2738 8.40895 17.3889 8.33203C17.504 8.25511 17.5937 8.14579 17.6467 8.01788C17.6997 7.88997 17.7136 7.74922 17.6866 7.61344C17.6595 7.47765 17.5929 7.35292 17.495 7.25503C17.3971 7.15713 17.2723 7.09046 17.1366 7.06345C17.0008 7.03644 16.86 7.0503 16.7321 7.10328C16.6042 7.15627 16.4949 7.24599 16.418 7.3611C16.3411 7.47621 16.3 7.61155 16.3 7.75C16.3 7.93565 16.3738 8.1137 16.505 8.24498C16.6363 8.37625 16.8143 8.45 17 8.45ZM14 8.45C14.1384 8.45 14.2738 8.40895 14.3889 8.33203C14.504 8.25511 14.5937 8.14579 14.6467 8.01788C14.6997 7.88997 14.7136 7.74922 14.6866 7.61344C14.6595 7.47765 14.5929 7.35292 14.495 7.25503C14.3971 7.15713 14.2724 7.09046 14.1366 7.06345C14.0008 7.03644 13.86 7.0503 13.7321 7.10328C13.6042 7.15627 13.4949 7.24599 13.418 7.3611C13.3411 7.47621 13.3 7.61155 13.3 7.75C13.3 7.93565 13.3737 8.1137 13.505 8.24498C13.6363 8.37625 13.8143 8.45 14 8.45ZM17 16.95C17.1384 16.95 17.2738 16.9089 17.3889 16.832C17.504 16.7551 17.5937 16.6458 17.6467 16.5179C17.6997 16.39 17.7136 16.2492 17.6866 16.1134C17.6595 15.9777 17.5929 15.8529 17.495 15.755C17.3971 15.6571 17.2723 15.5905 17.1366 15.5634C17.0008 15.5364 16.86 15.5503 16.7321 15.6033C16.6042 15.6563 16.4949 15.746 16.418 15.8611C16.3411 15.9762 16.3 16.1116 16.3 16.25C16.3 16.4357 16.3738 16.6137 16.505 16.745C16.6363 16.8762 16.8143 16.95 17 16.95ZM14 16.95C14.1384 16.95 14.2738 16.9089 14.3889 16.832C14.504 16.7551 14.5937 16.6458 14.6467 16.5179C14.6997 16.39 14.7136 16.2492 14.6866 16.1134C14.6595 15.9777 14.5929 15.8529 14.495 15.755C14.3971 15.6571 14.2724 15.5905 14.1366 15.5634C14.0008 15.5364 13.86 15.5503 13.7321 15.6033C13.6042 15.6563 13.4949 15.746 13.418 15.8611C13.3411 15.9762 13.3 16.1116 13.3 16.25C13.3 16.4357 13.3737 16.6137 13.505 16.745C13.6363 16.8762 13.8143 16.95 14 16.95Z" fill="black"/>
</svg>
