<svg width="24" height="24" viewBox="0 0 24 24" fill="none" xmlns="http://www.w3.org/2000/svg">
<path d="M8 3.75C8 3.6837 7.97366 3.62011 7.92678 3.57322C7.87989 3.52634 7.8163 3.5 7.75 3.5H5.25C5.1837 3.5 5.12011 3.52634 5.07322 3.57322C5.02634 3.62011 5 3.6837 5 3.75V4H8V3.75ZM19.5 5H4.5C3.83696 5 3.20107 5.26339 2.73223 5.73223C2.26339 6.20107 2 6.83696 2 7.5V16.5C2 17.163 2.26339 17.7989 2.73223 18.2678C3.20107 18.7366 3.83696 19 4.5 19H19.5C20.163 19 20.7989 18.7366 21.2678 18.2678C21.7366 17.7989 22 17.163 22 16.5V7.5C22 6.83696 21.7366 6.20107 21.2678 5.73223C20.7989 5.26339 20.163 5 19.5 5ZM13.6875 15.5C12.9953 15.5 12.3186 15.2947 11.743 14.9101C11.1674 14.5256 10.7188 13.9789 10.4539 13.3394C10.189 12.6999 10.1197 11.9961 10.2548 11.3172C10.3898 10.6382 10.7231 10.0146 11.2126 9.52513C11.7021 9.03564 12.3258 8.7023 13.0047 8.56725C13.6836 8.4322 14.3874 8.50151 15.0269 8.76642C15.6664 9.03133 16.2131 9.47993 16.5976 10.0555C16.9822 10.6311 17.1875 11.3078 17.1875 12C17.1866 12.928 16.8175 13.8177 16.1614 14.4739C15.5052 15.13 14.6155 15.4991 13.6875 15.5Z" fill="black"/>
</svg>
