<svg width="24" height="24" viewBox="0 0 24 24" fill="none" xmlns="http://www.w3.org/2000/svg">
<path d="M18 4H6C5.34339 4 4.69321 4.12933 4.08658 4.3806C3.47995 4.63188 2.92876 5.00017 2.46447 5.46447C1.52678 6.40215 1 7.67392 1 9V18.1346C0.99997 18.8228 1.24762 19.488 1.69766 20.0086C2.14771 20.5292 2.7701 20.8705 3.45105 20.97C4.13199 21.0695 4.82601 20.9206 5.40623 20.5506C5.98644 20.1805 6.41409 19.614 6.611 18.9546L7.4936 16H16.5064L17.389 18.9547C17.5859 19.6141 18.0136 20.1806 18.5938 20.5507C19.174 20.9207 19.868 21.0696 20.549 20.9701C21.2299 20.8706 21.8523 20.5293 22.3023 20.0087C22.7524 19.4881 23 18.8229 23 18.1347V9C23 8.34339 22.8707 7.69321 22.6194 7.08658C22.3681 6.47995 21.9998 5.92876 21.5355 5.46447C21.0712 5.00017 20.52 4.63188 19.9134 4.3806C19.3068 4.12933 18.6566 4 18 4ZM9.4167 10.4249H7.4249V12.4166H6.5749V10.4249H4.5833V9.5749H6.5751V7.5833H7.4251V9.5751H9.4167V10.4249ZM18.8021 11.8021C18.3852 12.219 17.8366 12.4785 17.2498 12.5363C16.663 12.5941 16.0743 12.4466 15.584 12.119C15.0938 11.7914 14.7323 11.304 14.5611 10.7397C14.39 10.1755 14.4198 9.56932 14.6454 9.02458C14.8711 8.47983 15.2786 8.03018 15.7986 7.75224C16.3187 7.4743 16.919 7.38527 17.4973 7.50032C18.0756 7.61536 18.5961 7.92737 18.9701 8.38317C19.3442 8.83897 19.5486 9.41037 19.5486 10C19.549 10.3347 19.4833 10.6663 19.3552 10.9755C19.2271 11.2848 19.0391 11.5657 18.8021 11.8021ZM17 8.2847C16.6032 8.2847 16.2186 8.4223 15.9118 8.67406C15.6051 8.92581 15.3951 9.27614 15.3177 9.66536C15.2402 10.0546 15.3002 10.4586 15.4872 10.8086C15.6743 11.1586 15.9769 11.4329 16.3436 11.5847C16.7102 11.7366 17.1182 11.7566 17.4979 11.6414C17.8777 11.5262 18.2057 11.2829 18.4262 10.953C18.6467 10.623 18.7459 10.2268 18.707 9.83187C18.6681 9.43694 18.4935 9.06771 18.2129 8.7871C18.054 8.62732 17.865 8.50064 17.6568 8.4144C17.4486 8.32817 17.2253 8.28408 17 8.2847Z" fill="black"/>
</svg>
