<svg width="24" height="24" viewBox="0 0 24 24" fill="none" xmlns="http://www.w3.org/2000/svg">
<path d="M21 5.99997H3C2.46979 6.00069 1.96149 6.21163 1.58658 6.58655C1.21166 6.96147 1.00071 7.46976 1 7.99997V20C1.00071 20.5302 1.21166 21.0385 1.58658 21.4134C1.96149 21.7883 2.46979 21.9993 3 22H21C21.5302 21.9993 22.0385 21.7883 22.4134 21.4134C22.7883 21.0385 22.9993 20.5302 23 20V7.99997C22.9993 7.46976 22.7883 6.96147 22.4134 6.58655C22.0385 6.21163 21.5302 6.00069 21 5.99997ZM11 8.99997H13V11H11V8.99997ZM11 13H13V15H11V13ZM7 8.99997H9V11H7V8.99997ZM7 13H9V15H7V13ZM5 19H3V17H5V19ZM5 15H3V13H5V15ZM5 11H3V8.99997H5V11ZM17 19H7V17H17V19ZM17 15H15V13H17V15ZM17 11H15V8.99997H17V11ZM21 19H19V17H21V19ZM21 15H19V13H21V15ZM21 11H19V8.99997H21V11ZM12 2.62107C12.6568 2.61924 13.3075 2.74771 13.9143 2.99906C14.5211 3.25041 15.0721 3.61964 15.5352 4.08537L16.9492 2.67237C16.2995 2.02208 15.5279 1.5062 14.6787 1.15423C13.8295 0.802256 12.9193 0.621094 12 0.621094C11.0807 0.621094 10.1705 0.802256 9.32127 1.15423C8.47206 1.5062 7.70054 2.02208 7.0508 2.67237L8.4648 4.08537C8.92795 3.61964 9.47888 3.25041 10.0857 2.99906C10.6925 2.74771 11.3432 2.61924 12 2.62107Z" fill="black"/>
</svg>
