<svg width="24" height="24" viewBox="0 0 24 24" fill="none" xmlns="http://www.w3.org/2000/svg">
<path d="M20.5 3H3.5C2.83696 3 2.20107 3.26339 1.73223 3.73223C1.26339 4.20107 1 4.83696 1 5.5V16.5C1 17.163 1.26339 17.7989 1.73223 18.2678C2.20107 18.7366 2.83696 19 3.5 19H20.5C21.163 19 21.7989 18.7366 22.2678 18.2678C22.7366 17.7989 23 17.163 23 16.5V5.5C23 4.83696 22.7366 4.20107 22.2678 3.73223C21.7989 3.26339 21.163 3 20.5 3ZM22.5 16.5C22.4994 17.0302 22.2885 17.5386 21.9135 17.9135C21.5386 18.2885 21.0302 18.4994 20.5 18.5H3.5C2.96975 18.4994 2.4614 18.2885 2.08646 17.9135C1.71152 17.5386 1.50061 17.0302 1.5 16.5V5.5C1.50061 4.96975 1.71152 4.4614 2.08646 4.08646C2.4614 3.71152 2.96975 3.50061 3.5 3.5H20.5C21.0302 3.50061 21.5386 3.71152 21.9135 4.08646C22.2885 4.4614 22.4994 4.96975 22.5 5.5V16.5ZM4 16H7V13.5H4V16ZM4.5 14H6.5V15.5H4.5V14ZM17 16H20V13.5H17V16ZM17.5 14H19.5V15.5H17.5V14ZM8.3334 16H15.6667V13.5H8.3334V16ZM8.8334 14H15.1667V15.5H8.8334V14ZM4 12.25H7V9.75H4V12.25ZM4.5 10.25H6.5V11.75H4.5V10.25ZM17 12.25H20V9.75H17V12.25ZM17.5 10.25H19.5V11.75H17.5V10.25ZM11.3334 9.75H8.3334V12.25H11.3334V9.75ZM10.8334 11.75H8.8334V10.25H10.8334V11.75ZM12.6667 12.25H15.6667V9.75H12.6667V12.25ZM13.1667 10.25H15.1667V11.75H13.1667V10.25ZM4 8.5H7V6H4V8.5ZM4.5 6.5H6.5V8H4.5V6.5ZM17 8.5H20V6H17V8.5ZM17.5 6.5H19.5V8H17.5V6.5ZM11.3334 6H8.3334V8.5H11.3334V6ZM10.8334 8H8.8334V6.5H10.8334V8ZM12.6667 8.5H15.6667V6H12.6667V8.5ZM13.1667 6.5H15.1667V8H13.1667V6.5ZM12 23.2922L9.9217 21.2139L9.5678 21.5679L12 24L14.4322 21.5679L14.0783 21.2139L12 23.2922Z" fill="black"/>
</svg>
