<svg width="24" height="24" viewBox="0 0 24 24" fill="none" xmlns="http://www.w3.org/2000/svg">
<path d="M15.5 2H8.5C7.83696 2 7.20107 2.26339 6.73223 2.73223C6.26339 3.20107 6 3.83696 6 4.5V19.5C6 20.163 6.26339 20.7989 6.73223 21.2678C7.20107 21.7366 7.83696 22 8.5 22H15.5C16.163 22 16.7989 21.7366 17.2678 21.2678C17.7366 20.7989 18 20.163 18 19.5V4.5C18 3.83696 17.7366 3.20107 17.2678 2.73223C16.7989 2.26339 16.163 2 15.5 2ZM17.5 19.5C17.4994 20.0302 17.2885 20.5386 16.9135 20.9135C16.5386 21.2885 16.0302 21.4994 15.5 21.5H8.5C7.96975 21.4994 7.4614 21.2885 7.08646 20.9135C6.71152 20.5386 6.50061 20.0302 6.5 19.5V4.5C6.50061 3.96975 6.71152 3.4614 7.08646 3.08646C7.4614 2.71152 7.96975 2.50061 8.5 2.5H15.5C16.0302 2.50061 16.5386 2.71152 16.9135 3.08646C17.2885 3.4614 17.4994 3.96975 17.5 4.5V19.5ZM12 5C11.9209 5 11.8436 5.02346 11.7778 5.06741C11.712 5.11136 11.6607 5.17384 11.6304 5.24693C11.6002 5.32002 11.5923 5.40044 11.6077 5.47804C11.6231 5.55563 11.6612 5.6269 11.7172 5.68284C11.7731 5.73878 11.8444 5.77688 11.922 5.79231C11.9996 5.80775 12.08 5.79983 12.1531 5.76955C12.2262 5.73928 12.2886 5.68801 12.3326 5.62223C12.3765 5.55645 12.4 5.47911 12.4 5.4C12.4 5.29391 12.3579 5.19217 12.2828 5.11716C12.2078 5.04214 12.1061 5 12 5Z" fill="black"/>
</svg>
