<svg width="24" height="24" viewBox="0 0 24 24" fill="none" xmlns="http://www.w3.org/2000/svg">
<path d="M15.5 2H8.5C7.83696 2 7.20107 2.26339 6.73223 2.73223C6.26339 3.20107 6 3.83696 6 4.5V19.5C6 20.163 6.26339 20.7989 6.73223 21.2678C7.20107 21.7366 7.83696 22 8.5 22H15.5C16.163 22 16.7989 21.7366 17.2678 21.2678C17.7366 20.7989 18 20.163 18 19.5V4.5C18 3.83696 17.7366 3.20107 17.2678 2.73223C16.7989 2.26339 16.163 2 15.5 2ZM17 19.5C16.9995 19.8977 16.8414 20.279 16.5602 20.5602C16.279 20.8414 15.8977 20.9995 15.5 21H8.5C8.10231 20.9995 7.72104 20.8414 7.43984 20.5602C7.15863 20.279 7.00045 19.8977 7 19.5V4.5C7.00045 4.10231 7.15863 3.72104 7.43984 3.43984C7.72104 3.15863 8.10231 3.00045 8.5 3H15.5C15.8977 3.00045 16.279 3.15863 16.5602 3.43984C16.8414 3.72104 16.9995 4.10231 17 4.5V19.5ZM12 5C11.8616 5 11.7262 5.04105 11.6111 5.11797C11.496 5.19489 11.4063 5.30421 11.3533 5.43212C11.3003 5.56003 11.2864 5.70078 11.3134 5.83656C11.3405 5.97235 11.4071 6.09708 11.505 6.19497C11.6029 6.29287 11.7277 6.35954 11.8634 6.38655C11.9992 6.41356 12.14 6.3997 12.2679 6.34672C12.3958 6.29373 12.5051 6.20401 12.582 6.0889C12.6589 5.97378 12.7 5.83845 12.7 5.7C12.7 5.51435 12.6263 5.3363 12.495 5.20503C12.3637 5.07375 12.1857 5 12 5Z" fill="black"/>
</svg>
