<svg width="24" height="24" viewBox="0 0 24 24" fill="none" xmlns="http://www.w3.org/2000/svg">
<path d="M7.2774 14C7.09767 14.3027 7.00191 14.6479 7 15V20C7 20.5304 7.21071 21.0391 7.58579 21.4142C7.96086 21.7893 8.46957 22 9 22H15C15.5304 22 16.0391 21.7893 16.4142 21.4142C16.7893 21.0391 17 20.5304 17 20V15C16.9981 14.6479 16.9023 14.3027 16.7226 14H7.2774ZM10 20C9.80222 20 9.60888 19.9414 9.44443 19.8315C9.27998 19.7216 9.15181 19.5654 9.07612 19.3827C9.00043 19.2 8.98063 18.9989 9.01921 18.8049C9.0578 18.6109 9.15304 18.4327 9.29289 18.2929C9.43275 18.153 9.61093 18.0578 9.80491 18.0192C9.99889 17.9806 10.2 18.0004 10.3827 18.0761C10.5654 18.1518 10.7216 18.28 10.8315 18.4444C10.9414 18.6089 11 18.8022 11 19C11 19.2652 10.8946 19.5196 10.7071 19.7071C10.5196 19.8946 10.2652 20 10 20ZM10 17C9.80222 17 9.60888 16.9414 9.44443 16.8315C9.27998 16.7216 9.15181 16.5654 9.07612 16.3827C9.00043 16.2 8.98063 15.9989 9.01921 15.8049C9.0578 15.6109 9.15304 15.4327 9.29289 15.2929C9.43275 15.153 9.61093 15.0578 9.80491 15.0192C9.99889 14.9806 10.2 15.0004 10.3827 15.0761C10.5654 15.1518 10.7216 15.28 10.8315 15.4444C10.9414 15.6089 11 15.8022 11 16C11 16.2652 10.8946 16.5196 10.7071 16.7071C10.5196 16.8946 10.2652 17 10 17ZM14 20C13.8022 20 13.6089 19.9414 13.4444 19.8315C13.28 19.7216 13.1518 19.5654 13.0761 19.3827C13.0004 19.2 12.9806 18.9989 13.0192 18.8049C13.0578 18.6109 13.153 18.4327 13.2929 18.2929C13.4327 18.153 13.6109 18.0578 13.8049 18.0192C13.9989 17.9806 14.2 18.0004 14.3827 18.0761C14.5654 18.1518 14.7216 18.28 14.8315 18.4444C14.9414 18.6089 15 18.8022 15 19C15 19.2652 14.8946 19.5196 14.7071 19.7071C14.5196 19.8946 14.2652 20 14 20ZM14 17C13.8022 17 13.6089 16.9414 13.4444 16.8315C13.28 16.7216 13.1518 16.5654 13.0761 16.3827C13.0004 16.2 12.9806 15.9989 13.0192 15.8049C13.0578 15.6109 13.153 15.4327 13.2929 15.2929C13.4327 15.153 13.6109 15.0578 13.8049 15.0192C13.9989 14.9806 14.2 15.0004 14.3827 15.0761C14.5654 15.1518 14.7216 15.28 14.8315 15.4444C14.9414 15.6089 15 15.8022 15 16C15 16.2652 14.8946 16.5196 14.7071 16.7071C14.5196 16.8946 14.2652 17 14 17ZM16 2H8C7.46957 2 6.96086 2.21071 6.58579 2.58579C6.21071 2.96086 6 3.46957 6 4V11C6 11.5304 6.21071 12.0391 6.58579 12.4142C6.96086 12.7893 7.46957 13 8 13H16C16.5304 13 17.0391 12.7893 17.4142 12.4142C17.7893 12.0391 18 11.5304 18 11V4C18 3.46957 17.7893 2.96086 17.4142 2.58579C17.0391 2.21071 16.5304 2 16 2ZM17.5 11H6.5V4H17.5V11Z" fill="black"/>
</svg>
