<svg width="24" height="24" viewBox="0 0 24 24" fill="none" xmlns="http://www.w3.org/2000/svg">
<path d="M17 8C16.5373 7.99999 16.0889 8.16043 15.7312 8.45396C15.3735 8.7475 15.1287 9.15598 15.0384 9.60979C14.9481 10.0636 15.018 10.5347 15.2361 10.9428C15.4542 11.3508 15.8071 11.6707 16.2346 11.8478C16.6621 12.0248 17.1377 12.0482 17.5805 11.9139C18.0233 11.7796 18.4058 11.4959 18.6629 11.1112C18.92 10.7264 19.0357 10.2645 18.9903 9.80399C18.945 9.3435 18.7414 8.91299 18.4142 8.5858C18.2289 8.39949 18.0085 8.25178 17.7658 8.15122C17.523 8.05067 17.2628 7.99927 17 8ZM18 4H6C5.34339 4 4.69321 4.12933 4.08658 4.3806C3.47995 4.63188 2.92876 5.00017 2.46447 5.46447C1.52678 6.40215 1 7.67392 1 9V18.1346C0.99997 18.8228 1.24762 19.488 1.69766 20.0086C2.14771 20.5292 2.7701 20.8705 3.45105 20.97C4.13199 21.0695 4.82601 20.9206 5.40623 20.5506C5.98644 20.1805 6.41409 19.614 6.611 18.9546L7.4936 16H16.5064L17.389 18.9547C17.5859 19.6141 18.0136 20.1806 18.5938 20.5507C19.174 20.9207 19.868 21.0696 20.549 20.9701C21.2299 20.8706 21.8523 20.5293 22.3023 20.0087C22.7524 19.4881 23 18.8229 23 18.1347V9C23 8.34339 22.8707 7.69321 22.6194 7.08658C22.3681 6.47995 21.9998 5.92876 21.5355 5.46447C21.0712 5.00017 20.52 4.63188 19.9134 4.3806C19.3068 4.12933 18.6566 4 18 4ZM9.375 10.2375H7.2375V12.375H6.7625V10.2375H4.625V9.7625H6.7625V7.625H7.2375V9.7625H9.375V10.2375ZM18.7678 11.7675C18.3588 12.1765 17.8207 12.431 17.2451 12.4877C16.6694 12.5444 16.092 12.3998 15.6111 12.0784C15.1301 11.7571 14.7755 11.2789 14.6076 10.7254C14.4397 10.1719 14.469 9.57733 14.6903 9.04297C14.9117 8.50861 15.3115 8.06753 15.8216 7.7949C16.3317 7.52227 16.9206 7.43496 17.4879 7.54783C18.0552 7.66071 18.5658 7.9668 18.9327 8.41394C19.2995 8.86108 19.5001 9.4216 19.5 10C19.5004 10.3284 19.436 10.6536 19.3103 10.957C19.1847 11.2603 19.0003 11.5359 18.7678 11.7678V11.7675Z" fill="black"/>
</svg>
