<svg width="24" height="24" viewBox="0 0 24 24" fill="none" xmlns="http://www.w3.org/2000/svg">
<path d="M16 19H4C3.73487 18.9997 3.48069 18.8943 3.29321 18.7068C3.10574 18.5193 3.00029 18.2651 3 18V10.3333C3.00029 10.0682 3.10574 9.81399 3.29321 9.62651C3.48069 9.43904 3.73487 9.33359 4 9.3333V8.3333C3.46957 8.3333 2.96086 8.54401 2.58579 8.91909C2.21071 9.29416 2 9.80287 2 10.3333V18C2 18.5304 2.21071 19.0391 2.58579 19.4142C2.96086 19.7893 3.46957 20 4 20H16C16.5304 20 17.0391 19.7893 17.4142 19.4142C17.7893 19.0391 18 18.5304 18 18H17C16.9997 18.2651 16.8943 18.5193 16.7068 18.7068C16.5193 18.8943 16.2651 18.9997 16 19ZM20 4.3333H18.1133L16.7273 2H11.2727L9.8867 4.3333H8C7.46957 4.3333 6.96086 4.54401 6.58579 4.91909C6.21071 5.29416 6 5.80287 6 6.3333V14C6 14.5304 6.21071 15.0391 6.58579 15.4142C6.96086 15.7893 7.46957 16 8 16H20C20.5304 16 21.0391 15.7893 21.4142 15.4142C21.7893 15.0391 22 14.5304 22 14V6.3333C22 5.80287 21.7893 5.29416 21.4142 4.91909C21.0391 4.54401 20.5304 4.3333 20 4.3333ZM21 14C20.9997 14.2651 20.8943 14.5193 20.7068 14.7068C20.5193 14.8943 20.2651 14.9997 20 15H8C7.73487 14.9997 7.48069 14.8943 7.29321 14.7068C7.10574 14.5193 7.00029 14.2651 7 14V6.3333C7.00029 6.06817 7.10574 5.81399 7.29321 5.62651C7.48069 5.43904 7.73487 5.33359 8 5.3333H10.4558L10.7465 4.844L11.8418 3H16.1582L17.2535 4.844L17.5442 5.3333H20C20.2651 5.33359 20.5193 5.43904 20.7068 5.62651C20.8943 5.81399 20.9997 6.06817 21 6.3333V14ZM14 6.6562C13.4067 6.6562 12.8266 6.83215 12.3333 7.16179C11.8399 7.49144 11.4554 7.95997 11.2284 8.50815C11.0013 9.05633 10.9419 9.65953 11.0576 10.2415C11.1734 10.8234 11.4591 11.358 11.8787 11.7775C12.2982 12.1971 12.8328 12.4828 13.4147 12.5986C13.9967 12.7143 14.5999 12.6549 15.1481 12.4278C15.6962 12.2008 16.1648 11.8163 16.4944 11.3229C16.8241 10.8296 17 10.2495 17 9.6562C17 8.86055 16.6839 8.09749 16.1213 7.53488C15.5587 6.97227 14.7956 6.6562 14 6.6562ZM14 11.6562C13.6044 11.6562 13.2178 11.5389 12.8889 11.3191C12.56 11.0994 12.3036 10.787 12.1522 10.4216C12.0009 10.0561 11.9613 9.65398 12.0384 9.26602C12.1156 8.87806 12.3061 8.52169 12.5858 8.24199C12.8655 7.96228 13.2219 7.7718 13.6098 7.69463C13.9978 7.61746 14.3999 7.65707 14.7654 7.80844C15.1308 7.95982 15.4432 8.21616 15.6629 8.54506C15.8827 8.87396 16 9.26064 16 9.6562C15.9994 10.1864 15.7885 10.6948 15.4135 11.0697C15.0386 11.4447 14.5302 11.6556 14 11.6562Z" fill="black"/>
</svg>
