<svg width="24" height="24" viewBox="0 0 24 24" fill="none" xmlns="http://www.w3.org/2000/svg">
<path d="M12 9C11.7348 9 11.4804 9.10536 11.2929 9.29289C11.1054 9.48043 11 9.73478 11 10V12C11 12.2652 11.1054 12.5196 11.2929 12.7071C11.4804 12.8946 11.7348 13 12 13C12.2652 13 12.5196 12.8946 12.7071 12.7071C12.8946 12.5196 13 12.2652 13 12V10C13 9.73478 12.8946 9.48043 12.7071 9.29289C12.5196 9.10536 12.2652 9 12 9ZM14 5H13V3.7505C13.0003 3.55162 13.0794 3.36096 13.2199 3.22028C13.3605 3.07961 13.5511 3.0004 13.75 3H17V1H13.75C13.0208 1.00085 12.3218 1.29092 11.8062 1.80657C11.2907 2.32222 11.0007 3.02133 11 3.7505V5H10C8.67392 5 7.40215 5.52678 6.46447 6.46447C5.52678 7.40215 5 8.67392 5 10V17C5 18.8565 5.7375 20.637 7.05025 21.9497C8.36301 23.2625 10.1435 24 12 24C13.8565 24 15.637 23.2625 16.9497 21.9497C18.2625 20.637 19 18.8565 19 17V10C19 8.67392 18.4732 7.40215 17.5355 6.46447C16.5979 5.52678 15.3261 5 14 5ZM17 17C17 18.3261 16.4732 19.5979 15.5355 20.5355C14.5979 21.4732 13.3261 22 12 22C10.6739 22 9.40215 21.4732 8.46447 20.5355C7.52678 19.5979 7 18.3261 7 17V10C7.0009 9.20463 7.31726 8.44209 7.87967 7.87967C8.44209 7.31726 9.20463 7.0009 10 7H14C14.7954 7.0009 15.5579 7.31726 16.1203 7.87967C16.6827 8.44209 16.9991 9.20463 17 10V17Z" fill="black"/>
</svg>
