<svg width="24" height="24" viewBox="0 0 24 24" fill="none" xmlns="http://www.w3.org/2000/svg">
<path d="M19.5 6H4.5C3.83696 6 3.20107 6.26339 2.73223 6.73223C2.26339 7.20107 2 7.83696 2 8.5V15.5C2 16.163 2.26339 16.7989 2.73223 17.2678C3.20107 17.7366 3.83696 18 4.5 18H19.5C20.163 18 20.7989 17.7366 21.2678 17.2678C21.7366 16.7989 22 16.163 22 15.5V8.5C22 7.83696 21.7366 7.20107 21.2678 6.73223C20.7989 6.26339 20.163 6 19.5 6ZM15 15H9V11H10V10C10 9.46957 10.2107 8.96086 10.5858 8.58579C10.9609 8.21071 11.4696 8 12 8C12.5304 8 13.0391 8.21071 13.4142 8.58579C13.7893 8.96086 14 9.46957 14 10V11H15V15ZM12 9.1C11.7614 9.10027 11.5326 9.19517 11.3639 9.3639C11.1952 9.53262 11.1003 9.76139 11.1 10V11H12.9V10C12.8997 9.76139 12.8048 9.53262 12.6361 9.3639C12.4674 9.19517 12.2386 9.10027 12 9.1Z" fill="black"/>
</svg>
