<svg width="24" height="24" viewBox="0 0 24 24" fill="none" xmlns="http://www.w3.org/2000/svg">
<path d="M12 20C10.2391 20.0014 8.5271 19.4212 7.12977 18.3497C5.73245 17.2782 4.72804 15.7753 4.27255 14.0744C3.81706 12.3734 3.93598 10.5697 4.61083 8.94327C5.28568 7.31685 6.4787 5.95879 8.00461 5.08L7.00391 3.3463C5.48421 4.22391 4.22232 5.4861 3.34507 7.006C2.46782 8.52591 2.00613 10.25 2.00641 12.0049C2.00669 13.7598 2.46893 15.4837 3.34666 17.0033C4.2244 18.5229 5.4867 19.7847 7.00667 20.6618C8.52665 21.5389 10.2507 22.0005 12.0056 22.0001C13.7605 21.9996 15.4844 21.5373 17.004 20.6594C18.5235 19.7815 19.7852 18.5191 20.6622 16.9991C21.5392 15.479 22.0006 13.7549 22 12H20C19.9976 14.121 19.154 16.1544 17.6542 17.6542C16.1544 19.154 14.121 19.9976 12 20ZM22.3367 5.8464L23.57 4.942C23.413 4.52476 23.1868 4.13699 22.9008 3.795L21.5063 4.4088L20.663 3.9219L20.4968 2.4C20.0589 2.3108 19.6076 2.3108 19.1697 2.4L19.0034 3.9217L18.1599 4.4086L16.7656 3.795C16.4797 4.13704 16.2534 4.52479 16.0962 4.942L17.3301 5.8464V6.82L16.0962 7.7243C16.2533 8.14157 16.4796 8.52937 16.7656 8.8714L18.16 8.2578L19.0035 8.7448L19.1698 10.2664C19.6077 10.3556 20.059 10.3556 20.4969 10.2664L20.6634 8.7448L21.5069 8.2578L22.9012 8.8716C23.187 8.52953 23.4131 8.14173 23.57 7.7245L22.3367 6.82V5.8464ZM19.8333 7.3333C19.6355 7.3333 19.4422 7.27465 19.2777 7.16477C19.1133 7.05489 18.9851 6.89871 18.9094 6.71598C18.8337 6.53326 18.8139 6.33219 18.8525 6.13821C18.8911 5.94423 18.9863 5.76605 19.1262 5.62619C19.2661 5.48634 19.4442 5.3911 19.6382 5.35251C19.8322 5.31393 20.0333 5.33373 20.216 5.40942C20.3987 5.48511 20.5549 5.61328 20.6648 5.77773C20.7747 5.94218 20.8333 6.13552 20.8333 6.3333C20.8333 6.59852 20.728 6.85287 20.5404 7.04041C20.3529 7.22794 20.0985 7.3333 19.8333 7.3333ZM13 2H11V12H13V2Z" fill="black"/>
</svg>
