<svg width="24" height="24" viewBox="0 0 24 24" fill="none" xmlns="http://www.w3.org/2000/svg">
<path d="M9 16H15C15.5304 16 16.0391 15.7893 16.4142 15.4142C16.7893 15.0391 17 14.5304 17 14V4C17 3.46957 16.7893 2.96086 16.4142 2.58579C16.0391 2.21071 15.5304 2 15 2H9C8.46957 2 7.96086 2.21071 7.58579 2.58579C7.21071 2.96086 7 3.46957 7 4V14C7 14.5304 7.21071 15.0391 7.58579 15.4142C7.96086 15.7893 8.46957 16 9 16ZM8 4C8.00029 3.73487 8.10574 3.48069 8.29321 3.29321C8.48069 3.10574 8.73487 3.00029 9 3H15C15.2651 3.00029 15.5193 3.10574 15.7068 3.29321C15.8943 3.48069 15.9997 3.73487 16 4V14C15.9997 14.2651 15.8943 14.5193 15.7068 14.7068C15.5193 14.8943 15.2651 14.9997 15 15H9C8.73487 14.9997 8.48069 14.8943 8.29321 14.7068C8.10574 14.5193 8.00029 14.2651 8 14V4ZM4 18V21H20V18H4ZM19 20H5V19H19V20Z" fill="black"/>
</svg>
