<svg width="24" height="24" viewBox="0 0 24 24" fill="none" xmlns="http://www.w3.org/2000/svg">
<path d="M6.7 15.6899C6.88789 15.6899 7.07157 15.6342 7.22779 15.5298C7.38402 15.4254 7.50578 15.2771 7.57769 15.1035C7.64959 14.9299 7.6684 14.7389 7.63175 14.5546C7.59509 14.3703 7.50461 14.201 7.37175 14.0682C7.23889 13.9353 7.06962 13.8448 6.88534 13.8082C6.70105 13.7715 6.51004 13.7903 6.33645 13.8622C6.16286 13.9341 6.01449 14.0559 5.9101 14.2121C5.80572 14.3683 5.75 14.552 5.75 14.7399C5.75 14.9919 5.85009 15.2335 6.02825 15.4117C6.20641 15.5898 6.44804 15.6899 6.7 15.6899ZM5.9507 9.99991L21.3065 4.56791L20.7939 3.15991L2 9.99991V17.9999C2 18.5303 2.21071 19.0391 2.58579 19.4141C2.96086 19.7892 3.46957 19.9999 4 19.9999H20C20.5304 19.9999 21.0391 19.7892 21.4142 19.4141C21.7893 19.0391 22 18.5303 22 17.9999V9.99991H5.9507ZM20.5 17.9999C20.4998 18.1325 20.4471 18.2596 20.3534 18.3533C20.2596 18.447 20.1326 18.4998 20 18.4999H4C3.86744 18.4998 3.74036 18.447 3.64662 18.3533C3.55289 18.2596 3.50016 18.1325 3.5 17.9999V11.4999H20.5V17.9999Z" fill="black"/>
</svg>
