<svg width="24" height="24" viewBox="0 0 24 24" fill="none" xmlns="http://www.w3.org/2000/svg">
<path d="M3 3V21H21V3H3ZM7.2056 13.35C6.9386 13.35 6.6776 13.2708 6.45561 13.1224C6.23361 12.9741 6.0606 12.7632 5.95843 12.5166C5.85627 12.2699 5.82955 11.9984 5.88165 11.7366C5.93375 11.4747 6.06234 11.2342 6.25114 11.0454C6.43995 10.8566 6.68049 10.728 6.94236 10.6759C7.20424 10.6239 7.47567 10.6506 7.72235 10.7528C7.96902 10.855 8.17986 11.028 8.32819 11.25C8.47653 11.472 8.5557 11.733 8.5557 12C8.5557 12.1773 8.52078 12.3528 8.45293 12.5166C8.38508 12.6804 8.28563 12.8293 8.16026 12.9546C8.03489 13.08 7.88605 13.1794 7.72225 13.2473C7.55845 13.3151 7.38289 13.35 7.2056 13.35ZM12 10.35C11.733 10.35 11.472 10.2708 11.25 10.1225C11.028 9.97414 10.8549 9.7633 10.7528 9.51662C10.6506 9.26994 10.6238 8.9985 10.6759 8.73663C10.728 8.47475 10.8566 8.23421 11.0454 8.04541C11.2342 7.8566 11.4748 7.72803 11.7366 7.67594C11.9985 7.62385 12.2699 7.65058 12.5166 7.75276C12.7633 7.85494 12.9741 8.02797 13.1225 8.24998C13.2708 8.47199 13.35 8.733 13.35 9C13.35 9.35804 13.2078 9.70142 12.9546 9.95459C12.7014 10.2078 12.358 10.35 12 10.35ZM16.7944 13.35C16.5274 13.35 16.2664 13.2708 16.0444 13.1225C15.8224 12.9741 15.6493 12.7633 15.5472 12.5166C15.445 12.2699 15.4183 11.9985 15.4703 11.7366C15.5224 11.4748 15.651 11.2342 15.8398 11.0454C16.0286 10.8566 16.2692 10.728 16.531 10.6759C16.7929 10.6238 17.0643 10.6506 17.311 10.7528C17.5577 10.8549 17.7685 11.028 17.9169 11.25C18.0652 11.472 18.1444 11.733 18.1444 12C18.1444 12.358 18.0022 12.7014 17.749 12.9546C17.4958 13.2078 17.1524 13.35 16.7944 13.35Z" fill="black"/>
</svg>
