<svg width="24" height="24" viewBox="0 0 24 24" fill="none" xmlns="http://www.w3.org/2000/svg">
<path d="M12 1C10.2334 0.999686 8.49282 1.42563 6.92601 2.24168C5.35919 3.05773 4.01241 4.23979 3 5.6875V18.3125C4.01264 19.76 5.35947 20.9419 6.92624 21.7579C8.493 22.5739 10.2335 23 12 23C13.7665 23 15.507 22.5739 17.0738 21.7579C18.6405 20.9419 19.9874 19.76 21 18.3125V5.6875C19.9876 4.23979 18.6408 3.05773 17.074 2.24168C15.5072 1.42563 13.7666 0.999686 12 1ZM19 17.645C18.1585 18.6922 17.0927 19.5373 15.8812 20.1179C14.6698 20.6986 13.3434 21 12 21C10.6566 21 9.33024 20.6986 8.11876 20.1179C6.90728 19.5373 5.84152 18.6922 5 17.645V6.355C5.84152 5.30777 6.90728 4.4627 8.11876 3.88206C9.33024 3.30141 10.6566 2.99998 12 2.99998C13.3434 2.99998 14.6698 3.30141 15.8812 3.88206C17.0927 4.4627 18.1585 5.30777 19 6.355V17.645ZM11 18H13V15H11V18ZM6.7322 10.3535L8.1465 11.7678L10.2678 9.6464L8.8535 8.2322L6.7322 10.3535ZM13.7322 9.6464L15.8535 11.7678L17.2678 10.3535L15.1465 8.2322L13.7322 9.6464Z" fill="black"/>
</svg>
