<svg width="24" height="24" viewBox="0 0 24 24" fill="none" xmlns="http://www.w3.org/2000/svg">
<path d="M12 2C10.0222 2 8.08879 2.58649 6.4443 3.6853C4.79981 4.78412 3.51809 6.3459 2.76121 8.17317C2.00433 10.0004 1.8063 12.0111 2.19215 13.9509C2.578 15.8907 3.53041 17.6725 4.92894 19.0711C6.32746 20.4696 8.10929 21.422 10.0491 21.8079C11.9889 22.1937 13.9996 21.9957 15.8268 21.2388C17.6541 20.4819 19.2159 19.2002 20.3147 17.5557C21.4135 15.9112 22 13.9778 22 12C22 10.6868 21.7413 9.38642 21.2388 8.17317C20.7363 6.95991 19.9997 5.85752 19.0711 4.92893C18.1425 4.00035 17.0401 3.26375 15.8268 2.7612C14.6136 2.25866 13.3132 2 12 2ZM12 20.5C10.3189 20.5 8.67548 20.0015 7.27766 19.0675C5.87984 18.1335 4.79037 16.806 4.14703 15.2528C3.50368 13.6996 3.33536 11.9906 3.66333 10.3417C3.9913 8.69289 4.80085 7.17834 5.9896 5.98959C7.17834 4.80085 8.6929 3.9913 10.3417 3.66333C11.9906 3.33535 13.6996 3.50368 15.2528 4.14702C16.806 4.79037 18.1335 5.87984 19.0675 7.27765C20.0015 8.67547 20.5 10.3189 20.5 12C20.4974 14.2535 19.601 16.414 18.0075 18.0075C16.414 19.601 14.2535 20.4974 12 20.5ZM15.6445 10.85C15.4171 10.85 15.1947 10.9174 15.0056 11.0438C14.8165 11.1702 14.6691 11.3498 14.582 11.5599C14.495 11.77 14.4722 12.0013 14.5166 12.2244C14.561 12.4474 14.6705 12.6523 14.8313 12.8132C14.9922 12.974 15.1971 13.0835 15.4202 13.1279C15.6432 13.1723 15.8745 13.1495 16.0846 13.0625C16.2947 12.9754 16.4743 12.828 16.6007 12.6389C16.7271 12.4498 16.7945 12.2274 16.7945 12C16.7945 11.695 16.6733 11.4025 16.4577 11.1868C16.242 10.9712 15.9495 10.85 15.6445 10.85ZM8.3555 10.85C8.12806 10.85 7.90573 10.9175 7.71663 11.0439C7.52752 11.1702 7.38014 11.3498 7.29311 11.56C7.20609 11.7701 7.18333 12.0013 7.22771 12.2244C7.2721 12.4475 7.38163 12.6524 7.54247 12.8132C7.7033 12.974 7.90821 13.0835 8.13129 13.1279C8.35436 13.1723 8.58558 13.1495 8.79571 13.0625C9.00584 12.9754 9.18544 12.828 9.3118 12.6389C9.43816 12.4498 9.5056 12.2274 9.5056 12C9.5056 11.849 9.47586 11.6994 9.41806 11.5599C9.36026 11.4204 9.27554 11.2936 9.16874 11.1868C9.06194 11.08 8.93516 10.9953 8.79562 10.9375C8.65609 10.8797 8.50653 10.85 8.3555 10.85ZM12 5.5874C11.5495 5.5874 11.1091 5.72099 10.7345 5.97128C10.3599 6.22157 10.068 6.57731 9.89559 6.99352C9.72319 7.40974 9.67808 7.86773 9.76597 8.30958C9.85386 8.75143 10.0708 9.15729 10.3894 9.47585C10.7079 9.7944 11.1138 10.0113 11.5556 10.0992C11.9975 10.1871 12.4555 10.142 12.8717 9.96961C13.2879 9.79721 13.6436 9.50526 13.8939 9.13068C14.1442 8.7561 14.2778 8.31571 14.2778 7.8652C14.2778 7.56607 14.2189 7.26987 14.1044 6.99351C13.99 6.71715 13.8222 6.46604 13.6107 6.25452C13.3992 6.04301 13.1481 5.87523 12.8717 5.76076C12.5953 5.64629 12.2991 5.58739 12 5.5874ZM12 8.9763C11.7802 8.9763 11.5654 8.91114 11.3827 8.78905C11.2 8.66696 11.0576 8.49343 10.9735 8.2904C10.8894 8.08737 10.8674 7.86397 10.9103 7.64844C10.9531 7.4329 11.0589 7.23492 11.2143 7.07953C11.3697 6.92414 11.5677 6.81832 11.7832 6.77545C11.9988 6.73258 12.2222 6.75458 12.4252 6.83868C12.6282 6.92277 12.8018 7.06519 12.9239 7.24791C13.0459 7.43062 13.1111 7.64545 13.1111 7.8652C13.1108 8.15978 12.9936 8.44221 12.7853 8.65052C12.577 8.85882 12.2946 8.97598 12 8.9763Z" fill="black"/>
</svg>
