<svg width="24" height="24" viewBox="0 0 24 24" fill="none" xmlns="http://www.w3.org/2000/svg">
<path d="M7.2375 7.625H6.7625V9.7625H4.625V10.2375H6.7625V12.375H7.2375V10.2375H9.375V9.7625H7.2375V7.625ZM17 7.5C16.4216 7.50002 15.8611 7.70058 15.414 8.06751C14.9669 8.43445 14.6609 8.94506 14.5481 9.51233C14.4353 10.0796 14.5226 10.6685 14.7953 11.1785C15.068 11.6886 15.509 12.0884 16.0434 12.3097C16.5778 12.531 17.1724 12.5602 17.7258 12.3923C18.2793 12.2244 18.7574 11.8698 19.0788 11.3889C19.4001 10.908 19.5447 10.3305 19.488 9.75491C19.4313 9.17931 19.1768 8.64117 18.7678 8.2322C18.5359 7.99971 18.2603 7.81534 17.957 7.68968C17.6536 7.56403 17.3284 7.49957 17 7.5ZM18.4142 11.4142C18.087 11.7414 17.6565 11.945 17.196 11.9903C16.7355 12.0357 16.2736 11.92 15.8888 11.6629C15.5041 11.4058 15.2204 11.0233 15.0861 10.5805C14.9518 10.1377 14.9752 9.66207 15.1522 9.23458C15.3293 8.8071 15.6492 8.45423 16.0572 8.23612C16.4653 8.018 16.9364 7.94813 17.3902 8.03841C17.844 8.12868 18.2525 8.37352 18.546 8.73121C18.8396 9.08889 19 9.53729 19 10C19.0007 10.2627 18.9493 10.523 18.8487 10.7658C18.7482 11.0085 18.6005 11.2289 18.4142 11.4142ZM18 4H6C5.34339 4 4.69321 4.12933 4.08658 4.3806C3.47995 4.63188 2.92876 5.00017 2.46447 5.46447C1.52678 6.40215 1 7.67392 1 9V18.1346C0.99997 18.8228 1.24762 19.488 1.69766 20.0086C2.14771 20.5292 2.7701 20.8705 3.45105 20.97C4.13199 21.0695 4.82601 20.9206 5.40623 20.5506C5.98644 20.1805 6.41409 19.614 6.611 18.9546L7.4936 16H16.5064L17.389 18.9547C17.5859 19.6141 18.0136 20.1806 18.5938 20.5507C19.174 20.9207 19.868 21.0696 20.549 20.9701C21.2299 20.8706 21.8523 20.5293 22.3023 20.0087C22.7524 19.4881 23 18.8229 23 18.1347V9C23 8.34339 22.8707 7.69321 22.6194 7.08658C22.3681 6.47995 21.9998 5.92876 21.5355 5.46447C21.0712 5.00017 20.52 4.63188 19.9134 4.3806C19.3068 4.12933 18.6566 4 18 4ZM22.5 18.1346C22.5 18.7027 22.2956 19.2518 21.9241 19.6816C21.5526 20.1114 21.0388 20.3931 20.4767 20.4753C19.9146 20.5575 19.3416 20.4346 18.8627 20.1291C18.3837 19.8236 18.0307 19.3559 17.8681 18.8116L16.9855 15.8569L16.8789 15.5H7.1211L7.0145 15.8569L6.1319 18.8116C5.96935 19.3559 5.61631 19.8236 5.13733 20.1291C4.65836 20.4346 4.08543 20.5575 3.52331 20.4753C2.96118 20.3931 2.4474 20.1114 2.07589 19.6816C1.70438 19.2518 1.49996 18.7027 1.5 18.1346V9C1.50135 7.80694 1.97589 6.66313 2.81951 5.81951C3.66313 4.97589 4.80694 4.50135 6 4.5H18C19.1931 4.50135 20.3369 4.97589 21.1805 5.81951C22.0241 6.66313 22.4986 7.80694 22.5 9V18.1346Z" fill="black"/>
</svg>
