<svg width="24" height="24" viewBox="0 0 24 24" fill="none" xmlns="http://www.w3.org/2000/svg">
<path d="M19.5 5.00005H4.5C3.83696 5.00005 3.20107 5.26344 2.73223 5.73228C2.26339 6.20112 2 6.83701 2 7.50005V16.5C2 17.1631 2.26339 17.799 2.73223 18.2678C3.20107 18.7367 3.83696 19 4.5 19H19.5C20.163 19 20.7989 18.7367 21.2678 18.2678C21.7366 17.799 22 17.1631 22 16.5V7.50005C22 6.83701 21.7366 6.20112 21.2678 5.73228C20.7989 5.26344 20.163 5.00005 19.5 5.00005ZM7 17H4.5C4.36739 17 4.24021 16.9474 4.14645 16.8536C4.05268 16.7598 4 16.6327 4 16.5V7.50005C4 7.36744 4.05268 7.24026 4.14645 7.1465C4.24021 7.05273 4.36739 7.00005 4.5 7.00005H7V17ZM20 16.5C20 16.6327 19.9473 16.7598 19.8536 16.8536C19.7598 16.9474 19.6326 17 19.5 17H9V7.00005H19.5C19.6326 7.00005 19.7598 7.05273 19.8536 7.1465C19.9473 7.24026 20 7.36744 20 7.50005V16.5ZM9 3.05005C9 2.85114 8.92098 2.66037 8.78033 2.51972C8.63968 2.37907 8.44891 2.30005 8.25 2.30005H5.75C5.55109 2.30005 5.36032 2.37907 5.21967 2.51972C5.07902 2.66037 5 2.85114 5 3.05005V4.00005H9V3.05005ZM14.5 8.50005C13.8078 8.50005 13.1311 8.70532 12.5555 9.0899C11.9799 9.47449 11.5313 10.0211 11.2664 10.6607C11.0015 11.3002 10.9322 12.0039 11.0673 12.6829C11.2023 13.3618 11.5356 13.9854 12.0251 14.4749C12.5146 14.9644 13.1383 15.2977 13.8172 15.4328C14.4961 15.5678 15.1999 15.4985 15.8394 15.2336C16.4789 14.9687 17.0256 14.5201 17.4101 13.9445C17.7947 13.369 18 12.6923 18 12C17.999 11.0721 17.63 10.1824 16.9738 9.52626C16.3176 8.87009 15.428 8.50103 14.5 8.50005ZM14.5 13.5C14.2033 13.5 13.9133 13.4121 13.6666 13.2473C13.42 13.0824 13.2277 12.8482 13.1142 12.5741C13.0006 12.3 12.9709 11.9984 13.0288 11.7074C13.0867 11.4164 13.2296 11.1492 13.4393 10.9394C13.6491 10.7296 13.9164 10.5867 14.2074 10.5289C14.4983 10.471 14.7999 10.5007 15.074 10.6142C15.3481 10.7278 15.5824 10.92 15.7472 11.1667C15.912 11.4134 16 11.7034 16 12C15.9995 12.3977 15.8414 12.779 15.5602 13.0602C15.279 13.3414 14.8977 13.4996 14.5 13.5Z" fill="black"/>
</svg>
