<svg width="24" height="24" viewBox="0 0 24 24" fill="none" xmlns="http://www.w3.org/2000/svg">
<path d="M6 6H4V22H16V20H6V6ZM8 2V18H20V2H8ZM14 4C14.2967 4 14.5867 4.08797 14.8334 4.2528C15.08 4.41762 15.2723 4.65189 15.3858 4.92597C15.4994 5.20006 15.5291 5.50166 15.4712 5.79264C15.4133 6.08361 15.2704 6.35088 15.0607 6.56066C14.8509 6.77044 14.5836 6.9133 14.2926 6.97118C14.0017 7.02906 13.7001 6.99935 13.426 6.88582C13.1519 6.77229 12.9176 6.58003 12.7528 6.33336C12.588 6.08668 12.5 5.79667 12.5 5.5C12.5 5.10218 12.658 4.72064 12.9393 4.43934C13.2206 4.15804 13.6022 4 14 4ZM14 15.75C13.3325 15.75 12.68 15.5521 12.125 15.1812C11.5699 14.8104 11.1374 14.2833 10.8819 13.6666C10.6265 13.0499 10.5596 12.3713 10.6898 11.7166C10.8201 11.0619 11.1415 10.4605 11.6135 9.98851C12.0855 9.51651 12.6869 9.19508 13.3416 9.06485C13.9963 8.93462 14.6749 9.00146 15.2916 9.25691C15.9083 9.51235 16.4354 9.94493 16.8062 10.5C17.1771 11.055 17.375 11.7075 17.375 12.375C17.375 13.2701 17.0194 14.1285 16.3865 14.7615C15.7536 15.3944 14.8951 15.75 14 15.75ZM14 11.125C13.7528 11.125 13.5111 11.1983 13.3055 11.3357C13.1 11.473 12.9398 11.6682 12.8452 11.8966C12.7505 12.1251 12.7258 12.3764 12.774 12.6189C12.8222 12.8613 12.9413 13.0841 13.1161 13.2589C13.2909 13.4337 13.5137 13.5528 13.7561 13.601C13.9986 13.6492 14.2499 13.6245 14.4784 13.5298C14.7068 13.4352 14.902 13.275 15.0393 13.0695C15.1767 12.8639 15.25 12.6222 15.25 12.375C15.25 12.0435 15.1183 11.7255 14.8839 11.4911C14.6495 11.2567 14.3315 11.125 14 11.125Z" fill="black"/>
</svg>
