<svg width="24" height="24" viewBox="0 0 24 24" fill="none" xmlns="http://www.w3.org/2000/svg">
<path d="M20 3H4C3.20435 3 2.44129 3.31607 1.87868 3.87868C1.31607 4.44129 1 5.20435 1 6V16C1 16.7956 1.31607 17.5587 1.87868 18.1213C2.44129 18.6839 3.20435 19 4 19H20C20.7956 19 21.5587 18.6839 22.1213 18.1213C22.6839 17.5587 23 16.7956 23 16V6C23 5.20435 22.6839 4.44129 22.1213 3.87868C21.5587 3.31607 20.7956 3 20 3ZM21 16C20.9997 16.2651 20.8943 16.5193 20.7068 16.7068C20.5193 16.8943 20.2651 16.9997 20 17H4C3.73487 16.9997 3.48069 16.8943 3.29321 16.7068C3.10574 16.5193 3.00029 16.2651 3 16V6C3.00029 5.73487 3.10574 5.48069 3.29321 5.29321C3.48069 5.10574 3.73487 5.00029 4 5H20C20.2651 5.00029 20.5193 5.10574 20.7068 5.29321C20.8943 5.48069 20.9997 5.73487 21 6V16ZM8 15H16V13H8V15ZM13 10H11V12H13V10ZM13 7H11V9H13V7ZM10 10H8V12H10V10ZM10 7H8V9H10V7ZM5 12H7V10H5V12ZM5 15H7V13H5V15ZM17 15H19V13H17V15ZM5 9H7V7H5V9ZM14 12H16V10H14V12ZM14 9H16V7H14V9ZM17 12H19V10H17V12ZM17 9H19V7H17V9ZM12 24L15.0416 20.9584H8.9584L12 24Z" fill="black"/>
</svg>
