<svg width="24" height="24" viewBox="0 0 24 24" fill="none" xmlns="http://www.w3.org/2000/svg">
<path d="M15.6445 16.15C15.8719 16.15 16.0943 16.0826 16.2834 15.9562C16.4725 15.8298 16.6199 15.6502 16.707 15.4401C16.794 15.23 16.8168 14.9987 16.7724 14.7756C16.728 14.5526 16.6185 14.3477 16.4577 14.1868C16.2968 14.026 16.0919 13.9165 15.8689 13.8721C15.6458 13.8277 15.4145 13.8505 15.2044 13.9375C14.9943 14.0246 14.8147 14.172 14.6883 14.3611C14.5619 14.5502 14.4945 14.7726 14.4945 15C14.4945 15.305 14.6157 15.5975 14.8313 15.8132C15.047 16.0288 15.3395 16.15 15.6445 16.15ZM8.3555 16.15C8.58295 16.15 8.8053 16.0826 8.99443 15.9562C9.18356 15.8299 9.33098 15.6503 9.41803 15.4402C9.50509 15.23 9.52788 14.9988 9.48352 14.7757C9.43915 14.5526 9.32963 14.3477 9.16881 14.1869C9.00798 14.026 8.80307 13.9165 8.57999 13.8721C8.35691 13.8277 8.12568 13.8505 7.91554 13.9375C7.7054 14.0246 7.52578 14.172 7.39942 14.3611C7.27305 14.5502 7.2056 14.7725 7.2056 15C7.2056 15.305 7.32675 15.5975 7.54239 15.8131C7.75804 16.0288 8.05052 16.15 8.3555 16.15ZM12 11.1429C12.4505 11.1429 12.8909 11.0093 13.2655 10.759C13.6401 10.5087 13.932 10.153 14.1044 9.73675C14.2768 9.32053 14.3219 8.86254 14.234 8.42069C14.1461 7.97883 13.9292 7.57297 13.6106 7.25442C13.292 6.93586 12.8862 6.71893 12.4443 6.63105C12.0025 6.54318 11.5445 6.5883 11.1283 6.76072C10.712 6.93313 10.3563 7.2251 10.106 7.59969C9.85575 7.97429 9.72218 8.41469 9.7222 8.8652C9.72219 9.16432 9.7811 9.46052 9.89556 9.73688C10.01 10.0132 10.1778 10.2643 10.3893 10.4758C10.6008 10.6873 10.852 10.8551 11.1283 10.9696C11.4047 11.084 11.7009 11.1429 12 11.1429ZM12 7.7541C12.2198 7.7541 12.4346 7.81926 12.6173 7.94135C12.8 8.06344 12.9424 8.23697 13.0265 8.44C13.1106 8.64303 13.1326 8.86643 13.0898 9.08196C13.0469 9.2975 12.9411 9.49548 12.7857 9.65087C12.6303 9.80626 12.4323 9.91208 12.2168 9.95495C12.0012 9.99782 11.7778 9.97582 11.5748 9.89172C11.3718 9.80763 11.1982 9.66521 11.0762 9.48249C10.9541 9.29978 10.8889 9.08495 10.8889 8.8652C10.8892 8.57062 11.0064 8.28819 11.2147 8.07988C11.423 7.87158 11.7054 7.75442 12 7.7541ZM3 3V21H21V3H3ZM19.5 19.5H4.5V4.5H19.5V19.5Z" fill="black"/>
</svg>
