<svg width="24" height="24" viewBox="0 0 24 24" fill="none" xmlns="http://www.w3.org/2000/svg">
<path d="M4 2V22H20V2H4ZM19 21H5V3H19V21ZM12 7.5625C12.2967 7.5625 12.5867 7.47453 12.8334 7.3097C13.08 7.14488 13.2723 6.91061 13.3858 6.63653C13.4994 6.36244 13.5291 6.06084 13.4712 5.76986C13.4133 5.47889 13.2704 5.21162 13.0607 5.00184C12.8509 4.79206 12.5836 4.6492 12.2926 4.59132C12.0017 4.53344 11.7001 4.56315 11.426 4.67668C11.1519 4.79021 10.9176 4.98247 10.7528 5.22914C10.588 5.47582 10.5 5.76583 10.5 6.0625C10.5 6.46032 10.658 6.84186 10.9393 7.12316C11.2206 7.40446 11.6022 7.5625 12 7.5625ZM12 5.4625C12.1187 5.4625 12.2347 5.49769 12.3333 5.56362C12.432 5.62955 12.5089 5.72325 12.5543 5.83289C12.5997 5.94253 12.6116 6.06317 12.5885 6.17955C12.5653 6.29594 12.5082 6.40285 12.4243 6.48676C12.3404 6.57068 12.2334 6.62782 12.1171 6.65097C12.0007 6.67412 11.88 6.66224 11.7704 6.61683C11.6608 6.57141 11.567 6.49451 11.5011 6.39584C11.4352 6.29717 11.4 6.18117 11.4 6.0625C11.4002 5.90343 11.4635 5.75092 11.5759 5.63844C11.6884 5.52596 11.8409 5.46269 12 5.4625ZM12 16.3438C12.3956 16.3438 12.7822 16.2265 13.1111 16.0067C13.44 15.787 13.6964 15.4746 13.8478 15.1092C13.9991 14.7437 14.0387 14.3416 13.9616 13.9536C13.8844 13.5657 13.6939 13.2093 13.4142 12.9296C13.1345 12.6499 12.7781 12.4594 12.3902 12.3822C12.0022 12.3051 11.6001 12.3447 11.2346 12.496C10.8692 12.6474 10.5568 12.9038 10.3371 13.2327C10.1173 13.5616 10 13.9482 10 14.3438C10 14.8742 10.2107 15.3829 10.5858 15.758C10.9609 16.1331 11.4696 16.3438 12 16.3438ZM12 13.3438C12.1978 13.3438 12.3911 13.4024 12.5556 13.5123C12.72 13.6222 12.8482 13.7784 12.9239 13.9611C12.9996 14.1438 13.0194 14.3449 12.9808 14.5389C12.9422 14.7329 12.847 14.9111 12.7071 15.0509C12.5673 15.1908 12.3891 15.286 12.1951 15.3246C12.0011 15.3632 11.8 15.3434 11.6173 15.2677C11.4346 15.192 11.2784 15.0638 11.1685 14.8994C11.0586 14.7349 11 14.5416 11 14.3438C11.0003 14.0787 11.1057 13.8245 11.2932 13.637C11.4807 13.4495 11.7349 13.3441 12 13.3438ZM12 19.3438C12.9889 19.3438 13.9556 19.0506 14.7779 18.5011C15.6001 17.9517 16.241 17.1708 16.6194 16.2572C16.9978 15.3436 17.0969 14.3383 16.9039 13.3683C16.711 12.3984 16.2348 11.5075 15.5355 10.8083C14.8363 10.109 13.9454 9.6328 12.9755 9.43987C12.0055 9.24695 11.0002 9.34596 10.0866 9.7244C9.17295 10.1028 8.39206 10.7437 7.84265 11.5659C7.29324 12.3882 7 13.3549 7 14.3438C7 15.6699 7.52678 16.9417 8.46447 17.8793C9.40215 18.817 10.6739 19.3438 12 19.3438ZM12 10.3438C12.7911 10.3438 13.5645 10.5784 14.2223 11.0179C14.8801 11.4574 15.3928 12.0822 15.6955 12.8131C15.9983 13.544 16.0775 14.3482 15.9231 15.1242C15.7688 15.9001 15.3878 16.6128 14.8284 17.1722C14.269 17.7316 13.5563 18.1126 12.7804 18.2669C12.0044 18.4213 11.2002 18.3421 10.4693 18.0393C9.73836 17.7366 9.11365 17.2239 8.67412 16.5661C8.2346 15.9083 8 15.1349 8 14.3438C8.00119 13.2833 8.423 12.2666 9.17289 11.5167C9.92278 10.7668 10.9395 10.345 12 10.3438Z" fill="black"/>
</svg>
