<svg width="24" height="24" viewBox="0 0 24 24" fill="none" xmlns="http://www.w3.org/2000/svg">
<path d="M12 2C10.0222 2 8.08879 2.58649 6.4443 3.6853C4.79981 4.78412 3.51809 6.3459 2.76121 8.17317C2.00433 10.0004 1.8063 12.0111 2.19215 13.9509C2.578 15.8907 3.53041 17.6725 4.92894 19.0711C6.32746 20.4696 8.10929 21.422 10.0491 21.8079C11.9889 22.1937 13.9996 21.9957 15.8268 21.2388C17.6541 20.4819 19.2159 19.2002 20.3147 17.5557C21.4135 15.9112 22 13.9778 22 12C22 10.6868 21.7413 9.38642 21.2388 8.17317C20.7363 6.95991 19.9997 5.85752 19.0711 4.92893C18.1425 4.00035 17.0401 3.26375 15.8268 2.7612C14.6136 2.25866 13.3132 2 12 2ZM12 20C10.4178 20 8.87104 19.5308 7.55544 18.6518C6.23985 17.7727 5.21447 16.5233 4.60897 15.0615C4.00347 13.5997 3.84504 11.9911 4.15372 10.4393C4.4624 8.88743 5.22433 7.46197 6.34315 6.34315C7.46197 5.22433 8.88743 4.4624 10.4393 4.15372C11.9911 3.84504 13.5997 4.00346 15.0615 4.60896C16.5233 5.21447 17.7727 6.23984 18.6518 7.55544C19.5308 8.87103 20 10.4177 20 12C19.9976 14.121 19.154 16.1544 17.6542 17.6542C16.1544 19.154 14.121 19.9976 12 20ZM15.6445 10.65C15.3775 10.65 15.1165 10.7292 14.8945 10.8775C14.6725 11.0259 14.4994 11.2367 14.3973 11.4834C14.2951 11.7301 14.2684 12.0015 14.3204 12.2634C14.3725 12.5252 14.5011 12.7658 14.6899 12.9546C14.8787 13.1434 15.1193 13.272 15.3811 13.3241C15.643 13.3762 15.9144 13.3494 16.1611 13.2472C16.4078 13.1451 16.6186 12.972 16.767 12.75C16.9153 12.528 16.9945 12.267 16.9945 12C16.9945 11.8227 16.9596 11.6472 16.8917 11.4834C16.8239 11.3196 16.7245 11.1708 16.5991 11.0454C16.4737 10.92 16.3249 10.8206 16.1611 10.7528C15.9973 10.6849 15.8218 10.65 15.6445 10.65ZM8.3555 10.65C8.0885 10.65 7.82751 10.7292 7.60551 10.8776C7.38352 11.0259 7.2105 11.2368 7.10834 11.4834C7.00618 11.7301 6.97945 12.0016 7.03156 12.2634C7.08366 12.5253 7.21224 12.7658 7.40105 12.9546C7.58985 13.1434 7.8304 13.272 8.09227 13.3241C8.35414 13.3761 8.62558 13.3494 8.87225 13.2472C9.11892 13.145 9.32976 12.972 9.4781 12.75C9.62643 12.528 9.7056 12.267 9.7056 12C9.7056 11.8227 9.67068 11.6472 9.60283 11.4834C9.53498 11.3196 9.43553 11.1707 9.31016 11.0454C9.18479 10.92 9.03596 10.8206 8.87216 10.7527C8.70836 10.6849 8.5328 10.65 8.3555 10.65ZM12 14.65C11.733 14.65 11.472 14.7292 11.25 14.8775C11.028 15.0259 10.8549 15.2367 10.7528 15.4834C10.6506 15.7301 10.6239 16.0015 10.6759 16.2634C10.728 16.5252 10.8566 16.7658 11.0454 16.9546C11.2342 17.1434 11.4748 17.272 11.7366 17.3241C11.9985 17.3762 12.2699 17.3494 12.5166 17.2472C12.7633 17.1451 12.9741 16.972 13.1225 16.75C13.2708 16.528 13.35 16.267 13.35 16C13.35 15.642 13.2078 15.2986 12.9546 15.0454C12.7014 14.7922 12.358 14.65 12 14.65Z" fill="black"/>
</svg>
