<svg width="24" height="24" viewBox="0 0 24 24" fill="none" xmlns="http://www.w3.org/2000/svg">
<path d="M20 11H15.5V5.99996C15.5 5.86735 15.4473 5.74017 15.3536 5.64641C15.2598 5.55264 15.1326 5.49996 15 5.49996C14.8674 5.49996 14.7402 5.55264 14.6464 5.64641C14.5527 5.74017 14.5 5.86735 14.5 5.99996V11H4C3.46957 11 2.96086 11.2107 2.58579 11.5857C2.21071 11.9608 2 12.4695 2 13V19C2 19.5304 2.21071 20.0391 2.58579 20.4142C2.96086 20.7892 3.46957 21 4 21H20C20.5304 21 21.0391 20.7892 21.4142 20.4142C21.7893 20.0391 22 19.5304 22 19V13C22 12.4695 21.7893 11.9608 21.4142 11.5857C21.0391 11.2107 20.5304 11 20 11ZM6 16.63C5.86155 16.63 5.72622 16.5889 5.6111 16.512C5.49599 16.4351 5.40627 16.3257 5.35328 16.1978C5.3003 16.0699 5.28644 15.9292 5.31345 15.7934C5.34046 15.6576 5.40713 15.5329 5.50503 15.435C5.60292 15.3371 5.72765 15.2704 5.86344 15.2434C5.99922 15.2164 6.13997 15.2303 6.26788 15.2832C6.39579 15.3362 6.50511 15.4259 6.58203 15.5411C6.65895 15.6562 6.7 15.7915 6.7 15.93C6.7 16.1156 6.62625 16.2937 6.49497 16.4249C6.3637 16.5562 6.18565 16.63 6 16.63ZM12.5254 8.47456C12.2003 8.14965 11.9424 7.76388 11.7665 7.33928C11.5906 6.91467 11.5 6.45957 11.5 5.99996C11.5 5.54035 11.5906 5.08524 11.7665 4.66064C11.9424 4.23604 12.2003 3.85027 12.5254 3.52536L11.8184 2.81836C11.4004 3.23609 11.0689 3.73208 10.8427 4.27799C10.6164 4.8239 10.5 5.40903 10.5 5.99996C10.5 6.59088 10.6164 7.17602 10.8427 7.72193C11.0689 8.26784 11.4004 8.76383 11.8184 9.18156L12.5254 8.47456ZM18.1816 9.18156C18.5996 8.76383 18.9311 8.26784 19.1573 7.72193C19.3836 7.17602 19.5 6.59088 19.5 5.99996C19.5 5.40903 19.3836 4.8239 19.1573 4.27799C18.9311 3.73208 18.5996 3.23609 18.1816 2.81836L17.4746 3.52536C17.7997 3.85027 18.0576 4.23604 18.2335 4.66064C18.4094 5.08524 18.5 5.54035 18.5 5.99996C18.5 6.45957 18.4094 6.91467 18.2335 7.33928C18.0576 7.76388 17.7997 8.14965 17.4746 8.47456L18.1816 9.18156Z" fill="black"/>
</svg>
