<svg width="24" height="24" viewBox="0 0 24 24" fill="none" xmlns="http://www.w3.org/2000/svg">
<path d="M18.5 10V12C18.5 13.7239 17.8152 15.3772 16.5962 16.5962C15.3772 17.8152 13.7239 18.5 12 18.5C10.2761 18.5 8.62279 17.8152 7.40381 16.5962C6.18482 15.3772 5.5 13.7239 5.5 12V10H4V12C4.00039 13.9915 4.74368 15.9113 6.08451 17.3838C7.42533 18.8563 9.26724 19.7757 11.25 19.9621V23H12.75V19.9621C14.7328 19.7757 16.5747 18.8563 17.9155 17.3838C19.2563 15.9113 19.9996 13.9915 20 12V10H18.5ZM12 16C13.0605 15.999 14.0774 15.5772 14.8273 14.8273C15.5772 14.0774 15.999 13.0605 16 12V5C16 3.93913 15.5786 2.92172 14.8284 2.17157C14.0783 1.42143 13.0609 1 12 1C10.9391 1 9.92172 1.42143 9.17157 2.17157C8.42143 2.92172 8 3.93913 8 5V12C8.00103 13.0605 8.42279 14.0774 9.17271 14.8273C9.92264 15.5772 10.9395 15.999 12 16ZM9.5 5C9.5 4.33696 9.76339 3.70107 10.2322 3.23223C10.7011 2.76339 11.337 2.5 12 2.5C12.663 2.5 13.2989 2.76339 13.7678 3.23223C14.2366 3.70107 14.5 4.33696 14.5 5V12C14.5 12.663 14.2366 13.2989 13.7678 13.7678C13.2989 14.2366 12.663 14.5 12 14.5C11.337 14.5 10.7011 14.2366 10.2322 13.7678C9.76339 13.2989 9.5 12.663 9.5 12V5Z" fill="black"/>
</svg>
