<svg width="24" height="24" viewBox="0 0 24 24" fill="none" xmlns="http://www.w3.org/2000/svg">
<path d="M20 4H4C3.46957 4 2.96086 4.21071 2.58579 4.58579C2.21071 4.96086 2 5.46957 2 6V16C2 16.5304 2.21071 17.0391 2.58579 17.4142C2.96086 17.7893 3.46957 18 4 18H8V19.5H16V18H20C20.5304 18 21.0391 17.7893 21.4142 17.4142C21.7893 17.0391 22 16.5304 22 16V6C22 5.46957 21.7893 4.96086 21.4142 4.58579C21.0391 4.21071 20.5304 4 20 4ZM20.5 16C20.5 16.1326 20.4473 16.2598 20.3536 16.3536C20.2598 16.4473 20.1326 16.5 20 16.5H4C3.86739 16.5 3.74021 16.4473 3.64645 16.3536C3.55268 16.2598 3.5 16.1326 3.5 16V6C3.5 5.86739 3.55268 5.74021 3.64645 5.64645C3.74021 5.55268 3.86739 5.5 4 5.5H20C20.1326 5.5 20.2598 5.55268 20.3536 5.64645C20.4473 5.74021 20.5 5.86739 20.5 6V16ZM10.0481 13.6105L14.5968 11L10.0481 8.39V13.6105Z" fill="black"/>
</svg>
