<svg width="24" height="24" viewBox="0 0 24 24" fill="none" xmlns="http://www.w3.org/2000/svg">
<path d="M12 9.4C11.8409 9.40018 11.6884 9.46346 11.5759 9.57594C11.4635 9.68842 11.4002 9.84093 11.4 10V11H12.6V10C12.5998 9.84092 12.5366 9.6884 12.4241 9.57591C12.3116 9.46342 12.1591 9.40016 12 9.4ZM19.5 6H4.5C3.83696 6 3.20107 6.26339 2.73223 6.73223C2.26339 7.20107 2 7.83696 2 8.5V15.5C2 16.163 2.26339 16.7989 2.73223 17.2678C3.20107 17.7366 3.83696 18 4.5 18H19.5C20.163 18 20.7989 17.7366 21.2678 17.2678C21.7366 16.7989 22 16.163 22 15.5V8.5C22 7.83696 21.7366 7.20107 21.2678 6.73223C20.7989 6.26339 20.163 6 19.5 6ZM15 15H9V11H10V10C10 9.46957 10.2107 8.96086 10.5858 8.58579C10.9609 8.21071 11.4696 8 12 8C12.5304 8 13.0391 8.21071 13.4142 8.58579C13.7893 8.96086 14 9.46957 14 10V11H15V15Z" fill="black"/>
</svg>
