<svg width="24" height="24" viewBox="0 0 24 24" fill="none" xmlns="http://www.w3.org/2000/svg">
<path d="M20 3H4C3.46957 3 2.96086 3.21071 2.58579 3.58579C2.21071 3.96086 2 4.46957 2 5V15C2 15.5304 2.21071 16.0391 2.58579 16.4142C2.96086 16.7893 3.46957 17 4 17H9.1V20.5H7V21H17V20.5H14.9V17H20C20.5304 17 21.0391 16.7893 21.4142 16.4142C21.7893 16.0391 22 15.5304 22 15V5C22 4.46957 21.7893 3.96086 21.4142 3.58579C21.0391 3.21071 20.5304 3 20 3ZM14.4 20.5H9.6V17H14.4V20.5ZM21.5 15C21.4995 15.3977 21.3414 15.779 21.0602 16.0602C20.779 16.3414 20.3977 16.4995 20 16.5H4C3.60231 16.4995 3.22104 16.3414 2.93984 16.0602C2.65863 15.779 2.50045 15.3977 2.5 15V5C2.50045 4.60231 2.65863 4.22104 2.93984 3.93984C3.22104 3.65863 3.60231 3.50045 4 3.5H20C20.3977 3.50045 20.779 3.65863 21.0602 3.93984C21.3414 4.22104 21.4995 4.60231 21.5 5V15Z" fill="black"/>
</svg>
