<svg width="24" height="24" viewBox="0 0 24 24" fill="none" xmlns="http://www.w3.org/2000/svg">
<path d="M6 6H4V22H16V20H6V6ZM8 2V18H20V2H8ZM18 16H10V4H18V16ZM14 7.9375C14.2472 7.9375 14.4889 7.86419 14.6945 7.72684C14.9 7.58949 15.0602 7.39426 15.1548 7.16585C15.2495 6.93745 15.2742 6.68611 15.226 6.44364C15.1778 6.20116 15.0587 5.97843 14.8839 5.80362C14.7091 5.6288 14.4863 5.50975 14.2439 5.46152C14.0014 5.41329 13.7501 5.43804 13.5216 5.53265C13.2932 5.62726 13.098 5.78748 12.9607 5.99304C12.8233 6.1986 12.75 6.44027 12.75 6.6875C12.75 7.01902 12.8817 7.33696 13.1161 7.57138C13.3505 7.8058 13.6685 7.9375 14 7.9375ZM14 14.75C14.5439 14.75 15.0756 14.5887 15.5278 14.2865C15.9801 13.9844 16.3325 13.5549 16.5407 13.0524C16.7488 12.5499 16.8033 11.997 16.6972 11.4635C16.591 10.9301 16.3291 10.4401 15.9445 10.0555C15.5599 9.67086 15.0699 9.40895 14.5365 9.30284C14.003 9.19673 13.4501 9.25119 12.9476 9.45933C12.4451 9.66747 12.0156 10.0199 11.7135 10.4722C11.4113 10.9244 11.25 11.4561 11.25 12C11.25 12.7293 11.5397 13.4288 12.0555 13.9445C12.5712 14.4603 13.2707 14.75 14 14.75ZM14 10.85C14.2274 10.85 14.4498 10.9174 14.6389 11.0438C14.828 11.1702 14.9754 11.3498 15.0625 11.5599C15.1495 11.77 15.1723 12.0013 15.1279 12.2244C15.0835 12.4474 14.974 12.6523 14.8132 12.8132C14.6523 12.974 14.4474 13.0835 14.2244 13.1279C14.0013 13.1723 13.77 13.1495 13.5599 13.0625C13.3498 12.9754 13.1702 12.828 13.0438 12.6389C12.9174 12.4498 12.85 12.2274 12.85 12C12.8503 11.6951 12.9716 11.4028 13.1872 11.1872C13.4028 10.9716 13.6951 10.8503 14 10.85Z" fill="black"/>
</svg>
