<svg width="24" height="24" viewBox="0 0 24 24" fill="none" xmlns="http://www.w3.org/2000/svg">
<path d="M16.6445 10.3C16.3083 10.3 15.9796 10.3997 15.7 10.5865C15.4205 10.7733 15.2026 11.0388 15.0739 11.3495C14.9452 11.6601 14.9116 12.0019 14.9771 12.3317C15.0427 12.6615 15.2047 12.9644 15.4424 13.2021C15.6802 13.4399 15.9831 13.6018 16.3128 13.6674C16.6426 13.733 16.9844 13.6993 17.295 13.5706C17.6057 13.442 17.8712 13.2241 18.058 12.9445C18.2448 12.6649 18.3445 12.3363 18.3445 12C18.3445 11.5492 18.1654 11.1168 17.8466 10.798C17.5278 10.4791 17.0954 10.3 16.6445 10.3ZM16.6445 12.8C16.4863 12.8 16.3316 12.7531 16.2 12.6652C16.0685 12.5773 15.9659 12.4524 15.9054 12.3062C15.8448 12.16 15.829 11.9991 15.8599 11.844C15.8907 11.6888 15.9669 11.5462 16.0788 11.4344C16.1907 11.3225 16.3332 11.2463 16.4884 11.2154C16.6436 11.1845 16.8045 11.2004 16.9506 11.2609C17.0968 11.3215 17.2218 11.424 17.3097 11.5556C17.3976 11.6871 17.4445 11.8418 17.4445 12C17.4442 12.2121 17.3598 12.4154 17.2098 12.5654C17.0599 12.7153 16.8566 12.7997 16.6445 12.8ZM7.35548 10.3C7.01926 10.3 6.69058 10.3997 6.41101 10.5865C6.13145 10.7733 5.91356 11.0388 5.78489 11.3495C5.65622 11.6601 5.62255 12.0019 5.68815 12.3317C5.75374 12.6615 5.91565 12.9644 6.1534 13.2021C6.39115 13.4399 6.69406 13.6018 7.02383 13.6674C7.3536 13.733 7.69541 13.6993 8.00605 13.5706C8.31668 13.442 8.58218 13.2241 8.76898 12.9445C8.95578 12.6649 9.05548 12.3363 9.05548 12C9.05548 11.5492 8.87638 11.1168 8.55757 10.798C8.23875 10.4791 7.80635 10.3 7.35548 10.3ZM7.35548 12.8C7.19726 12.8 7.04259 12.7531 6.91103 12.6652C6.77947 12.5773 6.67693 12.4524 6.61638 12.3062C6.55583 12.16 6.53999 11.9991 6.57086 11.844C6.60172 11.6888 6.67792 11.5462 6.7898 11.4344C6.90168 11.3225 7.04423 11.2463 7.19941 11.2154C7.3546 11.1845 7.51545 11.2004 7.66163 11.2609C7.80781 11.3215 7.93275 11.424 8.02066 11.5556C8.10856 11.6871 8.15548 11.8418 8.15548 12C8.15522 12.2121 8.07085 12.4155 7.92088 12.5654C7.77091 12.7154 7.56758 12.7998 7.35548 12.8ZM13 2.05054V4.50004H11V2.05054C8.53362 2.29873 6.24734 3.4541 4.58461 5.29254C2.92188 7.13099 2.00122 9.52147 2.00122 12.0003C2.00122 14.4791 2.92188 16.8696 4.58461 18.708C6.24734 20.5465 8.53362 21.7019 11 21.95V19.5H13V21.95C15.4659 21.7013 17.7515 20.5457 19.4137 18.7074C21.0759 16.869 21.9963 14.4789 21.9963 12.0005C21.9963 9.52215 21.0759 7.13205 19.4137 5.29372C17.7515 3.45538 15.4659 2.2998 13 2.05104V2.05054ZM14 20.7775V18.5H9.99998V20.7775C8.01149 20.3237 6.23601 19.2081 4.96431 17.6135C3.69261 16.0189 3.00006 14.0397 3.00006 12C3.00006 9.96041 3.69261 7.98122 4.96431 6.38658C6.23601 4.79195 8.01149 3.67637 9.99998 3.22254V5.50004H14V3.22254C15.9885 3.67637 17.764 4.79195 19.0357 6.38658C20.3074 7.98122 20.9999 9.96041 20.9999 12C20.9999 14.0397 20.3074 16.0189 19.0357 17.6135C17.764 19.2081 15.9885 20.3237 14 20.7775Z" fill="black"/>
</svg>
