<svg width="24" height="24" viewBox="0 0 24 24" fill="none" xmlns="http://www.w3.org/2000/svg">
<path d="M20 6.00001H4C3.20435 6.00001 2.44129 6.31608 1.87868 6.87868C1.31607 7.44129 1 8.20436 1 9V19C1 19.7957 1.31607 20.5587 1.87868 21.1213C2.44129 21.6839 3.20435 22 4 22H20C20.7956 22 21.5587 21.6839 22.1213 21.1213C22.6839 20.5587 23 19.7957 23 19V9C23 8.20436 22.6839 7.44129 22.1213 6.87868C21.5587 6.31608 20.7956 6.00001 20 6.00001ZM21.5 19C21.4995 19.3977 21.3414 19.779 21.0602 20.0602C20.779 20.3414 20.3977 20.4996 20 20.5H4C3.60231 20.4996 3.22104 20.3414 2.93984 20.0602C2.65863 19.779 2.50045 19.3977 2.5 19V9C2.50045 8.60232 2.65863 8.22105 2.93984 7.93984C3.22104 7.65864 3.60231 7.50046 4 7.50001H20C20.3977 7.50046 20.779 7.65864 21.0602 7.93984C21.3414 8.22105 21.4995 8.60232 21.5 9V19ZM8 18H16V16H8V18ZM13 13H11V15H13V13ZM13 10H11V12H13V10ZM10 13H8V15H10V13ZM10 10H8V12H10V10ZM5 15H7V13H5V15ZM5 18H7V16H5V18ZM17 18H19V16H17V18ZM5 12H7V10H5V12ZM14 15H16V13H14V15ZM14 12H16V10H14V12ZM17 15H19V13H17V15ZM17 12H19V10H17V12ZM12 2.37111C12.6897 2.36924 13.3729 2.50423 14.0101 2.76824C14.6472 3.03226 15.2257 3.42007 15.7119 3.90921L16.7725 2.84861C16.1459 2.22168 15.4019 1.72435 14.583 1.38504C13.7641 1.04574 12.8864 0.871094 12 0.871094C11.1136 0.871094 10.2359 1.04574 9.41701 1.38504C8.59813 1.72435 7.85412 2.22168 7.2275 2.84861L8.2881 3.90921C8.77434 3.42007 9.35278 3.03226 9.98994 2.76824C10.6271 2.50423 11.3103 2.36924 12 2.37111Z" fill="black"/>
</svg>
