<svg width="24" height="24" viewBox="0 0 24 24" fill="none" xmlns="http://www.w3.org/2000/svg">
<path d="M16.6445 11C16.4467 11 16.2534 11.0586 16.0889 11.1685C15.9245 11.2784 15.7963 11.4346 15.7206 11.6173C15.6449 11.8 15.6251 12.0011 15.6637 12.1951C15.7023 12.3891 15.7975 12.5673 15.9374 12.7071C16.0772 12.847 16.2554 12.9422 16.4494 12.9808C16.6434 13.0194 16.8445 12.9996 17.0272 12.9239C17.2099 12.8482 17.3661 12.72 17.476 12.5556C17.5859 12.3911 17.6445 12.1978 17.6445 12C17.6442 11.7349 17.5388 11.4807 17.3513 11.2932C17.1638 11.1057 16.9096 11.0003 16.6445 11ZM12 8C11.8022 8 11.6089 8.05865 11.4444 8.16853C11.28 8.27841 11.1518 8.43459 11.0761 8.61732C11.0004 8.80004 10.9806 9.00111 11.0192 9.19509C11.0578 9.38907 11.153 9.56725 11.2929 9.70711C11.4327 9.84696 11.6109 9.9422 11.8049 9.98079C11.9989 10.0194 12.2 9.99957 12.3827 9.92388C12.5654 9.84819 12.7216 9.72002 12.8315 9.55557C12.9414 9.39112 13 9.19778 13 9C12.9997 8.73487 12.8943 8.48069 12.7068 8.29321C12.5193 8.10574 12.2651 8.00029 12 8ZM7.3555 11C7.15772 11 6.96438 11.0586 6.79993 11.1685C6.63548 11.2784 6.50731 11.4346 6.43162 11.6173C6.35593 11.8 6.33613 12.0011 6.37471 12.1951C6.4133 12.3891 6.50854 12.5673 6.64839 12.7071C6.78825 12.847 6.96643 12.9422 7.16041 12.9808C7.35439 13.0194 7.55546 12.9996 7.73818 12.9239C7.92091 12.8482 8.07709 12.72 8.18697 12.5556C8.29685 12.3911 8.3555 12.1978 8.3555 12C8.35521 11.7349 8.24976 11.4807 8.06229 11.2932C7.87481 11.1057 7.62063 11.0003 7.3555 11ZM3 3V21H21V3H3ZM7.3555 13.5C7.05883 13.5 6.76882 13.412 6.52214 13.2472C6.27547 13.0824 6.08321 12.8481 5.96968 12.574C5.85615 12.2999 5.82644 11.9983 5.88432 11.7074C5.9422 11.4164 6.08506 11.1491 6.29484 10.9393C6.50462 10.7296 6.77189 10.5867 7.06286 10.5288C7.35384 10.4709 7.65544 10.5006 7.92953 10.6142C8.20361 10.7277 8.43788 10.92 8.6027 11.1666C8.76753 11.4133 8.8555 11.7033 8.8555 12C8.8555 12.3978 8.69746 12.7794 8.41616 13.0607C8.13486 13.342 7.75332 13.5 7.3555 13.5ZM12 10.5C11.7033 10.5 11.4133 10.412 11.1666 10.2472C10.92 10.0824 10.7277 9.84811 10.6142 9.57403C10.5006 9.29994 10.4709 8.99834 10.5288 8.70736C10.5867 8.41639 10.7296 8.14912 10.9393 7.93934C11.1491 7.72956 11.4164 7.5867 11.7074 7.52882C11.9983 7.47094 12.2999 7.50065 12.574 7.61418C12.8481 7.72771 13.0824 7.91997 13.2472 8.16665C13.412 8.41332 13.5 8.70333 13.5 9C13.5 9.39782 13.342 9.77936 13.0607 10.0607C12.7794 10.342 12.3978 10.5 12 10.5ZM16.6445 13.5C16.3478 13.5 16.0578 13.412 15.8111 13.2472C15.5645 13.0824 15.3722 12.8481 15.2587 12.574C15.1451 12.2999 15.1154 11.9983 15.1733 11.7074C15.2312 11.4164 15.3741 11.1491 15.5838 10.9393C15.7936 10.7296 16.0609 10.5867 16.3519 10.5288C16.6428 10.4709 16.9444 10.5006 17.2185 10.6142C17.4926 10.7277 17.7269 10.92 17.8917 11.1666C18.0565 11.4133 18.1445 11.7033 18.1445 12C18.1445 12.3978 17.9865 12.7794 17.7052 13.0607C17.4239 13.342 17.0423 13.5 16.6445 13.5Z" fill="black"/>
</svg>
