<svg width="24" height="24" viewBox="0 0 24 24" fill="none" xmlns="http://www.w3.org/2000/svg">
<path d="M14 5H10C8.67392 5 7.40215 5.52678 6.46447 6.46447C5.52678 7.40215 5 8.67392 5 10V17C5 18.8565 5.7375 20.637 7.05025 21.9497C8.36301 23.2625 10.1435 24 12 24C13.8565 24 15.637 23.2625 16.9497 21.9497C18.2625 20.637 19 18.8565 19 17V10C19 8.67392 18.4732 7.40215 17.5355 6.46447C16.5979 5.52678 15.3261 5 14 5ZM12.5 10.5C12.5 10.6326 12.4473 10.7598 12.3536 10.8536C12.2598 10.9473 12.1326 11 12 11C11.8674 11 11.7402 10.9473 11.6464 10.8536C11.5527 10.7598 11.5 10.6326 11.5 10.5V7.5C11.5 7.36739 11.5527 7.24021 11.6464 7.14645C11.7402 7.05268 11.8674 7 12 7C12.1326 7 12.2598 7.05268 12.3536 7.14645C12.4473 7.24021 12.5 7.36739 12.5 7.5V10.5ZM11.8333 1.6211C12.5559 1.61901 13.2716 1.76035 13.9392 2.03695C14.6067 2.31354 15.2127 2.71987 15.722 3.2324L16.429 2.5254C15.8256 1.92168 15.1092 1.44277 14.3206 1.11602C13.5321 0.789272 12.6869 0.621094 11.8333 0.621094C10.9797 0.621094 10.1345 0.789272 9.34599 1.11602C8.55744 1.44277 7.841 1.92168 7.2376 2.5254L7.9446 3.2324C8.45392 2.71987 9.05991 2.31354 9.72743 2.03695C10.395 1.76035 11.1107 1.61901 11.8333 1.6211Z" fill="black"/>
</svg>
