<svg width="24" height="24" viewBox="0 0 24 24" fill="none" xmlns="http://www.w3.org/2000/svg">
<path d="M20.5 4H3.5C2.83696 4 2.20107 4.26339 1.73223 4.73223C1.26339 5.20107 1 5.83696 1 6.5V17.5C1 18.163 1.26339 18.7989 1.73223 19.2678C2.20107 19.7366 2.83696 20 3.5 20H20.5C21.163 20 21.7989 19.7366 22.2678 19.2678C22.7366 18.7989 23 18.163 23 17.5V6.5C23 5.83696 22.7366 5.20107 22.2678 4.73223C21.7989 4.26339 21.163 4 20.5 4ZM22.5 17.5C22.4994 18.0302 22.2885 18.5386 21.9135 18.9135C21.5386 19.2885 21.0302 19.4994 20.5 19.5H3.5C2.96975 19.4994 2.4614 19.2885 2.08646 18.9135C1.71152 18.5386 1.50061 18.0302 1.5 17.5V6.5C1.50061 5.96975 1.71152 5.4614 2.08646 5.08646C2.4614 4.71152 2.96975 4.50061 3.5 4.5H20.5C21.0302 4.50061 21.5386 4.71152 21.9135 5.08646C22.2885 5.4614 22.4994 5.96975 22.5 6.5V17.5ZM4 9.5H7V7H4V9.5ZM4.5 7.5H6.5V9H4.5V7.5ZM17 9.5H20V7H17V9.5ZM17.5 7.5H19.5V9H17.5V7.5ZM11.3334 7H8.3334V9.5H11.3334V7ZM10.8334 9H8.8334V7.5H10.8334V9ZM12.6667 9.5H15.6667V7H12.6667V9.5ZM13.1667 7.5H15.1667V9H13.1667V7.5ZM4 17H7V14.5H4V17ZM4.5 15H6.5V16.5H4.5V15ZM17 17H20V14.5H17V17ZM17.5 15H19.5V16.5H17.5V15ZM8.3334 17H15.6667V14.5H8.3334V17ZM8.8334 15H15.1667V16.5H8.8334V15ZM4 13.25H7V10.75H4V13.25ZM4.5 11.25H6.5V12.75H4.5V11.25ZM17 13.25H20V10.75H17V13.25ZM17.5 11.25H19.5V12.75H17.5V11.25ZM11.3334 10.75H8.3334V13.25H11.3334V10.75ZM10.8334 12.75H8.8334V11.25H10.8334V12.75ZM12.6667 13.25H15.6667V10.75H12.6667V13.25ZM13.1667 11.25H15.1667V12.75H13.1667V11.25Z" fill="black"/>
</svg>
