<svg width="24" height="24" viewBox="0 0 24 24" fill="none" xmlns="http://www.w3.org/2000/svg">
<path d="M13.591 6.76534L14.6517 5.70464C13.9478 5.00248 12.9942 4.60815 12 4.60815C11.0058 4.60815 10.0522 5.00248 9.34829 5.70464L10.409 6.76534C10.8313 6.34406 11.4035 6.10748 12 6.10748C12.5965 6.10748 13.1687 6.34406 13.591 6.76534ZM6.51999 2.81644L7.56929 3.88864C8.75498 2.73109 10.3514 2.09115 12.0084 2.10923C13.6653 2.1273 15.2474 2.80191 16.4076 3.98504L17.48 2.93594C16.0413 1.46879 14.0794 0.63224 12.0247 0.609837C9.96999 0.587434 7.99031 1.38101 6.51999 2.81644ZM7.99999 20.9999C7.99999 21.5304 8.2107 22.0391 8.58578 22.4142C8.96085 22.7892 9.46956 22.9999 9.99999 22.9999H14C14.5304 22.9999 15.0391 22.7892 15.4142 22.4142C15.7893 22.0391 16 21.5304 16 20.9999V8.99994H7.99999V20.9999ZM12 10.9999C12.2472 10.9999 12.4889 11.0733 12.6945 11.2106C12.9 11.348 13.0602 11.5432 13.1548 11.7716C13.2494 12 13.2742 12.2513 13.226 12.4938C13.1777 12.7363 13.0587 12.959 12.8839 13.1338C12.7091 13.3086 12.4863 13.4277 12.2439 13.4759C12.0014 13.5242 11.75 13.4994 11.5216 13.4048C11.2932 13.3102 11.098 13.15 10.9607 12.9444C10.8233 12.7388 10.75 12.4972 10.75 12.2499C10.75 11.9184 10.8817 11.6005 11.1161 11.3661C11.3505 11.1316 11.6685 10.9999 12 10.9999Z" fill="black"/>
</svg>
