<svg width="24" height="24" viewBox="0 0 24 24" fill="none" xmlns="http://www.w3.org/2000/svg">
<path d="M12 21.5C9.90885 21.5017 7.87566 20.8129 6.21621 19.5405C4.55677 18.268 3.36395 16.4832 2.82303 14.4632C2.28211 12.4433 2.42337 10.3012 3.22486 8.36977C4.02635 6.43832 5.44322 4.82561 7.25539 3.7821L7.00389 3.3464C5.48423 4.22402 4.22238 5.48621 3.34517 7.0061C2.46795 8.526 2.00629 10.25 2.00659 12.0049C2.00689 13.7598 2.46914 15.4836 3.34687 17.0032C4.22461 18.5228 5.48689 19.7846 7.00685 20.6617C8.5268 21.5388 10.2509 22.0003 12.0057 21.9999C13.7606 21.9995 15.4844 21.5371 17.004 20.6592C18.5235 19.7814 19.7852 18.519 20.6622 16.999C21.5391 15.479 22.0006 13.7549 22 12H21.5C21.4971 14.5187 20.4953 16.9334 18.7143 18.7144C16.9334 20.4953 14.5187 21.4971 12 21.5ZM22.4924 5.9515L23.6453 5.1389C23.4758 4.57469 23.1773 4.0577 22.7734 3.6289L21.4934 4.2209L20.832 3.839L20.7048 2.4345C20.1315 2.2991 19.5346 2.2991 18.9614 2.4345L18.8342 3.8389L18.1728 4.2208L16.8928 3.6287C16.4888 4.05744 16.1904 4.57446 16.0212 5.1387L17.1738 5.9511V6.7148L16.0212 7.5273C16.1903 8.09159 16.4887 8.60864 16.8928 9.0373L18.1728 8.4453L18.8342 8.8271L18.9614 10.2318C19.5345 10.3673 20.1314 10.3673 20.7045 10.2318L20.832 8.8273L21.4934 8.4455L22.7734 9.0376C23.1774 8.60895 23.4758 8.09189 23.6447 7.5276L22.4921 6.7151L22.4924 5.9515ZM23.1067 7.6986C22.9937 7.98131 22.8407 8.24632 22.6523 8.4855L21.6823 8.0369L21.4704 7.9389L21.2683 8.0556L20.6069 8.4374L20.405 8.5541L20.3837 8.7865L20.2873 9.8508C19.9859 9.894 19.6799 9.894 19.3786 9.8508L19.2822 8.7866L19.2612 8.5541L19.059 8.4374L18.3976 8.0556L18.1957 7.9389L17.9838 8.0369L17.0138 8.4854C16.8256 8.24622 16.6726 7.98125 16.5597 7.6986L17.4329 7.0829L17.6236 6.9484V5.718L17.4329 5.5836L16.56 4.968C16.673 4.68535 16.8259 4.42036 17.0141 4.1811L17.9841 4.6297L18.1958 4.7277L18.3979 4.611L19.0596 4.2291L19.2615 4.1125L19.2827 3.8801L19.3792 2.8159C19.6804 2.77263 19.9863 2.77263 20.2876 2.8159L20.384 3.88L20.4053 4.1124L20.6072 4.2291L21.2686 4.611L21.4707 4.7277L21.6826 4.6298L22.6526 4.1812C22.8408 4.42047 22.9938 4.68542 23.107 4.968L22.2337 5.5837L22.0428 5.7181V6.9481L22.2335 7.0825L23.1067 7.6986ZM19.8333 5.1486C19.5991 5.1486 19.3701 5.21806 19.1753 5.34819C18.9806 5.47832 18.8288 5.66329 18.7391 5.87969C18.6495 6.09609 18.6261 6.33421 18.6717 6.56395C18.7174 6.79368 18.8302 7.0047 18.9959 7.17033C19.1615 7.33595 19.3725 7.44875 19.6022 7.49444C19.832 7.54014 20.0701 7.51669 20.2865 7.42705C20.5029 7.33741 20.6879 7.18562 20.818 6.99086C20.9481 6.7961 21.0176 6.56713 21.0176 6.3329C21.0175 6.01888 20.8926 5.71777 20.6705 5.49576C20.4485 5.27375 20.1473 5.14903 19.8333 5.149V5.1486ZM19.8333 7.0672C19.6881 7.0672 19.5461 7.02413 19.4253 6.94345C19.3046 6.86276 19.2105 6.74808 19.1549 6.6139C19.0993 6.47973 19.0848 6.33209 19.1131 6.18965C19.1414 6.0472 19.2114 5.91637 19.3141 5.81367C19.4168 5.71098 19.5476 5.64104 19.69 5.61271C19.8325 5.58438 19.9801 5.59892 20.1143 5.6545C20.2485 5.71007 20.3632 5.80419 20.4438 5.92494C20.5245 6.0457 20.5676 6.18767 20.5676 6.3329C20.5675 6.52765 20.4901 6.7144 20.3524 6.85215C20.2148 6.9899 20.028 7.06739 19.8333 7.0676V7.0672ZM12.25 2H11.75V12H12.25V2Z" fill="black"/>
</svg>
