<svg width="24" height="24" viewBox="0 0 24 24" fill="none" xmlns="http://www.w3.org/2000/svg">
<path d="M20.5 3H3.5C2.83696 3 2.20107 3.26339 1.73223 3.73223C1.26339 4.20107 1 4.83696 1 5.5V16.5C1 17.163 1.26339 17.7989 1.73223 18.2678C2.20107 18.7366 2.83696 19 3.5 19H20.5C21.163 19 21.7989 18.7366 22.2678 18.2678C22.7366 17.7989 23 17.163 23 16.5V5.5C23 4.83696 22.7366 4.20107 22.2678 3.73223C21.7989 3.26339 21.163 3 20.5 3ZM22 16.5C21.9995 16.8977 21.8414 17.279 21.5602 17.5602C21.279 17.8414 20.8977 17.9995 20.5 18H3.5C3.10231 17.9995 2.72104 17.8414 2.43984 17.5602C2.15863 17.279 2.00045 16.8977 2 16.5V5.5C2.00045 5.10231 2.15863 4.72104 2.43984 4.43984C2.72104 4.15863 3.10231 4.00045 3.5 4H20.5C20.8977 4.00045 21.279 4.15863 21.5602 4.43984C21.8414 4.72104 21.9995 5.10231 22 5.5V16.5ZM4 8.5H7V6H4V8.5ZM4.86 6.86H6.14V7.64H4.86V6.86ZM17 8.5H20V6H17V8.5ZM17.86 6.86H19.14V7.64H17.86V6.86ZM11.3334 6H8.3334V8.5H11.3334V6ZM10.4734 7.64H9.1934V6.86H10.4734V7.64ZM12.6667 8.5H15.6667V6H12.6667V8.5ZM13.5267 6.86H14.8067V7.64H13.5267V6.86ZM4 16H7V13.5H4V16ZM4.86 14.36H6.14V15.14H4.86V14.36ZM17 16H20V13.5H17V16ZM17.86 14.36H19.14V15.14H17.86V14.36ZM8.3334 16H15.6667V13.5H8.3334V16ZM9.1934 14.36H14.8067V15.14H9.1934V14.36ZM4 12.25H7V9.75H4V12.25ZM4.86 10.61H6.14V11.39H4.86V10.61ZM17 12.25H20V9.75H17V12.25ZM17.86 10.61H19.14V11.39H17.86V10.61ZM11.3334 9.75H8.3334V12.25H11.3334V9.75ZM10.4734 11.39H9.1934V10.61H10.4734V11.39ZM12.6667 12.25H15.6667V9.75H12.6667V12.25ZM13.5267 10.61H14.8067V11.39H13.5267V10.61ZM12 22.5859L10.0288 20.6147L9.3218 21.3218L12 24L14.6782 21.3218L13.9712 20.6147L12 22.5859Z" fill="black"/>
</svg>
