<svg width="24" height="24" viewBox="0 0 24 24" fill="none" xmlns="http://www.w3.org/2000/svg">
<path d="M19 10.5V12.5C19 14.3565 18.2625 16.137 16.9497 17.4497C15.637 18.7625 13.8565 19.5 12 19.5C10.1435 19.5 8.36301 18.7625 7.05025 17.4497C5.7375 16.137 5 14.3565 5 12.5V10.5H4V12.5C4.00093 14.534 4.77717 16.4911 6.17062 17.9727C7.56407 19.4544 9.46992 20.3491 11.5 20.4747V23.5H12.5V20.4747C14.5301 20.3491 16.4359 19.4544 17.8294 17.9727C19.2228 16.4911 19.9991 14.534 20 12.5V10.5H19ZM12 16.5C13.0605 16.499 14.0774 16.0772 14.8273 15.3273C15.5772 14.5774 15.999 13.5605 16 12.5V5.5C16 4.43913 15.5786 3.42172 14.8284 2.67157C14.0783 1.92143 13.0609 1.5 12 1.5C10.9391 1.5 9.92172 1.92143 9.17157 2.67157C8.42143 3.42172 8 4.43913 8 5.5V12.5C8.00103 13.5605 8.42279 14.5774 9.17271 15.3273C9.92264 16.0772 10.9395 16.499 12 16.5Z" fill="black"/>
</svg>
