<svg width="24" height="24" viewBox="0 0 24 24" fill="none" xmlns="http://www.w3.org/2000/svg">
<path d="M8.125 8.5529H7.625V11.75H4.4279V12.25H7.625V15.4472H8.125V12.25H11.3221V11.75H8.125V8.5529ZM22 5L15 9.9V7C15 6.46957 14.7893 5.96086 14.4142 5.58579C14.0391 5.21071 13.5304 5 13 5H3C2.46957 5 1.96086 5.21071 1.58579 5.58579C1.21071 5.96086 1 6.46957 1 7V17C1 17.5304 1.21071 18.0391 1.58579 18.4142C1.96086 18.7893 2.46957 19 3 19H13C13.5304 19 14.0391 18.7893 14.4142 18.4142C14.7893 18.0391 15 17.5304 15 17V14.1L22 19H23V5H22ZM14.5 17C14.4995 17.3977 14.3414 17.779 14.0602 18.0602C13.779 18.3414 13.3977 18.4995 13 18.5H3C2.60231 18.4995 2.22104 18.3414 1.93984 18.0602C1.65863 17.779 1.50045 17.3977 1.5 17V7C1.50045 6.60231 1.65863 6.22104 1.93984 5.93984C2.22104 5.65863 2.60231 5.50045 3 5.5H13C13.3977 5.50045 13.779 5.65863 14.0602 5.93984C14.3414 6.22104 14.4995 6.60231 14.5 7V17ZM22.5 18.5H22.1576L15 13.49V10.51L22.1576 5.5H22.5V18.5Z" fill="black"/>
</svg>
