<svg width="24" height="24" viewBox="0 0 24 24" fill="none" xmlns="http://www.w3.org/2000/svg">
<path d="M12 2C10.0222 2 8.08879 2.58649 6.4443 3.6853C4.79981 4.78412 3.51809 6.3459 2.76121 8.17317C2.00433 10.0004 1.8063 12.0111 2.19215 13.9509C2.578 15.8907 3.53041 17.6725 4.92894 19.0711C6.32746 20.4696 8.10929 21.422 10.0491 21.8079C11.9889 22.1937 13.9996 21.9957 15.8268 21.2388C17.6541 20.4819 19.2159 19.2002 20.3147 17.5557C21.4135 15.9112 22 13.9778 22 12C22 10.6868 21.7413 9.38642 21.2388 8.17317C20.7363 6.95991 19.9997 5.85752 19.0711 4.92893C18.1425 4.00035 17.0401 3.26375 15.8268 2.7612C14.6136 2.25866 13.3132 2 12 2ZM12 21.5C10.1211 21.5 8.28435 20.9428 6.72209 19.899C5.15982 18.8551 3.94218 17.3714 3.22315 15.6355C2.50412 13.8996 2.31598 11.9895 2.68254 10.1466C3.0491 8.30382 3.95389 6.61108 5.28249 5.28249C6.61109 3.95389 8.30383 3.0491 10.1466 2.68254C11.9895 2.31598 13.8996 2.50411 15.6355 3.22314C17.3714 3.94218 18.8551 5.15982 19.899 6.72208C20.9428 8.28435 21.5 10.1211 21.5 12C21.4971 14.5187 20.4953 16.9334 18.7144 18.7144C16.9334 20.4953 14.5187 21.4971 12 21.5ZM16.6445 10.5C16.3478 10.5 16.0578 10.588 15.8111 10.7528C15.5645 10.9176 15.3722 11.1519 15.2587 11.426C15.1452 11.7001 15.1154 12.0017 15.1733 12.2926C15.2312 12.5836 15.3741 12.8509 15.5838 13.0607C15.7936 13.2704 16.0609 13.4133 16.3519 13.4712C16.6428 13.5291 16.9444 13.4994 17.2185 13.3858C17.4926 13.2723 17.7269 13.08 17.8917 12.8334C18.0565 12.5867 18.1445 12.2967 18.1445 12C18.1445 11.6022 17.9865 11.2206 17.7052 10.9393C17.4239 10.658 17.0423 10.5 16.6445 10.5ZM16.6445 13C16.4467 13 16.2534 12.9414 16.0889 12.8315C15.9245 12.7216 15.7963 12.5654 15.7206 12.3827C15.6449 12.2 15.6251 11.9989 15.6637 11.8049C15.7023 11.6109 15.7975 11.4327 15.9374 11.2929C16.0773 11.153 16.2554 11.0578 16.4494 11.0192C16.6434 10.9806 16.8445 11.0004 17.0272 11.0761C17.2099 11.1518 17.3661 11.28 17.476 11.4444C17.5859 11.6089 17.6445 11.8022 17.6445 12C17.6442 12.2651 17.5388 12.5193 17.3513 12.7068C17.1638 12.8943 16.9096 12.9997 16.6445 13ZM7.3555 10.5C7.05883 10.5 6.76882 10.588 6.52215 10.7528C6.27548 10.9176 6.08322 11.1519 5.96969 11.426C5.85615 11.7001 5.82645 12.0017 5.88433 12.2926C5.9422 12.5836 6.08507 12.8509 6.29484 13.0607C6.50462 13.2704 6.7719 13.4133 7.06287 13.4712C7.35384 13.5291 7.65544 13.4994 7.92953 13.3858C8.20362 13.2723 8.43789 13.08 8.60271 12.8334C8.76753 12.5867 8.8555 12.2967 8.8555 12C8.8555 11.6022 8.69747 11.2206 8.41616 10.9393C8.13486 10.658 7.75333 10.5 7.3555 10.5ZM7.3555 13C7.15772 13 6.96438 12.9414 6.79993 12.8315C6.63548 12.7216 6.50731 12.5654 6.43162 12.3827C6.35594 12.2 6.33613 11.9989 6.37472 11.8049C6.4133 11.6109 6.50854 11.4327 6.6484 11.2929C6.78825 11.153 6.96643 11.0578 7.16041 11.0192C7.35439 10.9806 7.55546 11.0004 7.73819 11.0761C7.92091 11.1518 8.07709 11.28 8.18697 11.4444C8.29686 11.6089 8.3555 11.8022 8.3555 12C8.35521 12.2651 8.24976 12.5193 8.06229 12.7068C7.87482 12.8943 7.62063 12.9997 7.3555 13ZM12 18C12.5304 18 13.0391 17.7893 13.4142 17.4142C13.7893 17.0391 14 16.5304 14 16H10C10 16.5304 10.2107 17.0391 10.5858 17.4142C10.9609 17.7893 11.4696 18 12 18ZM12 17.5C11.6899 17.4997 11.3875 17.4034 11.1343 17.2243C10.881 17.0453 10.6894 16.7923 10.5857 16.5H13.4143C13.3106 16.7923 13.119 17.0453 12.8658 17.2243C12.6125 17.4034 12.3101 17.4997 12 17.5Z" fill="black"/>
</svg>
