<svg width="24" height="24" viewBox="0 0 24 24" fill="none" xmlns="http://www.w3.org/2000/svg">
<path d="M18.9641 5H5.03588L0.571777 12L5.03588 19H18.9641L23.4282 12L18.9641 5ZM18.1416 17.5H5.85838L2.35078 12L5.85838 6.5H18.1416L21.6492 12L18.1416 17.5ZM17.3057 10.85C17.0782 10.85 16.8559 10.9174 16.6668 11.0438C16.4777 11.1702 16.3303 11.3498 16.2432 11.5599C16.1562 11.77 16.1334 12.0013 16.1778 12.2244C16.2221 12.4474 16.3317 12.6523 16.4925 12.8132C16.6533 12.974 16.8582 13.0835 17.0813 13.1279C17.3044 13.1723 17.5356 13.1495 17.7458 13.0625C17.9559 12.9754 18.1355 12.828 18.2619 12.6389C18.3882 12.4498 18.4557 12.2274 18.4557 12C18.4557 11.695 18.3345 11.4025 18.1189 11.1868C17.9032 10.9712 17.6107 10.85 17.3057 10.85ZM6.69428 10.85C6.46684 10.85 6.24452 10.9175 6.05543 11.0439C5.86634 11.1703 5.71897 11.3499 5.63196 11.5601C5.54495 11.7702 5.5222 12.0014 5.5666 12.2245C5.61099 12.4475 5.72054 12.6524 5.88138 12.8132C6.04221 12.9741 6.24712 13.0836 6.4702 13.1279C6.69327 13.1723 6.92449 13.1495 7.13461 13.0624C7.34473 12.9754 7.52433 12.828 7.65068 12.6389C7.77704 12.4498 7.84448 12.2274 7.84448 12C7.84448 11.849 7.81473 11.6994 7.75692 11.5599C7.69911 11.4203 7.61439 11.2935 7.50758 11.1868C7.40077 11.08 7.27397 10.9953 7.13443 10.9375C6.99488 10.8797 6.84531 10.85 6.69428 10.85ZM12 13.3267C11.7725 13.3267 11.5502 13.3941 11.3611 13.5205C11.172 13.6469 11.0246 13.8265 10.9375 14.0366C10.8505 14.2467 10.8277 14.478 10.8721 14.7011C10.9164 14.9241 11.026 15.129 11.1868 15.2899C11.3476 15.4507 11.5525 15.5602 11.7756 15.6046C11.9987 15.649 12.2299 15.6262 12.4401 15.5392C12.6502 15.4521 12.8298 15.3047 12.9562 15.1156C13.0825 14.9265 13.15 14.7041 13.15 14.4767C13.15 14.1717 13.0288 13.8792 12.8131 13.6635C12.5975 13.4479 12.305 13.3267 12 13.3267Z" fill="black"/>
</svg>
