<svg width="24" height="24" viewBox="0 0 24 24" fill="none" xmlns="http://www.w3.org/2000/svg">
<path d="M12 2C10.6868 2 9.38642 2.25866 8.17317 2.7612C6.95991 3.26375 5.85752 4.00035 4.92893 4.92893C3.05357 6.8043 2 9.34784 2 12V17C2 17.7956 2.31607 18.5587 2.87868 19.1213C3.44129 19.6839 4.20435 20 5 20H7V11H5.5C4.99295 11.002 4.49251 11.1151 4.0339 11.3314C4.2001 9.33295 5.11137 7.46996 6.58696 6.112C8.06255 4.75403 9.99465 4.00029 12 4.00029C14.0054 4.00029 15.9375 4.75403 17.413 6.112C18.8886 7.46996 19.7999 9.33295 19.9661 11.3314C19.5075 11.1151 19.007 11.002 18.5 11H17V20H19C19.7956 20 20.5587 19.6839 21.1213 19.1213C21.6839 18.5587 22 17.7956 22 17V12C22 10.6868 21.7413 9.38642 21.2388 8.17317C20.7362 6.95991 19.9997 5.85752 19.0711 4.92893C18.1425 4.00035 17.0401 3.26375 15.8268 2.7612C14.6136 2.25866 13.3132 2 12 2Z" fill="black"/>
</svg>
