<svg width="24" height="24" viewBox="0 0 24 24" fill="none" xmlns="http://www.w3.org/2000/svg">
<path d="M15 5H9C7.93913 5 6.92172 5.42143 6.17157 6.17157C5.42143 6.92172 5 7.93913 5 9V15C5 16.0609 5.42143 17.0783 6.17157 17.8284C6.92172 18.5786 7.93913 19 9 19H15C16.0609 19 17.0783 18.5786 17.8284 17.8284C18.5786 17.0783 19 16.0609 19 15V9C19 7.93913 18.5786 6.92172 17.8284 6.17157C17.0783 5.42143 16.0609 5 15 5ZM9 20C8.66412 20 8.32909 19.9661 8 19.8989V21C8 21.5304 8.21071 22.0391 8.58579 22.4142C8.96086 22.7893 9.46957 23 10 23H14C14.5304 23 15.0391 22.7893 15.4142 22.4142C15.7893 22.0391 16 21.5304 16 21V19.8989C15.6709 19.9661 15.3359 20 15 20H9ZM15 4C15.3359 4.00003 15.6709 4.03391 16 4.1011V3C16 2.46957 15.7893 1.96086 15.4142 1.58579C15.0391 1.21071 14.5304 1 14 1H10C9.46957 1 8.96086 1.21071 8.58579 1.58579C8.21071 1.96086 8 2.46957 8 3V4.1011C8.32909 4.03391 8.66412 4.00003 9 4H15Z" fill="black"/>
</svg>
