<svg width="24" height="24" viewBox="0 0 24 24" fill="none" xmlns="http://www.w3.org/2000/svg">
<path d="M16 2.99998H13.5764C13.5764 2.5819 13.4103 2.18093 13.1147 1.8853C12.8191 1.58967 12.4181 1.42358 12 1.42358C11.5819 1.42358 11.1809 1.58967 10.8853 1.8853C10.5897 2.18093 10.4236 2.5819 10.4236 2.99998H8C7.20435 2.99998 6.44129 3.31605 5.87868 3.87866C5.31607 4.44127 5 5.20433 5 5.99998V20C5 20.7956 5.31607 21.5587 5.87868 22.1213C6.44129 22.6839 7.20435 23 8 23H16C16.7956 23 17.5587 22.6839 18.1213 22.1213C18.6839 21.5587 19 20.7956 19 20V5.99998C19 5.20433 18.6839 4.44127 18.1213 3.87866C17.5587 3.31605 16.7956 2.99998 16 2.99998ZM17.5 20C17.4995 20.3977 17.3414 20.7789 17.0602 21.0601C16.779 21.3414 16.3977 21.4995 16 21.5H8C7.60231 21.4995 7.22104 21.3414 6.93984 21.0601C6.65863 20.7789 6.50045 20.3977 6.5 20V5.99998C6.50045 5.6023 6.65863 5.22103 6.93984 4.93982C7.22104 4.65861 7.60231 4.50043 8 4.49998H16C16.3977 4.50043 16.779 4.65861 17.0602 4.93982C17.3414 5.22103 17.4995 5.6023 17.5 5.99998V20ZM11.7544 16.4427C11.5731 16.4427 11.3959 16.4964 11.2451 16.5972C11.0944 16.6979 10.9769 16.8411 10.9075 17.0086C10.8381 17.1761 10.8199 17.3604 10.8553 17.5382C10.8907 17.716 10.978 17.8794 11.1062 18.0076C11.2344 18.1358 11.3977 18.2231 11.5756 18.2585C11.7534 18.2938 11.9377 18.2757 12.1052 18.2063C12.2727 18.1369 12.4159 18.0194 12.5166 17.8687C12.6173 17.7179 12.6711 17.5407 12.6711 17.3594C12.6711 17.239 12.6474 17.1198 12.6013 17.0086C12.5553 16.8973 12.4878 16.7963 12.4026 16.7112C12.3175 16.626 12.2164 16.5585 12.1052 16.5124C11.994 16.4664 11.8748 16.4427 11.7544 16.4427ZM12.0144 8.22458C10.45 8.22458 8.8709 9.30858 8.8709 11.7305H10.3045C10.3045 9.86048 11.4998 9.65818 12.0145 9.65818C12.4166 9.6261 12.8154 9.75162 13.1267 10.0082C13.438 10.2648 13.6373 10.6323 13.6825 11.0332C13.6825 11.7002 13.3954 11.9238 12.747 12.3672C12.2232 12.6405 11.7861 13.0546 11.4848 13.5629C11.1836 14.0711 11.0302 14.6534 11.0419 15.2441H12.4755C12.4755 14.2881 12.9055 13.9941 13.5546 13.5508C14.0203 13.3142 14.4122 12.9543 14.6875 12.5104C14.9628 12.0665 15.1111 11.5555 15.1161 11.0332C15.0743 10.2505 14.7249 9.5161 14.1439 8.99C13.5629 8.46389 12.7976 8.18877 12.0146 8.22458H12.0144Z" fill="black"/>
</svg>
