<svg width="24" height="24" viewBox="0 0 24 24" fill="none" xmlns="http://www.w3.org/2000/svg">
<path d="M16.9961 3.3464L16.4949 4.2146C18.2117 5.20435 19.5539 6.73307 20.3131 8.56356C21.0724 10.3941 21.2062 12.424 20.6939 14.3383C20.1817 16.2526 19.0519 17.9444 17.4799 19.151C15.9079 20.3577 13.9816 21.0117 11.9999 21.0117C10.0182 21.0117 8.09186 20.3577 6.51986 19.151C4.94787 17.9444 3.81807 16.2526 3.30578 14.3383C2.79349 12.424 2.92736 10.3941 3.6866 8.56356C4.44585 6.73307 5.78802 5.20435 7.50486 4.2146L7.00366 3.3464C5.09641 4.44641 3.60551 6.1451 2.76226 8.17895C1.91901 10.2128 1.77055 12.4681 2.33992 14.5949C2.90929 16.7218 4.16465 18.6012 5.91125 19.9418C7.65785 21.2823 9.79803 22.0089 11.9998 22.0089C14.2015 22.0089 16.3417 21.2823 18.0883 19.9418C19.8349 18.6012 21.0902 16.7218 21.6596 14.5949C22.229 12.4681 22.0805 10.2128 21.2373 8.17895C20.394 6.1451 18.9031 4.44641 16.9959 3.3464H16.9961ZM12.5 2H11.5V12H12.5V2Z" fill="black"/>
</svg>
