<svg width="24" height="24" viewBox="0 0 24 24" fill="none" xmlns="http://www.w3.org/2000/svg">
<path d="M16 3H14C14 2.46957 13.7893 1.96086 13.4142 1.58579C13.0391 1.21071 12.5304 1 12 1C11.4696 1 10.9609 1.21071 10.5858 1.58579C10.2107 1.96086 10 2.46957 10 3H8C7.20435 3 6.44129 3.31607 5.87868 3.87868C5.31607 4.44129 5 5.20435 5 6V20C5 20.7956 5.31607 21.5587 5.87868 22.1213C6.44129 22.6839 7.20435 23 8 23H16C16.7956 23 17.5587 22.6839 18.1213 22.1213C18.6839 21.5587 19 20.7956 19 20V6C19 5.20435 18.6839 4.44129 18.1213 3.87868C17.5587 3.31607 16.7956 3 16 3ZM11.875 18.4C11.6476 18.4 11.4252 18.3326 11.2361 18.2062C11.047 18.0798 10.8996 17.9002 10.8125 17.6901C10.7255 17.48 10.7027 17.2487 10.7471 17.0256C10.7915 16.8026 10.901 16.5977 11.0618 16.4368C11.2227 16.276 11.4276 16.1665 11.6506 16.1221C11.8737 16.0777 12.105 16.1005 12.3151 16.1875C12.5252 16.2746 12.7048 16.422 12.8312 16.6111C12.9576 16.8002 13.025 17.0226 13.025 17.25C13.025 17.555 12.9038 17.8475 12.6882 18.0632C12.4725 18.2788 12.18 18.4 11.875 18.4ZM12.6328 14.75H11.1172L10.6562 8.25H13.0938L12.6328 14.75Z" fill="black"/>
</svg>
