<svg width="24" height="24" viewBox="0 0 24 24" fill="none" xmlns="http://www.w3.org/2000/svg">
<path d="M16 2H8C7.20435 2 6.44129 2.31607 5.87868 2.87868C5.31607 3.44129 5 4.20435 5 5V15C5 16.8565 5.7375 18.637 7.05025 19.9497C8.36301 21.2625 10.1435 22 12 22C13.8565 22 15.637 21.2625 16.9497 19.9497C18.2625 18.637 19 16.8565 19 15V5C19 4.20435 18.6839 3.44129 18.1213 2.87868C17.5587 2.31607 16.7956 2 16 2ZM6 5C6.00061 4.46975 6.21152 3.9614 6.58646 3.58646C6.9614 3.21152 7.46975 3.00061 8 3H11.5V9H6V5ZM18 15C18 16.5913 17.3679 18.1174 16.2426 19.2426C15.1174 20.3679 13.5913 21 12 21C10.4087 21 8.88258 20.3679 7.75736 19.2426C6.63214 18.1174 6 16.5913 6 15V10H18V15ZM12.5 9V3H16C16.5302 3.00061 17.0386 3.21152 17.4135 3.58646C17.7885 3.9614 17.9994 4.46975 18 5V9H12.5Z" fill="black"/>
</svg>
