<svg width="24" height="24" viewBox="0 0 24 24" fill="none" xmlns="http://www.w3.org/2000/svg">
<path d="M16 2H8C7.46957 2 6.96086 2.21071 6.58579 2.58579C6.21071 2.96086 6 3.46957 6 4V12C6.00079 12.3496 6.09362 12.6929 6.26916 12.9953C6.4447 13.2977 6.69676 13.5485 7 13.7226V20C7 20.5304 7.21071 21.0391 7.58579 21.4142C7.96086 21.7893 8.46957 22 9 22H15C15.5304 22 16.0391 21.7893 16.4142 21.4142C16.7893 21.0391 17 20.5304 17 20V13.7226C17.3032 13.5485 17.5553 13.2977 17.7308 12.9953C17.9064 12.6929 17.9992 12.3496 18 12V4C18 3.46957 17.7893 2.96086 17.4142 2.58579C17.0391 2.21071 16.5304 2 16 2ZM7.5 4C7.50016 3.86744 7.55289 3.74036 7.64662 3.64662C7.74036 3.55289 7.86744 3.50016 8 3.5H16C16.1326 3.50016 16.2596 3.55289 16.3534 3.64662C16.4471 3.74036 16.4998 3.86744 16.5 4V12C16.4998 12.1326 16.4471 12.2596 16.3534 12.3534C16.2596 12.4471 16.1326 12.4998 16 12.5H8C7.86744 12.4998 7.74036 12.4471 7.64662 12.3534C7.55289 12.2596 7.50016 12.1326 7.5 12V4ZM8.5 14H11.3V16.3H8.5V14ZM8.5 20V17.7H11.3V20.5H9C8.86744 20.4998 8.74036 20.4471 8.64662 20.3534C8.55289 20.2596 8.50016 20.1326 8.5 20ZM15.5 20C15.4998 20.1326 15.4471 20.2596 15.3534 20.3534C15.2596 20.4471 15.1326 20.4998 15 20.5H12.7V17.7H15.5V20ZM12.7 16.3V14H15.5V16.3H12.7Z" fill="black"/>
</svg>
