<svg width="24" height="24" viewBox="0 0 24 24" fill="none" xmlns="http://www.w3.org/2000/svg">
<path d="M16.5 3H14C14 2.46957 13.7893 1.96086 13.4142 1.58579C13.0391 1.21071 12.5304 1 12 1C11.4696 1 10.9609 1.21071 10.5858 1.58579C10.2107 1.96086 10 2.46957 10 3H7.5C6.83696 3 6.20107 3.26339 5.73223 3.73223C5.26339 4.20107 5 4.83696 5 5.5V20.5C5 21.163 5.26339 21.7989 5.73223 22.2678C6.20107 22.7366 6.83696 23 7.5 23H16.5C17.163 23 17.7989 22.7366 18.2678 22.2678C18.7366 21.7989 19 21.163 19 20.5V5.5C19 4.83696 18.7366 4.20107 18.2678 3.73223C17.7989 3.26339 17.163 3 16.5 3ZM12 2C12.2651 2.00029 12.5193 2.10574 12.7068 2.29321C12.8943 2.48069 12.9997 2.73487 13 3H11C11.0003 2.73487 11.1057 2.48069 11.2932 2.29321C11.4807 2.10574 11.7349 2.00029 12 2ZM18 20.5C17.9995 20.8977 17.8414 21.279 17.5602 21.5602C17.279 21.8414 16.8977 21.9995 16.5 22H7.5C7.10231 21.9995 6.72104 21.8414 6.43984 21.5602C6.15863 21.279 6.00045 20.8977 6 20.5V5.5C6.00045 5.10231 6.15863 4.72104 6.43984 4.43984C6.72104 4.15863 7.10231 4.00045 7.5 4H16.5C16.8977 4.00045 17.279 4.15863 17.5602 4.43984C17.8414 4.72104 17.9995 5.10231 18 5.5V20.5ZM11.7544 16.7854C11.6193 16.7854 11.4872 16.8255 11.3748 16.9005C11.2624 16.9756 11.1748 17.0823 11.1231 17.2072C11.0714 17.332 11.0579 17.4694 11.0842 17.602C11.1106 17.7345 11.1756 17.8563 11.2712 17.9518C11.3667 18.0474 11.4885 18.1125 11.621 18.1389C11.7536 18.1652 11.891 18.1517 12.0158 18.1C12.1407 18.0483 12.2474 17.9607 12.3225 17.8484C12.3976 17.736 12.4377 17.6039 12.4377 17.4688C12.4377 17.2876 12.3657 17.1138 12.2376 16.9856C12.1094 16.8574 11.9356 16.7854 11.7544 16.7854ZM12.0166 8.2266C10.6338 8.2266 9.0186 9.1104 9.0186 11.6016H9.9854C9.9854 10.0938 10.7454 9.1934 12.0166 9.1934C12.516 9.15458 13.011 9.31163 13.3967 9.63132C13.7824 9.951 14.0285 10.4082 14.083 10.9062C14.083 11.6748 13.6855 11.9795 12.9824 12.4512C12.4622 12.7075 12.0251 13.1058 11.7217 13.6C11.4182 14.0942 11.2608 14.6642 11.2676 15.2441H12.2344C12.2287 14.8226 12.3478 14.4087 12.5766 14.0547C12.8054 13.7006 13.1338 13.4221 13.5205 13.2541C13.9669 13.0415 14.3459 12.7097 14.6157 12.2954C14.8856 11.8812 15.0359 11.4004 15.05 10.9062C15.0279 10.5307 14.9317 10.1633 14.7671 9.82505C14.6024 9.48684 14.3725 9.18452 14.0906 8.93549C13.8087 8.68645 13.4803 8.49562 13.1244 8.37396C12.7685 8.2523 12.392 8.20222 12.0166 8.2266Z" fill="black"/>
</svg>
