<svg width="24" height="24" viewBox="0 0 24 24" fill="none" xmlns="http://www.w3.org/2000/svg">
<path d="M20 5H4C3.46957 5 2.96086 5.21071 2.58579 5.58579C2.21071 5.96086 2 6.46957 2 7V17C2 17.5304 2.21071 18.0391 2.58579 18.4142C2.96086 18.7893 3.46957 19 4 19H20C20.5304 19 21.0391 18.7893 21.4142 18.4142C21.7893 18.0391 22 17.5304 22 17V7C22 6.46957 21.7893 5.96086 21.4142 5.58579C21.0391 5.21071 20.5304 5 20 5ZM21.5 17C21.4995 17.3977 21.3414 17.779 21.0602 18.0602C20.779 18.3414 20.3977 18.4995 20 18.5H4C3.60231 18.4995 3.22104 18.3414 2.93984 18.0602C2.65863 17.779 2.50045 17.3977 2.5 17V7C2.50045 6.60231 2.65863 6.22104 2.93984 5.93984C3.22104 5.65863 3.60231 5.50045 4 5.5H20C20.3977 5.50045 20.779 5.65863 21.0602 5.93984C21.3414 6.22104 21.4995 6.60231 21.5 7V17ZM5.125 10.875C4.9025 10.875 4.68499 10.941 4.49998 11.0646C4.31498 11.1882 4.17078 11.3639 4.08564 11.5695C4.00049 11.775 3.97821 12.0012 4.02162 12.2195C4.06502 12.4377 4.17217 12.6382 4.3295 12.7955C4.48684 12.9528 4.68729 13.06 4.90552 13.1034C5.12375 13.1468 5.34995 13.1245 5.55552 13.0394C5.76109 12.9542 5.93679 12.81 6.0604 12.625C6.18402 12.44 6.25 12.2225 6.25 12C6.25 11.7016 6.13147 11.4155 5.9205 11.2045C5.70952 10.9935 5.42337 10.875 5.125 10.875ZM5.125 12.625C5.00139 12.625 4.88055 12.5883 4.77777 12.5197C4.67499 12.451 4.59488 12.3534 4.54758 12.2392C4.50027 12.125 4.48789 11.9993 4.51201 11.8781C4.53612 11.7568 4.59565 11.6455 4.68306 11.5581C4.77047 11.4707 4.88183 11.4111 5.00307 11.387C5.12431 11.3629 5.24997 11.3753 5.36418 11.4226C5.47838 11.4699 5.57599 11.55 5.64467 11.6528C5.71334 11.7555 5.75 11.8764 5.75 12C5.74981 12.1657 5.68391 12.3246 5.56674 12.4417C5.44957 12.5589 5.2907 12.6248 5.125 12.625Z" fill="black"/>
</svg>
