<svg width="24" height="24" viewBox="0 0 24 24" fill="none" xmlns="http://www.w3.org/2000/svg">
<path d="M7.8 7.5H6.2V9.2H4.5V10.8H6.2V12.5H7.8V10.8H9.5V9.2H7.8V7.5ZM17 7.5C16.4216 7.50002 15.8611 7.70058 15.414 8.06751C14.9669 8.43445 14.6609 8.94506 14.5481 9.51233C14.4353 10.0796 14.5226 10.6685 14.7953 11.1785C15.068 11.6886 15.509 12.0884 16.0434 12.3097C16.5778 12.531 17.1724 12.5602 17.7258 12.3923C18.2793 12.2244 18.7574 11.8698 19.0788 11.3889C19.4001 10.908 19.5447 10.3305 19.488 9.75491C19.4313 9.17931 19.1768 8.64117 18.7678 8.2322C18.5359 7.99971 18.2603 7.81534 17.957 7.68968C17.6536 7.56403 17.3284 7.49957 17 7.5ZM17.6364 10.6364C17.4892 10.7836 17.2954 10.8753 17.0882 10.8957C16.881 10.9161 16.6731 10.864 16.5 10.7483C16.3269 10.6327 16.1992 10.4605 16.1388 10.2613C16.0783 10.062 16.0888 9.84797 16.1685 9.6556C16.2482 9.46323 16.3921 9.30444 16.5757 9.20628C16.7594 9.10813 16.9714 9.07668 17.1756 9.1173C17.3798 9.15792 17.5636 9.26809 17.6957 9.42905C17.8278 9.59 17.9 9.79178 17.9 10C17.9003 10.1182 17.8772 10.2354 17.8319 10.3446C17.7867 10.4538 17.7202 10.553 17.6364 10.6364ZM18 4H6C5.34339 4 4.69321 4.12933 4.08658 4.3806C3.47995 4.63188 2.92876 5.00017 2.46447 5.46447C1.52678 6.40215 1 7.67392 1 9V17.4222C0.999698 18.2539 1.28916 19.0597 1.81862 19.7011C2.34808 20.3425 3.08446 20.7794 3.90114 20.9366C4.71782 21.0939 5.56379 20.9618 6.29358 20.5629C7.02338 20.164 7.5914 19.5233 7.9 18.751L9 16H15L16.1 18.751C16.4086 19.5233 16.9766 20.164 17.7064 20.5629C18.4362 20.9618 19.2822 21.0939 20.0989 20.9366C20.9155 20.7794 21.6519 20.3425 22.1814 19.7011C22.7108 19.0597 23.0003 18.2539 23 17.4222V9C23 8.34339 22.8707 7.69321 22.6194 7.08658C22.3681 6.47995 21.9998 5.92876 21.5355 5.46447C21.0712 5.00017 20.52 4.63188 19.9134 4.3806C19.3068 4.12933 18.6566 4 18 4ZM21 17.4222C21 17.7889 20.8722 18.1441 20.6388 18.4268C20.4053 18.7095 20.0806 18.9021 19.7206 18.9714C19.3605 19.0408 18.9876 18.9825 18.6658 18.8068C18.344 18.631 18.0935 18.3486 17.9573 18.0082L16.8573 15.2572L16.3541 14H7.6459L7.1431 15.2572L6.0431 18.0082C5.90706 18.3489 5.65656 18.6315 5.33469 18.8075C5.01281 18.9835 4.63967 19.0418 4.27945 18.9724C3.91923 18.9031 3.59443 18.7103 3.36092 18.4274C3.12742 18.1445 2.99979 17.789 3 17.4222V9C3.0009 8.20463 3.31726 7.44209 3.87967 6.87967C4.44209 6.31726 5.20463 6.0009 6 6H18C18.7954 6.0009 19.5579 6.31726 20.1203 6.87967C20.6827 7.44209 20.9991 8.20463 21 9V17.4222Z" fill="black"/>
</svg>
