<svg width="24" height="24" viewBox="0 0 24 24" fill="none" xmlns="http://www.w3.org/2000/svg">
<path d="M16 6.26V3C16 2.46957 15.7893 1.96086 15.4142 1.58579C15.0391 1.21071 14.5304 1 14 1H9.99997C9.46954 1 8.96083 1.21071 8.58576 1.58579C8.21069 1.96086 7.99997 2.46957 7.99997 3V6.26C7.07404 6.90385 6.31761 7.76215 5.79522 8.76166C5.27283 9.76117 5 10.8722 5 12C5 13.1278 5.27283 14.2388 5.79522 15.2383C6.31761 16.2379 7.07404 17.0961 7.99997 17.74V21C7.99997 21.5304 8.21069 22.0391 8.58576 22.4142C8.96083 22.7893 9.46954 23 9.99997 23H14C14.5304 23 15.0391 22.7893 15.4142 22.4142C15.7893 22.0391 16 21.5304 16 21V17.74C16.9259 17.0961 17.6823 16.2379 18.2047 15.2383C18.7271 14.2388 19 13.1278 19 12C19 10.8722 18.7271 9.76117 18.2047 8.76166C17.6823 7.76215 16.9259 6.90385 16 6.26ZM8.49997 3C8.50042 2.60231 8.6586 2.22104 8.93981 1.93984C9.22102 1.65863 9.60229 1.50045 9.99997 1.5H14C14.3977 1.50045 14.7789 1.65863 15.0601 1.93984C15.3413 2.22104 15.4995 2.60231 15.5 3V5.9441C14.4372 5.32578 13.2295 5.00005 12 5.00005C10.7704 5.00005 9.56277 5.32578 8.49997 5.9441V3ZM15.5 21C15.4995 21.3977 15.3413 21.779 15.0601 22.0602C14.7789 22.3414 14.3977 22.4995 14 22.5H9.99997C9.60229 22.4995 9.22102 22.3414 8.93981 22.0602C8.6586 21.779 8.50042 21.3977 8.49997 21V18.0559C9.56277 18.6742 10.7704 19 12 19C13.2295 19 14.4372 18.6742 15.5 18.0559V21ZM12 18.5C10.7144 18.5 9.45769 18.1188 8.38877 17.4046C7.31985 16.6903 6.48673 15.6752 5.99476 14.4874C5.50279 13.2997 5.37407 11.9928 5.62487 10.7319C5.87567 9.47104 6.49474 8.31285 7.40378 7.40381C8.31282 6.49476 9.47101 5.8757 10.7319 5.6249C11.9928 5.37409 13.2997 5.50281 14.4874 5.99478C15.6751 6.48675 16.6903 7.31987 17.4045 8.38879C18.1188 9.45771 18.5 10.7144 18.5 12C18.498 13.7233 17.8126 15.3755 16.594 16.594C15.3754 17.8126 13.7233 18.498 12 18.5ZM12.1172 8H11.6172V12.3828H15.4072V11.8828H12.1172V8Z" fill="black"/>
</svg>
