<svg width="24" height="24" viewBox="0 0 24 24" fill="none" xmlns="http://www.w3.org/2000/svg">
<path d="M6.49999 13.7999C5.7682 13.7999 5.05284 14.0169 4.44438 14.4235C3.83592 14.83 3.36168 15.4079 3.08164 16.084C2.80159 16.7601 2.72832 17.504 2.87108 18.2217C3.01385 18.9395 3.36624 19.5987 3.88369 20.1162C4.40115 20.6337 5.06043 20.986 5.77816 21.1288C6.49588 21.2716 7.23983 21.1983 7.91592 20.9183C8.592 20.6382 9.16987 20.164 9.57643 19.5555C9.98299 18.9471 10.2 18.2317 10.2 17.4999C10.2 16.5186 9.81017 15.5775 9.11628 14.8836C8.4224 14.1897 7.48129 13.7999 6.49999 13.7999ZM6.49999 20.1999C5.96598 20.1999 5.44396 20.0416 4.99995 19.7449C4.55594 19.4482 4.20987 19.0265 4.00551 18.5331C3.80116 18.0398 3.74769 17.4969 3.85187 16.9732C3.95605 16.4494 4.2132 15.9683 4.5908 15.5907C4.9684 15.2131 5.4495 14.956 5.97325 14.8518C6.49699 14.7476 7.03987 14.8011 7.53323 15.0054C8.0266 15.2098 8.44828 15.5559 8.74496 15.9999C9.04164 16.4439 9.19999 16.9659 9.19999 17.4999C9.1992 18.2157 8.91448 18.902 8.4083 19.4082C7.90212 19.9144 7.21583 20.1991 6.49999 20.1999ZM17.5 10.6767C17.9072 10.6767 18.3104 10.5965 18.6866 10.4406C19.0629 10.2848 19.4047 10.0564 19.6926 9.7684C19.9806 9.48045 20.209 9.1386 20.3648 8.76237C20.5206 8.38615 20.6008 7.98292 20.6008 7.5757C20.6008 5.0949 17.5 1.9165 17.5 1.9165C17.5 1.9165 14.3992 5.0949 14.3992 7.5757C14.3992 7.98292 14.4794 8.38615 14.6352 8.76237C14.791 9.1386 15.0194 9.48045 15.3074 9.7684C15.5953 10.0564 15.9371 10.2848 16.3133 10.4406C16.6895 10.5965 17.0928 10.6767 17.5 10.6767ZM17.4985 3.4262C18.3975 4.5276 19.6008 6.29 19.6008 7.5762C19.6008 8.13337 19.3795 8.66772 18.9855 9.06169C18.5915 9.45567 18.0572 9.677 17.5 9.677C16.9428 9.677 16.4085 9.45567 16.0145 9.06169C15.6205 8.66772 15.3992 8.13337 15.3992 7.5762C15.3992 6.2799 16.5886 4.5355 17.4985 3.4262ZM14 13.9999V20.9999H21V13.9999H14ZM20 19.9999H15V14.9999H20V19.9999ZM9.15619 9.9999L10.1562 2.9999H2.84379L3.84379 9.9999H9.15619ZM9.00319 3.9999L8.28909 8.9999H4.71089L3.99679 3.9999H9.00319Z" fill="black"/>
</svg>
