<svg width="24" height="24" viewBox="0 0 24 24" fill="none" xmlns="http://www.w3.org/2000/svg">
<path d="M12 2.80371L3 7.99991V20.9999H21V7.99991L12 2.80371ZM12.7275 15.9999H12.45V17.0499H11.55V15.9999H9.75V14.9999H12.7275C12.9264 14.9999 13.1172 14.9209 13.2578 14.7802C13.3985 14.6396 13.4775 14.4488 13.4775 14.2499C13.4775 14.051 13.3985 13.8602 13.2578 13.7196C13.1172 13.5789 12.9264 13.4999 12.7275 13.4999H11.2646C10.8005 13.4999 10.3554 13.3155 10.0272 12.9873C9.69897 12.6592 9.5146 12.214 9.5146 11.7499C9.5146 11.2858 9.69897 10.8407 10.0272 10.5125C10.3554 10.1843 10.8005 9.99991 11.2646 9.99991H11.55V8.94991H12.45V9.99991H13.9842V10.9999H11.2642C11.0653 10.9999 10.8745 11.0789 10.7339 11.2196C10.5932 11.3602 10.5142 11.551 10.5142 11.7499C10.5142 11.9488 10.5932 12.1396 10.7339 12.2802C10.8745 12.4209 11.0653 12.4999 11.2642 12.4999H12.7271C13.1912 12.4999 13.6363 12.6843 13.9645 13.0125C14.2927 13.3407 14.4771 13.7858 14.4771 14.2499C14.4771 14.714 14.2927 15.1592 13.9645 15.4873C13.6363 15.8155 13.1912 15.9999 12.7271 15.9999H12.7275Z" fill="black"/>
</svg>
