<svg width="24" height="24" viewBox="0 0 24 24" fill="none" xmlns="http://www.w3.org/2000/svg">
<path d="M12.75 10V8H16C16.2652 8 16.5196 7.89464 16.7071 7.70711C16.8946 7.51957 17 7.26522 17 7V3C17 2.73478 16.8946 2.48043 16.7071 2.29289C16.5196 2.10536 16.2652 2 16 2H8C7.73478 2 7.48043 2.10536 7.29289 2.29289C7.10536 2.48043 7 2.73478 7 3V7C7 7.26522 7.10536 7.51957 7.29289 7.70711C7.48043 7.89464 7.73478 8 8 8H11.25V10H3V21H4.5V15H19.5V21H21V10H12.75ZM8.5 6.5V3.5H15.5V6.5H8.5ZM4.5 13.5V11.5H19.5V13.5H4.5Z" fill="black"/>
</svg>
