<svg width="24" height="24" viewBox="0 0 24 24" fill="none" xmlns="http://www.w3.org/2000/svg">
<path d="M2.5 14H2V21H2.5V19H21.5V21H22V14H2.5ZM21.5 18.5H2.5V14.5H21.5V18.5ZM2 3V6H9.5V9C9.5 9.39782 9.34196 9.77936 9.06066 10.0607C8.77936 10.342 8.39782 10.5 8 10.5C7.60218 10.5 7.22064 10.342 6.93934 10.0607C6.65804 9.77936 6.5 9.39782 6.5 9V8H6V9C6 9.53043 6.21071 10.0391 6.58579 10.4142C6.96086 10.7893 7.46957 11 8 11C8.53043 11 9.03914 10.7893 9.41421 10.4142C9.78929 10.0391 10 9.53043 10 9V6H16.5V9C16.5 9.39782 16.342 9.77936 16.0607 10.0607C15.7794 10.342 15.3978 10.5 15 10.5C14.6022 10.5 14.2206 10.342 13.9393 10.0607C13.658 9.77936 13.5 9.39782 13.5 9V8H13V9C13 9.53043 13.2107 10.0391 13.5858 10.4142C13.9609 10.7893 14.4696 11 15 11C15.5304 11 16.0391 10.7893 16.4142 10.4142C16.7893 10.0391 17 9.53043 17 9V6H22V3H2ZM21.5 5.5H2.5V3.5H21.5V5.5Z" fill="black"/>
</svg>
