<svg width="24" height="24" viewBox="0 0 24 24" fill="none" xmlns="http://www.w3.org/2000/svg">
<path d="M20 4V8H16V4H15V8H11.21L10.68 6.94C10.5389 6.65765 10.3219 6.42017 10.0535 6.25414C9.78503 6.08812 9.47565 6.00012 9.16 6H7.4642C7.14845 6.00001 6.83894 6.08796 6.57037 6.25399C6.30179 6.42001 6.08476 6.65756 5.9436 6.94L5.4135 8H4V4H3V20H4V17H15V20H16V17H20V20H21V4H20ZM6.838 7.387C6.8958 7.27044 6.98511 7.1724 7.09579 7.104C7.20646 7.0356 7.33409 6.99957 7.4642 7H9.16C9.29009 6.99958 9.4177 7.03561 9.52837 7.10401C9.63903 7.17241 9.72831 7.27044 9.7861 7.387L10.0923 8H6.5315L6.838 7.387ZM6.5315 16L6.838 15.387C6.8958 15.2704 6.98511 15.1724 7.09579 15.104C7.20646 15.0356 7.33409 14.9996 7.4642 15H9.16C9.29009 14.9996 9.4177 15.0356 9.52837 15.104C9.63903 15.1724 9.72831 15.2704 9.7861 15.387L10.0926 16H6.5315ZM11.21 16L10.68 14.94C10.5389 14.6577 10.3219 14.4202 10.0535 14.2541C9.78503 14.0881 9.47565 14.0001 9.16 14H7.4642C7.14845 14 6.83894 14.088 6.57037 14.254C6.30179 14.42 6.08476 14.6576 5.9436 14.94L5.4135 16H4V9H15V16H11.21ZM20 16H16V13H20V16ZM20 12H16V9H20V12Z" fill="black"/>
</svg>
