<svg width="24" height="24" viewBox="0 0 24 24" fill="none" xmlns="http://www.w3.org/2000/svg">
<path d="M21 10.1809V8C21 7.20435 20.6839 6.44129 20.1213 5.87868C19.5587 5.31607 18.7956 5 18 5H6C5.20435 5 4.44129 5.31607 3.87868 5.87868C3.31607 6.44129 3 7.20435 3 8V10.1809C2.41664 10.3842 1.91084 10.7636 1.55254 11.2669C1.19425 11.7701 1.00117 12.3722 1 12.99V17C1 17.5304 1.21071 18.0391 1.58579 18.4142C1.96086 18.7893 2.46957 19 3 19V21H5V19H19V21H21V19C21.5304 19 22.0391 18.7893 22.4142 18.4142C22.7893 18.0391 23 17.5304 23 17V12.99C22.9988 12.3722 22.8057 11.7701 22.4475 11.2669C22.0892 10.7636 21.5834 10.3842 21 10.1809ZM6 7H18C18.2651 7.00029 18.5193 7.10574 18.7068 7.29321C18.8943 7.48069 18.9997 7.73487 19 8V10.1809C18.4166 10.3842 17.9108 10.7636 17.5525 11.2669C17.1943 11.7701 17.0012 12.3722 17 12.99V13H6.9792V12.99C6.97815 12.3759 6.78746 11.7771 6.4332 11.2754C6.07894 10.7738 5.5784 10.3938 5 10.1874V8C5.00029 7.73487 5.10574 7.48069 5.29321 7.29321C5.48069 7.10574 5.73487 7.00029 6 7ZM21 17H3V12.99C2.99697 12.8577 3.02049 12.7261 3.06918 12.6031C3.11787 12.48 3.19074 12.368 3.28348 12.2736C3.37622 12.1791 3.48694 12.1043 3.60911 12.0534C3.73128 12.0025 3.8624 11.9767 3.99474 11.9773C4.12708 11.978 4.25794 12.0052 4.37959 12.0573C4.50123 12.1094 4.6112 12.1854 4.70298 12.2807C4.79476 12.3761 4.86649 12.4888 4.91393 12.6124C4.96138 12.7359 4.98357 12.8677 4.9792 13V15H17L19 14.99V12.99C19.0002 12.7275 19.1045 12.4758 19.2902 12.2902C19.4758 12.1045 19.7275 12.0002 19.99 12H20.01C20.2725 12.0002 20.5242 12.1045 20.7098 12.2902C20.8955 12.4758 20.9998 12.7275 21 12.99V17Z" fill="black"/>
</svg>
