<svg width="24" height="24" viewBox="0 0 24 24" fill="none" xmlns="http://www.w3.org/2000/svg">
<path d="M18 5C17.2044 5 16.4413 5.31607 15.8787 5.87868C15.3161 6.44129 15 7.20435 15 8V9H16.5V8C16.5 7.60218 16.658 7.22064 16.9393 6.93934C17.2206 6.65804 17.6022 6.5 18 6.5C18.3978 6.5 18.7794 6.65804 19.0607 6.93934C19.342 7.22064 19.5 7.60218 19.5 8V11H3V21H21V8C21 7.20435 20.6839 6.44129 20.1213 5.87868C19.5587 5.31607 18.7956 5 18 5ZM11.25 19.5H4.5V12.5H11.25V19.5ZM19.5 19.5H12.75V15.75H19.5V19.5ZM19.5 14.25H12.75V12.5H19.5V14.25ZM13 6.9062L11 4.9062V2H5V4.9062L3 6.9062V9H13V6.9062ZM4.5276 7.5L6.5 5.5275V3.5H9.5V5.5275L11.4724 7.5H4.5276Z" fill="black"/>
</svg>
