<svg width="24" height="24" viewBox="0 0 24 24" fill="none" xmlns="http://www.w3.org/2000/svg">
<path d="M20 11V6C20 5.46957 19.7893 4.96086 19.4142 4.58579C19.0391 4.21071 18.5304 4 18 4H6C5.46957 4 4.96086 4.21071 4.58579 4.58579C4.21071 4.96086 4 5.46957 4 6V11H2V20H22V11H20ZM6 6H18V11H17.1494L16.6331 9.9673C16.4878 9.67664 16.2643 9.43219 15.9879 9.26134C15.7114 9.0905 15.3929 9 15.0679 9H14.5955C14.2705 9 13.952 9.0905 13.6755 9.26134C13.3991 9.43219 13.1756 9.67664 13.0303 9.9673L12.5139 11H11.4861L10.97 9.9673C10.8246 9.67659 10.6012 9.43211 10.3247 9.26126C10.0482 9.09041 9.72953 8.99995 9.4045 9H8.9321C8.60712 9 8.28856 9.0905 8.01211 9.26134C7.73566 9.43219 7.51225 9.67664 7.3669 9.9673L6.8506 11H6V6ZM20 18H4V13H20V18ZM8.75 15.8447C9.15277 15.8556 9.54205 15.9922 9.8633 16.2354C10.4815 16.6939 11.2308 16.9414 12.0005 16.9414C12.7702 16.9414 13.5195 16.6939 14.1377 16.2354C14.4521 15.9795 14.8451 15.8399 15.2505 15.8399C15.6559 15.8399 16.0489 15.9795 16.3633 16.2354C16.9853 16.6868 17.7316 16.9348 18.5 16.9454V15.1445C18.0977 15.1336 17.7088 14.9972 17.3877 14.7545C16.7699 14.2951 16.0204 14.0469 15.2505 14.0469C14.4806 14.0469 13.7311 14.2951 13.1133 14.7545C12.7985 15.0094 12.4056 15.1486 12.0005 15.1486C11.5954 15.1486 11.2025 15.0094 10.8877 14.7545C10.2657 14.3023 9.51892 14.0539 8.75 14.0435C7.98136 14.0537 7.23483 14.3022 6.6133 14.7545C6.29179 14.9971 5.90263 15.1334 5.5 15.1445V16.9453C6.2687 16.9345 7.0153 16.6866 7.6377 16.2353C7.95853 15.992 8.34752 15.8554 8.75 15.8447Z" fill="black"/>
</svg>
