<svg width="24" height="24" viewBox="0 0 24 24" fill="none" xmlns="http://www.w3.org/2000/svg">
<path d="M20 10H11.0751L10.5588 8.9673C10.4134 8.67662 10.19 8.43216 9.91355 8.26132C9.63708 8.09047 9.3185 7.99998 8.9935 8H7.9648C7.63989 8.00008 7.32141 8.0906 7.04504 8.26145C6.76867 8.43229 6.54532 8.6767 6.4 8.9673L5.8832 10H4C3.46957 10 2.96086 10.2107 2.58579 10.5858C2.21071 10.9609 2 11.4696 2 12V14C2 14.5304 2.21071 15.0391 2.58579 15.4142C2.96086 15.7893 3.46957 16 4 16H20C20.5304 16 21.0391 15.7893 21.4142 15.4142C21.7893 15.0391 22 14.5304 22 14V12C22 11.4696 21.7893 10.9609 21.4142 10.5858C21.0391 10.2107 20.5304 10 20 10Z" fill="black"/>
</svg>
