<svg width="24" height="24" viewBox="0 0 24 24" fill="none" xmlns="http://www.w3.org/2000/svg">
<path d="M6.26172 22H6.76592L7.33752 18H16.0338L16.6052 22H17.1094L16.538 18H18V17.5H16.4666L15.3952 10H17V8.36C17 7.99931 16.8567 7.65338 16.6017 7.39833C16.3466 7.14329 16.0007 7 15.64 7H10.9062L9.05002 1.7968C8.96685 1.56366 8.81361 1.36194 8.61131 1.21929C8.40901 1.07664 8.16755 1.00005 7.92002 1H6.41312L7.98712 9.9266L6.26172 22ZM14.8911 10L15.9624 17.5H7.40902L8.48072 10H14.8911Z" fill="black"/>
</svg>
