<svg width="24" height="24" viewBox="0 0 24 24" fill="none" xmlns="http://www.w3.org/2000/svg">
<path d="M2 21H3.5V19H20.5V21H22V14H2V21ZM3.5 15.5H20.5V17.5H3.5V15.5ZM2 3V4.5H8.5V7.5C8.5 7.76522 8.39464 8.01957 8.20711 8.20711C8.01957 8.39464 7.76522 8.5 7.5 8.5C7.23478 8.5 6.98043 8.39464 6.79289 8.20711C6.60536 8.01957 6.5 7.76522 6.5 7.5V7H5V7.5C5 8.16304 5.26339 8.79893 5.73223 9.26777C6.20107 9.73661 6.83696 10 7.5 10C8.16304 10 8.79893 9.73661 9.26777 9.26777C9.73661 8.79893 10 8.16304 10 7.5V4.5H16.5V7.5C16.5 7.76522 16.3946 8.01957 16.2071 8.20711C16.0196 8.39464 15.7652 8.5 15.5 8.5C15.2348 8.5 14.9804 8.39464 14.7929 8.20711C14.6054 8.01957 14.5 7.76522 14.5 7.5V7H13V7.5C13 8.16304 13.2634 8.79893 13.7322 9.26777C14.2011 9.73661 14.837 10 15.5 10C16.163 10 16.7989 9.73661 17.2678 9.26777C17.7366 8.79893 18 8.16304 18 7.5V4.5H22V3H2Z" fill="black"/>
</svg>
