<svg width="24" height="24" viewBox="0 0 24 24" fill="none" xmlns="http://www.w3.org/2000/svg">
<path d="M18.8771 12.6849L18.5334 10.8125C18.474 10.4907 18.3038 10.1999 18.0523 9.99054C17.8007 9.7812 17.4838 9.66659 17.1566 9.6666H9.4677L7.4238 2.0377C7.34405 1.74 7.16829 1.47694 6.92378 1.28932C6.67928 1.1017 6.3797 1 6.0715 1H4.1134L5.9207 11.2062C6.02605 11.7975 6.31484 12.3406 6.74612 12.7586C7.17741 13.1766 7.72931 13.4482 8.3236 13.535L6.0543 22H7.0215L7.8861 18.7738L12.033 16.38L16.1007 18.7284L16.9773 22H17.9446L15.528 12.9818L18.8771 12.6849ZM6.9053 11.0312L5.3057 2H6.0713C6.15942 2.00015 6.24503 2.02931 6.31492 2.08298C6.38481 2.13664 6.4351 2.21181 6.458 2.2969L8.7 10.667H17.156C17.2494 10.6669 17.3398 10.6994 17.4117 10.759C17.4836 10.8186 17.5324 10.9014 17.5496 10.9932L17.6951 11.7852L8.907 12.5645C8.8484 12.5693 8.7937 12.5723 8.7391 12.5723C8.30094 12.5723 7.87682 12.4178 7.54138 12.1359C7.20594 11.854 6.9807 11.4628 6.9053 11.0312ZM8.2032 17.59L8.9974 14.6267L11.1667 15.8791L8.2032 17.59ZM9.2296 13.76L9.2896 13.5345L14.5836 13.0657L14.7784 13.7931L12.033 15.3792L9.2296 13.76ZM15.7837 17.5439L12.8993 15.8786L15.011 14.66L15.7837 17.5439Z" fill="black"/>
</svg>
