<svg width="24" height="24" viewBox="0 0 24 24" fill="none" xmlns="http://www.w3.org/2000/svg">
<path d="M14 8V7C14 6.46957 13.7893 5.96086 13.4142 5.58579C13.0391 5.21071 12.5304 5 12 5H7C6.46957 5 5.96086 5.21071 5.58579 5.58579C5.21071 5.96086 5 6.46957 5 7V8H2V21H3V11H5V21H6V15H13V21H14V11H16V21H22V8H14ZM3 10V9H5V10H3ZM6 14V7C6.00029 6.73487 6.10574 6.48069 6.29321 6.29321C6.48069 6.10574 6.73487 6.00029 7 6H12C12.2651 6.00029 12.5193 6.10574 12.7068 6.29321C12.8943 6.48069 12.9997 6.73487 13 7V14H6ZM21 20H17V16H18V16.5C18 16.6326 18.0527 16.7598 18.1464 16.8536C18.2402 16.9473 18.3674 17 18.5 17H19.5C19.6326 17 19.7598 16.9473 19.8536 16.8536C19.9473 16.7598 20 16.6326 20 16.5V16H21V20ZM21 15H17V11H18V11.5C18 11.6326 18.0527 11.7598 18.1464 11.8536C18.2402 11.9473 18.3674 12 18.5 12H19.5C19.6326 12 19.7598 11.9473 19.8536 11.8536C19.9473 11.7598 20 11.6326 20 11.5V11H21V15ZM14 10V9H21V10H14Z" fill="black"/>
</svg>
