<svg width="24" height="24" viewBox="0 0 24 24" fill="none" xmlns="http://www.w3.org/2000/svg">
<path d="M9.75 2H5V5.5L3 7.5V8H11.75V7.5L9.75 5.5V2ZM3 21H11.75V11H3V21ZM12.25 21H21V14.25H12.25V21ZM19 11V8C19 7.46957 18.7893 6.96086 18.4142 6.58579C18.0391 6.21071 17.5304 6 17 6C16.4696 6 15.9609 6.21071 15.5858 6.58579C15.2107 6.96086 15 7.46957 15 8V9H15.5V8C15.5 7.60218 15.658 7.22064 15.9393 6.93934C16.2206 6.65804 16.6022 6.5 17 6.5C17.3978 6.5 17.7794 6.65804 18.0607 6.93934C18.342 7.22064 18.5 7.60218 18.5 8V11H12.25V13.75H21V11H19Z" fill="black"/>
</svg>
