<svg width="24" height="24" viewBox="0 0 24 24" fill="none" xmlns="http://www.w3.org/2000/svg">
<path d="M8 12H2.7122L1.6355 5H1.13L2.2465 12.2539L1.4429 19H1.946L2.6132 13.3957V13.5H8.5V19H9V13C9 12.7348 8.89465 12.4804 8.70711 12.2929C8.51958 12.1054 8.26522 12 8 12ZM18 8H6V9.5H11.75V19H12.25V9.5H18V8ZM22.87 5H22.3641L21.2871 12H16C15.7348 12 15.4804 12.1054 15.2929 12.2929C15.1054 12.4804 15 12.7348 15 13V19H15.5V13.5H21.3868V13.3957L22.054 19H22.5571L21.7539 12.2539L22.87 5Z" fill="black"/>
</svg>
