<svg width="24" height="24" viewBox="0 0 24 24" fill="none" xmlns="http://www.w3.org/2000/svg">
<path d="M4 2V22H20V2H4ZM19.5 21.5H4.5V2.5H19.5V21.5ZM7.6729 7.1729C7.96957 7.1729 8.25958 7.08493 8.50626 6.9201C8.75293 6.75528 8.94519 6.52101 9.05872 6.24693C9.17225 5.97284 9.20196 5.67124 9.14408 5.38026C9.0862 5.08929 8.94334 4.82202 8.73356 4.61224C8.52378 4.40246 8.25651 4.2596 7.96554 4.20172C7.67456 4.14384 7.37296 4.17355 7.09888 4.28708C6.82479 4.40061 6.59052 4.59287 6.4257 4.83954C6.26087 5.08622 6.1729 5.37623 6.1729 5.6729C6.1729 6.07072 6.33094 6.45226 6.61224 6.73356C6.89354 7.01486 7.27508 7.1729 7.6729 7.1729ZM7.6729 4.6729C7.87068 4.6729 8.06402 4.73155 8.22847 4.84143C8.39292 4.95131 8.52109 5.10749 8.59678 5.29022C8.67247 5.47294 8.69227 5.67401 8.65369 5.86799C8.6151 6.06197 8.51986 6.24015 8.38001 6.38001C8.24015 6.51986 8.06197 6.6151 7.86799 6.65369C7.67401 6.69227 7.47294 6.67247 7.29022 6.59678C7.10749 6.52109 6.95131 6.39292 6.84143 6.22847C6.73155 6.06402 6.6729 5.87068 6.6729 5.6729C6.67319 5.40777 6.77864 5.15359 6.96611 4.96611C7.15359 4.77864 7.40777 4.67319 7.6729 4.6729ZM7 13C7 13.9889 7.29324 14.9556 7.84265 15.7779C8.39206 16.6001 9.17295 17.241 10.0866 17.6194C11.0002 17.9978 12.0055 18.0969 12.9755 17.9039C13.9454 17.711 14.8363 17.2348 15.5355 16.5355C16.2348 15.8363 16.711 14.9454 16.9039 13.9755C17.0969 13.0055 16.9978 12.0002 16.6194 11.0866C16.241 10.173 15.6001 9.39206 14.7779 8.84265C13.9556 8.29325 12.9889 8 12 8C10.6739 8 9.40215 8.52678 8.46447 9.46447C7.52678 10.4021 7 11.6739 7 13ZM16.5 13C16.4975 13.3368 16.4569 13.6723 16.3791 14H14.75C14.4848 14 14.2304 13.8946 14.0429 13.7071C13.8554 13.5196 13.75 13.2652 13.75 13C13.75 12.7348 13.8554 12.4804 14.0429 12.2929C14.2304 12.1054 14.4848 12 14.75 12H16.379C16.4569 12.3277 16.4975 12.6632 16.5 13ZM12 8.5C12.9276 8.50289 13.8315 8.7928 14.5877 9.32995C15.3439 9.86709 15.9153 10.6251 16.2235 11.5H14.75C14.3522 11.5 13.9706 11.658 13.6893 11.9393C13.408 12.2206 13.25 12.6022 13.25 13C13.25 13.3978 13.408 13.7794 13.6893 14.0607C13.9706 14.342 14.3522 14.5 14.75 14.5H16.2236C15.9472 15.2756 15.4629 15.9604 14.8237 16.4794C14.1845 16.9984 13.4149 17.3318 12.599 17.443C11.7832 17.5543 10.9525 17.4391 10.1976 17.1102C9.44276 16.7812 8.79284 16.2511 8.31888 15.5778C7.84491 14.9045 7.56512 14.1139 7.51009 13.2923C7.45506 12.4708 7.6269 11.6499 8.00683 10.9194C8.38677 10.1889 8.96017 9.57682 9.66441 9.15014C10.3686 8.72347 11.1766 8.49856 12 8.5Z" fill="black"/>
</svg>
