<svg width="24" height="24" viewBox="0 0 24 24" fill="none" xmlns="http://www.w3.org/2000/svg">
<path d="M14 8V7C14 6.46957 13.7893 5.96086 13.4142 5.58579C13.0391 5.21071 12.5304 5 12 5H8C7.46957 5 6.96086 5.21071 6.58579 5.58579C6.21071 5.96086 6 6.46957 6 7V8H2V21H3.5V11H6V21H7.5V15H12.5V21H14V11H22V8H14ZM20 18C20 18.1326 19.9473 18.2598 19.8536 18.3536C19.7598 18.4473 19.6326 18.5 19.5 18.5H18.5C18.3674 18.5 18.2402 18.4473 18.1464 18.3536C18.0527 18.2598 18 18.1326 18 18V17.5H16V21H22V17.5H20V18ZM20 13C20 13.1326 19.9473 13.2598 19.8536 13.3536C19.7598 13.4473 19.6326 13.5 19.5 13.5H18.5C18.3674 13.5 18.2402 13.4473 18.1464 13.3536C18.0527 13.2598 18 13.1326 18 13V12.5H16V16H22V12.5H20V13Z" fill="black"/>
</svg>
