<svg width="24" height="24" viewBox="0 0 24 24" fill="none" xmlns="http://www.w3.org/2000/svg">
<path d="M7.99999 12H3.21799L2.14219 5H1.13049L2.28419 12.5059L1.45169 19H2.45999L3.16499 13.5H7.99999V19H8.99999V13C8.99999 12.7348 8.89464 12.4804 8.7071 12.2929C8.51956 12.1054 8.26521 12 7.99999 12ZM18 8H5.99999V9.5H11.5V19H12.5V9.5H18V8ZM22.87 5H21.8578L20.782 12H16C15.7348 12 15.4804 12.1054 15.2929 12.2929C15.1054 12.4804 15 12.7348 15 13V19H16V13.5H20.835L21.54 19H22.5483L21.7158 12.5059L22.87 5Z" fill="black"/>
</svg>
