<svg width="24" height="24" viewBox="0 0 24 24" fill="none" xmlns="http://www.w3.org/2000/svg">
<path d="M21 10.0494V8C21 7.20435 20.6839 6.44129 20.1213 5.87868C19.5587 5.31607 18.7956 5 18 5H6C5.20435 5 4.44129 5.31607 3.87868 5.87868C3.31607 6.44129 3 7.20435 3 8V10.0494C2.43608 10.1625 1.92871 10.4673 1.56412 10.9121C1.19952 11.3569 1.00019 11.9143 1 12.4894V17C1 17.5304 1.21071 18.0391 1.58579 18.4142C1.96086 18.7893 2.46957 19 3 19V21H3.5V19H20.5V21H21V19C21.5304 19 22.0391 18.7893 22.4142 18.4142C22.7893 18.0391 23 17.5304 23 17V12.49C22.9999 11.9148 22.8007 11.3573 22.4361 10.9124C22.0715 10.4674 21.564 10.1625 21 10.0494ZM6 5.5H18C18.6628 5.50074 19.2983 5.76437 19.7669 6.23305C20.2356 6.70173 20.4993 7.33719 20.5 8V10H20.49C19.8296 10 19.1963 10.2623 18.7293 10.7293C18.2623 11.1963 18 11.8296 18 12.49V14H5.9792V12.49C5.97918 11.8316 5.71828 11.2 5.25363 10.7335C4.78897 10.267 4.15842 10.0036 3.5 10.001V8C3.50074 7.33719 3.76437 6.70173 4.23305 6.23305C4.70173 5.76437 5.33719 5.50074 6 5.5ZM22.5 17C22.4995 17.3977 22.3414 17.779 22.0602 18.0602C21.779 18.3414 21.3977 18.4995 21 18.5H3C2.60231 18.4995 2.22104 18.3414 1.93984 18.0602C1.65863 17.779 1.50045 17.3977 1.5 17V12.49C1.51044 11.9692 1.72465 11.4733 2.09663 11.1087C2.46862 10.7441 2.96873 10.5399 3.4896 10.5399C4.01047 10.5399 4.51058 10.7441 4.88257 11.1087C5.25455 11.4733 5.46876 11.9692 5.4792 12.49V14.5H18.5V12.49C18.5005 11.9624 18.7103 11.4565 19.0834 11.0834C19.4565 10.7103 19.9624 10.5005 20.49 10.5H20.51C21.0376 10.5005 21.5435 10.7103 21.9166 11.0834C22.2897 11.4565 22.4995 11.9624 22.5 12.49V17Z" fill="black"/>
</svg>
