<svg width="24" height="24" viewBox="0 0 24 24" fill="none" xmlns="http://www.w3.org/2000/svg">
<path d="M18.275 19.7999C18.0574 19.7999 17.8448 19.8644 17.6639 19.9853C17.483 20.1062 17.342 20.278 17.2587 20.479C17.1755 20.68 17.1537 20.9011 17.1961 21.1145C17.2386 21.3279 17.3433 21.5239 17.4972 21.6777C17.651 21.8316 17.847 21.9363 18.0604 21.9788C18.2738 22.0212 18.495 21.9994 18.696 21.9162C18.897 21.8329 19.0688 21.6919 19.1896 21.511C19.3105 21.3301 19.375 21.1175 19.375 20.8999C19.375 20.6082 19.2591 20.3284 19.0528 20.1221C18.8465 19.9158 18.5667 19.7999 18.275 19.7999ZM7.725 19.7999C7.50744 19.7999 7.29477 19.8644 7.11388 19.9853C6.93298 20.1062 6.79199 20.278 6.70874 20.479C6.62548 20.68 6.6037 20.9011 6.64614 21.1145C6.68858 21.3279 6.79335 21.5239 6.94719 21.6777C7.10102 21.8316 7.29702 21.9363 7.5104 21.9788C7.72378 22.0212 7.94496 21.9994 8.14596 21.9162C8.34695 21.8329 8.51875 21.6919 8.63962 21.511C8.76049 21.3301 8.825 21.1175 8.825 20.8999C8.825 20.6082 8.70911 20.3284 8.50282 20.1221C8.29653 19.9158 8.01674 19.7999 7.725 19.7999ZM9.995 14.2273L12 14.0499V16.9999H8C7.73479 16.9999 7.48043 17.1053 7.2929 17.2928C7.10536 17.4803 7 17.7347 7 17.9999V18.9999H19V17.9999C19 17.7347 18.8946 17.4803 18.7071 17.2928C18.5196 17.1053 18.2652 16.9999 18 16.9999H14V13.8723L19.8771 13.3515L19.5333 11.4791C19.4739 11.1573 19.3037 10.8665 19.0522 10.6572C18.8007 10.4478 18.4838 10.3332 18.1566 10.3332H15.3566L16.0546 8.4155C16.1536 8.14359 16.1855 7.85183 16.1477 7.56494C16.11 7.27806 16.0036 7.00451 15.8376 6.76748C15.6717 6.53044 15.451 6.33692 15.1943 6.2033C14.9377 6.06968 14.6526 5.99991 14.3632 5.9999H9.3067L8.4238 2.7042C8.34405 2.40651 8.16829 2.14345 7.92378 1.95583C7.67928 1.7682 7.3797 1.66651 7.0715 1.6665H5.1134L6.1875 7.7325V7.7999H6.1994L6.9206 11.8727C7.04558 12.5786 7.43064 13.212 7.99979 13.6479C8.56893 14.0839 9.28081 14.2906 9.9949 14.2273H9.995ZM9.8 7.7999H14.3632L13.49 10.1999H10.4319L9.8 7.8411V7.7999Z" fill="black"/>
</svg>
