<svg width="24" height="24" viewBox="0 0 24 24" fill="none" xmlns="http://www.w3.org/2000/svg">
<path d="M22.138 17.6977C20.6441 18.9906 18.9178 19.9873 17.0511 20.6345L15.2734 14H19V11.6C19 11.1757 18.8314 10.7687 18.5314 10.4686C18.2313 10.1686 17.8243 10 17.4 10H14.9941L14.9821 7.9881C14.979 7.45973 14.7669 6.95408 14.3921 6.58157C14.0174 6.20907 13.5105 5.99999 12.9821 6H8.0949L7.0729 2.1859C6.98174 1.84568 6.78086 1.54505 6.50143 1.33063C6.222 1.11622 5.87962 0.999997 5.5274 1H3.4374L5.2235 11.1091C5.36666 11.9192 5.79056 12.6529 6.42082 13.1816C7.05107 13.7102 7.84739 14 8.67 14H8.8181L7.0331 20.6625C5.13446 20.0167 3.37855 19.01 1.862 17.6977L1.5301 18.0806C4.43264 20.608 8.15142 22.0001 12.0001 22.0001C15.8488 22.0001 19.5676 20.608 22.4701 18.0806L22.138 17.6977ZM12.9821 6.5C13.3781 6.50093 13.7577 6.65805 14.0386 6.93723C14.3194 7.21641 14.4788 7.59511 14.4821 7.9911L14.4941 10H9.1667L8.2289 6.5H12.9821ZM5.5274 1.5C5.7695 1.50024 6.00477 1.58022 6.19685 1.7276C6.38892 1.87497 6.52709 2.08152 6.59 2.3153L7.5772 6H4.8283L4.033 1.5H5.5274ZM5.7159 11.0221L4.9167 6.5H7.7112L8.6837 10.1294L8.783 10.5H17.4C17.6916 10.5003 17.9712 10.6163 18.1774 10.8226C18.3836 11.0288 18.4997 11.3084 18.5 11.6V13.5H8.67C7.96469 13.5008 7.28171 13.2527 6.74133 12.7995C6.20095 12.3462 5.83783 11.7168 5.7159 11.0221ZM7.5078 20.82L9.3352 14H14.7564L16.5764 20.7924C13.6271 21.7262 10.4627 21.736 7.5077 20.8204L7.5078 20.82Z" fill="black"/>
</svg>
