<svg width="24" height="24" viewBox="0 0 24 24" fill="none" xmlns="http://www.w3.org/2000/svg">
<path d="M17.4 10H10.1666L8.07286 2.1859C7.98169 1.84567 7.7808 1.54502 7.50135 1.3306C7.22189 1.11618 6.87949 0.999974 6.52726 1H4.43726L6.71926 13.9122L6.01146 22H6.51316L6.92866 17.25H18.5V22H19V11.6C19 11.1757 18.8314 10.7687 18.5313 10.4686C18.2313 10.1686 17.8243 10 17.4 10ZM6.52726 1.5C6.76936 1.50026 7.00463 1.58026 7.19672 1.72763C7.3888 1.87499 7.527 2.08153 7.58996 2.3153L9.68366 10.1294L9.78296 10.5H17.4C17.6916 10.5003 17.9712 10.6163 18.1774 10.8225C18.3836 11.0288 18.4996 11.3084 18.5 11.6V13.5H7.15376L5.03296 1.5H6.52726ZM18.5 16.75H6.97236L7.21296 14H18.5V16.75Z" fill="black"/>
</svg>
