<svg width="24" height="24" viewBox="0 0 24 24" fill="none" xmlns="http://www.w3.org/2000/svg">
<path d="M3 3V21H21V3H3ZM20 20H4V4H20V20ZM15.5452 10.9548C16.0397 10.9548 16.523 10.8082 16.9341 10.5335C17.3452 10.2588 17.6657 9.86832 17.8549 9.41151C18.0441 8.95469 18.0936 8.45203 17.9972 7.96707C17.9007 7.48212 17.6626 7.03666 17.313 6.68703C16.9633 6.3374 16.5179 6.0993 16.0329 6.00284C15.548 5.90637 15.0453 5.95588 14.5885 6.1451C14.1317 6.33432 13.7412 6.65475 13.4665 7.06587C13.1918 7.477 13.0452 7.96035 13.0452 8.4548C13.0452 9.11784 13.3086 9.75373 13.7774 10.2226C14.2463 10.6914 14.8822 10.9548 15.5452 10.9548ZM15.5452 6.8215C15.8683 6.82148 16.1841 6.91726 16.4527 7.09674C16.7213 7.27621 16.9307 7.53131 17.0543 7.82978C17.178 8.12825 17.2103 8.45668 17.1473 8.77354C17.0843 9.09039 16.9287 9.38145 16.7003 9.60989C16.4718 9.83833 16.1808 9.9939 15.8639 10.0569C15.5471 10.1199 15.2186 10.0876 14.9202 9.96395C14.6217 9.8403 14.3666 9.63093 14.1871 9.36231C14.0077 9.09368 13.9119 8.77786 13.9119 8.4548C13.9124 8.02178 14.0846 7.60663 14.3908 7.30044C14.697 6.99424 15.1122 6.822 15.5452 6.8215ZM8.4552 10.9548C8.94965 10.9548 9.433 10.8082 9.84413 10.5335C10.2552 10.2588 10.5757 9.86832 10.7649 9.41151C10.9541 8.95469 11.0036 8.45203 10.9072 7.96707C10.8107 7.48212 10.5726 7.03666 10.223 6.68703C9.87334 6.3374 9.42788 6.0993 8.94293 6.00284C8.45797 5.90637 7.95531 5.95588 7.49849 6.1451C7.04168 6.33432 6.65123 6.65475 6.37653 7.06587C6.10182 7.477 5.9552 7.96035 5.9552 8.4548C5.9552 9.11777 6.21854 9.7536 6.68729 10.2224C7.15605 10.6913 7.79183 10.9547 8.4548 10.9548H8.4552ZM8.4552 6.8215C8.77825 6.82156 9.09402 6.91741 9.3626 7.09693C9.63117 7.27645 9.84048 7.53158 9.96406 7.83006C10.0876 8.12853 10.1199 8.45695 10.0569 8.77378C9.9938 9.09061 9.8382 9.38163 9.60975 9.61003C9.38129 9.83843 9.09024 9.99396 8.77339 10.0569C8.45654 10.1199 8.12813 10.0876 7.82969 9.96391C7.53124 9.84025 7.27616 9.63088 7.09671 9.36226C6.91725 9.09365 6.82148 8.77785 6.8215 8.4548C6.82198 8.02177 6.99421 7.60661 7.30041 7.30041C7.60661 6.99421 8.02177 6.82198 8.4548 6.8215H8.4552ZM8.4552 18.0451C8.94965 18.0451 9.433 17.8985 9.84413 17.6238C10.2552 17.3491 10.5757 16.9586 10.7649 16.5018C10.9541 16.045 11.0036 15.5423 10.9072 15.0574C10.8107 14.5724 10.5726 14.127 10.223 13.7773C9.87334 13.4277 9.42788 13.1896 8.94293 13.0931C8.45797 12.9967 7.95531 13.0462 7.49849 13.2354C7.04168 13.4246 6.65123 13.7451 6.37653 14.1562C6.10182 14.5673 5.9552 15.0506 5.9552 15.5451C5.9552 16.2081 6.21854 16.8439 6.68729 17.3127C7.15605 17.7816 7.79183 18.045 8.4548 18.0451H8.4552ZM8.4552 13.9118C8.77826 13.9118 9.09408 14.0076 9.36271 14.187C9.63133 14.3665 9.84071 14.6216 9.96435 14.9201C10.088 15.2185 10.1203 15.547 10.0573 15.8638C9.9943 16.1807 9.83873 16.4717 9.61029 16.7002C9.38185 16.9286 9.09079 17.0842 8.77394 17.1472C8.45708 17.2102 8.12865 17.1779 7.83018 17.0542C7.53171 16.9306 7.27661 16.7212 7.09714 16.4526C6.91766 16.184 6.82188 15.8682 6.8219 15.5451C6.82238 15.1121 6.99455 14.697 7.30067 14.3909C7.60678 14.0847 8.02184 13.9124 8.4548 13.9118H8.4552ZM15.5452 18.0451C16.0397 18.0451 16.523 17.8985 16.9341 17.6238C17.3452 17.3491 17.6657 16.9586 17.8549 16.5018C18.0441 16.045 18.0936 15.5423 17.9972 15.0574C17.9007 14.5724 17.6626 14.127 17.313 13.7773C16.9633 13.4277 16.5179 13.1896 16.0329 13.0931C15.548 12.9967 15.0453 13.0462 14.5885 13.2354C14.1317 13.4246 13.7412 13.7451 13.4665 14.1562C13.1918 14.5673 13.0452 15.0506 13.0452 15.5451C13.0452 15.8734 13.1099 16.1985 13.2355 16.5018C13.3611 16.8051 13.5453 17.0807 13.7774 17.3129C14.0096 17.545 14.2852 17.7292 14.5885 17.8548C14.8918 17.9804 15.2169 18.0451 15.5452 18.0451ZM15.5452 13.9118C15.8683 13.9118 16.1841 14.0076 16.4527 14.187C16.7213 14.3665 16.9307 14.6216 17.0543 14.9201C17.178 15.2185 17.2103 15.547 17.1473 15.8638C17.0843 16.1807 16.9287 16.4717 16.7003 16.7002C16.4718 16.9286 16.1808 17.0842 15.8639 17.1472C15.5471 17.2102 15.2186 17.1779 14.9202 17.0542C14.6217 16.9306 14.3666 16.7212 14.1871 16.4526C14.0077 16.184 13.9119 15.8682 13.9119 15.5451C13.9124 15.1121 14.0846 14.6969 14.3908 14.3907C14.697 14.0845 15.1122 13.9123 15.5452 13.9118Z" fill="black"/>
</svg>
