<svg width="24" height="24" viewBox="0 0 24 24" fill="none" xmlns="http://www.w3.org/2000/svg">
<path d="M20 9.1809V6C20 5.20435 19.6839 4.44129 19.1213 3.87868C18.5587 3.31607 17.7956 3 17 3H7C6.20435 3 5.44129 3.31607 4.87868 3.87868C4.31607 4.44129 4 5.20435 4 6V9.1809C3.41664 9.38415 2.91084 9.76363 2.55254 10.2669C2.19425 10.7701 2.00117 11.3722 2 11.99V18C2 18.5304 2.21071 19.0391 2.58579 19.4142C2.96086 19.7893 3.46957 20 4 20V22H5.5V20H18.5V22H20V20C20.5304 20 21.0391 19.7893 21.4142 19.4142C21.7893 19.0391 22 18.5304 22 18V11.99C21.9988 11.3722 21.8057 10.7701 21.4475 10.2669C21.0892 9.76363 20.5834 9.38415 20 9.1809ZM7 4.5H17C17.3977 4.50045 17.779 4.65863 18.0602 4.93984C18.3414 5.22104 18.4995 5.60231 18.5 6V9.0494C17.8025 9.16393 17.1683 9.52242 16.7104 10.061C16.2526 10.5995 16.0008 11.2831 16 11.99V13H7.9792V11.99C7.97853 11.2866 7.72942 10.606 7.27581 10.0683C6.82221 9.53071 6.19328 9.17058 5.5 9.0515V6C5.50045 5.60231 5.65863 5.22104 5.93984 4.93984C6.22104 4.65863 6.60231 4.50045 7 4.5ZM20.5 18C20.4998 18.1326 20.4471 18.2596 20.3534 18.3534C20.2596 18.4471 20.1326 18.4998 20 18.5H4C3.86744 18.4998 3.74036 18.4471 3.64662 18.3534C3.55289 18.2596 3.50016 18.1326 3.5 18V11.99C3.50902 11.6009 3.66992 11.2308 3.94829 10.9588C4.22666 10.6868 4.60041 10.5345 4.9896 10.5345C5.37879 10.5345 5.75254 10.6868 6.03091 10.9588C6.30928 11.2308 6.47018 11.6009 6.4792 11.99V14.5H17.5V11.99C17.5003 11.5949 17.6574 11.2161 17.9368 10.9368C18.2161 10.6574 18.5949 10.5003 18.99 10.5H19.01C19.4051 10.5003 19.7839 10.6574 20.0632 10.9368C20.3426 11.2161 20.4997 11.5949 20.5 11.99V18Z" fill="black"/>
</svg>
