<svg width="24" height="24" viewBox="0 0 24 24" fill="none" xmlns="http://www.w3.org/2000/svg">
<path d="M12 2.80371L3 7.99991V20.9999H21V7.99991L12 2.80371ZM20.5 20.4999H3.5V8.28851L12 3.38111L20.5 8.28851V20.4999ZM10 10.9999V11.9999H8V16.9999H16V11.9999H14V10.9999C14 10.4695 13.7893 9.96077 13.4142 9.5857C13.0391 9.21062 12.5304 8.99991 12 8.99991C11.4696 8.99991 10.9609 9.21062 10.5858 9.5857C10.2107 9.96077 10 10.4695 10 10.9999ZM15.5 12.4999V16.4999H8.5V12.4999H15.5ZM13.5 10.9999V11.9999H10.5V10.9999C10.5 10.6021 10.658 10.2206 10.9393 9.93925C11.2206 9.65795 11.6022 9.49991 12 9.49991C12.3978 9.49991 12.7794 9.65795 13.0607 9.93925C13.342 10.2206 13.5 10.6021 13.5 10.9999ZM10.25 14.0999C10.3192 14.0999 10.3869 14.0794 10.4444 14.0409C10.502 14.0025 10.5469 13.9478 10.5734 13.8839C10.5998 13.8199 10.6068 13.7495 10.5933 13.6816C10.5798 13.6137 10.5464 13.5514 10.4975 13.5024C10.4485 13.4535 10.3862 13.4201 10.3183 13.4066C10.2504 13.3931 10.18 13.4001 10.1161 13.4266C10.0521 13.453 9.99744 13.4979 9.95899 13.5555C9.92053 13.613 9.9 13.6807 9.9 13.7499C9.9 13.8427 9.93688 13.9318 10.0025 13.9974C10.0682 14.063 10.1572 14.0999 10.25 14.0999ZM13.75 14.0999C13.8192 14.0999 13.8869 14.0794 13.9444 14.0409C14.002 14.0025 14.0469 13.9478 14.0734 13.8839C14.0998 13.8199 14.1068 13.7495 14.0933 13.6816C14.0798 13.6137 14.0464 13.5514 13.9975 13.5024C13.9485 13.4535 13.8862 13.4201 13.8183 13.4066C13.7504 13.3931 13.68 13.4001 13.6161 13.4266C13.5521 13.453 13.4974 13.4979 13.459 13.5555C13.4205 13.613 13.4 13.6807 13.4 13.7499C13.4 13.8427 13.4369 13.9318 13.5025 13.9974C13.5682 14.063 13.6572 14.0999 13.75 14.0999Z" fill="black"/>
</svg>
