<svg width="24" height="24" viewBox="0 0 24 24" fill="none" xmlns="http://www.w3.org/2000/svg">
<path d="M18.275 19.7999C18.0574 19.7999 17.8448 19.8644 17.6639 19.9853C17.483 20.1062 17.342 20.278 17.2587 20.479C17.1755 20.68 17.1537 20.9011 17.1961 21.1145C17.2386 21.3279 17.3433 21.5239 17.4972 21.6777C17.651 21.8316 17.847 21.9363 18.0604 21.9788C18.2738 22.0212 18.495 21.9994 18.696 21.9162C18.8969 21.8329 19.0687 21.6919 19.1896 21.511C19.3105 21.3301 19.375 21.1175 19.375 20.8999C19.375 20.6082 19.2591 20.3284 19.0528 20.1221C18.8465 19.9158 18.5667 19.7999 18.275 19.7999ZM7.725 19.7999C7.50744 19.7999 7.29477 19.8644 7.11387 19.9853C6.93298 20.1062 6.79199 20.278 6.70873 20.479C6.62548 20.68 6.60369 20.9011 6.64614 21.1145C6.68858 21.3279 6.79334 21.5239 6.94718 21.6777C7.10102 21.8316 7.29702 21.9363 7.5104 21.9788C7.72378 22.0212 7.94495 21.9994 8.14595 21.9162C8.34695 21.8329 8.51875 21.6919 8.63962 21.511C8.76049 21.3301 8.825 21.1175 8.825 20.8999C8.825 20.6082 8.70911 20.3284 8.50282 20.1221C8.29653 19.9158 8.01674 19.7999 7.725 19.7999ZM10.135 13.8369L12.2496 13.6504V17.4999H7.8333C7.72387 17.4999 7.61551 17.5215 7.51441 17.5633C7.41331 17.6052 7.32145 17.6666 7.24407 17.744C7.16669 17.8214 7.10531 17.9132 7.06343 18.0143C7.02155 18.1154 7 18.2238 7 18.3332V18.9999H19V18.3332C19 18.2238 18.9784 18.1154 18.9366 18.0143C18.8947 17.9132 18.8333 17.8214 18.7559 17.744C18.6786 17.6666 18.5867 17.6052 18.4856 17.5633C18.3845 17.5215 18.2761 17.4999 18.1667 17.4999H13.75V13.518L19.81 12.9831L19.525 11.4408C19.473 11.1609 19.3247 10.908 19.1058 10.726C18.8868 10.544 18.6111 10.4444 18.3264 10.4444H15.3164L16.0548 8.4155C16.1538 8.14358 16.1857 7.85179 16.1479 7.56489C16.1102 7.27799 16.0038 7.00443 15.8378 6.76739C15.6718 6.53036 15.4511 6.33684 15.1944 6.20323C14.9377 6.06963 14.6526 5.99988 14.3632 5.9999H9.1917L8.2823 2.6054C8.21014 2.33606 8.05112 2.09805 7.82991 1.92829C7.60869 1.75854 7.33764 1.66652 7.0588 1.6665H5.5L7.2628 11.6353C7.37948 12.2951 7.7392 12.8871 8.27098 13.2947C8.80277 13.7023 9.46799 13.8957 10.1354 13.8369H10.135ZM14.3632 7.4999C14.4114 7.49991 14.4589 7.51153 14.5017 7.5338C14.5445 7.55607 14.5813 7.58833 14.6089 7.62783C14.6366 7.66734 14.6543 7.71293 14.6606 7.76074C14.6669 7.80856 14.6616 7.85719 14.6451 7.9025L13.72 10.4444H10.3824L9.5936 7.4999H14.3632Z" fill="black"/>
</svg>
