<svg width="24" height="24" viewBox="0 0 24 24" fill="none" xmlns="http://www.w3.org/2000/svg">
<path d="M21.5 11C21.1022 11 20.7206 11.158 20.4393 11.4393C20.158 11.7206 20 12.1022 20 12.5V13H4V12.5C4 12.1022 3.84196 11.7206 3.56066 11.4393C3.27936 11.158 2.89782 11 2.5 11C2.10218 11 1.72064 11.158 1.43934 11.4393C1.15804 11.7206 1 12.1022 1 12.5V20H2V18H22V20H23V12.5C23 12.1022 22.842 11.7206 22.5607 11.4393C22.2794 11.158 21.8978 11 21.5 11ZM4.5 12.5H6.125L6.6413 11.4673C6.78665 11.1766 7.01006 10.9322 7.28651 10.7613C7.56296 10.5905 7.88152 10.5 8.2065 10.5H9.2674C9.59238 10.5 9.91094 10.5905 10.1874 10.7613C10.4638 10.9322 10.6873 11.1766 10.8326 11.4673L11.3489 12.5H12.6511L13.1674 11.4673C13.3127 11.1766 13.5362 10.9322 13.8126 10.7613C14.0891 10.5905 14.4076 10.5 14.7326 10.5H15.7935C16.1185 10.5 16.437 10.5905 16.7135 10.7613C16.9899 10.9322 17.2134 11.1766 17.3587 11.4673L17.875 12.5H19.5C19.5013 12.0578 19.6493 11.6286 19.9208 11.2795C20.1922 10.9304 20.5718 10.6812 21 10.571V8C21 7.20435 20.6839 6.44129 20.1213 5.87868C19.5587 5.31607 18.7956 5 18 5H6C5.20435 5 4.44129 5.31607 3.87868 5.87868C3.31607 6.44129 3 7.20435 3 8V10.571C3.42823 10.6812 3.8078 10.9304 4.07925 11.2795C4.35069 11.6286 4.49867 12.0578 4.5 12.5Z" fill="black"/>
</svg>
