<svg width="24" height="24" viewBox="0 0 24 24" fill="none" xmlns="http://www.w3.org/2000/svg">
<path d="M3 14V20H5V18H19V20H21V14H3ZM9.92 10.9673C10.0654 10.6766 10.2889 10.4321 10.5654 10.2612C10.842 10.0904 11.1606 9.99991 11.4857 10H12.5143C12.8393 9.99998 13.1579 10.0905 13.4343 10.2613C13.7108 10.4322 13.9342 10.6766 14.0796 10.9673L14.5959 12H19V7C19 6.46957 18.7893 5.96086 18.4142 5.58579C18.0391 5.21071 17.5304 5 17 5H7C6.46957 5 5.96086 5.21071 5.58579 5.58579C5.21071 5.96086 5 6.46957 5 7V12H9.4041L9.92 10.9673Z" fill="black"/>
</svg>
