<svg width="24" height="24" viewBox="0 0 24 24" fill="none" xmlns="http://www.w3.org/2000/svg">
<path d="M20.5 4V8H15.5V4H15V8H10.1136L9.5972 6.9673C9.45185 6.67664 9.22844 6.43219 8.95199 6.26134C8.67554 6.0905 8.35698 6 8.032 6H7.0033C6.6783 5.99998 6.35972 6.09047 6.08325 6.26131C5.80679 6.43216 5.58336 6.67662 5.438 6.9673L4.9218 8H3.5V4H3V20H3.5V18H15V20H15.5V18H20.5V20H21V4H20.5ZM10.1136 16L9.5972 14.9673C9.45185 14.6766 9.22844 14.4322 8.95199 14.2613C8.67554 14.0905 8.35698 14 8.032 14H7.0033C6.6783 14 6.35972 14.0905 6.08325 14.2613C5.80679 14.4322 5.58336 14.6766 5.438 14.9673L4.9218 16H3.5V10H15V16H10.1136ZM20.5 16H15.5V13.25H20.5V16ZM20.5 12.75H15.5V10H20.5V12.75Z" fill="black"/>
</svg>
