<svg width="24" height="24" viewBox="0 0 24 24" fill="none" xmlns="http://www.w3.org/2000/svg">
<path d="M6.49999 13.7999C5.7682 13.7999 5.05284 14.0169 4.44438 14.4235C3.83592 14.83 3.36168 15.4079 3.08164 16.084C2.80159 16.7601 2.72832 17.504 2.87108 18.2217C3.01385 18.9395 3.36624 19.5987 3.88369 20.1162C4.40115 20.6337 5.06043 20.986 5.77816 21.1288C6.49588 21.2716 7.23983 21.1983 7.91592 20.9183C8.592 20.6382 9.16987 20.164 9.57643 19.5555C9.98299 18.9471 10.2 18.2317 10.2 17.4999C10.2 16.5186 9.81017 15.5775 9.11628 14.8836C8.4224 14.1897 7.48129 13.7999 6.49999 13.7999ZM6.49999 19.7499C6.05498 19.7499 5.61997 19.6179 5.24996 19.3707C4.87995 19.1235 4.59156 18.7721 4.42126 18.3609C4.25096 17.9498 4.20641 17.4974 4.29322 17.061C4.38004 16.6245 4.59433 16.2236 4.909 15.9089C5.22367 15.5942 5.62458 15.38 6.06104 15.2931C6.49749 15.2063 6.94989 15.2509 7.36103 15.4212C7.77216 15.5915 8.12356 15.8799 8.3708 16.2499C8.61803 16.6199 8.74999 17.0549 8.74999 17.4999C8.74933 18.0964 8.51206 18.6684 8.09025 19.0902C7.66844 19.512 7.09652 19.7492 6.49999 19.7499ZM17.5 10.6767C17.9072 10.6767 18.3104 10.5965 18.6866 10.4406C19.0629 10.2848 19.4047 10.0564 19.6926 9.7684C19.9806 9.48045 20.209 9.1386 20.3648 8.76237C20.5206 8.38615 20.6008 7.98292 20.6008 7.5757C20.6008 5.0949 17.5 1.9165 17.5 1.9165C17.5 1.9165 14.3992 5.0949 14.3992 7.5757C14.3992 7.98292 14.4794 8.38615 14.6352 8.76237C14.791 9.1386 15.0194 9.48045 15.3074 9.7684C15.5953 10.0564 15.9371 10.2848 16.3133 10.4406C16.6895 10.5965 17.0928 10.6767 17.5 10.6767ZM17.4976 4.1478C18.3516 5.1179 18.9234 6.30346 19.1509 7.5757C19.1509 8.01355 18.977 8.43346 18.6674 8.74307C18.3577 9.05267 17.9378 9.2266 17.5 9.2266C17.0621 9.2266 16.6422 9.05267 16.3326 8.74307C16.023 8.43346 15.8491 8.01355 15.8491 7.5757C16.0719 6.30288 16.6424 5.11649 17.4976 4.1478ZM14 13.9999V20.9999H21V13.9999H14ZM19.55 19.5499H15.45V15.4499H19.55V19.5499ZM9.15619 9.9999L10.1562 2.9999H2.84379L3.84379 9.9999H9.15619ZM8.48439 4.4499L7.89869 8.5499H5.10129L4.51559 4.4499H8.48439Z" fill="black"/>
</svg>
