<svg width="24" height="24" viewBox="0 0 24 24" fill="none" xmlns="http://www.w3.org/2000/svg">
<path d="M6.13232 22H8.15322L8.72472 18H15.2753L15.8468 22H17.8677L17.2963 18H19V16H17.0106L16.1533 10H18V6.6C18 6.17565 17.8315 5.76869 17.5314 5.46863C17.2313 5.16857 16.8244 5 16.4 5H12.3125L11.312 2.1952C11.1872 1.84542 10.9573 1.5428 10.6538 1.32882C10.3503 1.11485 9.98799 0.99999 9.61662 1H6.41312L7.91532 9.52L6.13232 22ZM9.01002 16L9.86722 10H14.132L14.9892 16H9.01002ZM9.61662 2.8L10.6171 5.6048L11.0435 6.8H16.2V8.2H9.51002L8.55822 2.8H9.61662Z" fill="black"/>
</svg>
