<svg width="24" height="24" viewBox="0 0 24 24" fill="none" xmlns="http://www.w3.org/2000/svg">
<path d="M18.81 11.9831L18.525 10.4408C18.473 10.1609 18.3247 9.908 18.1058 9.72601C17.8868 9.54401 17.6111 9.44438 17.3264 9.4444H9.3823L7.2823 1.6054C7.21017 1.33604 7.05116 1.09801 6.82994 0.928252C6.60872 0.758489 6.33765 0.666481 6.0588 0.666504H4.5L6.2628 10.6353C6.35248 11.1384 6.58445 11.6053 6.93125 11.9806C7.27805 12.3559 7.72515 12.624 8.2196 12.7531L5.8306 21.6665H7.2455L8.1355 18.344L11.9418 16.147L15.8843 18.4231L16.7533 21.6665H18.1682L15.6482 12.2622L18.81 11.9831ZM8.5869 16.6588L9.155 14.5382L10.7078 15.4347L8.5869 16.6588ZM9.4856 13.3043L9.6191 12.8056L14.2666 12.3856L14.4974 13.2472L11.9419 14.7224L9.4856 13.3043ZM13.1756 15.4343L14.8278 14.4806L15.4324 16.7374L13.1756 15.4343Z" fill="black"/>
</svg>
