<svg width="24" height="24" viewBox="0 0 24 24" fill="none" xmlns="http://www.w3.org/2000/svg">
<path d="M20 12.5V7C20 6.46957 19.7893 5.96086 19.4142 5.58579C19.0391 5.21071 18.5304 5 18 5H6C5.46957 5 4.96086 5.21071 4.58579 5.58579C4.21071 5.96086 4 6.46957 4 7V12.5H2V20H22V12.5H20ZM4.5 7C4.50045 6.60231 4.65863 6.22104 4.93984 5.93984C5.22104 5.65863 5.60231 5.50045 6 5.5H18C18.3977 5.50045 18.779 5.65863 19.0602 5.93984C19.3414 6.22104 19.4995 6.60231 19.5 7V12.5H18.73L17.95 10.94C17.8088 10.6576 17.5918 10.42 17.3232 10.254C17.0547 10.088 16.7451 10 16.4294 10H14.7339C14.4182 10 14.1087 10.088 13.8401 10.254C13.5716 10.42 13.3546 10.6576 13.2134 10.94L12.4334 12.5H11.5669L10.7869 10.94C10.6457 10.6575 10.4287 10.42 10.16 10.2539C9.89143 10.0879 9.58188 9.99997 9.2661 10H7.5706C7.25485 10 6.94534 10.088 6.67676 10.254C6.40819 10.42 6.19116 10.6576 6.05 10.94L5.27 12.5H4.5V7ZM18.1711 12.5H12.9922L13.6606 11.1633C13.7597 10.9635 13.9127 10.7955 14.1024 10.6782C14.2921 10.561 14.5109 10.4992 14.7339 10.5H16.4294C16.6524 10.4992 16.8712 10.561 17.0609 10.6782C17.2506 10.7954 17.4036 10.9635 17.5027 11.1633L18.1711 12.5ZM11.0077 12.5H5.8289L6.4973 11.1633C6.59636 10.9635 6.74942 10.7954 6.93912 10.6782C7.12883 10.561 7.34759 10.4992 7.5706 10.5H9.2661C9.4891 10.4993 9.70785 10.561 9.89756 10.6782C10.0873 10.7955 10.2403 10.9635 10.3394 11.1633L11.0077 12.5ZM21.5 19.5H2.5V13H21.5V19.5ZM10.2334 16.4561C10.7418 16.8413 11.3622 17.0498 12 17.0498C12.6378 17.0498 13.2582 16.8413 13.7666 16.4561C14.1915 16.1281 14.7132 15.9502 15.25 15.9502C15.7868 15.9502 16.3085 16.1281 16.7334 16.4561C17.2471 16.8311 17.8641 17.0385 18.5 17.05V16.55C17.9653 16.538 17.4473 16.3613 17.0166 16.0441C16.5082 15.6589 15.8878 15.4504 15.25 15.4504C14.6122 15.4504 13.9918 15.6589 13.4834 16.0441C13.0579 16.3709 12.5365 16.548 12 16.548C11.4635 16.548 10.9421 16.3709 10.5166 16.0441C10.0073 15.661 9.3873 15.4538 8.75 15.4538C8.1127 15.4538 7.49267 15.661 6.9834 16.0441C6.55274 16.3613 6.03473 16.538 5.5 16.55V17.05C6.13593 17.0386 6.75285 16.8313 7.2666 16.4563C7.69204 16.1295 8.21349 15.9523 8.74997 15.9523C9.28644 15.9522 9.80791 16.1293 10.2334 16.4561Z" fill="black"/>
</svg>
