<svg width="24" height="24" viewBox="0 0 24 24" fill="none" xmlns="http://www.w3.org/2000/svg">
<path d="M19 4V8H16V4H14V8H11.5959L11.08 6.9673C10.9346 6.67656 10.7111 6.43206 10.4346 6.26121C10.158 6.09036 9.83937 5.99991 9.5143 6H8.4857C8.16063 5.99991 7.84197 6.09036 7.56542 6.26121C7.28888 6.43206 7.06539 6.67656 6.92 6.9673L6.4041 8H5V4H3V20H5V18H14V20H16V18H19V20H21V4H19ZM11.5959 16L11.08 14.9673C10.9346 14.6766 10.7111 14.4321 10.4346 14.2612C10.158 14.0904 9.83937 13.9999 9.5143 14H8.4857C8.1607 14 7.84212 14.0905 7.56565 14.2613C7.28919 14.4322 7.06576 14.6766 6.9204 14.9673L6.4041 16H5V10H14V16H11.5959ZM19 16H16V14H19V16ZM19 12H16V10H19V12Z" fill="black"/>
</svg>
