<svg width="24" height="24" viewBox="0 0 24 24" fill="none" xmlns="http://www.w3.org/2000/svg">
<path d="M9.25 2H5V4.8333L3 6.8333V8H11.25V6.8333L9.25 4.8333V2ZM3 21H11.25V11H3V21ZM19.875 11V8C19.875 7.20435 19.5589 6.44129 18.9963 5.87868C18.4337 5.31607 17.6706 5 16.875 5C16.0794 5 15.3163 5.31607 14.7537 5.87868C14.1911 6.44129 13.875 7.20435 13.875 8V9H15.375V8C15.375 7.60218 15.533 7.22064 15.8143 6.93934C16.0956 6.65804 16.4772 6.5 16.875 6.5C17.2728 6.5 17.6544 6.65804 17.9357 6.93934C18.217 7.22064 18.375 7.60218 18.375 8V11H12.75V14.25H21V11H19.875ZM12.75 21H21V15.75H12.75V21Z" fill="black"/>
</svg>
