<svg width="24" height="24" viewBox="0 0 24 24" fill="none" xmlns="http://www.w3.org/2000/svg">
<path d="M15.7051 13.301L18.9307 13.017L18.5046 10.6489C18.438 10.2798 18.2438 9.94592 17.956 9.70546C17.6682 9.465 17.3051 9.33328 16.93 9.3333H9.72345L7.80835 2.1859C7.71719 1.8457 7.51633 1.54508 7.23692 1.33066C6.9575 1.11625 6.61515 1.00002 6.26295 1H3.77515L5.63265 11.5C5.73954 12.1013 6.03169 12.6541 6.46824 13.0811C6.90478 13.5082 7.46388 13.7881 8.06735 13.8818C7.99373 14.0225 7.93347 14.1698 7.88735 14.3218L5.83005 22H7.24555L9.20805 14.6768C9.27281 14.4358 9.41 14.2205 9.60107 14.06C9.79215 13.8995 10.0279 13.8015 10.2764 13.7793L13.4346 13.501C13.7195 13.4771 14.0036 13.5538 14.2377 13.7177C14.4718 13.8817 14.641 14.1226 14.7158 14.3984L16.7533 22H18.1685L16.0361 14.0449C15.9658 13.781 15.8541 13.5299 15.7051 13.301ZM7.11005 11.2393L5.56455 2.5H6.26275C6.28481 2.49988 6.3063 2.5071 6.3238 2.52054C6.34131 2.53397 6.35385 2.55285 6.35945 2.5742L8.57235 10.833H16.93C16.9538 10.833 16.9768 10.8413 16.9951 10.8564C17.0133 10.8716 17.0257 10.8927 17.03 10.916L17.1648 11.666L8.64625 12.417C8.60235 12.4209 8.56035 12.4219 8.51835 12.4219C8.18186 12.4224 7.856 12.3041 7.59832 12.0877C7.34063 11.8713 7.1677 11.5708 7.11005 11.2393Z" fill="black"/>
</svg>
