<svg width="24" height="24" viewBox="0 0 24 24" fill="none" xmlns="http://www.w3.org/2000/svg">
<path d="M12 2.80371L3 7.99991V20.9999H21V7.99991L12 2.80371ZM12.6816 15.9999H12.55V17.0499H11.45V15.9999H9.7V14.7999H12.6814C12.7602 14.7999 12.8382 14.7844 12.911 14.7542C12.9838 14.7241 13.0499 14.6799 13.1057 14.6242C13.1614 14.5685 13.2056 14.5023 13.2357 14.4295C13.2659 14.3567 13.2814 14.2787 13.2814 14.1999C13.2814 14.1211 13.2659 14.0431 13.2357 13.9703C13.2056 13.8975 13.1614 13.8314 13.1057 13.7756C13.0499 13.7199 12.9838 13.6757 12.911 13.6456C12.8382 13.6154 12.7602 13.5999 12.6814 13.5999H11.3242C10.8468 13.5999 10.389 13.4103 10.0514 13.0727C9.71384 12.7351 9.5242 12.2773 9.5242 11.7999C9.5242 11.3225 9.71384 10.8647 10.0514 10.5271C10.389 10.1896 10.8468 9.99991 11.3242 9.99991H11.4502V8.94991H12.5502V9.99991H14.0346V11.1999H11.3246C11.1655 11.1999 11.0129 11.2631 10.9003 11.3756C10.7878 11.4882 10.7246 11.6408 10.7246 11.7999C10.7246 11.959 10.7878 12.1117 10.9003 12.2242C11.0129 12.3367 11.1655 12.3999 11.3246 12.3999H12.682C13.1594 12.3999 13.6172 12.5896 13.9548 12.9271C14.2924 13.2647 14.482 13.7225 14.482 14.1999C14.482 14.6773 14.2924 15.1351 13.9548 15.4727C13.6172 15.8103 13.1594 15.9999 12.682 15.9999H12.6816Z" fill="black"/>
</svg>
