<svg width="24" height="24" viewBox="0 0 24 24" fill="none" xmlns="http://www.w3.org/2000/svg">
<path d="M2 6V19H2.5V9H15V19H22V6H2ZM21.5 18.5H15.5V14H17.5C17.5 14.1326 17.5527 14.2598 17.6464 14.3536C17.7402 14.4473 17.8674 14.5 18 14.5H19C19.1326 14.5 19.2598 14.4473 19.3536 14.3536C19.4473 14.2598 19.5 14.1326 19.5 14H21.5V18.5ZM21.5 13.5H15.5V9H17.5C17.5 9.13261 17.5527 9.25979 17.6464 9.35355C17.7402 9.44732 17.8674 9.5 18 9.5H19C19.1326 9.5 19.2598 9.44732 19.3536 9.35355C19.4473 9.25979 19.5 9.13261 19.5 9H21.5V13.5ZM2.5 8.5V6.5H21.5V8.5H2.5Z" fill="black"/>
</svg>
