<svg width="24" height="24" viewBox="0 0 24 24" fill="none" xmlns="http://www.w3.org/2000/svg">
<path d="M21 13V8C21 7.46957 20.7893 6.96086 20.4142 6.58579C20.0391 6.21071 19.5304 6 19 6H5C4.46957 6 3.96086 6.21071 3.58579 6.58579C3.21071 6.96086 3 7.46957 3 8V13H1V20H2V18H22V20H23V13H21ZM4 8C4.00029 7.73487 4.10574 7.48069 4.29321 7.29321C4.48069 7.10574 4.73487 7.00029 5 7H19C19.2651 7.00029 19.5193 7.10574 19.7068 7.29321C19.8943 7.48069 19.9997 7.73487 20 8V13H18.4322L17.9022 11.94C17.761 11.6575 17.544 11.42 17.2754 11.254C17.0068 11.0879 16.6973 11 16.3815 11H14.686C14.3703 11 14.0608 11.088 13.7922 11.254C13.5237 11.42 13.3067 11.6576 13.1655 11.94L12.6355 13H11.3646L10.8346 11.94C10.6934 11.6576 10.4764 11.42 10.2078 11.254C9.93926 11.088 9.62975 11 9.314 11H7.6185C7.30277 11 6.99328 11.088 6.72472 11.254C6.45617 11.42 6.23915 11.6576 6.098 11.94L5.5678 13H4V8ZM17.3141 13H13.7534L14.0599 12.387C14.1177 12.2704 14.207 12.1724 14.3176 12.104C14.4283 12.0356 14.5559 11.9996 14.686 12H16.3815C16.5116 11.9996 16.6392 12.0356 16.7499 12.104C16.8605 12.1724 16.9498 12.2704 17.0076 12.387L17.3141 13ZM10.2466 13H6.6859L6.9924 12.387C7.05017 12.2704 7.13945 12.1724 7.25012 12.104C7.36078 12.0356 7.4884 11.9996 7.6185 12H9.314C9.44409 11.9996 9.5717 12.0356 9.68237 12.104C9.79303 12.1724 9.88231 12.2704 9.9401 12.387L10.2466 13ZM2 17V14H22V17H2Z" fill="black"/>
</svg>
