<svg width="24" height="24" viewBox="0 0 24 24" fill="none" xmlns="http://www.w3.org/2000/svg">
<path d="M15.51 12.6078L18.81 12.3165L18.525 10.7742C18.473 10.4943 18.3247 10.2414 18.1057 10.0594C17.8868 9.87743 17.6111 9.7778 17.3264 9.7778H9.3823L7.2823 1.9389C7.21019 1.66953 7.05118 1.43149 6.82995 1.26173C6.60873 1.09196 6.33766 0.99996 6.0588 1H4.5L6.2628 10.9688C6.35483 11.4824 6.59525 11.9578 6.95438 12.3363C7.31352 12.7149 7.77564 12.9799 8.2837 13.0988C8.19793 13.2598 8.12983 13.4296 8.0806 13.6053L5.8306 22H7.2456L9.4 13.9593C9.46481 13.719 9.60164 13.5042 9.7921 13.344C9.98256 13.1837 10.2175 13.0856 10.4654 13.0628L13.2454 12.8109C13.5316 12.7814 13.8189 12.8558 14.0549 13.0206C14.2908 13.1853 14.4596 13.4294 14.5305 13.7083L16.7532 22H18.1682L15.8516 13.3548C15.7785 13.0891 15.6632 12.8369 15.51 12.6078Z" fill="black"/>
</svg>
