<svg width="24" height="24" viewBox="0 0 24 24" fill="none" xmlns="http://www.w3.org/2000/svg">
<path d="M4.6627 22H6.1775L7.392 13.5H16.6082L17.8225 22H19.3373L17.48 9H19V5.8C19 5.32261 18.8104 4.86477 18.4728 4.52721C18.1352 4.18964 17.6774 4 17.2 4H6.8C6.32261 4 5.86477 4.18964 5.5272 4.52721C5.18964 4.86477 5 5.32261 5 5.8V9H6.52L4.6627 22ZM7.6063 12L8.035 9H15.965L16.3936 12H7.6063ZM6.5 7.5V5.8C6.5 5.72044 6.5316 5.64413 6.58786 5.58787C6.64413 5.53161 6.72043 5.5 6.8 5.5H17.2C17.2796 5.5 17.3559 5.53161 17.4121 5.58787C17.4684 5.64413 17.5 5.72044 17.5 5.8V7.5H6.5Z" fill="black"/>
</svg>
