<svg width="24" height="24" viewBox="0 0 24 24" fill="none" xmlns="http://www.w3.org/2000/svg">
<path d="M18 17H16.6481L15.6481 10H17.3334V7.2667C17.3334 6.84235 17.1648 6.43539 16.8648 6.13533C16.5647 5.83527 16.1577 5.6667 15.7334 5.6667H11.6667L10.3967 2.1067C10.2812 1.78285 10.0683 1.50265 9.78729 1.30452C9.50627 1.10639 9.17084 1.00002 8.827 1H6.4131L7.9631 9.7889L6.1875 22.2178L7.1775 22.3584L7.8 18H15.78L16.4086 22.3994L17.3986 22.2588L16.791 18H18V17ZM8.827 2C8.96448 2.0002 9.09855 2.04282 9.21093 2.12203C9.3233 2.20124 9.4085 2.31319 9.4549 2.4426L10.7249 6.0026L10.9617 6.6666H15.7333C15.8924 6.66681 16.0449 6.73009 16.1573 6.84257C16.2698 6.95505 16.3331 7.10754 16.3333 7.2666V9H8.8391L7.6049 2H8.827ZM7.9431 17L8.9431 10H14.6379L15.6379 17H7.9431Z" fill="black"/>
</svg>
