<svg width="24" height="24" viewBox="0 0 24 24" fill="none" xmlns="http://www.w3.org/2000/svg">
<path d="M16 1H8C7.20435 1 6.44129 1.31607 5.87868 1.87868C5.31607 2.44129 5 3.20435 5 4V23H19V4C19 3.20435 18.6839 2.44129 18.1213 1.87868C17.5587 1.31607 16.7956 1 16 1ZM18.5 22.5H5.5V9.75H18.5V22.5ZM18.5 9.25H5.5V4C5.50074 3.33719 5.76437 2.70173 6.23305 2.23305C6.70173 1.76437 7.33719 1.50074 8 1.5H16C16.6628 1.50074 17.2983 1.76437 17.7669 2.23305C18.2356 2.70173 18.4993 3.33719 18.5 4V9.25ZM10.2708 6.25H7.5208V6.75H10.2708C10.3371 6.75 10.4007 6.72366 10.4476 6.67678C10.4945 6.62989 10.5208 6.5663 10.5208 6.5C10.5208 6.4337 10.4945 6.37011 10.4476 6.32322C10.4007 6.27634 10.3371 6.25 10.2708 6.25ZM10.5208 12.75C10.5208 12.6837 10.4945 12.6201 10.4476 12.5732C10.4007 12.5263 10.3371 12.5 10.2708 12.5H7.5208V13H10.2708C10.3371 13 10.4007 12.9737 10.4476 12.9268C10.4945 12.8799 10.5208 12.8163 10.5208 12.75Z" fill="black"/>
</svg>
