<svg width="24" height="24" viewBox="0 0 24 24" fill="none" xmlns="http://www.w3.org/2000/svg">
<path d="M16 1H8C7.20435 1 6.44129 1.31607 5.87868 1.87868C5.31607 2.44129 5 3.20435 5 4V9.25H19V4C19 3.20435 18.6839 2.44129 18.1213 1.87868C17.5587 1.31607 16.7956 1 16 1ZM9.25 7H7V5.5H9.25C9.44891 5.5 9.63968 5.57902 9.78033 5.71967C9.92098 5.86032 10 6.05109 10 6.25C10 6.44891 9.92098 6.63968 9.78033 6.78033C9.63968 6.92098 9.44891 7 9.25 7ZM5 23H19V9.75H5V23ZM7 12H9.25C9.44891 12 9.63968 12.079 9.78033 12.2197C9.92098 12.3603 10 12.5511 10 12.75C10 12.9489 9.92098 13.1397 9.78033 13.2803C9.63968 13.421 9.44891 13.5 9.25 13.5H7V12Z" fill="black"/>
</svg>
