<svg width="24" height="24" viewBox="0 0 24 24" fill="none" xmlns="http://www.w3.org/2000/svg">
<path d="M1 14V20H1.5V18H22.5V20H23V14H1ZM6.6413 12.4673C6.78665 12.1766 7.01006 11.9322 7.28651 11.7613C7.56296 11.5905 7.88152 11.5 8.2065 11.5H9.2674C9.59238 11.5 9.91094 11.5905 10.1874 11.7613C10.4638 11.9322 10.6873 12.1766 10.8326 12.4673L11.3489 13.5H12.6511L13.1674 12.4673C13.3127 12.1766 13.5362 11.9322 13.8126 11.7613C14.0891 11.5905 14.4076 11.5 14.7326 11.5H15.7935C16.1185 11.5 16.437 11.5905 16.7135 11.7613C16.9899 11.9322 17.2134 12.1766 17.3587 12.4673L17.875 13.5H21V8C21 7.46957 20.7893 6.96086 20.4142 6.58579C20.0391 6.21071 19.5304 6 19 6H5C4.46957 6 3.96086 6.21071 3.58579 6.58579C3.21071 6.96086 3 7.46957 3 8V13.5H6.125L6.6413 12.4673Z" fill="black"/>
</svg>
