<svg width="24" height="24" viewBox="0 0 24 24" fill="none" xmlns="http://www.w3.org/2000/svg">
<path d="M18.275 19.7999C18.0574 19.7999 17.8448 19.8644 17.6639 19.9853C17.483 20.1062 17.342 20.278 17.2587 20.479C17.1755 20.68 17.1537 20.9011 17.1961 21.1145C17.2386 21.3279 17.3433 21.5239 17.4972 21.6777C17.651 21.8316 17.847 21.9363 18.0604 21.9788C18.2738 22.0212 18.495 21.9994 18.6959 21.9162C18.8969 21.8329 19.0687 21.6919 19.1896 21.511C19.3105 21.3301 19.375 21.1175 19.375 20.8999C19.375 20.6082 19.2591 20.3284 19.0528 20.1221C18.8465 19.9158 18.5667 19.7999 18.275 19.7999ZM7.725 19.7999C7.50744 19.7999 7.29476 19.8644 7.11387 19.9853C6.93298 20.1062 6.79199 20.278 6.70873 20.479C6.62547 20.68 6.60369 20.9011 6.64613 21.1145C6.68858 21.3279 6.79334 21.5239 6.94718 21.6777C7.10102 21.8316 7.29702 21.9363 7.5104 21.9788C7.72378 22.0212 7.94495 21.9994 8.14595 21.9162C8.34695 21.8329 8.51875 21.6919 8.63962 21.511C8.76048 21.3301 8.825 21.1175 8.825 20.8999C8.825 20.6082 8.70911 20.3284 8.50282 20.1221C8.29653 19.9158 8.01674 19.7999 7.725 19.7999ZM10.4164 13.0564L12.75 12.8523V18.4999H7.25C7.18369 18.4999 7.12011 18.5262 7.07322 18.5731C7.02634 18.62 7 18.6836 7 18.7499V18.9999H19V18.7499C19 18.6836 18.9737 18.62 18.9268 18.5731C18.8799 18.5262 18.8163 18.4999 18.75 18.4999H13.25V12.8085L19.6767 12.2462L19.5092 11.364C19.4719 11.1678 19.3674 10.9908 19.2136 10.8635C19.0598 10.7362 18.8664 10.6665 18.6667 10.6665H15.2353L15.8372 9.0129C15.9197 8.7863 15.9463 8.54316 15.9148 8.30408C15.8833 8.065 15.7947 7.83703 15.6564 7.63951C15.518 7.44198 15.3341 7.28071 15.1202 7.16937C14.9063 7.05803 14.6687 6.9999 14.4276 6.9999H9.23L8 2.4078C7.94304 2.19514 7.81749 2.00721 7.64283 1.87318C7.46817 1.73914 7.25416 1.66649 7.034 1.6665H6.2717L7.9458 11.1606C8.04591 11.7283 8.35514 12.2379 8.81249 12.5889C9.26984 12.9398 9.84211 13.1066 10.4164 13.0564ZM14.4276 7.4999C14.5884 7.49986 14.7468 7.53858 14.8894 7.61279C15.0321 7.687 15.1547 7.7945 15.247 7.9262C15.3392 8.05789 15.3983 8.20988 15.4193 8.36929C15.4403 8.5287 15.4226 8.69081 15.3676 8.8419L14.7035 10.6665H10.2119L9.3636 7.4999H14.4276Z" fill="black"/>
</svg>
