<svg width="24" height="24" viewBox="0 0 24 24" fill="none" xmlns="http://www.w3.org/2000/svg">
<path d="M4.5 10V6C4.50045 5.60231 4.65863 5.22104 4.93984 4.93984C5.22104 4.65863 5.60231 4.50045 6 4.5H10V3H6C5.20462 3.00087 4.44206 3.31722 3.87964 3.87964C3.31722 4.44206 3.00087 5.20462 3 6V21H4.5V19H19.5V21H21V10H4.5ZM7.125 17H4.5V11.5H7.125V17ZM11.25 17H8.625V11.5H11.25V17ZM15.375 17H12.75V11.5H15.375V17ZM19.5 17H16.875V11.5H19.5V17ZM11.5 7.5C11.6978 7.5 11.8911 7.44135 12.0556 7.33147C12.22 7.22159 12.3482 7.06541 12.4239 6.88268C12.4996 6.69996 12.5194 6.49889 12.4808 6.30491C12.4422 6.11093 12.347 5.93275 12.2071 5.79289C12.0673 5.65304 11.8891 5.5578 11.6951 5.51921C11.5011 5.48063 11.3 5.50043 11.1173 5.57612C10.9346 5.65181 10.7784 5.77998 10.6685 5.94443C10.5586 6.10888 10.5 6.30222 10.5 6.5C10.5 6.76522 10.6054 7.01957 10.7929 7.20711C10.9804 7.39464 11.2348 7.5 11.5 7.5ZM7.5 6.5C7.5 6.69778 7.55865 6.89112 7.66853 7.05557C7.77841 7.22002 7.93459 7.34819 8.11732 7.42388C8.30004 7.49957 8.50111 7.51937 8.69509 7.48079C8.88907 7.4422 9.06725 7.34696 9.20711 7.20711C9.34696 7.06725 9.4422 6.88907 9.48079 6.69509C9.51937 6.50111 9.49957 6.30004 9.42388 6.11732C9.34819 5.93459 9.22002 5.77841 9.05557 5.66853C8.89112 5.55865 8.69778 5.5 8.5 5.5C8.23478 5.5 7.98043 5.60536 7.79289 5.79289C7.60536 5.98043 7.5 6.23478 7.5 6.5Z" fill="black"/>
</svg>
