<svg width="24" height="24" viewBox="0 0 24 24" fill="none" xmlns="http://www.w3.org/2000/svg">
<path d="M12 2.80371L3 7.99991V20.9999H21V7.99991L12 2.80371ZM19.5 19.4999H4.5V8.86591L12 4.53591L19.5 8.86591V19.4999ZM11.45 8.94991V9.99991H11.324C10.8466 9.99991 10.3888 10.1896 10.0512 10.5271C9.71364 10.8647 9.524 11.3225 9.524 11.7999C9.524 12.2773 9.71364 12.7351 10.0512 13.0727C10.3888 13.4103 10.8466 13.5999 11.324 13.5999H12.6814C12.7602 13.5999 12.8382 13.6154 12.911 13.6456C12.9838 13.6757 13.0499 13.7199 13.1057 13.7756C13.1614 13.8314 13.2056 13.8975 13.2357 13.9703C13.2659 14.0431 13.2814 14.1211 13.2814 14.1999C13.2814 14.2787 13.2659 14.3567 13.2357 14.4295C13.2056 14.5023 13.1614 14.5685 13.1057 14.6242C13.0499 14.6799 12.9838 14.7241 12.911 14.7542C12.8382 14.7844 12.7602 14.7999 12.6814 14.7999H9.7V15.9999H11.45V17.0499H12.55V15.9999H12.6818C13.1592 15.9999 13.617 15.8103 13.9546 15.4727C14.2922 15.1351 14.4818 14.6773 14.4818 14.1999C14.4818 13.7225 14.2922 13.2647 13.9546 12.9271C13.617 12.5896 13.1592 12.3999 12.6818 12.3999H11.3242C11.1651 12.3999 11.0125 12.3367 10.8999 12.2242C10.7874 12.1117 10.7242 11.959 10.7242 11.7999C10.7242 11.6408 10.7874 11.4882 10.8999 11.3756C11.0125 11.2631 11.1651 11.1999 11.3242 11.1999H14.0342V9.99991H12.55V8.94991H11.45Z" fill="black"/>
</svg>
