<svg width="24" height="24" viewBox="0 0 24 24" fill="none" xmlns="http://www.w3.org/2000/svg">
<path d="M12 2C10.1435 2 8.36301 2.7375 7.05025 4.05025C5.7375 5.36301 5 7.14348 5 9C4.99997 9.95112 5.18728 10.8929 5.55126 11.7716C5.91523 12.6504 6.44874 13.4488 7.1213 14.1213C7.68387 14.6839 7.99993 15.447 8 16.2426V19C8 19.7956 8.31607 20.5587 8.87868 21.1213C9.44129 21.6839 10.2044 22 11 22H13C13.7956 22 14.5587 21.6839 15.1213 21.1213C15.6839 20.5587 16 19.7956 16 19V16.2426C16.0001 15.447 16.3161 14.6839 16.8787 14.1213C17.5513 13.4488 18.0848 12.6504 18.4487 11.7716C18.8127 10.8929 19 9.95112 19 9C19 7.14348 18.2625 5.36301 16.9497 4.05025C15.637 2.7375 13.8565 2 12 2ZM14 19C13.9997 19.2651 13.8943 19.5193 13.7068 19.7068C13.5193 19.8943 13.2651 19.9997 13 20H11C10.7349 19.9997 10.4807 19.8943 10.2932 19.7068C10.1057 19.5193 10.0003 19.2651 10 19V18H14V19ZM15.4644 12.7072C14.5889 13.5857 14.0748 14.7607 14.0237 16H9.9763C9.9252 14.7607 9.41103 13.5856 8.5354 12.707C8.04708 12.2213 7.65994 11.6436 7.39639 11.0073C7.13284 10.371 6.99811 9.68872 7 9C7 7.67392 7.52678 6.40215 8.46447 5.46447C9.40215 4.52678 10.6739 4 12 4C13.3261 4 14.5979 4.52678 15.5355 5.46447C16.4732 6.40215 17 7.67392 17 9C17.0019 9.68877 16.8671 10.3711 16.6035 11.0074C16.34 11.6438 15.9528 12.2215 15.4644 12.7072Z" fill="black"/>
</svg>
