<svg width="24" height="24" viewBox="0 0 24 24" fill="none" xmlns="http://www.w3.org/2000/svg">
<path d="M12 2.80371L3 7.99991V20.9999H21V7.99991L12 2.80371ZM12.66 15.9999H12.6V17.0499H11.4V15.9999H9.75V14.6999H12.66C12.7967 14.6961 12.9266 14.6392 13.022 14.5411C13.1173 14.4431 13.1707 14.3117 13.1707 14.1749C13.1707 14.0381 13.1173 13.9067 13.022 13.8087C12.9266 13.7107 12.7967 13.6537 12.66 13.6499H11.34C11.1003 13.6499 10.863 13.6027 10.6416 13.511C10.4202 13.4193 10.219 13.2848 10.0495 13.1154C9.88006 12.9459 9.74564 12.7447 9.65392 12.5233C9.56221 12.3019 9.515 12.0646 9.515 11.8249C9.515 11.5852 9.56221 11.3479 9.65392 11.1265C9.74564 10.9051 9.88006 10.7039 10.0495 10.5344C10.219 10.365 10.4202 10.2305 10.6416 10.1388C10.863 10.0471 11.1003 9.99991 11.34 9.99991H11.4V8.94991H12.6V9.99991H13.9848V11.2999H11.34C11.2033 11.3037 11.0734 11.3607 10.978 11.4587C10.8827 11.5567 10.8293 11.6881 10.8293 11.8249C10.8293 11.9617 10.8827 12.0931 10.978 12.1911C11.0734 12.2892 11.2033 12.3461 11.34 12.3499H12.66C12.8997 12.3499 13.137 12.3971 13.3584 12.4888C13.5798 12.5805 13.781 12.715 13.9505 12.8844C14.1199 13.0539 14.2544 13.2551 14.3461 13.4765C14.4378 13.6979 14.485 13.9352 14.485 14.1749C14.485 14.4146 14.4378 14.6519 14.3461 14.8733C14.2544 15.0947 14.1199 15.2959 13.9505 15.4654C13.781 15.6348 13.5798 15.7693 13.3584 15.861C13.137 15.9527 12.8997 15.9999 12.66 15.9999Z" fill="black"/>
</svg>
