<svg width="24" height="24" viewBox="0 0 24 24" fill="none" xmlns="http://www.w3.org/2000/svg">
<path d="M0 14V20H1V18H23V20H24V14H0ZM6.0163 11.9673C6.16165 11.6766 6.38506 11.4322 6.66151 11.2613C6.93796 11.0905 7.25652 11 7.5815 11H8.6424C8.96738 11 9.28594 11.0905 9.56239 11.2613C9.83884 11.4322 10.0623 11.6766 10.2076 11.9673L10.7239 13H13.2761L13.7924 11.9673C13.9377 11.6766 14.1612 11.4322 14.4376 11.2613C14.7141 11.0905 15.0326 11 15.3576 11H16.4185C16.7435 11 17.062 11.0905 17.3385 11.2613C17.6149 11.4322 17.8384 11.6766 17.9837 11.9673L18.5 13H22V8C22 7.46957 21.7893 6.96086 21.4142 6.58579C21.0391 6.21071 20.5304 6 20 6H4C3.46957 6 2.96086 6.21071 2.58579 6.58579C2.21071 6.96086 2 7.46957 2 8V13H5.5L6.0163 11.9673Z" fill="black"/>
</svg>
