<svg width="24" height="24" viewBox="0 0 24 24" fill="none" xmlns="http://www.w3.org/2000/svg">
<path d="M3 14V20H4.5V18H19.5V20H21V14H3ZM9.92 11.4673C10.0654 11.1766 10.2889 10.9321 10.5654 10.7612C10.842 10.5904 11.1606 10.4999 11.4857 10.5H12.5143C12.8393 10.5 13.1579 10.5905 13.4343 10.7613C13.7108 10.9322 13.9342 11.1766 14.0796 11.4673L14.5959 12.5H19V7C19 6.46957 18.7893 5.96086 18.4142 5.58579C18.0391 5.21071 17.5304 5 17 5H7C6.46957 5 5.96086 5.21071 5.58579 5.58579C5.21071 5.96086 5 6.46957 5 7V12.5H9.4041L9.92 11.4673Z" fill="black"/>
</svg>
