<svg width="24" height="24" viewBox="0 0 24 24" fill="none" xmlns="http://www.w3.org/2000/svg">
<path d="M18.9843 13.349L18.4758 10.4853C18.4019 10.069 18.1838 9.692 17.8597 9.42042C17.5356 9.14883 17.1263 8.99999 16.7035 9H9.97909L8.19299 2.3341C8.09043 1.95136 7.86444 1.61316 7.55007 1.37194C7.23571 1.13073 6.85053 0.999991 6.45429 1H3.43689L5.34459 11.7945C5.44973 12.3857 5.73001 12.9316 6.14912 13.3616C6.56822 13.7916 7.10681 14.0858 7.69509 14.206L5.60619 22H7.46999L8.13319 19.5253L11.9853 17.3009L15.8717 19.5452L16.5292 22H18.3926L16.1411 13.5977L18.9843 13.349ZM7.11719 11.4813L5.58289 2.8H6.45429L8.24049 9.4659L8.59789 10.8H16.7035L16.8682 11.7273L8.40339 12.4679C8.36739 12.4711 8.33169 12.4726 8.29609 12.4726C8.01432 12.4726 7.74159 12.3732 7.52594 12.1919C7.31028 12.0105 7.16553 11.7589 7.11719 11.4813ZM8.71849 17.34L9.16539 15.6729L10.3854 16.3775L8.71849 17.34ZM13.5842 16.3775L14.8298 15.6583L15.2858 17.36L13.5842 16.3775ZM14.4011 14.0586L11.9849 15.4539L9.74059 14.1579L14.3206 13.7572L14.4011 14.0586Z" fill="black"/>
</svg>
