<svg width="24" height="24" viewBox="0 0 24 24" fill="none" xmlns="http://www.w3.org/2000/svg">
<path d="M18 8H6.00002V10H11.25V19H12.75V10H18V8ZM7.50002 12H3.72442L2.64812 5H1.13062L2.32322 12.7559L1.46062 19H2.97512L3.66512 14H7.50002V19H9.00002V13.5C9.00002 13.1022 8.84198 12.7206 8.56068 12.4393C8.27937 12.158 7.89784 12 7.50002 12ZM22.8694 5H21.3519L20.2756 12H16.5C16.1022 12 15.7207 12.158 15.4394 12.4393C15.1581 12.7206 15 13.1022 15 13.5V19H16.5V14H20.3345L21.0245 19H22.539L21.6764 12.7559L22.8694 5Z" fill="black"/>
</svg>
