<svg width="24" height="24" viewBox="0 0 24 24" fill="none" xmlns="http://www.w3.org/2000/svg">
<path d="M21.5 11C21.3293 11.0016 21.1601 11.0327 21 11.0918V8C21 7.20435 20.6839 6.44129 20.1213 5.87868C19.5587 5.31607 18.7956 5 18 5H6C5.20435 5 4.44129 5.31607 3.87868 5.87868C3.31607 6.44129 3 7.20435 3 8V11.0918C2.83985 11.0327 2.67071 11.0016 2.5 11C2.10218 11 1.72064 11.158 1.43934 11.4393C1.15804 11.7206 1 12.1022 1 12.5V20H2V18H22V20H23V12.5C23 12.1022 22.842 11.7206 22.5607 11.4393C22.2794 11.158 21.8978 11 21.5 11ZM4 8C4.00061 7.46975 4.21152 6.9614 4.58646 6.58646C4.9614 6.21152 5.46975 6.00061 6 6H18C18.5302 6.00061 19.0386 6.21152 19.4135 6.58646C19.7885 6.9614 19.9994 7.46975 20 8V13H18.4322L17.9022 11.94C17.761 11.6575 17.544 11.42 17.2754 11.254C17.0068 11.0879 16.6973 11 16.3815 11H14.686C14.3703 11 14.0608 11.088 13.7922 11.254C13.5237 11.42 13.3067 11.6576 13.1655 11.94L12.6355 13H11.3646L10.8346 11.94C10.6934 11.6576 10.4764 11.42 10.2078 11.254C9.93926 11.088 9.62975 11 9.314 11H7.6185C7.30277 11 6.99328 11.088 6.72472 11.254C6.45617 11.42 6.23915 11.6576 6.098 11.94L5.5678 13H4V8ZM17.3141 13H13.7534L14.0599 12.3869C14.1177 12.2704 14.207 12.1724 14.3177 12.104C14.4283 12.0356 14.5559 11.9996 14.686 12H16.3815C16.5116 11.9996 16.6392 12.0356 16.7499 12.104C16.8605 12.1723 16.9498 12.2704 17.0076 12.3869L17.3141 13ZM10.2466 13H6.6859L6.9924 12.387C7.05017 12.2704 7.13945 12.1724 7.25012 12.104C7.36078 12.0356 7.4884 11.9996 7.6185 12H9.314C9.44409 11.9996 9.5717 12.0356 9.68237 12.104C9.79303 12.1724 9.88231 12.2704 9.9401 12.387L10.2466 13ZM2 17V12.5C2 12.3674 2.05268 12.2402 2.14645 12.1464C2.24021 12.0527 2.36739 12 2.5 12C2.63261 12 2.75979 12.0527 2.85355 12.1464C2.94732 12.2402 3 12.3674 3 12.5V14H21V12.5C21 12.3674 21.0527 12.2402 21.1464 12.1464C21.2402 12.0527 21.3674 12 21.5 12C21.6326 12 21.7598 12.0527 21.8536 12.1464C21.9473 12.2402 22 12.3674 22 12.5V17H2Z" fill="black"/>
</svg>
