<svg width="24" height="24" viewBox="0 0 24 24" fill="none" xmlns="http://www.w3.org/2000/svg">
<path d="M21.5 4V8.3629C18.8521 10.2798 15.5645 10.5876 11.9873 10.5876C8.4215 10.5876 5.1437 10.2813 2.5 8.3806V4H2V20H2.5V10.4149C3.1224 12.4547 4.38562 14.2396 6.10236 15.5049C7.81909 16.7702 9.8979 17.4486 12.0305 17.4394C14.1632 17.4302 16.236 16.7339 17.9418 15.4538C19.6475 14.1737 20.8953 12.3779 21.5 10.3328V20H22V4H21.5ZM11.9873 16.94C9.76927 16.9372 7.62291 16.1543 5.92407 14.7282C4.22522 13.3022 3.08218 11.324 2.6951 9.14C5.5286 10.9247 8.9503 11.0881 11.9873 11.0881C15.0243 11.0881 18.446 10.9242 21.28 9.14C20.8929 11.3241 19.7498 13.3024 18.0509 14.7284C16.3519 16.1545 14.2054 16.9374 11.9873 16.94Z" fill="black"/>
</svg>
