<svg width="24" height="24" viewBox="0 0 24 24" fill="none" xmlns="http://www.w3.org/2000/svg">
<path d="M3 3V21H21V3H3ZM19 19H5V5H19V19ZM15.125 11.375C15.6195 11.375 16.1028 11.2284 16.5139 10.9537C16.925 10.679 17.2455 10.2885 17.4347 9.83171C17.6239 9.37489 17.6734 8.87223 17.577 8.38727C17.4805 7.90232 17.2424 7.45686 16.8928 7.10723C16.5431 6.7576 16.0977 6.5195 15.6127 6.42304C15.1278 6.32657 14.6251 6.37608 14.1683 6.5653C13.7115 6.75452 13.321 7.07495 13.0463 7.48607C12.7716 7.8972 12.625 8.38055 12.625 8.875C12.625 9.53804 12.8884 10.1739 13.3572 10.6428C13.8261 11.1116 14.462 11.375 15.125 11.375ZM15.125 7.975C15.303 7.975 15.477 8.02778 15.625 8.12668C15.773 8.22557 15.8884 8.36613 15.9565 8.53059C16.0246 8.69504 16.0424 8.876 16.0077 9.05058C15.973 9.22516 15.8873 9.38553 15.7614 9.5114C15.6355 9.63726 15.4752 9.72298 15.3006 9.75771C15.126 9.79243 14.945 9.77461 14.7806 9.70649C14.6161 9.63837 14.4756 9.52302 14.3767 9.37501C14.2778 9.22701 14.225 9.053 14.225 8.875C14.2253 8.63639 14.3202 8.40762 14.4889 8.2389C14.6576 8.07017 14.8864 7.97526 15.125 7.975ZM8.875 11.375C9.36945 11.375 9.8528 11.2284 10.2639 10.9537C10.675 10.679 10.9955 10.2885 11.1847 9.83171C11.3739 9.37489 11.4234 8.87223 11.327 8.38727C11.2305 7.90232 10.9924 7.45686 10.6428 7.10723C10.2931 6.7576 9.84768 6.5195 9.36273 6.42304C8.87777 6.32657 8.37511 6.37608 7.91829 6.5653C7.46148 6.75452 7.07103 7.07495 6.79633 7.48607C6.52162 7.8972 6.375 8.38055 6.375 8.875C6.375 9.53804 6.63839 10.1739 7.10723 10.6428C7.57607 11.1116 8.21196 11.375 8.875 11.375ZM8.875 7.975C9.053 7.975 9.22701 8.02778 9.37501 8.12668C9.52302 8.22557 9.63837 8.36613 9.70649 8.53059C9.77461 8.69504 9.79243 8.876 9.75771 9.05058C9.72298 9.22516 9.63726 9.38553 9.5114 9.5114C9.38553 9.63726 9.22516 9.72298 9.05058 9.75771C8.876 9.79243 8.69504 9.77461 8.53059 9.70649C8.36613 9.63837 8.22557 9.52302 8.12668 9.37501C8.02778 9.22701 7.975 9.053 7.975 8.875C7.97526 8.63639 8.07017 8.40762 8.2389 8.2389C8.40762 8.07017 8.63639 7.97526 8.875 7.975ZM8.875 17.625C9.36945 17.625 9.8528 17.4784 10.2639 17.2037C10.675 16.929 10.9955 16.5385 11.1847 16.0817C11.3739 15.6249 11.4234 15.1222 11.327 14.6373C11.2305 14.1523 10.9924 13.7069 10.6428 13.3572C10.2931 13.0076 9.84768 12.7695 9.36273 12.673C8.87777 12.5766 8.37511 12.6261 7.91829 12.8153C7.46148 13.0045 7.07103 13.325 6.79633 13.7361C6.52162 14.1472 6.375 14.6305 6.375 15.125C6.375 15.788 6.63839 16.4239 7.10723 16.8928C7.57607 17.3616 8.21196 17.625 8.875 17.625ZM8.875 14.225C9.053 14.225 9.22701 14.2778 9.37501 14.3767C9.52302 14.4756 9.63837 14.6161 9.70649 14.7806C9.77461 14.945 9.79243 15.126 9.75771 15.3006C9.72298 15.4752 9.63726 15.6355 9.5114 15.7614C9.38553 15.8873 9.22516 15.973 9.05058 16.0077C8.876 16.0424 8.69504 16.0246 8.53059 15.9565C8.36613 15.8884 8.22557 15.773 8.12668 15.625C8.02778 15.477 7.975 15.303 7.975 15.125C7.97526 14.8864 8.07017 14.6576 8.2389 14.4889C8.40762 14.3202 8.63639 14.2253 8.875 14.225ZM15.125 17.625C15.6195 17.625 16.1028 17.4784 16.5139 17.2037C16.925 16.929 17.2455 16.5385 17.4347 16.0817C17.6239 15.6249 17.6734 15.1222 17.577 14.6373C17.4805 14.1523 17.2424 13.7069 16.8928 13.3572C16.5431 13.0076 16.0977 12.7695 15.6127 12.673C15.1278 12.5766 14.6251 12.6261 14.1683 12.8153C13.7115 13.0045 13.321 13.325 13.0463 13.7361C12.7716 14.1472 12.625 14.6305 12.625 15.125C12.625 15.788 12.8884 16.4239 13.3572 16.8928C13.8261 17.3616 14.462 17.625 15.125 17.625ZM15.125 14.225C15.303 14.225 15.477 14.2778 15.625 14.3767C15.773 14.4756 15.8884 14.6161 15.9565 14.7806C16.0246 14.945 16.0424 15.126 16.0077 15.3006C15.973 15.4752 15.8873 15.6355 15.7614 15.7614C15.6355 15.8873 15.4752 15.973 15.3006 16.0077C15.126 16.0424 14.945 16.0246 14.7806 15.9565C14.6161 15.8884 14.4756 15.773 14.3767 15.625C14.2778 15.477 14.225 15.303 14.225 15.125C14.2253 14.8864 14.3202 14.6576 14.4889 14.4889C14.6576 14.3202 14.8864 14.2253 15.125 14.225Z" fill="black"/>
</svg>
