<svg width="24" height="24" viewBox="0 0 24 24" fill="none" xmlns="http://www.w3.org/2000/svg">
<path d="M8.2188 6.2188C7.82324 6.2188 7.43656 6.3361 7.10766 6.55586C6.77876 6.77562 6.52242 7.08798 6.37104 7.45343C6.21967 7.81889 6.18006 8.22102 6.25723 8.60898C6.3344 8.99694 6.52488 9.35331 6.80459 9.63301C7.08429 9.91272 7.44066 10.1032 7.82862 10.1804C8.21658 10.2575 8.61871 10.2179 8.98417 10.0666C9.34962 9.91518 9.66198 9.65884 9.88174 9.32994C10.1015 9.00104 10.2188 8.61436 10.2188 8.2188C10.2182 7.68855 10.0073 7.18018 9.63237 6.80523C9.25742 6.43028 8.74905 6.21938 8.2188 6.2188ZM15.7812 13.7812C15.3856 13.7812 14.999 13.8985 14.6701 14.1183C14.3412 14.338 14.0848 14.6504 13.9334 15.0158C13.7821 15.3813 13.7425 15.7834 13.8196 16.1714C13.8968 16.5593 14.0873 16.9157 14.367 17.1954C14.6467 17.4751 15.0031 17.6656 15.391 17.7428C15.779 17.8199 16.1811 17.7803 16.5466 17.629C16.912 17.4776 17.2244 17.2212 17.4441 16.8923C17.6639 16.5634 17.7812 16.1768 17.7812 15.7812C17.7806 15.251 17.5697 14.7426 17.1947 14.3677C16.8198 13.9927 16.3114 13.7818 15.7812 13.7812ZM8.2188 13.7812C7.82324 13.7812 7.43656 13.8985 7.10766 14.1183C6.77876 14.338 6.52242 14.6504 6.37104 15.0158C6.21967 15.3813 6.18006 15.7834 6.25723 16.1714C6.3344 16.5593 6.52488 16.9157 6.80459 17.1954C7.08429 17.4751 7.44066 17.6656 7.82862 17.7428C8.21658 17.8199 8.61871 17.7803 8.98417 17.629C9.34962 17.4776 9.66198 17.2212 9.88174 16.8923C10.1015 16.5634 10.2188 16.1768 10.2188 15.7812C10.2182 15.251 10.0073 14.7426 9.63234 14.3677C9.2574 13.9927 8.74905 13.7818 8.2188 13.7812ZM3 3V21H21V3H3ZM8.2188 18.2812C7.72435 18.2812 7.241 18.1346 6.82987 17.8599C6.41875 17.5852 6.09832 17.1947 5.9091 16.7379C5.71988 16.2811 5.67037 15.7784 5.76684 15.2935C5.8633 14.8085 6.1014 14.3631 6.45103 14.0134C6.80066 13.6638 7.24612 13.4257 7.73107 13.3292C8.21603 13.2328 8.71869 13.2823 9.17551 13.4715C9.63232 13.6607 10.0228 13.9812 10.2975 14.3923C10.5722 14.8034 10.7188 15.2867 10.7188 15.7812C10.7188 16.4442 10.4554 17.0801 9.98657 17.549C9.51773 18.0178 8.88184 18.2812 8.2188 18.2812ZM8.2188 10.7188C7.72435 10.7188 7.241 10.5722 6.82987 10.2975C6.41875 10.0228 6.09832 9.63232 5.9091 9.17551C5.71988 8.71869 5.67037 8.21603 5.76684 7.73107C5.8633 7.24612 6.1014 6.80066 6.45103 6.45103C6.80066 6.1014 7.24612 5.8633 7.73107 5.76684C8.21603 5.67037 8.71869 5.71988 9.17551 5.9091C9.63232 6.09832 10.0228 6.41875 10.2975 6.82987C10.5722 7.241 10.7188 7.72435 10.7188 8.2188C10.7188 8.88184 10.4554 9.51773 9.98657 9.98657C9.51773 10.4554 8.88184 10.7188 8.2188 10.7188ZM15.7812 18.2812C15.2867 18.2812 14.8034 18.1346 14.3923 17.8599C13.9812 17.5852 13.6607 17.1947 13.4715 16.7379C13.2823 16.2811 13.2328 15.7784 13.3292 15.2935C13.4257 14.8085 13.6638 14.3631 14.0134 14.0134C14.3631 13.6638 14.8085 13.4257 15.2935 13.3292C15.7784 13.2328 16.2811 13.2823 16.7379 13.4715C17.1947 13.6607 17.5852 13.9812 17.8599 14.3923C18.1346 14.8034 18.2812 15.2867 18.2812 15.7812C18.2812 16.4442 18.0178 17.0801 17.549 17.549C17.0801 18.0178 16.4442 18.2812 15.7812 18.2812ZM15.7812 10.7188C15.2867 10.7188 14.8034 10.5722 14.3923 10.2975C13.9812 10.0228 13.6607 9.63232 13.4715 9.17551C13.2823 8.71869 13.2328 8.21603 13.3292 7.73107C13.4257 7.24612 13.6638 6.80066 14.0134 6.45103C14.3631 6.1014 14.8085 5.8633 15.2935 5.76684C15.7784 5.67037 16.2811 5.71988 16.7379 5.9091C17.1947 6.09832 17.5852 6.41875 17.8599 6.82987C18.1346 7.241 18.2812 7.72435 18.2812 8.2188C18.2812 8.5471 18.2165 8.87219 18.0909 9.17551C17.9653 9.47882 17.7811 9.75442 17.549 9.98657C17.3168 10.2187 17.0412 10.4029 16.7379 10.5285C16.4346 10.6541 16.1095 10.7188 15.7812 10.7188Z" fill="black"/>
</svg>
