<svg width="24" height="24" viewBox="0 0 24 24" fill="none" xmlns="http://www.w3.org/2000/svg">
<path d="M21 12.5V7C21 6.46957 20.7893 5.96086 20.4142 5.58579C20.0391 5.21071 19.5304 5 19 5H5C4.46957 5 3.96086 5.21071 3.58579 5.58579C3.21071 5.96086 3 6.46957 3 7V12.5H1V20H2.5V18H21.5V20H23V12.5H21ZM4.5 7C4.50016 6.86744 4.55289 6.74036 4.64662 6.64662C4.74036 6.55289 4.86744 6.50016 5 6.5H19C19.1326 6.50016 19.2596 6.55289 19.3534 6.64662C19.4471 6.74036 19.4998 6.86744 19.5 7V12.5H17.625L17.2896 11.8292C17.165 11.58 16.9735 11.3705 16.7365 11.224C16.4996 11.0776 16.2265 11 15.9479 11H14.5779C14.2993 11 14.0263 11.0776 13.7893 11.224C13.5524 11.3705 13.3609 11.58 13.2363 11.8292L12.9009 12.5H11.0989L10.7635 11.8292C10.6389 11.58 10.4474 11.3705 10.2105 11.224C9.97352 11.0776 9.70046 11 9.4219 11H8.0519C7.77332 11 7.50024 11.0776 7.26327 11.224C7.02629 11.3705 6.83478 11.58 6.7102 11.8292L6.375 12.5H4.5V7ZM2.5 16.5V14H21.5V16.5H2.5Z" fill="black"/>
</svg>
