<svg width="24" height="24" viewBox="0 0 24 24" fill="none" xmlns="http://www.w3.org/2000/svg">
<path d="M19.5 4V8H15.5V4H14V8H11.08L10.564 6.9673C10.4186 6.67662 10.1952 6.43216 9.91875 6.26131C9.64228 6.09047 9.3237 5.99998 8.9987 6H7.97C7.64502 6 7.32646 6.0905 7.05001 6.26134C6.77356 6.43219 6.55015 6.67664 6.4048 6.9673L5.8884 8H4.5V4H3V20H4.5V18H14V20H15.5V18H19.5V20H21V4H19.5ZM11.08 16L10.5637 14.9673C10.4184 14.6767 10.195 14.4322 9.91857 14.2614C9.64216 14.0905 9.32365 14 8.9987 14H7.97C7.64502 14 7.32646 14.0905 7.05001 14.2613C6.77356 14.4322 6.55015 14.6766 6.4048 14.9673L5.8884 16H4.5V10H14V16H11.08ZM19.5 16H15.5V13.75H19.5V16ZM19.5 12.25H15.5V10H19.5V12.25Z" fill="black"/>
</svg>
