<svg width="24" height="24" viewBox="0 0 24 24" fill="none" xmlns="http://www.w3.org/2000/svg">
<path d="M13 12H14.8157C14.5798 11.3328 14.1156 10.7704 13.5052 10.4124C12.8948 10.0543 12.1775 9.92353 11.48 10.0432C10.7825 10.1629 10.1497 10.5253 9.69359 11.0663C9.23745 11.6074 8.98727 12.2923 8.98727 13C8.98727 13.7077 9.23745 14.3926 9.69359 14.9337C10.1497 15.4747 10.7825 15.8371 11.48 15.9568C12.1775 16.0765 12.8948 15.9457 13.5052 15.5876C14.1156 15.2296 14.5798 14.6672 14.8157 14H13C12.7348 14 12.4804 13.8946 12.2929 13.7071C12.1054 13.5196 12 13.2652 12 13C12 12.7348 12.1054 12.4804 12.2929 12.2929C12.4804 12.1054 12.7348 12 13 12ZM4 2V22H20V2H4ZM6.4 5.5C6.4 5.28244 6.46451 5.06977 6.58538 4.88887C6.70625 4.70798 6.87805 4.56699 7.07905 4.48373C7.28005 4.40048 7.50122 4.37869 7.7146 4.42114C7.92798 4.46358 8.12398 4.56835 8.27782 4.72218C8.43166 4.87602 8.53642 5.07202 8.57886 5.2854C8.62131 5.49878 8.59952 5.71995 8.51627 5.92095C8.43301 6.12195 8.29202 6.29375 8.11113 6.41462C7.93023 6.53549 7.71756 6.6 7.5 6.6C7.20826 6.6 6.92847 6.48411 6.72218 6.27782C6.51589 6.07153 6.4 5.79174 6.4 5.5ZM12 18C11.0111 18 10.0444 17.7068 9.22215 17.1573C8.3999 16.6079 7.75904 15.827 7.3806 14.9134C7.00216 13.9998 6.90315 12.9945 7.09607 12.0245C7.289 11.0546 7.7652 10.1637 8.46447 9.46447C9.16373 8.7652 10.0546 8.289 11.0245 8.09607C11.9945 7.90315 12.9998 8.00216 13.9134 8.3806C14.827 8.75904 15.6079 9.3999 16.1573 10.2221C16.7068 11.0444 17 12.0111 17 13C17 14.3261 16.4732 15.5979 15.5355 16.5355C14.5979 17.4732 13.3261 18 12 18Z" fill="black"/>
</svg>
