<svg width="24" height="24" viewBox="0 0 24 24" fill="none" xmlns="http://www.w3.org/2000/svg">
<path d="M8 19C8 19.7956 8.31607 20.5587 8.87868 21.1213C9.44129 21.6839 10.2044 22 11 22H13C13.7956 22 14.5587 21.6839 15.1213 21.1213C15.6839 20.5587 16 19.7956 16 19V18H8V19ZM12 2C10.1435 2 8.36301 2.7375 7.05025 4.05025C5.7375 5.36301 5 7.14348 5 9C5.00007 10.9208 5.76312 12.763 7.1213 14.1213C7.39991 14.3998 7.62092 14.7306 7.77169 15.0945C7.92246 15.4585 8.00004 15.8486 8 16.2426V17H16V16.2426C16 15.8486 16.0775 15.4585 16.2283 15.0945C16.3791 14.7306 16.6001 14.3998 16.8787 14.1213C18.2369 12.763 18.9999 10.9208 19 9C19 7.14348 18.2625 5.36301 16.9497 4.05025C15.637 2.7375 13.8565 2 12 2Z" fill="black"/>
</svg>
