<svg width="24" height="24" viewBox="0 0 24 24" fill="none" xmlns="http://www.w3.org/2000/svg">
<path d="M14 8V7C14 6.46957 13.7893 5.96086 13.4142 5.58579C13.0391 5.21071 12.5304 5 12 5H7C6.46957 5 5.96086 5.21071 5.58579 5.58579C5.21071 5.96086 5 6.46957 5 7V8H2V21H2.5V11H5V21H5.5V15H13.5V21H14V11H22V8H14ZM19.5 17H18.5C18.3674 17 18.2402 16.9473 18.1464 16.8536C18.0527 16.7598 18 16.6326 18 16.5H16V21H22V16.5H20C20 16.6326 19.9473 16.7598 19.8536 16.8536C19.7598 16.9473 19.6326 17 19.5 17ZM19.5 12H18.5C18.3674 12 18.2402 11.9473 18.1464 11.8536C18.0527 11.7598 18 11.6326 18 11.5H16V16H22V11.5H20C20 11.6326 19.9473 11.7598 19.8536 11.8536C19.7598 11.9473 19.6326 12 19.5 12Z" fill="black"/>
</svg>
