<svg width="24" height="24" viewBox="0 0 24 24" fill="none" xmlns="http://www.w3.org/2000/svg">
<path d="M2 13V20H22V13H2ZM19 17.95C18.2035 17.9408 17.4268 17.7003 16.7646 17.2576C16.3972 16.9901 15.9545 16.846 15.5 16.846C15.0455 16.846 14.6028 16.9901 14.2354 17.2576C13.5762 17.7062 12.7973 17.9461 12 17.9461C11.2027 17.9461 10.4238 17.7062 9.7646 17.2576C9.39205 17.001 8.95231 16.8594 8.5 16.8506C8.04767 16.8595 7.60793 17.0011 7.2354 17.2578C6.57314 17.7004 5.79649 17.9409 5 17.95V16.1494C5.45233 16.1405 5.89207 15.9989 6.2646 15.7422C6.92686 15.2996 7.70351 15.0591 8.5 15.05C9.29651 15.0592 10.0732 15.2997 10.7354 15.7424C11.1028 16.0099 11.5455 16.154 12 16.154C12.4545 16.154 12.8972 16.0099 13.2646 15.7424C13.9238 15.2938 14.7027 15.0539 15.5 15.0539C16.2973 15.0539 17.0762 15.2938 17.7354 15.7424C18.1079 15.999 18.5477 16.1406 19 16.1494V17.95ZM6.6413 9.9673C6.78665 9.67664 7.01006 9.43219 7.28651 9.26134C7.56296 9.0905 7.88152 9 8.2065 9H9.2674C9.59238 9 9.91094 9.0905 10.1874 9.26134C10.4638 9.43219 10.6873 9.67664 10.8326 9.9673L11.3489 11H12.6511L13.1674 9.9673C13.3127 9.67664 13.5362 9.43219 13.8126 9.26134C14.0891 9.0905 14.4076 9 14.7326 9H15.7935C16.1185 9 16.437 9.0905 16.7135 9.26134C16.9899 9.43219 17.2134 9.67664 17.3587 9.9673L17.875 11H20V7C20 6.46957 19.7893 5.96086 19.4142 5.58579C19.0391 5.21071 18.5304 5 18 5H6C5.46957 5 4.96086 5.21071 4.58579 5.58579C4.21071 5.96086 4 6.46957 4 7V11H6.125L6.6413 9.9673Z" fill="black"/>
</svg>
