<svg width="24" height="24" viewBox="0 0 24 24" fill="none" xmlns="http://www.w3.org/2000/svg">
<path d="M4.661 22H5.671L6.96 12.9822V13H17.04V12.98L18.3287 22H19.3387L17.3387 8H19V5.5C19 5.10218 18.842 4.72064 18.5607 4.43934C18.2794 4.15804 17.8978 4 17.5 4H6.5C6.10218 4 5.72065 4.15804 5.43934 4.43934C5.15804 4.72064 5 5.10218 5 5.5V8H6.6614L4.661 22ZM7.1 12L7.6716 8H16.3286L16.9 12H7.1ZM6 7V5.5C6.00016 5.36744 6.05289 5.24036 6.14663 5.14662C6.24036 5.05289 6.36744 5.00016 6.5 5H17.5C17.6326 5.00016 17.7596 5.05289 17.8534 5.14662C17.9471 5.24036 17.9998 5.36744 18 5.5V7H6Z" fill="black"/>
</svg>
