<svg width="24" height="24" viewBox="0 0 24 24" fill="none" xmlns="http://www.w3.org/2000/svg">
<path d="M13 7V11H10.2016L9.6716 9.94C9.53043 9.65754 9.31339 9.41999 9.04479 9.25396C8.7762 9.08793 8.46667 8.99999 8.1509 9H6.4554C6.13967 9.00003 5.83018 9.08799 5.56162 9.25401C5.29307 9.42004 5.07605 9.65757 4.9349 9.94L4.4048 11H3V7H2V18H3V15H21V18H22V7H13ZM5.8293 10.387C5.88708 10.2704 5.97636 10.1724 6.08703 10.104C6.19769 10.0356 6.3253 9.99957 6.4554 10H8.1509C8.281 9.99955 8.40862 10.0356 8.51928 10.104C8.62995 10.1724 8.71923 10.2704 8.777 10.387L9.0836 11H5.5228L5.8293 10.387ZM21 14H3V12H21V14ZM21 11H14V8H21V11Z" fill="black"/>
</svg>
