<svg width="24" height="24" viewBox="0 0 24 24" fill="none" xmlns="http://www.w3.org/2000/svg">
<path d="M14 8V7C14 6.46957 13.7893 5.96086 13.4142 5.58579C13.0391 5.21071 12.5304 5 12 5H8C7.46957 5 6.96086 5.21071 6.58579 5.58579C6.21071 5.96086 6 6.46957 6 7V8H2V21H3.5V13H6V21H7.5V15H12.5V21H14V13H16V21H22V8H14ZM3.5 11.5V9.5H6V11.5H3.5ZM7.5 13.5V7C7.5 6.86739 7.55268 6.74021 7.64645 6.64645C7.74021 6.55268 7.86739 6.5 8 6.5H12C12.1326 6.5 12.2598 6.55268 12.3536 6.64645C12.4473 6.74021 12.5 6.86739 12.5 7V13.5H7.5ZM14 9.5H20.5V11.5H14V9.5ZM20.5 19.5H17.5V16.9922H20.5V19.5ZM20.5 15.4922H17.5V13H20.5V15.4922Z" fill="black"/>
</svg>
