<svg width="24" height="24" viewBox="0 0 24 24" fill="none" xmlns="http://www.w3.org/2000/svg">
<path d="M3 14V20H4V18H20V20H21V14H3ZM9.92 11.9673C10.0654 11.6766 10.2889 11.4321 10.5654 11.2612C10.842 11.0904 11.1606 10.9999 11.4857 11H12.5143C12.8393 11 13.1579 11.0905 13.4343 11.2613C13.7108 11.4322 13.9342 11.6766 14.0796 11.9673L14.5959 13H19V8C19 7.46957 18.7893 6.96086 18.4142 6.58579C18.0391 6.21071 17.5304 6 17 6H7C6.46957 6 5.96086 6.21071 5.58579 6.58579C5.21071 6.96086 5 7.46957 5 8V13H9.4041L9.92 11.9673Z" fill="black"/>
</svg>
