<svg width="24" height="24" viewBox="0 0 24 24" fill="none" xmlns="http://www.w3.org/2000/svg">
<path d="M15.875 14.725C15.6476 14.725 15.4252 14.7924 15.2361 14.9188C15.047 15.0452 14.8996 15.2248 14.8125 15.4349C14.7255 15.645 14.7027 15.8763 14.7471 16.0994C14.7915 16.3224 14.901 16.5273 15.0618 16.6882C15.2227 16.849 15.4276 16.9585 15.6506 17.0029C15.8737 17.0473 16.105 17.0245 16.3151 16.9375C16.5252 16.8504 16.7048 16.703 16.8312 16.5139C16.9576 16.3248 17.025 16.1024 17.025 15.875C17.0247 15.5701 16.9034 15.2778 16.6878 15.0622C16.4722 14.8466 16.1799 14.7253 15.875 14.725ZM8.125 6.975C7.89755 6.975 7.67521 7.04245 7.48609 7.16881C7.29698 7.29517 7.14958 7.47478 7.06254 7.68491C6.9755 7.89505 6.95272 8.12628 6.9971 8.34935C7.04147 8.57243 7.151 8.77734 7.31183 8.93817C7.47266 9.099 7.67757 9.20853 7.90065 9.2529C8.12372 9.29728 8.35495 9.2745 8.56509 9.18746C8.77522 9.10042 8.95483 8.95302 9.08119 8.76391C9.20755 8.57479 9.275 8.35245 9.275 8.125C9.27466 7.82011 9.15339 7.5278 8.93779 7.31221C8.7222 7.09661 8.42989 6.97534 8.125 6.975ZM8.125 14.725C7.89755 14.725 7.67521 14.7924 7.48609 14.9188C7.29698 15.0452 7.14958 15.2248 7.06254 15.4349C6.9755 15.645 6.95272 15.8763 6.9971 16.0994C7.04147 16.3224 7.151 16.5273 7.31183 16.6882C7.47266 16.849 7.67757 16.9585 7.90065 17.0029C8.12372 17.0473 8.35495 17.0245 8.56509 16.9375C8.77522 16.8504 8.95483 16.703 9.08119 16.5139C9.20755 16.3248 9.275 16.1024 9.275 15.875C9.27466 15.5701 9.15339 15.2778 8.93779 15.0622C8.7222 14.8466 8.42989 14.7253 8.125 14.725ZM3 3V21H21V3H3ZM8.125 18.625C7.5811 18.625 7.04942 18.4637 6.59718 18.1615C6.14495 17.8594 5.79247 17.4299 5.58433 16.9274C5.37619 16.4249 5.32173 15.872 5.42784 15.3385C5.53395 14.8051 5.79586 14.3151 6.18046 13.9305C6.56505 13.5459 7.05505 13.2839 7.5885 13.1778C8.12195 13.0717 8.67488 13.1262 9.17738 13.3343C9.67988 13.5425 10.1094 13.8949 10.4115 14.3472C10.7137 14.7994 10.875 15.3311 10.875 15.875C10.875 16.6043 10.5853 17.3038 10.0695 17.8195C9.55382 18.3353 8.85435 18.625 8.125 18.625ZM8.125 10.875C7.5811 10.875 7.04942 10.7137 6.59718 10.4115C6.14495 10.1094 5.79247 9.67988 5.58433 9.17738C5.37619 8.67488 5.32173 8.12195 5.42784 7.5885C5.53395 7.05505 5.79586 6.56505 6.18046 6.18046C6.56505 5.79586 7.05505 5.53395 7.5885 5.42784C8.12195 5.32173 8.67488 5.37619 9.17738 5.58433C9.67988 5.79247 10.1094 6.14495 10.4115 6.59718C10.7137 7.04942 10.875 7.5811 10.875 8.125C10.875 8.85435 10.5853 9.55382 10.0695 10.0695C9.55382 10.5853 8.85435 10.875 8.125 10.875ZM15.875 18.625C15.3311 18.625 14.7994 18.4637 14.3472 18.1615C13.8949 17.8594 13.5425 17.4299 13.3343 16.9274C13.1262 16.4249 13.0717 15.872 13.1778 15.3385C13.2839 14.8051 13.5459 14.3151 13.9305 13.9305C14.3151 13.5459 14.8051 13.2839 15.3385 13.1778C15.872 13.0717 16.4249 13.1262 16.9274 13.3343C17.4299 13.5425 17.8594 13.8949 18.1615 14.3472C18.4637 14.7994 18.625 15.3311 18.625 15.875C18.625 16.6043 18.3353 17.3038 17.8195 17.8195C17.3038 18.3353 16.6043 18.625 15.875 18.625ZM15.875 10.875C15.3311 10.875 14.7994 10.7137 14.3472 10.4115C13.8949 10.1094 13.5425 9.67988 13.3343 9.17738C13.1262 8.67488 13.0717 8.12195 13.1778 7.5885C13.2839 7.05505 13.5459 6.56505 13.9305 6.18046C14.3151 5.79586 14.8051 5.53395 15.3385 5.42784C15.872 5.32173 16.4249 5.37619 16.9274 5.58433C17.4299 5.79247 17.8594 6.14495 18.1615 6.59718C18.4637 7.04942 18.625 7.5811 18.625 8.125C18.625 8.85435 18.3353 9.55382 17.8195 10.0695C17.3038 10.5853 16.6043 10.875 15.875 10.875Z" fill="black"/>
</svg>
