<svg width="24" height="24" viewBox="0 0 24 24" fill="none" xmlns="http://www.w3.org/2000/svg">
<path d="M21.1569 16.5657C20.0423 17.5284 18.7837 18.3105 17.4269 18.8836L15.9775 14H19V11.6C19 11.1757 18.8314 10.7687 18.5314 10.4686C18.2313 10.1686 17.8243 10 17.4 10H15.9894L15.9787 7.9841C15.9745 7.19121 15.6566 6.43223 15.0944 5.87305C14.5323 5.31388 13.7716 4.99999 12.9787 5H7.8269L7.0729 2.1859C6.98174 1.84568 6.78087 1.54505 6.50143 1.33063C6.222 1.11622 5.87962 0.999997 5.5274 1H3.4374L5.7344 14H8.145L6.8088 18.9865C5.36206 18.4045 4.02196 17.5865 2.8431 16.5657L1.53 18.0806C4.43255 20.608 8.15133 22.0001 12 22.0001C15.8487 22.0001 19.5675 20.608 22.47 18.0806L21.1569 16.5657ZM12.9787 6.8C13.2956 6.80068 13.5995 6.92645 13.8242 7.14996C14.0489 7.37348 14.1763 7.67666 14.1787 7.9936L14.1894 10H9.1667L8.3093 6.8H12.9787ZM8.5217 19.5484L10.0084 14H14.101L15.731 19.4892C13.376 20.1496 10.8875 20.17 8.522 19.5484H8.5217Z" fill="black"/>
</svg>
