<svg width="24" height="24" viewBox="0 0 24 24" fill="none" xmlns="http://www.w3.org/2000/svg">
<path d="M21.75 11C21.4762 11.0054 21.2121 11.1025 21 11.2758V8C21 7.20435 20.6839 6.44129 20.1213 5.87868C19.5587 5.31607 18.7956 5 18 5H6C5.20435 5 4.44129 5.31607 3.87868 5.87868C3.31607 6.44129 3 7.20435 3 8V11.2758C2.78791 11.1025 2.52382 11.0054 2.25 11C1.91848 11 1.60054 11.1317 1.36612 11.3661C1.1317 11.6005 1 11.9185 1 12.25V20H1.5V18H22.5V20H23V12.25C23 11.9185 22.8683 11.6005 22.6339 11.3661C22.3995 11.1317 22.0815 11 21.75 11ZM3.5 8C3.50074 7.33719 3.76437 6.70173 4.23305 6.23305C4.70173 5.76437 5.33719 5.50074 6 5.5H18C18.6628 5.50074 19.2983 5.76437 19.7669 6.23305C20.2356 6.70173 20.4993 7.33719 20.5 8V13.5H18.9593L18.1793 11.94C18.0382 11.6577 17.8212 11.4202 17.5528 11.2541C17.2843 11.0881 16.9749 11.0001 16.6593 11H14.9631C14.6474 11 14.3379 11.088 14.0693 11.254C13.8008 11.42 13.5838 11.6576 13.4426 11.94L12.6626 13.5H11.3376L10.5576 11.94C10.4164 11.6575 10.1994 11.42 9.93079 11.254C9.6622 11.0879 9.35267 11 9.0369 11H7.3414C7.02567 11 6.71618 11.088 6.44762 11.254C6.17907 11.42 5.96205 11.6576 5.8209 11.94L5.0409 13.5H3.5V8ZM18.4 13.5H13.2214L13.8898 12.1633C13.9889 11.9635 14.1419 11.7955 14.3316 11.6782C14.5213 11.561 14.7401 11.4992 14.9631 11.5H16.6586C16.8816 11.4992 17.1004 11.561 17.2901 11.6782C17.4798 11.7955 17.6328 11.9635 17.7319 12.1633L18.4 13.5ZM10.7783 13.5H5.6L6.2683 12.1633C6.36736 11.9635 6.5204 11.7955 6.71006 11.6783C6.89972 11.5611 7.11843 11.4993 7.3414 11.5H9.0369C9.25991 11.4992 9.47866 11.561 9.66837 11.6782C9.85807 11.7955 10.0111 11.9635 10.1102 12.1633L10.7783 13.5ZM1.5 17.5V12.25C1.5 12.0511 1.57902 11.8603 1.71967 11.7197C1.86032 11.579 2.05109 11.5 2.25 11.5C2.44891 11.5 2.63968 11.579 2.78033 11.7197C2.92098 11.8603 3 12.0511 3 12.25V14H21V12.25C21 12.0511 21.079 11.8603 21.2197 11.7197C21.3603 11.579 21.5511 11.5 21.75 11.5C21.9489 11.5 22.1397 11.579 22.2803 11.7197C22.421 11.8603 22.5 12.0511 22.5 12.25V17.5H1.5Z" fill="black"/>
</svg>
