<svg width="24" height="24" viewBox="0 0 24 24" fill="none" xmlns="http://www.w3.org/2000/svg">
<path d="M6.49999 13.8C5.7682 13.8 5.05284 14.017 4.44438 14.4236C3.83592 14.8302 3.36168 15.408 3.08164 16.0841C2.80159 16.7602 2.72832 17.5042 2.87108 18.2219C3.01385 18.9396 3.36624 19.5989 3.88369 20.1163C4.40115 20.6338 5.06043 20.9862 5.77816 21.129C6.49588 21.2717 7.23983 21.1984 7.91592 20.9184C8.592 20.6384 9.16987 20.1641 9.57643 19.5557C9.98299 18.9472 10.2 18.2318 10.2 17.5C10.2 16.5187 9.81017 15.5776 9.11628 14.8838C8.4224 14.1899 7.48129 13.8 6.49999 13.8ZM6.49999 19.35C6.13409 19.35 5.77642 19.2415 5.47218 19.0383C5.16795 18.835 4.93083 18.5461 4.79081 18.208C4.65079 17.87 4.61415 17.498 4.68554 17.1391C4.75692 16.7803 4.93312 16.4506 5.19184 16.1919C5.45057 15.9332 5.78021 15.757 6.13907 15.6856C6.49794 15.6142 6.86991 15.6508 7.20795 15.7909C7.546 15.9309 7.83493 16.168 8.03821 16.4722C8.24149 16.7765 8.34999 17.1342 8.34999 17.5C8.34943 17.9905 8.15435 18.4608 7.80752 18.8076C7.4607 19.1544 6.99047 19.3495 6.49999 19.35ZM17.5 10.6768C17.9072 10.6768 18.3104 10.5966 18.6866 10.4408C19.0629 10.2849 19.4047 10.0565 19.6926 9.76854C19.9806 9.48059 20.209 9.13874 20.3648 8.76252C20.5206 8.38629 20.6008 7.98306 20.6008 7.57585C20.6008 5.09505 17.5 1.91675 17.5 1.91675C17.5 1.91675 14.3992 5.09505 14.3992 7.57585C14.3992 7.98306 14.4794 8.38629 14.6352 8.76252C14.791 9.13874 15.0194 9.48059 15.3074 9.76854C15.5953 10.0565 15.9371 10.2849 16.3133 10.4408C16.6895 10.5966 17.0928 10.6768 17.5 10.6768ZM17.502 4.82515C18.1499 5.61815 18.5802 6.56612 18.7507 7.57585C18.7507 7.90755 18.6189 8.22567 18.3844 8.46023C18.1498 8.69478 17.8317 8.82655 17.5 8.82655C17.1683 8.82655 16.8502 8.69478 16.6156 8.46023C16.3811 8.22567 16.2493 7.90755 16.2493 7.57585C16.4223 6.56614 16.8538 5.61845 17.502 4.82515ZM14 14V21H21V14H14ZM19.15 19.15H15.85V15.85H19.15V19.15ZM9.15619 10L10.1562 3.00005H2.84379L3.84379 10H9.15619ZM8.02319 4.85005L7.55179 8.15005H5.44819L4.97679 4.85005H8.02319Z" fill="black"/>
</svg>
