<svg width="24" height="24" viewBox="0 0 24 24" fill="none" xmlns="http://www.w3.org/2000/svg">
<path d="M4 2V22H20V2H4ZM19 21H5V3H19V21ZM7.9854 7.4854C8.28207 7.4854 8.57208 7.39743 8.81876 7.2326C9.06543 7.06778 9.25769 6.83351 9.37122 6.55943C9.48475 6.28534 9.51446 5.98374 9.45658 5.69276C9.3987 5.40179 9.25584 5.13452 9.04606 4.92474C8.83628 4.71496 8.56901 4.5721 8.27804 4.51422C7.98706 4.45634 7.68546 4.48605 7.41138 4.59958C7.13729 4.71311 6.90302 4.90537 6.7382 5.15204C6.57337 5.39872 6.4854 5.68873 6.4854 5.9854C6.4854 6.38322 6.64344 6.76476 6.92474 7.04606C7.20604 7.32736 7.58758 7.4854 7.9854 7.4854ZM7.9854 5.3854C8.10407 5.3854 8.22007 5.42059 8.31874 5.48652C8.41741 5.55245 8.49432 5.64615 8.53973 5.75579C8.58514 5.86543 8.59702 5.98607 8.57387 6.10245C8.55072 6.21884 8.49358 6.32575 8.40966 6.40966C8.32575 6.49358 8.21884 6.55072 8.10245 6.57387C7.98607 6.59702 7.86543 6.58514 7.75579 6.53973C7.64615 6.49432 7.55245 6.41741 7.48652 6.31874C7.42059 6.22007 7.3854 6.10407 7.3854 5.9854C7.38559 5.82633 7.44886 5.67382 7.56134 5.56134C7.67382 5.44886 7.82633 5.38559 7.9854 5.3854ZM7 13C7 13.9889 7.29324 14.9556 7.84265 15.7779C8.39206 16.6001 9.17295 17.241 10.0866 17.6194C11.0002 17.9978 12.0055 18.0969 12.9755 17.9039C13.9454 17.711 14.8363 17.2348 15.5355 16.5355C16.2348 15.8363 16.711 14.9454 16.9039 13.9755C17.0969 13.0055 16.9978 12.0002 16.6194 11.0866C16.241 10.173 15.6001 9.39206 14.7779 8.84265C13.9556 8.29325 12.9889 8 12 8C10.6739 8 9.40215 8.52678 8.46447 9.46447C7.52678 10.4021 7 11.6739 7 13ZM16 13C15.9951 13.2013 15.9748 13.4018 15.9393 13.6H14.75C14.5909 13.6 14.4383 13.5368 14.3257 13.4243C14.2132 13.3117 14.15 13.1591 14.15 13C14.15 12.8409 14.2132 12.6883 14.3257 12.5757C14.4383 12.4632 14.5909 12.4 14.75 12.4H15.9393C15.9748 12.5982 15.9951 12.7987 16 13ZM12 9C12.7958 9.00138 13.573 9.23996 14.2325 9.68527C14.892 10.1306 15.4038 10.7624 15.7024 11.5H14.75C14.3522 11.5 13.9706 11.658 13.6893 11.9393C13.408 12.2206 13.25 12.6022 13.25 13C13.25 13.3978 13.408 13.7794 13.6893 14.0607C13.9706 14.342 14.3522 14.5 14.75 14.5H15.7025C15.4299 15.1721 14.9797 15.7575 14.3999 16.1933C13.8201 16.6291 13.1327 16.8989 12.4113 16.974C11.6899 17.049 10.9617 16.9263 10.3047 16.6191C9.64765 16.312 9.08656 15.8318 8.68153 15.2302C8.2765 14.6285 8.04279 13.928 8.00542 13.2036C7.96806 12.4793 8.12845 11.7585 8.46942 11.1183C8.8104 10.4782 9.3191 9.94285 9.94103 9.56969C10.563 9.19653 11.2747 8.9996 12 9Z" fill="black"/>
</svg>
