<svg width="24" height="24" viewBox="0 0 24 24" fill="none" xmlns="http://www.w3.org/2000/svg">
<path d="M14 8V7C14 6.46957 13.7893 5.96086 13.4142 5.58579C13.0391 5.21071 12.5304 5 12 5H7C6.46957 5 5.96086 5.21071 5.58579 5.58579C5.21071 5.96086 5 6.46957 5 7V8H2V21H3V11H5V21H6V15H13V21H14V11H22V8H14ZM20 17.5C20 17.6326 19.9473 17.7598 19.8536 17.8536C19.7598 17.9473 19.6326 18 19.5 18H18.5C18.3674 18 18.2402 17.9473 18.1464 17.8536C18.0527 17.7598 18 17.6326 18 17.5V17H16V21H22V17H20V17.5ZM20 12.5C20 12.6326 19.9473 12.7598 19.8536 12.8536C19.7598 12.9473 19.6326 13 19.5 13H18.5C18.3674 13 18.2402 12.9473 18.1464 12.8536C18.0527 12.7598 18 12.6326 18 12.5V12H16V16H22V12H20V12.5Z" fill="black"/>
</svg>
