<svg width="24" height="24" viewBox="0 0 24 24" fill="none" xmlns="http://www.w3.org/2000/svg">
<path d="M18.8772 12.3515L18.5333 10.4791C18.4739 10.1573 18.3037 9.86651 18.0522 9.65718C17.8007 9.44784 17.4838 9.33321 17.1566 9.3332H9.4677L7.4238 1.7042C7.34405 1.40651 7.16829 1.14345 6.92378 0.955827C6.67928 0.768205 6.3797 0.666506 6.0715 0.666504H4.1134L5.9207 10.8727C6.01282 11.3916 6.24635 11.8751 6.59558 12.2698C6.9448 12.6645 7.39618 12.9552 7.9 13.1099L5.6063 21.6665H7.47L8.376 18.2865L11.8846 16.2605L15.6656 18.4438L16.5294 21.6667H18.3928L15.9651 12.6099L18.8772 12.3515ZM9.7451 13.1776L14.1451 12.7733L14.2226 13.0625L11.8839 14.413L9.7451 13.1778V13.1776ZM8.9617 16.1008L9.3164 14.7774L10.2849 15.3366L8.9617 16.1008ZM13.4836 15.3366L14.6517 14.6621L15.0796 16.2582L13.4836 15.3366Z" fill="black"/>
</svg>
