<svg width="24" height="24" viewBox="0 0 24 24" fill="none" xmlns="http://www.w3.org/2000/svg">
<path d="M15.8125 14.0958C15.473 14.0958 15.1411 14.1965 14.8588 14.3851C14.5764 14.5737 14.3564 14.8419 14.2265 15.1555C14.0965 15.4692 14.0625 15.8144 14.1288 16.1474C14.195 16.4804 14.3585 16.7863 14.5986 17.0264C14.8387 17.2665 15.1446 17.43 15.4776 17.4962C15.8106 17.5625 16.1558 17.5285 16.4695 17.3985C16.7831 17.2686 17.0513 17.0486 17.2399 16.7662C17.4285 16.4839 17.5292 16.152 17.5292 15.8125C17.5287 15.3574 17.3476 14.921 17.0258 14.5992C16.704 14.2774 16.2676 14.0963 15.8125 14.0958ZM8.1875 14.0958C7.84797 14.0958 7.51606 14.1965 7.23375 14.3851C6.95144 14.5737 6.73141 14.8419 6.60148 15.1555C6.47154 15.4692 6.43755 15.8144 6.50379 16.1474C6.57003 16.4804 6.73353 16.7863 6.97361 17.0264C7.21369 17.2665 7.51958 17.43 7.85259 17.4962C8.1856 17.5625 8.53077 17.5285 8.84445 17.3985C9.15814 17.2686 9.42625 17.0486 9.61488 16.7662C9.80352 16.4839 9.9042 16.152 9.9042 15.8125C9.90367 15.3574 9.72263 14.921 9.40081 14.5992C9.07898 14.2774 8.64263 14.0963 8.1875 14.0958ZM8.1875 6.4708C7.84797 6.4708 7.51606 6.57148 7.23375 6.76012C6.95144 6.94875 6.73141 7.21686 6.60148 7.53055C6.47154 7.84423 6.43755 8.1894 6.50379 8.52241C6.57003 8.85542 6.73353 9.16131 6.97361 9.40139C7.21369 9.64147 7.51958 9.80497 7.85259 9.87121C8.1856 9.93745 8.53077 9.90346 8.84445 9.77352C9.15814 9.64359 9.42625 9.42356 9.61488 9.14125C9.80352 8.85894 9.9042 8.52703 9.9042 8.1875C9.90367 7.73237 9.72263 7.29602 9.40081 6.97419C9.07898 6.65237 8.64263 6.47133 8.1875 6.4708ZM3 3V21H21V3H3ZM8.1875 18.3958C7.67654 18.3958 7.17706 18.2443 6.7522 17.9605C6.32735 17.6766 5.99621 17.2731 5.80067 16.8011C5.60512 16.329 5.55396 15.8096 5.65363 15.3084C5.75331 14.8073 5.99936 14.347 6.36066 13.9857C6.72196 13.6244 7.18229 13.3783 7.68343 13.2786C8.18457 13.179 8.70401 13.2301 9.17607 13.4257C9.64813 13.6212 10.0516 13.9523 10.3355 14.3772C10.6193 14.8021 10.7708 15.3015 10.7708 15.8125C10.7708 16.4976 10.4986 17.1547 10.0142 17.6392C9.52971 18.1236 8.87263 18.3958 8.1875 18.3958ZM8.1875 10.7708C7.67654 10.7708 7.17706 10.6193 6.7522 10.3355C6.32735 10.0516 5.99621 9.64813 5.80067 9.17607C5.60512 8.70401 5.55396 8.18457 5.65363 7.68343C5.75331 7.18229 5.99936 6.72196 6.36066 6.36066C6.72196 5.99936 7.18229 5.75331 7.68343 5.65363C8.18457 5.55396 8.70401 5.60512 9.17607 5.80067C9.64813 5.99621 10.0516 6.32735 10.3355 6.7522C10.6193 7.17706 10.7708 7.67654 10.7708 8.1875C10.7708 8.87263 10.4986 9.52971 10.0142 10.0142C9.52971 10.4986 8.87263 10.7708 8.1875 10.7708ZM15.8125 18.3958C15.3015 18.3958 14.8021 18.2443 14.3772 17.9605C13.9523 17.6766 13.6212 17.2731 13.4257 16.8011C13.2301 16.329 13.179 15.8096 13.2786 15.3084C13.3783 14.8073 13.6244 14.347 13.9857 13.9857C14.347 13.6244 14.8073 13.3783 15.3084 13.2786C15.8096 13.179 16.329 13.2301 16.8011 13.4257C17.2731 13.6212 17.6766 13.9523 17.9605 14.3772C18.2443 14.8021 18.3958 15.3015 18.3958 15.8125C18.3958 16.4976 18.1236 17.1547 17.6392 17.6392C17.1547 18.1236 16.4976 18.3958 15.8125 18.3958ZM15.8125 10.7708C15.3015 10.7708 14.8021 10.6193 14.3772 10.3355C13.9523 10.0516 13.6212 9.64813 13.4257 9.17607C13.2301 8.70401 13.179 8.18457 13.2786 7.68343C13.3783 7.18229 13.6244 6.72196 13.9857 6.36066C14.347 5.99936 14.8073 5.75331 15.3084 5.65363C15.8096 5.55396 16.329 5.60512 16.8011 5.80067C17.2731 5.99621 17.6766 6.32735 17.9605 6.7522C18.2443 7.17706 18.3958 7.67654 18.3958 8.1875C18.3958 8.87263 18.1236 9.52971 17.6392 10.0142C17.1547 10.4986 16.4976 10.7708 15.8125 10.7708Z" fill="black"/>
</svg>
