<svg width="24" height="24" viewBox="0 0 24 24" fill="none" xmlns="http://www.w3.org/2000/svg">
<path d="M20 12.5V7C20 6.46957 19.7893 5.96086 19.4142 5.58579C19.0391 5.21071 18.5304 5 18 5H6C5.46957 5 4.96086 5.21071 4.58579 5.58579C4.21071 5.96086 4 6.46957 4 7V12.5H2V20H3.5V18H20.5V20H22V12.5H20ZM5.5 7C5.50016 6.86744 5.55289 6.74036 5.64662 6.64662C5.74036 6.55289 5.86744 6.50016 6 6.5H18C18.1326 6.50016 18.2596 6.55289 18.3534 6.64662C18.4471 6.74036 18.4998 6.86744 18.5 7V12.5H16.8994L16.564 11.8292C16.4394 11.58 16.2479 11.3705 16.011 11.224C15.774 11.0776 15.501 11 15.2224 11H14.441C14.1624 11 13.8894 11.0776 13.6524 11.224C13.4155 11.3705 13.224 11.58 13.0994 11.8292L12.7639 12.5H11.2361L10.9006 11.8292C10.776 11.58 10.5845 11.3705 10.3476 11.224C10.1106 11.0776 9.83756 11 9.559 11H8.7776C8.49904 11 8.22598 11.0776 7.98902 11.224C7.75207 11.3705 7.56057 11.58 7.436 11.8292L7.1006 12.5H5.5V7ZM3.5 16.5V14H20.5V16.5H3.5Z" fill="black"/>
</svg>
