<svg width="24" height="24" viewBox="0 0 24 24" fill="none" xmlns="http://www.w3.org/2000/svg">
<path d="M15.8438 14.41C15.5603 14.41 15.2832 14.4941 15.0475 14.6515C14.8118 14.809 14.6281 15.0329 14.5196 15.2948C14.4111 15.5567 14.3827 15.8449 14.438 16.1229C14.4933 16.4009 14.6298 16.6563 14.8303 16.8568C15.0307 17.0572 15.2861 17.1937 15.5641 17.249C15.8421 17.3044 16.1303 17.276 16.3922 17.1675C16.6541 17.0591 16.878 16.8754 17.0355 16.6397C17.193 16.404 17.2771 16.1269 17.2771 15.8434C17.2766 15.4634 17.1255 15.0991 16.8568 14.8304C16.5881 14.5617 16.2238 14.4105 15.8438 14.41ZM8.1562 6.7229C7.87274 6.723 7.59568 6.80714 7.36004 6.9647C7.1244 7.12225 6.94077 7.34614 6.83236 7.60805C6.72395 7.86996 6.69564 8.15813 6.751 8.43613C6.80636 8.71413 6.94291 8.96947 7.14338 9.16987C7.34385 9.37027 7.59924 9.50673 7.87726 9.562C8.15528 9.61726 8.44344 9.58885 8.70532 9.48035C8.96719 9.37185 9.19101 9.18814 9.34848 8.95245C9.50595 8.71675 9.59 8.43966 9.59 8.1562C9.58955 7.77612 9.43833 7.41174 9.16952 7.14302C8.90072 6.87431 8.53628 6.72322 8.1562 6.7229ZM3 3V21H21V3H3ZM8.1562 18.51C7.62878 18.51 7.1132 18.3536 6.67468 18.0605C6.23615 17.7675 5.89437 17.351 5.69255 16.8637C5.49073 16.3764 5.43794 15.8402 5.54086 15.323C5.64377 14.8057 5.89777 14.3305 6.27073 13.9576C6.64369 13.5847 7.11886 13.3307 7.63615 13.2278C8.15344 13.1249 8.68963 13.1778 9.17689 13.3796C9.66416 13.5815 10.0806 13.9233 10.3736 14.3618C10.6666 14.8004 10.823 15.316 10.823 15.8434C10.823 16.1936 10.754 16.5404 10.62 16.8639C10.4859 17.1874 10.2895 17.4814 10.0419 17.729C9.79424 17.9766 9.50025 18.173 9.17671 18.307C8.85317 18.441 8.5064 18.51 8.1562 18.51ZM8.1562 10.8225C7.62876 10.8225 7.11318 10.6661 6.67465 10.373C6.23611 10.08 5.89433 9.66344 5.69252 9.17614C5.49071 8.68884 5.43794 8.15264 5.54088 7.63534C5.64382 7.11805 5.89785 6.6429 6.27084 6.26998C6.64382 5.89706 7.11902 5.64313 7.63633 5.54028C8.15365 5.43744 8.68984 5.49031 9.1771 5.69221C9.66436 5.89412 10.0808 6.23598 10.3738 6.67456C10.6667 7.11315 10.8231 7.62876 10.823 8.1562C10.823 8.5064 10.754 8.85318 10.62 9.17673C10.486 9.50027 10.2895 9.79425 10.0419 10.0419C9.79427 10.2895 9.50028 10.4859 9.17673 10.6199C8.85318 10.7539 8.5064 10.8229 8.1562 10.8229V10.8225ZM15.8438 18.51C15.3164 18.51 14.8008 18.3536 14.3623 18.0606C13.9237 17.7675 13.5819 17.3511 13.3801 16.8638C13.1782 16.3765 13.1254 15.8403 13.2283 15.323C13.3313 14.8057 13.5852 14.3306 13.9582 13.9576C14.3311 13.5847 14.8063 13.3307 15.3236 13.2278C15.8409 13.1249 16.3771 13.1778 16.8644 13.3796C17.3516 13.5815 17.7681 13.9233 18.0611 14.3618C18.3541 14.8004 18.5105 15.316 18.5105 15.8434C18.5105 16.5506 18.2295 17.2289 17.7294 17.729C17.2293 18.2291 16.551 18.51 15.8438 18.51ZM15.8438 10.8225C15.3164 10.8225 14.8008 10.6661 14.3623 10.3731C13.9237 10.0801 13.5819 9.66358 13.3801 9.1763C13.1783 8.68903 13.1254 8.15284 13.2283 7.63555C13.3312 7.11826 13.5852 6.6431 13.9582 6.27016C14.3311 5.89721 14.8063 5.64324 15.3236 5.54034C15.8408 5.43744 16.377 5.49025 16.8643 5.69209C17.3516 5.89393 17.7681 6.23572 18.0611 6.67426C18.3541 7.1128 18.5105 7.62838 18.5105 8.1558C18.5105 8.50603 18.4416 8.85283 18.3076 9.17641C18.1736 9.49999 17.9772 9.794 17.7296 10.0417C17.4819 10.2893 17.1879 10.4858 16.8644 10.6198C16.5408 10.7539 16.194 10.8229 15.8438 10.8229V10.8225ZM8.1562 14.41C7.87276 14.4101 7.59572 14.4942 7.36009 14.6518C7.12446 14.8093 6.94083 15.0331 6.83241 15.295C6.72399 15.5569 6.69565 15.8451 6.75097 16.123C6.80629 16.401 6.94278 16.6564 7.1432 16.8568C7.34362 17.0572 7.59897 17.1937 7.87695 17.249C8.15494 17.3044 8.44309 17.276 8.70497 17.1676C8.96685 17.0592 9.19071 16.8755 9.34824 16.6399C9.50577 16.4043 9.5899 16.1272 9.59 15.8438C9.58968 15.4636 9.43852 15.0991 9.1697 14.8303C8.90088 14.5615 8.53637 14.4103 8.1562 14.41Z" fill="black"/>
</svg>
