<svg width="24" height="24" viewBox="0 0 24 24" fill="none" xmlns="http://www.w3.org/2000/svg">
<path d="M12 10.5999C11.7614 10.6002 11.5326 10.6951 11.3639 10.8638C11.1952 11.0325 11.1003 11.2613 11.1 11.4999V11.9999H12.9V11.4999C12.8997 11.2613 12.8048 11.0325 12.6361 10.8638C12.4674 10.6951 12.2386 10.6002 12 10.5999ZM13.7125 12.9173C13.5776 12.9173 13.4458 12.9573 13.3336 13.0322C13.2214 13.1072 13.134 13.2137 13.0824 13.3383C13.0308 13.4629 13.0173 13.6001 13.0436 13.7324C13.0699 13.8647 13.1349 13.9862 13.2303 14.0816C13.3256 14.1769 13.4472 14.2419 13.5794 14.2682C13.7117 14.2945 13.8489 14.281 13.9735 14.2294C14.0981 14.1778 14.2046 14.0904 14.2796 13.9782C14.3545 13.8661 14.3945 13.7342 14.3945 13.5993C14.3945 13.4184 14.3226 13.245 14.1947 13.1171C14.0668 12.9892 13.8934 12.9173 13.7125 12.9173ZM10.2875 12.9173C10.1526 12.9173 10.0208 12.9573 9.9086 13.0322C9.79645 13.1072 9.70903 13.2137 9.65741 13.3383C9.6058 13.4629 9.59229 13.6001 9.6186 13.7324C9.64492 13.8647 9.70987 13.9862 9.80525 14.0816C9.90063 14.1769 10.0222 14.2419 10.1544 14.2682C10.2867 14.2945 10.4239 14.281 10.5485 14.2294C10.6731 14.1778 10.7796 14.0904 10.8546 13.9782C10.9295 13.8661 10.9695 13.7342 10.9695 13.5993C10.9695 13.5097 10.9519 13.4211 10.9176 13.3383C10.8833 13.2556 10.8331 13.1804 10.7697 13.1171C10.7064 13.0537 10.6312 13.0035 10.5485 12.9692C10.4657 12.935 10.3771 12.9173 10.2875 12.9173ZM12 2.80371L3 7.99991V20.9999H21V7.99991L12 2.80371ZM16 16.9999H8V11.9999H9.5V11.4999C9.5 10.8369 9.76339 10.201 10.2322 9.73214C10.7011 9.2633 11.337 8.99991 12 8.99991C12.663 8.99991 13.2989 9.2633 13.7678 9.73214C14.2366 10.201 14.5 10.8369 14.5 11.4999V11.9999H16V16.9999Z" fill="black"/>
</svg>
