<svg width="24" height="24" viewBox="0 0 24 24" fill="none" xmlns="http://www.w3.org/2000/svg">
<path d="M5 10V6C5.00016 5.73483 5.10557 5.48057 5.29307 5.29307C5.48057 5.10557 5.73483 5.00016 6 5H10V3H6C5.20462 3.00087 4.44206 3.31722 3.87964 3.87964C3.31722 4.44206 3.00087 5.20462 3 6V21H5V19H19V21H21V10H5ZM7 17H5V12H7V17ZM11 17H9V12H11V17ZM15 17H13V12H15V17ZM19 17H17V12H19V17ZM7 7.2059C7 7.44324 7.07038 7.67525 7.20224 7.87258C7.33409 8.06992 7.52151 8.22373 7.74078 8.31456C7.96005 8.40538 8.20133 8.42914 8.43411 8.38284C8.66689 8.33654 8.8807 8.22225 9.04853 8.05443C9.21635 7.88661 9.33064 7.67279 9.37694 7.44001C9.42324 7.20723 9.39948 6.96595 9.30866 6.74668C9.21783 6.52741 9.06402 6.33999 8.86668 6.20814C8.66934 6.07628 8.43734 6.0059 8.2 6.0059C7.88174 6.0059 7.57652 6.13233 7.35147 6.35737C7.12643 6.58242 7 6.88764 7 7.2059ZM11.8 8.4059C12.0373 8.4059 12.2693 8.33552 12.4667 8.20366C12.664 8.07181 12.8178 7.88439 12.9087 7.66512C12.9995 7.44585 13.0232 7.20457 12.9769 6.97179C12.9306 6.73901 12.8164 6.52519 12.6485 6.35737C12.4807 6.18955 12.2669 6.07526 12.0341 6.02896C11.8013 5.98266 11.5601 6.00642 11.3408 6.09724C11.1215 6.18807 10.9341 6.34188 10.8022 6.53922C10.6704 6.73655 10.6 6.96856 10.6 7.2059C10.6 7.52416 10.7264 7.82938 10.9515 8.05443C11.1765 8.27947 11.4817 8.4059 11.8 8.4059Z" fill="black"/>
</svg>
