<svg width="24" height="24" viewBox="0 0 24 24" fill="none" xmlns="http://www.w3.org/2000/svg">
<path d="M20 13V8C20 7.46957 19.7893 6.96086 19.4142 6.58579C19.0391 6.21071 18.5304 6 18 6H6C5.46957 6 4.96086 6.21071 4.58579 6.58579C4.21071 6.96086 4 7.46957 4 8V13H2V20H3V18H21V20H22V13H20ZM5 8C5.00029 7.73487 5.10574 7.48069 5.29321 7.29321C5.48069 7.10574 5.73487 7.00029 6 7H18C18.2651 7.00029 18.5193 7.10574 18.7068 7.29321C18.8943 7.48069 18.9997 7.73487 19 8V13H18.2191L17.6891 11.94C17.548 11.6577 17.331 11.4202 17.0626 11.2541C16.7941 11.0881 16.4847 11.0001 16.1691 11H14.473C14.1573 11 13.8478 11.088 13.5792 11.254C13.3107 11.42 13.0937 11.6576 12.9525 11.94L12.4225 13H11.5779L11.0479 11.94C10.9067 11.6575 10.6896 11.4199 10.421 11.2539C10.1524 11.0879 9.8428 11 9.527 11H7.8315C7.51577 11 7.20628 11.088 6.93772 11.254C6.66917 11.42 6.45215 11.6576 6.311 11.94L5.7809 13H5V8ZM17.1011 13H13.54L13.8466 12.387C13.9044 12.2704 13.9937 12.1723 14.1044 12.1039C14.2152 12.0355 14.3428 11.9995 14.473 12H16.1685C16.2986 11.9996 16.4262 12.0356 16.5369 12.104C16.6475 12.1724 16.7368 12.2704 16.7946 12.387L17.1011 13ZM10.46 13H6.8989L7.2054 12.387C7.26319 12.2704 7.35247 12.1724 7.46313 12.104C7.5738 12.0356 7.70141 11.9996 7.8315 12H9.527C9.6571 11.9996 9.78472 12.0356 9.89538 12.104C10.006 12.1724 10.0953 12.2704 10.1531 12.387L10.46 13ZM3 17V14H21V17H3Z" fill="black"/>
</svg>
