<svg width="24" height="24" viewBox="0 0 24 24" fill="none" xmlns="http://www.w3.org/2000/svg">
<path d="M12 2.80371L3 7.99991V20.9999H21V7.99991L12 2.80371ZM19.5 19.4999H4.5V8.86591L12 4.53591L19.5 8.86591V19.4999ZM9.5 11.4999V11.9999H8V16.9999H16V11.9999H14.5V11.4999C14.5 10.8369 14.2366 10.201 13.7678 9.73214C13.2989 9.2633 12.663 8.99991 12 8.99991C11.337 8.99991 10.7011 9.2633 10.2322 9.73214C9.76339 10.201 9.5 10.8369 9.5 11.4999ZM14.65 13.3499V15.6499H9.35V13.3499H14.65ZM13.15 11.4999V11.9999H10.85V11.4999C10.85 11.1949 10.9712 10.9024 11.1868 10.6867C11.4025 10.4711 11.695 10.3499 12 10.3499C12.305 10.3499 12.5975 10.4711 12.8132 10.6867C13.0288 10.9024 13.15 11.1949 13.15 11.4999Z" fill="black"/>
</svg>
