<svg width="24" height="24" viewBox="0 0 24 24" fill="none" xmlns="http://www.w3.org/2000/svg">
<path d="M16 1H8C7.20435 1 6.44129 1.31607 5.87868 1.87868C5.31607 2.44129 5 3.20435 5 4V23H19V4C19 3.20435 18.6839 2.44129 18.1213 1.87868C17.5587 1.31607 16.7956 1 16 1ZM17.5 21.5H6.5V10.75H17.5V21.5ZM17.5 9.25H6.5V4C6.50045 3.60231 6.65863 3.22104 6.93984 2.93984C7.22104 2.65863 7.60231 2.50045 8 2.5H16C16.3977 2.50045 16.779 2.65863 17.0602 2.93984C17.3414 3.22104 17.4995 3.60231 17.5 4V9.25ZM10.75 5.75H8.5V7.25H10.75C10.9489 7.25 11.1397 7.17098 11.2803 7.03033C11.421 6.88968 11.5 6.69891 11.5 6.5C11.5 6.30109 11.421 6.11032 11.2803 5.96967C11.1397 5.82902 10.9489 5.75 10.75 5.75ZM11.5 13.5C11.5 13.3011 11.421 13.1103 11.2803 12.9697C11.1397 12.829 10.9489 12.75 10.75 12.75H8.5V14.25H10.75C10.9489 14.25 11.1397 14.171 11.2803 14.0303C11.421 13.8897 11.5 13.6989 11.5 13.5Z" fill="black"/>
</svg>
