<svg width="24" height="24" viewBox="0 0 24 24" fill="none" xmlns="http://www.w3.org/2000/svg">
<path d="M21.5 4V8.3629C18.8521 10.2798 15.5645 10.5876 11.9873 10.5876C8.4215 10.5876 5.1437 10.2813 2.5 8.3806V4H2V20H2.5V10.4149C3.11747 12.4493 4.37344 14.2309 6.08207 15.4961C7.79071 16.7613 9.86124 17.4429 11.9873 17.44C14.1279 17.4421 16.2116 16.7507 17.9265 15.4695C19.6413 14.1883 20.895 12.3861 21.5 10.3328V20H22V4H21.5ZM21.1682 9.2C19.6807 11.686 16.1382 13.4391 11.9874 13.4391C7.8366 13.4391 4.2939 11.6864 2.8065 9.2C5.6184 10.9212 8.9891 11.0872 11.9873 11.0872C14.9855 11.0872 18.3563 10.9216 21.1682 9.2Z" fill="black"/>
</svg>
