<svg width="24" height="24" viewBox="0 0 24 24" fill="none" xmlns="http://www.w3.org/2000/svg">
<path d="M15.2826 13.0035L18.8771 12.6849L18.5334 10.8125C18.474 10.4907 18.3038 10.1999 18.0523 9.99054C17.8007 9.7812 17.4838 9.66659 17.1566 9.6666H9.4677L7.4238 2.0377C7.34405 1.74 7.16829 1.47694 6.92378 1.28932C6.67928 1.1017 6.3797 1 6.0715 1H4.1134L5.9207 11.2062C6.02993 11.8167 6.33479 12.375 6.78926 12.797C7.24372 13.2189 7.82313 13.4816 8.44 13.5453C8.30838 13.7446 8.20946 13.9637 8.147 14.1943L6.0543 22H7.0215L9.0488 14.4355C9.12005 14.1718 9.27039 13.9363 9.47958 13.7606C9.68877 13.585 9.94676 13.4777 10.2188 13.4531L13.4688 13.166C13.7814 13.1369 14.0942 13.2198 14.3514 13.3999C14.6086 13.58 14.7935 13.8457 14.873 14.1494L16.9773 22H17.9445L15.7754 13.9072C15.6831 13.5719 15.5145 13.2626 15.2826 13.0035ZM6.9053 11.0312L5.3057 2H6.0713C6.15942 2.00015 6.24503 2.02931 6.31492 2.08298C6.38481 2.13664 6.4351 2.21181 6.458 2.2969L8.7 10.667H17.156C17.2494 10.6669 17.3398 10.6994 17.4117 10.759C17.4836 10.8186 17.5324 10.9014 17.5496 10.9932L17.6951 11.7852L8.907 12.5645C8.8484 12.5693 8.7937 12.5723 8.7391 12.5723C8.30094 12.5723 7.87682 12.4178 7.54138 12.1359C7.20594 11.854 6.9807 11.4628 6.9053 11.0312Z" fill="black"/>
</svg>
