<svg width="24" height="24" viewBox="0 0 24 24" fill="none" xmlns="http://www.w3.org/2000/svg">
<path d="M2 13V20H22V13H2ZM19 17.8C18.2323 17.7911 17.4838 17.559 16.8457 17.132C16.4544 16.8483 15.9834 16.6955 15.5 16.6955C15.0166 16.6955 14.5456 16.8483 14.1543 17.132C13.5194 17.5653 12.7686 17.7971 12 17.7971C11.2314 17.7971 10.4806 17.5653 9.8457 17.132C9.44926 16.859 8.98125 16.7088 8.5 16.7C8.0188 16.7087 7.55078 16.8588 7.1543 17.1316C6.51628 17.5587 5.76775 17.791 5 17.8V16.3C5.48121 16.2913 5.94922 16.1412 6.3457 15.8684C6.98372 15.4413 7.73225 15.209 8.5 15.2C9.26771 15.2089 10.0162 15.441 10.6543 15.868C11.0456 16.1517 11.5166 16.3045 12 16.3045C12.4834 16.3045 12.9544 16.1517 13.3457 15.868C13.9806 15.4347 14.7314 15.2029 15.5 15.2029C16.2686 15.2029 17.0194 15.4347 17.6543 15.868C18.0507 16.141 18.5188 16.2912 19 16.3V17.8ZM6.6413 10.4673C6.78665 10.1766 7.01006 9.93219 7.28651 9.76134C7.56296 9.5905 7.88152 9.5 8.2065 9.5H9.2674C9.59238 9.5 9.91094 9.5905 10.1874 9.76134C10.4638 9.93219 10.6873 10.1766 10.8326 10.4673L11.3489 11.5H12.6511L13.1674 10.4673C13.3127 10.1766 13.5362 9.93219 13.8126 9.76134C14.0891 9.5905 14.4076 9.5 14.7326 9.5H15.7935C16.1185 9.5 16.437 9.5905 16.7135 9.76134C16.9899 9.93219 17.2134 10.1766 17.3587 10.4673L17.875 11.5H20V7C20 6.46957 19.7893 5.96086 19.4142 5.58579C19.0391 5.21071 18.5304 5 18 5H6C5.46957 5 4.96086 5.21071 4.58579 5.58579C4.21071 5.96086 4 6.46957 4 7V11.5H6.125L6.6413 10.4673Z" fill="black"/>
</svg>
