<svg width="24" height="24" viewBox="0 0 24 24" fill="none" xmlns="http://www.w3.org/2000/svg">
<path d="M20 9.1809V6C20 5.20435 19.6839 4.44129 19.1213 3.87868C18.5587 3.31607 17.7956 3 17 3H7C6.20435 3 5.44129 3.31607 4.87868 3.87868C4.31607 4.44129 4 5.20435 4 6V9.1809C3.41664 9.38415 2.91084 9.76363 2.55254 10.2669C2.19425 10.7701 2.00117 11.3722 2 11.99V18C2 18.5304 2.21071 19.0391 2.58579 19.4142C2.96086 19.7893 3.46957 20 4 20V22H6V20H18V22H20V20C20.5304 20 21.0391 19.7893 21.4142 19.4142C21.7893 19.0391 22 18.5304 22 18V11.99C21.9988 11.3722 21.8057 10.7701 21.4475 10.2669C21.0892 9.76363 20.5834 9.38415 20 9.1809ZM7 5H17C17.2651 5.00029 17.5193 5.10574 17.7068 5.29321C17.8943 5.48069 17.9997 5.73487 18 6V9.1809C17.4166 9.38415 16.9108 9.76363 16.5525 10.2669C16.1943 10.7701 16.0012 11.3722 16 11.99V13H7.9792V11.99C7.97815 11.3759 7.78746 10.7771 7.4332 10.2754C7.07894 9.77379 6.5784 9.3938 6 9.1874V6C6.00029 5.73487 6.10574 5.48069 6.29321 5.29321C6.48069 5.10574 6.73487 5.00029 7 5ZM20 18H4V11.99C4.00732 11.7324 4.1148 11.4878 4.29958 11.3082C4.48437 11.1286 4.73191 11.0281 4.9896 11.0281C5.24729 11.0281 5.49483 11.1286 5.67962 11.3082C5.8644 11.4878 5.97188 11.7324 5.9792 11.99V15H18V11.99C18.0002 11.7275 18.1045 11.4758 18.2902 11.2902C18.4758 11.1045 18.7275 11.0002 18.99 11H19.01C19.2725 11.0002 19.5242 11.1045 19.7098 11.2902C19.8955 11.4758 19.9998 11.7275 20 11.99V18Z" fill="black"/>
</svg>
