<svg width="24" height="24" viewBox="0 0 24 24" fill="none" xmlns="http://www.w3.org/2000/svg">
<path d="M12 2.80371L3 7.99991V20.9999H21V7.99991L12 2.80371ZM20 19.9999H4V8.57721L12 3.95851L20 8.57721V19.9999ZM11.6233 10.7099C10.5527 10.2416 9.39682 9.9999 8.2283 9.99991H8V15.7927C9.315 15.7927 10.6119 16.0989 11.7881 16.687L12 16.7931L12.2113 16.6874C13.3876 16.0992 14.6848 15.793 16 15.7931V9.99991H15.7717C14.6031 9.99984 13.4472 10.2416 12.3766 10.7099L12 10.8749L11.6233 10.7099ZM11.5 15.4714C10.6987 15.1511 9.85774 14.9409 9 14.8465V11.0393C9.76678 11.1184 10.5166 11.3164 11.2224 11.6262L11.5 11.7476V15.4714ZM12.5 11.7476L12.7775 11.6262C13.4834 11.3164 14.2332 11.1184 15 11.0393V14.8467C14.1423 14.9409 13.3013 15.1511 12.5 15.4713V11.7476Z" fill="black"/>
</svg>
