<svg width="24" height="24" viewBox="0 0 24 24" fill="none" xmlns="http://www.w3.org/2000/svg">
<path d="M18.8235 12.3529L18.5621 10.9761C18.5099 10.7016 18.3636 10.4539 18.1484 10.2757C17.9332 10.0975 17.6626 10 17.3832 10H9.21186L7.03916 1.89C6.97089 1.63472 6.82027 1.40911 6.61067 1.24818C6.40107 1.08725 6.14421 1.00001 5.87996 1H4.45166L6.20856 10.912C6.31434 11.503 6.60791 12.0442 7.04567 12.4551C7.48342 12.866 8.04204 13.1249 8.63856 13.1931L6.27936 22H6.79636L7.76096 18.4L12.0574 15.92L16.2158 18.32L17.2024 22H17.7194L15.22 12.6744L18.8235 12.3529ZM6.70086 10.8247L5.04806 1.5H5.87996C6.03403 1.50016 6.18376 1.55108 6.30598 1.64487C6.42821 1.73867 6.51614 1.87012 6.55616 2.0189L8.82816 10.5H17.3832C17.5461 10.5001 17.7039 10.557 17.8295 10.661C17.955 10.7649 18.0403 10.9093 18.0709 11.0694L18.2294 11.9039C18.2294 11.9039 9.02936 12.7217 8.96106 12.7217C8.42134 12.722 7.89881 12.5319 7.4854 12.1849C7.07199 11.8379 6.79419 11.3563 6.70086 10.8247ZM7.94426 17.7165L8.91236 14.1039L11.5569 15.6306L7.94426 17.7165ZM12.5579 15.6306L15.1011 14.1622L16.0325 17.6365L12.5579 15.6306ZM14.7148 12.7217L14.9669 13.6617L12.0569 15.3417L9.04646 13.6035L9.15036 13.2158L14.7148 12.7217Z" fill="black"/>
</svg>
