<svg width="24" height="24" viewBox="0 0 24 24" fill="none" xmlns="http://www.w3.org/2000/svg">
<path d="M21 10.05V8C21 7.20435 20.6839 6.44129 20.1213 5.87868C19.5587 5.31607 18.7956 5 18 5H6C5.20435 5 4.44129 5.31607 3.87868 5.87868C3.31607 6.44129 3 7.20435 3 8V10.05C2.43532 10.1653 1.9278 10.4721 1.56335 10.9185C1.19889 11.365 0.999882 11.9237 1 12.5V20H2.5V18H21V20H23V12.5C23.0001 11.9237 22.8011 11.365 22.4367 10.9185C22.0722 10.4721 21.5647 10.1653 21 10.05ZM6 6.5H18C18.3977 6.50045 18.779 6.65863 19.0602 6.93984C19.3414 7.22104 19.4995 7.60231 19.5 8V10.2111C19.0544 10.4053 18.6751 10.7253 18.4087 11.1319C18.1422 11.5384 18.0002 12.0139 18 12.5H17.1719L16.8365 11.8292C16.7119 11.58 16.5204 11.3705 16.2834 11.224C16.0465 11.0776 15.7734 11 15.4948 11H14.1248C13.8462 11 13.5732 11.0776 13.3362 11.224C13.0993 11.3705 12.9078 11.58 12.7832 11.8292L12.4477 12.5H11.5519L11.2164 11.8292C11.0918 11.5801 10.9004 11.3705 10.6635 11.2241C10.4265 11.0776 10.1535 11 9.875 11H8.505C8.22642 11 7.95334 11.0776 7.71637 11.224C7.47939 11.3705 7.28788 11.58 7.1633 11.8292L6.8281 12.5H6C5.99979 12.0139 5.85776 11.5384 5.59132 11.1319C5.32488 10.7253 4.94561 10.4053 4.5 10.2111V8C4.50045 7.60231 4.65863 7.22104 4.93984 6.93984C5.22104 6.65863 5.60231 6.50045 6 6.5ZM2.5 16.5V12.5C2.5 12.2348 2.60536 11.9804 2.79289 11.7929C2.98043 11.6054 3.23478 11.5 3.5 11.5C3.76522 11.5 4.01957 11.6054 4.20711 11.7929C4.39464 11.9804 4.5 12.2348 4.5 12.5V14H19.5V12.5C19.5 12.2348 19.6054 11.9804 19.7929 11.7929C19.9804 11.6054 20.2348 11.5 20.5 11.5C20.7652 11.5 21.0196 11.6054 21.2071 11.7929C21.3946 11.9804 21.5 12.2348 21.5 12.5V16.5H2.5Z" fill="black"/>
</svg>
