<svg width="24" height="24" viewBox="0 0 24 24" fill="none" xmlns="http://www.w3.org/2000/svg">
<path d="M22 12V7C22 6.46957 21.7893 5.96086 21.4142 5.58579C21.0391 5.21071 20.5304 5 20 5H4C3.46957 5 2.96086 5.21071 2.58579 5.58579C2.21071 5.96086 2 6.46957 2 7V12H0V20H2V18H22V20H24V12H22ZM4 7H20V12H18.5L17.9837 10.9673C17.8384 10.6766 17.6149 10.4322 17.3385 10.2613C17.062 10.0905 16.7435 10 16.4185 10H15.3576C15.0326 10 14.7141 10.0905 14.4376 10.2613C14.1612 10.4322 13.9377 10.6766 13.7924 10.9673L13.2761 12H10.7239L10.2076 10.9673C10.0623 10.6766 9.83884 10.4322 9.56239 10.2613C9.28594 10.0905 8.96738 10 8.6424 10H7.5815C7.25652 10 6.93796 10.0905 6.66151 10.2613C6.38506 10.4322 6.16165 10.6766 6.0163 10.9673L5.5 12H4V7ZM2 16V14H22V16H2Z" fill="black"/>
</svg>
