<svg width="24" height="24" viewBox="0 0 24 24" fill="none" xmlns="http://www.w3.org/2000/svg">
<path d="M13.5 3.5C13.5 3.20333 13.412 2.91332 13.2472 2.66665C13.0824 2.41997 12.8481 2.22771 12.574 2.11418C12.2999 2.00065 11.9983 1.97094 11.7074 2.02882C11.4164 2.0867 11.1491 2.22956 10.9393 2.43934C10.7296 2.64912 10.5867 2.91639 10.5288 3.20737C10.4709 3.49834 10.5006 3.79994 10.6142 4.07403C10.7277 4.34811 10.92 4.58238 11.1666 4.7472C11.4133 4.91203 11.7033 5 12 5C12.3978 5 12.7794 4.84197 13.0607 4.56066C13.342 4.27936 13.5 3.89783 13.5 3.5ZM12 4.1C11.8813 4.1 11.7653 4.06481 11.6667 3.99888C11.568 3.93295 11.4911 3.83925 11.4457 3.72961C11.4003 3.61997 11.3884 3.49933 11.4115 3.38295C11.4347 3.26656 11.4918 3.15965 11.5757 3.07574C11.6596 2.99183 11.7666 2.93468 11.8829 2.91153C11.9993 2.88838 12.12 2.90026 12.2296 2.94567C12.3392 2.99109 12.433 3.06799 12.4989 3.16666C12.5648 3.26533 12.6 3.38133 12.6 3.5C12.5998 3.65907 12.5365 3.81158 12.4241 3.92406C12.3116 4.03654 12.1591 4.09982 12 4.1ZM21 9C21 6.7908 16.9706 5 12 5C7.0294 5 3 6.7908 3 9H1V10H3V21H21V10H23V9H21ZM20 20H4V10H20V20ZM4 9C4 7.7768 7.1165 6 12 6C16.8835 6 20 7.7768 20 9H4Z" fill="black"/>
</svg>
