<svg width="24" height="24" viewBox="0 0 24 24" fill="none" xmlns="http://www.w3.org/2000/svg">
<path d="M13 10.9999C13 10.7347 12.8946 10.4803 12.7071 10.2928C12.5196 10.1053 12.2652 9.99991 12 9.99991C11.7348 9.99991 11.4804 10.1053 11.2929 10.2928C11.1054 10.4803 11 10.7347 11 10.9999V11.9999H13V10.9999ZM13.5 12.9543C13.4011 12.9543 13.3044 12.9836 13.2222 13.0386C13.14 13.0935 13.0759 13.1716 13.0381 13.263C13.0002 13.3543 12.9903 13.4549 13.0096 13.5519C13.0289 13.6488 13.0765 13.7379 13.1464 13.8079C13.2164 13.8778 13.3055 13.9254 13.4025 13.9447C13.4994 13.964 13.6 13.9541 13.6913 13.9163C13.7827 13.8784 13.8608 13.8143 13.9157 13.7321C13.9707 13.6499 14 13.5532 14 13.4543C14 13.3217 13.9473 13.1945 13.8536 13.1008C13.7598 13.007 13.6326 12.9543 13.5 12.9543ZM10.5 12.9543C10.4011 12.9543 10.3044 12.9836 10.2222 13.0386C10.14 13.0935 10.0759 13.1716 10.0381 13.263C10.0002 13.3543 9.99031 13.4549 10.0096 13.5519C10.0289 13.6488 10.0765 13.7379 10.1464 13.8079C10.2164 13.8778 10.3055 13.9254 10.4025 13.9447C10.4994 13.964 10.6 13.9541 10.6913 13.9163C10.7827 13.8784 10.8608 13.8143 10.9157 13.7321C10.9707 13.6499 11 13.5532 11 13.4543C11 13.3217 10.9473 13.1945 10.8536 13.1008C10.7598 13.007 10.6326 12.9543 10.5 12.9543ZM12 2.80371L3 7.99991V20.9999H21V7.99991L12 2.80371ZM16 16.9999H8V11.9999H10V10.9999C10 10.4695 10.2107 9.96077 10.5858 9.5857C10.9609 9.21062 11.4696 8.99991 12 8.99991C12.5304 8.99991 13.0391 9.21062 13.4142 9.5857C13.7893 9.96077 14 10.4695 14 10.9999V11.9999H16V16.9999Z" fill="black"/>
</svg>
