<svg width="24" height="24" viewBox="0 0 24 24" fill="none" xmlns="http://www.w3.org/2000/svg">
<path d="M19 13V8C19 7.46957 18.7893 6.96086 18.4142 6.58579C18.0391 6.21071 17.5304 6 17 6H7C6.46957 6 5.96086 6.21071 5.58579 6.58579C5.21071 6.96086 5 7.46957 5 8V13H3V20H4V18H20V20H21V13H19ZM6 8C6.00029 7.73487 6.10574 7.48069 6.29321 7.29321C6.48069 7.10574 6.73487 7.00029 7 7H17C17.2651 7.00029 17.5193 7.10574 17.7068 7.29321C17.8943 7.48069 17.9997 7.73487 18 8V13H14.8984L14.3684 11.94C14.2272 11.6576 14.0102 11.42 13.7416 11.254C13.4731 11.088 13.1636 11 12.8478 11H11.1522C10.8365 11 10.527 11.088 10.2584 11.254C9.98987 11.42 9.77285 11.6576 9.6317 11.94L9.1016 13H6V8ZM13.78 13H10.22L10.5265 12.387C10.5843 12.2705 10.6735 12.1725 10.7841 12.1041C10.8946 12.0357 11.0222 11.9997 11.1522 12H12.8478C12.9779 11.9996 13.1055 12.0356 13.2162 12.104C13.3268 12.1724 13.4161 12.2704 13.4739 12.387L13.78 13ZM4 17V14H20V17H4Z" fill="black"/>
</svg>
