<svg width="24" height="24" viewBox="0 0 24 24" fill="none" xmlns="http://www.w3.org/2000/svg">
<path d="M16 8V3H8V13.567L5.5 12.1236L2 14.1443V22H22V8H16ZM8 21H3V14.7217L5.5 13.2783L8 14.7217V21ZM15 21H9V4H15V21ZM21 21H16V9H21V21ZM13.5 16H10.5V19H13.5V16ZM12.7 18.2H11.3V16.8H12.7V18.2ZM20 16H17V19H20V16ZM19.2 18.2H17.8V16.8H19.2V18.2ZM13.5 11H10.5V14H13.5V11ZM12.7 13.2H11.3V11.8H12.7V13.2ZM20 11H17V14H20V11ZM19.2 13.2H17.8V11.8H19.2V13.2ZM13.5 6H10.5V9H13.5V6ZM12.7 8.2H11.3V6.8H12.7V8.2ZM4 19H7V16H4V19ZM4.8 16.8H6.2V18.2H4.8V16.8Z" fill="black"/>
</svg>
