<svg width="24" height="24" viewBox="0 0 24 24" fill="none" xmlns="http://www.w3.org/2000/svg">
<path d="M2 6V19H3V9H15V19H22V6H2ZM21 18H16V14H17.5V14.5C17.5 14.6326 17.5527 14.7598 17.6464 14.8536C17.7402 14.9473 17.8674 15 18 15H19C19.1326 15 19.2598 14.9473 19.3536 14.8536C19.4473 14.7598 19.5 14.6326 19.5 14.5V14H21V18ZM21 13H16V9H17.5V9.5C17.5 9.63261 17.5527 9.75979 17.6464 9.85355C17.7402 9.94732 17.8674 10 18 10H19C19.1326 10 19.2598 9.94732 19.3536 9.85355C19.4473 9.75979 19.5 9.63261 19.5 9.5V9H21V13ZM3 8V7H21V8H3Z" fill="black"/>
</svg>
