<svg width="24" height="24" viewBox="0 0 24 24" fill="none" xmlns="http://www.w3.org/2000/svg">
<path d="M2 13V20H22V13H2ZM19 17.55C18.2799 17.5407 17.5781 17.3222 16.98 16.9211C16.5466 16.6161 16.0295 16.4524 15.4995 16.4524C14.9695 16.4524 14.4524 16.6161 14.019 16.9211C13.4243 17.3286 12.7204 17.5466 11.9995 17.5466C11.2786 17.5466 10.5746 17.3286 9.98 16.9211C9.54264 16.6242 9.02852 16.4605 8.5 16.45C7.97135 16.4603 7.45705 16.6238 7.0195 16.9207C6.42159 17.3218 5.71994 17.5405 5 17.55V16.55C5.52865 16.5397 6.04295 16.3762 6.4805 16.0793C7.07841 15.6782 7.78006 15.4595 8.5 15.45C9.22007 15.4593 9.9219 15.6778 10.52 16.0789C10.9534 16.3839 11.4705 16.5476 12.0005 16.5476C12.5305 16.5476 13.0476 16.3839 13.481 16.0789C14.0757 15.6714 14.7796 15.4534 15.5005 15.4534C16.2214 15.4534 16.9254 15.6714 17.52 16.0789C17.9574 16.3758 18.4715 16.5395 19 16.55V17.55ZM6.6413 10.9673C6.78665 10.6766 7.01006 10.4322 7.28651 10.2613C7.56296 10.0905 7.88152 10 8.2065 10H9.2674C9.59238 10 9.91094 10.0905 10.1874 10.2613C10.4638 10.4322 10.6873 10.6766 10.8326 10.9673L11.3489 12H12.6511L13.1674 10.9673C13.3127 10.6766 13.5362 10.4322 13.8126 10.2613C14.0891 10.0905 14.4076 10 14.7326 10H15.7935C16.1185 10 16.437 10.0905 16.7135 10.2613C16.9899 10.4322 17.2134 10.6766 17.3587 10.9673L17.875 12H20V8C20 7.46957 19.7893 6.96086 19.4142 6.58579C19.0391 6.21071 18.5304 6 18 6H6C5.46957 6 4.96086 6.21071 4.58579 6.58579C4.21071 6.96086 4 7.46957 4 8V12H6.125L6.6413 10.9673Z" fill="black"/>
</svg>
