<svg width="24" height="24" viewBox="0 0 24 24" fill="none" xmlns="http://www.w3.org/2000/svg">
<path d="M13.5 3.5C13.5 3.20333 13.412 2.91332 13.2472 2.66665C13.0824 2.41997 12.8481 2.22771 12.574 2.11418C12.2999 2.00065 11.9983 1.97094 11.7074 2.02882C11.4164 2.0867 11.1491 2.22956 10.9393 2.43934C10.7296 2.64912 10.5867 2.91639 10.5288 3.20737C10.4709 3.49834 10.5006 3.79994 10.6142 4.07403C10.7277 4.34811 10.92 4.58238 11.1666 4.7472C11.4133 4.91203 11.7033 5 12 5C12.3978 5 12.7794 4.84197 13.0607 4.56066C13.342 4.27936 13.5 3.89783 13.5 3.5ZM12 4.5C11.8022 4.5 11.6089 4.44135 11.4444 4.33147C11.28 4.22159 11.1518 4.06541 11.0761 3.88268C11.0004 3.69996 10.9806 3.49889 11.0192 3.30491C11.0578 3.11093 11.153 2.93275 11.2929 2.79289C11.4327 2.65304 11.6109 2.5578 11.8049 2.51922C11.9989 2.48063 12.2 2.50043 12.3827 2.57612C12.5654 2.65181 12.7216 2.77998 12.8315 2.94443C12.9414 3.10888 13 3.30222 13 3.5C12.9997 3.76513 12.8943 4.01931 12.7068 4.20679C12.5193 4.39426 12.2651 4.49971 12 4.5ZM21 9C21 6.7908 16.9706 5 12 5C7.0294 5 3 6.7908 3 9H1V9.5H3V21H21V9.5H23V9H21ZM20.5 20.5H3.5V9.5H20.5V20.5ZM3.5 9C3.5 7.31 6.9155 5.5 12 5.5C17.0845 5.5 20.5 7.31 20.5 9H3.5Z" fill="black"/>
</svg>
