<svg width="24" height="24" viewBox="0 0 24 24" fill="none" xmlns="http://www.w3.org/2000/svg">
<path d="M2 21H3.5V19H20.5V21H22V14H2V21ZM2 3V6H8.5V8.5C8.5 8.76522 8.39464 9.01957 8.20711 9.20711C8.01957 9.39464 7.76522 9.5 7.5 9.5C7.23478 9.5 6.98043 9.39464 6.79289 9.20711C6.60536 9.01957 6.5 8.76522 6.5 8.5V8H5V8.5C5 9.16304 5.26339 9.79893 5.73223 10.2678C6.20107 10.7366 6.83696 11 7.5 11C8.16304 11 8.79893 10.7366 9.26777 10.2678C9.73661 9.79893 10 9.16304 10 8.5V6H16.5V8.5C16.5 8.76522 16.3946 9.01957 16.2071 9.20711C16.0196 9.39464 15.7652 9.5 15.5 9.5C15.2348 9.5 14.9804 9.39464 14.7929 9.20711C14.6054 9.01957 14.5 8.76522 14.5 8.5V8H13V8.5C13 9.16304 13.2634 9.79893 13.7322 10.2678C14.2011 10.7366 14.837 11 15.5 11C16.163 11 16.7989 10.7366 17.2678 10.2678C17.7366 9.79893 18 9.16304 18 8.5V6H22V3H2Z" fill="black"/>
</svg>
