<svg width="24" height="24" viewBox="0 0 24 24" fill="none" xmlns="http://www.w3.org/2000/svg">
<path d="M2 6V19H3V9H22V6H2ZM19.5 15.5C19.5 15.6326 19.4473 15.7598 19.3536 15.8536C19.2598 15.9473 19.1326 16 19 16H18C17.8674 16 17.7402 15.9473 17.6464 15.8536C17.5527 15.7598 17.5 15.6326 17.5 15.5V15H15V19H22V15H19.5V15.5ZM19.5 10.5C19.5 10.6326 19.4473 10.7598 19.3536 10.8536C19.2598 10.9473 19.1326 11 19 11H18C17.8674 11 17.7402 10.9473 17.6464 10.8536C17.5527 10.7598 17.5 10.6326 17.5 10.5V10H15V14H22V10H19.5V10.5Z" fill="black"/>
</svg>
