<svg width="24" height="24" viewBox="0 0 24 24" fill="none" xmlns="http://www.w3.org/2000/svg">
<path d="M19 11V8.00005C19 7.46962 18.7893 6.96091 18.4142 6.58584C18.0391 6.21076 17.5304 6.00005 17 6.00005C16.4696 6.00005 15.9609 6.21076 15.5858 6.58584C15.2107 6.96091 15 7.46962 15 8.00005V9.00005H16V8.00005C16 7.73483 16.1054 7.48048 16.2929 7.29294C16.4804 7.10541 16.7348 7.00005 17 7.00005C17.2652 7.00005 17.5196 7.10541 17.7071 7.29294C17.8946 7.48048 18 7.73483 18 8.00005V11H3V21H21V11H19ZM11.5 20H4V12H11.5V20ZM20 20H12.5V15.5H20V20ZM20 14.5H12.5V12H20V14.5ZM12.5 6.57815L10.6 4.67815V2.30005H4.9V4.67815L3 6.57815V8.00005H12.5V6.57815ZM11.5 7.00005H4V6.99235L5.9 5.09235V3.30005H9.6V5.09235L11.5 6.99235V7.00005Z" fill="black"/>
</svg>
