<svg width="24" height="24" viewBox="0 0 24 24" fill="none" xmlns="http://www.w3.org/2000/svg">
<path d="M14 8V7C14 6.46957 13.7893 5.96086 13.4142 5.58579C13.0391 5.21071 12.5304 5 12 5H7C6.46957 5 5.96086 5.21071 5.58579 5.58579C5.21071 5.96086 5 6.46957 5 7V8H2V21H2.5V11H5V21H5.5V15H13.5V21H14V11H16V21H22V8H14ZM2.5 10.5V8.5H5V10.5H2.5ZM5.5 14.5V7C5.50045 6.60231 5.65863 6.22104 5.93984 5.93984C6.22104 5.65863 6.60231 5.50045 7 5.5H12C12.3977 5.50045 12.779 5.65863 13.0602 5.93984C13.3414 6.22104 13.4995 6.60231 13.5 7V14.5H5.5ZM21.5 20.5H16.5V16H18C18 16.1326 18.0527 16.2598 18.1464 16.3536C18.2402 16.4473 18.3674 16.5 18.5 16.5H19.5C19.6326 16.5 19.7598 16.4473 19.8536 16.3536C19.9473 16.2598 20 16.1326 20 16H21.5V20.5ZM21.5 15.5H16.5V11H18C18 11.1326 18.0527 11.2598 18.1464 11.3536C18.2402 11.4473 18.3674 11.5 18.5 11.5H19.5C19.6326 11.5 19.7598 11.4473 19.8536 11.3536C19.9473 11.2598 20 11.1326 20 11H21.5V15.5ZM14 10.5V8.5H21.5V10.5H14Z" fill="black"/>
</svg>
