<svg width="24" height="24" viewBox="0 0 24 24" fill="none" xmlns="http://www.w3.org/2000/svg">
<path d="M19 12V7C19 6.46957 18.7893 5.96086 18.4142 5.58579C18.0391 5.21071 17.5304 5 17 5H7C6.46957 5 5.96086 5.21071 5.58579 5.58579C5.21071 5.96086 5 6.46957 5 7V12H3V20H5V18H19V20H21V12H19ZM7 7H17V12H14.5959L14.08 10.9673C13.9346 10.6766 13.7111 10.4321 13.4346 10.2612C13.158 10.0904 12.8394 9.99991 12.5143 10H11.4857C11.1607 9.99998 10.8421 10.0905 10.5657 10.2613C10.2892 10.4322 10.0658 10.6766 9.9204 10.9673L9.4041 12H7V7ZM5 16V14H19V16H5Z" fill="black"/>
</svg>
