<svg width="24" height="24" viewBox="0 0 24 24" fill="none" xmlns="http://www.w3.org/2000/svg">
<path d="M13.35 3.65005C13.35 3.38304 13.2708 3.12204 13.1225 2.90003C12.9741 2.67802 12.7633 2.50499 12.5166 2.40281C12.2699 2.30063 11.9985 2.2739 11.7366 2.32599C11.4748 2.37808 11.2342 2.50665 11.0454 2.69546C10.8566 2.88426 10.728 3.1248 10.6759 3.38668C10.6238 3.64855 10.6506 3.91999 10.7528 4.16667C10.8549 4.41335 11.028 4.62419 11.25 4.77253C11.472 4.92087 11.733 5.00005 12 5.00005C12.358 5.00005 12.7014 4.85782 12.9546 4.60464C13.2078 4.35147 13.35 4.00809 13.35 3.65005ZM0 18V20H24V18H0ZM22 15C22 12.3479 20.9464 9.80435 19.0711 7.92898C17.1957 6.05362 14.6522 5.00005 12 5.00005C9.34784 5.00005 6.8043 6.05362 4.92893 7.92898C3.05357 9.80435 2 12.3479 2 15V16H22V15ZM4.0621 14C4.30577 12.0667 5.24666 10.2887 6.70818 8.99987C8.16969 7.711 10.0514 6.99982 12 6.99982C13.9486 6.99982 15.8303 7.711 17.2918 8.99987C18.7533 10.2887 19.6942 12.0667 19.9379 14H4.0621Z" fill="black"/>
</svg>
