<svg width="24" height="24" viewBox="0 0 24 24" fill="none" xmlns="http://www.w3.org/2000/svg">
<path d="M16 1H8C7.20435 1 6.44129 1.31607 5.87868 1.87868C5.31607 2.44129 5 3.20435 5 4V9.25H19V4C19 3.20435 18.6839 2.44129 18.1213 1.87868C17.5587 1.31607 16.7956 1 16 1ZM9.25 7H7V5.5H9.25C9.44891 5.5 9.63968 5.57902 9.78033 5.71967C9.92098 5.86032 10 6.05109 10 6.25C10 6.44891 9.92098 6.63968 9.78033 6.78033C9.63968 6.92098 9.44891 7 9.25 7ZM5 23H19V10.75H5V23ZM7 13H9.25C9.44891 13 9.63968 13.079 9.78033 13.2197C9.92098 13.3603 10 13.5511 10 13.75C10 13.9489 9.92098 14.1397 9.78033 14.2803C9.63968 14.421 9.44891 14.5 9.25 14.5H7V13Z" fill="black"/>
</svg>
