<svg width="24" height="24" viewBox="0 0 24 24" fill="none" xmlns="http://www.w3.org/2000/svg">
<path d="M20 10H11.6276L10.8476 8.44C10.7064 8.15754 10.4894 7.91999 10.2208 7.75396C9.9522 7.58793 9.64267 7.49999 9.3269 7.5H7.6314C7.31567 7.50003 7.00618 7.58799 6.73762 7.75401C6.46907 7.92004 6.25205 8.15757 6.1109 8.44L5.3307 10H4C3.46957 10 2.96086 10.2107 2.58579 10.5858C2.21071 10.9609 2 11.4696 2 12V14C2 14.5304 2.21071 15.0391 2.58579 15.4142C2.96086 15.7893 3.46957 16 4 16H20C20.5304 16 21.0391 15.7893 21.4142 15.4142C21.7893 15.0391 22 14.5304 22 14V12C22 11.4696 21.7893 10.9609 21.4142 10.5858C21.0391 10.2107 20.5304 10 20 10ZM6.5581 8.6633C6.65718 8.46351 6.81024 8.29548 6.99994 8.17824C7.18965 8.06101 7.4084 7.99926 7.6314 8H9.3269C9.54987 7.9993 9.76858 8.06106 9.95824 8.17829C10.1479 8.29553 10.3009 8.46354 10.4 8.6633L11.0685 10H5.89L6.5581 8.6633ZM21.5 14C21.4995 14.3977 21.3414 14.779 21.0602 15.0602C20.779 15.3414 20.3977 15.4995 20 15.5H4C3.60231 15.4995 3.22104 15.3414 2.93984 15.0602C2.65863 14.779 2.50045 14.3977 2.5 14V12C2.50045 11.6023 2.65863 11.221 2.93984 10.9398C3.22104 10.6586 3.60231 10.5004 4 10.5H20C20.3977 10.5004 20.779 10.6586 21.0602 10.9398C21.3414 11.221 21.4995 11.6023 21.5 12V14Z" fill="black"/>
</svg>
