<svg width="24" height="24" viewBox="0 0 24 24" fill="none" xmlns="http://www.w3.org/2000/svg">
<path d="M16.0654 13.6044L18.9843 13.349L18.4758 10.4853C18.4019 10.069 18.1838 9.692 17.8597 9.42042C17.5356 9.14883 17.1263 8.99999 16.7035 9H9.97909L8.19299 2.3341C8.09043 1.95136 7.86444 1.61316 7.55007 1.37194C7.23571 1.13073 6.85053 0.999991 6.45429 1H3.43689L5.34459 11.7945C5.45029 12.39 5.73362 12.9396 6.15738 13.3712C6.58114 13.8027 7.12551 14.096 7.71899 14.2125C7.68989 14.2925 7.65209 14.3672 7.62989 14.4502L5.60619 22H7.46999L9.36859 14.916C9.42731 14.6988 9.55112 14.5047 9.72338 14.3599C9.89564 14.2151 10.1081 14.1265 10.3322 14.106L11.8177 13.976L13.4 13.8379C13.6582 13.8131 13.9167 13.8812 14.1292 14.03C14.3416 14.1787 14.4941 14.3983 14.5592 14.6494L16.5292 22H18.3926L16.2979 14.1826C16.2414 13.9821 16.1635 13.7882 16.0654 13.6044ZM7.11719 11.4813L5.58289 2.8H6.45429L8.24049 9.4659L8.59789 10.8H16.7035L16.8682 11.7273L8.40339 12.4679C8.36739 12.4711 8.33169 12.4726 8.29609 12.4726C8.01432 12.4726 7.74159 12.3732 7.52594 12.1919C7.31028 12.0105 7.16553 11.7589 7.11719 11.4813Z" fill="black"/>
</svg>
