<svg width="24" height="24" viewBox="0 0 24 24" fill="none" xmlns="http://www.w3.org/2000/svg">
<path d="M20 4V9.26C17.4603 10.2904 14.7236 10.7438 11.9873 10.5877C9.26058 10.7423 6.53333 10.2934 4 9.273V4H2V20H4V13.4029C4.92028 14.6563 6.12313 15.6751 7.51091 16.3765C8.8987 17.078 10.4323 17.4423 11.9873 17.44C13.4015 17.4404 14.7995 17.1385 16.0875 16.5544C17.3755 15.9704 18.5237 15.1178 19.4553 14.0538C19.6471 13.8352 19.8277 13.6067 19.9999 13.3717V20H21.9999V4H20ZM18.8829 11.6193C17.0428 13.4268 14.5667 14.4395 11.9874 14.4395C9.40804 14.4395 6.93185 13.4268 5.0918 11.6193C7.34145 12.2053 9.66383 12.4641 11.9873 12.3876C14.3108 12.4642 16.6332 12.2054 18.8829 11.6193Z" fill="black"/>
</svg>
