<svg width="24" height="24" viewBox="0 0 24 24" fill="none" xmlns="http://www.w3.org/2000/svg">
<path d="M20.5 4V9C18.042 10.35 15.1265 10.5878 11.9873 10.5878C8.8589 10.5878 5.9529 10.3508 3.5 9.0132V4H2V20H3.5V12.6568C4.38617 14.1199 5.63547 15.3291 7.12668 16.167C8.61789 17.005 10.3004 17.4433 12.0109 17.4394C13.7214 17.4356 15.4019 16.9896 16.8893 16.1449C18.3767 15.3001 19.6205 14.0853 20.5 12.6182V20H22V4H20.5ZM11.9873 15.94C10.3795 15.9384 8.80557 15.478 7.45044 14.6128C6.0953 13.7476 5.01529 12.5135 4.3373 11.0557C6.80619 11.8495 9.39631 12.199 11.9873 12.0881C14.5783 12.199 17.1684 11.8495 19.6373 11.0557C18.9593 12.5135 17.8793 13.7476 16.5242 14.6128C15.169 15.478 13.5951 15.9384 11.9873 15.94Z" fill="black"/>
</svg>
