<svg width="24" height="24" viewBox="0 0 24 24" fill="none" xmlns="http://www.w3.org/2000/svg">
<path d="M18.9307 13.017L18.5046 10.6489C18.438 10.2798 18.2438 9.94592 17.956 9.70546C17.6682 9.465 17.3051 9.33328 16.93 9.3333H9.72345L7.80835 2.1859C7.71719 1.8457 7.51633 1.54508 7.23692 1.33066C6.9575 1.11625 6.61515 1.00002 6.26295 1H3.77515L5.63265 11.5C5.73741 12.0917 6.02141 12.637 6.44622 13.0621C6.87104 13.4871 7.41616 13.7714 8.00785 13.8765L5.83005 22H7.24555L8.00955 19.1493L12.0095 16.8405L15.9862 19.1363L16.7534 22H18.1685L15.8342 13.29L18.9307 13.017ZM7.11005 11.2393L5.56455 2.5H6.26275C6.28481 2.49988 6.3063 2.5071 6.3238 2.52054C6.34131 2.53397 6.35385 2.55285 6.35945 2.5742L8.57235 10.833H16.93C16.9538 10.833 16.9768 10.8413 16.9951 10.8564C17.0133 10.8716 17.0257 10.8927 17.03 10.916L17.1648 11.666L8.64625 12.417C8.60235 12.4209 8.56035 12.4219 8.51835 12.4219C8.18186 12.4224 7.856 12.3041 7.59832 12.0877C7.34063 11.8713 7.1677 11.5708 7.11005 11.2393ZM8.46125 17.464L9.08125 15.15L10.7754 16.1281L8.46125 17.464ZM9.41195 13.9162L9.42875 13.8535L14.4521 13.4121L14.59 13.9263L12.0095 15.4163L9.41195 13.9162ZM13.2434 16.1282L14.9205 15.1601L15.5344 17.4509L13.2434 16.1282Z" fill="black"/>
</svg>
