<svg width="24" height="24" viewBox="0 0 24 24" fill="none" xmlns="http://www.w3.org/2000/svg">
<path d="M13.5 10.9999C13.5 10.6021 13.342 10.2206 13.0607 9.93925C12.7794 9.65795 12.3978 9.49991 12 9.49991C11.6022 9.49991 11.2206 9.65795 10.9393 9.93925C10.658 10.2206 10.5 10.6021 10.5 10.9999V11.9999H13.5V10.9999ZM10.2546 12.9543C10.1953 12.9543 10.1373 12.9719 10.0879 13.0049C10.0386 13.0378 10.0001 13.0847 9.97744 13.1395C9.95473 13.1943 9.94879 13.2546 9.96036 13.3128C9.97194 13.371 10.0005 13.4245 10.0425 13.4664C10.0844 13.5084 10.1379 13.537 10.1961 13.5485C10.2543 13.5601 10.3146 13.5542 10.3694 13.5315C10.4242 13.5088 10.4711 13.4703 10.504 13.421C10.537 13.3716 10.5546 13.3136 10.5546 13.2543C10.5546 13.1747 10.523 13.0984 10.4667 13.0422C10.4105 12.9859 10.3342 12.9543 10.2546 12.9543ZM12 2.80371L3 7.99991V20.9999H21V7.99991L12 2.80371ZM16 16.9999H8V11.9999H10V10.9999C10 10.4695 10.2107 9.96077 10.5858 9.5857C10.9609 9.21062 11.4696 8.99991 12 8.99991C12.5304 8.99991 13.0391 9.21062 13.4142 9.5857C13.7893 9.96077 14 10.4695 14 10.9999V11.9999H16V16.9999ZM13.7454 12.9543C13.6861 12.9543 13.6281 12.9719 13.5787 13.0049C13.5294 13.0378 13.4909 13.0847 13.4682 13.1395C13.4455 13.1943 13.4396 13.2546 13.4512 13.3128C13.4627 13.371 13.4913 13.4245 13.5333 13.4664C13.5752 13.5084 13.6287 13.537 13.6869 13.5485C13.7451 13.5601 13.8054 13.5542 13.8602 13.5315C13.915 13.5088 13.9619 13.4703 13.9948 13.421C14.0278 13.3716 14.0454 13.3136 14.0454 13.2543C14.0454 13.1747 14.0138 13.0984 13.9575 13.0422C13.9013 12.9859 13.825 12.9543 13.7454 12.9543Z" fill="black"/>
</svg>
