<svg width="24" height="24" viewBox="0 0 24 24" fill="none" xmlns="http://www.w3.org/2000/svg">
<path d="M22 12.5V7C22 6.46957 21.7893 5.96086 21.4142 5.58579C21.0391 5.21071 20.5304 5 20 5H4C3.46957 5 2.96086 5.21071 2.58579 5.58579C2.21071 5.96086 2 6.46957 2 7V12.5H0V20H1.5V18H22.5V20H24V12.5H22ZM3.5 7C3.50016 6.86744 3.55289 6.74036 3.64662 6.64662C3.74036 6.55289 3.86744 6.50016 4 6.5H20C20.1326 6.50016 20.2596 6.55289 20.3534 6.64662C20.4471 6.74036 20.4998 6.86744 20.5 7V12.5H18.25L17.97 11.94C17.8289 11.6577 17.6119 11.4202 17.3435 11.2541C17.075 11.0881 16.7656 11.0001 16.45 11H15.3267C15.011 11 14.7015 11.088 14.4329 11.254C14.1644 11.42 13.9474 11.6576 13.8062 11.94L13.5262 12.5H10.4739L10.1939 11.94C10.0527 11.6576 9.83571 11.42 9.56713 11.254C9.29856 11.088 8.98905 11 8.6733 11H7.5507C7.23497 11 6.92548 11.088 6.65692 11.254C6.38837 11.42 6.17135 11.6576 6.0302 11.94L5.7502 12.5H3.5V7ZM1.5 16.5V14H22.5V16.5H1.5Z" fill="black"/>
</svg>
