<svg width="24" height="24" viewBox="0 0 24 24" fill="none" xmlns="http://www.w3.org/2000/svg">
<path d="M9.5 2H5V5.1666L3 7.1666V8H11.5V7.1666L9.5 5.1666V2ZM3 21H11.5V11H3V21ZM12.5 21H21V14.5H12.5V21ZM19 11V8C19 7.46957 18.7893 6.96086 18.4142 6.58579C18.0391 6.21071 17.5304 6 17 6C16.4696 6 15.9609 6.21071 15.5858 6.58579C15.2107 6.96086 15 7.46957 15 8V9H16V8C16 7.73478 16.1054 7.48043 16.2929 7.29289C16.4804 7.10536 16.7348 7 17 7C17.2652 7 17.5196 7.10536 17.7071 7.29289C17.8946 7.48043 18 7.73478 18 8V11H12.5V13.5H21V11H19Z" fill="black"/>
</svg>
