<svg width="24" height="24" viewBox="0 0 24 24" fill="none" xmlns="http://www.w3.org/2000/svg">
<path d="M18.275 19.8C18.0574 19.8 17.8448 19.8646 17.6639 19.9854C17.483 20.1063 17.342 20.2781 17.2587 20.4791C17.1755 20.6801 17.1537 20.9013 17.1961 21.1146C17.2386 21.328 17.3434 21.524 17.4972 21.6779C17.651 21.8317 17.847 21.9365 18.0604 21.9789C18.2738 22.0214 18.495 21.9996 18.696 21.9163C18.897 21.8331 19.0688 21.6921 19.1896 21.5112C19.3105 21.3303 19.375 21.1176 19.375 20.9C19.375 20.6083 19.2591 20.3285 19.0528 20.1222C18.8465 19.9159 18.5667 19.8 18.275 19.8ZM7.72501 19.8C7.50745 19.8 7.29478 19.8646 7.11388 19.9854C6.93299 20.1063 6.792 20.2781 6.70874 20.4791C6.62548 20.6801 6.6037 20.9013 6.64614 21.1146C6.68859 21.328 6.79335 21.524 6.94719 21.6779C7.10103 21.8317 7.29703 21.9365 7.51041 21.9789C7.72379 22.0214 7.94496 21.9996 8.14596 21.9163C8.34696 21.8331 8.51876 21.6921 8.63963 21.5112C8.7605 21.3303 8.82501 21.1176 8.82501 20.9C8.82501 20.6083 8.70912 20.3285 8.50283 20.1222C8.29654 19.9159 8.01675 19.8 7.72501 19.8ZM10.2759 13.4468L12.5 13.2513V18H7.54171C7.47058 18 7.40014 18.014 7.33442 18.0412C7.26869 18.0685 7.20898 18.1084 7.15867 18.1586C7.10837 18.2089 7.06847 18.2686 7.04124 18.3344C7.01402 18.4001 7.00001 18.4705 7.00001 18.5416V19H19V18.5416C19 18.4705 18.986 18.4001 18.9588 18.3344C18.9315 18.2686 18.8916 18.2089 18.8413 18.1586C18.791 18.1084 18.7313 18.0685 18.6656 18.0412C18.5999 18.014 18.5294 18 18.4583 18H13.5V13.1635L19.7435 12.6147L19.5172 11.4025C19.4726 11.1646 19.3463 10.9497 19.16 10.795C18.9737 10.6404 18.7393 10.5557 18.4972 10.5555H15.2758L15.8372 9.01305C15.9197 8.78645 15.9463 8.5433 15.9148 8.30422C15.8833 8.06514 15.7947 7.83718 15.6564 7.63965C15.518 7.44212 15.3341 7.28085 15.1202 7.16951C14.9063 7.05817 14.6688 7.00004 14.4276 7.00005H9.34471L8.14091 2.50675C8.07631 2.26576 7.934 2.05283 7.73606 1.90095C7.53812 1.74908 7.2956 1.66676 7.04611 1.66675H5.88611L7.60461 11.3982C7.713 12.0119 8.04744 12.5627 8.54194 12.9419C9.03645 13.3212 9.65511 13.5013 10.2759 13.4468ZM14.4276 8.00005C14.508 8.00002 14.5872 8.01938 14.6585 8.05649C14.7298 8.09359 14.7912 8.14735 14.8373 8.21319C14.8834 8.27904 14.913 8.35504 14.9235 8.43474C14.934 8.51444 14.9251 8.5955 14.8976 8.67105L14.2116 10.5555H10.2972L9.61251 8.00005H14.4276Z" fill="black"/>
</svg>
