<svg width="24" height="24" viewBox="0 0 24 24" fill="none" xmlns="http://www.w3.org/2000/svg">
<path d="M14 8V7C14 6.46957 13.7893 5.96086 13.4142 5.58579C13.0391 5.21071 12.5304 5 12 5H8C7.46957 5 6.96086 5.21071 6.58579 5.58579C6.21071 5.96086 6 6.46957 6 7V8H2V21H4V11H6V21H8V15H12V21H14V11H22V8H14ZM20 18.5C20 18.6326 19.9473 18.7598 19.8536 18.8536C19.7598 18.9473 19.6326 19 19.5 19H18.5C18.3674 19 18.2402 18.9473 18.1464 18.8536C18.0527 18.7598 18 18.6326 18 18.5V18H16V21H22V18H20V18.5ZM20 13.5C20 13.6326 19.9473 13.7598 19.8536 13.8536C19.7598 13.9473 19.6326 14 19.5 14H18.5C18.3674 14 18.2402 13.9473 18.1464 13.8536C18.0527 13.7598 18 13.6326 18 13.5V13H16V16H22V13H20V13.5Z" fill="black"/>
</svg>
