<svg width="24" height="24" viewBox="0 0 24 24" fill="none" xmlns="http://www.w3.org/2000/svg">
<path d="M7.4792 12.99V13.5H16.5V12.99C16.5009 12.0647 16.8689 11.1775 17.5232 10.5232C18.1775 9.86892 19.0647 9.50093 19.99 9.5H20V6C20 5.20435 19.6839 4.44129 19.1213 3.87868C18.5587 3.31607 17.7956 3 17 3H7C6.20435 3 5.44129 3.31607 4.87868 3.87868C4.31607 4.44129 4 5.20435 4 6V9.501C4.92332 9.50465 5.80763 9.87372 6.4596 10.5275C7.11157 11.1813 7.47815 12.0667 7.4792 12.99ZM20.01 11H19.99C19.4622 11 18.9561 11.2097 18.5829 11.5829C18.2097 11.9561 18 12.4622 18 12.99V15H5.9792V12.99C5.96876 12.4692 5.75455 11.9733 5.38257 11.6087C5.01058 11.2441 4.51047 11.0399 3.9896 11.0399C3.46873 11.0399 2.96862 11.2441 2.59663 11.6087C2.22465 11.9733 2.01044 12.4692 2 12.99V18C2 18.5304 2.21071 19.0391 2.58579 19.4142C2.96086 19.7893 3.46957 20 4 20V22H5.5V20H18.5V22H20V20C20.5304 20 21.0391 19.7893 21.4142 19.4142C21.7893 19.0391 22 18.5304 22 18V12.99C22 12.4622 21.7903 11.9561 21.4171 11.5829C21.0439 11.2097 20.5378 11 20.01 11Z" fill="black"/>
</svg>
