<svg width="24" height="24" viewBox="0 0 24 24" fill="none" xmlns="http://www.w3.org/2000/svg">
<path d="M12 2.80371L3 7.99991V20.9999H21V7.99991L12 2.80371ZM20.5 20.4999H3.5V8.28851L12 3.38111L20.5 8.28851V20.4999ZM11.6233 10.7099C10.5527 10.2416 9.39682 9.9999 8.2283 9.99991H8V15.7927C9.315 15.7927 10.6119 16.0989 11.7881 16.687L12 16.7931L12.2113 16.6874C13.3876 16.0992 14.6848 15.793 16 15.7931V9.99991H15.7717C14.6031 9.99984 13.4472 10.2416 12.3766 10.7099L12 10.8749L11.6233 10.7099ZM11.75 16.1252C10.7273 15.6519 9.62492 15.3744 8.5 15.3069V10.5044C9.50767 10.5376 10.4997 10.7628 11.4229 11.1681L11.75 11.3112V16.1252ZM12.25 11.3112L12.5771 11.1681C13.5002 10.7628 14.4923 10.5375 15.5 10.5044V15.3073C14.3751 15.3746 13.2727 15.652 12.25 16.1253V11.3112Z" fill="black"/>
</svg>
