<svg width="24" height="24" viewBox="0 0 24 24" fill="none" xmlns="http://www.w3.org/2000/svg">
<path d="M21 10.1809V8C21 7.20435 20.6839 6.44129 20.1213 5.87868C19.5587 5.31607 18.7956 5 18 5H6C5.20435 5 4.44129 5.31607 3.87868 5.87868C3.31607 6.44129 3 7.20435 3 8V10.1809C2.41664 10.3842 1.91084 10.7636 1.55254 11.2669C1.19425 11.7701 1.00117 12.3722 1 12.99V17C1 17.5304 1.21071 18.0391 1.58579 18.4142C1.96086 18.7893 2.46957 19 3 19V21H4.5V19H19.5V21H21V19C21.5304 19 22.0391 18.7893 22.4142 18.4142C22.7893 18.0391 23 17.5304 23 17V12.99C22.9988 12.3722 22.8057 11.7701 22.4475 11.2669C22.0892 10.7636 21.5834 10.3842 21 10.1809ZM6 6.5H18C18.3977 6.50045 18.779 6.65863 19.0602 6.93984C19.3414 7.22104 19.4995 7.60231 19.5 8V10.0494C18.8025 10.1639 18.1683 10.5224 17.7104 11.061C17.2526 11.5995 17.0008 12.2831 17 12.99V13H6.9792V12.99C6.97853 12.2866 6.72942 11.606 6.27581 11.0683C5.82221 10.5307 5.19328 10.1706 4.5 10.0515V8C4.50045 7.60231 4.65863 7.22104 4.93984 6.93984C5.22104 6.65863 5.60231 6.50045 6 6.5ZM21.5 17C21.4998 17.1326 21.4471 17.2596 21.3534 17.3534C21.2596 17.4471 21.1326 17.4998 21 17.5H3C2.86744 17.4998 2.74036 17.4471 2.64662 17.3534C2.55289 17.2596 2.50016 17.1326 2.5 17V12.99C2.49611 12.7915 2.53194 12.5942 2.60538 12.4097C2.67881 12.2253 2.78837 12.0574 2.92762 11.9158C3.06687 11.7743 3.233 11.662 3.41625 11.5856C3.5995 11.5092 3.79617 11.4702 3.99472 11.4708C4.19326 11.4715 4.38967 11.5119 4.5724 11.5895C4.75513 11.6671 4.92051 11.7805 5.0588 11.923C5.1971 12.0654 5.30553 12.2341 5.37772 12.4191C5.44992 12.604 5.48442 12.8015 5.4792 13V14.5H17L18.5 14.49V12.99C18.5003 12.5949 18.6574 12.2161 18.9368 11.9368C19.2161 11.6574 19.5949 11.5003 19.99 11.5H20.01C20.4051 11.5003 20.7839 11.6574 21.0632 11.9368C21.3426 12.2161 21.4997 12.5949 21.5 12.99V17Z" fill="black"/>
</svg>
