<svg width="24" height="24" viewBox="0 0 24 24" fill="none" xmlns="http://www.w3.org/2000/svg">
<path d="M12 2C10.1435 2 8.36301 2.7375 7.05025 4.05025C5.7375 5.36301 5 7.14348 5 9C4.99995 9.95112 5.18727 10.8929 5.55124 11.7717C5.91522 12.6504 6.44873 13.4488 7.1213 14.1213C7.68387 14.6839 7.99993 15.447 8 16.2426V19C8 19.7956 8.31607 20.5587 8.87868 21.1213C9.44129 21.6839 10.2044 22 11 22H13C13.7956 22 14.5587 21.6839 15.1213 21.1213C15.6839 20.5587 16 19.7956 16 19V16.2426C16.0001 15.447 16.3161 14.6839 16.8787 14.1213C17.5513 13.4488 18.0848 12.6504 18.4487 11.7716C18.8127 10.8929 19 9.95112 19 9C19 7.14348 18.2625 5.36301 16.9497 4.05025C15.637 2.7375 13.8565 2 12 2ZM15 19C14.9994 19.5302 14.7885 20.0386 14.4135 20.4135C14.0386 20.7885 13.5302 20.9994 13 21H11C10.4698 20.9994 9.9614 20.7885 9.58646 20.4135C9.21152 20.0386 9.00061 19.5302 9 19V18H15V19ZM16.1714 13.4142C15.7989 13.7848 15.5035 14.2256 15.3025 14.7111C15.1014 15.1966 14.9986 15.7171 15 16.2426V17H9V16.2426C9.00142 15.7171 8.89861 15.1965 8.6975 14.711C8.4964 14.2256 8.201 13.7848 7.8284 13.4142C7.24691 12.8359 6.7859 12.1479 6.47206 11.3902C6.15821 10.6325 5.99777 9.82012 6 9C6 7.4087 6.63214 5.88258 7.75736 4.75736C8.88258 3.63214 10.4087 3 12 3C13.5913 3 15.1174 3.63214 16.2426 4.75736C17.3679 5.88258 18 7.4087 18 9C18.0022 9.82014 17.8418 10.6326 17.5279 11.3903C17.214 12.148 16.753 12.8359 16.1714 13.4142Z" fill="black"/>
</svg>
