<svg width="24" height="24" viewBox="0 0 24 24" fill="none" xmlns="http://www.w3.org/2000/svg">
<path d="M12 2.80371L3 7.99991V20.9999H21V7.99991L12 2.80371ZM19.5 19.4999H4.5V8.86591L12 4.53591L19.5 8.86591V19.4999ZM11.6233 10.7099C10.5527 10.2416 9.39682 9.9999 8.2283 9.99991H8V15.7927C9.315 15.7927 10.6119 16.0989 11.7881 16.687L12 16.7931L12.2113 16.6874C13.3876 16.0992 14.6848 15.793 16 15.7931V9.99991H15.7717C14.6031 9.99984 13.4472 10.2416 12.3766 10.7099L12 10.8749L11.6233 10.7099ZM12.5411 12.1116L12.9178 11.9468C13.4711 11.7041 14.0532 11.533 14.6499 11.4378V14.5372C13.7356 14.6647 12.8436 14.9196 11.9999 15.2945C11.1562 14.9197 10.2642 14.6647 9.3499 14.537V11.4379C9.94662 11.5331 10.5287 11.7042 11.0821 11.9469L11.4588 12.1117L12 12.3484L12.5411 12.1116Z" fill="black"/>
</svg>
