<svg width="24" height="24" viewBox="0 0 24 24" fill="none" xmlns="http://www.w3.org/2000/svg">
<path d="M19 12.5V7C19 6.46957 18.7893 5.96086 18.4142 5.58579C18.0391 5.21071 17.5304 5 17 5H7C6.46957 5 5.96086 5.21071 5.58579 5.58579C5.21071 5.96086 5 6.46957 5 7V12.5H3V20H4.5V18H19.5V20H21V12.5H19ZM6.5 7C6.50016 6.86744 6.55289 6.74036 6.64662 6.64662C6.74036 6.55289 6.86744 6.50016 7 6.5H17C17.1326 6.50016 17.2596 6.55289 17.3534 6.64662C17.4471 6.74036 17.4998 6.86744 17.5 7V12.5H14.3459L14.0105 11.8292C13.8859 11.58 13.6944 11.3705 13.4575 11.224C13.2205 11.0776 12.9475 11 12.6689 11H11.3311C11.0525 11 10.7795 11.0776 10.5425 11.224C10.3056 11.3705 10.1141 11.58 9.9895 11.8292L9.6541 12.5H6.5V7ZM4.5 16.5V14H19.5V16.5H4.5Z" fill="black"/>
</svg>
