<svg width="24" height="24" viewBox="0 0 24 24" fill="none" xmlns="http://www.w3.org/2000/svg">
<path d="M22 11C21.7348 11 21.4804 11.1054 21.2929 11.2929C21.1054 11.4804 21 11.7348 21 12V8C21 7.20435 20.6839 6.44129 20.1213 5.87868C19.5587 5.31607 18.7956 5 18 5H6C5.20435 5 4.44129 5.31607 3.87868 5.87868C3.31607 6.44129 3 7.20435 3 8V12C3 11.7348 2.89464 11.4804 2.70711 11.2929C2.51957 11.1054 2.26522 11 2 11C1.73478 11 1.48043 11.1054 1.29289 11.2929C1.10536 11.4804 1 11.7348 1 12V20H3V18H21V20H23V12C23 11.7348 22.8946 11.4804 22.7071 11.2929C22.5196 11.1054 22.2652 11 22 11ZM5 8C5.00029 7.73487 5.10574 7.48069 5.29321 7.29321C5.48069 7.10574 5.73487 7.00029 6 7H18C18.2651 7.00029 18.5193 7.10574 18.7068 7.29321C18.8943 7.48069 18.9997 7.73487 19 8V12H17.875L17.29 10.8292C17.1654 10.58 16.9738 10.3704 16.7368 10.2239C16.4997 10.0775 16.2265 9.99992 15.9479 10H14.5779C14.2993 10 14.0263 10.0776 13.7893 10.224C13.5524 10.3705 13.3609 10.58 13.2363 10.8292L12.6511 12H11.3489L10.7635 10.8292C10.6389 10.58 10.4474 10.3705 10.2105 10.224C9.97352 10.0776 9.70046 10 9.4219 10H8.0519C7.77332 9.99999 7.50024 10.0776 7.26327 10.224C7.02629 10.3705 6.83478 10.58 6.7102 10.8292L6.125 12H5V8ZM21 16H3V14H21V16Z" fill="black"/>
</svg>
