<svg width="24" height="24" viewBox="0 0 24 24" fill="none" xmlns="http://www.w3.org/2000/svg">
<path d="M2 13V20H22V13H2ZM19 17.3C18.328 17.2903 17.6732 17.0857 17.1152 16.7111C16.6416 16.3803 16.0779 16.203 15.5002 16.203C14.9225 16.203 14.3588 16.3803 13.8852 16.7111C13.3307 17.0928 12.6734 17.2972 12.0002 17.2972C11.327 17.2972 10.6697 17.0928 10.1152 16.7111C9.63769 16.3878 9.07655 16.2103 8.5 16.2C7.92349 16.2102 7.36236 16.3876 6.8848 16.7107C6.32684 17.0855 5.67207 17.2902 5 17.3V16.8C5.57651 16.7898 6.13764 16.6124 6.6152 16.2893C7.17316 15.9145 7.82793 15.7098 8.5 15.7C9.17203 15.7097 9.8268 15.9143 10.3848 16.2889C10.8584 16.6197 11.4221 16.797 11.9998 16.797C12.5775 16.797 13.1412 16.6197 13.6148 16.2889C14.1693 15.9072 14.8266 15.7028 15.4998 15.7028C16.173 15.7028 16.8303 15.9072 17.3848 16.2889C17.8623 16.6122 18.4235 16.7897 19 16.8V17.3ZM6.6413 11.4673C6.78665 11.1766 7.01006 10.9322 7.28651 10.7613C7.56296 10.5905 7.88152 10.5 8.2065 10.5H9.2674C9.59238 10.5 9.91094 10.5905 10.1874 10.7613C10.4638 10.9322 10.6873 11.1766 10.8326 11.4673L11.3489 12.5H12.6511L13.1674 11.4673C13.3127 11.1766 13.5362 10.9322 13.8126 10.7613C14.0891 10.5905 14.4076 10.5 14.7326 10.5H15.7935C16.1185 10.5 16.437 10.5905 16.7135 10.7613C16.9899 10.9322 17.2134 11.1766 17.3587 11.4673L17.875 12.5H20V8C20 7.46957 19.7893 6.96086 19.4142 6.58579C19.0391 6.21071 18.5304 6 18 6H6C5.46957 6 4.96086 6.21071 4.58579 6.58579C4.21071 6.96086 4 7.46957 4 8V12.5H6.125L6.6413 11.4673Z" fill="black"/>
</svg>
