<svg width="24" height="24" viewBox="0 0 24 24" fill="none" xmlns="http://www.w3.org/2000/svg">
<path d="M3 3V21H21V3H3ZM20.5 20.5H3.5V3.5H20.5V20.5ZM15.7552 10.7448C16.2497 10.7448 16.733 10.5982 17.1441 10.3235C17.5552 10.0488 17.8757 9.65832 18.0649 9.20151C18.2541 8.74469 18.3036 8.24203 18.2072 7.75707C18.1107 7.27212 17.8726 6.82666 17.523 6.47703C17.1733 6.1274 16.7279 5.8893 16.2429 5.79284C15.758 5.69637 15.2553 5.74588 14.7985 5.9351C14.3417 6.12432 13.9512 6.44475 13.6765 6.85587C13.4018 7.267 13.2552 7.75035 13.2552 8.2448C13.2552 8.5731 13.3199 8.89819 13.4455 9.20151C13.5711 9.50482 13.7553 9.78042 13.9874 10.0126C14.4563 10.4814 15.0922 10.7448 15.7552 10.7448ZM15.7552 6.2448C16.1508 6.2448 16.5374 6.3621 16.8663 6.58186C17.1952 6.80162 17.4516 7.11398 17.603 7.47943C17.7543 7.84489 17.7939 8.24702 17.7168 8.63498C17.6396 9.02294 17.4491 9.37931 17.1694 9.65901C16.8897 9.93872 16.5333 10.1292 16.1454 10.2064C15.7574 10.2835 15.3553 10.2439 14.9898 10.0926C14.6244 9.94118 14.312 9.68484 14.0923 9.35594C13.8725 9.02704 13.7552 8.64036 13.7552 8.2448C13.7558 7.71455 13.9667 7.2062 14.3417 6.83126C14.7166 6.45632 15.225 6.24541 15.7552 6.2448ZM8.2452 10.7448C8.73965 10.7448 9.223 10.5982 9.63413 10.3235C10.0452 10.0488 10.3657 9.65832 10.5549 9.20151C10.7441 8.74469 10.7936 8.24203 10.6972 7.75707C10.6007 7.27212 10.3626 6.82666 10.013 6.47703C9.66334 6.1274 9.21788 5.8893 8.73293 5.79284C8.24797 5.69637 7.74531 5.74588 7.28849 5.9351C6.83168 6.12432 6.44123 6.44475 6.16653 6.85587C5.89182 7.267 5.7452 7.75035 5.7452 8.2448C5.7452 8.90777 6.00854 9.5436 6.47729 10.0124C6.94605 10.4813 7.58183 10.7447 8.2448 10.7448H8.2452ZM8.2452 6.2448C8.64076 6.2448 9.02744 6.3621 9.35634 6.58186C9.68524 6.80162 9.94158 7.11398 10.093 7.47943C10.2443 7.84489 10.2839 8.24702 10.2068 8.63498C10.1296 9.02294 9.93912 9.37931 9.65941 9.65901C9.37971 9.93872 9.02334 10.1292 8.63538 10.2064C8.24742 10.2835 7.84529 10.2439 7.47983 10.0926C7.11438 9.94118 6.80202 9.68484 6.58226 9.35594C6.3625 9.02704 6.2452 8.64036 6.2452 8.2448C6.24581 7.71462 6.45666 7.20633 6.83152 6.8314C7.20637 6.45647 7.71462 6.24551 8.2448 6.2448H8.2452ZM8.2452 18.2548C8.73965 18.2548 9.223 18.1082 9.63413 17.8335C10.0452 17.5588 10.3657 17.1683 10.5549 16.7115C10.7441 16.2547 10.7936 15.752 10.6972 15.2671C10.6007 14.7821 10.3626 14.3367 10.013 13.987C9.66334 13.6374 9.21788 13.3993 8.73293 13.3028C8.24797 13.2064 7.74531 13.2559 7.28849 13.4451C6.83168 13.6343 6.44123 13.9548 6.16653 14.3659C5.89182 14.777 5.7452 15.2603 5.7452 15.7548C5.74515 16.0831 5.80976 16.4082 5.93535 16.7115C6.06094 17.0149 6.24504 17.2905 6.47715 17.5227C6.70926 17.7549 6.98483 17.9391 7.28812 18.0647C7.59142 18.1904 7.91649 18.2551 8.2448 18.2552L8.2452 18.2548ZM8.2452 13.7548C8.64076 13.7548 9.02744 13.8721 9.35634 14.0919C9.68524 14.3116 9.94158 14.624 10.093 14.9894C10.2443 15.3549 10.2839 15.757 10.2068 16.145C10.1296 16.5329 9.93912 16.8893 9.65941 17.169C9.37971 17.4487 9.02334 17.6392 8.63538 17.7164C8.24742 17.7935 7.84529 17.7539 7.47983 17.6026C7.11438 17.4512 6.80202 17.1948 6.58226 16.8659C6.3625 16.537 6.2452 16.1504 6.2452 15.7548C6.24591 15.2247 6.45682 14.7165 6.83166 14.3417C7.2065 13.9668 7.71469 13.7559 8.2448 13.7552L8.2452 13.7548ZM15.7552 18.2548C16.2497 18.2548 16.733 18.1082 17.1441 17.8335C17.5552 17.5588 17.8757 17.1683 18.0649 16.7115C18.2541 16.2547 18.3036 15.752 18.2072 15.2671C18.1107 14.7821 17.8726 14.3367 17.523 13.987C17.1733 13.6374 16.7279 13.3993 16.2429 13.3028C15.758 13.2064 15.2553 13.2559 14.7985 13.4451C14.3417 13.6343 13.9512 13.9548 13.6765 14.3659C13.4018 14.777 13.2552 15.2603 13.2552 15.7548C13.2551 16.0831 13.3198 16.4083 13.4454 16.7116C13.571 17.015 13.7551 17.2906 13.9873 17.5228C14.2194 17.755 14.4951 17.9392 14.7984 18.0649C15.1017 18.1905 15.4269 18.2552 15.7552 18.2552V18.2548ZM15.7552 13.7548C16.1508 13.7548 16.5374 13.8721 16.8663 14.0919C17.1952 14.3116 17.4516 14.624 17.603 14.9894C17.7543 15.3549 17.7939 15.757 17.7168 16.145C17.6396 16.5329 17.4491 16.8893 17.1694 17.169C16.8897 17.4487 16.5333 17.6392 16.1454 17.7164C15.7574 17.7935 15.3553 17.7539 14.9898 17.6026C14.6244 17.4512 14.312 17.1948 14.0923 16.8659C13.8725 16.537 13.7552 16.1504 13.7552 15.7548C13.7559 15.2246 13.9669 14.7164 14.3418 14.3415C14.7167 13.9667 15.225 13.7558 15.7552 13.7552V13.7548Z" fill="black"/>
</svg>
