<svg width="24" height="24" viewBox="0 0 24 24" fill="none" xmlns="http://www.w3.org/2000/svg">
<path d="M0 14V20H2V18H22V20H24V14H0ZM6.0163 10.9673C6.16165 10.6766 6.38506 10.4322 6.66151 10.2613C6.93796 10.0905 7.25652 10 7.5815 10H8.6424C8.96738 10 9.28594 10.0905 9.56239 10.2613C9.83884 10.4322 10.0623 10.6766 10.2076 10.9673L10.7239 12H13.2761L13.7924 10.9673C13.9377 10.6766 14.1612 10.4322 14.4376 10.2613C14.7141 10.0905 15.0326 10 15.3576 10H16.4185C16.7435 10 17.062 10.0905 17.3385 10.2613C17.6149 10.4322 17.8384 10.6766 17.9837 10.9673L18.5 12H22V7C22 6.46957 21.7893 5.96086 21.4142 5.58579C21.0391 5.21071 20.5304 5 20 5H4C3.46957 5 2.96086 5.21071 2.58579 5.58579C2.21071 5.96086 2 6.46957 2 7V12H5.5L6.0163 10.9673Z" fill="black"/>
</svg>
