<svg width="24" height="24" viewBox="0 0 24 24" fill="none" xmlns="http://www.w3.org/2000/svg">
<path d="M20 12V7C20 6.46957 19.7893 5.96086 19.4142 5.58579C19.0391 5.21071 18.5304 5 18 5H6C5.46957 5 4.96086 5.21071 4.58579 5.58579C4.21071 5.96086 4 6.46957 4 7V12H2V20H4V18H20V20H22V12H20ZM6 7H18V12H17.1494L16.6331 10.9673C16.4878 10.6766 16.2643 10.4322 15.9879 10.2613C15.7114 10.0905 15.3929 10 15.0679 10H14.5955C14.2705 10 13.952 10.0905 13.6755 10.2613C13.3991 10.4322 13.1756 10.6766 13.0303 10.9673L12.5139 12H11.4861L10.97 10.9673C10.8246 10.6766 10.6012 10.4321 10.3247 10.2613C10.0482 10.0904 9.72953 9.99995 9.4045 10H8.9321C8.60712 10 8.28856 10.0905 8.01211 10.2613C7.73566 10.4322 7.51225 10.6766 7.3669 10.9673L6.8506 12H6V7ZM4 16V14H20V16H4Z" fill="black"/>
</svg>
