<svg width="24" height="24" viewBox="0 0 24 24" fill="none" xmlns="http://www.w3.org/2000/svg">
<path d="M20 9.0494V6C20 5.20435 19.6839 4.44129 19.1213 3.87868C18.5587 3.31607 17.7956 3 17 3H7C6.20435 3 5.44129 3.31607 4.87868 3.87868C4.31607 4.44129 4 5.20435 4 6V9.0494C3.43608 9.16247 2.92871 9.46731 2.56412 9.91212C2.19952 10.3569 2.00019 10.9143 2 11.4894V17C2 17.5304 2.21071 18.0391 2.58579 18.4142C2.96086 18.7893 3.46957 19 4 19V21H4.5V19H19.5V21H20V19C20.5304 19 21.0391 18.7893 21.4142 18.4142C21.7893 18.0391 22 17.5304 22 17V11.49C21.9999 10.9148 21.8007 10.3573 21.4361 9.91235C21.0715 9.46742 20.564 9.16249 20 9.0494ZM7 3.5H17C17.6628 3.50074 18.2983 3.76437 18.7669 4.23305C19.2356 4.70173 19.4993 5.33719 19.5 6V9H19.49C18.8296 9 18.1963 9.26234 17.7293 9.7293C17.2623 10.1963 17 10.8296 17 11.49V13H6.9792V11.49C6.97918 10.8316 6.71828 10.2 6.25363 9.7335C5.78897 9.267 5.15842 9.00362 4.5 9.001V6C4.50074 5.33719 4.76437 4.70173 5.23305 4.23305C5.70173 3.76437 6.33719 3.50074 7 3.5ZM21.5 17C21.4995 17.3977 21.3414 17.779 21.0602 18.0602C20.779 18.3414 20.3977 18.4995 20 18.5H4C3.60231 18.4995 3.22104 18.3414 2.93984 18.0602C2.65863 17.779 2.50045 17.3977 2.5 17V11.49C2.51044 10.9692 2.72465 10.4733 3.09663 10.1087C3.46862 9.74412 3.96873 9.5399 4.4896 9.5399C5.01047 9.5399 5.51058 9.74412 5.88257 10.1087C6.25455 10.4733 6.46876 10.9692 6.4792 11.49V13.5H17.5V11.49C17.5005 10.9624 17.7103 10.4565 18.0834 10.0834C18.4565 9.71029 18.9624 9.50048 19.49 9.5H19.51C20.0376 9.50048 20.5435 9.71029 20.9166 10.0834C21.2897 10.4565 21.4995 10.9624 21.5 11.49V17Z" fill="black"/>
</svg>
