<svg width="24" height="24" viewBox="0 0 24 24" fill="none" xmlns="http://www.w3.org/2000/svg">
<path d="M18.7435 11.6147L18.5172 10.4025C18.4726 10.1646 18.3463 9.94971 18.16 9.79505C17.9737 9.64039 17.7393 9.55567 17.4972 9.55555H9.29721L7.14091 1.50675C7.07631 1.26576 6.934 1.05283 6.73606 0.900954C6.53812 0.749081 6.2956 0.666757 6.04611 0.666748H4.88611L6.60401 10.3981C6.69129 10.8855 6.92223 11.3357 7.26718 11.691C7.61214 12.0462 8.05538 12.2902 8.54001 12.3917L6.05441 21.6666H7.02161L7.89621 18.4018L11.9991 16.0328L16.1024 18.4018L16.9772 21.6666H17.9443L15.3315 11.9146L18.7435 11.6147ZM8.21351 17.2184L8.99561 14.2984L11.1332 15.5325L8.21351 17.2184ZM9.22771 13.4323L9.49551 12.4323L14.3871 11.9977L14.7714 13.4319L11.9995 15.0319L9.22771 13.4323ZM12.8659 15.5323L15.0035 14.2981L15.7858 17.2181L12.8659 15.5323Z" fill="black"/>
</svg>
