<svg width="24" height="24" viewBox="0 0 24 24" fill="none" xmlns="http://www.w3.org/2000/svg">
<path d="M16 1H8C7.20435 1 6.44129 1.31607 5.87868 1.87868C5.31607 2.44129 5 3.20435 5 4V23H19V4C19 3.20435 18.6839 2.44129 18.1213 1.87868C17.5587 1.31607 16.7956 1 16 1ZM17 21H7V11H17V21ZM17 9H7V4C7.00029 3.73487 7.10574 3.48069 7.29321 3.29321C7.48069 3.10574 7.73487 3.00029 8 3H16C16.2651 3.00029 16.5193 3.10574 16.7068 3.29321C16.8943 3.48069 16.9997 3.73487 17 4V9ZM11 5H9V7H11C11.2652 7 11.5196 6.89464 11.7071 6.70711C11.8946 6.51957 12 6.26522 12 6C12 5.73478 11.8946 5.48043 11.7071 5.29289C11.5196 5.10536 11.2652 5 11 5ZM12 14C12 13.7348 11.8946 13.4804 11.7071 13.2929C11.5196 13.1054 11.2652 13 11 13H9V15H11C11.2652 15 11.5196 14.8946 11.7071 14.7071C11.8946 14.5196 12 14.2652 12 14Z" fill="black"/>
</svg>
