<svg width="24" height="24" viewBox="0 0 24 24" fill="none" xmlns="http://www.w3.org/2000/svg">
<path d="M17.875 19H13.5V14.25L19.8771 13.6848L19.5333 11.8124C19.4739 11.4906 19.3037 11.1998 19.0522 10.9905C18.8007 10.7811 18.4838 10.6665 18.1566 10.6665H15.2353L15.8372 9.0129C15.9197 8.7863 15.9463 8.54317 15.9148 8.3041C15.8833 8.06504 15.7946 7.83709 15.6563 7.63957C15.518 7.44206 15.3341 7.2808 15.1202 7.16946C14.9063 7.05813 14.6687 7 14.4276 7H9.4853L8.4238 3.0377C8.34405 2.74 8.16829 2.47694 7.92378 2.28932C7.67928 2.1017 7.3797 2 7.0715 2H5.1134L6.9206 12.2062C7.03795 12.8688 7.38477 13.469 7.90027 13.9016C8.41577 14.3341 9.06706 14.5715 9.74 14.572C9.8245 14.572 9.91 14.5683 9.9954 14.5607L12.5005 14.3387V19H8.125C7.82833 19 7.53832 19.088 7.29165 19.2528C7.04497 19.4176 6.85272 19.6519 6.73918 19.926C6.62565 20.2001 6.59595 20.5017 6.65383 20.7926C6.7117 21.0836 6.85456 21.3509 7.06434 21.5607C7.27412 21.7704 7.5414 21.9133 7.83237 21.9712C8.12334 22.0291 8.42494 21.9993 8.69903 21.8858C8.97312 21.7723 9.20739 21.58 9.37221 21.3334C9.53703 21.0867 9.625 20.7967 9.625 20.5C9.62338 20.3293 9.59233 20.1601 9.5332 20H16.4668C16.4077 20.1601 16.3766 20.3293 16.375 20.5C16.375 20.7967 16.463 21.0867 16.6278 21.3334C16.7926 21.58 17.0269 21.7723 17.301 21.8858C17.5751 21.9993 17.8767 22.0291 18.1676 21.9712C18.4586 21.9133 18.7259 21.7704 18.9357 21.5607C19.1454 21.3509 19.2883 21.0836 19.3462 20.7926C19.4041 20.5017 19.3744 20.2001 19.2608 19.926C19.1473 19.6519 18.955 19.4176 18.7084 19.2528C18.4617 19.088 18.1717 19 17.875 19ZM14.4276 8C14.508 7.99998 14.5872 8.01934 14.6585 8.05644C14.7298 8.09355 14.7912 8.1473 14.8373 8.21315C14.8834 8.27899 14.913 8.35499 14.9235 8.43469C14.934 8.51439 14.9251 8.59546 14.8976 8.671L14.1712 10.6666H10.4677L9.7532 8H14.4276ZM7.0715 3C7.15954 3.00001 7.24511 3.02906 7.31495 3.08265C7.38479 3.13624 7.435 3.21137 7.4578 3.2964L8.45 7H7.0143L6.306 3H7.0715ZM9.9065 13.5646C9.8505 13.5696 9.7947 13.572 9.7395 13.572C9.30143 13.5722 8.87732 13.4179 8.54182 13.1362C8.20632 12.8545 7.98092 12.4635 7.9053 12.032L7.1913 8H8.718L9.5017 10.9254L9.7003 11.6666H18.1566C18.2499 11.6666 18.3403 11.6993 18.4121 11.7589C18.4839 11.8185 18.5326 11.9014 18.5497 11.9931L18.6953 12.7858L9.9065 13.5646ZM8.625 20.5C8.625 20.5989 8.59568 20.6956 8.54074 20.7778C8.4858 20.86 8.40771 20.9241 8.31634 20.9619C8.22498 20.9998 8.12445 21.0097 8.02746 20.9904C7.93047 20.9711 7.84138 20.9235 7.77145 20.8536C7.70152 20.7836 7.6539 20.6945 7.63461 20.5975C7.61532 20.5006 7.62522 20.4 7.66306 20.3087C7.70091 20.2173 7.76499 20.1392 7.84722 20.0843C7.92944 20.0293 8.02611 20 8.125 20C8.25756 20.0002 8.38465 20.0529 8.47838 20.1466C8.57212 20.2404 8.62484 20.3674 8.625 20.5ZM17.875 21C17.7761 21 17.6794 20.9707 17.5972 20.9157C17.515 20.8608 17.4509 20.7827 17.4131 20.6913C17.3752 20.6 17.3653 20.4994 17.3846 20.4025C17.4039 20.3055 17.4515 20.2164 17.5215 20.1464C17.5914 20.0765 17.6805 20.0289 17.7775 20.0096C17.8744 19.9903 17.975 20.0002 18.0663 20.0381C18.1577 20.0759 18.2358 20.14 18.2907 20.2222C18.3457 20.3044 18.375 20.4011 18.375 20.5C18.3748 20.6326 18.3221 20.7596 18.2284 20.8534C18.1346 20.9471 18.0076 20.9998 17.875 21Z" fill="black"/>
</svg>
