<svg width="24" height="24" viewBox="0 0 24 24" fill="none" xmlns="http://www.w3.org/2000/svg">
<path d="M6.21863 22H7.22863L7.80003 18H15.78L16.3515 22H17.3615L16.7901 18H18V17H16.6481L15.6481 10H17.3334V8.1066C17.3334 7.72469 17.1817 7.35842 16.9117 7.08837C16.6416 6.81831 16.2753 6.6666 15.8934 6.6666H11.1042L9.39863 1.8853C9.30618 1.62621 9.13586 1.40205 8.91102 1.24356C8.68618 1.08506 8.41782 0.99999 8.14273 1H6.41273L7.96273 9.7889L6.21863 22ZM8.94293 10H14.6377L15.6377 17H7.94313L8.94293 10Z" fill="black"/>
</svg>
