<svg width="24" height="24" viewBox="0 0 24 24" fill="none" xmlns="http://www.w3.org/2000/svg">
<path d="M18.275 19.8C18.0574 19.8 17.8448 19.8645 17.6639 19.9854C17.483 20.1063 17.342 20.278 17.2587 20.479C17.1755 20.68 17.1537 20.9012 17.1961 21.1146C17.2386 21.328 17.3433 21.524 17.4972 21.6778C17.651 21.8317 17.847 21.9364 18.0604 21.9789C18.2738 22.0213 18.4949 21.9995 18.6959 21.9163C18.8969 21.833 19.0687 21.692 19.1896 21.5111C19.3105 21.3302 19.375 21.1176 19.375 20.9C19.375 20.6083 19.2591 20.3285 19.0528 20.1222C18.8465 19.9159 18.5667 19.8 18.275 19.8ZM7.72499 19.8C7.50743 19.8 7.29476 19.8645 7.11386 19.9854C6.93297 20.1063 6.79198 20.278 6.70872 20.479C6.62547 20.68 6.60368 20.9012 6.64613 21.1146C6.68857 21.328 6.79333 21.524 6.94717 21.6778C7.10101 21.8317 7.29701 21.9364 7.51039 21.9789C7.72377 22.0213 7.94494 21.9995 8.14594 21.9163C8.34694 21.833 8.51874 21.692 8.63961 21.5111C8.76048 21.3302 8.82499 21.1176 8.82499 20.9C8.82499 20.6083 8.7091 20.3285 8.50281 20.1222C8.29652 19.9159 8.01673 19.8 7.72499 19.8ZM9.29619 15.2725C9.38359 15.2725 9.47162 15.2687 9.56029 15.261L12 15.0475V17H7.99999C7.73477 17 7.48042 17.1054 7.29288 17.2929C7.10535 17.4804 6.99999 17.7348 6.99999 18V19H19V18C19 17.7348 18.8946 17.4804 18.7071 17.2929C18.5196 17.1054 18.2652 17 18 17H14V14.8726L19.9843 14.349L19.4758 11.4853C19.4019 11.069 19.1838 10.692 18.8597 10.4204C18.5356 10.1488 18.1263 9.99999 17.7035 10H15.478L16.0546 8.4156C16.1536 8.14369 16.1855 7.85192 16.1477 7.56504C16.11 7.27815 16.0036 7.0046 15.8376 6.76757C15.6716 6.53054 15.451 6.33701 15.1943 6.2034C14.9376 6.06978 14.6526 6.00001 14.3632 6H9.90739L9.19309 3.3341C9.09053 2.95136 8.86454 2.61316 8.55017 2.37194C8.23581 2.13073 7.85063 1.99999 7.45439 2H4.43689L6.34459 12.7945C6.4672 13.4884 6.83017 14.117 7.36986 14.5701C7.90955 15.0232 8.59152 15.2719 9.29619 15.2725ZM14.3632 7.8L13.5624 10H10.9792L10.3892 7.8H14.3632ZM9.24049 10.4659L9.59799 11.8H17.7035L17.8682 12.7273L9.40339 13.4678C9.36739 13.471 9.33169 13.4725 9.29619 13.4725C9.01441 13.4725 8.74167 13.3731 8.52598 13.1918C8.31029 13.0105 8.1655 12.7589 8.11709 12.4813L7.28999 7.8H8.52619L9.24049 10.4659ZM6.58289 3.8H7.45439L8.04439 6H6.97169L6.58289 3.8Z" fill="black"/>
</svg>
