<svg width="24" height="24" viewBox="0 0 24 24" fill="none" xmlns="http://www.w3.org/2000/svg">
<path d="M2 6V19H3.5V9H22V6H2ZM19.5 11C19.5 11.1326 19.4473 11.2598 19.3536 11.3536C19.2598 11.4473 19.1326 11.5 19 11.5H18C17.8674 11.5 17.7402 11.4473 17.6464 11.3536C17.5527 11.2598 17.5 11.1326 17.5 11V10.5H15V14H22V10.5H19.5V11ZM19.5 16C19.5 16.1326 19.4473 16.2598 19.3536 16.3536C19.2598 16.4473 19.1326 16.5 19 16.5H18C17.8674 16.5 17.7402 16.4473 17.6464 16.3536C17.5527 16.2598 17.5 16.1326 17.5 16V15.5H15V19H22V15.5H19.5V16Z" fill="black"/>
</svg>
