<svg width="24" height="24" viewBox="0 0 24 24" fill="none" xmlns="http://www.w3.org/2000/svg">
<path d="M6.4792 11.99V14.5H17.5V11.99C17.5006 11.3298 17.7632 10.6968 18.23 10.23C18.6968 9.76318 19.3298 9.50064 19.99 9.5H20V6C20 5.20435 19.6839 4.44129 19.1213 3.87868C18.5587 3.31607 17.7956 3 17 3H7C6.20435 3 5.44129 3.31607 4.87868 3.87868C4.31607 4.44129 4 5.20435 4 6V9.501C4.65819 9.50435 5.28832 9.76797 5.75281 10.2343C6.21731 10.7006 6.47844 11.3318 6.4792 11.99ZM20.01 10H19.99C19.4622 10 18.9561 10.2097 18.5829 10.5829C18.2097 10.9561 18 11.4622 18 11.99V15H5.9792V11.99C5.96876 11.4692 5.75455 10.9733 5.38257 10.6087C5.01058 10.2441 4.51047 10.0399 3.9896 10.0399C3.46873 10.0399 2.96862 10.2441 2.59663 10.6087C2.22465 10.9733 2.01044 11.4692 2 11.99V18C2 18.5304 2.21071 19.0391 2.58579 19.4142C2.96086 19.7893 3.46957 20 4 20V22H4.5V20H19.5V22H20V20C20.5304 20 21.0391 19.7893 21.4142 19.4142C21.7893 19.0391 22 18.5304 22 18V11.99C22 11.4622 21.7903 10.9561 21.4171 10.5829C21.0439 10.2097 20.5378 10 20.01 10Z" fill="black"/>
</svg>
