<svg width="24" height="24" viewBox="0 0 24 24" fill="none" xmlns="http://www.w3.org/2000/svg">
<path d="M21.1569 16.5657C20.0422 17.5284 18.7836 18.3105 17.4269 18.8836L15.9777 14H19V10.8C19 10.5636 18.9534 10.3296 18.863 10.1112C18.7725 9.89278 18.6399 9.69435 18.4728 9.52721C18.3056 9.36006 18.1072 9.22748 17.8888 9.13702C17.6704 9.04656 17.4364 9 17.2 9H15.978L15.9666 7.9669C15.9579 7.177 15.638 6.42241 15.0763 5.86694C14.5146 5.31147 13.7565 4.99995 12.9666 5H8.9074L8.1931 2.3341C8.09054 1.95136 7.86455 1.61316 7.55018 1.37194C7.23582 1.13073 6.85064 0.999991 6.4544 1H3.4369L5.2235 11.1091C5.35203 11.8312 5.70455 12.4946 6.2311 13.0053C6.75766 13.5159 7.43155 13.8479 8.1573 13.9542L6.8088 18.9865C5.36206 18.4045 4.02196 17.5865 2.8431 16.5657L1.53 18.0806C4.43255 20.608 8.15133 22.0001 12 22.0001C15.8487 22.0001 19.5675 20.608 22.47 18.0806L21.1569 16.5657ZM14.1669 7.9868L14.1779 9H9.9792L9.39 6.8H12.967C13.2826 6.80112 13.5852 6.92611 13.8095 7.14808C14.0339 7.37004 14.1622 7.67122 14.1667 7.9868H14.1669ZM6.4544 2.8L7.0444 5H5.9717L5.5829 2.8H6.4544ZM6.996 10.7958L6.29 6.8H7.5262L8.2405 9.4659L8.598 10.8H17.2V12.2H8.67C8.27032 12.2004 7.8833 12.0598 7.57708 11.803C7.27087 11.5461 7.0651 11.1895 6.996 10.7958ZM8.5217 19.5484L10.0084 14H14.101L15.731 19.4892C13.376 20.1496 10.8875 20.17 8.522 19.5484H8.5217Z" fill="black"/>
</svg>
