<svg width="24" height="24" viewBox="0 0 24 24" fill="none" xmlns="http://www.w3.org/2000/svg">
<path d="M0 14V20H0.5V18H23.5V20H24V14H0ZM6.0163 12.4673C6.16165 12.1766 6.38506 11.9322 6.66151 11.7613C6.93796 11.5905 7.25652 11.5 7.5815 11.5H8.6424C8.96738 11.5 9.28594 11.5905 9.56239 11.7613C9.83884 11.9322 10.0623 12.1766 10.2076 12.4673L10.7239 13.5H13.2761L13.7924 12.4673C13.9377 12.1766 14.1612 11.9322 14.4376 11.7613C14.7141 11.5905 15.0326 11.5 15.3576 11.5H16.4185C16.7435 11.5 17.062 11.5905 17.3385 11.7613C17.6149 11.9322 17.8384 12.1766 17.9837 12.4673L18.5 13.5H22V8C22 7.46957 21.7893 6.96086 21.4142 6.58579C21.0391 6.21071 20.5304 6 20 6H4C3.46957 6 2.96086 6.21071 2.58579 6.58579C2.21071 6.96086 2 7.46957 2 8V13.5H5.5L6.0163 12.4673Z" fill="black"/>
</svg>
