<svg width="24" height="24" viewBox="0 0 24 24" fill="none" xmlns="http://www.w3.org/2000/svg">
<path d="M20 12V7C20 6.46957 19.7893 5.96086 19.4142 5.58579C19.0391 5.21071 18.5304 5 18 5H6C5.46957 5 4.96086 5.21071 4.58579 5.58579C4.21071 5.96086 4 6.46957 4 7V12H2V20H22V12H20ZM5 7C5.00029 6.73487 5.10574 6.48069 5.29321 6.29321C5.48069 6.10574 5.73487 6.00029 6 6H18C18.2651 6.00029 18.5193 6.10574 18.7068 6.29321C18.8943 6.48069 18.9997 6.73487 19 7V12H18.2191L17.6891 10.94C17.548 10.6577 17.331 10.4202 17.0626 10.2541C16.7941 10.0881 16.4847 10.0001 16.1691 10H14.473C14.1573 10 13.8478 10.088 13.5792 10.254C13.3107 10.42 13.0937 10.6576 12.9525 10.94L12.4225 12H11.5779L11.0479 10.94C10.9067 10.6575 10.6896 10.4199 10.421 10.2539C10.1524 10.0879 9.8428 9.99996 9.527 10H7.8315C7.51577 10 7.20628 10.088 6.93772 10.254C6.66917 10.42 6.45215 10.6576 6.311 10.94L5.7809 12H5V7ZM17.1011 12H13.54L13.8466 11.387C13.9044 11.2704 13.9937 11.1723 14.1044 11.1039C14.2152 11.0355 14.3428 10.9995 14.473 11H16.1685C16.2986 10.9996 16.4262 11.0356 16.5369 11.104C16.6475 11.1724 16.7368 11.2704 16.7946 11.387L17.1011 12ZM10.46 12H6.8989L7.2054 11.387C7.26318 11.2704 7.35246 11.1724 7.46313 11.104C7.57379 11.0356 7.7014 10.9996 7.8315 11H9.527C9.6571 10.9996 9.78472 11.0356 9.89538 11.104C10.006 11.1724 10.0953 11.2704 10.1531 11.387L10.46 12ZM21 19H3V13H21V19ZM10.0908 16.4111C10.641 16.8256 11.3111 17.0498 12 17.0498C12.6889 17.0498 13.359 16.8256 13.9092 16.4111C14.2923 16.1124 14.7642 15.9502 15.25 15.9502C15.7358 15.9502 16.2077 16.1124 16.5908 16.4111C17.1461 16.8159 17.8129 17.039 18.5 17.05V16.05C18.0159 16.0399 17.5471 15.8788 17.1592 15.5891C16.609 15.1746 15.9389 14.9504 15.25 14.9504C14.5611 14.9504 13.891 15.1746 13.3408 15.5891C12.959 15.8908 12.4866 16.0549 12 16.0549C11.5134 16.0549 11.041 15.8908 10.6592 15.5891C10.1082 15.1764 9.43839 14.9533 8.75 14.9533C8.06161 14.9533 7.39175 15.1764 6.8408 15.5891C6.45286 15.8788 5.98406 16.0399 5.5 16.05V17.05C6.18704 17.0391 6.85389 16.816 7.4092 16.4113C7.79097 16.1096 8.26335 15.9454 8.74997 15.9454C9.23658 15.9453 9.70899 16.1094 10.0908 16.4111Z" fill="black"/>
</svg>
