<svg width="24" height="24" viewBox="0 0 24 24" fill="none" xmlns="http://www.w3.org/2000/svg">
<path d="M20 10H11.6276L10.8476 8.44C10.7064 8.15754 10.4894 7.91999 10.2208 7.75396C9.9522 7.58793 9.64267 7.49999 9.3269 7.5H7.6314C7.31567 7.50003 7.00618 7.58799 6.73762 7.75401C6.46907 7.92004 6.25205 8.15757 6.1109 8.44L5.3307 10H4C3.46957 10 2.96086 10.2107 2.58579 10.5858C2.21071 10.9609 2 11.4696 2 12V14C2 14.5304 2.21071 15.0391 2.58579 15.4142C2.96086 15.7893 3.46957 16 4 16H20C20.5304 16 21.0391 15.7893 21.4142 15.4142C21.7893 15.0391 22 14.5304 22 14V12C22 11.4696 21.7893 10.9609 21.4142 10.5858C21.0391 10.2107 20.5304 10 20 10ZM6.5581 8.6633C6.65718 8.46351 6.81024 8.29548 6.99994 8.17824C7.18965 8.06101 7.4084 7.99926 7.6314 8H9.3269C9.54987 7.9993 9.76858 8.06106 9.95824 8.17829C10.1479 8.29553 10.3009 8.46354 10.4 8.6633L11.0685 10H5.89L6.5581 8.6633ZM21.5 14C21.4995 14.3977 21.3414 14.779 21.0602 15.0602C20.779 15.3414 20.3977 15.4995 20 15.5H4C3.60231 15.4995 3.22104 15.3414 2.93984 15.0602C2.65863 14.779 2.50045 14.3977 2.5 14V12C2.50045 11.6023 2.65863 11.221 2.93984 10.9398C3.22104 10.6586 3.60231 10.5004 4 10.5H20C20.3977 10.5004 20.779 10.6586 21.0602 10.9398C21.3414 11.221 21.4995 11.6023 21.5 12V14ZM18.5 12C18.3022 12 18.1089 12.0586 17.9444 12.1685C17.78 12.2784 17.6518 12.4346 17.5761 12.6173C17.5004 12.8 17.4806 13.0011 17.5192 13.1951C17.5578 13.3891 17.653 13.5673 17.7929 13.7071C17.9327 13.847 18.1109 13.9422 18.3049 13.9808C18.4989 14.0194 18.7 13.9996 18.8827 13.9239C19.0654 13.8482 19.2216 13.72 19.3315 13.5556C19.4414 13.3911 19.5 13.1978 19.5 13C19.5 12.7348 19.3946 12.4804 19.2071 12.2929C19.0196 12.1054 18.7652 12 18.5 12ZM18.5 13.5C18.4011 13.5 18.3044 13.4707 18.2222 13.4157C18.14 13.3608 18.0759 13.2827 18.0381 13.1913C18.0002 13.1 17.9903 12.9994 18.0096 12.9025C18.0289 12.8055 18.0765 12.7164 18.1464 12.6464C18.2164 12.5765 18.3055 12.5289 18.4025 12.5096C18.4994 12.4903 18.6 12.5002 18.6913 12.5381C18.7827 12.5759 18.8608 12.64 18.9157 12.7222C18.9707 12.8044 19 12.9011 19 13C18.9998 13.1326 18.9471 13.2596 18.8534 13.3534C18.7596 13.4471 18.6326 13.4998 18.5 13.5Z" fill="black"/>
</svg>
