<svg width="24" height="24" viewBox="0 0 24 24" fill="none" xmlns="http://www.w3.org/2000/svg">
<path d="M19 11V8.00005C19 7.46962 18.7893 6.96091 18.4142 6.58584C18.0391 6.21076 17.5304 6.00005 17 6.00005C16.4696 6.00005 15.9609 6.21076 15.5858 6.58584C15.2107 6.96091 15 7.46962 15 8.00005V9.00005H15.5V8.00005C15.5 7.60222 15.658 7.22069 15.9393 6.93939C16.2206 6.65808 16.6022 6.50005 17 6.50005C17.3978 6.50005 17.7794 6.65808 18.0607 6.93939C18.342 7.22069 18.5 7.60222 18.5 8.00005V11H3V21H21V11H19ZM11.75 20.5H3.5V11.5H11.75V20.5ZM20.5 20.5H12.25V15.25H20.5V20.5ZM20.5 14.75H12.25V11.5H20.5V14.75ZM12.5 7.32155L10.6 5.42155V2.30005H4.9V5.42165L3 7.32155V8.00005H12.5V7.32155ZM3.5287 7.50005L5.4 5.62875V2.80005H10.1V5.62875L11.9713 7.50005H3.5287Z" fill="black"/>
</svg>
