<svg width="24" height="24" viewBox="0 0 24 24" fill="none" xmlns="http://www.w3.org/2000/svg">
<path d="M4 10V7C4.00061 6.46975 4.21152 5.9614 4.58646 5.58646C4.9614 5.21152 5.46975 5.00061 6 5H10V4H6C5.20462 4.00087 4.44206 4.31722 3.87964 4.87964C3.31722 5.44206 3.00087 6.20462 3 7V21H4V19H20V21H21V10H4ZM7.25 17H4V11H7.25V17ZM11.5 17H8.25V11H11.5V17ZM15.75 17H12.5V11H15.75V17ZM20 17H16.75V11H20V17ZM11.2 7.6C11.3582 7.6 11.5129 7.55308 11.6445 7.46518C11.776 7.37727 11.8786 7.25233 11.9391 7.10615C11.9997 6.95997 12.0155 6.79911 11.9846 6.64393C11.9538 6.48874 11.8776 6.3462 11.7657 6.23431C11.6538 6.12243 11.5113 6.04624 11.3561 6.01537C11.2009 5.9845 11.04 6.00035 10.8939 6.0609C10.7477 6.12145 10.6227 6.22398 10.5348 6.35554C10.4469 6.4871 10.4 6.64178 10.4 6.8C10.4 7.01217 10.4843 7.21566 10.6343 7.36569C10.7843 7.51571 10.9878 7.6 11.2 7.6ZM8 6.8C8 6.95823 8.04692 7.1129 8.13482 7.24446C8.22273 7.37602 8.34767 7.47855 8.49385 7.5391C8.64003 7.59965 8.80089 7.6155 8.95607 7.58463C9.11126 7.55376 9.2538 7.47757 9.36569 7.36569C9.47757 7.2538 9.55376 7.11126 9.58463 6.95607C9.6155 6.80089 9.59965 6.64003 9.5391 6.49385C9.47855 6.34767 9.37602 6.22273 9.24446 6.13482C9.1129 6.04692 8.95823 6 8.8 6C8.58783 6 8.38434 6.08429 8.23431 6.23431C8.08429 6.38434 8 6.58783 8 6.8Z" fill="black"/>
</svg>
