<svg width="24" height="24" viewBox="0 0 24 24" fill="none" xmlns="http://www.w3.org/2000/svg">
<path d="M13 4C13 3.80222 12.9414 3.60888 12.8315 3.44443C12.7216 3.27998 12.5654 3.15181 12.3827 3.07612C12.2 3.00043 11.9989 2.98063 11.8049 3.01922C11.6109 3.0578 11.4327 3.15304 11.2929 3.29289C11.153 3.43275 11.0578 3.61093 11.0192 3.80491C10.9806 3.99889 11.0004 4.19996 11.0761 4.38268C11.1518 4.56541 11.28 4.72159 11.4444 4.83147C11.6089 4.94135 11.8022 5 12 5C12.2652 5 12.5196 4.89464 12.7071 4.70711C12.8946 4.51957 13 4.26522 13 4ZM0 18.5V20H24V18.5H0ZM22 15C22 12.3478 20.9464 9.8043 19.0711 7.92893C17.1957 6.05357 14.6522 5 12 5C9.34784 5 6.8043 6.05357 4.92893 7.92893C3.05357 9.8043 2 12.3478 2 15V16H22V15ZM3.5145 14.5C3.6411 12.3353 4.59025 10.3008 6.16769 8.8129C7.74513 7.32502 9.83157 6.49628 12 6.49628C14.1684 6.49628 16.2549 7.32502 17.8323 8.8129C19.4097 10.3008 20.3589 12.3353 20.4855 14.5H3.5145Z" fill="black"/>
</svg>
