<svg width="24" height="24" viewBox="0 0 24 24" fill="none" xmlns="http://www.w3.org/2000/svg">
<path d="M18.275 19.8C18.0574 19.8 17.8448 19.8645 17.6639 19.9854C17.483 20.1063 17.342 20.278 17.2587 20.479C17.1755 20.68 17.1537 20.9012 17.1961 21.1146C17.2386 21.328 17.3433 21.524 17.4972 21.6778C17.651 21.8317 17.847 21.9364 18.0604 21.9789C18.2738 22.0213 18.4949 21.9995 18.6959 21.9163C18.8969 21.833 19.0687 21.692 19.1896 21.5111C19.3105 21.3302 19.375 21.1176 19.375 20.9C19.375 20.6083 19.2591 20.3285 19.0528 20.1222C18.8465 19.9159 18.5667 19.8 18.275 19.8ZM7.72499 19.8C7.50743 19.8 7.29475 19.8645 7.11386 19.9854C6.93296 20.1063 6.79197 20.278 6.70872 20.479C6.62546 20.68 6.60368 20.9012 6.64612 21.1146C6.68857 21.328 6.79333 21.524 6.94717 21.6778C7.10101 21.8317 7.29701 21.9364 7.51039 21.9789C7.72377 22.0213 7.94494 21.9995 8.14594 21.9163C8.34694 21.833 8.51873 21.692 8.6396 21.5111C8.76047 21.3302 8.82499 21.1176 8.82499 20.9C8.82499 20.6083 8.70909 20.3285 8.5028 20.1222C8.29651 19.9159 8.01672 19.8 7.72499 19.8ZM9.51779 14.9223C9.60379 14.9223 9.69045 14.9185 9.77778 14.9108L12.2502 14.6932V17.5H7.83329C7.72385 17.5 7.6155 17.5216 7.5144 17.5634C7.41329 17.6053 7.32143 17.6667 7.24405 17.7441C7.16667 17.8214 7.10529 17.9133 7.06342 18.0144C7.02154 18.1155 6.99999 18.2239 6.99999 18.3333V19H19V18.3333C19 18.2239 18.9784 18.1155 18.9366 18.0144C18.8947 17.9133 18.8333 17.8214 18.7559 17.7441C18.6785 17.6667 18.5867 17.6053 18.4856 17.5634C18.3845 17.5216 18.2761 17.5 18.1667 17.5H13.75V14.5611L19.9307 14.017L19.5045 11.6489C19.4378 11.2799 19.2437 10.946 18.9559 10.7055C18.6681 10.465 18.305 10.3333 17.93 10.3333H15.3566L16.0546 8.4156C16.1535 8.14369 16.1855 7.85192 16.1477 7.56504C16.11 7.27815 16.0036 7.0046 15.8376 6.76757C15.6716 6.53054 15.451 6.33701 15.1943 6.2034C14.9376 6.06978 14.6525 6.00001 14.3632 6H9.56239L8.80839 3.1859C8.71723 2.84568 8.51635 2.54505 8.23692 2.33063C7.95748 2.11622 7.6151 2 7.26289 2H4.77509L6.63259 12.5C6.75248 13.1783 7.1073 13.7927 7.63484 14.2356C8.16238 14.6785 8.82898 14.9216 9.51779 14.9223ZM14.3632 7.5C14.4114 7.5 14.4589 7.51163 14.5017 7.5339C14.5445 7.55617 14.5813 7.58842 14.6089 7.62793C14.6366 7.66743 14.6543 7.71303 14.6606 7.76084C14.6669 7.80865 14.6616 7.85728 14.6451 7.9026L13.76 10.3333H10.723L9.96429 7.5H14.3632ZM8.41128 7.5L9.57229 11.833H17.93C17.9537 11.833 17.9767 11.8413 17.995 11.8564C18.0133 11.8716 18.0256 11.8927 18.03 11.916L18.1648 12.666L9.64619 13.417C9.60229 13.4209 9.56029 13.4219 9.51829 13.4219C9.1818 13.4224 8.85594 13.3041 8.59825 13.0877C8.34057 12.8713 8.16763 12.5708 8.10998 12.2393L7.27199 7.5H8.41128ZM7.26269 3.5C7.28475 3.49988 7.30623 3.5071 7.32374 3.52054C7.34125 3.53397 7.35379 3.55285 7.35939 3.5742L8.00929 6H7.00669L6.56449 3.5H7.26269Z" fill="black"/>
</svg>
