<svg width="24" height="24" viewBox="0 0 24 24" fill="none" xmlns="http://www.w3.org/2000/svg">
<path d="M4 14H2V21H4V19H20V21H22V14H4ZM20 17.2H4V15.8H20V17.2ZM2 3V5H8.2V7.5C8.2 7.68565 8.12625 7.8637 7.99497 7.99497C7.8637 8.12625 7.68565 8.2 7.5 8.2C7.31435 8.2 7.1363 8.12625 7.00503 7.99497C6.87375 7.8637 6.8 7.68565 6.8 7.5V7H5V7.5C5 8.16304 5.26339 8.79893 5.73223 9.26777C6.20107 9.73661 6.83696 10 7.5 10C8.16304 10 8.79893 9.73661 9.26777 9.26777C9.73661 8.79893 10 8.16304 10 7.5V5H16.2V7.5C16.2 7.68565 16.1263 7.8637 15.995 7.99497C15.8637 8.12625 15.6857 8.2 15.5 8.2C15.3143 8.2 15.1363 8.12625 15.005 7.99497C14.8737 7.8637 14.8 7.68565 14.8 7.5V7H13V7.5C13 8.16304 13.2634 8.79893 13.7322 9.26777C14.2011 9.73661 14.837 10 15.5 10C16.163 10 16.7989 9.73661 17.2678 9.26777C17.7366 8.79893 18 8.16304 18 7.5V5H22V3H2Z" fill="black"/>
</svg>
