<svg width="24" height="24" viewBox="0 0 24 24" fill="none" xmlns="http://www.w3.org/2000/svg">
<path d="M20 13.5V8C20 7.46957 19.7893 6.96086 19.4142 6.58579C19.0391 6.21071 18.5304 6 18 6H6C5.46957 6 4.96086 6.21071 4.58579 6.58579C4.21071 6.96086 4 7.46957 4 8V13.5H2V20H2.5V18H21.5V20H22V13.5H20ZM4.5 8C4.50045 7.60231 4.65863 7.22104 4.93984 6.93984C5.22104 6.65863 5.60231 6.50045 6 6.5H18C18.3977 6.50045 18.779 6.65863 19.0602 6.93984C19.3414 7.22104 19.4995 7.60231 19.5 8V13.5H18.73L17.95 11.94C17.8088 11.6576 17.5918 11.42 17.3232 11.254C17.0547 11.088 16.7451 11 16.4294 11H14.7339C14.4182 11 14.1087 11.088 13.8401 11.254C13.5716 11.42 13.3546 11.6576 13.2134 11.94L12.4334 13.5H11.5669L10.7869 11.94C10.6457 11.6575 10.4287 11.42 10.16 11.2539C9.89143 11.0879 9.58188 11 9.2661 11H7.5706C7.25485 11 6.94534 11.088 6.67676 11.254C6.40819 11.42 6.19116 11.6576 6.05 11.94L5.27 13.5H4.5V8ZM18.1711 13.5H12.9923L13.6606 12.1633C13.7597 11.9635 13.9127 11.7955 14.1024 11.6782C14.2921 11.561 14.5109 11.4993 14.7339 11.5H16.4294C16.6524 11.4992 16.8712 11.561 17.0609 11.6782C17.2506 11.7954 17.4036 11.9635 17.5027 12.1633L18.1711 13.5ZM11.0078 13.5H5.8289L6.4973 12.1633C6.59636 11.9635 6.74942 11.7954 6.93912 11.6782C7.12883 11.561 7.34759 11.4992 7.5706 11.5H9.2661C9.48911 11.4992 9.70786 11.561 9.89757 11.6782C10.0873 11.7955 10.2403 11.9635 10.3394 12.1633L11.0078 13.5ZM2.5 17.5V14H21.5V17.5H2.5Z" fill="black"/>
</svg>
