<svg width="24" height="24" viewBox="0 0 24 24" fill="none" xmlns="http://www.w3.org/2000/svg">
<path d="M9 2H5V4.5L3 6.5V8H11V6.5L9 4.5V2ZM13 21H21V16H13V21ZM3 21H11V11H3V21ZM20 11V8C20 7.20435 19.6839 6.44129 19.1213 5.87868C18.5587 5.31607 17.7956 5 17 5C16.2044 5 15.4413 5.31607 14.8787 5.87868C14.3161 6.44129 14 7.20435 14 8V9H15.8V8C15.8 7.84241 15.831 7.68637 15.8913 7.54078C15.9516 7.39519 16.04 7.2629 16.1515 7.15147C16.2629 7.04004 16.3952 6.95165 16.5408 6.89134C16.6864 6.83104 16.8424 6.8 17 6.8C17.1576 6.8 17.3136 6.83104 17.4592 6.89134C17.6048 6.95165 17.7371 7.04004 17.8485 7.15147C17.96 7.2629 18.0484 7.39519 18.1087 7.54078C18.169 7.68637 18.2 7.84241 18.2 8V11H13V14H21V11H20Z" fill="black"/>
</svg>
