<svg width="24" height="24" viewBox="0 0 24 24" fill="none" xmlns="http://www.w3.org/2000/svg">
<path d="M20 4V9.26C17.4604 10.2904 14.7236 10.7439 11.9873 10.5878C9.26057 10.7423 6.53332 10.2934 4 9.273V4H2V20H4V13.4029C4.92419 14.6572 6.13074 15.6762 7.52198 16.3775C8.91322 17.0788 10.45 17.4426 12.008 17.4395C13.566 17.4364 15.1014 17.0665 16.4898 16.3597C17.8783 15.6529 19.0808 14.6291 20 13.3712V20H22V4H20ZM11.9873 15.6394C10.5616 15.6382 9.16114 15.2626 7.92614 14.5502C6.69114 13.8378 5.66487 12.8136 4.95 11.58C7.24262 12.198 9.61469 12.4701 11.9877 12.3872C14.3606 12.4701 16.7325 12.198 19.025 11.58C18.3101 12.8136 17.2838 13.8379 16.0487 14.5503C14.8136 15.2627 13.4131 15.6383 11.9873 15.6394Z" fill="black"/>
</svg>
