<svg width="24" height="24" viewBox="0 0 24 24" fill="none" xmlns="http://www.w3.org/2000/svg">
<path d="M13.35 3.65005C13.35 3.38304 13.2708 3.12204 13.1225 2.90003C12.9741 2.67802 12.7633 2.50499 12.5166 2.40281C12.2699 2.30063 11.9985 2.2739 11.7366 2.32599C11.4748 2.37808 11.2342 2.50665 11.0454 2.69546C10.8566 2.88426 10.728 3.1248 10.6759 3.38668C10.6238 3.64855 10.6506 3.91999 10.7528 4.16667C10.8549 4.41335 11.028 4.62419 11.25 4.77253C11.472 4.92087 11.733 5.00005 12 5.00005C12.358 5.00005 12.7014 4.85782 12.9546 4.60464C13.2078 4.35147 13.35 4.00809 13.35 3.65005ZM21 9.00005C21 6.79085 16.9706 5.00005 12 5.00005C7.0294 5.00005 3 6.79085 3 9.00005H1V11H3V21H21V11H23V9.00005H21ZM12 7.00005C16.29 7.00005 18.7072 8.41005 18.9884 9.00005H5.0116C5.2928 8.41005 7.71 7.00005 12 7.00005ZM19 19H5V11H19V19Z" fill="black"/>
</svg>
