<svg width="24" height="24" viewBox="0 0 24 24" fill="none" xmlns="http://www.w3.org/2000/svg">
<path d="M12 2C10.1435 2 8.36301 2.7375 7.05025 4.05025C5.7375 5.36301 5 7.14348 5 9C4.99997 9.95112 5.18728 10.8929 5.55126 11.7716C5.91523 12.6504 6.44874 13.4488 7.1213 14.1213C7.68387 14.6839 7.99993 15.447 8 16.2426V19C8 19.7956 8.31607 20.5587 8.87868 21.1213C9.44129 21.6839 10.2044 22 11 22H13C13.7956 22 14.5587 21.6839 15.1213 21.1213C15.6839 20.5587 16 19.7956 16 19V16.2426C16.0001 15.447 16.3161 14.6839 16.8787 14.1213C17.5513 13.4488 18.0848 12.6504 18.4487 11.7716C18.8127 10.8929 19 9.95112 19 9C19 7.14348 18.2625 5.36301 16.9497 4.05025C15.637 2.7375 13.8565 2 12 2ZM15.5 19C15.4992 19.6628 15.2356 20.2982 14.7669 20.7669C14.2982 21.2356 13.6628 21.4992 13 21.5H11C10.3372 21.4992 9.70176 21.2356 9.23308 20.7669C8.76441 20.2982 8.50077 19.6628 8.5 19V18H15.5V19ZM16.5251 13.7678C16.1991 14.092 15.9406 14.4777 15.7647 14.9025C15.5887 15.3273 15.4988 15.7828 15.5 16.2426V17.5H8.5V16.2426C8.50124 15.7828 8.41127 15.3273 8.23532 14.9025C8.05936 14.4777 7.8009 14.092 7.4749 13.7678C6.84682 13.1431 6.34887 12.4001 6.00987 11.5817C5.67088 10.7633 5.49758 9.88582 5.5 9C5.5 7.27609 6.18482 5.62279 7.40381 4.40381C8.62279 3.18482 10.2761 2.5 12 2.5C13.7239 2.5 15.3772 3.18482 16.5962 4.40381C17.8152 5.62279 18.5 7.27609 18.5 9C18.5024 9.88582 18.3291 10.7633 17.9901 11.5817C17.6511 12.4001 17.1532 13.1431 16.5251 13.7678Z" fill="black"/>
</svg>
