<svg width="24" height="24" viewBox="0 0 24 24" fill="none" xmlns="http://www.w3.org/2000/svg">
<path d="M14 10V9.5H13V8H16.5C16.6326 8 16.7598 7.94732 16.8536 7.85355C16.9473 7.75979 17 7.63261 17 7.5V2.5C17 2.36739 16.9473 2.24021 16.8536 2.14645C16.7598 2.05268 16.6326 2 16.5 2H7.5C7.36739 2 7.24021 2.05268 7.14645 2.14645C7.05268 2.24021 7 2.36739 7 2.5V7.5C7 7.63261 7.05268 7.75979 7.14645 7.85355C7.24021 7.94732 7.36739 8 7.5 8H11V9.5H10V10H3V21H3.5V13H20.5V21H21V10H14ZM7.5 7.5V2.5H16.5V7.5H7.5Z" fill="black"/>
</svg>
