<svg width="24" height="24" viewBox="0 0 24 24" fill="none" xmlns="http://www.w3.org/2000/svg">
<path d="M21.811 17.32C20.439 18.5099 18.8634 19.4422 17.16 20.072L15.5331 14H19V11.3333C19 10.8913 18.8244 10.4674 18.5119 10.1548C18.1993 9.84224 17.7754 9.66663 17.3334 9.6666H14.9921L14.9821 7.9881C14.979 7.45973 14.7669 6.95408 14.3921 6.58157C14.0174 6.20907 13.5105 5.99999 12.9821 6H8.455L7.4463 2.2353C7.35133 1.88091 7.14209 1.56776 6.85101 1.34441C6.55993 1.12106 6.20329 1 5.8364 1H3.4369L5.2235 11.1091C5.3642 11.8996 5.77283 12.6176 6.38067 13.1423C6.98851 13.667 7.75849 13.9663 8.5611 13.99L6.924 20.1C5.18878 19.471 3.58383 18.5287 2.189 17.32L1.5301 18.08C4.43264 20.6074 8.15142 21.9995 12.0001 21.9995C15.8488 21.9995 19.5676 20.6074 22.4701 18.08L21.811 17.32ZM12.9821 7C13.2461 7.00062 13.4992 7.10536 13.6864 7.29146C13.8736 7.47757 13.9799 7.73002 13.9821 7.994L13.9921 9.6666H9.4375L8.723 7H12.9821ZM5.8364 2C5.98311 2.00015 6.12568 2.04863 6.24207 2.13794C6.35846 2.22726 6.44219 2.35243 6.4803 2.4941L7.42 6H5.3361L4.6291 2H5.8364ZM6.2083 10.9351L5.5128 7H7.6877L8.4716 9.9255L8.6702 10.6666H17.3334C17.5101 10.6668 17.6796 10.7372 17.8045 10.8621C17.9295 10.9871 17.9998 11.1566 18 11.3333V13H8.67C8.08225 13.0007 7.5131 12.794 7.06279 12.4162C6.61248 12.0385 6.30989 11.514 6.2083 10.9351ZM7.8756 20.4164L9.5949 14H14.4967L16.2087 20.3884C13.4908 21.1942 10.5988 21.204 7.8756 20.4164Z" fill="black"/>
</svg>
