<svg width="24" height="24" viewBox="0 0 24 24" fill="none" xmlns="http://www.w3.org/2000/svg">
<path d="M20 9.0494V6C20 5.20435 19.6839 4.44129 19.1213 3.87868C18.5587 3.31607 17.7956 3 17 3H7C6.20435 3 5.44129 3.31607 4.87868 3.87868C4.31607 4.44129 4 5.20435 4 6V9.0494C3.43608 9.16247 2.92871 9.46731 2.56412 9.91212C2.19952 10.3569 2.00019 10.9143 2 11.4894V17C2 17.5304 2.21071 18.0391 2.58579 18.4142C2.96086 18.7893 3.46957 19 4 19V21H5V19H19V21H20V19C20.5304 19 21.0391 18.7893 21.4142 18.4142C21.7893 18.0391 22 17.5304 22 17V11.49C21.9999 10.9148 21.8007 10.3573 21.4361 9.91235C21.0715 9.46742 20.564 9.16249 20 9.0494ZM7 4H17C17.5302 4.00061 18.0386 4.21152 18.4135 4.58646C18.7885 4.9614 18.9994 5.46975 19 6V9.0494C18.4361 9.16247 17.9287 9.46731 17.5641 9.91212C17.1995 10.3569 17.0002 10.9143 17 11.4894V13H6.9792V11.49C6.97912 10.9184 6.78236 10.3642 6.42196 9.92046C6.06157 9.47676 5.55947 9.17056 5 9.0533V6C5.00061 5.46975 5.21152 4.9614 5.58646 4.58646C5.9614 4.21152 6.46975 4.00061 7 4ZM21 17C20.9997 17.2651 20.8943 17.5193 20.7068 17.7068C20.5193 17.8943 20.2651 17.9997 20 18H4C3.73487 17.9997 3.48069 17.8943 3.29321 17.7068C3.10574 17.5193 3.00029 17.2651 3 17V11.49C3.00902 11.1009 3.16992 10.7308 3.44829 10.4588C3.72666 10.1868 4.10041 10.0345 4.4896 10.0345C4.87879 10.0345 5.25254 10.1868 5.53091 10.4588C5.80928 10.7308 5.97018 11.1009 5.9792 11.49V14H18V11.49C18.0003 11.0949 18.1574 10.7161 18.4368 10.4368C18.7161 10.1574 19.0949 10.0003 19.49 10H19.51C19.9051 10.0003 20.2839 10.1574 20.5632 10.4368C20.8426 10.7161 20.9997 11.0949 21 11.49V17Z" fill="black"/>
</svg>
