<svg width="24" height="24" viewBox="0 0 24 24" fill="none" xmlns="http://www.w3.org/2000/svg">
<path d="M21 13.5V8C21 7.46957 20.7893 6.96086 20.4142 6.58579C20.0391 6.21071 19.5304 6 19 6H5C4.46957 6 3.96086 6.21071 3.58579 6.58579C3.21071 6.96086 3 7.46957 3 8V13.5H1V20H1.5V18H22.5V20H23V13.5H21ZM3.5 8C3.50045 7.60231 3.65863 7.22104 3.93984 6.93984C4.22104 6.65863 4.60231 6.50045 5 6.5H19C19.3977 6.50045 19.779 6.65863 20.0602 6.93984C20.3414 7.22104 20.4995 7.60231 20.5 8V13.5H18.9593L18.1793 11.94C18.0382 11.6577 17.8212 11.4202 17.5528 11.2541C17.2843 11.0881 16.9749 11.0001 16.6593 11H14.9631C14.6474 11 14.3379 11.088 14.0693 11.254C13.8008 11.42 13.5838 11.6576 13.4426 11.94L12.6626 13.5H11.3376L10.5576 11.94C10.4164 11.6575 10.1994 11.42 9.93079 11.254C9.6622 11.0879 9.35267 11 9.0369 11H7.3414C7.02567 11 6.71618 11.088 6.44762 11.254C6.17907 11.42 5.96205 11.6576 5.8209 11.94L5.0409 13.5H3.5V8ZM18.4 13.5H13.2214L13.8898 12.1633C13.9889 11.9635 14.1419 11.7955 14.3316 11.6782C14.5213 11.561 14.7401 11.4992 14.9631 11.5H16.6586C16.8816 11.4992 17.1004 11.561 17.2901 11.6782C17.4798 11.7955 17.6328 11.9635 17.7319 12.1633L18.4 13.5ZM10.7783 13.5H5.6L6.2683 12.1633C6.36736 11.9635 6.5204 11.7955 6.71006 11.6783C6.89972 11.5611 7.11843 11.4993 7.3414 11.5H9.0369C9.25991 11.4992 9.47866 11.561 9.66837 11.6782C9.85807 11.7955 10.0111 11.9635 10.1102 12.1633L10.7783 13.5ZM1.5 17.5V14H22.5V17.5H1.5Z" fill="black"/>
</svg>
