<svg width="24" height="24" viewBox="0 0 24 24" fill="none" xmlns="http://www.w3.org/2000/svg">
<path d="M6.49999 13.8C5.7682 13.8 5.05284 14.017 4.44438 14.4236C3.83592 14.8302 3.36168 15.408 3.08164 16.0841C2.80159 16.7602 2.72832 17.5042 2.87108 18.2219C3.01385 18.9396 3.36624 19.5989 3.88369 20.1163C4.40115 20.6338 5.06043 20.9862 5.77816 21.129C6.49588 21.2717 7.23983 21.1984 7.91592 20.9184C8.592 20.6384 9.16987 20.1641 9.57643 19.5557C9.98299 18.9472 10.2 18.2318 10.2 17.5C10.2 16.5187 9.81017 15.5776 9.11628 14.8838C8.4224 14.1899 7.48129 13.8 6.49999 13.8ZM6.49999 20.7C5.86709 20.7 5.2484 20.5124 4.72216 20.1608C4.19593 19.8091 3.78578 19.3094 3.54357 18.7246C3.30137 18.1399 3.238 17.4965 3.36148 16.8758C3.48495 16.255 3.78972 15.6848 4.23725 15.2373C4.68478 14.7898 5.25496 14.485 5.8757 14.3615C6.49644 14.2381 7.13985 14.3014 7.72458 14.5436C8.3093 14.7858 8.80907 15.196 9.16069 15.7222C9.51231 16.2485 9.69999 16.8671 9.69999 17.5C9.69901 18.3484 9.36155 19.1618 8.76165 19.7617C8.16175 20.3616 7.34838 20.6991 6.49999 20.7ZM17.5 10.6768C17.9072 10.6768 18.3104 10.5966 18.6866 10.4408C19.0629 10.2849 19.4047 10.0565 19.6926 9.76854C19.9806 9.48059 20.209 9.13874 20.3648 8.76252C20.5206 8.38629 20.6008 7.98306 20.6008 7.57585C20.6008 5.09505 17.5 1.91675 17.5 1.91675C17.5 1.91675 14.3992 5.09505 14.3992 7.57585C14.3992 7.98306 14.4794 8.38629 14.6352 8.76252C14.791 9.13874 15.0194 9.48059 15.3074 9.76854C15.5953 10.0565 15.9371 10.2849 16.3133 10.4408C16.6895 10.5966 17.0928 10.6768 17.5 10.6768ZM17.5022 2.65565C18.4622 3.74235 20.1008 5.93935 20.1008 7.57565C20.1008 7.91719 20.0335 8.25539 19.9028 8.57093C19.7721 8.88647 19.5805 9.17318 19.339 9.41469C19.0975 9.6562 18.8108 9.84777 18.4953 9.97847C18.1797 10.1092 17.8415 10.1764 17.5 10.1764C17.1584 10.1764 16.8202 10.1092 16.5047 9.97847C16.1892 9.84777 15.9025 9.6562 15.6609 9.41469C15.4194 9.17318 15.2279 8.88647 15.0972 8.57093C14.9665 8.25539 14.8992 7.91719 14.8992 7.57565C14.8992 5.80665 16.7153 3.55005 17.5022 2.65565ZM14 14V21H21V14H14ZM20.5 20.5H14.5V14.5H20.5V20.5ZM9.15619 10L10.1562 3.00005H2.84379L3.84379 10H9.15619ZM9.57999 3.50005L8.72289 9.50005H4.27729L3.41999 3.50005H9.57999Z" fill="black"/>
</svg>
