<svg width="24" height="24" viewBox="0 0 24 24" fill="none" xmlns="http://www.w3.org/2000/svg">
<path d="M21.4839 16.943C20.2329 18.0282 18.8062 18.8924 17.2651 19.4987L15.7916 14H19V11.8533C19 11.4502 18.8399 11.0636 18.5548 10.7785C18.2697 10.4934 17.8831 10.3333 17.48 10.3333H15.9823L15.9666 7.9669C15.9579 7.177 15.638 6.42241 15.0763 5.86694C14.5146 5.31147 13.7565 4.99995 12.9666 5H7.4548L6.6748 2.0882C6.59109 1.77598 6.4067 1.50011 6.15023 1.30336C5.89376 1.10661 5.57954 0.999978 5.2563 1H3.4369L5.7344 14H8.3L6.817 19.5345C5.24432 18.9258 3.78912 18.049 2.5161 16.943L1.53 18.0806C4.43255 20.608 8.15133 22.0001 12 22.0001C15.8487 22.0001 19.5675 20.608 22.47 18.0806L21.4839 16.943ZM12.9667 6.5C13.3603 6.50093 13.7378 6.65611 14.0182 6.93223C14.2986 7.20835 14.4597 7.58341 14.4667 7.9769L14.4823 10.3333H8.8838L7.8567 6.5H12.9667ZM8.2467 19.9969L9.8534 14H14.2382L15.84 19.9767C13.3569 20.6674 10.7334 20.6744 8.2467 19.9967V19.9969Z" fill="black"/>
</svg>
