<svg width="24" height="24" viewBox="0 0 24 24" fill="none" xmlns="http://www.w3.org/2000/svg">
<path d="M4.66 22H5.1642L6.5215 12.5H17.4782L18.8356 22H19.34L17.34 8H19V5.5C19 5.10218 18.842 4.72064 18.5607 4.43934C18.2794 4.15804 17.8978 4 17.5 4H6.5C6.10218 4 5.72065 4.15804 5.43934 4.43934C5.15804 4.72064 5 5.10218 5 5.5V8H6.66L4.66 22ZM17.4068 12H6.5931L7.1646 8H16.8353L17.4068 12ZM5.5 7.5V5.5C5.50029 5.23487 5.60575 4.98069 5.79322 4.79321C5.98069 4.60574 6.23488 4.50029 6.5 4.5H17.5C17.7651 4.50029 18.0193 4.60574 18.2068 4.79321C18.3943 4.98069 18.4997 5.23487 18.5 5.5V7.5H5.5Z" fill="black"/>
</svg>
