<svg width="24" height="24" viewBox="0 0 24 24" fill="none" xmlns="http://www.w3.org/2000/svg">
<path d="M12 2.80371L3 7.99991V20.9999H21V7.99991L12 2.80371ZM12.86 15.9999H12.2242V17.0499H11.775V15.9999H9.75V15.4999H12.86C13.1584 15.4999 13.4445 15.3814 13.6555 15.1704C13.8665 14.9594 13.985 14.6733 13.985 14.3749C13.985 14.0765 13.8665 13.7904 13.6555 13.5794C13.4445 13.3684 13.1584 13.2499 12.86 13.2499H11.125C10.694 13.2499 10.2807 13.0787 9.97595 12.774C9.6712 12.4692 9.5 12.0559 9.5 11.6249C9.5 11.1939 9.6712 10.7806 9.97595 10.4759C10.2807 10.1711 10.694 9.99991 11.125 9.99991H11.775V8.94991H12.2242V9.99991H13.9842V10.4999H11.125C10.8266 10.4999 10.5405 10.6184 10.3295 10.8294C10.1185 11.0404 10 11.3265 10 11.6249C10 11.9233 10.1185 12.2094 10.3295 12.4204C10.5405 12.6314 10.8266 12.7499 11.125 12.7499H12.86C13.291 12.7499 13.7043 12.9211 14.009 13.2259C14.3138 13.5306 14.485 13.9439 14.485 14.3749C14.485 14.8059 14.3138 15.2192 14.009 15.524C13.7043 15.8287 13.291 15.9999 12.86 15.9999Z" fill="black"/>
</svg>
