<svg width="24" height="24" viewBox="0 0 24 24" fill="none" xmlns="http://www.w3.org/2000/svg">
<path d="M22 13.5V8C22 7.46957 21.7893 6.96086 21.4142 6.58579C21.0391 6.21071 20.5304 6 20 6H4C3.46957 6 2.96086 6.21071 2.58579 6.58579C2.21071 6.96086 2 7.46957 2 8V13.5H0V20H0.5V18H23.5V20H24V13.5H22ZM2.5 8C2.50045 7.60231 2.65863 7.22104 2.93984 6.93984C3.22104 6.65863 3.60231 6.50045 4 6.5H20C20.3977 6.50045 20.779 6.65863 21.0602 6.93984C21.3414 7.22104 21.4995 7.60231 21.5 8V13.5H19.4673L18.6873 11.94C18.5461 11.6576 18.3291 11.42 18.0605 11.254C17.792 11.088 17.4825 11 17.1667 11H15.4711C15.1554 11 14.8459 11.088 14.5773 11.254C14.3088 11.42 14.0918 11.6576 13.9506 11.94L13.1706 13.5H10.83L10.05 11.94C9.9088 11.6575 9.6917 11.4199 9.42302 11.2539C9.15435 11.0878 8.84474 10.9999 8.5289 11H6.8333C6.51757 11 6.20808 11.088 5.93952 11.254C5.67097 11.42 5.45395 11.6576 5.3128 11.94L4.5328 13.5H2.5V8ZM18.9083 13.5H13.73L14.3983 12.1633C14.4973 11.9636 14.6503 11.7956 14.8399 11.6784C15.0295 11.5611 15.2482 11.4994 15.4711 11.5H17.1667C17.3897 11.4993 17.6085 11.561 17.7982 11.6782C17.9879 11.7955 18.1409 11.9635 18.24 12.1633L18.9083 13.5ZM10.2705 13.5H5.0917L5.76 12.1633C5.85908 11.9635 6.01214 11.7955 6.20184 11.6782C6.39155 11.561 6.6103 11.4993 6.8333 11.5H8.5289C8.7519 11.4993 8.97065 11.561 9.16036 11.6782C9.35006 11.7955 9.50312 11.9635 9.6022 12.1633L10.2705 13.5ZM0.5 17.5V14H23.5V17.5H0.5Z" fill="black"/>
</svg>
