<svg width="24" height="24" viewBox="0 0 24 24" fill="none" xmlns="http://www.w3.org/2000/svg">
<path d="M12 2.80371L3 7.99991V20.9999H21V7.99991L12 2.80371ZM19 18.9999H5V9.15461L12 5.11311L19 9.15461V18.9999ZM11.4 8.94991V9.99991H11.34C11.1003 9.99991 10.863 10.0471 10.6416 10.1388C10.4202 10.2305 10.219 10.365 10.0495 10.5344C9.88006 10.7039 9.74564 10.9051 9.65392 11.1265C9.56221 11.3479 9.515 11.5852 9.515 11.8249C9.515 12.0646 9.56221 12.3019 9.65392 12.5233C9.74564 12.7447 9.88006 12.9459 10.0495 13.1154C10.219 13.2848 10.4202 13.4193 10.6416 13.511C10.863 13.6027 11.1003 13.6499 11.34 13.6499H12.66C12.7967 13.6537 12.9266 13.7107 13.022 13.8087C13.1173 13.9067 13.1707 14.0381 13.1707 14.1749C13.1707 14.3117 13.1173 14.4431 13.022 14.5411C12.9266 14.6392 12.7967 14.6961 12.66 14.6999H9.75V15.9999H11.4V17.0499H12.6V15.9999H12.66C13.144 15.9999 13.6082 15.8076 13.9505 15.4654C14.2927 15.1231 14.485 14.6589 14.485 14.1749C14.485 13.6909 14.2927 13.2267 13.9505 12.8844C13.6082 12.5422 13.144 12.3499 12.66 12.3499H11.34C11.2033 12.3461 11.0734 12.2892 10.978 12.1911C10.8827 12.0931 10.8293 11.9617 10.8293 11.8249C10.8293 11.6881 10.8827 11.5567 10.978 11.4587C11.0734 11.3607 11.2033 11.3037 11.34 11.2999H13.9846V9.99991H12.6V8.94991H11.4Z" fill="black"/>
</svg>
