<svg width="24" height="24" viewBox="0 0 24 24" fill="none" xmlns="http://www.w3.org/2000/svg">
<path d="M19 13.5V8C19 7.46957 18.7893 6.96086 18.4142 6.58579C18.0391 6.21071 17.5304 6 17 6H7C6.46957 6 5.96086 6.21071 5.58579 6.58579C5.21071 6.96086 5 7.46957 5 8V13.5H3V20H3.5V18H20.5V20H21V13.5H19ZM5.5 8C5.50045 7.60231 5.65863 7.22104 5.93984 6.93984C6.22104 6.65863 6.60231 6.50045 7 6.5H17C17.3977 6.50045 17.779 6.65863 18.0602 6.93984C18.3414 7.22104 18.4995 7.60231 18.5 8V13.5H15.1484L14.3684 11.94C14.2272 11.6576 14.0102 11.42 13.7416 11.254C13.4731 11.088 13.1636 11 12.8478 11H11.1522C10.8365 11 10.527 11.088 10.2584 11.254C9.98987 11.42 9.77285 11.6576 9.6317 11.94L8.8517 13.5H5.5V8ZM14.5894 13.5H9.4106L10.0789 12.1633C10.178 11.9635 10.331 11.7955 10.5207 11.6782C10.7104 11.561 10.9292 11.4993 11.1522 11.5H12.8478C13.0708 11.4993 13.2896 11.561 13.4793 11.6782C13.669 11.7955 13.822 11.9635 13.9211 12.1633L14.5894 13.5ZM3.5 17.5V14H20.5V17.5H3.5Z" fill="black"/>
</svg>
