<svg width="24" height="24" viewBox="0 0 24 24" fill="none" xmlns="http://www.w3.org/2000/svg">
<path d="M17.3333 9.6666H10.4375L8.4463 2.2353C8.35134 1.88091 8.14209 1.56776 7.85101 1.34441C7.55993 1.12106 7.20329 1 6.8364 1H4.4364L6.7223 13.9316L5.9668 22.5674L6.9297 22.6514L7.3613 17.7167H18.0333V22H19V11.3333C19 11.1144 18.9569 10.8977 18.8732 10.6955C18.7894 10.4932 18.6666 10.3095 18.5119 10.1547C18.3571 9.99997 18.1734 9.8772 17.9711 9.79344C17.7689 9.70969 17.5522 9.66659 17.3333 9.6666ZM6.8359 2C6.98271 2.00008 7.1254 2.04852 7.24192 2.13783C7.35843 2.22715 7.44228 2.35235 7.4805 2.4941L9.67 10.667H17.333C17.5097 10.667 17.6792 10.7371 17.8043 10.862C17.9293 10.9869 17.9997 11.1563 18 11.333V13H7.5732L5.6289 2H6.8359ZM18.0333 16.75H7.446L7.686 14H18.0333V16.75Z" fill="black"/>
</svg>
