<svg width="24" height="24" viewBox="0 0 24 24" fill="none" xmlns="http://www.w3.org/2000/svg">
<path d="M1 14V20H2.5V18H21.5V20H23V14H1ZM6.6413 11.4673C6.78665 11.1766 7.01006 10.9322 7.28651 10.7613C7.56296 10.5905 7.88152 10.5 8.2065 10.5H9.2674C9.59238 10.5 9.91094 10.5905 10.1874 10.7613C10.4638 10.9322 10.6873 11.1766 10.8326 11.4673L11.3489 12.5H12.6511L13.1674 11.4673C13.3127 11.1766 13.5362 10.9322 13.8126 10.7613C14.0891 10.5905 14.4076 10.5 14.7326 10.5H15.7935C16.1185 10.5 16.437 10.5905 16.7135 10.7613C16.9899 10.9322 17.2134 11.1766 17.3587 11.4673L17.875 12.5H21V7C21 6.46957 20.7893 5.96086 20.4142 5.58579C20.0391 5.21071 19.5304 5 19 5H5C4.46957 5 3.96086 5.21071 3.58579 5.58579C3.21071 5.96086 3 6.46957 3 7V12.5H6.125L6.6413 11.4673Z" fill="black"/>
</svg>
