<svg width="24" height="24" viewBox="0 0 24 24" fill="none" xmlns="http://www.w3.org/2000/svg">
<path d="M6.49999 13.7999C5.7682 13.7999 5.05284 14.0169 4.44438 14.4235C3.83592 14.83 3.36168 15.4079 3.08164 16.084C2.80159 16.7601 2.72832 17.504 2.87108 18.2217C3.01385 18.9395 3.36624 19.5987 3.88369 20.1162C4.40115 20.6337 5.06043 20.986 5.77816 21.1288C6.49588 21.2716 7.23983 21.1983 7.91592 20.9183C8.592 20.6382 9.16987 20.164 9.57643 19.5555C9.98299 18.9471 10.2 18.2317 10.2 17.4999C10.2 16.5186 9.81017 15.5775 9.11628 14.8836C8.4224 14.1897 7.48129 13.7999 6.49999 13.7999ZM17.5 10.6766C17.9072 10.6766 18.3105 10.5964 18.6867 10.4406C19.0629 10.2848 19.4048 10.0564 19.6928 9.76841C19.9807 9.48047 20.2091 9.13862 20.365 8.7624C20.5209 8.38617 20.6011 7.98293 20.6011 7.5757C20.6011 5.0949 17.5 1.9165 17.5 1.9165C17.5 1.9165 14.3989 5.0949 14.3989 7.5757C14.3989 7.98293 14.4791 8.38617 14.635 8.7624C14.7908 9.13862 15.0193 9.48047 15.3072 9.76841C15.5952 10.0564 15.937 10.2848 16.3133 10.4406C16.6895 10.5964 17.0928 10.6766 17.5 10.6766ZM14 13.9999V20.9999H21V13.9999H14ZM9.15619 9.9999L10.1562 2.9999H2.84379L3.84379 9.9999H9.15619Z" fill="black"/>
</svg>
