<svg width="24" height="24" viewBox="0 0 24 24" fill="none" xmlns="http://www.w3.org/2000/svg">
<path d="M5.662 11H6.3333L6.85 9.9673C6.99533 9.67668 7.21869 9.43226 7.49508 9.26142C7.77147 9.09058 8.08997 9.00006 8.4149 9H9.4757C9.8007 8.99998 10.1193 9.09047 10.3957 9.26132C10.6722 9.43216 10.8956 9.67662 11.041 9.9673L11.5573 11H12.4427L12.959 9.9673C13.1044 9.67662 13.3278 9.43216 13.6043 9.26132C13.8807 9.09047 14.1993 8.99998 14.5243 9H15.5851C15.9101 9 16.2286 9.0905 16.5051 9.26134C16.7815 9.43219 17.0049 9.67664 17.1503 9.9673L17.6667 11H18.338C18.5861 10.4791 18.9588 10.0274 19.4231 9.68495C19.8875 9.34248 20.4291 9.11979 21 9.0366V8C21 7.20435 20.6839 6.44129 20.1213 5.87868C19.5587 5.31607 18.7956 5 18 5H6C5.20435 5 4.44129 5.31607 3.87868 5.87868C3.31607 6.44129 3 7.20435 3 8V9.0366C3.57093 9.11979 4.11254 9.34248 4.57687 9.68495C5.04119 10.0274 5.41391 10.4791 5.662 11ZM21.5 11C21.1022 11 20.7206 11.158 20.4393 11.4393C20.158 11.7206 20 12.1022 20 12.5V13H4V12.5C4 12.1022 3.84196 11.7206 3.56066 11.4393C3.27936 11.158 2.89782 11 2.5 11C2.10218 11 1.72064 11.158 1.43934 11.4393C1.15804 11.7206 1 12.1022 1 12.5V20H2V18H22V20H23V12.5C23 12.1022 22.842 11.7206 22.5607 11.4393C22.2794 11.158 21.8978 11 21.5 11Z" fill="black"/>
</svg>
