<svg width="24" height="24" viewBox="0 0 24 24" fill="none" xmlns="http://www.w3.org/2000/svg">
<path d="M14.7964 12.7122L18.8235 12.3529L18.5621 10.9761C18.5099 10.7016 18.3636 10.4539 18.1484 10.2757C17.9332 10.0975 17.6626 10 17.3832 10H9.21186L7.03916 1.89C6.97089 1.63472 6.82027 1.40911 6.61067 1.24818C6.40107 1.08725 6.14421 1.00001 5.87996 1H4.45166L6.20856 10.912C6.3221 11.5504 6.65403 12.1294 7.14752 12.55C7.641 12.9706 8.26535 13.2066 8.91366 13.2175C8.67334 13.4515 8.49812 13.7441 8.40526 14.0664L6.27936 22H6.79636L8.88766 14.1963C8.96552 13.9094 9.12922 13.6532 9.35682 13.4619C9.58441 13.2707 9.86503 13.1536 10.1611 13.1263L13.5029 12.8304C13.8422 12.8021 14.1808 12.8935 14.4599 13.0886C14.739 13.2837 14.9411 13.5703 15.0312 13.8987L17.2024 22H17.7194L15.5137 13.77C15.4012 13.3464 15.1483 12.9734 14.7964 12.7122ZM6.70086 10.8247L5.04806 1.5H5.87996C6.03403 1.50016 6.18376 1.55108 6.30598 1.64487C6.42821 1.73867 6.51614 1.87012 6.55616 2.0189L8.72896 10.1294L8.82816 10.5H17.3832C17.5461 10.5001 17.7039 10.557 17.8295 10.661C17.955 10.7649 18.0403 10.9093 18.0709 11.0694L18.2294 11.9039L9.16776 12.7125C9.09846 12.7187 9.02936 12.7217 8.96106 12.7217C8.42134 12.722 7.89881 12.5319 7.4854 12.1849C7.07199 11.8379 6.79419 11.3563 6.70086 10.8247Z" fill="black"/>
</svg>
