<svg width="24" height="24" viewBox="0 0 24 24" fill="none" xmlns="http://www.w3.org/2000/svg">
<path d="M6.17627 22H7.69107L8.26257 18H15.5284L16.1 22H17.6148L17.0433 18H19V16.5H16.8289L15.9 10H17.6664V6.9333C17.6664 6.50895 17.4978 6.10199 17.1977 5.80193C16.8977 5.50187 16.4907 5.3333 16.0664 5.3333H11.99L10.8543 2.1509C10.7341 1.81408 10.5127 1.52267 10.2204 1.31663C9.92814 1.11058 9.57928 0.999985 9.22167 1H6.41307L7.93997 9.6573L6.17627 22ZM8.47687 16.5L9.40537 10H14.3854L15.314 16.5H8.47687ZM9.22167 2.5C9.26983 2.50002 9.31681 2.51491 9.35618 2.54263C9.39556 2.57036 9.42542 2.60957 9.44167 2.6549L10.577 5.8373L10.9323 6.8333H16.0669C16.0934 6.8333 16.1188 6.84384 16.1376 6.86259C16.1563 6.88134 16.1669 6.90678 16.1669 6.9333V8.5H9.25867L8.20067 2.5H9.22167Z" fill="black"/>
</svg>
