<svg width="24" height="24" viewBox="0 0 24 24" fill="none" xmlns="http://www.w3.org/2000/svg">
<path d="M6.26172 22H6.76592L7.33752 18H16.0338L16.6052 22H17.1094L16.538 18H18V17.5H16.4666L15.3952 10H17V7.6C17 7.17565 16.8314 6.76869 16.5314 6.46863C16.2313 6.16857 15.8244 6 15.4 6H11.3438L9.93912 2.0624C9.8282 1.75149 9.62384 1.48249 9.35404 1.29229C9.08424 1.10209 8.76222 0.999996 8.43212 1H6.41312L7.98712 9.9266L6.26172 22ZM15.9624 17.5H7.40902L8.48072 10H14.8907L15.9624 17.5ZM7.00902 1.5H8.43212C8.65893 1.50028 8.88014 1.57054 9.06555 1.70119C9.25095 1.83183 9.39154 2.0165 9.46812 2.23L10.8728 6.168L10.9913 6.5H15.4C15.6917 6.50034 15.9712 6.61635 16.1775 6.82256C16.3837 7.02878 16.4997 7.30837 16.5 7.6V9.5H8.42002L7.00902 1.5Z" fill="black"/>
</svg>
