<svg width="24" height="24" viewBox="0 0 24 24" fill="none" xmlns="http://www.w3.org/2000/svg">
<path d="M13.5 3.5C13.5 3.20333 13.412 2.91332 13.2472 2.66665C13.0824 2.41997 12.8481 2.22771 12.574 2.11418C12.2999 2.00065 11.9983 1.97094 11.7074 2.02882C11.4164 2.0867 11.1491 2.22956 10.9393 2.43934C10.7296 2.64912 10.5867 2.91639 10.5288 3.20737C10.4709 3.49834 10.5006 3.79994 10.6142 4.07403C10.7277 4.34811 10.92 4.58238 11.1666 4.7472C11.4133 4.91203 11.7033 5 12 5C12.3978 5 12.7794 4.84197 13.0607 4.56066C13.342 4.27936 13.5 3.89783 13.5 3.5ZM0 18.5V19H24V18.5H0ZM22 15C22 12.3478 20.9464 9.8043 19.0711 7.92893C17.1957 6.05357 14.6522 5 12 5C9.34784 5 6.8043 6.05357 4.92893 7.92893C3.05357 9.8043 2 12.3478 2 15V16H22V15Z" fill="black"/>
</svg>
