<svg width="24" height="24" viewBox="0 0 24 24" fill="none" xmlns="http://www.w3.org/2000/svg">
<path d="M4 2V22H20V2H4ZM18.5 20.5H5.5V3.5H18.5V20.5ZM7.5 13C7.5 13.89 7.76392 14.76 8.25839 15.5001C8.75285 16.2401 9.45566 16.8169 10.2779 17.1575C11.1002 17.4981 12.005 17.5872 12.8779 17.4135C13.7508 17.2399 14.5526 16.8113 15.182 16.182C15.8113 15.5526 16.2399 14.7508 16.4135 13.8779C16.5872 13.005 16.4981 12.1002 16.1575 11.2779C15.8169 10.4557 15.2401 9.75285 14.5001 9.25839C13.76 8.76392 12.89 8.5 12 8.5C10.8065 8.5 9.66193 8.97411 8.81802 9.81802C7.97411 10.6619 7.5 11.8065 7.5 13ZM12 10C12.6633 10.002 13.3072 10.224 13.8308 10.6311C14.3544 11.0383 14.7281 11.6077 14.8935 12.25H13.75C13.5511 12.25 13.3603 12.329 13.2197 12.4697C13.079 12.6103 13 12.8011 13 13C13 13.1989 13.079 13.3897 13.2197 13.5303C13.3603 13.671 13.5511 13.75 13.75 13.75H14.8935C14.7523 14.292 14.462 14.7836 14.0554 15.1689C13.6489 15.5543 13.1425 15.8178 12.5936 15.9298C12.0448 16.0417 11.4756 15.9975 10.9506 15.8022C10.4257 15.6069 9.966 15.2682 9.62383 14.8248C9.28165 14.3813 9.07069 13.8508 9.01489 13.2934C8.9591 12.7361 9.06071 12.1743 9.30818 11.6718C9.55565 11.1693 9.93907 10.7463 10.4149 10.4508C10.8907 10.1553 11.4399 9.99908 12 10ZM8.3 7.2C8.478 7.2 8.65201 7.14722 8.80001 7.04832C8.94802 6.94943 9.06337 6.80887 9.13149 6.64441C9.19961 6.47996 9.21743 6.299 9.18271 6.12442C9.14798 5.94984 9.06226 5.78947 8.9364 5.6636C8.81053 5.53774 8.65016 5.45202 8.47558 5.41729C8.301 5.38257 8.12004 5.40039 7.95559 5.46851C7.79113 5.53663 7.65057 5.65198 7.55168 5.79999C7.45278 5.94799 7.4 6.122 7.4 6.3C7.4 6.53869 7.49482 6.76761 7.6636 6.9364C7.83239 7.10518 8.06131 7.2 8.3 7.2Z" fill="black"/>
</svg>
