<svg width="24" height="24" viewBox="0 0 24 24" fill="none" xmlns="http://www.w3.org/2000/svg">
<path d="M17.2 9H10.9791L9.19299 2.3341C9.09043 1.95136 8.86444 1.61316 8.55007 1.37194C8.23571 1.13073 7.85053 0.999991 7.45429 1H4.43689L6.72849 13.9666L6.02559 22H7.93259L8.22579 18.65H17.1V22H19V10.8C19 10.5636 18.9534 10.3296 18.863 10.1112C18.7725 9.89278 18.6399 9.69435 18.4728 9.52721C18.3056 9.36006 18.1072 9.22748 17.8888 9.13702C17.6704 9.04656 17.4364 9 17.2 9ZM7.45429 2.8L9.24049 9.4659L9.59789 10.8H17.2V12.2H8.24409L6.58289 2.8H7.45429ZM17.1 16.75H8.39209L8.63259 14H17.1V16.75Z" fill="black"/>
</svg>
