<svg width="24" height="24" viewBox="0 0 24 24" fill="none" xmlns="http://www.w3.org/2000/svg">
<path d="M21 10.0494V8C21 7.20435 20.6839 6.44129 20.1213 5.87868C19.5587 5.31607 18.7956 5 18 5H6C5.20435 5 4.44129 5.31607 3.87868 5.87868C3.31607 6.44129 3 7.20435 3 8V10.0494C2.43608 10.1625 1.92871 10.4673 1.56412 10.9121C1.19952 11.3569 1.00019 11.9143 1 12.4894V17C1 17.5304 1.21071 18.0391 1.58579 18.4142C1.96086 18.7893 2.46957 19 3 19V21H4V19H20V21H21V19C21.5304 19 22.0391 18.7893 22.4142 18.4142C22.7893 18.0391 23 17.5304 23 17V12.49C22.9999 11.9148 22.8007 11.3573 22.4361 10.9124C22.0715 10.4674 21.564 10.1625 21 10.0494ZM6 6H18C18.5302 6.00061 19.0386 6.21152 19.4135 6.58646C19.7885 6.9614 19.9994 7.46975 20 8V10.0494C19.4361 10.1625 18.9287 10.4673 18.5641 10.9121C18.1995 11.3569 18.0002 11.9143 18 12.4894V14H5.9792V12.49C5.97912 11.9184 5.78236 11.3642 5.42196 10.9205C5.06157 10.4768 4.55947 10.1706 4 10.0533V8C4.00061 7.46975 4.21152 6.9614 4.58646 6.58646C4.9614 6.21152 5.46975 6.00061 6 6ZM22 17C21.9997 17.2651 21.8943 17.5193 21.7068 17.7068C21.5193 17.8943 21.2651 17.9997 21 18H3C2.73487 17.9997 2.48069 17.8943 2.29321 17.7068C2.10574 17.5193 2.00029 17.2651 2 17V12.49C2.00902 12.1009 2.16992 11.7308 2.44829 11.4588C2.72666 11.1868 3.10041 11.0345 3.4896 11.0345C3.87879 11.0345 4.25254 11.1868 4.53091 11.4588C4.80928 11.7308 4.97018 12.1009 4.9792 12.49V15H19V12.49C19.0003 12.0949 19.1574 11.7161 19.4368 11.4368C19.7161 11.1574 20.0949 11.0003 20.49 11H20.51C20.9051 11.0003 21.2839 11.1574 21.5632 11.4368C21.8426 11.7161 21.9997 12.0949 22 12.49V17Z" fill="black"/>
</svg>
