<svg width="24" height="24" viewBox="0 0 24 24" fill="none" xmlns="http://www.w3.org/2000/svg">
<path d="M4 2V22H20V2H4ZM18 20H6V4H18V20ZM7.5 13C7.5 13.89 7.76392 14.76 8.25839 15.5001C8.75285 16.2401 9.45566 16.8169 10.2779 17.1575C11.1002 17.4981 12.005 17.5872 12.8779 17.4135C13.7508 17.2399 14.5526 16.8113 15.182 16.182C15.8113 15.5526 16.2399 14.7508 16.4135 13.8779C16.5872 13.005 16.4981 12.1002 16.1575 11.2779C15.8169 10.4557 15.2401 9.75285 14.5001 9.25839C13.76 8.76392 12.89 8.5 12 8.5C10.8065 8.5 9.66193 8.97411 8.81802 9.81802C7.97411 10.6619 7.5 11.8065 7.5 13ZM12 10.5C12.4859 10.5008 12.9609 10.6431 13.3673 10.9095C13.7736 11.1759 14.0936 11.5548 14.2881 12H13C12.7348 12 12.4804 12.1054 12.2929 12.2929C12.1054 12.4804 12 12.7348 12 13C12 13.2652 12.1054 13.5196 12.2929 13.7071C12.4804 13.8946 12.7348 14 13 14H14.2881C14.1076 14.4127 13.8189 14.7689 13.4525 15.031C13.0861 15.2931 12.6557 15.4512 12.2068 15.4887C11.7579 15.5262 11.3072 15.4417 10.9025 15.244C10.4977 15.0464 10.1538 14.743 9.90736 14.366C9.66088 13.9889 9.5209 13.5523 9.50224 13.1022C9.48358 12.6521 9.58694 12.2054 9.80137 11.8092C10.0158 11.4131 10.3333 11.0823 10.7204 10.8518C11.1074 10.6213 11.5495 10.4998 12 10.5ZM8.5 7.6C8.71756 7.6 8.93023 7.53549 9.11113 7.41462C9.29202 7.29375 9.43301 7.12195 9.51627 6.92095C9.59952 6.71995 9.62131 6.49878 9.57886 6.2854C9.53642 6.07202 9.43166 5.87602 9.27782 5.72218C9.12398 5.56835 8.92798 5.46358 8.7146 5.42114C8.50122 5.37869 8.28005 5.40048 8.07905 5.48373C7.87805 5.56699 7.70625 5.70798 7.58538 5.88887C7.46451 6.06977 7.4 6.28244 7.4 6.5C7.4 6.79174 7.51589 7.07153 7.72218 7.27782C7.92847 7.48411 8.20826 7.6 8.5 7.6Z" fill="black"/>
</svg>
