<svg width="24" height="24" viewBox="0 0 24 24" fill="none" xmlns="http://www.w3.org/2000/svg">
<path d="M21.4839 16.943C20.2329 18.0282 18.8062 18.8924 17.2651 19.4987L15.7916 14H19V11.0667C19 10.607 18.8174 10.1661 18.4923 9.84104C18.1673 9.51596 17.7264 9.33333 17.2667 9.3333H15.9816L15.9666 7.9669C15.9579 7.177 15.638 6.42241 15.0763 5.86694C14.5146 5.31147 13.7565 4.99995 12.9666 5H8.5472L7.82 2.2847C7.72125 1.91607 7.50359 1.59034 7.2008 1.35805C6.89801 1.12577 6.52703 0.999904 6.1454 1H3.4369L5.2235 11.1091C5.35707 11.8562 5.7305 12.5394 6.28721 13.0552C6.84393 13.5711 7.55359 13.8914 8.3087 13.9677L6.817 19.5345C5.24432 18.9258 3.78912 18.049 2.5161 16.943L1.53 18.0806C4.43255 20.608 8.15133 22.0001 12 22.0001C15.8487 22.0001 19.5675 20.608 22.47 18.0806L21.4839 16.943ZM12.9667 6.5C13.3613 6.5013 13.7396 6.65749 14.0201 6.93496C14.3007 7.21242 14.461 7.58896 14.4667 7.9835L14.4816 9.3335H9.7084L8.9492 6.5H12.9667ZM6.1454 2.5C6.19673 2.50006 6.24662 2.51703 6.28734 2.54828C6.32806 2.57953 6.35736 2.62333 6.3707 2.6729L6.9943 5H5.6671L5.2252 2.5H6.1454ZM6.7006 10.848L5.9322 6.5H7.3962L8.26 9.7216L8.5579 10.8333H17.2672C17.3291 10.8334 17.3884 10.858 17.4321 10.9018C17.4759 10.9455 17.5004 11.0048 17.5005 11.0667V12.5H8.67C8.19979 12.5005 7.74449 12.3351 7.38424 12.0329C7.024 11.7307 6.78191 11.3111 6.7006 10.848ZM8.2465 19.9969L9.8534 14H14.2382L15.84 19.9767C13.3569 20.6674 10.7334 20.6744 8.2467 19.9967L8.2465 19.9969Z" fill="black"/>
</svg>
