<svg width="24" height="24" viewBox="0 0 24 24" fill="none" xmlns="http://www.w3.org/2000/svg">
<path d="M20 11.5V6C20 5.46957 19.7893 4.96086 19.4142 4.58579C19.0391 4.21071 18.5304 4 18 4H6C5.46957 4 4.96086 4.21071 4.58579 4.58579C4.21071 4.96086 4 5.46957 4 6V11.5H2V20H22V11.5H20ZM5.5 6C5.50016 5.86744 5.55289 5.74036 5.64662 5.64662C5.74036 5.55289 5.86744 5.50016 6 5.5H18C18.1326 5.50016 18.2596 5.55289 18.3534 5.64662C18.4471 5.74036 18.4998 5.86744 18.5 6V11.5H16.8994L16.564 10.8292C16.4394 10.58 16.2479 10.3705 16.011 10.224C15.774 10.0776 15.501 10 15.2224 10H14.441C14.1624 10 13.8894 10.0776 13.6524 10.224C13.4155 10.3705 13.224 10.58 13.0994 10.8292L12.7639 11.5H11.2361L10.9006 10.8292C10.776 10.58 10.5845 10.3705 10.3476 10.224C10.1106 10.0776 9.83756 10 9.559 10H8.7776C8.49904 10 8.22598 10.0776 7.98902 10.224C7.75207 10.3705 7.56057 10.58 7.436 10.8292L7.1006 11.5H5.5V6ZM20.5 18.5H3.5V13H20.5V18.5ZM9.9492 16.3672C10.5411 16.8103 11.2606 17.0498 12 17.0498C12.7394 17.0498 13.4589 16.8103 14.0508 16.3672C14.3922 16.0971 14.8147 15.9502 15.25 15.9502C15.6853 15.9502 16.1078 16.0971 16.4492 16.3672C17.0459 16.801 17.7623 17.0395 18.5 17.05V15.55C18.0667 15.5389 17.6475 15.3932 17.3008 15.133C16.7089 14.6899 15.9894 14.4504 15.25 14.4504C14.5106 14.4504 13.7911 14.6899 13.1992 15.133C12.8588 15.4052 12.4359 15.5536 12 15.5536C11.5641 15.5536 11.1412 15.4052 10.8008 15.133C10.2081 14.6917 9.48892 14.4533 8.75 14.4533C8.01108 14.4533 7.29187 14.6917 6.6992 15.133C6.35247 15.3932 5.93334 15.5389 5.5 15.55V17.05C6.23766 17.0396 6.95403 16.8011 7.5508 16.3674C7.89118 16.0951 8.31408 15.9468 8.74996 15.9467C9.18585 15.9467 9.60877 16.095 9.9492 16.3672Z" fill="black"/>
</svg>
