<svg width="24" height="24" viewBox="0 0 24 24" fill="none" xmlns="http://www.w3.org/2000/svg">
<path d="M22 13V8C22 7.46957 21.7893 6.96086 21.4142 6.58579C21.0391 6.21071 20.5304 6 20 6H4C3.46957 6 2.96086 6.21071 2.58579 6.58579C2.21071 6.96086 2 7.46957 2 8V13H0V20H1V18H23V20H24V13H22ZM3 8C3.00029 7.73487 3.10574 7.48069 3.29321 7.29321C3.48069 7.10574 3.73487 7.00029 4 7H20C20.2651 7.00029 20.5193 7.10574 20.7068 7.29321C20.8943 7.48069 20.9997 7.73487 21 8V13H19.0677L18.5377 11.94C18.3965 11.6575 18.1795 11.42 17.9109 11.254C17.6423 11.0879 17.3328 11 17.017 11H15.3215C15.0058 11 14.6963 11.088 14.4277 11.254C14.1592 11.42 13.9422 11.6576 13.801 11.94L13.271 13H10.7291L10.1991 11.94C10.0579 11.6576 9.84091 11.42 9.57234 11.254C9.30376 11.088 8.99425 11 8.6785 11H6.983C6.66735 11.0001 6.35797 11.0881 6.08951 11.2541C5.82105 11.4202 5.60411 11.6577 5.463 11.94L4.9323 13H3V8ZM17.95 13H14.3889L14.6954 12.387C14.7532 12.2704 14.8425 12.1724 14.9531 12.104C15.0638 12.0356 15.1914 11.9996 15.3215 12H17.017C17.1471 11.9996 17.2747 12.0356 17.3854 12.104C17.496 12.1724 17.5853 12.2704 17.6431 12.387L17.95 13ZM9.6111 13H6.05L6.3565 12.387C6.4143 12.2704 6.50364 12.1723 6.61439 12.1039C6.72513 12.0355 6.85283 11.9995 6.983 12H8.6785C8.80859 11.9996 8.9362 12.0356 9.04687 12.104C9.15753 12.1724 9.24681 12.2704 9.3046 12.387L9.6111 13ZM1 17V14H23V17H1Z" fill="black"/>
</svg>
