<svg width="24" height="24" viewBox="0 0 24 24" fill="none" xmlns="http://www.w3.org/2000/svg">
<path d="M20 10H10.8251L10.5588 9.4673C10.4134 9.17662 10.19 8.93216 9.91355 8.76132C9.63708 8.59047 9.3185 8.49998 8.9935 8.5H7.9648C7.63989 8.50008 7.32141 8.5906 7.04504 8.76145C6.76867 8.93229 6.54532 9.1767 6.4 9.4673L6.1332 10H4C3.46957 10 2.96086 10.2107 2.58579 10.5858C2.21071 10.9609 2 11.4696 2 12V15C2 15.5304 2.21071 16.0391 2.58579 16.4142C2.96086 16.7893 3.46957 17 4 17H20C20.5304 17 21.0391 16.7893 21.4142 16.4142C21.7893 16.0391 22 15.5304 22 15V12C22 11.4696 21.7893 10.9609 21.4142 10.5858C21.0391 10.2107 20.5304 10 20 10ZM20.5 15C20.4998 15.1326 20.4471 15.2596 20.3534 15.3534C20.2596 15.4471 20.1326 15.4998 20 15.5H4C3.86744 15.4998 3.74036 15.4471 3.64662 15.3534C3.55289 15.2596 3.50016 15.1326 3.5 15V12C3.50016 11.8674 3.55289 11.7404 3.64662 11.6466C3.74036 11.5529 3.86744 11.5002 4 11.5H20C20.1326 11.5002 20.2596 11.5529 20.3534 11.6466C20.4471 11.7404 20.4998 11.8674 20.5 12V15ZM18.5 12.65C18.3319 12.65 18.1675 12.6999 18.0278 12.7933C17.888 12.8867 17.779 13.0194 17.7147 13.1747C17.6504 13.33 17.6335 13.5009 17.6663 13.6658C17.6991 13.8307 17.7801 13.9822 17.899 14.101C18.0178 14.2199 18.1693 14.3009 18.3342 14.3337C18.4991 14.3665 18.67 14.3496 18.8253 14.2853C18.9806 14.221 19.1133 14.112 19.2067 13.9722C19.3001 13.8325 19.35 13.6681 19.35 13.5C19.35 13.2746 19.2604 13.0584 19.101 12.899C18.9416 12.7396 18.7254 12.65 18.5 12.65Z" fill="black"/>
</svg>
