<svg width="24" height="24" viewBox="0 0 24 24" fill="none" xmlns="http://www.w3.org/2000/svg">
<path d="M20 10H11.0751L10.5588 8.9673C10.4134 8.67662 10.19 8.43216 9.91355 8.26132C9.63708 8.09047 9.3185 7.99998 8.9935 8H7.9648C7.63989 8.00008 7.32141 8.0906 7.04504 8.26145C6.76867 8.43229 6.54532 8.6767 6.4 8.9673L5.8832 10H4C3.46957 10 2.96086 10.2107 2.58579 10.5858C2.21071 10.9609 2 11.4696 2 12V15C2 15.5304 2.21071 16.0391 2.58579 16.4142C2.96086 16.7893 3.46957 17 4 17H20C20.5304 17 21.0391 16.7893 21.4142 16.4142C21.7893 16.0391 22 15.5304 22 15V12C22 11.4696 21.7893 10.9609 21.4142 10.5858C21.0391 10.2107 20.5304 10 20 10ZM20.2 15C20.2 15.053 20.1789 15.1039 20.1414 15.1414C20.1039 15.1789 20.053 15.2 20 15.2H4C3.94696 15.2 3.89609 15.1789 3.85858 15.1414C3.82107 15.1039 3.8 15.053 3.8 15V12C3.8 11.947 3.82107 11.8961 3.85858 11.8586C3.89609 11.8211 3.94696 11.8 4 11.8H20C20.053 11.8 20.1039 11.8211 20.1414 11.8586C20.1789 11.8961 20.2 11.947 20.2 12V15ZM18.5 12.65C18.3319 12.65 18.1675 12.6999 18.0278 12.7933C17.888 12.8867 17.779 13.0194 17.7147 13.1747C17.6504 13.33 17.6335 13.5009 17.6663 13.6658C17.6991 13.8307 17.7801 13.9822 17.899 14.101C18.0178 14.2199 18.1693 14.3009 18.3342 14.3337C18.4991 14.3665 18.67 14.3496 18.8253 14.2853C18.9806 14.221 19.1133 14.112 19.2067 13.9722C19.3001 13.8325 19.35 13.6681 19.35 13.5C19.35 13.2746 19.2604 13.0584 19.101 12.899C18.9416 12.7396 18.7254 12.65 18.5 12.65Z" fill="black"/>
</svg>
