<svg width="24" height="24" viewBox="0 0 24 24" fill="none" xmlns="http://www.w3.org/2000/svg">
<path d="M19.5 4V8H15.5V4H14V8H10.6036L10.3373 7.4673C10.192 7.17664 9.96854 6.93219 9.69209 6.76134C9.41564 6.5905 9.09708 6.5 8.7721 6.5H7.7433C7.41832 6.5 7.09976 6.5905 6.82331 6.76134C6.54686 6.93219 6.32345 7.17664 6.1781 7.4673L5.9118 8H4.5V4H3V20H4.5V17.5H14V20H15.5V17.5H19.5V20H21V4H19.5ZM10.6036 16L10.3373 15.4673C10.192 15.1766 9.96854 14.9322 9.69209 14.7613C9.41564 14.5905 9.09708 14.5 8.7721 14.5H7.7433C7.41832 14.5 7.09976 14.5905 6.82331 14.7613C6.54686 14.9322 6.32345 15.1766 6.1781 15.4673L5.9118 16H4.5V9.5H14V16H10.6036ZM19.5 16H15.5V13.5H19.5V16ZM19.5 12H15.5V9.5H19.5V12Z" fill="black"/>
</svg>
