<svg width="24" height="24" viewBox="0 0 24 24" fill="none" xmlns="http://www.w3.org/2000/svg">
<path d="M20.5 4V9C18.042 10.35 15.1265 10.5877 11.9873 10.5877C8.8589 10.5877 5.9529 10.3507 3.5 9.0132V4H2V20H3.5V12.6568C4.38204 14.1184 5.62714 15.3269 7.11433 16.1651C8.60151 17.0032 10.2802 17.4424 11.9873 17.44C13.702 17.4409 15.3877 16.9972 16.8797 16.1521C18.3717 15.307 19.6191 14.0894 20.5 12.6182V20H22V4H20.5ZM19.3286 11.1566C17.3666 13.0701 14.7279 14.1305 11.9874 14.1066C9.24691 14.1305 6.60808 13.0701 4.6461 11.1566C7.02545 11.8679 9.50572 12.1824 11.9873 12.0876C14.4689 12.1824 16.9492 11.8679 19.3286 11.1566Z" fill="black"/>
</svg>
