<svg width="24" height="24" viewBox="0 0 24 24" fill="none" xmlns="http://www.w3.org/2000/svg">
<path d="M3 14V20H3.5V18H20.5V20H21V14H3ZM9.92 12.4673C10.0654 12.1766 10.2889 11.9321 10.5654 11.7612C10.842 11.5904 11.1606 11.4999 11.4857 11.5H12.5143C12.8393 11.5 13.1579 11.5905 13.4343 11.7613C13.7108 11.9322 13.9342 12.1766 14.0796 12.4673L14.5959 13.5H19V8C19 7.46957 18.7893 6.96086 18.4142 6.58579C18.0391 6.21071 17.5304 6 17 6H7C6.46957 6 5.96086 6.21071 5.58579 6.58579C5.21071 6.96086 5 7.46957 5 8V13.5H9.4041L9.92 12.4673Z" fill="black"/>
</svg>
