<svg width="24" height="24" viewBox="0 0 24 24" fill="none" xmlns="http://www.w3.org/2000/svg">
<path d="M20 10H11.3776L10.8476 8.94C10.7064 8.65754 10.4894 8.41999 10.2208 8.25396C9.9522 8.08793 9.64267 7.99999 9.3269 8H7.6314C7.31567 8.00003 7.00618 8.08799 6.73762 8.25401C6.46907 8.42004 6.25205 8.65757 6.1109 8.94L5.5807 10H4C3.46957 10 2.96086 10.2107 2.58579 10.5858C2.21071 10.9609 2 11.4696 2 12V14C2 14.5304 2.21071 15.0391 2.58579 15.4142C2.96086 15.7893 3.46957 16 4 16H20C20.5304 16 21.0391 15.7893 21.4142 15.4142C21.7893 15.0391 22 14.5304 22 14V12C22 11.4696 21.7893 10.9609 21.4142 10.5858C21.0391 10.2107 20.5304 10 20 10ZM7.0053 9.387C7.06309 9.27044 7.15237 9.17241 7.26303 9.10401C7.3737 9.03561 7.50131 8.99958 7.6314 9H9.3269C9.457 8.99956 9.58462 9.03557 9.69529 9.10396C9.80597 9.17234 9.89528 9.27036 9.9531 9.3869L10.26 10H6.6988L7.0053 9.387ZM21 14C20.9997 14.2651 20.8943 14.5193 20.7068 14.7068C20.5193 14.8943 20.2651 14.9997 20 15H4C3.73487 14.9997 3.48069 14.8943 3.29321 14.7068C3.10574 14.5193 3.00029 14.2651 3 14V12C3.00029 11.7349 3.10574 11.4807 3.29321 11.2932C3.48069 11.1057 3.73487 11.0003 4 11H20C20.2651 11.0003 20.5193 11.1057 20.7068 11.2932C20.8943 11.4807 20.9997 11.7349 21 12V14ZM18.5 12.3C18.3616 12.3 18.2262 12.3411 18.1111 12.418C17.996 12.4949 17.9063 12.6042 17.8533 12.7321C17.8003 12.86 17.7864 13.0008 17.8134 13.1366C17.8405 13.2723 17.9071 13.3971 18.005 13.495C18.1029 13.5929 18.2277 13.6595 18.3634 13.6866C18.4992 13.7136 18.64 13.6997 18.7679 13.6467C18.8958 13.5937 19.0051 13.504 19.082 13.3889C19.1589 13.2738 19.2 13.1384 19.2 13C19.2 12.8143 19.1262 12.6363 18.995 12.505C18.8637 12.3737 18.6857 12.3 18.5 12.3Z" fill="black"/>
</svg>
