<svg width="24" height="24" viewBox="0 0 24 24" fill="none" xmlns="http://www.w3.org/2000/svg">
<path d="M14 12H16.3791C16.1332 10.9213 15.4986 9.971 14.5965 9.33057C13.6943 8.69015 12.5879 8.40451 11.4885 8.52822C10.389 8.65192 9.37373 9.1763 8.63646 10.0012C7.89918 10.8261 7.49162 11.8936 7.49162 13C7.49162 14.1064 7.89918 15.1739 8.63646 15.9988C9.37373 16.8237 10.389 17.3481 11.4885 17.4718C12.5879 17.5955 13.6943 17.3098 14.5965 16.6694C15.4986 16.029 16.1332 15.0787 16.3791 14H14C13.7348 14 13.4804 13.8946 13.2929 13.7071C13.1054 13.5196 13 13.2652 13 13C13 12.7348 13.1054 12.4804 13.2929 12.2929C13.4804 12.1054 13.7348 12 14 12ZM4 2V22H20V2H4ZM6.4 5.5C6.4 5.28244 6.46451 5.06977 6.58538 4.88887C6.70625 4.70798 6.87805 4.56699 7.07905 4.48373C7.28005 4.40048 7.50122 4.37869 7.7146 4.42114C7.92798 4.46358 8.12398 4.56835 8.27782 4.72218C8.43166 4.87602 8.53642 5.07202 8.57886 5.2854C8.62131 5.49878 8.59952 5.71995 8.51627 5.92095C8.43301 6.12195 8.29202 6.29375 8.11113 6.41462C7.93023 6.53549 7.71756 6.6 7.5 6.6C7.20826 6.6 6.92847 6.48411 6.72218 6.27782C6.51589 6.07153 6.4 5.79174 6.4 5.5ZM12 18C11.0111 18 10.0444 17.7068 9.22215 17.1573C8.3999 16.6079 7.75904 15.827 7.3806 14.9134C7.00216 13.9998 6.90315 12.9945 7.09607 12.0245C7.289 11.0546 7.7652 10.1637 8.46447 9.46447C9.16373 8.7652 10.0546 8.289 11.0245 8.09607C11.9945 7.90315 12.9998 8.00216 13.9134 8.3806C14.827 8.75904 15.6079 9.3999 16.1573 10.2221C16.7068 11.0444 17 12.0111 17 13C17 14.3261 16.4732 15.5979 15.5355 16.5355C14.5979 17.4732 13.3261 18 12 18Z" fill="black"/>
</svg>
