<svg width="24" height="24" viewBox="0 0 24 24" fill="none" xmlns="http://www.w3.org/2000/svg">
<path d="M16 1H8C7.20435 1 6.44129 1.31607 5.87868 1.87868C5.31607 2.44129 5 3.20435 5 4V23H19V4C19 3.20435 18.6839 2.44129 18.1213 1.87868C17.5587 1.31607 16.7956 1 16 1ZM18 22H6V10H18V22ZM18 9H6V4C6.00061 3.46975 6.21152 2.9614 6.58646 2.58646C6.9614 2.21152 7.46975 2.00061 8 2H16C16.5302 2.00061 17.0386 2.21152 17.4135 2.58646C17.7885 2.9614 17.9994 3.46975 18 4V9ZM10.5 6H8V7H10.5C10.6326 7 10.7598 6.94732 10.8536 6.85355C10.9473 6.75979 11 6.63261 11 6.5C11 6.36739 10.9473 6.24021 10.8536 6.14645C10.7598 6.05268 10.6326 6 10.5 6ZM11 12.75C11 12.6174 10.9473 12.4902 10.8536 12.3964C10.7598 12.3027 10.6326 12.25 10.5 12.25H8V13.25H10.5C10.6326 13.25 10.7598 13.1973 10.8536 13.1036C10.9473 13.0098 11 12.8826 11 12.75Z" fill="black"/>
</svg>
