<svg width="24" height="24" viewBox="0 0 24 24" fill="none" xmlns="http://www.w3.org/2000/svg">
<path d="M12 2C10.1435 2 8.36301 2.7375 7.05025 4.05025C5.7375 5.36301 5 7.14348 5 9C4.99997 9.95112 5.18728 10.8929 5.55126 11.7716C5.91523 12.6504 6.44874 13.4488 7.1213 14.1213C7.68387 14.6839 7.99993 15.447 8 16.2426V19C8 19.7956 8.31607 20.5587 8.87868 21.1213C9.44129 21.6839 10.2044 22 11 22H13C13.7956 22 14.5587 21.6839 15.1213 21.1213C15.6839 20.5587 16 19.7956 16 19V16.2426C16.0001 15.447 16.3161 14.6839 16.8787 14.1213C17.5513 13.4488 18.0848 12.6504 18.4487 11.7716C18.8127 10.8929 19 9.95112 19 9C19 7.14348 18.2625 5.36301 16.9497 4.05025C15.637 2.7375 13.8565 2 12 2ZM14.5 19C14.4995 19.3977 14.3414 19.779 14.0602 20.0602C13.779 20.3414 13.3977 20.4995 13 20.5H11C10.6023 20.4995 10.221 20.3414 9.93984 20.0602C9.65863 19.779 9.50045 19.3977 9.5 19V18H14.5V19ZM15.8179 13.0607C15.3988 13.4776 15.0665 13.9735 14.8403 14.5197C14.6141 15.0658 14.4984 15.6514 14.5 16.2426V16.5H9.5V16.2426C9.50159 15.6514 9.38591 15.0658 9.15966 14.5196C8.93341 13.9734 8.60108 13.4775 8.1819 13.0606C7.64699 12.5286 7.22292 11.8958 6.93422 11.1988C6.64552 10.5018 6.49793 9.75442 6.5 9C6.5 7.54131 7.07946 6.14236 8.11091 5.11091C9.14236 4.07946 10.5413 3.5 12 3.5C13.4587 3.5 14.8576 4.07946 15.8891 5.11091C16.9205 6.14236 17.5 7.54131 17.5 9C17.5021 9.75446 17.3545 10.5018 17.0657 11.1989C16.777 11.8959 16.3529 12.5287 15.8179 13.0607Z" fill="black"/>
</svg>
