<svg width="24" height="24" viewBox="0 0 24 24" fill="none" xmlns="http://www.w3.org/2000/svg">
<path d="M2 6V19H4V9H22V6H2ZM19.5 16.5C19.5 16.6326 19.4473 16.7598 19.3536 16.8536C19.2598 16.9473 19.1326 17 19 17H18C17.8674 17 17.7402 16.9473 17.6464 16.8536C17.5527 16.7598 17.5 16.6326 17.5 16.5V16H15V19H22V16H19.5V16.5ZM19.5 11.5C19.5 11.6326 19.4473 11.7598 19.3536 11.8536C19.2598 11.9473 19.1326 12 19 12H18C17.8674 12 17.7402 11.9473 17.6464 11.8536C17.5527 11.7598 17.5 11.6326 17.5 11.5V11H15V14H22V11H19.5V11.5Z" fill="black"/>
</svg>
