<svg width="24" height="24" viewBox="0 0 24 24" fill="none" xmlns="http://www.w3.org/2000/svg">
<path d="M20 4V8H16V4H15V8H10.6116L10.0952 6.9673C9.94985 6.67664 9.72644 6.43219 9.44999 6.26134C9.17354 6.0905 8.85498 6 8.53 6H7.5013C7.1763 5.99998 6.85772 6.09047 6.58125 6.26131C6.30479 6.43216 6.08136 6.67662 5.936 6.9673L5.42 8H4V4H3V20H4V18H15V20H16V18H20V20H21V4H20ZM10.6116 16L10.0952 14.9673C9.94985 14.6766 9.72644 14.4322 9.44999 14.2613C9.17354 14.0905 8.85498 14 8.53 14H7.5013C7.1763 14 6.85772 14.0905 6.58125 14.2613C6.30479 14.4322 6.08136 14.6766 5.936 14.9673L5.42 16H4V10H15V16H10.6116ZM20 16H16V13.5H20V16ZM20 12.5H16V10H20V12.5Z" fill="black"/>
</svg>
