<svg width="24" height="24" viewBox="0 0 24 24" fill="none" xmlns="http://www.w3.org/2000/svg">
<path d="M12 2.80371L3 7.99991V20.9999H21V7.99991L12 2.80371ZM20.5 20.4999H3.5V8.28851L12 3.38111L20.5 8.28851V20.4999ZM11.7754 8.94991V9.99991H11.1254C10.6944 9.99991 10.2811 10.1711 9.97635 10.4759C9.67161 10.7806 9.5004 11.1939 9.5004 11.6249C9.5004 12.0559 9.67161 12.4692 9.97635 12.774C10.2811 13.0787 10.6944 13.2499 11.1254 13.2499H12.86C13.1584 13.2499 13.4445 13.3684 13.6555 13.5794C13.8665 13.7904 13.985 14.0765 13.985 14.3749C13.985 14.6733 13.8665 14.9594 13.6555 15.1704C13.4445 15.3814 13.1584 15.4999 12.86 15.4999H9.75V15.9999H11.7754V17.0499H12.2246V15.9999H12.86C13.291 15.9999 13.7043 15.8287 14.009 15.524C14.3138 15.2192 14.485 14.8059 14.485 14.3749C14.485 13.9439 14.3138 13.5306 14.009 13.2259C13.7043 12.9211 13.291 12.7499 12.86 12.7499H11.125C10.8266 12.7499 10.5405 12.6314 10.3295 12.4204C10.1185 12.2094 10 11.9233 10 11.6249C10 11.3265 10.1185 11.0404 10.3295 10.8294C10.5405 10.6184 10.8266 10.4999 11.125 10.4999H13.9844V9.99991H12.2244V8.94991H11.7754Z" fill="black"/>
</svg>
