<svg width="24" height="24" viewBox="0 0 24 24" fill="none" xmlns="http://www.w3.org/2000/svg">
<path d="M3.5 10V7C3.50074 6.33719 3.76437 5.70173 4.23305 5.23305C4.70173 4.76437 5.33719 4.50074 6 4.5H10V4H6C5.20462 4.00087 4.44206 4.31722 3.87964 4.87964C3.31722 5.44206 3.00087 6.20462 3 7V21H3.5V19H20.5V21H21V10H3.5ZM7.375 17H3.5V10.5H7.375V17ZM11.75 17H7.875V10.5H11.75V17ZM16.125 17H12.25V10.5H16.125V17ZM20.5 17H16.625V10.5H20.5V17ZM11 6.5C11.0989 6.5 11.1956 6.47068 11.2778 6.41573C11.36 6.36079 11.4241 6.2827 11.4619 6.19134C11.4998 6.09998 11.5097 5.99945 11.4904 5.90245C11.4711 5.80546 11.4235 5.71637 11.3536 5.64645C11.2836 5.57652 11.1945 5.5289 11.0975 5.50961C11.0006 5.49031 10.9 5.50022 10.8087 5.53806C10.7173 5.5759 10.6392 5.63999 10.5843 5.72221C10.5293 5.80444 10.5 5.90111 10.5 6C10.5 6.13261 10.5527 6.25979 10.6464 6.35355C10.7402 6.44732 10.8674 6.5 11 6.5ZM8.5 6C8.5 6.09889 8.52932 6.19556 8.58426 6.27779C8.63921 6.36001 8.7173 6.4241 8.80866 6.46194C8.90002 6.49978 9.00056 6.50969 9.09755 6.49039C9.19454 6.4711 9.28363 6.42348 9.35355 6.35355C9.42348 6.28363 9.4711 6.19454 9.49039 6.09755C9.50969 6.00055 9.49978 5.90002 9.46194 5.80866C9.4241 5.7173 9.36001 5.63921 9.27779 5.58427C9.19556 5.52932 9.09889 5.5 9 5.5C8.86739 5.5 8.74021 5.55268 8.64645 5.64645C8.55268 5.74021 8.5 5.86739 8.5 6Z" fill="black"/>
</svg>
