<svg width="24" height="24" viewBox="0 0 24 24" fill="none" xmlns="http://www.w3.org/2000/svg">
<path d="M14.5868 11.9375L18.6768 11.5797L18.5092 10.6975C18.472 10.5013 18.3674 10.3243 18.2136 10.197C18.0598 10.0697 17.8664 9.99999 17.6667 10H9.21193L6.99943 1.7412C6.94245 1.52855 6.8169 1.34065 6.64224 1.20663C6.46758 1.07262 6.25358 0.999985 6.03343 1H5.27173L6.94583 10.494C7.03846 11.0138 7.30728 11.4859 7.70707 11.8308C8.10687 12.1757 8.61324 12.3724 9.14103 12.3878C8.89681 12.6233 8.71914 12.9192 8.62603 13.2454L6.28003 22H6.79703L9.10893 13.3743C9.18626 13.0876 9.34953 12.8316 9.57678 12.6405C9.80403 12.4494 10.0844 12.3326 10.38 12.3056L13.2976 12.0503C13.6374 12.0187 13.9773 12.1089 14.2566 12.3049C14.5359 12.5008 14.7365 12.7898 14.8223 13.12L17.2023 22H17.7192L15.3047 12.9906C15.1915 12.5684 14.9384 12.1972 14.5868 11.9375Z" fill="black"/>
</svg>
