<svg width="24" height="24" viewBox="0 0 24 24" fill="none" xmlns="http://www.w3.org/2000/svg">
<path d="M13 7V11H10.2085L9.4285 9.44C9.28733 9.15754 9.07029 8.91999 8.80169 8.75396C8.5331 8.58793 8.22357 8.49999 7.9078 8.5H6.2123C5.89657 8.50003 5.58708 8.58799 5.31852 8.75401C5.04997 8.92004 4.83295 9.15757 4.6918 9.44L3.9116 11H2.5V7H2V18H2.5V15H21.5V18H22V7H13ZM5.139 9.6634C5.23804 9.46358 5.3911 9.29551 5.58081 9.17825C5.77051 9.061 5.98928 8.99924 6.2123 9H7.9078C8.13081 8.99924 8.34957 9.06097 8.53928 9.17821C8.72898 9.29545 8.88204 9.4635 8.9811 9.6633L9.65 11H4.4706L5.139 9.6634ZM21.5 14.5H2.5V11.5H21.5V14.5ZM21.5 11H13.5V7.5H21.5V11Z" fill="black"/>
</svg>
