<svg width="24" height="24" viewBox="0 0 24 24" fill="none" xmlns="http://www.w3.org/2000/svg">
<path d="M21.811 17.32C20.439 18.5099 18.8634 19.4422 17.16 20.072L15.5331 14H19V12.1066C19 11.7247 18.8483 11.3584 18.5782 11.0884C18.3082 10.8183 17.9419 10.6666 17.56 10.6666H14.99L14.9825 8.9881C14.9794 8.45973 14.7673 7.95408 14.3925 7.58157C14.0178 7.20907 13.5109 6.99999 12.9825 7H7.6185L6.2762 1.9906C6.20005 1.70641 6.03226 1.45528 5.79883 1.27618C5.56541 1.09707 5.27942 0.999992 4.9852 1H3.4369L5.7344 14H8.5585L6.924 20.1C5.18878 19.471 3.58383 18.5287 2.189 17.32L1.5301 18.08C4.43264 20.6074 8.15142 21.9995 12.0001 21.9995C15.8488 21.9995 19.5676 20.6074 22.4701 18.08L21.811 17.32ZM12.9821 8C13.2459 8.00054 13.4988 8.10506 13.686 8.29088C13.8732 8.4767 13.9796 8.72884 13.9821 8.9926L13.9896 10.6666H8.601L7.8864 8H12.9821ZM7.8756 20.4164L9.5949 14H14.4967L16.2087 20.3884C13.4908 21.1942 10.5988 21.204 7.8756 20.4164Z" fill="black"/>
</svg>
