<svg width="24" height="24" viewBox="0 0 24 24" fill="none" xmlns="http://www.w3.org/2000/svg">
<path d="M15.0842 12.27L18.7435 11.9484L18.5172 10.7361C18.4726 10.4982 18.3462 10.2833 18.16 10.1286C17.9737 9.97399 17.7393 9.8893 17.4972 9.8892H9.29721L7.14091 1.84C7.07631 1.59902 6.934 1.38608 6.73606 1.23421C6.53812 1.08233 6.2956 1.00001 6.04611 1H4.88611L6.60401 10.7314C6.69507 11.241 6.94296 11.7095 7.31308 12.0715C7.6832 12.4334 8.15708 12.6708 8.66861 12.7505C8.52627 12.9561 8.41942 13.1841 8.35251 13.4251L6.05441 22H7.02171L9.25491 13.6663C9.32607 13.4028 9.47624 13.1673 9.68521 12.9917C9.89419 12.8161 10.152 12.7086 10.4238 12.6839L13.2715 12.431C13.5843 12.402 13.8972 12.4849 14.1545 12.665C14.4119 12.845 14.5969 13.1106 14.6768 13.4144L16.9772 22H17.9443L15.5791 13.1722C15.4865 12.8371 15.317 12.5282 15.0842 12.27Z" fill="black"/>
</svg>
