<svg width="24" height="24" viewBox="0 0 24 24" fill="none" xmlns="http://www.w3.org/2000/svg">
<path d="M1 14V20H2V18H22V20H23V14H1ZM6.6413 11.9673C6.78665 11.6766 7.01006 11.4322 7.28651 11.2613C7.56296 11.0905 7.88152 11 8.2065 11H9.2674C9.59238 11 9.91094 11.0905 10.1874 11.2613C10.4638 11.4322 10.6873 11.6766 10.8326 11.9673L11.3489 13H12.6511L13.1674 11.9673C13.3127 11.6766 13.5362 11.4322 13.8126 11.2613C14.0891 11.0905 14.4076 11 14.7326 11H15.7935C16.1185 11 16.437 11.0905 16.7135 11.2613C16.9899 11.4322 17.2134 11.6766 17.3587 11.9673L17.875 13H21V8C21 7.46957 20.7893 6.96086 20.4142 6.58579C20.0391 6.21071 19.5304 6 19 6H5C4.46957 6 3.96086 6.21071 3.58579 6.58579C3.21071 6.96086 3 7.46957 3 8V13H6.125L6.6413 11.9673Z" fill="black"/>
</svg>
