<svg width="24" height="24" viewBox="0 0 24 24" fill="none" xmlns="http://www.w3.org/2000/svg">
<path d="M18.6768 11.2462L18.5092 10.364C18.472 10.1678 18.3674 9.99084 18.2136 9.86351C18.0598 9.73618 17.8664 9.66651 17.6667 9.6665H9.21193L6.99943 1.4078C6.94247 1.19514 6.81693 1.00721 6.64226 0.873175C6.4676 0.739142 6.25359 0.666495 6.03343 0.666504H5.27173L6.94583 10.1606C7.02996 10.6333 7.25994 11.0678 7.60352 11.4032C7.9471 11.7385 8.38704 11.9579 8.86163 12.0306L6.28003 21.6665H6.79703L7.66333 18.4339L7.67333 18.4511L12.0574 15.9199L16.3215 18.3816L17.2023 21.6669H17.7192L15.0127 11.5669L18.6768 11.2462ZM9.37113 12.0604L14.5068 11.6112L15.0444 13.6169L12.0574 15.3416L8.97003 13.5589L9.37113 12.0604ZM7.83893 17.7772L8.83533 14.0593L11.5569 15.6305L7.83893 17.7772ZM12.5579 15.6305L15.1787 14.1174L16.1387 17.6974L12.5579 15.6305Z" fill="black"/>
</svg>
