<svg width="24" height="24" viewBox="0 0 24 24" fill="none" xmlns="http://www.w3.org/2000/svg">
<path d="M20.5 4V8H15.5V4H15V8H11.2076L10.4276 6.44C10.2864 6.15756 10.0694 5.92001 9.80083 5.75399C9.53226 5.58796 9.22275 5.50001 8.907 5.5H7.2115C6.89577 5.50003 6.58628 5.58799 6.31772 5.75401C6.04917 5.92004 5.83215 6.15758 5.691 6.44L4.9108 8H3.5V4H3V20H3.5V16.5H15V20H15.5V16.5H20.5V20H21V4H20.5ZM6.1382 6.6633C6.23727 6.46351 6.39033 6.29546 6.58003 6.17823C6.76974 6.06099 6.98849 5.99925 7.2115 6H8.907C9.12995 5.9993 9.34865 6.06107 9.53829 6.17831C9.72794 6.29554 9.88095 6.46355 9.98 6.6633L10.6486 8H5.47L6.1382 6.6633ZM5.47 16L6.1384 14.6633C6.23745 14.4635 6.39048 14.2955 6.58015 14.1783C6.76981 14.061 6.98853 13.9993 7.2115 14H8.907C9.13001 13.9992 9.34876 14.061 9.53847 14.1782C9.72817 14.2955 9.88123 14.4635 9.9803 14.6633L10.6486 16H5.47ZM11.2078 16L10.4278 14.44C10.2866 14.1575 10.0696 13.92 9.80095 13.7539C9.53234 13.5879 9.22278 13.5 8.907 13.5H7.2115C6.89577 13.5 6.58628 13.588 6.31772 13.754C6.04917 13.92 5.83215 14.1576 5.691 14.44L4.9108 16H3.5V8.5H15V16H11.2078ZM20.5 16H15.5V12.75H20.5V16ZM20.5 12.25H15.5V8.5H20.5V12.25Z" fill="black"/>
</svg>
