<svg width="24" height="24" viewBox="0 0 24 24" fill="none" xmlns="http://www.w3.org/2000/svg">
<path d="M7.8958 12.99V13H15.9167V12.99C15.9178 11.9322 16.3384 10.918 17.0864 10.17C17.8343 9.422 18.8484 9.00122 19.9062 9H19.9167V6C19.9167 5.20435 19.6006 4.44129 19.038 3.87868C18.4754 3.31607 17.7123 3 16.9167 3H6.9167C6.12105 3 5.35799 3.31607 4.79538 3.87868C4.23277 4.44129 3.9167 5.20435 3.9167 6V9.001C4.97256 9.00483 5.98393 9.42665 6.72961 10.1742C7.47529 10.9217 7.89459 11.9341 7.8958 12.99ZM19.9271 11H19.9062C19.3785 11.0001 18.8725 11.2099 18.4994 11.583C18.1263 11.9562 17.9167 12.4623 17.9167 12.99V15H5.8958V12.99C5.90143 12.7252 5.85414 12.4619 5.75668 12.2156C5.65923 11.9692 5.51358 11.7449 5.32828 11.5556C5.14297 11.3663 4.92174 11.2159 4.67755 11.1132C4.43337 11.0106 4.17114 10.9577 3.90625 10.9577C3.64136 10.9577 3.37913 11.0106 3.13495 11.1132C2.89076 11.2159 2.66953 11.3663 2.48422 11.5556C2.29892 11.7449 2.15327 11.9692 2.05582 12.2156C1.95836 12.4619 1.91107 12.7252 1.9167 12.99V18C1.9167 18.5304 2.12741 19.0391 2.50249 19.4142C2.87756 19.7893 3.38627 20 3.9167 20H4V22H6V20H18V22H20V19.9916C20.5148 19.9712 21.0017 19.7525 21.3589 19.3813C21.7162 19.0101 21.916 18.5152 21.9167 18V12.99C21.9167 12.4623 21.7071 11.9562 21.334 11.583C20.9609 11.2098 20.4548 11.0001 19.9271 11Z" fill="black"/>
</svg>
