<svg width="24" height="24" viewBox="0 0 24 24" fill="none" xmlns="http://www.w3.org/2000/svg">
<path d="M2 6V19H2.5V9H22V6H2ZM19 10H18C17.8674 10 17.7402 9.94732 17.6464 9.85355C17.5527 9.75979 17.5 9.63261 17.5 9.5H15V14H22V9.5H19.5C19.5 9.63261 19.4473 9.75979 19.3536 9.85355C19.2598 9.94732 19.1326 10 19 10ZM19 15H18C17.8674 15 17.7402 14.9473 17.6464 14.8536C17.5527 14.7598 17.5 14.6326 17.5 14.5H15V19H22V14.5H19.5C19.5 14.6326 19.4473 14.7598 19.3536 14.8536C19.2598 14.9473 19.1326 15 19 15Z" fill="black"/>
</svg>
