<svg width="24" height="24" viewBox="0 0 24 24" fill="none" xmlns="http://www.w3.org/2000/svg">
<path d="M18 8H5.99999V10H11V19H13V10H18V8ZM7.49999 12H4.22999L3.15379 5H1.13049L2.36049 13.0029L1.46919 19H3.49169L4.23489 14H6.99999V19H8.99999V13.5C8.99999 13.1022 8.84196 12.7206 8.56065 12.4393C8.27935 12.158 7.89782 12 7.49999 12ZM22.87 5H20.8462L19.77 12H16.5C16.1022 12 15.7206 12.158 15.4393 12.4393C15.158 12.7206 15 13.1022 15 13.5V19H17V14H19.7651L20.5083 19H22.5308L21.64 13.0029L22.87 5Z" fill="black"/>
</svg>
