<svg width="24" height="24" viewBox="0 0 24 24" fill="none" xmlns="http://www.w3.org/2000/svg">
<path d="M1 14V20H3V18H21V20H23V14H1ZM6.6413 10.9673C6.78665 10.6766 7.01006 10.4322 7.28651 10.2613C7.56296 10.0905 7.88152 10 8.2065 10H9.2674C9.59238 10 9.91094 10.0905 10.1874 10.2613C10.4638 10.4322 10.6873 10.6766 10.8326 10.9673L11.3489 12H12.6511L13.1674 10.9673C13.3127 10.6766 13.5362 10.4322 13.8126 10.2613C14.0891 10.0905 14.4076 10 14.7326 10H15.7935C16.1185 10 16.437 10.0905 16.7135 10.2613C16.9899 10.4322 17.2134 10.6766 17.3587 10.9673L17.875 12H21V7C21 6.46957 20.7893 5.96086 20.4142 5.58579C20.0391 5.21071 19.5304 5 19 5H5C4.46957 5 3.96086 5.21071 3.58579 5.58579C3.21071 5.96086 3 6.46957 3 7V12H6.125L6.6413 10.9673Z" fill="black"/>
</svg>
