<svg width="24" height="24" viewBox="0 0 24 24" fill="none" xmlns="http://www.w3.org/2000/svg">
<path d="M18 5C17.2044 5 16.4413 5.31607 15.8787 5.87868C15.3161 6.44129 15 7.20435 15 8V9H16.8V8C16.8 7.68174 16.9264 7.37652 17.1515 7.15147C17.3765 6.92643 17.6817 6.8 18 6.8C18.3183 6.8 18.6235 6.92643 18.8485 7.15147C19.0736 7.37652 19.2 7.68174 19.2 8V11H3V21H21V8C21 7.20435 20.6839 6.44129 20.1213 5.87868C19.5587 5.31607 18.7956 5 18 5ZM11.1 19.2H4.8V12.8H11.1V19.2ZM19.2 19.2H12.9V16.9H19.2V19.2ZM19.2 15.1H12.9V12.8H19.2V15.1ZM13 6.5L11 4.5V2H5V4.5L3 6.5V9H13V6.5ZM4.8456 7.2L6.8 5.2455V3.8H9.2V5.2455L11.1544 7.2H4.8456Z" fill="black"/>
</svg>
