<svg width="24" height="24" viewBox="0 0 24 24" fill="none" xmlns="http://www.w3.org/2000/svg">
<path d="M13 4C13 3.80222 12.9414 3.60888 12.8315 3.44443C12.7216 3.27998 12.5654 3.15181 12.3827 3.07612C12.2 3.00043 11.9989 2.98063 11.8049 3.01922C11.6109 3.0578 11.4327 3.15304 11.2929 3.29289C11.153 3.43275 11.0578 3.61093 11.0192 3.80491C10.9806 3.99889 11.0004 4.19996 11.0761 4.38268C11.1518 4.56541 11.28 4.72159 11.4444 4.83147C11.6089 4.94135 11.8022 5 12 5C12.2652 5 12.5196 4.89464 12.7071 4.70711C12.8946 4.51957 13 4.26522 13 4ZM21 9C21 6.7908 16.9706 5 12 5C7.0294 5 3 6.7908 3 9H1V10.5H3V21H21V10.5H23V9H21ZM19.5 19.5H4.5V10.5H19.5V19.5ZM4.5 9C4.5 8.1416 7.4208 6.5 12 6.5C16.5792 6.5 19.5 8.1416 19.5 9H4.5Z" fill="black"/>
</svg>
