<svg width="24" height="24" viewBox="0 0 24 24" fill="none" xmlns="http://www.w3.org/2000/svg">
<path d="M3 3V21H21V3H3ZM19.5 19.5H4.5V4.5H19.5V19.5ZM15.3351 11.1649C15.8296 11.1649 16.3129 11.0183 16.724 10.7436C17.1351 10.4689 17.4556 10.0784 17.6448 9.62161C17.834 9.16479 17.8835 8.66213 17.7871 8.17717C17.6906 7.69222 17.4525 7.24676 17.1029 6.89713C16.7532 6.5475 16.3078 6.3094 15.8228 6.21294C15.3379 6.11647 14.8352 6.16598 14.3784 6.3552C13.9216 6.54442 13.5311 6.86485 13.2564 7.27597C12.9817 7.6871 12.8351 8.17045 12.8351 8.6649C12.8351 9.32794 13.0985 9.96383 13.5673 10.4327C14.0362 10.9015 14.6721 11.1649 15.3351 11.1649ZM15.3351 7.3983C15.5856 7.3983 15.8305 7.47259 16.0389 7.61178C16.2472 7.75098 16.4095 7.94881 16.5054 8.18028C16.6013 8.41174 16.6263 8.66644 16.5775 8.91216C16.5286 9.15788 16.4079 9.38358 16.2308 9.56073C16.0536 9.73787 15.8279 9.85851 15.5822 9.90737C15.3364 9.95624 15.0817 9.93114 14.8503 9.83525C14.6188 9.73936 14.421 9.57699 14.2818 9.36867C14.1427 9.16035 14.0684 8.91543 14.0684 8.6649C14.0688 8.32909 14.2024 8.00716 14.4399 7.76971C14.6773 7.53227 14.9993 7.3987 15.3351 7.3983ZM8.6651 11.1649C9.15955 11.1649 9.6429 11.0183 10.054 10.7436C10.4651 10.4689 10.7856 10.0784 10.9748 9.62161C11.164 9.16479 11.2135 8.66213 11.1171 8.17717C11.0206 7.69222 10.7825 7.24676 10.4329 6.89713C10.0832 6.5475 9.63778 6.3094 9.15283 6.21294C8.66787 6.11647 8.16521 6.16598 7.70839 6.3552C7.25158 6.54442 6.86113 6.86485 6.58643 7.27597C6.31172 7.6871 6.1651 8.17045 6.1651 8.6649C6.1651 9.32791 6.42846 9.96376 6.89726 10.4326C7.36606 10.9014 8.00189 11.1648 8.6649 11.1649H8.6651ZM8.6651 7.3983C8.91563 7.39834 9.16051 7.47267 9.3688 7.61188C9.57708 7.7511 9.73941 7.94895 9.83525 8.18042C9.93109 8.41188 9.95614 8.66657 9.90723 8.91228C9.85832 9.15799 9.73766 9.38367 9.56049 9.5608C9.38332 9.73793 9.1576 9.85854 8.91189 9.90739C8.66617 9.95624 8.41149 9.93113 8.18004 9.83523C7.94859 9.73934 7.75078 9.57696 7.61162 9.36865C7.47245 9.16033 7.39818 8.91543 7.3982 8.6649C7.3986 8.32908 7.53218 8.00713 7.76965 7.76968C8.00712 7.53223 8.32908 7.39867 8.6649 7.3983H8.6651ZM8.6651 17.8351C9.15955 17.8351 9.6429 17.6885 10.054 17.4138C10.4651 17.1391 10.7856 16.7486 10.9748 16.2918C11.164 15.835 11.2135 15.3323 11.1171 14.8474C11.0206 14.3624 10.7825 13.917 10.4329 13.5673C10.0832 13.2177 9.63778 12.9796 9.15283 12.8831C8.66787 12.7867 8.16521 12.8362 7.70839 13.0254C7.25158 13.2146 6.86113 13.5351 6.58643 13.9462C6.31172 14.3573 6.1651 14.8406 6.1651 15.3351C6.1651 15.9981 6.42846 16.634 6.89726 17.1028C7.36606 17.5716 8.00189 17.835 8.6649 17.8351H8.6651ZM8.6651 14.0684C8.91563 14.0684 9.16053 14.1427 9.36884 14.2819C9.57715 14.4211 9.73951 14.6189 9.83538 14.8504C9.93125 15.0818 9.95634 15.3365 9.90746 15.5822C9.85859 15.8279 9.73794 16.0536 9.56079 16.2308C9.38364 16.4079 9.15794 16.5286 8.91222 16.5775C8.66651 16.6263 8.41181 16.6013 8.18036 16.5054C7.9489 16.4095 7.75106 16.2471 7.61188 16.0388C7.47269 15.8305 7.3984 15.5856 7.3984 15.3351C7.39877 14.9993 7.53232 14.6774 7.76975 14.4399C8.00717 14.2024 8.3291 14.0688 8.6649 14.0684H8.6651ZM15.3351 17.8351C15.8296 17.8351 16.3129 17.6885 16.724 17.4138C17.1351 17.1391 17.4556 16.7486 17.6448 16.2918C17.834 15.835 17.8835 15.3323 17.7871 14.8474C17.6906 14.3624 17.4525 13.917 17.1029 13.5673C16.7532 13.2177 16.3078 12.9796 15.8228 12.8831C15.3379 12.7867 14.8352 12.8362 14.3784 13.0254C13.9216 13.2146 13.5311 13.5351 13.2564 13.9462C12.9817 14.3573 12.8351 14.8406 12.8351 15.3351C12.8351 15.6634 12.8998 15.9885 13.0254 16.2918C13.151 16.5951 13.3352 16.8707 13.5673 17.1029C13.7995 17.335 14.0751 17.5192 14.3784 17.6448C14.6817 17.7704 15.0068 17.8351 15.3351 17.8351ZM15.3351 14.0684C15.5856 14.0684 15.8305 14.1427 16.0388 14.2819C16.2471 14.4211 16.4095 14.6189 16.5054 14.8504C16.6013 15.0818 16.6263 15.3365 16.5775 15.5822C16.5286 15.8279 16.4079 16.0536 16.2308 16.2308C16.0536 16.4079 15.8279 16.5286 15.5822 16.5775C15.3365 16.6263 15.0818 16.6013 14.8504 16.5054C14.6189 16.4095 14.4211 16.2471 14.2819 16.0388C14.1427 15.8305 14.0684 15.5856 14.0684 15.3351C14.0688 14.9993 14.2024 14.6773 14.4398 14.4398C14.6773 14.2024 14.9993 14.0688 15.3351 14.0684Z" fill="black"/>
</svg>
