<svg width="24" height="24" viewBox="0 0 24 24" fill="none" xmlns="http://www.w3.org/2000/svg">
<path d="M6.4792 11.99V12.5H17.5V11.99C17.5009 11.0647 17.8689 10.1775 18.5232 9.52322C19.1775 8.86892 20.0647 8.50093 20.99 8.5H21V8C21 7.20435 20.6839 6.44129 20.1213 5.87868C19.5587 5.31607 18.7956 5 18 5H6C5.20435 5 4.44129 5.31607 3.87868 5.87868C3.31607 6.44129 3 7.20435 3 8V8.501C3.92332 8.50465 4.80763 8.87372 5.4596 9.52752C6.11157 10.1813 6.47815 11.0667 6.4792 11.99ZM21.01 10H20.99C20.4622 10 19.9561 10.2097 19.5829 10.5829C19.2097 10.9561 19 11.4622 19 11.99V14H4.9792V11.99C4.96876 11.4692 4.75455 10.9733 4.38257 10.6087C4.01058 10.2441 3.51047 10.0399 2.9896 10.0399C2.46873 10.0399 1.96862 10.2441 1.59663 10.6087C1.22465 10.9733 1.01044 11.4692 1 11.99V17C1 17.5304 1.21071 18.0391 1.58579 18.4142C1.96086 18.7893 2.46957 19 3 19V21H4.5V19H19.5V21H21V19C21.5304 19 22.0391 18.7893 22.4142 18.4142C22.7893 18.0391 23 17.5304 23 17V11.99C23 11.4622 22.7903 10.9561 22.4171 10.5829C22.0439 10.2097 21.5378 10 21.01 10Z" fill="black"/>
</svg>
