<svg width="24" height="24" viewBox="0 0 24 24" fill="none" xmlns="http://www.w3.org/2000/svg">
<path d="M19 3H5C4.46957 3 3.96086 3.21071 3.58579 3.58579C3.21071 3.96086 3 4.46957 3 5V19C3 19.5304 3.21071 20.0391 3.58579 20.4142C3.96086 20.7893 4.46957 21 5 21H19C19.5304 21 20.0391 20.7893 20.4142 20.4142C20.7893 20.0391 21 19.5304 21 19V5C21 4.46957 20.7893 3.96086 20.4142 3.58579C20.0391 3.21071 19.5304 3 19 3ZM5.522 6.1C5.40333 6.1 5.28733 6.06481 5.18866 5.99888C5.08999 5.93295 5.01308 5.83925 4.96767 5.72961C4.92226 5.61997 4.91038 5.49933 4.93353 5.38295C4.95668 5.26656 5.01382 5.15965 5.09774 5.07574C5.18165 4.99182 5.28856 4.93468 5.40495 4.91153C5.52133 4.88838 5.64197 4.90026 5.75161 4.94567C5.86125 4.99109 5.95495 5.06799 6.02088 5.16666C6.08681 5.26533 6.122 5.38133 6.122 5.5C6.122 5.65913 6.05879 5.81174 5.94626 5.92426C5.83374 6.03679 5.68113 6.1 5.522 6.1ZM7.9639 6.1C7.84526 6.09988 7.72931 6.06459 7.63072 5.99859C7.53213 5.93259 7.45532 5.83884 7.41 5.72919C7.36468 5.61955 7.35288 5.49893 7.3761 5.38258C7.39932 5.26623 7.45651 5.15938 7.54045 5.07552C7.62438 4.99167 7.73129 4.93459 7.84767 4.91149C7.96404 4.88838 8.08465 4.9003 8.19425 4.94573C8.30385 4.99116 8.39752 5.06806 8.46342 5.16672C8.52933 5.26538 8.5645 5.38136 8.5645 5.5C8.5645 5.57884 8.54896 5.65691 8.51877 5.72975C8.48858 5.80258 8.44433 5.86875 8.38855 5.92448C8.33277 5.9802 8.26656 6.02438 8.19369 6.0545C8.12083 6.08462 8.04274 6.10008 7.9639 6.1ZM10.4062 6.1C10.2875 6.1 10.1715 6.06481 10.0729 5.99888C9.97419 5.93295 9.89728 5.83925 9.85187 5.72961C9.80646 5.61997 9.79458 5.49933 9.81773 5.38295C9.84088 5.26656 9.89802 5.15965 9.98194 5.07574C10.0658 4.99182 10.1728 4.93468 10.2891 4.91153C10.4055 4.88838 10.5262 4.90026 10.6358 4.94567C10.7454 4.99109 10.8392 5.06799 10.9051 5.16666C10.971 5.26533 11.0062 5.38133 11.0062 5.5C11.0062 5.65913 10.943 5.81174 10.8305 5.92426C10.7179 6.03679 10.5653 6.1 10.4062 6.1Z" fill="black"/>
</svg>
