<svg width="24" height="24" viewBox="0 0 24 24" fill="none" xmlns="http://www.w3.org/2000/svg">
<path d="M11.9998 9.0833C10.4354 9.08271 8.88646 9.39186 7.4422 9.99292C5.99795 10.594 4.68699 11.475 3.58496 12.5853L4.29976 13.3C5.3069 12.2815 6.50599 11.4728 7.82767 10.9206C9.14935 10.3685 10.5674 10.0839 11.9998 10.0833V9.0833ZM9.36036 18.3605L10.0596 19.0599C10.3133 18.8034 10.6155 18.5997 10.9485 18.4607C11.2815 18.3218 11.6387 18.2502 11.9996 18.2502C12.3604 18.2502 12.7177 18.3218 13.0507 18.4607C13.3837 18.5997 13.6858 18.8034 13.9396 19.0599L14.6388 18.3605C14.2949 18.009 13.8844 17.7296 13.4311 17.5389C12.9779 17.3482 12.4911 17.25 11.9994 17.25C11.5076 17.25 11.0209 17.3482 10.5676 17.5389C10.1144 17.7296 9.70378 18.009 9.35996 18.3605H9.36036ZM6.46816 15.4684L7.18526 16.1856C7.81351 15.5463 8.56281 15.0385 9.38942 14.6918C10.216 14.3452 11.1034 14.1667 11.9998 14.1667C12.8961 14.1667 13.7835 14.3452 14.6101 14.6918C15.4367 15.0385 16.186 15.5463 16.8143 16.1856L17.5314 15.4683C16.8066 14.7389 15.9448 14.16 14.9954 13.765C14.0461 13.37 13.028 13.1666 11.9998 13.1666C10.9715 13.1666 9.95342 13.37 9.00408 13.765C8.05474 14.16 7.1929 14.7389 6.46816 15.4683V15.4684ZM18.3885 8L18.6248 3H17.3748L17.6111 8H18.3885ZM17.9998 9.375C17.8761 9.375 17.7553 9.41166 17.6525 9.48033C17.5497 9.54901 17.4696 9.64662 17.4223 9.76082C17.375 9.87503 17.3627 10.0007 17.3868 10.1219C17.4109 10.2432 17.4704 10.3545 17.5578 10.4419C17.6452 10.5293 17.7566 10.5889 17.8778 10.613C17.9991 10.6371 18.1247 10.6247 18.2389 10.5774C18.3531 10.5301 18.4508 10.45 18.5194 10.3472C18.5881 10.2445 18.6248 10.1236 18.6248 10C18.6248 9.83424 18.5589 9.67527 18.4417 9.55806C18.3245 9.44085 18.1655 9.375 17.9998 9.375Z" fill="black"/>
</svg>
