<svg width="24" height="24" viewBox="0 0 24 24" fill="none" xmlns="http://www.w3.org/2000/svg">
<path d="M6.74999 12.0252V16.75H2.02539C2.07191 17.6164 2.36842 18.4508 2.87909 19.1522C3.38975 19.8537 4.09269 20.3921 4.90291 20.7025C5.71312 21.013 6.59591 21.082 7.44453 20.9013C8.29315 20.7206 9.07126 20.298 9.68476 19.6845C10.2983 19.0709 10.7209 18.2928 10.9015 17.4442C11.0822 16.5955 11.0131 15.7128 10.7027 14.9026C10.3922 14.0924 9.8537 13.3894 9.15223 12.8788C8.45076 12.3682 7.61639 12.0717 6.74999 12.0252ZM2.02539 16.25H6.24999V12.0252C5.14913 12.0855 4.10927 12.55 3.3297 13.3296C2.55012 14.1093 2.08568 15.1491 2.02539 16.25ZM20.5 12V21H21V12H20.5ZM14 21H14.5V14H14V21ZM17.25 21H17.75V17H17.25V21ZM20.498 3.8164L14.5557 9.2852L8.44429 3.66L2.16429 9.4412L2.50219 9.8084L8.44429 4.34L14.5557 9.965L20.8357 4.1838L20.498 3.8164Z" fill="black"/>
</svg>
