<svg width="24" height="24" viewBox="0 0 24 24" fill="none" xmlns="http://www.w3.org/2000/svg">
<path d="M15 5V4C15 3.46957 14.7893 2.96086 14.4142 2.58579C14.0391 2.21071 13.5304 2 13 2H11C10.4696 2 9.96086 2.21071 9.58579 2.58579C9.21071 2.96086 9 3.46957 9 4V5H3V5.5H21V5H15ZM14.5 5H9.5V4C9.50045 3.60231 9.65863 3.22104 9.93984 2.93984C10.221 2.65863 10.6023 2.50045 11 2.5H13C13.3977 2.50045 13.779 2.65863 14.0602 2.93984C14.3414 3.22104 14.4995 3.60231 14.5 4V5ZM6.2649 22H17.7349L19.09 7H4.91L6.2649 22ZM14.352 9.21C14.5893 9.21 14.8213 9.28038 15.0187 9.41224C15.216 9.54409 15.3698 9.73151 15.4607 9.95078C15.5515 10.1701 15.5752 10.4113 15.5289 10.6441C15.4826 10.8769 15.3684 11.0907 15.2005 11.2585C15.0327 11.4264 14.8189 11.5406 14.5861 11.5869C14.3533 11.6332 14.1121 11.6095 13.8928 11.5187C13.6735 11.4278 13.4861 11.274 13.3542 11.0767C13.2224 10.8793 13.152 10.6473 13.152 10.41C13.152 10.0917 13.2784 9.78652 13.5035 9.56147C13.7285 9.33643 14.0337 9.21 14.352 9.21ZM14.352 13.196C14.5893 13.196 14.8213 13.2664 15.0187 13.3982C15.216 13.5301 15.3698 13.7175 15.4607 13.9368C15.5515 14.1561 15.5752 14.3973 15.5289 14.6301C15.4826 14.8629 15.3684 15.0767 15.2005 15.2445C15.0327 15.4124 14.8189 15.5266 14.5861 15.5729C14.3533 15.6192 14.1121 15.5955 13.8928 15.5047C13.6735 15.4138 13.4861 15.26 13.3542 15.0627C13.2224 14.8653 13.152 14.6333 13.152 14.396C13.152 14.2384 13.183 14.0823 13.2433 13.9367C13.3036 13.7911 13.392 13.6588 13.5034 13.5473C13.6148 13.4359 13.7471 13.3475 13.8927 13.2872C14.0383 13.2268 14.1944 13.1958 14.352 13.1958V13.196ZM14.352 17.182C14.5893 17.182 14.8213 17.2524 15.0187 17.3842C15.216 17.5161 15.3698 17.7035 15.4607 17.9228C15.5515 18.142 15.5752 18.3833 15.5289 18.6161C15.4826 18.8489 15.3684 19.0627 15.2005 19.2305C15.0327 19.3984 14.8189 19.5126 14.5861 19.5589C14.3533 19.6052 14.1121 19.5815 13.8928 19.4907C13.6735 19.3998 13.4861 19.246 13.3542 19.0487C13.2224 18.8513 13.152 18.6193 13.152 18.382C13.152 18.2244 13.183 18.0683 13.2433 17.9227C13.3036 17.7771 13.392 17.6448 13.5034 17.5333C13.6148 17.4219 13.7471 17.3335 13.8927 17.2732C14.0383 17.2128 14.1944 17.1818 14.352 17.1818V17.182ZM9.648 9.21C9.88534 9.21 10.1173 9.28038 10.3147 9.41224C10.512 9.54409 10.6658 9.73151 10.7567 9.95078C10.8475 10.1701 10.8712 10.4113 10.8249 10.6441C10.7786 10.8769 10.6644 11.0907 10.4965 11.2585C10.3287 11.4264 10.1149 11.5406 9.88211 11.5869C9.64933 11.6332 9.40805 11.6095 9.18878 11.5187C8.96951 11.4278 8.78209 11.274 8.65024 11.0767C8.51838 10.8793 8.448 10.6473 8.448 10.41C8.448 10.0917 8.57443 9.78652 8.79947 9.56147C9.02452 9.33643 9.32974 9.21 9.648 9.21ZM9.648 13.196C9.88534 13.196 10.1173 13.2664 10.3147 13.3982C10.512 13.5301 10.6658 13.7175 10.7567 13.9368C10.8475 14.1561 10.8712 14.3973 10.8249 14.6301C10.7786 14.8629 10.6644 15.0767 10.4965 15.2445C10.3287 15.4124 10.1149 15.5266 9.88211 15.5729C9.64933 15.6192 9.40805 15.5955 9.18878 15.5047C8.96951 15.4138 8.78209 15.26 8.65024 15.0627C8.51838 14.8653 8.448 14.6333 8.448 14.396C8.44797 14.2384 8.47899 14.0823 8.53929 13.9367C8.59958 13.7911 8.68797 13.6588 8.7994 13.5473C8.91083 13.4359 9.04313 13.3475 9.18873 13.2872C9.33434 13.2268 9.4904 13.1958 9.648 13.1958V13.196ZM9.648 17.182C9.88534 17.182 10.1173 17.2524 10.3147 17.3842C10.512 17.5161 10.6658 17.7035 10.7567 17.9228C10.8475 18.142 10.8712 18.3833 10.8249 18.6161C10.7786 18.8489 10.6644 19.0627 10.4965 19.2305C10.3287 19.3984 10.1149 19.5126 9.88211 19.5589C9.64933 19.6052 9.40805 19.5815 9.18878 19.4907C8.96951 19.3998 8.78209 19.246 8.65024 19.0487C8.51838 18.8513 8.448 18.6193 8.448 18.382C8.44797 18.2244 8.47899 18.0683 8.53929 17.9227C8.59958 17.7771 8.68797 17.6448 8.7994 17.5333C8.91083 17.4219 9.04313 17.3335 9.18873 17.2732C9.33434 17.2128 9.4904 17.1818 9.648 17.1818V17.182Z" fill="black"/>
</svg>
