<svg width="24" height="24" viewBox="0 0 24 24" fill="none" xmlns="http://www.w3.org/2000/svg">
<path d="M22 12H20.496C20.5012 13.9367 19.8454 15.8173 18.6371 17.3309C17.4288 18.8444 15.7402 19.9004 13.8504 20.3243C11.9606 20.7483 9.98272 20.5147 8.24365 19.6623C6.50458 18.8098 5.1084 17.3895 4.28585 15.6361C3.4633 13.8827 3.26362 11.9012 3.7198 10.0189C4.17598 8.13665 5.26073 6.46637 6.79476 5.2841C8.32879 4.10184 10.2203 3.47836 12.1567 3.5167C14.093 3.55504 15.9584 4.25291 17.4444 5.49498L15.3105 7.62888C14.323 6.88892 13.1146 6.50416 11.8811 6.53697C10.6476 6.56979 9.46128 7.01827 8.51456 7.80969C7.56783 8.60111 6.91616 9.68909 6.66518 10.8973C6.4142 12.1054 6.57863 13.3629 7.13181 14.4659C7.685 15.5689 8.5945 16.4528 9.71289 16.9742C10.8313 17.4956 12.093 17.624 13.2935 17.3385C14.4939 17.0531 15.5628 16.3705 16.3268 15.4015C17.0908 14.4326 17.5052 13.2339 17.5027 12H16.0008C16.015 12.9012 15.7266 13.7811 15.1817 14.4991C14.6368 15.217 13.8669 15.7315 12.9951 15.9602C12.1233 16.189 11.1999 16.1187 10.3728 15.7608C9.54557 15.4028 8.86231 14.7778 8.43226 13.9857C8.00221 13.1936 7.8502 12.2802 8.00055 11.3915C8.1509 10.5028 8.59492 9.69022 9.2616 9.08366C9.92828 8.47711 10.7791 8.11165 11.678 8.04571C12.5769 7.97978 13.472 8.21719 14.22 8.71998L11.47 11.47C11.3375 11.6122 11.2654 11.8002 11.2688 11.9945C11.2723 12.1888 11.351 12.3742 11.4884 12.5116C11.6258 12.649 11.8112 12.7277 12.0055 12.7312C12.1998 12.7346 12.3878 12.6625 12.53 12.53L19.6011 5.45898L19.0711 4.92898C17.4352 3.29304 15.2826 2.27495 12.9802 2.04817C10.6778 1.8214 8.36798 2.39997 6.44432 3.68531C4.52067 4.97064 3.1022 6.88322 2.4306 9.09715C1.75901 11.3111 1.87585 13.6894 2.76121 15.8268C3.64656 17.9643 5.24566 19.7286 7.28604 20.8192C9.32642 21.9098 11.6818 22.2592 13.9509 21.8079C16.22 21.3565 18.2624 20.1323 19.7301 18.3439C21.1978 16.5555 22 14.3135 22 12Z" fill="black"/>
</svg>
