<svg width="24" height="24" viewBox="0 0 24 24" fill="none" xmlns="http://www.w3.org/2000/svg">
<path d="M17.9999 16C17.2572 16.0018 16.5419 16.2811 15.9944 16.7831L7.95452 12.45C7.98106 12.3014 7.99624 12.1509 7.99992 12C7.99624 11.8491 7.98106 11.6986 7.95452 11.55L15.9945 7.2173C16.5048 7.67453 17.1566 7.94265 17.8408 7.97681C18.5251 8.01096 19.2004 7.80908 19.7536 7.40493C20.3069 7.00079 20.7045 6.4189 20.8801 5.75664C21.0556 5.09438 20.9984 4.39192 20.718 3.76679C20.4376 3.14167 19.951 2.63181 19.3397 2.32252C18.7283 2.01323 18.0293 1.92328 17.3596 2.06772C16.6898 2.21216 16.09 2.58223 15.6605 3.116C15.2309 3.64977 14.9978 4.31487 14.9999 5C15.0035 5.15289 15.0188 5.30527 15.0458 5.4558L7.00992 9.7866C6.58052 9.39374 6.04611 9.13426 5.47183 9.03979C4.89755 8.94532 4.30818 9.01993 3.77556 9.25453C3.24294 9.48914 2.79006 9.87361 2.47211 10.3611C2.15415 10.8486 1.98486 11.418 1.98486 12C1.98486 12.582 2.15415 13.1514 2.47211 13.6389C2.79006 14.1264 3.24294 14.5109 3.77556 14.7455C4.30818 14.9801 4.89755 15.0547 5.47183 14.9602C6.04611 14.8657 6.58052 14.6063 7.00992 14.2134L15.046 18.5442C14.9541 19.1489 15.0497 19.7673 15.3198 20.3161C15.5898 20.8649 16.0215 21.3178 16.5568 21.6138C17.092 21.9099 17.7051 22.035 18.3135 21.9722C18.9219 21.9094 19.4965 21.6617 19.9599 21.2625C20.4234 20.8634 20.7535 20.3318 20.9058 19.7394C21.058 19.147 21.0252 18.5222 20.8118 17.949C20.5983 17.3758 20.2144 16.8818 19.7116 16.5333C19.2089 16.1849 18.6116 15.9987 17.9999 16Z" fill="black"/>
</svg>
