<svg width="24" height="24" viewBox="0 0 24 24" fill="none" xmlns="http://www.w3.org/2000/svg">
<path d="M12 2C10.0222 2 8.08879 2.58649 6.4443 3.6853C4.79981 4.78412 3.51809 6.3459 2.76121 8.17317C2.00433 10.0004 1.8063 12.0111 2.19215 13.9509C2.578 15.8907 3.53041 17.6725 4.92894 19.0711C6.32746 20.4696 8.10929 21.422 10.0491 21.8079C11.9889 22.1937 13.9996 21.9957 15.8268 21.2388C17.6541 20.4819 19.2159 19.2002 20.3147 17.5557C21.4135 15.9112 22 13.9778 22 12C21.9971 9.34874 20.9426 6.8069 19.0678 4.93218C17.1931 3.05745 14.6513 2.00294 12 2ZM12 20.5C10.3189 20.5 8.67548 20.0015 7.27766 19.0675C5.87984 18.1335 4.79037 16.806 4.14703 15.2528C3.50368 13.6996 3.33536 11.9906 3.66333 10.3417C3.9913 8.69289 4.80085 7.17834 5.9896 5.98959C7.17834 4.80085 8.6929 3.9913 10.3417 3.66333C11.9906 3.33535 13.6996 3.50368 15.2528 4.14702C16.806 4.79037 18.1335 5.87984 19.0675 7.27765C20.0015 8.67547 20.5 10.3189 20.5 12C20.4974 14.2535 19.601 16.414 18.0075 18.0075C16.414 19.601 14.2535 20.4974 12 20.5ZM7.6667 16.3333L13.49 13.49L16.3338 7.6671L10.5105 10.51L7.6667 16.3333ZM11.293 11.2933C11.4329 11.1534 11.611 11.0582 11.805 11.0196C11.999 10.981 12.2001 11.0008 12.3828 11.0765C12.5655 11.1522 12.7217 11.2804 12.8316 11.4448C12.9415 11.6093 13.0001 11.8026 13.0001 12.0004C13.0001 12.1982 12.9415 12.3915 12.8316 12.556C12.7217 12.7204 12.5655 12.8486 12.3828 12.9243C12.2001 13 11.999 13.0198 11.805 12.9812C11.611 12.9426 11.4329 12.8474 11.293 12.7075C11.2001 12.6146 11.1264 12.5044 11.0761 12.383C11.0258 12.2616 10.9999 12.1316 10.9999 12.0002C10.9999 11.8688 11.0258 11.7388 11.0761 11.6174C11.1264 11.496 11.2001 11.3858 11.293 11.2929V11.2933Z" fill="black"/>
</svg>
