<svg width="24" height="24" viewBox="0 0 24 24" fill="none" xmlns="http://www.w3.org/2000/svg">
<path d="M12.6681 21.7393C11.6643 21.7632 10.6657 21.5889 9.72945 21.2262C8.7932 20.8636 7.93769 20.3198 7.21196 19.626C6.51621 18.9257 5.98628 18.0783 5.66112 17.1463C5.33597 16.2142 5.22387 15.2211 5.33306 14.24C5.20026 14.1287 5.07299 14.0118 4.95126 13.8894C4.25139 13.1654 3.71991 12.2959 3.39473 11.3428C3.06955 10.3898 2.95869 9.37677 3.07006 8.37597C3.43987 5.72025 4.72641 3.27735 6.70706 1.46997L7.76766 2.52997C6.03758 4.09264 4.90484 6.20836 4.56356 8.51457C4.48085 9.21761 4.53828 9.93008 4.73255 10.6108C4.92681 11.2915 5.25405 11.927 5.69536 12.4805C6.38939 10.5001 7.54611 8.71389 9.06936 7.27047C10.3373 5.88644 11.9823 4.90339 13.8019 4.44237C14.4446 4.28158 15.1172 4.28235 15.7596 4.44463C16.4019 4.6069 16.9942 4.92562 17.4835 5.37237C18.9083 6.79717 19.0987 9.67607 16.1466 12.6282C12.9327 15.8421 9.37706 16.306 6.80576 15.1614C6.84403 16.4414 7.36854 17.6587 8.27256 18.5657C10.7296 21.0198 15.8326 21.1331 20.4581 16.5091L21.5187 17.5691C18.5724 20.5156 15.4083 21.7393 12.6681 21.7393ZM6.95616 13.56C8.97076 14.7455 12.0606 14.5932 15.0862 11.5678C17.2103 9.44377 17.3662 7.37637 16.4232 6.43297C16.1079 6.15988 15.7297 5.9695 15.3226 5.87899C14.9155 5.78847 14.4923 5.80067 14.0911 5.91447C12.5601 6.30894 11.1812 7.15019 10.1301 8.33107C8.60122 9.74072 7.50112 11.5531 6.95616 13.56Z" fill="black"/>
</svg>
