<svg width="24" height="24" viewBox="0 0 24 24" fill="none" xmlns="http://www.w3.org/2000/svg">
<path d="M9.36046 18.3605L10.0597 19.0599C10.3134 18.8034 10.6156 18.5997 10.9486 18.4607C11.2816 18.3218 11.6388 18.2502 11.9997 18.2502C12.3605 18.2502 12.7178 18.3218 13.0508 18.4607C13.3838 18.5997 13.6859 18.8034 13.9397 19.0599L14.6389 18.3605C14.295 18.009 13.8845 17.7296 13.4312 17.5389C12.978 17.3482 12.4912 17.25 11.9995 17.25C11.5077 17.25 11.021 17.3482 10.5677 17.5389C10.1145 17.7296 9.70388 18.009 9.36006 18.3605H9.36046ZM6.46826 15.4684L7.18536 16.1856C7.81361 15.5463 8.56291 15.0385 9.38952 14.6918C10.2161 14.3452 11.1035 14.1667 11.9999 14.1667C12.8962 14.1667 13.7836 14.3452 14.6102 14.6918C15.4368 15.0385 16.1861 15.5463 16.8144 16.1856L17.5315 15.4683C16.8067 14.7389 15.9449 14.16 14.9955 13.765C14.0462 13.37 13.0281 13.1666 11.9999 13.1666C10.9716 13.1666 9.95352 13.37 9.00418 13.765C8.05484 14.16 7.193 14.7389 6.46826 15.4683V15.4684ZM18.3886 8L18.6249 3H17.3749L17.6112 8H18.3886ZM17.9999 9.375C17.8762 9.375 17.7554 9.41166 17.6526 9.48033C17.5499 9.54901 17.4697 9.64662 17.4224 9.76082C17.3751 9.87503 17.3628 10.0007 17.3869 10.1219C17.411 10.2432 17.4705 10.3545 17.5579 10.4419C17.6453 10.5293 17.7567 10.5889 17.8779 10.613C17.9992 10.6371 18.1248 10.6247 18.239 10.5774C18.3532 10.5301 18.4509 10.45 18.5195 10.3472C18.5882 10.2445 18.6249 10.1236 18.6249 10C18.6249 9.83424 18.559 9.67527 18.4418 9.55806C18.3246 9.44085 18.1656 9.375 17.9999 9.375Z" fill="black"/>
</svg>
