<svg width="24" height="24" viewBox="0 0 24 24" fill="none" xmlns="http://www.w3.org/2000/svg">
<path d="M12 4.25C12.1483 4.25 12.2933 4.20601 12.4167 4.1236C12.54 4.04119 12.6361 3.92406 12.6929 3.78701C12.7497 3.64997 12.7645 3.49917 12.7356 3.35368C12.7067 3.2082 12.6352 3.07456 12.5303 2.96967C12.4254 2.86478 12.2918 2.79335 12.1463 2.76441C12.0008 2.73547 11.85 2.75032 11.713 2.80709C11.5759 2.86386 11.4588 2.95999 11.3764 3.08332C11.294 3.20666 11.25 3.35166 11.25 3.5C11.25 3.69891 11.329 3.88968 11.4697 4.03033C11.6103 4.17098 11.8011 4.25 12 4.25ZM12 11.25C11.8517 11.25 11.7067 11.294 11.5833 11.3764C11.46 11.4588 11.3639 11.5759 11.3071 11.713C11.2503 11.85 11.2355 12.0008 11.2644 12.1463C11.2934 12.2918 11.3648 12.4254 11.4697 12.5303C11.5746 12.6352 11.7082 12.7066 11.8537 12.7356C11.9992 12.7645 12.15 12.7497 12.287 12.6929C12.4241 12.6361 12.5412 12.54 12.6236 12.4167C12.706 12.2933 12.75 12.1483 12.75 12C12.75 11.8011 12.671 11.6103 12.5303 11.4697C12.3897 11.329 12.1989 11.25 12 11.25ZM12 19.75C11.8517 19.75 11.7067 19.794 11.5833 19.8764C11.46 19.9588 11.3639 20.0759 11.3071 20.213C11.2503 20.35 11.2355 20.5008 11.2644 20.6463C11.2934 20.7918 11.3648 20.9254 11.4697 21.0303C11.5746 21.1352 11.7082 21.2066 11.8537 21.2356C11.9992 21.2645 12.15 21.2497 12.287 21.1929C12.4241 21.1361 12.5412 21.04 12.6236 20.9167C12.706 20.7933 12.75 20.6483 12.75 20.5C12.75 20.3011 12.671 20.1103 12.5303 19.9697C12.3897 19.829 12.1989 19.75 12 19.75Z" fill="black"/>
</svg>
