<svg width="24" height="24" viewBox="0 0 24 24" fill="none" xmlns="http://www.w3.org/2000/svg">
<path d="M12 8V2C10.36 2 8.9526 4.47 8.3351 8H12ZM9.5424 2.3169C8.06612 2.6917 6.69482 3.39842 5.53293 4.38326C4.37105 5.3681 3.4492 6.60507 2.8376 8H7.3306C7.58121 5.95053 8.34166 3.99659 9.5424 2.3169ZM8.1837 9C7.93876 10.9925 7.93876 13.0075 8.1837 15H15.8163C15.9398 14.0048 16.0012 13.0028 16 12H12V9H8.1837ZM17 12C17 13.0028 16.9386 14.0047 16.8162 15H21.5408C21.8457 14.0292 22.0005 13.0175 22 12H17ZM8.3351 16C8.9526 19.5305 10.36 22 12 22C13.64 22 15.0474 19.5305 15.6649 16H8.3351ZM14.4576 21.6831C15.9339 21.3083 17.3052 20.6016 18.4671 19.6168C19.629 18.632 20.5508 17.395 21.1624 16H16.6694C16.4188 18.0495 15.6583 20.0034 14.4576 21.6831ZM7 12C6.99999 10.9972 7.06138 9.99531 7.1838 9H2.4592C1.84693 10.9531 1.84693 13.0469 2.4592 15H7.1838C7.06138 14.0047 6.99999 13.0028 7 12ZM2.8376 16C3.44916 17.395 4.37099 18.632 5.53288 19.6168C6.69478 20.6016 8.06609 21.3083 9.5424 21.6831C8.34166 20.0034 7.58121 18.0495 7.3306 16H2.8376ZM21 5H19.75V3.75C19.75 3.28587 19.5656 2.84075 19.2374 2.51256C18.9092 2.18437 18.4641 2 18 2C17.5359 2 17.0908 2.18437 16.7626 2.51256C16.4344 2.84075 16.25 3.28587 16.25 3.75V5H15V9H21V5ZM18.85 5H17.15V3.75C17.15 3.52457 17.2396 3.30837 17.399 3.14896C17.5584 2.98955 17.7746 2.9 18 2.9C18.2254 2.9 18.4416 2.98955 18.601 3.14896C18.7604 3.30837 18.85 3.52457 18.85 3.75V5Z" fill="black"/>
</svg>
