<svg width="24" height="24" viewBox="0 0 24 24" fill="none" xmlns="http://www.w3.org/2000/svg">
<path d="M19.2 3.5C19.5447 3.50034 19.8751 3.63742 20.1189 3.88114C20.3626 4.12486 20.4997 4.45532 20.5 4.8V9.2C20.4997 9.54468 20.3626 9.87514 20.1189 10.1189C19.8751 10.3626 19.5447 10.4997 19.2 10.5H14.8C14.4553 10.4997 14.1249 10.3626 13.8811 10.1189C13.6374 9.87514 13.5003 9.54468 13.5 9.2V4.8C13.5003 4.45532 13.6374 4.12486 13.8811 3.88114C14.1249 3.63742 14.4553 3.50034 14.8 3.5H19.2ZM9.2 3.5C9.54468 3.50034 9.87514 3.63742 10.1189 3.88114C10.3626 4.12486 10.4997 4.45532 10.5 4.8V9.2C10.4997 9.54468 10.3626 9.87514 10.1189 10.1189C9.87514 10.3626 9.54468 10.4997 9.2 10.5H4.8C4.45532 10.4997 4.12486 10.3626 3.88114 10.1189C3.63742 9.87514 3.50034 9.54468 3.5 9.2V4.8C3.50034 4.45532 3.63742 4.12486 3.88114 3.88114C4.12486 3.63742 4.45532 3.50034 4.8 3.5H9.2ZM19.2 13.5C19.5447 13.5003 19.8751 13.6374 20.1189 13.8811C20.3626 14.1249 20.4997 14.4553 20.5 14.8V19.2C20.4997 19.5447 20.3626 19.8751 20.1189 20.1189C19.8751 20.3626 19.5447 20.4997 19.2 20.5H14.8C14.4553 20.4997 14.1249 20.3626 13.8811 20.1189C13.6374 19.8751 13.5003 19.5447 13.5 19.2V14.8C13.5003 14.4553 13.6374 14.1249 13.8811 13.8811C14.1249 13.6374 14.4553 13.5003 14.8 13.5H19.2ZM9.2 13.5C9.54468 13.5003 9.87514 13.6374 10.1189 13.8811C10.3626 14.1249 10.4997 14.4553 10.5 14.8V19.2C10.4997 19.5447 10.3626 19.8751 10.1189 20.1189C9.87514 20.3626 9.54468 20.4997 9.2 20.5H4.8C4.45532 20.4997 4.12486 20.3626 3.88114 20.1189C3.63742 19.8751 3.50034 19.5447 3.5 19.2V14.8C3.50034 14.4553 3.63742 14.1249 3.88114 13.8811C4.12486 13.6374 4.45532 13.5003 4.8 13.5H9.2ZM19.2 3H14.8C14.3226 3 13.8648 3.18964 13.5272 3.52721C13.1896 3.86477 13 4.32261 13 4.8V9.2C13 9.67739 13.1896 10.1352 13.5272 10.4728C13.8648 10.8104 14.3226 11 14.8 11H19.2C19.6774 11 20.1352 10.8104 20.4728 10.4728C20.8104 10.1352 21 9.67739 21 9.2V4.8C21 4.56362 20.9534 4.32956 20.863 4.11117C20.7725 3.89278 20.6399 3.69435 20.4728 3.52721C20.3056 3.36006 20.1072 3.22748 19.8888 3.13702C19.6704 3.04656 19.4364 3 19.2 3ZM9.2 3H4.8C4.32261 3 3.86477 3.18964 3.52721 3.52721C3.18964 3.86477 3 4.32261 3 4.8V9.2C3 9.67739 3.18964 10.1352 3.52721 10.4728C3.86477 10.8104 4.32261 11 4.8 11H9.2C9.67739 11 10.1352 10.8104 10.4728 10.4728C10.8104 10.1352 11 9.67739 11 9.2V4.8C11 4.32261 10.8104 3.86477 10.4728 3.52721C10.1352 3.18964 9.67739 3 9.2 3ZM19.2 13H14.8C14.3226 13 13.8648 13.1896 13.5272 13.5272C13.1896 13.8648 13 14.3226 13 14.8V19.2C13 19.6774 13.1896 20.1352 13.5272 20.4728C13.8648 20.8104 14.3226 21 14.8 21H19.2C19.4364 21 19.6704 20.9534 19.8888 20.863C20.1072 20.7725 20.3056 20.6399 20.4728 20.4728C20.6399 20.3056 20.7725 20.1072 20.863 19.8888C20.9534 19.6704 21 19.4364 21 19.2V14.8C21 14.5636 20.9534 14.3296 20.863 14.1112C20.7725 13.8928 20.6399 13.6944 20.4728 13.5272C20.3056 13.3601 20.1072 13.2275 19.8888 13.137C19.6704 13.0466 19.4364 13 19.2 13ZM9.2 13H4.8C4.32261 13 3.86477 13.1896 3.52721 13.5272C3.18964 13.8648 3 14.3226 3 14.8V19.2C3 19.6774 3.18964 20.1352 3.52721 20.4728C3.86477 20.8104 4.32261 21 4.8 21H9.2C9.43638 21 9.67044 20.9534 9.88883 20.863C10.1072 20.7725 10.3056 20.6399 10.4728 20.4728C10.6399 20.3056 10.7725 20.1072 10.863 19.8888C10.9534 19.6704 11 19.4364 11 19.2V14.8C11 14.3226 10.8104 13.8648 10.4728 13.5272C10.1352 13.1896 9.67739 13 9.2 13Z" fill="black"/>
</svg>
