<svg width="24" height="24" viewBox="0 0 24 24" fill="none" xmlns="http://www.w3.org/2000/svg">
<path d="M2 4V20H22V4H2ZM21 19H3V5H21V19ZM12 7.1642L13.4141 8.5784L14.1213 7.8713L12 5.75L9.8787 7.8713L10.5859 8.5784L12 7.1642ZM14.1213 16.1287L13.4141 15.4216L12 16.8358L10.5859 15.4216L9.8787 16.1287L12 18.25L14.1213 16.1287ZM17.8787 14.1213L20 12L17.8787 9.8787L17.1716 10.5858L18.5859 12L17.1716 13.4142L17.8787 14.1213ZM6.8287 13.4142L5.4141 12L6.8284 10.5858L6.1213 9.8787L4 12L6.1213 14.1213L6.8287 13.4142Z" fill="black"/>
</svg>
