<svg width="24" height="24" viewBox="0 0 24 24" fill="none" xmlns="http://www.w3.org/2000/svg">
<path d="M19 3H5C4.46957 3 3.96086 3.21071 3.58579 3.58579C3.21071 3.96086 3 4.46957 3 5V19C3 19.5304 3.21071 20.0391 3.58579 20.4142C3.96086 20.7893 4.46957 21 5 21H19C19.5304 21 20.0391 20.7893 20.4142 20.4142C20.7893 20.0391 21 19.5304 21 19V5C21 4.46957 20.7893 3.96086 20.4142 3.58579C20.0391 3.21071 19.5304 3 19 3ZM19.5 19C19.5 19.1326 19.4473 19.2598 19.3536 19.3536C19.2598 19.4473 19.1326 19.5 19 19.5H5C4.86739 19.5 4.74021 19.4473 4.64645 19.3536C4.55268 19.2598 4.5 19.1326 4.5 19V5C4.5 4.86739 4.55268 4.74021 4.64645 4.64645C4.74021 4.55268 4.86739 4.5 5 4.5H19C19.1326 4.5 19.2598 4.55268 19.3536 4.64645C19.4473 4.74021 19.5 4.86739 19.5 5V19ZM16.25 7H7.75C7.55109 7 7.36032 7.07902 7.21967 7.21967C7.07902 7.36032 7 7.55109 7 7.75C7 7.94891 7.07902 8.13968 7.21967 8.28033C7.36032 8.42098 7.55109 8.5 7.75 8.5H16.25C16.4489 8.5 16.6397 8.42098 16.7803 8.28033C16.921 8.13968 17 7.94891 17 7.75C17 7.55109 16.921 7.36032 16.7803 7.21967C16.6397 7.07902 16.4489 7 16.25 7Z" fill="black"/>
</svg>
