<svg width="24" height="24" viewBox="0 0 24 24" fill="none" xmlns="http://www.w3.org/2000/svg">
<path d="M11.4692 16.8756H12V12H7.124L7.1245 12.5308H11.1157L3.418 20.2285L3.7715 20.582L11.4692 12.8843V16.8756ZM16.5 9C16.8978 9 17.2794 8.84196 17.5607 8.56066C17.842 8.27936 18 7.89782 18 7.5C18 7.10218 17.842 6.72064 17.5607 6.43934C17.2794 6.15804 16.8978 6 16.5 6H7.5C7.10218 6 6.72064 6.15804 6.43934 6.43934C6.15804 6.72064 6 7.10218 6 7.5C6 7.89782 6.15804 8.27936 6.43934 8.56066C6.72064 8.84196 7.10218 9 7.5 9H16.5ZM6.5 7.5C6.50032 7.23488 6.60578 6.98071 6.79324 6.79324C6.98071 6.60578 7.23488 6.50032 7.5 6.5H16.5C16.7652 6.5 17.0196 6.60536 17.2071 6.79289C17.3946 6.98043 17.5 7.23478 17.5 7.5C17.5 7.76522 17.3946 8.01957 17.2071 8.20711C17.0196 8.39464 16.7652 8.5 16.5 8.5H7.5C7.23488 8.49968 6.98071 8.39422 6.79324 8.20676C6.60578 8.01929 6.50032 7.76512 6.5 7.5ZM19 3H5C4.46957 3 3.96086 3.21071 3.58579 3.58579C3.21071 3.96086 3 4.46957 3 5V17.8184L3.5 17.3184V5C3.50045 4.60231 3.65863 4.22104 3.93984 3.93984C4.22104 3.65863 4.60231 3.50045 5 3.5H19C19.3977 3.50045 19.779 3.65863 20.0602 3.93984C20.3414 4.22104 20.4995 4.60231 20.5 5V19C20.4995 19.3977 20.3414 19.779 20.0602 20.0602C19.779 20.3414 19.3977 20.4995 19 20.5H6.6816L6.1816 21H19C19.5304 21 20.0391 20.7893 20.4142 20.4142C20.7893 20.0391 21 19.5304 21 19V5C21 4.46957 20.7893 3.96086 20.4142 3.58579C20.0391 3.21071 19.5304 3 19 3Z" fill="black"/>
</svg>
