<svg width="24" height="24" viewBox="0 0 24 24" fill="none" xmlns="http://www.w3.org/2000/svg">
<path d="M16 3H8C6.67392 3 5.40215 3.52678 4.46447 4.46447C3.52678 5.40215 3 6.67392 3 8V16C3 17.3261 3.52678 18.5979 4.46447 19.5355C5.40215 20.4732 6.67392 21 8 21H16C17.3261 21 18.5979 20.4732 19.5355 19.5355C20.4732 18.5979 21 17.3261 21 16V8C21 6.67392 20.4732 5.40215 19.5355 4.46447C18.5979 3.52678 17.3261 3 16 3ZM19.5 16C19.4989 16.9279 19.1298 17.8175 18.4737 18.4737C17.8175 19.1298 16.9279 19.4989 16 19.5H8C7.07208 19.4989 6.18247 19.1298 5.52632 18.4737C4.87018 17.8175 4.50109 16.9279 4.5 16V8C4.50109 7.07208 4.87018 6.18247 5.52632 5.52632C6.18247 4.87018 7.07208 4.50109 8 4.5H16C16.9279 4.50109 17.8175 4.87018 18.4737 5.52632C19.1298 6.18247 19.4989 7.07208 19.5 8V16ZM16.6455 10.2007C16.5586 9.95934 16.4531 9.72507 16.33 9.5C16.1966 9.28079 16.0464 9.07226 15.8808 8.8763L14.2563 9.69L12.873 8.8906L12.7646 7.077C12.5121 7.03163 12.2565 7.00588 12 7C11.7435 7.00588 11.4879 7.03163 11.2354 7.077L11.127 8.8906L9.7437 9.69L8.1191 8.8763C7.95349 9.07227 7.80334 9.28079 7.67 9.5C7.54694 9.72508 7.44149 9.95934 7.3546 10.2007L8.8707 11.2012V12.7988L7.3546 13.7988C7.44147 14.0403 7.54692 14.2748 7.67 14.5C7.80339 14.7192 7.95358 14.9277 8.1192 15.1237L9.7438 14.3105L11.1271 15.1094L11.2355 16.9229C11.488 16.9683 11.7436 16.9941 12 17C12.2565 16.9941 12.5121 16.9683 12.7646 16.9229L12.873 15.1094L14.2563 14.3105L15.8809 15.1237C16.0465 14.9277 16.1966 14.7192 16.33 14.5C16.4531 14.2749 16.5585 14.0406 16.6454 13.7992L15.1293 12.7992V11.2012L16.6455 10.2007ZM12 13.5147C11.7004 13.5147 11.4075 13.4259 11.1584 13.2595C10.9092 13.0931 10.715 12.8565 10.6004 12.5797C10.4857 12.3029 10.4557 11.9983 10.5141 11.7045C10.5725 11.4106 10.7168 11.1407 10.9286 10.9288C11.1405 10.7169 11.4104 10.5727 11.7043 10.5142C11.9981 10.4558 12.3027 10.4858 12.5795 10.6004C12.8563 10.7151 13.0929 10.9092 13.2593 11.1584C13.4258 11.4075 13.5146 11.7004 13.5146 12C13.5146 12.4017 13.355 12.787 13.071 13.071C12.787 13.3551 12.4017 13.5147 12 13.5147Z" fill="black"/>
</svg>
