<svg width="24" height="24" viewBox="0 0 24 24" fill="none" xmlns="http://www.w3.org/2000/svg">
<path d="M12.2502 12.7752V3H11.7502V12.7752C11.2006 12.8333 10.692 13.0928 10.3223 13.5036C9.9526 13.9144 9.74805 14.4475 9.74805 15.0002C9.74805 15.5529 9.9526 16.086 10.3223 16.4968C10.692 16.9076 11.2006 17.1671 11.7502 17.2252V21H12.2502V17.2248C12.7998 17.1667 13.3085 16.9072 13.6782 16.4964C14.0478 16.0856 14.2524 15.5525 14.2524 14.9998C14.2524 14.4471 14.0478 13.914 13.6782 13.5032C13.3085 13.0924 12.7998 12.8329 12.2502 12.7748V12.7752ZM12.0002 16.75C11.6541 16.75 11.3158 16.6474 11.028 16.4551C10.7402 16.2628 10.5159 15.9895 10.3834 15.6697C10.251 15.3499 10.2163 14.9981 10.2838 14.6586C10.3514 14.3191 10.518 14.0073 10.7628 13.7626C11.0075 13.5178 11.3193 13.3511 11.6588 13.2836C11.9983 13.2161 12.3501 13.2508 12.6699 13.3832C12.9897 13.5157 13.263 13.74 13.4553 14.0278C13.6476 14.3155 13.7502 14.6539 13.7502 15C13.7497 15.464 13.5651 15.9088 13.237 16.2368C12.909 16.5649 12.4642 16.7494 12.0002 16.75ZM19.2502 6.7752V3H18.7502V6.7752C18.2006 6.83331 17.692 7.09277 17.3223 7.5036C16.9526 7.91442 16.748 8.44753 16.748 9.0002C16.748 9.55287 16.9526 10.086 17.3223 10.4968C17.692 10.9076 18.2006 11.1671 18.7502 11.2252V21H19.2502V11.2248C19.7998 11.1667 20.3085 10.9072 20.6782 10.4964C21.0478 10.0856 21.2524 9.55247 21.2524 8.9998C21.2524 8.44713 21.0478 7.91402 20.6782 7.5032C20.3085 7.09237 19.7998 6.83291 19.2502 6.7748V6.7752ZM19.0002 10.75C18.6541 10.75 18.3158 10.6474 18.028 10.4551C17.7402 10.2628 17.5159 9.98947 17.3834 9.6697C17.251 9.34993 17.2163 8.99806 17.2838 8.65859C17.3514 8.31913 17.518 8.00731 17.7628 7.76256C18.0075 7.51782 18.3193 7.35115 18.6588 7.28363C18.9983 7.2161 19.3501 7.25076 19.6699 7.38321C19.9897 7.51566 20.263 7.73997 20.4553 8.02775C20.6476 8.31554 20.7502 8.65388 20.7502 9C20.7497 9.46396 20.5651 9.90875 20.237 10.2368C19.909 10.5649 19.4642 10.7494 19.0002 10.75ZM5.25022 6.7752V3H4.75022V6.7752C4.20061 6.83331 3.69196 7.09277 3.32228 7.5036C2.9526 7.91442 2.74805 8.44753 2.74805 9.0002C2.74805 9.55287 2.9526 10.086 3.32228 10.4968C3.69196 10.9076 4.20061 11.1671 4.75022 11.2252V21H5.25022V11.2248C5.79982 11.1667 6.30847 10.9072 6.67815 10.4964C7.04783 10.0856 7.25238 9.55247 7.25238 8.9998C7.25238 8.44713 7.04783 7.91402 6.67815 7.5032C6.30847 7.09237 5.79982 6.83291 5.25022 6.7748V6.7752ZM5.00022 10.75C4.6541 10.75 4.31575 10.6474 4.02797 10.4551C3.74018 10.2628 3.51588 9.98947 3.38343 9.6697C3.25097 9.34993 3.21632 8.99806 3.28384 8.65859C3.35137 8.31913 3.51804 8.00731 3.76278 7.76256C4.00752 7.51782 4.31934 7.35115 4.65881 7.28363C4.99827 7.2161 5.35014 7.25076 5.66991 7.38321C5.98968 7.51566 6.263 7.73997 6.45529 8.02775C6.64758 8.31554 6.75022 8.65388 6.75022 9C6.74966 9.46396 6.56511 9.90875 6.23704 10.2368C5.90897 10.5649 5.46417 10.7494 5.00022 10.75Z" fill="black"/>
</svg>
