<svg width="24" height="24" viewBox="0 0 24 24" fill="none" xmlns="http://www.w3.org/2000/svg">
<path d="M11 2.50002C11.9849 2.4994 12.9601 2.69337 13.8698 3.07078C14.7795 3.44818 15.6056 4.00159 16.3008 4.69922L18.1414 6.54002H14.4014V7.04002H18.9983V2.44352H18.4983V6.18442L16.6568 4.34322C15.538 3.22442 14.1125 2.46251 12.5607 2.15384C11.0089 1.84516 9.40034 2.00359 7.93855 2.60908C6.47675 3.21458 5.22733 4.23994 4.34828 5.55551C3.46922 6.87109 3.00002 8.41778 3 10H3.5C3.50225 8.01158 4.29315 6.10524 5.69918 4.6992C7.10522 3.29317 9.01157 2.50227 11 2.50002ZM16.8252 15.4717C18.2225 13.9926 19.0007 12.0348 19 10H18.5C18.5007 11.4834 18.0613 12.9336 17.2374 14.1672C16.4135 15.4007 15.2421 16.3621 13.8716 16.9296C12.5011 17.4971 10.993 17.6453 9.53824 17.3554C8.08347 17.0654 6.74742 16.3504 5.6992 15.3008L3.8586 13.46H7.5986V12.96H3.0015V17.5569H3.5015V13.8156L5.3427 15.6568C6.81111 17.1274 8.79493 17.9676 10.8729 17.999C12.9508 18.0304 14.9591 17.2506 16.4713 15.8251L22.3228 21.6767L22.6764 21.3231L16.8252 15.4717Z" fill="black"/>
</svg>
