<svg width="24" height="24" viewBox="0 0 24 24" fill="none" xmlns="http://www.w3.org/2000/svg">
<path d="M19.5 21H21V12H19.5V21ZM15 21H16.5V15H15V21ZM20.1592 3.4482L14.5557 8.6055L8.44429 2.9805L1.8252 9.0732L2.8408 10.1768L8.44429 5.02L14.5557 10.645L21.1748 4.5523L20.1592 3.4482ZM7.25 12.0756V17.25H2.0757C2.21218 18.0638 2.57013 18.8243 3.1103 19.4481C3.65047 20.0719 4.35198 20.5349 5.13791 20.7863C5.92384 21.0377 6.76383 21.0678 7.56575 20.8734C8.36768 20.6789 9.10057 20.2674 9.68404 19.6839C10.2675 19.1004 10.679 18.3675 10.8735 17.5656C11.0679 16.7637 11.0378 15.9237 10.7863 15.1377C10.5349 14.3518 10.0719 13.6503 9.4481 13.1102C8.8243 12.57 8.0638 12.2121 7.25 12.0756ZM2.0757 15.75H5.75V12.0756C4.83187 12.2308 3.98482 12.6679 3.3264 13.3264C2.66799 13.9848 2.23086 14.8319 2.0757 15.75Z" fill="black"/>
</svg>
