<svg width="24" height="24" viewBox="0 0 24 24" fill="none" xmlns="http://www.w3.org/2000/svg">
<path d="M22.2068 20.793L16.314 14.9C17.5653 13.2889 18.1556 11.2614 17.9646 9.23044C17.7736 7.19943 16.8156 5.31758 15.2859 3.96805C13.7561 2.61851 11.7695 1.90275 9.7305 1.96651C7.69152 2.03026 5.7535 2.86874 4.31103 4.31121C2.86855 5.75369 2.03008 7.69171 1.96632 9.73068C1.90257 11.7697 2.61833 13.7563 3.96786 15.286C5.3174 16.8158 7.19925 17.7737 9.23026 17.9648C11.2613 18.1558 13.2887 17.5655 14.8998 16.3142L20.7928 22.207L22.2068 20.793ZM9.99982 16C8.81313 16 7.65309 15.6481 6.6664 14.9888C5.6797 14.3295 4.91067 13.3925 4.45654 12.2961C4.00242 11.1997 3.8836 9.99335 4.11511 8.82946C4.34662 7.66558 4.91806 6.59648 5.75718 5.75736C6.59629 4.91825 7.66539 4.3468 8.82928 4.11529C9.99316 3.88378 11.1996 4.0026 12.2959 4.45673C13.3923 4.91085 14.3293 5.67989 14.9886 6.66658C15.6479 7.65328 15.9998 8.81331 15.9998 10C15.998 11.5907 15.3653 13.1158 14.2405 14.2407C13.1156 15.3655 11.5906 15.9982 9.99982 16Z" fill="black"/>
</svg>
