<svg width="24" height="24" viewBox="0 0 24 24" fill="none" xmlns="http://www.w3.org/2000/svg">
<path d="M15 5V4C15 3.46957 14.7893 2.96086 14.4142 2.58579C14.0391 2.21071 13.5304 2 13 2H11C10.4696 2 9.96086 2.21071 9.58579 2.58579C9.21071 2.96086 9 3.46957 9 4V5H3V5.5H4.7744L6.2649 22H17.7349L19.2257 5.5H21V5H15ZM9.5 4C9.50045 3.60231 9.65863 3.22104 9.93984 2.93984C10.221 2.65863 10.6023 2.50045 11 2.5H13C13.3977 2.50045 13.779 2.65863 14.0602 2.93984C14.3414 3.22104 14.4995 3.60231 14.5 4V5H9.5V4ZM17.2783 21.5H6.7217L5.2764 5.5H18.7237L17.2783 21.5ZM9.7393 15.6143L12 13.3535L14.2607 15.6143L14.6143 15.2607L12.3535 13L14.6143 10.7393L14.2607 10.3857L12 12.6465L9.7393 10.3857L9.3857 10.7393L11.6465 13L9.3857 15.2607L9.7393 15.6143Z" fill="black"/>
</svg>
