<svg width="24" height="24" viewBox="0 0 24 24" fill="none" xmlns="http://www.w3.org/2000/svg">
<path d="M8.6667 21H9.6667V20H8.6667V21ZM17.1667 21H18.1667V20H17.1667V21ZM5.8333 21H6.8333V20H5.8333V21ZM14.3333 21H15.3333V20H14.3333V21ZM9.6667 3H8.6667V4H9.6667V3ZM18.1667 3H17.1667V4H18.1667V3ZM6.8333 3H5.8333V4H6.8333V3ZM15.3333 3H14.3333V4H15.3333V3ZM20 11.5029H18.1667V11.5H17.1667V11.5029H15.3333V11.5H14.3333V11.5029H12.5V3H11.5V11.5028H9.6667V11.5H8.6667V11.5028H6.8333V11.5H5.8333V11.5028H3V12.5028H11.5V21H12.5V12.5029H21V11.5H20V11.5029ZM20 15.3329H21V14.3329H20V15.3329ZM20 6.8329H21V5.8329H20V6.8329ZM20 18.1662H21V17.1662H20V18.1662ZM20 9.6662H21V8.6662H20V9.6662ZM20 3V4H21V3H20ZM20 21H21V20H20V21ZM3 15.3333H4V14.3333H3V15.3333ZM4 5.8333H3V6.8333H4V5.8333ZM3 18.1666H4V17.1666H3V18.1666ZM4 8.6666H3V9.6666H4V8.6666ZM4 3H3V4H4V3ZM3 21H4V20H3V21Z" fill="black"/>
</svg>
