<svg width="24" height="24" viewBox="0 0 24 24" fill="none" xmlns="http://www.w3.org/2000/svg">
<path d="M16 3H8C6.67392 3 5.40215 3.52678 4.46447 4.46447C3.52678 5.40215 3 6.67392 3 8V16C3 17.3261 3.52678 18.5979 4.46447 19.5355C5.40215 20.4732 6.67392 21 8 21H16C17.3261 21 18.5979 20.4732 19.5355 19.5355C20.4732 18.5979 21 17.3261 21 16V8C21 6.67392 20.4732 5.40215 19.5355 4.46447C18.5979 3.52678 17.3261 3 16 3ZM19 16C18.9991 16.7954 18.6828 17.5579 18.1204 18.1204C17.5579 18.6828 16.7954 18.9991 16 19H8C7.20462 18.9991 6.44206 18.6828 5.87964 18.1204C5.31722 17.5579 5.00087 16.7954 5 16V8C5.00087 7.20462 5.31722 6.44206 5.87964 5.87964C6.44206 5.31722 7.20462 5.00087 8 5H16C16.7954 5.00087 17.5579 5.31722 18.1204 5.87964C18.6828 6.44206 18.9991 7.20462 19 8V16ZM16.6714 10.2609C16.4751 9.7394 16.1923 9.25469 15.835 8.8271L14.0918 9.5943L13.0376 8.9857L12.83 7.0836C12.5562 7.0326 12.2785 7.00464 12 7C11.7215 7.00464 11.4438 7.0326 11.17 7.0836L10.962 8.9857L9.9078 9.5943L8.1655 8.8271C7.80803 9.25467 7.52511 9.73938 7.3286 10.2609L8.8706 11.3909V12.6082L7.3286 13.7382C7.52478 14.2598 7.80755 14.7446 8.165 15.1721L9.9082 14.4048L10.9624 15.0135L11.1704 16.9156C11.4441 16.9668 11.7216 16.9951 12 17C12.2785 16.9954 12.5562 16.9674 12.83 16.9164L13.038 15.0143L14.0922 14.4056L15.8354 15.1729C16.1927 14.7452 16.4754 14.2605 16.6718 13.739L15.1298 12.609V11.3913L16.6714 10.2609ZM12 13.25C11.7528 13.25 11.5111 13.1767 11.3055 13.0393C11.1 12.902 10.9398 12.7068 10.8452 12.4784C10.7505 12.2499 10.7258 11.9986 10.774 11.7561C10.8222 11.5137 10.9413 11.2909 11.1161 11.1161C11.2909 10.9413 11.5137 10.8222 11.7561 10.774C11.9986 10.7258 12.2499 10.7505 12.4784 10.8452C12.7068 10.9398 12.902 11.1 13.0393 11.3055C13.1767 11.5111 13.25 11.7528 13.25 12C13.25 12.3315 13.1183 12.6495 12.8839 12.8839C12.6495 13.1183 12.3315 13.25 12 13.25Z" fill="black"/>
</svg>
