<svg width="24" height="24" viewBox="0 0 24 24" fill="none" xmlns="http://www.w3.org/2000/svg">
<path d="M9.8478 19.25C10.1366 19.25 10.4188 19.1644 10.6589 19.0039C10.899 18.8435 11.0862 18.6155 11.1967 18.3487C11.3072 18.0819 11.3361 17.7884 11.2797 17.5052C11.2234 17.222 11.0844 16.9618 10.8802 16.7576C10.676 16.5534 10.4158 16.4144 10.1326 16.3581C9.84942 16.3017 9.55586 16.3306 9.28908 16.4411C9.0223 16.5516 8.79428 16.7388 8.63385 16.9789C8.47343 17.219 8.3878 17.5012 8.3878 17.79C8.3878 18.1772 8.54162 18.5486 8.81542 18.8224C9.08923 19.0962 9.46058 19.25 9.8478 19.25ZM9.8478 16.83C10.0377 16.83 10.2233 16.8863 10.3811 16.9918C10.539 17.0973 10.6621 17.2472 10.7347 17.4226C10.8074 17.598 10.8264 17.7911 10.7894 17.9773C10.7523 18.1635 10.6609 18.3346 10.5266 18.4688C10.3924 18.6031 10.2213 18.6945 10.0351 18.7316C9.84887 18.7686 9.65584 18.7496 9.48042 18.6769C9.30501 18.6043 9.15508 18.4812 9.04959 18.3233C8.9441 18.1655 8.8878 17.9799 8.8878 17.79C8.88814 17.5355 8.9894 17.2915 9.16936 17.1116C9.34932 16.9316 9.5933 16.8303 9.8478 16.83ZM14.1522 19.25C14.441 19.25 14.7232 19.1644 14.9633 19.0039C15.2034 18.8435 15.3906 18.6155 15.5011 18.3487C15.6116 18.0819 15.6405 17.7884 15.5841 17.5052C15.5278 17.222 15.3888 16.9618 15.1846 16.7576C14.9804 16.5534 14.7202 16.4144 14.437 16.3581C14.1538 16.3017 13.8603 16.3306 13.5935 16.4411C13.3267 16.5516 13.0987 16.7388 12.9383 16.9789C12.7778 17.219 12.6922 17.5012 12.6922 17.79C12.6922 18.1772 12.846 18.5486 13.1198 18.8224C13.3936 19.0962 13.765 19.25 14.1522 19.25ZM14.1522 16.83C14.3421 16.83 14.5277 16.8863 14.6855 16.9918C14.8434 17.0973 14.9665 17.2472 15.0391 17.4226C15.1118 17.598 15.1308 17.7911 15.0938 17.9773C15.0567 18.1635 14.9653 18.3346 14.831 18.4688C14.6968 18.6031 14.5257 18.6945 14.3395 18.7316C14.1533 18.7686 13.9602 18.7496 13.7848 18.6769C13.6094 18.6043 13.4595 18.4812 13.354 18.3233C13.2485 18.1655 13.1922 17.9799 13.1922 17.79C13.1926 17.5355 13.2938 17.2915 13.4738 17.1116C13.6537 16.9316 13.8977 16.8304 14.1522 16.83ZM9.8478 14.856C10.1366 14.856 10.4188 14.7704 10.6589 14.6099C10.899 14.4495 11.0862 14.2215 11.1967 13.9547C11.3072 13.6879 11.3361 13.3944 11.2797 13.1112C11.2234 12.828 11.0844 12.5678 10.8802 12.3636C10.676 12.1594 10.4158 12.0204 10.1326 11.9641C9.84942 11.9077 9.55586 11.9366 9.28908 12.0471C9.0223 12.1576 8.79428 12.3448 8.63385 12.5849C8.47343 12.825 8.3878 13.1072 8.3878 13.396C8.3878 13.7832 8.54162 14.1546 8.81542 14.4284C9.08923 14.7022 9.46058 14.856 9.8478 14.856ZM9.8478 12.436C10.0377 12.436 10.2233 12.4923 10.3811 12.5978C10.539 12.7033 10.6621 12.8532 10.7347 13.0286C10.8074 13.204 10.8264 13.3971 10.7894 13.5833C10.7523 13.7695 10.6609 13.9406 10.5266 14.0748C10.3924 14.2091 10.2213 14.3005 10.0351 14.3376C9.84887 14.3746 9.65584 14.3556 9.48042 14.2829C9.30501 14.2103 9.15508 14.0872 9.04959 13.9293C8.9441 13.7715 8.8878 13.5859 8.8878 13.396C8.88804 13.1414 8.98925 12.8974 9.16922 12.7173C9.3492 12.5373 9.59324 12.436 9.8478 12.4357V12.436ZM14.1522 14.856C14.441 14.856 14.7232 14.7704 14.9633 14.6099C15.2034 14.4495 15.3906 14.2215 15.5011 13.9547C15.6116 13.6879 15.6405 13.3944 15.5841 13.1112C15.5278 12.828 15.3888 12.5678 15.1846 12.3636C14.9804 12.1594 14.7202 12.0204 14.437 11.9641C14.1538 11.9077 13.8603 11.9366 13.5935 12.0471C13.3267 12.1576 13.0987 12.3448 12.9383 12.5849C12.7778 12.825 12.6922 13.1072 12.6922 13.396C12.6922 13.7832 12.846 14.1546 13.1198 14.4284C13.3936 14.7022 13.765 14.856 14.1522 14.856ZM14.1522 12.436C14.3421 12.436 14.5277 12.4923 14.6855 12.5978C14.8434 12.7033 14.9665 12.8532 15.0391 13.0286C15.1118 13.204 15.1308 13.3971 15.0938 13.5833C15.0567 13.7695 14.9653 13.9406 14.831 14.0748C14.6968 14.2091 14.5257 14.3005 14.3395 14.3376C14.1533 14.3746 13.9602 14.3556 13.7848 14.2829C13.6094 14.2103 13.4595 14.0872 13.354 13.9293C13.2485 13.7715 13.1922 13.5859 13.1922 13.396C13.1925 13.1414 13.2937 12.8974 13.4737 12.7174C13.6536 12.5373 13.8976 12.436 14.1522 12.4357V12.436ZM9.8478 10.462C10.1366 10.462 10.4188 10.3764 10.6589 10.2159C10.899 10.0555 11.0862 9.8275 11.1967 9.56072C11.3072 9.29394 11.3361 9.00038 11.2797 8.71717C11.2234 8.43396 11.0844 8.17381 10.8802 7.96962C10.676 7.76544 10.4158 7.62639 10.1326 7.57005C9.84942 7.51372 9.55586 7.54263 9.28908 7.65314C9.0223 7.76364 8.79428 7.95077 8.63385 8.19087C8.47343 8.43096 8.3878 8.71324 8.3878 9.002C8.3878 9.38922 8.54162 9.76057 8.81542 10.0344C9.08923 10.3082 9.46058 10.462 9.8478 10.462ZM9.8478 8.042C10.0377 8.042 10.2233 8.0983 10.3811 8.20379C10.539 8.30927 10.6621 8.45921 10.7347 8.63462C10.8074 8.81004 10.8264 9.00307 10.7894 9.18929C10.7523 9.37551 10.6609 9.54656 10.5266 9.68082C10.3924 9.81508 10.2213 9.90651 10.0351 9.94355C9.84887 9.9806 9.65584 9.96158 9.48042 9.88892C9.30501 9.81626 9.15508 9.69322 9.04959 9.53535C8.9441 9.37748 8.8878 9.19187 8.8878 9.002C8.88804 8.74744 8.98925 8.50337 9.16922 8.32333C9.3492 8.1433 9.59324 8.04202 9.8478 8.0417V8.042ZM14.1522 10.462C14.441 10.462 14.7232 10.3764 14.9633 10.2159C15.2034 10.0555 15.3906 9.8275 15.5011 9.56072C15.6116 9.29394 15.6405 9.00038 15.5841 8.71717C15.5278 8.43396 15.3888 8.17381 15.1846 7.96962C14.9804 7.76544 14.7202 7.62639 14.437 7.57005C14.1538 7.51372 13.8603 7.54263 13.5935 7.65314C13.3267 7.76364 13.0987 7.95077 12.9383 8.19087C12.7778 8.43096 12.6922 8.71324 12.6922 9.002C12.6922 9.38922 12.846 9.76057 13.1198 10.0344C13.3936 10.3082 13.765 10.462 14.1522 10.462ZM14.1522 8.042C14.3421 8.042 14.5277 8.0983 14.6855 8.20379C14.8434 8.30927 14.9665 8.45921 15.0391 8.63462C15.1118 8.81004 15.1308 9.00307 15.0938 9.18929C15.0567 9.37551 14.9653 9.54656 14.831 9.68082C14.6968 9.81508 14.5257 9.90651 14.3395 9.94355C14.1533 9.9806 13.9602 9.96158 13.7848 9.88892C13.6094 9.81626 13.4595 9.69322 13.354 9.53535C13.2485 9.37748 13.1922 9.19187 13.1922 9.002C13.1925 8.74745 13.2937 8.50339 13.4737 8.32336C13.6536 8.14334 13.8976 8.04204 14.1522 8.0417V8.042ZM15 5V4C15 3.46957 14.7893 2.96086 14.4142 2.58579C14.0391 2.21071 13.5304 2 13 2H11C10.4696 2 9.96086 2.21071 9.58579 2.58579C9.21071 2.96086 9 3.46957 9 4V5H3V5.5H4.7744L6.2649 22H17.7349L19.2257 5.5H21V5H15ZM9.5 4C9.50045 3.60231 9.65863 3.22104 9.93984 2.93984C10.221 2.65863 10.6023 2.50045 11 2.5H13C13.3977 2.50045 13.779 2.65863 14.0602 2.93984C14.3414 3.22104 14.4995 3.60231 14.5 4V5H9.5V4ZM17.2783 21.5H6.7217L5.2764 5.5H18.7237L17.2783 21.5Z" fill="black"/>
</svg>
