<svg width="24" height="24" viewBox="0 0 24 24" fill="none" xmlns="http://www.w3.org/2000/svg">
<path d="M8.6667 21H9.6667V20H8.6667V21ZM17.1667 21H18.1667V20H17.1667V21ZM5.8333 21H6.8333V20H5.8333V21ZM14.3333 21H15.3333V20H14.3333V21ZM8.6667 4H9.6667V3H8.6667V4ZM17.1667 4H18.1667V3H17.1667V4ZM5.8333 4H6.8333V3H5.8333V4ZM14.3333 4H15.3333V3H14.3333V4ZM8.6667 12.5H9.6667V11.5H8.6667V12.5ZM17.1667 12.5H18.1667V11.5H17.1667V12.5ZM5.8333 12.5H6.8333V11.5H5.8333V12.5ZM14.3333 12.5H15.3333V11.5H14.3333V12.5ZM20 12.5H21V11.5H20V12.5ZM20 15.3333H21V14.3333H20V15.3333ZM20 6.8333H21V5.8333H20V6.8333ZM20 18.1666H21V17.1666H20V18.1666ZM20 9.6666H21V8.6666H20V9.6666ZM20 3V4H21V3H20ZM20 21H21V20H20V21ZM3 12.5H4V11.5H3V12.5ZM3 15.3333H4V14.3333H3V15.3333ZM3 6.8333H4V5.8333H3V6.8333ZM3 18.1666H4V17.1666H3V18.1666ZM3 9.6666H4V8.6666H3V9.6666ZM3 4H4V3H3V4ZM3 21H4V20H3V21ZM11.5 21H12.5V3H11.5V21Z" fill="black"/>
</svg>
