<svg width="24" height="24" viewBox="0 0 24 24" fill="none" xmlns="http://www.w3.org/2000/svg">
<path d="M12.0002 9.0833C10.4359 9.08271 8.88692 9.39186 7.44266 9.99292C5.99841 10.594 4.68745 11.475 3.58542 12.5853L4.30022 13.3C5.30736 12.2815 6.50645 11.4728 7.82813 10.9206C9.14981 10.3685 10.5679 10.0839 12.0002 10.0833V9.0833ZM9.36082 18.3605L10.06 19.0599C10.3138 18.8034 10.6159 18.5997 10.9489 18.4607C11.2819 18.3218 11.6392 18.2502 12 18.2502C12.3609 18.2502 12.7181 18.3218 13.0511 18.4607C13.3841 18.5997 13.6862 18.8034 13.94 19.0599L14.6393 18.3605C14.2955 18.009 13.8849 17.7296 13.4316 17.5389C12.9784 17.3482 12.4916 17.25 11.9999 17.25C11.5081 17.25 11.0214 17.3482 10.5681 17.5389C10.1148 17.7296 9.70425 18.009 9.36042 18.3605H9.36082ZM6.46862 15.4684L7.18572 16.1856C7.81397 15.5463 8.56326 15.0385 9.38987 14.6919C10.2165 14.3452 11.1038 14.1667 12.0002 14.1667C12.8965 14.1667 13.7839 14.3452 14.6105 14.6919C15.4371 15.0385 16.1864 15.5463 16.8146 16.1856L17.5318 15.4683C16.8071 14.7389 15.9452 14.16 14.9959 13.765C14.0466 13.37 13.0285 13.1666 12.0002 13.1666C10.972 13.1666 9.95388 13.37 9.00454 13.765C8.0552 14.16 7.19336 14.7389 6.46862 15.4683V15.4684ZM12.0002 5C9.89867 4.99727 7.81729 5.40988 5.87571 6.21411C3.93413 7.01835 2.17062 8.19835 0.686523 9.6863L1.40862 10.4085C2.79645 9.01195 4.44665 7.90352 6.26435 7.14695C8.08204 6.39038 10.0314 6.00059 12.0002 6V5ZM18.3888 8L18.6252 3H17.3752L17.6116 8H18.3888ZM18.0002 9.375C17.8766 9.375 17.7558 9.41166 17.653 9.48033C17.5502 9.54901 17.4701 9.64662 17.4228 9.76082C17.3755 9.87503 17.3631 10.0007 17.3872 10.1219C17.4113 10.2432 17.4709 10.3545 17.5583 10.4419C17.6457 10.5293 17.7571 10.5889 17.8783 10.613C17.9995 10.6371 18.1252 10.6247 18.2394 10.5774C18.3536 10.5301 18.4512 10.45 18.5199 10.3472C18.5886 10.2445 18.6252 10.1236 18.6252 10C18.6252 9.83424 18.5594 9.67527 18.4422 9.55806C18.325 9.44085 18.166 9.375 18.0002 9.375Z" fill="black"/>
</svg>
