<svg width="24" height="24" viewBox="0 0 24 24" fill="none" xmlns="http://www.w3.org/2000/svg">
<path d="M3 21H21V20.5H3V21ZM3.5 7.375H3V7.875H3.5V7.375ZM3.5 9.5625H3V10.0625H3.5V9.5625ZM3.5 18.3125H3V18.8125H3.5V18.3125ZM3.5 16.125H3V16.625H3.5V16.125ZM3.5 13.9375H3V14.4375H3.5V13.9375ZM3.5 5.1875H3V5.6875H3.5V5.1875ZM20.5 7.875H21V7.375H20.5V7.875ZM20.5 10.0625H21V9.5625H20.5V10.0625ZM20.5 18.8125H21V18.3125H20.5V18.8125ZM20.5 16.625H21V16.125H20.5V16.625ZM20.5 14.4375H21V13.9375H20.5V14.4375ZM20.5 5.6875H21V5.1875H20.5V5.6875ZM12.25 7.375H11.75V7.875H12.25V7.375ZM12.25 9.5625H11.75V10.0625H12.25V9.5625ZM12.25 18.3125H11.75V18.8125H12.25V18.3125ZM12.25 16.125H11.75V16.625H12.25V16.125ZM12.25 13.9375H11.75V14.4375H12.25V13.9375ZM12.25 5.1875H11.75V5.6875H12.25V5.1875ZM7.875 3H7.375V3.5H7.875V3ZM10.0625 3H9.5625V3.5H10.0625V3ZM18.8125 3H18.3125V3.5H18.8125V3ZM16.625 3H16.125V3.5H16.625V3ZM14.4375 3H13.9375V3.5H14.4375V3ZM5.6875 3H5.1875V3.5H5.6875V3ZM20.5 3V3.5H21V3H20.5ZM12.25 3H11.75V3.5H12.25V3ZM3.5 3H3V3.5H3.5V3ZM7.875 11.75H7.375V12.25H7.875V11.75ZM10.0625 11.75H9.5625V12.25H10.0625V11.75ZM18.8125 11.75H18.3125V12.25H18.8125V11.75ZM16.625 11.75H16.125V12.25H16.625V11.75ZM14.4375 11.75H13.9375V12.25H14.4375V11.75ZM5.6875 11.75H5.1875V12.25H5.6875V11.75ZM20.5 12.25H21V11.75H20.5V12.25ZM12.25 11.75H11.75V12.25H12.25V11.75ZM3.5 11.75H3V12.25H3.5V11.75Z" fill="black"/>
</svg>
