<svg width="24" height="24" viewBox="0 0 24 24" fill="none" xmlns="http://www.w3.org/2000/svg">
<path d="M16 3H8C6.67392 3 5.40215 3.52678 4.46447 4.46447C3.52678 5.40215 3 6.67392 3 8V16C3 17.3261 3.52678 18.5979 4.46447 19.5355C5.40215 20.4732 6.67392 21 8 21H16C17.3261 21 18.5979 20.4732 19.5355 19.5355C20.4732 18.5979 21 17.3261 21 16V8C21 6.67392 20.4732 5.40215 19.5355 4.46447C18.5979 3.52678 17.3261 3 16 3ZM20.5 16C20.4987 17.1931 20.0241 18.3369 19.1805 19.1805C18.3369 20.0241 17.1931 20.4987 16 20.5H8C6.80693 20.4987 5.66311 20.0241 4.81948 19.1805C3.97585 18.3369 3.50132 17.1931 3.5 16V8C3.50132 6.80693 3.97585 5.66311 4.81948 4.81948C5.66311 3.97585 6.80693 3.50132 8 3.5H16C17.1931 3.50132 18.3369 3.97585 19.1805 4.81948C20.0241 5.66311 20.4987 6.80693 20.5 8V16ZM16.7651 10.507C16.5531 9.80192 16.1799 9.15584 15.6751 8.6199L14.0751 9.3599L13.2479 8.8826L13.0888 7.1269C12.3724 6.95763 11.6264 6.95763 10.91 7.1269L10.7509 8.8825L9.9248 9.36L8.3248 8.62C7.81977 9.15565 7.44674 9.80179 7.2354 10.507L8.6754 11.5226V12.4772L7.2349 13.4929C7.44683 14.198 7.82002 14.8441 8.3249 15.38L9.9249 14.64L10.7516 15.1173L10.9107 16.8731C11.6271 17.0424 12.3731 17.0424 13.0895 16.8731L13.2486 15.1174L14.0753 14.6401L15.6753 15.3801C16.1804 14.8444 16.5534 14.1982 16.7646 13.4929L15.3246 12.4773V11.5227L16.7651 10.507ZM15.0361 12.8859L16.168 13.684C16.0166 14.0753 15.8056 14.4409 15.5425 14.7677L14.2852 14.1862L14.0498 14.0774L13.8252 14.2074L12.9985 14.6847L12.7739 14.8147L12.7505 15.0729L12.6255 16.4523C12.211 16.5168 11.789 16.5168 11.3745 16.4523L11.2495 15.0728L11.2261 14.8146L11.0015 14.6846L10.1748 14.2073L9.9502 14.0773L9.7148 14.1861L8.4575 14.7675C8.32664 14.604 8.20814 14.4311 8.103 14.25C7.99853 14.0685 7.90794 13.8793 7.832 13.6841L8.9639 12.8861L9.1758 12.7367V11.2634L8.9639 11.114L7.832 10.316C7.98341 9.92466 8.1944 9.55908 8.4575 9.2322L9.7148 9.8137L9.9502 9.9225L10.1748 9.7925L11.0015 9.3152L11.2261 9.1852L11.2495 8.927L11.3745 7.5476C11.789 7.4832 12.211 7.4832 12.6255 7.5476L12.7505 8.927L12.7739 9.1853L12.9985 9.3153L13.8257 9.7927L14.0503 9.9227L14.2856 9.8138L15.5425 9.2325C15.8054 9.55946 16.0163 9.92494 16.168 10.3161L15.0361 11.1141L14.8242 11.2635V12.7366L15.0361 12.8859ZM12 10.5C11.7033 10.5 11.4133 10.588 11.1666 10.7528C10.92 10.9176 10.7277 11.1519 10.6142 11.426C10.5006 11.7001 10.4709 12.0017 10.5288 12.2926C10.5867 12.5836 10.7296 12.8509 10.9393 13.0607C11.1491 13.2704 11.4164 13.4133 11.7074 13.4712C11.9983 13.5291 12.2999 13.4994 12.574 13.3858C12.8481 13.2723 13.0824 13.08 13.2472 12.8334C13.412 12.5867 13.5 12.2967 13.5 12C13.4995 11.6023 13.3414 11.221 13.0602 10.9398C12.779 10.6586 12.3977 10.5005 12 10.5ZM12 13C11.8022 13 11.6089 12.9414 11.4444 12.8315C11.28 12.7216 11.1518 12.5654 11.0761 12.3827C11.0004 12.2 10.9806 11.9989 11.0192 11.8049C11.0578 11.6109 11.153 11.4327 11.2929 11.2929C11.4327 11.153 11.6109 11.0578 11.8049 11.0192C11.9989 10.9806 12.2 11.0004 12.3827 11.0761C12.5654 11.1518 12.7216 11.28 12.8315 11.4444C12.9414 11.6089 13 11.8022 13 12C13 12.2652 12.8946 12.5196 12.7071 12.7071C12.5196 12.8946 12.2652 13 12 13Z" fill="black"/>
</svg>
