<svg width="24" height="24" viewBox="0 0 24 24" fill="none" xmlns="http://www.w3.org/2000/svg">
<path d="M19 3H5C4.46957 3 3.96086 3.21071 3.58579 3.58579C3.21071 3.96086 3 4.46957 3 5V19C3 19.5304 3.21071 20.0391 3.58579 20.4142C3.96086 20.7893 4.46957 21 5 21H19C19.5304 21 20.0391 20.7893 20.4142 20.4142C20.7893 20.0391 21 19.5304 21 19V5C21 4.46957 20.7893 3.96086 20.4142 3.58579C20.0391 3.21071 19.5304 3 19 3ZM20.5 19C20.4995 19.3977 20.3414 19.779 20.0602 20.0602C19.779 20.3414 19.3977 20.4995 19 20.5H5C4.60231 20.4995 4.22104 20.3414 3.93984 20.0602C3.65863 19.779 3.50045 19.3977 3.5 19V5C3.50045 4.60231 3.65863 4.22104 3.93984 3.93984C4.22104 3.65863 4.60231 3.50045 5 3.5H19C19.3977 3.50045 19.779 3.65863 20.0602 3.93984C20.3414 4.22104 20.4995 4.60231 20.5 5V19ZM5.4 5C5.32089 5 5.24355 5.02346 5.17777 5.06741C5.11199 5.11136 5.06072 5.17384 5.03045 5.24693C5.00017 5.32002 4.99225 5.40044 5.00769 5.47804C5.02312 5.55563 5.06122 5.6269 5.11716 5.68284C5.1731 5.73878 5.24437 5.77688 5.32196 5.79231C5.39956 5.80775 5.47998 5.79983 5.55307 5.76955C5.62616 5.73928 5.68864 5.68801 5.73259 5.62223C5.77654 5.55645 5.8 5.47911 5.8 5.4C5.8 5.29391 5.75786 5.19217 5.68284 5.11716C5.60783 5.04214 5.50609 5 5.4 5ZM9.8125 5C9.73339 5 9.65605 5.02346 9.59027 5.06741C9.52449 5.11136 9.47322 5.17384 9.44295 5.24693C9.41267 5.32002 9.40475 5.40044 9.42019 5.47804C9.43562 5.55563 9.47372 5.6269 9.52966 5.68284C9.5856 5.73878 9.65687 5.77688 9.73446 5.79231C9.81206 5.80775 9.89248 5.79983 9.96557 5.76955C10.0387 5.73928 10.1011 5.68801 10.1451 5.62223C10.189 5.55645 10.2125 5.47911 10.2125 5.4C10.2125 5.29391 10.1704 5.19217 10.0953 5.11716C10.0203 5.04214 9.91859 5 9.8125 5ZM7.606 5C7.52689 5 7.44955 5.02346 7.38377 5.06741C7.31799 5.11136 7.26672 5.17384 7.23645 5.24693C7.20617 5.32002 7.19825 5.40044 7.21369 5.47804C7.22912 5.55563 7.26722 5.6269 7.32316 5.68284C7.3791 5.73878 7.45037 5.77688 7.52796 5.79231C7.60556 5.80775 7.68598 5.79983 7.75907 5.76955C7.83216 5.73928 7.89464 5.68801 7.93859 5.62223C7.98254 5.55645 8.006 5.47911 8.006 5.4C8.006 5.29391 7.96386 5.19217 7.88884 5.11716C7.81383 5.04214 7.71209 5 7.606 5Z" fill="black"/>
</svg>
