<svg width="24" height="24" viewBox="0 0 24 24" fill="none" xmlns="http://www.w3.org/2000/svg">
<path d="M12.6699 21.9893C11.6331 22.0133 10.6017 21.8325 9.63477 21.4573C8.66788 21.0821 7.7845 20.5199 7.03524 19.8027C6.32742 19.0911 5.78409 18.2331 5.44345 17.289C5.10281 16.3448 4.97313 15.3375 5.06354 14.3379C4.96354 14.25 4.86724 14.1602 4.77444 14.0664C4.04861 13.3165 3.49722 12.4157 3.15959 11.4282C2.82197 10.4407 2.70644 9.39083 2.82124 8.35353C3.19571 5.63937 4.50769 3.14166 6.52994 1.29303L7.94394 2.70703C6.25586 4.22865 5.14882 6.28945 4.81214 8.53703C4.67691 9.72908 4.95699 10.9313 5.60514 11.9408C6.3417 10.1085 7.46272 8.4555 8.89254 7.09333C12.5565 3.42823 16.0077 3.54053 17.6601 5.19483C19.1708 6.70563 19.3964 9.73103 16.3231 12.8048C13.1831 15.9448 9.71964 16.5255 7.10154 15.5528C7.21478 16.6241 7.6905 17.6247 8.44994 18.3887C10.8171 20.7568 15.7699 20.8428 20.2809 16.332L21.695 17.7461C18.6972 20.7441 15.4716 21.9893 12.6699 21.9893ZM7.25294 13.4385C9.17974 14.4639 12.0684 14.2324 14.9092 11.3906C16.917 9.38233 17.1016 7.46483 16.2461 6.60893C15.2411 5.60503 12.8799 5.93413 10.3065 8.50733C8.85895 9.84262 7.80313 11.5476 7.25284 13.4385H7.25294Z" fill="black"/>
</svg>
