<svg width="24" height="24" viewBox="0 0 24 24" fill="none" xmlns="http://www.w3.org/2000/svg">
<path d="M19 3H5C4.46957 3 3.96086 3.21071 3.58579 3.58579C3.21071 3.96086 3 4.46957 3 5V19C3.00162 19.443 3.15152 19.8727 3.4258 20.2205L11.1158 12.5305H7.1245L7.124 12H12V16.8758H11.4692V12.8843L3.7792 20.5743C4.12714 20.8486 4.55693 20.9985 5 21H19C19.5304 21 20.0391 20.7893 20.4142 20.4142C20.7893 20.0391 21 19.5304 21 19V5C21 4.46957 20.7893 3.96086 20.4142 3.58579C20.0391 3.21071 19.5304 3 19 3ZM17 7H7C6.73478 7 6.48043 6.89464 6.29289 6.70711C6.10536 6.51957 6 6.26522 6 6C6 5.73478 6.10536 5.48043 6.29289 5.29289C6.48043 5.10536 6.73478 5 7 5H17C17.2652 5 17.5196 5.10536 17.7071 5.29289C17.8946 5.48043 18 5.73478 18 6C18 6.26522 17.8946 6.51957 17.7071 6.70711C17.5196 6.89464 17.2652 7 17 7Z" fill="black"/>
</svg>
