<svg width="24" height="24" viewBox="0 0 24 24" fill="none" xmlns="http://www.w3.org/2000/svg">
<path d="M11.25 6.0521V2.0379C8.82319 2.21598 6.54557 3.27642 4.84719 5.019L7.92919 7.605C8.84596 6.75205 10.0076 6.20882 11.25 6.0521ZM12.75 2.0379V6.0521C13.6445 6.16327 14.5024 6.47466 15.26 6.96311C16.0176 7.45156 16.6553 8.10451 17.1257 8.8734C17.5961 9.64229 17.8872 10.5073 17.9772 11.4042C18.0672 12.3011 17.9539 13.2067 17.6457 14.0538C17.3374 14.9008 16.8422 15.6675 16.1968 16.2967C15.5515 16.926 14.7725 17.4017 13.918 17.6884C13.0634 17.9752 12.1552 18.0656 11.2609 17.9529C10.3666 17.8402 9.50915 17.5274 8.75239 17.0377L6.17089 20.1142C7.42386 21.0157 8.86865 21.6148 10.392 21.8643C11.9153 22.1138 13.4757 22.007 14.9508 21.5522C16.4259 21.0975 17.7756 20.3073 18.894 19.2434C20.0125 18.1796 20.8693 16.8711 21.3972 15.4206C21.9252 13.9701 22.1099 12.417 21.9369 10.8831C21.7639 9.34923 21.2379 7.87628 20.4002 6.57978C19.5624 5.28328 18.4357 4.19849 17.1084 3.41048C15.7811 2.62246 14.2893 2.15265 12.75 2.0379ZM5.99999 12C5.99984 10.8471 6.33415 9.71884 6.96239 8.7521L3.88619 6.1706C2.48593 8.11046 1.82991 10.4892 2.03788 12.8726C2.24584 15.2559 3.30392 17.4851 5.01899 19.1531L7.60499 16.071C6.57407 14.966 6.00051 13.5112 5.99999 12Z" fill="black"/>
</svg>
