<svg width="24" height="24" viewBox="0 0 24 24" fill="none" xmlns="http://www.w3.org/2000/svg">
<path d="M11.75 2.0126C10.3756 2.04539 9.02294 2.36231 7.77705 2.94343C6.53115 3.52455 5.41904 4.35728 4.5107 5.3892L11.75 11.4636V2.0126ZM4.1855 5.77C2.58317 7.77264 1.81414 10.3157 2.03821 12.8706C2.26229 15.4256 3.46224 17.796 5.3887 19.4891L11.6479 12.031L4.1855 5.77ZM12.25 2.0126V12.0908L12.1914 12.1608L5.77 19.814C7.00947 20.8037 8.46668 21.4841 10.0212 21.7991C11.5757 22.1141 13.1829 22.0546 14.7098 21.6256C16.2368 21.1965 17.6397 20.4101 18.8026 19.3315C19.9655 18.2529 20.855 16.913 21.3975 15.4226C21.9401 13.9321 22.1201 12.334 21.9227 10.7602C21.7253 9.18642 21.1562 7.68222 20.2624 6.37194C19.3686 5.06165 18.1758 3.98291 16.7825 3.22488C15.3893 2.46686 13.8356 2.05131 12.25 2.0126Z" fill="black"/>
</svg>
