<svg width="24" height="24" viewBox="0 0 24 24" fill="none" xmlns="http://www.w3.org/2000/svg">
<path d="M16.6765 7.32337C16.3006 6.08323 15.6098 4.96165 14.6714 4.06796C13.733 3.17427 12.5791 2.53896 11.3221 2.22397C10.0651 1.90898 8.74793 1.92505 7.49899 2.27062C6.25006 2.61618 5.11197 3.27946 4.19567 4.19578C3.27936 5.1121 2.61611 6.25021 2.27057 7.49915C1.92503 8.74809 1.90899 10.0653 2.22401 11.3222C2.53903 12.5792 3.17436 13.7332 4.06807 14.6715C4.96178 15.6099 6.08338 16.3007 7.32353 16.6766C7.69944 17.9167 8.39026 19.0383 9.32865 19.932C10.267 20.8257 11.421 21.461 12.678 21.776C13.935 22.091 15.2521 22.0749 16.5011 21.7293C17.75 21.3838 18.8881 20.7205 19.8044 19.8042C20.7207 18.8878 21.3839 17.7497 21.7295 16.5008C22.075 15.2519 22.0911 13.9347 21.776 12.6777C21.461 11.4207 20.8257 10.2668 19.932 9.32842C19.0383 8.39006 17.9167 7.69926 16.6765 7.32337ZM3.90003 9.49997C3.89902 8.23841 4.32435 7.01353 5.107 6.02408C5.88965 5.03464 6.9837 4.33871 8.2116 4.04922C9.43949 3.75972 10.7292 3.89366 11.8714 4.42929C13.0136 4.96493 13.9413 5.87082 14.5039 6.99997H14.5C12.5109 6.99997 10.6032 7.79015 9.19673 9.19667C7.7902 10.6032 7.00003 12.5108 7.00003 14.5V14.5038C6.06987 14.0395 5.28725 13.3256 4.73976 12.4419C4.19227 11.5582 3.90151 10.5395 3.90003 9.49997ZM8.90003 14.5C8.90144 13.835 9.02202 13.1757 9.25603 12.5533L11.4466 14.744C10.8243 14.9781 10.165 15.0987 9.50003 15.1C9.30923 15.1 9.11855 15.0903 8.92873 15.071C8.90957 14.8812 8.89999 14.6907 8.90003 14.5ZM12.9029 13.9374L10.0629 11.0974C10.3616 10.7087 10.7098 10.3607 11.0985 10.0622L13.9385 12.9022C13.6397 13.2908 13.2916 13.6388 12.9028 13.9374H12.9029ZM15.1 9.49997C15.0987 10.1646 14.9782 10.8235 14.7443 11.4456L12.5543 9.25557C13.1764 9.02175 13.8354 8.90131 14.5 8.89997C14.6908 8.89998 14.8815 8.90966 15.0713 8.92897C15.0905 9.1187 15.1001 9.30928 15.1 9.49997ZM14.5 20.1C13.4604 20.0985 12.4418 19.8078 11.558 19.2603C10.6743 18.7128 9.96036 17.9301 9.49613 17H9.50003C11.4892 17 13.3968 16.2098 14.8033 14.8033C16.2098 13.3968 17 11.4891 17 9.49997V9.49617C18.1292 10.0588 19.0351 10.9864 19.5708 12.1287C20.1065 13.2709 20.2404 14.5606 19.9509 15.7885C19.6614 17.0164 18.9655 18.1105 17.976 18.8931C16.9865 19.6757 15.7616 20.101 14.5 20.1Z" fill="black"/>
</svg>
