<svg width="24" height="24" viewBox="0 0 24 24" fill="none" xmlns="http://www.w3.org/2000/svg">
<path d="M20.2599 4.09377C20.1661 4.00001 20.039 3.94733 19.9064 3.94733C19.7738 3.94733 19.6466 4.00001 19.5528 4.09377L11.9999 11.6465L9.13451 8.78107C9.73517 8.08882 10.0437 7.19045 9.99512 6.27521C9.94653 5.35998 9.54461 4.49933 8.87402 3.87457C8.20343 3.24981 7.31653 2.9097 6.40015 2.92591C5.48377 2.94211 4.60945 3.31336 3.96137 3.96144C3.31329 4.60951 2.94205 5.48384 2.92585 6.40022C2.90964 7.3166 3.24974 8.20349 3.87451 8.87408C4.49927 9.54467 5.35992 9.94659 6.27515 9.99518C7.19039 10.0438 8.08876 9.73524 8.78101 9.13457L11.6464 12L8.78101 14.8654C8.08876 14.2647 7.19039 13.9562 6.27515 14.0048C5.35992 14.0534 4.49927 14.4553 3.87451 15.1259C3.24974 15.7964 2.90964 16.6833 2.92585 17.5997C2.94205 18.5161 3.31329 19.3904 3.96137 20.0385C4.60945 20.6866 5.48377 21.0578 6.40015 21.074C7.31653 21.0902 8.20343 20.7501 8.87402 20.1254C9.54461 19.5006 9.94653 18.64 9.99512 17.7247C10.0437 16.8095 9.73517 15.9111 9.13451 15.2189L11.9999 12.3535L19.5526 19.9062C19.6464 19.9999 19.7736 20.0526 19.9062 20.0526C20.0388 20.0526 20.1659 19.9999 20.2597 19.9062L12.3534 12L20.2599 4.09377ZM3.49991 6.49997C3.49991 5.90663 3.67586 5.32661 4.0055 4.83326C4.33515 4.33991 4.80368 3.9554 5.35186 3.72833C5.90004 3.50127 6.50324 3.44186 7.08518 3.55762C7.66712 3.67337 8.20167 3.95909 8.62123 4.37865C9.04079 4.79821 9.32651 5.33276 9.44227 5.9147C9.55802 6.49664 9.49861 7.09984 9.27155 7.64802C9.04449 8.1962 8.65997 8.66474 8.16662 8.99438C7.67327 9.32402 7.09325 9.49997 6.49991 9.49997C5.70454 9.49907 4.942 9.18271 4.37958 8.6203C3.81717 8.05788 3.50081 7.29534 3.49991 6.49997ZM6.49991 20.5C5.90657 20.5 5.32655 20.324 4.8332 19.9944C4.33985 19.6647 3.95533 19.1962 3.72827 18.648C3.50121 18.0998 3.4418 17.4966 3.55755 16.9147C3.67331 16.3328 3.95903 15.7982 4.37859 15.3787C4.79815 14.9591 5.3327 14.6734 5.91464 14.5576C6.49658 14.4419 7.09978 14.5013 7.64796 14.7283C8.19614 14.9554 8.66467 15.3399 8.99432 15.8333C9.32396 16.3266 9.49991 16.9066 9.49991 17.5C9.49901 18.2953 9.18265 19.0579 8.62024 19.6203C8.05782 20.1827 7.29528 20.4991 6.49991 20.5Z" fill="black"/>
</svg>
