<svg width="24" height="24" viewBox="0 0 24 24" fill="none" xmlns="http://www.w3.org/2000/svg">
<path d="M12 24C12.5813 23.9996 13.1452 23.8013 13.5988 23.4378C14.0525 23.0743 14.3689 22.5672 14.4961 22H9.5039C9.63106 22.5672 9.9475 23.0743 10.4012 23.4378C10.8548 23.8013 11.4187 23.9996 12 24ZM20.873 16.0059C20.5953 15.7282 20.3752 15.3984 20.2254 15.0354C20.0755 14.6724 19.999 14.2833 20 13.8906V9C20 6.87827 19.1571 4.84344 17.6569 3.34315C16.1566 1.84285 14.1217 1 12 1C9.87827 1 7.84344 1.84285 6.34315 3.34315C4.84285 4.84344 4 6.87827 4 9V13.8906C4.00099 14.2835 3.92428 14.6728 3.77429 15.036C3.62429 15.3991 3.40397 15.7291 3.126 16.0068L2 17.1377V20H22V17.1377L20.873 16.0059ZM15.003 12.8716L13.8712 14.0034L12 12.1318L10.1284 14.0034L8.9966 12.8716L10.8682 11L8.9966 9.1284L10.1284 7.9966L12 9.8682L13.8716 7.9966L15.0034 9.1284L13.1318 11L15.003 12.8716Z" fill="black"/>
</svg>
