<svg width="24" height="24" viewBox="0 0 24 24" fill="none" xmlns="http://www.w3.org/2000/svg">
<path d="M18 7H6C4.67392 7 3.40215 7.52678 2.46447 8.46447C1.52678 9.40215 1 10.6739 1 12C1 13.3261 1.52678 14.5979 2.46447 15.5355C3.40215 16.4732 4.67392 17 6 17H18C19.3261 17 20.5979 16.4732 21.5355 15.5355C22.4732 14.5979 23 13.3261 23 12C23 10.6739 22.4732 9.40215 21.5355 8.46447C20.5979 7.52678 19.3261 7 18 7ZM18 15.5H6C5.07174 15.5 4.1815 15.1313 3.52513 14.4749C2.86875 13.8185 2.5 12.9283 2.5 12C2.5 11.0717 2.86875 10.1815 3.52513 9.52513C4.1815 8.86875 5.07174 8.5 6 8.5H18C18.9283 8.5 19.8185 8.86875 20.4749 9.52513C21.1313 10.1815 21.5 11.0717 21.5 12C21.5 12.9283 21.1313 13.8185 20.4749 14.4749C19.8185 15.1313 18.9283 15.5 18 15.5ZM7 12.75H17V11.25H7V12.75Z" fill="black"/>
</svg>
