<svg width="24" height="24" viewBox="0 0 24 24" fill="none" xmlns="http://www.w3.org/2000/svg">
<path d="M12 10.85C11.7726 10.85 11.5502 10.9174 11.3611 11.0438C11.172 11.1702 11.0246 11.3498 10.9375 11.5599C10.8505 11.77 10.8277 12.0013 10.8721 12.2244C10.9165 12.4474 11.026 12.6523 11.1868 12.8132C11.3477 12.974 11.5526 13.0835 11.7757 13.1279C11.9987 13.1723 12.23 13.1495 12.4401 13.0625C12.6502 12.9754 12.8298 12.828 12.9562 12.6389C13.0826 12.4498 13.15 12.2274 13.15 12C13.15 11.695 13.0288 11.4025 12.8132 11.1868C12.5975 10.9712 12.305 10.85 12 10.85ZM17 10.85C16.7726 10.85 16.5502 10.9174 16.3611 11.0438C16.172 11.1702 16.0246 11.3498 15.9375 11.5599C15.8505 11.77 15.8277 12.0013 15.8721 12.2244C15.9165 12.4474 16.026 12.6523 16.1868 12.8132C16.3477 12.974 16.5526 13.0835 16.7757 13.1279C16.9987 13.1723 17.23 13.1495 17.4401 13.0625C17.6502 12.9754 17.8298 12.828 17.9562 12.6389C18.0826 12.4498 18.15 12.2274 18.15 12C18.15 11.695 18.0288 11.4025 17.8132 11.1868C17.5975 10.9712 17.305 10.85 17 10.85ZM7 10.85C6.77256 10.85 6.55021 10.9174 6.3611 11.0438C6.17198 11.1702 6.02458 11.3498 5.93754 11.5599C5.8505 11.77 5.82773 12.0013 5.8721 12.2244C5.91647 12.4474 6.026 12.6523 6.18683 12.8132C6.34766 12.974 6.55257 13.0835 6.77565 13.1279C6.99873 13.1723 7.22996 13.1495 7.44009 13.0625C7.65023 12.9754 7.82983 12.828 7.95619 12.6389C8.08256 12.4498 8.15 12.2274 8.15 12C8.15 11.695 8.02884 11.4025 7.81318 11.1868C7.59751 10.9712 7.305 10.85 7 10.85ZM12 2C10.0222 2 8.08879 2.58649 6.4443 3.6853C4.79981 4.78412 3.51809 6.3459 2.76121 8.17317C2.00433 10.0004 1.8063 12.0111 2.19215 13.9509C2.578 15.8907 3.53041 17.6725 4.92894 19.0711C6.32746 20.4696 8.10929 21.422 10.0491 21.8079C11.9889 22.1937 13.9996 21.9957 15.8268 21.2388C17.6541 20.4819 19.2159 19.2002 20.3147 17.5557C21.4135 15.9112 22 13.9778 22 12C22 10.6868 21.7413 9.38642 21.2388 8.17317C20.7363 6.95991 19.9997 5.85752 19.0711 4.92893C18.1425 4.00035 17.0401 3.26375 15.8268 2.7612C14.6136 2.25866 13.3132 2 12 2ZM12 20.5C10.3189 20.5 8.67548 20.0015 7.27766 19.0675C5.87984 18.1335 4.79037 16.806 4.14703 15.2528C3.50368 13.6996 3.33536 11.9906 3.66333 10.3417C3.9913 8.69289 4.80085 7.17834 5.9896 5.98959C7.17834 4.80085 8.6929 3.9913 10.3417 3.66333C11.9906 3.33535 13.6996 3.50368 15.2528 4.14702C16.806 4.79037 18.1335 5.87984 19.0675 7.27765C20.0015 8.67547 20.5 10.3189 20.5 12C20.4974 14.2535 19.601 16.414 18.0075 18.0075C16.414 19.601 14.2535 20.4974 12 20.5Z" fill="black"/>
</svg>
