<svg width="24" height="24" viewBox="0 0 24 24" fill="none" xmlns="http://www.w3.org/2000/svg">
<path d="M14 5V7H19V5H14ZM14 13H19V11H14V13ZM14 19H19V17H14V19ZM9 17H8C7.73487 16.9997 7.48069 16.8943 7.29321 16.7068C7.10574 16.5193 7.00029 16.2651 7 16V8C7.00029 7.73487 7.10574 7.48069 7.29321 7.29321C7.48069 7.10574 7.73487 7.00029 8 7H11V5H8C7.20435 5 6.44129 5.31607 5.87868 5.87868C5.31607 6.44129 5 7.20435 5 8V16C5 16.7956 5.31607 17.5587 5.87868 18.1213C6.44129 18.6839 7.20435 19 8 19H9V21.2083L12.0416 18.1667L9 15.1251V17Z" fill="black"/>
</svg>
