<svg width="24" height="24" viewBox="0 0 24 24" fill="none" xmlns="http://www.w3.org/2000/svg">
<path d="M14.4641 6.53592C14.7959 7.11877 15.3124 7.57452 15.9319 7.83123C16.5515 8.08794 17.239 8.131 17.8858 7.9536C18.5325 7.77621 19.1018 7.38846 19.5038 6.85157C19.9057 6.31468 20.1174 5.65922 20.1054 4.98866C20.0934 4.31809 19.8584 3.67062 19.4376 3.14844C19.0167 2.62626 18.4339 2.25911 17.7812 2.10494C17.1285 1.95078 16.443 2.01838 15.833 2.29707C15.223 2.57577 14.7232 3.04969 14.4124 3.64402C12.8782 3.37944 11.3009 3.54244 9.8532 4.11513C8.40556 4.68781 7.14356 5.64808 6.20561 6.89062L7.00561 7.49122C7.81846 6.4142 8.90778 5.57738 10.1579 5.06958C11.4081 4.56179 12.7724 4.40198 14.106 4.60712C14.0036 5.27205 14.1299 5.95206 14.4641 6.53592ZM15.13 4.51822C15.2439 4.09326 15.4948 3.7177 15.8437 3.44966C16.1925 3.18161 16.62 3.03602 17.06 3.03542C17.4114 3.03482 17.7567 3.12676 18.0612 3.302C18.3657 3.47723 18.6187 3.72957 18.7947 4.03364C18.9708 4.3377 19.0636 4.68276 19.0639 5.03411C19.0642 5.38545 18.972 5.73068 18.7965 6.03506C18.6211 6.33945 18.3685 6.59225 18.0643 6.76803C17.7601 6.94381 17.415 7.03638 17.0636 7.03642C16.7123 7.03645 16.3671 6.94396 16.0629 6.76824C15.7586 6.59252 15.5061 6.33977 15.3305 6.03542C15.1985 5.80834 15.1127 5.55732 15.0783 5.2969C15.0439 5.03647 15.0615 4.77181 15.13 4.51822ZM20.8218 8.67002L19.9018 9.06262C20.4281 10.3051 20.6081 11.6669 20.4228 13.0035C20.2375 14.34 19.6937 15.6015 18.8493 16.6539C18.2599 16.1953 17.5198 15.9746 16.7754 16.0355C16.031 16.0963 15.3366 16.4344 14.8295 16.9827C14.3224 17.531 14.0396 18.2496 14.0369 18.9965C14.0343 19.7433 14.312 20.4639 14.8152 21.0158C15.3184 21.5677 16.0104 21.9107 16.7543 21.9768C17.4982 22.043 18.2399 21.8275 18.8326 21.3731C19.4252 20.9187 19.8258 20.2584 19.955 19.5228C20.0842 18.7872 19.9326 18.0299 19.5302 17.4007C20.5266 16.2045 21.1742 14.7569 21.4021 13.2168C21.6299 11.6766 21.4292 10.1035 20.8218 8.67002ZM17 21C16.6044 21 16.2178 20.8827 15.8889 20.663C15.56 20.4432 15.3036 20.1308 15.1523 19.7654C15.0009 19.3999 14.9613 18.9978 15.0384 18.6098C15.1156 18.2219 15.3061 17.8655 15.5858 17.5858C15.8655 17.3061 16.2219 17.1156 16.6098 17.0384C16.9978 16.9613 17.3999 17.0009 17.7654 17.1523C18.1308 17.3036 18.4432 17.56 18.663 17.8889C18.8827 18.2178 19 18.6045 19 19C18.9994 19.5303 18.7885 20.0386 18.4136 20.4136C18.0386 20.7885 17.5303 20.9994 17 21ZM6.04001 14.7277C6.66749 14.4884 7.19492 14.0428 7.53561 13.4641C7.8653 12.8925 7.99721 12.2281 7.91089 11.5738C7.82458 10.9196 7.52487 10.3121 7.05822 9.84553C6.59157 9.37895 5.98404 9.07933 5.3298 8.99312C4.67555 8.90691 4.01115 9.03892 3.43956 9.36869C2.86797 9.69847 2.42112 10.2076 2.16829 10.8171C1.91545 11.4267 1.87074 12.1026 2.04109 12.7401C2.21144 13.3776 2.58734 13.9412 3.11051 14.3433C3.63368 14.7455 4.27492 14.9639 4.93481 14.9646C4.97551 14.9646 5.01431 14.9507 5.05481 14.949C5.59185 16.4115 6.52163 17.6977 7.74199 18.6662C8.96235 19.6347 10.4261 20.2481 11.9723 20.439L12.0923 19.4458C10.7511 19.2802 9.47996 18.754 8.41417 17.9231C7.34838 17.0923 6.52787 15.988 6.04001 14.7277ZM4.93481 13.9646C4.49453 13.9641 4.06672 13.8183 3.71772 13.5499C3.36871 13.2815 3.11799 12.9054 3.00442 12.4801C2.89086 12.0547 2.92079 11.6037 3.08958 11.1971C3.25837 10.7904 3.55659 10.4508 3.93801 10.2309C4.31943 10.011 4.76275 9.923 5.19925 9.98064C5.63574 10.0383 6.04103 10.2383 6.35228 10.5497C6.66354 10.8611 6.86338 11.2665 6.92082 11.703C6.97827 12.1395 6.89011 12.5828 6.67001 12.9641C6.49446 13.2688 6.2416 13.5218 5.93698 13.6974C5.63235 13.8731 5.28676 13.9653 4.93511 13.9646H4.93481Z" fill="black"/>
</svg>
