<svg width="24" height="24" viewBox="0 0 24 24" fill="none" xmlns="http://www.w3.org/2000/svg">
<path d="M12 16.8239V12H7.1763L9.0576 13.8817L3.2041 19.7354L4.2641 20.7959L10.1177 14.9422L12 16.8239ZM7.75 8.5H16.25C16.4489 8.5 16.6397 8.42098 16.7803 8.28033C16.921 8.13968 17 7.94891 17 7.75C17 7.55109 16.921 7.36032 16.7803 7.21967C16.6397 7.07902 16.4489 7 16.25 7H7.75C7.55109 7 7.36032 7.07902 7.21967 7.21967C7.07902 7.36032 7 7.55109 7 7.75C7 7.94891 7.07902 8.13968 7.21967 8.28033C7.36032 8.42098 7.55109 8.5 7.75 8.5ZM19 3H5C4.46957 3 3.96086 3.21071 3.58579 3.58579C3.21071 3.96086 3 4.46957 3 5V17.1113L4.5 15.6113V5C4.5 4.86739 4.55268 4.74021 4.64645 4.64645C4.74021 4.55268 4.86739 4.5 5 4.5H19C19.1326 4.5 19.2598 4.55268 19.3536 4.64645C19.4473 4.74021 19.5 4.86739 19.5 5V19C19.5 19.1326 19.4473 19.2598 19.3536 19.3536C19.2598 19.4473 19.1326 19.5 19 19.5H8.3887L6.8887 21H19C19.5304 21 20.0391 20.7893 20.4142 20.4142C20.7893 20.0391 21 19.5304 21 19V5C21 4.46957 20.7893 3.96086 20.4142 3.58579C20.0391 3.21071 19.5304 3 19 3Z" fill="black"/>
</svg>
