<svg width="24" height="24" viewBox="0 0 24 24" fill="none" xmlns="http://www.w3.org/2000/svg">
<path d="M17 3.5C17.9279 3.50106 18.8176 3.87015 19.4737 4.5263C20.1299 5.18244 20.4989 6.07207 20.5 7V17C20.4989 17.9279 20.1299 18.8176 19.4737 19.4737C18.8176 20.1299 17.9279 20.4989 17 20.5H7C6.07207 20.4989 5.18244 20.1299 4.5263 19.4737C3.87015 18.8176 3.50106 17.9279 3.5 17V7C3.50106 6.07207 3.87015 5.18244 4.5263 4.5263C5.18244 3.87015 6.07207 3.50106 7 3.5H17ZM17 3H7C5.93913 3 4.92172 3.42143 4.17157 4.17157C3.42143 4.92172 3 5.93913 3 7V17C3 18.0609 3.42143 19.0783 4.17157 19.8284C4.92172 20.5786 5.93913 21 7 21H17C18.0609 21 19.0783 20.5786 19.8284 19.8284C20.5786 19.0783 21 18.0609 21 17V7C21 5.93913 20.5786 4.92172 19.8284 4.17157C19.0783 3.42143 18.0609 3 17 3Z" fill="black"/>
</svg>
