<svg width="24" height="24" viewBox="0 0 24 24" fill="none" xmlns="http://www.w3.org/2000/svg">
<path d="M20.874 16.0063C20.5961 15.7287 20.3757 15.3988 20.2257 15.0357C20.0758 14.6726 19.999 14.2835 20 13.8906V9C20 6.87827 19.1571 4.84344 17.6569 3.34315C16.1566 1.84285 14.1217 1 12 1C9.87827 1 7.84344 1.84285 6.34315 3.34315C4.84285 4.84344 4 6.87827 4 9V13.8906C4.00094 14.2835 3.92421 14.6728 3.77422 15.0359C3.62423 15.3991 3.40393 15.729 3.126 16.0068L2 17.1387V20H8.6689C8.87869 20.7211 9.31685 21.3547 9.91752 21.8056C10.5182 22.2564 11.249 22.5001 12 22.5001C12.751 22.5001 13.4818 22.2564 14.0825 21.8056C14.6832 21.3547 15.1213 20.7211 15.3311 20H22V17.1387L20.874 16.0063ZM12 21.5C11.5148 21.4988 11.0404 21.3563 10.6349 21.09C10.2293 20.8236 9.91012 20.4448 9.7163 20H14.2837C14.0899 20.4448 13.7707 20.8236 13.3651 21.09C12.9596 21.3563 12.4852 21.4988 12 21.5ZM21 19H3V17.5513L3.835 16.7121C4.20551 16.3418 4.49917 15.9018 4.6991 15.4176C4.89903 14.9334 5.00129 14.4145 5 13.8906V9C5 7.14348 5.7375 5.36301 7.05025 4.05025C8.36301 2.7375 10.1435 2 12 2C13.8565 2 15.637 2.7375 16.9497 4.05025C18.2625 5.36301 19 7.14348 19 9V13.8906C18.9987 14.4144 19.101 14.9332 19.3009 15.4174C19.5008 15.9015 19.7945 16.3413 20.165 16.7115L21 17.5515V19ZM12.5 7.5529H11.5V10.5H8.5527V11.5H11.5V14.4472H12.5V11.5H15.4473V10.5H12.5V7.5529Z" fill="black"/>
</svg>
