<svg width="24" height="24" viewBox="0 0 24 24" fill="none" xmlns="http://www.w3.org/2000/svg">
<path d="M20.4852 3.51471C20.021 3.05042 19.4698 2.68211 18.8631 2.43084C18.2565 2.17956 17.6063 2.05023 16.9497 2.05023C16.2931 2.05023 15.6429 2.17956 15.0363 2.43084C14.4296 2.68211 13.8784 3.05042 13.4141 3.51471L11.2182 5.71061C11.4456 5.70821 11.6729 5.71671 11.8999 5.73611L13.7677 3.86831C14.6129 3.03051 15.7556 2.5616 16.9456 2.56421C18.1357 2.56682 19.2762 3.04072 20.1177 3.88222C20.9592 4.72372 21.4331 5.86429 21.4357 7.05435C21.4384 8.2444 20.9695 9.38704 20.1316 10.2322L15.889 14.4749C15.3132 15.0518 14.5913 15.4614 13.8006 15.6596C13.0099 15.8579 12.1802 15.8375 11.4003 15.6006C10.6203 15.3636 9.91946 14.9191 9.37266 14.3146C8.82586 13.71 8.45372 12.9682 8.29604 12.1684L7.89414 12.5703C8.11158 13.4232 8.55253 14.2027 9.17154 14.8284C10.1092 15.7661 11.381 16.2928 12.707 16.2928C14.0331 16.2928 15.3049 15.7661 16.2425 14.8284L20.4852 10.5858C20.9495 10.1215 21.3178 9.57032 21.5691 8.96369C21.8204 8.35706 21.9497 7.70688 21.9497 7.05026C21.9497 6.39365 21.8204 5.74347 21.5691 5.13684C21.3178 4.53021 20.9495 3.97901 20.4852 3.51471ZM10.2321 20.1317C9.38697 20.9695 8.24433 21.4384 7.05428 21.4358C5.86422 21.4332 4.72365 20.9593 3.88215 20.1178C3.04065 19.2763 2.56675 18.1357 2.56414 16.9457C2.56153 15.7556 3.03044 14.613 3.86824 13.7678L8.11084 9.52511C8.68671 8.94818 9.4086 8.53867 10.1993 8.34039C10.9899 8.14212 11.8196 8.16253 12.5996 8.39946C13.3796 8.63638 14.0804 9.0809 14.6272 9.68546C15.174 10.29 15.5462 11.0319 15.7038 11.8316L16.1057 11.4297C15.8883 10.5768 15.4474 9.79734 14.8283 9.17161C13.8907 8.23395 12.6189 7.70718 11.2928 7.70718C9.96678 7.70718 8.69502 8.23395 7.75734 9.17161L3.51464 13.4142C2.57696 14.3519 2.05017 15.6237 2.05017 16.9498C2.05017 18.2759 2.57696 19.5476 3.51464 20.4853C4.45233 21.423 5.72411 21.9498 7.05019 21.9498C8.37628 21.9498 9.64806 21.423 10.5857 20.4853L12.7816 18.2893C12.5542 18.2918 12.327 18.2833 12.0999 18.2639L10.2321 20.1317Z" fill="black"/>
</svg>
