<svg width="24" height="24" viewBox="0 0 24 24" fill="none" xmlns="http://www.w3.org/2000/svg">
<path d="M17 3H7C5.9395 3.00119 4.92278 3.423 4.17289 4.17289C3.423 4.92278 3.00119 5.9395 3 7V17C3.00119 18.0605 3.423 19.0772 4.17289 19.8271C4.92278 20.577 5.9395 20.9988 7 21H17C18.0605 20.9988 19.0772 20.577 19.8271 19.8271C20.577 19.0772 20.9988 18.0605 21 17V7C20.9988 5.9395 20.577 4.92278 19.8271 4.17289C19.0772 3.423 18.0605 3.00119 17 3ZM20 17C19.9991 17.7954 19.6827 18.5579 19.1203 19.1203C18.5579 19.6827 17.7954 19.9991 17 20H7C6.20463 19.9991 5.44209 19.6827 4.87967 19.1203C4.31726 18.5579 4.0009 17.7954 4 17V7C4.0009 6.20463 4.31726 5.44209 4.87967 4.87967C5.44209 4.31726 6.20463 4.0009 7 4H17C17.7954 4.0009 18.5579 4.31726 19.1203 4.87967C19.6827 5.44209 19.9991 6.20463 20 7V17ZM12.5 8.5529H11.5V11.5H8.5529V12.5H11.5V15.4472H12.5V12.5H15.4472V11.5H12.5V8.5529Z" fill="black"/>
</svg>
