<svg width="24" height="24" viewBox="0 0 24 24" fill="none" xmlns="http://www.w3.org/2000/svg">
<path d="M11 2.05048C8.74897 2.27549 6.64155 3.25998 5.02442 4.84198L5.49122 5.23368C6.98943 3.7851 8.92798 2.87759 11 2.65478V2.05048ZM13 2.05048V2.65478C14.4188 2.80571 15.7847 3.27769 16.994 4.03493C18.2033 4.79217 19.2243 5.8148 19.9797 7.02529C20.735 8.23578 21.2049 9.60235 21.3536 11.0214C21.5023 12.4405 21.326 13.8747 20.838 15.2155C20.35 16.5563 19.5632 17.7684 18.5371 18.7599C17.5111 19.7514 16.2728 20.4963 14.9161 20.9381C13.5594 21.3799 12.1199 21.507 10.7068 21.3098C9.29364 21.1126 7.94394 20.5963 6.76002 19.8L6.37082 20.264C7.62946 21.1213 9.06731 21.6799 10.5747 21.897C12.082 22.1142 13.6191 21.9841 15.0685 21.5168C16.518 21.0495 17.8415 20.2573 18.9382 19.2007C20.0349 18.144 20.8758 16.8509 21.3966 15.4198C21.9175 13.9887 22.1046 12.4576 21.9437 10.9432C21.7828 9.42881 21.2781 7.97118 20.4681 6.68153C19.6582 5.39187 18.5643 4.30426 17.27 3.50168C15.9758 2.69909 14.5153 2.20273 13 2.05048ZM4.20002 6.75998L3.73612 6.37068C2.43643 8.2762 1.83644 10.5729 2.03805 12.8706C2.23967 15.1683 3.23045 17.3254 4.84212 18.9755L5.23372 18.5088C3.74121 16.9654 2.82413 14.9562 2.63596 12.8175C2.44778 10.6787 2.99994 8.54026 4.20002 6.75998Z" fill="black"/>
</svg>
