<svg width="24" height="24" viewBox="0 0 24 24" fill="none" xmlns="http://www.w3.org/2000/svg">
<path d="M4.50998 7.01998L3.73648 6.37098C2.4368 8.2765 1.83681 10.5732 2.03842 12.8709C2.24003 15.1686 3.23082 17.3257 4.84248 18.9758L5.49248 18.2003C4.08023 16.727 3.21308 14.8159 3.03443 12.783C2.85577 10.75 3.37632 8.71694 4.50998 7.01998ZM11 2.05048C8.74894 2.27549 6.64152 3.25998 5.02438 4.84198L5.79998 5.49268C7.21972 4.13343 9.04676 3.27834 11 3.05898V2.05048ZM13 2.05048V3.05898C14.3544 3.20898 15.657 3.66463 16.8095 4.39155C17.9621 5.11847 18.9345 6.09767 19.6534 7.25527C20.3723 8.41287 20.8188 9.71862 20.9594 11.074C21.1 12.4294 20.9309 13.799 20.4648 15.0795C19.9988 16.36 19.248 17.5179 18.2692 18.4658C17.2903 19.4138 16.1089 20.1271 14.8142 20.5518C13.5194 20.9766 12.1451 21.1017 10.7949 20.9177C9.44471 20.7338 8.15394 20.2456 7.01998 19.49L6.37108 20.2635C7.62971 21.121 9.0676 21.6798 10.575 21.897C12.0825 22.1143 13.6196 21.9843 15.0692 21.5171C16.5187 21.0499 17.8424 20.2577 18.9392 19.201C20.036 18.1443 20.877 16.851 21.3978 15.4199C21.9187 13.9887 22.1058 12.4574 21.9449 10.943C21.7839 9.42849 21.2791 7.97079 20.469 6.68111C19.6589 5.39142 18.5649 4.30383 17.2704 3.50131C15.976 2.69879 14.5154 2.20256 13 2.05048Z" fill="black"/>
</svg>
