<svg width="24" height="24" viewBox="0 0 24 24" fill="none" xmlns="http://www.w3.org/2000/svg">
<path d="M12 4.75C12.1978 4.75 12.3911 4.69135 12.5556 4.58147C12.72 4.47159 12.8482 4.31541 12.9239 4.13268C12.9996 3.94996 13.0194 3.74889 12.9808 3.55491C12.9422 3.36093 12.847 3.18275 12.7071 3.04289C12.5673 2.90304 12.3891 2.8078 12.1951 2.76922C12.0011 2.73063 11.8 2.75043 11.6173 2.82612C11.4346 2.90181 11.2784 3.02998 11.1685 3.19443C11.0586 3.35888 11 3.55222 11 3.75C11 4.01522 11.1054 4.26957 11.2929 4.45711C11.4804 4.64464 11.7348 4.75 12 4.75ZM12 11C11.8022 11 11.6089 11.0587 11.4444 11.1685C11.28 11.2784 11.1518 11.4346 11.0761 11.6173C11.0004 11.8 10.9806 12.0011 11.0192 12.1951C11.0578 12.3891 11.153 12.5673 11.2929 12.7071C11.4327 12.847 11.6109 12.9422 11.8049 12.9808C11.9989 13.0194 12.2 12.9996 12.3827 12.9239C12.5654 12.8482 12.7216 12.72 12.8315 12.5556C12.9414 12.3911 13 12.1978 13 12C13 11.7348 12.8946 11.4804 12.7071 11.2929C12.5196 11.1054 12.2652 11 12 11ZM12 19.25C11.8022 19.25 11.6089 19.3086 11.4444 19.4185C11.28 19.5284 11.1518 19.6846 11.0761 19.8673C11.0004 20.05 10.9806 20.2511 11.0192 20.4451C11.0578 20.6391 11.153 20.8173 11.2929 20.9571C11.4327 21.097 11.6109 21.1922 11.8049 21.2308C11.9989 21.2694 12.2 21.2496 12.3827 21.1739C12.5654 21.0982 12.7216 20.97 12.8315 20.8056C12.9414 20.6411 13 20.4478 13 20.25C13 19.9848 12.8946 19.7304 12.7071 19.5429C12.5196 19.3554 12.2652 19.25 12 19.25Z" fill="black"/>
</svg>
