<svg width="24" height="24" viewBox="0 0 24 24" fill="none" xmlns="http://www.w3.org/2000/svg">
<path d="M16.875 3H15.375V4.5H16.875V3ZM8.625 3H7.125V4.5H8.625V3ZM12.75 3H11.25V4.5H12.75V3ZM19.5 3V19.5H3V21H21V3H19.5ZM4.5 3H3V4.5H4.5V3ZM4.5 7.125H3V8.625H4.5V7.125ZM4.5 11.25H3V12.75H4.5V11.25ZM4.5 15.375H3V16.875H4.5V15.375ZM13.4607 11.6021L12.3979 10.5393L9 13.9373V15H10.0627L13.4607 11.6021ZM15.0444 10.0182C15.0858 9.9768 15.1187 9.92765 15.1411 9.87355C15.1635 9.81945 15.175 9.76146 15.175 9.7029C15.175 9.64434 15.1635 9.58635 15.1411 9.53225C15.1187 9.47815 15.0858 9.429 15.0444 9.3876L14.6123 8.9555C14.5287 8.8719 14.4153 8.82494 14.297 8.82494C14.1787 8.82494 14.0653 8.8719 13.9817 8.9555L13.2463 9.6908L14.3091 10.7535L15.0444 10.0182Z" fill="black"/>
</svg>
