<svg width="24" height="24" viewBox="0 0 24 24" fill="none" xmlns="http://www.w3.org/2000/svg">
<path d="M9.8478 16.33C9.55904 16.33 9.27676 16.4156 9.03667 16.5761C8.79657 16.7365 8.60944 16.9645 8.49894 17.2313C8.38843 17.4981 8.35952 17.7916 8.41585 18.0748C8.47219 18.358 8.61124 18.6182 8.81542 18.8224C9.01961 19.0266 9.27976 19.1656 9.56297 19.2219C9.84618 19.2783 10.1397 19.2494 10.4065 19.1389C10.6733 19.0284 10.9013 18.8412 11.0617 18.6011C11.2222 18.361 11.3078 18.0788 11.3078 17.79C11.3078 17.4028 11.154 17.0314 10.8802 16.7576C10.6064 16.4838 10.235 16.33 9.8478 16.33ZM9.8478 18.75C9.65793 18.75 9.47232 18.6937 9.31445 18.5882C9.15658 18.4827 9.03354 18.3328 8.96088 18.1574C8.88822 17.982 8.8692 17.7889 8.90625 17.6027C8.94329 17.4165 9.03472 17.2454 9.16898 17.1112C9.30324 16.9769 9.47429 16.8855 9.66051 16.8484C9.84673 16.8114 10.0398 16.8304 10.2152 16.9031C10.3906 16.9757 10.5405 17.0988 10.646 17.2567C10.7515 17.4145 10.8078 17.6001 10.8078 17.79C10.8075 18.0445 10.7062 18.2885 10.5262 18.4684C10.3463 18.6484 10.1023 18.7497 9.8478 18.75ZM14.1522 16.33C13.8634 16.33 13.5812 16.4156 13.3411 16.5761C13.101 16.7365 12.9138 16.9645 12.8033 17.2313C12.6928 17.4981 12.6639 17.7916 12.7203 18.0748C12.7766 18.358 12.9156 18.6182 13.1198 18.8224C13.324 19.0266 13.5842 19.1656 13.8674 19.2219C14.1506 19.2783 14.4441 19.2494 14.7109 19.1389C14.9777 19.0284 15.2057 18.8412 15.3661 18.6011C15.5266 18.361 15.6122 18.0788 15.6122 17.79C15.6122 17.4028 15.4584 17.0314 15.1846 16.7576C14.9108 16.4838 14.5394 16.33 14.1522 16.33ZM14.1522 18.75C13.9623 18.75 13.7767 18.6937 13.6189 18.5882C13.461 18.4827 13.3379 18.3328 13.2653 18.1574C13.1926 17.982 13.1736 17.7889 13.2106 17.6027C13.2477 17.4165 13.3391 17.2454 13.4734 17.1112C13.6076 16.9769 13.7787 16.8855 13.9649 16.8484C14.1511 16.8114 14.3442 16.8304 14.5196 16.9031C14.695 16.9757 14.8449 17.0988 14.9504 17.2567C15.0559 17.4145 15.1122 17.6001 15.1122 17.79C15.1119 18.0445 15.0106 18.2885 14.8307 18.4685C14.6507 18.6484 14.4067 18.7497 14.1522 18.75ZM9.8478 11.9357C9.55904 11.9357 9.27676 12.0213 9.03667 12.1818C8.79657 12.3422 8.60944 12.5702 8.49894 12.837C8.38843 13.1038 8.35952 13.3973 8.41585 13.6805C8.47219 13.9637 8.61124 14.2239 8.81542 14.4281C9.01961 14.6323 9.27976 14.7713 9.56297 14.8276C9.84618 14.884 10.1397 14.8551 10.4065 14.7446C10.6733 14.6341 10.9013 14.4469 11.0617 14.2068C11.2222 13.9667 11.3078 13.6845 11.3078 13.3957C11.3078 13.0085 11.154 12.6371 10.8802 12.3633C10.6064 12.0895 10.235 11.9357 9.8478 11.9357ZM9.8478 14.3557C9.65793 14.3557 9.47232 14.2994 9.31445 14.1939C9.15658 14.0884 9.03354 13.9385 8.96088 13.7631C8.88822 13.5877 8.8692 13.3946 8.90625 13.2084C8.94329 13.0222 9.03472 12.8511 9.16898 12.7169C9.30324 12.5826 9.47429 12.4912 9.66051 12.4541C9.84673 12.4171 10.0398 12.4361 10.2152 12.5088C10.3906 12.5814 10.5405 12.7045 10.646 12.8624C10.7515 13.0202 10.8078 13.2058 10.8078 13.3957C10.8075 13.6503 10.7063 13.8943 10.5263 14.0743C10.3464 14.2544 10.1024 14.3557 9.8478 14.356V14.3557ZM12.692 13.3957C12.692 13.6845 12.7776 13.9667 12.9381 14.2068C13.0985 14.4469 13.3265 14.6341 13.5933 14.7446C13.8601 14.8551 14.1536 14.884 14.4368 14.8276C14.72 14.7713 14.9802 14.6323 15.1844 14.4281C15.3886 14.2239 15.5276 13.9637 15.5839 13.6805C15.6403 13.3973 15.6114 13.1038 15.5009 12.837C15.3904 12.5702 15.2032 12.3422 14.9631 12.1818C14.723 12.0213 14.4408 11.9357 14.152 11.9357C13.9603 11.9357 13.7704 11.9735 13.5933 12.0468C13.4161 12.1202 13.2552 12.2278 13.1196 12.3634C12.984 12.4989 12.8765 12.6599 12.8031 12.8371C12.7297 13.0142 12.692 13.2041 12.692 13.3958V13.3957ZM15.112 13.3957C15.112 13.5856 15.0557 13.7712 14.9502 13.929C14.8447 14.0869 14.6948 14.21 14.5194 14.2826C14.344 14.3553 14.1509 14.3743 13.9647 14.3373C13.7785 14.3002 13.6074 14.2088 13.4732 14.0745C13.3389 13.9403 13.2475 13.7692 13.2104 13.583C13.1734 13.3968 13.1924 13.2037 13.2651 13.0283C13.3377 12.8529 13.4608 12.703 13.6187 12.5975C13.7765 12.492 13.9621 12.4357 14.152 12.4357C14.4066 12.4359 14.6507 12.5372 14.8307 12.7172C15.0108 12.8971 15.1121 13.1412 15.1124 13.3958L15.112 13.3957ZM19.2709 5H15V4C15 3.46957 14.7893 2.96086 14.4142 2.58579C14.0391 2.21071 13.5304 2 13 2H11C10.4696 2 9.96086 2.21071 9.58579 2.58579C9.21071 2.96086 9 3.46957 9 4V5H3V5.5H4.7744L6.2649 22H17.7349L19.2257 5.5H21V5H19.2709ZM9.5 4C9.50045 3.60231 9.65863 3.22104 9.93984 2.93984C10.221 2.65863 10.6023 2.50045 11 2.5H13C13.3977 2.50045 13.779 2.65863 14.0602 2.93984C14.3414 3.22104 14.4995 3.60231 14.5 4V5H9.5V4ZM17.2783 21.5H6.7217L5.2764 5.5H18.7237L17.2783 21.5Z" fill="black"/>
</svg>
