<svg width="24" height="24" viewBox="0 0 24 24" fill="none" xmlns="http://www.w3.org/2000/svg">
<path d="M9.6667 11.5H8.6667V12.5H9.6667V11.5ZM18.1667 11.5H17.1667V12.5H18.1667V11.5ZM6.8333 11.5H5.8333V12.5H6.8333V11.5ZM15.3333 11.5H14.3333V12.5H15.3333V11.5ZM3 3V21H21V3H3ZM20 20H4V4H20V20ZM12.5 11.5H11.5V12.5H12.5V11.5ZM12.5 14.3333H11.5V15.3333H12.5V14.3333ZM12.5 5.8333H11.5V6.8333H12.5V5.8333ZM12.5 17.1666H11.5V18.1666H12.5V17.1666ZM12.5 8.6666H11.5V9.6666H12.5V8.6666Z" fill="black"/>
</svg>
