<svg width="24" height="24" viewBox="0 0 24 24" fill="none" xmlns="http://www.w3.org/2000/svg">
<path d="M22 12C21.9999 9.52103 21.079 7.13046 19.4161 5.29203C17.7531 3.45361 15.4665 2.2984 13 2.0505V0H11V2.0505C8.53362 2.29869 6.24734 3.45406 4.58461 5.29251C2.92188 7.13095 2.00122 9.52143 2.00122 12.0002C2.00122 14.4791 2.92188 16.8695 4.58461 18.708C6.24734 20.5464 8.53362 21.7018 11 21.95V24H13V21.95C15.4666 21.7021 17.7532 20.5468 19.4162 18.7083C21.0792 16.8698 22 14.4791 22 12ZM3.99998 12C4.00325 10.0531 4.71573 8.17414 6.00413 6.71457C7.29252 5.255 9.06857 4.31485 11 4.07V19.931C9.0684 19.6861 7.29222 18.7458 6.0038 17.2861C4.71538 15.8263 4.00301 13.947 3.99998 12Z" fill="black"/>
</svg>
