<svg width="24" height="24" viewBox="0 0 24 24" fill="none" xmlns="http://www.w3.org/2000/svg">
<path d="M19 12C19 10.6155 18.5895 9.26215 17.8203 8.11101C17.0511 6.95986 15.9579 6.06266 14.6788 5.53284C13.3997 5.00303 11.9922 4.86441 10.6344 5.1345C9.2765 5.4046 8.02922 6.07128 7.05025 7.05025C6.07128 8.02922 5.4046 9.2765 5.1345 10.6344C4.86441 11.9922 5.00303 13.3997 5.53284 14.6788C6.06266 15.9579 6.95986 17.0511 8.11101 17.8203C9.26215 18.5895 10.6155 19 12 19C13.8559 18.9979 15.6351 18.2597 16.9474 16.9474C18.2597 15.6351 18.9979 13.8559 19 12ZM3 21H6.8994L3 17.0773V21ZM21 21V17.0773L17.1006 21H21ZM3 3V6.9226L6.8994 3H3ZM17.1006 3L21 6.9226V3H17.1006Z" fill="black"/>
</svg>
