<svg width="24" height="24" viewBox="0 0 24 24" fill="none" xmlns="http://www.w3.org/2000/svg">
<path d="M16 5C15.3191 5.00035 14.642 5.10017 13.99 5.2963C14.4218 5.6822 14.8154 6.10873 15.1655 6.57C15.9517 6.44307 16.7562 6.48841 17.5232 6.70288C18.2902 6.91734 19.0014 7.29583 19.6078 7.81215C20.2142 8.32848 20.7012 8.97034 21.0351 9.69335C21.3691 10.4164 21.5421 11.2033 21.5421 11.9997C21.5421 12.7961 21.3691 13.583 21.0351 14.306C20.7012 15.0291 20.2142 15.6709 19.6078 16.1872C19.0014 16.7036 18.2902 17.0821 17.5232 17.2965C16.7562 17.511 15.9517 17.5563 15.1655 17.4294C14.8155 17.8908 14.4219 18.3174 13.9902 18.7034C14.9529 18.9922 15.9666 19.0703 16.9622 18.9324C17.9578 18.7944 18.912 18.4436 19.76 17.9039C20.6079 17.3641 21.3296 16.6481 21.8761 15.8045C22.4225 14.9609 22.7808 14.0095 22.9267 13.015C23.0726 12.0205 23.0025 11.0063 22.7213 10.0413C22.4401 9.07626 21.9544 8.18314 21.2972 7.42265C20.64 6.66217 19.8267 6.05215 18.9126 5.63411C17.9985 5.21606 17.0051 4.99979 16 5ZM8 5C6.61553 5 5.26216 5.41054 4.11101 6.17971C2.95987 6.94888 2.06266 8.04213 1.53285 9.32122C1.00303 10.6003 0.86441 12.0078 1.13451 13.3656C1.4046 14.7235 2.07129 15.9708 3.05026 16.9497C4.02922 17.9287 5.2765 18.5954 6.63437 18.8655C7.99224 19.1356 9.3997 18.997 10.6788 18.4672C11.9579 17.9373 13.0511 17.0401 13.8203 15.889C14.5895 14.7378 15 13.3845 15 12C15 10.1435 14.2625 8.36301 12.9497 7.05025C11.637 5.7375 9.85652 5 8 5ZM8 17.5C6.91221 17.5 5.84884 17.1774 4.94437 16.5731C4.0399 15.9687 3.33495 15.1098 2.91867 14.1048C2.50238 13.0998 2.39347 11.9939 2.60568 10.927C2.8179 9.86011 3.34173 8.8801 4.11092 8.11091C4.8801 7.34172 5.86011 6.8179 6.92701 6.60568C7.9939 6.39346 9.09977 6.50238 10.1048 6.91866C11.1098 7.33494 11.9687 8.03989 12.5731 8.94436C13.1774 9.84883 13.5 10.9122 13.5 12C13.4984 13.4582 12.9184 14.8562 11.8873 15.8873C10.8562 16.9184 9.45819 17.4984 8 17.5Z" fill="black"/>
</svg>
