<svg width="24" height="24" viewBox="0 0 24 24" fill="none" xmlns="http://www.w3.org/2000/svg">
<path d="M6 9C5.80222 9 5.60888 9.05865 5.44443 9.16853C5.27998 9.27841 5.15181 9.43459 5.07612 9.61732C5.00043 9.80004 4.98063 10.0011 5.01921 10.1951C5.0578 10.3891 5.15304 10.5673 5.29289 10.7071C5.43275 10.847 5.61093 10.9422 5.80491 10.9808C5.99889 11.0194 6.19996 10.9996 6.38268 10.9239C6.56541 10.8482 6.72159 10.72 6.83147 10.5556C6.94135 10.3911 7 10.1978 7 10C7 9.73478 6.89464 9.48043 6.70711 9.29289C6.51957 9.10536 6.26522 9 6 9ZM5.2422 8H6.7578L7.2188 3H4.7812L5.2422 8ZM4 20H6V16.5972L4 18.3981V20ZM13.3334 20H15.3334V8.1929L13.3334 9.9938V20ZM8.6667 20H10.6667V12.3951L8.6667 14.196V20ZM19.99 4L18 5.7917V20H20V4H19.99Z" fill="black"/>
</svg>
