<svg width="24" height="24" viewBox="0 0 24 24" fill="none" xmlns="http://www.w3.org/2000/svg">
<path d="M4 20H4.5V17.9479L4 18.3979V20ZM9.1667 20H9.6667V13.2955L9.1667 13.7455V20ZM19.99 4L19.5 4.441V20H20V4H19.99ZM14.3334 20H14.8334V8.6431L14.3334 9.0931V20ZM9 5C9 4.46957 8.78929 3.96086 8.41421 3.58579C8.03914 3.21071 7.53043 3 7 3C6.46957 3 5.96086 3.21071 5.58579 3.58579C5.21071 3.96086 5 4.46957 5 5V6H4V10H10V6H9V5ZM5.5 5C5.5 4.60218 5.65804 4.22064 5.93934 3.93934C6.22064 3.65804 6.60218 3.5 7 3.5C7.39782 3.5 7.77936 3.65804 8.06066 3.93934C8.34196 4.22064 8.5 4.60218 8.5 5V6H5.5V5ZM9.5 6.5V9.5H4.5V6.5H9.5Z" fill="black"/>
</svg>
