<svg width="24" height="24" viewBox="0 0 24 24" fill="none" xmlns="http://www.w3.org/2000/svg">
<path d="M2 4V20H22V4H2ZM14.1113 14.4948C13.5952 13.9798 12.8959 13.6905 12.1667 13.6905C11.4376 13.6905 10.7383 13.9798 10.2222 14.4948L9.8687 14.1412C10.4787 13.5326 11.3051 13.1909 12.1667 13.1909C13.0284 13.1909 13.8548 13.5326 14.4648 14.1412L14.1113 14.4948ZM16.94 11.6664C15.6731 10.4024 13.9566 9.69252 12.167 9.69252C10.3773 9.69252 8.66079 10.4024 7.3939 11.6664L7.04 11.3128C8.40072 9.95515 10.2444 9.19268 12.1666 9.19268C14.0888 9.19268 15.9325 9.95515 17.2932 11.3128L16.94 11.6664Z" fill="black"/>
</svg>
