<svg width="24" height="24" viewBox="0 0 24 24" fill="none" xmlns="http://www.w3.org/2000/svg">
<path d="M20.25 12C20.25 12.0989 20.2793 12.1956 20.3343 12.2778C20.3892 12.36 20.4673 12.4241 20.5587 12.4619C20.65 12.4998 20.7506 12.5097 20.8475 12.4904C20.9445 12.4711 21.0336 12.4235 21.1036 12.3536C21.1735 12.2836 21.2211 12.1945 21.2404 12.0975C21.2597 12.0006 21.2498 11.9 21.2119 11.8087C21.1741 11.7173 21.11 11.6392 21.0278 11.5843C20.9456 11.5293 20.8489 11.5 20.75 11.5C20.6174 11.5 20.4902 11.5527 20.3964 11.6464C20.3027 11.7402 20.25 11.8674 20.25 12ZM12.5 12C12.5 11.9011 12.4707 11.8044 12.4157 11.7222C12.3608 11.64 12.2827 11.5759 12.1913 11.5381C12.1 11.5002 11.9994 11.4903 11.9025 11.5096C11.8055 11.5289 11.7164 11.5765 11.6464 11.6464C11.5765 11.7164 11.5289 11.8055 11.5096 11.9025C11.4903 11.9994 11.5002 12.1 11.5381 12.1913C11.5759 12.2827 11.64 12.3608 11.7222 12.4157C11.8044 12.4707 11.9011 12.5 12 12.5C12.1326 12.5 12.2598 12.4473 12.3536 12.3536C12.4473 12.2598 12.5 12.1326 12.5 12ZM3.75 12C3.75 11.9011 3.72068 11.8044 3.66574 11.7222C3.61079 11.64 3.53271 11.5759 3.44134 11.5381C3.34998 11.5002 3.24945 11.4903 3.15246 11.5096C3.05546 11.5289 2.96637 11.5765 2.89645 11.6464C2.82652 11.7164 2.7789 11.8055 2.75961 11.9025C2.74031 11.9994 2.75022 12.1 2.78806 12.1913C2.8259 12.2827 2.88999 12.3608 2.97222 12.4157C3.05444 12.4707 3.15111 12.5 3.25 12.5C3.38261 12.5 3.50979 12.4473 3.60355 12.3536C3.69732 12.2598 3.75 12.1326 3.75 12Z" fill="black"/>
</svg>
