<svg width="24" height="24" viewBox="0 0 24 24" fill="none" xmlns="http://www.w3.org/2000/svg">
<path d="M12 2C10.0222 2 8.08879 2.58649 6.4443 3.6853C4.79981 4.78412 3.51809 6.3459 2.76121 8.17317C2.00433 10.0004 1.8063 12.0111 2.19215 13.9509C2.578 15.8907 3.53041 17.6725 4.92894 19.0711C6.32746 20.4696 8.10929 21.422 10.0491 21.8079C11.9889 22.1937 13.9996 21.9957 15.8268 21.2388C17.6541 20.4819 19.2159 19.2002 20.3147 17.5557C21.4135 15.9112 22 13.9778 22 12C21.9971 9.34874 20.9426 6.8069 19.0678 4.93218C17.1931 3.05745 14.6513 2.00294 12 2ZM14.3982 14.3981L7.2 16.8L9.6018 9.6019L16.8 7.2L14.3982 14.3981ZM12 13.25C12.2472 13.25 12.4889 13.1767 12.6945 13.0393C12.9 12.902 13.0602 12.7068 13.1549 12.4784C13.2495 12.2499 13.2742 11.9986 13.226 11.7561C13.1778 11.5137 13.0587 11.2909 12.8839 11.1161C12.7091 10.9413 12.4863 10.8222 12.2439 10.774C12.0014 10.7258 11.7501 10.7505 11.5217 10.8452C11.2932 10.9398 11.098 11.1 10.9607 11.3055C10.8233 11.5111 10.75 11.7528 10.75 12C10.75 12.3315 10.8817 12.6495 11.1161 12.8839C11.3505 13.1183 11.6685 13.25 12 13.25Z" fill="black"/>
</svg>
