<svg width="24" height="24" viewBox="0 0 24 24" fill="none" xmlns="http://www.w3.org/2000/svg">
<path d="M6.02227 14.7469C6.65184 14.4976 7.1781 14.0419 7.51484 13.4545C7.85158 12.867 7.97884 12.1826 7.87577 11.5134C7.7727 10.8441 7.44541 10.2297 6.94752 9.77083C6.44962 9.31191 5.81064 9.03569 5.13524 8.98739C4.45983 8.9391 3.78805 9.1216 3.22993 9.50501C2.6718 9.88842 2.26043 10.45 2.06319 11.0978C1.86595 11.7455 1.89454 12.4411 2.14427 13.0705C2.394 13.6999 2.85007 14.2258 3.43777 14.5621C3.92229 14.8399 4.47519 14.9757 5.03327 14.9541C5.57454 16.4176 6.50858 17.7037 7.73285 18.6712C8.95711 19.6387 10.4243 20.2502 11.9733 20.4385L12.0933 19.4463C10.7516 19.2832 9.47909 18.7603 8.41035 17.933C7.34161 17.1057 6.51646 16.0048 6.02227 14.7469ZM20.8223 8.67091L19.9023 9.06351C20.4316 10.3068 20.6149 11.67 20.4329 13.0089C20.2508 14.3478 19.7101 15.6126 18.8681 16.6694C18.2805 16.2028 17.5391 15.9738 16.7907 16.0277C16.0423 16.0816 15.3414 16.4144 14.8267 16.9604C14.3121 17.5064 14.0211 18.2257 14.0115 18.976C14.0018 19.7263 14.2741 20.4528 14.7746 21.0119C15.2751 21.5709 15.9672 21.9217 16.7139 21.9949C17.4607 22.068 18.2077 21.8581 18.8071 21.4068C19.4065 20.9555 19.8147 20.2955 19.9507 19.5577C20.0868 18.8198 19.9409 18.0577 19.542 17.4222C20.5385 16.2218 21.1851 14.77 21.4109 13.2263C21.6367 11.6826 21.4329 10.1064 20.8219 8.67091H20.8223ZM14.4646 6.5359C14.7957 7.11919 15.3115 7.57575 15.9306 7.83368C16.5498 8.0916 17.2371 8.13624 17.8844 7.96055C18.5317 7.78485 19.1022 7.39882 19.506 6.86325C19.9098 6.32768 20.1239 5.67301 20.1147 5.00235C20.1055 4.33169 19.8734 3.68315 19.4551 3.15887C19.0367 2.6346 18.4559 2.26439 17.804 2.10655C17.1521 1.9487 16.4662 2.0122 15.8544 2.28704C15.2426 2.56188 14.7396 3.03244 14.4246 3.6246C12.8867 3.36208 11.3063 3.52806 9.85659 4.10434C8.40686 4.68062 7.14379 5.64495 6.20587 6.8916L7.00587 7.4916C7.81795 6.41155 8.90689 5.5711 10.1575 5.05919C11.4081 4.54729 12.7738 4.38296 14.1101 4.58361C14.0009 5.25572 14.1259 5.94493 14.4642 6.5359H14.4646Z" fill="black"/>
</svg>
