<svg width="24" height="24" viewBox="0 0 24 24" fill="none" xmlns="http://www.w3.org/2000/svg">
<path d="M18 16C17.5012 16.0001 17.0103 16.1249 16.572 16.363C16.1336 16.6011 15.7617 16.9449 15.49 17.3633L7.75074 13.1926C7.91517 12.8165 8.00005 12.4105 8.00005 12C8.00005 11.5895 7.91517 11.1835 7.75074 10.8074L15.4907 6.6367C15.9138 7.28166 16.5697 7.73819 17.3214 7.91091C18.0731 8.08363 18.8625 7.95916 19.5246 7.56352C20.1868 7.16788 20.6704 6.53167 20.8744 5.78784C21.0785 5.044 20.9872 4.25009 20.6196 3.57198C20.252 2.89388 19.6366 2.38405 18.902 2.14902C18.1674 1.914 17.3703 1.97196 16.6774 2.3108C15.9845 2.64964 15.4494 3.24314 15.1838 3.96729C14.9182 4.69144 14.9427 5.49021 15.2522 6.1967L7.51224 10.3678C7.16016 9.82482 6.64193 9.41025 6.03491 9.18595C5.42788 8.96166 4.7646 8.93966 4.14405 9.12325C3.5235 9.30683 2.97895 9.68616 2.59166 10.2046C2.20437 10.7231 1.99512 11.3529 1.99512 12C1.99512 12.6471 2.20437 13.2769 2.59166 13.7954C2.97895 14.3138 3.5235 14.6932 4.14405 14.8767C4.7646 15.0603 5.42788 15.0383 6.03491 14.814C6.64193 14.5897 7.16016 14.1752 7.51224 13.6322L15.2522 17.803C14.9948 18.3951 14.9354 19.0544 15.0828 19.683C15.2302 20.3115 15.5765 20.8757 16.0702 21.2917C16.5639 21.7076 17.1787 21.9531 17.8232 21.9917C18.4677 22.0302 19.1073 21.8597 19.6471 21.5055C20.1869 21.1513 20.5979 20.6324 20.8191 20.0258C21.0403 19.4193 21.0599 18.7576 20.8748 18.1391C20.6898 17.5206 20.31 16.9783 19.7921 16.5929C19.2742 16.2075 18.6456 15.9996 18 16ZM18 2.5C18.4945 2.5 18.9778 2.64662 19.389 2.92132C19.8001 3.19603 20.1205 3.58647 20.3097 4.04329C20.499 4.5001 20.5485 5.00277 20.452 5.48772C20.3555 5.97267 20.1174 6.41813 19.7678 6.76776C19.4182 7.11739 18.9727 7.3555 18.4878 7.45196C18.0028 7.54842 17.5001 7.49891 17.0433 7.30969C16.5865 7.12048 16.1961 6.80004 15.9214 6.38892C15.6467 5.9778 15.5 5.49445 15.5 5C15.5008 4.33718 15.7644 3.70173 16.2331 3.23305C16.7018 2.76437 17.3372 2.50074 18 2.5ZM5.00004 14.5C4.50559 14.5 4.02224 14.3534 3.61112 14.0787C3.19999 13.804 2.87956 13.4135 2.69034 12.9567C2.50113 12.4999 2.45162 11.9972 2.54808 11.5123C2.64454 11.0273 2.88264 10.5819 3.23228 10.2322C3.58191 9.8826 4.02736 9.6445 4.51232 9.54803C4.99727 9.45157 5.49994 9.50108 5.95675 9.6903C6.41357 9.87952 6.80401 10.1999 7.07872 10.6111C7.35342 11.0222 7.50004 11.5055 7.50004 12C7.4993 12.6628 7.23567 13.2983 6.76699 13.7669C6.29831 14.2356 5.66286 14.4993 5.00004 14.5ZM18 21.5C17.5056 21.5 17.0222 21.3534 16.6111 21.0787C16.2 20.804 15.8796 20.4135 15.6903 19.9567C15.5011 19.4999 15.4516 18.9972 15.5481 18.5123C15.6445 18.0273 15.8826 17.5819 16.2323 17.2322C16.5819 16.8826 17.0274 16.6445 17.5123 16.548C17.9973 16.4516 18.4999 16.5011 18.9568 16.6903C19.4136 16.8795 19.804 17.1999 20.0787 17.6111C20.3534 18.0222 20.5 18.5055 20.5 19C20.4993 19.6628 20.2357 20.2983 19.767 20.7669C19.2983 21.2356 18.6629 21.4993 18 21.5Z" fill="black"/>
</svg>
