<svg width="24" height="24" viewBox="0 0 24 24" fill="none" xmlns="http://www.w3.org/2000/svg">
<path d="M10.3081 19.3084L11.9998 21L13.6915 19.3084C13.4733 19.0793 13.2109 18.8969 12.9201 18.7722C12.6293 18.6476 12.3162 18.5833 11.9998 18.5833C11.6834 18.5833 11.3703 18.6476 11.0795 18.7722C10.7887 18.8969 10.5263 19.0793 10.3081 19.3084ZM17.9998 9.1C17.8218 9.1 17.6478 9.15278 17.4998 9.25168C17.3518 9.35057 17.2364 9.49113 17.1683 9.65559C17.1002 9.82004 17.0824 10.001 17.1171 10.1756C17.1518 10.3502 17.2375 10.5105 17.3634 10.6364C17.4893 10.7623 17.6496 10.848 17.8242 10.8827C17.9988 10.9174 18.1798 10.8996 18.3442 10.8315C18.5087 10.7634 18.6492 10.648 18.7481 10.5C18.847 10.352 18.8998 10.178 18.8998 10C18.8998 9.76131 18.805 9.53239 18.6362 9.3636C18.4674 9.19482 18.2385 9.1 17.9998 9.1ZM18.5679 8L18.9136 3H17.0861L17.4317 8H18.5679Z" fill="black"/>
</svg>
