<svg width="24" height="24" viewBox="0 0 24 24" fill="none" xmlns="http://www.w3.org/2000/svg">
<path d="M12 2C10.0222 2 8.08879 2.58649 6.4443 3.6853C4.79981 4.78412 3.51809 6.3459 2.76121 8.17317C2.00433 10.0004 1.8063 12.0111 2.19215 13.9509C2.578 15.8907 3.53041 17.6725 4.92894 19.0711C6.32746 20.4696 8.10929 21.422 10.0491 21.8079C11.9889 22.1937 13.9996 21.9957 15.8268 21.2388C17.6541 20.4819 19.2159 19.2002 20.3147 17.5557C21.4135 15.9112 22 13.9778 22 12C21.9971 9.34874 20.9426 6.8069 19.0678 4.93218C17.1931 3.05745 14.6513 2.00294 12 2ZM14.3982 14.3981L7.2 16.8L9.6018 9.6019L16.8 7.2L14.3982 14.3981ZM12 12.75C12.1483 12.75 12.2933 12.706 12.4167 12.6236C12.54 12.5412 12.6361 12.4241 12.6929 12.287C12.7497 12.15 12.7645 11.9992 12.7356 11.8537C12.7067 11.7082 12.6352 11.5746 12.5303 11.4697C12.4254 11.3648 12.2918 11.2934 12.1463 11.2644C12.0008 11.2355 11.85 11.2503 11.713 11.3071C11.5759 11.3639 11.4588 11.46 11.3764 11.5833C11.294 11.7067 11.25 11.8517 11.25 12C11.25 12.1989 11.329 12.3897 11.4697 12.5303C11.6103 12.671 11.8011 12.75 12 12.75Z" fill="black"/>
</svg>
