<svg width="24" height="24" viewBox="0 0 24 24" fill="none" xmlns="http://www.w3.org/2000/svg">
<path d="M6.83019 15.83L8.16569 17.1655C8.66766 16.659 9.26502 16.2569 9.92325 15.9825C10.5815 15.7081 11.2876 15.5668 12.0007 15.5668C12.7138 15.5668 13.4199 15.7081 14.0781 15.9825C14.7364 16.2569 15.3337 16.659 15.8357 17.1655L17.1702 15.83C16.4947 15.1449 15.6897 14.6009 14.8021 14.2295C13.9146 13.8582 12.962 13.667 11.9999 13.667C11.0378 13.667 10.0852 13.8582 9.19763 14.2295C8.31005 14.6009 7.50511 15.1449 6.82959 15.83H6.83019ZM9.87129 18.8712L12.0002 21L14.1294 18.8709C13.8548 18.5825 13.5245 18.3529 13.1585 18.196C12.7925 18.0391 12.3984 17.9582 12.0002 17.9582C11.602 17.9582 11.2079 18.0391 10.8419 18.196C10.4759 18.3529 10.1456 18.5825 9.87099 18.8709L9.87129 18.8712ZM18.758 8L19.219 3H16.7814L17.2424 8H18.758ZM18.0002 9C17.8024 9 17.6091 9.05865 17.4446 9.16853C17.2802 9.27841 17.152 9.43459 17.0763 9.61732C17.0006 9.80004 16.9808 10.0011 17.0194 10.1951C17.058 10.3891 17.1532 10.5673 17.2931 10.7071C17.4329 10.847 17.6111 10.9422 17.8051 10.9808C17.9991 11.0194 18.2001 10.9996 18.3829 10.9239C18.5656 10.8482 18.7218 10.72 18.8317 10.5556C18.9415 10.3911 19.0002 10.1978 19.0002 10C19.0002 9.73478 18.8948 9.48043 18.7073 9.29289C18.5198 9.10536 18.2654 9 18.0002 9Z" fill="black"/>
</svg>
