<svg width="24" height="24" viewBox="0 0 24 24" fill="none" xmlns="http://www.w3.org/2000/svg">
<path d="M3 21H6.8994L3 17.0773V21ZM3 3V6.9226L6.8994 3H3ZM17.1006 3L21 6.9226V3H17.1006ZM21 21V17.0773L17.1006 21H21ZM12 5C10.6155 5 9.26215 5.41054 8.11101 6.17971C6.95986 6.94888 6.06266 8.04213 5.53284 9.32122C5.00303 10.6003 4.86441 12.0078 5.1345 13.3656C5.4046 14.7235 6.07128 15.9708 7.05025 16.9497C8.02922 17.9287 9.2765 18.5954 10.6344 18.8655C11.9922 19.1356 13.3997 18.997 14.6788 18.4672C15.9579 17.9373 17.0511 17.0401 17.8203 15.889C18.5895 14.7378 19 13.3845 19 12C18.9979 10.1441 18.2597 8.36491 16.9474 7.05262C15.6351 5.74033 13.8559 5.00214 12 5ZM12 17.5C10.9122 17.5 9.84883 17.1774 8.94436 16.5731C8.03989 15.9687 7.33494 15.1098 6.91866 14.1048C6.50238 13.0998 6.39346 11.9939 6.60568 10.927C6.8179 9.86011 7.34172 8.8801 8.11091 8.11091C8.8801 7.34172 9.86011 6.8179 10.927 6.60568C11.9939 6.39346 13.0998 6.50238 14.1048 6.91866C15.1098 7.33494 15.9687 8.03989 16.5731 8.94436C17.1774 9.84883 17.5 10.9122 17.5 12C17.4984 13.4582 16.9184 14.8562 15.8873 15.8873C14.8562 16.9184 13.4582 17.4984 12 17.5Z" fill="black"/>
</svg>
