<svg width="24" height="24" viewBox="0 0 24 24" fill="none" xmlns="http://www.w3.org/2000/svg">
<path d="M12 5.00001C9.89843 4.99729 7.81705 5.40989 5.87547 6.21413C3.93388 7.01836 2.17037 8.19836 0.686279 9.68631L1.40848 10.4085C2.79593 9.01149 4.44605 7.90275 6.26381 7.14614C8.08157 6.38954 10.031 6.00002 12 6.00002C13.9689 6.00002 15.9184 6.38954 17.7362 7.14614C19.5539 7.90275 21.204 9.01149 22.5915 10.4085L23.3137 9.68631C21.8296 8.19836 20.0661 7.01836 18.1245 6.21413C16.1829 5.40989 14.1015 4.99729 12 5.00001ZM6.46838 15.4684L7.18558 16.1856C7.81383 15.5463 8.56311 15.0385 9.38971 14.6919C10.2163 14.3453 11.1037 14.1668 12 14.1668C12.8963 14.1668 13.7837 14.3453 14.6103 14.6919C15.4368 15.0385 16.1861 15.5463 16.8144 16.1856L17.5316 15.4683C16.8068 14.7389 15.945 14.16 14.9957 13.765C14.0463 13.37 13.0282 13.1666 12 13.1666C10.9717 13.1666 9.95364 13.37 9.0043 13.765C8.05496 14.16 7.19312 14.7389 6.46838 15.4683V15.4684ZM9.36048 18.3605L10.0599 19.0599C10.3136 18.8034 10.6158 18.5997 10.9488 18.4607C11.2818 18.3217 11.639 18.2502 11.9999 18.2502C12.3607 18.2502 12.718 18.3217 13.051 18.4607C13.384 18.5997 13.6861 18.8034 13.9399 19.0599L14.6392 18.3605C14.2953 18.009 13.8847 17.7296 13.4315 17.5389C12.9782 17.3482 12.4914 17.25 11.9997 17.25C11.5079 17.25 11.0211 17.3482 10.5679 17.5389C10.1146 17.7296 9.70402 18.009 9.36018 18.3605H9.36048ZM3.58528 12.5853L4.29998 13.3C5.30693 12.2811 6.50606 11.4722 7.82789 10.9201C9.14973 10.3681 10.568 10.0838 12.0005 10.0838C13.433 10.0838 14.8512 10.3681 16.1731 10.9201C17.4949 11.4722 18.694 12.2811 19.701 13.3L20.4153 12.5857C19.3129 11.4759 18.0019 10.5952 16.5577 9.99417C15.1136 9.39315 13.5648 9.08373 12.0005 9.08373C10.4363 9.08373 8.8875 9.39315 7.44334 9.99417C5.99918 10.5952 4.68816 11.4759 3.58578 12.5857L3.58528 12.5853Z" fill="black"/>
</svg>
