<svg width="24" height="24" viewBox="0 0 24 24" fill="none" xmlns="http://www.w3.org/2000/svg">
<path d="M22 12H21.4955C21.4977 14.1879 20.7447 16.3096 19.3638 18.0067C17.9829 19.7037 16.0586 20.8723 13.916 21.3149C11.7733 21.7576 9.5435 21.4473 7.60313 20.4363C5.66276 19.4254 4.13071 17.7759 3.26568 15.7662C2.40066 13.7565 2.25567 11.5099 2.8552 9.40574C3.45473 7.30156 4.76204 5.46874 6.55637 4.21679C8.3507 2.96484 10.5221 2.37047 12.7039 2.53404C14.8857 2.69762 16.9442 3.60912 18.5318 5.11462L15.5177 8.12872C14.6277 7.3295 13.4902 6.8602 12.2956 6.79935C11.1009 6.7385 9.92162 7.08979 8.95502 7.79444C7.98841 8.49909 7.29314 9.51435 6.98555 10.6703C6.67796 11.8263 6.77671 13.0528 7.26529 14.1447C7.75387 15.2365 8.60262 16.1275 9.66952 16.6684C10.7364 17.2093 11.9567 17.3674 13.1262 17.1162C14.2958 16.865 15.3435 16.2197 16.0942 15.2884C16.8448 14.3571 17.2529 13.1962 17.25 12H16.7478C16.7542 13.0914 16.3854 14.1519 15.7032 15.0039C15.0209 15.8558 14.0667 16.4475 13.0002 16.6797C11.9338 16.912 10.8199 16.7708 9.84518 16.2797C8.87043 15.7887 8.09401 14.9776 7.64595 13.9824C7.19788 12.9872 7.10539 11.8682 7.38396 10.8129C7.66252 9.75761 8.29523 8.83007 9.17612 8.18564C10.057 7.5412 11.1326 7.21901 12.2227 7.27302C13.3128 7.32703 14.3512 7.75397 15.1641 8.48232L11.8232 11.8232C11.7763 11.8701 11.75 11.9337 11.75 12C11.75 12.0663 11.7763 12.1299 11.8232 12.1768C11.8701 12.2237 11.9337 12.2501 12 12.2501C12.0663 12.2501 12.1299 12.2237 12.1768 12.1768L19.2478 5.10572L19.0711 4.92892C17.4352 3.29298 15.2826 2.27489 12.9802 2.04811C10.6778 1.82133 8.368 2.3999 6.44434 3.68523C4.52069 4.97056 3.10221 6.88313 2.43061 9.09706C1.75901 11.311 1.87584 13.6893 2.76119 15.8267C3.64653 17.9642 5.24562 19.7285 7.28598 20.8191C9.32635 21.9098 11.6817 22.2592 13.9508 21.8078C16.2199 21.3565 18.2624 20.1323 19.7301 18.3439C21.1978 16.5555 22 14.3136 22 12Z" fill="black"/>
</svg>
