<svg width="24" height="24" viewBox="0 0 24 24" fill="none" xmlns="http://www.w3.org/2000/svg">
<path d="M14.464 6.53589C14.8006 7.13169 15.3291 7.59594 15.9633 7.85296C16.5975 8.10999 17.3 8.14465 17.9565 7.9513C18.6129 7.75795 19.1845 7.34798 19.5781 6.78821C19.9717 6.22843 20.1642 5.55185 20.1241 4.86871C20.084 4.18557 19.8137 3.53616 19.3573 3.02629C18.9008 2.51641 18.2852 2.17615 17.6107 2.06094C16.9361 1.94572 16.2424 2.06236 15.6427 2.39183C15.0429 2.7213 14.5724 3.24419 14.3078 3.87529C12.8271 3.63245 11.3082 3.79902 9.91537 4.35698C8.52252 4.91494 7.3087 5.84307 6.40519 7.04099L6.80519 7.34099C7.64557 6.22681 8.7719 5.3609 10.0647 4.83514C11.3574 4.30939 12.7684 4.1434 14.1479 4.35479C13.9708 5.09551 14.0839 5.87593 14.464 6.53589ZM14.6472 4.38889C14.7896 3.85767 15.1032 3.3882 15.5393 3.05314C15.9755 2.71808 16.5099 2.53611 17.0599 2.53539C17.499 2.53479 17.9305 2.64983 18.3111 2.86895C18.6916 3.08806 19.0077 3.40353 19.2276 3.7836C19.4475 4.16368 19.5635 4.59496 19.5638 5.03407C19.5641 5.47318 19.4488 5.90463 19.2295 6.28503C19.0101 6.66542 18.6944 6.98134 18.3142 7.20101C17.934 7.42068 17.5026 7.53635 17.0635 7.53639C16.6244 7.53643 16.193 7.42083 15.8128 7.20122C15.4325 6.98162 15.1168 6.66575 14.8974 6.28539C14.7324 6.00151 14.6253 5.68773 14.5824 5.3622C14.5394 5.03667 14.5615 4.70585 14.6472 4.38889ZM5.80289 14.824C6.49768 14.5992 7.08195 14.1203 7.4388 13.4832C7.79564 12.8461 7.89874 12.0977 7.72745 11.3878C7.55616 10.6779 7.12313 10.0589 6.515 9.65462C5.90687 9.25034 5.16851 9.0906 4.44765 9.20738C3.7268 9.32416 3.07663 9.70884 2.62725 10.2844C2.17786 10.86 1.96241 11.5841 2.024 12.3118C2.0856 13.0394 2.41969 13.717 2.95944 14.2088C3.49918 14.7007 4.20476 14.9706 4.93499 14.9646C5.0592 14.9564 5.18278 14.9403 5.30499 14.9166C5.83335 16.3234 6.73693 17.5587 7.91768 18.4884C9.09842 19.418 10.5112 20.0065 12.0028 20.19L12.0628 19.6939C10.6768 19.5234 9.36281 18.9805 8.26059 18.1231C7.15836 17.2656 6.30904 16.1255 5.80289 14.824ZM4.93499 14.4646C4.38462 14.4641 3.84978 14.2821 3.41338 13.9468C2.97699 13.6114 2.66342 13.1414 2.5213 12.6097C2.37918 12.078 2.41644 11.5143 2.6273 11.0059C2.83817 10.4976 3.21086 10.0729 3.6876 9.79794C4.16433 9.52294 4.71848 9.41289 5.26412 9.48487C5.80976 9.55685 6.31641 9.80683 6.70553 10.1961C7.09464 10.5853 7.34448 11.092 7.4163 11.6377C7.48813 12.1833 7.37793 12.7374 7.10279 13.2141C6.88332 13.5947 6.56735 13.9108 6.18675 14.1303C5.80615 14.3499 5.37437 14.4652 4.93499 14.4646ZM20.5917 8.76859L20.1317 8.96479C20.6766 10.2497 20.8635 11.6582 20.6726 13.0407C20.4816 14.4233 19.9199 15.7283 19.047 16.8174C18.4715 16.2674 17.7056 15.9612 16.9095 15.963C16.1135 15.9647 15.3489 16.2742 14.7758 16.8267C14.2027 17.3792 13.8654 18.1319 13.8346 18.9273C13.8037 19.7228 14.0816 20.4994 14.6101 21.0946C15.1387 21.6899 15.877 22.0577 16.6705 22.1212C17.464 22.1846 18.2513 21.9387 18.8677 21.435C19.4842 20.9312 19.8819 20.2087 19.9778 19.4184C20.0737 18.6281 19.8602 17.8314 19.3822 17.1949C20.3329 16.0341 20.9481 14.6355 21.1613 13.1503C21.3745 11.6651 21.1775 10.1499 20.5917 8.76859ZM19.4999 19C19.4999 19.4944 19.3533 19.9778 19.0786 20.3889C18.8039 20.8 18.4134 21.1205 17.9566 21.3097C17.4998 21.4989 16.9971 21.5484 16.5122 21.452C16.0272 21.3555 15.5818 21.1174 15.2321 20.7678C14.8825 20.4181 14.6444 19.9727 14.5479 19.4877C14.4515 19.0028 14.501 18.5001 14.6902 18.0433C14.8794 17.5865 15.1998 17.196 15.611 16.9213C16.0221 16.6466 16.5054 16.5 16.9999 16.5C17.6627 16.5007 18.2982 16.7644 18.7668 17.233C19.2355 17.7017 19.4991 18.3372 19.4999 19Z" fill="black"/>
</svg>
