<svg width="24" height="24" viewBox="0 0 24 24" fill="none" xmlns="http://www.w3.org/2000/svg">
<path d="M15.9934 15.2865C17.3721 13.7241 18.0886 11.6864 17.9912 9.60497C17.8937 7.52352 16.99 5.56171 15.4714 4.13495C13.9527 2.70819 11.9384 1.92851 9.8549 1.961C7.77143 1.99349 5.78239 2.83561 4.30897 4.30903C2.83554 5.78245 1.99343 7.77149 1.96094 9.85497C1.92845 11.9384 2.70813 13.9528 4.13489 15.4714C5.56165 16.9901 7.52346 17.8938 9.60491 17.9912C11.6864 18.0887 13.724 17.3722 15.2864 15.9935L21.1464 21.8535L21.8534 21.1465L15.9934 15.2865ZM9.99993 17C8.61546 17 7.26208 16.5894 6.11094 15.8203C4.95979 15.0511 4.06259 13.9579 3.53277 12.6788C3.00296 11.3997 2.86434 9.99223 3.13443 8.63436C3.40453 7.27649 4.07122 6.02921 5.05018 5.05024C6.02915 4.07128 7.27643 3.40459 8.6343 3.13449C9.99216 2.8644 11.3996 3.00302 12.6787 3.53283C13.9578 4.06265 15.051 4.95986 15.8202 6.111C16.5894 7.26214 16.9999 8.61552 16.9999 9.99999C16.9978 11.8559 16.2597 13.6351 14.9474 14.9474C13.6351 16.2597 11.8558 16.9979 9.99993 17ZM6.55283 10.5H13.447V9.49999H6.55283V10.5Z" fill="black"/>
</svg>
