<svg width="24" height="24" viewBox="0 0 24 24" fill="none" xmlns="http://www.w3.org/2000/svg">
<path d="M12 2C10.0222 2 8.08879 2.58649 6.4443 3.6853C4.79981 4.78412 3.51809 6.3459 2.76121 8.17317C2.00433 10.0004 1.8063 12.0111 2.19215 13.9509C2.578 15.8907 3.53041 17.6725 4.92894 19.0711C6.32746 20.4696 8.10929 21.422 10.0491 21.8079C11.9889 22.1937 13.9996 21.9957 15.8268 21.2388C17.6541 20.4819 19.2159 19.2002 20.3147 17.5557C21.4135 15.9112 22 13.9778 22 12C22 10.6868 21.7413 9.38642 21.2388 8.17317C20.7363 6.95991 19.9997 5.85752 19.0711 4.92893C18.1425 4.00035 17.0401 3.26375 15.8268 2.7612C14.6136 2.25866 13.3132 2 12 2ZM2.5 12C2.49734 10.1423 3.04019 8.32468 4.06118 6.77269C5.08218 5.22071 6.53639 4.00265 8.24338 3.26966C9.95037 2.53667 11.835 2.321 13.6635 2.64942C15.4919 2.97784 17.1837 3.83589 18.5289 5.1171L5.1176 18.5294C3.43799 16.7705 2.50055 14.4321 2.5 12ZM12 21.5C9.56817 21.4995 7.22998 20.5622 5.4711 18.8829L18.8824 5.4706C20.1638 6.81576 21.0219 8.50754 21.3505 10.336C21.679 12.1645 21.4634 14.0492 20.7305 15.7563C19.9975 17.4634 18.7795 18.9177 17.2274 19.9387C15.6754 20.9598 13.8578 21.5027 12 21.5Z" fill="black"/>
</svg>
