<svg width="24" height="24" viewBox="0 0 24 24" fill="none" xmlns="http://www.w3.org/2000/svg">
<path d="M19 21H21V12H19V21ZM6.49999 12C5.60997 12 4.73994 12.2639 3.99992 12.7584C3.2599 13.2529 2.68313 13.9557 2.34253 14.7779C2.00194 15.6002 1.91282 16.505 2.08646 17.3779C2.26009 18.2508 2.68867 19.0527 3.31801 19.682C3.94734 20.3113 4.74917 20.7399 5.62208 20.9135C6.495 21.0872 7.3998 20.9981 8.22206 20.6575C9.04433 20.3169 9.74714 19.7401 10.2416 19.0001C10.7361 18.2601 11 17.39 11 16.5C11 15.3065 10.5259 14.1619 9.68197 13.318C8.83806 12.4741 7.69346 12 6.49999 12ZM6.49999 19C5.83718 18.9992 5.20174 18.7356 4.73307 18.2669C4.2644 17.7983 4.00076 17.1628 3.99999 16.5H6.49999V14C7.16303 14 7.79891 14.2634 8.26776 14.7322C8.7366 15.2011 8.99999 15.837 8.99999 16.5C8.99999 17.1631 8.7366 17.7989 8.26776 18.2678C7.79891 18.7366 7.16303 19 6.49999 19ZM19.99 3.26421L14.5557 8.26611L8.44429 2.64111L1.65619 8.88921L3.00999 10.3608L8.44429 5.35891L14.5557 10.9839L21.3438 4.73581L19.99 3.26421ZM15 21H17V15H15V21Z" fill="black"/>
</svg>
