<svg width="24" height="24" viewBox="0 0 24 24" fill="none" xmlns="http://www.w3.org/2000/svg">
<path d="M3.9998 20H5.9998V16.5972L3.9998 18.3981V20ZM8.6665 20H10.6665V12.3951L8.6665 14.196V20ZM13.3332 20H15.3332V8.1929L13.3332 9.9938V20ZM19.9898 4L17.9998 5.7917V20H19.9998V4H19.9898ZM10.7369 5.6087C10.5799 5.19146 10.3536 4.80369 10.0676 4.4617L8.67309 5.0754L7.82979 4.5886L7.66339 3.0669C7.44445 3.0261 7.22248 3.00372 6.9998 3C6.77711 3.00372 6.55514 3.0261 6.3362 3.0669L6.1698 4.5886L5.3265 5.0754L3.9321 4.4617C3.64607 4.80368 3.41976 5.19145 3.2627 5.6087L4.4964 6.5131V7.4869L3.2627 8.3912C3.41977 8.80845 3.64604 9.19625 3.932 9.5383L5.3264 8.9245L6.1698 9.4114L6.3362 10.9331C6.55514 10.9739 6.77711 10.9963 6.9998 11C7.22248 10.9963 7.44445 10.9739 7.66339 10.9331L7.82979 9.4114L8.67319 8.9245L10.0676 9.5383C10.3535 9.19625 10.5798 8.80845 10.7369 8.3912L9.50319 7.4869V6.5131L10.7369 5.6087ZM6.9998 8C6.80201 8 6.60867 7.94135 6.44423 7.83147C6.27978 7.72159 6.1516 7.56541 6.07592 7.38268C6.00023 7.19996 5.98042 6.99889 6.01901 6.80491C6.0576 6.61093 6.15284 6.43275 6.29269 6.29289C6.43254 6.15304 6.61072 6.0578 6.8047 6.01921C6.99869 5.98063 7.19975 6.00043 7.38248 6.07612C7.5652 6.15181 7.72138 6.27998 7.83126 6.44443C7.94115 6.60888 7.99979 6.80222 7.99979 7C7.99979 7.26522 7.89444 7.51957 7.7069 7.70711C7.51937 7.89464 7.26501 8 6.9998 8Z" fill="black"/>
</svg>
