<svg width="24" height="24" viewBox="0 0 24 24" fill="none" xmlns="http://www.w3.org/2000/svg">
<path d="M2 4V20H22V4H2ZM13.9346 14.7081C13.4654 14.2399 12.8296 13.977 12.1667 13.977C11.5039 13.977 10.8681 14.2399 10.3989 14.7081L9.6919 14.001C10.3488 13.3456 11.2389 12.9775 12.1669 12.9775C13.0949 12.9775 13.985 13.3456 14.6419 14.001L13.9346 14.7081ZM16.7629 11.88C15.5429 10.6629 13.89 9.97934 12.1667 9.97934C10.4435 9.97934 8.79056 10.6629 7.5706 11.88L6.8633 11.1729C8.2709 9.76838 10.1782 8.97958 12.1666 8.97958C14.1551 8.97958 16.0624 9.76838 17.47 11.1729L16.7629 11.88Z" fill="black"/>
</svg>
