<svg width="24" height="24" viewBox="0 0 24 24" fill="none" xmlns="http://www.w3.org/2000/svg">
<path d="M12.0002 9.0833C10.4358 9.08214 8.88662 9.39098 7.44222 9.99196C5.99782 10.5929 4.68681 11.4742 3.58492 12.5847L3.93852 12.9383C4.99475 11.8752 6.25078 11.0315 7.63433 10.4557C9.01788 9.87994 10.5016 9.58344 12.0002 9.5833V9.0833ZM12.0002 5C9.89867 4.99727 7.81729 5.40988 5.87571 6.21411C3.93413 7.01835 2.17062 8.19835 0.686523 9.6863L1.05182 10.0516C2.48683 8.60896 4.19283 7.46418 6.07174 6.68306C7.95064 5.90194 9.96541 5.49988 12.0002 5.5V5ZM9.36422 18.364L9.71162 18.7114C10.01 18.407 10.3661 18.1652 10.7591 18.0001C11.1521 17.835 11.574 17.75 12.0003 17.75C12.4265 17.75 12.8485 17.835 13.2415 18.0001C13.6344 18.1652 13.9905 18.407 14.2889 18.7114L14.6362 18.364C14.2937 18.0115 13.8839 17.7313 13.4311 17.5399C12.9783 17.3486 12.4918 17.25 12.0002 17.25C11.5087 17.25 11.0221 17.3486 10.5694 17.5399C10.1166 17.7313 9.70679 18.0115 9.36422 18.364ZM6.46962 15.4694L6.82412 15.8239C7.50173 15.1404 8.308 14.5978 9.19641 14.2276C10.0848 13.8573 11.0378 13.6667 12.0002 13.6667C12.9627 13.6667 13.9156 13.8573 14.804 14.2276C15.6924 14.5978 16.4987 15.1404 17.1763 15.8239L17.5309 15.4694C16.8065 14.7397 15.9449 14.1606 14.9957 13.7654C14.0465 13.3702 13.0285 13.1667 12.0003 13.1667C10.9721 13.1667 9.95404 13.3702 9.00484 13.7654C8.05563 14.1606 7.19401 14.7397 6.46962 15.4694ZM20.0002 6V5C20.0002 4.46957 19.7895 3.96086 19.4144 3.58579C19.0394 3.21071 18.5307 3 18.0002 3C17.4698 3 16.9611 3.21071 16.586 3.58579C16.2109 3.96086 16.0002 4.46957 16.0002 5V6H15.0002V10H21.0002V6H20.0002ZM16.5002 5C16.5002 4.60218 16.6583 4.22064 16.9396 3.93934C17.2209 3.65804 17.6024 3.5 18.0002 3.5C18.398 3.5 18.7796 3.65804 19.0609 3.93934C19.3422 4.22064 19.5002 4.60218 19.5002 5V6H16.5002V5ZM20.5002 9.5H15.5002V6.5H20.5002V9.5Z" fill="black"/>
</svg>
