<svg width="24" height="24" viewBox="0 0 24 24" fill="none" xmlns="http://www.w3.org/2000/svg">
<path d="M6.46831 15.4684L7.1855 16.1856C7.81375 15.5463 8.56304 15.0385 9.38963 14.6919C10.2162 14.3453 11.1036 14.1668 11.9999 14.1668C12.8962 14.1668 13.7836 14.3453 14.6102 14.6919C15.4368 15.0385 16.1861 15.5463 16.8143 16.1856L17.5315 15.4683C16.8068 14.7389 15.9449 14.16 14.9956 13.765C14.0462 13.37 13.0282 13.1666 11.9999 13.1666C10.9717 13.1666 9.95356 13.37 9.00422 13.765C8.05488 14.16 7.19304 14.7389 6.46831 15.4683V15.4684ZM9.36041 18.3605L10.0598 19.0599C10.3136 18.8034 10.6157 18.5997 10.9487 18.4607C11.2817 18.3217 11.639 18.2502 11.9998 18.2502C12.3607 18.2502 12.7179 18.3217 13.0509 18.4607C13.3839 18.5997 13.686 18.8034 13.9398 19.0599L14.6391 18.3605C14.2953 18.009 13.8847 17.7296 13.4314 17.5389C12.9781 17.3482 12.4914 17.25 11.9996 17.25C11.5079 17.25 11.0211 17.3482 10.5678 17.5389C10.1145 17.7296 9.70394 18.009 9.36011 18.3605H9.36041ZM3.58521 12.5853L4.29991 13.3C5.30685 12.2811 6.50598 11.4722 7.82782 10.9201C9.14965 10.3681 10.5679 10.0838 12.0004 10.0838C13.4329 10.0838 14.8512 10.3681 16.173 10.9201C17.4948 11.4722 18.694 12.2811 19.7009 13.3L20.4152 12.5857C19.3128 11.4759 18.0018 10.5952 16.5576 9.99418C15.1135 9.39316 13.5647 9.08374 12.0005 9.08374C10.4362 9.08374 8.88743 9.39316 7.44327 9.99418C5.9991 10.5952 4.68809 11.4759 3.58571 12.5857L3.58521 12.5853Z" fill="black"/>
</svg>
