<svg width="24" height="24" viewBox="0 0 24 24" fill="none" xmlns="http://www.w3.org/2000/svg">
<path d="M15.9934 15.2865C17.3721 13.7241 18.0886 11.6864 17.9912 9.60497C17.8937 7.52352 16.99 5.56171 15.4714 4.13495C13.9527 2.70819 11.9384 1.92851 9.8549 1.961C7.77143 1.99349 5.78239 2.83561 4.30897 4.30903C2.83554 5.78245 1.99343 7.77149 1.96094 9.85497C1.92845 11.9384 2.70813 13.9528 4.13489 15.4714C5.56165 16.9901 7.52346 17.8938 9.60491 17.9912C11.6864 18.0887 13.724 17.3722 15.2864 15.9935L21.1464 21.8535L21.8534 21.1465L15.9934 15.2865ZM9.99993 17C8.61546 17 7.26208 16.5894 6.11094 15.8203C4.95979 15.0511 4.06259 13.9579 3.53277 12.6788C3.00296 11.3997 2.86434 9.99223 3.13443 8.63436C3.40453 7.27649 4.07122 6.02921 5.05018 5.05024C6.02915 4.07128 7.27643 3.40459 8.6343 3.13449C9.99216 2.8644 11.3996 3.00302 12.6787 3.53283C13.9578 4.06265 15.051 4.95986 15.8202 6.111C16.5894 7.26214 16.9999 8.61552 16.9999 9.99999C16.9978 11.8559 16.2597 13.6351 14.9474 14.9474C13.6351 16.2597 11.8558 16.9979 9.99993 17ZM12.503 6.84619C12.4199 6.76307 12.3212 6.69713 12.2126 6.65214C12.104 6.60716 11.9876 6.584 11.8701 6.584C11.7525 6.584 11.6361 6.60716 11.5275 6.65214C11.4189 6.69713 11.3202 6.76307 11.2371 6.84619L6.99993 11.0834V13H8.91653L13.1537 8.76279C13.2369 8.67967 13.3028 8.581 13.3478 8.47239C13.3928 8.36379 13.4159 8.24739 13.4159 8.12984C13.4159 8.01229 13.3928 7.89589 13.3478 7.78729C13.3028 7.67869 13.2369 7.58001 13.1537 7.49689L12.503 6.84619ZM8.58513 12.2H7.79993V11.4147L10.678 8.53669L11.4633 9.32189L8.58513 12.2ZM12.588 8.19709L12.029 8.75619L11.2438 7.97089L11.8028 7.41189C11.8117 7.40305 11.8221 7.39603 11.8337 7.39124C11.8452 7.38646 11.8576 7.38399 11.8701 7.38399C11.8826 7.38399 11.8949 7.38646 11.9065 7.39124C11.918 7.39603 11.9285 7.40305 11.9373 7.41189L12.588 8.06259C12.6035 8.0816 12.6119 8.10535 12.6119 8.12984C12.6119 8.15433 12.6035 8.17808 12.588 8.19709Z" fill="black"/>
</svg>
