<svg width="24" height="24" viewBox="0 0 24 24" fill="none" xmlns="http://www.w3.org/2000/svg">
<path d="M18 8.7C18.8752 8.7 19.7146 9.04768 20.3335 9.66655C20.9523 10.2854 21.3 11.1248 21.3 12C21.3 12.8752 20.9523 13.7146 20.3335 14.3335C19.7146 14.9523 18.8752 15.3 18 15.3H6C5.12479 15.3 4.28542 14.9523 3.66655 14.3335C3.04768 13.7146 2.7 12.8752 2.7 12C2.7 11.1248 3.04768 10.2854 3.66655 9.66655C4.28542 9.04768 5.12479 8.7 6 8.7H18ZM18 7H6C5.34339 7 4.69321 7.12933 4.08658 7.3806C3.47995 7.63188 2.92876 8.00017 2.46447 8.46447C1.52678 9.40215 1 10.6739 1 12C1 13.3261 1.52678 14.5979 2.46447 15.5355C2.92876 15.9998 3.47995 16.3681 4.08658 16.6194C4.69321 16.8707 5.34339 17 6 17H18C18.6566 17 19.3068 16.8707 19.9134 16.6194C20.52 16.3681 21.0712 15.9998 21.5355 15.5355C21.9998 15.0712 22.3681 14.52 22.6194 13.9134C22.8707 13.3068 23 12.6566 23 12C23 11.3434 22.8707 10.6932 22.6194 10.0866C22.3681 9.47996 21.9998 8.92876 21.5355 8.46447C21.0712 8.00017 20.52 7.63188 19.9134 7.3806C19.3068 7.12933 18.6566 7 18 7Z" fill="black"/>
</svg>
