<svg width="24" height="24" viewBox="0 0 24 24" fill="none" xmlns="http://www.w3.org/2000/svg">
<path d="M2 4V20H22V4H2ZM21 19H3V5H21V19ZM9.6919 14.001L10.3989 14.7081C10.8681 14.2399 11.5039 13.977 12.1667 13.977C12.8296 13.977 13.4654 14.2399 13.9346 14.7081L14.6416 14.001C13.9847 13.3457 13.0947 12.9776 12.1667 12.9776C11.2388 12.9776 10.3488 13.3457 9.6919 14.001ZM16.7629 11.8797L17.47 11.1726C16.0624 9.76808 14.1551 8.97928 12.1666 8.97928C10.1782 8.97928 8.2709 9.76808 6.8633 11.1726L7.5706 11.8797C8.7906 10.6626 10.4435 9.97913 12.1668 9.97919C13.8901 9.97925 15.543 10.6628 16.7629 11.88V11.8797Z" fill="black"/>
</svg>
