<svg width="24" height="24" viewBox="0 0 24 24" fill="none" xmlns="http://www.w3.org/2000/svg">
<path d="M3 21H21V19.5H3V21ZM4.5 15.375H3V16.875H4.5V15.375ZM4.5 7.125H3V8.625H4.5V7.125ZM12.75 15.375H11.25V16.875H12.75V15.375ZM12.75 7.125H11.25V8.625H12.75V7.125ZM19.5 16.875H21V15.375H19.5V16.875ZM19.5 8.625H21V7.125H19.5V8.625ZM19.5 12.75H21V11.25H19.5V12.75ZM16.875 11.25H15.375V12.75H16.875V11.25ZM12.75 11.25H11.25V12.75H12.75V11.25ZM8.625 11.25H7.125V12.75H8.625V11.25ZM4.5 11.25H3V12.75H4.5V11.25ZM19.5 3V4.5H21V3H19.5ZM16.875 3H15.375V4.5H16.875V3ZM12.75 3H11.25V4.5H12.75V3ZM8.625 3H7.125V4.5H8.625V3ZM4.5 3H3V4.5H4.5V3Z" fill="black"/>
</svg>
