<svg width="24" height="24" viewBox="0 0 24 24" fill="none" xmlns="http://www.w3.org/2000/svg">
<path d="M19.75 12C19.75 12.1483 19.794 12.2933 19.8764 12.4167C19.9588 12.54 20.0759 12.6361 20.213 12.6929C20.35 12.7497 20.5008 12.7645 20.6463 12.7356C20.7918 12.7067 20.9254 12.6352 21.0303 12.5303C21.1352 12.4254 21.2066 12.2918 21.2356 12.1463C21.2645 12.0008 21.2497 11.85 21.1929 11.713C21.1361 11.5759 21.04 11.4588 20.9167 11.3764C20.7933 11.294 20.6483 11.25 20.5 11.25C20.3011 11.25 20.1103 11.329 19.9697 11.4697C19.829 11.6103 19.75 11.8011 19.75 12ZM12.75 12C12.75 11.8517 12.706 11.7067 12.6236 11.5833C12.5412 11.46 12.4241 11.3639 12.287 11.3071C12.15 11.2503 11.9992 11.2355 11.8537 11.2644C11.7082 11.2934 11.5746 11.3648 11.4697 11.4697C11.3648 11.5746 11.2934 11.7082 11.2644 11.8537C11.2355 11.9992 11.2503 12.15 11.3071 12.287C11.3639 12.4241 11.46 12.5412 11.5833 12.6236C11.7067 12.706 11.8517 12.75 12 12.75C12.1989 12.75 12.3897 12.671 12.5303 12.5303C12.671 12.3897 12.75 12.1989 12.75 12ZM4.25 12C4.25 11.8517 4.20601 11.7067 4.1236 11.5833C4.04119 11.46 3.92406 11.3639 3.78701 11.3071C3.64997 11.2503 3.49917 11.2355 3.35368 11.2644C3.2082 11.2934 3.07456 11.3648 2.96967 11.4697C2.86478 11.5746 2.79335 11.7082 2.76441 11.8537C2.73547 11.9992 2.75032 12.15 2.80709 12.287C2.86386 12.4241 2.95999 12.5412 3.08332 12.6236C3.20666 12.706 3.35166 12.75 3.5 12.75C3.69891 12.75 3.88968 12.671 4.03033 12.5303C4.17098 12.3897 4.25 12.1989 4.25 12Z" fill="black"/>
</svg>
