<svg width="24" height="24" viewBox="0 0 24 24" fill="none" xmlns="http://www.w3.org/2000/svg">
<path d="M12 2C10.0222 2 8.08879 2.58649 6.4443 3.6853C4.79981 4.78412 3.51809 6.3459 2.76121 8.17317C2.00433 10.0004 1.8063 12.0111 2.19215 13.9509C2.578 15.8907 3.53041 17.6725 4.92894 19.0711C6.32746 20.4696 8.10929 21.422 10.0491 21.8079C11.9889 22.1937 13.9996 21.9957 15.8268 21.2388C17.6541 20.4819 19.2159 19.2002 20.3147 17.5557C21.4135 15.9112 22 13.9778 22 12C22 10.6868 21.7413 9.38642 21.2388 8.17317C20.7363 6.95991 19.9997 5.85752 19.0711 4.92893C18.1425 4.00035 17.0401 3.26375 15.8268 2.7612C14.6136 2.25866 13.3132 2 12 2ZM12 21.5C10.3318 21.5 8.8554 19.2138 8.1653 16H15.8347C15.1446 19.2138 13.6682 21.5 12 21.5ZM8.0638 15.5C7.6454 13.1854 7.6454 10.8146 8.0638 8.5H15.9362C16.1462 9.65481 16.2512 10.8263 16.25 12C16.2512 13.1737 16.1462 14.3452 15.9362 15.5H8.0638ZM12 2.5C13.6682 2.5 15.1446 4.7862 15.8347 8H8.1653C8.8554 4.7862 10.3318 2.5 12 2.5ZM16.4449 8.5H20.8235C21.7255 10.7462 21.7255 13.2538 20.8235 15.5H16.4449C16.6489 14.3445 16.751 13.1734 16.75 12C16.751 10.8266 16.6489 9.65548 16.4449 8.5ZM20.6049 8H16.3521C16.0698 5.97579 15.1325 4.09966 13.6835 2.6583C15.1801 2.93079 16.5895 3.55801 17.7938 4.48742C18.998 5.41682 19.962 6.62133 20.6048 8H20.6049ZM10.3165 2.6583C8.8675 4.09966 7.93022 5.97579 7.6479 8H3.3953C4.03812 6.62133 5.00203 5.41682 6.20626 4.48741C7.41048 3.558 8.81994 2.93078 10.3165 2.6583ZM3.1765 8.5H7.5551C7.1483 10.8156 7.1483 13.1844 7.5551 15.5H3.1765C2.2745 13.2538 2.2745 10.7462 3.1765 8.5ZM3.3953 16H7.6479C7.93022 18.0242 8.8675 19.9003 10.3165 21.3417C8.81994 21.0692 7.41048 20.442 6.20626 19.5126C5.00203 18.5832 4.03812 17.3787 3.3953 16ZM13.6835 21.3417C15.1325 19.9003 16.0698 18.0242 16.3521 16H20.6048C19.962 17.3787 18.998 18.5832 17.7938 19.5126C16.5895 20.442 15.1801 21.0692 13.6835 21.3417Z" fill="black"/>
</svg>
