<svg width="24" height="24" viewBox="0 0 24 24" fill="none" xmlns="http://www.w3.org/2000/svg">
<path d="M16.6765 7.32337C16.3006 6.08323 15.6098 4.96165 14.6714 4.06796C13.733 3.17427 12.5791 2.53896 11.3221 2.22397C10.0651 1.90898 8.74793 1.92505 7.49899 2.27062C6.25006 2.61618 5.11197 3.27946 4.19567 4.19578C3.27936 5.1121 2.61611 6.25021 2.27057 7.49915C1.92503 8.74809 1.90899 10.0653 2.22401 11.3222C2.53903 12.5792 3.17436 13.7332 4.06807 14.6715C4.96178 15.6099 6.08338 16.3007 7.32353 16.6766C7.69944 17.9167 8.39026 19.0383 9.32865 19.932C10.267 20.8257 11.421 21.461 12.678 21.776C13.935 22.091 15.2521 22.0749 16.5011 21.7293C17.75 21.3838 18.8881 20.7205 19.8044 19.8042C20.7207 18.8878 21.3839 17.7497 21.7295 16.5008C22.075 15.2519 22.0911 13.9347 21.776 12.6777C21.461 11.4207 20.8257 10.2668 19.932 9.32842C19.0383 8.39006 17.9167 7.69926 16.6765 7.32337ZM3.50003 9.49997C3.49912 8.12908 3.968 6.79927 4.82854 5.73212C5.68907 4.66496 6.88931 3.92491 8.22925 3.63527C9.5692 3.34562 10.9679 3.52387 12.1924 4.14032C13.4169 4.75678 14.3931 5.7742 14.9585 7.02307C14.8059 7.01387 14.6548 6.99997 14.5 6.99997C12.5109 6.99997 10.6032 7.79015 9.19673 9.19667C7.7902 10.6032 7.00003 12.5108 7.00003 14.5C7.00003 14.6548 7.01393 14.806 7.02323 14.9584C5.97419 14.4824 5.08422 13.7148 4.45951 12.7469C3.8348 11.7791 3.50172 10.6519 3.50003 9.49997ZM8.50003 14.5C8.50139 13.7778 8.63408 13.0618 8.89163 12.3871L11.6125 15.1086C10.6477 15.4837 9.59955 15.5919 8.57843 15.4217C8.52851 15.1169 8.5023 14.8088 8.50003 14.5ZM12.9934 14.3683L9.63183 11.0064C10.0132 10.4765 10.4779 10.012 11.0078 9.63077L14.3691 12.9922C13.9879 13.5222 13.5233 13.9869 12.9934 14.3683ZM15.5 9.49997C15.4987 10.2215 15.3663 10.9369 15.1091 11.6111L12.3891 8.89107C13.3536 8.51645 14.4012 8.4085 15.4218 8.57857C15.4717 8.88322 15.4978 9.19128 15.5 9.49997ZM14.5 20.5C13.3481 20.4983 12.2209 20.1652 11.2531 19.5405C10.2852 18.9158 9.5175 18.0259 9.04153 16.9769C9.19413 16.9861 9.34523 17 9.50003 17C11.4892 17 13.3968 16.2098 14.8033 14.8033C16.2098 13.3968 17 11.4891 17 9.49997C17 9.34517 16.9861 9.19397 16.9768 9.04157C18.2257 9.60692 19.2432 10.5832 19.8597 11.8076C20.4762 13.0321 20.6544 14.4308 20.3648 15.7708C20.0751 17.1107 19.3351 18.311 18.2679 19.1715C17.2008 20.0321 15.8709 20.5009 14.5 20.5Z" fill="black"/>
</svg>
