<svg width="24" height="24" viewBox="0 0 24 24" fill="none" xmlns="http://www.w3.org/2000/svg">
<path d="M12 2C10.0434 1.99822 8.12936 2.57098 6.49535 3.64722C4.86134 4.72346 3.5793 6.2558 2.80833 8.0541C2.03735 9.8524 1.81137 11.8375 2.15843 13.7631C2.5055 15.6887 3.41032 17.4699 4.76062 18.8859L18.8859 4.7606C17.0319 2.98772 14.5652 1.9988 12 2ZM19.2394 5.1141L5.11412 19.2394C7.00198 21.0399 9.51918 22.0305 12.1278 21.9996C14.7363 21.9687 17.2294 20.9187 19.074 19.074C20.9187 17.2293 21.9687 14.7363 21.9996 12.1277C22.0305 9.51916 21.0399 7.00196 19.2394 5.1141Z" fill="black"/>
</svg>
