<svg width="24" height="24" viewBox="0 0 24 24" fill="none" xmlns="http://www.w3.org/2000/svg">
<path d="M3 3V21H21V3H3ZM20 20H4V4H20V20ZM8.65 17H15.35C15.8804 17 16.3891 16.7893 16.7642 16.4142C17.1393 16.0391 17.35 15.5304 17.35 15C17.35 14.4696 17.1393 13.9609 16.7642 13.5858C16.3891 13.2107 15.8804 13 15.35 13H8.65C8.11957 13 7.61086 13.2107 7.23579 13.5858C6.86071 13.9609 6.65 14.4696 6.65 15C6.65 15.5304 6.86071 16.0391 7.23579 16.4142C7.61086 16.7893 8.11957 17 8.65 17ZM8.65 14H15.35C15.6152 14 15.8696 14.1054 16.0571 14.2929C16.2446 14.4804 16.35 14.7348 16.35 15C16.35 15.2652 16.2446 15.5196 16.0571 15.7071C15.8696 15.8946 15.6152 16 15.35 16H8.65C8.38478 16 8.13043 15.8946 7.94289 15.7071C7.75536 15.5196 7.65 15.2652 7.65 15C7.65 14.7348 7.75536 14.4804 7.94289 14.2929C8.13043 14.1054 8.38478 14 8.65 14Z" fill="black"/>
</svg>
