<svg width="24" height="24" viewBox="0 0 24 24" fill="none" xmlns="http://www.w3.org/2000/svg">
<path d="M19.9836 6.69669L19.2764 7.40379C20.4936 8.62372 21.1772 10.2767 21.1772 12C21.1772 13.7233 20.4936 15.3763 19.2764 16.5962L19.9836 17.3033C21.3881 15.8957 22.1769 13.9884 22.1769 12C22.1769 10.0115 21.3881 8.10427 19.9836 6.69669ZM16.448 10.2322C16.9162 10.7014 17.1792 11.3371 17.1792 12C17.1792 12.6628 16.9162 13.2986 16.448 13.7678L17.1553 14.4749C17.8106 13.8179 18.1786 12.9278 18.1786 11.9999C18.1786 11.072 17.8106 10.1819 17.1553 9.52489L16.448 10.2322ZM6.55179 1.47559V11.0586L1.41109 7.57999L0.851086 8.40809L6.15919 12L0.850586 15.5918L1.41109 16.4199L6.55179 12.9414V22.5244L15.0254 16.791L7.94429 12L15.0254 7.20899L6.55179 1.47559ZM13.24 16.791L7.55179 20.64V12.9424L13.24 16.791ZM7.55179 11.0576V3.35999L13.24 7.20899L7.55179 11.0576Z" fill="black"/>
</svg>
