<svg width="24" height="24" viewBox="0 0 24 24" fill="none" xmlns="http://www.w3.org/2000/svg">
<path d="M12 12.75C11.555 12.75 11.12 12.882 10.75 13.1292C10.38 13.3764 10.0916 13.7278 9.92127 14.139C9.75098 14.5501 9.70642 15.0025 9.79323 15.439C9.88005 15.8754 10.0943 16.2763 10.409 16.591C10.7237 16.9057 11.1246 17.1199 11.561 17.2068C11.9975 17.2936 12.4499 17.249 12.861 17.0787C13.2722 16.9084 13.6236 16.62 13.8708 16.25C14.118 15.88 14.25 15.445 14.25 15C14.25 14.4033 14.0129 13.831 13.591 13.409C13.169 12.9871 12.5967 12.75 12 12.75ZM13 11.2984V3H11V11.2984C11.652 11.1005 12.348 11.1005 13 11.2984ZM20 5.2984V3H18V5.2984C18.652 5.10053 19.348 5.10053 20 5.2984ZM19 6.75C18.555 6.75 18.12 6.88196 17.75 7.12919C17.38 7.37643 17.0916 7.72783 16.9213 8.13896C16.751 8.5501 16.7064 9.0025 16.7932 9.43895C16.8801 9.87541 17.0943 10.2763 17.409 10.591C17.7237 10.9057 18.1246 11.12 18.561 11.2068C18.9975 11.2936 19.4499 11.249 19.861 11.0787C20.2722 10.9084 20.6236 10.62 20.8708 10.25C21.118 9.88002 21.25 9.44501 21.25 9C21.25 8.40326 21.0129 7.83097 20.591 7.40901C20.169 6.98705 19.5967 6.75 19 6.75ZM5 6.75C4.55499 6.75 4.11998 6.88196 3.74997 7.12919C3.37996 7.37643 3.09157 7.72783 2.92127 8.13896C2.75097 8.5501 2.70642 9.0025 2.79323 9.43895C2.88005 9.87541 3.09434 10.2763 3.40901 10.591C3.72368 10.9057 4.12459 11.12 4.56105 11.2068C4.9975 11.2936 5.4499 11.249 5.86104 11.0787C6.27217 10.9084 6.62357 10.62 6.87081 10.25C7.11804 9.88002 7.25 9.44501 7.25 9C7.25 8.40326 7.01295 7.83097 6.59099 7.40901C6.16903 6.98705 5.59674 6.75 5 6.75ZM4 12.7016V21H6V12.7016C5.67477 12.7954 5.33846 12.8453 5 12.85C4.66154 12.8453 4.32523 12.7954 4 12.7016ZM11 18.7016V21H13V18.7016C12.348 18.8995 11.652 18.8995 11 18.7016ZM18 12.7016V21H20V12.7016C19.348 12.8995 18.652 12.8995 18 12.7016ZM6 5.2984V3H4V5.2984C4.32523 5.2046 4.66154 5.1547 5 5.15C5.33846 5.1547 5.67477 5.2046 6 5.2984Z" fill="black"/>
</svg>
