<svg width="24" height="24" viewBox="0 0 24 24" fill="none" xmlns="http://www.w3.org/2000/svg">
<path d="M17 3H7C5.9395 3.00119 4.92278 3.423 4.17289 4.17289C3.423 4.92278 3.00119 5.9395 3 7V17C3.00119 18.0605 3.423 19.0772 4.17289 19.8271C4.92278 20.577 5.9395 20.9988 7 21H17C18.0605 20.9988 19.0772 20.577 19.8271 19.8271C20.577 19.0772 20.9988 18.0605 21 17V7C20.9988 5.9395 20.577 4.92278 19.8271 4.17289C19.0772 3.423 18.0605 3.00119 17 3ZM20.5 17C20.4989 17.9279 20.1299 18.8176 19.4737 19.4737C18.8176 20.1299 17.9279 20.4989 17 20.5H7C6.07207 20.4989 5.18244 20.1299 4.5263 19.4737C3.87015 18.8176 3.50106 17.9279 3.5 17V7C3.50106 6.07207 3.87015 5.18244 4.5263 4.5263C5.18244 3.87015 6.07207 3.50106 7 3.5H17C17.9279 3.50106 18.8176 3.87015 19.4737 4.5263C20.1299 5.18244 20.4989 6.07207 20.5 7V17ZM8.5529 12.25H15.4471V11.75H8.5529V12.25Z" fill="black"/>
</svg>
