<svg width="24" height="24" viewBox="0 0 24 24" fill="none" xmlns="http://www.w3.org/2000/svg">
<path d="M6.47126 14.527C6.91149 14.27 7.2781 13.9039 7.53576 13.4641C7.86254 12.906 8.00147 12.2578 7.93209 11.6148C7.8627 10.9718 7.58866 10.3681 7.15033 9.89266C6.71201 9.41717 6.13257 9.09501 5.49736 8.97364C4.86215 8.85227 4.20476 8.93809 3.622 9.21848C3.03925 9.49887 2.56194 9.959 2.26039 10.5311C1.95883 11.1032 1.84897 11.757 1.94698 12.3962C2.045 13.0354 2.34571 13.6263 2.80482 14.0818C3.26393 14.5372 3.85717 14.8332 4.49716 14.9261C5.04467 16.5227 6.03054 17.933 7.34199 18.9955C8.65344 20.0581 10.2375 20.7301 11.913 20.9346L12.1522 18.9492C10.8934 18.7962 9.69982 18.3039 8.69918 17.525C7.69855 16.746 6.92845 15.7098 6.47126 14.527ZM21.2813 8.47409L19.4425 9.25929C19.9392 10.4261 20.1095 11.7059 19.9351 12.962C19.7607 14.2181 19.2483 15.4031 18.4525 16.3905C18.0098 16.1377 17.5096 16.0032 16.9999 16C16.3531 15.996 15.7222 16.1997 15.2 16.5813C14.6778 16.9628 14.2919 17.502 14.0992 18.1194C13.9065 18.7368 13.9172 19.3997 14.1297 20.0105C14.3421 20.6214 14.7451 21.1479 15.2793 21.5124C15.8136 21.877 16.4507 22.0603 17.097 22.0355C17.7433 22.0107 18.3645 21.7789 18.8691 21.3744C19.3738 20.9699 19.7352 20.4141 19.9001 19.7887C20.065 19.1633 20.0248 18.5015 19.7853 17.9008C20.8942 16.6283 21.6226 15.0693 21.8872 13.4023C22.1517 11.7352 21.9416 10.0274 21.2811 8.47409H21.2813ZM14.464 6.53589C14.7838 7.09778 15.2757 7.54211 15.8671 7.80342C16.4586 8.06473 17.1183 8.12921 17.7491 7.98737C18.3799 7.84554 18.9485 7.50487 19.3712 7.01556C19.7938 6.52624 20.0482 5.91414 20.0967 5.26939C20.1453 4.62464 19.9856 3.98133 19.641 3.43421C19.2965 2.88708 18.7854 2.46506 18.1829 2.23029C17.5805 1.99552 16.9185 1.96041 16.2946 2.13014C15.6707 2.29988 15.1178 2.66547 14.7174 3.17309C13.0609 2.84885 11.3465 2.99743 9.77053 3.60183C8.19452 4.20624 6.82047 5.24205 5.80556 6.59079L7.40556 7.79079C8.16763 6.77724 9.19085 5.98988 10.3658 5.51288C11.5407 5.03588 12.8232 4.88718 14.0762 5.08269C14.0784 5.59236 14.212 6.09284 14.464 6.53589Z" fill="black"/>
</svg>
