<svg width="24" height="24" viewBox="0 0 24 24" fill="none" xmlns="http://www.w3.org/2000/svg">
<path d="M19.6386 10.71L22.4472 8.5529C21.9736 7.12138 21.2119 5.80202 20.2089 4.6761L16.9367 6.03L14.7019 4.74L14.2385 1.229C12.7619 0.923666 11.2385 0.923666 9.76192 1.229L9.29852 4.74L7.06372 6.03L3.79152 4.6761C2.78859 5.80202 2.02684 7.12138 1.55322 8.5529L4.36182 10.71V13.29L1.55322 15.4471C2.02684 16.8786 2.78859 18.198 3.79152 19.3239L7.06372 17.97L9.29852 19.26L9.76192 22.7708C11.2385 23.0761 12.7619 23.0761 14.2385 22.7708L14.7019 19.26L16.9367 17.97L20.2089 19.3241C21.2119 18.1982 21.9736 16.8788 22.4472 15.4473L19.6386 13.29V10.71ZM21.8559 15.6238C21.4404 16.7516 20.835 17.8001 20.0659 18.7238L17.1279 17.508L16.9002 17.4135L16.6868 17.5368L14.452 18.8268L14.2386 18.95L14.2064 19.1944L13.7902 22.347C12.6056 22.551 11.3948 22.551 10.2102 22.347L9.79392 19.1948L9.76192 18.95L9.54852 18.8268L7.31372 17.5368L7.10022 17.4135L6.87242 17.5078L3.93442 18.7236C3.16538 17.7999 2.55998 16.7514 2.14442 15.6236L4.66622 13.687L4.86182 13.537V10.4631L4.66622 10.3131L2.14452 8.3766C2.56008 7.24877 3.16548 6.20032 3.93452 5.2766L6.87252 6.4924L7.10022 6.5865L7.31362 6.4632L9.54842 5.1732L9.76192 5.05L9.79412 4.8056L10.2102 1.653C11.3948 1.44896 12.6056 1.44896 13.7902 1.653L14.2065 4.8052L14.2387 5.0496L14.4521 5.1728L16.6869 6.4628L16.9003 6.5861L17.1281 6.4918L20.0661 5.276C20.8352 6.19972 21.4406 7.24817 21.8561 8.376L19.3342 10.313L19.1386 10.463V13.5368L19.3342 13.6868L21.8559 15.6238ZM12.0002 8.5C11.308 8.5 10.6313 8.70527 10.0557 9.08986C9.48015 9.47444 9.03155 10.0211 8.76664 10.6606C8.50174 11.3002 8.43243 12.0039 8.56747 12.6828C8.70252 13.3618 9.03587 13.9854 9.52535 14.4749C10.0148 14.9644 10.6385 15.2977 11.3174 15.4327C11.9963 15.5678 12.7001 15.4985 13.3396 15.2336C13.9792 14.9687 14.5258 14.5201 14.9104 13.9445C15.295 13.3689 15.5002 12.6922 15.5002 12C15.4992 11.0721 15.1301 10.1824 14.4739 9.5263C13.8178 8.87015 12.9282 8.50106 12.0002 8.5ZM12.0002 15C11.4069 15 10.8269 14.8241 10.3335 14.4944C9.84016 14.1648 9.45565 13.6962 9.22858 13.1481C9.00152 12.5999 8.94211 11.9967 9.05787 11.4147C9.17362 10.8328 9.45934 10.2982 9.8789 9.87868C10.2985 9.45912 10.833 9.1734 11.415 9.05764C11.9969 8.94189 12.6001 9.0013 13.1483 9.22836C13.6965 9.45543 14.165 9.83994 14.4946 10.3333C14.8243 10.8266 15.0002 11.4067 15.0002 12C14.9993 12.7954 14.683 13.5579 14.1206 14.1204C13.5582 14.6828 12.7956 14.9991 12.0002 15Z" fill="black"/>
</svg>
