<svg width="24" height="24" viewBox="0 0 24 24" fill="none" xmlns="http://www.w3.org/2000/svg">
<path d="M19.7415 5.67251L5.67249 19.7415C7.59151 21.311 10.0252 22.1115 12.5012 21.9878C14.9772 21.8641 17.3189 20.8249 19.0719 19.0719C20.8248 17.3189 21.864 14.9772 21.9878 12.5012C22.1115 10.0252 21.311 7.59152 19.7415 5.67251ZM12 2.00001C10.1074 1.99964 8.25353 2.53647 6.65396 3.54809C5.05439 4.55972 3.77481 6.00458 2.96397 7.7147C2.15313 9.42483 1.84435 11.33 2.0735 13.2087C2.30266 15.0874 3.06035 16.8624 4.25849 18.3275L18.3275 4.25851C16.5437 2.79532 14.3071 1.99701 12 2.00001Z" fill="black"/>
</svg>
