<svg width="24" height="24" viewBox="0 0 24 24" fill="none" xmlns="http://www.w3.org/2000/svg">
<path d="M9.16669 20H9.66669V13.2955L9.16669 13.7455V20ZM3.99999 20H4.49999V17.9479L3.99999 18.3979V20ZM14.3334 20H14.8334V8.64311L14.3334 9.09311V20ZM19.99 4.00001L19.5 4.44101V20H20V4.00001H19.99ZM10.812 5.80561C10.6426 5.24149 10.344 4.72462 9.93999 4.29601L8.65999 4.88801L7.99859 4.50611L7.87159 3.10161C7.29841 2.96621 6.70157 2.96621 6.12839 3.10161L6.00109 4.50611L5.33999 4.88791L4.05999 4.29591C3.65609 4.72468 3.3577 5.24169 3.18849 5.80591L4.34109 6.61831V7.38201L3.18799 8.19431C3.35736 8.75848 3.65593 9.2754 4.05999 9.70401L5.33999 9.11201L6.00129 9.49381L6.12869 10.8984C6.70187 11.0338 7.29871 11.0338 7.87189 10.8984L7.99919 9.49391L8.65999 9.11201L9.93999 9.70401C10.3439 9.27526 10.6423 8.75824 10.8115 8.19401L9.65919 7.38181V6.61821L10.812 5.80561ZM9.39999 7.75001L10.2734 8.36571C10.1603 8.64834 10.0074 8.91333 9.81919 9.15261L8.84919 8.70401L8.63739 8.60601L8.43529 8.72271L7.77389 9.10451L7.57179 9.22121L7.55079 9.45361L7.45429 10.5178C7.15297 10.5611 6.84701 10.5611 6.54569 10.5178L6.44919 9.45321L6.42819 9.22081L6.22609 9.10411L5.56479 8.72231L5.36269 8.60561L5.15079 8.70361L4.18079 9.15211C3.99251 8.9129 3.83948 8.64794 3.72639 8.36531L4.59999 7.75001L4.79069 7.61551V6.38551L4.59999 6.25001L3.72659 5.63441C3.83976 5.35181 3.99274 5.08683 4.18089 4.84751L5.15089 5.29611L5.36269 5.39401L5.56489 5.27731L6.22619 4.89551L6.42829 4.77881L6.44939 4.54651L6.54589 3.48221C6.84718 3.43901 7.1531 3.43901 7.45439 3.48221L7.55089 4.54641L7.57189 4.77881L7.77399 4.89551L8.43549 5.27741L8.63759 5.39411L8.84929 5.29611L9.81929 4.84761C10.0075 5.08684 10.1604 5.35176 10.2736 5.63431L9.39999 6.25001L9.20919 6.38441V7.61441L9.39999 7.75001ZM6.99999 5.81571C6.76576 5.81571 6.53678 5.88517 6.34203 6.0153C6.14727 6.14544 5.99547 6.3304 5.90584 6.5468C5.8162 6.7632 5.79275 7.00133 5.83844 7.23106C5.88414 7.46079 5.99693 7.67181 6.16256 7.83744C6.32819 8.00307 6.53921 8.11586 6.76894 8.16156C6.99867 8.20725 7.2368 8.1838 7.4532 8.09416C7.6696 8.00453 7.85456 7.85273 7.9847 7.65797C8.11483 7.46322 8.18429 7.23424 8.18429 7.00001C8.18429 6.68592 8.05951 6.38468 7.83741 6.16259C7.61532 5.94049 7.31408 5.81571 6.99999 5.81571ZM6.99999 7.73431C6.85476 7.73431 6.71279 7.69125 6.59203 7.61056C6.47128 7.52987 6.37716 7.41519 6.32158 7.28102C6.26601 7.14684 6.25146 6.9992 6.2798 6.85676C6.30813 6.71432 6.37807 6.58348 6.48076 6.48078C6.58345 6.37809 6.71429 6.30815 6.85673 6.27982C6.99917 6.25149 7.14682 6.26603 7.28099 6.32161C7.41517 6.37718 7.52985 6.4713 7.61054 6.59206C7.69122 6.71281 7.73429 6.85478 7.73429 7.00001C7.73408 7.1947 7.65664 7.38134 7.51898 7.51901C7.38132 7.65667 7.19467 7.7341 6.99999 7.73431Z" fill="black"/>
</svg>
