<svg width="24" height="24" viewBox="0 0 24 24" fill="none" xmlns="http://www.w3.org/2000/svg">
<path d="M17 3H7C5.9395 3.00119 4.92278 3.423 4.17289 4.17289C3.423 4.92278 3.00119 5.9395 3 7V17C3.00119 18.0605 3.423 19.0772 4.17289 19.8271C4.92278 20.577 5.9395 20.9988 7 21H17C18.0605 20.9988 19.0772 20.577 19.8271 19.8271C20.577 19.0772 20.9988 18.0605 21 17V7C20.9988 5.9395 20.577 4.92278 19.8271 4.17289C19.0772 3.423 18.0605 3.00119 17 3ZM15.0034 13.8716L13.8716 15.0034L12 13.1318L10.1284 15.0034L8.9966 13.8716L10.8682 12L8.9966 10.1284L10.1284 8.9966L12 10.8682L13.8716 8.9966L15.0034 10.1284L13.1318 12L15.0034 13.8716Z" fill="black"/>
</svg>
