<svg width="24" height="24" viewBox="0 0 24 24" fill="none" xmlns="http://www.w3.org/2000/svg">
<path d="M9.36075 18.3605L10.06 19.0599C10.3137 18.8034 10.6159 18.5997 10.9489 18.4607C11.2819 18.3218 11.6391 18.2502 12 18.2502C12.3608 18.2502 12.718 18.3218 13.051 18.4607C13.384 18.5997 13.6862 18.8034 13.94 19.0599L14.6392 18.3605C14.2953 18.009 13.8847 17.7296 13.4315 17.5389C12.9783 17.3482 12.4915 17.25 11.9998 17.25C11.508 17.25 11.0212 17.3482 10.568 17.5389C10.1148 17.7296 9.70417 18.009 9.36035 18.3605H9.36075ZM18.3889 8L18.6252 3H17.3752L17.6115 8H18.3889ZM18.0002 9.375C17.8765 9.375 17.7557 9.41166 17.6529 9.48033C17.5501 9.54901 17.47 9.64662 17.4227 9.76082C17.3754 9.87503 17.363 10.0007 17.3872 10.1219C17.4113 10.2432 17.4708 10.3545 17.5582 10.4419C17.6456 10.5293 17.757 10.5889 17.8782 10.613C17.9995 10.6371 18.1251 10.6247 18.2393 10.5774C18.3535 10.5301 18.4511 10.45 18.5198 10.3472C18.5885 10.2445 18.6252 10.1236 18.6252 10C18.6252 9.83424 18.5593 9.67527 18.4421 9.55806C18.3249 9.44085 18.1659 9.375 18.0002 9.375Z" fill="black"/>
</svg>
