<svg width="24" height="24" viewBox="0 0 24 24" fill="none" xmlns="http://www.w3.org/2000/svg">
<path d="M20.4852 3.51471C20.021 3.05042 19.4698 2.68211 18.8631 2.43084C18.2565 2.17956 17.6063 2.05023 16.9497 2.05023C16.2931 2.05023 15.6429 2.17956 15.0363 2.43084C14.4296 2.68211 13.8784 3.05042 13.4141 3.51471L11.2182 5.71061C11.8429 5.70478 12.4645 5.79953 13.059 5.99121L14.4748 4.57541C15.1313 3.919 16.0215 3.55024 16.9498 3.55024C17.4095 3.55024 17.8646 3.64077 18.2893 3.81667C18.714 3.99257 19.0998 4.25039 19.4248 4.57541C19.7499 4.90044 20.0077 5.28629 20.1836 5.71095C20.3595 6.13562 20.45 6.59076 20.45 7.05041C20.45 7.51006 20.3595 7.96521 20.1836 8.38987C20.0077 8.81454 19.7499 9.20039 19.4248 9.52541L15.1819 13.7677C14.5251 14.4232 13.635 14.7914 12.7069 14.7914C11.7789 14.7914 10.8888 14.4232 10.2319 13.7677C9.86345 13.3964 9.59085 12.9409 9.43764 12.4407L8.32184 13.5568C8.52044 14.0316 8.80909 14.4634 9.17184 14.8284C10.1095 15.7661 11.3813 16.2928 12.7073 16.2928C14.0334 16.2928 15.3052 15.7661 16.2428 14.8284L20.4855 10.5858C20.9498 10.1215 21.3181 9.57029 21.5694 8.96365C21.8206 8.357 21.9499 7.70682 21.9499 7.0502C21.9498 6.39359 21.8205 5.74341 21.5692 5.13679C21.3179 4.53017 20.9496 3.97899 20.4852 3.51471ZM9.52524 19.4247C8.86883 20.0811 7.97855 20.4499 7.05024 20.4499C6.12194 20.4499 5.23165 20.0811 4.57524 19.4247C3.91883 18.7683 3.55007 17.878 3.55007 16.9497C3.55007 16.0214 3.91883 15.1311 4.57524 14.4747L8.81794 10.2322C9.47485 9.57674 10.3649 9.20862 11.2929 9.20862C12.2209 9.20862 13.111 9.57674 13.7679 10.2322C14.1364 10.6036 14.409 11.0591 14.5622 11.5593L15.6783 10.4432C15.4798 9.96844 15.1911 9.53663 14.8283 9.17161C13.8907 8.23395 12.6189 7.70718 11.2928 7.70718C9.96678 7.70718 8.69502 8.23395 7.75734 9.17161L3.51464 13.4142C2.57696 14.3519 2.05017 15.6237 2.05017 16.9498C2.05017 18.2759 2.57696 19.5476 3.51464 20.4853C4.45233 21.423 5.72411 21.9498 7.05019 21.9498C8.37628 21.9498 9.64806 21.423 10.5857 20.4853L12.7816 18.2893C12.157 18.2954 11.5354 18.2008 10.9408 18.0093L9.52524 19.4247Z" fill="black"/>
</svg>
