<svg width="24" height="24" viewBox="0 0 24 24" fill="none" xmlns="http://www.w3.org/2000/svg">
<path d="M6.5 12C5.60999 12 4.73996 12.2639 3.99994 12.7584C3.25991 13.2528 2.68314 13.9556 2.34254 14.7779C2.00195 15.6002 1.91283 16.505 2.08647 17.3779C2.2601 18.2508 2.68868 19.0526 3.31802 19.682C3.94736 20.3113 4.74918 20.7399 5.6221 20.9135C6.49501 21.0871 7.39981 20.998 8.22208 20.6574C9.04434 20.3168 9.74715 19.7401 10.2416 19C10.7361 18.26 11 17.39 11 16.5C11 15.3065 10.5259 14.1619 9.68198 13.318C8.83807 12.4741 7.69348 12 6.5 12ZM6.25 12.5253V16.25H2.5254C2.58633 15.2821 2.9983 14.3697 3.68403 13.684C4.36976 12.9982 5.28214 12.5862 6.25 12.5253ZM6.5 20.5C5.48498 20.4971 4.50914 20.1078 3.77085 19.4113C3.03257 18.7147 2.58724 17.7631 2.5254 16.75H6.75V12.5253C7.78647 12.588 8.75768 13.0522 9.45745 13.8194C10.1572 14.5865 10.5305 15.5962 10.4979 16.634C10.4654 17.6719 10.0296 18.6562 9.28319 19.378C8.53674 20.0998 7.53836 20.5023 6.5 20.5ZM20.5 12V21H21V12H20.5ZM14 21H14.5V14H14V21ZM17.25 21H17.75V17H17.25V21ZM20.498 3.81637L14.5557 9.28517L8.4443 3.65997L2.1643 9.44117L2.5022 9.80837L8.4443 4.33997L14.5557 9.96497L20.8357 4.18377L20.498 3.81637Z" fill="black"/>
</svg>
