<svg width="24" height="24" viewBox="0 0 24 24" fill="none" xmlns="http://www.w3.org/2000/svg">
<path d="M12 2C10.0222 2 8.08879 2.58649 6.4443 3.6853C4.79981 4.78412 3.51809 6.3459 2.76121 8.17317C2.00433 10.0004 1.8063 12.0111 2.19215 13.9509C2.578 15.8907 3.53041 17.6725 4.92894 19.0711C6.32746 20.4696 8.10929 21.422 10.0491 21.8079C11.9889 22.1937 13.9996 21.9957 15.8268 21.2388C17.6541 20.4819 19.2159 19.2002 20.3147 17.5557C21.4135 15.9112 22 13.9778 22 12C22 10.6868 21.7413 9.38642 21.2388 8.17317C20.7363 6.95991 19.9997 5.85752 19.0711 4.92893C18.1425 4.00035 17.0401 3.26375 15.8268 2.7612C14.6136 2.25866 13.3132 2 12 2ZM11.5 3.0253V10.9281L5.4473 5.85C7.02574 4.16399 9.19392 3.15213 11.5 3.0253ZM3 12C3.00073 10.0568 3.63443 8.16677 4.8052 6.6159L11.2959 12.0616L5.85 18.5523C4.95128 17.7138 4.23452 16.6994 3.74425 15.5723C3.25398 14.4451 3.00065 13.2292 3 12ZM12 21C10.0567 20.9993 8.16655 20.3655 6.6157 19.1945L12.5 12.1816V3.0253C14.8399 3.15363 17.0372 4.19011 18.6244 5.91412C20.2116 7.63814 21.0632 9.91353 20.9981 12.256C20.9329 14.5985 19.9561 16.823 18.2755 18.4561C16.595 20.0892 14.3434 21.0019 12 21Z" fill="black"/>
</svg>
