<svg width="24" height="24" viewBox="0 0 24 24" fill="none" xmlns="http://www.w3.org/2000/svg">
<path d="M12.666 21.49C11.6954 21.5137 10.7296 21.3457 9.82399 20.9954C8.9184 20.6452 8.09084 20.1197 7.38874 19.449C6.70686 18.7616 6.1907 17.9278 5.8795 17.011C5.5683 16.0941 5.47026 15.1184 5.59284 14.158L5.59474 14.1336C5.43209 14.0013 5.27629 13.8608 5.12794 13.7127C4.45425 13.0146 3.94286 12.1764 3.63024 11.258C3.31762 10.3396 3.21147 9.36353 3.31934 8.39938C3.68438 5.80185 4.94514 3.41336 6.88384 1.64648L7.59084 2.35348C5.81894 3.95669 4.66053 6.12682 4.31454 8.49118C4.2164 9.30365 4.29967 10.1278 4.55836 10.9042C4.81704 11.6806 5.24471 12.39 5.81054 12.9812C6.44825 10.8661 7.63344 8.95705 9.24614 7.44728C10.4792 6.09815 12.0796 5.13882 13.8506 4.68728C14.453 4.53415 15.084 4.53267 15.687 4.68297C16.2901 4.83327 16.8466 5.13067 17.3066 5.54858C18.6466 6.88858 18.7998 9.62088 15.9697 12.451C12.5576 15.8633 8.99804 16.08 6.55274 14.77C6.52264 15.5027 6.64414 16.2338 6.90965 16.9174C7.17516 17.601 7.57895 18.2224 8.09574 18.7427C10.6367 21.2837 15.8957 21.4263 20.6348 16.686L21.3418 17.3931C18.4473 20.2871 15.3447 21.49 12.666 21.49ZM6.67604 13.68C8.77074 15.0179 12.0617 14.9456 15.2629 11.7434C17.6074 9.39938 17.5986 7.25588 16.6 6.25588C16.2564 5.95303 15.8426 5.74072 15.3962 5.63822C14.9497 5.53572 14.4848 5.54626 14.0434 5.66888C12.4632 6.07187 11.0391 6.93725 9.95344 8.15428C8.34138 9.63415 7.20133 11.5564 6.67584 13.6807L6.67604 13.68Z" fill="black"/>
</svg>
