<svg width="24" height="24" viewBox="0 0 24 24" fill="none" xmlns="http://www.w3.org/2000/svg">
<path d="M22.2949 8.52282L11.3729 19.4447C11.3265 19.4911 11.2897 19.5463 11.2645 19.6069C11.2394 19.6676 11.2264 19.7326 11.2264 19.7983C11.2264 19.864 11.2394 19.929 11.2645 19.9896C11.2896 20.0503 11.3264 20.1054 11.3729 20.1519C11.4193 20.1983 11.4744 20.2351 11.5351 20.2603C11.5958 20.2854 11.6608 20.2983 11.7264 20.2984C11.7921 20.2984 11.8571 20.2854 11.9178 20.2603C11.9785 20.2352 12.0336 20.1983 12.08 20.1519L23.0019 9.23002L22.2949 8.52282ZM19.7782 8.21112L20.5172 7.47202C17.452 5.53321 13.8178 4.69613 10.2132 5.09861C6.60867 5.5011 3.24866 7.11916 0.686523 9.68632L1.40882 10.4085C3.77229 8.02109 6.87454 6.50433 10.2102 6.10531C13.5458 5.70629 16.9183 6.44853 19.7782 8.21112ZM16.5253 11.4638L17.2753 10.7138C15.1011 9.58656 12.6236 9.18351 10.2042 9.56347C7.78486 9.94344 5.55018 11.0865 3.82622 12.826L4.53542 13.5352C6.06852 11.983 8.04849 10.9488 10.1984 10.5774C12.3482 10.206 14.5604 10.5159 16.5254 11.4638H16.5253ZM13.0423 14.9468L13.8801 14.1091C12.6658 13.7705 11.383 13.7626 10.1646 14.0863C8.94618 14.41 7.83643 15.0534 6.95022 15.95L7.66872 16.6685C8.2349 16.0944 8.90915 15.6381 9.65258 15.3259C10.396 15.0136 11.1939 14.8517 12.0002 14.8494C12.3498 14.8515 12.6985 14.8841 13.0423 14.9468Z" fill="black"/>
</svg>
