<svg width="24" height="24" viewBox="0 0 24 24" fill="none" xmlns="http://www.w3.org/2000/svg">
<path d="M16.5569 3L21 7.4166V3H16.5569ZM19 12C19 10.6155 18.5895 9.26215 17.8203 8.11101C17.0511 6.95986 15.9579 6.06266 14.6788 5.53284C13.3997 5.00303 11.9922 4.86441 10.6344 5.1345C9.2765 5.4046 8.02922 6.07128 7.05025 7.05025C6.07128 8.02922 5.4046 9.2765 5.1345 10.6344C4.86441 11.9922 5.00303 13.3997 5.53284 14.6788C6.06266 15.9579 6.95986 17.0511 8.11101 17.8203C9.26215 18.5895 10.6155 19 12 19C13.8559 18.9979 15.6351 18.2597 16.9474 16.9474C18.2597 15.6351 18.9979 13.8559 19 12ZM3 3V7.4166L7.4431 3H3ZM21 21V16.5833L16.5569 21H21ZM3 21H7.4431L3 16.5833V21Z" fill="black"/>
</svg>
