<svg width="24" height="24" viewBox="0 0 24 24" fill="none" xmlns="http://www.w3.org/2000/svg">
<path d="M7.875 11.75H7.375V12.25H7.875V11.75ZM10.0625 11.75H9.5625V12.25H10.0625V11.75ZM18.8125 11.75H18.3125V12.25H18.8125V11.75ZM16.625 11.75H16.125V12.25H16.625V11.75ZM14.4375 11.75H13.9375V12.25H14.4375V11.75ZM5.6875 11.75H5.1875V12.25H5.6875V11.75ZM3 3V21H21V3H3ZM20.5 20.5H3.5V3.5H20.5V20.5ZM12.25 16.125H11.75V16.625H12.25V16.125ZM12.25 13.9375H11.75V14.4375H12.25V13.9375ZM12.25 5.1875H11.75V5.6875H12.25V5.1875ZM12.25 7.375H11.75V7.875H12.25V7.375ZM12.25 9.5625H11.75V10.0625H12.25V9.5625ZM12.25 18.3125H11.75V18.8125H12.25V18.3125ZM12.25 11.75H11.75V12.25H12.25V11.75Z" fill="black"/>
</svg>
