<svg width="24" height="24" viewBox="0 0 24 24" fill="none" xmlns="http://www.w3.org/2000/svg">
<path d="M15.375 21H16.875V19.5H15.375V21ZM7.125 21H8.625V19.5H7.125V21ZM16.875 3H15.375V4.5H16.875V3ZM8.625 3H7.125V4.5H8.625V3ZM19.5 3V4.5H21V3H19.5ZM19.5 8.625H21V7.125H19.5V8.625ZM19.5 16.875H21V15.375H19.5V16.875ZM19.5 21H21V19.5H19.5V21ZM4.5 3H3V4.5H4.5V3ZM4.5 7.125H3V8.625H4.5V7.125ZM12.75 3H11.25V11.25H3V12.75H11.25V21H12.75V12.75H21V11.25H12.75V3ZM3 16.875H4.5V15.375H3V16.875ZM3 21H4.5V19.5H3V21Z" fill="black"/>
</svg>
