<svg width="24" height="24" viewBox="0 0 24 24" fill="none" xmlns="http://www.w3.org/2000/svg">
<path d="M20.3765 4.98262L19.0174 3.62352C18.8281 3.43418 18.6033 3.28399 18.3559 3.18152C18.1085 3.07905 17.8434 3.02631 17.5756 3.02631C17.3079 3.02631 17.0428 3.07905 16.7954 3.18152C16.548 3.28399 16.3232 3.43418 16.1339 3.62352L3 16.7574V21H7.2427L20.3765 7.86612C20.7589 7.48373 20.9737 6.96512 20.9737 6.42437C20.9737 5.88361 20.7589 5.365 20.3765 4.98262ZM7.0356 20.5H3.5V16.9645L14.0555 6.40902L17.591 9.94452L7.0356 20.5ZM20.0229 7.51262L17.9445 9.59102L14.409 6.05552L16.4874 3.97712C16.6303 3.83419 16.7999 3.72082 16.9867 3.64347C17.1734 3.56612 17.3735 3.52631 17.5756 3.52631C17.7777 3.52631 17.9778 3.56612 18.1645 3.64347C18.3513 3.72082 18.5209 3.83419 18.6638 3.97712L20.0229 5.33622C20.3111 5.62507 20.4729 6.01641 20.4729 6.42442C20.4729 6.83242 20.3111 7.22377 20.0229 7.51262Z" fill="black"/>
</svg>
