<svg width="24" height="24" viewBox="0 0 24 24" fill="none" xmlns="http://www.w3.org/2000/svg">
<path d="M22 12C21.9991 9.39229 20.979 6.88822 19.1574 5.02224C17.3358 3.15627 14.8569 2.07622 12.25 2.0126V0H11.75V2.0126C9.14064 2.07214 6.6582 3.15053 4.8338 5.01705C3.00939 6.88356 1.98792 9.38996 1.98792 12C1.98792 14.61 3.00939 17.1164 4.8338 18.983C6.6582 20.8495 9.14064 21.9279 11.75 21.9874V24H12.25V21.9874C14.8569 21.9238 17.3357 20.8437 19.1573 18.9777C20.979 17.1118 21.9991 14.6077 22 12ZM21.4873 11.75H12.25V7H20.0625C20.9529 8.42777 21.4449 10.0679 21.4873 11.75ZM12.25 12.25H21.4873C21.4449 13.9321 20.9529 15.5722 20.0625 17H12.25V12.25ZM19.7314 6.5H12.25V2.5126C13.7209 2.55135 15.1626 2.93179 16.461 3.62384C17.7595 4.3159 18.8792 5.30057 19.7314 6.5ZM2.50001 12C2.50375 9.52574 3.47214 7.15046 5.1994 5.37887C6.92666 3.60728 9.27664 2.57903 11.75 2.5126V21.4874C9.27664 21.421 6.92666 20.3927 5.1994 18.6211C3.47214 16.8495 2.50375 14.4743 2.50001 12ZM12.25 21.4874V17.5H19.7314C18.8792 18.6994 17.7595 19.6841 16.461 20.3762C15.1626 21.0682 13.7209 21.4487 12.25 21.4874Z" fill="black"/>
</svg>
