<svg width="24" height="24" viewBox="0 0 24 24" fill="none" xmlns="http://www.w3.org/2000/svg">
<path d="M2 4V20H22V4H2ZM13.7576 14.9216C13.3353 14.5003 12.7631 14.2637 12.1666 14.2637C11.5702 14.2637 10.998 14.5003 10.5757 14.9216L9.5151 13.861C10.2189 13.1588 11.1725 12.7644 12.1667 12.7644C13.161 12.7644 14.1146 13.1588 14.8184 13.861L13.7576 14.9216ZM16.5742 12.1416C15.414 10.9585 13.8319 10.2839 12.175 10.2658C10.518 10.2477 8.92155 10.8876 7.7358 12.0451L6.687 10.9727C8.15735 9.53746 10.137 8.74405 12.1916 8.76655C14.2462 8.78905 16.2079 9.62561 17.6465 11.0927L16.5742 12.1416Z" fill="black"/>
</svg>
