<svg width="24" height="24" viewBox="0 0 24 24" fill="none" xmlns="http://www.w3.org/2000/svg">
<path d="M11.25 2.0379C8.8232 2.21602 6.54558 3.2765 4.84721 5.0191L11.25 10.3917V2.0379ZM12.75 2.0379V12.2734L6.17001 20.1134C7.42291 21.0152 8.86769 21.6144 10.391 21.8641C11.9144 22.1138 13.4749 22.0071 14.9501 21.5526C16.4253 21.098 17.7751 20.3078 18.8937 19.244C20.0123 18.1802 20.8692 16.8717 21.3973 15.4212C21.9253 13.9706 22.1101 12.4174 21.9372 10.8835C21.7642 9.34955 21.2383 7.87652 20.4005 6.57995C19.5628 5.28338 18.436 4.19852 17.1087 3.41048C15.7813 2.62243 14.2894 2.15262 12.75 2.0379ZM3.88571 6.1707C2.48563 8.11052 1.82972 10.4891 2.0377 12.8724C2.24568 15.2556 3.30368 17.4846 5.01861 19.1526L10.9434 12.0926L3.88571 6.1707Z" fill="black"/>
</svg>
