<svg width="24" height="24" viewBox="0 0 24 24" fill="none" xmlns="http://www.w3.org/2000/svg">
<path d="M3 3V7.4166L7.4431 3H3ZM3 21H7.4431L3 16.5833V21ZM16.5569 3L21 7.4166V3H16.5569ZM21 21V16.5833L16.5569 21H21ZM19 12C19 10.6155 18.5895 9.26215 17.8203 8.11101C17.0511 6.95986 15.9579 6.06266 14.6788 5.53284C13.3997 5.00303 11.9922 4.86441 10.6344 5.1345C9.2765 5.4046 8.02922 6.07128 7.05025 7.05025C6.07128 8.02922 5.4046 9.2765 5.1345 10.6344C4.86441 11.9922 5.00303 13.3997 5.53284 14.6788C6.06266 15.9579 6.95986 17.0511 8.11101 17.8203C9.26215 18.5895 10.6155 19 12 19C13.8559 18.9979 15.6351 18.2597 16.9474 16.9474C18.2597 15.6351 18.9979 13.8559 19 12ZM12 17C11.0111 17 10.0444 16.7068 9.22215 16.1573C8.3999 15.6079 7.75904 14.827 7.3806 13.9134C7.00216 12.9998 6.90315 11.9945 7.09607 11.0245C7.289 10.0546 7.7652 9.16373 8.46447 8.46447C9.16373 7.7652 10.0546 7.289 11.0245 7.09607C11.9945 6.90315 12.9998 7.00216 13.9134 7.3806C14.827 7.75904 15.6079 8.3999 16.1573 9.22215C16.7068 10.0444 17 11.0111 17 12C16.9985 13.3256 16.4713 14.5965 15.5339 15.5339C14.5965 16.4713 13.3256 16.9985 12 17Z" fill="black"/>
</svg>
