<svg width="24" height="24" viewBox="0 0 24 24" fill="none" xmlns="http://www.w3.org/2000/svg">
<path d="M3 20.5H5V19.5H3V20.5ZM19 20.5H21V19.5H19V20.5ZM15 20.5H17V19.5H15V20.5ZM11 20.5H13V19.5H11V20.5ZM7 20.5H9V19.5H7V20.5ZM11 14.5H3V15.5H11V14.5ZM13 15.5H21V14.5H13V15.5ZM3 10.5H21V9.5H3V10.5ZM18.4326 4.5205C17.9198 5.03264 17.2247 5.32031 16.5 5.32031C15.7753 5.32031 15.0802 5.03264 14.5674 4.5205C13.8721 3.86738 12.954 3.50381 12 3.50381C11.046 3.50381 10.1279 3.86738 9.4326 4.5205C8.90324 5.00617 8.21795 5.287 7.5 5.3125C6.78205 5.287 6.09676 5.00617 5.5674 4.5205C4.85924 3.88738 3.94956 3.5258 3 3.5V4.5C3.71795 4.5255 4.40324 4.80633 4.9326 5.292C5.64076 5.92512 6.55044 6.2867 7.5 6.3125C8.44956 6.2867 9.35924 5.92512 10.0674 5.292C10.5802 4.77986 11.2753 4.49219 12 4.49219C12.7247 4.49219 13.4198 4.77986 13.9326 5.292C14.6408 5.92512 15.5504 6.2867 16.5 6.3125C17.4496 6.2867 18.3592 5.92512 19.0674 5.292C19.5968 4.80633 20.2821 4.5255 21 4.5V3.5C20.0504 3.5258 19.1408 3.88738 18.4326 4.5205Z" fill="black"/>
</svg>
