<svg width="24" height="24" viewBox="0 0 24 24" fill="none" xmlns="http://www.w3.org/2000/svg">
<path d="M11.9999 12.5C11.8842 12.5 11.7721 12.5401 11.6826 12.6134C11.5932 12.6868 11.532 12.7889 11.5094 12.9024C11.4868 13.0158 11.5042 13.1336 11.5588 13.2356C11.6133 13.3376 11.7015 13.4176 11.8083 13.4619C11.9152 13.5062 12.0341 13.5121 12.1448 13.4785C12.2555 13.4449 12.3512 13.374 12.4155 13.2779C12.4797 13.1817 12.5087 13.0662 12.4974 12.9511C12.486 12.8359 12.4352 12.7283 12.3534 12.6465C12.307 12.6 12.2519 12.5631 12.1912 12.5379C12.1306 12.5128 12.0655 12.4999 11.9999 12.5ZM11.9999 7.75C10.9615 7.75 9.94649 8.05791 9.08314 8.63479C8.21978 9.21167 7.54688 10.0316 7.14952 10.9909C6.75216 11.9502 6.6482 13.0058 6.85077 14.0242C7.05334 15.0426 7.55335 15.9781 8.28757 16.7123L8.64267 16.3572C7.97793 15.6931 7.5251 14.8467 7.34146 13.9252C7.15782 13.0037 7.25163 12.0484 7.61102 11.1802C7.97041 10.312 8.57922 9.56984 9.36045 9.04771C10.1417 8.52558 11.0602 8.24689 11.9999 8.24689C12.9395 8.24689 13.8581 8.52558 14.6393 9.04771C15.4205 9.56984 16.0293 10.312 16.3887 11.1802C16.7481 12.0484 16.8419 13.0037 16.6583 13.9252C16.4746 14.8467 16.0218 15.6931 15.3571 16.3572L15.7122 16.7123C16.4464 15.9781 16.9464 15.0426 17.149 14.0242C17.3515 13.0058 17.2476 11.9502 16.8502 10.9909C16.4529 10.0316 15.78 9.21167 14.9166 8.63479C14.0532 8.05791 13.0382 7.75 11.9999 7.75ZM11.9999 3C10.0221 3.00003 8.0887 3.58653 6.44424 4.68535C4.79977 5.78416 3.51807 7.34594 2.7612 9.17318C2.00434 11.0004 1.8063 13.0111 2.19214 14.9509C2.57799 16.8907 3.53037 18.6725 4.92887 20.071L5.28547 19.7144C3.95599 18.3862 3.05033 16.6934 2.68305 14.8504C2.31578 13.0073 2.5034 11.0967 3.22217 9.36031C3.94094 7.6239 5.15858 6.13969 6.72104 5.09542C8.28349 4.05116 10.1206 3.49377 11.9999 3.49377C13.8792 3.49377 15.7162 4.05116 17.2787 5.09542C18.8412 6.13969 20.0588 7.6239 20.7776 9.36031C21.4963 11.0967 21.684 13.0073 21.3167 14.8504C20.9494 16.6934 20.0437 18.3862 18.7143 19.7144L19.0709 20.071C20.4694 18.6725 21.4218 16.8907 21.8076 14.9509C22.1934 13.0111 21.9954 11.0004 21.2385 9.17318C20.4817 7.34594 19.2 5.78416 17.5555 4.68535C15.911 3.58653 13.9777 3.00003 11.9999 3Z" fill="black"/>
</svg>
