<svg width="24" height="24" viewBox="0 0 24 24" fill="none" xmlns="http://www.w3.org/2000/svg">
<path d="M20.5 12C20.5003 12.8475 20.3734 13.6902 20.1236 14.5H16.5865C16.6945 13.671 16.7491 12.836 16.75 12H15.2C15.2008 12.8353 15.1537 13.67 15.0588 14.5H8.9412C8.75294 12.8386 8.75294 11.1613 8.9412 9.49998H12V7.99998H9.1769C9.7156 5.32278 10.7769 3.49998 12 3.49998V1.99998C10.0222 1.99998 8.08879 2.58647 6.4443 3.68529C4.79981 4.7841 3.51809 6.34589 2.76121 8.17315C2.00433 10.0004 1.8063 12.0111 2.19215 13.9509C2.578 15.8907 3.53041 17.6725 4.92894 19.071C6.32746 20.4696 8.10929 21.422 10.0491 21.8078C11.9889 22.1937 13.9996 21.9957 15.8268 21.2388C17.6541 20.4819 19.2159 19.2002 20.3147 17.5557C21.4135 15.9112 22 13.9778 22 12H20.5ZM9.3308 3.93568C8.51543 5.16796 7.9515 6.54916 7.6714 7.99998H4.5041C5.53504 6.07862 7.26197 4.62446 9.3308 3.93568ZM3.5 12C3.49968 11.1525 3.62656 10.3098 3.8764 9.49998H7.4135C7.1955 11.1595 7.1955 12.8404 7.4135 14.5H3.8764C3.62656 13.6902 3.49968 12.8475 3.5 12ZM4.5041 16H7.6714C7.95148 17.4508 8.51541 18.832 9.3308 20.0643C7.26199 19.3755 5.53506 17.9213 4.5041 16ZM12 20.5C10.7773 20.5 9.7156 18.6771 9.1769 16H14.8231C14.2844 18.6771 13.2227 20.5 12 20.5ZM14.6692 20.0643C15.4846 18.832 16.0485 17.4508 16.3286 16H19.4959C18.4649 17.9213 16.738 19.3755 14.6692 20.0643ZM21 4.99998H20V4.09998C20.0133 3.8291 19.9714 3.55834 19.8769 3.30413C19.7823 3.04992 19.6372 2.81756 19.4502 2.62115C19.2631 2.42474 19.0382 2.26836 18.7889 2.16152C18.5396 2.05467 18.2712 1.99957 18 1.99957C17.7288 1.99957 17.4604 2.05467 17.2111 2.16152C16.9619 2.26836 16.7369 2.42474 16.5499 2.62115C16.3628 2.81756 16.2177 3.04992 16.1231 3.30413C16.0286 3.55834 15.9867 3.8291 16 4.09998V4.99998H15V8.99998H21V4.99998ZM17.2 4.09998C17.1866 3.98698 17.1973 3.87242 17.2314 3.76385C17.2655 3.65527 17.3222 3.55516 17.3978 3.47009C17.4733 3.38502 17.5661 3.31693 17.6699 3.2703C17.7737 3.22367 17.8862 3.19956 18 3.19956C18.1138 3.19956 18.2263 3.22367 18.3301 3.2703C18.4339 3.31693 18.5267 3.38502 18.6022 3.47009C18.6778 3.55516 18.7345 3.65527 18.7686 3.76385C18.8027 3.87242 18.8134 3.98698 18.8 4.09998V4.99998H17.2V4.09998ZM19.8 7.79998H16.2V6.19998H19.8V7.79998Z" fill="black"/>
</svg>
