<svg width="24" height="24" viewBox="0 0 24 24" fill="none" xmlns="http://www.w3.org/2000/svg">
<path d="M12 8.19997C11.2484 8.19997 10.5137 8.42284 9.88882 8.84039C9.26392 9.25794 8.77686 9.85142 8.48925 10.5458C8.20164 11.2401 8.12638 12.0042 8.27301 12.7413C8.41963 13.4784 8.78154 14.1555 9.31298 14.687C9.84442 15.2184 10.5215 15.5803 11.2586 15.727C11.9958 15.8736 12.7598 15.7983 13.4542 15.5107C14.1485 15.2231 14.742 14.736 15.1596 14.1111C15.5771 13.4862 15.8 12.7515 15.8 12C15.7988 10.9925 15.3981 10.0266 14.6857 9.31425C13.9733 8.60187 13.0075 8.20114 12 8.19997ZM12 14.3C11.5451 14.3 11.1004 14.1651 10.7222 13.9124C10.3439 13.6596 10.0491 13.3004 9.87507 12.8801C9.70099 12.4599 9.65544 11.9974 9.74418 11.5513C9.83293 11.1051 10.052 10.6953 10.3736 10.3736C10.6953 10.052 11.1051 9.83291 11.5513 9.74417C11.9974 9.65542 12.4599 9.70097 12.8802 9.87505C13.3004 10.0491 13.6596 10.3439 13.9124 10.7222C14.1651 11.1004 14.3 11.5451 14.3 12C14.2993 12.6098 14.0568 13.1944 13.6256 13.6256C13.1944 14.0567 12.6098 14.2993 12 14.3ZM20.2886 11.1567L22.6621 9.20257L22.4468 8.55177C21.973 7.12121 21.2118 5.80256 20.21 4.67677L19.7539 4.16497L16.875 5.24367L15.4136 4.39997L14.9082 1.36677L14.2368 1.22807C12.7612 0.923406 11.2388 0.923406 9.76319 1.22807L9.09179 1.36677L8.58639 4.39997L7.12499 5.24367L4.24609 4.16497L3.78999 4.67677C2.78818 5.80256 2.02701 7.12121 1.55319 8.55177L1.33789 9.20257L3.71139 11.1567V12.8433L1.33789 14.7974L1.55319 15.4482C2.0268 16.8788 2.78819 18.1974 3.79049 19.3228L4.24609 19.8345L7.12499 18.7563L8.58639 19.6L9.09179 22.6332L9.76319 22.7719C11.2388 23.0765 12.7612 23.0765 14.2368 22.7719L14.9082 22.6332L15.4136 19.6L16.875 18.7567L19.7539 19.8354L20.21 19.3236C21.2118 18.1978 21.973 16.8791 22.4468 15.4486L22.6621 14.7978L20.2886 12.8437V11.1567ZM20.9099 15.2978C20.5364 16.3042 19.996 17.2405 19.3113 18.0673L17.4013 17.3517L16.7384 17.1033L16.1251 17.4571L14.6638 18.3L14.0503 18.654L13.9341 19.3527L13.5986 21.3648C12.5404 21.5444 11.4596 21.5444 10.4014 21.3648L10.0659 19.3526L9.94999 18.6544L9.33619 18.3L7.87479 17.4567L7.26169 17.103L6.59889 17.3512L4.68889 18.0666C4.00401 17.2402 3.46346 16.3041 3.08999 15.2979L4.66469 14.0013L5.21129 13.5513V10.4487L4.66469 9.99867L3.08999 8.70207C3.46354 7.69569 4.00401 6.75945 4.68869 5.93267L6.59869 6.64827L7.26159 6.89657L7.87489 6.54277L9.33619 5.69997L9.94969 5.34597L10.0659 4.64727L10.4014 2.63507C11.4596 2.45547 12.5404 2.45547 13.5986 2.63507L13.9341 4.64727L14.0503 5.34597L14.6638 5.69997L16.1252 6.54317L16.7385 6.89697L17.4014 6.64867L19.3114 5.93307C19.9961 6.75968 20.5365 7.6958 20.91 8.70207L19.3352 9.99867L18.7886 10.4487V13.5513L19.3352 14.0013L20.9099 15.2978Z" fill="black"/>
</svg>
