<svg width="24" height="24" viewBox="0 0 24 24" fill="none" xmlns="http://www.w3.org/2000/svg">
<path d="M16.6765 7.3234C16.3006 6.08326 15.6098 4.96168 14.6714 4.06799C13.733 3.1743 12.5791 2.53899 11.3221 2.224C10.0651 1.90901 8.74793 1.92508 7.49899 2.27065C6.25006 2.61621 5.11197 3.27949 4.19567 4.19581C3.27936 5.11213 2.61611 6.25024 2.27057 7.49918C1.92503 8.74812 1.90899 10.0653 2.22401 11.3223C2.53903 12.5793 3.17436 13.7332 4.06807 14.6716C4.96178 15.6099 6.08338 16.3007 7.32353 16.6766C7.69944 17.9167 8.39026 19.0383 9.32865 19.932C10.267 20.8257 11.421 21.461 12.678 21.776C13.935 22.091 15.2521 22.0749 16.5011 21.7294C17.75 21.3838 18.8881 20.7205 19.8044 19.8042C20.7207 18.8879 21.3839 17.7498 21.7295 16.5008C22.075 15.2519 22.0911 13.9347 21.776 12.6777C21.461 11.4207 20.8257 10.2668 19.932 9.32845C19.0383 8.39009 17.9167 7.69929 16.6765 7.3234ZM4.00003 9.5C3.99917 8.26472 4.41447 7.06517 5.17893 6.09484C5.9434 5.12452 7.01244 4.44002 8.21362 4.15175C9.4148 3.86348 10.6781 3.98826 11.7996 4.50595C12.9212 5.02365 13.8357 5.90407 14.3955 7.0052C12.444 7.03215 10.5799 7.81939 9.19981 9.19949C7.81972 10.5796 7.03248 12.4436 7.00553 14.3952C6.10222 13.9353 5.34353 13.2348 4.81318 12.371C4.28282 11.5072 4.00142 10.5136 4.00003 9.5ZM14.5 20C13.4864 19.9987 12.4928 19.7173 11.6289 19.187C10.7651 18.6567 10.0645 17.8981 9.60453 16.9948C11.5561 16.9679 13.4201 16.1806 14.8002 14.8005C16.1803 13.4204 16.9676 11.5564 16.9945 9.6048C18.0956 10.1647 18.9759 11.0791 19.4935 12.2006C20.0112 13.3221 20.136 14.5853 19.8477 15.7864C19.5595 16.9875 18.8751 18.0565 17.9049 18.8209C16.9347 19.5854 15.7352 20.0008 14.5 20Z" fill="black"/>
</svg>
