<svg width="24" height="24" viewBox="0 0 24 24" fill="none" xmlns="http://www.w3.org/2000/svg">
<path d="M17 3H7C5.93913 3 4.92172 3.42143 4.17157 4.17157C3.42143 4.92172 3 5.93913 3 7V17C3 18.0609 3.42143 19.0783 4.17157 19.8284C4.92172 20.5786 5.93913 21 7 21H17C18.0609 21 19.0783 20.5786 19.8284 19.8284C20.5786 19.0783 21 18.0609 21 17V7C21 5.93913 20.5786 4.92172 19.8284 4.17157C19.0783 3.42143 18.0609 3 17 3ZM20 17C19.9991 17.7954 19.6827 18.5579 19.1203 19.1203C18.5579 19.6827 17.7954 19.9991 17 20H7C6.20463 19.9991 5.44209 19.6827 4.87967 19.1203C4.31726 18.5579 4.0009 17.7954 4 17V7C4.0009 6.20463 4.31726 5.44209 4.87967 4.87967C5.44209 4.31726 6.20463 4.0009 7 4H17C17.7954 4.0009 18.5579 4.31726 19.1203 4.87967C19.6827 5.44209 19.9991 6.20463 20 7V17ZM11.3975 13.0474L9.0186 10.6685L8.3115 11.3755L11.3975 14.4614L15.876 9.9839L15.1689 9.2769L11.3975 13.0474Z" fill="black"/>
</svg>
