<svg width="24" height="24" viewBox="0 0 24 24" fill="none" xmlns="http://www.w3.org/2000/svg">
<path d="M16 5C15.3191 5.00035 14.642 5.10017 13.99 5.2963C14.1375 5.4282 14.2847 5.5601 14.4231 5.7014C15.3827 5.45679 16.3856 5.43469 17.355 5.63678C18.3245 5.83887 19.235 6.25981 20.017 6.86747C20.799 7.47512 21.4317 8.25342 21.867 9.14294C22.3023 10.0325 22.5286 11.0097 22.5286 12C22.5286 12.9903 22.3023 13.9675 21.867 14.8571C21.4317 15.7466 20.799 16.5249 20.017 17.1325C19.235 17.7402 18.3245 18.1611 17.355 18.3632C16.3856 18.5653 15.3827 18.5432 14.4231 18.2986C14.2845 18.4399 14.1375 18.5718 13.99 18.7037C14.9527 18.9924 15.9663 19.0703 16.9618 18.9322C17.9573 18.7942 18.9114 18.4434 19.7592 17.9036C20.607 17.3639 21.3286 16.6479 21.875 15.8043C22.4213 14.9608 22.7796 14.0095 22.9255 13.0151C23.0713 12.0207 23.0013 11.0065 22.7202 10.0416C22.4391 9.07668 21.9535 8.18361 21.2964 7.42314C20.6393 6.66266 19.8261 6.05262 18.9122 5.63449C17.9983 5.21636 17.005 4.99996 16 5ZM8 5C6.61553 5 5.26216 5.41054 4.11101 6.17971C2.95987 6.94888 2.06266 8.04213 1.53285 9.32122C1.00303 10.6003 0.86441 12.0078 1.13451 13.3656C1.4046 14.7235 2.07129 15.9708 3.05026 16.9497C4.02922 17.9287 5.2765 18.5954 6.63437 18.8655C7.99224 19.1356 9.3997 18.997 10.6788 18.4672C11.9579 17.9373 13.0511 17.0401 13.8203 15.889C14.5895 14.7378 15 13.3845 15 12C15 10.1435 14.2625 8.36301 12.9497 7.05025C11.637 5.7375 9.85652 5 8 5ZM8 18.5C6.71442 18.5 5.45772 18.1188 4.3888 17.4046C3.31988 16.6903 2.48676 15.6752 1.99479 14.4874C1.50282 13.2997 1.37409 11.9928 1.6249 10.7319C1.8757 9.47104 2.49477 8.31285 3.40381 7.40381C4.31285 6.49476 5.47104 5.8757 6.73192 5.6249C7.99279 5.37409 9.29973 5.50281 10.4874 5.99478C11.6752 6.48675 12.6903 7.31987 13.4046 8.38879C14.1188 9.45771 14.5 10.7144 14.5 12C14.4981 13.7233 13.8126 15.3755 12.5941 16.5941C11.3755 17.8126 9.72332 18.4981 8 18.5Z" fill="black"/>
</svg>
