<svg width="24" height="24" viewBox="0 0 24 24" fill="none" xmlns="http://www.w3.org/2000/svg">
<path d="M12.6641 21.24C11.7266 21.2636 10.7936 21.1019 9.91865 20.7643C9.04371 20.4266 8.24402 19.9196 7.5654 19.2723C6.91028 18.611 6.41448 17.8091 6.11565 16.9275C5.81683 16.0459 5.72283 15.1077 5.8408 14.1844C5.8467 14.1307 5.8535 14.0779 5.8608 14.0244C5.6651 13.8739 5.47947 13.7108 5.3051 13.5361C4.65241 12.8672 4.15767 12.0607 3.85716 11.1758C3.55665 10.2909 3.45799 9.3499 3.5684 8.42188C3.92851 5.88278 5.16358 3.54899 7.0605 1.82318L7.4141 2.17678C5.60022 3.82081 4.41636 6.04587 4.0664 8.46878C3.96319 9.32348 4.05258 10.1904 4.32802 11.0061C4.60346 11.8218 5.05796 12.5654 5.6582 13.1826C5.7529 13.2773 5.8525 13.3691 5.9551 13.457C6.52209 11.218 7.72676 9.19168 9.4229 7.62398C10.6207 6.31033 12.1763 5.37535 13.8984 4.93398C14.4606 4.78887 15.0499 4.78525 15.6138 4.92345C16.1777 5.06165 16.6986 5.33737 17.1299 5.72598C18.3848 6.98088 18.502 9.56598 15.793 12.2748C12.3105 15.7563 8.6855 15.8227 6.3271 14.35C6.2352 15.1821 6.33044 16.0242 6.60585 16.8148C6.88126 17.6054 7.32988 18.3244 7.9189 18.9193C10.5469 21.5453 15.958 21.7162 20.8115 16.8627L21.165 17.2162C18.3223 20.0586 15.2812 21.24 12.6641 21.24ZM6.3994 13.7979C8.5742 15.2891 12.0635 15.2959 15.4394 11.9209C17.9052 9.45508 17.8612 7.16408 16.7763 6.07908C16.4039 5.74667 15.9543 5.5126 15.4684 5.39816C14.9824 5.28371 14.4756 5.29252 13.994 5.42378C12.3701 5.84758 10.9046 6.73491 9.7764 7.97748C8.08202 9.52663 6.90339 11.5581 6.3994 13.7979Z" fill="black"/>
</svg>
