<svg width="24" height="24" viewBox="0 0 24 24" fill="none" xmlns="http://www.w3.org/2000/svg">
<path d="M20.6133 4.44732C20.332 4.16609 19.9505 4.0081 19.5528 4.0081C19.155 4.0081 18.7735 4.16609 18.4922 4.44732L12 10.94L9.44273 8.38223C9.91144 7.65194 10.0937 6.77418 9.95452 5.91766C9.81533 5.06113 9.36449 4.28626 8.68865 3.74197C8.01281 3.19768 7.15965 2.92237 6.29314 2.96894C5.42663 3.01552 4.6079 3.3807 3.9943 3.9943C3.3807 4.6079 3.01552 5.42663 2.96894 6.29314C2.92237 7.15965 3.19768 8.01281 3.74197 8.68865C4.28626 9.36449 5.06113 9.81533 5.91766 9.95452C6.77418 10.0937 7.65194 9.91144 8.38223 9.44273L10.94 12L8.38223 14.5573C7.65194 14.0886 6.77418 13.9063 5.91766 14.0455C5.06113 14.1847 4.28626 14.6356 3.74197 15.3114C3.19768 15.9872 2.92237 16.8404 2.96894 17.7069C3.01552 18.5734 3.3807 19.3921 3.9943 20.0058C4.6079 20.6194 5.42663 20.9845 6.29314 21.0311C7.15965 21.0777 8.01281 20.8024 8.68865 20.2581C9.36449 19.7138 9.81533 18.9389 9.95452 18.0824C10.0937 17.2259 9.91144 16.3481 9.44273 15.6178L12 13.0605L18.4922 19.5527C18.7735 19.834 19.155 19.992 19.5528 19.992C19.9505 19.992 20.332 19.834 20.6133 19.5527L13.0605 12L20.6133 4.44732ZM6.50002 8.50002C6.10446 8.50002 5.71778 8.38273 5.38888 8.16296C5.05999 7.9432 4.80364 7.63084 4.65227 7.26539C4.50089 6.89994 4.46128 6.49781 4.53845 6.10984C4.61562 5.72188 4.80611 5.36552 5.08581 5.08581C5.36552 4.80611 5.72188 4.61562 6.10984 4.53845C6.49781 4.46128 6.89994 4.50089 7.26539 4.65227C7.63084 4.80364 7.9432 5.05999 8.16296 5.38888C8.38273 5.71778 8.50002 6.10446 8.50002 6.50002C8.49942 7.03027 8.28851 7.53863 7.91357 7.91357C7.53863 8.28851 7.03027 8.49942 6.50002 8.50002ZM6.50002 19.5C6.10446 19.5 5.71778 19.3827 5.38888 19.163C5.05999 18.9432 4.80364 18.6308 4.65227 18.2654C4.50089 17.8999 4.46128 17.4978 4.53845 17.1098C4.61562 16.7219 4.80611 16.3655 5.08581 16.0858C5.36552 15.8061 5.72188 15.6156 6.10984 15.5385C6.49781 15.4613 6.89994 15.5009 7.26539 15.6523C7.63084 15.8036 7.9432 16.06 8.16296 16.3889C8.38273 16.7178 8.50002 17.1045 8.50002 17.5C8.49942 18.0303 8.28851 18.5386 7.91357 18.9136C7.53863 19.2885 7.03027 19.4994 6.50002 19.5Z" fill="black"/>
</svg>
