<svg width="24" height="24" viewBox="0 0 24 24" fill="none" xmlns="http://www.w3.org/2000/svg">
<path d="M2 4V20H22V4H2ZM13.5808 15.1347C13.2054 14.7602 12.6968 14.5499 12.1666 14.5499C11.6364 14.5499 11.1278 14.7602 10.7524 15.1347L9.3384 13.7205C10.0891 12.9714 11.1063 12.5507 12.1667 12.5507C13.2272 12.5507 14.2444 12.9714 14.9951 13.7205L13.5808 15.1347ZM16.4092 12.3063C15.2832 11.1827 13.7574 10.5517 12.1666 10.5517C10.5759 10.5517 9.05014 11.1827 7.9241 12.3063L6.51 10.8921C8.01147 9.39404 10.0459 8.55272 12.1669 8.55272C14.2878 8.55272 16.3222 9.39404 17.8237 10.8921L16.4092 12.3063Z" fill="black"/>
</svg>
