<svg width="24" height="24" viewBox="0 0 24 24" fill="none" xmlns="http://www.w3.org/2000/svg">
<path d="M9.5833 17.5H8C7.60231 17.4995 7.22104 17.3414 6.93984 17.0602C6.65863 16.779 6.50045 16.3977 6.5 16V8C6.50045 7.60231 6.65863 7.22104 6.93984 6.93984C7.22104 6.65863 7.60231 6.50045 8 6.5H11V5H8C7.20435 5 6.44129 5.31607 5.87868 5.87868C5.31607 6.44129 5 7.20435 5 8V16C5 16.7956 5.31607 17.5587 5.87868 18.1213C6.44129 18.6839 7.20435 19 8 19H9.5833V20.75L12.0833 18.25L9.5833 15.75V17.5ZM15 5V6.5H19V5H15ZM15 12.75H19V11.25H15V12.75ZM15 19H19V17.5H15V19Z" fill="black"/>
</svg>
