<svg width="24" height="24" viewBox="0 0 24 24" fill="none" xmlns="http://www.w3.org/2000/svg">
<path d="M13 7.5C13 6.41221 12.6774 5.34884 12.0731 4.44437C11.4687 3.5399 10.6098 2.83495 9.60476 2.41867C8.59977 2.00238 7.4939 1.89346 6.42701 2.10568C5.36011 2.3179 4.3801 2.84173 3.61092 3.61092C2.84173 4.3801 2.3179 5.36011 2.10568 6.42701C1.89346 7.4939 2.00238 8.59977 2.41867 9.60476C2.83495 10.6098 3.5399 11.4687 4.44437 12.0731C5.34884 12.6774 6.41221 13 7.5 13C8.95816 12.9983 10.3561 12.4182 11.3872 11.3872C12.4182 10.3561 12.9983 8.95816 13 7.5ZM19 6C18.4067 6 17.8266 6.17595 17.3333 6.50559C16.8399 6.83524 16.4554 7.30377 16.2284 7.85195C16.0013 8.40013 15.9419 9.00333 16.0576 9.58527C16.1734 10.1672 16.4591 10.7018 16.8787 11.1213C17.2982 11.5409 17.8328 11.8266 18.4147 11.9424C18.9967 12.0581 19.5999 11.9987 20.1481 11.7716C20.6962 11.5446 21.1648 11.1601 21.4944 10.6667C21.8241 10.1734 22 9.59335 22 9C21.9991 8.20462 21.6828 7.44207 21.1204 6.87965C20.5579 6.31723 19.7954 6.00088 19 6ZM14 14C13.2089 14 12.4355 14.2346 11.7777 14.6741C11.1199 15.1137 10.6072 15.7384 10.3045 16.4693C10.0017 17.2002 9.92252 18.0044 10.0769 18.7804C10.2312 19.5563 10.6122 20.269 11.1716 20.8284C11.731 21.3878 12.4437 21.7688 13.2196 21.9231C13.9956 22.0775 14.7998 21.9983 15.5307 21.6955C16.2616 21.3928 16.8864 20.8801 17.3259 20.2223C17.7654 19.5645 18 18.7911 18 18C17.9989 16.9395 17.5771 15.9227 16.8272 15.1728C16.0773 14.4229 15.0605 14.0011 14 14Z" fill="black"/>
</svg>
