<svg width="24" height="24" viewBox="0 0 24 24" fill="none" xmlns="http://www.w3.org/2000/svg">
<path d="M19 3H5C4.46957 3 3.96086 3.21071 3.58579 3.58579C3.21071 3.96086 3 4.46957 3 5V19C3 19.5304 3.21071 20.0391 3.58579 20.4142C3.96086 20.7893 4.46957 21 5 21H19C19.5304 21 20.0391 20.7893 20.4142 20.4142C20.7893 20.0391 21 19.5304 21 19V5C21 4.46957 20.7893 3.96086 20.4142 3.58579C20.0391 3.21071 19.5304 3 19 3ZM5.5332 5.9C5.45409 5.9 5.37675 5.87654 5.31097 5.83259C5.24519 5.78864 5.19392 5.72616 5.16365 5.65307C5.13337 5.57998 5.12545 5.49956 5.14089 5.42196C5.15632 5.34437 5.19442 5.2731 5.25036 5.21716C5.3063 5.16122 5.37757 5.12312 5.45516 5.10769C5.53276 5.09225 5.61318 5.10017 5.68627 5.13045C5.75936 5.16072 5.82184 5.21199 5.86579 5.27777C5.90974 5.34355 5.9332 5.42089 5.9332 5.5C5.9332 5.60609 5.89106 5.70783 5.81604 5.78284C5.74103 5.85786 5.63929 5.9 5.5332 5.9ZM7.7393 5.9C7.66019 5.9 7.58285 5.87654 7.51707 5.83259C7.45129 5.78864 7.40002 5.72616 7.36975 5.65307C7.33947 5.57998 7.33155 5.49956 7.34699 5.42196C7.36242 5.34437 7.40052 5.2731 7.45646 5.21716C7.5124 5.16122 7.58367 5.12312 7.66126 5.10769C7.73886 5.09225 7.81928 5.10017 7.89237 5.13045C7.96546 5.16072 8.02794 5.21199 8.07189 5.27777C8.11584 5.34355 8.1393 5.42089 8.1393 5.5C8.1393 5.60609 8.09716 5.70783 8.02214 5.78284C7.94713 5.85786 7.84539 5.9 7.7393 5.9ZM9.9458 5.9C9.86669 5.9 9.78935 5.87654 9.72357 5.83259C9.65779 5.78864 9.60652 5.72616 9.57625 5.65307C9.54597 5.57998 9.53805 5.49956 9.55349 5.42196C9.56892 5.34437 9.60702 5.2731 9.66296 5.21716C9.7189 5.16122 9.79017 5.12312 9.86776 5.10769C9.94536 5.09225 10.0258 5.10017 10.0989 5.13045C10.172 5.16072 10.2344 5.21199 10.2784 5.27777C10.3223 5.34355 10.3458 5.42089 10.3458 5.5C10.3458 5.60609 10.3037 5.70783 10.2286 5.78284C10.1536 5.85786 10.0519 5.9 9.9458 5.9Z" fill="black"/>
</svg>
