<svg width="24" height="24" viewBox="0 0 24 24" fill="none" xmlns="http://www.w3.org/2000/svg">
<path d="M9.6512 7.68221L12.0833 5.25001L9.6512 2.81781L9.2972 3.17171L11.1255 5.00001H8C7.20435 5.00001 6.44129 5.31608 5.87868 5.87869C5.31607 6.4413 5 7.20436 5 8.00001V16C5 16.7957 5.31607 17.5587 5.87868 18.1213C6.44129 18.6839 7.20435 19 8 19H11V18.5H8C7.33719 18.4993 6.70173 18.2356 6.23305 17.767C5.76437 17.2983 5.50074 16.6628 5.5 16V8.00001C5.50074 7.3372 5.76437 6.70174 6.23305 6.23306C6.70173 5.76438 7.33719 5.50075 8 5.50001H11.1255L9.2972 7.32831L9.6512 7.68221ZM19 19V18.5H15V19H19ZM15 12.25H19V11.75H15V12.25ZM15 5.50001H19V5.00001H15V5.50001Z" fill="black"/>
</svg>
