<svg width="24" height="24" viewBox="0 0 24 24" fill="none" xmlns="http://www.w3.org/2000/svg">
<path d="M19 3H5C4.46957 3 3.96086 3.21071 3.58579 3.58579C3.21071 3.96086 3 4.46957 3 5V19C3 19.5304 3.21071 20.0391 3.58579 20.4142C3.96086 20.7893 4.46957 21 5 21H19C19.5304 21 20.0391 20.7893 20.4142 20.4142C20.7893 20.0391 21 19.5304 21 19V5C21 4.46957 20.7893 3.96086 20.4142 3.58579C20.0391 3.21071 19.5304 3 19 3ZM20 19C19.9997 19.2651 19.8942 19.5193 19.7068 19.7068C19.5193 19.8942 19.2651 19.9997 19 20H5C4.73488 19.9997 4.48071 19.8942 4.29324 19.7068C4.10578 19.5193 4.00032 19.2651 4 19V5C4.00032 4.73488 4.10578 4.48071 4.29324 4.29324C4.48071 4.10578 4.73488 4.00032 5 4H19C19.2651 4.00032 19.5193 4.10578 19.7068 4.29324C19.8942 4.48071 19.9997 4.73488 20 5V19ZM16.5 6H7.5C7.10218 6 6.72064 6.15804 6.43934 6.43934C6.15804 6.72064 6 7.10218 6 7.5C6 7.89782 6.15804 8.27936 6.43934 8.56066C6.72064 8.84196 7.10218 9 7.5 9H16.5C16.8978 9 17.2794 8.84196 17.5607 8.56066C17.842 8.27936 18 7.89782 18 7.5C18 7.10218 17.842 6.72064 17.5607 6.43934C17.2794 6.15804 16.8978 6 16.5 6ZM16.5 8H7.5C7.36739 8 7.24021 7.94732 7.14645 7.85355C7.05268 7.75979 7 7.63261 7 7.5C7 7.36739 7.05268 7.24021 7.14645 7.14645C7.24021 7.05268 7.36739 7 7.5 7H16.5C16.6326 7 16.7598 7.05268 16.8536 7.14645C16.9473 7.24021 17 7.36739 17 7.5C17 7.63261 16.9473 7.75979 16.8536 7.85355C16.7598 7.94732 16.6326 8 16.5 8Z" fill="black"/>
</svg>
