<svg width="24" height="24" viewBox="0 0 24 24" fill="none" xmlns="http://www.w3.org/2000/svg">
<path d="M20.4852 3.51471C20.021 3.05042 19.4698 2.68211 18.8631 2.43084C18.2565 2.17956 17.6063 2.05023 16.9497 2.05023C16.2931 2.05023 15.6429 2.17956 15.0363 2.43084C14.4296 2.68211 13.8784 3.05042 13.4141 3.51471L11.2182 5.71061C12.0426 5.70329 12.8619 5.84148 13.6382 6.11881L14.8282 4.92881C15.3909 4.3662 16.154 4.05013 16.9496 4.05014C17.3436 4.05014 17.7337 4.12775 18.0977 4.27852C18.4617 4.42929 18.7924 4.65028 19.071 4.92886C19.3496 5.20745 19.5706 5.53818 19.7213 5.90217C19.8721 6.26616 19.9497 6.65627 19.9497 7.05025C19.9497 7.44422 19.8721 7.83434 19.7213 8.19833C19.5705 8.56231 19.3495 8.89303 19.0709 9.17161L14.8283 13.4142C14.2653 13.976 13.5024 14.2915 12.707 14.2915C11.9117 14.2915 11.1488 13.976 10.5857 13.4142C10.3467 13.1704 10.1516 12.8871 10.0089 12.5768L8.53564 14.05C8.94462 14.6684 9.48596 15.1881 10.1205 15.5715C10.755 15.955 11.4669 16.1925 12.2045 16.267C12.9421 16.3415 13.6871 16.2511 14.3855 16.0023C15.0838 15.7535 15.7182 15.3525 16.2425 14.8284L20.4852 10.5858C20.9495 10.1215 21.3178 9.57032 21.5691 8.96369C21.8204 8.35706 21.9497 7.70688 21.9497 7.05026C21.9497 6.39365 21.8204 5.74347 21.5691 5.13684C21.3178 4.53021 20.9495 3.97901 20.4852 3.51471ZM9.17154 19.071C8.60809 19.6295 7.84634 19.9422 7.05296 19.9404C6.25959 19.9387 5.49921 19.6227 4.93821 19.0617C4.37721 18.5007 4.06128 17.7404 4.05954 16.947C4.0578 16.1536 4.37041 15.3919 4.92894 14.8284L9.17154 10.5858C9.73458 10.024 10.4975 9.70852 11.2928 9.70852C12.0882 9.70852 12.8511 10.024 13.4141 10.5858C13.6532 10.8296 13.8484 11.1129 13.9909 11.4232L15.4642 9.95001C15.0552 9.33168 14.5139 8.81201 13.8793 8.4286C13.2448 8.0452 12.533 7.80766 11.7954 7.73317C11.0578 7.65868 10.3128 7.7491 9.61443 7.9979C8.91605 8.2467 8.28172 8.64764 7.75734 9.17171L3.51464 13.4142C2.57696 14.3519 2.05017 15.6237 2.05017 16.9498C2.05017 18.2759 2.57696 19.5476 3.51464 20.4853C4.45233 21.423 5.72411 21.9498 7.05019 21.9498C8.37628 21.9498 9.64806 21.423 10.5857 20.4853L12.7816 18.2893C11.9572 18.2967 11.138 18.1586 10.3616 17.8812L9.17154 19.071Z" fill="black"/>
</svg>
