<svg width="24" height="24" viewBox="0 0 24 24" fill="none" xmlns="http://www.w3.org/2000/svg">
<path d="M16.5001 12C16.5013 13.1712 16.417 14.341 16.248 15.5H21.358C21.7805 14.3814 21.998 13.1958 22.0001 12H16.5001ZM12.0001 8V2C10.3601 2 8.9527 4.47 8.3352 8H12.0001ZM8.257 8.5C7.91446 10.8208 7.91446 13.1792 8.257 15.5H15.7432C15.9152 14.3413 16.0011 13.1714 16.0001 12H12.0001V8.5H8.257ZM10.447 2.1326C8.78805 2.39312 7.2214 3.06717 5.89155 4.0926C4.5617 5.11802 3.51146 6.4618 2.8377 8H7.8292C8.3009 5.2577 9.2489 3.1322 10.4472 2.1326H10.447ZM13.5528 21.8674C15.2118 21.607 16.7786 20.9329 18.1085 19.9075C19.4384 18.8821 20.4887 17.5383 21.1625 16H16.171C15.6993 18.7423 14.7513 20.8679 13.553 21.8674H13.5528ZM8.3352 16C8.9527 19.5305 10.3601 22 12.0001 22C13.6401 22 15.0475 19.5305 15.665 16H8.3352ZM7.8292 16H2.8377C3.51152 17.5383 4.56186 18.8821 5.89184 19.9076C7.22182 20.933 8.78862 21.607 10.4477 21.8674C9.2489 20.8679 8.3009 18.7423 7.8292 16ZM7.5001 12C7.4989 10.8288 7.58316 9.65898 7.7522 8.5H2.6422C1.78593 10.7548 1.78593 13.2452 2.6422 15.5H7.7522C7.58316 14.341 7.4989 13.1712 7.5001 12ZM21.0001 5H19.5001V3.5C19.5001 3.10218 19.3421 2.72064 19.0608 2.43934C18.7795 2.15804 18.3979 2 18.0001 2C17.6023 2 17.2207 2.15804 16.9394 2.43934C16.6581 2.72064 16.5001 3.10218 16.5001 3.5V5H15.0001V9H21.0001V5ZM19.0001 5H17.0001V3.5C17.0001 3.23478 17.1055 2.98043 17.293 2.79289C17.4805 2.60536 17.7349 2.5 18.0001 2.5C18.2653 2.5 18.5197 2.60536 18.7072 2.79289C18.8947 2.98043 19.0001 3.23478 19.0001 3.5V5Z" fill="black"/>
</svg>
