<svg width="24" height="24" viewBox="0 0 24 24" fill="none" xmlns="http://www.w3.org/2000/svg">
<path d="M16.9935 15.2865C18.3681 13.7287 19.0823 11.697 18.985 9.62174C18.8877 7.54648 17.9865 5.59056 16.4722 4.16818C14.958 2.7458 12.9495 1.96865 10.8722 2.00129C8.79496 2.03394 6.81194 2.87382 5.34311 4.34307L4.00001 5.68627V2.26997H3.00001V7.38617H8.11621V6.38617H4.7193L6.05271 5.05267C7.19807 3.90889 8.70457 3.19762 10.3156 3.04004C11.9265 2.88245 13.5423 3.28831 14.8876 4.18846C16.2329 5.08861 17.2245 6.42736 17.6934 7.97662C18.1623 9.52588 18.0795 11.1898 17.4592 12.6849C16.8389 14.18 15.7194 15.4137 14.2914 16.1759C12.8634 16.9381 11.2153 17.1817 9.62794 16.865C8.04055 16.5483 6.61205 15.6911 5.58584 14.4393C4.55963 13.1875 3.99919 11.6186 4.00001 9.99997H3.00001C2.99826 11.5397 3.4414 13.0472 4.27612 14.341C5.11083 15.6349 6.30158 16.6601 7.70513 17.2932C9.10868 17.9263 10.6653 18.1405 12.1877 17.9099C13.71 17.6793 15.1334 17.0138 16.2865 15.9935L22.1465 21.8535L22.8535 21.1465L16.9935 15.2865Z" fill="black"/>
</svg>
