<svg width="24" height="24" viewBox="0 0 24 24" fill="none" xmlns="http://www.w3.org/2000/svg">
<path d="M10.3081 19.3084L11.9998 21L13.6915 19.3084C13.4733 19.0793 13.2108 18.8969 12.92 18.7722C12.6292 18.6476 12.3162 18.5833 11.9998 18.5833C11.6834 18.5833 11.3703 18.6476 11.0795 18.7722C10.7887 18.8969 10.5262 19.0793 10.3081 19.3084ZM7.09717 16.0974L8.14867 17.1489C8.65246 16.6397 9.25222 16.2355 9.91326 15.9596C10.5743 15.6837 11.2835 15.5417 11.9998 15.5417C12.7161 15.5417 13.4252 15.6837 14.0863 15.9596C14.7473 16.2355 15.3471 16.6397 15.8509 17.1489L16.9024 16.0974C16.2626 15.4464 15.4996 14.9294 14.6578 14.5764C13.8161 14.2235 12.9125 14.0417 11.9998 14.0417C11.087 14.0417 10.1834 14.2235 9.3417 14.5764C8.49996 14.9294 7.73694 15.4464 7.09717 16.0974ZM17.9998 9.1C17.8218 9.1 17.6478 9.15278 17.4998 9.25168C17.3517 9.35057 17.2364 9.49113 17.1683 9.65559C17.1002 9.82004 17.0823 10.001 17.1171 10.1756C17.1518 10.3502 17.2375 10.5105 17.3634 10.6364C17.4892 10.7623 17.6496 10.848 17.8242 10.8827C17.9988 10.9174 18.1797 10.8996 18.3442 10.8315C18.5086 10.7634 18.6492 10.648 18.7481 10.5C18.847 10.352 18.8998 10.178 18.8998 10C18.8998 9.76131 18.8049 9.53239 18.6362 9.3636C18.4674 9.19482 18.2385 9.1 17.9998 9.1ZM18.5679 8L18.9136 3H17.0861L17.4317 8H18.5679Z" fill="black"/>
</svg>
