<svg width="24" height="24" viewBox="0 0 24 24" fill="none" xmlns="http://www.w3.org/2000/svg">
<path d="M19 3H5C4.46957 3 3.96086 3.21071 3.58579 3.58579C3.21071 3.96086 3 4.46957 3 5V19C3 19.5304 3.21071 20.0391 3.58579 20.4142C3.96086 20.7893 4.46957 21 5 21H19C19.5304 21 20.0391 20.7893 20.4142 20.4142C20.7893 20.0391 21 19.5304 21 19V5C21 4.46957 20.7893 3.96086 20.4142 3.58579C20.0391 3.21071 19.5304 3 19 3ZM19 19H5V5H19V19ZM12.8228 8C13.0206 8 13.2139 7.94135 13.3784 7.83147C13.5428 7.72159 13.671 7.56541 13.7467 7.38268C13.8224 7.19996 13.8422 6.99889 13.8036 6.80491C13.765 6.61093 13.6698 6.43275 13.5299 6.29289C13.3901 6.15304 13.2119 6.0578 13.0179 6.01921C12.8239 5.98063 12.6228 6.00043 12.4401 6.07612C12.2574 6.15181 12.1012 6.27998 11.9913 6.44443C11.8814 6.60888 11.8228 6.80222 11.8228 7C11.8228 7.26522 11.9282 7.51957 12.1157 7.70711C12.3032 7.89464 12.5576 8 12.8228 8ZM6.9946 8C7.19238 8 7.38572 7.94135 7.55017 7.83147C7.71462 7.72159 7.84279 7.56541 7.91848 7.38268C7.99417 7.19996 8.01397 6.99889 7.97539 6.80491C7.9368 6.61093 7.84156 6.43275 7.70171 6.29289C7.56185 6.15304 7.38367 6.0578 7.18969 6.01921C6.99571 5.98063 6.79464 6.00043 6.61192 6.07612C6.42919 6.15181 6.27301 6.27998 6.16313 6.44443C6.05325 6.60888 5.9946 6.80222 5.9946 7C5.9946 7.26522 6.09996 7.51957 6.28749 7.70711C6.47503 7.89464 6.72938 8 6.9946 8ZM9.9087 8C10.1065 8 10.2998 7.94135 10.4643 7.83147C10.6287 7.72159 10.7569 7.56541 10.8326 7.38268C10.9083 7.19996 10.9281 6.99889 10.8895 6.80491C10.8509 6.61093 10.7557 6.43275 10.6158 6.29289C10.476 6.15304 10.2978 6.0578 10.1038 6.01921C9.90981 5.98063 9.70874 6.00043 9.52602 6.07612C9.34329 6.15181 9.18711 6.27998 9.07723 6.44443C8.96735 6.60888 8.9087 6.80222 8.9087 7C8.9087 7.26522 9.01406 7.51957 9.20159 7.70711C9.38913 7.89464 9.64348 8 9.9087 8Z" fill="black"/>
</svg>
