<svg width="24" height="24" viewBox="0 0 24 24" fill="none" xmlns="http://www.w3.org/2000/svg">
<path d="M19.25 12C19.25 12.1978 19.3086 12.3911 19.4185 12.5556C19.5284 12.72 19.6846 12.8482 19.8673 12.9239C20.05 12.9996 20.2511 13.0194 20.4451 12.9808C20.6391 12.9422 20.8173 12.847 20.9571 12.7071C21.097 12.5673 21.1922 12.3891 21.2308 12.1951C21.2694 12.0011 21.2496 11.8 21.1739 11.6173C21.0982 11.4346 20.97 11.2784 20.8056 11.1685C20.6411 11.0586 20.4478 11 20.25 11C19.9848 11 19.7304 11.1054 19.5429 11.2929C19.3554 11.4804 19.25 11.7348 19.25 12ZM13 12C13 11.8022 12.9414 11.6089 12.8315 11.4444C12.7216 11.28 12.5654 11.1518 12.3827 11.0761C12.2 11.0004 11.9989 10.9806 11.8049 11.0192C11.6109 11.0578 11.4327 11.153 11.2929 11.2929C11.153 11.4327 11.0578 11.6109 11.0192 11.8049C10.9806 11.9989 11.0004 12.2 11.0761 12.3827C11.1518 12.5654 11.28 12.7216 11.4444 12.8315C11.6089 12.9414 11.8022 13 12 13C12.2652 13 12.5196 12.8946 12.7071 12.7071C12.8946 12.5196 13 12.2652 13 12ZM4.75 12C4.75 11.8022 4.69135 11.6089 4.58147 11.4444C4.47159 11.28 4.31541 11.1518 4.13268 11.0761C3.94996 11.0004 3.74889 10.9806 3.55491 11.0192C3.36093 11.0578 3.18275 11.153 3.04289 11.2929C2.90304 11.4327 2.8078 11.6109 2.76922 11.8049C2.73063 11.9989 2.75043 12.2 2.82612 12.3827C2.90181 12.5654 3.02998 12.7216 3.19443 12.8315C3.35888 12.9414 3.55222 13 3.75 13C4.01522 13 4.26957 12.8946 4.45711 12.7071C4.64464 12.5196 4.75 12.2652 4.75 12Z" fill="black"/>
</svg>
