<svg width="24" height="24" viewBox="0 0 24 24" fill="none" xmlns="http://www.w3.org/2000/svg">
<path d="M16.6765 7.3234C16.3006 6.08326 15.6098 4.96168 14.6714 4.06799C13.733 3.1743 12.5791 2.53899 11.3221 2.224C10.0651 1.90901 8.74793 1.92508 7.49899 2.27065C6.25006 2.61621 5.11197 3.27949 4.19567 4.19581C3.27936 5.11213 2.61611 6.25024 2.27057 7.49918C1.92503 8.74812 1.90899 10.0653 2.22401 11.3223C2.53903 12.5793 3.17436 13.7332 4.06807 14.6716C4.96178 15.6099 6.08338 16.3007 7.32353 16.6766C7.69944 17.9167 8.39026 19.0383 9.32865 19.932C10.267 20.8257 11.421 21.461 12.678 21.776C13.935 22.091 15.2521 22.0749 16.5011 21.7294C17.75 21.3838 18.8881 20.7205 19.8044 19.8042C20.7207 18.8879 21.3839 17.7498 21.7295 16.5008C22.075 15.2519 22.0911 13.9347 21.776 12.6777C21.461 11.4207 20.8257 10.2668 19.932 9.32845C19.0383 8.39009 17.9167 7.69929 16.6765 7.3234ZM2.50003 9.5C2.49897 7.84854 3.08223 6.24995 4.14656 4.9872C5.21088 3.72444 6.68764 2.87896 8.31544 2.60039C9.94324 2.32182 11.6171 2.62813 13.0408 3.46512C14.4644 4.3021 15.5461 5.61577 16.0942 7.1736C14.8669 6.90466 13.5917 6.94875 12.3859 7.30181C11.1801 7.65487 10.0824 8.30556 9.19401 9.19399C8.30558 10.0824 7.65489 11.18 7.30183 12.3858C6.94877 13.5917 6.90469 14.8669 7.17363 16.0942C5.80891 15.6124 4.6269 14.7198 3.79004 13.539C2.95317 12.3582 2.50252 10.9473 2.50003 9.5ZM14.5 21.5C13.0528 21.4975 11.6418 21.0469 10.461 20.21C9.28023 19.3731 8.38761 18.1911 7.90583 16.8264C9.13313 17.0953 10.4084 17.0513 11.6142 16.6982C12.82 16.3451 13.9176 15.6944 14.806 14.806C15.6945 13.9176 16.3452 12.82 16.6982 11.6142C17.0513 10.4084 17.0954 9.13311 16.8264 7.9058C18.3843 8.45397 19.6979 9.5356 20.5349 10.9593C21.3719 12.3829 21.6782 14.0568 21.3996 15.6846C21.1211 17.3124 20.2756 18.7891 19.0128 19.8535C17.7501 20.9178 16.1515 21.5011 14.5 21.5Z" fill="black"/>
</svg>
