<svg width="24" height="24" viewBox="0 0 24 24" fill="none" xmlns="http://www.w3.org/2000/svg">
<path d="M17.3142 14.9C18.5615 13.2932 19.1495 11.2714 18.9586 9.24627C18.7677 7.22114 17.8121 5.3449 16.2865 3.99951C14.7609 2.65412 12.7799 1.94072 10.7468 2.00455C8.71368 2.06838 6.78133 2.90464 5.34311 4.34308L5.1716 4.51458L3.00001 2.34308V7.99998H8.65691L6.58781 5.93078L6.75931 5.75928C7.74102 4.77883 9.03231 4.16909 10.4132 4.03395C11.794 3.89882 13.179 4.24664 14.3322 5.01816C15.4854 5.78968 16.3354 6.93717 16.7374 8.26512C17.1394 9.59306 17.0685 11.0193 16.5368 12.3009C16.0052 13.5824 15.0456 14.64 13.8216 15.2934C12.5976 15.9468 11.185 16.1556 9.82431 15.8842C8.46365 15.6128 7.23917 14.8781 6.35949 13.8051C5.47981 12.7322 4.99937 11.3874 5.00001 9.99998H3.00001C2.99831 11.497 3.41718 12.9644 4.20887 14.2349C5.00056 15.5055 6.13324 16.5281 7.47783 17.1863C8.82243 17.8444 10.3249 18.1116 11.8139 17.9574C13.303 17.8032 14.7188 17.2339 15.9 16.3142L21.793 22.207L23.207 20.793L17.3142 14.9Z" fill="black"/>
</svg>
