<svg width="24" height="24" viewBox="0 0 24 24" fill="none" xmlns="http://www.w3.org/2000/svg">
<path d="M12 8.00001V2.00001C10.4626 2.00001 9.143 4.47001 8.5641 8.00001H12ZM8.3729 9.50001C8.2955 10.3 8.25 11.1351 8.25 12C8.25 12.8649 8.2955 13.7 8.3729 14.5H15.6271C15.7045 13.7 15.75 12.8649 15.75 12H12V9.50001H8.3729ZM8.9115 2.49161C7.56794 2.92965 6.33222 3.64687 5.28542 4.59621C4.23863 5.54554 3.40444 6.70552 2.8376 8.00001H7.0186C7.22891 6.04525 7.87581 4.16274 8.9115 2.49161ZM17.25 12C17.25 12.89 17.2109 13.718 17.146 14.5H21.6722C21.8866 13.6839 21.9968 12.8438 22 12H17.25ZM2.8376 16C3.40443 17.2945 4.23863 18.4545 5.28544 19.4039C6.33226 20.3532 7.56802 21.0704 8.9116 21.5084C7.87587 19.8373 7.22894 17.9548 7.0186 16H2.8376ZM8.5641 16C9.143 19.5305 10.4626 22 12 22C13.5374 22 14.8571 19.5305 15.4359 16H8.5641ZM6.75 12C6.75 11.11 6.7891 10.282 6.854 9.50001H2.3278C1.89073 11.138 1.89073 12.862 2.3278 14.5H6.854C6.7891 13.718 6.75 12.89 6.75 12ZM15.0884 21.5084C16.432 21.0704 17.6677 20.3532 18.7146 19.4039C19.7614 18.4545 20.5956 17.2945 21.1624 16H16.9814C16.7711 17.9548 16.1241 19.8373 15.0884 21.5084ZM21 5.00001H20V4.10001C20.0133 3.82913 19.9714 3.55837 19.8769 3.30416C19.7823 3.04995 19.6372 2.81759 19.4501 2.62118C19.2631 2.42477 19.0381 2.26839 18.7889 2.16155C18.5396 2.0547 18.2712 1.9996 18 1.9996C17.7288 1.9996 17.4604 2.0547 17.2111 2.16155C16.9618 2.26839 16.7369 2.42477 16.5499 2.62118C16.3628 2.81759 16.2177 3.04995 16.1231 3.30416C16.0286 3.55837 15.9867 3.82913 16 4.10001V5.00001H15V9.00001H21V5.00001ZM18.8 5.00001H17.2V4.10001C17.1866 3.98701 17.1973 3.87245 17.2314 3.76388C17.2655 3.65531 17.3222 3.55519 17.3978 3.47012C17.4733 3.38505 17.5661 3.31696 17.6699 3.27033C17.7737 3.2237 17.8862 3.19959 18 3.19959C18.1138 3.19959 18.2263 3.2237 18.3301 3.27033C18.4339 3.31696 18.5267 3.38505 18.6022 3.47012C18.6778 3.55519 18.7345 3.65531 18.7686 3.76388C18.8027 3.87245 18.8134 3.98701 18.8 4.10001V5.00001Z" fill="black"/>
</svg>
