<svg width="24" height="24" viewBox="0 0 24 24" fill="none" xmlns="http://www.w3.org/2000/svg">
<path d="M7.2 16.8L14.3982 14.3981L16.8 7.2L9.6018 9.6019L7.2 16.8ZM15.218 8.7821L13.608 13.6077L8.7823 15.2177L10.3923 10.3921L15.218 8.7821ZM12 2C10.0222 2 8.08879 2.58649 6.4443 3.6853C4.79981 4.78412 3.51809 6.3459 2.76121 8.17317C2.00433 10.0004 1.8063 12.0111 2.19215 13.9509C2.578 15.8907 3.53041 17.6725 4.92894 19.0711C6.32746 20.4696 8.10929 21.422 10.0491 21.8079C11.9889 22.1937 13.9996 21.9957 15.8268 21.2388C17.6541 20.4819 19.2159 19.2002 20.3147 17.5557C21.4135 15.9112 22 13.9778 22 12C21.9971 9.34874 20.9426 6.8069 19.0678 4.93218C17.1931 3.05745 14.6513 2.00294 12 2ZM12 21C10.22 21 8.47991 20.4722 6.99987 19.4832C5.51983 18.4943 4.36628 17.0887 3.68509 15.4442C3.0039 13.7996 2.82567 11.99 3.17294 10.2442C3.5202 8.49836 4.37737 6.89471 5.63604 5.63604C6.89472 4.37737 8.49836 3.5202 10.2442 3.17293C11.99 2.82567 13.7996 3.0039 15.4442 3.68508C17.0887 4.36627 18.4943 5.51983 19.4832 6.99987C20.4722 8.47991 21 10.22 21 12C20.9974 14.3861 20.0483 16.6738 18.361 18.361C16.6738 20.0483 14.3861 20.9974 12 21ZM12 12.85C12.1681 12.85 12.3325 12.8001 12.4722 12.7067C12.612 12.6133 12.721 12.4806 12.7853 12.3253C12.8496 12.17 12.8665 11.9991 12.8337 11.8342C12.8009 11.6693 12.7199 11.5178 12.601 11.399C12.4822 11.2801 12.3307 11.1991 12.1658 11.1663C12.0009 11.1335 11.83 11.1504 11.6747 11.2147C11.5194 11.279 11.3867 11.388 11.2933 11.5278C11.1999 11.6675 11.15 11.8319 11.15 12C11.15 12.2254 11.2396 12.4416 11.399 12.601C11.5584 12.7604 11.7746 12.85 12 12.85Z" fill="black"/>
</svg>
