<svg width="24" height="24" viewBox="0 0 24 24" fill="none" xmlns="http://www.w3.org/2000/svg">
<path d="M16.1619 15.1013C17.4739 13.5168 18.1252 11.4879 17.9806 9.43584C17.8359 7.38378 16.9065 5.46626 15.3853 4.08144C13.8641 2.69662 11.8679 1.95091 9.81132 1.99915C7.75473 2.04739 5.79574 2.88588 4.34112 4.34051C2.88649 5.79513 2.048 7.75412 1.99976 9.81071C1.95152 11.8673 2.69723 13.8634 4.08205 15.3847C5.46687 16.9059 7.38439 17.8353 9.43645 17.98C11.4885 18.1246 13.5174 17.4733 15.1019 16.1613L20.9701 22.03L22.0301 20.97L16.1619 15.1013ZM10.0001 16.5C8.71455 16.5 7.45784 16.1188 6.38892 15.4046C5.32 14.6903 4.48688 13.6752 3.99491 12.4875C3.50294 11.2997 3.37422 9.99281 3.62502 8.73193C3.87583 7.47105 4.49489 6.31286 5.40393 5.40382C6.31297 4.49478 7.47116 3.87572 8.73204 3.62491C9.99292 3.37411 11.2998 3.50283 12.4876 3.9948C13.6753 4.48677 14.6904 5.31989 15.4047 6.38881C16.1189 7.45773 16.5001 8.71444 16.5001 10C16.4982 11.7233 15.8127 13.3755 14.5942 14.594C13.3756 15.8126 11.7234 16.4981 10.0001 16.5ZM10.0001 9.00002C10.2427 9.00002 10.4799 8.92808 10.6816 8.7933C10.8833 8.65852 11.0405 8.46695 11.1334 8.24282C11.2262 8.01868 11.2505 7.77206 11.2032 7.53412C11.1558 7.29618 11.039 7.07762 10.8675 6.90608C10.6959 6.73454 10.4774 6.61771 10.2394 6.57038C10.0015 6.52306 9.75486 6.54735 9.53073 6.64019C9.30659 6.73302 9.11503 6.89024 8.98025 7.09195C8.84547 7.29367 8.77353 7.53082 8.77353 7.77342C8.77353 8.09873 8.90276 8.41072 9.13279 8.64075C9.36282 8.87079 9.67481 9.00002 10.0001 9.00002ZM7.00013 11.7109V13H13.0001V11.7109C12.2045 10.9153 11.1253 10.4683 10.0001 10.4683C8.87491 10.4683 7.79578 10.9153 7.00013 11.7109Z" fill="black"/>
</svg>
