<svg width="24" height="24" viewBox="0 0 24 24" fill="none" xmlns="http://www.w3.org/2000/svg">
<path d="M22 12C21.9987 9.43599 21.0119 6.97057 19.2436 5.11391C17.4753 3.25724 15.0609 2.15143 12.5 2.0253V0H11.5V2.0253C8.93877 2.15044 6.52387 3.25597 4.75548 5.11288C2.98709 6.96978 2.00073 9.43577 2.00073 12C2.00073 14.5642 2.98709 17.0302 4.75548 18.8871C6.52387 20.744 8.93877 21.8496 11.5 21.9747V24H12.5V21.9747C15.0609 21.8486 17.4753 20.7428 19.2436 18.8861C21.0119 17.0294 21.9987 14.564 22 12ZM2.99995 12C3.00373 9.70184 3.88618 7.49211 5.4665 5.82353C7.04682 4.15495 9.20538 3.15384 11.5 3.0253V20.9747C9.20539 20.8461 7.04684 19.845 5.46653 18.1764C3.88621 16.5079 3.00376 14.2982 2.99995 12Z" fill="black"/>
</svg>
