<svg width="24" height="24" viewBox="0 0 24 24" fill="none" xmlns="http://www.w3.org/2000/svg">
<path d="M12.0002 5.00002C9.89867 4.99729 7.81729 5.4099 5.87571 6.21413C3.93413 7.01836 2.17062 8.19836 0.686523 9.68632L1.40872 10.4085C2.79653 9.01197 4.44672 7.90354 6.2644 7.14697C8.08207 6.3904 10.0314 6.00061 12.0002 6.00002V5.00002ZM9.36072 18.36L10.0601 19.0594C10.3139 18.8029 10.616 18.5992 10.949 18.4602C11.282 18.3212 11.6393 18.2497 12.0001 18.2497C12.361 18.2497 12.7182 18.3212 13.0512 18.4602C13.3842 18.5992 13.6864 18.8029 13.9401 19.0594L14.6394 18.36C14.2956 18.0085 13.885 17.7291 13.4317 17.5384C12.9785 17.3477 12.4917 17.2495 11.9999 17.2495C11.5082 17.2495 11.0214 17.3477 10.5681 17.5384C10.1149 17.7291 9.70426 18.0085 9.36042 18.36H9.36072ZM12.0002 9.08332C10.4359 9.08271 8.88694 9.39185 7.4427 9.99291C5.99846 10.594 4.68752 11.475 3.58552 12.5853L4.30022 13.3C5.30737 12.2815 6.50646 11.4728 7.82814 10.9207C9.14982 10.3685 10.5679 10.0839 12.0002 10.0833V9.08332ZM6.46862 15.4684L7.18582 16.1856C7.81407 15.5463 8.56336 15.0385 9.38995 14.6919C10.2165 14.3453 11.1039 14.1668 12.0002 14.1668C12.8966 14.1668 13.7839 14.3453 14.6105 14.6919C15.4371 15.0385 16.1864 15.5463 16.8146 16.1856L17.5318 15.4683C16.8071 14.7389 15.9452 14.16 14.9959 13.765C14.0466 13.37 13.0285 13.1666 12.0002 13.1666C10.972 13.1666 9.95388 13.37 9.00454 13.765C8.0552 14.16 7.19336 14.7389 6.46862 15.4683V15.4684ZM18.5002 6.50002V3.55292H17.5002V6.50002H14.5531V7.50002H17.5002V10.4472H18.5002V7.50002H21.4474V6.50002H18.5002Z" fill="black"/>
</svg>
