<svg width="24" height="24" viewBox="0 0 24 24" fill="none" xmlns="http://www.w3.org/2000/svg">
<path d="M17.9999 16C17.5446 16.0012 17.0956 16.1065 16.6873 16.308C16.2791 16.5095 15.9223 16.8017 15.6444 17.1624L7.83112 12.9524C8.05619 12.3377 8.05619 11.6631 7.83112 11.0484L15.6444 6.83839C16.0826 7.39199 16.7029 7.77234 17.395 7.91185C18.0872 8.05137 18.8064 7.94103 19.4248 7.60043C20.0433 7.25983 20.521 6.71102 20.7731 6.05151C21.0252 5.39199 21.0354 4.66446 20.8018 3.99817C20.5682 3.33187 20.106 2.76994 19.4973 2.41221C18.8885 2.05448 18.1727 1.9241 17.477 2.04424C16.7812 2.16438 16.1506 2.52725 15.697 3.06841C15.2435 3.60956 14.9965 4.29395 14.9999 4.99999C15.0037 5.32606 15.0611 5.64929 15.1699 5.95669L7.35831 10.1667C6.97568 9.6712 6.44761 9.30782 5.84811 9.12747C5.24861 8.94712 4.60771 8.95884 4.0152 9.16099C3.42269 9.36314 2.90827 9.74558 2.544 10.2547C2.17974 10.7639 1.98389 11.3743 1.98389 12.0003C1.98389 12.6263 2.17974 13.2367 2.544 13.7459C2.90827 14.255 3.42269 14.6375 4.0152 14.8396C4.60771 15.0417 5.24861 15.0535 5.84811 14.8731C6.44761 14.6928 6.97568 14.3294 7.35831 13.8339L15.1699 18.0439C14.9692 18.6445 14.9643 19.2933 15.1558 19.8969C15.3473 20.5006 15.7254 21.0278 16.2356 21.4029C16.7459 21.778 17.362 21.9815 17.9952 21.9842C18.6285 21.9868 19.2463 21.7885 19.7597 21.4177C20.273 21.0469 20.6555 20.5228 20.8521 19.9209C21.0487 19.3189 21.0492 18.67 20.8535 18.0678C20.6579 17.4655 20.2762 16.9408 19.7634 16.5692C19.2506 16.1976 18.6332 15.9983 17.9999 16Z" fill="black"/>
</svg>
