<svg width="24" height="24" viewBox="0 0 24 24" fill="none" xmlns="http://www.w3.org/2000/svg">
<path d="M17 3H7C5.9395 3.00119 4.92278 3.423 4.17289 4.17289C3.423 4.92278 3.00119 5.9395 3 7V17C3.00119 18.0605 3.423 19.0772 4.17289 19.8271C4.92278 20.577 5.9395 20.9988 7 21H17C18.0605 20.9988 19.0772 20.577 19.8271 19.8271C20.577 19.0772 20.9988 18.0605 21 17V7C20.9988 5.9395 20.577 4.92278 19.8271 4.17289C19.0772 3.423 18.0605 3.00119 17 3ZM19.5 17C19.4993 17.6628 19.2356 18.2983 18.7669 18.7669C18.2983 19.2356 17.6628 19.4993 17 19.5H7C6.33719 19.4993 5.70173 19.2356 5.23305 18.7669C4.76437 18.2983 4.50074 17.6628 4.5 17V7C4.50074 6.33719 4.76437 5.70173 5.23305 5.23305C5.70173 4.76437 6.33719 4.50074 7 4.5H17C17.6628 4.50074 18.2983 4.76437 18.7669 5.23305C19.2356 5.70173 19.4993 6.33719 19.5 7V17ZM13.9424 9.0674L12 11.01L10.0576 9.0674L9.0676 10.0574L11.01 12L9.0674 13.9424L10.0574 14.9324L12 12.99L13.9424 14.9324L14.9324 13.9424L12.99 12L14.9324 10.0576L13.9424 9.0674Z" fill="black"/>
</svg>
