<svg width="24" height="24" viewBox="0 0 24 24" fill="none" xmlns="http://www.w3.org/2000/svg">
<path d="M12 2C10.0222 2 8.08879 2.58649 6.4443 3.6853C4.79981 4.78412 3.51809 6.3459 2.76121 8.17317C2.00433 10.0004 1.8063 12.0111 2.19215 13.9509C2.578 15.8907 3.53041 17.6725 4.92894 19.0711C6.32746 20.4696 8.10929 21.422 10.0491 21.8079C11.9889 22.1937 13.9996 21.9957 15.8268 21.2388C17.6541 20.4819 19.2159 19.2002 20.3147 17.5557C21.4135 15.9112 22 13.9778 22 12C22 10.6868 21.7413 9.38642 21.2388 8.17317C20.7363 6.95991 19.9997 5.85752 19.0711 4.92893C18.1425 4.00035 17.0401 3.26375 15.8268 2.7612C14.6136 2.25866 13.3132 2 12 2ZM6 5.9856C7.40816 4.57835 9.26682 3.71183 11.25 3.538V10.3911L6 5.9856ZM3.5 12C3.49945 10.2595 4.03664 8.56133 5.0381 7.1378L10.9434 12.0925L5.9858 18C5.19723 17.2125 4.57176 16.2772 4.1452 15.2476C3.71865 14.2181 3.4994 13.1144 3.5 12ZM12 20.5C10.2592 20.5005 8.56084 19.9632 7.1372 18.9614L12.75 12.2734V3.538C14.9305 3.73073 16.9525 4.7575 18.3947 6.40433C19.8368 8.05116 20.5877 10.191 20.491 12.3779C20.3944 14.5647 19.4575 16.6299 17.8756 18.1431C16.2938 19.6562 14.189 20.5005 12 20.5Z" fill="black"/>
</svg>
