<svg width="24" height="24" viewBox="0 0 24 24" fill="none" xmlns="http://www.w3.org/2000/svg">
<path d="M5.8333 4H6.8333V3H5.8333V4ZM8.6667 4H9.6667V3H8.6667V4ZM14.3333 21H15.3333V20H14.3333V21ZM5.8333 21H6.8333V20H5.8333V21ZM17.1667 21H18.1667V20H17.1667V21ZM8.6667 21H9.6667V20H8.6667V21ZM3 12.5H4V11.5H3V12.5ZM3 9.6666H4V8.6666H3V9.6666ZM3 18.1666H4V17.1666H3V18.1666ZM3 6.8333H4V5.8333H3V6.8333ZM3 15.3333H4V14.3333H3V15.3333ZM3 21H4V20H3V21ZM3 4H4V3H3V4ZM20 18.1666H21V17.1666H20V18.1666ZM20 15.3333H21V14.3333H20V15.3333ZM20 21H21V20H20V21ZM11.5 21H12.5V20H11.5V21ZM14 3H11.5V4H14C15.5913 4 17.1174 4.63214 18.2426 5.75736C19.3679 6.88258 20 8.4087 20 10V12.5H21V10C21 8.14348 20.2625 6.36301 18.9497 5.05025C17.637 3.7375 15.8565 3 14 3Z" fill="black"/>
</svg>
