<svg width="24" height="24" viewBox="0 0 24 24" fill="none" xmlns="http://www.w3.org/2000/svg">
<path d="M11.1161 12.1161C10.9116 12.3206 10.7843 12.5897 10.756 12.8775C10.7276 13.1653 10.7999 13.454 10.9606 13.6945C11.1213 13.9349 11.3603 14.1122 11.6371 14.1962C11.9138 14.2801 12.2111 14.2655 12.4783 14.1548C12.7455 14.0442 12.966 13.8443 13.1024 13.5892C13.2387 13.3342 13.2823 13.0397 13.2259 12.7561C13.1695 12.4725 13.0164 12.2172 12.7929 12.0337C12.5693 11.8502 12.2891 11.75 11.9999 11.75C11.8357 11.7498 11.6731 11.782 11.5214 11.8449C11.3698 11.9077 11.232 11.9999 11.1161 12.1161ZM11.9999 7.3611C10.8846 7.36107 9.79437 7.69177 8.86705 8.31137C7.93973 8.93096 7.21697 9.81163 6.79017 10.842C6.36337 11.8724 6.25171 13.0062 6.46929 14.1C6.68688 15.1938 7.22394 16.1986 8.01257 16.9872L9.42807 15.5718C8.91879 15.063 8.57186 14.4147 8.43116 13.7087C8.29045 13.0027 8.3623 12.2709 8.63761 11.6057C8.91293 10.9406 9.37933 10.372 9.97782 9.97204C10.5763 9.57203 11.28 9.35852 11.9999 9.35852C12.7197 9.35852 13.4234 9.57203 14.0219 9.97204C14.6204 10.372 15.0868 10.9406 15.3621 11.6057C15.6374 12.2709 15.7093 13.0027 15.5686 13.7087C15.4279 14.4147 15.0809 15.063 14.5717 15.5718L15.9872 16.9872C16.7758 16.1986 17.3129 15.1938 17.5304 14.1C17.748 13.0062 17.6364 11.8724 17.2096 10.842C16.7828 9.81163 16.06 8.93096 15.1327 8.31137C14.2054 7.69177 13.1151 7.36107 11.9999 7.3611ZM11.9999 3C10.0221 3.00003 8.0887 3.58653 6.44424 4.68535C4.79977 5.78416 3.51807 7.34594 2.7612 9.17318C2.00434 11.0004 1.8063 13.0111 2.19214 14.9509C2.57799 16.8907 3.53037 18.6725 4.92887 20.071L6.34567 18.6542C5.2261 17.5357 4.46343 16.1102 4.15414 14.5582C3.84485 13.0061 4.00283 11.3972 4.60811 9.93496C5.2134 8.47271 6.23877 7.22284 7.55453 6.34346C8.87028 5.46407 10.4173 4.99469 11.9999 4.99469C13.5824 4.99469 15.1295 5.46407 16.4452 6.34346C17.761 7.22284 18.7863 8.47271 19.3916 9.93496C19.9969 11.3972 20.1549 13.0061 19.8456 14.5582C19.5363 16.1102 18.7736 17.5357 17.6541 18.6542L19.0709 20.071C20.4694 18.6725 21.4218 16.8907 21.8076 14.9509C22.1934 13.0111 21.9954 11.0004 21.2385 9.17318C20.4817 7.34594 19.2 5.78416 17.5555 4.68535C15.911 3.58653 13.9777 3.00003 11.9999 3Z" fill="black"/>
</svg>
