<svg width="24" height="24" viewBox="0 0 24 24" fill="none" xmlns="http://www.w3.org/2000/svg">
<path d="M6.50002 12C5.61001 12 4.73998 12.2639 3.99996 12.7584C3.25994 13.2529 2.68316 13.9557 2.34257 14.7779C2.00197 15.6002 1.91286 16.505 2.08649 17.3779C2.26012 18.2508 2.68871 19.0527 3.31804 19.682C3.94738 20.3113 4.7492 20.7399 5.62212 20.9135C6.49503 21.0872 7.39983 20.9981 8.2221 20.6575C9.04437 20.3169 9.74717 19.7401 10.2416 19.0001C10.7361 18.2601 11 17.39 11 16.5C11 15.3065 10.5259 14.1619 9.682 13.318C8.83809 12.4741 7.6935 12 6.50002 12ZM6.00002 13.05V16H3.05082C3.15883 15.2562 3.50431 14.5672 4.03577 14.0357C4.56723 13.5041 5.25621 13.1586 6.00002 13.0505V13.05ZM6.50002 20C5.66065 19.9976 4.8502 19.6931 4.21686 19.1422C3.58353 18.5913 3.16962 17.8309 3.05082 17H7.00002V13.05C7.87605 13.1739 8.67242 13.6256 9.22824 14.3139C9.78405 15.0023 10.0579 15.876 9.99439 16.7584C9.9309 17.6409 9.53484 18.4663 8.88621 19.068C8.23759 19.6698 7.38476 20.0028 6.50002 20ZM20 21H21V12H20V21ZM14 21H15V14H14V21ZM17 21H18V17H17V21ZM8.44432 4.68001L14.5557 10.305L21.0057 4.36851L20.3279 3.63211L14.5557 8.94531L8.44432 3.32001L1.99432 9.25651L2.67212 9.99291L8.44432 4.68001Z" fill="black"/>
</svg>
