<svg width="24" height="24" viewBox="0 0 24 24" fill="none" xmlns="http://www.w3.org/2000/svg">
<path d="M12 13.25C11.6539 13.25 11.3155 13.3526 11.0278 13.5449C10.74 13.7372 10.5157 14.0105 10.3832 14.3303C10.2508 14.6501 10.2161 15.0019 10.2836 15.3414C10.3512 15.6809 10.5178 15.9927 10.7626 16.2374C11.0073 16.4822 11.3191 16.6488 11.6586 16.7164C11.9981 16.7839 12.3499 16.7492 12.6697 16.6168C12.9895 16.4843 13.2628 16.26 13.4551 15.9722C13.6474 15.6845 13.75 15.3461 13.75 15C13.75 14.5359 13.5656 14.0908 13.2374 13.7626C12.9092 13.4344 12.4641 13.25 12 13.25ZM12.5 12.4339V3H11.5V12.4339C11.8299 12.3664 12.1701 12.3664 12.5 12.4339ZM5 7.25C4.65388 7.25 4.31554 7.35264 4.02775 7.54493C3.73997 7.73722 3.51566 8.01053 3.38321 8.3303C3.25076 8.65007 3.2161 9.00194 3.28363 9.34141C3.35115 9.68087 3.51782 9.9927 3.76256 10.2374C4.00731 10.4822 4.31913 10.6489 4.65859 10.7164C4.99806 10.7839 5.34993 10.7492 5.6697 10.6168C5.98947 10.4843 6.26278 10.26 6.45507 9.97225C6.64737 9.68446 6.75 9.34612 6.75 9C6.75 8.53587 6.56563 8.09075 6.23744 7.76256C5.90925 7.43437 5.46413 7.25 5 7.25ZM19.5 6.4339V3H18.5V6.4339C18.8299 6.36643 19.1701 6.36643 19.5 6.4339ZM19 7.25C18.6539 7.25 18.3155 7.35264 18.0278 7.54493C17.74 7.73722 17.5157 8.01053 17.3832 8.3303C17.2508 8.65007 17.2161 9.00194 17.2836 9.34141C17.3512 9.68087 17.5178 9.9927 17.7626 10.2374C18.0073 10.4822 18.3191 10.6489 18.6586 10.7164C18.9981 10.7839 19.3499 10.7492 19.6697 10.6168C19.9895 10.4843 20.2628 10.26 20.4551 9.97225C20.6474 9.68446 20.75 9.34612 20.75 9C20.75 8.53587 20.5656 8.09075 20.2374 7.76256C19.9092 7.43437 19.4641 7.25 19 7.25ZM5.5 6.4339V3H4.5V6.4339C4.82992 6.36643 5.17008 6.36643 5.5 6.4339ZM18.5 11.566V21H19.5V11.566C19.1701 11.6335 18.8299 11.6335 18.5 11.566ZM11.5 17.566V21H12.5V17.566C12.1701 17.6335 11.8299 17.6335 11.5 17.566ZM4.5 11.566V21H5.5V11.566C5.17008 11.6335 4.82992 11.6335 4.5 11.566Z" fill="black"/>
</svg>
