<svg width="24" height="24" viewBox="0 0 24 24" fill="none" xmlns="http://www.w3.org/2000/svg">
<path d="M3 20.75H5V19.25H3V20.75ZM19 20.75H21V19.25H19V20.75ZM15 20.75H17V19.25H15V20.75ZM11 20.75H13V19.25H11V20.75ZM7 20.75H9V19.25H7V20.75ZM11 14.25H3V15.75H11V14.25ZM13 15.75H21V14.25H13V15.75ZM3 10.75H21V9.25H3V10.75ZM18.2734 4.3271C18.0417 4.56215 17.7656 4.7488 17.4612 4.8762C17.1568 5.00359 16.83 5.0692 16.5 5.0692C16.17 5.0692 15.8432 5.00359 15.5388 4.8762C15.2343 4.7488 14.9583 4.56215 14.7266 4.3271C13.9859 3.63799 13.0117 3.25491 12 3.25491C10.9883 3.25491 10.0141 3.63799 9.2734 4.3271C8.78835 4.77505 8.15971 5.03574 7.5 5.0625C6.84029 5.03574 6.21165 4.77505 5.7266 4.3271C4.97352 3.65723 4.00757 3.27565 3 3.25V4.75C3.65971 4.77676 4.28835 5.03745 4.7734 5.4854C5.52648 6.15527 6.49243 6.53685 7.5 6.5625C8.50757 6.53685 9.47352 6.15527 10.2266 5.4854C10.4583 5.25035 10.7343 5.0637 11.0388 4.9363C11.3432 4.80891 11.67 4.7433 12 4.7433C12.33 4.7433 12.6568 4.80891 12.9612 4.9363C13.2657 5.0637 13.5417 5.25035 13.7734 5.4854C14.5265 6.15527 15.4924 6.53685 16.5 6.5625C17.5076 6.53685 18.4735 6.15527 19.2266 5.4854C19.7116 5.03745 20.3403 4.77676 21 4.75V3.25C19.9924 3.27565 19.0265 3.65723 18.2734 4.3271Z" fill="black"/>
</svg>
