<svg width="24" height="24" viewBox="0 0 24 24" fill="none" xmlns="http://www.w3.org/2000/svg">
<path d="M7.5 3.5C8.29113 3.5 9.06449 3.7346 9.72228 4.17412C10.3801 4.61365 10.8928 5.23836 11.1955 5.96927C11.4983 6.70017 11.5775 7.50444 11.4231 8.28036C11.2688 9.05629 10.8878 9.76902 10.3284 10.3284C9.76902 10.8878 9.05629 11.2688 8.28036 11.4231C7.50444 11.5775 6.70017 11.4983 5.96927 11.1955C5.23836 10.8928 4.61365 10.3801 4.17412 9.72228C3.7346 9.06448 3.5 8.29113 3.5 7.5C3.50119 6.4395 3.923 5.42278 4.67289 4.67289C5.42278 3.923 6.4395 3.50119 7.5 3.5ZM19 7.5C19.2967 7.5 19.5867 7.58797 19.8334 7.7528C20.08 7.91762 20.2723 8.15189 20.3858 8.42597C20.4994 8.70006 20.5291 9.00166 20.4712 9.29264C20.4133 9.58361 20.2704 9.85088 20.0607 10.0607C19.8509 10.2704 19.5836 10.4133 19.2926 10.4712C19.0017 10.5291 18.7001 10.4994 18.426 10.3858C18.1519 10.2723 17.9176 10.08 17.7528 9.83335C17.588 9.58668 17.5 9.29667 17.5 9C17.5005 8.60231 17.6586 8.22104 17.9398 7.93984C18.221 7.65863 18.6023 7.50045 19 7.5ZM14 15.5C14.4945 15.5 14.9778 15.6466 15.3889 15.9213C15.8001 16.196 16.1205 16.5865 16.3097 17.0433C16.4989 17.5001 16.5484 18.0028 16.452 18.4877C16.3555 18.9727 16.1174 19.4181 15.7678 19.7678C15.4181 20.1174 14.9727 20.3555 14.4877 20.452C14.0028 20.5484 13.5001 20.4989 13.0433 20.3097C12.5865 20.1205 12.196 19.8 11.9213 19.3889C11.6466 18.9778 11.5 18.4945 11.5 18C11.5008 17.3372 11.7644 16.7018 12.2331 16.2331C12.7018 15.7644 13.3372 15.5008 14 15.5ZM7.5 2C6.41221 2 5.34884 2.32257 4.44437 2.92692C3.5399 3.53126 2.83495 4.39025 2.41867 5.39524C2.00238 6.40023 1.89346 7.5061 2.10568 8.573C2.3179 9.63989 2.84173 10.6199 3.61092 11.3891C4.3801 12.1583 5.36011 12.6821 6.42701 12.8943C7.4939 13.1065 8.59977 12.9976 9.60476 12.5813C10.6098 12.1651 11.4687 11.4601 12.0731 10.5556C12.6774 9.65117 13 8.5878 13 7.5C12.9983 6.04185 12.4182 4.64391 11.3872 3.61284C10.3561 2.58177 8.95816 2.00175 7.5 2ZM19 6C18.4067 6 17.8266 6.17595 17.3333 6.50559C16.8399 6.83524 16.4554 7.30377 16.2284 7.85195C16.0013 8.40013 15.9419 9.00333 16.0576 9.58527C16.1734 10.1672 16.4591 10.7018 16.8787 11.1213C17.2982 11.5409 17.8328 11.8266 18.4147 11.9424C18.9967 12.0581 19.5999 11.9987 20.1481 11.7716C20.6962 11.5446 21.1648 11.1601 21.4944 10.6667C21.8241 10.1734 22 9.59334 22 9C21.9991 8.20462 21.6828 7.44206 21.1204 6.87964C20.5579 6.31722 19.7954 6.00087 19 6ZM14 14C13.2089 14 12.4355 14.2346 11.7777 14.6741C11.1199 15.1136 10.6072 15.7384 10.3045 16.4693C10.0017 17.2002 9.92252 18.0044 10.0769 18.7804C10.2312 19.5563 10.6122 20.269 11.1716 20.8284C11.731 21.3878 12.4437 21.7688 13.2196 21.9231C13.9956 22.0775 14.7998 21.9983 15.5307 21.6955C16.2616 21.3928 16.8864 20.8801 17.3259 20.2223C17.7654 19.5645 18 18.7911 18 18C17.9989 16.9395 17.5771 15.9227 16.8272 15.1728C16.0773 14.4229 15.0605 14.0011 14 14Z" fill="black"/>
</svg>
