<svg width="24" height="24" viewBox="0 0 24 24" fill="none" xmlns="http://www.w3.org/2000/svg">
<path d="M19 4C19.2651 4.00032 19.5193 4.10578 19.7068 4.29324C19.8942 4.48071 19.9997 4.73488 20 5V9C19.9997 9.26512 19.8942 9.51929 19.7068 9.70676C19.5193 9.89422 19.2651 9.99968 19 10H15C14.7349 9.99968 14.4807 9.89422 14.2932 9.70676C14.1058 9.51929 14.0003 9.26512 14 9V5C14.0003 4.73488 14.1058 4.48071 14.2932 4.29324C14.4807 4.10578 14.7349 4.00032 15 4H19ZM9 4C9.26512 4.00032 9.51929 4.10578 9.70676 4.29324C9.89422 4.48071 9.99968 4.73488 10 5V9C9.99968 9.26512 9.89422 9.51929 9.70676 9.70676C9.51929 9.89422 9.26512 9.99968 9 10H5C4.73488 9.99968 4.48071 9.89422 4.29324 9.70676C4.10578 9.51929 4.00032 9.26512 4 9V5C4.00032 4.73488 4.10578 4.48071 4.29324 4.29324C4.48071 4.10578 4.73488 4.00032 5 4H9ZM19 14C19.2651 14.0003 19.5193 14.1058 19.7068 14.2932C19.8942 14.4807 19.9997 14.7349 20 15V19C19.9997 19.2651 19.8942 19.5193 19.7068 19.7068C19.5193 19.8942 19.2651 19.9997 19 20H15C14.7349 19.9997 14.4807 19.8942 14.2932 19.7068C14.1058 19.5193 14.0003 19.2651 14 19V15C14.0003 14.7349 14.1058 14.4807 14.2932 14.2932C14.4807 14.1058 14.7349 14.0003 15 14H19ZM9 14C9.26512 14.0003 9.51929 14.1058 9.70676 14.2932C9.89422 14.4807 9.99968 14.7349 10 15V19C9.99968 19.2651 9.89422 19.5193 9.70676 19.7068C9.51929 19.8942 9.26512 19.9997 9 20H5C4.73488 19.9997 4.48071 19.8942 4.29324 19.7068C4.10578 19.5193 4.00032 19.2651 4 19V15C4.00032 14.7349 4.10578 14.4807 4.29324 14.2932C4.48071 14.1058 4.73488 14.0003 5 14H9ZM19 3H15C14.4696 3 13.9609 3.21071 13.5858 3.58579C13.2107 3.96086 13 4.46957 13 5V9C13 9.53043 13.2107 10.0391 13.5858 10.4142C13.9609 10.7893 14.4696 11 15 11H19C19.5304 11 20.0391 10.7893 20.4142 10.4142C20.7893 10.0391 21 9.53043 21 9V5C21 4.46957 20.7893 3.96086 20.4142 3.58579C20.0391 3.21071 19.5304 3 19 3ZM9 3H5C4.46957 3 3.96086 3.21071 3.58579 3.58579C3.21071 3.96086 3 4.46957 3 5V9C3 9.53043 3.21071 10.0391 3.58579 10.4142C3.96086 10.7893 4.46957 11 5 11H9C9.53043 11 10.0391 10.7893 10.4142 10.4142C10.7893 10.0391 11 9.53043 11 9V5C11 4.46957 10.7893 3.96086 10.4142 3.58579C10.0391 3.21071 9.53043 3 9 3ZM19 13H15C14.4696 13 13.9609 13.2107 13.5858 13.5858C13.2107 13.9609 13 14.4696 13 15V19C13 19.5304 13.2107 20.0391 13.5858 20.4142C13.9609 20.7893 14.4696 21 15 21H19C19.5304 21 20.0391 20.7893 20.4142 20.4142C20.7893 20.0391 21 19.5304 21 19V15C21 14.4696 20.7893 13.9609 20.4142 13.5858C20.0391 13.2107 19.5304 13 19 13ZM9 13H5C4.46957 13 3.96086 13.2107 3.58579 13.5858C3.21071 13.9609 3 14.4696 3 15V19C3 19.5304 3.21071 20.0391 3.58579 20.4142C3.96086 20.7893 4.46957 21 5 21H9C9.53043 21 10.0391 20.7893 10.4142 20.4142C10.7893 20.0391 11 19.5304 11 19V15C11 14.4696 10.7893 13.9609 10.4142 13.5858C10.0391 13.2107 9.53043 13 9 13Z" fill="black"/>
</svg>
