<svg width="24" height="24" viewBox="0 0 24 24" fill="none" xmlns="http://www.w3.org/2000/svg">
<path d="M6 9.375C5.87639 9.375 5.75555 9.41166 5.65277 9.48033C5.54999 9.54901 5.46988 9.64662 5.42258 9.76082C5.37527 9.87503 5.36289 10.0007 5.38701 10.1219C5.41112 10.2432 5.47065 10.3545 5.55806 10.4419C5.64547 10.5293 5.75683 10.5889 5.87807 10.613C5.99931 10.6371 6.12497 10.6247 6.23918 10.5774C6.35338 10.5301 6.45099 10.45 6.51967 10.3472C6.58834 10.2445 6.625 10.1236 6.625 10C6.625 9.83424 6.55915 9.67527 6.44194 9.55806C6.32473 9.44085 6.16576 9.375 6 9.375ZM5.6113 8H6.3887L6.625 3H5.375L5.6113 8ZM4 20H5V17.4977L4 18.3977V20ZM9 20H10V12.9954L9 13.8954V20ZM19.99 4L19 4.8912V20H20V4H19.99ZM14 20H15V8.493L14 9.3936V20Z" fill="black"/>
</svg>
