<svg width="24" height="24" viewBox="0 0 24 24" fill="none" xmlns="http://www.w3.org/2000/svg">
<path d="M21.5034 11.361L22.7166 10.561C22.647 10.3678 22.5626 10.1802 22.4641 10C22.3575 9.82466 22.2374 9.65783 22.105 9.50102L20.805 10.1516L19.698 9.51252L19.6116 8.06162C19.2079 7.97948 18.7917 7.97948 18.388 8.06162L18.3016 9.51252L17.1946 10.1516L15.8946 9.50102C15.7622 9.65783 15.6421 9.82466 15.5355 10C15.437 10.1801 15.3526 10.3675 15.283 10.5606L16.4962 11.3606V12.6386L15.283 13.4386C15.3527 13.632 15.4372 13.8197 15.5359 14C15.6425 14.1754 15.7626 14.3422 15.895 14.499L17.195 13.8484L18.302 14.4875L18.3884 15.9384C18.7921 16.0206 19.2083 16.0206 19.612 15.9384L19.6984 14.4875L20.8054 13.8484L22.1054 14.499C22.2376 14.3422 22.3576 14.1753 22.4641 14C22.5626 13.8199 22.647 13.6325 22.7166 13.4394L21.5034 12.6394V11.361ZM19 13.2118C18.7603 13.2118 18.526 13.1407 18.3268 13.0075C18.1275 12.8744 17.9722 12.6851 17.8805 12.4637C17.7888 12.2423 17.7648 11.9986 17.8116 11.7635C17.8584 11.5285 17.9738 11.3126 18.1433 11.1431C18.3127 10.9736 18.5287 10.8582 18.7637 10.8115C18.9988 10.7647 19.2424 10.7887 19.4639 10.8805C19.6853 10.9722 19.8745 11.1275 20.0077 11.3268C20.1408 11.5261 20.2119 11.7604 20.2119 12C20.2118 12.3214 20.0841 12.6296 19.8569 12.8569C19.6296 13.0841 19.3214 13.2118 19 13.2118ZM15.3857 7.47802L6.61569 1.54352V10.5869L1.68259 7.25002L0.84259 8.49222L6.02639 12L0.84279 15.5078L1.68279 16.75L6.61539 13.4131V22.457L15.3859 16.5215L8.70309 12L15.3857 7.47802ZM8.11519 4.37002L12.71 7.47802L8.11519 10.5869V4.37002ZM12.71 16.5215L8.11519 19.6309V13.4131L12.71 16.5215Z" fill="black"/>
</svg>
