<svg width="24" height="24" viewBox="0 0 24 24" fill="none" xmlns="http://www.w3.org/2000/svg">
<path d="M16 5C15.3191 5.00035 14.642 5.10017 13.99 5.2963C14.5707 5.81267 15.0823 6.40188 15.512 7.0493C15.6753 7.0333 15.833 7 16 7C17.3261 7 18.5979 7.52678 19.5355 8.46447C20.4732 9.40215 21 10.6739 21 12C21 13.3261 20.4732 14.5979 19.5355 15.5355C18.5979 16.4732 17.3261 17 16 17C15.833 17 15.6753 16.9667 15.5122 16.9507C15.0825 17.5981 14.5709 18.1873 13.9902 18.7037C14.9529 18.9924 15.9665 19.0703 16.962 18.9322C17.9575 18.7942 18.9116 18.4433 19.7594 17.9036C20.6072 17.3638 21.3288 16.6478 21.8752 15.8043C22.4216 14.9607 22.7799 14.0094 22.9257 13.015C23.0715 12.0206 23.0015 11.0064 22.7204 10.0415C22.4393 9.07655 21.9536 8.18349 21.2965 7.42302C20.6394 6.66256 19.8262 6.05253 18.9123 5.63442C17.9983 5.21631 17.005 4.99993 16 5ZM8 5C6.61553 5 5.26216 5.41054 4.11101 6.17971C2.95987 6.94888 2.06266 8.04213 1.53285 9.32122C1.00303 10.6003 0.86441 12.0078 1.13451 13.3656C1.4046 14.7235 2.07129 15.9708 3.05026 16.9497C4.02922 17.9287 5.2765 18.5954 6.63437 18.8655C7.99224 19.1356 9.3997 18.997 10.6788 18.4672C11.9579 17.9373 13.0511 17.0401 13.8203 15.889C14.5895 14.7378 15 13.3845 15 12C15 10.1435 14.2625 8.36301 12.9497 7.05025C11.637 5.7375 9.85652 5 8 5ZM8 17C7.0111 17 6.0444 16.7068 5.22215 16.1573C4.39991 15.6079 3.75904 14.827 3.38061 13.9134C3.00217 12.9998 2.90315 11.9945 3.09608 11.0245C3.289 10.0546 3.76521 9.16373 4.46447 8.46447C5.16373 7.7652 6.05465 7.289 7.02455 7.09607C7.99446 6.90315 8.99979 7.00216 9.91342 7.3806C10.8271 7.75904 11.6079 8.3999 12.1574 9.22215C12.7068 10.0444 13 11.0111 13 12C12.9985 13.3256 12.4713 14.5965 11.5339 15.5339C10.5965 16.4713 9.32563 16.9985 8 17Z" fill="black"/>
</svg>
