<svg width="24" height="24" viewBox="0 0 24 24" fill="none" xmlns="http://www.w3.org/2000/svg">
<path d="M17.9999 16C17.2571 16.0017 16.5419 16.281 15.9944 16.7831L7.95452 12.45C7.98106 12.3013 7.99624 12.1509 7.99992 12C7.99624 11.849 7.98106 11.6986 7.95452 11.55L15.9945 7.21727C16.5048 7.6745 17.1566 7.94262 17.8408 7.97677C18.5251 8.01093 19.2004 7.80905 19.7536 7.4049C20.3069 7.00076 20.7045 6.41887 20.8801 5.75661C21.0556 5.09435 20.9984 4.39189 20.718 3.76676C20.4376 3.14164 19.951 2.63177 19.3397 2.32249C18.7283 2.0132 18.0293 1.92325 17.3596 2.06769C16.6898 2.21213 16.09 2.5822 15.6605 3.11597C15.2309 3.64974 14.9978 4.31484 14.9999 4.99997C15.0035 5.15286 15.0188 5.30524 15.0458 5.45577L7.00992 9.78657C6.58052 9.39371 6.04611 9.13423 5.47183 9.03976C4.89755 8.94528 4.30818 9.0199 3.77556 9.2545C3.24294 9.48911 2.79006 9.87358 2.47211 10.3611C2.15415 10.8485 1.98486 11.418 1.98486 12C1.98486 12.582 2.15415 13.1514 2.47211 13.6389C2.79006 14.1264 3.24294 14.5108 3.77556 14.7454C4.30818 14.98 4.89755 15.0547 5.47183 14.9602C6.04611 14.8657 6.58052 14.6062 7.00992 14.2134L15.046 18.5442C14.9541 19.1489 15.0497 19.7672 15.3198 20.316C15.5898 20.8648 16.0215 21.3177 16.5568 21.6138C17.092 21.9099 17.7051 22.0349 18.3135 21.9721C18.9219 21.9093 19.4965 21.6617 19.9599 21.2625C20.4234 20.8633 20.7535 20.3318 20.9058 19.7394C21.058 19.147 21.0252 18.5222 20.8118 17.949C20.5983 17.3758 20.2144 16.8817 19.7116 16.5333C19.2089 16.1848 18.6116 15.9987 17.9999 16ZM17.9999 3.79997C18.2373 3.79997 18.4693 3.87035 18.6666 4.00221C18.8639 4.13406 19.0178 4.32148 19.1086 4.54075C19.1994 4.76002 19.2232 5.0013 19.1769 5.23408C19.1306 5.46686 19.0163 5.68067 18.8484 5.8485C18.6806 6.01632 18.4668 6.13061 18.234 6.17691C18.0013 6.22321 17.76 6.19945 17.5407 6.10863C17.3214 6.0178 17.134 5.86399 17.0022 5.66665C16.8703 5.46931 16.7999 5.23731 16.7999 4.99997C16.8003 4.68182 16.9268 4.37681 17.1518 4.15185C17.3768 3.92689 17.6818 3.80034 17.9999 3.79997ZM4.99992 13.2C4.76258 13.2 4.53058 13.1296 4.33324 12.9977C4.1359 12.8659 3.98209 12.6785 3.89127 12.4592C3.80044 12.2399 3.77668 11.9986 3.82298 11.7659C3.86928 11.5331 3.98357 11.3193 4.15139 11.1514C4.31922 10.9836 4.53304 10.8693 4.76581 10.823C4.99859 10.7767 5.23987 10.8005 5.45914 10.8913C5.67841 10.9821 5.86583 11.1359 5.99768 11.3333C6.12954 11.5306 6.19992 11.7626 6.19992 12C6.19955 12.3181 6.073 12.6231 5.84804 12.8481C5.62308 13.0731 5.31807 13.1996 4.99992 13.2ZM17.9999 20.2C17.7626 20.2 17.5306 20.1296 17.3332 19.9977C17.1359 19.8659 16.9821 19.6785 16.8913 19.4592C16.8004 19.2399 16.7767 18.9986 16.823 18.7659C16.8693 18.5331 16.9836 18.3193 17.1514 18.1514C17.3192 17.9836 17.533 17.8693 17.7658 17.823C17.9986 17.7767 18.2399 17.8005 18.4591 17.8913C18.6784 17.9821 18.8658 18.1359 18.9977 18.3333C19.1295 18.5306 19.1999 18.7626 19.1999 19C19.1996 19.3181 19.073 19.6231 18.848 19.8481C18.6231 20.0731 18.3181 20.1996 17.9999 20.2Z" fill="black"/>
</svg>
