<svg width="24" height="24" viewBox="0 0 24 24" fill="none" xmlns="http://www.w3.org/2000/svg">
<path d="M20.9792 8L18.5312 10H16.1355V14H18.5312L20.9792 16H21.5V8H20.9792ZM21 15.3713L18.8477 13.6128L18.71 13.5H16.636V10.5H18.71L18.8482 10.3872L21 8.6287V15.3713ZM6.48829 1.4082V11.5293L1.13999 7.91L0.859985 8.3242L6.29199 12L0.859985 15.6758L1.13919 16.0898L6.48788 12.4707V22.5918L14.6627 17.0605L7.18459 12L14.6631 6.94L6.48829 1.4082ZM13.7705 17.0605L6.98829 21.65V12.47L13.7705 17.0605ZM6.98829 11.5293V2.35L13.7705 6.94L6.98829 11.5293Z" fill="black"/>
</svg>
