<svg width="24" height="24" viewBox="0 0 24 24" fill="none" xmlns="http://www.w3.org/2000/svg">
<path d="M11.9998 9.0833C10.4353 9.08213 8.88617 9.39096 7.44176 9.99194C5.99736 10.5929 4.68635 11.4741 3.58447 12.5847L3.93797 12.9383C4.99422 11.8752 6.25027 11.0315 7.63384 10.4557C9.0174 9.87995 10.5012 9.58345 11.9998 9.5833V9.0833ZM9.36377 18.364L9.71117 18.7114C10.0095 18.407 10.3657 18.1652 10.7586 18.0001C11.1516 17.835 11.5736 17.75 11.9998 17.75C12.4261 17.75 12.848 17.835 13.241 18.0001C13.634 18.1652 13.9901 18.407 14.2885 18.7114L14.6358 18.364C14.2932 18.0115 13.8834 17.7313 13.4306 17.5399C12.9779 17.3486 12.4913 17.25 11.9998 17.25C11.5082 17.25 11.0217 17.3486 10.5689 17.5399C10.1161 17.7313 9.70634 18.0115 9.36377 18.364ZM6.46917 15.4694L6.82377 15.8239C7.50137 15.1404 8.30763 14.5978 9.19603 14.2276C10.0844 13.8573 11.0374 13.6667 11.9998 13.6667C12.9623 13.6667 13.9152 13.8573 14.8036 14.2276C15.692 14.5978 16.4983 15.1404 17.1759 15.8239L17.5306 15.4694C16.8062 14.7397 15.9445 14.1606 14.9953 13.7654C14.0461 13.3702 13.0281 13.1667 11.9999 13.1667C10.9717 13.1667 9.95363 13.3702 9.00442 13.7654C8.0552 14.1606 7.19357 14.7397 6.46917 15.4694ZM18.2175 8L18.3498 3H17.6498L17.7823 8H18.2175ZM17.9998 9.6C17.9207 9.6 17.8433 9.62346 17.7775 9.66741C17.7118 9.71136 17.6605 9.77384 17.6302 9.84693C17.5999 9.92002 17.592 10.0004 17.6075 10.078C17.6229 10.1556 17.661 10.2269 17.7169 10.2828C17.7729 10.3388 17.8441 10.3769 17.9217 10.3923C17.9993 10.4077 18.0798 10.3998 18.1528 10.3696C18.2259 10.3393 18.2884 10.288 18.3324 10.2222C18.3763 10.1564 18.3998 10.0791 18.3998 10C18.3998 9.89391 18.3576 9.79217 18.2826 9.71716C18.2076 9.64214 18.1059 9.6 17.9998 9.6Z" fill="black"/>
</svg>
