<svg width="24" height="24" viewBox="0 0 24 24" fill="none" xmlns="http://www.w3.org/2000/svg">
<path d="M17.9999 16C17.5873 16.0006 17.1794 16.0868 16.8019 16.253C16.4244 16.4193 16.0854 16.662 15.8065 16.9659L7.90646 12.7086C8.03086 12.2444 8.03086 11.7556 7.90646 11.2914L15.8065 7.03413C16.3141 7.59 17.0076 7.94107 17.7561 8.02121C18.5046 8.10136 19.2567 7.90504 19.8705 7.46925C20.4844 7.03345 20.9177 6.38824 21.0889 5.65515C21.2601 4.92205 21.1574 4.15165 20.8 3.48905C20.4426 2.82645 19.8554 2.31737 19.1487 2.0577C18.4421 1.79802 17.6649 1.80567 16.9636 2.0792C16.2622 2.35273 15.685 2.87326 15.3408 3.54277C14.9965 4.21227 14.909 4.98454 15.0946 5.71413L7.19666 9.97003C6.78787 9.52522 6.25431 9.21419 5.66582 9.07765C5.07733 8.94111 4.46132 8.98543 3.89844 9.2048C3.33555 9.42417 2.852 9.80837 2.51109 10.3071C2.17018 10.8059 1.98779 11.3959 1.98779 12C1.98779 12.6042 2.17018 13.1942 2.51109 13.6929C2.852 14.1917 3.33555 14.5759 3.89844 14.7953C4.46132 15.0146 5.07733 15.0589 5.66582 14.9224C6.25431 14.7859 6.78787 14.4748 7.19666 14.03L15.0946 18.2864C14.9471 18.8918 14.9921 19.5282 15.2234 20.1068C15.4546 20.6854 15.8606 21.1775 16.3847 21.5145C16.9088 21.8515 17.5249 22.0167 18.1473 21.987C18.7697 21.9574 19.3674 21.7343 19.857 21.349C20.3467 20.9636 20.704 20.4351 20.8791 19.8372C21.0543 19.2392 21.0386 18.6014 20.8342 18.0128C20.6298 17.4242 20.2469 16.9139 19.7389 16.5532C19.2309 16.1924 18.623 15.999 17.9999 16ZM17.9999 3.50003C18.2965 3.50003 18.5865 3.588 18.8332 3.75282C19.0799 3.91764 19.2721 4.15191 19.3857 4.426C19.4992 4.70009 19.5289 5.00169 19.471 5.29266C19.4132 5.58363 19.2703 5.85091 19.0605 6.06069C18.8507 6.27047 18.5835 6.41333 18.2925 6.47121C18.0015 6.52908 17.6999 6.49938 17.4258 6.38585C17.1517 6.27232 16.9175 6.08006 16.7527 5.83338C16.5878 5.58671 16.4999 5.2967 16.4999 5.00003C16.5003 4.60234 16.6585 4.22107 16.9397 3.93986C17.2209 3.65866 17.6022 3.50048 17.9999 3.50003ZM4.99986 13.5C4.70319 13.5 4.41318 13.4121 4.16651 13.2472C3.91983 13.0824 3.72757 12.8481 3.61404 12.5741C3.50051 12.3 3.47081 11.9984 3.52868 11.7074C3.58656 11.4164 3.72942 11.1491 3.9392 10.9394C4.14898 10.7296 4.41625 10.5867 4.70723 10.5288C4.9982 10.471 5.2998 10.5007 5.57389 10.6142C5.84798 10.7277 6.08224 10.92 6.24707 11.1667C6.41189 11.4133 6.49986 11.7034 6.49986 12C6.49941 12.3977 6.34123 12.779 6.06002 13.0602C5.77882 13.3414 5.39755 13.4996 4.99986 13.5ZM17.9999 20.5C17.7032 20.5 17.4132 20.4121 17.1665 20.2472C16.9198 20.0824 16.7276 19.8481 16.614 19.5741C16.5005 19.3 16.4708 18.9984 16.5287 18.7074C16.5866 18.4164 16.7294 18.1491 16.9392 17.9394C17.149 17.7296 17.4163 17.5867 17.7072 17.5288C17.9982 17.471 18.2998 17.5007 18.5739 17.6142C18.848 17.7277 19.0822 17.92 19.2471 18.1667C19.4119 18.4133 19.4999 18.7034 19.4999 19C19.4994 19.3977 19.3412 19.779 19.06 20.0602C18.7788 20.3414 18.3975 20.4996 17.9999 20.5Z" fill="black"/>
</svg>
