<svg width="24" height="24" viewBox="0 0 24 24" fill="none" xmlns="http://www.w3.org/2000/svg">
<path d="M21.6592 11.994L22.8821 11.1157C22.7275 10.3254 22.314 9.60914 21.707 9.07999L20.335 9.69999L20.3242 9.69389L20.1753 8.19579C19.4137 7.93479 18.5869 7.93479 17.8253 8.19579L17.6758 9.69399L17.665 9.69999L16.293 9.07999C15.6861 9.6091 15.2726 10.3252 15.1179 11.1154L16.3408 11.9937V12.0058L15.1179 12.8841C15.2725 13.6744 15.686 14.3907 16.293 14.92L17.665 14.3L17.6758 14.306L17.8247 15.8042C18.5863 16.0652 19.4131 16.0652 20.1747 15.8042L20.3239 14.3061L20.335 14.3L21.707 14.92C22.3138 14.3908 22.7273 13.6747 22.8821 12.8846L21.6592 12.0062V11.994ZM22.0164 13.186C21.9089 13.4911 21.7458 13.7736 21.5352 14.0192L20.6436 13.6165L20.2836 13.4644L19.9508 13.6558L19.6166 13.848L19.5785 14.2316L19.4814 15.2052C19.1635 15.2648 18.8373 15.2648 18.5194 15.2052L18.4223 14.2316L18.3737 13.8416L18.0395 13.6493L17.7067 13.4579L17.3567 13.616L16.4651 14.0188C16.2545 13.7732 16.0913 13.4907 15.9839 13.1855L16.7786 12.6147L17.0911 12.3782V11.6088L16.7786 11.3843L15.9839 10.8136C16.0913 10.5084 16.2545 10.2259 16.4651 9.98029L17.3567 10.3831L17.7191 10.536L18.0528 10.3421L18.3843 10.1494L18.4222 9.76789L18.5193 8.79429C18.8372 8.73482 19.1634 8.73482 19.4813 8.79429L19.5784 9.76789L19.6273 10.1587L19.9627 10.3507L20.2952 10.5407L20.6439 10.3831L21.5355 9.98039C21.7461 10.2259 21.9093 10.5084 22.0167 10.8136L21.222 11.3844L20.9095 11.6209V12.3903L21.222 12.6148L22.0164 13.186ZM19 11.25C18.8517 11.25 18.7066 11.294 18.5833 11.3764C18.46 11.4588 18.3638 11.5759 18.3071 11.713C18.2503 11.85 18.2355 12.0008 18.2644 12.1463C18.2933 12.2918 18.3648 12.4254 18.4697 12.5303C18.5745 12.6352 18.7082 12.7066 18.8537 12.7356C18.9992 12.7645 19.15 12.7497 19.287 12.6929C19.424 12.6361 19.5412 12.54 19.6236 12.4167C19.706 12.2933 19.75 12.1483 19.75 12C19.75 11.8011 19.671 11.6103 19.5303 11.4697C19.3897 11.329 19.1989 11.25 19 11.25ZM6.55179 1.47559V11.0586L1.41109 7.57999L0.851086 8.40809L6.15919 12L0.850586 15.5918L1.41109 16.4199L6.55179 12.9414V22.5244L15.0254 16.791L7.94429 12L15.0254 7.20899L6.55179 1.47559ZM13.24 16.791L7.55179 20.64V12.9424L13.24 16.791ZM7.55179 11.0576V3.35999L13.24 7.20899L7.55179 11.0576Z" fill="black"/>
</svg>
