<svg width="24" height="24" viewBox="0 0 24 24" fill="none" xmlns="http://www.w3.org/2000/svg">
<path d="M10.3086 19.3084L12.0002 21L13.6918 19.3084C13.4737 19.0793 13.2112 18.8968 12.9205 18.7722C12.6297 18.6476 12.3166 18.5833 12.0002 18.5833C11.6839 18.5833 11.3708 18.6476 11.08 18.7722C10.7892 18.8968 10.5268 19.0793 10.3086 19.3084ZM12.0002 9.5C10.4905 9.49909 8.99562 9.79724 7.60179 10.3772C6.20795 10.9572 4.94282 11.8076 3.87942 12.8792L4.93642 13.9362C5.86234 13.0055 6.96305 12.267 8.1753 11.7631C9.38754 11.2593 10.6874 10.9999 12.0002 11V9.5ZM12.0002 5C9.89867 4.99727 7.81729 5.40988 5.87571 6.21411C3.93413 7.01835 2.17062 8.19835 0.686523 9.6863L1.76222 10.762C3.10367 9.41197 4.69876 8.34043 6.45577 7.609C8.21278 6.87757 10.097 6.50068 12.0002 6.5V5ZM7.09762 16.0974L8.14912 17.1489C8.65291 16.6397 9.25268 16.2355 9.91371 15.9596C10.5747 15.6837 11.2839 15.5417 12.0002 15.5417C12.7165 15.5417 13.4257 15.6837 14.0867 15.9596C14.7478 16.2355 15.3475 16.6397 15.8513 17.1489L16.9028 16.0974C16.263 15.4464 15.5 14.9294 14.6583 14.5764C13.8166 14.2235 12.913 14.0417 12.0002 14.0417C11.0875 14.0417 10.1839 14.2235 9.34215 14.5764C8.50041 14.9294 7.7374 15.4464 7.09762 16.0974ZM20.0002 6V5C20.0002 4.46957 19.7895 3.96086 19.4144 3.58579C19.0394 3.21071 18.5307 3 18.0002 3C17.4698 3 16.9611 3.21071 16.586 3.58579C16.2109 3.96086 16.0002 4.46957 16.0002 5V6H15.0002V10H21.0002V6H20.0002ZM17.1002 5C17.1002 4.76131 17.195 4.53239 17.3638 4.3636C17.5326 4.19482 17.7615 4.1 18.0002 4.1C18.2389 4.1 18.4678 4.19482 18.6366 4.3636C18.8054 4.53239 18.9002 4.76131 18.9002 5V6H17.1002V5ZM19.8002 8.8H16.2002V7.2549H19.8002V8.8Z" fill="black"/>
</svg>
