<svg width="24" height="24" viewBox="0 0 24 24" fill="none" xmlns="http://www.w3.org/2000/svg">
<path d="M22 12H20.9958C21.0012 14.0633 20.2981 16.0659 19.0042 17.673C17.7102 19.28 15.9037 20.3942 13.8868 20.8292C11.8699 21.2642 9.76483 20.9936 7.92349 20.0627C6.08215 19.1318 4.61619 17.597 3.77069 15.7149C2.9252 13.8328 2.75143 11.7175 3.27843 9.72271C3.80543 7.72787 5.00126 5.97441 6.66599 4.75548C8.33072 3.53655 10.3634 2.92605 12.4243 3.02604C14.4851 3.12603 16.4492 3.93046 17.9881 5.30482L15.4141 7.87882C14.4746 7.11152 13.3018 6.68697 12.0888 6.67504C10.8759 6.66311 9.69497 7.06452 8.74054 7.81319C7.7861 8.56186 7.11501 9.61318 6.83772 10.7941C6.56042 11.975 6.69346 13.2151 7.21492 14.3104C7.73639 15.4056 8.6152 16.2906 9.70672 16.8198C10.7982 17.349 12.0374 17.4908 13.2202 17.2219C14.4031 16.953 15.4591 16.2893 16.2145 15.3402C16.9699 14.3911 17.3797 13.213 17.3763 12H16.3743C16.3885 12.9984 16.0629 13.972 15.4508 14.7609C14.8388 15.5499 13.9767 16.1073 13.0061 16.3417C12.0354 16.576 11.014 16.4734 10.1094 16.0507C9.20474 15.628 8.47071 14.9103 8.02776 14.0154C7.58482 13.1205 7.45929 12.1016 7.67177 11.126C7.88426 10.1504 8.42213 9.27595 9.19711 8.64631C9.97208 8.01667 10.9381 7.66921 11.9366 7.66098C12.935 7.65275 13.9067 7.98424 14.6919 8.60102L11.6464 11.6464C11.5526 11.7402 11.4999 11.8674 11.4999 12C11.4999 12.1326 11.5526 12.2598 11.6464 12.3536C11.7402 12.4474 11.8674 12.5001 12 12.5001C12.1326 12.5001 12.2598 12.4474 12.3536 12.3536L19.4246 5.28252L19.0711 4.92892C17.4352 3.29298 15.2826 2.27489 12.9802 2.04811C10.6778 1.82133 8.368 2.3999 6.44434 3.68523C4.52069 4.97056 3.10221 6.88313 2.43061 9.09706C1.75901 11.311 1.87584 13.6893 2.76119 15.8267C3.64653 17.9642 5.24562 19.7285 7.28598 20.8191C9.32635 21.9098 11.6817 22.2592 13.9508 21.8078C16.2199 21.3565 18.2624 20.1323 19.7301 18.3439C21.1978 16.5555 22 14.3136 22 12Z" fill="black"/>
</svg>
