<svg width="24" height="24" viewBox="0 0 24 24" fill="none" xmlns="http://www.w3.org/2000/svg">
<path d="M11.9998 9.2778C10.4607 9.27619 8.9365 9.5795 7.51524 10.1702C6.09398 10.7609 4.80381 11.6273 3.71924 12.7194L5.05984 14.06C5.96975 13.1461 7.05126 12.421 8.24225 11.9264C9.43324 11.4318 10.7102 11.1774 11.9998 11.1778V9.2778ZM9.87064 18.8709L11.9998 21L14.129 18.8709C13.8544 18.5825 13.5241 18.3529 13.1581 18.196C12.7921 18.0391 12.3981 17.9582 11.9998 17.9582C11.6016 17.9582 11.2076 18.0391 10.8416 18.196C10.4756 18.3529 10.1452 18.5825 9.87064 18.8709ZM6.82984 15.83L8.16534 17.1655C8.66731 16.659 9.26466 16.2569 9.9229 15.9825C10.5811 15.7081 11.2872 15.5668 12.0003 15.5668C12.7135 15.5668 13.4195 15.7081 14.0778 15.9825C14.736 16.2569 15.3334 16.659 15.8353 17.1655L17.1698 15.83C16.4943 15.1449 15.6894 14.6009 14.8018 14.2295C13.9142 13.8582 12.9617 13.667 11.9995 13.667C11.0374 13.667 10.0849 13.8582 9.19728 14.2295C8.30969 14.6009 7.50475 15.1449 6.82924 15.83H6.82984ZM18.7576 8L19.2186 3H16.781L17.242 8H18.7576ZM17.9998 9C17.8021 9 17.6087 9.05865 17.4443 9.16853C17.2798 9.27841 17.1516 9.43459 17.076 9.61732C17.0003 9.80004 16.9805 10.0011 17.0191 10.1951C17.0576 10.3891 17.1529 10.5673 17.2927 10.7071C17.4326 10.847 17.6108 10.9422 17.8047 10.9808C17.9987 11.0194 18.1998 10.9996 18.3825 10.9239C18.5652 10.8482 18.7214 10.72 18.8313 10.5556C18.9412 10.3911 18.9998 10.1978 18.9998 10C18.9998 9.73478 18.8945 9.48043 18.7069 9.29289C18.5194 9.10536 18.2651 9 17.9998 9Z" fill="black"/>
</svg>
