<svg width="24" height="24" viewBox="0 0 24 24" fill="none" xmlns="http://www.w3.org/2000/svg">
<path d="M19 7C18.6044 7 18.2178 7.1173 17.8889 7.33706C17.56 7.55682 17.3036 7.86918 17.1522 8.23463C17.0009 8.60009 16.9613 9.00222 17.0384 9.39018C17.1156 9.77814 17.3061 10.1345 17.5858 10.4142C17.8655 10.6939 18.2219 10.8844 18.6098 10.9616C18.9978 11.0387 19.3999 10.9991 19.7654 10.8478C20.1308 10.6964 20.4432 10.44 20.6629 10.1111C20.8827 9.78224 21 9.39556 21 9C21 8.46957 20.7893 7.96086 20.4142 7.58579C20.0391 7.21071 19.5304 7 19 7ZM12.75 11.8633V3H11.25V11.8633C11.7417 11.7345 12.2583 11.7345 12.75 11.8633ZM12 13C11.6044 13 11.2178 13.1173 10.8889 13.3371C10.56 13.5568 10.3036 13.8692 10.1522 14.2346C10.0009 14.6001 9.96126 15.0022 10.0384 15.3902C10.1156 15.7781 10.3061 16.1345 10.5858 16.4142C10.8655 16.6939 11.2219 16.8844 11.6098 16.9616C11.9978 17.0387 12.3999 16.9991 12.7654 16.8478C13.1308 16.6964 13.4432 16.44 13.6629 16.1111C13.8827 15.7822 14 15.3956 14 15C14 14.4696 13.7893 13.9609 13.4142 13.5858C13.0391 13.2107 12.5304 13 12 13ZM19.75 5.8633V3H18.25V5.8633C18.7417 5.73451 19.2583 5.73451 19.75 5.8633ZM5 7C4.60444 7 4.21776 7.1173 3.88886 7.33706C3.55996 7.55682 3.30362 7.86918 3.15224 8.23463C3.00087 8.60009 2.96126 9.00222 3.03843 9.39018C3.1156 9.77814 3.30608 10.1345 3.58579 10.4142C3.86549 10.6939 4.22186 10.8844 4.60982 10.9616C4.99778 11.0387 5.39992 10.9991 5.76537 10.8478C6.13082 10.6964 6.44318 10.44 6.66294 10.1111C6.8827 9.78224 7 9.39556 7 9C7 8.46957 6.78929 7.96086 6.41421 7.58579C6.03914 7.21071 5.53043 7 5 7ZM5.75 5.8633V3H4.25V5.8633C4.49531 5.80162 4.74706 5.76919 5 5.7667C5.25294 5.76919 5.50469 5.80162 5.75 5.8633ZM18.25 12.1367V21H19.75V12.1367C19.2583 12.2655 18.7417 12.2655 18.25 12.1367ZM11.25 18.1367V21H12.75V18.1367C12.2583 18.2655 11.7417 18.2655 11.25 18.1367ZM4.25 12.1367V21H5.75V12.1367C5.50469 12.1984 5.25294 12.2308 5 12.2333C4.74706 12.2308 4.49531 12.1984 4.25 12.1367Z" fill="black"/>
</svg>
