<svg width="24" height="24" viewBox="0 0 24 24" fill="none" xmlns="http://www.w3.org/2000/svg">
<path d="M20.3176 8.00002L18.1376 10H15.5626V14H18.1376L20.3176 16H22V8.00002H20.3176ZM20.8 14.8H20.7847L18.9487 13.1157L18.6045 12.8H16.7625V11.2H18.6045L18.9487 10.8843L20.7847 9.20002H20.8V14.8ZM6.61519 1.54352V10.5869L1.68259 7.25002L0.84259 8.49222L6.02639 12L0.84279 15.5078L1.68279 16.75L6.61539 13.4131V22.457L15.3859 16.5215L8.70309 12L15.3857 7.47802L6.61519 1.54352ZM12.71 16.5215L8.11519 19.6309V13.4131L12.71 16.5215ZM8.11519 10.5869V4.37002L12.71 7.47802L8.11519 10.5869Z" fill="black"/>
</svg>
