<svg width="24" height="24" viewBox="0 0 24 24" fill="none" xmlns="http://www.w3.org/2000/svg">
<path d="M9.6667 3H8.6667V4H9.6667V3ZM18.1667 3H17.1667V4H18.1667V3ZM6.8333 3H5.8333V4H6.8333V3ZM15.3333 3H14.3333V4H15.3333V3ZM4 11.5H3V12.5H4V11.5ZM4 14.3333H3V15.3333H4V14.3333ZM4 5.8333H3V6.8333H4V5.8333ZM4 17.1666H3V18.1666H4V17.1666ZM4 8.6666H3V9.6666H4V8.6666ZM4 3H3V4H4V3ZM20 3V20H3V21H21V3H20ZM12.5 3H11.5V4H12.5V3ZM9 15H10.9166L15.1538 10.7628C15.2369 10.6797 15.3029 10.581 15.3478 10.4724C15.3928 10.3638 15.416 10.2474 15.416 10.1299C15.416 10.0123 15.3928 9.8959 15.3478 9.7873C15.3029 9.6787 15.2369 9.58002 15.1538 9.4969L14.5031 8.8462C14.42 8.76308 14.3213 8.69714 14.2127 8.65215C14.1041 8.60717 13.9877 8.58401 13.8701 8.58401C13.7526 8.58401 13.6362 8.60717 13.5276 8.65215C13.419 8.69714 13.3203 8.76308 13.2372 8.8462L9 13.0834V15ZM13.8029 9.4119C13.8117 9.40306 13.8222 9.39604 13.8337 9.39125C13.8453 9.38646 13.8577 9.384 13.8701 9.384C13.8826 9.384 13.895 9.38646 13.9066 9.39125C13.9181 9.39604 13.9286 9.40306 13.9374 9.4119L14.5881 10.0626C14.6035 10.0816 14.612 10.1054 14.612 10.1299C14.612 10.1543 14.6035 10.1781 14.5881 10.1971L14.0291 10.7562L13.2439 9.9709L13.8029 9.4119ZM9.8 13.4147L12.6781 10.5367L13.4634 11.3219L10.5852 14.2H9.8V13.4147Z" fill="black"/>
</svg>
