<svg width="24" height="24" viewBox="0 0 24 24" fill="none" xmlns="http://www.w3.org/2000/svg">
<path d="M8 18C7.16154 17.9997 6.33245 17.8237 5.56618 17.4834C4.79992 17.143 4.11349 16.6458 3.55118 16.0239C2.98887 15.4019 2.56315 14.669 2.30148 13.8725C2.03982 13.0759 1.94801 12.2333 2.03198 11.3991C2.11595 10.5648 2.37384 9.75745 2.78901 9.029C3.20418 8.30055 3.76742 7.6672 4.4424 7.1698C5.11738 6.6724 5.88912 6.32199 6.70785 6.14116C7.52657 5.96034 8.37411 5.95312 9.1958 6.11997C9.44922 5.82814 9.72111 5.55287 10.0098 5.29587C8.96444 4.98165 7.86008 4.91626 6.78494 5.10491C5.7098 5.29357 4.69368 5.73105 3.81775 6.3824C2.94182 7.03375 2.23036 7.88093 1.74019 8.85625C1.25003 9.83157 0.994751 10.908 0.994751 11.9996C0.994751 13.0911 1.25003 14.1676 1.74019 15.1429C2.23036 16.1182 2.94182 16.9654 3.81775 17.6167C4.69368 18.2681 5.7098 18.7056 6.78494 18.8942C7.86008 19.0829 8.96444 19.0175 10.0098 18.7033C9.72118 18.4462 9.4493 18.1709 9.1958 17.8792C8.80225 17.9594 8.40164 17.9999 8 18ZM16 4.99997C14.6155 4.99997 13.2621 5.41052 12.111 6.17969C10.9599 6.94886 10.0627 8.04211 9.53284 9.32119C9.00303 10.6003 8.8644 12.0077 9.1345 13.3656C9.4046 14.7235 10.0713 15.9708 11.0502 16.9497C12.0292 17.9287 13.2765 18.5954 14.6344 18.8655C15.9922 19.1356 17.3997 18.9969 18.6788 18.4671C19.9579 17.9373 21.0511 17.0401 21.8203 15.889C22.5895 14.7378 23 13.3844 23 12C23 10.1435 22.2625 8.36298 20.9497 7.05023C19.637 5.73747 17.8565 4.99997 16 4.99997ZM16 18C14.8133 18 13.6533 17.6481 12.6666 16.9888C11.6799 16.3295 10.9108 15.3924 10.4567 14.2961C10.0026 13.1997 9.88377 11.9933 10.1153 10.8294C10.3468 9.66555 10.9182 8.59645 11.7574 7.75733C12.5965 6.91822 13.6656 6.34677 14.8295 6.11526C15.9933 5.88375 17.1997 6.00257 18.2961 6.4567C19.3925 6.91082 20.3295 7.67986 20.9888 8.66655C21.6481 9.65325 22 10.8133 22 12C21.9982 13.5907 21.3654 15.1158 20.2406 16.2406C19.1158 17.3654 17.5907 17.9981 16 18ZM16.6665 9.49997H15.6665V11.5H13.6665V12.5H15.6665V14.5H16.6665V12.5H18.6665V11.5H16.6665V9.49997Z" fill="black"/>
</svg>
