<svg width="24" height="24" viewBox="0 0 24 24" fill="none" xmlns="http://www.w3.org/2000/svg">
<path d="M19.5 21H21V12H19.5V21ZM15 21H16.5V15H15V21ZM6.5 12C5.60998 12 4.73995 12.2639 3.99993 12.7584C3.25991 13.2529 2.68313 13.9557 2.34254 14.778C2.00194 15.6002 1.91283 16.505 2.08646 17.3779C2.2601 18.2509 2.68868 19.0527 3.31801 19.682C3.94735 20.3113 4.74917 20.7399 5.62209 20.9136C6.495 21.0872 7.3998 20.9981 8.22207 20.6575C9.04434 20.3169 9.74714 19.7401 10.2416 19.0001C10.7361 18.2601 11 17.39 11 16.5C11 15.3066 10.5259 14.162 9.68198 13.318C8.83806 12.4741 7.69347 12 6.5 12ZM6.5 19.5C6.00589 19.5004 5.51936 19.3786 5.08369 19.1455C4.64801 18.9125 4.27671 18.5753 4.0028 18.1641C3.72889 17.7529 3.56087 17.2803 3.51369 16.7885C3.46652 16.2966 3.54165 15.8007 3.7324 15.3449L6.5 16.5V13.5C7.29564 13.5 8.05871 13.8161 8.62132 14.3787C9.18393 14.9413 9.5 15.7044 9.5 16.5C9.5 17.2957 9.18393 18.0587 8.62132 18.6214C8.05871 19.184 7.29564 19.5 6.5 19.5ZM20.1592 3.44823L14.5557 8.60553L8.44429 2.98053L1.8252 9.07323L2.8408 10.1768L8.44429 5.02003L14.5557 10.645L21.1748 4.55233L20.1592 3.44823Z" fill="black"/>
</svg>
