<svg width="24" height="24" viewBox="0 0 24 24" fill="none" xmlns="http://www.w3.org/2000/svg">
<path d="M6 9.1C5.822 9.1 5.64799 9.15278 5.49999 9.25168C5.35198 9.35057 5.23663 9.49113 5.16851 9.65559C5.10039 9.82004 5.08257 10.001 5.11729 10.1756C5.15202 10.3502 5.23774 10.5105 5.3636 10.6364C5.48947 10.7623 5.64984 10.848 5.82442 10.8827C5.999 10.9174 6.17996 10.8996 6.34442 10.8315C6.50887 10.7634 6.64943 10.648 6.74832 10.5C6.84722 10.352 6.9 10.178 6.9 10C6.9 9.76131 6.80518 9.53239 6.6364 9.3636C6.46761 9.19482 6.23869 9.1 6 9.1ZM5.4319 8H6.5681L6.9138 3H5.0863L5.4319 8ZM4 20H5.5V17.0475L4 18.3981V20ZM8.8334 20H10.3334V12.6952L8.8334 14.0459V20ZM13.6667 9.6937V20H15.1667V8.343L13.6667 9.6937Z" fill="black"/>
</svg>
