<svg width="24" height="24" viewBox="0 0 24 24" fill="none" xmlns="http://www.w3.org/2000/svg">
<path d="M12 2C10.0222 2 8.08879 2.58649 6.4443 3.6853C4.79981 4.78412 3.51809 6.3459 2.76121 8.17317C2.00433 10.0004 1.8063 12.0111 2.19215 13.9509C2.578 15.8907 3.53041 17.6725 4.92894 19.0711C6.32746 20.4696 8.10929 21.422 10.0491 21.8079C11.9889 22.1937 13.9996 21.9957 15.8268 21.2388C17.6541 20.4819 19.2159 19.2002 20.3147 17.5557C21.4135 15.9112 22 13.9778 22 12C22 10.6868 21.7413 9.38642 21.2388 8.17317C20.7363 6.95991 19.9997 5.85752 19.0711 4.92893C18.1425 4.00035 17.0401 3.26375 15.8268 2.7612C14.6136 2.25866 13.3132 2 12 2ZM7 13.15C6.77256 13.15 6.55021 13.0826 6.3611 12.9562C6.17198 12.8298 6.02458 12.6502 5.93754 12.4401C5.8505 12.23 5.82773 11.9987 5.8721 11.7756C5.91647 11.5526 6.026 11.3477 6.18683 11.1868C6.34766 11.026 6.55257 10.9165 6.77565 10.8721C6.99873 10.8277 7.22996 10.8505 7.44009 10.9375C7.65023 11.0246 7.82983 11.172 7.95619 11.3611C8.08256 11.5502 8.15 11.7726 8.15 12C8.15 12.305 8.02884 12.5975 7.81318 12.8132C7.59751 13.0288 7.305 13.15 7 13.15ZM12 13.15C11.7726 13.15 11.5502 13.0826 11.3611 12.9562C11.172 12.8298 11.0246 12.6502 10.9375 12.4401C10.8505 12.23 10.8277 11.9987 10.8721 11.7756C10.9165 11.5526 11.026 11.3477 11.1868 11.1868C11.3477 11.026 11.5526 10.9165 11.7757 10.8721C11.9987 10.8277 12.23 10.8505 12.4401 10.9375C12.6502 11.0246 12.8298 11.172 12.9562 11.3611C13.0826 11.5502 13.15 11.7726 13.15 12C13.15 12.305 13.0288 12.5975 12.8132 12.8132C12.5975 13.0288 12.305 13.15 12 13.15ZM17 13.15C16.7726 13.15 16.5502 13.0826 16.3611 12.9562C16.172 12.8298 16.0246 12.6502 15.9375 12.4401C15.8505 12.23 15.8277 11.9987 15.8721 11.7756C15.9165 11.5526 16.026 11.3477 16.1868 11.1868C16.3477 11.026 16.5526 10.9165 16.7757 10.8721C16.9987 10.8277 17.23 10.8505 17.4401 10.9375C17.6502 11.0246 17.8298 11.172 17.9562 11.3611C18.0826 11.5502 18.15 11.7726 18.15 12C18.15 12.305 18.0288 12.5975 17.8132 12.8132C17.5975 13.0288 17.305 13.15 17 13.15Z" fill="black"/>
</svg>
