<svg width="24" height="24" viewBox="0 0 24 24" fill="none" xmlns="http://www.w3.org/2000/svg">
<path d="M22.5234 8.64783L11.4248 19.7465C11.3783 19.7935 11.3522 19.857 11.3523 19.9231C11.3525 19.9892 11.3788 20.0526 11.4255 20.0993C11.4723 20.1461 11.5357 20.1724 11.6018 20.1726C11.6679 20.1727 11.7314 20.1467 11.7783 20.1001L22.8769 9.00133L22.5234 8.64783ZM17.139 11.2037L17.5136 10.8291C15.3234 9.63583 12.8051 9.18538 10.337 9.54544C7.86884 9.9055 5.58418 11.0566 3.82612 12.8259L4.17882 13.1785C5.84141 11.5027 7.9989 10.406 10.3326 10.0503C12.6663 9.69474 15.0526 10.0991 17.1388 11.2037H17.139ZM20.3637 7.97893L20.737 7.60573C17.6645 5.59646 13.9938 4.70645 10.3423 5.08537C6.69073 5.46428 3.28101 7.08901 0.686523 9.68633L1.05172 10.0516C3.54351 7.54154 6.82319 5.96541 10.3399 5.58798C13.8566 5.21054 17.396 6.0548 20.3637 7.97893ZM13.7502 14.5923L14.1575 14.185C12.9102 13.7876 11.5773 13.7422 10.3058 14.0539C9.03434 14.3656 7.87357 15.0222 6.95142 15.9514L7.30422 16.3041C8.12808 15.4694 9.16035 14.8705 10.2939 14.5695C11.4274 14.2685 12.6208 14.2764 13.7502 14.5923Z" fill="black"/>
</svg>
