<svg width="24" height="24" viewBox="0 0 24 24" fill="none" xmlns="http://www.w3.org/2000/svg">
<path d="M19.8433 6.8735L19.49 7.227C20.7541 8.49382 21.464 10.2103 21.464 12C21.464 13.7896 20.7541 15.5061 19.49 16.7729L19.8436 17.1265C21.2013 15.7658 21.9638 13.9221 21.9637 11.9999C21.9636 10.0778 21.2011 8.2341 19.8433 6.8735ZM16.6614 10.0554C17.1765 10.5715 17.4658 11.2708 17.4658 12C17.4658 12.7291 17.1765 13.4284 16.6614 13.9445L17.0151 14.2981C17.6237 13.6881 17.9654 12.8616 17.9654 12C17.9654 11.1384 17.6237 10.3119 17.0151 9.7019L16.6614 10.0554ZM6.48829 1.4082V11.5293L1.13999 7.91L0.859985 8.3242L6.29199 12L0.859985 15.6758L1.13919 16.0898L6.48788 12.4707V22.5918L14.6627 17.0605L7.18459 12L14.6631 6.94L6.48829 1.4082ZM13.7705 17.0605L6.98829 21.65V12.47L13.7705 17.0605ZM6.98829 11.5293V2.35L13.7705 6.94L6.98829 11.5293Z" fill="black"/>
</svg>
