<svg width="24" height="24" viewBox="0 0 24 24" fill="none" xmlns="http://www.w3.org/2000/svg">
<path d="M16 3H8C6.67392 3 5.40215 3.52678 4.46447 4.46447C3.52678 5.40215 3 6.67392 3 8V16C3 17.3261 3.52678 18.5979 4.46447 19.5355C5.40215 20.4732 6.67392 21 8 21H16C17.3261 21 18.5979 20.4732 19.5355 19.5355C20.4732 18.5979 21 17.3261 21 16V8C21 6.67392 20.4732 5.40215 19.5355 4.46447C18.5979 3.52678 17.3261 3 16 3ZM20 16C19.9988 17.0605 19.577 18.0772 18.8271 18.8271C18.0772 19.577 17.0605 19.9988 16 20H8C6.9395 19.9988 5.92278 19.577 5.17289 18.8271C4.423 18.0772 4.00119 17.0605 4 16V8C4.00119 6.9395 4.423 5.92278 5.17289 5.17289C5.92278 4.423 6.9395 4.00119 8 4H16C17.0605 4.00119 18.0772 4.423 18.8271 5.17289C19.577 5.92278 19.9988 6.9395 20 8V16ZM16.8525 10.8945C16.6593 9.9067 16.1425 9.0114 15.3838 8.35L13.6685 9.1248L13.6553 9.1172L13.4688 7.2445C12.9944 7.08928 12.4991 7.00684 12 7C11.5008 7.00694 11.0056 7.08948 10.5312 7.2448L10.3447 9.1174L10.3315 9.1251L8.6162 8.35C7.85759 9.0114 7.34083 9.90659 7.1475 10.8943L8.6758 11.9922V12.0072L7.1475 13.1052C7.34077 14.0931 7.85753 14.9884 8.6162 15.65L10.3315 14.8752L10.3447 14.8827L10.5312 16.7555C11.0057 16.9107 11.5009 16.9931 12 17C12.4992 16.993 12.9944 16.9105 13.4688 16.7552L13.6553 14.8825L13.6685 14.8749L15.3838 15.6498C16.1423 14.9883 16.6591 14.0932 16.8525 13.1055L15.3242 12.0075V11.9924L16.8525 10.8945ZM14.8574 12.6572L15.9341 13.4306C15.7837 13.8979 15.5355 14.3278 15.2061 14.6917L13.9976 14.1459L13.6123 13.9853L13.2578 14.1882L12.9 14.393L12.86 14.803L12.7286 16.1221C12.2488 16.2257 11.7524 16.2257 11.2726 16.1221L11.1412 14.803L11.0875 14.3852L10.7296 14.1803L10.3751 13.9775L10.003 14.1456L8.7945 14.6914C8.465 14.3275 8.21682 13.8976 8.0665 13.4303L9.1432 12.657L9.4762 12.4024V11.582L9.1432 11.3427L8.0665 10.5693C8.21679 10.102 8.46497 9.67212 8.7945 9.3083L10.003 9.8541L10.3902 10.0156L10.7457 9.8099L11.1007 9.6046L11.1407 9.1967L11.2721 7.8777C11.7519 7.7741 12.2483 7.7741 12.7281 7.8777L12.8595 9.1968L12.9132 9.6146L13.2711 9.8193L13.6256 10.0222L13.9977 9.8541L15.2062 9.3083C15.5358 9.67214 15.7839 10.1021 15.9342 10.5694L14.8575 11.3427L14.5245 11.5972V12.4178L14.8574 12.6572ZM12 10.6C11.7231 10.6 11.4524 10.6821 11.2222 10.8359C10.992 10.9898 10.8125 11.2084 10.7066 11.4642C10.6006 11.7201 10.5729 12.0016 10.6269 12.2731C10.6809 12.5447 10.8143 12.7942 11.0101 12.9899C11.2058 13.1857 11.4553 13.3191 11.7269 13.3731C11.9984 13.4271 12.2799 13.3994 12.5358 13.2934C12.7916 13.1875 13.0102 13.008 13.1641 12.7778C13.3179 12.5476 13.4 12.2769 13.4 12C13.4 11.6287 13.2525 11.2726 12.9899 11.0101C12.7274 10.7475 12.3713 10.6 12 10.6ZM12 12.6C11.8813 12.6 11.7653 12.5648 11.6667 12.4989C11.568 12.433 11.4911 12.3392 11.4457 12.2296C11.4003 12.12 11.3884 11.9993 11.4115 11.8829C11.4347 11.7666 11.4918 11.6596 11.5757 11.5757C11.6596 11.4918 11.7666 11.4347 11.8829 11.4115C11.9993 11.3884 12.12 11.4003 12.2296 11.4457C12.3392 11.4911 12.433 11.568 12.4989 11.6667C12.5648 11.7653 12.6 11.8813 12.6 12C12.5998 12.1591 12.5365 12.3115 12.424 12.424C12.3115 12.5365 12.1591 12.5998 12 12.6Z" fill="black"/>
</svg>
