<svg width="24" height="24" viewBox="0 0 24 24" fill="none" xmlns="http://www.w3.org/2000/svg">
<path d="M16 5C15.3191 5.00035 14.642 5.10017 13.99 5.2963C14.9366 6.13785 15.6942 7.17033 16.213 8.32577C16.7318 9.48121 17 10.7334 17 12C17 13.2666 16.7318 14.5188 16.213 15.6742C15.6942 16.8297 14.9366 17.8621 13.99 18.7037C14.9527 18.9924 15.9663 19.0703 16.9618 18.9322C17.9573 18.7942 18.9114 18.4434 19.7592 17.9036C20.607 17.3639 21.3286 16.6479 21.875 15.8043C22.4213 14.9608 22.7796 14.0095 22.9255 13.0151C23.0713 12.0207 23.0013 11.0065 22.7202 10.0416C22.4391 9.07668 21.9535 8.18361 21.2964 7.42314C20.6393 6.66266 19.8261 6.05262 18.9122 5.63449C17.9983 5.21636 17.005 4.99996 16 5ZM8 5C6.61553 5 5.26216 5.41054 4.11101 6.17971C2.95987 6.94888 2.06266 8.04213 1.53285 9.32122C1.00303 10.6003 0.86441 12.0078 1.13451 13.3656C1.4046 14.7235 2.07129 15.9708 3.05026 16.9497C4.02922 17.9287 5.2765 18.5954 6.63437 18.8655C7.99224 19.1356 9.3997 18.997 10.6788 18.4672C11.9579 17.9373 13.0511 17.0401 13.8203 15.889C14.5895 14.7378 15 13.3845 15 12C15 10.1435 14.2625 8.36301 12.9497 7.05025C11.637 5.7375 9.85652 5 8 5Z" fill="black"/>
</svg>
