<svg width="24" height="24" viewBox="0 0 24 24" fill="none" xmlns="http://www.w3.org/2000/svg">
<path d="M12 8.19997C11.2484 8.19997 10.5137 8.42284 9.88882 8.84039C9.26392 9.25794 8.77686 9.85142 8.48925 10.5458C8.20164 11.2401 8.12638 12.0042 8.27301 12.7413C8.41963 13.4784 8.78154 14.1555 9.31298 14.687C9.84442 15.2184 10.5215 15.5803 11.2586 15.727C11.9958 15.8736 12.7598 15.7983 13.4542 15.5107C14.1485 15.2231 14.742 14.736 15.1596 14.1111C15.5771 13.4862 15.8 12.7515 15.8 12C15.7988 10.9925 15.3981 10.0266 14.6857 9.31425C13.9733 8.60187 13.0075 8.20114 12 8.19997ZM12 13.8C11.644 13.8 11.296 13.6944 11 13.4966C10.704 13.2988 10.4732 13.0177 10.337 12.6888C10.2008 12.3599 10.1651 11.998 10.2346 11.6488C10.304 11.2996 10.4755 10.9789 10.7272 10.7272C10.9789 10.4754 11.2997 10.304 11.6488 10.2346C11.998 10.1651 12.3599 10.2008 12.6888 10.337C13.0177 10.4732 13.2988 10.7039 13.4966 10.9999C13.6944 11.296 13.8 11.644 13.8 12C13.7994 12.4772 13.6096 12.9347 13.2722 13.2722C12.9347 13.6096 12.4772 13.7994 12 13.8ZM20.2886 11.1567L22.6621 9.20257L22.4468 8.55177C21.973 7.12121 21.2118 5.80256 20.21 4.67677L19.7539 4.16497L16.875 5.24367L15.4136 4.39997L14.9082 1.36677L14.2368 1.22807C12.7612 0.923406 11.2388 0.923406 9.76319 1.22807L9.09179 1.36677L8.58639 4.39997L7.12499 5.24367L4.24609 4.16497L3.78999 4.67677C2.78818 5.80256 2.02701 7.12121 1.55319 8.55177L1.33789 9.20257L3.71139 11.1567V12.8433L1.33789 14.7974L1.55319 15.4482C2.0268 16.8788 2.78819 18.1974 3.79049 19.3228L4.24609 19.8345L7.12499 18.7563L8.58639 19.6L9.09179 22.6332L9.76319 22.7719C11.2388 23.0765 12.7612 23.0765 14.2368 22.7719L14.9082 22.6332L15.4136 19.6L16.875 18.7567L19.7539 19.8354L20.21 19.3236C21.2118 18.1978 21.973 16.8791 22.4468 15.4486L22.6621 14.7978L20.2886 12.8437V11.1567ZM20.3118 15.4529C20.012 16.1732 19.6203 16.8517 19.1465 17.4716L17.5765 16.8835L16.6927 16.5524L15.8753 17.024L14.4139 17.8673L13.5957 18.3393L13.4405 19.2709L13.1651 20.9246C12.3915 21.0251 11.6081 21.0251 10.8345 20.9246L10.5591 19.2709L10.4039 18.3393L9.58569 17.8673L8.12449 17.024L7.30739 16.5524L6.42359 16.8834L4.85359 17.4713C4.3798 16.8515 3.98812 16.1731 3.68829 15.4529L4.98279 14.3873L5.71149 13.7873V10.2127L4.98279 9.61267L3.68819 8.54707C3.98801 7.82677 4.37969 7.14825 4.85349 6.52837L6.42349 7.11647L7.30729 7.44757L8.12469 6.97597L9.58609 6.13267L10.4043 5.66057L10.5595 4.72907L10.8349 3.07537C11.6085 2.97484 12.3919 2.97484 13.1655 3.07537L13.4409 4.72907L13.5961 5.66057L14.4143 6.13267L15.8757 6.97597L16.6931 7.44757L17.5769 7.11647L19.1469 6.52837C19.6206 7.14831 20.0123 7.82682 20.3122 8.54707L19.0173 9.61267L18.2886 10.2127V13.7873L19.0173 14.3873L20.3118 15.4529Z" fill="black"/>
</svg>
