<svg width="24" height="24" viewBox="0 0 24 24" fill="none" xmlns="http://www.w3.org/2000/svg">
<path d="M19.5 8.625H21V7.125H19.5V8.625ZM19.5 16.875H21V15.375H19.5V16.875ZM11.25 8.625H12.75V7.125H11.25V8.625ZM11.25 16.875H12.75V15.375H11.25V16.875ZM3 8.625H4.5V7.125H3V8.625ZM3 16.875H4.5V15.375H3V16.875ZM3 3V4.5H21V3H3ZM3 12.75H4.5V11.25H3V12.75ZM7.125 12.75H8.625V11.25H7.125V12.75ZM11.25 12.75H12.75V11.25H11.25V12.75ZM15.375 12.75H16.875V11.25H15.375V12.75ZM19.5 12.75H21V11.25H19.5V12.75ZM3 21H4.5V19.5H3V21ZM7.125 21H8.625V19.5H7.125V21ZM11.25 21H12.75V19.5H11.25V21ZM15.375 21H16.875V19.5H15.375V21ZM19.5 21H21V19.5H19.5V21Z" fill="black"/>
</svg>
