<svg width="24" height="24" viewBox="0 0 24 24" fill="none" xmlns="http://www.w3.org/2000/svg">
<path d="M8.83448 17.43C8.04824 17.5569 7.24382 17.5116 6.47682 17.2971C5.70982 17.0827 4.99855 16.7042 4.39218 16.1878C3.78582 15.6715 3.29881 15.0297 2.96485 14.3066C2.63088 13.5836 2.45792 12.7967 2.45792 12.0003C2.45792 11.2039 2.63088 10.417 2.96485 9.69395C3.29881 8.97094 3.78582 8.32908 4.39218 7.81275C4.99855 7.29643 5.70982 6.91794 6.47682 6.70348C7.24382 6.48901 8.04824 6.44367 8.83448 6.5706C9.18454 6.10912 9.57819 5.68239 10.01 5.2963C8.96462 4.98208 7.86026 4.91668 6.78512 5.10534C5.70998 5.294 4.69386 5.73147 3.81793 6.38283C2.942 7.03418 2.23054 7.88135 1.74038 8.85667C1.25021 9.832 0.994934 10.9084 0.994934 12C0.994934 13.0916 1.25021 14.168 1.74038 15.1433C2.23054 16.1186 2.942 16.9658 3.81793 17.6172C4.69386 18.2685 5.70998 18.706 6.78512 18.8947C7.86026 19.0833 8.96462 19.0179 10.01 18.7037C9.57822 18.3178 9.18457 17.8913 8.83448 17.43ZM16 5C14.6155 5 13.2621 5.41054 12.111 6.17971C10.9598 6.94888 10.0626 8.04213 9.53282 9.32122C9.00301 10.6003 8.86439 12.0078 9.13448 13.3656C9.40458 14.7235 10.0713 15.9708 11.0502 16.9497C12.0292 17.9287 13.2765 18.5954 14.6343 18.8655C15.9922 19.1356 17.3997 18.997 18.6788 18.4672C19.9578 17.9373 21.0511 17.0401 21.8203 15.889C22.5894 14.7378 23 13.3845 23 12C23 10.1435 22.2625 8.36301 20.9497 7.05025C19.637 5.7375 17.8565 5 16 5ZM16 17.5C14.9122 17.5 13.8488 17.1774 12.9443 16.5731C12.0399 15.9687 11.3349 15.1098 10.9186 14.1048C10.5024 13.0998 10.3934 11.9939 10.6057 10.927C10.8179 9.86011 11.3417 8.8801 12.1109 8.11091C12.8801 7.34172 13.8601 6.8179 14.927 6.60568C15.9939 6.39346 17.0997 6.50238 18.1047 6.91866C19.1097 7.33494 19.9687 8.03989 20.5731 8.94436C21.1774 9.84883 21.5 10.9122 21.5 12C21.4983 13.4582 20.9184 14.8562 19.8873 15.8873C18.8562 16.9184 17.4582 17.4984 16 17.5ZM16.8669 9.5H15.4669V11.3H13.6669V12.7H15.4669V14.5H16.8669V12.7H18.6669V11.3H16.8669V9.5Z" fill="black"/>
</svg>
