<svg width="24" height="24" viewBox="0 0 24 24" fill="none" xmlns="http://www.w3.org/2000/svg">
<path d="M7.125 4.5H8.625V3H7.125V4.5ZM7.125 21H8.625V19.5H7.125V21ZM15.375 21H16.875V19.5H15.375V21ZM3 21H4.5V19.5H3V21ZM3 16.875H4.5V15.375H3V16.875ZM3 12.75H4.5V11.25H3V12.75ZM3 8.625H4.5V7.125H3V8.625ZM3 4.5H4.5V3H3V4.5ZM11.25 21H12.75V19.5H11.25V21ZM19.5 21H21V19.5H19.5V21ZM19.5 16.875H21V15.375H19.5V16.875ZM14 3H11.25V4.5H14C15.4587 4.5 16.8576 5.07946 17.8891 6.11091C18.9205 7.14236 19.5 8.54131 19.5 10V12.75H21V10C21 8.14348 20.2625 6.36301 18.9497 5.05025C17.637 3.7375 15.8565 3 14 3Z" fill="black"/>
</svg>
