<svg width="24" height="24" viewBox="0 0 24 24" fill="none" xmlns="http://www.w3.org/2000/svg">
<path d="M9.4051 8.17818L12.0833 5.49998L9.4051 2.82178L8.6981 3.52878L10.1693 4.99998H8C7.20435 4.99998 6.44129 5.31605 5.87868 5.87866C5.31607 6.44127 5 7.20433 5 7.99998V16C5 16.7956 5.31607 17.5587 5.87868 18.1213C6.44129 18.6839 7.20435 19 8 19H11V18H8C7.46975 17.9994 6.9614 17.7885 6.58646 17.4135C6.21152 17.0386 6.00061 16.5302 6 16V7.99998C6.00061 7.46973 6.21152 6.96138 6.58646 6.58644C6.9614 6.2115 7.46975 6.00059 8 5.99998H10.1693L8.6981 7.47118L9.4051 8.17818ZM19 19V18H15V19H19ZM15 12.5H19V11.5H15V12.5ZM15 5.99998H19V4.99998H15V5.99998Z" fill="black"/>
</svg>
