<svg width="24" height="24" viewBox="0 0 24 24" fill="none" xmlns="http://www.w3.org/2000/svg">
<path d="M18 8.5C18.9283 8.5 19.8185 8.86875 20.4749 9.52513C21.1313 10.1815 21.5 11.0717 21.5 12C21.5 12.9283 21.1313 13.8185 20.4749 14.4749C19.8185 15.1313 18.9283 15.5 18 15.5H6C5.07174 15.5 4.1815 15.1313 3.52513 14.4749C2.86875 13.8185 2.5 12.9283 2.5 12C2.5 11.0717 2.86875 10.1815 3.52513 9.52513C4.1815 8.86875 5.07174 8.5 6 8.5H18ZM18 7H6C5.34339 7 4.69321 7.12933 4.08658 7.3806C3.47995 7.63188 2.92876 8.00017 2.46447 8.46447C1.52678 9.40215 1 10.6739 1 12C1 13.3261 1.52678 14.5979 2.46447 15.5355C2.92876 15.9998 3.47995 16.3681 4.08658 16.6194C4.69321 16.8707 5.34339 17 6 17H18C18.6566 17 19.3068 16.8707 19.9134 16.6194C20.52 16.3681 21.0712 15.9998 21.5355 15.5355C21.9998 15.0712 22.3681 14.52 22.6194 13.9134C22.8707 13.3068 23 12.6566 23 12C23 11.3434 22.8707 10.6932 22.6194 10.0866C22.3681 9.47996 21.9998 8.92876 21.5355 8.46447C21.0712 8.00017 20.52 7.63188 19.9134 7.3806C19.3068 7.12933 18.6566 7 18 7Z" fill="black"/>
</svg>
