<svg width="24" height="24" viewBox="0 0 24 24" fill="none" xmlns="http://www.w3.org/2000/svg">
<path d="M7.5 2.6C8.46913 2.6 9.4165 2.88738 10.2223 3.4258C11.0281 3.96422 11.6561 4.72949 12.027 5.62485C12.3979 6.52021 12.4949 7.50543 12.3059 8.45594C12.1168 9.40645 11.6501 10.2795 10.9648 10.9648C10.2795 11.6501 9.40645 12.1168 8.45594 12.3058C7.50544 12.4949 6.52021 12.3979 5.62485 12.027C4.7295 11.6561 3.96422 11.0281 3.4258 10.2223C2.88738 9.41649 2.6 8.46913 2.6 7.5C2.60148 6.20089 3.11821 4.95542 4.03682 4.03681C4.95542 3.11821 6.2009 2.60148 7.5 2.6ZM19 6.6C19.4747 6.6 19.9387 6.74076 20.3334 7.00447C20.728 7.26819 21.0357 7.64302 21.2173 8.08156C21.399 8.5201 21.4465 9.00266 21.3539 9.46822C21.2613 9.93377 21.0327 10.3614 20.6971 10.6971C20.3614 11.0327 19.9338 11.2613 19.4682 11.3539C19.0027 11.4465 18.5201 11.399 18.0816 11.2173C17.643 11.0357 17.2682 10.728 17.0045 10.3334C16.7408 9.93869 16.6 9.47468 16.6 9C16.6007 8.3637 16.8538 7.75367 17.3037 7.30373C17.7537 6.8538 18.3637 6.60071 19 6.6ZM14 14.6C14.6725 14.6 15.3298 14.7994 15.8889 15.173C16.4481 15.5466 16.8839 16.0776 17.1412 16.6989C17.3985 17.3201 17.4659 18.0038 17.3347 18.6633C17.2035 19.3228 16.8797 19.9287 16.4042 20.4042C15.9287 20.8797 15.3228 21.2035 14.6633 21.3347C14.0038 21.4659 13.3201 21.3985 12.6989 21.1412C12.0776 20.8839 11.5466 20.4481 11.173 19.8889C10.7994 19.3298 10.6 18.6725 10.6 18C10.601 17.0986 10.9595 16.2343 11.5969 15.5969C12.2343 14.9595 13.0986 14.601 14 14.6ZM7.5 2C6.41221 2 5.34884 2.32257 4.44437 2.92692C3.5399 3.53126 2.83495 4.39025 2.41867 5.39524C2.00238 6.40023 1.89346 7.5061 2.10568 8.573C2.3179 9.63989 2.84173 10.6199 3.61092 11.3891C4.3801 12.1583 5.36011 12.6821 6.42701 12.8943C7.4939 13.1065 8.59977 12.9976 9.60476 12.5813C10.6098 12.1651 11.4687 11.4601 12.0731 10.5556C12.6774 9.65117 13 8.5878 13 7.5C12.9983 6.04185 12.4182 4.64391 11.3872 3.61284C10.3561 2.58177 8.95816 2.00175 7.5 2ZM19 6C18.4067 6 17.8266 6.17595 17.3333 6.50559C16.8399 6.83524 16.4554 7.30377 16.2284 7.85195C16.0013 8.40013 15.9419 9.00333 16.0576 9.58527C16.1734 10.1672 16.4591 10.7018 16.8787 11.1213C17.2982 11.5409 17.8328 11.8266 18.4147 11.9424C18.9967 12.0581 19.5999 11.9987 20.1481 11.7716C20.6962 11.5446 21.1648 11.1601 21.4944 10.6667C21.8241 10.1734 22 9.59334 22 9C21.9991 8.20462 21.6828 7.44206 21.1204 6.87964C20.5579 6.31722 19.7954 6.00087 19 6ZM14 14C13.2089 14 12.4355 14.2346 11.7777 14.6741C11.1199 15.1136 10.6072 15.7384 10.3045 16.4693C10.0017 17.2002 9.92252 18.0044 10.0769 18.7804C10.2312 19.5563 10.6122 20.269 11.1716 20.8284C11.731 21.3878 12.4437 21.7688 13.2196 21.9231C13.9956 22.0775 14.7998 21.9983 15.5307 21.6955C16.2616 21.3928 16.8864 20.8801 17.3259 20.2223C17.7654 19.5645 18 18.7911 18 18C17.9989 16.9395 17.5771 15.9227 16.8272 15.1728C16.0773 14.4229 15.0605 14.0011 14 14Z" fill="black"/>
</svg>
