<svg width="24" height="24" viewBox="0 0 24 24" fill="none" xmlns="http://www.w3.org/2000/svg">
<path d="M20.3765 4.98262L19.0174 3.62352C18.8281 3.43418 18.6033 3.28399 18.3559 3.18152C18.1085 3.07905 17.8434 3.02631 17.5756 3.02631C17.3079 3.02631 17.0428 3.07905 16.7954 3.18152C16.548 3.28399 16.3232 3.43418 16.1339 3.62352L3 16.7574V21H7.2427L20.3765 7.86612C20.7589 7.48373 20.9737 6.96512 20.9737 6.42437C20.9737 5.88361 20.7589 5.365 20.3765 4.98262ZM6.8285 20H4V17.1716L14.2323 6.93932L17.0607 9.76772L6.8285 20ZM19.6694 7.15902L17.7677 9.06072L14.9393 6.23232L16.8409 4.33062C17.0358 4.13578 17.3 4.02633 17.5756 4.02633C17.8512 4.02633 18.1154 4.13578 18.3103 4.33062L19.6694 5.69002C19.8639 5.88498 19.9731 6.14913 19.9731 6.42452C19.9731 6.6999 19.8639 6.96405 19.6694 7.15902Z" fill="black"/>
</svg>
