<svg width="24" height="24" viewBox="0 0 24 24" fill="none" xmlns="http://www.w3.org/2000/svg">
<path d="M8 17C6.67391 17 5.40214 16.4732 4.46446 15.5355C3.52678 14.5979 3 13.3261 3 12C3 10.6739 3.52678 9.40215 4.46446 8.46447C5.40214 7.52678 6.67391 7 8 7C8.167 7 8.3247 7.0333 8.4878 7.0493C8.91755 6.40188 9.42911 5.81267 10.0098 5.2963C8.96444 4.98208 7.86008 4.91668 6.78494 5.10534C5.7098 5.294 4.69368 5.73147 3.81775 6.38283C2.94182 7.03418 2.23036 7.88135 1.74019 8.85667C1.25003 9.832 0.994751 10.9084 0.994751 12C0.994751 13.0916 1.25003 14.168 1.74019 15.1433C2.23036 16.1186 2.94182 16.9658 3.81775 17.6172C4.69368 18.2685 5.7098 18.706 6.78494 18.8947C7.86008 19.0833 8.96444 19.0179 10.0098 18.7037C9.42911 18.1873 8.91755 17.5981 8.4878 16.9507C8.3247 16.9667 8.167 17 8 17ZM16 5C14.6155 5 13.2621 5.41054 12.111 6.17971C10.9599 6.94888 10.0627 8.04213 9.53284 9.32122C9.00303 10.6003 8.8644 12.0078 9.1345 13.3656C9.4046 14.7235 10.0713 15.9708 11.0502 16.9497C12.0292 17.9287 13.2765 18.5954 14.6344 18.8655C15.9922 19.1356 17.3997 18.997 18.6788 18.4672C19.9579 17.9373 21.0511 17.0401 21.8203 15.889C22.5895 14.7378 23 13.3845 23 12C23 10.1435 22.2625 8.36301 20.9497 7.05025C19.637 5.7375 17.8565 5 16 5ZM16 17C15.0111 17 14.0444 16.7068 13.2221 16.1573C12.3999 15.6079 11.759 14.827 11.3806 13.9134C11.0022 12.9998 10.9031 11.9945 11.0961 11.0245C11.289 10.0546 11.7652 9.16373 12.4645 8.46447C13.1637 7.7652 14.0546 7.289 15.0245 7.09607C15.9944 6.90315 16.9998 7.00216 17.9134 7.3806C18.827 7.75904 19.6079 8.3999 20.1573 9.22215C20.7068 10.0444 21 11.0111 21 12C20.9985 13.3256 20.4713 14.5965 19.5339 15.5339C18.5965 16.4713 17.3256 16.9985 16 17ZM16.967 9.5H15.3662V11.2H13.6667V12.8H15.3662V14.5H16.967V12.8H18.667V11.2H16.967V9.5Z" fill="black"/>
</svg>
