<svg width="24" height="24" viewBox="0 0 24 24" fill="none" xmlns="http://www.w3.org/2000/svg">
<path d="M20 21H21V12H20V21ZM14 21H15V14H14V21ZM17 21H18V17H17V21ZM8.44432 4.68001L14.5557 10.305L21.0057 4.36851L20.3279 3.63211L14.5557 8.94531L8.44432 3.32001L1.99432 9.25651L2.67212 9.99291L8.44432 4.68001ZM6.00002 16V12.05C4.99095 12.1621 4.05008 12.6143 3.33217 13.3322C2.61427 14.0501 2.16209 14.9909 2.05002 16H6.00002ZM7.00002 12.05V17H2.05002C2.1421 17.841 2.47001 18.6389 2.99594 19.3016C3.52188 19.9643 4.22441 20.4649 5.02253 20.7455C5.82065 21.0262 6.68186 21.0756 7.50683 20.888C8.33181 20.7004 9.08696 20.2834 9.6852 19.6852C10.2834 19.0869 10.7004 18.3318 10.888 17.5068C11.0756 16.6818 11.0262 15.8206 10.7456 15.0225C10.4649 14.2244 9.96432 13.5219 9.30161 12.9959C8.6389 12.47 7.84104 12.1421 7.00002 12.05Z" fill="black"/>
</svg>
