<svg width="24" height="24" viewBox="0 0 24 24" fill="none" xmlns="http://www.w3.org/2000/svg">
<path d="M12 2C10.0222 2 8.08879 2.58649 6.4443 3.6853C4.79981 4.78412 3.51809 6.3459 2.76121 8.17317C2.00433 10.0004 1.8063 12.0111 2.19215 13.9509C2.578 15.8907 3.53041 17.6725 4.92894 19.0711C6.32746 20.4696 8.10929 21.422 10.0491 21.8079C11.9889 22.1937 13.9996 21.9957 15.8268 21.2388C17.6541 20.4819 19.2159 19.2002 20.3147 17.5557C21.4135 15.9112 22 13.9778 22 12C22 10.6868 21.7413 9.38642 21.2388 8.17317C20.7363 6.95991 19.9997 5.85752 19.0711 4.92893C18.1425 4.00035 17.0401 3.26375 15.8268 2.7612C14.6136 2.25866 13.3132 2 12 2ZM11.7 2.6152V11.3575L5.0063 5.7412C5.85184 4.79358 6.88124 4.0278 8.03195 3.49041C9.18266 2.95302 10.4306 2.65525 11.7 2.6152ZM2.6 12C2.59996 9.89377 3.31142 7.84929 4.619 6.1981L11.5775 12.0366L5.7412 18.9935C4.75408 18.1152 3.96389 17.0381 3.42252 15.8328C2.88115 14.6275 2.60084 13.3213 2.6 12ZM12 21.4C9.89377 21.4 7.8493 20.6885 6.1982 19.3808L12.23 12.1924L12.3 12.1094V2.6152C14.7655 2.69237 17.1017 3.73611 18.8043 5.52105C20.5068 7.306 21.439 9.68893 21.3996 12.1553C21.3602 14.6217 20.3524 16.9737 18.5937 18.7033C16.8351 20.433 14.4667 21.4016 12 21.4Z" fill="black"/>
</svg>
