<svg width="24" height="24" viewBox="0 0 24 24" fill="none" xmlns="http://www.w3.org/2000/svg">
<path d="M19 19V17H14V19H19ZM14 13H19V11H14V13ZM14 6.99999H19V4.99999H14V6.99999ZM9 8.87489L12.0416 5.83329L9 2.79169V4.99999H8C7.20435 4.99999 6.44129 5.31606 5.87868 5.87867C5.31607 6.44128 5 7.20434 5 7.99999V16C5 16.7956 5.31607 17.5587 5.87868 18.1213C6.44129 18.6839 7.20435 19 8 19H11V17H8C7.73487 16.9997 7.48069 16.8942 7.29321 16.7068C7.10574 16.5193 7.00029 16.2651 7 16V7.99999C7.00029 7.73486 7.10574 7.48068 7.29321 7.2932C7.48069 7.10573 7.73487 7.00028 8 6.99999H9V8.87489Z" fill="black"/>
</svg>
