<svg width="24" height="24" viewBox="0 0 24 24" fill="none" xmlns="http://www.w3.org/2000/svg">
<path d="M20.79 4.624C20.4149 4.24903 19.9063 4.03838 19.376 4.03838C18.8456 4.03838 18.337 4.24903 17.9619 4.624L12 10.5859L9.5671 8.1531C9.84735 7.64693 9.99618 7.07856 10 6.5C10 5.80777 9.79473 5.13108 9.41015 4.55551C9.02556 3.97993 8.47894 3.53133 7.83939 3.26642C7.19985 3.00152 6.49612 2.9322 5.81719 3.06725C5.13825 3.2023 4.51461 3.53564 4.02513 4.02513C3.53564 4.51461 3.2023 5.13825 3.06725 5.81719C2.9322 6.49612 3.00152 7.19985 3.26642 7.83939C3.53133 8.47894 3.97993 9.02556 4.55551 9.41015C5.13108 9.79473 5.80777 10 6.5 10C7.07856 9.99618 7.64693 9.84735 8.1531 9.5671L10.5859 12L8.1531 14.4329C7.64693 14.1527 7.07856 14.0038 6.5 14C5.80777 14 5.13108 14.2053 4.55551 14.5899C3.97993 14.9744 3.53133 15.5211 3.26642 16.1606C3.00152 16.8002 2.9322 17.5039 3.06725 18.1828C3.2023 18.8618 3.53564 19.4854 4.02513 19.9749C4.51461 20.4644 5.13825 20.7977 5.81719 20.9328C6.49612 21.0678 7.19985 20.9985 7.83939 20.7336C8.47894 20.4687 9.02556 20.0201 9.41015 19.4445C9.79473 18.8689 10 18.1922 10 17.5C9.99618 16.9214 9.84735 16.3531 9.5671 15.8469L12 13.4141L17.9619 19.376C18.337 19.751 18.8456 19.9616 19.376 19.9616C19.9063 19.9616 20.4149 19.751 20.79 19.376L13.4141 12L20.79 4.624ZM6.5 8C6.20333 8 5.91332 7.91203 5.66665 7.74721C5.41997 7.58238 5.22771 7.34812 5.11418 7.07403C5.00065 6.79994 4.97095 6.49834 5.02882 6.20737C5.0867 5.91639 5.22956 5.64912 5.43934 5.43934C5.64912 5.22956 5.91639 5.0867 6.20737 5.02882C6.49834 4.97095 6.79994 5.00065 7.07403 5.11418C7.34812 5.22771 7.58238 5.41997 7.74721 5.66665C7.91203 5.91332 8 6.20333 8 6.5C7.99955 6.89769 7.84137 7.27896 7.56016 7.56016C7.27896 7.84137 6.89769 7.99955 6.5 8ZM6.5 19C6.20333 19 5.91332 18.912 5.66665 18.7472C5.41997 18.5824 5.22771 18.3481 5.11418 18.074C5.00065 17.7999 4.97095 17.4983 5.02882 17.2074C5.0867 16.9164 5.22956 16.6491 5.43934 16.4393C5.64912 16.2296 5.91639 16.0867 6.20737 16.0288C6.49834 15.9709 6.79994 16.0007 7.07403 16.1142C7.34812 16.2277 7.58238 16.42 7.74721 16.6666C7.91203 16.9133 8 17.2033 8 17.5C7.99955 17.8977 7.84137 18.279 7.56016 18.5602C7.27896 18.8414 6.89769 18.9996 6.5 19Z" fill="black"/>
</svg>
