<svg width="24" height="24" viewBox="0 0 24 24" fill="none" xmlns="http://www.w3.org/2000/svg">
<path d="M17 3H7C5.93913 3 4.92172 3.42143 4.17157 4.17157C3.42143 4.92172 3 5.93913 3 7V17C3 18.0609 3.42143 19.0783 4.17157 19.8284C4.92172 20.5786 5.93913 21 7 21H17C18.0609 21 19.0783 20.5786 19.8284 19.8284C20.5786 19.0783 21 18.0609 21 17V7C21 5.93913 20.5786 4.92172 19.8284 4.17157C19.0783 3.42143 18.0609 3 17 3ZM11.3975 14.1079L8.4883 11.1987L8.8418 10.8452L11.3975 13.4009L15.3457 9.4536L15.6992 9.8071L11.3975 14.1079Z" fill="black"/>
</svg>
