<svg width="24" height="24" viewBox="0 0 24 24" fill="none" xmlns="http://www.w3.org/2000/svg">
<path d="M7.09741 16.0974L8.14891 17.1489C8.6527 16.6397 9.25247 16.2355 9.9135 15.9596C10.5745 15.6837 11.2837 15.5417 12 15.5417C12.7163 15.5417 13.4255 15.6837 14.0865 15.9596C14.7476 16.2355 15.3473 16.6397 15.8511 17.1489L16.9026 16.0974C16.2628 15.4464 15.4998 14.9294 14.6581 14.5764C13.8163 14.2235 12.9128 14.0417 12 14.0417C11.0873 14.0417 10.1837 14.2235 9.34194 14.5764C8.5002 14.9294 7.73719 15.4464 7.09741 16.0974ZM10.3084 19.3084L12 21L13.6916 19.3084C13.4735 19.0793 13.211 18.8968 12.9202 18.7722C12.6295 18.6475 12.3164 18.5833 12 18.5833C11.6836 18.5833 11.3706 18.6475 11.0798 18.7722C10.789 18.8968 10.5266 19.0793 10.3084 19.3084Z" fill="black"/>
</svg>
