<svg width="24" height="24" viewBox="0 0 24 24" fill="none" xmlns="http://www.w3.org/2000/svg">
<path d="M6.46851 15.4684L7.18571 16.1856C7.81395 15.5463 8.56324 15.0386 9.38983 14.6919C10.2164 14.3453 11.1038 14.1668 12.0001 14.1668C12.8964 14.1668 13.7838 14.3453 14.6104 14.6919C15.437 15.0386 16.1863 15.5463 16.8145 16.1856L17.5317 15.4683C16.807 14.7389 15.9451 14.16 14.9958 13.765C14.0464 13.37 13.0284 13.1666 12.0001 13.1666C10.9719 13.1666 9.95377 13.37 9.00442 13.765C8.05508 14.16 7.19324 14.7389 6.46851 15.4683V15.4684ZM9.36061 18.3605L10.06 19.0599C10.3138 18.8034 10.6159 18.5997 10.9489 18.4607C11.2819 18.3217 11.6392 18.2502 12 18.2502C12.3608 18.2502 12.7181 18.3217 13.0511 18.4607C13.3841 18.5997 13.6862 18.8034 13.94 19.0599L14.6393 18.3605C14.2955 18.009 13.8849 17.7297 13.4316 17.539C12.9783 17.3483 12.4915 17.25 11.9998 17.25C11.5081 17.25 11.0213 17.3483 10.568 17.539C10.1147 17.7297 9.70414 18.009 9.36031 18.3605H9.36061Z" fill="black"/>
</svg>
