<svg width="24" height="24" viewBox="0 0 24 24" fill="none" xmlns="http://www.w3.org/2000/svg">
<path d="M9.87061 18.8709L11.9998 21L14.129 18.8709C13.8544 18.5825 13.5241 18.3529 13.1581 18.196C12.7921 18.0391 12.398 17.9582 11.9998 17.9582C11.6016 17.9582 11.2075 18.0391 10.8415 18.196C10.4755 18.3529 10.1452 18.5825 9.87061 18.8709ZM18.7576 8L19.2186 3H16.781L17.242 8H18.7576ZM17.9998 9C17.802 9 17.6087 9.05865 17.4442 9.16853C17.2798 9.27841 17.1516 9.43459 17.0759 9.61732C17.0002 9.80004 16.9804 10.0011 17.019 10.1951C17.0576 10.3891 17.1528 10.5673 17.2927 10.7071C17.4326 10.847 17.6107 10.9422 17.8047 10.9808C17.9987 11.0194 18.1998 10.9996 18.3825 10.9239C18.5652 10.8482 18.7214 10.72 18.8313 10.5556C18.9412 10.3911 18.9998 10.1978 18.9998 10C18.9998 9.73478 18.8944 9.48043 18.7069 9.29289C18.5194 9.10536 18.265 9 17.9998 9Z" fill="black"/>
</svg>
