<svg width="24" height="24" viewBox="0 0 24 24" fill="none" xmlns="http://www.w3.org/2000/svg">
<path d="M6 12C6.00022 10.6759 6.4412 9.38955 7.2534 8.3438L4.1855 5.77C2.58298 7.77277 1.81388 10.316 2.03806 12.8712C2.26223 15.4264 3.46243 17.7969 5.3892 19.49L7.9614 16.4248C7.34415 15.8647 6.85081 15.1817 6.51303 14.4197C6.17526 13.6577 6.00051 12.8335 6 12ZM11.75 6.0126V2.0126C10.3756 2.04539 9.02294 2.36231 7.77704 2.94343C6.53115 3.52455 5.41903 4.35728 4.5107 5.3892L7.5757 7.9611C8.10802 7.37637 8.75108 6.90306 9.46761 6.56859C10.1841 6.23413 10.9599 6.04515 11.75 6.0126ZM12.25 2.0126V6.0126C13.1931 6.04997 14.114 6.30945 14.9379 6.76993C15.7618 7.2304 16.4654 7.87887 16.9913 8.66257C17.5173 9.44627 17.8508 10.3431 17.9648 11.28C18.0788 12.2169 17.97 13.1675 17.6472 14.0545C17.3244 14.9414 16.7968 15.7396 16.1074 16.3842C15.4179 17.0287 14.586 17.5014 13.6794 17.7638C12.7727 18.0261 11.817 18.0708 10.8898 17.894C9.96267 17.7173 9.09034 17.3242 8.3438 16.7467L5.77 19.8144C7.00949 20.804 8.4667 21.4843 10.0212 21.7992C11.5757 22.1141 13.1828 22.0546 14.7097 21.6254C16.2366 21.1963 17.6394 20.4099 18.8022 19.3313C19.9651 18.2527 20.8545 16.9129 21.397 15.4225C21.9395 13.9321 22.1195 12.334 21.9222 10.7603C21.7248 9.18653 21.1557 7.68237 20.262 6.37211C19.3683 5.06184 18.1755 3.9831 16.7823 3.22505C15.3892 2.46699 13.8356 2.05139 12.25 2.0126Z" fill="black"/>
</svg>
