<svg width="24" height="24" viewBox="0 0 24 24" fill="none" xmlns="http://www.w3.org/2000/svg">
<path d="M5.78821 14.8344C6.55454 14.6158 7.20669 14.1094 7.60825 13.421C8.00981 12.7327 8.1297 11.9158 7.94284 11.1411C7.75598 10.3664 7.27684 9.69399 6.60563 9.26443C5.93442 8.83487 5.12312 8.68145 4.34141 8.83625C3.55969 8.99106 2.86809 9.4421 2.41126 10.0951C1.95442 10.748 1.76773 11.5523 1.89022 12.3397C2.01271 13.1272 2.4349 13.8367 3.06849 14.3201C3.70208 14.8034 4.49801 15.0231 5.28981 14.9331C5.82353 16.3379 6.731 17.5701 7.91418 18.4966C9.09735 19.4231 10.5112 20.0087 12.003 20.19L12.063 19.6939C10.676 19.5253 9.36042 18.9846 8.25574 18.1291C7.15106 17.2736 6.29843 16.1351 5.78821 14.8344ZM20.5919 8.76859L20.1319 8.96579C20.6793 10.2511 20.8688 11.6606 20.6802 13.0448C20.4916 14.429 19.9319 15.7364 19.0606 16.8284C18.4882 16.2742 17.7236 15.9627 16.9268 15.9592C16.1301 15.9557 15.3628 16.2603 14.7854 16.8094C14.2081 17.3586 13.8654 18.1096 13.8291 18.9056C13.7927 19.7015 14.0655 20.4807 14.5904 21.0802C15.1152 21.6797 15.8516 22.053 16.6453 22.1221C17.4391 22.1912 18.2289 21.9508 18.8495 21.4511C19.47 20.9514 19.8734 20.231 19.9752 19.4408C20.0769 18.6505 19.8692 17.8515 19.3955 17.2109C20.3453 16.0463 20.9588 14.6443 21.1696 13.1564C21.3805 11.6685 21.1807 10.1512 20.5919 8.76859ZM14.4642 6.53589C14.8005 7.13003 15.3279 7.59297 15.9605 7.8495C16.5932 8.10604 17.2941 8.14107 17.9492 7.94893C18.6043 7.75678 19.1752 7.34873 19.569 6.7911C19.9629 6.23347 20.1567 5.55903 20.1188 4.87737C20.0809 4.19571 19.8136 3.5469 19.3603 3.03637C18.907 2.52584 18.2944 2.1836 17.6221 2.06525C16.9497 1.94691 16.257 2.05942 15.6567 2.3845C15.0563 2.70959 14.5836 3.22814 14.3152 3.85589C12.8317 3.61588 11.3108 3.78571 9.91674 4.34703C8.5227 4.90835 7.30848 5.83983 6.40521 7.04089L6.80521 7.34169C7.64495 6.2251 8.77101 5.35637 10.0641 4.8275C11.3573 4.29862 12.7694 4.12927 14.1509 4.33739C13.9685 5.08324 14.0808 5.87068 14.4642 6.53589Z" fill="black"/>
</svg>
