<svg width="24" height="24" viewBox="0 0 24 24" fill="none" xmlns="http://www.w3.org/2000/svg">
<path d="M9.36384 18.364L9.71124 18.7114C10.0096 18.407 10.3657 18.1652 10.7587 18.0001C11.1517 17.835 11.5736 17.75 11.9999 17.75C12.4261 17.75 12.8481 17.835 13.2411 18.0001C13.6341 18.1652 13.9902 18.407 14.2885 18.7114L14.6358 18.364C14.2933 18.0115 13.8835 17.7313 13.4307 17.5399C12.9779 17.3486 12.4914 17.25 11.9998 17.25C11.5083 17.25 11.0217 17.3486 10.569 17.5399C10.1162 17.7313 9.70641 18.0115 9.36384 18.364ZM6.46924 15.4694L6.82384 15.8239C7.50143 15.1404 8.3077 14.5978 9.1961 14.2276C10.0845 13.8573 11.0374 13.6667 11.9999 13.6667C12.9624 13.6667 13.9153 13.8573 14.8037 14.2276C15.6921 14.5978 16.4983 15.1404 17.1759 15.8239L17.5306 15.4694C16.8062 14.7397 15.9446 14.1606 14.9954 13.7654C14.0462 13.3702 13.0281 13.1667 11.9999 13.1667C10.9717 13.1667 9.9537 13.3702 9.00448 13.7654C8.05527 14.1606 7.19364 14.7397 6.46924 15.4694ZM18.2175 8L18.3498 3H17.6498L17.7823 8H18.2175ZM17.9998 9.6C17.9207 9.6 17.8434 9.62346 17.7776 9.66741C17.7118 9.71136 17.6606 9.77384 17.6303 9.84693C17.6 9.92002 17.5921 10.0004 17.6075 10.078C17.623 10.1556 17.6611 10.2269 17.717 10.2828C17.7729 10.3388 17.8442 10.3769 17.9218 10.3923C17.9994 10.4077 18.0798 10.3998 18.1529 10.3696C18.226 10.3393 18.2885 10.288 18.3324 10.2222C18.3764 10.1564 18.3998 10.0791 18.3998 10C18.3998 9.89391 18.3577 9.79217 18.2827 9.71716C18.2077 9.64214 18.1059 9.6 17.9998 9.6Z" fill="black"/>
</svg>
