<svg width="24" height="24" viewBox="0 0 24 24" fill="none" xmlns="http://www.w3.org/2000/svg">
<path d="M17.1618 15.1013C18.3522 13.6681 19.0027 11.8631 19 9.99999H17.5C17.5006 11.2856 17.1198 12.5424 16.4057 13.6115C15.6917 14.6806 14.6765 15.5138 13.4887 16.0056C12.301 16.4975 10.994 16.6259 9.73318 16.3746C8.47238 16.1234 7.31447 15.5037 6.406 14.5941L5.793 13.9811L7.5481 12.2261H3V16.7741L4.73 15.0441L5.343 15.6571C6.75142 17.0656 8.6347 17.898 10.6244 17.9914C12.6141 18.0848 14.5671 17.4324 16.1012 16.162L21.97 22.03L23.03 20.97L17.1618 15.1013ZM11 3.49999C11.8535 3.49946 12.6988 3.66756 13.4871 3.99463C14.2755 4.32171 14.9915 4.80131 15.594 5.40589L16.207 6.01889L14.4519 7.77399H19V3.22599L17.27 4.95599L16.657 4.34299C15.5382 3.22411 14.1127 2.46214 12.5608 2.15343C11.0089 1.84473 9.40034 2.00315 7.93849 2.60868C6.47665 3.2142 5.2272 4.23963 4.34815 5.55528C3.4691 6.87092 2.99994 8.4177 3 9.99999H4.5C4.50196 8.27668 5.18741 6.62452 6.40597 5.40596C7.62453 4.1874 9.27669 3.50195 11 3.49999Z" fill="black"/>
</svg>
