<svg width="24" height="24" viewBox="0 0 24 24" fill="none" xmlns="http://www.w3.org/2000/svg">
<path d="M21.791 9.91599L21.084 9.20899L19 11.293L16.916 9.20899L16.209 9.91599L18.293 12L16.209 14.084L16.916 14.791L19 12.707L21.084 14.791L21.791 14.084L19.707 12L21.791 9.91599ZM6.55179 1.47559V11.0586L1.41109 7.57999L0.851086 8.40809L6.15919 12L0.850586 15.5918L1.41109 16.4199L6.55179 12.9414V22.5244L15.0254 16.791L7.94429 12L15.0254 7.20899L6.55179 1.47559ZM13.24 16.791L7.55179 20.64V12.9424L13.24 16.791ZM7.55179 11.0576V3.35999L13.24 7.20899L7.55179 11.0576Z" fill="black"/>
</svg>
