<svg width="24" height="24" viewBox="0 0 24 24" fill="none" xmlns="http://www.w3.org/2000/svg">
<path d="M6.46948 15.4694L6.82398 15.8239C7.50159 15.1404 8.30786 14.5978 9.19627 14.2276C10.0847 13.8573 11.0376 13.6667 12.0001 13.6667C12.9626 13.6667 13.9155 13.8573 14.8039 14.2276C15.6923 14.5978 16.4986 15.1404 17.1762 15.8239L17.5308 15.4694C16.8064 14.7397 15.9448 14.1606 14.9956 13.7654C14.0464 13.3702 13.0283 13.1667 12.0001 13.1667C10.9719 13.1667 9.9539 13.3702 9.00469 13.7654C8.05549 14.1606 7.19387 14.7397 6.46948 15.4694ZM9.36408 18.364L9.71148 18.7114C10.0099 18.407 10.366 18.1652 10.7589 18.0001C11.1519 17.835 11.5739 17.75 12.0001 17.75C12.4264 17.75 12.8483 17.835 13.2413 18.0001C13.6343 18.1652 13.9904 18.407 14.2888 18.7114L14.6361 18.364C14.2935 18.0115 13.8837 17.7313 13.4309 17.5399C12.9782 17.3486 12.4916 17.25 12.0001 17.25C11.5085 17.25 11.022 17.3486 10.5692 17.5399C10.1164 17.7313 9.70665 18.0115 9.36408 18.364Z" fill="black"/>
</svg>
