<svg width="24" height="24" viewBox="0 0 24 24" fill="none" xmlns="http://www.w3.org/2000/svg">
<path d="M5 15H3V17H5V15ZM5 11H3V13H5V11ZM5 7H3V9H5V7ZM17 3H15V5H17V3ZM13 3H11V5H13V3ZM9 3H7V5H9V3ZM19 3V19H3V21H21V3H19ZM5 3H3V5H5V3ZM9 13.5858V15H10.4142L13.6365 11.7778L12.2222 10.3636L9 13.5858ZM15.0759 10.3383C15.1978 10.2164 15.2663 10.0511 15.2663 9.8787C15.2663 9.70632 15.1978 9.541 15.0759 9.4191L14.5809 8.9241C14.5205 8.86373 14.4489 8.81585 14.37 8.78318C14.2911 8.7505 14.2066 8.73369 14.1213 8.73369C14.0359 8.73369 13.9514 8.7505 13.8725 8.78318C13.7936 8.81585 13.722 8.86373 13.6616 8.9241L13.0707 9.5151L14.4849 10.9293L15.0759 10.3383Z" fill="black"/>
</svg>
