<svg width="24" height="24" viewBox="0 0 24 24" fill="none" xmlns="http://www.w3.org/2000/svg">
<path d="M19.2709 5H16V3C16 2.46957 15.7893 1.96086 15.4142 1.58579C15.0391 1.21071 14.5304 1 14 1H10C9.46957 1 8.96086 1.21071 8.58579 1.58579C8.21071 1.96086 8 2.46957 8 3V5H3V7H4.91L6.265 22H17.735L19.09 7H21V5H19.2709ZM10 3H14V5H10V3ZM15.9077 20H8.0923L6.918 7H17.082L15.9077 20ZM13.8716 9.9966L12 11.8682L10.1284 9.9966L8.9966 11.1284L10.8682 13L8.9966 14.8716L10.1284 16.0034L12 14.1318L13.8716 16.0034L15.0034 14.8716L13.1318 13L15.0034 11.1284L13.8716 9.9966Z" fill="black"/>
</svg>
