<svg width="24" height="24" viewBox="0 0 24 24" fill="none" xmlns="http://www.w3.org/2000/svg">
<path d="M7.375 21H7.875V20.5H7.375V21ZM9.5625 21H10.0625V20.5H9.5625V21ZM18.3125 21H18.8125V20.5H18.3125V21ZM16.125 21H16.625V20.5H16.125V21ZM13.9375 21H14.4375V20.5H13.9375V21ZM5.1875 21H5.6875V20.5H5.1875V21ZM7.875 3H7.375V3.5H7.875V3ZM10.0625 3H9.5625V3.5H10.0625V3ZM18.8125 3H18.3125V3.5H18.8125V3ZM16.625 3H16.125V3.5H16.625V3ZM14.4375 3H13.9375V3.5H14.4375V3ZM5.6875 3H5.1875V3.5H5.6875V3ZM20.5 16.625H21V16.125H20.5V16.625ZM20.5 14.4375H21V13.9375H20.5V14.4375ZM20.5 5.6875H21V5.1875H20.5V5.6875ZM20.5 7.875H21V7.375H20.5V7.875ZM20.5 10.0625H21V9.5625H20.5V10.0625ZM20.5 18.8125H21V18.3125H20.5V18.8125ZM20.5 3V3.5H21V3H20.5ZM20.5 21H21V20.5H20.5V21ZM3 16.625H3.5V16.125H3V16.625ZM3 14.4375H3.5V13.9375H3V14.4375ZM3.5 5.1875H3V5.6875H3.5V5.1875ZM3.5 7.375H3V7.875H3.5V7.375ZM3.5 9.5625H3V10.0625H3.5V9.5625ZM3 18.8125H3.5V18.3125H3V18.8125ZM3.5 3H3V3.5H3.5V3ZM12.25 3H11.75V11.75H3V12.25H11.75V21H12.25V12.25H21V11.75H12.25V3ZM3 21H3.5V20.5H3V21Z" fill="black"/>
</svg>
