<svg width="24" height="24" viewBox="0 0 24 24" fill="none" xmlns="http://www.w3.org/2000/svg">
<path d="M10.2313 18.2068C10.4686 18.2068 10.7006 18.1364 10.898 18.0046C11.0953 17.8727 11.2491 17.6853 11.34 17.466C11.4308 17.2467 11.4545 17.0055 11.4082 16.7727C11.3619 16.5399 11.2477 16.3261 11.0798 16.1583C10.912 15.9904 10.6982 15.8762 10.4654 15.8299C10.2326 15.7836 9.99135 15.8073 9.77208 15.8981C9.55281 15.989 9.36539 16.1428 9.23354 16.3401C9.10168 16.5375 9.0313 16.7695 9.0313 17.0068C9.0313 17.3251 9.15773 17.6303 9.38277 17.8553C9.60782 18.0804 9.91304 18.2068 10.2313 18.2068ZM13.7687 18.2068C14.006 18.2068 14.238 18.1364 14.4354 18.0046C14.6327 17.8727 14.7865 17.6853 14.8774 17.466C14.9682 17.2467 14.9919 17.0055 14.9456 16.7727C14.8993 16.5399 14.7851 16.3261 14.6172 16.1583C14.4494 15.9904 14.2356 15.8762 14.0028 15.8299C13.77 15.7836 13.5288 15.8073 13.3095 15.8981C13.0902 15.989 12.9028 16.1428 12.7709 16.3401C12.6391 16.5375 12.5687 16.7695 12.5687 17.0068C12.5687 17.3251 12.6951 17.6303 12.9202 17.8553C13.1452 18.0804 13.4504 18.2068 13.7687 18.2068ZM10.2313 14.5958C10.4686 14.5958 10.7006 14.5254 10.898 14.3936C11.0953 14.2617 11.2491 14.0743 11.34 13.855C11.4308 13.6357 11.4545 13.3945 11.4082 13.1617C11.3619 12.9289 11.2477 12.7151 11.0798 12.5473C10.912 12.3794 10.6982 12.2652 10.4654 12.2189C10.2326 12.1726 9.99135 12.1963 9.77208 12.2871C9.55281 12.378 9.36539 12.5318 9.23354 12.7291C9.10168 12.9265 9.0313 13.1585 9.0313 13.3958C9.0313 13.7141 9.15773 14.0193 9.38277 14.2443C9.60782 14.4694 9.91304 14.5958 10.2313 14.5958ZM13.7687 14.5958C14.006 14.5958 14.238 14.5254 14.4354 14.3936C14.6327 14.2617 14.7865 14.0743 14.8774 13.855C14.9682 13.6357 14.9919 13.3945 14.9456 13.1617C14.8993 12.9289 14.7851 12.7151 14.6172 12.5473C14.4494 12.3794 14.2356 12.2652 14.0028 12.2189C13.77 12.1726 13.5288 12.1963 13.3095 12.2871C13.0902 12.378 12.9028 12.5318 12.7709 12.7291C12.6391 12.9265 12.5687 13.1585 12.5687 13.3958C12.5687 13.7141 12.6951 14.0193 12.9202 14.2443C13.1452 14.4694 13.4504 14.5958 13.7687 14.5958ZM10.2313 10.9848C10.4686 10.9848 10.7006 10.9144 10.898 10.7826C11.0953 10.6507 11.2491 10.4633 11.34 10.244C11.4308 10.0247 11.4545 9.78347 11.4082 9.55069C11.3619 9.31791 11.2477 9.10409 11.0798 8.93627C10.912 8.76845 10.6982 8.65416 10.4654 8.60786C10.2326 8.56156 9.99135 8.58532 9.77208 8.67614C9.55281 8.76697 9.36539 8.92078 9.23354 9.11812C9.10168 9.31545 9.0313 9.54746 9.0313 9.7848C9.0313 10.1031 9.15773 10.4083 9.38277 10.6333C9.60782 10.8584 9.91304 10.9848 10.2313 10.9848ZM13.7687 10.9848C14.006 10.9848 14.238 10.9144 14.4354 10.7826C14.6327 10.6507 14.7865 10.4633 14.8774 10.244C14.9682 10.0247 14.9919 9.78347 14.9456 9.55069C14.8993 9.31791 14.7851 9.10409 14.6172 8.93627C14.4494 8.76845 14.2356 8.65416 14.0028 8.60786C13.77 8.56156 13.5288 8.58532 13.3095 8.67614C13.0902 8.76697 12.9028 8.92078 12.7709 9.11812C12.6391 9.31545 12.5687 9.54746 12.5687 9.7848C12.5687 10.1031 12.6951 10.4083 12.9202 10.6333C13.1452 10.8584 13.4504 10.9848 13.7687 10.9848ZM16 5V3C16 2.46957 15.7893 1.96086 15.4142 1.58579C15.0391 1.21071 14.5304 1 14 1H10C9.46957 1 8.96086 1.21071 8.58579 1.58579C8.21071 1.96086 8 2.46957 8 3V5H3V6.5H4.8647L6.2647 22H17.7347L19.1347 6.5H21V5H16ZM9.5 3C9.50016 2.86744 9.55289 2.74036 9.64662 2.64662C9.74036 2.55289 9.86744 2.50016 10 2.5H14C14.1326 2.50016 14.2596 2.55289 14.3534 2.64662C14.4471 2.74036 14.4998 2.86744 14.5 3V5H9.5V3ZM16.3645 20.5H7.6355L6.3708 6.5H17.6293L16.3645 20.5Z" fill="black"/>
</svg>
