<svg width="24" height="24" viewBox="0 0 24 24" fill="none" xmlns="http://www.w3.org/2000/svg">
<path d="M3.87918 12.8792L4.93618 13.9362C5.86215 13.0056 6.96287 12.2672 8.17511 11.7633C9.38734 11.2594 10.6872 11 12 11C13.3128 11 14.6126 11.2594 15.8249 11.7633C17.0371 12.2672 18.1378 13.0056 19.0638 13.9362L20.1208 12.8792C19.0568 11.8083 17.7916 10.9585 16.3979 10.3785C15.0042 9.79856 13.5095 9.5 12 9.5C10.4904 9.5 8.99577 9.79856 7.60207 10.3785C6.20836 10.9585 4.94312 11.8083 3.87918 12.8792ZM7.09738 16.0974L8.14888 17.1489C8.65267 16.6397 9.25243 16.2355 9.91347 15.9596C10.5745 15.6838 11.2837 15.5417 12 15.5417C12.7163 15.5417 13.4255 15.6838 14.0865 15.9596C14.7475 16.2355 15.3473 16.6397 15.8511 17.1489L16.9026 16.0974C16.2628 15.4464 15.4998 14.9294 14.6581 14.5764C13.8163 14.2235 12.9127 14.0417 12 14.0417C11.0872 14.0417 10.1836 14.2235 9.34191 14.5764C8.50017 14.9294 7.73715 15.4464 7.09738 16.0974ZM12 5.00001C9.89843 4.99729 7.81705 5.40989 5.87547 6.21413C3.93388 7.01836 2.17037 8.19836 0.686279 9.68631L1.76198 10.762C3.10301 9.41142 4.69803 8.33952 6.45513 7.60805C8.21223 6.87658 10.0967 6.49999 12 6.49999C13.9033 6.49999 15.7877 6.87658 17.5448 7.60805C19.3019 8.33952 20.8969 9.41142 22.238 10.762L23.3137 9.68631C21.8296 8.19836 20.0661 7.01836 18.1245 6.21413C16.1829 5.40989 14.1015 4.99729 12 5.00001ZM10.3084 19.3084L12 21L13.6916 19.3084C13.4734 19.0793 13.211 18.8969 12.9202 18.7722C12.6294 18.6476 12.3164 18.5833 12 18.5833C11.6836 18.5833 11.3705 18.6476 11.0797 18.7722C10.789 18.8969 10.5265 19.0793 10.3084 19.3084Z" fill="black"/>
</svg>
