<svg width="24" height="24" viewBox="0 0 24 24" fill="none" xmlns="http://www.w3.org/2000/svg">
<path d="M12 2C10.0222 2 8.08879 2.58649 6.4443 3.6853C4.79981 4.78412 3.51809 6.3459 2.76121 8.17317C2.00433 10.0004 1.8063 12.0111 2.19215 13.9509C2.578 15.8907 3.53041 17.6725 4.92894 19.0711C6.32746 20.4696 8.10929 21.422 10.0491 21.8079C11.9889 22.1937 13.9996 21.9957 15.8268 21.2388C17.6541 20.4819 19.2159 19.2002 20.3147 17.5557C21.4135 15.9112 22 13.9778 22 12C22 10.6868 21.7413 9.38642 21.2388 8.17317C20.7363 6.95991 19.9997 5.85752 19.0711 4.92893C18.1425 4.00035 17.0401 3.26375 15.8268 2.7612C14.6136 2.25866 13.3132 2 12 2ZM7 12.85C6.83189 12.85 6.66755 12.8001 6.52777 12.7067C6.38799 12.6133 6.27904 12.4806 6.21471 12.3253C6.15037 12.17 6.13354 11.9991 6.16634 11.8342C6.19913 11.6693 6.28009 11.5178 6.39896 11.399C6.51784 11.2801 6.66929 11.1991 6.83418 11.1663C6.99906 11.1335 7.16997 11.1504 7.32529 11.2147C7.4806 11.279 7.61335 11.388 7.70675 11.5278C7.80015 11.6675 7.85 11.8319 7.85 12C7.85 12.2254 7.76045 12.4416 7.60105 12.601C7.44164 12.7604 7.22544 12.85 7 12.85ZM12 12.85C11.8319 12.85 11.6676 12.8001 11.5278 12.7067C11.388 12.6133 11.279 12.4806 11.2147 12.3253C11.1504 12.17 11.1335 11.9991 11.1663 11.8342C11.1991 11.6693 11.2801 11.5178 11.399 11.399C11.5178 11.2801 11.6693 11.1991 11.8342 11.1663C11.9991 11.1335 12.17 11.1504 12.3253 11.2147C12.4806 11.279 12.6134 11.388 12.7068 11.5278C12.8002 11.6675 12.85 11.8319 12.85 12C12.85 12.2254 12.7605 12.4416 12.601 12.601C12.4416 12.7604 12.2254 12.85 12 12.85ZM17 12.85C16.8319 12.85 16.6676 12.8001 16.5278 12.7067C16.388 12.6133 16.279 12.4806 16.2147 12.3253C16.1504 12.17 16.1335 11.9991 16.1663 11.8342C16.1991 11.6693 16.2801 11.5178 16.399 11.399C16.5178 11.2801 16.6693 11.1991 16.8342 11.1663C16.9991 11.1335 17.17 11.1504 17.3253 11.2147C17.4806 11.279 17.6134 11.388 17.7068 11.5278C17.8002 11.6675 17.85 11.8319 17.85 12C17.85 12.2254 17.7605 12.4416 17.601 12.601C17.4416 12.7604 17.2254 12.85 17 12.85Z" fill="black"/>
</svg>
