<svg width="24" height="24" viewBox="0 0 24 24" fill="none" xmlns="http://www.w3.org/2000/svg">
<path d="M16.6765 7.3234C16.3006 6.08326 15.6098 4.96168 14.6714 4.06799C13.733 3.1743 12.5791 2.53899 11.3221 2.224C10.0651 1.90901 8.74793 1.92508 7.49899 2.27065C6.25006 2.61621 5.11197 3.27949 4.19567 4.19581C3.27936 5.11213 2.61611 6.25024 2.27057 7.49918C1.92503 8.74812 1.90899 10.0653 2.22401 11.3223C2.53903 12.5793 3.17436 13.7332 4.06807 14.6716C4.96178 15.6099 6.08338 16.3007 7.32353 16.6766C7.69944 17.9167 8.39026 19.0383 9.32865 19.932C10.267 20.8257 11.421 21.461 12.678 21.776C13.935 22.091 15.2521 22.0749 16.5011 21.7294C17.75 21.3838 18.8881 20.7205 19.8044 19.8042C20.7207 18.8879 21.3839 17.7498 21.7295 16.5008C22.075 15.2519 22.0911 13.9347 21.776 12.6777C21.461 11.4207 20.8257 10.2668 19.932 9.32845C19.0383 8.39009 17.9167 7.69929 16.6765 7.3234ZM3.00003 9.5C2.99942 7.99037 3.52452 6.52764 4.48514 5.36308C5.44575 4.19851 6.78191 3.4048 8.26411 3.11828C9.7463 2.83176 11.282 3.07033 12.6074 3.79299C13.9329 4.51565 14.9653 5.6773 15.5273 7.0784C14.3788 6.91002 13.2069 7.01244 12.105 7.37749C11.0031 7.74255 10.0018 8.36012 9.181 9.18093C8.36021 10.0017 7.74266 11.003 7.37764 12.1049C7.01261 13.2068 6.91021 14.3788 7.07863 15.5273C5.87559 15.0434 4.84457 14.2111 4.11785 13.1372C3.39114 12.0633 3.00188 10.7967 3.00003 9.5ZM14.5 21C13.2033 20.9982 11.9368 20.6089 10.8629 19.8823C9.78894 19.1556 8.95663 18.1246 8.47273 16.9216C9.62123 17.09 10.7932 16.9876 11.8951 16.6225C12.997 16.2575 13.9983 15.6399 14.819 14.8191C15.6398 13.9983 16.2574 12.997 16.6224 11.8951C16.9874 10.7932 17.0898 9.6212 16.9214 8.4727C18.3226 9.03466 19.4844 10.067 20.2071 11.3925C20.9299 12.7179 21.1685 14.2537 20.882 15.7359C20.5955 17.2182 19.8017 18.5544 18.6371 19.515C17.4725 20.4756 16.0097 21.0007 14.5 21Z" fill="black"/>
</svg>
