<svg width="24" height="24" viewBox="0 0 24 24" fill="none" xmlns="http://www.w3.org/2000/svg">
<path d="M2 4V20H22V4H2ZM21.5 19.5H2.5V4.5H21.5V19.5ZM12 6.4571L13.7678 8.2249L14.1213 7.8713L12 5.75L9.8787 7.8713L10.2322 8.2249L12 6.4571ZM14.1213 16.1287L13.7678 15.7751L12 17.5429L10.2322 15.7751L9.8787 16.1287L12 18.25L14.1213 16.1287ZM17.8787 14.1213L20 12L17.8787 9.8787L17.5251 10.2322L19.293 12L17.5251 13.7678L17.8787 14.1213ZM6.4749 13.7678L4.707 12L6.4749 10.2322L6.1213 9.8787L4 12L6.1213 14.1213L6.4749 13.7678Z" fill="black"/>
</svg>
