<svg width="24" height="24" viewBox="0 0 24 24" fill="none" xmlns="http://www.w3.org/2000/svg">
<path d="M11.2929 12.2929C11.1293 12.4565 11.0275 12.6718 11.0048 12.902C10.9821 13.1323 11.04 13.3632 11.1685 13.5556C11.2971 13.748 11.4883 13.8898 11.7097 13.957C11.9311 14.0241 12.169 14.0124 12.3827 13.9239C12.5965 13.8353 12.7729 13.6754 12.8819 13.4713C12.991 13.2673 13.0259 13.0317 12.9808 12.8048C12.9356 12.5779 12.8132 12.3737 12.6343 12.2269C12.4554 12.0802 12.2312 12 11.9999 12C11.8685 11.9998 11.7385 12.0256 11.6171 12.0759C11.4958 12.1262 11.3856 12.1999 11.2929 12.2929ZM11.9999 7.4907C10.9102 7.49068 9.84505 7.81378 8.93905 8.41914C8.03304 9.0245 7.32689 9.88494 6.90991 10.8916C6.49293 11.8983 6.38383 13.0061 6.59643 14.0748C6.80902 15.1435 7.33376 16.1251 8.10427 16.8956L9.16627 15.8336C8.60516 15.273 8.22292 14.5587 8.0679 13.7808C7.91288 13.003 7.99204 12.1967 8.29538 11.4638C8.59872 10.731 9.1126 10.1046 9.77201 9.66386C10.4314 9.22314 11.2067 8.98789 11.9999 8.98789C12.793 8.98789 13.5683 9.22314 14.2277 9.66386C14.8871 10.1046 15.401 10.731 15.7044 11.4638C16.0077 12.1967 16.0869 13.003 15.9318 13.7808C15.7768 14.5587 15.3946 15.273 14.8335 15.8336L15.8955 16.8956C16.666 16.1251 17.1907 15.1435 17.4033 14.0748C17.6159 13.0061 17.5068 11.8983 17.0898 10.8916C16.6728 9.88494 15.9667 9.0245 15.0607 8.41914C14.1547 7.81378 13.0895 7.49068 11.9999 7.4907ZM11.9999 3C10.0221 3.00003 8.0887 3.58653 6.44424 4.68535C4.79977 5.78416 3.51807 7.34594 2.7612 9.17318C2.00434 11.0004 1.8063 13.0111 2.19214 14.9509C2.57799 16.8907 3.53037 18.6725 4.92887 20.071L5.99227 19.0076C4.80273 17.8192 3.99239 16.3046 3.66378 14.6556C3.33516 13.0065 3.50302 11.297 4.14613 9.74341C4.78924 8.18978 5.87871 6.86179 7.2767 5.92745C8.67469 4.9931 10.3184 4.49439 11.9999 4.49439C13.6813 4.49439 15.3251 4.9931 16.723 5.92745C18.121 6.86179 19.2105 8.18978 19.8536 9.74341C20.4967 11.297 20.6646 13.0065 20.336 14.6556C20.0073 16.3046 19.197 17.8192 18.0075 19.0076L19.0709 20.071C20.4694 18.6725 21.4218 16.8907 21.8076 14.9509C22.1934 13.0111 21.9954 11.0004 21.2385 9.17318C20.4817 7.34594 19.2 5.78416 17.5555 4.68535C15.911 3.58653 13.9777 3.00003 11.9999 3Z" fill="black"/>
</svg>
