<svg width="24" height="24" viewBox="0 0 24 24" fill="none" xmlns="http://www.w3.org/2000/svg">
<path d="M21.9326 10.0576L20.9426 9.06762L19 11.01L17.0576 9.06742L16.0676 10.0574L18.01 12L16.0676 13.9424L17.0576 14.9324L19 12.99L20.9424 14.9324L21.9324 13.9424L19.99 12L21.9326 10.0576ZM6.61519 1.54352V10.5869L1.68259 7.25002L0.84259 8.49222L6.02639 12L0.84279 15.5078L1.68279 16.75L6.61539 13.4131V22.457L15.3859 16.5215L8.70309 12L15.3857 7.47802L6.61519 1.54352ZM12.71 16.5215L8.11519 19.6309V13.4131L12.71 16.5215ZM8.11519 10.5869V4.37002L12.71 7.47802L8.11519 10.5869Z" fill="black"/>
</svg>
