<svg width="24" height="24" viewBox="0 0 24 24" fill="none" xmlns="http://www.w3.org/2000/svg">
<path d="M12 2C10.0222 2 8.08879 2.58649 6.4443 3.6853C4.79981 4.78412 3.51809 6.3459 2.76121 8.17317C2.00433 10.0004 1.8063 12.0111 2.19215 13.9509C2.578 15.8907 3.53041 17.6725 4.92894 19.0711C6.32746 20.4696 8.10929 21.422 10.0491 21.8079C11.9889 22.1937 13.9996 21.9957 15.8268 21.2388C17.6541 20.4819 19.2159 19.2002 20.3147 17.5557C21.4135 15.9112 22 13.9778 22 12C21.9971 9.34874 20.9426 6.8069 19.0678 4.93218C17.1931 3.05745 14.6513 2.00294 12 2ZM14.3982 14.3981L7.2 16.8L9.6018 9.6019L16.8 7.2L14.3982 14.3981ZM12 13C12.1978 13 12.3911 12.9414 12.5556 12.8315C12.72 12.7216 12.8482 12.5654 12.9239 12.3827C12.9996 12.2 13.0194 11.9989 12.9808 11.8049C12.9422 11.6109 12.847 11.4327 12.7071 11.2929C12.5673 11.153 12.3891 11.0578 12.1951 11.0192C12.0011 10.9806 11.8 11.0004 11.6173 11.0761C11.4346 11.1518 11.2784 11.28 11.1685 11.4444C11.0587 11.6089 11 11.8022 11 12C11 12.2652 11.1054 12.5196 11.2929 12.7071C11.4804 12.8946 11.7348 13 12 13Z" fill="black"/>
</svg>
