<svg width="24" height="24" viewBox="0 0 24 24" fill="none" xmlns="http://www.w3.org/2000/svg">
<path d="M19.6386 10.71L22.4472 8.5529C21.9736 7.12138 21.2119 5.80202 20.2089 4.6761L16.9367 6.03L14.7019 4.74L14.2385 1.229C12.7619 0.923666 11.2385 0.923666 9.76192 1.229L9.29852 4.74L7.06372 6.03L3.79152 4.6761C2.78859 5.80202 2.02684 7.12138 1.55322 8.5529L4.36182 10.71V13.29L1.55322 15.4471C2.02684 16.8786 2.78859 18.198 3.79152 19.3239L7.06372 17.97L9.29852 19.26L9.76192 22.7708C11.2385 23.0761 12.7619 23.0761 14.2385 22.7708L14.7019 19.26L16.9367 17.97L20.2089 19.3241C21.2119 18.1982 21.9736 16.8788 22.4472 15.4473L19.6386 13.29V10.71ZM21.2539 15.7919C20.9124 16.6241 20.4605 17.4066 19.9102 18.1182L17.3186 17.0458L16.8631 16.8573L16.4363 17.1038L14.2015 18.3938L13.7745 18.6403L13.71 19.1289L13.3431 21.9089C12.4516 22.0293 11.548 22.0293 10.6565 21.9089L10.2896 19.1289L10.2251 18.6403L9.79812 18.3938L7.56332 17.1038L7.13652 16.8573L6.68102 17.0458L4.09022 18.1182C3.54007 17.4064 3.08824 16.6238 2.74692 15.7915L4.97132 14.0836L5.36222 13.7836V10.2167L4.97132 9.9167L2.74652 8.2084C3.088 7.37609 3.53996 6.59353 4.09022 5.8818L6.68142 6.9542L7.13692 7.1427L7.56372 6.8962L9.79852 5.6062L10.2255 5.3597L10.29 4.8711L10.6569 2.0911C11.5484 1.9707 12.452 1.9707 13.3435 2.0911L13.7104 4.8711L13.7749 5.3597L14.2019 5.6062L16.4367 6.8962L16.8635 7.1427L17.319 6.9542L19.9102 5.8818C20.4604 6.59355 20.9122 7.37611 21.2535 8.2084L19.0291 9.9164L18.6382 10.2164V13.783L19.0291 14.083L21.2539 15.7919ZM12.0002 8.5C11.308 8.5 10.6313 8.70527 10.0557 9.08986C9.48015 9.47444 9.03155 10.0211 8.76664 10.6606C8.50174 11.3002 8.43243 12.0039 8.56747 12.6828C8.70252 13.3618 9.03587 13.9854 9.52535 14.4749C10.0148 14.9644 10.6385 15.2977 11.3174 15.4327C11.9963 15.5678 12.7001 15.4985 13.3396 15.2336C13.9792 14.9687 14.5258 14.5201 14.9104 13.9445C15.295 13.3689 15.5002 12.6922 15.5002 12C15.4992 11.0721 15.1301 10.1824 14.4739 9.5263C13.8178 8.87015 12.9282 8.50106 12.0002 8.5ZM12.0002 14.5C11.5058 14.5 11.0224 14.3534 10.6113 14.0787C10.2002 13.804 9.87974 13.4135 9.69052 12.9567C9.5013 12.4999 9.4518 11.9972 9.54826 11.5123C9.64472 11.0273 9.88282 10.5819 10.2325 10.2322C10.5821 9.8826 11.0275 9.6445 11.5125 9.54804C11.9974 9.45157 12.5001 9.50108 12.9569 9.6903C13.4137 9.87952 13.8042 10.2 14.0789 10.6111C14.3536 11.0222 14.5002 11.5055 14.5002 12C14.4995 12.6628 14.2359 13.2983 13.7672 13.7669C13.2985 14.2356 12.663 14.4993 12.0002 14.5Z" fill="black"/>
</svg>
