<svg width="24" height="24" viewBox="0 0 24 24" fill="none" xmlns="http://www.w3.org/2000/svg">
<path d="M18 7.5C19.1935 7.5 20.3381 7.97411 21.182 8.81802C22.0259 9.66193 22.5 10.8065 22.5 12C22.5 13.1935 22.0259 14.3381 21.182 15.182C20.3381 16.0259 19.1935 16.5 18 16.5H6C4.80653 16.5 3.66193 16.0259 2.81802 15.182C1.97411 14.3381 1.5 13.1935 1.5 12C1.5 10.8065 1.97411 9.66193 2.81802 8.81802C3.66193 7.97411 4.80653 7.5 6 7.5H18ZM18 7H6C5.34339 7 4.69321 7.12933 4.08658 7.3806C3.47995 7.63188 2.92876 8.00017 2.46447 8.46447C1.52678 9.40215 1 10.6739 1 12C1 13.3261 1.52678 14.5979 2.46447 15.5355C2.92876 15.9998 3.47995 16.3681 4.08658 16.6194C4.69321 16.8707 5.34339 17 6 17H18C18.6566 17 19.3068 16.8707 19.9134 16.6194C20.52 16.3681 21.0712 15.9998 21.5355 15.5355C21.9998 15.0712 22.3681 14.52 22.6194 13.9134C22.8707 13.3068 23 12.6566 23 12C23 11.3434 22.8707 10.6932 22.6194 10.0866C22.3681 9.47996 21.9998 8.92876 21.5355 8.46447C21.0712 8.00017 20.52 7.63188 19.9134 7.3806C19.3068 7.12933 18.6566 7 18 7Z" fill="black"/>
</svg>
