<svg width="24" height="24" viewBox="0 0 24 24" fill="none" xmlns="http://www.w3.org/2000/svg">
<path d="M12.4999 12.4671V3H11.4999V12.4671C10.9129 12.5825 10.3843 12.8982 10.0043 13.3602C9.62426 13.8222 9.4165 14.4018 9.4165 15C9.4165 15.5982 9.62426 16.1778 10.0043 16.6398C10.3843 17.1018 10.9129 17.4175 11.4999 17.5329V21H12.4999V17.5329C13.0868 17.4175 13.6155 17.1018 13.9955 16.6398C14.3755 16.1778 14.5832 15.5982 14.5832 15C14.5832 14.4018 14.3755 13.8222 13.9955 13.3602C13.6155 12.8982 13.0868 12.5825 12.4999 12.4671ZM11.9999 16.65C11.6735 16.65 11.3545 16.5532 11.0832 16.3719C10.8118 16.1906 10.6003 15.9329 10.4755 15.6314C10.3506 15.3299 10.3179 14.9982 10.3816 14.6781C10.4452 14.358 10.6024 14.064 10.8331 13.8333C11.0639 13.6025 11.3579 13.4454 11.678 13.3817C11.998 13.318 12.3298 13.3507 12.6313 13.4756C12.9328 13.6005 13.1905 13.812 13.3718 14.0833C13.5531 14.3547 13.6499 14.6737 13.6499 15C13.6494 15.4375 13.4754 15.8568 13.166 16.1662C12.8567 16.4755 12.4373 16.6495 11.9999 16.65ZM19.4999 6.4671V3H18.4999V6.4671C17.9129 6.58251 17.3843 6.89819 17.0043 7.36019C16.6243 7.82218 16.4165 8.40181 16.4165 9C16.4165 9.59819 16.6243 10.1778 17.0043 10.6398C17.3843 11.1018 17.9129 11.4175 18.4999 11.5329V21H19.4999V11.5329C20.0868 11.4175 20.6155 11.1018 20.9955 10.6398C21.3755 10.1778 21.5832 9.59819 21.5832 9C21.5832 8.40181 21.3755 7.82218 20.9955 7.36019C20.6155 6.89819 20.0868 6.58251 19.4999 6.4671ZM18.9999 10.65C18.6735 10.65 18.3545 10.5532 18.0832 10.3719C17.8118 10.1906 17.6003 9.93293 17.4755 9.63143C17.3506 9.32993 17.3179 8.99817 17.3816 8.6781C17.4452 8.35803 17.6024 8.06403 17.8331 7.83327C18.0639 7.60252 18.3579 7.44537 18.678 7.3817C18.998 7.31804 19.3298 7.35071 19.6313 7.4756C19.9328 7.60048 20.1905 7.81197 20.3718 8.08331C20.5531 8.35465 20.6499 8.67366 20.6499 9C20.6494 9.43745 20.4754 9.85684 20.166 10.1662C19.8567 10.4755 19.4373 10.6495 18.9999 10.65ZM5.49986 6.4671V3H4.49986V6.4671C3.91291 6.58251 3.38425 6.89819 3.00426 7.36019C2.62426 7.82218 2.4165 8.40181 2.4165 9C2.4165 9.59819 2.62426 10.1778 3.00426 10.6398C3.38425 11.1018 3.91291 11.4175 4.49986 11.5329V21H5.49986V11.5329C6.08682 11.4175 6.61547 11.1018 6.99547 10.6398C7.37547 10.1778 7.58322 9.59819 7.58322 9C7.58322 8.40181 7.37547 7.82218 6.99547 7.36019C6.61547 6.89819 6.08682 6.58251 5.49986 6.4671ZM4.99986 10.65C4.67352 10.65 4.35451 10.5532 4.08317 10.3719C3.81183 10.1906 3.60035 9.93293 3.47546 9.63143C3.35058 9.32993 3.3179 8.99817 3.38157 8.6781C3.44523 8.35803 3.60238 8.06403 3.83314 7.83327C4.06389 7.60252 4.3579 7.44537 4.67797 7.3817C4.99803 7.31804 5.32979 7.35071 5.63129 7.4756C5.93279 7.60048 6.19048 7.81197 6.37179 8.08331C6.55309 8.35465 6.64986 8.67366 6.64986 9C6.64936 9.43745 6.47536 9.85684 6.16603 10.1662C5.85671 10.4755 5.43732 10.6495 4.99986 10.65Z" fill="black"/>
</svg>
