<svg width="24" height="24" viewBox="0 0 24 24" fill="none" xmlns="http://www.w3.org/2000/svg">
<path d="M21.6592 11.6182L22.812 10.8056C22.6426 10.2414 22.3441 9.72441 21.9402 9.2956L20.6602 9.8876L19.9988 9.5057L19.8714 8.1012C19.2982 7.9658 18.7014 7.9658 18.1282 8.1012L18.001 9.5061L17.3398 9.8879L16.0598 9.2959C15.656 9.72472 15.3576 10.2417 15.1884 10.8059L16.341 11.6183V12.382L15.1882 13.1945C15.3576 13.7587 15.6561 14.2757 16.06 14.7045L17.34 14.1125L18.0012 14.4943L18.1286 15.8989C18.7018 16.0343 19.2986 16.0343 19.8718 15.8989L19.9992 14.4944L20.6604 14.1126L21.9404 14.7046C22.3442 14.2758 22.6426 13.7588 22.8118 13.1946L21.6592 12.3821V11.6182ZM22.2734 13.3653C22.1601 13.6479 22.0071 13.9128 21.8191 14.1522L20.8491 13.7036L20.6375 13.6056L20.4353 13.7223L19.7739 14.1041L19.5718 14.2208L19.5508 14.4532L19.4543 15.5174C19.153 15.5607 18.847 15.5607 18.5457 15.5174L18.4492 14.4531L18.4282 14.2207L18.2261 14.104L17.5647 13.7222L17.3625 13.6055L17.1509 13.7035L16.1809 14.152C15.9927 13.9127 15.8397 13.6477 15.7266 13.3651L16.6 12.75L16.7907 12.6155V11.3855L16.6 11.25L15.7265 10.6345C15.8398 10.3519 15.9927 10.087 16.1808 9.8476L17.1508 10.2962L17.3624 10.3941L17.5646 10.2774L18.226 9.8956L18.4281 9.7789L18.4491 9.5465L18.5456 8.4823C18.8469 8.4391 19.1529 8.4391 19.4542 8.4823L19.5507 9.5465L19.5717 9.7789L19.7738 9.8956L20.4352 10.2775L20.6374 10.3942L20.849 10.2962L21.819 9.8476C22.0071 10.0869 22.1601 10.3518 22.2733 10.6344L21.4 11.25L21.2093 11.3844V12.6144L21.4 12.75L22.2734 13.3653ZM19 10.8157C18.7658 10.8157 18.5368 10.8852 18.342 11.0153C18.1473 11.1454 17.9955 11.3304 17.9058 11.5468C17.8162 11.7632 17.7927 12.0013 17.8384 12.231C17.8841 12.4608 17.9969 12.6718 18.1626 12.8374C18.3282 13.0031 18.5392 13.1159 18.7689 13.1615C18.9987 13.2072 19.2368 13.1838 19.4532 13.0942C19.6696 13.0045 19.8546 12.8527 19.9847 12.658C20.1148 12.4632 20.1843 12.2342 20.1843 12C20.1843 11.6859 20.0595 11.3847 19.8374 11.1626C19.6153 10.9405 19.3141 10.8157 19 10.8157ZM19 12.7343C18.8548 12.7343 18.7128 12.6912 18.5921 12.6105C18.4713 12.5298 18.3772 12.4151 18.3217 12.2809C18.2661 12.1468 18.2516 11.9991 18.2799 11.8567C18.3083 11.7143 18.3782 11.5834 18.4809 11.4807C18.5836 11.3781 18.7144 11.3081 18.8569 11.2798C18.9993 11.2515 19.1469 11.266 19.2811 11.3216C19.4153 11.3772 19.53 11.4713 19.6106 11.5921C19.6913 11.7128 19.7344 11.8548 19.7344 12C19.7341 12.1947 19.6567 12.3813 19.519 12.519C19.3813 12.6566 19.1947 12.7341 19 12.7343ZM6.48829 1.4082V11.5293L1.13999 7.91L0.859985 8.3242L6.29199 12L0.859985 15.6758L1.13919 16.0898L6.48788 12.4707V22.5918L14.6627 17.0605L7.18459 12L14.6631 6.94L6.48829 1.4082ZM13.7705 17.0605L6.98829 21.65V12.47L13.7705 17.0605ZM6.98829 11.5293V2.35L13.7705 6.94L6.98829 11.5293Z" fill="black"/>
</svg>
