<svg width="24" height="24" viewBox="0 0 24 24" fill="none" xmlns="http://www.w3.org/2000/svg">
<path d="M11.5 2.0253C8.89788 2.15168 6.44895 3.29302 4.67872 5.2044L11.5 10.928V2.0253ZM12.5 2.0253V12.1816L5.97002 19.9636C7.21653 20.9094 8.66777 21.5492 10.2068 21.8315C11.7459 22.1138 13.3297 22.0306 14.8307 21.5888C16.3318 21.1469 17.708 20.3586 18.8487 19.2875C19.9893 18.2164 20.8624 16.8923 21.3976 15.422C21.9329 13.9516 22.1153 12.3761 21.9302 10.8224C21.7451 9.26865 21.1976 7.78011 20.3319 6.47668C19.4662 5.17325 18.3065 4.09137 16.9461 3.31819C15.5858 2.54502 14.0629 2.10216 12.5 2.0253ZM4.03612 5.97C2.5344 7.94163 1.82191 10.4024 2.03791 12.8714C2.2539 15.3404 3.38286 17.6401 5.20412 19.321L11.2959 12.0616L4.03612 5.97Z" fill="black"/>
</svg>
