<svg width="24" height="24" viewBox="0 0 24 24" fill="none" xmlns="http://www.w3.org/2000/svg">
<path d="M7.73652 17.7363L8.09752 18.0972C8.607 17.5793 9.21446 17.168 9.88451 16.8872C10.5546 16.6065 11.2738 16.4619 12.0003 16.4619C12.7268 16.4619 13.446 16.6065 14.116 16.8872C14.7861 17.168 15.3935 17.5793 15.903 18.0972L16.2639 17.7363C15.7053 17.174 15.041 16.7278 14.3093 16.4233C13.5776 16.1188 12.7928 15.962 12.0002 15.962C11.2076 15.962 10.4229 16.1188 9.69115 16.4233C8.9594 16.7278 8.29511 17.174 7.73652 17.7363ZM12.0002 6.00001C9.89867 5.99729 7.81729 6.40989 5.87571 7.21413C3.93413 8.01836 2.17062 9.19836 0.686523 10.6863L1.05172 11.0516C2.48683 9.60908 4.19286 8.46437 6.07176 7.68325C7.95067 6.90214 9.96542 6.50003 12.0002 6.50003C14.035 6.50003 16.0498 6.90214 17.9287 7.68325C19.8076 8.46437 21.5136 9.60908 22.9487 11.0516L23.3139 10.6863C21.8298 9.19836 20.0663 8.01836 18.1247 7.21413C16.1832 6.40989 14.1018 5.99729 12.0002 6.00001ZM4.21922 14.219L4.57202 14.5718C5.54526 13.5923 6.7026 12.815 7.97744 12.2845C9.25228 11.7541 10.6194 11.481 12.0002 11.481C13.381 11.481 14.7482 11.7541 16.023 12.2845C17.2978 12.815 18.4552 13.5923 19.4284 14.5718L19.7812 14.219C18.7618 13.1929 17.5495 12.3785 16.2141 11.8228C14.8788 11.2671 13.4466 10.981 12.0002 10.981C10.5538 10.981 9.1217 11.2671 7.7863 11.8228C6.45091 12.3785 5.23862 13.1929 4.21922 14.219Z" fill="black"/>
</svg>
