<svg width="24" height="24" viewBox="0 0 24 24" fill="none" xmlns="http://www.w3.org/2000/svg">
<path d="M18 8C19.0609 8 20.0783 8.42143 20.8284 9.17157C21.5786 9.92172 22 10.9391 22 12C22 13.0609 21.5786 14.0783 20.8284 14.8284C20.0783 15.5786 19.0609 16 18 16H6C4.93913 16 3.92172 15.5786 3.17157 14.8284C2.42143 14.0783 2 13.0609 2 12C2 10.9391 2.42143 9.92172 3.17157 9.17157C3.92172 8.42143 4.93913 8 6 8H18ZM18 7H6C4.67392 7 3.40215 7.52678 2.46447 8.46447C1.52678 9.40215 1 10.6739 1 12C1 13.3261 1.52678 14.5979 2.46447 15.5355C3.40215 16.4732 4.67392 17 6 17H18C19.3261 17 20.5979 16.4732 21.5355 15.5355C22.4732 14.5979 23 13.3261 23 12C23 10.6739 22.4732 9.40215 21.5355 8.46447C20.5979 7.52678 19.3261 7 18 7Z" fill="black"/>
</svg>
