<svg width="24" height="24" viewBox="0 0 24 24" fill="none" xmlns="http://www.w3.org/2000/svg">
<path d="M20.7969 7.99999L18.3594 9.99999H15.5625V14H18.3594L20.7969 16H22V7.99999H20.7969ZM21.1 15.0845L18.93 13.3045L18.6814 13.1H16.4624V10.9H18.6814L18.9302 10.6957L21.1002 8.91569L21.1 15.0845ZM6.55179 1.47559V11.0586L1.41109 7.57999L0.851086 8.40809L6.15919 12L0.850586 15.5918L1.41109 16.4199L6.55179 12.9414V22.5244L15.0254 16.791L7.94429 12L15.0254 7.20899L6.55179 1.47559ZM13.24 16.791L7.55179 20.64V12.9424L13.24 16.791ZM7.55179 11.0576V3.35999L13.24 7.20899L7.55179 11.0576Z" fill="black"/>
</svg>
