<svg width="24" height="24" viewBox="0 0 24 24" fill="none" xmlns="http://www.w3.org/2000/svg">
<path d="M4.21852 14.2182L4.92922 14.929C5.85472 13.995 6.9561 13.2535 8.16976 12.7475C9.38343 12.2415 10.6853 11.981 12.0002 11.981C13.3151 11.981 14.617 12.2415 15.8307 12.7475C17.0443 13.2535 18.1457 13.995 19.0712 14.929L19.7819 14.2182C18.7623 13.1923 17.5498 12.3782 16.2143 11.8226C14.8788 11.267 13.4467 10.981 12.0002 10.981C10.5538 10.981 9.12162 11.267 7.78613 11.8226C6.45064 12.3782 5.23819 13.1923 4.21852 14.2182ZM7.74902 17.7487L8.45172 18.4515C8.91453 17.9798 9.46672 17.6052 10.076 17.3494C10.6853 17.0936 11.3395 16.9619 12.0003 16.9619C12.6611 16.9619 13.3152 17.0936 13.9245 17.3494C14.5338 17.6052 15.086 17.9798 15.5488 18.4515L16.2515 17.7487C15.6974 17.183 15.036 16.7336 14.306 16.4268C13.576 16.12 12.7921 15.9619 12.0003 15.9619C11.2084 15.9619 10.4245 16.12 9.69453 16.4268C8.96453 16.7336 8.30311 17.183 7.74902 17.7487ZM12.0002 6.00001C9.89867 5.99729 7.81729 6.40989 5.87571 7.21413C3.93413 8.01836 2.17062 9.19836 0.686523 10.6863L1.40882 11.4085C2.79627 10.0115 4.44639 8.90275 6.26415 8.14614C8.08191 7.38954 10.0314 7.00002 12.0003 7.00002C13.9693 7.00002 15.9187 7.38954 17.7365 8.14614C19.5543 8.90275 21.2044 10.0115 22.5918 11.4085L23.3139 10.6863C21.8298 9.19836 20.0663 8.01836 18.1247 7.21413C16.1832 6.40989 14.1018 5.99729 12.0002 6.00001Z" fill="black"/>
</svg>
