<svg width="24" height="24" viewBox="0 0 24 24" fill="none" xmlns="http://www.w3.org/2000/svg">
<path d="M22 12C21.9991 9.39229 20.979 6.88822 19.1574 5.02224C17.3358 3.15627 14.8569 2.07622 12.25 2.0126V0H11.75V2.0126C9.14064 2.07214 6.6582 3.15053 4.8338 5.01705C3.00939 6.88356 1.98792 9.38996 1.98792 12C1.98792 14.61 3.00939 17.1164 4.8338 18.983C6.6582 20.8495 9.14064 21.9279 11.75 21.9874V24H12.25V21.9874C14.8569 21.9238 17.3357 20.8437 19.1573 18.9777C20.979 17.1118 21.9991 14.6077 22 12ZM2.50001 12C2.50375 9.52574 3.47214 7.15046 5.1994 5.37887C6.92666 3.60728 9.27664 2.57903 11.75 2.5126V21.4874C9.27664 21.421 6.92666 20.3927 5.1994 18.6211C3.47214 16.8495 2.50375 14.4743 2.50001 12Z" fill="black"/>
</svg>
