<svg width="24" height="24" viewBox="0 0 24 24" fill="none" xmlns="http://www.w3.org/2000/svg">
<path d="M19.6386 10.71L22.4472 8.5529C21.9736 7.12138 21.2119 5.80202 20.2089 4.6761L16.9367 6.03L14.7019 4.74L14.2385 1.229C12.7619 0.923666 11.2385 0.923666 9.76192 1.229L9.29852 4.74L7.06372 6.03L3.79152 4.6761C2.78859 5.80202 2.02684 7.12138 1.55322 8.5529L4.36182 10.71V13.29L1.55322 15.4471C2.02684 16.8786 2.78859 18.198 3.79152 19.3239L7.06372 17.97L9.29852 19.26L9.76192 22.7708C11.2385 23.0761 12.7619 23.0761 14.2385 22.7708L14.7019 19.26L16.9367 17.97L20.2089 19.3241C21.2119 18.1982 21.9736 16.8788 22.4472 15.4473L19.6386 13.29V10.71ZM12.0002 15.5C11.308 15.5 10.6313 15.2947 10.0557 14.9101C9.48015 14.5256 9.03155 13.9789 8.76664 13.3394C8.50174 12.6999 8.43243 11.9961 8.56747 11.3172C8.70252 10.6383 9.03587 10.0146 9.52535 9.52513C10.0148 9.03564 10.6385 8.7023 11.3174 8.56725C11.9963 8.4322 12.7001 8.50152 13.3396 8.76642C13.9792 9.03133 14.5258 9.47993 14.9104 10.0555C15.295 10.6311 15.5002 11.3078 15.5002 12C15.4992 12.9279 15.1301 13.8176 14.4739 14.4737C13.8178 15.1299 12.9282 15.4989 12.0002 15.5Z" fill="black"/>
</svg>
