<svg width="24" height="24" viewBox="0 0 24 24" fill="none" xmlns="http://www.w3.org/2000/svg">
<path d="M16 5V3C16 2.46957 15.7893 1.96086 15.4142 1.58579C15.0391 1.21071 14.5304 1 14 1H10C9.46957 1 8.96086 1.21071 8.58579 1.58579C8.21071 1.96086 8 2.46957 8 3V5H3V6.5H21V5H16ZM14.5 5H9.5V3C9.50016 2.86744 9.55289 2.74036 9.64662 2.64662C9.74036 2.55289 9.86744 2.50016 10 2.5H14C14.1326 2.50016 14.2596 2.55289 14.3534 2.64662C14.4471 2.74036 14.4998 2.86744 14.5 3V5ZM6.2649 22H17.7349L19 8H5L6.2649 22ZM14.352 9.8244C14.5893 9.8244 14.8213 9.89478 15.0187 10.0266C15.216 10.1585 15.3698 10.3459 15.4607 10.5652C15.5515 10.7845 15.5752 11.0257 15.5289 11.2585C15.4826 11.4913 15.3684 11.7051 15.2005 11.8729C15.0327 12.0408 14.8189 12.155 14.5861 12.2013C14.3533 12.2476 14.1121 12.2239 13.8928 12.1331C13.6735 12.0422 13.4861 11.8884 13.3542 11.6911C13.2224 11.4937 13.152 11.2617 13.152 11.0244C13.152 10.7061 13.2784 10.4009 13.5035 10.1759C13.7285 9.95083 14.0337 9.8244 14.352 9.8244ZM14.352 13.7792C14.5893 13.7792 14.8213 13.8496 15.0187 13.9814C15.216 14.1133 15.3698 14.3007 15.4607 14.52C15.5515 14.7393 15.5752 14.9805 15.5289 15.2133C15.4826 15.4461 15.3684 15.6599 15.2005 15.8277C15.0327 15.9956 14.8189 16.1098 14.5861 16.1561C14.3533 16.2024 14.1121 16.1787 13.8928 16.0879C13.6735 15.997 13.4861 15.8432 13.3542 15.6459C13.2224 15.4485 13.152 15.2165 13.152 14.9792C13.152 14.6609 13.2784 14.3557 13.5035 14.1307C13.7285 13.9056 14.0337 13.7792 14.352 13.7792ZM14.352 17.7339C14.5893 17.7339 14.8213 17.8043 15.0187 17.9361C15.216 18.068 15.3698 18.2554 15.4607 18.4747C15.5515 18.694 15.5752 18.9352 15.5289 19.168C15.4826 19.4008 15.3684 19.6146 15.2005 19.7824C15.0327 19.9503 14.8189 20.0645 14.5861 20.1108C14.3533 20.1571 14.1121 20.1334 13.8928 20.0426C13.6735 19.9517 13.4861 19.7979 13.3542 19.6006C13.2224 19.4032 13.152 19.1712 13.152 18.9339C13.152 18.7763 13.183 18.6203 13.2433 18.4747C13.3036 18.3291 13.392 18.1968 13.5035 18.0854C13.6149 17.9739 13.7472 17.8856 13.8928 17.8252C14.0384 17.7649 14.1944 17.7339 14.352 17.7339ZM9.648 9.8244C9.88534 9.8244 10.1173 9.89478 10.3147 10.0266C10.512 10.1585 10.6658 10.3459 10.7567 10.5652C10.8475 10.7845 10.8712 11.0257 10.8249 11.2585C10.7786 11.4913 10.6644 11.7051 10.4965 11.8729C10.3287 12.0408 10.1149 12.155 9.88211 12.2013C9.64933 12.2476 9.40805 12.2239 9.18878 12.1331C8.96951 12.0422 8.78209 11.8884 8.65024 11.6911C8.51838 11.4937 8.448 11.2617 8.448 11.0244C8.448 10.7061 8.57443 10.4009 8.79947 10.1759C9.02452 9.95083 9.32974 9.8244 9.648 9.8244ZM9.648 13.7792C9.88534 13.7792 10.1173 13.8496 10.3147 13.9814C10.512 14.1133 10.6658 14.3007 10.7567 14.52C10.8475 14.7393 10.8712 14.9805 10.8249 15.2133C10.7786 15.4461 10.6644 15.6599 10.4965 15.8277C10.3287 15.9956 10.1149 16.1098 9.88211 16.1561C9.64933 16.2024 9.40805 16.1787 9.18878 16.0879C8.96951 15.997 8.78209 15.8432 8.65024 15.6459C8.51838 15.4485 8.448 15.2165 8.448 14.9792C8.448 14.6609 8.57443 14.3557 8.79947 14.1307C9.02452 13.9056 9.32974 13.7792 9.648 13.7792ZM9.648 17.7339C9.88534 17.7339 10.1173 17.8043 10.3147 17.9361C10.512 18.068 10.6658 18.2554 10.7567 18.4747C10.8475 18.694 10.8712 18.9352 10.8249 19.168C10.7786 19.4008 10.6644 19.6146 10.4965 19.7824C10.3287 19.9503 10.1149 20.0645 9.88211 20.1108C9.64933 20.1571 9.40805 20.1334 9.18878 20.0426C8.96951 19.9517 8.78209 19.7979 8.65024 19.6006C8.51838 19.4032 8.448 19.1712 8.448 18.9339C8.448 18.7763 8.47904 18.6203 8.53934 18.4747C8.59965 18.3291 8.68804 18.1968 8.79947 18.0854C8.9109 17.9739 9.04319 17.8856 9.18878 17.8252C9.33437 17.7649 9.49041 17.7339 9.648 17.7339Z" fill="black"/>
</svg>
