<svg width="24" height="24" viewBox="0 0 24 24" fill="none" xmlns="http://www.w3.org/2000/svg">
<path d="M10.3086 19.3084L12.0002 21L13.6918 19.3084C13.4737 19.0793 13.2112 18.8969 12.9205 18.7722C12.6297 18.6476 12.3166 18.5833 12.0002 18.5833C11.6839 18.5833 11.3708 18.6476 11.08 18.7722C10.7892 18.8969 10.5268 19.0793 10.3086 19.3084ZM12.0002 5.00002C9.89867 4.99729 7.81729 5.4099 5.87571 6.21413C3.93413 7.01836 2.17062 8.19836 0.686523 9.68632L1.76222 10.762C3.10367 9.41198 4.69876 8.34044 6.45577 7.60901C8.21278 6.87758 10.097 6.50069 12.0002 6.50002V5.00002ZM12.0002 9.50002C10.4905 9.49911 8.99562 9.79726 7.60179 10.3773C6.20795 10.9573 4.94282 11.8076 3.87942 12.8792L4.93642 13.9362C5.86234 13.0056 6.96305 12.2671 8.1753 11.7632C9.38754 11.2593 10.6874 10.9999 12.0002 11V9.50002ZM7.09762 16.0974L8.14912 17.1489C8.65291 16.6397 9.25268 16.2355 9.91371 15.9596C10.5747 15.6838 11.2839 15.5417 12.0002 15.5417C12.7165 15.5417 13.4257 15.6838 14.0867 15.9596C14.7478 16.2355 15.3475 16.6397 15.8513 17.1489L16.9028 16.0974C16.263 15.4464 15.5 14.9294 14.6583 14.5764C13.8166 14.2235 12.913 14.0417 12.0002 14.0417C11.0875 14.0417 10.1839 14.2235 9.34215 14.5764C8.50041 14.9294 7.7374 15.4464 7.09762 16.0974ZM18.7002 6.30002V3.55292H17.3002V6.30002H14.5531V7.70002H17.3002V10.4469H18.7002V7.70002H21.4471V6.30002H18.7002Z" fill="black"/>
</svg>
