<svg width="24" height="24" viewBox="0 0 24 24" fill="none" xmlns="http://www.w3.org/2000/svg">
<path d="M19.2 3H14.8C14.3226 3 13.8648 3.18964 13.5272 3.52721C13.1896 3.86477 13 4.32261 13 4.8V9.2C13 9.67739 13.1896 10.1352 13.5272 10.4728C13.8648 10.8104 14.3226 11 14.8 11H19.2C19.6774 11 20.1352 10.8104 20.4728 10.4728C20.8104 10.1352 21 9.67739 21 9.2V4.8C21 4.56362 20.9534 4.32956 20.863 4.11117C20.7725 3.89278 20.6399 3.69435 20.4728 3.52721C20.3056 3.36006 20.1072 3.22748 19.8888 3.13702C19.6704 3.04656 19.4364 3 19.2 3ZM9.2 3H4.8C4.32261 3 3.86477 3.18964 3.52721 3.52721C3.18964 3.86477 3 4.32261 3 4.8V9.2C3 9.67739 3.18964 10.1352 3.52721 10.4728C3.86477 10.8104 4.32261 11 4.8 11H9.2C9.67739 11 10.1352 10.8104 10.4728 10.4728C10.8104 10.1352 11 9.67739 11 9.2V4.8C11 4.32261 10.8104 3.86477 10.4728 3.52721C10.1352 3.18964 9.67739 3 9.2 3ZM19.2 13H14.8C14.3226 13 13.8648 13.1896 13.5272 13.5272C13.1896 13.8648 13 14.3226 13 14.8V19.2C13 19.6774 13.1896 20.1352 13.5272 20.4728C13.8648 20.8104 14.3226 21 14.8 21H19.2C19.4364 21 19.6704 20.9534 19.8888 20.863C20.1072 20.7725 20.3056 20.6399 20.4728 20.4728C20.6399 20.3056 20.7725 20.1072 20.863 19.8888C20.9534 19.6704 21 19.4364 21 19.2V14.8C21 14.5636 20.9534 14.3296 20.863 14.1112C20.7725 13.8928 20.6399 13.6944 20.4728 13.5272C20.3056 13.3601 20.1072 13.2275 19.8888 13.137C19.6704 13.0466 19.4364 13 19.2 13ZM9.2 13H4.8C4.32261 13 3.86477 13.1896 3.52721 13.5272C3.18964 13.8648 3 14.3226 3 14.8V19.2C3 19.6774 3.18964 20.1352 3.52721 20.4728C3.86477 20.8104 4.32261 21 4.8 21H9.2C9.43638 21 9.67044 20.9534 9.88883 20.863C10.1072 20.7725 10.3056 20.6399 10.4728 20.4728C10.6399 20.3056 10.7725 20.1072 10.863 19.8888C10.9534 19.6704 11 19.4364 11 19.2V14.8C11 14.3226 10.8104 13.8648 10.4728 13.5272C10.1352 13.1896 9.67739 13 9.2 13Z" fill="black"/>
</svg>
