<svg width="24" height="24" viewBox="0 0 24 24" fill="none" xmlns="http://www.w3.org/2000/svg">
<path d="M21.076 16.207L20.5808 15.7116C20.442 15.5729 20.2538 15.4949 20.0576 15.4949C19.8614 15.4949 19.6732 15.5729 19.5344 15.7116L15 20.2461V21.7877H16.5416L21.076 17.2532C21.2147 17.1144 21.2926 16.9263 21.2926 16.7301C21.2926 16.5339 21.2147 16.3458 21.076 16.207ZM16.3345 21.2877H15.5V20.4532L18.885 17.0682L19.7195 17.9027L16.3345 21.2877ZM20.7225 16.8997L20.073 17.5491L19.2385 16.7146L19.8879 16.0652C19.9329 16.0202 19.9939 15.995 20.0576 15.995C20.1212 15.995 20.1822 16.0202 20.2272 16.0652L20.7225 16.5606C20.7674 16.6056 20.7927 16.6666 20.7927 16.7302C20.7927 16.7938 20.7674 16.8548 20.7225 16.8998V16.8997ZM19 5H5V5.5H19V5ZM19 11.75H5V12.25H19V11.75ZM5 19H13V18.5H5V19Z" fill="black"/>
</svg>
