<svg width="24" height="24" viewBox="0 0 24 24" fill="none" xmlns="http://www.w3.org/2000/svg">
<path d="M18 7H6C4.67392 7 3.40215 7.52678 2.46447 8.46447C1.52678 9.40215 1 10.6739 1 12C1 13.3261 1.52678 14.5979 2.46447 15.5355C3.40215 16.4732 4.67392 17 6 17H18C19.3261 17 20.5979 16.4732 21.5355 15.5355C22.4732 14.5979 23 13.3261 23 12C23 10.6739 22.4732 9.40215 21.5355 8.46447C20.5979 7.52678 19.3261 7 18 7ZM18 16.5H6C4.80653 16.5 3.66193 16.0259 2.81802 15.182C1.97411 14.3381 1.5 13.1935 1.5 12C1.5 10.8065 1.97411 9.66193 2.81802 8.81802C3.66193 7.97411 4.80653 7.5 6 7.5H18C19.1935 7.5 20.3381 7.97411 21.182 8.81802C22.0259 9.66193 22.5 10.8065 22.5 12C22.5 13.1935 22.0259 14.3381 21.182 15.182C20.3381 16.0259 19.1935 16.5 18 16.5ZM7 12.25H17V11.75H7V12.25Z" fill="black"/>
</svg>
