<svg width="24" height="24" viewBox="0 0 24 24" fill="none" xmlns="http://www.w3.org/2000/svg">
<path d="M3.71935 12.7194L5.05995 14.06C5.97013 13.1465 7.05171 12.4217 8.24264 11.9271C9.43357 11.4326 10.7104 11.178 12 11.178C13.2895 11.178 14.5663 11.4326 15.7573 11.9271C16.9482 12.4217 18.0298 13.1465 18.94 14.06L20.28 12.7195C19.1944 11.6287 17.9041 10.7632 16.483 10.1725C15.062 9.58193 13.5382 9.27789 11.9993 9.27789C10.4605 9.27789 8.93673 9.58193 7.51569 10.1725C6.09465 10.7632 4.80429 11.6287 3.71875 12.7195L3.71935 12.7194ZM6.82935 15.8294L8.16485 17.1649C8.66682 16.6583 9.26417 16.2563 9.92241 15.9819C10.5806 15.7075 11.2867 15.5662 11.9998 15.5662C12.713 15.5662 13.4191 15.7075 14.0773 15.9819C14.7355 16.2563 15.3329 16.6583 15.8349 17.1649L17.17 15.83C16.4944 15.1449 15.6895 14.6009 14.8019 14.2295C13.9143 13.8582 12.9618 13.667 11.9996 13.667C11.0375 13.667 10.085 13.8582 9.19739 14.2295C8.30981 14.6009 7.50487 15.1449 6.82935 15.83V15.8294ZM9.87055 18.8706L12 21L14.129 18.8709C13.8545 18.5825 13.5241 18.353 13.1582 18.1961C12.7922 18.0392 12.3981 17.9583 12 17.9583C11.6018 17.9583 11.2077 18.0392 10.8417 18.1961C10.4758 18.353 10.1454 18.5825 9.87085 18.8709L9.87055 18.8706Z" fill="black"/>
</svg>
