<svg width="24" height="24" viewBox="0 0 24 24" fill="none" xmlns="http://www.w3.org/2000/svg">
<path d="M12 3.75C12.0989 3.75 12.1956 3.72068 12.2778 3.66574C12.36 3.61079 12.4241 3.53271 12.4619 3.44134C12.4998 3.34998 12.5097 3.24945 12.4904 3.15246C12.4711 3.05546 12.4235 2.96637 12.3536 2.89645C12.2836 2.82652 12.1945 2.7789 12.0975 2.75961C12.0006 2.74031 11.9 2.75022 11.8087 2.78806C11.7173 2.8259 11.6392 2.88999 11.5843 2.97222C11.5293 3.05444 11.5 3.15111 11.5 3.25C11.5 3.38261 11.5527 3.50979 11.6464 3.60355C11.7402 3.69732 11.8674 3.75 12 3.75ZM12 11.5C11.9011 11.5 11.8044 11.5293 11.7222 11.5843C11.64 11.6392 11.5759 11.7173 11.5381 11.8087C11.5002 11.9 11.4903 12.0006 11.5096 12.0975C11.5289 12.1945 11.5765 12.2836 11.6464 12.3536C11.7164 12.4235 11.8055 12.4711 11.9025 12.4904C11.9994 12.5097 12.1 12.4998 12.1913 12.4619C12.2827 12.4241 12.3608 12.36 12.4157 12.2778C12.4707 12.1956 12.5 12.0989 12.5 12C12.5 11.8674 12.4473 11.7402 12.3536 11.6464C12.2598 11.5527 12.1326 11.5 12 11.5ZM12 20.25C11.9011 20.25 11.8044 20.2793 11.7222 20.3343C11.64 20.3892 11.5759 20.4673 11.5381 20.5587C11.5002 20.65 11.4903 20.7506 11.5096 20.8475C11.5289 20.9445 11.5765 21.0336 11.6464 21.1036C11.7164 21.1735 11.8055 21.2211 11.9025 21.2404C11.9994 21.2597 12.1 21.2498 12.1913 21.2119C12.2827 21.1741 12.3608 21.11 12.4157 21.0278C12.4707 20.9456 12.5 20.8489 12.5 20.75C12.5 20.6174 12.4473 20.4902 12.3536 20.3964C12.2598 20.3027 12.1326 20.25 12 20.25Z" fill="black"/>
</svg>
