<svg width="24" height="24" viewBox="0 0 24 24" fill="none" xmlns="http://www.w3.org/2000/svg">
<path d="M9.8478 19.25C10.1366 19.25 10.4188 19.1644 10.6589 19.0039C10.899 18.8435 11.0862 18.6155 11.1967 18.3487C11.3072 18.0819 11.3361 17.7884 11.2797 17.5052C11.2234 17.222 11.0844 16.9618 10.8802 16.7576C10.676 16.5534 10.4158 16.4144 10.1326 16.3581C9.84942 16.3017 9.55586 16.3306 9.28908 16.4411C9.0223 16.5516 8.79428 16.7388 8.63385 16.9789C8.47343 17.219 8.3878 17.5012 8.3878 17.79C8.3878 18.1772 8.54162 18.5486 8.81542 18.8224C9.08923 19.0962 9.46058 19.25 9.8478 19.25ZM9.8478 17.18C9.96845 17.18 10.0864 17.2158 10.1867 17.2828C10.287 17.3498 10.3652 17.4451 10.4114 17.5566C10.4575 17.668 10.4696 17.7907 10.4461 17.909C10.4225 18.0273 10.3644 18.136 10.2791 18.2213C10.1938 18.3066 10.0851 18.3647 9.96681 18.3883C9.84848 18.4118 9.72583 18.3997 9.61436 18.3536C9.5029 18.3074 9.40763 18.2292 9.3406 18.1289C9.27358 18.0286 9.2378 17.9106 9.2378 17.79C9.23804 17.6283 9.30238 17.4733 9.41673 17.3589C9.53107 17.2446 9.68609 17.1802 9.8478 17.18ZM14.1522 19.25C14.441 19.25 14.7232 19.1644 14.9633 19.0039C15.2034 18.8435 15.3906 18.6155 15.5011 18.3487C15.6116 18.0819 15.6405 17.7884 15.5841 17.5052C15.5278 17.222 15.3888 16.9618 15.1846 16.7576C14.9804 16.5534 14.7202 16.4144 14.437 16.3581C14.1538 16.3017 13.8603 16.3306 13.5935 16.4411C13.3267 16.5516 13.0987 16.7388 12.9383 16.9789C12.7778 17.219 12.6922 17.5012 12.6922 17.79C12.6922 18.1772 12.846 18.5486 13.1198 18.8224C13.3936 19.0962 13.765 19.25 14.1522 19.25ZM14.1522 17.18C14.2728 17.18 14.3908 17.2158 14.4911 17.2828C14.5914 17.3498 14.6696 17.4451 14.7158 17.5566C14.7619 17.668 14.774 17.7907 14.7505 17.909C14.7269 18.0273 14.6688 18.136 14.5835 18.2213C14.4982 18.3066 14.3895 18.3647 14.2712 18.3883C14.1529 18.4118 14.0302 18.3997 13.9188 18.3536C13.8073 18.3074 13.712 18.2292 13.645 18.1289C13.578 18.0286 13.5422 17.9106 13.5422 17.79C13.5424 17.6283 13.6068 17.4733 13.7211 17.3589C13.8355 17.2446 13.9905 17.1802 14.1522 17.18ZM9.8478 14.856C10.1366 14.856 10.4188 14.7704 10.6589 14.6099C10.899 14.4495 11.0862 14.2215 11.1967 13.9547C11.3072 13.6879 11.3361 13.3944 11.2797 13.1112C11.2234 12.828 11.0844 12.5678 10.8802 12.3636C10.676 12.1594 10.4158 12.0204 10.1326 11.9641C9.84942 11.9077 9.55586 11.9366 9.28908 12.0471C9.0223 12.1576 8.79428 12.3448 8.63385 12.5849C8.47343 12.825 8.3878 13.1072 8.3878 13.396C8.3878 13.7832 8.54162 14.1546 8.81542 14.4284C9.08923 14.7022 9.46058 14.856 9.8478 14.856ZM9.8478 12.786C9.96845 12.786 10.0864 12.8218 10.1867 12.8888C10.287 12.9558 10.3652 13.0511 10.4114 13.1626C10.4575 13.274 10.4696 13.3967 10.4461 13.515C10.4225 13.6333 10.3644 13.742 10.2791 13.8273C10.1938 13.9126 10.0851 13.9707 9.96681 13.9943C9.84848 14.0178 9.72583 14.0057 9.61436 13.9596C9.5029 13.9134 9.40763 13.8352 9.3406 13.7349C9.27358 13.6346 9.2378 13.5166 9.2378 13.396C9.23796 13.2342 9.30226 13.0791 9.41662 12.9647C9.53097 12.8503 9.68603 12.7859 9.8478 12.7856V12.786ZM14.1522 14.856C14.441 14.856 14.7232 14.7704 14.9633 14.6099C15.2034 14.4495 15.3906 14.2215 15.5011 13.9547C15.6116 13.6879 15.6405 13.3944 15.5841 13.1112C15.5278 12.828 15.3888 12.5678 15.1846 12.3636C14.9804 12.1594 14.7202 12.0204 14.437 11.9641C14.1538 11.9077 13.8603 11.9366 13.5935 12.0471C13.3267 12.1576 13.0987 12.3448 12.9383 12.5849C12.7778 12.825 12.6922 13.1072 12.6922 13.396C12.6922 13.7832 12.846 14.1546 13.1198 14.4284C13.3936 14.7022 13.765 14.856 14.1522 14.856ZM14.1522 12.786C14.2728 12.786 14.3908 12.8218 14.4911 12.8888C14.5914 12.9558 14.6696 13.0511 14.7158 13.1626C14.7619 13.274 14.774 13.3967 14.7505 13.515C14.7269 13.6333 14.6688 13.742 14.5835 13.8273C14.4982 13.9126 14.3895 13.9707 14.2712 13.9943C14.1529 14.0178 14.0302 14.0057 13.9188 13.9596C13.8073 13.9134 13.712 13.8352 13.645 13.7349C13.578 13.6346 13.5422 13.5166 13.5422 13.396C13.5424 13.2342 13.6067 13.0791 13.721 12.9647C13.8354 12.8503 13.9904 12.7859 14.1522 12.7856V12.786ZM9.8478 10.462C10.1366 10.462 10.4188 10.3764 10.6589 10.2159C10.899 10.0555 11.0862 9.8275 11.1967 9.56072C11.3072 9.29394 11.3361 9.00038 11.2797 8.71717C11.2234 8.43396 11.0844 8.17381 10.8802 7.96962C10.676 7.76544 10.4158 7.62639 10.1326 7.57005C9.84942 7.51372 9.55586 7.54263 9.28908 7.65314C9.0223 7.76364 8.79428 7.95077 8.63385 8.19087C8.47343 8.43096 8.3878 8.71324 8.3878 9.002C8.3878 9.38922 8.54162 9.76057 8.81542 10.0344C9.08923 10.3082 9.46058 10.462 9.8478 10.462ZM9.8478 8.392C9.96845 8.392 10.0864 8.42778 10.1867 8.4948C10.287 8.56183 10.3652 8.6571 10.4114 8.76856C10.4575 8.88003 10.4696 9.00268 10.4461 9.12101C10.4225 9.23933 10.3644 9.34803 10.2791 9.43334C10.1938 9.51865 10.0851 9.57674 9.96681 9.60028C9.84848 9.62382 9.72583 9.61174 9.61436 9.56557C9.5029 9.5194 9.40763 9.44121 9.3406 9.3409C9.27358 9.24058 9.2378 9.12265 9.2378 9.002C9.23796 8.84024 9.30227 8.68514 9.41662 8.57073C9.53098 8.45632 9.68604 8.39194 9.8478 8.3917V8.392ZM14.1522 10.462C14.441 10.462 14.7232 10.3764 14.9633 10.2159C15.2034 10.0555 15.3906 9.8275 15.5011 9.56072C15.6116 9.29394 15.6405 9.00038 15.5841 8.71717C15.5278 8.43396 15.3888 8.17381 15.1846 7.96962C14.9804 7.76544 14.7202 7.62639 14.437 7.57005C14.1538 7.51372 13.8603 7.54263 13.5935 7.65314C13.3267 7.76364 13.0987 7.95077 12.9383 8.19087C12.7778 8.43096 12.6922 8.71324 12.6922 9.002C12.6922 9.38922 12.846 9.76057 13.1198 10.0344C13.3936 10.3082 13.765 10.462 14.1522 10.462ZM14.1522 8.392C14.2728 8.392 14.3908 8.42778 14.4911 8.4948C14.5914 8.56183 14.6696 8.6571 14.7158 8.76856C14.7619 8.88003 14.774 9.00268 14.7505 9.12101C14.7269 9.23933 14.6688 9.34803 14.5835 9.43334C14.4982 9.51865 14.3895 9.57674 14.2712 9.60028C14.1529 9.62382 14.0302 9.61174 13.9188 9.56557C13.8073 9.5194 13.712 9.44121 13.645 9.3409C13.578 9.24058 13.5422 9.12265 13.5422 9.002C13.5424 8.84024 13.6067 8.68514 13.721 8.57073C13.8354 8.45632 13.9904 8.39194 14.1522 8.3917V8.392ZM15 5V4C15 3.46957 14.7893 2.96086 14.4142 2.58579C14.0391 2.21071 13.5304 2 13 2H11C10.4696 2 9.96086 2.21071 9.58579 2.58579C9.21071 2.96086 9 3.46957 9 4V5H3V6H4.82L6.2649 22H17.7349L19.1805 6H21V5H15ZM10 4C10.0003 3.73487 10.1057 3.48069 10.2932 3.29321C10.4807 3.10574 10.7349 3.00029 11 3H13C13.2651 3.00029 13.5193 3.10574 13.7068 3.29321C13.8943 3.48069 13.9997 3.73487 14 4V5H10V4ZM16.8214 21H7.1786L5.8236 6H18.1765L16.8214 21Z" fill="black"/>
</svg>
