<svg width="24" height="24" viewBox="0 0 24 24" fill="none" xmlns="http://www.w3.org/2000/svg">
<path d="M2 4V20H22V4H2ZM20 18H4V6H20V18ZM9.3384 13.72L10.7524 15.1343C11.1278 14.7598 11.6364 14.5494 12.1666 14.5494C12.6968 14.5494 13.2054 14.7598 13.5808 15.1343L14.9951 13.72C14.2444 12.971 13.2271 12.5504 12.1666 12.5504C11.1062 12.5505 10.089 12.9713 9.3384 13.7205V13.72ZM16.4092 12.3058L17.8235 10.8916C16.322 9.39354 14.2876 8.55222 12.1666 8.55222C10.0457 8.55222 8.01127 9.39354 6.5098 10.8916L7.9241 12.3058C9.05021 11.1823 10.576 10.5513 12.1668 10.5514C13.7575 10.5515 15.2832 11.1826 16.4092 12.3063V12.3058Z" fill="black"/>
</svg>
