<svg width="24" height="24" viewBox="0 0 24 24" fill="none" xmlns="http://www.w3.org/2000/svg">
<path d="M11 6.08999V2.04999C8.74889 2.27514 6.64146 3.25981 5.0244 4.84199L8.1152 7.43559C8.93743 6.73444 9.93441 6.2694 11 6.08999ZM13 2.04999V6.08999C13.8681 6.23484 14.6937 6.56905 15.4182 7.06888C16.1426 7.56871 16.7481 8.2219 17.1917 8.98208C17.6353 9.74226 17.9061 10.5908 17.9849 11.4674C18.0636 12.344 17.9484 13.2272 17.6475 14.0543C17.3465 14.8813 16.8671 15.632 16.2434 16.253C15.6196 16.8739 14.8668 17.35 14.0384 17.6473C13.21 17.9445 12.3263 18.0558 11.45 17.9731C10.5738 17.8904 9.72649 17.6159 8.9683 17.1689L6.3711 20.2639C7.62975 21.1213 9.06761 21.6799 10.575 21.8971C12.0824 22.1142 13.6195 21.9842 15.0689 21.5169C16.5184 21.0496 17.842 20.2574 18.9387 19.2007C20.0355 18.1441 20.8763 16.8508 21.3972 15.4197C21.9181 13.9886 22.1052 12.4574 21.9442 10.943C21.7832 9.42861 21.2785 7.97097 20.4685 6.68131C19.6584 5.39166 18.5645 4.30406 17.2702 3.50152C15.9759 2.69897 14.5153 2.20267 13 2.05049V2.04999ZM6 12C6.00049 10.933 6.28767 9.88577 6.8315 8.96779L3.7363 6.37079C2.43662 8.27631 1.83662 10.573 2.03824 12.8707C2.23985 15.1684 3.23063 17.3255 4.8423 18.9756L7.4355 15.8845C6.50884 14.8024 5.99969 13.4246 6 12Z" fill="black"/>
</svg>
