<svg width="24" height="24" viewBox="0 0 24 24" fill="none" xmlns="http://www.w3.org/2000/svg">
<path d="M13.6667 20H15.1667V8.343L13.6667 9.6937V20ZM19.99 4L18.5 5.3414V20H20V4H19.99ZM8.8334 20H10.3334V12.6952L8.8334 14.0459V20ZM4 20H5.5V17.0475L4 18.3981V20ZM10 6H9V5C9 4.46957 8.78929 3.96086 8.41421 3.58579C8.03914 3.21071 7.53043 3 7 3C6.46957 3 5.96086 3.21071 5.58579 3.58579C5.21071 3.96086 5 4.46957 5 5V6H4V10H10V6ZM6.1 5C6.1 4.76131 6.19482 4.53239 6.3636 4.3636C6.53239 4.19482 6.76131 4.1 7 4.1C7.23869 4.1 7.46761 4.19482 7.6364 4.3636C7.80518 4.53239 7.9 4.76131 7.9 5V6H6.1V5ZM8.8 8.8H5.2V7.2549H8.8V8.8Z" fill="black"/>
</svg>
