<svg width="24" height="24" viewBox="0 0 24 24" fill="none" xmlns="http://www.w3.org/2000/svg">
<path d="M11 4.06948V2.05048C8.74923 2.2756 6.64204 3.25991 5.02492 4.84158L6.57232 6.13998C7.79469 5.00274 9.34357 4.27844 11 4.06948ZM13 2.05048V4.06948C14.1928 4.21765 15.3367 4.63282 16.3469 5.28409C17.357 5.93536 18.2074 6.80599 18.8346 7.83122C19.4619 8.85644 19.85 10.0099 19.97 11.2058C20.09 12.4017 19.9389 13.6092 19.5278 14.7387C19.1168 15.8681 18.4564 16.8903 17.5958 17.7293C16.7352 18.5683 15.6965 19.2025 14.557 19.5848C13.4175 19.967 12.2065 20.0874 11.0141 19.9371C9.82161 19.7867 8.67839 19.3695 7.66942 18.7164L6.37112 20.2637C7.62975 21.1211 9.0676 21.6797 10.575 21.8968C12.0823 22.114 13.6194 21.984 15.0689 21.5167C16.5183 21.0494 17.8419 20.2572 18.9386 19.2006C20.0354 18.1439 20.8762 16.8507 21.3971 15.4196C21.9179 13.9885 22.105 12.4574 21.9441 10.943C21.7831 9.42856 21.2784 7.97093 20.4684 6.68129C19.6584 5.39164 18.5645 4.30405 17.2702 3.50151C15.9759 2.69896 14.5153 2.20266 13 2.05048ZM5.28372 7.66928L3.73632 6.37078C2.43669 8.27626 1.83669 10.5729 2.0382 12.8705C2.23972 15.1682 3.23034 17.3253 4.84182 18.9755L6.14002 17.4282C4.92823 16.1307 4.18556 14.4649 4.03035 12.6963C3.87515 10.9277 4.31634 9.15803 5.28362 7.66928H5.28372Z" fill="black"/>
</svg>
