<svg width="24" height="24" viewBox="0 0 24 24" fill="none" xmlns="http://www.w3.org/2000/svg">
<path d="M3 21H5V19H3V21ZM19 21H21V19H19V21ZM15 21H17V19H15V21ZM11 21H13V19H11V21ZM7 21H9V19H7V21ZM11 14H3V16H11V14ZM13 16H21V14H13V16ZM3 11H21V9H3V11ZM18.1152 4.1338C17.9057 4.35037 17.6547 4.52258 17.3773 4.64019C17.0998 4.7578 16.8015 4.81841 16.5002 4.81841C16.1989 4.81841 15.9006 4.7578 15.6231 4.64019C15.3457 4.52258 15.0947 4.35037 14.8852 4.1338C14.0998 3.40802 13.0696 3.00494 12.0002 3.00494C10.9308 3.00494 9.90064 3.40802 9.1152 4.1338C8.67399 4.54391 8.10172 4.78438 7.5 4.8125C6.89828 4.78438 6.32601 4.54391 5.8848 4.1338C5.08761 3.4265 4.06545 3.02476 3 3V5C3.60172 5.02812 4.17399 5.26859 4.6152 5.6787C5.41239 6.386 6.43455 6.78774 7.5 6.8125C8.56545 6.78774 9.58761 6.386 10.3848 5.6787C10.5943 5.46213 10.8453 5.28992 11.1227 5.17231C11.4002 5.0547 11.6985 4.99409 11.9998 4.99409C12.3011 4.99409 12.5994 5.0547 12.8769 5.17231C13.1543 5.28992 13.4053 5.46213 13.6148 5.6787C14.4121 6.38609 15.4344 6.78783 16.5 6.8125C17.5654 6.78774 18.5876 6.386 19.3848 5.6787C19.826 5.26859 20.3983 5.02812 21 5V3C19.9346 3.02476 18.9124 3.4265 18.1152 4.1338Z" fill="black"/>
</svg>
