<svg width="24" height="24" viewBox="0 0 24 24" fill="none" xmlns="http://www.w3.org/2000/svg">
<path d="M16.6765 7.3234C16.3006 6.08326 15.6098 4.96168 14.6714 4.06799C13.733 3.1743 12.5791 2.53899 11.3221 2.224C10.0651 1.90901 8.74793 1.92508 7.49899 2.27065C6.25006 2.61621 5.11197 3.27949 4.19567 4.19581C3.27936 5.11213 2.61611 6.25024 2.27057 7.49918C1.92503 8.74812 1.90899 10.0653 2.22401 11.3223C2.53903 12.5793 3.17436 13.7332 4.06807 14.6716C4.96178 15.6099 6.08338 16.3007 7.32353 16.6766C7.69944 17.9167 8.39026 19.0383 9.32865 19.932C10.267 20.8257 11.421 21.461 12.678 21.776C13.935 22.091 15.2521 22.0749 16.5011 21.7294C17.75 21.3838 18.8881 20.7205 19.8044 19.8042C20.7207 18.8879 21.3839 17.7498 21.7295 16.5008C22.075 15.2519 22.0911 13.9347 21.776 12.6777C21.461 11.4207 20.8257 10.2668 19.932 9.32845C19.0383 8.39009 17.9167 7.69929 16.6765 7.3234ZM3.50003 9.5C3.49912 8.12911 3.968 6.7993 4.82854 5.73215C5.68907 4.665 6.88931 3.92494 8.22925 3.6353C9.5692 3.34565 10.9679 3.5239 12.1924 4.14036C13.4169 4.75681 14.3931 5.77423 14.9585 7.0231C14.8059 7.0139 14.6548 7 14.5 7C12.5109 7 10.6032 7.79018 9.19673 9.1967C7.7902 10.6032 7.00003 12.5109 7.00003 14.5C7.00003 14.6548 7.01393 14.806 7.02323 14.9584C5.97419 14.4825 5.08422 13.7148 4.45951 12.7469C3.8348 11.7791 3.50172 10.652 3.50003 9.5ZM14.5 20.5C13.3481 20.4983 12.2209 20.1652 11.2531 19.5406C10.2852 18.9159 9.5175 18.0259 9.04153 16.9769C9.19413 16.9861 9.34523 17 9.50003 17C11.4892 17 13.3968 16.2098 14.8033 14.8033C16.2098 13.3968 17 11.4891 17 9.5C17 9.3452 16.9861 9.194 16.9768 9.0416C18.2257 9.60695 19.2432 10.5832 19.8597 11.8077C20.4762 13.0321 20.6544 14.4309 20.3648 15.7708C20.0751 17.1108 19.3351 18.311 18.2679 19.1715C17.2008 20.0321 15.8709 20.5009 14.5 20.5Z" fill="black"/>
</svg>
