<svg width="24" height="24" viewBox="0 0 24 24" fill="none" xmlns="http://www.w3.org/2000/svg">
<path d="M18.75 4.5C18.9488 4.50021 19.1395 4.5793 19.2801 4.7199C19.4207 4.86051 19.4998 5.05115 19.5 5.25V8.75C19.4998 8.94885 19.4207 9.13949 19.2801 9.2801C19.1395 9.4207 18.9488 9.49979 18.75 9.5H15.25C15.0512 9.49979 14.8605 9.4207 14.7199 9.2801C14.5793 9.13949 14.5002 8.94885 14.5 8.75V5.25C14.5002 5.05115 14.5793 4.86051 14.7199 4.7199C14.8605 4.5793 15.0512 4.50021 15.25 4.5H18.75ZM8.75 4.5C8.94885 4.50021 9.13949 4.5793 9.2801 4.7199C9.4207 4.86051 9.49979 5.05115 9.5 5.25V8.75C9.49979 8.94885 9.4207 9.13949 9.2801 9.2801C9.13949 9.4207 8.94885 9.49979 8.75 9.5H5.25C5.05115 9.49979 4.86051 9.4207 4.7199 9.2801C4.5793 9.13949 4.50021 8.94885 4.5 8.75V5.25C4.50021 5.05115 4.5793 4.86051 4.7199 4.7199C4.86051 4.5793 5.05115 4.50021 5.25 4.5H8.75ZM18.75 14.5C18.9488 14.5002 19.1395 14.5793 19.2801 14.7199C19.4207 14.8605 19.4998 15.0512 19.5 15.25V18.75C19.4998 18.9488 19.4207 19.1395 19.2801 19.2801C19.1395 19.4207 18.9488 19.4998 18.75 19.5H15.25C15.0512 19.4998 14.8605 19.4207 14.7199 19.2801C14.5793 19.1395 14.5002 18.9488 14.5 18.75V15.25C14.5002 15.0512 14.5793 14.8605 14.7199 14.7199C14.8605 14.5793 15.0512 14.5002 15.25 14.5H18.75ZM8.75 14.5C8.94884 14.5002 9.13947 14.5793 9.28007 14.7199C9.42067 14.8605 9.49976 15.0512 9.5 15.25V18.75C9.49976 18.9488 9.42067 19.1395 9.28007 19.2801C9.13947 19.4207 8.94884 19.4998 8.75 19.5H5.25C5.05116 19.4998 4.86053 19.4207 4.71993 19.2801C4.57933 19.1395 4.50024 18.9488 4.5 18.75V15.25C4.50024 15.0512 4.57933 14.8605 4.71993 14.7199C4.86053 14.5793 5.05116 14.5002 5.25 14.5H8.75ZM18.75 3H15.25C14.6533 3 14.081 3.23705 13.659 3.65901C13.2371 4.08097 13 4.65326 13 5.25V8.75C13 9.34674 13.2371 9.91903 13.659 10.341C14.081 10.7629 14.6533 11 15.25 11H18.75C19.3467 11 19.919 10.7629 20.341 10.341C20.7629 9.91903 21 9.34674 21 8.75V5.25C21 4.65326 20.7629 4.08097 20.341 3.65901C19.919 3.23705 19.3467 3 18.75 3ZM8.75 3H5.25C4.65326 3 4.08097 3.23705 3.65901 3.65901C3.23705 4.08097 3 4.65326 3 5.25V8.75C3 9.34674 3.23705 9.91903 3.65901 10.341C4.08097 10.7629 4.65326 11 5.25 11H8.75C9.34674 11 9.91903 10.7629 10.341 10.341C10.7629 9.91903 11 9.34674 11 8.75V5.25C11 4.65326 10.7629 4.08097 10.341 3.65901C9.91903 3.23705 9.34674 3 8.75 3ZM18.75 13H15.25C14.6533 13 14.081 13.2371 13.659 13.659C13.2371 14.081 13 14.6533 13 15.25V18.75C13 19.3467 13.2371 19.919 13.659 20.341C14.081 20.7629 14.6533 21 15.25 21H18.75C19.3467 21 19.919 20.7629 20.341 20.341C20.7629 19.919 21 19.3467 21 18.75V15.25C21 14.6533 20.7629 14.081 20.341 13.659C19.919 13.2371 19.3467 13 18.75 13ZM8.75 13H5.25C4.65326 13 4.08097 13.2371 3.65901 13.659C3.23705 14.081 3 14.6533 3 15.25V18.75C3 19.3467 3.23705 19.919 3.65901 20.341C4.08097 20.7629 4.65326 21 5.25 21H8.75C9.34674 21 9.91903 20.7629 10.341 20.341C10.7629 19.919 11 19.3467 11 18.75V15.25C11 14.6533 10.7629 14.081 10.341 13.659C9.91903 13.2371 9.34674 13 8.75 13Z" fill="black"/>
</svg>
