<svg width="24" height="24" viewBox="0 0 24 24" fill="none" xmlns="http://www.w3.org/2000/svg">
<path d="M18.5 5C18.6326 5 18.7598 5.05268 18.8536 5.14645C18.9473 5.24021 19 5.36739 19 5.5V8.5C19 8.63261 18.9473 8.75979 18.8536 8.85355C18.7598 8.94732 18.6326 9 18.5 9H15.5C15.3674 9 15.2402 8.94732 15.1464 8.85355C15.0527 8.75979 15 8.63261 15 8.5V5.5C15 5.36739 15.0527 5.24021 15.1464 5.14645C15.2402 5.05268 15.3674 5 15.5 5H18.5ZM8.5 5C8.63261 5 8.75979 5.05268 8.85355 5.14645C8.94732 5.24021 9 5.36739 9 5.5V8.5C9 8.63261 8.94732 8.75979 8.85355 8.85355C8.75979 8.94732 8.63261 9 8.5 9H5.5C5.36739 9 5.24021 8.94732 5.14645 8.85355C5.05268 8.75979 5 8.63261 5 8.5V5.5C5 5.36739 5.05268 5.24021 5.14645 5.14645C5.24021 5.05268 5.36739 5 5.5 5H8.5ZM18.5 15C18.6326 15 18.7598 15.0527 18.8536 15.1464C18.9473 15.2402 19 15.3674 19 15.5V18.5C19 18.6326 18.9473 18.7598 18.8536 18.8536C18.7598 18.9473 18.6326 19 18.5 19H15.5C15.3674 19 15.2402 18.9473 15.1464 18.8536C15.0527 18.7598 15 18.6326 15 18.5V15.5C15 15.3674 15.0527 15.2402 15.1464 15.1464C15.2402 15.0527 15.3674 15 15.5 15H18.5ZM8.5 15C8.63261 15 8.75979 15.0527 8.85355 15.1464C8.94732 15.2402 9 15.3674 9 15.5V18.5C9 18.6326 8.94732 18.7598 8.85355 18.8536C8.75979 18.9473 8.63261 19 8.5 19H5.5C5.36739 19 5.24021 18.9473 5.14645 18.8536C5.05268 18.7598 5 18.6326 5 18.5V15.5C5 15.3674 5.05268 15.2402 5.14645 15.1464C5.24021 15.0527 5.36739 15 5.5 15H8.5ZM18.5 3H15.5C14.837 3 14.2011 3.26339 13.7322 3.73223C13.2634 4.20107 13 4.83696 13 5.5V8.5C13 9.16304 13.2634 9.79893 13.7322 10.2678C14.2011 10.7366 14.837 11 15.5 11H18.5C19.163 11 19.7989 10.7366 20.2678 10.2678C20.7366 9.79893 21 9.16304 21 8.5V5.5C21 4.83696 20.7366 4.20107 20.2678 3.73223C19.7989 3.26339 19.163 3 18.5 3ZM8.5 3H5.5C4.83696 3 4.20107 3.26339 3.73223 3.73223C3.26339 4.20107 3 4.83696 3 5.5V8.5C3 9.16304 3.26339 9.79893 3.73223 10.2678C4.20107 10.7366 4.83696 11 5.5 11H8.5C9.16304 11 9.79893 10.7366 10.2678 10.2678C10.7366 9.79893 11 9.16304 11 8.5V5.5C11 4.83696 10.7366 4.20107 10.2678 3.73223C9.79893 3.26339 9.16304 3 8.5 3ZM18.5 13H15.5C14.837 13 14.2011 13.2634 13.7322 13.7322C13.2634 14.2011 13 14.837 13 15.5V18.5C13 19.163 13.2634 19.7989 13.7322 20.2678C14.2011 20.7366 14.837 21 15.5 21H18.5C19.163 21 19.7989 20.7366 20.2678 20.2678C20.7366 19.7989 21 19.163 21 18.5V15.5C21 14.837 20.7366 14.2011 20.2678 13.7322C19.7989 13.2634 19.163 13 18.5 13ZM8.5 13H5.5C4.83696 13 4.20107 13.2634 3.73223 13.7322C3.26339 14.2011 3 14.837 3 15.5V18.5C3 19.163 3.26339 19.7989 3.73223 20.2678C4.20107 20.7366 4.83696 21 5.5 21H8.5C9.16304 21 9.79893 20.7366 10.2678 20.2678C10.7366 19.7989 11 19.163 11 18.5V15.5C11 14.837 10.7366 14.2011 10.2678 13.7322C9.79893 13.2634 9.16304 13 8.5 13Z" fill="black"/>
</svg>
