<svg width="24" height="24" viewBox="0 0 24 24" fill="none" xmlns="http://www.w3.org/2000/svg">
<path d="M8.8332 20H10.3332V12.6952L8.8332 14.0459V20ZM3.9998 20H5.4998V17.0475L3.9998 18.3981V20ZM19.9898 4L18.4998 5.3414V20H19.9998V4H19.9898ZM13.6668 20H15.1668V8.343L13.6668 9.6937V20ZM10.7168 5.5606C10.6471 5.36747 10.5626 5.18005 10.4639 5C10.3573 4.82462 10.2372 4.65778 10.1047 4.501L8.8047 5.1516L7.698 4.5125L7.6116 3.0616C7.40956 3.02532 7.20502 3.00473 6.9998 3C6.79459 3.00473 6.59004 3.02532 6.388 3.0616L6.3016 4.5125L5.1947 5.1516L3.8947 4.501C3.7623 4.65779 3.64227 4.82463 3.5357 5C3.43721 5.18008 3.3528 5.3675 3.2832 5.5606L4.4964 6.3606V7.639L3.2832 8.439C3.35278 8.63223 3.43719 8.81979 3.5357 9C3.64237 9.17538 3.7625 9.34222 3.895 9.499L5.195 8.8484L6.3019 9.4875L6.3883 10.9384C6.59024 10.9747 6.79469 10.9953 6.9998 11C7.20502 10.9953 7.40956 10.9747 7.6116 10.9384L7.698 9.4875L8.8049 8.8484L10.1049 9.499C10.2373 9.34221 10.3573 9.17538 10.4639 9C10.5624 8.81994 10.6469 8.63251 10.7164 8.4394L9.5032 7.6394V6.361L10.7168 5.5606ZM6.9998 8.2118C6.76013 8.2118 6.52584 8.14073 6.32656 8.00758C6.12728 7.87442 5.97196 7.68516 5.88025 7.46374C5.78853 7.24231 5.76453 6.99866 5.81129 6.76359C5.85804 6.52852 5.97346 6.3126 6.14293 6.14313C6.3124 5.97365 6.52833 5.85824 6.76339 5.81148C6.99846 5.76473 7.24211 5.78872 7.46354 5.88044C7.68497 5.97216 7.87422 6.12748 8.00738 6.32676C8.14053 6.52604 8.2116 6.76033 8.2116 7C8.21158 7.32138 8.0839 7.62959 7.85665 7.85684C7.62939 8.08409 7.32118 8.21177 6.9998 8.2118Z" fill="black"/>
</svg>
