<svg width="24" height="24" viewBox="0 0 24 24" fill="none" xmlns="http://www.w3.org/2000/svg">
<path d="M22.0987 16.6965H18.9676L18 13.7188L17.0325 16.6965H13.9014L16.4344 18.5365L15.4669 21.5143L18 19.6744L20.5331 21.5144L19.5656 18.5366L22.0987 16.6965ZM18.4114 19.1081L18 18.8091L17.5886 19.1081L16.7986 19.6822L17.1004 18.7533L17.2576 18.2696L16.8461 17.9706L16.0561 17.3965H17.541L17.6982 16.9128L18 15.9839L18.3018 16.9128L18.459 17.3965H19.9443L19.1543 17.9706L18.7429 18.2696L18.9 18.7533L19.2019 19.6822L18.4114 19.1081ZM19 5H5V6H19V5ZM5 19H12V18H5V19ZM19 11.5H5V12.5H19V11.5Z" fill="black"/>
</svg>
