<svg width="24" height="24" viewBox="0 0 24 24" fill="none" xmlns="http://www.w3.org/2000/svg">
<path d="M13 7.5C13 6.41221 12.6774 5.34884 12.0731 4.44437C11.4687 3.5399 10.6098 2.83495 9.60476 2.41867C8.59977 2.00238 7.4939 1.89346 6.42701 2.10568C5.36011 2.3179 4.3801 2.84173 3.61092 3.61092C2.84173 4.3801 2.3179 5.36011 2.10568 6.42701C1.89346 7.4939 2.00238 8.59977 2.41867 9.60476C2.83495 10.6098 3.5399 11.4687 4.44437 12.0731C5.34884 12.6774 6.41221 13 7.5 13C8.95816 12.9983 10.3561 12.4182 11.3872 11.3872C12.4182 10.3561 12.9983 8.95816 13 7.5ZM7.5 11C6.80777 11 6.13108 10.7947 5.55551 10.4101C4.97993 10.0256 4.53133 9.47894 4.26642 8.83939C4.00152 8.19985 3.93221 7.49612 4.06725 6.81719C4.2023 6.13825 4.53565 5.51461 5.02513 5.02513C5.51461 4.53565 6.13825 4.2023 6.81719 4.06725C7.49612 3.93221 8.19985 4.00152 8.83939 4.26642C9.47894 4.53133 10.0256 4.97993 10.4101 5.55551C10.7947 6.13108 11 6.80777 11 7.5C10.9989 8.42792 10.6298 9.31751 9.97365 9.97365C9.31751 10.6298 8.42792 10.9989 7.5 11ZM19 6C18.4067 6 17.8266 6.17595 17.3333 6.50559C16.8399 6.83524 16.4554 7.30377 16.2284 7.85195C16.0013 8.40013 15.9419 9.00333 16.0576 9.58527C16.1734 10.1672 16.4591 10.7018 16.8787 11.1213C17.2982 11.5409 17.8328 11.8266 18.4147 11.9424C18.9967 12.0581 19.5999 11.9987 20.1481 11.7716C20.6962 11.5446 21.1648 11.1601 21.4944 10.6667C21.8241 10.1734 22 9.59335 22 9C21.9991 8.20462 21.6828 7.44207 21.1204 6.87965C20.5579 6.31723 19.7954 6.00088 19 6ZM19 10C18.8022 10 18.6089 9.94135 18.4444 9.83147C18.28 9.72159 18.1518 9.56541 18.0761 9.38269C18.0004 9.19996 17.9806 8.99889 18.0192 8.80491C18.0578 8.61093 18.153 8.43275 18.2929 8.2929C18.4327 8.15304 18.6109 8.0578 18.8049 8.01922C18.9989 7.98063 19.2 8.00044 19.3827 8.07612C19.5654 8.15181 19.7216 8.27998 19.8315 8.44443C19.9414 8.60888 20 8.80222 20 9C19.9998 9.26515 19.8943 9.51936 19.7068 9.70685C19.5194 9.89433 19.2651 9.99976 19 10ZM14 14C13.2089 14 12.4355 14.2346 11.7777 14.6741C11.1199 15.1137 10.6072 15.7384 10.3045 16.4693C10.0017 17.2002 9.92252 18.0044 10.0769 18.7804C10.2312 19.5563 10.6122 20.269 11.1716 20.8284C11.731 21.3878 12.4437 21.7688 13.2196 21.9231C13.9956 22.0775 14.7998 21.9983 15.5307 21.6955C16.2616 21.3928 16.8864 20.8801 17.3259 20.2223C17.7654 19.5645 18 18.7911 18 18C17.9989 16.9395 17.5771 15.9227 16.8272 15.1728C16.0773 14.4229 15.0605 14.0011 14 14ZM14 20C13.6044 20 13.2178 19.8827 12.8889 19.6629C12.56 19.4432 12.3036 19.1308 12.1522 18.7654C12.0009 18.3999 11.9613 17.9978 12.0384 17.6098C12.1156 17.2219 12.3061 16.8655 12.5858 16.5858C12.8655 16.3061 13.2219 16.1156 13.6098 16.0384C13.9978 15.9613 14.3999 16.0009 14.7654 16.1522C15.1308 16.3036 15.4432 16.56 15.6629 16.8889C15.8827 17.2178 16 17.6044 16 18C15.9994 18.5302 15.7885 19.0386 15.4135 19.4135C15.0386 19.7885 14.5302 19.9994 14 20Z" fill="black"/>
</svg>
