<svg width="24" height="24" viewBox="0 0 24 24" fill="none" xmlns="http://www.w3.org/2000/svg">
<path d="M17 3H7C5.93913 3 4.92172 3.42143 4.17157 4.17157C3.42143 4.92172 3 5.93913 3 7V17C3 18.0609 3.42143 19.0783 4.17157 19.8284C4.92172 20.5786 5.93913 21 7 21H17C18.0609 21 19.0783 20.5786 19.8284 19.8284C20.5786 19.0783 21 18.0609 21 17V7C21 5.93913 20.5786 4.92172 19.8284 4.17157C19.0783 3.42143 18.0609 3 17 3ZM19.5 17C19.4993 17.6628 19.2356 18.2983 18.7669 18.7669C18.2983 19.2356 17.6628 19.4993 17 19.5H7C6.33719 19.4993 5.70173 19.2356 5.23305 18.7669C4.76437 18.2983 4.50074 17.6628 4.5 17V7C4.50074 6.33719 4.76437 5.70173 5.23305 5.23305C5.70173 4.76437 6.33719 4.50074 7 4.5H17C17.6628 4.50074 18.2983 4.76437 18.7669 5.23305C19.2356 5.70173 19.4993 6.33719 19.5 7V17ZM8.5529 12.7H15.4471V11.3H8.5529V12.7Z" fill="black"/>
</svg>
