<svg width="24" height="24" viewBox="0 0 24 24" fill="none" xmlns="http://www.w3.org/2000/svg">
<path d="M3 21H21V20H3V21ZM4 8.6666H3V9.6666H4V8.6666ZM4 17.1666H3V18.1666H4V17.1666ZM4 5.8333H3V6.8333H4V5.8333ZM4 14.3333H3V15.3333H4V14.3333ZM20 9.6666H21V8.6666H20V9.6666ZM20 18.1666H21V17.1666H20V18.1666ZM20 6.8333H21V5.8333H20V6.8333ZM20 15.3333H21V14.3333H20V15.3333ZM12.5 8.6666H11.5V9.6666H12.5V8.6666ZM12.5 17.1666H11.5V18.1666H12.5V17.1666ZM12.5 5.8333H11.5V6.8333H12.5V5.8333ZM12.5 14.3333H11.5V15.3333H12.5V14.3333ZM12.5 3H11.5V4H12.5V3ZM9.6667 3H8.6667V4H9.6667V3ZM18.1667 3H17.1667V4H18.1667V3ZM6.8333 3H5.8333V4H6.8333V3ZM15.3333 3H14.3333V4H15.3333V3ZM20 3V4H21V3H20ZM4 3H3V4H4V3ZM12.5 11.5H11.5V12.5H12.5V11.5ZM9.6667 11.5H8.6667V12.5H9.6667V11.5ZM18.1667 11.5H17.1667V12.5H18.1667V11.5ZM6.8333 11.5H5.8333V12.5H6.8333V11.5ZM15.3333 11.5H14.3333V12.5H15.3333V11.5ZM20 12.5H21V11.5H20V12.5ZM4 11.5H3V12.5H4V11.5Z" fill="black"/>
</svg>
