<svg width="24" height="24" viewBox="0 0 24 24" fill="none" xmlns="http://www.w3.org/2000/svg">
<path d="M19.2709 5H16V3C16 2.46957 15.7893 1.96086 15.4142 1.58579C15.0391 1.21071 14.5304 1 14 1H10C9.46957 1 8.96086 1.21071 8.58579 1.58579C8.21071 1.96086 8 2.46957 8 3V5H3V7H4.91L6.265 22H17.735L19.09 7H21V5H19.2709ZM10 3H14V5H10V3ZM15.9077 20H8.0923L6.918 7H17.082L15.9077 20ZM10.2313 15.8068C9.99396 15.8068 9.76195 15.8772 9.56462 16.009C9.36728 16.1409 9.21347 16.3283 9.12264 16.5476C9.03182 16.7669 9.00806 17.0081 9.05436 17.2409C9.10066 17.4737 9.21495 17.6875 9.38277 17.8553C9.55059 18.0232 9.76441 18.1374 9.99719 18.1837C10.23 18.23 10.4712 18.2063 10.6905 18.1155C10.9098 18.0246 11.0972 17.8708 11.2291 17.6735C11.3609 17.4761 11.4313 17.2441 11.4313 17.0068C11.4313 16.6885 11.3049 16.3833 11.0798 16.1583C10.8548 15.9332 10.5496 15.8068 10.2313 15.8068ZM13.7687 15.8068C13.5314 15.8068 13.2994 15.8772 13.102 16.009C12.9047 16.1409 12.7509 16.3283 12.66 16.5476C12.5692 16.7669 12.5455 17.0081 12.5918 17.2409C12.6381 17.4737 12.7523 17.6875 12.9202 17.8553C13.088 18.0232 13.3018 18.1374 13.5346 18.1837C13.7674 18.23 14.0086 18.2063 14.2279 18.1155C14.4472 18.0246 14.6346 17.8708 14.7665 17.6735C14.8983 17.4761 14.9687 17.2441 14.9687 17.0068C14.9687 16.6885 14.8423 16.3833 14.6172 16.1583C14.3922 15.9332 14.087 15.8068 13.7687 15.8068ZM10.2313 12.1958C9.99396 12.1958 9.76195 12.2662 9.56462 12.398C9.36728 12.5299 9.21347 12.7173 9.12264 12.9366C9.03182 13.1559 9.00806 13.3971 9.05436 13.6299C9.10066 13.8627 9.21495 14.0765 9.38277 14.2443C9.55059 14.4122 9.76441 14.5264 9.99719 14.5727C10.23 14.619 10.4712 14.5953 10.6905 14.5045C10.9098 14.4136 11.0972 14.2598 11.2291 14.0625C11.3609 13.8651 11.4313 13.6331 11.4313 13.3958C11.4313 13.0775 11.3049 12.7723 11.0798 12.5473C10.8548 12.3222 10.5496 12.1958 10.2313 12.1958ZM13.7687 12.1958C13.5314 12.1958 13.2994 12.2662 13.102 12.398C12.9047 12.5299 12.7509 12.7173 12.66 12.9366C12.5692 13.1559 12.5455 13.3971 12.5918 13.6299C12.6381 13.8627 12.7523 14.0765 12.9202 14.2443C13.088 14.4122 13.3018 14.5264 13.5346 14.5727C13.7674 14.619 14.0086 14.5953 14.2279 14.5045C14.4472 14.4136 14.6346 14.2598 14.7665 14.0625C14.8983 13.8651 14.9687 13.6331 14.9687 13.3958C14.9687 13.0775 14.8423 12.7723 14.6172 12.5473C14.3922 12.3222 14.087 12.1958 13.7687 12.1958Z" fill="black"/>
</svg>
