<svg width="24" height="24" viewBox="0 0 24 24" fill="none" xmlns="http://www.w3.org/2000/svg">
<path d="M22 12C21.999 9.47891 21.0453 7.05133 19.3298 5.20385C17.6144 3.35636 15.2641 2.22549 12.75 2.0379V0H11.25V2.0379C8.73668 2.22613 6.38739 3.35739 4.67307 5.20491C2.95875 7.05242 2.0061 9.47964 2.0061 12C2.0061 14.5204 2.95875 16.9476 4.67307 18.7951C6.38739 20.6426 8.73668 21.7739 11.25 21.9621V24H12.75V21.9621C15.2641 21.7745 17.6144 20.6436 19.3298 18.7962C21.0453 16.9487 21.999 14.5211 22 12ZM3.5 12C3.50302 9.87685 4.29976 7.83155 5.73374 6.26583C7.16772 4.70011 9.13529 3.72713 11.25 3.538V20.462C9.1353 20.2728 7.16774 19.2999 5.73377 17.7341C4.29979 16.1684 3.50304 14.1231 3.5 12Z" fill="black"/>
</svg>
