<svg width="24" height="24" viewBox="0 0 24 24" fill="none" xmlns="http://www.w3.org/2000/svg">
<path d="M3.21997 3.0387H6.21997V2.0387H2.21997V6.0387H3.21997V3.0387ZM3.21997 17.9613H2.21997V21.9613H6.21997V20.9613H3.21997V17.9613ZM17.78 2.0389V3.0389H20.78V6.0389H21.78V2.0389H17.78ZM20.78 20.9613H17.78V21.9613H21.78V17.9613H20.78V20.9613ZM12 5C10.6155 5 9.26212 5.41054 8.11098 6.17971C6.95984 6.94888 6.06263 8.04213 5.53281 9.32121C5.003 10.6003 4.86438 12.0078 5.13447 13.3656C5.40457 14.7235 6.07126 15.9708 7.05022 16.9497C8.02919 17.9287 9.27647 18.5954 10.6343 18.8655C11.9922 19.1356 13.3997 18.997 14.6788 18.4672C15.9578 17.9373 17.0511 17.0401 17.8203 15.889C18.5894 14.7378 19 13.3845 19 12C18.9978 10.1441 18.2596 8.36491 16.9474 7.05262C15.6351 5.74033 13.8558 5.00214 12 5ZM12 18C10.8133 18 9.65324 17.6481 8.66655 16.9888C7.67985 16.3295 6.91082 15.3925 6.45669 14.2961C6.00257 13.1997 5.88375 11.9933 6.11526 10.8295C6.34677 9.66557 6.91821 8.59647 7.75733 7.75736C8.59645 6.91824 9.66554 6.3468 10.8294 6.11528C11.9933 5.88377 13.1997 6.00259 14.2961 6.45672C15.3924 6.91084 16.3295 7.67988 16.9888 8.66657C17.6481 9.65327 18 10.8133 18 12C17.9981 13.5907 17.3654 15.1158 16.2406 16.2406C15.1158 17.3654 13.5907 17.9982 12 18Z" fill="black"/>
</svg>
