<svg width="24" height="24" viewBox="0 0 24 24" fill="none" xmlns="http://www.w3.org/2000/svg">
<path d="M7.5 3C8.39002 3 9.26005 3.26392 10.0001 3.75839C10.7401 4.25285 11.3169 4.95566 11.6575 5.77792C11.9981 6.60019 12.0872 7.50499 11.9135 8.37791C11.7399 9.25082 11.3113 10.0526 10.682 10.682C10.0526 11.3113 9.25082 11.7399 8.37791 11.9135C7.50499 12.0872 6.60019 11.9981 5.77793 11.6575C4.95566 11.3169 4.25286 10.7401 3.75839 10.0001C3.26392 9.26004 3 8.39002 3 7.5C3.00133 6.30693 3.47586 5.16311 4.31948 4.31948C5.16311 3.47585 6.30693 3.00132 7.5 3ZM19 7C19.3956 7 19.7822 7.1173 20.1111 7.33706C20.44 7.55682 20.6964 7.86918 20.8478 8.23463C20.9991 8.60009 21.0387 9.00222 20.9616 9.39018C20.8844 9.77814 20.6939 10.1345 20.4142 10.4142C20.1345 10.6939 19.7781 10.8844 19.3902 10.9616C19.0022 11.0387 18.6001 10.9991 18.2346 10.8478C17.8692 10.6964 17.5568 10.44 17.3371 10.1111C17.1173 9.78224 17 9.39556 17 9C17.0006 8.46974 17.2115 7.96135 17.5864 7.5864C17.9614 7.21145 18.4697 7.00056 19 7ZM14 15C14.5933 15 15.1734 15.1759 15.6667 15.5056C16.1601 15.8352 16.5446 16.3038 16.7716 16.8519C16.9987 17.4001 17.0581 18.0033 16.9424 18.5853C16.8266 19.1672 16.5409 19.7018 16.1213 20.1213C15.7018 20.5409 15.1672 20.8266 14.5853 20.9424C14.0033 21.0581 13.4001 20.9987 12.852 20.7716C12.3038 20.5446 11.8352 20.1601 11.5056 19.6667C11.176 19.1734 11 18.5933 11 18C11.0009 17.2046 11.3172 16.4421 11.8796 15.8796C12.4421 15.3172 13.2046 15.0009 14 15ZM7.5 2C6.41221 2 5.34884 2.32257 4.44437 2.92692C3.5399 3.53126 2.83495 4.39025 2.41867 5.39524C2.00238 6.40023 1.89346 7.5061 2.10568 8.573C2.3179 9.63989 2.84173 10.6199 3.61092 11.3891C4.3801 12.1583 5.36011 12.6821 6.42701 12.8943C7.4939 13.1065 8.59977 12.9976 9.60476 12.5813C10.6098 12.1651 11.4687 11.4601 12.0731 10.5556C12.6774 9.65117 13 8.5878 13 7.5C12.9983 6.04185 12.4182 4.64391 11.3872 3.61284C10.3561 2.58177 8.95816 2.00175 7.5 2ZM19 6C18.4067 6 17.8266 6.17595 17.3333 6.50559C16.8399 6.83524 16.4554 7.30377 16.2284 7.85195C16.0013 8.40013 15.9419 9.00333 16.0576 9.58527C16.1734 10.1672 16.4591 10.7018 16.8787 11.1213C17.2982 11.5409 17.8328 11.8266 18.4147 11.9424C18.9967 12.0581 19.5999 11.9987 20.1481 11.7716C20.6962 11.5446 21.1648 11.1601 21.4944 10.6667C21.8241 10.1734 22 9.59334 22 9C21.9991 8.20462 21.6828 7.44206 21.1204 6.87964C20.5579 6.31722 19.7954 6.00087 19 6ZM14 14C13.2089 14 12.4355 14.2346 11.7777 14.6741C11.1199 15.1136 10.6072 15.7384 10.3045 16.4693C10.0017 17.2002 9.92252 18.0044 10.0769 18.7804C10.2312 19.5563 10.6122 20.269 11.1716 20.8284C11.731 21.3878 12.4437 21.7688 13.2196 21.9231C13.9956 22.0775 14.7998 21.9983 15.5307 21.6955C16.2616 21.3928 16.8864 20.8801 17.3259 20.2223C17.7654 19.5645 18 18.7911 18 18C17.9989 16.9395 17.5771 15.9227 16.8272 15.1728C16.0773 14.4229 15.0605 14.0011 14 14Z" fill="black"/>
</svg>
