<svg width="24" height="24" viewBox="0 0 24 24" fill="none" xmlns="http://www.w3.org/2000/svg">
<path d="M16 3H8C6.67392 3 5.40215 3.52678 4.46447 4.46447C3.52678 5.40215 3 6.67392 3 8V16C3 17.3261 3.52678 18.5979 4.46447 19.5355C5.40215 20.4732 6.67392 21 8 21H16C17.3261 21 18.5979 20.4732 19.5355 19.5355C20.4732 18.5979 21 17.3261 21 16V8C21 6.67392 20.4732 5.40215 19.5355 4.46447C18.5979 3.52678 17.3261 3 16 3ZM19.5 16C19.4989 16.9279 19.1298 17.8175 18.4737 18.4737C17.8175 19.1298 16.9279 19.4989 16 19.5H8C7.07208 19.4989 6.18247 19.1298 5.52632 18.4737C4.87018 17.8175 4.50109 16.9279 4.5 16V8C4.50109 7.07208 4.87018 6.18247 5.52632 5.52632C6.18247 4.87018 7.07208 4.50109 8 4.5H16C16.9279 4.50109 17.8175 4.87018 18.4737 5.52632C19.1298 6.18247 19.4989 7.07208 19.5 8V16ZM12 8C11.2089 8 10.4355 8.2346 9.77772 8.67412C9.11992 9.11365 8.60723 9.73836 8.30448 10.4693C8.00173 11.2002 7.92252 12.0044 8.07686 12.7804C8.2312 13.5563 8.61216 14.269 9.17157 14.8284C9.73098 15.3878 10.4437 15.7688 11.2196 15.9231C11.9956 16.0775 12.7998 15.9983 13.5307 15.6955C14.2616 15.3928 14.8864 14.8801 15.3259 14.2223C15.7654 13.5645 16 12.7911 16 12C16 10.9391 15.5786 9.92172 14.8284 9.17157C14.0783 8.42143 13.0609 8 12 8ZM12 14.5C11.5055 14.5 11.0222 14.3534 10.6111 14.0787C10.2 13.804 9.87952 13.4135 9.6903 12.9567C9.50108 12.4999 9.45157 11.9972 9.54804 11.5123C9.6445 11.0273 9.8826 10.5819 10.2322 10.2322C10.5819 9.8826 11.0273 9.6445 11.5123 9.54804C11.9972 9.45157 12.4999 9.50108 12.9567 9.6903C13.4135 9.87952 13.804 10.2 14.0787 10.6111C14.3534 11.0222 14.5 11.5055 14.5 12C14.4992 12.6628 14.2356 13.2982 13.7669 13.7669C13.2982 14.2356 12.6628 14.4992 12 14.5Z" fill="black"/>
</svg>
