<svg width="24" height="24" viewBox="0 0 24 24" fill="none" xmlns="http://www.w3.org/2000/svg">
<path d="M17.1618 15.1013C18.4718 13.5169 19.1215 11.4889 18.9762 9.43825C18.8309 7.38755 17.9017 5.4715 16.3814 4.08762C14.8611 2.70373 12.8664 1.95824 10.8111 2.00581C8.75584 2.05338 6.79775 2.89036 5.3431 4.3431L4.7301 4.9561L3 3.226V7.774H7.548L5.793 6.019L6.406 5.406C7.46954 4.34388 8.86844 3.68338 10.3644 3.53702C11.8603 3.39066 13.3607 3.7675 14.6099 4.60333C15.8591 5.43917 16.7799 6.68229 17.2154 8.12089C17.6508 9.55949 17.574 11.1046 16.998 12.4929C16.422 13.8812 15.3825 15.0269 14.0565 15.7347C12.7305 16.4425 11.2001 16.6686 9.72612 16.3746C8.25209 16.0806 6.92561 15.2846 5.97266 14.1222C5.01972 12.9599 4.49927 11.5031 4.5 10H3C2.9999 11.5183 3.43191 13.0054 4.24557 14.2873C5.05922 15.5692 6.2209 16.5931 7.59487 17.2393C8.96884 17.8855 10.4983 18.1273 12.0046 17.9365C13.511 17.7457 14.9318 17.1302 16.1013 16.1618L21.97 22.03L23.03 20.97L17.1618 15.1013Z" fill="black"/>
</svg>
