<svg width="24" height="24" viewBox="0 0 24 24" fill="none" xmlns="http://www.w3.org/2000/svg">
<path d="M22.0299 20.97L16.1614 15.1016C17.4734 13.5171 18.1247 11.4882 17.9801 9.43615C17.8355 7.38408 16.906 5.46656 15.3848 4.08174C13.8636 2.69692 11.8674 1.95121 9.81083 1.99946C7.75425 2.0477 5.79525 2.88619 4.34063 4.34081C2.886 5.79544 2.04752 7.75443 1.99927 9.81101C1.95103 11.8676 2.69674 13.8638 4.08156 15.385C5.46638 16.9062 7.3839 17.8356 9.43596 17.9803C11.488 18.1249 13.5169 17.4736 15.1014 16.1616L20.9699 22.03L22.0299 20.97ZM3.49994 10C3.49994 8.71444 3.88116 7.45773 4.59539 6.38881C5.30961 5.3199 6.32478 4.48677 7.5125 3.9948C8.70022 3.50283 10.0071 3.37411 11.268 3.62492C12.5289 3.87572 13.6871 4.49479 14.5961 5.40383C15.5052 6.31287 16.1242 7.47106 16.375 8.73193C16.6258 9.99281 16.4971 11.2997 16.0052 12.4875C15.5132 13.6752 14.6801 14.6903 13.6111 15.4046C12.5422 16.1188 11.2855 16.5 9.99994 16.5C8.27663 16.4981 6.62447 15.8126 5.40591 14.5941C4.18735 13.3755 3.5019 11.7233 3.49994 10Z" fill="black"/>
</svg>
