<svg width="24" height="24" viewBox="0 0 24 24" fill="none" xmlns="http://www.w3.org/2000/svg">
<path d="M22.0145 8.44998L11.2692 19.1947C11.1996 19.2643 11.1443 19.347 11.1066 19.4381C11.069 19.5291 11.0496 19.6266 11.0496 19.7251C11.0496 19.8236 11.069 19.9212 11.1067 20.0122C11.1444 20.1032 11.1997 20.1859 11.2694 20.2555C11.339 20.3252 11.4217 20.3804 11.5128 20.4181C11.6038 20.4558 11.7013 20.4752 11.7998 20.4752C11.8983 20.4752 11.9959 20.4557 12.0869 20.418C12.1779 20.3803 12.2606 20.325 12.3302 20.2554L23.0752 9.50998L22.0145 8.44998ZM12.2722 15.3634L13.5994 14.0362C12.4198 13.7599 11.189 13.7905 10.0246 14.1251C8.8602 14.4598 7.80097 15.0872 6.94802 15.9477L8.01462 17.0145C8.53638 16.4879 9.15712 16.0697 9.84114 15.7839C10.5251 15.4981 11.2589 15.3505 12.0002 15.3494C12.092 15.3494 12.1815 15.359 12.2722 15.3634ZM19.1951 8.44048L20.2972 7.33838C17.2395 5.47103 13.6423 4.68719 10.0849 5.1131C6.52749 5.53901 3.21698 7.14988 0.686523 9.68628L1.76232 10.7621C4.00161 8.50066 6.9278 7.04594 10.0825 6.62582C13.2371 6.20569 16.4421 6.84391 19.1951 8.44048ZM15.9143 11.7213L17.0373 10.5984C14.8793 9.53942 12.4433 9.18476 10.073 9.58441C7.70262 9.98407 5.51758 11.1179 3.82612 12.8259L4.88892 13.8886C6.2991 12.466 8.10352 11.4991 10.069 11.1127C12.0344 10.7263 14.0706 10.9383 15.9143 11.7213Z" fill="black"/>
</svg>
