<svg width="24" height="24" viewBox="0 0 24 24" fill="none" xmlns="http://www.w3.org/2000/svg">
<path d="M3.87915 12.8792L4.93615 13.9362C5.86212 13.0056 6.96285 12.2672 8.17508 11.7633C9.38731 11.2594 10.6872 11 12 11C13.3127 11 14.6126 11.2594 15.8248 11.7633C17.0371 12.2672 18.1378 13.0056 19.0638 13.9362L20.1208 12.8792C19.0568 11.8083 17.7916 10.9585 16.3979 10.3785C15.0042 9.79857 13.5095 9.5 12 9.5C10.4904 9.5 8.99575 9.79857 7.60204 10.3785C6.20833 10.9585 4.94309 11.8083 3.87915 12.8792ZM7.09735 16.0974L8.14885 17.1489C8.65264 16.6397 9.25241 16.2355 9.91344 15.9596C10.5745 15.6838 11.2837 15.5417 12 15.5417C12.7162 15.5417 13.4254 15.6838 14.0865 15.9596C14.7475 16.2355 15.3473 16.6397 15.8511 17.1489L16.9025 16.0974C16.2628 15.4464 15.4998 14.9294 14.658 14.5764C13.8163 14.2235 12.9127 14.0417 12 14.0417C11.0872 14.0417 10.1836 14.2235 9.34188 14.5764C8.50014 14.9294 7.73713 15.4464 7.09735 16.0974ZM10.3084 19.3084L12 21L13.6916 19.3084C13.4734 19.0793 13.211 18.8969 12.9202 18.7722C12.6294 18.6476 12.3163 18.5833 12 18.5833C11.6836 18.5833 11.3705 18.6476 11.0797 18.7722C10.7889 18.8969 10.5265 19.0793 10.3084 19.3084Z" fill="black"/>
</svg>
