<svg width="24" height="24" viewBox="0 0 24 24" fill="none" xmlns="http://www.w3.org/2000/svg">
<path d="M3.71938 12.7194L5.05998 14.06C5.97016 13.1465 7.05174 12.4217 8.24267 11.9271C9.43359 11.4326 10.7104 11.178 12 11.178C13.2895 11.178 14.5664 11.4326 15.7573 11.9271C16.9482 12.4217 18.0298 13.1465 18.94 14.06L20.28 12.7195C19.1944 11.6287 17.9041 10.7632 16.483 10.1726C15.062 9.58196 13.5383 9.27792 11.9994 9.27792C10.4605 9.27792 8.93676 9.58196 7.51572 10.1726C6.09467 10.7632 4.80432 11.6287 3.71878 12.7195L3.71938 12.7194ZM6.82938 15.8294L8.16488 17.1649C8.66685 16.6584 9.2642 16.2563 9.92244 15.9819C10.5807 15.7075 11.2867 15.5662 11.9999 15.5662C12.713 15.5662 13.4191 15.7075 14.0773 15.9819C14.7356 16.2563 15.3329 16.6584 15.8349 17.1649L17.17 15.83C16.4945 15.1449 15.6895 14.6009 14.8019 14.2296C13.9143 13.8582 12.9618 13.667 11.9997 13.667C11.0375 13.667 10.085 13.8582 9.19742 14.2296C8.30983 14.6009 7.5049 15.1449 6.82938 15.83V15.8294ZM9.87058 18.8706L12 21L14.1291 18.8709C13.8545 18.5826 13.5242 18.353 13.1582 18.1961C12.7922 18.0392 12.3982 17.9584 12 17.9584C11.6018 17.9584 11.2078 18.0392 10.8418 18.1961C10.4758 18.353 10.1455 18.5826 9.87088 18.8709L9.87058 18.8706ZM12 5.00001C9.89843 4.99729 7.81705 5.40989 5.87547 6.21413C3.93388 7.01836 2.17037 8.19836 0.686279 9.68631L2.04228 11.0423C3.3471 9.72959 4.8986 8.68782 6.60753 7.97694C8.31646 7.26605 10.1491 6.90008 12 6.90008C13.8509 6.90008 15.6835 7.26605 17.3924 7.97694C19.1014 8.68782 20.6529 9.72959 21.9577 11.0423L23.3137 9.68631C21.8296 8.19836 20.0661 7.01836 18.1245 6.21413C16.1829 5.40989 14.1015 4.99729 12 5.00001Z" fill="black"/>
</svg>
