<svg width="24" height="24" viewBox="0 0 24 24" fill="none" xmlns="http://www.w3.org/2000/svg">
<path d="M21.8992 17.0842H18.9205L18 14.2513L17.08 17.0842H14.1008L16.5108 18.8351L15.59 21.668L18 19.9171L20.41 21.668L19.4895 18.8351L21.8992 17.0842ZM18.2939 19.5126L18 19.2991L17.7061 19.5126L16.5413 20.3589L16.9862 18.9896L17.0984 18.6441L16.8046 18.4305L15.6396 17.5842H17.4428L17.5551 17.2387L18 15.8693L18.4449 17.2387L18.5573 17.5842H20.36L19.1951 18.4305L18.9012 18.6441L19.0135 18.9896L19.4584 20.3589L18.2939 19.5126ZM19 11.75H5V12.25H19V11.75ZM19 5H5V5.5H19V5ZM5 19H12V18.5H5V19Z" fill="black"/>
</svg>
