<svg width="24" height="24" viewBox="0 0 24 24" fill="none" xmlns="http://www.w3.org/2000/svg">
<path d="M3 3V21H21V3H3ZM19.5 19.5H4.5V4.5H19.5V19.5ZM9.15 17H14.85C15.513 17 16.1489 16.7366 16.6178 16.2678C17.0866 15.7989 17.35 15.163 17.35 14.5C17.35 13.837 17.0866 13.2011 16.6178 12.7322C16.1489 12.2634 15.513 12 14.85 12H9.15C8.48696 12 7.85107 12.2634 7.38223 12.7322C6.91339 13.2011 6.65 13.837 6.65 14.5C6.65 15.163 6.91339 15.7989 7.38223 16.2678C7.85107 16.7366 8.48696 17 9.15 17ZM9.15 13.5H14.85C15.1152 13.5 15.3696 13.6054 15.5571 13.7929C15.7446 13.9804 15.85 14.2348 15.85 14.5C15.85 14.7652 15.7446 15.0196 15.5571 15.2071C15.3696 15.3946 15.1152 15.5 14.85 15.5H9.15C8.88478 15.5 8.63043 15.3946 8.44289 15.2071C8.25536 15.0196 8.15 14.7652 8.15 14.5C8.15 14.2348 8.25536 13.9804 8.44289 13.7929C8.63043 13.6054 8.88478 13.5 9.15 13.5Z" fill="black"/>
</svg>
