<svg width="24" height="24" viewBox="0 0 24 24" fill="none" xmlns="http://www.w3.org/2000/svg">
<path d="M9 20H10V12.9954L9 13.8954V20ZM4 20H5V17.4977L4 18.3977V20ZM14 20H15V8.493L14 9.3936V20ZM19.99 4L19 4.8912V20H20V4H19.99ZM9 5C9 4.46957 8.78929 3.96086 8.41421 3.58579C8.03914 3.21071 7.53043 3 7 3C6.46957 3 5.96086 3.21071 5.58579 3.58579C5.21071 3.96086 5 4.46957 5 5V6H4V10H10V6H9V5ZM5.9 5C5.9 4.85555 5.92845 4.71251 5.98373 4.57905C6.03901 4.44559 6.12004 4.32433 6.22218 4.22218C6.32433 4.12004 6.44559 4.03901 6.57905 3.98373C6.71251 3.92845 6.85555 3.9 7 3.9C7.14445 3.9 7.28749 3.92845 7.42095 3.98373C7.55441 4.03901 7.67567 4.12004 7.77782 4.22218C7.87996 4.32433 7.96099 4.44559 8.01627 4.57905C8.07155 4.71251 8.1 4.85555 8.1 5V6H5.9V5ZM9 9H5V7H9V9Z" fill="black"/>
</svg>
