<svg width="24" height="24" viewBox="0 0 24 24" fill="none" xmlns="http://www.w3.org/2000/svg">
<path d="M11 2.05048C8.74916 2.27544 6.64192 3.25978 5.0249 4.84158L6.1865 5.81608C7.50764 4.56814 9.19535 3.77855 11 3.56408V2.05048ZM4.8965 7.34448L3.7365 6.37078C2.4368 8.27631 1.83681 10.573 2.03842 12.8707C2.24003 15.1685 3.23082 17.3256 4.8425 18.9757L5.8166 17.8143C4.50451 16.4288 3.69955 14.6404 3.53252 12.7396C3.3655 10.8387 3.84623 8.9373 4.8966 7.34428L4.8965 7.34448ZM13 2.05048V3.56408C14.2736 3.71321 15.4969 4.14865 16.5782 4.83777C17.6596 5.52689 18.5709 6.45182 19.244 7.54324C19.917 8.63465 20.3343 9.86425 20.4646 11.1399C20.5949 12.4155 20.4348 13.7041 19.9963 14.909C19.5578 16.114 18.8522 17.2041 17.9325 18.0976C17.0128 18.9911 15.9028 19.6648 14.6857 20.0683C13.4686 20.4718 12.1759 20.5947 10.9046 20.4276C9.63323 20.2605 8.41621 19.8078 7.3447 19.1035L6.3711 20.2635C7.62972 21.121 9.06761 21.6798 10.575 21.897C12.0825 22.1143 13.6196 21.9843 15.0692 21.5171C16.5188 21.0499 17.8424 20.2577 18.9392 19.201C20.036 18.1443 20.877 16.851 21.3979 15.4199C21.9188 13.9887 22.1058 12.4574 21.9449 10.943C21.7839 9.42849 21.2791 7.97079 20.469 6.68111C19.6589 5.39142 18.5649 4.30383 17.2704 3.50131C15.976 2.69879 14.5154 2.20256 13 2.05048Z" fill="black"/>
</svg>
