<svg width="24" height="24" viewBox="0 0 24 24" fill="none" xmlns="http://www.w3.org/2000/svg">
<path d="M11 3.00002C11.9192 2.99942 12.8295 3.18045 13.6785 3.5327C14.5275 3.88495 15.2986 4.40148 15.9474 5.05262L17.2808 6.38612H13.8839V7.38612H19V2.27002H18V5.68632L16.6568 4.34322C15.538 3.22442 14.1125 2.46251 12.5607 2.15384C11.0089 1.84516 9.40034 2.00359 7.93855 2.60908C6.47675 3.21458 5.22733 4.23994 4.34828 5.55551C3.46922 6.87109 3.00002 8.41778 3 10H4C4.00209 8.14414 4.74026 6.36488 6.05256 5.05258C7.36486 3.74028 9.14413 3.00211 11 3.00002ZM16.9935 15.2865C18.2868 13.8293 19.0007 11.9484 19 10H18C18.0006 11.3845 17.5905 12.7381 16.8216 13.8894C16.0526 15.0407 14.9593 15.938 13.6802 16.4677C12.401 16.9974 10.9935 17.1357 9.6357 16.865C8.27791 16.5944 7.03093 15.9271 6.0526 14.9474L4.7193 13.6138H8.1161V12.6138H3V17.73H4V14.3137L5.3431 15.6568C6.78083 17.0968 8.71411 17.9336 10.748 17.9962C12.7819 18.0587 14.763 17.3424 16.2865 15.9934L22.1465 21.8534L22.8535 21.1464L16.9935 15.2865Z" fill="black"/>
</svg>
