<svg width="24" height="24" viewBox="0 0 24 24" fill="none" xmlns="http://www.w3.org/2000/svg">
<path d="M16.1617 15.1013C17.4736 13.5168 18.1249 11.4879 17.9803 9.43584C17.8357 7.38378 16.9063 5.46626 15.385 4.08144C13.8638 2.69662 11.8677 1.95091 9.81108 1.99915C7.75449 2.04739 5.7955 2.88588 4.34087 4.34051C2.88625 5.79513 2.04776 7.75412 1.99952 9.81071C1.95127 11.8673 2.69698 13.8634 4.0818 15.3847C5.46662 16.9059 7.38414 17.8353 9.43621 17.98C11.4883 18.1246 13.5172 17.4733 15.1017 16.1613L20.9699 22.03L22.0299 20.97L16.1617 15.1013ZM9.99988 16.5C8.7143 16.5 7.4576 16.1188 6.38868 15.4046C5.31976 14.6903 4.48663 13.6752 3.99467 12.4875C3.5027 11.2997 3.37397 9.99281 3.62478 8.73193C3.87558 7.47105 4.49465 6.31286 5.40369 5.40382C6.31273 4.49478 7.47092 3.87572 8.73179 3.62491C9.99267 3.37411 11.2996 3.50283 12.4873 3.9948C13.675 4.48677 14.6902 5.31989 15.4044 6.38881C16.1187 7.45773 16.4999 8.71444 16.4999 10C16.4979 11.7233 15.8125 13.3755 14.5939 14.594C13.3754 15.8126 11.7232 16.4981 9.99988 16.5ZM6.55278 10.7H13.447V9.30002H6.55278V10.7Z" fill="black"/>
</svg>
