<svg width="24" height="24" viewBox="0 0 24 24" fill="none" xmlns="http://www.w3.org/2000/svg">
<path d="M12 2C10.0222 2 8.08879 2.58649 6.4443 3.6853C4.79981 4.78412 3.51809 6.3459 2.76121 8.17317C2.00433 10.0004 1.8063 12.0111 2.19215 13.9509C2.578 15.8907 3.53041 17.6725 4.92894 19.0711C6.32746 20.4696 8.10929 21.422 10.0491 21.8079C11.9889 22.1937 13.9996 21.9957 15.8268 21.2388C17.6541 20.4819 19.2159 19.2002 20.3147 17.5557C21.4135 15.9112 22 13.9778 22 12C22 10.6868 21.7413 9.38642 21.2388 8.17317C20.7363 6.95991 19.9997 5.85752 19.0711 4.92893C18.1425 4.00035 17.0401 3.26375 15.8268 2.7612C14.6136 2.25866 13.3132 2 12 2ZM12 20.5C10.3189 20.5 8.67548 20.0015 7.27766 19.0675C5.87984 18.1335 4.79037 16.806 4.14703 15.2528C3.50368 13.6996 3.33536 11.9906 3.66333 10.3417C3.9913 8.69289 4.80085 7.17834 5.9896 5.98959C7.17834 4.80085 8.6929 3.9913 10.3417 3.66333C11.9906 3.33535 13.6996 3.50368 15.2528 4.14702C16.806 4.79037 18.1335 5.87984 19.0675 7.27765C20.0015 8.67547 20.5 10.3189 20.5 12C20.4974 14.2535 19.601 16.414 18.0075 18.0075C16.414 19.601 14.2535 20.4974 12 20.5ZM12 10.9C11.7824 10.9 11.5698 10.9645 11.3889 11.0854C11.208 11.2063 11.067 11.378 10.9837 11.579C10.9005 11.78 10.8787 12.0012 10.9211 12.2146C10.9636 12.428 11.0683 12.624 11.2222 12.7778C11.376 12.9317 11.572 13.0364 11.7854 13.0789C11.9988 13.1213 12.22 13.0995 12.421 13.0163C12.622 12.933 12.7938 12.792 12.9146 12.6111C13.0355 12.4302 13.1 12.2176 13.1 12C13.1 11.7083 12.9841 11.4285 12.7778 11.2222C12.5715 11.0159 12.2917 10.9 12 10.9Z" fill="black"/>
</svg>
