<svg width="24" height="24" viewBox="0 0 24 24" fill="none" xmlns="http://www.w3.org/2000/svg">
<path d="M12.0002 5.00002C9.89867 4.99729 7.81729 5.4099 5.87571 6.21413C3.93413 7.01836 2.17062 8.19836 0.686523 9.68632L2.04252 11.0423C3.34749 9.72979 4.89902 8.68814 6.60792 7.97726C8.31681 7.26637 10.1494 6.90028 12.0002 6.90002V5.00002ZM12.0002 9.27782C10.4611 9.2762 8.93688 9.5795 7.51562 10.1702C6.09435 10.7609 4.80419 11.6273 3.71962 12.7194L5.06022 14.06C5.97013 13.1461 7.05165 12.4211 8.24264 11.9264C9.43363 11.4318 10.7106 11.1774 12.0002 11.1778V9.27782ZM9.87112 18.8709L12.0002 21L14.1293 18.8709C13.8547 18.5826 13.5244 18.353 13.1584 18.1961C12.7924 18.0392 12.3984 17.9584 12.0002 17.9584C11.602 17.9584 11.208 18.0392 10.842 18.1961C10.476 18.353 10.1457 18.5826 9.87112 18.8709ZM6.83022 15.83L8.16572 17.1655C8.6677 16.659 9.26505 16.2569 9.92328 15.9825C10.5815 15.7081 11.2876 15.5668 12.0007 15.5668C12.7139 15.5668 13.4199 15.7081 14.0782 15.9825C14.7364 16.2569 15.3337 16.659 15.8357 17.1655L17.1702 15.83C16.4947 15.1449 15.6898 14.6009 14.8022 14.2296C13.9146 13.8582 12.9621 13.667 11.9999 13.667C11.0378 13.667 10.0853 13.8582 9.19767 14.2296C8.31008 14.6009 7.50514 15.1449 6.82962 15.83H6.83022ZM18.8002 6.20002V3.55292H17.2002V6.20002H14.5531V7.80002H17.2002V10.4467H18.8002V7.80002H21.4469V6.20002H18.8002Z" fill="black"/>
</svg>
