<svg width="24" height="24" viewBox="0 0 24 24" fill="none" xmlns="http://www.w3.org/2000/svg">
<path d="M16.6765 7.32337C16.3006 6.08323 15.6098 4.96165 14.6714 4.06796C13.733 3.17427 12.5791 2.53896 11.3221 2.22397C10.0651 1.90898 8.74793 1.92505 7.49899 2.27062C6.25006 2.61618 5.11197 3.27946 4.19567 4.19578C3.27936 5.1121 2.61611 6.25021 2.27057 7.49915C1.92503 8.74809 1.90899 10.0653 2.22401 11.3222C2.53903 12.5792 3.17436 13.7332 4.06807 14.6715C4.96178 15.6099 6.08338 16.3007 7.32353 16.6766C7.69944 17.9167 8.39026 19.0383 9.32865 19.932C10.267 20.8257 11.421 21.461 12.678 21.776C13.935 22.091 15.2521 22.0749 16.5011 21.7293C17.75 21.3838 18.8881 20.7205 19.8044 19.8042C20.7207 18.8878 21.3839 17.7497 21.7295 16.5008C22.075 15.2519 22.0911 13.9347 21.776 12.6777C21.461 11.4207 20.8257 10.2668 19.932 9.32842C19.0383 8.39006 17.9167 7.69926 16.6765 7.32337ZM3.00003 9.49997C2.99942 7.99034 3.52452 6.52761 4.48514 5.36304C5.44575 4.19848 6.78191 3.40477 8.26411 3.11825C9.7463 2.83173 11.282 3.0703 12.6074 3.79296C13.9329 4.51562 14.9653 5.67727 15.5273 7.07837C14.3788 6.90999 13.2069 7.01241 12.105 7.37746C11.0031 7.74252 10.0018 8.36009 9.181 9.1809C8.36021 10.0017 7.74266 11.003 7.37764 12.1049C7.01261 13.2068 6.91021 14.3788 7.07863 15.5273C5.87559 15.0434 4.84457 14.2111 4.11785 13.1372C3.39114 12.0632 3.00188 10.7967 3.00003 9.49997ZM8.00003 14.5C8.00125 14.0238 8.05491 13.5491 8.16003 13.0847L10.9153 15.84C10.004 16.0478 9.05814 16.0531 8.14453 15.8555C8.04897 15.41 8.00054 14.9556 8.00003 14.5ZM11.9912 15.5018L8.49803 12.0089C8.76196 11.3787 9.12349 10.794 9.56933 10.2763L13.7236 14.4307C13.206 14.8765 12.6214 15.2379 11.9912 15.5018ZM14.4312 13.7237L10.2764 9.56927C10.7944 9.12321 11.3794 8.76163 12.01 8.49787L15.502 11.99C15.2382 12.6206 14.8767 13.2056 14.4307 13.7237H14.4312ZM16 9.49997C15.9988 9.97595 15.9451 10.4503 15.84 10.9146L13.0854 8.15997C13.9965 7.95234 14.9421 7.94712 15.8554 8.14467C15.951 8.59012 15.9995 9.04439 16 9.49997ZM14.5 21C13.2033 20.9981 11.9368 20.6089 10.8629 19.8822C9.78894 19.1556 8.95663 18.1246 8.47273 16.9216C9.62123 17.09 10.7932 16.9875 11.8951 16.6225C12.997 16.2574 13.9983 15.6399 14.819 14.819C15.6398 13.9982 16.2574 12.9969 16.6224 11.895C16.9874 10.7931 17.0898 9.62117 16.9214 8.47267C18.3226 9.03463 19.4844 10.067 20.2071 11.3924C20.9299 12.7179 21.1685 14.2536 20.882 15.7359C20.5955 17.2181 19.8017 18.5543 18.6371 19.515C17.4725 20.4756 16.0097 21.0007 14.5 21Z" fill="black"/>
</svg>
