<svg width="24" height="24" viewBox="0 0 24 24" fill="none" xmlns="http://www.w3.org/2000/svg">
<path d="M6.99998 12C6.9998 10.7334 7.26794 9.48113 7.78676 8.32566C8.30557 7.1702 9.06328 6.13774 10.01 5.2963C8.96462 4.98208 7.86026 4.91668 6.78512 5.10534C5.70998 5.294 4.69386 5.73147 3.81793 6.38283C2.942 7.03418 2.23054 7.88135 1.74038 8.85667C1.25021 9.832 0.994934 10.9084 0.994934 12C0.994934 13.0916 1.25021 14.168 1.74038 15.1433C2.23054 16.1186 2.942 16.9658 3.81793 17.6172C4.69386 18.2685 5.70998 18.706 6.78512 18.8947C7.86026 19.0833 8.96462 19.0179 10.01 18.7037C9.06328 17.8623 8.30557 16.8298 7.78676 15.6743C7.26794 14.5189 6.9998 13.2666 6.99998 12ZM16 5C14.6155 5 13.2621 5.41054 12.111 6.17971C10.9598 6.94888 10.0626 8.04213 9.53282 9.32122C9.00301 10.6003 8.86439 12.0078 9.13448 13.3656C9.40458 14.7235 10.0713 15.9708 11.0502 16.9497C12.0292 17.9287 13.2765 18.5954 14.6343 18.8655C15.9922 19.1356 17.3997 18.997 18.6788 18.4672C19.9578 17.9373 21.0511 17.0401 21.8203 15.889C22.5894 14.7378 23 13.3845 23 12C23 10.1435 22.2625 8.36301 20.9497 7.05025C19.637 5.7375 17.8565 5 16 5ZM18.6667 12.8H16.9667V14.5H15.3662V12.8H13.6667V11.2H15.3662V9.5H16.967V11.2H18.667L18.6667 12.8Z" fill="black"/>
</svg>
