<svg width="24" height="24" viewBox="0 0 24 24" fill="none" xmlns="http://www.w3.org/2000/svg">
<path d="M12.0002 9.2778C10.4611 9.27619 8.93689 9.5795 7.51563 10.1702C6.09436 10.7609 4.80419 11.6273 3.71962 12.7194L5.06022 14.06C5.97013 13.1461 7.05165 12.421 8.24264 11.9264C9.43363 11.4318 10.7106 11.1774 12.0002 11.1778V9.2778ZM12.0002 5C9.89867 4.99727 7.81729 5.40988 5.87571 6.21411C3.93413 7.01835 2.17062 8.19835 0.686523 9.6863L2.04242 11.0423C3.34742 9.72978 4.89897 8.68815 6.60788 7.97727C8.31679 7.26638 10.1494 6.90028 12.0002 6.9V5ZM9.87102 18.8709L12.0002 21L14.1293 18.8709C13.8547 18.5825 13.5244 18.3529 13.1584 18.1961C12.7924 18.0392 12.3984 17.9583 12.0002 17.9583C11.602 17.9583 11.2079 18.0392 10.8419 18.1961C10.4759 18.3529 10.1456 18.5825 9.87102 18.8709ZM6.83022 15.83L8.16572 17.1655C8.6677 16.659 9.26505 16.2569 9.92328 15.9825C10.5815 15.7081 11.2876 15.5668 12.0007 15.5668C12.7139 15.5668 13.4199 15.7081 14.0782 15.9825C14.7364 16.2569 15.3337 16.659 15.8357 17.1655L17.1702 15.83C16.4947 15.1449 15.6898 14.6009 14.8022 14.2295C13.9146 13.8582 12.9621 13.667 11.9999 13.667C11.0378 13.667 10.0853 13.8582 9.19767 14.2295C8.31008 14.6009 7.50514 15.1449 6.82962 15.83H6.83022ZM18.758 8L19.219 3H16.7814L17.2424 8H18.758ZM18.0002 9C17.8024 9 17.6091 9.05865 17.4447 9.16853C17.2802 9.27841 17.152 9.43459 17.0763 9.61732C17.0007 9.80004 16.9809 10.0011 17.0194 10.1951C17.058 10.3891 17.1533 10.5673 17.2931 10.7071C17.433 10.847 17.6112 10.9422 17.8051 10.9808C17.9991 11.0194 18.2002 10.9996 18.3829 10.9239C18.5656 10.8482 18.7218 10.72 18.8317 10.5556C18.9416 10.3911 19.0002 10.1978 19.0002 10C19.0002 9.73478 18.8949 9.48043 18.7073 9.29289C18.5198 9.10536 18.2654 9 18.0002 9Z" fill="black"/>
</svg>
