<svg width="24" height="24" viewBox="0 0 24 24" fill="none" xmlns="http://www.w3.org/2000/svg">
<path d="M20.874 16.0063C20.5961 15.7287 20.3757 15.3988 20.2257 15.0357C20.0758 14.6726 19.999 14.2835 20 13.8906V9C20 6.87827 19.1571 4.84344 17.6569 3.34315C16.1566 1.84285 14.1217 1 12 1C9.87827 1 7.84344 1.84285 6.34315 3.34315C4.84285 4.84344 4 6.87827 4 9V13.8906C4.00094 14.2835 3.92421 14.6728 3.77422 15.0359C3.62423 15.3991 3.40393 15.729 3.126 16.0068L2 17.1387V20H8.6626C8.87391 20.7215 9.31332 21.355 9.915 21.8058C10.5167 22.2565 11.2482 22.5001 12 22.5001C12.7518 22.5001 13.4833 22.2565 14.085 21.8058C14.6867 21.355 15.1261 20.7215 15.3374 20H22V17.1387L20.874 16.0063ZM12 22C11.3829 21.9974 10.7818 21.8037 10.2793 21.4456C9.77682 21.0875 9.3976 20.5824 9.1938 20H14.8062C14.6024 20.5824 14.2232 21.0875 13.7207 21.4456C13.2182 21.8037 12.6171 21.9974 12 22ZM21.5 19.5H2.5V17.345L3.4805 16.3594C3.80465 16.0353 4.06158 15.6504 4.23654 15.2267C4.4115 14.803 4.50103 14.349 4.5 13.8906V9C4.5 7.01088 5.29018 5.10322 6.6967 3.6967C8.10322 2.29018 10.0109 1.5 12 1.5C13.9891 1.5 15.8968 2.29018 17.3033 3.6967C18.7098 5.10322 19.5 7.01088 19.5 9V13.8906C19.4989 14.3489 19.5885 14.803 19.7636 15.2266C19.9386 15.6502 20.1957 16.035 20.52 16.3589L21.5 17.3449V19.5ZM14.2607 8.3857L12 10.6465L9.7393 8.3857L9.3857 8.7393L11.6465 11L9.3857 13.2607L9.7393 13.6143L12 11.3535L14.2607 13.6143L14.6143 13.2607L12.3535 11L14.6143 8.7393L14.2607 8.3857Z" fill="black"/>
</svg>
