<svg width="24" height="24" viewBox="0 0 24 24" fill="none" xmlns="http://www.w3.org/2000/svg">
<path d="M19.25 7.0253V3H18.75V7.0253C18.915 6.99157 19.085 6.99157 19.25 7.0253ZM12 13.5C11.7033 13.5 11.4133 13.588 11.1666 13.7528C10.92 13.9176 10.7277 14.1519 10.6142 14.426C10.5006 14.7001 10.4709 15.0017 10.5288 15.2926C10.5867 15.5836 10.7296 15.8509 10.9393 16.0607C11.1491 16.2704 11.4164 16.4133 11.7074 16.4712C11.9983 16.5291 12.2999 16.4993 12.574 16.3858C12.8481 16.2723 13.0824 16.08 13.2472 15.8334C13.412 15.5867 13.5 15.2967 13.5 15C13.5 14.6022 13.342 14.2206 13.0607 13.9393C12.7794 13.658 12.3978 13.5 12 13.5ZM12.25 13.0253V3H11.75V13.0253C11.8327 13.0115 11.9162 13.0031 12 13C12.0838 13.0031 12.1673 13.0115 12.25 13.0253ZM19 7.5C18.7033 7.5 18.4133 7.58797 18.1666 7.7528C17.92 7.91762 17.7277 8.15189 17.6142 8.42597C17.5007 8.70006 17.4709 9.00166 17.5288 9.29264C17.5867 9.58361 17.7296 9.85088 17.9393 10.0607C18.1491 10.2704 18.4164 10.4133 18.7074 10.4712C18.9983 10.5291 19.2999 10.4994 19.574 10.3858C19.8481 10.2723 20.0824 10.08 20.2472 9.83335C20.412 9.58668 20.5 9.29667 20.5 9C20.5 8.60218 20.342 8.22064 20.0607 7.93934C19.7794 7.65804 19.3978 7.5 19 7.5ZM11.75 16.9747V21H12.25V16.9747C12.1673 16.9885 12.0838 16.9969 12 17C11.9162 16.9969 11.8327 16.9885 11.75 16.9747ZM4.75 10.9747V21H5.25V10.9747C5.16729 10.9885 5.08379 10.9969 5 11C4.91621 10.9969 4.83271 10.9885 4.75 10.9747ZM18.75 10.9747V21H19.25V10.9747C19.085 11.0084 18.915 11.0084 18.75 10.9747ZM5.25 7.0253V3H4.75V7.0253C4.83271 7.01153 4.91621 7.00308 5 7C5.08379 7.00308 5.16729 7.01153 5.25 7.0253ZM5 7.5C4.70333 7.5 4.41332 7.58797 4.16665 7.7528C3.91997 7.91762 3.72771 8.15189 3.61418 8.42597C3.50065 8.70006 3.47094 9.00166 3.52882 9.29264C3.5867 9.58361 3.72956 9.85088 3.93934 10.0607C4.14912 10.2704 4.41639 10.4133 4.70737 10.4712C4.99834 10.5291 5.29994 10.4994 5.57403 10.3858C5.84811 10.2723 6.08238 10.08 6.2472 9.83335C6.41203 9.58668 6.5 9.29667 6.5 9C6.5 8.60218 6.34197 8.22064 6.06066 7.93934C5.77936 7.65804 5.39783 7.5 5 7.5Z" fill="black"/>
</svg>
