<svg width="24" height="24" viewBox="0 0 24 24" fill="none" xmlns="http://www.w3.org/2000/svg">
<path d="M19.09 7H4.91L6.265 22H23V21H17.8254L18.2169 16.6666H23V15.6666H18.3073L18.6987 11.3333H23V10.3333H18.7891L19.09 7ZM15 5V4C15 3.46957 14.7893 2.96086 14.4142 2.58579C14.0391 2.21071 13.5304 2 13 2H11C10.4696 2 9.96086 2.21071 9.58579 2.58579C9.21071 2.96086 9 3.46957 9 4V5H3V6H23V5H15ZM14 5H10V4C10.0003 3.73487 10.1057 3.48069 10.2932 3.29321C10.4807 3.10574 10.7349 3.00029 11 3H13C13.2651 3.00029 13.5193 3.10574 13.7068 3.29321C13.8943 3.48069 13.9997 3.73487 14 4V5Z" fill="black"/>
</svg>
