<svg width="24" height="24" viewBox="0 0 24 24" fill="none" xmlns="http://www.w3.org/2000/svg">
<path d="M4 20H6V16.5972L4 18.3981V20ZM8.6667 20H10.6667V12.3951L8.6667 14.196V20ZM13.3334 20H15.3334V8.1929L13.3334 9.9938V20ZM19.99 4L18 5.7917V20H20V4H19.99ZM10 6H9V5C9 4.46957 8.78929 3.96086 8.41421 3.58579C8.03914 3.21071 7.53043 3 7 3C6.46957 3 5.96086 3.21071 5.58579 3.58579C5.21071 3.96086 5 4.46957 5 5V6H4V10H10V6ZM7.6 6H6.4V5C6.4 4.84087 6.46321 4.68826 6.57574 4.57574C6.68826 4.46321 6.84087 4.4 7 4.4C7.15913 4.4 7.31174 4.46321 7.42426 4.57574C7.53679 4.68826 7.6 4.84087 7.6 5V6Z" fill="black"/>
</svg>
