<svg width="24" height="24" viewBox="0 0 24 24" fill="none" xmlns="http://www.w3.org/2000/svg">
<path d="M21.2813 8.47407L19.4425 9.25927C19.9377 10.4259 20.106 11.7053 19.9291 12.9603C19.7522 14.2153 19.237 15.3984 18.4386 16.3827C17.9994 16.135 17.5043 16.0033 17.0001 16C16.3537 15.9964 15.7233 16.2006 15.2017 16.5824C14.6801 16.9642 14.295 17.5035 14.103 18.1208C13.9111 18.738 13.9225 19.4006 14.1356 20.0109C14.3486 20.6211 14.7521 21.1468 15.2865 21.5105C15.8209 21.8741 16.458 22.0565 17.1039 22.0307C17.7498 22.0049 18.3703 21.7724 18.874 21.3673C19.3778 20.9622 19.738 20.406 19.9018 19.7807C20.0655 19.1553 20.0241 18.4939 19.7835 17.894C20.8924 16.6228 21.6209 15.0651 21.8858 13.3992C22.1507 11.7333 21.9412 10.0265 21.2813 8.47407ZM17.0001 20.2C16.7628 20.2 16.5308 20.1296 16.3334 19.9977C16.1361 19.8659 15.9823 19.6785 15.8915 19.4592C15.8006 19.2399 15.7769 18.9986 15.8232 18.7659C15.8695 18.5331 15.9838 18.3193 16.1516 18.1514C16.3194 17.9836 16.5332 17.8693 16.766 17.823C16.9988 17.7767 17.2401 17.8005 17.4593 17.8913C17.6786 17.9821 17.866 18.1359 17.9979 18.3333C18.1297 18.5306 18.2001 18.7626 18.2001 19C18.1997 19.3181 18.0732 19.6231 17.8482 19.8481C17.6233 20.0731 17.3183 20.1996 17.0001 20.2ZM14.4642 6.53587C14.7849 7.09651 15.2773 7.53923 15.8688 7.79871C16.4602 8.05818 17.1194 8.12068 17.7491 7.97697C18.3788 7.83326 18.9456 7.49096 19.3659 7.00057C19.7863 6.51018 20.0378 5.89767 20.0835 5.25341C20.1292 4.60915 19.9667 3.96727 19.6198 3.42245C19.2729 2.87764 18.76 2.45876 18.1569 2.2276C17.5539 1.99644 16.8924 1.96526 16.2703 2.13865C15.6481 2.31203 15.0981 2.68081 14.7015 3.19057C13.0491 2.86548 11.3385 3.01193 9.76544 3.61319C8.19233 4.21444 6.82016 5.24622 5.80581 6.59057L7.40581 7.79057C8.16862 6.77852 9.19256 5.99325 10.3678 5.51899C11.543 5.04474 12.8252 4.8994 14.0768 5.09857C14.0817 5.60281 14.215 6.09748 14.4642 6.53587ZM15.9032 4.72527C15.9715 4.47053 16.1218 4.24537 16.3308 4.08452C16.5398 3.92367 16.796 3.83608 17.0597 3.83527C17.3243 3.83442 17.5818 3.92107 17.7921 4.08172C18.0024 4.24238 18.1536 4.46803 18.2224 4.72357C18.2911 4.97912 18.2734 5.25021 18.1721 5.49467C18.0708 5.73913 17.8916 5.94326 17.6622 6.07527C17.481 6.18119 17.2749 6.23687 17.065 6.23657C16.854 6.23643 16.6468 6.18095 16.4639 6.07566C16.2811 5.97038 16.129 5.81898 16.023 5.63657C15.9437 5.50015 15.8923 5.34936 15.8718 5.19293C15.8512 5.0365 15.8619 4.87754 15.9032 4.72527ZM6.48591 14.5226C7.0462 14.1811 7.47874 13.6649 7.71699 13.0536C7.95523 12.4422 7.98598 11.7695 7.80449 11.1389C7.623 10.5084 7.23933 9.9549 6.71253 9.56373C6.18573 9.17255 5.54498 8.96533 4.88888 8.97394C4.23278 8.98255 3.59769 9.20652 3.08134 9.61138C2.56498 10.0162 2.19597 10.5796 2.0311 11.2147C1.86622 11.8498 1.9146 12.5215 2.16881 13.1264C2.42302 13.7313 2.86896 14.2359 3.43801 14.5626C3.77052 14.7467 4.13549 14.8647 4.51281 14.9102C5.05461 16.5088 6.03641 17.9222 7.34541 18.988C8.65441 20.0537 10.2375 20.7285 11.9128 20.935L12.152 18.9496C10.8947 18.7953 9.70314 18.3018 8.70497 17.5219C7.7068 16.742 6.93971 15.7052 6.48591 14.5226ZM5.97721 12.5641C5.87126 12.7466 5.71927 12.8981 5.53642 13.0035C5.35356 13.1089 5.14626 13.1644 4.93521 13.1646C4.72535 13.1649 4.5192 13.1093 4.33801 13.0034C4.10864 12.8713 3.92935 12.6672 3.82805 12.4227C3.72675 12.1782 3.70912 11.907 3.7779 11.6515C3.84669 11.3959 3.99803 11.1703 4.20837 11.0096C4.41872 10.849 4.67626 10.7624 4.94091 10.7634C5.20457 10.7643 5.46058 10.852 5.6695 11.0128C5.87842 11.1737 6.02864 11.3987 6.09701 11.6534C6.13825 11.8056 6.1489 11.9644 6.12833 12.1207C6.10777 12.277 6.05641 12.4277 5.97721 12.5641Z" fill="black"/>
</svg>
