<svg width="24" height="24" viewBox="0 0 24 24" fill="none" xmlns="http://www.w3.org/2000/svg">
<path d="M18.6108 8.67133L20.0773 7.20483C17.0275 5.4101 13.4676 4.67992 9.95751 5.12912C6.4474 5.57832 3.18613 7.18142 0.686523 9.68633L2.11202 11.1118C4.23084 8.97969 6.98242 7.59001 9.95597 7.15025C12.9295 6.71049 15.9656 7.24425 18.6108 8.67183V8.67133ZM15.2655 12.0167L16.8021 10.48C14.6592 9.49341 12.2649 9.18883 9.9432 9.60747C7.6215 10.0261 5.4844 11.1478 3.82102 12.8207L5.25022 14.25C6.52534 12.9499 8.14987 12.047 9.9273 11.6507C11.7047 11.2543 13.5589 11.3815 15.2656 12.0168L15.2655 12.0167ZM13.3066 13.9756C12.1667 13.757 10.9905 13.8231 9.88232 14.1683C8.77414 14.5134 7.76832 15.1267 6.95412 15.9539L8.36842 17.368C9.17872 16.5633 10.2342 16.0517 11.3679 15.9142L13.3066 13.9756ZM21.8377 8.27283L11.2692 18.8412C11.0817 19.0288 10.9763 19.2831 10.9763 19.5484C10.9764 19.8136 11.0817 20.0679 11.2693 20.2555C11.4568 20.443 11.7112 20.5484 11.9764 20.5484C12.2416 20.5483 12.496 20.443 12.6835 20.2554L23.2519 9.68703L21.8377 8.27283Z" fill="black"/>
</svg>
