<svg width="24" height="24" viewBox="0 0 24 24" fill="none" xmlns="http://www.w3.org/2000/svg">
<path d="M15.8254 15.4717C17.2669 13.9374 18.0473 11.8978 17.998 9.79316C17.9488 7.68851 17.074 5.68761 15.5623 4.22237C14.0507 2.75714 12.0235 1.94508 9.91833 1.96149C7.81316 1.97789 5.79887 2.82145 4.31025 4.31007C2.82163 5.79869 1.97808 7.81298 1.96167 9.91814C1.94526 12.0233 2.75732 14.0505 4.22256 15.5621C5.68779 17.0738 7.68869 17.9486 9.79334 17.9979C11.898 18.0471 13.9376 17.2667 15.4719 15.8252L21.3234 21.6768L21.677 21.3232L15.8254 15.4717ZM10.0002 17.5C8.51683 17.5 7.06678 17.0601 5.83342 16.236C4.60005 15.4119 3.63875 14.2406 3.0711 12.8701C2.50344 11.4997 2.35491 9.99169 2.6443 8.53683C2.93369 7.08197 3.648 5.7456 4.69689 4.69671C5.74579 3.64782 7.08216 2.93351 8.53702 2.64412C9.99187 2.35473 11.4999 2.50326 12.8703 3.07091C14.2408 3.63857 15.4121 4.59986 16.2362 5.83323C17.0603 7.0666 17.5002 8.51665 17.5002 10C17.4979 11.9884 16.707 13.8948 15.301 15.3008C13.895 16.7069 11.9886 17.4978 10.0002 17.5ZM10.0002 8.79381C10.3166 8.79381 10.626 8.69997 10.8891 8.52416C11.1522 8.34835 11.3573 8.09847 11.4784 7.8061C11.5995 7.51374 11.6312 7.19204 11.5694 6.88167C11.5077 6.5713 11.3553 6.2862 11.1316 6.06244C10.9078 5.83868 10.6227 5.68629 10.3123 5.62455C10.002 5.56282 9.68026 5.5945 9.3879 5.7156C9.09554 5.8367 8.84565 6.04178 8.66984 6.3049C8.49403 6.56802 8.40019 6.87736 8.40019 7.19381C8.40019 7.61816 8.56876 8.02512 8.86882 8.32518C9.16888 8.62524 9.57585 8.79381 10.0002 8.79381ZM10.0002 6.09381C10.2178 6.09381 10.4304 6.15832 10.6113 6.27919C10.7922 6.40006 10.9332 6.57186 11.0165 6.77286C11.0997 6.97386 11.1215 7.19503 11.0791 7.40841C11.0366 7.62179 10.9318 7.81779 10.778 7.97163C10.6242 8.12546 10.4282 8.23023 10.2148 8.27267C10.0014 8.31512 9.78024 8.29333 9.57924 8.21008C9.37824 8.12682 9.20645 7.98583 9.08558 7.80494C8.96471 7.62404 8.90019 7.41137 8.90019 7.19381C8.90051 6.90217 9.01651 6.62256 9.22273 6.41634C9.42895 6.21012 9.70855 6.09413 10.0002 6.09381ZM6.50019 11.147V13H13.5002V11.147C12.5719 10.2188 11.3129 9.69737 10.0002 9.69737C8.68746 9.69737 7.42848 10.2188 6.50019 11.147ZM13.0002 12.5H7.00019V11.3605C7.82009 10.6121 8.8901 10.1972 10.0002 10.1972C11.1103 10.1972 12.1803 10.6121 13.0002 11.3605V12.5Z" fill="black"/>
</svg>
