<svg width="24" height="24" viewBox="0 0 24 24" fill="none" xmlns="http://www.w3.org/2000/svg">
<path d="M12 2C10.086 1.99836 8.21183 2.5465 6.60036 3.57923C4.98888 4.61196 3.70795 6.08582 2.90992 7.82551C2.11188 9.5652 1.83033 11.4975 2.09874 13.3926C2.36716 15.2877 3.17425 17.0658 4.42401 18.5154L18.5155 4.424C16.7057 2.85903 14.3926 1.99849 12 2ZM19.576 5.4845L5.48461 19.576C7.39487 21.223 9.85736 22.0866 12.3779 21.9935C14.8984 21.9004 17.2905 20.8574 19.074 19.0739C20.8575 17.2904 21.9004 14.8983 21.9936 12.3778C22.0867 9.85724 21.2231 7.39475 19.576 5.4845Z" fill="black"/>
</svg>
