<svg width="24" height="24" viewBox="0 0 24 24" fill="none" xmlns="http://www.w3.org/2000/svg">
<path d="M16 5C15.3191 5.00035 14.642 5.10017 13.99 5.2963C14.2787 5.5533 14.5506 5.82857 14.804 6.1204C15.6755 5.94313 16.5756 5.96182 17.439 6.17512C18.3024 6.38842 19.1076 6.791 19.7963 7.35373C20.485 7.91645 21.04 8.62524 21.4211 9.42881C21.8022 10.2324 22 11.1106 22 12C22 12.8894 21.8022 13.7676 21.4211 14.5712C21.04 15.3748 20.485 16.0836 19.7963 16.6463C19.1076 17.209 18.3024 17.6116 17.439 17.8249C16.5756 18.0382 15.6755 18.0569 14.804 17.8796C14.5505 18.1714 14.2786 18.4466 13.99 18.7037C14.9527 18.9924 15.9663 19.0703 16.9618 18.9322C17.9573 18.7942 18.9114 18.4434 19.7592 17.9036C20.607 17.3639 21.3286 16.6479 21.875 15.8043C22.4213 14.9608 22.7796 14.0095 22.9255 13.0151C23.0713 12.0207 23.0013 11.0065 22.7202 10.0416C22.4391 9.07668 21.9535 8.18361 21.2964 7.42314C20.6393 6.66266 19.8261 6.05262 18.9122 5.63449C17.9983 5.21636 17.005 4.99996 16 5ZM8 5C6.61553 5 5.26216 5.41054 4.11101 6.17971C2.95987 6.94888 2.06266 8.04213 1.53285 9.32122C1.00303 10.6003 0.86441 12.0078 1.13451 13.3656C1.4046 14.7235 2.07129 15.9708 3.05026 16.9497C4.02922 17.9287 5.2765 18.5954 6.63437 18.8655C7.99224 19.1356 9.3997 18.997 10.6788 18.4672C11.9579 17.9373 13.0511 17.0401 13.8203 15.889C14.5895 14.7378 15 13.3845 15 12C15 10.1435 14.2625 8.36301 12.9497 7.05025C11.637 5.7375 9.85652 5 8 5ZM8 18C6.81332 18 5.65328 17.6481 4.66658 16.9888C3.67989 16.3295 2.91085 15.3925 2.45673 14.2961C2.0026 13.1997 1.88378 11.9933 2.11529 10.8295C2.3468 9.66557 2.91825 8.59647 3.75736 7.75736C4.59648 6.91824 5.66558 6.3468 6.82946 6.11529C7.99335 5.88378 9.19975 6.0026 10.2961 6.45672C11.3925 6.91085 12.3295 7.67988 12.9888 8.66658C13.6481 9.65327 14 10.8133 14 12C13.9982 13.5907 13.3654 15.1158 12.2406 16.2406C11.1158 17.3654 9.59074 17.9982 8 18Z" fill="black"/>
</svg>
