<svg width="24" height="24" viewBox="0 0 24 24" fill="none" xmlns="http://www.w3.org/2000/svg">
<path d="M19 3H5C4.46957 3 3.96086 3.21071 3.58579 3.58579C3.21071 3.96086 3 4.46957 3 5V19C3 19.5304 3.21071 20.0391 3.58579 20.4142C3.96086 20.7893 4.46957 21 5 21H19C19.5304 21 20.0391 20.7893 20.4142 20.4142C20.7893 20.0391 21 19.5304 21 19V5C21 4.46957 20.7893 3.96086 20.4142 3.58579C20.0391 3.21071 19.5304 3 19 3ZM5.5107 6.3C5.35248 6.3 5.1978 6.25308 5.06624 6.16518C4.93468 6.07727 4.83215 5.95233 4.7716 5.80615C4.71105 5.65997 4.6952 5.49911 4.72607 5.34393C4.75694 5.18874 4.83313 5.0462 4.94501 4.93431C5.0569 4.82243 5.19944 4.74624 5.35463 4.71537C5.50981 4.6845 5.67067 4.70035 5.81685 4.7609C5.96303 4.82145 6.08797 4.92398 6.17588 5.05554C6.26378 5.1871 6.3107 5.34177 6.3107 5.5C6.3107 5.71217 6.22641 5.91566 6.07639 6.06569C5.92636 6.21571 5.72287 6.3 5.5107 6.3ZM8.189 6.3C8.03078 6.3 7.8761 6.25308 7.74454 6.16518C7.61298 6.07727 7.51045 5.95233 7.4499 5.80615C7.38935 5.65997 7.3735 5.49911 7.40437 5.34393C7.43524 5.18874 7.51143 5.0462 7.62331 4.93431C7.7352 4.82243 7.87774 4.74624 8.03293 4.71537C8.18811 4.6845 8.34897 4.70035 8.49515 4.7609C8.64133 4.82145 8.76627 4.92398 8.85418 5.05554C8.94208 5.1871 8.989 5.34177 8.989 5.5C8.989 5.60506 8.96831 5.70909 8.9281 5.80615C8.8879 5.90321 8.82897 5.9914 8.75469 6.06569C8.6804 6.13997 8.59221 6.1989 8.49515 6.2391C8.39809 6.27931 8.29406 6.3 8.189 6.3ZM10.8672 6.3C10.709 6.3 10.5543 6.25308 10.4227 6.16518C10.2912 6.07727 10.1886 5.95233 10.1281 5.80615C10.0675 5.65997 10.0517 5.49911 10.0826 5.34393C10.1134 5.18874 10.1896 5.0462 10.3015 4.93431C10.4134 4.82243 10.5559 4.74624 10.7111 4.71537C10.8663 4.6845 11.0272 4.70035 11.1733 4.7609C11.3195 4.82145 11.4445 4.92398 11.5324 5.05554C11.6203 5.1871 11.6672 5.34177 11.6672 5.5C11.6672 5.71217 11.5829 5.91566 11.4329 6.06569C11.2829 6.21571 11.0794 6.3 10.8672 6.3Z" fill="black"/>
</svg>
