<svg width="24" height="24" viewBox="0 0 24 24" fill="none" xmlns="http://www.w3.org/2000/svg">
<path d="M21.5034 11.5131L22.7371 10.6087C22.5801 10.1914 22.3539 9.80367 22.0679 9.46168L20.6733 10.0754L19.83 9.58858L19.6635 8.06688C19.2256 7.97768 18.7742 7.97768 18.3363 8.06688L18.17 9.58858L17.3268 10.0754L15.9322 9.46168C15.6462 9.80367 15.42 10.1914 15.263 10.6087L16.4967 11.5131V12.4869L15.263 13.3912C15.42 13.8084 15.6463 14.1962 15.9322 14.5383L17.3268 13.9245L18.17 14.4114L18.3365 15.9331C18.7744 16.0223 19.2258 16.0223 19.6637 15.9331L19.8302 14.4114L20.6734 13.9245L22.068 14.5383C22.3539 14.1962 22.5802 13.8084 22.7372 13.3912L21.5035 12.4869L21.5034 11.5131ZM19 13C18.8022 13 18.6089 12.9413 18.4444 12.8314C18.28 12.7216 18.1518 12.5654 18.0761 12.3827C18.0004 12.1999 17.9806 11.9989 18.0192 11.8049C18.0578 11.6109 18.153 11.4327 18.2929 11.2929C18.4328 11.153 18.6109 11.0578 18.8049 11.0192C18.9989 10.9806 19.2 11.0004 19.3827 11.0761C19.5654 11.1518 19.7216 11.28 19.8315 11.4444C19.9414 11.6089 20 11.8022 20 12C20 12.2652 19.8947 12.5195 19.7071 12.7071C19.5196 12.8946 19.2652 13 19 13ZM15.7471 7.74758L6.67871 1.61078V10.1162L1.95411 6.91938L0.833008 8.57568L5.89361 12L0.833008 15.4243L1.95411 17.0806L6.67871 13.8838V22.3892L15.7471 16.2524L9.46291 12L15.7471 7.74758ZM8.67871 5.37938L12.1787 7.74758L8.67871 10.1157V5.37938ZM12.1787 16.2524L8.67871 18.6206V13.8843L12.1787 16.2524Z" fill="black"/>
</svg>
