<svg width="24" height="24" viewBox="0 0 24 24" fill="none" xmlns="http://www.w3.org/2000/svg">
<path d="M12 2.00001C10.0646 1.99764 8.1703 2.55759 6.54728 3.6118C4.92426 4.666 3.64247 6.16903 2.85777 7.93814C2.07307 9.70726 1.81925 11.6663 2.12718 13.5769C2.4351 15.4876 3.29151 17.2677 4.59227 18.7007L18.7007 4.59231C16.8679 2.92389 14.4784 1.99949 12 2.00001ZM19.4077 5.29931L5.29927 19.4077C7.19879 21.132 9.68897 22.0593 12.2536 21.9973C14.8183 21.9353 17.2608 20.8889 19.0748 19.0749C20.8889 17.2608 21.9353 14.8183 21.9973 12.2537C22.0592 9.689 21.132 7.19883 19.4077 5.29931Z" fill="black"/>
</svg>
