<svg width="24" height="24" viewBox="0 0 24 24" fill="none" xmlns="http://www.w3.org/2000/svg">
<path d="M12 2C10.0222 2 8.08879 2.58649 6.4443 3.6853C4.79981 4.78412 3.51809 6.3459 2.76121 8.17317C2.00433 10.0004 1.8063 12.0111 2.19215 13.9509C2.578 15.8907 3.53041 17.6725 4.92894 19.0711C6.32746 20.4696 8.10929 21.422 10.0491 21.8079C11.9889 22.1937 13.9996 21.9957 15.8268 21.2388C17.6541 20.4819 19.2159 19.2002 20.3147 17.5557C21.4135 15.9112 22 13.9778 22 12C22 10.6868 21.7413 9.38642 21.2388 8.17317C20.7363 6.95991 19.9997 5.85752 19.0711 4.92893C18.1425 4.00035 17.0401 3.26375 15.8268 2.7612C14.6136 2.25866 13.3132 2 12 2ZM12 4C13.7752 4.00026 15.4993 4.59459 16.8976 5.6883L5.6883 16.8976C4.76778 15.717 4.19761 14.3014 4.04284 12.8124C3.88807 11.3233 4.15493 9.82075 4.81298 8.47606C5.47103 7.13138 6.49377 5.99871 7.76454 5.20728C9.03531 4.41585 10.5029 3.99751 12 4ZM12 20C10.2248 19.9997 8.5007 19.4054 7.1024 18.3117L18.3117 7.1024C19.2322 8.28301 19.8024 9.69858 19.9572 11.1876C20.1119 12.6767 19.8451 14.1792 19.187 15.5239C18.529 16.8686 17.5062 18.0013 16.2355 18.7927C14.9647 19.5842 13.4971 20.0025 12 20Z" fill="black"/>
</svg>
