<svg width="24" height="24" viewBox="0 0 24 24" fill="none" xmlns="http://www.w3.org/2000/svg">
<path d="M11.5 6.0253V2.0253C8.8979 2.15165 6.44897 3.29295 4.67873 5.2043L7.74413 7.7763C8.74742 6.76368 10.0794 6.14271 11.5 6.0253ZM12.5 2.0253V6.0253C13.4197 6.10059 14.3095 6.38706 15.1004 6.86242C15.8912 7.33778 16.5617 7.98921 17.0597 8.76602C17.5576 9.54283 17.8696 10.4241 17.9714 11.3411C18.0732 12.2582 17.9619 13.1864 17.6464 14.0535C17.3309 14.9206 16.8195 15.7032 16.1521 16.3403C15.4847 16.9775 14.6793 17.4521 13.7986 17.7272C12.9178 18.0023 11.9855 18.0704 11.0741 17.9263C10.1627 17.7822 9.29686 17.4298 8.54393 16.8964L5.97003 19.9641C7.21657 20.9098 8.6678 21.5494 10.2068 21.8316C11.7458 22.1138 13.3296 22.0305 14.8305 21.5886C16.3315 21.1467 17.7076 20.3584 18.8482 19.2873C19.9887 18.2161 20.8618 16.8921 21.397 15.4218C21.9322 13.9516 22.1146 12.3761 21.9295 10.8225C21.7444 9.26879 21.197 7.78031 20.3314 6.4769C19.4658 5.1735 18.3061 4.09162 16.9459 3.31841C15.5856 2.5452 14.0628 2.10227 12.5 2.0253ZM6.00003 12C5.99992 10.7613 6.38561 9.55333 7.10353 8.5439L4.03613 5.97C2.53437 7.94175 1.82191 10.4027 2.038 12.8718C2.25409 15.3408 3.3832 17.6406 5.20463 19.3215L7.77643 16.2562C7.21333 15.6997 6.76634 15.0369 6.4614 14.3062C6.15646 13.5756 5.99964 12.7917 6.00003 12Z" fill="black"/>
</svg>
