<svg width="24" height="24" viewBox="0 0 24 24" fill="none" xmlns="http://www.w3.org/2000/svg">
<path d="M12.0002 9.2778C10.4611 9.27618 8.93688 9.57948 7.51562 10.1702C6.09435 10.7609 4.80419 11.6273 3.71962 12.7194L5.06022 14.06C5.97013 13.1461 7.05165 12.421 8.24264 11.9264C9.43363 11.4318 10.7106 11.1774 12.0002 11.1778V9.2778ZM12.0002 5C9.89867 4.99727 7.81729 5.40988 5.87571 6.21411C3.93413 7.01835 2.17062 8.19835 0.686523 9.6863L2.04252 11.0423C3.34749 9.72977 4.89902 8.68812 6.60792 7.97724C8.31681 7.26636 10.1494 6.90026 12.0002 6.9V5ZM9.87112 18.8709L12.0002 21L14.1293 18.8709C13.8547 18.5825 13.5244 18.353 13.1584 18.1961C12.7924 18.0392 12.3984 17.9583 12.0002 17.9583C11.602 17.9583 11.208 18.0392 10.842 18.1961C10.476 18.353 10.1457 18.5825 9.87112 18.8709ZM6.83022 15.83L8.16572 17.1655C8.6677 16.659 9.26505 16.2569 9.92328 15.9825C10.5815 15.7081 11.2876 15.5668 12.0007 15.5668C12.7139 15.5668 13.4199 15.7081 14.0782 15.9825C14.7364 16.2569 15.3337 16.659 15.8357 17.1655L17.1702 15.83C16.4947 15.1449 15.6898 14.6009 14.8022 14.2295C13.9146 13.8582 12.9621 13.667 11.9999 13.667C11.0378 13.667 10.0853 13.8582 9.19767 14.2295C8.31008 14.6009 7.50514 15.1449 6.82962 15.83H6.83022ZM20.0002 6V5C20.0002 4.46957 19.7895 3.96086 19.4144 3.58579C19.0394 3.21071 18.5307 3 18.0002 3C17.4698 3 16.9611 3.21071 16.586 3.58579C16.2109 3.96086 16.0002 4.46957 16.0002 5V6H15.0002V10H21.0002V6H20.0002ZM18.6002 6H17.4002V5C17.4002 4.84087 17.4634 4.68826 17.576 4.57574C17.6885 4.46321 17.8411 4.4 18.0002 4.4C18.1594 4.4 18.312 4.46321 18.4245 4.57574C18.537 4.68826 18.6002 4.84087 18.6002 5V6Z" fill="black"/>
</svg>
