<svg width="24" height="24" viewBox="0 0 24 24" fill="none" xmlns="http://www.w3.org/2000/svg">
<path d="M2 4V20H22V4H2ZM6.8284 13.4142L6.1213 14.1213L4 12L6.1213 9.8787L6.8284 10.5858L5.4141 12L6.8284 13.4142ZM12 18.25L9.8787 16.1287L10.5859 15.4216L12 16.8358L13.4141 15.4216L14.1213 16.1287L12 18.25ZM13.4141 8.5784L12 7.1642L10.5859 8.5784L9.8787 7.8713L12 5.75L14.1213 7.8713L13.4141 8.5784ZM17.8787 14.1213L17.1716 13.4142L18.5859 12L17.1716 10.5858L17.8787 9.8787L20 12L17.8787 14.1213Z" fill="black"/>
</svg>
