<svg width="24" height="24" viewBox="0 0 24 24" fill="none" xmlns="http://www.w3.org/2000/svg">
<path d="M6.25643 14.6588C6.9396 14.3382 7.48208 13.779 7.78185 13.0864C8.08161 12.3939 8.118 11.6156 7.88417 10.8981C7.65033 10.1806 7.16239 9.57323 6.51212 9.19027C5.86185 8.80731 5.09406 8.67514 4.35316 8.81862C3.61227 8.96211 2.94933 9.37135 2.48903 9.96938C2.02874 10.5674 1.80281 11.313 1.85374 12.066C1.90467 12.8189 2.22896 13.5273 2.7656 14.0579C3.30224 14.5885 4.01426 14.9047 4.76773 14.9471C5.31313 16.4755 6.27322 17.8219 7.54048 18.8356C8.80774 19.8492 10.3322 20.4901 11.943 20.6865L12.123 19.1982C10.8269 19.0404 9.59745 18.5352 8.56477 17.7362C7.53209 16.9371 6.73453 15.8738 6.25643 14.6588ZM21.0519 8.57229L19.6719 9.16229C20.1834 10.3634 20.3607 11.6804 20.1851 12.974C20.0095 14.2676 19.4875 15.4896 18.6743 16.5109C18.0552 16.0797 17.2998 15.8897 16.5503 15.9764C15.8008 16.0632 15.1088 16.4208 14.6045 16.982C14.1003 17.5432 13.8184 18.2694 13.8119 19.0238C13.8055 19.7783 14.075 20.5091 14.5696 21.0788C15.0642 21.6486 15.75 22.0179 16.4979 22.1175C17.2458 22.217 18.0043 22.0399 18.6308 21.6193C19.2572 21.1988 19.7084 20.5639 19.8995 19.834C20.0906 19.1041 20.0085 18.3295 19.6685 17.656C20.7195 16.4195 21.4055 14.9148 21.6498 13.3105C21.8941 11.7062 21.6871 10.0656 21.0519 8.57229ZM14.4642 6.53589C14.7609 7.04974 15.2033 7.46408 15.7354 7.72652C16.2676 7.98895 16.8656 8.0877 17.4538 8.01026C18.0421 7.93283 18.5942 7.68269 19.0403 7.29149C19.4864 6.90028 19.8065 6.38557 19.9601 5.81246C20.1137 5.23934 20.0938 4.63355 19.9031 4.07169C19.7124 3.50983 19.3594 3.01714 18.8887 2.65592C18.418 2.2947 17.8507 2.08118 17.2586 2.04235C16.6666 2.00352 16.0763 2.14113 15.5624 2.43778C15.1584 2.67448 14.8161 3.00345 14.5636 3.39778C12.9674 3.10598 11.3214 3.26417 9.80997 3.85465C8.29852 4.44513 6.98123 5.44459 6.00553 6.74119L7.20553 7.64119C7.99023 6.5978 9.04231 5.78587 10.2505 5.29123C11.4587 4.79659 12.7781 4.63764 14.0692 4.83119C14.0277 5.42612 14.1653 6.01985 14.4642 6.53589Z" fill="black"/>
</svg>
