<svg width="24" height="24" viewBox="0 0 24 24" fill="none" xmlns="http://www.w3.org/2000/svg">
<path d="M12.0002 9.0833C10.4359 9.08269 8.88694 9.39183 7.4427 9.99289C5.99846 10.5939 4.68752 11.475 3.58552 12.5853L4.30022 13.3C5.30737 12.2815 6.50646 11.4728 7.82814 10.9207C9.14982 10.3685 10.5679 10.0839 12.0002 10.0833V9.0833ZM12.0002 5C9.89867 4.99727 7.81729 5.40988 5.87571 6.21411C3.93413 7.01835 2.17062 8.19835 0.686523 9.6863L1.40872 10.4085C2.79653 9.01195 4.44672 7.90353 6.2644 7.14695C8.08207 6.39038 10.0314 6.00059 12.0002 6V5ZM6.46862 15.4684L7.18582 16.1856C7.81407 15.5463 8.56336 15.0385 9.38995 14.6919C10.2165 14.3453 11.1039 14.1668 12.0002 14.1668C12.8966 14.1668 13.7839 14.3453 14.6105 14.6919C15.4371 15.0385 16.1864 15.5463 16.8146 16.1856L17.5318 15.4683C16.8071 14.7389 15.9452 14.16 14.9959 13.765C14.0466 13.37 13.0285 13.1666 12.0002 13.1666C10.972 13.1666 9.95388 13.37 9.00454 13.765C8.0552 14.16 7.19336 14.7389 6.46862 15.4683V15.4684ZM9.36072 18.3605L10.0601 19.0599C10.3139 18.8034 10.616 18.5997 10.949 18.4607C11.282 18.3217 11.6393 18.2501 12.0001 18.2501C12.361 18.2501 12.7182 18.3217 13.0512 18.4607C13.3842 18.5997 13.6864 18.8034 13.9401 19.0599L14.6394 18.3605C14.2956 18.0089 13.885 17.7296 13.4317 17.5389C12.9785 17.3482 12.4917 17.25 11.9999 17.25C11.5082 17.25 11.0214 17.3482 10.5681 17.5389C10.1149 17.7296 9.70426 18.0089 9.36042 18.3605H9.36072ZM20.0002 6V5C20.0002 4.46957 19.7895 3.96086 19.4144 3.58579C19.0394 3.21071 18.5307 3 18.0002 3C17.4698 3 16.9611 3.21071 16.586 3.58579C16.2109 3.96086 16.0002 4.46957 16.0002 5V6H15.0002V10H21.0002V6H20.0002ZM16.9002 5C16.9002 4.70826 17.0161 4.42847 17.2224 4.22218C17.4287 4.01589 17.7085 3.9 18.0002 3.9C18.292 3.9 18.5718 4.01589 18.778 4.22218C18.9843 4.42847 19.1002 4.70826 19.1002 5V6H16.9002V5ZM20.0002 9H16.0002V7H20.0002V9Z" fill="black"/>
</svg>
