<svg width="24" height="24" viewBox="0 0 24 24" fill="none" xmlns="http://www.w3.org/2000/svg">
<path d="M17 3H7C5.9395 3.00119 4.92278 3.423 4.17289 4.17289C3.423 4.92278 3.00119 5.9395 3 7V17C3.00119 18.0605 3.423 19.0772 4.17289 19.8271C4.92278 20.577 5.9395 20.9988 7 21H17C18.0605 20.9988 19.0772 20.577 19.8271 19.8271C20.577 19.0772 20.9988 18.0605 21 17V7C20.9988 5.9395 20.577 4.92278 19.8271 4.17289C19.0772 3.423 18.0605 3.00119 17 3ZM14.9326 13.9424L13.9426 14.9324L12 12.99L10.0576 14.9324L9.0676 13.9424L11.01 12L9.0674 10.0576L10.0574 9.0676L12 11.01L13.9424 9.0676L14.9324 10.0576L12.99 12L14.9326 13.9424Z" fill="black"/>
</svg>
