<svg width="24" height="24" viewBox="0 0 24 24" fill="none" xmlns="http://www.w3.org/2000/svg">
<path d="M8.6981 16.5288L10.1693 18H8C7.46975 17.9994 6.9614 17.7885 6.58646 17.4135C6.21152 17.0386 6.00061 16.5302 6 16V8C6.00061 7.46975 6.21152 6.9614 6.58646 6.58646C6.9614 6.21152 7.46975 6.00061 8 6H11V5H8C7.20435 5 6.44129 5.31607 5.87868 5.87868C5.31607 6.44129 5 7.20435 5 8V16C5 16.7956 5.31607 17.5587 5.87868 18.1213C6.44129 18.6839 7.20435 19 8 19H10.1693L8.6981 20.4712L9.4051 21.1782L12.0833 18.5L9.4051 15.8218L8.6981 16.5288ZM15 5V6H19V5H15ZM15 12.5H19V11.5H15V12.5ZM15 19H19V18H15V19Z" fill="black"/>
</svg>
