<svg width="24" height="24" viewBox="0 0 24 24" fill="none" xmlns="http://www.w3.org/2000/svg">
<path d="M19 3H5C4.46957 3 3.96086 3.21071 3.58579 3.58579C3.21071 3.96086 3 4.46957 3 5V19C3 19.5304 3.21071 20.0391 3.58579 20.4142C3.96086 20.7893 4.46957 21 5 21H19C19.5304 21 20.0391 20.7893 20.4142 20.4142C20.7893 20.0391 21 19.5304 21 19V5C21 4.46957 20.7893 3.96086 20.4142 3.58579C20.0391 3.21071 19.5304 3 19 3ZM5.5 6.5C5.30222 6.5 5.10888 6.44135 4.94443 6.33147C4.77998 6.22159 4.65181 6.06541 4.57612 5.88268C4.50043 5.69996 4.48063 5.49889 4.51921 5.30491C4.5578 5.11093 4.65304 4.93275 4.79289 4.79289C4.93275 4.65304 5.11093 4.5578 5.30491 4.51921C5.49889 4.48063 5.69996 4.50043 5.88268 4.57612C6.06541 4.65181 6.22159 4.77998 6.33147 4.94443C6.44135 5.10888 6.5 5.30222 6.5 5.5C6.5 5.76522 6.39464 6.01957 6.20711 6.20711C6.01957 6.39464 5.76522 6.5 5.5 6.5ZM8.4141 6.5C8.21632 6.5 8.02298 6.44135 7.85853 6.33147C7.69408 6.22159 7.56591 6.06541 7.49022 5.88268C7.41453 5.69996 7.39473 5.49889 7.43331 5.30491C7.4719 5.11093 7.56714 4.93275 7.70699 4.79289C7.84685 4.65304 8.02503 4.5578 8.21901 4.51921C8.41299 4.48063 8.61406 4.50043 8.79678 4.57612C8.97951 4.65181 9.13569 4.77998 9.24557 4.94443C9.35545 5.10888 9.4141 5.30222 9.4141 5.5C9.4141 5.76522 9.30874 6.01957 9.12121 6.20711C8.93367 6.39464 8.67932 6.5 8.4141 6.5ZM11.3281 6.5C11.1303 6.5 10.937 6.44135 10.7725 6.33147C10.6081 6.22159 10.4799 6.06541 10.4042 5.88268C10.3285 5.69996 10.3087 5.49889 10.3473 5.30491C10.3859 5.11093 10.4811 4.93275 10.621 4.79289C10.7608 4.65304 10.939 4.5578 11.133 4.51921C11.327 4.48063 11.5281 4.50043 11.7108 4.57612C11.8935 4.65181 12.0497 4.77998 12.1596 4.94443C12.2695 5.10888 12.3281 5.30222 12.3281 5.5C12.3281 5.76522 12.2227 6.01957 12.0352 6.20711C11.8477 6.39464 11.5933 6.5 11.3281 6.5Z" fill="black"/>
</svg>
