<svg width="24" height="24" viewBox="0 0 24 24" fill="none" xmlns="http://www.w3.org/2000/svg">
<path d="M7.875 3H7.375V3.5H7.875V3ZM10.0625 3H9.5625V3.5H10.0625V3ZM18.8125 3H18.3125V3.5H18.8125V3ZM16.625 3H16.125V3.5H16.625V3ZM14.4375 3H13.9375V3.5H14.4375V3ZM5.6875 3H5.1875V3.5H5.6875V3ZM3.5 16.125H3V16.625H3.5V16.125ZM3.5 13.9375H3V14.4375H3.5V13.9375ZM3.5 5.1875H3V5.6875H3.5V5.1875ZM3.5 7.375H3V7.875H3.5V7.375ZM3.5 9.5625H3V10.0625H3.5V9.5625ZM3.5 18.3125H3V18.8125H3.5V18.3125ZM3.5 3H3V3.5H3.5V3ZM3.5 11.75H3V12.25H3.5V11.75ZM12.25 3H11.75V3.5H12.25V3ZM20.5 3V20.5H3V21H21V3H20.5ZM15.076 10.4655C15.2147 10.3267 15.2926 10.1386 15.2926 9.9424C15.2926 9.74622 15.2147 9.55806 15.076 9.4193L14.5808 8.9239C14.442 8.78516 14.2538 8.70722 14.0576 8.70722C13.8614 8.70722 13.6732 8.78516 13.5344 8.9239L9 13.4584V15H10.5416L15.076 10.4655ZM13.8879 9.2775C13.9329 9.23253 13.9939 9.20726 14.0576 9.20726C14.1212 9.20726 14.1822 9.23253 14.2272 9.2775L14.7225 9.7729C14.7674 9.8179 14.7927 9.8789 14.7927 9.9425C14.7927 10.0061 14.7674 10.0671 14.7225 10.1121L14.073 10.7615L13.2385 9.927L13.8879 9.2775ZM9.5 14.5V13.6655L12.885 10.2805L13.7195 11.115L10.3345 14.5H9.5Z" fill="black"/>
</svg>
