<svg width="24" height="24" viewBox="0 0 24 24" fill="none" xmlns="http://www.w3.org/2000/svg">
<path d="M7.375 21H7.875V20.5H7.375V21ZM9.5625 21H10.0625V20.5H9.5625V21ZM18.3125 21H18.8125V20.5H18.3125V21ZM16.125 21H16.625V20.5H16.125V21ZM13.9375 21H14.4375V20.5H13.9375V21ZM5.1875 21H5.6875V20.5H5.1875V21ZM7.375 3.5H7.875V3H7.375V3.5ZM9.5625 3.5H10.0625V3H9.5625V3.5ZM18.3125 3.5H18.8125V3H18.3125V3.5ZM16.125 3.5H16.625V3H16.125V3.5ZM13.9375 3.5H14.4375V3H13.9375V3.5ZM5.1875 3.5H5.6875V3H5.1875V3.5ZM7.375 12.25H7.875V11.75H7.375V12.25ZM9.5625 12.25H10.0625V11.75H9.5625V12.25ZM18.3125 12.25H18.8125V11.75H18.3125V12.25ZM16.125 12.25H16.625V11.75H16.125V12.25ZM13.9375 12.25H14.4375V11.75H13.9375V12.25ZM5.1875 12.25H5.6875V11.75H5.1875V12.25ZM20.5 16.625H21V16.125H20.5V16.625ZM20.5 14.4375H21V13.9375H20.5V14.4375ZM20.5 5.6875H21V5.1875H20.5V5.6875ZM20.5 7.875H21V7.375H20.5V7.875ZM20.5 10.0625H21V9.5625H20.5V10.0625ZM20.5 18.8125H21V18.3125H20.5V18.8125ZM20.5 3V3.5H21V3H20.5ZM20.5 12.25H21V11.75H20.5V12.25ZM20.5 21H21V20.5H20.5V21ZM3 16.625H3.5V16.125H3V16.625ZM3 14.4375H3.5V13.9375H3V14.4375ZM3 5.6875H3.5V5.1875H3V5.6875ZM3 7.875H3.5V7.375H3V7.875ZM3 10.0625H3.5V9.5625H3V10.0625ZM3 18.8125H3.5V18.3125H3V18.8125ZM3 3.5H3.5V3H3V3.5ZM3 12.25H3.5V11.75H3V12.25ZM3 21H3.5V20.5H3V21ZM11.75 21H12.25V3H11.75V21Z" fill="black"/>
</svg>
