<svg width="24" height="24" viewBox="0 0 24 24" fill="none" xmlns="http://www.w3.org/2000/svg">
<path d="M2 4V20H22V4H2ZM20.5 18.5H3.5V5.5H20.5V18.5ZM9.5151 13.861L10.5757 14.9216C10.998 14.5003 11.5702 14.2637 12.1666 14.2637C12.7631 14.2637 13.3353 14.5003 13.7576 14.9216L14.8184 13.861C14.1146 13.1588 13.161 12.7644 12.1667 12.7644C11.1725 12.7644 10.2189 13.1588 9.5151 13.861ZM16.5742 12.141L17.6465 11.0919C16.2079 9.62481 14.2462 8.78825 12.1916 8.76575C10.137 8.74325 8.15735 9.53666 6.687 10.9719L7.7358 12.0441C8.92165 10.8867 10.5182 10.247 12.1751 10.2652C13.8321 10.2834 15.4141 10.9582 16.5742 12.1414V12.141Z" fill="black"/>
</svg>
