<svg width="24" height="24" viewBox="0 0 24 24" fill="none" xmlns="http://www.w3.org/2000/svg">
<path d="M19.9517 6.33998L18.5374 7.74178C19.0933 8.29192 19.5346 8.94681 19.8358 9.66859C20.1369 10.3904 20.292 11.1647 20.292 11.9468C20.292 12.7289 20.1369 13.5032 19.8358 14.225C19.5346 14.9467 19.0933 15.6016 18.5374 16.1518L19.9517 17.5534C20.6928 16.8198 21.2812 15.9466 21.6827 14.9842C22.0842 14.0219 22.291 12.9895 22.291 11.9467C22.291 10.9039 22.0842 9.87148 21.6827 8.90911C21.2812 7.94674 20.6928 7.07353 19.9517 6.33998ZM15.709 10.5452C15.8943 10.7286 16.0414 10.9469 16.1418 11.1875C16.2422 11.4281 16.2939 11.6862 16.2939 11.9469C16.2939 12.2076 16.2422 12.4657 16.1418 12.7063C16.0414 12.9469 15.8943 13.1652 15.709 13.3486L17.1233 14.75C17.4939 14.3832 17.7881 13.9466 17.9889 13.4654C18.1897 12.9843 18.2931 12.468 18.2931 11.9466C18.2931 11.4252 18.1897 10.909 17.9889 10.4278C17.7881 9.94663 17.4939 9.51003 17.1233 9.14328L15.709 10.5452ZM15.7471 7.74758L6.67871 1.61078V10.1162L1.95411 6.91938L0.833008 8.57568L5.89361 12L0.833008 15.4243L1.95411 17.0806L6.67871 13.8838V22.3892L15.7471 16.2524L9.46291 12L15.7471 7.74758ZM8.67871 5.37938L12.1787 7.74758L8.67871 10.1157V5.37938ZM12.1787 16.2524L8.67871 18.6206V13.8843L12.1787 16.2524Z" fill="black"/>
</svg>
