<svg width="24" height="24" viewBox="0 0 24 24" fill="none" xmlns="http://www.w3.org/2000/svg">
<path d="M3 3V21H21V3H3ZM20.5 20.5H3.5V3.5H20.5V20.5ZM8.65 17H15.35C15.8804 17 16.3891 16.7893 16.7642 16.4142C17.1393 16.0391 17.35 15.5304 17.35 15C17.35 14.4696 17.1393 13.9609 16.7642 13.5858C16.3891 13.2107 15.8804 13 15.35 13H8.65C8.11957 13 7.61086 13.2107 7.23579 13.5858C6.86071 13.9609 6.65 14.4696 6.65 15C6.65 15.5304 6.86071 16.0391 7.23579 16.4142C7.61086 16.7893 8.11957 17 8.65 17ZM8.65 13.5H15.35C15.7478 13.5 16.1294 13.658 16.4107 13.9393C16.692 14.2206 16.85 14.6022 16.85 15C16.85 15.3978 16.692 15.7794 16.4107 16.0607C16.1294 16.342 15.7478 16.5 15.35 16.5H8.65C8.25217 16.5 7.87064 16.342 7.58934 16.0607C7.30804 15.7794 7.15 15.3978 7.15 15C7.15 14.6022 7.30804 14.2206 7.58934 13.9393C7.87064 13.658 8.25217 13.5 8.65 13.5Z" fill="black"/>
</svg>
