<svg width="24" height="24" viewBox="0 0 24 24" fill="none" xmlns="http://www.w3.org/2000/svg">
<path d="M12 2C10.0222 2 8.08879 2.58649 6.4443 3.6853C4.79981 4.78412 3.51809 6.3459 2.76121 8.17317C2.00433 10.0004 1.8063 12.0111 2.19215 13.9509C2.578 15.8907 3.53041 17.6725 4.92894 19.0711C6.32746 20.4696 8.10929 21.422 10.0491 21.8079C11.9889 22.1937 13.9996 21.9957 15.8268 21.2388C17.6541 20.4819 19.2159 19.2002 20.3147 17.5557C21.4135 15.9112 22 13.9778 22 12C21.9971 9.34874 20.9426 6.8069 19.0678 4.93218C17.1931 3.05745 14.6513 2.00294 12 2ZM14.3982 14.3981L7.2 16.8L9.6018 9.6019L16.8 7.2L14.3982 14.3981ZM12 12.5C12.0989 12.5 12.1956 12.4707 12.2778 12.4157C12.36 12.3608 12.4241 12.2827 12.4619 12.1913C12.4998 12.1 12.5097 11.9994 12.4904 11.9025C12.4711 11.8055 12.4235 11.7164 12.3536 11.6464C12.2836 11.5765 12.1945 11.5289 12.0976 11.5096C12.0006 11.4903 11.9 11.5002 11.8087 11.5381C11.7173 11.5759 11.6392 11.64 11.5843 11.7222C11.5293 11.8044 11.5 11.9011 11.5 12C11.5 12.1326 11.5527 12.2598 11.6465 12.3536C11.7402 12.4473 11.8674 12.5 12 12.5Z" fill="black"/>
</svg>
