<svg width="24" height="24" viewBox="0 0 24 24" fill="none" xmlns="http://www.w3.org/2000/svg">
<path d="M18 16C17.5011 16.0001 17.0102 16.1249 16.5719 16.3631C16.1335 16.6012 15.7616 16.9451 15.49 17.3636L7.7507 13.1927C7.91513 12.8166 8 12.4105 8 12C8 11.5895 7.91513 11.1834 7.7507 10.8073L15.49 6.6364C15.913 7.28066 16.5685 7.73654 17.3197 7.90878C18.0709 8.08102 18.8596 7.95629 19.521 7.56066C20.1824 7.16503 20.6653 6.52911 20.8689 5.78577C21.0724 5.04244 20.9808 4.24921 20.6131 3.57185C20.2455 2.89448 19.6304 2.38538 18.8962 2.15093C18.1621 1.91648 17.3657 1.97482 16.6735 2.31377C15.9814 2.65271 15.447 3.24603 15.182 3.96974C14.9171 4.69345 14.942 5.49156 15.2517 6.1973L7.5125 10.3682C7.16048 9.82513 6.64228 9.41046 6.03524 9.18608C5.42821 8.9617 4.76489 8.93963 4.14428 9.12318C3.52368 9.30673 2.97907 9.68604 2.59173 10.2045C2.2044 10.723 1.99512 11.3528 1.99512 12C1.99512 12.6472 2.2044 13.277 2.59173 13.7955C2.97907 14.3139 3.52368 14.6933 4.14428 14.8768C4.76489 15.0604 5.42821 15.0383 6.03524 14.8139C6.64228 14.5895 7.16048 14.1749 7.5125 13.6318L15.2518 17.8027C14.9943 18.3947 14.9348 19.0541 15.0821 19.6826C15.2294 20.3112 15.5757 20.8754 16.0693 21.2914C16.563 21.7075 17.1778 21.953 17.8222 21.9916C18.4667 22.0302 19.1064 21.8598 19.6462 21.5057C20.186 21.1516 20.5971 20.6328 20.8184 20.0263C21.0397 19.4198 21.0593 18.7581 20.8744 18.1395C20.6894 17.521 20.3098 16.9787 19.7919 16.5932C19.2741 16.2077 18.6456 15.9997 18 16Z" fill="black"/>
</svg>
