<svg width="24" height="24" viewBox="0 0 24 24" fill="none" xmlns="http://www.w3.org/2000/svg">
<path d="M18 7H6C4.67392 7 3.40215 7.52678 2.46447 8.46447C1.52678 9.40215 1 10.6739 1 12C1 13.3261 1.52678 14.5979 2.46447 15.5355C3.40215 16.4732 4.67392 17 6 17H18C19.3261 17 20.5979 16.4732 21.5355 15.5355C22.4732 14.5979 23 13.3261 23 12C23 10.6739 22.4732 9.40215 21.5355 8.46447C20.5979 7.52678 19.3261 7 18 7ZM18 15.3H6C5.12479 15.3 4.28542 14.9523 3.66655 14.3335C3.04768 13.7146 2.7 12.8752 2.7 12C2.7 11.1248 3.04768 10.2854 3.66655 9.66655C4.28542 9.04768 5.12479 8.7 6 8.7H18C18.8752 8.7 19.7146 9.04768 20.3335 9.66655C20.9523 10.2854 21.3 11.1248 21.3 12C21.3 12.8752 20.9523 13.7146 20.3335 14.3335C19.7146 14.9523 18.8752 15.3 18 15.3ZM7 13H17V11H7V13Z" fill="black"/>
</svg>
