<svg width="24" height="24" viewBox="0 0 24 24" fill="none" xmlns="http://www.w3.org/2000/svg">
<path d="M12 10.75C11.7528 10.75 11.5111 10.8233 11.3055 10.9607C11.1 11.098 10.9398 11.2932 10.8452 11.5216C10.7505 11.7501 10.7258 12.0014 10.774 12.2439C10.8222 12.4863 10.9413 12.7091 11.1161 12.8839C11.2909 13.0587 11.5137 13.1778 11.7561 13.226C11.9986 13.2742 12.2499 13.2495 12.4784 13.1548C12.7068 13.0602 12.902 12.9 13.0393 12.6945C13.1767 12.4889 13.25 12.2472 13.25 12C13.25 11.6685 13.1183 11.3505 12.8839 11.1161C12.6495 10.8817 12.3315 10.75 12 10.75ZM16 3H8C6.67392 3 5.40215 3.52678 4.46447 4.46447C3.52678 5.40215 3 6.67392 3 8V16C3 17.3261 3.52678 18.5979 4.46447 19.5355C5.40215 20.4732 6.67392 21 8 21H16C17.3261 21 18.5979 20.4732 19.5355 19.5355C20.4732 18.5979 21 17.3261 21 16V8C21 6.67392 20.4732 5.40215 19.5355 4.46447C18.5979 3.52678 17.3261 3 16 3ZM16.6714 13.739C16.475 14.2605 16.1923 14.7452 15.835 15.1728L14.0918 14.4056L13.0376 15.0143L12.8296 16.9164C12.5559 16.9674 12.2784 16.9953 12 17C11.7215 16.9954 11.4438 16.9674 11.17 16.9164L10.962 15.0143L9.9078 14.4056L8.1646 15.1728C7.80715 14.7453 7.52438 14.2606 7.3282 13.739L8.8702 12.609V11.3913L7.3282 10.2613C7.52469 9.73977 7.80761 9.25505 8.1651 8.8275L9.9078 9.5947L10.962 8.9861L11.17 7.084C11.4438 7.03282 11.7215 7.00472 12 7C12.2785 7.00459 12.5562 7.03255 12.83 7.0836L13.038 8.9857L14.0922 9.5943L15.8354 8.8271C16.1927 9.25468 16.4755 9.73939 16.6718 10.2609L15.1298 11.3909V12.6082L16.6714 13.739Z" fill="black"/>
</svg>
