<svg width="24" height="24" viewBox="0 0 24 24" fill="none" xmlns="http://www.w3.org/2000/svg">
<path d="M19 3H5C4.46957 3 3.96086 3.21071 3.58579 3.58579C3.21071 3.96086 3 4.46957 3 5V19C3.00239 19.173 3.02734 19.345 3.0742 19.5116L8.293 14.293L6 12H12V18L9.707 15.707L4.4883 20.9257C4.6549 20.9727 4.82692 20.9976 5 21H19C19.5304 21 20.0391 20.7893 20.4142 20.4142C20.7893 20.0391 21 19.5304 21 19V5C21 4.46957 20.7893 3.96086 20.4142 3.58579C20.0391 3.21071 19.5304 3 19 3ZM17 7H7C6.73478 7 6.48043 6.89464 6.29289 6.70711C6.10536 6.51957 6 6.26522 6 6C6 5.73478 6.10536 5.48043 6.29289 5.29289C6.48043 5.10536 6.73478 5 7 5H17C17.2652 5 17.5196 5.10536 17.7071 5.29289C17.8946 5.48043 18 5.73478 18 6C18 6.26522 17.8946 6.51957 17.7071 6.70711C17.5196 6.89464 17.2652 7 17 7Z" fill="black"/>
</svg>
