<svg width="24" height="24" viewBox="0 0 24 24" fill="none" xmlns="http://www.w3.org/2000/svg">
<path d="M6.2177 8L6.35 3H5.65L5.7825 8H6.2177ZM6 9.6C5.92089 9.6 5.84355 9.62346 5.77777 9.66741C5.71199 9.71136 5.66072 9.77384 5.63045 9.84693C5.60017 9.92002 5.59225 10.0004 5.60769 10.078C5.62312 10.1556 5.66122 10.2269 5.71716 10.2828C5.7731 10.3388 5.84437 10.3769 5.92196 10.3923C5.99956 10.4077 6.07998 10.3998 6.15307 10.3696C6.22616 10.3393 6.28864 10.288 6.33259 10.2222C6.37654 10.1564 6.4 10.0791 6.4 10C6.4 9.89391 6.35786 9.79217 6.28284 9.71716C6.20783 9.64214 6.10609 9.6 6 9.6ZM4 20H4.5V17.9479L4 18.3979V20ZM14.3334 9.0933V20H14.8334V8.6431L14.3334 9.0933ZM9.1667 20H9.6667V13.2955L9.1667 13.7455V20Z" fill="black"/>
</svg>
