<svg width="24" height="24" viewBox="0 0 24 24" fill="none" xmlns="http://www.w3.org/2000/svg">
<path d="M15.8251 15.4717C17.2666 13.9374 18.047 11.8978 17.9978 9.79316C17.9486 7.68851 17.0737 5.68761 15.5621 4.22237C14.0504 2.75714 12.0232 1.94508 9.91808 1.96149C7.81292 1.97789 5.79863 2.82145 4.31001 4.31007C2.82139 5.79869 1.97783 7.81298 1.96143 9.91814C1.94502 12.0233 2.75708 14.0505 4.22231 15.5621C5.68755 17.0738 7.68845 17.9486 9.7931 17.9979C11.8977 18.0471 13.9374 17.2667 15.4716 15.8252L21.3231 21.6768L21.6767 21.3232L15.8251 15.4717ZM9.99995 17.5C8.51659 17.5 7.06654 17.0601 5.83317 16.236C4.5998 15.4119 3.63851 14.2406 3.07085 12.8701C2.5032 11.4997 2.35467 9.99169 2.64406 8.53683C2.93345 7.08197 3.64775 5.7456 4.69665 4.69671C5.74554 3.64782 7.08191 2.93351 8.53677 2.64412C9.99163 2.35473 11.4996 2.50326 12.8701 3.07091C14.2405 3.63857 15.4119 4.59986 16.236 5.83323C17.0601 7.0666 17.4999 8.51665 17.4999 10C17.4977 11.9884 16.7068 13.8948 15.3008 15.3008C13.8947 16.7069 11.9884 17.4978 9.99995 17.5ZM6.55285 10.25H13.447V9.75001H6.55285V10.25Z" fill="black"/>
</svg>
