<svg width="24" height="24" viewBox="0 0 24 24" fill="none" xmlns="http://www.w3.org/2000/svg">
<path d="M7.73692 17.7366L9.14752 19.1473C9.52155 18.7716 9.9661 18.4735 10.4557 18.2701C10.9452 18.0666 11.4701 17.9619 12.0003 17.9619C12.5304 17.9619 13.0553 18.0666 13.5449 18.2701C14.0344 18.4735 14.479 18.7716 14.853 19.1473L16.2636 17.7367C15.7052 17.1743 15.041 16.728 14.3093 16.4234C13.5776 16.1188 12.7928 15.9619 12.0003 15.9619C11.2077 15.9619 10.423 16.1188 9.69127 16.4234C8.95957 16.728 8.29537 17.1743 7.73692 17.7367V17.7366ZM12.0002 6.00001C9.89867 5.99729 7.81729 6.40989 5.87571 7.21413C3.93413 8.01836 2.17062 9.19836 0.686523 10.6863L2.11202 12.1118C3.40798 10.8087 4.94873 9.77457 6.6457 9.06892C8.34267 8.36326 10.1624 7.99999 12.0002 7.99999C13.8381 7.99999 15.6578 8.36326 17.3547 9.06892C19.0517 9.77457 20.5925 10.8087 21.8884 12.1118L23.3139 10.6863C21.8298 9.19836 20.0663 8.01836 18.1247 7.21413C16.1832 6.40989 14.1018 5.99729 12.0002 6.00001ZM4.21242 14.2122L5.65552 15.6553C6.48123 14.8089 7.46795 14.1362 8.55759 13.6769C9.64722 13.2176 10.8177 12.981 12.0002 12.981C13.1827 12.981 14.3532 13.2176 15.4429 13.6769C16.5325 14.1362 17.5192 14.8089 18.3449 15.6553L19.788 14.2122C18.7662 13.188 17.5523 12.3753 16.216 11.8209C14.8796 11.2664 13.447 10.981 12.0002 10.981C10.5534 10.981 9.12081 11.2664 7.78446 11.8209C6.44811 12.3753 5.23426 13.188 4.21242 14.2122Z" fill="black"/>
</svg>
