<svg width="24" height="24" viewBox="0 0 24 24" fill="none" xmlns="http://www.w3.org/2000/svg">
<path d="M12 11.15C11.8319 11.15 11.6676 11.1999 11.5278 11.2933C11.388 11.3867 11.279 11.5194 11.2147 11.6747C11.1504 11.83 11.1335 12.0009 11.1663 12.1658C11.1991 12.3307 11.2801 12.4822 11.399 12.601C11.5178 12.7199 11.6693 12.8009 11.8342 12.8337C11.9991 12.8665 12.17 12.8496 12.3253 12.7853C12.4806 12.721 12.6134 12.612 12.7068 12.4722C12.8002 12.3325 12.85 12.1681 12.85 12C12.85 11.7746 12.7605 11.5584 12.601 11.399C12.4416 11.2396 12.2254 11.15 12 11.15ZM17 11.15C16.8319 11.15 16.6676 11.1999 16.5278 11.2933C16.388 11.3867 16.279 11.5194 16.2147 11.6747C16.1504 11.83 16.1335 12.0009 16.1663 12.1658C16.1991 12.3307 16.2801 12.4822 16.399 12.601C16.5178 12.7199 16.6693 12.8009 16.8342 12.8337C16.9991 12.8665 17.17 12.8496 17.3253 12.7853C17.4806 12.721 17.6134 12.612 17.7068 12.4722C17.8002 12.3325 17.85 12.1681 17.85 12C17.85 11.7746 17.7605 11.5584 17.601 11.399C17.4416 11.2396 17.2254 11.15 17 11.15ZM7 11.15C6.83189 11.15 6.66755 11.1999 6.52777 11.2933C6.38799 11.3867 6.27904 11.5194 6.21471 11.6747C6.15037 11.83 6.13354 12.0009 6.16634 12.1658C6.19913 12.3307 6.28009 12.4822 6.39896 12.601C6.51784 12.7199 6.66929 12.8009 6.83418 12.8337C6.99906 12.8665 7.16997 12.8496 7.32529 12.7853C7.4806 12.721 7.61335 12.612 7.70675 12.4722C7.80015 12.3325 7.85 12.1681 7.85 12C7.85 11.7746 7.76045 11.5584 7.60105 11.399C7.44164 11.2396 7.22544 11.15 7 11.15ZM12 2C10.0222 2 8.08879 2.58649 6.4443 3.6853C4.79981 4.78412 3.51809 6.3459 2.76121 8.17317C2.00433 10.0004 1.8063 12.0111 2.19215 13.9509C2.578 15.8907 3.53041 17.6725 4.92894 19.0711C6.32746 20.4696 8.10929 21.422 10.0491 21.8079C11.9889 22.1937 13.9996 21.9957 15.8268 21.2388C17.6541 20.4819 19.2159 19.2002 20.3147 17.5557C21.4135 15.9112 22 13.9778 22 12C22 10.6868 21.7413 9.38642 21.2388 8.17317C20.7363 6.95991 19.9997 5.85752 19.0711 4.92893C18.1425 4.00035 17.0401 3.26375 15.8268 2.7612C14.6136 2.25866 13.3132 2 12 2ZM12 21C10.22 21 8.47991 20.4722 6.99987 19.4832C5.51983 18.4943 4.36628 17.0887 3.68509 15.4442C3.0039 13.7996 2.82567 11.99 3.17294 10.2442C3.5202 8.49836 4.37737 6.89471 5.63604 5.63604C6.89472 4.37737 8.49836 3.5202 10.2442 3.17293C11.99 2.82567 13.7996 3.0039 15.4442 3.68508C17.0887 4.36627 18.4943 5.51983 19.4832 6.99987C20.4722 8.47991 21 10.22 21 12C20.9974 14.3861 20.0483 16.6738 18.361 18.361C16.6738 20.0483 14.3861 20.9974 12 21Z" fill="black"/>
</svg>
