<svg width="24" height="24" viewBox="0 0 24 24" fill="none" xmlns="http://www.w3.org/2000/svg">
<path d="M19 8H5L6.2649 22H23V20.5H17.8706L18.2019 16.8333H23V15.3333H18.3374L18.6687 11.6666H23V10.1666H18.8042L19 8ZM16 5V3C16 2.46957 15.7893 1.96086 15.4142 1.58579C15.0391 1.21071 14.5304 1 14 1H10C9.46957 1 8.96086 1.21071 8.58579 1.58579C8.21071 1.96086 8 2.46957 8 3V5H3V6.5H23V5H16ZM14.5 5H9.5V3C9.50016 2.86744 9.55289 2.74036 9.64662 2.64662C9.74036 2.55289 9.86744 2.50016 10 2.5H14C14.1326 2.50016 14.2596 2.55289 14.3534 2.64662C14.4471 2.74036 14.4998 2.86744 14.5 3V5Z" fill="black"/>
</svg>
