<svg width="24" height="24" viewBox="0 0 24 24" fill="none" xmlns="http://www.w3.org/2000/svg">
<path d="M18 16C17.5447 16.0012 17.0957 16.1066 16.6873 16.3081C16.279 16.5096 15.9222 16.802 15.6443 17.1627L7.83125 12.9521C8.05627 12.3373 8.05627 11.6627 7.83125 11.0479L15.6443 6.83731C16.0825 7.39097 16.7028 7.77137 17.395 7.91092C18.0871 8.05048 18.8063 7.94015 19.4248 7.59954C20.0433 7.25893 20.521 6.71009 20.7731 6.05055C21.0252 5.391 21.0353 4.66344 20.8016 3.99714C20.568 3.33084 20.1057 2.76895 19.4969 2.41129C18.8881 2.05363 18.1722 1.92336 17.4765 2.04363C16.7807 2.1639 16.1501 2.52692 15.6967 3.06819C15.2433 3.60946 14.9965 4.29394 15 5.00001C15.0038 5.32621 15.0612 5.64958 15.17 5.95711L7.35855 10.1671C6.97595 9.67154 6.4479 9.30808 5.84838 9.12767C5.24887 8.94726 4.60793 8.95893 4.01538 9.16105C3.42283 9.36316 2.90836 9.7456 2.54406 10.2548C2.17976 10.7639 1.98389 11.3743 1.98389 12.0004C1.98389 12.6265 2.17976 13.2369 2.54406 13.746C2.90836 14.2552 3.42283 14.6377 4.01538 14.8398C4.60793 15.0419 5.24887 15.0536 5.84838 14.8732C6.4479 14.6927 6.97595 14.3293 7.35855 13.8337L15.17 18.0437C14.9693 18.6443 14.9643 19.2931 15.1558 19.8968C15.3473 20.5004 15.7253 21.0277 16.2356 21.4028C16.7458 21.7779 17.3619 21.9815 17.9952 21.9842C18.6284 21.9869 19.2462 21.7886 19.7596 21.4178C20.273 21.0471 20.6555 20.523 20.8521 19.921C21.0487 19.319 21.0493 18.6702 20.8536 18.0679C20.658 17.4656 20.2764 16.9409 19.7636 16.5693C19.2508 16.1977 18.6333 15.9984 18 16ZM18 3.00001C18.3956 3.00001 18.7823 3.11731 19.1112 3.33707C19.4401 3.55683 19.6964 3.86919 19.8478 4.23464C19.9992 4.6001 20.0388 5.00223 19.9616 5.39019C19.8844 5.77815 19.694 6.13452 19.4143 6.41422C19.1346 6.69393 18.7782 6.88441 18.3902 6.96158C18.0023 7.03875 17.6001 6.99914 17.2347 6.84777C16.8692 6.69639 16.5569 6.44005 16.3371 6.11115C16.1173 5.78225 16 5.39557 16 5.00001C16.0007 4.46976 16.2116 3.96141 16.5865 3.58647C16.9614 3.21153 17.4698 3.00062 18 3.00001ZM5.00005 14C4.60448 14 4.2178 13.8827 3.88891 13.6629C3.56001 13.4432 3.30366 13.1308 3.15229 12.7654C3.00091 12.3999 2.96131 11.9978 3.03848 11.6098C3.11565 11.2219 3.30613 10.8655 3.58583 10.5858C3.86554 10.3061 4.2219 10.1156 4.60987 10.0384C4.99783 9.96127 5.39996 10.0009 5.76541 10.1523C6.13087 10.3036 6.44322 10.56 6.66299 10.8889C6.88275 11.2178 7.00005 11.6044 7.00005 12C6.99944 12.5303 6.78853 13.0386 6.41359 13.4136C6.03865 13.7885 5.53029 13.9994 5.00005 14ZM18 21C17.6045 21 17.2178 20.8827 16.8889 20.6629C16.56 20.4432 16.3037 20.1308 16.1523 19.7654C16.0009 19.3999 15.9613 18.9978 16.0385 18.6098C16.1156 18.2219 16.3061 17.8655 16.5858 17.5858C16.8655 17.3061 17.2219 17.1156 17.6099 17.0384C17.9978 16.9613 18.4 17.0009 18.7654 17.1523C19.1309 17.3036 19.4432 17.56 19.663 17.8889C19.8827 18.2178 20 18.6044 20 19C19.9994 19.5303 19.7885 20.0386 19.4136 20.4136C19.0386 20.7885 18.5303 20.9994 18 21Z" fill="black"/>
</svg>
