<svg width="24" height="24" viewBox="0 0 24 24" fill="none" xmlns="http://www.w3.org/2000/svg">
<path d="M12 2C10.0222 2 8.08879 2.58649 6.4443 3.6853C4.79981 4.78412 3.51809 6.3459 2.76121 8.17317C2.00433 10.0004 1.8063 12.0111 2.19215 13.9509C2.578 15.8907 3.53041 17.6725 4.92894 19.0711C6.32746 20.4696 8.10929 21.422 10.0491 21.8079C11.9889 22.1937 13.9996 21.9957 15.8268 21.2388C17.6541 20.4819 19.2159 19.2002 20.3147 17.5557C21.4135 15.9112 22 13.9778 22 12C22 10.6868 21.7413 9.38642 21.2388 8.17317C20.7363 6.95991 19.9997 5.85752 19.0711 4.92893C18.1425 4.00035 17.0401 3.26375 15.8268 2.7612C14.6136 2.25866 13.3132 2 12 2ZM7 13.25C6.75278 13.25 6.5111 13.1767 6.30554 13.0393C6.09998 12.902 5.93976 12.7068 5.84516 12.4784C5.75055 12.2499 5.72579 11.9986 5.77402 11.7561C5.82225 11.5137 5.94131 11.2909 6.11612 11.1161C6.29094 10.9413 6.51366 10.8222 6.75614 10.774C6.99862 10.7258 7.24995 10.7505 7.47836 10.8452C7.70677 10.9398 7.90199 11.1 8.03934 11.3055C8.17669 11.5111 8.25 11.7528 8.25 12C8.25 12.3315 8.11831 12.6495 7.88389 12.8839C7.64947 13.1183 7.33152 13.25 7 13.25ZM12 13.25C11.7528 13.25 11.5111 13.1767 11.3055 13.0393C11.1 12.902 10.9398 12.7068 10.8452 12.4784C10.7505 12.2499 10.7258 11.9986 10.774 11.7561C10.8223 11.5137 10.9413 11.2909 11.1161 11.1161C11.2909 10.9413 11.5137 10.8222 11.7561 10.774C11.9986 10.7258 12.25 10.7505 12.4784 10.8452C12.7068 10.9398 12.902 11.1 13.0393 11.3055C13.1767 11.5111 13.25 11.7528 13.25 12C13.25 12.3315 13.1183 12.6495 12.8839 12.8839C12.6495 13.1183 12.3315 13.25 12 13.25ZM17 13.25C16.7528 13.25 16.5111 13.1767 16.3055 13.0393C16.1 12.902 15.9398 12.7068 15.8452 12.4784C15.7505 12.2499 15.7258 11.9986 15.774 11.7561C15.8223 11.5137 15.9413 11.2909 16.1161 11.1161C16.2909 10.9413 16.5137 10.8222 16.7561 10.774C16.9986 10.7258 17.25 10.7505 17.4784 10.8452C17.7068 10.9398 17.902 11.1 18.0393 11.3055C18.1767 11.5111 18.25 11.7528 18.25 12C18.25 12.3315 18.1183 12.6495 17.8839 12.8839C17.6495 13.1183 17.3315 13.25 17 13.25Z" fill="black"/>
</svg>
