<svg width="24" height="24" viewBox="0 0 24 24" fill="none" xmlns="http://www.w3.org/2000/svg">
<path d="M20.4366 4.47759C20.2491 4.29012 19.9948 4.18481 19.7296 4.18481C19.4644 4.18481 19.2101 4.29012 19.0226 4.47759L12.2072 11.293L9.38819 8.47399C9.92366 7.72317 10.1543 6.79712 10.0334 5.88286C9.91255 4.96861 9.44926 4.13428 8.73708 3.54838C8.02491 2.96249 7.11693 2.66868 6.19653 2.7263C5.27612 2.78391 4.41188 3.18867 3.77834 3.85881C3.14479 4.52895 2.78917 5.41454 2.78328 6.33673C2.77739 7.25892 3.12168 8.14898 3.74661 8.82716C4.37154 9.50534 5.23055 9.9211 6.15014 9.99047C7.06974 10.0598 7.98139 9.77765 8.70099 9.20089L11.5001 12L8.70099 14.7991C8.0264 14.2693 7.17641 14.0143 6.3216 14.0852C5.46679 14.1561 4.67042 14.5476 4.09231 15.1813C3.51419 15.8149 3.19713 16.6438 3.20473 17.5015C3.21234 18.3592 3.54405 19.1823 4.13331 19.8056C4.72257 20.4289 5.52576 20.8063 6.38169 20.862C7.23762 20.9177 8.08296 20.6476 8.74805 20.106C9.41313 19.5643 9.84875 18.7912 9.96749 17.9417C10.0862 17.0922 9.87928 16.2292 9.38819 15.526L12.2072 12.707L19.0226 19.5224C19.2101 19.7099 19.4644 19.8152 19.7296 19.8152C19.9948 19.8152 20.2491 19.7099 20.4366 19.5224L12.9142 12L20.4366 4.47759ZM6.50009 8.99999C6.00563 8.99999 5.52228 8.85337 5.11116 8.57867C4.70004 8.30396 4.37961 7.91352 4.19039 7.4567C4.00117 6.99989 3.95166 6.49722 4.04812 6.01227C4.14459 5.52731 4.38269 5.08186 4.73232 4.73222C5.08195 4.38259 5.52741 4.14449 6.01236 4.04803C6.49731 3.95157 6.99998 4.00107 7.4568 4.19029C7.91361 4.37951 8.30406 4.69994 8.57876 5.11107C8.85347 5.52219 9.00009 6.00554 9.00009 6.49999C8.99935 7.16281 8.73572 7.79826 8.26704 8.26694C7.79836 8.73562 7.1629 8.99925 6.50009 8.99999ZM6.50009 20C6.00563 20 5.52228 19.8534 5.11116 19.5787C4.70004 19.304 4.37961 18.9135 4.19039 18.4567C4.00117 17.9999 3.95166 17.4972 4.04812 17.0123C4.14459 16.5273 4.38269 16.0819 4.73232 15.7322C5.08195 15.3826 5.52741 15.1445 6.01236 15.048C6.49731 14.9516 6.99998 15.0011 7.4568 15.1903C7.91361 15.3795 8.30406 15.6999 8.57876 16.1111C8.85347 16.5222 9.00009 17.0055 9.00009 17.5C8.99935 18.1628 8.73572 18.7983 8.26704 19.2669C7.79836 19.7356 7.1629 19.9993 6.50009 20Z" fill="black"/>
</svg>
