<svg width="24" height="24" viewBox="0 0 24 24" fill="none" xmlns="http://www.w3.org/2000/svg">
<path d="M12 5C10.6155 5 9.26212 5.41054 8.11098 6.17971C6.95984 6.94888 6.06263 8.04213 5.53281 9.32121C5.003 10.6003 4.86438 12.0078 5.13447 13.3656C5.40457 14.7235 6.07126 15.9708 7.05022 16.9497C8.02919 17.9287 9.27647 18.5954 10.6343 18.8655C11.9922 19.1356 13.3997 18.997 14.6788 18.4672C15.9578 17.9373 17.0511 17.0401 17.8203 15.889C18.5894 14.7378 19 13.3845 19 12C18.9978 10.1441 18.2596 8.36491 16.9474 7.05262C15.6351 5.74033 13.8558 5.00214 12 5ZM2.71997 17.9613H2.21997V21.9613H6.21997V21.4613H2.71997V17.9613ZM21.28 21.4613H17.78V21.9613H21.78V17.9613H21.28V21.4613ZM2.71997 2.5387H6.21997V2.0387H2.21997V6.0387H2.71997V2.5387ZM17.78 2.0387V2.5387H21.28V6.0387H21.78V2.0387H17.78Z" fill="black"/>
</svg>
