<svg width="24" height="24" viewBox="0 0 24 24" fill="none" xmlns="http://www.w3.org/2000/svg">
<path d="M15.8254 15.4717C17.2669 13.9374 18.0473 11.8978 17.998 9.79316C17.9488 7.68851 17.074 5.68761 15.5623 4.22237C14.0507 2.75714 12.0235 1.94508 9.91833 1.96149C7.81316 1.97789 5.79887 2.82145 4.31025 4.31007C2.82163 5.79869 1.97808 7.81298 1.96167 9.91814C1.94526 12.0233 2.75732 14.0505 4.22256 15.5621C5.68779 17.0738 7.68869 17.9486 9.79334 17.9979C11.898 18.0471 13.9376 17.2667 15.4719 15.8252L21.3234 21.6768L21.677 21.3232L15.8254 15.4717ZM10.0002 17.5C8.51683 17.5 7.06678 17.0601 5.83342 16.236C4.60005 15.4119 3.63875 14.2406 3.0711 12.8701C2.50344 11.4997 2.35491 9.99169 2.6443 8.53683C2.93369 7.08197 3.648 5.7456 4.69689 4.69671C5.74579 3.64782 7.08216 2.93351 8.53702 2.64412C9.99187 2.35473 11.4999 2.50326 12.8703 3.07091C14.2408 3.63857 15.4121 4.59986 16.2362 5.83323C17.0603 7.0666 17.5002 8.51665 17.5002 10C17.4979 11.9884 16.707 13.8948 15.301 15.3008C13.895 16.7069 11.9886 17.4978 10.0002 17.5ZM12.2609 7.38571L10.0002 9.64651L7.73949 7.38571L7.38589 7.73931L9.64669 10L7.38589 12.2607L7.73949 12.6143L10.0002 10.3535L12.2609 12.6143L12.6145 12.2607L10.3537 10L12.6145 7.73931L12.2609 7.38571Z" fill="black"/>
</svg>
