<svg width="24" height="24" viewBox="0 0 24 24" fill="none" xmlns="http://www.w3.org/2000/svg">
<path d="M12 2C10.0222 2 8.08879 2.58649 6.4443 3.6853C4.79981 4.78412 3.51809 6.3459 2.76121 8.17317C2.00433 10.0004 1.8063 12.0111 2.19215 13.9509C2.578 15.8907 3.53041 17.6725 4.92894 19.0711C6.32746 20.4696 8.10929 21.422 10.0491 21.8079C11.9889 22.1937 13.9996 21.9957 15.8268 21.2388C17.6541 20.4819 19.2159 19.2002 20.3147 17.5557C21.4135 15.9112 22 13.9778 22 12C22 10.6868 21.7413 9.38642 21.2388 8.17317C20.7363 6.95991 19.9997 5.85752 19.0711 4.92893C18.1425 4.00035 17.0401 3.26375 15.8268 2.7612C14.6136 2.25866 13.3132 2 12 2ZM3 12C2.9971 10.2625 3.49804 8.56148 4.44215 7.10289C5.38626 5.6443 6.73304 4.49074 8.31936 3.78193C9.90569 3.07312 11.6635 2.83947 13.3799 3.10928C15.0963 3.37909 16.6977 4.14078 17.99 5.3021L5.3026 17.9908C3.82108 16.3471 3.00079 14.2129 3 12ZM12 21C9.78748 20.9991 7.65364 20.179 6.01 18.6979L18.6974 6.0091C19.859 7.30139 20.6209 8.90278 20.8909 10.6193C21.1609 12.3358 20.9273 14.0938 20.2186 15.6802C19.5098 17.2667 18.3562 18.6136 16.8975 19.5578C15.4388 20.502 13.7376 21.003 12 21Z" fill="black"/>
</svg>
