<svg width="24" height="24" viewBox="0 0 24 24" fill="none" xmlns="http://www.w3.org/2000/svg">
<path d="M21.0517 8.5723L19.6717 9.1611C20.1813 10.3623 20.3563 11.6789 20.1781 12.9715C20 14.2641 19.4754 15.4844 18.6599 16.5029C18.0383 16.0758 17.2821 15.8906 16.5335 15.9822C15.7849 16.0738 15.0957 16.4358 14.5954 17.0002C14.0952 17.5646 13.8185 18.2924 13.8175 19.0465C13.8164 19.8007 14.0911 20.5292 14.5898 21.095C15.0884 21.6607 15.7767 22.0247 16.525 22.1184C17.2734 22.212 18.0301 22.0289 18.6528 21.6035C19.2756 21.1781 19.7213 20.5398 19.9062 19.8086C20.091 19.0775 20.0023 18.304 19.6566 17.6337C20.7074 16.4017 21.3945 14.9015 21.6409 13.3011C21.8873 11.7007 21.6833 10.0633 21.0517 8.5723ZM16.9999 20.5C16.7032 20.5 16.4132 20.412 16.1665 20.2472C15.9198 20.0824 15.7276 19.8481 15.614 19.574C15.5005 19.2999 15.4708 18.9983 15.5287 18.7074C15.5866 18.4164 15.7294 18.1491 15.9392 17.9393C16.149 17.7296 16.4163 17.5867 16.7072 17.5288C16.9982 17.4709 17.2998 17.5006 17.5739 17.6142C17.848 17.7277 18.0823 17.92 18.2471 18.1666C18.4119 18.4133 18.4999 18.7033 18.4999 19C18.4994 19.3977 18.3412 19.779 18.06 20.0602C17.7788 20.3414 17.3976 20.4995 16.9999 20.5ZM14.464 6.5359C14.7606 7.04998 15.2031 7.46454 15.7354 7.72714C16.2677 7.98974 16.8659 8.08858 17.4544 8.01117C18.0428 7.93375 18.5951 7.68356 19.0414 7.29223C19.4876 6.90089 19.8078 6.38601 19.9614 5.81269C20.115 5.23937 20.0952 4.63337 19.9044 4.07134C19.7135 3.50931 19.3603 3.0165 18.8894 2.65524C18.4184 2.29398 17.8509 2.08049 17.2586 2.04179C16.6664 2.00308 16.0759 2.1409 15.562 2.4378C15.151 2.6787 14.8041 3.01506 14.5507 3.4184C12.9583 3.12418 11.3154 3.27915 9.80614 3.86593C8.29685 4.45271 6.98075 5.44814 6.00527 6.7407L7.20527 7.6407C7.99089 6.59892 9.04381 5.78919 10.2524 5.29737C11.4609 4.80556 12.7801 4.65 14.0699 4.8472C14.0311 5.4367 14.1683 6.02443 14.464 6.5359ZM15.6132 4.6476C15.6987 4.32906 15.8867 4.04753 16.1482 3.84651C16.4097 3.64549 16.7301 3.53616 17.0599 3.5354C17.3906 3.53448 17.7124 3.64288 17.9751 3.84375C18.2378 4.04462 18.4268 4.32669 18.5126 4.64608C18.5985 4.96547 18.5764 5.30428 18.4497 5.60979C18.3231 5.91531 18.099 6.1704 17.8124 6.3354C17.5856 6.46774 17.3277 6.53725 17.0652 6.5368C16.8015 6.53655 16.5425 6.4671 16.3141 6.3354C16.0857 6.2037 15.8958 6.01436 15.7635 5.7863C15.6643 5.6159 15.5999 5.42749 15.5741 5.23202C15.5483 5.03655 15.5616 4.8379 15.6132 4.6476ZM6.26557 14.6362C6.79598 14.3804 7.23813 13.9723 7.53557 13.4641C7.83225 12.9502 7.96988 12.36 7.93108 11.7679C7.89227 11.1758 7.67877 10.6085 7.31756 10.1378C6.95635 9.66706 6.46366 9.31401 5.9018 9.12328C5.33994 8.93256 4.73414 8.91274 4.16102 9.06631C3.58789 9.21989 3.07317 9.53997 2.68195 9.98608C2.29074 10.4322 2.0406 10.9843 1.96316 11.5726C1.88572 12.1608 1.98447 12.7589 2.24691 13.291C2.50936 13.8232 2.92371 14.2655 3.43757 14.5622C3.85177 14.797 4.31638 14.9286 4.79217 14.9461C5.33346 16.4724 6.28906 17.8178 7.55191 18.8316C8.81475 19.8454 10.3349 20.4876 11.9422 20.6861L12.1222 19.1969C10.8248 19.0372 9.59508 18.5288 8.56378 17.7257C7.53248 16.9226 6.73823 15.8549 6.26557 14.6362ZM4.93497 13.4646C4.67241 13.4651 4.41447 13.3956 4.18777 13.2631C3.90136 13.098 3.67752 12.8429 3.55106 12.5374C3.42459 12.232 3.40257 11.8933 3.48843 11.574C3.57429 11.2548 3.76322 10.9728 4.02584 10.772C4.28847 10.5712 4.61007 10.4628 4.94067 10.4636C5.20379 10.4641 5.46216 10.5338 5.68983 10.6657C5.91751 10.7976 6.10648 10.987 6.23779 11.215C6.3691 11.4431 6.43812 11.7016 6.43792 11.9647C6.43772 12.2278 6.36832 12.4863 6.23667 12.7141C6.10436 12.9422 5.9145 13.1315 5.68607 13.2632C5.45764 13.3949 5.19865 13.4644 4.93497 13.4646Z" fill="black"/>
</svg>
