<svg width="24" height="24" viewBox="0 0 24 24" fill="none" xmlns="http://www.w3.org/2000/svg">
<path d="M19 3H5C4.46957 3 3.96086 3.21071 3.58579 3.58579C3.21071 3.96086 3 4.46957 3 5V19C3 19.5304 3.21071 20.0391 3.58579 20.4142C3.96086 20.7893 4.46957 21 5 21H19C19.5304 21 20.0391 20.7893 20.4142 20.4142C20.7893 20.0391 21 19.5304 21 19V5C21 4.46957 20.7893 3.96086 20.4142 3.58579C20.0391 3.21071 19.5304 3 19 3ZM20 19C19.9997 19.2651 19.8942 19.5193 19.7068 19.7068C19.5193 19.8942 19.2651 19.9997 19 20H5C4.73488 19.9997 4.48071 19.8942 4.29324 19.7068C4.10578 19.5193 4.00032 19.2651 4 19V5C4.00032 4.73488 4.10578 4.48071 4.29324 4.29324C4.48071 4.10578 4.73488 4.00032 5 4H19C19.2651 4.00032 19.5193 4.10578 19.7068 4.29324C19.8942 4.48071 19.9997 4.73488 20 5V19ZM8.3735 5.3333C8.25483 5.3333 8.13883 5.36849 8.04016 5.43442C7.94149 5.50035 7.86458 5.59405 7.81917 5.70369C7.77376 5.81333 7.76188 5.93397 7.78503 6.05035C7.80818 6.16674 7.86532 6.27365 7.94924 6.35756C8.03315 6.44148 8.14006 6.49862 8.25645 6.52177C8.37283 6.54492 8.49347 6.53304 8.60311 6.48763C8.71275 6.44221 8.80645 6.36531 8.87238 6.26664C8.93831 6.16797 8.9735 6.05197 8.9735 5.9333C8.9735 5.77417 8.91029 5.62156 8.79776 5.50904C8.68524 5.39651 8.53263 5.3333 8.3735 5.3333ZM5.9316 5.3333C5.81293 5.3333 5.69693 5.36849 5.59826 5.43442C5.49959 5.50035 5.42268 5.59405 5.37727 5.70369C5.33186 5.81333 5.31998 5.93397 5.34313 6.05035C5.36628 6.16674 5.42342 6.27365 5.50734 6.35756C5.59125 6.44148 5.69816 6.49862 5.81455 6.52177C5.93093 6.54492 6.05157 6.53304 6.16121 6.48763C6.27085 6.44221 6.36455 6.36531 6.43048 6.26664C6.49641 6.16797 6.5316 6.05197 6.5316 5.9333C6.5316 5.77417 6.46839 5.62156 6.35586 5.50904C6.24334 5.39651 6.09073 5.3333 5.9316 5.3333ZM10.8159 5.3333C10.6972 5.3333 10.5812 5.36849 10.4826 5.43442C10.3839 5.50035 10.307 5.59405 10.2616 5.70369C10.2162 5.81333 10.2043 5.93397 10.2274 6.05035C10.2506 6.16674 10.3077 6.27365 10.3916 6.35756C10.4755 6.44148 10.5825 6.49862 10.6988 6.52177C10.8152 6.54492 10.9359 6.53304 11.0455 6.48763C11.1551 6.44221 11.2489 6.36531 11.3148 6.26664C11.3807 6.16797 11.4159 6.05197 11.4159 5.9333C11.4159 5.77417 11.3527 5.62156 11.2402 5.50904C11.1276 5.39651 10.975 5.3333 10.8159 5.3333Z" fill="black"/>
</svg>
