<svg width="24" height="24" viewBox="0 0 24 24" fill="none" xmlns="http://www.w3.org/2000/svg">
<path d="M15 20.1742V21.2369H16.0627L19.4607 17.839L18.3979 16.7762L15 20.1742ZM21.0444 15.6242L20.6123 15.192C20.5287 15.1084 20.4153 15.0614 20.297 15.0614C20.1787 15.0614 20.0653 15.1084 19.9817 15.192L19.2463 15.9273L20.3091 16.9901L21.0444 16.2548C21.1279 16.1712 21.1748 16.0579 21.1748 15.9397C21.1748 15.8215 21.1279 15.7082 21.0444 15.6246V15.6242ZM19 5H5V6.5H19V5ZM19 11.25H5V12.75H19V11.25ZM5 19H13V17.5H5V19Z" fill="black"/>
</svg>
