<svg width="24" height="24" viewBox="0 0 24 24" fill="none" xmlns="http://www.w3.org/2000/svg">
<path d="M16 3H8C6.67392 3 5.40215 3.52678 4.46447 4.46447C3.52678 5.40215 3 6.67392 3 8V16C3 17.3261 3.52678 18.5979 4.46447 19.5355C5.40215 20.4732 6.67392 21 8 21H16C17.3261 21 18.5979 20.4732 19.5355 19.5355C20.4732 18.5979 21 17.3261 21 16V8C21 6.67392 20.4732 5.40215 19.5355 4.46447C18.5979 3.52678 17.3261 3 16 3ZM20 16C19.9988 17.0605 19.577 18.0772 18.8271 18.8271C18.0772 19.577 17.0605 19.9988 16 20H8C6.9395 19.9988 5.92278 19.577 5.17289 18.8271C4.423 18.0772 4.00119 17.0605 4 16V8C4.00119 6.9395 4.423 5.92278 5.17289 5.17289C5.92278 4.423 6.9395 4.00119 8 4H16C17.0605 4.00119 18.0772 4.423 18.8271 5.17289C19.577 5.92278 19.9988 6.9395 20 8V16ZM12 8C11.2089 8 10.4355 8.2346 9.77772 8.67412C9.11992 9.11365 8.60723 9.73836 8.30448 10.4693C8.00173 11.2002 7.92252 12.0044 8.07686 12.7804C8.2312 13.5563 8.61216 14.269 9.17157 14.8284C9.73098 15.3878 10.4437 15.7688 11.2196 15.9231C11.9956 16.0775 12.7998 15.9983 13.5307 15.6955C14.2616 15.3928 14.8864 14.8801 15.3259 14.2223C15.7654 13.5645 16 12.7911 16 12C16 10.9391 15.5786 9.92172 14.8284 9.17157C14.0783 8.42143 13.0609 8 12 8ZM12 15C11.4067 15 10.8266 14.8241 10.3333 14.4944C9.83994 14.1648 9.45542 13.6962 9.22836 13.1481C9.0013 12.5999 8.94189 11.9967 9.05764 11.4147C9.1734 10.8328 9.45912 10.2982 9.87868 9.87868C10.2982 9.45912 10.8328 9.1734 11.4147 9.05764C11.9967 8.94189 12.5999 9.0013 13.1481 9.22836C13.6962 9.45542 14.1648 9.83994 14.4944 10.3333C14.8241 10.8266 15 11.4067 15 12C14.9991 12.7954 14.6828 13.5579 14.1204 14.1204C13.5579 14.6828 12.7954 14.9991 12 15Z" fill="black"/>
</svg>
