<svg width="24" height="24" viewBox="0 0 24 24" fill="none" xmlns="http://www.w3.org/2000/svg">
<path d="M9.2972 16.6717L11.1255 18.5H8C7.33719 18.4993 6.70173 18.2356 6.23305 17.7669C5.76437 17.2983 5.50074 16.6628 5.5 16V8C5.50074 7.33719 5.76437 6.70173 6.23305 6.23305C6.70173 5.76437 7.33719 5.50074 8 5.5H11V5H8C7.20435 5 6.44129 5.31607 5.87868 5.87868C5.31607 6.44129 5 7.20435 5 8V16C5 16.7956 5.31607 17.5587 5.87868 18.1213C6.44129 18.6839 7.20435 19 8 19H11.1255L9.2972 20.8283L9.6512 21.1822L12.0833 18.75L9.6512 16.3178L9.2972 16.6717ZM15 5V5.5H19V5H15ZM15 12.25H19V11.75H15V12.25ZM15 19H19V18.5H15V19Z" fill="black"/>
</svg>
