<svg width="24" height="24" viewBox="0 0 24 24" fill="none" xmlns="http://www.w3.org/2000/svg">
<path d="M19 21H21V12H19V21ZM15 21H17V15H15V21ZM19.99 3.26463L14.5555 8.26562L8.44429 2.64062L1.65619 8.89003L3.00999 10.36L8.44449 5.35903L14.5559 10.984L21.344 4.73503L19.99 3.26463ZM7.39999 12.0908V17.4H2.08999C2.25277 18.1964 2.62825 18.9339 3.17653 19.534C3.7248 20.1342 4.4254 20.5746 5.20391 20.8085C5.98241 21.0424 6.80973 21.0611 7.598 20.8626C8.38626 20.664 9.10602 20.2556 9.68081 19.6809C10.2556 19.1061 10.664 18.3863 10.8625 17.598C11.0611 16.8098 11.0424 15.9824 10.8085 15.2039C10.5746 14.4254 10.1342 13.7248 9.53401 13.1766C8.93386 12.6283 8.19641 12.2528 7.39999 12.09V12.0908ZM2.09079 15.6H5.59999V12.0908C4.73566 12.2678 3.94232 12.6947 3.31847 13.3185C2.69462 13.9424 2.26773 14.7357 2.09079 15.6Z" fill="black"/>
</svg>
