<svg width="24" height="24" viewBox="0 0 24 24" fill="none" xmlns="http://www.w3.org/2000/svg">
<path d="M22 12H19.9962C19.9976 13.8083 19.3863 15.5637 18.2622 16.9801C17.138 18.3965 15.5672 19.3903 13.8058 19.7995C12.0444 20.2087 10.1963 20.0092 8.5629 19.2335C6.92945 18.4577 5.60695 17.1516 4.81099 15.5279C4.01504 13.9042 3.79258 12.0587 4.17987 10.2924C4.56717 8.52608 5.54139 6.94304 6.9437 5.80136C8.34602 4.65968 10.0937 4.0267 11.9019 4.00561C13.7101 3.98452 15.472 4.57656 16.9006 5.68522L15.2068 7.37892C14.1727 6.66298 12.9285 6.31436 11.673 6.3888C10.4175 6.46323 9.22318 6.95641 8.28096 7.78952C7.33873 8.62262 6.703 9.74755 6.47537 10.9845C6.24774 12.2214 6.44135 13.499 7.02527 14.6129C7.60919 15.7269 8.54969 16.6129 9.69645 17.1295C10.8432 17.646 12.13 17.7631 13.3512 17.4622C14.5724 17.1613 15.6575 16.4597 16.433 15.4695C17.2084 14.4793 17.6296 13.2577 17.6291 12H15.6273C15.6324 12.7989 15.3745 13.5772 14.8933 14.2148C14.4121 14.8525 13.7344 15.314 12.9648 15.5282C12.1952 15.7424 11.3765 15.6973 10.6351 15.3999C9.89363 15.1025 9.2707 14.5694 8.86242 13.8827C8.45413 13.1961 8.2832 12.3942 8.37601 11.6007C8.46882 10.8073 8.8202 10.0665 9.37593 9.49261C9.93165 8.91873 10.6608 8.54373 11.4509 8.42548C12.2409 8.30723 13.0479 8.45231 13.7473 8.83832L11.2927 11.2929C11.1065 11.4807 11.0023 11.7347 11.0029 11.9991C11.0035 12.2636 11.1088 12.517 11.2958 12.704C11.4828 12.891 11.7363 12.9963 12.0007 12.9969C12.2652 12.9975 12.5191 12.8933 12.7069 12.7071L19.7782 5.63602L19.0711 4.92892C17.4352 3.29298 15.2826 2.27489 12.9802 2.04811C10.6778 1.82133 8.368 2.3999 6.44434 3.68523C4.52069 4.97056 3.10221 6.88313 2.43061 9.09706C1.75901 11.311 1.87584 13.6893 2.76119 15.8267C3.64653 17.9642 5.24562 19.7285 7.28598 20.8191C9.32635 21.9098 11.6817 22.2592 13.9508 21.8078C16.2199 21.3565 18.2624 20.1323 19.7301 18.3439C21.1978 16.5555 22 14.3136 22 12Z" fill="black"/>
</svg>
