<svg width="24" height="24" viewBox="0 0 24 24" fill="none" xmlns="http://www.w3.org/2000/svg">
<path d="M16.1619 15.1013C17.4739 13.5168 18.1252 11.4879 17.9806 9.43584C17.8359 7.38378 16.9065 5.46626 15.3853 4.08144C13.8641 2.69662 11.8679 1.95091 9.81132 1.99915C7.75473 2.04739 5.79574 2.88588 4.34112 4.34051C2.88649 5.79513 2.048 7.75412 1.99976 9.81071C1.95152 11.8673 2.69723 13.8634 4.08205 15.3847C5.46687 16.9059 7.38439 17.8353 9.43645 17.98C11.4885 18.1246 13.5174 17.4733 15.1019 16.1613L20.9701 22.03L22.0301 20.97L16.1619 15.1013ZM10.0001 16.5C8.71455 16.5 7.45784 16.1188 6.38892 15.4046C5.32 14.6903 4.48688 13.6752 3.99491 12.4875C3.50294 11.2997 3.37422 9.99281 3.62502 8.73193C3.87583 7.47105 4.49489 6.31286 5.40393 5.40382C6.31297 4.49478 7.47116 3.87572 8.73204 3.62491C9.99292 3.37411 11.2998 3.50283 12.4876 3.9948C13.6753 4.48677 14.6904 5.31989 15.4047 6.38881C16.1189 7.45773 16.5001 8.71444 16.5001 10C16.4982 11.7233 15.8127 13.3755 14.5942 14.594C13.3756 15.8126 11.7234 16.4981 10.0001 16.5ZM9.39763 10.8L7.14223 8.54472L6.18813 9.49932L9.39813 12.7093L14.0001 8.10772L13.046 7.15312L9.39763 10.8Z" fill="black"/>
</svg>
