<svg width="24" height="24" viewBox="0 0 24 24" fill="none" xmlns="http://www.w3.org/2000/svg">
<path d="M11 4.00002C11.7879 3.99953 12.5681 4.1547 13.2959 4.45661C14.0236 4.75852 14.6845 5.20124 15.2407 5.75932L15.4122 5.93082L13.3431 8.00002H19V2.34312L16.8283 4.51472L16.6568 4.34322C15.538 3.22442 14.1125 2.46251 12.5607 2.15384C11.0089 1.84516 9.40034 2.00359 7.93855 2.60908C6.47675 3.21458 5.22733 4.23994 4.34828 5.55551C3.46922 6.87109 3.00002 8.41778 3 10H5C5.0018 8.40927 5.63452 6.88419 6.75935 5.75936C7.88418 4.63454 9.40925 4.00182 11 4.00002ZM17.3142 14.9C18.4072 13.5006 19.0006 11.7757 19 10H17C17.0005 11.1867 16.649 12.3469 15.9898 13.3337C15.3307 14.3205 14.3937 15.0896 13.2972 15.5437C12.2008 15.9977 10.9944 16.1162 9.83055 15.8843C8.66674 15.6524 7.5979 15.0804 6.7593 14.2407L6.5878 14.0692L8.6569 12H3V17.6568L5.1716 15.4852L5.3431 15.6567C6.71957 17.0355 8.55267 17.8633 10.4971 17.9844C12.4416 18.1055 14.3632 17.5114 15.9001 16.314L21.793 22.207L23.207 20.793L17.3142 14.9Z" fill="black"/>
</svg>
