<svg width="24" height="24" viewBox="0 0 24 24" fill="none" xmlns="http://www.w3.org/2000/svg">
<path d="M19.7783 5.63625L19.0713 4.92925C17.673 3.53211 15.8919 2.5809 13.9531 2.19587C12.0143 1.81084 10.0049 2.00927 8.17888 2.76607C6.35285 3.52288 4.79218 4.80408 3.69418 6.44772C2.59618 8.09136 2.01013 10.0236 2.01013 12.0003C2.01013 13.977 2.59618 15.9092 3.69418 17.5529C4.79218 19.1965 6.35285 20.4777 8.17888 21.2345C10.0049 21.9913 12.0143 22.1898 13.9531 21.8047C15.8919 21.4197 17.673 20.4685 19.0713 19.0714L19.7783 18.3643L13.4141 12L19.7783 5.63625ZM18.3642 18.3641C17.1066 19.6169 15.506 20.469 13.7645 20.8127C12.023 21.1565 10.2187 20.9766 8.57935 20.2957C6.94002 19.6148 5.53918 18.4635 4.5537 16.987C3.56822 15.5106 3.04228 13.7753 3.04228 12.0002C3.04228 10.2251 3.56822 8.48978 4.5537 7.01335C5.53918 5.53693 6.94002 4.38559 8.57935 3.70469C10.2187 3.0238 12.023 2.84388 13.7645 3.18766C15.506 3.53144 17.1066 4.38349 18.3642 5.63625L12.707 11.2928L12 12L12.7072 12.7072L18.3642 18.3641ZM19.875 10.25C19.5783 10.25 19.2883 10.338 19.0417 10.5028C18.795 10.6677 18.6027 10.9019 18.4892 11.176C18.3757 11.4501 18.346 11.7517 18.4038 12.0427C18.4617 12.3337 18.6046 12.6009 18.8144 12.8107C19.0241 13.0205 19.2914 13.1633 19.5824 13.2212C19.8734 13.2791 20.175 13.2494 20.449 13.1359C20.7231 13.0223 20.9574 12.8301 21.1222 12.5834C21.287 12.3367 21.375 12.0467 21.375 11.75C21.375 11.3522 21.217 10.9707 20.9357 10.6894C20.6544 10.4081 20.2728 10.25 19.875 10.25ZM19.875 12.35C19.7563 12.35 19.6403 12.3149 19.5417 12.2489C19.443 12.183 19.3661 12.0893 19.3207 11.9797C19.2753 11.87 19.2634 11.7494 19.2865 11.633C19.3097 11.5166 19.3668 11.4097 19.4508 11.3258C19.5347 11.2419 19.6416 11.1847 19.758 11.1616C19.8744 11.1384 19.995 11.1503 20.1046 11.1957C20.2143 11.2411 20.308 11.318 20.3739 11.4167C20.4398 11.5154 20.475 11.6314 20.475 11.75C20.4748 11.9091 20.4116 12.0616 20.2991 12.1741C20.1866 12.2866 20.0341 12.3499 19.875 12.35Z" fill="#231F20"/>
</svg>
