<svg width="24" height="24" viewBox="0 0 24 24" fill="none" xmlns="http://www.w3.org/2000/svg">
<path d="M3 8.00004V16H8.0859L14 21.9141V2.08594L8.0859 8.00004H3ZM16.36 10.409C16.7813 10.8314 17.0179 11.4035 17.0179 12C17.0179 12.5966 16.7813 13.1687 16.36 13.591L17.42 14.6516C18.1222 13.9478 18.5165 12.9942 18.5165 12C18.5165 11.0058 18.1222 10.0522 17.42 9.34834L16.36 10.409ZM20.3085 6.52004L19.2363 7.56934C20.3938 8.75503 21.0338 10.3515 21.0157 12.0084C20.9976 13.6654 20.323 15.2475 19.1399 16.4076L20.189 17.48C21.6562 16.0414 22.4927 14.0795 22.5151 12.0247C22.5376 9.97004 21.744 7.99034 20.3085 6.52004Z" fill="black"/>
</svg>
