<svg width="24" height="24" viewBox="0 0 24 24" fill="none" xmlns="http://www.w3.org/2000/svg">
<path d="M3 8.00004V16H8.0859L14 21.9141V2.08594L8.0859 8.00004H3ZM16.5731 10.2322C17.0413 10.7014 17.3043 11.3372 17.3043 12C17.3043 12.6629 17.0413 13.2987 16.5731 13.7678L17.2802 14.4749C17.9356 13.818 18.3037 12.9279 18.3037 11.9999C18.3037 11.072 17.9356 10.1819 17.2802 9.52494L16.5731 10.2322ZM20.1086 6.69674L19.4016 7.40384C20.6187 8.62381 21.3023 10.2767 21.3023 12C21.3023 13.7233 20.6187 15.3763 19.4016 16.5962L20.1086 17.3033C21.5131 15.8958 22.3019 13.9885 22.3019 12C22.3019 10.0116 21.5131 8.10432 20.1086 6.69674Z" fill="black"/>
</svg>
