<svg width="24" height="24" viewBox="0 0 24 24" fill="none" xmlns="http://www.w3.org/2000/svg">
<path d="M3 8.00004V16H8.0859L14 21.9141V2.08594L8.0859 8.00004H3ZM16.7864 10.0554C17.3014 10.5715 17.5907 11.2709 17.5907 12C17.5907 12.7291 17.3014 13.4284 16.7864 13.9445L17.14 14.2981C17.7486 13.6882 18.0903 12.8617 18.0903 12C18.0903 11.1384 17.7486 10.3119 17.14 9.70194L16.7864 10.0554ZM19.9684 6.87354L19.6149 7.22704C20.8789 8.49391 21.5887 10.2104 21.5887 12C21.5887 13.7896 20.8789 15.5061 19.6149 16.7729L19.9684 17.1265C21.3261 15.7659 22.0886 13.9222 22.0886 12C22.0886 10.0779 21.3261 8.2342 19.9684 6.87354Z" fill="black"/>
</svg>
