<svg width="24" height="24" viewBox="0 0 24 24" fill="none" xmlns="http://www.w3.org/2000/svg">
<path d="M19.7783 5.63625L19.0713 4.92925C17.673 3.53211 15.8919 2.5809 13.9531 2.19587C12.0143 1.81084 10.0049 2.00927 8.17888 2.76607C6.35285 3.52288 4.79218 4.80408 3.69418 6.44772C2.59618 8.09136 2.01013 10.0236 2.01013 12.0003C2.01013 13.977 2.59618 15.9092 3.69418 17.5529C4.79218 19.1965 6.35285 20.4777 8.17888 21.2345C10.0049 21.9913 12.0143 22.1898 13.9531 21.8047C15.8919 21.4197 17.673 20.4685 19.0713 19.0714L19.7783 18.3643L13.4141 12L19.7783 5.63625ZM19.875 10.3C19.5882 10.3 19.3079 10.3851 19.0694 10.5444C18.831 10.7037 18.6451 10.9302 18.5354 11.1952C18.4256 11.4601 18.3969 11.7517 18.4529 12.0329C18.5088 12.3142 18.6469 12.5726 18.8497 12.7754C19.0525 12.9781 19.3109 13.1162 19.5921 13.1722C19.8734 13.2281 20.165 13.1994 20.4299 13.0897C20.6949 12.9799 20.9213 12.7941 21.0807 12.5556C21.24 12.3172 21.325 12.0368 21.325 11.75C21.325 11.3655 21.1722 10.9967 20.9003 10.7247C20.6284 10.4528 20.2596 10.3 19.875 10.3Z" fill="black"/>
</svg>
