<svg width="24" height="24" viewBox="0 0 24 24" fill="none" xmlns="http://www.w3.org/2000/svg">
<path d="M19.7783 5.63625L19.0713 4.92925C17.673 3.53211 15.8919 2.5809 13.9531 2.19587C12.0143 1.81084 10.0049 2.00927 8.17888 2.76607C6.35285 3.52288 4.79218 4.80408 3.69418 6.44772C2.59618 8.09136 2.01013 10.0236 2.01013 12.0003C2.01013 13.977 2.59618 15.9092 3.69418 17.5529C4.79218 19.1965 6.35285 20.4777 8.17888 21.2345C10.0049 21.9913 12.0143 22.1898 13.9531 21.8047C15.8919 21.4197 17.673 20.4685 19.0713 19.0714L19.7783 18.3643L13.4141 12L19.7783 5.63625ZM17.6468 18.3541C16.4232 19.4365 14.9132 20.1425 13.2981 20.3873C11.683 20.6322 10.0315 20.4055 8.54215 19.7345C7.05276 19.0635 5.7888 17.9767 4.90212 16.6047C4.01545 15.2327 3.54378 13.6339 3.54378 12.0003C3.54378 10.3668 4.01545 8.76797 4.90212 7.39599C5.7888 6.02402 7.05276 4.93724 8.54215 4.26623C10.0315 3.59522 11.683 3.36853 13.2981 3.61339C14.9132 3.85825 16.4232 4.56424 17.6468 5.64655L12.3536 10.9393L11.2927 12L12.3534 13.0608L17.6468 18.3541ZM19.875 10.65C19.6575 10.65 19.4448 10.7146 19.2639 10.8354C19.083 10.9563 18.942 11.1281 18.8587 11.3291C18.7755 11.5301 18.7537 11.7513 18.7962 11.9646C18.8386 12.178 18.9434 12.374 19.0972 12.5279C19.251 12.6817 19.447 12.7865 19.6604 12.8289C19.8738 12.8714 20.095 12.8496 20.296 12.7663C20.497 12.6831 20.6688 12.5421 20.7896 12.3612C20.9105 12.1803 20.975 11.9676 20.975 11.75C20.975 11.6056 20.9466 11.4626 20.8913 11.3291C20.836 11.1956 20.755 11.0744 20.6528 10.9722C20.5507 10.8701 20.4294 10.7891 20.296 10.7338C20.1625 10.6785 20.0195 10.65 19.875 10.65Z" fill="black"/>
</svg>
