<svg width="24" height="24" viewBox="0 0 24 24" fill="none" xmlns="http://www.w3.org/2000/svg">
<path d="M3 8.00004V16H8.0859L14 21.9141V2.08594L8.0859 8.00004H3ZM15.834 10.5858C16.2085 10.9612 16.4189 11.4698 16.4189 12C16.4189 12.5303 16.2085 13.0389 15.834 13.4142L17.2482 14.8284C17.9973 14.0778 18.4181 13.0606 18.4181 12C18.4181 10.9395 17.9973 9.92231 17.2482 9.17164L15.834 10.5858ZM20.0767 6.34314L18.6625 7.75734C19.7861 8.88341 20.4171 10.4092 20.4171 12C20.4171 13.5908 19.7861 15.1166 18.6625 16.2426L20.0767 17.6569C21.5747 16.1554 22.416 14.121 22.416 12C22.416 9.87905 21.5747 7.84465 20.0767 6.34314Z" fill="black"/>
</svg>
