<svg width="24" height="24" viewBox="0 0 24 24" fill="none" xmlns="http://www.w3.org/2000/svg">
<path d="M15.1073 9.69016C14.9194 9.69016 14.7357 9.74587 14.5795 9.85026C14.4233 9.95465 14.3015 10.103 14.2296 10.2766C14.1577 10.4502 14.1389 10.6412 14.1756 10.8255C14.2122 11.0098 14.3027 11.179 14.4355 11.3119C14.5684 11.4448 14.7377 11.5352 14.922 11.5719C15.1062 11.6086 15.2973 11.5897 15.4708 11.5178C15.6444 11.4459 15.7928 11.3242 15.8972 11.1679C16.0016 11.0117 16.0573 10.828 16.0573 10.6402C16.0573 10.5154 16.0327 10.3919 15.985 10.2766C15.9372 10.1613 15.8673 10.0566 15.7791 9.96841C15.6908 9.88019 15.5861 9.81021 15.4708 9.76247C15.3556 9.71473 15.2321 9.69016 15.1073 9.69016ZM9.8427 10.6402C9.8427 10.4523 9.78698 10.2686 9.6826 10.1124C9.57821 9.95614 9.42984 9.83437 9.25625 9.76247C9.08266 9.69057 8.89165 9.67175 8.70736 9.70841C8.52308 9.74507 8.35381 9.83555 8.22095 9.96841C8.08809 10.1013 7.99761 10.2705 7.96095 10.4548C7.9243 10.6391 7.94311 10.8301 8.01501 11.0037C8.08692 11.1773 8.20868 11.3257 8.36491 11.4301C8.52113 11.5344 8.70481 11.5902 8.8927 11.5902C9.14466 11.5902 9.38629 11.4901 9.56445 11.3119C9.74261 11.1337 9.8427 10.8921 9.8427 10.6402ZM22.5627 14.6241V13.2241H20.8074C20.8174 13.0561 20.833 12.8898 20.833 12.7194C20.8316 12.1667 20.778 11.6154 20.673 11.0729C21.3312 10.1121 21.776 9.02145 21.9774 7.87439C22.1789 6.72734 22.1324 5.55043 21.841 4.42286L21.7336 3.88666H21.1872C19.3841 3.84161 17.5897 4.15051 15.9055 4.79586C14.6874 4.20775 13.3523 3.90231 11.9997 3.90231C10.6471 3.90231 9.31196 4.20775 8.0939 4.79586C6.40972 4.15035 4.61528 3.84145 2.8122 3.88666H2.2661L2.1587 4.42286C1.86731 5.55043 1.82079 6.72734 2.02226 7.87439C2.22373 9.02145 2.66851 10.1121 3.3267 11.0729C3.22167 11.6154 3.1681 12.1667 3.1667 12.7194C3.1667 12.8894 3.1827 13.0561 3.1923 13.2241H1.1875V14.6241H3.3794C3.56934 15.4821 3.88716 16.3066 4.3222 17.0702L2.3809 18.1916L3.0809 19.4045L5.11 18.2327C5.92889 19.2598 6.96698 20.091 8.14839 20.6654C9.32979 21.2398 10.6246 21.543 11.9383 21.5526C13.2519 21.5623 14.551 21.2782 15.7408 20.7213C16.9305 20.1643 17.9807 19.3485 18.8146 18.3335L20.6689 19.4045L21.3689 18.1916L19.6128 17.1772C20.0808 16.3842 20.4209 15.5225 20.6206 14.6237L22.5627 14.6241ZM19.3078 11.0553C19.4334 11.601 19.4979 12.159 19.5 12.719C19.5 12.889 19.4857 13.0561 19.4744 13.2237H16.8544V14.6237H19.2457C19.0718 15.286 18.8073 15.9211 18.4597 16.5111L18.2463 16.3879L17.5463 17.6008L17.6353 17.6522C16.8906 18.5078 15.961 19.1827 14.9168 19.6257C13.8726 20.0688 12.7413 20.2684 11.6086 20.2094C10.4758 20.1504 9.37136 19.8344 8.37885 19.2853C7.38633 18.7362 6.5318 17.9685 5.88 17.0402L5.5037 16.3883L5.4753 16.4047C5.15908 15.8447 4.91673 15.2462 4.7543 14.6241H6.8959V13.2241H4.5259C4.5146 13.0565 4.5003 12.8897 4.5003 12.7194C4.50248 12.1592 4.56701 11.6011 4.6927 11.0553L4.7645 10.7369L4.5574 10.485C3.99281 9.74601 3.59453 8.8938 3.38984 7.98666C3.18514 7.07951 3.17885 6.13886 3.3714 5.22906C4.90619 5.23528 6.4247 5.5441 7.84 6.13786L8.1423 6.27786L8.4352 6.11966C9.5338 5.53958 10.7574 5.23638 11.9997 5.23638C13.242 5.23638 14.4656 5.53958 15.5642 6.11966L15.8566 6.27786L16.1594 6.13786C17.5749 5.54399 19.0936 5.23503 20.6286 5.22866C20.8211 6.13846 20.8149 7.07911 20.6102 7.98626C20.4055 8.8934 20.0072 9.74561 19.4426 10.4846L19.2355 10.7365L19.3078 11.0553ZM13.0559 15.3463C12.8659 15.1487 12.7494 14.8919 12.7259 14.6188C12.9684 14.5227 13.1765 14.3561 13.3232 14.1405C13.4699 13.9249 13.5486 13.6703 13.549 13.4095V13.2241H10.4508V13.4095C10.4512 13.6703 10.5299 13.9249 10.6767 14.1405C10.8235 14.3561 11.0315 14.5227 11.274 14.6188C11.2507 14.8915 11.1345 15.1479 10.9448 15.3453C10.7137 15.5662 10.4064 15.6895 10.0866 15.6895C9.76695 15.6895 9.45957 15.5662 9.2285 15.3453L8.2393 16.3353C8.48188 16.5781 8.76994 16.7706 9.08701 16.902C9.40409 17.0334 9.74395 17.1009 10.0872 17.1009C10.4304 17.1008 10.7702 17.033 11.0872 16.9015C11.4042 16.7699 11.6922 16.5772 11.9346 16.3343C11.9592 16.3097 11.9764 16.2802 11.9999 16.2548C12.0236 16.2805 12.0411 16.3104 12.0659 16.3353C12.3084 16.578 12.5964 16.7705 12.9134 16.9019C13.2304 17.0332 13.5702 17.1009 13.9133 17.1009C14.2564 17.1009 14.5962 17.0332 14.9132 16.9019C15.2302 16.7705 15.5182 16.578 15.7607 16.3353L14.7715 15.3453C14.5404 15.5658 14.2332 15.6889 13.9137 15.689C13.5942 15.6892 13.287 15.5663 13.0557 15.3459L13.0559 15.3463Z" fill="black"/>
</svg>
