<svg width="24" height="24" viewBox="0 0 24 24" fill="none" xmlns="http://www.w3.org/2000/svg">
<g clip-path="url(#clip0)">
<path d="M20.2711 6.69318C20.551 6.51283 20.7811 6.26519 20.9406 5.9729C21.1 5.68062 21.1836 5.35302 21.1838 5.02008V4.33008H20.41L20.08 5.05748C20.0239 5.17751 19.9347 5.27904 19.8229 5.35018C19.7111 5.42131 19.5814 5.45909 19.4489 5.45908H16.09C15.9575 5.45909 15.8277 5.42131 15.716 5.35018C15.6042 5.27904 15.515 5.17751 15.4589 5.05748L15.1289 4.33008H14.3547V5.02008C14.3547 5.54945 14.565 6.05714 14.9393 6.43146C15.3136 6.80579 15.8213 7.01608 16.3507 7.01608H16.7807L16.2887 8.02358H4.88539C4.45368 8.02358 4.02705 8.11675 3.63465 8.29673C3.24224 8.47672 2.89331 8.73928 2.61167 9.06647C2.33004 9.39367 2.12234 9.77779 2.00276 10.1926C1.88318 10.6074 1.85454 11.0432 1.91879 11.4701L3.50349 22.0001H5.09489L4.87149 18.4459L6.36479 16.1319L14.3387 17.0135L15.0858 22.0001H16.6522V16.8037L19.6667 10.6667H21.4358C21.6227 10.6667 21.8058 10.6143 21.9645 10.5155C22.1231 10.4166 22.2509 10.2753 22.3333 10.1076L22.8633 9.02938L20.2711 6.69318Z" fill="black"/>
</g>
<defs>
<clipPath id="clip0">
<rect width="24" height="24" fill="white"/>
</clipPath>
</defs>
</svg>
