<svg width="24" height="24" viewBox="0 0 24 24" fill="none" xmlns="http://www.w3.org/2000/svg">
<path d="M15.3537 5.00062C14.2697 4.98245 13.199 5.24008 12.242 5.74932C12.3004 5.10786 12.4473 4.47757 12.6784 3.87632C12.9719 3.166 13.3717 2.50444 13.8641 1.91432L13.3068 1.49072C12.8185 2.16289 12.4352 2.90533 12.17 3.69262C11.9569 4.36192 11.8391 5.05788 11.82 5.76002C10.858 5.24356 9.77969 4.98212 8.68797 5.00062C7.78199 4.99339 6.88416 5.17206 6.04998 5.52559C5.21581 5.87912 4.46301 6.4 3.83813 7.05602C3.21325 7.71205 2.72957 8.48927 2.417 9.33965C2.10443 10.19 1.96961 11.0955 2.02087 12C2.02087 16.9938 5.52227 23.39 10.9003 21.7482C11.26 21.6134 11.6375 21.5317 12.0209 21.5059C12.4042 21.5318 12.7816 21.6134 13.1414 21.7482C18.5193 23.3904 22.0214 16.9938 22.0214 12C22.0726 11.0954 21.9378 10.1899 21.6251 9.33952C21.3125 8.48911 20.8288 7.71186 20.2039 7.05583C19.5789 6.39981 18.8261 5.87894 17.9918 5.52544C17.1576 5.17194 16.2597 4.99332 15.3537 5.00062Z" fill="black"/>
</svg>
