<svg width="24" height="24" viewBox="0 0 24 24" fill="none" xmlns="http://www.w3.org/2000/svg">
<g clip-path="url(#clip0)">
<path d="M21.6875 2.6564V1.3999H21.356L21.1932 2.8276C21.1647 3.0781 21.0449 3.30933 20.8568 3.47718C20.6687 3.64502 20.4253 3.73772 20.1732 3.7376H18.5874V2.1252H18.2554L18.0754 3.7371H14.2338L14.053 2.1252H13.7211V3.7371H12.0911C11.8391 3.7371 11.5958 3.64434 11.4078 3.47651C11.2198 3.30868 11.1001 3.07752 11.0716 2.8271L10.9092 1.3999H10.5778V2.6564C10.5778 2.86425 10.6187 3.07005 10.6983 3.26208C10.7778 3.4541 10.8944 3.62857 11.0414 3.77554C11.3382 4.07235 11.7407 4.2391 12.1605 4.2391H15.1638L12.8411 9.5832H6.82499C6.39171 9.5832 5.96356 9.67704 5.57001 9.85829C5.17646 10.0395 4.82684 10.3039 4.54519 10.6331C4.26355 10.9624 4.05657 11.3488 3.9385 11.7657C3.82042 12.1825 3.79405 12.6201 3.86119 13.0481L5.26529 21.9999H7.02909V16.5757L8.61519 14.9938L14.2852 16.0815L15.1716 21.9999H16.9354V15.4388C18.6796 13.8124 18.9492 11.9999 17.1484 8.1968H20.2526C20.4569 8.19679 20.6571 8.13952 20.8306 8.03149C21.004 7.92346 21.1437 7.76899 21.2338 7.5856L21.6875 6.6618L18.0984 4.2391H20.1048C20.3126 4.2391 20.5184 4.19816 20.7105 4.11863C20.9025 4.03909 21.077 3.92251 21.2239 3.77554C21.3709 3.62857 21.4875 3.4541 21.567 3.26208C21.6466 3.07005 21.6875 2.86425 21.6875 2.6564ZM21.0466 6.8325L20.785 7.3651C20.7358 7.46434 20.6599 7.54793 20.5659 7.60651C20.4718 7.66509 20.3634 7.69635 20.2526 7.6968H16.3585L16.6965 8.4108C18.5099 12.2408 18.0596 13.7069 16.5944 15.0731L16.4354 15.2214V21.4999H15.6022L14.727 15.6572L8.44999 14.4529L6.52999 16.3682V21.4999H5.69299L4.35519 12.9706C4.29924 12.6139 4.32122 12.2493 4.41963 11.9019C4.51804 11.5544 4.69054 11.2325 4.92526 10.9581C5.15998 10.6837 5.45135 10.4634 5.77933 10.3124C6.10731 10.1614 6.46411 10.0832 6.82519 10.0832H13.1692L15.7092 4.2391H17.2049L21.0466 6.8325Z" fill="black"/>
</g>
<defs>
<clipPath id="clip0">
<rect width="24" height="24" fill="white"/>
</clipPath>
</defs>
</svg>
