<svg width="24" height="24" viewBox="0 0 24 24" fill="none" xmlns="http://www.w3.org/2000/svg">
<path d="M15.3537 5.00064C14.4556 4.98681 13.5643 5.15845 12.7356 5.50484C12.8308 5.05564 12.9753 4.6183 13.1664 4.20074C13.4939 3.53484 13.9268 2.9262 14.4484 2.39834L12.6176 1.00684C12.1009 1.81509 11.7182 2.70151 11.4843 3.63184C11.3422 4.24116 11.2729 4.86519 11.278 5.49084C10.4568 5.15348 9.57559 4.98677 8.68795 5.00084C7.782 4.9936 6.88419 5.17227 6.05002 5.52579C5.21586 5.87931 4.46307 6.40017 3.83819 7.05617C3.21332 7.71217 2.72964 8.48937 2.41705 9.33972C2.10447 10.1901 1.96962 11.0955 2.02085 12C2.02085 16.9938 5.52225 23.39 10.9003 21.7482C11.26 21.6134 11.6375 21.5318 12.0209 21.5059C12.4042 21.5318 12.7816 21.6134 13.1414 21.7482C18.5193 23.3904 22.0214 16.9938 22.0214 12C22.0726 11.0954 21.9377 10.1899 21.6251 9.33953C21.3125 8.48912 20.8288 7.71188 20.2039 7.05585C19.5789 6.39982 18.826 5.87895 17.9918 5.52545C17.1576 5.17195 16.2597 4.99333 15.3537 5.00064Z" fill="black"/>
</svg>
