<svg width="24" height="24" viewBox="0 0 24 24" fill="none" xmlns="http://www.w3.org/2000/svg">
<g clip-path="url(#clip0)">
<path d="M5.15341 10C4.62291 7.63 6.26881 4.8554 6.26881 4.8554L5.45881 4.2292C3.71361 5.9282 2.65661 7.9062 3.20501 12.1562L4.30901 21.1222C4.33883 21.3644 4.45614 21.5873 4.63887 21.7489C4.8216 21.9106 5.05713 21.9999 5.30111 22H6.29001V15.5484L14.961 16.4296L15.671 21.1488C15.7066 21.3856 15.8261 21.6017 16.0075 21.7579C16.189 21.9141 16.4206 22 16.66 22H17.675V15.2472L17.9377 12.0472L12.7577 9.9691L5.15341 10ZM18.9688 5.1223L18.25 3.4375H16.9488C16.5612 3.43749 16.1819 3.55012 15.8571 3.76171C15.5323 3.9733 15.276 4.27472 15.1193 4.6293L13.3666 8.5967L18.0659 10.4818L18.2059 8.7729L20.72 8.3054C20.931 8.26617 21.1249 8.16352 21.276 8.01116C21.427 7.8588 21.528 7.66397 21.5654 7.4527L21.8642 5.7665L18.9688 5.1223Z" fill="black"/>
</g>
<defs>
<clipPath id="clip0">
<rect width="24" height="24" fill="white"/>
</clipPath>
</defs>
</svg>
