<svg width="24" height="24" viewBox="0 0 24 24" fill="none" xmlns="http://www.w3.org/2000/svg">
<path d="M15.3537 5.00064C14.4556 4.98681 13.5643 5.15845 12.7356 5.50484C12.8308 5.05564 12.9753 4.6183 13.1664 4.20074C13.4939 3.53482 13.9268 2.92616 14.4484 2.39824L12.6176 1.00684C12.1009 1.81509 11.7182 2.70151 11.4843 3.63184C11.3422 4.24116 11.2729 4.86519 11.278 5.49084C10.4568 5.15348 9.57559 4.98677 8.68795 5.00084C7.782 4.9936 6.88419 5.17227 6.05002 5.52579C5.21586 5.87931 4.46307 6.40017 3.83819 7.05617C3.21332 7.71217 2.72964 8.48937 2.41705 9.33972C2.10447 10.1901 1.96962 11.0955 2.02085 12C2.02085 16.4485 4.80015 22.0109 9.20865 22.0109C9.78235 22.008 10.3524 21.9194 10.9 21.7482C11.2597 21.6134 11.6372 21.5318 12.0206 21.5059C12.4039 21.5318 12.7813 21.6134 13.1411 21.7482C13.6887 21.9193 14.2589 22.0079 14.8327 22.0109C19.2417 22.0109 22.0206 16.4488 22.0206 12C22.0718 11.0955 21.937 10.1901 21.6244 9.33972C21.3118 8.48937 20.8282 7.71216 20.2033 7.05614C19.5785 6.40012 18.8257 5.87924 17.9916 5.52569C17.1574 5.17214 16.2596 4.99344 15.3537 5.00064ZM14.833 20.0106C14.4571 20.0071 14.0838 19.948 13.7253 19.8351L13.6171 19.8017C13.1035 19.6213 12.565 19.5214 12.0209 19.5056C11.4767 19.5214 10.9382 19.6212 10.4246 19.8017L10.3162 19.8351C9.95768 19.948 9.58446 20.0071 9.20865 20.0106C6.28695 20.0106 4.02085 15.7043 4.02085 11.9997C4.02085 9.05614 5.94005 7.00034 8.68795 7.00034C9.50419 6.97691 10.3109 7.1808 11.018 7.58924L12.0204 8.16924L13.0228 7.58924C13.7298 7.18078 14.5365 6.97689 15.3528 7.00034C18.1008 7.00034 20.02 9.05614 20.02 11.9997C20.0209 15.7046 17.7547 20.0109 14.833 20.0109V20.0106Z" fill="black"/>
</svg>
