<svg width="24" height="24" viewBox="0 0 24 24" fill="none" xmlns="http://www.w3.org/2000/svg">
<path d="M12.4661 11.5118C13.0296 12.0703 13.7913 12.3829 14.5847 12.3811C15.3781 12.3794 16.1385 12.0634 16.6994 11.5024C17.2604 10.9414 17.5763 10.181 17.5781 9.38764C17.5798 8.59427 17.2672 7.83252 16.7086 7.26908L16.2427 6.80308L16.7086 6.33718C16.9892 6.05906 17.2121 5.72825 17.3645 5.36376C17.5169 4.99926 17.5958 4.60825 17.5966 4.21318C17.5975 3.81811 17.5204 3.42676 17.3696 3.06159C17.2188 2.69643 16.9974 2.36464 16.718 2.08527C16.4387 1.80591 16.1069 1.58447 15.7417 1.43368C15.3766 1.28288 14.9852 1.20569 14.5902 1.20655C14.1951 1.20741 13.8041 1.28629 13.4396 1.43866C13.0751 1.59104 12.7442 1.81391 12.4661 2.09448L12 2.56048L11.5341 2.09448C10.9715 1.53187 10.2084 1.21579 9.41276 1.21579C8.6171 1.21579 7.85403 1.53187 7.29141 2.09448C6.72879 2.6571 6.41272 3.42017 6.41272 4.21583C6.41272 5.01149 6.72879 5.77457 7.29141 6.33718L7.75731 6.80308L7.29141 7.26908C6.72879 7.8317 6.41272 8.59477 6.41272 9.39043C6.41272 10.1861 6.72879 10.9492 7.29141 11.5118C7.85403 12.0744 8.6171 12.3905 9.41276 12.3905C10.2084 12.3905 10.9715 12.0744 11.5341 11.5118L11.75 11.2958V16H6.50001V17.7344L7.61111 23H16.3889L17.5 17.7344V16H12.25V11.2957L12.4661 11.5118ZM17 16.5V17.6822L15.9834 22.5H8.01661L7.00001 17.6822V16.5H17ZM12 10.3387L11.6464 10.6923L11.1805 11.1582C10.9484 11.3903 10.6728 11.5745 10.3694 11.7001C10.0661 11.8257 9.74103 11.8904 9.41273 11.8904C9.08442 11.8904 8.75933 11.8257 8.45602 11.7001C8.1527 11.5744 7.87711 11.3903 7.64496 11.1581C7.41282 10.926 7.22867 10.6504 7.10304 10.3471C6.97741 10.0437 6.91275 9.71865 6.91275 9.39035C6.91275 9.06204 6.97742 8.73695 7.10307 8.43364C7.22871 8.13032 7.41286 7.85473 7.64501 7.62258L8.11081 7.15658L8.46441 6.80308L8.11081 6.44998L7.64491 5.98408C7.176 5.5153 6.91251 4.87944 6.91241 4.21639C6.91232 3.55333 7.17563 2.9174 7.64441 2.44848C8.11319 1.97957 8.74905 1.71608 9.41211 1.71599C10.0752 1.71589 10.7111 1.9792 11.18 2.44798L11.646 2.91398L12 3.26758L12.82 2.44758C13.2889 1.97875 13.9248 1.71536 14.5878 1.71537C15.2508 1.71538 15.8867 1.97878 16.3556 2.44763C16.8244 2.91648 17.0878 3.55237 17.0878 4.21542C17.0878 4.87846 16.8244 5.51435 16.3555 5.98318L15.8896 6.44908L15.536 6.80268L15.8896 7.15618L16.3555 7.62218C16.8244 8.09102 17.0879 8.72692 17.0879 9.39001C17.088 10.0531 16.8246 10.689 16.3558 11.1579C15.8869 11.6268 15.251 11.8903 14.5879 11.8903C13.9249 11.8904 13.2889 11.627 12.82 11.1582L12.3539 10.6922L12 10.3387ZM13.9506 6.80318C13.9506 6.41739 13.8362 6.04025 13.6219 5.71946C13.4076 5.39867 13.103 5.14864 12.7465 5.00099C12.3901 4.85334 11.9979 4.8147 11.6195 4.88995C11.2411 4.9652 10.8936 5.15097 10.6208 5.42377C10.348 5.69656 10.1622 6.04412 10.0869 6.4225C10.0116 6.80089 10.0502 7.19309 10.1979 7.54952C10.3455 7.90595 10.5955 8.2106 10.9163 8.42494C11.2371 8.63928 11.6142 8.75368 12 8.75368C12.5173 8.75368 13.0135 8.54819 13.3793 8.1824C13.7451 7.81661 13.9506 7.3205 13.9506 6.80318ZM12 8.25368C11.7131 8.25368 11.4326 8.16859 11.194 8.00917C10.9555 7.84975 10.7695 7.62316 10.6598 7.35806C10.55 7.09297 10.5213 6.80127 10.5773 6.51986C10.6333 6.23846 10.7716 5.97999 10.9745 5.77714C11.1774 5.5743 11.436 5.43619 11.7174 5.38028C11.9988 5.32438 12.2905 5.35319 12.5555 5.46308C12.8206 5.57296 13.0471 5.75898 13.2064 5.99761C13.3658 6.23624 13.4507 6.51676 13.4506 6.80368C13.45 7.18817 13.297 7.55674 13.0251 7.82856C12.7531 8.10038 12.3845 8.25326 12 8.25368Z" fill="black"/>
</svg>
