<svg width="24" height="24" viewBox="0 0 24 24" fill="none" xmlns="http://www.w3.org/2000/svg">
<path d="M14.8282 8.22381C14.9954 8.26291 15.1665 8.28267 15.3382 8.28271C15.9922 8.23844 16.6126 7.9771 17.1011 7.54016C17.5897 7.10321 17.9183 6.51567 18.035 5.87071C18.255 5.15933 18.1857 4.38993 17.8422 3.72929C17.4987 3.06864 16.9087 2.56999 16.2 2.34141C16.0328 2.30243 15.8617 2.28274 15.69 2.28271C15.0361 2.32698 14.4157 2.58829 13.9272 3.02519C13.4386 3.4621 13.1099 4.04959 12.9932 4.69451C12.7733 5.4059 12.8426 6.1753 13.1861 6.83594C13.5295 7.49659 14.1196 7.99524 14.8282 8.22381ZM13.48 4.80812C13.5722 4.27347 13.8391 3.78452 14.2391 3.41797C14.6391 3.05141 15.1494 2.82798 15.69 2.78271C15.8236 2.78272 15.9567 2.79805 16.0868 2.82841C16.6653 3.02813 17.1424 3.44672 17.4156 3.99431C17.6889 4.54189 17.7365 5.1748 17.5483 5.75711C17.4562 6.2918 17.1893 6.78079 16.7893 7.14738C16.3893 7.51398 15.879 7.73744 15.3383 7.78271C15.2047 7.78269 15.0716 7.76732 14.9415 7.73691C14.363 7.53718 13.8859 7.11857 13.6127 6.57097C13.3394 6.02336 13.2918 5.39044 13.48 4.80812ZM8.66152 8.28271C8.83321 8.28267 9.00434 8.26291 9.17152 8.22381C9.88016 7.99522 10.4702 7.49656 10.8136 6.83592C11.1571 6.17527 11.2264 5.40588 11.0064 4.69451C10.8897 4.04965 10.5611 3.46221 10.0726 3.02531C9.58417 2.58841 8.96385 2.32707 8.31002 2.28271C8.13834 2.28274 7.96722 2.30243 7.80002 2.34141C7.09131 2.56992 6.50122 3.06855 6.15766 3.7292C5.81411 4.38986 5.74479 5.15929 5.96472 5.87071C6.08141 6.51567 6.41008 7.10321 6.89862 7.54016C7.38716 7.9771 8.00759 8.23844 8.66152 8.28271ZM7.91312 2.82841C8.04324 2.79805 8.17641 2.78271 8.31002 2.78271C8.85066 2.82798 9.36097 3.05141 9.76094 3.41797C10.1609 3.78452 10.4279 4.27347 10.52 4.80812C10.7082 5.39048 10.6606 6.02344 10.3872 6.57104C10.1139 7.11865 9.63676 7.53724 9.05822 7.73691C8.92814 7.76732 8.795 7.78269 8.66142 7.78271C8.12076 7.73744 7.61042 7.51398 7.21045 7.14738C6.81048 6.78079 6.54351 6.2918 6.45142 5.75711C6.26321 5.17477 6.31087 4.54184 6.58417 3.99426C6.85747 3.44667 7.33461 3.02809 7.91312 2.82841ZM21.5131 8.08481C21.2404 7.97472 20.9491 7.91835 20.655 7.91881C20.054 7.95093 19.4757 8.15953 18.9926 8.51853C18.5095 8.87752 18.1429 9.37099 17.9387 9.93721C17.6076 10.6142 17.5567 11.3944 17.7971 12.1087C18.0374 12.823 18.5497 13.4137 19.2227 13.7528C19.4954 13.863 19.7868 13.9193 20.0808 13.9188C20.6818 13.8867 21.26 13.6781 21.7432 13.3191C22.2263 12.9601 22.5928 12.4667 22.797 11.9005C23.1281 11.2235 23.179 10.4433 22.9387 9.72899C22.6984 9.0147 22.1861 8.42395 21.5131 8.08481ZM22.3331 11.7131C22.1661 12.1869 21.8635 12.6011 21.463 12.9043C21.0626 13.2076 20.5818 13.3865 20.0805 13.4188C19.8506 13.4192 19.6228 13.375 19.4097 13.2888C18.8609 12.9982 18.4479 12.504 18.2595 11.9123C18.0711 11.3205 18.1223 10.6785 18.402 10.1241C18.5692 9.65038 18.8718 9.2362 19.2724 8.93303C19.6729 8.62985 20.1537 8.45104 20.655 8.41882C20.8849 8.41847 21.1127 8.46261 21.3258 8.54882C21.8745 8.83944 22.2873 9.3336 22.4757 9.92522C22.6641 10.5168 22.613 11.1587 22.3334 11.7131H22.3331ZM6.06132 9.93721C5.85717 9.37098 5.49061 8.8775 5.00747 8.51849C4.52434 8.15949 3.94608 7.9509 3.34502 7.91881C3.05097 7.9184 2.7596 7.97477 2.48692 8.08481C1.8139 8.42395 1.30168 9.0147 1.06134 9.72899C0.820997 10.4433 0.871903 11.2235 1.20302 11.9005C1.40721 12.4667 1.77378 12.9601 2.25688 13.3191C2.73999 13.6781 3.3182 13.8867 3.91922 13.9188C4.21328 13.9193 4.50467 13.863 4.77732 13.7528C5.45035 13.4137 5.96259 12.823 6.20295 12.1087C6.44331 11.3944 6.39243 10.6142 6.06132 9.93721ZM4.59002 13.2892C4.3769 13.3754 4.14911 13.4196 3.91922 13.4192C3.41793 13.3869 2.93718 13.208 2.5367 12.9047C2.13623 12.6015 1.83367 12.1873 1.66662 11.7135C1.38677 11.1591 1.33554 10.517 1.52394 9.92516C1.71234 9.33335 2.12534 8.83904 2.67422 8.54841C2.88745 8.46223 3.11533 8.41809 3.34532 8.41841C3.84659 8.45076 4.3273 8.62967 4.72774 8.93292C5.12819 9.23617 5.43071 9.65038 5.59772 10.1241C5.87759 10.6786 5.92882 11.3207 5.7404 11.9125C5.55198 12.5043 5.13894 12.9986 4.59002 13.2892ZM16.8852 13.834C16.3937 12.9721 15.6829 12.2555 14.825 11.7571C13.967 11.2586 12.9925 10.9961 12.0002 10.9961C11.008 10.9961 10.0334 11.2586 9.17546 11.7571C8.3175 12.2555 7.6067 12.9721 7.11522 13.834L5.63272 16.434C5.22675 17.1258 5.0638 17.9334 5.1698 18.7285C5.2758 19.5235 5.64466 20.2603 6.21769 20.8215C6.79071 21.3828 7.53497 21.7362 8.33206 21.8257C9.12914 21.9152 9.93324 21.7355 10.6164 21.3152C11.0347 21.065 11.513 20.9329 12.0004 20.9329C12.4878 20.9329 12.9661 21.065 13.3844 21.3152C14.0676 21.7355 14.8717 21.9152 15.6688 21.8257C16.4659 21.7362 17.2101 21.3828 17.7832 20.8215C18.3562 20.2603 18.725 19.5235 18.831 18.7285C18.937 17.9334 18.7741 17.1258 18.3681 16.434L16.8852 13.834ZM17.9479 19.7471C17.6762 20.2265 17.2838 20.6265 16.8098 20.9074C16.3358 21.1883 15.7965 21.3404 15.2455 21.3485C14.6783 21.3443 14.1232 21.1845 13.6406 20.8864C13.1447 20.5899 12.5778 20.4333 12 20.4333C11.4223 20.4333 10.8553 20.5899 10.3594 20.8864C9.87685 21.1845 9.3217 21.3443 8.75452 21.3485C8.20356 21.3403 7.66431 21.1883 7.19028 20.9073C6.71625 20.6264 6.32392 20.2264 6.05222 19.747C5.77929 19.2819 5.63662 18.7519 5.63917 18.2126C5.64172 17.6733 5.7894 17.1446 6.06672 16.6821L7.54922 14.0821C7.99696 13.2967 8.64456 12.6437 9.42627 12.1896C10.208 11.7354 11.0959 11.4961 12 11.4961C12.9041 11.4961 13.7921 11.7354 14.5738 12.1896C15.3555 12.6437 16.0031 13.2967 16.4508 14.0821L17.9333 16.6821C18.2106 17.1447 18.3583 17.6733 18.3609 18.2126C18.3635 18.7519 18.2208 19.282 17.9479 19.7471Z" fill="black"/>
</svg>
