<svg width="24" height="24" viewBox="0 0 24 24" fill="none" xmlns="http://www.w3.org/2000/svg">
<path d="M12.4661 11.5118C13.0296 12.0703 13.7913 12.3829 14.5847 12.3812C15.3781 12.3794 16.1385 12.0635 16.6994 11.5024C17.2604 10.9414 17.5763 10.181 17.5781 9.38767C17.5798 8.5943 17.2672 7.83255 16.7086 7.26911L16.2427 6.80311L16.7086 6.33721C17.2672 5.77377 17.5798 5.01203 17.5781 4.21865C17.5763 3.42528 17.2604 2.66489 16.6994 2.10388C16.1385 1.54287 15.3781 1.22692 14.5847 1.22516C13.7913 1.2234 13.0296 1.53599 12.4661 2.09451L12 2.56051L11.5341 2.09451C10.9715 1.5319 10.2084 1.21582 9.41276 1.21582C8.6171 1.21582 7.85403 1.5319 7.29141 2.09451C6.72879 2.65713 6.41272 3.4202 6.41272 4.21586C6.41272 5.01152 6.72879 5.7746 7.29141 6.33721L7.75731 6.80311L7.29141 7.26911C6.72879 7.83173 6.41272 8.5948 6.41272 9.39046C6.41272 10.1861 6.72879 10.9492 7.29141 11.5118C7.85403 12.0744 8.6171 12.3905 9.41276 12.3905C10.2084 12.3905 10.9715 12.0744 11.5341 11.5118L11.75 11.2958V16H6.50001V17.7344L7.61111 23H16.3889L17.5 17.7344V16H12.25V11.2957L12.4661 11.5118ZM10.05 6.80321C10.05 6.41742 10.1644 6.04029 10.3788 5.71952C10.5931 5.39875 10.8978 5.14875 11.2542 5.00114C11.6106 4.85352 12.0028 4.81493 12.3812 4.89023C12.7596 4.96553 13.1071 5.15135 13.3799 5.42418C13.6527 5.69701 13.8384 6.0446 13.9136 6.423C13.9888 6.80139 13.9501 7.19358 13.8024 7.54998C13.6547 7.90638 13.4046 8.21097 13.0838 8.42524C12.763 8.6395 12.3858 8.75381 12 8.75371C11.4828 8.75358 10.9868 8.54802 10.6211 8.18225C10.2554 7.81647 10.05 7.32043 10.05 6.80321Z" fill="black"/>
</svg>
