<svg width="24" height="24" viewBox="0 0 24 24" fill="none" xmlns="http://www.w3.org/2000/svg">
<path d="M17.21 13.1786C17.2932 12.0918 17.778 11.0748 18.57 10.3259C19.3621 9.57707 20.4045 9.14991 21.4943 9.12769C21.0176 7.89294 20.1727 6.83467 19.0742 6.09636C17.9757 5.35805 16.6767 4.97544 15.3533 5.00039C14.3778 4.98661 13.4118 5.1941 12.5279 5.60729C12.6092 5.09899 12.7498 4.60197 12.9467 4.12639C13.2616 3.42565 13.688 2.78061 14.2093 2.21639L12.8563 1.18799C12.3386 1.95949 11.9493 2.80977 11.7036 3.70579C11.5467 4.31866 11.4651 4.94837 11.4605 5.58099C10.5905 5.18517 9.64371 4.98689 8.68802 5.00039C7.36469 4.97543 6.0657 5.35804 4.96719 6.09635C3.86868 6.83466 3.0238 7.89294 2.54712 9.12769C3.61563 9.14804 4.63984 9.55834 5.42686 10.2813C6.21389 11.0043 6.70943 11.9901 6.82016 13.0531C6.93089 14.116 6.64917 15.1828 6.02806 16.0525C5.40694 16.9222 4.4893 17.5347 3.44792 17.7749C4.95192 20.6898 7.56382 22.7668 10.9 21.748C11.2598 21.6131 11.6373 21.5315 12.0206 21.5057C12.4039 21.5315 12.7814 21.6131 13.1411 21.748C16.4775 22.7668 19.0895 20.6896 20.5935 17.7749C19.5744 17.5376 18.6734 16.9442 18.0531 16.1015C17.4327 15.2588 17.1338 14.2222 17.21 13.1786Z" fill="black"/>
</svg>
