<svg width="24" height="24" viewBox="0 0 24 24" fill="none" xmlns="http://www.w3.org/2000/svg">
<g clip-path="url(#clip0)">
<path d="M5.32794 10C4.79744 7.63 6.37504 4.9375 6.37504 4.9375L5.45844 4.2292C3.71324 5.9282 2.65624 7.9062 3.20464 12.1562L4.30864 21.1222C4.33847 21.3644 4.45584 21.5874 4.63865 21.7491C4.82146 21.9107 5.05709 22 5.30114 22H6.48114V15.5484L14.7718 16.4296L15.4818 21.1488C15.5175 21.3856 15.6369 21.6018 15.8185 21.758C16 21.9142 16.2316 22.0001 16.471 22H17.6747V15.2472L17.9247 12.1957L12.3766 9.9705L5.32794 10ZM18.9688 5.1223L18.25 3.4375H16.9488C16.5612 3.43749 16.1819 3.55012 15.8571 3.76171C15.5323 3.9733 15.276 4.27472 15.1193 4.6293L13.51 8.2713L18.096 10.1105L18.206 8.7729L20.72 8.3054C20.931 8.26617 21.1249 8.16352 21.276 8.01116C21.4271 7.8588 21.528 7.66397 21.5654 7.4527L21.8642 5.7665L18.9688 5.1223Z" fill="black"/>
</g>
<defs>
<clipPath id="clip0">
<rect width="24" height="24" fill="white"/>
</clipPath>
</defs>
</svg>
