<svg width="24" height="24" viewBox="0 0 24 24" fill="none" xmlns="http://www.w3.org/2000/svg">
<path d="M14.77 8.47403C14.9515 8.51641 15.1373 8.53781 15.3238 8.53783C16.0333 8.48982 16.7065 8.2063 17.2366 7.73224C17.7667 7.25818 18.1233 6.62071 18.25 5.92093C18.4887 5.14911 18.4136 4.31427 18.0409 3.59745C17.6683 2.88064 17.028 2.33963 16.2591 2.09173C16.0776 2.04927 15.8918 2.02783 15.7054 2.02783C14.9959 2.07591 14.3228 2.35946 13.7928 2.83351C13.2627 3.30757 12.9061 3.945 12.7795 4.64473C12.5407 5.41652 12.6157 6.25134 12.9883 6.96817C13.3609 7.685 14.0011 8.22606 14.77 8.47403ZM14.24 4.98553C14.295 4.61734 14.4672 4.27669 14.7311 4.01411C14.995 3.75153 15.3365 3.58101 15.705 3.52783C15.7767 3.52788 15.8482 3.53613 15.918 3.55243C16.0759 3.59781 16.2223 3.67632 16.3475 3.78273C16.4727 3.88913 16.5738 4.021 16.644 4.16953C16.8561 4.60827 16.9073 5.10756 16.7888 5.58023C16.7338 5.94842 16.5615 6.28907 16.2976 6.55164C16.0337 6.8142 15.6922 6.9847 15.3237 7.03783C15.252 7.0378 15.1805 7.02955 15.1107 7.01323C14.9528 6.96789 14.8063 6.88941 14.6811 6.78302C14.5559 6.67662 14.4548 6.54477 14.3846 6.39623C14.1726 5.95745 14.1214 5.45819 14.24 4.98553ZM8.67628 8.53783C8.86268 8.53781 9.04846 8.5164 9.22998 8.47403C9.99893 8.22612 10.6392 7.68508 11.0118 6.96825C11.3845 6.25141 11.4596 5.41656 11.2208 4.64473C11.0941 3.94501 10.7376 3.3076 10.2075 2.83354C9.67753 2.35949 9.00444 2.07593 8.29498 2.02783C8.10858 2.02783 7.92279 2.04927 7.74128 2.09173C6.97227 2.33954 6.33194 2.88052 5.95917 3.59735C5.5864 4.31417 5.51123 5.14905 5.74998 5.92093C5.87664 6.62073 6.2333 7.25821 6.76341 7.73227C7.29353 8.20633 7.96674 8.48984 8.67628 8.53783ZM7.35598 4.16953C7.42621 4.021 7.52728 3.88913 7.65246 3.78273C7.77765 3.67632 7.92407 3.59781 8.08198 3.55243C8.15181 3.53613 8.22328 3.52788 8.29498 3.52783C8.66344 3.58101 9.00495 3.75153 9.26884 4.01411C9.53274 4.27669 9.70497 4.61734 9.75998 4.98553C9.87852 5.45819 9.82734 5.95745 9.61538 6.39623C9.54515 6.54477 9.44406 6.67662 9.31885 6.78302C9.19365 6.88941 9.0472 6.96789 8.88928 7.01323C8.81946 7.02955 8.74799 7.0378 8.67628 7.03783C8.30781 6.9847 7.96629 6.8142 7.70237 6.55164C7.43845 6.28907 7.26621 5.94842 7.21118 5.58023C7.09265 5.10756 7.1439 4.60827 7.35598 4.16953ZM21.596 7.88093C21.3037 7.76284 20.9913 7.70239 20.676 7.70293C20.0316 7.73738 19.4117 7.96101 18.8938 8.34587C18.3759 8.73072 17.9829 9.25973 17.764 9.86673C17.409 10.5924 17.3543 11.4288 17.6119 12.1946C17.8695 12.9603 18.4185 13.5936 19.14 13.9572C19.4323 14.0752 19.7447 14.1356 20.06 14.1351C20.7043 14.1007 21.3242 13.8771 21.8421 13.4923C22.3601 13.1074 22.753 12.5784 22.9719 11.9714C23.3269 11.2457 23.3815 10.4093 23.1238 9.64353C22.8662 8.8778 22.3171 8.24449 21.5956 7.88093H21.596ZM21.5816 11.4094C21.4717 11.7378 21.2699 12.0278 21.0002 12.2451C20.7306 12.4623 20.4042 12.5977 20.06 12.6351C19.9373 12.6355 19.8158 12.6122 19.702 12.5664C19.3575 12.3452 19.1095 12.0018 19.0079 11.6052C18.9063 11.2087 18.9587 10.7883 19.1544 10.4287C19.2643 10.1004 19.466 9.81043 19.7356 9.59318C20.0052 9.37593 20.3314 9.2405 20.6756 9.20293C20.7982 9.20252 20.9197 9.22585 21.0335 9.27163C21.1825 9.3408 21.3151 9.44094 21.4224 9.56537C21.5296 9.68979 21.6092 9.83565 21.6557 9.99323C21.7975 10.4594 21.7711 10.9607 21.5812 11.4094H21.5816ZM6.23628 9.86673C6.0174 9.25971 5.62442 8.7307 5.10648 8.34584C4.58855 7.96097 3.96864 7.73735 3.32428 7.70293C3.00901 7.70244 2.69662 7.76288 2.40428 7.88093C1.6829 8.24447 1.13388 8.87768 0.876227 9.6433C0.618576 10.4089 0.673065 11.2452 1.02788 11.9709C1.24668 12.5781 1.63964 13.1072 2.15761 13.4921C2.67558 13.8771 3.29555 14.1007 3.93998 14.1351C4.25524 14.1356 4.56763 14.0752 4.85998 13.9572C5.58147 13.5937 6.13057 12.9604 6.38821 12.1946C6.64585 11.4289 6.59126 10.5925 6.23628 9.86673ZM4.29788 12.5667C4.1841 12.6125 4.06253 12.6358 3.93988 12.6354C3.59569 12.5979 3.26948 12.4625 2.99989 12.2452C2.7303 12.028 2.52863 11.738 2.41878 11.4096C2.22874 10.9608 2.20233 10.4595 2.34418 9.99323C2.39068 9.83565 2.47021 9.68979 2.5775 9.56537C2.68479 9.44094 2.81736 9.3408 2.96638 9.27163C3.08029 9.22582 3.202 9.20249 3.32478 9.20293C3.66889 9.24058 3.99501 9.37605 4.26452 9.59329C4.53403 9.81053 4.73564 10.1005 4.84548 10.4287C5.04121 10.7883 5.09354 11.2087 4.99194 11.6052C4.89035 12.0018 4.64238 12.3452 4.29788 12.5664V12.5667ZM16.8852 13.8342C16.3937 12.9723 15.6829 12.2557 14.8249 11.7573C13.967 11.2588 12.9924 10.9963 12.0002 10.9963C11.0079 10.9963 10.0334 11.2588 9.17542 11.7573C8.31746 12.2557 7.60666 12.9723 7.11518 13.8342L5.63268 16.4342C5.22671 17.126 5.06377 17.9337 5.16977 18.7287C5.27577 19.5238 5.64462 20.2605 6.21765 20.8218C6.79067 21.383 7.53494 21.7365 8.33202 21.8259C9.1291 21.9154 9.93321 21.7357 10.6164 21.3154C11.0347 21.0652 11.513 20.9331 12.0004 20.9331C12.4878 20.9331 12.9661 21.0652 13.3844 21.3154C14.0676 21.7357 14.8717 21.9154 15.6687 21.8259C16.4658 21.7365 17.2101 21.383 17.7831 20.8218C18.3561 20.2605 18.725 19.5238 18.831 18.7287C18.937 17.9337 18.774 17.126 18.3681 16.4342L16.8852 13.8342ZM17.0832 19.245C16.8974 19.5713 16.6308 19.8443 16.3089 20.0376C15.987 20.2309 15.6208 20.3381 15.2455 20.3487C14.8592 20.3438 14.4816 20.2332 14.1538 20.0287C13.5028 19.6395 12.7585 19.4339 12 19.4339C11.2415 19.4339 10.4972 19.6395 9.84618 20.0287C9.51836 20.2332 9.14079 20.3438 8.75448 20.3487C8.37919 20.338 8.01297 20.2308 7.69113 20.0375C7.36928 19.8442 7.10263 19.5712 6.91688 19.2449C6.73128 18.9314 6.63491 18.5731 6.63817 18.2087C6.64143 17.8444 6.7442 17.4878 6.93538 17.1776L8.41788 14.5776C8.77824 13.9455 9.29944 13.42 9.92858 13.0545C10.5577 12.689 11.2724 12.4964 12 12.4964C12.7276 12.4964 13.4423 12.689 14.0714 13.0545C14.7005 13.42 15.2217 13.9455 15.5821 14.5776L17.0646 17.1776C17.2558 17.4878 17.3586 17.8444 17.3619 18.2087C17.3652 18.5731 17.2688 18.9315 17.0832 19.245Z" fill="black"/>
</svg>
