<svg width="24" height="24" viewBox="0 0 24 24" fill="none" xmlns="http://www.w3.org/2000/svg">
<path d="M15.3537 5.00062C14.2698 4.98245 13.1991 5.24008 12.242 5.74932C12.3006 5.10786 12.4474 4.47756 12.6785 3.87632C12.972 3.166 13.3718 2.50444 13.8641 1.91432L13.3068 1.49072C12.8186 2.16286 12.4352 2.90531 12.17 3.69262C11.9569 4.3619 11.839 5.05787 11.82 5.76002C10.858 5.24359 9.77976 4.98215 8.68804 5.00062C7.17979 4.97561 5.71003 5.47733 4.5319 6.41937C3.35376 7.36142 2.54102 8.68481 2.23364 10.1616C2.24504 10.1606 2.25524 10.1567 2.26664 10.1558C2.35134 10.1495 2.43574 10.1464 2.51934 10.1464C3.36599 10.1452 4.1816 10.4651 4.80172 11.0415C5.42184 11.618 5.80035 12.4081 5.86093 13.2525C5.92151 14.097 5.65966 14.933 5.12817 15.5921C4.59668 16.2511 3.83509 16.6841 2.99694 16.8038C4.17074 19.6661 6.34634 22.0109 9.20874 22.0109C9.78243 22.0079 10.3525 21.9194 10.9 21.7482C11.2598 21.6134 11.6373 21.5317 12.0206 21.5059C12.4039 21.5318 12.7814 21.6134 13.1411 21.7482C13.6888 21.9193 14.259 22.0079 14.8327 22.0109C17.6955 22.0109 19.8706 19.6663 21.0446 16.8038C20.2065 16.6841 19.4449 16.2511 18.9134 15.5921C18.3819 14.933 18.1201 14.097 18.1807 13.2525C18.2412 12.4081 18.6197 11.618 19.2399 11.0415C19.86 10.4651 20.6756 10.1452 21.5222 10.1464C21.6058 10.1464 21.69 10.1496 21.7748 10.1558C21.7862 10.1567 21.7965 10.1606 21.8078 10.1616C21.5005 8.68486 20.6878 7.36151 19.5097 6.41947C18.3316 5.47743 16.8619 4.97568 15.3537 5.00062ZM17.6829 13.214C17.6232 14.0737 17.8529 14.9287 18.3356 15.6426C18.8183 16.3566 19.5261 16.8883 20.3461 17.1532C19.0661 19.8937 17.0348 21.5109 14.833 21.5109C14.3088 21.5075 13.7879 21.4263 13.2874 21.27L13.1735 21.2349C12.8031 21.101 12.4145 21.0238 12.0209 21.0059C11.6274 21.0238 11.2388 21.101 10.8682 21.2349L10.7543 21.27C10.2539 21.4263 9.73302 21.5075 9.20874 21.5109C7.00684 21.5109 4.97584 19.8937 3.69564 17.1531C4.53886 16.8834 5.26316 16.331 5.7462 15.5891C6.22924 14.8471 6.44142 13.9613 6.3469 13.081C6.25239 12.2008 5.85696 11.3801 5.22742 10.7577C4.59788 10.1352 3.7728 9.74915 2.89154 9.66462C3.27574 8.43601 4.04883 7.36553 5.09432 6.61449C6.13981 5.86344 7.40106 5.47252 8.68804 5.50062C9.7685 5.47715 10.8347 5.75073 11.7703 6.29152L12.0209 6.43662L12.2715 6.29152C13.2072 5.75074 14.2733 5.47716 15.3537 5.50062C16.6407 5.47262 17.9019 5.86358 18.9473 6.61461C19.9927 7.36564 20.7658 8.43606 21.15 9.66462C20.2479 9.7564 19.4066 10.162 18.773 10.8107C18.1393 11.4594 17.7535 12.31 17.6829 13.214Z" fill="black"/>
</svg>
