<svg width="24" height="24" viewBox="0 0 24 24" fill="none" xmlns="http://www.w3.org/2000/svg">
<path d="M4.9013 18.6121C6.39924 15.9728 8.19152 13.5118 10.2438 11.2762C13.2832 8.02594 16.7263 5.17816 20.489 2.80233L20.5659 2.91963C16.8525 5.33479 13.4634 8.21529 10.4813 11.4909C8.32778 13.8985 6.47566 16.5595 4.9659 19.4151C4.8724 19.5899 4.7839 19.7674 4.693 19.9436C4.2806 20.7528 3.89627 21.5752 3.54 22.411L3.98 22.5979C4.4028 21.5995 4.86814 20.6211 5.376 19.6629C19.6742 21.8548 21.875 13.049 21.875 2.04293C8.3108 1.03473 -0.496596 5.98533 4.9013 18.6121Z" fill="black"/>
</svg>
