<svg width="24" height="24" viewBox="0 0 24 24" fill="none" xmlns="http://www.w3.org/2000/svg">
<path d="M4.62119 17.9409C6.12573 15.5066 7.88591 13.24 9.87179 11.1796C12.9696 8.02457 16.4347 5.25263 20.1928 2.92315L20.3183 3.11465C16.6524 5.53026 13.2897 8.37708 10.3023 11.594C8.17919 13.9233 6.34367 16.4993 4.83519 19.2666C4.73049 19.4566 4.63009 19.6489 4.52809 19.8404C4.10469 20.651 3.71136 21.4758 3.34809 22.315L4.18709 22.6767C4.29909 22.4121 4.41819 22.1742 4.53919 21.9137C4.88669 21.1637 5.26509 20.4279 5.65759 19.7003C19.6983 21.7304 21.8753 12.9748 21.8753 2.04235C8.55289 1.05275 -0.184908 5.80815 4.62119 17.9409Z" fill="black"/>
</svg>
