<svg width="24" height="24" viewBox="0 0 24 24" fill="none" xmlns="http://www.w3.org/2000/svg">
<path d="M15.3537 5.00064C14.4557 4.98681 13.5644 5.15845 12.7356 5.50484C12.8309 5.05564 12.9754 4.6183 13.1664 4.20074C13.494 3.53482 13.9269 2.92616 14.4484 2.39824L12.6176 1.00684C12.101 1.81509 11.7183 2.70151 11.4843 3.63184C11.3423 4.24116 11.273 4.86519 11.278 5.49084C10.4569 5.15348 9.57568 4.98677 8.68804 5.00084C7.17979 4.97582 5.71003 5.47754 4.5319 6.41959C3.35376 7.36163 2.54102 8.68503 2.23364 10.1618C2.24504 10.1608 2.25524 10.1569 2.26664 10.156C2.35134 10.1497 2.43574 10.1466 2.51934 10.1466C3.36599 10.1455 4.1816 10.4653 4.80172 11.0417C5.42184 11.6182 5.80035 12.4083 5.86093 13.2527C5.92151 14.0972 5.65966 14.9333 5.12817 15.5923C4.59668 16.2513 3.83509 16.6844 2.99694 16.804C4.17074 19.6663 6.34634 22.0111 9.20874 22.0111C9.78244 22.008 10.3525 21.9194 10.9 21.7482C11.2598 21.6134 11.6373 21.5318 12.0206 21.5059C12.4039 21.5318 12.7814 21.6134 13.1411 21.7482C13.6888 21.9194 14.259 22.0079 14.8327 22.0109C17.6955 22.0109 19.8706 19.6663 21.0446 16.8038C20.2065 16.6842 19.4449 16.2511 18.9134 15.5921C18.3819 14.9331 18.1201 14.097 18.1807 13.2525C18.2412 12.4081 18.6197 11.618 19.2399 11.0415C19.86 10.4651 20.6756 10.1453 21.5222 10.1464C21.6058 10.1464 21.69 10.1496 21.7748 10.1558C21.7862 10.1567 21.7965 10.1606 21.8078 10.1616C21.5005 8.68488 20.6878 7.36152 19.5097 6.41948C18.3316 5.47744 16.8619 4.97569 15.3537 5.00064ZM16.1871 13.1025C16.1236 13.9905 16.2827 14.8803 16.6501 15.6912C17.0175 16.5021 17.5815 17.2085 18.2909 17.7462C17.9449 18.3787 17.4484 18.9162 16.8453 19.3112C16.2422 19.7061 15.5511 19.9465 14.833 20.0109C14.4572 20.0074 14.084 19.9483 13.7254 19.8354L13.6172 19.8021C13.1036 19.6216 12.5651 19.5217 12.0209 19.5059C11.4767 19.5217 10.9381 19.6216 10.4244 19.8021L10.3163 19.8354C9.95783 19.9483 9.58458 20.0074 9.20874 20.0109C8.49069 19.9465 7.79957 19.7062 7.19647 19.3112C6.59337 18.9162 6.09687 18.3787 5.75084 17.7462C6.46702 17.2053 7.03504 16.4923 7.40227 15.6733C7.76949 14.8543 7.92403 13.9559 7.85156 13.0613C7.77909 12.1667 7.48196 11.3049 6.9877 10.5557C6.49344 9.80655 5.81806 9.19427 5.02414 8.77564C5.45174 8.21194 6.00653 7.75731 6.64327 7.44884C7.28001 7.14037 7.98065 6.98679 8.68804 7.00064C9.50428 6.97721 10.311 7.1811 11.018 7.58954L12.0204 8.16954L13.0228 7.58954C13.7299 7.18108 14.5366 6.97719 15.3528 7.00064C16.0602 6.98677 16.7609 7.14034 17.3976 7.44882C18.0344 7.75729 18.5892 8.21193 19.0167 8.77564C18.2193 9.20072 17.5419 9.82007 17.0473 10.5764C16.5527 11.3327 16.2569 12.2015 16.1871 13.1025Z" fill="black"/>
</svg>
