<svg width="24" height="24" viewBox="0 0 24 24" fill="none" xmlns="http://www.w3.org/2000/svg">
<path d="M15.352 9.14008C15.0553 9.14008 14.7653 9.22805 14.5186 9.39287C14.272 9.5577 14.0797 9.79196 13.9662 10.0661C13.8526 10.3401 13.8229 10.6417 13.8808 10.9327C13.9387 11.2237 14.0816 11.491 14.2913 11.7007C14.5011 11.9105 14.7684 12.0534 15.0594 12.1113C15.3503 12.1691 15.6519 12.1394 15.926 12.0259C16.2001 11.9124 16.4344 11.7201 16.5992 11.4734C16.764 11.2268 16.852 10.9367 16.852 10.6401C16.852 10.2423 16.694 9.86072 16.4127 9.57942C16.1314 9.29811 15.7498 9.14008 15.352 9.14008ZM15.352 11.2401C15.2333 11.2401 15.1173 11.2049 15.0187 11.139C14.92 11.073 14.8431 10.9793 14.7977 10.8697C14.7523 10.7601 14.7404 10.6394 14.7635 10.523C14.7867 10.4066 14.8438 10.2997 14.9277 10.2158C15.0116 10.1319 15.1186 10.0748 15.2349 10.0516C15.3513 10.0285 15.472 10.0403 15.5816 10.0858C15.6912 10.1312 15.785 10.2081 15.8509 10.3067C15.9168 10.4054 15.952 10.5214 15.952 10.6401C15.9518 10.7992 15.8885 10.9517 15.7761 11.0641C15.6636 11.1766 15.5111 11.2399 15.352 11.2401ZM10.1481 10.6401C10.1481 10.3434 10.0601 10.0534 9.8953 9.80672C9.73048 9.56005 9.49621 9.36779 9.22213 9.25426C8.94804 9.14073 8.64644 9.11102 8.35546 9.1689C8.06449 9.22678 7.79722 9.36964 7.58744 9.57942C7.37766 9.7892 7.2348 10.0565 7.17692 10.3474C7.11904 10.6384 7.14875 10.94 7.26228 11.2141C7.37581 11.4882 7.56807 11.7225 7.81474 11.8873C8.06142 12.0521 8.35143 12.1401 8.6481 12.1401C9.04592 12.1401 9.42746 11.982 9.70876 11.7007C9.99006 11.4194 10.1481 11.0379 10.1481 10.6401ZM8.0481 10.6401C8.0481 10.5214 8.08329 10.4054 8.14922 10.3067C8.21515 10.2081 8.30885 10.1312 8.41849 10.0858C8.52813 10.0403 8.64877 10.0285 8.76515 10.0516C8.88154 10.0748 8.98845 10.1319 9.07236 10.2158C9.15628 10.2997 9.21342 10.4066 9.23657 10.523C9.25972 10.6394 9.24784 10.7601 9.20243 10.8697C9.15702 10.9793 9.08011 11.073 8.98144 11.139C8.88277 11.2049 8.76677 11.2401 8.6481 11.2401C8.48901 11.2399 8.33648 11.1767 8.22398 11.0642C8.11147 10.9517 8.04819 10.7992 8.048 10.6401H8.0481ZM22.5626 14.2301V13.3301H20.761C20.7751 13.1273 20.792 12.9253 20.792 12.7191C20.7903 12.1371 20.7306 11.5567 20.6138 10.9866C21.2954 10.0293 21.7573 8.93325 21.9665 7.77681C22.1757 6.62037 22.1269 5.43201 21.8238 4.29658L21.7506 3.92838H21.3746C19.5299 3.8787 17.6941 4.20157 15.9771 4.87768C14.741 4.26391 13.3797 3.94453 11.9996 3.94453C10.6195 3.94453 9.25818 4.26391 8.0221 4.87768C6.30523 4.20142 4.4696 3.87834 2.625 3.92778H2.249L2.1758 4.29598C1.8728 5.43143 1.82415 6.61976 2.03331 7.77617C2.24246 8.93259 2.70428 10.0286 3.3858 10.986C3.26921 11.5561 3.20969 12.1365 3.2081 12.7185C3.2081 12.9247 3.225 13.1267 3.2391 13.3295H1.4375V14.2295H3.3475C3.48618 15.0244 3.73472 15.7962 4.086 16.5227L2.1919 17.4271L2.58 18.2401L4.5192 17.3143C5.30215 18.5962 6.40137 19.6554 7.71142 20.3904C9.02146 21.1253 10.4984 21.5113 12.0005 21.5113C13.5026 21.5113 14.9795 21.1253 16.2896 20.3904C17.5996 19.6554 18.6989 18.5962 19.4818 17.3143L21.421 18.2401L21.8087 17.4279L19.9146 16.5235C20.2659 15.797 20.5144 15.0252 20.6531 14.2303L22.5626 14.2301ZM19.6739 10.9731C19.8053 11.5459 19.8728 12.1315 19.8751 12.7192C19.8751 12.9254 19.8598 13.1279 19.8442 13.3302H17.5V14.2302H19.7261C19.5959 14.8879 19.3813 15.5261 19.0878 16.129L17.24 15.2462L16.8523 16.0584L18.6514 16.9173C17.9446 18.043 16.9636 18.971 15.8003 19.6142C14.6371 20.2574 13.3296 20.5948 12.0003 20.5948C10.671 20.5948 9.36354 20.2574 8.20026 19.6142C7.03698 18.971 6.056 18.043 5.3492 16.9173L7.1484 16.0584L6.76 15.2462L4.9119 16.1286C4.6185 15.5258 4.40407 14.8877 4.2739 14.2301H6.5V13.3301H4.1559C4.1403 13.1278 4.125 12.9253 4.125 12.7191C4.12681 12.1314 4.1943 11.5457 4.3262 10.973L4.3762 10.7542L4.2339 10.5801C3.61954 9.77408 3.19091 8.84226 2.97869 7.85129C2.76647 6.86031 2.7759 5.83468 3.0063 4.84778C4.66825 4.83499 6.31548 5.15989 7.8481 5.80278L8.0562 5.89758L8.2578 5.78918C9.41116 5.18018 10.6957 4.86187 12 4.86187C13.3043 4.86187 14.5888 5.18018 15.7422 5.78918L15.9438 5.89758L16.1519 5.80278C17.6845 5.15989 19.3318 4.83499 20.9937 4.84778C21.2241 5.83468 21.2335 6.86031 21.0213 7.85129C20.8091 8.84226 20.3805 9.77408 19.7661 10.5801L19.624 10.7539L19.6739 10.9731ZM12.9539 16.6537C12.7103 16.4112 12.5459 16.1006 12.4822 15.7629C12.8893 15.6573 13.2499 15.4198 13.5076 15.0874C13.7652 14.755 13.9054 14.3466 13.9062 13.9261V13.3301H10.0941V13.926C10.0949 14.3465 10.2351 14.7549 10.4928 15.0873C10.7504 15.4197 11.111 15.6573 11.5181 15.7629C11.4545 16.1005 11.2902 16.411 11.0469 16.6536C10.7194 16.9667 10.2837 17.1415 9.8306 17.1415C9.37748 17.1415 8.94181 16.9667 8.6143 16.6536L7.9775 17.2903C8.2208 17.5336 8.50965 17.7267 8.82755 17.8584C9.14546 17.9901 9.48619 18.0578 9.8303 18.0578C10.1744 18.0578 10.5151 17.9901 10.833 17.8584C11.151 17.7267 11.4398 17.5336 11.6831 17.2903C11.8006 17.1719 11.9067 17.0426 12 16.9043C12.0934 17.0426 12.1996 17.1718 12.3173 17.2901C12.5605 17.5334 12.8493 17.7265 13.1672 17.8582C13.4851 17.9899 13.8258 18.0577 14.1699 18.0577C14.5139 18.0577 14.8546 17.9899 15.1725 17.8582C15.4904 17.7265 15.7792 17.5334 16.0224 17.2901L15.3856 16.6534C15.0581 16.9663 14.6226 17.141 14.1696 17.141C13.7166 17.141 13.2811 16.9663 12.9536 16.6534L12.9539 16.6537ZM12 14.9317C11.7864 14.9314 11.5785 14.8633 11.4061 14.7372C11.2338 14.611 11.1059 14.4334 11.0411 14.2299H12.9589C12.8941 14.4334 12.7663 14.611 12.5939 14.7372C12.4216 14.8633 12.2136 14.9314 12 14.9317Z" fill="black"/>
</svg>
