<svg width="24" height="24" viewBox="0 0 24 24" fill="none" xmlns="http://www.w3.org/2000/svg">
<g clip-path="url(#clip0)">
<path d="M18.2344 4.64698H19.1656C19.6942 4.64695 20.2011 4.43695 20.5749 4.06317C20.9486 3.6894 21.1586 3.18246 21.1586 2.65387V0.609375H20.6694L20.3644 2.73787C20.3281 2.99018 20.2021 3.22096 20.0095 3.38792C19.8169 3.55488 19.5706 3.64685 19.3157 3.64698H18.402V1.60938H17.883L17.5253 3.64698H14.9613L14.6036 1.60938H14.0847V3.64698H12.944C12.6891 3.64695 12.4427 3.55502 12.2501 3.38803C12.0575 3.22105 11.9316 2.99021 11.8954 2.73787L11.59 0.609375H11.1008V2.65387C11.1008 3.18246 11.3108 3.6894 11.6845 4.06317C12.0583 4.43695 12.5652 4.64695 13.0938 4.64698H15.2809L12.8409 9.58327H6.82499C6.39171 9.58327 5.96356 9.67712 5.57001 9.85837C5.17646 10.0396 4.82684 10.304 4.54519 10.6332C4.26355 10.9625 4.05657 11.3488 3.9385 11.7657C3.82042 12.1826 3.79405 12.6201 3.86119 13.0482L5.26529 22H6.49709L6.20319 17.11L7.99319 15.07L14.897 16.2161L15.7637 22H16.9354V15.6969C19.3105 13.046 17.8054 9.90538 17.1484 8.19688H20.2484C20.4527 8.19686 20.6529 8.13959 20.8264 8.03156C20.9998 7.92353 21.1395 7.76906 21.2296 7.58568L21.6833 6.66188L18.2344 4.64698Z" fill="black"/>
</g>
<defs>
<clipPath id="clip0">
<rect width="24" height="24" fill="white"/>
</clipPath>
</defs>
</svg>
