<svg width="24" height="24" viewBox="0 0 24 24" fill="none" xmlns="http://www.w3.org/2000/svg">
<path d="M18.8842 6.45747C19.1003 5.6271 19.0219 4.74747 18.6623 3.96843C18.3026 3.1894 17.684 2.55917 16.9117 2.1851C16.1395 1.81103 15.2615 1.71628 14.4273 1.91698C13.593 2.11767 12.8542 2.60141 12.3366 3.28577C11.6874 2.49583 10.7889 1.95007 9.78869 1.73808C8.78844 1.5261 7.74583 1.66048 6.83203 2.11917C5.91822 2.57787 5.18751 3.33362 4.75986 4.26235C4.33221 5.19109 4.23302 6.23763 4.47858 7.23017C3.37023 8.18782 2.67276 9.53515 2.53069 10.993C2.38862 12.4509 2.81283 13.9075 3.71543 15.0611C4.61803 16.2147 5.92984 16.9769 7.37905 17.1897C8.82827 17.4025 10.3038 17.0497 11.5 16.2043V22.0002H12.5V16.3656C13.8134 17.1718 15.3903 17.4317 16.8929 17.0895C18.3956 16.7472 19.7044 15.8302 20.5392 14.5347C21.3739 13.2392 21.6681 11.6684 21.3588 10.1586C21.0494 8.64886 20.1611 7.32028 18.8842 6.45747Z" fill="black"/>
</svg>
