<svg width="24" height="24" viewBox="0 0 24 24" fill="none" xmlns="http://www.w3.org/2000/svg">
<path d="M17.21 13.1788C17.2932 12.092 17.778 11.0751 18.57 10.3262C19.3621 9.57731 20.4045 9.15014 21.4943 9.12792C21.0176 7.89318 20.1727 6.8349 19.0742 6.09659C17.9757 5.35829 16.6767 4.97567 15.3533 5.00062C14.2694 4.98245 13.1986 5.24008 12.2416 5.74932C12.3001 5.10786 12.447 4.47756 12.6781 3.87632C12.9716 3.166 13.3713 2.50444 13.8637 1.91432L13.3064 1.49072C12.8183 2.16289 12.4351 2.90533 12.17 3.69262C11.9568 4.3619 11.839 5.05787 11.82 5.76002C10.858 5.24359 9.77974 4.98215 8.68802 5.00062C7.36469 4.97566 6.0657 5.35828 4.96719 6.09659C3.86868 6.8349 3.0238 7.89318 2.54712 9.12792C3.61563 9.14827 4.63984 9.55857 5.42686 10.2816C6.21389 11.0046 6.70943 11.9904 6.82016 13.0533C6.93089 14.1163 6.64917 15.183 6.02806 16.0527C5.40694 16.9224 4.4893 17.535 3.44792 17.7751C4.95192 20.69 7.56382 22.767 10.9 21.7482C11.2598 21.6134 11.6373 21.5317 12.0206 21.5059C12.4039 21.5318 12.7814 21.6134 13.1411 21.7482C16.4775 22.767 19.0895 20.6898 20.5935 17.7751C19.5744 17.5379 18.6734 16.9444 18.0531 16.1017C17.4327 15.259 17.1338 14.2225 17.21 13.1788Z" fill="black"/>
</svg>
