<svg width="24" height="24" viewBox="0 0 24 24" fill="none" xmlns="http://www.w3.org/2000/svg">
<path d="M11.9973 9.9056C11.6325 9.90558 11.2759 10.0137 10.9726 10.2164C10.6692 10.419 10.4328 10.7071 10.2932 11.0441C10.1536 11.3811 10.1171 11.752 10.1882 12.1098C10.2594 12.4675 10.435 12.7962 10.693 13.0542C10.9509 13.3121 11.2795 13.4878 11.6373 13.559C11.9951 13.6301 12.366 13.5936 12.703 13.454C13.04 13.3144 13.3281 13.078 13.5307 12.7747C13.7334 12.4714 13.8416 12.1148 13.8416 11.75C13.8416 11.5078 13.7939 11.268 13.7012 11.0442C13.6086 10.8204 13.4727 10.6171 13.3014 10.4458C13.1302 10.2745 12.9269 10.1387 12.7031 10.046C12.4793 9.95331 12.2395 9.9056 11.9973 9.9056ZM11.9973 13.0943C11.7314 13.0943 11.4714 13.0155 11.2503 12.8678C11.0292 12.7201 10.8569 12.5101 10.7551 12.2644C10.6534 12.0188 10.6267 11.7484 10.6786 11.4876C10.7305 11.2268 10.8585 10.9873 11.0466 10.7993C11.2346 10.6112 11.4741 10.4832 11.7349 10.4313C11.9957 10.3795 12.2661 10.4061 12.5117 10.5079C12.7574 10.6096 12.9673 10.782 13.1151 11.0031C13.2628 11.2242 13.3416 11.4841 13.3416 11.75C13.3412 12.1064 13.1994 12.4481 12.9474 12.7001C12.6954 12.9521 12.3537 13.0939 11.9973 13.0943ZM21.3173 12.0543C21.0702 12.0553 20.8287 12.1278 20.6219 12.2631L20.5879 12.2849C20.3353 12.4468 20.0529 12.5566 19.7573 12.6078C19.4617 12.659 19.1588 12.6507 18.8665 12.5833L18.3126 12.4554C18.3389 12.223 18.3525 11.9893 18.3532 11.7554C18.353 10.5755 18.0223 9.41922 17.3985 8.4177L17.8476 8.0619C18.082 7.87538 18.3515 7.73775 18.6401 7.65716C18.9286 7.57657 19.2304 7.55465 19.5276 7.5927L19.5689 7.5979C19.6268 7.60537 19.6851 7.60915 19.7435 7.6092C19.9814 7.60617 20.214 7.53798 20.4159 7.41202C20.6177 7.28607 20.7812 7.10718 20.8885 6.89481C20.9959 6.68244 21.0429 6.44471 21.0246 6.20746C21.0062 5.97022 20.9232 5.74255 20.7845 5.5492C20.6712 5.3888 20.5527 5.2306 20.429 5.0746C20.3053 4.9186 20.1784 4.76707 20.0482 4.62C19.8822 4.4294 19.6643 4.29133 19.4211 4.2227C19.1778 4.15407 18.9199 4.15785 18.6788 4.23358C18.4376 4.30931 18.2238 4.4537 18.0635 4.64908C17.9032 4.84446 17.8034 5.08234 17.7762 5.3336L17.772 5.3736C17.741 5.67202 17.6507 5.96124 17.5063 6.22425C17.3619 6.48725 17.1664 6.71874 16.9313 6.9051L16.487 7.2572C15.4769 6.24885 14.1558 5.61126 12.7379 5.4478V4.8778C12.7375 4.57829 12.797 4.28173 12.9131 4.0056C13.0291 3.72948 13.1992 3.4794 13.4135 3.2701L13.4435 3.241C13.6237 3.06369 13.7483 2.8377 13.802 2.59067C13.8557 2.34365 13.8363 2.08632 13.746 1.85018C13.6558 1.61405 13.4986 1.40935 13.2938 1.26116C13.089 1.11296 12.8454 1.0277 12.5929 1.0158C12.3966 1.00527 12.1989 1 12 1C11.8011 1 11.6035 1.0054 11.4073 1.0162C11.1547 1.0277 10.9111 1.11264 10.7061 1.2606C10.5011 1.40855 10.3437 1.61311 10.2533 1.84918C10.1628 2.08525 10.1432 2.34258 10.1969 2.58963C10.2505 2.83667 10.3751 3.0627 10.5553 3.24L10.5842 3.2682C10.7988 3.47785 10.9693 3.72827 11.0857 4.00475C11.2021 4.28124 11.2621 4.57821 11.2621 4.8782V5.4482C9.85208 5.61112 8.53771 6.24311 7.52999 7.2427L7.08609 6.8883C6.85177 6.70174 6.65718 6.47016 6.51378 6.20719C6.37039 5.94423 6.28111 5.65522 6.25119 5.3572L6.24699 5.3157C6.2209 5.06419 6.12202 4.82575 5.96247 4.62959C5.80292 4.43342 5.58963 4.28804 5.34871 4.21125C5.10779 4.13447 4.84971 4.12961 4.60607 4.19727C4.36243 4.26493 4.14381 4.40218 3.97699 4.5922C3.84619 4.73887 3.71873 4.8899 3.59459 5.0453C3.47046 5.2007 3.35139 5.3585 3.23739 5.5187C3.09761 5.71166 3.01351 5.93931 2.99428 6.1768C2.97504 6.41429 3.02141 6.6525 3.12831 6.86544C3.23521 7.07838 3.39855 7.25787 3.6005 7.38432C3.80245 7.51077 4.03524 7.57932 4.27349 7.5825C4.33032 7.58244 4.3871 7.5789 4.44349 7.5719L4.48349 7.567C4.78124 7.52996 5.08339 7.55288 5.37215 7.63438C5.66092 7.71589 5.93045 7.85435 6.16489 8.0416L6.61249 8.3989C5.98124 9.40467 5.64636 10.568 5.64629 11.7555C5.6467 11.9821 5.65911 12.2086 5.68349 12.4339L5.12999 12.56C4.838 12.6266 4.53563 12.6342 4.24067 12.5822C3.94571 12.5303 3.66413 12.4198 3.41249 12.2574L3.37749 12.2348C3.16981 12.098 2.92679 12.0245 2.67809 12.0235C2.48777 12.0245 2.29996 12.067 2.12776 12.148C1.95556 12.2291 1.80311 12.3467 1.68104 12.4928C1.55898 12.6388 1.47023 12.8097 1.421 12.9935C1.37177 13.1773 1.36323 13.3697 1.39599 13.5572C1.42933 13.7509 1.46786 13.9447 1.51159 14.1388C1.55533 14.3329 1.60436 14.5243 1.65869 14.7132C1.73498 14.9892 1.90015 15.2324 2.12862 15.4051C2.35709 15.5778 2.63611 15.6703 2.92249 15.6684C3.14271 15.6696 3.35942 15.6133 3.5512 15.5051C3.74299 15.3969 3.9032 15.2404 4.01599 15.0513L4.03709 15.0169C4.19397 14.7611 4.40041 14.5393 4.64427 14.3645C4.88814 14.1898 5.1645 14.0655 5.45709 13.9991L6.01499 13.8723C6.48873 15.209 7.3955 16.3492 8.59129 17.1117L8.34239 17.6264C8.21245 17.8963 8.02978 18.1374 7.80514 18.3355C7.58051 18.5336 7.31848 18.6848 7.03449 18.78L6.99449 18.7932C6.75509 18.8744 6.54455 19.0236 6.38866 19.2227C6.23277 19.4217 6.13828 19.6618 6.11677 19.9137C6.09526 20.1656 6.14766 20.4183 6.26755 20.6408C6.38744 20.8634 6.56962 21.0462 6.79179 21.1668C6.96373 21.2619 7.13923 21.3527 7.31829 21.4393C7.49736 21.5259 7.67763 21.6071 7.85909 21.6828C8.0218 21.7517 8.19661 21.7874 8.37329 21.788C8.58157 21.7882 8.78683 21.7382 8.9717 21.6423C9.15658 21.5464 9.31564 21.4073 9.43543 21.237C9.55522 21.0666 9.63221 20.8698 9.6599 20.6634C9.68758 20.457 9.66515 20.2469 9.59449 20.051L9.58069 20.013C9.47869 19.7309 9.4341 19.4312 9.44956 19.1316C9.46501 18.8319 9.5402 18.5384 9.67069 18.2683L9.91949 17.7537C11.2586 18.225 12.7181 18.2276 14.0589 17.7612L14.3058 18.2764C14.4356 18.5463 14.51 18.8395 14.5246 19.1387C14.5393 19.4378 14.4939 19.7369 14.3911 20.0182L14.3769 20.0574C14.3055 20.2535 14.2825 20.464 14.3097 20.6709C14.3369 20.8778 14.4136 21.0751 14.5333 21.2461C14.653 21.4171 14.8121 21.5567 14.9972 21.6531C15.1823 21.7495 15.3879 21.7999 15.5966 21.8C15.7715 21.7994 15.9445 21.7644 16.1058 21.6968C16.2874 21.6217 16.4679 21.5412 16.6473 21.4552C16.8267 21.3692 17.0025 21.279 17.1748 21.1845C17.3976 21.065 17.5806 20.8831 17.7016 20.6611C17.8225 20.4391 17.876 20.1867 17.8556 19.9347C17.8351 19.6827 17.7416 19.4422 17.5865 19.2426C17.4314 19.043 17.2214 18.8929 16.9823 18.8109L16.9441 18.798C16.66 18.7016 16.398 18.5495 16.1735 18.3504C15.949 18.1513 15.7666 17.9094 15.637 17.6388L15.3898 17.1229C16.5881 16.3647 17.4988 15.2278 17.9772 13.8929L18.535 14.0217C18.8269 14.0887 19.1025 14.2134 19.3454 14.3886C19.5884 14.5638 19.7938 14.7858 19.9495 15.0417L19.9713 15.0773C20.084 15.2677 20.2447 15.4252 20.4372 15.5342C20.6297 15.6432 20.8474 15.6999 21.0687 15.6987C21.3541 15.7008 21.6324 15.6089 21.8604 15.4372C22.0885 15.2655 22.2537 15.0236 22.3307 14.7487C22.3853 14.56 22.435 14.3687 22.4799 14.1748C22.5248 13.9809 22.5639 13.7872 22.5974 13.5937C22.631 13.406 22.6232 13.2133 22.5745 13.0289C22.5258 12.8446 22.4374 12.6731 22.3155 12.5265C22.1936 12.3799 22.0412 12.2617 21.8688 12.1802C21.6964 12.0987 21.5084 12.0558 21.3177 12.0546L21.3173 12.0543ZM21.9923 14.0621C21.9496 14.247 21.9022 14.4295 21.8501 14.6096C21.8079 14.7634 21.7208 14.9011 21.5998 15.0051C21.4788 15.109 21.3295 15.1744 21.1711 15.1928C21.0126 15.2112 20.8523 15.1819 20.7107 15.1086C20.569 15.0352 20.4526 14.9212 20.3762 14.7812C20.1866 14.4678 19.9357 14.1958 19.6387 13.9815C19.3416 13.7672 19.0043 13.615 18.6471 13.534L18.0893 13.4052L17.6559 13.3052L17.5059 13.724C17.0636 14.953 16.2251 16 15.1224 16.7L14.7468 16.9377L14.9388 17.3386L15.186 17.8545C15.3492 18.1901 15.578 18.4896 15.859 18.7352C16.14 18.9809 16.4674 19.1676 16.8218 19.2845C16.9685 19.3312 17.0978 19.4208 17.193 19.5418C17.2883 19.6627 17.3451 19.8095 17.3561 19.963C17.3721 20.1207 17.3405 20.2796 17.2653 20.4192C17.1901 20.5588 17.0749 20.6727 16.9344 20.7462C16.7701 20.8363 16.6024 20.9223 16.4312 21.0044C16.26 21.0865 16.0878 21.1631 15.9147 21.2344C15.814 21.2769 15.7059 21.2991 15.5966 21.2997C15.4664 21.2986 15.3383 21.2662 15.2233 21.2051C15.1083 21.1441 15.0097 21.0562 14.9359 20.9489C14.8605 20.8389 14.8142 20.7116 14.8011 20.5788C14.788 20.4461 14.8087 20.3122 14.8611 20.1896C14.9877 19.8459 15.0438 19.4802 15.0259 19.1143C15.0081 18.7484 14.9166 18.3899 14.7571 18.0602L14.5103 17.545L14.318 17.1437L13.8972 17.2881C12.662 17.7183 11.3173 17.7158 10.0837 17.281L9.66369 17.1353L9.47009 17.5359L9.22129 18.0505C9.0609 18.3874 8.9697 18.753 8.95309 19.1257C8.93648 19.4984 8.9948 19.8707 9.12459 20.2205C9.16991 20.3382 9.18541 20.4653 9.16971 20.5904C9.15401 20.7155 9.10759 20.8349 9.03459 20.9377C8.96064 21.0446 8.86208 21.1321 8.74722 21.1929C8.63236 21.2537 8.50456 21.286 8.37459 21.2871C8.26403 21.2865 8.15471 21.2638 8.05299 21.2205C7.88013 21.1482 7.70823 21.0708 7.53729 20.9883C7.36636 20.9058 7.19893 20.8192 7.03499 20.7283C6.89462 20.6529 6.77994 20.5373 6.70563 20.3964C6.63132 20.2554 6.60076 20.0955 6.61787 19.9371C6.63497 19.7786 6.69897 19.6289 6.80166 19.5071C6.90434 19.3852 7.04106 19.2968 7.19429 19.2531C7.54192 19.1376 7.8627 18.9532 8.13747 18.7109C8.41223 18.4687 8.63535 18.1735 8.79349 17.8431L9.04229 17.3284L9.23579 16.9284L8.85999 16.69C7.75945 15.9861 6.92437 14.9361 6.48629 13.7053L6.33789 13.286L5.90419 13.3845L5.34619 13.5113C4.98289 13.5961 4.64029 13.7529 4.33864 13.9725C4.03699 14.192 3.78243 14.4698 3.58999 14.7894C3.52157 14.9053 3.42394 15.0013 3.30685 15.0677C3.18977 15.1342 3.05731 15.1687 2.92269 15.168C2.74488 15.1702 2.57139 15.1132 2.42959 15.0059C2.2878 14.8986 2.18576 14.7471 2.13959 14.5754C2.08819 14.3954 2.04153 14.2128 1.99959 14.0276C1.95766 13.8424 1.92099 13.6575 1.88959 13.4728C1.86808 13.3572 1.87248 13.2383 1.90249 13.1246C1.93249 13.0109 1.98734 12.9052 2.06309 12.8153C2.13869 12.7253 2.23279 12.6525 2.339 12.6021C2.44521 12.5517 2.56103 12.5247 2.67859 12.5231C2.84495 12.5266 3.00638 12.5802 3.14179 12.6769C3.58503 12.9638 4.10182 13.1162 4.62979 13.1159C4.83558 13.1158 5.04072 13.0928 5.24139 13.0472L5.79479 12.9214L6.22809 12.823L6.18119 12.3811C6.15876 12.1733 6.14728 11.9645 6.14679 11.7555C6.14778 10.6618 6.45618 9.5905 7.03679 8.6637L7.27269 8.2859L6.92459 8.0081L6.47699 7.6508C5.98927 7.26244 5.38445 7.05061 4.76099 7.0498C4.63427 7.05033 4.50771 7.05899 4.38209 7.0757C4.3461 7.08021 4.30987 7.08249 4.27359 7.0825C4.12944 7.0828 3.98809 7.04266 3.86561 6.96665C3.74313 6.89064 3.64442 6.7818 3.58069 6.6525C3.51137 6.52 3.48062 6.37071 3.49191 6.2216C3.50321 6.07249 3.55611 5.92954 3.64459 5.809C3.75333 5.65633 3.86686 5.50583 3.98519 5.3575C4.10353 5.20917 4.22513 5.065 4.34999 4.925C4.42409 4.83843 4.51613 4.76901 4.61974 4.72158C4.72335 4.67414 4.83604 4.64982 4.94999 4.6503C5.15545 4.64925 5.35345 4.72723 5.50301 4.8681C5.65257 5.00897 5.74226 5.20195 5.75349 5.4071C5.78909 5.77169 5.89781 6.12537 6.07314 6.447C6.24848 6.76864 6.48684 7.05164 6.77399 7.2791L7.21789 7.6334L7.56559 7.911L7.88169 7.5979C8.81161 6.67919 10.0217 6.09737 11.32 5.9448L11.7624 5.8936V4.8783C11.7602 4.50518 11.6831 4.13629 11.5359 3.79345C11.3886 3.45061 11.1741 3.14079 10.905 2.8823C10.7929 2.7768 10.715 2.64012 10.6813 2.48991C10.6477 2.3397 10.6598 2.18284 10.7162 2.0396C10.7699 1.89043 10.8671 1.76078 10.9952 1.66735C11.1233 1.57392 11.2764 1.521 11.4349 1.5154C11.6219 1.50513 11.8103 1.5 12 1.5C12.1897 1.5 12.3782 1.50513 12.5654 1.5154C12.7246 1.52221 12.8781 1.57637 13.0063 1.67093C13.1346 1.76549 13.2317 1.89616 13.2852 2.04622C13.3387 2.19628 13.3463 2.3589 13.3069 2.51328C13.2675 2.66765 13.1829 2.80676 13.064 2.9128C12.8013 3.16808 12.5928 3.4737 12.4508 3.81138C12.3089 4.14907 12.2365 4.5119 12.2379 4.8782V5.8936L12.6803 5.9448C13.9857 6.0978 15.2019 6.68478 16.1339 7.6116L16.4489 7.9258L16.7975 7.6495L17.2419 7.2973C17.5329 7.06378 17.7742 6.77427 17.9514 6.4459C18.1285 6.11752 18.2381 5.75695 18.2735 5.3855C18.2909 5.23099 18.353 5.0849 18.4521 4.96511C18.5513 4.84532 18.6832 4.75702 18.8317 4.71101C18.9803 4.66499 19.139 4.66326 19.2885 4.70603C19.438 4.74879 19.5718 4.8342 19.6735 4.9518C19.7978 5.0922 19.9189 5.2367 20.0368 5.3853C20.1547 5.5339 20.2677 5.6848 20.3759 5.838C20.4636 5.95848 20.5158 6.10111 20.5266 6.24972C20.5374 6.39834 20.5063 6.54701 20.437 6.6789C20.373 6.80819 20.2741 6.91699 20.1514 6.99298C20.0288 7.06898 19.8874 7.10913 19.7431 7.1089C19.692 7.10817 19.641 7.10399 19.5905 7.0964C19.2273 7.05 18.8584 7.07683 18.5057 7.17529C18.1531 7.27376 17.8237 7.44187 17.537 7.6697L17.088 8.0256L16.7389 8.3022L16.9735 8.6808C17.6678 9.78947 17.9647 11.1012 17.8156 12.4008L17.7671 12.8426L18.2002 12.9426L18.7541 13.0704C18.957 13.1171 19.1646 13.1405 19.3728 13.1404C19.9127 13.1387 20.4405 12.98 20.8918 12.6835C21.018 12.5997 21.1658 12.5545 21.3173 12.5535C21.4348 12.5552 21.5505 12.5822 21.6566 12.6327C21.7626 12.6832 21.8566 12.756 21.9319 12.8462C22.0078 12.9367 22.0627 13.0429 22.0925 13.1571C22.1224 13.2714 22.1264 13.3909 22.1044 13.5069C22.0726 13.6924 22.0354 13.8775 21.9927 14.0624L21.9923 14.0621Z" fill="black"/>
</svg>
