<svg width="24" height="24" viewBox="0 0 24 24" fill="none" xmlns="http://www.w3.org/2000/svg">
<g clip-path="url(#clip0)">
<path d="M20.19 6.52614C20.549 6.41761 20.8636 6.19662 21.0875 5.89573C21.3114 5.59485 21.4328 5.22999 21.4336 4.85494V4.26104H20.8436L20.7085 4.85934C20.6735 5.09036 20.5569 5.30118 20.3797 5.45349C20.2025 5.60579 19.9766 5.68948 19.7429 5.68934H15.6249C15.3893 5.68946 15.1616 5.60428 14.9839 5.44954C14.8062 5.29479 14.6905 5.08095 14.6582 4.84754L14.5295 4.26074H13.9457V4.85464C13.9457 5.32042 14.1307 5.76711 14.4601 6.09646C14.7894 6.42581 15.2361 6.61084 15.7019 6.61084H16.2035L15.5135 8.02344H5.2727C4.793 8.02342 4.31895 8.12693 3.88292 8.32692C3.4469 8.52691 3.05918 8.81865 2.74624 9.18222C2.43331 9.5458 2.20254 9.97263 2.06969 10.4336C1.93685 10.8945 1.90506 11.3787 1.9765 11.853L3.5035 22H6.0376L5.7883 18.0331L7.17 16.2412L13.373 16.8846L14.1392 22H16.6522V16.8036L19.5122 11.0121H21.1191C21.3544 11.0122 21.5849 10.9458 21.7842 10.8208C21.9835 10.6958 22.1435 10.5171 22.2459 10.3052L22.8635 9.02934L20.19 6.52614ZM21.3452 9.87004C21.3245 9.91245 21.2922 9.9482 21.2522 9.97323C21.2122 9.99826 21.1659 10.0116 21.1187 10.0116H18.89L15.6523 16.57V21H15.0005L14.2471 15.97L6.7188 15.19L4.7666 17.7207L4.9727 21H4.3643L2.9653 11.7051C2.91513 11.373 2.93726 11.034 3.03017 10.7112C3.12308 10.3885 3.28458 10.0896 3.50364 9.83495C3.72269 9.58034 3.99414 9.37602 4.29942 9.23596C4.6047 9.09591 4.93663 9.02342 5.2725 9.02344H16.1377L17.2777 6.68954H18.9013L21.642 9.25594L21.3452 9.87004Z" fill="black"/>
</g>
<defs>
<clipPath id="clip0">
<rect width="24" height="24" fill="white"/>
</clipPath>
</defs>
</svg>
