<svg width="24" height="24" viewBox="0 0 24 24" fill="none" xmlns="http://www.w3.org/2000/svg">
<path d="M22.6875 15.7157V13.9999H20.6454C20.8111 12.9692 20.7798 11.9165 20.5532 10.8974C21.5171 9.67472 22.481 7.53602 21.8076 4.16982L21.7676 3.96872H21.5625C19.6757 3.91363 17.7981 4.25148 16.0488 4.96082C14.7952 4.32056 13.4076 3.98673 12 3.98673C10.5924 3.98673 9.2048 4.32056 7.9512 4.96082C6.20199 4.25133 4.32431 3.91347 2.4375 3.96872H2.2324L2.1924 4.16982C1.5195 7.53512 2.4824 9.67372 3.4468 10.8974C3.2202 11.9165 3.18891 12.9692 3.3546 13.9999H1.3125V15.7157H3.79C3.94373 16.1423 4.13057 16.5562 4.3488 16.9537L2.4308 18.0614L3.2813 19.5341L5.3194 18.357C6.13861 19.3316 7.16111 20.1151 8.31519 20.6526C9.46927 21.1902 10.727 21.4687 12.0001 21.4687C13.2732 21.4687 14.5309 21.1902 15.685 20.6526C16.8391 20.1151 17.8616 19.3316 18.6808 18.357L20.7189 19.5341L21.5689 18.0614L19.6509 16.9537C19.8691 16.5562 20.056 16.1423 20.2097 15.7157H22.6875ZM8.4083 9.69812C8.66298 9.69814 8.91193 9.77368 9.12368 9.91519C9.33543 10.0567 9.50046 10.2578 9.59791 10.4931C9.69536 10.7284 9.72084 10.9873 9.67115 11.2371C9.62145 11.4869 9.4988 11.7163 9.31871 11.8964C9.13861 12.0765 8.90917 12.1991 8.65938 12.2488C8.40959 12.2985 8.15069 12.273 7.9154 12.1755C7.6801 12.078 7.479 11.913 7.33751 11.7012C7.19602 11.4895 7.1205 11.2405 7.1205 10.9858C7.1205 10.8167 7.15381 10.6493 7.21853 10.493C7.28325 10.3368 7.37811 10.1948 7.49769 10.0752C7.61728 9.95567 7.75925 9.86082 7.91549 9.79611C8.07173 9.73141 8.23919 9.69811 8.4083 9.69812ZM14.3467 18.6825C13.9269 18.6837 13.5111 18.6018 13.1232 18.4413C12.7353 18.2809 12.383 18.0452 12.0867 17.7479C12.0539 17.7152 12.0309 17.676 11.9997 17.6421C11.9688 17.6756 11.9458 17.7145 11.9134 17.747C11.3138 18.3459 10.501 18.6824 9.65359 18.6825C8.80613 18.6827 7.99324 18.3466 7.3934 17.7479L8.5945 16.5448C8.87982 16.8168 9.2589 16.9686 9.6531 16.9686C10.0473 16.9686 10.4264 16.8168 10.7117 16.5448C10.9555 16.2992 11.1056 15.9758 11.1357 15.631C10.8705 15.5454 10.639 15.3783 10.4743 15.1535C10.3097 14.9286 10.2202 14.6575 10.2186 14.3788V13.9999H13.781V14.3788C13.7795 14.6575 13.69 14.9286 13.5253 15.1535C13.3606 15.3784 13.1292 15.5455 12.8639 15.631C12.8942 15.9762 13.0444 16.2998 13.2884 16.5458C13.574 16.8172 13.953 16.9685 14.3469 16.9683C14.7409 16.9681 15.1198 16.8165 15.4051 16.5448L16.6062 17.7479C16.3099 18.0451 15.9577 18.2807 15.5699 18.4411C15.1821 18.6015 14.7664 18.6835 14.3467 18.6825ZM15.5918 12.2735C15.3371 12.2734 15.0882 12.1978 14.8765 12.0563C14.6648 11.9147 14.4999 11.7136 14.4025 11.4783C14.3051 11.243 14.2797 10.9841 14.3294 10.7343C14.3791 10.4845 14.5018 10.2551 14.6819 10.0751C14.862 9.89507 15.0915 9.77247 15.3413 9.72283C15.591 9.67318 15.8499 9.69871 16.0852 9.79619C16.3205 9.89367 16.5215 10.0587 16.663 10.2705C16.8045 10.4822 16.88 10.7312 16.88 10.9858C16.88 11.155 16.8467 11.3225 16.7819 11.4787C16.7172 11.635 16.6223 11.777 16.5027 11.8965C16.383 12.0161 16.241 12.111 16.0847 12.1756C15.9284 12.2403 15.7609 12.2736 15.5918 12.2735Z" fill="black"/>
</svg>
