<svg width="24" height="24" viewBox="0 0 24 24" fill="none" xmlns="http://www.w3.org/2000/svg">
<path d="M6 7.43344H5.668C5.26141 7.43306 4.87159 7.27136 4.58413 6.98382C4.29667 6.69628 4.13506 6.30642 4.1348 5.89984V3.89984H3.2012V5.89984C3.20178 6.55393 3.46185 7.18107 3.92433 7.64363C4.38681 8.10618 5.01391 8.36635 5.668 8.36704H6V11.533H2V12.4666H6V14.9998C6 15.1798 6.0115 15.357 6.027 15.533H5.668C5.01397 15.5337 4.38691 15.7938 3.92444 16.2563C3.46197 16.7187 3.20186 17.3458 3.2012 17.9998V20.9998H4.1348V17.9998C4.13517 17.5933 4.29682 17.2036 4.58427 16.9161C4.87172 16.6287 5.26148 16.467 5.668 16.4666H6.188C6.49671 17.6807 7.17856 18.7674 8.1375 19.5735C9.09643 20.3795 10.2841 20.8644 11.5332 20.9598V7.43114H6V7.43344ZM16.1814 6.37574C16.1814 5.26676 15.7409 4.2032 14.9567 3.41904C14.1725 2.63488 13.109 2.19434 12 2.19434C10.891 2.19434 9.82747 2.63488 9.0433 3.41904C8.25914 4.2032 7.8186 5.26676 7.8186 6.37574V6.49784H16.1814V6.37574ZM18 12.4666H22V11.533H18V8.36704H18.3335C18.9875 8.36611 19.6144 8.10585 20.0768 7.64334C20.5392 7.18084 20.7993 6.55383 20.8 5.89984V3.89984H19.8664V5.89984C19.866 6.30635 19.7044 6.69611 19.4169 6.98356C19.1295 7.27101 18.7397 7.43267 18.3332 7.43304H18V7.43114H12.4668V20.9598C13.7159 20.8644 14.9036 20.3795 15.8625 19.5734C16.8214 18.7673 17.5032 17.6806 17.8119 16.4665H18.3319C18.7385 16.4669 19.1283 16.6285 19.4157 16.916C19.7032 17.2035 19.8649 17.5933 19.8652 17.9998V20.9998H20.7988V17.9998C20.7981 17.3458 20.538 16.7187 20.0756 16.2563C19.6131 15.7938 18.986 15.5337 18.332 15.533H17.973C17.9885 15.357 18 15.1798 18 14.9998V12.4666Z" fill="black"/>
</svg>
