<svg width="24" height="24" viewBox="0 0 24 24" fill="none" xmlns="http://www.w3.org/2000/svg">
<path d="M15.3537 5.00065C14.3375 4.98566 13.3322 5.21184 12.4202 5.66065C12.491 5.1202 12.6267 4.59025 12.8242 4.08225C13.1308 3.35851 13.553 2.68939 14.0742 2.10105L13.0392 1.31445C12.5208 2.06152 12.127 2.8878 11.8733 3.76105C11.7052 4.37777 11.6145 5.01302 11.6033 5.65215C10.6962 5.20924 9.69747 4.98606 8.68804 5.00065C7.17979 4.97564 5.71003 5.47736 4.5319 6.4194C3.35376 7.36145 2.54102 8.68484 2.23364 10.1617C2.24504 10.1607 2.25524 10.1568 2.26664 10.1559C2.35134 10.1496 2.43574 10.1465 2.51934 10.1465C3.36599 10.1453 4.1816 10.4651 4.80172 11.0416C5.42184 11.618 5.80035 12.4081 5.86093 13.2526C5.92151 14.097 5.65966 14.9331 5.12817 15.5921C4.59668 16.2512 3.83509 16.6842 2.99694 16.8039C4.17074 19.6662 6.34634 22.011 9.20874 22.011C9.78243 22.0079 10.3525 21.9194 10.9 21.7483C11.2598 21.6134 11.6373 21.5318 12.0206 21.506C12.4039 21.5318 12.7814 21.6134 13.1411 21.7483C13.6888 21.9194 14.259 22.0079 14.8327 22.011C17.6955 22.011 19.8706 19.6664 21.0446 16.8039C20.2065 16.6842 19.4449 16.2512 18.9134 15.5921C18.3819 14.9331 18.1201 14.097 18.1807 13.2526C18.2412 12.4081 18.6197 11.618 19.2399 11.0416C19.86 10.4651 20.6756 10.1453 21.5222 10.1465C21.6058 10.1465 21.69 10.1496 21.7748 10.1559C21.7862 10.1568 21.7965 10.1607 21.8078 10.1617C21.5005 8.6849 20.6878 7.36154 19.5097 6.4195C18.3316 5.47746 16.8619 4.97571 15.3537 5.00065ZM17.1843 13.1769C17.1231 14.0501 17.3263 14.9216 17.7674 15.6778C18.2086 16.434 18.8673 17.0397 19.6576 17.4162C18.4608 19.6862 16.7076 21.011 14.833 21.011C14.3581 21.0076 13.8863 20.9337 13.433 20.7919L13.3211 20.7574C12.9032 20.607 12.4645 20.5222 12.0206 20.506C11.5767 20.5222 11.138 20.607 10.72 20.7574L10.608 20.7919C10.1548 20.9337 9.68298 21.0076 9.20804 21.011C7.33384 21.011 5.58024 19.6866 4.38344 17.4162C5.19295 17.0331 5.86421 16.409 6.30523 15.6296C6.74624 14.8501 6.93546 13.9533 6.84693 13.0621C6.75841 12.171 6.39648 11.3289 5.81074 10.6515C5.22499 9.97399 4.4441 9.4942 3.57504 9.27785C4.00476 8.28506 4.72077 7.44295 5.63155 6.85918C6.54233 6.27542 7.60651 5.9765 8.68804 6.00065C9.68079 5.97453 10.6612 6.22507 11.5197 6.72425L12.0209 7.01425L12.522 6.72425C13.3806 6.22506 14.361 5.97452 15.3537 6.00065C16.4352 5.97664 17.4992 6.27562 18.4098 6.85938C19.3205 7.44314 20.0364 8.28517 20.466 9.27785C19.5804 9.50373 18.7877 10.0012 18.1992 10.7004C17.6106 11.3997 17.2557 12.2657 17.1843 13.1769Z" fill="black"/>
</svg>
