<svg width="24" height="24" viewBox="0 0 24 24" fill="none" xmlns="http://www.w3.org/2000/svg">
<g clip-path="url(#clip0)">
<path d="M21.4792 3.4443V1.3999H20.3434L19.8407 3.3499C19.812 3.46089 19.7473 3.55921 19.6567 3.62941C19.5661 3.69961 19.4547 3.7377 19.3401 3.7377H18.4687V2.3999H17.3329L16.988 3.7371H14.8736L14.5287 2.3999H13.3929V3.7371H12.5215C12.4068 3.7371 12.2955 3.69901 12.2048 3.62881C12.1142 3.55861 12.0495 3.46029 12.0209 3.3493L11.5182 1.3999H10.3824V3.4443C10.3824 3.97289 10.5924 4.47981 10.9662 4.85357C11.3399 5.22733 11.8469 5.4373 12.3755 5.4373H14.0492L12.8411 9.5832H7.99406C7.41634 9.5832 6.84547 9.70833 6.32073 9.95001C5.79598 10.1917 5.32982 10.5442 4.9543 10.9832C4.57877 11.4222 4.30281 11.9374 4.14539 12.4932C3.98796 13.0491 3.95281 13.6325 4.04236 14.2032L5.26526 21.9999H9.10416V16.5757L9.82106 15.7284L12.1531 16.0815L13.04 21.9999H16.9357V15.4388C17.6 14.644 18.0585 13.6978 18.2704 12.6838C18.4824 11.6699 18.4414 10.6193 18.1511 9.6249H19.1531C19.599 9.6249 20.0324 9.47682 20.3851 9.2039C20.7378 8.93099 20.9899 8.54869 21.1019 8.117L21.4792 6.6618L19.2985 5.4299C19.3227 5.4291 19.6042 5.4278 19.6285 5.4261C20.1304 5.39109 20.6004 5.16716 20.9438 4.79942C21.2872 4.43168 21.4785 3.94746 21.4792 3.4443ZM19.36 7.6652C19.3482 7.71098 19.3215 7.75154 19.2841 7.7805C19.2468 7.80947 19.2008 7.82519 19.1536 7.8252H15.884L16.3979 10.0333C16.625 10.7581 16.666 11.5284 16.5171 12.2732C16.3681 13.0181 16.0341 13.7134 15.5457 14.2951L15.1357 14.7935V20.1999H14.59L13.7363 14.5008L9.09626 13.7981L7.30416 15.9163V20.1999H6.80496L5.82056 13.9241C5.77133 13.6102 5.79067 13.2894 5.87726 12.9836C5.96386 12.6779 6.11565 12.3946 6.32219 12.1531C6.52873 11.9117 6.78513 11.7178 7.07373 11.5849C7.36234 11.452 7.67632 11.3832 7.99406 11.3832H14.1915L14.5693 10.0868L15.8946 5.5385H16.3871L19.4092 7.4737L19.36 7.6652Z" fill="black"/>
</g>
<defs>
<clipPath id="clip0">
<rect width="24" height="24" fill="white"/>
</clipPath>
</defs>
</svg>
