<svg width="24" height="24" viewBox="0 0 24 24" fill="none" xmlns="http://www.w3.org/2000/svg">
<path d="M19.94 12.947L18.3 12L19.94 11.053C20.2983 10.8462 20.6123 10.5708 20.8641 10.2426C21.1159 9.91443 21.3006 9.53986 21.4077 9.14029C21.5148 8.74072 21.5421 8.32398 21.4881 7.91385C21.4341 7.50372 21.2998 7.10825 21.093 6.75C20.8862 6.39175 20.6108 6.07775 20.2826 5.82593C19.9544 5.5741 19.5799 5.38939 19.1803 5.28232C18.3733 5.06609 17.5135 5.17928 16.79 5.597L15.15 6.544V4.65C15.15 3.81457 14.8181 3.01335 14.2274 2.42261C13.6367 1.83187 12.8354 1.5 12 1.5C11.1646 1.5 10.3634 1.83187 9.77262 2.42261C9.18188 3.01335 8.85001 3.81457 8.85001 4.65V6.544L7.21001 5.597C6.4865 5.17928 5.62669 5.06609 4.81972 5.28232C4.01275 5.49855 3.32473 6.02649 2.90701 6.75C2.48929 7.47351 2.3761 8.33332 2.59233 9.14029C2.80856 9.94726 3.3365 10.6353 4.06001 11.053L5.70001 12L4.06001 12.947C3.3365 13.3647 2.80856 14.0527 2.59233 14.8597C2.3761 15.6667 2.48929 16.5265 2.90701 17.25C3.32473 17.9735 4.01275 18.5014 4.81972 18.7177C5.62669 18.9339 6.4865 18.8207 7.21001 18.403L8.85001 17.4559V19.35C8.85001 20.1854 9.18188 20.9866 9.77262 21.5774C10.3634 22.1681 11.1646 22.5 12 22.5C12.8354 22.5 13.6367 22.1681 14.2274 21.5774C14.8181 20.9866 15.15 20.1854 15.15 19.35V17.4559L16.79 18.403C17.5135 18.8207 18.3733 18.9339 19.1803 18.7177C19.5799 18.6106 19.9544 18.4259 20.2826 18.1741C20.6108 17.9222 20.8862 17.6082 21.093 17.25C21.2998 16.8918 21.4341 16.4963 21.4881 16.0861C21.5421 15.676 21.5148 15.2593 21.4077 14.8597C21.3006 14.4601 21.1159 14.0856 20.8641 13.7574C20.6123 13.4292 20.2983 13.1538 19.94 12.947ZM20.66 17C20.4862 17.3015 20.2546 17.5658 19.9785 17.7778C19.7024 17.9898 19.3873 18.1453 19.0511 18.2353C18.7149 18.3254 18.3642 18.3484 18.0191 18.3028C17.6741 18.2573 17.3413 18.1442 17.04 17.97L15.4 17.023L14.65 16.59V19.35C14.65 20.0528 14.3708 20.7269 13.8738 21.2238C13.3769 21.7208 12.7028 22 12 22C11.2972 22 10.6231 21.7208 10.1262 21.2238C9.62921 20.7269 9.35001 20.0528 9.35001 19.35V16.59L8.60001 17.023L6.96001 17.97C6.65863 18.144 6.32592 18.2569 5.98089 18.3024C5.63586 18.3478 5.28526 18.3248 4.94912 18.2347C4.61297 18.1447 4.29785 17.9893 4.02176 17.7774C3.74567 17.5655 3.51401 17.3014 3.34001 17C3.16601 16.6986 3.05307 16.3659 3.00765 16.0209C2.96223 15.6759 2.98521 15.3253 3.07528 14.9891C3.16536 14.653 3.32076 14.3378 3.53261 14.0618C3.74447 13.7857 4.00863 13.554 4.31001 13.38L5.95001 12.433L6.70001 12L5.95001 11.567L4.31001 10.62C3.70134 10.2686 3.25719 9.68978 3.07528 9.01089C2.89337 8.33201 2.9886 7.60867 3.34001 7C3.69142 6.39133 4.27024 5.94718 4.94912 5.76527C5.628 5.58336 6.35134 5.67859 6.96001 6.03L8.60001 6.977L9.35001 7.41V4.65C9.35001 4.302 9.41856 3.9574 9.55173 3.63589C9.68491 3.31438 9.8801 3.02224 10.1262 2.77617C10.3723 2.53009 10.6644 2.33489 10.9859 2.20172C11.3074 2.06854 11.652 2 12 2C12.348 2 12.6926 2.06854 13.0141 2.20172C13.3356 2.33489 13.6278 2.53009 13.8738 2.77617C14.1199 3.02224 14.3151 3.31438 14.4483 3.63589C14.5815 3.9574 14.65 4.302 14.65 4.65V7.41L15.4 6.977L17.04 6.03C17.6487 5.67859 18.372 5.58336 19.0509 5.76527C19.3871 5.85535 19.7022 6.01075 19.9783 6.2226C20.2544 6.43446 20.486 6.69862 20.66 7C20.834 7.30138 20.9469 7.63409 20.9924 7.97912C21.0378 8.32415 21.0148 8.67475 20.9247 9.01089C20.8347 9.34704 20.6793 9.66216 20.4674 9.93825C20.2556 10.2143 19.9914 10.446 19.69 10.62L18.05 11.5671L17.3 12L18.05 12.433L19.69 13.38C19.9914 13.554 20.2556 13.7857 20.4674 14.0617C20.6793 14.3378 20.8347 14.653 20.9247 14.9891C21.0148 15.3253 21.0378 15.6759 20.9924 16.0209C20.947 16.3659 20.834 16.6986 20.66 17ZM12 8.75C11.3572 8.75 10.7289 8.94061 10.1944 9.29772C9.65995 9.65484 9.24339 10.1624 8.9974 10.7563C8.75142 11.3501 8.68706 12.0036 8.81246 12.634C8.93786 13.2645 9.24739 13.8436 9.70191 14.2981C10.1564 14.7526 10.7355 15.0622 11.366 15.1876C11.9964 15.313 12.6499 15.2486 13.2437 15.0026C13.8376 14.7566 14.3452 14.3401 14.7023 13.8056C15.0594 13.2711 15.25 12.6428 15.25 12C15.25 11.138 14.9076 10.3114 14.2981 9.7019C13.6886 9.09241 12.862 8.75 12 8.75ZM12 14.75C11.4561 14.75 10.9244 14.5887 10.4722 14.2865C10.02 13.9844 9.66748 13.5549 9.45934 13.0524C9.2512 12.5499 9.19674 11.997 9.30285 11.4635C9.40896 10.9301 9.67087 10.4401 10.0555 10.0555C10.4401 9.67086 10.9301 9.40895 11.4635 9.30284C11.997 9.19673 12.5499 9.25119 13.0524 9.45933C13.5549 9.66747 13.9844 10.0199 14.2866 10.4722C14.5887 10.9244 14.75 11.4561 14.75 12C14.7492 12.7291 14.4592 13.4281 13.9436 13.9436C13.4281 14.4592 12.7291 14.7492 12 14.75Z" fill="black"/>
</svg>
