<svg width="24" height="24" viewBox="0 0 24 24" fill="none" xmlns="http://www.w3.org/2000/svg">
<path d="M15.1732 9.3519C14.9185 9.35188 14.6696 9.42738 14.4578 9.56884C14.246 9.7103 14.081 9.91139 13.9835 10.1467C13.886 10.3819 13.8605 10.6408 13.9101 10.8906C13.9597 11.1404 14.0823 11.3699 14.2624 11.55C14.4424 11.7301 14.6718 11.8528 14.9216 11.9025C15.1714 11.9522 15.4303 11.9268 15.6656 11.8294C15.9009 11.732 16.102 11.567 16.2436 11.3553C16.3851 11.1436 16.4607 10.8947 16.4608 10.64C16.4608 10.4709 16.4276 10.3034 16.3629 10.1471C16.2982 9.99087 16.2034 9.84888 16.0838 9.72926C15.9642 9.60965 15.8223 9.51476 15.666 9.45001C15.5098 9.38527 15.3423 9.35193 15.1732 9.3519ZM15.1732 11.4273C15.0174 11.4273 14.8651 11.3811 14.7355 11.2946C14.606 11.2081 14.505 11.085 14.4454 10.9411C14.3858 10.7972 14.3701 10.6388 14.4005 10.486C14.4309 10.3332 14.5059 10.1928 14.6161 10.0826C14.7262 9.97248 14.8666 9.89744 15.0194 9.86704C15.1722 9.83664 15.3306 9.85223 15.4745 9.91185C15.6185 9.97147 15.7415 10.0724 15.828 10.202C15.9146 10.3315 15.9608 10.4838 15.9608 10.6396C15.9605 10.8484 15.8775 11.0486 15.7298 11.1963C15.5822 11.3439 15.382 11.427 15.1732 11.4273ZM8.8269 9.3519C8.57223 9.3519 8.32329 9.42741 8.11153 9.56889C7.89978 9.71037 7.73473 9.91145 7.63726 10.1467C7.53978 10.382 7.51426 10.6409 7.56391 10.8907C7.61357 11.1404 7.73617 11.3699 7.91622 11.55C8.09627 11.7301 8.32567 11.8528 8.57544 11.9025C8.8252 11.9522 9.0841 11.9268 9.3194 11.8294C9.55471 11.732 9.75585 11.567 9.89739 11.3553C10.0389 11.1436 10.1145 10.8947 10.1146 10.64C10.1147 10.4709 10.0814 10.3034 10.0167 10.1471C9.952 9.99082 9.85716 9.84882 9.73758 9.7292C9.618 9.60958 9.47603 9.5147 9.31977 9.44996C9.16352 9.38522 8.99604 9.3519 8.8269 9.3519ZM8.8269 11.4273C8.67111 11.4273 8.51881 11.3811 8.38928 11.2945C8.25974 11.208 8.15878 11.085 8.09916 10.941C8.03954 10.7971 8.02394 10.6387 8.05434 10.4859C8.08473 10.3331 8.15975 10.1928 8.26991 10.0826C8.38007 9.97245 8.52043 9.89743 8.67323 9.86704C8.82603 9.83664 8.98441 9.85224 9.12834 9.91186C9.27227 9.97148 9.3953 10.0724 9.48185 10.202C9.5684 10.3315 9.6146 10.4838 9.6146 10.6396C9.61436 10.8484 9.5313 11.0487 9.38363 11.1963C9.23595 11.344 9.03574 11.4271 8.8269 11.4273ZM15.2423 3H8.7577C6.96545 3 5.2466 3.71197 3.97928 4.97928C2.71197 6.2466 2 7.96545 2 9.7577V13C2 13.7956 2.31607 14.5587 2.87868 15.1213C3.44129 15.6839 4.20435 16 5 16H5.5C5.5 17.5913 6.13214 19.1174 7.25736 20.2426C8.38258 21.3679 9.9087 22 11.5 22H12.5C14.0913 22 15.6174 21.3679 16.7426 20.2426C17.8679 19.1174 18.5 17.5913 18.5 16H19C19.7956 16 20.5587 15.6839 21.1213 15.1213C21.6839 14.5587 22 13.7956 22 13V9.7577C22 7.96545 21.288 6.2466 20.0207 4.97928C18.7534 3.71197 17.0346 3 15.2423 3ZM12.5 21.5H11.5C10.5483 21.4988 9.6132 21.2505 8.78624 20.7794C7.95928 20.3084 7.26878 19.6307 6.7823 18.8127C7.34486 19.3613 8.09437 19.6763 8.8799 19.6943C9.55073 19.6932 10.206 19.4919 10.7618 19.1163C11.3176 18.7407 11.7487 18.2078 12 17.5858C12.2513 18.2078 12.6824 18.7407 13.2382 19.1163C13.794 19.4919 14.4492 19.6931 15.12 19.6943C15.9055 19.6763 16.655 19.3613 17.2176 18.8127C16.7311 19.6307 16.0406 20.3083 15.2137 20.7794C14.3868 21.2504 13.4517 21.4987 12.5 21.5ZM21.5 13C21.4993 13.6628 21.2356 14.2983 20.7669 14.7669C20.2983 15.2356 19.6628 15.4993 19 15.5H18.5V9.5C18.5 9.36739 18.4473 9.24021 18.3536 9.14645C18.2598 9.05268 18.1326 9 18 9V14.5537H17.99V16.1928C17.987 16.281 17.9839 16.3691 17.9767 16.4562C17.9734 16.5262 17.964 16.5949 17.9557 16.6638C17.9429 16.7703 17.9262 16.8757 17.9073 16.9804C17.7508 17.6549 17.355 18.2498 16.7932 18.6547C16.2314 19.0596 15.5419 19.2469 14.8524 19.182C14.163 19.117 13.5206 18.8042 13.0443 18.3016C12.568 17.7989 12.2902 17.1406 12.2624 16.4487H12.2784C12.4757 16.4487 12.6711 16.4098 12.8534 16.3343C13.0358 16.2588 13.2014 16.1481 13.3409 16.0086C13.4805 15.869 13.5911 15.7034 13.6666 15.5211C13.7422 15.3387 13.781 15.1433 13.781 14.946V14.7328H10.2188V14.946C10.2188 15.1433 10.2576 15.3387 10.3331 15.5211C10.4087 15.7034 10.5193 15.869 10.6589 16.0086C10.7984 16.1481 10.964 16.2588 11.1464 16.3343C11.3287 16.4098 11.5241 16.4487 11.7214 16.4487H11.7374C11.7096 17.1406 11.4318 17.7989 10.9555 18.3016C10.4792 18.8042 9.83677 19.117 9.14736 19.182C8.45795 19.2469 7.76839 19.0596 7.20661 18.6547C6.64483 18.2498 6.24898 17.6549 6.0925 16.9804C6.0736 16.8757 6.0569 16.7704 6.0441 16.6638C6.0358 16.5949 6.0264 16.5265 6.0231 16.4562C6.0159 16.3691 6.0131 16.281 6.0098 16.1928V14.5537H6V9C5.86739 9 5.74021 9.05268 5.64645 9.14645C5.55268 9.24021 5.5 9.36739 5.5 9.5V15.5H5C4.33719 15.4993 3.70173 15.2356 3.23305 14.7669C2.76437 14.2983 2.50074 13.6628 2.5 13V9.7577C2.50188 8.09863 3.16177 6.50805 4.33491 5.33491C5.50805 4.16177 7.09863 3.50188 8.7577 3.5H15.2423C16.9014 3.50188 18.4919 4.16177 19.6651 5.33491C20.8382 6.50805 21.4981 8.09863 21.5 9.7577V13ZM11.7214 15.9487C11.5056 15.9484 11.2956 15.8787 11.1226 15.7497C10.9495 15.6208 10.8226 15.4395 10.7606 15.2328H13.2394C13.1774 15.4395 13.0505 15.6208 12.8774 15.7497C12.7044 15.8787 12.4944 15.9484 12.2786 15.9487H11.7214Z" fill="black"/>
</svg>
