<svg width="24" height="24" viewBox="0 0 24 24" fill="none" xmlns="http://www.w3.org/2000/svg">
<path d="M22.6875 14.1079V13.6079H20.705C20.7979 12.7022 20.7467 11.7875 20.5532 10.8979C21.5171 9.67521 22.481 7.53651 21.8076 4.17031L21.7676 3.96921H21.5625C19.6757 3.91412 17.7981 4.25197 16.0488 4.96131C14.7952 4.32105 13.4076 3.98721 12 3.98721C10.5924 3.98721 9.2048 4.32105 7.9512 4.96131C6.20199 4.25181 4.32431 3.91396 2.4375 3.96921H2.2324L2.1924 4.17031C1.5195 7.53561 2.4824 9.67421 3.4468 10.8979C3.25333 11.7875 3.20209 12.7022 3.295 13.6079H1.3125V14.1079H3.3712C3.44779 14.5913 3.56521 15.0674 3.7222 15.531L1.5391 16.1973L1.6846 16.6758L3.8946 16.0013C4.10295 16.5129 4.35943 17.0035 4.6606 17.4666L2.7306 18.5811L2.9806 19.0146L4.9483 17.8782C5.75718 18.9904 6.81768 19.8955 8.04317 20.5195C9.26865 21.1435 10.6244 21.4688 11.9996 21.4688C13.3748 21.4688 14.7305 21.1435 15.956 20.5195C17.1815 19.8955 18.242 18.9904 19.0509 17.8782L21.0186 19.0146L21.2686 18.5811L19.3386 17.4666C19.6398 17.0035 19.8963 16.5129 20.1046 16.0013L22.3146 16.6758L22.4601 16.1973L20.277 15.531C20.434 15.0674 20.5514 14.5913 20.628 14.1079H22.6875ZM8.4083 10.2359C8.60608 10.2359 8.79942 10.2946 8.96387 10.4044C9.12832 10.5143 9.25649 10.6705 9.33218 10.8532C9.40787 11.036 9.42767 11.237 9.38908 11.431C9.3505 11.625 9.25526 11.8032 9.11541 11.943C8.97555 12.0829 8.79737 12.1781 8.60339 12.2167C8.40941 12.2553 8.20834 12.2355 8.02562 12.1598C7.84289 12.0841 7.68671 11.9559 7.57683 11.7915C7.46695 11.627 7.4083 11.4337 7.4083 11.2359C7.4083 10.9707 7.51366 10.7163 7.70119 10.5288C7.88873 10.3413 8.14308 10.2359 8.4083 10.2359ZM14.5783 18.4688C14.0318 18.4709 13.4966 18.3132 13.0385 18.0152C12.5805 17.7171 12.2195 17.2917 12 16.7912C11.814 17.2102 11.5288 17.5776 11.169 17.8616C10.8092 18.1457 10.3856 18.3378 9.93489 18.4214C9.48418 18.5051 9.01987 18.4777 8.58212 18.3416C8.14436 18.2056 7.74632 17.965 7.4224 17.6406L7.7759 17.2871C8.21955 17.7102 8.80908 17.9463 9.42215 17.9463C10.0352 17.9463 10.6248 17.7102 11.0684 17.2871C11.4885 16.8664 11.7303 16.3001 11.7437 15.7057C11.406 15.6943 11.0858 15.5524 10.8506 15.3097C10.6154 15.0671 10.4834 14.7427 10.4824 14.4048V14.2823H13.5176V14.4048C13.5166 14.7427 13.3846 15.0671 13.1494 15.3097C12.9142 15.5524 12.594 15.6943 12.2563 15.7058C12.2697 16.3001 12.5115 16.8665 12.9316 17.2871C13.3752 17.7102 13.9648 17.9463 14.5779 17.9463C15.1909 17.9463 15.7805 17.7102 16.2241 17.2871L16.5776 17.6406C16.3157 17.904 16.004 18.1129 15.6608 18.255C15.3176 18.3972 14.9496 18.4699 14.5781 18.4688H14.5783ZM15.592 12.2359C15.3942 12.2359 15.2009 12.1773 15.0364 12.0674C14.872 11.9575 14.7438 11.8013 14.6681 11.6186C14.5924 11.4359 14.5726 11.2348 14.6112 11.0408C14.6498 10.8468 14.745 10.6687 14.8849 10.5288C15.0247 10.389 15.2029 10.2937 15.3969 10.2551C15.5909 10.2165 15.792 10.2363 15.9747 10.312C16.1574 10.3877 16.3136 10.5159 16.4235 10.6803C16.5334 10.8448 16.592 11.0381 16.592 11.2359C16.592 11.3672 16.5661 11.4973 16.5159 11.6186C16.4656 11.74 16.3919 11.8502 16.299 11.9431C16.2062 12.0359 16.0959 12.1096 15.9745 12.1598C15.8532 12.2101 15.7231 12.2359 15.5918 12.2359H15.592Z" fill="black"/>
</svg>
