<svg width="24" height="24" viewBox="0 0 24 24" fill="none" xmlns="http://www.w3.org/2000/svg">
<g clip-path="url(#clip0)">
<path d="M21.5486 3.1817V1.3999H20.6809L20.2915 3.1755C20.2628 3.33319 20.1797 3.4758 20.0566 3.57846C19.9335 3.68113 19.7783 3.73734 19.618 3.7373H18.508V2.3082H17.64L17.3484 3.7371H14.6614L14.37 2.3082H13.5021V3.7371H12.3782C12.2179 3.73716 12.0627 3.68096 11.9396 3.57829C11.8166 3.47562 11.7334 3.333 11.7047 3.1753L11.3152 1.3999H10.4476V3.1819C10.4476 3.42565 10.4957 3.66701 10.5889 3.89219C10.6822 4.11738 10.819 4.32199 10.9913 4.49433C11.1637 4.66668 11.3683 4.80339 11.5935 4.89665C11.8187 4.98992 12.0601 5.03792 12.3038 5.0379H14.3826L12.8411 9.5832H7.60442C7.07486 9.58321 6.55159 9.69792 6.07059 9.91944C5.58959 10.141 5.16229 10.464 4.81806 10.8665C4.47384 11.2689 4.22087 11.7411 4.07654 12.2506C3.93222 12.7601 3.89997 13.2948 3.98202 13.818L5.26532 21.9999H8.41252V16.5757L9.41922 15.4835L12.8638 16.0815L13.75 21.9999H16.935V15.4388C18.7061 13.4514 18.6468 11.405 17.8165 9.1488H19.52C19.885 9.14885 20.2402 9.03128 20.5331 8.81352C20.826 8.59576 21.0409 8.28941 21.1459 7.9399L21.5486 6.6619L18.8868 5.0379H19.6924C20.1847 5.0379 20.6568 4.84234 21.005 4.49423C21.3531 4.14613 21.5486 3.674 21.5486 3.1817ZM19.8347 7.5651C19.8103 7.62888 19.7671 7.68375 19.7109 7.72251C19.6547 7.76126 19.588 7.78207 19.5197 7.7822H16.0422L16.4975 9.4922C17.2949 11.598 17.2283 13.0728 15.8953 14.5542L15.5687 14.9359V20.6332H14.9276L14.0666 14.8862L8.88092 14.0162L7.04582 16.067V20.6332H6.43432L5.33222 13.6063C5.28075 13.2781 5.30097 12.9427 5.39149 12.6231C5.48202 12.3035 5.6407 12.0073 5.85662 11.7549C6.07254 11.5024 6.34057 11.2998 6.64229 11.1608C6.94401 11.0219 7.27224 10.9499 7.60442 10.9499H13.8506L15.8328 5.1051H16.6594L19.955 7.2599L19.8347 7.5651Z" fill="black"/>
</g>
<defs>
<clipPath id="clip0">
<rect width="24" height="24" fill="white"/>
</clipPath>
</defs>
</svg>
