<svg width="24" height="24" viewBox="0 0 24 24" fill="none" xmlns="http://www.w3.org/2000/svg">
<path d="M22.6875 14.1078V13.1078H20.73C20.7357 12.9778 20.75 12.85 20.75 12.7187C20.7481 12.1064 20.6821 11.496 20.5532 10.8974C21.5171 9.67472 22.481 7.53602 21.8076 4.16982L21.7676 3.96872H21.5625C19.6757 3.91363 17.7981 4.25148 16.0488 4.96082C14.7952 4.32056 13.4076 3.98673 12 3.98673C10.5924 3.98673 9.2048 4.32056 7.9512 4.96082C6.20199 4.25133 4.32431 3.91347 2.4375 3.96872H2.2324L2.1924 4.16982C1.5195 7.53512 2.4824 9.67372 3.4468 10.8974C3.31785 11.496 3.25189 12.1064 3.25 12.7187C3.25 12.85 3.264 12.9779 3.27 13.1078H1.3125V14.1078H3.3712C3.43012 14.4904 3.51454 14.8686 3.6239 15.2399L1.4658 15.8985L1.7578 16.8556L3.9678 16.1812C4.13046 16.5513 4.31871 16.9097 4.5312 17.2536L2.606 18.3651L3.106 19.2304L5.0992 18.0792C5.91396 19.1339 6.95964 19.9879 8.15592 20.5754C9.3522 21.1629 10.6672 21.4684 12 21.4684C13.3328 21.4684 14.6478 21.1629 15.8441 20.5754C17.0404 19.9879 18.086 19.1339 18.9008 18.0792L20.894 19.2304L21.394 18.3651L19.4691 17.2534C19.6816 16.9095 19.8698 16.5511 20.0325 16.181L22.2425 16.8554L22.5345 15.8983L20.3761 15.2399C20.4854 14.8687 20.5699 14.4905 20.6288 14.108L22.6875 14.1078ZM8.4083 10.1358C8.62586 10.1358 8.83853 10.2003 9.01943 10.3212C9.20032 10.4421 9.34131 10.6139 9.42457 10.8149C9.50782 11.0159 9.52961 11.237 9.48716 11.4504C9.44472 11.6638 9.33996 11.8598 9.18612 12.0136C9.03228 12.1675 8.83628 12.2722 8.6229 12.3147C8.40952 12.3571 8.18835 12.3353 7.98735 12.2521C7.78635 12.1688 7.61455 12.0278 7.49368 11.8469C7.37281 11.6661 7.3083 11.4534 7.3083 11.2358C7.3083 10.9441 7.42419 10.6643 7.63048 10.458C7.83677 10.2517 8.11656 10.1358 8.4083 10.1358ZM14.501 18.5399C13.9989 18.5438 13.5043 18.4171 13.0659 18.1723C12.6275 17.9275 12.2602 17.5729 12 17.1434C11.7665 17.5214 11.4504 17.8417 11.0755 18.0801C10.7006 18.3186 10.2766 18.4691 9.83523 18.5203C9.39388 18.5715 8.94665 18.5221 8.5271 18.3759C8.10755 18.2296 7.72656 17.9902 7.4127 17.6757L8.0494 17.039C8.43997 17.4121 8.95929 17.6202 9.4994 17.6202C10.0395 17.6202 10.5588 17.4121 10.9494 17.039C11.311 16.6772 11.5224 16.1919 11.5412 15.6807C11.2266 15.6425 10.9368 15.491 10.7258 15.2546C10.5148 15.0181 10.3971 14.713 10.3947 14.3961V14.1881H13.6057V14.3961C13.6033 14.713 13.4856 15.0181 13.2746 15.2546C13.0636 15.491 12.7738 15.6425 12.4592 15.6807C12.478 16.1918 12.6892 16.677 13.0505 17.039C13.4412 17.4119 13.9604 17.62 14.5005 17.62C15.0406 17.62 15.5598 17.4119 15.9505 17.039L16.5872 17.6757C16.3138 17.9505 15.9887 18.1684 15.6306 18.3167C15.2725 18.465 14.8886 18.5409 14.501 18.5399ZM15.5918 12.3358C15.3742 12.3358 15.1616 12.2713 14.9807 12.1504C14.7998 12.0296 14.6588 11.8578 14.5755 11.6568C14.4923 11.4558 14.4705 11.2346 14.5129 11.0212C14.5554 10.8078 14.6601 10.6118 14.814 10.458C14.9678 10.3042 15.1638 10.1994 15.3772 10.157C15.5906 10.1145 15.8118 10.1363 16.0128 10.2196C16.2138 10.3028 16.3855 10.4438 16.5064 10.6247C16.6273 10.8056 16.6918 11.0183 16.6918 11.2358C16.6918 11.3803 16.6633 11.5233 16.6081 11.6568C16.5528 11.7902 16.4718 11.9115 16.3696 12.0136C16.2675 12.1158 16.1462 12.1968 16.0128 12.2521C15.8793 12.3074 15.7363 12.3358 15.5918 12.3358Z" fill="black"/>
</svg>
