<svg width="24" height="24" viewBox="0 0 24 24" fill="none" xmlns="http://www.w3.org/2000/svg">
<path d="M18.75 6.13909C18.7511 6.09909 18.7618 6.06219 18.7618 6.02219C18.7661 5.223 18.5415 4.43927 18.1146 3.76362C17.6877 3.08797 17.0763 2.54863 16.3527 2.20934C15.6291 1.87004 14.8235 1.74497 14.0311 1.84889C13.2387 1.95281 12.4925 2.28139 11.8809 2.7958C11.0882 2.13307 10.107 1.73672 9.0764 1.66295C8.04581 1.58918 7.01815 1.84174 6.13915 2.3848C5.26016 2.92787 4.57444 3.73388 4.17924 4.68854C3.78404 5.6432 3.69942 6.69804 3.93738 7.7035C3.04894 8.71868 2.54531 10.0137 2.51445 11.3624C2.48358 12.7111 2.92743 14.0278 3.7685 15.0825C4.60957 16.1373 5.79441 16.8631 7.11614 17.1333C8.43786 17.4034 9.81248 17.2007 11 16.5606V21.9998H13V16.8147C13.7049 17.0979 14.457 17.2455 15.2167 17.2498C16.5155 17.2506 17.7808 16.838 18.8294 16.0717C19.8779 15.3053 20.6553 14.225 21.0489 12.9873C21.4425 11.7496 21.4319 10.4188 21.0186 9.18753C20.6052 7.95628 19.8107 6.88859 18.75 6.13909ZM15.2167 15.3498C14.3469 15.3504 13.4984 15.0801 12.7893 14.5764L11.6713 13.7864L10.5683 14.5964C9.90803 15.0855 9.10804 15.3493 8.28638 15.349C7.54477 15.3499 6.81857 15.1373 6.1946 14.7365C5.57064 14.3356 5.0753 13.7636 4.76781 13.0888C4.46032 12.4139 4.35368 11.6648 4.46064 10.9309C4.5676 10.197 4.88364 9.50951 5.37098 8.95049L6.00418 8.2225L5.78998 7.2818C5.68169 6.83531 5.67683 6.36998 5.77574 5.92133C5.87466 5.47267 6.07475 5.05254 6.36075 4.69298C6.64674 4.33342 7.01109 4.04393 7.42599 3.84661C7.84089 3.64929 8.29537 3.54934 8.75478 3.5544C9.45786 3.55979 10.137 3.8106 10.6748 4.2635L11.8866 5.2596L13.0941 4.2583C13.5016 3.91129 14.0181 3.71853 14.5534 3.7137C15.1505 3.71447 15.7242 3.94634 16.1542 4.3607C16.5842 4.77507 16.8371 5.33978 16.86 5.93649C16.8552 5.9865 16.8519 6.03589 16.8505 6.08649L16.8225 7.1014L17.6507 7.6888C18.3825 8.20511 18.931 8.94108 19.2164 9.79003C19.5019 10.639 19.5096 11.5568 19.2384 12.4104C18.9672 13.264 18.4312 14.0091 17.7081 14.5376C16.985 15.0661 16.1123 15.3506 15.2167 15.3498Z" fill="black"/>
</svg>
