<svg width="24" height="24" viewBox="0 0 24 24" fill="none" xmlns="http://www.w3.org/2000/svg">
<path d="M15.3537 5.00062C14.2697 4.98245 13.199 5.24008 12.242 5.74932C12.3004 5.10786 12.4473 4.47757 12.6784 3.87632C12.9719 3.166 13.3717 2.50444 13.8641 1.91432L13.3068 1.49072C12.8185 2.16289 12.4352 2.90533 12.17 3.69262C11.9569 4.36192 11.8391 5.05788 11.82 5.76002C10.858 5.24356 9.77969 4.98212 8.68797 5.00062C7.78199 4.99339 6.88416 5.17206 6.04998 5.52559C5.21581 5.87912 4.46301 6.4 3.83813 7.05602C3.21325 7.71205 2.72957 8.48927 2.417 9.33965C2.10443 10.19 1.96961 11.0955 2.02087 12C2.02087 16.4485 4.80017 22.0109 9.20867 22.0109C9.78236 22.0079 10.3524 21.9194 10.9 21.7482C11.2597 21.6134 11.6372 21.5317 12.0206 21.5059C12.4039 21.5318 12.7813 21.6134 13.1411 21.7482C13.6888 21.9193 14.2589 22.0079 14.8327 22.0109C19.2417 22.0109 22.0206 16.4488 22.0206 12C22.0718 11.0955 21.937 10.1901 21.6244 9.33971C21.3118 8.48935 20.8282 7.71215 20.2033 7.05613C19.5785 6.40011 18.8257 5.87923 17.9916 5.52568C17.1574 5.17213 16.2596 4.99343 15.3537 5.00062ZM14.833 21.5106C14.3087 21.5072 13.7878 21.426 13.2874 21.2697L13.1734 21.2346C12.8029 21.1007 12.4144 21.0235 12.0209 21.0056C11.6273 21.0235 11.2387 21.1007 10.8683 21.2346L10.7543 21.2697C10.2538 21.426 9.73295 21.5072 9.20867 21.5106C6.04547 21.5106 2.52087 17.6046 2.52087 11.9997C2.52087 8.23372 5.11447 5.50032 8.68797 5.50032C9.76842 5.47686 10.8346 5.75044 11.7703 6.29122L12.0209 6.43632L12.2715 6.29122C13.2071 5.75043 14.2732 5.47686 15.3537 5.50032C18.9272 5.50032 21.5209 8.23372 21.5209 11.9997C21.5209 17.6049 17.9963 21.5109 14.833 21.5109V21.5106Z" fill="black"/>
</svg>
