<svg width="24" height="24" viewBox="0 0 24 24" fill="none" xmlns="http://www.w3.org/2000/svg">
<path d="M12 8.83127C11.4146 8.83127 10.8423 9.00487 10.3555 9.33012C9.86875 9.65536 9.48936 10.1177 9.26532 10.6585C9.04129 11.1994 8.98267 11.7945 9.09688 12.3687C9.21109 12.9429 9.49301 13.4703 9.90697 13.8843C10.3209 14.2983 10.8484 14.5802 11.4225 14.6944C11.9967 14.8086 12.5919 14.75 13.1327 14.5259C13.6736 14.3019 14.1359 13.9225 14.4612 13.4358C14.7864 12.949 14.96 12.3767 14.96 11.7913C14.9601 11.4025 14.8836 11.0176 14.7348 10.6584C14.5861 10.2993 14.3681 9.97296 14.0932 9.69808C13.8183 9.42321 13.492 9.20518 13.1328 9.05645C12.7737 8.90772 12.3887 8.8312 12 8.83127ZM12 13.0004C11.7607 13.0004 11.5267 12.9294 11.3278 12.7964C11.1288 12.6635 10.9737 12.4745 10.8821 12.2534C10.7905 12.0323 10.7666 11.789 10.8133 11.5543C10.8599 11.3196 10.9752 11.104 11.1444 10.9348C11.3136 10.7655 11.5292 10.6503 11.7639 10.6036C11.9987 10.5569 12.242 10.5809 12.4631 10.6725C12.6842 10.7641 12.8731 10.9191 13.0061 11.1181C13.139 11.3171 13.21 11.5511 13.21 11.7904C13.2098 12.1112 13.0822 12.4188 12.8553 12.6457C12.6285 12.8726 12.3208 13.0001 12 13.0004ZM22.0307 11.4233C21.7773 11.1198 21.4604 10.8757 21.1024 10.708C20.7444 10.5403 20.3539 10.4531 19.9586 10.4526C19.6047 10.4527 19.2544 10.5241 18.9286 10.6626C18.883 10.3852 18.8207 10.1108 18.742 9.84087C19.226 9.81534 19.6943 9.6603 20.0979 9.39193C20.5015 9.12356 20.8256 8.75172 21.0364 8.31527C21.2471 7.87881 21.3368 7.39376 21.296 6.9108C21.2552 6.42784 21.0855 5.96469 20.8045 5.56977C20.689 5.40667 20.5704 5.24737 20.4445 5.08977C20.3281 4.94187 20.1996 4.78917 20.0678 4.63977C19.748 4.27552 19.3361 4.00406 18.8753 3.85384C18.4145 3.70363 17.9217 3.68021 17.4487 3.78603C16.9757 3.89186 16.5399 4.12303 16.187 4.4553C15.8341 4.78757 15.5772 5.20868 15.4431 5.67447C15.1898 5.53223 14.928 5.40573 14.6591 5.29567C14.9193 4.93692 15.0855 4.5188 15.1428 4.07938C15.2 3.63995 15.1464 3.19319 14.9869 2.77977C14.8009 2.28701 14.4756 1.85895 14.0507 1.54767C13.6258 1.2364 13.1196 1.05532 12.5937 1.02647C12.3961 1.01533 12.1982 1.00977 12 1.00977C11.8015 1.00977 11.6039 1.01517 11.4084 1.02567C10.8813 1.05399 10.3739 1.23522 9.94817 1.54723C9.52242 1.85923 9.19677 2.2885 9.01101 2.78257C8.85381 3.19622 8.80202 3.64249 8.86029 4.08116C8.91856 4.51982 9.08507 4.93709 9.34481 5.29537C9.08363 5.40219 8.82907 5.52454 8.58251 5.66177C8.44914 5.19587 8.19308 4.77434 7.84109 4.44124C7.48911 4.10814 7.05412 3.8757 6.58158 3.76819C6.10905 3.66069 5.61631 3.68207 5.15486 3.83012C4.69342 3.97816 4.28021 4.24742 3.95841 4.60977C3.82651 4.75787 3.69961 4.90827 3.57571 5.06317C3.45064 5.2197 3.33087 5.37833 3.21641 5.53907C2.93409 5.93297 2.76276 6.39549 2.72034 6.87826C2.67792 7.36103 2.76595 7.84634 2.97525 8.28345C3.18454 8.72055 3.50741 9.09342 3.91011 9.36306C4.3128 9.6327 4.78053 9.78923 5.26441 9.81627C5.18495 10.0855 5.1218 10.3594 5.07531 10.6363C4.74699 10.4974 4.39418 10.4258 4.03771 10.4256C3.6429 10.4262 3.25301 10.5131 2.8953 10.6802C2.5376 10.8473 2.22071 11.0905 1.96683 11.3928C1.71294 11.6952 1.52818 12.0493 1.42547 12.4305C1.32276 12.8118 1.30458 13.2108 1.37221 13.5998C1.40411 13.7885 1.44271 13.9831 1.48631 14.1768C1.53121 14.3735 1.57991 14.5627 1.63321 14.751C1.7635 15.2188 2.01756 15.6428 2.36861 15.9783C2.71966 16.3139 3.15472 16.5486 3.62794 16.6576C4.10116 16.7666 4.59504 16.746 5.05753 16.598C5.52003 16.4499 5.93402 16.1798 6.25591 15.8162C6.41821 16.0474 6.59416 16.2688 6.78281 16.4791C6.39147 16.6885 6.05885 16.9927 5.81534 17.3638C5.57183 17.7349 5.42519 18.1611 5.38881 18.6035C5.34174 19.1282 5.44825 19.6554 5.69538 20.1207C5.9425 20.586 6.31958 20.9694 6.78071 21.2243C6.95071 21.3191 7.12881 21.4113 7.31211 21.4993C7.48681 21.5835 7.66441 21.6636 7.84211 21.7388C8.1777 21.8801 8.53798 21.9534 8.90211 21.9546C9.33748 21.9535 9.76622 21.8478 10.1522 21.6464C10.5382 21.445 10.8701 21.1538 11.12 20.7973C11.3223 20.5098 11.4656 20.1852 11.5419 19.8422C11.6182 19.4991 11.6258 19.1443 11.5643 18.7983C11.7094 18.8075 11.8547 18.8121 12.0003 18.8121C12.1363 18.8121 12.2721 18.8081 12.4076 18.8001C12.3448 19.1468 12.3519 19.5026 12.4285 19.8466C12.505 20.1906 12.6495 20.5158 12.8534 20.8032C13.2064 21.3121 13.7237 21.6842 14.3184 21.8572C14.9132 22.0301 15.5493 21.9934 16.1202 21.7532C16.2964 21.6801 16.475 21.6007 16.6526 21.5164C16.8367 21.4284 17.0153 21.337 17.1882 21.242C17.6499 20.9888 18.028 20.607 18.2767 20.1429C18.5254 19.6788 18.6338 19.1525 18.5889 18.6279C18.5524 18.1856 18.4062 17.7594 18.1635 17.3879C17.9208 17.0164 17.5893 16.7113 17.1989 16.5002C17.3885 16.2907 17.5655 16.07 17.7289 15.8395C17.9803 16.1275 18.2907 16.3582 18.639 16.5158C18.9874 16.6734 19.3656 16.7542 19.7479 16.7529C20.3376 16.7562 20.9122 16.566 21.3834 16.2115C21.8547 15.8569 22.1967 15.3576 22.3569 14.7901C22.412 14.5992 22.4628 14.4054 22.5077 14.2065C22.5495 14.0282 22.5877 13.833 22.6223 13.6397C22.6919 13.2494 22.6749 12.8487 22.5727 12.4658C22.4705 12.0828 22.2855 11.7269 22.0307 11.4233ZM20.7018 13.7991C20.6651 13.9617 20.6234 14.1202 20.5784 14.2762C20.5272 14.4571 20.4182 14.6163 20.268 14.7294C20.1178 14.8425 19.9347 14.9033 19.7467 14.9026C19.6016 14.9036 19.4588 14.8665 19.3326 14.7949C19.2064 14.7233 19.1012 14.6197 19.0277 14.4947C18.8776 14.2397 18.6772 14.018 18.4386 13.843C18.2 13.6681 17.9283 13.5435 17.64 13.477L16.9419 13.3152L16.8651 13.5296C16.4743 14.6155 15.7333 15.5405 14.7589 16.1589L14.5663 16.2806L14.8757 16.9271C15.0018 17.1887 15.1787 17.4226 15.3961 17.6152C15.6135 17.8078 15.867 17.9553 16.1419 18.049C16.3055 18.0961 16.4509 18.1919 16.5587 18.3236C16.6666 18.4553 16.7319 18.6167 16.7459 18.7864C16.7613 18.9541 16.7269 19.1226 16.6471 19.271C16.5673 19.4193 16.4455 19.5409 16.2971 19.6205C16.1545 19.699 16.0077 19.774 15.8592 19.845C15.7107 19.916 15.5592 19.9826 15.4092 20.045C15.3026 20.0902 15.1881 20.1137 15.0723 20.1143C14.9337 20.1133 14.7975 20.0789 14.675 20.014C14.5526 19.949 14.4477 19.8555 14.3691 19.7414C14.2904 19.6308 14.2403 19.5024 14.2234 19.3678C14.2065 19.2331 14.2233 19.0963 14.2723 18.9698C14.3778 18.6933 14.426 18.3983 14.414 18.1026C14.4019 17.8069 14.3299 17.5168 14.2023 17.2498L13.8928 16.605L13.6768 16.6784C12.5859 17.0585 11.3981 17.0564 10.3085 16.6726L10.0929 16.5975L9.78091 17.2423C9.65532 17.5039 9.58291 17.7878 9.56787 18.0776C9.55284 18.3674 9.59547 18.6574 9.69331 18.9306C9.74759 19.0608 9.76818 19.2025 9.75316 19.3428C9.73815 19.483 9.68802 19.6172 9.60741 19.733C9.52839 19.8467 9.42319 19.9398 9.30068 20.0045C9.17816 20.0691 9.04191 20.1033 8.90341 20.1043C8.78658 20.1034 8.67106 20.0796 8.56341 20.0343C8.41321 19.9709 8.26361 19.9033 8.11461 19.8316C7.96561 19.7598 7.82004 19.6845 7.67791 19.6055C7.52982 19.5255 7.40859 19.4036 7.32937 19.2551C7.25015 19.1067 7.21646 18.9381 7.23251 18.7706C7.24489 18.606 7.30629 18.4489 7.4088 18.3195C7.5113 18.1901 7.65021 18.0944 7.80761 18.0448C8.08948 17.9549 8.3501 17.8085 8.5736 17.6146C8.79709 17.4208 8.97878 17.1834 9.10761 16.9171L9.41911 16.2723L9.22611 16.1498C8.25429 15.5279 7.51673 14.6006 7.12941 13.5138L7.05351 13.2986L6.35451 13.457C6.07163 13.522 5.80448 13.6426 5.56857 13.8118C5.33266 13.9809 5.13267 14.1952 4.98021 14.4422C4.90757 14.5733 4.80126 14.6828 4.67223 14.7592C4.54321 14.8355 4.39615 14.8761 4.24621 14.8768C4.05755 14.8774 3.87389 14.8161 3.72343 14.7023C3.57297 14.5885 3.46402 14.4285 3.41331 14.2468C3.36871 14.0891 3.32781 13.9306 3.29111 13.7696C3.25441 13.6086 3.22271 13.4468 3.19561 13.2866C3.17279 13.1633 3.1776 13.0366 3.2097 12.9154C3.24179 12.7943 3.30037 12.6817 3.38121 12.586C3.46196 12.4902 3.56239 12.4129 3.67567 12.3594C3.78896 12.3059 3.91244 12.2775 4.03771 12.276C4.20097 12.2765 4.36049 12.325 4.49651 12.4153C4.74246 12.5798 5.01944 12.6924 5.31046 12.7462C5.60148 12.7999 5.90041 12.7936 6.18891 12.7277L6.88341 12.57L6.85961 12.344C6.83991 12.1603 6.82989 11.9756 6.82961 11.7909C6.83026 10.8248 7.10267 9.87837 7.61571 9.05977L7.73671 8.86577L7.17571 8.41827C6.78939 8.11063 6.31035 7.94276 5.81651 7.94197C5.72672 7.94211 5.63702 7.94769 5.54791 7.95867C5.49891 7.96564 5.4495 7.96935 5.40001 7.96977C5.2455 7.97028 5.09395 7.92745 4.96257 7.84614C4.83119 7.76482 4.72526 7.64828 4.65681 7.50977C4.58292 7.3687 4.55005 7.20975 4.56193 7.05096C4.57381 6.89216 4.62996 6.73987 4.72401 6.61137C4.81861 6.47803 4.91744 6.3471 5.02051 6.21857C5.12357 6.09003 5.22951 5.96447 5.33831 5.84187C5.4478 5.71687 5.59137 5.62651 5.75142 5.58185C5.91148 5.53718 6.08108 5.54015 6.23948 5.59038C6.39788 5.64062 6.53819 5.73594 6.64325 5.86469C6.74831 5.99343 6.81356 6.15001 6.83101 6.31527C6.85601 6.61014 6.94087 6.89682 7.08042 7.15779C7.21996 7.41876 7.41125 7.64853 7.64261 7.83307L8.19981 8.27807L8.36171 8.11807C9.18348 7.30655 10.2526 6.79253 11.3996 6.65747L11.6261 6.63117V5.91677C11.6254 5.62642 11.567 5.3391 11.4543 5.07152C11.3416 4.80393 11.1769 4.56142 10.9696 4.35807C10.8424 4.24486 10.7526 4.09563 10.7122 3.9302C10.6719 3.76476 10.6828 3.59095 10.7435 3.43187C10.802 3.27393 10.9056 3.13672 11.0416 3.03739C11.1776 2.93805 11.3399 2.881 11.5081 2.87337C11.6706 2.8643 11.8345 2.85977 12 2.85977C12.1655 2.85977 12.3295 2.86423 12.4921 2.87317C12.66 2.88084 12.822 2.93782 12.9578 3.03699C13.0935 3.13615 13.197 3.27311 13.2554 3.43077C13.3161 3.58439 13.3292 3.75267 13.2932 3.91386C13.2572 4.07504 13.1737 4.22173 13.0535 4.33497C12.8388 4.53867 12.6679 4.78396 12.5511 5.05587C12.4343 5.32778 12.3741 5.62063 12.3741 5.91657V6.63137L12.6006 6.65767C13.754 6.79279 14.8286 7.31143 15.6519 8.13037L15.8137 8.29137L16.3718 7.84847C16.5988 7.66754 16.7875 7.44334 16.9271 7.18889C17.0667 6.93443 17.1544 6.65478 17.1851 6.36617C17.1969 6.19759 17.2585 6.0363 17.362 5.90273C17.4655 5.76915 17.6064 5.66928 17.7667 5.61575C17.9269 5.56222 18.0995 5.55744 18.2625 5.60202C18.4255 5.64659 18.5717 5.73852 18.6824 5.86617C18.7908 5.98877 18.8967 6.11437 18.9985 6.24357C19.1019 6.37357 19.1995 6.50467 19.2938 6.63777C19.3871 6.76608 19.4427 6.91794 19.4542 7.07618C19.4657 7.23443 19.4326 7.39272 19.3588 7.53317C19.2901 7.67166 19.184 7.78815 19.0525 7.86945C18.921 7.95074 18.7694 7.9936 18.6148 7.99317C18.5758 7.99313 18.5367 7.99063 18.498 7.98567C18.3949 7.97121 18.291 7.96383 18.1869 7.96357C17.6964 7.96471 17.2205 8.13065 16.8356 8.43477L16.2733 8.88067L16.3933 9.07497C16.9005 9.89001 17.1698 10.8306 17.1708 11.7906C17.1697 11.9813 17.1588 12.1719 17.1383 12.3616L17.114 12.5872L17.8081 12.7478C17.9688 12.7846 18.1332 12.8032 18.2981 12.8033C18.7151 12.8037 19.1234 12.6841 19.4742 12.4588C19.6482 12.3346 19.863 12.2815 20.0748 12.3101C20.2866 12.3388 20.4795 12.4471 20.6142 12.6131C20.6953 12.7093 20.754 12.8223 20.786 12.944C20.818 13.0657 20.8226 13.193 20.7993 13.3167C20.7711 13.477 20.7394 13.6389 20.7018 13.7991Z" fill="black"/>
</svg>
