<svg width="24" height="24" viewBox="0 0 24 24" fill="none" xmlns="http://www.w3.org/2000/svg">
<path d="M12 9.1913C11.4314 9.1913 10.8755 9.35992 10.4027 9.67583C9.92996 9.99173 9.56146 10.4407 9.34386 10.9661C9.12626 11.4914 9.06932 12.0695 9.18025 12.6272C9.29119 13.1849 9.565 13.6972 9.96708 14.0992C10.3692 14.5013 10.8814 14.7751 11.4391 14.8861C11.9968 14.997 12.5749 14.9401 13.1002 14.7225C13.6256 14.5049 14.0746 14.1364 14.3905 13.6636C14.7064 13.1908 14.875 12.6349 14.875 12.0663C14.875 11.3038 14.5721 10.5725 14.0329 10.0334C13.4938 9.4942 12.7625 9.1913 12 9.1913ZM12 13.5351C11.7095 13.5351 11.4256 13.4489 11.1841 13.2875C10.9426 13.1261 10.7543 12.8967 10.6432 12.6284C10.532 12.36 10.503 12.0647 10.5596 11.7798C10.6163 11.4949 10.7562 11.2332 10.9616 11.0278C11.167 10.8224 11.4287 10.6826 11.7136 10.6259C11.9985 10.5693 12.2938 10.5983 12.5622 10.7095C12.8305 10.8207 13.0599 11.0089 13.2213 11.2504C13.3827 11.492 13.4688 11.7759 13.4688 12.0664C13.4685 12.4558 13.3136 12.8292 13.0382 13.1046C12.7628 13.3799 12.3894 13.5348 12 13.5351ZM19.7207 12.1274L19.5 12L19.7207 11.8727C20.1472 11.6265 20.521 11.2987 20.8208 10.908C21.1206 10.5173 21.3405 10.0714 21.4679 9.59567C21.5954 9.12 21.6279 8.62387 21.5636 8.13563C21.4994 7.64738 21.3395 7.17658 21.0933 6.7501C20.8471 6.32362 20.5193 5.94981 20.1286 5.65002C19.7379 5.35023 19.292 5.13033 18.8163 5.00287C18.3406 4.87542 17.8445 4.8429 17.3562 4.90718C16.868 4.97146 16.3972 5.13127 15.9707 5.3775L15.75 5.5049V5.25C15.75 4.25544 15.3549 3.30161 14.6517 2.59835C13.9484 1.89509 12.9946 1.5 12 1.5C11.0054 1.5 10.0516 1.89509 9.34836 2.59835C8.6451 3.30161 8.25001 4.25544 8.25001 5.25V5.5048L8.02931 5.3774C7.16799 4.88012 6.14441 4.74536 5.18374 5.00277C4.22306 5.26019 3.40399 5.88868 2.90671 6.75C2.40943 7.61132 2.27467 8.6349 2.53209 9.59557C2.7895 10.5562 3.41799 11.3753 4.27931 11.8726L4.50001 12L4.27931 12.1275C3.85283 12.3737 3.47902 12.7015 3.17923 13.0922C2.87944 13.4829 2.65954 13.9288 2.53209 14.4045C2.40463 14.8802 2.37211 15.3763 2.43639 15.8646C2.50067 16.3528 2.66048 16.8236 2.90671 17.2501C3.15294 17.6766 3.48076 18.0504 3.87145 18.3502C4.26214 18.65 4.70806 18.8699 5.18374 18.9973C5.65941 19.1248 6.15554 19.1573 6.64378 19.093C7.13203 19.0287 7.60283 18.8689 8.02931 18.6227L8.25001 18.4953V18.75C8.25001 19.7446 8.6451 20.6984 9.34836 21.4017C10.0516 22.1049 11.0054 22.5 12 22.5C12.9946 22.5 13.9484 22.1049 14.6517 21.4017C15.3549 20.6984 15.75 19.7446 15.75 18.75V18.4951L15.9707 18.6226C16.832 19.1199 17.8556 19.2546 18.8163 18.9972C19.777 18.7398 20.596 18.1113 21.0933 17.25C21.5906 16.3887 21.7253 15.3651 21.4679 14.4044C21.2105 13.4438 20.582 12.6247 19.7207 12.1274ZM19.7944 16.5C19.6469 16.7561 19.4503 16.9806 19.2159 17.1606C18.9815 17.3407 18.7139 17.4727 18.4284 17.5493C18.1429 17.6258 17.8452 17.6454 17.5522 17.6067C17.2591 17.5681 16.9766 17.4721 16.7207 17.3242L14.25 15.8916V18.75C14.25 19.3467 14.013 19.919 13.591 20.341C13.169 20.7629 12.5967 21 12 21C11.4033 21 10.831 20.7629 10.409 20.341C9.98706 19.919 9.75001 19.3467 9.75001 18.75V15.8916L7.27691 17.3252C6.75982 17.6232 6.14554 17.7035 5.56921 17.5485C4.99289 17.3936 4.50172 17.016 4.20376 16.4989C3.9058 15.9819 3.82546 15.3676 3.98042 14.7913C4.13537 14.2149 4.51292 13.7238 5.03001 13.4258L7.50831 12L5.02731 10.5732C4.51048 10.2746 4.13346 9.78286 3.97917 9.20624C3.82488 8.62962 3.90598 8.01533 4.20461 7.4985C4.50324 6.98167 4.99496 6.60465 5.57157 6.45036C6.14819 6.29607 6.76248 6.37717 7.27931 6.6758L9.75001 8.1084V5.25C9.75001 4.65326 9.98706 4.08097 10.409 3.65901C10.831 3.23705 11.4033 3 12 3C12.5967 3 13.169 3.23705 13.591 3.65901C14.013 4.08097 14.25 4.65326 14.25 5.25V8.1084L16.7231 6.6748C17.2402 6.37684 17.8545 6.2965 18.4308 6.45145C19.0071 6.60641 19.4983 6.98396 19.7963 7.50105C20.0942 8.01814 20.1746 8.63242 20.0196 9.20875C19.8647 9.78507 19.4871 10.2762 18.97 10.5742L16.4917 12L18.9727 13.4268C19.4884 13.7262 19.8644 14.2177 20.0184 14.7937C20.1724 15.3697 20.0919 15.9832 19.7944 16.5Z" fill="black"/>
</svg>
