<svg width="24" height="24" viewBox="0 0 24 24" fill="none" xmlns="http://www.w3.org/2000/svg">
<path d="M19.8122 12.4689L19 12L19.8122 11.5312C20.6161 11.0671 21.2027 10.3026 21.443 9.40597C21.6832 8.50934 21.5575 7.554 21.0933 6.7501C20.6292 5.9462 19.8647 5.3596 18.9681 5.11935C18.0715 4.8791 17.1161 5.00487 16.3122 5.469L15.5 5.9378V5C15.5 4.07174 15.1313 3.1815 14.4749 2.52513C13.8185 1.86875 12.9283 1.5 12 1.5C11.0718 1.5 10.1815 1.86875 9.52515 2.52513C8.86877 3.1815 8.50002 4.07174 8.50002 5V5.9378L7.68782 5.4689C6.88393 5.00477 5.92858 4.879 5.03195 5.11925C4.13532 5.3595 3.37085 5.9461 2.90672 6.75C2.44259 7.5539 2.31682 8.50924 2.55708 9.40587C2.79733 10.3025 3.38393 11.067 4.18782 11.5311L5.00002 12L4.18782 12.469C3.38393 12.9331 2.79733 13.6976 2.55708 14.5942C2.31682 15.4909 2.44259 16.4462 2.90672 17.2501C3.37085 18.054 4.13532 18.6406 5.03195 18.8808C5.92858 19.1211 6.88393 18.9953 7.68782 18.5312L8.50002 18.0622V19C8.50002 19.9283 8.86877 20.8185 9.52515 21.4749C10.1815 22.1313 11.0718 22.5 12 22.5C12.9283 22.5 13.8185 22.1313 14.4749 21.4749C15.1313 20.8185 15.5 19.9283 15.5 19V18.0621L16.3122 18.5311C16.7103 18.7609 17.1497 18.9101 17.6054 18.9701C18.0611 19.0301 18.5241 18.9997 18.9681 18.8807C19.4121 18.7618 19.8283 18.5565 20.1929 18.2767C20.5575 17.9969 20.8635 17.6481 21.0933 17.25C21.3231 16.852 21.4723 16.4125 21.5323 15.9568C21.5923 15.5011 21.5619 15.0381 21.443 14.5941C21.324 14.1502 21.1188 13.734 20.839 13.3693C20.5592 13.0047 20.2103 12.6987 19.8122 12.4689ZM20.2272 16.75C20.0632 17.0345 19.8447 17.2838 19.5843 17.4838C19.3239 17.6837 19.0266 17.8304 18.7094 17.9154C18.3922 18.0004 18.0614 18.022 17.7359 17.979C17.4104 17.9361 17.0965 17.8294 16.8122 17.665L16 17.1961L14.5 16.33V19C14.5 19.663 14.2366 20.2989 13.7678 20.7678C13.299 21.2366 12.6631 21.5 12 21.5C11.337 21.5 10.7011 21.2366 10.2323 20.7678C9.76342 20.2989 9.50002 19.663 9.50002 19V16.33L8.00002 17.1961L7.18782 17.665C6.61393 17.9913 5.93427 18.0773 5.29716 17.9044C4.66006 17.7314 4.11723 17.3135 3.78714 16.7417C3.45705 16.17 3.36649 15.4909 3.53523 14.8527C3.70397 14.2145 4.11831 13.6689 4.68782 13.335L5.50002 12.866L7.00002 12L5.50002 11.134L4.68792 10.6651C4.11374 10.3336 3.69477 9.78753 3.52318 9.1471C3.35158 8.50666 3.44142 7.8243 3.77292 7.2501C3.93692 6.96563 4.15538 6.71628 4.41582 6.5163C4.67626 6.31632 4.97356 6.16964 5.29073 6.08465C5.6079 5.99966 5.93871 5.97803 6.26425 6.02099C6.58978 6.06394 6.90366 6.17065 7.18792 6.335L8.00002 6.8038L9.50002 7.67V5C9.50002 4.33696 9.76342 3.70107 10.2323 3.23223C10.7011 2.76339 11.337 2.5 12 2.5C12.6631 2.5 13.299 2.76339 13.7678 3.23223C14.2366 3.70107 14.5 4.33696 14.5 5V7.67L16 6.8038L16.8122 6.3349C17.3861 6.00861 18.0658 5.92256 18.7029 6.09553C19.34 6.2685 19.8828 6.68645 20.2129 7.25816C20.543 7.82988 20.6336 8.50896 20.4648 9.1472C20.2961 9.78543 19.8817 10.331 19.3122 10.6649L18.5 11.1338L17 12L18.5 12.8661L19.3122 13.3349C19.8858 13.667 20.3043 14.213 20.4758 14.8533C20.6474 15.4935 20.558 16.1756 20.2272 16.75ZM12 8.7739C11.3554 8.77388 10.7252 8.96502 10.1892 9.32315C9.65321 9.68128 9.23544 10.1903 8.98874 10.7859C8.74204 11.3814 8.67749 12.0368 8.80325 12.669C8.929 13.3013 9.23942 13.882 9.69525 14.3379C10.1511 14.7937 10.7318 15.1041 11.3641 15.2299C11.9963 15.3556 12.6517 15.2911 13.2473 15.0444C13.8428 14.7977 14.3518 14.3799 14.71 13.8439C15.0681 13.3079 15.2592 12.6777 15.2592 12.0331C15.2592 11.1687 14.9158 10.3397 14.3046 9.72853C13.6934 9.11731 12.8644 8.77393 12 8.7739ZM12 14.359C11.54 14.359 11.0903 14.2226 10.7078 13.967C10.3253 13.7114 10.0272 13.3482 9.85117 12.9232C9.67513 12.4982 9.62907 12.0305 9.71882 11.5793C9.80856 11.1282 10.0301 10.7137 10.3554 10.3884C10.6806 10.0632 11.0951 9.84164 11.5463 9.75189C11.9974 9.66215 12.4651 9.70821 12.8901 9.88425C13.3151 10.0603 13.6784 10.3584 13.9339 10.7409C14.1895 11.1234 14.3259 11.5731 14.3259 12.0331C14.3252 12.6498 14.08 13.241 13.6439 13.677C13.2079 14.113 12.6167 14.3583 12 14.359Z" fill="black"/>
</svg>
