<svg width="24" height="24" viewBox="0 0 24 24" fill="none" xmlns="http://www.w3.org/2000/svg">
<path d="M18 12.4667H22V11.5331H18V8.36713H18.3335C18.9875 8.36621 19.6144 8.10595 20.0768 7.64344C20.5392 7.18093 20.7993 6.55393 20.8 5.89993V3.89993H19.8664V5.89993C19.866 6.30645 19.7044 6.69621 19.4169 6.98366C19.1295 7.27111 18.7397 7.43276 18.3332 7.43313H18V7.43123H16.1814V6.70923C16.1814 5.60026 15.7409 4.5367 14.9567 3.75254C14.1725 2.96837 13.109 2.52783 12 2.52783C10.891 2.52783 9.82747 2.96837 9.0433 3.75254C8.25914 4.5367 7.8186 5.60026 7.8186 6.70923V7.43123H6V7.43353H5.668C5.26141 7.43316 4.87159 7.27145 4.58413 6.98392C4.29667 6.69638 4.13506 6.30652 4.1348 5.89993V3.89993H3.2012V5.89993C3.20178 6.55403 3.46185 7.18117 3.92433 7.64372C4.38681 8.10627 5.01391 8.36644 5.668 8.36713H6V11.5331H2V12.4667H6V14.9999C6 15.1799 6.0115 15.3571 6.027 15.5331H5.668C5.01397 15.5338 4.38691 15.7939 3.92444 16.2564C3.46197 16.7188 3.20186 17.3459 3.2012 17.9999V20.9999H4.1348V17.9999C4.13517 17.5934 4.29682 17.2037 4.58427 16.9162C4.87172 16.6288 5.26148 16.4671 5.668 16.4667H6.188C6.51311 17.7619 7.26152 18.9114 8.31444 19.7326C9.36737 20.5539 10.6645 21 11.9998 21C13.3351 21 14.6322 20.5539 15.6852 19.7326C16.7381 18.9114 17.4865 17.7619 17.8116 16.4667H18.3316C18.7382 16.467 19.128 16.6286 19.4156 16.9161C19.7031 17.2035 19.8648 17.5933 19.8652 17.9999V20.9999H20.7988V17.9999C20.7981 17.3459 20.538 16.7188 20.0756 16.2564C19.6131 15.7939 18.986 15.5338 18.332 15.5331H17.973C17.9885 15.3571 18 15.1799 18 14.9999V12.4667ZM8.752 6.70923C8.74962 6.28118 8.83188 5.85687 8.99405 5.46071C9.15622 5.06456 9.39509 4.70436 9.69693 4.40084C9.99878 4.09731 10.3576 3.85644 10.7529 3.69208C11.1481 3.52772 11.572 3.44311 12 3.44311C12.4281 3.44311 12.852 3.52772 13.2472 3.69208C13.6425 3.85644 14.0013 4.09731 14.3032 4.40084C14.605 4.70436 14.8439 5.06456 15.0061 5.46071C15.1682 5.85687 15.2505 6.28118 15.2481 6.70923V7.43123H8.752V6.70923ZM6.9333 14.9999V8.36463H7.8186V8.36853H11.5332V20.0193C10.2791 19.9057 9.11254 19.3283 8.26177 18.3999C7.41101 17.4716 6.93728 16.2591 6.9333 14.9999ZM17.0667 14.9999C17.0627 16.2592 16.589 17.4716 15.7382 18.3999C14.8874 19.3283 13.7208 19.9058 12.4667 20.0193V8.36853H16.1813V8.36463H17.0666L17.0667 14.9999Z" fill="black"/>
</svg>
