<svg width="24" height="24" viewBox="0 0 24 24" fill="none" xmlns="http://www.w3.org/2000/svg">
<path d="M14.574 9.5135C14.3513 9.51348 14.1336 9.5795 13.9484 9.70321C13.7632 9.82691 13.6188 10.0028 13.5336 10.2085C13.4483 10.4142 13.426 10.6406 13.4694 10.8591C13.5128 11.0775 13.62 11.2782 13.7775 11.4357C13.9349 11.5932 14.1355 11.7005 14.3539 11.744C14.5723 11.7875 14.7988 11.7653 15.0045 11.6801C15.2103 11.5949 15.3862 11.4507 15.51 11.2655C15.6338 11.0804 15.6999 10.8627 15.7 10.64C15.7001 10.4921 15.671 10.3456 15.6144 10.209C15.5578 10.0723 15.4749 9.94811 15.3703 9.8435C15.2658 9.73889 15.1416 9.65591 15.005 9.59929C14.8684 9.54266 14.7219 9.51351 14.574 9.5135ZM9.426 9.5135C9.2033 9.5135 8.98559 9.57954 8.80041 9.70325C8.61524 9.82697 8.4709 10.0028 8.38566 10.2086C8.30041 10.4143 8.27809 10.6407 8.32151 10.8591C8.36493 11.0776 8.47214 11.2782 8.62959 11.4357C8.78703 11.5932 8.98765 11.7005 9.20606 11.744C9.42448 11.7875 9.65089 11.7653 9.85666 11.6801C10.0624 11.5949 10.2383 11.4507 10.3621 11.2655C10.4859 11.0804 10.552 10.8627 10.5521 10.64C10.5522 10.4921 10.5231 10.3456 10.4665 10.2089C10.4099 10.0723 10.327 9.94808 10.2224 9.84347C10.1178 9.73886 9.99368 9.65587 9.85703 9.59926C9.72038 9.54264 9.57392 9.5135 9.426 9.5135ZM15.2423 3H8.7577C6.96545 3 5.2466 3.71197 3.97928 4.97928C2.71197 6.2466 2 7.96545 2 9.7577V13C2 13.7956 2.31607 14.5587 2.87868 15.1213C3.44129 15.6839 4.20435 16 5 16H5.5V16.11C5.5 16.1472 5.51 16.18 5.511 16.2172C5.56609 17.769 6.2211 19.239 7.33817 20.3176C8.45523 21.3962 9.94719 21.9993 11.5 22H12.5C14.0527 21.9993 15.5446 21.3962 16.6617 20.3177C17.7787 19.2392 18.4338 17.7694 18.489 16.2176C18.4901 16.1808 18.5 16.1476 18.5 16.1104V16H19C19.7956 16 20.5587 15.6839 21.1213 15.1213C21.6839 14.5587 22 13.7956 22 13V9.7577C22 7.96545 21.288 6.2466 20.0207 4.97928C18.7534 3.71197 17.0346 3 15.2423 3ZM12.5 20.2H11.5C10.718 20.1974 9.95253 19.9745 9.2914 19.5568C9.79751 19.5547 10.298 19.451 10.7633 19.2518C11.2286 19.0526 11.6491 18.7621 12 18.3973C12.3509 18.7621 12.7714 19.0526 13.2367 19.2518C13.702 19.451 14.2025 19.5547 14.7086 19.5568C14.0475 19.9745 13.282 20.1974 12.5 20.2ZM20.2 13C20.1997 13.3182 20.0731 13.6232 19.8481 13.8481C19.6232 14.0731 19.3182 14.1997 19 14.2H18.5V9.8C18.5 9.32261 18.3104 8.86477 17.9728 8.52721C17.6352 8.18964 17.1774 8 16.7 8V16C16.6937 16.1833 16.6753 16.366 16.6447 16.5469C16.5382 17.0002 16.2687 17.3986 15.8875 17.6661C15.5064 17.9336 15.0401 18.0516 14.5776 17.9976C14.1151 17.9437 13.6885 17.7215 13.3792 17.3734C13.0698 17.0253 12.8993 16.5757 12.9 16.11V15.7765C13.1625 15.6577 13.3852 15.4657 13.5414 15.2237C13.6977 14.9817 13.781 14.6997 13.7813 14.4116V14.1985H10.2188V14.4116C10.219 14.6998 10.3023 14.9818 10.4585 15.2239C10.6148 15.466 10.8375 15.6579 11.1 15.7768V16.11C11.1007 16.5757 10.9301 17.0254 10.6208 17.3735C10.3114 17.7216 9.88477 17.9438 9.42219 17.9977C8.95961 18.0516 8.49336 17.9335 8.1122 17.6659C7.73105 17.3983 7.46161 16.9999 7.3552 16.5465C7.32469 16.3658 7.30625 16.1832 7.3 16V8C6.82261 8 6.36477 8.18964 6.02721 8.52721C5.68964 8.86477 5.5 9.32261 5.5 9.8V14.2H5C4.68185 14.1997 4.37682 14.0731 4.15185 13.8481C3.92688 13.6232 3.80034 13.3182 3.8 13V9.7577C3.80148 8.44329 4.32429 7.18314 5.25371 6.25371C6.18314 5.32429 7.44329 4.80148 8.7577 4.8H15.2423C16.5567 4.80148 17.8169 5.32429 18.7463 6.25371C19.6757 7.18314 20.1985 8.44329 20.2 9.7577V13Z" fill="black"/>
</svg>
