<svg width="24" height="24" viewBox="0 0 24 24" fill="none" xmlns="http://www.w3.org/2000/svg">
<path d="M18.8842 6.45747C19.1004 5.6271 19.0219 4.74747 18.6623 3.96843C18.3026 3.1894 17.684 2.55917 16.9118 2.1851C16.1395 1.81103 15.2615 1.71628 14.4273 1.91698C13.593 2.11767 12.8542 2.60141 12.3366 3.28577C11.6874 2.49583 10.789 1.95007 9.7887 1.73808C8.78845 1.5261 7.74585 1.66048 6.83204 2.11917C5.91824 2.57787 5.18753 3.33362 4.75988 4.26235C4.33222 5.19109 4.23304 6.23763 4.47859 7.23017C3.41355 8.15659 2.72933 9.44463 2.55795 10.8458C2.38657 12.2469 2.74017 13.6619 3.55053 14.8177C4.36089 15.9735 5.57059 16.7883 6.94624 17.1047C8.32189 17.4212 9.76601 17.217 11 16.5316V22.0002H13V16.6358C13.8008 17.0356 14.6828 17.2458 15.5778 17.2502C16.8413 17.2501 18.0715 16.8446 19.0875 16.0933C20.1034 15.342 20.8514 14.2845 21.2215 13.0763C21.5916 11.8682 21.5643 10.5732 21.1436 9.38174C20.7228 8.19029 19.9309 7.16529 18.8842 6.45747Z" fill="black"/>
</svg>
