<svg width="24" height="24" viewBox="0 0 24 24" fill="none" xmlns="http://www.w3.org/2000/svg">
<path d="M15.3537 5.00065C14.3374 4.98566 13.3321 5.21184 12.4202 5.66065C12.4909 5.1202 12.6266 4.59025 12.8242 4.08225C13.1308 3.35855 13.553 2.68944 14.0742 2.10105L13.0392 1.31445C12.5207 2.06152 12.1269 2.8878 11.8733 3.76105C11.7051 4.37777 11.6144 5.01302 11.6033 5.65215C10.6961 5.20924 9.69739 4.98606 8.68797 5.00065C7.78199 4.99342 6.88416 5.17209 6.04998 5.52562C5.21581 5.87915 4.46301 6.40003 3.83813 7.05605C3.21325 7.71208 2.72957 8.4893 2.417 9.33968C2.10443 10.1901 1.96961 11.0955 2.02087 12.0001C2.02087 16.4486 4.80017 22.011 9.20867 22.011C9.78236 22.008 10.3524 21.9194 10.9 21.7483C11.2597 21.6134 11.6372 21.5318 12.0206 21.506C12.4039 21.5318 12.7813 21.6134 13.1411 21.7483C13.6888 21.9194 14.2589 22.0079 14.8327 22.011C19.2417 22.011 22.0206 16.4489 22.0206 12.0001C22.0718 11.0955 21.937 10.1901 21.6244 9.33974C21.3118 8.48938 20.8282 7.71218 20.2033 7.05616C19.5785 6.40014 18.8257 5.87926 17.9916 5.52571C17.1574 5.17216 16.2596 4.99346 15.3537 5.00065ZM14.833 21.0107C14.358 21.0072 13.8862 20.9334 13.433 20.7916L13.321 20.7571C12.9032 20.6068 12.4647 20.522 12.021 20.5057C11.5773 20.522 11.1388 20.6068 10.721 20.7571L10.6089 20.7916C10.1556 20.9334 9.6838 21.0073 9.20887 21.0107C5.37507 21.0107 3.02107 15.7624 3.02107 11.9998C2.97301 11.2275 3.08415 10.4535 3.34758 9.72599C3.61101 8.99843 4.02112 8.33276 4.55247 7.77026C5.08382 7.20776 5.72508 6.76044 6.43646 6.45603C7.14785 6.15162 7.9142 5.99663 8.68797 6.00065C9.68071 5.97453 10.6612 6.22507 11.5197 6.72425L12.0209 7.01425L12.522 6.72425C13.3805 6.22506 14.3609 5.97452 15.3537 6.00065C16.1275 5.9966 16.8939 6.15158 17.6053 6.45599C18.3168 6.76041 18.9581 7.20775 19.4894 7.77028C20.0208 8.33282 20.431 8.99853 20.6944 9.72614C20.9578 10.4537 21.0689 11.2277 21.0209 12.0001C21.0209 15.7627 18.6668 21.011 14.833 21.011V21.0107Z" fill="black"/>
</svg>
