<svg width="24" height="24" viewBox="0 0 24 24" fill="none" xmlns="http://www.w3.org/2000/svg">
<path d="M14.8282 8.22368C15.5649 8.33239 16.3147 8.14632 16.9151 7.70582C17.5154 7.26532 17.9179 6.60591 18.0353 5.87058C18.2554 5.15916 18.1862 4.38965 17.8426 3.72896C17.499 3.06826 16.9088 2.56966 16.2 2.34128C15.4634 2.23273 14.7137 2.41886 14.1133 2.85934C13.513 3.29981 13.1104 3.95913 12.9929 4.69438C12.773 5.4058 12.8423 6.17524 13.1859 6.83589C13.5294 7.49654 14.1195 7.99517 14.8282 8.22368ZM9.17182 8.22368C9.88046 7.99509 10.4705 7.49643 10.8139 6.83578C11.1574 6.17514 11.2267 5.40575 11.0067 4.69438C10.8892 3.95921 10.4867 3.29995 9.88646 2.85949C9.28622 2.41903 8.53659 2.23285 7.80002 2.34128C7.09131 2.56979 6.50122 3.06842 6.15766 3.72907C5.81411 4.38972 5.74479 5.15916 5.96472 5.87058C6.08224 6.60584 6.48479 7.26515 7.08512 7.70563C7.68545 8.1461 8.43519 8.33223 9.17182 8.22368ZM21.5131 8.08468C20.7935 7.86099 20.0146 7.93002 19.3455 8.27679C18.6764 8.62355 18.171 9.22011 17.9388 9.93708C17.6077 10.6141 17.5568 11.3943 17.7971 12.1086C18.0375 12.8229 18.5497 13.4136 19.2227 13.7527C19.9424 13.9763 20.7212 13.9073 21.3903 13.5606C22.0594 13.2138 22.5649 12.6173 22.7971 11.9004C23.1282 11.2234 23.1791 10.4431 22.9387 9.72885C22.6984 9.01456 22.1861 8.42381 21.5131 8.08468ZM6.06132 9.93708C5.82914 9.2201 5.32368 8.62354 4.65456 8.27678C3.98544 7.93001 3.2066 7.86099 2.48692 8.08468C1.8139 8.42381 1.30168 9.01457 1.06134 9.72886C0.820997 10.4431 0.871903 11.2234 1.20302 11.9004C1.43522 12.6173 1.94067 13.2138 2.60977 13.5606C3.27886 13.9073 4.05767 13.9763 4.77732 13.7527C5.45037 13.4136 5.96263 12.8229 6.20299 12.1086C6.44336 11.3943 6.39245 10.6141 6.06132 9.93708ZM16.8852 13.8339C16.3937 12.9719 15.6829 12.2554 14.825 11.7569C13.967 11.2585 12.9925 10.996 12.0002 10.996C11.008 10.996 10.0334 11.2585 9.17546 11.7569C8.3175 12.2554 7.6067 12.9719 7.11522 13.8339L5.63272 16.4339C5.23806 17.1262 5.08382 17.9297 5.19411 18.719C5.30439 19.5082 5.67298 20.2387 6.2423 20.7963C6.81162 21.3539 7.5496 21.7072 8.34095 21.8011C9.1323 21.8949 9.93246 21.724 10.6164 21.3151C11.0347 21.0649 11.513 20.9328 12.0004 20.9328C12.4878 20.9328 12.966 21.0649 13.3843 21.3151C14.0683 21.724 14.8684 21.8949 15.6598 21.8011C16.4511 21.7072 17.1891 21.3539 17.7584 20.7963C18.3278 20.2387 18.6964 19.5082 18.8066 18.719C18.9169 17.9297 18.7627 17.1262 18.368 16.4339L16.8852 13.8339Z" fill="black"/>
</svg>
