<svg width="24" height="24" viewBox="0 0 24 24" fill="none" xmlns="http://www.w3.org/2000/svg">
<path d="M15.3537 5.00039C14.3781 4.98661 13.4121 5.1941 12.5283 5.60729C12.6096 5.09899 12.7501 4.60197 12.9471 4.12639C13.2619 3.42565 13.6883 2.78061 14.2097 2.21639L12.8563 1.18799C12.3386 1.95949 11.9493 2.80977 11.7036 3.70579C11.5467 4.31866 11.465 4.94837 11.4605 5.58099C10.5905 5.18517 9.64366 4.98689 8.68797 5.00039C7.78199 4.99315 6.88416 5.17182 6.04998 5.52535C5.21581 5.87889 4.46301 6.39977 3.83813 7.05579C3.21325 7.71181 2.72957 8.48904 2.417 9.33941C2.10443 10.1898 1.96961 11.0952 2.02087 11.9998C2.02087 16.4483 4.80017 22.0107 9.20867 22.0107C9.78236 22.0077 10.3524 21.9192 10.9 21.748C11.2597 21.6131 11.6372 21.5315 12.0206 21.5057C12.4039 21.5315 12.7813 21.6131 13.1411 21.748C13.6888 21.9191 14.2589 22.0076 14.8327 22.0107C19.2417 22.0107 22.0206 16.4486 22.0206 11.9998C22.0718 11.0953 21.937 10.1898 21.6244 9.33947C21.3118 8.48912 20.8282 7.71191 20.2033 7.05589C19.5785 6.39988 18.8257 5.87899 17.9916 5.52544C17.1574 5.1719 16.2596 4.99319 15.3537 5.00039ZM18.8169 17.865C18.4276 18.6044 17.8588 19.2341 17.1627 19.6964C16.4666 20.1587 15.6655 20.4387 14.833 20.5107C14.4076 20.5072 13.9851 20.4407 13.5793 20.3134L13.4693 20.2795C13.0035 20.1139 12.515 20.0216 12.021 20.0057C11.5269 20.0216 11.0383 20.1139 10.5725 20.2795L10.4625 20.3134C10.0566 20.4407 9.63419 20.5072 9.20887 20.5107C8.37634 20.4387 7.57525 20.1587 6.87914 19.6964C6.18304 19.2341 5.61423 18.6043 5.22497 17.8649C4.13041 16.1029 3.54093 14.074 3.52087 11.9998C3.52087 8.76179 5.64567 6.50039 8.68797 6.50039C9.59253 6.47558 10.4862 6.70278 11.2691 7.15659L12.0209 7.59199L12.7726 7.15659C13.5555 6.70278 14.4491 6.47558 15.3537 6.50039C18.3961 6.50039 20.5209 8.76179 20.5209 11.9998C20.5009 14.074 19.9114 16.1029 18.8169 17.865Z" fill="black"/>
</svg>
