<svg width="24" height="24" viewBox="0 0 24 24" fill="none" xmlns="http://www.w3.org/2000/svg">
<path d="M15.1073 9.51337C14.8846 9.51335 14.6668 9.57937 14.4816 9.7031C14.2964 9.82682 14.1521 10.0027 14.0668 10.2085C13.9816 10.4142 13.9593 10.6406 14.0027 10.8591C14.0462 11.0775 14.1534 11.2782 14.3109 11.4357C14.4684 11.5932 14.669 11.7005 14.8875 11.7439C15.1059 11.7874 15.3323 11.7651 15.5381 11.6799C15.7439 11.5946 15.9198 11.4503 16.0435 11.2651C16.1673 11.0799 16.2333 10.8622 16.2333 10.6395C16.2333 10.3408 16.1147 10.0544 15.9035 9.84323C15.6923 9.63205 15.4059 9.51339 15.1073 9.51337ZM10.0187 10.6399C10.0187 10.4172 9.95266 10.1995 9.82893 10.0143C9.70521 9.82912 9.52935 9.6848 9.3236 9.59958C9.11785 9.51435 8.89145 9.49205 8.67303 9.5355C8.45461 9.57895 8.25397 9.68619 8.0965 9.84366C7.93902 10.0011 7.83178 10.2018 7.78834 10.4202C7.74489 10.6386 7.76719 10.865 7.85241 11.0708C7.93764 11.2765 8.08196 11.4524 8.26713 11.5761C8.4523 11.6998 8.67 11.7659 8.8927 11.7659C9.19133 11.7658 9.47771 11.6472 9.68887 11.436C9.90003 11.2249 10.0187 10.9385 10.0187 10.6399ZM22.6875 14.7161V12.9999H20.8608C20.8638 12.9058 20.875 12.8139 20.875 12.7191C20.8739 12.1959 20.8262 11.6738 20.7324 11.1591C21.3724 10.1973 21.8033 9.1118 21.9972 7.97292C22.191 6.83405 22.1436 5.66715 21.8579 4.54777L21.7173 3.84407H21C19.2382 3.80318 17.4847 4.09845 15.8335 4.71407C14.6339 4.15112 13.3251 3.85929 12 3.85929C10.6749 3.85929 9.36607 4.15112 8.1665 4.71407C6.51525 4.09845 4.7618 3.80318 3 3.84407H2.2827L2.1421 4.54777C1.85641 5.66715 1.80897 6.83405 2.00285 7.97292C2.19673 9.1118 2.62761 10.1973 3.2676 11.1591C3.1738 11.6738 3.12607 12.1959 3.125 12.7191C3.125 12.8139 3.1362 12.9058 3.1392 12.9999H1.3125V14.7157H3.36C3.54444 15.5198 3.8409 16.294 4.2407 17.0157L2.4307 18.061L3.2812 19.5337L5.2088 18.4204C6.03984 19.4137 7.07868 20.2127 8.25208 20.7609C9.42547 21.3091 10.7049 21.5933 12 21.5933C13.2951 21.5933 14.5745 21.3091 15.7479 20.7609C16.9213 20.2127 17.9602 19.4137 18.7912 18.4204L20.7188 19.5337L21.5688 18.061L19.7588 17.0157C20.1586 16.294 20.4551 15.5198 20.6395 14.7157L22.6875 14.7161ZM19.1191 10.3899L18.8481 10.7205L18.9424 11.138C19.0617 11.6566 19.1229 12.1868 19.125 12.719C19.125 12.8138 19.1144 12.9059 19.1108 12.9998H16.625V14.7156H18.835C18.4041 16.1948 17.5049 17.4944 16.2724 18.4191C15.0399 19.3437 13.5408 19.8436 12 19.8436C10.4592 19.8436 8.96005 19.3437 7.72759 18.4191C6.49513 17.4944 5.59592 16.1948 5.165 14.7156H7.375V12.9999H4.8892C4.8856 12.906 4.875 12.8139 4.875 12.7191C4.87706 12.1869 4.9383 11.6567 5.0576 11.1381L5.1519 10.7206L4.8809 10.39C4.36634 9.71766 3.99887 8.94469 3.80232 8.12119C3.60577 7.2977 3.58454 6.44209 3.74 5.60987C5.14708 5.63412 6.53651 5.92746 7.8333 6.47407L8.2308 6.65617L8.615 6.44817C9.65842 5.89744 10.8205 5.6096 12.0003 5.6096C13.1801 5.6096 14.3422 5.89744 15.3856 6.44817L15.7698 6.65617L16.1673 6.47407C17.4639 5.92753 18.8531 5.63419 20.26 5.60987C20.4154 6.44208 20.3942 7.29767 20.1977 8.12114C20.0011 8.94461 19.6336 9.71757 19.1191 10.3899ZM13.1621 15.2391C12.9932 15.0641 12.8904 14.8358 12.8712 14.5934C13.1412 14.4775 13.3713 14.285 13.533 14.0398C13.6948 13.7945 13.7811 13.5072 13.7812 13.2134V12.9999H10.2188V13.213C10.219 13.5068 10.3052 13.7941 10.467 14.0393C10.6287 14.2846 10.8588 14.4771 11.1288 14.593C11.1098 14.835 11.0073 15.0629 10.8388 15.2377C10.6365 15.4318 10.367 15.5402 10.0866 15.5402C9.80623 15.5402 9.53671 15.4318 9.3344 15.2377L8.1333 16.4413C8.64446 16.9533 9.33648 17.2437 10.0599 17.2498C10.7834 17.2559 11.4802 16.9773 12 16.4741C12.5198 16.9773 13.2167 17.2559 13.9401 17.2498C14.6636 17.2436 15.3556 16.9532 15.8668 16.4413L14.6656 15.2382C14.4634 15.432 14.1942 15.5403 13.9141 15.5405C13.6339 15.5406 13.3646 15.4327 13.1621 15.2392V15.2391Z" fill="black"/>
</svg>
