<svg width="24" height="24" viewBox="0 0 24 24" fill="none" xmlns="http://www.w3.org/2000/svg">
<path d="M18.8842 6.45728C19.1024 5.60721 19.0129 4.70738 18.6316 3.91692C18.2503 3.12647 17.6017 2.49634 16.8006 2.13796C15.9995 1.77959 15.0974 1.71608 14.254 1.95865C13.4106 2.20122 12.6801 2.73426 12.1918 3.46348C11.5637 2.60459 10.6518 1.99588 9.61766 1.7453C8.58355 1.49472 7.49412 1.61845 6.54255 2.09457C5.59098 2.57068 4.83877 3.3684 4.41932 4.34627C3.99986 5.32414 3.94026 6.41896 4.25109 7.43658C3.19946 8.4544 2.57876 9.83713 2.5171 11.2993C2.45544 12.7616 2.95754 14.1916 3.91975 15.2944C4.88196 16.3971 6.23083 17.0883 7.68791 17.2253C9.145 17.3624 10.5991 16.9347 11.75 16.0307V22H12.25V16.1957C13.2259 16.878 14.387 17.2458 15.5778 17.25C16.8413 17.2499 18.0715 16.8444 19.0875 16.0931C20.1034 15.3418 20.8514 14.2843 21.2215 13.0761C21.5916 11.868 21.5643 10.573 21.1436 9.38154C20.7228 8.19009 19.9309 7.16509 18.8842 6.45728ZM15.5778 16.75C14.3446 16.754 13.1479 16.3312 12.191 15.5533L11.8733 15.2971L11.5587 15.5571C10.5202 16.4152 9.19001 16.8383 7.84659 16.7379C6.50317 16.6374 5.25072 16.0211 4.35146 15.018C3.4522 14.0149 2.97587 12.7028 3.0222 11.3564C3.06852 10.01 3.63391 8.73379 4.59999 7.79488L4.81449 7.58598L4.73169 7.29828C4.62037 6.93856 4.56097 6.56479 4.55529 6.18828C4.55241 5.34308 4.81599 4.51847 5.30858 3.83165C5.80117 3.14483 6.49771 2.63074 7.2992 2.36245C8.10069 2.09416 8.96635 2.08531 9.77316 2.33717C10.58 2.58902 11.2869 3.08877 11.7934 3.76538L12.2161 4.32328L12.6068 3.74248C12.9921 3.16821 13.5518 2.73296 14.2032 2.50093C14.8547 2.26889 15.5635 2.25235 16.225 2.45375C16.8866 2.65515 17.466 3.06382 17.8776 3.61949C18.2893 4.17516 18.5115 4.84842 18.5115 5.53998C18.508 5.80824 18.4704 6.07497 18.3997 6.33378L18.313 6.67378L18.6038 6.87078C19.5619 7.51857 20.2869 8.45674 20.6721 9.54729C21.0573 10.6378 21.0823 11.8232 20.7436 12.9291C20.4049 14.0349 19.7202 15.0029 18.7903 15.6906C17.8604 16.3784 16.7344 16.7495 15.5778 16.7496V16.75ZM8.27089 10.2812C7.97422 10.2812 7.68421 10.3691 7.43754 10.534C7.19086 10.6988 6.9986 10.9331 6.88507 11.2072C6.77154 11.4812 6.74184 11.7828 6.79971 12.0738C6.85759 12.3648 7.00045 12.6321 7.21023 12.8418C7.42001 13.0516 7.68729 13.1945 7.97826 13.2524C8.26923 13.3102 8.57083 13.2805 8.84492 13.167C9.11901 13.0535 9.35327 12.8612 9.5181 12.6145C9.68292 12.3679 9.77089 12.0778 9.77089 11.7812C9.77089 11.3834 9.61286 11.0018 9.33155 10.7205C9.05025 10.4392 8.66872 10.2812 8.27089 10.2812ZM8.27089 12.7812C8.07311 12.7812 7.87977 12.7225 7.71532 12.6126C7.55087 12.5028 7.4227 12.3466 7.34701 12.1639C7.27133 11.9811 7.25152 11.7801 7.29011 11.5861C7.32869 11.3921 7.42393 11.2139 7.56379 11.0741C7.70364 10.9342 7.88182 10.839 8.0758 10.8004C8.26978 10.7618 8.47085 10.7816 8.65358 10.8573C8.8363 10.933 8.99248 11.0612 9.10236 11.2256C9.21224 11.3901 9.27089 11.5834 9.27089 11.7812C9.27065 12.0463 9.16524 12.3005 8.97777 12.488C8.79031 12.6755 8.53612 12.7809 8.27099 12.7812H8.27089ZM12.49 6.33328C12.1933 6.33328 11.9033 6.42125 11.6566 6.58607C11.41 6.75089 11.2177 6.98516 11.1042 7.25925C10.9906 7.53334 10.9609 7.83494 11.0188 8.12591C11.0767 8.41688 11.2196 8.68416 11.4293 8.89394C11.6391 9.10371 11.9064 9.24658 12.1974 9.30445C12.4883 9.36233 12.7899 9.33263 13.064 9.21909C13.3381 9.10556 13.5724 8.9133 13.7372 8.66663C13.902 8.41996 13.99 8.12995 13.99 7.83328C13.99 7.43545 13.832 7.05392 13.5507 6.77262C13.2693 6.49131 12.8878 6.33328 12.49 6.33328ZM12.49 8.83328C12.2922 8.83328 12.0989 8.77463 11.9344 8.66474C11.77 8.55486 11.6418 8.39868 11.5661 8.21596C11.4904 8.03323 11.4706 7.83217 11.5092 7.63819C11.5478 7.4442 11.643 7.26602 11.7829 7.12617C11.9227 6.98632 12.1009 6.89108 12.2949 6.85249C12.4889 6.81391 12.6899 6.83371 12.8727 6.9094C13.0554 6.98508 13.2116 7.11326 13.3215 7.27771C13.4313 7.44215 13.49 7.63549 13.49 7.83328C13.4896 8.09836 13.3842 8.35248 13.1967 8.5399C13.0092 8.72731 12.7551 8.83271 12.49 8.83298V8.83328ZM15.73 10.4482C15.4333 10.4482 15.1433 10.5361 14.8966 10.701C14.65 10.8658 14.4577 11.1001 14.3442 11.3742C14.2306 11.6482 14.2009 11.9498 14.2588 12.2408C14.3167 12.5318 14.4596 12.7991 14.6693 13.0088C14.8791 13.2186 15.1464 13.3615 15.4374 13.4194C15.7283 13.4772 16.0299 13.4475 16.304 13.334C16.5781 13.2205 16.8124 13.0282 16.9772 12.7815C17.142 12.5349 17.23 12.2448 17.23 11.9482C17.23 11.7511 17.1912 11.5559 17.1158 11.3739C17.0404 11.1918 16.9299 11.0264 16.7905 10.887C16.6511 10.7477 16.4856 10.6372 16.3035 10.5619C16.1214 10.4865 15.9263 10.4478 15.7292 10.4479L15.73 10.4482ZM15.73 12.9482C15.5322 12.9482 15.3389 12.8895 15.1744 12.7796C15.01 12.6698 14.8818 12.5136 14.8061 12.3309C14.7304 12.1481 14.7106 11.9471 14.7492 11.7531C14.7878 11.5591 14.883 11.3809 15.0229 11.2411C15.1627 11.1012 15.3409 11.006 15.5349 10.9674C15.7289 10.9288 15.93 10.9486 16.1127 11.0243C16.2954 11.1 16.4516 11.2282 16.5615 11.3926C16.6713 11.5571 16.73 11.7504 16.73 11.9482C16.7298 12.2135 16.6242 12.4679 16.4365 12.6554C16.2488 12.8429 15.9943 12.9482 15.729 12.9482H15.73Z" fill="black"/>
</svg>
