<svg width="24" height="24" viewBox="0 0 24 24" fill="none" xmlns="http://www.w3.org/2000/svg">
<path d="M12 19.1643C11.6095 19.6746 11.1072 20.0884 10.5316 20.374C9.95598 20.6596 9.32253 20.8093 8.68 20.8115C8.45794 20.8068 8.2366 20.7845 8.0181 20.7446C8.92218 21.5496 10.0895 21.9961 11.3 22H12.7C13.9106 21.9962 15.078 21.5497 15.9822 20.7446C15.237 20.8829 14.4678 20.8079 13.7634 20.5284C13.0589 20.2488 12.4476 19.776 12 19.1643ZM15.2423 3H8.7577C6.96545 3 5.2466 3.71197 3.97928 4.97928C2.71197 6.2466 2 7.96545 2 9.7577V13.9147C2.00003 14.4677 2.21974 14.9981 2.6108 15.3892C3.00186 15.7803 3.53225 16 4.0853 16H4.5V9.8C4.5 9.32261 4.68964 8.86477 5.02721 8.52721C5.36477 8.18964 5.82261 8 6.3 8V16.9926C6.40019 17.5908 6.72169 18.1295 7.20066 18.5017C7.67964 18.8738 8.28105 19.0523 8.88549 19.0016C9.48992 18.9508 10.0532 18.6747 10.4634 18.2279C10.8737 17.7811 11.1009 17.1964 11.1 16.5898V16.3567C10.8429 16.265 10.6203 16.0963 10.4626 15.8735C10.3049 15.6507 10.2197 15.3847 10.2187 15.1118V14.7328H13.7811V15.1118C13.78 15.3848 13.6949 15.6508 13.5372 15.8735C13.3794 16.0963 13.1569 16.2651 12.8998 16.3568V16.5898C12.8989 17.1964 13.1261 17.7811 13.5364 18.2279C13.9466 18.6747 14.5099 18.9508 15.1143 19.0016C15.7188 19.0523 16.3202 18.8738 16.7991 18.5017C17.2781 18.1295 17.5996 17.5908 17.6998 16.9926V8C18.1772 8 18.635 8.18964 18.9726 8.52721C19.3102 8.86477 19.4998 9.32261 19.4998 9.8V16H19.9145C20.1884 16 20.4595 15.9461 20.7126 15.8413C20.9656 15.7365 21.1955 15.5829 21.3892 15.3893C21.5828 15.1957 21.7364 14.9658 21.8412 14.7128C21.9461 14.4597 22 14.1886 22 13.9147V9.7577C22 7.96545 21.288 6.2466 20.0207 4.97928C18.7534 3.71197 17.0346 3 15.2423 3ZM8.8269 11.9272C8.5722 11.9272 8.32321 11.8517 8.11144 11.7101C7.89967 11.5686 7.73462 11.3675 7.63717 11.1322C7.53972 10.8968 7.51425 10.6379 7.56398 10.3881C7.61371 10.1383 7.7364 9.90885 7.91654 9.72878C8.09667 9.54871 8.32617 9.42611 8.57599 9.37648C8.82581 9.32685 9.08474 9.35242 9.32003 9.44996C9.55532 9.5475 9.75639 9.71263 9.89783 9.92446C10.0393 10.1363 10.1147 10.3853 10.1146 10.64C10.1145 10.9814 9.97878 11.3089 9.73729 11.5502C9.49581 11.7916 9.16834 11.9272 8.8269 11.9272ZM15.1732 11.9272C14.9185 11.9272 14.6695 11.8517 14.4577 11.7102C14.2459 11.5687 14.0809 11.3676 13.9834 11.1322C13.8859 10.8969 13.8605 10.638 13.9102 10.3882C13.9599 10.1384 14.0826 9.9089 14.2627 9.72882C14.4428 9.54874 14.6723 9.42613 14.9222 9.37649C15.172 9.32685 15.4309 9.35242 15.6662 9.44995C15.9015 9.54749 16.1026 9.71262 16.244 9.92445C16.3855 10.1363 16.4609 10.3853 16.4608 10.64C16.4607 10.9814 16.325 11.3088 16.0835 11.5502C15.842 11.7916 15.5146 11.9272 15.1732 11.9272Z" fill="black"/>
</svg>
