<svg width="24" height="24" viewBox="0 0 24 24" fill="none" xmlns="http://www.w3.org/2000/svg">
<path d="M19.2408 1.95664V2.45664C19.8193 2.45664 20.4218 2.47794 21.0268 2.50484C19.2166 3.69235 17.473 4.97849 15.804 6.35744C14.0588 7.80187 12.4165 9.36634 10.8892 11.0394C9.35987 12.7145 7.96891 14.5107 6.73 16.4106C6.2555 17.1393 5.8121 17.8878 5.3857 18.6458C3.5477 14.1041 3.5157 10.3992 5.3246 7.63994C7.5155 4.29774 12.457 2.45694 19.239 2.45654L19.2408 1.95654H19.239C7.3682 1.95724 0.119998 7.47564 5.0694 19.2065C4.5058 20.2476 3.9863 21.3129 3.5199 22.4023L3.9799 22.5977C4.42343 21.5503 4.91343 20.5245 5.4499 19.5205C6.73896 19.7181 8.04054 19.8228 9.3446 19.8339C19.9746 19.8339 21.8746 11.8861 21.8746 2.04224C20.9741 1.98524 20.0961 1.95671 19.2408 1.95664ZM9.3447 19.3339C8.12818 19.3245 6.91375 19.2315 5.71 19.0554C6.1564 18.2445 6.6245 17.4454 7.1265 16.6672C8.34429 14.7831 9.71281 13.0008 11.2186 11.3378C12.7256 9.67346 14.347 8.11634 16.0709 6.67784C17.7621 5.26734 19.5313 3.95297 21.37 2.74094C21.2906 11.4492 19.6425 19.3339 9.3447 19.3339Z" fill="black"/>
</svg>
