<svg width="24" height="24" viewBox="0 0 24 24" fill="none" xmlns="http://www.w3.org/2000/svg">
<g clip-path="url(#clip0)">
<path d="M18.2656 4.64698H19.1656C19.6942 4.64695 20.2011 4.43695 20.5749 4.06317C20.9486 3.6894 21.1586 3.18246 21.1586 2.65387V0.609375H20.4539L20.0829 2.67817C20.0492 2.88353 19.9436 3.07023 19.785 3.20493C19.6264 3.33964 19.4251 3.41359 19.217 3.41357H18.3809V1.60938H17.6563L17.2991 3.41357H15.1875L14.83 1.60938H14.1055V3.41357H13.0427C12.8346 3.41359 12.6333 3.33964 12.4747 3.20493C12.316 3.07023 12.2105 2.88353 12.1768 2.67817L11.8058 0.609375H11.1011V2.65387C11.1011 3.18246 11.3111 3.6894 11.6848 4.06317C12.0586 4.43695 12.5655 4.64695 13.0941 4.64698H15.1719L12.8411 9.58327H6.82499C6.39171 9.58327 5.96356 9.67712 5.57001 9.85837C5.17646 10.0396 4.82684 10.304 4.54519 10.6332C4.26355 10.9625 4.05657 11.3488 3.9385 11.7657C3.82042 12.1826 3.79405 12.6201 3.86119 13.0482L5.26529 22H6.67439L6.47849 16.9321L8.20069 15.0449L14.6938 16.1755L15.5663 22H16.9354V15.6968C19.0488 13.304 18.1077 10.5209 17.1484 8.19678H20.2484C20.4527 8.19676 20.6529 8.13949 20.8264 8.03146C20.9998 7.92343 21.1395 7.76896 21.2296 7.58558L21.6833 6.66178L18.2656 4.64698Z" fill="black"/>
</g>
<defs>
<clipPath id="clip0">
<rect width="24" height="24" fill="white"/>
</clipPath>
</defs>
</svg>
