<svg width="24" height="24" viewBox="0 0 24 24" fill="none" xmlns="http://www.w3.org/2000/svg">
<path d="M18.8842 6.45747C19.1003 5.6271 19.0219 4.74747 18.6623 3.96843C18.3026 3.1894 17.684 2.55917 16.9117 2.1851C16.1395 1.81103 15.2615 1.71628 14.4273 1.91698C13.593 2.11767 12.8542 2.60141 12.3366 3.28577C11.6874 2.49583 10.7889 1.95007 9.78869 1.73808C8.78844 1.5261 7.74583 1.66048 6.83203 2.11917C5.91822 2.57787 5.18752 3.33362 4.75986 4.26235C4.33221 5.19109 4.23302 6.23763 4.47858 7.23017C3.39225 8.17192 2.70136 9.48895 2.54401 10.918C2.38665 12.3471 2.77443 13.7829 3.62983 14.9384C4.48523 16.094 5.74522 16.8841 7.15795 17.1509C8.57068 17.4177 10.0321 17.1416 11.25 16.3776V22.0002H12.75V16.5211C14.0807 17.2487 15.6405 17.436 17.1055 17.0439C18.5706 16.6518 19.8284 15.7105 20.6178 14.4155C21.4072 13.1205 21.6675 11.5712 21.3446 10.0893C21.0218 8.60744 20.1407 7.30681 18.8842 6.45747ZM7.78118 13.3231C7.52981 13.3231 7.28409 13.2485 7.07509 13.1089C6.86609 12.9692 6.7032 12.7707 6.60701 12.5385C6.51082 12.3063 6.48566 12.0507 6.53471 11.8042C6.58375 11.5577 6.7048 11.3312 6.88255 11.1535C7.0603 10.9757 7.28676 10.8547 7.5333 10.8057C7.77984 10.7567 8.03538 10.7818 8.2676 10.878C8.49983 10.9743 8.69831 11.1372 8.83794 11.3462C8.97758 11.5552 9.0521 11.8009 9.05208 12.0523C9.05205 12.3893 8.91814 12.7126 8.6798 12.9509C8.44147 13.1892 8.11822 13.3231 7.78118 13.3231ZM12.49 8.79177C12.2386 8.79193 11.9928 8.71754 11.7837 8.57799C11.5747 8.43845 11.4116 8.24004 11.3153 8.00784C11.219 7.77565 11.1938 7.52011 11.2427 7.27354C11.2916 7.02698 11.4126 6.80047 11.5903 6.62267C11.768 6.44486 11.9944 6.32375 12.241 6.27465C12.4875 6.22555 12.7431 6.25067 12.9753 6.34683C13.2076 6.44299 13.4061 6.60587 13.5458 6.81487C13.6854 7.02387 13.76 7.2696 13.76 7.52097C13.76 7.85788 13.6262 8.18101 13.3881 8.41931C13.1499 8.65762 12.8269 8.79159 12.49 8.79177ZM16.6046 13.3231C16.3532 13.3231 16.1075 13.2486 15.8985 13.1089C15.6895 12.9693 15.5265 12.7708 15.4303 12.5386C15.3341 12.3063 15.309 12.0508 15.358 11.8043C15.407 11.5577 15.5281 11.3313 15.7058 11.1535C15.8836 10.9758 16.11 10.8547 16.3566 10.8057C16.6031 10.7567 16.8586 10.7818 17.0909 10.878C17.3231 10.9742 17.5216 11.1371 17.6612 11.3462C17.8009 11.5552 17.8754 11.8009 17.8754 12.0523C17.8754 12.2192 17.8425 12.3845 17.7786 12.5387C17.7147 12.6929 17.6211 12.833 17.503 12.951C17.385 13.069 17.2448 13.1626 17.0906 13.2265C16.9364 13.2903 16.7711 13.3231 16.6042 13.3231H16.6046Z" fill="black"/>
</svg>
