<svg width="24" height="24" viewBox="0 0 24 24" fill="none" xmlns="http://www.w3.org/2000/svg">
<path d="M18 12.8999H22V11.0999H18V8.79993C18.7689 8.79911 19.506 8.49331 20.0497 7.94964C20.5934 7.40596 20.8992 6.66881 20.9 5.89993V3.89993H19.1V5.89993C19.0996 6.19154 18.9835 6.47108 18.7773 6.67728C18.5712 6.88348 18.2916 6.99951 18 6.99993H16.1814V6.70923C16.1814 5.60026 15.7409 4.5367 14.9567 3.75254C14.1725 2.96837 13.109 2.52783 12 2.52783C10.891 2.52783 9.82747 2.96837 9.0433 3.75254C8.25914 4.5367 7.8186 5.60026 7.8186 6.70923V6.99993H6C5.70839 6.99951 5.42885 6.88348 5.22265 6.67728C5.01645 6.47108 4.90042 6.19154 4.9 5.89993V3.89993H3.1V5.89993C3.10082 6.66881 3.40662 7.40596 3.9503 7.94964C4.49397 8.49331 5.23112 8.79911 6 8.79993V11.0999H2V12.8999H6V14.9999C6 15.0335 6.0045 15.066 6.005 15.0999H6C5.23118 15.1009 4.49414 15.4068 3.9505 15.9504C3.40686 16.4941 3.10101 17.2311 3.1 17.9999V20.9999H4.9V17.9999C4.90032 17.7083 5.01631 17.4287 5.22253 17.2225C5.42875 17.0162 5.70836 16.9002 6 16.8999H6.3123C6.71019 18.0937 7.4736 19.132 8.49441 19.8678C9.51522 20.6036 10.7417 20.9995 12 20.9995C13.2583 20.9995 14.4848 20.6036 15.5056 19.8678C16.5264 19.132 17.2898 18.0937 17.6877 16.8999H18C18.2916 16.9002 18.5712 17.0162 18.7775 17.2225C18.9837 17.4287 19.0997 17.7083 19.1 17.9999V20.9999H20.9V17.9999C20.899 17.2311 20.5931 16.4941 20.0495 15.9504C19.5059 15.4068 18.7688 15.1009 18 15.0999H17.995C17.995 15.0664 18 15.0339 18 14.9999V12.8999ZM9.6186 6.70923C9.6186 6.07765 9.8695 5.47193 10.3161 5.02533C10.7627 4.57873 11.3684 4.32783 12 4.32783C12.6316 4.32783 13.2373 4.57873 13.6839 5.02533C14.1305 5.47193 14.3814 6.07765 14.3814 6.70923V6.99993H9.6186V6.70923ZM7.8 14.9999V8.79993H11.1V19.0974C10.1658 18.8918 9.32971 18.3737 8.72972 17.6288C8.12974 16.8838 7.80178 15.9565 7.8 14.9999ZM16.2 14.9999C16.1982 15.9565 15.8703 16.8838 15.2703 17.6288C14.6703 18.3737 13.8342 18.8918 12.9 19.0974V8.79993H16.2V14.9999Z" fill="black"/>
</svg>
