<svg width="24" height="24" viewBox="0 0 24 24" fill="none" xmlns="http://www.w3.org/2000/svg">
<g clip-path="url(#clip0)">
<path d="M20.2711 6.69318C20.551 6.51283 20.7812 6.26519 20.9406 5.9729C21.1 5.68062 21.1837 5.35302 21.1838 5.02008V4.33008H20.5756L20.1978 5.10258C20.1229 5.25275 20.0077 5.37909 19.865 5.46741C19.7223 5.55573 19.5578 5.60254 19.39 5.60258H16.1481C15.9803 5.60255 15.8158 5.55575 15.6731 5.46743C15.5304 5.37911 15.4152 5.25276 15.3403 5.10258L14.9625 4.33008H14.3542V5.02008C14.3542 5.54945 14.5645 6.05714 14.9388 6.43146C15.3131 6.80579 15.8208 7.01608 16.3502 7.01608H16.7802L16.2882 8.02348H4.8854C4.45368 8.02347 4.02705 8.11665 3.63463 8.29664C3.24222 8.47663 2.89328 8.7392 2.61164 9.0664C2.33001 9.39361 2.12231 9.77775 2.00274 10.1926C1.88316 10.6074 1.85454 11.0432 1.9188 11.4701L3.5035 22.0001H4.9225L4.699 18.4459L6.2249 16.0815L14.5392 17.0343L15.2831 22.0001H16.6522V16.8037L19.6667 10.6667H21.4358C21.6227 10.6667 21.8059 10.6143 21.9645 10.5155C22.1231 10.4166 22.2509 10.2753 22.3333 10.1076L22.8633 9.02938L20.2711 6.69318Z" fill="black"/>
</g>
<defs>
<clipPath id="clip0">
<rect width="24" height="24" fill="white"/>
</clipPath>
</defs>
</svg>
