<svg width="24" height="24" viewBox="0 0 24 24" fill="none" xmlns="http://www.w3.org/2000/svg">
<g clip-path="url(#clip0)">
<path d="M20.2711 6.69318C20.551 6.51283 20.7811 6.26519 20.9406 5.9729C21.1 5.68062 21.1836 5.35302 21.1838 5.02008V4.33008H20.7415L20.3158 5.14788C20.222 5.32793 20.0807 5.47881 19.9071 5.58413C19.7336 5.68944 19.5345 5.74514 19.3315 5.74518H16.2066C16.0036 5.74514 15.8045 5.68944 15.6309 5.58413C15.4574 5.47881 15.3161 5.32793 15.2223 5.14788L14.7966 4.33008H14.3542V5.02008C14.3542 5.54945 14.5645 6.05714 14.9388 6.43146C15.3131 6.80579 15.8208 7.01608 16.3502 7.01608H16.7802L16.2882 8.02358H4.88539C4.45368 8.02358 4.02705 8.11675 3.63465 8.29673C3.24224 8.47672 2.89331 8.73928 2.61167 9.06647C2.33004 9.39367 2.12234 9.77779 2.00276 10.1926C1.88318 10.6074 1.85454 11.0432 1.91879 11.4701L3.50349 22.0001H4.74999L4.52659 18.4459L6.08489 16.0312L14.74 17.0568L15.4805 22.0001H16.6522V16.8037L19.6667 10.6667H21.4358C21.6227 10.6667 21.8058 10.6143 21.9645 10.5155C22.1231 10.4166 22.2509 10.2753 22.3333 10.1076L22.8633 9.02938L20.2711 6.69318Z" fill="black"/>
</g>
<defs>
<clipPath id="clip0">
<rect width="24" height="24" fill="white"/>
</clipPath>
</defs>
</svg>
