<svg width="24" height="24" viewBox="0 0 24 24" fill="none" xmlns="http://www.w3.org/2000/svg">
<path d="M16.7086 11.5118C16.9872 11.2332 17.2082 10.9025 17.3589 10.5385C17.5097 10.1746 17.5873 9.78443 17.5873 9.39046C17.5873 8.99649 17.5097 8.60637 17.3589 8.24239C17.2082 7.87841 16.9872 7.54769 16.7086 7.26911L16.2427 6.80311L16.7086 6.33721C17.2671 5.77377 17.5798 5.01203 17.578 4.21865C17.5763 3.42528 17.2604 2.66489 16.6994 2.10388C16.1384 1.54287 15.3781 1.22692 14.5847 1.22516C13.7913 1.2234 13.0296 1.53599 12.4661 2.09451L12 2.56051L11.5341 2.09451C10.9715 1.5319 10.2084 1.21582 9.41274 1.21582C8.61708 1.21582 7.854 1.5319 7.29139 2.09451C6.72877 2.65713 6.41269 3.4202 6.41269 4.21586C6.41269 5.01152 6.72877 5.7746 7.29139 6.33721L7.75729 6.80311L7.29139 7.26911C6.75013 7.80743 6.43507 8.53225 6.41071 9.29524C6.38634 10.0582 6.6545 10.8017 7.16031 11.3734C7.66612 11.9452 8.37132 12.302 9.13159 12.3709C9.89185 12.4397 10.6497 12.2154 11.25 11.7438V16H6.49999V17.7344L7.61109 23H16.3889L17.5 17.7344V16H12.75V11.7437C13.3242 12.1953 14.0439 12.4211 14.7733 12.3784C15.5026 12.3357 16.191 12.0274 16.7086 11.5118ZM10.05 6.80321C10.05 6.41742 10.1644 6.04029 10.3787 5.71952C10.5931 5.39875 10.8977 5.14875 11.2542 5.00114C11.6106 4.85352 12.0028 4.81493 12.3812 4.89023C12.7596 4.96553 13.1071 5.15135 13.3799 5.42418C13.6526 5.69701 13.8384 6.0446 13.9136 6.423C13.9888 6.80139 13.9501 7.19358 13.8024 7.54998C13.6547 7.90638 13.4046 8.21097 13.0838 8.42524C12.7629 8.6395 12.3858 8.75381 12 8.75371C11.4828 8.75358 10.9868 8.54802 10.6211 8.18225C10.2554 7.81647 10.05 7.32043 10.05 6.80321Z" fill="black"/>
</svg>
