<svg width="24" height="24" viewBox="0 0 24 24" fill="none" xmlns="http://www.w3.org/2000/svg">
<path d="M12 5.86742C11.7429 5.86742 11.4915 5.94367 11.2778 6.08651C11.064 6.22936 10.8974 6.43239 10.799 6.66994C10.7006 6.90748 10.6748 7.16887 10.725 7.42104C10.7751 7.67322 10.899 7.90485 11.0808 8.08666C11.2626 8.26847 11.4942 8.39228 11.7464 8.44245C11.9986 8.49261 12.2599 8.46686 12.4975 8.36847C12.735 8.27007 12.9381 8.10345 13.0809 7.88967C13.2238 7.67588 13.3 7.42454 13.3 7.16742C13.3 6.82264 13.163 6.49198 12.9192 6.24819C12.6754 6.00439 12.3448 5.86742 12 5.86742ZM18.8429 13.9998C17.5868 13.9865 16.3512 14.3184 15.2709 14.9593C14.1906 15.6003 13.3071 16.5256 12.7168 17.6344V12.8287C13.2401 13.1025 13.8213 13.2475 14.4119 13.2514C14.8942 13.2522 15.372 13.1576 15.8176 12.973C16.2632 12.7884 16.6679 12.5174 17.0083 12.1757C17.664 11.5176 18.0474 10.6364 18.0818 9.70801C18.1163 8.77962 17.7993 7.8724 17.1941 7.16752C17.7997 6.46317 18.1168 5.55598 18.0819 4.62771C18.047 3.69944 17.6626 2.81865 17.0057 2.16179C16.3489 1.50494 15.4681 1.12055 14.5398 1.08562C13.6116 1.05068 12.7044 1.3678 12 1.97342C11.3278 1.39899 10.4725 1.08338 9.5883 1.08342C8.88382 1.08416 8.19435 1.28709 7.6018 1.66812C7.00925 2.04914 6.53852 2.59224 6.24552 3.23291C5.95253 3.87357 5.84958 4.58487 5.94892 5.28232C6.04825 5.97976 6.34569 6.63404 6.8059 7.16742C6.24276 7.81319 5.92323 8.6356 5.90266 9.49218C5.88209 10.3488 6.16178 11.1855 6.69328 11.8576C7.22478 12.5297 7.97461 12.9946 8.81288 13.172C9.65115 13.3494 10.525 13.2279 11.2832 12.8287V17.6344C10.6929 16.5256 9.8094 15.6003 8.72909 14.9593C7.64878 14.3184 6.41317 13.9865 5.1571 13.9998H3.7171V15.4398C3.7171 17.4449 4.5136 19.3678 5.93137 20.7856C7.34915 22.2033 9.27207 22.9998 11.2771 22.9998H12.7247C13.7175 22.9998 14.7006 22.8043 15.6178 22.4244C16.535 22.0444 17.3684 21.4876 18.0704 20.7856C18.7724 20.0835 19.3293 19.2501 19.7092 18.3329C20.0892 17.4157 20.2847 16.4326 20.2847 15.4398V13.9998H18.8429ZM11.0417 21.5588C9.49995 21.4999 8.03727 20.8611 6.94629 19.7701C5.85531 18.6792 5.21648 17.2165 5.1576 15.6747C5.1547 15.6293 5.1526 15.4804 5.1514 15.4347C5.1973 15.436 5.3461 15.4381 5.3914 15.441C6.93315 15.4999 8.39581 16.1387 9.48677 17.2297C10.5777 18.3207 11.2165 19.7834 11.2754 21.3251C11.2784 21.3706 11.2806 21.5194 11.2818 21.5651C11.2361 21.5639 11.0872 21.5618 11.0417 21.5588ZM11.0591 11.2582C10.6489 11.6082 10.1275 11.8008 9.5883 11.8014C9.16081 11.8007 8.74253 11.6771 8.38329 11.4454C8.02406 11.2136 7.739 10.8835 7.56208 10.4943C7.38515 10.1052 7.32382 9.67334 7.38538 9.2503C7.44694 8.82726 7.6288 8.43083 7.9093 8.10822L8.7114 7.16742L7.9093 6.22662C7.62884 5.90403 7.44701 5.50763 7.38546 5.08462C7.32391 4.66161 7.38524 4.22983 7.56213 3.84069C7.73903 3.45154 8.02404 3.12144 8.38323 2.88969C8.74241 2.65795 9.16064 2.53431 9.5881 2.53352C10.1274 2.53408 10.6488 2.72661 11.0591 3.07662L12 3.87902L12.9408 3.07672C13.3511 2.72665 13.8726 2.53408 14.4119 2.53352C14.8394 2.53431 15.2576 2.65795 15.6168 2.88969C15.976 3.12144 16.261 3.45154 16.4379 3.84069C16.6148 4.22983 16.6761 4.66161 16.6145 5.08462C16.553 5.50763 16.3712 5.90403 16.0907 6.22662L15.2886 7.16742L16.0907 8.10822C16.3712 8.43082 16.553 8.82723 16.6146 9.25025C16.6762 9.67328 16.6149 10.1051 16.438 10.4942C16.2611 10.8834 15.976 11.2135 15.6168 11.4453C15.2576 11.677 14.8394 11.8007 14.4119 11.8014C13.8726 11.8009 13.3511 11.6083 12.9408 11.2582L12 10.4559L11.0591 11.2582ZM18.8424 15.6747C18.7835 17.2165 18.1447 18.6792 17.0537 19.7701C15.9627 20.8611 14.5001 21.4999 12.9583 21.5588C12.9128 21.5618 12.7639 21.5639 12.7183 21.5652C12.7195 21.5191 12.7217 21.3703 12.7247 21.3252C12.7836 19.7835 13.4224 18.3208 14.5133 17.2298C15.6043 16.1388 17.067 15.5 18.6087 15.4411C18.6542 15.4382 18.803 15.4361 18.8487 15.4348C18.8474 15.4804 18.8455 15.6298 18.8424 15.6747Z" fill="black"/>
</svg>
