<svg width="24" height="24" viewBox="0 0 24 24" fill="none" xmlns="http://www.w3.org/2000/svg">
<path d="M13.9506 6.80318C13.9506 6.41739 13.8362 6.04025 13.6219 5.71946C13.4076 5.39867 13.103 5.14864 12.7465 5.00099C12.3901 4.85334 11.9979 4.8147 11.6195 4.88995C11.2411 4.9652 10.8936 5.15097 10.6208 5.42377C10.3479 5.69656 10.1622 6.04412 10.0869 6.4225C10.0116 6.80089 10.0502 7.19309 10.1979 7.54952C10.3455 7.90595 10.5955 8.2106 10.9163 8.42494C11.2371 8.63928 11.6142 8.75368 12 8.75368C12.5173 8.75368 13.0134 8.54819 13.3792 8.1824C13.7451 7.81661 13.9506 7.3205 13.9506 6.80318ZM12 8.25368C11.7131 8.25368 11.4326 8.16859 11.194 8.00917C10.9555 7.84975 10.7695 7.62316 10.6598 7.35806C10.55 7.09297 10.5213 6.80127 10.5773 6.51986C10.6333 6.23846 10.7716 5.97999 10.9745 5.77714C11.1774 5.5743 11.4359 5.43619 11.7174 5.38028C11.9988 5.32438 12.2905 5.35319 12.5555 5.46308C12.8206 5.57296 13.0471 5.75898 13.2064 5.99761C13.3657 6.23624 13.4507 6.51676 13.4506 6.80368C13.45 7.18817 13.297 7.55674 13.0251 7.82856C12.7531 8.10038 12.3845 8.25326 12 8.25368ZM19.9408 14C18.2235 13.9984 16.5507 14.5462 15.167 15.5633C13.7833 16.5803 12.7611 18.0133 12.25 19.6528V11.2957L12.4661 11.5118C13.0296 12.0703 13.7913 12.3829 14.5847 12.3811C15.3781 12.3794 16.1384 12.0634 16.6994 11.5024C17.2604 10.9414 17.5763 10.181 17.5781 9.38764C17.5798 8.59427 17.2671 7.83252 16.7086 7.26908L16.2427 6.80308L16.7086 6.33718C16.9892 6.05906 17.2121 5.72825 17.3645 5.36376C17.5169 4.99926 17.5958 4.60825 17.5966 4.21318C17.5975 3.81811 17.5203 3.42676 17.3696 3.06159C17.2188 2.69643 16.9974 2.36464 16.718 2.08527C16.4387 1.80591 16.1069 1.58447 15.7417 1.43368C15.3766 1.28288 14.9852 1.20569 14.5901 1.20655C14.1951 1.20741 13.8041 1.28629 13.4396 1.43866C13.0751 1.59104 12.7442 1.81391 12.4661 2.09448L12 2.56048L11.5341 2.09448C10.9715 1.53187 10.2084 1.21579 9.41275 1.21579C8.61709 1.21579 7.85402 1.53187 7.2914 2.09448C6.72878 2.6571 6.41271 3.42017 6.41271 4.21583C6.41271 5.01149 6.72878 5.77457 7.2914 6.33718L7.7573 6.80308L7.2914 7.26908C6.72878 7.8317 6.41271 8.59477 6.41271 9.39043C6.41271 10.1861 6.72878 10.9492 7.2914 11.5118C7.85402 12.0744 8.61709 12.3905 9.41275 12.3905C10.2084 12.3905 10.9715 12.0744 11.5341 11.5118L11.75 11.2958V19.6526C11.2388 18.0132 10.2167 16.5802 8.83293 15.5632C7.44921 14.5462 5.77647 13.9984 4.0592 14H3.25V14.8092C3.25 16.9815 4.11296 19.0649 5.64903 20.601C7.1851 22.137 9.26846 23 11.4408 23H12.5592C13.6348 23 14.6999 22.7881 15.6937 22.3765C16.6874 21.9649 17.5904 21.3616 18.351 20.601C19.1116 19.8404 19.7149 18.9375 20.1265 17.9438C20.5381 16.95 20.75 15.8849 20.75 14.8093V14H19.9408ZM11.75 22.5H11.4408C9.40182 22.4975 7.44705 21.6865 6.00527 20.2447C4.5635 18.8029 3.75243 16.8482 3.75 14.8092V14.5H4.0592C6.09816 14.5024 8.05292 15.3135 9.49469 16.7552C10.9365 18.197 11.7475 20.1517 11.75 22.1907V22.5ZM11.6464 10.6923L11.1805 11.1582C10.9483 11.3903 10.6727 11.5745 10.3694 11.7001C10.0661 11.8257 9.74102 11.8904 9.41271 11.8904C9.08441 11.8904 8.75932 11.8257 8.456 11.7001C8.15269 11.5744 7.87709 11.3903 7.64495 11.1581C7.41281 10.926 7.22866 10.6504 7.10303 10.3471C6.97739 10.0437 6.91273 9.71865 6.91274 9.39035C6.91274 9.06204 6.97741 8.73695 7.10305 8.43364C7.2287 8.13032 7.41285 7.85473 7.645 7.62258L8.1108 7.15658L8.4644 6.80308L8.1108 6.44998L7.6449 5.98408C7.17598 5.5153 6.9125 4.87944 6.9124 4.21639C6.91231 3.55333 7.17562 2.9174 7.6444 2.44848C8.11318 1.97957 8.74904 1.71608 9.4121 1.71599C10.0751 1.71589 10.7111 1.9792 11.18 2.44798L11.646 2.91398L12 3.26758L12.82 2.44758C13.2888 1.97875 13.9247 1.71536 14.5878 1.71537C15.2508 1.71538 15.8867 1.97878 16.3556 2.44763C16.8244 2.91648 17.0878 3.55237 17.0878 4.21542C17.0878 4.87846 16.8243 5.51435 16.3555 5.98318L15.8896 6.44908L15.536 6.80268L15.8896 7.15618L16.3555 7.62218C16.8244 8.09102 17.0879 8.72692 17.0879 9.39001C17.0879 10.0531 16.8246 10.689 16.3557 11.1579C15.8869 11.6268 15.251 11.8903 14.5879 11.8903C13.9248 11.8904 13.2889 11.627 12.82 11.1582L12.3539 10.6922L12 10.3387L11.6464 10.6923ZM20.25 14.8093C20.2475 16.8482 19.4365 18.803 17.9947 20.2447C16.5529 21.6865 14.5982 22.4975 12.5592 22.5H12.25V22.1907C12.2525 20.1517 13.0635 18.197 14.5053 16.7552C15.9471 15.3135 17.9018 14.5024 19.9408 14.5H20.25V14.8093Z" fill="black"/>
</svg>
