<svg width="24" height="24" viewBox="0 0 24 24" fill="none" xmlns="http://www.w3.org/2000/svg">
<path d="M11.9982 9.5476C11.5599 9.54758 11.1314 9.67754 10.767 9.92103C10.4025 10.1645 10.1185 10.5106 9.95072 10.9156C9.78298 11.3205 9.73908 11.7661 9.82457 12.196C9.91007 12.6259 10.1211 13.0207 10.4311 13.3307C10.741 13.6406 11.1358 13.8517 11.5657 13.9372C11.9956 14.0227 12.4412 13.9788 12.8461 13.8111C13.2511 13.6434 13.5972 13.3593 13.8407 12.9949C14.0842 12.6305 14.2142 12.202 14.2142 11.7637C14.2142 11.176 13.9807 10.6123 13.5652 10.1967C13.1496 9.78112 12.5859 9.54763 11.9982 9.5476ZM11.9982 13.063C11.7412 13.063 11.49 12.9868 11.2763 12.8441C11.0626 12.7013 10.896 12.4983 10.7976 12.2609C10.6993 12.0235 10.6735 11.7622 10.7237 11.5101C10.7738 11.2581 10.8976 11.0265 11.0793 10.8448C11.261 10.6631 11.4926 10.5393 11.7446 10.4892C11.9967 10.439 12.258 10.4648 12.4954 10.5631C12.7328 10.6615 12.9358 10.8281 13.0786 11.0418C13.2213 11.2555 13.2975 11.5067 13.2975 11.7637C13.2971 12.1082 13.1601 12.4384 12.9165 12.682C12.6729 12.9256 12.3427 13.0626 11.9982 13.063ZM22.1729 11.9873C21.858 11.6148 21.4175 11.3706 20.9347 11.3009C20.4518 11.2313 19.9603 11.341 19.5529 11.6094C19.2932 11.7761 18.9831 11.846 18.677 11.8066V11.7734C18.6757 10.7719 18.4487 9.78353 18.0129 8.8818C18.2245 8.74408 18.4714 8.67049 18.7238 8.6699C18.7944 8.67041 18.865 8.67596 18.9348 8.6865C19.3174 8.73356 19.7054 8.66819 20.0515 8.49838C20.3975 8.32856 20.6867 8.06165 20.8835 7.73024C21.0804 7.39883 21.1765 7.01726 21.1601 6.63213C21.1437 6.247 21.0155 5.87498 20.7912 5.5615C20.6789 5.4015 20.5598 5.2415 20.4348 5.084C20.3107 4.9297 20.1848 4.7773 20.0548 4.6309C19.8692 4.41831 19.6402 4.24804 19.3831 4.13162C19.1261 4.01521 18.847 3.95535 18.5648 3.9561C18.0689 3.95885 17.5917 4.14573 17.2259 4.48046C16.86 4.8152 16.6315 5.27392 16.5848 5.7676C16.5522 6.07437 16.4133 6.36007 16.1922 6.5752C15.3975 5.93443 14.4661 5.48501 13.47 5.2617C13.5017 4.94146 13.6493 4.64384 13.8851 4.4248C14.1606 4.15453 14.3513 3.80982 14.4339 3.43284C14.5165 3.05586 14.4875 2.66298 14.3503 2.30227C14.2131 1.94156 13.9737 1.62867 13.6614 1.40189C13.3492 1.17511 12.9776 1.04428 12.5921 1.0254C12.1977 1.0039 11.8024 1.0039 11.408 1.0254C11.0193 1.04447 10.6448 1.17737 10.3311 1.40756C10.0173 1.63776 9.77814 1.9551 9.64328 2.32013C9.50843 2.68517 9.48385 3.08179 9.57259 3.46068C9.66133 3.83957 9.85948 4.18402 10.1424 4.4512C10.3631 4.6673 10.5006 4.95429 10.5306 5.2617C9.54274 5.48435 8.61849 5.92891 7.8279 6.5617C7.59903 6.33639 7.45898 6.03616 7.4334 5.716C7.3937 5.33211 7.24302 4.96811 6.99977 4.66848C6.75652 4.36884 6.43125 4.14657 6.06371 4.02883C5.69618 3.91108 5.3023 3.90296 4.93022 4.00546C4.55815 4.10797 4.22399 4.31665 3.96861 4.606C3.83921 4.7525 3.71121 4.9019 3.58571 5.0591C3.4622 5.2163 3.3431 5.3735 3.2308 5.5317C3.01803 5.82724 2.89062 6.1756 2.86251 6.53868C2.8344 6.90175 2.90667 7.26557 3.07142 7.59034C3.23617 7.91511 3.48705 8.18832 3.79662 8.3801C4.1062 8.57187 4.46255 8.67483 4.82671 8.6777C4.92293 8.67757 5.01903 8.67072 5.1143 8.6572C5.42305 8.62096 5.73482 8.69277 5.9966 8.8604C5.55435 9.76786 5.32395 10.7639 5.32281 11.7734V11.7834C5.00427 11.8208 4.68288 11.7428 4.417 11.5634C4.00936 11.3077 3.52357 11.2066 3.04776 11.2785C2.57196 11.3503 2.13767 11.5903 1.8237 11.955C1.63594 12.1759 1.49946 12.4357 1.42407 12.7156C1.34868 12.9956 1.33626 13.2888 1.3877 13.5741C1.42044 13.7685 1.459 13.9632 1.5034 14.1581C1.5474 14.3505 1.59624 14.5419 1.6499 14.7323C1.76677 15.1516 2.01828 15.5208 2.36567 15.783C2.71306 16.0453 3.13705 16.186 3.5723 16.1835C3.91589 16.1836 4.25348 16.0936 4.55139 15.9224C4.84929 15.7512 5.09708 15.5049 5.27 15.208C5.43364 14.9438 5.68496 14.7456 5.98 14.648C6.41597 15.5609 7.05378 16.3627 7.8452 16.9928C7.67754 17.268 7.41519 17.4725 7.1074 17.568C6.74164 17.6908 6.4196 17.9176 6.18071 18.2206C5.94182 18.5236 5.79643 18.8896 5.76234 19.2739C5.72824 19.6583 5.80693 20.0442 5.98875 20.3845C6.17058 20.7248 6.44767 21.0047 6.7861 21.19C6.95944 21.2866 7.13541 21.3781 7.314 21.4644C7.49321 21.5513 7.67401 21.6323 7.854 21.7075C8.27531 21.8802 8.74256 21.9055 9.18008 21.7795C9.6176 21.6535 9.99977 21.3835 10.2647 21.0132C10.4483 20.748 10.5645 20.442 10.6031 20.1217C10.6417 19.8014 10.6016 19.4766 10.4863 19.1753C10.3819 18.8837 10.3833 18.5646 10.4902 18.2739C11.476 18.5063 12.5021 18.5084 13.4888 18.2798C13.5989 18.5831 13.5941 18.9163 13.4751 19.2163C13.3642 19.5139 13.3276 19.834 13.3682 20.149C13.4089 20.4639 13.5257 20.7642 13.7085 21.0239C13.9681 21.3979 14.3483 21.6714 14.7855 21.7985C15.2227 21.9256 15.6902 21.8987 16.1099 21.7222C16.2915 21.648 16.4728 21.5673 16.6538 21.48C16.8306 21.3941 17.0073 21.3042 17.1792 21.21C17.5214 21.0249 17.8016 20.7432 17.9851 20.4001C18.1685 20.057 18.247 19.6675 18.2109 19.2801C18.1748 18.8928 18.0256 18.5245 17.782 18.2212C17.5383 17.9179 17.2108 17.6929 16.8403 17.5742C16.5467 17.4743 16.2979 17.2736 16.1382 17.0078C16.9319 16.3797 17.5727 15.5796 18.0122 14.6678C18.3179 14.7711 18.5754 14.9821 18.7368 15.2615C18.9112 15.5521 19.158 15.7924 19.4531 15.9589C19.7482 16.1254 20.0815 16.2125 20.4204 16.2115C20.8539 16.2144 21.2764 16.0749 21.6231 15.8146C21.9697 15.5542 22.2214 15.1873 22.3394 14.7701C22.395 14.5807 22.4448 14.3873 22.4888 14.193C22.5328 13.9987 22.5728 13.8082 22.6069 13.6119C22.6596 13.3259 22.648 13.0317 22.573 12.7507C22.4979 12.4697 22.3613 12.2089 22.1729 11.9873ZM21.5137 13.9717C21.4737 14.1455 21.4297 14.3193 21.3789 14.4912C21.32 14.6997 21.1942 14.8832 21.021 15.0133C20.8478 15.1435 20.6366 15.2133 20.4199 15.2119C20.2528 15.2121 20.0884 15.1688 19.9431 15.0863C19.7977 15.0038 19.6763 14.8848 19.5908 14.7412C19.4311 14.4703 19.2179 14.2347 18.9642 14.0489C18.7105 13.863 18.4217 13.7308 18.1152 13.6602L17.4199 13.5029L17.2607 13.8965C16.8433 14.9268 16.1334 15.8125 15.2187 16.4443L14.8662 16.6875L15.1768 17.3291C15.3099 17.6071 15.4972 17.8557 15.7276 18.0605C15.958 18.2652 16.2269 18.422 16.5186 18.5215C16.7071 18.5761 16.8746 18.6867 16.999 18.8385C17.1233 18.9904 17.1986 19.1765 17.2148 19.3721C17.2328 19.5653 17.1934 19.7596 17.1015 19.9305C17.0096 20.1015 16.8693 20.2415 16.6982 20.333C16.542 20.4189 16.3809 20.501 16.2182 20.5791C16.0555 20.6572 15.893 20.7291 15.7282 20.7979C15.5182 20.8842 15.2852 20.8967 15.0672 20.8333C14.8493 20.77 14.6592 20.6346 14.5282 20.4492C14.4374 20.3216 14.3795 20.1735 14.3598 20.0181C14.34 19.8627 14.359 19.7049 14.415 19.5586C14.528 19.2653 14.5799 18.9521 14.5675 18.638C14.555 18.324 14.4785 18.0158 14.3427 17.7324L14.0341 17.0869L13.6241 17.21C12.5597 17.531 11.424 17.5286 10.361 17.2031L9.951 17.0781L9.639 17.7236C9.50569 18.0013 9.42884 18.3027 9.41291 18.6103C9.39698 18.9179 9.44229 19.2256 9.5462 19.5156C9.60801 19.6655 9.63124 19.8286 9.61378 19.9898C9.59631 20.151 9.53869 20.3053 9.44621 20.4385C9.31507 20.625 9.12405 20.761 8.9049 20.8239C8.68576 20.8868 8.45169 20.8728 8.2416 20.7842C8.0771 20.7158 7.914 20.6426 7.7499 20.5635C7.5888 20.4854 7.4299 20.4035 7.2719 20.3154C7.10142 20.2233 6.96197 20.0828 6.8711 19.9117C6.78023 19.7405 6.742 19.5463 6.7612 19.3535C6.77677 19.1638 6.84827 18.9831 6.96666 18.8341C7.08504 18.6851 7.24497 18.5746 7.4262 18.5166C7.72523 18.421 8.00167 18.2655 8.23873 18.0597C8.47578 17.8539 8.66848 17.602 8.80511 17.3193L9.1151 16.6768L8.7651 16.4326C7.85241 15.7981 7.14584 14.9099 6.7329 13.8779L6.5737 13.4805L5.876 13.6405C5.57597 13.7096 5.29262 13.8376 5.04235 14.0169C4.79209 14.1963 4.57988 14.4235 4.41801 14.6854C4.32166 14.8549 4.17717 14.992 4.00286 15.0792C3.82854 15.1665 3.63224 15.2001 3.43881 15.1758C3.24539 15.1514 3.06355 15.0702 2.91632 14.9424C2.7691 14.8146 2.66312 14.646 2.6118 14.4579C2.563 14.286 2.5181 14.1122 2.4785 13.9364C2.4389 13.7606 2.40381 13.5849 2.3735 13.4071C2.34661 13.2651 2.35191 13.1189 2.38902 12.9792C2.42612 12.8395 2.49409 12.7099 2.5879 12.6C2.74246 12.4172 2.95801 12.2966 3.19465 12.2605C3.43129 12.2244 3.67299 12.2753 3.87501 12.4037C4.13664 12.5768 4.43048 12.6953 4.73897 12.7522C5.04746 12.8091 5.36425 12.8032 5.6704 12.7348L6.3647 12.5785L6.3359 12.15C6.3271 12.026 6.3228 11.899 6.3228 11.773C6.32415 10.7899 6.58123 9.82401 7.0688 8.9703L7.28 8.5986L6.7214 8.1523C6.48107 7.95907 6.20422 7.81631 5.90743 7.73258C5.61063 7.64885 5.29999 7.62586 4.99411 7.665C4.93861 7.67256 4.88271 7.6768 4.82671 7.6777C4.64594 7.67491 4.46943 7.62247 4.31646 7.52612C4.16349 7.42977 4.03995 7.29322 3.95936 7.1314C3.87876 6.96957 3.8442 6.78871 3.85947 6.60857C3.87473 6.42843 3.93923 6.25596 4.0459 6.11C4.1484 5.9644 4.2568 5.8209 4.3682 5.6812C4.4814 5.5396 4.59771 5.4019 4.71531 5.2701C4.80669 5.16378 4.9201 5.07859 5.04766 5.02041C5.17522 4.96224 5.31391 4.93249 5.4541 4.9332C5.69845 4.9313 5.93472 5.02062 6.11669 5.18371C6.29866 5.3468 6.41324 5.57191 6.438 5.815C6.4643 6.12848 6.55431 6.4333 6.70254 6.71078C6.85076 6.98825 7.05406 7.23255 7.3 7.4287L7.8557 7.8701L8.17 7.583C8.99154 6.83295 10.0154 6.3409 11.1143 6.168L11.5362 6.1006V5.3877C11.5357 5.07987 11.4738 4.77522 11.3543 4.49154C11.2347 4.20785 11.0599 3.95081 10.84 3.7354C10.6935 3.60463 10.5902 3.43244 10.5438 3.24165C10.4974 3.05086 10.51 2.85046 10.58 2.667C10.6471 2.48506 10.7664 2.32696 10.9229 2.21248C11.0795 2.098 11.2663 2.03223 11.46 2.0234C11.8184 2.0059 12.1822 2.0059 12.5387 2.0234C12.7324 2.03182 12.9193 2.09745 13.0757 2.212C13.2321 2.32655 13.3511 2.48488 13.4176 2.667C13.486 2.84441 13.5004 3.03808 13.459 3.22365C13.4177 3.40923 13.3224 3.57844 13.1851 3.71C12.9568 3.92569 12.7751 4.18578 12.651 4.47429C12.5269 4.7628 12.4631 5.07364 12.4635 5.3877V6.1016L12.8858 6.168C13.9921 6.34085 15.0222 6.83807 15.8458 7.5967L16.1603 7.8867L16.7159 7.4434C16.9567 7.25159 17.1569 7.01379 17.305 6.74387C17.453 6.47394 17.5459 6.17726 17.5782 5.8711C17.5974 5.6225 17.7096 5.39027 17.8925 5.22069C18.0753 5.05111 18.3153 4.95664 18.5646 4.9561C18.7054 4.95596 18.8445 4.98615 18.9726 5.04461C19.1006 5.10308 19.2146 5.18844 19.3067 5.2949C19.4267 5.4297 19.5411 5.5684 19.6524 5.708C19.7637 5.8476 19.8724 5.9932 19.9747 6.1387C20.0836 6.28601 20.1485 6.46112 20.162 6.64379C20.1755 6.82646 20.137 7.00921 20.0509 7.1709C19.9552 7.34651 19.8096 7.48985 19.6325 7.58283C19.4554 7.67582 19.2547 7.71429 19.0558 7.6934C18.9457 7.67845 18.8348 7.6706 18.7237 7.6699C18.2039 7.67124 17.6997 7.84734 17.2921 8.1699L16.7306 8.6152L16.9406 8.9873C17.4215 9.83726 17.6751 10.7968 17.677 11.7734C17.677 11.9062 17.6721 12.0381 17.6623 12.1699L17.6311 12.5967L18.3311 12.7598C18.6305 12.8281 18.9405 12.836 19.243 12.783C19.5455 12.73 19.8344 12.6172 20.0928 12.4512C20.2533 12.3412 20.4428 12.2812 20.6373 12.2786C20.8319 12.276 21.0229 12.3309 21.1863 12.4365C21.3497 12.5421 21.4783 12.6937 21.5558 12.8721C21.6333 13.0506 21.6564 13.248 21.6221 13.4395C21.5898 13.6172 21.5537 13.7946 21.5137 13.9717Z" fill="black"/>
</svg>
