<svg width="24" height="24" viewBox="0 0 24 24" fill="none" xmlns="http://www.w3.org/2000/svg">
<path d="M15.3537 5.00065C14.3374 4.98566 13.3321 5.21184 12.4202 5.66065C12.4909 5.1202 12.6266 4.59025 12.8242 4.08225C13.1308 3.35855 13.553 2.68944 14.0742 2.10105L13.0392 1.31445C12.5207 2.06152 12.1269 2.8878 11.8733 3.76105C11.7051 4.37777 11.6144 5.01302 11.6033 5.65215C10.6961 5.20924 9.69739 4.98606 8.68797 5.00065C7.78199 4.99342 6.88416 5.17209 6.04998 5.52562C5.21581 5.87915 4.46301 6.40003 3.83813 7.05605C3.21325 7.71208 2.72957 8.4893 2.417 9.33968C2.10443 10.1901 1.96961 11.0955 2.02087 12.0001C2.02087 16.9939 5.52227 23.3901 10.9003 21.7483C11.26 21.6134 11.6375 21.5318 12.0209 21.506C12.4042 21.5318 12.7816 21.6134 13.1414 21.7483C18.5193 23.3905 22.0214 16.9939 22.0214 12.0001C22.0726 11.0955 21.9378 10.19 21.6251 9.33955C21.3125 8.48914 20.8288 7.71189 20.2039 7.05586C19.5789 6.39984 18.8261 5.87897 17.9918 5.52547C17.1576 5.17197 16.2597 4.99335 15.3537 5.00065Z" fill="black"/>
</svg>
