<svg width="24" height="24" viewBox="0 0 24 24" fill="none" xmlns="http://www.w3.org/2000/svg">
<path d="M14.8448 9.14C14.5481 9.14 14.2581 9.22797 14.0114 9.3928C13.7648 9.55762 13.5725 9.79189 13.459 10.066C13.3454 10.3401 13.3157 10.6417 13.3736 10.9326C13.4315 11.2236 13.5744 11.4909 13.7841 11.7007C13.9939 11.9104 14.2612 12.0533 14.5522 12.1112C14.8431 12.1691 15.1447 12.1393 15.4188 12.0258C15.6929 11.9123 15.9272 11.72 16.092 11.4734C16.2568 11.2267 16.3448 10.9367 16.3448 10.64C16.3448 10.2422 16.1868 9.86064 15.9055 9.57934C15.6242 9.29804 15.2426 9.14 14.8448 9.14ZM14.8448 11.24C14.7261 11.24 14.6101 11.2048 14.5115 11.1389C14.4128 11.073 14.3359 10.9792 14.2905 10.8696C14.2451 10.76 14.2332 10.6393 14.2563 10.5229C14.2795 10.4066 14.3366 10.2996 14.4205 10.2157C14.5044 10.1318 14.6114 10.0747 14.7277 10.0515C14.8441 10.0284 14.9648 10.0403 15.0744 10.0857C15.184 10.1311 15.2778 10.208 15.3437 10.3067C15.4096 10.4053 15.4448 10.5213 15.4448 10.64C15.4446 10.7991 15.3813 10.9516 15.2689 11.0641C15.1564 11.1765 15.0039 11.2398 14.8448 11.24ZM9.1548 9.14C8.85813 9.14 8.56812 9.22797 8.32144 9.3928C8.07477 9.55762 7.88251 9.79189 7.76898 10.066C7.65545 10.3401 7.62574 10.6417 7.68362 10.9326C7.7415 11.2236 7.88436 11.4909 8.09414 11.7007C8.30392 11.9104 8.57119 12.0533 8.86216 12.1112C9.15314 12.1691 9.45474 12.1393 9.72883 12.0258C10.0029 11.9123 10.2372 11.72 10.402 11.4734C10.5668 11.2267 10.6548 10.9367 10.6548 10.64C10.6548 10.2422 10.4968 9.86077 10.2156 9.57948C9.93438 9.29819 9.55296 9.14011 9.1552 9.14H9.1548ZM9.1548 11.24C9.03613 11.24 8.92013 11.2048 8.82146 11.1389C8.72279 11.073 8.64588 10.9792 8.60047 10.8696C8.55506 10.76 8.54318 10.6393 8.56633 10.5229C8.58948 10.4066 8.64662 10.2996 8.73054 10.2157C8.81445 10.1318 8.92136 10.0747 9.03775 10.0515C9.15413 10.0284 9.27477 10.0403 9.38441 10.0857C9.49405 10.1311 9.58775 10.208 9.65368 10.3067C9.71961 10.4053 9.7548 10.5213 9.7548 10.64C9.75461 10.799 9.6914 10.9514 9.579 11.0639C9.46661 11.1764 9.3142 11.2397 9.1552 11.24H9.1548ZM15.2423 3H8.7577C6.96545 3 5.2466 3.71197 3.97928 4.97928C2.71197 6.2466 2 7.96545 2 9.7577V13C2 13.7956 2.31607 14.5587 2.87868 15.1213C3.44129 15.6839 4.20435 16 5 16H5.5C5.5 17.5913 6.13214 19.1174 7.25736 20.2426C8.38258 21.3679 9.9087 22 11.5 22H12.5C14.0913 22 15.6174 21.3679 16.7426 20.2426C17.8679 19.1174 18.5 17.5913 18.5 16H19C19.7956 16 20.5587 15.6839 21.1213 15.1213C21.6839 14.5587 22 13.7956 22 13V9.7577C22 7.96545 21.288 6.2466 20.0207 4.97928C18.7534 3.71197 17.0346 3 15.2423 3ZM12.5 21.0667H11.5C10.7938 21.0649 10.0959 20.9145 9.45155 20.6254C8.80723 20.3363 8.2309 19.915 7.76 19.3887C8.1321 19.6078 8.55472 19.7266 8.9865 19.7334C9.60072 19.7313 10.2034 19.5662 10.7328 19.2548C11.2623 18.9435 11.6996 18.4971 12 17.9614C12.3004 18.4971 12.7376 18.9434 13.267 19.2548C13.7964 19.5661 14.399 19.7313 15.0132 19.7334C15.445 19.7266 15.8676 19.6078 16.2397 19.3887C15.7688 19.9149 15.1925 20.3363 14.5483 20.6254C13.904 20.9144 13.2062 21.0648 12.5 21.0667ZM11.0411 15.0062H12.9589C12.8943 15.2098 12.7665 15.3876 12.5941 15.5138C12.4217 15.64 12.2136 15.708 12 15.708C11.7864 15.708 11.5783 15.64 11.4059 15.5138C11.2335 15.3876 11.1057 15.2098 11.0411 15.0062ZM21.0667 13C21.0661 13.5479 20.8481 14.0732 20.4607 14.4607C20.0732 14.8481 19.5479 15.0661 19 15.0667H18.5V9.6C18.5 9.47743 18.4759 9.35606 18.429 9.24281C18.3821 9.12957 18.3133 9.02667 18.2267 8.93999C18.14 8.85332 18.0371 8.78456 17.9239 8.73765C17.8106 8.69074 17.6893 8.6666 17.5667 8.6666L17.56 16.0658C17.5541 16.3308 17.5273 16.595 17.48 16.8558C17.3408 17.4368 17.0008 17.95 16.52 18.3048C16.0393 18.6595 15.4486 18.833 14.8524 18.7946C14.2561 18.7562 13.6926 18.5084 13.2613 18.0949C12.83 17.6815 12.5586 17.1289 12.4951 16.5348C12.899 16.427 13.2562 16.189 13.5112 15.8576C13.7662 15.5263 13.9048 15.1202 13.9057 14.7021V14.1062H10.0941V14.7021C10.095 15.1202 10.2336 15.5263 10.4886 15.8576C10.7437 16.1889 11.1008 16.4269 11.5047 16.5348C11.4412 17.1289 11.1699 17.6814 10.7386 18.0949C10.3073 18.5084 9.74385 18.7562 9.14762 18.7947C8.55139 18.8331 7.96076 18.6596 7.47998 18.3049C6.99921 17.9502 6.65921 17.437 6.52 16.856C6.47256 16.5949 6.44581 16.3304 6.44 16.0651L6.4333 8.6666C6.31073 8.6666 6.18936 8.69074 6.07612 8.73765C5.96288 8.78456 5.85999 8.85332 5.77332 8.93999C5.68666 9.02667 5.61791 9.12957 5.57101 9.24281C5.52412 9.35606 5.49999 9.47743 5.5 9.6V15.0667H5C4.45207 15.0661 3.92677 14.8481 3.53932 14.4607C3.15188 14.0732 2.93394 13.5479 2.9333 13V9.7577C2.93505 8.21351 3.54925 6.73307 4.64116 5.64116C5.73307 4.54925 7.21351 3.93505 8.7577 3.9333H15.2423C16.7865 3.93505 18.2669 4.54925 19.3588 5.64116C20.4508 6.73307 21.065 8.21351 21.0667 9.7577V13Z" fill="black"/>
</svg>
