<svg width="24" height="24" viewBox="0 0 24 24" fill="none" xmlns="http://www.w3.org/2000/svg">
<path d="M17.21 13.1788C17.2932 12.092 17.778 11.0751 18.57 10.3262C19.3621 9.57732 20.4045 9.15016 21.4943 9.12794C21.0176 7.89319 20.1727 6.83491 19.0742 6.09661C17.9757 5.3583 16.6767 4.97568 15.3533 5.00064C14.4552 4.98681 13.5639 5.15845 12.7352 5.50484C12.8305 5.05564 12.975 4.6183 13.166 4.20074C13.4936 3.53482 13.9265 2.92616 14.448 2.39824L12.6176 1.00684C12.1009 1.81509 11.7182 2.70151 11.4843 3.63184C11.3423 4.24116 11.273 4.86519 11.278 5.49084C10.4569 5.15348 9.57565 4.98677 8.68802 5.00084C7.36471 4.97586 6.06574 5.35845 4.96723 6.09672C3.86872 6.83499 3.02383 7.89323 2.54712 9.12794C3.61563 9.14828 4.63984 9.55859 5.42686 10.2816C6.21389 11.0046 6.70943 11.9904 6.82016 13.0533C6.93089 14.1163 6.64917 15.183 6.02806 16.0527C5.40694 16.9224 4.4893 17.535 3.44792 17.7751C4.95192 20.69 7.56382 22.767 10.9 21.7482C11.2598 21.6134 11.6373 21.5318 12.0206 21.5059C12.4039 21.5318 12.7814 21.6134 13.1411 21.7482C16.4775 22.767 19.0895 20.6898 20.5935 17.7751C19.5744 17.5379 18.6734 16.9444 18.0531 16.1017C17.4327 15.259 17.1338 14.2225 17.21 13.1788Z" fill="black"/>
</svg>
