<svg width="24" height="24" viewBox="0 0 24 24" fill="none" xmlns="http://www.w3.org/2000/svg">
<path d="M15.3213 20.4385C14.665 20.4383 14.0189 20.2768 13.4397 19.9681C12.8606 19.6595 12.3661 19.2132 12 18.6686C11.6339 19.2132 11.1395 19.6595 10.5603 19.9682C9.98113 20.2768 9.33497 20.4384 8.6787 20.4386H8.4771C8.06131 20.4331 7.649 20.3619 7.2554 20.2278C7.75135 20.7839 8.35901 21.2292 9.03871 21.5346C9.7184 21.8399 10.4549 21.9985 11.2 22H12.8C13.5452 21.9985 14.2817 21.8399 14.9614 21.5345C15.6411 21.2291 16.2488 20.7838 16.7448 20.2277C16.3511 20.3618 15.9388 20.433 15.5229 20.4385H15.3213ZM15.2423 3H8.7577C6.96545 3 5.2466 3.71197 3.97928 4.97928C2.71197 6.2466 2 7.96545 2 9.7577V13.9147C2.00003 14.4677 2.21974 14.9981 2.6108 15.3892C3.00186 15.7803 3.53225 16 4.0853 16H4.4731L4.5 9.7C4.5 9.33753 4.64399 8.9899 4.9003 8.7336C5.1566 8.47729 5.50423 8.3333 5.8667 8.3333V16.6666C5.8667 16.775 5.8923 16.8766 5.8986 16.9831C6.02495 17.5735 6.34978 18.1027 6.81896 18.4827C7.28815 18.8627 7.87336 19.0704 8.4771 19.0713H8.6787C9.37799 19.0708 10.0485 18.7929 10.5431 18.2986C11.0377 17.8043 11.316 17.1339 11.3169 16.4346V16.3846C11.0313 16.3174 10.7765 16.1563 10.5934 15.9271C10.4103 15.6979 10.3094 15.4139 10.3069 15.1205V14.827H13.6937V15.12C13.6912 15.4134 13.5903 15.6974 13.4072 15.9266C13.2241 16.1558 12.9693 16.3169 12.6837 16.3841V16.4341C12.6846 17.1334 12.9629 17.8038 13.4575 18.2981C13.9521 18.7924 14.6226 19.0703 15.3219 19.0708H15.5235C16.1273 19.0699 16.7126 18.8621 17.1818 18.4821C17.651 18.1021 17.9758 17.5727 18.1021 16.9823C18.1084 16.8756 18.134 16.7745 18.134 16.6661V8.3333C18.4964 8.33349 18.8438 8.47756 19.1 8.73384C19.3561 8.99013 19.5 9.33765 19.5 9.7L19.5269 16H19.9147C20.4678 16 20.9982 15.7803 21.3892 15.3892C21.7803 14.9982 22 14.4678 22 13.9147V9.7577C22 7.96545 21.288 6.2466 20.0207 4.97928C18.7534 3.71197 17.0346 3 15.2423 3ZM8.8269 11.9272C8.5722 11.9272 8.32321 11.8517 8.11144 11.7101C7.89967 11.5686 7.73462 11.3675 7.63717 11.1322C7.53972 10.8968 7.51425 10.6379 7.56398 10.3881C7.61371 10.1383 7.7364 9.90885 7.91654 9.72878C8.09667 9.54871 8.32617 9.42611 8.57599 9.37648C8.82581 9.32685 9.08474 9.35242 9.32003 9.44996C9.55532 9.5475 9.75639 9.71263 9.89783 9.92446C10.0393 10.1363 10.1147 10.3853 10.1146 10.64C10.1145 10.9814 9.97878 11.3089 9.73729 11.5502C9.49581 11.7916 9.16834 11.9272 8.8269 11.9272ZM15.1732 11.9272C14.9185 11.9272 14.6695 11.8517 14.4577 11.7102C14.2459 11.5687 14.0809 11.3676 13.9834 11.1322C13.8859 10.8969 13.8605 10.638 13.9102 10.3882C13.9599 10.1384 14.0826 9.9089 14.2627 9.72882C14.4428 9.54874 14.6723 9.42613 14.9222 9.37649C15.172 9.32685 15.4309 9.35242 15.6662 9.44995C15.9015 9.54749 16.1026 9.71262 16.244 9.92445C16.3855 10.1363 16.4609 10.3853 16.4608 10.64C16.4607 10.9814 16.325 11.3088 16.0835 11.5502C15.842 11.7916 15.5146 11.9272 15.1732 11.9272Z" fill="black"/>
</svg>
