<svg width="24" height="24" viewBox="0 0 24 24" fill="none" xmlns="http://www.w3.org/2000/svg">
<path d="M13.9506 6.80318C13.9506 6.41739 13.8362 6.04025 13.6219 5.71946C13.4076 5.39867 13.103 5.14864 12.7465 5.00099C12.3901 4.85334 11.9979 4.8147 11.6195 4.88995C11.2411 4.9652 10.8936 5.15097 10.6208 5.42377C10.3479 5.69656 10.1622 6.04412 10.0869 6.4225C10.0116 6.80089 10.0502 7.19309 10.1979 7.54952C10.3455 7.90595 10.5955 8.2106 10.9163 8.42494C11.2371 8.63928 11.6142 8.75368 12 8.75368C12.5173 8.75368 13.0134 8.54819 13.3792 8.1824C13.7451 7.81661 13.9506 7.3205 13.9506 6.80318ZM12 7.75368C11.812 7.75368 11.6281 7.69792 11.4718 7.59344C11.3155 7.48896 11.1936 7.34046 11.1217 7.16672C11.0498 6.99299 11.031 6.80182 11.0677 6.61741C11.1044 6.43299 11.195 6.26361 11.328 6.13069C11.461 5.99778 11.6305 5.90729 11.8149 5.87068C11.9994 5.83406 12.1905 5.85297 12.3642 5.92502C12.5379 5.99706 12.6863 6.11899 12.7907 6.27539C12.8951 6.4318 12.9507 6.61565 12.9506 6.80368C12.9502 7.05561 12.8499 7.29709 12.6717 7.47518C12.4935 7.65326 12.2519 7.75342 12 7.75368ZM19.3918 14C17.919 13.9928 16.4771 14.4218 15.2477 15.2327C14.0183 16.0437 13.0565 17.2005 12.4834 18.5572V11.5259C13.0489 12.0814 13.8113 12.3905 14.6039 12.3855C15.3966 12.3805 16.1551 12.0619 16.7135 11.4993C17.272 10.9367 17.5849 10.1759 17.584 9.38317C17.5831 8.59047 17.2683 7.83039 16.7086 7.26908L16.2427 6.80308L16.7086 6.33718C16.9892 6.05906 17.2121 5.72825 17.3645 5.36376C17.5169 4.99926 17.5958 4.60825 17.5966 4.21318C17.5975 3.81811 17.5203 3.42676 17.3696 3.06159C17.2188 2.69643 16.9974 2.36464 16.718 2.08527C16.4387 1.80591 16.1069 1.58447 15.7417 1.43368C15.3766 1.28288 14.9852 1.20569 14.5901 1.20655C14.1951 1.20741 13.8041 1.28629 13.4396 1.43866C13.0751 1.59104 12.7442 1.81391 12.4661 2.09448L12 2.56048L11.5341 2.09448C10.9715 1.53187 10.2084 1.21579 9.41275 1.21579C8.61709 1.21579 7.85402 1.53187 7.2914 2.09448C6.72878 2.6571 6.41271 3.42017 6.41271 4.21583C6.41271 5.01149 6.72878 5.77457 7.2914 6.33718L7.7573 6.80308L7.2914 7.26908C6.72688 7.82938 6.40807 8.59098 6.40509 9.38634C6.40211 10.1817 6.7152 10.9457 7.2755 11.5102C7.83579 12.0747 8.5974 12.3935 9.39276 12.3965C10.1881 12.3995 10.9521 12.0864 11.5166 11.5261V18.5572C10.9435 17.2005 9.9817 16.0437 8.7523 15.2327C7.52291 14.4218 6.08097 13.9928 4.6082 14H3.4834V15.1248C3.48339 16.159 3.68707 17.183 4.08283 18.1385C4.47858 19.0939 5.05865 19.9621 5.78993 20.6934C6.5212 21.4247 7.38935 22.0047 8.34481 22.4005C9.30026 22.7963 10.3243 23 11.3585 23H12.6415C13.6757 23 14.6997 22.7963 15.6552 22.4005C16.6107 22.0048 17.4788 21.4247 18.2101 20.6934C18.9414 19.9621 19.5215 19.094 19.9172 18.1385C20.313 17.183 20.5167 16.159 20.5167 15.1248V14H19.3918ZM11.2412 22.03C9.45064 21.9994 7.74198 21.2744 6.47569 20.0081C5.2094 18.7418 4.48449 17.0331 4.4539 15.2426C4.4524 15.2199 4.4513 14.9908 4.4507 14.9678C4.4736 14.9684 4.7026 14.9695 4.7253 14.971C6.51588 15.0016 8.22458 15.7265 9.49091 16.9928C10.7572 18.2591 11.4822 19.9678 11.5128 21.7584C11.5144 21.7811 11.5154 22.0102 11.516 22.0332C11.493 22.032 11.264 22.031 11.2412 22.03ZM11.2928 10.3392L10.8269 10.8052C10.4517 11.1803 9.94294 11.3909 9.41245 11.3909C8.88196 11.3908 8.37322 11.18 7.99815 10.8048C7.62308 10.4297 7.4124 9.92088 7.41247 9.39039C7.41254 8.85989 7.62334 8.35115 7.9985 7.97608L8.4645 7.51008L9.1715 6.80298L7.9985 5.62998C7.6234 5.25491 7.41267 4.7462 7.41265 4.21575C7.41263 3.68531 7.62333 3.17658 7.9984 2.80148C8.37347 2.42639 8.88218 2.21565 9.41263 2.21563C9.94307 2.21561 10.4518 2.42631 10.8269 2.80138L11.2928 3.26738L12 3.97468L12.7071 3.26758L13.1733 2.80158C13.3584 2.61298 13.579 2.46292 13.8224 2.36008C14.0658 2.25723 14.3272 2.20364 14.5914 2.2024C14.8556 2.20115 15.1175 2.25228 15.3619 2.35283C15.6062 2.45338 15.8282 2.60136 16.0151 2.78821C16.2019 2.97506 16.3499 3.19709 16.4504 3.44146C16.5509 3.68582 16.602 3.94769 16.6008 4.21193C16.5995 4.47616 16.5459 4.73753 16.443 4.98093C16.3402 5.22432 16.1901 5.44492 16.0015 5.62998L14.8285 6.80298L15.5355 7.51008L16.0015 7.97618C16.1885 8.1616 16.3371 8.38214 16.4387 8.62514C16.5403 8.86814 16.5929 9.12882 16.5935 9.3922C16.5941 9.65558 16.5426 9.91648 16.4421 10.1599C16.3416 10.4034 16.1939 10.6246 16.0077 10.8108C15.8215 10.997 15.6003 11.1446 15.3568 11.2452C15.1134 11.3457 14.8525 11.3971 14.5891 11.3966C14.3257 11.396 14.0651 11.3434 13.8221 11.2418C13.5791 11.1402 13.3585 10.9916 13.1731 10.8046L12.707 10.3386L12 9.63148L11.2928 10.3392ZM19.5461 15.2426C19.5155 17.0331 18.7906 18.7418 17.5243 20.0081C16.258 21.2745 14.5494 21.9994 12.7588 22.03C12.7361 22.0315 12.5071 22.0325 12.484 22.0332C12.4846 22.0102 12.4857 21.7811 12.4872 21.7584C12.5179 19.9678 13.2428 18.2592 14.5091 16.9929C15.7755 15.7266 17.4841 15.0016 19.2747 14.971C19.2974 14.9695 19.5264 14.9684 19.5493 14.9678C19.5488 14.99 19.5476 15.2194 19.5461 15.2421V15.2426Z" fill="black"/>
</svg>
