<svg width="24" height="24" viewBox="0 0 24 24" fill="none" xmlns="http://www.w3.org/2000/svg">
<path d="M14.574 9.69C14.3861 9.69 14.2024 9.74572 14.0462 9.8501C13.89 9.95449 13.7682 10.1029 13.6963 10.2765C13.6244 10.45 13.6056 10.6411 13.6423 10.8253C13.6789 11.0096 13.7694 11.1789 13.9022 11.3118C14.0351 11.4446 14.2044 11.5351 14.3887 11.5717C14.5729 11.6084 14.764 11.5896 14.9375 11.5177C15.1111 11.4458 15.2595 11.324 15.3639 11.1678C15.4683 11.0116 15.524 10.8279 15.524 10.64C15.524 10.388 15.4239 10.1464 15.2458 9.96825C15.0676 9.79009 14.826 9.69 14.574 9.69ZM9.426 9.69C9.23811 9.69 9.05444 9.74572 8.89821 9.8501C8.74198 9.95449 8.62022 10.1029 8.54831 10.2765C8.47641 10.45 8.4576 10.6411 8.49425 10.8253C8.53091 11.0096 8.62139 11.1789 8.75425 11.3118C8.88711 11.4446 9.05638 11.5351 9.24066 11.5717C9.42495 11.6084 9.61596 11.5896 9.78955 11.5177C9.96314 11.4458 10.1115 11.324 10.2159 11.1678C10.3203 11.0116 10.376 10.8279 10.376 10.64C10.376 10.388 10.2759 10.1464 10.0978 9.96825C9.91959 9.79009 9.67796 9.69 9.426 9.69ZM15.2423 3H8.7577C6.96545 3 5.2466 3.71197 3.97928 4.97928C2.71197 6.2466 2 7.96545 2 9.7577V13C2 13.7956 2.31607 14.5587 2.87868 15.1213C3.44129 15.6839 4.20435 16 5 16H5.5C5.5 17.5913 6.13214 19.1174 7.25736 20.2426C8.38258 21.3679 9.9087 22 11.5 22H12.5C14.0913 22 15.6174 21.3679 16.7426 20.2426C17.8679 19.1174 18.5 17.5913 18.5 16H19C19.7956 16 20.5587 15.6839 21.1213 15.1213C21.6839 14.5587 22 13.7956 22 13V9.7577C22 7.96545 21.288 6.2466 20.0207 4.97928C18.7534 3.71197 17.0346 3 15.2423 3ZM12.5 20.6333H11.5C10.4061 20.6287 9.34977 20.2336 8.5214 19.5191C8.70843 19.5673 8.90025 19.5944 9.0933 19.6C9.65204 19.6086 10.2052 19.4878 10.7095 19.247C11.2137 19.0062 11.6554 18.6519 12 18.212C12.3446 18.6519 12.7863 19.0062 13.2905 19.247C13.7948 19.4878 14.348 19.6086 14.9067 19.6C15.0998 19.5944 15.2916 19.5673 15.4787 19.5191C14.6503 20.2336 13.594 20.6287 12.5 20.6333ZM20.6334 13C20.6329 13.433 20.4606 13.8482 20.1544 14.1544C19.8482 14.4606 19.433 14.6328 19 14.6333H18.5V9.7C18.5 9.33755 18.356 8.98994 18.0997 8.73363C17.8435 8.47733 17.4959 8.33333 17.1334 8.3333L17.13 16.03C17.1239 16.2557 17.1011 16.4806 17.0619 16.7029C16.9354 17.2322 16.6189 17.6966 16.1725 18.0079C15.7261 18.3192 15.1809 18.4557 14.6405 18.3914C14.1001 18.3271 13.6021 18.0666 13.2412 17.6592C12.8802 17.2519 12.6815 16.7262 12.6827 16.182V16.052C12.9351 15.9631 13.1538 15.7984 13.3088 15.5803C13.4639 15.3623 13.5477 15.1016 13.5488 14.8341V14.6486H10.4508V14.8341C10.4519 15.1016 10.5358 15.3623 10.6908 15.5803C10.8459 15.7984 11.0646 15.9631 11.3169 16.052V16.182C11.3182 16.7262 11.1195 17.252 10.7586 17.6594C10.3977 18.0667 9.89971 18.3273 9.35927 18.3917C8.81884 18.456 8.27361 18.3195 7.82717 18.0083C7.38073 17.697 7.06419 17.2325 6.9377 16.7032C6.89861 16.4804 6.87598 16.2551 6.87 16.029L6.8667 8.3333C6.50423 8.3333 6.1566 8.47729 5.9003 8.7336C5.64399 8.9899 5.5 9.33753 5.5 9.7V14.6333H5C4.56698 14.6328 4.15183 14.4606 3.84564 14.1544C3.53944 13.8482 3.3672 13.433 3.3667 13V9.7577C3.36829 8.3284 3.93677 6.95809 4.94744 5.94741C5.9581 4.93673 7.3284 4.36821 8.7577 4.3666H15.2423C16.6716 4.36821 18.0419 4.93672 19.0526 5.9474C20.0633 6.95808 20.6318 8.32839 20.6334 9.7577V13Z" fill="black"/>
</svg>
