<svg width="24" height="24" viewBox="0 0 24 24" fill="none" xmlns="http://www.w3.org/2000/svg">
<path d="M18.8842 6.45747C19.1004 5.6271 19.0219 4.74747 18.6623 3.96843C18.3026 3.1894 17.684 2.55917 16.9118 2.1851C16.1395 1.81103 15.2615 1.71628 14.4273 1.91698C13.593 2.11767 12.8542 2.60141 12.3366 3.28577C11.6874 2.49583 10.789 1.95007 9.7887 1.73808C8.78845 1.5261 7.74585 1.66048 6.83204 2.11917C5.91824 2.57787 5.18753 3.33362 4.75988 4.26235C4.33222 5.19109 4.23304 6.23763 4.47859 7.23017C3.41355 8.15659 2.72933 9.44463 2.55795 10.8458C2.38657 12.2469 2.74017 13.6619 3.55053 14.8177C4.36089 15.9735 5.57059 16.7883 6.94624 17.1047C8.32189 17.4212 9.76601 17.217 11 16.5316V22.0002H13V16.6358C13.8008 17.0356 14.6828 17.2458 15.5778 17.2502C16.8413 17.2501 18.0715 16.8446 19.0875 16.0933C20.1034 15.342 20.8514 14.2845 21.2215 13.0763C21.5916 11.8682 21.5643 10.5732 21.1436 9.38174C20.7228 8.19029 19.9309 7.16529 18.8842 6.45747ZM7.78119 13.3231C7.52983 13.3231 7.28411 13.2485 7.07511 13.1089C6.86611 12.9692 6.70321 12.7707 6.60703 12.5385C6.51084 12.3063 6.48567 12.0507 6.53472 11.8042C6.58377 11.5577 6.70482 11.3312 6.88257 11.1535C7.06032 10.9757 7.28678 10.8547 7.53331 10.8057C7.77985 10.7567 8.03539 10.7818 8.26762 10.878C8.49984 10.9743 8.69832 11.1372 8.83796 11.3462C8.97759 11.5552 9.05211 11.8009 9.05209 12.0523C9.05207 12.3893 8.91816 12.7126 8.67982 12.9509C8.44148 13.1892 8.11824 13.3231 7.78119 13.3231ZM12.49 8.79177C12.2386 8.79193 11.9928 8.71754 11.7838 8.57799C11.5747 8.43845 11.4117 8.24004 11.3154 8.00784C11.2191 7.77565 11.1938 7.52011 11.2427 7.27354C11.2917 7.02698 11.4126 6.80047 11.5903 6.62267C11.768 6.44486 11.9944 6.32375 12.241 6.27465C12.4875 6.22555 12.7431 6.25067 12.9753 6.34683C13.2076 6.44299 13.4061 6.60587 13.5458 6.81487C13.6854 7.02387 13.76 7.2696 13.76 7.52097C13.76 7.85788 13.6263 8.18101 13.3881 8.41931C13.1499 8.65762 12.8269 8.79159 12.49 8.79177ZM16.6046 13.3231C16.3532 13.3231 16.1075 13.2486 15.8985 13.1089C15.6895 12.9693 15.5266 12.7708 15.4304 12.5386C15.3342 12.3063 15.309 12.0508 15.358 11.8043C15.407 11.5577 15.5281 11.3313 15.7058 11.1535C15.8836 10.9758 16.11 10.8547 16.3566 10.8057C16.6031 10.7567 16.8587 10.7818 17.0909 10.878C17.3231 10.9742 17.5216 11.1371 17.6613 11.3462C17.8009 11.5552 17.8754 11.8009 17.8754 12.0523C17.8754 12.2192 17.8425 12.3845 17.7786 12.5387C17.7147 12.6929 17.6211 12.833 17.503 12.951C17.385 13.069 17.2449 13.1626 17.0906 13.2265C16.9364 13.2903 16.7711 13.3231 16.6042 13.3231H16.6046Z" fill="black"/>
</svg>
