<svg width="24" height="24" viewBox="0 0 24 24" fill="none" xmlns="http://www.w3.org/2000/svg">
<path d="M11.875 2.5C15.545 2.5 19.1477 8.3088 19.1477 14.2273C19.1477 16.1561 18.3815 18.006 17.0176 19.3699C15.6537 20.7338 13.8038 21.5 11.875 21.5C9.94615 21.5 8.09632 20.7338 6.73242 19.3699C5.36852 18.006 4.60229 16.1561 4.60229 14.2273C4.60229 8.3088 8.20469 2.5 11.875 2.5ZM11.875 2C7.87499 2 4.10229 8 4.10229 14.2273C4.10229 16.2887 4.9212 18.2658 6.37887 19.7234C7.83653 21.1811 9.81355 22 11.875 22C13.9364 22 15.9135 21.1811 17.3711 19.7234C18.8288 18.2658 19.6477 16.2887 19.6477 14.2273C19.6477 8 15.875 2 11.875 2Z" fill="black"/>
</svg>
