<svg width="24" height="24" viewBox="0 0 24 24" fill="none" xmlns="http://www.w3.org/2000/svg">
<path d="M12 1.86133C10.9264 1.86283 9.89477 2.27815 9.11961 3.02089C8.34444 3.76362 7.88545 4.77661 7.8381 5.84913H16.1619C16.1146 4.77661 15.6556 3.76362 14.8804 3.02089C14.1052 2.27815 13.0736 1.86283 12 1.86133ZM18 12.6837H22V11.3165H18V8.58413H18.1665C18.8781 8.58333 19.5602 8.30029 20.0633 7.7971C20.5664 7.29391 20.8493 6.61168 20.85 5.90013V3.90013H19.4834V5.90013C19.4829 6.24919 19.344 6.58381 19.0971 6.83059C18.8502 7.07736 18.5156 7.21616 18.1665 7.21653H18V7.21583H12.6831V20.9433C13.8539 20.8108 14.9596 20.336 15.8619 19.5782C16.7642 18.8205 17.4231 17.8136 17.7561 16.6833H18.1661C18.5152 16.6837 18.8499 16.8226 19.0968 17.0694C19.3436 17.3163 19.4825 17.651 19.4829 18.0001V21.0001H20.8491V18.0001C20.8483 17.2887 20.5654 16.6067 20.0624 16.1036C19.5594 15.6005 18.8774 15.3174 18.166 15.3165H17.984C17.9895 15.211 18 15.1065 18 15.0001V12.6837ZM6 7.21693H5.834C5.48487 7.21656 5.15014 7.07771 4.90326 6.83084C4.65637 6.58398 4.5175 6.24926 4.5171 5.90013V3.90013H3.1509V5.90013C3.15156 6.61161 3.43443 7.29378 3.93744 7.79695C4.44045 8.30013 5.12252 8.58323 5.834 8.58413H6V11.3165H2V12.6837H6V15.0001C6 15.1069 6.0105 15.211 6.016 15.3165H5.834C5.12259 15.3174 4.44058 15.6005 3.93758 16.1036C3.43458 16.6067 3.15167 17.2887 3.1509 18.0001V21.0001H4.5171V18.0001C4.5176 17.6511 4.65652 17.3165 4.9034 17.0697C5.15027 16.8229 5.48494 16.6841 5.834 16.6837H6.244C6.57699 17.814 7.23586 18.8209 8.13818 19.5786C9.0405 20.3364 10.1462 20.8112 11.317 20.9437V7.21583H6V7.21693Z" fill="black"/>
</svg>
