<svg width="24" height="24" viewBox="0 0 24 24" fill="none" xmlns="http://www.w3.org/2000/svg">
<path d="M4.36002 17.2534C5.85659 15.0247 7.57197 12.9511 9.48062 11.0634C12.6354 8.00443 16.1226 5.30806 19.877 3.02458L20.0511 3.29018C16.4328 5.70622 13.0963 8.51959 10.1038 11.6778C8.12111 13.8134 6.38364 16.1643 4.92382 18.6864C4.92702 18.6939 4.00752 20.3795 3.58012 21.2339C3.42652 21.556 3.27672 21.8798 3.13312 22.2064L4.45192 22.6649C4.50792 22.5326 4.51332 22.5413 4.57382 22.411C4.99382 21.5031 5.44972 20.6131 5.93162 19.737C19.7241 21.6129 21.875 12.9028 21.875 2.04238C8.80732 1.07158 0.150018 5.62848 4.36002 17.2534Z" fill="black"/>
</svg>
