<svg width="24" height="24" viewBox="0 0 24 24" fill="none" xmlns="http://www.w3.org/2000/svg">
<path d="M6 7.64984H5.502C5.03804 7.64929 4.59325 7.46474 4.26518 7.13667C3.93711 6.8086 3.75256 6.3638 3.752 5.89984V3.89984H3.252V5.89984C3.25271 6.49636 3.49 7.06824 3.9118 7.49004C4.3336 7.91185 4.90548 8.14913 5.502 8.14984H6V11.7498H2V12.2498H6V14.9998C6.00168 15.2507 6.01898 15.5012 6.0518 15.7498H5.5018C4.90532 15.7506 4.33349 15.9879 3.91173 16.4097C3.48997 16.8315 3.25271 17.4034 3.252 17.9998V20.9998H3.752V17.9998C3.75256 17.5359 3.93711 17.0911 4.26518 16.763C4.59325 16.435 5.03804 16.2504 5.502 16.2498H6.132C6.4112 17.5495 7.11472 18.7194 8.13179 19.5754C9.14887 20.4313 10.4217 20.9247 11.75 20.9778V7.64684H6V7.64984ZM16.1814 6.70874C16.1814 5.59977 15.7409 4.53621 14.9567 3.75205C14.1725 2.96788 13.109 2.52734 12 2.52734C10.891 2.52734 9.82747 2.96788 9.0433 3.75205C8.25914 4.53621 7.8186 5.59977 7.8186 6.70874V7.14684H16.1814V6.70874ZM18 12.2498H22V11.7498H18V8.14984H18.5C19.0965 8.1491 19.6684 7.91181 20.0902 7.49002C20.512 7.06822 20.7493 6.49635 20.75 5.89984V3.89984H20.25V5.89984C20.2494 6.36379 20.0649 6.80858 19.7368 7.13664C19.4087 7.4647 18.964 7.64926 18.5 7.64984H18V7.64684H12.25V20.9778C13.5782 20.9246 14.851 20.4312 15.868 19.5753C16.885 18.7193 17.5884 17.5495 17.8676 16.2498H18.4976C18.9616 16.2503 19.4065 16.4348 19.7347 16.7629C20.0628 17.091 20.2474 17.5358 20.248 17.9998V20.9998H20.748V17.9998C20.7473 17.4033 20.51 16.8314 20.0882 16.4096C19.6664 15.9878 19.0945 15.7506 18.498 15.7498H17.948C17.9809 15.5012 17.9983 15.2507 18 14.9998V12.2498Z" fill="black"/>
</svg>
