<svg width="24" height="24" viewBox="0 0 24 24" fill="none" xmlns="http://www.w3.org/2000/svg">
<path d="M18.7946 6.24548C18.8244 6.11964 18.8411 5.99106 18.8446 5.86178C18.8446 4.78827 18.4181 3.75872 17.659 2.99963C16.9 2.24054 15.8704 1.81409 14.7969 1.81409C14.2711 1.81495 13.7509 1.92209 13.2676 2.12908C12.7842 2.33607 12.3477 2.63863 11.9843 3.01859C11.1122 2.14863 9.93177 1.65845 8.69999 1.65479C7.42405 1.65479 6.20037 2.16164 5.29813 3.06386C4.3959 3.96607 3.88901 5.18975 3.88899 6.46568C3.89267 6.85358 3.94406 7.23954 4.04199 7.61488C3.09573 8.63025 2.55018 9.95456 2.50666 11.3418C2.46315 12.7291 2.92464 14.085 3.80541 15.1576C4.68617 16.2303 5.92634 16.9468 7.29554 17.1741C8.66474 17.4014 10.0699 17.124 11.25 16.3934V22.0002H12.75V16.6508C13.5563 17.0424 14.4406 17.2472 15.337 17.2502C16.624 17.2507 17.8776 16.8405 18.9153 16.0792C19.953 15.3179 20.7206 14.2452 21.1064 13.0174C21.4922 11.7895 21.476 10.4706 21.0602 9.2526C20.6444 8.0346 19.8507 6.98111 18.7946 6.24548ZM15.337 15.8169C14.3463 15.8186 13.3819 15.4975 12.5899 14.9024L11.7386 14.2906L10.8986 14.9175C10.0419 15.5801 8.96706 15.8958 7.8881 15.8018C6.80914 15.7078 5.80512 15.211 5.07588 14.4102C4.34664 13.6095 3.94565 12.5635 3.95271 11.4805C3.95977 10.3974 4.37437 9.35676 5.11399 8.56559L5.60759 8.01068L5.43759 7.28768C5.36466 7.01964 5.32589 6.74345 5.32219 6.46568C5.32319 5.57016 5.6794 4.71161 6.31265 4.0784C6.94589 3.44519 7.80447 3.08904 8.69999 3.08809C10.5378 3.08809 11.9967 4.94808 11.9967 4.94808C11.9967 4.94808 13.4397 3.24759 14.7976 3.24759C15.4808 3.24837 16.1366 3.51631 16.625 3.99415C17.1133 4.47199 17.3954 5.12184 17.411 5.80488C17.402 6.19117 17.3715 6.57667 17.3198 6.95959L17.9688 7.41688C18.776 7.97705 19.3833 8.78043 19.7019 9.70989C20.0206 10.6394 20.0341 11.6463 19.7404 12.584C19.4466 13.5216 18.8611 14.3409 18.0691 14.9225C17.2771 15.504 16.3201 15.8174 15.3375 15.8169H15.337ZM8.27089 10.7814C8.07518 10.7909 7.88658 10.8577 7.72845 10.9734C7.57032 11.0891 7.44962 11.2487 7.38131 11.4323C7.31299 11.616 7.30007 11.8156 7.34413 12.0066C7.3882 12.1975 7.48732 12.3713 7.6292 12.5064C7.77109 12.6415 7.94951 12.7321 8.14236 12.7668C8.3352 12.8015 8.53399 12.7788 8.71408 12.7016C8.89418 12.6245 9.04767 12.4961 9.15553 12.3325C9.2634 12.169 9.32089 11.9773 9.32089 11.7814C9.31407 11.5096 9.19967 11.2516 9.0028 11.0641C8.80592 10.8766 8.54268 10.7749 8.27089 10.7814ZM12.49 6.83349C12.2943 6.84304 12.1057 6.9098 11.9475 7.02551C11.7894 7.14122 11.6687 7.30078 11.6004 7.48443C11.5321 7.66808 11.5192 7.86773 11.5632 8.05865C11.6073 8.24958 11.7064 8.42337 11.8483 8.5585C11.9902 8.69363 12.1686 8.78416 12.3615 8.81887C12.5543 8.85357 12.7531 8.83093 12.9332 8.75374C13.1133 8.67656 13.2668 8.54822 13.3746 8.38464C13.4825 8.22106 13.54 8.02943 13.54 7.83349C13.5332 7.56169 13.4188 7.3037 13.2219 7.1162C13.025 6.9287 12.7618 6.82701 12.49 6.83349ZM15.73 10.9481C15.5343 10.9576 15.3457 11.0244 15.1875 11.1401C15.0294 11.2558 14.9087 11.4154 14.8404 11.599C14.7721 11.7827 14.7592 11.9823 14.8032 12.1733C14.8473 12.3642 14.9464 12.538 15.0883 12.6731C15.2302 12.8082 15.4086 12.8988 15.6015 12.9335C15.7943 12.9682 15.9931 12.9455 16.1732 12.8683C16.3533 12.7912 16.5068 12.6628 16.6146 12.4992C16.7225 12.3357 16.78 12.144 16.78 11.9481C16.7732 11.6761 16.6587 11.418 16.4616 11.2305C16.2646 11.043 16.0011 10.9414 15.7292 10.9481H15.73Z" fill="black"/>
</svg>
