<svg width="24" height="24" viewBox="0 0 24 24" fill="none" xmlns="http://www.w3.org/2000/svg">
<path d="M15.2423 3H8.7577C6.96545 3 5.2466 3.71197 3.97928 4.97928C2.71197 6.2466 2 7.96545 2 9.7577V13.9147C2.00003 14.4677 2.21974 14.9981 2.6108 15.3892C3.00186 15.7803 3.53225 16 4.0853 16H4.4863L4.5 9.6C4.5 9.35246 4.59833 9.11507 4.77335 8.94002C4.94838 8.76498 5.18576 8.66663 5.4333 8.6666V16.3333C5.4333 16.3857 5.4398 16.4365 5.4412 16.4886C5.49291 17.2055 5.81367 17.8764 6.33919 18.3667C6.8647 18.8571 7.55613 19.1308 8.2749 19.1328H8.6782C9.411 19.131 10.115 18.8472 10.6441 18.3402C11.1733 17.8333 11.4869 17.1421 11.52 16.41C11.2099 16.3673 10.9255 16.2145 10.7188 15.9793C10.5121 15.7442 10.397 15.4425 10.3945 15.1295V14.9216H13.6055V15.1295C13.603 15.4425 13.4879 15.7442 13.2812 15.9793C13.0745 16.2145 12.7901 16.3673 12.48 16.41C12.513 17.1421 12.8266 17.8335 13.3557 18.3406C13.8849 18.8476 14.5889 19.1315 15.3218 19.1333H15.7251C16.4441 19.1312 17.1357 18.8574 17.6613 18.3668C18.1869 17.8762 18.5075 17.205 18.559 16.4879C18.5604 16.4362 18.5667 16.3858 18.5667 16.3338V8.6666C18.6893 8.6666 18.8106 8.69074 18.9239 8.73765C19.0371 8.78456 19.14 8.85332 19.2267 8.93999C19.3133 9.02667 19.3821 9.12957 19.429 9.24281C19.4759 9.35606 19.5 9.47743 19.5 9.6L19.5137 16H19.9147C20.4678 16 20.9982 15.7803 21.3892 15.3892C21.7803 14.9982 22 14.4678 22 13.9147V9.7577C22 7.96545 21.288 6.2466 20.0207 4.97928C18.7534 3.71197 17.0346 3 15.2423 3ZM8.5769 11.74C8.35934 11.74 8.14667 11.6755 7.96577 11.5546C7.78488 11.4337 7.64389 11.262 7.56063 11.061C7.47738 10.86 7.45559 10.6388 7.49804 10.4254C7.54048 10.212 7.64525 10.016 7.79908 9.86218C7.95292 9.70834 8.14892 9.60358 8.3623 9.56114C8.57568 9.51869 8.79685 9.54048 8.99785 9.62373C9.19885 9.70699 9.37065 9.84798 9.49152 10.0289C9.61239 10.2098 9.6769 10.4224 9.6769 10.64C9.6769 10.9317 9.56101 11.2115 9.35472 11.4178C9.14843 11.6241 8.86864 11.74 8.5769 11.74ZM15.4232 11.74C15.2056 11.74 14.993 11.6755 14.8121 11.5546C14.6312 11.4337 14.4902 11.262 14.4069 11.061C14.3237 10.86 14.3019 10.6388 14.3443 10.4254C14.3868 10.212 14.4915 10.016 14.6454 9.86218C14.7992 9.70834 14.9952 9.60358 15.2086 9.56114C15.422 9.51869 15.6432 9.54048 15.8442 9.62373C16.0451 9.70699 16.2169 9.84798 16.3378 10.0289C16.4587 10.2098 16.5232 10.4224 16.5232 10.64C16.5232 10.7845 16.4947 10.9275 16.4395 11.061C16.3842 11.1944 16.3032 11.3157 16.201 11.4178C16.0989 11.52 15.9776 11.601 15.8442 11.6563C15.7107 11.7115 15.5677 11.74 15.4232 11.74ZM15.3218 20.0668C14.6385 20.0643 13.9687 19.8765 13.3837 19.5234C12.7987 19.1703 12.3205 18.6651 12 18.0616C11.6794 18.665 11.2012 19.1701 10.6162 19.5232C10.0312 19.8762 9.36145 20.064 8.6782 20.0664H8.2749C7.63972 20.0621 7.0161 19.8961 6.4628 19.5841C6.9843 20.3302 7.67818 20.9394 8.48549 21.36C9.2928 21.7806 10.1897 22.0002 11.1 22H12.9C13.8103 22.0002 14.7073 21.7806 15.5146 21.36C16.322 20.9394 17.0159 20.3301 17.5374 19.584C16.9841 19.8961 16.3604 20.0621 15.7251 20.0664L15.3218 20.0668Z" fill="black"/>
</svg>
