<svg width="24" height="24" viewBox="0 0 24 24" fill="none" xmlns="http://www.w3.org/2000/svg">
<path d="M17.21 13.1789C17.2932 12.092 17.778 11.0751 18.57 10.3262C19.3621 9.57734 20.4045 9.15017 21.4943 9.12795C21.0176 7.89321 20.1727 6.83493 19.0742 6.09663C17.9757 5.35832 16.6767 4.9757 15.3533 5.00065C14.3371 4.98566 13.3317 5.21184 12.4198 5.66065C12.4906 5.1202 12.6262 4.59025 12.8238 4.08225C13.1304 3.35851 13.5526 2.68939 14.0738 2.10105L13.0388 1.31445C12.5205 2.06155 12.1269 2.88783 11.8733 3.76105C11.7052 4.37777 11.6145 5.01302 11.6033 5.65215C10.6961 5.20924 9.69744 4.98606 8.68802 5.00065C7.36469 4.97569 6.0657 5.35831 4.96719 6.09662C3.86868 6.83493 3.0238 7.89321 2.54712 9.12795C3.61563 9.1483 4.63984 9.5586 5.42686 10.2816C6.21389 11.0046 6.70943 11.9904 6.82016 13.0533C6.93089 14.1163 6.64917 15.1831 6.02806 16.0527C5.40694 16.9224 4.4893 17.535 3.44792 17.7752C4.95192 20.6901 7.56382 22.7671 10.9 21.7483C11.2598 21.6134 11.6373 21.5318 12.0206 21.506C12.4039 21.5318 12.7814 21.6134 13.1411 21.7483C16.4775 22.7671 19.0895 20.6899 20.5935 17.7752C19.5744 17.5379 18.6734 16.9444 18.0531 16.1017C17.4327 15.259 17.1338 14.2225 17.21 13.1789Z" fill="black"/>
</svg>
