<svg width="24" height="24" viewBox="0 0 24 24" fill="none" xmlns="http://www.w3.org/2000/svg">
<path d="M12.5 21.7046V11.54C13.0683 12.0879 13.8297 12.3895 14.619 12.3794C15.4082 12.3693 16.1617 12.0483 16.7158 11.4861C17.2699 10.924 17.5799 10.1659 17.5786 9.3766C17.5772 8.58726 17.2646 7.8303 16.7086 7.27001L16.2427 6.80401L16.7086 6.33811C17.2671 5.77467 17.5798 5.01293 17.578 4.21955C17.5763 3.42618 17.2604 2.66579 16.6994 2.10478C16.1384 1.54377 15.3781 1.22782 14.5847 1.22606C13.7913 1.2243 13.0296 1.53689 12.4661 2.09541L12 2.56051L11.5341 2.09451C10.9715 1.5319 10.2084 1.21582 9.41274 1.21582C8.61708 1.21582 7.85401 1.5319 7.29139 2.09451C6.72877 2.65713 6.4127 3.4202 6.4127 4.21586C6.4127 5.01152 6.72877 5.7746 7.29139 6.33721L7.75729 6.80311L7.29139 7.26911C6.72503 7.82721 6.40358 8.58743 6.39773 9.38254C6.39189 10.1776 6.70215 10.9425 7.26024 11.5089C7.81834 12.0752 8.57856 12.3967 9.37366 12.4025C10.1688 12.4084 10.9336 12.0981 11.5 11.54V21.705C10.8943 16.6243 7.21719 13.515 2.02539 13.5017C2.15747 16.0604 3.26516 18.4711 5.12056 20.2379C6.97596 22.0047 9.43795 22.9932 12 23C11.999 22.9794 11.9987 22.8885 11.9987 22.7787H12.0013C12.0013 22.8887 12.0013 22.9794 12 23C14.562 22.9932 17.024 22.0047 18.8794 20.2379C20.7348 18.4711 21.8425 16.0604 21.9746 13.5017C16.783 13.5143 13.1057 16.6239 12.5 21.7046ZM10.05 6.80321C10.05 6.41742 10.1644 6.04029 10.3787 5.71952C10.5931 5.39875 10.8977 5.14875 11.2542 5.00114C11.6106 4.85352 12.0028 4.81493 12.3812 4.89023C12.7596 4.96553 13.1071 5.15135 13.3799 5.42418C13.6526 5.69701 13.8384 6.0446 13.9136 6.423C13.9888 6.80139 13.9501 7.19358 13.8024 7.54998C13.6547 7.90638 13.4046 8.21097 13.0838 8.42524C12.7629 8.6395 12.3858 8.75381 12 8.75371C11.4828 8.75358 10.9868 8.54802 10.6211 8.18225C10.2554 7.81647 10.05 7.32043 10.05 6.80321Z" fill="black"/>
</svg>
