<svg width="24" height="24" viewBox="0 0 24 24" fill="none" xmlns="http://www.w3.org/2000/svg">
<path d="M18.8842 6.45747C19.1003 5.6271 19.0219 4.74747 18.6623 3.96843C18.3026 3.1894 17.684 2.55917 16.9117 2.1851C16.1395 1.81103 15.2615 1.71628 14.4273 1.91698C13.593 2.11767 12.8542 2.60141 12.3366 3.28577C11.6874 2.49583 10.7889 1.95007 9.78869 1.73808C8.78844 1.5261 7.74583 1.66048 6.83203 2.11917C5.91822 2.57787 5.18752 3.33362 4.75986 4.26235C4.33221 5.19109 4.23302 6.23763 4.47858 7.23017C3.39225 8.17192 2.70136 9.48895 2.54401 10.918C2.38665 12.3471 2.77443 13.7829 3.62983 14.9384C4.48523 16.094 5.74522 16.8841 7.15795 17.1509C8.57068 17.4177 10.0321 17.1416 11.25 16.3776V22.0002H12.75V16.5211C14.0807 17.2487 15.6405 17.436 17.1055 17.0439C18.5706 16.6518 19.8284 15.7105 20.6178 14.4155C21.4072 13.1205 21.6675 11.5712 21.3446 10.0893C21.0218 8.60744 20.1407 7.30681 18.8842 6.45747Z" fill="black"/>
</svg>
