<svg width="24" height="24" viewBox="0 0 24 24" fill="none" xmlns="http://www.w3.org/2000/svg">
<path d="M11.9991 9.19008C11.4873 9.19006 10.9869 9.34183 10.5613 9.62618C10.1357 9.91054 9.804 10.3147 9.60812 10.7876C9.41223 11.2605 9.36097 11.7808 9.46083 12.2828C9.56068 12.7848 9.80715 13.246 10.1691 13.6079C10.531 13.9698 10.9921 14.2163 11.4942 14.3162C11.9962 14.416 12.5165 14.3648 12.9894 14.1689C13.4623 13.973 13.8665 13.6413 14.1508 13.2157C14.4352 12.7901 14.5869 12.2897 14.5869 11.7779C14.5869 11.0916 14.3143 10.4333 13.829 9.94803C13.3436 9.46273 12.6854 9.19008 11.9991 9.19008ZM11.9991 13.0324C11.751 13.0324 11.5084 12.9588 11.3021 12.821C11.0958 12.6832 10.935 12.4873 10.84 12.258C10.7451 12.0288 10.7202 11.7766 10.7686 11.5332C10.817 11.2898 10.9365 11.0663 11.1119 10.8909C11.2873 10.7154 11.5109 10.5959 11.7542 10.5475C11.9976 10.4991 12.2498 10.5239 12.4791 10.6189C12.7083 10.7138 12.9042 10.8746 13.0421 11.0809C13.1799 11.2872 13.2535 11.5298 13.2535 11.7779C13.253 12.1104 13.1207 12.4291 12.8855 12.6642C12.6504 12.8993 12.3316 13.0315 11.9991 13.0319V13.0324ZM22.1177 11.6951C21.7431 11.2431 21.2143 10.946 20.6334 10.8613C20.0525 10.7766 19.4608 10.9102 18.9727 11.2364C18.9384 11.2585 18.9024 11.2778 18.865 11.2941C18.8142 10.6172 18.6629 9.9517 18.4161 9.31938L18.4419 9.31888C18.4854 9.31929 18.5288 9.32263 18.5719 9.32889C18.6767 9.34225 18.7823 9.34893 18.888 9.34888C19.3236 9.34851 19.7507 9.22801 20.1222 9.00063C20.4938 8.77325 20.7954 8.44781 20.994 8.06009C21.1965 7.6694 21.2874 7.23044 21.2565 6.79147C21.2257 6.3525 21.0744 5.93053 20.8193 5.57199C20.7039 5.40909 20.5853 5.24969 20.4593 5.09199C20.3415 4.94199 20.2129 4.78949 20.081 4.64039C19.8565 4.38591 19.5806 4.18191 19.2715 4.04181C18.9624 3.90171 18.6271 3.8287 18.2877 3.82759C17.6904 3.82364 17.1136 4.04502 16.6723 4.44757C16.2311 4.85013 15.9578 5.40425 15.907 5.99939C15.9026 6.04073 15.8948 6.08163 15.8837 6.12169C15.3169 5.73559 14.6959 5.43585 14.041 5.23229C14.0725 5.19014 14.1073 5.15055 14.1451 5.11389C14.4796 4.79306 14.7118 4.38049 14.8126 3.92806C14.9133 3.47563 14.878 3.00352 14.7111 2.57109C14.5465 2.13544 14.2589 1.75701 13.8832 1.48183C13.5075 1.20665 13.0599 1.04658 12.5949 1.02109C12.3972 1.01042 12.1989 1.00502 12 1.00489C11.8011 1.00475 11.6034 1.01009 11.4069 1.02089C10.9409 1.0458 10.4922 1.20593 10.1157 1.48171C9.73921 1.75749 9.45121 2.13697 9.2869 2.57379C9.12223 3.01192 9.09054 3.48892 9.1958 3.94499C9.30105 4.40106 9.53858 4.81593 9.8786 5.13759C9.9085 5.16682 9.93587 5.19853 9.9604 5.23239C9.31325 5.43381 8.69913 5.72902 8.1376 6.10859C8.12438 6.0579 8.11525 6.00623 8.1103 5.95409C8.0631 5.49239 7.8825 5.05443 7.59055 4.69366C7.29859 4.3329 6.90792 4.06494 6.46621 3.9225C6.02451 3.78006 5.55089 3.76931 5.10318 3.89155C4.65547 4.01379 4.25303 4.26374 3.945 4.61089C3.8131 4.75909 3.68581 4.90999 3.56151 5.06529C3.43721 5.22059 3.3165 5.38059 3.2015 5.54179C2.94471 5.90028 2.79192 6.32274 2.76 6.76256C2.72808 7.20238 2.81826 7.64247 3.0206 8.03429C3.2187 8.42277 3.52032 8.74895 3.89214 8.97679C4.26396 9.20463 4.69153 9.32527 5.12761 9.32539C5.24178 9.32554 5.35582 9.31772 5.4689 9.30198C5.49963 9.29828 5.53055 9.29637 5.5615 9.29628L5.5915 9.29698C5.34302 9.92796 5.18961 10.5923 5.13631 11.2684C5.08918 11.247 5.04375 11.222 5.00041 11.1937C4.6099 10.9423 4.15461 10.8102 3.69021 10.8135C3.22581 10.8168 2.77244 10.9554 2.38555 11.2122C1.99865 11.4691 1.69501 11.8332 1.51175 12.2599C1.3285 12.6867 1.27358 13.1575 1.3537 13.615C1.3858 13.805 1.4245 13.9999 1.4683 14.194C1.5131 14.3906 1.562 14.5806 1.6155 14.7696C1.74103 15.2202 1.99612 15.624 2.34912 15.9309C2.70211 16.2378 3.13746 16.4343 3.60113 16.4959C4.0648 16.5576 4.53637 16.4817 4.9573 16.2777C5.37823 16.0737 5.72999 15.7506 5.9689 15.3485C5.99131 15.3121 6.01684 15.2777 6.0452 15.2458C6.3856 15.8326 6.81011 16.3663 7.3052 16.8301C7.25747 16.8551 7.20777 16.8761 7.1566 16.893C6.7161 17.0364 6.32778 17.3068 6.04036 17.6701C5.75293 18.0335 5.57922 18.4736 5.541 18.9353C5.49942 19.3993 5.59366 19.8655 5.81226 20.2769C6.03086 20.6884 6.36438 21.0274 6.7722 21.2527C6.9427 21.3478 7.1206 21.4398 7.3036 21.5277C7.4797 21.6126 7.6581 21.6931 7.8371 21.7687C8.13398 21.8937 8.45269 21.9586 8.77481 21.9597C9.16118 21.9598 9.54182 21.8662 9.88401 21.6868C10.2262 21.5074 10.5197 21.2476 10.7394 20.9297C10.959 20.6118 11.0982 20.2454 11.145 19.8618C11.1918 19.4783 11.1448 19.0891 11.008 18.7278C10.9942 18.6894 10.9836 18.6499 10.9763 18.6097C11.6463 18.7127 12.3281 18.7141 12.9985 18.6139C12.9883 18.6649 12.9741 18.7151 12.956 18.7639C12.8214 19.1224 12.7767 19.5084 12.8257 19.8882C12.8748 20.268 13.0161 20.6299 13.2374 20.9425C13.5493 21.3927 14.0066 21.722 14.5325 21.875C15.0584 22.0279 15.621 21.9953 16.1257 21.7825C16.3035 21.7088 16.4828 21.6291 16.6613 21.5444C16.8447 21.4569 17.0231 21.3656 17.1964 21.2703C17.6047 21.0464 17.9392 20.7088 18.1592 20.2984C18.3792 19.8879 18.4752 19.4225 18.4355 18.9585C18.3953 18.4915 18.218 18.0469 17.9258 17.6804C17.6337 17.3139 17.2398 17.0418 16.7936 16.8985C16.7529 16.8847 16.7134 16.8674 16.6757 16.8468C17.1725 16.3848 17.599 15.8524 17.9415 15.2668C17.9764 15.3075 18.0078 15.351 18.0356 15.3968C18.2773 15.7935 18.6295 16.111 19.049 16.3106C19.4684 16.5102 19.937 16.5832 20.3973 16.5206C20.8575 16.458 21.2896 16.2625 21.6405 15.9581C21.9914 15.6537 22.2459 15.2536 22.3729 14.8068C22.428 14.6159 22.4788 14.4223 22.5237 14.2237C22.5663 14.0422 22.6048 13.8467 22.6391 13.6531C22.7006 13.3084 22.6858 12.9545 22.5957 12.6162C22.5056 12.2779 22.3424 11.9635 22.1177 11.6951ZM21.0605 13.8951C21.0222 14.0644 20.9788 14.2295 20.9319 14.3919C20.8786 14.5803 20.7651 14.746 20.6088 14.8638C20.4524 14.9815 20.2618 15.0449 20.066 15.0441C19.9149 15.0452 19.7662 15.0065 19.6348 14.932C19.5034 14.8574 19.394 14.7496 19.3174 14.6194C19.1611 14.3539 18.9523 14.123 18.7038 13.9409C18.4553 13.7587 18.1723 13.6291 17.8721 13.5599L17.1452 13.3913L17.0652 13.6146C16.6583 14.7452 15.8868 15.7082 14.8722 16.3521L14.6715 16.4789L14.9938 17.152C15.1251 17.4244 15.3093 17.668 15.5357 17.8685C15.7621 18.069 16.026 18.2226 16.3123 18.3201C16.4826 18.3692 16.6339 18.4689 16.7462 18.606C16.8585 18.7431 16.9265 18.9112 16.9411 19.0878C16.9571 19.2625 16.9213 19.438 16.8382 19.5924C16.7551 19.7469 16.6284 19.8735 16.4738 19.9564C16.3253 20.038 16.1724 20.1164 16.0179 20.19C15.8634 20.2636 15.7061 20.3333 15.5488 20.3984C15.4378 20.4455 15.3186 20.47 15.198 20.4705C15.0537 20.4695 14.9118 20.4336 14.7844 20.366C14.6569 20.2985 14.5476 20.2011 14.4658 20.0823C14.3838 19.9672 14.3317 19.8335 14.3141 19.6933C14.2966 19.5531 14.3141 19.4107 14.3651 19.2789C14.4749 18.991 14.5251 18.6838 14.5126 18.3759C14.5 18.0681 14.425 17.766 14.2921 17.488L13.9699 16.8167L13.7449 16.8931C12.6091 17.2889 11.3724 17.2867 10.2379 16.887L10.0134 16.8088L9.68851 17.4802C9.55776 17.7526 9.48238 18.0482 9.46674 18.35C9.45111 18.6518 9.49552 18.9536 9.5974 19.2381C9.65379 19.3737 9.67511 19.5213 9.65938 19.6674C9.64365 19.8134 9.59138 19.9531 9.5074 20.0736C9.42512 20.192 9.31557 20.289 9.18799 20.3562C9.06041 20.4235 8.91853 20.4591 8.7743 20.4601C8.65257 20.4592 8.5322 20.4344 8.42 20.3872C8.26374 20.3212 8.10797 20.2508 7.9527 20.1761C7.79731 20.1014 7.6462 20.0233 7.4981 19.9407C7.34391 19.8574 7.21767 19.7306 7.13518 19.5759C7.05269 19.4213 7.0176 19.2458 7.0343 19.0714C7.04718 18.9 7.11111 18.7364 7.21784 18.6017C7.32457 18.467 7.46921 18.3674 7.6331 18.3157C7.92682 18.2221 8.1984 18.0697 8.43129 17.8678C8.66418 17.6658 8.8535 17.4186 8.98771 17.1411L9.31201 16.4701L9.11201 16.3424C8.10023 15.6948 7.33233 14.7294 6.929 13.5979L6.85 13.3738L6.1221 13.5388C5.82761 13.6066 5.54949 13.7321 5.30388 13.9082C5.05827 14.0843 4.85006 14.3073 4.6913 14.5645C4.61566 14.7011 4.50496 14.815 4.37061 14.8945C4.23626 14.9741 4.08313 15.0163 3.92701 15.017C3.73061 15.0177 3.5394 14.9539 3.38275 14.8355C3.22609 14.717 3.11264 14.5504 3.0598 14.3613C3.0133 14.1971 2.9708 14.0321 2.9326 13.8645C2.8944 13.6969 2.8613 13.5284 2.8331 13.3616C2.80935 13.2333 2.81436 13.1013 2.84776 12.9751C2.88117 12.849 2.94215 12.7318 3.0263 12.6321C3.11037 12.5323 3.21493 12.4518 3.3329 12.396C3.45086 12.3403 3.57944 12.3106 3.7099 12.309C3.87989 12.3095 4.04598 12.36 4.18761 12.454C4.44368 12.6254 4.73208 12.7427 5.03511 12.7986C5.33814 12.8545 5.64941 12.848 5.9498 12.7793L6.6728 12.6151L6.6481 12.3798C6.6274 12.1885 6.61678 11.9963 6.6163 11.8039C6.61706 10.7979 6.90084 9.81241 7.4352 8.96009L7.5611 8.75818L6.9771 8.29219C6.57483 7.97188 6.07602 7.79711 5.5618 7.79629C5.46821 7.79646 5.3747 7.80227 5.2818 7.81369C5.23072 7.82101 5.17921 7.82492 5.12761 7.82539C4.96678 7.82595 4.80901 7.7814 4.67223 7.6968C4.53545 7.6122 4.42513 7.49094 4.3538 7.34679C4.27689 7.19992 4.24268 7.03445 4.25505 6.86912C4.26743 6.7038 4.32589 6.54526 4.4238 6.41149C4.5224 6.27289 4.62534 6.13652 4.73261 6.00239C4.83987 5.86825 4.95024 5.73749 5.06371 5.61009C5.17775 5.48003 5.32721 5.38602 5.49383 5.33956C5.66045 5.2931 5.837 5.2962 6.00188 5.34849C6.16676 5.40077 6.31284 5.49996 6.42224 5.63394C6.53165 5.76792 6.59964 5.93088 6.6179 6.10289C6.64397 6.40986 6.73235 6.7083 6.87766 6.97996C7.02296 7.25162 7.22214 7.4908 7.463 7.68289L8.043 8.14629L8.21161 7.98009C9.0673 7.13515 10.1805 6.59995 11.3748 6.45929L11.6105 6.43199V5.68749C11.6098 5.3852 11.549 5.08607 11.4317 4.80748C11.3144 4.52889 11.1429 4.2764 10.9271 4.06469C10.7946 3.94681 10.7011 3.79139 10.659 3.61908C10.617 3.44678 10.6284 3.26575 10.6917 3.10009C10.7525 2.93563 10.8605 2.79275 11.002 2.68932C11.1436 2.58589 11.3125 2.52651 11.4877 2.51859C11.657 2.50939 11.8277 2.50469 12.0001 2.50469C12.1725 2.50469 12.3431 2.50939 12.5125 2.51859C12.6873 2.52657 12.856 2.58589 12.9973 2.68913C13.1386 2.79237 13.2464 2.93496 13.3072 3.09909C13.3703 3.25903 13.3841 3.43422 13.3466 3.60205C13.3092 3.76988 13.2223 3.92263 13.0972 4.04059C12.8737 4.2527 12.6957 4.50812 12.5741 4.79126C12.4525 5.0744 12.3899 5.37934 12.39 5.68749V6.43189L12.6258 6.45919C13.8267 6.59996 14.9456 7.13996 15.8029 7.99259L15.9713 8.16019L16.5524 7.69899C16.7887 7.51063 16.9853 7.27721 17.1306 7.01228C17.276 6.74735 17.3673 6.45618 17.3992 6.15569C17.4114 5.98009 17.4754 5.81207 17.5832 5.67288C17.6909 5.5337 17.8375 5.42961 18.0045 5.37382C18.1714 5.31802 18.3511 5.31301 18.5209 5.35943C18.6907 5.40585 18.8429 5.50161 18.9582 5.63459C19.0711 5.76219 19.1814 5.89299 19.2873 6.02759C19.3951 6.16259 19.4967 6.29939 19.5948 6.43759C19.692 6.57118 19.7498 6.7293 19.7618 6.89406C19.7738 7.05881 19.7394 7.22364 19.6626 7.36989C19.5911 7.51415 19.4806 7.63552 19.3437 7.72025C19.2068 7.80497 19.0489 7.84967 18.8879 7.84929C18.8472 7.84926 18.8066 7.84665 18.7663 7.84149C18.659 7.82649 18.5507 7.8188 18.4423 7.81849C17.9316 7.81969 17.436 7.99251 17.0353 8.30919L16.4499 8.77339L16.575 8.97579C17.103 9.8244 17.3834 10.8037 17.3844 11.8032C17.3832 12.0018 17.3719 12.2003 17.3506 12.3978L17.3254 12.6327L18.0479 12.7999C18.2152 12.8382 18.3863 12.8575 18.5579 12.8576C18.9921 12.8581 19.4172 12.7335 19.7825 12.4989C19.9637 12.3695 20.1874 12.3141 20.408 12.344C20.6286 12.3738 20.8295 12.4867 20.9697 12.6596C21.0542 12.7597 21.1153 12.8774 21.1487 13.0041C21.1821 13.1309 21.1868 13.2634 21.1626 13.3922C21.1326 13.5594 21.1 13.7278 21.0605 13.8946V13.8951Z" fill="black"/>
</svg>
