<svg width="24" height="24" viewBox="0 0 24 24" fill="none" xmlns="http://www.w3.org/2000/svg">
<g clip-path="url(#clip0)">
<path d="M18.6982 4.64698H19.1656C19.6942 4.64695 20.2011 4.43695 20.5749 4.06317C20.9486 3.6894 21.1586 3.18246 21.1586 2.65387V0.609375H20.0228L19.5201 2.55938C19.4915 2.67029 19.4269 2.76857 19.3364 2.83878C19.2459 2.90899 19.1346 2.94715 19.0201 2.94727H18.3392V1.60938H17.2029L16.858 2.94677H15.6286L15.2838 1.60938H14.1479V2.94677H13.24C13.1254 2.94677 13.014 2.90865 12.9234 2.83844C12.8328 2.76822 12.7681 2.66987 12.7395 2.55888L12.2369 0.609375H11.1011V2.65387C11.1011 3.18246 11.3111 3.6894 11.6848 4.06317C12.0586 4.43695 12.5655 4.64695 13.0941 4.64698H14.9866L12.8411 9.58327H6.82499C6.39171 9.58327 5.96356 9.67712 5.57001 9.85837C5.17646 10.0396 4.82684 10.304 4.54519 10.6332C4.26355 10.9625 4.05657 11.3488 3.9385 11.7657C3.82042 12.1826 3.79405 12.6201 3.86119 13.0482L5.26529 22H7.02909V16.5758L8.61519 14.9939L14.2852 16.0816L15.1716 22H16.9354V15.691C18.5292 13.8166 18.7076 11.7425 17.1484 8.19688H20.2484C20.4527 8.19686 20.6529 8.13959 20.8264 8.03156C20.9998 7.92353 21.1395 7.76906 21.2296 7.58568L21.6833 6.66188L18.6982 4.64698Z" fill="black"/>
</g>
<defs>
<clipPath id="clip0">
<rect width="24" height="24" fill="white"/>
</clipPath>
</defs>
</svg>
