<svg width="24" height="24" viewBox="0 0 24 24" fill="none" xmlns="http://www.w3.org/2000/svg">
<path d="M19.019 1.94287H19.0174C7.23913 1.94287 0.0838299 7.31287 4.99583 18.9629C4.38653 20.0498 3.82033 21.161 3.31073 22.2992L4.13973 22.671C4.55633 21.7715 5.12183 20.671 5.70973 19.6021C6.92577 19.7816 8.15267 19.8776 9.38183 19.8896C20.0194 19.8896 21.8753 11.8926 21.8753 2.04257C20.8963 1.9763 19.9442 1.94307 19.019 1.94287ZM5.61153 17.8937C3.99103 13.7178 3.97153 10.3258 5.59823 7.81817C7.65143 4.65307 12.4171 2.91007 19.0174 2.90947L19.019 2.90747V2.90947C19.3931 2.90947 19.7852 2.92627 20.1721 2.93797C18.5813 4.00035 17.0465 5.14431 15.5739 6.36527C13.8448 7.80791 12.2177 9.36869 10.7044 11.0364C9.18896 12.7062 7.80483 14.4906 6.56443 16.3738C6.23583 16.8733 5.9182 17.3799 5.61153 17.8937ZM9.38153 18.9226C8.32311 18.914 7.26629 18.8387 6.21733 18.6973C6.55673 18.105 6.89233 17.5421 7.19903 17.0616C7.31716 16.8765 7.43673 16.6924 7.55773 16.5093C8.69836 14.7839 9.96106 13.1425 11.3361 11.5975C12.7548 10.0037 14.2784 8.50658 15.8967 7.11607C15.9901 7.03607 16.0834 6.95624 16.1767 6.87657C17.6808 5.60181 19.2538 4.41055 20.8884 3.30817L20.8896 3.30667C20.71 12.4374 18.6081 18.9226 9.38153 18.9226Z" fill="black"/>
</svg>
