<svg width="24" height="24" viewBox="0 0 24 24" fill="none" xmlns="http://www.w3.org/2000/svg">
<path d="M18.8842 6.45747C19.1004 5.6271 19.0219 4.74747 18.6623 3.96843C18.3026 3.1894 17.684 2.55917 16.9118 2.1851C16.1396 1.81103 15.2615 1.71628 14.4273 1.91698C13.593 2.11767 12.8542 2.60141 12.3366 3.28577C11.6874 2.49583 10.789 1.95007 9.78871 1.73808C8.78846 1.5261 7.74585 1.66048 6.83205 2.11917C5.91824 2.57787 5.18754 3.33362 4.75988 4.26235C4.33223 5.19109 4.23304 6.23763 4.4786 7.23017C3.35668 8.20808 2.66091 9.58539 2.53949 11.0687C2.41808 12.5521 2.88061 14.0242 3.82858 15.1715C4.77654 16.3188 6.13501 17.0507 7.61462 17.2112C9.09423 17.3718 10.578 16.9482 11.75 16.0309V22.0002H12.25V16.1959C13.2259 16.8782 14.387 17.246 15.5778 17.2502C16.8414 17.2501 18.0715 16.8446 19.0875 16.0933C20.1034 15.342 20.8514 14.2845 21.2215 13.0763C21.5916 11.8682 21.5643 10.5732 21.1436 9.38174C20.7228 8.19029 19.9309 7.16529 18.8842 6.45747Z" fill="black"/>
</svg>
