<svg width="24" height="24" viewBox="0 0 24 24" fill="none" xmlns="http://www.w3.org/2000/svg">
<path d="M18.7958 1.9292C7.10411 1.9296 0.0334067 7.156 4.92001 18.7302C4.26601 19.8591 3.65501 21.013 3.10181 22.1953L4.42831 22.7333C4.85681 21.8063 5.47021 20.576 5.96361 19.6823C7.10839 19.8446 8.26253 19.9323 9.41871 19.9446C20.0639 19.9446 21.8754 11.8982 21.8754 2.0422C20.8175 1.96713 19.791 1.92947 18.7958 1.9292ZM5.85311 17.1911C4.42311 13.3592 4.41601 10.2661 5.87161 7.9964C7.78721 5.0084 12.3771 3.3627 18.7958 3.3625H18.7971C18.9647 3.3625 19.1421 3.3713 19.3126 3.3737C17.949 4.3176 16.6133 5.3037 15.3439 6.3737C13.6308 7.81451 12.0189 9.37153 10.5196 11.0337C9.01799 12.6983 7.64071 14.471 6.39891 16.3374C6.21171 16.6183 6.03401 16.9057 5.85311 17.1911ZM9.41831 18.5111C8.52705 18.5037 7.63691 18.4467 6.75201 18.3402C6.92781 18.047 7.08891 17.7452 7.27151 17.456C7.39111 17.2668 7.51211 17.0785 7.63451 16.8911C8.78829 15.1261 10.0644 13.4441 11.4534 11.8575C12.8655 10.245 14.3845 8.72934 16 7.3207C16.0939 7.2387 16.188 7.15707 16.2825 7.0758C17.6015 5.9498 18.9779 4.89275 20.4061 3.9089C20.1172 13.4108 17.5747 18.5115 9.41831 18.5115V18.5111Z" fill="black"/>
</svg>
