<svg width="24" height="24" viewBox="0 0 24 24" fill="none" xmlns="http://www.w3.org/2000/svg">
<path d="M19.9319 11.9964C20.7438 11.4238 21.3122 10.5682 21.5252 9.59778C21.7382 8.62737 21.5804 7.61237 21.083 6.75237C20.5855 5.89236 19.7843 5.24958 18.8369 4.95039C17.8895 4.65121 16.8645 4.71728 15.9633 5.13561C15.8777 4.14412 15.4235 3.22074 14.6904 2.5477C13.9573 1.87465 12.9986 1.50083 12.0034 1.5C11.0082 1.49917 10.0488 1.8714 9.31464 2.54322C8.58044 3.21504 8.12472 4.13766 8.03741 5.12901C7.50501 4.87403 6.92222 4.74162 6.33191 4.74151C5.64419 4.73963 4.96817 4.91939 4.37222 5.26261C3.77627 5.60583 3.28152 6.10033 2.93801 6.69611L2.87551 6.80431C2.38248 7.66187 2.23142 8.67396 2.45256 9.6381C2.6737 10.6022 3.25073 11.4473 4.06821 12.0043C3.25606 12.5768 2.68751 13.4324 2.47436 14.4029C2.26122 15.3734 2.41891 16.3886 2.91642 17.2487C3.41394 18.1088 4.21527 18.7516 5.16281 19.0508C6.11036 19.3499 7.13553 19.2837 8.03671 18.8651C8.12236 19.8566 8.57655 20.78 9.30963 21.453C10.0427 22.1261 11.0014 22.4999 11.9966 22.5007C12.9918 22.5016 13.9512 22.1293 14.6854 21.4575C15.4196 20.7857 15.8753 19.8631 15.9626 18.8717C16.495 19.1266 17.0778 19.259 17.6681 19.2591C18.3558 19.261 19.0318 19.0813 19.6278 18.7381C20.2237 18.3949 20.7185 17.9004 21.062 17.3046L21.1245 17.1964C21.6176 16.3389 21.7687 15.3268 21.5476 14.3626C21.3264 13.3985 20.7494 12.5534 19.9319 11.9964ZM19.4789 16.2464L19.4166 16.3545C19.2406 16.6621 18.9858 16.9173 18.6785 17.0938C18.3712 17.2703 18.0225 17.3619 17.6681 17.359C17.3613 17.3593 17.0584 17.2904 16.7819 17.1573L14.3243 15.9828L14.0708 18.6947C14.0276 19.2145 13.7905 19.6991 13.4065 20.0522C13.0225 20.4052 12.5198 20.601 11.9982 20.6005C11.4766 20.6001 10.9742 20.4035 10.5908 20.0498C10.2075 19.6961 9.97115 19.2111 9.92881 18.6912L9.68291 16.0137L7.24111 17.1393C6.96306 17.2684 6.66016 17.3351 6.35361 17.3349C5.98852 17.3379 5.62923 17.2436 5.31264 17.0618C4.99605 16.8799 4.73358 16.6171 4.55221 16.3002C4.29216 15.8486 4.21107 15.3158 4.32497 14.8072C4.43887 14.2987 4.73946 13.8514 5.16731 13.5538L7.38891 11.9783L5.14321 10.4374C4.71799 10.1529 4.41703 9.71723 4.30148 9.21885C4.18593 8.72046 4.26446 8.19678 4.52111 7.75421L4.58341 7.64611C4.75942 7.3385 5.01416 7.08331 5.32146 6.90675C5.62875 6.7302 5.97752 6.63865 6.33191 6.64151C6.63873 6.64128 6.94164 6.71026 7.21811 6.84331L9.67561 8.01791L9.92911 5.30591C9.97246 4.78618 10.2096 4.30174 10.5936 3.94877C10.9775 3.5958 11.4802 3.40011 12.0017 3.40053C12.5233 3.40096 13.0256 3.59748 13.4089 3.95108C13.7923 4.30468 14.0287 4.78951 14.0712 5.30931L14.3171 7.98701L16.7589 6.86101C17.037 6.73201 17.3399 6.66529 17.6464 6.66551C18.0115 6.66253 18.3708 6.75681 18.6874 6.93865C19.004 7.1205 19.2665 7.38335 19.4479 7.70021C19.7081 8.15179 19.7892 8.68458 19.6753 9.19313C19.5614 9.70168 19.2607 10.1489 18.8328 10.4464L16.611 12.022L18.8569 13.563C19.2821 13.8475 19.5831 14.2832 19.6986 14.7816C19.8141 15.28 19.7356 15.8037 19.4789 16.2462V16.2464ZM12 8.82211C11.3518 8.82211 10.7181 9.01433 10.1791 9.37445C9.64014 9.73458 9.22004 10.2464 8.97195 10.8453C8.72386 11.4442 8.65892 12.1032 8.78535 12.739C8.91178 13.3747 9.22389 13.9587 9.68222 14.4171C10.1405 14.8755 10.7245 15.1877 11.3603 15.3143C11.996 15.4408 12.655 15.376 13.2539 15.128C13.8529 14.88 14.3648 14.4599 14.725 13.921C15.0852 13.3821 15.2775 12.7484 15.2776 12.1002C15.2777 11.6697 15.1929 11.2435 15.0283 10.8458C14.8636 10.4481 14.6222 10.0867 14.3178 9.78228C14.0134 9.47787 13.6521 9.2364 13.2544 9.07165C12.8567 8.90691 12.4305 8.82211 12 8.82211ZM12 13.5773C11.7077 13.5773 11.422 13.4906 11.179 13.3283C10.936 13.1659 10.7467 12.9351 10.6348 12.665C10.523 12.395 10.4938 12.0979 10.5508 11.8113C10.6079 11.5246 10.7487 11.2613 10.9554 11.0547C11.1621 10.8481 11.4254 10.7074 11.712 10.6504C11.9987 10.5935 12.2958 10.6228 12.5658 10.7347C12.8358 10.8466 13.0665 11.0361 13.2288 11.2792C13.3911 11.5222 13.4777 11.8079 13.4776 12.1002C13.477 12.4919 13.3211 12.8673 13.0441 13.1442C12.7671 13.4211 12.3917 13.5768 12 13.5773Z" fill="black"/>
</svg>
