<svg width="24" height="24" viewBox="0 0 24 24" fill="none" xmlns="http://www.w3.org/2000/svg">
<g clip-path="url(#clip0)">
<path d="M20.4908 6.72815C20.8394 6.58977 21.1384 6.34996 21.3492 6.03974C21.56 5.72953 21.6728 5.3632 21.6731 4.98815V4.29815H20.8173L20.6087 4.93815C20.5724 5.09926 20.4823 5.2432 20.3532 5.34627C20.2242 5.44935 20.0639 5.50542 19.8987 5.50525H15.2936C15.1276 5.50529 14.9666 5.44845 14.8374 5.34421C14.7082 5.23997 14.6187 5.09461 14.5836 4.93235L14.3781 4.29785H13.5274V4.98785C13.5273 5.4854 13.7249 5.9626 14.0766 6.31451C14.4284 6.66641 14.9055 6.86419 15.403 6.86435H15.796L15.23 8.02365H5.66002C5.13237 8.02363 4.61094 8.1375 4.13133 8.35746C3.65172 8.57743 3.22524 8.89833 2.88101 9.29822C2.53678 9.69812 2.28292 10.1676 2.13676 10.6746C1.9906 11.1816 1.95559 11.7142 2.03412 12.236L3.50352 22H6.80792L6.53262 17.6205L7.83502 16.3L12.6072 16.7747L13.39 22H16.6523V16.8036L19.3569 11.3576H20.8016C21.0852 11.3575 21.3631 11.2773 21.603 11.1261C21.843 10.9748 22.0352 10.7588 22.1576 10.503L22.8631 9.02925L20.4908 6.72815ZM20.85 9.87695L19.3573 9.90695H18.458L15.2021 16.4637V20.5499H14.6387L13.8735 15.4445L7.29002 14.7891L5.04492 17.0635L5.26372 20.5499H4.75152L3.46832 12.0205C3.42074 11.705 3.44181 11.383 3.5301 11.0765C3.61839 10.7699 3.77182 10.486 3.97991 10.2442C4.18799 10.0024 4.44582 9.80838 4.73579 9.67537C5.02575 9.54236 5.34101 9.47352 5.66002 9.47355H16.1357L17.3657 6.95605H18.6436L21.105 9.34375L20.85 9.87695Z" fill="black"/>
</g>
<defs>
<clipPath id="clip0">
<rect width="24" height="24" fill="white"/>
</clipPath>
</defs>
</svg>
