<svg width="24" height="24" viewBox="0 0 24 24" fill="none" xmlns="http://www.w3.org/2000/svg">
<path d="M11.875 3.5C14.6986 3.5 18.1477 8.45 18.1477 14.2273C18.1477 15.8909 17.4868 17.4864 16.3105 18.6628C15.1341 19.8391 13.5386 20.5 11.875 20.5C10.2114 20.5 8.61589 19.8391 7.43953 18.6628C6.26317 17.4864 5.60229 15.8909 5.60229 14.2273C5.60229 8.45 9.05139 3.5 11.875 3.5ZM11.875 2C7.87499 2 4.10229 8 4.10229 14.2273C4.10229 16.2887 4.9212 18.2658 6.37887 19.7234C7.83653 21.1811 9.81355 22 11.875 22C13.9364 22 15.9135 21.1811 17.3711 19.7234C18.8288 18.2658 19.6477 16.2887 19.6477 14.2273C19.6477 8 15.875 2 11.875 2Z" fill="black"/>
</svg>
