<svg width="24" height="24" viewBox="0 0 24 24" fill="none" xmlns="http://www.w3.org/2000/svg">
<g clip-path="url(#clip0)">
<path d="M19.5035 5.2352L18.82 3.4375H16.4988C16.0051 3.43737 15.5247 3.59713 15.1293 3.89288C14.734 4.18862 14.4451 4.60444 14.3058 5.0781L12.76 9.9688L5.32774 10C4.79774 7.63 6.61444 5.1213 6.61444 5.1213L5.45844 4.2292C3.71324 5.9282 2.65624 7.9062 3.20464 12.1562L4.30864 21.1222C4.33847 21.3644 4.45584 21.5874 4.63865 21.7491C4.82146 21.9107 5.05709 22 5.30114 22H7.97924V16.3286L13.3876 16.971L14.0644 21.1488C14.1001 21.3856 14.2195 21.6017 14.4009 21.7579C14.5824 21.9141 14.8139 22 15.0533 22H17.6747V15.2472L18.3882 9.8132L20.3351 9.451C20.7109 9.38112 21.0559 9.19662 21.3226 8.92282C21.5893 8.64903 21.7646 8.29938 21.8246 7.9219L22.1707 5.7665L19.5035 5.2352ZM16.2246 20.55H15.4365L14.644 15.6594L6.52884 14.6975V20.55H5.69884L4.58214 11.45L13.8238 11.4139L14.1685 10.3232L16.7519 11.1332L16.2242 15.1518L16.2246 20.55ZM20.3931 7.6924C20.3801 7.77453 20.342 7.85062 20.284 7.91024C20.2261 7.96986 20.1511 8.01008 20.0693 8.0254L17.0874 8.5811L16.933 9.7574L14.5809 9.02L15.6885 5.5149C15.7369 5.33648 15.8422 5.17873 15.9884 5.06558C16.1346 4.95244 16.3137 4.89009 16.4985 4.888H17.82L18.4338 6.5013L20.5178 6.9163L20.3931 7.6924Z" fill="black"/>
</g>
<defs>
<clipPath id="clip0">
<rect width="24" height="24" fill="white"/>
</clipPath>
</defs>
</svg>
