<svg width="24" height="24" viewBox="0 0 24 24" fill="none" xmlns="http://www.w3.org/2000/svg">
<path d="M15.3223 19.6943C14.603 19.6926 13.9009 19.4738 13.3081 19.0663C12.7153 18.6589 12.2593 18.0819 12 17.4109C11.7407 18.0819 11.2847 18.6589 10.6919 19.0663C10.0991 19.4738 9.39704 19.6926 8.6777 19.6943H8.0723C7.18127 19.6918 6.3238 19.3541 5.6704 18.7483C6.17438 19.7275 6.93837 20.549 7.87853 21.1226C8.81868 21.6963 9.89867 21.9998 11 22H13C14.1014 21.9999 15.1815 21.6964 16.1217 21.1228C17.0619 20.5491 17.826 19.7276 18.33 18.7483C17.6766 19.3541 16.8191 19.6918 15.9281 19.6943H15.3223ZM15.2423 3H8.7577C6.96545 3 5.2466 3.71197 3.97928 4.97928C2.71197 6.2466 2 7.96545 2 9.7577V13.9147C2.00003 14.4677 2.21974 14.9981 2.6108 15.3892C3.00186 15.7803 3.53225 16 4.0853 16H4.5V9.5C4.5 9.36739 4.55268 9.24021 4.64645 9.14645C4.74021 9.05268 4.86739 9 5 9V16C5 16.0823 5.009 16.1624 5.0123 16.244C5.04326 17.0355 5.37896 17.7844 5.94923 18.3342C6.51949 18.884 7.28019 19.192 8.0723 19.194H8.6777C9.43633 19.1916 10.1671 18.9081 10.7288 18.3981C11.2905 17.8882 11.6431 17.1881 11.7185 16.4332C11.3859 16.4161 11.0724 16.2723 10.8425 16.0313C10.6126 15.7903 10.4838 15.4704 10.4824 15.1373V15.0149H13.5176V15.1373C13.5162 15.4704 13.3874 15.7903 13.1575 16.0313C12.9276 16.2723 12.6141 16.4161 12.2815 16.4332C12.3569 17.1881 12.7095 17.8882 13.2712 18.3981C13.8329 18.9081 14.5637 19.1916 15.3223 19.194H15.9277C16.7198 19.192 17.4805 18.884 18.0508 18.3342C18.621 17.7844 18.9567 17.0355 18.9877 16.244C18.991 16.1624 19 16.0823 19 16V9C19.1326 9 19.2598 9.05268 19.3536 9.14645C19.4473 9.24021 19.5 9.36739 19.5 9.5V16H19.9147C20.4678 16 20.9982 15.7803 21.3892 15.3892C21.7803 14.9982 22 14.4678 22 13.9147V9.7577C22 7.96545 21.288 6.2466 20.0207 4.97928C18.7534 3.71197 17.0346 3 15.2423 3ZM8.5769 11.64C8.37912 11.64 8.18578 11.5814 8.02133 11.4715C7.85688 11.3616 7.72871 11.2054 7.65302 11.0227C7.57733 10.84 7.55753 10.6389 7.59611 10.4449C7.6347 10.2509 7.72994 10.0727 7.86979 9.93289C8.00965 9.79304 8.18783 9.6978 8.38181 9.65921C8.57579 9.62063 8.77686 9.64043 8.95958 9.71612C9.14231 9.79181 9.29849 9.91998 9.40837 10.0844C9.51825 10.2489 9.5769 10.4422 9.5769 10.64C9.5769 10.9052 9.47154 11.1596 9.28401 11.3471C9.09647 11.5346 8.84212 11.64 8.5769 11.64ZM15.4232 11.64C15.2254 11.64 15.0321 11.5814 14.8676 11.4715C14.7032 11.3616 14.575 11.2054 14.4993 11.0227C14.4236 10.84 14.4038 10.6389 14.4424 10.4449C14.481 10.2509 14.5762 10.0727 14.7161 9.93289C14.8559 9.79304 15.0341 9.6978 15.2281 9.65921C15.4221 9.62063 15.6232 9.64043 15.8059 9.71612C15.9886 9.79181 16.1448 9.91998 16.2547 10.0844C16.3646 10.2489 16.4232 10.4422 16.4232 10.64C16.4232 10.7713 16.3973 10.9014 16.3471 11.0227C16.2968 11.144 16.2232 11.2542 16.1303 11.3471C16.0374 11.44 15.9272 11.5136 15.8059 11.5639C15.6846 11.6141 15.5545 11.64 15.4232 11.64Z" fill="black"/>
</svg>
