<svg width="24" height="24" viewBox="0 0 24 24" fill="none" xmlns="http://www.w3.org/2000/svg">
<path d="M12 1.52783C10.9819 1.52977 9.99967 1.90435 9.2388 2.58087C8.47793 3.25738 7.99103 4.18902 7.87 5.19993H16.13C16.009 4.18902 15.5221 3.25738 14.7612 2.58087C14.0003 1.90435 13.0181 1.52977 12 1.52783ZM4.9 5.89993V3.89993H3.1V5.89993C3.10101 6.66875 3.40686 7.40579 3.9505 7.94943C4.49414 8.49307 5.23118 8.79893 6 8.79993V11.0999H2V12.8999H6V14.9999C6 15.0335 6.0045 15.066 6.005 15.0999H6C5.23118 15.1009 4.49414 15.4068 3.9505 15.9504C3.40686 16.4941 3.10101 17.2311 3.1 17.9999V20.9999H4.9V17.9999C4.90032 17.7083 5.01631 17.4287 5.22253 17.2225C5.42875 17.0162 5.70836 16.9002 6 16.8999H6.3123C6.66284 17.9466 7.29522 18.8763 8.13988 19.5868C8.98455 20.2973 10.0088 20.7612 11.1 20.9273V6.99993H6C5.70836 6.99961 5.42875 6.88362 5.22253 6.6774C5.01631 6.47118 4.90032 6.19157 4.9 5.89993ZM18 12.8999H22V11.0999H18V8.80073C18.7688 8.79973 19.5059 8.49387 20.0495 7.95023C20.5931 7.40659 20.899 6.66955 20.9 5.90073V3.90073H19.1V5.90073C19.0995 6.19223 18.9834 6.47163 18.7772 6.67768C18.571 6.88373 18.2915 6.99962 18 6.99993H12.9V20.9273C13.9912 20.7612 15.0154 20.2973 15.8601 19.5868C16.7048 18.8763 17.3372 17.9466 17.6877 16.8999H18C18.2916 16.9002 18.5712 17.0162 18.7775 17.2225C18.9837 17.4287 19.0997 17.7083 19.1 17.9999V20.9999H20.9V17.9999C20.899 17.2311 20.5931 16.4941 20.0495 15.9504C19.5059 15.4068 18.7688 15.1009 18 15.0999H17.995C17.995 15.0664 18 15.0339 18 14.9999V12.8999Z" fill="black"/>
</svg>
