<svg width="24" height="24" viewBox="0 0 24 24" fill="none" xmlns="http://www.w3.org/2000/svg">
<g clip-path="url(#clip0)">
<path d="M19.2361 5.1787L18.5347 3.4375H16.7238C16.2835 3.43736 15.8539 3.57336 15.4939 3.82687C15.1338 4.08038 14.861 4.43899 14.7126 4.8536L12.76 9.9688L5.43664 10C4.90664 7.63 6.65064 5.1489 6.65064 5.1489L5.45844 4.2289C3.71324 5.9279 2.65624 7.9059 3.20464 12.1559L4.30864 21.1219C4.3384 21.3642 4.45574 21.5872 4.63856 21.749C4.82138 21.9107 5.05705 22 5.30114 22H7.38004V15.9385L13.928 16.7003L14.6215 21.1488C14.6572 21.3856 14.7766 21.6018 14.9581 21.758C15.1396 21.9142 15.3712 22.0001 15.6106 22H17.6747V15.2472L18.2972 9.2931L20.5272 8.8782C20.8206 8.82363 21.09 8.68005 21.2989 8.46698C21.5078 8.2539 21.646 7.98168 21.6947 7.6873L22.0171 5.7665L19.2361 5.1787ZM16.6748 21H15.61L14.7989 15.7949L6.38004 14.8154V21H5.30134L4.19734 12.0342C3.68734 9.0312 4.03584 6.5059 5.58874 5.2196C4.64263 6.70405 4.24351 8.47185 4.46004 10.2188L4.63574 11H5.83354L13.4502 10.9658L13.9302 9.7089L17.1296 10.8489L16.6752 15.1951L16.6748 21ZM20.7085 7.5225C20.6934 7.61428 20.6505 7.6992 20.5855 7.76574C20.5205 7.83228 20.4366 7.87723 20.3452 7.8945L17.38 8.4463L17.229 9.894L14.2626 8.8369L15.6465 5.21C15.7239 4.98552 15.8691 4.79062 16.0621 4.65223C16.255 4.51385 16.4862 4.43881 16.7236 4.4375H17.8594L18.5078 6.0469L20.8721 6.5469L20.7085 7.5225Z" fill="black"/>
</g>
<defs>
<clipPath id="clip0">
<rect width="24" height="24" fill="white"/>
</clipPath>
</defs>
</svg>
