<svg width="24" height="24" viewBox="0 0 24 24" fill="none" xmlns="http://www.w3.org/2000/svg">
<g clip-path="url(#clip0)">
<path d="M18.3281 4.64698H19.1656C19.6942 4.64695 20.2011 4.43695 20.5749 4.06317C20.9486 3.6894 21.1586 3.18246 21.1586 2.65387V0.609375H20.2386L19.8018 2.61857C19.7706 2.77683 19.6854 2.91934 19.5608 3.02177C19.4362 3.1242 19.2799 3.18019 19.1186 3.18018H18.36V1.60938H17.43L17.0764 3.17998H15.41L15.0568 1.60918H14.1268V3.17998H13.1414C12.9801 3.17997 12.8238 3.12397 12.6992 3.02155C12.5746 2.91912 12.4894 2.77662 12.4582 2.61838L12.0214 0.609375H11.1014V2.65387C11.1014 3.18246 11.3114 3.6894 11.6851 4.06317C12.0589 4.43695 12.5658 4.64695 13.0944 4.64698H14.9869L12.8411 9.58327H6.82499C6.39171 9.58327 5.96356 9.67712 5.57001 9.85837C5.17646 10.0396 4.82684 10.304 4.54519 10.6332C4.26355 10.9625 4.05657 11.3488 3.9385 11.7657C3.82042 12.1826 3.79405 12.6201 3.86119 13.0482L5.26529 22H6.85179L6.75379 16.754L8.40799 15.0194L14.49 16.1307L15.369 22H16.9354V15.69C18.7831 13.5571 18.4077 11.1321 17.1484 8.19718H20.2484C20.4527 8.19716 20.6529 8.13989 20.8264 8.03186C20.9998 7.92383 21.1395 7.76936 21.2296 7.58598L21.6833 6.66218L18.3281 4.64698Z" fill="black"/>
</g>
<defs>
<clipPath id="clip0">
<rect width="24" height="24" fill="white"/>
</clipPath>
</defs>
</svg>
