<svg width="24" height="24" viewBox="0 0 24 24" fill="none" xmlns="http://www.w3.org/2000/svg">
<path d="M13 20.8412V11.93C13.6241 12.3209 14.3704 12.4683 15.0963 12.3441C15.8222 12.2198 16.477 11.8326 16.9356 11.2564C17.3942 10.6801 17.6245 9.95516 17.5827 9.21988C17.5408 8.48461 17.2296 7.79049 16.7086 7.27001L16.2427 6.80401L16.7086 6.33811C17.2671 5.77467 17.5798 5.01293 17.578 4.21955C17.5763 3.42618 17.2604 2.66579 16.6994 2.10478C16.1384 1.54377 15.3781 1.22782 14.5847 1.22606C13.7913 1.2243 13.0296 1.53689 12.4661 2.09541L12 2.56051L11.5341 2.09451C10.9715 1.5319 10.2084 1.21582 9.41274 1.21582C8.61708 1.21582 7.85401 1.5319 7.29139 2.09451C6.72877 2.65713 6.4127 3.4202 6.4127 4.21586C6.4127 5.01152 6.72877 5.7746 7.29139 6.33721L7.75729 6.80311L7.29139 7.26911C6.76936 7.78937 6.45735 8.48376 6.415 9.21955C6.37265 9.95535 6.60292 10.6809 7.06181 11.2577C7.5207 11.8344 8.17602 12.2218 8.90252 12.3458C9.62902 12.4699 10.3758 12.3218 11 11.93V20.8416C10.1216 15.7216 7.21669 13.5147 2.02539 13.5016C2.1576 16.0601 3.26536 18.4706 5.12077 20.2372C6.97618 22.0038 9.4381 22.9921 12 22.9987C11.9988 22.9754 11.9985 22.8198 11.9984 22.625H12.0016C12.0016 22.8198 12.0016 22.975 12 22.9987C14.5619 22.9921 17.0239 22.0037 18.8793 20.2371C20.7347 18.4704 21.8425 16.0599 21.9746 13.5013C16.7833 13.5143 13.8784 15.7211 13 20.8412ZM10.05 6.80321C10.05 6.41742 10.1644 6.04029 10.3787 5.71952C10.5931 5.39875 10.8977 5.14875 11.2542 5.00114C11.6106 4.85352 12.0028 4.81493 12.3812 4.89023C12.7596 4.96553 13.1071 5.15135 13.3799 5.42418C13.6526 5.69701 13.8384 6.0446 13.9136 6.423C13.9888 6.80139 13.9501 7.19358 13.8024 7.54998C13.6547 7.90638 13.4046 8.21097 13.0838 8.42524C12.7629 8.6395 12.3858 8.75381 12 8.75371C11.4828 8.75358 10.9868 8.54802 10.6211 8.18225C10.2554 7.81647 10.05 7.32043 10.05 6.80321Z" fill="black"/>
</svg>
