<svg width="24" height="24" viewBox="0 0 24 24" fill="none" xmlns="http://www.w3.org/2000/svg">
<path d="M20.6223 12.2634L20.5883 12.2852C20.3357 12.4471 20.0533 12.5569 19.7577 12.6082C19.4621 12.6594 19.1592 12.6511 18.8669 12.5836L18.313 12.4557C18.3393 12.2233 18.3529 11.9896 18.3536 11.7557C18.3535 10.5758 18.0227 9.41952 17.3989 8.418L17.848 8.0622C18.0825 7.87576 18.352 7.73818 18.6405 7.65759C18.9291 7.57701 19.2308 7.55504 19.528 7.593L19.5693 7.5982C19.8202 7.62929 20.0747 7.58656 20.3016 7.47524C20.5286 7.36392 20.7182 7.18884 20.8472 6.97144C20.9762 6.75404 21.039 6.50374 21.0279 6.25119C21.0169 5.99864 20.9324 5.75479 20.7849 5.5495C20.6716 5.3891 20.5531 5.2309 20.4294 5.0749C20.3057 4.9189 20.1787 4.76727 20.0482 4.62C19.8823 4.42923 19.6644 4.291 19.4211 4.22226C19.1778 4.15351 18.9198 4.15725 18.6786 4.233C18.4374 4.30876 18.2236 4.45324 18.0633 4.64873C17.903 4.84423 17.8032 5.08224 17.7762 5.3336L17.772 5.3736C17.741 5.67202 17.6507 5.96124 17.5063 6.22425C17.3619 6.48725 17.1664 6.71874 16.9313 6.9051L16.487 7.2572C15.4769 6.24885 14.1558 5.61126 12.7379 5.4478V4.8778C12.7375 4.57829 12.797 4.28173 12.9131 4.0056C13.0291 3.72948 13.1993 3.4794 13.4135 3.2701L13.4435 3.241C13.6237 3.06369 13.7483 2.8377 13.802 2.59067C13.8558 2.34365 13.8363 2.08632 13.746 1.85018C13.6558 1.61405 13.4986 1.40935 13.2938 1.26116C13.089 1.11296 12.8454 1.0277 12.5929 1.0158C12.3966 1.00527 12.1989 1 12 1C11.8011 1 11.6035 1.0054 11.4073 1.0162C11.1548 1.0277 10.9111 1.11264 10.7061 1.2606C10.5011 1.40855 10.3437 1.61311 10.2533 1.84918C10.1628 2.08525 10.1432 2.34258 10.1969 2.58963C10.2505 2.83667 10.3751 3.0627 10.5553 3.24L10.5842 3.2682C10.7988 3.47785 10.9693 3.72827 11.0857 4.00475C11.2021 4.28124 11.2621 4.57821 11.2621 4.8782V5.4482C9.85209 5.61112 8.53772 6.24311 7.53001 7.2427L7.08611 6.8883C6.85179 6.70174 6.65719 6.47016 6.5138 6.20719C6.37041 5.94423 6.28112 5.65522 6.25121 5.3572L6.24701 5.3157C6.22091 5.06419 6.12203 4.82575 5.96248 4.62959C5.80293 4.43342 5.58964 4.28804 5.34872 4.21125C5.1078 4.13447 4.84972 4.12961 4.60608 4.19727C4.36245 4.26493 4.14383 4.40218 3.97701 4.5922C3.84621 4.73887 3.71874 4.8899 3.59461 5.0453C3.47047 5.2007 3.35141 5.3585 3.23741 5.5187C3.08887 5.72323 3.00323 5.96665 2.99098 6.21913C2.97873 6.47161 3.0404 6.72217 3.16844 6.94012C3.29648 7.15807 3.48532 7.33393 3.71182 7.44615C3.93832 7.55837 4.19264 7.60207 4.44361 7.5719L4.48361 7.567C4.78136 7.53005 5.08349 7.553 5.37223 7.6345C5.66098 7.71601 5.93052 7.85442 6.16501 8.0416L6.61261 8.3989C5.98135 9.40467 5.64647 10.568 5.64641 11.7555C5.64681 11.9821 5.65923 12.2086 5.68361 12.4339L5.13001 12.56C4.83802 12.6268 4.53563 12.6344 4.24065 12.5824C3.94567 12.5305 3.66409 12.4199 3.41251 12.2574L3.37751 12.2348C3.16469 12.0984 2.9167 12.0269 2.66391 12.0292C2.41112 12.0316 2.16449 12.1075 1.95422 12.2479C1.74394 12.3882 1.57914 12.5868 1.48 12.8194C1.38086 13.0519 1.35167 13.3083 1.39601 13.5572C1.42934 13.7509 1.46787 13.9447 1.51161 14.1388C1.55534 14.3329 1.60437 14.5243 1.65871 14.7132C1.72592 14.9569 1.86275 15.1757 2.05245 15.3427C2.24215 15.5098 2.47647 15.6179 2.72669 15.6538C2.97692 15.6897 3.23218 15.6518 3.46119 15.5448C3.6902 15.4378 3.88301 15.2663 4.01601 15.0513L4.03711 15.0169C4.19398 14.7611 4.40042 14.5393 4.64429 14.3645C4.88815 14.1898 5.16451 14.0655 5.45711 13.9991L6.01501 13.8723C6.48875 15.209 7.39551 16.3492 8.59131 17.1117L8.34241 17.6264C8.21246 17.8963 8.02979 18.1374 7.80516 18.3355C7.58053 18.5336 7.31849 18.6848 7.03451 18.78L6.99451 18.7932C6.7551 18.8744 6.54457 19.0236 6.38867 19.2227C6.23278 19.4217 6.13829 19.6618 6.11678 19.9137C6.09527 20.1656 6.14767 20.4183 6.26756 20.6408C6.38745 20.8634 6.56964 21.0462 6.79181 21.1668C6.96374 21.2619 7.13924 21.3527 7.31831 21.4393C7.49737 21.5259 7.67764 21.6071 7.85911 21.6828C8.09155 21.7825 8.34804 21.8122 8.59712 21.7682C8.8462 21.7243 9.07703 21.6086 9.26129 21.4353C9.44555 21.2621 9.57523 21.0388 9.63442 20.7929C9.69362 20.547 9.67974 20.2891 9.59451 20.051L9.58071 20.013C9.4787 19.7309 9.43412 19.4312 9.44957 19.1316C9.46503 18.8319 9.54021 18.5384 9.67071 18.2683L9.91951 17.7537C11.2586 18.225 12.7181 18.2276 14.0589 17.7612L14.3058 18.2764C14.4356 18.5463 14.51 18.8395 14.5246 19.1387C14.5393 19.4378 14.4939 19.7369 14.3911 20.0182L14.3769 20.0574C14.291 20.2952 14.2763 20.5528 14.3346 20.7988C14.3928 21.0448 14.5215 21.2685 14.705 21.4424C14.8884 21.6164 15.1186 21.7331 15.3673 21.7782C15.616 21.8234 15.8725 21.7951 16.1054 21.6967C16.287 21.6216 16.4675 21.5411 16.6469 21.4551C16.8263 21.3691 17.0021 21.2789 17.1744 21.1844C17.3972 21.0649 17.5802 20.883 17.7012 20.661C17.8221 20.439 17.8756 20.1866 17.8552 19.9346C17.8347 19.6826 17.7412 19.4421 17.5861 19.2425C17.431 19.0429 17.221 18.8928 16.9819 18.8108L16.9437 18.7979C16.6596 18.7015 16.3976 18.5494 16.1731 18.3503C15.9486 18.1512 15.7662 17.9093 15.6366 17.6387L15.3894 17.1228C16.5877 16.3646 17.4984 15.2277 17.9768 13.8928L18.5346 14.0216C18.8265 14.0886 19.1021 14.2133 19.3451 14.3885C19.588 14.5637 19.7934 14.7857 19.9491 15.0416L19.9709 15.0772C20.1031 15.2926 20.2953 15.4648 20.5239 15.5727C20.7525 15.6806 21.0076 15.7196 21.2579 15.6847C21.5083 15.6499 21.7431 15.5428 21.9335 15.3766C22.124 15.2105 22.2619 14.9923 22.3303 14.749C22.3849 14.5603 22.4346 14.369 22.4795 14.1751C22.5244 13.9812 22.5635 13.7875 22.597 13.594C22.6426 13.3454 22.6146 13.0889 22.5166 12.8559C22.4186 12.623 22.2547 12.4236 22.0451 12.2824C21.8355 12.1412 21.5893 12.0642 21.3366 12.0608C21.0838 12.0574 20.8356 12.1278 20.6223 12.2634ZM11.9973 13.5943C11.6325 13.5943 11.2759 13.4862 10.9726 13.2835C10.6693 13.0808 10.4328 12.7928 10.2932 12.4558C10.1536 12.1187 10.1171 11.7479 10.1882 11.3901C10.2594 11.0323 10.4351 10.7037 10.693 10.4457C10.951 10.1878 11.2796 10.0121 11.6374 9.94094C11.9952 9.86977 12.3661 9.90631 12.7031 10.0459C13.0401 10.1855 13.3282 10.4219 13.5308 10.7253C13.7335 11.0286 13.8416 11.3852 13.8416 11.75C13.8416 11.9922 13.7939 12.232 13.7012 12.4558C13.6086 12.6796 13.4727 12.8829 13.3015 13.0541C13.1302 13.2254 12.9269 13.3613 12.7031 13.4539C12.4793 13.5466 12.2395 13.5943 11.9973 13.5943Z" fill="black"/>
</svg>
