<svg width="24" height="24" viewBox="0 0 24 24" fill="none" xmlns="http://www.w3.org/2000/svg">
<path d="M22.6875 15.4999V13.9999H20.6454C20.8111 12.9692 20.7798 11.9165 20.5532 10.8974C21.5171 9.67472 22.481 7.53602 21.8076 4.16982L21.7676 3.96872H21.5625C19.6757 3.91363 17.7981 4.25148 16.0488 4.96082C14.7952 4.32056 13.4076 3.98673 12 3.98673C10.5924 3.98673 9.2048 4.32056 7.9512 4.96082C6.20199 4.25133 4.32431 3.91347 2.4375 3.96872H2.2324L2.1924 4.16982C1.5195 7.53512 2.4824 9.67372 3.4468 10.8974C3.2202 11.9165 3.18891 12.9692 3.3546 13.9999H1.3125V15.4999H3.7108C3.89034 16.0344 4.12142 16.5502 4.4008 17.0399L2.4808 18.1487L3.2308 19.4476L5.25 18.281C6.06991 19.2778 7.10043 20.0807 8.26752 20.6319C9.43461 21.1831 10.7093 21.469 12 21.469C13.2907 21.469 14.5654 21.1831 15.7325 20.6319C16.8996 20.0807 17.9301 19.2778 18.75 18.281L20.7692 19.4472L21.5192 18.1483L19.5992 17.0395C19.8786 16.5498 20.1097 16.034 20.2892 15.4995L22.6875 15.4999ZM8.4083 9.69812C8.66298 9.69814 8.91193 9.77368 9.12368 9.91519C9.33543 10.0567 9.50046 10.2578 9.59791 10.4931C9.69536 10.7284 9.72084 10.9873 9.67115 11.2371C9.62145 11.4869 9.4988 11.7163 9.31871 11.8964C9.13861 12.0765 8.90917 12.1991 8.65938 12.2488C8.40959 12.2985 8.15069 12.273 7.9154 12.1755C7.6801 12.078 7.479 11.913 7.33751 11.7012C7.19602 11.4895 7.1205 11.2405 7.1205 10.9858C7.1205 10.8167 7.15381 10.6493 7.21853 10.493C7.28325 10.3368 7.37811 10.1948 7.49769 10.0752C7.61728 9.95567 7.75925 9.86082 7.91549 9.79611C8.07173 9.73141 8.23919 9.69811 8.4083 9.69812ZM14.4238 18.6122C13.9519 18.6258 13.4839 18.523 13.0611 18.3127C12.6384 18.1025 12.274 17.7914 12 17.4069C11.7357 17.7544 11.4 18.0412 11.0155 18.248C10.631 18.4547 10.2067 18.5767 9.77104 18.6056C9.33543 18.6344 8.89869 18.5696 8.49025 18.4155C8.08181 18.2613 7.71117 18.0214 7.4033 17.7118L8.3223 16.7918C8.6602 17.1143 9.10935 17.2943 9.57645 17.2943C10.0435 17.2943 10.4927 17.1143 10.8306 16.7918C11.1329 16.4879 11.3136 16.0838 11.3386 15.6558C11.0482 15.5929 10.7878 15.433 10.6002 15.2025C10.4127 14.972 10.3091 14.6846 10.3066 14.3874V14.0939H13.6934V14.3874C13.6909 14.6846 13.5873 14.972 13.3998 15.2025C13.2122 15.433 12.9518 15.5929 12.6614 15.6558C12.6864 16.0838 12.8671 16.4879 13.1694 16.7918C13.5073 17.1143 13.9565 17.2943 14.4235 17.2943C14.8906 17.2943 15.3398 17.1143 15.6777 16.7918L16.5967 17.7118C16.312 17.998 15.9733 18.225 15.6004 18.3795C15.2274 18.5341 14.8275 18.6132 14.4238 18.6122ZM15.5918 12.2735C15.3371 12.2734 15.0882 12.1978 14.8765 12.0563C14.6648 11.9147 14.4999 11.7136 14.4025 11.4783C14.3051 11.243 14.2797 10.9841 14.3294 10.7343C14.3791 10.4845 14.5018 10.2551 14.6819 10.0751C14.862 9.89507 15.0915 9.77247 15.3413 9.72283C15.591 9.67318 15.8499 9.69871 16.0852 9.79619C16.3205 9.89367 16.5215 10.0587 16.663 10.2705C16.8045 10.4822 16.88 10.7312 16.88 10.9858C16.88 11.155 16.8467 11.3225 16.7819 11.4787C16.7172 11.635 16.6223 11.777 16.5027 11.8965C16.383 12.0161 16.241 12.111 16.0847 12.1756C15.9284 12.2403 15.7609 12.2736 15.5918 12.2735Z" fill="black"/>
</svg>
