<svg width="24" height="24" viewBox="0 0 24 24" fill="none" xmlns="http://www.w3.org/2000/svg">
<g clip-path="url(#clip0)">
<path d="M21.618 2.919V1.3999H21.0185L20.7423 3.0015C20.7137 3.20561 20.6122 3.39248 20.4567 3.5277C20.3011 3.66291 20.1019 3.73735 19.8958 3.7373H18.5478V2.2173H17.9478L17.7193 3.7373H14.44L14.2115 2.2173H13.6115V3.7373H12.2349C12.0288 3.73735 11.8297 3.66291 11.6741 3.5277C11.5185 3.39248 11.4171 3.20561 11.3884 3.0015L11.1122 1.3999H10.5127V2.919C10.5127 3.1449 10.5571 3.3686 10.6435 3.57731C10.7299 3.78603 10.8566 3.97567 11.0163 4.1354C11.1761 4.29513 11.3657 4.42183 11.5744 4.50824C11.7831 4.59465 12.0068 4.63908 12.2327 4.639H14.7546L12.8416 9.5837H7.21474C6.7333 9.58369 6.25757 9.68797 5.82028 9.88936C5.38299 10.0908 4.99451 10.3845 4.68158 10.7503C4.36864 11.1162 4.13867 11.5455 4.00748 12.0087C3.8763 12.4719 3.84701 12.9581 3.92164 13.4337L5.26534 21.9999H7.72084V16.5757L9.01724 15.2386L13.5743 16.0815L14.4609 21.9999H16.9354V15.4388C18.6931 13.6319 18.7982 11.7024 17.4827 8.6728H19.8862C20.1706 8.67292 20.4481 8.5857 20.6812 8.42295C20.9144 8.26019 21.0919 8.02975 21.1898 7.7628L21.618 6.6619L18.5665 4.6385H19.8986C20.1244 4.6385 20.348 4.59403 20.5566 4.50761C20.7653 4.4212 20.9548 4.29454 21.1145 4.13487C21.2741 3.97519 21.4008 3.78564 21.4872 3.57702C21.5736 3.3684 21.6181 3.14481 21.618 2.919ZM20.31 7.4652C20.2732 7.54673 20.2136 7.61593 20.1385 7.66456C20.0634 7.71319 19.9759 7.73921 19.8864 7.7395H16.2L16.5967 8.9515C17.9021 11.9193 17.6437 13.3899 16.2445 14.8137L16.0017 15.0786V21.0666H15.2646L14.3965 15.2717L8.66524 14.2346L6.78754 16.2176V21.0666H6.06374L4.84374 13.2884C4.79003 12.946 4.81113 12.596 4.90559 12.2625C5.00005 11.929 5.16563 11.6199 5.39094 11.3565C5.61625 11.0931 5.89594 10.8816 6.21077 10.7366C6.52561 10.5916 6.86812 10.5165 7.21474 10.5165H13.51L15.771 4.6718H16.9316L20.5008 7.0462L20.31 7.4652Z" fill="black"/>
</g>
<defs>
<clipPath id="clip0">
<rect width="24" height="24" fill="white"/>
</clipPath>
</defs>
</svg>
