<svg width="24" height="24" viewBox="0 0 24 24" fill="none" xmlns="http://www.w3.org/2000/svg">
<path d="M18.8842 6.45728C19.1024 5.60721 19.0129 4.70738 18.6316 3.91692C18.2503 3.12647 17.6017 2.49634 16.8006 2.13796C15.9995 1.77959 15.0974 1.71608 14.254 1.95865C13.4106 2.20122 12.6801 2.73426 12.1918 3.46348C11.5637 2.60459 10.6518 1.99588 9.61766 1.7453C8.58355 1.49472 7.49412 1.61845 6.54255 2.09457C5.59098 2.57068 4.83877 3.3684 4.41932 4.34627C3.99986 5.32414 3.94026 6.41896 4.25109 7.43658C3.19946 8.4544 2.57876 9.83713 2.5171 11.2993C2.45544 12.7616 2.95754 14.1916 3.91975 15.2944C4.88196 16.3971 6.23083 17.0883 7.68791 17.2253C9.145 17.3624 10.5991 16.9347 11.75 16.0307V22H12.25V16.1957C13.2259 16.878 14.387 17.2458 15.5778 17.25C16.8413 17.2499 18.0715 16.8444 19.0875 16.0931C20.1034 15.3418 20.8514 14.2843 21.2215 13.0761C21.5916 11.868 21.5643 10.573 21.1436 9.38154C20.7228 8.19009 19.9309 7.16509 18.8842 6.45728ZM15.5778 16.75C14.3446 16.754 13.1479 16.3312 12.191 15.5533L11.8733 15.2971L11.5587 15.5571C10.5202 16.4152 9.19001 16.8383 7.84659 16.7379C6.50317 16.6374 5.25072 16.0211 4.35146 15.018C3.4522 14.0149 2.97587 12.7028 3.0222 11.3564C3.06852 10.01 3.63391 8.73379 4.59999 7.79488L4.81449 7.58598L4.73169 7.29828C4.62037 6.93856 4.56097 6.56479 4.55529 6.18828C4.55241 5.34308 4.81599 4.51847 5.30858 3.83165C5.80117 3.14483 6.49771 2.63074 7.2992 2.36245C8.10069 2.09416 8.96635 2.08531 9.77316 2.33717C10.58 2.58902 11.2869 3.08877 11.7934 3.76538L12.2161 4.32328L12.6068 3.74248C12.9921 3.16821 13.5518 2.73296 14.2032 2.50093C14.8547 2.26889 15.5635 2.25235 16.225 2.45375C16.8866 2.65515 17.466 3.06382 17.8776 3.61949C18.2893 4.17516 18.5115 4.84842 18.5115 5.53998C18.508 5.80824 18.4704 6.07497 18.3997 6.33378L18.313 6.67378L18.6038 6.87078C19.5619 7.51857 20.2869 8.45674 20.6721 9.54729C21.0573 10.6378 21.0823 11.8232 20.7436 12.9291C20.4049 14.0349 19.7202 15.0029 18.7903 15.6906C17.8604 16.3784 16.7344 16.7495 15.5778 16.7496V16.75Z" fill="black"/>
</svg>
