<svg width="24" height="24" viewBox="0 0 24 24" fill="none" xmlns="http://www.w3.org/2000/svg">
<path d="M11.875 3C15.293 3 18.6477 8.5612 18.6477 14.2273C18.6477 16.0235 17.9341 17.7462 16.664 19.0163C15.3939 20.2864 13.6712 21 11.875 21C10.0788 21 8.3561 20.2864 7.08597 19.0163C5.81585 17.7462 5.10229 16.0235 5.10229 14.2273C5.10229 8.5612 8.457 3 11.875 3ZM11.875 2C7.87499 2 4.10229 8 4.10229 14.2273C4.10229 16.2887 4.9212 18.2658 6.37887 19.7234C7.83653 21.1811 9.81355 22 11.875 22C13.9364 22 15.9135 21.1811 17.3711 19.7234C18.8288 18.2658 19.6477 16.2887 19.6477 14.2273C19.6477 8 15.875 2 11.875 2Z" fill="black"/>
</svg>
