<svg width="24" height="24" viewBox="0 0 24 24" fill="none" xmlns="http://www.w3.org/2000/svg">
<path d="M18.5753 1.91504H18.5742C6.95921 1.91534 -0.0342879 7.00774 4.84701 18.5226C4.15161 19.6877 3.48811 20.8718 2.89221 22.0916L4.60781 22.9079C5.10161 21.8373 5.64631 20.7917 6.22221 19.7633C7.29395 19.9087 8.37364 19.9876 9.45511 19.9998C20.108 19.9998 21.8751 11.904 21.8751 2.04204C20.7398 1.95777 19.6398 1.91544 18.5753 1.91504ZM6.10101 16.5118C4.84471 13.014 4.85421 10.2145 6.14491 8.17424C7.91001 5.38384 12.2748 3.83984 18.44 3.81714C17.3006 4.63044 16.1825 5.47394 15.114 6.38074C13.4169 7.81975 11.82 9.37307 10.3347 11.0298C8.84696 12.6892 7.47648 14.4502 6.23321 16.2998C6.18671 16.3688 6.14711 16.4424 6.10101 16.5118ZM9.45511 18.0998C8.77691 18.0998 8.04511 18.0521 7.28851 17.9792C7.43351 17.7459 7.56211 17.5029 7.71121 17.2721C8.87826 15.4672 10.168 13.7447 11.5712 12.1166C14.0281 9.24647 16.8326 6.69316 19.92 4.51554C19.517 14.3538 16.5536 18.0998 9.45511 18.0998Z" fill="black"/>
</svg>
