<svg width="24" height="24" viewBox="0 0 24 24" fill="none" xmlns="http://www.w3.org/2000/svg">
<path d="M18.8394 6.35148C18.8946 6.1391 18.9245 5.92091 18.9282 5.70149C18.9282 4.67059 18.5187 3.68192 17.7897 2.95296C17.0608 2.22401 16.0721 1.81449 15.0412 1.81449C14.4733 1.81451 13.9127 1.94284 13.4014 2.18989C12.89 2.43693 12.4411 2.79631 12.0881 3.24119C11.6618 2.74485 11.1335 2.34622 10.5392 2.07246C9.94489 1.7987 9.29859 1.65624 8.64429 1.65479C7.40509 1.65479 6.21665 2.14705 5.3404 3.0233C4.46416 3.89954 3.97189 5.08799 3.97189 6.32719C3.97685 6.73268 4.03556 7.13573 4.14649 7.52578C3.14659 8.54213 2.56261 9.89546 2.50915 11.3202C2.45569 12.7449 2.93662 14.1382 3.85755 15.2266C4.77848 16.3151 6.07293 17.02 7.48686 17.2032C8.9008 17.3863 10.3321 17.0344 11.5 16.2166V22.0002H12.5V16.4517C13.3984 16.9733 14.4185 17.2488 15.4574 17.2502C16.7327 17.2505 17.9746 16.8426 19.0014 16.0863C20.0282 15.33 20.786 14.2649 21.164 13.0469C21.5419 11.8289 21.5202 10.522 21.1019 9.31722C20.6836 8.11248 19.8908 7.07322 18.8394 6.35148ZM15.4575 16.2502C14.3602 16.2526 13.2936 15.8879 12.4275 15.2141L11.8069 14.7346L11.1932 15.2229C10.3596 15.8911 9.32226 16.2537 8.25389 16.2502C6.99879 16.2486 5.79556 15.7492 4.90812 14.8617C4.02068 13.9742 3.52147 12.7709 3.51999 11.5158C3.51837 10.2848 4.00064 9.10246 4.86279 8.22379L5.26079 7.81559L5.11229 7.26478C5.0239 6.95995 4.97682 6.64464 4.97229 6.32728C4.97329 5.3537 5.36042 4.42026 6.04875 3.73172C6.73707 3.04319 7.6704 2.65578 8.64399 2.65449C10.6235 2.65449 12.1211 4.80448 12.1211 4.80448C12.1211 4.80448 13.353 2.81329 15.0411 2.81329C15.8066 2.81434 16.5404 3.11894 17.0817 3.66027C17.6229 4.20161 17.9274 4.93549 17.9283 5.70098C17.9074 6.07141 17.8328 6.43684 17.7071 6.78588L18.2726 7.17589C19.1483 7.77654 19.8088 8.64174 20.1573 9.64483C20.5058 10.6479 20.5241 11.7362 20.2094 12.7505C19.8948 13.7647 19.2638 14.6516 18.4087 15.2813C17.5537 15.911 16.5195 16.2505 15.4576 16.2501L15.4575 16.2502ZM8.27089 10.2814C7.97421 10.2814 7.68421 10.3694 7.43753 10.5342C7.19086 10.699 6.9986 10.9333 6.88507 11.2074C6.77154 11.4814 6.74183 11.783 6.79971 12.074C6.85759 12.365 7.00045 12.6323 7.21023 12.842C7.42001 13.0518 7.68728 13.1947 7.97825 13.2526C8.26922 13.3104 8.57082 13.2807 8.84491 13.1672C9.119 13.0537 9.35327 12.8614 9.51809 12.6147C9.68291 12.3681 9.77089 12.0781 9.77089 11.7814C9.77089 11.3836 9.61285 11.002 9.33155 10.7207C9.05024 10.4394 8.66871 10.2814 8.27089 10.2814ZM8.27089 12.3814C8.15222 12.3814 8.03621 12.3462 7.93754 12.2803C7.83887 12.2143 7.76197 12.1206 7.71656 12.011C7.67115 11.9014 7.65926 11.7807 7.68242 11.6643C7.70557 11.5479 7.76271 11.441 7.84662 11.3571C7.93053 11.2732 8.03744 11.2161 8.15383 11.1929C8.27022 11.1698 8.39086 11.1816 8.5005 11.2271C8.61013 11.2725 8.70384 11.3494 8.76977 11.448C8.8357 11.5467 8.87089 11.6627 8.87089 11.7814C8.87081 11.9404 8.80757 12.093 8.69508 12.2054C8.58259 12.3179 8.43005 12.3811 8.27099 12.3811L8.27089 12.3814ZM12.49 6.33349C12.1933 6.33349 11.9033 6.42146 11.6566 6.58628C11.41 6.7511 11.2177 6.98537 11.1042 7.25946C10.9906 7.53355 10.9609 7.83515 11.0188 8.12612C11.0767 8.41709 11.2195 8.68437 11.4293 8.89415C11.6391 9.10392 11.9064 9.24678 12.1974 9.30466C12.4883 9.36254 12.7899 9.33284 13.064 9.2193C13.3381 9.10577 13.5724 8.91351 13.7372 8.66684C13.902 8.42017 13.99 8.13016 13.99 7.83349C13.99 7.43566 13.832 7.05413 13.5506 6.77282C13.2693 6.49152 12.8878 6.33349 12.49 6.33349ZM12.49 8.43279C12.3713 8.43279 12.2553 8.3976 12.1566 8.33167C12.058 8.26574 11.9811 8.17203 11.9357 8.0624C11.8902 7.95276 11.8784 7.83212 11.9015 7.71573C11.9247 7.59934 11.9818 7.49243 12.0657 7.40852C12.1496 7.32461 12.2565 7.26746 12.3729 7.24431C12.4893 7.22116 12.61 7.23304 12.7196 7.27846C12.8292 7.32387 12.9229 7.40077 12.9889 7.49944C13.0548 7.59811 13.09 7.71412 13.09 7.83279C13.09 7.99192 13.0268 8.14453 12.9143 8.25705C12.8017 8.36957 12.6491 8.43279 12.49 8.43279ZM15.73 10.4481C15.4333 10.4481 15.1433 10.5361 14.8966 10.7009C14.65 10.8657 14.4577 11.1 14.3442 11.3741C14.2306 11.6481 14.2009 11.9497 14.2588 12.2407C14.3167 12.5317 14.4595 12.799 14.6693 13.0087C14.8791 13.2185 15.1464 13.3614 15.4374 13.4193C15.7283 13.4771 16.0299 13.4474 16.304 13.3339C16.5781 13.2204 16.8124 13.0281 16.9772 12.7814C17.142 12.5348 17.23 12.2448 17.23 11.9481C17.23 11.751 17.1912 11.5559 17.1157 11.3739C17.0403 11.1918 16.9297 11.0264 16.7904 10.8871C16.651 10.7478 16.4855 10.6374 16.3035 10.562C16.1214 10.4867 15.9262 10.448 15.7292 10.4481H15.73ZM15.73 12.5481C15.6113 12.5481 15.4953 12.5129 15.3966 12.447C15.298 12.381 15.2211 12.2873 15.1757 12.1777C15.1302 12.0681 15.1184 11.9474 15.1415 11.831C15.1647 11.7146 15.2218 11.6077 15.3057 11.5238C15.3896 11.4399 15.4965 11.3828 15.6129 11.3596C15.7293 11.3365 15.85 11.3483 15.9596 11.3938C16.0692 11.4392 16.1629 11.5161 16.2289 11.6147C16.2948 11.7134 16.33 11.8294 16.33 11.9481C16.33 12.027 16.3144 12.1051 16.2842 12.1779C16.254 12.2508 16.2097 12.317 16.1539 12.3727C16.0981 12.4284 16.0318 12.4726 15.9589 12.5027C15.886 12.5328 15.8079 12.5482 15.729 12.5481H15.73Z" fill="black"/>
</svg>
