<svg width="24" height="24" viewBox="0 0 24 24" fill="none" xmlns="http://www.w3.org/2000/svg">
<path d="M12 5.8675C11.7429 5.8675 11.4916 5.94374 11.2778 6.08659C11.064 6.22943 10.8974 6.43246 10.799 6.67001C10.7006 6.90755 10.6748 7.16894 10.725 7.42111C10.7752 7.67329 10.899 7.90493 11.0808 8.08673C11.2626 8.26854 11.4942 8.39236 11.7464 8.44252C11.9986 8.49268 12.26 8.46693 12.4975 8.36854C12.735 8.27015 12.9381 8.10352 13.0809 7.88974C13.2238 7.67595 13.3 7.42461 13.3 7.1675C13.3 6.82271 13.163 6.49205 12.9193 6.24826C12.6755 6.00446 12.3448 5.8675 12 5.8675ZM18.2939 13.9999C17.237 13.9817 16.1928 14.2312 15.2584 14.7254C14.324 15.2196 13.5298 15.9422 12.95 16.826V12.9378C13.4109 13.1404 13.9082 13.2471 14.4117 13.2514C14.894 13.2522 15.3718 13.1576 15.8174 12.973C16.263 12.7884 16.6677 12.5175 17.0081 12.1758C17.6638 11.5177 18.0472 10.6365 18.0817 9.70808C18.1161 8.77969 17.7991 7.87248 17.1939 7.1676C17.7993 6.46322 18.1162 5.55614 18.0811 4.62804C18.0461 3.69993 17.6618 2.81932 17.005 2.16257C16.3483 1.50583 15.4677 1.12143 14.5396 1.08637C13.6115 1.0513 12.7044 1.36817 12 1.9735C11.3278 1.39906 10.4726 1.08345 9.58831 1.0835C8.88383 1.08423 8.19436 1.28717 7.60181 1.66819C7.00926 2.04921 6.53853 2.59231 6.24553 3.23298C5.95254 3.87364 5.84959 4.58494 5.94893 5.28239C6.04826 5.97983 6.3457 6.63411 6.80591 7.1675C6.2559 7.79595 5.93682 8.59329 5.90143 9.42769C5.86605 10.2621 6.11647 11.0836 6.6113 11.7564C7.10613 12.4291 7.81573 12.9129 8.6228 13.1277C9.42986 13.3424 10.286 13.2753 11.0498 12.9375V16.8257C10.47 15.942 9.67587 15.2194 8.74151 14.7253C7.80714 14.2312 6.76292 13.9817 5.70611 13.9999H3.95001V15.7559C3.95 16.7072 4.13736 17.6492 4.5014 18.5281C4.86544 19.407 5.39903 20.2055 6.0717 20.8782C6.74437 21.5509 7.54295 22.0845 8.42184 22.4485C9.30073 22.8125 10.2427 22.9999 11.194 22.9999H12.806C13.7573 22.9999 14.6993 22.8125 15.5782 22.4485C16.4571 22.0845 17.2557 21.5509 17.9283 20.8782C18.601 20.2055 19.1346 19.407 19.4986 18.5281C19.8627 17.6492 20.05 16.7072 20.05 15.7559V13.9999H18.2939ZM5.85191 15.9018C7.21771 15.9407 8.51689 16.5006 9.48305 17.4668C10.4492 18.4329 11.0091 19.7321 11.048 21.0979C9.68217 21.0591 8.38292 20.4993 7.41674 19.5331C6.45055 18.5669 5.89067 17.2676 5.85191 15.9018ZM12 9.996L10.832 10.992C10.4852 11.288 10.0443 11.4509 9.58831 11.4514C9.34236 11.4521 9.09871 11.4039 8.87148 11.3098C8.64425 11.2157 8.43795 11.0774 8.26451 10.903C7.92666 10.5662 7.72949 10.1135 7.71296 9.63672C7.69643 9.15994 7.86179 8.6947 8.17551 8.3353L9.17141 7.1675L8.17551 5.9999C7.86182 5.6405 7.69648 5.17528 7.71301 4.69852C7.72953 4.22176 7.92668 3.76911 8.26451 3.4323C8.43793 3.25792 8.6442 3.11967 8.87139 3.02554C9.09859 2.93141 9.34219 2.88327 9.58811 2.8839C10.0441 2.88445 10.4851 3.0473 10.832 3.3433L12 4.3391L13.168 3.3431C13.5149 3.04699 13.9559 2.88409 14.4119 2.8836C14.6578 2.88297 14.9014 2.93111 15.1286 3.02524C15.3558 3.11937 15.5621 3.25762 15.7355 3.432C16.0734 3.76883 16.2706 4.22154 16.2872 4.69837C16.3037 5.1752 16.1383 5.64048 15.8245 5.9999L14.8286 7.1678L15.8245 8.3356C16.1382 8.695 16.3036 9.16024 16.2871 9.63702C16.2705 10.1138 16.0734 10.5665 15.7355 10.9033C15.5621 11.0777 15.3558 11.2159 15.1286 11.3101C14.9014 11.4042 14.6578 11.4523 14.4119 11.4517C13.9559 11.4512 13.5149 11.2883 13.168 10.9922L12 9.996ZM12.952 21.0979C12.9908 19.7321 13.5507 18.4328 14.5169 17.4667C15.4831 16.5005 16.7823 15.9407 18.1481 15.9019C18.1093 17.2677 17.5494 18.5669 16.5833 19.5331C15.6171 20.4993 14.3178 21.0591 12.952 21.0979Z" fill="black"/>
</svg>
