<svg width="24" height="24" viewBox="0 0 24 24" fill="none" xmlns="http://www.w3.org/2000/svg">
<path d="M19.94 12.947L18.3 12L19.94 11.053C20.2983 10.8462 20.6123 10.5708 20.8641 10.2426C21.1159 9.91443 21.3006 9.53986 21.4077 9.14029C21.5148 8.74072 21.5421 8.32398 21.4881 7.91385C21.4341 7.50372 21.2998 7.10825 21.093 6.75C20.8862 6.39175 20.6108 6.07775 20.2826 5.82593C19.9544 5.5741 19.5799 5.38939 19.1803 5.28232C18.3733 5.06609 17.5135 5.17928 16.79 5.597L15.15 6.544V4.65C15.15 3.81457 14.8181 3.01335 14.2274 2.42261C13.6367 1.83187 12.8354 1.5 12 1.5C11.1646 1.5 10.3634 1.83187 9.77262 2.42261C9.18188 3.01335 8.85001 3.81457 8.85001 4.65V6.544L7.21001 5.597C6.4865 5.17928 5.62669 5.06609 4.81972 5.28232C4.01275 5.49855 3.32473 6.02649 2.90701 6.75C2.48929 7.47351 2.3761 8.33332 2.59233 9.14029C2.80856 9.94726 3.3365 10.6353 4.06001 11.053L5.70001 12L4.06001 12.947C3.3365 13.3647 2.80856 14.0527 2.59233 14.8597C2.3761 15.6667 2.48929 16.5265 2.90701 17.25C3.32473 17.9735 4.01275 18.5014 4.81972 18.7177C5.62669 18.9339 6.4865 18.8207 7.21001 18.403L8.85001 17.4559V19.35C8.85001 20.1854 9.18188 20.9866 9.77262 21.5774C10.3634 22.1681 11.1646 22.5 12 22.5C12.8354 22.5 13.6367 22.1681 14.2274 21.5774C14.8181 20.9866 15.15 20.1854 15.15 19.35V17.4559L16.79 18.403C17.5135 18.8207 18.3733 18.9339 19.1803 18.7177C19.5799 18.6106 19.9544 18.4259 20.2826 18.1741C20.6108 17.9222 20.8862 17.6082 21.093 17.25C21.2998 16.8918 21.4341 16.4963 21.4881 16.0861C21.5421 15.676 21.5148 15.2593 21.4077 14.8597C21.3006 14.4601 21.1159 14.0856 20.8641 13.7574C20.6123 13.4292 20.2983 13.1538 19.94 12.947ZM12 15.25C11.3572 15.25 10.7289 15.0594 10.1944 14.7023C9.65995 14.3452 9.24339 13.8376 8.9974 13.2437C8.75142 12.6499 8.68706 11.9964 8.81246 11.366C8.93786 10.7355 9.24739 10.1564 9.70191 9.7019C10.1564 9.24738 10.7355 8.93785 11.366 8.81245C11.9964 8.68705 12.6499 8.75141 13.2437 8.99739C13.8376 9.24338 14.3452 9.65994 14.7023 10.1944C15.0594 10.7289 15.25 11.3572 15.25 12C15.25 12.862 14.9076 13.6886 14.2981 14.2981C13.6886 14.9076 12.862 15.25 12 15.25Z" fill="black"/>
</svg>
