<svg width="24" height="24" viewBox="0 0 24 24" fill="none" xmlns="http://www.w3.org/2000/svg">
<path d="M15.3537 5.00039C14.3782 4.98661 13.4122 5.1941 12.5283 5.60729C12.6096 5.09899 12.7502 4.60197 12.9471 4.12639C13.262 3.42565 13.6884 2.78061 14.2097 2.21639L12.8563 1.18799C12.3386 1.95949 11.9494 2.80977 11.7036 3.70579C11.5467 4.31866 11.4651 4.94837 11.4605 5.58099C10.5906 5.18517 9.64374 4.98689 8.68804 5.00039C7.17979 4.97537 5.71003 5.47709 4.5319 6.41914C3.35376 7.36118 2.54102 8.68458 2.23364 10.1614C2.24504 10.1604 2.25524 10.1565 2.26664 10.1556C2.35134 10.1493 2.43574 10.1462 2.51934 10.1462C3.36599 10.145 4.1816 10.4649 4.80172 11.0413C5.42184 11.6177 5.80035 12.4078 5.86093 13.2523C5.92151 14.0968 5.65966 14.9328 5.12817 15.5919C4.59668 16.2509 3.83509 16.6839 2.99694 16.8036C4.17074 19.6659 6.34634 22.0107 9.20874 22.0107C9.78243 22.0077 10.3525 21.9191 10.9 21.748C11.2598 21.6131 11.6373 21.5315 12.0206 21.5057C12.4039 21.5315 12.7814 21.6131 13.1411 21.748C13.6888 21.9191 14.259 22.0076 14.8327 22.0107C17.6955 22.0107 19.8706 19.6661 21.0446 16.8036C20.2065 16.6839 19.4449 16.2509 18.9134 15.5919C18.3819 14.9328 18.1201 14.0968 18.1807 13.2523C18.2412 12.4078 18.6197 11.6177 19.2399 11.0413C19.86 10.4649 20.6756 10.145 21.5222 10.1462C21.6058 10.1462 21.69 10.1493 21.7748 10.1556C21.7862 10.1565 21.7965 10.1604 21.8078 10.1614C21.5005 8.68463 20.6878 7.36127 19.5097 6.41923C18.3316 5.47719 16.8619 4.97544 15.3537 5.00039ZM16.6857 13.1395C16.6232 14.0214 16.8028 14.9037 17.205 15.691C17.6073 16.4783 18.2169 17.1409 18.9681 17.6071C18.1872 18.9123 16.824 20.5107 14.833 20.5107C14.4077 20.5072 13.9852 20.4407 13.5793 20.3134L13.4693 20.2795C13.0036 20.1139 12.515 20.0216 12.0209 20.0057C11.5269 20.0215 11.0382 20.1139 10.5724 20.2795L10.4624 20.3134C10.0566 20.4407 9.63416 20.5072 9.20884 20.5107C7.21784 20.5107 5.85464 18.9123 5.07364 17.607C5.83893 17.1343 6.45727 16.4575 6.8592 15.6528C7.26112 14.848 7.43073 13.9472 7.34896 13.0514C7.26719 12.1556 6.93729 11.3003 6.3963 10.5816C5.85532 9.86296 5.12468 9.30936 4.28644 8.98299C4.72992 8.21236 5.37257 7.57524 6.147 7.13845C6.92143 6.70165 7.79913 6.48126 8.68804 6.50039C9.59261 6.47558 10.4863 6.70278 11.2691 7.15659L12.0209 7.59199L12.7726 7.15659C13.5555 6.70278 14.4492 6.47558 15.3537 6.50039C16.2427 6.48126 17.1204 6.70164 17.8949 7.13844C18.6693 7.57523 19.312 8.21235 19.7555 8.98299C18.9059 9.31882 18.1677 9.88653 17.6249 10.6215C17.0822 11.3564 16.7568 12.229 16.6857 13.1398V13.1395Z" fill="black"/>
</svg>
