<svg width="24" height="24" viewBox="0 0 24 24" fill="none" xmlns="http://www.w3.org/2000/svg">
<path d="M19.712 3.55656L16.9269 2.44336L16.4105 3.73426C16.2839 3.4734 16.0841 3.255 15.8355 3.10567C15.587 2.95635 15.3003 2.88255 15.0105 2.89327C14.7208 2.90398 14.4404 2.99875 14.2035 3.16602C13.9666 3.3333 13.7835 3.56586 13.6765 3.83536L11.2106 9.99996H10.4042L8.20842 4.57146L6.00002 2.99996L5.42322 5.68476L7.16882 9.99996H6.00002V20C6.00002 20.5304 6.21073 21.0391 6.5858 21.4142C6.96088 21.7892 7.46958 22 8.00002 22H16C16.5304 22 17.0392 21.7892 17.4142 21.4142C17.7893 21.0391 18 20.5304 18 20V9.99996H17.1346L19.712 3.55656ZM17.2055 3.09316L19.0621 3.83526L16.5962 9.99996H14.4427L17.2055 3.09316ZM14.1407 4.02116C14.1872 3.89609 14.2582 3.78158 14.3496 3.68438C14.4409 3.58717 14.5508 3.50924 14.6728 3.45516C14.7948 3.40108 14.9263 3.37195 15.0597 3.36949C15.1931 3.36703 15.3256 3.39129 15.4495 3.44084C15.5734 3.49038 15.6861 3.56421 15.781 3.65798C15.8759 3.75175 15.9511 3.86357 16.0021 3.98684C16.0531 4.11011 16.079 4.24234 16.0781 4.37575C16.0773 4.50916 16.0497 4.64106 15.9971 4.76366L13.9025 9.99996H11.7491L14.1407 4.02116ZM5.94432 5.63996L6.32922 3.84796L7.80002 4.89416L9.86492 9.99996H7.70812L5.94432 5.63996ZM17.5 20C17.4996 20.3976 17.3414 20.7789 17.0602 21.0601C16.779 21.3413 16.3977 21.4995 16 21.5H8.00002C7.60233 21.4995 7.22106 21.3413 6.93985 21.0601C6.65865 20.7789 6.50047 20.3976 6.50002 20V10.5H17.5V20Z" fill="black"/>
</svg>
