<svg width="24" height="24" viewBox="0 0 24 24" fill="none" xmlns="http://www.w3.org/2000/svg">
<path d="M21 19.6C20.7627 19.6 20.5307 19.6704 20.3334 19.8022C20.136 19.9341 19.9822 20.1215 19.8914 20.3408C19.8006 20.5601 19.7768 20.8013 19.8231 21.0341C19.8694 21.2669 19.9837 21.4807 20.1515 21.6485C20.3193 21.8164 20.5332 21.9306 20.7659 21.9769C20.9987 22.0232 21.24 21.9995 21.4593 21.9087C21.6785 21.8178 21.866 21.664 21.9978 21.4667C22.1297 21.2693 22.2001 21.0373 22.2001 20.8C22.2001 20.4817 22.0736 20.1765 21.8486 19.9515C21.6235 19.7264 21.3183 19.6 21 19.6ZM16.5 19.6C16.2627 19.6 16.0307 19.6704 15.8334 19.8022C15.636 19.9341 15.4822 20.1215 15.3914 20.3408C15.3006 20.5601 15.2768 20.8013 15.3231 21.0341C15.3694 21.2669 15.4837 21.4807 15.6515 21.6485C15.8193 21.8164 16.0332 21.9306 16.2659 21.9769C16.4987 22.0232 16.74 21.9995 16.9593 21.9087C17.1785 21.8178 17.366 21.664 17.4978 21.4667C17.6297 21.2693 17.7001 21.0373 17.7001 20.8C17.7001 20.4817 17.5736 20.1765 17.3486 19.9515C17.1235 19.7264 16.8183 19.6 16.5 19.6ZM12 19.6C11.7627 19.6 11.5307 19.6704 11.3334 19.8022C11.136 19.9341 10.9822 20.1215 10.8914 20.3408C10.8006 20.5601 10.7768 20.8013 10.8231 21.0341C10.8694 21.2669 10.9837 21.4807 11.1515 21.6485C11.3193 21.8164 11.5332 21.9306 11.7659 21.9769C11.9987 22.0232 12.24 21.9995 12.4593 21.9087C12.6785 21.8178 12.866 21.664 12.9978 21.4667C13.1297 21.2693 13.2 21.0373 13.2 20.8C13.2 20.4817 13.0736 20.1765 12.8486 19.9515C12.6235 19.7264 12.3183 19.6 12 19.6ZM7.50005 19.6C7.26271 19.6 7.0307 19.6704 6.83337 19.8022C6.63603 19.9341 6.48222 20.1215 6.39139 20.3408C6.30057 20.5601 6.2768 20.8013 6.32311 21.0341C6.36941 21.2669 6.4837 21.4807 6.65152 21.6485C6.81934 21.8164 7.03316 21.9306 7.26594 21.9769C7.49872 22.0232 7.74 21.9995 7.95927 21.9087C8.17854 21.8178 8.36596 21.664 8.49781 21.4667C8.62967 21.2693 8.70005 21.0373 8.70005 20.8C8.70005 20.4817 8.57362 20.1765 8.34858 19.9515C8.12353 19.7264 7.81831 19.6 7.50005 19.6ZM10 4H14V6H10V4ZM21 15.5V8.5C21 7.83696 20.7367 7.20107 20.2678 6.73223C19.799 6.26339 19.1631 6 18.5 6H16V4C16 3.46957 15.7893 2.96086 15.4143 2.58579C15.0392 2.21071 14.5305 2 14 2H10C9.46962 2 8.96091 2.21071 8.58584 2.58579C8.21076 2.96086 8.00005 3.46957 8.00005 4V6H5.50005C4.83701 6 4.20112 6.26339 3.73228 6.73223C3.26344 7.20107 3.00005 7.83696 3.00005 8.5V15.5C3.00005 16.163 3.26344 16.7989 3.73228 17.2678C4.20112 17.7366 4.83701 18 5.50005 18H18.5C19.1631 18 19.799 17.7366 20.2678 17.2678C20.7367 16.7989 21 16.163 21 15.5ZM19 15.5C18.9999 15.6326 18.9472 15.7596 18.8534 15.8534C18.7597 15.9471 18.6326 15.9998 18.5 16H5.50005C5.36749 15.9998 5.24041 15.9471 5.14667 15.8534C5.05294 15.7596 5.00021 15.6326 5.00005 15.5V8.5C5.00021 8.36744 5.05294 8.24036 5.14667 8.14662C5.24041 8.05289 5.36749 8.00016 5.50005 8H18.5C18.6326 8.00016 18.7597 8.05289 18.8534 8.14662C18.9472 8.24036 18.9999 8.36744 19 8.5V15.5ZM3.00005 19.6C2.76271 19.6 2.5307 19.6704 2.33336 19.8022C2.13603 19.9341 1.98222 20.1215 1.89139 20.3408C1.80057 20.5601 1.7768 20.8013 1.82311 21.0341C1.86941 21.2669 1.9837 21.4807 2.15152 21.6485C2.31934 21.8164 2.53316 21.9306 2.76594 21.9769C2.99872 22.0232 3.24 21.9995 3.45927 21.9087C3.67854 21.8178 3.86596 21.664 3.99781 21.4667C4.12967 21.2693 4.20005 21.0373 4.20005 20.8C4.20005 20.4817 4.07362 20.1765 3.84858 19.9515C3.62353 19.7264 3.31831 19.6 3.00005 19.6Z" fill="black"/>
</svg>
