<svg width="24" height="24" viewBox="0 0 24 24" fill="none" xmlns="http://www.w3.org/2000/svg">
<path d="M17 2V5.5C17 5.89782 16.842 6.27936 16.5607 6.56066C16.2794 6.84196 15.8978 7 15.5 7H8.5C8.10218 7 7.72064 6.84196 7.43934 6.56066C7.15804 6.27936 7 5.89782 7 5.5V2H4V22H20V2H17ZM15.0034 15.9858L13.8716 17.1177L12 15.2461L10.1284 17.1177L8.9966 15.9858L10.8682 14.1143L8.9966 12.2427L10.1284 11.1108L12 12.9824L13.8716 11.1108L15.0034 12.2427L13.1318 14.1143L15.0034 15.9858Z" fill="black"/>
</svg>
