<svg width="24" height="24" viewBox="0 0 24 24" fill="none" xmlns="http://www.w3.org/2000/svg">
<path d="M18.6963 3.27828L17.3037 2.72168L14.3924 9.99998H12.74L15.15 3.97468C15.189 3.88281 15.2092 3.78407 15.2096 3.68427C15.2099 3.58447 15.1903 3.4856 15.152 3.39346C15.1136 3.30132 15.0573 3.21776 14.9862 3.14768C14.9151 3.07761 14.8308 3.02242 14.7381 2.98535C14.6455 2.94828 14.5463 2.93008 14.4466 2.93181C14.3468 2.93354 14.2483 2.95518 14.157 2.99544C14.0657 3.0357 13.9833 3.09379 13.9147 3.1663C13.8461 3.2388 13.7927 3.32426 13.7576 3.41768L11.1248 9.99998H9.60749L7.25289 4.11428L5.99999 2.99998L5.85999 4.67088L7.99219 9.99998H5.99999V20C5.99999 20.5304 6.2107 21.0391 6.58577 21.4142C6.96084 21.7893 7.46955 22 7.99999 22H16C16.5304 22 17.0391 21.7893 17.4142 21.4142C17.7893 21.0391 18 20.5304 18 20V9.99998H16.0076L18.6963 3.27828ZM16.5 20C16.4998 20.1325 16.4471 20.2596 16.3534 20.3534C16.2596 20.4471 16.1325 20.4998 16 20.5H7.99999C7.86743 20.4998 7.74034 20.4471 7.64661 20.3534C7.55287 20.2596 7.50014 20.1325 7.49999 20V11.5H16.5V20Z" fill="black"/>
</svg>
