<svg width="24" height="24" viewBox="0 0 24 24" fill="none" xmlns="http://www.w3.org/2000/svg">
<path d="M18.3334 12.5C18.3334 12.2026 18.267 11.909 18.1392 11.6405C18.0114 11.3719 17.8253 11.1353 17.5945 10.9478L16.3334 9.923V2.364L17.1398 1.264C17.2656 1.0925 17.3334 0.885372 17.3334 0.6727V0H6.66669V0.6727C6.66662 0.885339 6.73433 1.09246 6.85999 1.264L7.66649 2.364V9.923L6.40549 10.9478C6.17469 11.1353 5.98862 11.372 5.86081 11.6405C5.73301 11.909 5.66669 12.2026 5.66669 12.5V14H11.25V22.9166L12 23.6666L12.75 22.9166V14H18.3334V12.5Z" fill="black"/>
</svg>
