<svg width="24" height="24" viewBox="0 0 24 24" fill="none" xmlns="http://www.w3.org/2000/svg">
<path d="M15.2916 0.914551L14.5579 1.64815C14.4076 1.79852 14.3091 1.99289 14.2767 2.20305L14.0691 3.55115L8.6048 9.01555L6.1188 8.51835C5.79595 8.45372 5.46213 8.46982 5.147 8.56523C4.83187 8.66064 4.54518 8.8324 4.3124 9.06525L3.2708 10.107L8.3975 15.2338L1 22.6308V23H1.3379L8.751 15.5873L13.8773 20.7136L14.919 19.6719C15.1518 19.439 15.3235 19.1523 15.4189 18.8372C15.5143 18.5221 15.5305 18.1883 15.4659 17.8654L14.9688 15.3795L20.4331 9.91515L21.7812 9.70755C21.9914 9.6752 22.1857 9.5767 22.3361 9.42635L23.0697 8.69265L15.2916 0.914551ZM21.9825 9.07275C21.9075 9.14816 21.8103 9.19745 21.7051 9.21335L20.357 9.42095L20.1953 9.44585L20.0795 9.56155L14.6152 15.0259L14.426 15.2151L14.976 17.9636C15.0247 18.2057 15.0128 18.4561 14.9413 18.6925C14.8697 18.9289 14.7408 19.1439 14.566 19.3183L13.8779 20.0065L3.9778 10.107L4.666 9.41885C4.84059 9.24421 5.05561 9.11541 5.29196 9.04388C5.52832 8.97235 5.77868 8.96032 6.0208 9.00885L8.5067 9.50605L8.7691 9.55845L14.5384 3.78925L14.5633 3.62745L14.7709 2.27935C14.7868 2.1742 14.8361 2.07695 14.9115 2.00195L15.2915 1.62195L22.3625 8.69295L21.9825 9.07275Z" fill="black"/>
</svg>
