<svg width="24" height="24" viewBox="0 0 24 24" fill="none" xmlns="http://www.w3.org/2000/svg">
<path d="M19.0667 2.9333V21.0667H4.9333V2.9333H6.7333V5.8333C6.73394 6.39006 6.95539 6.92383 7.34908 7.31752C7.74277 7.71121 8.27654 7.93266 8.8333 7.9333H15.1667C15.7235 7.93266 16.2572 7.71121 16.6509 7.31752C17.0446 6.92383 17.2661 6.39006 17.2667 5.8333V2.9333H19.0667ZM20 2H16.3333V5.8333C16.3333 5.98651 16.3031 6.13822 16.2445 6.27977C16.1859 6.42132 16.1 6.54994 15.9916 6.65828C15.8833 6.76661 15.7547 6.85255 15.6132 6.91119C15.4716 6.96982 15.3199 7 15.1667 7H8.8333C8.68009 7 8.52838 6.96982 8.38684 6.91119C8.24529 6.85255 8.11668 6.76661 8.00835 6.65828C7.90002 6.54994 7.81409 6.42132 7.75547 6.27977C7.69685 6.13822 7.66669 5.98651 7.6667 5.8333V2H4V22H20V2Z" fill="black"/>
</svg>
