<svg width="24" height="24" viewBox="0 0 24 24" fill="none" xmlns="http://www.w3.org/2000/svg">
<path d="M15.2916 0.914551L14.8159 1.39025C14.6655 1.5406 14.567 1.73498 14.5346 1.94515L14.3271 3.29325L8.9276 8.69265L6.4417 8.19555C6.11883 8.13091 5.78499 8.14702 5.46984 8.24245C5.15469 8.33787 4.86798 8.50966 4.6352 8.74255L3.2708 10.107L7.8672 14.7035L1 21.57V23H2.3985L9.2813 16.1175L13.8773 20.7136L15.2418 19.3491C15.4746 19.1162 15.6464 18.8296 15.7418 18.5144C15.8372 18.1993 15.8534 17.8655 15.7888 17.5427L15.2916 15.0567L20.691 9.65715L22.0391 9.44995C22.2493 9.41762 22.4437 9.31911 22.5941 9.16875L23.0697 8.69305L15.2916 0.914551ZM19.2769 8.24295L13.8769 13.643L13.1201 14.3999L13.3301 15.4499L13.8024 17.8113L6.1738 10.1816L8.5353 10.6539L9.5853 10.8639L10.3422 10.107L15.7422 4.70755L15.9996 4.45015L19.5351 7.98575L19.2769 8.24295Z" fill="black"/>
</svg>
