<svg width="24" height="24" viewBox="0 0 24 24" fill="none" xmlns="http://www.w3.org/2000/svg">
<path d="M15.6667 2V5.5C15.6667 5.60944 15.6451 5.71781 15.6033 5.81891C15.5614 5.92002 15.5 6.01189 15.4226 6.08927C15.3452 6.16665 15.2533 6.22803 15.1522 6.2699C15.0511 6.31177 14.9427 6.33331 14.8333 6.3333H9.1667C9.05726 6.33331 8.94889 6.31177 8.84778 6.2699C8.74667 6.22803 8.65479 6.16665 8.5774 6.08927C8.50001 6.01189 8.43862 5.92002 8.39674 5.81891C8.35486 5.71781 8.3333 5.60944 8.3333 5.5V2H4V22H20V2H15.6667ZM18.6334 20.6333H5.3666V3.3666H6.9666V5.5C6.96726 6.08327 7.19926 6.64247 7.6117 7.0549C8.02413 7.46734 8.58333 7.69934 9.1666 7.7H14.8332C15.4165 7.69934 15.9757 7.46734 16.3881 7.0549C16.8005 6.64247 17.0325 6.08327 17.0332 5.5V3.3666H18.6332L18.6334 20.6333ZM14.0734 10.8438L12 12.9173L9.9266 10.8438L9.0106 11.7598L11.084 13.8333L9.0106 15.9067L9.9266 16.8228L12 14.7493L14.0734 16.8228L14.9894 15.9067L12.916 13.8333L14.9894 11.76L14.0734 10.8438Z" fill="black"/>
</svg>
