<svg width="24" height="24" viewBox="0 0 24 24" fill="none" xmlns="http://www.w3.org/2000/svg">
<path d="M17 9V6C17 4.67392 16.4732 3.40215 15.5355 2.46447C14.5979 1.52678 13.3261 1 12 1C10.6739 1 9.40215 1.52678 8.46447 2.46447C7.52678 3.40215 7 4.67392 7 6V9H3V23H21V9H17ZM14.2979 17.9443L13.9443 18.2979L12 16.3535L10.0557 18.2979L9.7021 17.9443L11.6465 16L9.7021 14.0557L10.0557 13.7021L12 15.6465L13.9443 13.7021L14.2979 14.0557L12.3535 16L14.2979 17.9443ZM16.5 9H7.5V6C7.5 4.80653 7.97411 3.66193 8.81802 2.81802C9.66193 1.97411 10.8065 1.5 12 1.5C13.1935 1.5 14.3381 1.97411 15.182 2.81802C16.0259 3.66193 16.5 4.80653 16.5 6V9Z" fill="black"/>
</svg>
