<svg width="24" height="24" viewBox="0 0 24 24" fill="none" xmlns="http://www.w3.org/2000/svg">
<path d="M15.2916 0.914551L14.5178 1.68835C14.3674 1.8387 14.2689 2.03308 14.2365 2.24325L14.0289 3.59135L8.6219 8.99845L6.1359 8.50125C5.81313 8.43677 5.47942 8.45294 5.1644 8.54835C4.84938 8.64375 4.56277 8.81543 4.33 9.04815L3.2708 10.107L8.2208 15.057L1 22.2773V22.9384H1.7529L8.9278 15.764L13.8778 20.714L14.9366 19.6551C15.1694 19.4223 15.3411 19.1356 15.4365 18.8205C15.5319 18.5054 15.5481 18.1716 15.4835 17.8488L14.9863 15.3628L20.3934 9.95575L21.7415 9.74815C21.9517 9.7158 22.146 9.6173 22.2964 9.46695L23.0702 8.69305L15.2916 0.914551Z" fill="black"/>
</svg>
