<svg width="24" height="24" viewBox="0 0 24 24" fill="none" xmlns="http://www.w3.org/2000/svg">
<path d="M15.9635 4.30002C16.062 4.0537 16.0587 3.77833 15.9541 3.5345C15.8496 3.29066 15.6525 3.09833 15.4062 2.99982C15.1599 2.9013 14.8845 2.90467 14.6407 3.00919C14.3969 3.1137 14.2045 3.3108 14.106 3.55712L11.5289 10H13.6835L15.9635 4.30002ZM17.2772 10L19.9287 3.37162L18.0713 2.62842L15.1226 10H17.2772ZM6.00001 20C6.00001 20.5305 6.21073 21.0392 6.5858 21.4142C6.96087 21.7893 7.46958 22 8.00001 22H16C16.5304 22 17.0392 21.7893 17.4142 21.4142C17.7893 21.0392 18 20.5305 18 20V12H6.00001V20ZM8.87741 10L6.67191 4.48582L5.00001 3.00002L4.81451 5.22902L6.72281 10H8.87741Z" fill="black"/>
</svg>
