<svg width="24" height="24" viewBox="0 0 24 24" fill="none" xmlns="http://www.w3.org/2000/svg">
<path d="M17.7106 10.7673L16.1667 9.6154V2.364L16.9731 1.264C17.0989 1.09255 17.1667 0.885446 17.1667 0.6728V0H6.8334V0.6727C6.83339 0.885361 6.90117 1.09249 7.0269 1.264L7.8334 2.364V9.6154L6.2894 10.7673C6.04408 10.9534 5.84516 11.1937 5.70821 11.4694C5.57126 11.7452 5.49999 12.0489 5.5 12.3568V14H11.5V23.1666L12 23.6666L12.5 23.1666V14H18.5V12.3568C18.5 12.0489 18.4288 11.7452 18.2918 11.4694C18.1549 11.1937 17.9559 10.9533 17.7106 10.7673ZM17.5 13H6.5V12.3564C6.50055 12.203 6.53637 12.0518 6.60469 11.9145C6.67301 11.7772 6.772 11.6574 6.894 11.5645L8.834 10.1162V2.0371L8.0732 1H15.9268L15.1668 2.0371V10.1162L17.1126 11.5693C17.233 11.6622 17.3306 11.7814 17.3978 11.9179C17.465 12.0543 17.5001 12.2043 17.5003 12.3564L17.5 13Z" fill="black"/>
</svg>
