<svg width="24" height="24" viewBox="0 0 24 24" fill="none" xmlns="http://www.w3.org/2000/svg">
<path d="M15.6667 2V5.5C15.6667 5.60944 15.6451 5.71781 15.6033 5.81891C15.5614 5.92002 15.5 6.01189 15.4226 6.08927C15.3452 6.16665 15.2533 6.22803 15.1522 6.2699C15.0511 6.31177 14.9427 6.33331 14.8333 6.3333H9.1667C9.05726 6.33331 8.94889 6.31177 8.84778 6.2699C8.74667 6.22803 8.65479 6.16665 8.5774 6.08927C8.50001 6.01189 8.43862 5.92002 8.39674 5.81891C8.35486 5.71781 8.3333 5.60944 8.3333 5.5V2H4V22H20V2H15.6667ZM18.6334 20.6333H5.3666V3.3666H6.9666V5.5C6.96726 6.08327 7.19926 6.64247 7.6117 7.0549C8.02413 7.46734 8.58333 7.69934 9.1666 7.7H14.8332C15.4165 7.69934 15.9757 7.46734 16.3881 7.0549C16.8005 6.64247 17.0325 6.08327 17.0332 5.5V3.3666H18.6332L18.6334 20.6333ZM9.0261 16.6033C8.97331 16.6032 8.92148 16.5891 8.8758 16.5627C8.83012 16.5362 8.79218 16.4982 8.76578 16.4525C8.73938 16.4068 8.72544 16.355 8.72535 16.3022C8.72527 16.2494 8.73904 16.1975 8.7653 16.1517L9.7482 14.45L8.7382 13.8669L7.7546 15.5697C7.62592 15.7929 7.55822 16.0459 7.55831 16.3035C7.55841 16.5611 7.62629 16.8142 7.75513 17.0372C7.88398 17.2603 8.06926 17.4455 8.29235 17.5743C8.51545 17.7031 8.7685 17.7709 9.0261 17.7709H11.4445L11.7845 17.1849L11.4473 16.6039L9.0261 16.6033ZM14.8686 13.4746L14.1916 13.4731L13.8571 14.0552L15.0671 16.1512C15.0936 16.1969 15.1077 16.2488 15.1078 16.3017C15.1079 16.3546 15.0941 16.4065 15.0677 16.4524C15.0413 16.4982 15.0034 16.5363 14.9576 16.5628C14.9119 16.5893 14.86 16.6032 14.8071 16.6033H12.841V17.7703H14.8073C15.065 17.7703 15.3181 17.7025 15.5412 17.5737C15.7643 17.4449 15.9496 17.2595 16.0784 17.0364C16.2072 16.8132 16.2749 16.5601 16.2748 16.3024C16.2747 16.0447 16.2068 15.7917 16.0778 15.5686L14.8686 13.4746ZM14.17 12.2655L13.1869 10.563C13.0582 10.3399 12.873 10.1546 12.65 10.0258C12.427 9.89695 12.174 9.82913 11.9164 9.82913C11.6588 9.82913 11.4058 9.89695 11.1828 10.0258C10.9598 10.1546 10.7746 10.3399 10.6459 10.563L9.4359 12.6571L9.7733 13.2444L10.4442 13.243L11.6551 11.146C11.6815 11.1003 11.7196 11.0623 11.7653 11.0359C11.8111 11.0095 11.863 10.9956 11.9158 10.9956C11.9687 10.9956 12.0206 11.0095 12.0664 11.0359C12.1121 11.0623 12.1502 11.1003 12.1766 11.146L13.1595 12.8486L14.17 12.2655Z" fill="black"/>
</svg>
