<svg width="24" height="24" viewBox="0 0 24 24" fill="none" xmlns="http://www.w3.org/2000/svg">
<path d="M20.5227 13.4515L19.5614 13.837C18.9374 15.322 18.0088 16.6595 16.8355 17.7631C15.6622 18.8667 14.2704 19.7118 12.75 20.2439V10.3507H16.772V8.98346H12.75V7.00406C13.3375 6.82436 13.841 6.4397 14.1687 5.92009C14.4965 5.40047 14.6269 4.78044 14.536 4.17282C14.4452 3.56521 14.1392 3.01041 13.6737 2.60939C13.2083 2.20837 12.6144 1.98779 12 1.98779C11.3856 1.98779 10.7917 2.20837 10.3263 2.60939C9.86082 3.01041 9.55484 3.56521 9.46399 4.17282C9.37314 4.78044 9.50347 5.40047 9.83126 5.92009C10.159 6.4397 10.6625 6.82436 11.25 7.00406V8.98346H7.228V10.3507H11.25V20.2439C9.72891 19.7132 8.33643 18.8685 7.16297 17.7648C5.98951 16.661 5.0613 15.3228 4.4386 13.837L3.4773 13.4515L3.0473 14.3954C3.49721 15.4766 4.09169 16.4918 4.8145 17.4132C6.58372 19.6621 9.04199 21.2683 11.8121 21.9855L12 22.0333L12.1875 21.9855C14.1362 21.4849 15.9421 20.5389 17.463 19.2218C18.9839 17.9047 20.1784 16.2526 20.9523 14.3955L20.5227 13.4515ZM10.8027 4.56426C10.8027 4.32738 10.8729 4.09583 11.0046 3.89888C11.1362 3.70192 11.3232 3.54843 11.5421 3.45779C11.7609 3.36716 12.0017 3.34346 12.2341 3.38969C12.4664 3.43593 12.6798 3.55002 12.8472 3.71753C13.0147 3.88505 13.1288 4.09847 13.1749 4.3308C13.2211 4.56313 13.1973 4.80394 13.1067 5.02277C13.016 5.24159 12.8624 5.42861 12.6654 5.56017C12.4685 5.69173 12.2369 5.76192 12 5.76186C11.6825 5.76149 11.3781 5.63519 11.1536 5.41068C10.9291 5.18617 10.8028 4.88177 10.8024 4.56426H10.8027Z" fill="black"/>
</svg>
