<svg width="24" height="24" viewBox="0 0 24 24" fill="none" xmlns="http://www.w3.org/2000/svg">
<path d="M20.4944 13.7363H20.4938L19.8538 13.9931C19.2154 15.6105 18.2239 17.0649 16.9517 18.2501C15.6794 19.4353 14.1585 20.3214 12.5 20.8437V9.7999H16.772V8.8661H12.5V6.5319C13.0515 6.40878 13.5383 6.08648 13.867 5.62674C14.1957 5.167 14.3432 4.60216 14.2812 4.04041C14.2193 3.47867 13.9523 2.95952 13.5314 2.58243C13.1104 2.20534 12.5651 1.99683 12 1.99683C11.4348 1.99683 10.8895 2.20534 10.4686 2.58243C10.0476 2.95952 9.78063 3.47867 9.7187 4.04041C9.65676 4.60216 9.80427 5.167 10.133 5.62674C10.4616 6.08648 10.9484 6.40878 11.5 6.5319V8.8661H7.22797V9.7999H11.5V20.8439C9.84119 20.3221 8.32001 19.4362 7.04771 18.2508C5.7754 17.0654 4.78416 15.6107 4.14647 13.9929L3.50647 13.7361H3.50587L3.21307 14.3489C3.95157 16.2169 5.12119 17.8839 6.6265 19.2139C8.13182 20.5439 9.93021 21.4992 11.875 22.0019L12 22.0341L12.125 22.0019C14.0714 21.5028 15.8716 20.5488 17.3774 19.2184C18.8833 17.888 20.0519 16.2192 20.7872 14.3491L20.4944 13.7363ZM10.6382 4.295C10.6382 4.02566 10.718 3.76237 10.8677 3.53842C11.0173 3.31448 11.23 3.13993 11.4788 3.03686C11.7277 2.93379 12.0015 2.90682 12.2656 2.95937C12.5298 3.01191 12.7725 3.14161 12.9629 3.33206C13.1534 3.52251 13.2831 3.76516 13.3356 4.02933C13.3882 4.29349 13.3612 4.5673 13.2581 4.81614C13.155 5.06498 12.9805 5.27766 12.7565 5.4273C12.5326 5.57693 12.2693 5.6568 12 5.6568C11.6389 5.65638 11.2928 5.51277 11.0375 5.25747C10.7822 5.00218 10.6386 4.65604 10.6382 4.295Z" fill="black"/>
</svg>
