<svg width="24" height="24" viewBox="0 0 24 24" fill="none" xmlns="http://www.w3.org/2000/svg">
<path d="M19.3926 3.55656L16.6074 2.44336L16.2757 3.27266C16.0054 3.02662 15.6525 2.89101 15.287 2.89266C14.9872 2.8927 14.6942 2.98256 14.4459 3.15066C14.1976 3.31876 14.0054 3.55738 13.894 3.83576L11.4283 9.99996H10.4042L8.20842 4.57146L6.00002 2.99996L5.42322 5.68476L7.16872 9.99996H6.00002V20C6.00002 20.5304 6.21073 21.0391 6.5858 21.4142C6.96088 21.7892 7.46958 22 8.00002 22H16C16.5304 22 17.0392 21.7892 17.4142 21.4142C17.7893 21.0391 18 20.5304 18 20V9.99996H16.8152L19.3926 3.55656ZM17.1646 3.74296L18.0927 4.11396L15.7382 9.99996H14.6619L17.1646 3.74296ZM14.8225 4.20676C14.8453 4.1436 14.8805 4.08568 14.9261 4.03643C14.9717 3.98718 15.0268 3.94763 15.088 3.92012C15.1492 3.89261 15.2154 3.87771 15.2825 3.87631C15.3496 3.87491 15.4163 3.88703 15.4786 3.91197C15.541 3.9369 15.5976 3.97412 15.6453 4.02143C15.6929 4.06873 15.7305 4.12513 15.7559 4.18729C15.7812 4.24944 15.7938 4.31606 15.7929 4.38318C15.7919 4.4503 15.7775 4.51654 15.7504 4.57796L13.5817 9.99996H12.5053L14.8225 4.20676ZM6.46542 5.59446L6.65842 4.69586L7.39082 5.21696L9.32562 9.99996H8.24742L6.46542 5.59446ZM17 20C16.9997 20.2651 16.8943 20.5193 16.7068 20.7067C16.5193 20.8942 16.2651 20.9997 16 21H8.00002C7.73489 20.9997 7.48071 20.8942 7.29323 20.7067C7.10576 20.5193 7.00031 20.2651 7.00002 20V11H17V20Z" fill="black"/>
</svg>
