<svg width="24" height="24" viewBox="0 0 24 24" fill="none" xmlns="http://www.w3.org/2000/svg">
<path d="M18.16 10.5867L16.3334 9.3077V2.364L17.1398 1.264C17.2656 1.0925 17.3334 0.885372 17.3334 0.6727V0H6.6667V0.6727C6.66663 0.885339 6.73434 1.09246 6.86 1.264L7.6665 2.364V9.3077L5.84 10.5867C5.58029 10.7711 5.36851 11.0151 5.22237 11.2981C5.07623 11.5811 4.99999 11.8951 5 12.2136V14H11.25V22.9166L12 23.6666L12.75 22.9166V14H19V12.2136C19 11.8951 18.9238 11.5811 18.7777 11.2981C18.6315 11.0151 18.4197 10.7711 18.16 10.5867ZM17.5 12.5H6.5V12.2139C6.50009 12.1348 6.51905 12.0568 6.55531 11.9865C6.59158 11.9162 6.64409 11.8555 6.7085 11.8096L9.1665 10.0879V1.5H14.8335V10.0879L17.3 11.8154C17.3623 11.8615 17.4128 11.9215 17.4476 11.9908C17.4823 12.06 17.5003 12.1364 17.5 12.2139V12.5Z" fill="black"/>
</svg>
