<svg width="24" height="24" viewBox="0 0 24 24" fill="none" xmlns="http://www.w3.org/2000/svg">
<path d="M17 9V6C17 4.67392 16.4732 3.40215 15.5355 2.46447C14.5979 1.52678 13.3261 1 12 1C10.6739 1 9.40215 1.52678 8.46447 2.46447C7.52678 3.40215 7 4.67392 7 6V9H3V23H21V9H17ZM14.4746 17.7676L13.7676 18.4746L12 16.707L10.2324 18.4746L9.5254 17.7676L11.293 16L9.5254 14.2324L10.2324 13.5254L12 15.293L13.7676 13.5254L14.4746 14.2324L12.707 16L14.4746 17.7676ZM16 9H8V6C8 4.93913 8.42143 3.92172 9.17157 3.17157C9.92172 2.42143 10.9391 2 12 2C13.0609 2 14.0783 2.42143 14.8284 3.17157C15.5786 3.92172 16 4.93913 16 6V9Z" fill="black"/>
</svg>
