<svg width="24" height="24" viewBox="0 0 24 24" fill="none" xmlns="http://www.w3.org/2000/svg">
<path d="M8.5 4C8.50045 3.60231 8.65863 3.22104 8.93984 2.93984C9.22104 2.65863 9.60231 2.50045 10 2.5H14C14.3977 2.50045 14.779 2.65863 15.0602 2.93984C15.3414 3.22104 15.4995 3.60231 15.5 4V6H8.5V4ZM21.5 18C21.4993 18.6628 21.2356 19.2983 20.7669 19.7669C20.2983 20.2356 19.6628 20.4993 19 20.5H5C4.33719 20.4993 3.70173 20.2356 3.23305 19.7669C2.76437 19.2983 2.50074 18.6628 2.5 18V9C2.50074 8.33719 2.76437 7.70173 3.23305 7.23305C3.70173 6.76437 4.33719 6.50074 5 6.5H19C19.6628 6.50074 20.2983 6.76437 20.7669 7.23305C21.2356 7.70173 21.4993 8.33719 21.5 9V18ZM19 6H16V4C16 3.46957 15.7893 2.96086 15.4142 2.58579C15.0391 2.21071 14.5304 2 14 2H10C9.46957 2 8.96086 2.21071 8.58579 2.58579C8.21071 2.96086 8 3.46957 8 4V6H5C4.20435 6 3.44129 6.31607 2.87868 6.87868C2.31607 7.44129 2 8.20435 2 9V18C2 18.7956 2.31607 19.5587 2.87868 20.1213C3.44129 20.6839 4.20435 21 5 21H19C19.7956 21 20.5587 20.6839 21.1213 20.1213C21.6839 19.5587 22 18.7956 22 18V9C22 8.20435 21.6839 7.44129 21.1213 6.87868C20.5587 6.31607 19.7956 6 19 6Z" fill="black"/>
</svg>
