<svg width="24" height="24" viewBox="0 0 24 24" fill="none" xmlns="http://www.w3.org/2000/svg">
<path d="M17 2V5.5C17 5.89782 16.842 6.27936 16.5607 6.56066C16.2794 6.84196 15.8978 7 15.5 7H8.5C8.10218 7 7.72064 6.84196 7.43934 6.56066C7.15804 6.27936 7 5.89782 7 5.5V2H4V22H20V2H17ZM11.3262 18.0833H9.0667C8.80372 18.0832 8.5454 18.014 8.31769 17.8824C8.08998 17.7509 7.90091 17.5617 7.76949 17.3339C7.63807 17.1061 7.56893 16.8478 7.56902 16.5848C7.56911 16.3218 7.63842 16.0635 7.77 15.8358L8.7219 14.1866L10.0208 14.9366L9.0689 16.5858L11.3318 16.5848L11.7639 17.3294L11.3262 18.0833ZM10.7652 13.6466L9.9029 13.6485L9.4686 12.8926L10.598 10.9359V10.9354C10.7297 10.7078 10.9189 10.5187 11.1467 10.3873C11.3745 10.2559 11.6329 10.1868 11.8959 10.1868C12.1588 10.1868 12.4172 10.2559 12.645 10.3873C12.8728 10.5187 13.062 10.7078 13.1937 10.9354L14.1458 12.5854L12.8475 13.3354L11.8958 11.6884L10.7652 13.6466ZM16.0218 17.3348C15.8916 17.5635 15.7028 17.7534 15.4749 17.885C15.2469 18.0165 14.9881 18.085 14.7249 18.0833H12.82V16.5841L14.7248 16.5833L13.5922 14.6233L14.021 13.8772L14.8925 13.8791L16.0217 15.8356C16.1551 16.0629 16.2254 16.3216 16.2254 16.5852C16.2254 16.8487 16.1552 17.1075 16.0218 17.3348Z" fill="black"/>
</svg>
