<svg width="24" height="24" viewBox="0 0 24 24" fill="none" xmlns="http://www.w3.org/2000/svg">
<path d="M18.5 12.5C18.5 12.2026 18.4337 11.909 18.3059 11.6405C18.1781 11.372 17.992 11.1353 17.7612 10.9478L16.5 9.923V2.364L17.3065 1.264C17.4322 1.09249 17.5 0.885361 17.5 0.6727V0H6.5V0.6727C6.49999 0.885361 6.56777 1.09249 6.6935 1.264L7.5 2.364V9.923L6.2388 10.9478C6.008 11.1353 5.82193 11.372 5.69412 11.6405C5.56632 11.909 5.5 12.2026 5.5 12.5V14H11V22.6666L12 23.6666L13 22.6666V14H18.5V12.5Z" fill="black"/>
</svg>
