<svg width="24" height="24" viewBox="0 0 24 24" fill="none" xmlns="http://www.w3.org/2000/svg">
<path d="M17.2612 10.9478L16 9.923V2.364L16.8065 1.264C16.9322 1.09249 17 0.885361 17 0.6727V0H7V0.6727C6.99999 0.885361 7.06777 1.09249 7.1935 1.264L8 2.364V9.923L6.7388 10.9478C6.508 11.1353 6.32193 11.372 6.19412 11.6405C6.06632 11.909 6 12.2026 6 12.5V14H11.75V23.4166L12 23.6666L12.25 23.4166V14H18V12.5C18 12.2026 17.9337 11.909 17.8059 11.6405C17.6781 11.372 17.492 11.1353 17.2612 10.9478Z" fill="black"/>
</svg>
