<svg width="24" height="24" viewBox="0 0 24 24" fill="none" xmlns="http://www.w3.org/2000/svg">
<path d="M18.9287 3.37162L17.0713 2.62842L14.1227 10H12.6835L14.9635 4.30002C15.0123 4.17805 15.0366 4.04767 15.035 3.91633C15.0334 3.78498 15.0059 3.65523 14.9541 3.5345C14.9024 3.41376 14.8274 3.3044 14.7334 3.21266C14.6393 3.12092 14.5282 3.0486 14.4062 2.99982C14.2842 2.95104 14.1539 2.92676 14.0225 2.92837C13.8912 2.92997 13.7614 2.95744 13.6407 3.00919C13.52 3.06094 13.4106 3.13596 13.3189 3.22998C13.2271 3.32399 13.1548 3.43515 13.106 3.55712L10.5289 10H9.87741L7.67191 4.48582L6.00001 3.00002L5.81451 5.22902L7.72281 10H6.00001V20C6.00001 20.5305 6.21073 21.0392 6.5858 21.4142C6.96087 21.7893 7.46958 22 8.00001 22H16C16.5304 22 17.0392 21.7893 17.4142 21.4142C17.7893 21.0392 18 20.5305 18 20V10H16.2772L18.9287 3.37162ZM16 20H8.00001V12H16V20Z" fill="black"/>
</svg>
