<svg width="24" height="24" viewBox="0 0 24 24" fill="none" xmlns="http://www.w3.org/2000/svg">
<path d="M21 20.0666C20.8549 20.0666 20.7131 20.1096 20.5925 20.1902C20.4719 20.2707 20.3779 20.3853 20.3223 20.5193C20.2668 20.6533 20.2523 20.8007 20.2806 20.943C20.3088 21.0853 20.3787 21.216 20.4813 21.3186C20.5838 21.4211 20.7145 21.491 20.8568 21.5193C20.999 21.5476 21.1465 21.5331 21.2805 21.4776C21.4145 21.4221 21.5291 21.3281 21.6097 21.2075C21.6903 21.0869 21.7333 20.9451 21.7333 20.8C21.7333 20.6055 21.656 20.419 21.5185 20.2814C21.381 20.1439 21.1945 20.0666 21 20.0666ZM16.5 20.0666C16.3549 20.0666 16.2131 20.1096 16.0925 20.1902C15.9719 20.2707 15.8779 20.3853 15.8223 20.5193C15.7668 20.6533 15.7523 20.8007 15.7806 20.943C15.8088 21.0853 15.8787 21.216 15.9813 21.3186C16.0838 21.4211 16.2145 21.491 16.3568 21.5193C16.499 21.5476 16.6465 21.5331 16.7805 21.4776C16.9145 21.4221 17.0291 21.3281 17.1097 21.2075C17.1903 21.0869 17.2333 20.9451 17.2333 20.8C17.2333 20.6055 17.156 20.419 17.0185 20.2814C16.881 20.1439 16.6945 20.0666 16.5 20.0666ZM12 20.0666C11.8549 20.0666 11.7131 20.1096 11.5925 20.1902C11.4719 20.2707 11.3779 20.3853 11.3223 20.5193C11.2668 20.6533 11.2523 20.8007 11.2806 20.943C11.3088 21.0853 11.3787 21.216 11.4813 21.3186C11.5838 21.4211 11.7145 21.491 11.8568 21.5193C11.999 21.5476 12.1465 21.5331 12.2805 21.4776C12.4145 21.4221 12.5291 21.3281 12.6097 21.2075C12.6903 21.0869 12.7333 20.9451 12.7333 20.8C12.7333 20.6055 12.656 20.419 12.5185 20.2814C12.381 20.1439 12.1945 20.0666 12 20.0666ZM7.49998 20.0666C7.35492 20.0666 7.21312 20.1096 7.0925 20.1902C6.97188 20.2707 6.87786 20.3853 6.82234 20.5193C6.76681 20.6533 6.75227 20.8007 6.78056 20.943C6.80885 21.0853 6.87869 21.216 6.98125 21.3186C7.08382 21.4211 7.2145 21.491 7.35676 21.5193C7.49903 21.5476 7.6465 21.5331 7.78052 21.4776C7.91453 21.4221 8.02908 21.3281 8.10967 21.2075C8.19026 21.0869 8.23328 20.9451 8.23328 20.8C8.23328 20.6055 8.15602 20.419 8.01851 20.2814C7.88099 20.1439 7.69447 20.0666 7.49998 20.0666ZM9.99998 3H14C14.5514 3 15 3.8227 15 4.3741V6H8.99998V4.3741C8.99998 3.8227 9.44858 3 9.99998 3ZM21 8.5C21 7.83696 20.7366 7.20107 20.2677 6.73223C19.7989 6.26339 19.163 6 18.5 6H16V4C16 3.46957 15.7893 2.96086 15.4142 2.58579C15.0391 2.21071 14.5304 2 14 2H9.99998C9.46955 2 8.96084 2.21071 8.58577 2.58579C8.21069 2.96086 7.99998 3.46957 7.99998 4V6H5.49998C4.83694 6 4.20105 6.26339 3.73221 6.73223C3.26337 7.20107 2.99998 7.83696 2.99998 8.5V15.5C2.99998 16.163 3.26337 16.7989 3.73221 17.2678C4.20105 17.7366 4.83694 18 5.49998 18H18.5C19.163 18 19.7989 17.7366 20.2677 17.2678C20.7366 16.7989 21 16.163 21 15.5V8.5ZM20 15.5C19.9995 15.8977 19.8414 16.279 19.5601 16.5602C19.2789 16.8414 18.8977 16.9995 18.5 17H5.49998C5.10229 16.9995 4.72102 16.8414 4.43982 16.5602C4.15861 16.279 4.00043 15.8977 3.99998 15.5V8.5C4.00043 8.10231 4.15861 7.72104 4.43982 7.43984C4.72102 7.15863 5.10229 7.00045 5.49998 7H18.5C18.8977 7.00045 19.2789 7.15863 19.5601 7.43984C19.8414 7.72104 19.9995 8.10231 20 8.5V15.5ZM2.99998 20.0666C2.85492 20.0666 2.71312 20.1096 2.5925 20.1902C2.47188 20.2707 2.37786 20.3853 2.32234 20.5193C2.26681 20.6533 2.25227 20.8007 2.28056 20.943C2.30885 21.0853 2.37869 21.216 2.48125 21.3186C2.58382 21.4211 2.7145 21.491 2.85676 21.5193C2.99903 21.5476 3.1465 21.5331 3.28052 21.4776C3.41453 21.4221 3.52908 21.3281 3.60967 21.2075C3.69026 21.0869 3.73328 20.9451 3.73328 20.8C3.73328 20.6055 3.65602 20.419 3.51851 20.2814C3.38099 20.1439 3.19447 20.0666 2.99998 20.0666Z" fill="black"/>
</svg>
