<svg width="24" height="24" viewBox="0 0 24 24" fill="none" xmlns="http://www.w3.org/2000/svg">
<path d="M17 9V6C17 4.67392 16.4732 3.40215 15.5355 2.46447C14.5979 1.52678 13.3261 1 12 1C10.6739 1 9.40215 1.52678 8.46447 2.46447C7.52678 3.40215 7 4.67392 7 6V9H3V23H21V9H17ZM14.6514 17.5908L13.5908 18.6514L12 17.0605L10.4092 18.6514L9.3486 17.5908L10.94 16L9.3486 14.4092L10.4092 13.3486L12 14.94L13.5908 13.3491L14.6514 14.4097L13.0605 16L14.6514 17.5908ZM15.5 9H8.5V6C8.5 5.07174 8.86875 4.1815 9.52513 3.52513C10.1815 2.86875 11.0717 2.5 12 2.5C12.9283 2.5 13.8185 2.86875 14.4749 3.52513C15.1313 4.1815 15.5 5.07174 15.5 6V9Z" fill="black"/>
</svg>
