<svg width="24" height="24" viewBox="0 0 24 24" fill="none" xmlns="http://www.w3.org/2000/svg">
<path d="M17 2V5.5C17 5.89782 16.842 6.27936 16.5607 6.56066C16.2794 6.84196 15.8978 7 15.5 7H8.5C8.10218 7 7.72064 6.84196 7.43934 6.56066C7.15804 6.27936 7 5.89782 7 5.5V2H4V22H20V2H17ZM11.6185 18.098H8.8831C8.63621 18.0979 8.39369 18.0328 8.1799 17.9094C7.9661 17.7859 7.78855 17.6084 7.66507 17.3946C7.54159 17.1808 7.47652 16.9383 7.47641 16.6914C7.47629 16.4445 7.54112 16.2019 7.6644 15.988L8.7086 14.1795L9.1419 14.4295L8.098 16.2376C8.01847 16.3754 7.97661 16.5318 7.97663 16.6909C7.97664 16.85 8.01853 17.0063 8.09809 17.1442C8.17765 17.282 8.29207 17.3964 8.42986 17.476C8.56766 17.5556 8.72397 17.5975 8.8831 17.5976H11.6187L11.7637 17.8476L11.6185 18.098ZM11.8958 10.5667C11.7365 10.5657 11.5798 10.6072 11.4418 10.6868C11.3038 10.7664 11.1896 10.8814 11.1107 11.0198L9.743 13.3887L9.4539 13.3893L9.31 13.1381L10.6771 10.77C10.8007 10.5562 10.9784 10.3787 11.1923 10.2553C11.4063 10.1318 11.6489 10.0669 11.8959 10.0669C12.1428 10.0669 12.3854 10.1318 12.5994 10.2553C12.8133 10.3787 12.991 10.5562 13.1146 10.77L14.1585 12.5781L13.7252 12.8281L12.681 11.02C12.6021 10.8815 12.4879 10.7666 12.3499 10.6869C12.2119 10.6072 12.0551 10.5657 11.8958 10.5667ZM16.1263 17.3953C16.0038 17.6099 15.8265 17.788 15.6125 17.9115C15.3985 18.035 15.1556 18.0993 14.9085 18.098H12.82V17.598H14.9084C15.0675 17.598 15.2239 17.556 15.3617 17.4765C15.4995 17.3969 15.6139 17.2824 15.6935 17.1446C15.7731 17.0068 15.815 16.8505 15.815 16.6913C15.815 16.5322 15.7731 16.3758 15.6936 16.238L14.326 13.8688L14.4698 13.6183L14.7598 13.6189L16.1275 15.9876C16.2523 16.2012 16.3179 16.4442 16.3177 16.6916C16.3175 16.939 16.2514 17.1819 16.1263 17.3953Z" fill="black"/>
</svg>
