<svg width="24" height="24" viewBox="0 0 24 24" fill="none" xmlns="http://www.w3.org/2000/svg">
<path d="M20.4658 14.0209L20.1453 14.1494C19.4934 15.8987 18.439 17.4702 17.0675 18.7367C15.6959 20.0032 14.0456 20.9293 12.25 21.4401V9.25009H16.772V8.75009H12.25V6.02699C12.7617 5.96337 13.2299 5.70702 13.5592 5.31018C13.8884 4.91335 14.054 4.4059 14.0221 3.89124C13.9903 3.37658 13.7633 2.89343 13.3876 2.54027C13.0119 2.1871 12.5157 1.99048 12 1.99048C11.4844 1.99048 10.9881 2.1871 10.6124 2.54027C10.2367 2.89343 10.0098 3.37658 9.97788 3.89124C9.946 4.4059 10.1116 4.91335 10.4408 5.31018C10.7701 5.70702 11.2383 5.96337 11.75 6.02699V8.75009H7.228V9.25009H11.75V21.4401C10.5928 21.1116 9.49227 20.6089 8.48631 19.9493C6.36366 18.5591 4.74085 16.5269 3.8547 14.1493L3.5347 14.0208L3.3847 14.3193C4.08622 16.1957 5.22995 17.8752 6.71888 19.2153C8.2078 20.5555 9.998 21.5168 11.9376 22.0176L12 22.0333L12.0625 22.0177C14.0028 21.5184 15.7938 20.5576 17.2829 19.2173C18.7721 17.8769 19.9153 16.1966 20.6154 14.3193L20.4658 14.0209ZM10.474 4.0262C10.474 3.72435 10.5635 3.42928 10.7312 3.1783C10.8988 2.92732 11.1372 2.7317 11.416 2.61618C11.6949 2.50066 12.0018 2.47043 12.2978 2.52931C12.5939 2.5882 12.8658 2.73354 13.0792 2.94698C13.2927 3.16041 13.438 3.43235 13.4969 3.72839C13.5558 4.02444 13.5255 4.33129 13.41 4.61015C13.2945 4.88902 13.0989 5.12736 12.8479 5.29504C12.5969 5.46272 12.3018 5.55221 12 5.5522C11.5954 5.55172 11.2076 5.39079 10.9215 5.10471C10.6354 4.81864 10.4745 4.43077 10.474 4.0262Z" fill="black"/>
</svg>
