<svg width="24" height="24" viewBox="0 0 24 24" fill="none" xmlns="http://www.w3.org/2000/svg">
<g clip-path="url(#clip0)">
<path d="M8.5 9V5C8.5 4.07174 8.86875 3.1815 9.52513 2.52513C10.1815 1.86875 11.0717 1.5 12 1.5C12.9283 1.5 13.8185 1.86875 14.4749 2.52513C15.1313 3.1815 15.5 4.07174 15.5 5V6H17V5C17 3.67392 16.4732 2.40215 15.5355 1.46447C14.5979 0.526784 13.3261 0 12 0C10.6739 0 9.40215 0.526784 8.46447 1.46447C7.52678 2.40215 7 3.67392 7 5V9H3V23H21V9H8.5ZM12.75 17.167C12.75 17.3659 12.671 17.5567 12.5303 17.6973C12.3897 17.838 12.1989 17.917 12 17.917C11.8011 17.917 11.6103 17.838 11.4697 17.6973C11.329 17.5567 11.25 17.3659 11.25 17.167V14.833C11.25 14.6341 11.329 14.4433 11.4697 14.3027C11.6103 14.162 11.8011 14.083 12 14.083C12.1989 14.083 12.3897 14.162 12.5303 14.3027C12.671 14.4433 12.75 14.6341 12.75 14.833V17.167Z" fill="black"/>
</g>
<defs>
<clipPath id="clip0">
<rect width="24" height="24" fill="white"/>
</clipPath>
</defs>
</svg>
