<svg width="24" height="24" viewBox="0 0 24 24" fill="none" xmlns="http://www.w3.org/2000/svg">
<path d="M15 2V6.5C15 6.63261 14.9473 6.75979 14.8536 6.85355C14.7598 6.94732 14.6326 7 14.5 7H9.5C9.36739 7 9.24021 6.94732 9.14645 6.85355C9.05268 6.75979 9 6.63261 9 6.5V2H4V22H20V2H15ZM18.2 20.2H5.8V17.6H18.2V20.2ZM18.2 15.8H5.8V13.2H18.2V15.8ZM5.8 11.4V3.8H7.2V6.5C7.20069 7.10979 7.44323 7.6944 7.87441 8.12559C8.3056 8.55677 8.89021 8.79931 9.5 8.8H14.5C15.1098 8.79931 15.6944 8.55677 16.1256 8.12559C16.5568 7.6944 16.7993 7.10979 16.8 6.5V3.8H18.2V11.4H5.8Z" fill="black"/>
</svg>
