<svg width="24" height="24" viewBox="0 0 24 24" fill="none" xmlns="http://www.w3.org/2000/svg">
<path d="M21 19.8333C20.8088 19.8333 20.6219 19.89 20.463 19.9962C20.304 20.1024 20.1801 20.2534 20.1069 20.4301C20.0337 20.6067 20.0146 20.8011 20.0519 20.9886C20.0892 21.1761 20.1813 21.3484 20.3165 21.4836C20.4517 21.6188 20.6239 21.7108 20.8114 21.7481C20.999 21.7854 21.1933 21.7663 21.37 21.6931C21.5466 21.6199 21.6976 21.496 21.8038 21.3371C21.91 21.1781 21.9667 20.9912 21.9667 20.8C21.9667 20.5436 21.8649 20.2977 21.6836 20.1164C21.5023 19.9351 21.2564 19.8333 21 19.8333ZM16.5 19.8333C16.3088 19.8333 16.1219 19.89 15.963 19.9962C15.804 20.1024 15.6801 20.2534 15.6069 20.4301C15.5337 20.6067 15.5146 20.8011 15.5519 20.9886C15.5892 21.1761 15.6813 21.3484 15.8165 21.4836C15.9517 21.6188 16.1239 21.7108 16.3114 21.7481C16.499 21.7854 16.6933 21.7663 16.87 21.6931C17.0466 21.6199 17.1976 21.496 17.3038 21.3371C17.41 21.1781 17.4667 20.9912 17.4667 20.8C17.4667 20.5436 17.3649 20.2977 17.1836 20.1164C17.0023 19.9351 16.7564 19.8333 16.5 19.8333ZM12 19.8333C11.8088 19.8333 11.6219 19.89 11.463 19.9962C11.304 20.1024 11.1801 20.2534 11.1069 20.4301C11.0337 20.6067 11.0146 20.8011 11.0519 20.9886C11.0892 21.1761 11.1813 21.3484 11.3165 21.4836C11.4517 21.6188 11.6239 21.7108 11.8114 21.7481C11.999 21.7854 12.1933 21.7663 12.37 21.6931C12.5466 21.6199 12.6976 21.496 12.8038 21.3371C12.91 21.1781 12.9667 20.9912 12.9667 20.8C12.9667 20.5436 12.8649 20.2977 12.6836 20.1164C12.5023 19.9351 12.2564 19.8333 12 19.8333ZM7.50003 19.8333C7.30883 19.8333 7.12193 19.89 6.96296 19.9962C6.80398 20.1024 6.68008 20.2534 6.60691 20.4301C6.53374 20.6067 6.5146 20.8011 6.5519 20.9886C6.5892 21.1761 6.68127 21.3484 6.81647 21.4836C6.95166 21.6188 7.12391 21.7108 7.31143 21.7481C7.49895 21.7854 7.69332 21.7663 7.86997 21.6931C8.04661 21.6199 8.19759 21.496 8.30381 21.3371C8.41003 21.1781 8.46673 20.9912 8.46673 20.8C8.46673 20.5436 8.36488 20.2977 8.18359 20.1164C8.00229 19.9351 7.75641 19.8333 7.50003 19.8333ZM10 3.5H14C14.2757 3.5 14.5 4.4725 14.5 4.7482V6H9.50003V4.7482C9.50003 4.4725 9.72433 3.5 10 3.5ZM21 8.5C21 7.83696 20.7366 7.20107 20.2678 6.73223C19.799 6.26339 19.1631 6 18.5 6H16V4C16 3.46957 15.7893 2.96086 15.4142 2.58579C15.0392 2.21071 14.5305 2 14 2H10C9.46959 2 8.96089 2.21071 8.58581 2.58579C8.21074 2.96086 8.00003 3.46957 8.00003 4V6H5.50003C4.83698 6 4.2011 6.26339 3.73226 6.73223C3.26342 7.20107 3.00003 7.83696 3.00003 8.5V15.5C3.00003 16.163 3.26342 16.7989 3.73226 17.2678C4.2011 17.7366 4.83698 18 5.50003 18H18.5C19.1631 18 19.799 17.7366 20.2678 17.2678C20.7366 16.7989 21 16.163 21 15.5V8.5ZM3.00003 19.8333C2.80883 19.8333 2.62193 19.89 2.46296 19.9962C2.30398 20.1024 2.18008 20.2534 2.10691 20.4301C2.03374 20.6067 2.0146 20.8011 2.0519 20.9886C2.0892 21.1761 2.18127 21.3484 2.31647 21.4836C2.45166 21.6188 2.62391 21.7108 2.81143 21.7481C2.99895 21.7854 3.19332 21.7663 3.36997 21.6931C3.54661 21.6199 3.69758 21.496 3.80381 21.3371C3.91003 21.1781 3.96673 20.9912 3.96673 20.8C3.96673 20.5436 3.86488 20.2977 3.68359 20.1164C3.50229 19.9351 3.25641 19.8333 3.00003 19.8333Z" fill="black"/>
</svg>
