<svg width="24" height="24" viewBox="0 0 24 24" fill="none" xmlns="http://www.w3.org/2000/svg">
<path d="M16.3333 2V5.5C16.3333 5.8094 16.2104 6.10613 15.9916 6.32491C15.7728 6.54369 15.4761 6.6666 15.1667 6.6666H8.8333C8.5239 6.6666 8.22717 6.54369 8.00839 6.32491C7.78961 6.10613 7.6667 5.8094 7.6667 5.5V2H4V22H20V2H16.3333ZM19.0667 21.0667H4.9333V2.9333H6.7333V5.5C6.73394 6.05676 6.95539 6.59053 7.34908 6.98422C7.74277 7.37791 8.27654 7.59936 8.8333 7.6H15.1667C15.7235 7.59936 16.2572 7.37791 16.6509 6.98422C17.0446 6.59053 17.2661 6.05676 17.2667 5.5V2.9333H19.0667V21.0667ZM14.1667 10.9689L12 13.136L9.8329 10.9689L9.1981 11.6037L11.3652 13.7708L9.1981 15.9379L9.8329 16.5726L12 14.4056L14.1671 16.5726L14.8019 15.9379L12.6348 13.7708L14.8019 11.6037L14.1667 10.9689Z" fill="black"/>
</svg>
