<svg width="24" height="24" viewBox="0 0 24 24" fill="none" xmlns="http://www.w3.org/2000/svg">
<path d="M17 2V5.5C17 5.89782 16.842 6.27936 16.5607 6.56066C16.2794 6.84196 15.8978 7 15.5 7H8.5C8.10218 7 7.72064 6.84196 7.43934 6.56066C7.15804 6.27936 7 5.89782 7 5.5V2H4V22H20V2H17ZM19.5 21.5H4.5V2.5H6.5V5.5C6.50061 6.03025 6.71152 6.5386 7.08646 6.91354C7.4614 7.28848 7.96975 7.49939 8.5 7.5H15.5C16.0302 7.49939 16.5386 7.28848 16.9135 6.91354C17.2885 6.5386 17.4994 6.03025 17.5 5.5V2.5H19.5V21.5ZM14.2607 11.0941L12 13.3548L9.7393 11.0941L9.3857 11.4476L11.6465 13.7083L9.3857 15.9691L9.7393 16.3226L12 14.0618L14.2607 16.3226L14.6143 15.9691L12.3535 13.7083L14.6143 11.4476L14.2607 11.0941Z" fill="black"/>
</svg>
