<svg width="24" height="24" viewBox="0 0 24 24" fill="none" xmlns="http://www.w3.org/2000/svg">
<path d="M18.6333 3.3667V20.6333H5.3667V3.3667H6.9667V6.1667C6.96736 6.74997 7.19936 7.30917 7.6118 7.7216C8.02423 8.13404 8.58343 8.36604 9.1667 8.3667H14.8333C15.4166 8.36604 15.9758 8.13404 16.3882 7.7216C16.8006 7.30917 17.0326 6.74997 17.0333 6.1667V3.3667H18.6333ZM20 2H15.6667V6.1667C15.6667 6.27614 15.6451 6.38451 15.6033 6.48561C15.5614 6.58672 15.5 6.67859 15.4226 6.75597C15.3452 6.83335 15.2533 6.89473 15.1522 6.9366C15.0511 6.97847 14.9427 7.00001 14.8333 7H9.1667C9.05726 7.00001 8.94889 6.97847 8.84778 6.9366C8.74667 6.89473 8.65479 6.83335 8.5774 6.75597C8.50001 6.67859 8.43862 6.58672 8.39674 6.48561C8.35486 6.38451 8.3333 6.27614 8.3333 6.1667V2H4V22H20V2Z" fill="black"/>
</svg>
