<svg width="24" height="24" viewBox="0 0 24 24" fill="none" xmlns="http://www.w3.org/2000/svg">
<path d="M15 2V5.5C15 5.63261 14.9473 5.75979 14.8536 5.85355C14.7598 5.94732 14.6326 6 14.5 6H9.5C9.36739 6 9.24021 5.94732 9.14645 5.85355C9.05268 5.75979 9 5.63261 9 5.5V2H4V22H20V2H15ZM18.2 20.2H5.8V3.8H7.2V5.5C7.20069 6.10979 7.44323 6.6944 7.87441 7.12559C8.3056 7.55677 8.89021 7.79931 9.5 7.8H14.5C15.1098 7.79931 15.6944 7.55677 16.1256 7.12559C16.5568 6.6944 16.7993 6.10979 16.8 5.5V3.8H18.2V20.2ZM13.98 10.7188L12 12.6985L10.02 10.7185L8.8229 11.916L10.8029 13.896L8.8229 15.876L10.02 17.0729L12 15.0929L13.98 17.0729L15.1773 15.8756L13.1973 13.8956L15.1773 11.9156L13.98 10.7188Z" fill="black"/>
</svg>
