<svg width="24" height="24" viewBox="0 0 24 24" fill="none" xmlns="http://www.w3.org/2000/svg">
<path d="M17 2V5.5C17 5.89782 16.842 6.27936 16.5607 6.56066C16.2794 6.84196 15.8978 7 15.5 7H8.5C8.10218 7 7.72064 6.84196 7.43934 6.56066C7.15804 6.27936 7 5.89782 7 5.5V2H4V22H20V2H17ZM11.4236 18.0882H9.0052C8.7476 18.0882 8.49455 18.0204 8.27145 17.8916C8.04836 17.7628 7.86308 17.5776 7.73423 17.3545C7.60539 17.1315 7.53751 16.8784 7.53741 16.6208C7.53732 16.3632 7.60502 16.1102 7.7337 15.887L8.7173 14.1841L9.7273 14.7673L8.7444 16.47C8.71815 16.5158 8.70438 16.5677 8.70447 16.6205C8.70456 16.6733 8.71849 16.7251 8.74489 16.7709C8.77129 16.8166 8.80922 16.8546 8.8549 16.881C8.90058 16.9075 8.95241 16.9215 9.0052 16.9217H11.4266L11.7637 17.5027L11.4236 18.0882ZM11.8958 11.3133C11.8429 11.3127 11.7908 11.3263 11.745 11.3527C11.6991 11.3791 11.6612 11.4173 11.6351 11.4633L10.4241 13.5603L9.7532 13.5617L9.4158 12.9744L10.6253 10.8803C10.754 10.6572 10.9392 10.4719 11.1622 10.3431C11.3852 10.2143 11.6382 10.1464 11.8958 10.1464C12.1534 10.1464 12.4064 10.2143 12.6294 10.3431C12.8524 10.4719 13.0376 10.6572 13.1663 10.8803L14.1495 12.5828L13.1395 13.1659L12.1566 11.4633C12.1305 11.4173 12.0925 11.3791 12.0467 11.3527C12.0008 11.3263 11.9487 11.3127 11.8958 11.3133ZM16.0569 17.3553C15.9291 17.579 15.7442 17.7648 15.5211 17.8936C15.2979 18.0224 15.0445 18.0895 14.7869 18.0882H12.82V16.9212H14.7863C14.8392 16.9211 14.8911 16.9072 14.9368 16.8807C14.9826 16.8542 15.0205 16.8161 15.0469 16.7703C15.0733 16.7244 15.0871 16.6725 15.087 16.6196C15.0869 16.5667 15.0728 16.5148 15.0463 16.4691L13.8363 14.3731L14.1708 13.791L14.8478 13.7925L16.057 15.8865C16.1875 16.1093 16.2562 16.3628 16.2562 16.6209C16.2562 16.8791 16.1874 17.1326 16.0569 17.3553Z" fill="black"/>
</svg>
