<svg width="24" height="24" viewBox="0 0 24 24" fill="none" xmlns="http://www.w3.org/2000/svg">
<path d="M15.2916 0.914551L14.5178 1.68835C14.3674 1.8387 14.2689 2.03308 14.2365 2.24325L14.0289 3.59135L8.6219 8.99845L6.1359 8.50125C5.81313 8.43677 5.47942 8.45294 5.1644 8.54835C4.84938 8.64375 4.56277 8.81543 4.33 9.04815L3.2708 10.107L7.8672 14.7035L1 21.57V23H2.3985L9.2813 16.1175L13.8773 20.7136L14.9361 19.6548C15.1689 19.4219 15.3406 19.1352 15.436 18.8201C15.5314 18.505 15.5476 18.1712 15.483 17.8484L14.9858 15.3624L20.3929 9.95535L21.741 9.74775C21.9512 9.7154 22.1455 9.6169 22.2959 9.46655L23.0697 8.69265L15.2916 0.914551Z" fill="black"/>
</svg>
