<svg width="24" height="24" viewBox="0 0 24 24" fill="none" xmlns="http://www.w3.org/2000/svg">
<path d="M15.2916 0.914551L14.1777 2.02835C14.0273 2.17874 13.9288 2.37316 13.8965 2.58335L13.6889 3.93145L9.1412 8.47905L6.6553 7.98185C6.33243 7.91728 5.9986 7.93342 5.68346 8.02884C5.36832 8.12426 5.08162 8.29601 4.8488 8.52885L3.2708 10.107L8.044 14.88L1 21.9239V23H2.0449L9.1049 15.9408L13.8776 20.7136L15.4557 19.1354C15.6885 18.9025 15.8603 18.6159 15.9557 18.3007C16.0511 17.9856 16.0673 17.6518 16.0027 17.329L15.5055 14.8431L20.0532 10.2954L21.4012 10.0878C21.6114 10.0554 21.8058 9.95691 21.9562 9.80655L23.07 8.69265L15.2916 0.914551ZM19.8246 8.81285L19.3394 8.88755L18.9922 9.23465L14.4445 13.7824L13.8769 14.35L14.0344 15.1372L14.5316 17.6231C14.5478 17.7039 14.5438 17.7873 14.5199 17.8661C14.496 17.9449 14.4531 18.0166 14.3948 18.0748L13.8773 18.5923L5.392 10.107L5.91 9.58995C5.96821 9.53175 6.03988 9.48883 6.11866 9.46498C6.19744 9.44113 6.28089 9.43711 6.3616 9.45325L8.847 9.94995L9.6343 10.1074L10.2019 9.53975L14.75 4.99205L15.0971 4.64495L15.1718 4.15965L15.3378 3.08175L20.9029 8.64685L19.8246 8.81285Z" fill="black"/>
</svg>
