<svg width="24" height="24" viewBox="0 0 24 24" fill="none" xmlns="http://www.w3.org/2000/svg">
<path d="M16.3333 2V5.5C16.3333 5.8094 16.2104 6.10613 15.9916 6.32491C15.7728 6.54369 15.4761 6.6666 15.1667 6.6666H8.8333C8.5239 6.6666 8.22717 6.54369 8.00839 6.32491C7.78961 6.10613 7.6667 5.8094 7.6667 5.5V2H4V22H20V2H16.3333ZM19.0667 21.0667H4.9333V2.9333H6.7333V5.5C6.73394 6.05676 6.95539 6.59053 7.34908 6.98422C7.74277 7.37791 8.27654 7.59936 8.8333 7.6H15.1667C15.7235 7.59936 16.2572 7.37791 16.6509 6.98422C17.0446 6.59053 17.2661 6.05676 17.2667 5.5V2.9333H19.0667V21.0667ZM14.1752 12.3667L13.1618 10.6113C13.0355 10.3929 12.854 10.2116 12.6354 10.0856C12.4169 9.95955 12.1691 9.8932 11.9168 9.8932C11.6645 9.8932 11.4167 9.95955 11.1982 10.0856C10.9796 10.2116 10.7981 10.3929 10.6718 10.6113L9.3835 12.843L9.6245 13.2624L10.1052 13.2614L11.3942 11.0287C11.4471 10.9369 11.5233 10.8607 11.615 10.8078C11.7067 10.7548 11.8107 10.7269 11.9166 10.7269C12.0226 10.7269 12.1266 10.7548 12.2183 10.8078C12.31 10.8607 12.3862 10.9369 12.4391 11.0287L13.4528 12.7842L14.1752 12.3667ZM8.9652 17.0459C8.85924 17.0458 8.75516 17.0179 8.66343 16.9648C8.5717 16.9118 8.49554 16.8355 8.4426 16.7438C8.38966 16.652 8.36181 16.5479 8.36185 16.4419C8.36188 16.3359 8.3898 16.2319 8.4428 16.1401L9.4559 14.385L8.7335 13.9679L7.72 15.724C7.59403 15.9425 7.52777 16.1903 7.52789 16.4425C7.528 16.6948 7.59448 16.9425 7.72065 17.1609C7.84681 17.3793 8.02823 17.5607 8.24667 17.6868C8.4651 17.8129 8.71288 17.8793 8.9651 17.8793H11.5418L11.7842 17.4616L11.5432 17.0463L8.9652 17.0459ZM14.8246 13.492L14.3407 13.4909L14.1014 13.9077L15.39 16.14C15.443 16.2318 15.471 16.3359 15.471 16.4419C15.4711 16.5479 15.4432 16.652 15.3903 16.7439C15.3374 16.8357 15.2612 16.912 15.1694 16.9651C15.0777 17.0182 14.9736 17.0462 14.8676 17.0463H12.841V17.8793H14.8679C15.1202 17.8792 15.368 17.8128 15.5864 17.6866C15.8049 17.5605 15.9863 17.3791 16.1125 17.1606C16.2386 16.9422 16.3051 16.6944 16.3052 16.4421C16.3053 16.1899 16.239 15.942 16.113 15.7235L14.8246 13.492Z" fill="black"/>
</svg>
