<svg width="24" height="24" viewBox="0 0 24 24" fill="none" xmlns="http://www.w3.org/2000/svg">
<path d="M10 3H14C14.5514 3 15 3.8227 15 4.3741V6H9V4.3741C9 3.8227 9.4486 3 10 3ZM21 18C20.9994 18.5302 20.7885 19.0386 20.4135 19.4135C20.0386 19.7885 19.5302 19.9994 19 20H5C4.46975 19.9994 3.9614 19.7885 3.58646 19.4135C3.21152 19.0386 3.00061 18.5302 3 18V9C3.00061 8.46975 3.21152 7.9614 3.58646 7.58646C3.9614 7.21152 4.46975 7.00061 5 7H19C19.5302 7.00061 20.0386 7.21152 20.4135 7.58646C20.7885 7.9614 20.9994 8.46975 21 9V18ZM19 6H16V4C16 3.46957 15.7893 2.96086 15.4142 2.58579C15.0391 2.21071 14.5304 2 14 2H10C9.46957 2 8.96086 2.21071 8.58579 2.58579C8.21071 2.96086 8 3.46957 8 4V6H5C4.20435 6 3.44129 6.31607 2.87868 6.87868C2.31607 7.44129 2 8.20435 2 9V18C2 18.7956 2.31607 19.5587 2.87868 20.1213C3.44129 20.6839 4.20435 21 5 21H19C19.7956 21 20.5587 20.6839 21.1213 20.1213C21.6839 19.5587 22 18.7956 22 18V9C22 8.20435 21.6839 7.44129 21.1213 6.87868C20.5587 6.31607 19.7956 6 19 6Z" fill="black"/>
</svg>
