<svg width="24" height="24" viewBox="0 0 24 24" fill="none" xmlns="http://www.w3.org/2000/svg">
<path d="M21 20.3C20.9011 20.3 20.8044 20.3293 20.7222 20.3843C20.64 20.4392 20.5759 20.5173 20.5381 20.6087C20.5002 20.7 20.4903 20.8006 20.5096 20.8975C20.5289 20.9945 20.5765 21.0836 20.6464 21.1536C20.7164 21.2235 20.8055 21.2711 20.9025 21.2904C20.9994 21.3097 21.1 21.2998 21.1913 21.2619C21.2827 21.2241 21.3608 21.16 21.4157 21.0778C21.4707 20.9956 21.5 20.8989 21.5 20.8C21.5 20.6674 21.4473 20.5402 21.3536 20.4464C21.2598 20.3527 21.1326 20.3 21 20.3ZM16.5 20.3C16.4011 20.3 16.3044 20.3293 16.2222 20.3843C16.14 20.4392 16.0759 20.5173 16.0381 20.6087C16.0002 20.7 15.9903 20.8006 16.0096 20.8975C16.0289 20.9945 16.0765 21.0836 16.1464 21.1536C16.2164 21.2235 16.3055 21.2711 16.4025 21.2904C16.4994 21.3097 16.6 21.2998 16.6913 21.2619C16.7827 21.2241 16.8608 21.16 16.9157 21.0778C16.9707 20.9956 17 20.8989 17 20.8C17 20.6674 16.9473 20.5402 16.8536 20.4464C16.7598 20.3527 16.6326 20.3 16.5 20.3ZM12 20.3C11.9011 20.3 11.8044 20.3293 11.7222 20.3843C11.64 20.4392 11.5759 20.5173 11.5381 20.6087C11.5002 20.7 11.4903 20.8006 11.5096 20.8975C11.5289 20.9945 11.5765 21.0836 11.6464 21.1536C11.7164 21.2235 11.8055 21.2711 11.9025 21.2904C11.9994 21.3097 12.1 21.2998 12.1913 21.2619C12.2827 21.2241 12.3608 21.16 12.4157 21.0778C12.4707 20.9956 12.5 20.8989 12.5 20.8C12.5 20.6674 12.4473 20.5402 12.3536 20.4464C12.2598 20.3527 12.1326 20.3 12 20.3ZM7.5 20.3C7.40111 20.3 7.30444 20.3293 7.22222 20.3843C7.13999 20.4392 7.0759 20.5173 7.03806 20.6087C7.00022 20.7 6.99031 20.8006 7.00961 20.8975C7.0289 20.9945 7.07652 21.0836 7.14645 21.1536C7.21637 21.2235 7.30546 21.2711 7.40246 21.2904C7.49945 21.3097 7.59998 21.2998 7.69134 21.2619C7.78271 21.2241 7.86079 21.16 7.91574 21.0778C7.97068 20.9956 8 20.8989 8 20.8C8 20.6674 7.94732 20.5402 7.85355 20.4464C7.75979 20.3527 7.63261 20.3 7.5 20.3ZM8.5 4C8.50045 3.60231 8.65863 3.22104 8.93984 2.93984C9.22104 2.65863 9.60231 2.50045 10 2.5H14C14.3977 2.50045 14.779 2.65863 15.0602 2.93984C15.3414 3.22104 15.4995 3.60231 15.5 4V6H8.5V4ZM21 8.5C21 7.83696 20.7366 7.20107 20.2678 6.73223C19.7989 6.26339 19.163 6 18.5 6H16V4C16 3.46957 15.7893 2.96086 15.4142 2.58579C15.0391 2.21071 14.5304 2 14 2H10C9.46957 2 8.96086 2.21071 8.58579 2.58579C8.21071 2.96086 8 3.46957 8 4V6H5.5C4.83696 6 4.20107 6.26339 3.73223 6.73223C3.26339 7.20107 3 7.83696 3 8.5V15.5C3 16.163 3.26339 16.7989 3.73223 17.2678C4.20107 17.7366 4.83696 18 5.5 18H18.5C19.163 18 19.7989 17.7366 20.2678 17.2678C20.7366 16.7989 21 16.163 21 15.5V8.5ZM20.5 15.5C20.4994 16.0302 20.2885 16.5386 19.9135 16.9135C19.5386 17.2885 19.0302 17.4994 18.5 17.5H5.5C4.96975 17.4994 4.4614 17.2885 4.08646 16.9135C3.71152 16.5386 3.50061 16.0302 3.5 15.5V8.5C3.50061 7.96975 3.71152 7.4614 4.08646 7.08646C4.4614 6.71152 4.96975 6.50061 5.5 6.5H18.5C19.0302 6.50061 19.5386 6.71152 19.9135 7.08646C20.2885 7.4614 20.4994 7.96975 20.5 8.5V15.5ZM3 20.3C2.90111 20.3 2.80444 20.3293 2.72222 20.3843C2.63999 20.4392 2.5759 20.5173 2.53806 20.6087C2.50022 20.7 2.49031 20.8006 2.50961 20.8975C2.5289 20.9945 2.57652 21.0836 2.64645 21.1536C2.71637 21.2235 2.80546 21.2711 2.90246 21.2904C2.99945 21.3097 3.09998 21.2998 3.19134 21.2619C3.28271 21.2241 3.36079 21.16 3.41574 21.0778C3.47068 20.9956 3.5 20.8989 3.5 20.8C3.5 20.6674 3.44732 20.5402 3.35355 20.4464C3.25979 20.3527 3.13261 20.3 3 20.3Z" fill="black"/>
</svg>
