<svg width="24" height="24" viewBox="0 0 24 24" fill="none" xmlns="http://www.w3.org/2000/svg">
<path d="M17 9V6C17 4.67392 16.4732 3.40215 15.5355 2.46447C14.5979 1.52678 13.3261 1 12 1C10.6739 1 9.40215 1.52678 8.46447 2.46447C7.52678 3.40215 7 4.67392 7 6V9H3V23H21V9H17ZM9 6C9 5.20435 9.31607 4.44129 9.87868 3.87868C10.4413 3.31607 11.2044 3 12 3C12.7956 3 13.5587 3.31607 14.1213 3.87868C14.6839 4.44129 15 5.20435 15 6V9H9V6ZM19 21H5V11H19V21ZM11.15 19H12.85V16.85H15V15.15H12.85V13H11.15V15.15H9V16.85H11.15V19Z" fill="black"/>
</svg>
