<svg width="24" height="24" viewBox="0 0 24 24" fill="none" xmlns="http://www.w3.org/2000/svg">
<path d="M15 2V5.5C15 5.63261 14.9473 5.75979 14.8536 5.85355C14.7598 5.94732 14.6326 6 14.5 6H9.5C9.36739 6 9.24021 5.94732 9.14645 5.85355C9.05268 5.75979 9 5.63261 9 5.5V2H4V22H20V2H15ZM18.2 20.2H5.8V3.8H7.2V5.5C7.20069 6.10979 7.44323 6.6944 7.87441 7.12559C8.3056 7.55677 8.89021 7.79931 9.5 7.8H14.5C15.1098 7.79931 15.6944 7.55677 16.1256 7.12559C16.5568 6.6944 16.7993 6.10979 16.8 5.5V3.8H18.2V20.2ZM14.1667 12.1633L13.2145 10.5133C13.0828 10.2857 12.8936 10.0967 12.6658 9.9653C12.438 9.83392 12.1796 9.76476 11.9166 9.76476C11.6537 9.76476 11.3953 9.83392 11.1675 9.9653C10.9397 10.0967 10.7505 10.2857 10.6188 10.5133L9.4894 12.4707L9.9238 13.2266L10.7861 13.2247L11.9167 11.2659L12.8683 12.9129L14.1667 12.1633ZM9.09 16.1639L10.0419 14.5147L8.7431 13.7647L7.7912 15.4138C7.65962 15.6415 7.5903 15.8998 7.59022 16.1628C7.59014 16.4258 7.65929 16.6842 7.79074 16.912C7.92218 17.1398 8.11128 17.329 8.33902 17.4605C8.56675 17.592 8.82511 17.6613 9.0881 17.6613H11.3476L11.7851 16.9074L11.353 16.1628L9.09 16.1639ZM14.914 13.4575L14.0424 13.4556L13.6137 14.2017L14.7463 16.1617L12.8415 16.1625V17.6617H14.7463C15.0093 17.6617 15.2676 17.5924 15.4954 17.4609C15.7231 17.3294 15.9122 17.1402 16.0437 16.9124C16.1751 16.6846 16.2443 16.4262 16.2442 16.1632C16.2441 15.9002 16.1748 15.6419 16.0432 15.4142L14.914 13.4575Z" fill="black"/>
</svg>
