<svg width="24" height="24" viewBox="0 0 24 24" fill="none" xmlns="http://www.w3.org/2000/svg">
<path d="M17 9V6C17 4.67392 16.4732 3.40215 15.5355 2.46447C14.5979 1.52678 13.3261 1 12 1C10.6739 1 9.40215 1.52678 8.46447 2.46447C7.52678 3.40215 7 4.67392 7 6V9H3V23H21V9H17ZM8.5 6C8.5 5.07174 8.86875 4.1815 9.52513 3.52513C10.1815 2.86875 11.0717 2.5 12 2.5C12.9283 2.5 13.8185 2.86875 14.4749 3.52513C15.1313 4.1815 15.5 5.07174 15.5 6V9H8.5V6ZM19.5 21.5H4.5V10.5H19.5V21.5ZM12 17.917C12.1989 17.917 12.3897 17.838 12.5303 17.6973C12.671 17.5567 12.75 17.3659 12.75 17.167V14.833C12.75 14.6341 12.671 14.4433 12.5303 14.3027C12.3897 14.162 12.1989 14.083 12 14.083C11.8011 14.083 11.6103 14.162 11.4697 14.3027C11.329 14.4433 11.25 14.6341 11.25 14.833V17.167C11.25 17.3659 11.329 17.5567 11.4697 17.6973C11.6103 17.838 11.8011 17.917 12 17.917Z" fill="black"/>
</svg>
