<svg width="24" height="24" viewBox="0 0 24 24" fill="none" xmlns="http://www.w3.org/2000/svg">
<path d="M17 9V6C17 4.67392 16.4732 3.40215 15.5355 2.46447C14.5979 1.52678 13.3261 1 12 1C10.6739 1 9.40215 1.52678 8.46447 2.46447C7.52678 3.40215 7 4.67392 7 6V9H3V23H21V9H17ZM7.5 6C7.5 4.80653 7.97411 3.66193 8.81802 2.81802C9.66193 1.97411 10.8065 1.5 12 1.5C13.1935 1.5 14.3381 1.97411 15.182 2.81802C16.0259 3.66193 16.5 4.80653 16.5 6V9H7.5V6ZM20.5 22.5H3.5V9.5H20.5V22.5ZM12 17.75C12.0663 17.75 12.1299 17.7237 12.1768 17.6768C12.2237 17.6299 12.25 17.5663 12.25 17.5V14.5C12.25 14.4337 12.2237 14.3701 12.1768 14.3232C12.1299 14.2763 12.0663 14.25 12 14.25C11.9337 14.25 11.8701 14.2763 11.8232 14.3232C11.7763 14.3701 11.75 14.4337 11.75 14.5V17.5C11.75 17.5663 11.7763 17.6299 11.8232 17.6768C11.8701 17.7237 11.9337 17.75 12 17.75Z" fill="black"/>
</svg>
