<svg width="24" height="24" viewBox="0 0 24 24" fill="none" xmlns="http://www.w3.org/2000/svg">
<path d="M17 2V5.5C17 5.89782 16.842 6.27936 16.5607 6.56066C16.2794 6.84196 15.8978 7 15.5 7H8.5C8.10218 7 7.72064 6.84196 7.43934 6.56066C7.15804 6.27936 7 5.89782 7 5.5V2H4V22H20V2H17ZM19.5 21.5H4.5V2.5H6.5V5.5C6.50061 6.03025 6.71152 6.5386 7.08646 6.91354C7.4614 7.28848 7.96975 7.49939 8.5 7.5H15.5C16.0302 7.49939 16.5386 7.28848 16.9135 6.91354C17.2885 6.5386 17.4994 6.03025 17.5 5.5V2.5H19.5V21.5ZM14.7805 13.51L14.4905 13.5094L14.3467 13.76L15.7143 16.1287C15.7938 16.2665 15.8357 16.4229 15.8357 16.582C15.8357 16.7411 15.7938 16.8974 15.7142 17.0353C15.6347 17.1731 15.5202 17.2875 15.3824 17.3671C15.2446 17.4467 15.0883 17.4886 14.9292 17.4887H12.841V17.9887H14.9294C15.1763 17.9886 15.4188 17.9235 15.6326 17.8001C15.8464 17.6766 16.0239 17.4991 16.1474 17.2853C16.2709 17.0715 16.336 16.829 16.3361 16.5821C16.3362 16.3352 16.2714 16.0926 16.1481 15.8787L14.7805 13.51ZM8.904 17.4886C8.74486 17.4886 8.58854 17.4466 8.45073 17.3671C8.31292 17.2875 8.19849 17.173 8.11892 17.0352C8.03935 16.8974 7.99745 16.7411 7.99743 16.5819C7.99741 16.4228 8.03927 16.2664 8.1188 16.1286L9.1628 14.32L8.7294 14.07L7.6852 15.8782C7.56195 16.0921 7.49714 16.3347 7.49728 16.5816C7.49742 16.8285 7.56249 17.071 7.68598 17.2848C7.80947 17.4985 7.98702 17.6761 8.20081 17.7995C8.4146 17.923 8.65711 17.9881 8.904 17.9882H11.6393L11.7846 17.7382L11.6396 17.4882L8.904 17.4886ZM14.1794 12.4686L13.1354 10.6606C13.0118 10.4468 12.8341 10.2692 12.6202 10.1458C12.4063 10.0223 12.1636 9.95736 11.9166 9.95736C11.6697 9.95736 11.427 10.0223 11.2131 10.1458C10.9992 10.2692 10.8215 10.4468 10.6979 10.6606L9.3305 13.0287L9.4748 13.28L9.7639 13.2794L11.1315 10.9105C11.2111 10.7728 11.3256 10.6584 11.4633 10.5789C11.6011 10.4994 11.7574 10.4575 11.9165 10.4575C12.0756 10.4575 12.2319 10.4994 12.3697 10.5789C12.5074 10.6584 12.6219 10.7728 12.7015 10.9105L13.7457 12.7188L14.1794 12.4686Z" fill="black"/>
</svg>
