<svg width="24" height="24" viewBox="0 0 24 24" fill="none" xmlns="http://www.w3.org/2000/svg">
<path d="M15.75 7.4141C15.7489 7.06419 15.8173 6.71755 15.9512 6.39427C16.0851 6.07098 16.2818 5.77749 16.53 5.5308C16.9179 5.14496 17.2255 4.68602 17.4349 4.18053C17.6443 3.67505 17.7514 3.13305 17.75 2.5859V2H16.25V2.5859C16.2511 2.93581 16.1827 3.28245 16.0488 3.60573C15.9149 3.92902 15.7182 4.22251 15.47 4.4692C15.0821 4.85504 14.7745 5.31398 14.5651 5.81947C14.3557 6.32495 14.2486 6.86695 14.25 7.4141V8H15.75V7.4141ZM19.75 7.4141C19.7489 7.06419 19.8173 6.71755 19.9512 6.39427C20.0851 6.07098 20.2818 5.77749 20.53 5.5308C20.9179 5.14496 21.2255 4.68602 21.4349 4.18053C21.6443 3.67505 21.7514 3.13305 21.75 2.5859V2H20.25V2.5859C20.2511 2.93581 20.1827 3.28245 20.0488 3.60573C19.9149 3.92902 19.7182 4.22251 19.47 4.4692C19.0821 4.85504 18.7745 5.31398 18.5651 5.81947C18.3557 6.32495 18.2486 6.86695 18.25 7.4141V8H19.75V7.4141ZM6.2906 5.2448C6.58727 5.2448 6.87728 5.15683 7.12396 4.992C7.37063 4.82718 7.56289 4.59291 7.67642 4.31883C7.78995 4.04474 7.81966 3.74314 7.76178 3.45216C7.7039 3.16119 7.56104 2.89392 7.35126 2.68414C7.14148 2.47436 6.87421 2.3315 6.58324 2.27362C6.29226 2.21574 5.99066 2.24545 5.71657 2.35898C5.44249 2.47251 5.20822 2.66477 5.0434 2.91144C4.87857 3.15812 4.7906 3.44813 4.7906 3.7448C4.7906 4.14262 4.94864 4.52416 5.22994 4.80546C5.51124 5.08676 5.89278 5.2448 6.2906 5.2448ZM10.7396 10.3333L10.1606 8.8858C9.93791 8.3291 9.55352 7.8519 9.05702 7.51577C8.56052 7.17963 7.97468 6.99998 7.3751 7H5.5C5.10218 7 4.72064 7.15804 4.43934 7.43934C4.15804 7.72064 4 8.10218 4 8.5V10.3333H2V18C2 18.7956 2.31607 19.5587 2.87868 20.1213C3.44129 20.6839 4.20435 21 5 21H19C19.7956 21 20.5587 20.6839 21.1213 20.1213C21.6839 19.5587 22 18.7956 22 18V10.3333H10.7396ZM5.4996 8.8333C5.4996 8.6495 6.047 8.5 6.2308 8.5H7.3751C7.67512 8.499 7.96849 8.58843 8.21693 8.75662C8.46538 8.92482 8.65738 9.16397 8.7679 9.4429L9.124 10.3329H5.5L5.4996 8.8333ZM20.5 18C20.4995 18.3977 20.3414 18.779 20.0602 19.0602C19.779 19.3414 19.3977 19.4995 19 19.5H5C4.60231 19.4995 4.22104 19.3414 3.93984 19.0602C3.65863 18.779 3.50045 18.3977 3.5 18V11.8333H20.5V18Z" fill="black"/>
</svg>
