<svg width="24" height="24" viewBox="0 0 24 24" fill="none" xmlns="http://www.w3.org/2000/svg">
<path d="M12.3364 10.5938C12.6929 10.5938 13.0459 10.5236 13.3753 10.3872C13.7047 10.2507 14.004 10.0508 14.256 9.79868C14.5081 9.54658 14.7081 9.2473 14.8445 8.91792C14.9809 8.58854 15.0511 8.23551 15.0511 7.879C15.0511 5.7072 12.3364 0.8125 12.3364 0.8125C12.3364 0.8125 9.6217 5.7072 9.6217 7.879C9.6217 8.59899 9.90771 9.2895 10.4168 9.79862C10.9259 10.3077 11.6164 10.5938 12.3364 10.5938ZM12.3364 4.6666C12.8412 5.67747 13.1837 6.76156 13.3512 7.879C13.3512 8.14819 13.2443 8.40636 13.0539 8.59671C12.8636 8.78706 12.6054 8.894 12.3362 8.894C12.067 8.894 11.8088 8.78706 11.6185 8.59671C11.4281 8.40636 11.3212 8.14819 11.3212 7.879C11.4889 6.76155 11.8315 5.67747 12.3364 4.6666ZM22.4725 16.0825C22.324 15.193 21.8353 14.396 21.11 13.8602C20.3846 13.3243 19.4792 13.0915 18.5853 13.2109L15.5581 13.6133C15.3654 13.1369 15.0348 12.7288 14.6087 12.4414C14.1827 12.154 13.6805 12.0003 13.1666 12H8.3412L2.0455 14V23L8.0455 21H13.0455L21.9705 17.9989C22.1879 17.9258 22.3721 17.7776 22.4901 17.5808C22.608 17.3841 22.6519 17.1518 22.614 16.9256L22.4725 16.0825ZM12.751 19.2H7.7534L7.4763 19.2924L3.8456 20.5024V15.3168L8.3412 13.8887V13.8918L8.6235 13.8H13.1666C13.2695 13.8 13.3713 13.8203 13.4664 13.8596C13.5614 13.899 13.6477 13.9567 13.7205 14.0294C13.7932 14.1022 13.8509 14.1885 13.8903 14.2835C13.9296 14.3786 13.9499 14.4804 13.9499 14.5833C13.9499 14.6862 13.9296 14.788 13.8903 14.8831C13.8509 14.9781 13.7932 15.0644 13.7205 15.1372C13.6477 15.2099 13.5614 15.2676 13.4664 15.307C13.3713 15.3463 13.2695 15.3666 13.1666 15.3666H10.1412V15.3647H8.3412V17.1666H13.1666C13.7029 17.1655 14.2255 16.9969 14.6614 16.6845C15.0973 16.3721 15.4248 15.9313 15.5981 15.4238L18.8225 14.9952C18.8971 14.9853 18.9722 14.9803 19.0474 14.9803C19.4438 14.9798 19.8275 15.1204 20.1298 15.3769C20.4321 15.6334 20.6333 15.9891 20.6974 16.3803L20.7208 16.5203L12.751 19.2Z" fill="black"/>
</svg>
