<svg width="24" height="24" viewBox="0 0 24 24" fill="none" xmlns="http://www.w3.org/2000/svg">
<path d="M13.9424 9.06738L12 11.01L10.0576 9.06738L9.06761 10.0574L11.01 12L9.06741 13.9424L10.0574 14.9324L12 12.99L13.9424 14.9324L14.9324 13.9424L12.99 12L14.9324 10.0576L13.9424 9.06738ZM12 4.62158C9.55811 4.62277 7.16665 5.31669 5.10338 6.62274C3.04011 7.9288 1.38969 9.7934 0.343811 12C1.38873 14.2073 3.03893 16.0725 5.10241 17.3787C7.1659 18.6849 9.55786 19.3784 12 19.3784C14.4422 19.3784 16.8341 18.6849 18.8976 17.3787C20.9611 16.0725 22.6113 14.2073 23.6562 12C22.6103 9.7934 20.9599 7.9288 18.8966 6.62274C16.8334 5.31669 14.4419 4.62277 12 4.62158ZM12 17.8783C9.96651 17.8696 7.97183 17.3208 6.22016 16.2879C4.46848 15.255 3.02274 13.7752 2.03091 12C3.01602 10.219 4.46025 8.73444 6.21344 7.70066C7.96662 6.66689 9.96474 6.12165 12 6.12165C14.0353 6.12165 16.0334 6.66689 17.7866 7.70066C19.5398 8.73444 20.984 10.219 21.9691 12C20.9773 13.7752 19.5315 15.255 17.7799 16.2879C16.0282 17.3208 14.0335 17.8696 12 17.8783Z" fill="black"/>
</svg>
