<svg width="24" height="24" viewBox="0 0 24 24" fill="none" xmlns="http://www.w3.org/2000/svg">
<path d="M12.7871 22.98C11.187 22.9824 9.61156 22.5865 8.20272 21.828C6.79388 21.0696 5.59599 19.9723 4.71708 18.6353L1.39358 13.5967C1.30406 13.4601 1.26423 13.2968 1.28076 13.1343C1.29729 12.9718 1.36918 12.8199 1.48438 12.7041L2.04388 12.1441C2.3068 11.8808 2.62118 11.6747 2.96737 11.5384C3.31357 11.4021 3.68414 11.3387 4.05596 11.352C4.42777 11.3654 4.79282 11.4553 5.12833 11.6161C5.46383 11.777 5.76257 12.0052 6.00588 12.2867L8.39938 15.0035V3.26269C8.39938 2.66272 8.63772 2.08732 9.06197 1.66307C9.48621 1.23883 10.0616 1.00049 10.6616 1.00049C11.2616 1.00049 11.837 1.23883 12.2612 1.66307C12.6854 2.08732 12.9238 2.66272 12.9238 3.26269V9.28809C15.6674 9.31824 18.3538 10.0769 20.708 11.4863L20.9268 11.6348V14.84C20.9245 16.9981 20.0661 19.0671 18.5402 20.5932C17.0142 22.1192 14.9452 22.9776 12.7871 22.98ZM2.35838 13.2441L5.55078 18.0841C6.33897 19.2829 7.41313 20.2667 8.6764 20.9469C9.93968 21.627 11.3524 21.982 12.7871 21.98C14.6801 21.9778 16.4949 21.2249 17.8334 19.8863C19.172 18.5478 19.9249 16.733 19.9271 14.84V12.1787C17.6301 10.9136 15.0464 10.2602 12.4241 10.2812H11.9241V3.26269C11.9241 2.92793 11.7911 2.60689 11.5544 2.37018C11.3177 2.13347 10.9966 2.00049 10.6619 2.00049C10.3271 2.00049 10.0061 2.13347 9.76937 2.37018C9.53266 2.60689 9.39968 2.92793 9.39968 3.26269V15.4287C9.39946 15.6002 9.34675 15.7675 9.24863 15.9082C9.15051 16.0488 9.01168 16.1561 8.85081 16.2155C8.68993 16.275 8.51472 16.2838 8.34871 16.2407C8.1827 16.1976 8.03386 16.1047 7.92218 15.9746L5.25318 12.9446C5.10013 12.7658 4.9115 12.6208 4.69931 12.5189C4.48712 12.417 4.25604 12.3604 4.02078 12.3528C3.7859 12.342 3.5514 12.3809 3.33256 12.4669C3.11373 12.5529 2.91549 12.6841 2.75078 12.8519L2.35838 13.2441ZM8.67478 15.3164L8.67678 15.3193L8.67478 15.3164Z" fill="black"/>
</svg>
