<svg width="24" height="24" viewBox="0 0 24 24" fill="none" xmlns="http://www.w3.org/2000/svg">
<path d="M9.8789 14H9V16H9.8789C10.4962 16 11.0996 15.8169 11.6129 15.474C12.1261 15.131 12.5261 14.6436 12.7624 14.0733C12.9986 13.503 13.0604 12.8754 12.94 12.27C12.8196 11.6646 12.5224 11.1084 12.0859 10.6719L11 9.58593V8.50003C11.003 8.29751 11.0463 8.09761 11.1274 7.91204C11.2086 7.72646 11.3259 7.55894 11.4726 7.41926C11.6193 7.27959 11.7924 7.17057 11.9817 7.09858C12.171 7.0266 12.3728 6.99309 12.5752 7.00003C12.768 7.00247 12.9584 7.0435 13.1351 7.1207C13.3118 7.19789 13.4712 7.30969 13.604 7.44949C13.7368 7.5893 13.8402 7.75428 13.9083 7.9347C13.9763 8.11513 14.0075 8.30735 14 8.50003C13.9996 8.97205 13.9335 9.44171 13.8037 9.89553L15.7256 10.4463C15.9128 9.78915 16.0052 9.10862 16 8.42533C15.9977 7.97091 15.9055 7.52144 15.7287 7.10284C15.5519 6.68423 15.294 6.30477 14.9698 5.98635C14.6456 5.66792 14.2616 5.41682 13.8398 5.24754C13.4181 5.07826 12.9671 4.99414 12.5127 5.00003C11.5831 4.99949 10.6913 5.36767 10.0327 6.0238C9.37423 6.67992 9.00283 7.57044 9 8.50003V10.4141L10.6719 12.0859C10.8286 12.2428 10.9353 12.4426 10.9785 12.6601C11.0217 12.8775 10.9994 13.1029 10.9146 13.3078C10.8297 13.5126 10.686 13.6877 10.5017 13.8109C10.3173 13.9341 10.1006 13.9999 9.8789 14ZM12.6045 1.00003C10.5883 1.00222 8.65538 1.80412 7.22973 3.22976C5.80409 4.65541 5.0022 6.58836 5 8.60453H7C7.00161 7.11862 7.59261 5.69403 8.6433 4.64333C9.694 3.59263 11.1186 3.00164 12.6045 3.00003C14.0275 2.99409 15.3947 3.55287 16.4062 4.55377C17.4178 5.55467 17.9909 6.91595 18 8.33893C18.0037 9.68591 17.7402 11.0202 17.2247 12.2647C16.7093 13.5092 15.9521 14.639 14.9971 15.5889L10.1211 20.4648C9.86536 20.7204 9.53959 20.8945 9.18496 20.965C8.83033 21.0354 8.46276 20.9992 8.12872 20.8608C7.79468 20.7225 7.50916 20.4882 7.30825 20.1875C7.10735 19.8869 7.00008 19.5335 7 19.1719V17H5V19.1719C5.00003 19.9291 5.22456 20.6692 5.64522 21.2987C6.06587 21.9283 6.66375 22.4189 7.36326 22.7087C8.06276 22.9984 8.83248 23.0742 9.57508 22.9266C10.3177 22.7789 10.9998 22.4143 11.5352 21.8789L16.4111 17.0029C17.5525 15.8678 18.4574 14.5176 19.0735 13.0304C19.6895 11.5433 20.0044 9.94865 20 8.33893C19.9903 6.38569 19.2063 4.51606 17.8198 3.14021C16.4334 1.76436 14.5577 0.994681 12.6045 1.00003Z" fill="black"/>
</svg>
