<svg width="24" height="24" viewBox="0 0 24 24" fill="none" xmlns="http://www.w3.org/2000/svg">
<path d="M12 18.3077C12.7468 18.3146 13.4787 18.0988 14.1021 17.6877C14.7256 17.2766 15.2123 16.6889 15.5 15.9998H8.50002C8.78779 16.6889 9.2745 17.2765 9.89795 17.6876C10.5214 18.0987 11.2533 18.3146 12 18.3077ZM14.64 16.4998C14.3304 16.9064 13.9311 17.236 13.4732 17.4629C13.0153 17.6898 12.5111 17.8079 12 17.8079C11.489 17.8079 10.9848 17.6898 10.5269 17.4629C10.0689 17.236 9.6696 16.9064 9.36002 16.4998H14.64ZM15.25 12.4998C15.1511 12.4998 15.0545 12.5291 14.9722 12.584C14.89 12.639 14.8259 12.7171 14.7881 12.8084C14.7502 12.8998 14.7403 13.0003 14.7596 13.0973C14.7789 13.1943 14.8265 13.2834 14.8965 13.3533C14.9664 13.4232 15.0555 13.4709 15.1525 13.4902C15.2495 13.5094 15.35 13.4995 15.4414 13.4617C15.5327 13.4239 15.6108 13.3598 15.6658 13.2775C15.7207 13.1953 15.75 13.0986 15.75 12.9998C15.75 12.8672 15.6973 12.74 15.6036 12.6462C15.5098 12.5524 15.3826 12.4998 15.25 12.4998ZM9.25002 12.9998C9.25002 12.9009 9.2207 12.8042 9.16576 12.722C9.11082 12.6397 9.03273 12.5757 8.94137 12.5378C8.85 12.5 8.74947 12.4901 8.65248 12.5094C8.55549 12.5287 8.4664 12.5763 8.39647 12.6462C8.32654 12.7161 8.27892 12.8052 8.25963 12.9022C8.24034 12.9992 8.25024 13.0997 8.28808 13.1911C8.32593 13.2825 8.39001 13.3606 8.47224 13.4155C8.55446 13.4704 8.65113 13.4998 8.75002 13.4998C8.88263 13.4998 9.00981 13.4471 9.10358 13.3533C9.19735 13.2595 9.25002 13.1324 9.25002 12.9998ZM19.9376 10.0439C19.7051 8.1021 18.7689 6.31292 17.3062 5.01488C15.8435 3.71684 13.9557 3 12 3C10.0444 3 8.1566 3.71684 6.69386 5.01488C5.23113 6.31292 4.29493 8.1021 4.06242 10.0439C3.33461 10.148 2.67082 10.517 2.19828 11.0803C1.72573 11.6435 1.47768 12.3614 1.50165 13.0962C1.52562 13.831 1.81994 14.5312 2.32819 15.0624C2.83644 15.5937 3.52287 15.9187 4.25592 15.9752C4.69295 17.6975 5.69172 19.2251 7.09425 20.3162C8.49679 21.4073 10.2231 21.9997 12 21.9997C13.777 21.9997 15.5033 21.4073 16.9058 20.3162C18.3083 19.2251 19.3071 17.6975 19.7441 15.9752C20.4772 15.9187 21.1636 15.5937 21.6719 15.0624C22.1801 14.5312 22.4744 13.831 22.4984 13.0962C22.5224 12.3614 22.2743 11.6435 21.8018 11.0803C21.3292 10.517 20.6654 10.148 19.9376 10.0439ZM19.7032 15.4769L19.3475 15.506L19.2595 15.8519C18.8499 17.4666 17.9137 18.8986 16.5989 19.9216C15.2842 20.9445 13.6659 21.4999 12 21.4999C10.3342 21.4999 8.71589 20.9445 7.40111 19.9216C6.08632 18.8986 5.1501 17.4666 4.74052 15.8519L4.65252 15.506L4.29682 15.4769C3.68612 15.4304 3.11406 15.1601 2.69043 14.7178C2.2668 14.2755 2.02143 13.6923 2.00142 13.0801C1.9814 12.468 2.18813 11.87 2.58196 11.401C2.97579 10.9319 3.52896 10.6248 4.13532 10.5386L4.51362 10.4828L4.55892 10.1028C4.73638 8.62562 5.34941 7.2347 6.31996 6.1071C7.29051 4.97951 8.57466 4.16624 10.0089 3.77086C9.7101 4.0375 9.46781 4.36137 9.29637 4.72332C9.12494 5.08526 9.02785 5.47791 9.01086 5.87804C8.99386 6.27817 9.05731 6.67764 9.19743 7.05281C9.33756 7.42799 9.55152 7.77124 9.82666 8.06226C10.1018 8.35327 10.4325 8.58614 10.7992 8.74708C11.166 8.90802 11.5613 8.99376 11.9617 8.99922C12.3622 9.00469 12.7596 8.92977 13.1306 8.77889C13.5016 8.62802 13.8386 8.40426 14.1215 8.12086L13.7671 7.76646C13.4765 8.05717 13.1186 8.27171 12.7253 8.39107C12.3319 8.51043 11.9151 8.53093 11.512 8.45075C11.1088 8.37057 10.7316 8.19218 10.4138 7.93139C10.0961 7.67061 9.84751 7.33547 9.69022 6.95567C9.53292 6.57588 9.47173 6.16315 9.51205 5.75405C9.55238 5.34495 9.69299 4.95212 9.92142 4.61035C10.1498 4.26857 10.459 3.98842 10.8216 3.7947C11.1842 3.60098 11.5889 3.49967 12 3.49976C13.8332 3.50016 15.6027 4.1723 16.9739 5.38908C18.3451 6.60585 19.2229 8.2829 19.4412 10.1031L19.4865 10.4831L19.8647 10.5389C20.4711 10.6251 21.0243 10.9322 21.4181 11.4013C21.8119 11.8703 22.0187 12.4683 21.9986 13.0804C21.9786 13.6926 21.7332 14.2758 21.3096 14.7181C20.886 15.1604 20.3139 15.4307 19.7032 15.4772V15.4769Z" fill="black"/>
</svg>
