<svg width="24" height="24" viewBox="0 0 24 24" fill="none" xmlns="http://www.w3.org/2000/svg">
<path d="M12.8445 16.6137C12.7474 16.5166 12.6321 16.4396 12.5052 16.387C12.3784 16.3344 12.2424 16.3074 12.105 16.3074C11.9677 16.3074 11.8317 16.3344 11.7049 16.387C11.578 16.4396 11.4627 16.5166 11.3656 16.6137L9.4009 18.5784C9.30376 18.6755 9.22671 18.7908 9.17414 18.9176C9.12156 19.0445 9.09451 19.1805 9.09451 19.3178C9.09451 19.4552 9.12156 19.5912 9.17414 19.7181C9.22671 19.8449 9.30376 19.9602 9.4009 20.0573C9.59704 20.2533 9.86302 20.3635 10.1403 20.3635C10.4177 20.3635 10.6836 20.2533 10.8798 20.0573L12.8445 18.0926C12.9416 17.9955 13.0186 17.8802 13.0712 17.7533C13.1238 17.6265 13.1508 17.4905 13.1508 17.3531C13.1508 17.2158 13.1238 17.0798 13.0712 16.953C13.0186 16.8261 12.9416 16.7108 12.8445 16.6137ZM10.2664 7.2437L10.467 7.4445C10.6721 7.64959 10.9393 7.78103 11.2269 7.81831C11.5145 7.85559 11.8064 7.79662 12.057 7.6506L14.6179 6.1589L19.7588 11.2999L23.1282 7.9254L18.3916 3.1709L14.6931 3.176C14.1636 3.17675 13.6561 3.38741 13.2817 3.7618L10.2664 6.7771C10.2358 6.80774 10.2114 6.84412 10.1949 6.88416C10.1783 6.9242 10.1697 6.96711 10.1697 7.01045C10.1697 7.05379 10.1783 7.0967 10.1949 7.13674C10.2114 7.17677 10.2358 7.21315 10.2664 7.2438V7.2437ZM11.0121 14.7812C10.915 14.6841 10.7997 14.6071 10.6729 14.5545C10.546 14.5019 10.41 14.4749 10.2727 14.4749C10.1354 14.4749 9.9994 14.5019 9.87253 14.5545C9.74566 14.6071 9.63039 14.6841 9.5333 14.7812L6.75 17.564C6.65289 17.6611 6.57586 17.7764 6.5233 17.9032C6.47075 18.0301 6.4437 18.1661 6.4437 18.3034C6.4437 18.4407 6.47075 18.5767 6.5233 18.7036C6.57586 18.8304 6.65289 18.9457 6.75 19.0428C6.9461 19.2389 7.21204 19.349 7.48935 19.349C7.76665 19.349 8.03259 19.2389 8.2287 19.0428L11.0121 16.2599C11.2081 16.0638 11.3182 15.7979 11.3182 15.5206C11.3182 15.2433 11.2081 14.9774 11.0121 14.7813V14.7812ZM9.71 12.4181C9.6129 12.321 9.49763 12.244 9.37076 12.1914C9.24389 12.1388 9.10792 12.1118 8.9706 12.1118C8.83327 12.1118 8.6973 12.1388 8.57043 12.1914C8.44356 12.244 8.32829 12.321 8.2312 12.4181L4.6521 15.9972C4.45601 16.1933 4.34585 16.4592 4.34585 16.7365C4.34585 17.0139 4.45601 17.2798 4.6521 17.4759C4.84821 17.672 5.11418 17.7821 5.3915 17.7821C5.66881 17.7821 5.93478 17.672 6.1309 17.4759L9.71 13.8969C9.8071 13.7998 9.88413 13.6845 9.93669 13.5577C9.98924 13.4308 10.0163 13.2948 10.0163 13.1575C10.0163 13.0202 9.98924 12.8842 9.93669 12.7573C9.88413 12.6305 9.8071 12.5152 9.71 12.4181ZM19.1635 11.4257L14.5276 6.7899L12.3087 8.0827C11.9627 8.28431 11.5597 8.36572 11.1626 8.31424C10.7655 8.26276 10.3965 8.08127 10.1134 7.7981L9.9128 7.5974C9.83572 7.52033 9.77458 7.42883 9.73287 7.32813C9.69116 7.22743 9.66969 7.1195 9.66969 7.0105C9.66969 6.9015 9.69116 6.79357 9.73287 6.69287C9.77458 6.59217 9.83572 6.50067 9.9128 6.4236L13.1481 3.1884L5.6081 3.1826L0.871796 7.9254L4.6118 11.6654L5.5145 10.7627C5.73 10.5472 6.0044 10.4002 6.3032 10.3402C6.602 10.2803 6.91186 10.3099 7.19384 10.4256C7.47581 10.5412 7.71732 10.7376 7.888 10.9901C8.05867 11.2425 8.15091 11.5398 8.1531 11.8446C8.44957 11.6603 8.79967 11.5817 9.14647 11.6217C9.49326 11.6616 9.81635 11.8177 10.0632 12.0645C10.31 12.3113 10.4661 12.6344 10.506 12.9812C10.546 13.328 10.4674 13.6781 10.2831 13.9746C10.5123 13.9761 10.7384 14.0287 10.9448 14.1283C11.1512 14.228 11.3329 14.3724 11.4766 14.551C11.6204 14.7296 11.7225 14.9379 11.7758 15.1609C11.829 15.3839 11.832 15.6159 11.7845 15.8402C11.8899 15.8181 11.9974 15.807 12.1051 15.8071C12.4108 15.8071 12.7097 15.8977 12.9639 16.0676C13.2181 16.2374 13.4162 16.4788 13.5332 16.7613C13.6502 17.0437 13.6808 17.3545 13.6211 17.6544C13.5615 17.9542 13.4143 18.2296 13.1981 18.4458L12.4938 19.1501L13.3592 20.0156C13.5978 20.2542 13.9214 20.3882 14.2588 20.3882C14.5963 20.3882 14.9199 20.2542 15.1585 20.0156C15.2766 19.8975 15.3704 19.7572 15.4343 19.6029C15.4983 19.4485 15.5312 19.2831 15.5312 19.116C15.5312 18.9489 15.4983 18.7835 15.4343 18.6291C15.3704 18.4748 15.2766 18.3345 15.1585 18.2164L15.5731 18.631C15.6909 18.7506 15.8312 18.8458 15.986 18.911C16.1407 18.9761 16.3068 19.01 16.4747 19.0107C16.6427 19.0113 16.809 18.9787 16.9643 18.9148C17.1195 18.8508 17.2606 18.7568 17.3793 18.638C17.4981 18.5193 17.5921 18.3783 17.6561 18.223C17.7201 18.0678 17.7526 17.9014 17.752 17.7335C17.7514 17.5656 17.7175 17.3994 17.6523 17.2447C17.5872 17.0899 17.492 16.9496 17.3724 16.8318L17.6517 17.111C17.7695 17.2306 17.9098 17.3258 18.0646 17.391C18.2193 17.4561 18.3854 17.49 18.5534 17.4907C18.7213 17.4913 18.8876 17.4587 19.0429 17.3948C19.1981 17.3308 19.3392 17.2368 19.4579 17.118C19.5767 16.9993 19.6707 16.8583 19.7347 16.703C19.7987 16.5478 19.8312 16.3814 19.8306 16.2135C19.83 16.0456 19.7961 15.8794 19.7309 15.7247C19.6658 15.5699 19.5706 15.4296 19.451 15.3118L18.9581 14.819C19.0757 14.9397 19.216 15.0358 19.371 15.1018C19.526 15.1678 19.6926 15.2024 19.8611 15.2035C20.0296 15.2046 20.1966 15.1722 20.3525 15.1083C20.5083 15.0443 20.65 14.95 20.7691 14.8309C20.8882 14.7118 20.9825 14.5702 21.0465 14.4143C21.1105 14.2584 21.1428 14.0914 21.1417 13.9229C21.1406 13.7545 21.1061 13.5879 21.0401 13.4329C20.9741 13.2778 20.878 13.1375 20.7573 13.0199L19.1635 11.4257ZM7.3472 12.5952C7.44552 12.4984 7.5237 12.383 7.57724 12.2558C7.63077 12.1287 7.65861 11.9921 7.65913 11.8541C7.65966 11.7162 7.63287 11.5794 7.58031 11.4518C7.52774 11.3242 7.45044 11.2083 7.35286 11.1107C7.25529 11.0132 7.13936 10.9359 7.01177 10.8833C6.88418 10.8307 6.74744 10.8039 6.60945 10.8045C6.47146 10.805 6.33493 10.8328 6.20774 10.8864C6.08056 10.9399 5.96523 11.0181 5.8684 11.1164L3.2861 13.6986C3.08998 13.8947 2.9798 14.1607 2.97979 14.438C2.97978 14.7154 3.08994 14.9813 3.28605 15.1774C3.48215 15.3736 3.74812 15.4837 4.02546 15.4838C4.3028 15.4838 4.56878 15.3736 4.7649 15.1775L7.3472 12.5952Z" fill="black"/>
</svg>
