<svg width="24" height="24" viewBox="0 0 24 24" fill="none" xmlns="http://www.w3.org/2000/svg">
<path d="M15.0465 9.22836V14.5175H16.3117V19.9999H19.8742V14.5175H21.14V9.22836C20.7399 8.82823 20.2649 8.51082 19.7421 8.29426C19.2194 8.07771 18.6591 7.96625 18.0932 7.96625C17.5274 7.96625 16.9671 8.07771 16.4443 8.29426C15.9215 8.51082 15.4466 8.82823 15.0465 9.22836ZM2.86047 9.22836V14.5175H4.12577V19.9999H7.68827V14.5175H8.95347V9.22836C8.14548 8.4204 7.04962 7.9665 5.90697 7.9665C4.76432 7.9665 3.66847 8.4204 2.86047 9.22836ZM18.093 6.88916C18.3896 6.88916 18.6797 6.80119 18.9263 6.63637C19.173 6.47154 19.3653 6.23727 19.4788 5.96319C19.5923 5.6891 19.622 5.3875 19.5642 5.09653C19.5063 4.80555 19.3634 4.53828 19.1536 4.3285C18.9439 4.11872 18.6766 3.97586 18.3856 3.91798C18.0946 3.86011 17.793 3.88981 17.5189 4.00334C17.2449 4.11687 17.0106 4.30913 16.8458 4.55581C16.6809 4.80248 16.593 5.09249 16.593 5.38916C16.593 5.78699 16.751 6.16852 17.0323 6.44982C17.3136 6.73113 17.6951 6.88916 18.093 6.88916ZM5.90697 6.88916C6.20365 6.88916 6.49366 6.80119 6.74033 6.63637C6.987 6.47154 7.17926 6.23727 7.29279 5.96319C7.40632 5.6891 7.43603 5.3875 7.37815 5.09653C7.32027 4.80555 7.17741 4.53828 6.96763 4.3285C6.75785 4.11872 6.49058 3.97586 6.19961 3.91798C5.90864 3.86011 5.60704 3.88981 5.33295 4.00334C5.05886 4.11687 4.82459 4.30913 4.65977 4.55581C4.49495 4.80248 4.40697 5.09249 4.40697 5.38916C4.40697 5.78699 4.56501 6.16852 4.84631 6.44982C5.12762 6.73113 5.50915 6.88916 5.90697 6.88916Z" fill="black"/>
</svg>
