<svg width="24" height="24" viewBox="0 0 24 24" fill="none" xmlns="http://www.w3.org/2000/svg">
<path d="M11.2917 5.64473C11.6675 5.64473 12.0348 5.53329 12.3473 5.32452C12.6597 5.11575 12.9033 4.81901 13.0471 4.47183C13.1909 4.12465 13.2285 3.74262 13.1552 3.37406C13.0819 3.00549 12.9009 2.66694 12.6352 2.40122C12.3695 2.1355 12.0309 1.95455 11.6624 1.88124C11.2938 1.80792 10.9118 1.84555 10.5646 1.98936C10.2174 2.13316 9.92068 2.37669 9.71191 2.68914C9.50313 3.0016 9.3917 3.36894 9.3917 3.74473C9.3917 4.24864 9.59188 4.73191 9.9482 5.08823C10.3045 5.44455 10.7878 5.64473 11.2917 5.64473ZM11.2917 2.74473C11.4895 2.74473 11.6828 2.80338 11.8473 2.91326C12.0117 3.02314 12.1399 3.17932 12.2156 3.36204C12.2913 3.54477 12.3111 3.74584 12.2725 3.93982C12.2339 4.1338 12.1387 4.31198 11.9988 4.45183C11.859 4.59169 11.6808 4.68693 11.4868 4.72551C11.2928 4.7641 11.0917 4.74429 10.909 4.66861C10.7263 4.59292 10.5701 4.46475 10.4602 4.3003C10.3503 4.13585 10.2917 3.94251 10.2917 3.74473C10.292 3.4796 10.3974 3.22542 10.5849 3.03794C10.7724 2.85047 11.0266 2.74502 11.2917 2.74473ZM18.1217 14.4928C18.0077 13.9764 17.7208 13.5143 17.3085 13.1831C16.8962 12.8519 16.3832 12.6713 15.8543 12.6713H14V9.49993C14 8.83689 13.7366 8.201 13.2678 7.73216C12.7989 7.26332 12.163 6.99993 11.5 6.99993H10.5C10.1022 6.99993 9.72064 7.15796 9.43934 7.43927C9.15804 7.72057 9 8.1021 9 8.49993V14.4999C9 14.8978 9.15804 15.2793 9.43934 15.5606C9.72064 15.8419 10.1022 15.9999 10.5 15.9999H15.1043L16.429 21.9999H19.779L18.1217 14.4928ZM16.0809 15.7843L15.9076 14.9999H10.5C10.3674 14.9998 10.2404 14.947 10.1466 14.8533C10.0529 14.7596 10.0002 14.6325 10 14.4999V8.49993C10.0002 8.36737 10.0529 8.24028 10.1466 8.14655C10.2404 8.05282 10.3674 8.00009 10.5 7.99993H11.5C11.8977 8.00038 12.279 8.15856 12.5602 8.43976C12.8414 8.72097 12.9995 9.10224 13 9.49993V13.6713H15.8542C16.1549 13.6728 16.4463 13.7761 16.6808 13.9644C16.9153 14.1528 17.079 14.4151 17.1452 14.7084L18.5342 20.9999H17.2323L16.0809 15.7843ZM13.5567 17.9882H10.5C9.57208 17.9871 8.68249 17.618 8.02635 16.9619C7.37022 16.3057 7.00111 15.4161 7 14.4882V7.48823C7 7.35562 6.94732 7.22844 6.85355 7.13467C6.75979 7.04091 6.63261 6.98823 6.5 6.98823C6.36739 6.98823 6.24021 7.04091 6.14645 7.13467C6.05268 7.22844 6 7.35562 6 7.48823V14.4882C6.00132 15.6813 6.47585 16.8251 7.31948 17.6687C8.16311 18.5124 9.30693 18.9869 10.5 18.9882H13.5566C13.6892 18.9882 13.8164 18.9356 13.9102 18.8418C14.0039 18.748 14.0566 18.6208 14.0566 18.4882C14.0566 18.3556 14.0039 18.2284 13.9102 18.1347C13.8164 18.0409 13.6892 17.9882 13.5566 17.9882H13.5567Z" fill="black"/>
</svg>
