<svg width="24" height="24" viewBox="0 0 24 24" fill="none" xmlns="http://www.w3.org/2000/svg">
<path d="M12 4.62158C9.55811 4.62276 7.16664 5.31667 5.10337 6.62273C3.0401 7.92879 1.38968 9.79339 0.343811 12C1.38873 14.2073 3.03893 16.0725 5.10241 17.3787C7.1659 18.6849 9.55786 19.3784 12 19.3784C14.4422 19.3784 16.8341 18.6849 18.8976 17.3787C20.9611 16.0725 22.6113 14.2073 23.6562 12C22.6103 9.79339 20.9599 7.92879 18.8967 6.62273C16.8334 5.31667 14.4419 4.62276 12 4.62158ZM15.0034 13.8716L13.8716 15.0034L12 13.1318L10.1284 15.0034L8.99661 13.8716L10.8682 12L8.99661 10.1284L10.1284 8.99658L12 10.8682L13.8716 8.99658L15.0034 10.1284L13.1318 12L15.0034 13.8716Z" fill="black"/>
</svg>
