<svg width="24" height="24" viewBox="0 0 24 24" fill="none" xmlns="http://www.w3.org/2000/svg">
<path d="M1 11.7498V12.2498H4V17.9998H20V12.2498H23V11.7498H1ZM4.6078 9.49463C4.95392 9.49463 5.29226 9.39199 5.58005 9.1997C5.86783 9.00741 6.09214 8.7341 6.22459 8.41433C6.35704 8.09456 6.3917 7.74269 6.32417 7.40322C6.25665 7.06375 6.08998 6.75194 5.84524 6.50719C5.60049 6.26245 5.28867 6.09578 4.94921 6.02826C4.60974 5.96073 4.25787 5.99539 3.9381 6.12784C3.61833 6.26029 3.34502 6.4846 3.15273 6.77238C2.96044 7.06017 2.8578 7.39851 2.8578 7.74463C2.8578 8.20876 3.04217 8.65388 3.37036 8.98207C3.69855 9.31026 4.14367 9.49463 4.6078 9.49463ZM17 5.99983H10C9.46957 5.99983 8.96086 6.21054 8.58579 6.58562C8.21071 6.96069 8 7.4694 8 7.99983V9.99983H21C21 8.93896 20.5786 7.92155 19.8284 7.1714C19.0783 6.42126 18.0609 5.99983 17 5.99983Z" fill="black"/>
</svg>
