<svg width="24" height="24" viewBox="0 0 24 24" fill="none" xmlns="http://www.w3.org/2000/svg">
<path d="M14.983 6.4712C15.4618 6.47124 15.9299 6.32928 16.328 6.06329C16.7262 5.7973 17.0365 5.41921 17.2198 4.97685C17.403 4.53449 17.451 4.04771 17.3576 3.57809C17.2642 3.10846 17.0336 2.67708 16.6951 2.3385C16.3565 1.99991 15.9251 1.76933 15.4555 1.67591C14.9859 1.5825 14.4991 1.63044 14.0567 1.81369C13.6144 1.99693 13.2363 2.30724 12.9703 2.70537C12.7042 3.1035 12.5623 3.57157 12.5623 4.0504C12.5623 4.69241 12.8173 5.30814 13.2713 5.76212C13.7253 6.21611 14.341 6.47117 14.983 6.4712ZM14.983 2.9295C15.2047 2.9295 15.4214 2.99524 15.6057 3.1184C15.7901 3.24157 15.9337 3.41663 16.0186 3.62145C16.1034 3.82626 16.1256 4.05164 16.0824 4.26907C16.0391 4.48651 15.9324 4.68623 15.7756 4.84299C15.6188 4.99975 15.4191 5.10651 15.2017 5.14976C14.9842 5.19301 14.7589 5.17081 14.554 5.08597C14.3492 5.00113 14.1742 4.85747 14.051 4.67313C13.9278 4.4888 13.8621 4.27209 13.8621 4.0504C13.8625 3.75329 13.9808 3.46849 14.1909 3.25844C14.401 3.04839 14.6859 2.93024 14.983 2.9299V2.9295ZM22.623 16.6022L22.5124 16.1215C22.4985 16.0553 22.4638 15.9284 22.4433 15.8653C22.2794 15.3411 21.9525 14.8829 21.5102 14.5574C21.0679 14.2319 20.5332 14.056 19.984 14.0553C19.9055 14.0553 19.8262 14.0592 19.7468 14.0671C19.7119 14.0697 19.6098 14.0823 19.5748 14.0871L16.3304 14.5183C16.3366 14.5961 16.3538 14.6708 16.3538 14.7502C16.3529 15.5235 16.0454 16.2648 15.4986 16.8116C14.9518 17.3584 14.2105 17.666 13.4372 17.6669H8.3412V16.4999H13.4375C13.9016 16.4999 14.3467 16.3155 14.6749 15.9873C15.0031 15.6591 15.1875 15.214 15.1875 14.7499C15.1875 14.2858 15.0031 13.8406 14.6749 13.5125C14.3467 13.1843 13.9016 12.9999 13.4375 12.9999H8.3412L2.1012 14.9999V22.6665L8.1012 20.6665H13.1012L22.2161 17.6016C22.3642 17.552 22.4906 17.4526 22.5736 17.3204C22.6567 17.1881 22.6914 17.0311 22.6717 16.8762C22.6741 16.8505 22.6306 16.6284 22.6233 16.6022H22.623ZM7.3965 11.9188L7.5854 11.8588L7.7808 11.846L8.3698 11.7976C8.3687 11.7693 8.3621 11.7427 8.3621 11.7141C8.36292 10.9791 8.65527 10.2743 9.17501 9.75458C9.69476 9.23482 10.3995 8.94244 11.1345 8.9416C11.5313 8.94247 11.9232 9.02952 12.2831 9.19674C12.643 9.36396 12.9622 9.60736 13.2188 9.9101L13.908 10.6742L14.825 10.2166C15.1288 10.0211 15.4821 9.91639 15.8433 9.9149C16.3834 9.91561 16.9012 10.1305 17.2832 10.5125C17.6651 10.8944 17.8799 11.4123 17.8806 11.9524C17.8789 12.3258 17.7728 12.6913 17.5743 13.0076L18.6157 12.8692C18.7246 12.8548 18.9717 12.8286 19.1206 12.8214C19.2025 12.5389 19.2452 12.2465 19.2473 11.9524C19.2473 11.5054 19.1593 11.0627 18.9882 10.6497C18.8172 10.2367 18.5665 9.86139 18.2504 9.54528C17.9343 9.22916 17.559 8.97841 17.146 8.80733C16.733 8.63625 16.2903 8.5482 15.8433 8.5482C15.2756 8.54972 14.7187 8.70279 14.23 8.9916C13.6777 8.35698 12.9446 7.90644 12.1289 7.70045C11.3133 7.49445 10.4541 7.54285 9.66675 7.83915C8.87939 8.13545 8.20148 8.66547 7.72398 9.3581C7.24649 10.0507 6.99226 10.8728 6.9954 11.7141C6.9954 11.8241 7.0088 11.9312 7.019 12.0387L7.3965 11.9188Z" fill="black"/>
</svg>
