<svg width="24" height="24" viewBox="0 0 24 24" fill="none" xmlns="http://www.w3.org/2000/svg">
<path d="M3 3V21H21V3H3ZM15 9.2014C15 9.79474 14.8241 10.3748 14.4944 10.8681C14.1648 11.3615 13.6962 11.746 13.1481 11.973C12.5999 12.2001 11.9967 12.2595 11.4147 12.1438C10.8328 12.028 10.2982 11.7423 9.87868 11.3227C9.45912 10.9032 9.1734 10.3686 9.05764 9.78667C8.94189 9.20473 9.0013 8.60153 9.22836 8.05335C9.45542 7.50517 9.83994 7.03664 10.3333 6.70699C10.8266 6.37735 11.4067 6.2014 12 6.2014C12.7956 6.2014 13.5587 6.51747 14.1213 7.08008C14.6839 7.64269 15 8.40575 15 9.2014ZM6.5 20V16.6091C7.22227 15.8868 8.07972 15.3139 9.02342 14.923C9.96711 14.5321 10.9786 14.3309 12 14.3309C13.0214 14.3309 14.0329 14.5321 14.9766 14.923C15.9203 15.3139 16.7777 15.8868 17.5 16.6091V20H6.5Z" fill="black"/>
</svg>
