<svg width="24" height="24" viewBox="0 0 24 24" fill="none" xmlns="http://www.w3.org/2000/svg">
<path d="M12 12.7292C12.5933 12.7292 13.1734 12.5533 13.6667 12.2236C14.1601 11.894 14.5446 11.4254 14.7716 10.8773C14.9987 10.3291 15.0581 9.72587 14.9424 9.14393C14.8266 8.56199 14.5409 8.02744 14.1213 7.60788C13.7018 7.18832 13.1672 6.9026 12.5853 6.78684C12.0033 6.67109 11.4001 6.7305 10.8519 6.95756C10.3038 7.18462 9.83524 7.56914 9.50559 8.06249C9.17595 8.55584 9 9.13586 9 9.7292C9 10.5248 9.31607 11.2879 9.87868 11.8505C10.4413 12.4131 11.2044 12.7292 12 12.7292ZM12 7.2292C12.4945 7.2292 12.9778 7.37582 13.3889 7.65053C13.8 7.92523 14.1205 8.31568 14.3097 8.77249C14.4989 9.22931 14.5484 9.73197 14.452 10.2169C14.3555 10.7019 14.1174 11.1473 13.7678 11.497C13.4181 11.8466 12.9727 12.0847 12.4877 12.1812C12.0028 12.2776 11.5001 12.2281 11.0433 12.0389C10.5865 11.8497 10.196 11.5292 9.92133 11.1181C9.64662 10.707 9.5 10.2237 9.5 9.7292C9.50074 9.06639 9.76437 8.43093 10.2331 7.96225C10.7017 7.49357 11.3372 7.22994 12 7.2292ZM3 3V21H21V3H3ZM16.5029 20.5H7.4971V16.86C8.70558 15.6929 10.32 15.0406 12 15.0406C13.68 15.0406 15.2944 15.6929 16.5029 16.86V20.5ZM20.5 20.5H17.0029V16.6523L16.9297 16.5791C15.6213 15.2734 13.8484 14.5401 12 14.5401C10.1516 14.5401 8.37865 15.2734 7.0703 16.5791L6.9971 16.6523V20.5H3.5V3.5H20.5V20.5Z" fill="black"/>
</svg>
