<svg width="24" height="24" viewBox="0 0 24 24" fill="none" xmlns="http://www.w3.org/2000/svg">
<path d="M12.4412 2H11.5588C9.43705 2 7.40221 2.84285 5.90192 4.34315C4.40163 5.84344 3.55878 7.87827 3.55878 10V12.5294C3.55878 13.5903 3.9802 14.6077 4.73035 15.3578C5.4805 16.108 6.49791 16.5294 7.55878 16.5294H7.91158V19C7.91158 19.5304 8.12229 20.0391 8.49736 20.4142C8.87244 20.7893 9.38114 21 9.91158 21H14.0884C14.6188 21 15.1275 20.7893 15.5026 20.4142C15.8777 20.0391 16.0884 19.5304 16.0884 19V16.5294H16.4412C17.502 16.5294 18.5195 16.108 19.2696 15.3578C20.0197 14.6077 20.4412 13.5903 20.4412 12.5294V10C20.4412 7.87827 19.5983 5.84344 18.098 4.34315C16.5977 2.84285 14.5629 2 12.4412 2ZM7.87998 12.1719C7.55147 12.1719 7.23034 12.0744 6.9572 11.8919C6.68407 11.7094 6.47119 11.45 6.34548 11.1465C6.21978 10.843 6.1869 10.509 6.251 10.1868C6.31511 9.8646 6.47331 9.56865 6.70561 9.33636C6.93791 9.10407 7.23387 8.94589 7.55607 8.88181C7.87827 8.81773 8.21224 8.85063 8.51574 8.97635C8.81924 9.10207 9.07865 9.31496 9.26116 9.58811C9.44366 9.86126 9.54108 10.1824 9.54108 10.5109C9.54108 10.729 9.49811 10.945 9.41463 11.1466C9.33115 11.3481 9.2088 11.5312 9.05455 11.6854C8.9003 11.8397 8.71718 11.962 8.51565 12.0455C8.31411 12.129 8.09811 12.1719 7.87998 12.1719ZM11.0011 14.4919L11.5919 11.5403C11.6108 11.4459 11.6618 11.3611 11.7362 11.3001C11.8106 11.2391 11.9039 11.2057 12.0001 11.2057C12.0963 11.2057 12.1896 11.2391 12.264 11.3001C12.3384 11.3611 12.3894 11.4459 12.4083 11.5403L12.9991 14.4919H11.0011ZM16.1202 12.1719C15.7917 12.1719 15.4705 12.0744 15.1974 11.8919C14.9243 11.7094 14.7114 11.45 14.5857 11.1465C14.46 10.843 14.4271 10.509 14.4912 10.1868C14.5553 9.8646 14.7135 9.56865 14.9458 9.33636C15.1781 9.10407 15.4741 8.94589 15.7963 8.88181C16.1185 8.81773 16.4524 8.85063 16.7559 8.97635C17.0594 9.10207 17.3188 9.31496 17.5014 9.58811C17.6839 9.86126 17.7813 10.1824 17.7813 10.5109C17.7812 10.9515 17.6062 11.374 17.2946 11.6855C16.9831 11.9969 16.5605 12.1719 16.12 12.1719H16.1202Z" fill="black"/>
</svg>
