<svg width="24" height="24" viewBox="0 0 24 24" fill="none" xmlns="http://www.w3.org/2000/svg">
<path d="M12 12.75C12.5933 12.75 13.1734 12.5741 13.6667 12.2444C14.1601 11.9148 14.5446 11.4462 14.7716 10.8981C14.9987 10.3499 15.0581 9.74667 14.9424 9.16473C14.8266 8.58279 14.5409 8.04824 14.1213 7.62868C13.7018 7.20912 13.1672 6.9234 12.5853 6.80764C12.0033 6.69189 11.4001 6.7513 10.8519 6.97836C10.3038 7.20542 9.83524 7.58994 9.50559 8.08329C9.17595 8.57664 9 9.15666 9 9.75C9 10.5456 9.31607 11.3087 9.87868 11.8713C10.4413 12.4339 11.2044 12.75 12 12.75ZM12 7.65C12.4153 7.65 12.8214 7.77316 13.1667 8.00391C13.512 8.23466 13.7812 8.56264 13.9401 8.94636C14.0991 9.33009 14.1407 9.75233 14.0596 10.1597C13.9786 10.567 13.7786 10.9412 13.4849 11.2349C13.1912 11.5286 12.817 11.7286 12.4097 11.8096C12.0023 11.8907 11.5801 11.8491 11.1964 11.6901C10.8126 11.5312 10.4847 11.262 10.2539 10.9167C10.0232 10.5714 9.9 10.1653 9.9 9.75C9.90061 9.19323 10.1221 8.65944 10.5157 8.26575C10.9094 7.87205 11.4432 7.65061 12 7.65ZM3 3V21H21V3H3ZM16.0029 20H7.9971V16.9336C9.0836 15.92 10.5141 15.3564 12 15.3564C13.4859 15.3564 14.9164 15.92 16.0029 16.9336V20ZM20 20H17.0029V16.5146L16.8564 16.3682C16.2187 15.7304 15.4616 15.2244 14.6283 14.8793C13.795 14.5341 12.9019 14.3564 12 14.3564C11.0981 14.3564 10.205 14.5341 9.3717 14.8793C8.53843 15.2244 7.78132 15.7304 7.1436 16.3682L6.9971 16.5146V20H4V4H20V20Z" fill="black"/>
</svg>
