<svg width="24" height="24" viewBox="0 0 24 24" fill="none" xmlns="http://www.w3.org/2000/svg">
<path d="M4.6078 9.64473C4.98358 9.64473 5.35093 9.53329 5.66338 9.32452C5.97584 9.11575 6.21936 8.81901 6.36317 8.47183C6.50698 8.12465 6.5446 7.74262 6.47129 7.37406C6.39798 7.00549 6.21702 6.66694 5.9513 6.40122C5.68558 6.1355 5.34704 5.95455 4.97847 5.88124C4.60991 5.80792 4.22788 5.84555 3.8807 5.98936C3.53352 6.13316 3.23678 6.37669 3.02801 6.68914C2.81923 7.0016 2.7078 7.36894 2.7078 7.74473C2.7078 8.24864 2.90798 8.73191 3.2643 9.08823C3.62062 9.44455 4.10389 9.64473 4.6078 9.64473ZM4.6078 6.74473C4.80558 6.74473 4.99892 6.80338 5.16337 6.91326C5.32782 7.02314 5.45599 7.17932 5.53168 7.36204C5.60737 7.54477 5.62717 7.74584 5.58859 7.93982C5.55 8.1338 5.45476 8.31198 5.31491 8.45183C5.17505 8.59169 4.99687 8.68693 4.80289 8.72551C4.60891 8.7641 4.40784 8.74429 4.22512 8.66861C4.04239 8.59292 3.88621 8.46475 3.77633 8.3003C3.66645 8.13585 3.6078 7.94251 3.6078 7.74473C3.60809 7.4796 3.71354 7.22542 3.90101 7.03794C4.08849 6.85047 4.34267 6.74502 4.6078 6.74473ZM21 11.4999V10.9999C21 9.67385 20.4732 8.40208 19.5355 7.46439C18.5979 6.52671 17.3261 5.99993 16 5.99993H11C10.2044 5.99993 9.44129 6.316 8.87868 6.87861C8.31607 7.44122 8 8.20428 8 8.99993V11.4999H1V12.4999H4V17.9999H20V12.4999H23V11.4999H21ZM19 16.9999H5V12.4999H19V16.9999ZM20 11.4999H9V8.99993C9.00071 8.46971 9.21166 7.96142 9.58658 7.5865C9.96149 7.21158 10.4698 7.00064 11 6.99993H16C17.0605 7.00096 18.0774 7.42272 18.8273 8.17264C19.5772 8.92256 19.999 9.93938 20 10.9999V11.4999Z" fill="black"/>
</svg>
