<svg width="24" height="24" viewBox="0 0 24 24" fill="none" xmlns="http://www.w3.org/2000/svg">
<path d="M12 6.7708C11.4067 6.7708 10.8266 6.94675 10.3333 7.27639C9.83995 7.60604 9.45543 8.07457 9.22837 8.62275C9.0013 9.17093 8.94189 9.77413 9.05765 10.3561C9.1734 10.938 9.45913 11.4726 9.87868 11.8921C10.2982 12.3117 10.8328 12.5974 11.4147 12.7132C11.9967 12.8289 12.5999 12.7695 13.1481 12.5424C13.6962 12.3154 14.1648 11.9309 14.4944 11.4375C14.8241 10.9442 15 10.3641 15 9.7708C15 8.97515 14.6839 8.21209 14.1213 7.64948C13.5587 7.08687 12.7957 6.7708 12 6.7708ZM12 11.4708C11.6638 11.4708 11.3351 11.3711 11.0555 11.1843C10.776 10.9975 10.5581 10.732 10.4294 10.4214C10.3007 10.1107 10.2671 9.76891 10.3327 9.43915C10.3983 9.10938 10.5602 8.80647 10.7979 8.56872C11.0357 8.33097 11.3386 8.16906 11.6684 8.10347C11.9981 8.03787 12.3399 8.07154 12.6506 8.2002C12.9612 8.32887 13.2267 8.54677 13.4135 8.82633C13.6003 9.10589 13.7 9.43457 13.7 9.7708C13.6995 10.2215 13.5202 10.6536 13.2015 10.9723C12.8828 11.291 12.4507 11.4703 12 11.4708ZM12 2C10.0222 2 8.08879 2.58649 6.4443 3.6853C4.79981 4.78412 3.51809 6.3459 2.76121 8.17317C2.00433 10.0004 1.8063 12.0111 2.19215 13.9509C2.578 15.8907 3.53041 17.6725 4.92894 19.0711C6.32746 20.4696 8.10929 21.422 10.0491 21.8079C11.9889 22.1937 13.9996 21.9957 15.8268 21.2388C17.6541 20.4819 19.2159 19.2002 20.3147 17.5557C21.4135 15.9112 22 13.9778 22 12C22 10.6868 21.7413 9.38642 21.2388 8.17317C20.7363 6.95991 19.9997 5.85752 19.0711 4.92893C18.1425 4.00035 17.0401 3.26375 15.8268 2.7612C14.6136 2.25866 13.3132 2 12 2ZM15.5029 19.7357C14.4038 20.2393 13.209 20.5 12 20.5C10.791 20.5 9.59622 20.2393 8.4971 19.7357V17.01C9.46189 16.1513 10.7085 15.677 12 15.677C13.2916 15.677 14.5381 16.1513 15.5029 17.01V19.7357ZM17.0029 18.8564V16.3764L16.7829 16.1564C15.5132 14.89 13.793 14.1789 11.9997 14.1789C10.2064 14.1789 8.48626 14.89 7.2165 16.1564L6.9965 16.3764V18.8564C5.54591 17.8003 4.46672 16.3123 3.9135 14.6054C3.36028 12.8985 3.3614 11.0603 3.91671 9.35405C4.47202 7.64783 5.55302 6.1611 7.00491 5.10678C8.4568 4.05246 10.2051 3.48465 11.9994 3.48465C13.7937 3.48465 15.542 4.05246 16.9939 5.10678C18.4458 6.1611 19.5268 7.64783 20.0821 9.35405C20.6374 11.0603 20.6385 12.8985 20.0853 14.6054C19.5321 16.3123 18.4529 17.8003 17.0023 18.8564H17.0029Z" fill="black"/>
</svg>
