<svg width="24" height="24" viewBox="0 0 24 24" fill="none" xmlns="http://www.w3.org/2000/svg">
<path d="M14.2607 9.38568L12 11.6465L9.73931 9.38568L9.38571 9.73928L11.6465 12L9.38571 14.2607L9.73931 14.6143L12 12.3535L14.2607 14.6143L14.6143 14.2607L12.3535 12L14.6143 9.73928L14.2607 9.38568ZM12 4.62158C9.55811 4.62277 7.16665 5.31669 5.10338 6.62274C3.04011 7.9288 1.38969 9.7934 0.343811 12C1.38873 14.2073 3.03893 16.0725 5.10241 17.3787C7.1659 18.6849 9.55786 19.3784 12 19.3784C14.4422 19.3784 16.8341 18.6849 18.8976 17.3787C20.9611 16.0725 22.6113 14.2073 23.6562 12C22.6103 9.7934 20.9599 7.9288 18.8966 6.62274C16.8334 5.31669 14.4419 4.62277 12 4.62158ZM12 18.8783C9.69507 18.8687 7.43781 18.221 5.47853 17.0069C3.51925 15.7928 1.9345 14.0598 0.900011 12C1.9268 9.93407 3.50976 8.19571 5.47077 6.9805C7.43178 5.76529 9.693 5.12146 12 5.12146C14.307 5.12146 16.5682 5.76529 18.5293 6.9805C20.4903 8.19571 22.0732 9.93407 23.1 12C22.0655 14.0598 20.4808 15.7928 18.5215 17.0069C16.5622 18.221 14.305 18.8687 12 18.8783Z" fill="black"/>
</svg>
