<svg width="24" height="24" viewBox="0 0 24 24" fill="none" xmlns="http://www.w3.org/2000/svg">
<path d="M7.00003 5.40625C7.2967 5.40625 7.58671 5.31828 7.83338 5.15345C8.08006 4.98863 8.27231 4.75436 8.38585 4.48028C8.49938 4.20619 8.52908 3.90459 8.4712 3.61362C8.41333 3.32264 8.27047 3.05537 8.06069 2.84559C7.85091 2.63581 7.58363 2.49295 7.29266 2.43507C7.00169 2.37719 6.70009 2.4069 6.426 2.52043C6.15191 2.63396 5.91764 2.82622 5.75282 3.0729C5.588 3.31957 5.50003 3.60958 5.50003 3.90625C5.50003 4.30408 5.65806 4.68561 5.93937 4.96691C6.22067 5.24822 6.6022 5.40625 7.00003 5.40625ZM17 5.40625C17.2967 5.40625 17.5867 5.31828 17.8334 5.15345C18.0801 4.98863 18.2723 4.75436 18.3858 4.48028C18.4994 4.20619 18.5291 3.90459 18.4712 3.61362C18.4133 3.32264 18.2705 3.05537 18.0607 2.84559C17.8509 2.63581 17.5836 2.49295 17.2927 2.43507C17.0017 2.37719 16.7001 2.4069 16.426 2.52043C16.1519 2.63396 15.9176 2.82622 15.7528 3.0729C15.588 3.31957 15.5 3.60958 15.5 3.90625C15.5 4.30408 15.6581 4.68561 15.9394 4.96691C16.2207 5.24822 16.6022 5.40625 17 5.40625ZM7.00003 7.00005C6.31307 6.99815 5.63257 7.13256 4.99792 7.39547C4.36327 7.65839 3.78708 8.04461 3.30273 8.53175L3.00983 8.82475V16.0001H4.65003V22.0001H9.35003V16.0001H10.99V8.82475L10.6971 8.53175C10.2128 8.04463 9.63664 7.65843 9.00203 7.39551C8.36741 7.13259 7.68695 6.99818 7.00003 7.00005ZM9.49003 14.5001H7.85003V20.5001H6.15003V14.5001H4.51003V9.45345C5.19417 8.83967 6.08091 8.5002 7.00003 8.5002C7.91915 8.5002 8.80588 8.83967 9.49003 9.45345V14.5001ZM19.6025 8.19005L19.4111 7.99855C18.7714 7.3595 17.9042 7.00054 17 7.00054C16.0958 7.00054 15.2286 7.3595 14.5889 7.99855L14.3975 8.19005L11.8154 17.0001H14.65V22.0001H19.35V17.0001H22.185L19.6025 8.19005ZM17.85 15.5001V20.5001H16.15V15.5001H13.8181L15.7274 8.98525C16.0777 8.67279 16.5307 8.50012 17 8.50012C17.4694 8.50012 17.9224 8.67279 18.2726 8.98525L20.1819 15.5001H17.85Z" fill="black"/>
</svg>
