<svg width="24" height="24" viewBox="0 0 24 24" fill="none" xmlns="http://www.w3.org/2000/svg">
<path d="M12.3364 10.6178C12.6796 10.6178 13.0195 10.5502 13.3366 10.4189C13.6537 10.2875 13.9418 10.095 14.1845 9.85233C14.4272 9.60964 14.6197 9.32153 14.751 9.00444C14.8824 8.68735 14.95 8.34749 14.95 8.00427C14.95 5.91337 12.3364 1.20117 12.3364 1.20117C12.3364 1.20117 9.72289 5.91337 9.72289 8.00427C9.72292 8.69741 9.99828 9.36215 10.4884 9.85227C10.9785 10.3424 11.6433 10.6177 12.3364 10.6178ZM12.3364 4.12627C12.9781 5.34069 13.4215 6.64987 13.65 8.00427C13.65 8.35263 13.5116 8.68673 13.2653 8.93306C13.0189 9.17939 12.6849 9.31777 12.3365 9.31777C11.9881 9.31777 11.654 9.17939 11.4077 8.93306C11.1614 8.68673 11.023 8.35263 11.023 8.00427C11.2514 6.6499 11.6948 5.34072 12.3364 4.12627ZM22.4664 16.1631C22.3189 15.3381 21.8587 14.6019 21.1818 14.1079C20.5048 13.6138 19.6633 13.4001 18.8327 13.5112L15.6084 13.9397C15.4473 13.4716 15.1443 13.0653 14.7415 12.7774C14.3388 12.4894 13.8564 12.3341 13.3613 12.3331H8.34129L2.04559 14.3331V22.9998L8.04559 20.9998H13.0456L22.0356 17.9767C22.2341 17.9099 22.4021 17.7741 22.5088 17.5939C22.6156 17.4136 22.6541 17.2011 22.6172 16.9949L22.4664 16.1631ZM21.1496 16.8331L12.8221 19.6331H8.33499L8.29099 19.6416L7.84099 19.6924L7.54389 19.7265L7.26619 19.8191L3.41219 21.1036V15.3329L8.55299 13.6998H13.3611C13.6322 13.6998 13.8922 13.8075 14.0839 13.9992C14.2756 14.1909 14.3833 14.4509 14.3833 14.722C14.3833 14.9931 14.2756 15.2531 14.0839 15.4448C13.8922 15.6365 13.6322 15.7442 13.3611 15.7442H9.70789V15.7429H8.34119V17.1109H13.3612C13.8911 17.11 14.4056 16.9325 14.8234 16.6065C15.2413 16.2806 15.5385 15.8247 15.6683 15.3109L18.9974 14.8684L19.0223 14.8651C19.1028 14.8548 19.184 14.8496 19.2652 14.8496C19.6463 14.8495 20.0182 14.9664 20.3307 15.1846C20.6432 15.4028 20.8811 15.7117 21.0122 16.0696C21.081 16.2581 21.1349 16.4517 21.1734 16.6486L21.1777 16.6806C21.177 16.707 21.1755 16.8241 21.1494 16.8329L21.1496 16.8331Z" fill="black"/>
</svg>
