<svg width="24" height="24" viewBox="0 0 24 24" fill="none" xmlns="http://www.w3.org/2000/svg">
<path d="M4.8958 9.74893C5.5345 9.74895 6.15886 9.55956 6.68993 9.20472C7.22099 8.84988 7.6349 8.34553 7.87931 7.75544C8.12372 7.16536 8.18766 6.51604 8.06303 5.88962C7.9384 5.2632 7.63081 4.6878 7.17915 4.2362C6.72749 3.7846 6.15205 3.47707 5.52562 3.35252C4.89918 3.22797 4.24987 3.29199 3.65982 3.53647C3.06976 3.78096 2.56546 4.19493 2.21068 4.72604C1.85591 5.25714 1.6666 5.88153 1.6667 6.52023C1.66786 7.37625 2.00846 8.19686 2.61379 8.80212C3.21912 9.40738 4.03978 9.74787 4.8958 9.74893ZM4.8958 4.65723C5.26415 4.65723 5.62422 4.76645 5.9305 4.97108C6.23677 5.17571 6.47549 5.46657 6.61648 5.80687C6.75746 6.14716 6.79437 6.52162 6.72255 6.8829C6.65072 7.24418 6.47339 7.57604 6.21296 7.83654C5.95254 8.09703 5.62072 8.27446 5.25946 8.34638C4.89821 8.4183 4.52374 8.38149 4.1834 8.2406C3.84306 8.09971 3.55215 7.86106 3.34743 7.55484C3.14272 7.24862 3.0334 6.88858 3.0333 6.52023C3.03375 6.02636 3.23011 5.55283 3.57928 5.20356C3.92846 4.85429 4.40193 4.65781 4.8958 4.65723ZM13.1558 9.74893C13.7945 9.74903 14.4189 9.55971 14.95 9.20492C15.4812 8.85013 15.8951 8.3458 16.1396 7.75572C16.3841 7.16564 16.4481 6.51632 16.3235 5.88987C16.1989 5.26342 15.8913 4.68798 15.4397 4.23634C14.988 3.7847 14.4126 3.47714 13.7862 3.35255C13.1597 3.22797 12.5104 3.29196 11.9203 3.53643C11.3302 3.78091 10.8259 4.19488 10.4711 4.72599C10.1163 5.25711 9.927 5.88151 9.9271 6.52023C9.92826 7.37625 10.2689 8.19686 10.8742 8.80212C11.4795 9.40738 12.3002 9.74787 13.1562 9.74893H13.1558ZM13.1558 4.65723C13.5242 4.65713 13.8843 4.76627 14.1906 4.97084C14.497 5.17541 14.7358 5.46623 14.8768 5.80652C15.0179 6.14681 15.0549 6.52129 14.9831 6.88259C14.9113 7.2439 14.734 7.57582 14.4736 7.83636C14.2132 8.09691 13.8814 8.27438 13.5201 8.34634C13.1589 8.41831 12.7844 8.38152 12.444 8.24065C12.1036 8.09977 11.8127 7.86113 11.608 7.55489C11.4032 7.24866 11.2939 6.8886 11.2938 6.52023C11.2943 6.02637 11.4906 5.55286 11.8397 5.2036C12.1889 4.85433 12.6623 4.65784 13.1562 4.65723H13.1558ZM13.1246 11.4077C11.6268 11.4068 10.1728 11.9136 9 12.8452C7.72342 11.8332 6.11952 11.3255 4.49313 11.4186C2.86674 11.5117 1.33125 12.1992 0.1785 13.3502L0 13.5286V20.0002H18V13.5286L17.8215 13.3501C17.2052 12.733 16.473 12.2437 15.667 11.9104C14.8611 11.577 13.9972 11.4062 13.125 11.4077H13.1246ZM8.25 18.5002H1.5C1.5 18.5002 1.5 14.1781 1.5076 14.1702C2.4405 13.3561 3.63678 12.9074 4.875 12.9074C6.11322 12.9074 7.3095 13.3561 8.2424 14.1702L8.25 14.1781V18.5002ZM16.5 18.5002H9.75V18.3426C9.75 17.6406 9.751 14.1771 9.7576 14.1705C10.6905 13.3563 11.8868 12.9077 13.125 12.9077C14.3632 12.9077 15.5595 13.3563 16.4924 14.1705L16.5 14.1784V18.5002ZM21.6169 8.85203V6.52203H20.3831V8.85203H18.0531V10.0858H20.3831V12.4158H21.6169V10.0858H23.9469V8.85203H21.6169Z" fill="black"/>
</svg>
