<svg width="24" height="24" viewBox="0 0 24 24" fill="none" xmlns="http://www.w3.org/2000/svg">
<path d="M20.2932 12.3649L22.7656 9.89164L22.4121 9.53814L19.94 12.0115L17.543 9.61624C14.1924 6.26864 14.1855 6.26074 14.0156 6.37624L10.9111 8.40824C10.6527 8.55447 10.3536 8.61224 10.0594 8.57276C9.76511 8.53328 9.49181 8.3987 9.28111 8.18954L9.05851 7.96684C9.00362 7.91191 8.97278 7.83744 8.97278 7.75979C8.97278 7.68214 9.00362 7.60766 9.05851 7.55274L12.0935 4.51844L13.0886 3.52324C13.3679 3.24248 13.7 3.01991 14.0659 2.86841C14.4317 2.71691 14.824 2.63949 15.22 2.64064H18.8655V2.14064H15.2168C14.7561 2.13948 14.2998 2.22969 13.8742 2.40604C13.4486 2.58239 13.0622 2.84138 12.7373 3.16804L12.7354 3.16994L11.9169 3.98824L11.0969 3.16824C10.7723 2.84147 10.386 2.58239 9.96056 2.40599C9.53507 2.2296 9.07881 2.1394 8.61821 2.14064H4.96881V2.64064H8.61821C9.01309 2.63949 9.40427 2.71676 9.76905 2.86798C10.1338 3.0192 10.465 3.24135 10.7432 3.52154L11.5632 4.34154L8.70511 7.19924C8.63149 7.27285 8.5731 7.36024 8.53325 7.45642C8.49341 7.5526 8.47291 7.65568 8.47291 7.75979C8.47291 7.86389 8.49341 7.96698 8.53325 8.06316C8.5731 8.15934 8.63149 8.24673 8.70511 8.32034L8.92771 8.54304C9.21816 8.83044 9.59487 9.01463 10.0001 9.06738C10.4053 9.12012 10.8166 9.0385 11.1709 8.83504L14.1201 6.90504C14.8701 7.65204 18.4365 11.215 20.4014 13.1794C20.6219 13.3998 20.7458 13.6986 20.7458 14.0103C20.7459 14.3219 20.6222 14.6209 20.4019 14.8413C20.1816 15.0618 19.8827 15.1857 19.5711 15.1858C19.2594 15.1859 18.9605 15.0622 18.74 14.8418L17.6863 13.7881L17.3328 14.1416L18.98 15.7891C19.1981 16.0072 19.3206 16.303 19.3206 16.6114C19.3206 16.9198 19.1981 17.2156 18.98 17.4336C18.7619 17.6517 18.4662 17.7742 18.1578 17.7742C17.8494 17.7742 17.5536 17.6517 17.3355 17.4336L15.7437 15.8418L15.3901 16.1953L17.1773 17.9824C17.2854 18.0905 17.3711 18.2187 17.4295 18.3599C17.488 18.5011 17.5181 18.6524 17.5181 18.8052C17.5181 18.958 17.488 19.1093 17.4295 19.2505C17.3711 19.3916 17.2854 19.5199 17.1773 19.6279C16.9554 19.8395 16.6606 19.9575 16.3541 19.9575C16.0475 19.9575 15.7527 19.8395 15.5308 19.6279L14.8052 18.9014L14.8013 18.8984L13.1013 17.1984L13.0964 17.2033L13.0915 17.1984C12.7842 16.8911 12.3682 16.717 11.9336 16.7138L12.0925 16.5549C12.3364 16.3132 12.4993 16.0019 12.559 15.6638C12.6186 15.3257 12.572 14.9773 12.4256 14.6668C12.2791 14.3563 12.04 14.0987 11.7412 13.9297C11.4423 13.7606 11.0984 13.6883 10.7568 13.7227C10.8994 13.4137 10.9436 13.0683 10.8833 12.7333C10.8231 12.3984 10.6613 12.09 10.42 11.85C10.1786 11.6101 9.86937 11.4501 9.53406 11.3918C9.19875 11.3334 8.85362 11.3796 8.54541 11.5239C8.56926 11.2811 8.5392 11.0359 8.45737 10.806C8.37553 10.5761 8.24395 10.3671 8.07201 10.1939C7.75434 9.89025 7.33179 9.72077 6.89231 9.72077C6.45283 9.72077 6.03028 9.89025 5.71261 10.1939L3.89451 12.0107L1.39361 9.51004L1.04001 9.86334L3.54101 12.3643L3.07231 12.833C2.84065 13.0671 2.68337 13.3645 2.62026 13.6877C2.55715 14.011 2.59102 14.3456 2.71762 14.6497C2.84422 14.9537 3.05789 15.2135 3.33176 15.3965C3.60563 15.5794 3.92747 15.6772 4.25681 15.6777C4.26681 15.6777 4.27681 15.675 4.28681 15.6749C4.09872 15.9392 3.99301 16.2532 3.98298 16.5774C3.97294 16.9016 4.05904 17.2215 4.23043 17.4969C4.40182 17.7723 4.65084 17.9908 4.94614 18.125C5.24145 18.2592 5.56985 18.303 5.89001 18.2509C5.75698 18.5985 5.74453 18.9807 5.85466 19.3363C5.96478 19.6918 6.1911 20 6.49732 20.2116C6.80355 20.4231 7.17194 20.5257 7.54343 20.5029C7.91491 20.4801 8.26798 20.3332 8.54601 20.0857C8.54745 20.5299 8.72513 20.9554 9.04001 21.2686C9.35182 21.5794 9.77411 21.7539 10.2144 21.7539C10.6546 21.7539 11.0769 21.5794 11.3887 21.2686L11.917 20.7402L12.4385 21.2617C12.6719 21.4949 12.9691 21.6537 13.2927 21.7182C13.6162 21.7828 13.9516 21.7501 14.2566 21.6244C14.5616 21.4987 14.8226 21.2855 15.0066 21.0117C15.1907 20.738 15.2897 20.4158 15.291 20.0859C15.6137 20.3424 16.0185 20.4732 16.4303 20.4539C16.842 20.4347 17.2329 20.2668 17.5303 19.9814C17.7513 19.76 17.9055 19.4808 17.9753 19.1758C18.045 18.8708 18.0276 18.5523 17.9248 18.2568C18.2431 18.3021 18.5676 18.254 18.8592 18.1186C19.1507 17.9831 19.3968 17.7661 19.5675 17.4937C19.7382 17.2213 19.8263 16.9052 19.8211 16.5838C19.8159 16.2624 19.7176 15.9494 19.5381 15.6826C19.9922 15.6818 20.4283 15.5051 20.7549 15.1895C20.9103 15.0345 21.0336 14.8503 21.1177 14.6475C21.2018 14.4448 21.2451 14.2274 21.2451 14.0079C21.2451 13.7884 21.2018 13.571 21.1177 13.3682C21.0336 13.1655 20.9103 12.9813 20.7549 12.8262L20.2932 12.3649ZM3.42581 14.8281C3.20817 14.6104 3.08591 14.3152 3.08591 14.0073C3.08591 13.6995 3.20817 13.4043 3.42581 13.1865L6.06581 10.5465C6.28478 10.3274 6.58184 10.2043 6.89162 10.2042C7.2014 10.2041 7.49854 10.327 7.71766 10.546C7.93678 10.765 8.05994 11.062 8.06004 11.3718C8.06015 11.6816 7.93718 11.9787 7.71821 12.1978L5.07521 14.8408C4.85477 15.0578 4.55718 15.1784 4.24788 15.176C3.93858 15.1736 3.64288 15.0485 3.42581 14.8281ZM4.84281 17.4229C4.6256 17.2048 4.50365 16.9095 4.50365 16.6016C4.50365 16.2938 4.6256 15.9985 4.84281 15.7803L5.42631 15.1967L5.43161 15.1924L8.07161 12.5518L8.41731 12.2061C8.63709 11.9903 8.93323 11.87 9.24128 11.8713C9.54933 11.8727 9.84437 11.9957 10.0622 12.2136C10.28 12.4314 10.403 12.7264 10.4044 13.0345C10.4058 13.3425 10.2855 13.6387 10.0696 13.8584L6.49511 17.4326C6.38606 17.5406 6.25679 17.6261 6.11468 17.6841C5.97257 17.742 5.82042 17.7714 5.66695 17.7705C5.51347 17.7696 5.36168 17.7385 5.22026 17.6788C5.07884 17.6192 4.95058 17.5322 4.84281 17.4229ZM6.61911 19.6562C6.40197 19.4385 6.28004 19.1435 6.28004 18.8359C6.28004 18.5284 6.40197 18.2334 6.61911 18.0156L10.0869 14.5488C10.1951 14.4391 10.324 14.3519 10.466 14.2922C10.6081 14.2325 10.7606 14.2015 10.9147 14.201C11.0688 14.2005 11.2215 14.2305 11.364 14.2892C11.5064 14.348 11.6358 14.4344 11.7448 14.5434C11.8537 14.6524 11.94 14.7819 11.9987 14.9244C12.0574 15.0668 12.0872 15.2195 12.0866 15.3737C12.086 15.5278 12.055 15.6802 11.9952 15.8223C11.9354 15.9643 11.8481 16.0931 11.7383 16.2012L8.27251 19.667C8.16335 19.7751 8.03393 19.8605 7.89169 19.9185C7.74944 19.9764 7.59716 20.0058 7.44357 20.0048C7.28997 20.0038 7.13809 19.9725 6.99661 19.9126C6.85514 19.8528 6.72685 19.7657 6.61911 19.6562ZM11.0352 20.915C10.8153 21.1302 10.5194 21.2499 10.2118 21.2482C9.90411 21.2465 9.60956 21.1235 9.39207 20.9059C9.17458 20.6883 9.05173 20.3937 9.05018 20.086C9.04863 19.7784 9.16852 19.4825 9.38381 19.2627L11.0947 17.5518C11.3126 17.3342 11.608 17.2119 11.916 17.2119C12.224 17.2119 12.5194 17.3342 12.7373 17.5518L12.7473 17.5618C12.9645 17.7798 13.0864 18.075 13.0864 18.3826C13.0864 18.6903 12.9645 18.9855 12.7473 19.2034L11.0352 20.915ZM14.4473 20.9082C14.2242 21.1208 13.9278 21.2393 13.6197 21.2393C13.3115 21.2393 13.0151 21.1208 12.792 20.9082L12.2705 20.3867L13.1005 19.5567C13.4101 19.2474 13.5844 18.8279 13.5853 18.3902L14.4472 19.2521C14.5562 19.3608 14.6426 19.4898 14.7016 19.6319C14.7606 19.774 14.7909 19.9264 14.7909 20.0802C14.7909 20.2341 14.7606 20.3864 14.7016 20.5285C14.6426 20.6706 14.5562 20.7997 14.4472 20.9083L14.4473 20.9082Z" fill="black"/>
</svg>
