<svg width="24" height="24" viewBox="0 0 24 24" fill="none" xmlns="http://www.w3.org/2000/svg">
<path d="M16.1406 4.39385C16.457 4.39385 16.7664 4.30001 17.0295 4.1242C17.2926 3.94839 17.4977 3.6985 17.6188 3.40614C17.7399 3.11378 17.7716 2.79207 17.7099 2.4817C17.6481 2.17133 17.4957 1.88624 17.272 1.66248C17.0482 1.43871 16.7631 1.28633 16.4527 1.22459C16.1424 1.16286 15.8207 1.19454 15.5283 1.31564C15.2359 1.43674 14.9861 1.64182 14.8102 1.90494C14.6344 2.16805 14.5406 2.4774 14.5406 2.79385C14.5406 3.21819 14.7092 3.62516 15.0092 3.92522C15.3093 4.22528 15.7163 4.39385 16.1406 4.39385ZM18.5 12.4999C17.61 12.4999 16.74 12.7639 15.9999 13.2583C15.2599 13.7528 14.6831 14.4556 14.3425 15.2779C14.0019 16.1001 13.9128 17.0049 14.0865 17.8779C14.2601 18.7508 14.6887 19.5526 15.318 20.1819C15.9474 20.8113 16.7492 21.2398 17.6221 21.4135C18.495 21.5871 19.3998 21.498 20.2221 21.1574C21.0443 20.8168 21.7471 20.24 22.2416 19.5C22.7361 18.76 23 17.89 23 16.9999C23 15.8065 22.5259 14.6619 21.682 13.818C20.8381 12.9741 19.6935 12.4999 18.5 12.4999ZM18.5 19.5999C17.9858 19.5999 17.4831 19.4475 17.0555 19.1618C16.6279 18.8761 16.2947 18.47 16.0979 17.9949C15.9011 17.5198 15.8496 16.9971 15.95 16.4927C16.0503 15.9884 16.2979 15.5251 16.6615 15.1615C17.0251 14.7979 17.4884 14.5502 17.9928 14.4499C18.4971 14.3496 19.0199 14.4011 19.495 14.5979C19.9701 14.7946 20.3761 15.1279 20.6618 15.5555C20.9475 15.983 21.1 16.4857 21.1 16.9999C21.0992 17.6893 20.825 18.3501 20.3376 18.8375C19.8502 19.325 19.1893 19.5992 18.5 19.5999ZM5.5 12.4999C4.60998 12.4999 3.73995 12.7639 2.99993 13.2583C2.25991 13.7528 1.68313 14.4556 1.34254 15.2779C1.00195 16.1001 0.912831 17.0049 1.08646 17.8779C1.2601 18.7508 1.68868 19.5526 2.31802 20.1819C2.94735 20.8113 3.74918 21.2398 4.62209 21.4135C5.49501 21.5871 6.39981 21.498 7.22207 21.1574C8.04434 20.8168 8.74715 20.24 9.24161 19.5C9.73608 18.76 10 17.89 10 16.9999C10 16.409 9.8836 15.8238 9.65746 15.2779C9.43131 14.7319 9.09984 14.2358 8.68198 13.818C8.26411 13.4001 7.76804 13.0686 7.22207 12.8425C6.67611 12.6163 6.09095 12.4999 5.5 12.4999ZM5.5 19.5999C4.98577 19.5999 4.48308 19.4475 4.05552 19.1618C3.62795 18.8761 3.2947 18.47 3.09791 17.9949C2.90112 17.5198 2.84964 16.9971 2.94996 16.4927C3.05028 15.9884 3.2979 15.5251 3.66152 15.1615C4.02514 14.7979 4.48841 14.5502 4.99276 14.4499C5.49711 14.3496 6.01989 14.4011 6.49498 14.5979C6.97006 14.7946 7.37613 15.1279 7.66182 15.5555C7.94751 15.983 8.1 16.4857 8.1 16.9999C8.0992 17.6893 7.82502 18.3501 7.3376 18.8375C6.85018 19.325 6.18932 19.5992 5.5 19.5999ZM18.3394 11.3175L19.5354 10.1213L14.9092 5.49505C14.6585 5.24433 14.3608 5.04544 14.0333 4.90975C13.7057 4.77406 13.3546 4.70422 13 4.70422C12.6454 4.70422 12.2943 4.77406 11.9667 4.90975C11.6392 5.04544 11.3415 5.24433 11.0908 5.49505L8 8.58585C7.62499 8.96091 7.41433 9.46957 7.41433 9.99995C7.41433 10.5303 7.62499 11.039 8 11.414L11 14.414L11.3906 19.9999H13V14.038C13 13.7684 12.9469 13.5013 12.8437 13.2522C12.7405 13.003 12.5891 12.7767 12.3984 12.586L10.6055 10.7929L13.97 7.42895L18.3394 11.3175Z" fill="black"/>
</svg>
