<svg width="24" height="24" viewBox="0 0 24 24" fill="none" xmlns="http://www.w3.org/2000/svg">
<path d="M12.6045 1.00003C10.5883 1.00222 8.65538 1.80412 7.22973 3.22976C5.80409 4.65541 5.0022 6.58836 5 8.60453V19.1719C5.00003 19.9291 5.22456 20.6692 5.64522 21.2987C6.06587 21.9283 6.66375 22.4189 7.36326 22.7087C8.06276 22.9984 8.83248 23.0742 9.57508 22.9266C10.3177 22.7789 10.9998 22.4143 11.5352 21.8789L16.4111 17.0029C17.5525 15.8678 18.4574 14.5176 19.0734 13.0304C19.6894 11.5432 20.0044 9.94864 20 8.33893C19.9903 6.38569 19.2063 4.51606 17.8198 3.14021C16.4334 1.76436 14.5577 0.994681 12.6045 1.00003ZM16.2637 11.7051L14.8652 11.1641C15.2138 10.259 15.3916 9.29707 15.3896 8.32713C15.3808 7.59477 15.0819 6.89579 14.5586 6.38342C14.0352 5.87105 13.3301 5.5871 12.5977 5.59383C11.7995 5.5947 11.0342 5.91218 10.4697 6.4766C9.9053 7.04102 9.5878 7.8063 9.5869 8.60453V11.793L10.7109 12.917C11.1057 13.312 11.3745 13.8151 11.4834 14.3628C11.5923 14.9105 11.5363 15.4782 11.3225 15.9941C11.1088 16.51 10.7469 16.951 10.2826 17.2612C9.81822 17.5714 9.27233 17.737 8.7139 17.737H8.07V16.237H8.7136C8.97542 16.2368 9.23129 16.159 9.4489 16.0134C9.6665 15.8678 9.83607 15.661 9.93618 15.419C10.0363 15.1771 10.0624 14.9109 10.0113 14.6542C9.96025 14.3974 9.8342 14.1615 9.6491 13.9763L8.0869 12.4141V8.60413C8.08825 7.40821 8.56393 6.26167 9.40958 5.41604C10.2552 4.57041 11.4018 4.09475 12.5977 4.09343C13.7279 4.08701 14.8145 4.52913 15.6192 5.32281C16.4239 6.1165 16.8809 7.19693 16.89 8.32713C16.8918 9.48216 16.6794 10.6275 16.2637 11.7051Z" fill="black"/>
</svg>
