<svg width="24" height="24" viewBox="0 0 24 24" fill="none" xmlns="http://www.w3.org/2000/svg">
<path d="M21.9326 17.0574L20.9426 16.0674L19 18.0098L17.0576 16.0674L16.0676 17.0574L18.01 18.9998L16.0676 20.9422L17.0576 21.9322L19 19.9898L20.9424 21.9322L21.9324 20.9422L19.99 18.9998L21.9326 17.0574ZM9.6084 0.999788C7.60292 0.990312 5.67558 1.77674 4.24922 3.18653C2.82286 4.59632 2.01396 6.51434 2 8.51979H3.5C3.51353 6.91203 4.16425 5.37529 5.3094 4.24671C6.45455 3.11813 8.00062 2.48988 9.6084 2.49979C11.1512 2.48254 12.6379 3.0779 13.7424 4.15528C14.8469 5.23266 15.4789 6.70411 15.5 8.24689C15.5022 9.66652 15.2202 11.0722 14.6708 12.3812C14.1213 13.6902 13.3155 14.8761 12.3008 15.8689L7.2363 20.867C6.8224 21.272 6.26657 21.4991 5.6875 21.4998C5.11259 21.5042 4.5594 21.2804 4.14931 20.8774C3.73922 20.4745 3.5057 19.9253 3.5 19.3504V17.1248H2V19.3504C2.00886 20.0752 2.23074 20.7814 2.638 21.381C3.04526 21.9806 3.61991 22.4472 4.29039 22.7227C4.96088 22.9981 5.69758 23.0703 6.40876 22.9301C7.11994 22.7899 7.77417 22.4436 8.29 21.9344L13.3545 16.9373C14.5111 15.8051 15.4294 14.453 16.0555 12.9605C16.6816 11.468 17.0027 9.86536 17 8.24689C16.9785 6.3064 16.1883 4.45366 14.8026 3.09505C13.4169 1.73645 11.5489 0.982934 9.6084 0.999788ZM6.4619 14.7298H5.6807V16.2298H6.4619C6.98098 16.2299 7.48841 16.076 7.92002 15.7876C8.35163 15.4993 8.68802 15.0894 8.88665 14.6098C9.08527 14.1302 9.13721 13.6025 9.03588 13.0934C8.93455 12.5844 8.68452 12.1168 8.3174 11.7498L7.2041 10.6355L7.2051 8.61699C7.20759 8.30516 7.2717 7.99689 7.39375 7.70993C7.5158 7.42296 7.69338 7.16295 7.91628 6.94486C8.13917 6.72677 8.40298 6.5549 8.69254 6.43913C8.9821 6.32336 9.29169 6.26598 9.6035 6.27029C9.86543 6.27212 10.1244 6.32591 10.3654 6.42853C10.6064 6.53116 10.8246 6.68058 11.0075 6.86814C11.1903 7.0557 11.3341 7.27768 11.4305 7.52121C11.527 7.76475 11.5741 8.025 11.5693 8.28689C11.5694 8.84189 11.4915 9.39416 11.3379 9.92749L12.7793 10.3436C12.9753 9.65872 13.073 8.94945 13.0693 8.23709C13.0676 7.77885 12.9754 7.32547 12.798 6.90296C12.6206 6.48045 12.3615 6.09714 12.0355 5.77502C11.7096 5.45291 11.3233 5.19834 10.8987 5.02592C10.4742 4.8535 10.0197 4.76662 9.5615 4.77029C8.54068 4.77065 7.56163 5.1756 6.8388 5.89642C6.11597 6.61725 5.7083 7.59518 5.7051 8.61599L5.7041 11.2566L7.2568 12.8103C7.41398 12.9675 7.52101 13.1678 7.56436 13.3859C7.60771 13.6039 7.58544 13.8299 7.50036 14.0353C7.41528 14.2407 7.27122 14.4163 7.08637 14.5398C6.90153 14.6633 6.68422 14.7293 6.4619 14.7293V14.7298Z" fill="black"/>
</svg>
