<svg width="24" height="24" viewBox="0 0 24 24" fill="none" xmlns="http://www.w3.org/2000/svg">
<path d="M12.9412 2H11.0588C8.93705 2 6.90221 2.84285 5.40192 4.34315C3.90163 5.84344 3.05878 7.87827 3.05878 10V12.5294C3.05878 13.5903 3.4802 14.6077 4.23035 15.3578C4.9805 16.108 5.99791 16.5294 7.05878 16.5294H7.41188V19C7.41188 19.5304 7.62259 20.0391 7.99766 20.4142C8.37274 20.7893 8.88144 21 9.41188 21H14.5881C15.1185 21 15.6272 20.7893 16.0023 20.4142C16.3774 20.0391 16.5881 19.5304 16.5881 19V16.5294H16.9412C18.002 16.5294 19.0195 16.108 19.7696 15.3578C20.5197 14.6077 20.9412 13.5903 20.9412 12.5294V10C20.9412 7.87827 20.0983 5.84344 18.598 4.34315C17.0977 2.84285 15.0629 2 12.9412 2ZM18.9412 12.5294C18.9406 13.0596 18.7297 13.568 18.3547 13.9429C17.9798 14.3179 17.4714 14.5288 16.9412 14.5294H14.5881V19H9.41188V14.5294H7.05878C6.52853 14.5288 6.02018 14.3179 5.64524 13.9429C5.27029 13.568 5.05939 13.0596 5.05878 12.5294V10C5.0606 8.40926 5.69333 6.8842 6.81815 5.75938C7.94298 4.63455 9.46804 4.00183 11.0588 4H12.9412C14.5319 4.00183 16.057 4.63455 17.1818 5.75938C18.3066 6.8842 18.9394 8.40926 18.9412 10V12.5294ZM8.39058 9.1719C8.09391 9.1719 7.80389 9.25987 7.55722 9.4247C7.31055 9.58952 7.11829 9.82379 7.00476 10.0979C6.89123 10.372 6.86152 10.6736 6.9194 10.9645C6.97728 11.2555 7.12014 11.5228 7.32992 11.7326C7.5397 11.9423 7.80697 12.0852 8.09794 12.1431C8.38891 12.201 8.69051 12.1713 8.9646 12.0577C9.23869 11.9442 9.47296 11.7519 9.63778 11.5053C9.8026 11.2586 9.89058 10.9686 9.89058 10.6719C9.89058 10.2741 9.73254 9.89254 9.45124 9.61124C9.16993 9.32994 8.7884 9.1719 8.39058 9.1719ZM15.6094 9.1719C15.3127 9.1719 15.0227 9.25987 14.776 9.4247C14.5293 9.58952 14.3371 9.82379 14.2236 10.0979C14.11 10.372 14.0803 10.6736 14.1382 10.9645C14.1961 11.2555 14.3389 11.5228 14.5487 11.7326C14.7585 11.9423 15.0258 12.0852 15.3167 12.1431C15.6077 12.201 15.9093 12.1713 16.1834 12.0577C16.4575 11.9442 16.6918 11.7519 16.8566 11.5053C17.0214 11.2586 17.1094 10.9686 17.1094 10.6719C17.1094 10.2741 16.9513 9.89254 16.67 9.61124C16.3887 9.32994 16.0072 9.1719 15.6094 9.1719ZM12 11C11.8383 11 11.6818 11.0573 11.5583 11.1616C11.4347 11.2659 11.3521 11.4106 11.325 11.57L10.8259 14.5H13.1741L12.675 11.57C12.6479 11.4106 12.5652 11.2659 12.4417 11.1616C12.3181 11.0573 12.1617 11 12 11Z" fill="black"/>
</svg>
