<svg width="24" height="24" viewBox="0 0 24 24" fill="none" xmlns="http://www.w3.org/2000/svg">
<path d="M17.875 9.6875C18.5054 9.6875 19.1217 9.50055 19.6459 9.1503C20.1701 8.80006 20.5786 8.30224 20.8199 7.7198C21.0611 7.13736 21.1242 6.49646 21.0013 5.87814C20.8783 5.25983 20.5747 4.69187 20.1289 4.24609C19.6831 3.80031 19.1152 3.49673 18.4969 3.37374C17.8785 3.25075 17.2376 3.31387 16.6552 3.55513C16.0728 3.79638 15.5749 4.20493 15.2247 4.72912C14.8744 5.2533 14.6875 5.86957 14.6875 6.5C14.6885 7.34506 15.0247 8.15521 15.6222 8.75276C16.2198 9.35031 17.0299 9.68646 17.875 9.6875ZM17.875 3.8125C18.4065 3.8125 18.9261 3.97011 19.3681 4.26542C19.8101 4.56073 20.1545 4.98046 20.3579 5.47153C20.5613 5.96261 20.6146 6.50298 20.5109 7.0243C20.4072 7.54562 20.1512 8.02449 19.7753 8.40034C19.3995 8.7762 18.9206 9.03216 18.3993 9.13586C17.878 9.23955 17.3376 9.18633 16.8465 8.98292C16.3555 8.77951 15.9357 8.43505 15.6404 7.99309C15.3451 7.55113 15.1875 7.03153 15.1875 6.5C15.1883 5.78747 15.4717 5.10435 15.9755 4.60052C16.4794 4.09669 17.1625 3.81329 17.875 3.8125ZM6.125 9.6836C6.75543 9.6836 7.3717 9.49665 7.89588 9.1464C8.42006 8.79616 8.82861 8.29834 9.06987 7.7159C9.31112 7.13346 9.37424 6.49256 9.25125 5.87424C9.12826 5.25593 8.82468 4.68797 8.3789 4.24219C7.93312 3.79641 7.36516 3.49283 6.74685 3.36984C6.12854 3.24685 5.48764 3.30997 4.9052 3.55123C4.32276 3.79248 3.82494 4.20103 3.47469 4.72521C3.12444 5.2494 2.9375 5.86567 2.9375 6.4961C2.93853 7.34116 3.27469 8.15131 3.87224 8.74886C4.46979 9.34641 5.27994 9.68256 6.125 9.6836ZM6.125 3.8086C6.65654 3.8086 7.17614 3.96621 7.61809 4.26152C8.06005 4.55683 8.40452 4.97656 8.60793 5.46763C8.81134 5.95871 8.86456 6.49908 8.76086 7.0204C8.65716 7.54172 8.4012 8.02059 8.02535 8.39644C7.6495 8.7723 7.17063 9.02826 6.64931 9.13196C6.12798 9.23565 5.58761 9.18243 5.09654 8.97902C4.60546 8.77561 4.18573 8.43115 3.89043 7.98919C3.59512 7.54723 3.4375 7.02763 3.4375 6.4961C3.43829 5.78357 3.7217 5.10045 4.22553 4.59662C4.72936 4.09279 5.41247 3.80939 6.125 3.8086ZM23.7757 14.675C22.6004 13.497 21.0981 12.6996 19.4639 12.3863L17.875 15L16.2861 12.3863C14.6636 12.6982 13.1711 13.4875 12 14.653C10.8289 13.4875 9.33643 12.6982 7.7139 12.3863L6.125 15L4.5361 12.3863C2.90187 12.6996 1.39958 13.497 0.2243 14.675L0 14.8994V20H24V14.8994L23.7757 14.675ZM11.75 19.5H0.5V15.1064L0.5779 15.0286C1.59947 14.0043 2.88603 13.2845 4.2935 12.95L5.6978 15.26L6.125 15.9628L6.5522 15.26L7.9565 12.95C9.36399 13.2846 10.6506 14.0044 11.6721 15.0288L11.75 15.1066V19.5ZM23.5 19.5H12.25V15.1064L12.3279 15.0286C13.3495 14.0043 14.636 13.2845 16.0435 12.95L17.4478 15.26L17.875 15.9628L18.3022 15.26L19.7065 12.95C21.114 13.2846 22.4006 14.0044 23.4221 15.0288L23.5 15.1066V19.5Z" fill="black"/>
</svg>
