<svg width="24" height="24" viewBox="0 0 24 24" fill="none" xmlns="http://www.w3.org/2000/svg">
<path d="M12.2917 5.49463C12.6378 5.49463 12.9762 5.39199 13.2639 5.1997C13.5517 5.00741 13.776 4.7341 13.9085 4.41433C14.0409 4.09455 14.0756 3.74269 14.0081 3.40322C13.9405 3.06375 13.7739 2.75193 13.5291 2.50719C13.2844 2.26245 12.9726 2.09578 12.6331 2.02826C12.2936 1.96073 11.9418 1.99539 11.622 2.12784C11.3022 2.26029 11.0289 2.4846 10.8366 2.77238C10.6443 3.06017 10.5417 3.39851 10.5417 3.74463C10.5417 4.20876 10.7261 4.65388 11.0543 4.98207C11.3825 5.31026 11.8276 5.49463 12.2917 5.49463ZM12.2917 2.49463C12.5389 2.49463 12.7806 2.56794 12.9862 2.70529C13.1917 2.84264 13.3519 3.03787 13.4465 3.26628C13.5412 3.49468 13.5659 3.74602 13.5177 3.98849C13.4694 4.23097 13.3504 4.4537 13.1756 4.62851C13.0008 4.80333 12.778 4.92238 12.5356 4.97061C12.2931 5.01884 12.0418 4.99409 11.8133 4.89948C11.5849 4.80487 11.3897 4.64465 11.2524 4.43909C11.115 4.23353 11.0417 3.99186 11.0417 3.74463C11.0421 3.41322 11.1739 3.0955 11.4082 2.86116C11.6426 2.62682 11.9603 2.495 12.2917 2.49463ZM17.254 13.2546H14.625V9.49983C14.625 8.83679 14.3616 8.2009 13.8928 7.73206C13.4239 7.26322 12.788 6.99983 12.125 6.99983H11.5C11.1022 6.99983 10.7206 7.15787 10.4393 7.43917C10.158 7.72047 10 8.10201 10 8.49983V13.9998C10 14.5303 10.2107 15.039 10.5858 15.414C10.9609 15.7891 11.4696 15.9998 12 15.9998H16.4563L15.4077 21.9998H18.105L19.2242 15.5985C19.2744 15.3111 19.2612 15.0161 19.1853 14.7343C19.1095 14.4526 18.9729 14.1908 18.7852 13.9674C18.5975 13.744 18.3631 13.5644 18.0986 13.4412C17.8341 13.318 17.5458 13.2541 17.254 13.2541V13.2546ZM18.7317 15.5129L17.6849 21.4998H16.0026L17.0513 15.4998H12C11.6023 15.4994 11.221 15.3412 10.9398 15.06C10.6586 14.7788 10.5004 14.3975 10.5 13.9998V8.49983C10.5003 8.2347 10.6057 7.98052 10.7932 7.79304C10.9807 7.60557 11.2349 7.50012 11.5 7.49983H12.125C12.6552 7.50044 13.1636 7.71135 13.5385 8.08629C13.9135 8.46123 14.1244 8.96958 14.125 9.49983V13.7541H17.254C17.4729 13.7541 17.6891 13.802 17.8875 13.8944C18.0859 13.9868 18.2616 14.1215 18.4024 14.2891C18.5432 14.4566 18.6457 14.6529 18.7026 14.8643C18.7594 15.0756 18.7694 15.2968 18.7317 15.5124V15.5129ZM14.2529 18.0052H11.7529C10.7587 18.004 9.80561 17.6085 9.10262 16.9055C8.39963 16.2025 8.00414 15.2494 8.0029 14.2552V7.25523C8.0029 7.18893 7.97656 7.12534 7.92968 7.07845C7.88279 7.03157 7.8192 7.00523 7.7529 7.00523C7.6866 7.00523 7.62301 7.03157 7.57612 7.07845C7.52924 7.12534 7.5029 7.18893 7.5029 7.25523V14.2552C7.50409 15.382 7.95224 16.4623 8.74901 17.2591C9.54578 18.0559 10.6261 18.504 11.7529 18.5052H14.2529C14.3192 18.5052 14.3828 18.4789 14.4297 18.432C14.4766 18.3851 14.5029 18.3215 14.5029 18.2552C14.5029 18.1889 14.4766 18.1253 14.4297 18.0785C14.3828 18.0316 14.3192 18.0052 14.2529 18.0052Z" fill="black"/>
</svg>
