<svg width="24" height="24" viewBox="0 0 24 24" fill="none" xmlns="http://www.w3.org/2000/svg">
<path d="M13.6394 5.20068C13.9855 5.20068 14.3239 5.09805 14.6116 4.90576C14.8994 4.71346 15.1237 4.44015 15.2562 4.12038C15.3886 3.80061 15.4233 3.44874 15.3558 3.10928C15.2882 2.76981 15.1216 2.45799 14.8768 2.21325C14.6321 1.96851 14.3203 1.80183 13.9808 1.73431C13.6413 1.66679 13.2895 1.70144 12.9697 1.8339C12.6499 1.96635 12.3766 2.19065 12.1843 2.47844C11.992 2.76622 11.8894 3.10457 11.8894 3.45068C11.8894 3.91481 12.0738 4.35993 12.402 4.68812C12.7302 5.01631 13.1753 5.20068 13.6394 5.20068ZM13.6394 2.18068C13.8906 2.18068 14.1361 2.25517 14.345 2.39472C14.5538 2.53427 14.7166 2.73261 14.8127 2.96468C14.9088 3.19674 14.934 3.45209 14.885 3.69845C14.836 3.9448 14.715 4.1711 14.5374 4.34871C14.3598 4.52632 14.1335 4.64728 13.8872 4.69628C13.6408 4.74528 13.3855 4.72013 13.1534 4.62401C12.9213 4.52789 12.723 4.36511 12.5834 4.15626C12.4439 3.94741 12.3694 3.70187 12.3694 3.45068C12.3698 3.11398 12.5037 2.79118 12.7418 2.5531C12.9799 2.31501 13.3027 2.18108 13.6394 2.18068ZM13.8242 11.6162L17.1816 14.4072L18.5771 13.0107L15.8711 10.3037L14.84 7.82128C14.7127 7.5113 14.5154 7.23501 14.2635 7.01408C14.0115 6.79314 13.7118 6.63358 13.3879 6.54788L11.8947 6.14788C11.3501 6.00063 10.7696 6.07066 10.2756 6.34318L7.877 7.65918C7.58998 7.81603 7.34194 8.03545 7.15124 8.30119C6.96055 8.56692 6.8321 8.87216 6.7754 9.19428L6.124 12.8662L8.0566 13.3945L9.0459 9.76999L10.15 9.19628L7.983 17.1143L5.1709 22.0752H7.4521L10.248 17.9512L11.0342 15.4434L14.8984 22.0752H17.0654L12.8643 13.0713L13.4883 10.7988L13.8242 11.6162ZM12.3542 13.1143L16.3112 21.5943H15.1738L10.8975 14.2574L9.8311 17.7109L7.1982 21.5947H5.9941L8.4241 17.2959L10.9041 8.26458L8.6377 9.43998L7.7207 12.8052L6.6729 12.5191L7.248 9.27908C7.29197 9.02749 7.39207 8.78905 7.54085 8.58145C7.68963 8.37386 7.88328 8.20246 8.1074 8.07998L10.5059 6.76358C10.8914 6.55036 11.3447 6.49529 11.77 6.60998L13.2632 7.00998C13.516 7.07713 13.7499 7.20181 13.9466 7.37427C14.1432 7.54673 14.2974 7.76231 14.397 8.00418L15.447 10.5305L17.9001 13.0105L17.1511 13.7605L14.2451 11.377L13.3965 9.31638L12.3542 13.1143Z" fill="black"/>
</svg>
