<svg width="24" height="24" viewBox="0 0 24 24" fill="none" xmlns="http://www.w3.org/2000/svg">
<path d="M15 16H9.00002C9.25164 16.5871 9.67001 17.0875 10.2033 17.4391C10.7365 17.7907 11.3613 17.9782 12 17.9782C12.6388 17.9782 13.2635 17.7907 13.7968 17.4391C14.33 17.0875 14.7484 16.5871 15 16ZM15 11.75C14.7528 11.75 14.5111 11.8233 14.3056 11.9606C14.1 12.098 13.9398 12.2932 13.8452 12.5216C13.7506 12.75 13.7258 13.0014 13.774 13.2438C13.8223 13.4863 13.9413 13.709 14.1161 13.8839C14.291 14.0587 14.5137 14.1777 14.7562 14.226C14.9986 14.2742 15.25 14.2494 15.4784 14.1548C15.7068 14.0602 15.902 13.9 16.0394 13.6944C16.1767 13.4889 16.25 13.2472 16.25 13C16.25 12.6685 16.1183 12.3505 15.8839 12.1161C15.6495 11.8817 15.3315 11.75 15 11.75ZM10.25 13C10.25 12.7527 10.1767 12.5111 10.0394 12.3055C9.90201 12.1 9.70679 11.9397 9.47838 11.8451C9.24997 11.7505 8.99864 11.7258 8.75616 11.774C8.51368 11.8222 8.29096 11.9413 8.11614 12.1161C7.94133 12.2909 7.82227 12.5136 7.77404 12.7561C7.72581 12.9986 7.75057 13.2499 7.84517 13.4783C7.93978 13.7067 8.1 13.902 8.30556 14.0393C8.51112 14.1767 8.7528 14.25 9.00002 14.25C9.16418 14.25 9.32672 14.2176 9.47838 14.1548C9.63004 14.092 9.76783 13.9999 9.88391 13.8839C9.99998 13.7678 10.0921 13.63 10.1549 13.4783C10.2177 13.3267 10.25 13.1641 10.25 13ZM19.7979 9.23388C19.3984 7.46412 18.4088 5.8829 16.9917 4.75002C15.5746 3.61714 13.8143 3 12 3C10.1857 3 8.42543 3.61714 7.00832 4.75002C5.59121 5.8829 4.60161 7.46412 4.20212 9.23388C3.38569 9.51051 2.68113 10.0447 2.19442 10.7562C1.70771 11.4677 1.46514 12.318 1.50321 13.1791C1.54128 14.0403 1.85793 14.8659 2.40552 15.5316C2.95312 16.1974 3.70206 16.6674 4.53972 16.8709C5.11846 18.3801 6.14134 19.6783 7.4733 20.5941C8.80525 21.5099 10.3836 22.0001 12 22.0001C13.6164 22.0001 15.1948 21.5099 16.5268 20.5941C17.8587 19.6783 18.8816 18.3801 19.4603 16.8709C20.298 16.6674 21.0469 16.1974 21.5945 15.5316C22.1421 14.8659 22.4588 14.0403 22.4968 13.1791C22.5349 12.318 22.2923 11.4677 21.8056 10.7562C21.3189 10.0447 20.6144 9.51051 19.7979 9.23388ZM18.9792 14.93L17.9683 15.18L17.5939 16.1519C17.1604 17.284 16.3936 18.2579 15.3948 18.945C14.396 19.632 13.2123 19.9998 12 19.9998C10.7878 19.9998 9.60402 19.632 8.60523 18.945C7.60645 18.2579 6.83964 17.284 6.40612 16.1519L6.03172 15.18L5.02082 14.93C4.6019 14.8303 4.22689 14.5968 3.95263 14.2648C3.67838 13.9328 3.51983 13.5205 3.50101 13.0902C3.4822 12.66 3.60415 12.2354 3.84838 11.8808C4.09261 11.5261 4.4458 11.2607 4.85442 11.1249L5.90782 10.7614L6.15312 9.67448C6.47853 8.23199 7.32905 6.9622 8.53912 6.11228C8.5188 6.24067 8.50574 6.37011 8.50002 6.49998C8.49713 7.22253 8.71882 7.92814 9.13445 8.5192C9.55007 9.11026 10.1391 9.55757 10.82 9.79926C11.501 10.0409 12.2402 10.0651 12.9355 9.8683C13.6307 9.67153 14.2476 9.26358 14.7009 8.70088L13.2768 7.27678C13.1408 7.50011 12.9486 7.68394 12.7195 7.80997C12.4904 7.936 12.2322 7.99984 11.9708 7.99513C11.7093 7.99043 11.4536 7.91734 11.2292 7.78315C11.0047 7.64895 10.8193 7.45833 10.6914 7.23024C10.5635 7.00215 10.4975 6.74454 10.5001 6.48304C10.5026 6.22155 10.5736 5.96528 10.706 5.73973C10.8383 5.51418 11.0274 5.32722 11.2544 5.19743C11.4815 5.06765 11.7385 4.99957 12 4.99998C13.3619 4.99398 14.6848 5.45449 15.7486 6.30489C16.8124 7.15528 17.5529 8.34429 17.847 9.67408L18.0922 10.7611L19.1456 11.1245C19.5542 11.2603 19.9074 11.5257 20.1517 11.8804C20.3959 12.235 20.5179 12.6596 20.499 13.0898C20.4802 13.5201 20.3217 13.9324 20.0474 14.2644C19.7732 14.5964 19.3981 14.8299 18.9792 14.9296V14.93Z" fill="black"/>
</svg>
