<svg width="24" height="24" viewBox="0 0 24 24" fill="none" xmlns="http://www.w3.org/2000/svg">
<path d="M19.5454 8.99998H13.8754L15.346 3.85048C15.4894 3.34796 15.4298 2.80921 15.1799 2.35023C14.93 1.89126 14.5099 1.54876 14.01 1.39648L12.876 1.05078L8.5828 8.99998H3V21H18.875C18.875 21 21.545 18 21.545 12V11C21.545 10.4696 21.3343 9.96097 20.9594 9.58591C20.5844 9.21085 20.0758 9.00009 19.5454 8.99998ZM8.5 20.5H3.5V9.49998H8.5V20.5ZM21.0454 12C21.1605 15.017 20.3163 17.9929 18.634 20.5H9V9.27998L13.1215 1.64858L13.8644 1.87508C14.2378 1.99081 14.5512 2.24771 14.738 2.59108C14.9247 2.93445 14.9701 3.33716 14.8644 3.71348L13.3944 8.86348L13.2124 9.50078H19.5456C19.9433 9.5012 20.3246 9.65938 20.6058 9.94059C20.887 10.2218 21.0452 10.6031 21.0456 11.0008L21.0454 12Z" fill="black"/>
</svg>
