<svg width="24" height="24" viewBox="0 0 24 24" fill="none" xmlns="http://www.w3.org/2000/svg">
<path d="M12 2C10.0222 2 8.08879 2.58649 6.4443 3.6853C4.79981 4.78412 3.51809 6.3459 2.76121 8.17317C2.00433 10.0004 1.8063 12.0111 2.19215 13.9509C2.578 15.8907 3.53041 17.6725 4.92894 19.0711C6.32746 20.4696 8.10929 21.422 10.0491 21.8079C11.9889 22.1937 13.9996 21.9957 15.8268 21.2388C17.6541 20.4819 19.2159 19.2002 20.3147 17.5557C21.4135 15.9112 22 13.9778 22 12C22 10.6868 21.7413 9.38642 21.2388 8.17317C20.7363 6.95991 19.9997 5.85752 19.0711 4.92893C18.1425 4.00035 17.0401 3.26375 15.8268 2.7612C14.6136 2.25866 13.3132 2 12 2ZM12 5.9653C12.5933 5.9653 13.1734 6.14125 13.6667 6.47089C14.1601 6.80054 14.5446 7.26907 14.7716 7.81725C14.9987 8.36543 15.0581 8.96863 14.9424 9.55057C14.8266 10.1325 14.5409 10.6671 14.1213 11.0866C13.7018 11.5062 13.1672 11.7919 12.5853 11.9077C12.0033 12.0234 11.4001 11.964 10.852 11.7369C10.3038 11.5099 9.83524 11.1254 9.5056 10.632C9.17595 10.1387 9 9.55864 9 8.9653C9 8.16965 9.31607 7.40659 9.87868 6.84398C10.4413 6.28137 11.2044 5.9653 12 5.9653ZM6.5 18.469V16.3035C7.95871 14.8448 9.93711 14.0254 12 14.0254C14.0629 14.0254 16.0413 14.8448 17.5 16.3035V18.4691C15.9672 19.7798 14.0168 20.5001 12 20.5001C9.98324 20.5001 8.03277 19.7798 6.5 18.4691V18.469Z" fill="black"/>
</svg>
