<svg width="24" height="24" viewBox="0 0 24 24" fill="none" xmlns="http://www.w3.org/2000/svg">
<path d="M1.0369 9.82829L0.95 10.3208L4 10.8585V17.9999H20V13.6799L22.6158 14.1411L22.7026 13.6487L1.0369 9.82829ZM5.459 8.27539C5.80512 8.27539 6.14346 8.17276 6.43125 7.98046C6.71903 7.78817 6.94334 7.51486 7.07579 7.19509C7.20824 6.87532 7.2429 6.52345 7.17537 6.18398C7.10785 5.84452 6.94118 5.5327 6.69644 5.28795C6.4517 5.04321 6.13987 4.87654 5.80041 4.80902C5.46094 4.74149 5.10907 4.77615 4.7893 4.9086C4.46953 5.04106 4.19622 5.26536 4.00393 5.55314C3.81164 5.84093 3.709 6.17927 3.709 6.52539C3.709 6.98952 3.89337 7.43464 4.22156 7.76283C4.54975 8.09102 4.99487 8.27539 5.459 8.27539ZM21 11.4343C21.0001 10.2587 20.5859 9.12069 19.8303 8.22012C19.0747 7.31955 18.0259 6.71402 16.8682 6.50989L10.8982 5.45729C10.3758 5.36531 9.83835 5.48458 9.40393 5.78887C8.96951 6.09316 8.67375 6.55755 8.5817 7.07989L8.1934 9.28239L21 11.5405V11.4343Z" fill="black"/>
</svg>
