<svg width="24" height="24" viewBox="0 0 24 24" fill="none" xmlns="http://www.w3.org/2000/svg">
<path d="M6.2906 5.49463C6.63672 5.49463 6.97506 5.39199 7.26285 5.1997C7.55063 5.00741 7.77494 4.7341 7.90739 4.41433C8.03984 4.09455 8.0745 3.74269 8.00697 3.40322C7.93945 3.06375 7.77278 2.75193 7.52804 2.50719C7.2833 2.26245 6.97147 2.09578 6.63201 2.02826C6.29254 1.96073 5.94067 1.99539 5.6209 2.12784C5.30113 2.26029 5.02782 2.4846 4.83553 2.77238C4.64324 3.06017 4.5406 3.39851 4.5406 3.74463C4.5406 4.20876 4.72497 4.65388 5.05316 4.98207C5.38135 5.31026 5.82647 5.49463 6.2906 5.49463ZM10.6063 9.99983L10.1606 8.88563C9.93791 8.32893 9.55352 7.85173 9.05702 7.5156C8.56052 7.17946 7.97468 6.99981 7.3751 6.99983H5.5C5.10218 6.99983 4.72064 7.15787 4.43934 7.43917C4.15804 7.72047 4 8.10201 4 8.49983V9.99983H2V17.9998C2 18.7955 2.31607 19.5585 2.87868 20.1212C3.44129 20.6838 4.20435 20.9998 5 20.9998H19C19.7956 20.9998 20.5587 20.6838 21.1213 20.1212C21.6839 19.5585 22 18.7955 22 17.9998V9.99983H10.6063ZM6 8.99983H7.3751C7.57511 8.99916 7.77069 9.05877 7.93631 9.1709C8.10194 9.28303 8.22994 9.44248 8.3036 9.62843L8.4522 9.99983H6V8.99983ZM20 17.9998C19.9997 18.265 19.8943 18.5191 19.7068 18.7066C19.5193 18.8941 19.2651 18.9995 19 18.9998H5C4.73487 18.9995 4.48069 18.8941 4.29321 18.7066C4.10574 18.5191 4.00029 18.265 4 17.9998V11.9998H20V17.9998Z" fill="black"/>
</svg>
