<svg width="24" height="24" viewBox="0 0 24 24" fill="none" xmlns="http://www.w3.org/2000/svg">
<path d="M15 3H5.49732C5.49732 3 2.75732 5.7222 2.75732 11.9305V13C2.75732 13.5304 2.96804 14.0391 3.34311 14.4142C3.71818 14.7893 4.22689 15 4.75732 15H9.82502L8.59412 19.3054C8.40458 19.9686 8.47958 20.6794 8.80333 21.2884C9.12709 21.8974 9.67438 22.3571 10.3301 22.5709L12.0286 23.1259L16.4171 15H21V3H15ZM15 14.4678L11.3037 21.3115L10.7959 21.1455C10.5084 21.0531 10.2683 20.8523 10.1264 20.5858C9.98449 20.3192 9.95204 20.0079 10.0359 19.7178L11.8145 13.5H4.75782C4.6253 13.4997 4.49827 13.447 4.40456 13.3533C4.31085 13.2596 4.25809 13.1325 4.25782 13V11.9307C4.13826 9.31257 4.82032 6.72027 6.21292 4.5H15V14.4678ZM19.5 13.5H16.5V4.5H19.5V13.5Z" fill="black"/>
</svg>
