<svg width="24" height="24" viewBox="0 0 24 24" fill="none" xmlns="http://www.w3.org/2000/svg">
<path d="M12 10.4302C12.7417 10.4302 13.4667 10.2102 14.0834 9.79819C14.7001 9.38613 15.1807 8.80046 15.4645 8.11524C15.7484 7.43002 15.8226 6.67602 15.6779 5.94859C15.5333 5.22116 15.1761 4.55297 14.6517 4.02853C14.1272 3.50408 13.459 3.14693 12.7316 3.00223C12.0042 2.85754 11.2502 2.9318 10.5649 3.21563C9.87971 3.49946 9.29404 3.9801 8.88199 4.59679C8.46993 5.21347 8.25 5.9385 8.25 6.68018C8.25114 7.67439 8.64659 8.62756 9.34961 9.33057C10.0526 10.0336 11.0058 10.429 12 10.4302ZM12 3.43018C12.6428 3.43018 13.2711 3.62079 13.8056 3.9779C14.3401 4.33502 14.7566 4.8426 15.0026 5.43646C15.2486 6.03032 15.313 6.68378 15.1876 7.31422C15.0622 7.94466 14.7526 8.52375 14.2981 8.97827C13.8436 9.4328 13.2645 9.74233 12.634 9.86773C12.0036 9.99313 11.3501 9.92877 10.7563 9.68279C10.1624 9.4368 9.65484 9.02024 9.29772 8.48578C8.94061 7.95132 8.75 7.32297 8.75 6.68018C8.75095 5.81852 9.09367 4.99242 9.70296 4.38313C10.3122 3.77385 11.1383 3.43113 12 3.43018ZM19.707 15.785C18.2347 14.3127 16.369 13.2964 14.3336 12.8578L12 16.7428L9.6664 12.8582C7.631 13.2968 5.7653 14.3131 4.293 15.7854L4 16.0783V21.0002H20V16.0783L19.707 15.785ZM19.5 20.5002H4.5V16.2854L4.6465 16.1389C5.96585 14.8208 7.61733 13.8844 9.4258 13.4289L11.5714 17.0002L12 17.7138L12.4286 17.0002L14.5743 13.4284C16.3827 13.8839 18.0342 14.8203 19.3535 16.1384L19.5 16.2849V20.5002Z" fill="black"/>
</svg>
