<svg width="24" height="24" viewBox="0 0 24 24" fill="none" xmlns="http://www.w3.org/2000/svg">
<path d="M8.00002 11H8.50002V13C8.50002 13.5304 8.71074 14.0391 9.08581 14.4142C9.46088 14.7893 9.96959 15 10.5 15H13.5C14.0305 15 14.5392 14.7893 14.9142 14.4142C15.2893 14.0391 15.5 13.5304 15.5 13V11H16C16.6631 11 17.2989 10.7366 17.7678 10.2678C18.2366 9.79893 18.5 9.16304 18.5 8.5V6.6875C18.5 5.17908 17.9008 3.73244 16.8342 2.66583C15.7676 1.59922 14.3209 1 12.8125 1H11.1875C9.6791 1 8.23247 1.59922 7.16585 2.66583C6.09924 3.73244 5.50002 5.17908 5.50002 6.6875V8.5C5.50002 9.16304 5.76341 9.79893 6.23225 10.2678C6.7011 10.7366 7.33698 11 8.00002 11ZM6.00002 6.6875C6.00158 5.31217 6.54862 3.99362 7.52113 3.02111C8.49364 2.0486 9.81219 1.50156 11.1875 1.5H12.8125C14.1879 1.50156 15.5064 2.0486 16.4789 3.02111C17.4514 3.99362 17.9985 5.31217 18 6.6875V8.5C17.9994 9.03025 17.7885 9.5386 17.4136 9.91354C17.0386 10.2885 16.5303 10.4994 16 10.5H15V13C14.9996 13.3977 14.8414 13.779 14.5602 14.0602C14.279 14.3414 13.8977 14.4995 13.5 14.5H10.5C10.1023 14.4995 9.72107 14.3414 9.43986 14.0602C9.15865 13.779 9.00047 13.3977 9.00002 13V10.5H8.00002C7.46978 10.4994 6.96142 10.2885 6.58648 9.91354C6.21154 9.5386 6.00063 9.03025 6.00002 8.5V6.6875ZM12.1819 8.26C12.1779 8.21451 12.157 8.17217 12.1234 8.14133C12.0897 8.11048 12.0457 8.09337 12 8.09337C11.9544 8.09337 11.9104 8.11048 11.8767 8.14133C11.843 8.17217 11.8221 8.21451 11.8181 8.26L11.6587 10.0934H12.3413L12.1819 8.26ZM19.415 15.4713L19.21 15.0142L12 18.246L4.79002 15.0146L4.58502 15.4717L11.3877 18.5205L4.58502 21.5693L4.79002 22.0264L12 18.795L19.21 22.0264L19.415 21.5693L12.6123 18.5205L19.415 15.4713ZM14.886 8.54C15.1906 8.54004 15.4884 8.44975 15.7417 8.28056C15.9949 8.11137 16.1924 7.87087 16.3089 7.58947C16.4255 7.30808 16.4561 6.99843 16.3967 6.69968C16.3373 6.40094 16.1906 6.12652 15.9752 5.91113C15.7599 5.69573 15.4855 5.54904 15.1867 5.48961C14.888 5.43017 14.5783 5.46065 14.2969 5.57721C14.0155 5.69376 13.775 5.89115 13.6058 6.1444C13.4365 6.39766 13.3462 6.69541 13.3462 7C13.3462 7.4084 13.5084 7.80007 13.7972 8.08887C14.086 8.37767 14.4776 8.53995 14.886 8.54ZM14.886 5.96C15.0917 5.95996 15.2928 6.02092 15.4639 6.13517C15.6349 6.24943 15.7683 6.41184 15.847 6.60187C15.9257 6.7919 15.9464 7.00102 15.9063 7.20277C15.8662 7.40452 15.7671 7.58985 15.6217 7.73532C15.4762 7.88079 15.2909 7.97986 15.0892 8.02C14.8874 8.06015 14.6783 8.03956 14.4883 7.96085C14.2982 7.88214 14.1358 7.74885 14.0215 7.57781C13.9072 7.40678 13.8462 7.2057 13.8462 7C13.8465 6.72429 13.9561 6.45995 14.1511 6.26497C14.346 6.07 14.6103 5.96032 14.886 5.96ZM9.11402 8.54C9.41861 8.54004 9.71638 8.44975 9.96966 8.28056C10.2229 8.11137 10.4203 7.87087 10.5369 7.58947C10.6535 7.30808 10.6841 6.99843 10.6247 6.69968C10.5653 6.40094 10.4186 6.12652 10.2032 5.91113C9.98787 5.69573 9.71347 5.54904 9.41473 5.48961C9.116 5.43017 8.80635 5.46065 8.52494 5.57721C8.24353 5.69376 8.003 5.89115 7.83377 6.1444C7.66455 6.39766 7.57422 6.69541 7.57422 7C7.57422 7.4084 7.73644 7.80007 8.02521 8.08887C8.31397 8.37767 8.70562 8.53995 9.11402 8.54ZM9.11402 5.96C9.31972 5.95996 9.52082 6.02092 9.69187 6.13517C9.86292 6.24943 9.99625 6.41184 10.075 6.60187C10.1537 6.7919 10.1744 7.00102 10.1343 7.20277C10.0942 7.40452 9.99512 7.58985 9.84968 7.73532C9.70425 7.88079 9.51893 7.97986 9.31719 8.02C9.11544 8.06015 8.90632 8.03956 8.71628 7.96085C8.52623 7.88214 8.36379 7.74885 8.24951 7.57781C8.13522 7.40678 8.07422 7.2057 8.07422 7C8.07449 6.72429 8.18411 6.45995 8.37905 6.26497C8.57399 6.07 8.83831 5.96032 9.11402 5.96Z" fill="#231F20"/>
</svg>
