<svg width="24" height="24" viewBox="0 0 24 24" fill="none" xmlns="http://www.w3.org/2000/svg">
<path d="M9.6078 5.49463C9.95392 5.49463 10.2923 5.39199 10.58 5.1997C10.8678 5.00741 11.0921 4.7341 11.2246 4.41433C11.357 4.09455 11.3917 3.74269 11.3242 3.40322C11.2567 3.06375 11.09 2.75193 10.8452 2.50719C10.6005 2.26245 10.2887 2.09578 9.94921 2.02826C9.60974 1.96073 9.25788 1.99539 8.9381 2.12784C8.61833 2.26029 8.34502 2.4846 8.15273 2.77238C7.96044 3.06017 7.8578 3.39851 7.8578 3.74463C7.8578 4.20876 8.04218 4.65388 8.37036 4.98207C8.69855 5.31026 9.14367 5.49463 9.6078 5.49463ZM18.44 15.5698C18.3401 15.1259 18.0925 14.7289 17.7379 14.4437C17.3832 14.1586 16.9424 14.0021 16.4873 13.9998H14.9618L13.6757 9.21983C13.5042 8.58272 13.1273 8.01993 12.6036 7.6186C12.0799 7.21727 11.4385 6.99979 10.7787 6.99983H9.5352C9.30496 6.99982 9.0778 7.05281 8.87133 7.15469C8.66486 7.25658 8.48461 7.40463 8.34455 7.58738C8.20449 7.77013 8.10839 7.98266 8.06367 8.20852C8.01896 8.43438 8.02684 8.6675 8.0867 8.88983L9.8008 15.2598C9.85799 15.4722 9.98359 15.6598 10.1582 15.7936C10.3327 15.9274 10.5466 15.9998 10.7665 15.9998H16.4873L17.8073 21.9998H19.855L18.44 15.5698ZM11.533 13.9998L10.1875 8.99983H10.7787C10.9986 9.00007 11.2122 9.07266 11.3868 9.2064C11.5613 9.34013 11.6869 9.52759 11.7443 9.73983L12.8907 13.9998H11.533ZM14.375 17.9998H10.1113C9.67125 17.9992 9.24366 17.8537 8.89459 17.5857C8.54552 17.3178 8.29439 16.9423 8.18 16.5174L5.8281 7.74103C5.79581 7.61236 5.73823 7.4914 5.65873 7.3852C5.57924 7.279 5.4794 7.18968 5.36504 7.12244C5.25069 7.0552 5.12409 7.01138 4.99264 6.99355C4.86118 6.97571 4.72749 6.98421 4.59935 7.01855C4.47121 7.05288 4.35119 7.11237 4.24626 7.19355C4.14134 7.27473 4.05362 7.37597 3.9882 7.49138C3.92279 7.60679 3.881 7.73407 3.86525 7.86579C3.84951 7.99751 3.86013 8.13105 3.8965 8.25863L6.248 17.035C6.47669 17.8851 6.97902 18.6361 7.67733 19.172C8.37565 19.7079 9.23105 19.9988 10.1113 19.9998H14.375C14.6402 19.9998 14.8946 19.8945 15.0821 19.7069C15.2696 19.5194 15.375 19.265 15.375 18.9998C15.375 18.7346 15.2696 18.4803 15.0821 18.2927C14.8946 18.1052 14.6402 17.9998 14.375 17.9998Z" fill="black"/>
</svg>
