<svg width="24" height="24" viewBox="0 0 24 24" fill="none" xmlns="http://www.w3.org/2000/svg">
<path d="M17.9827 9.8943H18.9827V6.9471H21.93V5.9471H18.9825V3H17.9825V5.9472H15.0355V6.9472H17.9827V9.8943ZM5.4826 9.5C6.07594 9.5 6.65596 9.32405 7.14931 8.99441C7.64266 8.66476 8.02717 8.19623 8.25424 7.64805C8.4813 7.09987 8.54071 6.49667 8.42496 5.91473C8.3092 5.33279 8.02348 4.79824 7.60392 4.37868C7.18436 3.95912 6.64981 3.6734 6.06787 3.55764C5.48593 3.44189 4.88273 3.5013 4.33455 3.72836C3.78637 3.95542 3.31784 4.33994 2.98819 4.83329C2.65855 5.32664 2.4826 5.90666 2.4826 6.5C2.48358 7.29535 2.79996 8.05784 3.36236 8.62024C3.92476 9.18264 4.68725 9.49902 5.4826 9.5ZM5.4826 11.701C4.50173 11.6993 3.53018 11.8914 2.62376 12.2662C1.71735 12.6411 0.893926 13.1914 0.2008 13.8854L0 14.0862V20H10.9651V14.0862L10.7644 13.8854C10.0713 13.1914 9.24785 12.6411 8.34143 12.2663C7.43502 11.8914 6.46347 11.6993 5.4826 11.701ZM23.7644 13.8854C22.3625 12.4866 20.463 11.701 18.4826 11.701C16.5022 11.701 14.6027 12.4866 13.2008 13.8854L13 14.0862V20H23.9651V14.0862L23.7644 13.8854Z" fill="black"/>
</svg>
