<svg width="24" height="24" viewBox="0 0 24 24" fill="none" xmlns="http://www.w3.org/2000/svg">
<path d="M19.415 15.4717L19.21 15.0146L12 18.246L4.79002 15.0146L4.58502 15.4717L11.3877 18.5205L4.58502 21.5693L4.79002 22.0264L12 18.795L19.21 22.0264L19.415 21.5693L12.6123 18.5205L19.415 15.4717ZM8.00002 11H8.50002V13C8.50002 13.5304 8.71074 14.0391 9.08581 14.4142C9.46088 14.7893 9.96959 15 10.5 15H13.5C14.0305 15 14.5392 14.7893 14.9142 14.4142C15.2893 14.0391 15.5 13.5304 15.5 13V11H16C16.6631 11 17.2989 10.7366 17.7678 10.2678C18.2366 9.79893 18.5 9.16304 18.5 8.5V6.6875C18.5 5.17908 17.9008 3.73244 16.8342 2.66583C15.7676 1.59922 14.3209 1 12.8125 1H11.1875C9.6791 1 8.23247 1.59922 7.16585 2.66583C6.09924 3.73244 5.50002 5.17908 5.50002 6.6875V8.5C5.50002 9.16304 5.76341 9.79893 6.23225 10.2678C6.7011 10.7366 7.33698 11 8.00002 11ZM14.96 5.6088C15.214 5.60892 15.4623 5.68435 15.6734 5.82556C15.8846 5.96677 16.0491 6.16741 16.1462 6.40212C16.2434 6.63683 16.2687 6.89507 16.2191 7.14418C16.1694 7.39329 16.047 7.62209 15.8674 7.80166C15.6877 7.98122 15.4589 8.10348 15.2097 8.15298C14.9606 8.20248 14.7024 8.17699 14.4677 8.07974C14.233 7.9825 14.0325 7.81786 13.8914 7.60664C13.7503 7.39542 13.675 7.14711 13.675 6.8931C13.675 6.72438 13.7083 6.55732 13.7729 6.40146C13.8374 6.24559 13.9321 6.10398 14.0514 5.98471C14.1708 5.86545 14.3124 5.77086 14.4683 5.70636C14.6242 5.64186 14.7913 5.60871 14.96 5.6088ZM11.5981 8.3367C11.6149 8.24231 11.6644 8.15683 11.7379 8.09526C11.8113 8.03368 11.9042 7.99994 12 7.99994C12.0959 7.99994 12.1887 8.03368 12.2622 8.09526C12.3357 8.15683 12.3851 8.24231 12.4019 8.3367L12.6973 10H11.3027L11.5981 8.3367ZM9.04052 5.6088C9.29456 5.60876 9.54291 5.68406 9.75416 5.82517C9.96541 5.96628 10.1301 6.16687 10.2273 6.40157C10.3245 6.63626 10.35 6.89452 10.3005 7.14369C10.2509 7.39285 10.1286 7.62173 9.94897 7.80137C9.76934 7.98102 9.54047 8.10335 9.29131 8.15292C9.04215 8.20248 8.78388 8.17704 8.54918 8.07982C8.31448 7.9826 8.11388 7.81796 7.97275 7.60672C7.83162 7.39549 7.7563 7.14714 7.75632 6.8931C7.75632 6.5525 7.89162 6.22585 8.13245 5.985C8.37328 5.74415 8.69992 5.60883 9.04052 5.6088Z" fill="black"/>
</svg>
