<svg width="24" height="24" viewBox="0 0 24 24" fill="none" xmlns="http://www.w3.org/2000/svg">
<path d="M12 6.65442C12.2502 6.65444 12.4948 6.58026 12.7029 6.44125C12.911 6.30224 13.0732 6.10465 13.1689 5.87346C13.2647 5.64228 13.2898 5.38789 13.241 5.14246C13.1922 4.89703 13.0717 4.67158 12.8947 4.49463C12.7178 4.31768 12.4924 4.19717 12.2469 4.14834C12.0015 4.09952 11.7471 4.12457 11.5159 4.22032C11.2847 4.31608 11.0871 4.47824 10.9481 4.68631C10.8091 4.89437 10.7349 5.13899 10.7349 5.38922C10.7349 5.72476 10.8682 6.04655 11.1054 6.28382C11.3427 6.52109 11.6644 6.6544 12 6.65442ZM1.86047 9.22842V14.9999H2.86047V19.9999H6.95347V14.9999H7.95347V9.22842C7.5534 8.82835 7.07845 8.511 6.55573 8.29448C6.03301 8.07796 5.47276 7.96652 4.90697 7.96652C4.34119 7.96652 3.78094 8.07796 3.25822 8.29448C2.7355 8.511 2.26055 8.82835 1.86047 9.22842ZM6.55347 13.5999H5.55347V18.5999H4.26057V13.5999H3.26057V9.87652C3.74537 9.5443 4.31932 9.36651 4.90702 9.36651C5.49473 9.36651 6.06868 9.5443 6.55347 9.87652V13.5999ZM8.95347 9.22842V14.9999H9.95347V19.9999H14.0465V14.9999H15.0465V9.22842C14.6464 8.82835 14.1714 8.511 13.6487 8.29448C13.126 8.07796 12.5658 7.96652 12 7.96652C11.4342 7.96652 10.8739 8.07796 10.3512 8.29448C9.8285 8.511 9.35355 8.82835 8.95347 9.22842ZM13.6465 13.5999H12.6465V18.5999H11.3535V13.5999H10.3535V9.87652C10.8383 9.54431 11.4123 9.36652 12 9.36652C12.5877 9.36652 13.1617 9.54431 13.6465 9.87652V13.5999ZM19.093 7.96652C18.5271 7.96581 17.9666 8.07692 17.4438 8.29348C16.921 8.51004 16.4461 8.82777 16.0465 9.22842V14.9999H17.0465V19.9999H21.14V14.9999H22.14V9.22842C21.7403 8.82771 21.2653 8.50994 20.7424 8.29338C20.2195 8.07682 19.659 7.96574 19.093 7.96652ZM20.7394 13.5999H19.7394V18.5999H18.4465V13.5999H17.4465V9.87642C17.9313 9.54424 18.5052 9.36648 19.0929 9.36648C19.6806 9.36648 20.2546 9.54424 20.7394 9.87642V13.5999ZM19.093 6.65442C19.3432 6.65442 19.5878 6.58022 19.7959 6.4412C20.0039 6.30218 20.1661 6.10458 20.2619 5.8734C20.3576 5.64221 20.3827 5.38782 20.3339 5.1424C20.285 4.89697 20.1645 4.67153 19.9876 4.49459C19.8107 4.31765 19.5852 4.19715 19.3398 4.14833C19.0944 4.09952 18.84 4.12457 18.6088 4.22033C18.3776 4.31609 18.18 4.47826 18.041 4.68632C17.902 4.89438 17.8278 5.13899 17.8278 5.38922C17.8278 5.72477 17.9611 6.04656 18.1984 6.28383C18.4356 6.52109 18.7574 6.6544 19.093 6.65442ZM4.90697 6.65442C5.15721 6.65442 5.40182 6.58022 5.60988 6.4412C5.81794 6.30218 5.98011 6.10458 6.07587 5.8734C6.17163 5.64221 6.19668 5.38782 6.14786 5.1424C6.09905 4.89697 5.97855 4.67153 5.80161 4.49459C5.62466 4.31765 5.39923 4.19715 5.1538 4.14833C4.90838 4.09952 4.65399 4.12457 4.4228 4.22033C4.19162 4.31609 3.99402 4.47826 3.855 4.68632C3.71598 4.89438 3.64177 5.13899 3.64177 5.38922C3.6418 5.72477 3.77511 6.04656 4.01237 6.28383C4.24964 6.52109 4.57143 6.6544 4.90697 6.65442Z" fill="black"/>
</svg>
