<svg width="24" height="24" viewBox="0 0 24 24" fill="none" xmlns="http://www.w3.org/2000/svg">
<path d="M12 2C10.0222 2 8.08879 2.58649 6.4443 3.6853C4.79981 4.78412 3.51809 6.3459 2.76121 8.17317C2.00433 10.0004 1.8063 12.0111 2.19215 13.9509C2.578 15.8907 3.53041 17.6725 4.92894 19.0711C6.32746 20.4696 8.10929 21.422 10.0491 21.8079C11.9889 22.1937 13.9996 21.9957 15.8268 21.2388C17.6541 20.4819 19.2159 19.2002 20.3147 17.5557C21.4135 15.9112 22 13.9778 22 12C22 10.6868 21.7413 9.38642 21.2388 8.17317C20.7363 6.95991 19.9997 5.85752 19.0711 4.92893C18.1425 4.00035 17.0401 3.26375 15.8268 2.7612C14.6136 2.25866 13.3132 2 12 2ZM12 6.2014C12.5933 6.2014 13.1734 6.37735 13.6667 6.70699C14.1601 7.03664 14.5446 7.50517 14.7716 8.05335C14.9987 8.60153 15.0581 9.20473 14.9424 9.78667C14.8266 10.3686 14.5409 10.9032 14.1213 11.3227C13.7018 11.7423 13.1672 12.028 12.5853 12.1438C12.0033 12.2595 11.4001 12.2001 10.852 11.973C10.3038 11.746 9.83524 11.3615 9.5056 10.8681C9.17595 10.3748 9 9.79474 9 9.2014C9 8.40575 9.31607 7.64269 9.87868 7.08008C10.4413 6.51747 11.2044 6.2014 12 6.2014ZM6.5 19.108V16.6091C7.22227 15.8868 8.07973 15.3139 9.02342 14.923C9.96711 14.5321 10.9786 14.3309 12 14.3309C13.0215 14.3309 14.0329 14.5321 14.9766 14.923C15.9203 15.3139 16.7777 15.8868 17.5 16.6091V19.108C15.9288 20.3341 13.993 21 12 21C10.007 21 8.07119 20.3341 6.5 19.108Z" fill="black"/>
</svg>
