<svg width="24" height="24" viewBox="0 0 24 24" fill="none" xmlns="http://www.w3.org/2000/svg">
<path d="M12 10.4302C12.7911 10.4302 13.5645 10.1956 14.2223 9.75606C14.8801 9.31653 15.3928 8.69182 15.6955 7.96091C15.9983 7.23001 16.0775 6.42574 15.9231 5.64982C15.7688 4.87389 15.3878 4.16116 14.8284 3.60175C14.269 3.04234 13.5563 2.66138 12.7804 2.50704C12.0044 2.3527 11.2002 2.43191 10.4693 2.73466C9.73836 3.03741 9.11365 3.5501 8.67412 4.2079C8.2346 4.86569 8 5.63905 8 6.43018C8.00122 7.49067 8.42304 8.50738 9.17292 9.25726C9.9228 10.0071 10.9395 10.429 12 10.4302ZM12 4.43018C12.3956 4.43018 12.7822 4.54748 13.1111 4.76724C13.44 4.987 13.6964 5.29936 13.8478 5.66481C13.9991 6.03026 14.0387 6.4324 13.9616 6.82036C13.8844 7.20832 13.6939 7.56469 13.4142 7.84439C13.1345 8.1241 12.7781 8.31458 12.3902 8.39175C12.0022 8.46892 11.6001 8.42931 11.2346 8.27794C10.8692 8.12656 10.5568 7.87022 10.3371 7.54132C10.1173 7.21242 10 6.82574 10 6.43018C10.0006 5.89993 10.2115 5.39158 10.5865 5.01664C10.9614 4.6417 11.4698 4.43079 12 4.43018ZM19.707 15.2039C18.1654 13.6591 16.1933 12.6158 14.0488 12.2107L12 14.7428L9.9512 12.2111C7.80674 12.6162 5.8346 13.6595 4.293 15.2043L4 15.4973V21.0002H20V15.4973L19.707 15.2039ZM18 19.0002H6V16.3386C6.92272 15.4942 8.01438 14.8557 9.2026 14.4653L10.4453 16.0009L12 17.9221L13.5547 16.001L14.7974 14.4653C15.9856 14.8557 17.0773 15.4942 18 16.3386V19.0002Z" fill="black"/>
</svg>
