<svg width="24" height="24" viewBox="0 0 24 24" fill="none" xmlns="http://www.w3.org/2000/svg">
<path d="M12.6045 1.00003C10.5883 1.00222 8.65538 1.80412 7.22973 3.22976C5.80409 4.65541 5.0022 6.58836 5 8.60453V19.1719C5.00003 19.9291 5.22456 20.6692 5.64522 21.2987C6.06587 21.9283 6.66375 22.4189 7.36326 22.7087C8.06276 22.9984 8.83248 23.0742 9.57508 22.9266C10.3177 22.7789 10.9998 22.4143 11.5352 21.8789L16.4111 17.0029C17.5525 15.8678 18.4574 14.5176 19.0734 13.0304C19.6894 11.5432 20.0044 9.94864 20 8.33893C19.9903 6.38569 19.2063 4.51606 17.8198 3.14021C16.4334 1.76436 14.5577 0.994681 12.6045 1.00003ZM16.3818 11.6768L14.5166 10.958C14.8376 10.1222 15.0015 9.23428 15 8.33893C14.9918 7.71133 14.735 7.11261 14.2859 6.67413C13.8368 6.23565 13.2321 5.99322 12.6045 6.00003C11.9139 6.00069 11.2519 6.2753 10.7636 6.7636C10.2753 7.25189 10.0007 7.91397 10 8.60453V11.5859L11.0859 12.6719C11.5224 13.1084 11.8196 13.6646 11.94 14.27C12.0604 14.8754 11.9986 15.503 11.7624 16.0733C11.5261 16.6436 11.1261 17.131 10.6129 17.474C10.0996 17.8169 9.49619 18 8.8789 18H8V16H8.8789C9.10062 15.9999 9.31735 15.9341 9.50168 15.8109C9.68602 15.6877 9.8297 15.5126 9.91456 15.3078C9.99943 15.1029 10.0217 14.8775 9.97848 14.6601C9.93528 14.4426 9.8286 14.2428 9.6719 14.0859L8 12.4141V8.60413C8.00156 7.38345 8.48719 6.21323 9.35038 5.35012C10.2136 4.48701 11.3838 4.00148 12.6045 4.00003C13.7624 3.99385 14.8754 4.4472 15.6994 5.26061C16.5234 6.07403 16.9912 7.18109 17 8.33893C17.0019 9.48019 16.7923 10.6119 16.3818 11.6768Z" fill="black"/>
</svg>
