<svg width="24" height="24" viewBox="0 0 24 24" fill="none" xmlns="http://www.w3.org/2000/svg">
<path d="M15.32 7.26398L17.479 5.90238L17.3795 8.45308H18.6207L18.5184 5.90057L20.68 7.26398L21.3007 6.18907L19.0391 5.00148L21.3008 3.81087L20.68 2.73598L18.518 4.10258L18.6205 1.54688H17.3794L17.4794 4.10078L15.32 2.73598L14.6993 3.81087L16.961 5.00148L14.6992 6.18907L15.32 7.26398ZM6.2906 5.24478C6.58727 5.24478 6.87728 5.1568 7.12396 4.99198C7.37063 4.82716 7.56289 4.59289 7.67642 4.3188C7.78995 4.04471 7.81966 3.74311 7.76178 3.45214C7.7039 3.16117 7.56104 2.89389 7.35126 2.68411C7.14148 2.47434 6.87421 2.33147 6.58324 2.2736C6.29226 2.21572 5.99066 2.24542 5.71657 2.35896C5.44249 2.47249 5.20822 2.66475 5.0434 2.91142C4.87857 3.15809 4.7906 3.4481 4.7906 3.74478C4.7906 4.1426 4.94864 4.52413 5.22994 4.80543C5.51124 5.08674 5.89278 5.24478 6.2906 5.24478ZM10.7396 10.3333L10.1606 8.88578C9.93791 8.32908 9.55352 7.85188 9.05702 7.51574C8.56052 7.17961 7.97468 6.99996 7.3751 6.99998H5.5C5.10218 6.99998 4.72064 7.15801 4.43934 7.43931C4.15804 7.72062 4 8.10215 4 8.49998V10.3333H2V18C2 18.7956 2.31607 19.5587 2.87868 20.1213C3.44129 20.6839 4.20435 21 5 21H19C19.7956 21 20.5587 20.6839 21.1213 20.1213C21.6839 19.5587 22 18.7956 22 18V10.3333H10.7396ZM5.4996 8.83327C5.4996 8.64947 6.047 8.49998 6.2308 8.49998H7.3751C7.67512 8.49898 7.96849 8.5884 8.21693 8.7566C8.46538 8.92479 8.65738 9.16395 8.7679 9.44287L9.124 10.3329H5.5L5.4996 8.83327ZM20.5 18C20.4995 18.3977 20.3414 18.7789 20.0602 19.0601C19.779 19.3413 19.3977 19.4995 19 19.5H5C4.60231 19.4995 4.22104 19.3413 3.93984 19.0601C3.65863 18.7789 3.50045 18.3977 3.5 18V11.8333H20.5V18Z" fill="black"/>
</svg>
