<svg width="24" height="24" viewBox="0 0 24 24" fill="none" xmlns="http://www.w3.org/2000/svg">
<path d="M12 12.7708C12.5933 12.7708 13.1734 12.5949 13.6667 12.2652C14.1601 11.9356 14.5446 11.467 14.7716 10.9188C14.9987 10.3707 15.0581 9.76747 14.9424 9.18553C14.8266 8.60359 14.5409 8.06904 14.1213 7.64948C13.7018 7.22992 13.1672 6.9442 12.5853 6.82844C12.0033 6.71269 11.4001 6.7721 10.8519 6.99916C10.3038 7.22622 9.83524 7.61074 9.50559 8.10409C9.17595 8.59744 9 9.17746 9 9.7708C9 10.5664 9.31607 11.3295 9.87868 11.8921C10.4413 12.4547 11.2044 12.7708 12 12.7708ZM12 8.0708C12.3362 8.0708 12.6649 8.1705 12.9445 8.3573C13.224 8.5441 13.4419 8.8096 13.5706 9.12024C13.6993 9.43087 13.7329 9.77269 13.6673 10.1025C13.6017 10.4322 13.4398 10.7351 13.2021 10.9729C12.9643 11.2106 12.6614 11.3725 12.3317 11.4381C12.0019 11.5037 11.6601 11.4701 11.3494 11.3414C11.0388 11.2127 10.7733 10.9948 10.5865 10.7153C10.3997 10.4357 10.3 10.107 10.3 9.7708C10.3005 9.32009 10.4798 8.88798 10.7985 8.56927C11.1172 8.25057 11.5493 8.0713 12 8.0708ZM3 3V21H21V3H3ZM15.5029 19.5H8.4971V17.01C9.46189 16.1513 10.7084 15.677 12 15.677C13.2916 15.677 14.5381 16.1513 15.5029 17.01V19.5ZM19.5 19.5H17.0029V16.376L16.7829 16.156C15.5131 14.8896 13.793 14.1785 11.9997 14.1785C10.2064 14.1785 8.48625 14.8896 7.2165 16.156L6.9965 16.376V19.5H4.5V4.5H19.5V19.5Z" fill="black"/>
</svg>
