<svg width="24" height="24" viewBox="0 0 24 24" fill="none" xmlns="http://www.w3.org/2000/svg">
<path d="M14.8623 5.06932C15.2042 5.12341 15.5544 5.0749 15.8688 4.92993C16.1831 4.78495 16.4473 4.55001 16.6281 4.25483C16.8089 3.95965 16.8981 3.61749 16.8844 3.27162C16.8707 2.92575 16.7548 2.5917 16.5512 2.31173C16.3477 2.03177 16.0657 1.81845 15.7409 1.69876C15.4161 1.57908 15.0631 1.5584 14.7266 1.63934C14.39 1.72029 14.085 1.89922 13.8502 2.1535C13.6153 2.40779 13.4612 2.72601 13.4072 3.06792C13.3391 3.52565 13.4535 3.9918 13.7256 4.3661C13.9977 4.74039 14.4059 4.9929 14.8623 5.06932ZM15.1335 2.09102C15.1995 2.09104 15.2654 2.09626 15.3306 2.10662C15.6408 2.15608 15.921 2.32051 16.1154 2.56719C16.3099 2.81387 16.4043 3.12472 16.38 3.43789C16.3557 3.75105 16.2143 4.04357 15.9841 4.25725C15.7538 4.47092 15.4516 4.59008 15.1375 4.59102C15.0715 4.59098 15.0056 4.5858 14.9404 4.57552C14.6301 4.5262 14.3497 4.36181 14.1551 4.11509C13.9606 3.86838 13.866 3.55742 13.8904 3.24415C13.9147 2.93088 14.0562 2.63827 14.2865 2.42458C14.5169 2.21089 14.8193 2.0918 15.1335 2.09102ZM18.5 12.5002C17.61 12.5002 16.74 12.7641 15.9999 13.2586C15.2599 13.7531 14.6831 14.4559 14.3425 15.2781C14.0019 16.1004 13.9128 17.0052 14.0865 17.8781C14.2601 18.751 14.6887 19.5529 15.318 20.1822C15.9474 20.8115 16.7492 21.2401 17.6221 21.4138C18.495 21.5874 19.3998 21.4983 20.2221 21.1577C21.0443 20.8171 21.7471 20.2403 22.2416 19.5003C22.7361 18.7603 23 17.8902 23 17.0002C23 15.8067 22.5259 14.6622 21.682 13.8182C20.8381 12.9743 19.6935 12.5002 18.5 12.5002ZM18.5 21.0002C17.7089 21.0002 16.9355 20.7656 16.2777 20.3261C15.6199 19.8866 15.1072 19.2619 14.8045 18.531C14.5017 17.8 14.4225 16.9958 14.5769 16.2199C14.7312 15.4439 15.1122 14.7312 15.6716 14.1718C16.231 13.6124 16.9437 13.2314 17.7196 13.0771C18.4956 12.9227 19.2998 13.0019 20.0307 13.3047C20.7616 13.6075 21.3864 14.1201 21.8259 14.7779C22.2654 15.4357 22.5 16.2091 22.5 17.0002C22.4988 18.0607 22.077 19.0774 21.3271 19.8273C20.5772 20.5772 19.5605 20.999 18.5 21.0002ZM5.5 12.5002C4.60998 12.5002 3.73995 12.7641 2.99993 13.2586C2.25991 13.7531 1.68313 14.4559 1.34254 15.2781C1.00195 16.1004 0.912831 17.0052 1.08646 17.8781C1.2601 18.751 1.68868 19.5529 2.31802 20.1822C2.94735 20.8115 3.74918 21.2401 4.62209 21.4138C5.49501 21.5874 6.39981 21.4983 7.22207 21.1577C8.04434 20.8171 8.74715 20.2403 9.24161 19.5003C9.73608 18.7603 10 17.8902 10 17.0002C10 16.4093 9.8836 15.8241 9.65746 15.2781C9.43131 14.7322 9.09984 14.2361 8.68198 13.8182C8.26411 13.4004 7.76804 13.0689 7.22207 12.8428C6.67611 12.6166 6.09095 12.5002 5.5 12.5002ZM5.5 21.0002C4.70887 21.0002 3.93551 20.7656 3.27772 20.3261C2.61992 19.8866 2.10723 19.2619 1.80448 18.531C1.50173 17.8 1.42252 16.9958 1.57686 16.2199C1.7312 15.4439 2.11216 14.7312 2.67157 14.1718C3.23098 13.6124 3.94371 13.2314 4.71964 13.0771C5.49556 12.9227 6.29983 13.0019 7.03073 13.3047C7.76164 13.6075 8.38635 14.1201 8.82588 14.7779C9.2654 15.4357 9.5 16.2091 9.5 17.0002C9.49881 18.0607 9.077 19.0774 8.32711 19.8273C7.57722 20.5772 6.5605 20.999 5.5 21.0002ZM12.9561 8.56952L17.0261 12.0461L18.2725 10.8002L13.7109 6.23752C13.2823 5.82852 12.7126 5.60034 12.1201 5.60034C11.5276 5.60034 10.9579 5.82852 10.5293 6.23752L8.0742 8.69162C7.72759 9.03892 7.53293 9.50955 7.53293 10.0002C7.53293 10.4909 7.72759 10.9615 8.0742 11.3088L10.876 14.1096L11.1592 19.2502H13.0732V13.2268L10.9814 10.5441L12.9561 8.56952ZM12.5732 13.3986V18.7502H11.6318L11.3643 13.8908L8.4277 10.9553C8.17498 10.7017 8.03308 10.3583 8.03308 10.0003C8.03308 9.64231 8.17498 9.2989 8.4277 9.04532L10.8828 6.59122C11.2158 6.2723 11.659 6.09427 12.1201 6.09427C12.5812 6.09427 13.0244 6.2723 13.3574 6.59122L17.5654 10.8002L16.999 11.3666L12.9287 7.89022L10.3154 10.5035L12.5732 13.3986Z" fill="black"/>
</svg>
