<svg width="24" height="24" viewBox="0 0 24 24" fill="none" xmlns="http://www.w3.org/2000/svg">
<path d="M12 4.75C12.3461 4.75 12.6845 4.64737 12.9723 4.45507C13.26 4.26278 13.4843 3.98947 13.6168 3.6697C13.7492 3.34993 13.7839 2.99806 13.7164 2.65859C13.6489 2.31913 13.4822 2.00731 13.2374 1.76256C12.9927 1.51782 12.6809 1.35115 12.3414 1.28363C12.0019 1.2161 11.6501 1.25076 11.3303 1.38321C11.0105 1.51566 10.7372 1.73997 10.5449 2.02775C10.3526 2.31554 10.25 2.65388 10.25 3C10.25 3.46413 10.4344 3.90925 10.7626 4.23744C11.0908 4.56563 11.5359 4.75 12 4.75ZM16.0767 7.5882C14.9955 6.50706 13.529 5.89969 12 5.89969C10.471 5.89969 9.00455 6.50706 7.92331 7.5882L7.64191 7.87V16.493H9.60421V24H11.1042V16.493H12.8958V24H14.3958V16.493H16.3581V7.87L16.0767 7.5882Z" fill="black"/>
</svg>
