<svg width="24" height="24" viewBox="0 0 24 24" fill="none" xmlns="http://www.w3.org/2000/svg">
<path d="M11.2917 5.49463C11.6378 5.49463 11.9762 5.39199 12.2639 5.1997C12.5517 5.00741 12.776 4.7341 12.9085 4.41433C13.0409 4.09455 13.0756 3.74269 13.0081 3.40322C12.9405 3.06375 12.7739 2.75193 12.5291 2.50719C12.2844 2.26245 11.9726 2.09578 11.6331 2.02826C11.2936 1.96073 10.9418 1.99539 10.622 2.12784C10.3022 2.26029 10.0289 2.4846 9.83663 2.77238C9.64433 3.06017 9.5417 3.39851 9.5417 3.74463C9.5417 4.20876 9.72607 4.65388 10.0543 4.98207C10.3825 5.31026 10.8276 5.49463 11.2917 5.49463ZM11.2917 2.49463C11.5389 2.49463 11.7806 2.56794 11.9862 2.70529C12.1917 2.84264 12.3519 3.03787 12.4465 3.26628C12.5412 3.49468 12.5659 3.74602 12.5177 3.98849C12.4694 4.23097 12.3504 4.4537 12.1756 4.62851C12.0008 4.80333 11.778 4.92238 11.5356 4.97061C11.2931 5.01884 11.0418 4.99409 10.8133 4.89948C10.5849 4.80487 10.3897 4.64465 10.2524 4.43909C10.115 4.23353 10.0417 3.99186 10.0417 3.74463C10.0421 3.41322 10.1739 3.0955 10.4082 2.86116C10.6426 2.62682 10.9603 2.495 11.2917 2.49463ZM17.6865 14.9986C17.5773 14.504 17.3025 14.0615 16.9076 13.7443C16.5127 13.427 16.0213 13.2541 15.5148 13.2541H13.6248V9.49983C13.6248 8.83679 13.3614 8.2009 12.8926 7.73206C12.4237 7.26322 11.7878 6.99983 11.1248 6.99983H10.5C10.1022 6.99983 9.72064 7.15787 9.43934 7.43917C9.15803 7.72047 9 8.10201 9 8.49983V13.9998C9 14.5303 9.21071 15.039 9.58579 15.414C9.96086 15.7891 10.4696 15.9998 11 15.9998H15.1043L16.42 21.9998H19.2325L17.6865 14.9986ZM15.5927 15.8927L15.5066 15.4998H11C10.6023 15.4994 10.221 15.3412 9.93984 15.06C9.65863 14.7788 9.50045 14.3975 9.5 13.9998V8.49983C9.50029 8.2347 9.60574 7.98052 9.79321 7.79304C9.98069 7.60557 10.2349 7.50012 10.5 7.49983H11.125C11.6552 7.50044 12.1636 7.71135 12.5385 8.08629C12.9135 8.46123 13.1244 8.96958 13.125 9.49983V13.7541H15.515C15.9082 13.7521 16.29 13.8855 16.5966 14.1317C16.9031 14.3779 17.1156 14.7221 17.1984 15.1064L18.61 21.4998H16.822L15.5927 15.8927ZM13.7686 18.0047H10.7529C9.75872 18.0035 8.80561 17.608 8.10262 16.905C7.39963 16.202 7.00414 15.2489 7.0029 14.2547V7.25473C7.0029 7.18843 6.97656 7.12484 6.92968 7.07795C6.88279 7.03107 6.8192 7.00473 6.7529 7.00473C6.6866 7.00473 6.62301 7.03107 6.57612 7.07795C6.52924 7.12484 6.5029 7.18843 6.5029 7.25473V14.2547C6.50409 15.3815 6.95224 16.4618 7.74901 17.2586C8.54578 18.0554 9.62609 18.5035 10.7529 18.5047H13.7686C13.8349 18.5047 13.8985 18.4784 13.9454 18.4315C13.9923 18.3846 14.0186 18.321 14.0186 18.2547C14.0186 18.1884 13.9923 18.1248 13.9454 18.078C13.8985 18.0311 13.8349 18.0047 13.7686 18.0047Z" fill="black"/>
</svg>
