<svg width="24" height="24" viewBox="0 0 24 24" fill="none" xmlns="http://www.w3.org/2000/svg">
<path d="M17.5 10C18.1922 10 18.8689 9.79473 19.4445 9.41015C20.0201 9.02556 20.4687 8.47894 20.7336 7.83939C20.9985 7.19985 21.0678 6.49612 20.9327 5.81719C20.7977 5.13825 20.4644 4.51461 19.9749 4.02513C19.4854 3.53564 18.8617 3.2023 18.1828 3.06725C17.5039 2.9322 16.8001 3.00152 16.1606 3.26642C15.5211 3.53133 14.9744 3.97993 14.5899 4.55551C14.2053 5.13108 14 5.80777 14 6.5C14.0011 7.42792 14.3702 8.31751 15.0264 8.97365C15.6825 9.62978 16.5721 9.99889 17.5 10ZM17.5 5C17.7967 5 18.0867 5.08798 18.3334 5.2528C18.58 5.41762 18.7723 5.65189 18.8858 5.92598C18.9993 6.20007 19.0291 6.50167 18.9712 6.79264C18.9133 7.08361 18.7704 7.35088 18.5607 7.56066C18.3509 7.77044 18.0836 7.9133 17.7926 7.97118C17.5017 8.02906 17.2001 7.99935 16.926 7.88582C16.6519 7.77229 16.4176 7.58003 16.2528 7.33336C16.088 7.08668 16 6.79667 16 6.5C16.0005 6.10231 16.1586 5.72105 16.4398 5.43984C16.721 5.15863 17.1023 5.00045 17.5 5ZM23.762 14.2908C22.225 12.7561 20.1776 11.8396 18.0091 11.7155C15.8406 11.5914 13.7021 12.2683 12 13.6176C10.2979 12.2683 8.15937 11.5914 5.99087 11.7155C3.82237 11.8396 1.77504 12.7561 0.238 14.2908L0 14.5289V20H24V14.5289L23.762 14.2908ZM11 18H2V15.38C3.24907 14.297 4.84681 13.7008 6.5 13.7008C8.15319 13.7008 9.75093 14.297 11 15.38V18ZM22 18H13V15.38C14.2491 14.297 15.8468 13.7008 17.5 13.7008C19.1532 13.7008 20.7509 14.297 22 15.38V18ZM6.5 10C7.19223 10 7.86892 9.79473 8.4445 9.41015C9.02007 9.02556 9.46867 8.47894 9.73358 7.83939C9.99849 7.19985 10.0678 6.49612 9.93275 5.81719C9.7977 5.13825 9.46436 4.51461 8.97487 4.02513C8.48539 3.53564 7.86175 3.2023 7.18282 3.06725C6.50388 2.9322 5.80015 3.00152 5.16061 3.26642C4.52107 3.53133 3.97444 3.97993 3.58986 4.55551C3.20527 5.13108 3 5.80777 3 6.5C3.00111 7.42792 3.37022 8.31751 4.02635 8.97365C4.68249 9.62978 5.57208 9.99889 6.5 10ZM6.5 5C6.79667 5 7.08668 5.08798 7.33336 5.2528C7.58003 5.41762 7.77229 5.65189 7.88582 5.92598C7.99935 6.20007 8.02906 6.50167 7.97118 6.79264C7.9133 7.08361 7.77044 7.35088 7.56066 7.56066C7.35088 7.77044 7.08361 7.9133 6.79264 7.97118C6.50166 8.02906 6.20006 7.99935 5.92597 7.88582C5.65189 7.77229 5.41762 7.58003 5.2528 7.33336C5.08797 7.08668 5 6.79667 5 6.5C5.00045 6.10231 5.15863 5.72105 5.43984 5.43984C5.72104 5.15863 6.10231 5.00045 6.5 5Z" fill="black"/>
</svg>
