<svg width="24" height="24" viewBox="0 0 24 24" fill="none" xmlns="http://www.w3.org/2000/svg">
<path d="M7.00003 5.6501C7.37581 5.6501 7.74316 5.53867 8.05561 5.32989C8.36806 5.12112 8.61159 4.82438 8.7554 4.4772C8.8992 4.13002 8.93683 3.74799 8.86352 3.37943C8.79021 3.01086 8.60925 2.67232 8.34353 2.4066C8.07781 2.14088 7.73926 1.95992 7.3707 1.88661C7.00213 1.81329 6.62011 1.85092 6.27293 1.99473C5.92575 2.13853 5.62901 2.38206 5.42023 2.69451C5.21146 3.00697 5.10003 3.37431 5.10003 3.7501C5.10003 4.25401 5.3002 4.73728 5.65652 5.0936C6.01284 5.44992 6.49612 5.6501 7.00003 5.6501ZM7.00003 2.7501C7.19781 2.7501 7.39115 2.80875 7.5556 2.91863C7.72005 3.02851 7.84822 3.18469 7.92391 3.36741C7.99959 3.55014 8.0194 3.75121 7.98081 3.94519C7.94223 4.13917 7.84699 4.31735 7.70713 4.45721C7.56728 4.59706 7.3891 4.6923 7.19512 4.73088C7.00114 4.76947 6.80007 4.74967 6.61734 4.67398C6.43462 4.59829 6.27844 4.47012 6.16856 4.30567C6.05868 4.14122 6.00003 3.94788 6.00003 3.7501C6.00032 3.48497 6.10577 3.23079 6.29324 3.04331C6.48071 2.85584 6.7349 2.75039 7.00003 2.7501ZM17 5.6501C17.3758 5.6501 17.7432 5.53867 18.0556 5.32989C18.3681 5.12112 18.6116 4.82438 18.7554 4.4772C18.8992 4.13002 18.9368 3.74799 18.8635 3.37943C18.7902 3.01086 18.6092 2.67232 18.3435 2.4066C18.0778 2.14088 17.7393 1.95992 17.3707 1.88661C17.0021 1.81329 16.6201 1.85092 16.2729 1.99473C15.9257 2.13853 15.629 2.38206 15.4202 2.69451C15.2115 3.00697 15.1 3.37431 15.1 3.7501C15.1 4.25401 15.3002 4.73728 15.6565 5.0936C16.0128 5.44992 16.4961 5.6501 17 5.6501ZM17 2.7501C17.1978 2.7501 17.3911 2.80875 17.5556 2.91863C17.72 3.02851 17.8482 3.18469 17.9239 3.36741C17.9996 3.55014 18.0194 3.75121 17.9808 3.94519C17.9422 4.13917 17.847 4.31735 17.7071 4.45721C17.5673 4.59706 17.3891 4.6923 17.1951 4.73088C17.0011 4.76947 16.8001 4.74967 16.6173 4.67398C16.4346 4.59829 16.2784 4.47012 16.1686 4.30567C16.0587 4.14122 16 3.94788 16 3.7501C16.0003 3.48497 16.1058 3.23079 16.2932 3.04331C16.4807 2.85584 16.7349 2.75039 17 2.7501ZM7.00003 7.0001C6.31307 6.9982 5.63257 7.1326 4.99792 7.39552C4.36327 7.65844 3.78708 8.04466 3.30273 8.5318L3.00983 8.8248V16.0001H4.65003V22.0001H9.35003V16.0001H10.99V8.8248L10.6971 8.5318C10.2128 8.04468 9.63664 7.65848 9.00203 7.39556C8.36741 7.13264 7.68695 6.99823 7.00003 7.0001ZM9.99003 15.0001H8.35003V21.0001H5.65003V15.0001H4.01003V9.239C4.40267 8.84632 4.86881 8.53483 5.38183 8.32232C5.89486 8.1098 6.44473 8.00042 7.00003 8.00042C7.55533 8.00042 8.10519 8.1098 8.61822 8.32232C9.13125 8.53483 9.59739 8.84632 9.99003 9.239V15.0001ZM19.6023 8.1901L19.4109 7.9986C18.7712 7.35955 17.904 7.00059 16.9998 7.00059C16.0956 7.00059 15.2284 7.35955 14.5887 7.9986L14.3973 8.1901L11.8154 17.0001H14.65V22.0001H19.35V17.0001H22.185L19.6023 8.1901ZM18.35 16.0001V21.0001H15.65V16.0001H13.15L15.2846 8.716L15.2946 8.706C15.7467 8.25424 16.3597 8.00043 16.9988 8.00032C17.6379 8.0002 18.251 8.2538 18.7032 8.7054L18.714 8.7162L20.8494 16.0001H18.35Z" fill="black"/>
</svg>
