<svg width="24" height="24" viewBox="0 0 24 24" fill="none" xmlns="http://www.w3.org/2000/svg">
<path d="M18.093 7.96646C17.5271 7.96575 16.9666 8.07686 16.4438 8.29342C15.921 8.50997 15.4461 8.82771 15.0465 9.22836V14.9999H16.3117V19.9999H19.8742V14.9999H21.14V9.22836C20.7403 8.82765 20.2653 8.50988 19.7424 8.29332C19.2195 8.07676 18.659 7.96568 18.093 7.96646ZM20.64 14.4999H19.3742V19.4999H16.8117V14.4999H15.5465V9.44286C16.2457 8.81424 17.1527 8.46646 18.093 8.46646C19.0332 8.46646 19.9403 8.81424 20.6395 9.44286L20.64 14.4999ZM2.86047 9.22836V14.9999H4.12577V19.9999H7.68827V14.9999H8.95347V9.22836C8.5534 8.82829 8.07845 8.51093 7.55573 8.29442C7.03301 8.0779 6.47276 7.96646 5.90697 7.96646C5.34119 7.96646 4.78094 8.0779 4.25822 8.29442C3.7355 8.51093 3.26055 8.82829 2.86047 9.22836ZM8.45347 14.4999H7.18827V19.4999H4.62577V14.4999H3.36047V9.44286C4.0597 8.81424 4.96672 8.46646 5.90697 8.46646C6.84723 8.46646 7.75425 8.81424 8.45347 9.44286V14.4999ZM18.0935 6.88916C18.3901 6.88916 18.6802 6.80119 18.9268 6.63637C19.1735 6.47154 19.3658 6.23727 19.4793 5.96319C19.5928 5.6891 19.6225 5.3875 19.5647 5.09653C19.5068 4.80555 19.3639 4.53828 19.1541 4.3285C18.9444 4.11872 18.6771 3.97586 18.3861 3.91798C18.0951 3.86011 17.7935 3.88981 17.5194 4.00334C17.2454 4.11687 17.0111 4.30913 16.8463 4.55581C16.6814 4.80248 16.5935 5.09249 16.5935 5.38916C16.5935 5.7869 16.7514 6.16835 17.0326 6.44964C17.3138 6.73093 17.6952 6.88903 18.093 6.88916H18.0935ZM18.0935 4.38916C18.2913 4.38916 18.4846 4.44781 18.649 4.55769C18.8135 4.66757 18.9417 4.82375 19.0174 5.00648C19.093 5.1892 19.1128 5.39027 19.0743 5.58425C19.0357 5.77823 18.9404 5.95642 18.8006 6.09627C18.6607 6.23612 18.4825 6.33136 18.2886 6.36995C18.0946 6.40853 17.8935 6.38873 17.7108 6.31304C17.5281 6.23735 17.3719 6.10918 17.262 5.94473C17.1521 5.78028 17.0935 5.58694 17.0935 5.38916C17.0938 5.12413 17.1992 4.87003 17.3865 4.68258C17.5739 4.49513 17.8279 4.38961 18.093 4.38916H18.0935ZM5.90747 6.88916C6.20415 6.88916 6.49415 6.80119 6.74083 6.63637C6.9875 6.47154 7.17976 6.23727 7.29329 5.96319C7.40682 5.6891 7.43653 5.3875 7.37865 5.09653C7.32077 4.80555 7.17791 4.53828 6.96813 4.3285C6.75836 4.11872 6.49108 3.97586 6.20011 3.91798C5.90914 3.86011 5.60754 3.88981 5.33345 4.00334C5.05936 4.11687 4.82509 4.30913 4.66027 4.55581C4.49545 4.80248 4.40747 5.09249 4.40747 5.38916C4.40747 5.7869 4.56544 6.16835 4.84664 6.44964C5.12783 6.73093 5.50924 6.88903 5.90697 6.88916H5.90747ZM5.90747 4.38916C6.10525 4.38916 6.29859 4.44781 6.46304 4.55769C6.62749 4.66757 6.75567 4.82375 6.83135 5.00648C6.90704 5.1892 6.92684 5.39027 6.88826 5.58425C6.84967 5.77823 6.75443 5.95642 6.61458 6.09627C6.47473 6.23612 6.29654 6.33136 6.10256 6.36995C5.90858 6.40853 5.70752 6.38873 5.52479 6.31304C5.34206 6.23735 5.18589 6.10918 5.076 5.94473C4.96612 5.78028 4.90747 5.58694 4.90747 5.38916C4.90776 5.12412 5.01315 4.87001 5.20051 4.68255C5.38788 4.49509 5.64193 4.38958 5.90697 4.38916H5.90747Z" fill="black"/>
</svg>
