<svg width="24" height="24" viewBox="0 0 24 24" fill="none" xmlns="http://www.w3.org/2000/svg">
<path d="M11.2917 5.49463C11.6378 5.49463 11.9762 5.39199 12.2639 5.1997C12.5517 5.00741 12.776 4.7341 12.9085 4.41433C13.0409 4.09455 13.0756 3.74269 13.0081 3.40322C12.9405 3.06375 12.7739 2.75193 12.5291 2.50719C12.2844 2.26245 11.9726 2.09578 11.6331 2.02826C11.2936 1.96073 10.9418 1.99539 10.622 2.12784C10.3022 2.26029 10.0289 2.4846 9.83662 2.77238C9.64433 3.06017 9.54169 3.39851 9.54169 3.74463C9.54169 4.20876 9.72607 4.65388 10.0543 4.98207C10.3824 5.31026 10.8276 5.49463 11.2917 5.49463ZM13.7236 18.0146H10.0273C9.22877 18.0139 8.46316 17.6963 7.89852 17.1317C7.33388 16.5671 7.01634 15.8015 7.01559 15.0029V7.76443C7.01559 7.56552 6.93658 7.37475 6.79592 7.2341C6.65527 7.09345 6.46451 7.01443 6.26559 7.01443C6.06668 7.01443 5.87592 7.09345 5.73526 7.2341C5.59461 7.37475 5.51559 7.56552 5.51559 7.76443V15.0027C5.5171 16.1988 5.99293 17.3455 6.83871 18.1913C7.68449 19.0371 8.83118 19.5129 10.0273 19.5144H13.7236C13.9225 19.5144 14.1133 19.4354 14.2539 19.2948C14.3946 19.1541 14.4736 18.9633 14.4736 18.7644C14.4736 18.5655 14.3946 18.3748 14.2539 18.2341C14.1133 18.0934 13.9225 18.0144 13.7236 18.0144V18.0146ZM17.44 15.5698C17.34 15.1259 17.0925 14.7289 16.7379 14.4437C16.3832 14.1586 15.9424 14.0021 15.4873 13.9998H13.832V9.41643C13.832 9.09907 13.7695 8.78482 13.648 8.49161C13.5266 8.19841 13.3486 7.932 13.1242 7.7076C12.8997 7.4832 12.6333 7.30519 12.3401 7.18375C12.0469 7.06231 11.7327 6.99982 11.4153 6.99983H10.4333C10.0532 6.99983 9.68859 7.15084 9.4198 7.41963C9.151 7.68843 8.99999 8.053 8.99999 8.43313V14.6664C8.99998 14.8415 9.03446 15.0149 9.10146 15.1767C9.16846 15.3385 9.26666 15.4855 9.39047 15.6093C9.51428 15.7331 9.66127 15.8313 9.82304 15.8983C9.98481 15.9653 10.1582 15.9998 10.3333 15.9998H15.4873L16.8073 21.9998H18.855L17.44 15.5698Z" fill="black"/>
</svg>
