<svg width="24" height="24" viewBox="0 0 24 24" fill="none" xmlns="http://www.w3.org/2000/svg">
<path d="M12 5.6501C12.3758 5.6501 12.7432 5.53867 13.0556 5.32989C13.3681 5.12112 13.6116 4.82438 13.7554 4.4772C13.8992 4.13002 13.9368 3.74799 13.8635 3.37943C13.7902 3.01086 13.6093 2.67232 13.3435 2.4066C13.0778 2.14088 12.7393 1.95992 12.3707 1.88661C12.0021 1.81329 11.6201 1.85092 11.2729 1.99473C10.9258 2.13853 10.629 2.38206 10.4202 2.69451C10.2115 3.00697 10.1 3.37431 10.1 3.7501C10.1 4.25401 10.3002 4.73728 10.6565 5.0936C11.0129 5.44992 11.4961 5.6501 12 5.6501ZM12 2.7501C12.1978 2.7501 12.3912 2.80875 12.5556 2.91863C12.7201 3.02851 12.8482 3.18469 12.9239 3.36741C12.9996 3.55014 13.0194 3.75121 12.9808 3.94519C12.9422 4.13917 12.847 4.31735 12.7071 4.45721C12.5673 4.59706 12.3891 4.6923 12.1951 4.73088C12.0012 4.76947 11.8001 4.74967 11.6174 4.67398C11.4346 4.59829 11.2785 4.47012 11.1686 4.30567C11.0587 4.14122 11 3.94788 11 3.7501C11.0003 3.48497 11.1058 3.23079 11.2933 3.04331C11.4807 2.85584 11.7349 2.75039 12 2.7501ZM1.68054 7.0001V8.686C1.68054 8.9365 1.77455 9.17789 1.94399 9.3624C2.11343 9.54691 2.34594 9.66111 2.59554 9.6824L9.00004 10.2292V23.0001H15V10.2292L21.4045 9.6824C21.6541 9.66111 21.8867 9.54691 22.0561 9.3624C22.2255 9.17789 22.3195 8.9365 22.3195 8.686V7.0001H1.68054ZM21.32 8.686L14.9154 9.2329L14 9.311V22.0001H12.5V14.5001H11.5V22.0001H10V9.311L9.08514 9.2329L2.68054 8.686V8.0001H21.32V8.686Z" fill="black"/>
</svg>
