<svg width="24" height="24" viewBox="0 0 24 24" fill="none" xmlns="http://www.w3.org/2000/svg">
<path d="M11.2917 5.49463C11.6378 5.49463 11.9762 5.39199 12.2639 5.1997C12.5517 5.00741 12.776 4.7341 12.9085 4.41433C13.0409 4.09455 13.0756 3.74269 13.0081 3.40322C12.9405 3.06375 12.7739 2.75193 12.5291 2.50719C12.2844 2.26245 11.9726 2.09578 11.6331 2.02826C11.2936 1.96073 10.9418 1.99539 10.622 2.12784C10.3022 2.26029 10.0289 2.4846 9.83663 2.77238C9.64434 3.06017 9.5417 3.39851 9.5417 3.74463C9.5417 4.20876 9.72607 4.65388 10.0543 4.98207C10.3825 5.31026 10.8276 5.49463 11.2917 5.49463ZM17.44 15.5698C17.3401 15.1259 17.0925 14.7289 16.7379 14.4437C16.3832 14.1586 15.9424 14.0021 15.4873 13.9998H14.5V9.99983C14.5 9.20418 14.1839 8.44112 13.6213 7.87851C13.0587 7.3159 12.2956 6.99983 11.5 6.99983H10.5C10.1022 6.99983 9.72064 7.15787 9.43934 7.43917C9.15804 7.72047 9 8.10201 9 8.49983V14.9998C9 15.265 9.10536 15.5194 9.29289 15.7069C9.48043 15.8945 9.73478 15.9998 10 15.9998H15.4873L16.8073 21.9998H18.855L17.44 15.5698ZM12.5 13.9998H11V8.99983H11.5C11.7651 9.00012 12.0193 9.10557 12.2068 9.29304C12.3943 9.48052 12.4997 9.7347 12.5 9.99983V13.9998ZM13.57 17.9998H10C9.20462 17.999 8.44206 17.6826 7.87964 17.1202C7.31722 16.5578 7.00087 15.7952 7 14.9998V7.99983C7 7.73461 6.89464 7.48026 6.70711 7.29272C6.51957 7.10519 6.26522 6.99983 6 6.99983C5.73478 6.99983 5.48043 7.10519 5.29289 7.29272C5.10536 7.48026 5 7.73461 5 7.99983V14.9998C5.00156 16.3254 5.52885 17.5963 6.46619 18.5336C7.40353 19.471 8.6744 19.9983 10 19.9998H13.57C13.8352 19.9998 14.0896 19.8945 14.2771 19.7069C14.4646 19.5194 14.57 19.265 14.57 18.9998C14.57 18.7346 14.4646 18.4803 14.2771 18.2927C14.0896 18.1052 13.8352 17.9998 13.57 17.9998Z" fill="black"/>
</svg>
