<svg width="24" height="24" viewBox="0 0 24 24" fill="none" xmlns="http://www.w3.org/2000/svg">
<path d="M12 5.6167C12.5175 5.61674 13.0235 5.46331 13.4538 5.17581C13.8842 4.8883 14.2196 4.47964 14.4177 4.00151C14.6157 3.52337 14.6676 2.99723 14.5666 2.48963C14.4657 1.98203 14.2165 1.51576 13.8506 1.14979C13.4846 0.783814 13.0184 0.534578 12.5108 0.433596C12.0032 0.332614 11.477 0.384421 10.9989 0.582467C10.5207 0.780513 10.112 1.1159 9.82451 1.54622C9.53697 1.97654 9.3835 2.48246 9.3835 3C9.38437 3.69369 9.66031 4.35872 10.1508 4.84925C10.6413 5.33978 11.3063 5.61578 12 5.6167ZM12 1.3167C12.333 1.31666 12.6585 1.41536 12.9353 1.60032C13.2122 1.78527 13.428 2.04817 13.5554 2.35578C13.6829 2.66338 13.7162 3.00187 13.6513 3.32843C13.5863 3.65499 13.426 3.95497 13.1906 4.19041C12.9551 4.42585 12.6552 4.58619 12.3286 4.65115C12.0021 4.71611 11.6636 4.68277 11.356 4.55535C11.0484 4.42793 10.7854 4.21215 10.6005 3.9353C10.4155 3.65845 10.3168 3.33296 10.3168 3C10.3173 2.55372 10.4948 2.12584 10.8103 1.81026C11.1259 1.49467 11.5537 1.31713 12 1.3166V1.3167ZM17 9.3478L16.707 9.0548C15.4577 7.80814 13.7649 7.10799 12 7.10799C10.2351 7.10799 8.54228 7.80814 7.293 9.0548L7 9.3477V13H17V9.3478ZM16.0667 12.0668H7.9333V9.7391C7.9454 9.7285 8.0554 9.6204 8.0677 9.6102C9.12911 8.60283 10.5367 8.04122 12 8.04122C13.4633 8.04122 14.8709 8.60283 15.9323 9.6102C15.9446 9.6202 16.0546 9.7285 16.0667 9.7391V12.0668ZM20 17.7656C20.3183 17.7656 20.6295 17.6712 20.8941 17.4944C21.1588 17.3175 21.3651 17.0662 21.4869 16.7721C21.6087 16.478 21.6406 16.1544 21.5785 15.8422C21.5164 15.53 21.3631 15.2433 21.138 15.0182C20.9129 14.7931 20.6262 14.6398 20.314 14.5777C20.0018 14.5156 19.6782 14.5475 19.3841 14.6693C19.09 14.7911 18.8387 14.9974 18.6618 15.2621C18.485 15.5267 18.3906 15.8379 18.3906 16.1562C18.3906 16.583 18.5602 16.9924 18.862 17.2942C19.1638 17.596 19.5732 17.7656 20 17.7656ZM20 15.3969C20.1502 15.3969 20.297 15.4414 20.4219 15.5248C20.5468 15.6083 20.6442 15.7269 20.7017 15.8656C20.7592 16.0044 20.7742 16.1571 20.7449 16.3044C20.7156 16.4517 20.6433 16.5871 20.5371 16.6933C20.4309 16.7995 20.2955 16.8718 20.1482 16.9011C20.0009 16.9304 19.8482 16.9154 19.7094 16.8579C19.5707 16.8004 19.4521 16.703 19.3686 16.5781C19.2852 16.4532 19.2407 16.3064 19.2407 16.1562C19.2409 15.9549 19.3209 15.7619 19.4633 15.6195C19.6057 15.4771 19.7987 15.3971 20 15.3969ZM22.8242 19.7183C22.0746 18.9703 21.0589 18.5502 20 18.5502C18.9411 18.5502 17.9254 18.9703 17.1758 19.7183L17 19.8941V22H23V19.8941L22.8242 19.7183ZM22.15 21.15H17.85V20.2485C18.4333 19.7035 19.2017 19.4003 20 19.4003C20.7983 19.4003 21.5667 19.7035 22.15 20.2485V21.15ZM10.3906 16.1562C10.3906 16.4745 10.485 16.7857 10.6618 17.0504C10.8386 17.315 11.09 17.5213 11.384 17.6432C11.6781 17.765 12.0017 17.7969 12.3139 17.7348C12.6261 17.6727 12.9129 17.5194 13.138 17.2944C13.3631 17.0693 13.5164 16.7825 13.5785 16.4703C13.6406 16.1581 13.6087 15.8345 13.4869 15.5404C13.3651 15.2463 13.1588 14.995 12.8941 14.8181C12.6295 14.6413 12.3183 14.5469 12 14.5469C11.5732 14.5469 11.1639 14.7165 10.862 15.0183C10.5602 15.3201 10.3907 15.7294 10.3906 16.1562ZM12.7594 16.1562C12.7594 16.3064 12.7149 16.4532 12.6315 16.5781C12.548 16.703 12.4294 16.8004 12.2907 16.8579C12.1519 16.9154 11.9992 16.9304 11.8519 16.9011C11.7046 16.8718 11.5693 16.7995 11.4631 16.6933C11.3568 16.5871 11.2845 16.4518 11.2552 16.3045C11.2259 16.1572 11.2409 16.0045 11.2984 15.8657C11.3559 15.7269 11.4532 15.6083 11.5781 15.5249C11.703 15.4414 11.8498 15.3969 12 15.3969C12.2013 15.3971 12.3944 15.4771 12.5368 15.6195C12.6791 15.7618 12.7592 15.9549 12.7594 16.1562ZM12 18.55C11.4755 18.5491 10.956 18.6518 10.4714 18.8523C9.9867 19.0527 9.54641 19.347 9.1758 19.7181L9 19.8941V22H15V19.8941L14.8242 19.7183C14.4536 19.3471 14.0133 19.0529 13.5287 18.8524C13.044 18.6519 12.5245 18.5491 12 18.55ZM14.15 21.15H9.85V20.2485C10.4333 19.7035 11.2017 19.4003 12 19.4003C12.7983 19.4003 13.5667 19.7035 14.15 20.2485V21.15ZM4 17.7656C4.31831 17.7656 4.62947 17.6712 4.89413 17.4944C5.1588 17.3175 5.36508 17.0662 5.48689 16.7721C5.6087 16.478 5.64057 16.1544 5.57848 15.8422C5.51638 15.53 5.3631 15.2433 5.13802 15.0182C4.91294 14.7931 4.62617 14.6398 4.31398 14.5777C4.00179 14.5156 3.67819 14.5475 3.38411 14.6693C3.09003 14.7911 2.83868 14.9974 2.66183 15.2621C2.48499 15.5267 2.3906 15.8379 2.3906 16.1562C2.3906 16.583 2.56016 16.9924 2.86198 17.2942C3.1638 17.596 3.57316 17.7656 4 17.7656ZM4 15.3969C4.1502 15.3969 4.29704 15.4414 4.42194 15.5248C4.54684 15.6083 4.64419 15.7269 4.70167 15.8656C4.75916 16.0044 4.77421 16.1571 4.74491 16.3044C4.71561 16.4517 4.64329 16.5871 4.53708 16.6933C4.43087 16.7995 4.29555 16.8718 4.14823 16.9011C4.00091 16.9304 3.84821 16.9154 3.70944 16.8579C3.57068 16.8004 3.45208 16.703 3.36864 16.5781C3.2852 16.4532 3.24068 16.3064 3.2407 16.1562C3.24089 15.9549 3.32094 15.7619 3.4633 15.6195C3.60565 15.4771 3.79868 15.3971 4 15.3969ZM4 18.55C3.47552 18.5491 2.95602 18.6518 2.47136 18.8523C1.9867 19.0527 1.54641 19.347 1.1758 19.7181L1 19.8941V22H7V19.8941L6.8242 19.7183C6.4536 19.3471 6.01333 19.0529 5.52866 18.8524C5.044 18.6519 4.5245 18.5491 4 18.55ZM6.15 21.15H1.85V20.2485C2.43325 19.7035 3.20173 19.4003 4 19.4003C4.79827 19.4003 5.56675 19.7035 6.15 20.2485V21.15Z" fill="black"/>
</svg>
