<svg width="24" height="24" viewBox="0 0 24 24" fill="none" xmlns="http://www.w3.org/2000/svg">
<path d="M14.7969 7.2412L14.6055 7.05C14.2635 6.70759 13.8573 6.43595 13.4102 6.25061C12.9632 6.06528 12.484 5.96988 12 5.96988C11.516 5.96988 11.0368 6.06528 10.5897 6.25061C10.1427 6.43595 9.73651 6.70759 9.39449 7.05L9.20309 7.2409L6.37109 18H9.12729V24H11.1273V18H12.8727V24H14.8727V18H17.6289L14.7969 7.2412ZM8.96569 16L10.9913 8.3046C11.2828 8.08738 11.6366 7.9701 12.0001 7.97021C12.3637 7.97031 12.7174 8.08781 13.0088 8.3052L15.0343 16H8.96569ZM12 4.75C12.3461 4.75 12.6845 4.64737 12.9722 4.45507C13.26 4.26278 13.4843 3.98947 13.6168 3.6697C13.7492 3.34993 13.7839 2.99806 13.7164 2.65859C13.6488 2.31913 13.4822 2.00731 13.2374 1.76256C12.9927 1.51782 12.6809 1.35115 12.3414 1.28363C12.0019 1.2161 11.6501 1.25076 11.3303 1.38321C11.0105 1.51566 10.7372 1.73997 10.5449 2.02775C10.3526 2.31554 10.25 2.65388 10.25 3C10.25 3.46413 10.4344 3.90925 10.7626 4.23744C11.0907 4.56563 11.5359 4.75 12 4.75Z" fill="black"/>
</svg>
