<svg width="24" height="24" viewBox="0 0 24 24" fill="none" xmlns="http://www.w3.org/2000/svg">
<path d="M15.2272 7.10347L17.6314 5.63818L17.5647 8.45308H18.4353L18.3672 5.63727L20.7728 7.10347L21.2082 6.34947L18.7355 5.00067L21.2082 3.65068L20.7728 2.89667L18.3671 4.36427L18.4353 1.54688H17.5647L17.6315 4.36327L15.2272 2.89637L14.7918 3.65037L17.2645 5.00038L14.7918 6.34997L15.2272 7.10347ZM6.2906 5.64478C6.66638 5.64478 7.03373 5.53334 7.34618 5.32457C7.65864 5.11579 7.90216 4.81905 8.04597 4.47187C8.18978 4.12469 8.2274 3.74267 8.15409 3.3741C8.08078 3.00554 7.89982 2.66699 7.6341 2.40127C7.36838 2.13555 7.02984 1.95459 6.66127 1.88128C6.29271 1.80797 5.91068 1.8456 5.5635 1.9894C5.21632 2.13321 4.91958 2.37674 4.71081 2.68919C4.50203 3.00164 4.3906 3.36899 4.3906 3.74478C4.3906 4.24869 4.59078 4.73196 4.9471 5.08828C5.30342 5.4446 5.78669 5.64478 6.2906 5.64478ZM6.2906 2.74478C6.48838 2.74478 6.68172 2.80342 6.84617 2.91331C7.01062 3.02319 7.13879 3.17937 7.21448 3.36209C7.29017 3.54482 7.30997 3.74588 7.27139 3.93987C7.2328 4.13385 7.13756 4.31203 6.99771 4.45188C6.85785 4.59173 6.67967 4.68698 6.48569 4.72556C6.29171 4.76415 6.09064 4.74434 5.90792 4.66865C5.72519 4.59297 5.56901 4.46479 5.45913 4.30035C5.34925 4.1359 5.2906 3.94256 5.2906 3.74478C5.29089 3.47965 5.39634 3.22546 5.58381 3.03799C5.77129 2.85052 6.02547 2.74507 6.2906 2.74478ZM10.8729 10.6666L10.1606 8.88578C9.93791 8.32908 9.55352 7.85188 9.05702 7.51574C8.56052 7.17961 7.97468 6.99996 7.3751 6.99998H5.5C5.10218 6.99998 4.72064 7.15801 4.43934 7.43931C4.15804 7.72062 4 8.10215 4 8.49998V10.6666H2V18C2 18.7956 2.31607 19.5587 2.87868 20.1213C3.44129 20.6839 4.20435 21 5 21H19C19.7956 21 20.5587 20.6839 21.1213 20.1213C21.6839 19.5587 22 18.7956 22 18V10.6666H10.8729ZM5 8.66658C5 8.29908 5.498 7.99998 5.8656 7.99998H7.3756C7.77563 7.9986 8.16679 8.11782 8.49805 8.34209C8.82931 8.56635 9.08529 8.88525 9.2326 9.25718L9.7964 10.6666H5V8.66658ZM21 18C20.9994 18.5302 20.7885 19.0386 20.4135 19.4135C20.0386 19.7885 19.5302 19.9994 19 20H5C4.46975 19.9994 3.9614 19.7885 3.58646 19.4135C3.21152 19.0386 3.00061 18.5302 3 18V11.6666H21V18Z" fill="black"/>
</svg>
