<svg width="24" height="24" viewBox="0 0 24 24" fill="none" xmlns="http://www.w3.org/2000/svg">
<path d="M5.459 8.27539C5.80512 8.27539 6.14346 8.17276 6.43125 7.98046C6.71903 7.78817 6.94334 7.51486 7.07579 7.19509C7.20824 6.87532 7.2429 6.52345 7.17537 6.18398C7.10785 5.84452 6.94118 5.5327 6.69644 5.28795C6.4517 5.04321 6.13987 4.87654 5.80041 4.80902C5.46094 4.74149 5.10907 4.77615 4.7893 4.9086C4.46953 5.04106 4.19622 5.26536 4.00393 5.55314C3.81164 5.84093 3.709 6.17927 3.709 6.52539C3.709 6.98952 3.89337 7.43464 4.22156 7.76283C4.54975 8.09102 4.99487 8.27539 5.459 8.27539ZM21 12.5714V11.6899C21 10.5144 20.5859 9.37644 19.8303 8.47593C19.0747 7.57543 18.026 6.96993 16.8683 6.76579L12.0571 5.91749C11.6691 5.84863 11.2713 5.85697 10.8865 5.94205C10.5017 6.02712 10.1375 6.18726 9.81464 6.4133C9.49182 6.63933 9.21676 6.92681 9.00519 7.25929C8.79362 7.59177 8.64971 7.96272 8.5817 8.35089L8.2344 10.3209L4 9.57379L1.3408 9.10489L0.9935 11.0749L4 11.6047V17.9999H20V14.4259L21 14.6023L22.6592 14.8948L23.0065 12.9248L21 12.5714ZM18 15.9999H6V11.9574L7.8871 12.2901L18 14.0733V15.9999ZM19 12.2187L13.91 11.3213L10.2041 10.6677L10.5514 8.69769C10.5915 8.46637 10.7119 8.25662 10.8915 8.10537C11.0711 7.95413 11.2982 7.87109 11.533 7.87089C11.5923 7.87099 11.6515 7.87624 11.7099 7.88659L16.5211 8.73499C17.2161 8.8567 17.8459 9.21984 18.2994 9.76041C18.7529 10.301 19.001 10.9843 19 11.6899V12.2187Z" fill="black"/>
</svg>
