<svg width="24" height="24" viewBox="0 0 24 24" fill="none" xmlns="http://www.w3.org/2000/svg">
<path d="M17.625 9.89564C18.2967 9.89566 18.9532 9.69651 19.5117 9.32337C20.0702 8.95023 20.5054 8.41987 20.7625 7.79934C21.0195 7.17882 21.0868 6.49601 20.9558 5.83726C20.8247 5.17851 20.5013 4.57341 20.0264 4.09848C19.5514 3.62355 18.9463 3.30012 18.2876 3.16909C17.6288 3.03806 16.946 3.10532 16.3255 3.36236C15.705 3.6194 15.1746 4.05467 14.8015 4.61314C14.4283 5.17161 14.2292 5.82819 14.2292 6.49984C14.2303 7.40012 14.5884 8.26321 15.225 8.89981C15.8616 9.5364 16.7247 9.89453 17.625 9.89564ZM17.625 4.60394C18 4.60392 18.3665 4.7151 18.6783 4.92341C18.9901 5.13172 19.2331 5.42781 19.3767 5.77424C19.5202 6.12067 19.5577 6.50188 19.4846 6.86965C19.4114 7.23743 19.2309 7.57525 18.9657 7.84041C18.7006 8.10557 18.3628 8.28614 17.995 8.3593C17.6272 8.43247 17.246 8.39493 16.8996 8.25143C16.5532 8.10794 16.2571 7.86494 16.0487 7.55316C15.8404 7.24138 15.7292 6.87482 15.7292 6.49984C15.7298 5.99722 15.9297 5.51536 16.2851 5.15994C16.6405 4.80453 17.1224 4.60458 17.625 4.60394ZM23.7665 14.4187C22.2228 12.8764 20.1549 11.9719 17.9745 11.8854C15.7941 11.7989 13.661 12.5367 12 13.9519C10.339 12.5367 8.20594 11.7989 6.02551 11.8854C3.84508 11.9719 1.77718 12.8764 0.2335 14.4187L0 14.6521V19.9998H24V14.6521L23.7665 14.4187ZM11.25 18.4998H1.5V15.2887C1.5146 15.276 1.5552 15.2375 1.57 15.225C2.8882 14.0365 4.60011 13.3787 6.375 13.3787C8.14989 13.3787 9.8618 14.0365 11.18 15.225C11.1947 15.2375 11.2353 15.276 11.25 15.2887V18.4998ZM22.5 18.4998H12.75V15.2887C12.7646 15.276 12.8052 15.2375 12.82 15.225C14.1382 14.0365 15.8501 13.3787 17.625 13.3787C19.3999 13.3787 21.1118 14.0365 22.43 15.225C22.4447 15.2375 22.4853 15.276 22.5 15.2887V18.4998ZM6.375 9.89434C7.04665 9.89436 7.70323 9.69521 8.2617 9.32207C8.82017 8.94893 9.25544 8.41857 9.51248 7.79804C9.76952 7.17752 9.83678 6.49471 9.70575 5.83596C9.57473 5.17721 9.2513 4.57211 8.77636 4.09718C8.30143 3.62225 7.69633 3.29882 7.03758 3.16779C6.37883 3.03676 5.69602 3.10402 5.0755 3.36106C4.45498 3.6181 3.92461 4.05337 3.55147 4.61184C3.17833 5.17031 2.97918 5.82689 2.9792 6.49854C2.98031 7.39882 3.33844 8.26191 3.97503 8.89851C4.61163 9.5351 5.47472 9.89323 6.375 9.89434ZM6.375 4.60264C6.74998 4.60262 7.11654 4.7138 7.42833 4.92211C7.74013 5.13042 7.98314 5.42651 8.12665 5.77294C8.27017 6.11937 8.30772 6.50058 8.23458 6.86835C8.16144 7.23613 7.98088 7.57395 7.71574 7.83911C7.4506 8.10427 7.11278 8.28484 6.74501 8.358C6.37724 8.43117 5.99603 8.39363 5.64959 8.25013C5.30316 8.10664 5.00705 7.86364 4.79872 7.55186C4.59039 7.24008 4.4792 6.87352 4.4792 6.49854C4.47978 5.99591 4.6797 5.51404 5.0351 5.15862C5.39051 4.80319 5.87237 4.60325 6.375 4.60264Z" fill="black"/>
</svg>
