<svg width="24" height="24" viewBox="0 0 24 24" fill="none" xmlns="http://www.w3.org/2000/svg">
<path d="M7.00003 5.40625C7.2967 5.40625 7.58671 5.31828 7.83338 5.15345C8.08006 4.98863 8.27231 4.75436 8.38585 4.48028C8.49938 4.20619 8.52908 3.90459 8.4712 3.61362C8.41333 3.32264 8.27047 3.05537 8.06069 2.84559C7.85091 2.63581 7.58363 2.49295 7.29266 2.43507C7.00169 2.37719 6.70009 2.4069 6.426 2.52043C6.15191 2.63396 5.91764 2.82622 5.75282 3.0729C5.588 3.31957 5.50003 3.60958 5.50003 3.90625C5.50003 4.30408 5.65806 4.68561 5.93937 4.96691C6.22067 5.24822 6.6022 5.40625 7.00003 5.40625ZM17 7.40625C17.2967 7.40625 17.5867 7.31828 17.8334 7.15345C18.0801 6.98863 18.2723 6.75436 18.3858 6.48028C18.4994 6.20619 18.5291 5.90459 18.4712 5.61362C18.4133 5.32264 18.2705 5.05537 18.0607 4.84559C17.8509 4.63581 17.5836 4.49295 17.2927 4.43507C17.0017 4.37719 16.7001 4.4069 16.426 4.52043C16.1519 4.63396 15.9176 4.82622 15.7528 5.0729C15.588 5.31957 15.5 5.60958 15.5 5.90625C15.5 6.30408 15.6581 6.68561 15.9394 6.96691C16.2207 7.24822 16.6022 7.40625 17 7.40625ZM7.00003 7.00005C6.31307 6.99815 5.63257 7.13256 4.99792 7.39547C4.36327 7.65839 3.78708 8.04461 3.30273 8.53175L3.00983 8.82475V16.0001H4.65003V22.0001H9.35003V16.0001H10.99V8.82475L10.6971 8.53175C10.2128 8.04463 9.63664 7.65843 9.00203 7.39551C8.36741 7.13259 7.68695 6.99818 7.00003 7.00005ZM9.49003 14.5001H7.85003V20.5001H6.15003V14.5001H4.51003V9.45345C5.19417 8.83967 6.08091 8.5002 7.00003 8.5002C7.91915 8.5002 8.80588 8.83967 9.49003 9.45345V14.5001ZM20.6971 10.5318C20.2116 10.0461 19.6352 9.66094 19.0008 9.39812C18.3664 9.13531 17.6865 9.00004 16.9998 9.00004C16.3132 9.00004 15.6332 9.13531 14.9988 9.39812C14.3644 9.66094 13.788 10.0461 13.3025 10.5318L13.0096 10.8248V17.0001H14.65V22.0001H19.35V17.0001H20.99V10.8248L20.6971 10.5318ZM19.49 15.5001H17.85V20.5001H16.15V15.5001H14.51V11.4535C15.1942 10.8397 16.0809 10.5002 17 10.5002C17.9191 10.5002 18.8059 10.8397 19.49 11.4535V15.5001Z" fill="black"/>
</svg>
