<svg width="24" height="24" viewBox="0 0 24 24" fill="none" xmlns="http://www.w3.org/2000/svg">
<path d="M12.3364 9.6665C12.6531 9.66652 12.9666 9.60416 13.2591 9.483C13.5517 9.36183 13.8175 9.18424 14.0414 8.96034C14.2653 8.73645 14.4429 8.47065 14.5641 8.17811C14.6852 7.88558 14.7476 7.57204 14.7476 7.2554C14.7476 5.3264 12.3364 0.979004 12.3364 0.979004C12.3364 0.979004 9.92531 5.3264 9.92531 7.2554C9.92531 7.57203 9.98768 7.88556 10.1088 8.17809C10.23 8.47062 10.4076 8.73642 10.6315 8.96031C10.8554 9.1842 11.1212 9.3618 11.4137 9.48297C11.7063 9.60414 12.0198 9.6665 12.3364 9.6665ZM12.3364 2.0465C13.1069 3.5535 14.2476 6.0457 14.2476 7.2556C14.244 7.76008 14.041 8.24265 13.683 8.59808C13.325 8.95351 12.841 9.15298 12.3365 9.15298C11.832 9.15298 11.348 8.95351 10.9899 8.59808C10.6319 8.24265 10.429 7.76008 10.4253 7.2556C10.4253 6.0455 11.5659 3.5533 12.3364 2.0463V2.0465ZM22.5785 15.1265L22.4109 14.5293C22.2738 14.0406 21.965 13.6179 21.5412 13.3386C21.1174 13.0594 20.6071 12.9424 20.104 13.0093L15.6721 13.5983C15.6757 13.6495 15.6875 13.6983 15.6875 13.7502C15.6868 14.3467 15.4496 14.9186 15.0277 15.3404C14.6059 15.7622 14.034 15.9995 13.4375 16.0002H8.34122V15.5002H13.4375C13.9016 15.5002 14.3468 15.3158 14.675 14.9876C15.0031 14.6595 15.1875 14.2143 15.1875 13.7502C15.1875 13.2861 15.0031 12.841 14.675 12.5128C14.3468 12.1846 13.9016 12.0002 13.4375 12.0002H8.34122L8.09122 12.0797L2.04572 13.9999V20.9999L8.04572 18.9999H13.0457L22.1486 15.9389C22.3109 15.8843 22.4459 15.7695 22.526 15.6182C22.606 15.4669 22.6248 15.2906 22.5785 15.1258V15.1265Z" fill="black"/>
</svg>
