<svg width="24" height="24" viewBox="0 0 24 24" fill="none" xmlns="http://www.w3.org/2000/svg">
<path d="M12 6.75C11.4067 6.75 10.8266 6.92595 10.3333 7.25559C9.83995 7.58524 9.45543 8.05377 9.22837 8.60195C9.0013 9.15013 8.94189 9.75333 9.05765 10.3353C9.1734 10.9172 9.45913 11.4518 9.87868 11.8713C10.2982 12.2909 10.8328 12.5766 11.4147 12.6924C11.9967 12.8081 12.5999 12.7487 13.1481 12.5216C13.6962 12.2946 14.1648 11.9101 14.4944 11.4167C14.8241 10.9234 15 10.3433 15 9.75C15 8.95435 14.6839 8.19129 14.1213 7.62868C13.5587 7.06607 12.7957 6.75 12 6.75ZM12 11.85C11.5847 11.85 11.1787 11.7268 10.8333 11.4961C10.488 11.2653 10.2188 10.9374 10.0599 10.5536C9.90091 10.1699 9.85933 9.74767 9.94035 9.34031C10.0214 8.93295 10.2214 8.55877 10.5151 8.26508C10.8088 7.97139 11.183 7.77138 11.5903 7.69035C11.9977 7.60932 12.4199 7.65091 12.8036 7.80985C13.1874 7.9688 13.5153 8.23796 13.7461 8.5833C13.9768 8.92865 14.1 9.33466 14.1 9.75C14.0994 10.3068 13.8779 10.8405 13.4842 11.2342C13.0905 11.6279 12.5568 11.8494 12 11.85ZM12 2C10.0222 2 8.08879 2.58649 6.4443 3.6853C4.79981 4.78412 3.51809 6.3459 2.76121 8.17317C2.00433 10.0004 1.8063 12.0111 2.19215 13.9509C2.578 15.8907 3.53041 17.6725 4.92894 19.0711C6.32746 20.4696 8.10929 21.422 10.0491 21.8079C11.9889 22.1937 13.9996 21.9957 15.8268 21.2388C17.6541 20.4819 19.2159 19.2002 20.3147 17.5557C21.4135 15.9112 22 13.9778 22 12C22 10.6868 21.7413 9.38642 21.2388 8.17317C20.7363 6.95991 19.9997 5.85752 19.0711 4.92893C18.1425 4.00035 17.0401 3.26375 15.8268 2.7612C14.6136 2.25866 13.3132 2 12 2ZM16.0029 20.049C14.7612 20.6743 13.3903 21 12 21C10.6097 21 9.2388 20.6743 7.9971 20.049V16.9336C9.0836 15.92 10.5141 15.3564 12 15.3564C13.4859 15.3564 14.9164 15.92 16.0029 16.9336V20.049ZM17.0029 19.4764V16.5146L16.8564 16.3682C16.2187 15.7304 15.4616 15.2244 14.6283 14.8793C13.795 14.5341 12.9019 14.3564 12 14.3564C11.0981 14.3564 10.205 14.5341 9.3717 14.8793C8.53843 15.2244 7.78132 15.7304 7.1436 16.3682L6.9971 16.5146V19.4764C5.39232 18.4033 4.17514 16.8425 3.52527 15.0247C2.87539 13.2068 2.82728 11.2282 3.38802 9.38087C3.94877 7.53357 5.08865 5.91553 6.63938 4.76566C8.1901 3.61579 10.0695 2.99502 12 2.99502C13.9305 2.99502 15.8099 3.61579 17.3606 4.76566C18.9114 5.91553 20.0512 7.53357 20.612 9.38087C21.1727 11.2282 21.1246 13.2068 20.4747 15.0247C19.8249 16.8425 18.6077 18.4033 17.0029 19.4764Z" fill="black"/>
</svg>
