<svg width="24" height="24" viewBox="0 0 24 24" fill="none" xmlns="http://www.w3.org/2000/svg">
<path d="M15.7344 9.3719C15.4773 9.3719 15.2259 9.44814 15.0121 9.59099C14.7984 9.73383 14.6317 9.93687 14.5333 10.1744C14.4349 10.412 14.4092 10.6733 14.4594 10.9255C14.5095 11.1777 14.6333 11.4093 14.8151 11.5911C14.997 11.7729 15.2286 11.8968 15.4808 11.9469C15.7329 11.9971 15.9943 11.9713 16.2319 11.8729C16.4694 11.7745 16.6725 11.6079 16.8153 11.3941C16.9581 11.1804 17.0344 10.929 17.0344 10.6719C17.0344 10.3271 16.8974 9.99646 16.6536 9.75266C16.4098 9.50886 16.0792 9.3719 15.7344 9.3719ZM8.26559 9.3719C8.00847 9.3719 7.75713 9.44814 7.54334 9.59099C7.32956 9.73383 7.16294 9.93687 7.06454 10.1744C6.96615 10.412 6.9404 10.6733 6.99057 10.9255C7.04073 11.1777 7.16454 11.4093 7.34635 11.5911C7.52816 11.7729 7.75979 11.8968 8.01197 11.9469C8.26414 11.9971 8.52553 11.9713 8.76307 11.8729C9.00062 11.7745 9.20365 11.6079 9.3465 11.3941C9.48934 11.1804 9.56559 10.929 9.56559 10.6719C9.56559 10.5012 9.53196 10.3321 9.46663 10.1744C9.4013 10.0167 9.30554 9.87338 9.18482 9.75266C9.06411 9.63194 8.9208 9.53619 8.76307 9.47086C8.60535 9.40553 8.4363 9.3719 8.26559 9.3719ZM12.7744 2H11.2256C9.10385 2 7.06902 2.84285 5.56873 4.34315C4.06844 5.84344 3.22559 7.87827 3.22559 10V12.5294C3.22559 13.5903 3.64701 14.6077 4.39716 15.3578C5.1473 16.108 6.16472 16.5294 7.22559 16.5294H7.57859V19C7.57859 19.5304 7.7893 20.0391 8.16437 20.4142C8.53945 20.7893 9.04815 21 9.57859 21H14.4214C14.9518 21 15.4605 20.7893 15.8356 20.4142C16.2107 20.0391 16.4214 19.5304 16.4214 19V16.5294H16.7744C17.8353 16.5294 18.8527 16.108 19.6028 15.3578C20.353 14.6077 20.7744 13.5903 20.7744 12.5294V10C20.7744 7.87827 19.9315 5.84344 18.4312 4.34315C16.9309 2.84285 14.8961 2 12.7744 2ZM19.2744 12.5293C19.2738 13.1922 19.0102 13.8277 18.5415 14.2964C18.0728 14.7651 17.4372 15.0287 16.7744 15.0293H14.9219V19C14.9216 19.1325 14.8689 19.2596 14.7751 19.3533C14.6814 19.447 14.5544 19.4997 14.4219 19.5H9.57809C9.44556 19.4997 9.31853 19.447 9.22482 19.3533C9.13111 19.2596 9.07835 19.1325 9.07809 19V15.0293H7.22559C6.56273 15.0287 5.9272 14.7651 5.45849 14.2964C4.98978 13.8277 4.72619 13.1922 4.72559 12.5293V10C4.72757 8.2767 5.41303 6.62455 6.63158 5.406C7.85014 4.18744 9.50229 3.50198 11.2256 3.5H12.7744C14.4977 3.50198 16.1498 4.18744 17.3684 5.406C18.5869 6.62455 19.2724 8.2767 19.2744 10V12.5293ZM12 11C11.8596 11 11.7237 11.0496 11.6164 11.1402C11.5091 11.2308 11.4373 11.3564 11.4138 11.4948L10.9019 14.5H13.0981L12.5862 11.4948C12.5626 11.3564 12.4909 11.2308 12.3836 11.1402C12.2763 11.0496 12.1404 11 12 11Z" fill="black"/>
</svg>
