<svg width="24" height="24" viewBox="0 0 24 24" fill="none" xmlns="http://www.w3.org/2000/svg">
<path d="M7.79002 11.6666H8.16692V12.4355C8.16692 12.9388 8.36687 13.4215 8.72277 13.7774C9.07868 14.1334 9.56139 14.3333 10.0647 14.3333H13.9357C14.439 14.3333 14.9218 14.1334 15.2777 13.7774C15.6336 13.4215 15.8335 12.9388 15.8335 12.4355V11.6666H16.21C16.9057 11.6666 17.5729 11.3903 18.0648 10.8983C18.5567 10.4064 18.8331 9.73927 18.8331 9.0436V6.6875C18.8331 5.17912 18.2339 3.73251 17.1674 2.6659C16.1008 1.59929 14.6542 1.00005 13.1458 1H10.8542C9.3458 1 7.89916 1.59922 6.83255 2.66583C5.76594 3.73244 5.16672 5.17908 5.16672 6.6875V9.0436C5.16673 9.38808 5.2346 9.72918 5.36644 10.0474C5.49828 10.3657 5.69152 10.6548 5.93511 10.8984C6.17871 11.142 6.4679 11.3352 6.78617 11.467C7.10443 11.5988 7.44554 11.6666 7.79002 11.6666ZM6.66702 6.6875C6.66842 5.57734 7.11006 4.51304 7.89506 3.72804C8.68006 2.94303 9.74436 2.5014 10.8545 2.5H13.1455C14.2557 2.5014 15.32 2.94303 16.105 3.72804C16.89 4.51304 17.3316 5.57734 17.333 6.6875V9.0439C17.3327 9.34163 17.2142 9.62707 17.0037 9.83761C16.7932 10.0481 16.5078 10.1666 16.21 10.167H14.333V12.4355C14.3328 12.5409 14.2908 12.6418 14.2163 12.7163C14.1418 12.7908 14.0409 12.8328 13.9355 12.833H10.0645C9.95917 12.8328 9.8582 12.7908 9.78371 12.7163C9.70921 12.6418 9.66726 12.5409 9.66702 12.4355V10.167H7.79002C7.49229 10.1666 7.20686 10.0481 6.99634 9.83761C6.78582 9.62707 6.66739 9.34163 6.66702 9.0439V6.6875ZM12.5654 8.4464C12.5351 8.31928 12.4628 8.20611 12.3602 8.12514C12.2576 8.04417 12.1307 8.00013 12 8.00013C11.8693 8.00013 11.7425 8.04417 11.6399 8.12514C11.5373 8.20611 11.465 8.31928 11.4346 8.4464L11.0642 10H12.9358L12.5654 8.4464ZM19.6191 15.4531L19.0059 14.084L12 17.2234L4.99412 14.084L4.38092 15.4531L10.1658 18.0454L4.38092 20.6377L4.99412 22.0068L12 18.8674L19.0059 22.0068L19.6191 20.6377L13.8342 18.0454L19.6191 15.4531ZM14.6628 8.0511C14.8707 8.05112 15.0739 7.98949 15.2468 7.87401C15.4197 7.75852 15.5544 7.59437 15.634 7.40231C15.7136 7.21025 15.7344 6.9989 15.6938 6.795C15.6533 6.5911 15.5532 6.4038 15.4062 6.2568C15.2592 6.10979 15.0719 6.00967 14.868 5.9691C14.6641 5.92854 14.4528 5.94935 14.2607 6.0289C14.0686 6.10845 13.9045 6.24318 13.789 6.41603C13.6735 6.58888 13.6118 6.79211 13.6118 7C13.6118 7.13803 13.639 7.27471 13.6918 7.40223C13.7446 7.52976 13.822 7.64563 13.9196 7.74323C14.0172 7.84084 14.1331 7.91826 14.2606 7.97109C14.3881 8.02391 14.5248 8.0511 14.6628 8.0511ZM9.33722 8.0511C9.54511 8.0511 9.74833 7.98945 9.92118 7.87396C10.094 7.75846 10.2288 7.5943 10.3083 7.40224C10.3879 7.21018 10.4087 6.99883 10.3681 6.79494C10.3276 6.59105 10.2275 6.40376 10.0805 6.25676C9.93346 6.10976 9.74617 6.00965 9.54228 5.9691C9.33839 5.92854 9.12705 5.94936 8.93498 6.02891C8.74292 6.10847 8.57876 6.24319 8.46326 6.41604C8.34777 6.58889 8.28612 6.79211 8.28612 7C8.28611 7.13804 8.31329 7.27472 8.3661 7.40225C8.41892 7.52979 8.49635 7.64566 8.59395 7.74327C8.69156 7.84088 8.80744 7.9183 8.93497 7.97112C9.0625 8.02393 9.19918 8.05111 9.33722 8.0511Z" fill="#231F20"/>
</svg>
