<svg width="24" height="24" viewBox="0 0 24 24" fill="none" xmlns="http://www.w3.org/2000/svg">
<path d="M17.75 9.79147C18.401 9.79147 19.0375 9.59841 19.5788 9.23671C20.1201 8.87501 20.542 8.36091 20.7911 7.75942C21.0403 7.15794 21.1055 6.49608 20.9784 5.85755C20.8514 5.21902 20.5379 4.6325 20.0775 4.17215C19.6172 3.7118 19.0307 3.3983 18.3921 3.2713C17.7536 3.14431 17.0917 3.20951 16.4903 3.45866C15.8888 3.70782 15.3747 4.12974 15.013 4.67107C14.6513 5.2124 14.4583 5.84883 14.4583 6.49987C14.4594 7.37254 14.8065 8.20915 15.4236 8.82622C16.0407 9.44328 16.8773 9.79041 17.75 9.79147ZM17.75 4.20817C18.2033 4.20817 18.6463 4.34257 19.0232 4.59439C19.4001 4.8462 19.6938 5.20412 19.8673 5.62287C20.0407 6.04163 20.0861 6.50241 19.9977 6.94696C19.9092 7.3915 19.691 7.79984 19.3705 8.12034C19.05 8.44084 18.6416 8.65911 18.1971 8.74753C17.7525 8.83596 17.2918 8.79058 16.873 8.61712C16.4543 8.44367 16.0963 8.14994 15.8445 7.77307C15.5927 7.3962 15.4583 6.95312 15.4583 6.49987C15.459 5.89228 15.7007 5.30978 16.1303 4.88015C16.5599 4.45052 17.1424 4.20886 17.75 4.20817ZM6.25 9.78897C6.90104 9.78897 7.53745 9.59591 8.07877 9.23422C8.62009 8.87252 9.04199 8.35843 9.29113 7.75695C9.54027 7.15547 9.60546 6.49362 9.47845 5.85509C9.35144 5.21656 9.03794 4.63004 8.57758 4.16968C8.11723 3.70933 7.53071 3.39583 6.89218 3.26882C6.25365 3.14181 5.5918 3.20699 4.99032 3.45613C4.38884 3.70527 3.87475 4.12718 3.51305 4.6685C3.15135 5.20981 2.9583 5.84623 2.9583 6.49727C2.95936 7.36996 3.3065 8.2066 3.92359 8.82368C4.54067 9.44077 5.37731 9.78791 6.25 9.78897ZM6.25 4.20557C6.70326 4.20557 7.14633 4.33997 7.5232 4.59179C7.90007 4.8436 8.1938 5.20152 8.36725 5.62027C8.54071 6.03903 8.58609 6.49981 8.49767 6.94436C8.40924 7.3889 8.19098 7.79725 7.87048 8.11774C7.54998 8.43824 7.14163 8.65651 6.69709 8.74493C6.25254 8.83336 5.79176 8.78798 5.373 8.61452C4.95425 8.44107 4.59634 8.14734 4.34452 7.77047C4.09271 7.3936 3.9583 6.95052 3.9583 6.49727C3.95901 5.88969 4.20069 5.3072 4.63031 4.87758C5.05993 4.44796 5.64242 4.20628 6.25 4.20557ZM23.7711 14.5468C22.5421 13.3162 20.9635 12.4946 19.2505 12.194L17.7505 14.5056L16.2505 12.194C14.6601 12.4802 13.185 13.2163 12 14.3151C10.8153 13.2165 9.34058 12.4804 7.7505 12.194L6.2505 14.5056L4.7505 12.194C3.03715 12.4944 1.45817 13.316 0.2289 14.5468L0 14.7757V19.9999H24V14.7757L23.7711 14.5468ZM11.5 18.9999H1V15.1899C1.91638 14.2936 3.04861 13.6491 4.2871 13.3188L6.25 16.3417L8.2129 13.3192C9.45135 13.6494 10.5836 14.2938 11.5 15.1899V18.9999ZM23 18.9999H12.5V15.1899C13.4164 14.2936 14.5486 13.6491 15.7871 13.3188L17.75 16.3417L19.7129 13.3192C20.9513 13.6494 22.0836 14.2938 23 15.1899V18.9999Z" fill="black"/>
</svg>
