<svg width="24" height="24" viewBox="0 0 24 24" fill="none" xmlns="http://www.w3.org/2000/svg">
<path d="M11.2917 5.24463C11.5884 5.24463 11.8784 5.15666 12.1251 4.99183C12.3717 4.82701 12.564 4.59274 12.6775 4.31865C12.7911 4.04457 12.8208 3.74297 12.7629 3.45199C12.705 3.16102 12.5622 2.89375 12.3524 2.68397C12.1426 2.47419 11.8753 2.33133 11.5844 2.27345C11.2934 2.21557 10.9918 2.24528 10.7177 2.35881C10.4436 2.47234 10.2093 2.6646 10.0445 2.91127C9.87969 3.15795 9.79172 3.44796 9.79172 3.74463C9.79172 4.14245 9.94975 4.52398 10.2311 4.80529C10.5124 5.08659 10.8939 5.24463 11.2917 5.24463ZM17.6191 15.4266C17.5436 15.0939 17.3578 14.7966 17.0918 14.5829C16.8259 14.3692 16.4955 14.2518 16.1543 14.2498H14.3333V9.83313C14.3333 9.08169 14.0348 8.36103 13.5035 7.82968C12.9721 7.29834 12.2515 6.99983 11.5 6.99983H10.5C10.1022 6.99983 9.72066 7.15787 9.43935 7.43917C9.15805 7.72047 9.00001 8.10201 9.00001 8.49983V10.0898C7.87273 10.281 6.82359 10.7905 5.97625 11.5581C5.1289 12.3258 4.51867 13.3197 4.21746 14.4227C3.91625 15.5257 3.93662 16.6918 4.27618 17.7836C4.61573 18.8754 5.26032 19.8474 6.13396 20.585C7.00761 21.3226 8.0739 21.7951 9.20717 21.9468C10.3404 22.0985 11.4935 21.923 12.5303 21.4412C13.5672 20.9593 14.4447 20.191 15.0595 19.227C15.6742 18.2629 16.0005 17.1432 16 15.9998C16 15.9154 15.9924 15.8329 15.9874 15.7498H16.1543L17.5285 21.9998H19.0642L17.6191 15.4266ZM10.5 8.49983H11.5C11.8535 8.50023 12.1924 8.64083 12.4424 8.89078C12.6923 9.14074 12.8329 9.47964 12.8333 9.83313V14.2498H11C10.8675 14.2497 10.7404 14.1969 10.6466 14.1032C10.5529 14.0095 10.5002 13.8824 10.5 13.7498V8.49983ZM10 20.4998C8.89404 20.5011 7.82642 20.0945 7.00136 19.358C6.1763 18.6215 5.65172 17.6067 5.52794 16.5076C5.40416 15.4086 5.68988 14.3025 6.33045 13.4009C6.97102 12.4993 7.92147 11.8655 9.00001 11.6207V13.7498C9.00001 14.2803 9.21073 14.789 9.5858 15.164C9.96087 15.5391 10.4696 15.7498 11 15.7498H14.4747C14.4886 15.8325 14.4971 15.916 14.5 15.9998C14.4987 17.1929 14.0241 18.3367 13.1805 19.1803C12.3369 20.0239 11.1931 20.4985 10 20.4998Z" fill="black"/>
</svg>
