<svg width="24" height="24" viewBox="0 0 24 24" fill="none" xmlns="http://www.w3.org/2000/svg">
<path d="M17.9922 15.5698C17.8923 15.1258 17.6447 14.7288 17.2899 14.4436C16.9352 14.1585 16.4943 14.002 16.0391 13.9998H13.502V9.24983C13.502 8.65309 13.265 8.0808 12.843 7.65884C12.421 7.23688 11.8488 6.99983 11.252 6.99983H10.3C9.95523 6.99983 9.62457 7.13679 9.38078 7.38059C9.13698 7.62439 9.00001 7.95505 9.00001 8.29983V10.0898C7.87273 10.281 6.82359 10.7905 5.97625 11.5581C5.1289 12.3258 4.51867 13.3197 4.21746 14.4227C3.91625 15.5257 3.93662 16.6918 4.27618 17.7836C4.61573 18.8754 5.26032 19.8474 6.13396 20.585C7.00761 21.3226 8.0739 21.7951 9.20717 21.9468C10.3404 22.0985 11.4935 21.923 12.5303 21.4412C13.5672 20.9593 14.4447 20.191 15.0595 19.227C15.6742 18.2629 16.0005 17.1432 16 15.9998H16.0391L17.3585 21.9998H19.4061L17.9922 15.5698ZM10 21.4998C8.62851 21.5002 7.30638 20.988 6.29312 20.0637C5.27987 19.1394 4.64867 17.8698 4.52342 16.504C4.39817 15.1382 4.78791 13.775 5.61615 12.6818C6.44439 11.5886 7.65131 10.8445 9.00001 10.5954V13.9998C9.00001 14.5303 9.21073 15.039 9.5858 15.414C9.96087 15.7891 10.4696 15.9998 11 15.9998H15.5C15.4984 17.458 14.9184 18.856 13.8873 19.8871C12.8562 20.9182 11.4582 21.4982 10 21.4998ZM11.2917 5.49463C11.6378 5.49463 11.9762 5.39199 12.264 5.1997C12.5517 5.00741 12.7761 4.7341 12.9085 4.41433C13.041 4.09455 13.0756 3.74269 13.0081 3.40322C12.9406 3.06375 12.7739 2.75193 12.5292 2.50719C12.2844 2.26245 11.9726 2.09578 11.6331 2.02826C11.2937 1.96073 10.9418 1.99539 10.622 2.12784C10.3022 2.26029 10.0289 2.4846 9.83664 2.77238C9.64435 3.06017 9.54172 3.39851 9.54172 3.74463C9.54172 4.20876 9.72609 4.65388 10.0543 4.98207C10.3825 5.31026 10.8276 5.49463 11.2917 5.49463Z" fill="black"/>
</svg>
