<svg width="24" height="24" viewBox="0 0 24 24" fill="none" xmlns="http://www.w3.org/2000/svg">
<g clip-path="url(#clip0)">
<path d="M12 4.9001C12.3758 4.9001 12.7431 4.78867 13.0556 4.57989C13.368 4.37112 13.6116 4.07438 13.7554 3.7272C13.8992 3.38002 13.9368 2.99799 13.8635 2.62943C13.7902 2.26086 13.6092 1.92232 13.3435 1.6566C13.0778 1.39088 12.7392 1.20992 12.3707 1.13661C12.0021 1.06329 11.6201 1.10092 11.2729 1.24473C10.9257 1.38853 10.629 1.63206 10.4202 1.94451C10.2114 2.25697 10.1 2.62431 10.1 3.0001C10.1 3.50401 10.3002 3.98728 10.6565 4.3436C11.0128 4.69992 11.4961 4.9001 12 4.9001ZM12 2.0001C12.1978 2.0001 12.3911 2.05875 12.5556 2.16863C12.72 2.27851 12.8482 2.43469 12.9239 2.61741C12.9996 2.80014 13.0194 3.00121 12.9808 3.19519C12.9422 3.38917 12.847 3.56735 12.7071 3.70721C12.5673 3.84706 12.3891 3.9423 12.1951 3.98088C12.0011 4.01947 11.8 3.99967 11.6173 3.92398C11.4346 3.84829 11.2784 3.72012 11.1685 3.55567C11.0587 3.39122 11 3.19788 11 3.0001C11.0003 2.73497 11.1057 2.48079 11.2932 2.29331C11.4807 2.10584 11.7349 2.00039 12 2.0001ZM15.9092 7.444C14.8724 6.4073 13.4662 5.8249 12 5.8249C10.5338 5.8249 9.12763 6.4073 8.0908 7.444L7.8208 7.714V16.2363H9.2477V24.0001H14.7523V16.2362H16.179V7.7139L15.9092 7.444ZM15.1792 15.2362H13.7523V23.0001H12.5029L12.6104 15.2433L11.6104 15.2296L11.5027 23.0001H10.2477V15.2362H8.821V8.1282C9.66833 7.29305 10.8103 6.82488 12 6.82488C13.1897 6.82488 14.3317 7.29305 15.179 8.1282L15.1792 15.2362Z" fill="black"/>
</g>
<defs>
<clipPath id="clip0">
<rect width="24" height="24" fill="white"/>
</clipPath>
</defs>
</svg>
