<svg width="24" height="24" viewBox="0 0 24 24" fill="none" xmlns="http://www.w3.org/2000/svg">
<path d="M12 9.99981C12.7582 9.99983 13.4993 9.77502 14.1298 9.35381C14.7602 8.93261 15.2515 8.33392 15.5417 7.63346C15.8318 6.933 15.9078 6.16223 15.7599 5.41861C15.612 4.675 15.2469 3.99194 14.7108 3.45582C14.1747 2.9197 13.4916 2.5546 12.748 2.40667C12.0044 2.25875 11.2336 2.33466 10.5331 2.6248C9.83268 2.91494 9.23398 3.40627 8.81275 4.03668C8.39153 4.66708 8.1667 5.40823 8.1667 6.16641C8.16786 7.18272 8.5721 8.15706 9.29073 8.87571C10.0094 9.59436 10.9837 9.99862 12 9.99981ZM12 3.33311C12.5604 3.33309 13.1082 3.49925 13.5742 3.81058C14.0402 4.12191 14.4033 4.56443 14.6178 5.08217C14.8323 5.59991 14.8884 6.16962 14.7791 6.71925C14.6697 7.26889 14.3999 7.77376 14.0036 8.17003C13.6074 8.56629 13.1025 8.83615 12.5528 8.94547C12.0032 9.05479 11.4335 8.99868 10.9158 8.78421C10.398 8.56974 9.9555 8.20657 9.64417 7.7406C9.33284 7.27463 9.16668 6.72681 9.1667 6.16641C9.16757 5.41524 9.46636 4.69509 9.99752 4.16393C10.5287 3.63277 11.2488 3.33398 12 3.33311ZM19.707 15.5912C17.6615 13.5501 14.8897 12.4037 12 12.4037C9.11027 12.4037 6.33855 13.5501 4.293 15.5912L4 15.8842V20.9998H20V15.8842L19.707 15.5912ZM8.6339 19.9998C8.73127 19.1754 9.12777 18.4155 9.74822 17.864C10.3687 17.3125 11.1699 17.0079 12 17.0079C12.8301 17.0079 13.6313 17.3125 14.2518 17.864C14.8722 18.4155 15.2687 19.1754 15.3661 19.9998H8.6339ZM19 19.9998H16.366C16.2683 18.9093 15.766 17.8949 14.958 17.1561C14.15 16.4173 13.0948 16.0076 12 16.0076C10.9052 16.0076 9.84996 16.4173 9.04198 17.1561C8.234 17.8949 7.73173 18.9093 7.634 19.9998H5V16.3027C5.0135 16.2903 5.1249 16.1804 5.1385 16.1683C6.98234 14.3945 9.44147 13.4037 12 13.4037C14.5585 13.4037 17.0177 14.3945 18.8615 16.1683C18.8752 16.1804 18.9865 16.2903 19 16.3027V19.9998Z" fill="black"/>
</svg>
