<svg width="24" height="24" viewBox="0 0 24 24" fill="none" xmlns="http://www.w3.org/2000/svg">
<path d="M12 6.7916C11.4067 6.7916 10.8266 6.96755 10.3333 7.29719C9.83994 7.62684 9.45542 8.09537 9.22836 8.64355C9.0013 9.19173 8.94189 9.79493 9.05764 10.3769C9.1734 10.9588 9.45912 11.4934 9.87868 11.9129C10.2982 12.3325 10.8328 12.6182 11.4147 12.734C11.9967 12.8497 12.5999 12.7903 13.1481 12.5632C13.6962 12.3362 14.1648 11.9517 14.4944 11.4583C14.8241 10.965 15 10.3849 15 9.7916C15 8.99595 14.6839 8.23289 14.1213 7.67028C13.5587 7.10767 12.7956 6.7916 12 6.7916ZM12 11.0916C11.7429 11.0916 11.4915 11.0154 11.2778 10.8725C11.064 10.7297 10.8974 10.5266 10.799 10.2891C10.7006 10.0515 10.6748 9.79016 10.725 9.53798C10.7751 9.28581 10.899 9.05417 11.0808 8.87236C11.2626 8.69055 11.4942 8.56674 11.7464 8.51658C11.9986 8.46642 12.2599 8.49216 12.4975 8.59056C12.735 8.68895 12.9381 8.85558 13.0809 9.06936C13.2238 9.28314 13.3 9.53448 13.3 9.7916C13.2996 10.1363 13.1625 10.4667 12.9188 10.7105C12.6751 10.9542 12.3447 11.0913 12 11.0917V11.0916ZM18 3H6C5.20435 3 4.44129 3.31607 3.87868 3.87868C3.31607 4.44129 3 5.20435 3 6V18C3 18.7956 3.31607 19.5587 3.87868 20.1213C4.44129 20.6839 5.20435 21 6 21H18C18.7956 21 19.5587 20.6839 20.1213 20.1213C20.6839 19.5587 21 18.7956 21 18V6C21 5.20435 20.6839 4.44129 20.1213 3.87868C19.5587 3.31607 18.7956 3 18 3ZM15.0029 19H8.9971V17.09C9.84668 16.402 10.9068 16.0266 12 16.0266C13.0932 16.0266 14.1533 16.402 15.0029 17.09V19ZM19 18C18.9997 18.2651 18.8943 18.5193 18.7068 18.7068C18.5193 18.8943 18.2651 18.9997 18 19H17.0029V16.2383L16.71 15.9453C16.0915 15.3267 15.3573 14.8359 14.5491 14.5011C13.741 14.1663 12.8748 13.994 12 13.994C11.1252 13.994 10.259 14.1663 9.45089 14.5011C8.64274 14.8359 7.90846 15.3267 7.29 15.9453L6.9971 16.2383V19H6C5.73487 18.9997 5.48069 18.8943 5.29321 18.7068C5.10574 18.5193 5.00029 18.2651 5 18V6C5.00029 5.73487 5.10574 5.48069 5.29321 5.29321C5.48069 5.10574 5.73487 5.00029 6 5H18C18.2651 5.00029 18.5193 5.10574 18.7068 5.29321C18.8943 5.48069 18.9997 5.73487 19 6V18Z" fill="black"/>
</svg>
