<svg width="24" height="24" viewBox="0 0 24 24" fill="none" xmlns="http://www.w3.org/2000/svg">
<path d="M14.983 6.13619C15.474 6.13619 15.9539 5.9906 16.3622 5.71782C16.7704 5.44505 17.0886 5.05734 17.2764 4.60374C17.4643 4.15013 17.5135 3.651 17.4177 3.16946C17.3219 2.68792 17.0855 2.2456 16.7383 1.89843C16.3911 1.55126 15.9488 1.31485 15.4672 1.21907C14.9857 1.1233 14.4866 1.17248 14.033 1.36038C13.5794 1.54828 13.1917 1.86647 12.9189 2.27471C12.6462 2.68295 12.5006 3.16291 12.5006 3.65389C12.5006 3.97988 12.5648 4.30267 12.6896 4.60385C12.8143 4.90502 12.9972 5.17867 13.2277 5.40917C13.4582 5.63968 13.7319 5.82252 14.033 5.94726C14.3342 6.072 14.657 6.1362 14.983 6.13619ZM14.983 2.87149C15.1377 2.87149 15.289 2.91737 15.4177 3.00335C15.5463 3.08932 15.6466 3.21151 15.7058 3.35448C15.7651 3.49744 15.7806 3.65476 15.7504 3.80653C15.7202 3.9583 15.6457 4.09771 15.5362 4.20713C15.4268 4.31655 15.2874 4.39107 15.1356 4.42125C14.9839 4.45144 14.8266 4.43595 14.6836 4.37673C14.5406 4.31751 14.4184 4.21723 14.3325 4.08857C14.2465 3.9599 14.2006 3.80863 14.2006 3.65389C14.2008 3.44646 14.2833 3.24759 14.43 3.10091C14.5767 2.95423 14.7756 2.87173 14.983 2.87149ZM22.623 17.1343L22.453 16.325C22.3075 15.6296 21.9043 15.015 21.3244 14.6046C20.7444 14.1942 20.0307 14.0185 19.3265 14.1126L16.6584 14.4672C16.6667 14.562 16.687 14.6533 16.687 14.7502C16.686 15.6118 16.3433 16.4379 15.734 17.0472C15.1248 17.6565 14.2987 17.9992 13.437 18.0002H8.3412V16.5002H13.4375C13.9016 16.5002 14.3468 16.3158 14.6749 15.9876C15.0031 15.6594 15.1875 15.2143 15.1875 14.7502C15.1875 14.2861 15.0031 13.8409 14.6749 13.5128C14.3468 13.1846 13.9016 13.0002 13.4375 13.0002H8.3412L2.0455 15.0002V23.0002L8.0455 21.0002H13.0455L22.1663 17.9332C22.3271 17.8791 22.4625 17.7679 22.5467 17.6206C22.631 17.4734 22.6583 17.3003 22.6234 17.1343H22.623ZM8.8037 11.5002C8.8025 11.4719 8.7954 11.4454 8.7954 11.4168C8.79614 10.7746 9.0516 10.1589 9.50573 9.70475C9.95986 9.25063 10.5756 8.9952 11.2178 8.99449C11.5511 8.99499 11.8805 9.06511 12.1851 9.20036C12.4897 9.33561 12.7627 9.533 12.9865 9.77989L13.8636 10.7272L15.0422 10.2002C15.2644 10.0987 15.5057 10.0455 15.75 10.0443C16.2126 10.0448 16.656 10.2288 16.9831 10.5559C17.3101 10.883 17.4941 11.3264 17.4946 11.789C17.4929 12.195 17.3482 12.5874 17.0859 12.8974L19.1294 12.6258C19.1487 12.6233 19.1682 12.6243 19.1875 12.622C19.2581 12.3499 19.2942 12.0701 19.2947 11.789C19.2965 11.1976 19.1498 10.6152 18.8682 10.0952C18.5865 9.57514 18.1788 9.13412 17.6825 8.81251C17.1862 8.4909 16.6171 8.29899 16.0274 8.25437C15.4377 8.20974 14.8462 8.31383 14.3071 8.55709C13.7328 7.93178 12.9829 7.49469 12.1557 7.30319C11.3286 7.11169 10.4628 7.17471 9.67216 7.48399C8.88147 7.79328 8.20275 8.33437 7.72506 9.03626C7.24736 9.73816 6.99302 10.5681 6.9954 11.4171C6.9954 11.4456 7.0012 11.4724 7.0026 11.5005L8.8037 11.5002Z" fill="black"/>
</svg>
