<svg width="24" height="24" viewBox="0 0 24 24" fill="none" xmlns="http://www.w3.org/2000/svg">
<path d="M18 3H6C5.20435 3 4.44129 3.31607 3.87868 3.87868C3.31607 4.44129 3 5.20435 3 6V18C3 18.7956 3.31607 19.5587 3.87868 20.1213C4.44129 20.6839 5.20435 21 6 21H18C18.7956 21 19.5587 20.6839 20.1213 20.1213C20.6839 19.5587 21 18.7956 21 18V6C21 5.20435 20.6839 4.44129 20.1213 3.87868C19.5587 3.31607 18.7956 3 18 3ZM15 9.4375C15 10.0308 14.8241 10.6109 14.4944 11.1042C14.1648 11.5976 13.6962 11.9821 13.1481 12.2091C12.5999 12.4362 11.9967 12.4956 11.4147 12.3799C10.8328 12.2641 10.2982 11.9784 9.87868 11.5588C9.45912 11.1393 9.1734 10.6047 9.05764 10.0228C8.94189 9.44083 9.0013 8.83763 9.22836 8.28945C9.45542 7.74127 9.83994 7.27274 10.3333 6.94309C10.8266 6.61345 11.4067 6.4375 12 6.4375C12.7956 6.4375 13.5587 6.75357 14.1213 7.31618C14.6839 7.87879 15 8.64185 15 9.4375ZM6.5 20.5V16.9146C7.95871 15.4559 9.93711 14.6365 12 14.6365C14.0629 14.6365 16.0413 15.4559 17.5 16.9146V20.5H6.5Z" fill="black"/>
</svg>
