<svg width="24" height="24" viewBox="0 0 24 24" fill="none" xmlns="http://www.w3.org/2000/svg">
<path d="M8.6279 16.1876H8.042V16.6876H8.6279C8.95016 16.6874 9.26514 16.5917 9.53304 16.4126C9.80094 16.2334 10.0097 15.9789 10.133 15.6812C10.2563 15.3834 10.2886 15.0558 10.2257 14.7397C10.1629 14.4237 10.0078 14.1333 9.78 13.9054L8.611 12.7364L8.6149 8.84866C8.61926 7.778 9.04712 6.75257 9.80504 5.99634C10.563 5.24011 11.5893 4.81453 12.66 4.81256C13.0604 4.81249 13.4568 4.89131 13.8267 5.04451C14.1966 5.19772 14.5326 5.4223 14.8157 5.70543C15.0987 5.98856 15.3232 6.32469 15.4763 6.69461C15.6295 7.06454 15.7082 7.461 15.708 7.86136C15.7078 8.58351 15.6066 9.30208 15.4072 9.99616L15.8877 10.1349C16.1003 9.39575 16.208 8.63043 16.2077 7.86136C16.2078 7.39537 16.1162 6.93393 15.938 6.50337C15.7597 6.07282 15.4984 5.68159 15.169 5.35204C14.8395 5.02249 14.4484 4.76107 14.0179 4.58271C13.5874 4.40436 13.126 4.31256 12.66 4.31256C11.4569 4.31461 10.3036 4.79277 9.45193 5.64256C8.6003 6.49235 8.11965 7.64468 8.115 8.84776L8.1111 12.9435L9.4266 14.2589C9.58451 14.4169 9.69203 14.6182 9.73557 14.8373C9.77911 15.0565 9.75672 15.2836 9.67122 15.49C9.58572 15.6964 9.44096 15.8728 9.25522 15.997C9.06949 16.1211 8.85111 16.1875 8.6277 16.1876H8.6279ZM12.6162 1.00006C10.6324 0.967631 8.71665 1.72312 7.28897 3.1009C5.86128 4.47869 5.03815 6.36634 5 8.35006H5.5C5.53794 6.49889 6.30833 4.73829 7.64229 3.45423C8.97625 2.17017 10.7649 1.46742 12.6162 1.50006C14.3987 1.46063 16.1242 2.12943 17.4145 3.3599C18.7049 4.59037 19.4548 6.28216 19.5 8.06456C19.4992 9.63154 19.1796 11.182 18.5607 12.6216C17.9418 14.0612 17.0366 15.3598 15.9 16.4386L10.4619 21.6801C9.90681 22.2069 9.1706 22.5004 8.4053 22.5001C7.65027 22.514 6.92051 22.2281 6.37592 21.7049C5.83134 21.1817 5.51636 20.464 5.5 19.7091V17.3751H5V19.7091C5.01641 20.5966 5.38409 21.4415 6.02243 22.0584C6.66077 22.6753 7.51768 23.0139 8.4053 23.0001C9.30122 23.0047 10.1637 22.66 10.8096 22.0392L16.248 16.798C17.4328 15.6727 18.3764 14.3182 19.0214 12.8168C19.6664 11.3154 19.9994 9.6986 20 8.06456C19.9546 6.14961 19.1519 4.33075 17.7679 3.00656C16.3838 1.68236 14.5313 0.960824 12.6162 1.00006Z" fill="black"/>
</svg>
