<svg width="24" height="24" viewBox="0 0 24 24" fill="none" xmlns="http://www.w3.org/2000/svg">
<path d="M18.6807 5.12803C18.4124 5.1276 18.1462 5.17501 17.8945 5.26803V4.57633C17.8946 4.19501 17.7994 3.81971 17.6174 3.48463C17.4354 3.14955 17.1724 2.86534 16.8524 2.65789C16.5325 2.45045 16.1657 2.32636 15.7855 2.29693C15.4054 2.26751 15.0239 2.33368 14.6758 2.48943C14.5117 2.05486 14.2192 1.68057 13.8371 1.41641C13.4551 1.15224 13.0016 1.01074 12.5371 1.01074C12.0726 1.01074 11.6191 1.15224 11.237 1.41641C10.855 1.68057 10.5624 2.05486 10.3984 2.48943C10.0503 2.33361 9.66866 2.26738 9.28838 2.29676C8.9081 2.32615 8.54122 2.45021 8.22115 2.65765C7.90107 2.86509 7.63799 3.14931 7.45586 3.48443C7.27373 3.81955 7.17834 4.19491 7.17839 4.57633L7.26529 13.1563L6.39809 11.4884C6.03076 10.9111 5.45605 10.4965 4.79229 10.3301C4.12853 10.1637 3.42624 10.2581 2.82999 10.5939L1.92469 11.0909C1.71336 11.2115 1.55623 11.4085 1.48556 11.6413C1.41489 11.8741 1.43605 12.1252 1.54469 12.3429L4.25959 17.7629C5.11838 19.3446 6.38827 20.6651 7.93522 21.5851C9.48216 22.505 11.2488 22.9902 13.0486 22.9895C15.1477 22.9873 17.1602 22.1525 18.6446 20.6683C20.129 19.1841 20.9641 17.1716 20.9666 15.0725V7.41323C20.9658 6.80728 20.7246 6.22641 20.2961 5.79801C19.8676 5.36961 19.2866 5.12866 18.6807 5.12803ZM19.4668 15.0724C19.4647 16.7739 18.7878 18.405 17.5847 19.608C16.3815 20.811 14.7502 21.4876 13.0488 21.4894C11.5229 21.4911 10.0248 21.0814 8.71221 20.3034C7.39958 19.5254 6.321 18.4079 5.58999 17.0685L3.12299 12.1446L3.56149 11.9034C3.82403 11.755 4.1335 11.7128 4.42619 11.7857C4.71887 11.8585 4.97248 12.0408 5.13479 12.295L7.08689 15.3487C7.18244 15.471 7.30858 15.5659 7.45256 15.6239C7.59654 15.6818 7.75326 15.7007 7.90689 15.6787L7.91119 15.7025C8.8136 15.5007 9.75611 15.5786 10.6131 15.926C11.4701 16.2733 12.2009 16.8736 12.7081 17.6468L14.0108 16.9027C13.4464 16.0096 12.6556 15.2817 11.7188 14.7932C10.782 14.3046 9.73253 14.0727 8.67709 14.1211L8.67889 4.57733C8.67766 4.47334 8.69707 4.37015 8.73599 4.27372C8.77492 4.17729 8.83259 4.08954 8.90567 4.01555C8.97874 3.94157 9.06577 3.88281 9.16171 3.84269C9.25765 3.80257 9.36059 3.78188 9.46458 3.78182C9.56857 3.78176 9.67154 3.80233 9.76753 3.84234C9.86351 3.88236 9.95061 3.94101 10.0238 4.01491C10.0969 4.08882 10.1547 4.1765 10.1937 4.27289C10.2328 4.36927 10.2523 4.47244 10.2512 4.57643V10.9924H11.7512V3.29603C11.7512 3.08754 11.834 2.88759 11.9814 2.74017C12.1289 2.59275 12.3288 2.50993 12.5373 2.50993C12.7458 2.50993 12.9457 2.59275 13.0931 2.74017C13.2406 2.88759 13.3234 3.08754 13.3234 3.29603V10.9923H14.8234V4.57633C14.8222 4.47241 14.8417 4.36929 14.8806 4.27294C14.9196 4.17659 14.9773 4.08893 15.0503 4.01503C15.1234 3.94113 15.2104 3.88246 15.3063 3.84242C15.4022 3.80238 15.5051 3.78176 15.609 3.78176C15.713 3.78176 15.8159 3.80238 15.9118 3.84242C16.0077 3.88246 16.0947 3.94113 16.1677 4.01503C16.2408 4.08893 16.2985 4.17659 16.3374 4.27294C16.3764 4.36929 16.3959 4.47241 16.3947 4.57633V12.0001H17.8947V7.41323C17.897 7.20626 17.9809 7.00857 18.1281 6.86304C18.2752 6.71751 18.4739 6.63589 18.6808 6.63589C18.8878 6.63589 19.0864 6.71751 19.2336 6.86304C19.3808 7.00857 19.4647 7.20626 19.467 7.41323L19.4668 15.0724Z" fill="black"/>
</svg>
