<svg width="24" height="24" viewBox="0 0 24 24" fill="none" xmlns="http://www.w3.org/2000/svg">
<path d="M0 18H2V9.99999H0V18ZM22 5.99999V14H24V5.99999H22ZM9.7617 9.99999H3V18.1865L5.0449 23.4746L7.4512 22.5713C8.02344 22.358 8.49581 21.9393 8.77634 21.3969C9.05687 20.8544 9.12547 20.227 8.9688 19.6367L8.5449 18.0186H10.248C10.7126 18.0179 11.158 17.833 11.4865 17.5044C11.8149 17.1757 11.9996 16.7302 12 16.2656V15.0756C12.0118 13.3647 11.3673 11.7144 10.1992 10.4643L9.7617 9.99999ZM10.2 16.2186H6.2128L6.8037 18.4746L7.2283 20.0958C7.27201 20.2549 7.25407 20.4247 7.17806 20.5711C7.10205 20.7176 6.97357 20.8299 6.8183 20.8858L6.0806 21.1627L4.8 17.8506V11.8H8.9822C9.77647 12.7052 10.2099 13.871 10.2 15.0752V16.2186ZM16.5488 1.42859C15.9766 1.64191 15.5042 2.06055 15.2237 2.60301C14.9431 3.14548 14.8745 3.77292 15.0312 4.36319L15.4551 5.98129H13.752C13.2874 5.98195 12.8419 6.1669 12.5135 6.49556C12.185 6.82422 12.0004 7.26974 12 7.73439V8.92439C11.9882 10.6353 12.6327 12.2856 13.8008 13.5357L14.2383 14H21V5.81349L18.9551 0.525391L16.5488 1.42859ZM19.2 12.2H15.0178C14.2235 11.2948 13.7901 10.129 13.8 8.92479V7.78139H17.7872L17.1963 5.52539L16.7717 3.90419C16.728 3.74508 16.7459 3.57533 16.8219 3.42887C16.8979 3.28241 17.0264 3.17003 17.1817 3.11419L17.9194 2.83729L19.2 6.14939V12.2Z" fill="black"/>
</svg>
