<svg width="24" height="24" viewBox="0 0 24 24" fill="none" xmlns="http://www.w3.org/2000/svg">
<path d="M12 5.88916C12.2966 5.88916 12.5867 5.80119 12.8333 5.63637C13.08 5.47154 13.2723 5.23727 13.3858 4.96319C13.4993 4.6891 13.529 4.3875 13.4712 4.09653C13.4133 3.80555 13.2704 3.53828 13.0606 3.3285C12.8509 3.11872 12.5836 2.97586 12.2926 2.91798C12.0016 2.86011 11.7 2.88981 11.4259 3.00334C11.1519 3.11687 10.9176 3.30913 10.7528 3.55581C10.5879 3.80248 10.5 4.09249 10.5 4.38916C10.5 4.78699 10.658 5.16852 10.9393 5.44982C11.2206 5.73113 11.6021 5.88916 12 5.88916ZM12 3.38916C12.1978 3.38916 12.3911 3.44781 12.5555 3.55769C12.72 3.66757 12.8482 3.82375 12.9239 4.00648C12.9995 4.1892 13.0193 4.39027 12.9808 4.58425C12.9422 4.77823 12.8469 4.95642 12.7071 5.09627C12.5672 5.23612 12.389 5.33136 12.1951 5.36995C12.0011 5.40853 11.8 5.38873 11.6173 5.31304C11.4346 5.23735 11.2784 5.10918 11.1685 4.94473C11.0586 4.78028 11 4.58694 11 4.38916C11.0003 4.12403 11.1057 3.86985 11.2932 3.68238C11.4807 3.4949 11.7348 3.38945 12 3.38916ZM8.95347 8.22836V13.9999H10.2188V19.9999H13.7812V13.9999H15.0465V8.22836C14.6464 7.82829 14.1714 7.51093 13.6487 7.29442C13.126 7.0779 12.5658 6.96646 12 6.96646C11.4342 6.96646 10.8739 7.0779 10.3512 7.29442C9.8285 7.51093 9.35355 7.82829 8.95347 8.22836ZM14.5465 13.4999H13.2812V19.4999H10.7188V13.4999H9.45347V8.44286C10.1527 7.81424 11.0597 7.46646 12 7.46646C12.9402 7.46646 13.8473 7.81424 14.5465 8.44286V13.4999ZM19.093 8.96646C18.5271 8.96575 17.9666 9.07686 17.4438 9.29342C16.921 9.50997 16.4461 9.82771 16.0465 10.2284V15.9999H17.3117V19.9999H20.8742V15.9999H22.14V10.2284C21.7403 9.82765 21.2653 9.50988 20.7424 9.29332C20.2195 9.07676 19.659 8.96568 19.093 8.96646ZM21.64 15.4999H20.3742V19.4999H17.8117V15.4999H16.5465V10.4429C17.2457 9.81424 18.1527 9.46646 19.093 9.46646C20.0332 9.46646 20.9403 9.81424 21.6395 10.4429L21.64 15.4999ZM1.86047 10.2284V15.9999H3.12577V19.9999H6.68827V15.9999H7.95347V10.2284C7.5534 9.82829 7.07845 9.51093 6.55573 9.29442C6.03301 9.0779 5.47276 8.96646 4.90697 8.96646C4.34119 8.96646 3.78094 9.0779 3.25822 9.29442C2.7355 9.51093 2.26055 9.82829 1.86047 10.2284ZM7.45347 15.4999H6.18827V19.4999H3.62577V15.4999H2.36047V10.4429C3.0597 9.81424 3.96672 9.46646 4.90697 9.46646C5.84723 9.46646 6.75425 9.81424 7.45347 10.4429V15.4999ZM19.0935 7.88916C19.3901 7.88916 19.6802 7.80119 19.9268 7.63637C20.1735 7.47154 20.3658 7.23728 20.4793 6.96319C20.5928 6.6891 20.6225 6.3875 20.5647 6.09653C20.5068 5.80555 20.3639 5.53828 20.1541 5.3285C19.9444 5.11872 19.6771 4.97586 19.3861 4.91798C19.0951 4.86011 18.7935 4.88981 18.5194 5.00334C18.2454 5.11687 18.0111 5.30913 17.8463 5.55581C17.6814 5.80248 17.5935 6.09249 17.5935 6.38916C17.5935 6.7869 17.7514 7.16835 18.0326 7.44964C18.3138 7.73093 18.6952 7.88903 19.093 7.88916H19.0935ZM19.0935 5.38916C19.2913 5.38916 19.4846 5.44781 19.649 5.55769C19.8135 5.66757 19.9417 5.82375 20.0174 6.00648C20.093 6.1892 20.1128 6.39027 20.0743 6.58425C20.0357 6.77823 19.9404 6.95642 19.8006 7.09627C19.6607 7.23612 19.4825 7.33136 19.2886 7.36995C19.0946 7.40853 18.8935 7.38873 18.7108 7.31304C18.5281 7.23735 18.3719 7.10918 18.262 6.94473C18.1521 6.78028 18.0935 6.58694 18.0935 6.38916C18.0938 6.12413 18.1992 5.87003 18.3865 5.68258C18.5739 5.49513 18.8279 5.38961 19.093 5.38916H19.0935ZM4.90747 7.88916C5.20415 7.88916 5.49416 7.80119 5.74083 7.63637C5.9875 7.47154 6.17976 7.23728 6.29329 6.96319C6.40682 6.6891 6.43653 6.3875 6.37865 6.09653C6.32077 5.80555 6.17791 5.53828 5.96813 5.3285C5.75836 5.11872 5.49108 4.97586 5.20011 4.91798C4.90914 4.86011 4.60754 4.88981 4.33345 5.00334C4.05936 5.11687 3.82509 5.30913 3.66027 5.55581C3.49545 5.80248 3.40747 6.09249 3.40747 6.38916C3.40747 6.7869 3.56544 7.16835 3.84664 7.44964C4.12783 7.73093 4.50924 7.88903 4.90697 7.88916H4.90747ZM4.90747 5.38916C5.10525 5.38916 5.29859 5.44781 5.46304 5.55769C5.62749 5.66757 5.75567 5.82375 5.83135 6.00648C5.90704 6.1892 5.92684 6.39027 5.88826 6.58425C5.84967 6.77823 5.75443 6.95642 5.61458 7.09627C5.47473 7.23612 5.29654 7.33136 5.10256 7.36995C4.90858 7.40853 4.70752 7.38873 4.52479 7.31304C4.34206 7.23735 4.18589 7.10918 4.076 6.94473C3.96612 6.78028 3.90747 6.58694 3.90747 6.38916C3.90776 6.12412 4.01315 5.87001 4.20051 5.68255C4.38788 5.49509 4.64193 5.38958 4.90697 5.38916H4.90747Z" fill="black"/>
</svg>
