<svg width="24" height="24" viewBox="0 0 24 24" fill="none" xmlns="http://www.w3.org/2000/svg">
<path d="M17.6251 9.4432H18.1251V6.746H20.8222V6.246H18.125V3.5489H17.625V6.246H14.9279V6.746H17.6251V9.4432ZM23.7757 14.675C22.2141 13.1163 20.099 12.2389 17.8926 12.2346C15.6862 12.2303 13.5677 13.0993 12 14.6519C10.4323 13.0993 8.3138 12.2303 6.10739 12.2346C3.90097 12.2389 1.78593 13.1163 0.2243 14.675L0 14.8994V20H24V14.8994L23.7757 14.675ZM11.75 19.5H0.5V15.1064L0.5779 15.0286C2.05026 13.5596 4.04519 12.7346 6.12505 12.7346C8.20491 12.7346 10.1998 13.5596 11.6722 15.0286L11.75 15.1064V19.5ZM23.5 19.5H12.25V15.1064L12.3279 15.0286C13.8003 13.5596 15.7952 12.7346 17.875 12.7346C19.9549 12.7346 21.9498 13.5596 23.4222 15.0286L23.5 15.1064V19.5ZM6.125 9.6836C6.75543 9.6836 7.3717 9.49665 7.89588 9.1464C8.42006 8.79616 8.82861 8.29834 9.06987 7.7159C9.31112 7.13346 9.37424 6.49256 9.25125 5.87424C9.12826 5.25593 8.82468 4.68797 8.3789 4.24219C7.93312 3.79641 7.36516 3.49283 6.74685 3.36984C6.12854 3.24685 5.48764 3.30997 4.9052 3.55123C4.32276 3.79248 3.82494 4.20103 3.47469 4.72521C3.12444 5.2494 2.9375 5.86567 2.9375 6.4961C2.93853 7.34116 3.27469 8.15131 3.87224 8.74886C4.46979 9.34641 5.27994 9.68256 6.125 9.6836ZM6.125 3.8086C6.65654 3.8086 7.17614 3.96621 7.61809 4.26152C8.06005 4.55683 8.40452 4.97656 8.60793 5.46763C8.81134 5.95871 8.86456 6.49908 8.76086 7.0204C8.65716 7.54172 8.4012 8.02059 8.02535 8.39644C7.6495 8.7723 7.17063 9.02826 6.64931 9.13196C6.12798 9.23565 5.58761 9.18243 5.09654 8.97902C4.60546 8.77561 4.18573 8.43115 3.89043 7.98919C3.59512 7.54723 3.4375 7.02763 3.4375 6.4961C3.43829 5.78357 3.7217 5.10045 4.22553 4.59662C4.72936 4.09279 5.41247 3.80939 6.125 3.8086Z" fill="black"/>
</svg>
