<svg width="24" height="24" viewBox="0 0 24 24" fill="none" xmlns="http://www.w3.org/2000/svg">
<path d="M11 5.5C11.3461 5.5 11.6845 5.39737 11.9722 5.20507C12.26 5.01278 12.4843 4.73947 12.6168 4.4197C12.7492 4.09993 12.7839 3.74806 12.7164 3.40859C12.6489 3.06913 12.4822 2.75731 12.2374 2.51256C11.9927 2.26782 11.6809 2.10115 11.3414 2.03363C11.0019 1.9661 10.6501 2.00076 10.3303 2.13321C10.0105 2.26566 9.73722 2.48997 9.54493 2.77775C9.35264 3.06554 9.25 3.40388 9.25 3.75C9.25 4.21413 9.43437 4.65925 9.76256 4.98744C10.0908 5.31563 10.5359 5.5 11 5.5ZM14.627 11.2119L14 10.5854V9.5C13.9993 8.83717 13.7357 8.20169 13.267 7.73299C12.7983 7.2643 12.1628 7.00069 11.5 7H9.5C9.10231 7.00045 8.72104 7.15863 8.43984 7.43984C8.15863 7.72104 8.00045 8.10231 8 8.5V19H10V24H12V19H16V14.5283C16.0016 13.9122 15.8811 13.3019 15.6454 12.7327C15.4098 12.1634 15.0636 11.6466 14.627 11.2119ZM14 17H10V9H11.5C11.6326 9 11.7598 9.05268 11.8536 9.14645C11.9473 9.24021 12 9.36739 12 9.5V11.4143L12.5863 12L13.2119 12.6251C13.4625 12.8745 13.6612 13.1711 13.7964 13.4978C13.9317 13.8245 14.0009 14.1747 14 14.5283V17Z" fill="black"/>
</svg>
