<svg width="24" height="24" viewBox="0 0 24 24" fill="none" xmlns="http://www.w3.org/2000/svg">
<path d="M5.459 8.42549C5.83478 8.42549 6.20213 8.31406 6.51458 8.10528C6.82704 7.89651 7.07056 7.59977 7.21437 7.25259C7.35818 6.90541 7.3958 6.52338 7.32249 6.15482C7.24918 5.78625 7.06822 5.44771 6.8025 5.18199C6.53678 4.91627 6.19824 4.73531 5.82967 4.662C5.46111 4.58869 5.07908 4.62631 4.7319 4.77012C4.38472 4.91392 4.08798 5.15745 3.87921 5.46991C3.67043 5.78236 3.559 6.1497 3.559 6.52549C3.559 6.775 3.60814 7.02207 3.70363 7.25259C3.79911 7.48311 3.93907 7.69256 4.1155 7.86899C4.47182 8.22531 4.95509 8.42549 5.459 8.42549ZM5.459 5.52549C5.65678 5.52549 5.85012 5.58414 6.01457 5.69402C6.17902 5.8039 6.30719 5.96008 6.38288 6.14281C6.45857 6.32553 6.47837 6.5266 6.43979 6.72058C6.4012 6.91456 6.30596 7.09274 6.16611 7.2326C6.02625 7.37245 5.84807 7.46769 5.65409 7.50627C5.46011 7.54486 5.25904 7.52506 5.07632 7.44937C4.89359 7.37368 4.73741 7.24551 4.62753 7.08106C4.51765 6.91661 4.459 6.72327 4.459 6.52549C4.45929 6.26036 4.56474 6.00618 4.75221 5.8187C4.93969 5.63123 5.19387 5.52578 5.459 5.52549ZM21 13.09V11.7C21 10.5245 20.5858 9.38658 19.8302 8.48609C19.0746 7.58561 18.0259 6.98013 16.8683 6.77599L11.9413 5.90719C11.5533 5.83842 11.1555 5.84684 10.7707 5.93197C10.386 6.0171 10.0218 6.17727 9.69895 6.4033C9.37615 6.62934 9.10109 6.91681 8.88951 7.24927C8.67793 7.58173 8.53398 7.95264 8.4659 8.34079L8.0319 10.8029L1.1382 9.58729L0.9645 10.5721L4 11.1074V18H20V13.9286L22.63 14.3924L22.8037 13.4076L21 13.09ZM19 17H5V11.2927L19 13.7527V17ZM20 12.9131L9.0167 10.9765L9.4507 8.51449C9.53133 8.0515 9.77278 7.63182 10.1325 7.32939C10.4922 7.02697 10.9471 6.8612 11.4171 6.86129C11.4796 6.86124 11.5421 6.86458 11.6043 6.87129C11.6589 6.87549 11.7789 6.89399 11.8331 6.90349L16.6946 7.76069C17.5972 7.91846 18.4178 8.38254 19.0181 9.07472C19.6184 9.76691 19.9618 10.6449 19.9904 11.5607C19.9967 11.6064 20.0004 12.082 20.0004 12.1292L20 12.9131Z" fill="black"/>
</svg>
