<svg width="24" height="24" viewBox="0 0 24 24" fill="none" xmlns="http://www.w3.org/2000/svg">
<path d="M13 1.10889V2.52369C14.8046 2.75764 16.4629 3.63823 17.6675 5.00207C18.872 6.36592 19.5409 8.1204 19.55 9.93999V13.0113C19.5499 14.1312 19.2 15.2231 18.5493 16.1346L19.5478 17.1331C20.4562 15.9511 20.9491 14.5024 20.9501 13.0117V9.93999C20.9405 7.74862 20.1249 5.63739 18.6587 4.00873C17.1926 2.38007 15.1784 1.34787 13 1.10889ZM11.0001 2.52369V1.10889C8.82173 1.34787 6.80752 2.38007 5.34135 4.00873C3.87519 5.63739 3.0596 7.74862 3.05005 9.93999V13.0113C3.04891 15.5654 3.94946 18.0379 5.59295 19.993L6.58875 18.9972C5.20573 17.309 4.45 15.194 4.45005 13.0117V9.93999C4.4592 8.1204 5.12811 6.36592 6.33264 5.00207C7.53717 3.63823 9.19555 2.75764 11.0001 2.52369ZM7.01075 21.4037C8.99086 23.0517 11.4864 23.9528 14.0625 23.95V22.55C11.8576 22.5524 9.71887 21.7964 8.00515 20.409L7.01075 21.4037ZM14.0625 18.4545C12.6137 18.4587 11.2223 17.8881 10.1936 16.8679C9.16491 15.8476 8.5829 14.4609 8.57525 13.0121V9.93999C8.57525 9.03162 8.9361 8.16046 9.57841 7.51815C10.2207 6.87583 11.0919 6.51499 12.0002 6.51499C12.9086 6.51499 13.7798 6.87583 14.4221 7.51815C15.0644 8.16046 15.4253 9.03162 15.4253 9.93999V13.0113C15.4209 13.3697 15.2755 13.712 15.0205 13.964C14.7654 14.2159 14.4214 14.3572 14.0629 14.3572C13.7045 14.3572 13.3604 14.2159 13.1054 13.964C12.8504 13.712 12.705 13.3697 12.7006 13.0113V9.93999H11.3V13.0113C11.3 13.744 11.5911 14.4467 12.1092 14.9648C12.6273 15.4829 13.33 15.774 14.0627 15.774C14.7955 15.774 15.4982 15.4829 16.0163 14.9648C16.5344 14.4467 16.8254 13.744 16.8254 13.0113V9.93999C16.8113 8.66964 16.2967 7.45613 15.3934 6.56282C14.4901 5.66951 13.2709 5.16849 12.0004 5.16849C10.73 5.16849 9.51085 5.66951 8.60752 6.56282C7.7042 7.45613 7.18962 8.66964 7.17545 9.93999V13.0113C7.18303 14.2786 7.54031 15.5192 8.2079 16.5964C8.87549 17.6736 9.82749 18.5457 10.959 19.1164C12.0905 19.6872 13.3576 19.9345 14.6207 19.8312C15.8838 19.7278 17.0939 19.2778 18.1175 18.5307L17.1175 17.5301C16.2133 18.134 15.1499 18.4556 14.0625 18.4541V18.4545Z" fill="black"/>
</svg>
