<svg width="24" height="24" viewBox="0 0 24 24" fill="none" xmlns="http://www.w3.org/2000/svg">
<path d="M12.2917 5.49463C12.6378 5.49463 12.9762 5.39199 13.2639 5.1997C13.5517 5.00741 13.776 4.7341 13.9085 4.41433C14.0409 4.09455 14.0756 3.74269 14.0081 3.40322C13.9405 3.06375 13.7739 2.75193 13.5291 2.50719C13.2844 2.26245 12.9726 2.09578 12.6331 2.02826C12.2936 1.96073 11.9418 1.99539 11.622 2.12784C11.3022 2.26029 11.0289 2.4846 10.8366 2.77238C10.6443 3.06017 10.5417 3.39851 10.5417 3.74463C10.5417 4.20876 10.7261 4.65388 11.0543 4.98207C11.3824 5.31026 11.8276 5.49463 12.2917 5.49463ZM12.2917 2.49463C12.5389 2.49463 12.7806 2.56794 12.9862 2.70529C13.1917 2.84264 13.3519 3.03787 13.4465 3.26628C13.5412 3.49468 13.5659 3.74602 13.5177 3.98849C13.4694 4.23097 13.3504 4.4537 13.1756 4.62851C13.0008 4.80333 12.778 4.92238 12.5356 4.97061C12.2931 5.01884 12.0417 4.99409 11.8133 4.89948C11.5849 4.80487 11.3897 4.64465 11.2524 4.43909C11.115 4.23353 11.0417 3.99186 11.0417 3.74463C11.0421 3.41322 11.1739 3.0955 11.4082 2.86116C11.6426 2.62682 11.9603 2.495 12.2917 2.49463ZM16.9379 13.2546H14.625V9.49983C14.625 8.83679 14.3616 8.2009 13.8928 7.73206C13.4239 7.26322 12.788 6.99983 12.125 6.99983H11.5C11.1022 6.99983 10.7206 7.15787 10.4393 7.43917C10.158 7.72047 10 8.10201 10 8.49983V13.9998C10 14.5303 10.2107 15.039 10.5858 15.414C10.9609 15.7891 11.4696 15.9998 12 15.9998H16.488V21.9998H19.1533V15.4698C19.1533 15.1789 19.0961 14.8908 18.9847 14.6219C18.8734 14.3531 18.7102 14.1089 18.5045 13.9031C18.2988 13.6974 18.0546 13.5341 17.7858 13.4228C17.517 13.3114 17.2289 13.2541 16.9379 13.2541V13.2546ZM18.6533 21.4998H16.988V15.4998H12C11.6023 15.4994 11.221 15.3412 10.9398 15.06C10.6586 14.7788 10.5004 14.3975 10.5 13.9998V8.49983C10.5003 8.2347 10.6057 7.98052 10.7932 7.79304C10.9807 7.60557 11.2349 7.50012 11.5 7.49983H12.125C12.6552 7.50044 13.1636 7.71135 13.5385 8.08629C13.9135 8.46123 14.1244 8.96958 14.125 9.49983V13.7541H16.9379C17.3927 13.7546 17.8288 13.9356 18.1504 14.2572C18.472 14.5789 18.6529 15.015 18.6533 15.4698V21.4998ZM14.6633 18.0047H11.7533C10.7591 18.0035 9.80601 17.608 9.10302 16.905C8.40003 16.202 8.00454 15.2489 8.0033 14.2547V7.25473C8.0033 7.18843 7.97696 7.12484 7.93007 7.07795C7.88319 7.03107 7.8196 7.00473 7.7533 7.00473C7.68699 7.00473 7.6234 7.03107 7.57652 7.07795C7.52963 7.12484 7.5033 7.18843 7.5033 7.25473V14.2547C7.50449 15.3815 7.95264 16.4618 8.74941 17.2586C9.54618 18.0554 10.6265 18.5035 11.7533 18.5047H14.6633C14.7296 18.5047 14.7932 18.4784 14.8401 18.4315C14.887 18.3846 14.9133 18.321 14.9133 18.2547C14.9133 18.1884 14.887 18.1248 14.8401 18.078C14.7932 18.0311 14.7296 18.0047 14.6633 18.0047Z" fill="black"/>
</svg>
