<svg width="24" height="24" viewBox="0 0 24 24" fill="none" xmlns="http://www.w3.org/2000/svg">
<path d="M15.13 4.25005C15.6997 5.23844 15.9996 6.35922 15.9996 7.50005C15.9996 8.64087 15.6997 9.76166 15.13 10.75L16.8614 11.752C17.6071 10.459 17.9996 8.99266 17.9996 7.50005C17.9996 6.00743 17.6071 4.54106 16.8614 3.24805L15.13 4.25005ZM20.3263 1.24805L18.5952 2.25005C19.5155 3.84666 20 5.65716 20 7.50005C20 9.34293 19.5155 11.1534 18.5952 12.75L20.3267 13.752C21.4229 11.8508 22 9.69471 22 7.50005C22 5.30539 21.4229 3.14931 20.3267 1.24805H20.3263ZM9.875 10.6875C10.5054 10.6875 11.1217 10.5006 11.6459 10.1504C12.1701 9.80011 12.5786 9.30229 12.8199 8.71985C13.0611 8.13741 13.1242 7.49651 13.0013 6.8782C12.8783 6.25988 12.5747 5.69192 12.1289 5.24614C11.6831 4.80036 11.1152 4.49678 10.4969 4.37379C9.87854 4.2508 9.23764 4.31393 8.6552 4.55518C8.07276 4.79643 7.57494 5.20498 7.22469 5.72917C6.87444 6.25335 6.6875 6.86962 6.6875 7.50005C6.68853 8.34511 7.02469 9.15526 7.62224 9.75281C8.21979 10.3504 9.02994 10.6865 9.875 10.6875ZM9.875 13.2346C8.77922 13.2327 7.69386 13.4473 6.68124 13.866C5.66862 14.2847 4.74869 14.8994 3.9743 15.6746L3.75 15.899V21H16V15.8994L15.7757 15.675C15.0013 14.8997 14.0814 14.285 13.0688 13.8662C12.0562 13.4474 10.9708 13.2327 9.875 13.2346Z" fill="black"/>
</svg>
