<svg width="24" height="24" viewBox="0 0 24 24" fill="none" xmlns="http://www.w3.org/2000/svg">
<path d="M9.60779 5.49463C9.95391 5.49463 10.2923 5.39199 10.58 5.1997C10.8678 5.00741 11.0921 4.7341 11.2246 4.41433C11.357 4.09455 11.3917 3.74269 11.3242 3.40322C11.2566 3.06375 11.09 2.75193 10.8452 2.50719C10.6005 2.26245 10.2887 2.09578 9.9492 2.02826C9.60974 1.96073 9.25787 1.99539 8.9381 2.12784C8.61833 2.26029 8.34501 2.4846 8.15272 2.77238C7.96043 3.06017 7.85779 3.39851 7.85779 3.74463C7.85779 4.20876 8.04217 4.65388 8.37036 4.98207C8.69855 5.31026 9.14366 5.49463 9.60779 5.49463ZM14.8828 17.9939H11.5918C10.7104 17.9896 9.85661 17.6864 9.16997 17.1338C8.48333 16.5812 8.0045 15.812 7.81179 14.9519L6.15229 7.38653C6.13909 7.32151 6.11308 7.25977 6.07578 7.2049C6.03848 7.15003 5.99063 7.10314 5.93502 7.06695C5.87941 7.03076 5.81716 7.006 5.75188 6.99411C5.68661 6.98222 5.61962 6.98344 5.55483 6.9977C5.49003 7.01196 5.42872 7.03898 5.37447 7.07717C5.32022 7.11536 5.27411 7.16397 5.23883 7.22016C5.20355 7.27635 5.17981 7.339 5.16899 7.40446C5.15817 7.46992 5.16048 7.53687 5.17579 7.60143L6.83499 15.1668C7.07745 16.2491 7.68003 17.217 8.54414 17.9122C9.40826 18.6074 10.4827 18.9888 11.5918 18.9939H14.8828C15.0154 18.9939 15.1426 18.9413 15.2363 18.8475C15.3301 18.7537 15.3828 18.6265 15.3828 18.4939C15.3828 18.3613 15.3301 18.2341 15.2363 18.1404C15.1426 18.0466 15.0154 17.9939 14.8828 17.9939ZM18.44 15.5698C18.34 15.1259 18.0925 14.7289 17.7379 14.4437C17.3832 14.1586 16.9424 14.0021 16.4873 13.9998H14.2154L12.78 8.66513C12.6514 8.18721 12.3688 7.76504 11.976 7.46398C11.5831 7.16292 11.102 6.99979 10.6071 6.99983H9.27419C9.07468 6.99984 8.87784 7.04577 8.69892 7.13406C8.52001 7.22236 8.36382 7.35065 8.24245 7.50901C8.12107 7.66736 8.03778 7.85153 7.99901 8.04724C7.96025 8.24296 7.96705 8.44497 8.01889 8.63763L9.66799 14.7662C9.76327 15.1202 9.9726 15.4329 10.2636 15.656C10.5545 15.879 10.9109 15.9998 11.2775 15.9998H16.4875L17.8075 21.9998H19.8552L18.44 15.5698Z" fill="black"/>
</svg>
