<svg width="24" height="24" viewBox="0 0 24 24" fill="none" xmlns="http://www.w3.org/2000/svg">
<path d="M12 18.3077C12.7468 18.3146 13.4787 18.0988 14.1021 17.6877C14.7256 17.2766 15.2123 16.6889 15.5 15.9998H8.50002C8.78779 16.6889 9.2745 17.2765 9.89795 17.6876C10.5214 18.0987 11.2533 18.3146 12 18.3077ZM13.9531 16.7998C13.4051 17.2571 12.7139 17.5076 12 17.5076C11.2862 17.5076 10.595 17.2571 10.0469 16.7998H13.9531ZM15 12.2498C14.8517 12.2498 14.7067 12.2937 14.5833 12.3762C14.46 12.4586 14.3639 12.5757 14.3071 12.7127C14.2503 12.8498 14.2355 13.0006 14.2644 13.1461C14.2934 13.2916 14.3648 13.4252 14.4697 13.5301C14.5746 13.635 14.7082 13.7064 14.8537 13.7353C14.9992 13.7643 15.15 13.7494 15.287 13.6927C15.4241 13.6359 15.5412 13.5398 15.6236 13.4164C15.706 13.2931 15.75 13.1481 15.75 12.9998C15.75 12.8008 15.671 12.6101 15.5304 12.4694C15.3897 12.3288 15.1989 12.2498 15 12.2498ZM9.75002 12.9998C9.75002 12.8514 9.70604 12.7064 9.62363 12.5831C9.54121 12.4597 9.42408 12.3636 9.28704 12.3068C9.14999 12.2501 8.99919 12.2352 8.85371 12.2642C8.70822 12.2931 8.57458 12.3645 8.46969 12.4694C8.3648 12.5743 8.29337 12.708 8.26443 12.8534C8.2355 12.9989 8.25035 13.1497 8.30711 13.2868C8.36388 13.4238 8.46001 13.5409 8.58335 13.6234C8.70668 13.7058 8.85169 13.7498 9.00002 13.7498C9.19894 13.7498 9.3897 13.6707 9.53035 13.5301C9.67101 13.3894 9.75002 13.1987 9.75002 12.9998ZM19.9376 10.0439C19.7051 8.1021 18.7689 6.31292 17.3062 5.01488C15.8435 3.71684 13.9557 3 12 3C10.0444 3 8.1566 3.71684 6.69386 5.01488C5.23113 6.31292 4.29493 8.1021 4.06242 10.0439C3.33461 10.148 2.67082 10.517 2.19828 11.0803C1.72573 11.6435 1.47768 12.3614 1.50165 13.0962C1.52562 13.831 1.81994 14.5312 2.32819 15.0624C2.83644 15.5937 3.52287 15.9187 4.25592 15.9752C4.69295 17.6975 5.69172 19.2251 7.09425 20.3162C8.49679 21.4073 10.2231 21.9997 12 21.9997C13.777 21.9997 15.5033 21.4073 16.9058 20.3162C18.3083 19.2251 19.3071 17.6975 19.7441 15.9752C20.4772 15.9187 21.1636 15.5937 21.6719 15.0624C22.1801 14.5312 22.4744 13.831 22.4984 13.0962C22.5224 12.3614 22.2743 11.6435 21.8018 11.0803C21.3292 10.517 20.6654 10.148 19.9376 10.0439ZM19.6624 14.9785L18.951 15.0368L18.775 15.7286C18.3925 17.2352 17.5186 18.5713 16.2916 19.5257C15.0646 20.4801 13.5545 20.9982 12 20.9982C10.4456 20.9982 8.93545 20.4801 7.70846 19.5257C6.48146 18.5713 5.60759 17.2352 5.22502 15.7286L5.04902 15.0368L4.33762 14.9785C3.84926 14.9421 3.39159 14.7264 3.05258 14.373C2.71358 14.0196 2.51717 13.5534 2.50112 13.0639C2.48506 12.5745 2.6505 12.0964 2.96562 11.7215C3.28073 11.3466 3.7233 11.1015 4.20822 11.0332L4.96482 10.9217L5.05542 10.1624C5.2054 8.91266 5.68987 7.72661 6.45773 6.7293C7.2256 5.732 8.24839 4.96042 9.41822 4.49596C9.14721 4.95096 9.00282 5.47017 9.00002 5.99976C9.00003 6.5931 9.17598 7.17311 9.50563 7.66645C9.83527 8.15979 10.3038 8.5443 10.852 8.77136C11.4002 8.99842 12.0033 9.05783 12.5853 8.94208C13.1672 8.82632 13.7018 8.54061 14.1213 8.12106L13.4135 7.41326C13.181 7.64602 12.8946 7.81782 12.5798 7.91343C12.265 8.00905 11.9315 8.02553 11.6088 7.96141C11.2861 7.89729 10.9842 7.75455 10.7299 7.54584C10.4756 7.33713 10.2766 7.06891 10.1508 6.76493C10.0249 6.46096 9.97595 6.13063 10.0083 5.80321C10.0406 5.4758 10.1532 5.16142 10.3361 4.88794C10.519 4.61446 10.7666 4.39032 11.0568 4.23539C11.347 4.08046 11.671 3.99952 12 3.99976C13.7109 4.00012 15.3623 4.6274 16.642 5.76297C17.9217 6.89854 18.7409 8.46366 18.9447 10.1624L19.0353 10.9217L19.7918 11.0332C20.2768 11.1015 20.7193 11.3466 21.0344 11.7215C21.3496 12.0964 21.515 12.5745 21.4989 13.0639C21.4829 13.5534 21.2865 14.0196 20.9475 14.373C20.6085 14.7264 20.1508 14.9421 19.6624 14.9785Z" fill="black"/>
</svg>
