<svg width="24" height="24" viewBox="0 0 24 24" fill="none" xmlns="http://www.w3.org/2000/svg">
<path d="M15.8594 5.70117C16.1561 5.70117 16.4461 5.6132 16.6928 5.44838C16.9394 5.28356 17.1317 5.04929 17.2452 4.7752C17.3588 4.50111 17.3885 4.19951 17.3306 3.90854C17.2727 3.61757 17.1298 3.35029 16.9201 3.14051C16.7103 2.93073 16.443 2.78787 16.152 2.72999C15.8611 2.67212 15.5595 2.70182 15.2854 2.81535C15.0113 2.92888 14.777 3.12114 14.6122 3.36782C14.4474 3.61449 14.3594 3.9045 14.3594 4.20117C14.3594 4.599 14.5174 4.98053 14.7987 5.26183C15.08 5.54314 15.4616 5.70117 15.8594 5.70117ZM16.7119 8.99977L14.2988 6.57977C13.9229 6.20464 13.4139 5.99332 12.8828 5.99187H9.1074C8.79327 5.99258 8.48368 6.06694 8.2035 6.20899C7.92331 6.35103 7.68034 6.5568 7.4941 6.80977L5.2941 9.80977L6.9074 10.9924L9.1074 7.99287H11.5605L6.9238 15.9998H2V17.9998H6.9238C7.27481 17.9992 7.61953 17.9066 7.92353 17.7311C8.22753 17.5556 8.48016 17.3034 8.6562 16.9998L10.3032 14.148L12.9238 16.7698V21.7798H14.9238V16.7698C14.9224 16.2394 14.7118 15.7309 14.3379 15.3548L11.34 12.3565L13.5093 8.61977L15.2959 10.4115C15.6718 10.7867 16.1808 10.9981 16.7119 10.9998H20.6357V8.99977H16.7119Z" fill="black"/>
</svg>
