<svg width="24" height="24" viewBox="0 0 24 24" fill="none" xmlns="http://www.w3.org/2000/svg">
<path d="M16.6152 9.25796L14.1221 6.75696C13.7932 6.4285 13.3476 6.2435 12.8828 6.24236H8.9756C8.74177 6.24288 8.51131 6.29818 8.30271 6.40383C8.09411 6.50949 7.91317 6.66256 7.7744 6.85076L5.4961 9.95716L6.7051 10.844L8.9756 7.74236H11.9956L7.0742 16.2502H2V17.7502H7.0742C7.33568 17.75 7.59251 17.681 7.81893 17.5503C8.04535 17.4195 8.23339 17.2315 8.3642 17.0051L10.25 13.7408L13.1743 16.6643V21.7795H14.6743V16.6643C14.6746 16.4676 14.636 16.2729 14.5608 16.0912C14.4855 15.9095 14.3751 15.7445 14.2359 15.6057L11.0276 12.3975L13.4566 8.21346L15.5542 10.3176C15.8315 10.5938 16.2068 10.7493 16.5982 10.7502H20.6362V9.25016L16.6152 9.25796ZM15.8594 5.55156C16.1264 5.55156 16.3874 5.47239 16.6094 5.32405C16.8314 5.17571 17.0045 4.96487 17.1066 4.71819C17.2088 4.47151 17.2355 4.20007 17.1835 3.93819C17.1314 3.67632 17.0028 3.43577 16.814 3.24697C16.6252 3.05817 16.3846 2.92959 16.1228 2.8775C15.8609 2.82541 15.5895 2.85215 15.3428 2.95433C15.0961 3.0565 14.8853 3.22954 14.7369 3.45154C14.5886 3.67355 14.5094 3.93456 14.5094 4.20156C14.5094 4.37885 14.5443 4.5544 14.6122 4.71819C14.68 4.88198 14.7794 5.0308 14.9048 5.15616C15.0302 5.28152 15.179 5.38096 15.3428 5.4488C15.5066 5.51664 15.6821 5.55156 15.8594 5.55156Z" fill="black"/>
</svg>
