<svg width="24" height="24" viewBox="0 0 24 24" fill="none" xmlns="http://www.w3.org/2000/svg">
<path d="M11 5.5C11.3461 5.5 11.6845 5.39737 11.9722 5.20507C12.26 5.01278 12.4843 4.73947 12.6168 4.4197C12.7492 4.09993 12.7839 3.74806 12.7164 3.40859C12.6489 3.06913 12.4822 2.75731 12.2374 2.51256C11.9927 2.26782 11.6809 2.10115 11.3414 2.03363C11.0019 1.9661 10.6501 2.00076 10.3303 2.13321C10.0105 2.26566 9.73722 2.48997 9.54493 2.77775C9.35264 3.06554 9.25 3.40388 9.25 3.75C9.25 4.21413 9.43437 4.65925 9.76256 4.98744C10.0908 5.31563 10.5359 5.5 11 5.5ZM11 2.5C11.2472 2.5 11.4889 2.57331 11.6945 2.71066C11.9 2.84802 12.0602 3.04324 12.1548 3.27165C12.2495 3.50005 12.2742 3.75139 12.226 3.99386C12.1778 4.23634 12.0587 4.45907 11.8839 4.63388C11.7091 4.8087 11.4863 4.92775 11.2439 4.97598C11.0014 5.02421 10.7501 4.99946 10.5216 4.90485C10.2932 4.81024 10.098 4.65002 9.96066 4.44446C9.82331 4.2389 9.75 3.99723 9.75 3.75C9.75037 3.41859 9.88219 3.10087 10.1165 2.86653C10.3509 2.63219 10.6686 2.50037 11 2.5ZM14.127 11.2119L13.5 10.5854V9.5C13.4993 8.83717 13.2357 8.20169 12.767 7.73299C12.2983 7.2643 11.6628 7.00069 11 7H10C9.60231 7.00045 9.22104 7.15863 8.93984 7.43984C8.65863 7.72104 8.50045 8.10231 8.5 8.5V19H10.1366V24H12.3634V19H15.5V14.5283C15.5016 13.9122 15.3811 13.3019 15.1454 12.7327C14.9098 12.1634 14.5636 11.6466 14.127 11.2119ZM15 18.5H11.8634V23.5H10.6366V18.5H9V8.5C9.00029 8.23487 9.10574 7.98069 9.29321 7.79322C9.48069 7.60574 9.73487 7.50029 10 7.5H11C11.5302 7.50061 12.0386 7.71152 12.4135 8.08646C12.7885 8.4614 12.9994 8.96975 13 9.5V10.7927L13.1466 10.9391L13.7732 11.5652C14.1633 11.9536 14.4726 12.4154 14.6832 12.924C14.8937 13.4326 15.0014 13.9778 15 14.5283V18.5Z" fill="black"/>
</svg>
