<svg width="24" height="24" viewBox="0 0 24 24" fill="none" xmlns="http://www.w3.org/2000/svg">
<path d="M11.2917 5.49463C11.6378 5.49463 11.9762 5.39199 12.264 5.1997C12.5517 5.00741 12.7761 4.7341 12.9085 4.41433C13.041 4.09455 13.0756 3.74269 13.0081 3.40322C12.9406 3.06375 12.7739 2.75193 12.5292 2.50719C12.2844 2.26245 11.9726 2.09578 11.6331 2.02826C11.2937 1.96073 10.9418 1.99539 10.622 2.12784C10.3022 2.26029 10.0289 2.4846 9.83664 2.77238C9.64435 3.06017 9.54172 3.39851 9.54172 3.74463C9.54172 4.20876 9.72609 4.65388 10.0543 4.98207C10.3825 5.31026 10.8276 5.49463 11.2917 5.49463ZM17.9922 15.5698C17.8923 15.1258 17.6447 14.7288 17.2899 14.4436C16.9352 14.1585 16.4943 14.002 16.0391 13.9998H14V9.49983C14 8.83679 13.7366 8.2009 13.2678 7.73206C12.7989 7.26322 12.1631 6.99983 11.5 6.99983H10.5C10.1022 6.99983 9.72066 7.15787 9.43935 7.43917C9.15805 7.72047 9.00001 8.10201 9.00001 8.49983V10.0898C7.87273 10.281 6.82359 10.7905 5.97625 11.5581C5.1289 12.3258 4.51867 13.3197 4.21746 14.4227C3.91625 15.5257 3.93662 16.6918 4.27618 17.7836C4.61573 18.8754 5.26032 19.8474 6.13396 20.585C7.00761 21.3226 8.0739 21.7951 9.20717 21.9468C10.3404 22.0985 11.4935 21.923 12.5303 21.4412C13.5672 20.9593 14.4447 20.191 15.0595 19.227C15.6742 18.2629 16.0005 17.1432 16 15.9998H16.0391L17.3585 21.9998H19.4061L17.9922 15.5698ZM10 19.9998C9.02725 20.0018 8.08723 19.6485 7.3566 19.0063C6.62596 18.3641 6.155 17.4771 6.03219 16.5121C5.90939 15.5472 6.1432 14.5705 6.6897 13.7658C7.23619 12.961 8.05775 12.3835 9.00001 12.1418V13.9998C9.00001 14.5303 9.21073 15.039 9.5858 15.414C9.96087 15.7891 10.4696 15.9998 11 15.9998H14C13.9988 17.0603 13.577 18.0771 12.8271 18.8269C12.0772 19.5768 11.0605 19.9986 10 19.9998Z" fill="black"/>
</svg>
