<svg width="24" height="24" viewBox="0 0 24 24" fill="none" xmlns="http://www.w3.org/2000/svg">
<path d="M14.983 5.80669C15.4497 5.80673 15.9058 5.66839 16.2939 5.40915C16.6819 5.14992 16.9844 4.78144 17.163 4.35031C17.3416 3.91918 17.3883 3.44478 17.2973 2.98708C17.2063 2.52939 16.9816 2.10896 16.6516 1.77898C16.3216 1.449 15.9012 1.22427 15.4435 1.13323C14.9858 1.04219 14.5114 1.08891 14.0803 1.2675C13.6491 1.44609 13.2806 1.74851 13.0214 2.13653C12.7621 2.52455 12.6238 2.98073 12.6238 3.44739C12.6238 4.07309 12.8724 4.67316 13.3148 5.1156C13.7572 5.55805 14.3573 5.80664 14.983 5.80669ZM14.983 1.98799C15.2716 1.98797 15.5538 2.07355 15.7938 2.2339C16.0338 2.39425 16.2209 2.62217 16.3314 2.88883C16.4419 3.1555 16.4708 3.44894 16.4145 3.73205C16.3582 4.01515 16.2192 4.2752 16.0151 4.47931C15.811 4.68342 15.551 4.82242 15.2679 4.87874C14.9848 4.93506 14.6913 4.90617 14.4246 4.79571C14.158 4.68526 13.93 4.4982 13.7697 4.2582C13.6093 4.0182 13.5237 3.73604 13.5237 3.44739C13.5242 3.06049 13.678 2.68956 13.9516 2.41597C14.2252 2.14238 14.5961 1.98847 14.983 1.98799ZM22.573 15.3642L22.46 14.9185C22.453 14.8854 22.4094 14.7285 22.3993 14.6972C22.2553 14.2139 21.9592 13.7899 21.555 13.4883C21.1508 13.1867 20.6601 13.0235 20.1558 13.023C20.0695 13.023 19.9832 13.0281 19.8975 13.0381C19.8801 13.0395 19.7288 13.0591 19.7112 13.0614L16.0012 13.5545C16.0062 13.6202 16.0212 13.6831 16.0212 13.7501C16.0204 14.435 15.7479 15.0916 15.2636 15.5759C14.7793 16.0602 14.1227 16.3326 13.4378 16.3334H8.3412V15.5001H13.4375C13.9016 15.5001 14.3468 15.3157 14.6749 14.9875C15.0031 14.6593 15.1875 14.2142 15.1875 13.7501C15.1875 13.286 15.0031 12.8408 14.6749 12.5127C14.3468 12.1845 13.9016 12.0001 13.4375 12.0001H8.3412L2.0455 14.0001V21.3334L8.0455 19.3334H13.0455L22.1545 16.2704C22.2902 16.225 22.4077 16.1371 22.4895 16.0197C22.5712 15.9023 22.613 15.7616 22.6086 15.6186C22.6059 15.5328 22.594 15.4475 22.573 15.3642ZM7.9315 11.0401C7.9315 11.0306 7.9287 11.0217 7.9287 11.0121C7.92968 10.1842 8.25901 9.39049 8.84444 8.80509C9.42987 8.2197 10.2236 7.89042 11.0515 7.88949C11.512 7.89066 11.9663 7.99466 12.3815 8.1939C12.7966 8.39314 13.162 8.68258 13.4509 9.04109L13.9524 9.62179L14.6074 9.23379C14.9905 8.94513 15.4567 8.78814 15.9363 8.78629C16.5541 8.78695 17.1464 9.03263 17.5833 9.46943C18.0202 9.90623 18.266 10.4985 18.2668 11.1163C18.2651 11.4596 18.1865 11.7982 18.0368 12.1072C18.1591 12.0918 18.5102 12.0492 18.5668 12.0492C18.63 12.0492 18.8196 12.037 19.0502 12.0227C19.1453 11.7298 19.1959 11.4242 19.2002 11.1163C19.2001 10.2507 18.8563 9.42055 18.2442 8.80849C17.6321 8.19644 16.8019 7.85259 15.9363 7.85259C15.2967 7.8546 14.6735 8.05517 14.1528 8.42659C13.6227 7.78349 12.9067 7.32007 12.1029 7.09985C11.2991 6.87964 10.4468 6.9134 9.66298 7.19651C8.87912 7.47963 8.202 7.99823 7.72443 8.68125C7.24686 9.36427 6.99222 10.1783 6.9954 11.0117C6.9954 11.0786 7.0115 11.1411 7.0154 11.2071L7.9315 11.0401Z" fill="black"/>
</svg>
