<svg width="24" height="24" viewBox="0 0 24 24" fill="none" xmlns="http://www.w3.org/2000/svg">
<path d="M12 10.4301C12.7747 10.4301 13.532 10.2004 14.1761 9.77002C14.8202 9.33964 15.3222 8.72792 15.6187 8.01221C15.9151 7.29651 15.9927 6.50897 15.8415 5.74919C15.6904 4.9894 15.3173 4.2915 14.7695 3.74375C14.2217 3.196 13.5238 2.82299 12.764 2.6719C12.0042 2.52081 11.2167 2.59842 10.501 2.89493C9.78531 3.19143 9.17362 3.69351 8.7433 4.33766C8.31297 4.98181 8.08332 5.73911 8.0834 6.51378C8.0847 7.5521 8.49776 8.54752 9.232 9.2817C9.96623 10.0159 10.9617 10.4289 12 10.4301ZM12 4.09708C12.478 4.09706 12.9452 4.23878 13.3427 4.50432C13.7401 4.76986 14.0499 5.14729 14.2328 5.58888C14.4157 6.03047 14.4636 6.51639 14.3704 6.9852C14.2771 7.454 14.047 7.88462 13.709 8.22261C13.371 8.5606 12.9404 8.79078 12.4716 8.88404C12.0028 8.9773 11.5169 8.92944 11.0753 8.74653C10.6337 8.56362 10.2562 8.25387 9.99069 7.85644C9.72514 7.45901 9.5834 6.99176 9.5834 6.51378C9.58414 5.87308 9.83898 5.25883 10.292 4.80577C10.7451 4.35271 11.3593 4.09785 12 4.09708ZM19.707 15.3979C18.1885 13.8773 16.2519 12.843 14.1437 12.4267L12 15.4093L9.8563 12.4267C7.74809 12.843 5.81146 13.8773 4.293 15.3979L4 15.6908V21.0001H20V15.6908L19.707 15.3979ZM18.5 19.5001H5.5V16.3208C5.5223 16.3008 5.5934 16.2315 5.616 16.2115C6.65694 15.2389 7.91053 14.5228 9.277 14.1201L10.4814 15.7696L11.5392 17.2223L12 17.8525L12.47 17.2101L13.515 15.7748L14.723 14.1201C16.0895 14.5229 17.3432 15.2392 18.3841 16.212C18.4066 16.232 18.4778 16.301 18.5 16.3213V19.5001Z" fill="black"/>
</svg>
