<svg width="24" height="24" viewBox="0 0 24 24" fill="none" xmlns="http://www.w3.org/2000/svg">
<path d="M12.8252 22.9687C11.2318 22.971 9.66289 22.5767 8.25984 21.8215C6.85679 21.0662 5.66371 19.9738 4.7881 18.6425L1.39 13.4892C1.33131 13.3998 1.30523 13.2929 1.31616 13.1866C1.32709 13.0802 1.37436 12.9808 1.45 12.9052L2.1434 12.2118C2.35829 11.9971 2.61465 11.8283 2.89686 11.7158C3.17907 11.6034 3.48123 11.5495 3.78492 11.5575C4.08862 11.5656 4.3875 11.6354 4.66335 11.7626C4.93921 11.8899 5.18628 12.072 5.3895 12.2978L8.582 15.8505L8.5986 2.89352C8.60223 2.39357 8.80338 1.91534 9.15819 1.5631C9.513 1.21086 9.99269 1.01318 10.4926 1.01318C10.9926 1.01318 11.4723 1.21086 11.8271 1.5631C12.1819 1.91534 12.3831 2.39357 12.3867 2.89352V9.55992C15.3214 9.58334 18.2037 10.34 20.7715 11.761L20.8896 11.8343V14.9043C20.887 17.0423 20.0365 19.092 18.5247 20.6038C17.0129 22.1157 14.9632 22.9661 12.8252 22.9687ZM3.7236 12.0565C3.49549 12.0558 3.26951 12.1004 3.05879 12.1877C2.84807 12.2751 2.6568 12.4034 2.4961 12.5653L1.8027 13.2587L5.2061 18.3671C6.03597 19.6294 7.16695 20.6652 8.49706 21.3812C9.82718 22.0973 11.3146 22.471 12.8252 22.4687C14.8308 22.4665 16.7536 21.6688 18.1718 20.2507C19.5899 18.8326 20.3877 16.9098 20.39 14.9042V12.1171C17.8478 10.7687 15.0148 10.0616 12.1371 10.0571H11.8871V2.89352C11.884 2.52584 11.7357 2.17428 11.4746 1.91539C11.2135 1.65649 10.8607 1.51123 10.493 1.51123C10.1254 1.51123 9.77255 1.65649 9.51145 1.91539C9.25036 2.17428 9.10211 2.52584 9.099 2.89352V15.8435C9.0996 15.9467 9.06857 16.0476 9.01009 16.1326C8.9516 16.2176 8.86848 16.2827 8.7719 16.319C8.676 16.3573 8.57059 16.3649 8.47018 16.3408C8.36978 16.3167 8.27933 16.262 8.2113 16.1843L5.0176 12.6317C4.86017 12.4556 4.66826 12.3136 4.45374 12.2147C4.23922 12.1158 4.00667 12.0619 3.7705 12.0565H3.7236Z" fill="black"/>
</svg>
