<svg width="24" height="24" viewBox="0 0 24 24" fill="none" xmlns="http://www.w3.org/2000/svg">
<path d="M14.983 7.76699C15.4375 7.76701 15.8817 7.63226 16.2596 7.37978C16.6375 7.1273 16.932 6.76844 17.106 6.34856C17.2799 5.92869 17.3254 5.46667 17.2368 5.02093C17.1481 4.57519 16.9292 4.16576 16.6079 3.8444C16.2865 3.52304 15.8771 3.30419 15.4314 3.21553C14.9856 3.12688 14.5236 3.17239 14.1037 3.34632C13.6839 3.52024 13.325 3.81477 13.0725 4.19266C12.82 4.57055 12.6853 5.01482 12.6853 5.46929C12.6853 6.07867 12.9274 6.66308 13.3583 7.09398C13.7892 7.52487 14.3736 7.76696 14.983 7.76699ZM14.983 3.67149C15.3386 3.67147 15.6862 3.77689 15.9818 3.97442C16.2775 4.17196 16.5079 4.45273 16.644 4.78123C16.7801 5.10973 16.8157 5.47121 16.7464 5.81996C16.677 6.16871 16.5058 6.48905 16.2544 6.74049C16.003 6.99193 15.6826 7.16316 15.3339 7.23254C14.9851 7.30191 14.6236 7.26632 14.2951 7.13025C13.9666 6.99418 13.6858 6.76375 13.4883 6.4681C13.2907 6.17245 13.1853 5.82486 13.1853 5.46929C13.1859 4.99268 13.3755 4.53575 13.7125 4.19873C14.0495 3.86171 14.5064 3.6721 14.983 3.67149ZM22.623 17.1343L22.453 16.325C22.3075 15.6296 21.9043 15.015 21.3244 14.6046C20.7444 14.1942 20.0307 14.0185 19.3265 14.1126L18.8665 14.1737C19.0484 13.7863 19.1458 13.3647 19.1524 12.9368C19.1555 12.347 18.9906 11.7685 18.677 11.2689C18.3635 10.7693 17.9142 10.3693 17.3817 10.1156C16.8492 9.86194 16.2555 9.76508 15.67 9.83635C15.0845 9.90762 14.5314 10.1441 14.0753 10.5181C13.5676 9.86692 12.8691 9.39079 12.0774 9.15638C11.2857 8.92196 10.4405 8.94099 9.66013 9.2108C8.87978 9.4806 8.20333 9.98768 7.72549 10.661C7.24765 11.3344 6.99234 12.1403 6.9953 12.966C6.99959 13.116 7.01466 13.2655 7.0404 13.4134L2.0455 15.0002V23.0002L8.0455 21.0002H13.0455L22.1663 17.9332C22.3271 17.8791 22.4625 17.7679 22.5467 17.6206C22.631 17.4734 22.6583 17.3003 22.6234 17.1343H22.623ZM10.9683 9.49309C11.4925 9.49459 12.0095 9.61558 12.4799 9.84686C12.9503 10.0781 13.3619 10.4136 13.6832 10.8278L13.9967 11.2252L14.3901 10.9069C14.8515 10.5254 15.4308 10.3157 16.0295 10.3136C16.725 10.3143 17.3918 10.5909 17.8836 11.0827C18.3754 11.5745 18.652 12.2413 18.6528 12.9368C18.6508 13.3997 18.5243 13.8536 18.2867 14.2509L15.7083 14.5936C15.6147 14.1434 15.3689 13.7392 15.0123 13.449C14.6556 13.1587 14.2098 13.0003 13.75 13.0002H8.3412L7.5251 13.2595C7.50831 13.1625 7.49828 13.0644 7.4951 12.966C7.49613 12.0452 7.8624 11.1624 8.51354 10.5113C9.16467 9.86023 10.0475 9.49404 10.9683 9.49309ZM22.0068 17.4593L12.9637 20.5002H7.9644L2.5455 22.3065V15.3665L8.4186 13.5002H13.75C14.1478 13.5002 14.5294 13.6582 14.8107 13.9395C15.092 14.2208 15.25 14.6024 15.25 15.0002C15.25 15.398 15.092 15.7795 14.8107 16.0608C14.5294 16.3422 14.1478 16.5002 13.75 16.5002H8.3412V17.0002H13.75C14.2633 16.9994 14.7566 16.8009 15.1273 16.4458C15.4981 16.0908 15.7177 15.6065 15.7406 15.0937L19.3929 14.6082C19.9721 14.5308 20.5591 14.6754 21.0361 15.013C21.513 15.3506 21.8446 15.8562 21.9641 16.4282L22.1341 17.2374C22.1437 17.2835 22.1361 17.3316 22.1126 17.3725C22.0892 17.4134 22.0515 17.4443 22.0068 17.4593Z" fill="black"/>
</svg>
