<svg width="24" height="24" viewBox="0 0 24 24" fill="none" xmlns="http://www.w3.org/2000/svg">
<path d="M12 17.9922C11.1151 17.9948 10.2562 18.2919 9.55871 18.8364C8.86121 19.381 8.36473 20.1422 8.1475 21H15.8525C15.6353 20.1422 15.1388 19.381 14.4413 18.8364C13.7438 18.2919 12.8849 17.9948 12 17.9922ZM12 10C12.7417 10 13.4667 9.78007 14.0834 9.36801C14.7001 8.95596 15.1807 8.37029 15.4645 7.68506C15.7484 6.99984 15.8226 6.24584 15.6779 5.51841C15.5333 4.79098 15.1761 4.1228 14.6517 3.59835C14.1272 3.0739 13.459 2.71675 12.7316 2.57206C12.0042 2.42736 11.2502 2.50162 10.5649 2.78545C9.87971 3.06928 9.29404 3.54993 8.88199 4.16661C8.46993 4.7833 8.25 5.50832 8.25 6.25C8.25114 7.24421 8.64659 8.19738 9.34961 8.9004C10.0526 9.60341 11.0058 9.99886 12 10ZM19.707 15.7852C17.6615 13.7441 14.8897 12.5977 12 12.5977C9.11027 12.5977 6.33855 13.7441 4.293 15.7852L4 16.0781V21H7.11C7.33635 19.8698 7.94723 18.8528 8.83873 18.1222C9.73024 17.3915 10.8473 16.9922 12 16.9922C13.1527 16.9922 14.2698 17.3915 15.1613 18.1222C16.0528 18.8528 16.6636 19.8698 16.89 21H20V16.0781L19.707 15.7852Z" fill="black"/>
</svg>
