<svg width="24" height="24" viewBox="0 0 24 24" fill="none" xmlns="http://www.w3.org/2000/svg">
<path d="M17.49 5.78516C17.8361 5.78516 18.1744 5.68252 18.4622 5.49023C18.75 5.29794 18.9743 5.02462 19.1068 4.70485C19.2392 4.38508 19.2739 4.03322 19.2063 3.69375C19.1388 3.35428 18.9722 3.04246 18.7274 2.79772C18.4827 2.55298 18.1708 2.38631 17.8314 2.31878C17.4919 2.25126 17.14 2.28591 16.8203 2.41837C16.5005 2.55082 16.2272 2.77512 16.0349 3.06291C15.8426 3.3507 15.74 3.68904 15.74 4.03516C15.74 4.49929 15.9243 4.94441 16.2525 5.27259C16.5807 5.60078 17.0258 5.78516 17.49 5.78516ZM17.49 2.78516C17.7372 2.78516 17.9789 2.85847 18.1844 2.99582C18.39 3.13317 18.5502 3.3284 18.6448 3.5568C18.7394 3.78521 18.7642 4.03654 18.716 4.27902C18.6677 4.5215 18.5487 4.74422 18.3739 4.91904C18.199 5.09386 17.9763 5.21291 17.7338 5.26114C17.4914 5.30937 17.24 5.28462 17.0116 5.19001C16.7832 5.0954 16.588 4.93518 16.4506 4.72962C16.3133 4.52406 16.24 4.28238 16.24 4.03516C16.2403 3.70375 16.3722 3.38602 16.6065 3.15168C16.8408 2.91734 17.1586 2.78553 17.49 2.78516ZM6.48527 5.78516C6.83139 5.78516 7.16974 5.68252 7.45752 5.49023C7.74531 5.29794 7.96961 5.02462 8.10206 4.70485C8.23452 4.38508 8.26917 4.03322 8.20165 3.69375C8.13412 3.35428 7.96745 3.04246 7.72271 2.79772C7.47797 2.55298 7.16615 2.38631 6.82668 2.31878C6.48721 2.25126 6.13535 2.28591 5.81558 2.41837C5.49581 2.55082 5.22249 2.77512 5.0302 3.06291C4.83791 3.3507 4.73527 3.68904 4.73527 4.03516C4.73527 4.26499 4.78055 4.49257 4.8685 4.7049C4.95646 4.91723 5.08538 5.11016 5.24791 5.27266C5.41043 5.43517 5.60337 5.56407 5.81572 5.652C6.02806 5.73994 6.25564 5.78518 6.48547 5.78516H6.48527ZM6.48527 2.78516C6.7325 2.78516 6.97417 2.85847 7.17974 2.99582C7.3853 3.13317 7.54551 3.3284 7.64012 3.5568C7.73473 3.78521 7.75949 4.03654 7.71126 4.27902C7.66302 4.5215 7.54397 4.74422 7.36916 4.91904C7.19434 5.09386 6.97161 5.21291 6.72914 5.26114C6.48666 5.30937 6.23533 5.28462 6.00692 5.19001C5.77851 5.0954 5.58329 4.93518 5.44594 4.72962C5.30858 4.52406 5.23527 4.28238 5.23527 4.03516C5.23564 3.70372 5.36749 3.38596 5.60187 3.15161C5.83625 2.91727 6.15403 2.78547 6.48547 2.78516H6.48527ZM19.99 8.53616C19.6984 8.15024 19.3213 7.8372 18.8883 7.62165C18.4553 7.40611 17.9782 7.29392 17.4945 7.29392C17.0108 7.29392 16.5337 7.40611 16.1007 7.62165C15.6678 7.8372 15.2906 8.15024 14.9991 8.53616H14.99V8.54696L11.9877 12.5338L8.98527 8.54376V8.53666H8.97917C8.68766 8.15019 8.31042 7.83666 7.87715 7.62077C7.44388 7.40487 6.96641 7.2925 6.48232 7.2925C5.99824 7.2925 5.52077 7.40487 5.0875 7.62077C4.65422 7.83666 4.27698 8.15019 3.98547 8.53666V21.9998H4.48547V15.9998H8.48547V21.9998H8.98547V9.39026L11.6182 12.8603C11.6615 12.9173 11.7174 12.9635 11.7815 12.9954C11.8457 13.0272 11.9163 13.0438 11.9879 13.0438C12.0595 13.0438 12.1302 13.0272 12.1943 12.9954C12.2585 12.9635 12.3144 12.9173 12.3577 12.8603L14.99 9.39346V21.9998H15.49V15.9998H19.49V21.9998H19.99V8.53666V8.53616ZM8.48537 15.4998H4.48537V8.71266C4.73256 8.42361 5.03954 8.19167 5.38511 8.03285C5.73069 7.87403 6.10662 7.79211 6.48694 7.79276C6.86727 7.79341 7.24292 7.8766 7.58795 8.0366C7.93298 8.19659 8.23917 8.42958 8.48537 8.71946V15.4998ZM19.4902 15.4998H15.4902V8.72246C15.7361 8.4323 16.042 8.19898 16.3869 8.03862C16.7318 7.87826 17.1073 7.79467 17.4877 7.79365C17.868 7.79262 18.244 7.87417 18.5898 8.03267C18.9355 8.19117 19.2427 8.42283 19.4902 8.71166V15.4998Z" fill="black"/>
</svg>
