<svg width="24" height="24" viewBox="0 0 24 24" fill="none" xmlns="http://www.w3.org/2000/svg">
<path d="M12 6.75C11.4067 6.75 10.8266 6.92595 10.3333 7.25559C9.83994 7.58524 9.45542 8.05377 9.22836 8.60195C9.0013 9.15013 8.94189 9.75333 9.05764 10.3353C9.1734 10.9172 9.45912 11.4518 9.87868 11.8713C10.2982 12.2909 10.8328 12.5766 11.4147 12.6924C11.9967 12.8081 12.5999 12.7487 13.1481 12.5216C13.6962 12.2946 14.1648 11.9101 14.4944 11.4167C14.8241 10.9234 15 10.3433 15 9.75C15 8.95435 14.6839 8.19129 14.1213 7.62868C13.5587 7.06607 12.7956 6.75 12 6.75ZM12 11.85C11.5847 11.85 11.1786 11.7268 10.8333 11.4961C10.488 11.2653 10.2188 10.9374 10.0599 10.5536C9.90091 10.1699 9.85932 9.74767 9.94035 9.34031C10.0214 8.93295 10.2214 8.55877 10.5151 8.26508C10.8088 7.97139 11.183 7.77138 11.5903 7.69035C11.9977 7.60932 12.4199 7.65091 12.8036 7.80985C13.1874 7.9688 13.5153 8.23796 13.7461 8.5833C13.9768 8.92865 14.1 9.33466 14.1 9.75C14.0994 10.3068 13.8779 10.8405 13.4842 11.2342C13.0905 11.6279 12.5568 11.8494 12 11.85ZM18 3H6C5.20435 3 4.44129 3.31607 3.87868 3.87868C3.31607 4.44129 3 5.20435 3 6V18C3 18.7956 3.31607 19.5587 3.87868 20.1213C4.44129 20.6839 5.20435 21 6 21H18C18.7956 21 19.5587 20.6839 20.1213 20.1213C20.6839 19.5587 21 18.7956 21 18V6C21 5.20435 20.6839 4.44129 20.1213 3.87868C19.5587 3.31607 18.7956 3 18 3ZM16.0029 20H7.9971V16.9336C9.0836 15.92 10.5141 15.3564 12 15.3564C13.4859 15.3564 14.9164 15.92 16.0029 16.9336V20ZM20 18C19.9994 18.5302 19.7885 19.0386 19.4135 19.4135C19.0386 19.7885 18.5302 19.9994 18 20H17.0029V16.5146L16.8564 16.3682C16.2187 15.7304 15.4616 15.2244 14.6283 14.8793C13.795 14.5341 12.9019 14.3564 12 14.3564C11.0981 14.3564 10.205 14.5341 9.3717 14.8793C8.53843 15.2244 7.78132 15.7304 7.1436 16.3682L6.9971 16.5146V20H6C5.46975 19.9994 4.9614 19.7885 4.58646 19.4135C4.21152 19.0386 4.00061 18.5302 4 18V6C4.00061 5.46975 4.21152 4.9614 4.58646 4.58646C4.9614 4.21152 5.46975 4.00061 6 4H18C18.5302 4.00061 19.0386 4.21152 19.4135 4.58646C19.7885 4.9614 19.9994 5.46975 20 6V18Z" fill="black"/>
</svg>
