<svg width="24" height="24" viewBox="0 0 24 24" fill="none" xmlns="http://www.w3.org/2000/svg">
<path d="M14.9629 10.206L11.9879 12.5344L8.82727 8.43293C8.48309 7.98626 8.04097 7.62455 7.53498 7.37566C7.02899 7.12677 6.47262 6.99734 5.90872 6.99734C5.34483 6.99734 4.78846 7.12677 4.28247 7.37566C3.77647 7.62455 3.33436 7.98626 2.99017 8.43293V21.9999H4.49017V15.9999H7.49017V21.9999H8.99017V11.0078L10.8345 13.4499C11.0667 13.7572 11.411 13.9602 11.7923 14.0145C12.1736 14.0689 12.5609 13.9701 12.8697 13.7399L14.9902 12.1599V21.9999H16.4902V15.9999H19.4902V21.9999H20.9902V10.1874C20.1265 9.51996 19.0649 9.1594 17.9733 9.16277C16.8818 9.16614 15.8225 9.53324 14.9629 10.206ZM7.48997 14.4999H4.48997V9.01993C4.91512 8.65761 5.46281 8.47172 6.02066 8.50042C6.57852 8.52911 7.10424 8.7702 7.48997 9.17423V14.4999ZM19.49 14.4999H16.49V11.0087C16.9573 10.7811 17.4703 10.6629 17.9901 10.663C18.5099 10.6632 19.0228 10.7818 19.49 11.0097V14.4999ZM5.98997 5.39453C6.28664 5.39453 6.57665 5.30656 6.82333 5.14174C7.07 4.97691 7.26226 4.74265 7.37579 4.46856C7.48932 4.19447 7.51903 3.89287 7.46115 3.6019C7.40327 3.31092 7.26041 3.04365 7.05063 2.83387C6.84085 2.62409 6.57358 2.48123 6.28261 2.42335C5.99164 2.36548 5.69004 2.39518 5.41595 2.50871C5.14186 2.62224 4.90759 2.8145 4.74277 3.06118C4.57795 3.30785 4.48997 3.59786 4.48997 3.89453C4.48997 4.29236 4.64801 4.67389 4.92931 4.95519C5.21062 5.2365 5.59215 5.39453 5.98997 5.39453ZM17.99 7.54033C18.2866 7.54033 18.5767 7.45236 18.8233 7.28754C19.07 7.12271 19.2623 6.88845 19.3758 6.61436C19.4893 6.34027 19.519 6.03867 19.4612 5.7477C19.4033 5.45672 19.2604 5.18945 19.0506 4.97967C18.8409 4.76989 18.5736 4.62703 18.2826 4.56915C17.9916 4.51128 17.69 4.54098 17.4159 4.65451C17.1419 4.76804 16.9076 4.9603 16.7428 5.20698C16.5779 5.45365 16.49 5.74366 16.49 6.04033C16.4901 6.43809 16.6482 6.81952 16.9295 7.10073C17.2107 7.38195 17.5922 7.53993 17.99 7.53993V7.54033Z" fill="black"/>
</svg>
