<svg width="24" height="24" viewBox="0 0 24 24" fill="none" xmlns="http://www.w3.org/2000/svg">
<path d="M3 3V21H21V3H3ZM15 8.9653C15 9.55864 14.8241 10.1387 14.4944 10.632C14.1648 11.1254 13.6962 11.5099 13.1481 11.7369C12.5999 11.964 11.9967 12.0234 11.4147 11.9077C10.8328 11.7919 10.2982 11.5062 9.87868 11.0866C9.45912 10.6671 9.1734 10.1325 9.05764 9.55057C8.94189 8.96863 9.0013 8.36543 9.22836 7.81725C9.45542 7.26907 9.83994 6.80054 10.3333 6.47089C10.8266 6.14125 11.4067 5.9653 12 5.9653C12.7956 5.9653 13.5587 6.28137 14.1213 6.84398C14.6839 7.40659 15 8.16965 15 8.9653ZM6.5 19.5V16.3035C7.95871 14.8448 9.93711 14.0254 12 14.0254C14.0629 14.0254 16.0413 14.8448 17.5 16.3035V19.5H6.5Z" fill="black"/>
</svg>
