<svg width="24" height="24" viewBox="0 0 24 24" fill="none" xmlns="http://www.w3.org/2000/svg">
<path d="M9.60779 5.49463C9.95391 5.49463 10.2923 5.39199 10.58 5.1997C10.8678 5.00741 11.0921 4.7341 11.2246 4.41433C11.357 4.09455 11.3917 3.74269 11.3242 3.40322C11.2566 3.06375 11.09 2.75193 10.8452 2.50719C10.6005 2.26245 10.2887 2.09578 9.9492 2.02826C9.60973 1.96073 9.25787 1.99539 8.9381 2.12784C8.61832 2.26029 8.34501 2.4846 8.15272 2.77238C7.96043 3.06017 7.85779 3.39851 7.85779 3.74463C7.85779 4.20876 8.04217 4.65388 8.37035 4.98207C8.69854 5.31026 9.14366 5.49463 9.60779 5.49463ZM15.082 17.9969H11.4463C10.5923 17.9929 9.76489 17.6992 9.09948 17.1638C8.43407 16.6285 7.97 15.8832 7.78319 15.0498L6.06049 7.19323C6.05407 7.16055 6.04118 7.12949 6.02259 7.10186C6.00399 7.07423 5.98006 7.0506 5.95221 7.03234C5.92435 7.01409 5.89313 7.00159 5.86038 6.99557C5.82762 6.98955 5.794 6.99013 5.76147 6.99729C5.72895 7.00444 5.69818 7.01802 5.67098 7.03723C5.64377 7.05644 5.62068 7.0809 5.60306 7.10915C5.58543 7.13741 5.57363 7.16891 5.56835 7.20179C5.56307 7.23467 5.56441 7.26827 5.57229 7.30063L7.29489 15.157C7.50652 16.1015 8.03242 16.9462 8.78655 17.553C9.54068 18.1597 10.4784 18.4925 11.4463 18.497H15.082C15.1483 18.497 15.2119 18.4707 15.2588 18.4238C15.3057 18.3769 15.332 18.3133 15.332 18.247C15.332 18.1807 15.3057 18.1171 15.2588 18.0703C15.2119 18.0234 15.1483 17.997 15.082 17.997V17.9969ZM18.44 15.5698C18.34 15.1259 18.0925 14.7289 17.7379 14.4437C17.3832 14.1586 16.9424 14.0021 16.4873 13.9998H14.0555L12.62 8.66513C12.4914 8.18725 12.2088 7.7651 11.816 7.46404C11.4233 7.16299 10.9422 6.99983 10.4473 6.99983H9.27419C9.07468 6.99984 8.87784 7.04577 8.69892 7.13406C8.52001 7.22236 8.36381 7.35065 8.24244 7.50901C8.12107 7.66736 8.03778 7.85153 7.99901 8.04724C7.96025 8.24296 7.96705 8.44497 8.01889 8.63763L9.60169 14.5198C9.71606 14.9446 9.96725 15.3198 10.3164 15.5873C10.6655 15.8549 11.0931 15.9998 11.533 15.9998H16.4873L17.8073 21.9998H19.855L18.44 15.5698Z" fill="black"/>
</svg>
