<svg width="24" height="24" viewBox="0 0 24 24" fill="none" xmlns="http://www.w3.org/2000/svg">
<path d="M18 9.9767V12.0445C19.9211 12.9237 21.1 14.1585 21.1 15.32C21.1 17.4348 17.2083 19.8 12 19.8C6.7917 19.8 2.9 17.4348 2.9 15.32C2.9 14.1585 4.0789 12.9237 6 12.0445V9.9767C2.9919 11.1153 1 13.0813 1 15.32C1 18.8436 5.9249 21.7 12 21.7C18.0751 21.7 23 18.8436 23 15.32C23 13.0813 21.0081 11.1153 18 9.9767ZM12 4.5C12.3461 4.5 12.6845 4.39737 12.9722 4.20507C13.26 4.01278 13.4843 3.73947 13.6168 3.4197C13.7492 3.09993 13.7839 2.74806 13.7164 2.40859C13.6489 2.06913 13.4822 1.75731 13.2374 1.51256C12.9927 1.26782 12.6809 1.10115 12.3414 1.03363C12.0019 0.966102 11.6501 1.00076 11.3303 1.13321C11.0105 1.26566 10.7372 1.48997 10.5449 1.77775C10.3526 2.06554 10.25 2.40388 10.25 2.75C10.25 3.21413 10.4344 3.65925 10.7626 3.98744C11.0908 4.31563 11.5359 4.5 12 4.5ZM10.0127 18H13.9873V13H15.99V7.8247L15.6971 7.5317C15.2116 7.0461 14.6352 6.66089 14.0008 6.39807C13.3664 6.13526 12.6865 5.99999 11.9998 5.99999C11.3131 5.99999 10.6332 6.13526 9.99879 6.39807C9.3644 6.66089 8.788 7.0461 8.3025 7.5317L8.0096 7.8247V13H10.0125L10.0127 18Z" fill="black"/>
</svg>
