<svg width="24" height="24" viewBox="0 0 24 24" fill="none" xmlns="http://www.w3.org/2000/svg">
<path d="M7.00003 5.5C7.34614 5.5 7.68449 5.39737 7.97227 5.20507C8.26006 5.01278 8.48436 4.73947 8.61682 4.4197C8.74927 4.09993 8.78393 3.74806 8.7164 3.40859C8.64888 3.06913 8.48221 2.75731 8.23746 2.51256C7.99272 2.26782 7.6809 2.10115 7.34143 2.03363C7.00197 1.9661 6.6501 2.00076 6.33033 2.13321C6.01056 2.26566 5.73725 2.48997 5.54495 2.77775C5.35266 3.06554 5.25003 3.40388 5.25003 3.75C5.25003 4.21413 5.4344 4.65925 5.76259 4.98744C6.09078 5.31563 6.5359 5.5 7.00003 5.5ZM7.00003 7C6.31307 6.9981 5.63257 7.1325 4.99792 7.39542C4.36327 7.65834 3.78708 8.04456 3.30273 8.5317L3.00983 8.8247V16H5.01273V22H8.98733V16H10.99V8.8247L10.6971 8.5317C10.2128 8.04458 9.63664 7.65838 9.00203 7.39546C8.36741 7.13254 7.68695 6.99813 7.00003 7ZM17 7.5C17.3461 7.5 17.6845 7.39737 17.9723 7.20507C18.2601 7.01278 18.4844 6.73947 18.6168 6.4197C18.7493 6.09993 18.7839 5.74806 18.7164 5.40859C18.6489 5.06913 18.4822 4.75731 18.2375 4.51256C17.9927 4.26782 17.6809 4.10115 17.3414 4.03363C17.002 3.9661 16.6501 4.00076 16.3303 4.13321C16.0106 4.26566 15.7372 4.48997 15.545 4.77775C15.3527 5.06554 15.25 5.40388 15.25 5.75C15.25 6.21413 15.4344 6.65925 15.7626 6.98744C16.0908 7.31563 16.5359 7.5 17 7.5ZM20.6973 10.5317C20.2118 10.0461 19.6354 9.66089 19.001 9.39807C18.3666 9.13526 17.6867 8.99999 17 8.99999C16.3134 8.99999 15.6334 9.13526 14.999 9.39807C14.3646 9.66089 13.7882 10.0461 13.3027 10.5317L13.0098 10.8247V16H15.0127V22H18.9873V16H20.99V10.8247L20.6973 10.5317Z" fill="black"/>
</svg>
