<svg width="24" height="24" viewBox="0 0 24 24" fill="none" xmlns="http://www.w3.org/2000/svg">
<path d="M12 12.7916C12.5933 12.7916 13.1734 12.6157 13.6667 12.286C14.1601 11.9564 14.5446 11.4878 14.7716 10.9397C14.9987 10.3915 15.0581 9.78827 14.9424 9.20633C14.8266 8.62439 14.5409 8.08984 14.1213 7.67028C13.7018 7.25072 13.1672 6.965 12.5853 6.84924C12.0033 6.73349 11.4001 6.7929 10.8519 7.01996C10.3038 7.24702 9.83524 7.63154 9.50559 8.12489C9.17595 8.61824 9 9.19826 9 9.7916C9 10.5872 9.31607 11.3503 9.87868 11.9129C10.4413 12.4755 11.2044 12.7916 12 12.7916ZM12 8.4916C12.2571 8.4916 12.5085 8.56784 12.7222 8.71069C12.936 8.85354 13.1026 9.05657 13.201 9.29411C13.2994 9.53166 13.3252 9.79304 13.275 10.0452C13.2249 10.2974 13.101 10.529 12.9192 10.7108C12.7374 10.8926 12.5058 11.0165 12.2536 11.0666C12.0014 11.1168 11.7401 11.091 11.5025 10.9926C11.265 10.8942 11.0619 10.7276 10.9191 10.5138C10.7762 10.3001 10.7 10.0487 10.7 9.7916C10.7004 9.44693 10.8375 9.11649 11.0812 8.87277C11.3249 8.62905 11.6553 8.49197 12 8.4916ZM3 3V21H21V3H3ZM15.0029 19H8.9971V17.09C9.84668 16.402 10.9068 16.0266 12 16.0266C13.0932 16.0266 14.1533 16.402 15.0029 17.09V19ZM19 19H17.0029V16.2383L16.71 15.9453C16.0915 15.3267 15.3573 14.8359 14.5491 14.5011C13.741 14.1663 12.8748 13.994 12 13.994C11.1252 13.994 10.259 14.1663 9.45089 14.5011C8.64274 14.8359 7.90846 15.3267 7.29 15.9453L6.9971 16.2383V19H5V5H19V19Z" fill="black"/>
</svg>
