<svg width="24" height="24" viewBox="0 0 24 24" fill="none" xmlns="http://www.w3.org/2000/svg">
<path d="M5.459 8.02539C5.75567 8.02539 6.04568 7.93742 6.29236 7.7726C6.53903 7.60777 6.73129 7.37351 6.84482 7.09942C6.95835 6.82533 6.98806 6.52373 6.93018 6.23276C6.8723 5.94178 6.72944 5.67451 6.51966 5.46473C6.30988 5.25495 6.04261 5.11209 5.75164 5.05421C5.46066 4.99634 5.15906 5.02604 4.88497 5.13957C4.61089 5.2531 4.37662 5.44536 4.2118 5.69204C4.04697 5.93871 3.959 6.22872 3.959 6.52539C3.959 6.92322 4.11704 7.30475 4.39834 7.58605C4.67964 7.86736 5.06118 8.02539 5.459 8.02539ZM21 12.8304V11.6949C21 10.5194 20.5858 9.38148 19.8302 8.48099C19.0746 7.58051 18.0259 6.97503 16.8683 6.77089L11.9992 5.91229C11.6112 5.84343 11.2134 5.85177 10.8286 5.93686C10.4438 6.02194 10.0795 6.18209 9.75671 6.40813C9.43389 6.63417 9.15883 6.92167 8.94726 7.25416C8.7357 7.58665 8.5918 7.95761 8.5238 8.34579L8.1331 10.5616L1.2394 9.34609L0.9794 10.8233L4 11.356V17.9999H20V14.1772L22.6448 14.6436L22.9048 13.1663L21 12.8304ZM18.5 16.4999H5.5V11.625L18.5 13.9129V16.4999ZM19.5 12.5659L9.9305 10.8786L9.6105 10.8221L10.0011 8.60629C10.0615 8.25914 10.2424 7.94443 10.5121 7.71759C10.7817 7.49076 11.1227 7.36635 11.4751 7.36629C11.536 7.36636 11.5968 7.3707 11.6571 7.37929C11.6844 7.38139 11.8426 7.40799 11.8697 7.41269L16.6079 8.24819C17.3709 8.38147 18.0677 8.76537 18.588 9.33914C19.1084 9.91292 19.4225 10.6438 19.4808 11.4162C19.4936 11.5074 19.5001 11.8151 19.5001 11.9095L19.5 12.5659Z" fill="black"/>
</svg>
