<svg width="24" height="24" viewBox="0 0 24 24" fill="none" xmlns="http://www.w3.org/2000/svg">
<path d="M12 6.88916C12.2966 6.88916 12.5867 6.80119 12.8333 6.63637C13.08 6.47154 13.2723 6.23727 13.3858 5.96319C13.4993 5.6891 13.529 5.3875 13.4712 5.09653C13.4133 4.80555 13.2704 4.53828 13.0606 4.3285C12.8509 4.11872 12.5836 3.97586 12.2926 3.91798C12.0016 3.86011 11.7 3.88981 11.4259 4.00334C11.1519 4.11687 10.9176 4.30913 10.7528 4.55581C10.5879 4.80248 10.5 5.09249 10.5 5.38916C10.5 5.78699 10.658 6.16852 10.9393 6.44982C11.2206 6.73113 11.6021 6.88916 12 6.88916ZM8.95347 9.22836V14.5175H10.2188V19.9999H13.7812V14.5175H15.0465V9.22836C14.2385 8.4204 13.1426 7.9665 12 7.9665C10.8573 7.9665 9.76147 8.4204 8.95347 9.22836ZM16.0465 9.22836V14.5175H17.3117V19.9999H20.8742V14.5175H22.14V9.22836C21.7399 8.82823 21.2649 8.51082 20.7421 8.29426C20.2194 8.07771 19.6591 7.96625 19.0932 7.96625C18.5274 7.96625 17.9671 8.07771 17.4443 8.29426C16.9215 8.51082 16.4466 8.82823 16.0465 9.22836ZM1.86047 9.22836V14.5175H3.12577V19.9999H6.68827V14.5175H7.95347V9.22836C7.14548 8.4204 6.04962 7.9665 4.90697 7.9665C3.76432 7.9665 2.66847 8.4204 1.86047 9.22836ZM19.093 6.88916C19.3896 6.88916 19.6797 6.80119 19.9263 6.63637C20.173 6.47154 20.3653 6.23727 20.4788 5.96319C20.5923 5.6891 20.622 5.3875 20.5642 5.09653C20.5063 4.80555 20.3634 4.53828 20.1536 4.3285C19.9439 4.11872 19.6766 3.97586 19.3856 3.91798C19.0946 3.86011 18.793 3.88981 18.5189 4.00334C18.2449 4.11687 18.0106 4.30913 17.8458 4.55581C17.6809 4.80248 17.593 5.09249 17.593 5.38916C17.593 5.78699 17.751 6.16852 18.0323 6.44982C18.3136 6.73113 18.6951 6.88916 19.093 6.88916ZM4.90697 6.88916C5.20365 6.88916 5.49366 6.80119 5.74033 6.63637C5.987 6.47154 6.17926 6.23727 6.29279 5.96319C6.40632 5.6891 6.43603 5.3875 6.37815 5.09653C6.32027 4.80555 6.17741 4.53828 5.96763 4.3285C5.75785 4.11872 5.49058 3.97586 5.19961 3.91798C4.90864 3.86011 4.60704 3.88981 4.33295 4.00334C4.05886 4.11687 3.82459 4.30913 3.65977 4.55581C3.49495 4.80248 3.40697 5.09249 3.40697 5.38916C3.40697 5.78699 3.56501 6.16852 3.84631 6.44982C4.12762 6.73113 4.50915 6.88916 4.90697 6.88916Z" fill="black"/>
</svg>
