<svg width="24" height="24" viewBox="0 0 24 24" fill="none" xmlns="http://www.w3.org/2000/svg">
<path d="M15.4126 7.42447L17.3264 6.16658L17.1941 8.45308H18.8059L18.6694 6.16387L20.5874 7.42447L21.3936 6.02857L19.3428 5.00218L21.3936 3.97137L20.5874 2.57547L18.6692 3.84098L18.8059 1.54688H17.1941L17.3267 3.83827L15.4126 2.57547L14.6064 3.97137L16.6572 5.00218L14.6064 6.02857L15.4126 7.42447ZM6.2906 5.49448C6.63672 5.49448 6.97506 5.39184 7.26285 5.19955C7.55063 5.00725 7.77494 4.73394 7.90739 4.41417C8.03984 4.0944 8.0745 3.74253 8.00697 3.40307C7.93945 3.0636 7.77278 2.75178 7.52804 2.50704C7.2833 2.2623 6.97147 2.09562 6.63201 2.0281C6.29254 1.96058 5.94067 1.99523 5.6209 2.12769C5.30113 2.26014 5.02782 2.48444 4.83553 2.77223C4.64324 3.06001 4.5406 3.39836 4.5406 3.74447C4.54056 3.97431 4.5858 4.20191 4.67372 4.41426C4.76165 4.62662 4.89055 4.81957 5.05306 4.98211C5.21556 5.14464 5.4085 5.27357 5.62083 5.36154C5.83317 5.4495 6.06076 5.49478 6.2906 5.49478V5.49448ZM10.6063 9.99998L10.1606 8.88578C9.93791 8.32908 9.55352 7.85188 9.05702 7.51574C8.56052 7.17961 7.97468 6.99996 7.3751 6.99998H5.5C5.10218 6.99998 4.72064 7.15801 4.43934 7.43931C4.15804 7.72062 4 8.10215 4 8.49998V9.99998H2V18C2 18.7956 2.31607 19.5587 2.87868 20.1213C3.44129 20.6839 4.20435 21 5 21H19C19.7956 21 20.5587 20.6839 21.1213 20.1213C21.6839 19.5587 22 18.7956 22 18V9.99998H10.6063ZM6 8.99998H7.3751C7.57511 8.9993 7.77069 9.05892 7.93631 9.17105C8.10194 9.28318 8.22994 9.44262 8.3036 9.62858L8.4522 9.99998H6V8.99998ZM20 18C19.9997 18.2651 19.8943 18.5193 19.7068 18.7068C19.5193 18.8942 19.2651 18.9997 19 19H5C4.73487 18.9997 4.48069 18.8942 4.29321 18.7068C4.10574 18.5193 4.00029 18.2651 4 18V12H20V18Z" fill="black"/>
</svg>
