<svg width="24" height="24" viewBox="0 0 24 24" fill="none" xmlns="http://www.w3.org/2000/svg">
<path d="M12 5.7334C12.5406 5.73346 13.0691 5.5732 13.5187 5.27289C13.9682 4.97257 14.3186 4.5457 14.5255 4.04624C14.7325 3.54678 14.7867 2.99717 14.6812 2.46693C14.5758 1.93668 14.3155 1.44961 13.9332 1.0673C13.551 0.685 13.0639 0.424639 12.5337 0.319146C12.0034 0.213653 11.4538 0.267766 10.9543 0.474642C10.4549 0.681518 10.0279 1.03186 9.72758 1.48138C9.42722 1.93089 9.2669 2.45937 9.2669 3C9.26772 3.72464 9.55593 4.41937 10.0683 4.9318C10.5807 5.44422 11.2754 5.7325 12 5.7334ZM12 1.6334C12.2704 1.63332 12.5347 1.71342 12.7595 1.86357C12.9843 2.01372 13.1596 2.22717 13.2631 2.47692C13.3666 2.72667 13.3937 3.00152 13.341 3.26668C13.2883 3.53185 13.1581 3.77542 12.9669 3.96661C12.7758 4.15779 12.5322 4.28799 12.2671 4.34074C12.0019 4.39348 11.7271 4.36641 11.4773 4.26294C11.2275 4.15947 11.0141 3.98426 10.8639 3.75945C10.7137 3.53465 10.6336 3.27036 10.6336 3C10.6339 2.63768 10.778 2.29029 11.0342 2.03405C11.2903 1.77781 11.6377 1.63365 12 1.6332V1.6334ZM17 9.258L16.707 8.965C15.4577 7.71841 13.7649 7.01832 12 7.01832C10.2351 7.01832 8.54232 7.71841 7.293 8.965L7 9.2578V13H17V9.258ZM15.6334 11.6335H8.3666V9.8335C8.3909 9.8122 8.4642 9.7425 8.489 9.7221C9.45558 8.86057 10.7052 8.38449 12 8.38449C13.2948 8.38449 14.5444 8.86057 15.511 9.7221C15.5358 9.7421 15.6091 9.8121 15.6334 9.8335V11.6335ZM20 17.611C20.3659 17.611 20.7236 17.5025 21.0278 17.2992C21.332 17.0959 21.5692 16.807 21.7092 16.469C21.8492 16.1309 21.8858 15.759 21.8145 15.4001C21.7431 15.0412 21.5669 14.7116 21.3081 14.4529C21.0494 14.1941 20.7198 14.0179 20.3609 13.9466C20.0021 13.8752 19.6301 13.9118 19.292 14.0518C18.954 14.1918 18.6651 14.429 18.4618 14.7332C18.2585 15.0374 18.15 15.3951 18.15 15.761C18.15 16.2517 18.3449 16.7222 18.6919 17.0691C19.0388 17.4161 19.5093 17.611 20 17.611ZM20 15.111C20.1286 15.111 20.2542 15.1491 20.3611 15.2205C20.468 15.292 20.5513 15.3935 20.6005 15.5123C20.6497 15.631 20.6626 15.7617 20.6375 15.8878C20.6124 16.0139 20.5505 16.1297 20.4596 16.2206C20.3687 16.3115 20.2529 16.3734 20.1268 16.3985C20.0007 16.4236 19.87 16.4107 19.7513 16.3615C19.6325 16.3123 19.531 16.229 19.4595 16.1221C19.3881 16.0152 19.35 15.8896 19.35 15.761C19.3502 15.5887 19.4188 15.4235 19.5406 15.3016C19.6625 15.1798 19.8277 15.1112 20 15.111ZM10.15 15.761C10.15 16.1269 10.2585 16.4846 10.4618 16.7888C10.6651 17.093 10.954 17.3302 11.292 17.4702C11.6301 17.6102 12.0021 17.6468 12.3609 17.5755C12.7198 17.5041 13.0494 17.3279 13.3081 17.0691C13.5669 16.8104 13.7431 16.4808 13.8145 16.1219C13.8858 15.7631 13.8492 15.3911 13.7092 15.053C13.5692 14.715 13.332 14.4261 13.0278 14.2228C12.7236 14.0195 12.3659 13.911 12 13.911C11.5093 13.911 11.0388 14.1059 10.6919 14.4529C10.3449 14.7998 10.15 15.2704 10.15 15.761ZM12.65 15.761C12.65 15.8896 12.6119 16.0152 12.5405 16.1221C12.469 16.229 12.3675 16.3123 12.2487 16.3615C12.13 16.4107 11.9993 16.4236 11.8732 16.3985C11.7471 16.3734 11.6313 16.3115 11.5404 16.2206C11.4495 16.1297 11.3876 16.0139 11.3625 15.8878C11.3374 15.7617 11.3503 15.631 11.3995 15.5123C11.4487 15.3935 11.532 15.292 11.6389 15.2205C11.7458 15.1491 11.8714 15.111 12 15.111C12.1723 15.1112 12.3375 15.1798 12.4594 15.3016C12.5812 15.4235 12.6498 15.5887 12.65 15.761ZM4 17.611C4.3659 17.611 4.72357 17.5025 5.0278 17.2992C5.33204 17.0959 5.56915 16.807 5.70918 16.469C5.8492 16.1309 5.88584 15.759 5.81445 15.4001C5.74307 15.0412 5.56687 14.7116 5.30815 14.4529C5.04942 14.1941 4.71978 14.0179 4.36092 13.9466C4.00205 13.8752 3.63008 13.9118 3.29204 14.0518C2.95399 14.1918 2.66506 14.429 2.46178 14.7332C2.2585 15.0374 2.15 15.3951 2.15 15.761C2.15 16.2517 2.34491 16.7222 2.69185 17.0691C3.03879 17.4161 3.50935 17.611 4 17.611ZM4 15.111C4.12856 15.111 4.25423 15.1491 4.36112 15.2205C4.46801 15.292 4.55132 15.3935 4.60052 15.5123C4.64972 15.631 4.66259 15.7617 4.63751 15.8878C4.61243 16.0139 4.55052 16.1297 4.45962 16.2206C4.36872 16.3115 4.2529 16.3734 4.12681 16.3985C4.00072 16.4236 3.87003 16.4107 3.75126 16.3615C3.63248 16.3123 3.53097 16.229 3.45954 16.1221C3.38812 16.0152 3.35 15.8896 3.35 15.761C3.35021 15.5887 3.41876 15.4235 3.54061 15.3016C3.66247 15.1798 3.82767 15.1112 4 15.111ZM22.8242 19.421C22.0746 18.673 21.0589 18.2529 20 18.2529C18.9411 18.2529 17.9254 18.673 17.1758 19.421L17 19.5969V21.9733H23V19.5969L22.8242 19.421ZM21.7 20.6733H18.3V20.1551C18.7809 19.7656 19.3811 19.553 20 19.553C20.6189 19.553 21.2191 19.7656 21.7 20.1551V20.6733ZM12 18.253C11.4755 18.2521 10.956 18.3548 10.4714 18.5553C9.9867 18.7557 9.54641 19.05 9.1758 19.4211L9 19.5969V21.9733H15V19.5969L14.8242 19.4211C14.4536 19.05 14.0133 18.7557 13.5286 18.5553C13.044 18.3548 12.5245 18.2521 12 18.253ZM13.7 20.673H10.3V20.1548C10.7809 19.7653 11.3811 19.5527 12 19.5527C12.6189 19.5527 13.2191 19.7653 13.7 20.1548V20.673ZM4 18.253C3.47552 18.2521 2.95602 18.3548 2.47136 18.5553C1.9867 18.7557 1.54641 19.05 1.1758 19.4211L1 19.5969V21.9733H7V19.5969L6.8242 19.4211C6.45359 19.05 6.0133 18.7557 5.52864 18.5553C5.04398 18.3548 4.52448 18.2521 4 18.253ZM5.7 20.673H2.3V20.1548C2.78095 19.7653 3.38109 19.5527 4 19.5527C4.61891 19.5527 5.21905 19.7653 5.7 20.1548V20.673Z" fill="black"/>
</svg>
