<svg width="24" height="24" viewBox="0 0 24 24" fill="none" xmlns="http://www.w3.org/2000/svg">
<path d="M19.9376 10.0441C19.7046 8.10255 18.7682 6.31367 17.3056 5.0157C15.843 3.71773 13.9555 3.00064 12 3C11.6045 3.00004 11.2179 3.11737 10.889 3.33713C10.5601 3.5569 10.3038 3.86924 10.1525 4.23466C10.0011 4.60009 9.96152 5.00219 10.0387 5.39012C10.1158 5.77805 10.3063 6.1344 10.5859 6.4141C10.9667 6.77791 11.4731 6.98093 11.9998 6.98093C12.5264 6.98093 13.0328 6.77791 13.4136 6.4141L14.8286 7.8281C14.2132 8.46035 13.405 8.87005 12.5312 8.99276C11.6574 9.11546 10.7677 8.94421 10.0019 8.50594C9.23607 8.06766 8.6377 7.38724 8.3009 6.57171C7.96409 5.75618 7.90795 4.85182 8.14132 4.0009C7.03128 4.61301 6.08258 5.48013 5.37341 6.53082C4.66424 7.58151 4.2149 8.78568 4.06242 10.0441C3.33461 10.1482 2.67082 10.5173 2.19828 11.0805C1.72573 11.6438 1.47768 12.3616 1.50165 13.0964C1.52562 13.8313 1.81994 14.5314 2.32819 15.0627C2.83644 15.5939 3.52287 15.9189 4.25592 15.9754C4.69295 17.6978 5.69172 19.2253 7.09425 20.3164C8.49679 21.4076 10.2231 22 12 22C13.777 22 15.5033 21.4076 16.9058 20.3164C18.3083 19.2253 19.3071 17.6978 19.7441 15.9754C20.4772 15.9189 21.1636 15.5939 21.6719 15.0627C22.1801 14.5314 22.4744 13.8313 22.4984 13.0964C22.5224 12.3616 22.2743 11.6438 21.8018 11.0805C21.3292 10.5173 20.6654 10.1482 19.9376 10.0441ZM7.75002 13C7.75002 12.7528 7.82333 12.5111 7.96069 12.3055C8.09804 12.1 8.29326 11.9398 8.52167 11.8452C8.75008 11.7505 9.00141 11.7258 9.24389 11.774C9.48636 11.8222 9.70909 11.9413 9.88391 12.1161C10.0587 12.2909 10.1778 12.5137 10.226 12.7561C10.2742 12.9986 10.2495 13.2499 10.1549 13.4784C10.0603 13.7068 9.90005 13.902 9.69449 14.0393C9.48892 14.1767 9.24725 14.25 9.00002 14.25C8.6685 14.25 8.35056 14.1183 8.11614 13.8839C7.88172 13.6495 7.75002 13.3315 7.75002 13ZM9.00002 17H15C14.7484 17.5871 14.33 18.0875 13.7968 18.4391C13.2635 18.7908 12.6388 18.9782 12 18.9782C11.3613 18.9782 10.7365 18.7908 10.2033 18.4391C9.67001 18.0875 9.25164 17.5871 9.00002 17ZM15 14.25C14.7528 14.25 14.5111 14.1767 14.3056 14.0393C14.1 13.902 13.9398 13.7068 13.8452 13.4784C13.7506 13.2499 13.7258 12.9986 13.774 12.7561C13.8223 12.5137 13.9413 12.2909 14.1161 12.1161C14.291 11.9413 14.5137 11.8222 14.7562 11.774C14.9986 11.7258 15.25 11.7505 15.4784 11.8452C15.7068 11.9398 15.902 12.1 16.0394 12.3055C16.1767 12.5111 16.25 12.7528 16.25 13C16.25 13.3315 16.1183 13.6495 15.8839 13.8839C15.6495 14.1183 15.3315 14.25 15 14.25Z" fill="black"/>
</svg>
