<svg width="24" height="24" viewBox="0 0 24 24" fill="none" xmlns="http://www.w3.org/2000/svg">
<path d="M9.5571 9.99992L4.5 9.98662V9.98532H0V17.9999H4L5.8 23.3299L7.1057 22.8338C7.43353 22.7085 7.70754 22.4731 7.88073 22.1678C8.05392 21.8626 8.1155 21.5066 8.0549 21.1609L7.4976 17.9999H10.7766C11.0418 17.9999 11.2962 17.8946 11.4837 17.707C11.6712 17.5195 11.7766 17.2651 11.7766 16.9999V15.4168C11.7884 13.4819 11.0614 11.6155 9.744 10.1983L9.5571 9.99992ZM4 17.4999H0.5V10.4853H4V17.4999ZM11.2766 16.9999C11.2766 17.1325 11.2239 17.2597 11.1302 17.3535C11.0364 17.4472 10.9092 17.4999 10.7766 17.4999H6.9017L7.0051 18.0867L7.5621 21.2473C7.60258 21.4785 7.56146 21.7165 7.44576 21.9207C7.33007 22.1249 7.147 22.2825 6.9279 22.3665L6.1079 22.6782L4.5 17.9177V10.4866L9.3407 10.4999L9.38 10.5415C10.6125 11.8644 11.2912 13.6093 11.2766 15.4173V16.9999ZM20 5.99992L18.2 0.669922L16.8943 1.16602C16.5665 1.29131 16.2925 1.52677 16.1193 1.83201C15.9461 2.13725 15.8845 2.49324 15.9451 2.83892L16.5024 5.99992H13.2234C12.9582 5.99992 12.7038 6.10528 12.5163 6.29282C12.3288 6.48035 12.2234 6.73471 12.2234 6.99992V8.58302C12.2116 10.5179 12.9386 12.3844 14.256 13.8015L14.4429 13.9999L19.5 14.0132V14.0145H24V5.99992H20ZM19.5 13.5132L14.6593 13.5004L14.62 13.4587C13.3875 12.1359 12.7088 10.391 12.7234 8.58302V6.99992C12.7234 6.86731 12.7761 6.74014 12.8698 6.64637C12.9636 6.5526 13.0908 6.49992 13.2234 6.49992H17.0983L16.9949 5.91312L16.4379 2.75252C16.3974 2.52137 16.4385 2.28333 16.5542 2.07916C16.6699 1.87499 16.853 1.71738 17.0721 1.63332L17.8926 1.32162L19.5 6.08202V13.5132ZM23.5 13.5145H20V6.49992H23.5V13.5145Z" fill="black"/>
</svg>
