<svg width="24" height="24" viewBox="0 0 24 24" fill="none" xmlns="http://www.w3.org/2000/svg">
<path d="M17.7988 9.68637L14.3525 6.76637C13.7336 6.24277 12.9493 5.95527 12.1387 5.95487H8.9248C8.51121 5.95399 8.10544 6.06748 7.75231 6.28278C7.39918 6.49808 7.11245 6.80681 6.9238 7.17487L5.2383 10.4423L7.2483 11.7011L9.0483 8.70787H10.4983L8.8359 11.5722L8.835 11.5712L6.5693 15.496L1.7158 15.87V18.2299H6.8965C7.28233 18.2303 7.6624 18.1363 8.00352 17.956C8.34465 17.7757 8.63647 17.5147 8.8535 17.1957L10.4355 14.8686L13.126 17.0863L13.5273 22.0082H15.8633V16.8036C15.8629 16.484 15.7979 16.1677 15.6722 15.8738C15.5465 15.58 15.3627 15.3146 15.1318 15.0936L13.0654 13.1199L14.5586 10.5499L16.083 11.8409C16.5473 12.2288 17.1448 12.4198 17.748 12.3731L21.7373 12.0362V9.68617L17.7988 9.68637ZM20.8877 11.2548L17.6758 11.5253C17.4884 11.5412 17.2998 11.5199 17.1206 11.4628C16.9415 11.4057 16.7754 11.3137 16.6318 11.1923L14.334 9.24497L11.9951 13.2724L14.5451 15.7089C14.693 15.8503 14.8108 16.0202 14.8914 16.2083C14.972 16.3964 15.0136 16.5989 15.0139 16.8036V21.1581H14.3107L13.9445 16.6581L10.2578 13.6199L8.15 16.7167C8.01097 16.9211 7.82401 17.0884 7.60544 17.204C7.38688 17.3196 7.14334 17.38 6.8961 17.3798H2.5654V16.6571L7.0811 16.3085L11.9746 7.85847H8.5674L6.9648 10.5214L6.3516 10.1376L7.68 7.56437C7.79722 7.33515 7.97557 7.14284 8.19532 7.0087C8.41507 6.87457 8.66765 6.80385 8.9251 6.80437H12.139C12.7486 6.80469 13.3385 7.02078 13.804 7.41437L17.4866 10.5355H20.888L20.8877 11.2548ZM15.8594 6.10127C16.2352 6.10127 16.6025 5.98984 16.915 5.78106C17.2274 5.57229 17.471 5.27555 17.6148 4.92837C17.7586 4.58119 17.7962 4.19916 17.7229 3.8306C17.6496 3.46203 17.4686 3.12349 17.2029 2.85777C16.9372 2.59205 16.5986 2.41109 16.2301 2.33778C15.8615 2.26447 15.4795 2.30209 15.1323 2.4459C14.7851 2.58971 14.4884 2.83323 14.2796 3.14569C14.0708 3.45814 13.9594 3.82549 13.9594 4.20127C13.9594 4.70518 14.1596 5.18845 14.5159 5.54477C14.8722 5.90109 15.3555 6.10127 15.8594 6.10127ZM15.8594 3.20127C16.0572 3.20127 16.2505 3.25992 16.415 3.3698C16.5794 3.47968 16.7076 3.63586 16.7833 3.81859C16.859 4.00131 16.8788 4.20238 16.8402 4.39636C16.8016 4.59034 16.7064 4.76852 16.5665 4.90838C16.4267 5.04823 16.2485 5.14347 16.0545 5.18206C15.8605 5.22064 15.6594 5.20084 15.4767 5.12515C15.294 5.04946 15.1378 4.92129 15.0279 4.75684C14.918 4.59239 14.8594 4.39905 14.8594 4.20127C14.8597 3.93616 14.9652 3.68201 15.1527 3.49454C15.3401 3.30708 15.5943 3.20161 15.8594 3.20127Z" fill="black"/>
</svg>
