<svg width="24" height="24" viewBox="0 0 24 24" fill="none" xmlns="http://www.w3.org/2000/svg">
<path d="M15.9 7.41393C15.8989 7.08375 15.9633 6.75663 16.0895 6.45152C16.2157 6.14642 16.4012 5.8694 16.6353 5.63653C17.0375 5.23701 17.3564 4.76162 17.5735 4.23793C17.7906 3.71423 17.9016 3.15264 17.9 2.58573V1.99983H16.1V2.58573C16.1011 2.91591 16.0367 3.24303 15.9105 3.54814C15.7843 3.85324 15.5988 4.13026 15.3647 4.36313C14.9625 4.76264 14.6436 5.23803 14.4265 5.76173C14.2094 6.28543 14.0984 6.84702 14.1 7.41393V7.99983H15.9V7.41393ZM19.9 7.41393C19.8989 7.08375 19.9633 6.75663 20.0895 6.45152C20.2157 6.14642 20.4012 5.8694 20.6353 5.63653C21.0375 5.23701 21.3564 4.76162 21.5735 4.23793C21.7906 3.71423 21.9016 3.15264 21.9 2.58573V1.99983H20.1V2.58573C20.1011 2.91591 20.0367 3.24303 19.9105 3.54814C19.7843 3.85324 19.5988 4.13026 19.3647 4.36313C18.9625 4.76264 18.6436 5.23803 18.4265 5.76173C18.2094 6.28543 18.0984 6.84702 18.1 7.41393V7.99983H19.9V7.41393ZM6.2906 5.49463C6.63672 5.49463 6.97506 5.39199 7.26285 5.1997C7.55063 5.00741 7.77494 4.7341 7.90739 4.41433C8.03984 4.09455 8.0745 3.74269 8.00697 3.40322C7.93945 3.06375 7.77278 2.75193 7.52804 2.50719C7.2833 2.26245 6.97147 2.09578 6.63201 2.02826C6.29254 1.96073 5.94067 1.99539 5.6209 2.12784C5.30113 2.26029 5.02782 2.4846 4.83553 2.77238C4.64324 3.06017 4.5406 3.39851 4.5406 3.74463C4.5406 4.20876 4.72497 4.65388 5.05316 4.98207C5.38135 5.31026 5.82647 5.49463 6.2906 5.49463ZM10.6063 9.99983L10.1606 8.88563C9.93791 8.32893 9.55352 7.85173 9.05702 7.5156C8.56052 7.17946 7.97468 6.99981 7.3751 6.99983H5.5C5.10218 6.99983 4.72064 7.15787 4.43934 7.43917C4.15804 7.72047 4 8.10201 4 8.49983V9.99983H2V17.9998C2 18.7955 2.31607 19.5585 2.87868 20.1212C3.44129 20.6838 4.20435 20.9998 5 20.9998H19C19.7956 20.9998 20.5587 20.6838 21.1213 20.1212C21.6839 19.5585 22 18.7955 22 17.9998V9.99983H10.6063ZM6 8.99983H7.3751C7.57511 8.99916 7.77069 9.05877 7.93631 9.1709C8.10194 9.28303 8.22994 9.44248 8.3036 9.62843L8.4522 9.99983H6V8.99983ZM20 17.9998C19.9997 18.265 19.8943 18.5191 19.7068 18.7066C19.5193 18.8941 19.2651 18.9995 19 18.9998H5C4.73487 18.9995 4.48069 18.8941 4.29321 18.7066C4.10574 18.5191 4.00029 18.265 4 17.9998V11.9998H20V17.9998Z" fill="black"/>
</svg>
