<svg width="24" height="24" viewBox="0 0 24 24" fill="none" xmlns="http://www.w3.org/2000/svg">
<path d="M23 3V18H24V3H23ZM0 18H1V3H0V18ZM5.6542 10.4374C6.00279 10.4374 6.34356 10.334 6.6334 10.1404C6.92325 9.94669 7.14915 9.67142 7.28255 9.34936C7.41594 9.0273 7.45084 8.67291 7.38283 8.33102C7.31481 7.98912 7.14694 7.67508 6.90044 7.42859C6.65394 7.1821 6.33988 7.01425 5.99799 6.94625C5.65609 6.87826 5.3017 6.91318 4.97965 7.04659C4.6576 7.18001 4.38234 7.40593 4.18869 7.69578C3.99503 7.98564 3.89168 8.32641 3.8917 8.675C3.89173 9.14243 4.07743 9.5907 4.40796 9.92121C4.73849 10.2517 5.18677 10.4374 5.6542 10.4374ZM5.6542 7.9125C5.80501 7.9125 5.95243 7.95722 6.07782 8.041C6.20321 8.12479 6.30095 8.24388 6.35866 8.3832C6.41637 8.52253 6.43147 8.67585 6.40205 8.82376C6.37263 8.97167 6.30001 9.10753 6.19337 9.21417C6.08673 9.32081 5.95087 9.39343 5.80296 9.42285C5.65505 9.45227 5.50173 9.43717 5.3624 9.37946C5.22308 9.32175 5.10399 9.22401 5.0202 9.09862C4.93642 8.97323 4.8917 8.82581 4.8917 8.675C4.89194 8.47285 4.97235 8.27904 5.11529 8.13609C5.25824 7.99315 5.45205 7.91274 5.6542 7.9125ZM20.3333 11.3333C20.3333 10.184 19.8768 9.08185 19.0641 8.26919C18.2515 7.45654 17.1493 7 16 7H11C10.2928 7 9.61449 7.28094 9.11439 7.78102C8.61429 8.2811 8.33333 8.95936 8.3333 9.6666V11.5H2.6667V12.5H5.3333V18H18.6667V12.5H21.3333V11.5H20.3333V11.3333ZM17.6667 17H6.3333V12.5H17.6667V17ZM9.3333 11.5V10.1163C9.3333 9.1974 10.081 8 11 8H16C16.8764 8.00092 17.7173 8.34671 18.3408 8.96262C18.9643 9.57852 19.3203 10.4151 19.332 11.2914C19.3329 11.3053 19.3333 11.4859 19.3333 11.5H9.3333Z" fill="black"/>
</svg>
