<svg width="24" height="24" viewBox="0 0 24 24" fill="none" xmlns="http://www.w3.org/2000/svg">
<path d="M16.1274 8.5452C15.7465 8.54522 15.3741 8.65819 15.0574 8.86984C14.7407 9.08148 14.4938 9.38229 14.3481 9.73422C14.2023 10.0862 14.1642 10.4734 14.2385 10.847C14.3128 11.2206 14.4963 11.5638 14.7656 11.8331C15.035 12.1025 15.3782 12.2859 15.7518 12.3602C16.1254 12.4345 16.5126 12.3964 16.8646 12.2506C17.2165 12.1048 17.5173 11.8579 17.7289 11.5412C17.9405 11.2245 18.0535 10.8521 18.0535 10.4712C18.0535 10.2183 18.0037 9.9678 17.9069 9.73411C17.8101 9.50043 17.6682 9.2881 17.4894 9.10925C17.3105 8.9304 17.0982 8.78853 16.8645 8.69175C16.6308 8.59497 16.3803 8.54517 16.1274 8.5452ZM16.1274 11.3971C15.9442 11.3971 15.7652 11.3428 15.6129 11.241C15.4607 11.1392 15.342 10.9946 15.2719 10.8254C15.2019 10.6562 15.1836 10.47 15.2193 10.2903C15.2551 10.1107 15.3433 9.94574 15.4728 9.81625C15.6023 9.68676 15.7673 9.59858 15.9469 9.56287C16.1266 9.52716 16.3127 9.54552 16.4819 9.61563C16.6511 9.68573 16.7958 9.80443 16.8975 9.95673C16.9992 10.109 17.0535 10.2881 17.0535 10.4712C17.0533 10.7167 16.9556 10.9521 16.782 11.1257C16.6083 11.2993 16.3729 11.3969 16.1274 11.3971ZM7.87259 8.5452C7.49165 8.54514 7.11925 8.65805 6.80248 8.86964C6.48571 9.08124 6.2388 9.38202 6.09298 9.73394C5.94716 10.0859 5.90898 10.4731 5.98326 10.8468C6.05754 11.2204 6.24095 11.5636 6.5103 11.833C6.77964 12.1024 7.12282 12.2858 7.49644 12.3602C7.87005 12.4345 8.25732 12.3964 8.60927 12.2506C8.96122 12.1049 9.26203 11.858 9.47368 11.5413C9.68532 11.2245 9.79829 10.8521 9.79829 10.4712C9.79829 9.96044 9.59541 9.47061 9.23428 9.10942C8.87315 8.74823 8.38335 8.54528 7.87259 8.5452ZM7.87259 11.3971C7.68943 11.3972 7.51036 11.3429 7.35804 11.2412C7.20572 11.1395 7.08698 10.9949 7.01685 10.8256C6.94672 10.6564 6.92835 10.4702 6.96405 10.2906C6.99976 10.1109 7.08794 9.94592 7.21744 9.81639C7.34694 9.68686 7.51195 9.59865 7.69159 9.5629C7.87123 9.52716 8.05743 9.54549 8.22665 9.61559C8.39587 9.68568 8.54051 9.80438 8.64226 9.95668C8.74401 10.109 8.79831 10.288 8.79829 10.4712C8.79797 10.7166 8.70035 10.9519 8.52682 11.1255C8.35329 11.2991 8.11802 11.3967 7.87259 11.3971ZM12.6079 2H11.3921C9.27036 2 7.23553 2.84285 5.73524 4.34315C4.23494 5.84344 3.39209 7.87827 3.39209 10V12.5294C3.39209 13.5903 3.81352 14.6077 4.56366 15.3578C5.31381 16.108 6.33122 16.5294 7.39209 16.5294H7.74509V19C7.74509 19.5304 7.9558 20.0391 8.33088 20.4142C8.70595 20.7893 9.21466 21 9.74509 21H14.2551C14.7855 21 15.2942 20.7893 15.6693 20.4142C16.0444 20.0391 16.2551 19.5304 16.2551 19V16.5294H16.6081C17.669 16.5294 18.6864 16.108 19.4365 15.3578C20.1867 14.6077 20.6081 13.5903 20.6081 12.5294V10C20.6081 8.94941 20.4012 7.9091 19.9991 6.93849C19.5971 5.96787 19.0078 5.08595 18.2649 4.34308C17.522 3.6002 16.64 3.01093 15.6694 2.60891C14.6988 2.20688 13.6585 1.99997 12.6079 2ZM19.6074 12.5293C19.6065 13.3247 19.2902 14.0872 18.7277 14.6497C18.1653 15.2121 17.4028 15.5284 16.6074 15.5293H15.2549V19C15.2547 19.2652 15.1493 19.5194 14.9618 19.7069C14.7743 19.8944 14.52 19.9998 14.2549 20H9.74489C9.47973 19.9998 9.22548 19.8944 9.03799 19.7069C8.85049 19.5194 8.74507 19.2652 8.74489 19V15.5293H7.39259C6.59721 15.5284 5.83465 15.2121 5.27223 14.6497C4.70981 14.0872 4.39346 13.3247 4.39259 12.5293V10C4.39484 8.14418 5.13306 6.365 6.44533 5.05274C7.75759 3.74047 9.53676 3.00225 11.3926 3H12.6074C14.4632 3.00225 16.2424 3.74047 17.5547 5.05274C18.8669 6.365 19.6051 8.14418 19.6074 10V12.5293ZM12 11C11.9224 11 11.8474 11.0275 11.7883 11.0777C11.7292 11.1278 11.6898 11.1974 11.6772 11.2739L11.1453 14.5H12.8547L12.3228 11.2739C12.3102 11.1974 12.2708 11.1278 12.2117 11.0777C12.1526 11.0275 12.0775 11 12 11Z" fill="black"/>
</svg>
