<svg width="24" height="24" viewBox="0 0 24 24" fill="none" xmlns="http://www.w3.org/2000/svg">
<path d="M23.5 4V19H24V4H23.5ZM0 19H0.5V4H0V19ZM2 13.25H5V19H19V13.25H22V12.75H2V13.25ZM6.3125 10.875C6.59681 10.875 6.87474 10.7907 7.11113 10.6327C7.34753 10.4748 7.53178 10.2503 7.64058 9.98761C7.74938 9.72494 7.77784 9.43591 7.72238 9.15706C7.66691 8.87821 7.53 8.62207 7.32897 8.42103C7.12793 8.22 6.87179 8.08309 6.59294 8.02762C6.31409 7.97216 6.02506 8.00062 5.76239 8.10942C5.49972 8.21822 5.27522 8.40247 5.11726 8.63887C4.95931 8.87526 4.875 9.15319 4.875 9.4375C4.875 9.81875 5.02645 10.1844 5.29603 10.454C5.56562 10.7235 5.93125 10.875 6.3125 10.875ZM16 8H11C10.4696 8 9.96086 8.21071 9.58579 8.58579C9.21071 8.96086 9 9.46957 9 10V11H19C19 10.2044 18.6839 9.44129 18.1213 8.87868C17.5587 8.31607 16.7956 8 16 8Z" fill="black"/>
</svg>
