<svg width="24" height="24" viewBox="0 0 24 24" fill="none" xmlns="http://www.w3.org/2000/svg">
<path d="M11.2917 5.64473C11.6675 5.64473 12.0348 5.53329 12.3473 5.32452C12.6598 5.11575 12.9033 4.81901 13.0471 4.47183C13.1909 4.12465 13.2285 3.74262 13.1552 3.37406C13.0819 3.00549 12.9009 2.66694 12.6352 2.40122C12.3695 2.1355 12.031 1.95455 11.6624 1.88124C11.2938 1.80792 10.9118 1.84555 10.5646 1.98936C10.2174 2.13316 9.9207 2.37669 9.71192 2.68914C9.50315 3.0016 9.39171 3.36894 9.39171 3.74473C9.39171 4.24864 9.59189 4.73191 9.94821 5.08823C10.3045 5.44455 10.7878 5.64473 11.2917 5.64473ZM11.2917 2.74473C11.4895 2.74473 11.6828 2.80338 11.8473 2.91326C12.0117 3.02314 12.1399 3.17932 12.2156 3.36204C12.2913 3.54477 12.3111 3.74584 12.2725 3.93982C12.2339 4.1338 12.1387 4.31198 11.9988 4.45183C11.859 4.59169 11.6808 4.68693 11.4868 4.72551C11.2928 4.7641 11.0918 4.74429 10.909 4.66861C10.7263 4.59292 10.5701 4.46475 10.4602 4.3003C10.3504 4.13585 10.2917 3.94251 10.2917 3.74473C10.292 3.4796 10.3975 3.22542 10.5849 3.03794C10.7724 2.85047 11.0266 2.74502 11.2917 2.74473ZM17.2292 21.9999H20.5529L18.9941 14.0459C18.8908 13.5187 18.6075 13.0438 18.1926 12.7024C17.7778 12.361 17.2573 12.1743 16.72 12.1743H13.9059V9.40583C13.9059 9.08988 13.8437 8.77703 13.7228 8.48513C13.6019 8.19323 13.4247 7.92801 13.2012 7.7046C12.9778 7.48119 12.7126 7.30397 12.4207 7.18307C12.1288 7.06216 11.816 6.99993 11.5 6.99993H10.5C10.1022 6.99993 9.72066 7.15796 9.43935 7.43927C9.15805 7.72057 9.00001 8.1021 9.00001 8.49993V10.0899C7.87273 10.2811 6.82359 10.7906 5.97625 11.5582C5.1289 12.3259 4.51867 13.3198 4.21746 14.4228C3.91625 15.5258 3.93662 16.6919 4.27618 17.7837C4.61573 18.8755 5.26032 19.8475 6.13396 20.5851C7.00761 21.3227 8.0739 21.7952 9.20717 21.9469C10.3404 22.0986 11.4935 21.9231 12.5303 21.4413C13.5672 20.9594 14.4447 20.1911 15.0595 19.2271C15.6742 18.263 16.0005 17.1433 16 15.9999C16 15.8313 15.9818 15.6674 15.9669 15.5028H15.9882L17.2292 21.9999ZM10 20.9999C8.76101 20.9998 7.56616 20.5397 6.64711 19.7088C5.72805 18.8778 5.15026 17.7352 5.02572 16.5025C4.90119 15.2697 5.23879 14.0347 5.97309 13.0367C6.70738 12.0387 7.78606 11.3489 9.00001 11.101V13.9999C9.00001 14.3978 9.15805 14.7793 9.43935 15.0606C9.72066 15.3419 10.1022 15.4999 10.5 15.4999H12V15.5028H14.9586C14.9838 15.6674 14.9976 15.8335 15 15.9999C14.9985 17.3255 14.4712 18.5964 13.5339 19.5338C12.5965 20.4711 11.3256 20.9984 10 20.9999ZM13 14.5028V14.4999H10.5C10.3675 14.4998 10.2404 14.447 10.1466 14.3533C10.0529 14.2596 10.0002 14.1325 10 13.9999V8.49993C10.0002 8.36737 10.0529 8.24028 10.1466 8.14655C10.2404 8.05282 10.3675 8.00009 10.5 7.99993H11.5C11.8728 8.00035 12.2301 8.14861 12.4937 8.41217C12.7572 8.67574 12.9055 9.03309 12.9059 9.40583V13.1743H16.72C17.0253 13.1748 17.321 13.2811 17.5567 13.4751C17.7924 13.6691 17.9536 13.9388 18.0128 14.2382L19.338 20.9999H18.0563L16.9705 15.3152L16.8153 14.5028H13Z" fill="black"/>
</svg>
