<svg width="24" height="24" viewBox="0 0 24 24" fill="none" xmlns="http://www.w3.org/2000/svg">
<path d="M9.60778 5.49463C9.9539 5.49463 10.2922 5.39199 10.58 5.1997C10.8678 5.00741 11.0921 4.7341 11.2246 4.41433C11.357 4.09455 11.3917 3.74269 11.3242 3.40322C11.2566 3.06375 11.09 2.75193 10.8452 2.50719C10.6005 2.26245 10.2887 2.09578 9.94919 2.02826C9.60973 1.96073 9.25786 1.99539 8.93809 2.12784C8.61832 2.26029 8.34501 2.4846 8.15271 2.77238C7.96042 3.06017 7.85779 3.39851 7.85779 3.74463C7.85779 4.20876 8.04216 4.65388 8.37035 4.98207C8.69854 5.31026 9.14366 5.49463 9.60778 5.49463ZM14.7354 18.0146H10.9121C10.2536 18.014 9.61369 17.7964 9.0913 17.3955C8.5689 16.9946 8.19313 16.4328 8.02209 15.7969L5.81839 7.56983C5.79286 7.47467 5.74885 7.38546 5.68885 7.30731C5.62885 7.22916 5.55405 7.16359 5.46871 7.11435C5.38338 7.06511 5.28918 7.03315 5.19149 7.02032C5.09381 7.00748 4.99455 7.01401 4.89939 7.03953C4.80422 7.06505 4.71502 7.10907 4.63687 7.16906C4.55872 7.22906 4.49315 7.30386 4.4439 7.3892C4.39466 7.47454 4.36271 7.56874 4.34987 7.66642C4.33703 7.76411 4.34356 7.86337 4.36909 7.95853L6.57319 16.185C6.83018 17.1396 7.39442 17.9829 8.17868 18.5846C8.96295 19.1863 9.92357 19.513 10.9121 19.5141H14.7354C14.9343 19.5141 15.1251 19.4351 15.2657 19.2945C15.4064 19.1538 15.4854 18.963 15.4854 18.7641C15.4854 18.5652 15.4064 18.3745 15.2657 18.2338C15.1251 18.0931 14.9343 18.0141 14.7354 18.0141V18.0146ZM18.44 15.5698C18.34 15.1259 18.0925 14.7289 17.7379 14.4437C17.3832 14.1586 16.9424 14.0021 16.4873 13.9998H14.3752L12.94 8.66513C12.8114 8.1872 12.5288 7.76501 12.1359 7.46395C11.7431 7.16289 11.2619 6.99976 10.767 6.99983H9.27419C9.07467 6.99984 8.87783 7.04577 8.69892 7.13406C8.52 7.22236 8.36381 7.35065 8.24244 7.50901C8.12107 7.66736 8.03777 7.85153 7.99901 8.04724C7.96024 8.24296 7.96704 8.44497 8.01889 8.63763L9.73439 15.0129C9.81061 15.2961 9.97808 15.5463 10.2108 15.7247C10.4436 15.9031 10.7287 15.9998 11.022 15.9998H16.4873L17.8073 21.9998H19.855L18.44 15.5698Z" fill="black"/>
</svg>
