<svg width="24" height="24" viewBox="0 0 24 24" fill="none" xmlns="http://www.w3.org/2000/svg">
<path d="M22.0034 17.1284L20.8716 15.9966L19 17.8682L17.1284 15.9966L15.9966 17.1284L17.8682 19L15.9966 20.8716L17.1284 22.0034L19 20.1318L20.8716 22.0034L22.0034 20.8716L20.1318 19L22.0034 17.1284ZM9.6045 1.00003C7.58834 1.00222 5.65538 1.80412 4.22973 3.22976C2.80409 4.65541 2.0022 6.58836 2 8.60453H4C4.00161 7.11862 4.59261 5.69403 5.6433 4.64333C6.694 3.59263 8.11859 3.00164 9.6045 3.00003C11.0275 2.99409 12.3947 3.55287 13.4062 4.55377C14.4178 5.55467 14.9909 6.91595 15 8.33893C15.0037 9.68591 14.7402 11.0202 14.2247 12.2647C13.7093 13.5092 12.9521 14.639 11.9971 15.5889L7.1211 20.4648C6.86536 20.7204 6.53959 20.8945 6.18496 20.965C5.83033 21.0354 5.46276 20.9992 5.12872 20.8608C4.79468 20.7225 4.50916 20.4882 4.30825 20.1875C4.10735 19.8869 4.00008 19.5335 4 19.1719V17H2V19.1719C2.00003 19.9291 2.22456 20.6692 2.64522 21.2987C3.06587 21.9283 3.66375 22.4189 4.36326 22.7087C5.06276 22.9984 5.83248 23.0742 6.57508 22.9266C7.31767 22.7789 7.9998 22.4143 8.5352 21.8789L13.4111 17.0029C14.5525 15.8678 15.4574 14.5176 16.0735 13.0304C16.6895 11.5433 17.0044 9.94865 17 8.33893C16.9903 6.38569 16.2063 4.51606 14.8198 3.14021C13.4334 1.76436 11.5577 0.994681 9.6045 1.00003ZM6.8789 14H6V16H6.8789C7.49619 16 8.09961 15.8169 8.61286 15.474C9.12611 15.131 9.52614 14.6436 9.76236 14.0733C9.99859 13.503 10.0604 12.8754 9.94 12.27C9.81959 11.6646 9.52237 11.1084 9.0859 10.6719L8 9.58593V8.50003C8.00297 8.29751 8.04629 8.09761 8.12745 7.91204C8.2086 7.72646 8.32595 7.55894 8.47262 7.41926C8.6193 7.27959 8.79236 7.17057 8.98168 7.09858C9.171 7.0266 9.37278 6.99309 9.5752 7.00003C9.768 7.00247 9.95837 7.0435 10.1351 7.1207C10.3118 7.19789 10.4712 7.30969 10.604 7.44949C10.7368 7.5893 10.8402 7.75428 10.9083 7.9347C10.9763 8.11513 11.0075 8.30735 11 8.50003C10.9996 8.97205 10.9335 9.44171 10.8037 9.89553L12.7256 10.4463C12.9128 9.78915 13.0052 9.10862 13 8.42533C12.9977 7.97091 12.9055 7.52144 12.7287 7.10284C12.5519 6.68423 12.294 6.30477 11.9698 5.98635C11.6456 5.66792 11.2616 5.41682 10.8398 5.24754C10.4181 5.07826 9.96708 4.99414 9.5127 5.00003C8.58311 4.99949 7.69125 5.36767 7.03274 6.0238C6.37423 6.67992 6.00283 7.57044 6 8.50003V10.4141L7.6719 12.0859C7.8286 12.2428 7.93529 12.4426 7.97848 12.6601C8.02167 12.8775 7.99943 13.1029 7.91456 13.3078C7.8297 13.5126 7.68602 13.6877 7.50168 13.8109C7.31735 13.9341 7.10062 13.9999 6.8789 14Z" fill="black"/>
</svg>
