<svg width="24" height="24" viewBox="0 0 24 24" fill="none" xmlns="http://www.w3.org/2000/svg">
<path d="M12 4.75C12.3461 4.75 12.6845 4.64737 12.9723 4.45507C13.26 4.26278 13.4843 3.98947 13.6168 3.6697C13.7492 3.34993 13.7839 2.99806 13.7164 2.65859C13.6489 2.31913 13.4822 2.00731 13.2374 1.76256C12.9927 1.51782 12.6809 1.35115 12.3414 1.28363C12.0019 1.2161 11.6501 1.25076 11.3303 1.38321C11.0105 1.51566 10.7372 1.73997 10.5449 2.02775C10.3526 2.31554 10.25 2.65388 10.25 3C10.25 3.46413 10.4344 3.90925 10.7626 4.23744C11.0908 4.56563 11.5359 4.75 12 4.75ZM14.6346 7.1675L14.4546 6.9875C14.1324 6.66497 13.7498 6.40911 13.3287 6.23453C12.9076 6.05996 12.4562 5.97011 12.0003 5.97011C11.5444 5.97011 11.093 6.05996 10.6719 6.23453C10.2508 6.40911 9.86818 6.66497 9.546 6.9875L9.366 7.1675L6.5807 18H9.5085V24H11.0085V18H12.9915V24H14.4915V18H17.4193L14.6346 7.1675Z" fill="black"/>
</svg>
