<svg width="24" height="24" viewBox="0 0 24 24" fill="none" xmlns="http://www.w3.org/2000/svg">
<path d="M17.49 5.78516C17.8361 5.78516 18.1744 5.68252 18.4622 5.49023C18.75 5.29794 18.9743 5.02462 19.1068 4.70485C19.2392 4.38508 19.2739 4.03322 19.2063 3.69375C19.1388 3.35428 18.9722 3.04246 18.7274 2.79772C18.4827 2.55298 18.1708 2.38631 17.8314 2.31878C17.4919 2.25126 17.14 2.28591 16.8203 2.41837C16.5005 2.55082 16.2272 2.77512 16.0349 3.06291C15.8426 3.3507 15.74 3.68904 15.74 4.03516C15.74 4.49929 15.9243 4.94441 16.2525 5.27259C16.5807 5.60078 17.0258 5.78516 17.49 5.78516ZM17.49 3.18516C17.6581 3.18516 17.8224 3.23501 17.9622 3.32841C18.102 3.42181 18.2109 3.55456 18.2753 3.70988C18.3396 3.86519 18.3564 4.0361 18.3236 4.20098C18.2908 4.36587 18.2099 4.51732 18.091 4.6362C17.9721 4.75507 17.8207 4.83603 17.6558 4.86882C17.4909 4.90162 17.32 4.88479 17.1647 4.82045C17.0094 4.75612 16.8766 4.64717 16.7832 4.50739C16.6898 4.36761 16.64 4.20327 16.64 4.03516C16.6402 3.8098 16.7299 3.59376 16.8892 3.43441C17.0486 3.27506 17.2646 3.18542 17.49 3.18516ZM6.48527 5.78516C6.83139 5.78516 7.16974 5.68252 7.45752 5.49023C7.74531 5.29794 7.96961 5.02462 8.10206 4.70485C8.23452 4.38508 8.26917 4.03322 8.20165 3.69375C8.13412 3.35428 7.96745 3.04246 7.72271 2.79772C7.47797 2.55298 7.16615 2.38631 6.82668 2.31878C6.48721 2.25126 6.13535 2.28591 5.81558 2.41837C5.49581 2.55082 5.22249 2.77512 5.0302 3.06291C4.83791 3.3507 4.73527 3.68904 4.73527 4.03516C4.73527 4.26499 4.78055 4.49257 4.8685 4.7049C4.95646 4.91723 5.08538 5.11016 5.24791 5.27266C5.41043 5.43517 5.60337 5.56407 5.81572 5.652C6.02806 5.73994 6.25564 5.78518 6.48547 5.78516H6.48527ZM6.48527 3.18516C6.65339 3.18516 6.81773 3.23501 6.95751 3.32841C7.09729 3.42181 7.20624 3.55456 7.27057 3.70988C7.33491 3.86519 7.35174 4.0361 7.31894 4.20098C7.28614 4.36587 7.20519 4.51732 7.08631 4.6362C6.96744 4.75507 6.81598 4.83603 6.6511 4.86882C6.48622 4.90162 6.31531 4.88479 6.15999 4.82045C6.00468 4.75612 5.87192 4.64717 5.77852 4.50739C5.68512 4.36761 5.63527 4.20327 5.63527 4.03516C5.63551 3.80976 5.72517 3.59367 5.88457 3.43431C6.04396 3.27495 6.26008 3.18534 6.48547 3.18516H6.48527ZM19.99 8.53616C19.6984 8.15024 19.3213 7.8372 18.8883 7.62165C18.4553 7.40611 17.9782 7.29392 17.4945 7.29392C17.0108 7.29392 16.5337 7.40611 16.1007 7.62165C15.6678 7.8372 15.2906 8.15024 14.9991 8.53616H14.99V8.54696L11.9877 12.5338L8.98527 8.54376V8.53666H8.97917C8.68766 8.15019 8.31042 7.83666 7.87715 7.62077C7.44388 7.40487 6.96641 7.2925 6.48232 7.2925C5.99824 7.2925 5.52077 7.40487 5.0875 7.62077C4.65422 7.83666 4.27698 8.15019 3.98547 8.53666V21.9998H4.98547V15.9998H7.98547V21.9998H8.98547V10.1681L11.2375 13.1362C11.3254 13.2519 11.4389 13.3458 11.5691 13.4105C11.6993 13.4751 11.8427 13.5087 11.988 13.5087C12.1334 13.5087 12.2768 13.4751 12.407 13.4105C12.5372 13.3458 12.6507 13.2519 12.7386 13.1362L14.99 10.1712V21.9998H15.99V15.9998H18.99V21.9998H19.99V8.53666V8.53616ZM7.98537 14.9998H4.98537V8.90796C5.38496 8.5129 5.92447 8.29174 6.48638 8.29266C7.04829 8.29357 7.58708 8.51649 7.98537 8.91286V14.9998ZM18.99 14.9998H15.99V8.91676C16.3875 8.51945 16.9259 8.29543 17.4879 8.29355C18.0499 8.29168 18.5899 8.5121 18.99 8.90676V14.9998Z" fill="black"/>
</svg>
