<svg width="24" height="24" viewBox="0 0 24 24" fill="none" xmlns="http://www.w3.org/2000/svg">
<path d="M11 2.04288V1.08398C8.82185 1.31373 6.80465 2.33775 5.33365 3.96048C3.86265 5.5832 3.04091 7.69091 3.02539 9.88108V13.0236C3.02524 15.5797 3.9307 18.0532 5.58109 20.0051L6.25609 19.3301C4.7823 17.5589 3.97511 15.3277 3.97459 13.0236V9.88108C3.98999 7.94308 4.71226 6.07734 6.00581 4.63413C7.29936 3.19093 9.07522 2.26952 11 2.04288ZM13 1.08398V2.04288C14.9248 2.26952 16.7006 3.19093 17.9942 4.63413C19.2877 6.07734 20.01 7.94308 20.0254 9.88108V13.0236C20.024 14.2634 19.6195 15.4692 18.8729 16.4591L19.5497 17.1358C20.4716 15.9632 20.9733 14.5152 20.9746 13.0236V9.88108C20.9591 7.69091 20.1373 5.5832 18.6663 3.96048C17.1953 2.33775 15.1781 1.31373 13 1.08398ZM7.00259 21.4117C9.00459 23.0715 11.5244 23.9783 14.125 23.9748V23.0256C11.7756 23.0299 9.49688 22.2225 7.67419 20.7402L7.00259 21.4117ZM14.125 18.8352C12.5726 18.8448 11.0797 18.2384 9.97364 17.149C8.86763 16.0596 8.23878 14.576 8.22499 13.0236V9.88108C8.24111 8.89043 8.64597 7.9458 9.35224 7.25093C10.0585 6.55606 11.0096 6.16663 12.0004 6.16663C12.9912 6.16663 13.9423 6.55606 14.6485 7.25093C15.3548 7.9458 15.7597 8.89043 15.7758 9.88108V13.0236C15.7675 13.4558 15.59 13.8676 15.2814 14.1704C14.9728 14.4732 14.5577 14.6428 14.1254 14.6428C13.693 14.6428 13.278 14.4732 12.9693 14.1704C12.6607 13.8676 12.4832 13.4558 12.475 13.0236V9.88108H11.5258V13.0236C11.5377 13.7051 11.8169 14.3547 12.3031 14.8325C12.7893 15.3103 13.4437 15.578 14.1254 15.578C14.8071 15.578 15.4615 15.3103 15.9477 14.8325C16.4339 14.3547 16.713 13.7051 16.725 13.0236V9.88108C16.7088 8.63869 16.2039 7.45266 15.3197 6.57982C14.4354 5.70697 13.2429 5.21757 12.0004 5.21757C10.7579 5.21757 9.5654 5.70697 8.68112 6.57982C7.79684 7.45266 7.29196 8.63869 7.27579 9.88108V13.0236C7.29326 14.2737 7.6522 15.4952 8.31379 16.5561C8.97537 17.6169 9.91442 18.4767 11.0294 19.0424C12.1443 19.6081 13.3927 19.8581 14.6395 19.7655C15.8863 19.673 17.084 19.2412 18.1032 18.5171L17.425 17.8389C16.4479 18.4905 15.2994 18.8372 14.125 18.8352Z" fill="black"/>
</svg>
