<svg width="24" height="24" viewBox="0 0 24 24" fill="none" xmlns="http://www.w3.org/2000/svg">
<path d="M13.8716 8.99658L12 10.8682L10.1284 8.99658L8.99661 10.1284L10.8682 12L8.99661 13.8716L10.1284 15.0034L12 13.1318L13.8716 15.0034L15.0034 13.8716L13.1318 12L15.0034 10.1284L13.8716 8.99658ZM12 4.62158C9.55811 4.62277 7.16665 5.31669 5.10338 6.62274C3.04011 7.9288 1.38969 9.7934 0.343811 12C1.38873 14.2073 3.03893 16.0725 5.10241 17.3787C7.1659 18.6849 9.55786 19.3784 12 19.3784C14.4422 19.3784 16.8341 18.6849 18.8976 17.3787C20.9611 16.0725 22.6113 14.2073 23.6562 12C22.6103 9.7934 20.9599 7.9288 18.8966 6.62274C16.8334 5.31669 14.4419 4.62277 12 4.62158ZM12 17.3783C10.1031 17.3702 8.24062 16.8704 6.59443 15.9278C4.94824 14.9852 3.57455 13.6319 2.60741 12C3.56838 10.3626 4.94071 9.00484 6.58828 8.06141C8.23586 7.11799 10.1014 6.62167 12 6.62167C13.8986 6.62167 15.7642 7.11799 17.4117 8.06141C19.0593 9.00484 20.4316 10.3626 21.3926 12C20.4255 13.6319 19.0518 14.9852 17.4056 15.9278C15.7594 16.8704 13.897 17.3702 12 17.3783Z" fill="black"/>
</svg>
