<svg width="24" height="24" viewBox="0 0 24 24" fill="none" xmlns="http://www.w3.org/2000/svg">
<path d="M18 9.97674V11.526C20.19 12.4749 21.5667 13.8905 21.5667 15.32C21.5667 17.8106 17.4021 20.2667 12 20.2667C6.5979 20.2667 2.4333 17.8106 2.4333 15.32C2.4333 13.89 3.8096 12.4749 6 11.526V9.97674C2.9919 11.1153 1 13.0813 1 15.32C1 18.8436 5.9249 21.7 12 21.7C18.0751 21.7 23 18.8436 23 15.32C23 13.0813 21.0081 11.1153 18 9.97674ZM12 4.40674C12.2967 4.40674 12.5867 4.31877 12.8334 4.15394C13.08 3.98912 13.2723 3.75485 13.3858 3.48076C13.4994 3.20667 13.5291 2.90507 13.4712 2.6141C13.4133 2.32313 13.2704 2.05586 13.0607 1.84608C12.8509 1.6363 12.5836 1.49344 12.2926 1.43556C12.0017 1.37768 11.7001 1.40739 11.426 1.52092C11.1519 1.63445 10.9176 1.82671 10.7528 2.07338C10.588 2.32006 10.5 2.61007 10.5 2.90674C10.5001 3.30448 10.6582 3.68588 10.9395 3.96708C11.2208 4.24827 11.6023 4.40624 12 4.40624V4.40674ZM9.65 18H14.35V13H15.99V7.82474L15.6971 7.53174C15.2116 7.04613 14.6352 6.66093 14.0008 6.39811C13.3664 6.1353 12.6865 6.00003 11.9998 6.00003C11.3131 6.00003 10.6332 6.1353 9.99879 6.39811C9.3644 6.66093 8.788 7.04613 8.3025 7.53174L8.0096 7.82474V13H9.65V18ZM9.51 11.5V8.45344C10.1941 7.83966 11.0809 7.50019 12 7.50019C12.9191 7.50019 13.8059 7.83966 14.49 8.45344V11.5H12.85V16.5H11.15V11.5H9.51Z" fill="black"/>
</svg>
