<svg width="24" height="24" viewBox="0 0 24 24" fill="none" xmlns="http://www.w3.org/2000/svg">
<path d="M20.6777 12.303C18.3748 10.1622 15.3417 8.98083 12.1975 9H11V2.5C11 2.10218 10.842 1.72064 10.5607 1.43934C10.2794 1.15804 9.89783 1 9.50001 1C9.10219 1 8.72065 1.15804 8.43935 1.43934C8.15805 1.72064 8.00001 2.10218 8.00001 2.5L8.01791 15.9819L5.10061 12.8135C4.81611 12.5045 4.43027 12.3077 4.01311 12.2589C3.59594 12.2101 3.17509 12.3124 2.82691 12.5473L1.89331 13.1773L5.21421 18.5373C6.05327 19.8915 7.2194 21.0129 8.60533 21.7983C9.99125 22.5838 11.5525 23.0081 13.1453 23.0322C15.2372 23.0213 17.2394 22.1807 18.7121 20.6949C20.1847 19.2091 21.0076 17.1997 21 15.1077V12.6066L20.6777 12.303Z" fill="black"/>
</svg>
