<svg width="24" height="24" viewBox="0 0 24 24" fill="none" xmlns="http://www.w3.org/2000/svg">
<path d="M21 11.25V11C21 9.67392 20.4732 8.40215 19.5355 7.46447C18.5979 6.52678 17.3261 6 16 6H11C10.2044 6 9.44129 6.31607 8.87868 6.87868C8.31607 7.44129 8 8.20435 8 9V11.25H1V12.75H4V18H20V12.75H23V11.25H21ZM18.5 16.5H5.5V12.75H18.5V16.5ZM19.5 11.25H9.5V9C9.50045 8.60231 9.65863 8.22104 9.93984 7.93984C10.221 7.65863 10.6023 7.50045 11 7.5H16C16.9279 7.50111 17.8175 7.87022 18.4736 8.52635C19.1298 9.18249 19.4989 10.0721 19.5 11V11.25ZM4.6078 9.2448C4.90447 9.2448 5.19448 9.15683 5.44116 8.992C5.68783 8.82718 5.88009 8.59291 5.99362 8.31882C6.10715 8.04474 6.13686 7.74314 6.07898 7.45216C6.0211 7.16119 5.87824 6.89392 5.66846 6.68414C5.45868 6.47436 5.19141 6.3315 4.90044 6.27362C4.60946 6.21574 4.30786 6.24545 4.03377 6.35898C3.75969 6.47251 3.52542 6.66477 3.3606 6.91144C3.19577 7.15812 3.1078 7.44813 3.1078 7.7448C3.1078 8.14262 3.26584 8.52416 3.54714 8.80546C3.82844 9.08676 4.20998 9.2448 4.6078 9.2448Z" fill="black"/>
</svg>
