<svg width="24" height="24" viewBox="0 0 24 24" fill="none" xmlns="http://www.w3.org/2000/svg">
<path d="M13.6394 5.35078C14.0152 5.35078 14.3825 5.23935 14.695 5.03057C15.0074 4.8218 15.251 4.52506 15.3948 4.17788C15.5386 3.8307 15.5762 3.44867 15.5029 3.08011C15.4296 2.71155 15.2486 2.373 14.9829 2.10728C14.7172 1.84156 14.3786 1.6606 14.0101 1.58729C13.6415 1.51398 13.2595 1.5516 12.9123 1.69541C12.5651 1.83922 12.2684 2.08275 12.0596 2.3952C11.8508 2.70765 11.7394 3.075 11.7394 3.45078C11.7394 3.70029 11.7885 3.94736 11.884 4.17788C11.9795 4.4084 12.1195 4.61785 12.2959 4.79428C12.4723 4.97072 12.6818 5.11067 12.9123 5.20615C13.1428 5.30164 13.3899 5.35078 13.6394 5.35078ZM13.6394 2.45078C13.8372 2.45078 14.0305 2.50943 14.195 2.61931C14.3594 2.72919 14.4876 2.88537 14.5633 3.0681C14.639 3.25082 14.6588 3.45189 14.6202 3.64587C14.5816 3.83985 14.4864 4.01804 14.3465 4.15789C14.2067 4.29774 14.0285 4.39298 13.8345 4.43157C13.6405 4.47015 13.4394 4.45035 13.2567 4.37466C13.074 4.29897 12.9178 4.1708 12.8079 4.00635C12.6981 3.8419 12.6394 3.64856 12.6394 3.45078C12.6397 3.18567 12.7452 2.93151 12.9327 2.74406C13.1201 2.55661 13.3743 2.45117 13.6394 2.45088V2.45078ZM13.8057 11.7384L17.2557 14.6056L18.9031 12.9571L16.1424 10.1971L14.8633 7.55098C14.7484 7.31446 14.5841 7.10537 14.3814 6.93788C14.1787 6.77039 13.9424 6.64841 13.6885 6.58018L11.7529 6.06158C11.3039 5.93892 10.8256 5.98371 10.4072 6.18758L7.6689 7.51088C7.32024 7.68004 7.0165 7.92922 6.78248 8.23811C6.54845 8.54701 6.39077 8.90685 6.3223 9.28828L5.6758 12.9328L7.9521 13.5549L8.9365 9.94648L9.8955 9.57438L7.8828 16.9113L4.9961 22.0031H7.6973L10.4766 17.9055L11.1211 15.885L14.6855 22.0031H17.2555L13.0655 13.0266L13.545 11.2834L13.8057 11.7384ZM12.1113 13.1065L15.8413 21.1026H15.2026L10.8652 13.6602L9.6943 17.4553L7.2207 21.1027H6.5407L8.6931 17.3059L11.237 8.08808L8.1885 9.27268L7.3213 12.4494L6.7051 12.2802L7.209 9.44618C7.2522 9.20492 7.3518 8.97728 7.49969 8.78183C7.64758 8.58637 7.83957 8.42864 8.06 8.32148L10.7988 6.99818C11.0231 6.88983 11.279 6.86593 11.5195 6.93088L13.4551 7.44938C13.5843 7.48415 13.7045 7.54627 13.8076 7.63153C13.9107 7.71679 13.9943 7.82321 14.0527 7.94358L15.3652 10.6584L17.63 12.9572L17.1954 13.3928L14.5459 11.2202L13.251 8.95718L12.1113 13.1065Z" fill="black"/>
</svg>
