<svg width="24" height="24" viewBox="0 0 24 24" fill="none" xmlns="http://www.w3.org/2000/svg">
<path d="M14.983 6.14199C15.4375 6.14201 15.8817 6.00726 16.2596 5.75478C16.6375 5.5023 16.932 5.14344 17.106 4.72356C17.2799 4.30369 17.3254 3.84167 17.2368 3.39593C17.1481 2.95019 16.9292 2.54076 16.6079 2.2194C16.2865 1.89804 15.8771 1.67919 15.4314 1.59053C14.9856 1.50188 14.5236 1.54739 14.1037 1.72132C13.6839 1.89524 13.325 2.18977 13.0725 2.56766C12.82 2.94555 12.6853 3.38982 12.6853 3.84429C12.6853 4.45367 12.9274 5.03808 13.3583 5.46898C13.7892 5.89987 14.3736 6.14196 14.983 6.14199ZM14.983 2.04649C15.3386 2.04647 15.6862 2.15189 15.9818 2.34942C16.2775 2.54696 16.5079 2.82773 16.644 3.15623C16.7801 3.48473 16.8157 3.84621 16.7464 4.19496C16.677 4.54371 16.5058 4.86405 16.2544 5.11549C16.003 5.36693 15.6826 5.53816 15.3339 5.60754C14.9851 5.67691 14.6236 5.64132 14.2951 5.50525C13.9666 5.36918 13.6858 5.13875 13.4883 4.8431C13.2907 4.54745 13.1853 4.19986 13.1853 3.84429C13.1859 3.36768 13.3755 2.91075 13.7125 2.57373C14.0495 2.23671 14.5064 2.0471 14.983 2.04649ZM7.5048 11.2165C7.51982 10.5032 7.75545 9.81209 8.17928 9.23818C8.60311 8.66428 9.19432 8.23577 9.87162 8.01157C10.5489 7.78738 11.279 7.77852 11.9616 7.98621C12.6441 8.1939 13.2456 8.60794 13.6832 9.17139L13.9967 9.56869L14.39 9.25019C14.8514 8.8687 15.4307 8.65902 16.0294 8.65689C16.7249 8.65763 17.3918 8.93425 17.8836 9.42605C18.3754 9.91785 18.652 10.5847 18.6528 11.2802C18.6511 11.6011 18.5895 11.9188 18.4714 12.2172L19.0094 12.1457C19.1001 11.866 19.1485 11.5742 19.1528 11.2802C19.1559 10.6904 18.991 10.1118 18.6775 9.61225C18.3639 9.11266 17.9146 8.71265 17.3821 8.45897C16.8496 8.2053 16.2559 8.10846 15.6704 8.17975C15.0849 8.25105 14.5318 8.48754 14.0757 8.86159C13.568 8.21042 12.8695 7.7343 12.0778 7.49989C11.2861 7.26547 10.4409 7.28449 9.66058 7.55428C8.88023 7.82407 8.20379 8.33113 7.72594 9.00447C7.24809 9.67781 6.99276 10.4837 6.9957 11.3094C6.9957 11.3322 7.0015 11.3534 7.0024 11.3761L7.5048 11.2165ZM22.5785 15.1259L22.4109 14.5287C22.274 14.0399 21.9653 13.617 21.5414 13.3377C21.1176 13.0584 20.6071 12.9416 20.104 13.0087L15.6721 13.5977C15.6757 13.6489 15.6875 13.6977 15.6875 13.7496C15.6868 14.3461 15.4495 14.918 15.0277 15.3398C14.6059 15.7616 14.034 15.9989 13.4375 15.9996H8.3412V15.4996H13.4375C13.9016 15.4996 14.3468 15.3152 14.6749 14.987C15.0031 14.6588 15.1875 14.2137 15.1875 13.7496C15.1875 13.2855 15.0031 12.8403 14.6749 12.5122C14.3468 12.184 13.9016 11.9996 13.4375 11.9996H8.3412L8.0912 12.0791L2.0455 14.0002V21.0002L8.0455 19.0002H13.0455L22.1486 15.9392C22.3108 15.8846 22.4459 15.7698 22.5259 15.6185C22.606 15.4672 22.6248 15.2909 22.5785 15.1261V15.1259Z" fill="black"/>
</svg>
