<svg width="24" height="24" viewBox="0 0 24 24" fill="none" xmlns="http://www.w3.org/2000/svg">
<path d="M18 9.9767V10.5015C20.7162 11.5654 22.5 13.327 22.5 15.32C22.5 18.5623 17.79 21.2 12 21.2C6.21 21.2 1.5 18.5623 1.5 15.32C1.5 13.327 3.2838 11.5654 6 10.5015V9.9767C2.9919 11.1153 1 13.0813 1 15.32C1 18.8436 5.9249 21.7 12 21.7C18.0751 21.7 23 18.8436 23 15.32C23 13.0813 21.0081 11.1153 18 9.9767ZM12 4.5C12.3461 4.5 12.6845 4.39737 12.9722 4.20507C13.26 4.01278 13.4843 3.73947 13.6168 3.4197C13.7492 3.09993 13.7839 2.74806 13.7164 2.40859C13.6489 2.06913 13.4822 1.75731 13.2374 1.51256C12.9927 1.26782 12.6809 1.10115 12.3414 1.03363C12.0019 0.966102 11.6501 1.00076 11.3303 1.13321C11.0105 1.26566 10.7372 1.48997 10.5449 1.77775C10.3526 2.06554 10.25 2.40388 10.25 2.75C10.25 3.21413 10.4344 3.65925 10.7626 3.98744C11.0908 4.31563 11.5359 4.5 12 4.5ZM12 1.5C12.2472 1.5 12.4889 1.57331 12.6945 1.71066C12.9 1.84802 13.0602 2.04324 13.1548 2.27165C13.2495 2.50005 13.2742 2.75139 13.226 2.99386C13.1778 3.23634 13.0587 3.45907 12.8839 3.63388C12.7091 3.8087 12.4863 3.92775 12.2439 3.97598C12.0014 4.02421 11.7501 3.99946 11.5216 3.90485C11.2932 3.81024 11.098 3.65002 10.9607 3.44446C10.8233 3.2389 10.75 2.99723 10.75 2.75C10.7504 2.41859 10.8822 2.10087 11.1165 1.86653C11.3509 1.63219 11.6686 1.50037 12 1.5ZM9.65 18H14.35V13H15.99V7.8247L15.6971 7.5317C15.2116 7.0461 14.6352 6.66089 14.0008 6.39807C13.3664 6.13526 12.6865 5.99999 11.9998 5.99999C11.3131 5.99999 10.6332 6.13526 9.99879 6.39807C9.3644 6.66089 8.788 7.0461 8.3025 7.5317L8.0096 7.8247V13H9.65V18ZM8.51 12.5V8.0318L8.6566 7.8852C9.09566 7.44603 9.61694 7.09765 10.1907 6.85997C10.7644 6.62228 11.3793 6.49994 12.0003 6.49994C12.6213 6.49994 13.2362 6.62228 13.8099 6.85997C14.3837 7.09765 14.9049 7.44603 15.344 7.8852L15.4904 8.0317V12.5H13.85V17.5H10.15V12.5H8.51Z" fill="black"/>
</svg>
