<svg width="24" height="24" viewBox="0 0 24 24" fill="none" xmlns="http://www.w3.org/2000/svg">
<path d="M17.9443 9.91366L14.1553 6.70366C13.6132 6.24443 12.9258 5.99247 12.2153 5.99266H8.7822C8.42964 5.9926 8.08387 6.08961 7.7828 6.27306C7.48173 6.45651 7.23699 6.71932 7.0754 7.03266L5.4927 10.1021L6.8706 10.9649L8.6587 7.99236H11.2117L6.5752 16.0002L1.6514 16.3802V18.0002H6.6506C6.98315 18.0002 7.31065 17.9189 7.60457 17.7633C7.89849 17.6077 8.1499 17.3827 8.3369 17.1077L10.2759 14.2577L13.6279 17.0201L14.0312 21.9713H15.6279V16.9484C15.6279 16.6727 15.572 16.3998 15.4635 16.1464C15.3551 15.8929 15.1964 15.664 14.9971 15.4736L12.5713 13.1568L14.5854 9.68906L16.5938 11.3908C16.7894 11.5566 17.0158 11.6821 17.2601 11.7602C17.5043 11.8383 17.7616 11.8674 18.0171 11.8459L21.8018 11.527V9.91366H17.9443ZM15.8455 5.80156C16.1619 5.80156 16.4713 5.70772 16.7344 5.53191C16.9975 5.3561 17.2026 5.10622 17.3237 4.81386C17.4448 4.5215 17.4765 4.19979 17.4148 3.88942C17.353 3.57905 17.2006 3.29396 16.9769 3.07019C16.7531 2.84643 16.468 2.69404 16.1576 2.63231C15.8473 2.57057 15.5256 2.60226 15.2332 2.72336C14.9408 2.84446 14.691 3.04953 14.5151 3.31265C14.3393 3.57577 14.2455 3.88511 14.2455 4.20156C14.2455 4.62591 14.4141 5.03288 14.7141 5.33293C15.0142 5.63299 15.4212 5.80156 15.8455 5.80156Z" fill="black"/>
</svg>
