<svg width="24" height="24" viewBox="0 0 24 24" fill="none" xmlns="http://www.w3.org/2000/svg">
<path d="M18.5 12.5C17.61 12.5 16.74 12.764 15.9999 13.2584C15.2599 13.7529 14.6831 14.4557 14.3425 15.278C14.0019 16.1002 13.9128 17.005 14.0865 17.878C14.2601 18.7509 14.6887 19.5527 15.318 20.182C15.9474 20.8114 16.7492 21.2399 17.6221 21.4136C18.495 21.5872 19.3998 21.4981 20.2221 21.1575C21.0443 20.8169 21.7471 20.2401 22.2416 19.5001C22.7361 18.7601 23 17.8901 23 17C23 15.8066 22.5259 14.662 21.682 13.8181C20.8381 12.9742 19.6935 12.5 18.5 12.5ZM18.5 20.0667C17.8935 20.0667 17.3005 19.8869 16.7962 19.5499C16.2919 19.2129 15.8988 18.734 15.6667 18.1736C15.4346 17.6133 15.3739 16.9966 15.4922 16.4018C15.6106 15.8069 15.9026 15.2604 16.3315 14.8316C16.7604 14.4027 17.3068 14.1106 17.9017 13.9923C18.4966 13.8739 19.1132 13.9347 19.6736 14.1668C20.2339 14.3989 20.7129 14.792 21.0499 15.2963C21.3868 15.8006 21.5667 16.3935 21.5667 17C21.5658 17.8131 21.2424 18.5926 20.6675 19.1676C20.0926 19.7425 19.3131 20.0659 18.5 20.0667ZM5.5 12.5C4.60998 12.5 3.73995 12.764 2.99993 13.2584C2.25991 13.7529 1.68313 14.4557 1.34254 15.278C1.00195 16.1002 0.912831 17.005 1.08646 17.878C1.2601 18.7509 1.68868 19.5527 2.31802 20.182C2.94735 20.8114 3.74918 21.2399 4.62209 21.4136C5.49501 21.5872 6.39981 21.4981 7.22207 21.1575C8.04434 20.8169 8.74715 20.2401 9.24161 19.5001C9.73608 18.7601 10 17.8901 10 17C10 16.4091 9.8836 15.8239 9.65746 15.278C9.43131 14.732 9.09984 14.2359 8.68198 13.8181C8.26411 13.4002 7.76804 13.0687 7.22207 12.8426C6.67611 12.6164 6.09095 12.5 5.5 12.5ZM5.5 20.0667C4.89346 20.0667 4.30055 19.8869 3.79623 19.5499C3.29191 19.2129 2.89885 18.734 2.66674 18.1736C2.43463 17.6133 2.37389 16.9966 2.49222 16.4018C2.61055 15.8069 2.90263 15.2604 3.33151 14.8316C3.7604 14.4027 4.30683 14.1106 4.90172 13.9923C5.4966 13.8739 6.11321 13.9347 6.67357 14.1668C7.23394 14.3989 7.71289 14.792 8.04987 15.2963C8.38684 15.8006 8.5667 16.3935 8.5667 17C8.56582 17.8131 8.24245 18.5926 7.66752 19.1676C7.09259 19.7425 6.31307 20.0659 5.5 20.0667ZM10.4062 10.9922L14.1362 7.26285L18.5062 11.1515L19.5362 10.1215L14.9092 5.49515C14.4024 4.98955 13.7158 4.7056 13 4.7056C12.2842 4.7056 11.5975 4.98955 11.0908 5.49515L8 8.58595C7.62526 8.96115 7.41478 9.46976 7.41478 10C7.41478 10.5303 7.62526 11.0389 8 11.4141L11 14.4141L11.3906 20H13V14.4141C12.9983 13.8841 12.7878 13.376 12.4141 13L10.4062 10.9922ZM16.1406 4.29395C16.4373 4.29395 16.7273 4.20597 16.974 4.04115C17.2206 3.87633 17.4129 3.64206 17.5264 3.36797C17.6399 3.09388 17.6697 2.79228 17.6118 2.50131C17.5539 2.21034 17.411 1.94306 17.2013 1.73329C16.9915 1.52351 16.7242 1.38065 16.4332 1.32277C16.1423 1.26489 15.8407 1.2946 15.5666 1.40813C15.2925 1.52166 15.0582 1.71392 14.8934 1.96059C14.7286 2.20726 14.6406 2.49727 14.6406 2.79395C14.6406 3.19177 14.7986 3.5733 15.0799 3.85461C15.3612 4.13591 15.7428 4.29395 16.1406 4.29395Z" fill="black"/>
</svg>
