<svg width="24" height="24" viewBox="0 0 24 24" fill="none" xmlns="http://www.w3.org/2000/svg">
<path d="M18 9.9768V11.0153C20.4534 12.0253 22.0333 13.6137 22.0333 15.3201C22.0333 18.1865 17.5959 20.7334 12 20.7334C6.4041 20.7334 1.9667 18.1865 1.9667 15.3201C1.9667 13.6137 3.5467 12.0253 6 11.0153V9.9768C2.9919 11.1154 1 13.0814 1 15.3201C1 18.8437 5.9249 21.7001 12 21.7001C18.0751 21.7001 23 18.8437 23 15.3201C23 13.0814 21.0081 11.1154 18 9.9768ZM12 4.6501C12.3758 4.6501 12.7431 4.53867 13.0556 4.32989C13.368 4.12112 13.6116 3.82438 13.7554 3.4772C13.8992 3.13002 13.9368 2.74799 13.8635 2.37943C13.7902 2.01086 13.6092 1.67232 13.3435 1.4066C13.0778 1.14088 12.7392 0.959918 12.3707 0.886606C12.0021 0.813295 11.6201 0.850921 11.2729 0.994727C10.9257 1.13853 10.629 1.38206 10.4202 1.69451C10.2114 2.00697 10.1 2.37431 10.1 2.7501C10.1 3.25401 10.3002 3.73728 10.6565 4.0936C11.0128 4.44992 11.4961 4.6501 12 4.6501ZM12 1.7501C12.1978 1.7501 12.3911 1.80875 12.5556 1.91863C12.72 2.02851 12.8482 2.18469 12.9239 2.36741C12.9996 2.55014 13.0194 2.75121 12.9808 2.94519C12.9422 3.13917 12.847 3.31735 12.7071 3.45721C12.5673 3.59706 12.3891 3.6923 12.1951 3.73088C12.0011 3.76947 11.8 3.74967 11.6173 3.67398C11.4346 3.59829 11.2784 3.47012 11.1685 3.30567C11.0586 3.14122 11 2.94788 11 2.7501C11.0003 2.48497 11.1057 2.23079 11.2932 2.04331C11.4807 1.85584 11.7349 1.75039 12 1.7501ZM9.65 18.0001H14.35V13.0001H15.99V7.8248L15.6971 7.5318C15.2116 7.04619 14.6352 6.66099 14.0008 6.39817C13.3664 6.13536 12.6865 6.00009 11.9998 6.00009C11.3131 6.00009 10.6332 6.13536 9.99879 6.39817C9.3644 6.66099 8.788 7.04619 8.3025 7.5318L8.0096 7.8248V13.0001H9.65V18.0001ZM9.01 12.0001V8.239C9.40263 7.8463 9.86876 7.53479 10.3818 7.32226C10.8948 7.10972 11.4447 7.00034 12 7.00034C12.5553 7.00034 13.1052 7.10972 13.6182 7.32226C14.1312 7.53479 14.5974 7.8463 14.99 8.239V12.0001H13.35V17.0001H10.65V12.0001H9.01Z" fill="black"/>
</svg>
