<svg width="24" height="24" viewBox="0 0 24 24" fill="none" xmlns="http://www.w3.org/2000/svg">
<path d="M21 3H15H5.68358C5.68358 3 2.90918 5.5833 2.90918 11.8958V13C2.90918 13.5304 3.11989 14.0391 3.49497 14.4142C3.87004 14.7893 4.37875 15 4.90918 15H9.67478L8.56398 18.8832C8.35125 19.6267 8.43387 20.4237 8.7946 21.1077C9.15532 21.7918 9.76628 22.3102 10.5 22.5546L12.4805 23.2146L16.917 15H21V3ZM11.5192 20.7859L11.1323 20.657C10.8874 20.576 10.6834 20.4033 10.563 20.1752C10.4427 19.947 10.4154 19.6812 10.4868 19.4333L11.5977 15.55L12.3271 13H4.90918V11.8958C4.78613 9.47713 5.38591 7.07658 6.63208 5H15V14.3407L11.5192 20.7859ZM19 13H17V5H19V13Z" fill="black"/>
</svg>
