<svg width="24" height="24" viewBox="0 0 24 24" fill="none" xmlns="http://www.w3.org/2000/svg">
<path d="M18.8613 5.23434C18.4831 5.23385 18.1121 5.33766 17.7891 5.53434V4.40224C17.7891 4.0305 17.6891 3.66561 17.4994 3.34587C17.3098 3.02613 17.0376 2.76332 16.7114 2.58503C16.3852 2.40674 16.0171 2.31954 15.6456 2.33258C15.2741 2.34562 14.9129 2.45842 14.6 2.65914C14.5009 2.19539 14.2457 1.77968 13.877 1.48145C13.5083 1.18321 13.0484 1.02051 12.5742 1.02051C12.0999 1.02051 11.6401 1.18321 11.2714 1.48145C10.9026 1.77968 10.6474 2.19539 10.5483 2.65914C10.2354 2.45818 9.87416 2.34519 9.50251 2.33202C9.13087 2.31886 8.76253 2.40601 8.43619 2.58433C8.10986 2.76265 7.83756 3.02556 7.64789 3.34544C7.45823 3.66531 7.3582 4.03036 7.35831 4.40224L7.42741 14.0666L5.97661 11.6181C5.63875 11.0848 5.1047 10.7058 4.48977 10.5629C3.87485 10.4201 3.2284 10.5248 2.69001 10.8544L1.94291 11.3026C1.79333 11.3939 1.68355 11.538 1.63538 11.7065C1.58721 11.8749 1.60418 12.0553 1.68291 12.2118L4.42711 17.7128C5.24874 19.3028 6.49267 20.6356 8.02228 21.5648C9.55189 22.494 11.308 22.9836 13.0977 22.9799C15.1752 22.9775 17.1668 22.1511 18.6358 20.6821C20.1048 19.2131 20.9311 17.2215 20.9336 15.144V7.30654C20.9329 6.75715 20.7144 6.23044 20.3259 5.84197C19.9374 5.4535 19.4107 5.23498 18.8613 5.23434ZM19.9336 15.1435C19.9318 16.956 19.211 18.6937 17.9294 19.9754C16.6478 21.257 14.9102 21.978 13.0977 21.9799C11.4924 21.9834 9.91723 21.5448 8.54485 20.712C7.17246 19.8793 6.05593 18.6847 5.31771 17.2592L2.70121 12.0136L3.21001 11.7079C3.52404 11.5139 3.90195 11.4516 4.26164 11.5347C4.62132 11.6177 4.9337 11.8393 5.13091 12.1513L7.12401 15.3056C7.19817 15.3983 7.29513 15.47 7.40539 15.5138C7.51565 15.5577 7.6354 15.5721 7.75291 15.5556L7.75571 15.5713C8.72642 15.3541 9.74039 15.4394 10.6611 15.8159C11.5819 16.1923 12.3652 16.8418 12.9057 17.6768L13.7739 17.1797C13.1944 16.2868 12.3856 15.566 11.4321 15.0928C10.4786 14.6196 9.41549 14.4113 8.35391 14.4897L8.35841 4.40224C8.35841 4.11798 8.47133 3.84537 8.67233 3.64437C8.87333 3.44336 9.14595 3.33044 9.43021 3.33044C9.71447 3.33044 9.98709 3.44336 10.1881 3.64437C10.3891 3.84537 10.502 4.11798 10.502 4.40224V10.9687H11.502V3.09274C11.5006 2.95113 11.5274 2.81065 11.5806 2.67941C11.6338 2.54818 11.7126 2.42881 11.8122 2.32818C11.9119 2.22756 12.0305 2.14768 12.1612 2.09317C12.2919 2.03866 12.4321 2.01059 12.5738 2.01059C12.7154 2.01059 12.8556 2.03866 12.9863 2.09317C13.117 2.14768 13.2356 2.22756 13.3353 2.32818C13.4349 2.42881 13.5137 2.54818 13.5669 2.67941C13.6202 2.81065 13.6469 2.95113 13.6455 3.09274V10.9687H14.6455V4.40224C14.6455 4.11798 14.7584 3.84537 14.9594 3.64437C15.1604 3.44336 15.4331 3.33044 15.7173 3.33044C16.0016 3.33044 16.2742 3.44336 16.4752 3.64437C16.6762 3.84537 16.7891 4.11798 16.7891 4.40224V11.9999H17.7891V7.30654C17.7918 7.02396 17.906 6.75388 18.1068 6.55502C18.3076 6.35616 18.5788 6.2446 18.8614 6.2446C19.144 6.2446 19.4151 6.35616 19.6159 6.55502C19.8167 6.75388 19.9309 7.02396 19.9336 7.30654V15.1435Z" fill="black"/>
</svg>
