<svg width="24" height="24" viewBox="0 0 24 24" fill="none" xmlns="http://www.w3.org/2000/svg">
<path d="M21.6143 16.7394L21.2607 16.3858L19 18.6466L16.7393 16.3858L16.3857 16.7394L18.6465 19.0001L16.3857 21.2608L16.7393 21.6144L19 19.3536L21.2607 21.6144L21.6143 21.2608L19.3535 19.0001L21.6143 16.7394ZM9.6162 1.00006C7.63239 0.967631 5.71665 1.72312 4.28897 3.1009C2.86128 4.47869 2.03815 6.36634 2 8.35006H2.5C2.53794 6.49889 3.30833 4.73829 4.64229 3.45423C5.97625 2.17017 7.76493 1.46742 9.6162 1.50006C11.3987 1.46063 13.1242 2.12943 14.4145 3.3599C15.7049 4.59037 16.4548 6.28216 16.5 8.06456C16.4992 9.63154 16.1796 11.182 15.5607 12.6216C14.9418 14.0612 14.0366 15.3598 12.9 16.4386L7.4619 21.6801C6.90681 22.2069 6.1706 22.5004 5.4053 22.5001C4.65027 22.514 3.92051 22.2281 3.37592 21.7049C2.83134 21.1817 2.51636 20.464 2.5 19.7091V17.3751H2V19.7091C2.01641 20.5966 2.38409 21.4415 3.02243 22.0584C3.66077 22.6753 4.51768 23.0139 5.4053 23.0001C6.30136 23.0048 7.16399 22.6601 7.81 22.0392L13.2484 16.798C14.4331 15.6726 15.3767 14.3181 16.0216 12.8168C16.6665 11.3154 16.9994 9.69857 17 8.06456C16.9546 6.14961 16.1519 4.33075 14.7679 3.00656C13.3838 1.68236 11.5313 0.960824 9.6162 1.00006ZM5.6279 16.1876H5.042V16.6876H5.6279C5.95016 16.6874 6.26514 16.5917 6.53304 16.4126C6.80094 16.2334 7.00972 15.9789 7.13302 15.6812C7.25631 15.3834 7.28858 15.0558 7.22575 14.7397C7.16292 14.4237 7.0078 14.1333 6.78 13.9054L5.611 12.7364L5.6149 8.84866C5.61926 7.778 6.04712 6.75257 6.80504 5.99634C7.56296 5.24011 8.58934 4.81453 9.66 4.81256C10.0604 4.81249 10.4568 4.89131 10.8267 5.04451C11.1966 5.19772 11.5326 5.4223 11.8157 5.70543C12.0987 5.98856 12.3232 6.32469 12.4763 6.69461C12.6295 7.06454 12.7082 7.461 12.708 7.86136C12.7078 8.58351 12.6066 9.30208 12.4072 9.99616L12.8877 10.1349C13.1003 9.39575 13.208 8.63043 13.2077 7.86136C13.2078 7.39537 13.1162 6.93393 12.938 6.50337C12.7597 6.07282 12.4984 5.68159 12.169 5.35204C11.8395 5.02249 11.4484 4.76107 11.0179 4.58271C10.5874 4.40436 10.126 4.31256 9.66 4.31256C8.45692 4.31461 7.30355 4.79277 6.45193 5.64256C5.6003 6.49235 5.11965 7.64468 5.115 8.84776L5.1111 12.9435L6.4266 14.2589C6.58451 14.4169 6.69203 14.6182 6.73557 14.8373C6.77911 15.0565 6.75672 15.2836 6.67122 15.49C6.58572 15.6964 6.44096 15.8728 6.25522 15.997C6.06949 16.1211 5.85111 16.1875 5.6277 16.1876H5.6279Z" fill="black"/>
</svg>
