<svg width="24" height="24" viewBox="0 0 24 24" fill="none" xmlns="http://www.w3.org/2000/svg">
<path d="M20.8284 12L22 10.8284C22.3724 10.4528 22.5808 9.94494 22.5796 9.41603C22.5785 8.88712 22.3678 8.3802 21.9938 8.0062C21.6198 7.6322 21.1129 7.42157 20.584 7.42041C20.0551 7.41926 19.5473 7.62766 19.1716 8.00002L17.1716 10H6.82842L4.82842 8.00002C4.45278 7.62766 3.94494 7.41926 3.41603 7.42041C2.88712 7.42157 2.3802 7.6322 2.0062 8.0062C1.6322 8.3802 1.42157 8.88712 1.42041 9.41603C1.41926 9.94494 1.62766 10.4528 2.00002 10.8284L3.17162 12L2.00002 13.1716C1.62766 13.5473 1.41926 14.0551 1.42041 14.584C1.42157 15.1129 1.6322 15.6198 2.0062 15.9938C2.3802 16.3678 2.88712 16.5785 3.41603 16.5796C3.94494 16.5808 4.45278 16.3724 4.82842 16L6.82842 14H17.1716L19.1716 16C19.5473 16.3724 20.0551 16.5808 20.584 16.5796C21.1129 16.5785 21.6198 16.3678 21.9938 15.9938C22.3678 15.6198 22.5785 15.1129 22.5796 14.584C22.5808 14.0551 22.3724 13.5473 22 13.1716L20.8284 12Z" fill="black"/>
</svg>
