<svg width="24" height="24" viewBox="0 0 24 24" fill="none" xmlns="http://www.w3.org/2000/svg">
<path d="M15.3472 4.12505C15.9387 5.15151 16.25 6.31538 16.25 7.50005C16.25 8.68472 15.9387 9.84859 15.3472 10.875L16.645 11.627C17.3689 10.3721 17.75 8.94882 17.75 7.50005C17.75 6.05127 17.3689 4.62799 16.645 3.37305L15.3472 4.12505ZM20.11 1.37305L18.8121 2.12505C19.7542 3.75973 20.2501 5.61332 20.2501 7.50005C20.2501 9.38678 19.7542 11.2404 18.8121 12.875L20.11 13.627C21.1845 11.7639 21.7501 9.65086 21.7501 7.50005C21.7501 5.34923 21.1845 3.23624 20.11 1.37305ZM9.50999 10.8958C10.1817 10.8959 10.8383 10.6969 11.3968 10.3238C11.9553 9.95068 12.3907 9.42034 12.6478 8.79982C12.9049 8.17931 12.9722 7.49649 12.8412 6.83771C12.7102 6.17893 12.3868 5.5738 11.9119 5.09882C11.437 4.62385 10.8319 4.30038 10.1731 4.16932C9.51436 4.03826 8.83153 4.1055 8.21098 4.36252C7.59044 4.61955 7.06005 5.05483 6.68689 5.61331C6.31373 6.17178 6.11457 6.82838 6.11459 7.50005C6.1157 8.40026 6.47378 9.26329 7.11028 9.89987C7.74679 10.5365 8.60978 10.8946 9.50999 10.8958ZM9.50999 5.60415C9.88499 5.60405 10.2516 5.71516 10.5634 5.92342C10.8753 6.13168 11.1184 6.42775 11.2619 6.77417C11.4055 7.12059 11.4431 7.50181 11.37 7.86961C11.2969 8.23741 11.1164 8.57528 10.8513 8.84047C10.5861 9.10567 10.2483 9.28629 9.88055 9.35948C9.51277 9.43268 9.13154 9.39516 8.78508 9.25168C8.43862 9.1082 8.14249 8.86519 7.93414 8.5534C7.7258 8.24161 7.61459 7.87504 7.61459 7.50005C7.61515 6.99748 7.815 6.51565 8.17033 6.16023C8.52565 5.80482 9.00743 5.60484 9.50999 5.60415ZM9.53079 12.8059C8.36789 12.8039 7.21605 13.0317 6.14143 13.4762C5.06682 13.9207 4.09061 14.5731 3.26889 15.3959L3.03079 15.6339V21H16.0308V15.6338L15.7928 15.3958C14.9711 14.573 13.9949 13.9207 12.9204 13.4762C11.8458 13.0317 10.694 12.804 9.53119 12.8059H9.53079ZM14.5308 19.5H4.53079V16.27C4.54699 16.256 4.59369 16.2116 4.60989 16.1978C5.9595 14.9798 7.7129 14.3056 9.53089 14.3056C11.3489 14.3056 13.1023 14.9798 14.4519 16.1978C14.4681 16.2116 14.5148 16.256 14.5308 16.27V19.5Z" fill="black"/>
</svg>
