<svg width="24" height="24" viewBox="0 0 24 24" fill="none" xmlns="http://www.w3.org/2000/svg">
<path d="M12 6.7291C11.4067 6.7291 10.8266 6.90505 10.3333 7.23469C9.83995 7.56434 9.45543 8.03287 9.22837 8.58105C9.0013 9.12923 8.94189 9.73243 9.05765 10.3144C9.1734 10.8963 9.45913 11.4309 9.87868 11.8504C10.2982 12.27 10.8328 12.5557 11.4147 12.6715C11.9967 12.7872 12.5999 12.7278 13.1481 12.5007C13.6962 12.2737 14.1648 11.8892 14.4944 11.3958C14.8241 10.9025 15 10.3224 15 9.7291C15 8.93345 14.6839 8.17039 14.1213 7.60778C13.5587 7.04517 12.7957 6.7291 12 6.7291ZM12 12.2291C11.5056 12.2291 11.0222 12.0825 10.6111 11.8078C10.2 11.5331 9.87952 11.1426 9.69031 10.6858C9.50109 10.229 9.45158 9.72633 9.54804 9.24137C9.6445 8.75642 9.88261 8.31096 10.2322 7.96133C10.5819 7.6117 11.0273 7.3736 11.5123 7.27714C11.9972 7.18067 12.4999 7.23018 12.9567 7.4194C13.4135 7.60862 13.804 7.92905 14.0787 8.34017C14.3534 8.7513 14.5 9.23465 14.5 9.7291C14.4993 10.3919 14.2356 11.0274 13.767 11.496C13.2983 11.9647 12.6628 12.2284 12 12.2291ZM12 2C10.0222 2 8.08879 2.58649 6.4443 3.6853C4.79981 4.78412 3.51809 6.3459 2.76121 8.17317C2.00433 10.0004 1.8063 12.0111 2.19215 13.9509C2.578 15.8907 3.53041 17.6725 4.92894 19.0711C6.32746 20.4696 8.10929 21.422 10.0491 21.8079C11.9889 22.1937 13.9996 21.9957 15.8268 21.2388C17.6541 20.4819 19.2159 19.2002 20.3147 17.5557C21.4135 15.9112 22 13.9778 22 12C22 10.6868 21.7413 9.38642 21.2388 8.17317C20.7363 6.95991 19.9997 5.85752 19.0711 4.92893C18.1425 4.00035 17.0401 3.26375 15.8268 2.7612C14.6136 2.25866 13.3132 2 12 2ZM16.5029 20.3622C15.1195 21.109 13.5721 21.5 12 21.5C10.4279 21.5 8.8805 21.109 7.4971 20.3622V16.86C8.70558 15.6929 10.32 15.0406 12 15.0406C13.68 15.0406 15.2944 15.6929 16.5029 16.86V20.3622ZM17.0029 20.0608V16.6523L16.9297 16.5791C15.6214 15.2734 13.8484 14.5401 12 14.5401C10.1516 14.5401 8.37866 15.2734 7.0703 16.5791L6.9971 16.6523V20.0608C5.24075 18.9728 3.88697 17.3418 3.14095 15.4152C2.39492 13.4885 2.29733 11.3712 2.86295 9.38404C3.42857 7.39691 4.62658 5.64835 6.2754 4.40337C7.92421 3.15838 9.93395 2.48485 12 2.48485C14.0661 2.48485 16.0758 3.15838 17.7246 4.40337C19.3734 5.64835 20.5714 7.39691 21.1371 9.38404C21.7027 11.3712 21.6051 13.4885 20.8591 15.4152C20.113 17.3418 18.7593 18.9728 17.0029 20.0608Z" fill="black"/>
</svg>
