<svg width="24" height="24" viewBox="0 0 24 24" fill="none" xmlns="http://www.w3.org/2000/svg">
<path d="M12 4.5C12.2967 4.5 12.5867 4.41203 12.8333 4.24721C13.08 4.08238 13.2723 3.84811 13.3858 3.57403C13.4993 3.29994 13.529 2.99834 13.4712 2.70737C13.4133 2.41639 13.2704 2.14912 13.0607 1.93934C12.8509 1.72956 12.5836 1.5867 12.2926 1.52882C12.0017 1.47094 11.7001 1.50065 11.426 1.61418C11.1519 1.72771 10.9176 1.91997 10.7528 2.16665C10.588 2.41332 10.5 2.70333 10.5 3C10.5 3.39783 10.658 3.77936 10.9393 4.06066C11.2206 4.34197 11.6022 4.5 12 4.5ZM14.7969 7.2412L14.6055 7.05C14.2635 6.70759 13.8573 6.43595 13.4102 6.25061C12.9632 6.06528 12.484 5.96988 12 5.96988C11.516 5.96988 11.0368 6.06528 10.5897 6.25061C10.1427 6.43595 9.73651 6.70759 9.39449 7.05L9.20309 7.2409L6.37109 18H9.50849V24H11.0085V18H12.9915V24H14.4915V18H17.6289L14.7969 7.2412ZM8.31699 16.5L10.425 8.4916L10.4705 8.4091C10.544 8.3354 10.733 7.8691 10.822 7.8207C11.1708 7.59271 11.5783 7.47095 11.9951 7.4702C12.4118 7.46945 12.8198 7.58976 13.1694 7.8165C13.2618 7.8655 13.4573 8.3465 13.5333 8.4227L13.5746 8.4906L15.683 16.5H8.31699Z" fill="black"/>
</svg>
