<svg width="24" height="24" viewBox="0 0 24 24" fill="none" xmlns="http://www.w3.org/2000/svg">
<path d="M20 17.7656C20.3049 17.7656 20.603 17.6752 20.8566 17.5058C21.1101 17.3364 21.3077 17.0956 21.4244 16.8139C21.5411 16.5322 21.5717 16.2222 21.5122 15.9232C21.4527 15.6241 21.3059 15.3494 21.0902 15.1338C20.8746 14.9181 20.5999 14.7713 20.3008 14.7118C20.0018 14.6523 19.6918 14.6829 19.4101 14.7996C19.1284 14.9163 18.8876 15.1139 18.7182 15.3674C18.5488 15.621 18.4584 15.9191 18.4584 16.224C18.4584 16.6329 18.6208 17.025 18.9099 17.3141C19.199 17.6032 19.5911 17.7656 20 17.7656ZM22.8242 20.1056C22.0746 19.3576 21.059 18.9375 20 18.9375C18.941 18.9375 17.9254 19.3576 17.1758 20.1056L17 20.2812V22H23V20.2812L22.8242 20.1056ZM10.4584 16.224C10.4584 16.5289 10.5489 16.8269 10.7183 17.0804C10.8877 17.3339 11.1284 17.5315 11.4101 17.6482C11.6918 17.7648 12.0018 17.7954 12.3008 17.7359C12.5998 17.6764 12.8745 17.5295 13.0901 17.3139C13.3057 17.0983 13.4525 16.8237 13.512 16.5246C13.5715 16.2256 13.5409 15.9156 13.4242 15.6339C13.3076 15.3522 13.11 15.1115 12.8565 14.9421C12.6029 14.7727 12.3049 14.6823 12 14.6823C11.7975 14.6823 11.5971 14.7222 11.41 14.7997C11.223 14.8771 11.053 14.9907 10.9099 15.1339C10.7667 15.277 10.6532 15.447 10.5757 15.634C10.4983 15.8211 10.4584 16.0215 10.4584 16.224ZM9.1758 20.1055L9 20.2812V22H15V20.2812L14.8242 20.1055C14.0746 19.3575 13.0589 18.9374 12 18.9374C10.9411 18.9374 9.92535 19.3575 9.1758 20.1055ZM4 17.7656C4.30493 17.7656 4.60301 17.6752 4.85656 17.5058C5.11011 17.3364 5.30773 17.0956 5.42443 16.8139C5.54113 16.5322 5.57167 16.2222 5.51218 15.9232C5.4527 15.6241 5.30586 15.3494 5.09025 15.1338C4.87463 14.9181 4.59992 14.7713 4.30085 14.7118C4.00178 14.6523 3.69178 14.6829 3.41007 14.7996C3.12836 14.9163 2.88758 15.1139 2.71818 15.3674C2.54879 15.621 2.45838 15.9191 2.4584 16.224C2.4584 16.6329 2.62082 17.025 2.90992 17.3141C3.19903 17.6032 3.59114 17.7656 4 17.7656ZM1.1758 20.1056L1 20.2812V22H7V20.2812L6.8242 20.1055C6.07465 19.3575 5.05895 18.9374 4 18.9374C2.94105 18.9374 1.92535 19.3575 1.1758 20.1055V20.1056ZM12 5.5C12.4945 5.5 12.9778 5.35338 13.3889 5.07867C13.8 4.80397 14.1205 4.41353 14.3097 3.95671C14.4989 3.49989 14.5484 2.99723 14.452 2.51228C14.3555 2.02732 14.1174 1.58187 13.7678 1.23223C13.4181 0.882603 12.9727 0.644501 12.4877 0.548038C12.0028 0.451575 11.5001 0.501083 11.0433 0.690302C10.5865 0.879521 10.196 1.19995 9.92133 1.61108C9.64662 2.0222 9.5 2.50555 9.5 3C9.50079 3.6628 9.76444 4.29822 10.2331 4.76689C10.7018 5.23556 11.3372 5.49921 12 5.5ZM17 9.4375L16.707 9.1445C15.4577 7.89786 13.7649 7.19773 12 7.19773C10.2351 7.19773 8.54229 7.89786 7.293 9.1445L7 9.4375V13H17V9.4375Z" fill="black"/>
</svg>
