<svg width="24" height="24" viewBox="0 0 24 24" fill="none" xmlns="http://www.w3.org/2000/svg">
<path d="M17.625 9.89604C18.2967 9.89606 18.9532 9.69691 19.5117 9.32377C20.0702 8.95063 20.5054 8.42027 20.7625 7.79974C21.0195 7.17922 21.0868 6.49641 20.9558 5.83766C20.8247 5.17891 20.5013 4.57381 20.0264 4.09888C19.5514 3.62395 18.9463 3.30052 18.2876 3.16949C17.6288 3.03846 16.946 3.10572 16.3255 3.36276C15.705 3.6198 15.1746 4.05507 14.8015 4.61354C14.4283 5.17201 14.2292 5.82859 14.2292 6.50024C14.2303 7.40052 14.5884 8.26361 15.225 8.90021C15.8616 9.5368 16.7247 9.89493 17.625 9.89604ZM17.625 4.60434C18 4.60432 18.3665 4.7155 18.6783 4.92381C18.9901 5.13212 19.2331 5.42821 19.3767 5.77464C19.5202 6.12107 19.5577 6.50228 19.4846 6.87005C19.4114 7.23783 19.2309 7.57565 18.9657 7.84081C18.7006 8.10597 18.3628 8.28654 17.995 8.3597C17.6272 8.43287 17.246 8.39533 16.8996 8.25183C16.5532 8.10834 16.2571 7.86534 16.0487 7.55356C15.8404 7.24178 15.7292 6.87522 15.7292 6.50024C15.7298 5.99761 15.9297 5.51574 16.2851 5.16032C16.6405 4.80489 17.1224 4.60495 17.625 4.60434ZM6.375 9.89434C7.04667 9.89436 7.70326 9.6952 8.26174 9.32204C8.82022 8.94889 9.25549 8.4185 9.51252 7.79795C9.76955 7.1774 9.83679 6.49457 9.70572 5.83581C9.57466 5.17705 9.25119 4.57195 8.77622 4.09704C8.30125 3.62212 7.69611 3.29872 7.03734 3.16774C6.37856 3.03676 5.69574 3.10407 5.07522 3.36117C4.45471 3.61827 3.92437 4.05361 3.55128 4.61213C3.17819 5.17065 2.9791 5.82727 2.9792 6.49894C2.98031 7.39922 3.33844 8.26231 3.97503 8.89891C4.61163 9.5355 5.47472 9.89363 6.375 9.89474V9.89434ZM6.375 4.60264C6.74996 4.60262 7.11651 4.71379 7.42829 4.92208C7.74008 5.13038 7.98309 5.42644 8.12662 5.77285C8.27014 6.11925 8.30772 6.50044 8.23461 6.8682C8.1615 7.23597 7.98098 7.5738 7.71588 7.83897C7.45078 8.10414 7.113 8.28475 6.74525 8.35796C6.37751 8.43116 5.99631 8.39368 5.64987 8.25025C5.30343 8.10682 5.0073 7.86388 4.79892 7.55215C4.59054 7.24042 4.47928 6.8739 4.4792 6.49894C4.47976 5.9963 4.67967 5.51441 5.03507 5.15899C5.39048 4.80356 5.87236 4.60362 6.375 4.60304V4.60264ZM23.7665 14.4187C22.4837 13.1354 20.8286 12.2896 19.0371 12.0017L17.625 14.0117L16.2129 12.0017C14.6539 12.2626 13.1966 12.9467 12 13.9794C10.8033 12.9469 9.34601 12.2629 7.7871 12.0021L6.375 14.0121L4.9629 12.0021C3.17136 12.29 1.51633 13.1358 0.2335 14.4191L0 14.6525V20.0002H24V14.6525L23.7665 14.4187ZM11.25 18.5002H1.5V15.2814C2.30214 14.5401 3.26465 13.994 4.3125 13.6857L6.375 16.6213L8.4375 13.6857C9.48535 13.994 10.4479 14.5401 11.25 15.2814V18.5002ZM22.5 18.5002H12.75V15.2814C13.5521 14.5401 14.5146 13.994 15.5625 13.6857L17.625 16.6213L19.6875 13.6857C20.7354 13.994 21.6979 14.5401 22.5 15.2814V18.5002Z" fill="black"/>
</svg>
