<svg width="24" height="24" viewBox="0 0 24 24" fill="none" xmlns="http://www.w3.org/2000/svg">
<path d="M2.86047 9.22842V14.9999H3.86047V19.9999H7.95347V14.9999H8.95347V9.22842C8.5534 8.82835 8.07845 8.511 7.55573 8.29448C7.03301 8.07796 6.47276 7.96652 5.90697 7.96652C5.34119 7.96652 4.78094 8.07796 4.25822 8.29448C3.7355 8.511 3.26055 8.82835 2.86047 9.22842ZM7.55347 13.5999H6.55347V18.5999H5.26057V13.5999H4.26057V9.87652C4.74537 9.5443 5.31932 9.36651 5.90702 9.36651C6.49473 9.36651 7.06868 9.5443 7.55347 9.87652V13.5999ZM18.0935 7.96652C17.5276 7.96581 16.9671 8.07692 16.4443 8.29348C15.9215 8.51004 15.4466 8.82777 15.047 9.22842V14.9999H16.047V19.9999H20.14V14.9999H21.14V9.22842C20.7403 8.82771 20.2653 8.50994 19.7424 8.29338C19.2195 8.07682 18.659 7.96574 18.093 7.96652H18.0935ZM19.7394 13.5999H18.7394V18.5999H17.4465V13.5999H16.4465V9.87642C16.9313 9.54424 17.5052 9.36648 18.0929 9.36648C18.6806 9.36648 19.2546 9.54424 19.7394 9.87642V13.5999ZM18.093 6.65442C18.3432 6.65442 18.5878 6.58022 18.7959 6.4412C19.0039 6.30218 19.1661 6.10458 19.2619 5.8734C19.3576 5.64221 19.3827 5.38782 19.3339 5.1424C19.285 4.89697 19.1645 4.67153 18.9876 4.49459C18.8107 4.31765 18.5852 4.19715 18.3398 4.14833C18.0944 4.09952 17.84 4.12457 17.6088 4.22033C17.3776 4.31609 17.18 4.47826 17.041 4.68632C16.902 4.89438 16.8278 5.13899 16.8278 5.38922C16.8278 5.72477 16.9611 6.04656 17.1984 6.28383C17.4356 6.52109 17.7574 6.6544 18.093 6.65442ZM5.90697 6.65442C6.15721 6.65442 6.40182 6.58022 6.60988 6.4412C6.81794 6.30218 6.98011 6.10458 7.07587 5.8734C7.17163 5.64221 7.19668 5.38782 7.14786 5.1424C7.09905 4.89697 6.97855 4.67153 6.8016 4.49459C6.62466 4.31765 6.39923 4.19715 6.1538 4.14833C5.90838 4.09952 5.65399 4.12457 5.4228 4.22033C5.19162 4.31609 4.99402 4.47826 4.855 4.68632C4.71598 4.89438 4.64177 5.13899 4.64177 5.38922C4.6418 5.72477 4.77511 6.04656 5.01237 6.28383C5.24964 6.52109 5.57143 6.6544 5.90697 6.65442Z" fill="black"/>
</svg>
