<svg width="24" height="24" viewBox="0 0 24 24" fill="none" xmlns="http://www.w3.org/2000/svg">
<path d="M14.9888 10.1855L11.9879 12.5343L8.98547 8.54426V8.53666H8.97917C8.68766 8.15019 8.31042 7.83666 7.87715 7.62077C7.44388 7.40487 6.96641 7.2925 6.48232 7.2925C5.99824 7.2925 5.52077 7.40487 5.0875 7.62077C4.65422 7.83666 4.27698 8.15019 3.98547 8.53666V21.9998H4.48547V14.9998H8.48547V21.9998H8.98547V9.39026L11.6141 12.8503C11.6836 12.9418 11.7864 13.0022 11.9001 13.0185C12.0139 13.0348 12.1295 13.0056 12.2219 12.9374L14.99 10.8915V21.9998H15.49V15.9998H19.49V21.9998H19.99V10.1873C19.2765 9.62804 18.3962 9.324 17.4897 9.32367C16.5832 9.32335 15.7027 9.62676 14.9888 10.1855ZM8.48537 14.4998H4.48537V8.71266C4.73256 8.42361 5.03954 8.19167 5.38511 8.03285C5.73069 7.87403 6.10662 7.79211 6.48694 7.79276C6.86727 7.79341 7.24292 7.8766 7.58795 8.0366C7.93298 8.19659 8.23917 8.42958 8.48537 8.71946V14.4998ZM19.4902 15.4998H15.4902V10.4383C16.0803 10.0375 16.7773 9.82345 17.4906 9.82397C18.204 9.82449 18.9006 10.0395 19.4902 10.4412V15.4998ZM17.4902 7.81766C17.8363 7.81766 18.1746 7.71502 18.4624 7.52273C18.7502 7.33044 18.9745 7.05712 19.107 6.73735C19.2394 6.41758 19.2741 6.06572 19.2065 5.72625C19.139 5.38678 18.9724 5.07496 18.7276 4.83022C18.4829 4.58548 18.171 4.41881 17.8316 4.35128C17.4921 4.28376 17.1402 4.31841 16.8205 4.45087C16.5007 4.58332 16.2274 4.80762 16.0351 5.09541C15.8428 5.3832 15.7402 5.72154 15.7402 6.06766C15.7402 6.53175 15.9245 6.97684 16.2527 7.30502C16.5808 7.63321 17.0259 7.8176 17.49 7.81766H17.4902ZM17.4902 4.81766C17.7374 4.81766 17.9791 4.89097 18.1846 5.02832C18.3902 5.16567 18.5504 5.3609 18.645 5.5893C18.7396 5.81771 18.7644 6.06904 18.7162 6.31152C18.6679 6.554 18.5489 6.77672 18.3741 6.95154C18.1992 7.12636 17.9765 7.24541 17.734 7.29364C17.4916 7.34187 17.2402 7.31712 17.0118 7.22251C16.7834 7.1279 16.5882 6.96768 16.4508 6.76212C16.3135 6.55656 16.2402 6.31488 16.2402 6.06766C16.2406 5.73629 16.3724 5.41861 16.6067 5.18428C16.8409 4.94995 17.1586 4.81811 17.49 4.81766H17.4902ZM6.48547 5.78516C6.83159 5.78516 7.16994 5.68252 7.45772 5.49023C7.74551 5.29794 7.96981 5.02462 8.10226 4.70485C8.23472 4.38508 8.26937 4.03322 8.20185 3.69375C8.13432 3.35428 7.96765 3.04246 7.72291 2.79772C7.47817 2.55298 7.16635 2.38631 6.82688 2.31878C6.48741 2.25126 6.13555 2.28591 5.81578 2.41837C5.49601 2.55082 5.22269 2.77512 5.0304 3.06291C4.83811 3.3507 4.73547 3.68904 4.73547 4.03516C4.73547 4.49929 4.91985 4.94441 5.24804 5.27259C5.57623 5.60078 6.02134 5.78516 6.48547 5.78516ZM6.48547 2.78516C6.7327 2.78516 6.97437 2.85847 7.17994 2.99582C7.3855 3.13317 7.54571 3.3284 7.64032 3.5568C7.73493 3.78521 7.75969 4.03654 7.71146 4.27902C7.66322 4.5215 7.54417 4.74422 7.36936 4.91904C7.19454 5.09386 6.97181 5.21291 6.72934 5.26114C6.48686 5.30937 6.23553 5.28462 6.00712 5.19001C5.77871 5.0954 5.58349 4.93518 5.44614 4.72962C5.30878 4.52406 5.23547 4.28238 5.23547 4.03516C5.23584 3.70375 5.36766 3.38602 5.602 3.15168C5.83634 2.91734 6.15407 2.78553 6.48547 2.78516Z" fill="black"/>
</svg>
