<svg width="24" height="24" viewBox="0 0 24 24" fill="none" xmlns="http://www.w3.org/2000/svg">
<path d="M12.2917 5.49463C12.6378 5.49463 12.9762 5.39199 13.2639 5.1997C13.5517 5.00741 13.776 4.7341 13.9085 4.41433C14.0409 4.09455 14.0756 3.74269 14.0081 3.40322C13.9405 3.06375 13.7739 2.75193 13.5291 2.50719C13.2844 2.26245 12.9726 2.09578 12.6331 2.02826C12.2936 1.96073 11.9418 1.99539 11.622 2.12784C11.3022 2.26029 11.0289 2.4846 10.8366 2.77238C10.6443 3.06017 10.5417 3.39851 10.5417 3.74463C10.5417 4.20876 10.7261 4.65388 11.0543 4.98207C11.3825 5.31026 11.8276 5.49463 12.2917 5.49463ZM13.9824 17.9988H10.9668C10.181 17.998 9.42765 17.6854 8.87201 17.1298C8.31636 16.5742 8.0038 15.8208 8.0029 15.035V7.74883C8.0029 7.54992 7.92388 7.35915 7.78323 7.2185C7.64258 7.07785 7.45181 6.99883 7.2529 6.99883C7.05399 6.99883 6.86322 7.07785 6.72257 7.2185C6.58192 7.35915 6.5029 7.54992 6.5029 7.74883V15.035C6.50454 16.2184 6.97537 17.3529 7.81216 18.1896C8.64895 19.0264 9.78341 19.4972 10.9668 19.4988H13.9824C14.1813 19.4988 14.3721 19.4198 14.5127 19.2792C14.6534 19.1385 14.7324 18.9477 14.7324 18.7488C14.7324 18.5499 14.6534 18.3592 14.5127 18.2185C14.3721 18.0778 14.1813 17.9988 13.9824 17.9988ZM18.3418 14.7137C18.1544 14.4898 17.9202 14.3098 17.6555 14.1865C17.3909 14.0631 17.1025 13.9994 16.8105 13.9998H14.832V9.41643C14.832 9.09907 14.7695 8.78482 14.648 8.49161C14.5266 8.19841 14.3486 7.932 14.1242 7.7076C13.8997 7.4832 13.6333 7.30519 13.3401 7.18375C13.0469 7.06231 12.7327 6.99982 12.4153 6.99983H11.4333C11.0532 6.99983 10.6886 7.15084 10.4198 7.41963C10.151 7.68843 10 8.053 10 8.43313V14.6664C9.99999 14.8415 10.0345 15.0149 10.1015 15.1767C10.1685 15.3385 10.2667 15.4855 10.3905 15.6093C10.5143 15.7331 10.6613 15.8313 10.823 15.8983C10.9848 15.9653 11.1582 15.9998 11.3333 15.9998H16.81L15.7613 21.9998H17.7921L18.7807 16.3445C18.8312 16.0571 18.818 15.7622 18.7422 15.4804C18.6663 15.1987 18.5297 14.937 18.3418 14.7137Z" fill="black"/>
</svg>
