<svg width="24" height="24" viewBox="0 0 24 24" fill="none" xmlns="http://www.w3.org/2000/svg">
<path d="M19.8787 6.43942C20.2863 6.43941 20.6847 6.56026 21.0236 6.78669C21.3625 7.01311 21.6266 7.33495 21.7826 7.71148C21.9386 8.08802 21.9794 8.50236 21.8999 8.9021C21.8204 9.30183 21.6241 9.66902 21.3359 9.95722L19.6465 11.6465L19.293 12.0001L19.6465 12.3537L21.3359 14.043C21.7182 14.4304 21.9318 14.9532 21.93 15.4975C21.9282 16.0417 21.7112 16.5631 21.3264 16.9479C20.9415 17.3328 20.42 17.5497 19.8758 17.5515C19.3316 17.5532 18.8087 17.3396 18.4214 16.9572L16.1108 14.6466L15.9644 14.5001H8.03563L7.88923 14.6466L5.57863 16.9572C5.19133 17.3396 4.6685 17.5532 4.12426 17.5515C3.58002 17.5497 3.05856 17.3328 2.6737 16.9479C2.28885 16.5631 2.07184 16.0417 2.07004 15.4975C2.06825 14.9532 2.28182 14.4304 2.66413 14.043L4.35353 12.3537L4.70703 12.0001L4.35353 11.6465L2.66413 9.95722C2.28182 9.56987 2.06825 9.04702 2.07004 8.50278C2.07184 7.95854 2.28885 7.43711 2.6737 7.05229C3.05856 6.66747 3.58002 6.45052 4.12426 6.44878C4.6685 6.44704 5.19133 6.66066 5.57863 7.04302L7.88923 9.35362L8.03563 9.50012H15.9644L16.1108 9.35362L18.4214 7.04302C18.6124 6.85104 18.8395 6.69884 19.0896 6.59523C19.3398 6.49162 19.608 6.43866 19.8787 6.43942ZM19.8787 5.93942C19.5424 5.93895 19.2092 6.00497 18.8985 6.13369C18.5877 6.2624 18.3055 6.45126 18.0679 6.68942L15.7573 9.00012H8.24273L5.93213 6.68942C5.69462 6.45039 5.41227 6.26058 5.10126 6.13088C4.79025 6.00118 4.4567 5.93414 4.11973 5.9336C3.78276 5.93306 3.44899 5.99902 3.13757 6.12772C2.82614 6.25642 2.54318 6.44532 2.3049 6.68358C2.06662 6.92185 1.87771 7.2048 1.74899 7.51622C1.62028 7.82764 1.55429 8.1614 1.55481 8.49837C1.55534 8.83534 1.62236 9.16889 1.75204 9.47991C1.88172 9.79093 2.07151 10.0733 2.31053 10.3108L4.00003 12.0001L2.31053 13.6894C1.83281 14.1702 1.56517 14.8207 1.56626 15.4985C1.56735 16.1763 1.83708 16.826 2.31635 17.3052C2.79561 17.7844 3.44532 18.0541 4.12308 18.0552C4.80084 18.0562 5.45138 17.7886 5.93213 17.3108L8.24273 15.0001H15.7573L18.0679 17.3108C18.5482 17.7911 19.1995 18.061 19.8787 18.0611C20.5579 18.0611 21.2094 17.7914 21.6897 17.3112C22.17 16.8309 22.4399 16.1796 22.4399 15.5004C22.44 14.8212 22.1703 14.1697 21.69 13.6894L20 12.0001L21.69 10.3108C22.0482 9.95269 22.2921 9.49641 22.3909 8.99967C22.4897 8.50293 22.4389 7.98804 22.2451 7.52013C22.0513 7.05222 21.7231 6.65229 21.3019 6.37092C20.8808 6.08956 20.3857 5.93939 19.8792 5.93942H19.8787Z" fill="#231F20"/>
</svg>
