<svg width="24" height="24" viewBox="0 0 24 24" fill="none" xmlns="http://www.w3.org/2000/svg">
<path d="M12 4.62158C9.55811 4.62276 7.16664 5.31667 5.10337 6.62273C3.0401 7.92879 1.38968 9.79339 0.343811 12C1.38873 14.2073 3.03893 16.0725 5.10241 17.3787C7.1659 18.6849 9.55786 19.3784 12 19.3784C14.4422 19.3784 16.8341 18.6849 18.8976 17.3787C20.9611 16.0725 22.6113 14.2073 23.6562 12C22.6103 9.79339 20.9599 7.92879 18.8967 6.62273C16.8334 5.31667 14.4419 4.62276 12 4.62158ZM14.791 14.084L14.084 14.791L12 12.707L9.91601 14.791L9.20901 14.084L11.293 12L9.20901 9.91598L9.91601 9.20898L12 11.293L14.084 9.20898L14.791 9.91598L12.707 12L14.791 14.084Z" fill="black"/>
</svg>
