<svg width="24" height="24" viewBox="0 0 24 24" fill="none" xmlns="http://www.w3.org/2000/svg">
<path d="M23.5 3V18H24V3H23.5ZM0 18H0.5V3H0V18ZM5.31 10.5C5.65612 10.5 5.99446 10.3974 6.28225 10.2051C6.57003 10.0128 6.79434 9.73947 6.92679 9.4197C7.05924 9.09993 7.0939 8.74806 7.02637 8.40859C6.95885 8.06913 6.79218 7.75731 6.54744 7.51256C6.30269 7.26782 5.99087 7.10115 5.65141 7.03363C5.31194 6.9661 4.96007 7.00076 4.6403 7.13321C4.32053 7.26566 4.04722 7.48997 3.85493 7.77775C3.66264 8.06554 3.56 8.40388 3.56 8.75C3.56 9.21413 3.74437 9.65925 4.07256 9.98744C4.40075 10.3156 4.84587 10.5 5.31 10.5ZM5.31 7.5C5.55723 7.5 5.7989 7.57331 6.00446 7.71066C6.21002 7.84801 6.37024 8.04324 6.46485 8.27165C6.55946 8.50005 6.58421 8.75139 6.53598 8.99386C6.48775 9.23634 6.3687 9.45907 6.19388 9.63388C6.01907 9.8087 5.79634 9.92775 5.55386 9.97598C5.31139 10.0242 5.06005 9.99946 4.83165 9.90485C4.60324 9.81024 4.40801 9.65002 4.27066 9.44446C4.13331 9.2389 4.06 8.99723 4.06 8.75C4.06037 8.41859 4.19219 8.10087 4.42653 7.86653C4.66087 7.63219 4.97859 7.50037 5.31 7.5ZM21 11.5C21 10.3065 20.5259 9.16193 19.682 8.31802C18.8381 7.47411 17.6935 7 16.5 7H11C10.2044 7 9.44129 7.31607 8.87868 7.87868C8.31607 8.44129 8 9.20435 8 10V11.75H2V12.25H5V18H19V12.25H22V11.75H21V11.5ZM18.5 17.5H5.5V12.25H18.5V17.5ZM20.5 11.75H8.5V10C8.50074 9.33719 8.76437 8.70173 9.23305 8.23305C9.70173 7.76437 10.3372 7.50074 11 7.5H16.5C17.5605 7.50119 18.5772 7.923 19.3271 8.67289C20.077 9.42278 20.4988 10.4395 20.5 11.5V11.75Z" fill="black"/>
</svg>
