<svg width="24" height="24" viewBox="0 0 24 24" fill="none" xmlns="http://www.w3.org/2000/svg">
<path d="M12 4.5C12.2967 4.5 12.5867 4.41203 12.8334 4.24721C13.08 4.08238 13.2723 3.84811 13.3858 3.57403C13.4994 3.29994 13.5291 2.99834 13.4712 2.70737C13.4133 2.41639 13.2704 2.14912 13.0607 1.93934C12.8509 1.72956 12.5836 1.5867 12.2926 1.52882C12.0017 1.47094 11.7001 1.50065 11.426 1.61418C11.1519 1.72771 10.9176 1.91997 10.7528 2.16665C10.588 2.41332 10.5 2.70333 10.5 3C10.5 3.39783 10.658 3.77936 10.9393 4.06066C11.2207 4.34197 11.6022 4.5 12 4.5ZM16.0767 7.5882C14.9955 6.50706 13.529 5.89969 12 5.89969C10.471 5.89969 9.00455 6.50706 7.92331 7.5882L7.64191 7.87V16.493H9.50851V24H11.0085V16.493H12.9915V24H14.4915V16.493H16.3581V7.87L16.0767 7.5882ZM14.8581 14.993H9.14191V8.5564L9.17921 8.4717C9.95657 7.78116 10.9602 7.39975 12 7.39975C13.0398 7.39975 14.0434 7.78116 14.8208 8.4717L14.8581 8.5565V14.993Z" fill="black"/>
</svg>
