<svg width="24" height="24" viewBox="0 0 24 24" fill="none" xmlns="http://www.w3.org/2000/svg">
<path d="M12 9.99991C12.7747 9.99993 13.5319 9.77023 14.176 9.33987C14.8201 8.90951 15.3222 8.29781 15.6186 7.58213C15.9151 6.86645 15.9927 6.07893 15.8416 5.31916C15.6904 4.55938 15.3174 3.86149 14.7697 3.31372C14.2219 2.76595 13.524 2.39291 12.7642 2.24177C12.0045 2.09064 11.217 2.16819 10.5013 2.46464C9.78558 2.76108 9.17387 3.26309 8.74349 3.90719C8.31311 4.55129 8.0834 5.30855 8.0834 6.08321C8.08459 7.1216 8.49761 8.11712 9.23185 8.85138C9.9661 9.58564 10.9616 9.99869 12 9.99991ZM12 3.66651C12.478 3.66649 12.9452 3.80821 13.3427 4.07374C13.7401 4.33928 14.0499 4.71671 14.2328 5.15831C14.4157 5.5999 14.4636 6.08582 14.3704 6.55462C14.2771 7.02342 14.047 7.45404 13.709 7.79204C13.371 8.13003 12.9404 8.3602 12.4716 8.45346C12.0028 8.54672 11.5169 8.49887 11.0753 8.31596C10.6337 8.13304 10.2562 7.82329 9.99069 7.42586C9.72514 7.02844 9.5834 6.56119 9.5834 6.08321C9.58414 5.4425 9.83898 4.82825 10.292 4.37519C10.7451 3.92214 11.3593 3.66727 12 3.66651ZM19.707 15.3977C17.6615 13.3566 14.8897 12.2102 12 12.2102C9.11027 12.2102 6.33855 13.3566 4.293 15.3977L4 15.6906V20.9999H20V15.6906L19.707 15.3977ZM9.214 19.4999C9.3533 18.8647 9.70549 18.2961 10.2122 17.8885C10.7189 17.4809 11.3497 17.2586 12 17.2586C12.6503 17.2586 13.2811 17.4809 13.7878 17.8885C14.2945 18.2961 14.6467 18.8647 14.786 19.4999H9.214ZM18.5 19.4999H16.2943C16.1508 18.4629 15.637 17.5129 14.8477 16.8252C14.0583 16.1376 13.0469 15.7588 12 15.7588C10.9531 15.7588 9.94166 16.1376 9.15233 16.8252C8.363 17.5129 7.84916 18.4629 7.7057 19.4999H5.5V16.3205C5.5271 16.2957 5.6031 16.2224 5.6306 16.1983C7.3659 14.5984 9.63973 13.7102 12 13.7102C14.3603 13.7102 16.6341 14.5984 18.3694 16.1983C18.3969 16.2224 18.473 16.2957 18.5 16.3205V19.4999Z" fill="black"/>
</svg>
