<svg width="24" height="24" viewBox="0 0 24 24" fill="none" xmlns="http://www.w3.org/2000/svg">
<path d="M12 6.7916C11.4067 6.7916 10.8266 6.96755 10.3333 7.29719C9.83995 7.62684 9.45543 8.09537 9.22837 8.64355C9.0013 9.19173 8.94189 9.79493 9.05765 10.3769C9.1734 10.9588 9.45913 11.4934 9.87868 11.9129C10.2982 12.3325 10.8328 12.6182 11.4147 12.734C11.9967 12.8497 12.5999 12.7903 13.1481 12.5632C13.6962 12.3362 14.1648 11.9517 14.4944 11.4583C14.8241 10.965 15 10.3849 15 9.7916C15 8.99595 14.6839 8.23289 14.1213 7.67028C13.5587 7.10767 12.7957 6.7916 12 6.7916ZM12 11.0916C11.7429 11.0916 11.4915 11.0154 11.2778 10.8725C11.064 10.7297 10.8974 10.5266 10.799 10.2891C10.7006 10.0515 10.6748 9.79016 10.725 9.53798C10.7751 9.28581 10.899 9.05417 11.0808 8.87236C11.2626 8.69055 11.4942 8.56674 11.7464 8.51658C11.9986 8.46642 12.2599 8.49216 12.4975 8.59056C12.735 8.68895 12.9381 8.85558 13.0809 9.06936C13.2238 9.28314 13.3 9.53448 13.3 9.7916C13.2996 10.1363 13.1625 10.4667 12.9188 10.7104C12.6751 10.9541 12.3447 11.0912 12 11.0916ZM12 2C10.0222 2 8.08879 2.58649 6.4443 3.6853C4.79981 4.78412 3.51809 6.3459 2.76121 8.17317C2.00433 10.0004 1.8063 12.0111 2.19215 13.9509C2.578 15.8907 3.53041 17.6725 4.92894 19.0711C6.32746 20.4696 8.10929 21.422 10.0491 21.8079C11.9889 22.1937 13.9996 21.9957 15.8268 21.2388C17.6541 20.4819 19.2159 19.2002 20.3147 17.5557C21.4135 15.9112 22 13.9778 22 12C22 10.6868 21.7413 9.38642 21.2388 8.17317C20.7363 6.95991 19.9997 5.85752 19.0711 4.92893C18.1425 4.00035 17.0401 3.26375 15.8268 2.7612C14.6136 2.25866 13.3132 2 12 2ZM15.0029 19.41C13.0783 20.1968 10.9217 20.1968 8.9971 19.41V17.09C9.84669 16.402 10.9068 16.0266 12 16.0266C13.0932 16.0266 14.1533 16.402 15.0029 17.09V19.41ZM17.0029 18.233V16.2383L16.71 15.9453C16.0915 15.3267 15.3573 14.8359 14.5491 14.5011C13.741 14.1663 12.8748 13.994 12 13.994C11.1252 13.994 10.259 14.1663 9.4509 14.5011C8.64274 14.8359 7.90847 15.3267 7.29 15.9453L6.9971 16.2383V18.2329C5.70398 17.1966 4.76459 15.7843 4.3087 14.1911C3.8528 12.5979 3.90292 10.9024 4.45211 9.33894C5.0013 7.77545 6.02247 6.42109 7.37455 5.46296C8.72662 4.50484 10.3429 3.99023 12 3.99023C13.6571 3.99023 15.2734 4.50484 16.6255 5.46296C17.9775 6.42109 18.9987 7.77545 19.5479 9.33894C20.0971 10.9024 20.1472 12.5979 19.6913 14.1911C19.2354 15.7843 18.296 17.1966 17.0029 18.2329V18.233Z" fill="black"/>
</svg>
