<svg width="24" height="24" viewBox="0 0 24 24" fill="none" xmlns="http://www.w3.org/2000/svg">
<path d="M12 6.7292C11.4067 6.7292 10.8266 6.90515 10.3333 7.23479C9.83994 7.56444 9.45542 8.03297 9.22836 8.58115C9.0013 9.12933 8.94189 9.73253 9.05764 10.3145C9.1734 10.8964 9.45912 11.431 9.87868 11.8505C10.2982 12.2701 10.8328 12.5558 11.4147 12.6716C11.9967 12.7873 12.5999 12.7279 13.1481 12.5008C13.6962 12.2738 14.1648 11.8893 14.4944 11.3959C14.8241 10.9026 15 10.3225 15 9.7292C15 8.93355 14.6839 8.17049 14.1213 7.60788C13.5587 7.04527 12.7956 6.7292 12 6.7292ZM12 12.2292C11.5055 12.2292 11.0222 12.0826 10.6111 11.8079C10.2 11.5332 9.87952 11.1427 9.6903 10.6859C9.50108 10.2291 9.45157 9.72643 9.54804 9.24147C9.6445 8.75652 9.8826 8.31106 10.2322 7.96143C10.5819 7.6118 11.0273 7.3737 11.5123 7.27724C11.9972 7.18077 12.4999 7.23028 12.9567 7.4195C13.4135 7.60872 13.804 7.92915 14.0787 8.34027C14.3534 8.7514 14.5 9.23475 14.5 9.7292C14.4993 10.392 14.2356 11.0275 13.7669 11.4961C13.2983 11.9648 12.6628 12.2285 12 12.2292ZM18 3H6C5.20435 3 4.44129 3.31607 3.87868 3.87868C3.31607 4.44129 3 5.20435 3 6V18C3 18.7956 3.31607 19.5587 3.87868 20.1213C4.44129 20.6839 5.20435 21 6 21H18C18.7956 21 19.5587 20.6839 20.1213 20.1213C20.6839 19.5587 21 18.7956 21 18V6C21 5.20435 20.6839 4.44129 20.1213 3.87868C19.5587 3.31607 18.7956 3 18 3ZM16.5029 20.5H7.4971V16.86C8.70558 15.6929 10.32 15.0406 12 15.0406C13.68 15.0406 15.2944 15.6929 16.5029 16.86V20.5ZM20.5 18C20.4993 18.6628 20.2356 19.2983 19.7669 19.7669C19.2983 20.2356 18.6628 20.4993 18 20.5H17.0029V16.6523L16.9297 16.5791C15.6213 15.2734 13.8484 14.5401 12 14.5401C10.1516 14.5401 8.37865 15.2734 7.0703 16.5791L6.9971 16.6523V20.5H6C5.33719 20.4993 4.70173 20.2356 4.23305 19.7669C3.76437 19.2983 3.50074 18.6628 3.5 18V6C3.50074 5.33719 3.76437 4.70173 4.23305 4.23305C4.70173 3.76437 5.33719 3.50074 6 3.5H18C18.6628 3.50074 19.2983 3.76437 19.7669 4.23305C20.2356 4.70173 20.4993 5.33719 20.5 6V18Z" fill="black"/>
</svg>
