<svg width="24" height="24" viewBox="0 0 24 24" fill="none" xmlns="http://www.w3.org/2000/svg">
<path d="M18 3H6C5.20435 3 4.44129 3.31607 3.87868 3.87868C3.31607 4.44129 3 5.20435 3 6V18C3 18.7956 3.31607 19.5587 3.87868 20.1213C4.44129 20.6839 5.20435 21 6 21H18C18.7956 21 19.5587 20.6839 20.1213 20.1213C20.6839 19.5587 21 18.7956 21 18V6C21 5.20435 20.6839 4.44129 20.1213 3.87868C19.5587 3.31607 18.7956 3 18 3ZM15 8.7291C15 9.32244 14.8241 9.90246 14.4944 10.3958C14.1648 10.8892 13.6962 11.2737 13.1481 11.5007C12.5999 11.7278 11.9967 11.7872 11.4147 11.6715C10.8328 11.5557 10.2982 11.27 9.87868 10.8504C9.45912 10.4309 9.1734 9.89631 9.05764 9.31437C8.94189 8.73243 9.0013 8.12923 9.22836 7.58105C9.45542 7.03287 9.83994 6.56434 10.3333 6.23469C10.8266 5.90505 11.4067 5.7291 12 5.7291C12.7956 5.7291 13.5587 6.04517 14.1213 6.60778C14.6839 7.17039 15 7.93345 15 8.7291ZM6.5 19V15.998C7.22227 15.2757 8.07972 14.7028 9.02342 14.3119C9.96711 13.921 10.9786 13.7198 12 13.7198C13.0214 13.7198 14.0329 13.921 14.9766 14.3119C15.9203 14.7028 16.7777 15.2757 17.5 15.998V19H6.5Z" fill="black"/>
</svg>
