<svg width="24" height="24" viewBox="0 0 24 24" fill="none" xmlns="http://www.w3.org/2000/svg">
<path d="M15.1345 6.94298L17.7839 5.37398L17.75 8.45298H18.25L18.2161 5.37398L20.8655 6.94298L21.1155 6.50997L18.4319 4.99988L21.1155 3.48987L20.8655 3.05687L18.2161 4.62587L18.25 1.54688H17.75L17.7839 4.62587L15.1345 3.05687L14.8845 3.48987L17.5681 4.99988L14.8845 6.50988L15.1345 6.94298ZM6.2906 5.49468C6.63672 5.49468 6.97506 5.39204 7.26285 5.19975C7.55063 5.00745 7.77494 4.73414 7.90739 4.41437C8.03984 4.0946 8.0745 3.74273 8.00697 3.40327C7.93945 3.0638 7.77278 2.75198 7.52804 2.50724C7.2833 2.2625 6.97147 2.09582 6.63201 2.0283C6.29254 1.96078 5.94067 1.99543 5.6209 2.12789C5.30113 2.26034 5.02782 2.48464 4.83553 2.77243C4.64324 3.06021 4.5406 3.39856 4.5406 3.74468C4.5406 4.2088 4.72497 4.65392 5.05316 4.98211C5.38135 5.3103 5.82647 5.49468 6.2906 5.49468ZM2 11.9999V17.9999C2 18.7955 2.31607 19.5586 2.87868 20.1212C3.44129 20.6838 4.20435 20.9999 5 20.9999H19C19.7956 20.9999 20.5587 20.6838 21.1213 20.1212C21.6839 19.5586 22 18.7955 22 17.9999V11.9999H2ZM10.1606 8.88568C9.93791 8.32898 9.55352 7.85178 9.05702 7.51564C8.56052 7.17951 7.97468 6.99986 7.3751 6.99988H5.5C5.10218 6.99988 4.72064 7.15791 4.43934 7.43921C4.15804 7.72052 4 8.10205 4 8.49988V9.99988H10.6063L10.1606 8.88568Z" fill="black"/>
</svg>
