<svg width="24" height="24" viewBox="0 0 24 24" fill="none" xmlns="http://www.w3.org/2000/svg">
<path d="M5.98997 5.78516C6.33609 5.78516 6.67444 5.68252 6.96222 5.49023C7.25001 5.29794 7.47431 5.02462 7.60676 4.70485C7.73922 4.38508 7.77387 4.03322 7.70635 3.69375C7.63882 3.35428 7.47215 3.04246 7.22741 2.79772C6.98267 2.55298 6.67085 2.38631 6.33138 2.31878C5.99191 2.25126 5.64005 2.28591 5.32028 2.41837C5.00051 2.55082 4.72719 2.77512 4.5349 3.06291C4.34261 3.3507 4.23997 3.68904 4.23997 4.03516C4.23997 4.49929 4.42435 4.94441 4.75254 5.27259C5.08072 5.60078 5.52584 5.78516 5.98997 5.78516ZM17.99 5.78516C18.3361 5.78516 18.6744 5.68252 18.9622 5.49023C19.25 5.29794 19.4743 5.02462 19.6068 4.70485C19.7392 4.38508 19.7739 4.03322 19.7063 3.69375C19.6388 3.35428 19.4722 3.04246 19.2274 2.79772C18.9827 2.55298 18.6708 2.38631 18.3314 2.31878C17.9919 2.25126 17.64 2.28591 17.3203 2.41837C17.0005 2.55082 16.7272 2.77512 16.5349 3.06291C16.3426 3.3507 16.24 3.68904 16.24 4.03516C16.24 4.49929 16.4243 4.94441 16.7525 5.27259C17.0807 5.60078 17.5258 5.78516 17.99 5.78516ZM20.989 8.78356C20.6414 8.32365 20.1924 7.95009 19.677 7.69191C19.1615 7.43372 18.5935 7.29787 18.017 7.29491C17.4406 7.29195 16.8712 7.42196 16.3531 7.67484C15.835 7.92771 15.3823 8.29664 15.03 8.75296C15.0176 8.76506 15.0028 8.77296 14.99 8.78516V8.79586L11.9879 12.7828L8.98997 8.79906V8.78516H8.97877C8.62899 8.32198 8.17653 7.94626 7.65696 7.68755C7.13739 7.42884 6.56489 7.29419 5.98447 7.29419C5.40406 7.29419 4.83156 7.42884 4.31199 7.68755C3.79242 7.94626 3.33996 8.32198 2.99017 8.78516V21.9998H4.99017V15.9998H6.99017V21.9998H8.99017V11.7341L10.6121 13.9067C10.7754 14.1255 10.9864 14.3043 11.2291 14.4294C11.4719 14.5545 11.7399 14.6227 12.0129 14.6288C12.2859 14.6349 12.5567 14.5787 12.8048 14.4646C13.0528 14.3504 13.2716 14.1813 13.4446 13.97L14.99 12.0817V21.9998H16.99V15.9998H18.99V21.9998H20.99V8.78516L20.989 8.78356ZM6.98997 13.9998H4.98997V9.60186C5.28475 9.4 5.634 9.29268 5.99127 9.29416C6.34853 9.29564 6.69688 9.40586 6.98997 9.61016V13.9998ZM16.99 13.9998V9.61306C17.2824 9.40793 17.6304 9.29686 17.9876 9.29469C18.3448 9.29251 18.6942 9.39931 18.9891 9.60086L18.99 13.9998H16.99Z" fill="black"/>
</svg>
