<svg width="24" height="24" viewBox="0 0 24 24" fill="none" xmlns="http://www.w3.org/2000/svg">
<g clip-path="url(#clip0)">
<path d="M12 4.9001C12.3758 4.9001 12.7431 4.78867 13.0556 4.57989C13.368 4.37112 13.6116 4.07438 13.7554 3.7272C13.8992 3.38002 13.9368 2.99799 13.8635 2.62943C13.7902 2.26086 13.6092 1.92232 13.3435 1.6566C13.0778 1.39088 12.7392 1.20992 12.3707 1.13661C12.0021 1.06329 11.6201 1.10092 11.2729 1.24473C10.9257 1.38853 10.629 1.63206 10.4202 1.94451C10.2114 2.25697 10.1 2.62431 10.1 3.0001C10.1 3.50401 10.3002 3.98728 10.6565 4.3436C11.0128 4.69992 11.4961 4.9001 12 4.9001ZM12 2.0001C12.1978 2.0001 12.3911 2.05875 12.5556 2.16863C12.72 2.27851 12.8482 2.43469 12.9239 2.61741C12.9996 2.80014 13.0194 3.00121 12.9808 3.19519C12.9422 3.38917 12.847 3.56735 12.7071 3.70721C12.5672 3.84706 12.3891 3.9423 12.1951 3.98088C12.0011 4.01947 11.8 3.99967 11.6173 3.92398C11.4346 3.84829 11.2784 3.72012 11.1685 3.55567C11.0586 3.39122 11 3.19788 11 3.0001C11.0003 2.73497 11.1057 2.48079 11.2932 2.29331C11.4807 2.10584 11.7349 2.00039 12 2.0001ZM14.7969 7.2413L14.6055 7.0501C14.2635 6.70769 13.8573 6.43605 13.4102 6.25071C12.9632 6.06538 12.484 5.96998 12 5.96998C11.516 5.96998 11.0368 6.06538 10.5897 6.25071C10.1427 6.43605 9.73651 6.70769 9.39449 7.0501L9.20309 7.241L6.37109 18.0001H9.24769V24.0001H14.7523V18.0001H17.6289L14.7969 7.2413ZM13.7523 17.0001V23.0001H12.4471L12.5 17.005L11.5 16.995L11.447 23.0001H10.2477V17.0001H7.66839L10.1012 7.7579L10.1024 7.7568C10.3516 7.50737 10.6476 7.30953 10.9733 7.17458C11.2991 7.03962 11.6482 6.97021 12.0008 6.97032C12.3534 6.97042 12.7025 7.04003 13.0282 7.17517C13.3539 7.31031 13.6497 7.50833 13.8988 7.7579L16.3316 17.0001H13.7523Z" fill="black"/>
</g>
<defs>
<clipPath id="clip0">
<rect width="24" height="24" fill="white"/>
</clipPath>
</defs>
</svg>
