<svg width="24" height="24" viewBox="0 0 24 24" fill="none" xmlns="http://www.w3.org/2000/svg">
<path d="M0 18.0002H1.5V10.0002H0V18.0002ZM9.6936 10.0002L7.8411 9.99533H3.3333V18.1245L5.2966 23.4266L7.3359 22.659C7.82658 22.4751 8.23279 22.1177 8.47757 21.6543C8.72235 21.191 8.78872 20.654 8.6641 20.145L8.1958 18.0125H10.4243C10.8225 18.0121 11.2042 17.8536 11.4857 17.572C11.7672 17.2903 11.9253 16.9084 11.9255 16.5102V15.1893C11.9372 13.4038 11.2653 11.6815 10.0475 10.3756L9.6936 10.0002ZM10.4258 16.5109L6.3301 16.5129L7.1992 20.467C7.245 20.6238 7.23003 20.7921 7.15726 20.9384C7.0845 21.0846 6.95929 21.1981 6.8066 21.2561L6.1797 21.4914L4.833 17.8557V11.4957L9.043 11.4986C9.94424 12.516 10.4368 13.8311 10.4258 15.1902V16.5109ZM22.5 6.00023V14.0002H24V6.00023H22.5ZM16.6641 1.34133C16.1734 1.52523 15.7672 1.8827 15.5224 2.34602C15.2776 2.80934 15.2113 3.34635 15.3359 3.85533L15.8042 5.98783H13.5757C13.1775 5.98828 12.7957 6.14675 12.5143 6.42844C12.2328 6.71013 12.0746 7.09202 12.0745 7.49023V8.81113C12.0628 10.5966 12.7348 12.319 13.9525 13.6248L14.3064 14.0002L20.6664 14.0051V5.87583L18.7034 0.57373L16.6641 1.34133ZM19.167 12.5041L14.9561 12.5012C14.0553 11.4843 13.563 10.1697 13.5742 8.81123V7.48953L17.6699 7.48753L16.8008 3.53343C16.755 3.37663 16.77 3.20833 16.8427 3.06208C16.9155 2.91583 17.0407 2.80237 17.1934 2.74433L17.8203 2.50903L19.167 6.14473V12.5041Z" fill="black"/>
</svg>
