<svg width="24" height="24" viewBox="0 0 24 24" fill="none" xmlns="http://www.w3.org/2000/svg">
<path d="M22 3V18H24V3H22ZM0 18H2V3H0V18ZM6.3125 9.875C6.59681 9.875 6.87474 9.79069 7.11113 9.63274C7.34753 9.47478 7.53178 9.25028 7.64058 8.98761C7.74938 8.72494 7.77784 8.43591 7.72238 8.15706C7.66691 7.87821 7.53 7.62207 7.32897 7.42103C7.12793 7.22 6.87179 7.08309 6.59294 7.02762C6.31409 6.97216 6.02506 7.00062 5.76239 7.10942C5.49972 7.21822 5.27522 7.40247 5.11726 7.63887C4.95931 7.87526 4.875 8.15319 4.875 8.4375C4.875 8.81875 5.02645 9.18438 5.29603 9.45397C5.56562 9.72355 5.93125 9.875 6.3125 9.875ZM15 7H11C10.4696 7 9.96086 7.21071 9.58579 7.58579C9.21071 7.96086 9 8.46957 9 9V11H4V13H6V18H18V13H20V11H19C19 9.93913 18.5786 8.92172 17.8284 8.17157C17.0783 7.42143 16.0609 7 15 7ZM16 16H8V13H16V16ZM11 11V9H15C15.5302 9.00061 16.0386 9.21152 16.4135 9.58646C16.7885 9.9614 16.9994 10.4698 17 11H11Z" fill="black"/>
</svg>
