<svg width="24" height="24" viewBox="0 0 24 24" fill="none" xmlns="http://www.w3.org/2000/svg">
<path d="M12.6045 1.00003C10.5883 1.00222 8.65538 1.80412 7.22973 3.22976C5.80409 4.65541 5.0022 6.58836 5 8.60453V19.1719C5.00003 19.9291 5.22456 20.6692 5.64522 21.2987C6.06587 21.9283 6.66375 22.4189 7.36326 22.7087C8.06276 22.9984 8.83248 23.0742 9.57508 22.9266C10.3177 22.7789 10.9998 22.4143 11.5352 21.8789L16.4111 17.0029C17.5525 15.8678 18.4574 14.5176 19.0734 13.0304C19.6894 11.5432 20.0044 9.94864 20 8.33893C19.9903 6.38569 19.2063 4.51606 17.8198 3.14021C16.4334 1.76436 14.5577 0.994681 12.6045 1.00003ZM16.03 11.76L15.5632 11.58C15.9662 10.5352 16.172 9.42462 16.17 8.30473C16.1604 7.3622 15.7773 6.46197 15.1049 5.80144C14.4325 5.14092 13.5255 4.77403 12.583 4.78123C11.5694 4.78237 10.5976 5.18555 9.88088 5.90232C9.16417 6.61909 8.76106 7.5909 8.76 8.60453V12.208L9.96 13.408C10.2717 13.7196 10.4839 14.1166 10.57 14.5488C10.656 14.981 10.6119 15.429 10.4433 15.8362C10.2747 16.2433 9.98911 16.5914 9.6227 16.8362C9.25629 17.0811 8.82549 17.2117 8.3848 17.2117H8.2119V16.7117H8.3848C8.72652 16.7116 9.06054 16.6102 9.34463 16.4202C9.62872 16.2303 9.85013 15.9605 9.98087 15.6447C10.1116 15.329 10.1458 14.9816 10.0792 14.6464C10.0125 14.3113 9.84799 14.0034 9.6064 13.7617L8.26 12.415V8.60503C8.26116 7.45878 8.71697 6.3598 9.52742 5.54921C10.3379 4.73861 11.4368 4.2826 12.583 4.28123C13.6582 4.27403 14.6923 4.69361 15.4585 5.4479C16.2246 6.20218 16.6604 7.22959 16.67 8.30473C16.6723 9.48617 16.4553 10.6578 16.03 11.76Z" fill="black"/>
</svg>
