<svg width="24" height="24" viewBox="0 0 24 24" fill="none" xmlns="http://www.w3.org/2000/svg">
<path d="M18.5 5.0208C18.3321 5.02055 18.1645 5.0373 18 5.0708V4.7498C17.9999 4.35551 17.9066 3.96684 17.7277 3.61549C17.5487 3.26414 17.2893 2.96008 16.9704 2.72813C16.6516 2.49618 16.2824 2.34291 15.8931 2.28082C15.5037 2.21874 15.1052 2.2496 14.73 2.3709C14.5213 1.95855 14.2023 1.61213 13.8085 1.37012C13.4148 1.12812 12.9617 1 12.4995 1C12.0373 1 11.5842 1.12812 11.1904 1.37012C10.7967 1.61213 10.4777 1.95855 10.269 2.3709C9.89389 2.2498 9.49547 2.21908 9.10624 2.28126C8.717 2.34343 8.34798 2.49674 8.02927 2.72867C7.71056 2.9606 7.45118 3.26459 7.27231 3.61583C7.09344 3.96708 7.00013 4.35563 6.99999 4.7498L7.09379 12.156L6.49999 11.2704C6.33419 10.9737 6.11053 10.7133 5.84225 10.5046C5.57397 10.2959 5.26653 10.1431 4.93814 10.0554C4.60976 9.96772 4.26711 9.94681 3.9305 9.99394C3.59389 10.0411 3.27016 10.1553 2.97849 10.3298L1.93069 10.8679C1.6498 11.0131 1.43745 11.2631 1.33964 11.5638C1.24184 11.8645 1.26647 12.1916 1.40819 12.4743L4.09999 17.8211C4.99522 19.3923 6.28997 20.6989 7.85297 21.6083C9.41597 22.5178 11.1917 22.9979 13 22.9998C15.121 22.9974 17.1544 22.1537 18.6542 20.654C20.1539 19.1542 20.9976 17.1208 21 14.9998V7.5208C20.9993 6.85797 20.7357 6.22248 20.267 5.75379C19.7983 5.2851 19.1628 5.02149 18.5 5.0208ZM19 14.9998C18.9982 16.5906 18.3655 18.1157 17.2407 19.2405C16.1159 20.3653 14.5908 20.9981 13 20.9998C11.553 21.0003 10.1314 20.6195 8.87839 19.8959C7.62535 19.1722 6.58507 18.1312 5.86229 16.8777L3.55229 12.284L3.89409 12.1082C4.10583 11.9982 4.35103 11.9714 4.58155 12.0329C4.81208 12.0944 5.01129 12.2399 5.14009 12.4407L7.04099 15.3826C7.1572 15.5382 7.31344 15.6593 7.49306 15.7331C7.67268 15.807 7.86897 15.8306 8.06099 15.8017L8.06659 15.8329C8.90093 15.6441 9.77297 15.7136 10.5668 16.0323C11.3607 16.351 12.0387 16.9038 12.5109 17.6171L14.2472 16.6271C13.6887 15.7416 12.914 15.0129 11.996 14.5097C11.0779 14.0065 10.0469 13.7454 8.99999 13.751V4.7498C8.99999 4.61719 9.05267 4.49001 9.14644 4.39625C9.24021 4.30248 9.36738 4.2498 9.49999 4.2498C9.6326 4.2498 9.75978 4.30248 9.85355 4.39625C9.94732 4.49001 9.99999 4.61719 9.99999 4.7498V11.0154H12V3.4998C12 3.36719 12.0527 3.24001 12.1464 3.14625C12.2402 3.05248 12.3674 2.9998 12.5 2.9998C12.6326 2.9998 12.7598 3.05248 12.8535 3.14625C12.9473 3.24001 13 3.36719 13 3.4998V11.0154H15V4.7498C15 4.61719 15.0527 4.49001 15.1464 4.39625C15.2402 4.30248 15.3674 4.2498 15.5 4.2498C15.6326 4.2498 15.7598 4.30248 15.8535 4.39625C15.9473 4.49001 16 4.61719 16 4.7498V11.9998H18V7.5208C18 7.38819 18.0527 7.26101 18.1464 7.16725C18.2402 7.07348 18.3674 7.0208 18.5 7.0208C18.6326 7.0208 18.7598 7.07348 18.8535 7.16725C18.9473 7.26101 19 7.38819 19 7.5208V14.9998Z" fill="black"/>
</svg>
