<svg width="24" height="24" viewBox="0 0 24 24" fill="none" xmlns="http://www.w3.org/2000/svg">
<path d="M14.5 16H9.50002C9.70974 16.4892 10.0584 16.9062 10.5028 17.1992C10.9472 17.4922 11.4677 17.6483 12 17.6483C12.5323 17.6483 13.0529 17.4922 13.4973 17.1992C13.9417 16.9062 14.2903 16.4892 14.5 16ZM15.25 12C15.0522 12 14.8589 12.0586 14.6945 12.1685C14.53 12.2784 14.4018 12.4346 14.3261 12.6173C14.2505 12.8 14.2307 13.0011 14.2692 13.1951C14.3078 13.389 14.4031 13.5672 14.5429 13.7071C14.6828 13.8469 14.861 13.9422 15.0549 13.9808C15.2489 14.0193 15.45 13.9995 15.6327 13.9239C15.8154 13.8482 15.9716 13.72 16.0815 13.5555C16.1914 13.3911 16.25 13.1978 16.25 13C16.25 12.7348 16.1447 12.4804 15.9571 12.2929C15.7696 12.1053 15.5152 12 15.25 12ZM8.75002 12C8.55224 12 8.3589 12.0586 8.19445 12.1685C8.03 12.2784 7.90183 12.4346 7.82614 12.6173C7.75046 12.8 7.73065 13.0011 7.76924 13.1951C7.80782 13.389 7.90307 13.5672 8.04292 13.7071C8.18277 13.8469 8.36095 13.9422 8.55493 13.9808C8.74892 14.0193 8.94998 13.9995 9.13271 13.9239C9.31543 13.8482 9.47161 13.72 9.58149 13.5555C9.69138 13.3911 9.75002 13.1978 9.75002 13C9.75002 12.7348 9.64467 12.4804 9.45713 12.2929C9.26959 12.1053 9.01524 12 8.75002 12ZM19.7979 9.23388C19.3984 7.46412 18.4088 5.8829 16.9917 4.75002C15.5746 3.61714 13.8143 3 12 3C10.1857 3 8.42543 3.61714 7.00832 4.75002C5.59121 5.8829 4.60161 7.46412 4.20212 9.23388C3.38569 9.51051 2.68113 10.0447 2.19442 10.7562C1.70771 11.4677 1.46514 12.318 1.50321 13.1791C1.54128 14.0403 1.85793 14.8659 2.40552 15.5316C2.95312 16.1974 3.70206 16.6674 4.53972 16.8709C5.11846 18.3801 6.14134 19.6783 7.4733 20.5941C8.80525 21.5099 10.3836 22.0001 12 22.0001C13.6164 22.0001 15.1948 21.5099 16.5268 20.5941C17.8587 19.6783 18.8816 18.3801 19.4603 16.8709C20.298 16.6674 21.0469 16.1974 21.5945 15.5316C22.1421 14.8659 22.4588 14.0403 22.4968 13.1791C22.5349 12.318 22.2923 11.4677 21.8056 10.7562C21.3189 10.0447 20.6144 9.51051 19.7979 9.23388ZM19.1 15.4149L18.3418 15.6028L18.061 16.3317C17.5912 17.5581 16.7604 18.6131 15.6783 19.3573C14.5962 20.1015 13.3138 20.4999 12.0005 20.4999C10.6872 20.4999 9.40482 20.1015 8.32275 19.3573C7.24067 18.6131 6.40984 17.5581 5.94002 16.3317L5.65932 15.6028L4.90112 15.4149C4.37755 15.2892 3.90909 14.9966 3.56652 14.5812C3.22395 14.1658 3.02588 13.6501 3.00224 13.1122C2.9786 12.5743 3.13068 12.0433 3.43549 11.5994C3.7403 11.1556 4.18129 10.823 4.69182 10.6519L5.48182 10.3793L5.66572 9.56398C5.85859 8.70123 6.2266 7.88729 6.74695 7.17262C7.2673 6.45794 7.92889 5.85776 8.69072 5.40928C8.56907 5.76026 8.50468 6.12853 8.50002 6.49998C8.49713 7.22253 8.71882 7.92814 9.13445 8.5192C9.55007 9.11026 10.1391 9.55757 10.82 9.79926C11.501 10.0409 12.2402 10.0651 12.9355 9.8683C13.6307 9.67153 14.2476 9.26358 14.7009 8.70088L13.64 7.63998C13.4437 7.92213 13.178 8.14889 12.8685 8.29834C12.5589 8.4478 12.2161 8.51491 11.8731 8.49318C11.53 8.47145 11.1984 8.36162 10.9102 8.1743C10.622 7.98698 10.387 7.7285 10.2279 7.42383C10.0688 7.11916 9.9909 6.77861 10.0018 6.43506C10.0127 6.09152 10.1121 5.7566 10.2902 5.46265C10.4684 5.16871 10.7194 4.92568 11.0189 4.75705C11.3184 4.58841 11.6563 4.49987 12 4.49998C13.4755 4.49349 14.9088 4.99242 16.0613 5.91376C17.2138 6.83509 18.0161 8.12327 18.3347 9.56398L18.5187 10.3793L19.3087 10.6519C19.8193 10.823 20.2603 11.1556 20.5651 11.5994C20.8699 12.0433 21.022 12.5743 20.9984 13.1122C20.9747 13.6501 20.7767 14.1657 20.4341 14.5811C20.0916 14.9966 19.6231 15.2892 19.0995 15.4149H19.1Z" fill="black"/>
</svg>
