<svg width="24" height="24" viewBox="0 0 24 24" fill="none" xmlns="http://www.w3.org/2000/svg">
<path d="M18.5 12.5C17.61 12.5 16.74 12.764 15.9999 13.2584C15.2599 13.7529 14.6831 14.4557 14.3425 15.278C14.0019 16.1002 13.9128 17.005 14.0865 17.878C14.2601 18.7509 14.6887 19.5527 15.318 20.182C15.9474 20.8114 16.7492 21.2399 17.6221 21.4136C18.495 21.5872 19.3998 21.4981 20.2221 21.1575C21.0443 20.8169 21.7471 20.2401 22.2416 19.5001C22.7361 18.7601 23 17.8901 23 17C23 15.8066 22.5259 14.662 21.682 13.8181C20.8381 12.9742 19.6935 12.5 18.5 12.5ZM18.5 20.5333C17.8012 20.5333 17.1181 20.3261 16.537 19.9378C15.956 19.5496 15.5031 18.9977 15.2357 18.3521C14.9683 17.7065 14.8984 16.9961 15.0347 16.3107C15.171 15.6253 15.5076 14.9957 16.0017 14.5016C16.4959 14.0075 17.1254 13.671 17.8108 13.5346C18.4962 13.3983 19.2066 13.4683 19.8523 13.7357C20.4979 14.0031 21.0497 14.456 21.4379 15.0371C21.8262 15.6181 22.0334 16.3012 22.0334 17C22.0323 17.9368 21.6597 18.8349 20.9973 19.4973C20.3349 20.1597 19.4368 20.5323 18.5 20.5333ZM5.5 12.5C4.60998 12.5 3.73995 12.764 2.99993 13.2584C2.25991 13.7529 1.68313 14.4557 1.34254 15.278C1.00195 16.1002 0.912831 17.005 1.08646 17.878C1.2601 18.7509 1.68868 19.5527 2.31802 20.182C2.94735 20.8114 3.74918 21.2399 4.62209 21.4136C5.49501 21.5872 6.39981 21.4981 7.22207 21.1575C8.04434 20.8169 8.74715 20.2401 9.24161 19.5001C9.73608 18.7601 10 17.8901 10 17C10 16.4091 9.8836 15.8239 9.65746 15.278C9.43131 14.732 9.09984 14.2359 8.68198 13.8181C8.26411 13.4002 7.76804 13.0687 7.22207 12.8426C6.67611 12.6164 6.09095 12.5 5.5 12.5ZM5.5 20.5333C4.80118 20.5333 4.11806 20.3261 3.53703 19.9378C2.95599 19.5496 2.50314 18.9977 2.23573 18.3521C1.96831 17.7065 1.89836 16.9961 2.0347 16.3107C2.17105 15.6253 2.50757 14.9957 3.00171 14.5016C3.49586 14.0075 4.12543 13.671 4.81082 13.5346C5.49621 13.3983 6.20664 13.4683 6.85226 13.7357C7.49788 14.0031 8.0497 14.456 8.43794 15.0371C8.82618 15.6181 9.0334 16.3012 9.0334 17C9.03229 17.9368 8.65966 18.8349 7.99726 19.4973C7.33485 20.1597 6.43676 20.5323 5.5 20.5333ZM10.4062 10.9922L14.1362 7.26285L18.5062 11.1515L19.5362 10.1215L14.9092 5.49515C14.4024 4.98955 13.7158 4.7056 13 4.7056C12.2842 4.7056 11.5975 4.98955 11.0908 5.49515L8 8.58595C7.62526 8.96115 7.41478 9.46976 7.41478 10C7.41478 10.5303 7.62526 11.0389 8 11.4141L11 14.4141L11.3906 20H13V14.4141C12.9983 13.8841 12.7878 13.376 12.4141 13L10.4062 10.9922ZM16.1406 4.29395C16.4373 4.29395 16.7273 4.20597 16.974 4.04115C17.2206 3.87633 17.4129 3.64206 17.5264 3.36797C17.6399 3.09388 17.6697 2.79228 17.6118 2.50131C17.5539 2.21034 17.411 1.94306 17.2013 1.73329C16.9915 1.52351 16.7242 1.38065 16.4332 1.32277C16.1423 1.26489 15.8407 1.2946 15.5666 1.40813C15.2925 1.52166 15.0582 1.71392 14.8934 1.96059C14.7286 2.20726 14.6406 2.49727 14.6406 2.79395C14.6406 3.19177 14.7986 3.5733 15.0799 3.85461C15.3612 4.13591 15.7428 4.29395 16.1406 4.29395Z" fill="black"/>
</svg>
