<svg width="24" height="24" viewBox="0 0 24 24" fill="none" xmlns="http://www.w3.org/2000/svg">
<path d="M12.3364 10.6421C12.6663 10.6422 12.993 10.5772 13.2978 10.4509C13.6027 10.3247 13.8796 10.1396 14.1129 9.90634C14.3462 9.67305 14.5313 9.39609 14.6576 9.09128C14.7838 8.78647 14.8488 8.45977 14.8488 8.12984C14.8488 6.11984 12.3364 1.58984 12.3364 1.58984C12.3364 1.58984 9.8241 6.11984 9.8241 8.12984C9.82413 8.79614 10.0888 9.43514 10.56 9.90628C11.0311 10.3774 11.6701 10.6421 12.3364 10.6421ZM12.3364 3.58634C13.1188 5.00241 13.6635 6.53732 13.9487 8.12984C13.9487 8.55745 13.7788 8.96755 13.4765 9.26991C13.1741 9.57228 12.764 9.74214 12.3364 9.74214C11.9088 9.74214 11.4987 9.57228 11.1963 9.26991C10.894 8.96755 10.7241 8.55745 10.7241 8.12984C11.0093 6.53733 11.554 5.00243 12.3364 3.58634ZM22.62 17.0644L22.4594 16.2444C22.3128 15.4843 21.8811 14.8089 21.2527 14.3567C20.6243 13.9045 19.8468 13.7097 19.0794 13.8122L15.6578 14.267C15.5296 13.8076 15.2548 13.4026 14.8752 13.1138C14.4957 12.825 14.0321 12.6681 13.5551 12.667H8.3412L2.0455 14.667V22.9998L8.0455 20.9998H13.0455L22.1011 17.9548C22.2807 17.8943 22.4322 17.7708 22.5277 17.607C22.6231 17.4433 22.6559 17.2505 22.62 17.0644ZM21.5777 17.1459L12.8924 20.0665H8.15L8.09 20.0835L7.6365 20.185L7.3345 20.2532L7.0562 20.346L2.9789 21.7049V15.3492L8.486 13.5998H13.556C13.8905 13.5998 14.2112 13.7327 14.4477 13.9692C14.6842 14.2057 14.8171 14.5265 14.8171 14.8609C14.8171 15.1954 14.6842 15.5162 14.4477 15.7527C14.2112 15.9892 13.8905 16.122 13.556 16.122H9.2745V16.1214H8.3412V17.0553H13.5555C14.0776 17.0546 14.5822 16.8672 14.9783 16.5271C15.3744 16.1869 15.6358 15.7164 15.7155 15.2004L19.1948 14.7379L19.2217 14.7345C19.3082 14.7237 19.3954 14.7183 19.4826 14.7182C19.9381 14.719 20.3808 14.8691 20.7429 15.1454C21.1051 15.4217 21.3667 15.8091 21.4877 16.2482C21.5122 16.2959 21.6433 16.8872 21.6533 16.9423C21.6559 16.955 21.6574 16.9678 21.6577 16.9806C21.6565 17.0337 21.63 17.1284 21.5781 17.1459H21.5777Z" fill="black"/>
</svg>
