<svg width="24" height="24" viewBox="0 0 24 24" fill="none" xmlns="http://www.w3.org/2000/svg">
<path d="M6.2906 5.24463C6.58727 5.24463 6.87728 5.15666 7.12396 4.99183C7.37063 4.82701 7.56289 4.59274 7.67642 4.31865C7.78995 4.04457 7.81966 3.74297 7.76178 3.45199C7.7039 3.16102 7.56104 2.89375 7.35126 2.68397C7.14148 2.47419 6.87421 2.33133 6.58324 2.27345C6.29226 2.21557 5.99066 2.24528 5.71657 2.35881C5.44249 2.47234 5.20822 2.6646 5.0434 2.91127C4.87857 3.15795 4.7906 3.44796 4.7906 3.74463C4.7906 4.14245 4.94864 4.52398 5.22994 4.80529C5.51124 5.08659 5.89278 5.24463 6.2906 5.24463ZM10.7396 10.3331L10.1606 8.88563C9.93791 8.32893 9.55352 7.85173 9.05702 7.5156C8.56052 7.17946 7.97468 6.99981 7.3751 6.99983H5.5C5.10218 6.99983 4.72064 7.15787 4.43934 7.43917C4.15804 7.72047 4 8.10201 4 8.49983V10.3331H2V17.9998C2 18.7955 2.31607 19.5585 2.87868 20.1212C3.44129 20.6838 4.20435 20.9998 5 20.9998H19C19.7956 20.9998 20.5587 20.6838 21.1213 20.1212C21.6839 19.5585 22 18.7955 22 17.9998V10.3331H10.7396ZM5.4996 8.83313C5.4996 8.64933 6.047 8.49983 6.2308 8.49983H7.3751C7.67512 8.49883 7.96849 8.58826 8.21693 8.75645C8.46538 8.92465 8.65738 9.1638 8.7679 9.44273L9.124 10.3327H5.5L5.4996 8.83313ZM20.5 17.9998C20.4995 18.3975 20.3414 18.7788 20.0602 19.06C19.779 19.3412 19.3977 19.4994 19 19.4998H5C4.60231 19.4994 4.22104 19.3412 3.93984 19.06C3.65863 18.7788 3.50045 18.3975 3.5 17.9998V11.8331H20.5V17.9998Z" fill="black"/>
</svg>
