<svg width="24" height="24" viewBox="0 0 24 24" fill="none" xmlns="http://www.w3.org/2000/svg">
<path d="M12 5.5C12.4945 5.5 12.9778 5.35338 13.3889 5.07867C13.8 4.80397 14.1205 4.41353 14.3097 3.95671C14.4989 3.49989 14.5484 2.99723 14.452 2.51228C14.3555 2.02732 14.1174 1.58187 13.7678 1.23223C13.4181 0.882603 12.9727 0.644501 12.4877 0.548038C12.0028 0.451575 11.5001 0.501083 11.0433 0.690302C10.5865 0.879521 10.196 1.19995 9.92133 1.61108C9.64662 2.0222 9.5 2.50555 9.5 3C9.50079 3.6628 9.76444 4.29822 10.2331 4.76689C10.7018 5.23556 11.3372 5.49921 12 5.5ZM12 1C12.3956 1 12.7822 1.1173 13.1111 1.33706C13.44 1.55682 13.6964 1.86918 13.8478 2.23463C13.9991 2.60009 14.0387 3.00222 13.9616 3.39018C13.8844 3.77814 13.6939 4.13451 13.4142 4.41421C13.1345 4.69392 12.7781 4.8844 12.3902 4.96157C12.0022 5.03874 11.6001 4.99914 11.2346 4.84776C10.8692 4.69638 10.5568 4.44004 10.3371 4.11114C10.1173 3.78224 10 3.39556 10 3C10.0006 2.46976 10.2115 1.9614 10.5865 1.58646C10.9614 1.21152 11.4698 1.00061 12 1ZM17 9.4375L16.707 9.1445C15.4577 7.89791 13.7649 7.19781 12 7.19781C10.2351 7.19781 8.54232 7.89791 7.293 9.1445L7 9.4375V13H17V9.4375ZM16.5 12.5H7.5V9.6446L7.6465 9.498C8.80208 8.3452 10.3677 7.69779 12 7.69779C13.6323 7.69779 15.1979 8.3452 16.3535 9.498L16.5 9.6446V12.5ZM20 17.7656C20.3049 17.7656 20.603 17.6752 20.8565 17.5058C21.11 17.3364 21.3076 17.0956 21.4243 16.8139C21.5409 16.5323 21.5715 16.2223 21.512 15.9232C21.4525 15.6242 21.3057 15.3495 21.0901 15.1339C20.8745 14.9183 20.5998 14.7715 20.3008 14.712C20.0017 14.6525 19.6917 14.6831 19.4101 14.7997C19.1284 14.9164 18.8876 15.114 18.7182 15.3675C18.5488 15.621 18.4584 15.9191 18.4584 16.224C18.4584 16.6329 18.6208 17.025 18.9099 17.3141C19.199 17.6032 19.5911 17.7656 20 17.7656ZM20 15.1824C20.206 15.1824 20.4074 15.2435 20.5787 15.3579C20.75 15.4724 20.8835 15.6351 20.9623 15.8254C21.0411 16.0157 21.0618 16.2252 21.0216 16.4272C20.9814 16.6293 20.8822 16.8149 20.7365 16.9605C20.5909 17.1062 20.4053 17.2054 20.2032 17.2456C20.0012 17.2858 19.7917 17.2652 19.6014 17.1863C19.4111 17.1075 19.2484 16.974 19.1339 16.8027C19.0195 16.6314 18.9584 16.43 18.9584 16.224C18.9587 15.9479 19.0686 15.6831 19.2638 15.4878C19.4591 15.2926 19.7238 15.1827 20 15.1824ZM22.8242 19.8948C22.0746 19.1468 21.0589 18.7267 20 18.7267C18.9411 18.7267 17.9254 19.1468 17.1758 19.8948L17 20.0706V22H23V20.0706L22.8242 19.8948ZM22.5 21.5H17.5V20.2776L17.5294 20.2484C18.1852 19.5941 19.0737 19.2267 20 19.2267C20.9263 19.2267 21.8148 19.5941 22.4706 20.2484L22.5 20.2776V21.5ZM10.4584 16.224C10.4584 16.5289 10.5488 16.827 10.7182 17.0805C10.8876 17.334 11.1284 17.5316 11.4101 17.6483C11.6917 17.7649 12.0017 17.7955 12.3008 17.736C12.5998 17.6765 12.8745 17.5297 13.0901 17.3141C13.3057 17.0985 13.4525 16.8238 13.512 16.5248C13.5715 16.2257 13.5409 15.9157 13.4243 15.6341C13.3076 15.3524 13.11 15.1116 12.8565 14.9422C12.603 14.7728 12.3049 14.6824 12 14.6824C11.5911 14.6824 11.199 14.8448 10.9099 15.1339C10.6208 15.423 10.4584 15.8151 10.4584 16.224ZM13.0416 16.224C13.0416 16.43 12.9805 16.6314 12.8661 16.8027C12.7516 16.974 12.5889 17.1075 12.3986 17.1863C12.2083 17.2652 11.9988 17.2858 11.7968 17.2456C11.5947 17.2054 11.4091 17.1062 11.2635 16.9605C11.1178 16.8149 11.0186 16.6293 10.9784 16.4272C10.9382 16.2252 10.9589 16.0157 11.0377 15.8254C11.1165 15.6351 11.25 15.4724 11.4213 15.3579C11.5926 15.2435 11.794 15.1824 12 15.1824C12.2762 15.1827 12.5409 15.2926 12.7362 15.4878C12.9314 15.6831 13.0413 15.9479 13.0416 16.224ZM12 18.7267C11.4755 18.7258 10.956 18.8285 10.4714 19.029C9.9867 19.2294 9.54641 19.5237 9.1758 19.8948L9 20.0706V22H15V20.0706L14.8242 19.8948C14.4536 19.5237 14.0133 19.2294 13.5286 19.029C13.044 18.8285 12.5245 18.7258 12 18.7267ZM14.5 21.5H9.5V20.2776L9.5294 20.2484C10.1852 19.5941 11.0737 19.2267 12 19.2267C12.9263 19.2267 13.8148 19.5941 14.4706 20.2484L14.5 20.2776V21.5ZM4 17.7656C4.3049 17.7656 4.60295 17.6752 4.85647 17.5058C5.10998 17.3364 5.30757 17.0956 5.42425 16.8139C5.54093 16.5323 5.57146 16.2223 5.51198 15.9232C5.4525 15.6242 5.30567 15.3495 5.09008 15.1339C4.87448 14.9183 4.59979 14.7715 4.30075 14.712C4.00171 14.6525 3.69175 14.6831 3.41006 14.7997C3.12836 14.9164 2.8876 15.114 2.71821 15.3675C2.54881 15.621 2.4584 15.9191 2.4584 16.224C2.4584 16.6329 2.62082 17.025 2.90992 17.3141C3.19903 17.6032 3.59114 17.7656 4 17.7656ZM4 15.1824C4.20601 15.1824 4.40739 15.2435 4.57868 15.3579C4.74997 15.4724 4.88348 15.6351 4.96231 15.8254C5.04115 16.0157 5.06178 16.2252 5.02159 16.4272C4.9814 16.6293 4.88219 16.8149 4.73652 16.9605C4.59085 17.1062 4.40526 17.2054 4.20321 17.2456C4.00116 17.2858 3.79172 17.2652 3.6014 17.1863C3.41107 17.1075 3.24839 16.974 3.13394 16.8027C3.01949 16.6314 2.9584 16.43 2.9584 16.224C2.95872 15.9479 3.06856 15.6831 3.26383 15.4878C3.4591 15.2926 3.72385 15.1827 4 15.1824ZM4 18.7267C3.47552 18.7258 2.95602 18.8285 2.47136 19.029C1.9867 19.2294 1.54641 19.5237 1.1758 19.8948L1 20.0706V22H7V20.0706L6.8242 19.8948C6.45359 19.5237 6.0133 19.2294 5.52864 19.029C5.04398 18.8285 4.52448 18.7258 4 18.7267ZM6.5 21.5H1.5V20.2776L1.5294 20.2484C2.18517 19.5941 3.07367 19.2267 4 19.2267C4.92633 19.2267 5.81483 19.5941 6.4706 20.2484L6.5 20.2776V21.5Z" fill="black"/>
</svg>
