<svg width="24" height="24" viewBox="0 0 24 24" fill="none" xmlns="http://www.w3.org/2000/svg">
<path d="M12 10C12.7417 10 13.4667 9.78007 14.0834 9.36801C14.7001 8.95596 15.1807 8.37029 15.4645 7.68506C15.7484 6.99984 15.8226 6.24584 15.6779 5.51841C15.5333 4.79098 15.1761 4.1228 14.6517 3.59835C14.1272 3.0739 13.459 2.71675 12.7316 2.57206C12.0042 2.42736 11.2502 2.50162 10.5649 2.78545C9.87971 3.06928 9.29404 3.54993 8.88199 4.16661C8.46993 4.7833 8.25 5.50832 8.25 6.25C8.25114 7.24421 8.64659 8.19738 9.34961 8.9004C10.0526 9.60341 11.0058 9.99886 12 10ZM12 17.7578C11.038 17.761 10.1036 18.0799 9.34046 18.6656C8.57731 19.2514 8.0276 20.0715 7.7758 21H16.2242C15.9724 20.0715 15.4227 19.2514 14.6595 18.6656C13.8964 18.0799 12.962 17.761 12 17.7578ZM19.707 15.7852C17.6615 13.7441 14.8897 12.5977 12 12.5977C9.11027 12.5977 6.33855 13.7441 4.293 15.7852L4 16.0781V21H7.2546C7.51031 19.9339 8.11754 18.985 8.97843 18.3062C9.83931 17.6274 10.9037 17.2582 12 17.2582C13.0963 17.2582 14.1607 17.6274 15.0216 18.3062C15.8825 18.985 16.4897 19.9339 16.7454 21H20V16.0781L19.707 15.7852Z" fill="black"/>
</svg>
