<svg width="24" height="24" viewBox="0 0 24 24" fill="none" xmlns="http://www.w3.org/2000/svg">
<path d="M4.6078 9.49463C4.95392 9.49463 5.29226 9.39199 5.58005 9.1997C5.86783 9.00741 6.09214 8.7341 6.22459 8.41433C6.35704 8.09456 6.3917 7.74269 6.32417 7.40322C6.25665 7.06375 6.08998 6.75194 5.84524 6.50719C5.60049 6.26245 5.28867 6.09578 4.94921 6.02826C4.60974 5.96073 4.25787 5.99539 3.9381 6.12784C3.61833 6.26029 3.34502 6.4846 3.15273 6.77238C2.96044 7.06017 2.8578 7.39851 2.8578 7.74463C2.8578 8.20876 3.04217 8.65388 3.37036 8.98207C3.69855 9.31026 4.14367 9.49463 4.6078 9.49463ZM21 10.9998C21 9.67375 20.4732 8.40198 19.5355 7.4643C18.5979 6.52661 17.3261 5.99983 16 5.99983H11C10.2044 5.99983 9.44129 6.3159 8.87868 6.87851C8.31607 7.44112 8 8.20418 8 8.99983V10.9998H1V12.9998H4V17.9998H20V12.9998H23V10.9998H21ZM18 15.9998H6V12.9998H18V15.9998ZM10 10.9998V8.99983C10.0003 8.7347 10.1057 8.48052 10.2932 8.29304C10.4807 8.10557 10.7349 8.00012 11 7.99983H16C16.7954 8.00073 17.5579 8.31709 18.1203 8.8795C18.6827 9.44192 18.9991 10.2045 19 10.9998H10Z" fill="black"/>
</svg>
