<svg width="24" height="24" viewBox="0 0 24 24" fill="none" xmlns="http://www.w3.org/2000/svg">
<path d="M20.4143 11.9999L21.793 10.6213C22.2988 10.1132 22.5825 9.42522 22.5817 8.70824C22.5809 7.99126 22.2958 7.30388 21.7888 6.7969C21.2818 6.28993 20.5944 6.00477 19.8774 6.00401C19.1604 6.00324 18.4724 6.28693 17.9644 6.79282L15.7573 8.99992H8.24267L6.03557 6.79272C5.5275 6.28683 4.8395 6.00314 4.12252 6.00391C3.40554 6.00467 2.71815 6.28983 2.21116 6.7968C1.70417 7.30378 1.419 7.99116 1.41821 8.70814C1.41743 9.42512 1.7011 10.1131 2.20697 10.6212L3.58567 11.9999L2.20697 13.3786C1.70394 13.8873 1.4227 14.5744 1.42471 15.2898C1.42671 16.0052 1.71179 16.6907 2.21767 17.1965C2.72354 17.7024 3.40907 17.9874 4.12445 17.9894C4.83984 17.9913 5.52693 17.7101 6.03557 17.207L8.24267 14.9999H15.7573L17.9644 17.207C18.2152 17.4607 18.5138 17.6623 18.8428 17.8002C19.1719 17.9381 19.5249 18.0096 19.8817 18.0106C20.2385 18.0116 20.5919 17.9421 20.9218 17.806C21.2516 17.67 21.5512 17.47 21.8035 17.2178C22.0558 16.9655 22.2557 16.6658 22.3918 16.336C22.5279 16.0062 22.5975 15.6528 22.5965 15.296C22.5955 14.9392 22.524 14.5862 22.3861 14.2571C22.2482 13.9281 22.0466 13.6295 21.793 13.3786L20.4143 11.9999ZM21.0859 16.4999C20.9272 16.6585 20.7388 16.7843 20.5315 16.8701C20.3242 16.9559 20.102 17 19.8777 16.9999C19.6533 16.9998 19.4312 16.9555 19.2239 16.8696C19.0167 16.7836 18.8284 16.6577 18.6699 16.4989L16.1719 13.9999H7.82807L5.32907 16.4999C5.00894 16.8202 4.57471 17.0001 4.12189 17.0002C3.66907 17.0003 3.23477 16.8205 2.91452 16.5004C2.59427 16.1802 2.41431 15.746 2.41423 15.2932C2.41414 14.8404 2.59394 14.4061 2.91407 14.0858L4.99997 11.9999L2.91407 9.91402C2.75563 9.75538 2.62998 9.5671 2.5443 9.35991C2.45862 9.15272 2.41458 8.93068 2.41471 8.70648C2.41484 8.48227 2.45913 8.26028 2.54505 8.05319C2.63097 7.8461 2.75684 7.65796 2.91547 7.49952C3.0741 7.34107 3.26239 7.21542 3.46958 7.12974C3.67677 7.04406 3.8988 7.00003 4.12301 7.00016C4.34722 7.00029 4.56921 7.04458 4.7763 7.1305C4.98339 7.21642 5.17153 7.34229 5.32997 7.50092L7.82807 9.99992H16.1719L18.6709 7.49992C18.8294 7.34134 19.0176 7.21555 19.2247 7.12971C19.4318 7.04387 19.6538 6.99966 19.8781 6.99962C20.1023 6.99958 20.3243 7.0437 20.5315 7.12946C20.7386 7.21523 20.9269 7.34095 21.0854 7.49947C21.244 7.65798 21.3698 7.84617 21.4556 8.0533C21.5415 8.26043 21.5857 8.48244 21.5857 8.70665C21.5858 8.93086 21.5416 9.15288 21.4559 9.36004C21.3701 9.5672 21.2444 9.75544 21.0859 9.91402L19 11.9999L21.0859 14.0858C21.2444 14.2443 21.3701 14.4325 21.4559 14.6396C21.5417 14.8467 21.5859 15.0687 21.5859 15.2929C21.5859 15.517 21.5417 15.739 21.4559 15.9461C21.3701 16.1532 21.2444 16.3414 21.0859 16.4999Z" fill="#231F20"/>
</svg>
