<svg width="24" height="24" viewBox="0 0 24 24" fill="none" xmlns="http://www.w3.org/2000/svg">
<path d="M15.25 7.41393C15.2488 6.99823 15.33 6.58643 15.4891 6.20238C15.6482 5.81833 15.882 5.46968 16.1768 5.17663C16.5182 4.83727 16.7889 4.43351 16.9731 3.98876C17.1573 3.54401 17.2515 3.06712 17.25 2.58573V1.99983H16.75V2.58573C16.7512 3.00143 16.67 3.41323 16.5109 3.79728C16.3518 4.18133 16.118 4.52998 15.8232 4.82303C15.4818 5.16239 15.2111 5.56615 15.0269 6.0109C14.8427 6.45565 14.7485 6.93254 14.75 7.41393V7.99983H15.25V7.41393ZM19.25 7.41393C19.2488 6.99823 19.33 6.58643 19.4891 6.20238C19.6482 5.81833 19.882 5.46968 20.1768 5.17663C20.5182 4.83727 20.7889 4.43351 20.9731 3.98876C21.1573 3.54401 21.2515 3.06712 21.25 2.58573V1.99983H20.75V2.58573C20.7512 3.00143 20.67 3.41323 20.5109 3.79728C20.3518 4.18133 20.118 4.52998 19.8232 4.82303C19.4818 5.16239 19.2111 5.56615 19.0269 6.0109C18.8427 6.45565 18.7485 6.93254 18.75 7.41393V7.99983H19.25V7.41393ZM6.2906 5.49463C6.63672 5.49463 6.97506 5.39199 7.26285 5.1997C7.55063 5.00741 7.77494 4.7341 7.90739 4.41433C8.03984 4.09455 8.0745 3.74269 8.00697 3.40322C7.93945 3.06375 7.77278 2.75193 7.52804 2.50719C7.2833 2.26245 6.97147 2.09578 6.63201 2.02826C6.29254 1.96073 5.94067 1.99539 5.6209 2.12784C5.30113 2.26029 5.02782 2.4846 4.83553 2.77238C4.64324 3.06017 4.5406 3.39851 4.5406 3.74463C4.5406 4.20876 4.72497 4.65388 5.05316 4.98207C5.38135 5.31026 5.82647 5.49463 6.2906 5.49463ZM2 11.9998V17.9998C2 18.7955 2.31607 19.5585 2.87868 20.1212C3.44129 20.6838 4.20435 20.9998 5 20.9998H19C19.7956 20.9998 20.5587 20.6838 21.1213 20.1212C21.6839 19.5585 22 18.7955 22 17.9998V11.9998H2ZM10.1606 8.88563C9.93791 8.32893 9.55352 7.85173 9.05702 7.5156C8.56052 7.17946 7.97468 6.99981 7.3751 6.99983H5.5C5.10218 6.99983 4.72064 7.15787 4.43934 7.43917C4.15804 7.72047 4 8.10201 4 8.49983V9.99983H10.6063L10.1606 8.88563Z" fill="black"/>
</svg>
