<svg width="24" height="24" viewBox="0 0 24 24" fill="none" xmlns="http://www.w3.org/2000/svg">
<path d="M12.3052 8.52649L13.6416 10.8417C13.6816 10.8936 13.7207 10.945 13.7607 10.9969L16.4951 13.7313L17.5557 12.6708L14.8916 10.0058L13.2061 7.08579C12.9732 6.68522 12.5914 6.39303 12.1438 6.27298C11.6963 6.15293 11.2195 6.21476 10.8174 6.44499L7.7026 8.24119C7.30218 8.47206 7.00927 8.85186 6.8877 9.29779L5.9082 12.8878L7.3555 13.2823L8.3623 9.59229L10.8506 8.15779L8.3367 17.3162L5.6328 21.9999H7.3647L9.6847 17.9813L9.7596 17.802L10.7135 14.3271L15.1433 21.9999H16.8748L11.269 12.3021L12.3052 8.52649ZM13.4614 4.80059C13.7284 4.80059 13.9894 4.72141 14.2114 4.57307C14.4334 4.42473 14.6065 4.21389 14.7086 3.96721C14.8108 3.72053 14.8375 3.44909 14.7855 3.18721C14.7334 2.92534 14.6048 2.68479 14.416 2.49599C14.2272 2.30719 13.9866 2.17862 13.7248 2.12653C13.4629 2.07444 13.1915 2.10117 12.9448 2.20335C12.6981 2.30553 12.4873 2.47856 12.3389 2.70057C12.1906 2.92257 12.1114 3.18358 12.1114 3.45059C12.1114 3.80863 12.2536 4.15201 12.5068 4.40518C12.76 4.65835 13.1034 4.80059 13.4614 4.80059Z" fill="black"/>
</svg>
