<svg width="24" height="24" viewBox="0 0 24 24" fill="none" xmlns="http://www.w3.org/2000/svg">
<path d="M15.5 7.41393C15.4988 7.03107 15.5736 6.65178 15.7202 6.29806C15.8667 5.94433 16.0819 5.62322 16.3535 5.35333C16.7182 4.99079 17.0073 4.5595 17.2041 4.08442C17.4009 3.60935 17.5015 3.09995 17.5 2.58573V1.99983H16.5V2.58573C16.5012 2.96859 16.4264 3.34788 16.2798 3.7016C16.1333 4.05532 15.9181 4.37644 15.6465 4.64633C15.2818 5.00886 14.9927 5.44016 14.7959 5.91523C14.5991 6.39031 14.4985 6.89971 14.5 7.41393V7.99983H15.5V7.41393ZM19.5 7.41393C19.4988 7.03107 19.5736 6.65178 19.7202 6.29806C19.8667 5.94433 20.0819 5.62322 20.3535 5.35333C20.7182 4.99079 21.0073 4.5595 21.2041 4.08442C21.4009 3.60935 21.5015 3.09995 21.5 2.58573V1.99983H20.5V2.58573C20.5012 2.96859 20.4264 3.34788 20.2798 3.7016C20.1333 4.05532 19.9181 4.37644 19.6465 4.64633C19.2818 5.00886 18.9927 5.44016 18.7959 5.91523C18.5991 6.39031 18.4985 6.89971 18.5 7.41393V7.99983H19.5V7.41393ZM6.2906 5.49463C6.63672 5.49463 6.97506 5.39199 7.26285 5.1997C7.55063 5.00741 7.77494 4.7341 7.90739 4.41433C8.03984 4.09455 8.0745 3.74269 8.00697 3.40322C7.93945 3.06375 7.77278 2.75193 7.52804 2.50719C7.2833 2.26245 6.97147 2.09578 6.63201 2.02826C6.29254 1.96073 5.94067 1.99539 5.6209 2.12784C5.30113 2.26029 5.02782 2.4846 4.83553 2.77238C4.64324 3.06017 4.5406 3.39851 4.5406 3.74463C4.5406 4.20876 4.72497 4.65388 5.05316 4.98207C5.38135 5.31026 5.82647 5.49463 6.2906 5.49463ZM2 11.9998V17.9998C2 18.7955 2.31607 19.5585 2.87868 20.1212C3.44129 20.6838 4.20435 20.9998 5 20.9998H19C19.7956 20.9998 20.5587 20.6838 21.1213 20.1212C21.6839 19.5585 22 18.7955 22 17.9998V11.9998H2ZM10.1606 8.88563C9.93791 8.32893 9.55352 7.85173 9.05702 7.5156C8.56052 7.17946 7.97468 6.99981 7.3751 6.99983H5.5C5.10218 6.99983 4.72064 7.15787 4.43934 7.43917C4.15804 7.72047 4 8.10201 4 8.49983V9.99983H10.6063L10.1606 8.88563Z" fill="black"/>
</svg>
