<svg width="24" height="24" viewBox="0 0 24 24" fill="none" xmlns="http://www.w3.org/2000/svg">
<path d="M15.1309 4.25055C15.7003 5.23886 16 6.35944 16 7.50005C16 8.64065 15.7003 9.76123 15.1309 10.7495L16.8609 11.7515C17.6069 10.4588 17.9996 8.99257 17.9996 7.50005C17.9996 6.00752 17.6069 4.54127 16.8609 3.24855L15.1309 4.25055ZM20.3267 1.24805L18.5952 2.25005C19.5155 3.84666 20 5.65716 20 7.50005C20 9.34293 19.5155 11.1534 18.5952 12.75L20.3267 13.752C21.4229 11.8508 22 9.69471 22 7.50005C22 5.30539 21.4229 3.14931 20.3267 1.24805ZM9.49999 11C10.1922 11 10.8689 10.7948 11.4445 10.4102C12.0201 10.0256 12.4687 9.47898 12.7336 8.83944C12.9985 8.1999 13.0678 7.49616 12.9327 6.81723C12.7977 6.1383 12.4643 5.51466 11.9749 5.02517C11.4854 4.53569 10.8617 4.20235 10.1828 4.0673C9.50387 3.93225 8.80014 4.00156 8.1606 4.26647C7.52106 4.53138 6.97443 4.97998 6.58985 5.55555C6.20526 6.13112 5.99999 6.80781 5.99999 7.50005C6.0011 8.42796 6.37021 9.31756 7.02634 9.97369C7.68248 10.6298 8.57207 10.9989 9.49999 11ZM9.49999 6.00005C9.79666 6.00005 10.0867 6.08802 10.3333 6.25284C10.58 6.41766 10.7723 6.65193 10.8858 6.92602C10.9993 7.20011 11.029 7.50171 10.9712 7.79268C10.9133 8.08365 10.7704 8.35093 10.5606 8.56071C10.3509 8.77049 10.0836 8.91335 9.79262 8.97122C9.50165 9.0291 9.20005 8.9994 8.92596 8.88587C8.65187 8.77233 8.41761 8.58008 8.25278 8.3334C8.08796 8.08673 7.99999 7.79672 7.99999 7.50005C8.00044 7.10236 8.15862 6.72109 8.43983 6.43988C8.72103 6.15868 9.1023 6.0005 9.49999 6.00005ZM9.53119 12.701C8.36829 12.6991 7.21645 12.9268 6.14184 13.3713C5.06723 13.8158 4.09102 14.4682 3.26929 15.291L3.03119 15.5291V21H16.0312V15.5289L15.7932 15.2908C14.9714 14.468 13.9952 13.8156 12.9206 13.3712C11.8459 12.9268 10.6941 12.699 9.53119 12.701ZM14.0312 19H5.03119V16.38C6.28026 15.2971 7.878 14.7009 9.53119 14.7009C11.1844 14.7009 12.7821 15.2971 14.0312 16.38V19Z" fill="black"/>
</svg>
