<svg width="24" height="24" viewBox="0 0 24 24" fill="none" xmlns="http://www.w3.org/2000/svg">
<path d="M16.7 9.8943H18.3V7.2474H20.9467V5.6468H18.3V3H16.7V5.6468H14.0529V7.2474H16.7V9.8943ZM23.7623 14.2908C22.2252 12.756 20.1779 11.8395 18.0093 11.7154C15.8407 11.5912 13.7021 12.2682 12 13.6176C10.2979 12.2683 8.15937 11.5914 5.99087 11.7155C3.82237 11.8396 1.77504 12.7561 0.238 14.2908L0 14.5289V20H24V14.5289L23.7623 14.2908ZM11 18H2V15.38C3.24907 14.297 4.84681 13.7008 6.5 13.7008C8.15319 13.7008 9.75093 14.297 11 15.38V18ZM22 18H13V15.38C14.2491 14.297 15.8468 13.7008 17.5 13.7008C19.1532 13.7008 20.7509 14.297 22 15.38V18ZM6.5 10C7.19223 10 7.86892 9.79473 8.4445 9.41015C9.02007 9.02556 9.46867 8.47894 9.73358 7.83939C9.99849 7.19985 10.0678 6.49612 9.93275 5.81719C9.7977 5.13825 9.46436 4.51461 8.97487 4.02513C8.48539 3.53564 7.86175 3.2023 7.18282 3.06725C6.50388 2.9322 5.80015 3.00152 5.16061 3.26642C4.52107 3.53133 3.97444 3.97993 3.58986 4.55551C3.20527 5.13108 3 5.80777 3 6.5C3.00111 7.42792 3.37022 8.31751 4.02635 8.97365C4.68249 9.62978 5.57208 9.99889 6.5 10ZM6.5 5C6.79667 5 7.08668 5.08798 7.33336 5.2528C7.58003 5.41762 7.77229 5.65189 7.88582 5.92598C7.99935 6.20007 8.02906 6.50167 7.97118 6.79264C7.9133 7.08361 7.77044 7.35088 7.56066 7.56066C7.35088 7.77044 7.08361 7.9133 6.79264 7.97118C6.50166 8.02906 6.20006 7.99935 5.92597 7.88582C5.65189 7.77229 5.41762 7.58003 5.2528 7.33336C5.08797 7.08668 5 6.79667 5 6.5C5.00045 6.10231 5.15863 5.72105 5.43984 5.43984C5.72104 5.15863 6.10231 5.00045 6.5 5Z" fill="black"/>
</svg>
