<svg width="24" height="24" viewBox="0 0 24 24" fill="none" xmlns="http://www.w3.org/2000/svg">
<path d="M14.084 9.20898L12 11.293L9.91601 9.20898L9.20901 9.91598L11.293 12L9.20901 14.084L9.91601 14.791L12 12.707L14.084 14.791L14.791 14.084L12.707 12L14.791 9.91598L14.084 9.20898ZM12 4.62158C9.55811 4.62277 7.16665 5.31669 5.10338 6.62274C3.04011 7.9288 1.38969 9.7934 0.343811 12C1.38873 14.2073 3.03893 16.0725 5.10241 17.3787C7.1659 18.6849 9.55786 19.3784 12 19.3784C14.4422 19.3784 16.8341 18.6849 18.8976 17.3787C20.9611 16.0725 22.6113 14.2073 23.6562 12C22.6103 9.7934 20.9599 7.9288 18.8966 6.62274C16.8334 5.31669 14.4419 4.62277 12 4.62158ZM12 18.3783C9.83056 18.3691 7.70433 17.7709 5.84836 16.6476C3.99239 15.5242 2.47638 13.9178 1.46221 12C2.46917 10.0762 3.98353 8.46482 5.84112 7.34046C7.69871 6.21611 9.82865 5.62171 12 5.62171C14.1714 5.62171 16.3013 6.21611 18.1589 7.34046C20.0165 8.46482 21.5309 10.0762 22.5378 12C21.5236 13.9178 20.0076 15.5242 18.1517 16.6476C16.2957 17.7709 14.1695 18.3691 12 18.3783Z" fill="black"/>
</svg>
