<svg width="24" height="24" viewBox="0 0 24 24" fill="none" xmlns="http://www.w3.org/2000/svg">
<path d="M7.68462 12H8.00002V12.1534C8.00002 12.3959 8.04779 12.636 8.14059 12.8601C8.2334 13.0841 8.36943 13.2877 8.54091 13.4592C8.7124 13.6307 8.91598 13.7667 9.14003 13.8595C9.36408 13.9523 9.60421 14 9.84672 14H14.1533C14.3958 14 14.636 13.9523 14.86 13.8595C15.0841 13.7667 15.2876 13.6307 15.4591 13.4592C15.6306 13.2877 15.7666 13.0841 15.8594 12.8601C15.9523 12.636 16 12.3959 16 12.1534V12H16.3154C17.0274 12 17.7103 11.7172 18.2137 11.2137C18.7172 10.7102 19 10.0274 19 9.3154V6.6875C19 5.17908 18.4008 3.73244 17.3342 2.66583C16.2676 1.59922 14.8209 1 13.3125 1H10.6875C9.1791 1 7.73246 1.59922 6.66585 2.66583C5.59924 3.73244 5.00002 5.17908 5.00002 6.6875V9.3154C5.00002 10.0274 5.28286 10.7102 5.78632 11.2137C6.28978 11.7172 6.97262 12 7.68462 12ZM7.00002 6.6875C7.00113 5.70986 7.38999 4.77257 8.08129 4.08127C8.77259 3.38997 9.70988 3.00111 10.6875 3H13.3125C14.2902 3.00111 15.2274 3.38997 15.9187 4.08127C16.61 4.77257 16.9989 5.70986 17 6.6875V9.3154C16.9998 9.4969 16.9276 9.67091 16.7993 9.79925C16.6709 9.92759 16.4969 9.99979 16.3154 10H14V12H10V10H7.68462C7.50312 9.99979 7.32911 9.92759 7.20077 9.79925C7.07243 9.67091 7.00023 9.4969 7.00002 9.3154V6.6875ZM12.5654 8.4464C12.5351 8.31928 12.4628 8.20611 12.3602 8.12514C12.2576 8.04417 12.1307 8.00013 12 8.00013C11.8693 8.00013 11.7425 8.04417 11.6399 8.12514C11.5373 8.20611 11.465 8.31928 11.4346 8.4464L11.0642 10H12.9358L12.5654 8.4464ZM19.7217 15.4434L18.9033 13.6191L12 16.7126L5.09672 13.6191L4.27832 15.4434L9.55542 17.8081L4.27832 20.1729L5.09672 21.9971L12 18.9036L18.9033 21.9971L19.7217 20.1729L14.4446 17.8081L19.7217 15.4434ZM14.5732 8.1406C14.7988 8.1406 15.0193 8.07371 15.2069 7.94837C15.3945 7.82304 15.5407 7.64491 15.627 7.43649C15.7133 7.22807 15.7359 6.99873 15.6919 6.77748C15.6479 6.55623 15.5393 6.35299 15.3797 6.19347C15.2202 6.03396 15.017 5.92533 14.7957 5.88132C14.5745 5.83731 14.3451 5.85989 14.1367 5.94622C13.9283 6.03255 13.7502 6.17875 13.6248 6.36632C13.4995 6.55389 13.4326 6.77441 13.4326 7C13.4326 7.3025 13.5528 7.5926 13.7667 7.8065C13.9806 8.02039 14.2707 8.14057 14.5732 8.1406ZM9.42682 8.1406C9.65241 8.14058 9.87292 8.07367 10.0605 7.94833C10.248 7.82298 10.3942 7.64484 10.4805 7.43642C10.5668 7.228 10.5894 6.99867 10.5454 6.77742C10.5014 6.55617 10.3927 6.35294 10.2332 6.19344C10.0737 6.03393 9.87046 5.92531 9.6492 5.88131C9.42795 5.83731 9.19862 5.8599 8.99021 5.94623C8.7818 6.03257 8.60367 6.17876 8.47834 6.36633C8.35301 6.5539 8.28612 6.77442 8.28612 7C8.28615 7.30252 8.40634 7.59263 8.62026 7.80653C8.83418 8.02043 9.12431 8.1406 9.42682 8.1406Z" fill="#231F20"/>
</svg>
