<svg width="24" height="24" viewBox="0 0 24 24" fill="none" xmlns="http://www.w3.org/2000/svg">
<path d="M19.3938 8.9998H14.0251L15.3757 4.2724C15.5423 3.68959 15.475 3.06481 15.1883 2.53078C14.9016 1.99674 14.4179 1.59554 13.8401 1.4124L12.4238 0.962402L8.0828 8.9998H3V20.9998H18.6887C18.6887 20.9998 21.3938 18.1387 21.3938 12.0345V10.9998C21.3938 10.4694 21.1831 9.96066 20.808 9.58559C20.4329 9.21052 19.9242 8.9998 19.3938 8.9998ZM4 9.9998H8V19.9998H4V9.9998ZM20.3936 12.035C20.5094 14.8526 19.7452 17.6363 18.207 19.9998H9V9.406L12.91 2.1668L13.5369 2.366C13.8678 2.46874 14.1451 2.69732 14.3092 3.00252C14.4732 3.30773 14.5108 3.66514 14.4139 3.9978L12.6992 9.9998H19.3936C19.6588 9.99999 19.913 10.1054 20.1005 10.2929C20.288 10.4804 20.3934 10.7346 20.3936 10.9998V12.035Z" fill="black"/>
</svg>
