<svg width="24" height="24" viewBox="0 0 24 24" fill="none" xmlns="http://www.w3.org/2000/svg">
<path d="M12 5.65442C12.2502 5.65444 12.4948 5.58026 12.7029 5.44125C12.911 5.30224 13.0732 5.10465 13.1689 4.87346C13.2647 4.64228 13.2898 4.38789 13.241 4.14246C13.1922 3.89703 13.0717 3.67158 12.8947 3.49463C12.7178 3.31768 12.4924 3.19717 12.2469 3.14834C12.0015 3.09952 11.7471 3.12456 11.5159 3.22032C11.2847 3.31608 11.0871 3.47824 10.9481 3.68631C10.8091 3.89437 10.7349 4.13899 10.7349 4.38922C10.7349 4.72476 10.8682 5.04655 11.1054 5.28382C11.3427 5.52109 11.6644 5.6544 12 5.65442ZM1.86047 10.2284V15.9999H2.86047V19.9999H6.95347V15.9999H7.95347V10.2284C7.5534 9.82835 7.07845 9.511 6.55573 9.29448C6.03301 9.07796 5.47276 8.96652 4.90697 8.96652C4.34119 8.96652 3.78094 9.07796 3.25822 9.29448C2.7355 9.511 2.26055 9.82835 1.86047 10.2284ZM6.55347 14.5999H5.55347V18.5999H4.26057V14.5999H3.26057V10.8765C3.74537 10.5443 4.31932 10.3665 4.90702 10.3665C5.49473 10.3665 6.06868 10.5443 6.55347 10.8765V14.5999ZM8.95347 8.22842V13.9999H9.95347V19.9999H14.0465V13.9999H15.0465V8.22842C14.6464 7.82835 14.1714 7.511 13.6487 7.29448C13.126 7.07796 12.5658 6.96652 12 6.96652C11.4342 6.96652 10.8739 7.07796 10.3512 7.29448C9.8285 7.511 9.35355 7.82835 8.95347 8.22842ZM13.6465 12.5999H12.6465V18.5999H11.3535V12.5999H10.3535V8.87652C10.8383 8.54431 11.4123 8.36652 12 8.36652C12.5877 8.36652 13.1617 8.54431 13.6465 8.87652V12.5999ZM19.093 8.96652C18.5271 8.96581 17.9666 9.07692 17.4438 9.29348C16.921 9.51004 16.4461 9.82777 16.0465 10.2284V15.9999H17.0465V19.9999H21.14V15.9999H22.14V10.2284C21.7403 9.82771 21.2653 9.50994 20.7424 9.29338C20.2195 9.07682 19.659 8.96574 19.093 8.96652ZM20.7394 14.5999H19.7394V18.5999H18.4465V14.5999H17.4465V10.8764C17.9313 10.5442 18.5052 10.3665 19.0929 10.3665C19.6806 10.3665 20.2546 10.5442 20.7394 10.8764V14.5999ZM19.093 7.65442C19.3432 7.65442 19.5878 7.58022 19.7959 7.4412C20.0039 7.30218 20.1661 7.10458 20.2619 6.8734C20.3576 6.64221 20.3827 6.38782 20.3339 6.1424C20.285 5.89697 20.1645 5.67153 19.9876 5.49459C19.8107 5.31765 19.5852 5.19715 19.3398 5.14833C19.0944 5.09952 18.84 5.12457 18.6088 5.22033C18.3776 5.31609 18.18 5.47826 18.041 5.68632C17.902 5.89438 17.8278 6.13899 17.8278 6.38922C17.8278 6.72477 17.9611 7.04656 18.1984 7.28383C18.4356 7.52109 18.7574 7.6544 19.093 7.65442ZM4.90697 7.65442C5.15721 7.65442 5.40182 7.58022 5.60988 7.4412C5.81794 7.30218 5.98011 7.10458 6.07587 6.8734C6.17163 6.64221 6.19668 6.38782 6.14786 6.1424C6.09905 5.89697 5.97855 5.67153 5.80161 5.49459C5.62466 5.31765 5.39923 5.19715 5.1538 5.14833C4.90838 5.09952 4.65399 5.12457 4.4228 5.22033C4.19162 5.31609 3.99402 5.47826 3.855 5.68632C3.71598 5.89438 3.64177 6.13899 3.64177 6.38922C3.6418 6.72477 3.77511 7.04656 4.01237 7.28383C4.24964 7.52109 4.57143 7.6544 4.90697 7.65442Z" fill="black"/>
</svg>
