<svg width="24" height="24" viewBox="0 0 24 24" fill="none" xmlns="http://www.w3.org/2000/svg">
<path d="M11.2917 5.49463C11.6378 5.49463 11.9762 5.39199 12.2639 5.1997C12.5517 5.00741 12.776 4.7341 12.9085 4.41433C13.0409 4.09455 13.0756 3.74269 13.0081 3.40322C12.9405 3.06375 12.7739 2.75193 12.5291 2.50719C12.2844 2.26245 11.9726 2.09578 11.6331 2.02826C11.2936 1.96073 10.9418 1.99539 10.622 2.12784C10.3022 2.26029 10.0289 2.4846 9.83663 2.77238C9.64433 3.06017 9.5417 3.39851 9.5417 3.74463C9.5417 4.20876 9.72607 4.65388 10.0543 4.98207C10.3825 5.31026 10.8276 5.49463 11.2917 5.49463ZM14.1299 18.0046H10.7529C9.75872 18.0034 8.80561 17.6079 8.10262 16.9049C7.39963 16.2019 7.00414 15.2488 7.0029 14.2546V7.25463C7.0029 7.18833 6.97656 7.12474 6.92968 7.07785C6.88279 7.03097 6.8192 7.00463 6.7529 7.00463C6.6866 7.00463 6.62301 7.03097 6.57612 7.07785C6.52924 7.12474 6.5029 7.18833 6.5029 7.25463V14.2546C6.50409 15.3814 6.95224 16.4617 7.74901 17.2585C8.54578 18.0553 9.62609 18.5034 10.7529 18.5046H14.13C14.1963 18.5046 14.2599 18.4783 14.3068 18.4314C14.3537 18.3845 14.38 18.3209 14.38 18.2546C14.38 18.1883 14.3537 18.1247 14.3068 18.0779C14.2599 18.031 14.1963 18.0046 14.13 18.0046H14.1299ZM17.44 15.5698C17.3401 15.1259 17.0925 14.7289 16.7379 14.4437C16.3832 14.1586 15.9424 14.0021 15.4873 13.9998H13.4961V9.24983C13.4961 8.65309 13.259 8.0808 12.8371 7.65884C12.4151 7.23688 11.8428 6.99983 11.2461 6.99983H10.3C9.95522 6.99983 9.62456 7.13679 9.38076 7.38059C9.13696 7.62439 9 7.95505 9 8.29983V13.9998C9 14.5303 9.21071 15.039 9.58579 15.414C9.96086 15.7891 10.4696 15.9998 11 15.9998H15.4873L16.8073 21.9998H18.855L17.44 15.5698Z" fill="black"/>
</svg>
