<svg width="24" height="24" viewBox="0 0 24 24" fill="none" xmlns="http://www.w3.org/2000/svg">
<path d="M12.71 23C11.0965 23.0021 9.50777 22.6028 8.08701 21.8381C6.66624 21.0733 5.45805 19.9671 4.57131 18.6191L1.40001 13.8115C1.2504 13.5812 1.18359 13.3068 1.21056 13.0335C1.23753 12.7602 1.35667 12.5042 1.54841 12.3076L1.84841 12.0083C2.20907 11.6479 2.64126 11.3672 3.11709 11.1841C3.59292 11.001 4.10183 10.9197 4.61102 10.9454C5.12021 10.971 5.61836 11.1031 6.07337 11.3331C6.52837 11.5632 6.93012 11.886 7.25271 12.2808L8.00001 13.1953V4.00146C8.00001 3.20582 8.31608 2.44275 8.87869 1.88014C9.4413 1.31754 10.2044 1.00146 11 1.00146C11.7957 1.00146 12.5587 1.31754 13.1213 1.88014C13.6839 2.44275 14 3.20582 14 4.00146V8.75876C16.3955 8.79989 18.7198 9.58064 20.6543 10.9941L21 11.2935V14.71C20.9975 16.9079 20.1233 19.015 18.5692 20.5692C17.0151 22.1233 14.9079 22.9975 12.71 23ZM3.44001 13.27L6.24171 17.5181C6.94639 18.5895 7.90658 19.4687 9.03576 20.0766C10.1649 20.6844 11.4276 21.0017 12.71 21C14.3777 20.9982 15.9766 20.335 17.1558 19.1557C18.335 17.9765 18.9983 16.3776 19 14.71V12.2632C17.185 11.1955 15.1047 10.6636 13 10.729H12V4.00146C12 3.73625 11.8946 3.48189 11.7071 3.29436C11.5196 3.10682 11.2652 3.00146 11 3.00146C10.7348 3.00146 10.4804 3.10682 10.2929 3.29436C10.1054 3.48189 10 3.73625 10 4.00146V14.5977C9.99996 14.9072 9.90414 15.2092 9.7257 15.4621C9.54725 15.7151 9.29492 15.9066 9.00331 16.0105C8.7117 16.1143 8.3951 16.1254 8.09693 16.0423C7.79877 15.9591 7.53363 15.7857 7.33791 15.5459L5.70411 13.5459C5.55903 13.3666 5.37755 13.2201 5.17168 13.1162C4.9658 13.0122 4.74021 12.9532 4.50981 12.9429C4.12511 12.9166 3.74422 13.033 3.44001 13.27Z" fill="black"/>
</svg>
