<svg width="24" height="24" viewBox="0 0 24 24" fill="none" xmlns="http://www.w3.org/2000/svg">
<path d="M12 5.5C12.3462 5.5 12.6845 5.39737 12.9723 5.20507C13.2601 5.01278 13.4844 4.73947 13.6168 4.4197C13.7493 4.09993 13.7839 3.74806 13.7164 3.40859C13.6489 3.06913 13.4822 2.75731 13.2375 2.51256C12.9927 2.26782 12.6809 2.10115 12.3414 2.03363C12.002 1.9661 11.6501 2.00076 11.3303 2.13321C11.0106 2.26566 10.7373 2.48997 10.545 2.77775C10.3527 3.06554 10.25 3.40388 10.25 3.75C10.25 4.21413 10.4344 4.65925 10.7626 4.98744C11.0908 5.31563 11.5359 5.5 12 5.5ZM12 2.5C12.2473 2.5 12.4889 2.57331 12.6945 2.71066C12.9001 2.84802 13.0603 3.04324 13.1549 3.27165C13.2495 3.50005 13.2743 3.75139 13.226 3.99386C13.1778 4.23634 13.0587 4.45907 12.8839 4.63388C12.7091 4.8087 12.4864 4.92775 12.2439 4.97598C12.0014 5.02421 11.7501 4.99946 11.5217 4.90485C11.2933 4.81024 11.0981 4.65002 10.9607 4.44446C10.8234 4.2389 10.75 3.99723 10.75 3.75C10.7504 3.41859 10.8822 3.10087 11.1166 2.86653C11.3509 2.63219 11.6686 2.50037 12 2.5ZM1.68054 7V8.2043C1.68054 8.45524 1.77488 8.697 1.94484 8.88162C2.1148 9.06623 2.34796 9.1802 2.59804 9.2009L9.22914 9.75V23H14.7709V9.75L21.402 9.2009C21.6521 9.1802 21.8853 9.06623 22.0552 8.88162C22.2252 8.697 22.3195 8.45524 22.3195 8.2043V7H1.68054ZM21.82 8.2043C21.8194 8.32958 21.772 8.45011 21.6871 8.54227C21.6023 8.63444 21.486 8.69162 21.3612 8.7026L14.73 9.2517L14.2713 9.2897V22.5H12.25V14.5H11.75V22.5H9.72914V9.29L9.27004 9.2517L2.63934 8.7026C2.51454 8.69162 2.39833 8.63444 2.31347 8.54227C2.22861 8.45011 2.18121 8.32958 2.18054 8.2043V7.5H21.82V8.2043Z" fill="black"/>
</svg>
