<svg width="24" height="24" viewBox="0 0 24 24" fill="none" xmlns="http://www.w3.org/2000/svg">
<path d="M11.0564 14.8264C10.9769 14.7469 10.8825 14.6838 10.7786 14.6408C10.6747 14.5977 10.5634 14.5756 10.4509 14.5756C10.3385 14.5756 10.2272 14.5977 10.1233 14.6408C10.0194 14.6838 9.925 14.7469 9.8455 14.8264L6.7947 17.8771C6.71519 17.9566 6.65212 18.051 6.60909 18.1549C6.56606 18.2588 6.54391 18.3701 6.54391 18.4825C6.54391 18.595 6.56606 18.7063 6.60909 18.8102C6.65212 18.9141 6.71519 19.0085 6.7947 19.088C6.8742 19.1675 6.9686 19.2306 7.07248 19.2736C7.17636 19.3166 7.2877 19.3388 7.40015 19.3388C7.51259 19.3388 7.62393 19.3166 7.72781 19.2736C7.8317 19.2306 7.92609 19.1675 8.0056 19.088L11.0564 16.0374C11.2169 15.8768 11.3071 15.659 11.3071 15.4319C11.3071 15.2048 11.2169 14.987 11.0564 14.8264ZM12.9783 16.7479C12.8177 16.5874 12.5999 16.4972 12.3728 16.4972C12.1457 16.4972 11.9279 16.5874 11.7673 16.7479L9.56999 18.9451C9.40942 19.1057 9.31921 19.3235 9.31921 19.5505C9.31921 19.7776 9.40942 19.9954 9.56999 20.156C9.73057 20.3166 9.94836 20.4068 10.1754 20.4068C10.4025 20.4068 10.6203 20.3166 10.7809 20.156L12.9781 17.9589C13.1387 17.7983 13.2289 17.5805 13.2289 17.3534C13.229 17.1264 13.1388 16.9085 12.9783 16.7479ZM10.2664 7.2439L10.467 7.4445C10.6721 7.64962 10.9392 7.78109 11.2269 7.81839C11.5145 7.85569 11.8064 7.79673 12.057 7.6507L15.0557 5.904L20.1023 10.9505L23.1282 7.9254L18.3916 3.1709L14.6931 3.176C14.1636 3.17675 13.6561 3.38741 13.2817 3.7618L10.2664 6.7771C10.2357 6.80774 10.2114 6.84413 10.1948 6.88418C10.1782 6.92422 10.1697 6.96715 10.1697 7.0105C10.1697 7.05385 10.1782 7.09677 10.1948 7.13682C10.2114 7.17687 10.2357 7.21325 10.2664 7.2439ZM7.2131 12.1939C7.37363 12.0333 7.46381 11.8155 7.46381 11.5884C7.46381 11.3614 7.37363 11.1436 7.2131 10.983C7.1336 10.9035 7.03922 10.8404 6.93534 10.7974C6.83147 10.7544 6.72013 10.7322 6.6077 10.7322C6.49526 10.7322 6.38393 10.7544 6.28005 10.7974C6.17618 10.8404 6.08179 10.9035 6.0023 10.983L3.1523 13.833C2.99176 13.9936 2.90158 14.2114 2.90158 14.4384C2.90158 14.6655 2.99176 14.8833 3.1523 15.0439C3.23179 15.1234 3.32617 15.1865 3.43005 15.2295C3.53393 15.2725 3.64526 15.2947 3.7577 15.2947C3.87013 15.2947 3.98147 15.2725 4.08534 15.2295C4.18922 15.1865 4.2836 15.1234 4.3631 15.0439L7.2131 12.1939ZM19.8137 12.0765L19.3951 11.658L14.8933 7.1558L12.56 8.5149C12.1186 8.77194 11.6046 8.87569 11.0981 8.80997C10.5916 8.74425 10.1211 8.51276 9.76 8.1516L9.5593 7.951C9.43578 7.82749 9.3378 7.68087 9.27095 7.5195C9.20411 7.35813 9.1697 7.18517 9.1697 7.0105C9.1697 6.83583 9.20411 6.66287 9.27095 6.5015C9.3378 6.34013 9.43578 6.1935 9.5593 6.07L10.3858 5.2434L12.4415 3.1878L5.6085 3.1826L0.871796 7.9254L4.2585 11.3121L5.2949 10.2757C5.53292 10.0374 5.83132 9.8684 6.1581 9.78681C6.48487 9.70521 6.8277 9.7141 7.1498 9.81253C7.47191 9.91096 7.76115 10.0952 7.9865 10.3455C8.21185 10.5958 8.36482 10.9028 8.429 11.2334C8.76053 11.1146 9.11899 11.0925 9.46264 11.1695C9.80628 11.2465 10.121 11.4196 10.3701 11.6686C10.6192 11.9175 10.7924 12.2321 10.8696 12.5757C10.9469 12.9193 10.9249 13.2778 10.8063 13.6094C11.2401 13.6942 11.6294 13.931 11.9042 14.2773C12.179 14.6236 12.3211 15.0566 12.3051 15.4983C12.3275 15.4975 12.3501 15.4971 12.3728 15.4971C12.7399 15.4971 13.0988 15.606 13.404 15.81C13.7092 16.014 13.9471 16.3039 14.0876 16.6431C14.2281 16.9823 14.2649 17.3555 14.1933 17.7155C14.1217 18.0756 13.945 18.4064 13.6854 18.666L12.8474 19.5041L13.3591 20.0159C13.5977 20.2545 13.9213 20.3885 14.2587 20.3885C14.5962 20.3885 14.9198 20.2545 15.1584 20.0159C15.2765 19.8978 15.3703 19.7575 15.4342 19.6032C15.4982 19.4488 15.5311 19.2834 15.5311 19.1163C15.5311 18.9492 15.4982 18.7838 15.4342 18.6294C15.3703 18.4751 15.2765 18.3348 15.1584 18.2167L15.573 18.6313C15.6908 18.7509 15.8311 18.8461 15.9859 18.9113C16.1406 18.9764 16.3067 19.0103 16.4747 19.011C16.6426 19.0116 16.8089 18.979 16.9642 18.9151C17.1194 18.8511 17.2605 18.7571 17.3792 18.6383C17.498 18.5196 17.592 18.3786 17.656 18.2233C17.7199 18.0681 17.7525 17.9017 17.7519 17.7338C17.7513 17.5659 17.7174 17.3997 17.6522 17.245C17.5871 17.0902 17.4919 16.9499 17.3723 16.8321L17.6516 17.1113C17.7694 17.2309 17.9097 17.3261 18.0645 17.3913C18.2192 17.4564 18.3853 17.4903 18.5533 17.491C18.7212 17.4916 18.8875 17.459 19.0428 17.3951C19.198 17.3311 19.3391 17.2371 19.4578 17.1183C19.5766 16.9996 19.6706 16.8586 19.7346 16.7033C19.7985 16.5481 19.8311 16.3817 19.8305 16.2138C19.8299 16.0459 19.796 15.8797 19.7308 15.725C19.6657 15.5702 19.5705 15.4299 19.4509 15.3121L18.958 14.8193C19.0761 14.9374 19.2164 15.0312 19.3708 15.0951C19.5251 15.159 19.6906 15.1919 19.8577 15.1919C20.0248 15.1919 20.1902 15.159 20.3446 15.0951C20.4989 15.0311 20.6392 14.9374 20.7573 14.8192C20.8755 14.7011 20.9692 14.5608 21.0331 14.4065C21.0971 14.2521 21.13 14.0866 21.13 13.9196C21.13 13.7525 21.0971 13.587 21.0331 13.4327C20.9692 13.2783 20.8754 13.138 20.7573 13.0199L19.8137 12.0765ZM9.6637 12.3755C9.58418 12.296 9.48978 12.2329 9.38589 12.1899C9.282 12.1468 9.17065 12.1247 9.0582 12.1247C8.94574 12.1247 8.83439 12.1468 8.7305 12.1899C8.62661 12.2329 8.53221 12.296 8.4527 12.3755L4.6062 16.2221C4.52669 16.3016 4.46362 16.396 4.42059 16.4999C4.37756 16.6038 4.35541 16.7151 4.35541 16.8275C4.35541 16.94 4.37756 17.0513 4.42059 17.1552C4.46362 17.2591 4.52669 17.3535 4.6062 17.433C4.76677 17.5936 4.98456 17.6838 5.21165 17.6838C5.32409 17.6838 5.43543 17.6616 5.53931 17.6186C5.6432 17.5756 5.73759 17.5125 5.8171 17.433L9.66409 13.5861C9.74361 13.5066 9.80668 13.4122 9.84971 13.3083C9.89275 13.2044 9.9149 13.0931 9.9149 12.9806C9.9149 12.8682 9.89275 12.7569 9.84971 12.653C9.80668 12.5491 9.74361 12.4547 9.66409 12.3752L9.6637 12.3755Z" fill="black"/>
</svg>
