<svg width="24" height="24" viewBox="0 0 24 24" fill="none" xmlns="http://www.w3.org/2000/svg">
<path d="M4.6078 9.49463C4.95392 9.49463 5.29226 9.39199 5.58005 9.1997C5.86783 9.00741 6.09214 8.7341 6.22459 8.41433C6.35704 8.09456 6.3917 7.74269 6.32417 7.40322C6.25665 7.06375 6.08998 6.75194 5.84524 6.50719C5.60049 6.26245 5.28867 6.09578 4.94921 6.02826C4.60974 5.96073 4.25787 5.99539 3.9381 6.12784C3.61833 6.26029 3.34502 6.4846 3.15273 6.77238C2.96044 7.06017 2.8578 7.39851 2.8578 7.74463C2.8578 8.20876 3.04217 8.65388 3.37036 8.98207C3.69855 9.31026 4.14367 9.49463 4.6078 9.49463ZM4.6078 6.49463C4.85503 6.49463 5.0967 6.56794 5.30226 6.70529C5.50782 6.84264 5.66804 7.03787 5.76265 7.26628C5.85726 7.49468 5.88201 7.74602 5.83378 7.98849C5.78555 8.23097 5.6665 8.4537 5.49168 8.62851C5.31687 8.80333 5.09414 8.92238 4.85166 8.97061C4.60919 9.01884 4.35785 8.99409 4.12945 8.89948C3.90104 8.80487 3.70581 8.64465 3.56846 8.43909C3.43111 8.23353 3.3578 7.99186 3.3578 7.74463C3.35817 7.41322 3.48999 7.0955 3.72433 6.86116C3.95867 6.62682 4.27639 6.495 4.6078 6.49463ZM21 11.7498V10.9998C21 9.67375 20.4732 8.40198 19.5355 7.4643C18.5979 6.52661 17.3261 5.99983 16 5.99983H11C10.2044 5.99983 9.44129 6.3159 8.87868 6.87851C8.31607 7.44112 8 8.20418 8 8.99983V11.7498H1V12.2498H4V17.9998H20V12.2498H23V11.7498H21ZM19.5 17.4998H4.5V12.2498H19.5V17.4998ZM20.5 11.7498H8.5V8.99983C8.50074 8.33702 8.76437 7.70156 9.23305 7.23288C9.70173 6.7642 10.3372 6.50057 11 6.49983H16C17.1931 6.50118 18.3369 6.97572 19.1805 7.81934C20.0241 8.66296 20.4986 9.80677 20.5 10.9998V11.7498Z" fill="black"/>
</svg>
