<svg width="24" height="24" viewBox="0 0 24 24" fill="none" xmlns="http://www.w3.org/2000/svg">
<path d="M14.983 7.3462C15.4618 7.34624 15.9299 7.20428 16.328 6.93829C16.7262 6.6723 17.0365 6.29421 17.2198 5.85185C17.403 5.40949 17.451 4.92271 17.3576 4.45309C17.2642 3.98346 17.0336 3.55208 16.6951 3.2135C16.3565 2.87491 15.9251 2.64433 15.4555 2.55091C14.9859 2.4575 14.4991 2.50544 14.0567 2.68869C13.6144 2.87193 13.2363 3.18224 12.9703 3.58037C12.7043 3.9785 12.5623 4.44657 12.5623 4.9254C12.5623 5.56741 12.8173 6.18314 13.2713 6.63712C13.7253 7.09111 14.341 7.34617 14.983 7.3462ZM14.983 3.8045C15.2047 3.8045 15.4214 3.87024 15.6057 3.9934C15.7901 4.11657 15.9337 4.29163 16.0186 4.49645C16.1034 4.70126 16.1256 4.92664 16.0824 5.14407C16.0391 5.36151 15.9324 5.56123 15.7756 5.71799C15.6188 5.87475 15.4191 5.98151 15.2017 6.02476C14.9842 6.06801 14.7589 6.04581 14.5541 5.96097C14.3492 5.87613 14.1742 5.73247 14.051 5.54813C13.9278 5.3638 13.8621 5.14709 13.8621 4.9254C13.8624 4.62822 13.9807 4.34331 14.1908 4.13318C14.4009 3.92304 14.6858 3.80484 14.983 3.8045ZM22.4662 16.1632C22.3313 15.4121 21.9369 14.7322 21.3519 14.2423C20.7668 13.7523 20.0282 13.4835 19.2651 13.4826C19.1821 13.4826 19.0979 13.4926 19.0139 13.4993C19.1057 13.1915 19.1525 12.8719 19.1528 12.5507C19.1528 12.1036 19.0647 11.661 18.8936 11.248C18.7225 10.835 18.4718 10.4597 18.1557 10.1436C17.8395 9.82749 17.4643 9.57675 17.0512 9.40569C16.6382 9.23462 16.1955 9.14658 15.7485 9.1466C15.1673 9.1489 14.5976 9.3087 14.1 9.609C13.719 9.20462 13.2594 8.88226 12.7494 8.66167C12.2394 8.44108 11.6898 8.32689 11.1342 8.3261C10.0364 8.32612 8.98364 8.76223 8.20741 9.53847C7.43118 10.3147 6.9951 11.3675 6.9951 12.4653C6.9951 12.5636 7.0087 12.6579 7.017 12.7537L2.0455 14.3332V22.9999L8.0455 20.9999H13.0455L22.0355 17.9768C22.234 17.9101 22.402 17.7742 22.5088 17.594C22.6155 17.4138 22.654 17.2012 22.6171 16.995L22.4662 16.1632ZM11.1345 9.6932C11.513 9.69438 11.8871 9.7742 12.2331 9.92759C12.5791 10.081 12.8895 10.3046 13.1445 10.5843L13.8424 11.2783L14.7133 10.8259C15.0212 10.6247 15.3804 10.5163 15.7482 10.5137C16.1188 10.5133 16.4826 10.614 16.8001 10.8052C17.1177 10.9963 17.377 11.2705 17.5502 11.5982C17.7233 11.926 17.8036 12.2947 17.7825 12.6648C17.7614 13.0348 17.6397 13.3921 17.4304 13.698L15.6079 13.9402C15.4468 13.4721 15.1438 13.0658 14.741 12.7779C14.3383 12.4899 13.8559 12.3347 13.3608 12.3336H8.3755C8.40844 11.6234 8.71329 10.9531 9.2269 10.4615C9.74051 9.96985 10.4235 9.69462 11.1345 9.6928V9.6932ZM21.1494 16.8332L12.8219 19.6332H8.335L8.291 19.6417L7.841 19.6925L7.5439 19.7266L7.2662 19.8192L3.4122 21.1037V15.333L8.553 13.6999H13.3611C13.6322 13.6999 13.8922 13.8076 14.0839 13.9993C14.2756 14.191 14.3833 14.451 14.3833 14.7221C14.3833 14.9932 14.2756 15.2532 14.0839 15.4449C13.8922 15.6366 13.6322 15.7443 13.3611 15.7443H9.7079V15.743H8.3412V17.111H13.3612C13.8911 17.1101 14.4056 16.9326 14.8235 16.6067C15.2413 16.2807 15.5385 15.8248 15.6683 15.311L18.9974 14.8685L19.0223 14.8652C19.1029 14.8549 19.184 14.8497 19.2652 14.8497C19.6463 14.8496 20.0183 14.9665 20.3307 15.1847C20.6432 15.4029 20.8811 15.7119 21.0122 16.0697C21.081 16.2582 21.1349 16.4518 21.1734 16.6487L21.1777 16.6807C21.177 16.7071 21.1755 16.8242 21.1494 16.833V16.8332Z" fill="black"/>
</svg>
