<svg width="24" height="24" viewBox="0 0 24 24" fill="none" xmlns="http://www.w3.org/2000/svg">
<path d="M14.9629 10.2063L11.9879 12.5347L8.82727 8.43323C8.48309 7.98657 8.04097 7.62486 7.53498 7.37597C7.02899 7.12708 6.47262 6.99765 5.90872 6.99765C5.34483 6.99765 4.78846 7.12708 4.28247 7.37597C3.77647 7.62486 3.33436 7.98657 2.99017 8.43323V22.0002H4.49017V16.0002H7.49017V22.0002H8.99017V11.0081L10.8345 13.4502C11.0667 13.7575 11.411 13.9605 11.7923 14.0148C12.1736 14.0692 12.5609 13.9705 12.8697 13.7402L14.9902 12.1602V22.0002H16.4902V16.0002H19.4902V22.0002H20.9902V10.1877C20.1265 9.52026 19.0649 9.15971 17.9733 9.16308C16.8818 9.16644 15.8225 9.53354 14.9629 10.2063ZM5.98997 5.24023C6.28664 5.24023 6.57665 5.15226 6.82333 4.98744C7.07 4.82262 7.26226 4.58835 7.37579 4.31426C7.48932 4.04017 7.51903 3.73857 7.46115 3.4476C7.40327 3.15663 7.26041 2.88935 7.05063 2.67957C6.84085 2.4698 6.57358 2.32693 6.28261 2.26906C5.99164 2.21118 5.69004 2.24088 5.41595 2.35442C5.14186 2.46795 4.90759 2.66021 4.74277 2.90688C4.57795 3.15355 4.48997 3.44356 4.48997 3.74023C4.48997 4.13806 4.64801 4.51959 4.92931 4.80089C5.21062 5.0822 5.59215 5.24023 5.98997 5.24023ZM17.99 7.36523C18.2866 7.36523 18.5767 7.27726 18.8233 7.11244C19.07 6.94762 19.2623 6.71335 19.3758 6.43926C19.4893 6.16517 19.519 5.86357 19.4612 5.5726C19.4033 5.28163 19.2604 5.01435 19.0506 4.80457C18.8409 4.5948 18.5736 4.45193 18.2826 4.39406C17.9916 4.33618 17.69 4.36588 17.4159 4.47942C17.1419 4.59295 16.9076 4.78521 16.7428 5.03188C16.5779 5.27855 16.49 5.56856 16.49 5.86523C16.4899 6.06223 16.5287 6.25731 16.6041 6.43932C16.6795 6.62133 16.79 6.78672 16.9292 6.92602C17.0685 7.06533 17.2339 7.17584 17.4159 7.25124C17.5979 7.32663 17.793 7.36544 17.99 7.36544V7.36523Z" fill="black"/>
</svg>
