<svg width="24" height="24" viewBox="0 0 24 24" fill="none" xmlns="http://www.w3.org/2000/svg">
<path d="M12 5.8499C12.5637 5.8499 13.1147 5.68275 13.5834 5.36959C14.0521 5.05643 14.4173 4.61132 14.6331 4.09055C14.8488 3.56978 14.9052 2.99674 14.7952 2.4439C14.6853 1.89105 14.4138 1.38323 14.0153 0.984649C13.6167 0.58607 13.1089 0.314633 12.556 0.204666C12.0032 0.0946977 11.4301 0.151137 10.9094 0.366847C10.3886 0.582557 9.94347 0.947848 9.63031 1.41653C9.31715 1.88521 9.15 2.43623 9.15 2.9999C9.15085 3.75551 9.45139 4.47993 9.98568 5.01422C10.52 5.54852 11.2444 5.84906 12 5.8499ZM12 1.9499C12.2077 1.9499 12.4107 2.01149 12.5833 2.12686C12.756 2.24224 12.8906 2.40622 12.9701 2.59809C13.0495 2.78995 13.0703 3.00107 13.0298 3.20475C12.9893 3.40843 12.8893 3.59552 12.7425 3.74237C12.5956 3.88921 12.4085 3.98921 12.2048 4.02973C12.0012 4.07024 11.79 4.04945 11.5982 3.96998C11.4063 3.89051 11.2423 3.75592 11.127 3.58325C11.0116 3.41058 10.95 3.20757 10.95 2.9999C10.9503 2.72152 11.061 2.45461 11.2579 2.25776C11.4547 2.06091 11.7216 1.95019 12 1.9499ZM17 9.1679L16.707 8.8749C15.4577 7.62824 13.7649 6.92809 12 6.92809C10.2351 6.92809 8.54228 7.62824 7.293 8.8749L7 9.1679V12.9999H17V9.1679ZM15.2 11.1999H8.8V9.9282C9.6865 9.15446 10.8233 8.72812 12 8.72812C13.1767 8.72812 14.3135 9.15446 15.2 9.9282V11.1999ZM20 18.0699C20.2604 18.0699 20.5149 17.9927 20.7314 17.8481C20.9479 17.7035 21.1166 17.4979 21.2163 17.2573C21.3159 17.0168 21.342 16.7521 21.2912 16.4967C21.2404 16.2414 21.1151 16.0068 20.931 15.8227C20.7469 15.6386 20.5123 15.5132 20.257 15.4624C20.0016 15.4116 19.7369 15.4377 19.4964 15.5373C19.2558 15.6369 19.0502 15.8057 18.9056 16.0221C18.7609 16.2386 18.6837 16.4931 18.6837 16.7535C18.6837 17.1026 18.8224 17.4374 19.0692 17.6843C19.3161 17.9312 19.6509 18.0699 20 18.0699ZM22.8242 20.3886C22.0746 19.6406 21.0589 19.2205 20 19.2205C18.9411 19.2205 17.9254 19.6406 17.1758 20.3886L17 20.5646V21.9999H23V20.5646L22.8242 20.3886ZM10.6837 16.7537C10.6837 17.014 10.7609 17.2685 10.9055 17.485C11.0502 17.7015 11.2558 17.8702 11.4963 17.9698C11.7368 18.0694 12.0015 18.0955 12.2568 18.0447C12.5121 17.9939 12.7467 17.8686 12.9308 17.6845C13.1149 17.5004 13.2402 17.2658 13.291 17.0105C13.3418 16.7552 13.3157 16.4905 13.2161 16.25C13.1165 16.0095 12.9478 15.8039 12.7313 15.6592C12.5148 15.5146 12.2603 15.4374 12 15.4374C11.6509 15.4374 11.3161 15.5761 11.0693 15.823C10.8224 16.0698 10.6837 16.4046 10.6837 16.7537ZM9.1758 20.3888L9 20.5646V21.9999H15V20.5646L14.8242 20.3888C14.0746 19.6408 13.0589 19.2207 12 19.2207C10.9411 19.2207 9.92538 19.6408 9.1758 20.3888ZM4 18.0699C4.26036 18.0699 4.51489 17.9927 4.73138 17.8481C4.94787 17.7035 5.11662 17.4979 5.21627 17.2573C5.31592 17.0168 5.342 16.7521 5.29122 16.4967C5.24044 16.2414 5.11507 16.0068 4.93097 15.8227C4.74687 15.6386 4.51231 15.5132 4.25695 15.4624C4.00159 15.4116 3.73691 15.4377 3.49636 15.5373C3.25581 15.6369 3.05021 15.8057 2.90556 16.0221C2.76091 16.2386 2.6837 16.4931 2.6837 16.7535C2.6837 17.1026 2.82238 17.4374 3.06923 17.6843C3.31608 17.9312 3.65089 18.0699 4 18.0699ZM1.1758 20.3888L1 20.5646V21.9999H7V20.5646L6.8242 20.3888C6.07462 19.6408 5.05893 19.2207 4 19.2207C2.94107 19.2207 1.92538 19.6408 1.1758 20.3888Z" fill="black"/>
</svg>
