<svg width="24" height="24" viewBox="0 0 24 24" fill="none" xmlns="http://www.w3.org/2000/svg">
<path d="M12.2917 5.24463C12.5884 5.24463 12.8784 5.15666 13.1251 4.99183C13.3717 4.82701 13.564 4.59274 13.6775 4.31865C13.791 4.04457 13.8208 3.74297 13.7629 3.45199C13.705 3.16102 13.5621 2.89375 13.3524 2.68397C13.1426 2.47419 12.8753 2.33133 12.5843 2.27345C12.2934 2.21557 11.9918 2.24528 11.7177 2.35881C11.4436 2.47234 11.2093 2.6646 11.0445 2.91127C10.8797 3.15795 10.7917 3.44796 10.7917 3.74463C10.7917 4.14245 10.9497 4.52398 11.231 4.80529C11.5123 5.08659 11.8939 5.24463 12.2917 5.24463ZM18.2559 15.0346C18.1152 14.8669 17.9395 14.7321 17.741 14.6397C17.5426 14.5473 17.3263 14.4995 17.1074 14.4998H15.3333V9.83313C15.3333 9.08169 15.0348 8.36103 14.5034 7.82968C13.9721 7.29834 13.2514 6.99983 12.5 6.99983H11.5C11.1022 6.99983 10.7206 7.15787 10.4393 7.43917C10.158 7.72047 10 8.10201 10 8.49983V14.9998C10 15.265 10.1054 15.5194 10.2929 15.7069C10.4804 15.8945 10.7348 15.9998 11 15.9998H17.1074L16.0583 21.9998H17.5819L18.5859 16.2576C18.6237 16.0421 18.6138 15.8209 18.5568 15.6097C18.4997 15.3984 18.397 15.2022 18.2559 15.035V15.0346ZM13.8333 14.4998H11.5V8.49983H12.5C12.8535 8.50023 13.1924 8.64083 13.4423 8.89078C13.6923 9.14074 13.8329 9.47964 13.8333 9.83313V14.4998ZM14.2822 17.9988H10.9668C10.181 17.998 9.42765 17.6854 8.87201 17.1298C8.31636 16.5742 8.0038 15.8208 8.0029 15.035V7.74883C8.0029 7.54992 7.92388 7.35915 7.78323 7.2185C7.64258 7.07785 7.45181 6.99883 7.2529 6.99883C7.05399 6.99883 6.86322 7.07785 6.72257 7.2185C6.58192 7.35915 6.5029 7.54992 6.5029 7.74883V15.035C6.50454 16.2184 6.97537 17.3529 7.81216 18.1896C8.64895 19.0264 9.78341 19.4972 10.9668 19.4988H14.2822C14.4811 19.4988 14.6719 19.4198 14.8125 19.2792C14.9532 19.1385 15.0322 18.9477 15.0322 18.7488C15.0322 18.5499 14.9532 18.3592 14.8125 18.2185C14.6719 18.0778 14.4811 17.9988 14.2822 17.9988Z" fill="black"/>
</svg>
