<svg width="24" height="24" viewBox="0 0 24 24" fill="none" xmlns="http://www.w3.org/2000/svg">
<path d="M19.8787 8.1211C20.0765 8.12112 20.2698 8.17979 20.4343 8.28968C20.5987 8.39957 20.7268 8.55574 20.8025 8.73846C20.8782 8.92119 20.898 9.12224 20.8594 9.31621C20.8208 9.51018 20.7256 9.68835 20.5857 9.8282L18.4143 11.9998L20.5859 14.1715C20.6788 14.2644 20.7524 14.3746 20.8027 14.4959C20.8529 14.6173 20.8788 14.7473 20.8788 14.8786C20.8788 15.01 20.8529 15.14 20.8027 15.2613C20.7524 15.3827 20.6787 15.4929 20.5859 15.5858C20.493 15.6786 20.3828 15.7523 20.2614 15.8025C20.1401 15.8528 20.0101 15.8786 19.8787 15.8786C19.7474 15.8786 19.6174 15.8528 19.4961 15.8025C19.3747 15.7522 19.2645 15.6786 19.1716 15.5857L16.5857 12.9998H7.41433L4.82863 15.5855C4.6411 15.773 4.38674 15.8784 4.12152 15.8784C3.85629 15.8784 3.60193 15.7731 3.41438 15.5856C3.22683 15.398 3.12146 15.1437 3.12145 14.8784C3.12144 14.6132 3.2268 14.3588 3.41433 14.1713L5.58573 11.9998L3.41413 9.8282C3.32127 9.73534 3.24761 9.62509 3.19736 9.50376C3.14711 9.38243 3.12125 9.25239 3.12125 9.12106C3.12126 8.85584 3.22663 8.60149 3.41418 8.41395C3.60173 8.22642 3.85609 8.12106 4.12132 8.12107C4.38654 8.12108 4.6409 8.22645 4.82843 8.414L7.41433 10.9998H16.5857L19.1714 8.4141C19.2642 8.32102 19.3744 8.24721 19.4958 8.19693C19.6172 8.14664 19.7473 8.12087 19.8787 8.1211ZM19.8787 6.1211C19.4847 6.1206 19.0944 6.19796 18.7303 6.34876C18.3663 6.49956 18.0356 6.72081 17.7573 6.9998L15.7573 8.9998H8.24273L6.24273 6.9998C5.68013 6.43718 4.91707 6.1211 4.12142 6.12109C3.32576 6.12108 2.5627 6.43715 2.00008 6.99975C1.43746 7.56235 1.12138 8.32541 1.12137 9.12106C1.12136 9.91672 1.43743 10.6798 2.00003 11.2424L2.75733 11.9998L2.00003 12.7571C1.43741 13.3197 1.12134 14.0828 1.12134 14.8785C1.12134 15.6741 1.43741 16.4372 2.00003 16.9998C2.56265 17.5624 3.32572 17.8785 4.12138 17.8785C4.91704 17.8785 5.68011 17.5624 6.24273 16.9998L8.24273 14.9998H15.7573L17.7573 16.9998C18.3199 17.5624 19.083 17.8785 19.8787 17.8785C20.6743 17.8785 21.4374 17.5624 22 16.9998C22.5626 16.4372 22.8787 15.6741 22.8787 14.8785C22.8787 14.0828 22.5626 13.3197 22 12.7571L21.2427 11.9998L22 11.2424C22.4196 10.8228 22.7053 10.2883 22.821 9.70636C22.9368 9.12442 22.8774 8.52123 22.6503 7.97306C22.4233 7.42488 22.0388 6.95635 21.5454 6.6267C21.0521 6.29706 20.4721 6.12111 19.8787 6.1211Z" fill="#231F20"/>
</svg>
