<svg width="24" height="24" viewBox="0 0 24 24" fill="none" xmlns="http://www.w3.org/2000/svg">
<path d="M5.4826 9.5C6.07594 9.5 6.65596 9.32405 7.14931 8.99441C7.64266 8.66477 8.02717 8.19623 8.25424 7.64805C8.4813 7.09987 8.54071 6.49667 8.42496 5.91473C8.3092 5.33279 8.02348 4.79824 7.60392 4.37868C7.18436 3.95912 6.64981 3.6734 6.06787 3.55765C5.48593 3.44189 4.88273 3.5013 4.33455 3.72836C3.78637 3.95543 3.31784 4.33994 2.98819 4.83329C2.65855 5.32664 2.4826 5.90666 2.4826 6.5C2.48358 7.29535 2.79996 8.05784 3.36236 8.62024C3.92476 9.18264 4.68725 9.49902 5.4826 9.5ZM5.4826 11.701C4.50173 11.6993 3.53018 11.8914 2.62376 12.2662C1.71735 12.6411 0.893926 13.1914 0.2008 13.8854L0 14.0862V20H10.9651V14.0862L10.7644 13.8854C10.0713 13.1914 9.24785 12.6411 8.34143 12.2663C7.43502 11.8914 6.46347 11.6993 5.4826 11.701ZM18.4826 9.5C19.0759 9.5 19.656 9.32405 20.1493 8.99441C20.6427 8.66477 21.0272 8.19623 21.2542 7.64805C21.4813 7.09987 21.5407 6.49667 21.425 5.91473C21.3092 5.33279 21.0235 4.79824 20.6039 4.37868C20.1844 3.95912 19.6498 3.6734 19.0679 3.55765C18.4859 3.44189 17.8827 3.5013 17.3345 3.72836C16.7864 3.95543 16.3178 4.33994 15.9882 4.83329C15.6585 5.32664 15.4826 5.90666 15.4826 6.5C15.4836 7.29535 15.8 8.05784 16.3624 8.62024C16.9248 9.18264 17.6873 9.49902 18.4826 9.5ZM23.7644 13.8854C22.3625 12.4866 20.463 11.701 18.4826 11.701C16.5022 11.701 14.6027 12.4866 13.2008 13.8854L13 14.0862V20H23.9651V14.0862L23.7644 13.8854Z" fill="black"/>
</svg>
