<svg width="24" height="24" viewBox="0 0 24 24" fill="none" xmlns="http://www.w3.org/2000/svg">
<path d="M14.9629 10.2063L11.9879 12.5347L8.82727 8.43323C8.48309 7.98657 8.04097 7.62486 7.53498 7.37597C7.02899 7.12708 6.47262 6.99765 5.90872 6.99765C5.34483 6.99765 4.78846 7.12708 4.28247 7.37597C3.77647 7.62486 3.33436 7.98657 2.99017 8.43323V22.0002H4.99017V16.0002H6.99017V22.0002H8.99017V11.5576L10.6852 13.8022C10.957 14.1621 11.3602 14.3999 11.8067 14.4636C12.2532 14.5273 12.7067 14.4118 13.0684 14.1422L14.99 12.7102V22.0002H16.99V16.0002H18.99V22.0002H20.99V10.1877C20.1263 9.52031 19.0648 9.15978 17.9732 9.16315C16.8817 9.16652 15.8224 9.53359 14.9629 10.2063ZM5.98997 5.49023C6.33609 5.49023 6.67444 5.3876 6.96222 5.19531C7.25001 5.00301 7.47431 4.7297 7.60676 4.40993C7.73922 4.09016 7.77387 3.73829 7.70635 3.39883C7.63882 3.05936 7.47215 2.74754 7.22741 2.5028C6.98267 2.25806 6.67085 2.09139 6.33138 2.02386C5.99191 1.95634 5.64005 1.99099 5.32028 2.12345C5.00051 2.2559 4.72719 2.4802 4.5349 2.76799C4.34261 3.05577 4.23997 3.39412 4.23997 3.74024C4.23997 4.20436 4.42435 4.64948 4.75254 4.97767C5.08072 5.30586 5.52584 5.49023 5.98997 5.49023ZM17.99 7.64644C18.3361 7.64644 18.6744 7.5438 18.9622 7.35151C19.25 7.15921 19.4743 6.8859 19.6068 6.56613C19.7392 6.24636 19.7739 5.89449 19.7063 5.55503C19.6388 5.21556 19.4722 4.90374 19.2274 4.659C18.9827 4.41426 18.6708 4.24759 18.3314 4.18006C17.9919 4.11254 17.64 4.14719 17.3203 4.27965C17.0005 4.4121 16.7272 4.6364 16.5349 4.92419C16.3426 5.21197 16.24 5.55032 16.24 5.89644C16.2399 6.12627 16.2852 6.35385 16.3731 6.56619C16.4611 6.77854 16.59 6.97148 16.7525 7.134C16.915 7.29653 17.1079 7.42545 17.3202 7.51341C17.5326 7.60136 17.7601 7.64664 17.99 7.64664V7.64644Z" fill="black"/>
</svg>
