<svg width="24" height="24" viewBox="0 0 24 24" fill="none" xmlns="http://www.w3.org/2000/svg">
<path d="M12 6.7708C11.4067 6.7708 10.8266 6.94675 10.3333 7.27639C9.83994 7.60604 9.45542 8.07457 9.22836 8.62275C9.0013 9.17093 8.94189 9.77413 9.05764 10.3561C9.1734 10.938 9.45912 11.4726 9.87868 11.8921C10.2982 12.3117 10.8328 12.5974 11.4147 12.7132C11.9967 12.8289 12.5999 12.7695 13.1481 12.5424C13.6962 12.3154 14.1648 11.9309 14.4944 11.4375C14.8241 10.9442 15 10.3641 15 9.7708C15 8.97515 14.6839 8.21209 14.1213 7.64948C13.5587 7.08687 12.7956 6.7708 12 6.7708ZM12 11.4708C11.6638 11.4708 11.3351 11.3711 11.0555 11.1843C10.776 10.9975 10.5581 10.732 10.4294 10.4214C10.3007 10.1107 10.2671 9.76891 10.3327 9.43915C10.3983 9.10938 10.5602 8.80647 10.7979 8.56872C11.0357 8.33097 11.3386 8.16906 11.6683 8.10347C11.9981 8.03787 12.3399 8.07154 12.6506 8.2002C12.9612 8.32887 13.2267 8.54677 13.4135 8.82633C13.6003 9.10589 13.7 9.43457 13.7 9.7708C13.6995 10.2215 13.5202 10.6536 13.2015 10.9723C12.8828 11.291 12.4507 11.4703 12 11.4708ZM18 3H6C5.20435 3 4.44129 3.31607 3.87868 3.87868C3.31607 4.44129 3 5.20435 3 6V18C3 18.7956 3.31607 19.5587 3.87868 20.1213C4.44129 20.6839 5.20435 21 6 21H18C18.7956 21 19.5587 20.6839 20.1213 20.1213C20.6839 19.5587 21 18.7956 21 18V6C21 5.20435 20.6839 4.44129 20.1213 3.87868C19.5587 3.31607 18.7956 3 18 3ZM15.5029 19.5H8.4971V17.01C9.46189 16.1513 10.7084 15.677 12 15.677C13.2916 15.677 14.5381 16.1513 15.5029 17.01V19.5ZM19.5 18C19.4995 18.3977 19.3414 18.779 19.0602 19.0602C18.779 19.3414 18.3977 19.4995 18 19.5H17.0029V16.376L16.7829 16.156C15.5131 14.8896 13.793 14.1785 11.9997 14.1785C10.2064 14.1785 8.48625 14.8896 7.2165 16.156L6.9965 16.376V19.5H6C5.60231 19.4995 5.22104 19.3414 4.93984 19.0602C4.65863 18.779 4.50045 18.3977 4.5 18V6C4.50045 5.60231 4.65863 5.22104 4.93984 4.93984C5.22104 4.65863 5.60231 4.50045 6 4.5H18C18.3977 4.50045 18.779 4.65863 19.0602 4.93984C19.3414 5.22104 19.4995 5.60231 19.5 6V18Z" fill="black"/>
</svg>
