<svg width="24" height="24" viewBox="0 0 24 24" fill="none" xmlns="http://www.w3.org/2000/svg">
<path d="M12 10.43C12.7582 10.43 13.4994 10.2052 14.1298 9.78396C14.7602 9.36274 15.2516 8.76402 15.5417 8.06354C15.8319 7.36306 15.9078 6.59226 15.7598 5.84864C15.6119 5.10502 15.2468 4.42196 14.7106 3.88586C14.1745 3.34975 13.4914 2.98468 12.7478 2.8368C12.0041 2.68893 11.2333 2.76489 10.5329 3.05509C9.83241 3.34529 9.23373 3.83669 8.81256 4.46714C8.39138 5.0976 8.16662 5.83879 8.1667 6.59699C8.16797 7.61322 8.57225 8.58747 9.29087 9.30603C10.0095 10.0246 10.9838 10.4288 12 10.43ZM12 3.76329C12.5604 3.76327 13.1082 3.92942 13.5741 4.24073C14.0401 4.55204 14.4033 4.99453 14.6178 5.51225C14.8322 6.02997 14.8884 6.59966 14.7791 7.14928C14.6698 7.69891 14.4 8.20378 14.0038 8.60006C13.6075 8.99634 13.1027 9.26623 12.5531 9.3756C12.0035 9.48497 11.4338 9.42891 10.916 9.2145C10.3983 9.0001 9.95575 8.63698 9.64437 8.17107C9.33299 7.70515 9.16676 7.15737 9.1667 6.59699C9.16757 5.84582 9.46636 5.12566 9.99752 4.5945C10.5287 4.06335 11.2488 3.76456 12 3.76369V3.76329ZM19.707 15.591C18.2116 14.0946 16.3105 13.0693 14.2386 12.6419L12 16.0759L9.7614 12.6423C7.68955 13.0698 5.78841 14.095 4.293 15.5914L4 15.8844V21H20V15.8844L19.707 15.591ZM19 20H5V16.3029C5.0111 16.2929 5.12 16.185 5.1312 16.175C6.31137 15.0295 7.7636 14.2033 9.3512 13.7739L10.5172 15.5372L11.5551 17.1109L12 17.783L12.45 17.105L13.4763 15.5485L14.6492 13.7739C16.2368 14.2032 17.6891 15.0295 18.8692 16.175C18.8805 16.185 18.9892 16.2928 19.0004 16.3029L19 20Z" fill="black"/>
</svg>
