<svg width="24" height="24" viewBox="0 0 24 24" fill="none" xmlns="http://www.w3.org/2000/svg">
<path d="M12.2917 5.49463C12.6378 5.49463 12.9762 5.39199 13.2639 5.1997C13.5517 5.00741 13.776 4.7341 13.9085 4.41433C14.0409 4.09455 14.0756 3.74269 14.0081 3.40322C13.9405 3.06375 13.7739 2.75193 13.5291 2.50719C13.2844 2.26245 12.9726 2.09578 12.6331 2.02826C12.2936 1.96073 11.9418 1.99539 11.622 2.12784C11.3022 2.26029 11.0289 2.4846 10.8366 2.77238C10.6443 3.06017 10.5417 3.39851 10.5417 3.74463C10.5417 4.20876 10.7261 4.65388 11.0543 4.98207C11.3825 5.31026 11.8276 5.49463 12.2917 5.49463ZM14.5217 17.9881H11.5C10.5721 17.987 9.68249 17.6179 9.02635 16.9618C8.37022 16.3056 8.00111 15.416 8 14.4881V7.48813C8 7.35552 7.94732 7.22834 7.85355 7.13458C7.75979 7.04081 7.63261 6.98813 7.5 6.98813C7.36739 6.98813 7.24021 7.04081 7.14645 7.13458C7.05268 7.22834 7 7.35552 7 7.48813V14.4881C7.00132 15.6812 7.47585 16.825 8.31948 17.6686C9.16311 18.5123 10.3069 18.9868 11.5 18.9881H14.5215C14.6541 18.9881 14.7813 18.9355 14.8751 18.8417C14.9688 18.7479 15.0215 18.6207 15.0215 18.4881C15.0215 18.3555 14.9688 18.2283 14.8751 18.1346C14.7813 18.0408 14.6541 17.9881 14.5215 17.9881H14.5217ZM16.6191 13.9998H14.6641V9.33313C14.6641 8.71429 14.4182 8.12081 13.9806 7.68323C13.543 7.24566 12.9495 6.99983 12.3307 6.99983H11.3666C11.0042 6.99986 10.6566 7.14385 10.4003 7.40013C10.144 7.65641 10 8.00399 10 8.36643V14.3331C10 14.7752 10.1756 15.1991 10.4882 15.5117C10.8007 15.8242 11.2247 15.9998 11.6667 15.9998H16.6191V21.9998H18.6191V15.9998C18.6184 15.4696 18.4075 14.9613 18.0326 14.5864C17.6576 14.2115 17.1493 14.0005 16.6191 13.9998Z" fill="black"/>
</svg>
