<svg width="24" height="24" viewBox="0 0 24 24" fill="none" xmlns="http://www.w3.org/2000/svg">
<path d="M5.459 8.27539C5.80512 8.27539 6.14346 8.17276 6.43125 7.98046C6.71903 7.78817 6.94334 7.51486 7.07579 7.19509C7.20824 6.87532 7.2429 6.52345 7.17537 6.18398C7.10785 5.84452 6.94118 5.5327 6.69644 5.28795C6.4517 5.04321 6.13987 4.87654 5.80041 4.80902C5.46094 4.74149 5.10907 4.77615 4.7893 4.9086C4.46953 5.04106 4.19622 5.26536 4.00393 5.55314C3.81164 5.84093 3.709 6.17927 3.709 6.52539C3.709 6.98952 3.89337 7.43464 4.22156 7.76283C4.54975 8.09102 4.99487 8.27539 5.459 8.27539ZM5.459 5.27539C5.70623 5.27539 5.9479 5.3487 6.15346 5.48605C6.35902 5.62341 6.51924 5.81863 6.61385 6.04704C6.70846 6.27544 6.73321 6.52678 6.68498 6.76925C6.63675 7.01173 6.5177 7.23446 6.34288 7.40927C6.16807 7.58409 5.94534 7.70314 5.70286 7.75137C5.46039 7.7996 5.20905 7.77485 4.98065 7.68024C4.75224 7.58563 4.55701 7.42542 4.41966 7.21985C4.28231 7.01429 4.209 6.77262 4.209 6.52539C4.20937 6.19398 4.34119 5.87626 4.57553 5.64192C4.80987 5.40758 5.12759 5.27576 5.459 5.27539ZM21 13.3484V11.7052C21 10.5297 20.5859 9.39174 19.8303 8.49123C19.0747 7.59072 18.026 6.98523 16.8683 6.78109L11.8834 5.90219C11.4954 5.83333 11.0976 5.84168 10.7128 5.92676C10.328 6.01185 9.96377 6.17199 9.64095 6.39804C9.31814 6.62408 9.04308 6.91158 8.83153 7.24407C8.61998 7.57656 8.47609 7.94751 8.4081 8.33569L7.9306 11.0439L1.0369 9.82829L0.95 10.3208L4 10.8585V17.9999H20V13.6799L21 13.8562L22.6158 14.1411L22.7026 13.6487L21 13.3484ZM19.5 17.4999H4.5V10.9599L19.5 13.5916V17.4999ZM20.5 13.2599L20 13.1717L19.9907 13.17L8.423 11.1307L8.9005 8.42249C9.00139 7.84368 9.30333 7.31905 9.75311 6.94103C10.2029 6.56301 10.7717 6.35587 11.3592 6.35609C11.5058 6.35622 11.6522 6.36911 11.7966 6.39459L16.7814 7.27359C17.8239 7.45608 18.7685 8.00066 19.4487 8.81137C20.129 9.62207 20.5013 10.6469 20.5 11.7052V13.2599Z" fill="black"/>
</svg>
