<svg width="24" height="24" viewBox="0 0 24 24" fill="none" xmlns="http://www.w3.org/2000/svg">
<path d="M22.5 3V18H24V3H22.5ZM0 18H1.5V3H0V18ZM6.3125 9.875C6.59681 9.875 6.87474 9.79069 7.11113 9.63274C7.34753 9.47478 7.53178 9.25028 7.64058 8.98761C7.74938 8.72494 7.77784 8.43591 7.72238 8.15706C7.66691 7.87821 7.53 7.62207 7.32897 7.42103C7.12793 7.22 6.87179 7.08309 6.59294 7.02762C6.31409 6.97216 6.02506 7.00062 5.76239 7.10942C5.49972 7.21822 5.27522 7.40247 5.11726 7.63887C4.95931 7.87526 4.875 8.15319 4.875 8.4375C4.875 8.81875 5.02645 9.18438 5.29603 9.45397C5.56562 9.72355 5.93125 9.875 6.3125 9.875ZM19.6667 11.1666C19.6667 10.0615 19.2277 9.00175 18.4463 8.22036C17.6649 7.43898 16.6051 7 15.5 7H11C10.3812 7 9.78769 7.24583 9.35011 7.68341C8.91253 8.12099 8.6667 8.71447 8.6667 9.3333V11.25H3.3333V12.75H5.6667V18H18.3333V12.75H20.6667V11.25H19.6667V11.1666ZM16.8333 16.5H7.1667V12.75H16.8333V16.5ZM10.1667 11.25V10.2327C10.1667 9.7733 10.5405 8.5 11 8.5H15.5C16.1924 8.50074 16.8574 8.77059 17.3545 9.25256C17.8516 9.73452 18.1419 10.3909 18.1641 11.0829C18.1658 11.1106 18.1667 11.2219 18.1667 11.25H10.1667Z" fill="black"/>
</svg>
