<svg width="24" height="24" viewBox="0 0 24 24" fill="none" xmlns="http://www.w3.org/2000/svg">
<path d="M12.2917 5.49463C12.6378 5.49463 12.9762 5.39199 13.2639 5.1997C13.5517 5.00741 13.776 4.7341 13.9085 4.41433C14.0409 4.09455 14.0756 3.74269 14.0081 3.40322C13.9405 3.06375 13.7739 2.75193 13.5291 2.50719C13.2844 2.26245 12.9726 2.09578 12.6331 2.02826C12.2936 1.96073 11.9418 1.99539 11.622 2.12784C11.3022 2.26029 11.0289 2.4846 10.8366 2.77238C10.6443 3.06017 10.5417 3.39851 10.5417 3.74463C10.5417 4.20876 10.7261 4.65388 11.0543 4.98207C11.3825 5.31026 11.8276 5.49463 12.2917 5.49463ZM18.3417 14.7137C18.1543 14.4898 17.9201 14.3098 17.6555 14.1865C17.3909 14.0631 17.1024 13.9994 16.8105 13.9998H15.5V9.99983C15.5 9.20418 15.1839 8.44112 14.6213 7.87851C14.0587 7.3159 13.2956 6.99983 12.5 6.99983H11.5C11.1022 6.99983 10.7206 7.15787 10.4393 7.43917C10.158 7.72047 10 8.10201 10 8.49983V14.9998C10 15.265 10.1054 15.5194 10.2929 15.7069C10.4804 15.8945 10.7348 15.9998 11 15.9998H16.81L15.7613 21.9998H17.7921L18.7807 16.3445C18.8312 16.0571 18.818 15.7622 18.7422 15.4804C18.6663 15.1987 18.5297 14.937 18.3418 14.7137H18.3417ZM13.5 13.9998H12V8.99983H12.5C12.7651 9.00012 13.0193 9.10557 13.2068 9.29304C13.3943 9.48052 13.4997 9.7347 13.5 9.99983V13.9998ZM13.6875 17.9998H11C10.2046 17.999 9.44206 17.6826 8.87964 17.1202C8.31722 16.5578 8.00087 15.7952 8 14.9998V7.99983C8 7.73461 7.89464 7.48026 7.70711 7.29272C7.51957 7.10519 7.26522 6.99983 7 6.99983C6.73478 6.99983 6.48043 7.10519 6.29289 7.29272C6.10536 7.48026 6 7.73461 6 7.99983V14.9998C6.00156 16.3254 6.52885 17.5963 7.46619 18.5336C8.40353 19.471 9.6744 19.9983 11 19.9998H13.6875C13.9527 19.9998 14.2071 19.8945 14.3946 19.7069C14.5821 19.5194 14.6875 19.265 14.6875 18.9998C14.6875 18.7346 14.5821 18.4803 14.3946 18.2927C14.2071 18.1052 13.9527 17.9998 13.6875 17.9998Z" fill="black"/>
</svg>
