<svg width="24" height="24" viewBox="0 0 24 24" fill="none" xmlns="http://www.w3.org/2000/svg">
<path d="M21.791 16.916L21.084 16.209L19 18.293L16.916 16.209L16.209 16.916L18.293 19L16.209 21.084L16.916 21.791L19 19.707L21.084 21.791L21.791 21.084L19.707 19L21.791 16.916ZM9.6045 1.00003C7.58834 1.00222 5.65538 1.80412 4.22973 3.22976C2.80409 4.65541 2.0022 6.58836 2 8.60453V19.1719C2.00003 19.9291 2.22456 20.6692 2.64522 21.2987C3.06587 21.9283 3.66375 22.4189 4.36326 22.7087C5.06276 22.9984 5.83248 23.0742 6.57508 22.9266C7.31767 22.7789 7.9998 22.4143 8.5352 21.8789L13.4111 17.0029C14.5525 15.8678 15.4574 14.5176 16.0734 13.0304C16.6894 11.5432 17.0044 9.94864 17 8.33893C16.9903 6.38569 16.2063 4.51606 14.8198 3.14021C13.4334 1.76436 11.5577 0.994681 9.6045 1.00003ZM13.1475 11.7324L12.2139 11.3711C12.5902 10.3964 12.7822 9.36026 12.78 8.31543C12.7706 7.478 12.4295 6.67847 11.8315 6.09213C11.2335 5.50579 10.4275 5.18049 9.59 5.18753C8.68412 5.18869 7.81568 5.54907 7.17514 6.18964C6.53459 6.8302 6.17424 7.69865 6.1731 8.60453V12.001L7.335 13.1631C7.68827 13.5162 7.92889 13.9662 8.02643 14.4561C8.12397 14.9459 8.07405 15.4537 7.88298 15.9152C7.69191 16.3768 7.36828 16.7712 6.95301 17.0488C6.53774 17.3264 6.04949 17.4746 5.55 17.4746H5.1416V16.4746H5.55C5.85172 16.4748 6.1467 16.3855 6.39761 16.2179C6.64851 16.0503 6.84406 15.8121 6.9595 15.5333C7.07493 15.2546 7.10506 14.9478 7.04606 14.6519C6.98707 14.356 6.84161 14.0843 6.6281 13.8711L5.1729 12.415V8.60503C5.17406 7.43386 5.6398 6.31099 6.4679 5.48281C7.296 4.65463 8.41883 4.1888 9.59 4.18753C10.6926 4.18065 11.7529 4.61137 12.5384 5.38521C13.3239 6.15905 13.7704 7.21283 13.78 8.31543C13.7822 9.48373 13.5677 10.6423 13.1475 11.7324Z" fill="black"/>
</svg>
