<svg width="24" height="24" viewBox="0 0 24 24" fill="none" xmlns="http://www.w3.org/2000/svg">
<path d="M12 5.5C12.3461 5.5 12.6845 5.39737 12.9722 5.20507C13.26 5.01278 13.4843 4.73947 13.6168 4.4197C13.7492 4.09993 13.7839 3.74806 13.7164 3.40859C13.6489 3.06913 13.4822 2.75731 13.2374 2.51256C12.9927 2.26782 12.6809 2.10115 12.3414 2.03363C12.0019 1.9661 11.6501 2.00076 11.3303 2.13321C11.0105 2.26566 10.7372 2.48997 10.5449 2.77775C10.3526 3.06554 10.25 3.40388 10.25 3.75C10.25 4.21413 10.4344 4.65925 10.7626 4.98744C11.0908 5.31563 11.5359 5.5 12 5.5ZM2 7V7.9413C1.99999 8.09304 2.05748 8.23915 2.16089 8.3502C2.2643 8.46126 2.40594 8.529 2.5573 8.5398L9 9V23H11V15H13V23H15V9L21.4427 8.54C21.5941 8.5292 21.7358 8.46142 21.8392 8.35033C21.9426 8.23924 22.0001 8.09308 22 7.9413V7H2Z" fill="black"/>
</svg>
