<svg width="24" height="24" viewBox="0 0 24 24" fill="none" xmlns="http://www.w3.org/2000/svg">
<path d="M2.86047 9.22836V14.9999H3.86047V19.9999H7.95347V14.9999H8.95347V9.22836C8.5534 8.82829 8.07845 8.51093 7.55573 8.29442C7.03301 8.0779 6.47276 7.96646 5.90697 7.96646C5.34119 7.96646 4.78094 8.0779 4.25822 8.29442C3.7355 8.51093 3.26055 8.82829 2.86047 9.22836ZM8.05347 14.0999H7.05347V19.0999H4.76057V14.0999H3.76057V9.62676C4.3678 9.13486 5.12556 8.86645 5.90702 8.86645C6.68849 8.86645 7.44625 9.13486 8.05347 9.62676V14.0999ZM18.0935 7.96646C17.5276 7.96575 16.9671 8.07686 16.4443 8.29342C15.9215 8.50997 15.4466 8.82771 15.047 9.22836V14.9999H16.047V19.9999H20.14V14.9999H21.14V9.22836C20.7403 8.82765 20.2653 8.50988 19.7424 8.29332C19.2195 8.07676 18.659 7.96568 18.093 7.96646H18.0935ZM20.2394 14.0999H19.2394V19.0999H16.9465V14.0999H15.9465V9.62676C16.5537 9.13486 17.3115 8.86645 18.0929 8.86645C18.8744 8.86645 19.6321 9.13486 20.2394 9.62676V14.0999ZM18.093 7.13916C18.4391 7.13916 18.7774 7.03653 19.0652 6.84423C19.353 6.65194 19.5773 6.37863 19.7098 6.05886C19.8422 5.73909 19.8769 5.38722 19.8093 5.04775C19.7418 4.70829 19.5752 4.39647 19.3304 4.15172C19.0857 3.90698 18.7738 3.74031 18.4344 3.67279C18.0949 3.60526 17.743 3.63992 17.4233 3.77237C17.1035 3.90483 16.8302 4.12913 16.6379 4.41691C16.4456 4.7047 16.343 5.04304 16.343 5.38916C16.343 5.85329 16.5273 6.29841 16.8555 6.6266C17.1837 6.95479 17.6288 7.13916 18.093 7.13916ZM18.093 4.48916C18.271 4.48916 18.445 4.54195 18.593 4.64084C18.741 4.73973 18.8563 4.88029 18.9245 5.04475C18.9926 5.2092 19.0104 5.39016 18.9757 5.56474C18.941 5.73933 18.8552 5.89969 18.7294 6.02556C18.6035 6.15142 18.4431 6.23714 18.2686 6.27187C18.094 6.30659 17.913 6.28877 17.7486 6.22065C17.5841 6.15253 17.4435 6.03718 17.3447 5.88917C17.2458 5.74117 17.193 5.56716 17.193 5.38916C17.1933 5.15056 17.2882 4.92181 17.4569 4.75309C17.6256 4.58437 17.8544 4.48945 18.093 4.48916ZM5.90697 7.13916C6.25309 7.13916 6.59144 7.03653 6.87922 6.84423C7.16701 6.65194 7.39131 6.37863 7.52376 6.05886C7.65622 5.73909 7.69087 5.38722 7.62335 5.04775C7.55582 4.70829 7.38915 4.39647 7.14441 4.15172C6.89967 3.90698 6.58785 3.74031 6.24838 3.67279C5.90891 3.60526 5.55705 3.63992 5.23728 3.77237C4.91751 3.90483 4.64419 4.12913 4.4519 4.41691C4.25961 4.7047 4.15697 5.04304 4.15697 5.38916C4.15697 5.85329 4.34135 6.29841 4.66954 6.6266C4.99773 6.95479 5.44284 7.13916 5.90697 7.13916ZM5.90697 4.48916C6.08498 4.48916 6.25898 4.54195 6.40699 4.64084C6.55499 4.73973 6.67035 4.88029 6.73847 5.04475C6.80658 5.2092 6.82441 5.39016 6.78968 5.56474C6.75495 5.73933 6.66924 5.89969 6.54337 6.02556C6.4175 6.15142 6.25714 6.23714 6.08256 6.27187C5.90797 6.30659 5.72701 6.28877 5.56256 6.22065C5.3981 6.15253 5.25754 6.03718 5.15865 5.88917C5.05976 5.74117 5.00697 5.56716 5.00697 5.38916C5.00726 5.15056 5.10218 4.92181 5.2709 4.75309C5.43962 4.58437 5.66837 4.48945 5.90697 4.48916Z" fill="black"/>
</svg>
