<svg width="24" height="24" viewBox="0 0 24 24" fill="none" xmlns="http://www.w3.org/2000/svg">
<path d="M12 2C10.0222 2 8.08879 2.58649 6.4443 3.6853C4.79981 4.78412 3.51809 6.3459 2.76121 8.17317C2.00433 10.0004 1.8063 12.0111 2.19215 13.9509C2.578 15.8907 3.53041 17.6725 4.92894 19.0711C6.32746 20.4696 8.10929 21.422 10.0491 21.8079C11.9889 22.1937 13.9996 21.9957 15.8268 21.2388C17.6541 20.4819 19.2159 19.2002 20.3147 17.5557C21.4135 15.9112 22 13.9778 22 12C22 10.6868 21.7413 9.38642 21.2388 8.17317C20.7363 6.95991 19.9997 5.85752 19.0711 4.92893C18.1425 4.00035 17.0401 3.26375 15.8268 2.7612C14.6136 2.25866 13.3132 2 12 2ZM12 5.7291C12.5933 5.7291 13.1734 5.90505 13.6667 6.23469C14.1601 6.56434 14.5446 7.03287 14.7716 7.58105C14.9987 8.12923 15.0581 8.73243 14.9424 9.31437C14.8266 9.89631 14.5409 10.4309 14.1213 10.8504C13.7018 11.27 13.1672 11.5557 12.5853 11.6715C12.0033 11.7872 11.4001 11.7278 10.852 11.5007C10.3038 11.2737 9.83524 10.8892 9.5056 10.3958C9.17595 9.90246 9 9.32244 9 8.7291C9 7.93345 9.31607 7.17039 9.87868 6.60778C10.4413 6.04517 11.2044 5.7291 12 5.7291ZM6.5 15.998C7.22227 15.2757 8.07973 14.7028 9.02342 14.3119C9.96711 13.921 10.9786 13.7198 12 13.7198C13.0215 13.7198 14.0329 13.921 14.9766 14.3119C15.9203 14.7028 16.7777 15.2757 17.5 15.998V17.7944C16.0189 19.2101 14.0489 20.0001 12 20.0001C9.95112 20.0001 7.98114 19.2101 6.5 17.7944V15.998Z" fill="black"/>
</svg>
