<svg width="24" height="24" viewBox="0 0 24 24" fill="none" xmlns="http://www.w3.org/2000/svg">
<path d="M15.5635 3.99902C16.177 5.0638 16.5 6.27112 16.5 7.50002C16.5 8.72892 16.177 9.93624 15.5635 11.001L16.4287 11.501C17.1305 10.2844 17.5 8.90457 17.5 7.50002C17.5 6.09548 17.1305 4.71564 16.4287 3.49902L15.5635 3.99902ZM19.8935 1.49902L19.0282 1.99902C19.9924 3.67203 20.4999 5.56907 20.4999 7.50002C20.4999 9.43098 19.9924 11.328 19.0282 13.001L19.8935 13.501C20.9459 11.6762 21.4999 9.60661 21.4999 7.50002C21.4999 5.39344 20.9459 3.32389 19.8935 1.49902ZM9.875 10.6875C10.5054 10.6875 11.1217 10.5006 11.6459 10.1503C12.1701 9.80009 12.5786 9.30227 12.8199 8.71983C13.0611 8.13739 13.1242 7.49649 13.0013 6.87817C12.8783 6.25986 12.5747 5.6919 12.1289 5.24612C11.6831 4.80034 11.1152 4.49676 10.4969 4.37377C9.87854 4.25078 9.23764 4.3139 8.6552 4.55516C8.07276 4.79641 7.57494 5.20496 7.22469 5.72914C6.87444 6.25332 6.6875 6.8696 6.6875 7.50002C6.68853 8.34508 7.02469 9.15524 7.62224 9.75279C8.21979 10.3503 9.02994 10.6865 9.875 10.6875ZM9.875 13.2346C8.77922 13.2327 7.69386 13.4472 6.68124 13.866C5.66862 14.2847 4.74869 14.8993 3.9743 15.6746L3.75 15.899V21H16V15.8994L15.7757 15.675C15.0013 14.8997 14.0814 14.2849 13.0688 13.8661C12.0562 13.4473 10.9708 13.2327 9.875 13.2346Z" fill="black"/>
</svg>
