<svg width="24" height="24" viewBox="0 0 24 24" fill="none" xmlns="http://www.w3.org/2000/svg">
<path d="M14.983 7.13619C15.474 7.13619 15.9539 6.9906 16.3622 6.71782C16.7704 6.44505 17.0886 6.05734 17.2764 5.60374C17.4643 5.15013 17.5135 4.651 17.4177 4.16946C17.3219 3.68792 17.0855 3.2456 16.7383 2.89843C16.3911 2.55126 15.9488 2.31485 15.4672 2.21907C14.9857 2.1233 14.4866 2.17248 14.033 2.36038C13.5794 2.54828 13.1917 2.86647 12.9189 3.27471C12.6462 3.68295 12.5006 4.16291 12.5006 4.65389C12.5006 4.97988 12.5648 5.30267 12.6896 5.60385C12.8143 5.90502 12.9972 6.17867 13.2277 6.40917C13.4582 6.63968 13.7319 6.82252 14.033 6.94726C14.3342 7.072 14.657 7.1362 14.983 7.13619ZM14.983 3.87139C15.1378 3.87137 15.2891 3.91724 15.4178 4.00321C15.5465 4.08918 15.6468 4.21139 15.706 4.35437C15.7653 4.49735 15.7808 4.65469 15.7506 4.80648C15.7204 4.95828 15.6459 5.09772 15.5364 5.20716C15.427 5.31661 15.2876 5.39114 15.1358 5.42135C14.984 5.45155 14.8267 5.43606 14.6837 5.37683C14.5407 5.31761 14.4185 5.21732 14.3325 5.08863C14.2465 4.95995 14.2006 4.80866 14.2006 4.65389C14.2008 4.44645 14.2833 4.24757 14.43 4.10088C14.5767 3.95418 14.7756 3.87165 14.983 3.87139ZM22.473 16.0827C22.3371 15.2721 21.9185 14.5358 21.2914 14.0045C20.6643 13.4732 19.8693 13.1811 19.0474 13.1802H19.0427C19.1125 12.9114 19.1495 12.6352 19.1527 12.3576C19.1557 11.761 19.0073 11.1733 18.7214 10.6496C18.4354 10.126 18.0213 9.68342 17.5178 9.36338C17.0142 9.04334 16.4377 8.85629 15.8422 8.81972C15.2467 8.78315 14.6516 8.89826 14.1127 9.15429C13.5151 8.58523 12.7635 8.20423 11.9513 8.0586C11.139 7.91297 10.3019 8.00912 9.5438 8.33512C8.78572 8.66112 8.1401 9.20261 7.68708 9.89235C7.23407 10.5821 6.99362 11.3897 6.9956 12.2149C6.9956 12.2855 7.0105 12.3517 7.0146 12.4211L2.0455 14.0002V23.0002L8.0455 21.0002H13.0455L21.9705 17.9991C22.1879 17.926 22.3721 17.7778 22.4901 17.581C22.608 17.3843 22.6519 17.152 22.614 16.9258L22.473 16.0827ZM11.2183 9.79269C11.8363 9.79476 12.4298 10.0344 12.876 10.4621L13.766 11.3042L14.876 10.7848C15.1046 10.6743 15.3548 10.6157 15.6087 10.6131C16.0713 10.6136 16.5147 10.7976 16.8418 11.1247C17.1688 11.4518 17.3528 11.8952 17.3533 12.3578C17.3518 12.7451 17.22 13.1207 16.9793 13.4242L15.5586 13.6131C15.3658 13.1367 15.0351 12.7286 14.609 12.4413C14.1828 12.1539 13.6806 12.0004 13.1666 12.0002H8.8166C8.86912 11.399 9.14462 10.8391 9.58895 10.4307C10.0333 10.0223 10.6143 9.79487 11.2178 9.79309L11.2183 9.79269ZM12.751 19.2002H7.7534L7.4763 19.2926L3.8456 20.5026V15.317L8.3412 13.8889V13.892L8.6235 13.8002H13.1666C13.2695 13.8002 13.3713 13.8204 13.4664 13.8598C13.5614 13.8992 13.6477 13.9569 13.7205 14.0296C13.7932 14.1023 13.8509 14.1887 13.8903 14.2837C13.9296 14.3788 13.9499 14.4806 13.9499 14.5835C13.9499 14.6864 13.9296 14.7882 13.8903 14.8832C13.8509 14.9783 13.7932 15.0646 13.7205 15.1374C13.6477 15.2101 13.5614 15.2678 13.4664 15.3072C13.3713 15.3465 13.2695 15.3668 13.1666 15.3668H10.1412V15.3649H8.3412V17.1668H13.1666C13.7029 17.1657 14.2255 16.9971 14.6614 16.6847C15.0973 16.3723 15.4248 15.9315 15.5981 15.424L18.8225 14.9954C18.8971 14.9855 18.9722 14.9805 19.0474 14.9805C19.4438 14.98 19.8275 15.1206 20.1298 15.3771C20.4321 15.6336 20.6333 15.9893 20.6974 16.3805L20.7208 16.5205L12.751 19.2002Z" fill="black"/>
</svg>
