<svg width="24" height="24" viewBox="0 0 24 24" fill="none" xmlns="http://www.w3.org/2000/svg">
<path d="M17.3167 9.59347H18.1835V6.91297H20.8635V6.04617H18.1835V3.36587H17.3167V6.04587H14.6362V6.91267H17.3167V9.59347ZM23.7711 14.5468C22.2194 12.9956 20.1284 12.1041 17.9348 12.0584C15.7412 12.0127 13.6149 12.8165 12 14.3018C10.3851 12.8165 8.25877 12.0127 6.06521 12.0584C3.87164 12.1041 1.78058 12.9956 0.2289 14.5468L0 14.7757V19.9999H24V14.7757L23.7711 14.5468ZM11.5 18.9999H1V15.1976C1.0073 15.1912 1.0665 15.133 1.0739 15.1268C2.46953 13.7978 4.32285 13.0566 6.25 13.0566C8.17715 13.0566 10.0305 13.7978 11.4261 15.1268C11.4335 15.133 11.4927 15.1912 11.5 15.1976V18.9999ZM23 18.9999H12.5V15.1976C12.5073 15.1912 12.5665 15.133 12.5739 15.1268C13.9695 13.7978 15.8229 13.0566 17.75 13.0566C19.6771 13.0566 21.5305 13.7978 22.9261 15.1268C22.9335 15.133 22.9927 15.1912 23 15.1976V18.9999ZM6.25 9.78897C6.90104 9.78899 7.53747 9.59595 8.0788 9.23426C8.62013 8.87258 9.04205 8.35849 9.29121 7.75702C9.54036 7.15554 9.60556 6.49368 9.47856 5.85515C9.35156 5.21662 9.03807 4.63008 8.57772 4.16972C8.11737 3.70936 7.53085 3.39584 6.89232 3.26882C6.25379 3.14181 5.59193 3.20699 4.99044 3.45612C4.38896 3.70526 3.87486 4.12717 3.51316 4.66849C3.15146 5.20981 2.9584 5.84623 2.9584 6.49727C2.95946 7.36994 3.30659 8.20657 3.92365 8.82365C4.54071 9.44073 5.37733 9.78788 6.25 9.78897ZM6.25 4.20557C6.70326 4.20555 7.14635 4.33994 7.52323 4.59174C7.90011 4.84354 8.19386 5.20145 8.36733 5.6202C8.54079 6.03895 8.58619 6.49974 8.49778 6.94429C8.40936 7.38885 8.19111 7.7972 7.87061 8.11771C7.55012 8.43822 7.14177 8.65649 6.69723 8.74493C6.25268 8.83336 5.79189 8.78798 5.37313 8.61453C4.95437 8.44108 4.59645 8.14735 4.34463 7.77048C4.09281 7.39361 3.9584 6.95053 3.9584 6.49727C3.95909 5.8897 4.20074 5.30721 4.63035 4.87759C5.05995 4.44796 5.64243 4.20628 6.25 4.20557Z" fill="black"/>
</svg>
