<svg width="24" height="24" viewBox="0 0 24 24" fill="none" xmlns="http://www.w3.org/2000/svg">
<path d="M12 2C10.0222 2 8.08879 2.58649 6.4443 3.6853C4.79981 4.78412 3.51809 6.3459 2.76121 8.17317C2.00433 10.0004 1.8063 12.0111 2.19215 13.9509C2.578 15.8907 3.53041 17.6725 4.92894 19.0711C6.32746 20.4696 8.10929 21.422 10.0491 21.8079C11.9889 22.1937 13.9996 21.9957 15.8268 21.2388C17.6541 20.4819 19.2159 19.2002 20.3147 17.5557C21.4135 15.9112 22 13.9778 22 12C22 10.6868 21.7413 9.38642 21.2388 8.17317C20.7363 6.95991 19.9997 5.85752 19.0711 4.92893C18.1425 4.00035 17.0401 3.26375 15.8268 2.7612C14.6136 2.25866 13.3132 2 12 2ZM12 6.4375C12.5933 6.4375 13.1734 6.61345 13.6667 6.94309C14.1601 7.27274 14.5446 7.74127 14.7716 8.28945C14.9987 8.83763 15.0581 9.44083 14.9424 10.0228C14.8266 10.6047 14.5409 11.1393 14.1213 11.5588C13.7018 11.9784 13.1672 12.2641 12.5853 12.3799C12.0033 12.4956 11.4001 12.4362 10.852 12.2091C10.3038 11.9821 9.83524 11.5976 9.5056 11.1042C9.17595 10.6109 9 10.0308 9 9.4375C9 8.64185 9.31607 7.87879 9.87868 7.31618C10.4413 6.75357 11.2044 6.4375 12 6.4375ZM6.5 19.7316V16.9146C7.95871 15.4559 9.93711 14.6365 12 14.6365C14.0629 14.6365 16.0413 15.4559 17.5 16.9146V19.7316C15.8966 20.8815 13.9731 21.5 12 21.5C10.0269 21.5 8.10339 20.8815 6.5 19.7316Z" fill="black"/>
</svg>
