<svg width="24" height="24" viewBox="0 0 24 24" fill="none" xmlns="http://www.w3.org/2000/svg">
<path d="M13.6394 4.95068C13.9361 4.95068 14.2261 4.86271 14.4728 4.69789C14.7194 4.53307 14.9117 4.2988 15.0252 4.02471C15.1388 3.75062 15.1685 3.44902 15.1106 3.15805C15.0527 2.86708 14.9098 2.5998 14.7001 2.39002C14.4903 2.18025 14.223 2.03738 13.932 1.97951C13.6411 1.92163 13.3395 1.95133 13.0654 2.06486C12.7913 2.1784 12.557 2.37066 12.3922 2.61733C12.2274 2.864 12.1394 3.15401 12.1394 3.45068C12.1394 3.84851 12.2974 4.23004 12.5787 4.51134C12.86 4.79265 13.2416 4.95068 13.6394 4.95068ZM14.2705 10.6531C14.3865 10.9351 14.5684 11.1852 14.801 11.3825L17.5945 13.7513L18.4124 12.9332L15.7708 10.2916L14.6758 7.65428C14.5637 7.38428 14.391 7.14365 14.1711 6.95094C13.9513 6.75822 13.6901 6.61858 13.4077 6.54278L11.7947 6.10998C11.3194 5.98233 10.8131 6.04324 10.3816 6.27998L7.822 7.68568C7.57866 7.81941 7.36742 8.0046 7.203 8.22835C7.03858 8.4521 6.92494 8.70901 6.87 8.98118L6.144 12.5779L7.2671 12.8849L8.2578 9.10558L10.6763 7.84998L8.0908 17.27L5.5579 22H6.7817L9.687 17.8711L10.8809 14.0034L15.5859 22H16.8193L12.6293 13.0181L13.675 9.20628L14.2705 10.6531Z" fill="black"/>
</svg>
