<svg width="24" height="24" viewBox="0 0 24 24" fill="none" xmlns="http://www.w3.org/2000/svg">
<path d="M12.3364 10.5938C12.6929 10.5938 13.0459 10.5236 13.3753 10.3872C13.7047 10.2507 14.004 10.0508 14.2561 9.79868C14.5082 9.54658 14.7081 9.2473 14.8445 8.91792C14.9809 8.58854 15.0511 8.23551 15.0511 7.879C15.0511 5.7072 12.3364 0.8125 12.3364 0.8125C12.3364 0.8125 9.62172 5.7072 9.62172 7.879C9.62172 8.59899 9.90772 9.2895 10.4168 9.79862C10.9259 10.3077 11.6164 10.5938 12.3364 10.5938ZM12.3364 4.6666C12.8413 5.67747 13.1837 6.76156 13.3512 7.879C13.3512 8.14819 13.2443 8.40636 13.0539 8.59671C12.8636 8.78706 12.6054 8.894 12.3362 8.894C12.067 8.894 11.8089 8.78706 11.6185 8.59671C11.4282 8.40636 11.3212 8.14819 11.3212 7.879C11.4889 6.76155 11.8315 5.67747 12.3364 4.6666ZM22.6235 17.134L22.4535 16.3248C22.3076 15.6297 21.9043 15.0154 21.3245 14.6051C20.7447 14.1948 20.0312 14.0188 19.3271 14.1124L16.6589 14.467C16.6672 14.5618 16.6875 14.6531 16.6875 14.75C16.6866 15.6117 16.3438 16.4378 15.7346 17.047C15.1253 17.6563 14.2992 17.999 13.4375 18H8.34122V16.5H13.4375C13.9016 16.5 14.3468 16.3156 14.675 15.9874C15.0031 15.6592 15.1875 15.2141 15.1875 14.75C15.1875 14.2859 15.0031 13.8408 14.675 13.5126C14.3468 13.1844 13.9016 13 13.4375 13H8.34122L2.04572 15V23L8.04572 21H13.0457L22.1663 17.933C22.3271 17.8789 22.4625 17.7677 22.5468 17.6204C22.6311 17.4731 22.6584 17.3001 22.6235 17.134Z" fill="black"/>
</svg>
