<svg width="24" height="24" viewBox="0 0 24 24" fill="none" xmlns="http://www.w3.org/2000/svg">
<path d="M10.6392 13.3499C10.5169 13.2275 10.3716 13.1304 10.2118 13.0642C10.0519 12.998 9.88058 12.9639 9.70755 12.9639C9.53451 12.9639 9.36317 12.998 9.20332 13.0642C9.04346 13.1304 8.89822 13.2275 8.7759 13.3499L4.8743 17.2514C4.62721 17.4985 4.48839 17.8336 4.48838 18.183C4.48837 18.356 4.52245 18.5274 4.58866 18.6872C4.65486 18.8471 4.75191 18.9923 4.87425 19.1146C4.99658 19.237 5.14182 19.334 5.30167 19.4003C5.46152 19.4665 5.63284 19.5006 5.80586 19.5006C6.15529 19.5006 6.49041 19.3618 6.7375 19.1147L10.6392 15.2132C10.8862 14.9661 11.025 14.631 11.025 14.2815C11.025 13.9321 10.8862 13.597 10.6392 13.3499ZM11.0952 6.6585L11.4777 7.0378C11.7902 7.34774 12.1962 7.54593 12.6329 7.60165C13.0695 7.65738 13.5123 7.56751 13.8926 7.346L16.3956 5.8881L20.9751 10.4143L23.1282 7.9255L18.3916 3.1709L14.6933 3.176C14.1638 3.17672 13.6562 3.38738 13.2818 3.7618L11.0938 5.9499C11.0472 5.99645 11.0104 6.05173 10.9852 6.11257C10.9601 6.17341 10.9472 6.23861 10.9474 6.30444C10.9475 6.37027 10.9606 6.43542 10.986 6.49616C11.0113 6.5569 11.0485 6.61204 11.0952 6.6584V6.6585ZM11.7487 16.0637C11.5756 16.0635 11.4042 16.0974 11.2443 16.1637C11.0844 16.2299 10.9392 16.3271 10.817 16.4496L8.6781 18.5884C8.43279 18.8359 8.2955 19.1704 8.29627 19.5189C8.29704 19.8673 8.43581 20.2013 8.68221 20.4477C8.92861 20.6941 9.26257 20.8328 9.61102 20.8336C9.95947 20.8343 10.294 20.697 10.5415 20.4517L12.68 18.3128C12.8642 18.1285 12.9897 17.8938 13.0405 17.6382C13.0913 17.3826 13.0653 17.1177 12.9655 16.877C12.8658 16.6363 12.697 16.4305 12.4803 16.2857C12.2637 16.1409 12.009 16.0636 11.7484 16.0636L11.7487 16.0637ZM7.54 13.1718C7.66233 13.0495 7.75938 12.9042 7.82559 12.7444C7.89179 12.5845 7.92587 12.4132 7.92586 12.2402C7.92586 12.0671 7.89177 11.8958 7.82556 11.736C7.75934 11.5761 7.66229 11.4309 7.53995 11.3085C7.4176 11.1862 7.27236 11.0892 7.1125 11.023C6.95265 10.9568 6.78133 10.9227 6.60831 10.9227C6.43529 10.9227 6.26397 10.9568 6.10412 11.023C5.94427 11.0892 5.79904 11.1863 5.6767 11.3086L2.7712 14.2134C2.52589 14.4609 2.3886 14.7954 2.38937 15.1439C2.39014 15.4923 2.52891 15.8263 2.77531 16.0727C3.02171 16.3191 3.35567 16.4578 3.70412 16.4586C4.05257 16.4593 4.38714 16.322 4.6346 16.0767L7.54 13.1718ZM15.9615 8.2239L14.7985 8.9013C14.0758 9.32222 13.2345 9.49298 12.4049 9.38711C11.5753 9.28123 10.8038 8.90463 10.21 8.3157L9.8275 7.9365C9.61246 7.72324 9.44166 7.46961 9.32489 7.19018C9.20813 6.91074 9.1477 6.61099 9.14708 6.30814C9.14645 6.00529 9.20565 5.7053 9.32126 5.42538C9.43688 5.14546 9.60664 4.89114 9.8208 4.677L11.3108 3.187L5.6084 3.1825L0.871796 7.9254L3.905 10.9585L4.615 10.2485C4.96357 9.9002 5.39735 9.64934 5.87309 9.52093C6.34883 9.39252 6.84991 9.39103 7.3264 9.51662C7.8029 9.64222 8.23815 9.8905 8.58878 10.2367C8.93942 10.583 9.19319 11.015 9.32479 11.4899C9.45161 11.4728 9.57943 11.4642 9.7074 11.4642C10.1097 11.4642 10.5072 11.5504 10.8734 11.7169C11.2396 11.8834 11.5658 12.1265 11.8302 12.4297C12.0945 12.7329 12.2908 13.0892 12.4059 13.4746C12.521 13.8601 12.5522 14.2657 12.4974 14.6642C12.9723 14.7957 13.4045 15.0494 13.7508 15.4C14.0972 15.7506 14.3456 16.1858 14.4714 16.6623C14.5971 17.1387 14.5958 17.6399 14.4676 18.1157C14.3393 18.5915 14.0887 19.0254 13.7405 19.3742L13.2284 19.8863L13.6568 20.3148C13.9754 20.6307 14.4062 20.8075 14.8548 20.8066C15.3035 20.8056 15.7335 20.627 16.0507 20.3097C16.368 19.9925 16.5466 19.5625 16.5476 19.1138C16.5486 18.6652 16.3718 18.2344 16.0559 17.9158L16.6445 18.5044C16.9626 18.8225 17.3941 19.0013 17.844 19.0013C18.294 19.0013 18.7255 18.8225 19.0436 18.5044C19.3617 18.1863 19.5405 17.7548 19.5405 17.3048C19.5405 16.8549 19.3617 16.4234 19.0436 16.1053L18.5508 15.6125C18.7083 15.77 18.8953 15.895 19.1011 15.9802C19.3069 16.0655 19.5275 16.1094 19.7503 16.1094C19.9731 16.1094 20.1937 16.0655 20.3995 15.9802C20.6053 15.895 20.7923 15.77 20.9498 15.6125C21.2679 15.2944 21.4466 14.8629 21.4466 14.413C21.4466 13.9631 21.2679 13.5316 20.9498 13.2135L15.9615 8.2239Z" fill="black"/>
</svg>
