<svg width="24" height="24" viewBox="0 0 24 24" fill="none" xmlns="http://www.w3.org/2000/svg">
<path d="M19.9376 10.0441C19.7046 8.10255 18.7682 6.31367 17.3056 5.0157C15.843 3.71773 13.9555 3.00064 12 3C11.9763 3 11.9534 3.0031 11.93 3.0033C11.4881 3.00951 11.0579 3.14584 10.693 3.39525C10.3282 3.64465 10.0449 3.99607 9.87874 4.40557C9.71253 4.81506 9.67071 5.26446 9.75852 5.69759C9.84632 6.13072 10.0599 6.52836 10.3724 6.8408C10.8012 7.2498 11.3709 7.47799 11.9635 7.47799C12.556 7.47799 13.1258 7.2498 13.5545 6.8408L14.2615 7.5479C13.6956 8.116 12.9394 8.45459 12.1387 8.49844C11.338 8.54228 10.5494 8.28829 9.92483 7.78539C9.30024 7.28248 8.88383 6.56624 8.75582 5.77462C8.62781 4.98301 8.79726 4.17203 9.23152 3.4979C7.85163 4.00855 6.6392 4.88967 5.72743 6.04445C4.81566 7.19924 4.23983 8.583 4.06322 10.0437C3.3354 10.1478 2.67161 10.5169 2.19907 11.0801C1.72653 11.6434 1.47847 12.3612 1.50244 13.096C1.52642 13.8309 1.82073 14.531 2.32898 15.0623C2.83723 15.5935 3.52366 15.9185 4.25672 15.975C4.69375 17.6974 5.69251 19.2249 7.09505 20.316C8.49758 21.4072 10.2238 21.9995 12.0008 21.9995C13.7778 21.9995 15.5041 21.4072 16.9066 20.316C18.3091 19.2249 19.3079 17.6974 19.7449 15.975C20.478 15.9185 21.1644 15.5935 21.6727 15.0623C22.1809 14.531 22.4752 13.8309 22.4992 13.096C22.5232 12.3612 22.2751 11.6434 21.8026 11.0801C21.33 10.5169 20.6662 10.1478 19.9384 10.0437L19.9376 10.0441ZM7.75002 13C7.75002 12.7528 7.82333 12.5111 7.96068 12.3055C8.09803 12.1 8.29325 11.9398 8.52166 11.8452C8.75007 11.7505 9.0014 11.7258 9.24388 11.774C9.48636 11.8222 9.70909 11.9413 9.8839 12.1161C10.0587 12.2909 10.1778 12.5137 10.226 12.7561C10.2742 12.9986 10.2495 13.2499 10.1549 13.4784C10.0603 13.7068 9.90004 13.902 9.69448 14.0393C9.48892 14.1767 9.24724 14.25 9.00002 14.25C8.6685 14.25 8.35055 14.1183 8.11613 13.8839C7.88171 13.6495 7.75002 13.3315 7.75002 13ZM9.00002 17H15C14.7484 17.5871 14.33 18.0875 13.7968 18.4391C13.2635 18.7908 12.6388 18.9782 12 18.9782C11.3613 18.9782 10.7365 18.7908 10.2033 18.4391C9.67 18.0875 9.25164 17.5871 9.00002 17ZM15 14.25C14.7528 14.25 14.5111 14.1767 14.3056 14.0393C14.1 13.902 13.9398 13.7068 13.8452 13.4784C13.7506 13.2499 13.7258 12.9986 13.774 12.7561C13.8223 12.5137 13.9413 12.2909 14.1161 12.1161C14.2909 11.9413 14.5137 11.8222 14.7562 11.774C14.9986 11.7258 15.25 11.7505 15.4784 11.8452C15.7068 11.9398 15.902 12.1 16.0394 12.3055C16.1767 12.5111 16.25 12.7528 16.25 13C16.25 13.3315 16.1183 13.6495 15.8839 13.8839C15.6495 14.1183 15.3315 14.25 15 14.25Z" fill="black"/>
</svg>
