<svg width="24" height="24" viewBox="0 0 24 24" fill="none" xmlns="http://www.w3.org/2000/svg">
<path d="M19.707 15.2041C17.6615 13.163 14.8897 12.0166 12 12.0166C9.11027 12.0166 6.33855 13.163 4.293 15.2041L4 15.4971V21H20V15.4971L19.707 15.2041ZM9.8512 19C10.0145 18.5619 10.3079 18.1841 10.692 17.9174C11.076 17.6507 11.5325 17.5077 12 17.5077C12.4676 17.5077 12.9241 17.6507 13.3081 17.9174C13.6922 18.1841 13.9856 18.5619 14.1489 19H9.8512ZM18 19H16.2221C16.0345 18.0177 15.5102 17.1315 14.7396 16.494C13.9689 15.8566 13.0001 15.5079 12 15.5079C10.9999 15.5079 10.0311 15.8566 9.26043 16.494C8.48977 17.1315 7.9655 18.0177 7.7779 19H6V16.3383C7.64125 14.8445 9.78072 14.0166 12 14.0166C14.2193 14.0166 16.3588 14.8445 18 16.3383V19ZM12 10C12.7911 10 13.5645 9.76541 14.2223 9.32588C14.8801 8.88635 15.3928 8.26164 15.6955 7.53074C15.9983 6.79983 16.0775 5.99556 15.9231 5.21964C15.7688 4.44372 15.3878 3.73098 14.8284 3.17157C14.269 2.61216 13.5563 2.2312 12.7804 2.07686C12.0044 1.92252 11.2002 2.00173 10.4693 2.30448C9.73836 2.60723 9.11365 3.11992 8.67412 3.77772C8.2346 4.43552 8 5.20888 8 6C8.00119 7.0605 8.423 8.07723 9.17289 8.82711C9.92278 9.577 10.9395 9.99881 12 10ZM12 4C12.3956 4 12.7822 4.1173 13.1111 4.33706C13.44 4.55683 13.6964 4.86918 13.8478 5.23463C13.9991 5.60009 14.0387 6.00222 13.9616 6.39018C13.8844 6.77814 13.6939 7.13451 13.4142 7.41422C13.1345 7.69392 12.7781 7.8844 12.3902 7.96157C12.0022 8.03874 11.6001 7.99914 11.2346 7.84776C10.8692 7.69639 10.5568 7.44004 10.3371 7.11114C10.1173 6.78224 10 6.39556 10 6C10.0006 5.46976 10.2115 4.9614 10.5865 4.58646C10.9614 4.21152 11.4698 4.00061 12 4Z" fill="black"/>
</svg>
