<svg width="24" height="24" viewBox="0 0 24 24" fill="none" xmlns="http://www.w3.org/2000/svg">
<path d="M12.3364 9.64214C12.6663 9.64216 12.993 9.57718 13.2979 9.45093C13.6027 9.32469 13.8796 9.13963 14.1129 8.90634C14.3462 8.67305 14.5313 8.39609 14.6576 8.09128C14.7838 7.78647 14.8488 7.45977 14.8488 7.12984C14.8488 5.11984 12.3364 0.589844 12.3364 0.589844C12.3364 0.589844 9.82411 5.11984 9.82411 7.12984C9.82414 7.79614 10.0888 8.43514 10.56 8.90628C11.0311 9.37742 11.6701 9.64212 12.3364 9.64214ZM12.3364 2.58634C13.1189 4.00241 13.6635 5.53732 13.9487 7.12984C13.9487 7.55745 13.7788 7.96755 13.4765 8.26991C13.1741 8.57228 12.764 8.74214 12.3364 8.74214C11.9088 8.74214 11.4987 8.57228 11.1963 8.26991C10.894 7.96755 10.7241 7.55745 10.7241 7.12984C11.0093 5.53733 11.554 4.00243 12.3364 2.58634ZM22.5935 15.4617L22.425 14.7939C22.2848 14.2363 21.9444 13.7498 21.4686 13.427C20.9929 13.1041 20.415 12.9676 19.845 13.0433L16.0011 13.5542C16.0061 13.6199 16.0211 13.6828 16.0211 13.7498C16.0203 14.4347 15.7478 15.0914 15.2635 15.5756C14.7792 16.0599 14.1226 16.3323 13.4377 16.3331H8.34122V15.4998H13.4375C13.9016 15.4998 14.3468 15.3155 14.675 14.9873C15.0031 14.6591 15.1875 14.214 15.1875 13.7498C15.1875 13.2857 15.0031 12.8406 14.675 12.5124C14.3468 12.1842 13.9016 11.9998 13.4375 11.9998H8.34122L2.04572 13.9998V21.3331L8.04572 19.3331H13.0457L22.1545 16.2701C22.3163 16.2158 22.4514 16.1022 22.5329 15.9522C22.6143 15.8023 22.636 15.627 22.5935 15.4617Z" fill="black"/>
</svg>
