<svg width="24" height="24" viewBox="0 0 24 24" fill="none" xmlns="http://www.w3.org/2000/svg">
<path d="M21.9326 17.0576L20.9426 16.0676L19 18.01L17.0576 16.0676L16.0676 17.0576L18.01 19L16.0676 20.9424L17.0576 21.9324L19 19.99L20.9424 21.9324L21.9324 20.9424L19.99 19L21.9326 17.0576ZM9.6045 1.00003C7.58834 1.00222 5.65538 1.80412 4.22973 3.22976C2.80409 4.65541 2.0022 6.58836 2 8.60453V19.1719C2.00003 19.9291 2.22456 20.6692 2.64522 21.2987C3.06587 21.9283 3.66375 22.4189 4.36326 22.7087C5.06276 22.9984 5.83248 23.0742 6.57508 22.9266C7.31767 22.7789 7.9998 22.4143 8.5352 21.8789L13.4111 17.0029C14.5525 15.8678 15.4574 14.5176 16.0734 13.0304C16.6894 11.5432 17.0044 9.94864 17 8.33893C16.9903 6.38569 16.2063 4.51606 14.8198 3.14021C13.4334 1.76436 11.5577 0.994681 9.6045 1.00003ZM13.2637 11.7051L11.8652 11.1641C12.2138 10.259 12.3916 9.29707 12.3896 8.32713C12.3808 7.59477 12.0819 6.89579 11.5586 6.38342C11.0352 5.87105 10.3301 5.5871 9.5977 5.59383C8.79947 5.5947 8.03419 5.91218 7.46974 6.4766C6.9053 7.04102 6.5878 7.8063 6.5869 8.60453V11.793L7.7109 12.917C8.1057 13.312 8.37453 13.8151 8.4834 14.3628C8.59227 14.9105 8.5363 15.4782 8.32255 15.9941C8.1088 16.51 7.74688 16.951 7.28255 17.2612C6.81822 17.5714 6.27233 17.737 5.7139 17.737H5.07V16.237H5.7136C5.97542 16.2368 6.23129 16.159 6.44889 16.0134C6.6665 15.8678 6.83607 15.661 6.93618 15.419C7.03629 15.1771 7.06245 14.9109 7.01135 14.6542C6.96025 14.3974 6.8342 14.1615 6.6491 13.9763L5.0869 12.4141V8.60413C5.08836 7.40828 5.56408 6.26184 6.40972 5.4163C7.25536 4.57075 8.40185 4.09515 9.5977 4.09383C10.7278 4.08741 11.8144 4.52948 12.6191 5.32307C13.4237 6.11667 13.8808 7.197 13.89 8.32713C13.8918 9.48216 13.6794 10.6275 13.2637 11.7051Z" fill="black"/>
</svg>
