<svg width="24" height="24" viewBox="0 0 24 24" fill="none" xmlns="http://www.w3.org/2000/svg">
<path d="M1.83997 6V6.6288C1.83989 6.79697 1.90401 6.95883 2.01923 7.08133C2.13446 7.20382 2.2921 7.27771 2.45997 7.2879L8.99997 7.6879V22H10.5V14.75H13.5V22H15V7.6875L21.54 7.2875C21.7078 7.27731 21.8655 7.20342 21.9807 7.08093C22.0959 6.95843 22.16 6.79657 22.16 6.6284V6H1.83997ZM12 4.5C12.3461 4.5 12.6844 4.39737 12.9722 4.20507C13.26 4.01278 13.4843 3.73947 13.6168 3.4197C13.7492 3.09993 13.7839 2.74806 13.7163 2.40859C13.6488 2.06913 13.4821 1.75731 13.2374 1.51256C12.9927 1.26782 12.6808 1.10115 12.3414 1.03363C12.0019 0.966102 11.65 1.00076 11.3303 1.13321C11.0105 1.26566 10.7372 1.48997 10.5449 1.77775C10.3526 2.06554 10.25 2.40388 10.25 2.75C10.25 3.21413 10.4343 3.65925 10.7625 3.98744C11.0907 4.31563 11.5358 4.5 12 4.5Z" fill="black"/>
</svg>
