<svg width="24" height="24" viewBox="0 0 24 24" fill="none" xmlns="http://www.w3.org/2000/svg">
<path d="M13.4614 4.95068C13.7581 4.95068 14.0481 4.86271 14.2948 4.69789C14.5414 4.53307 14.7337 4.2988 14.8472 4.02471C14.9608 3.75062 14.9905 3.44902 14.9326 3.15805C14.8747 2.86708 14.7318 2.5998 14.5221 2.39002C14.3123 2.18025 14.045 2.03738 13.754 1.97951C13.4631 1.92163 13.1615 1.95133 12.8874 2.06486C12.6133 2.1784 12.379 2.37066 12.2142 2.61733C12.0494 2.864 11.9614 3.15401 11.9614 3.45068C11.9614 3.84851 12.1194 4.23004 12.4007 4.51134C12.682 4.79265 13.0636 4.95068 13.4614 4.95068ZM11.52 12.3292L12.3875 9.16918L13.4248 10.9666C13.4687 11.0422 13.5222 11.1117 13.584 11.1736L16.3184 13.908L17.7324 12.4939L15.0908 9.85298L13.4229 6.96138C13.1565 6.50305 12.7195 6.16882 12.2074 6.03177C11.6953 5.89471 11.1497 5.96598 10.69 6.22998L7.5762 8.02588C7.34951 8.15589 7.15069 8.32933 6.9911 8.53627C6.83152 8.74321 6.71432 8.97959 6.6462 9.23188L5.6667 12.8219L7.5967 13.3487L8.5762 9.75868L10.4492 8.67868L8.106 17.2156L5.3032 22.0706H7.6132L9.9018 18.1064C9.94436 18.0325 9.97717 17.9534 9.9994 17.8711L10.7958 14.9698L14.8958 22.0706H17.2058L11.6958 12.5264C11.6465 12.4529 11.5873 12.3866 11.52 12.3292Z" fill="black"/>
</svg>
