<svg width="24" height="24" viewBox="0 0 24 24" fill="none" xmlns="http://www.w3.org/2000/svg">
<path d="M16.8945 1.16592C16.5667 1.29121 16.2927 1.52667 16.1195 1.83191C15.9463 2.13715 15.8847 2.49314 15.9453 2.83882L16.5024 5.99992H13.2234C12.9582 5.99992 12.7038 6.10528 12.5163 6.29282C12.3288 6.48035 12.2234 6.73471 12.2234 6.99992V8.58302C12.2116 10.5179 12.9386 12.3844 14.256 13.8015L14.4429 13.9999L20 14.0145V5.83102L18.2 0.669922L16.8945 1.16592ZM22 6.14052V14.1405H24V6.14052H22ZM0 17.8593H2V9.85932H0V17.8593ZM9.5571 9.99992L4 9.98532V18.1688L5.8 23.3299L7.1057 22.8338C7.43353 22.7085 7.70754 22.4731 7.88073 22.1678C8.05392 21.8626 8.1155 21.5066 8.0549 21.1609L7.4976 17.9999H10.7766C11.0418 17.9999 11.2962 17.8946 11.4837 17.707C11.6712 17.5195 11.7766 17.2651 11.7766 16.9999V15.4168C11.7884 13.4819 11.0614 11.6155 9.744 10.1983L9.5571 9.99992Z" fill="black"/>
</svg>
