<svg width="24" height="24" viewBox="0 0 24 24" fill="none" xmlns="http://www.w3.org/2000/svg">
<path d="M16.1794 4.14385C16.4464 4.14385 16.7074 4.06467 16.9294 3.91633C17.1514 3.76799 17.3245 3.55715 17.4266 3.31047C17.5288 3.06379 17.5555 2.79235 17.5035 2.53048C17.4514 2.2686 17.3228 2.02805 17.134 1.83925C16.9452 1.65045 16.7046 1.52188 16.4428 1.46979C16.1809 1.4177 15.9095 1.44443 15.6628 1.54661C15.4161 1.64879 15.2053 1.82182 15.0569 2.04383C14.9086 2.26583 14.8294 2.52684 14.8294 2.79385C14.8294 3.15189 14.9716 3.49527 15.2248 3.74844C15.478 4.00162 15.8214 4.14385 16.1794 4.14385ZM18.5 12.4999C17.61 12.4999 16.74 12.7639 15.9999 13.2583C15.2599 13.7528 14.6831 14.4556 14.3425 15.2779C14.0019 16.1001 13.9128 17.0049 14.0865 17.8779C14.2601 18.7508 14.6887 19.5526 15.318 20.1819C15.9474 20.8113 16.7492 21.2398 17.6221 21.4135C18.495 21.5871 19.3998 21.498 20.2221 21.1574C21.0443 20.8168 21.7471 20.24 22.2416 19.5C22.7361 18.76 23 17.89 23 16.9999C23 15.8065 22.5259 14.6619 21.682 13.818C20.8381 12.9741 19.6935 12.4999 18.5 12.4999ZM18.5 20.0666C17.8935 20.0666 17.3005 19.8868 16.7962 19.5498C16.2919 19.2128 15.8988 18.7339 15.6667 18.1735C15.4346 17.6132 15.3739 16.9965 15.4922 16.4017C15.6106 15.8068 15.9026 15.2603 16.3315 14.8315C16.7604 14.4026 17.3068 14.1105 17.9017 13.9922C18.4966 13.8738 19.1132 13.9346 19.6736 14.1667C20.2339 14.3988 20.7129 14.7919 21.0499 15.2962C21.3868 15.8005 21.5667 16.3934 21.5667 16.9999C21.5658 17.813 21.2424 18.5925 20.6675 19.1675C20.0926 19.7424 19.3131 20.0658 18.5 20.0666ZM5.5 12.4999C4.60998 12.4999 3.73995 12.7639 2.99993 13.2583C2.25991 13.7528 1.68313 14.4556 1.34254 15.2779C1.00195 16.1001 0.912831 17.0049 1.08646 17.8779C1.2601 18.7508 1.68868 19.5526 2.31802 20.1819C2.94735 20.8113 3.74918 21.2398 4.62209 21.4135C5.49501 21.5871 6.39981 21.498 7.22207 21.1574C8.04434 20.8168 8.74715 20.24 9.24161 19.5C9.73608 18.76 10 17.89 10 16.9999C10 16.409 9.8836 15.8238 9.65746 15.2779C9.43131 14.7319 9.09984 14.2358 8.68198 13.818C8.26411 13.4001 7.76804 13.0686 7.22207 12.8425C6.67611 12.6163 6.09095 12.4999 5.5 12.4999ZM5.5 20.0666C4.89346 20.0666 4.30055 19.8868 3.79623 19.5498C3.29191 19.2128 2.89885 18.7339 2.66674 18.1735C2.43463 17.6132 2.37389 16.9965 2.49222 16.4017C2.61055 15.8068 2.90263 15.2603 3.33151 14.8315C3.7604 14.4026 4.30683 14.1105 4.90172 13.9922C5.4966 13.8738 6.11321 13.9346 6.67357 14.1667C7.23394 14.3988 7.71289 14.7919 8.04987 15.2962C8.38684 15.8005 8.5667 16.3934 8.5667 16.9999C8.56582 17.813 8.24245 18.5925 7.66752 19.1675C7.09259 19.7424 6.31307 20.0658 5.5 20.0666ZM12.2363 6.94425C12.4743 6.71676 12.7909 6.58981 13.1201 6.58981C13.4493 6.58981 13.7659 6.71676 14.0039 6.94425L18.1055 11.0458L19.166 9.98585L15.0645 5.88375C14.5407 5.38357 13.8444 5.10448 13.1201 5.10448C12.3959 5.10448 11.6996 5.38357 11.1758 5.88375L8.2969 8.76265C7.96909 9.09098 7.78497 9.53598 7.78497 9.99995C7.78497 10.4639 7.96909 10.9089 8.2969 11.2372L11.2969 14.2372C11.3436 14.2842 11.37 14.3478 11.3701 14.414V19.9999H12.8701V14.414C12.8689 13.9502 12.6847 13.5055 12.3574 13.1767L9.3574 10.1767C9.33418 10.1535 9.31576 10.126 9.30319 10.0956C9.29062 10.0653 9.28415 10.0328 9.28415 9.99995C9.28415 9.96711 9.29062 9.9346 9.30319 9.90426C9.31576 9.87393 9.33418 9.84636 9.3574 9.82315L12.2363 6.94425Z" fill="black"/>
</svg>
