<svg width="24" height="24" viewBox="0 0 24 24" fill="none" xmlns="http://www.w3.org/2000/svg">
<path d="M12.2917 5.49463C12.6378 5.49463 12.9762 5.39199 13.2639 5.1997C13.5517 5.00741 13.776 4.7341 13.9085 4.41433C14.0409 4.09455 14.0756 3.74269 14.0081 3.40322C13.9405 3.06375 13.7739 2.75193 13.5291 2.50719C13.2844 2.26245 12.9726 2.09578 12.6331 2.02826C12.2936 1.96073 11.9418 1.99539 11.622 2.12784C11.3022 2.26029 11.0289 2.4846 10.8366 2.77238C10.6443 3.06017 10.5417 3.39851 10.5417 3.74463C10.5417 4.20876 10.7261 4.65388 11.0543 4.98207C11.3825 5.31026 11.8276 5.49463 12.2917 5.49463ZM14.5723 18.0046H11.7529C10.7587 18.0034 9.80561 17.6079 9.10262 16.9049C8.39963 16.2019 8.00414 15.2488 8.0029 14.2546V7.25463C8.0029 7.18833 7.97656 7.12474 7.92968 7.07785C7.88279 7.03097 7.8192 7.00463 7.7529 7.00463C7.6866 7.00463 7.62301 7.03097 7.57612 7.07785C7.52924 7.12474 7.5029 7.18833 7.5029 7.25463V14.2546C7.50409 15.3814 7.95224 16.4617 8.74901 17.2585C9.54578 18.0553 10.6261 18.5034 11.7529 18.5046H14.5723C14.6386 18.5046 14.7022 18.4783 14.7491 18.4314C14.796 18.3845 14.8223 18.3209 14.8223 18.2546C14.8223 18.1883 14.796 18.1247 14.7491 18.0779C14.7022 18.031 14.6386 18.0046 14.5723 18.0046ZM18.3418 14.7136C18.1544 14.4897 17.9201 14.3098 17.6555 14.1864C17.3909 14.0631 17.1024 13.9994 16.8105 13.9998H14.4961V9.24983C14.4961 8.65309 14.259 8.0808 13.8371 7.65884C13.4151 7.23688 12.8428 6.99983 12.2461 6.99983H11.3C10.9552 6.99983 10.6246 7.13679 10.3808 7.38059C10.137 7.62439 10 7.95505 10 8.29983V13.9998C10 14.5303 10.2107 15.039 10.5858 15.414C10.9609 15.7891 11.4696 15.9998 12 15.9998H16.81L15.7613 21.9998H17.7921L18.7807 16.3445C18.8312 16.0571 18.818 15.7622 18.7422 15.4804C18.6663 15.1987 18.5297 14.937 18.3418 14.7137V14.7136Z" fill="black"/>
</svg>
