<svg width="24" height="24" viewBox="0 0 24 24" fill="none" xmlns="http://www.w3.org/2000/svg">
<path d="M15.1345 6.94298L17.7839 5.37398L17.75 8.45298H18.25L18.2161 5.37398L20.8655 6.94298L21.1155 6.50997L18.4319 4.99988L21.1155 3.48987L20.8655 3.05687L18.2161 4.62587L18.25 1.54688H17.75L17.7839 4.62587L15.1345 3.05687L14.8845 3.48987L17.5681 4.99988L14.8845 6.50988L15.1345 6.94298ZM6.2906 5.49468C6.63672 5.49468 6.97506 5.39204 7.26285 5.19975C7.55063 5.00745 7.77494 4.73414 7.90739 4.41437C8.03984 4.0946 8.0745 3.74273 8.00697 3.40327C7.93945 3.0638 7.77278 2.75198 7.52804 2.50724C7.2833 2.2625 6.97147 2.09582 6.63201 2.0283C6.29254 1.96078 5.94067 1.99543 5.6209 2.12789C5.30113 2.26034 5.02782 2.48464 4.83553 2.77243C4.64324 3.06021 4.5406 3.39856 4.5406 3.74468C4.5406 4.2088 4.72497 4.65392 5.05316 4.98211C5.38135 5.3103 5.82647 5.49468 6.2906 5.49468ZM6.2906 2.49468C6.53783 2.49468 6.7795 2.56799 6.98506 2.70534C7.19062 2.84269 7.35084 3.03791 7.44545 3.26632C7.54006 3.49473 7.56481 3.74606 7.51658 3.98854C7.46835 4.23101 7.3493 4.45374 7.17448 4.62856C6.99967 4.80337 6.77694 4.92243 6.53446 4.97066C6.29199 5.01889 6.04065 4.99413 5.81225 4.89952C5.58384 4.80492 5.38861 4.6447 5.25126 4.43914C5.11391 4.23358 5.0406 3.9919 5.0406 3.74468C5.04097 3.41327 5.17279 3.09554 5.40713 2.8612C5.64147 2.62686 5.95919 2.49505 6.2906 2.49468ZM11.0062 10.9999L10.1606 8.88568C9.93791 8.32898 9.55352 7.85178 9.05702 7.51564C8.56052 7.17951 7.97468 6.99986 7.3751 6.99988H5.5C5.10218 6.99988 4.72064 7.15791 4.43934 7.43921C4.15804 7.72052 4 8.10205 4 8.49988V10.9999H2V17.9999C2 18.7955 2.31607 19.5586 2.87868 20.1212C3.44129 20.6838 4.20435 20.9999 5 20.9999H19C19.7956 20.9999 20.5587 20.6838 21.1213 20.1212C21.6839 19.5586 22 18.7955 22 17.9999V10.9999H11.0062ZM4.5 8.49988C4.50029 8.23475 4.60574 7.98056 4.79321 7.79309C4.98069 7.60562 5.23487 7.50017 5.5 7.49988H7.3751C7.87513 7.49824 8.36405 7.64731 8.77811 7.92763C9.19218 8.20794 9.51218 8.60652 9.6964 9.07137L10.4677 10.9999H4.5V8.49988ZM21.5 17.9999C21.4993 18.6627 21.2356 19.2981 20.7669 19.7668C20.2983 20.2355 19.6628 20.4991 19 20.4999H5C4.33719 20.4991 3.70173 20.2355 3.23305 19.7668C2.76437 19.2981 2.50074 18.6627 2.5 17.9999V11.4999H21.5V17.9999Z" fill="black"/>
</svg>
