<svg width="24" height="24" viewBox="0 0 24 24" fill="none" xmlns="http://www.w3.org/2000/svg">
<path d="M12 18.4609C11.2689 18.4619 10.5605 18.715 9.99438 19.1776C9.42822 19.6401 9.03894 20.2838 8.8922 21H15.1078C14.9611 20.2838 14.5718 19.6401 14.0056 19.1776C13.4395 18.715 12.7311 18.4619 12 18.4609ZM12 10C12.7417 10 13.4667 9.78007 14.0834 9.36801C14.7001 8.95596 15.1807 8.37029 15.4645 7.68506C15.7484 6.99984 15.8226 6.24584 15.6779 5.51841C15.5333 4.79098 15.1761 4.1228 14.6517 3.59835C14.1272 3.0739 13.459 2.71675 12.7316 2.57206C12.0042 2.42736 11.2502 2.50162 10.5649 2.78545C9.87971 3.06928 9.29404 3.54993 8.88199 4.16661C8.46993 4.7833 8.25 5.50832 8.25 6.25C8.25114 7.24421 8.64659 8.19738 9.34961 8.9004C10.0526 9.60341 11.0058 9.99886 12 10ZM19.707 15.7852C17.6615 13.7441 14.8897 12.5977 12 12.5977C9.11027 12.5977 6.33855 13.7441 4.293 15.7852L4 16.0781V21H6.8922C7.04013 19.7492 7.64187 18.5962 8.58332 17.7595C9.52477 16.9228 10.7405 16.4607 12 16.4607C13.2595 16.4607 14.4752 16.9228 15.4167 17.7595C16.3581 18.5962 16.9599 19.7492 17.1078 21H20V16.0781L19.707 15.7852Z" fill="black"/>
</svg>
