<svg width="24" height="24" viewBox="0 0 24 24" fill="none" xmlns="http://www.w3.org/2000/svg">
<path d="M4.625 10.3711C5.25543 10.3711 5.8717 10.1842 6.39588 9.8339C6.92006 9.48366 7.32861 8.98584 7.56987 8.4034C7.81112 7.82096 7.87424 7.18006 7.75125 6.56174C7.62826 5.94343 7.32468 5.37547 6.8789 4.92969C6.43312 4.48391 5.86516 4.18033 5.24685 4.05734C4.62854 3.93435 3.98764 3.99747 3.4052 4.23873C2.82276 4.47998 2.32494 4.88853 1.97469 5.41272C1.62444 5.9369 1.4375 6.55317 1.4375 7.1836C1.43853 8.02866 1.77469 8.83881 2.37224 9.43636C2.96979 10.0339 3.77994 10.3701 4.625 10.3711ZM4.625 4.4961C5.15654 4.4961 5.67614 4.65371 6.11809 4.94902C6.56005 5.24433 6.90452 5.66406 7.10793 6.15513C7.31134 6.64621 7.36456 7.18658 7.26086 7.7079C7.15716 8.22922 6.9012 8.70809 6.52535 9.08394C6.1495 9.4598 5.67063 9.71576 5.14931 9.81946C4.62798 9.92315 4.08761 9.86993 3.59654 9.66652C3.10546 9.46311 2.68573 9.11865 2.39043 8.67669C2.09512 8.23473 1.9375 7.71513 1.9375 7.1836C1.93829 6.47107 2.2217 5.78796 2.72553 5.28412C3.22936 4.78029 3.91247 4.49689 4.625 4.4961ZM13.375 10.3711C14.0054 10.3711 14.6217 10.1842 15.1459 9.8339C15.6701 9.48366 16.0786 8.98584 16.3199 8.4034C16.5611 7.82096 16.6242 7.18006 16.5013 6.56174C16.3783 5.94343 16.0747 5.37547 15.6289 4.92969C15.1831 4.48391 14.6152 4.18033 13.9969 4.05734C13.3785 3.93435 12.7376 3.99747 12.1552 4.23873C11.5728 4.47998 11.0749 4.88853 10.7247 5.41272C10.3744 5.9369 10.1875 6.55317 10.1875 7.1836C10.1885 8.02866 10.5247 8.83881 11.1222 9.43636C11.7198 10.0339 12.5299 10.3701 13.375 10.3711ZM13.375 4.4961C13.9065 4.4961 14.4261 4.65371 14.8681 4.94902C15.3101 5.24433 15.6545 5.66406 15.8579 6.15513C16.0613 6.64621 16.1146 7.18658 16.0109 7.7079C15.9072 8.22922 15.6512 8.70809 15.2753 9.08394C14.8995 9.4598 14.4206 9.71576 13.8993 9.81946C13.378 9.92315 12.8376 9.86993 12.3465 9.66652C11.8555 9.46311 11.4357 9.11865 11.1404 8.67669C10.8451 8.23473 10.6875 7.71513 10.6875 7.1836C10.6883 6.47107 10.9717 5.78796 11.4755 5.28412C11.9794 4.78029 12.6625 4.49689 13.375 4.4961ZM13.375 12.1875C11.742 12.1862 10.1728 12.8211 9 13.9574C7.81239 12.8095 6.22148 12.1739 4.56985 12.1875C2.91822 12.2011 1.33798 12.8627 0.1694 14.03L0 14.2V20H18V14.2L17.8306 14.0307C17.2459 13.4451 16.5513 12.9809 15.7867 12.6645C15.0221 12.3482 14.2025 12.1861 13.375 12.1875ZM8.75 19.5H0.5V14.4067L0.5229 14.3838C1.61173 13.2975 3.08697 12.6875 4.625 12.6875C6.16303 12.6875 7.63827 13.2975 8.7271 14.3838L8.75 14.4067V19.5ZM17.5 19.5H9.25V14.4067L9.2729 14.3838C10.3617 13.2975 11.837 12.6875 13.375 12.6875C14.913 12.6875 16.3883 13.2975 17.4771 14.3838L17.5 14.4067V19.5ZM21.25 10.121V7.4239H20.75V10.121H18.0529V10.621H20.75V13.3182H21.25V10.621H23.9471V10.121H21.25Z" fill="black"/>
</svg>
