<svg width="24" height="24" viewBox="0 0 24 24" fill="none" xmlns="http://www.w3.org/2000/svg">
<path d="M14.9888 10.1855L11.9879 12.5343L8.98547 8.54426V8.53666H8.97917C8.68766 8.15019 8.31042 7.83666 7.87715 7.62077C7.44388 7.40487 6.96641 7.2925 6.48232 7.2925C5.99824 7.2925 5.52077 7.40487 5.0875 7.62077C4.65422 7.83666 4.27698 8.15019 3.98547 8.53666V21.9998H4.98547V14.9998H7.98547V21.9998H8.98547V9.96696L11.3655 13.0834C11.497 13.2556 11.6909 13.3691 11.9055 13.3996C12.12 13.4301 12.3379 13.3749 12.5122 13.2462L14.99 11.4147V21.9998H15.99V15.9998H18.99V21.9998H19.99V10.1873C19.2765 9.62804 18.3962 9.324 17.4897 9.32367C16.5832 9.32335 15.7027 9.62676 14.9888 10.1855ZM7.98537 13.9998H4.98537V8.90796C5.38496 8.5129 5.92447 8.29174 6.48638 8.29266C7.04829 8.29357 7.58708 8.51649 7.98537 8.91286V13.9998ZM18.99 14.9998H15.99V10.7166C16.448 10.4588 16.9647 10.3236 17.4902 10.324C18.0158 10.3243 18.5323 10.4602 18.99 10.7186V14.9998ZM6.48547 5.78516C6.83159 5.78516 7.16994 5.68252 7.45772 5.49023C7.74551 5.29794 7.96981 5.02462 8.10226 4.70485C8.23472 4.38508 8.26937 4.03322 8.20185 3.69375C8.13432 3.35428 7.96765 3.04246 7.72291 2.79772C7.47817 2.55298 7.16635 2.38631 6.82688 2.31878C6.48741 2.25126 6.13555 2.28591 5.81578 2.41837C5.49601 2.55082 5.22269 2.77512 5.0304 3.06291C4.83811 3.3507 4.73547 3.68904 4.73547 4.03516C4.73547 4.49929 4.91985 4.94441 5.24804 5.27259C5.57623 5.60078 6.02134 5.78516 6.48547 5.78516ZM6.48547 3.18516C6.65359 3.18516 6.81793 3.23501 6.95771 3.32841C7.09749 3.42181 7.20644 3.55456 7.27077 3.70988C7.33511 3.86519 7.35194 4.0361 7.31914 4.20098C7.28634 4.36587 7.20539 4.51732 7.08651 4.6362C6.96764 4.75507 6.81618 4.83603 6.6513 4.86882C6.48642 4.90162 6.31551 4.88479 6.16019 4.82045C6.00488 4.75612 5.87212 4.64717 5.77872 4.50739C5.68533 4.36761 5.63547 4.20327 5.63547 4.03516C5.63571 3.8098 5.72534 3.59373 5.8847 3.43438C6.04405 3.27503 6.26011 3.1854 6.48547 3.18516ZM17.4902 7.78516C17.8363 7.78516 18.1746 7.68252 18.4624 7.49023C18.7502 7.29794 18.9745 7.02462 19.107 6.70485C19.2394 6.38508 19.2741 6.03322 19.2065 5.69375C19.139 5.35428 18.9724 5.04246 18.7276 4.79772C18.4829 4.55298 18.171 4.38631 17.8316 4.31878C17.4921 4.25126 17.1402 4.28591 16.8205 4.41837C16.5007 4.55082 16.2274 4.77512 16.0351 5.06291C15.8428 5.3507 15.7402 5.68904 15.7402 6.03516C15.7402 6.49925 15.9245 6.94434 16.2527 7.27252C16.5808 7.60071 17.0259 7.7851 17.49 7.78516H17.4902ZM17.4902 5.18516C17.6583 5.18516 17.8226 5.23501 17.9624 5.32841C18.1022 5.42181 18.2111 5.55456 18.2755 5.70988C18.3398 5.86519 18.3566 6.0361 18.3238 6.20098C18.291 6.36587 18.2101 6.51732 18.0912 6.6362C17.9723 6.75507 17.8209 6.83603 17.656 6.86882C17.4911 6.90162 17.3202 6.88479 17.1649 6.82045C17.0096 6.75612 16.8768 6.64717 16.7834 6.50739C16.69 6.36761 16.6402 6.20327 16.6402 6.03516C16.6404 5.80983 16.73 5.5938 16.8893 5.43445C17.0486 5.2751 17.2646 5.18545 17.49 5.18516H17.4902Z" fill="black"/>
</svg>
