<svg width="24" height="24" viewBox="0 0 24 24" fill="none" xmlns="http://www.w3.org/2000/svg">
<path d="M16.0417 8.7705C15.6808 8.77052 15.3279 8.87756 15.0279 9.07809C14.7278 9.27862 14.4939 9.56363 14.3558 9.89709C14.2177 10.2305 14.1815 10.5975 14.2519 10.9514C14.3224 11.3054 14.4962 11.6306 14.7514 11.8858C15.0066 12.141 15.3317 12.3148 15.6857 12.3852C16.0397 12.4556 16.4066 12.4195 16.7401 12.2814C17.0735 12.1433 17.3586 11.9094 17.5591 11.6093C17.7596 11.3092 17.8667 10.9564 17.8667 10.5955C17.8667 10.3558 17.8195 10.1185 17.7278 9.89709C17.6361 9.67566 17.5016 9.47447 17.3322 9.305C17.1627 9.13553 16.9615 9.0011 16.7401 8.90939C16.5187 8.81768 16.2813 8.77049 16.0417 8.7705ZM16.0417 11.9205C15.7796 11.9205 15.5235 11.8428 15.3056 11.6972C15.0878 11.5516 14.918 11.3446 14.8177 11.1025C14.7174 10.8604 14.6912 10.594 14.7424 10.337C14.7935 10.08 14.9197 9.84396 15.105 9.65868C15.2903 9.47341 15.5264 9.34724 15.7834 9.29614C16.0404 9.24504 16.3068 9.27129 16.5489 9.37159C16.791 9.47189 16.9979 9.64172 17.1434 9.85961C17.289 10.0775 17.3667 10.3337 17.3667 10.5957C17.3661 10.9469 17.2263 11.2835 16.9779 11.5318C16.7296 11.78 16.3929 11.9196 16.0417 11.92V11.9205ZM7.95828 8.7705C7.59735 8.7705 7.24453 8.87753 6.94443 9.07804C6.64433 9.27856 6.41042 9.56357 6.2723 9.89702C6.13417 10.2305 6.09803 10.5974 6.16843 10.9514C6.23884 11.3054 6.41264 11.6305 6.66784 11.8858C6.92305 12.141 7.24821 12.3148 7.60219 12.3852C7.95618 12.4556 8.32311 12.4195 8.65657 12.2814C8.99003 12.1433 9.27504 11.9094 9.47558 11.6093C9.67611 11.3092 9.78316 10.9564 9.78318 10.5955C9.78318 10.1115 9.59091 9.64732 9.24868 9.30507C8.90645 8.96281 8.44228 8.77053 7.95828 8.7705ZM7.95828 11.9205C7.69623 11.9205 7.44007 11.8428 7.22219 11.6972C7.00431 11.5516 6.83449 11.3447 6.73422 11.1026C6.63394 10.8605 6.60771 10.5941 6.65884 10.3371C6.70997 10.0801 6.83617 9.84401 7.02147 9.65872C7.20677 9.47343 7.44285 9.34726 7.69986 9.29615C7.95688 9.24504 8.22327 9.27129 8.46536 9.37158C8.70746 9.47188 8.91437 9.64171 9.05994 9.8596C9.20551 10.0775 9.2832 10.3337 9.28318 10.5957C9.2826 10.9469 9.1428 11.2834 8.89444 11.5317C8.64609 11.7799 8.30943 11.9196 7.95828 11.92V11.9205ZM12.4412 2H11.5588C9.43705 2 7.40221 2.84285 5.90192 4.34315C4.40163 5.84344 3.55878 7.87827 3.55878 10V12.5294C3.55878 13.5903 3.9802 14.6077 4.73035 15.3578C5.4805 16.108 6.49791 16.5294 7.55878 16.5294H7.91188V19C7.91188 19.5304 8.12259 20.0391 8.49766 20.4142C8.87274 20.7893 9.38144 21 9.91188 21H14.0881C14.6185 21 15.1272 20.7893 15.5023 20.4142C15.8774 20.0391 16.0881 19.5304 16.0881 19V16.5294H16.4412C17.502 16.5294 18.5195 16.108 19.2696 15.3578C20.0197 14.6077 20.4412 13.5903 20.4412 12.5294V10C20.4412 7.87827 19.5983 5.84344 18.098 4.34315C16.5977 2.84285 14.5629 2 12.4412 2ZM19.9412 12.5294C19.9401 13.4573 19.5711 14.347 18.9149 15.0031C18.2588 15.6593 17.3691 16.0284 16.4412 16.0294H15.5881V19C15.5877 19.3977 15.4295 19.779 15.1483 20.0602C14.8671 20.3414 14.4858 20.4996 14.0881 20.5H9.91188C9.51418 20.4996 9.1329 20.3414 8.85168 20.0602C8.57047 19.779 8.4123 19.3977 8.41188 19V16.0294H7.55878C6.63084 16.0284 5.7412 15.6593 5.08504 15.0031C4.42889 14.347 4.05981 13.4573 4.05878 12.5294V10C4.06103 8.01157 4.85193 6.10522 6.25796 4.69918C7.664 3.29315 9.57034 2.50225 11.5588 2.5H12.4412C14.4296 2.50225 16.336 3.29315 17.742 4.69918C19.148 6.10522 19.9389 8.01157 19.9412 10V12.5294ZM12 11C11.9549 11 11.9115 11.0173 11.8788 11.0484C11.8461 11.0795 11.8267 11.122 11.8245 11.1671L11.6587 14.5H12.3413L12.1755 11.1671C12.1733 11.122 12.1538 11.0795 12.1212 11.0484C12.0885 11.0173 12.0451 11 12 11Z" fill="black"/>
</svg>
