<svg width="24" height="24" viewBox="0 0 24 24" fill="none" xmlns="http://www.w3.org/2000/svg">
<path d="M12 5.25C12.2966 5.25 12.5866 5.16203 12.8333 4.9972C13.08 4.83238 13.2723 4.59811 13.3858 4.32403C13.4993 4.04994 13.529 3.74834 13.4711 3.45737C13.4133 3.16639 13.2704 2.89912 13.0606 2.68934C12.8508 2.47956 12.5836 2.3367 12.2926 2.27882C12.0016 2.22094 11.7 2.25065 11.4259 2.36418C11.1519 2.47771 10.9176 2.66997 10.7528 2.91665C10.5879 3.16332 10.5 3.45333 10.5 3.75C10.5 4.14783 10.658 4.52936 10.9393 4.81066C11.2206 5.09197 11.6021 5.25 12 5.25ZM1.83997 7V7.8C1.83997 7.98565 1.91372 8.1637 2.04499 8.29497C2.17627 8.42625 2.35431 8.5 2.53997 8.5H8.99997V23H10.5V15.75H13.5V23H15V8.5H21.46C21.6456 8.5 21.8237 8.42625 21.9549 8.29497C22.0862 8.1637 22.16 7.98565 22.16 7.8V7H1.83997ZM13.5 14.25H10.5V8.5H13.5V14.25Z" fill="black"/>
</svg>
