<svg width="24" height="24" viewBox="0 0 24 24" fill="none" xmlns="http://www.w3.org/2000/svg">
<path d="M17.8032 10.1057L14.06 6.94867C13.5189 6.4923 12.8338 6.24197 12.1259 6.24197H8.7026C8.4176 6.24198 8.13845 6.32288 7.8976 6.47526C7.65674 6.62764 7.46408 6.84524 7.342 7.10277L5.7358 10.4928L6.7698 11.0892L8.7109 7.74297L11.6382 7.75587L6.72 16.2498L1.6517 16.5292V17.7498H6.8417C7.07363 17.7498 7.30254 17.6971 7.51115 17.5957C7.71976 17.4944 7.90264 17.347 8.046 17.1647L10.4645 14.0881L13.8785 16.9012L14.1417 21.9705H15.3785V16.7749C15.3786 16.4002 15.2412 16.0384 14.9925 15.7582L12.4425 12.8838L14.522 9.30117L16.8076 11.2287C17.0942 11.4705 17.4634 11.5917 17.8376 11.5668L21.7512 11.3056V10.1056L17.8032 10.1057ZM15.8455 5.70117C16.1422 5.70117 16.4322 5.6132 16.6789 5.44838C16.9255 5.28356 17.1178 5.04929 17.2313 4.7752C17.3449 4.50111 17.3746 4.19951 17.3167 3.90854C17.2588 3.61757 17.1159 3.35029 16.9062 3.14051C16.6964 2.93073 16.4291 2.78787 16.1381 2.72999C15.8472 2.67212 15.5456 2.70182 15.2715 2.81535C14.9974 2.92888 14.7631 3.12114 14.5983 3.36782C14.4335 3.61449 14.3455 3.9045 14.3455 4.20117C14.3455 4.599 14.5035 4.98053 14.7848 5.26183C15.0661 5.54314 15.4477 5.70117 15.8455 5.70117Z" fill="black"/>
</svg>
