<svg width="24" height="24" viewBox="0 0 24 24" fill="none" xmlns="http://www.w3.org/2000/svg">
<path d="M19.042 5.3409C18.7873 5.34076 18.5353 5.39315 18.3017 5.4948C18.0682 5.59645 17.8581 5.74519 17.6846 5.9317V4.2286C17.6846 3.85571 17.5724 3.49145 17.3625 3.18322C17.1527 2.87499 16.8549 2.63707 16.5079 2.50042C16.161 2.36377 15.7809 2.33471 15.4173 2.41704C15.0536 2.49937 14.7231 2.68926 14.4688 2.962V2.8888C14.4652 2.39841 14.2679 1.92932 13.9198 1.58382C13.5718 1.23832 13.1013 1.04443 12.6109 1.04443C12.1204 1.04443 11.6499 1.23832 11.3019 1.58382C10.9538 1.92932 10.7565 2.39841 10.7529 2.8888V2.962C10.4986 2.68926 10.1681 2.49937 9.80445 2.41704C9.44076 2.33471 9.06071 2.36377 8.71377 2.50042C8.36682 2.63707 8.06903 2.87499 7.85917 3.18322C7.64931 3.49145 7.53709 3.85571 7.5371 4.2286L7.5654 14.9418L7.5503 14.9436L5.5527 11.7452C5.40188 11.5029 5.20373 11.2935 4.97011 11.1296C4.7365 10.9657 4.47222 10.8505 4.19308 10.7911C3.91395 10.7317 3.62569 10.7291 3.34555 10.7837C3.06542 10.8382 2.79916 10.9487 2.5627 11.1085L1.9719 11.5069C1.88153 11.5682 1.81641 11.6601 1.78858 11.7657C1.76074 11.8713 1.77209 11.9833 1.8205 12.0812L4.5979 17.6712C5.38369 19.2663 6.60166 20.6086 8.11308 21.5453C9.6245 22.4819 11.3686 22.9753 13.1467 22.9691C15.2023 22.9668 17.173 22.1492 18.6265 20.6957C20.08 19.2422 20.8976 17.2715 20.9 15.2159V7.1993C20.8993 6.7067 20.7034 6.23445 20.3551 5.88609C20.0068 5.53772 19.5346 5.34167 19.042 5.3409ZM20.4 15.2159C20.3977 17.139 19.6327 18.9826 18.2728 20.3423C16.9129 21.7021 15.0692 22.4668 13.1461 22.4689C11.461 22.4747 9.80822 22.0071 8.37588 21.1195C6.94355 20.2319 5.78927 18.9599 5.0445 17.4483L2.2871 11.8976L2.8418 11.5226C3.02274 11.4005 3.22642 11.3162 3.44068 11.2745C3.65494 11.2329 3.87539 11.2349 4.08887 11.2804C4.30234 11.3259 4.50446 11.4139 4.68316 11.5393C4.86185 11.6646 5.01345 11.8247 5.1289 12.0099L7.1572 15.255C7.20948 15.3183 7.27752 15.3667 7.35447 15.3954C7.43142 15.424 7.51456 15.4318 7.5955 15.4181L7.5995 15.4407C8.63832 15.2078 9.72365 15.3 10.7082 15.705C11.6928 16.1099 12.529 16.8079 13.1034 17.7043L13.537 17.4563C12.9487 16.5585 12.1221 15.8422 11.1496 15.3877C10.1771 14.9333 9.09733 14.7587 8.0312 14.8834L8.0371 4.2286C8.0371 3.86847 8.18017 3.52308 8.43482 3.26842C8.68948 3.01377 9.03487 2.8707 9.395 2.8707C9.75514 2.8707 10.1005 3.01377 10.3552 3.26842C10.6098 3.52308 10.7529 3.86847 10.7529 4.2286V10.9454H11.2529V2.8888C11.256 2.53067 11.4004 2.18825 11.6547 1.93609C11.9091 1.68394 12.2527 1.54246 12.6109 1.54246C12.969 1.54246 13.3126 1.68394 13.567 1.93609C13.8213 2.18825 13.9657 2.53067 13.9688 2.8888V10.9454H14.4688V4.2286C14.4688 3.86847 14.6119 3.52308 14.8665 3.26842C15.1212 3.01377 15.4666 2.8707 15.8267 2.8707C16.1868 2.8707 16.5322 3.01377 16.7869 3.26842C17.0415 3.52308 17.1846 3.86847 17.1846 4.2286V12.0001H17.6846V7.1993C17.6846 6.83917 17.8277 6.49378 18.0823 6.23912C18.337 5.98447 18.6824 5.8414 19.0425 5.8414C19.4026 5.8414 19.748 5.98447 20.0027 6.23912C20.2573 6.49378 20.4004 6.83917 20.4004 7.1993L20.4 15.2159Z" fill="black"/>
</svg>
