<svg width="24" height="24" viewBox="0 0 24 24" fill="none" xmlns="http://www.w3.org/2000/svg">
<path d="M11.2917 5.49463C11.6378 5.49463 11.9762 5.39199 12.2639 5.1997C12.5517 5.00741 12.776 4.7341 12.9085 4.41433C13.0409 4.09455 13.0756 3.74269 13.0081 3.40322C12.9405 3.06375 12.7739 2.75193 12.5291 2.50719C12.2844 2.26245 11.9726 2.09578 11.6331 2.02826C11.2936 1.96073 10.9418 1.99539 10.622 2.12784C10.3022 2.26029 10.0289 2.4846 9.83663 2.77238C9.64434 3.06017 9.5417 3.39851 9.5417 3.74463C9.5417 4.20876 9.72607 4.65388 10.0543 4.98207C10.3825 5.31026 10.8276 5.49463 11.2917 5.49463ZM13.8945 17.9881H10.5C9.57208 17.987 8.68249 17.6179 8.02635 16.9618C7.37022 16.3056 7.00111 15.416 7 14.4881V7.48813C7 7.35552 6.94732 7.22834 6.85355 7.13458C6.75979 7.04081 6.63261 6.98813 6.5 6.98813C6.36739 6.98813 6.24021 7.04081 6.14645 7.13458C6.05268 7.22834 6 7.35552 6 7.48813V14.4881C6.00132 15.6812 6.47585 16.825 7.31948 17.6686C8.16311 18.5123 9.30693 18.9868 10.5 18.9881H13.8945C14.0271 18.9881 14.1543 18.9355 14.2481 18.8417C14.3418 18.7479 14.3945 18.6207 14.3945 18.4881C14.3945 18.3555 14.3418 18.2283 14.2481 18.1346C14.1543 18.0408 14.0271 17.9881 13.8945 17.9881ZM17.44 15.5698C17.3401 15.1259 17.0925 14.7289 16.7379 14.4437C16.3832 14.1586 15.9424 14.0021 15.4873 13.9998H13.6641V9.33313C13.6641 8.71429 13.4182 8.12081 12.9806 7.68323C12.543 7.24566 11.9495 6.99983 11.3307 6.99983H10.3666C10.0042 6.99986 9.65658 7.14385 9.4003 7.40013C9.14402 7.65641 9.00003 8.00399 9 8.36643V14.3331C9 14.7752 9.1756 15.1991 9.48816 15.5117C9.80073 15.8242 10.2247 15.9998 10.6667 15.9998H15.4873L16.8073 21.9998H18.855L17.44 15.5698Z" fill="black"/>
</svg>
