<svg width="24" height="24" viewBox="0 0 24 24" fill="none" xmlns="http://www.w3.org/2000/svg">
<path d="M12.2917 5.24463C12.5884 5.24463 12.8784 5.15666 13.1251 4.99183C13.3717 4.82701 13.564 4.59274 13.6775 4.31865C13.791 4.04457 13.8208 3.74297 13.7629 3.45199C13.705 3.16102 13.5621 2.89375 13.3524 2.68397C13.1426 2.47419 12.8753 2.33133 12.5843 2.27345C12.2934 2.21557 11.9918 2.24528 11.7177 2.35881C11.4436 2.47234 11.2093 2.6646 11.0445 2.91127C10.8797 3.15795 10.7917 3.44796 10.7917 3.74463C10.7917 4.14245 10.9497 4.52398 11.231 4.80529C11.5123 5.08659 11.8939 5.24463 12.2917 5.24463ZM16.8691 14.4998H15.3334V9.83313C15.3334 9.08168 15.0348 8.36102 14.5035 7.82968C13.9721 7.29833 13.2514 6.99983 12.5 6.99983H11.5C11.1022 6.99983 10.7206 7.15787 10.4393 7.43917C10.158 7.72047 10 8.10201 10 8.49983V14.9998C10 15.265 10.1054 15.5194 10.2929 15.7069C10.4804 15.8945 10.7348 15.9998 11 15.9998H16.8691V21.9998H18.3691V15.9998C18.3687 15.6021 18.2105 15.2208 17.9293 14.9396C17.6481 14.6584 17.2668 14.5003 16.8691 14.4998ZM13.8334 14.4998H11.5V8.49983H12.5C12.8535 8.50023 13.1924 8.64082 13.4424 8.89078C13.6924 9.14073 13.833 9.47963 13.8334 9.83313V14.4998ZM14.582 17.9988H10.9668C10.181 17.998 9.42765 17.6854 8.87201 17.1298C8.31636 16.5742 8.0038 15.8208 8.0029 15.035V7.74883C8.0029 7.54992 7.92388 7.35915 7.78323 7.2185C7.64258 7.07785 7.45181 6.99883 7.2529 6.99883C7.05399 6.99883 6.86322 7.07785 6.72257 7.2185C6.58192 7.35915 6.5029 7.54992 6.5029 7.74883V15.035C6.50454 16.2184 6.97537 17.3529 7.81216 18.1896C8.64895 19.0264 9.78341 19.4972 10.9668 19.4988H14.582C14.7809 19.4988 14.9717 19.4198 15.1123 19.2792C15.253 19.1385 15.332 18.9477 15.332 18.7488C15.332 18.5499 15.253 18.3592 15.1123 18.2185C14.9717 18.0778 14.7809 17.9988 14.582 17.9988Z" fill="black"/>
</svg>
