<svg width="24" height="24" viewBox="0 0 24 24" fill="none" xmlns="http://www.w3.org/2000/svg">
<g clip-path="url(#clip0)">
<path d="M3.5 9.82112C3.52171 7.7649 4.29736 5.78817 5.67982 4.2659C7.06227 2.74363 8.95537 1.78171 11 1.56262V1.05762C8.82202 1.27842 6.80187 2.29437 5.32594 3.91116C3.85001 5.52794 3.0219 7.63208 3 9.82112V13.0359C3.00075 15.5941 3.9111 18.0687 5.5684 20.0174L5.9236 19.6621C4.35952 17.8084 3.50109 15.4614 3.5 13.0359V9.82112ZM13 1.05762V1.56262C15.0446 1.78171 16.9377 2.74363 18.3202 4.2659C19.7026 5.78817 20.4783 7.7649 20.5 9.82112V13.0359C20.498 14.3954 20.0386 15.7147 19.1957 16.7814L19.552 17.1377C20.4874 15.9751 20.9982 14.5281 21 13.0359V9.82112C20.9781 7.63208 20.15 5.52794 18.6741 3.91116C17.1981 2.29437 15.178 1.27842 13 1.05762ZM14.1875 19.2137C12.5318 19.2294 10.9375 18.5879 9.75412 17.4298C8.57077 16.2717 7.89499 14.6916 7.875 13.0359V9.82112C7.89874 8.74283 8.34377 7.7167 9.11477 6.96249C9.88577 6.20828 10.9214 5.78595 12 5.78595C13.0786 5.78595 14.1142 6.20828 14.8852 6.96249C15.6562 7.7167 16.1013 8.74283 16.125 9.82112V13.0359C16.1135 13.5422 15.9043 14.0238 15.5422 14.3777C15.1801 14.7317 14.6939 14.9299 14.1875 14.9299C13.6811 14.9299 13.1949 14.7317 12.8328 14.3777C12.4707 14.0238 12.2615 13.5422 12.25 13.0359V9.82112H11.75V13.0359C11.7616 13.6747 12.0235 14.2835 12.4793 14.7312C12.9352 15.1788 13.5486 15.4297 14.1875 15.4297C14.8264 15.4297 15.4398 15.1788 15.8957 14.7312C16.3515 14.2835 16.6134 13.6747 16.625 13.0359V9.82112C16.6011 8.61029 16.1033 7.45712 15.2386 6.60925C14.3738 5.76139 13.2111 5.28646 12 5.28646C10.7889 5.28646 9.62617 5.76139 8.76142 6.60925C7.89666 7.45712 7.39889 8.61029 7.375 9.82112V13.0359C7.39508 14.8241 8.12356 16.5314 9.40067 17.7832C10.6778 19.0351 12.3992 19.7293 14.1875 19.7137C15.5806 19.7152 16.9412 19.2926 18.0884 18.5022L17.731 18.1449C16.6816 18.844 15.4484 19.2159 14.1875 19.2137ZM6.9934 21.4204C9.01778 23.0919 11.5622 24.0042 14.1875 23.9998V23.4998C11.6947 23.5045 9.27734 22.6446 7.3475 21.0666L6.9934 21.4204Z" fill="black"/>
</g>
<defs>
<clipPath id="clip0">
<rect width="24" height="24" fill="white"/>
</clipPath>
</defs>
</svg>
