<svg width="24" height="24" viewBox="0 0 24 24" fill="none" xmlns="http://www.w3.org/2000/svg">
<path d="M19.75 4.79589C19.4185 4.79589 19.1005 4.92758 18.8661 5.162C18.6317 5.39642 18.5 5.71436 18.5 6.04589V12.3313C18.1752 12.1591 17.8414 12.0043 17.5 11.8677V3.67559C17.5 3.34406 17.3683 3.02612 17.1339 2.7917C16.8995 2.55728 16.5815 2.42559 16.25 2.42559C15.9185 2.42559 15.6005 2.55728 15.3661 2.7917C15.1317 3.02612 15 3.34406 15 3.67559V11.2212C14.6678 11.1765 14.3345 11.1472 14 11.1332V2.21729C14 1.88576 13.8683 1.56782 13.6339 1.3334C13.3995 1.09898 13.0815 0.967285 12.75 0.967285C12.4185 0.967285 12.1005 1.09898 11.8661 1.3334C11.6317 1.56782 11.5 1.88576 11.5 2.21729V11.1131H10.5V3.67559C10.5 3.34406 10.3683 3.02612 10.1339 2.7917C9.89947 2.55728 9.58153 2.42559 9.25001 2.42559C8.91849 2.42559 8.60055 2.55728 8.36613 2.7917C8.13171 3.02612 8.00001 3.34406 8.00001 3.67559V13.1131L7.99851 16.3631L4.80321 12.8623C4.55926 12.595 4.22692 12.425 3.86746 12.3835C3.50801 12.342 3.14566 12.4318 2.84721 12.6364L1.89331 13.2903L5.21421 18.6503C6.05331 20.0044 7.21946 21.1258 8.60538 21.9112C9.99129 22.6967 11.5525 23.121 13.1453 23.1452C15.2372 23.1343 17.2393 22.2937 18.712 20.808C20.1847 19.3222 21.0076 17.3128 21 15.2209V6.04589C21 5.71436 20.8683 5.39642 20.6339 5.162C20.3995 4.92758 20.0815 4.79589 19.75 4.79589Z" fill="black"/>
</svg>
