<svg width="24" height="24" viewBox="0 0 24 24" fill="none" xmlns="http://www.w3.org/2000/svg">
<path d="M12 4.75C12.3461 4.75 12.6845 4.64737 12.9722 4.45507C13.26 4.26278 13.4843 3.98947 13.6168 3.6697C13.7492 3.34993 13.7839 2.99806 13.7164 2.65859C13.6489 2.31913 13.4822 2.00731 13.2374 1.76256C12.9927 1.51782 12.6809 1.35115 12.3414 1.28363C12.0019 1.2161 11.6501 1.25076 11.3303 1.38321C11.0105 1.51566 10.7372 1.73997 10.5449 2.02775C10.3526 2.31554 10.25 2.65388 10.25 3C10.25 3.46413 10.4344 3.90925 10.7626 4.23744C11.0908 4.56563 11.5359 4.75 12 4.75ZM12 1.75C12.2472 1.75 12.4889 1.82331 12.6945 1.96066C12.9 2.09802 13.0602 2.29324 13.1549 2.52165C13.2495 2.75005 13.2742 3.00139 13.226 3.24386C13.1778 3.48634 13.0587 3.70907 12.8839 3.88388C12.7091 4.0587 12.4863 4.17775 12.2439 4.22598C12.0014 4.27421 11.7501 4.24946 11.5216 4.15485C11.2932 4.06024 11.098 3.90002 10.9607 3.69446C10.8233 3.4889 10.75 3.24723 10.75 3C10.7504 2.66859 10.8822 2.35087 11.1165 2.11653C11.3509 1.88219 11.6686 1.75037 12 1.75ZM15.9092 7.4439C14.8724 6.4072 13.4662 5.8248 12 5.8248C10.5338 5.8248 9.12763 6.4072 8.0908 7.4439L7.8208 7.7139V16.2362H9.5V24H14.5V16.2361H16.179V7.7138L15.9092 7.4439ZM15.6792 15.7361H14V23.5H12.2528L12.3604 15.74L11.8604 15.7322L11.7527 23.5H10V15.7361H8.321V7.9208L8.4443 7.7975C9.38736 6.85457 10.6664 6.32485 12 6.32485C13.3336 6.32485 14.6125 6.85457 15.5556 7.7975L15.679 7.9209L15.6792 15.7361Z" fill="black"/>
</svg>
