<svg width="24" height="24" viewBox="0 0 24 24" fill="none" xmlns="http://www.w3.org/2000/svg">
<path d="M21.791 16.9158L21.084 16.2088L19 18.2928L16.916 16.2088L16.209 16.9158L18.293 18.9998L16.209 21.0838L16.916 21.7908L19 19.7068L21.084 21.7908L21.791 21.0838L19.707 18.9998L21.791 16.9158ZM9.6123 0.999793C7.6177 0.978758 5.69618 1.74963 4.26914 3.14335C2.84211 4.53707 2.02608 6.43985 2 8.43439H3C3.02579 6.70498 3.73638 5.05639 4.97593 3.85014C6.21549 2.6439 7.88283 1.97847 9.6123 1.99979C11.275 1.97151 12.8811 2.60366 14.0785 3.75766C15.2759 4.91166 15.9669 6.49335 16 8.15599C16.0008 9.64892 15.7003 11.1267 15.1163 12.5006C14.5324 13.8746 13.677 15.1166 12.6016 16.1521L7.3506 21.2721C6.86569 21.7388 6.21891 21.9996 5.5459 21.9998C4.881 22.009 4.23959 21.7541 3.76234 21.2911C3.28508 20.8281 3.01092 20.1947 3 19.5298V17.2498H2V19.5298C2.01121 20.4598 2.39081 21.3474 3.05555 21.9979C3.72028 22.6484 4.61587 23.0087 5.5459 22.9998C6.48066 23.0042 7.37965 22.6408 8.0488 21.9881L13.2988 16.8689C14.4703 15.7404 15.402 14.387 16.0379 12.8899C16.6739 11.3927 17.0012 9.78262 17 8.15599C16.9666 6.22822 16.1702 4.39233 14.7853 3.05086C13.4005 1.70938 11.5402 0.971786 9.6123 0.999793ZM6.0449 15.4578H5.3613V16.4578H6.0449C6.46555 16.458 6.87682 16.3334 7.22664 16.0998C7.57647 15.8662 7.84914 15.5341 8.01014 15.1455C8.17115 14.7568 8.21325 14.3292 8.13113 13.9166C8.04901 13.5041 7.84635 13.1251 7.5488 12.8278L6.4072 11.6863L6.41 8.73219C6.41479 7.88215 6.75675 7.06875 7.36079 6.47064C7.96482 5.87253 8.78155 5.5386 9.6316 5.54219C9.96262 5.54336 10.2901 5.60983 10.5954 5.73781C10.9007 5.86579 11.1777 6.05276 11.4106 6.28799C11.6435 6.52323 11.8277 6.80211 11.9526 7.10866C12.0775 7.4152 12.1407 7.74338 12.1385 8.07439C12.1385 8.71301 12.0488 9.34846 11.8719 9.96209L12.8328 10.2395C13.0376 9.52758 13.1405 8.79026 13.1385 8.04949C13.1375 7.58739 13.0454 7.13003 12.8674 6.70356C12.6895 6.27709 12.4292 5.88989 12.1015 5.5641C11.7738 5.23831 11.385 4.98033 10.9575 4.80491C10.53 4.62949 10.0721 4.54008 9.61 4.54179C8.49834 4.54316 7.43246 4.98464 6.6454 5.76971C5.85835 6.55477 5.41418 7.61954 5.41 8.73119L5.407 12.1004L6.8416 13.535C6.99922 13.6925 7.10657 13.8933 7.15006 14.1118C7.19355 14.3304 7.17122 14.5569 7.0859 14.7628C7.00058 14.9686 6.85611 15.1446 6.67076 15.2683C6.48542 15.392 6.26754 15.458 6.0447 15.4578H6.0449Z" fill="black"/>
</svg>
