<svg width="24" height="24" viewBox="0 0 24 24" fill="none" xmlns="http://www.w3.org/2000/svg">
<path d="M20.8284 12L21.8965 10.932C22.4316 10.3968 22.7322 9.671 22.7322 8.91418C22.7322 8.15735 22.4315 7.43154 21.8964 6.8964C21.3612 6.36126 20.6354 6.06063 19.8785 6.06065C19.1217 6.06067 18.3959 6.36133 17.8608 6.8965L15.7573 9H8.24265L6.13915 6.8964C5.87418 6.63141 5.5596 6.42121 5.21339 6.27779C4.86718 6.13438 4.49611 6.06056 4.12137 6.06055C3.36455 6.06053 2.63872 6.36116 2.10355 6.8963C1.56838 7.43144 1.26772 8.15725 1.2677 8.91408C1.26768 9.6709 1.56831 10.3967 2.10345 10.9319L3.17155 12L2.10345 13.068C1.56831 13.6032 1.26768 14.329 1.2677 15.0858C1.26772 15.8426 1.56838 16.5685 2.10355 17.1036C2.63872 17.6387 3.36455 17.9394 4.12137 17.9393C4.87819 17.9393 5.60401 17.6387 6.13915 17.1035L8.24265 15H15.7573L17.8608 17.1035C18.3959 17.6387 19.1217 17.9393 19.8785 17.9393C20.6354 17.9394 21.3612 17.6387 21.8964 17.1036C22.4315 16.5685 22.7322 15.8426 22.7322 15.0858C22.7322 14.329 22.4316 13.6032 21.8965 13.068L20.8284 12ZM20.8358 16.0431C20.5823 16.2968 20.2383 16.4394 19.8795 16.4396C19.5208 16.4398 19.1767 16.2975 18.9228 16.044L16.3789 13.5H7.62105L5.07805 16.043C4.82423 16.2968 4.47997 16.4394 4.12102 16.4394C3.76206 16.4394 3.41781 16.2968 3.164 16.0429C2.91019 15.7891 2.7676 15.4449 2.76761 15.0859C2.76762 14.727 2.91022 14.3827 3.16405 14.1289L5.29295 12L3.16405 9.8711C2.91011 9.61742 2.76734 9.27325 2.76715 8.9143C2.76706 8.73657 2.80197 8.56056 2.8699 8.39633C2.93783 8.23209 3.03744 8.08284 3.16305 7.9571C3.28866 7.83136 3.43781 7.73159 3.60197 7.66349C3.76614 7.59539 3.94211 7.56029 4.11984 7.56019C4.47879 7.56001 4.82311 7.70242 5.07705 7.9561L7.62105 10.5H16.3789L18.9219 7.957C19.0475 7.83132 19.1967 7.73163 19.3609 7.66362C19.5252 7.59561 19.7011 7.5606 19.8789 7.56061C20.0566 7.56061 20.2326 7.59563 20.3968 7.66365C20.561 7.73167 20.7102 7.83137 20.8359 7.95705C20.9616 8.08273 21.0613 8.23193 21.1293 8.39614C21.1973 8.56035 21.2323 8.73635 21.2323 8.91408C21.2323 9.09182 21.1973 9.26781 21.1292 9.43202C21.0612 9.59622 20.9615 9.74542 20.8358 9.8711L18.707 12L20.8358 14.1289C21.0892 14.383 21.2314 14.7272 21.2314 15.0859C21.2314 15.4447 21.0892 15.7889 20.8358 16.043V16.0431Z" fill="#231F20"/>
</svg>
