<svg width="24" height="24" viewBox="0 0 24 24" fill="none" xmlns="http://www.w3.org/2000/svg">
<path d="M21 3H5.12502C5.12502 3 2.45502 6 2.45502 12V13C2.45502 13.5304 2.66573 14.0391 3.0408 14.4142C3.41588 14.7893 3.92458 15 4.45502 15H10.125L8.65442 20.15C8.51112 20.6524 8.57079 21.191 8.82057 21.6498C9.07035 22.1087 9.49029 22.4511 9.99002 22.6035L11.1241 22.9492L15.4172 15H21V3ZM10.8785 22.3516L10.1356 22.1252C9.76226 22.0095 9.44883 21.7526 9.26205 21.4092C9.07527 21.0658 9.02991 20.6631 9.13562 20.2868L10.6056 15.1373L10.7876 14.5H4.45462C4.05692 14.4996 3.67564 14.3414 3.39442 14.0602C3.11321 13.779 2.95504 13.3977 2.95462 13V12C2.83951 8.98298 3.68374 6.00712 5.36602 3.5H15V14.72L10.8785 22.3516ZM20.5 14.5H15.5V3.5H20.5V14.5Z" fill="black"/>
</svg>
