<svg width="24" height="24" viewBox="0 0 24 24" fill="none" xmlns="http://www.w3.org/2000/svg">
<path d="M12.3364 10.6178C12.6796 10.6178 13.0195 10.5502 13.3366 10.4189C13.6537 10.2875 13.9418 10.095 14.1845 9.85233C14.4272 9.60964 14.6197 9.32153 14.7511 9.00444C14.8824 8.68735 14.95 8.34749 14.95 8.00427C14.95 5.91337 12.3364 1.20117 12.3364 1.20117C12.3364 1.20117 9.72292 5.91337 9.72292 8.00427C9.72294 8.69741 9.9983 9.36215 10.4884 9.85227C10.9785 10.3424 11.6433 10.6177 12.3364 10.6178ZM12.3364 4.12627C12.9781 5.34069 13.4216 6.64987 13.65 8.00427C13.65 8.35263 13.5116 8.68673 13.2653 8.93306C13.019 9.17939 12.6849 9.31777 12.3365 9.31777C11.9882 9.31777 11.6541 9.17939 11.4077 8.93306C11.1614 8.68673 11.023 8.35263 11.023 8.00427C11.2514 6.6499 11.6948 5.34072 12.3364 4.12627ZM22.6084 16.7978L22.4393 16.0592C22.2962 15.4327 21.9243 14.8823 21.3965 14.5158C20.8687 14.1493 20.2231 13.993 19.5861 14.0777L16.3298 14.5105C16.3365 14.5905 16.3541 14.6679 16.3541 14.7498C16.3532 15.523 16.0457 16.2644 15.4989 16.8112C14.9521 17.358 14.2108 17.6656 13.4375 17.6665H8.34122V16.4998H13.4375C13.9016 16.4998 14.3468 16.3154 14.675 15.9872C15.0031 15.659 15.1875 15.2139 15.1875 14.7498C15.1875 14.2856 15.0031 13.8405 14.675 13.5123C14.3468 13.1841 13.9016 12.9998 13.4375 12.9998H8.34122L2.04572 14.9998V22.6664L8.04572 20.6664H13.0457L22.16 17.6015C22.3214 17.5473 22.4567 17.4349 22.5396 17.2863C22.6225 17.1377 22.6471 16.9635 22.6084 16.7978Z" fill="black"/>
</svg>
