<svg width="24" height="24" viewBox="0 0 24 24" fill="none" xmlns="http://www.w3.org/2000/svg">
<path d="M19.0908 8.99976H14.3252L15.436 5.11646C15.6487 4.37295 15.5661 3.57603 15.2053 2.89198C14.8446 2.20793 14.2337 1.68961 13.5 1.44516L11.5195 0.785156L7.083 8.99976H3V20.9998H9H18.3164C18.3164 20.9998 21.0908 18.4164 21.0908 12.1039V10.9998C21.0908 10.4693 20.8801 9.96062 20.505 9.58554C20.1299 9.21047 19.6212 8.99976 19.0908 8.99976ZM5 10.9998H7V18.9998H5V10.9998ZM19.0908 12.1039C19.2136 14.5221 18.6152 16.9222 17.3715 18.9998H9V9.65886L12.4808 3.21386L12.8677 3.34266C13.1126 3.4237 13.3166 3.59641 13.4369 3.82456C13.5573 4.05271 13.5846 4.31859 13.5132 4.56646L12.4023 8.44976L11.6729 10.9998H19.0908V12.1039Z" fill="black"/>
</svg>
