<svg width="24" height="24" viewBox="0 0 24 24" fill="none" xmlns="http://www.w3.org/2000/svg">
<path d="M7.8948 11.3333H8.3333V12.7178C8.3333 12.9737 8.38371 13.2272 8.48165 13.4636C8.57959 13.7 8.72315 13.9149 8.90412 14.0958C9.0851 14.2768 9.29994 14.4204 9.53639 14.5183C9.77285 14.6162 10.0263 14.6666 10.2822 14.6666H13.7178C13.9737 14.6666 14.2272 14.6162 14.4636 14.5183C14.7001 14.4204 14.9149 14.2768 15.0959 14.0958C15.2768 13.9149 15.4204 13.7 15.5183 13.4636C15.6163 13.2272 15.6667 12.9737 15.6667 12.7178V11.3333H16.1052C16.7845 11.3333 17.4361 11.0634 17.9165 10.5831C18.3968 10.1027 18.6667 9.45115 18.6667 8.7718V6.6875C18.6667 5.17908 18.0675 3.73244 17.0009 2.66583C15.9343 1.59922 14.4876 1 12.9792 1H11.0208C9.51238 1 8.06574 1.59922 6.99913 2.66583C5.93252 3.73244 5.3333 5.17908 5.3333 6.6875V8.7718C5.3333 9.45115 5.60317 10.1027 6.08354 10.5831C6.56392 11.0634 7.21545 11.3333 7.8948 11.3333ZM6.333 6.6875C6.3343 5.4447 6.82857 4.25317 7.70737 3.37437C8.58616 2.49557 9.77769 2.0013 11.0205 2H12.98C14.2227 2.00143 15.4141 2.49576 16.2928 3.37455C17.1715 4.25333 17.6657 5.44478 17.667 6.6875V8.7715C17.6666 9.18552 17.502 9.58248 17.2092 9.87524C16.9165 10.168 16.5195 10.3326 16.1055 10.333H14.667V12.7178C14.6668 12.9695 14.5667 13.2108 14.3888 13.3888C14.2108 13.5667 13.9695 13.6668 13.7178 13.667H10.2822C10.0305 13.6668 9.78921 13.5667 9.61125 13.3888C9.43328 13.2108 9.33321 12.9695 9.333 12.7178V10.333H7.8945C7.48048 10.3326 7.08352 10.168 6.79076 9.87524C6.498 9.58248 6.33337 9.18552 6.333 8.7715V6.6875ZM12.3174 8H11.6826L11.3526 10H12.6466L12.3174 8ZM19.5166 15.4619L19.1084 14.5498L12 17.7357L4.8916 14.55L4.4834 15.4621L10.7783 18.2834L4.4834 21.1045L4.8916 22.0166L12 18.8307L19.1084 22.0166L19.5166 21.1045L13.2217 18.2832L19.5166 15.4619ZM14.886 8.54C15.1906 8.54004 15.4884 8.44975 15.7416 8.28056C15.9949 8.11137 16.1923 7.87087 16.3089 7.58947C16.4255 7.30808 16.456 6.99843 16.3966 6.69968C16.3372 6.40094 16.1906 6.12652 15.9752 5.91113C15.7598 5.69573 15.4854 5.54904 15.1867 5.48961C14.888 5.43017 14.5783 5.46065 14.2969 5.57721C14.0155 5.69376 13.775 5.89115 13.6057 6.1444C13.4365 6.39766 13.3462 6.69541 13.3462 7C13.3462 7.4084 13.5084 7.80007 13.7972 8.08887C14.0859 8.37767 14.4776 8.53995 14.886 8.54ZM14.886 6.36C15.0126 6.36 15.1363 6.39754 15.2416 6.46786C15.3468 6.53818 15.4288 6.63814 15.4773 6.75508C15.5257 6.87203 15.5384 7.00071 15.5137 7.12486C15.489 7.24901 15.4281 7.36304 15.3385 7.45255C15.249 7.54205 15.135 7.60301 15.0109 7.6277C14.8867 7.6524 14.758 7.63972 14.6411 7.59128C14.5241 7.54284 14.4242 7.46081 14.3539 7.35557C14.2835 7.25032 14.246 7.12658 14.246 7C14.2462 6.83031 14.3136 6.66762 14.4336 6.54763C14.5536 6.42764 14.7163 6.36016 14.886 6.36ZM9.114 8.54C9.41859 8.54004 9.71635 8.44975 9.96963 8.28056C10.2229 8.11137 10.4203 7.87087 10.5369 7.58947C10.6535 7.30808 10.684 6.99843 10.6246 6.69968C10.5652 6.40094 10.4186 6.12652 10.2032 5.91113C9.98785 5.69573 9.71345 5.54904 9.41471 5.48961C9.11598 5.43017 8.80632 5.46065 8.52491 5.57721C8.2435 5.69376 8.00298 5.89115 7.83375 6.1444C7.66452 6.39766 7.5742 6.69541 7.5742 7C7.5742 7.4084 7.73642 7.80007 8.02518 8.08887C8.31395 8.37767 8.7056 8.53995 9.114 8.54ZM9.114 6.36C9.24058 6.36 9.36432 6.39754 9.46956 6.46786C9.57481 6.53818 9.65684 6.63814 9.70528 6.75508C9.75372 6.87203 9.7664 7.00071 9.7417 7.12486C9.71701 7.24901 9.65605 7.36304 9.56655 7.45255C9.47704 7.54205 9.363 7.60301 9.23886 7.6277C9.11471 7.6524 8.98603 7.63972 8.86908 7.59128C8.75214 7.54284 8.65218 7.46081 8.58186 7.35557C8.51153 7.25032 8.474 7.12658 8.474 7C8.47416 6.83031 8.54164 6.66762 8.66163 6.54763C8.78161 6.42764 8.94431 6.36016 9.114 6.36Z" fill="#231F20"/>
</svg>
