<svg width="24" height="24" viewBox="0 0 24 24" fill="none" xmlns="http://www.w3.org/2000/svg">
<path d="M15.5635 3.99902C16.1771 5.0638 16.5 6.27112 16.5 7.50002C16.5 8.72892 16.1771 9.93624 15.5635 11.001L16.4287 11.501C17.1306 10.2844 17.5 8.90457 17.5 7.50002C17.5 6.09548 17.1306 4.71564 16.4287 3.49902L15.5635 3.99902ZM19.8935 1.49902L19.0282 1.99902C19.9924 3.67203 20.4999 5.56907 20.4999 7.50002C20.4999 9.43098 19.9924 11.328 19.0282 13.001L19.8935 13.501C20.9459 11.6762 21.4999 9.60661 21.4999 7.50002C21.4999 5.39344 20.9459 3.32389 19.8935 1.49902ZM9.52091 10.7916C10.172 10.7916 10.8084 10.5986 11.3497 10.2369C11.891 9.87516 12.3129 9.36106 12.5621 8.75958C12.8112 8.15809 12.8764 7.49624 12.7494 6.85771C12.6223 6.21918 12.3088 5.63265 11.8485 5.1723C11.3881 4.71196 10.8016 4.39846 10.163 4.27146C9.5245 4.14446 8.86264 4.20966 8.26117 4.45882C7.65969 4.70797 7.1456 5.1299 6.78392 5.67123C6.42223 6.21256 6.22919 6.84898 6.22921 7.50002C6.23027 8.3727 6.57742 9.20933 7.19451 9.8264C7.81159 10.4435 8.64824 10.7906 9.52091 10.7916ZM9.52091 5.20832C9.97417 5.20832 10.4172 5.34273 10.7941 5.59454C11.171 5.84636 11.4647 6.20427 11.6382 6.62303C11.8116 7.04178 11.857 7.50257 11.7686 7.94711C11.6802 8.39166 11.4619 8.8 11.1414 9.1205C10.8209 9.441 10.4125 9.65926 9.968 9.74769C9.52346 9.83611 9.06267 9.79073 8.64392 9.61728C8.22517 9.44382 7.86725 9.15009 7.61544 8.77322C7.36362 8.39636 7.22921 7.95328 7.22921 7.50002C7.22988 6.89243 7.47153 6.30991 7.90117 5.88028C8.3308 5.45064 8.91332 5.20899 9.52091 5.20832ZM9.53091 12.9109C8.36801 12.9089 7.21618 13.1367 6.14156 13.5812C5.06695 14.0257 4.09075 14.6781 3.26901 15.5009L3.03091 15.739V21H16.0309V15.7388L15.7929 15.5007C14.9712 14.6779 13.995 14.0256 12.9204 13.5811C11.8459 13.1367 10.6941 12.9089 9.53121 12.9109H9.53091ZM15.0312 20H4.03121V16.1606C4.03931 16.1536 4.10851 16.0856 4.11661 16.0787C5.57592 14.6872 7.51492 13.9109 9.53131 13.9109C11.5477 13.9109 13.4867 14.6872 14.946 16.0787C14.9541 16.0856 15.0233 16.1536 15.0312 16.1606V20Z" fill="black"/>
</svg>
