<svg width="24" height="24" viewBox="0 0 24 24" fill="none" xmlns="http://www.w3.org/2000/svg">
<path d="M20.4473 12.1816L22.4131 10.2158L21.3877 9.18999L19.4218 11.156L14.8164 6.55179L12.332 7.96779C12.0856 8.10701 11.8004 8.16184 11.5199 8.12392C11.2394 8.08601 10.979 7.95744 10.7783 7.75779L10.3183 7.29879L13.3622 4.25589C13.5771 4.03963 13.8328 3.86812 14.1144 3.75128C14.396 3.63444 14.6979 3.57459 15.0028 3.57519H18.417V2.12599H15.0029C14.5076 2.1246 14.0169 2.22151 13.5592 2.4111C13.1016 2.60069 12.6861 2.8792 12.3369 3.23049L11.9163 3.65049L11.4963 3.23049C11.1469 2.87916 10.7312 2.60063 10.2734 2.41104C9.81553 2.22145 9.32464 2.12457 8.82911 2.12599H5.41601V3.57519H8.82911C9.13415 3.57449 9.4363 3.6343 9.71808 3.75114C9.99986 3.86798 10.2557 4.03954 10.4707 4.25589L10.8907 4.67589L9.14001 6.42679C9.02547 6.5413 8.93461 6.67725 8.87262 6.82688C8.81063 6.97651 8.77873 7.13688 8.77873 7.29884C8.77873 7.4608 8.81063 7.62118 8.87262 7.7708C8.93461 7.92043 9.02547 8.05638 9.14001 8.17089L9.75331 8.78319C10.179 9.20703 10.7317 9.4799 11.327 9.56012C11.9223 9.64035 12.5275 9.52353 13.0502 9.22749L14.5746 8.35839L19.5111 13.2959C19.6083 13.3926 19.6854 13.5076 19.7381 13.6342C19.7907 13.7608 19.8178 13.8966 19.8178 14.0337C19.8178 14.1708 19.7907 14.3066 19.7381 14.4332C19.6854 14.5598 19.6083 14.6748 19.5111 14.7715L19.4877 14.7949C19.2916 14.972 19.0369 15.0702 18.7727 15.0705C18.5085 15.0709 18.2536 14.9734 18.057 14.7969L16.8197 13.5605L15.7943 14.5859L17.0078 15.8C17.0195 15.8117 17.0312 15.8234 17.0439 15.8352L17.5518 16.343C17.7475 16.5387 17.8574 16.8041 17.8574 17.0808C17.8574 17.3575 17.7475 17.6229 17.5518 17.8186C17.3561 18.0143 17.0907 18.1242 16.814 18.1242C16.5373 18.1242 16.2719 18.0143 16.0762 17.8186L13.6318 15.373C13.3041 15.0466 12.8892 14.8217 12.4368 14.7253C12.5607 14.2978 12.5669 13.8447 12.4547 13.4139C12.3425 12.9832 12.1161 12.5907 11.7994 12.2779C11.4826 11.9652 11.0873 11.7437 10.6551 11.637C10.223 11.5303 9.77004 11.5422 9.34411 11.6716C9.24669 11.1928 9.01091 10.7532 8.66601 10.4072L8.62791 10.37C8.17244 9.91609 7.55563 9.66123 6.91261 9.66123C6.26959 9.66123 5.65278 9.91609 5.19731 10.37L4.41061 11.1566L2.41801 9.16409L1.39261 10.19L3.38531 12.1826L3.29691 12.271C2.97529 12.5919 2.74755 12.9946 2.63834 13.4356C2.52914 13.8765 2.54263 14.339 2.67734 14.7729C2.81206 15.2067 3.06288 15.5955 3.40266 15.8971C3.74243 16.1986 4.15822 16.4015 4.60501 16.4838C4.49517 16.8792 4.48693 17.296 4.58105 17.6954C4.67517 18.0949 4.86861 18.4641 5.14343 18.7689C5.41825 19.0736 5.76557 19.3041 6.15318 19.4389C6.5408 19.5737 6.95618 19.6085 7.36081 19.54C7.42083 20.1517 7.70706 20.7189 8.16345 21.1306C8.61983 21.5423 9.21348 21.7688 9.82811 21.7657C10.1557 21.7662 10.4802 21.7022 10.783 21.5772C11.0858 21.4522 11.361 21.2687 11.5928 21.0372L11.9165 20.7134L12.25 21.047C12.5828 21.3795 13.0027 21.6111 13.4615 21.7153C13.9202 21.8194 14.399 21.7917 14.8427 21.6354C15.2863 21.4791 15.6768 21.2005 15.969 20.8319C16.2612 20.4633 16.4432 20.0195 16.4941 19.5519C16.8958 19.6036 17.304 19.5568 17.6836 19.4155C18.0631 19.2741 18.4025 19.0425 18.6725 18.7406C18.9425 18.4387 19.1349 18.0756 19.2331 17.6827C19.3313 17.2898 19.3324 16.8789 19.2363 16.4855C19.7281 16.393 20.1806 16.1541 20.5342 15.8L20.5898 15.7414C21.0337 15.2694 21.2763 14.643 21.2663 13.9952C21.2563 13.3473 20.9944 12.7288 20.5361 12.2707L20.4473 12.1816ZM4.32231 13.2959L6.22231 11.3959C6.31249 11.3055 6.41966 11.2339 6.53766 11.1851C6.65565 11.1363 6.78213 11.1114 6.90981 11.1117C7.03978 11.1117 7.16846 11.1375 7.28845 11.1874C7.40845 11.2373 7.51739 11.3105 7.60901 11.4027L7.64321 11.4359C7.83989 11.6346 7.95009 11.903 7.94981 12.1826C7.94952 12.4622 7.83879 12.7304 7.64171 12.9287L5.79831 14.7728C5.59948 14.9626 5.33518 15.0685 5.06031 15.0685C4.78544 15.0685 4.52113 14.9626 4.32231 14.7728C4.12682 14.5768 4.01704 14.3112 4.01704 14.0343C4.01704 13.7575 4.12682 13.4919 4.32231 13.2959ZM6.28121 17.8174C6.18403 17.7206 6.10691 17.6055 6.0543 17.4788C6.00168 17.3521 5.9746 17.2163 5.9746 17.0791C5.9746 16.9419 6.00168 16.8061 6.0543 16.6794C6.10691 16.5527 6.18403 16.4376 6.28121 16.3408L6.82321 15.7986L6.82421 15.7979L8.66601 13.9561L8.66941 13.9518L9.30761 13.3135C9.40433 13.2155 9.51948 13.1376 9.64642 13.0843C9.77336 13.031 9.90958 13.0034 10.0473 13.0029C10.1849 13.0025 10.3213 13.0293 10.4486 13.0817C10.5759 13.1342 10.6916 13.2113 10.7889 13.3087C10.8863 13.406 10.9634 13.5217 11.0159 13.649C11.0684 13.7762 11.0952 13.9126 11.0947 14.0503C11.0943 14.188 11.0666 14.3242 11.0133 14.4512C10.9601 14.5781 10.8822 14.6933 10.7842 14.79L7.75681 17.8174C7.55812 18.0073 7.29386 18.1133 7.01901 18.1133C6.74416 18.1133 6.4799 18.0073 6.28121 17.8174ZM9.09121 20.0117C8.99403 19.9149 8.91692 19.7998 8.86431 19.6731C8.81169 19.5464 8.78461 19.4106 8.78461 19.2734C8.78461 19.1363 8.81169 19.0004 8.86431 18.8737C8.91692 18.7471 8.99403 18.632 9.09121 18.5352L11.227 16.3984C11.4094 16.2157 11.6567 16.1129 11.9149 16.1123C12.173 16.1118 12.4208 16.2136 12.6039 16.3955L12.7039 16.4961C12.8864 16.6791 12.9888 16.9271 12.9888 17.1855C12.9888 17.444 12.8864 17.6919 12.7039 17.875L10.5682 20.0117C10.372 20.2071 10.1064 20.3168 9.82951 20.3168C9.55261 20.3168 9.287 20.2071 9.09081 20.0117H9.09121ZM14.7524 20.0217C14.5535 20.2116 14.2891 20.3176 14.0141 20.3176C13.7391 20.3176 13.4747 20.2116 13.2758 20.0217L12.9421 19.6879L13.7289 18.9006C13.9661 18.6626 14.1508 18.3776 14.2712 18.0639L14.7524 18.5451C14.8496 18.6419 14.9267 18.757 14.9793 18.8837C15.0319 19.0104 15.059 19.1462 15.059 19.2834C15.059 19.4206 15.0319 19.5564 14.9793 19.6831C14.9267 19.8098 14.8496 19.9249 14.7524 20.0217Z" fill="black"/>
</svg>
