<svg width="24" height="24" viewBox="0 0 24 24" fill="none" xmlns="http://www.w3.org/2000/svg">
<path d="M9.25 9.22466V15H10.9V20H13.1V15H14.75V9.22466C14.0207 8.49532 13.0314 8.08558 12 8.08558C10.9686 8.08558 9.97935 8.49532 9.25 9.22466ZM12.95 13.2H11.05V10.1129C11.3444 9.96344 11.6699 9.88556 12 9.88556C12.3301 9.88556 12.6556 9.96344 12.95 10.1129V13.2ZM12 6.77996C12.2789 6.77996 12.5515 6.69727 12.7834 6.54233C13.0152 6.3874 13.196 6.16719 13.3027 5.90955C13.4094 5.6519 13.4373 5.3684 13.3829 5.09488C13.3285 4.82137 13.1942 4.57013 12.997 4.37294C12.7998 4.17575 12.5486 4.04146 12.2751 3.98705C12.0016 3.93265 11.7181 3.96057 11.4604 4.06729C11.2028 4.17401 10.9826 4.35473 10.8276 4.58661C10.6727 4.81848 10.59 5.09109 10.59 5.36996C10.59 5.74392 10.7386 6.10256 11.003 6.36698C11.2674 6.63141 11.626 6.77996 12 6.77996ZM4.5 6.77996C4.77887 6.77996 5.05148 6.69727 5.28335 6.54233C5.51523 6.3874 5.69595 6.16719 5.80267 5.90955C5.90939 5.6519 5.93731 5.3684 5.88291 5.09488C5.8285 4.82137 5.69421 4.57013 5.49702 4.37294C5.29983 4.17575 5.04859 4.04146 4.77508 3.98705C4.50156 3.93265 4.21806 3.96057 3.96042 4.06729C3.70277 4.17401 3.48256 4.35473 3.32763 4.58661C3.1727 4.81848 3.09 5.09109 3.09 5.36996C3.09 5.74392 3.23855 6.10256 3.50298 6.36698C3.76741 6.63141 4.12604 6.77996 4.5 6.77996ZM19.5 6.77996C19.7789 6.77996 20.0515 6.69727 20.2834 6.54233C20.5152 6.3874 20.6959 6.16719 20.8027 5.90955C20.9094 5.6519 20.9373 5.3684 20.8829 5.09488C20.8285 4.82137 20.6942 4.57013 20.497 4.37294C20.2998 4.17575 20.0486 4.04146 19.7751 3.98705C19.5016 3.93265 19.2181 3.96057 18.9604 4.06729C18.7028 4.17401 18.4826 4.35473 18.3276 4.58661C18.1727 4.81848 18.09 5.09109 18.09 5.36996C18.09 5.74392 18.2386 6.10256 18.503 6.36698C18.7674 6.63141 19.126 6.77996 19.5 6.77996ZM19.5 8.08606C18.9892 8.0854 18.4833 8.18569 18.0113 8.38118C17.5394 8.57666 17.1107 8.86348 16.75 9.22516V15H18.4V20H20.6V15H22.25V9.22466C21.8893 8.86298 21.4606 8.57616 20.9887 8.38068C20.5167 8.18519 20.0108 8.0849 19.5 8.08556V8.08606ZM20.45 13.2H18.55V10.1129C18.8444 9.96344 19.1699 9.88556 19.5 9.88556C19.8301 9.88556 20.1556 9.96344 20.45 10.1129V13.2ZM1.75 9.22466V15H3.4V20H5.6V15H7.25V9.22466C6.52065 8.49532 5.53145 8.08558 4.5 8.08558C3.46855 8.08558 2.47935 8.49532 1.75 9.22466ZM5.45 13.2H3.55V10.1129C3.84438 9.96344 4.16986 9.88556 4.5 9.88556C4.83014 9.88556 5.15562 9.96344 5.45 10.1129V13.2Z" fill="black"/>
</svg>
