<svg width="24" height="24" viewBox="0 0 24 24" fill="none" xmlns="http://www.w3.org/2000/svg">
<path d="M12 10C12.7417 10 13.4667 9.78007 14.0834 9.36801C14.7001 8.95596 15.1807 8.37029 15.4645 7.68506C15.7484 6.99984 15.8226 6.24584 15.6779 5.51841C15.5333 4.79098 15.1761 4.1228 14.6517 3.59835C14.1272 3.0739 13.459 2.71675 12.7316 2.57206C12.0042 2.42736 11.2502 2.50162 10.5649 2.78545C9.87971 3.06928 9.29404 3.54993 8.88199 4.16661C8.46993 4.7833 8.25 5.50832 8.25 6.25C8.25114 7.24421 8.64659 8.19738 9.34961 8.9004C10.0526 9.60341 11.0058 9.99886 12 10ZM12 3C12.6428 3 13.2711 3.19061 13.8056 3.54773C14.3401 3.90484 14.7566 4.41242 15.0026 5.00628C15.2486 5.60014 15.313 6.25361 15.1876 6.88405C15.0622 7.51448 14.7526 8.09358 14.2981 8.5481C13.8436 9.00262 13.2645 9.31215 12.634 9.43755C12.0036 9.56296 11.3501 9.4986 10.7563 9.25261C10.1624 9.00663 9.65484 8.59006 9.29772 8.0556C8.94061 7.52115 8.75 6.89279 8.75 6.25C8.75095 5.38834 9.09367 4.56224 9.70296 3.95296C10.3122 3.34367 11.1383 3.00095 12 3ZM19.707 15.7852C17.6615 13.7441 14.8897 12.5977 12 12.5977C9.11027 12.5977 6.33855 13.7441 4.293 15.7852L4 16.0781V21H20V16.0781L19.707 15.7852ZM8.0617 20.5C8.11311 19.4902 8.55047 18.5387 9.2834 17.8421C10.0163 17.1455 10.9889 16.7571 12 16.7571C13.0111 16.7571 13.9837 17.1455 14.7166 17.8421C15.4495 18.5387 15.8869 19.4902 15.9383 20.5H8.0617ZM19.5 20.5H16.4384C16.3869 19.3574 15.8968 18.2787 15.0701 17.4884C14.2434 16.6981 13.1437 16.257 12 16.257C10.8563 16.257 9.75662 16.6981 8.92989 17.4884C8.10316 18.2787 7.61306 19.3574 7.5616 20.5H4.5V16.2852L4.6465 16.1387C6.59831 14.1913 9.24287 13.0977 12 13.0977C14.7571 13.0977 17.4017 14.1913 19.3535 16.1387L19.5 16.2852V20.5Z" fill="black"/>
</svg>
