<svg width="24" height="24" viewBox="0 0 24 24" fill="none" xmlns="http://www.w3.org/2000/svg">
<path d="M5.4826 9.875C6.07594 9.875 6.65596 9.69905 7.14931 9.36941C7.64266 9.03977 8.02717 8.57123 8.25424 8.02305C8.4813 7.47487 8.54071 6.87167 8.42496 6.28973C8.3092 5.70779 8.02348 5.17324 7.60392 4.75368C7.18436 4.33412 6.64981 4.0484 6.06787 3.93265C5.48593 3.81689 4.88273 3.8763 4.33455 4.10336C3.78637 4.33043 3.31784 4.71494 2.98819 5.20829C2.65855 5.70164 2.4826 6.28166 2.4826 6.875C2.48358 7.67035 2.79996 8.43284 3.36236 8.99524C3.92476 9.55764 4.68725 9.87402 5.4826 9.875ZM18.4826 9.875C19.0759 9.875 19.656 9.69905 20.1493 9.36941C20.6427 9.03977 21.0272 8.57123 21.2542 8.02305C21.4813 7.47487 21.5407 6.87167 21.425 6.28973C21.3092 5.70779 21.0235 5.17324 20.6039 4.75368C20.1844 4.33412 19.6498 4.0484 19.0679 3.93265C18.4859 3.81689 17.8827 3.8763 17.3345 4.10336C16.7864 4.33043 16.3178 4.71494 15.9882 5.20829C15.6585 5.70164 15.4826 6.28166 15.4826 6.875C15.4836 7.67035 15.8 8.43284 16.3624 8.99524C16.9248 9.55764 17.6873 9.87402 18.4826 9.875ZM23.7644 13.885C22.8069 12.9287 21.6059 12.2526 20.2916 11.9301L18.4826 14.9058L16.6735 11.9301C15.3592 12.2526 14.1583 12.9287 13.2008 13.885L13 14.0862V20H23.9651V14.0862L23.7644 13.885ZM7.2916 11.9305L5.4826 14.9062L3.6735 11.9305C2.35922 12.253 1.15828 12.9291 0.2008 13.8854L0 14.0862V20H10.9651V14.0862L10.7644 13.8854C9.80689 12.9291 8.60591 12.253 7.2916 11.9305Z" fill="black"/>
</svg>
