<svg width="24" height="24" viewBox="0 0 24 24" fill="none" xmlns="http://www.w3.org/2000/svg">
<path d="M19.5166 15.4619L19.1084 14.5498L12 17.7357L4.8916 14.55L4.4834 15.4621L10.7783 18.2834L4.4834 21.1045L4.8916 22.0166L12 18.8307L19.1084 22.0166L19.5166 21.1045L13.2217 18.2832L19.5166 15.4619ZM8 11H8.5V12.6666C8.5 13.197 8.71071 13.7057 9.08579 14.0808C9.46086 14.4559 9.96957 14.6666 10.5 14.6666H13.5C14.0304 14.6666 14.5391 14.4559 14.9142 14.0808C15.2893 13.7057 15.5 13.197 15.5 12.6666V11H16C16.663 11 17.2989 10.7366 17.7678 10.2678C18.2366 9.79893 18.5 9.16304 18.5 8.5V6.6875C18.5 5.17908 17.9008 3.73244 16.8342 2.66583C15.7676 1.59922 14.3209 1 12.8125 1H11.1875C9.67908 1 8.23244 1.59922 7.16583 2.66583C6.09922 3.73244 5.5 5.17908 5.5 6.6875V8.5C5.5 9.16304 5.76339 9.79893 6.23223 10.2678C6.70107 10.7366 7.33696 11 8 11ZM14.96 5.6088C15.214 5.60892 15.4623 5.68435 15.6734 5.82556C15.8846 5.96677 16.0491 6.16741 16.1462 6.40212C16.2433 6.63683 16.2687 6.89507 16.219 7.14418C16.1694 7.39329 16.047 7.62209 15.8674 7.80166C15.6877 7.98122 15.4588 8.10348 15.2097 8.15298C14.9606 8.20248 14.7023 8.17699 14.4677 8.07974C14.233 7.9825 14.0325 7.81786 13.8914 7.60664C13.7503 7.39542 13.675 7.14711 13.675 6.8931C13.675 6.72438 13.7082 6.55732 13.7728 6.40146C13.8374 6.24559 13.9321 6.10398 14.0514 5.98471C14.1707 5.86545 14.3124 5.77086 14.4683 5.70636C14.6242 5.64186 14.7913 5.60871 14.96 5.6088ZM11.5981 8.3367C11.6149 8.24231 11.6643 8.15683 11.7378 8.09526C11.8113 8.03368 11.9041 7.99994 12 7.99994C12.0959 7.99994 12.1887 8.03368 12.2622 8.09526C12.3357 8.15683 12.3851 8.24231 12.4019 8.3367L12.6973 10H11.3027L11.5981 8.3367ZM9.0405 5.6088C9.29454 5.60876 9.54289 5.68406 9.75414 5.82517C9.96538 5.96628 10.13 6.16687 10.2273 6.40157C10.3245 6.63626 10.35 6.89452 10.3004 7.14369C10.2509 7.39285 10.1286 7.62173 9.94894 7.80137C9.76931 7.98102 9.54045 8.10335 9.29129 8.15292C9.04212 8.20248 8.78386 8.17704 8.54916 8.07982C8.31445 7.9826 8.11385 7.81796 7.97272 7.60672C7.8316 7.39549 7.75628 7.14714 7.7563 6.8931C7.7563 6.5525 7.89159 6.22585 8.13243 5.985C8.37326 5.74415 8.6999 5.60883 9.0405 5.6088Z" fill="black"/>
</svg>
