<svg width="24" height="24" viewBox="0 0 24 24" fill="none" xmlns="http://www.w3.org/2000/svg">
<path d="M19.8 8.2V5.5529H18.2V8.2H15.5529V9.8H18.2V12.4468H19.8V9.8H22.4467V8.2H19.8ZM9.5 10C10.2911 10 11.0645 9.76541 11.7223 9.32588C12.3801 8.88635 12.8928 8.26164 13.1955 7.53074C13.4983 6.79983 13.5775 5.99556 13.4231 5.21964C13.2688 4.44372 12.8878 3.73098 12.3284 3.17157C11.769 2.61216 11.0563 2.2312 10.2804 2.07686C9.50444 1.92252 8.70017 2.00173 7.96927 2.30448C7.23836 2.60723 6.61365 3.11992 6.17412 3.77772C5.7346 4.43552 5.5 5.20888 5.5 6C5.50119 7.0605 5.923 8.07723 6.67289 8.82711C7.42278 9.577 8.4395 9.99881 9.5 10ZM9.5 4C9.89556 4 10.2822 4.1173 10.6111 4.33706C10.94 4.55683 11.1964 4.86918 11.3478 5.23463C11.4991 5.60009 11.5387 6.00222 11.4616 6.39018C11.3844 6.77814 11.1939 7.13451 10.9142 7.41422C10.6345 7.69392 10.2781 7.8844 9.89018 7.96157C9.50222 8.03874 9.10009 7.99914 8.73463 7.84776C8.36918 7.69639 8.05682 7.44004 7.83706 7.11114C7.6173 6.78224 7.5 6.39556 7.5 6C7.50061 5.46976 7.71152 4.9614 8.08646 4.58646C8.4614 4.21152 8.96975 4.00061 9.5 4ZM9.5 11.5781C8.1582 11.5758 6.82917 11.8385 5.58923 12.3514C4.34929 12.8642 3.22288 13.6169 2.2747 14.5663L2 14.841V20H17V14.841L16.7253 14.5663C15.7771 13.6169 14.6507 12.8642 13.4108 12.3514C12.1708 11.8385 10.8418 11.5758 9.5 11.5781ZM15 18H4V15.6849C5.5108 14.3284 7.46959 13.5781 9.5 13.5781C11.5304 13.5781 13.4892 14.3284 15 15.6849V18Z" fill="black"/>
</svg>
