<svg width="24" height="24" viewBox="0 0 24 24" fill="none" xmlns="http://www.w3.org/2000/svg">
<path d="M9.60779 5.64473C9.98358 5.64473 10.3509 5.53329 10.6634 5.32452C10.9758 5.11575 11.2194 4.81901 11.3632 4.47183C11.507 4.12465 11.5446 3.74262 11.4713 3.37406C11.398 3.00549 11.217 2.66694 10.9513 2.40122C10.6856 2.1355 10.347 1.95455 9.97847 1.88124C9.6099 1.80792 9.22787 1.84555 8.8807 1.98936C8.53352 2.13316 8.23678 2.37669 8.028 2.68914C7.81923 3.0016 7.70779 3.36894 7.70779 3.74473C7.70779 4.24864 7.90797 4.73191 8.26429 5.08823C8.62061 5.44455 9.10388 5.64473 9.60779 5.64473ZM9.60779 2.74473C9.80557 2.74473 9.99892 2.80338 10.1634 2.91326C10.3278 3.02314 10.456 3.17932 10.5317 3.36204C10.6074 3.54477 10.6272 3.74584 10.5886 3.93982C10.55 4.1338 10.4548 4.31198 10.3149 4.45183C10.175 4.59169 9.99687 4.68693 9.80289 4.72551C9.6089 4.7641 9.40784 4.74429 9.22511 4.66861C9.04238 4.59292 8.88621 4.46475 8.77632 4.3003C8.66644 4.13585 8.60779 3.94251 8.60779 3.74473C8.60808 3.4796 8.71354 3.22542 8.90101 3.03794C9.08848 2.85047 9.34267 2.74502 9.60779 2.74473ZM19.1216 14.4928C18.9762 13.9291 18.6343 13.4359 18.1574 13.102C17.6806 12.768 17.1002 12.6153 16.5208 12.6713H14.6667L13.8475 8.96133C13.7248 8.40523 13.4159 7.90769 12.972 7.55102C12.5281 7.19434 11.9757 6.99993 11.4062 6.99993H9.87999C9.65557 6.99996 9.434 7.05035 9.23164 7.14739C9.02927 7.24443 8.85126 7.38565 8.71072 7.56063C8.57019 7.7356 8.4707 7.93989 8.41961 8.15843C8.36851 8.37696 8.36711 8.60418 8.41549 8.82333L9.65359 14.4311C9.7518 14.8759 9.99892 15.2739 10.3541 15.5592C10.7092 15.8444 11.1511 15.9999 11.6066 15.9999H16.1043L17.429 21.9999H20.779L19.1216 14.4928ZM17.0808 15.7843L16.9076 14.9999H11.6066C11.3785 15.0011 11.157 14.9237 10.9792 14.7809C10.8014 14.6381 10.6782 14.4385 10.6301 14.2155L9.39199 8.60763C9.37589 8.5346 9.37636 8.45888 9.39339 8.38606C9.41043 8.31324 9.44357 8.24517 9.4904 8.18686C9.53722 8.12855 9.59653 8.08148 9.66396 8.04913C9.73138 8.01678 9.80521 7.99997 9.87999 7.99993H11.406C11.7481 7.99816 12.0804 8.11413 12.3472 8.32837C12.6139 8.54261 12.7989 8.84208 12.871 9.17653L13.6902 12.8865L13.8634 13.6709H16.5208C17.4077 13.6709 17.9997 14.0489 18.1452 14.708L19.5342 20.9999H18.2323L17.0808 15.7843ZM14.6875 17.9943H11.5918C10.7104 17.99 9.85661 17.6868 9.16997 17.1342C8.48333 16.5816 8.0045 15.8124 7.81179 14.9523L6.15229 7.38663C6.13909 7.32161 6.11308 7.25986 6.07578 7.205C6.03848 7.15013 5.99063 7.10324 5.93502 7.06705C5.87941 7.03086 5.81716 7.0061 5.75188 6.99421C5.68661 6.98232 5.61962 6.98354 5.55483 6.9978C5.49003 7.01206 5.42872 7.03908 5.37447 7.07727C5.32022 7.11546 5.27411 7.16407 5.23883 7.22026C5.20355 7.27645 5.17981 7.3391 5.16899 7.40456C5.15817 7.47001 5.16048 7.53697 5.17579 7.60153L6.83499 15.1669C7.07745 16.2492 7.68003 17.2171 8.54414 17.9123C9.40826 18.6075 10.4827 18.9889 11.5918 18.994H14.6875C14.8201 18.994 14.9473 18.9414 15.041 18.8476C15.1348 18.7538 15.1875 18.6266 15.1875 18.494C15.1875 18.3614 15.1348 18.2342 15.041 18.1405C14.9473 18.0467 14.8201 17.994 14.6875 17.994V17.9943Z" fill="black"/>
</svg>
