<svg width="24" height="24" viewBox="0 0 24 24" fill="none" xmlns="http://www.w3.org/2000/svg">
<path d="M12 4.75C12.3461 4.75 12.6845 4.64737 12.9722 4.45507C13.26 4.26278 13.4843 3.98947 13.6168 3.6697C13.7492 3.34993 13.7839 2.99806 13.7164 2.65859C13.6488 2.31913 13.4822 2.00731 13.2374 1.76256C12.9927 1.51782 12.6809 1.35115 12.3414 1.28363C12.0019 1.2161 11.6501 1.25076 11.3303 1.38321C11.0105 1.51566 10.7372 1.73997 10.5449 2.02775C10.3526 2.31554 10.25 2.65388 10.25 3C10.25 3.46413 10.4344 3.90925 10.7626 4.23744C11.0907 4.56563 11.5359 4.75 12 4.75ZM12 1.75C12.2472 1.75 12.4889 1.82331 12.6945 1.96066C12.9 2.09802 13.0602 2.29324 13.1548 2.52165C13.2495 2.75005 13.2742 3.00139 13.226 3.24386C13.1777 3.48634 13.0587 3.70907 12.8839 3.88388C12.7091 4.0587 12.4863 4.17775 12.2439 4.22598C12.0014 4.27421 11.75 4.24946 11.5216 4.15485C11.2932 4.06024 11.098 3.90002 10.9607 3.69446C10.8233 3.4889 10.75 3.24723 10.75 3C10.7504 2.66859 10.8822 2.35087 11.1165 2.11653C11.3509 1.88219 11.6686 1.75037 12 1.75ZM14.7969 7.2412L14.6055 7.05C14.2635 6.70759 13.8573 6.43595 13.4102 6.25061C12.9632 6.06528 12.484 5.96988 12 5.96988C11.516 5.96988 11.0368 6.06528 10.5897 6.25061C10.1427 6.43595 9.73651 6.70759 9.39449 7.05L9.20309 7.2409L6.37109 18H9.74769V24H14.2523V18H17.6289L14.7969 7.2412ZM13.7523 17.5V23.5H12.1971L12.25 17.502L11.75 17.498L11.6971 23.5H10.2477V17.5H7.01999L9.65249 7.5L9.74879 7.4039C10.0444 7.10799 10.3955 6.87326 10.782 6.71313C11.1684 6.55301 11.5826 6.47063 12.0009 6.47072C12.4192 6.4708 12.8334 6.55334 13.2198 6.71362C13.6062 6.8739 13.9572 7.10877 14.2527 7.4048L14.3481 7.5L16.9806 17.5H13.7523Z" fill="black"/>
</svg>
