<svg width="24" height="24" viewBox="0 0 24 24" fill="none" xmlns="http://www.w3.org/2000/svg">
<path d="M14.983 7.55669C15.4497 7.55673 15.9058 7.41839 16.2939 7.15915C16.6819 6.89992 16.9844 6.53144 17.163 6.10031C17.3416 5.66918 17.3883 5.19478 17.2973 4.73708C17.2063 4.27939 16.9816 3.85896 16.6516 3.52898C16.3216 3.199 15.9012 2.97427 15.4435 2.88323C14.9858 2.79219 14.5114 2.83891 14.0803 3.0175C13.6491 3.19609 13.2806 3.49851 13.0214 3.88653C12.7621 4.27455 12.6238 4.73073 12.6238 5.19739C12.6238 5.82309 12.8724 6.42316 13.3148 6.8656C13.7572 7.30805 14.3573 7.55664 14.983 7.55669ZM14.983 3.73799C15.2716 3.73797 15.5538 3.82355 15.7938 3.9839C16.0338 4.14425 16.2209 4.37217 16.3314 4.63883C16.4419 4.9055 16.4708 5.19894 16.4145 5.48205C16.3582 5.76515 16.2192 6.0252 16.0151 6.22931C15.811 6.43342 15.551 6.57242 15.2679 6.62874C14.9848 6.68506 14.6913 6.65617 14.4246 6.54571C14.158 6.43526 13.93 6.2482 13.7697 6.0082C13.6093 5.7682 13.5237 5.48604 13.5237 5.19739C13.5242 4.81049 13.678 4.43956 13.9516 4.16597C14.2252 3.89238 14.5961 3.73847 14.983 3.73799ZM22.62 17.0647L22.4594 16.2447C22.3128 15.4845 21.8811 14.8092 21.2527 14.357C20.6243 13.9048 19.8468 13.71 19.0794 13.8125L18.9503 13.8296C19.0815 13.4827 19.1499 13.1152 19.1524 12.7443C19.1525 11.8787 18.8088 11.0485 18.1968 10.4364C17.5848 9.82424 16.7548 9.48025 15.8892 9.48009C15.2427 9.48249 14.613 9.68646 14.0879 10.0636C13.713 9.62449 13.2475 9.2717 12.7233 9.02944C12.1992 8.78718 11.6289 8.66118 11.0515 8.66009C9.97576 8.66009 8.94407 9.08743 8.18341 9.8481C7.42274 10.6088 6.9954 11.6404 6.9954 12.7162C6.9954 12.8418 7.0208 12.9604 7.0323 13.083L2.0455 14.6667V23.0001L8.0455 21.0001H13.0455L22.1011 17.9551C22.2807 17.8946 22.4322 17.771 22.5277 17.6073C22.6231 17.4435 22.6559 17.2508 22.62 17.0647ZM11.0515 9.59299C11.5028 9.59431 11.9482 9.69467 12.3565 9.88698C12.7647 10.0793 13.1257 10.3589 13.4141 10.706L13.9197 11.2516L14.552 10.8662C14.9371 10.5747 15.4062 10.4158 15.8892 10.4134C16.5069 10.4142 17.0991 10.6599 17.5359 11.0967C17.9727 11.5335 18.2184 12.1257 18.2192 12.7434C18.2155 13.1823 18.0841 13.6107 17.8411 13.9762L15.6579 14.2662C15.5297 13.8068 15.2549 13.4018 14.8753 13.113C14.4958 12.8241 14.0322 12.6672 13.5552 12.6662H8.3412L7.9368 12.7947C7.9357 12.7677 7.9287 12.7424 7.9287 12.7152C7.92979 11.8874 8.25916 11.0938 8.84458 10.5084C9.43 9.92314 10.2237 9.59392 11.0515 9.59299ZM21.5781 17.1462L12.8928 20.0668H8.15L8.09 20.0838L7.6365 20.1853L7.3345 20.2535L7.0562 20.3463L2.9789 21.7052V15.3495L8.486 13.6001H13.556C13.8905 13.6001 14.2112 13.733 14.4477 13.9695C14.6842 14.206 14.8171 14.5267 14.8171 14.8612C14.8171 15.1957 14.6842 15.5164 14.4477 15.7529C14.2112 15.9894 13.8905 16.1223 13.556 16.1223H9.2745V16.1217H8.3412V17.0556H13.5555C14.0776 17.0548 14.5822 16.8674 14.9783 16.5273C15.3744 16.1872 15.6358 15.7167 15.7155 15.2007L19.1948 14.7382L19.2217 14.7348C19.3082 14.724 19.3954 14.7185 19.4826 14.7185C19.9381 14.7193 20.3808 14.8693 20.7429 15.1457C21.1051 15.422 21.3667 15.8094 21.4877 16.2485C21.5122 16.2962 21.6433 16.8875 21.6533 16.9426C21.6559 16.9552 21.6574 16.968 21.6577 16.9809C21.6565 17.034 21.63 17.1287 21.5781 17.1462Z" fill="black"/>
</svg>
