<svg width="24" height="24" viewBox="0 0 24 24" fill="none" xmlns="http://www.w3.org/2000/svg">
<path d="M21 3H5.3113C5.3113 3 2.6062 5.8611 2.6062 11.9653V13C2.6062 13.5304 2.81691 14.0391 3.19199 14.4142C3.56706 14.7893 4.07577 15 4.6062 15H9.9749L8.6243 19.7274C8.45774 20.3102 8.52497 20.935 8.81171 21.469C9.09844 22.0031 9.58209 22.4043 10.1599 22.5874L11.5762 23.0374L15.9171 15H21V3ZM11.09 21.833L10.4631 21.6338C10.1322 21.5311 9.85486 21.3025 9.69083 20.9973C9.5268 20.6921 9.48919 20.3347 9.5861 20.002L11.3008 14H4.6064C4.34124 13.9998 4.087 13.8944 3.8995 13.7069C3.712 13.5194 3.60659 13.2652 3.6064 13V11.9648C3.49056 9.14723 4.25479 6.36348 5.793 4H15V14.5938L11.09 21.833ZM20 14H16V4H20V14Z" fill="black"/>
</svg>
