<svg width="24" height="24" viewBox="0 0 24 24" fill="none" xmlns="http://www.w3.org/2000/svg">
<path d="M5.5 6.77996C5.77887 6.77996 6.05148 6.69727 6.28335 6.54233C6.51523 6.3874 6.69595 6.16719 6.80267 5.90955C6.90939 5.6519 6.93731 5.3684 6.88291 5.09488C6.8285 4.82137 6.69421 4.57013 6.49702 4.37294C6.29983 4.17575 6.04859 4.04146 5.77508 3.98705C5.50156 3.93265 5.21806 3.96057 4.96042 4.06729C4.70277 4.17401 4.48256 4.35473 4.32763 4.58661C4.17269 4.81848 4.09 5.09109 4.09 5.36996C4.09 5.74392 4.23855 6.10256 4.50298 6.36698C4.76741 6.63141 5.12604 6.77996 5.5 6.77996ZM18.5 6.77996C18.7789 6.77996 19.0515 6.69727 19.2834 6.54233C19.5152 6.3874 19.6959 6.16719 19.8027 5.90955C19.9094 5.6519 19.9373 5.3684 19.8829 5.09488C19.8285 4.82137 19.6942 4.57013 19.497 4.37294C19.2998 4.17575 19.0486 4.04146 18.7751 3.98705C18.5016 3.93265 18.2181 3.96057 17.9604 4.06729C17.7028 4.17401 17.4826 4.35473 17.3276 4.58661C17.1727 4.81848 17.09 5.09109 17.09 5.36996C17.09 5.74392 17.2386 6.10256 17.503 6.36698C17.7674 6.63141 18.126 6.77996 18.5 6.77996ZM18.5 8.08606C17.9892 8.0854 17.4833 8.18569 17.0113 8.38118C16.5394 8.57666 16.1107 8.86348 15.75 9.22516V15H17.4V20H19.6V15H21.25V9.22466C20.8893 8.86298 20.4606 8.57616 19.9887 8.38068C19.5167 8.18519 19.0108 8.0849 18.5 8.08556V8.08606ZM19.45 13.2H17.55V10.1129C17.8444 9.96344 18.1699 9.88556 18.5 9.88556C18.8301 9.88556 19.1556 9.96344 19.45 10.1129V13.2ZM2.75 9.22466V15H4.4V20H6.6V15H8.25V9.22466C7.52065 8.49532 6.53145 8.08558 5.5 8.08558C4.46855 8.08558 3.47935 8.49532 2.75 9.22466ZM6.45 13.2H4.55V10.1129C4.84438 9.96344 5.16986 9.88556 5.5 9.88556C5.83014 9.88556 6.15562 9.96344 6.45 10.1129V13.2Z" fill="black"/>
</svg>
