<svg width="24" height="24" viewBox="0 0 24 24" fill="none" xmlns="http://www.w3.org/2000/svg">
<g clip-path="url(#clip0)">
<path d="M11 5.6501C11.3758 5.6501 11.7431 5.53867 12.0556 5.32989C12.368 5.12112 12.6116 4.82438 12.7554 4.4772C12.8992 4.13002 12.9368 3.74799 12.8635 3.37943C12.7902 3.01086 12.6092 2.67232 12.3435 2.4066C12.0778 2.14088 11.7392 1.95992 11.3707 1.88661C11.0021 1.81329 10.6201 1.85092 10.2729 1.99473C9.92574 2.13853 9.629 2.38206 9.42022 2.69451C9.21145 3.00697 9.10001 3.37431 9.10001 3.7501C9.10001 4.25401 9.30019 4.73728 9.65651 5.0936C10.0128 5.44992 10.4961 5.6501 11 5.6501ZM11 2.7501C11.1978 2.7501 11.3911 2.80875 11.5556 2.91863C11.72 3.02851 11.8482 3.18469 11.9239 3.36741C11.9996 3.55014 12.0194 3.75121 11.9808 3.94519C11.9422 4.13917 11.847 4.31735 11.7071 4.45721C11.5673 4.59706 11.3891 4.6923 11.1951 4.73088C11.0011 4.76947 10.8001 4.74967 10.6173 4.67398C10.4346 4.59829 10.2784 4.47012 10.1685 4.30567C10.0587 4.14122 10 3.94788 10 3.7501C10.0003 3.48497 10.1058 3.23079 10.2932 3.04331C10.4807 2.85584 10.7349 2.75039 11 2.7501ZM14.2937 11.212L13.6667 10.5855V9.5001C13.666 8.83727 13.4024 8.20178 12.9337 7.73309C12.465 7.2644 11.8295 7.00079 11.1667 7.0001H9.83331C9.43562 7.00052 9.05433 7.15869 8.77312 7.43991C8.49191 7.72112 8.33374 8.1024 8.33331 8.5001V19.0001H9.89821V24.0001H12.6943V19.0001H15.6667V14.5284C15.6683 13.9123 15.5478 13.302 15.3122 12.7328C15.0765 12.1635 14.7303 11.6467 14.2937 11.212ZM14.6667 18.0001H11.6943V23.0001H10.8982V18.0001H9.33331V8.6667C9.33331 8.2992 9.92901 8.0001 10.2966 8.0001H11.1666C11.3822 7.99927 11.5949 8.04929 11.7876 8.1461C11.9802 8.24292 12.1473 8.3838 12.2752 8.5573C12.5303 8.90534 12.6674 9.3258 12.6666 9.7573V10.8311L12.7643 10.9474L13.182 11.515C13.4971 11.8295 13.763 12.1898 13.9705 12.5837C14.1866 12.9933 14.3331 13.436 14.404 13.8937C14.579 14.5042 14.6674 15.1363 14.6666 15.7714L14.6667 18.0001Z" fill="black"/>
</g>
<defs>
<clipPath id="clip0">
<rect width="24" height="24" fill="white"/>
</clipPath>
</defs>
</svg>
