<svg width="24" height="24" viewBox="0 0 24 24" fill="none" xmlns="http://www.w3.org/2000/svg">
<path d="M7.00003 5.5C7.34614 5.5 7.68449 5.39737 7.97227 5.20507C8.26006 5.01278 8.48436 4.73947 8.61682 4.4197C8.74927 4.09993 8.78393 3.74806 8.7164 3.40859C8.64888 3.06913 8.48221 2.75731 8.23746 2.51256C7.99272 2.26782 7.6809 2.10115 7.34143 2.03363C7.00197 1.9661 6.6501 2.00076 6.33033 2.13321C6.01056 2.26566 5.73725 2.48997 5.54495 2.77775C5.35266 3.06554 5.25003 3.40388 5.25003 3.75C5.25003 4.21413 5.4344 4.65925 5.76259 4.98744C6.09078 5.31563 6.5359 5.5 7.00003 5.5ZM7.00003 2.5C7.24725 2.5 7.48893 2.57331 7.69449 2.71066C7.90005 2.84802 8.06027 3.04324 8.15488 3.27165C8.24949 3.50005 8.27424 3.75139 8.22601 3.99386C8.17778 4.23634 8.05873 4.45907 7.88391 4.63388C7.70909 4.8087 7.48637 4.92775 7.24389 4.97598C7.00141 5.02421 6.75008 4.99946 6.52167 4.90485C6.29326 4.81024 6.09804 4.65002 5.96069 4.44446C5.82334 4.2389 5.75003 3.99723 5.75003 3.75C5.7504 3.41859 5.88221 3.10087 6.11655 2.86653C6.35089 2.63219 6.66862 2.50037 7.00003 2.5ZM17 5.5C17.3461 5.5 17.6845 5.39737 17.9723 5.20507C18.2601 5.01278 18.4844 4.73947 18.6168 4.4197C18.7493 4.09993 18.7839 3.74806 18.7164 3.40859C18.6489 3.06913 18.4822 2.75731 18.2375 2.51256C17.9927 2.26782 17.6809 2.10115 17.3414 2.03363C17.002 1.9661 16.6501 2.00076 16.3303 2.13321C16.0106 2.26566 15.7372 2.48997 15.545 2.77775C15.3527 3.06554 15.25 3.40388 15.25 3.75C15.25 4.21413 15.4344 4.65925 15.7626 4.98744C16.0908 5.31563 16.5359 5.5 17 5.5ZM17 2.5C17.2473 2.5 17.4889 2.57331 17.6945 2.71066C17.9001 2.84802 18.0603 3.04324 18.1549 3.27165C18.2495 3.50005 18.2742 3.75139 18.226 3.99386C18.1778 4.23634 18.0587 4.45907 17.8839 4.63388C17.7091 4.8087 17.4864 4.92775 17.2439 4.97598C17.0014 5.02421 16.7501 4.99946 16.5217 4.90485C16.2933 4.81024 16.098 4.65002 15.9607 4.44446C15.8233 4.2389 15.75 3.99723 15.75 3.75C15.7504 3.41859 15.8822 3.10087 16.1166 2.86653C16.3509 2.63219 16.6686 2.50037 17 2.5ZM7.00003 7C6.31307 6.9981 5.63257 7.1325 4.99792 7.39542C4.36327 7.65834 3.78708 8.04456 3.30273 8.5317L3.00983 8.8247V16H4.65003V22H9.35003V16H10.99V8.8247L10.6971 8.5317C10.2128 8.04458 9.63664 7.65838 9.00203 7.39546C8.36741 7.13254 7.68695 6.99813 7.00003 7ZM10.49 15.5H8.85003V21.5H5.15003V15.5H3.51003V9.0318L3.65663 8.8852C4.09568 8.44603 4.61695 8.09765 5.19066 7.85997C5.76437 7.62229 6.37928 7.49995 7.00028 7.49995C7.62127 7.49995 8.23619 7.62229 8.8099 7.85997C9.38361 8.09765 9.90487 8.44603 10.3439 8.8852L10.4904 9.0317L10.49 15.5ZM19.6023 8.19L19.4109 7.9985C18.7712 7.35945 17.904 7.00049 16.9998 7.00049C16.0956 7.00049 15.2284 7.35945 14.5887 7.9985L14.3973 8.19L11.8154 17H14.65V22H19.35V17H22.185L19.6023 8.19ZM18.85 16.5V21.5H15.15V16.5H12.483L14.8414 8.4526L14.9421 8.3519C15.4881 7.80649 16.2282 7.50013 16.9999 7.50013C17.7716 7.50013 18.5117 7.80649 19.0576 8.3519L19.1586 8.4529L21.517 16.5H18.85Z" fill="black"/>
</svg>
