<svg width="24" height="24" viewBox="0 0 24 24" fill="none" xmlns="http://www.w3.org/2000/svg">
<path d="M5.98997 5.6919C6.28664 5.6919 6.57665 5.60392 6.82333 5.4391C7.07 5.27428 7.26226 5.04001 7.37579 4.76592C7.48932 4.49183 7.51903 4.19023 7.46115 3.89926C7.40327 3.60829 7.26041 3.34101 7.05063 3.13123C6.84085 2.92146 6.57358 2.7786 6.28261 2.72072C5.99164 2.66284 5.69004 2.69254 5.41595 2.80608C5.14186 2.91961 4.90759 3.11187 4.74277 3.35854C4.57795 3.60521 4.48997 3.89522 4.48997 4.1919C4.48997 4.58972 4.64801 4.97125 4.92931 5.25256C5.21062 5.53386 5.59215 5.6919 5.98997 5.6919ZM17.99 5.6919C18.2866 5.6919 18.5767 5.60392 18.8233 5.4391C19.07 5.27428 19.2623 5.04001 19.3758 4.76592C19.4893 4.49183 19.519 4.19023 19.4612 3.89926C19.4033 3.60829 19.2604 3.34101 19.0506 3.13123C18.8409 2.92146 18.5736 2.7786 18.2826 2.72072C17.9916 2.66284 17.69 2.69254 17.4159 2.80608C17.1419 2.91961 16.9076 3.11187 16.7428 3.35854C16.5779 3.60521 16.49 3.89522 16.49 4.1919C16.49 4.58972 16.648 4.97125 16.9293 5.25256C17.2106 5.53386 17.5921 5.6919 17.99 5.6919ZM20.989 8.784C20.6414 8.32409 20.1924 7.95053 19.677 7.69235C19.1615 7.43416 18.5935 7.29831 18.017 7.29535C17.4406 7.29239 16.8712 7.4224 16.3531 7.67528C15.835 7.92815 15.3823 8.29708 15.03 8.75339C15.0176 8.76549 15.0028 8.7734 14.99 8.7856V8.79629L11.9879 12.7832L8.98997 8.7995V8.7856H8.97877C8.62899 8.32242 8.17653 7.9467 7.65696 7.68799C7.13739 7.42928 6.56489 7.29463 5.98447 7.29463C5.40406 7.29463 4.83156 7.42928 4.31199 7.68799C3.79242 7.9467 3.33996 8.32242 2.99017 8.7856V22.0002H4.49017V16.0002H7.49017V22.0002H8.99017V11.0402L10.9188 13.582C11.0439 13.747 11.2056 13.8808 11.3911 13.9729C11.5766 14.0651 11.7808 14.113 11.9879 14.1131C12.1951 14.1131 12.3994 14.0653 12.5849 13.9732C12.7704 13.8812 12.9321 13.7474 13.0574 13.5825L14.99 11.0371V22.0002H16.49V16.0002H19.49V22.0002H20.99V8.7856L20.989 8.784ZM7.48997 14.5002H4.48997V9.36019C4.90418 8.99357 5.43872 8.792 5.99188 8.79384C6.54504 8.79569 7.07822 9.00081 7.48997 9.37019V14.5002ZM16.49 14.5002V9.37419C16.9009 9.00393 17.4336 8.79782 17.9867 8.79512C18.5398 8.79243 19.0746 8.99335 19.4891 9.35959L19.49 14.5002H16.49Z" fill="black"/>
</svg>
