<svg width="24" height="24" viewBox="0 0 24 24" fill="none" xmlns="http://www.w3.org/2000/svg">
<path d="M9.6252 9.99988L5.9207 9.98988H4.5V9.98528H0V17.9999H3.6667V18.062L5.5481 23.3781L7.2207 22.7463C7.62989 22.5917 7.96995 22.2954 8.17896 21.9111C8.38796 21.5269 8.45199 21.0804 8.3594 20.6529L7.8467 18.0061H10.6C10.9317 18.0059 11.2498 17.874 11.4843 17.6394C11.7188 17.4049 11.8506 17.0868 11.8508 16.7551V15.3029C11.8626 13.4427 11.1631 11.6483 9.8955 10.2868L9.6252 9.99988ZM3.6667 16.9999H1V10.9853H3.6667V16.9999ZM10.8516 16.7548C10.8516 16.7877 10.8451 16.8204 10.8325 16.8509C10.8199 16.8813 10.8014 16.909 10.7781 16.9323C10.7548 16.9556 10.7271 16.9741 10.6967 16.9867C10.6662 16.9993 10.6336 17.0058 10.6006 17.0058H6.6348L7.3779 20.8437C7.42495 21.0395 7.39893 21.2457 7.30471 21.4237C7.2105 21.6017 7.05458 21.7392 6.8662 21.8104L6.1494 22.0819L4.667 17.8905V10.9905L9.1924 10.9993C10.2717 12.1712 10.8648 13.7098 10.8516 15.303V16.7548ZM20.3333 5.99988V5.93768L18.4519 0.621582L16.7793 1.25338C16.3701 1.40794 16.03 1.70434 15.821 2.08859C15.612 2.47284 15.548 2.91938 15.6406 3.34688L16.1533 5.99368H13.4C13.0683 5.99387 12.7502 6.12574 12.5157 6.36031C12.2811 6.59488 12.1493 6.91297 12.1492 7.24468V8.69688C12.1374 10.5571 12.8369 12.3515 14.1045 13.713L14.3748 13.9999L19.5 14.0083V14.0145H24V5.99988H20.3333ZM19.3333 13.0077L14.8079 13.0009C13.7288 11.8288 13.1356 10.2903 13.1487 8.69718V7.24498C13.1487 7.21202 13.1552 7.17937 13.1678 7.14891C13.1804 7.11845 13.1989 7.09078 13.2222 7.06747C13.2455 7.04416 13.2732 7.02567 13.3036 7.01306C13.3341 7.00045 13.3667 6.99397 13.3997 6.99398H17.3655L16.6224 3.15608C16.5754 2.96027 16.6014 2.75403 16.6956 2.57604C16.7898 2.39806 16.9457 2.26057 17.1341 2.18938L17.8509 1.91788L19.333 6.10928L19.3333 13.0077ZM23 13.0145H20.3333V6.99988H23V13.0145Z" fill="black"/>
</svg>
