<svg width="24" height="24" viewBox="0 0 24 24" fill="none" xmlns="http://www.w3.org/2000/svg">
<path d="M15.78 3.87402C16.4156 4.97676 16.7502 6.22721 16.7502 7.50002C16.7502 8.77283 16.4156 10.0233 15.78 11.126L16.2126 11.376C16.8924 10.1974 17.2502 8.86066 17.2502 7.50002C17.2502 6.13939 16.8924 4.80268 16.2126 3.62402L15.78 3.87402ZM19.6774 1.62402L19.2448 1.87402C20.2311 3.58499 20.7502 5.52516 20.7502 7.50002C20.7502 9.47489 20.2311 11.4151 19.2448 13.126L19.6774 13.376C20.7078 11.5891 21.2502 9.56271 21.2502 7.50002C21.2502 5.43733 20.7078 3.41091 19.6774 1.62402ZM9.875 10.6875C10.5054 10.6875 11.1217 10.5006 11.6459 10.1503C12.1701 9.80009 12.5786 9.30227 12.8199 8.71983C13.0611 8.13739 13.1242 7.49649 13.0013 6.87817C12.8783 6.25986 12.5747 5.6919 12.1289 5.24612C11.6831 4.80034 11.1152 4.49676 10.4969 4.37377C9.87854 4.25078 9.23764 4.3139 8.6552 4.55516C8.07276 4.79641 7.57494 5.20496 7.22469 5.72914C6.87444 6.25332 6.6875 6.8696 6.6875 7.50002C6.68853 8.34508 7.02469 9.15524 7.62224 9.75279C8.21979 10.3503 9.02994 10.6865 9.875 10.6875ZM9.875 13.2346C8.77922 13.2327 7.69386 13.4472 6.68124 13.866C5.66862 14.2847 4.74869 14.8993 3.9743 15.6746L3.75 15.899V21H16V15.8994L15.7757 15.675C15.0013 14.8997 14.0814 14.2849 13.0688 13.8661C12.0562 13.4473 10.9708 13.2327 9.875 13.2346Z" fill="black"/>
</svg>
