<svg width="24" height="24" viewBox="0 0 24 24" fill="none" xmlns="http://www.w3.org/2000/svg">
<path d="M19.5 8.5V5.5529H18.5V8.5H15.5529V9.5H18.5V12.4472H19.5V9.5H22.4472V8.5H19.5ZM9.5 11.7786C8.15819 11.7763 6.82914 12.0391 5.58919 12.5519C4.34925 13.0648 3.22285 13.8175 2.2747 14.767L2 15.0416V20H17V15.0416L16.7253 14.767C15.7771 13.8176 14.6507 13.0648 13.4108 12.552C12.1709 12.0392 10.8418 11.7764 9.5 11.7787V11.7786ZM9.5 9.5C10.1922 9.5 10.8689 9.29473 11.4445 8.91015C12.0201 8.52556 12.4687 7.97894 12.7336 7.33939C12.9985 6.69985 13.0678 5.99612 12.9327 5.31719C12.7977 4.63825 12.4644 4.01461 11.9749 3.52513C11.4854 3.03564 10.8617 2.7023 10.1828 2.56725C9.50388 2.4322 8.80015 2.50152 8.16061 2.76642C7.52107 3.03133 6.97444 3.47993 6.58986 4.05551C6.20527 4.63108 6 5.30777 6 6C6.00106 6.92793 6.37015 7.81756 7.0263 8.47371C7.68244 9.12985 8.57207 9.49894 9.5 9.5Z" fill="black"/>
</svg>
