<svg width="24" height="24" viewBox="0 0 24 24" fill="none" xmlns="http://www.w3.org/2000/svg">
<path d="M12.6045 1.00003C10.5883 1.00222 8.65538 1.80412 7.22973 3.22976C5.80409 4.65541 5.0022 6.58836 5 8.60453V19.1719C5.00003 19.9291 5.22456 20.6692 5.64522 21.2987C6.06587 21.9283 6.66375 22.4189 7.36326 22.7087C8.06276 22.9984 8.83248 23.0742 9.57508 22.9266C10.3177 22.7789 10.9998 22.4143 11.5352 21.8789L16.4111 17.0029C17.5525 15.8678 18.4574 14.5176 19.0734 13.0304C19.6894 11.5432 20.0044 9.94864 20 8.33893C19.9903 6.38569 19.2063 4.51606 17.8198 3.14021C16.4334 1.76436 14.5577 0.994681 12.6045 1.00003ZM16.1475 11.7324L15.2139 11.3711C15.5902 10.3964 15.7822 9.36026 15.78 8.31543C15.7706 7.478 15.4295 6.67847 14.8315 6.09213C14.2335 5.50579 13.4275 5.18049 12.59 5.18753C11.6841 5.18869 10.8157 5.54907 10.1751 6.18964C9.53459 6.8302 9.17424 7.69865 9.1731 8.60453V12.001L10.3352 13.1631C10.6885 13.5163 10.9291 13.9662 11.0266 14.4561C11.1242 14.946 11.0742 15.4538 10.8831 15.9153C10.692 16.3769 10.3684 16.7713 9.95309 17.0489C9.53779 17.3264 9.04951 17.4746 8.55 17.4746H8.1416V16.4746H8.55C8.85172 16.4748 9.1467 16.3855 9.39761 16.2179C9.64851 16.0503 9.84406 15.8121 9.9595 15.5333C10.0749 15.2546 10.1051 14.9478 10.0461 14.6519C9.98707 14.356 9.84161 14.0843 9.6281 13.8711L8.1729 12.415V8.60503C8.17406 7.43386 8.6398 6.31099 9.4679 5.48281C10.296 4.65463 11.4188 4.1888 12.59 4.18753C13.6926 4.18065 14.7529 4.61137 15.5384 5.38521C16.3239 6.15905 16.7704 7.21283 16.78 8.31543C16.7822 9.48373 16.5677 10.6423 16.1475 11.7324Z" fill="black"/>
</svg>
