<svg width="24" height="24" viewBox="0 0 24 24" fill="none" xmlns="http://www.w3.org/2000/svg">
<path d="M18.5 12.5001C17.61 12.5001 16.74 12.764 15.9999 13.2585C15.2599 13.753 14.6831 14.4558 14.3425 15.278C14.0019 16.1003 13.9128 17.0051 14.0865 17.878C14.2601 18.7509 14.6887 19.5528 15.318 20.1821C15.9474 20.8114 16.7492 21.24 17.6221 21.4137C18.495 21.5873 19.3998 21.4982 20.2221 21.1576C21.0443 20.817 21.7471 20.2402 22.2416 19.5002C22.7361 18.7602 23 17.8901 23 17.0001C23 15.8066 22.5259 14.6621 21.682 13.8181C20.8381 12.9742 19.6935 12.5001 18.5 12.5001ZM18.5 20.5334C17.8012 20.5334 17.1181 20.3262 16.537 19.9379C15.956 19.5496 15.5031 18.9978 15.2357 18.3522C14.9683 17.7066 14.8984 16.9961 15.0347 16.3107C15.171 15.6254 15.5076 14.9958 16.0017 14.5017C16.4959 14.0075 17.1254 13.671 17.8108 13.5347C18.4962 13.3984 19.2066 13.4684 19.8523 13.7358C20.4979 14.0032 21.0497 14.4561 21.4379 15.0371C21.8262 15.6182 22.0334 16.3013 22.0334 17.0001C22.0323 17.9369 21.6597 18.835 20.9973 19.4973C20.3349 20.1597 19.4368 20.5323 18.5 20.5334ZM5.5 12.5001C4.60998 12.5001 3.73995 12.764 2.99993 13.2585C2.25991 13.753 1.68313 14.4558 1.34254 15.278C1.00195 16.1003 0.912831 17.0051 1.08646 17.878C1.2601 18.7509 1.68868 19.5528 2.31802 20.1821C2.94735 20.8114 3.74918 21.24 4.62209 21.4137C5.49501 21.5873 6.39981 21.4982 7.22207 21.1576C8.04434 20.817 8.74715 20.2402 9.24161 19.5002C9.73608 18.7602 10 17.8901 10 17.0001C10 16.4092 9.8836 15.824 9.65746 15.278C9.43131 14.7321 9.09984 14.236 8.68198 13.8181C8.26411 13.4003 7.76804 13.0688 7.22207 12.8427C6.67611 12.6165 6.09095 12.5001 5.5 12.5001ZM5.5 20.5334C4.80118 20.5334 4.11806 20.3262 3.53703 19.9379C2.95599 19.5496 2.50314 18.9978 2.23573 18.3522C1.96831 17.7066 1.89836 16.9961 2.0347 16.3107C2.17105 15.6254 2.50757 14.9958 3.00171 14.5017C3.49586 14.0075 4.12543 13.671 4.81082 13.5347C5.49621 13.3984 6.20664 13.4684 6.85226 13.7358C7.49788 14.0032 8.0497 14.4561 8.43794 15.0371C8.82618 15.6182 9.0334 16.3013 9.0334 17.0001C9.03229 17.9369 8.65966 18.835 7.99726 19.4973C7.33485 20.1597 6.43676 20.5323 5.5 20.5334ZM15.1355 5.24092C15.5113 5.24092 15.8786 5.12949 16.1911 4.92071C16.5035 4.71194 16.7471 4.4152 16.8909 4.06802C17.0347 3.72084 17.0723 3.33881 16.999 2.97025C16.9257 2.60168 16.7447 2.26314 16.479 1.99742C16.2133 1.7317 15.8747 1.55074 15.5062 1.47743C15.1376 1.40411 14.7556 1.44174 14.4084 1.58555C14.0612 1.72935 13.7645 1.97288 13.5557 2.28534C13.3469 2.59779 13.2355 2.96513 13.2355 3.34092C13.2355 3.84483 13.4357 4.3281 13.792 4.68442C14.1483 5.04074 14.6316 5.24092 15.1355 5.24092ZM15.1355 2.34092C15.3333 2.34092 15.5266 2.39957 15.6911 2.50945C15.8555 2.61933 15.9837 2.77551 16.0594 2.95824C16.1351 3.14096 16.1549 3.34203 16.1163 3.53601C16.0777 3.72999 15.9825 3.90817 15.8426 4.04803C15.7028 4.18788 15.5246 4.28312 15.3306 4.3217C15.1366 4.36029 14.9355 4.34049 14.7528 4.2648C14.5701 4.18911 14.4139 4.06094 14.304 3.89649C14.1941 3.73204 14.1355 3.5387 14.1355 3.34092C14.1358 3.0758 14.2413 2.82163 14.4287 2.63416C14.6162 2.4467 14.8704 2.34124 15.1355 2.34092ZM12.7588 9.02262L16.5234 12.1954L18.2041 10.5147L13.7676 6.07822C13.303 5.61462 12.6734 5.35426 12.0171 5.35426C11.3608 5.35426 10.7312 5.61462 10.2666 6.07822L7.8125 8.53232C7.42368 8.92185 7.20531 9.44974 7.20531 10.0001C7.20531 10.5505 7.42368 11.0784 7.8125 11.4679L10.5537 14.2071L10.8437 19.4747H13.3137V13.1534L11.2951 10.4864L12.7588 9.02262ZM12.3643 13.4718V18.5255H11.7422L11.4814 13.7931L8.4844 10.796C8.37975 10.6916 8.29673 10.5675 8.24008 10.4309C8.18344 10.2944 8.15428 10.148 8.15428 10.0001C8.15428 9.85227 8.18344 9.70587 8.24008 9.5693C8.29673 9.43273 8.37975 9.30867 8.4844 9.20422L10.9385 6.75012C11.2246 6.46406 11.6125 6.30336 12.0171 6.30336C12.4216 6.30336 12.8096 6.46406 13.0957 6.75012L16.86 10.5147L16.4684 10.9063L12.7041 7.73352L10.0371 10.4001L12.3643 13.4718Z" fill="black"/>
</svg>
