<svg width="24" height="24" viewBox="0 0 24 24" fill="none" xmlns="http://www.w3.org/2000/svg">
<path d="M12.3364 10.6665C12.653 10.6665 12.9666 10.6042 13.2591 10.483C13.5517 10.3618 13.8175 10.1842 14.0414 9.96034C14.2653 9.73645 14.4429 9.47065 14.5641 9.17811C14.6852 8.88558 14.7476 8.57204 14.7476 8.2554C14.7476 6.3264 12.3364 1.979 12.3364 1.979C12.3364 1.979 9.9253 6.3264 9.9253 8.2554C9.9253 8.57203 9.98767 8.88556 10.1088 9.17809C10.23 9.47062 10.4076 9.73642 10.6315 9.96031C11.0837 10.4125 11.6969 10.6665 12.3364 10.6665ZM12.3364 3.0465C13.1069 4.5535 14.2476 7.0457 14.2476 8.2556C14.244 8.76008 14.041 9.24265 13.683 9.59808C13.325 9.95351 12.8409 10.153 12.3365 10.153C11.832 10.153 11.3479 9.95351 10.9899 9.59808C10.6319 9.24265 10.429 8.76008 10.4253 8.2556C10.4253 7.0455 11.5659 4.5533 12.3364 3.0463V3.0465ZM22.6234 17.1342L22.4534 16.3249C22.3079 15.6295 21.9047 15.0149 21.3248 14.6045C20.7448 14.1942 20.0311 14.0184 19.3269 14.1125L15.7082 14.5935C15.6147 14.1433 15.3689 13.739 15.0122 13.4488C14.6556 13.1585 14.2098 13 13.75 12.9999H8.3412L2.0455 14.9999V22.9999L8.0455 20.9999H13.0455L22.1663 17.9329C22.3271 17.8788 22.4625 17.7676 22.5467 17.6204C22.631 17.4731 22.6583 17.3 22.6234 17.134V17.1342ZM22.0068 17.4592L12.9637 20.4999H7.9644L2.5455 22.3062V15.3662L8.4186 13.4999H13.75C14.1478 13.4999 14.5294 13.6579 14.8107 13.9392C15.092 14.2205 15.25 14.6021 15.25 14.9999C15.25 15.3977 15.092 15.7793 14.8107 16.0606C14.5294 16.3419 14.1478 16.4999 13.75 16.4999H8.3412V16.9999H13.75C14.2633 16.9992 14.7566 16.8006 15.1273 16.4456C15.4981 16.0905 15.7177 15.6062 15.7406 15.0934L19.3929 14.6079C19.9721 14.5305 20.5591 14.6751 21.0361 15.0127C21.513 15.3503 21.8446 15.8559 21.9641 16.4279L22.1341 17.2371C22.1437 17.2833 22.1361 17.3314 22.1126 17.3723C22.0892 17.4132 22.0515 17.444 22.0068 17.459V17.4592Z" fill="black"/>
</svg>
