<svg width="24" height="24" viewBox="0 0 24 24" fill="none" xmlns="http://www.w3.org/2000/svg">
<path d="M19.2424 8.99992H14.175L15.4059 4.69452C15.5954 4.03138 15.5205 3.32057 15.1967 2.71157C14.873 2.10257 14.3257 1.64283 13.67 1.42902L11.9714 0.874023L7.5829 8.99992H3V20.9999H9H18.5027C18.5027 20.9999 21.2427 18.2777 21.2427 12.0699V10.9999C21.2427 10.7373 21.191 10.4772 21.0904 10.2345C20.9899 9.99182 20.8426 9.77133 20.6568 9.5856C20.4711 9.39988 20.2505 9.25257 20.0079 9.15208C19.7652 9.05159 19.5051 8.99988 19.2424 8.99992ZM4.5 10.4999H7.5V19.4999H4.5V10.4999ZM19.7422 12.0692C19.8618 14.6874 19.1797 17.2797 17.7871 19.4999H9V9.53212L12.6963 2.68842L13.2041 2.85442C13.4916 2.94682 13.7317 3.14759 13.8736 3.41414C14.0155 3.68069 14.048 3.99204 13.9641 4.28212L12.1855 10.4999H19.2422C19.3747 10.5002 19.5017 10.553 19.5955 10.6467C19.6892 10.7404 19.7419 10.8674 19.7422 10.9999V12.0692Z" fill="black"/>
</svg>
