<svg width="24" height="24" viewBox="0 0 24 24" fill="none" xmlns="http://www.w3.org/2000/svg">
<path d="M5.0312 9.4375C5.67399 9.4375 6.30234 9.24689 6.8368 8.88978C7.37126 8.53266 7.78782 8.02508 8.03381 7.43122C8.27979 6.83736 8.34415 6.1839 8.21875 5.55346C8.09335 4.92302 7.78382 4.34392 7.3293 3.8894C6.87478 3.43488 6.29568 3.12535 5.66524 2.99995C5.03481 2.87455 4.38134 2.93891 3.78748 3.18489C3.19362 3.43088 2.68604 3.84744 2.32892 4.3819C1.97181 4.91636 1.7812 5.54471 1.7812 6.1875C1.78223 7.04914 2.12497 7.87519 2.73424 8.48446C3.34351 9.09373 4.16956 9.43647 5.0312 9.4375ZM5.0312 4.7375C5.31798 4.7375 5.59833 4.82254 5.83678 4.98187C6.07523 5.1412 6.26108 5.36766 6.37083 5.63261C6.48057 5.89756 6.50929 6.18911 6.45334 6.47038C6.39739 6.75165 6.25929 7.01002 6.0565 7.21281C5.85372 7.41559 5.59535 7.55369 5.31408 7.60964C5.03281 7.66559 4.74126 7.63687 4.47631 7.52713C4.21136 7.41738 3.9849 7.23153 3.82557 6.99308C3.66624 6.75463 3.5812 6.47428 3.5812 6.1875C3.58162 5.80307 3.73453 5.4345 4.00636 5.16266C4.2782 4.89083 4.64677 4.73793 5.0312 4.7375ZM13.0469 9.4375C13.6897 9.4375 14.318 9.24689 14.8525 8.88978C15.387 8.53266 15.8035 8.02508 16.0495 7.43122C16.2955 6.83736 16.3599 6.1839 16.2345 5.55346C16.109 4.92302 15.7995 4.34392 15.345 3.8894C14.8905 3.43488 14.3114 3.12535 13.6809 2.99995C13.0505 2.87455 12.397 2.93891 11.8032 3.18489C11.2093 3.43088 10.7017 3.84744 10.3446 4.3819C9.98751 4.91636 9.7969 5.54471 9.7969 6.1875C9.79796 7.04913 10.1407 7.87516 10.75 8.48443C11.3592 9.09369 12.1853 9.43644 13.0469 9.4375ZM13.0469 4.7375C13.3337 4.7375 13.614 4.82254 13.8525 4.98187C14.0909 5.1412 14.2768 5.36766 14.3865 5.63261C14.4963 5.89756 14.525 6.18911 14.469 6.47038C14.4131 6.75165 14.275 7.01002 14.0722 7.21281C13.8694 7.41559 13.6111 7.55369 13.3298 7.60964C13.0485 7.66559 12.757 7.63687 12.492 7.52713C12.2271 7.41738 12.0006 7.23153 11.8413 6.99308C11.6819 6.75463 11.5969 6.47428 11.5969 6.1875C11.5973 5.80307 11.7502 5.4345 12.0221 5.16266C12.2939 4.89083 12.6625 4.73793 13.0469 4.7375ZM13 11.0176C11.5622 11.0185 10.1618 11.4754 9 12.3224C7.68951 11.3676 6.08111 10.9122 4.46459 11.0383C2.84807 11.1643 1.32972 11.8636 0.1831 13.01L0 13.1929V20.0176H18V13.1929L17.8169 13.0098C17.1848 12.3768 16.4339 11.875 15.6072 11.5331C14.7806 11.1912 13.8945 11.016 13 11.0176ZM8 18.0176H2V14.0635C2.85327 13.3862 3.91061 13.0176 5 13.0176C6.08939 13.0176 7.14673 13.3862 8 14.0635V18.0176ZM16 18.0176H10V14.0635C10.8533 13.3862 11.9106 13.0176 13 13.0176C14.0894 13.0176 15.1467 13.3862 16 14.0635V18.0176ZM21.8 8.2176V6.07H20.2V8.2172H18.0529V9.8179H20.2V11.9647H21.8V9.8179H23.9467V8.2172L21.8 8.2176Z" fill="black"/>
</svg>
