<svg width="24" height="24" viewBox="0 0 24 24" fill="none" xmlns="http://www.w3.org/2000/svg">
<path d="M5.98997 5.53516C6.28664 5.53516 6.57665 5.44718 6.82333 5.28236C7.07 5.11754 7.26226 4.88327 7.37579 4.60918C7.48932 4.33509 7.51903 4.03349 7.46115 3.74252C7.40327 3.45155 7.26041 3.18428 7.05063 2.9745C6.84085 2.76472 6.57358 2.62186 6.28261 2.56398C5.99164 2.5061 5.69004 2.53581 5.41595 2.64934C5.14186 2.76287 4.90759 2.95513 4.74277 3.2018C4.57795 3.44848 4.48997 3.73848 4.48997 4.03516C4.48997 4.43298 4.64801 4.81451 4.92931 5.09582C5.21062 5.37712 5.59215 5.53516 5.98997 5.53516ZM17.99 5.53516C18.2866 5.53516 18.5767 5.44718 18.8233 5.28236C19.07 5.11754 19.2623 4.88327 19.3758 4.60918C19.4893 4.33509 19.519 4.03349 19.4612 3.74252C19.4033 3.45155 19.2604 3.18428 19.0506 2.9745C18.8409 2.76472 18.5736 2.62186 18.2826 2.56398C17.9916 2.5061 17.69 2.53581 17.4159 2.64934C17.1419 2.76287 16.9076 2.95513 16.7428 3.2018C16.5779 3.44848 16.49 3.73848 16.49 4.03516C16.49 4.43298 16.648 4.81451 16.9293 5.09582C17.2106 5.37712 17.5921 5.53516 17.99 5.53516ZM20.989 8.78356C20.6414 8.32365 20.1924 7.95009 19.677 7.69191C19.1615 7.43372 18.5935 7.29787 18.017 7.29491C17.4406 7.29195 16.8712 7.42196 16.3531 7.67484C15.835 7.92771 15.3823 8.29664 15.03 8.75296C15.0176 8.76506 15.0028 8.77296 14.99 8.78516V8.79586L11.9879 12.7828L8.98997 8.79906V8.78516H8.97877C8.62899 8.32198 8.17653 7.94626 7.65696 7.68755C7.13739 7.42884 6.56489 7.29419 5.98447 7.29419C5.40406 7.29419 4.83156 7.42884 4.31199 7.68755C3.79242 7.94626 3.33996 8.32198 2.99017 8.78516V21.9998H4.49017V15.9998H7.49017V21.9998H8.99017V11.0398L10.9188 13.5816C11.0439 13.7466 11.2056 13.8804 11.3911 13.9725C11.5766 14.0646 11.7808 14.1126 11.9879 14.1126C12.1951 14.1127 12.3994 14.0648 12.5849 13.9728C12.7704 13.8807 12.9321 13.747 13.0574 13.5821L14.99 11.0367V21.9998H16.49V15.9998H19.49V21.9998H20.99V8.78516L20.989 8.78356Z" fill="black"/>
</svg>
