<svg width="24" height="24" viewBox="0 0 24 24" fill="none" xmlns="http://www.w3.org/2000/svg">
<path d="M11 5.25C11.2967 5.25 11.5867 5.16203 11.8333 4.9972C12.08 4.83238 12.2723 4.59811 12.3858 4.32403C12.4993 4.04994 12.529 3.74834 12.4712 3.45737C12.4133 3.16639 12.2704 2.89912 12.0606 2.68934C11.8509 2.47956 11.5836 2.3367 11.2926 2.27882C11.0017 2.22094 10.7001 2.25065 10.426 2.36418C10.1519 2.47771 9.9176 2.66997 9.75278 2.91665C9.58796 3.16332 9.49999 3.45333 9.49999 3.75C9.49999 4.14783 9.65802 4.52936 9.93933 4.81066C10.2206 5.09197 10.6022 5.25 11 5.25ZM14.46 11.2119L13.8331 10.5854V9.5C13.8324 8.83717 13.5688 8.20169 13.1001 7.73299C12.6314 7.2643 11.9959 7.00069 11.3331 7H9.66669C9.269 7.00045 8.88773 7.15863 8.60652 7.43984C8.32532 7.72104 8.16714 8.10231 8.16669 8.5V19H10.25V24H11.75V19H15.8333V14.5283C15.8349 13.9122 15.7143 13.3019 15.4786 12.7326C15.2429 12.1634 14.8967 11.6465 14.46 11.2119ZM14.3333 17.5H9.66669V8.8333C9.66669 8.6495 10.4094 8.5 10.5933 8.5H11.3333C11.5047 8.49847 11.6726 8.54789 11.8158 8.64201C11.9591 8.73613 12.0711 8.87069 12.1377 9.0286C12.2665 9.3414 12.3329 9.67633 12.3333 10.0146V10.87L12.3822 10.9562L12.5911 11.4652C12.8452 11.7192 13.0753 11.9961 13.2784 12.2925C13.3522 12.4643 13.8084 13.0676 13.8084 13.2601C14.1554 13.8292 14.3373 14.4836 14.3338 15.1501L14.3333 17.5Z" fill="black"/>
</svg>
