<svg width="24" height="24" viewBox="0 0 24 24" fill="none" xmlns="http://www.w3.org/2000/svg">
<path d="M4 9.69531C4.5439 9.69531 5.07558 9.53403 5.52782 9.23186C5.98005 8.92968 6.33253 8.50019 6.54067 7.99769C6.74881 7.4952 6.80327 6.94226 6.69716 6.40881C6.59105 5.87537 6.32914 5.38536 5.94454 5.00077C5.55995 4.61618 5.06995 4.35426 4.5365 4.24815C4.00305 4.14204 3.45012 4.1965 2.94762 4.40465C2.44512 4.61279 2.01563 4.96526 1.71346 5.4175C1.41128 5.86973 1.25 6.40141 1.25 6.94531C1.25087 7.67439 1.54089 8.37336 2.05642 8.88889C2.57196 9.40443 3.27092 9.69444 4 9.69531ZM14 9.69531C14.5439 9.69531 15.0756 9.53403 15.5278 9.23186C15.9801 8.92968 16.3325 8.50019 16.5407 7.99769C16.7488 7.4952 16.8033 6.94226 16.6972 6.40881C16.591 5.87537 16.3291 5.38536 15.9445 5.00077C15.5599 4.61618 15.0699 4.35426 14.5365 4.24815C14.003 4.14204 13.4501 4.1965 12.9476 4.40465C12.4451 4.61279 12.0156 4.96526 11.7135 5.4175C11.4113 5.86973 11.25 6.40141 11.25 6.94531C11.2509 7.67439 11.5409 8.37336 12.0564 8.88889C12.572 9.40443 13.2709 9.69444 14 9.69531ZM4 12.1974C3.28437 12.1962 2.57555 12.3363 1.91425 12.6098C1.25295 12.8833 0.652194 13.2848 0.1465 13.7911L0 13.9376V20.0001H8V13.9376L7.8535 13.7911C7.34781 13.2848 6.74705 12.8833 6.08575 12.6098C5.42445 12.3363 4.71563 12.1962 4 12.1974ZM14 12.1974C13.2844 12.1962 12.5756 12.3363 11.9142 12.6098C11.2529 12.8833 10.6522 13.2848 10.1465 13.7911L10 13.9376V20.0001H18V13.9376L17.8535 13.7911C17.3478 13.2848 16.7471 12.8833 16.0858 12.6098C15.4244 12.3363 14.7156 12.1962 14 12.1974ZM21.25 10.1211V7.42401H20.75V10.1211H18.0529V10.6211H20.75V13.3183H21.25V10.6211H23.9471V10.1211H21.25Z" fill="black"/>
</svg>
