<svg width="24" height="24" viewBox="0 0 24 24" fill="none" xmlns="http://www.w3.org/2000/svg">
<path d="M12.2917 5.49463C12.6378 5.49463 12.9762 5.39199 13.2639 5.1997C13.5517 5.00741 13.776 4.7341 13.9085 4.41433C14.0409 4.09455 14.0756 3.74269 14.0081 3.40322C13.9405 3.06375 13.7739 2.75193 13.5291 2.50719C13.2844 2.26245 12.9726 2.09578 12.6331 2.02826C12.2936 1.96073 11.9418 1.99539 11.622 2.12784C11.3022 2.26029 11.0289 2.4846 10.8366 2.77238C10.6443 3.06017 10.5417 3.39851 10.5417 3.74463C10.5417 4.20876 10.7261 4.65388 11.0543 4.98207C11.3825 5.31026 11.8276 5.49463 12.2917 5.49463ZM14.7646 18.0046H11.7529C10.7587 18.0034 9.80561 17.6079 9.10262 16.9049C8.39963 16.2019 8.00414 15.2488 8.0029 14.2546V7.25463C8.0029 7.18833 7.97656 7.12474 7.92968 7.07785C7.88279 7.03097 7.8192 7.00463 7.7529 7.00463C7.6866 7.00463 7.62301 7.03097 7.57612 7.07785C7.52924 7.12474 7.5029 7.18833 7.5029 7.25463V14.2546C7.50409 15.3814 7.95224 16.4617 8.74901 17.2585C9.54578 18.0553 10.6261 18.5034 11.7529 18.5046H14.7646C14.8309 18.5046 14.8945 18.4783 14.9414 18.4314C14.9883 18.3845 15.0146 18.3209 15.0146 18.2546C15.0146 18.1883 14.9883 18.1247 14.9414 18.0779C14.8945 18.031 14.8309 18.0046 14.7646 18.0046ZM16.6191 13.9998H14.4961V9.24983C14.4961 8.65309 14.259 8.0808 13.8371 7.65884C13.4151 7.23688 12.8428 6.99983 12.2461 6.99983H11.3C10.9552 6.99983 10.6246 7.13679 10.3808 7.38059C10.137 7.62439 10 7.95505 10 8.29983V13.9998C10 14.5303 10.2107 15.039 10.5858 15.414C10.9609 15.7891 11.4696 15.9998 12 15.9998H16.6191V21.9998H18.6191V15.9998C18.6184 15.4696 18.4075 14.9613 18.0326 14.5864C17.6576 14.2115 17.1493 14.0005 16.6191 13.9998Z" fill="black"/>
</svg>
