<svg width="24" height="24" viewBox="0 0 24 24" fill="none" xmlns="http://www.w3.org/2000/svg">
<path d="M6.2906 5.64473C6.66638 5.64473 7.03373 5.53329 7.34618 5.32452C7.65864 5.11575 7.90216 4.81901 8.04597 4.47183C8.18978 4.12465 8.2274 3.74262 8.15409 3.37406C8.08078 3.00549 7.89982 2.66694 7.6341 2.40122C7.36838 2.1355 7.02984 1.95455 6.66127 1.88124C6.29271 1.80792 5.91068 1.84555 5.5635 1.98936C5.21632 2.13316 4.91958 2.37669 4.71081 2.68914C4.50203 3.0016 4.3906 3.36894 4.3906 3.74473C4.3906 4.24864 4.59078 4.73191 4.9471 5.08823C5.30342 5.44455 5.78669 5.64473 6.2906 5.64473ZM6.2906 2.74473C6.48838 2.74473 6.68172 2.80338 6.84617 2.91326C7.01062 3.02314 7.13879 3.17932 7.21448 3.36204C7.29017 3.54477 7.30997 3.74584 7.27139 3.93982C7.2328 4.1338 7.13756 4.31198 6.99771 4.45183C6.85785 4.59169 6.67967 4.68693 6.48569 4.72551C6.29171 4.7641 6.09064 4.74429 5.90792 4.66861C5.72519 4.59292 5.56901 4.46475 5.45913 4.3003C5.34925 4.13585 5.2906 3.94251 5.2906 3.74473C5.29089 3.4796 5.39634 3.22542 5.58381 3.03794C5.77129 2.85047 6.02547 2.74502 6.2906 2.74473ZM10.8729 10.6665L10.1606 8.88573C9.93791 8.32903 9.55352 7.85183 9.05702 7.51569C8.56052 7.17956 7.97468 6.99991 7.3751 6.99993H5.5C5.10218 6.99993 4.72064 7.15796 4.43934 7.43927C4.15804 7.72057 4 8.1021 4 8.49993V10.6665H2V17.9999C2 18.7956 2.31607 19.5586 2.87868 20.1212C3.44129 20.6839 4.20435 20.9999 5 20.9999H19C19.7956 20.9999 20.5587 20.6839 21.1213 20.1212C21.6839 19.5586 22 18.7956 22 17.9999V10.6665H10.8729ZM5 8.66653C5 8.29903 5.498 7.99993 5.8656 7.99993H7.3756C7.77563 7.99855 8.16679 8.11778 8.49805 8.34204C8.82931 8.56631 9.08529 8.8852 9.2326 9.25713L9.7964 10.6665H5V8.66653ZM21 17.9999C20.9994 18.5302 20.7885 19.0385 20.4135 19.4135C20.0386 19.7884 19.5302 19.9993 19 19.9999H5C4.46975 19.9993 3.9614 19.7884 3.58646 19.4135C3.21152 19.0385 3.00061 18.5302 3 17.9999V11.6665H21V17.9999Z" fill="black"/>
</svg>
