<svg width="24" height="24" viewBox="0 0 24 24" fill="none" xmlns="http://www.w3.org/2000/svg">
<path d="M15.78 3.87402C16.4156 4.97676 16.7502 6.22721 16.7502 7.50002C16.7502 8.77283 16.4156 10.0233 15.78 11.126L16.2126 11.376C16.8924 10.1974 17.2502 8.86066 17.2502 7.50002C17.2502 6.13939 16.8924 4.80268 16.2126 3.62402L15.78 3.87402ZM19.6774 1.62402L19.2448 1.87402C20.231 3.58499 20.7502 5.52516 20.7502 7.50002C20.7502 9.47489 20.231 11.4151 19.2448 13.126L19.6774 13.376C20.7078 11.5891 21.2502 9.56271 21.2502 7.50002C21.2502 5.43733 20.7078 3.41091 19.6774 1.62402ZM9.53119 10.6875C10.1616 10.6875 10.7779 10.5006 11.3021 10.1504C11.8263 9.80015 12.2349 9.30233 12.4761 8.7199C12.7174 8.13746 12.7805 7.49656 12.6576 6.87823C12.5346 6.25991 12.231 5.69195 11.7852 5.24616C11.3395 4.80037 10.7715 4.49678 10.1532 4.37378C9.53486 4.25078 8.89395 4.3139 8.31151 4.55515C7.72906 4.7964 7.23124 5.20495 6.88099 5.72913C6.53074 6.25332 6.34379 6.86959 6.34379 7.50002C6.34482 8.34507 6.68096 9.15521 7.27849 9.75275C7.87602 10.3503 8.68615 10.6865 9.53119 10.6875ZM9.53119 4.81252C10.0627 4.8125 10.5823 4.97011 11.0243 5.2654C11.4663 5.56069 11.8108 5.98042 12.0142 6.47149C12.2176 6.96257 12.2708 7.50294 12.1672 8.02427C12.0635 8.5456 11.8075 9.02447 11.4317 9.40034C11.0558 9.7762 10.577 10.0322 10.0556 10.1359C9.5343 10.2396 8.99393 10.1864 8.50285 9.98296C8.01177 9.77955 7.59203 9.43509 7.29672 8.99313C7.00141 8.55117 6.84379 8.03156 6.84379 7.50002C6.84461 6.78752 7.12801 6.10444 7.63181 5.60062C8.13561 5.09679 8.81869 4.81337 9.53119 4.81252ZM9.53119 13.0159C8.36829 13.0139 7.21645 13.2417 6.14184 13.6862C5.06723 14.1307 4.09102 14.7831 3.26929 15.6059L3.03119 15.844V21H16.0312V15.8438L15.7932 15.6057C14.9714 14.7829 13.9952 14.1305 12.9206 13.6861C11.8459 13.2416 10.6941 13.0139 9.53119 13.0159ZM15.5312 20.5H3.53119V16.0508L3.62289 15.9592C5.19116 14.3946 7.316 13.5159 9.53129 13.5159C11.7466 13.5159 13.8714 14.3946 15.4397 15.9592L15.5312 16.0508V20.5Z" fill="black"/>
</svg>
