<svg width="24" height="24" viewBox="0 0 24 24" fill="none" xmlns="http://www.w3.org/2000/svg">
<path d="M10.744 6.6584L11.1265 7.0377C11.439 7.34764 11.845 7.54583 12.2817 7.60155C12.7183 7.65728 13.1611 7.56741 13.5414 7.3459L15.64 6.1237L20.2772 10.761L20.6308 10.4074L23.1284 7.909L18.3964 3.1709L14.3421 3.1761C13.8124 3.17666 13.3045 3.38734 12.93 3.7619L10.7426 5.9499C10.696 5.99645 10.6592 6.05173 10.634 6.11257C10.6089 6.17341 10.596 6.23861 10.5962 6.30444C10.5963 6.37027 10.6094 6.43542 10.6348 6.49616C10.6601 6.5569 10.6973 6.61204 10.744 6.6584ZM11.3975 16.0636C11.2244 16.0634 11.053 16.0973 10.8931 16.1636C10.7332 16.2298 10.588 16.327 10.4658 16.4495L8.2977 18.6175C8.05059 18.8646 7.91177 19.1997 7.91177 19.5492C7.91177 19.8987 8.05059 20.2338 8.2977 20.4809C8.5448 20.728 8.87994 20.8668 9.22939 20.8668C9.57885 20.8668 9.91399 20.728 10.1611 20.4809L12.3291 18.3128C12.5133 18.1285 12.6388 17.8938 12.6896 17.6382C12.7404 17.3826 12.7144 17.1177 12.6146 16.877C12.5149 16.6363 12.3461 16.4305 12.1294 16.2857C11.9128 16.1409 11.6581 16.0636 11.3975 16.0636ZM7.1882 13.1719C7.43528 12.9248 7.5741 12.5897 7.57411 12.2403C7.57412 11.8909 7.43532 11.5557 7.18825 11.3086C6.94117 11.0616 6.60606 10.9227 6.25663 10.9227C5.9072 10.9227 5.57208 11.0615 5.325 11.3086L2.42 14.2135C2.29659 14.3356 2.19853 14.4809 2.13145 14.641C2.06437 14.8011 2.02961 14.9729 2.02914 15.1465C2.02868 15.3202 2.06254 15.4921 2.12876 15.6526C2.19498 15.8131 2.29227 15.9589 2.41503 16.0817C2.53778 16.2044 2.68359 16.3017 2.84407 16.3679C3.00455 16.4342 3.17654 16.468 3.35014 16.4676C3.52375 16.4671 3.69555 16.4323 3.85568 16.3652C4.0158 16.2982 4.16109 16.2001 4.2832 16.0767L7.1882 13.1719ZM10.2882 13.3498C10.1659 13.2274 10.0206 13.1304 9.86078 13.0642C9.70093 12.998 9.52961 12.9639 9.3566 12.9639C9.18358 12.9639 9.01226 12.998 8.85241 13.0642C8.69257 13.1304 8.54733 13.2274 8.425 13.3498L4.5229 17.2514C4.27587 17.4985 4.1371 17.8336 4.1371 18.183C4.1371 18.5325 4.27587 18.8676 4.5229 19.1147C4.77005 19.3617 5.1052 19.5005 5.45465 19.5005C5.80409 19.5005 6.13924 19.3617 6.3864 19.1147L10.288 15.2131C10.535 14.966 10.6738 14.6309 10.6738 14.2815C10.6738 13.9321 10.535 13.597 10.288 13.3499L10.2882 13.3498ZM17.2468 9.8599L15.3909 8.0046L14.2963 8.6421C13.6307 9.0298 12.8557 9.18708 12.0916 9.08956C11.3275 8.99203 10.6169 8.64516 10.07 8.1027L9.6875 7.7235C9.50052 7.53806 9.352 7.31751 9.25047 7.07453C9.14894 6.83154 9.0964 6.5709 9.09586 6.30755C9.09533 6.04421 9.1468 5.78335 9.24733 5.53995C9.34787 5.29655 9.49548 5.0754 9.68169 4.8892L11.3836 3.1872L5.6084 3.1826L0.871796 7.9254L3.7292 10.7829L4.2644 10.2478C4.61311 9.89983 5.0469 9.64929 5.52256 9.52111C5.99822 9.39294 6.49916 9.3916 6.9755 9.51724C7.45183 9.64288 7.88695 9.89111 8.23751 10.2372C8.58808 10.5833 8.84186 11.0152 8.9736 11.4899C9.10045 11.4729 9.2283 11.4643 9.3563 11.4643C9.75856 11.4643 10.1562 11.5504 10.5223 11.717C10.8885 11.8835 11.2147 12.1265 11.4791 12.4297C11.7435 12.7329 11.9398 13.0893 12.0549 13.4747C12.17 13.8602 12.2011 14.2658 12.1463 14.6643C12.6215 14.7955 13.0539 15.049 13.4005 15.3996C13.7471 15.7501 13.9957 16.1854 14.1215 16.662C14.2473 17.1387 14.2459 17.64 14.1174 18.1159C13.989 18.5918 13.7379 19.0257 13.3894 19.3743L12.8773 19.8864L13.3058 20.3149C13.6244 20.6308 14.0552 20.8076 14.5038 20.8067C14.9525 20.8057 15.3825 20.6271 15.6997 20.3098C16.017 19.9926 16.1957 19.5626 16.1966 19.1139C16.1976 18.6653 16.0208 18.2345 15.7049 17.9159L16.2935 18.5045C16.6121 18.8204 17.0429 18.9972 17.4915 18.9962C17.9402 18.9953 18.3702 18.8166 18.6874 18.4993C19.0047 18.1821 19.1833 17.7521 19.1843 17.3034C19.1852 16.8548 19.0084 16.424 18.6925 16.1054L18.2 15.6118C18.3575 15.7693 18.5445 15.8943 18.7503 15.9795C18.9561 16.0648 19.1767 16.1087 19.3994 16.1087C19.6222 16.1087 19.8428 16.0648 20.0486 15.9795C20.2544 15.8943 20.4414 15.7693 20.5989 15.6118C20.7564 15.4543 20.8814 15.2673 20.9666 15.0615C21.0519 14.8557 21.0958 14.6351 21.0958 14.4123C21.0958 14.1895 21.0519 13.9689 20.9666 13.7631C20.8814 13.5573 20.7564 13.3703 20.5989 13.2128L17.2468 9.8599Z" fill="black"/>
</svg>
