<svg width="24" height="24" viewBox="0 0 24 24" fill="none" xmlns="http://www.w3.org/2000/svg">
<path d="M16.1406 4.25492C16.4296 4.25492 16.7121 4.16922 16.9524 4.00866C17.1927 3.8481 17.38 3.6199 17.4906 3.3529C17.6012 3.0859 17.6301 2.7921 17.5737 2.50865C17.5173 2.22521 17.3782 1.96485 17.1738 1.7605C16.9695 1.55614 16.7091 1.41698 16.4257 1.3606C16.1422 1.30422 15.8484 1.33315 15.5814 1.44375C15.3144 1.55434 15.0862 1.74163 14.9257 1.98192C14.7651 2.22221 14.6794 2.50472 14.6794 2.79372C14.6794 3.18125 14.8334 3.55289 15.1074 3.82692C15.3814 4.10094 15.7531 4.25489 16.1406 4.25492ZM18.5 12.4998C17.61 12.4998 16.74 12.7637 15.9999 13.2582C15.2599 13.7527 14.6831 14.4555 14.3425 15.2777C14.0019 16.1 13.9128 17.0048 14.0865 17.8777C14.2601 18.7506 14.6887 19.5525 15.318 20.1818C15.9474 20.8111 16.7492 21.2397 17.6221 21.4134C18.495 21.587 19.3998 21.4979 20.2221 21.1573C21.0443 20.8167 21.7471 20.2399 22.2416 19.4999C22.7361 18.7599 23 17.8898 23 16.9998C23 15.8063 22.5259 14.6618 21.682 13.8178C20.8381 12.9739 19.6935 12.4998 18.5 12.4998ZM18.5 19.5998C17.9858 19.5998 17.4831 19.4473 17.0555 19.1616C16.6279 18.8759 16.2947 18.4699 16.0979 17.9948C15.9011 17.5197 15.8496 16.9969 15.95 16.4926C16.0503 15.9882 16.2979 15.525 16.6615 15.1613C17.0251 14.7977 17.4884 14.5501 17.9928 14.4498C18.4971 14.3495 19.0199 14.4009 19.495 14.5977C19.9701 14.7945 20.3761 15.1278 20.6618 15.5553C20.9475 15.9829 21.1 16.4856 21.1 16.9998C21.0992 17.6891 20.825 18.35 20.3376 18.8374C19.8502 19.3248 19.1893 19.599 18.5 19.5998ZM5.5 12.4998C4.60998 12.4998 3.73995 12.7637 2.99993 13.2582C2.25991 13.7527 1.68313 14.4555 1.34254 15.2777C1.00195 16.1 0.912831 17.0048 1.08646 17.8777C1.2601 18.7506 1.68868 19.5525 2.31802 20.1818C2.94735 20.8111 3.74918 21.2397 4.62209 21.4134C5.49501 21.587 6.39981 21.4979 7.22207 21.1573C8.04434 20.8167 8.74715 20.2399 9.24161 19.4999C9.73608 18.7599 10 17.8898 10 16.9998C10 16.4089 9.8836 15.8237 9.65746 15.2777C9.43131 14.7318 9.09984 14.2357 8.68198 13.8178C8.26411 13.4 7.76804 13.0685 7.22207 12.8424C6.67611 12.6162 6.09095 12.4998 5.5 12.4998ZM5.5 19.5998C4.98577 19.5998 4.48308 19.4473 4.05552 19.1616C3.62795 18.8759 3.2947 18.4699 3.09791 17.9948C2.90112 17.5197 2.84964 16.9969 2.94996 16.4926C3.05028 15.9882 3.2979 15.525 3.66152 15.1613C4.02514 14.7977 4.48841 14.5501 4.99276 14.4498C5.49711 14.3495 6.01989 14.4009 6.49498 14.5977C6.97006 14.7945 7.37613 15.1278 7.66182 15.5553C7.94751 15.9829 8.1 16.4856 8.1 16.9998C8.0992 17.6891 7.82502 18.35 7.3376 18.8374C6.85018 19.3248 6.18932 19.599 5.5 19.5998ZM19.3428 9.80842L15.2412 5.70632C14.6696 5.1612 13.91 4.85708 13.1201 4.85708C12.3302 4.85708 11.5706 5.1612 10.999 5.70632L8.12 8.58572C7.74526 8.96093 7.53478 9.46953 7.53478 9.99982C7.53478 10.5301 7.74526 11.0387 8.12 11.4139L11.12 14.4139V19.9998H13.12V14.4139C13.1184 13.8838 12.9079 13.3758 12.5342 12.9998L9.5342 9.99982L12.4131 7.12092C12.6036 6.93923 12.8568 6.83787 13.1201 6.83787C13.3834 6.83787 13.6366 6.93923 13.8271 7.12092L17.9287 11.2225L19.3428 9.80842Z" fill="black"/>
</svg>
