<svg width="24" height="24" viewBox="0 0 24 24" fill="none" xmlns="http://www.w3.org/2000/svg">
<path d="M19.7 8.30001V5.55291H18.3V8.30001H15.5529V9.70001H18.3V12.4469H19.7V9.70001H22.4469V8.30001H19.7ZM9.5 9.83331C10.2582 9.83332 10.9993 9.60851 11.6298 9.1873C12.2602 8.76609 12.7515 8.1674 13.0417 7.46693C13.3318 6.76646 13.4078 5.99569 13.2598 5.25207C13.1119 4.50845 12.7468 3.8254 12.2107 3.28928C11.6746 2.75317 10.9916 2.38807 10.2479 2.24016C9.50432 2.09225 8.73354 2.16817 8.03308 2.45833C7.33261 2.74848 6.73391 3.23983 6.3127 3.87025C5.89149 4.50066 5.66668 5.24182 5.6667 6.00001C5.66789 7.01629 6.07214 7.99062 6.79076 8.70924C7.50939 9.42787 8.48371 9.83211 9.5 9.83331ZM9.5 3.66661C9.96151 3.66659 10.4127 3.80342 10.7964 4.05981C11.1801 4.31619 11.4792 4.68061 11.6559 5.10698C11.8325 5.53335 11.8787 6.00253 11.7887 6.45517C11.6987 6.90781 11.4764 7.32359 11.1501 7.64993C10.8238 7.97627 10.408 8.19852 9.95536 8.28856C9.50272 8.37861 9.03355 8.3324 8.60717 8.1558C8.18079 7.97919 7.81636 7.68011 7.55996 7.29638C7.30355 6.91266 7.1667 6.46151 7.1667 6.00001C7.16741 5.38139 7.41347 4.78831 7.85089 4.35087C8.28831 3.91343 8.88138 3.66735 9.5 3.66661ZM9.5 11.645C8.1582 11.6427 6.82917 11.9055 5.58923 12.4183C4.34929 12.9311 3.22288 13.6838 2.2747 14.6332L2 14.9079V20H17V14.9079L16.7253 14.6332C15.7771 13.6838 14.6507 12.9311 13.4108 12.4183C12.1708 11.9055 10.8418 11.6427 9.5 11.645ZM15.5 18.5H3.5V15.54C3.5234 15.5189 3.59 15.4553 3.6132 15.4347C5.22009 13.9622 7.32048 13.1454 9.5 13.1454C11.6795 13.1454 13.7799 13.9622 15.3868 15.4347C15.4105 15.4553 15.4768 15.5189 15.5 15.54V18.5Z" fill="black"/>
</svg>
