<svg width="24" height="24" viewBox="0 0 24 24" fill="none" xmlns="http://www.w3.org/2000/svg">
<path d="M17.8477 9.79367L14.2637 6.75857C13.6786 6.2621 12.9363 5.98941 12.1689 5.98907H8.87C8.48362 5.98825 8.10454 6.09429 7.77468 6.29548C7.44482 6.49667 7.17702 6.78517 7.0009 7.12907L5.3633 10.3035L7.0947 11.3875L8.8857 8.40977H10.81L8.8564 11.7752V11.7742L6.584 15.7098L1.7109 16.0857V18.1209H6.8018C7.1636 18.121 7.51993 18.0326 7.83963 17.8632C8.15933 17.6938 8.43265 17.4486 8.6357 17.1492L10.37 14.6014L13.34 17.0498L13.7414 21.9736H15.752V16.8598C15.7514 16.5597 15.6904 16.2629 15.5724 15.987C15.4544 15.7112 15.282 15.4619 15.0654 15.2543L12.8486 13.1381L14.5635 10.184L16.2935 11.6498C16.7262 12.015 17.2859 12.194 17.8502 12.1478L21.7418 11.8197V9.79367H17.8477ZM21.2617 11.3787L17.81 11.6698C17.3731 11.7053 16.94 11.5666 16.6049 11.2841L14.4369 9.44807L12.2436 13.2245L14.7336 15.6024C14.9033 15.7651 15.0384 15.9603 15.1309 16.1765C15.2233 16.3926 15.2712 16.6252 15.2717 16.8603V21.4931H14.1846L13.8027 16.8075L10.2686 13.8964L8.2393 16.8798C8.07996 17.1142 7.86565 17.3062 7.61508 17.4388C7.36451 17.5714 7.08529 17.6406 6.8018 17.6405H2.1918V16.531L6.8734 16.1687L11.6436 7.92977H8.6143L6.9343 10.7218L5.9919 10.1318L7.4268 7.34977C7.56286 7.08431 7.76966 6.86162 8.02435 6.70633C8.27904 6.55103 8.5717 6.46916 8.87 6.46977H12.1688C12.8224 6.46984 13.4547 6.70208 13.953 7.12507L17.6718 10.2745H21.2618L21.2617 11.3787ZM15.8594 5.95117C16.2055 5.95117 16.5439 5.84854 16.8316 5.65624C17.1194 5.46395 17.3437 5.19064 17.4762 4.87087C17.6086 4.5511 17.6433 4.19923 17.5758 3.85976C17.5083 3.5203 17.3416 3.20848 17.0968 2.96374C16.8521 2.71899 16.5403 2.55232 16.2008 2.4848C15.8613 2.41727 15.5095 2.45193 15.1897 2.58438C14.8699 2.71684 14.5966 2.94114 14.4043 3.22892C14.212 3.51671 14.1094 3.85506 14.1094 4.20117C14.1094 4.6653 14.2938 5.11042 14.622 5.43861C14.9502 5.7668 15.3953 5.95117 15.8594 5.95117ZM15.8594 2.95117C16.1066 2.95117 16.3483 3.02448 16.5539 3.16184C16.7594 3.29919 16.9196 3.49441 17.0142 3.72282C17.1089 3.95123 17.1336 4.20256 17.0854 4.44504C17.0372 4.68751 16.9181 4.91024 16.7433 5.08506C16.5685 5.25987 16.3457 5.37892 16.1033 5.42715C15.8608 5.47539 15.6095 5.45063 15.381 5.35602C15.1526 5.26141 14.9574 5.1012 14.8201 4.89564C14.6827 4.69007 14.6094 4.4484 14.6094 4.20117C14.6098 3.86977 14.7416 3.55204 14.9759 3.3177C15.2103 3.08336 15.528 2.95154 15.8594 2.95117Z" fill="black"/>
</svg>
