<svg width="24" height="24" viewBox="0 0 24 24" fill="none" xmlns="http://www.w3.org/2000/svg">
<path d="M12 6.13916C12.3461 6.13916 12.6844 6.03653 12.9722 5.84423C13.26 5.65194 13.4843 5.37863 13.6168 5.05886C13.7492 4.73909 13.7839 4.38722 13.7163 4.04775C13.6488 3.70829 13.4822 3.39647 13.2374 3.15172C12.9927 2.90698 12.6808 2.74031 12.3414 2.67279C12.0019 2.60526 11.65 2.63992 11.3303 2.77237C11.0105 2.90483 10.7372 3.12913 10.5449 3.41691C10.3526 3.7047 10.25 4.04304 10.25 4.38916C10.25 4.85329 10.4343 5.29841 10.7625 5.6266C11.0907 5.95479 11.5358 6.13916 12 6.13916ZM12 3.48916C12.178 3.48916 12.352 3.54195 12.5 3.64084C12.648 3.73973 12.7633 3.88029 12.8315 4.04475C12.8996 4.2092 12.9174 4.39016 12.8827 4.56474C12.848 4.73933 12.7622 4.89969 12.6364 5.02556C12.5105 5.15142 12.3501 5.23714 12.1756 5.27187C12.001 5.30659 11.82 5.28877 11.6556 5.22065C11.4911 5.15253 11.3505 5.03718 11.2517 4.88917C11.1528 4.74117 11.1 4.56716 11.1 4.38916C11.1002 4.15055 11.1951 3.92178 11.3639 3.75306C11.5326 3.58433 11.7614 3.48943 12 3.48916ZM1.86047 10.2284V15.9999H2.86047V19.9999H6.95347V15.9999H7.95347V10.2284C7.5534 9.82829 7.07845 9.51093 6.55573 9.29442C6.03301 9.0779 5.47276 8.96646 4.90697 8.96646C4.34119 8.96646 3.78094 9.0779 3.25822 9.29442C2.7355 9.51093 2.26055 9.82829 1.86047 10.2284ZM7.05347 15.0999H6.05347V19.0999H3.76057V15.0999H2.76057V10.6268C3.3678 10.1349 4.12556 9.86645 4.90702 9.86645C5.68849 9.86645 6.44625 10.1349 7.05347 10.6268V15.0999ZM8.95347 8.22836V13.9999H9.95347V19.9999H14.0465V13.9999H15.0465V8.22836C14.6464 7.82829 14.1714 7.51093 13.6487 7.29442C13.126 7.0779 12.5658 6.96646 12 6.96646C11.4342 6.96646 10.8739 7.0779 10.3512 7.29442C9.8285 7.51093 9.35355 7.82829 8.95347 8.22836ZM14.1465 13.0999H13.1465V19.0999H10.8535V13.0999H9.85347V8.62676C10.4607 8.13484 11.2185 7.86641 12 7.86641C12.7815 7.86641 13.5392 8.13484 14.1465 8.62676V13.0999ZM19.093 8.96646C18.5271 8.96575 17.9666 9.07686 17.4438 9.29342C16.921 9.50997 16.4461 9.82771 16.0465 10.2284V15.9999H17.0465V19.9999H21.14V15.9999H22.14V10.2284C21.7403 9.82765 21.2653 9.50988 20.7424 9.29332C20.2195 9.07676 19.659 8.96568 19.093 8.96646ZM21.2394 15.0999H20.2394V19.0999H17.9465V15.0999H16.9465V10.6268C17.5537 10.1349 18.3115 9.86645 19.0929 9.86645C19.8744 9.86645 20.6321 10.1349 21.2394 10.6268V15.0999ZM19.093 8.13916C19.4391 8.13916 19.7774 8.03653 20.0652 7.84423C20.353 7.65194 20.5773 7.37863 20.7098 7.05886C20.8422 6.73909 20.8769 6.38722 20.8093 6.04775C20.7418 5.70829 20.5752 5.39647 20.3304 5.15172C20.0857 4.90698 19.7738 4.74031 19.4344 4.67279C19.0949 4.60526 18.743 4.63992 18.4233 4.77237C18.1035 4.90483 17.8302 5.12913 17.6379 5.41691C17.4456 5.7047 17.343 6.04304 17.343 6.38916C17.343 6.85329 17.5273 7.29841 17.8555 7.6266C18.1837 7.95479 18.6288 8.13916 19.093 8.13916ZM19.093 5.48916C19.271 5.48916 19.445 5.54195 19.593 5.64084C19.741 5.73973 19.8563 5.88029 19.9245 6.04475C19.9926 6.2092 20.0104 6.39016 19.9757 6.56474C19.941 6.73933 19.8552 6.89969 19.7294 7.02556C19.6035 7.15142 19.4431 7.23714 19.2686 7.27187C19.094 7.30659 18.913 7.28877 18.7486 7.22065C18.5841 7.15253 18.4435 7.03718 18.3447 6.88917C18.2458 6.74117 18.193 6.56716 18.193 6.38916C18.1933 6.15056 18.2882 5.92181 18.4569 5.75309C18.6256 5.58437 18.8544 5.48945 19.093 5.48916ZM4.90697 8.13916C5.25309 8.13916 5.59144 8.03653 5.87922 7.84423C6.16701 7.65194 6.39131 7.37863 6.52376 7.05886C6.65622 6.73909 6.69087 6.38722 6.62335 6.04775C6.55582 5.70829 6.38915 5.39647 6.14441 5.15172C5.89967 4.90698 5.58785 4.74031 5.24838 4.67279C4.90891 4.60526 4.55705 4.63992 4.23728 4.77237C3.91751 4.90483 3.64419 5.12913 3.4519 5.41691C3.25961 5.7047 3.15697 6.04304 3.15697 6.38916C3.15697 6.85329 3.34135 7.29841 3.66954 7.6266C3.99773 7.95479 4.44284 8.13916 4.90697 8.13916ZM4.90697 5.48916C5.08498 5.48916 5.25898 5.54195 5.40699 5.64084C5.55499 5.73973 5.67035 5.88029 5.73847 6.04475C5.80658 6.2092 5.82441 6.39016 5.78968 6.56474C5.75495 6.73933 5.66924 6.89969 5.54337 7.02556C5.4175 7.15142 5.25714 7.23714 5.08256 7.27187C4.90797 7.30659 4.72701 7.28877 4.56256 7.22065C4.39811 7.15253 4.25754 7.03718 4.15865 6.88917C4.05976 6.74117 4.00697 6.56716 4.00697 6.38916C4.00726 6.15056 4.10218 5.92181 4.2709 5.75309C4.43962 5.58437 4.66837 5.48945 4.90697 5.48916Z" fill="black"/>
</svg>
