<svg width="24" height="24" viewBox="0 0 24 24" fill="none" xmlns="http://www.w3.org/2000/svg">
<path d="M15.3472 4.12505C15.9387 5.15151 16.25 6.31538 16.25 7.50005C16.25 8.68472 15.9387 9.84859 15.3472 10.875L16.645 11.627C17.3689 10.3721 17.75 8.94882 17.75 7.50005C17.75 6.05127 17.3689 4.62799 16.645 3.37305L15.3472 4.12505ZM20.11 1.37305L18.8121 2.12505C19.7542 3.75973 20.2501 5.61332 20.2501 7.50005C20.2501 9.38678 19.7542 11.2404 18.8121 12.875L20.11 13.627C21.1845 11.7639 21.7501 9.65086 21.7501 7.50005C21.7501 5.34923 21.1845 3.23624 20.11 1.37305ZM9.875 10.6875C10.5054 10.6875 11.1217 10.5006 11.6459 10.1504C12.1701 9.80011 12.5786 9.30229 12.8199 8.71985C13.0611 8.13741 13.1242 7.49651 13.0013 6.8782C12.8783 6.25988 12.5747 5.69192 12.1289 5.24614C11.6831 4.80036 11.1152 4.49678 10.4969 4.37379C9.87854 4.2508 9.23764 4.31393 8.6552 4.55518C8.07276 4.79643 7.57494 5.20498 7.22469 5.72917C6.87444 6.25335 6.6875 6.86962 6.6875 7.50005C6.68853 8.34511 7.02469 9.15526 7.62224 9.75281C8.21979 10.3504 9.02994 10.6865 9.875 10.6875ZM9.875 13.2346C8.77922 13.2327 7.69386 13.4473 6.68124 13.866C5.66862 14.2847 4.74869 14.8994 3.9743 15.6746L3.75 15.899V21H16V15.8994L15.7757 15.675C15.0013 14.8997 14.0814 14.285 13.0688 13.8662C12.0562 13.4474 10.9708 13.2327 9.875 13.2346Z" fill="black"/>
</svg>
