<svg width="24" height="24" viewBox="0 0 24 24" fill="none" xmlns="http://www.w3.org/2000/svg">
<path d="M21.6143 16.7393L21.2607 16.3857L19 18.6465L16.7393 16.3857L16.3857 16.7393L18.6465 19L16.3857 21.2607L16.7393 21.6143L19 19.3535L21.2607 21.6143L21.6143 21.2607L19.3535 19L21.6143 16.7393ZM9.6045 1.00003C7.58834 1.00222 5.65538 1.80412 4.22973 3.22976C2.80409 4.65541 2.0022 6.58836 2 8.60453V19.1719C2.00003 19.9291 2.22456 20.6692 2.64522 21.2987C3.06587 21.9283 3.66375 22.4189 4.36326 22.7087C5.06276 22.9984 5.83248 23.0742 6.57508 22.9266C7.31767 22.7789 7.9998 22.4143 8.5352 21.8789L13.4111 17.0029C14.5525 15.8678 15.4574 14.5176 16.0734 13.0304C16.6894 11.5432 17.0044 9.94864 17 8.33893C16.9903 6.38569 16.2063 4.51606 14.8198 3.14021C13.4334 1.76436 11.5577 0.994681 9.6045 1.00003ZM13.03 11.76L12.5632 11.58C12.9662 10.5352 13.172 9.42462 13.17 8.30473C13.1604 7.3622 12.7773 6.46197 12.1049 5.80144C11.4325 5.14092 10.5255 4.77403 9.583 4.78123C8.56938 4.78237 7.5976 5.18555 6.88088 5.90232C6.16417 6.61909 5.76106 7.5909 5.76 8.60453V12.208L6.96 13.408C7.27167 13.7196 7.48394 14.1166 7.56997 14.5488C7.656 14.981 7.61192 15.429 7.4433 15.8362C7.27469 16.2433 6.98911 16.5914 6.6227 16.8362C6.25629 17.0811 5.82549 17.2117 5.3848 17.2117H5.2119V16.7117H5.3848C5.72652 16.7116 6.06054 16.6102 6.34463 16.4202C6.62872 16.2303 6.85013 15.9605 6.98087 15.6447C7.11161 15.329 7.14582 14.9816 7.07916 14.6464C7.01251 14.3113 6.84799 14.0034 6.6064 13.7617L5.26 12.415V8.60503C5.26116 7.45878 5.71697 6.3598 6.52742 5.54921C7.33786 4.73861 8.43675 4.2826 9.583 4.28123C10.6582 4.27403 11.6923 4.69361 12.4585 5.4479C13.2246 6.20218 13.6604 7.22959 13.67 8.30473C13.6723 9.48617 13.4553 10.6578 13.03 11.76Z" fill="black"/>
</svg>
