<svg width="24" height="24" viewBox="0 0 24 24" fill="none" xmlns="http://www.w3.org/2000/svg">
<path d="M9.60778 5.24463C9.90446 5.24463 10.1945 5.15666 10.4411 4.99183C10.6878 4.82701 10.8801 4.59274 10.9936 4.31865C11.1071 4.04457 11.1368 3.74297 11.079 3.45199C11.0211 3.16102 10.8782 2.89375 10.6684 2.68397C10.4587 2.47419 10.1914 2.33133 9.90042 2.27345C9.60945 2.21557 9.30785 2.24528 9.03376 2.35881C8.75967 2.47234 8.5254 2.6646 8.36058 2.91127C8.19576 3.15795 8.10778 3.44796 8.10778 3.74463C8.10778 4.14245 8.26582 4.52398 8.54713 4.80529C8.82843 5.08659 9.20996 5.24463 9.60778 5.24463ZM18.2051 15.6746C18.1293 15.3422 17.9433 15.0452 17.6773 14.8319C17.4113 14.6186 17.0809 14.5016 16.74 14.4998H14.957L13.5363 9.21983C13.3647 8.58272 12.9879 8.01993 12.4642 7.6186C11.9405 7.21727 11.2991 6.99979 10.6393 6.99983H9.53519C9.30494 6.99982 9.07779 7.05281 8.87131 7.15469C8.66484 7.25658 8.48459 7.40463 8.34454 7.58738C8.20448 7.77013 8.10837 7.98266 8.06366 8.20852C8.01894 8.43438 8.02682 8.6675 8.08669 8.88983L9.80079 15.2598C9.85797 15.4722 9.98358 15.6598 10.1582 15.7936C10.3327 15.9274 10.5465 15.9998 10.7665 15.9998H16.74L18.0649 21.9998H19.6014L18.2051 15.6746ZM11.15 14.4998L9.53548 8.49983H10.6396C10.9694 8.50021 11.2899 8.60911 11.5517 8.80971C11.8135 9.01031 12.0019 9.29148 12.0881 9.60983L13.404 14.4998H11.15ZM14.9593 18.0144H10.9121C10.2536 18.0138 9.61369 17.7962 9.0913 17.3953C8.5689 16.9944 8.19313 16.4326 8.02209 15.7967L5.81839 7.56983C5.79286 7.47467 5.74885 7.38546 5.68885 7.30731C5.62885 7.22916 5.55405 7.16359 5.46871 7.11435C5.38338 7.06511 5.28918 7.03315 5.19149 7.02032C5.09381 7.00748 4.99455 7.01401 4.89939 7.03953C4.80422 7.06505 4.71502 7.10907 4.63687 7.16906C4.55872 7.22906 4.49315 7.30386 4.4439 7.3892C4.39466 7.47454 4.36271 7.56874 4.34987 7.66642C4.33703 7.76411 4.34356 7.86337 4.36909 7.95853L6.57319 16.185C6.83018 17.1396 7.39442 17.9829 8.17868 18.5846C8.96295 19.1863 9.92357 19.513 10.9121 19.5141H14.959C15.1579 19.5141 15.3487 19.4351 15.4893 19.2945C15.63 19.1538 15.709 18.963 15.709 18.7641C15.709 18.5652 15.63 18.3745 15.4893 18.2338C15.3487 18.0931 15.1579 18.0141 14.959 18.0141L14.9593 18.0144Z" fill="black"/>
</svg>
