<svg width="24" height="24" viewBox="0 0 24 24" fill="none" xmlns="http://www.w3.org/2000/svg">
<path d="M19.4376 5H2V19H19.4376L23.4376 12L19.4376 5ZM19.1476 18.5H2.5V5.5H19.1475L22.8617 12L19.1476 18.5ZM12.715 10.7252L11.6772 7.5312L10.6393 10.7252H7.2808L9.9979 12.6992L8.96 15.8932L11.6771 13.9192L14.3941 15.8932L13.3563 12.6992L16.0733 10.7252H12.715ZM12.9284 12.8383L13.5384 14.7151L11.9419 13.5551L11.6773 13.363L11.4126 13.5551L9.8162 14.7151L10.4262 12.8383L10.5272 12.5273L10.2628 12.3351L8.6662 11.1751H10.9662L11.0673 10.8642L11.6773 8.9873L12.2873 10.8642L12.3884 11.1751H14.6884L13.0917 12.3351L12.8273 12.5273L12.9284 12.8383Z" fill="black"/>
</svg>
