<svg width="24" height="24" viewBox="0 0 24 24" fill="none" xmlns="http://www.w3.org/2000/svg">
<path d="M12 2C10.0222 2 8.08879 2.58649 6.4443 3.6853C4.79981 4.78412 3.51809 6.3459 2.76121 8.17317C2.00433 10.0004 1.8063 12.0111 2.19215 13.9509C2.578 15.8907 3.53041 17.6725 4.92894 19.0711C6.32746 20.4696 8.10929 21.422 10.0491 21.8079C11.9889 22.1937 13.9996 21.9957 15.8268 21.2388C17.6541 20.4819 19.2159 19.2002 20.3147 17.5557C21.4135 15.9112 22 13.9778 22 12C22 10.6868 21.7413 9.38642 21.2388 8.17317C20.7363 6.95991 19.9997 5.85752 19.0711 4.92893C18.1425 4.00035 17.0401 3.26375 15.8268 2.7612C14.6136 2.25866 13.3132 2 12 2ZM3.951 10.4072C4.20514 9.11236 4.76861 7.89818 5.59338 6.86816C6.41814 5.83813 7.47973 5.02281 8.68767 4.49169C9.8956 3.96058 11.214 3.72942 12.5306 3.81793C13.8472 3.90644 15.1228 4.31199 16.2488 5H10.31C9.89958 5.00005 9.49911 5.12636 9.16293 5.36181C8.82675 5.59725 8.57115 5.93042 8.4308 6.3161L7.8228 7.9871C7.74036 8.21369 7.71375 8.45681 7.74523 8.69587C7.77672 8.93493 7.86537 9.16287 8.00368 9.36039C8.14198 9.5579 8.32587 9.71916 8.53974 9.8305C8.75362 9.94184 8.99118 9.99999 9.2323 10H10.6147C10.694 10 10.7724 10.0157 10.8456 10.0462C10.9187 10.0767 10.9851 10.1214 11.0409 10.1777C11.0967 10.234 11.1408 10.3008 11.1706 10.3742C11.2004 10.4476 11.2154 10.5262 11.2147 10.6055C11.2127 10.7635 11.1487 10.9144 11.0364 11.0257C10.9242 11.1369 10.7727 11.1996 10.6147 11.2002H8C7.46957 11.2002 6.96086 11.4109 6.58579 11.786C6.21072 12.1611 6 12.6698 6 13.2002V14.2002C6.00006 14.6776 6.18972 15.1353 6.52728 15.4729C6.86484 15.8104 7.32265 16 7.8 16H8V17.5C8 17.6326 8.05268 17.7598 8.14645 17.8536C8.24022 17.9473 8.3674 18 8.5 18H10C10.7957 18 11.5587 17.6839 12.1213 17.1213C12.6839 16.5587 13 15.7956 13 15V13H15C15.7957 13 16.5587 12.6839 17.1213 12.1213C17.6839 11.5587 18 10.7956 18 10V6.4293C19.4129 7.94021 20.1993 9.93137 20.2 12C20.2 12.1346 20.1863 12.2658 20.18 12.3989C19.9567 12.3394 19.7267 12.3084 19.4956 12.3069H19.4913C19.0903 12.3069 18.6936 12.389 18.3255 12.5482C17.9575 12.7074 17.6259 12.9402 17.3513 13.2324L16 14.67V18H17.5707C16.303 19.182 14.6931 19.9314 12.9726 20.1405C11.252 20.3496 9.50949 20.0076 7.99562 19.1636C6.48175 18.3197 5.27457 17.0173 4.54774 15.4439C3.82091 13.8704 3.61187 12.107 3.9507 10.4072H3.951ZM12.3192 8.91C12.0966 8.68425 11.8312 8.50518 11.5385 8.38327C11.2458 8.26136 10.9318 8.19905 10.6147 8.2H9.6608L10.1223 6.9316C10.1364 6.89311 10.1619 6.85986 10.1955 6.83633C10.2291 6.8128 10.269 6.80012 10.31 6.8H16.2V10C16.1997 10.3182 16.0731 10.6232 15.8482 10.8481C15.6232 11.0731 15.3182 11.1997 15 11.2H12.9379C13.0426 10.7974 13.0406 10.3745 12.9321 9.97298C12.8236 9.57143 12.6124 9.20506 12.3192 8.91ZM7.8 14.2V13.2C7.8 13.147 7.82108 13.0961 7.85858 13.0586C7.89609 13.0211 7.94696 13 8 13H11.2V15C11.1997 15.3182 11.0731 15.6232 10.8482 15.8481C10.6232 16.0731 10.3182 16.1997 10 16.2H9.8V14.7C9.8 14.5674 9.74733 14.4402 9.65356 14.3464C9.55979 14.2527 9.43261 14.2 9.3 14.2H7.8ZM19.03 16.2H17.8V15.3832L18.66 14.4683C18.7668 14.3549 18.8956 14.2644 19.0385 14.2023C19.1814 14.1401 19.3354 14.1077 19.4912 14.1069H19.4955C19.6326 14.1087 19.7679 14.1391 19.8926 14.1962C19.6963 14.8998 19.4061 15.5738 19.03 16.2Z" fill="black"/>
</svg>
