<svg width="24" height="24" viewBox="0 0 24 24" fill="none" xmlns="http://www.w3.org/2000/svg">
<path d="M19.071 4.929C17.6725 3.53046 15.8907 2.57803 13.9508 2.19217C12.011 1.8063 10.0003 2.00432 8.17307 2.76119C6.3458 3.51806 4.784 4.79979 3.68518 6.44428C2.58636 8.08878 1.99986 10.0222 1.99986 12C1.99986 13.9778 2.58636 15.9112 3.68518 17.5557C4.784 19.2002 6.3458 20.4819 8.17307 21.2388C10.0003 21.9957 12.011 22.1937 13.9508 21.8078C15.8907 21.422 17.6725 20.4695 19.071 19.071C20.0034 18.1446 20.7433 17.0429 21.2482 15.8293C21.7531 14.6158 22.0131 13.3144 22.0131 12C22.0131 10.6856 21.7531 9.38421 21.2482 8.17068C20.7433 6.95715 20.0034 5.85546 19.071 4.929ZM17.6568 17.6569C16.348 18.9656 14.626 19.7801 12.7841 19.9615C10.9421 20.1429 9.0943 19.68 7.55539 18.6517C6.01648 17.6234 4.88172 16.0934 4.34446 14.3222C3.8072 12.5511 3.90068 10.6484 4.60898 8.93849C5.31727 7.22854 6.59656 5.81708 8.22885 4.94461C9.86115 4.07214 11.7455 3.79263 13.5607 4.15372C15.376 4.51481 17.0099 5.49414 18.1841 6.92486C19.3582 8.35558 20 10.1492 20 12C20.0029 13.051 19.7972 14.0922 19.395 15.0632C18.9928 16.0342 18.402 16.9158 17.6568 17.6569ZM10.8514 13.0327L12.1919 16.5039L15.4726 8.4114L7.38 11.6922L10.8514 13.0327Z" fill="black"/>
</svg>
