<svg width="24" height="24" viewBox="0 0 24 24" fill="none" xmlns="http://www.w3.org/2000/svg">
<path d="M10.3 3V7H8.74999V3H7.24999V7H5.69999V3H4.49999L4.09999 8.022C4.07001 8.39889 4.14748 8.77656 4.32341 9.11122C4.49934 9.44588 4.76652 9.72381 5.09399 9.9128L7.17399 11.1138L6.60199 19.5038C6.58902 19.6953 6.61555 19.8875 6.67993 20.0683C6.74431 20.2492 6.84517 20.4149 6.97625 20.5551C7.10732 20.6954 7.26582 20.8072 7.44191 20.8836C7.618 20.9601 7.80792 20.9995 7.99989 20.9995C8.19185 20.9995 8.38177 20.9601 8.55786 20.8836C8.73395 20.8072 8.89245 20.6954 9.02353 20.5551C9.1546 20.4149 9.25546 20.2492 9.31984 20.0683C9.38422 19.8875 9.41075 19.6953 9.39779 19.5038L8.82579 11.1138L10.9058 9.9128C11.2333 9.72384 11.5005 9.44592 11.6765 9.11126C11.8524 8.7766 11.9299 8.39891 11.9 8.022L11.5 3H10.3ZM17.95 3C17.7329 3.00001 17.5212 3.06733 17.344 3.1927C17.1667 3.31807 17.0328 3.49531 16.9605 3.7L14.408 10.9174C14.2364 11.4026 14.2584 11.9352 14.4695 12.4046C14.6806 12.8739 15.0645 13.2438 15.5413 13.4374L17.2991 14.1511L16.7949 19.797C16.7817 19.9456 16.7988 20.0952 16.8451 20.237C16.8913 20.3788 16.9658 20.5097 17.064 20.622C17.1623 20.7342 17.2822 20.8253 17.4166 20.89C17.551 20.9546 17.6971 20.9913 17.8461 20.998C17.9951 21.0046 18.1439 20.981 18.2835 20.9286C18.4231 20.8762 18.5507 20.7961 18.6585 20.693C18.7663 20.59 18.8522 20.4662 18.9109 20.3291C18.9695 20.192 18.9999 20.0444 19 19.8953V4.05C19 3.77152 18.8894 3.50445 18.6924 3.30754C18.4955 3.11062 18.2285 3 17.95 3Z" fill="black"/>
</svg>
