<svg width="24" height="24" viewBox="0 0 24 24" fill="none" xmlns="http://www.w3.org/2000/svg">
<path d="M19.9747 11.5C19.8535 9.55729 19.0271 7.72569 17.6507 6.34931C16.2743 4.97293 14.4427 4.14651 12.5 4.0253V1H11.5V4.0253C9.55729 4.14651 7.72569 4.97293 6.34931 6.34931C4.97293 7.72569 4.14651 9.55729 4.0253 11.5H1V12.5H4.0253C4.14651 14.4427 4.97293 16.2743 6.34931 17.6507C7.72569 19.0271 9.55729 19.8535 11.5 19.9747V23H12.5V19.9747C14.4427 19.8535 16.2743 19.0271 17.6507 17.6507C19.0271 16.2743 19.8535 14.4427 19.9747 12.5H23V11.5H19.9747ZM12 19C10.6155 19 9.26215 18.5895 8.11101 17.8203C6.95986 17.0511 6.06266 15.9579 5.53284 14.6788C5.00303 13.3997 4.86441 11.9922 5.1345 10.6344C5.4046 9.2765 6.07128 8.02922 7.05025 7.05025C8.02922 6.07128 9.2765 5.4046 10.6344 5.1345C11.9922 4.86441 13.3997 5.00303 14.6788 5.53284C15.9579 6.06266 17.0511 6.95986 17.8203 8.11101C18.5895 9.26215 19 10.6155 19 12C18.9979 13.8559 18.2597 15.6351 16.9474 16.9474C15.6351 18.2597 13.8559 18.9979 12 19ZM14.084 9.209L12 11.293L9.916 9.209L9.209 9.916L11.293 12L9.209 14.084L9.916 14.791L12 12.707L14.084 14.791L14.791 14.084L12.707 12L14.791 9.916L14.084 9.209Z" fill="black"/>
</svg>
