<svg width="24" height="24" viewBox="0 0 24 24" fill="none" xmlns="http://www.w3.org/2000/svg">
<path d="M8.03764 13.0637L15.9006 10.9568C14.3342 5.92997 11.7753 2.29997 9.78434 2.29997C9.64829 2.29967 9.51279 2.31729 9.38134 2.35237C7.34464 2.89837 6.80114 7.57337 8.03764 13.0637ZM16.8555 10.66L16.8673 10.6979L21.794 9.37787C21.0484 7.22952 19.65 5.36787 17.7944 4.0532C15.9389 2.73852 13.7189 2.03653 11.4448 2.04537C13.5688 3.20717 15.5684 6.52997 16.8555 10.66ZM7.06214 13.284C6.18874 9.40607 6.09574 5.32637 7.38484 3.14997C5.42792 4.28625 3.87244 6.00255 2.93358 8.06148C1.99471 10.1204 1.71884 12.4202 2.14414 14.6428L7.07094 13.3228L7.06214 13.284ZM14.6584 19.9613L12.7499 12.8364L11.7831 13.0954L13.6059 19.9C10.2793 19.7917 6.97797 20.5134 3.99994 22H21.9441C19.667 20.864 17.1944 20.1721 14.6584 19.9612V19.9613Z" fill="black"/>
</svg>
