<svg width="24" height="24" viewBox="0 0 24 24" fill="none" xmlns="http://www.w3.org/2000/svg">
<path d="M3 3V21H21V3H3ZM20.5 20.5H3.5V3.5H20.5V20.5ZM11.7206 16.7484L12 17L12.28 16.7484C12.4221 16.6207 15.7592 13.5847 15.7592 10.7584C15.7541 9.7649 15.3558 8.81384 14.6515 8.11314C13.9472 7.41244 12.9941 7.01909 12.0006 7.01909C11.007 7.01909 10.0539 7.41244 9.34961 8.11314C8.64528 8.81384 8.24703 9.7649 8.2419 10.7584C8.2416 13.5847 11.5786 16.6207 11.7206 16.7484ZM12 7.5C12.8639 7.50095 13.6922 7.84456 14.3031 8.45543C14.914 9.06631 15.2577 9.89457 15.2587 10.7585C15.2587 13.179 12.4323 15.9209 12 16.3259C11.568 15.9213 8.7414 13.1793 8.7414 10.7585C8.74238 9.89458 9.08601 9.06632 9.69691 8.45544C10.3078 7.84456 11.1361 7.50095 12 7.5Z" fill="black"/>
<path d="M12 11.45C12.2485 11.45 12.45 11.2485 12.45 11C12.45 10.7515 12.2485 10.55 12 10.55C11.7515 10.55 11.55 10.7515 11.55 11C11.55 11.2485 11.7515 11.45 12 11.45Z" fill="black"/>
</svg>
