<svg width="24" height="24" viewBox="0 0 24 24" fill="none" xmlns="http://www.w3.org/2000/svg">
<path d="M12 2C10.0222 2 8.08879 2.58649 6.4443 3.6853C4.79981 4.78412 3.51809 6.3459 2.76121 8.17317C2.00433 10.0004 1.8063 12.0111 2.19215 13.9509C2.578 15.8907 3.53041 17.6725 4.92894 19.0711C6.32746 20.4696 8.10929 21.422 10.0491 21.8079C11.9889 22.1937 13.9996 21.9957 15.8268 21.2388C17.6541 20.4819 19.2159 19.2002 20.3147 17.5557C21.4135 15.9112 22 13.9778 22 12C22 10.6868 21.7413 9.38642 21.2388 8.17317C20.7363 6.95991 19.9997 5.85752 19.0711 4.92893C18.1425 4.00035 17.0401 3.26375 15.8268 2.7612C14.6136 2.25866 13.3132 2 12 2ZM12 21C10.5597 21.002 9.13986 20.6583 7.85993 19.9977C6.57999 19.3371 5.47729 18.379 4.64449 17.2038C3.81168 16.0286 3.27309 14.6707 3.07397 13.2442C2.87486 11.8177 3.02103 10.3642 3.50021 9.00588C3.97938 7.64757 4.77757 6.42411 5.8277 5.43829C6.87783 4.45248 8.14923 3.7331 9.53507 3.3406C10.9209 2.94811 12.3807 2.89396 13.7918 3.18272C15.2029 3.47147 16.5241 4.09468 17.6444 5H9.6436C9.23313 4.99999 8.83259 5.12627 8.49635 5.36172C8.16012 5.59717 7.90447 5.93037 7.7641 6.3161L7.1561 7.9871C7.07365 8.2137 7.04705 8.45683 7.07854 8.6959C7.11003 8.93496 7.19869 9.16291 7.33701 9.36043C7.47532 9.55794 7.65922 9.7192 7.87311 9.83054C8.087 9.94187 8.32457 10 8.5657 10H9.3646C9.52373 10 9.67635 10.0632 9.78887 10.1757C9.90139 10.2883 9.9646 10.4409 9.9646 10.6C9.9646 10.7591 9.90139 10.9117 9.78887 11.0243C9.67635 11.1368 9.52373 11.2 9.3646 11.2H8C7.46957 11.2 6.96086 11.4107 6.58579 11.7858C6.21072 12.1609 6 12.6696 6 13.2V14.3331C6 14.5983 6.10536 14.8527 6.2929 15.0402C6.48043 15.2277 6.73479 15.3331 7 15.3331H8V17.1665C7.99998 17.276 8.02152 17.3843 8.06339 17.4855C8.10526 17.5866 8.16665 17.6785 8.24404 17.7559C8.32143 17.8333 8.41331 17.8947 8.51444 17.9366C8.61556 17.9785 8.72395 18 8.8334 18H9.6667C10.0169 18 10.3637 17.931 10.6872 17.797C11.0107 17.663 11.3047 17.4666 11.5523 17.2189C11.8 16.9713 11.9964 16.6773 12.1304 16.3538C12.2644 16.0303 12.3334 15.6835 12.3334 15.3333V13H15.3334C16.0406 13 16.7189 12.719 17.219 12.2189C17.7191 11.7188 18 11.0405 18 10.3333V5.3109C19.1337 6.30923 19.9929 7.58122 20.4957 9.00568C20.9985 10.4301 21.1282 11.9596 20.8724 13.4484C20.5088 13.23 20.0932 13.1131 19.669 13.11H19.6653C19.3203 13.1105 18.9791 13.1816 18.6626 13.3188C18.3461 13.456 18.0609 13.6564 17.8247 13.9078L16.6667 15.14V18H18.6891C17.8483 18.9429 16.8178 19.6976 15.6651 20.2146C14.5123 20.7316 13.2634 20.9992 12 21ZM7 14.3333V13.2C7.0003 12.9349 7.10575 12.6807 7.29322 12.4932C7.48069 12.3057 7.73488 12.2003 8 12.2H9.3646C9.78895 12.2 10.1959 12.0314 10.496 11.7314C10.796 11.4313 10.9646 11.0243 10.9646 10.6C10.9646 10.1757 10.796 9.76869 10.496 9.46863C10.1959 9.16857 9.78895 9 9.3646 9H8.5657C8.48531 9.00002 8.4061 8.98066 8.33478 8.94356C8.26346 8.90645 8.20215 8.8527 8.15602 8.78685C8.1099 8.72101 8.08034 8.64501 8.06984 8.56531C8.05934 8.48561 8.06821 8.40454 8.0957 8.329L8.7038 6.6581C8.77434 6.46545 8.90225 6.29907 9.0703 6.18139C9.23835 6.06371 9.43845 6.0004 9.6436 6H17V10.3333C16.9995 10.7752 16.8238 11.1988 16.5113 11.5113C16.1989 11.8237 15.7753 11.9995 15.3334 12H11.3334V15.3333C11.3329 15.7752 11.1571 16.1988 10.8447 16.5113C10.5322 16.8237 10.1086 16.9995 9.6667 17H9V14.3333H7ZM19.4323 17.0667H17.6V15.51L18.5048 14.5472C18.6539 14.389 18.8337 14.2628 19.0331 14.1763C19.2325 14.0897 19.4474 14.0446 19.6648 14.0437H19.6685C20.0338 14.0437 20.3864 14.1778 20.6595 14.4204C20.3977 15.3636 19.9832 16.2576 19.4323 17.0667Z" fill="black"/>
</svg>
