<svg width="24" height="24" viewBox="0 0 24 24" fill="none" xmlns="http://www.w3.org/2000/svg">
<path d="M19.4376 5H2V19H19.4376L23.4376 12L19.4376 5ZM18.8576 18H3V6H18.8573L22.2857 12L18.8576 18ZM17 10.5C16.7033 10.5 16.4133 10.588 16.1666 10.7528C15.92 10.9176 15.7277 11.1519 15.6142 11.426C15.5006 11.7001 15.4709 12.0017 15.5288 12.2926C15.5867 12.5836 15.7296 12.8509 15.9393 13.0607C16.1491 13.2704 16.4164 13.4133 16.7074 13.4712C16.9983 13.5291 17.2999 13.4994 17.574 13.3858C17.8481 13.2723 18.0824 13.08 18.2472 12.8334C18.412 12.5867 18.5 12.2967 18.5 12C18.5 11.6022 18.342 11.2206 18.0607 10.9393C17.7794 10.658 17.3978 10.5 17 10.5ZM17 12.6C16.8813 12.6 16.7653 12.5648 16.6667 12.4989C16.568 12.433 16.4911 12.3392 16.4457 12.2296C16.4003 12.12 16.3884 11.9993 16.4115 11.8829C16.4347 11.7666 16.4918 11.6596 16.5757 11.5757C16.6596 11.4918 16.7666 11.4347 16.8829 11.4115C16.9993 11.3884 17.12 11.4003 17.2296 11.4457C17.3392 11.4911 17.433 11.568 17.4989 11.6667C17.5648 11.7653 17.6 11.8813 17.6 12C17.5998 12.1591 17.5365 12.3116 17.424 12.424C17.3116 12.5365 17.1591 12.5998 17 12.6Z" fill="black"/>
</svg>
