<svg width="24" height="24" viewBox="0 0 24 24" fill="none" xmlns="http://www.w3.org/2000/svg">
<path d="M22.5 3V6H19.5V3H18V6.9774C18.6593 7.47786 19.4323 7.80717 20.25 7.9359V18.4434C20.2473 18.7219 20.1348 18.988 19.9369 19.1839C19.739 19.3799 19.4718 19.4898 19.1933 19.4898C18.9149 19.4898 18.6477 19.3799 18.4498 19.1839C18.2519 18.988 18.1394 18.7219 18.1367 18.4434V15.8066C18.1361 15.1289 17.8667 14.4791 17.3876 13.9998C16.9085 13.5205 16.2588 13.2508 15.5811 13.25H14V6C14 5.20435 13.6839 4.44129 13.1213 3.87868C12.5587 3.31607 11.7956 3 11 3H5C4.20435 3 3.44129 3.31607 2.87868 3.87868C2.31607 4.44129 2 5.20435 2 6V21H14V14.75H15.5811C15.8611 14.7504 16.1295 14.8619 16.3274 15.06C16.5253 15.2581 16.6366 15.5266 16.6367 15.8066V18.4434C16.6409 19.1187 16.9121 19.7649 17.3912 20.2409C17.8702 20.7169 18.518 20.9841 19.1933 20.9841C19.8687 20.9841 20.5165 20.7169 20.9955 20.2409C21.4746 19.7649 21.7458 19.1187 21.75 18.4434V7.9359C22.5677 7.80717 23.3407 7.47786 24 6.9774V3H22.5ZM8 14.6616V11H5L8 5.3384V9H11L8 14.6616Z" fill="black"/>
</svg>
