<svg width="24" height="24" viewBox="0 0 24 24" fill="none" xmlns="http://www.w3.org/2000/svg">
<path d="M18.3333 3H6.33331C5.53793 3.00087 4.77538 3.31722 4.21296 3.87964C3.65054 4.44206 3.33419 5.20462 3.33331 6V18C3.33419 18.7954 3.65054 19.5579 4.21296 20.1204C4.77538 20.6828 5.53793 20.9991 6.33331 21H18.3333C19.1287 20.9991 19.8912 20.6828 20.4537 20.1204C21.0161 19.5579 21.3324 18.7954 21.3333 18V6C21.3324 5.20462 21.0161 4.44206 20.4537 3.87964C19.8912 3.31722 19.1287 3.00087 18.3333 3ZM8.33331 17.35C8.06631 17.35 7.80531 17.2708 7.58332 17.1224C7.36133 16.9741 7.18831 16.7632 7.08615 16.5166C6.98398 16.2699 6.95726 15.9984 7.00937 15.7366C7.06147 15.4747 7.19005 15.2342 7.37885 15.0454C7.56766 14.8566 7.80821 14.728 8.07008 14.6759C8.33195 14.6239 8.60338 14.6506 8.85006 14.7528C9.09673 14.855 9.30757 15.028 9.4559 15.25C9.60424 15.472 9.68341 15.733 9.68341 16C9.68341 16.1773 9.64849 16.3528 9.58064 16.5166C9.51279 16.6804 9.41334 16.8293 9.28797 16.9546C9.1626 17.08 9.01377 17.1794 8.84997 17.2473C8.68617 17.3151 8.51061 17.35 8.33331 17.35ZM8.33331 9.35C8.06631 9.34998 7.80531 9.27079 7.58332 9.12244C7.36133 8.97408 7.18831 8.76324 7.08615 8.51655C6.98398 8.26987 6.95726 7.99843 7.00937 7.73657C7.06147 7.4747 7.19005 7.23416 7.37885 7.04537C7.56766 6.85658 7.80821 6.72801 8.07008 6.67593C8.33195 6.62385 8.60338 6.65059 8.85006 6.75277C9.09673 6.85495 9.30757 7.02799 9.4559 7.24999C9.60424 7.47199 9.68341 7.733 9.68341 8C9.68341 8.17729 9.64849 8.35285 9.58064 8.51665C9.51279 8.68044 9.41334 8.82927 9.28797 8.95463C9.1626 9.07999 9.01377 9.17943 8.84997 9.24727C8.68617 9.3151 8.51061 9.35001 8.33331 9.35ZM12.3333 13.35C12.0663 13.35 11.8053 13.2708 11.5833 13.1225C11.3613 12.9741 11.1883 12.7633 11.0861 12.5166C10.9839 12.2699 10.9572 11.9985 11.0093 11.7366C11.0613 11.4748 11.1899 11.2342 11.3787 11.0454C11.5675 10.8566 11.8081 10.728 12.0699 10.6759C12.3318 10.6238 12.6033 10.6506 12.8499 10.7528C13.0966 10.8549 13.3075 11.028 13.4558 11.25C13.6041 11.472 13.6833 11.733 13.6833 12C13.6833 12.358 13.5411 12.7014 13.2879 12.9546C13.0347 13.2078 12.6914 13.35 12.3333 13.35ZM16.3333 17.35C16.0663 17.35 15.8053 17.2708 15.5833 17.1225C15.3613 16.9741 15.1883 16.7633 15.0861 16.5166C14.9839 16.2699 14.9572 15.9985 15.0093 15.7366C15.0613 15.4748 15.1899 15.2342 15.3787 15.0454C15.5675 14.8566 15.8081 14.728 16.0699 14.6759C16.3318 14.6238 16.6033 14.6506 16.8499 14.7528C17.0966 14.8549 17.3075 15.028 17.4558 15.25C17.6041 15.472 17.6833 15.733 17.6833 16C17.6833 16.358 17.5411 16.7014 17.2879 16.9546C17.0347 17.2078 16.6914 17.35 16.3333 17.35ZM16.3333 9.35C16.0663 9.34998 15.8053 9.27079 15.5833 9.12244C15.3613 8.97408 15.1883 8.76324 15.0861 8.51655C14.984 8.26987 14.9573 7.99843 15.0094 7.73657C15.0615 7.4747 15.1901 7.23416 15.3789 7.04537C15.5677 6.85658 15.8082 6.72801 16.0701 6.67593C16.3319 6.62385 16.6034 6.65059 16.8501 6.75277C17.0967 6.85495 17.3076 7.02799 17.4559 7.24999C17.6042 7.47199 17.6834 7.733 17.6834 8C17.6834 8.17729 17.6485 8.35285 17.5806 8.51665C17.5128 8.68044 17.4133 8.82927 17.288 8.95463C17.1626 9.07999 17.0138 9.17943 16.85 9.24727C16.6862 9.3151 16.5106 9.35001 16.3333 9.35Z" fill="black"/>
</svg>
