<svg width="24" height="24" viewBox="0 0 24 24" fill="none" xmlns="http://www.w3.org/2000/svg">
<path d="M11.3311 18.9307L12 19.5327L12.6689 18.9307C12.9277 18.6982 18.9951 13.1772 18.9951 7.99558C19 7.07383 18.8227 6.1602 18.4734 5.3072C18.1241 4.4542 17.6096 3.67865 16.9596 3.02513C16.3096 2.37161 15.5368 1.85301 14.6856 1.49913C13.8345 1.14525 12.9219 0.963074 12.0001 0.963074C11.0783 0.963074 10.1657 1.14525 9.31455 1.49913C8.46343 1.85301 7.69065 2.37161 7.04061 3.02513C6.39058 3.67865 5.87611 4.4542 5.52679 5.3072C5.17746 6.1602 5.00017 7.07383 5.0051 7.99558C5.0049 13.1772 11.0723 18.6982 11.3311 18.9307ZM12 2.99998C13.3244 3.00154 14.5941 3.52838 15.5305 4.46491C16.467 5.40144 16.9937 6.67119 16.9951 7.99558C16.9951 11.1415 13.8351 14.9656 11.9999 16.8056C10.1664 14.967 7.0049 11.1421 7.0049 7.99558C7.00633 6.67119 7.53304 5.40144 8.46948 4.46491C9.40592 3.52838 10.6756 3.00154 12 2.99998ZM4 21V23H20V21H4ZM13.45 7.99998C13.45 7.71319 13.365 7.43285 13.2056 7.1944C13.0463 6.95595 12.8198 6.7701 12.5549 6.66035C12.2899 6.55061 11.9984 6.52189 11.7171 6.57784C11.4358 6.63379 11.1775 6.77189 10.9747 6.97467C10.7719 7.17746 10.6338 7.43582 10.5779 7.7171C10.5219 7.99837 10.5506 8.28992 10.6604 8.55487C10.7701 8.81982 10.956 9.04628 11.1944 9.20561C11.4329 9.36494 11.7132 9.44998 12 9.44998C12.3846 9.44998 12.7534 9.29721 13.0253 9.02528C13.2972 8.75336 13.45 8.38454 13.45 7.99998Z" fill="black"/>
</svg>
