<svg width="24" height="24" viewBox="0 0 24 24" fill="none" xmlns="http://www.w3.org/2000/svg">
<path d="M16 6V4C16 3.46957 15.7893 2.96086 15.4142 2.58579C15.0391 2.21071 14.5304 2 14 2H10C9.46957 2 8.96086 2.21071 8.58579 2.58579C8.21071 2.96086 8 3.46957 8 4V6H2V9C2 9.53043 2.21071 10.0391 2.58579 10.4142C2.96086 10.7893 3.46957 11 4 11H20C20.5304 11 21.0391 10.7893 21.4142 10.4142C21.7893 10.0391 22 9.53043 22 9V6H16ZM15.5 6H8.5V4C8.50045 3.60231 8.65863 3.22104 8.93984 2.93984C9.22104 2.65863 9.60231 2.50045 10 2.5H14C14.3977 2.50045 14.779 2.65863 15.0602 2.93984C15.3414 3.22104 15.4995 3.60231 15.5 4V6ZM20 11.5H12.25V14H11.75V11.5H4C3.61045 11.499 3.22657 11.4065 2.87922 11.2302C2.53187 11.0538 2.23073 10.7985 2 10.4846V21H22V10.4846C21.7693 10.7985 21.4681 11.0538 21.1208 11.2302C20.7734 11.4065 20.3896 11.499 20 11.5Z" fill="black"/>
</svg>
