<svg width="24" height="24" viewBox="0 0 24 24" fill="none" xmlns="http://www.w3.org/2000/svg">
<g clip-path="url(#clip0)">
<path d="M12 0C9.61555 0.0027525 7.32957 0.951184 5.64352 2.63723C3.95747 4.32328 3.00904 6.60927 3.00629 8.9937C3.00629 15.7563 10.9912 23.021 11.3311 23.3267L12 23.9287L12.6689 23.3267C13.0089 23.021 20.9941 15.7567 20.9941 8.9937C20.9913 6.60922 20.0427 4.32322 18.3566 2.63718C16.6705 0.951136 14.3845 0.00272589 12 0V0ZM12 21.2C10.1336 19.3519 5.00629 13.8336 5.00629 8.9942C5.00629 7.1393 5.74314 5.36038 7.05475 4.04877C8.36636 2.73716 10.1453 2.0003 12.0002 2.0003C13.8551 2.0003 15.634 2.73716 16.9456 4.04877C18.2572 5.36038 18.9941 7.1393 18.9941 8.9942C18.9941 13.8327 13.8668 19.3511 12 21.2ZM11.2422 10H12.7578L13.2188 5H10.7812L11.2422 10ZM12 11C11.8022 11 11.6089 11.0586 11.4444 11.1685C11.28 11.2784 11.1518 11.4346 11.0761 11.6173C11.0004 11.8 10.9806 12.0011 11.0192 12.1951C11.0578 12.3891 11.153 12.5673 11.2929 12.7071C11.4327 12.847 11.6109 12.9422 11.8049 12.9808C11.9989 13.0194 12.1999 12.9996 12.3827 12.9239C12.5654 12.8482 12.7216 12.72 12.8315 12.5556C12.9413 12.3911 13 12.1978 13 12C13 11.7348 12.8946 11.4804 12.7071 11.2929C12.5196 11.1054 12.2652 11 12 11Z" fill="black"/>
</g>
<defs>
<clipPath id="clip0">
<rect width="24" height="24" fill="white"/>
</clipPath>
</defs>
</svg>
