<svg width="24" height="24" viewBox="0 0 24 24" fill="none" xmlns="http://www.w3.org/2000/svg">
<path d="M6.7468 9.9936C7.09228 9.9936 7.43001 9.89115 7.71727 9.69921C8.00453 9.50727 8.22842 9.23446 8.36063 8.91527C8.49284 8.59609 8.52744 8.24486 8.46004 7.90602C8.39263 7.56717 8.22627 7.25592 7.98197 7.01163C7.73768 6.76733 7.42643 6.60096 7.08758 6.53356C6.74874 6.46616 6.39751 6.50076 6.07833 6.63297C5.75914 6.76518 5.48633 6.98907 5.29439 7.27633C5.10245 7.56359 5 7.90132 5 8.2468C5 8.71008 5.18404 9.15439 5.51163 9.48197C5.83921 9.80956 6.28352 9.9936 6.7468 9.9936ZM2 3V21H22V3H2ZM21 20H19V18C19 17.2044 18.6839 16.4413 18.1213 15.8787C17.5587 15.3161 16.7956 15 16 15H10V20H3V12.5H21V20ZM21 11.5H19V9.5C19 8.70435 18.6839 7.94129 18.1213 7.37868C17.5587 6.81607 16.7956 6.5 16 6.5H10V11.5H3V4H21V11.5ZM6.7468 18.4936C7.09228 18.4936 7.43001 18.3912 7.71727 18.1992C8.00453 18.0073 8.22842 17.7345 8.36063 17.4153C8.49284 17.0961 8.52744 16.7449 8.46004 16.406C8.39263 16.0672 8.22627 15.7559 7.98197 15.5116C7.73768 15.2673 7.42643 15.101 7.08758 15.0336C6.74874 14.9662 6.39751 15.0008 6.07833 15.133C5.75914 15.2652 5.48633 15.4891 5.29439 15.7763C5.10245 16.0636 5 16.4013 5 16.7468C5 17.2101 5.18404 17.6544 5.51163 17.982C5.83921 18.3096 6.28352 18.4936 6.7468 18.4936Z" fill="black"/>
</svg>
