<svg width="24" height="24" viewBox="0 0 24 24" fill="none" xmlns="http://www.w3.org/2000/svg">
<path d="M12.2485 11.9354L21.7941 9.37774C21.0653 7.28978 19.7222 5.47096 17.9412 4.15999C16.1601 2.84902 14.0243 2.10714 11.8141 2.03174C10.9927 2.03175 10.1748 2.13968 9.38141 2.35274C4.29141 3.71644 1.23601 9.06464 2.14421 14.6427L7.24491 13.276L11.7659 12.0646L13.8677 19.9076C13.5693 19.8942 13.2708 19.8819 12.9721 19.8819C9.85751 19.8817 6.78566 20.6069 4.00001 22H21.9442C19.587 20.8232 17.021 20.1225 14.3928 19.9382L12.2485 11.9354ZM9.51081 2.83544C9.65762 2.79639 9.8089 2.77676 9.96081 2.77704C11.9683 2.77704 14.5395 6.01944 16.0514 10.3985L7.62781 12.6559C6.65421 7.65054 7.45211 3.38724 9.51081 2.83564V2.83544ZM21.1179 9.04134L16.5313 10.27C15.1436 6.22564 12.9655 3.31004 10.9344 2.59004C11.2271 2.56084 11.52 2.53214 11.8144 2.53214C13.8287 2.60062 15.7798 3.25206 17.4312 4.40744C19.0826 5.56283 20.3632 7.17253 21.1179 9.04134ZM2.56131 14.0135C2.24378 11.8734 2.61215 9.68775 3.61358 7.76995C4.61502 5.85214 6.19807 4.30074 8.13571 3.33824C6.74011 4.97564 6.32571 8.58614 7.14811 12.7844L2.56131 14.0135ZM6.45851 21.5C10.673 20.0094 15.2712 20.0094 19.4857 21.5H6.45851Z" fill="black"/>
</svg>
