<svg width="24" height="24" viewBox="0 0 24 24" fill="none" xmlns="http://www.w3.org/2000/svg">
<path d="M6.9968 17.9936C7.29284 17.9936 7.58223 17.9058 7.82838 17.7413C8.07453 17.5769 8.26637 17.3431 8.37966 17.0696C8.49295 16.7961 8.52259 16.4951 8.46484 16.2048C8.40708 15.9144 8.26453 15.6477 8.0552 15.4384C7.84587 15.2291 7.57916 15.0865 7.28881 15.0288C6.99846 14.971 6.6975 15.0006 6.424 15.1139C6.1505 15.2272 5.91673 15.4191 5.75226 15.6652C5.58779 15.9114 5.5 16.2008 5.5 16.4968C5.50003 16.8938 5.65773 17.2745 5.93843 17.5552C6.21913 17.8359 6.59983 17.9936 6.9968 17.9936ZM6.9968 9.7436C7.29284 9.7436 7.58223 9.65581 7.82838 9.49134C8.07453 9.32687 8.26637 9.0931 8.37966 8.8196C8.49295 8.5461 8.52259 8.24514 8.46484 7.95479C8.40708 7.66444 8.26453 7.39773 8.0552 7.1884C7.84587 6.97907 7.57916 6.83651 7.28881 6.77876C6.99846 6.72101 6.6975 6.75065 6.424 6.86394C6.1505 6.97723 5.91673 7.16908 5.75226 7.41522C5.58779 7.66137 5.5 7.95076 5.5 8.2468C5.50003 8.64377 5.65773 9.02447 5.93843 9.30517C6.21913 9.58587 6.59983 9.74357 6.9968 9.7436ZM2 3V21H22V3H2ZM20.5 19.5H19V18C19 17.2044 18.6839 16.4413 18.1213 15.8787C17.5587 15.3161 16.7956 15 16 15H10V19.5H3.5V12.75H20.5V19.5ZM20.5 11.25H19V9.75C19 8.95435 18.6839 8.19129 18.1213 7.62868C17.5587 7.06607 16.7956 6.75 16 6.75H10V11.25H3.5V4.5H20.5V11.25Z" fill="black"/>
</svg>
