<svg width="24" height="24" viewBox="0 0 24 24" fill="none" xmlns="http://www.w3.org/2000/svg">
<path d="M12 2C10.0222 2 8.08879 2.58649 6.4443 3.6853C4.79981 4.78412 3.51809 6.3459 2.76121 8.17317C2.00433 10.0004 1.8063 12.0111 2.19215 13.9509C2.578 15.8907 3.53041 17.6725 4.92894 19.0711C6.32746 20.4696 8.10929 21.422 10.0491 21.8079C11.9889 22.1937 13.9996 21.9957 15.8268 21.2388C17.6541 20.4819 19.2159 19.2002 20.3147 17.5557C21.4135 15.9112 22 13.9778 22 12C22 10.6868 21.7413 9.38642 21.2388 8.17317C20.7363 6.95991 19.9997 5.85752 19.0711 4.92893C18.1425 4.00035 17.0401 3.26375 15.8268 2.7612C14.6136 2.25866 13.3132 2 12 2ZM19.1168 16.6334H17.7V15.4464L18.5823 14.5076C18.7103 14.3718 18.8646 14.2634 19.0358 14.189C19.207 14.1147 19.3916 14.0759 19.5782 14.0751H19.5822C19.7958 14.08 20.0046 14.1399 20.1883 14.2491C19.9569 15.0946 19.5954 15.899 19.1168 16.6334ZM12 20.5C10.6672 20.5017 9.35267 20.1899 8.16257 19.5898C6.97247 18.9898 5.94016 18.1183 5.14899 17.0457C4.35782 15.9731 3.82996 14.7295 3.60804 13.4153C3.38612 12.1011 3.47636 10.7531 3.87147 9.4802C4.26658 8.2073 4.95549 7.04515 5.88256 6.08759C6.80964 5.13003 7.9489 4.4039 9.20836 3.96783C10.4678 3.53176 11.8122 3.39797 13.1329 3.57727C14.4536 3.75657 15.7136 4.24393 16.8112 5H9.9769C9.56645 5.00001 9.16593 5.1263 8.82971 5.36175C8.49349 5.59719 8.23786 5.93038 8.0975 6.3161L7.4894 7.9871C7.40695 8.2137 7.38035 8.45683 7.41184 8.6959C7.44333 8.93496 7.53199 9.16291 7.67031 9.36043C7.80862 9.55794 7.99252 9.7192 8.20641 9.83054C8.4203 9.94187 8.65787 10 8.899 10H10.4147C10.5682 10.0182 10.711 10.0877 10.8199 10.1973C10.9288 10.3069 10.9975 10.4501 11.0147 10.6037C11.0134 10.7621 10.9497 10.9136 10.8373 11.0253C10.725 11.137 10.5731 11.1998 10.4147 11.2002H8C7.46957 11.2002 6.96086 11.4109 6.58579 11.786C6.21072 12.1611 6 12.6698 6 13.2002V14.6667C6 14.9319 6.10536 15.1863 6.2929 15.3738C6.48043 15.5613 6.73479 15.6667 7 15.6667H8V17.3333C8 17.5101 8.07025 17.6797 8.19528 17.8047C8.32031 17.9298 8.48988 18 8.6667 18H9.8334C10.5848 18 11.3055 17.7015 11.8369 17.1701C12.3682 16.6388 12.6667 15.9181 12.6667 15.1667V13H15.1667C15.9181 13 16.6388 12.7015 17.1701 12.1701C17.7015 11.6388 18 10.9181 18 10.1667V5.9854C18.7929 6.77346 19.422 7.71062 19.851 8.74288C20.2801 9.77515 20.5007 10.8821 20.5 12C20.4999 12.2926 20.4848 12.5851 20.4548 12.8762C20.176 12.7697 19.8806 12.7129 19.5822 12.7084H19.5782C19.2049 12.709 18.8357 12.7858 18.4932 12.9343C18.1507 13.0827 17.8421 13.2996 17.5865 13.5716L16.3334 14.905V18H18.0145C17.2265 18.7929 16.2893 19.422 15.2571 19.851C14.2248 20.2801 13.1179 20.5007 12 20.5ZM10.4147 8.5H8.899L9.507 6.829C9.54232 6.73269 9.6063 6.64952 9.69034 6.59069C9.77437 6.53186 9.87442 6.50021 9.977 6.5H16.5V10.1667C16.4996 10.5202 16.359 10.8591 16.1091 11.109C15.8591 11.359 15.5202 11.4996 15.1667 11.5H12.3117C12.4638 11.18 12.5324 10.8266 12.5111 10.473C12.4898 10.1193 12.3793 9.77672 12.1899 9.47724C12.0006 9.17776 11.7385 8.93109 11.428 8.76021C11.1176 8.58934 10.769 8.49982 10.4147 8.5ZM7.5 14.1667V13.2C7.50016 13.0674 7.55289 12.9404 7.64663 12.8466C7.74036 12.7529 7.86744 12.7002 8 12.7H10.4147C10.6719 12.7002 10.9268 12.6527 11.1667 12.56V15.1663C11.1664 15.5199 11.0258 15.8588 10.7759 16.1089C10.5259 16.3589 10.187 16.4996 9.8334 16.5H9.5V14.1667H7.5Z" fill="black"/>
</svg>
