<svg width="24" height="24" viewBox="0 0 24 24" fill="none" xmlns="http://www.w3.org/2000/svg">
<path d="M16 7V6C16 4.93913 15.5786 3.92172 14.8284 3.17157C14.0783 2.42143 13.0609 2 12 2C10.9391 2 9.92172 2.42143 9.17157 3.17157C8.42143 3.92172 8 4.93913 8 6V7H3V22H21V7H16ZM10 6C10 5.46957 10.2107 4.96086 10.5858 4.58579C10.9609 4.21071 11.4696 4 12 4C12.5304 4 13.0391 4.21071 13.4142 4.58579C13.7893 4.96086 14 5.46957 14 6V7H10V6ZM19 20H5V9H19V20ZM15 13.45C15.2868 13.45 15.5671 13.365 15.8056 13.2056C16.044 13.0463 16.2299 12.8198 16.3396 12.5549C16.4494 12.2899 16.4781 11.9984 16.4221 11.7171C16.3662 11.4358 16.2281 11.1775 16.0253 10.9747C15.8225 10.7719 15.5642 10.6338 15.2829 10.5779C15.0016 10.5219 14.7101 10.5506 14.4451 10.6604C14.1802 10.7701 13.9537 10.956 13.7944 11.1944C13.635 11.4329 13.55 11.7132 13.55 12C13.55 12.3846 13.7028 12.7534 13.9747 13.0253C14.2466 13.2972 14.6154 13.45 15 13.45ZM9 13.45C9.28678 13.45 9.56713 13.365 9.80558 13.2056C10.044 13.0463 10.2299 12.8198 10.3396 12.5549C10.4494 12.2899 10.4781 11.9984 10.4221 11.7171C10.3662 11.4358 10.2281 11.1775 10.0253 10.9747C9.82252 10.7719 9.56415 10.6338 9.28288 10.5779C9.00161 10.5219 8.71006 10.5506 8.44511 10.6604C8.18016 10.7701 7.9537 10.956 7.79437 11.1944C7.63504 11.4329 7.55 11.7132 7.55 12C7.55 12.3846 7.70277 12.7534 7.9747 13.0253C8.24662 13.2972 8.61544 13.45 9 13.45Z" fill="black"/>
</svg>
