<svg width="24" height="24" viewBox="0 0 24 24" fill="none" xmlns="http://www.w3.org/2000/svg">
<path d="M12 2C10.0222 2 8.08879 2.58649 6.4443 3.6853C4.79981 4.78412 3.51809 6.3459 2.76121 8.17317C2.00433 10.0004 1.8063 12.0111 2.19215 13.9509C2.578 15.8907 3.53041 17.6725 4.92894 19.0711C6.32746 20.4696 8.10929 21.422 10.0491 21.8079C11.9889 22.1937 13.9996 21.9957 15.8268 21.2388C17.6541 20.4819 19.2159 19.2002 20.3147 17.5557C21.4135 15.9112 22 13.9778 22 12C22 10.6868 21.7413 9.38642 21.2388 8.17317C20.7363 6.95991 19.9997 5.85752 19.0711 4.92893C18.1425 4.00035 17.0401 3.26375 15.8268 2.7612C14.6136 2.25866 13.3132 2 12 2ZM12 20.3C10.8624 20.2994 9.73724 20.0642 8.69474 19.609C7.65223 19.1538 6.71485 18.4884 5.9412 17.6544C6.35538 17.3972 6.67433 17.0119 6.84964 16.5569C7.02495 16.102 7.04704 15.6023 6.91257 15.1337C6.77809 14.665 6.49439 14.2531 6.10454 13.9603C5.71468 13.6675 5.23995 13.51 4.7524 13.5115C4.45076 13.5133 4.15236 13.5738 3.8739 13.6898C3.59378 12.3441 3.65275 10.9499 4.04553 9.63276C4.4383 8.31558 5.15253 7.11677 6.1239 6.1443C6.19951 6.28649 6.31206 6.40567 6.44969 6.48928C6.58733 6.57289 6.74497 6.61784 6.906 6.6194H7C7.26522 6.6194 7.51957 6.72476 7.70711 6.91229C7.89465 7.09983 8 7.35418 8 7.6194V10.4214C7.99996 10.8157 8.07766 11.2062 8.22865 11.5705C8.37965 11.9348 8.60099 12.2657 8.88 12.5444L11.5787 15.239L11.548 18.8069H13.2345C13.645 18.8069 14.0455 18.6806 14.3817 18.4452C14.7179 18.2098 14.9735 17.8766 15.1139 17.4909L16.2058 14.4909C16.3158 14.1888 16.3513 13.8646 16.3093 13.5458C16.2673 13.227 16.1491 12.9231 15.9647 12.6597C15.7803 12.3964 15.5351 12.1813 15.2499 12.0329C14.9647 11.8844 14.6479 11.8069 14.3264 11.8069H11.3542C11.089 11.8069 10.8346 11.7015 10.6471 11.514C10.4596 11.3265 10.3542 11.0721 10.3542 10.8069C10.3542 10.5417 10.4596 10.2873 10.6471 10.0998C10.8346 9.91226 11.089 9.8069 11.3542 9.8069H14.2352C14.4405 9.80696 14.6408 9.74385 14.809 9.62613C14.9771 9.50841 15.105 9.3418 15.1752 9.1489L15.7787 7.4909C15.8887 7.18877 15.9242 6.86458 15.8822 6.54582C15.8402 6.22705 15.722 5.9231 15.5376 5.65973C15.3532 5.39636 15.108 5.18133 14.8228 5.03287C14.5376 4.88441 14.2208 4.8069 13.8993 4.8069H7.8766C9.59341 3.81566 11.6094 3.4748 13.5567 3.84654C15.5039 4.21828 17.2526 5.27782 18.4835 6.8318L17.9435 8.3159C17.8335 8.61801 17.798 8.94218 17.84 9.26094C17.8819 9.5797 18.0001 9.88364 18.1845 10.147C18.3689 10.4104 18.614 10.6254 18.8992 10.7739C19.1843 10.9224 19.5011 11 19.8226 11H20.2337C20.3826 12.1666 20.2805 13.3516 19.9342 14.4756C19.5879 15.5996 19.0055 16.6366 18.2259 17.5172C17.4462 18.3978 16.4875 19.1016 15.4137 19.5815C14.34 20.0615 13.1761 20.3064 12 20.3Z" fill="black"/>
</svg>
