<svg width="24" height="24" viewBox="0 0 24 24" fill="none" xmlns="http://www.w3.org/2000/svg">
<path d="M12 2C10.0222 2 8.08879 2.58649 6.4443 3.6853C4.79981 4.78412 3.51809 6.3459 2.76121 8.17317C2.00433 10.0004 1.8063 12.0111 2.19215 13.9509C2.578 15.8907 3.53041 17.6725 4.92894 19.0711C6.32746 20.4696 8.10929 21.422 10.0491 21.8079C11.9889 22.1937 13.9996 21.9957 15.8268 21.2388C17.6541 20.4819 19.2159 19.2002 20.3147 17.5557C21.4135 15.9112 22 13.9778 22 12C22 10.6868 21.7413 9.38642 21.2388 8.17317C20.7363 6.95991 19.9997 5.85752 19.0711 4.92893C18.1425 4.00035 17.0401 3.26375 15.8268 2.7612C14.6136 2.25866 13.3132 2 12 2ZM12 21C10.68 21 9.37622 20.7092 8.18141 20.1481C6.98659 19.587 5.9301 18.7695 5.0871 17.7538C5.54056 17.5298 5.90473 17.1588 6.12021 16.7013C6.33568 16.2437 6.38974 15.7267 6.27356 15.2344C6.15738 14.7422 5.87783 14.3039 5.48051 13.991C5.08318 13.6781 4.59154 13.5091 4.0858 13.5115C3.76917 13.514 3.45657 13.5828 3.1682 13.7136C2.78545 11.7482 3.06947 9.71123 3.97527 7.92548C4.88107 6.13973 6.35686 4.70729 8.16881 3.85511C9.98077 3.00293 12.0253 2.77974 13.9784 3.2209C15.9316 3.66206 17.6816 4.74234 18.9514 6.2906L18.2141 8.3159C18.1041 8.61803 18.0686 8.94222 18.1106 9.26099C18.1525 9.57976 18.2707 9.88372 18.4551 10.1471C18.6395 10.4105 18.8847 10.6255 19.1699 10.774C19.4551 10.9225 19.7719 11 20.0934 11H20.941C21.0862 12.259 20.963 13.5344 20.5795 14.7424C20.1961 15.9503 19.5611 17.0633 18.7164 18.008C17.8717 18.9528 16.8364 19.7079 15.6787 20.2236C14.5211 20.7393 13.2673 21.0039 12 21ZM14.5743 11.8069H10.2943C10.0291 11.8069 9.77473 11.7015 9.5872 11.514C9.39966 11.3265 9.2943 11.0721 9.2943 10.8069C9.2943 10.5417 9.39966 10.2873 9.5872 10.0998C9.77473 9.91226 10.0291 9.8069 10.2943 9.8069H14.2349C14.4402 9.80696 14.6405 9.74385 14.8087 9.62613C14.9768 9.50841 15.1047 9.3418 15.1749 9.1489L15.7784 7.4909C15.8884 7.18877 15.9239 6.86458 15.8819 6.54582C15.8399 6.22705 15.7217 5.9231 15.5373 5.65973C15.3529 5.39636 15.1077 5.18133 14.8225 5.03287C14.5373 4.88441 14.2205 4.8069 13.899 4.8069H6.9062C6.6675 4.80941 6.43943 4.90599 6.27152 5.07567C6.10361 5.24536 6.00942 5.47443 6.00942 5.71315C6.00942 5.95187 6.10361 6.18094 6.27152 6.35063C6.43943 6.52031 6.6675 6.61689 6.9062 6.6194H7C7.26522 6.6194 7.51957 6.72476 7.70711 6.91229C7.89465 7.09983 8 7.35418 8 7.6194V10.4214C7.99996 10.8157 8.07766 11.2062 8.22865 11.5705C8.37965 11.9348 8.60099 12.2657 8.88 12.5444L11.5787 15.239L11.548 19.4735H13.2357C13.6459 19.4735 14.0461 19.3474 14.3822 19.1123C14.7182 18.8772 14.9739 18.5444 15.1145 18.1591L16.4527 14.4924C16.5629 14.1903 16.5987 13.866 16.5569 13.5471C16.5151 13.2282 16.3971 12.9241 16.2127 12.6606C16.0284 12.397 15.7832 12.1818 15.498 12.0332C15.2128 11.8846 14.8959 11.807 14.5743 11.8069Z" fill="black"/>
</svg>
