<svg width="24" height="24" viewBox="0 0 24 24" fill="none" xmlns="http://www.w3.org/2000/svg">
<path d="M12 2C10.0222 2 8.08879 2.58649 6.4443 3.6853C4.79981 4.78412 3.51809 6.3459 2.76121 8.17317C2.00433 10.0004 1.8063 12.0111 2.19215 13.9509C2.578 15.8907 3.53041 17.6725 4.92894 19.0711C6.32746 20.4696 8.10929 21.422 10.0491 21.8079C11.9889 22.1937 13.9996 21.9957 15.8268 21.2388C17.6541 20.4819 19.2159 19.2002 20.3147 17.5557C21.4135 15.9112 22 13.9778 22 12C22 10.6868 21.7413 9.38642 21.2388 8.17317C20.7363 6.95991 19.9997 5.85752 19.0711 4.92893C18.1425 4.00035 17.0401 3.26375 15.8268 2.7612C14.6136 2.25866 13.3132 2 12 2ZM12 20.4C10.6891 20.4016 9.39604 20.0963 8.22425 19.5086C7.05247 18.9209 6.03449 18.0671 5.25177 17.0156C4.46904 15.964 3.9433 14.7438 3.7166 13.4527C3.4899 12.1615 3.56853 10.8352 3.94621 9.57991C4.32389 8.3246 4.99013 7.1751 5.89163 6.22338C6.79312 5.27167 7.90485 4.54415 9.13787 4.09905C10.3709 3.65394 11.691 3.50359 12.9925 3.66004C14.294 3.81648 15.5409 4.27537 16.6333 5H8.9769C8.56645 5.00001 8.16593 5.1263 7.82971 5.36175C7.49349 5.59719 7.23786 5.93038 7.0975 6.3161L6.4894 7.9871C6.40695 8.2137 6.38035 8.45683 6.41184 8.6959C6.44333 8.93496 6.53199 9.16291 6.67031 9.36043C6.80862 9.55794 6.99252 9.7192 7.20641 9.83054C7.4203 9.94187 7.65787 10 7.899 10H9.6813C9.84043 10 9.99305 10.0632 10.1056 10.1757C10.2181 10.2883 10.2813 10.4409 10.2813 10.6C10.2813 10.7591 10.2181 10.9117 10.1056 11.0243C9.99305 11.1368 9.84043 11.2 9.6813 11.2H7.6667C7.13627 11.2 6.62756 11.4107 6.25249 11.7858C5.87742 12.1609 5.6667 12.6696 5.6667 13.2V14C5.6667 14.2652 5.77206 14.5196 5.9596 14.7071C6.14713 14.8946 6.40149 15 6.6667 15H7.6667V17.1666C7.66669 17.276 7.68824 17.3844 7.73011 17.4855C7.77198 17.5866 7.83336 17.6785 7.91074 17.7559C7.98812 17.8333 8.07998 17.8947 8.18109 17.9366C8.2822 17.9784 8.39057 18 8.5 18H8.8334C9.49645 18 10.1323 17.7366 10.6012 17.2678C11.07 16.7989 11.3334 16.163 11.3334 15.5V12.6666H15.5C16.163 12.6666 16.7989 12.4032 17.2678 11.9344C17.7366 11.4655 18 10.8296 18 10.1666V6.1324C18.9214 7.05877 19.6095 8.19079 20.0076 9.43521C20.4058 10.6796 20.5026 12.0008 20.29 13.29C19.9761 13.0729 19.5961 12.9724 19.2159 13.0061C18.8357 13.0397 18.4792 13.2053 18.2083 13.4742L17 14.6719V17H18.7339C17.9551 18.0534 16.9404 18.9097 15.7709 19.5001C14.6015 20.0906 13.31 20.3988 12 20.4Z" fill="black"/>
</svg>
