<svg width="24" height="24" viewBox="0 0 24 24" fill="none" xmlns="http://www.w3.org/2000/svg">
<path d="M2.9722 14.6661C3.01386 15.166 3.2419 15.6321 3.61108 15.9718C3.98026 16.3115 4.46362 16.5 4.9653 16.5H8.0347C8.53638 16.5 9.01974 16.3115 9.38892 15.9718C9.7581 15.6321 9.98614 15.166 10.0278 14.6661L11 3H2L2.9722 14.6661ZM5 20H8V18H5V20ZM13 20H22V14.5H13V20ZM20.2 10H14.8C14.5636 10 14.3296 10.0466 14.1112 10.137C13.8928 10.2275 13.6944 10.3601 13.5272 10.5272C13.3601 10.6944 13.2275 10.8928 13.137 11.1112C13.0466 11.3296 13 11.5636 13 11.8V13H22V11.8C22 11.5636 21.9534 11.3296 21.863 11.1112C21.7725 10.8928 21.6399 10.6944 21.4728 10.5272C21.3056 10.3601 21.1072 10.2275 20.8888 10.137C20.6704 10.0466 20.4364 10 20.2 10Z" fill="black"/>
</svg>
