<svg width="24" height="24" viewBox="0 0 24 24" fill="none" xmlns="http://www.w3.org/2000/svg">
<path d="M16 7V6C16 4.93913 15.5786 3.92172 14.8284 3.17157C14.0783 2.42143 13.0609 2 12 2C10.9391 2 9.92172 2.42143 9.17157 3.17157C8.42143 3.92172 8 4.93913 8 6V7H3V22H21V7H16ZM9.5 6C9.5 5.33696 9.76339 4.70107 10.2322 4.23223C10.7011 3.76339 11.337 3.5 12 3.5C12.663 3.5 13.2989 3.76339 13.7678 4.23223C14.2366 4.70107 14.5 5.33696 14.5 6V7H9.5V6ZM19.5 20.5H4.5V8.5H19.5V20.5ZM15 13.1C15.2176 13.1 15.4302 13.0355 15.6111 12.9146C15.792 12.7937 15.933 12.622 16.0163 12.421C16.0995 12.22 16.1213 11.9988 16.0789 11.7854C16.0364 11.572 15.9317 11.376 15.7778 11.2222C15.624 11.0683 15.428 10.9636 15.2146 10.9211C15.0012 10.8787 14.78 10.9005 14.579 10.9837C14.378 11.067 14.2063 11.208 14.0854 11.3889C13.9645 11.5698 13.9 11.7824 13.9 12C13.9 12.2917 14.0159 12.5715 14.2222 12.7778C14.4285 12.9841 14.7083 13.1 15 13.1ZM9 13.1C9.21756 13.1 9.43023 13.0355 9.61113 12.9146C9.79202 12.7937 9.93301 12.622 10.0163 12.421C10.0995 12.22 10.1213 11.9988 10.0789 11.7854C10.0364 11.572 9.93166 11.376 9.77782 11.2222C9.62398 11.0683 9.42798 10.9636 9.2146 10.9211C9.00122 10.8787 8.78005 10.9005 8.57905 10.9837C8.37805 11.067 8.20625 11.208 8.08538 11.3889C7.96451 11.5698 7.9 11.7824 7.9 12C7.9 12.2917 8.01589 12.5715 8.22218 12.7778C8.42847 12.9841 8.70826 13.1 9 13.1Z" fill="black"/>
</svg>
