<svg width="24" height="24" viewBox="0 0 24 24" fill="none" xmlns="http://www.w3.org/2000/svg">
<g clip-path="url(#clip0)">
<path d="M12 0C9.61557 0.0027525 7.32959 0.951184 5.64354 2.63723C3.95749 4.32328 3.00905 6.60927 3.0063 8.9937C3.0063 15.7563 10.9912 23.021 11.3311 23.3267L12 23.9287L12.6689 23.3267C13.0089 23.021 20.9941 15.7567 20.9941 8.9937C20.9913 6.60922 20.0428 4.32322 18.3566 2.63718C16.6705 0.951136 14.3845 0.00272589 12 0V0ZM12.3345 22.955L12 23.256L11.6654 22.9549C11.3323 22.6549 3.5063 15.5411 3.5063 8.9937C3.5063 6.74098 4.40119 4.58052 5.99411 2.98761C7.58702 1.39469 9.74748 0.4998 12.0002 0.4998C14.2529 0.4998 16.4134 1.39469 18.0063 2.98761C19.5992 4.58052 20.4941 6.74098 20.4941 8.9937C20.4941 15.5407 12.6678 22.6552 12.3345 22.955ZM13.0378 7.725L12 4.5312L10.9622 7.7252H7.6038L10.3208 9.6992L9.283 12.8932L12 10.9192L14.717 12.8932L13.6792 9.6992L16.3962 7.7252L13.0378 7.725ZM13.2512 9.8381L13.8612 11.7149L12.2647 10.5549L12 10.363L11.7355 10.5551L10.139 11.7151L10.749 9.8383L10.8501 9.5273L10.5855 9.3351L8.989 8.1751H11.289L11.3901 7.8642L12 5.9874L12.61 7.8643L12.711 8.1752H15.011L13.4145 9.3352L13.15 9.5274L13.2512 9.8381Z" fill="black"/>
</g>
<defs>
<clipPath id="clip0">
<rect width="24" height="24" fill="white"/>
</clipPath>
</defs>
</svg>
