<svg width="24" height="24" viewBox="0 0 24 24" fill="none" xmlns="http://www.w3.org/2000/svg">
<path d="M6.7468 8.4936C7.09228 8.4936 7.43001 8.39115 7.71727 8.19921C8.00453 8.00727 8.22842 7.73446 8.36063 7.41527C8.49284 7.09609 8.52744 6.74486 8.46004 6.40602C8.39263 6.06717 8.22627 5.75592 7.98197 5.51163C7.73768 5.26733 7.42643 5.10096 7.08758 5.03356C6.74874 4.96616 6.39751 5.00076 6.07833 5.13297C5.75914 5.26518 5.48633 5.48907 5.29439 5.77633C5.10245 6.06359 5 6.40132 5 6.7468C5 7.21008 5.18404 7.65439 5.51163 7.98197C5.83921 8.30956 6.28352 8.4936 6.7468 8.4936ZM6.7468 16.4936C7.09228 16.4936 7.43001 16.3912 7.71727 16.1992C8.00453 16.0073 8.22842 15.7345 8.36063 15.4153C8.49284 15.0961 8.52744 14.7449 8.46004 14.406C8.39263 14.0672 8.22627 13.7559 7.98197 13.5116C7.73768 13.2673 7.42643 13.101 7.08758 13.0336C6.74874 12.9662 6.39751 13.0008 6.07833 13.133C5.75914 13.2652 5.48633 13.4891 5.29439 13.7763C5.10245 14.0636 5 14.4013 5 14.7468C5 15.2101 5.18404 15.6544 5.51163 15.982C5.83921 16.3096 6.28352 16.4936 6.7468 16.4936ZM21 3V10H19V8C19 7.20435 18.6839 6.44129 18.1213 5.87868C17.5587 5.31607 16.7956 5 16 5H10V10H3V3H2V21H3V19H21V21H22V3H21ZM21 18H19V16C19 15.2044 18.6839 14.4413 18.1213 13.8787C17.5587 13.3161 16.7956 13 16 13H10V18H3V11H21V18Z" fill="black"/>
</svg>
