<svg width="24" height="24" viewBox="0 0 24 24" fill="none" xmlns="http://www.w3.org/2000/svg">
<path d="M19.9309 11C19.7088 9.23932 18.9071 7.60261 17.6522 6.34775C16.3974 5.0929 14.7607 4.29124 13 4.0691V1H11V4.0691C9.23932 4.29124 7.60261 5.0929 6.34775 6.34775C5.0929 7.60261 4.29124 9.23932 4.0691 11H1V13H4.0691C4.29124 14.7607 5.0929 16.3974 6.34775 17.6522C7.60261 18.9071 9.23932 19.7088 11 19.9309V23H13V19.9309C14.7607 19.7088 16.3974 18.9071 17.6522 17.6522C18.9071 16.3974 19.7088 14.7607 19.9309 13H23V11H19.9309ZM12 18C10.8133 18 9.65327 17.6481 8.66658 16.9888C7.67988 16.3295 6.91085 15.3925 6.45672 14.2961C6.0026 13.1997 5.88378 11.9933 6.11529 10.8295C6.3468 9.66557 6.91824 8.59647 7.75736 7.75736C8.59647 6.91824 9.66557 6.3468 10.8295 6.11529C11.9933 5.88378 13.1997 6.0026 14.2961 6.45672C15.3925 6.91085 16.3295 7.67988 16.9888 8.66658C17.6481 9.65327 18 10.8133 18 12C17.9982 13.5907 17.3655 15.1158 16.2407 16.2407C15.1158 17.3655 13.5907 17.9982 12 18ZM12 10.65C11.733 10.65 11.472 10.7292 11.25 10.8775C11.028 11.0259 10.8549 11.2367 10.7528 11.4834C10.6506 11.7301 10.6238 12.0015 10.6759 12.2634C10.728 12.5252 10.8566 12.7658 11.0454 12.9546C11.2342 13.1434 11.4748 13.272 11.7366 13.3241C11.9985 13.3762 12.2699 13.3494 12.5166 13.2472C12.7633 13.1451 12.9741 12.972 13.1225 12.75C13.2708 12.528 13.35 12.267 13.35 12C13.35 11.642 13.2078 11.2986 12.9546 11.0454C12.7014 10.7922 12.358 10.65 12 10.65Z" fill="black"/>
</svg>
