<svg width="24" height="24" viewBox="0 0 24 24" fill="none" xmlns="http://www.w3.org/2000/svg">
<path d="M6.5 2C5.30653 2 4.16193 2.47411 3.31802 3.31802C2.47411 4.16193 2 5.30653 2 6.5V15.5C2 16.6935 2.47411 17.8381 3.31802 18.682C4.16193 19.5259 5.30653 20 6.5 20C7.69347 20 8.83807 19.5259 9.68198 18.682C10.5259 17.8381 11 16.6935 11 15.5V6.5C11 5.30653 10.5259 4.16193 9.68198 3.31802C8.83807 2.47411 7.69347 2 6.5 2ZM9.5 15.5C9.5 16.2956 9.18393 17.0587 8.62132 17.6213C8.05871 18.1839 7.29565 18.5 6.5 18.5C5.70435 18.5 4.94129 18.1839 4.37868 17.6213C3.81607 17.0587 3.5 16.2956 3.5 15.5V11.75H9.5V15.5ZM9.5 10.25H3.5V6.5C3.5 5.70435 3.81607 4.94129 4.37868 4.37868C4.94129 3.81607 5.70435 3.5 6.5 3.5C7.29565 3.5 8.05871 3.81607 8.62132 4.37868C9.18393 4.94129 9.5 5.70435 9.5 6.5V10.25ZM20.682 12.318C20.0527 11.6887 19.2508 11.2601 18.3779 11.0864C17.505 10.9128 16.6002 11.0019 15.7779 11.3425C14.9557 11.6831 14.2529 12.2599 13.7584 12.9999C13.2639 13.7399 13 14.6099 13 15.5C13 16.39 13.2639 17.26 13.7584 18C14.2529 18.74 14.9557 19.3168 15.7779 19.6574C16.6002 19.998 17.505 20.0871 18.3779 19.9135C19.2508 19.7398 20.0527 19.3112 20.682 18.6819C21.1015 18.265 21.4345 17.7692 21.6617 17.2231C21.8889 16.677 22.0058 16.0914 22.0058 15.5C22.0058 14.9085 21.8889 14.3229 21.6617 13.7768C21.4345 13.2307 21.1015 12.7349 20.682 12.318ZM15.3787 13.3787C15.8466 12.9068 16.4593 12.6055 17.1187 12.523C17.7781 12.4405 18.4461 12.5814 19.0159 12.9234L14.9236 17.0157C14.5863 16.4446 14.448 15.7777 14.5304 15.1195C14.6127 14.4614 14.9111 13.8491 15.3787 13.3787ZM19.6213 17.6213C19.1534 18.0932 18.5407 18.3945 17.8813 18.477C17.2219 18.5595 16.5539 18.4186 15.9841 18.0766L20.0764 13.9843C20.4137 14.5554 20.5519 15.2223 20.4696 15.8805C20.3872 16.5386 20.0889 17.1509 19.6213 17.6213Z" fill="black"/>
</svg>
