<svg width="24" height="24" viewBox="0 0 24 24" fill="none" xmlns="http://www.w3.org/2000/svg">
<g clip-path="url(#clip0)">
<path d="M12 0C9.61557 0.0027525 7.32959 0.951184 5.64354 2.63723C3.95749 4.32328 3.00905 6.60927 3.0063 8.9937C3.0063 15.7563 10.9912 23.021 11.3311 23.3267L12 23.9287L12.6689 23.3267C13.0089 23.021 20.9941 15.7567 20.9941 8.9937C20.9913 6.60922 20.0428 4.32322 18.3566 2.63718C16.6705 0.951136 14.3845 0.00272589 12 0V0ZM12.3345 22.955L12 23.256L11.6654 22.9549C11.3323 22.6549 3.5063 15.5411 3.5063 8.9937C3.5063 6.74098 4.40119 4.58052 5.99411 2.98761C7.58702 1.39469 9.74748 0.4998 12.0002 0.4998C14.2529 0.4998 16.4134 1.39469 18.0063 2.98761C19.5992 4.58052 20.4941 6.74098 20.4941 8.9937C20.4941 15.5407 12.6677 22.6552 12.3345 22.955ZM14.5808 5.9239C14.442 5.78516 14.2538 5.70722 14.0576 5.70722C13.8614 5.70722 13.6732 5.78516 13.5344 5.9239L9 10.4584V12H10.5416L15.076 7.4655C15.2147 7.32674 15.2926 7.13858 15.2926 6.9424C15.2926 6.74622 15.2147 6.55806 15.076 6.4193L14.5808 5.9239ZM10.3345 11.5H9.5V10.6655L12.885 7.2805L13.7195 8.115L10.3345 11.5ZM14.7225 7.112L14.073 7.7614L13.2385 6.9269L13.8879 6.2775C13.9329 6.23253 13.9939 6.20726 14.0576 6.20726C14.1212 6.20726 14.1822 6.23253 14.2272 6.2775L14.7225 6.7729C14.7674 6.8179 14.7927 6.8789 14.7927 6.9425C14.7927 7.0061 14.7674 7.0671 14.7225 7.1121V7.112Z" fill="black"/>
</g>
<defs>
<clipPath id="clip0">
<rect width="24" height="24" fill="white"/>
</clipPath>
</defs>
</svg>
