<svg width="24" height="24" viewBox="0 0 24 24" fill="none" xmlns="http://www.w3.org/2000/svg">
<path d="M3 3V21H21V3H3ZM20 20H4V4H20V20ZM11.7206 16.7484L12 17L12.28 16.7484C12.4221 16.6207 15.7592 13.5847 15.7592 10.7584C15.7541 9.7649 15.3558 8.81384 14.6515 8.11314C13.9472 7.41244 12.9941 7.01909 12.0006 7.01909C11.007 7.01909 10.0539 7.41244 9.34961 8.11314C8.64528 8.81384 8.24703 9.7649 8.2419 10.7584C8.2416 13.5847 11.5786 16.6207 11.7206 16.7484ZM12 8C12.7314 8.00082 13.4325 8.2917 13.9497 8.80884C14.4669 9.32598 14.7578 10.0271 14.7587 10.7585C14.7587 12.4904 13.022 14.602 11.9999 15.6321C10.9782 14.6021 9.2414 12.4907 9.2414 10.7585C9.24225 10.0271 9.53316 9.32598 10.0503 8.80885C10.5675 8.29171 11.2686 8.00082 12 8Z" fill="black"/>
<path d="M12 11.75C12.4142 11.75 12.75 11.4142 12.75 11C12.75 10.5858 12.4142 10.25 12 10.25C11.5858 10.25 11.25 10.5858 11.25 11C11.25 11.4142 11.5858 11.75 12 11.75Z" fill="black"/>
</svg>
