<svg width="24" height="24" viewBox="0 0 24 24" fill="none" xmlns="http://www.w3.org/2000/svg">
<path d="M22.6719 9.00004L12 1.03174L1.32809 9.00004L5.34599 12L1.32809 15L12 22.9683L22.6719 15L18.654 12L22.6719 9.00004ZM3.83529 9.00004L12 2.90374L20.1647 9.00004L12 15.0963L3.83529 9.00004ZM20.1647 15L12 21.0963L3.83529 15L6.59999 12.936L12 16.9683L17.4005 12.936L20.1647 15ZM13.7676 11.7579L14.7576 10.7679L12.99 9.00004L14.7577 7.23244L13.7677 6.24244L12 8.01004L10.2324 6.24214L9.24239 7.23214L11.01 9.00004L9.24209 10.7676L10.2321 11.7576L12 9.99004L13.7676 11.7579Z" fill="black"/>
</svg>
