<svg width="24" height="24" viewBox="0 0 24 24" fill="none" xmlns="http://www.w3.org/2000/svg">
<path d="M12.75 12.5V15H11.25V12.5H4C3.28378 12.4995 2.58523 12.2776 2 11.8647V21H22V11.8647C21.4148 12.2776 20.7162 12.4995 20 12.5H12.75ZM16 6V4C16 3.46957 15.7893 2.96086 15.4142 2.58579C15.0391 2.21071 14.5304 2 14 2H10C9.46957 2 8.96086 2.21071 8.58579 2.58579C8.21071 2.96086 8 3.46957 8 4V6H2V9C2 9.53043 2.21071 10.0391 2.58579 10.4142C2.96086 10.7893 3.46957 11 4 11H20C20.5304 11 21.0391 10.7893 21.4142 10.4142C21.7893 10.0391 22 9.53043 22 9V6H16ZM14.5 6H9.5V4C9.50016 3.86744 9.55289 3.74036 9.64662 3.64662C9.74036 3.55289 9.86744 3.50016 10 3.5H14C14.1326 3.50016 14.2596 3.55289 14.3534 3.64662C14.4471 3.74036 14.4998 3.86744 14.5 4V6Z" fill="black"/>
</svg>
