<svg width="24" height="24" viewBox="0 0 24 24" fill="none" xmlns="http://www.w3.org/2000/svg">
<path d="M22.5 3V6.3906C22.0531 6.6797 21.5322 6.83351 21 6.83351C20.4678 6.83351 19.9469 6.6797 19.5 6.3906V3H19V6.6516C19.508 7.03481 20.1155 7.26391 20.75 7.3116V18.9434C20.7467 19.3541 20.5813 19.7468 20.2897 20.0361C19.9981 20.3253 19.6041 20.4876 19.1933 20.4876C18.7826 20.4876 18.3886 20.3253 18.097 20.0361C17.8054 19.7468 17.64 19.3541 17.6367 18.9434V15.8066C17.6362 15.2615 17.4195 14.7388 17.0341 14.3533C16.6488 13.9677 16.1262 13.7508 15.5811 13.75H14V6C14 5.20435 13.6839 4.44129 13.1213 3.87868C12.5587 3.31607 11.7956 3 11 3H5C4.20435 3 3.44129 3.31607 2.87868 3.87868C2.31607 4.44129 2 5.20435 2 6V21H14V14.25H15.5811C15.9936 14.2506 16.3891 14.4149 16.6807 14.7067C16.9724 14.9985 17.1363 15.3941 17.1367 15.8066V18.9434C17.1405 19.4864 17.3588 20.0058 17.7441 20.3884C18.1294 20.771 18.6504 20.9858 19.1933 20.9858C19.7363 20.9858 20.2573 20.771 20.6426 20.3884C21.0279 20.0058 21.2462 19.4864 21.25 18.9434V7.312C21.8845 7.26431 22.492 7.03521 23 6.652V3H22.5ZM8 14.6616V11H5L8 5.3384V9H11L8 14.6616Z" fill="black"/>
</svg>
