<svg width="24" height="24" viewBox="0 0 24 24" fill="none" xmlns="http://www.w3.org/2000/svg">
<path d="M12 10C11.6044 10 11.2177 10.1173 10.8888 10.3371C10.5599 10.5568 10.3036 10.8692 10.1522 11.2346C10.0008 11.6001 9.96123 12.0022 10.0384 12.3902C10.1156 12.7781 10.3061 13.1345 10.5858 13.4142C10.8655 13.6939 11.2218 13.8844 11.6098 13.9616C11.9978 14.0387 12.3999 13.9991 12.7653 13.8478C13.1308 13.6964 13.4431 13.44 13.6629 13.1111C13.8827 12.7822 14 12.3956 14 12C14 11.4696 13.7893 10.9609 13.4142 10.5858C13.0391 10.2107 12.5304 10 12 10ZM12 13.1C11.7824 13.1 11.5697 13.0355 11.3888 12.9146C11.208 12.7937 11.067 12.622 10.9837 12.421C10.9004 12.22 10.8787 11.9988 10.9211 11.7854C10.9636 11.572 11.0683 11.376 11.2222 11.2222C11.376 11.0683 11.572 10.9636 11.7854 10.9211C11.9988 10.8787 12.2199 10.9005 12.4209 10.9837C12.6219 11.067 12.7937 11.208 12.9146 11.3889C13.0355 11.5698 13.1 11.7824 13.1 12C13.0997 12.2916 12.9837 12.5712 12.7774 12.7775C12.5712 12.9837 12.2916 13.0997 12 13.1ZM17.4661 14C17.7465 14 18.0197 13.9117 18.2472 13.7478C18.4747 13.5838 18.6448 13.3525 18.7335 13.0865L19.7623 10H17V9H17.4661C17.7465 8.99998 18.0197 8.91175 18.2472 8.7478C18.4747 8.58385 18.6448 8.3525 18.7335 8.0865L19.7623 5H17V4.5C17 3.83696 16.7366 3.20107 16.2677 2.73223C15.7989 2.26339 15.163 2 14.5 2H9.49997C8.83693 2 8.20105 2.26339 7.7322 2.73223C7.26336 3.20107 6.99997 3.83696 6.99997 4.5V5H4.23767L5.26647 8.0865C5.35516 8.3525 5.52528 8.58385 5.75274 8.7478C5.9802 8.91175 6.25348 8.99998 6.53387 9H6.99997V10H4.23767L5.26647 13.0865C5.35516 13.3525 5.52528 13.5838 5.75274 13.7478C5.9802 13.9117 6.25348 14 6.53387 14H6.99997V15H4.23767L5.26647 18.0865C5.35516 18.3525 5.52528 18.5838 5.75274 18.7478C5.9802 18.9117 6.25348 19 6.53387 19H6.99997V19.5C6.99997 20.163 7.26336 20.7989 7.7322 21.2678C8.20105 21.7366 8.83693 22 9.49997 22H14.5C15.163 22 15.7989 21.7366 16.2677 21.2678C16.7366 20.7989 17 20.163 17 19.5V19H17.4661C17.7465 19 18.0197 18.9117 18.2472 18.7478C18.4747 18.5838 18.6448 18.3525 18.7335 18.0865L19.7623 15H17V14H17.4661ZM17 6H18.3749L17.7849 7.77C17.7627 7.83698 17.72 7.89527 17.6628 7.93656C17.6056 7.97786 17.5368 8.00006 17.4663 8H17V6ZM17 11H18.3749L17.7849 12.77C17.7627 12.837 17.72 12.8953 17.6628 12.9366C17.6056 12.9779 17.5368 13.0001 17.4663 13H17V11ZM6.99997 18H6.53387C6.46331 18 6.39453 17.9778 6.33732 17.9366C6.2801 17.8953 6.23736 17.837 6.21517 17.77L5.62507 16H6.99997V18ZM6.99997 13H6.53387C6.46331 13 6.39453 12.9778 6.33732 12.9366C6.2801 12.8953 6.23736 12.837 6.21517 12.77L5.62507 11H6.99997V13ZM6.99997 8H6.53387C6.46331 8.00005 6.39453 7.97784 6.33732 7.93655C6.2801 7.89526 6.23736 7.83698 6.21517 7.77L5.62507 6H6.99997V8ZM16 19.5C15.9995 19.8977 15.8413 20.279 15.5601 20.5602C15.2789 20.8414 14.8977 20.9995 14.5 21H9.49997C9.10228 20.9995 8.72101 20.8414 8.43981 20.5602C8.1586 20.279 8.00042 19.8977 7.99997 19.5V4.5C8.00042 4.10231 8.1586 3.72104 8.43981 3.43984C8.72101 3.15863 9.10228 3.00045 9.49997 3H14.5C14.8977 3.00045 15.2789 3.15863 15.5601 3.43984C15.8413 3.72104 15.9995 4.10231 16 4.5V19.5ZM18.3749 16L17.7849 17.77C17.7627 17.837 17.72 17.8953 17.6628 17.9366C17.6056 17.9779 17.5368 18.0001 17.4663 18H17V16H18.3749ZM12 5C11.6044 5 11.2177 5.1173 10.8888 5.33706C10.5599 5.55682 10.3036 5.86918 10.1522 6.23463C10.0008 6.60009 9.96123 7.00222 10.0384 7.39018C10.1156 7.77814 10.3061 8.13451 10.5858 8.41421C10.8655 8.69392 11.2218 8.8844 11.6098 8.96157C11.9978 9.03874 12.3999 8.99913 12.7653 8.84776C13.1308 8.69638 13.4431 8.44004 13.6629 8.11114C13.8827 7.78224 14 7.39556 14 7C14 6.46957 13.7893 5.96086 13.4142 5.58579C13.0391 5.21071 12.5304 5 12 5ZM12 8.1C11.7824 8.1 11.5697 8.03549 11.3888 7.91462C11.208 7.79375 11.067 7.62195 10.9837 7.42095C10.9004 7.21995 10.8787 6.99878 10.9211 6.7854C10.9636 6.57202 11.0683 6.37602 11.2222 6.22218C11.376 6.06835 11.572 5.96358 11.7854 5.92114C11.9988 5.87869 12.2199 5.90048 12.4209 5.98373C12.6219 6.06699 12.7937 6.20798 12.9146 6.38887C13.0355 6.56977 13.1 6.78244 13.1 7C13.0997 7.29164 12.9837 7.57125 12.7774 7.77747C12.5712 7.98369 12.2916 8.09968 12 8.1ZM12 15C11.6044 15 11.2177 15.1173 10.8888 15.3371C10.5599 15.5568 10.3036 15.8692 10.1522 16.2346C10.0008 16.6001 9.96123 17.0022 10.0384 17.3902C10.1156 17.7781 10.3061 18.1345 10.5858 18.4142C10.8655 18.6939 11.2218 18.8844 11.6098 18.9616C11.9978 19.0387 12.3999 18.9991 12.7653 18.8478C13.1308 18.6964 13.4431 18.44 13.6629 18.1111C13.8827 17.7822 14 17.3956 14 17C14 16.4696 13.7893 15.9609 13.4142 15.5858C13.0391 15.2107 12.5304 15 12 15ZM12 18.1C11.7824 18.1 11.5697 18.0355 11.3888 17.9146C11.208 17.7937 11.067 17.622 10.9837 17.421C10.9004 17.22 10.8787 16.9988 10.9211 16.7854C10.9636 16.572 11.0683 16.376 11.2222 16.2222C11.376 16.0683 11.572 15.9636 11.7854 15.9211C11.9988 15.8787 12.2199 15.9005 12.4209 15.9837C12.6219 16.067 12.7937 16.208 12.9146 16.3889C13.0355 16.5698 13.1 16.7824 13.1 17C13.0997 17.2916 12.9837 17.5712 12.7774 17.7775C12.5712 17.9837 12.2916 18.0997 12 18.1Z" fill="black"/>
</svg>
