<svg width="24" height="24" viewBox="0 0 24 24" fill="none" xmlns="http://www.w3.org/2000/svg">
<path d="M5.3015 15.1592L8.6675 18.525L15.6685 12.3475L11.4785 8.15808L5.3015 15.1592ZM19.6936 4.13298C19.268 3.70733 18.7626 3.36969 18.2065 3.13933C17.6504 2.90897 17.0543 2.79041 16.4524 2.79041C15.8504 2.79041 15.2543 2.90897 14.6982 3.13933C14.1421 3.36969 13.6367 3.70733 13.2111 4.13298C12.5378 4.81077 12.0985 5.68595 11.9575 6.63088L17.1958 11.8691C18.1407 11.728 19.0158 11.2888 19.6936 10.6155C20.5532 9.75583 21.0361 8.58992 21.0361 7.37423C21.0361 6.15854 20.5532 4.99264 19.6936 4.13298ZM2.5967 18.2248L5.6018 21.23L7.5444 19.5158L4.3108 16.2821L2.5967 18.2248Z" fill="black"/>
</svg>
