<svg width="24" height="24" viewBox="0 0 24 24" fill="none" xmlns="http://www.w3.org/2000/svg">
<path d="M12 2C10.0222 2 8.08879 2.58649 6.4443 3.6853C4.79981 4.78412 3.51809 6.3459 2.76121 8.17317C2.00433 10.0004 1.8063 12.0111 2.19215 13.9509C2.578 15.8907 3.53041 17.6725 4.92894 19.0711C6.32746 20.4696 8.10929 21.422 10.0491 21.8079C11.9889 22.1937 13.9996 21.9957 15.8268 21.2388C17.6541 20.4819 19.2159 19.2002 20.3147 17.5557C21.4135 15.9112 22 13.9778 22 12C22 10.6868 21.7413 9.38642 21.2388 8.17317C20.7363 6.95991 19.9997 5.85752 19.0711 4.92893C18.1425 4.00035 17.0401 3.26375 15.8268 2.7612C14.6136 2.25866 13.3132 2 12 2ZM21.37 10.5H20.229C19.9878 10.5001 19.7502 10.442 19.5362 10.3307C19.3222 10.2194 19.1383 10.0581 18.9999 9.86053C18.8615 9.66298 18.7729 9.43498 18.7414 9.19586C18.7099 8.95673 18.7365 8.71354 18.819 8.4869L19.6044 6.33C20.5227 7.5561 21.1286 8.9873 21.37 10.5ZM2.7935 14.301C3.07908 14.1152 3.4117 14.0146 3.7524 14.011H3.7558C4.17779 14.0093 4.58598 14.1612 4.90414 14.4384C5.2223 14.7156 5.42866 15.0992 5.4847 15.5174C5.54074 15.9357 5.44261 16.36 5.20864 16.7112C4.97467 17.0624 4.62087 17.3164 4.2133 17.4258C3.55333 16.4796 3.07214 15.4205 2.7935 14.301ZM12 21.5C10.5594 21.4992 9.1379 21.17 7.84353 20.5376C6.54916 19.9051 5.41596 18.986 4.53 17.85C5.02447 17.6695 5.43945 17.3205 5.70195 16.8642C5.96445 16.408 6.05765 15.8738 5.96515 15.3556C5.87265 14.8374 5.60038 14.3685 5.19624 14.0312C4.7921 13.694 4.28197 13.51 3.7556 13.5118H3.7524C3.3752 13.5203 3.0059 13.6216 2.6772 13.8069C2.27468 11.7446 2.56801 9.60694 3.51119 7.72925C4.45436 5.85157 5.99405 4.34001 7.88881 3.43161C9.78356 2.52321 11.9262 2.26934 13.9808 2.70982C16.0354 3.1503 17.8857 4.26021 19.2415 5.8655L18.3495 8.3155C18.2394 8.61765 18.2039 8.94188 18.2458 9.26071C18.2877 9.57954 18.4059 9.88355 18.5903 10.147C18.7747 10.4104 19.0199 10.6255 19.3052 10.774C19.5904 10.9225 19.9072 11 20.2288 11H21.4463C21.5878 12.3247 21.4489 13.6643 21.0386 14.9318C20.6282 16.1992 19.9557 17.3661 19.0647 18.3565C18.1737 19.347 17.0841 20.1387 15.867 20.6803C14.6498 21.2219 13.3322 21.5012 12 21.5ZM14.7811 11.8069H10.5833C10.4507 11.8069 10.3235 11.7542 10.2298 11.6605C10.136 11.5667 10.0833 11.4395 10.0833 11.3069C10.0833 11.1743 10.136 11.0471 10.2298 10.9533C10.3235 10.8596 10.4507 10.8069 10.5833 10.8069H13.8713C14.0766 10.807 14.2769 10.7438 14.4451 10.6261C14.6132 10.5084 14.7411 10.3418 14.8113 10.1489L15.7787 7.4909C15.8887 7.18877 15.9242 6.86458 15.8822 6.54582C15.8402 6.22705 15.722 5.9231 15.5376 5.65973C15.3532 5.39636 15.108 5.18133 14.8228 5.03287C14.5376 4.88441 14.2208 4.8069 13.8993 4.8069H7.2812C7.0425 4.80941 6.81443 4.90599 6.64652 5.07567C6.47861 5.24536 6.38442 5.47443 6.38442 5.71315C6.38442 5.95187 6.47861 6.18094 6.64652 6.35063C6.81443 6.52031 7.0425 6.61689 7.2812 6.6194C7.47182 6.6194 7.65464 6.69512 7.78944 6.8299C7.92424 6.96468 7.99998 7.14748 8 7.3381V10.4214C8 10.816 8.07783 11.2067 8.22906 11.5712C8.38029 11.9357 8.60194 12.2667 8.8813 12.5454L10.5791 14.239L10.5417 19.8069H12.625C13.2407 19.8069 13.8414 19.6175 14.3458 19.2643C14.8501 18.9112 15.2335 18.4114 15.4441 17.8329L16.6605 14.4909C16.7705 14.1888 16.806 13.8646 16.764 13.5458C16.722 13.227 16.6038 12.9231 16.4194 12.6597C16.235 12.3964 15.9898 12.1813 15.7046 12.0329C15.4194 11.8844 15.1026 11.8069 14.7811 11.8069ZM16.1906 14.3199L14.9742 17.6619C14.7978 18.1434 14.478 18.5592 14.058 18.8534C13.6379 19.1475 13.1378 19.3058 12.625 19.3069H11.045L11.0791 14.2423L11.0805 14.0323L10.9323 13.8844L9.2344 12.1914C9.00089 11.9597 8.81572 11.6839 8.68965 11.3801C8.56358 11.0762 8.49912 10.7504 8.5 10.4214V7.3381C8.49966 7.01497 8.37114 6.70517 8.14264 6.47669C7.91414 6.24821 7.60434 6.11972 7.2812 6.1194C7.17456 6.11773 7.07286 6.07419 6.99804 5.99819C6.92321 5.92218 6.88128 5.8198 6.88128 5.71315C6.88128 5.6065 6.92321 5.50412 6.99804 5.42811C7.07286 5.35211 7.17456 5.30857 7.2812 5.3069H13.899C14.1402 5.30683 14.3778 5.36491 14.5918 5.47622C14.8057 5.58754 14.9897 5.7488 15.128 5.94634C15.2664 6.14388 15.3551 6.37186 15.3866 6.61098C15.4181 6.85009 15.3915 7.09327 15.309 7.3199L14.3416 9.9779C14.3063 10.0742 14.2423 10.1574 14.1583 10.2162C14.0743 10.2751 13.9742 10.3067 13.8716 10.3069H10.5836C10.3184 10.3069 10.064 10.4123 9.8765 10.5998C9.68896 10.7873 9.5836 11.0417 9.5836 11.3069C9.5836 11.5721 9.68896 11.8265 9.8765 12.014C10.064 12.2015 10.3184 12.3069 10.5836 12.3069H14.7814C15.0225 12.3069 15.2601 12.3651 15.474 12.4764C15.6879 12.5877 15.8718 12.749 16.0101 12.9465C16.1484 13.1441 16.237 13.372 16.2685 13.6111C16.3 13.8502 16.2734 14.0933 16.1909 14.3199H16.1906Z" fill="black"/>
</svg>
