<svg width="24" height="24" viewBox="0 0 24 24" fill="none" xmlns="http://www.w3.org/2000/svg">
<path d="M12 2.00001C9.68646 2.00002 7.44449 2.80223 5.6561 4.26994C3.86771 5.73766 2.64355 7.78006 2.19221 10.0492C1.74087 12.3183 2.09028 14.6737 3.18089 16.714C4.2715 18.7544 6.03584 20.3535 8.17329 21.2388C10.3107 22.1242 12.689 22.241 14.903 21.5694C17.1169 20.8978 19.0295 19.4793 20.3148 17.5557C21.6001 15.632 22.1787 13.3222 21.9519 11.0198C21.7251 8.71738 20.7071 6.56483 19.0711 4.92891C18.1435 3.99895 17.0413 3.26147 15.8278 2.75883C14.6143 2.25619 13.3135 1.99831 12 2.00001ZM20.3617 13C19.9298 13 19.5154 13.1706 19.2086 13.4745L18.6043 14.0732L18 14.6719V17H20.0626C19.2221 18.3507 18.059 19.4713 16.678 20.261C14.6795 21.3947 12.3377 21.7652 10.0869 21.3038C7.83607 20.8423 5.82896 19.5802 4.43783 17.7516C3.0467 15.9229 2.36596 13.6518 2.52186 11.3595C2.67775 9.06711 3.65971 6.90908 5.28561 5.28561C6.61419 3.95826 8.30637 3.05448 10.1484 2.68843C11.9904 2.32239 13.8995 2.51051 15.6347 3.22903C17.3698 3.94755 18.853 5.16423 19.897 6.72535C20.941 8.28647 21.4988 10.122 21.5 12C21.5 12.2341 21.4886 12.4653 21.4691 12.6943C21.4496 12.9233 21.4217 13.15 21.3891 13.3751C21.248 13.2584 21.0887 13.1657 20.9174 13.1008C20.7398 13.034 20.5515 12.9998 20.3617 13ZM6.43081 6.31611L5.82281 7.98711C5.74036 8.2137 5.71375 8.45684 5.74525 8.6959C5.77674 8.93497 5.8654 9.16292 6.00371 9.36044C6.14203 9.55795 6.32593 9.71921 6.53982 9.83054C6.7537 9.94188 6.99128 10 7.23241 10H9.01461C9.17374 10 9.32635 10.0632 9.43888 10.1757C9.5514 10.2883 9.61461 10.4409 9.61461 10.6C9.61461 10.7591 9.5514 10.9118 9.43888 11.0243C9.32635 11.1368 9.17374 11.2 9.01461 11.2H7.00001C6.46958 11.2 5.96087 11.4107 5.5858 11.7858C5.21073 12.1609 5.00001 12.6696 5.00001 13.2V14C5.00001 14.2652 5.10537 14.5196 5.29291 14.7071C5.48044 14.8947 5.7348 15 6.00001 15H7.00001V17.5C7.00001 17.6326 7.05269 17.7598 7.14646 17.8536C7.24023 17.9473 7.3674 18 7.50001 18C8.16305 18 8.79894 17.7366 9.26778 17.2678C9.73662 16.7989 10 16.163 10 15.5V12H15.5C15.8283 12 16.1534 11.9353 16.4567 11.8097C16.76 11.6841 17.0356 11.4999 17.2678 11.2678C17.4999 11.0356 17.6841 10.76 17.8097 10.4567C17.9353 10.1534 18 9.82831 18 9.50001V5.00001H8.31001C7.89959 5.00006 7.49912 5.12637 7.16294 5.36181C6.82676 5.59726 6.57116 5.93042 6.43081 6.31611Z" fill="black"/>
</svg>
