<svg width="24" height="24" viewBox="0 0 24 24" fill="none" xmlns="http://www.w3.org/2000/svg">
<path d="M22.6719 9.00004L12 1.03174L1.32809 9.00004L5.34599 12L1.32809 15L12 22.9683L22.6719 15L18.654 12L22.6719 9.00004ZM2.16389 9.00004L12 1.65564L21.8362 9.00004L12 16.3443L2.16389 9.00004ZM21.8362 15L12 22.3443L2.16389 15L5.76389 12.312L12 16.9683L18.2361 12.312L21.8362 15ZM14.2607 11.6143L14.6143 11.2607L12.3535 9.00004L14.6143 6.73934L14.2607 6.38574L12 8.64654L9.73929 6.38574L9.38569 6.73934L11.6465 9.00004L9.38569 11.2607L9.73929 11.6143L12 9.35354L14.2607 11.6143Z" fill="black"/>
</svg>
