<svg width="24" height="24" viewBox="0 0 24 24" fill="none" xmlns="http://www.w3.org/2000/svg">
<path d="M12 2C10.0222 2 8.08879 2.58649 6.4443 3.6853C4.79981 4.78412 3.51809 6.3459 2.76121 8.17317C2.00433 10.0004 1.8063 12.0111 2.19215 13.9509C2.578 15.8907 3.53041 17.6725 4.92894 19.0711C6.32746 20.4696 8.10929 21.422 10.0491 21.8079C11.9889 22.1937 13.9996 21.9957 15.8268 21.2388C17.6541 20.4819 19.2159 19.2002 20.3147 17.5557C21.4135 15.9112 22 13.9778 22 12C22 10.6868 21.7413 9.38642 21.2388 8.17317C20.7363 6.95991 19.9997 5.85752 19.0711 4.92893C18.1425 4.00035 17.0401 3.26375 15.8268 2.7612C14.6136 2.25866 13.3132 2 12 2ZM4.8941 17.5028C3.81682 16.1186 3.17047 14.448 3.0355 12.6992L4.9125 14.5723L4.8941 17.5028ZM6.9924 19.4735H7.2361C7.64626 19.4735 8.04649 19.3474 8.38257 19.1123C8.71864 18.8772 8.9743 18.5444 9.1149 18.1591L10.4531 14.4924C10.5633 14.1902 10.5991 13.8659 10.5573 13.547C10.5155 13.2281 10.3974 12.924 10.213 12.6604C10.0286 12.3969 9.7834 12.1817 9.49813 12.0331C9.21285 11.8845 8.89595 11.8069 8.5743 11.8069H4.2943C4.02909 11.8069 3.77473 11.7015 3.5872 11.514C3.39966 11.3265 3.2943 11.0721 3.2943 10.8069C3.2943 10.5417 3.39966 10.2873 3.5872 10.0998C3.77473 9.91226 4.02909 9.8069 4.2943 9.8069H8.2352C8.44048 9.80696 8.6408 9.74385 8.80897 9.62613C8.97713 9.50841 9.105 9.3418 9.1752 9.1489L9.7787 7.4909C9.88867 7.18875 9.92417 6.86453 9.88218 6.54574C9.84019 6.22695 9.72196 5.92298 9.53751 5.65961C9.35306 5.39623 9.10782 5.18121 8.82259 5.03277C8.53736 4.88433 8.22055 4.80685 7.899 4.8069H6.6137C7.96253 3.78717 9.57312 3.17128 11.2582 3.03085C12.9433 2.89042 14.6336 3.23121 16.1326 4.0136C15.7386 4.0291 15.3581 4.16111 15.0392 4.39293C14.7202 4.62474 14.4772 4.94594 14.3409 5.3159L13.7327 6.9869C13.6502 7.21351 13.6236 7.45666 13.655 7.69576C13.6865 7.93485 13.7752 8.16283 13.9135 8.36037C14.0518 8.55791 14.2357 8.71919 14.4496 8.83054C14.6635 8.94188 14.9011 9.00001 15.1423 9H18.45C18.5826 9 18.7098 9.05268 18.8036 9.14645C18.8973 9.24021 18.95 9.36739 18.95 9.5C18.95 9.63261 18.8973 9.75979 18.8036 9.85355C18.7098 9.94732 18.5826 10 18.45 10H16.5C15.837 10 15.2011 10.2634 14.7322 10.7322C14.2634 11.2011 14 11.837 14 12.5V13.5C14 13.8978 14.158 14.2794 14.4393 14.5607C14.7206 14.842 15.1022 15 15.5 15H16.5C16.6326 15 16.7598 15.0527 16.8536 15.1464C16.9473 15.2402 17 15.3674 17 15.5V17.0878C17.0004 17.4258 17.1151 17.7537 17.3254 18.0182C17.5357 18.2828 17.8292 18.4685 18.1584 18.5452C16.6796 19.9455 14.768 20.8005 12.7383 20.9692C10.7087 21.1379 8.68216 20.6104 6.9924 19.4735Z" fill="black"/>
</svg>
