<svg width="24" height="24" viewBox="0 0 24 24" fill="none" xmlns="http://www.w3.org/2000/svg">
<path d="M21.9 7.75732L16.2427 2.10052L14.6516 3.69152L13.2374 2.27732L11.2928 4.22182L14.4749 7.40372L7.40382 14.4749L4.22182 11.2929L2.27722 13.2374L3.69142 14.6517L2.10052 16.2426L7.75732 21.9L9.34842 20.309L10.7626 21.7232L12.7072 19.7786L9.52512 16.5962L16.5962 9.52512L19.7782 12.7071L21.7228 10.7626L20.3086 9.34832L21.9 7.75732ZM8.99482 19.955L7.75732 21.1924L2.80732 16.2424L4.04502 15.0052L6.52002 17.48L8.99482 19.955ZM10.7626 21.0156L2.98442 13.2374L4.22182 12L12 19.7781L10.7626 21.0156ZM9.17163 16.2426L7.75742 14.8284L14.8284 7.75732L16.2426 9.17163L9.17163 16.2426ZM15.0052 4.04502L16.2427 2.80762L21.1927 7.75762L19.955 8.99482L17.48 6.52002L15.0052 4.04502ZM21.0152 10.7626L19.7782 12L12 4.22182L13.2374 2.98442L21.0152 10.7626Z" fill="black"/>
</svg>
