<svg width="24" height="24" viewBox="0 0 24 24" fill="none" xmlns="http://www.w3.org/2000/svg">
<path d="M12 2C10.0222 2 8.08879 2.58649 6.4443 3.6853C4.79981 4.78412 3.51809 6.3459 2.76121 8.17317C2.00433 10.0004 1.8063 12.0111 2.19215 13.9509C2.578 15.8907 3.53041 17.6725 4.92894 19.0711C6.32746 20.4696 8.10929 21.422 10.0491 21.8079C11.9889 22.1937 13.9996 21.9957 15.8268 21.2388C17.6541 20.4819 19.2159 19.2002 20.3147 17.5557C21.4135 15.9112 22 13.9778 22 12C22 10.6868 21.7413 9.38642 21.2388 8.17317C20.7363 6.95991 19.9997 5.85752 19.0711 4.92893C18.1425 4.00035 17.0401 3.26375 15.8268 2.7612C14.6136 2.25866 13.3132 2 12 2ZM18.4457 18.2545C18.2513 18.2543 18.0649 18.177 17.9274 18.0395C17.7899 17.902 17.7125 17.7156 17.7123 17.5212V16.0333C17.7119 15.671 17.5678 15.3236 17.3116 15.0674C17.0554 14.8112 16.708 14.6671 16.3457 14.6667H15.4126C15.227 14.6664 15.0492 14.5925 14.918 14.4613C14.7868 14.3301 14.7129 14.1523 14.7126 13.9667V13.1667C14.7131 12.769 14.8712 12.3877 15.1524 12.1065C15.4336 11.8253 15.8149 11.6672 16.2126 11.6667H18.2826C18.6804 11.6667 19.062 11.5087 19.3433 11.2274C19.6246 10.9461 19.7826 10.5645 19.7826 10.1667C19.7826 9.76888 19.6246 9.38734 19.3433 9.10604C19.062 8.82474 18.6804 8.6667 18.2826 8.6667H14.8546C14.7742 8.66672 14.695 8.64736 14.6237 8.61026C14.5524 8.57315 14.491 8.5194 14.4449 8.45355C14.3988 8.38771 14.3692 8.31171 14.3587 8.23201C14.3482 8.1523 14.3571 8.07124 14.3846 7.9957L15.1141 5.9913C15.1847 5.79867 15.3127 5.63232 15.4808 5.51466C15.6488 5.39701 15.8489 5.33371 16.0541 5.3333H18.0248C18.9235 6.13988 19.6498 7.11978 20.1602 8.21414C20.6707 9.3085 20.9546 10.4947 20.9951 11.7016C21.0355 12.9085 20.8316 14.111 20.3956 15.2371C19.9596 16.3632 19.3005 17.3895 18.4579 18.2545H18.4457ZM6.6719 12.8069H8.9633C9.12409 12.8069 9.28251 12.8456 9.42515 12.9198C9.56778 12.994 9.69042 13.1015 9.78266 13.2332C9.87491 13.3649 9.93404 13.5169 9.95504 13.6763C9.97604 13.8357 9.95829 13.9978 9.9033 14.1489L8.8079 17.1576C8.66676 17.5428 8.41092 17.8755 8.07488 18.1108C7.73884 18.3461 7.33874 18.4727 6.9285 18.4736H5.8822L5.9122 14.2461L5.9152 13.8274L5.619 13.5315L3.0624 10.9774C3.2853 9.03593 4.1365 7.22046 5.4864 5.8074H7.899C8.05979 5.80735 8.21821 5.84607 8.36085 5.92028C8.50348 5.99449 8.62612 6.102 8.71836 6.23369C8.81061 6.36538 8.86974 6.51738 8.89074 6.67678C8.91174 6.83619 8.89399 6.99831 8.839 7.1494L7.8716 9.8074H6.6719C6.47492 9.8074 6.27987 9.8462 6.09788 9.92158C5.91589 9.99696 5.75053 10.1075 5.61124 10.2467C5.47196 10.386 5.36147 10.5514 5.28609 10.7334C5.2107 10.9154 5.1719 11.1104 5.1719 11.3074C5.1719 11.5044 5.2107 11.6994 5.28609 11.8814C5.36147 12.0634 5.47196 12.2288 5.61124 12.3681C5.75053 12.5073 5.91589 12.6178 6.09788 12.6932C6.27987 12.7686 6.47492 12.8074 6.6719 12.8074V12.8069ZM4.8892 17.4963C3.74167 16.0178 3.08701 14.2166 3.0175 12.3463L4.9125 14.2394L4.8892 17.4963ZM6.9851 19.4692C7.59059 19.4584 8.1786 19.2645 8.67172 18.913C9.16483 18.5615 9.53993 18.0689 9.7476 17.5L10.8427 14.4913C10.9527 14.1892 10.9882 13.865 10.9462 13.5462C10.9042 13.2274 10.786 12.9235 10.6016 12.6601C10.4172 12.3968 10.172 12.1817 9.88679 12.0333C9.6016 11.8848 9.28482 11.8073 8.9633 11.8073H6.6719C6.5393 11.8073 6.41212 11.7546 6.31835 11.6609C6.22458 11.5671 6.1719 11.4399 6.1719 11.3073C6.1719 11.1747 6.22458 11.0475 6.31835 10.9537C6.41212 10.86 6.5393 10.8073 6.6719 10.8073H7.8713C8.07658 10.8074 8.2769 10.7442 8.44507 10.6265C8.61323 10.5088 8.7411 10.3422 8.8113 10.1493L9.7787 7.4913C9.88875 7.18912 9.92431 6.86487 9.88236 6.54602C9.84041 6.22718 9.7222 5.92315 9.53774 5.65972C9.35327 5.39629 9.10801 5.18123 8.82274 5.03277C8.53746 4.88431 8.2206 4.80683 7.899 4.8069H6.6137C8.0495 3.72082 9.78021 3.09439 11.5785 3.00987C13.3768 2.92534 15.1587 3.38668 16.69 4.3333H16.054C15.6436 4.3333 15.2431 4.45958 14.9068 4.69501C14.5706 4.93043 14.315 5.2636 14.1746 5.6493L13.4451 7.6536C13.3626 7.8802 13.336 8.12335 13.3674 8.36243C13.3989 8.60152 13.4876 8.82949 13.6259 9.02703C13.7642 9.22457 13.9481 9.38585 14.162 9.4972C14.3759 9.60856 14.6135 9.6667 14.8546 9.6667H18.2826C18.4152 9.6667 18.5424 9.71938 18.6362 9.81315C18.7299 9.90691 18.7826 10.0341 18.7826 10.1667C18.7826 10.2993 18.7299 10.4265 18.6362 10.5203C18.5424 10.614 18.4152 10.6667 18.2826 10.6667H16.2126C15.5496 10.6667 14.9137 10.9301 14.4448 11.3989C13.976 11.8678 13.7126 12.5037 13.7126 13.1667V13.9667C13.7126 14.4176 13.8917 14.85 14.2105 15.1688C14.5293 15.4876 14.9617 15.6667 15.4126 15.6667H16.3457C16.4429 15.6667 16.5362 15.7053 16.6049 15.7741C16.6737 15.8428 16.7123 15.9361 16.7123 16.0333V17.5212C16.7131 17.8294 16.7964 18.1317 16.9536 18.3968C17.1107 18.6619 17.336 18.8801 17.606 19.0287C16.114 20.225 14.2786 20.9131 12.3679 20.9923C10.4571 21.0716 8.57105 20.5379 6.9851 19.4692Z" fill="black"/>
</svg>
