<svg width="24" height="24" viewBox="0 0 24 24" fill="none" xmlns="http://www.w3.org/2000/svg">
<path d="M6.9968 15.9936C7.29284 15.9936 7.58223 15.9058 7.82838 15.7413C8.07453 15.5769 8.26637 15.3431 8.37966 15.0696C8.49295 14.7961 8.52259 14.4951 8.46484 14.2048C8.40708 13.9144 8.26453 13.6477 8.0552 13.4384C7.84587 13.2291 7.57916 13.0865 7.28881 13.0288C6.99846 12.971 6.6975 13.0006 6.424 13.1139C6.1505 13.2272 5.91673 13.4191 5.75226 13.6652C5.58779 13.9114 5.5 14.2008 5.5 14.4968C5.50003 14.8938 5.65773 15.2745 5.93843 15.5552C6.21913 15.8359 6.59983 15.9936 6.9968 15.9936ZM6.9968 7.9936C7.29284 7.9936 7.58223 7.90581 7.82838 7.74134C8.07453 7.57687 8.26637 7.3431 8.37966 7.0696C8.49295 6.7961 8.52259 6.49514 8.46484 6.20479C8.40708 5.91444 8.26453 5.64773 8.0552 5.4384C7.84587 5.22907 7.57916 5.08651 7.28881 5.02876C6.99846 4.97101 6.6975 5.00065 6.424 5.11394C6.1505 5.22723 5.91673 5.41908 5.75226 5.66522C5.58779 5.91137 5.5 6.20076 5.5 6.4968C5.50003 6.89377 5.65773 7.27447 5.93843 7.55517C6.21913 7.83587 6.59983 7.99357 6.9968 7.9936ZM20.5 3V9.5H19V8C19 7.20435 18.6839 6.44129 18.1213 5.87868C17.5587 5.31607 16.7956 5 16 5H10V9.5H3.5V3H2V21H3.5V19H20.5V21H22V3H20.5ZM20.5 17.5H19V16C19 15.2044 18.6839 14.4413 18.1213 13.8787C17.5587 13.3161 16.7956 13 16 13H10V17.5H3.5V11H20.5V17.5Z" fill="black"/>
</svg>
