<svg width="24" height="24" viewBox="0 0 24 24" fill="none" xmlns="http://www.w3.org/2000/svg">
<path d="M18.3333 3H6.33331C5.53793 3.00087 4.77538 3.31722 4.21296 3.87964C3.65054 4.44206 3.33419 5.20462 3.33331 6V18C3.33419 18.7954 3.65054 19.5579 4.21296 20.1204C4.77538 20.6828 5.53793 20.9991 6.33331 21H18.3333C19.1287 20.9991 19.8912 20.6828 20.4537 20.1204C21.0161 19.5579 21.3324 18.7954 21.3333 18V6C21.3324 5.20462 21.0161 4.44206 20.4537 3.87964C19.8912 3.31722 19.1287 3.00087 18.3333 3ZM19.3333 18C19.333 18.2651 19.2276 18.5193 19.0401 18.7068C18.8526 18.8943 18.5984 18.9997 18.3333 19H6.33331C6.06819 18.9997 5.814 18.8943 5.62653 18.7068C5.43905 18.5193 5.3336 18.2651 5.33331 18V6C5.3336 5.73487 5.43905 5.48069 5.62653 5.29321C5.814 5.10574 6.06819 5.00029 6.33331 5H18.3333C18.5984 5.00029 18.8526 5.10574 19.0401 5.29321C19.2276 5.48069 19.333 5.73487 19.3333 6V18ZM16.3333 6.65C16.0663 6.65002 15.8053 6.72921 15.5833 6.87756C15.3613 7.02592 15.1883 7.23676 15.0861 7.48345C14.984 7.73013 14.9573 8.00157 15.0094 8.26343C15.0615 8.5253 15.1901 8.76584 15.3789 8.95463C15.5677 9.14342 15.8082 9.27199 16.0701 9.32407C16.3319 9.37615 16.6034 9.34941 16.8501 9.24723C17.0967 9.14505 17.3076 8.97201 17.4559 8.75001C17.6042 8.52801 17.6834 8.267 17.6834 8C17.6834 7.82271 17.6485 7.64715 17.5806 7.48335C17.5128 7.31956 17.4133 7.17073 17.288 7.04537C17.1626 6.92001 17.0138 6.82057 16.85 6.75273C16.6862 6.6849 16.5106 6.64999 16.3333 6.65ZM12.3333 10.65C12.0663 10.65 11.8053 10.7292 11.5833 10.8775C11.3613 11.0259 11.1883 11.2367 11.0861 11.4834C10.9839 11.7301 10.9572 12.0015 11.0093 12.2634C11.0613 12.5252 11.1899 12.7658 11.3787 12.9546C11.5675 13.1434 11.8081 13.272 12.0699 13.3241C12.3318 13.3762 12.6033 13.3494 12.8499 13.2472C13.0966 13.1451 13.3075 12.972 13.4558 12.75C13.6041 12.528 13.6833 12.267 13.6833 12C13.6833 11.642 13.5411 11.2986 13.2879 11.0454C13.0347 10.7922 12.6914 10.65 12.3333 10.65ZM8.33331 6.65C8.06631 6.65002 7.80531 6.72921 7.58332 6.87756C7.36133 7.02592 7.18831 7.23676 7.08615 7.48345C6.98398 7.73013 6.95726 8.00157 7.00937 8.26343C7.06147 8.5253 7.19005 8.76584 7.37885 8.95463C7.56766 9.14342 7.80821 9.27199 8.07008 9.32407C8.33195 9.37615 8.60338 9.34941 8.85006 9.24723C9.09673 9.14505 9.30757 8.97201 9.4559 8.75001C9.60424 8.52801 9.68341 8.267 9.68341 8C9.68341 7.82271 9.64849 7.64715 9.58064 7.48335C9.51279 7.31956 9.41334 7.17073 9.28797 7.04537C9.1626 6.92001 9.01377 6.82057 8.84997 6.75273C8.68617 6.6849 8.51061 6.64999 8.33331 6.65ZM16.3333 14.65C16.0663 14.65 15.8053 14.7292 15.5833 14.8775C15.3613 15.0259 15.1883 15.2367 15.0861 15.4834C14.9839 15.7301 14.9572 16.0015 15.0093 16.2634C15.0613 16.5252 15.1899 16.7658 15.3787 16.9546C15.5675 17.1434 15.8081 17.272 16.0699 17.3241C16.3318 17.3762 16.6033 17.3494 16.8499 17.2472C17.0966 17.1451 17.3075 16.972 17.4558 16.75C17.6041 16.528 17.6833 16.267 17.6833 16C17.6833 15.642 17.5411 15.2986 17.2879 15.0454C17.0347 14.7922 16.6914 14.65 16.3333 14.65ZM8.33331 14.65C8.06631 14.65 7.80531 14.7292 7.58332 14.8776C7.36133 15.0259 7.18831 15.2368 7.08615 15.4834C6.98398 15.7301 6.95726 16.0016 7.00937 16.2634C7.06147 16.5253 7.19005 16.7658 7.37885 16.9546C7.56766 17.1434 7.80821 17.272 8.07008 17.3241C8.33195 17.3762 8.60338 17.3494 8.85006 17.2472C9.09673 17.145 9.30757 16.972 9.4559 16.75C9.60424 16.528 9.68341 16.267 9.68341 16C9.68341 15.8227 9.64849 15.6472 9.58064 15.4834C9.51279 15.3196 9.41334 15.1707 9.28797 15.0454C9.1626 14.92 9.01377 14.8206 8.84997 14.7527C8.68617 14.6849 8.51061 14.65 8.33331 14.65Z" fill="black"/>
</svg>
