<svg width="24" height="24" viewBox="0 0 24 24" fill="none" xmlns="http://www.w3.org/2000/svg">
<path d="M16 7V6C16 4.93913 15.5786 3.92172 14.8284 3.17157C14.0783 2.42143 13.0609 2 12 2C10.9391 2 9.92172 2.42143 9.17157 3.17157C8.42143 3.92172 8 4.93913 8 6V7H3V22H21V7H16ZM8.5 6C8.5 5.07174 8.86875 4.1815 9.52513 3.52513C10.1815 2.86875 11.0717 2.5 12 2.5C12.9283 2.5 13.8185 2.86875 14.4749 3.52513C15.1313 4.1815 15.5 5.07174 15.5 6V7H8.5V6ZM20.5 21.5H3.5V7.5H20.5V21.5ZM15 13.5C15.2967 13.5 15.5867 13.412 15.8334 13.2472C16.08 13.0824 16.2723 12.8481 16.3858 12.574C16.4993 12.2999 16.5291 11.9983 16.4712 11.7074C16.4133 11.4164 16.2704 11.1491 16.0607 10.9393C15.8509 10.7296 15.5836 10.5867 15.2926 10.5288C15.0017 10.4709 14.7001 10.5006 14.426 10.6142C14.1519 10.7277 13.9176 10.92 13.7528 11.1666C13.588 11.4133 13.5 11.7033 13.5 12C13.5 12.3978 13.658 12.7794 13.9393 13.0607C14.2206 13.342 14.6022 13.5 15 13.5ZM15 11C15.1978 11 15.3911 11.0586 15.5556 11.1685C15.72 11.2784 15.8482 11.4346 15.9239 11.6173C15.9996 11.8 16.0194 12.0011 15.9808 12.1951C15.9422 12.3891 15.847 12.5673 15.7071 12.7071C15.5673 12.847 15.3891 12.9422 15.1951 12.9808C15.0011 13.0194 14.8 12.9996 14.6173 12.9239C14.4346 12.8482 14.2784 12.72 14.1685 12.5556C14.0586 12.3911 14 12.1978 14 12C14.0003 11.7349 14.1057 11.4807 14.2932 11.2932C14.4807 11.1057 14.7349 11.0003 15 11ZM9 13.5C9.29667 13.5 9.58668 13.412 9.83335 13.2472C10.08 13.0824 10.2723 12.8481 10.3858 12.574C10.4994 12.2999 10.5291 11.9983 10.4712 11.7074C10.4133 11.4164 10.2704 11.1491 10.0607 10.9393C9.85088 10.7296 9.58361 10.5867 9.29264 10.5288C9.00166 10.4709 8.70006 10.5006 8.42597 10.6142C8.15189 10.7277 7.91762 10.92 7.7528 11.1666C7.58797 11.4133 7.5 11.7033 7.5 12C7.5 12.3978 7.65804 12.7794 7.93934 13.0607C8.22064 13.342 8.60218 13.5 9 13.5ZM9 11C9.19778 11 9.39112 11.0586 9.55557 11.1685C9.72002 11.2784 9.84819 11.4346 9.92388 11.6173C9.99957 11.8 10.0194 12.0011 9.98079 12.1951C9.9422 12.3891 9.84696 12.5673 9.70711 12.7071C9.56725 12.847 9.38907 12.9422 9.19509 12.9808C9.00111 13.0194 8.80004 12.9996 8.61732 12.9239C8.43459 12.8482 8.27841 12.72 8.16853 12.5556C8.05865 12.3911 8 12.1978 8 12C8.00029 11.7349 8.10574 11.4807 8.29321 11.2932C8.48069 11.1057 8.73487 11.0003 9 11Z" fill="#231F20"/>
</svg>
