<svg width="24" height="24" viewBox="0 0 24 24" fill="none" xmlns="http://www.w3.org/2000/svg">
<path d="M19.4376 5H2V19H19.4376L23.4376 12L19.4376 5ZM18.8576 18H3V6H18.8573L22.2857 12L18.8576 18ZM12.7951 10.6271L11.6774 7.1871L10.5597 10.6271H6.9427L9.8687 12.753L8.7511 16.193L11.6771 14.0671L14.6031 16.193L13.4854 12.753L16.4115 10.6271H12.7951ZM12.7247 13L13.0814 14.0981L12.1473 13.4194L11.6773 13.0778L11.2073 13.4194L10.2732 14.0981L10.63 13L10.81 12.4472L10.34 12.1056L9.406 11.4269H11.1418L11.3212 10.8741L11.6782 9.7761L12.0351 10.8741L12.2146 11.4269H13.9504L13.0163 12.1056L12.5463 12.4472L12.7247 13Z" fill="black"/>
</svg>
