<svg width="24" height="24" viewBox="0 0 24 24" fill="none" xmlns="http://www.w3.org/2000/svg">
<path d="M7.3 15.8C7.59667 15.8 7.88668 15.712 8.13336 15.5472C8.38003 15.3824 8.57229 15.1481 8.68582 14.874C8.79935 14.5999 8.82906 14.2983 8.77118 14.0074C8.7133 13.7164 8.57044 13.4491 8.36066 13.2393C8.15088 13.0296 7.88361 12.8867 7.59264 12.8288C7.30166 12.7709 7.00006 12.8006 6.72598 12.9142C6.45189 13.0277 6.21762 13.22 6.0528 13.4666C5.88797 13.7133 5.8 14.0033 5.8 14.3C5.8 14.6978 5.95804 15.0794 6.23934 15.3607C6.52064 15.642 6.90218 15.8 7.3 15.8ZM7.3 7.8C7.59667 7.8 7.88668 7.71203 8.13336 7.5472C8.38003 7.38238 8.57229 7.14811 8.68582 6.87403C8.79935 6.59994 8.82906 6.29834 8.77118 6.00736C8.7133 5.71639 8.57044 5.44912 8.36066 5.23934C8.15088 5.02956 7.88361 4.8867 7.59264 4.82882C7.30166 4.77094 7.00006 4.80065 6.72598 4.91418C6.45189 5.02771 6.21762 5.21997 6.0528 5.46664C5.88797 5.71332 5.8 6.00333 5.8 6.3C5.8 6.69782 5.95804 7.07936 6.23934 7.36066C6.52064 7.64196 6.90218 7.8 7.3 7.8ZM20 3V9H19V8C19 7.20435 18.6839 6.44129 18.1213 5.87868C17.5587 5.31607 16.7956 5 16 5H10V9H4V3H2V21H4V19H20V21H22V3H20ZM20 17H19V16C19 15.2044 18.6839 14.4413 18.1213 13.8787C17.5587 13.3161 16.7956 13 16 13H10V17H4V11H20V17Z" fill="black"/>
</svg>
