<svg width="24" height="24" viewBox="0 0 24 24" fill="none" xmlns="http://www.w3.org/2000/svg">
<path d="M14.9746 19.6689C14.1645 18.9211 13.1025 18.5059 12 18.5059C10.8975 18.5059 9.8355 18.9211 9.0254 19.6689C8.4697 20.1766 7.75214 20.471 7 20.5C6.24786 20.471 5.5303 20.1766 4.9746 19.6689C4.15099 18.9422 3.09799 18.5284 2 18.5V20C2.75214 20.029 3.4697 20.3234 4.0254 20.8311C4.84901 21.5578 5.90201 21.9716 7 22C8.09799 21.9716 9.15099 21.5578 9.9746 20.8311C10.5119 20.2941 11.2404 19.9925 12 19.9925C12.7596 19.9925 13.4881 20.2941 14.0254 20.8311C14.849 21.5578 15.902 21.9716 17 22C18.098 21.9716 19.151 21.5578 19.9746 20.8311C20.5303 20.3234 21.2479 20.029 22 20V18.5C20.902 18.5284 19.849 18.9422 19.0254 19.6689C18.4881 20.2059 17.7596 20.5075 17 20.5075C16.2404 20.5075 15.5119 20.2059 14.9746 19.6689ZM19.0254 15.4189C18.6369 15.8066 18.1439 16.0728 17.6067 16.1849C17.0694 16.2969 16.5111 16.2501 16 16.05V5C16 4.20435 15.6839 3.44129 15.1213 2.87868C14.5587 2.31607 13.7956 2 13 2H12V3.5H13C13.3977 3.50045 13.779 3.65863 14.0602 3.93984C14.3414 4.22104 14.4995 4.60231 14.5 5V6H9.5V5C9.5 4.20435 9.18393 3.44129 8.62132 2.87868C8.05871 2.31607 7.29565 2 6.5 2H5.5V3.5H6.5C6.89769 3.50045 7.27896 3.65863 7.56016 3.93984C7.84137 4.22104 7.99955 4.60231 8 5V6V7.5V10V11.5V14V15.5V16.0471C7.68307 16.1792 7.34337 16.2482 7 16.25C6.24786 16.221 5.5303 15.9266 4.9746 15.4189C4.15099 14.6922 3.09799 14.2784 2 14.25V15.75C2.75214 15.779 3.4697 16.0734 4.0254 16.5811C4.84901 17.3078 5.90201 17.7216 7 17.75C8.09799 17.7216 9.15099 17.3078 9.9746 16.5811C10.5119 16.0441 11.2404 15.7425 12 15.7425C12.7596 15.7425 13.4881 16.0441 14.0254 16.5811C14.849 17.3078 15.902 17.7216 17 17.75C18.098 17.7216 19.151 17.3078 19.9746 16.5811C20.5303 16.0734 21.2479 15.779 22 15.75V14.25C20.902 14.2784 19.849 14.6922 19.0254 15.4189ZM14.5 14H9.5V11.5H14.5V14ZM14.5 10H9.5V7.5H14.5V10Z" fill="black"/>
</svg>
