<svg width="24" height="24" viewBox="0 0 24 24" fill="none" xmlns="http://www.w3.org/2000/svg">
<path d="M12 2C10.0222 2 8.08879 2.58649 6.4443 3.6853C4.79981 4.78412 3.51809 6.3459 2.76121 8.17317C2.00433 10.0004 1.8063 12.0111 2.19215 13.9509C2.578 15.8907 3.53041 17.6725 4.92894 19.0711C6.32746 20.4696 8.10929 21.422 10.0491 21.8079C11.9889 22.1937 13.9996 21.9957 15.8268 21.2388C17.6541 20.4819 19.2159 19.2002 20.3147 17.5557C21.4135 15.9112 22 13.9778 22 12C22 10.6868 21.7413 9.38642 21.2388 8.17317C20.7363 6.95991 19.9997 5.85752 19.0711 4.92893C18.1425 4.00035 17.0401 3.26375 15.8268 2.7612C14.6136 2.25866 13.3132 2 12 2ZM3.7245 13.3871L5.2458 14.9056L5.231 16.953C4.45631 15.8989 3.94026 14.6774 3.7245 13.3871ZM7.5237 19.0954C7.87892 19.0473 8.21446 18.9038 8.4946 18.6802C8.77475 18.4565 8.98902 18.1611 9.1146 17.8254L10.33 14.4916C10.4401 14.1894 10.4757 13.8652 10.4338 13.5464C10.3919 13.2275 10.2738 12.9235 10.0893 12.66C9.90494 12.3966 9.65972 12.1815 9.37448 12.0329C9.08924 11.8844 8.77239 11.8069 8.4508 11.8069H4.8243C4.55909 11.8069 4.30473 11.7015 4.1172 11.514C3.92966 11.3265 3.8243 11.0721 3.8243 10.8069C3.8243 10.5417 3.92966 10.2873 4.1172 10.0998C4.30473 9.91226 4.55909 9.8069 4.8243 9.8069H8.2352C8.44048 9.80696 8.6408 9.74385 8.80897 9.62613C8.97713 9.50841 9.105 9.3418 9.1752 9.1489L9.7787 7.4909C9.88867 7.18875 9.92417 6.86453 9.88218 6.54574C9.84019 6.22695 9.72196 5.92298 9.53751 5.65961C9.35306 5.39623 9.10782 5.18121 8.82259 5.03277C8.53736 4.88433 8.22055 4.80685 7.899 4.8069H7.6843C8.81562 4.12214 10.0934 3.71581 11.4124 3.62134C12.7314 3.52687 14.054 3.74696 15.2714 4.2635C14.843 4.48868 14.5119 4.8631 14.3409 5.3159L13.7327 6.9869C13.6502 7.21351 13.6236 7.45666 13.655 7.69576C13.6865 7.93485 13.7752 8.16283 13.9135 8.36037C14.0518 8.55791 14.2357 8.71919 14.4496 8.83054C14.6635 8.94188 14.9011 9.00001 15.1423 9H18.45C18.5826 9 18.7098 9.05268 18.8036 9.14645C18.8973 9.24021 18.95 9.36739 18.95 9.5C18.95 9.63261 18.8973 9.75979 18.8036 9.85355C18.7098 9.94732 18.5826 10 18.45 10H16.5C15.837 10 15.2011 10.2634 14.7322 10.7322C14.2634 11.2011 14 11.837 14 12.5V13.5C14 13.8978 14.158 14.2794 14.4393 14.5607C14.7206 14.842 15.1022 15 15.5 15H16.5C16.6326 15 16.7598 15.0527 16.8536 15.1464C16.9473 15.2402 17 15.3674 17 15.5V17.0878C17.0006 17.3148 17.0529 17.5386 17.1531 17.7423C17.2533 17.946 17.3987 18.1241 17.5781 18.2631C16.223 19.4807 14.5066 20.2213 12.691 20.3716C10.8754 20.5219 9.06056 20.0736 7.5237 19.0954Z" fill="black"/>
</svg>
