<svg width="24" height="24" viewBox="0 0 24 24" fill="none" xmlns="http://www.w3.org/2000/svg">
<path d="M12 3.03998L0 9.99998L5 12.9V16.3094C5 16.836 5.13861 17.3533 5.40192 17.8094C5.66522 18.2655 6.04394 18.6442 6.5 18.9075L12 22.0829L17.5 18.9075C17.9561 18.6442 18.3348 18.2655 18.5981 17.8094C18.8614 17.3533 19 16.836 19 16.3094V12.9L22.5 10.87V17H24V9.99998L12 3.03998ZM12 4.77398L19.7172 9.24998H12V10.75H19.7172L12 15.226L2.99 9.99998L12 4.77398ZM17.5 16.3094C17.4996 16.5726 17.4301 16.8311 17.2985 17.0591C17.1669 17.287 16.9777 17.4765 16.75 17.6085L12 20.3508L7.25 17.6085C7.02225 17.4765 6.83313 17.287 6.70152 17.0591C6.56991 16.8311 6.50042 16.5726 6.5 16.3094V13.77L12 16.96L17.5 13.77V16.3094ZM21 10.0059V9.99408L21.01 9.99998L21 10.0059Z" fill="black"/>
</svg>
