<svg width="24" height="24" viewBox="0 0 24 24" fill="none" xmlns="http://www.w3.org/2000/svg">
<g clip-path="url(#clip0)">
<path d="M12 0C9.61555 0.0027525 7.32957 0.951184 5.64352 2.63723C3.95747 4.32328 3.00904 6.60927 3.00629 8.9937C3.00629 15.7563 10.9912 23.021 11.3311 23.3267L12 23.9287L12.6689 23.3267C13.0089 23.021 20.9941 15.7567 20.9941 8.9937C20.9913 6.60922 20.0427 4.32322 18.3566 2.63718C16.6705 0.951136 14.3845 0.00272589 12 0V0ZM12 22.5833C11.92 22.5114 4.00649 15.3207 4.00649 8.9939C4.00649 6.87379 4.8487 4.84051 6.34785 3.34136C7.84699 1.84221 9.88027 1 12.0004 1C14.1205 1 16.1538 1.84221 17.6529 3.34136C19.1521 4.84051 19.9943 6.87379 19.9943 8.9939C19.9941 15.3193 12.0821 22.51 12 22.5833ZM12.5 5.5533H11.5V8.5H8.55289V9.5H11.5V12.4472H12.5V9.5H15.4472V8.5H12.5V5.5533Z" fill="black"/>
</g>
<defs>
<clipPath id="clip0">
<rect width="24" height="24" fill="white"/>
</clipPath>
</defs>
</svg>
