<svg width="24" height="24" viewBox="0 0 24 24" fill="none" xmlns="http://www.w3.org/2000/svg">
<path d="M12 2C10.0222 2 8.08879 2.58649 6.4443 3.6853C4.79981 4.78412 3.51809 6.3459 2.76121 8.17317C2.00433 10.0004 1.8063 12.0111 2.19215 13.9509C2.578 15.8907 3.53041 17.6725 4.92894 19.0711C6.32746 20.4696 8.10929 21.422 10.0491 21.8079C11.9889 22.1937 13.9996 21.9957 15.8268 21.2388C17.6541 20.4819 19.2159 19.2002 20.3147 17.5557C21.4135 15.9112 22 13.9778 22 12C22 10.6868 21.7413 9.38642 21.2388 8.17317C20.7363 6.95991 19.9997 5.85752 19.0711 4.92893C18.1425 4.00035 17.0401 3.26375 15.8268 2.7612C14.6136 2.25866 13.3132 2 12 2ZM4.559 17.8883C3.24172 16.2337 2.5179 14.1849 2.5035 12.07C2.6119 12.2412 2.73825 12.4004 2.8804 12.5449L4.5791 14.239L4.559 17.8883ZM12 21.5C10.0694 21.5009 8.18498 20.91 6.6006 19.8069H7.2367C7.64672 19.8069 8.04683 19.6809 8.38284 19.4459C8.71884 19.2109 8.97451 18.8783 9.1152 18.4932L10.5766 14.4932C10.687 14.191 10.7229 13.8667 10.6812 13.5477C10.6395 13.2286 10.5214 12.9244 10.3371 12.6608C10.1527 12.3971 9.90744 12.1818 9.62211 12.0332C9.33679 11.8845 9.01982 11.8069 8.6981 11.8069H3.7647C3.49949 11.8069 3.24513 11.7015 3.0576 11.514C2.87006 11.3265 2.7647 11.0721 2.7647 10.8069C2.7647 10.5417 2.87006 10.2873 3.0576 10.0998C3.24513 9.91226 3.49949 9.8069 3.7647 9.8069H8.2352C8.44048 9.80696 8.6408 9.74385 8.80897 9.62613C8.97713 9.50841 9.105 9.3418 9.1752 9.1489L9.7787 7.4909C9.88867 7.18875 9.92417 6.86453 9.88218 6.54574C9.84019 6.22695 9.72196 5.92298 9.53751 5.65961C9.35306 5.39623 9.10782 5.18121 8.82259 5.03277C8.53736 4.88433 8.22055 4.80685 7.899 4.8069H5.8123C7.35435 3.47043 9.28787 2.66948 11.3233 2.52402C13.3587 2.37855 15.3865 2.8964 17.1029 4H16.22C15.8096 3.99999 15.4091 4.12626 15.0729 4.36167C14.7366 4.59707 14.481 4.93022 14.3406 5.3159L13.7324 6.9869C13.6499 7.21353 13.6233 7.45671 13.6548 7.69583C13.6862 7.93495 13.7749 8.16294 13.9133 8.36049C14.0516 8.55804 14.2356 8.71932 14.4495 8.83064C14.6635 8.94197 14.9011 9.00006 15.1423 9H18.45C18.5826 9 18.7098 9.05268 18.8036 9.14645C18.8973 9.24021 18.95 9.36739 18.95 9.5C18.95 9.63261 18.8973 9.75979 18.8036 9.85355C18.7098 9.94732 18.5826 10 18.45 10H16.5C15.837 10 15.2011 10.2634 14.7322 10.7322C14.2634 11.2011 14 11.837 14 12.5V13.5C14 13.8978 14.158 14.2794 14.4393 14.5607C14.7206 14.842 15.1022 15 15.5 15H16.5C16.6326 15 16.7598 15.0527 16.8536 15.1464C16.9473 15.2402 17 15.3674 17 15.5V17.0878C17 17.4856 17.158 17.8672 17.4393 18.1485C17.7206 18.4298 18.1022 18.5878 18.5 18.5878H18.8294C17.9461 19.5084 16.8857 20.2409 15.7121 20.7414C14.5385 21.2418 13.2759 21.4999 12 21.5Z" fill="black"/>
</svg>
