<svg width="24" height="24" viewBox="0 0 24 24" fill="none" xmlns="http://www.w3.org/2000/svg">
<path d="M6.4 8.6C6.75601 8.6 7.10402 8.49443 7.40003 8.29665C7.69603 8.09886 7.92675 7.81774 8.06298 7.48883C8.19922 7.15992 8.23487 6.798 8.16541 6.44884C8.09596 6.09967 7.92453 5.77894 7.67279 5.52721C7.42106 5.27547 7.10033 5.10404 6.75116 5.03459C6.402 4.96513 6.04008 5.00078 5.71117 5.13702C5.38226 5.27325 5.10114 5.50396 4.90335 5.79997C4.70557 6.09598 4.6 6.44399 4.6 6.8C4.6 7.27739 4.78964 7.73523 5.12721 8.07279C5.29435 8.23994 5.49278 8.37252 5.71117 8.46298C5.92956 8.55344 6.16362 8.6 6.4 8.6ZM6.4 16.6C6.75601 16.6 7.10402 16.4944 7.40003 16.2966C7.69603 16.0989 7.92675 15.8177 8.06298 15.4888C8.19922 15.1599 8.23487 14.798 8.16541 14.4488C8.09596 14.0997 7.92453 13.7789 7.67279 13.5272C7.42106 13.2755 7.10033 13.104 6.75116 13.0346C6.402 12.9651 6.04008 13.0008 5.71117 13.137C5.38226 13.2733 5.10114 13.504 4.90335 13.8C4.70557 14.096 4.6 14.444 4.6 14.8C4.6 15.2774 4.78964 15.7352 5.12721 16.0728C5.46477 16.4104 5.92261 16.6 6.4 16.6ZM21.5 3V10.5H19V8C19 7.20435 18.6839 6.44129 18.1213 5.87868C17.5587 5.31607 16.7956 5 16 5H10V10.5H2.5V3H2V21H2.5V19H21.5V21H22V3H21.5ZM21.5 18.5H19V16C19 15.2044 18.6839 14.4413 18.1213 13.8787C17.5587 13.3161 16.7956 13 16 13H10V18.5H2.5V11H21.5V18.5Z" fill="black"/>
</svg>
