<svg width="24" height="24" viewBox="0 0 24 24" fill="none" xmlns="http://www.w3.org/2000/svg">
<path d="M12.5 12V14H11.5V12H4C3.25954 11.9977 2.54648 11.7197 2 11.22V21H22V11.22C21.4535 11.7197 20.7405 11.9977 20 12H12.5ZM16 6V4C16 3.46957 15.7893 2.96086 15.4142 2.58579C15.0391 2.21071 14.5304 2 14 2H10C9.46957 2 8.96086 2.21071 8.58579 2.58579C8.21071 2.96086 8 3.46957 8 4V6H2V9C2 9.53043 2.21071 10.0391 2.58579 10.4142C2.96086 10.7893 3.46957 11 4 11H20C20.5304 11 21.0391 10.7893 21.4142 10.4142C21.7893 10.0391 22 9.53043 22 9V6H16ZM15 6H9V4C9.00029 3.73487 9.10574 3.48069 9.29321 3.29321C9.48069 3.10574 9.73487 3.00029 10 3H14C14.2651 3.00029 14.5193 3.10574 14.7068 3.29321C14.8943 3.48069 14.9997 3.73487 15 4V6Z" fill="black"/>
</svg>
