<svg width="24" height="24" viewBox="0 0 24 24" fill="none" xmlns="http://www.w3.org/2000/svg">
<path d="M18.3333 3H6.33331C5.53793 3.00087 4.77538 3.31722 4.21296 3.87964C3.65054 4.44206 3.33419 5.20462 3.33331 6V18C3.33419 18.7954 3.65054 19.5579 4.21296 20.1204C4.77538 20.6828 5.53793 20.9991 6.33331 21H18.3333C19.1287 20.9991 19.8912 20.6828 20.4537 20.1204C21.0161 19.5579 21.3324 18.7954 21.3333 18V6C21.3324 5.20462 21.0161 4.44206 20.4537 3.87964C19.8912 3.31722 19.1287 3.00087 18.3333 3ZM8.33331 16.5C8.23442 16.5 8.13775 16.4707 8.05553 16.4157C7.9733 16.3608 7.90922 16.2827 7.87137 16.1913C7.83353 16.1 7.82363 15.9994 7.84292 15.9025C7.86221 15.8055 7.90983 15.7164 7.97976 15.6464C8.04969 15.5765 8.13878 15.5289 8.23577 15.5096C8.33276 15.4903 8.43329 15.5002 8.52465 15.5381C8.61602 15.5759 8.69411 15.64 8.74905 15.7222C8.80399 15.8044 8.83331 15.9011 8.83331 16C8.83331 16.0657 8.82038 16.1307 8.79525 16.1913C8.77012 16.252 8.7333 16.3071 8.68687 16.3536C8.64044 16.4 8.58532 16.4368 8.52465 16.4619C8.46399 16.4871 8.39897 16.5 8.33331 16.5ZM8.33331 8.5C8.23442 8.5 8.13775 8.47068 8.05553 8.41574C7.9733 8.36079 7.90922 8.2827 7.87137 8.19134C7.83353 8.09998 7.82363 7.99945 7.84292 7.90245C7.86221 7.80546 7.90983 7.71637 7.97976 7.64645C8.04969 7.57652 8.13878 7.5289 8.23577 7.50961C8.33276 7.49031 8.43329 7.50022 8.52465 7.53806C8.61602 7.5759 8.69411 7.63999 8.74905 7.72221C8.80399 7.80444 8.83331 7.90111 8.83331 8C8.83331 8.06566 8.82038 8.13068 8.79525 8.19134C8.77012 8.252 8.7333 8.30712 8.68687 8.35355C8.64044 8.39998 8.58532 8.43681 8.52465 8.46194C8.46399 8.48707 8.39897 8.5 8.33331 8.5ZM12.3333 12.5C12.2344 12.5 12.1378 12.4707 12.0555 12.4157C11.9733 12.3608 11.9092 12.2827 11.8714 12.1913C11.8335 12.1 11.8236 11.9994 11.8429 11.9025C11.8622 11.8055 11.9098 11.7164 11.9798 11.6464C12.0497 11.5765 12.1388 11.5289 12.2358 11.5096C12.3328 11.4903 12.4333 11.5002 12.5247 11.5381C12.616 11.5759 12.6941 11.64 12.749 11.7222C12.804 11.8044 12.8333 11.9011 12.8333 12C12.8333 12.0657 12.8204 12.1307 12.7953 12.1913C12.7701 12.252 12.7333 12.3071 12.6869 12.3536C12.6404 12.4 12.5853 12.4368 12.5247 12.4619C12.464 12.4871 12.399 12.5 12.3333 12.5ZM16.3333 16.5C16.2344 16.5 16.1378 16.4707 16.0555 16.4157C15.9733 16.3608 15.9092 16.2827 15.8714 16.1913C15.8335 16.1 15.8236 15.9994 15.8429 15.9025C15.8622 15.8055 15.9098 15.7164 15.9798 15.6464C16.0497 15.5765 16.1388 15.5289 16.2358 15.5096C16.3328 15.4903 16.4333 15.5002 16.5247 15.5381C16.616 15.5759 16.6941 15.64 16.749 15.7222C16.804 15.8044 16.8333 15.9011 16.8333 16C16.8333 16.1326 16.7806 16.2598 16.6869 16.3536C16.5931 16.4473 16.4659 16.5 16.3333 16.5ZM16.3333 8.5C16.2344 8.5 16.1378 8.47068 16.0555 8.41574C15.9733 8.36079 15.9092 8.2827 15.8714 8.19134C15.8335 8.09998 15.8236 7.99945 15.8429 7.90245C15.8622 7.80546 15.9098 7.71637 15.9798 7.64645C16.0497 7.57652 16.1388 7.5289 16.2358 7.50961C16.3328 7.49031 16.4333 7.50022 16.5247 7.53806C16.616 7.5759 16.6941 7.63999 16.749 7.72221C16.804 7.80444 16.8333 7.90111 16.8333 8C16.8333 8.13261 16.7806 8.25979 16.6869 8.35355C16.5931 8.44732 16.4659 8.5 16.3333 8.5Z" fill="black"/>
</svg>
