<svg width="24" height="24" viewBox="0 0 24 24" fill="none" xmlns="http://www.w3.org/2000/svg">
<path d="M18.3333 3H6.33331C5.53793 3.00087 4.77538 3.31722 4.21296 3.87964C3.65054 4.44206 3.33419 5.20462 3.33331 6V18C3.33419 18.7954 3.65054 19.5579 4.21296 20.1204C4.77538 20.6828 5.53793 20.9991 6.33331 21H18.3333C19.1287 20.9991 19.8912 20.6828 20.4537 20.1204C21.0161 19.5579 21.3324 18.7954 21.3333 18V6C21.3324 5.20462 21.0161 4.44206 20.4537 3.87964C19.8912 3.31722 19.1287 3.00087 18.3333 3ZM8.33331 17C8.13553 17 7.94219 16.9414 7.77774 16.8315C7.61329 16.7216 7.48512 16.5654 7.40943 16.3827C7.33375 16.2 7.31394 15.9989 7.35253 15.8049C7.39111 15.6109 7.48635 15.4327 7.62621 15.2929C7.76606 15.153 7.94424 15.0578 8.13822 15.0192C8.3322 14.9806 8.53327 15.0004 8.716 15.0761C8.89872 15.1518 9.0549 15.28 9.16478 15.4444C9.27466 15.6089 9.33331 15.8022 9.33331 16C9.33331 16.1313 9.30745 16.2614 9.25719 16.3827C9.20694 16.504 9.13328 16.6142 9.04042 16.7071C8.94756 16.8 8.83732 16.8736 8.716 16.9239C8.59467 16.9741 8.46463 17 8.33331 17ZM8.33331 9C8.13553 9 7.94219 8.94135 7.77774 8.83147C7.61329 8.72159 7.48512 8.56541 7.40943 8.38268C7.33375 8.19996 7.31394 7.99889 7.35253 7.80491C7.39111 7.61093 7.48635 7.43275 7.62621 7.29289C7.76606 7.15304 7.94424 7.0578 8.13822 7.01921C8.3322 6.98063 8.53327 7.00043 8.716 7.07612C8.89872 7.15181 9.0549 7.27998 9.16478 7.44443C9.27466 7.60888 9.33331 7.80222 9.33331 8C9.33331 8.13132 9.30745 8.26136 9.25719 8.38268C9.20694 8.50401 9.13328 8.61425 9.04042 8.70711C8.94756 8.79997 8.83732 8.87362 8.716 8.92388C8.59467 8.97413 8.46463 9 8.33331 9ZM12.3333 13C12.1355 13 11.9422 12.9414 11.7777 12.8315C11.6133 12.7216 11.4851 12.5654 11.4094 12.3827C11.3337 12.2 11.3139 11.9989 11.3525 11.8049C11.3911 11.6109 11.4864 11.4327 11.6262 11.2929C11.7661 11.153 11.9442 11.0578 12.1382 11.0192C12.3322 10.9806 12.5333 11.0004 12.716 11.0761C12.8987 11.1518 13.0549 11.28 13.1648 11.4444C13.2747 11.6089 13.3333 11.8022 13.3333 12C13.3333 12.1313 13.3074 12.2614 13.2572 12.3827C13.2069 12.504 13.1333 12.6142 13.0404 12.7071C12.9476 12.8 12.8373 12.8736 12.716 12.9239C12.5947 12.9741 12.4646 13 12.3333 13ZM16.3333 17C16.1355 17 15.9422 16.9414 15.7777 16.8315C15.6133 16.7216 15.4851 16.5654 15.4094 16.3827C15.3337 16.2 15.3139 15.9989 15.3525 15.8049C15.3911 15.6109 15.4864 15.4327 15.6262 15.2929C15.7661 15.153 15.9442 15.0578 16.1382 15.0192C16.3322 14.9806 16.5333 15.0004 16.716 15.0761C16.8987 15.1518 17.0549 15.28 17.1648 15.4444C17.2747 15.6089 17.3333 15.8022 17.3333 16C17.3333 16.2652 17.228 16.5196 17.0404 16.7071C16.8529 16.8946 16.5985 17 16.3333 17ZM16.3333 9C16.1355 9 15.9422 8.94135 15.7777 8.83147C15.6133 8.72159 15.4851 8.56541 15.4094 8.38268C15.3337 8.19996 15.3139 7.99889 15.3525 7.80491C15.3911 7.61093 15.4864 7.43275 15.6262 7.29289C15.7661 7.15304 15.9442 7.0578 16.1382 7.01921C16.3322 6.98063 16.5333 7.00043 16.716 7.07612C16.8987 7.15181 17.0549 7.27998 17.1648 7.44443C17.2747 7.60888 17.3333 7.80222 17.3333 8C17.3333 8.26522 17.228 8.51957 17.0404 8.70711C16.8529 8.89464 16.5985 9 16.3333 9Z" fill="black"/>
</svg>
