<svg width="24" height="24" viewBox="0 0 24 24" fill="none" xmlns="http://www.w3.org/2000/svg">
<path d="M9.39999 3V7H8.77499V3H7.22499V7H6.59999V3H5.24319L4.85439 7.8849C4.82754 8.22242 4.90022 8.5604 5.06346 8.85704C5.22669 9.15368 5.4733 9.39596 5.77279 9.5539L6.64179 10.0121L6.16919 19.0712C6.1562 19.3197 6.19393 19.5682 6.28007 19.8016C6.36621 20.035 6.49896 20.2485 6.67025 20.429C6.84153 20.6094 7.04776 20.7531 7.27637 20.8514C7.50497 20.9496 7.75118 21.0002 7.99999 21.0002C8.24881 21.0002 8.49501 20.9496 8.72362 20.8514C8.95223 20.7531 9.15846 20.6094 9.32974 20.429C9.50102 20.2485 9.63378 20.035 9.71992 19.8016C9.80606 19.5682 9.84378 19.3197 9.83079 19.0712L9.35819 10.0121L10.2272 9.5539C10.5267 9.39596 10.7733 9.15368 10.9365 8.85704C11.0998 8.5604 11.1724 8.22242 11.1456 7.8849L10.7568 3H9.39999ZM9.99399 9.1116L9.12499 9.57L8.84219 9.7191L8.85889 10.0383L9.33149 19.0974C9.34089 19.2781 9.31342 19.4588 9.25075 19.6285C9.18808 19.7982 9.09152 19.9534 8.96696 20.0846C8.84239 20.2158 8.69242 20.3203 8.52619 20.3917C8.35995 20.4631 8.18092 20.5 7.99999 20.5C7.81907 20.5 7.64004 20.4631 7.4738 20.3917C7.30756 20.3203 7.1576 20.2158 7.03303 20.0846C6.90847 19.9534 6.81191 19.7982 6.74924 19.6285C6.68657 19.4588 6.6591 19.2781 6.66849 19.0974L7.14109 10.0383L7.15779 9.7191L6.87499 9.57L6.00599 9.1118C5.79286 8.99963 5.61735 8.82735 5.50123 8.61634C5.38511 8.40533 5.3335 8.16488 5.35279 7.9248L5.70499 3.5H6.09999V7.5H7.72499V3.5H8.27499V7.5H9.89999V3.5H10.295L10.6472 7.9246C10.6665 8.16468 10.6149 8.40513 10.4988 8.61614C10.3826 8.82715 10.2071 8.99943 9.99399 9.1116ZM17.4865 3C17.1611 2.99986 16.8443 3.10462 16.5831 3.29873C16.3219 3.49284 16.1302 3.76597 16.0365 4.0776L13.9765 10.9244C13.8301 11.4108 13.8743 11.9347 14.1001 12.3897C14.3258 12.8447 14.7162 13.1967 15.1921 13.3744L16.3046 13.7898L15.7046 19.1641C15.6802 19.3872 15.7015 19.613 15.7672 19.8276C15.8329 20.0422 15.9416 20.2412 16.0868 20.4124C16.2319 20.5836 16.4104 20.7234 16.6114 20.8234C16.8123 20.9234 17.0315 20.9814 17.2556 20.9938C17.4797 21.0063 17.704 20.973 17.9148 20.8959C18.1256 20.8188 18.3185 20.6997 18.4817 20.5456C18.645 20.3915 18.7751 20.2058 18.8642 19.9998C18.9533 19.7938 18.9995 19.5718 19 19.3474V4.5136C19 4.11219 18.8405 3.72721 18.5567 3.44336C18.2729 3.15951 17.8879 3.00003 17.4865 3ZM18.5 19.3474C18.4997 19.653 18.3781 19.946 18.162 20.162C17.9459 20.3781 17.653 20.4997 17.3474 20.5C17.1853 20.5 17.025 20.4658 16.877 20.3996C16.7291 20.3334 16.5967 20.2368 16.4886 20.116C16.3805 19.9952 16.2991 19.853 16.2497 19.6986C16.2003 19.5442 16.1841 19.3811 16.202 19.22L16.802 13.8457L16.8452 13.4581L16.4799 13.3217L15.3674 12.9063C15.011 12.7724 14.7188 12.5083 14.5495 12.1673C14.3803 11.8263 14.3468 11.4338 14.4557 11.069L16.5157 4.2221C16.5857 3.9891 16.7372 3.78907 16.9425 3.65853C17.1478 3.52798 17.3933 3.47564 17.634 3.51106C17.8747 3.54648 18.0946 3.6673 18.2536 3.85145C18.4126 4.03561 18.5001 4.27081 18.5 4.5141V19.3474Z" fill="black"/>
</svg>
