<svg width="24" height="24" viewBox="0 0 24 24" fill="none" xmlns="http://www.w3.org/2000/svg">
<path d="M3 3V21H21V3H3ZM12.28 16.7484L12 17L11.72 16.7484C11.578 16.6207 8.241 13.5847 8.241 10.7584C8.24612 9.7649 8.64438 8.81384 9.34871 8.11314C10.053 7.41244 11.0061 7.01909 11.9997 7.01909C12.9932 7.01909 13.9463 7.41244 14.6506 8.11314C15.3549 8.81384 15.7532 9.7649 15.7583 10.7584C15.7589 13.5847 12.4218 16.6207 12.28 16.7484Z" fill="black"/>
<path d="M12 12.35C12.7456 12.35 13.35 11.7456 13.35 11C13.35 10.2544 12.7456 9.65002 12 9.65002C11.2544 9.65002 10.65 10.2544 10.65 11C10.65 11.7456 11.2544 12.35 12 12.35Z" fill="black"/>
</svg>
