<svg width="24" height="24" viewBox="0 0 24 24" fill="none" xmlns="http://www.w3.org/2000/svg">
<path d="M16 5V4C16 3.46957 15.7893 2.96086 15.4142 2.58579C15.0391 2.21071 14.5304 2 14 2H10C9.46957 2 8.96086 2.21071 8.58579 2.58579C8.21071 2.96086 8 3.46957 8 4V5H2V21H22V5H16ZM9 4C9.00029 3.73487 9.10574 3.48069 9.29321 3.29321C9.48069 3.10574 9.73487 3.00029 10 3H14C14.2651 3.00029 14.5193 3.10574 14.7068 3.29321C14.8943 3.48069 14.9997 3.73487 15 4V5H9V4ZM3 6H21V9C20.9994 9.53025 20.7885 10.0386 20.4135 10.4135C20.0386 10.7885 19.5302 10.9994 19 11H5C4.46975 10.9994 3.9614 10.7885 3.58646 10.4135C3.21152 10.0386 3.00061 9.53025 3 9V6ZM3 20V11.2214C3.54669 11.7205 4.25972 11.9981 5 12H11.5V14H12.5V12H19C19.7403 11.9981 20.4533 11.7205 21 11.2214V20H3Z" fill="black"/>
</svg>
