<svg width="24" height="24" viewBox="0 0 24 24" fill="none" xmlns="http://www.w3.org/2000/svg">
<path d="M12 2C10.0222 2 8.08879 2.58649 6.4443 3.6853C4.79981 4.78412 3.51809 6.3459 2.76121 8.17317C2.00433 10.0004 1.8063 12.0111 2.19215 13.9509C2.578 15.8907 3.53041 17.6725 4.92894 19.0711C6.32746 20.4696 8.10929 21.422 10.0491 21.8079C11.9889 22.1937 13.9996 21.9957 15.8268 21.2388C17.6541 20.4819 19.2159 19.2002 20.3147 17.5557C21.4135 15.9112 22 13.9778 22 12C22 10.6868 21.7413 9.38642 21.2388 8.17317C20.7363 6.95991 19.9997 5.85752 19.0711 4.92893C18.1425 4.00035 17.0401 3.26375 15.8268 2.7612C14.6136 2.25866 13.3132 2 12 2ZM21.5 12C21.5013 14.2269 20.7165 16.3829 19.2839 18.0878H18.5C18.2349 18.0875 17.9807 17.9821 17.7932 17.7946C17.6057 17.6071 17.5003 17.3529 17.5 17.0878V15.5C17.5 15.2348 17.3946 14.9804 17.2071 14.7929C17.0196 14.6054 16.7652 14.5 16.5 14.5H15.5C15.2349 14.4997 14.9807 14.3943 14.7932 14.2068C14.6057 14.0193 14.5003 13.7651 14.5 13.5V12.5C14.5006 11.9698 14.7115 11.4614 15.0865 11.0865C15.4614 10.7115 15.9698 10.5006 16.5 10.5H19.3126C19.5778 10.5 19.8322 10.3946 20.0197 10.2071C20.2072 10.0196 20.3126 9.76522 20.3126 9.5C20.3126 9.23478 20.2072 8.98043 20.0197 8.79289C19.8322 8.60536 19.5778 8.5 19.3126 8.5H15.1426C14.9818 8.50005 14.8234 8.46133 14.6808 8.38712C14.5381 8.31291 14.4155 8.2054 14.3232 8.07371C14.231 7.94202 14.1719 7.79002 14.1509 7.63062C14.1299 7.47121 14.1476 7.30909 14.2026 7.158L14.8108 5.4869C14.9166 5.19807 15.1085 4.94863 15.3604 4.77217C15.6124 4.59571 15.9124 4.50072 16.22 4.5H17.81C18.9573 5.38499 19.8865 6.52121 20.5262 7.82136C21.1659 9.12152 21.499 10.551 21.5 12ZM4.5546 17.8824C3.26296 16.2554 2.54386 14.2478 2.5087 12.1707L4.5787 14.239L4.5546 17.8824ZM5.0507 18.4559L5.0791 14.2423L5.0805 14.0331L4.9325 13.8852L2.5262 11.4814C2.64915 9.15631 3.62464 6.95808 5.2662 5.3069H7.899C8.14018 5.30683 8.37782 5.36491 8.59177 5.47622C8.80572 5.58754 8.98968 5.7488 9.12804 5.94634C9.26641 6.14388 9.3551 6.37186 9.3866 6.61098C9.41811 6.85009 9.39149 7.09327 9.309 7.3199L8.3416 9.9779C8.30632 10.0742 8.24234 10.1574 8.1583 10.2162C8.07425 10.2751 7.97419 10.3067 7.8716 10.3069H4.7824C4.51719 10.3069 4.26283 10.4123 4.0753 10.5998C3.88776 10.7873 3.7824 11.0417 3.7824 11.3069C3.7824 11.5721 3.88776 11.8265 4.0753 12.014C4.26283 12.2015 4.51719 12.3069 4.7824 12.3069H8.7811C9.02224 12.3069 9.25982 12.3651 9.4737 12.4764C9.68759 12.5877 9.87148 12.749 10.0098 12.9465C10.1481 13.1441 10.2367 13.372 10.2682 13.6111C10.2997 13.8502 10.2731 14.0933 10.1906 14.3199L8.9742 17.6619C8.79779 18.1434 8.47801 18.5592 8.05797 18.8534C7.63792 19.1475 7.13779 19.3058 6.625 19.3069H5.9374C5.62392 19.0425 5.32775 18.7583 5.0507 18.4559ZM12 21.5C10.0695 21.5009 8.18504 20.91 6.6007 19.8069H6.625C7.24067 19.8069 7.84144 19.6175 8.34576 19.2643C8.85008 18.9112 9.23355 18.4114 9.4441 17.8329L10.6605 14.4909C10.7705 14.1888 10.806 13.8646 10.764 13.5458C10.722 13.227 10.6038 12.9231 10.4194 12.6597C10.235 12.3964 9.98978 12.1813 9.70459 12.0329C9.4194 11.8844 9.10262 11.8069 8.7811 11.8069H4.7824C4.6498 11.8069 4.52262 11.7542 4.42885 11.6605C4.33508 11.5667 4.2824 11.4395 4.2824 11.3069C4.2824 11.1743 4.33508 11.0471 4.42885 10.9533C4.52262 10.8596 4.6498 10.8069 4.7824 10.8069H7.8713C8.07658 10.807 8.2769 10.7438 8.44507 10.6261C8.61323 10.5084 8.7411 10.3418 8.8113 10.1489L9.7787 7.4909C9.88867 7.18875 9.92417 6.86453 9.88218 6.54574C9.84019 6.22695 9.72196 5.92298 9.53751 5.65961C9.35306 5.39623 9.10782 5.18121 8.82259 5.03277C8.53736 4.88433 8.22055 4.80685 7.899 4.8069H5.8123C7.35435 3.47043 9.28787 2.66948 11.3233 2.52402C13.3587 2.37855 15.3865 2.8964 17.1029 4H16.22C15.8096 4 15.409 4.12628 15.0728 4.36171C14.7366 4.59713 14.481 4.9303 14.3406 5.316L13.7324 6.9869C13.6499 7.21353 13.6233 7.45671 13.6548 7.69583C13.6862 7.93495 13.7749 8.16294 13.9133 8.36049C14.0516 8.55804 14.2356 8.71932 14.4495 8.83064C14.6635 8.94197 14.9011 9.00006 15.1423 9H19.3123C19.4449 9 19.5721 9.05268 19.6659 9.14645C19.7596 9.24021 19.8123 9.36739 19.8123 9.5C19.8123 9.63261 19.7596 9.75979 19.6659 9.85355C19.5721 9.94732 19.4449 10 19.3123 10H16.5C15.837 10 15.2011 10.2634 14.7322 10.7322C14.2634 11.2011 14 11.837 14 12.5V13.5C14 13.8978 14.158 14.2794 14.4393 14.5607C14.7206 14.842 15.1022 15 15.5 15H16.5C16.6326 15 16.7598 15.0527 16.8536 15.1464C16.9473 15.2402 17 15.3674 17 15.5V17.0878C17 17.4856 17.158 17.8672 17.4393 18.1485C17.7206 18.4298 18.1022 18.5878 18.5 18.5878H18.8293C17.946 19.5084 16.8857 20.2409 15.7121 20.7414C14.5385 21.2418 13.2758 21.4999 12 21.5Z" fill="black"/>
</svg>
