<svg width="24" height="24" viewBox="0 0 24 24" fill="none" xmlns="http://www.w3.org/2000/svg">
<path d="M6.5 2C5.30653 2 4.16193 2.47411 3.31802 3.31802C2.47411 4.16193 2 5.30653 2 6.5V10.5H11V6.5C11 5.30653 10.5259 4.16193 9.68198 3.31802C8.83807 2.47411 7.69347 2 6.5 2ZM2 15.5C2 16.6935 2.47411 17.8381 3.31802 18.682C4.16193 19.5259 5.30653 20 6.5 20C7.69347 20 8.83807 19.5259 9.68198 18.682C10.5259 17.8381 11 16.6935 11 15.5V11.5H2V15.5ZM14.318 12.318C13.5389 13.1001 13.0757 14.1422 13.017 15.2446C12.9583 16.347 13.3083 17.4323 14 18.2927L20.2927 12C19.4323 11.3083 18.347 10.9583 17.2446 11.017C16.1422 11.0757 15.1001 11.5389 14.318 12.318ZM21 12.7072L14.7073 19C15.5668 19.6941 16.6527 20.0457 17.7559 19.9871C18.8591 19.9285 19.9016 19.4639 20.6828 18.6827C21.464 17.9015 21.9286 16.859 21.9871 15.7558C22.0457 14.6526 21.6941 13.5667 21 12.7072Z" fill="black"/>
</svg>
