<svg width="24" height="24" viewBox="0 0 24 24" fill="none" xmlns="http://www.w3.org/2000/svg">
<path d="M18.3333 3H6.33331C5.53793 3.00087 4.77538 3.31722 4.21296 3.87964C3.65054 4.44206 3.33419 5.20462 3.33331 6V18C3.33419 18.7954 3.65054 19.5579 4.21296 20.1204C4.77538 20.6828 5.53793 20.9991 6.33331 21H18.3333C19.1287 20.9991 19.8912 20.6828 20.4537 20.1204C21.0161 19.5579 21.3324 18.7954 21.3333 18V6C21.3324 5.20462 21.0161 4.44206 20.4537 3.87964C19.8912 3.31722 19.1287 3.00087 18.3333 3ZM20.3333 18C20.3327 18.5302 20.1218 19.0386 19.7469 19.4135C19.3719 19.7885 18.8636 19.9994 18.3333 20H6.33331C5.80307 19.9994 5.29471 19.7885 4.91977 19.4135C4.54483 19.0386 4.33392 18.5302 4.33331 18V6C4.33392 5.46975 4.54483 4.9614 4.91977 4.58646C5.29471 4.21152 5.80307 4.00061 6.33331 4H18.3333C18.8636 4.00061 19.3719 4.21152 19.7469 4.58646C20.1218 4.9614 20.3327 5.46975 20.3333 6V18ZM16.3333 7.25C16.185 7.25 16.04 7.29399 15.9166 7.3764C15.7933 7.45881 15.6972 7.57594 15.6404 7.71299C15.5836 7.85003 15.5688 8.00083 15.5977 8.14632C15.6267 8.2918 15.6981 8.42544 15.803 8.53033C15.9079 8.63522 16.0415 8.70665 16.187 8.73559C16.3325 8.76453 16.4833 8.74967 16.6203 8.69291C16.7574 8.63614 16.8745 8.54001 16.9569 8.41668C17.0393 8.29334 17.0833 8.14834 17.0833 8C17.0833 7.80109 17.0043 7.61032 16.8636 7.46967C16.723 7.32902 16.5322 7.25 16.3333 7.25ZM12.3333 11.25C12.185 11.25 12.04 11.294 11.9166 11.3764C11.7933 11.4588 11.6972 11.5759 11.6404 11.713C11.5836 11.85 11.5688 12.0008 11.5977 12.1463C11.6267 12.2918 11.6981 12.4254 11.803 12.5303C11.9079 12.6352 12.0415 12.7066 12.187 12.7356C12.3325 12.7645 12.4833 12.7497 12.6203 12.6929C12.7574 12.6361 12.8745 12.54 12.9569 12.4167C13.0393 12.2933 13.0833 12.1483 13.0833 12C13.0833 11.9015 13.0639 11.804 13.0262 11.713C12.9885 11.622 12.9333 11.5393 12.8636 11.4697C12.794 11.4 12.7113 11.3448 12.6203 11.3071C12.5293 11.2694 12.4318 11.25 12.3333 11.25ZM8.33331 7.25C8.18498 7.25 8.03997 7.29399 7.91664 7.3764C7.7933 7.45881 7.69717 7.57594 7.6404 7.71299C7.58364 7.85003 7.56879 8.00083 7.59772 8.14632C7.62666 8.2918 7.69809 8.42544 7.80298 8.53033C7.90787 8.63522 8.04151 8.70665 8.187 8.73559C8.33248 8.76453 8.48328 8.74967 8.62033 8.69291C8.75737 8.63614 8.8745 8.54001 8.95692 8.41668C9.03933 8.29334 9.08331 8.14834 9.08331 8C9.08331 7.80109 9.0043 7.61032 8.86364 7.46967C8.72299 7.32902 8.53222 7.25 8.33331 7.25ZM16.3333 15.25C16.185 15.25 16.04 15.294 15.9166 15.3764C15.7933 15.4588 15.6972 15.5759 15.6404 15.713C15.5836 15.85 15.5688 16.0008 15.5977 16.1463C15.6267 16.2918 15.6981 16.4254 15.803 16.5303C15.9079 16.6352 16.0415 16.7066 16.187 16.7356C16.3325 16.7645 16.4833 16.7497 16.6203 16.6929C16.7574 16.6361 16.8745 16.54 16.9569 16.4167C17.0393 16.2933 17.0833 16.1483 17.0833 16C17.0833 15.8011 17.0043 15.6103 16.8636 15.4697C16.723 15.329 16.5322 15.25 16.3333 15.25ZM8.33331 15.25C8.18498 15.25 8.03997 15.294 7.91664 15.3764C7.7933 15.4588 7.69717 15.5759 7.6404 15.713C7.58364 15.85 7.56879 16.0008 7.59772 16.1463C7.62666 16.2918 7.69809 16.4254 7.80298 16.5303C7.90787 16.6352 8.04151 16.7066 8.187 16.7356C8.33248 16.7645 8.48328 16.7497 8.62033 16.6929C8.75737 16.6361 8.8745 16.54 8.95692 16.4167C9.03933 16.2933 9.08331 16.1483 9.08331 16C9.08331 15.8011 9.0043 15.6103 8.86364 15.4697C8.72299 15.329 8.53222 15.25 8.33331 15.25Z" fill="black"/>
</svg>
