<svg width="24" height="24" viewBox="0 0 24 24" fill="none" xmlns="http://www.w3.org/2000/svg">
<path d="M12 2C10.0222 2 8.08879 2.58649 6.4443 3.6853C4.79981 4.78412 3.51809 6.3459 2.76121 8.17317C2.00433 10.0004 1.8063 12.0111 2.19215 13.9509C2.578 15.8907 3.53041 17.6725 4.92894 19.0711C6.32746 20.4696 8.10929 21.422 10.0491 21.8079C11.9889 22.1937 13.9996 21.9957 15.8268 21.2388C17.6541 20.4819 19.2159 19.2002 20.3147 17.5557C21.4135 15.9112 22 13.9778 22 12C22 10.6868 21.7413 9.38642 21.2388 8.17317C20.7363 6.95991 19.9997 5.85752 19.0711 4.92893C18.1425 4.00035 17.0401 3.26375 15.8268 2.7612C14.6136 2.25866 13.3132 2 12 2ZM12 21.5C10.5594 21.4992 9.1379 21.17 7.84353 20.5376C6.54916 19.9051 5.41596 18.986 4.53 17.85C5.02474 17.6694 5.43991 17.3201 5.70239 16.8635C5.96487 16.4069 6.05783 15.8724 5.9649 15.354C5.87196 14.8356 5.5991 14.3666 5.19436 14.0296C4.78962 13.6926 4.27896 13.5093 3.7523 13.5118C3.3751 13.5203 3.0058 13.6216 2.6771 13.8069C2.27454 11.7445 2.56785 9.60688 3.51103 7.72916C4.4542 5.85144 5.99391 4.33985 7.8887 3.43144C9.78348 2.52303 11.9262 2.26918 13.9808 2.70969C16.0354 3.1502 17.8857 4.26015 19.2415 5.8655L18.3495 8.3155C18.2394 8.61765 18.2039 8.94188 18.2458 9.26071C18.2877 9.57954 18.4059 9.88355 18.5903 10.147C18.7747 10.4104 19.0199 10.6255 19.3052 10.774C19.5904 10.9225 19.9072 11 20.2288 11H21.4463C21.5878 12.3247 21.4489 13.6643 21.0386 14.9318C20.6282 16.1992 19.9557 17.3661 19.0647 18.3565C18.1737 19.347 17.0841 20.1387 15.867 20.6803C14.6498 21.2219 13.3322 21.5012 12 21.5ZM14.6981 11.8069H9.7647C9.49949 11.8069 9.24513 11.7015 9.0576 11.514C8.87006 11.3265 8.7647 11.0721 8.7647 10.8069C8.7647 10.5417 8.87006 10.2873 9.0576 10.0998C9.24513 9.91226 9.49949 9.8069 9.7647 9.8069H14.2352C14.4405 9.80696 14.6408 9.74385 14.809 9.62613C14.9771 9.50841 15.105 9.3418 15.1752 9.1489L15.7787 7.4909C15.8887 7.18877 15.9242 6.86458 15.8822 6.54582C15.8402 6.22705 15.722 5.9231 15.5376 5.65973C15.3532 5.39636 15.108 5.18133 14.8228 5.03287C14.5376 4.88441 14.2208 4.8069 13.8993 4.8069H6.9062C6.6675 4.80941 6.43943 4.90599 6.27152 5.07567C6.10361 5.24536 6.00942 5.47443 6.00942 5.71315C6.00942 5.95187 6.10361 6.18094 6.27152 6.35063C6.43943 6.52031 6.6675 6.61689 6.9062 6.6194H7C7.26522 6.6194 7.51957 6.72476 7.70711 6.91229C7.89465 7.09983 8 7.35418 8 7.6194V10.4214C7.99996 10.8157 8.07766 11.2062 8.22865 11.5705C8.37965 11.9348 8.60099 12.2657 8.88 12.5444L11.5787 15.239L11.548 19.8069H13.2363C13.6463 19.8069 14.0464 19.6809 14.3824 19.4459C14.7184 19.2109 14.9741 18.8783 15.1148 18.4932L16.5762 14.4932C16.6866 14.191 16.7225 13.8667 16.6808 13.5478C16.6391 13.2288 16.5211 12.9246 16.3368 12.6609C16.1524 12.3973 15.9072 12.182 15.622 12.0333C15.3367 11.8846 15.0198 11.807 14.6981 11.8069Z" fill="black"/>
</svg>
