<svg width="24" height="24" viewBox="0 0 24 24" fill="none" xmlns="http://www.w3.org/2000/svg">
<path d="M6.5 2C5.30653 2 4.16193 2.47411 3.31802 3.31802C2.47411 4.16193 2 5.30653 2 6.5V10.25H11V6.5C11 5.30653 10.5259 4.16193 9.68198 3.31802C8.83807 2.47411 7.69347 2 6.5 2ZM2 15.5C2 16.6935 2.47411 17.8381 3.31802 18.682C4.16193 19.5259 5.30653 20 6.5 20C7.69347 20 8.83807 19.5259 9.68198 18.682C10.5259 17.8381 11 16.6935 11 15.5V11.75H2V15.5ZM21.1589 12.9018L14.9019 19.1589C15.7658 19.7766 16.8209 20.0676 17.8794 19.9803C18.9378 19.8929 19.9309 19.4328 20.6819 18.6818C21.4328 17.9308 21.893 16.9377 21.9803 15.8793C22.0677 14.8208 21.7766 13.7657 21.1589 12.9018ZM14.318 12.318C13.5682 13.0696 13.1089 14.0626 13.0216 15.1207C12.9343 16.1788 13.2247 17.2336 13.8412 18.098L20.0981 11.841C19.2337 11.2245 18.1789 10.9341 17.1207 11.0214C16.0626 11.1088 15.0696 11.5681 14.318 12.318Z" fill="black"/>
</svg>
