<svg width="24" height="24" viewBox="0 0 24 24" fill="none" xmlns="http://www.w3.org/2000/svg">
<path d="M12 3.03998L0 9.99998L5 12.9V16.3094C5 16.836 5.13861 17.3533 5.40192 17.8094C5.66522 18.2655 6.04394 18.6442 6.5 18.9075L12 22.0829L17.5 18.9075C17.9561 18.6442 18.3348 18.2655 18.5981 17.8094C18.8614 17.3533 19 16.836 19 16.3094V12.9L23.5 10.29V17H24V9.99998L12 3.03998ZM12 3.61798L22.5724 9.74998H12V10.25H22.5724L12 16.382L0.9966 9.99998L12 3.61798ZM18.5 16.3094C18.4993 16.7481 18.3835 17.1789 18.1641 17.5588C17.9448 17.9387 17.6296 18.2544 17.25 18.4744L12 21.5056L6.75 18.4744C6.37042 18.2544 6.05521 17.9387 5.83586 17.5588C5.61651 17.1789 5.5007 16.7481 5.5 16.3094V13.19L12 16.96L18.5 13.19V16.3094Z" fill="black"/>
</svg>
