<svg width="24" height="24" viewBox="0 0 24 24" fill="none" xmlns="http://www.w3.org/2000/svg">
<path d="M12 2C10.0222 2 8.08879 2.58649 6.4443 3.6853C4.79981 4.78412 3.51809 6.3459 2.76121 8.17317C2.00433 10.0004 1.8063 12.0111 2.19215 13.9509C2.578 15.8907 3.53041 17.6725 4.92894 19.0711C6.32746 20.4696 8.10929 21.422 10.0491 21.8079C11.9889 22.1937 13.9996 21.9957 15.8268 21.2388C17.6541 20.4819 19.2159 19.2002 20.3147 17.5557C21.4135 15.9112 22 13.9778 22 12C22 10.6868 21.7413 9.38642 21.2388 8.17317C20.7363 6.95991 19.9997 5.85752 19.0711 4.92893C18.1425 4.00035 17.0401 3.26375 15.8268 2.7612C14.6136 2.25866 13.3132 2 12 2ZM19.3547 6.83C20.0423 7.80301 20.5288 8.90352 20.7855 10.067H19.7C19.5285 10.067 19.3596 10.0256 19.2075 9.94645C19.0554 9.86726 18.9246 9.75256 18.8262 9.61209C18.7279 9.47161 18.6648 9.30949 18.6425 9.13947C18.6201 8.96945 18.639 8.79654 18.6977 8.6354L19.3547 6.83ZM4.506 16.9739C3.9476 16.1312 3.53589 15.2001 3.2883 14.22C3.50805 14.1068 3.75115 14.0465 3.9983 14.0437H4.002C4.35833 14.0427 4.70347 14.168 4.97624 14.3973C5.24901 14.6265 5.43178 14.945 5.49214 15.2962C5.5525 15.6473 5.48655 16.0085 5.30598 16.3157C5.12541 16.6229 4.8419 16.8562 4.5057 16.9743L4.506 16.9739ZM12 21C10.676 21.0002 9.36823 20.7077 8.17041 20.1435C6.97259 19.5792 5.91428 18.7573 5.0712 17.7363C5.56845 17.4962 5.96932 17.0943 6.20799 16.5964C6.44666 16.0984 6.50896 15.5342 6.38466 14.9962C6.26036 14.4582 5.95684 13.9785 5.52394 13.6357C5.09103 13.293 4.55446 13.1076 4.0023 13.11H3.9986C3.69158 13.1121 3.38769 13.1719 3.1028 13.2864C2.82251 11.3777 3.16425 9.42947 4.07742 7.73012C4.9906 6.03076 6.42668 4.6706 8.17308 3.85097C9.91948 3.03135 11.8834 2.79583 13.7741 3.17927C15.6647 3.56272 17.3817 4.54475 18.6708 5.98L17.8208 8.316C17.7109 8.61811 17.6754 8.94228 17.7173 9.26103C17.7593 9.57979 17.8775 9.88372 18.0619 10.1471C18.2463 10.4105 18.4914 10.6255 18.7766 10.774C19.0617 10.9224 19.3785 11 19.7 11H20.941C21.0862 12.259 20.963 13.5344 20.5795 14.7424C20.1961 15.9503 19.5611 17.0633 18.7164 18.008C17.8717 18.9528 16.8364 19.7079 15.6787 20.2236C14.5211 20.7393 13.2673 21.0039 12 21ZM14.7811 11.74H11.6094C11.4947 11.7398 11.3847 11.6943 11.3035 11.6132C11.2223 11.5322 11.1765 11.4223 11.1761 11.3076C11.176 11.2506 11.1871 11.1942 11.2088 11.1415C11.2305 11.0888 11.2624 11.0409 11.3027 11.0006C11.3429 10.9602 11.3907 10.9282 11.4434 10.9064C11.496 10.8845 11.5524 10.8733 11.6094 10.8733H13.8713C14.09 10.8728 14.3032 10.8054 14.4824 10.6801C14.6615 10.5547 14.798 10.3775 14.8734 10.1723L15.8411 7.5135C15.9547 7.20129 15.9914 6.86629 15.948 6.5369C15.9047 6.2075 15.7825 5.89341 15.5919 5.62126C15.4014 5.34911 15.148 5.12691 14.8533 4.9735C14.5586 4.82009 14.2312 4.74 13.899 4.74H7.7037C7.4607 4.74 7.22601 4.82848 7.0435 4.98891C6.86098 5.14934 6.74313 5.37075 6.71196 5.61174C6.68079 5.85274 6.73844 6.09683 6.87414 6.29842C7.00984 6.5 7.2143 6.64528 7.4493 6.7071C7.58931 6.7454 7.7127 6.82894 7.80025 6.94471C7.8878 7.06048 7.93458 7.20196 7.9333 7.3471V10.4214C7.93764 11.2202 8.24958 11.9866 8.8043 12.5614L8.8782 12.6362L10.5073 14.2616L10.4836 18.5345C10.4829 18.6663 10.5082 18.7969 10.5581 18.9189C10.6081 19.0408 10.6816 19.1517 10.7745 19.2452C10.8675 19.3386 10.978 19.4128 11.0996 19.4634C11.2213 19.514 11.3518 19.54 11.4836 19.54H12.7463C13.3753 19.5387 13.9888 19.3445 14.5041 18.9837C15.0194 18.6229 15.4117 18.1128 15.6281 17.5222L16.5812 14.9034C16.6055 14.8352 16.7078 14.5264 16.7457 14.3951C16.7581 14.3524 16.7676 14.309 16.7742 14.2651C16.8273 13.9423 16.8112 13.6119 16.727 13.2958C16.6427 12.9797 16.4923 12.6852 16.2856 12.4316C16.1017 12.2121 15.8713 12.0362 15.6111 11.9166C15.3509 11.797 15.0674 11.7367 14.7811 11.74ZM15.7851 14.1172C15.7514 14.2337 15.6606 14.5072 15.6415 14.5614L14.6884 17.18C14.5426 17.5781 14.2782 17.9219 13.931 18.165C13.5837 18.4082 13.1702 18.5391 12.7463 18.54H11.4836L11.5096 13.849L9.5883 11.9323L9.53 11.8731C9.15198 11.4839 8.93842 10.964 8.9337 10.4214V7.3471C8.93511 6.98095 8.81518 6.62466 8.59264 6.33389C8.3701 6.04313 8.05751 5.83429 7.7037 5.74H13.899C14.0705 5.74 14.2394 5.78134 14.3916 5.86052C14.5437 5.93969 14.6744 6.05438 14.7728 6.19484C14.8712 6.33531 14.9342 6.49742 14.9566 6.66744C14.979 6.83745 14.96 7.01036 14.9014 7.1715L13.934 9.83C13.9293 9.84283 13.9207 9.8539 13.9095 9.86173C13.8983 9.86955 13.885 9.87377 13.8713 9.8738H11.6094C11.2313 9.87696 10.8698 10.0294 10.6036 10.2978C10.3374 10.5663 10.188 10.9291 10.188 11.3071C10.188 11.6852 10.3374 12.048 10.6036 12.3165C10.8698 12.5849 11.2313 12.7373 11.6094 12.7405H14.7811C14.9219 12.7364 15.0617 12.7645 15.19 12.8227C15.3182 12.8809 15.4315 12.9676 15.5211 13.0762C15.6354 13.2217 15.718 13.3895 15.7635 13.5688C15.809 13.7482 15.8163 13.935 15.7851 14.1174V14.1172Z" fill="black"/>
</svg>
