<svg width="24" height="24" viewBox="0 0 24 24" fill="none" xmlns="http://www.w3.org/2000/svg">
<path d="M20.4854 3.51456C18.1992 1.22796 14.76 0.946764 12.8193 2.88866C10.6953 5.01226 10.9578 9.53367 11.1262 11.126C9.53709 10.956 5.02179 10.686 2.88869 12.8188C0.94869 14.7598 1.22869 18.1988 3.51459 20.4854C4.67384 21.6792 6.25716 22.3677 7.92089 22.4014C8.52266 22.4132 9.12077 22.3052 9.68044 22.0837C10.2401 21.8623 10.7501 21.5317 11.1809 21.1114C13.3048 18.988 13.0424 14.4668 12.874 12.8743C13.5728 12.9488 14.275 12.9864 14.9777 12.9869C16.9826 12.9869 19.6262 12.6661 21.1115 11.1813C23.0518 9.23996 22.7715 5.80126 20.4854 3.51456ZM10.12 20.0508C8.76359 21.4067 6.27719 21.1255 4.57509 19.4248C2.87299 17.7241 2.59269 15.2354 3.94909 13.8794C5.01449 12.814 7.17279 12.5117 9.04679 12.5117C9.81325 12.5108 10.5789 12.5607 11.3388 12.6611C11.6016 14.59 11.6738 18.4976 10.12 20.0508ZM20.0507 10.1208C18.4901 11.6818 14.5858 11.6042 12.6607 11.3391C12.398 9.41036 12.3258 5.50256 13.8795 3.94906C15.2359 2.59216 17.7213 2.87336 19.4244 4.57506C21.126 6.27686 21.4072 8.76456 20.0508 10.1206L20.0507 10.1208Z" fill="black"/>
</svg>
