<svg width="24" height="24" viewBox="0 0 24 24" fill="none" xmlns="http://www.w3.org/2000/svg">
<g clip-path="url(#clip0)">
<path d="M12 0C9.61557 0.0027525 7.32959 0.951184 5.64354 2.63723C3.95749 4.32328 3.00905 6.60927 3.0063 8.9937C3.0063 15.7563 10.9912 23.021 11.3311 23.3267L12 23.9287L12.6689 23.3267C13.0089 23.021 20.9941 15.7567 20.9941 8.9937C20.9913 6.60922 20.0428 4.32322 18.3566 2.63718C16.6705 0.951136 14.3845 0.00272589 12 0V0ZM12 22.5833C11.92 22.5114 4.0065 15.3207 4.0065 8.9939C4.0065 6.87379 4.84871 4.84051 6.34786 3.34136C7.84701 1.84221 9.88029 1 12.0004 1C14.1205 1 16.1538 1.84221 17.6529 3.34136C19.1521 4.84051 19.9943 6.87379 19.9943 8.9939C19.9941 15.3193 12.0821 22.51 12 22.5833ZM13.1176 7.6271L12 4.1875L10.8824 7.6275H7.2657L10.1917 9.7534L9.074 13.1934L12 11.0668L14.926 13.1927L13.8083 9.7527L16.7343 7.6268L13.1176 7.6271ZM13.0475 10L13.4043 11.0981L12.47 10.42L12 10.078L11.53 10.4196L10.5959 11.0983L10.9525 10L11.1325 9.4472L10.6625 9.1056L9.7284 8.4269H11.4642L11.6442 7.8741L12 6.7763L12.3568 7.8743L12.5368 8.4271H14.2726L13.3385 9.1058L12.8685 9.4474L13.0475 10Z" fill="black"/>
</g>
<defs>
<clipPath id="clip0">
<rect width="24" height="24" fill="white"/>
</clipPath>
</defs>
</svg>
