<svg width="24" height="24" viewBox="0 0 24 24" fill="none" xmlns="http://www.w3.org/2000/svg">
<path d="M6.5 2C5.30653 2 4.16193 2.47411 3.31802 3.31802C2.47411 4.16193 2 5.30653 2 6.5V10.75H11V6.5C11 5.30653 10.5259 4.16193 9.68198 3.31802C8.83807 2.47411 7.69347 2 6.5 2ZM2 15.5C2 16.6935 2.47411 17.8381 3.31802 18.682C4.16193 19.5259 5.30653 20 6.5 20C7.69347 20 8.83807 19.5259 9.68198 18.682C10.5259 17.8381 11 16.6935 11 15.5V11.25H2V15.5ZM14.318 12.318C13.5076 13.131 13.0395 14.2235 13.0099 15.3711C12.9804 16.5186 13.3916 17.6338 14.1591 18.4874L20.4873 12.1591C19.6337 11.3916 18.5185 10.9804 17.371 11.0099C16.2235 11.0395 15.1309 11.5076 14.318 12.318ZM20.8409 12.5126L14.5126 18.8409C15.3654 19.6102 16.481 20.0227 17.6291 19.9932C18.7772 19.9637 19.8702 19.4944 20.6823 18.6823C21.4944 17.8702 21.9637 16.7772 21.9932 15.6291C22.0227 14.481 21.6102 13.3654 20.8409 12.5126Z" fill="black"/>
</svg>
