<svg width="24" height="24" viewBox="0 0 24 24" fill="none" xmlns="http://www.w3.org/2000/svg">
<path d="M22.1855 17.3491C21.7939 17.6729 21.3789 17.9829 20.9521 18.271C20.7488 18.4088 20.5249 18.53 20.311 18.6603L18.5079 14.5619C18.173 13.8004 18 12.9777 18 12.1458V8.875H19.549C19.9251 8.88284 20.2964 8.78954 20.6241 8.60483C20.9519 8.42013 21.224 8.15081 21.4121 7.825C21.5637 7.55164 21.6503 7.24703 21.6651 6.93481C21.68 6.62258 21.6228 6.31112 21.4979 6.02457C21.3731 5.73802 21.1839 5.48408 20.945 5.28244C20.7062 5.08079 20.4241 4.93686 20.1207 4.8618L18 4.2642V2H17.0393C16.2389 1.99999 15.4662 2.29228 14.8662 2.82194C14.2662 3.3516 13.8803 4.08215 13.7811 4.8763L13.1406 10L6.83497 10.0005C6.16446 10.0006 5.50844 10.1956 4.94683 10.5619C4.38521 10.9282 3.94224 11.4499 3.67187 12.0635L2.95407 13.6935L3.87007 14.0969L4.58787 12.466C4.72294 12.1647 4.91773 11.894 5.16044 11.6702C5.40316 11.4463 5.68876 11.2741 5.99997 11.1638V12.1458C5.99995 12.9777 5.82699 13.8004 5.49207 14.5619L3.68907 18.66C3.47507 18.53 3.25127 18.4084 3.04787 18.27C2.62107 17.9824 2.20607 17.6724 1.81447 17.3486L1.17767 18.1186C1.59377 18.4629 2.03517 18.7925 2.48767 19.0986C2.93297 19.4004 3.40567 19.687 3.88997 19.9512C4.36997 20.2119 4.86997 20.4531 5.37827 20.6675C5.88907 20.8838 6.41537 21.0762 6.94177 21.2397C7.46817 21.4032 8.01797 21.5454 8.57267 21.6592C9.1308 21.7733 9.69431 21.8594 10.2611 21.917C11.4176 22.0342 12.5831 22.0342 13.7397 21.917C14.3068 21.8593 14.8706 21.7733 15.4291 21.6592C15.9828 21.5454 16.5316 21.4043 17.0591 21.2397C17.5866 21.0751 18.1118 20.8838 18.6226 20.6675C19.1304 20.4531 19.6304 20.2119 20.1109 19.9512C20.5952 19.687 21.0679 19.4004 21.5132 19.0991C21.9653 18.793 22.4067 18.4634 22.8232 18.1191L22.1855 17.3491ZM6.40747 14.9645C6.79941 14.0765 7.00124 13.1164 6.99997 12.1458V11.0005L14.0234 11L14.7734 5C14.8423 4.45473 15.1052 3.95251 15.5141 3.58525C15.923 3.21798 16.4505 3.01022 17 3V5.0215L19.8809 5.8322C20.0362 5.8707 20.1805 5.94466 20.3024 6.04828C20.4243 6.1519 20.5206 6.28236 20.5836 6.42942C20.6467 6.57649 20.6748 6.73616 20.6658 6.89591C20.6568 7.05567 20.6109 7.21116 20.5317 7.3502C20.429 7.51683 20.2839 7.65322 20.1113 7.74542C19.9386 7.83763 19.7446 7.88234 19.549 7.875H17V12.1458C16.9987 13.1165 17.2006 14.0766 17.5927 14.9646L19.4406 19.1646C19.1237 19.3316 18.7986 19.487 18.4692 19.6329L17.2192 16.7915C16.9846 16.2587 16.6001 15.8057 16.1125 15.4876C15.625 15.1695 15.0554 15.0001 14.4733 15H9.52687C8.94466 15.0001 8.37505 15.1695 7.88747 15.4877C7.39989 15.8059 7.0154 16.259 6.78087 16.7919L5.53087 19.6334C5.20147 19.4875 4.87657 19.3319 4.55967 19.165L6.40747 14.9645ZM16.7617 20.2852C16.2646 20.4404 15.749 20.5732 15.2285 20.6802C14.7031 20.7871 14.168 20.8687 13.6377 20.9224C12.5487 21.0327 11.4513 21.0327 10.3623 20.9224C9.83227 20.8687 9.29687 20.7871 8.77227 20.6802C8.25077 20.5732 7.73517 20.4402 7.23807 20.2852C6.97667 20.204 6.72047 20.0967 6.46117 20.0011L7.69597 17.1946C7.8523 16.8393 8.10865 16.5371 8.43376 16.325C8.75887 16.1129 9.13868 16 9.52687 16H14.4733C14.8613 16.0001 15.2409 16.1131 15.5659 16.3252C15.8908 16.5374 16.147 16.8394 16.3033 17.1946L17.5381 20.0011C17.2793 20.0967 17.0231 20.204 16.7617 20.2852Z" fill="black"/>
</svg>
