<svg width="24" height="24" viewBox="0 0 24 24" fill="none" xmlns="http://www.w3.org/2000/svg">
<path d="M6.4 9.85C6.75601 9.85 7.10402 9.74443 7.40003 9.54665C7.69603 9.34886 7.92675 9.06774 8.06298 8.73883C8.19922 8.40992 8.23487 8.048 8.16541 7.69884C8.09596 7.34967 7.92453 7.02894 7.67279 6.77721C7.42106 6.52547 7.10033 6.35404 6.75116 6.28459C6.402 6.21513 6.04008 6.25078 5.71117 6.38702C5.38226 6.52325 5.10114 6.75396 4.90335 7.04997C4.70557 7.34598 4.6 7.69399 4.6 8.05C4.6 8.52739 4.78964 8.98523 5.12721 9.32279C5.46477 9.66036 5.92261 9.85 6.4 9.85ZM2 3V21H22V3H2ZM21.5 20.5H19V18C19 17.2044 18.6839 16.4413 18.1213 15.8787C17.5587 15.3161 16.7956 15 16 15H10V20.5H2.5V12.25H21.5V20.5ZM21.5 11.75H19V9.25C19 8.45435 18.6839 7.69129 18.1213 7.12868C17.5587 6.56607 16.7956 6.25 16 6.25H10V11.75H2.5V3.5H21.5V11.75ZM6.4 18.6C6.75601 18.6 7.10402 18.4944 7.40003 18.2966C7.69603 18.0989 7.92675 17.8177 8.06298 17.4888C8.19922 17.1599 8.23487 16.798 8.16541 16.4488C8.09596 16.0997 7.92453 15.7789 7.67279 15.5272C7.42106 15.2755 7.10033 15.104 6.75116 15.0346C6.402 14.9651 6.04008 15.0008 5.71117 15.137C5.38226 15.2733 5.10114 15.504 4.90335 15.8C4.70557 16.096 4.6 16.444 4.6 16.8C4.6 17.2774 4.78964 17.7352 5.12721 18.0728C5.46477 18.4104 5.92261 18.6 6.4 18.6Z" fill="black"/>
</svg>
