<svg width="24" height="24" viewBox="0 0 24 24" fill="none" xmlns="http://www.w3.org/2000/svg">
<path d="M12 2C10.0222 2 8.08879 2.58649 6.4443 3.6853C4.79981 4.78412 3.51809 6.3459 2.76121 8.17317C2.00433 10.0004 1.8063 12.0111 2.19215 13.9509C2.578 15.8907 3.53041 17.6725 4.92894 19.0711C6.32746 20.4696 8.10929 21.422 10.0491 21.8079C11.9889 22.1937 13.9996 21.9957 15.8268 21.2388C17.6541 20.4819 19.2159 19.2002 20.3147 17.5557C21.4135 15.9112 22 13.9778 22 12C22 10.6868 21.7413 9.38642 21.2388 8.17317C20.7363 6.95991 19.9997 5.85752 19.0711 4.92893C18.1425 4.00035 17.0401 3.26375 15.8268 2.7612C14.6136 2.25866 13.3132 2 12 2ZM5.3109 6H5.9146C6.20634 6 6.48613 6.11589 6.69242 6.32218C6.89871 6.52847 7.0146 6.80826 7.0146 7.1C7.0146 7.39174 6.89871 7.67153 6.69242 7.87782C6.48613 8.08411 6.20634 8.2 5.9146 8.2H3.8531C4.22847 7.39912 4.71967 6.65784 5.3109 6ZM12 21C10.2477 20.9978 8.534 20.4846 7.06885 19.5234C5.6037 18.5621 4.45065 17.1945 3.7509 15.5879H5.1109C5.77395 15.5879 6.40983 15.3245 6.87867 14.8557C7.34751 14.3868 7.6109 13.7509 7.6109 13.0879V9.3333H11C11.7957 9.3333 12.5587 9.01723 13.1213 8.45462C13.6839 7.89201 14 7.12895 14 6.3333V3.2318C16.1573 3.72265 18.058 4.99122 19.339 6.79507C20.62 8.59892 21.1913 10.8115 20.9438 13.0101C20.6964 15.2086 19.6475 17.2388 17.9975 18.7128C16.3476 20.1867 14.2124 21.001 12 21ZM15.3364 11.018H15.291C14.8834 11.0186 14.4801 11.1025 14.1061 11.2646C13.7321 11.4267 13.3951 11.6636 13.1159 11.9606L11.6682 13.5006V17H15.3409C16.1342 16.9994 16.8947 16.6837 17.4552 16.1224C18.0157 15.561 18.3303 14.8 18.3297 14.0068C18.3291 13.2135 18.0134 12.453 17.452 11.8925C16.8907 11.332 16.1297 11.0174 15.3364 11.018Z" fill="black"/>
</svg>
