<svg width="24" height="24" viewBox="0 0 24 24" fill="none" xmlns="http://www.w3.org/2000/svg">
<path d="M12.9736 11.7411L21.7941 9.37768C21.0653 7.28972 19.7222 5.4709 17.9412 4.15993C16.1601 2.84895 14.0243 2.10708 11.8141 2.03168C10.9927 2.03169 10.1748 2.13962 9.38141 2.35268C4.29141 3.71638 1.23601 9.06458 2.14421 14.6427L7.24491 13.276L11.0419 12.2585L13.0851 19.885C9.93259 19.866 6.82001 20.5906 4.00001 22H21.9442C19.8274 20.9421 17.5401 20.2673 15.188 20.007L12.9736 11.7411ZM9.89901 4.28448C9.91922 4.27927 9.94004 4.27681 9.96091 4.27718C10.7001 4.27718 12.5469 5.83948 14.0568 9.38038L8.84771 10.7761C8.37101 6.80058 9.27801 4.45088 9.89901 4.28448ZM18.899 8.08288L15.9973 8.85998C15.3142 7.04317 14.2138 5.41227 12.7848 4.09878C14.0291 4.28852 15.2183 4.74219 16.2728 5.42934C17.3273 6.1165 18.2226 7.02125 18.8987 8.08288H18.899ZM4.00111 12.0748C4.05543 10.821 4.37813 9.59345 4.94742 8.47504C5.51671 7.35663 6.31934 6.37338 7.30111 5.59168C6.7358 7.43801 6.60142 9.38939 6.90831 11.2958L4.00111 12.0748Z" fill="black"/>
</svg>
