<svg width="24" height="24" viewBox="0 0 24 24" fill="none" xmlns="http://www.w3.org/2000/svg">
<path d="M14.6582 20.5566C13.938 19.8809 12.9875 19.5049 12 19.5049C11.0125 19.5049 10.062 19.8809 9.3418 20.5566C8.69559 21.1353 7.86692 21.4691 7 21.5C6.13308 21.4691 5.30441 21.1353 4.6582 20.5566C3.92355 19.9034 2.98259 19.5294 2 19.5V20C2.86692 20.0309 3.69559 20.3647 4.3418 20.9434C5.07645 21.5966 6.01741 21.9706 7 22C7.98259 21.9706 8.92355 21.5966 9.6582 20.9434C10.2889 20.3408 11.1277 20.0045 12 20.0045C12.8723 20.0045 13.7111 20.3408 14.3418 20.9434C15.0765 21.5966 16.0174 21.9706 17 22C17.9826 21.9706 18.9235 21.5966 19.6582 20.9434C20.3044 20.3647 21.1331 20.0309 22 20V19.5C21.0174 19.5294 20.0765 19.9034 19.3418 20.5566C18.7111 21.1592 17.8723 21.4955 17 21.4955C16.1277 21.4955 15.2889 21.1592 14.6582 20.5566ZM19.3418 15.8066C18.9033 16.22 18.362 16.5083 17.7743 16.6416C17.1866 16.7748 16.5739 16.7481 16 16.5642V4C16 3.46957 15.7893 2.96086 15.4142 2.58579C15.0391 2.21071 14.5304 2 14 2H13V2.5H14C14.3977 2.50045 14.779 2.65863 15.0602 2.93984C15.3414 3.22104 15.4995 3.60231 15.5 4V6.5H8.5V4C8.5 3.46957 8.28929 2.96086 7.91421 2.58579C7.53914 2.21071 7.03043 2 6.5 2H5.5V2.5H6.5C6.89769 2.50045 7.27896 2.65863 7.56016 2.93984C7.84137 3.22104 7.99955 3.60231 8 4V16.567C7.67901 16.6826 7.34113 16.7445 7 16.75C6.133 16.7192 5.30428 16.3852 4.6582 15.8062C3.92333 15.1534 2.98248 14.7796 2 14.75V15.25C2.86692 15.2809 3.69559 15.6147 4.3418 16.1934C5.07645 16.8466 6.01741 17.2206 7 17.25C7.98259 17.2206 8.92355 16.8466 9.6582 16.1934C10.2889 15.5908 11.1277 15.2545 12 15.2545C12.8723 15.2545 13.7111 15.5908 14.3418 16.1934C15.0765 16.8466 16.0174 17.2206 17 17.25C17.9826 17.2206 18.9235 16.8466 19.6582 16.1934C20.3044 15.6147 21.1331 15.2809 22 15.25V14.75C21.0174 14.7796 20.0765 15.1536 19.3418 15.8066ZM15.5 16.3493C15.2008 16.1989 14.9186 16.0168 14.6582 15.8062C13.9379 15.1307 12.9875 14.7548 12 14.7548C11.0125 14.7548 10.0621 15.1307 9.3418 15.8062C9.08128 16.0169 8.79909 16.1994 8.5 16.3505V13H15.5V16.3493ZM15.5 12.5H8.5V10H15.5V12.5ZM15.5 9.5H8.5V7H15.5V9.5Z" fill="black"/>
</svg>
