<svg width="24" height="24" viewBox="0 0 24 24" fill="none" xmlns="http://www.w3.org/2000/svg">
<path d="M19.071 4.929C17.6725 3.53046 15.8907 2.57803 13.9508 2.19217C12.011 1.8063 10.0003 2.00432 8.17307 2.76119C6.3458 3.51806 4.784 4.79979 3.68518 6.44428C2.58636 8.08878 1.99986 10.0222 1.99986 12C1.99986 13.9778 2.58636 15.9112 3.68518 17.5557C4.784 19.2002 6.3458 20.4819 8.17307 21.2388C10.0003 21.9957 12.011 22.1937 13.9508 21.8078C15.8907 21.422 17.6725 20.4695 19.071 19.071C20.0034 18.1446 20.7433 17.0429 21.2482 15.8293C21.7531 14.6158 22.0131 13.3144 22.0131 12C22.0131 10.6856 21.7531 9.38421 21.2482 8.17068C20.7433 6.95715 20.0034 5.85546 19.071 4.929ZM18.01 18.01C16.6194 19.4005 14.7896 20.2657 12.8325 20.4583C10.8755 20.6509 8.91215 20.159 7.27712 19.0663C5.64209 17.9737 4.43652 16.3479 3.86581 14.466C3.29511 12.5841 3.39458 10.5625 4.14729 8.74574C4.9 6.92896 6.25936 5.42938 7.99377 4.50252C9.72817 3.57565 11.7303 3.27884 13.659 3.66266C15.5877 4.04648 17.3237 5.08719 18.5711 6.60745C19.8185 8.12772 20.5002 10.0335 20.5 12C20.5029 13.1167 20.2844 14.2228 19.857 15.2544C19.4296 16.286 18.8018 17.2226 18.01 18.01ZM11.0869 12.7964L12.21 15.7036L14.957 8.9271L8.1805 11.6743L11.0869 12.7964Z" fill="black"/>
</svg>
