<svg width="24" height="24" viewBox="0 0 24 24" fill="none" xmlns="http://www.w3.org/2000/svg">
<path d="M19.759 4.18326C19.0112 3.42698 18.047 2.92153 16.9996 2.73671C15.9522 2.55189 14.8733 2.69681 13.9118 3.15146C12.9503 3.60611 12.1536 4.34806 11.6319 5.27486C11.1101 6.20166 10.889 7.26759 10.999 8.32546L2.4426 18.0229L5.9192 21.5L15.603 12.955C15.7701 12.9796 15.9385 12.9942 16.1074 12.9987C17.1287 12.9987 18.1271 12.6958 18.9763 12.1284C19.8255 11.561 20.4874 10.7545 20.8783 9.8109C21.2691 8.86732 21.3714 7.82902 21.1722 6.82731C20.973 5.8256 20.4812 4.90547 19.759 4.18326ZM4.5 17.9587L5.8447 16.4346L7.5078 18.0977L5.9835 19.4424L4.5 17.9587ZM8.6317 17.106L6.8362 15.3107L11.7917 9.69436L14.2478 12.1504L8.6317 17.106ZM18.6984 10.426C18.359 10.7672 17.9552 11.0378 17.5105 11.222C17.0658 11.4062 16.5889 11.5004 16.1076 11.4991C15.965 11.4957 15.8227 11.4836 15.6815 11.463L12.48 8.26076C12.4593 8.11959 12.4473 7.97729 12.4439 7.83466C12.4439 7.23207 12.5924 6.63877 12.8765 6.10733C13.1605 5.57588 13.5712 5.12269 14.0723 4.7879C14.5733 4.45311 15.1491 4.24705 15.7488 4.18798C16.3485 4.12891 16.9535 4.21866 17.5102 4.44926C18.0669 4.67987 18.5582 5.04422 18.9404 5.51003C19.3227 5.97585 19.5842 6.52876 19.7017 7.11977C19.8193 7.71078 19.7892 8.32166 19.6143 8.89829C19.4393 9.47492 19.1248 9.9995 18.6987 10.4256L18.6984 10.426Z" fill="black"/>
</svg>
