<svg width="24" height="24" viewBox="0 0 24 24" fill="none" xmlns="http://www.w3.org/2000/svg">
<path d="M22.9513 10.0354C22.7183 10.0207 22.4868 9.99997 22.25 9.99997C20.2118 10.0003 18.2143 10.5703 16.483 11.6458C16.4423 9.80332 16.0233 7.9889 15.2522 6.31512C14.481 4.64133 13.374 3.14391 12 1.91577C10.626 3.14391 9.51902 4.64133 8.74784 6.31512C7.97666 7.9889 7.55771 9.80332 7.517 11.6458C5.78566 10.5703 3.78816 10.0003 1.75 9.99997C1.5132 9.99997 1.2817 10.0207 1.0487 10.0354C1.021 10.3539 1 10.6744 1 11C1 13.9174 2.15893 16.7152 4.22183 18.7781C6.28473 20.841 9.08262 22 12 22C14.9174 22 17.7153 20.841 19.7782 18.7781C21.8411 16.7152 23 13.9174 23 11C23 10.6744 22.979 10.3539 22.9513 10.0354ZM9 11.9579C9.00508 9.04278 10.0715 6.2293 12 4.04327C13.9285 6.2293 14.9949 9.04278 15 11.9579C15 12.232 14.9827 12.504 14.9626 12.7756C13.6502 13.9378 12.6345 15.3967 12 17.0309C11.3655 15.3967 10.3498 13.9378 9.0374 12.7756C9.0173 12.504 9 12.232 9 11.9579ZM2.5146 11.5305C4.80182 11.7183 6.9441 12.7264 8.54668 14.3691C10.1493 16.0118 11.1042 18.1783 11.2354 20.4695C8.94818 20.2817 6.8059 19.2735 5.20332 17.6308C3.60074 15.9882 2.64585 13.8216 2.5146 11.5305ZM12.7646 20.4695C12.8958 18.1783 13.8507 16.0118 15.4533 14.3691C17.0559 12.7264 19.1982 11.7183 21.4854 11.5305C21.3543 13.8217 20.3994 15.9884 18.7968 17.6312C17.1942 19.2739 15.0519 20.2821 12.7646 20.47V20.4695Z" fill="black"/>
</svg>
