<svg width="24" height="24" viewBox="0 0 24 24" fill="none" xmlns="http://www.w3.org/2000/svg">
<path d="M6.8 12.3C7.22523 12.3 7.64091 12.1739 7.99448 11.9377C8.34804 11.7014 8.62361 11.3656 8.78634 10.9728C8.94907 10.5799 8.99165 10.1476 8.90869 9.73056C8.82573 9.3135 8.62096 8.9304 8.32028 8.62972C8.0196 8.32904 7.6365 8.12427 7.21944 8.04131C6.80239 7.95835 6.37009 8.00093 5.97723 8.16366C5.58437 8.32639 5.24859 8.60196 5.01234 8.95552C4.7761 9.30909 4.65 9.72477 4.65 10.15C4.65 10.7202 4.87652 11.2671 5.27972 11.6703C5.68292 12.0735 6.22978 12.3 6.8 12.3ZM18 8H11V14.5H2.5V5H2V18H2.5V15H21.5V18H22V12C22 10.9391 21.5786 9.92172 20.8284 9.17157C20.0783 8.42143 19.0609 8 18 8Z" fill="black"/>
</svg>
