<svg width="24" height="24" viewBox="0 0 24 24" fill="none" xmlns="http://www.w3.org/2000/svg">
<path d="M12 10.5C11.7033 10.5 11.4133 10.588 11.1666 10.7528C10.92 10.9176 10.7277 11.1519 10.6142 11.426C10.5006 11.7001 10.4709 12.0017 10.5288 12.2926C10.5867 12.5836 10.7296 12.8509 10.9393 13.0607C11.1491 13.2704 11.4164 13.4133 11.7074 13.4712C11.9983 13.5291 12.2999 13.4994 12.574 13.3858C12.8481 13.2723 13.0824 13.08 13.2472 12.8334C13.412 12.5867 13.5 12.2967 13.5 12C13.5 11.6022 13.342 11.2206 13.0607 10.9393C12.7794 10.658 12.3978 10.5 12 10.5ZM12 15.5C11.7033 15.5 11.4133 15.588 11.1666 15.7528C10.92 15.9176 10.7277 16.1519 10.6142 16.426C10.5006 16.7001 10.4709 17.0017 10.5288 17.2926C10.5867 17.5836 10.7296 17.8509 10.9393 18.0607C11.1491 18.2704 11.4164 18.4133 11.7074 18.4712C11.9983 18.5291 12.2999 18.4993 12.574 18.3858C12.8481 18.2723 13.0824 18.08 13.2472 17.8334C13.412 17.5867 13.5 17.2967 13.5 17C13.5 16.6022 13.342 16.2206 13.0607 15.9393C12.7794 15.658 12.3978 15.5 12 15.5ZM12 5.5C11.7033 5.5 11.4133 5.58797 11.1666 5.7528C10.92 5.91762 10.7277 6.15189 10.6142 6.42597C10.5006 6.70006 10.4709 7.00166 10.5288 7.29264C10.5867 7.58361 10.7296 7.85088 10.9393 8.06066C11.1491 8.27044 11.4164 8.4133 11.7074 8.47118C11.9983 8.52906 12.2999 8.49935 12.574 8.38582C12.8481 8.27229 13.0824 8.08003 13.2472 7.83336C13.412 7.58668 13.5 7.29667 13.5 7C13.5 6.60218 13.342 6.22064 13.0607 5.93934C12.7794 5.65804 12.3978 5.5 12 5.5ZM18.2792 13C18.4891 13 18.6937 12.934 18.8639 12.8112C19.0342 12.6885 19.1615 12.5153 19.2279 12.3162L20 10H18V8H18.2792C18.4891 8 18.6937 7.93396 18.8639 7.81124C19.0342 7.68851 19.1615 7.51532 19.2279 7.3162L20 5H18C18 4.20435 17.6839 3.44129 17.1213 2.87868C16.5587 2.31607 15.7956 2 15 2H9C8.20435 2 7.44129 2.31607 6.87868 2.87868C6.31607 3.44129 6 4.20435 6 5H4L4.7721 7.3162C4.83847 7.51532 4.9658 7.68851 5.13607 7.81124C5.30634 7.93396 5.51091 8 5.7208 8H6V10H4L4.7721 12.3162C4.83847 12.5153 4.9658 12.6885 5.13607 12.8112C5.30634 12.934 5.51091 13 5.7208 13H6V15H4L4.7721 17.3162C4.83847 17.5153 4.9658 17.6885 5.13607 17.8112C5.30634 17.934 5.51091 18 5.7208 18H6V19C6 19.7956 6.31607 20.5587 6.87868 21.1213C7.44129 21.6839 8.20435 22 9 22H15C15.7956 22 16.5587 21.6839 17.1213 21.1213C17.6839 20.5587 18 19.7956 18 19V18H18.2792C18.4891 18 18.6937 17.934 18.8639 17.8112C19.0342 17.6885 19.1615 17.5153 19.2279 17.3162L20 15H18V13H18.2792ZM16 19C15.9997 19.2651 15.8943 19.5193 15.7068 19.7068C15.5193 19.8943 15.2651 19.9997 15 20H9C8.73487 19.9997 8.48069 19.8943 8.29321 19.7068C8.10574 19.5193 8.00029 19.2651 8 19V5C8.00029 4.73487 8.10574 4.48069 8.29321 4.29321C8.48069 4.10574 8.73487 4.00029 9 4H15C15.2651 4.00029 15.5193 4.10574 15.7068 4.29321C15.8943 4.48069 15.9997 4.73487 16 5V19Z" fill="black"/>
</svg>
