<svg width="24" height="24" viewBox="0 0 24 24" fill="none" xmlns="http://www.w3.org/2000/svg">
<g clip-path="url(#clip0)">
<path d="M12 0C9.61555 0.0027525 7.32957 0.951184 5.64352 2.63723C3.95747 4.32328 3.00904 6.60927 3.00629 8.9937C3.00629 15.7563 10.9912 23.021 11.3311 23.3267L12 23.9287L12.6689 23.3267C13.0089 23.021 20.9941 15.7567 20.9941 8.9937C20.9913 6.60922 20.0427 4.32322 18.3566 2.63718C16.6705 0.951136 14.3845 0.00272589 12 0V0ZM12 12.625C11.8764 12.625 11.7555 12.5883 11.6528 12.5197C11.55 12.451 11.4699 12.3534 11.4226 12.2392C11.3753 12.125 11.3629 11.9993 11.387 11.8781C11.4111 11.7568 11.4706 11.6455 11.558 11.5581C11.6455 11.4706 11.7568 11.4111 11.8781 11.387C11.9993 11.3629 12.125 11.3753 12.2392 11.4226C12.3534 11.4699 12.451 11.55 12.5197 11.6528C12.5883 11.7555 12.625 11.8764 12.625 12C12.625 12.1658 12.5591 12.3247 12.4419 12.4419C12.3247 12.5592 12.1657 12.625 12 12.625ZM12.3886 10H11.6114L11.375 5H12.625L12.3886 10Z" fill="black"/>
</g>
<defs>
<clipPath id="clip0">
<rect width="24" height="24" fill="white"/>
</clipPath>
</defs>
</svg>
