<svg width="24" height="24" viewBox="0 0 24 24" fill="none" xmlns="http://www.w3.org/2000/svg">
<g clip-path="url(#clip0)">
<path d="M12 0.5C14.2519 0.502488 16.4109 1.39814 18.0033 2.99047C19.5957 4.5828 20.4915 6.74176 20.4941 8.9937C20.4941 15.5407 12.6677 22.6552 12.3341 22.955L12 23.256L11.6654 22.9549C11.3323 22.6549 3.50629 15.5412 3.50629 8.9937C3.50883 6.74181 4.40451 4.58288 5.99684 2.99055C7.58917 1.39823 9.7481 0.502541 12 0.5ZM12 0C9.61555 0.0027525 7.32957 0.951184 5.64352 2.63723C3.95747 4.32328 3.00904 6.60927 3.00629 8.9937C3.00629 15.7563 10.9912 23.021 11.3311 23.3267L12 23.9287L12.6689 23.3267C13.0089 23.021 20.9941 15.7567 20.9941 8.9937C20.9913 6.60922 20.0427 4.32322 18.3566 2.63718C16.6705 0.951136 14.3845 0.00272589 12 0V0Z" fill="black"/>
<path d="M12 6.25C12.5439 6.25 13.0756 6.41128 13.5278 6.71346C13.9801 7.01563 14.3325 7.44512 14.5407 7.94762C14.7488 8.45012 14.8033 9.00305 14.6972 9.5365C14.5911 10.0699 14.3291 10.5599 13.9445 10.9445C13.56 11.3291 13.0699 11.5911 12.5365 11.6972C12.0031 11.8033 11.4501 11.7488 10.9476 11.5407C10.4451 11.3325 10.0156 10.9801 9.71346 10.5278C9.41129 10.0756 9.25 9.5439 9.25 9C9.25082 8.27091 9.54082 7.57191 10.0564 7.05636C10.5719 6.54082 11.2709 6.25082 12 6.25ZM12 5.75C11.3572 5.75 10.7289 5.94061 10.1944 6.29772C9.65994 6.65484 9.24338 7.16242 8.99739 7.75628C8.75141 8.35014 8.68705 9.00361 8.81245 9.63404C8.93785 10.2645 9.24738 10.8436 9.70191 11.2981C10.1564 11.7526 10.7355 12.0622 11.366 12.1876C11.9964 12.313 12.6499 12.2486 13.2437 12.0026C13.8376 11.7566 14.3452 11.3401 14.7023 10.8056C15.0594 10.2711 15.25 9.64279 15.25 9C15.25 8.13805 14.9076 7.3114 14.2981 6.7019C13.6886 6.09241 12.862 5.75 12 5.75Z" fill="#231F20"/>
</g>
<defs>
<clipPath id="clip0">
<rect width="24" height="24" fill="white"/>
</clipPath>
</defs>
</svg>
