<svg width="24" height="24" viewBox="0 0 24 24" fill="none" xmlns="http://www.w3.org/2000/svg">
<path d="M6.8 12.6C7.2549 12.6 7.69958 12.4651 8.07781 12.2124C8.45604 11.9597 8.75084 11.6004 8.92492 11.1802C9.099 10.7599 9.14455 10.2974 9.05581 9.85129C8.96706 9.40514 8.74801 8.99532 8.42635 8.67365C8.10468 8.35199 7.69486 8.13294 7.24871 8.04419C6.80255 7.95545 6.3401 8.001 5.91983 8.17508C5.49956 8.34916 5.14035 8.64396 4.88762 9.02219C4.63489 9.40042 4.5 9.8451 4.5 10.3C4.5 10.91 4.74232 11.495 5.17365 11.9263C5.60499 12.3577 6.19 12.6 6.8 12.6ZM6.8 8.5C7.15601 8.5 7.50402 8.60557 7.80003 8.80335C8.09604 9.00114 8.32675 9.28226 8.46298 9.61117C8.59922 9.94008 8.63487 10.302 8.56541 10.6512C8.49596 11.0003 8.32453 11.3211 8.07279 11.5728C7.82106 11.8245 7.50033 11.996 7.15116 12.0654C6.802 12.1349 6.44008 12.0992 6.11117 11.963C5.78226 11.8267 5.50114 11.596 5.30335 11.3C5.10557 11.004 5 10.656 5 10.3C5.00056 9.82278 5.19038 9.36527 5.52782 9.02782C5.86527 8.69038 6.32278 8.50056 6.8 8.5ZM18 8H11V14.5H2.5V5H2V18H2.5V15H21.5V18H22V12C22 10.9391 21.5786 9.92172 20.8284 9.17157C20.0783 8.42143 19.0609 8 18 8ZM21.5 14.5H11.5V8.5H18C18.9279 8.50106 19.8176 8.87015 20.4737 9.5263C21.1299 10.1824 21.4989 11.0721 21.5 12V14.5Z" fill="black"/>
</svg>
