<svg width="24" height="24" viewBox="0 0 24 24" fill="none" xmlns="http://www.w3.org/2000/svg">
<path d="M12 2C10.0222 2 8.08879 2.58649 6.4443 3.6853C4.79981 4.78412 3.51809 6.3459 2.76121 8.17317C2.00433 10.0004 1.8063 12.0111 2.19215 13.9509C2.578 15.8907 3.53041 17.6725 4.92894 19.0711C6.32746 20.4696 8.10929 21.422 10.0491 21.8079C11.9889 22.1937 13.9996 21.9957 15.8268 21.2388C17.6541 20.4819 19.2159 19.2002 20.3147 17.5557C21.4135 15.9112 22 13.9778 22 12C22 10.6868 21.7413 9.38642 21.2388 8.17317C20.7363 6.95991 19.9997 5.85752 19.0711 4.92893C18.1425 4.00035 17.0401 3.26375 15.8268 2.7612C14.6136 2.25866 13.3132 2 12 2ZM12 20.4C10.8145 20.3993 9.64261 20.1468 8.56196 19.6593C7.48131 19.1718 6.51651 18.4603 5.7314 17.572C6.11713 17.2953 6.40495 16.9031 6.55334 16.4522C6.70173 16.0012 6.70302 15.5148 6.55701 15.0631C6.411 14.6113 6.12525 14.2177 5.74099 13.9389C5.35673 13.6601 4.89384 13.5106 4.4191 13.512C4.19533 13.5158 3.9733 13.5522 3.76 13.62C3.49134 12.2667 3.56166 10.8679 3.96471 9.54839C4.36776 8.22885 5.09101 7.02952 6.07 6.0573C6.13801 6.2234 6.25387 6.36553 6.40285 6.46562C6.55184 6.56571 6.72722 6.61924 6.9067 6.6194H7C7.26522 6.6194 7.51957 6.72476 7.70711 6.91229C7.89465 7.09983 8 7.35418 8 7.6194V10.4214C7.99996 10.8157 8.07766 11.2062 8.22865 11.5705C8.37965 11.9348 8.60099 12.2657 8.88 12.5444L11.5787 15.239L11.5484 19.14H13.2355C13.6458 19.14 14.0462 19.0138 14.3823 18.7785C14.7185 18.5433 14.9741 18.2103 15.1146 17.8248L16.33 14.4916C16.4401 14.1894 16.4757 13.8652 16.4338 13.5464C16.3919 13.2275 16.2738 12.9235 16.0893 12.66C15.9049 12.3966 15.6597 12.1815 15.3745 12.0329C15.0892 11.8844 14.7724 11.8069 14.4508 11.8069H10.8243C10.5591 11.8069 10.3047 11.7015 10.1172 11.514C9.92966 11.3265 9.8243 11.0721 9.8243 10.8069C9.8243 10.5417 9.92966 10.2873 10.1172 10.0998C10.3047 9.91226 10.5591 9.8069 10.8243 9.8069H14.2352C14.4405 9.80696 14.6408 9.74385 14.809 9.62613C14.9771 9.50841 15.105 9.3418 15.1752 9.1489L15.7787 7.4909C15.8887 7.18877 15.9242 6.86458 15.8822 6.54582C15.8402 6.22705 15.722 5.9231 15.5376 5.65973C15.3532 5.39636 15.108 5.18133 14.8228 5.03287C14.5376 4.88441 14.2208 4.8069 13.8993 4.8069H7.6843C9.43844 3.74521 11.5218 3.36583 13.5376 3.74103C15.5534 4.11622 17.3607 5.21978 18.6154 6.8415L18.0787 8.3159C17.9687 8.61803 17.9332 8.94222 17.9752 9.26099C18.0171 9.57976 18.1353 9.88372 18.3197 10.1471C18.5041 10.4105 18.7493 10.6255 19.0345 10.774C19.3197 10.9225 19.6365 11 19.958 11H20.3348C20.4832 12.1799 20.3781 13.3778 20.0265 14.5138C19.6749 15.6498 19.0849 16.6976 18.296 17.5874C17.5071 18.4771 16.5373 19.1883 15.4516 19.6733C14.3659 20.1583 13.1891 20.4061 12 20.4Z" fill="black"/>
</svg>
