<svg width="24" height="24" viewBox="0 0 24 24" fill="none" xmlns="http://www.w3.org/2000/svg">
<g clip-path="url(#clip0)">
<path d="M12 0C9.61555 0.0027525 7.32957 0.951184 5.64352 2.63723C3.95747 4.32328 3.00904 6.60927 3.00629 8.9937C3.00629 15.7563 10.9912 23.021 11.3311 23.3267L12 23.9287L12.6689 23.3267C13.0089 23.021 20.9941 15.7567 20.9941 8.9937C20.9913 6.60922 20.0427 4.32322 18.3566 2.63718C16.6705 0.951136 14.3845 0.00272589 12 0V0ZM12 22.5833C11.92 22.5114 4.00649 15.3207 4.00649 8.9939C4.00649 6.87379 4.8487 4.84051 6.34785 3.34136C7.84699 1.84221 9.88027 1 12.0004 1C14.1205 1 16.1538 1.84221 17.6529 3.34136C19.1521 4.84051 19.9943 6.87379 19.9943 8.9939C19.9941 15.3193 12.0821 22.51 12 22.5833ZM11.6114 10H12.3886L12.625 5H11.375L11.6114 10ZM12 11.375C11.8764 11.375 11.7555 11.4117 11.6528 11.4803C11.55 11.549 11.4699 11.6466 11.4226 11.7608C11.3753 11.875 11.3629 12.0007 11.387 12.1219C11.4111 12.2432 11.4706 12.3545 11.558 12.4419C11.6455 12.5294 11.7568 12.5889 11.8781 12.613C11.9993 12.6371 12.125 12.6247 12.2392 12.5774C12.3534 12.5301 12.451 12.45 12.5197 12.3472C12.5883 12.2445 12.625 12.1236 12.625 12C12.625 11.8342 12.5591 11.6753 12.4419 11.5581C12.3247 11.4408 12.1657 11.375 12 11.375Z" fill="black"/>
</g>
<defs>
<clipPath id="clip0">
<rect width="24" height="24" fill="white"/>
</clipPath>
</defs>
</svg>
