<svg width="24" height="24" viewBox="0 0 24 24" fill="none" xmlns="http://www.w3.org/2000/svg">
<path d="M12 2C10.0222 2 8.08879 2.58649 6.4443 3.6853C4.79981 4.78412 3.51809 6.3459 2.76121 8.17317C2.00433 10.0004 1.8063 12.0111 2.19215 13.9509C2.578 15.8907 3.53041 17.6725 4.92894 19.0711C6.32746 20.4696 8.10929 21.422 10.0491 21.8079C11.9889 22.1937 13.9996 21.9957 15.8268 21.2388C17.6541 20.4819 19.2159 19.2002 20.3147 17.5557C21.4135 15.9112 22 13.9778 22 12C22 10.6868 21.7413 9.38642 21.2388 8.17317C20.7363 6.95991 19.9997 5.85752 19.0711 4.92893C18.1425 4.00035 17.0401 3.26375 15.8268 2.7612C14.6136 2.25866 13.3132 2 12 2ZM12 20.3C10.7108 20.3029 9.43863 20.0055 8.28436 19.4313C7.13009 18.857 6.12545 18.0218 5.35009 16.9918C4.57473 15.9618 4.04996 14.7654 3.81739 13.4973C3.58482 12.2293 3.65084 10.9245 4.01021 9.68635C4.36959 8.44824 5.01244 7.31086 5.88781 6.36439C6.76317 5.41792 7.84698 4.68838 9.05331 4.23359C10.2596 3.77881 11.5553 3.6113 12.8377 3.74433C14.12 3.87736 15.3537 4.30728 16.441 5H9.31C8.89958 5.00005 8.49911 5.12636 8.16293 5.36181C7.82675 5.59725 7.57115 5.93042 7.4308 6.3161L6.8228 7.9871C6.74035 8.2137 6.71375 8.45683 6.74524 8.6959C6.77673 8.93496 6.86539 9.16291 7.00371 9.36043C7.14202 9.55794 7.32592 9.7192 7.53981 9.83054C7.7537 9.94187 7.99127 10 8.2324 10H10.0146C10.1737 10 10.3263 10.0632 10.4389 10.1757C10.5514 10.2883 10.6146 10.4409 10.6146 10.6C10.6146 10.7591 10.5514 10.9117 10.4389 11.0243C10.3263 11.1368 10.1737 11.2 10.0146 11.2H8C7.46957 11.2 6.96086 11.4107 6.58579 11.7858C6.21072 12.1609 6 12.6696 6 13.2V14C6 14.2652 6.10536 14.5196 6.2929 14.7071C6.48043 14.8946 6.73479 15 7 15H8V17C8 17.2652 8.10536 17.5196 8.2929 17.7071C8.48043 17.8946 8.73479 18 9 18H9.5C9.82831 18 10.1534 17.9353 10.4567 17.8097C10.76 17.6841 11.0356 17.4999 11.2678 17.2678C11.4999 17.0356 11.6841 16.76 11.8097 16.4567C11.9353 16.1534 12 15.8283 12 15.5V13H15.5C16.163 13 16.7989 12.7366 17.2678 12.2678C17.7366 11.7989 18 11.163 18 10.5V6.2808C18.8825 7.18905 19.5407 8.29082 19.9223 9.49837C20.3038 10.7059 20.3981 11.9859 20.1976 13.2363C19.9456 13.083 19.6566 13.0013 19.3617 13C18.9298 13 18.5154 13.1705 18.2086 13.4745L17 14.6719V17H18.6093C17.8381 18.024 16.8398 18.855 15.6929 19.4276C14.546 20.0002 13.2819 20.2989 12 20.3Z" fill="black"/>
</svg>
