<svg width="24" height="24" viewBox="0 0 24 24" fill="none" xmlns="http://www.w3.org/2000/svg">
<path d="M6.9 8.8C7.27578 8.8 7.64313 8.68857 7.95558 8.47979C8.26804 8.27102 8.51156 7.97428 8.65537 7.6271C8.79918 7.27992 8.8368 6.89789 8.76349 6.52933C8.69018 6.16076 8.50922 5.82222 8.2435 5.5565C7.97778 5.29078 7.63924 5.10982 7.27067 5.03651C6.90211 4.9632 6.52008 5.00082 6.1729 5.14463C5.82572 5.28844 5.52898 5.53196 5.32021 5.84442C5.11143 6.15687 5 6.52422 5 6.9C5 7.40391 5.20018 7.88718 5.5565 8.2435C5.91282 8.59982 6.39609 8.8 6.9 8.8ZM6.9 5.85C7.10767 5.85 7.31068 5.91158 7.48335 6.02696C7.65602 6.14233 7.7906 6.30632 7.87007 6.49818C7.94955 6.69004 7.97034 6.90117 7.92982 7.10485C7.88931 7.30853 7.78931 7.49562 7.64246 7.64246C7.49562 7.78931 7.30853 7.88931 7.10485 7.92982C6.90117 7.97034 6.69004 7.94955 6.49818 7.87007C6.30632 7.7906 6.14233 7.65602 6.02696 7.48335C5.91158 7.31068 5.85 7.10767 5.85 6.9C5.85032 6.62162 5.96104 6.35473 6.15789 6.15789C6.35473 5.96104 6.62162 5.85032 6.9 5.85ZM6.9 16.8C7.27578 16.8 7.64313 16.6886 7.95558 16.4798C8.26804 16.271 8.51156 15.9743 8.65537 15.6271C8.79918 15.2799 8.8368 14.8979 8.76349 14.5293C8.69018 14.1608 8.50922 13.8222 8.2435 13.5565C7.97778 13.2908 7.63924 13.1098 7.27067 13.0365C6.90211 12.9632 6.52008 13.0008 6.1729 13.1446C5.82572 13.2884 5.52898 13.532 5.32021 13.8444C5.11143 14.1569 5 14.5242 5 14.9C5 15.4039 5.20018 15.8872 5.5565 16.2435C5.91282 16.5998 6.39609 16.8 6.9 16.8ZM6.9 13.85C7.10767 13.85 7.31068 13.9116 7.48335 14.027C7.65602 14.1423 7.7906 14.3063 7.87007 14.4982C7.94955 14.69 7.97034 14.9012 7.92982 15.1048C7.88931 15.3085 7.78931 15.4956 7.64246 15.6425C7.49562 15.7893 7.30853 15.8893 7.10485 15.9298C6.90117 15.9703 6.69004 15.9495 6.49818 15.8701C6.30632 15.7906 6.14233 15.656 6.02696 15.4833C5.91158 15.3107 5.85 15.1077 5.85 14.9C5.85032 14.6216 5.96104 14.3547 6.15789 14.1579C6.35473 13.961 6.62162 13.8503 6.9 13.85ZM21 3V10H19V8C19 7.20435 18.6839 6.44129 18.1213 5.87868C17.5587 5.31607 16.7956 5 16 5H10V10H3V3H2V21H3V19H21V21H22V3H21ZM11 6H16C16.5302 6.00061 17.0386 6.21152 17.4135 6.58646C17.7885 6.9614 17.9994 7.46975 18 8V10H11V6ZM18 18H11V14H16C16.5302 14.0006 17.0386 14.2115 17.4135 14.5865C17.7885 14.9614 17.9994 15.4698 18 16V18ZM21 18H19V16C19 15.2044 18.6839 14.4413 18.1213 13.8787C17.5587 13.3161 16.7956 13 16 13H10V18H3V11H21V18Z" fill="black"/>
</svg>
