<svg width="24" height="24" viewBox="0 0 24 24" fill="none" xmlns="http://www.w3.org/2000/svg">
<path d="M19 3H15V5H19V6H15V8H19V9H15V11H19V12H15V14H19V21H21V5C21 4.46957 20.7893 3.96086 20.4142 3.58579C20.0392 3.21071 19.5304 3 19 3ZM12 15C11.6586 15.0033 11.3203 15.0655 11 15.1837V13L9.00001 3H8.00001L6.00001 13V15.1837C5.40059 14.9729 4.74963 14.9584 4.14138 15.1422C3.53314 15.326 2.99917 15.6986 2.6168 16.2061C2.23442 16.7135 2.02348 17.3295 2.01452 17.9649C2.00555 18.6002 2.19903 19.2219 2.56694 19.74C2.93484 20.2581 3.45808 20.6456 4.0609 20.8465C4.66372 21.0474 5.31483 21.0512 5.91996 20.8574C6.5251 20.6636 7.05285 20.2822 7.4268 19.7685C7.80076 19.2548 8.00152 18.6354 8.00001 18V12H9.00001V18C9.00001 18.5933 9.17596 19.1734 9.5056 19.6667C9.83525 20.1601 10.3038 20.5446 10.852 20.7716C11.4001 20.9987 12.0033 21.0581 12.5853 20.9424C13.1672 20.8266 13.7018 20.5409 14.1213 20.1213C14.5409 19.7018 14.8266 19.1672 14.9424 18.5853C15.0581 18.0033 14.9987 17.4001 14.7717 16.852C14.5446 16.3038 14.1601 15.8352 13.6667 15.5056C13.1734 15.1759 12.5934 15 12 15ZM5.00001 19C4.80223 19 4.60889 18.9414 4.44444 18.8315C4.27999 18.7216 4.15182 18.5654 4.07613 18.3827C4.00045 18.2 3.98064 17.9989 4.01923 17.8049C4.05781 17.6109 4.15305 17.4327 4.29291 17.2929C4.43276 17.153 4.61094 17.0578 4.80492 17.0192C4.9989 16.9806 5.19997 17.0004 5.3827 17.0761C5.56542 17.1518 5.7216 17.28 5.83148 17.4444C5.94136 17.6089 6.00001 17.8022 6.00001 18C5.99972 18.2651 5.89427 18.5193 5.7068 18.7068C5.51932 18.8943 5.26514 18.9997 5.00001 19ZM12 19C11.8022 19 11.6089 18.9414 11.4444 18.8315C11.28 18.7216 11.1518 18.5654 11.0761 18.3827C11.0004 18.2 10.9806 17.9989 11.0192 17.8049C11.0578 17.6109 11.1531 17.4327 11.2929 17.2929C11.4328 17.153 11.6109 17.0578 11.8049 17.0192C11.9989 16.9806 12.2 17.0004 12.3827 17.0761C12.5654 17.1518 12.7216 17.28 12.8315 17.4444C12.9414 17.6089 13 17.8022 13 18C12.9997 18.2651 12.8943 18.5193 12.7068 18.7068C12.5193 18.8943 12.2651 18.9997 12 19Z" fill="black"/>
</svg>
