<svg width="24" height="24" viewBox="0 0 24 24" fill="none" xmlns="http://www.w3.org/2000/svg">
<path d="M11.3311 18.9307L12 19.5327L12.6689 18.9307C12.9277 18.6982 18.9951 13.1772 18.9951 7.99558C19 7.07383 18.8227 6.1602 18.4734 5.3072C18.1241 4.4542 17.6096 3.67865 16.9596 3.02513C16.3096 2.37161 15.5368 1.85301 14.6856 1.49913C13.8345 1.14525 12.9219 0.963074 12.0001 0.963074C11.0783 0.963074 10.1657 1.14525 9.31455 1.49913C8.46343 1.85301 7.69065 2.37161 7.04061 3.02513C6.39058 3.67865 5.87611 4.4542 5.52679 5.3072C5.17746 6.1602 5.00017 7.07383 5.0051 7.99558C5.0049 13.1772 11.0723 18.6982 11.3311 18.9307ZM12 1.99998C13.5895 2.00183 15.1134 2.63412 16.2373 3.75812C17.3612 4.88213 17.9934 6.40606 17.9951 7.99558C17.9951 12.7474 12.0614 18.1322 12 18.1874L11.9993 18.1867C11.9393 18.1329 6.0049 12.7477 6.0049 7.99558C6.00662 6.40606 6.63878 4.88213 7.76269 3.75812C8.88661 2.63412 10.4105 2.00183 12 1.99998ZM4 22V23H20V22H4ZM13.5 7.99998C13.5 7.70331 13.412 7.4133 13.2472 7.16662C13.0824 6.91995 12.8481 6.72769 12.574 6.61416C12.2999 6.50063 11.9983 6.47092 11.7074 6.5288C11.4164 6.58668 11.1491 6.72954 10.9393 6.93932C10.7296 7.1491 10.5867 7.41637 10.5288 7.70734C10.4709 7.99831 10.5006 8.29991 10.6142 8.574C10.7277 8.84809 10.92 9.08236 11.1666 9.24718C11.4133 9.41201 11.7033 9.49998 12 9.49998C12.3978 9.49998 12.7794 9.34194 13.0607 9.06064C13.342 8.77933 13.5 8.3978 13.5 7.99998ZM11.4 7.99998C11.4 7.88131 11.4352 7.76531 11.5011 7.66664C11.567 7.56797 11.6608 7.49106 11.7704 7.44565C11.88 7.40024 12.0007 7.38836 12.1171 7.41151C12.2334 7.43466 12.3404 7.4918 12.4243 7.57571C12.5082 7.65963 12.5653 7.76654 12.5885 7.88292C12.6116 7.99931 12.5997 8.11995 12.5543 8.22959C12.5089 8.33922 12.432 8.43293 12.3333 8.49886C12.2347 8.56479 12.1187 8.59998 12 8.59998C11.8409 8.59979 11.6884 8.53652 11.5759 8.42404C11.4635 8.31156 11.4002 8.15905 11.4 7.99998Z" fill="#231F20"/>
</svg>
