<svg width="24" height="24" viewBox="0 0 24 24" fill="none" xmlns="http://www.w3.org/2000/svg">
<path d="M15 6V2H0.999973V11C0.996665 12.0575 1.23377 13.102 1.69337 14.0545C2.15297 15.0069 2.82305 15.8425 3.65296 16.498C4.48288 17.1535 5.45093 17.6117 6.48395 17.8382C7.51698 18.0646 8.58796 18.0533 9.61597 17.8051C10.2572 19.2777 11.3865 20.4842 12.8135 21.2212C14.2405 21.9583 15.878 22.1808 17.45 21.8514C19.0219 21.5219 20.4323 20.6606 21.4432 19.4125C22.4542 18.1645 23.004 16.6061 23 15V6H15ZM7.99997 17C6.40924 16.9982 4.88417 16.3654 3.75935 15.2406C2.63453 14.1158 2.0018 12.5907 1.99997 11V3H14V11C13.9981 12.5907 13.3654 14.1158 12.2406 15.2406C11.1158 16.3654 9.59071 16.9982 7.99997 17ZM22 15C22.0038 16.3672 21.5393 17.6944 20.6838 18.7609C19.8283 19.8273 18.6334 20.5686 17.2979 20.8614C15.9624 21.1541 14.567 20.9807 13.3438 20.37C12.1206 19.7593 11.1435 18.7481 10.575 17.5047C11.8796 16.989 12.9991 16.093 13.7881 14.9331C14.5772 13.7732 14.9994 12.4029 15 11V7H22V15ZM13.4785 18.25H18.4785C18.4785 17.587 18.2151 16.9511 17.7462 16.4822C17.2774 16.0134 16.6415 15.75 15.9785 15.75C15.3154 15.75 14.6795 16.0134 14.2107 16.4822C13.7419 16.9511 13.4785 17.587 13.4785 18.25ZM15.9785 16.6C16.2631 16.6002 16.5429 16.6739 16.7906 16.8141C17.0383 16.9543 17.2456 17.1561 17.3923 17.4H14.5647C14.7114 17.1561 14.9187 16.9543 15.1664 16.8141C15.4141 16.6739 15.6938 16.6002 15.9785 16.6ZM18.2026 11.9565C18.3509 11.9565 18.4959 11.9125 18.6193 11.8301C18.7426 11.7477 18.8387 11.6306 18.8955 11.4935C18.9522 11.3565 18.9671 11.2057 18.9382 11.0602C18.9092 10.9147 18.8378 10.7811 18.7329 10.6762C18.628 10.5713 18.4944 10.4999 18.3489 10.4709C18.2034 10.442 18.0526 10.4568 17.9156 10.5136C17.7785 10.5704 17.6614 10.6665 17.579 10.7898C17.4966 10.9132 17.4526 11.0582 17.4526 11.2065C17.4526 11.4054 17.5316 11.5962 17.6722 11.7368C17.8129 11.8775 18.0037 11.9565 18.2026 11.9565ZM7.97847 13.75C8.70782 13.75 9.40729 13.4603 9.92302 12.9445C10.4387 12.4288 10.7285 11.7293 10.7285 11H5.22847C5.22847 11.7293 5.5182 12.4288 6.03393 12.9445C6.54965 13.4603 7.24913 13.75 7.97847 13.75ZM9.67757 11.85C9.51971 12.1654 9.27715 12.4307 8.97707 12.6161C8.67698 12.8015 8.33121 12.8997 7.97847 12.8997C7.62574 12.8997 7.27997 12.8015 6.97988 12.6161C6.67979 12.4307 6.43724 12.1654 6.27937 11.85H9.67757ZM10.2026 6.4565C10.0542 6.4565 9.90923 6.50049 9.7859 6.5829C9.66256 6.66531 9.56643 6.78244 9.50966 6.91949C9.4529 7.05653 9.43805 7.20733 9.46698 7.35282C9.49592 7.4983 9.56735 7.63194 9.67224 7.73683C9.77713 7.84172 9.91077 7.91315 10.0563 7.94209C10.2017 7.97103 10.3525 7.95618 10.4896 7.89941C10.6266 7.84264 10.7438 7.74651 10.8262 7.62318C10.9086 7.49984 10.9526 7.35484 10.9526 7.2065C10.9526 7.00759 10.8736 6.81682 10.7329 6.67617C10.5923 6.53552 10.4015 6.4565 10.2026 6.4565ZM6.50437 7.2065C6.50437 7.05816 6.46039 6.91316 6.37798 6.78982C6.29556 6.66649 6.17843 6.57036 6.04139 6.51359C5.90434 6.45682 5.75354 6.44197 5.60806 6.47091C5.46257 6.49985 5.32893 6.57128 5.22404 6.67617C5.11915 6.78106 5.04772 6.9147 5.01878 7.06018C4.98985 7.20567 5.0047 7.35647 5.06146 7.49351C5.11823 7.63056 5.21436 7.74769 5.3377 7.8301C5.46103 7.91251 5.60604 7.9565 5.75437 7.9565C5.95329 7.9565 6.14405 7.87748 6.2847 7.73683C6.42536 7.59618 6.50437 7.40541 6.50437 7.2065Z" fill="black"/>
</svg>
