<svg width="24" height="24" viewBox="0 0 24 24" fill="none" xmlns="http://www.w3.org/2000/svg">
<path d="M12 2C10.0222 2 8.08879 2.58649 6.4443 3.6853C4.79981 4.78412 3.51809 6.3459 2.76121 8.17317C2.00433 10.0004 1.8063 12.0111 2.19215 13.9509C2.578 15.8907 3.53041 17.6725 4.92894 19.0711C6.32746 20.4696 8.10929 21.422 10.0491 21.8079C11.9889 22.1937 13.9996 21.9957 15.8268 21.2388C17.6541 20.4819 19.2159 19.2002 20.3147 17.5557C21.4135 15.9112 22 13.9778 22 12C22 10.6868 21.7413 9.38642 21.2388 8.17317C20.7363 6.95991 19.9997 5.85752 19.0711 4.92893C18.1425 4.00035 17.0401 3.26375 15.8268 2.7612C14.6136 2.25866 13.3132 2 12 2ZM6.0929 6.036C6.34791 6.0749 6.58073 6.20334 6.74963 6.39832C6.91853 6.59329 7.01247 6.84205 7.0146 7.1C7.0146 7.39174 6.89871 7.67153 6.69242 7.87782C6.48613 8.08411 6.20634 8.2 5.9146 8.2H4.5184C4.92479 7.39951 5.4563 6.66899 6.0929 6.036ZM12 20.4C10.4102 20.3975 8.85362 19.944 7.51121 19.0923C6.16879 18.2405 5.09557 17.0253 4.4162 15.5879H5.3055C5.96855 15.5879 6.60443 15.3245 7.07327 14.8557C7.54211 14.3868 7.8055 13.7509 7.8055 13.0879V9.6666H11C11.7957 9.6666 12.5587 9.35053 13.1213 8.78792C13.6839 8.22531 14 7.46225 14 6.6666V3.8506C15.9942 4.33838 17.7405 5.54 18.9087 7.2282C20.0769 8.9164 20.586 10.9742 20.3397 13.0123C20.0933 15.0504 19.1087 16.9277 17.572 18.289C16.0353 19.6503 14.053 20.4013 12 20.4ZM15.3364 11.018H15.291C14.8834 11.0186 14.4801 11.1025 14.1061 11.2646C13.7321 11.4267 13.3951 11.6636 13.1159 11.9606L11.6682 13.5006V17H15.3409C16.1342 16.9994 16.8947 16.6837 17.4552 16.1224C18.0157 15.561 18.3303 14.8 18.3297 14.0068C18.3291 13.2135 18.0134 12.453 17.452 11.8925C16.8907 11.332 16.1297 11.0174 15.3364 11.018Z" fill="black"/>
</svg>
