<svg width="24" height="24" viewBox="0 0 24 24" fill="none" xmlns="http://www.w3.org/2000/svg">
<path d="M12 2C10.0222 2 8.08879 2.58649 6.4443 3.6853C4.79981 4.78412 3.51809 6.3459 2.76121 8.17317C2.00433 10.0004 1.8063 12.0111 2.19215 13.9509C2.578 15.8907 3.53041 17.6725 4.92894 19.0711C6.32746 20.4696 8.10929 21.422 10.0491 21.8079C11.9889 22.1937 13.9996 21.9957 15.8268 21.2388C17.6541 20.4819 19.2159 19.2002 20.3147 17.5557C21.4135 15.9112 22 13.9778 22 12C22 10.6868 21.7413 9.38642 21.2388 8.17317C20.7363 6.95991 19.9997 5.85752 19.0711 4.92893C18.1425 4.00035 17.0401 3.26375 15.8268 2.7612C14.6136 2.25866 13.3132 2 12 2ZM18.5757 8.7833L19.101 7.3406C19.566 8.0477 19.9223 8.82057 20.158 9.6334H19.1708C19.069 9.63338 18.9687 9.60882 18.8784 9.5618C18.7881 9.51477 18.7104 9.44668 18.652 9.36327C18.5937 9.27987 18.5562 9.18362 18.5429 9.08267C18.5296 8.98173 18.5409 8.87907 18.5757 8.7834V8.7833ZM4.8 16.4964C4.34708 15.7735 4.00628 14.9862 3.7892 14.1613C3.93506 14.1066 4.08925 14.0774 4.245 14.0751H4.249C4.53849 14.0734 4.81988 14.1706 5.04667 14.3505C5.27346 14.5304 5.43208 14.7823 5.49632 15.0646C5.56055 15.3469 5.52656 15.6426 5.39995 15.903C5.27335 16.1633 5.0617 16.3726 4.8 16.4964ZM12 20.5C10.7914 20.4993 9.59686 20.2401 8.49665 19.7398C7.39644 19.2395 6.41599 18.5096 5.6211 17.5991C6.11478 17.3012 6.49711 16.8496 6.70947 16.3135C6.92182 15.7775 6.95246 15.1866 6.7967 14.6314C6.64094 14.0763 6.30737 13.5875 5.84716 13.2402C5.38694 12.8928 4.82549 12.706 4.2489 12.7084H4.2449C4.00657 12.7125 3.76989 12.7489 3.5413 12.8165C3.5156 12.5475 3.5 12.2756 3.5 12C3.50069 10.7934 3.75904 9.60088 4.25779 8.50219C4.75654 7.4035 5.48417 6.42399 6.392 5.6292C6.38493 5.65686 6.37925 5.68486 6.375 5.7131C6.375 5.95342 6.47047 6.1839 6.64039 6.35384C6.81031 6.52379 7.04078 6.61927 7.2811 6.6193H7.3026H7.3171C7.50454 6.62874 7.68087 6.71106 7.80846 6.8487C7.93604 6.98633 8.00478 7.16839 8 7.356V10.4214C8.00251 11.1893 8.29719 11.9275 8.8242 12.486C8.843 12.506 8.8856 12.5497 8.9051 12.5691L10.48 14.14L10.5791 14.3015L10.5476 18.9793L10.8455 19.1405H12.8681C13.4838 19.1405 14.0845 18.9511 14.5888 18.598C15.0932 18.2449 15.4766 17.7451 15.6872 17.1666L16.5899 14.6866C16.653 14.5041 16.7029 14.3173 16.7391 14.1277C16.7831 13.8434 16.7656 13.553 16.6879 13.276C16.6101 12.9991 16.4739 12.742 16.2884 12.5221C16.1029 12.3023 15.8724 12.1247 15.6124 12.0015C15.3525 11.8782 15.0691 11.8122 14.7815 11.8077H11.6094C11.4768 11.8077 11.3496 11.755 11.2559 11.6613C11.1621 11.5675 11.1094 11.4403 11.1094 11.3077C11.1094 11.1751 11.1621 11.0479 11.2559 10.9541C11.3496 10.8604 11.4768 10.8077 11.6094 10.8077H13.8713C14.0766 10.8078 14.2769 10.7446 14.4451 10.6269C14.6132 10.5092 14.7411 10.3426 14.8113 10.1497L15.7787 7.4917C15.8887 7.18957 15.9242 6.86538 15.8822 6.54662C15.8402 6.22785 15.722 5.9239 15.5376 5.66053C15.3532 5.39716 15.108 5.18213 14.8228 5.03367C14.5376 4.88521 14.2208 4.8077 13.8993 4.8077H7.4921C9.13795 3.76766 11.0924 3.32766 13.0251 3.56206C14.9579 3.79646 16.7505 4.69088 18.1 6.0942L17.2912 8.3159C17.1812 8.61805 17.1457 8.94227 17.1877 9.26106C17.2297 9.57986 17.3479 9.88384 17.5323 10.1472C17.7168 10.4106 17.962 10.6256 18.2472 10.7741C18.5324 10.9225 18.8493 11 19.1708 11H20.4359C20.5837 12.193 20.4755 13.4039 20.1186 14.5519C19.7617 15.6998 19.1642 16.7585 18.366 17.6574C17.5678 18.5563 16.5871 19.2748 15.4894 19.765C14.3917 20.2551 13.2022 20.5057 12 20.5ZM9.75 11.47C9.50397 11.1758 9.36846 10.8048 9.3669 10.4213V7.356C9.36812 6.93512 9.24387 6.52343 9.01 6.1735H13.899C14.0008 6.1735 14.1011 6.19804 14.1915 6.24506C14.2818 6.29207 14.3594 6.36018 14.4178 6.44359C14.4762 6.527 14.5136 6.62326 14.5269 6.72421C14.5402 6.82516 14.5289 6.92782 14.4941 7.0235L13.6141 9.4402H11.6094C11.364 9.4402 11.121 9.48859 10.8943 9.58261C10.6676 9.67663 10.4617 9.81442 10.2883 9.98811C10.1149 10.1618 9.97747 10.368 9.88385 10.5948C9.79023 10.8217 9.74227 11.0648 9.7427 11.3102C9.7429 11.3642 9.74534 11.4175 9.75 11.47ZM11.7439 13.5865L11.6448 13.425L11.5599 13.2866L11.445 13.172L11.4386 13.1657C11.495 13.1708 11.552 13.1733 11.6096 13.1734H14.7813C14.8625 13.1714 14.9431 13.1874 15.0173 13.2202C15.0915 13.2531 15.1575 13.302 15.2106 13.3634C15.2759 13.4394 15.3253 13.5276 15.3559 13.623C15.3865 13.7184 15.3976 13.8189 15.3887 13.9187C15.3765 13.9807 15.3256 14.1617 15.3055 14.2187L14.4027 16.6987C14.2874 17.0133 14.0785 17.2849 13.8041 17.4771C13.5297 17.6693 13.2029 17.7727 12.8679 17.7734H11.9223L11.9455 14.3102L11.9481 13.9195L11.7439 13.5865Z" fill="black"/>
</svg>
