<svg width="24" height="24" viewBox="0 0 24 24" fill="none" xmlns="http://www.w3.org/2000/svg">
<path d="M22.6719 9.00004L12 1.03174L1.32809 9.00004L5.34589 12L1.32809 15L12 22.9683L22.6719 15L18.6541 12L22.6719 9.00004ZM2.99999 9.00004L12 2.28004L21 9.00004L12 15.72L2.99999 9.00004ZM21 15L12 21.72L2.99999 15L6.18209 12.624L12 16.9683L17.8183 12.624L21 15ZM14.084 11.791L14.791 11.084L12.707 9.00004L14.791 6.91604L14.084 6.20904L12 8.29304L9.91599 6.20904L9.20899 6.91604L11.293 9.00004L9.20899 11.084L9.91599 11.791L12 9.70704L14.084 11.791Z" fill="black"/>
</svg>
