<svg width="24" height="24" viewBox="0 0 24 24" fill="none" xmlns="http://www.w3.org/2000/svg">
<path d="M12 2C10.0222 2 8.08879 2.58649 6.4443 3.6853C4.79981 4.78412 3.51809 6.3459 2.76121 8.17317C2.00433 10.0004 1.8063 12.0111 2.19215 13.9509C2.578 15.8907 3.53041 17.6725 4.92894 19.0711C6.32746 20.4696 8.10929 21.422 10.0491 21.8079C11.9889 22.1937 13.9996 21.9957 15.8268 21.2388C17.6541 20.4819 19.2159 19.2002 20.3147 17.5557C21.4135 15.9112 22 13.9778 22 12C22 10.6868 21.7413 9.38642 21.2388 8.17317C20.7363 6.95991 19.9997 5.85752 19.0711 4.92893C18.1425 4.00035 17.0401 3.26375 15.8268 2.7612C14.6136 2.25866 13.3132 2 12 2ZM18.3349 6.8C19.2409 7.90398 19.8415 9.22627 20.0768 10.6349C19.9047 10.2114 19.6104 9.84874 19.2314 9.59318C18.8524 9.33762 18.4058 9.20074 17.9487 9.2H14.7077L15.5333 6.9316C15.5474 6.89308 15.573 6.85981 15.6066 6.83628C15.6403 6.81275 15.6803 6.80009 15.7213 6.8H18.3349ZM7.899 6.6069C7.93116 6.60689 7.96285 6.61463 7.99137 6.62948C8.0199 6.64432 8.04443 6.66582 8.06288 6.69216C8.08133 6.7185 8.09315 6.7489 8.09735 6.78078C8.10155 6.81266 8.098 6.84508 8.087 6.8753L7.3111 9.0069H5.6094C5.0922 9.00872 4.59106 9.18674 4.1886 9.5116C4.53316 8.44027 5.09485 7.45147 5.8386 6.6069H7.899ZM3.8246 12.4861L5.5791 14.239L5.556 17.0543C4.52526 15.7445 3.92096 14.1501 3.8246 12.4861ZM7.4336 18.8069H7.5354C8.15107 18.8069 8.75184 18.6175 9.25616 18.2643C9.76048 17.9112 10.1439 17.4114 10.3545 16.8329L11.2069 14.4909C11.3169 14.1888 11.3524 13.8646 11.3104 13.5458C11.2684 13.227 11.1502 12.9231 10.9658 12.6597C10.7814 12.3964 10.5362 12.1813 10.251 12.0329C9.9658 11.8844 9.64902 11.8069 9.3275 11.8069H5.6094C5.4768 11.8069 5.34962 11.7542 5.25585 11.6605C5.16208 11.5667 5.1094 11.4395 5.1094 11.3069C5.1094 11.1743 5.16208 11.0471 5.25585 10.9533C5.34962 10.8596 5.4768 10.8069 5.6094 10.8069H7.8713C8.07658 10.807 8.2769 10.7438 8.44507 10.6261C8.61323 10.5084 8.7411 10.3418 8.8113 10.1489L9.7787 7.4909C9.88388 7.20068 9.92019 6.89 9.88475 6.58335C9.84931 6.2767 9.7431 5.98248 9.5745 5.7239C9.4059 5.46533 9.17952 5.24946 8.91322 5.09334C8.64692 4.93722 8.34799 4.84512 8.04 4.8243C9.3012 4.12384 10.7258 3.77099 12.1682 3.80187C13.6105 3.83274 15.0187 4.24622 16.2488 5H15.7213C15.3109 5 14.9103 5.12628 14.5741 5.36171C14.2379 5.59713 13.9823 5.9303 13.8419 6.316L12.87 8.9869C12.7875 9.21348 12.7609 9.4566 12.7923 9.69566C12.8238 9.93472 12.9124 10.1627 13.0507 10.3602C13.189 10.5577 13.3728 10.719 13.5867 10.8304C13.8005 10.9418 14.0381 10.9999 14.2792 11H17.9487C18.0813 11 18.2085 11.0527 18.3023 11.1464C18.396 11.2402 18.4487 11.3674 18.4487 11.5C18.4487 11.6326 18.396 11.7598 18.3023 11.8536C18.2085 11.9473 18.0813 12 17.9487 12H15.637C14.974 12 14.3381 12.2634 13.8692 12.7322C13.4004 13.2011 13.137 13.837 13.137 14.5V14.8993C13.137 15.4564 13.3583 15.9908 13.7523 16.3847C14.1462 16.7787 14.6806 17 15.2377 17H16.037C16.0635 17 16.089 17.0105 16.1077 17.0293C16.1265 17.048 16.137 17.0735 16.137 17.1V18.3878C16.1389 18.5982 16.1721 18.8072 16.2355 19.0078C14.903 19.8203 13.3653 20.2332 11.8051 20.1976C10.2448 20.1619 8.72757 19.6791 7.4336 18.8066V18.8069ZM7.3565 17.0069L7.379 14.2537L7.3843 13.6069H9.3275C9.35966 13.6069 9.39135 13.6146 9.41987 13.6295C9.4484 13.6443 9.47293 13.6658 9.49138 13.6922C9.50983 13.7185 9.52165 13.7489 9.52585 13.7808C9.53005 13.8127 9.5265 13.8451 9.5155 13.8753L8.6631 16.2173C8.57846 16.4485 8.42498 16.6482 8.22334 16.7894C8.0217 16.9307 7.7816 17.0067 7.5354 17.0073L7.3565 17.0069ZM17.937 17.64V17.1C17.9364 16.5963 17.7361 16.1133 17.3799 15.7571C17.0237 15.4009 16.5407 15.2006 16.037 15.2H15.2377C15.158 15.1999 15.0815 15.1682 15.0252 15.1118C14.9688 15.0555 14.9371 14.979 14.937 14.8993V14.5C14.9372 14.3144 15.011 14.1365 15.1423 14.0053C15.2735 13.874 15.4514 13.8002 15.637 13.8H17.9487C18.4762 13.7992 18.9874 13.6174 19.397 13.2849C19.8065 12.9524 20.0895 12.4895 20.1987 11.9734L20.2 12C20.1996 14.1012 19.389 16.1213 17.937 17.64Z" fill="black"/>
</svg>
