<svg width="24" height="24" viewBox="0 0 24 24" fill="none" xmlns="http://www.w3.org/2000/svg">
<path d="M19.4376 5H2V19H19.4376L23.4376 12L19.4376 5ZM18.2769 17H4V7H18.2769L21.1341 12L18.2769 17ZM17 10.65C16.733 10.65 16.472 10.7292 16.25 10.8775C16.028 11.0259 15.8549 11.2367 15.7528 11.4834C15.6506 11.7301 15.6238 12.0015 15.6759 12.2634C15.728 12.5252 15.8566 12.7658 16.0454 12.9546C16.2342 13.1434 16.4748 13.272 16.7366 13.3241C16.9985 13.3762 17.2699 13.3494 17.5166 13.2472C17.7633 13.1451 17.9741 12.972 18.1225 12.75C18.2708 12.528 18.35 12.267 18.35 12C18.35 11.642 18.2078 11.2986 17.9546 11.0454C17.7014 10.7922 17.358 10.65 17 10.65Z" fill="black"/>
</svg>
