<svg width="24" height="24" viewBox="0 0 24 24" fill="none" xmlns="http://www.w3.org/2000/svg">
<path d="M15.8461 10.9714C14.281 5.93931 11.7393 2.30141 9.77343 2.30141C9.64109 2.30111 9.50929 2.31825 9.38143 2.35241C7.37303 2.89081 6.85283 7.56001 8.09233 13.049L15.8461 10.9714ZM17.2786 10.5266L17.2961 10.5829L21.7941 9.37771C21.0804 7.34567 19.7863 5.56761 18.0721 4.26372C16.3579 2.95984 14.2989 2.18742 12.15 2.04211C14.296 3.46301 16.1093 6.76731 17.2786 10.5266ZM6.62933 13.38C5.79933 9.70421 5.65123 5.84001 6.80633 3.48071C5.02479 4.68334 3.63409 6.381 2.80567 8.36441C1.97725 10.3478 1.74733 12.5303 2.14423 14.6428L6.64233 13.4376L6.62933 13.38ZM14.9234 19.9841L13.1207 13.2541L11.6714 13.6425L13.3456 19.8925C10.1059 19.8294 6.89913 20.5526 4.00003 22H21.9442C19.7472 20.9036 17.3674 20.2203 14.9234 19.9841Z" fill="black"/>
</svg>
