<svg width="24" height="24" viewBox="0 0 24 24" fill="none" xmlns="http://www.w3.org/2000/svg">
<path d="M7.5 12C7.89556 12 8.28224 11.8827 8.61114 11.6629C8.94004 11.4432 9.19638 11.1308 9.34776 10.7654C9.49913 10.3999 9.53874 9.99778 9.46157 9.60982C9.3844 9.22186 9.19392 8.86549 8.91421 8.58579C8.63451 8.30608 8.27814 8.1156 7.89018 8.03843C7.50222 7.96126 7.10009 8.00087 6.73463 8.15224C6.36918 8.30362 6.05682 8.55996 5.83706 8.88886C5.6173 9.21776 5.5 9.60444 5.5 10C5.5 10.5304 5.71071 11.0391 6.08579 11.4142C6.46086 11.7893 6.96957 12 7.5 12ZM18 8H11V13.5H3.5V5H2V18H3.5V15H20.5V18H22V12C22 10.9391 21.5786 9.92172 20.8284 9.17157C20.0783 8.42143 19.0609 8 18 8Z" fill="black"/>
</svg>
