<svg width="24" height="24" viewBox="0 0 24 24" fill="none" xmlns="http://www.w3.org/2000/svg">
<path d="M6.9 10.3C7.27578 10.3 7.64313 10.1886 7.95558 9.97979C8.26804 9.77102 8.51156 9.47428 8.65537 9.1271C8.79918 8.77992 8.8368 8.39789 8.76349 8.02933C8.69018 7.66076 8.50922 7.32222 8.2435 7.0565C7.97778 6.79078 7.63924 6.60982 7.27067 6.53651C6.90211 6.4632 6.52008 6.50082 6.1729 6.64463C5.82572 6.78844 5.52898 7.03196 5.32021 7.34442C5.11143 7.65687 5 8.02422 5 8.4C5 8.90391 5.20018 9.38718 5.5565 9.7435C5.91282 10.0998 6.39609 10.3 6.9 10.3ZM6.9 7.35C7.10767 7.35 7.31068 7.41158 7.48335 7.52696C7.65602 7.64233 7.7906 7.80632 7.87007 7.99818C7.94955 8.19004 7.97034 8.40117 7.92982 8.60485C7.88931 8.80853 7.78931 8.99562 7.64246 9.14246C7.49562 9.28931 7.30853 9.38931 7.10485 9.42982C6.90117 9.47034 6.69004 9.44955 6.49818 9.37007C6.30632 9.2906 6.14233 9.15602 6.02696 8.98335C5.91158 8.81068 5.85 8.60767 5.85 8.4C5.85032 8.12162 5.96104 7.85473 6.15789 7.65789C6.35473 7.46104 6.62162 7.35032 6.9 7.35ZM2 3V21H22V3H2ZM18 20H11V16H16C16.5302 16.0006 17.0386 16.2115 17.4135 16.5865C17.7885 16.9614 17.9994 17.4698 18 18V20ZM21 20H19V18C19 17.2044 18.6839 16.4413 18.1213 15.8787C17.5587 15.3161 16.7956 15 16 15H10V20H3V12.5H21V20ZM11 11.5V7.5H16C16.5302 7.50061 17.0386 7.71152 17.4135 8.08646C17.7885 8.4614 17.9994 8.96975 18 9.5V11.5H11ZM21 11.5H19V9.5C19 8.70435 18.6839 7.94129 18.1213 7.37868C17.5587 6.81607 16.7956 6.5 16 6.5H10V11.5H3V4H21V11.5ZM6.9 18.8C7.27578 18.8 7.64313 18.6886 7.95558 18.4798C8.26804 18.271 8.51156 17.9743 8.65537 17.6271C8.79918 17.2799 8.8368 16.8979 8.76349 16.5293C8.69018 16.1608 8.50922 15.8222 8.2435 15.5565C7.97778 15.2908 7.63924 15.1098 7.27067 15.0365C6.90211 14.9632 6.52008 15.0008 6.1729 15.1446C5.82572 15.2884 5.52898 15.532 5.32021 15.8444C5.11143 16.1569 5 16.5242 5 16.9C5 17.1495 5.04914 17.3966 5.14463 17.6271C5.24011 17.8576 5.38007 18.0671 5.5565 18.2435C5.73293 18.4199 5.94238 18.5599 6.1729 18.6554C6.40342 18.7509 6.65049 18.8 6.9 18.8ZM6.9 15.85C7.10767 15.85 7.31068 15.9116 7.48335 16.027C7.65602 16.1423 7.7906 16.3063 7.87007 16.4982C7.94955 16.69 7.97034 16.9012 7.92982 17.1048C7.88931 17.3085 7.78931 17.4956 7.64246 17.6425C7.49562 17.7893 7.30853 17.8893 7.10485 17.9298C6.90117 17.9703 6.69004 17.9495 6.49818 17.8701C6.30632 17.7906 6.14233 17.656 6.02696 17.4833C5.91158 17.3107 5.85 17.1077 5.85 16.9C5.85032 16.6216 5.96104 16.3547 6.15789 16.1579C6.35473 15.961 6.62162 15.8503 6.9 15.85Z" fill="black"/>
</svg>
