<svg width="24" height="24" viewBox="0 0 24 24" fill="none" xmlns="http://www.w3.org/2000/svg">
<path d="M12 3.03998L0 9.99998L5 12.9V16.3094C5 16.836 5.13861 17.3533 5.40192 17.8094C5.66522 18.2655 6.04394 18.6442 6.5 18.9075L12 22.0829L17.5 18.9075C17.9561 18.6442 18.3348 18.2655 18.5981 17.8094C18.8614 17.3533 19 16.836 19 16.3094V12.9L23 10.58V17H24V9.99998L12 3.03998ZM12 4.19598L21.1448 9.49998H12V10.5H21.1448L12 15.804L1.9932 9.99998L12 4.19598ZM18 16.3094C17.9995 16.6603 17.9068 17.005 17.7313 17.3089C17.5558 17.6129 17.3037 17.8654 17 18.0414L12 20.9282L7 18.0414C6.69633 17.8654 6.44415 17.6129 6.26867 17.3089C6.09319 17.005 6.00054 16.6603 6 16.3094V13.48L12 16.96L18 13.48V16.3094Z" fill="black"/>
</svg>
