<svg width="24" height="24" viewBox="0 0 24 24" fill="none" xmlns="http://www.w3.org/2000/svg">
<path d="M23 11C23 10.6658 22.9792 10.3367 22.95 10.01C22.8828 10.0088 22.8175 9.99997 22.75 9.99997C20.5161 9.99784 18.3351 10.6795 16.5 11.9534C16.4996 10.0576 16.0985 8.18339 15.323 6.45354C14.5475 4.72369 13.415 3.1773 12 1.91577C10.585 3.1773 9.45254 4.72369 8.67702 6.45354C7.9015 8.18339 7.5004 10.0576 7.5 11.9534C5.66491 10.6795 3.48389 9.99784 1.25 9.99997C1.1825 9.99997 1.1172 10.0089 1.05 10.01C1.0208 10.3366 1 10.6657 1 11C1.00075 13.8817 2.13289 16.648 4.15275 18.7034C6.17261 20.7588 8.9187 21.939 11.8 21.99C11.8672 21.9912 11.9325 22 12 22C12.0675 22 12.1328 21.9911 12.2 21.99C15.0813 21.939 17.8274 20.7588 19.8472 18.7034C21.8671 16.648 22.9992 13.8817 23 11ZM8 11.9579C8.00338 10.209 8.35934 8.47867 9.04662 6.87044C9.73389 5.26222 10.7384 3.80907 12 2.59787C13.2616 3.80907 14.2661 5.26222 14.9534 6.87044C15.6407 8.47867 15.9966 10.209 16 11.9579C16 12.0867 15.9886 12.2141 15.98 12.3418C13.9527 13.9238 12.5443 16.1667 12 18.68C11.4558 16.1667 10.0474 13.9239 8.02 12.342C8.0115 12.2141 8 12.0867 8 11.9579ZM1.5 11C1.5 10.8436 1.5048 10.6805 1.5148 10.5033C4.25186 10.5754 6.85278 11.7125 8.76427 13.6729C10.6758 15.6332 11.747 18.262 11.75 21C11.75 21.1564 11.7452 21.3194 11.7352 21.4967C8.99814 21.4246 6.39722 20.2874 4.48573 18.3271C2.57424 16.3668 1.50304 13.738 1.5 11ZM12.2648 21.4967C12.2548 21.3194 12.25 21.1567 12.25 21C12.253 18.262 13.3242 15.6332 15.2357 13.6729C17.1472 11.7125 19.7481 10.5754 22.4852 10.5033C22.4952 10.6805 22.5 10.8433 22.5 11C22.497 13.738 21.4258 16.3668 19.5143 18.3271C17.6028 20.2874 15.0019 21.4246 12.2648 21.4967Z" fill="black"/>
</svg>
