<svg width="24" height="24" viewBox="0 0 24 24" fill="none" xmlns="http://www.w3.org/2000/svg">
<path d="M22.3447 17.7949C21.9453 18.124 21.5247 18.4385 21.0918 18.7305C20.6877 19.0048 20.2618 19.2605 19.8289 19.4981L18.5079 16.4952C18.173 15.7338 18 14.911 18 14.0792V8H20.23C20.6064 7.99981 20.9694 7.86059 21.2494 7.60907C21.5293 7.35756 21.7065 7.01148 21.7469 6.6373C21.7734 6.26935 21.6711 5.90364 21.4577 5.60274C21.2443 5.30184 20.9329 5.08447 20.5769 4.9878L18 4.2192V2H17.5C16.5718 2 15.6815 2.36875 15.0251 3.02513C14.3688 3.6815 14 4.57174 14 5.5V9H6.46881C5.95557 8.99987 5.4534 9.14923 5.02365 9.42981C4.59389 9.71039 4.25516 10.1101 4.04881 10.58L3.18361 12.5448L3.64061 12.746L4.50591 10.7811C4.64233 10.476 4.84867 10.2072 5.10824 9.99661C5.3678 9.78602 5.6733 9.6395 6.00001 9.5689V14.0789C6 14.9107 5.82704 15.7335 5.49211 16.4949L4.17091 19.4981C3.73841 19.26 3.31231 19.0048 2.90721 18.7305C2.47561 18.4385 2.05471 18.124 1.65531 17.7949L1.33691 18.1797C1.74801 18.5197 2.18261 18.8438 2.62691 19.1445C3.07121 19.4452 3.53511 19.7266 4.00971 19.9845C4.48621 20.2433 4.97971 20.4806 5.47451 20.6905C5.97741 20.9024 6.49501 21.0929 7.01551 21.255C7.54781 21.42 8.08881 21.5587 8.62201 21.6671C9.16791 21.7794 9.72841 21.8644 10.286 21.922C10.8573 21.9786 11.4345 22.0079 11.9999 22.0079C12.5653 22.0079 13.1425 21.9786 13.7138 21.922C14.2714 21.8644 14.8319 21.7794 15.3778 21.6671C15.9199 21.5566 16.4561 21.4187 16.9843 21.254C17.5043 21.0929 18.0224 20.9024 18.5253 20.6905C19.0204 20.4805 19.5136 20.2433 19.9901 19.9845C20.4647 19.7267 20.9296 19.4445 21.372 19.1445C21.8173 18.8438 22.252 18.5195 22.663 18.1797L22.3447 17.7949ZM16.8359 20.7764C16.3193 20.9364 15.7949 21.0713 15.2783 21.1764C14.7445 21.2862 14.2054 21.3686 13.6631 21.4234C12.5572 21.5348 11.4428 21.5348 10.3369 21.4234C9.79466 21.3686 9.25556 21.2862 8.72171 21.1764C8.20511 21.0709 7.68071 20.9364 7.16411 20.7769C6.66001 20.62 6.15721 20.4355 5.67001 20.23C5.62561 20.2112 5.58291 20.1859 5.53841 20.1666L6.84561 17.1951C7.00185 16.8397 7.25814 16.5375 7.58321 16.3253C7.90829 16.1131 8.2881 16 8.67631 16H15.3237C15.7119 16 16.0917 16.1129 16.4168 16.325C16.7419 16.5372 16.9982 16.8393 17.1545 17.1946L18.4617 20.1661C18.4172 20.1854 18.3745 20.2107 18.3301 20.2295C17.8428 20.4355 17.34 20.62 16.8359 20.7764Z" fill="black"/>
</svg>
