<svg width="24" height="24" viewBox="0 0 24 24" fill="none" xmlns="http://www.w3.org/2000/svg">
<path d="M16 5V4C16 3.46957 15.7893 2.96086 15.4142 2.58579C15.0391 2.21071 14.5304 2 14 2H10C9.46957 2 8.96086 2.21071 8.58579 2.58579C8.21071 2.96086 8 3.46957 8 4V5H2V21H22V5H16ZM8.5 4C8.50045 3.60231 8.65863 3.22104 8.93984 2.93984C9.22104 2.65863 9.60231 2.50045 10 2.5H14C14.3977 2.50045 14.779 2.65863 15.0602 2.93984C15.3414 3.22104 15.4995 3.60231 15.5 4V5H8.5V4ZM2.5 5.5H21.5V9C21.4993 9.66281 21.2356 10.2983 20.7669 10.7669C20.2983 11.2356 19.6628 11.4993 19 11.5H5C4.33719 11.4993 3.70173 11.2356 3.23305 10.7669C2.76437 10.2983 2.50074 9.66281 2.5 9V5.5ZM21.5 20.5H2.5V10.6546C2.77288 11.0682 3.14412 11.4076 3.58044 11.6424C4.01675 11.8772 4.50451 12.0001 5 12H11.75V14H12.25V12H19C19.4955 12.0001 19.9832 11.8772 20.4196 11.6424C20.8559 11.4076 21.2271 11.0682 21.5 10.6546V20.5Z" fill="black"/>
</svg>
