<svg width="24" height="24" viewBox="0 0 24 24" fill="none" xmlns="http://www.w3.org/2000/svg">
<path d="M7.05 12.1C7.45545 12.1 7.8518 11.9798 8.18892 11.7545C8.52604 11.5293 8.78879 11.2091 8.94395 10.8345C9.09911 10.4599 9.13971 10.0477 9.06061 9.65006C8.98151 9.2524 8.78627 8.88713 8.49957 8.60043C8.21287 8.31373 7.8476 8.11849 7.44993 8.03939C7.05227 7.96029 6.64009 8.00089 6.2655 8.15605C5.89091 8.31121 5.57074 8.57396 5.34549 8.91108C5.12023 9.2482 5 9.64455 5 10.05C5 10.5937 5.21598 11.1151 5.60043 11.4996C5.98488 11.884 6.50631 12.1 7.05 12.1ZM18 8H11V14H3V5H2V18H3V15H21V18H22V12C22 10.9391 21.5786 9.92172 20.8284 9.17157C20.0783 8.42143 19.0609 8 18 8Z" fill="black"/>
</svg>
