<svg width="24" height="24" viewBox="0 0 24 24" fill="none" xmlns="http://www.w3.org/2000/svg">
<g clip-path="url(#clip0)">
<path d="M12 0C9.61557 0.0027525 7.32959 0.951184 5.64354 2.63723C3.95749 4.32328 3.00905 6.60927 3.0063 8.9937C3.0063 15.7563 10.9912 23.021 11.3311 23.3267L12 23.9287L12.6689 23.3267C13.0089 23.021 20.9941 15.7567 20.9941 8.9937C20.9913 6.60922 20.0428 4.32322 18.3566 2.63718C16.6705 0.951136 14.3845 0.00272589 12 0V0ZM12 21.2C10.1336 19.3519 5.0063 13.8336 5.0063 8.9942C5.0063 7.1393 5.74316 5.36038 7.05477 4.04877C8.36638 2.73716 10.1453 2.0003 12.0002 2.0003C13.8551 2.0003 15.634 2.73716 16.9456 4.04877C18.2572 5.36038 18.9941 7.1393 18.9941 8.9942C18.9941 13.8327 13.8668 19.3511 12 21.2ZM9 10.5858V12H10.4142L13.6365 8.7778L12.2222 7.3636L9 10.5858ZM14.5809 5.9241C14.5205 5.86373 14.4489 5.81585 14.37 5.78318C14.2911 5.7505 14.2066 5.73369 14.1213 5.73369C14.0359 5.73369 13.9514 5.7505 13.8725 5.78318C13.7936 5.81585 13.722 5.86373 13.6616 5.9241L13.0707 6.5151L14.4849 7.9293L15.0759 7.3383C15.1978 7.2164 15.2663 7.05108 15.2663 6.8787C15.2663 6.70632 15.1978 6.541 15.0759 6.4191L14.5809 5.9241Z" fill="black"/>
</g>
<defs>
<clipPath id="clip0">
<rect width="24" height="24" fill="white"/>
</clipPath>
</defs>
</svg>
