<svg width="24" height="24" viewBox="0 0 24 24" fill="none" xmlns="http://www.w3.org/2000/svg">
<path d="M18.3945 2.98053L16.9805 4.39453L19.7578 7.17193H19.5C19.1717 7.17193 18.8466 7.23659 18.5433 7.36223C18.24 7.48787 17.9644 7.67202 17.7322 7.90416C17.5001 8.13631 17.3159 8.41191 17.1903 8.71522C17.0647 9.01854 17 9.34362 17 9.67193C17 10.0002 17.0647 10.3253 17.1903 10.6286C17.3159 10.932 17.5001 11.2076 17.7322 11.4397C17.9644 11.6718 18.24 11.856 18.5433 11.9816C18.8466 12.1073 19.1717 12.1719 19.5 12.1719H20V18C20 18.2652 19.8946 18.5196 19.7071 18.7071C19.5196 18.8947 19.2652 19 19 19C18.7348 19 18.4804 18.8947 18.2929 18.7071C18.1054 18.5196 18 18.2652 18 18V16C17.9991 15.2046 17.6828 14.4421 17.1204 13.8797C16.5579 13.3173 15.7954 13.0009 15 13H14V6.00003C14 5.20438 13.6839 4.44132 13.1213 3.87871C12.5587 3.3161 11.7956 3.00003 11 3.00003H5C4.20435 3.00003 3.44129 3.3161 2.87868 3.87871C2.31607 4.44132 2 5.20438 2 6.00003V21H14V15H15C15.2651 15.0003 15.5194 15.1057 15.7068 15.2932C15.8943 15.4807 15.9998 15.7349 16 16V18C16 18.7957 16.3161 19.5587 16.8787 20.1214C17.4413 20.684 18.2044 21 19 21C19.7956 21 20.5587 20.684 21.1213 20.1214C21.6839 19.5587 22 18.7957 22 18V6.58593L18.3945 2.98053ZM5 5.00003H11C11.2651 5.00032 11.5193 5.10577 11.7068 5.29324C11.8943 5.48072 11.9997 5.7349 12 6.00003V10H4V6.00003C4.00029 5.7349 4.10574 5.48072 4.29321 5.29324C4.48069 5.10577 4.73487 5.00032 5 5.00003ZM19.5 10.5718C19.2613 10.5718 19.0324 10.477 18.8636 10.3082C18.6948 10.1394 18.6 9.91052 18.6 9.67183C18.6 9.43313 18.6948 9.20422 18.8636 9.03543C19.0324 8.86665 19.2613 8.77183 19.5 8.77183H20V10.5718H19.5Z" fill="black"/>
</svg>
