<svg width="24" height="24" viewBox="0 0 24 24" fill="none" xmlns="http://www.w3.org/2000/svg">
<path d="M21.9 7.75742L16.2427 2.10052L14.8284 3.51482L13.4142 2.10052L11.2928 4.22182L14.4749 7.40382L7.40382 14.4749L4.22182 11.2929L2.10052 13.4142L3.51462 14.8284L2.10052 16.2426L7.75732 21.9L9.17163 20.4857L10.5858 21.9L12.7072 19.7787L9.52512 16.5967L16.5962 9.52563L19.7782 12.7076L21.9 10.5858L20.4854 9.17163L21.9 7.75742ZM16.2427 3.51472L20.4854 7.75742L19.7782 8.46453L15.5355 4.22182L16.2427 3.51472ZM7.75732 20.4853L3.51462 16.2426L4.22182 15.5355L8.46453 19.7782L7.75732 20.4853ZM11.293 19.7782L10.5858 20.4853L4.22182 14.1213L3.51462 13.4142L4.22182 12.7071L11.293 19.7782ZM8.81802 15.8891L8.11082 15.1819L15.182 8.11092L15.8892 8.81812L8.81802 15.8891ZM20.4854 10.5858L19.7782 11.2929L12.707 4.22182L13.4142 3.51472L19.7782 9.87873L20.4854 10.5858Z" fill="black"/>
</svg>
