<svg width="24" height="24" viewBox="0 0 24 24" fill="none" xmlns="http://www.w3.org/2000/svg">
<g clip-path="url(#clip0)">
<path d="M12 0C9.61555 0.0027525 7.32957 0.951184 5.64352 2.63723C3.95747 4.32328 3.00904 6.60927 3.00629 8.9937C3.00629 15.7563 10.9912 23.021 11.3311 23.3267L12 23.9287L12.6689 23.3267C13.0089 23.021 20.9941 15.7567 20.9941 8.9937C20.9913 6.60922 20.0427 4.32322 18.3566 2.63718C16.6705 0.951136 14.3845 0.00272589 12 0V0ZM12 12.9C11.822 12.9 11.648 12.8472 11.5 12.7483C11.352 12.6494 11.2366 12.5089 11.1685 12.3444C11.1004 12.18 11.0826 11.999 11.1173 11.8244C11.152 11.6498 11.2377 11.4895 11.3636 11.3636C11.4895 11.2377 11.6498 11.152 11.8244 11.1173C11.999 11.0826 12.1799 11.1004 12.3444 11.1685C12.5089 11.2366 12.6494 11.352 12.7483 11.5C12.8472 11.648 12.9 11.822 12.9 12C12.9 12.2387 12.8052 12.4676 12.6364 12.6364C12.4676 12.8052 12.2387 12.9 12 12.9ZM12.5682 10H11.4318L11.0863 5H12.9137L12.5682 10Z" fill="black"/>
</g>
<defs>
<clipPath id="clip0">
<rect width="24" height="24" fill="white"/>
</clipPath>
</defs>
</svg>
