<svg width="24" height="24" viewBox="0 0 24 24" fill="none" xmlns="http://www.w3.org/2000/svg">
<g clip-path="url(#clip0)">
<path d="M12 0C9.61557 0.0027525 7.32959 0.951184 5.64354 2.63723C3.95749 4.32328 3.00905 6.60927 3.0063 8.9937C3.0063 15.7563 10.9912 23.021 11.3311 23.3267L12 23.9287L12.6689 23.3267C13.0089 23.021 20.9941 15.7567 20.9941 8.9937C20.9913 6.60922 20.0428 4.32322 18.3566 2.63718C16.6705 0.951136 14.3845 0.00272589 12 0V0ZM12 22.5833C11.92 22.5114 4.0065 15.3207 4.0065 8.9939C4.0065 6.87379 4.84871 4.84051 6.34786 3.34136C7.84701 1.84221 9.88029 1 12.0004 1C14.1205 1 16.1538 1.84221 17.6529 3.34136C19.1521 4.84051 19.9943 6.87379 19.9943 8.9939C19.9941 15.3193 12.0821 22.51 12 22.5833ZM14.5031 5.8462C14.42 5.76308 14.3213 5.69714 14.2127 5.65215C14.1041 5.60717 13.9877 5.58401 13.8702 5.58401C13.7526 5.58401 13.6362 5.60717 13.5276 5.65215C13.419 5.69714 13.3203 5.76308 13.2372 5.8462L9 10.0834V12H10.9166L15.1538 7.7628C15.2369 7.67968 15.3029 7.581 15.3478 7.4724C15.3928 7.3638 15.416 7.2474 15.416 7.12985C15.416 7.0123 15.3928 6.8959 15.3478 6.7873C15.3029 6.6787 15.2369 6.58002 15.1538 6.4969L14.5031 5.8462ZM10.5852 11.2H9.8V10.4147L12.6781 7.5367L13.4634 8.3219L10.5852 11.2ZM14.5881 7.1971L14.0291 7.7562L13.2439 6.9709L13.8029 6.4119C13.8117 6.40306 13.8222 6.39604 13.8337 6.39125C13.8453 6.38646 13.8577 6.384 13.8702 6.384C13.8826 6.384 13.895 6.38646 13.9066 6.39125C13.9181 6.39604 13.9286 6.40306 13.9374 6.4119L14.5881 7.0626C14.6035 7.08161 14.612 7.10536 14.612 7.12985C14.612 7.15434 14.6035 7.17809 14.5881 7.1971Z" fill="black"/>
</g>
<defs>
<clipPath id="clip0">
<rect width="24" height="24" fill="white"/>
</clipPath>
</defs>
</svg>
