<svg width="24" height="24" viewBox="0 0 24 24" fill="none" xmlns="http://www.w3.org/2000/svg">
<path d="M12 2C10.0222 2 8.08879 2.58649 6.4443 3.6853C4.79981 4.78412 3.51809 6.3459 2.76121 8.17317C2.00433 10.0004 1.8063 12.0111 2.19215 13.9509C2.578 15.8907 3.53041 17.6725 4.92894 19.0711C6.32746 20.4696 8.10929 21.422 10.0491 21.8079C11.9889 22.1937 13.9996 21.9957 15.8268 21.2388C17.6541 20.4819 19.2159 19.2002 20.3147 17.5557C21.4135 15.9112 22 13.9778 22 12C22 10.6868 21.7413 9.38642 21.2388 8.17317C20.7363 6.95991 19.9997 5.85752 19.0711 4.92893C18.1425 4.00035 17.0401 3.26375 15.8268 2.7612C14.6136 2.25866 13.3132 2 12 2ZM4.5219 7H5.4375C5.5163 7 5.59432 7.01552 5.66711 7.04567C5.73991 7.07583 5.80605 7.12002 5.86177 7.17574C5.91748 7.23145 5.96168 7.29759 5.99183 7.37039C6.02199 7.44319 6.0375 7.52121 6.0375 7.6C6.0375 7.67879 6.02199 7.75681 5.99183 7.82961C5.96168 7.90241 5.91748 7.96855 5.86177 8.02426C5.80605 8.07998 5.73991 8.12417 5.66711 8.15433C5.59432 8.18448 5.5163 8.2 5.4375 8.2H3.8531C4.0451 7.78352 4.26868 7.38235 4.5219 7ZM3 12C3.00083 11.0486 3.15331 10.1034 3.4517 9.2H5.4375C5.86185 9.2 6.26882 9.03143 6.56888 8.73137C6.86893 8.43131 7.0375 8.02435 7.0375 7.6C7.0375 7.17565 6.86893 6.76869 6.56888 6.46863C6.26882 6.16857 5.86185 6 5.4375 6H5.3109C6.26127 4.92718 7.45654 4.09961 8.79519 3.5876C10.1338 3.07558 11.5763 2.89425 13 3.059V7C12.9994 7.53025 12.7885 8.0386 12.4135 8.41354C12.0386 8.78848 11.5303 8.99939 11 9H7.3333V12.9212C7.33283 13.3631 7.15709 13.7867 6.84465 14.0992C6.53221 14.4116 6.10858 14.5874 5.6667 14.5879H3.3833C3.12966 13.7487 3.00052 12.8767 3 12ZM12 21C10.2477 20.9978 8.534 20.4846 7.06885 19.5234C5.6037 18.5621 4.45065 17.1945 3.7509 15.5879H5.6667C6.37394 15.5879 7.0522 15.3069 7.55228 14.8068C8.05236 14.3067 8.3333 13.6284 8.3333 12.9212V10H11C11.7957 10 12.5587 9.68393 13.1213 9.12132C13.6839 8.55871 14 7.79565 14 7V3.2318C16.1573 3.72265 18.058 4.99122 19.339 6.79507C20.62 8.59892 21.1913 10.8115 20.9438 13.0101C20.6964 15.2086 19.6475 17.2388 17.9975 18.7128C16.3476 20.1867 14.2124 21.001 12 21ZM15.3409 11.018H15.2909C14.8833 11.0186 14.48 11.1025 14.106 11.2646C13.732 11.4267 13.395 11.6636 13.1158 11.9606L11.6681 13.5006V17H15.3407C16.134 17 16.8947 16.6849 17.4557 16.124C18.0166 15.563 18.3317 14.8023 18.3317 14.009C18.3317 13.2158 18.0166 12.4551 17.4557 11.8941C16.8948 11.3332 16.1341 11.0181 15.3409 11.018ZM15.3409 16.0667H12.6015V13.8708L13.796 12.6C13.9943 12.3919 14.2335 12.2269 14.4984 12.1153C14.7634 12.0037 15.0485 11.948 15.336 11.9515H15.3405C15.8837 11.9553 16.4034 12.1737 16.7862 12.5592C17.169 12.9447 17.3839 13.4659 17.3839 14.0091C17.3839 14.5524 17.169 15.0736 16.7862 15.4591C16.4034 15.8446 15.8837 16.063 15.3405 16.0668L15.3409 16.0667Z" fill="black"/>
</svg>
