<svg width="24" height="24" viewBox="0 0 24 24" fill="none" xmlns="http://www.w3.org/2000/svg">
<path d="M18.291 3.084L17.584 3.791L20.9648 7.1719H19.9141C19.6616 7.17007 19.4112 7.21824 19.1774 7.31361C18.9435 7.40898 18.7309 7.54968 18.5517 7.72759C18.3725 7.90551 18.2303 8.11713 18.1332 8.35026C18.0361 8.58339 17.9862 8.83342 17.9862 9.08595C17.9862 9.33848 18.0361 9.58851 18.1332 9.82164C18.2303 10.0548 18.3725 10.2664 18.5517 10.4443C18.7309 10.6222 18.9435 10.7629 19.1774 10.8583C19.4112 10.9537 19.6616 11.0018 19.9141 11H21V18.5C21 18.8978 20.842 19.2794 20.5607 19.5607C20.2794 19.842 19.8978 20 19.5 20C19.1022 20 18.7206 19.842 18.4393 19.5607C18.158 19.2794 18 18.8978 18 18.5V16C17.9993 15.3372 17.7357 14.7017 17.267 14.233C16.7983 13.7643 16.1628 13.5007 15.5 13.5H14V6C14 5.20435 13.6839 4.44129 13.1213 3.87868C12.5587 3.31607 11.7956 3 11 3H5C4.20435 3 3.44129 3.31607 2.87868 3.87868C2.31607 4.44129 2 5.20435 2 6V21H14V14.5H15.5C15.8977 14.5005 16.279 14.6586 16.5602 14.9398C16.8414 15.221 16.9995 15.6023 17 16V18.5C17 19.163 17.2634 19.7989 17.7322 20.2678C18.2011 20.7366 18.837 21 19.5 21C20.163 21 20.7989 20.7366 21.2678 20.2678C21.7366 19.7989 22 19.163 22 18.5V6.793L18.291 3.084ZM13 20H3V11H13V20ZM13 10H3V6C3.00061 5.46975 3.21152 4.9614 3.58646 4.58646C3.9614 4.21152 4.46975 4.00061 5 4H11C11.5302 4.00061 12.0386 4.21152 12.4135 4.58646C12.7885 4.9614 12.9994 5.46975 13 6V10ZM19.9141 10C19.7933 10.0013 19.6734 9.97856 19.5614 9.93319C19.4494 9.88782 19.3475 9.82069 19.2616 9.73569C19.1757 9.65069 19.1075 9.54949 19.0609 9.43797C19.0144 9.32644 18.9904 9.2068 18.9904 9.08595C18.9904 8.9651 19.0144 8.84546 19.0609 8.73393C19.1075 8.62241 19.1757 8.52122 19.2616 8.43621C19.3475 8.35121 19.4494 8.28408 19.5614 8.23871C19.6734 8.19334 19.7933 8.17064 19.9141 8.1719H21V10H19.9141Z" fill="black"/>
</svg>
