<svg width="24" height="24" viewBox="0 0 24 24" fill="none" xmlns="http://www.w3.org/2000/svg">
<path d="M22.1855 17.35C21.793 17.6742 21.3779 17.9838 20.9521 18.2709C20.5529 18.5409 20.1331 18.7932 19.7053 19.028L18.5079 16.3062C18.1729 15.5447 18 14.7219 18 13.89V8H20.23C20.6063 7.99981 20.9693 7.86059 21.2493 7.60907C21.5293 7.35756 21.7065 7.01148 21.7469 6.6373C21.7733 6.26935 21.6711 5.90364 21.4577 5.60274C21.2442 5.30185 20.9329 5.08447 20.5769 4.9878L18 4.2192V2H17.5C16.5717 2 15.6815 2.36875 15.0251 3.02513C14.3687 3.6815 14 4.57174 14 5.5V9H6.83497C6.16429 9.00015 5.50813 9.19542 4.94649 9.56199C4.38485 9.92856 3.94198 10.4506 3.67187 11.0645L2.95407 12.6945L3.87007 13.0969L4.58787 11.4669C4.72291 11.1655 4.91767 10.8946 5.16038 10.6706C5.40309 10.4465 5.68871 10.2741 5.99997 10.1636V13.89C5.99995 14.7218 5.82699 15.5446 5.49207 16.306L4.29437 19.0281C3.86737 18.7931 3.44737 18.5408 3.04687 18.2695C2.62207 17.9834 2.20687 17.6738 1.81447 17.3495L1.17767 18.1195C1.59567 18.4662 2.03607 18.7953 2.48767 19.0995C2.93687 19.4042 3.40957 19.6904 3.88997 19.9521C4.37037 20.2138 4.87247 20.456 5.37827 20.6698C5.89097 20.8857 6.41737 21.078 6.94177 21.2411C7.46917 21.4052 8.01797 21.5468 8.57267 21.6611C9.13027 21.7743 9.69857 21.8611 10.2611 21.9179C11.4176 22.0351 12.5831 22.0351 13.7397 21.9179C14.3022 21.8613 14.8705 21.7743 15.4291 21.6611C15.9828 21.5468 16.5316 21.4052 17.0591 21.2411C17.5835 21.078 18.1099 20.8857 18.6226 20.6698C19.1284 20.456 19.6294 20.2138 20.1099 19.9521C20.5904 19.6904 21.064 19.4042 21.5122 19.1005C21.9644 18.7958 22.4048 18.4667 22.8228 18.1205L22.1855 17.35ZM16.7617 20.2856C16.2575 20.4427 15.7458 20.5743 15.2285 20.6801C14.7031 20.7875 14.168 20.8686 13.6377 20.9233C12.5486 21.0326 11.4513 21.0326 10.3623 20.9233C9.83227 20.8686 9.29687 20.7875 8.77227 20.6801C8.25457 20.5745 7.74252 20.4428 7.23807 20.2856C6.75537 20.1356 6.27227 19.9573 5.80027 19.7599L6.92847 17.195C7.08478 16.8395 7.3412 16.5372 7.66643 16.325C7.99166 16.1128 8.37164 15.9999 8.75997 16H15.241C15.6291 16 16.0089 16.1129 16.334 16.325C16.6591 16.5372 16.9155 16.8393 17.0718 17.1946L18.2 19.76C17.7275 19.9569 17.2444 20.1354 16.7617 20.2852V20.2856Z" fill="black"/>
</svg>
