<svg width="24" height="24" viewBox="0 0 24 24" fill="none" xmlns="http://www.w3.org/2000/svg">
<path d="M14.8164 20.1128C14.0513 19.401 13.045 19.0054 12 19.0054C10.955 19.0054 9.94873 19.401 9.1836 20.1128C8.58382 20.6579 7.80999 20.9723 7 21C6.19001 20.9723 5.41618 20.6579 4.8164 20.1128C4.03722 19.423 3.04028 19.029 2 19V20C2.80999 20.0277 3.58382 20.3421 4.1836 20.8872C4.96278 21.577 5.95972 21.971 7 22C8.04028 21.971 9.03722 21.577 9.8164 20.8872C10.3983 20.3134 11.1827 19.9917 12 19.9917C12.8173 19.9917 13.6017 20.3134 14.1836 20.8872C14.9628 21.577 15.9597 21.971 17 22C18.0403 21.971 19.0372 21.577 19.8164 20.8872C20.4162 20.3421 21.19 20.0277 22 20V19C20.9597 19.029 19.9628 19.423 19.1836 20.1128C18.6017 20.6866 17.8173 21.0083 17 21.0083C16.1827 21.0083 15.3983 20.6866 14.8164 20.1128ZM19.1836 15.6128C18.7716 16.0157 18.2548 16.2949 17.692 16.4187C17.1292 16.5424 16.543 16.5057 16 16.3128V4C16 3.46957 15.7893 2.96086 15.4142 2.58579C15.0391 2.21071 14.5304 2 14 2H13V3H14C14.2651 3.00029 14.5193 3.10574 14.7068 3.29321C14.8943 3.48069 14.9997 3.73487 15 4V6H9V4C9 3.46957 8.78929 2.96086 8.41421 2.58579C8.03914 2.21071 7.53043 2 7 2H6V3H7C7.26513 3.00029 7.51931 3.10574 7.70679 3.29321C7.89426 3.48069 7.99971 3.73487 8 4V16.309C7.68075 16.4319 7.34206 16.4966 7 16.5C6.19001 16.4723 5.41618 16.1579 4.8164 15.6128C4.03722 14.923 3.04028 14.529 2 14.5V15.5C2.80999 15.5277 3.58382 15.8421 4.1836 16.3872C4.96278 17.077 5.95972 17.471 7 17.5C8.04028 17.471 9.03722 17.077 9.8164 16.3872C10.3983 15.8134 11.1827 15.4917 12 15.4917C12.8173 15.4917 13.6017 15.8134 14.1836 16.3872C14.9628 17.077 15.9597 17.471 17 17.5C18.0403 17.471 19.0372 17.077 19.8164 16.3872C20.4162 15.8421 21.19 15.5277 22 15.5V14.5C20.9597 14.529 19.9628 14.923 19.1836 15.6128ZM15 15.7441C14.9387 15.6983 14.8777 15.6628 14.8164 15.6128C14.0513 14.901 13.045 14.5054 12 14.5054C10.955 14.5054 9.94873 14.901 9.1836 15.6128C9.1221 15.6628 9.0613 15.6983 9 15.7441V13H15V15.7441ZM15 12H9V10H15V12ZM15 9H9V7H15V9Z" fill="black"/>
</svg>
