<svg width="24" height="24" viewBox="0 0 24 24" fill="none" xmlns="http://www.w3.org/2000/svg">
<path d="M8 6.9939L5.4219 11.8594H8V15.0061L10.5781 10.1406H8V6.9939ZM22.5 3V6H19.5V3H18V6.9774C18.6593 7.47786 19.4323 7.80717 20.25 7.9359V18.4287C20.2514 18.5683 20.225 18.7068 20.1725 18.8362C20.12 18.9656 20.0424 19.0833 19.9442 19.1825C19.8459 19.2817 19.729 19.3605 19.6001 19.4143C19.4712 19.468 19.333 19.4957 19.1933 19.4957C19.0537 19.4957 18.9155 19.468 18.7866 19.4143C18.6577 19.3605 18.5408 19.2817 18.4425 19.1825C18.3443 19.0833 18.2667 18.9656 18.2142 18.8362C18.1617 18.7068 18.1353 18.5683 18.1367 18.4287V15.8066C18.136 15.1289 17.8666 14.4792 17.3875 13.9999C16.9084 13.5206 16.2588 13.2509 15.5811 13.25H14V6C14 5.20435 13.6839 4.44129 13.1213 3.87868C12.5587 3.31607 11.7956 3 11 3H5C4.20435 3 3.44129 3.31607 2.87868 3.87868C2.31607 4.44129 2 5.20435 2 6V21H14V14.75H15.5811C15.8611 14.7505 16.1295 14.862 16.3273 15.0601C16.5252 15.2581 16.6365 15.5266 16.6367 15.8066V18.4287C16.6346 18.7658 16.6992 19.1 16.8267 19.412C16.9542 19.724 17.1422 20.0078 17.3798 20.2469C17.6175 20.486 17.9 20.6758 18.2113 20.8052C18.5225 20.9347 18.8563 21.0014 19.1933 21.0014C19.5304 21.0014 19.8642 20.9347 20.1754 20.8052C20.4867 20.6758 20.7692 20.486 21.0069 20.2469C21.2445 20.0078 21.4325 19.724 21.56 19.412C21.6875 19.1 21.7521 18.7658 21.75 18.4287V7.9359C22.5677 7.80717 23.3407 7.47786 24 6.9774V3H22.5ZM12.5 19.5H3.5V6C3.50045 5.60231 3.65863 5.22104 3.93984 4.93984C4.22104 4.65863 4.60231 4.50045 5 4.5H11C11.3977 4.50045 11.779 4.65863 12.0602 4.93984C12.3414 5.22104 12.4995 5.60231 12.5 6V19.5Z" fill="black"/>
</svg>
