<svg width="24" height="24" viewBox="0 0 24 24" fill="none" xmlns="http://www.w3.org/2000/svg">
<path d="M19.071 4.92889C17.6725 3.53036 15.8906 2.57795 13.9508 2.19209C12.011 1.80624 10.0003 2.00427 8.17309 2.76114C6.34582 3.51802 4.78403 4.79974 3.68522 6.44424C2.5864 8.08873 1.99991 10.0221 1.99991 11.9999C1.99991 13.9778 2.5864 15.9112 3.68522 17.5557C4.78403 19.2001 6.34582 20.4819 8.17309 21.2387C10.0003 21.9956 12.011 22.1936 13.9508 21.8078C15.8906 21.4219 17.6725 20.4695 19.071 19.071C20.9463 17.1956 21.9999 14.6521 21.9999 11.9999C21.9999 9.34779 20.9463 6.80426 19.071 4.92889ZM12.1919 16.5038L10.8514 13.0327L7.37999 11.6921L15.4724 8.41139L12.1919 16.5038Z" fill="black"/>
</svg>
