<svg width="24" height="24" viewBox="0 0 24 24" fill="none" xmlns="http://www.w3.org/2000/svg">
<path d="M7.1 15.8C7.33734 15.8 7.56934 15.7296 7.76668 15.5978C7.96402 15.4659 8.11783 15.2785 8.20866 15.0592C8.29948 14.8399 8.32324 14.5987 8.27694 14.3659C8.23064 14.1331 8.11635 13.9193 7.94853 13.7515C7.78071 13.5836 7.56689 13.4694 7.33411 13.4231C7.10133 13.3768 6.86005 13.4005 6.64078 13.4913C6.42151 13.5822 6.23409 13.736 6.10224 13.9333C5.97038 14.1307 5.9 14.3627 5.9 14.6C5.9 14.7576 5.93104 14.9136 5.99134 15.0592C6.05165 15.2048 6.14004 15.3371 6.25147 15.4485C6.3629 15.56 6.49519 15.6483 6.64078 15.7087C6.78637 15.769 6.94241 15.8 7.1 15.8ZM7.1 7.8C7.33734 7.8 7.56934 7.72962 7.76668 7.59776C7.96402 7.46591 8.11783 7.27849 8.20866 7.05922C8.29948 6.83995 8.32324 6.59867 8.27694 6.36589C8.23064 6.13311 8.11635 5.9193 7.94853 5.75147C7.78071 5.58365 7.56689 5.46936 7.33411 5.42306C7.10133 5.37676 6.86005 5.40052 6.64078 5.49134C6.42151 5.58217 6.23409 5.73598 6.10224 5.93332C5.97038 6.13065 5.9 6.36266 5.9 6.6C5.9 6.91826 6.02643 7.22348 6.25147 7.44853C6.47652 7.67357 6.78174 7.8 7.1 7.8ZM20.5 3V9.5H19V8C19 7.20435 18.6839 6.44129 18.1213 5.87868C17.5587 5.31607 16.7956 5 16 5H10V9.5H3.5V3H2V21H3.5V19H20.5V21H22V3H20.5ZM11.5 6.5H16C16.3977 6.50045 16.779 6.65863 17.0602 6.93984C17.3414 7.22104 17.4995 7.60231 17.5 8V9.5H11.5V6.5ZM17.5 17.5H11.5V14.5H16C16.3977 14.5005 16.779 14.6586 17.0602 14.9398C17.3414 15.221 17.4995 15.6023 17.5 16V17.5ZM20.5 17.5H19V16C19 15.2044 18.6839 14.4413 18.1213 13.8787C17.5587 13.3161 16.7956 13 16 13H10V17.5H3.5V11H20.5V17.5Z" fill="black"/>
</svg>
