<svg width="24" height="24" viewBox="0 0 24 24" fill="none" xmlns="http://www.w3.org/2000/svg">
<path d="M11.3311 18.9307L12 19.5327L12.6689 18.9307C12.9277 18.6982 18.9951 13.1772 18.9951 7.99558C19 7.07383 18.8227 6.1602 18.4734 5.3072C18.1241 4.4542 17.6096 3.67865 16.9596 3.02513C16.3096 2.37161 15.5368 1.85301 14.6856 1.49913C13.8345 1.14525 12.9219 0.963074 12.0001 0.963074C11.0783 0.963074 10.1657 1.14525 9.31455 1.49913C8.46343 1.85301 7.69065 2.37161 7.04061 3.02513C6.39058 3.67865 5.87611 4.4542 5.52679 5.3072C5.17746 6.1602 5.00017 7.07383 5.0051 7.99558C5.0049 13.1772 11.0723 18.6982 11.3311 18.9307ZM12 1.49998C13.7221 1.50199 15.373 2.18701 16.5907 3.40475C17.8083 4.62249 18.4932 6.2735 18.4951 7.99558C18.4951 12.9684 12.5864 18.3328 12.3345 18.559L12 18.86L11.6652 18.5587C11.4136 18.3328 5.5052 12.9687 5.5052 7.99558C5.50708 6.27355 6.19193 4.62258 7.40951 3.40485C8.62709 2.18712 10.278 1.50207 12 1.49998ZM4 22.5V23H20V22.5H4ZM13.5 7.99998C13.5 7.70331 13.412 7.4133 13.2472 7.16662C13.0824 6.91995 12.8481 6.72769 12.574 6.61416C12.2999 6.50063 11.9983 6.47092 11.7074 6.5288C11.4164 6.58668 11.1491 6.72954 10.9393 6.93932C10.7296 7.1491 10.5867 7.41637 10.5288 7.70734C10.4709 7.99831 10.5006 8.29991 10.6142 8.574C10.7277 8.84809 10.92 9.08236 11.1666 9.24718C11.4133 9.41201 11.7033 9.49998 12 9.49998C12.3978 9.49998 12.7794 9.34194 13.0607 9.06064C13.342 8.77933 13.5 8.3978 13.5 7.99998ZM11 7.99998C11 7.8022 11.0586 7.60886 11.1685 7.44441C11.2784 7.27996 11.4346 7.15179 11.6173 7.0761C11.8 7.00041 12.0011 6.98061 12.1951 7.01919C12.3891 7.05778 12.5673 7.15302 12.7071 7.29287C12.847 7.43272 12.9422 7.61091 12.9808 7.80489C13.0194 7.99887 12.9996 8.19994 12.9239 8.38266C12.8482 8.56539 12.72 8.72157 12.5556 8.83145C12.3911 8.94133 12.1978 8.99998 12 8.99998C11.7349 8.99969 11.4807 8.89424 11.2932 8.70676C11.1057 8.51929 11.0003 8.26511 11 7.99998Z" fill="#231F20"/>
</svg>
