<svg width="24" height="24" viewBox="0 0 24 24" fill="none" xmlns="http://www.w3.org/2000/svg">
<path d="M7.98298 13.0783L11.7661 12.0647L15.9554 10.9421C14.3876 5.9211 11.8115 2.2988 9.79537 2.2988C9.65561 2.29851 9.51641 2.31663 9.38138 2.3527C7.31628 2.9059 6.74998 7.5872 7.98298 13.0783ZM16.433 10.7932L16.4391 10.8126L21.7944 9.37771C19.9727 4.571 15.4067 1.5808 10.766 2.1027C12.7933 2.9373 15.01 6.2368 16.4327 10.7932H16.433ZM14.393 19.9382L12.378 12.4182L11.8956 12.5474L13.8678 19.9074C10.4539 19.7526 7.05716 20.4729 3.99997 22H21.9442C19.587 20.8232 17.021 20.1225 14.3929 19.9382H14.393ZM7.49518 13.1882C6.57128 9.0753 6.55358 4.7493 7.98868 2.8592C3.75138 4.7492 1.32267 9.597 2.14428 14.6431L7.49998 13.2078L7.49518 13.1882Z" fill="black"/>
</svg>
