<svg width="24" height="24" viewBox="0 0 24 24" fill="none" xmlns="http://www.w3.org/2000/svg">
<g clip-path="url(#clip0)">
<path d="M12 0C9.61557 0.0027525 7.32959 0.951184 5.64354 2.63723C3.95749 4.32328 3.00905 6.60927 3.0063 8.9937C3.0063 15.7563 10.9912 23.021 11.3311 23.3267L12 23.9287L12.6689 23.3267C13.0089 23.021 20.9941 15.7567 20.9941 8.9937C20.9913 6.60922 20.0428 4.32322 18.3566 2.63718C16.6705 0.951136 14.3845 0.00272589 12 0V0ZM12.3345 22.955L12 23.256L11.6654 22.9549C11.3323 22.6549 3.5063 15.5411 3.5063 8.9937C3.5063 6.74098 4.40119 4.58052 5.99411 2.98761C7.58702 1.39469 9.74748 0.4998 12.0002 0.4998C14.2529 0.4998 16.4134 1.39469 18.0063 2.98761C19.5992 4.58052 20.4941 6.74098 20.4941 8.9937C20.4941 15.5407 12.6677 22.6552 12.3345 22.955ZM12 8.7938C12.3165 8.7938 12.6258 8.69996 12.8889 8.52415C13.152 8.34834 13.3571 8.09846 13.4782 7.80609C13.5993 7.51373 13.631 7.19203 13.5693 6.88166C13.5075 6.57129 13.3551 6.28619 13.1314 6.06243C12.9076 5.83867 12.6225 5.68628 12.3121 5.62454C12.0018 5.56281 11.6801 5.59449 11.3877 5.71559C11.0953 5.83669 10.8455 6.04177 10.6697 6.30489C10.4938 6.56801 10.4 6.87735 10.4 7.1938C10.4 7.61815 10.5686 8.02511 10.8686 8.32517C11.1687 8.62523 11.5757 8.7938 12 8.7938ZM12 6.0938C12.2176 6.0938 12.4302 6.15831 12.6111 6.27918C12.792 6.40005 12.933 6.57185 13.0163 6.77285C13.0995 6.97385 13.1213 7.19502 13.0789 7.4084C13.0364 7.62178 12.9317 7.81778 12.7778 7.97162C12.624 8.12545 12.428 8.23022 12.2146 8.27266C12.0012 8.31511 11.78 8.29332 11.5791 8.21007C11.3781 8.12681 11.2063 7.98582 11.0854 7.80493C10.9645 7.62403 10.9 7.41136 10.9 7.1938C10.9003 6.90216 11.0163 6.62255 11.2225 6.41633C11.4288 6.21011 11.7084 6.09412 12 6.0938ZM8.5 11.147V13H15.5V11.147C14.5717 10.2188 13.3127 9.69736 12 9.69736C10.6873 9.69736 9.42829 10.2188 8.5 11.147ZM15 12.5H9V11.3605C9.8199 10.6121 10.8899 10.1972 12 10.1972C13.1101 10.1972 14.1801 10.6121 15 11.3605V12.5Z" fill="black"/>
</g>
<defs>
<clipPath id="clip0">
<rect width="24" height="24" fill="white"/>
</clipPath>
</defs>
</svg>
