<svg width="24" height="24" viewBox="0 0 24 24" fill="none" xmlns="http://www.w3.org/2000/svg">
<path d="M6.5 2C5.30653 2 4.16193 2.47411 3.31802 3.31802C2.47411 4.16193 2 5.30653 2 6.5V15.5C2 16.6935 2.47411 17.8381 3.31802 18.682C4.16193 19.5259 5.30653 20 6.5 20C7.69347 20 8.83807 19.5259 9.68198 18.682C10.5259 17.8381 11 16.6935 11 15.5V6.5C11 5.30653 10.5259 4.16193 9.68198 3.31802C8.83807 2.47411 7.69347 2 6.5 2ZM10 15.5C10 16.4283 9.63125 17.3185 8.97487 17.9749C8.3185 18.6313 7.42826 19 6.5 19C5.57174 19 4.6815 18.6313 4.02513 17.9749C3.36875 17.3185 3 16.4283 3 15.5V11.5H10V15.5ZM10 10.5H3V6.5C3 5.57174 3.36875 4.6815 4.02513 4.02513C4.6815 3.36875 5.57174 3 6.5 3C7.42826 3 8.3185 3.36875 8.97487 4.02513C9.63125 4.6815 10 5.57174 10 6.5V10.5ZM20.682 12.318C20.0527 11.6887 19.2508 11.2601 18.3779 11.0865C17.505 10.9128 16.6002 11.002 15.778 11.3425C14.9557 11.6831 14.2529 12.2599 13.7584 12.9999C13.264 13.74 13 14.61 13 15.5C13 16.39 13.264 17.26 13.7584 18.0001C14.2529 18.7401 14.9557 19.3169 15.778 19.6575C16.6002 19.998 17.505 20.0872 18.3779 19.9135C19.2508 19.7399 20.0527 19.3113 20.682 18.682C21.1015 18.2651 21.4345 17.7693 21.6617 17.2232C21.8889 16.6771 22.0059 16.0915 22.0059 15.5C22.0059 14.9085 21.8889 14.3229 21.6617 13.7768C21.4345 13.2307 21.1015 12.7349 20.682 12.318ZM15.025 13.0251C15.6177 12.4284 16.4069 12.0671 17.2459 12.0084C18.0849 11.9498 18.9167 12.1977 19.5867 12.7061L14.7073 17.5855C14.2038 16.9139 13.9588 16.0835 14.0172 15.2462C14.0755 14.4088 14.4332 13.6204 15.025 13.0251ZM19.975 17.9751C19.3823 18.5718 18.5931 18.9331 17.7541 18.9918C16.9151 19.0504 16.0833 18.8025 15.4133 18.2941L20.2927 13.4147C20.7961 14.0863 21.0411 14.9166 20.9828 15.7539C20.9244 16.5913 20.5667 17.3796 19.975 17.9749V17.9751Z" fill="black"/>
</svg>
