<svg width="24" height="24" viewBox="0 0 24 24" fill="none" xmlns="http://www.w3.org/2000/svg">
<path d="M19.071 4.929C17.6725 3.53046 15.8907 2.57803 13.9508 2.19217C12.011 1.8063 10.0003 2.00432 8.17307 2.76119C6.3458 3.51806 4.784 4.79979 3.68518 6.44428C2.58636 8.08878 1.99986 10.0222 1.99986 12C1.99986 13.9778 2.58636 15.9112 3.68518 17.5557C4.784 19.2002 6.3458 20.4819 8.17307 21.2388C10.0003 21.9957 12.011 22.1937 13.9508 21.8078C15.8907 21.422 17.6725 20.4695 19.071 19.071C20.0034 18.1446 20.7433 17.0429 21.2482 15.8293C21.7531 14.6158 22.0131 13.3144 22.0131 12C22.0131 10.6856 21.7531 9.38421 21.2482 8.17068C20.7433 6.95715 20.0034 5.85546 19.071 4.929ZM18.364 18.364C16.8917 19.8363 14.9544 20.7526 12.8822 20.9567C10.81 21.1608 8.73121 20.6401 6.99992 19.4833C5.26863 18.3265 3.992 16.6052 3.38755 14.6127C2.78311 12.6202 2.88825 10.4797 3.68506 8.55599C4.48186 6.63229 5.92104 5.04438 7.75737 4.06282C9.59369 3.08127 11.7135 2.7668 13.7557 3.173C15.7979 3.5792 17.6361 4.68094 18.957 6.29048C20.278 7.90003 21 9.91781 21 12C21.0032 13.1824 20.7719 14.3537 20.3194 15.446C19.867 16.5384 19.2023 17.5302 18.364 18.364ZM10.8514 13.0327L12.1919 16.5039L15.4726 8.4114L7.38 11.6922L10.8514 13.0327ZM12.2122 14.0582L11.691 12.7082L11.5474 12.3364L11.1756 12.1928L9.8256 11.6716L13.8391 10.0444L12.2122 14.0582Z" fill="black"/>
</svg>
