<svg width="24" height="24" viewBox="0 0 24 24" fill="none" xmlns="http://www.w3.org/2000/svg">
<path d="M19.6555 4.17103C18.9702 3.48198 18.0882 3.02229 17.1309 2.85524C16.1736 2.68819 15.188 2.822 14.3099 3.23823C13.4317 3.65447 12.7042 4.33267 12.2275 5.17948C11.7507 6.02628 11.5482 7.00005 11.6477 7.96673L2.5966 18.2248L5.6018 21.23L15.8654 12.1739C16.0168 12.1971 16.1694 12.2117 16.3225 12.2177C17.2548 12.2177 18.1661 11.9412 18.9412 11.4233C19.7163 10.9053 20.3205 10.1692 20.6772 9.30786C21.034 8.44656 21.1273 7.49882 20.9455 6.58448C20.7636 5.67013 20.3147 4.83025 19.6555 4.17103ZM3.2822 18.2034L4.665 16.6363L7.19 19.1616L5.623 20.5443L3.2822 18.2034ZM7.5569 18.8381L4.9884 16.27L11.9 8.43653L15.39 11.9265L7.5569 18.8381ZM19.302 10.4835C18.9116 10.876 18.4473 11.1872 17.9359 11.3991C17.4244 11.6109 16.8761 11.7192 16.3225 11.7177C16.1588 11.7099 15.9957 11.6918 15.8342 11.6635L12.1631 7.99223C12.1348 7.83083 12.1167 7.66781 12.1089 7.50413C12.1089 6.8112 12.2798 6.12896 12.6064 5.51785C12.9331 4.90674 13.4054 4.38561 13.9815 4.00064C14.5577 3.61566 15.2199 3.37872 15.9095 3.31079C16.5991 3.24287 17.2948 3.34606 17.9349 3.61122C18.5751 3.87639 19.14 4.29535 19.5796 4.83098C20.0192 5.36662 20.3199 6.00241 20.4551 6.68202C20.5903 7.36163 20.5558 8.0641 20.3547 8.7272C20.1535 9.39029 19.792 9.99355 19.302 10.4835Z" fill="black"/>
</svg>
