<svg width="24" height="24" viewBox="0 0 24 24" fill="none" xmlns="http://www.w3.org/2000/svg">
<g clip-path="url(#clip0)">
<path d="M12 0C9.61557 0.0027525 7.32959 0.951184 5.64354 2.63723C3.95749 4.32328 3.00905 6.60927 3.0063 8.9937C3.0063 15.7563 10.9912 23.021 11.3311 23.3267L12 23.9287L12.6689 23.3267C13.0089 23.021 20.9941 15.7567 20.9941 8.9937C20.9913 6.60922 20.0428 4.32322 18.3566 2.63718C16.6705 0.951136 14.3845 0.00272589 12 0V0ZM12 21.8974C10.5043 20.4614 4.5063 14.366 4.5063 8.9937C4.5063 7.00619 5.29584 5.10009 6.70121 3.69471C8.10659 2.28933 10.0127 1.4998 12.0002 1.4998C13.9877 1.4998 15.8938 2.28933 17.2992 3.69471C18.7046 5.10009 19.4941 7.00619 19.4941 8.9937C19.4941 14.3652 13.4965 20.4605 12 21.8974ZM12 8C12.2426 8 12.4798 7.92806 12.6815 7.79328C12.8832 7.6585 13.0404 7.46693 13.1332 7.2428C13.2261 7.01867 13.2504 6.77204 13.203 6.5341C13.1557 6.29617 13.0389 6.07761 12.8673 5.90606C12.6958 5.73452 12.4772 5.6177 12.2393 5.57037C12.0014 5.52304 11.7547 5.54733 11.5306 5.64017C11.3065 5.73301 11.1149 5.89022 10.9801 6.09194C10.8453 6.29365 10.7734 6.5308 10.7734 6.7734C10.7734 7.09871 10.9026 7.41071 11.1327 7.64074C11.3627 7.87077 11.6747 8 12 8ZM9 10.7109V12H15V10.7109C14.2043 9.91527 13.1252 9.46828 12 9.46828C10.8748 9.46828 9.79566 9.91527 9 10.7109Z" fill="black"/>
</g>
<defs>
<clipPath id="clip0">
<rect width="24" height="24" fill="white"/>
</clipPath>
</defs>
</svg>
