<svg width="24" height="24" viewBox="0 0 24 24" fill="none" xmlns="http://www.w3.org/2000/svg">
<path d="M13.4785 18.25H18.4785C18.4785 17.587 18.2151 16.9511 17.7462 16.4822C17.2774 16.0134 16.6415 15.75 15.9785 15.75C15.3154 15.75 14.6795 16.0134 14.2107 16.4822C13.7419 16.9511 13.4785 17.587 13.4785 18.25ZM15.9785 16.25C16.4218 16.2506 16.8523 16.3981 17.2028 16.6695C17.5533 16.941 17.8038 17.321 17.9153 17.75H14.0417C14.1531 17.321 14.4037 16.941 14.7541 16.6695C15.1046 16.3981 15.5352 16.2506 15.9785 16.25ZM18.2026 11.7065C18.3015 11.7065 18.3981 11.6772 18.4804 11.6222C18.5626 11.5673 18.6267 11.4892 18.6645 11.3978C18.7024 11.3065 18.7123 11.2059 18.693 11.109C18.6737 11.012 18.6261 10.9229 18.5561 10.8529C18.4862 10.783 18.3971 10.7354 18.3001 10.7161C18.2031 10.6968 18.1026 10.7067 18.0112 10.7446C17.9199 10.7824 17.8418 10.8465 17.7868 10.9287C17.7319 11.0109 17.7026 11.1076 17.7026 11.2065C17.7026 11.3391 17.7553 11.4663 17.849 11.5601C17.9428 11.6538 18.07 11.7065 18.2026 11.7065ZM15 6V2H0.999973V11C0.996667 12.0568 1.23345 13.1006 1.69244 14.0526C2.15144 15.0045 2.82067 15.8398 3.64962 16.4953C4.47856 17.1509 5.44558 17.6096 6.4777 17.8368C7.50981 18.064 8.58006 18.0539 9.60767 17.8071C10.2502 19.2794 11.3804 20.4855 12.808 21.2221C14.2356 21.9587 15.8734 22.1809 17.4457 21.8514C19.018 21.5218 20.4287 20.6606 21.4403 19.4127C22.452 18.1648 23.0028 16.6064 23 15V6H15ZM7.99997 17.5C6.27667 17.498 4.6245 16.8126 3.40594 15.594C2.18738 14.3755 1.50193 12.7233 1.49997 11V2.5H14.5V11C14.498 12.7233 13.8126 14.3755 12.594 15.594C11.3754 16.8126 9.72328 17.498 7.99997 17.5ZM22.5 15C22.5027 16.4848 21.996 17.9257 21.0646 19.082C20.1332 20.2384 18.8333 21.0403 17.382 21.3539C15.9306 21.6675 14.4156 21.4738 13.0899 20.8052C11.7641 20.1366 10.7078 19.0335 10.0972 17.68C11.5189 17.2332 12.7609 16.3444 13.6427 15.143C14.5244 13.9416 14.9999 12.4903 15 11V6.5H22.5V15ZM7.97847 13.75C8.70782 13.75 9.40729 13.4603 9.92302 12.9445C10.4387 12.4288 10.7285 11.7293 10.7285 11H5.22847C5.22847 11.7293 5.5182 12.4288 6.03393 12.9445C6.54965 13.4603 7.24913 13.75 7.97847 13.75ZM7.97847 13.25C7.46878 13.2493 6.97437 13.0759 6.57591 12.7581C6.17744 12.4403 5.89846 11.9968 5.78447 11.5H10.1725C10.0585 11.9968 9.77954 12.4403 9.38107 12.7581C8.98261 13.076 8.48817 13.2494 7.97847 13.25ZM10.2026 7.7065C10.3015 7.7065 10.3981 7.67718 10.4804 7.62223C10.5626 7.56729 10.6267 7.4892 10.6645 7.39784C10.7024 7.30648 10.7123 7.20595 10.693 7.10895C10.6737 7.01196 10.6261 6.92287 10.5561 6.85295C10.4862 6.78302 10.3971 6.7354 10.3001 6.71611C10.2031 6.69681 10.1026 6.70672 10.0112 6.74456C9.91987 6.7824 9.84178 6.84649 9.78684 6.92871C9.7319 7.01094 9.70257 7.10761 9.70257 7.2065C9.70257 7.33911 9.75525 7.46629 9.84902 7.56005C9.94279 7.65382 10.07 7.7065 10.2026 7.7065ZM5.75437 7.7065C5.85326 7.7065 5.94993 7.67718 6.03216 7.62223C6.11438 7.56729 6.17847 7.4892 6.21631 7.39784C6.25416 7.30648 6.26406 7.20595 6.24477 7.10895C6.22547 7.01196 6.17785 6.92287 6.10793 6.85295C6.038 6.78302 5.94891 6.7354 5.85192 6.71611C5.75493 6.69681 5.65439 6.70672 5.56303 6.74456C5.47167 6.7824 5.39358 6.84649 5.33864 6.92871C5.2837 7.01094 5.25437 7.10761 5.25437 7.2065C5.25437 7.33911 5.30705 7.46629 5.40082 7.56005C5.49459 7.65382 5.62176 7.7065 5.75437 7.7065Z" fill="black"/>
</svg>
