<svg width="24" height="24" viewBox="0 0 24 24" fill="none" xmlns="http://www.w3.org/2000/svg">
<path d="M12 2C10.0222 2 8.08879 2.58649 6.4443 3.6853C4.79981 4.78412 3.51809 6.3459 2.76121 8.17317C2.00433 10.0004 1.8063 12.0111 2.19215 13.9509C2.578 15.8907 3.53041 17.6725 4.92894 19.0711C6.32746 20.4696 8.10929 21.422 10.0491 21.8079C11.9889 22.1937 13.9996 21.9957 15.8268 21.2388C17.6541 20.4819 19.2159 19.2002 20.3147 17.5557C21.4135 15.9112 22 13.9778 22 12C22 10.6868 21.7413 9.38642 21.2388 8.17317C20.7363 6.95991 19.9997 5.85752 19.0711 4.92893C18.1425 4.00035 17.0401 3.26375 15.8268 2.7612C14.6136 2.25866 13.3132 2 12 2ZM6.2144 6.0605C6.44295 6.12285 6.64482 6.25823 6.78926 6.44599C6.9337 6.63376 7.01276 6.86361 7.0144 7.1005C7.0144 7.39224 6.89851 7.67203 6.69222 7.87832C6.48593 8.08461 6.20614 8.2005 5.9144 8.2005H4.6293C5.03962 7.40686 5.57481 6.68431 6.2144 6.0605ZM12 20.3C10.4372 20.2976 8.90673 19.854 7.58475 19.0205C6.26277 18.1869 5.20292 16.9971 4.5271 15.5879H5.5C6.16305 15.5879 6.79893 15.3245 7.26777 14.8557C7.73661 14.3868 8 13.7509 8 13.0879V10H11C11.7957 10 12.5587 9.68393 13.1213 9.12132C13.6839 8.55871 14 7.79565 14 7V3.9539C15.9668 4.44127 17.6872 5.63172 18.8365 7.30058C19.9858 8.96945 20.4844 11.0013 20.2383 13.0126C19.9923 15.0239 19.0184 16.8756 17.5007 18.2181C15.983 19.5607 14.0263 20.3012 12 20.3ZM15.3364 11.018H15.291C14.8834 11.0186 14.4801 11.1025 14.1061 11.2646C13.7321 11.4267 13.3951 11.6636 13.1159 11.9606L11.6682 13.5006V17H15.3409C16.1342 16.9994 16.8947 16.6837 17.4552 16.1224C18.0157 15.561 18.3303 14.8 18.3297 14.0068C18.3291 13.2135 18.0134 12.453 17.452 11.8925C16.8907 11.332 16.1297 11.0174 15.3364 11.018Z" fill="black"/>
</svg>
