<svg width="24" height="24" viewBox="0 0 24 24" fill="none" xmlns="http://www.w3.org/2000/svg">
<path d="M2.9772 15.16C3.01742 15.6611 3.24488 16.1287 3.61429 16.4697C3.98371 16.8106 4.46798 17 4.9707 17H8.0293C8.53202 17 9.01629 16.8106 9.38571 16.4697C9.75512 16.1287 9.98258 15.6611 10.0228 15.16L11 3H2L2.9772 15.16ZM8.8329 5L8.0293 15H4.9707L4.1671 5H8.8329ZM20.2 10H14.8C14.5636 10 14.3296 10.0466 14.1112 10.137C13.8928 10.2275 13.6944 10.3601 13.5272 10.5272C13.3601 10.6944 13.2275 10.8928 13.137 11.1112C13.0466 11.3296 13 11.5636 13 11.8V20H22V11.8C22 11.5636 21.9534 11.3296 21.863 11.1112C21.7725 10.8928 21.6399 10.6944 21.4728 10.5272C21.3056 10.3601 21.1072 10.2275 20.8888 10.137C20.6704 10.0466 20.4364 10 20.2 10ZM20 18H15V16H20V18ZM20 14H15V12H20V14ZM5 20H8V18H5V20Z" fill="black"/>
</svg>
