<svg width="24" height="24" viewBox="0 0 24 24" fill="none" xmlns="http://www.w3.org/2000/svg">
<path d="M12 2C10.0222 2 8.08879 2.58649 6.4443 3.6853C4.79981 4.78412 3.51809 6.3459 2.76121 8.17317C2.00433 10.0004 1.8063 12.0111 2.19215 13.9509C2.578 15.8907 3.53041 17.6725 4.92894 19.0711C6.32746 20.4696 8.10929 21.422 10.0491 21.8079C11.9889 22.1937 13.9996 21.9957 15.8268 21.2388C17.6541 20.4819 19.2159 19.2002 20.3147 17.5557C21.4135 15.9112 22 13.9778 22 12C22 10.6868 21.7413 9.38642 21.2388 8.17317C20.7363 6.95991 19.9997 5.85752 19.0711 4.92893C18.1425 4.00035 17.0401 3.26375 15.8268 2.7612C14.6136 2.25866 13.3132 2 12 2ZM12 3.5C12.1688 3.5 12.3336 3.5156 12.5 3.5253V7C12.4996 7.39769 12.3414 7.77896 12.0602 8.06016C11.779 8.34137 11.3977 8.49955 11 8.5H8.3117C8.44356 8.22434 8.51291 7.92297 8.5148 7.6174C8.51956 7.21664 8.39651 6.8248 8.1635 6.4987C7.9935 6.21021 7.75392 5.96891 7.46665 5.79684C7.17938 5.62478 6.85358 5.52743 6.519 5.5137C8.04901 4.21306 9.99188 3.49926 12 3.5ZM5.1414 7H6.4147C6.51786 6.99926 6.61892 7.02912 6.70511 7.08581C6.7913 7.1425 6.85874 7.22348 6.8989 7.3185C6.93615 7.35599 6.96558 7.40051 6.98548 7.44947C7.00537 7.49843 7.01534 7.55085 7.0148 7.6037C7.01346 7.76209 6.94971 7.91356 6.83738 8.02524C6.72504 8.13692 6.5732 8.19978 6.4148 8.2002H4.4075C4.61853 7.78053 4.864 7.37908 5.1414 7ZM3.5 12C3.50199 11.222 3.61128 10.4481 3.8248 9.7H6.4148C6.67196 9.7001 6.92692 9.65264 7.1668 9.56V12.7542C7.16638 13.1077 7.02576 13.4466 6.77579 13.6966C6.52581 13.9465 6.1869 14.0871 5.8334 14.0875H3.77C3.59345 13.4056 3.50275 12.7044 3.5 12ZM12 20.5C10.3831 20.4975 8.80047 20.0341 7.43761 19.1641C6.07475 18.294 4.98818 17.0535 4.3053 15.5879H5.8333C6.58475 15.5879 7.30542 15.2894 7.83679 14.7581C8.36815 14.2267 8.66668 13.506 8.6667 12.7546V10H11C11.7957 10 12.5587 9.68393 13.1213 9.12132C13.6839 8.55871 14 7.79565 14 7V3.7475C16.0214 4.23579 17.7935 5.44857 18.9805 7.15607C20.1675 8.86356 20.687 10.9471 20.4404 13.012C20.1939 15.0769 19.1986 16.9796 17.643 18.3597C16.0873 19.7398 14.0795 20.5013 12 20.5ZM15.3409 11.018H15.2909C14.8833 11.0186 14.48 11.1025 14.106 11.2646C13.732 11.4267 13.395 11.6636 13.1158 11.9606L11.6681 13.5006V17H15.3407C16.134 17 16.8947 16.6849 17.4557 16.124C18.0166 15.563 18.3317 14.8023 18.3317 14.009C18.3317 13.2157 18.0166 12.455 17.4557 11.894C16.8947 11.3331 16.134 11.018 15.3407 11.018H15.3409ZM15.3409 15.6334H13.0349V14.0425L14.1118 12.8967C14.2696 12.7315 14.4598 12.6008 14.6706 12.5127C14.8813 12.4246 15.108 12.381 15.3364 12.3847H15.3409C15.7695 12.3881 16.1794 12.5607 16.4813 12.8649C16.7832 13.1692 16.9526 13.5804 16.9526 14.0091C16.9526 14.4377 16.7832 14.8489 16.4813 15.1532C16.1794 15.4574 15.7695 15.63 15.3409 15.6334Z" fill="black"/>
</svg>
