<svg width="24" height="24" viewBox="0 0 24 24" fill="none" xmlns="http://www.w3.org/2000/svg">
<path d="M22.0254 16.9033C21.6416 17.2217 21.2334 17.5273 20.8115 17.8115C20.4249 18.0732 20.009 18.3237 19.5824 18.5588L18.5079 16.1163C18.1729 15.3548 17.9999 14.5319 18 13.7V8H20.23C20.6063 7.99981 20.9694 7.86059 21.2493 7.60907C21.5293 7.35756 21.7065 7.01148 21.7469 6.6373C21.7733 6.26935 21.6711 5.90364 21.4577 5.60274C21.2442 5.30184 20.9329 5.08447 20.5769 4.9878L18 4.2192V2H17.5C16.5717 2 15.6815 2.36875 15.0251 3.02513C14.3687 3.6815 14 4.57174 14 5.5V9H7.54388C6.61385 9.0002 5.70396 9.2709 4.92508 9.77912C4.1462 10.2873 3.53195 11.0111 3.15718 11.8623L2.72558 12.8438L4.09858 13.4473L4.53028 12.4658C4.82947 11.7913 5.34723 11.2374 5.99998 10.8934V13.7C5.99997 14.5318 5.82701 15.3546 5.49208 16.116L4.41748 18.5591C3.99018 18.3233 3.57468 18.0731 3.18748 17.8115C2.76658 17.5273 2.35838 17.2215 1.97458 16.9033L1.01758 18.06C1.43948 18.4086 1.88668 18.7436 2.34668 19.0541C2.79588 19.3578 3.27438 19.6488 3.77148 19.9193C4.26268 20.1859 4.76948 20.4301 5.28028 20.6459C5.79881 20.8658 6.32812 21.0594 6.86618 21.2259C7.41043 21.3956 7.9629 21.5377 8.52148 21.6517C9.08799 21.7678 9.66003 21.8552 10.2354 21.9134C11.4084 22.0331 12.5906 22.0331 13.7637 21.9134C14.3389 21.8552 14.9109 21.7681 15.4775 21.6526C16.0312 21.5394 16.5875 21.3958 17.1318 21.2269C17.6705 21.0599 18.2004 20.8659 18.7197 20.6458C19.2305 20.43 19.7373 20.1858 20.2297 19.9183C20.7258 19.6483 21.2043 19.3577 21.6525 19.054C22.1135 18.744 22.5607 18.4085 22.9825 18.0599L22.0254 16.9033ZM16.6865 19.7939C16.1904 19.9486 15.6868 20.0784 15.1777 20.1826C14.6602 20.2882 14.1377 20.3678 13.6123 20.4209C12.5399 20.5303 11.4591 20.5303 10.3867 20.4209C9.86115 20.3678 9.33868 20.2879 8.82128 20.1816C8.31164 20.0779 7.80765 19.9482 7.31128 19.793C6.89458 19.6638 6.47878 19.5057 6.06848 19.3393L7.01198 17.1946C7.16831 16.8393 7.42468 16.5371 7.7498 16.325C8.07493 16.1129 8.45477 15.9999 8.84298 16H15.157C15.5452 16 15.9249 16.1129 16.25 16.325C16.5751 16.5372 16.8315 16.8393 16.9878 17.1946L17.9313 19.3393C17.5208 19.5057 17.1051 19.6639 16.6865 19.7939Z" fill="black"/>
</svg>
