<svg width="24" height="24" viewBox="0 0 24 24" fill="none" xmlns="http://www.w3.org/2000/svg">
<path d="M18.5 4H12.25V2.25C12.25 2.1837 12.2237 2.12011 12.1768 2.07322C12.1299 2.02634 12.0663 2 12 2C11.9337 2 11.8701 2.02634 11.8232 2.07322C11.7763 2.12011 11.75 2.1837 11.75 2.25V4H5.5L1 13.9941C1.31326 14.9364 1.91809 15.7546 2.72704 16.3304C3.53598 16.9062 4.50712 17.2098 5.5 17.1973C6.49288 17.2098 7.46402 16.9062 8.27296 16.3304C9.08191 15.7546 9.68674 14.9364 10 13.9941L5.7253 4.5H11.75V20.4228L7 20.7372V21H17V20.7372L12.25 20.4228V4.5H18.2747L14 13.9941C14.3242 14.9294 14.9317 15.7405 15.7382 16.3146C16.5447 16.8886 17.5101 17.1971 18.5 17.1971C19.4899 17.1971 20.4553 16.8886 21.2618 16.3146C22.0683 15.7405 22.6758 14.9294 23 13.9941L18.5 4ZM1.5457 14L5.5 5.2178L9.4543 14H1.5457ZM14.5457 14L18.5 5.2178L22.4543 14H14.5457Z" fill="black"/>
</svg>
