<svg width="24" height="24" viewBox="0 0 24 24" fill="none" xmlns="http://www.w3.org/2000/svg">
<path d="M12 2C10.0222 2 8.08879 2.58649 6.4443 3.6853C4.79981 4.78412 3.51809 6.3459 2.76121 8.17317C2.00433 10.0004 1.8063 12.0111 2.19215 13.9509C2.578 15.8907 3.53041 17.6725 4.92894 19.0711C6.32746 20.4696 8.10929 21.422 10.0491 21.8079C11.9889 22.1937 13.9996 21.9957 15.8268 21.2388C17.6541 20.4819 19.2159 19.2002 20.3147 17.5557C21.4135 15.9112 22 13.9778 22 12C22 10.6868 21.7413 9.38642 21.2388 8.17317C20.7363 6.95991 19.9997 5.85752 19.0711 4.92893C18.1425 4.00035 17.0401 3.26375 15.8268 2.7612C14.6136 2.25866 13.3132 2 12 2ZM3.9374 7H6.0146C6.0934 7 6.17142 7.01552 6.24421 7.04567C6.31701 7.07583 6.38315 7.12002 6.43887 7.17574C6.49458 7.23145 6.53878 7.29759 6.56893 7.37039C6.59908 7.44319 6.6146 7.52121 6.6146 7.6C6.6146 7.67879 6.59908 7.75681 6.56893 7.82961C6.53878 7.90241 6.49458 7.96855 6.43887 8.02426C6.38315 8.07998 6.31701 8.12417 6.24421 8.15433C6.17142 8.18448 6.0934 8.2 6.0146 8.2H3.2986C3.48252 7.78522 3.696 7.38418 3.9374 7ZM2.5 12C2.50224 10.8728 2.70651 9.75513 3.1031 8.7H6.0146C6.30634 8.7 6.58613 8.58411 6.79242 8.37782C6.99871 8.17153 7.1146 7.89174 7.1146 7.6C7.1146 7.30826 6.99871 7.02847 6.79242 6.82218C6.58613 6.61589 6.30634 6.5 6.0146 6.5H4.2684C5.28322 5.04744 6.68941 3.91269 8.32357 3.22764C9.95772 2.54258 11.7527 2.33534 13.5 2.63V7C13.4993 7.66281 13.2356 8.29827 12.767 8.76695C12.2983 9.23563 11.6628 9.49926 11 9.5H7.5V13.0879C7.4994 13.6181 7.28849 14.1265 6.91355 14.5014C6.5386 14.8764 6.03025 15.0873 5.5 15.0879H3.0253C2.67947 14.095 2.50193 13.0514 2.5 12ZM12 21.5C10.1135 21.4975 8.27041 20.934 6.70499 19.8813C5.13956 18.8286 3.92256 17.3341 3.2087 15.5879H5.5C6.16305 15.5879 6.79893 15.3245 7.26777 14.8557C7.73661 14.3868 8 13.7509 8 13.0879V10H11C11.7957 10 12.5587 9.68393 13.1213 9.12132C13.6839 8.55871 14 7.79565 14 7V2.716C16.2928 3.20943 18.3219 4.53366 19.6968 6.4337C21.0716 8.33374 21.6949 10.6752 21.4466 13.0073C21.1982 15.3394 20.0959 17.4972 18.3519 19.0652C16.6078 20.6331 14.3453 21.5004 12 21.5ZM15.3409 11.018H15.2909C14.8833 11.0186 14.48 11.1025 14.106 11.2646C13.732 11.4267 13.395 11.6636 13.1158 11.9606L11.6681 13.5006V17H15.3407C16.134 17 16.8947 16.6849 17.4557 16.124C18.0166 15.563 18.3317 14.8023 18.3317 14.009C18.3317 13.2157 18.0166 12.455 17.4557 11.894C16.8947 11.3331 16.134 11.018 15.3407 11.018H15.3409ZM15.3409 16.5H12.1682V13.6992L13.48 12.3031C13.719 12.0519 14.0071 11.8526 14.3264 11.7175C14.6457 11.5824 14.9894 11.5145 15.3361 11.518H15.3406C16.0013 11.518 16.6349 11.7804 17.102 12.2476C17.5692 12.7148 17.8316 13.3483 17.8316 14.009C17.8316 14.6697 17.5692 15.3032 17.102 15.7704C16.6349 16.2376 16.0013 16.5 15.3406 16.5H15.3409Z" fill="black"/>
</svg>
