<svg width="24" height="24" viewBox="0 0 24 24" fill="none" xmlns="http://www.w3.org/2000/svg">
<path d="M18.5 4H12.5V2.5C12.5 2.36739 12.4473 2.24021 12.3536 2.14645C12.2598 2.05268 12.1326 2 12 2C11.8674 2 11.7402 2.05268 11.6464 2.14645C11.5527 2.24021 11.5 2.36739 11.5 2.5V4H5.5L1 13.9941C1.31326 14.9364 1.91809 15.7546 2.72704 16.3304C3.53598 16.9062 4.50712 17.2098 5.5 17.1973C6.49288 17.2098 7.46402 16.9062 8.27296 16.3304C9.08191 15.7546 9.68674 14.9364 10 13.9941L5.95 5H11.5V19.93L7 20.429V21H17V20.429L12.5 19.93V5H18.05L14 13.9941C14.3242 14.9294 14.9317 15.7405 15.7382 16.3146C16.5447 16.8886 17.5101 17.1971 18.5 17.1971C19.4899 17.1971 20.4553 16.8886 21.2618 16.3146C22.0683 15.7405 22.6758 14.9294 23 13.9941L18.5 4ZM2.094 14L5.5 6.4356L8.906 14H2.094ZM15.094 14L18.5 6.4356L21.906 14H15.094Z" fill="black"/>
</svg>
