<svg width="24" height="24" viewBox="0 0 24 24" fill="none" xmlns="http://www.w3.org/2000/svg">
<path d="M7.25 12.5C7.69501 12.5 8.13002 12.368 8.50003 12.1208C8.87004 11.8736 9.15843 11.5222 9.32873 11.111C9.49903 10.6999 9.54358 10.2475 9.45677 9.81105C9.36995 9.37459 9.15566 8.97368 8.84099 8.65901C8.52632 8.34434 8.12541 8.13005 7.68895 8.04323C7.2525 7.95642 6.8001 8.00097 6.38896 8.17127C5.97783 8.34157 5.62643 8.62996 5.37919 8.99997C5.13196 9.36998 5 9.80499 5 10.25C5 10.8467 5.23705 11.419 5.65901 11.841C6.08097 12.2629 6.65326 12.5 7.25 12.5ZM7.25 9C7.49723 9 7.7389 9.07331 7.94446 9.21066C8.15002 9.34801 8.31024 9.54324 8.40485 9.77165C8.49946 10.0001 8.52421 10.2514 8.47598 10.4939C8.42775 10.7363 8.3087 10.9591 8.13388 11.1339C7.95907 11.3087 7.73634 11.4278 7.49386 11.476C7.25139 11.5242 7.00005 11.4995 6.77165 11.4048C6.54324 11.3102 6.34801 11.15 6.21066 10.9445C6.07331 10.7389 6 10.4972 6 10.25C6.00037 9.91859 6.13219 9.60087 6.36653 9.36653C6.60087 9.13219 6.91859 9.00037 7.25 9ZM18 8H11V14H3V5H2V18H3V15H21V18H22V12C22 10.9391 21.5786 9.92172 20.8284 9.17157C20.0783 8.42143 19.0609 8 18 8ZM21 14H12V9H18C18.7954 9.0009 19.5579 9.31726 20.1203 9.87967C20.6827 10.4421 20.9991 11.2046 21 12V14Z" fill="black"/>
</svg>
