<svg width="24" height="24" viewBox="0 0 24 24" fill="none" xmlns="http://www.w3.org/2000/svg">
<path d="M11.3311 18.9307L12 19.5327L12.6689 18.9307C12.9277 18.6982 18.9951 13.1772 18.9951 7.99558C19 7.07383 18.8227 6.1602 18.4734 5.3072C18.1241 4.4542 17.6096 3.67865 16.9596 3.02513C16.3096 2.37161 15.5368 1.85301 14.6856 1.49913C13.8345 1.14525 12.9219 0.963074 12.0001 0.963074C11.0783 0.963074 10.1657 1.14525 9.31455 1.49913C8.46343 1.85301 7.69065 2.37161 7.04061 3.02513C6.39058 3.67865 5.87611 4.4542 5.52679 5.3072C5.17746 6.1602 5.00017 7.07383 5.0051 7.99558C5.0049 13.1772 11.0723 18.6982 11.3311 18.9307ZM12 2.49998C13.4569 2.5017 14.8537 3.08127 15.8839 4.11153C16.9141 5.1418 17.4935 6.53863 17.4951 7.99558C17.4951 11.8873 13.2396 16.2977 12 17.4997C10.7621 16.2997 6.5049 11.8881 6.5049 7.99558C6.50649 6.53863 7.08593 5.1418 8.1161 4.11153C9.14627 3.08127 10.5431 2.5017 12 2.49998ZM4 21.5V23H20V21.5H4ZM13.1 7.99998C13.1 7.78242 13.0355 7.56974 12.9146 7.38885C12.7937 7.20796 12.622 7.06697 12.421 6.98371C12.22 6.90045 11.9988 6.87867 11.7854 6.92111C11.572 6.96356 11.376 7.06832 11.2222 7.22216C11.0683 7.376 10.9636 7.572 10.9211 7.78538C10.8787 7.99876 10.9005 8.21993 10.9837 8.42093C11.067 8.62193 11.208 8.79373 11.3889 8.91459C11.5698 9.03546 11.7824 9.09998 12 9.09998C12.2917 9.09998 12.5715 8.98409 12.7778 8.7778C12.9841 8.57151 13.1 8.29172 13.1 7.99998Z" fill="black"/>
</svg>
