<svg width="24" height="24" viewBox="0 0 24 24" fill="none" xmlns="http://www.w3.org/2000/svg">
<path d="M7.75 11.5C8.09612 11.5 8.43446 11.3974 8.72225 11.2051C9.01003 11.0128 9.23434 10.7395 9.36679 10.4197C9.49924 10.0999 9.5339 9.74806 9.46637 9.40859C9.39885 9.06913 9.23218 8.7573 8.98744 8.51256C8.7427 8.26782 8.43087 8.10115 8.09141 8.03363C7.75194 7.9661 7.40007 8.00076 7.0803 8.13321C6.76053 8.26566 6.48722 8.48997 6.29493 8.77775C6.10264 9.06554 6 9.40388 6 9.75C6 10.2141 6.18437 10.6592 6.51256 10.9874C6.84075 11.3156 7.28587 11.5 7.75 11.5ZM18 8H11V13H4V5H2V18H4V15H20V18H22V12C22 10.9391 21.5786 9.92172 20.8284 9.17157C20.0783 8.42143 19.0609 8 18 8Z" fill="black"/>
</svg>
