<svg width="24" height="24" viewBox="0 0 24 24" fill="none" xmlns="http://www.w3.org/2000/svg">
<path d="M16 6V4C16 3.46957 15.7893 2.96086 15.4142 2.58579C15.0391 2.21071 14.5304 2 14 2H10C9.46957 2 8.96086 2.21071 8.58579 2.58579C8.21071 2.96086 8 3.46957 8 4V6H2V9C2 9.53043 2.21071 10.0391 2.58579 10.4142C2.96086 10.7893 3.46957 11 4 11H20C20.5304 11 21.0391 10.7893 21.4142 10.4142C21.7893 10.0391 22 9.53043 22 9V6H16ZM14 6H10V4H14V6ZM13 13V15H11V13H4C3.29568 12.996 2.60521 12.8039 2 12.4436V21H22V12.4436C21.3948 12.8039 20.7043 12.996 20 13H13Z" fill="black"/>
</svg>
