<svg width="24" height="24" viewBox="0 0 24 24" fill="none" xmlns="http://www.w3.org/2000/svg">
<g clip-path="url(#clip0)">
<path d="M12 0C9.61557 0.0027525 7.32959 0.951184 5.64354 2.63723C3.95749 4.32328 3.00905 6.60927 3.0063 8.9937C3.0063 15.7563 10.9912 23.021 11.3311 23.3267L12 23.9287L12.6689 23.3267C13.0089 23.021 20.9941 15.7567 20.9941 8.9937C20.9913 6.60922 20.0428 4.32322 18.3566 2.63718C16.6705 0.951136 14.3845 0.00272589 12 0V0ZM12 21.8974C10.5043 20.4614 4.5063 14.366 4.5063 8.9937C4.5063 7.00619 5.29584 5.10009 6.70121 3.69471C8.10659 2.28933 10.0127 1.4998 12.0002 1.4998C13.9877 1.4998 15.8938 2.28933 17.2992 3.69471C18.7046 5.10009 19.4941 7.00619 19.4941 8.9937C19.4941 14.3652 13.4966 20.4605 12 21.8974ZM12.8712 7.9345L12 5.2535L11.1288 7.9345H8.31L10.5907 9.5915L9.7196 12.2726L12 10.6155L14.2806 12.2726L13.41 9.5915L15.69 7.9345H12.8712Z" fill="black"/>
</g>
<defs>
<clipPath id="clip0">
<rect width="24" height="24" fill="white"/>
</clipPath>
</defs>
</svg>
