<svg width="24" height="24" viewBox="0 0 24 24" fill="none" xmlns="http://www.w3.org/2000/svg">
<path d="M13.7285 17.25H18.2285C18.2285 16.6533 17.9914 16.081 17.5695 15.659C17.1475 15.2371 16.5752 15 15.9785 15C15.3817 15 14.8094 15.2371 14.3875 15.659C13.9655 16.081 13.7285 16.6533 13.7285 17.25ZM18.2026 12.4066C18.4399 12.4066 18.6719 12.3362 18.8693 12.2044C19.0666 12.0725 19.2204 11.8851 19.3112 11.6658C19.4021 11.4465 19.4258 11.2053 19.3795 10.9725C19.3332 10.7397 19.2189 10.5259 19.0511 10.3581C18.8833 10.1902 18.6695 10.076 18.4367 10.0297C18.2039 9.98336 17.9626 10.0071 17.7434 10.0979C17.5241 10.1888 17.3367 10.3426 17.2048 10.5399C17.073 10.7373 17.0026 10.9693 17.0026 11.2066C17.0026 11.5249 17.129 11.8301 17.354 12.0551C17.5791 12.2802 17.8843 12.4066 18.2026 12.4066ZM15 6V2H0.999972V11C0.996711 12.0567 1.23345 13.1003 1.69234 14.0521C2.15122 15.0039 2.82027 15.8391 3.64901 16.4947C4.47775 17.1503 5.44453 17.6091 6.47644 17.8365C7.50835 18.0639 8.57844 18.054 9.60597 17.8076C10.2488 19.2799 11.3792 20.4859 12.8069 21.2224C14.2346 21.959 15.8725 22.1811 17.4449 21.8515C19.0173 21.5219 20.4281 20.6607 21.4398 19.4128C22.4516 18.1649 23.0026 16.6065 23 15V6H15ZM7.99997 16.1C6.64784 16.0985 5.35153 15.5607 4.39542 14.6045C3.43932 13.6484 2.90151 12.3521 2.89997 11V3.9H13.1V11C13.0984 12.3521 12.5606 13.6484 11.6045 14.6045C10.6484 15.5607 9.35211 16.0985 7.99997 16.1ZM21.1 15C21.1035 16.1625 20.7087 17.291 19.9811 18.1977C19.2536 19.1043 18.2374 19.7343 17.1018 19.9826C15.9661 20.2309 14.7797 20.0826 13.7402 19.5623C12.7006 19.042 11.8708 18.1813 11.3889 17.1234C12.483 16.5185 13.3951 15.6314 14.0301 14.5545C14.6652 13.4776 15.0001 12.2502 15 11V7.9H21.1V15ZM7.97847 13.25C8.27395 13.25 8.56653 13.1918 8.83951 13.0787C9.11249 12.9657 9.36053 12.7999 9.56946 12.591C9.77839 12.3821 9.94413 12.134 10.0572 11.861C10.1703 11.5881 10.2285 11.2955 10.2285 11H5.72847C5.72847 11.5967 5.96553 12.169 6.38748 12.591C6.80944 13.0129 7.38174 13.25 7.97847 13.25ZM10.2026 6.0065C9.96523 6.0065 9.73323 6.07688 9.53589 6.20874C9.33855 6.34059 9.18474 6.52801 9.09392 6.74728C9.00309 6.96655 8.97933 7.20783 9.02563 7.44061C9.07193 7.67339 9.18622 7.88721 9.35404 8.05503C9.52187 8.22285 9.73569 8.33714 9.96846 8.38344C10.2012 8.42974 10.4425 8.40598 10.6618 8.31516C10.8811 8.22433 11.0685 8.07052 11.2003 7.87318C11.3322 7.67585 11.4026 7.44384 11.4026 7.2065C11.4026 6.88824 11.2761 6.58302 11.0511 6.35797C10.8261 6.13293 10.5208 6.0065 10.2026 6.0065ZM6.95447 7.2065C6.95447 6.96916 6.88409 6.73715 6.75224 6.53982C6.62038 6.34248 6.43296 6.18867 6.21369 6.09784C5.99442 6.00702 5.75314 5.98326 5.52036 6.02956C5.28759 6.07586 5.07377 6.19015 4.90594 6.35797C4.73812 6.52579 4.62383 6.73961 4.57753 6.97239C4.53123 7.20517 4.55499 7.44645 4.64582 7.66572C4.73664 7.88499 4.89045 8.07241 5.08779 8.20426C5.28513 8.33612 5.51713 8.4065 5.75447 8.4065C6.07273 8.4065 6.37796 8.28007 6.603 8.05503C6.82804 7.82998 6.95447 7.52476 6.95447 7.2065Z" fill="black"/>
</svg>
