<svg width="24" height="24" viewBox="0 0 24 24" fill="none" xmlns="http://www.w3.org/2000/svg">
<path d="M19.5 3H15V4.5H19.5V6.1667H15V7.6667H19.5V9.3334H15V10.8334H19.5V12.5H15V14H19.5V21H21V4.5C21 4.10218 20.842 3.72064 20.5607 3.43934C20.2794 3.15804 19.8978 3 19.5 3ZM12 15C11.4719 15.0029 10.9541 15.1465 10.5 15.4161V13L8.9 3H8.1L6.5 13V15.4161C6.04589 15.1465 5.5281 15.0029 5 15C4.40666 15 3.82664 15.1759 3.33329 15.5056C2.83994 15.8352 2.45543 16.3038 2.22836 16.852C2.0013 17.4001 1.94189 18.0033 2.05765 18.5853C2.1734 19.1672 2.45912 19.7018 2.87868 20.1213C3.29824 20.5409 3.83279 20.8266 4.41473 20.9424C4.99667 21.0581 5.59987 20.9987 6.14805 20.7716C6.69623 20.5446 7.16477 20.1601 7.49441 19.6667C7.82405 19.1734 8 18.5933 8 18V12H9V18C9 18.5933 9.17595 19.1734 9.50559 19.6667C9.83524 20.1601 10.3038 20.5446 10.852 20.7716C11.4001 20.9987 12.0033 21.0581 12.5853 20.9424C13.1672 20.8266 13.7018 20.5409 14.1213 20.1213C14.5409 19.7018 14.8266 19.1672 14.9424 18.5853C15.0581 18.0033 14.9987 17.4001 14.7716 16.852C14.5446 16.3038 14.1601 15.8352 13.6667 15.5056C13.1734 15.1759 12.5933 15 12 15ZM5 19.5C4.70333 19.5 4.41332 19.412 4.16665 19.2472C3.91997 19.0824 3.72771 18.8481 3.61418 18.574C3.50065 18.2999 3.47095 17.9983 3.52882 17.7074C3.5867 17.4164 3.72956 17.1491 3.93934 16.9393C4.14912 16.7296 4.41639 16.5867 4.70737 16.5288C4.99834 16.4709 5.29994 16.5007 5.57403 16.6142C5.84812 16.7277 6.08238 16.92 6.24721 17.1666C6.41203 17.4133 6.5 17.7033 6.5 18C6.49955 18.3977 6.34137 18.779 6.06016 19.0602C5.77896 19.3414 5.39769 19.4996 5 19.5ZM12 19.5C11.7033 19.5 11.4133 19.412 11.1666 19.2472C10.92 19.0824 10.7277 18.8481 10.6142 18.574C10.5007 18.2999 10.4709 17.9983 10.5288 17.7074C10.5867 17.4164 10.7296 17.1491 10.9393 16.9393C11.1491 16.7296 11.4164 16.5867 11.7074 16.5288C11.9983 16.4709 12.2999 16.5007 12.574 16.6142C12.8481 16.7277 13.0824 16.92 13.2472 17.1666C13.412 17.4133 13.5 17.7033 13.5 18C13.4996 18.3977 13.3414 18.779 13.0602 19.0602C12.779 19.3414 12.3977 19.4996 12 19.5Z" fill="black"/>
</svg>
