<svg width="24" height="24" viewBox="0 0 24 24" fill="none" xmlns="http://www.w3.org/2000/svg">
<path d="M23 11C23 10.6786 22.979 10.3624 22.9519 10.048C22.6376 10.0211 22.3213 9.99997 22 9.99997C20.0579 10 18.1509 10.5173 16.4751 11.4988C16.4155 9.68193 15.9882 7.89602 15.219 6.24894C14.4499 4.60186 13.3548 3.12779 12 1.91577C10.6452 3.12779 9.55014 4.60186 8.78098 6.24894C8.01182 7.89602 7.58452 9.68193 7.5249 11.4988C5.84907 10.5173 3.94206 10 2 9.99997C1.6787 9.99997 1.3624 10.0211 1.0481 10.048C1.021 10.3624 1 10.6786 1 11C1.00077 13.7517 2.03321 16.4031 3.89348 18.4307C5.75376 20.4583 8.30664 21.7148 11.0481 21.952C11.3624 21.9789 11.6787 22 12 22C12.3213 22 12.6376 21.9789 12.9519 21.952C15.6934 21.7148 18.2462 20.4583 20.1065 18.4307C21.9668 16.4031 22.9992 13.7517 23 11ZM9.5 11.9579C9.50419 9.36537 10.3853 6.85052 12 4.82227C13.6147 6.85052 14.4958 9.36537 14.5 11.9579C14.5 12.3193 14.4637 12.6762 14.4294 13.0331C13.4096 14.0021 12.585 15.1575 12 16.4369C11.415 15.1576 10.5904 14.0022 9.5707 13.0332C9.5364 12.6763 9.5 12.3193 9.5 11.9579ZM3.0624 12.0623C5.06734 12.3036 6.93326 13.2109 8.36118 14.6388C9.7891 16.0668 10.6964 17.9327 10.9376 19.9377C8.93266 19.6964 7.06674 18.7891 5.63882 17.3611C4.2109 15.9332 3.30364 14.0672 3.0624 12.0623ZM13.0624 19.9377C13.3036 17.9327 14.2109 16.0668 15.6388 14.6388C17.0667 13.2109 18.9327 12.3036 20.9376 12.0623C20.6964 14.0672 19.7891 15.9332 18.3612 17.3611C16.9333 18.7891 15.0673 19.6964 13.0624 19.9377Z" fill="black"/>
</svg>
