<svg width="24" height="24" viewBox="0 0 24 24" fill="none" xmlns="http://www.w3.org/2000/svg">
<path d="M8 6.3384L5 12H8V15.6616L11 10H8V6.3384ZM22 3V6H20V3H18V7.9774C18.5918 8.42327 19.2747 8.73304 20 8.8846V18C20 18.2652 19.8946 18.5196 19.7071 18.7071C19.5196 18.8946 19.2652 19 19 19C18.7348 19 18.4804 18.8946 18.2929 18.7071C18.1054 18.5196 18 18.2652 18 18V16C17.9991 15.2046 17.6828 14.4421 17.1204 13.8796C16.5579 13.3172 15.7954 13.0009 15 13H14V6C14 5.20435 13.6839 4.44129 13.1213 3.87868C12.5587 3.31607 11.7956 3 11 3H5C4.20435 3 3.44129 3.31607 2.87868 3.87868C2.31607 4.44129 2 5.20435 2 6V21H14V15H15C15.2651 15.0002 15.5194 15.1057 15.7068 15.2932C15.8943 15.4806 15.9998 15.7349 16 16V18C16 18.7956 16.3161 19.5587 16.8787 20.1213C17.4413 20.6839 18.2044 21 19 21C19.7956 21 20.5587 20.6839 21.1213 20.1213C21.6839 19.5587 22 18.7956 22 18V8.8846C22.7253 8.73304 23.4082 8.42327 24 7.9774V3H22ZM12 19H4V6C4.00029 5.73487 4.10574 5.48069 4.29321 5.29321C4.48069 5.10574 4.73487 5.00029 5 5H11C11.2651 5.00029 11.5193 5.10574 11.7068 5.29321C11.8943 5.48069 11.9997 5.73487 12 6V19Z" fill="black"/>
</svg>
