<svg width="24" height="24" viewBox="0 0 24 24" fill="none" xmlns="http://www.w3.org/2000/svg">
<path d="M22.9507 10.0228C22.8 10.0167 22.6521 9.99997 22.5 9.99997C20.365 9.99845 18.2762 10.6217 16.491 11.7928C16.4694 9.92482 16.0589 8.08184 15.2857 6.3813C14.5125 4.68076 13.3935 3.15994 12 1.91577C10.6065 3.15994 9.48752 4.68076 8.7143 6.3813C7.94107 8.08184 7.53059 9.92482 7.509 11.7928C5.72384 10.6217 3.63502 9.99845 1.5 9.99997C1.3479 9.99997 1.2 10.0167 1.0493 10.0228C1.0209 10.3453 1 10.67 1 11C1 13.9174 2.15893 16.7152 4.22183 18.7781C6.28473 20.841 9.08262 22 12 22C14.9174 22 17.7153 20.841 19.7782 18.7781C21.8411 16.7152 23 13.9174 23 11C23 10.67 22.9791 10.3453 22.9507 10.0228ZM8.5 11.9579C8.50613 8.72997 9.76026 5.62949 12 3.30507C14.2397 5.62949 15.4939 8.72997 15.5 11.9579C15.5 12.1548 15.4772 12.3489 15.4668 12.5447C13.8381 13.8984 12.6344 15.6932 12 17.7139C11.3656 15.6932 10.1619 13.8984 8.5332 12.5447C8.5228 12.3489 8.5 12.1548 8.5 11.9579ZM2 11.0123C4.55928 11.1434 6.97086 12.2508 8.73815 14.1066C10.5054 15.9623 11.4939 18.425 11.5 20.9877C8.94072 20.8566 6.52914 19.7491 4.76185 17.8934C2.99455 16.0376 2.00609 13.5749 2 11.0123ZM12.5 20.9877C12.5061 18.425 13.4946 15.9623 15.2618 14.1066C17.0291 12.2508 19.4407 11.1434 22 11.0123C21.9939 13.5749 21.0054 16.0376 19.2382 17.8934C17.4709 19.7491 15.0593 20.8566 12.5 20.9877Z" fill="black"/>
</svg>
