<svg width="24" height="24" viewBox="0 0 24 24" fill="none" xmlns="http://www.w3.org/2000/svg">
<path d="M12 2C10.0222 2 8.08879 2.58649 6.4443 3.6853C4.79981 4.78412 3.51809 6.3459 2.76121 8.17317C2.00433 10.0004 1.8063 12.0111 2.19215 13.9509C2.578 15.8907 3.53041 17.6725 4.92894 19.0711C6.32746 20.4696 8.10929 21.422 10.0491 21.8079C11.9889 22.1937 13.9996 21.9957 15.8268 21.2388C17.6541 20.4819 19.2159 19.2002 20.3147 17.5557C21.4135 15.9112 22 13.9778 22 12C22 10.6868 21.7413 9.38642 21.2388 8.17317C20.7363 6.95991 19.9997 5.85752 19.0711 4.92893C18.1425 4.00035 17.0401 3.26375 15.8268 2.7612C14.6136 2.25866 13.3132 2 12 2ZM19.7316 17.5H17.5V15.5728L18.4273 14.5861C18.5976 14.4054 18.803 14.2613 19.0308 14.1625C19.2586 14.0638 19.5041 14.0124 19.7524 14.0115H19.7558C20.0176 14.0134 20.2755 14.0752 20.5098 14.1922C20.744 14.3092 20.9483 14.4783 21.1071 14.6865C20.8081 15.6943 20.3433 16.6451 19.7316 17.5ZM19.7558 13.5115H19.7524C19.4358 13.512 19.1226 13.5772 18.8321 13.7031C18.5415 13.829 18.2798 14.013 18.063 14.2437L17 15.3746V18H19.3574C17.8737 19.8288 15.7689 21.0478 13.4442 21.4245C11.1195 21.8012 8.73749 21.3094 6.75212 20.0428C4.76675 18.7761 3.31687 16.8232 2.6788 14.5563C2.04074 12.2894 2.25911 9.86694 3.2923 7.75067C4.32549 5.6344 6.10126 3.97229 8.28114 3.08113C10.461 2.18997 12.8926 2.13207 15.1124 2.91847C17.3323 3.70487 19.1851 5.28058 20.3179 7.34527C21.4506 9.40996 21.7841 11.8193 21.2546 14.114C20.8495 13.7304 20.3137 13.515 19.7558 13.5115ZM7.4308 6.3161L6.8228 7.9871C6.74035 8.2137 6.71375 8.45683 6.74524 8.6959C6.77673 8.93496 6.86539 9.16291 7.00371 9.36043C7.14202 9.55794 7.32592 9.7192 7.53981 9.83054C7.7537 9.94187 7.99127 10 8.2324 10H10.3294C10.4885 10 10.6411 10.0632 10.7537 10.1757C10.8662 10.2883 10.9294 10.4409 10.9294 10.6C10.9294 10.7591 10.8662 10.9117 10.7537 11.0243C10.6411 11.1368 10.4885 11.2 10.3294 11.2H8C7.46957 11.2 6.96086 11.4107 6.58579 11.7858C6.21072 12.1609 6 12.6696 6 13.2V14C6 14.2652 6.10536 14.5196 6.2929 14.7071C6.48043 14.8946 6.73479 15 7 15H8V17C8 17.2652 8.10536 17.5196 8.2929 17.7071C8.48043 17.8946 8.73479 18 9 18H9.5C9.82831 18 10.1534 17.9353 10.4567 17.8097C10.76 17.6841 11.0356 17.4999 11.2678 17.2678C11.4999 17.0356 11.6841 16.76 11.8097 16.4567C11.9353 16.1534 12 15.8283 12 15.5V13H15.5C16.163 13 16.7989 12.7366 17.2678 12.2678C17.7366 11.7989 18 11.163 18 10.5V5H9.31C8.89958 5.00005 8.49911 5.12636 8.16293 5.36181C7.82675 5.59725 7.57115 5.93042 7.4308 6.3161ZM17.5 10.5C17.4994 11.0302 17.2885 11.5386 16.9135 11.9135C16.5386 12.2885 16.0303 12.4994 15.5 12.5H11.5V15.5C11.4994 16.0302 11.2885 16.5386 10.9135 16.9135C10.5386 17.2885 10.0303 17.4994 9.5 17.5H9C8.86744 17.4998 8.74036 17.4471 8.64663 17.3534C8.55289 17.2596 8.50016 17.1326 8.5 17V14.5H7C6.86744 14.4998 6.74036 14.4471 6.64663 14.3534C6.55289 14.2596 6.50016 14.1326 6.5 14V13.2C6.50045 12.8023 6.65863 12.421 6.93984 12.1398C7.22105 11.8586 7.60232 11.7004 8 11.7H10.3294C10.4739 11.7 10.6169 11.6715 10.7504 11.6163C10.8838 11.561 11.0051 11.48 11.1072 11.3778C11.2094 11.2757 11.2904 11.1544 11.3457 11.021C11.401 10.8875 11.4294 10.7445 11.4294 10.6C11.4294 10.4555 11.401 10.3125 11.3457 10.179C11.2904 10.0456 11.2094 9.92433 11.1072 9.82218C11.0051 9.72004 10.8838 9.63901 10.7504 9.58373C10.6169 9.52845 10.4739 9.5 10.3294 9.5H8.2324C8.07163 9.50004 7.91322 9.46132 7.7706 9.38712C7.62797 9.31291 7.50534 9.20542 7.4131 9.07374C7.32086 8.94206 7.26173 8.79008 7.24072 8.63069C7.21971 8.47129 7.23744 8.30918 7.2924 8.1581L7.9005 6.4871C8.00632 6.19818 8.19817 5.94865 8.4502 5.77215C8.70223 5.59565 9.00232 5.50066 9.31 5.5H17.5V10.5Z" fill="black"/>
</svg>
