<svg width="24" height="24" viewBox="0 0 24 24" fill="none" xmlns="http://www.w3.org/2000/svg">
<path d="M6.4937 10.25C6.88926 10.25 7.27594 10.1327 7.60484 9.91294C7.93374 9.69318 8.19008 9.38082 8.34146 9.01537C8.49283 8.64991 8.53244 8.24778 8.45527 7.85982C8.3781 7.47186 8.18762 7.11549 7.90791 6.83579C7.62821 6.55608 7.27184 6.3656 6.88388 6.28843C6.49592 6.21126 6.09379 6.25087 5.72833 6.40224C5.36288 6.55362 5.05052 6.80996 4.83076 7.13886C4.611 7.46776 4.4937 7.85444 4.4937 8.25C4.4937 8.78043 4.70441 9.28914 5.07949 9.66421C5.45456 10.0393 5.96327 10.25 6.4937 10.25ZM6.4937 6.75C6.79037 6.75 7.08038 6.83797 7.32706 7.0028C7.57373 7.16762 7.76599 7.40189 7.87952 7.67597C7.99305 7.95006 8.02276 8.25166 7.96488 8.54264C7.907 8.83361 7.76414 9.10088 7.55436 9.31066C7.34458 9.52044 7.07731 9.6633 6.78634 9.72118C6.49536 9.77906 6.19376 9.74935 5.91967 9.63582C5.64559 9.52229 5.41132 9.33003 5.2465 9.08335C5.08167 8.83668 4.9937 8.54667 4.9937 8.25C4.99415 7.85231 5.15233 7.47104 5.43354 7.18984C5.71474 6.90863 6.09601 6.75045 6.4937 6.75ZM2 3V21H22V3H2ZM18.5 20.5H10.5V15.5H16C16.6628 15.5007 17.2983 15.7644 17.7669 16.2331C18.2356 16.7017 18.4993 17.3372 18.5 18V20.5ZM21.5 20.5H19V18C19 17.2044 18.6839 16.4413 18.1213 15.8787C17.5587 15.3161 16.7956 15 16 15H10V20.5H2.5V12.25H21.5V20.5ZM10.5 11.75V6.75H16C16.6628 6.75074 17.2983 7.01437 17.7669 7.48305C18.2356 7.95173 18.4993 8.58719 18.5 9.25V11.75H10.5ZM21.5 11.75H19V9.25C19 8.45435 18.6839 7.69129 18.1213 7.12868C17.5587 6.56607 16.7956 6.25 16 6.25H10V11.75H2.5V3.5H21.5V11.75ZM6.4937 19C6.88926 19 7.27594 18.8827 7.60484 18.6629C7.93374 18.4432 8.19008 18.1308 8.34146 17.7654C8.49283 17.3999 8.53244 16.9978 8.45527 16.6098C8.3781 16.2219 8.18762 15.8655 7.90791 15.5858C7.62821 15.3061 7.27184 15.1156 6.88388 15.0384C6.49592 14.9613 6.09379 15.0009 5.72833 15.1522C5.36288 15.3036 5.05052 15.56 4.83076 15.8889C4.611 16.2178 4.4937 16.6044 4.4937 17C4.4937 17.5304 4.70441 18.0391 5.07949 18.4142C5.45456 18.7893 5.96327 19 6.4937 19ZM6.4937 15.5C6.79037 15.5 7.08038 15.588 7.32706 15.7528C7.57373 15.9176 7.76599 16.1519 7.87952 16.426C7.99305 16.7001 8.02276 17.0017 7.96488 17.2926C7.907 17.5836 7.76414 17.8509 7.55436 18.0607C7.34458 18.2704 7.07731 18.4133 6.78634 18.4712C6.49536 18.5291 6.19376 18.4993 5.91967 18.3858C5.64559 18.2723 5.41132 18.08 5.2465 17.8334C5.08167 17.5867 4.9937 17.2967 4.9937 17C4.99415 16.6023 5.15233 16.221 5.43354 15.9398C5.71474 15.6586 6.09601 15.5005 6.4937 15.5Z" fill="black"/>
</svg>
