<svg width="24" height="24" viewBox="0 0 24 24" fill="none" xmlns="http://www.w3.org/2000/svg">
<path d="M13 2H1V11C1 12.5913 1.63214 14.1174 2.75736 15.2426C3.88258 16.3679 5.4087 17 7 17C8.5913 17 10.1174 16.3679 11.2426 15.2426C12.3679 14.1174 13 12.5913 13 11V2ZM3.1689 7.2065C3.1689 6.96916 3.23928 6.73716 3.37114 6.53982C3.50299 6.34248 3.69041 6.18867 3.90968 6.09785C4.12895 6.00702 4.37023 5.98326 4.60301 6.02956C4.83579 6.07586 5.04961 6.19015 5.21743 6.35797C5.38525 6.5258 5.49954 6.73961 5.54584 6.97239C5.59214 7.20517 5.56838 7.44645 5.47756 7.66572C5.38673 7.88499 5.23292 8.07241 5.03558 8.20426C4.83825 8.33612 4.60624 8.4065 4.3689 8.4065C4.05064 8.4065 3.74542 8.28007 3.52037 8.05503C3.29533 7.82999 3.1689 7.52476 3.1689 7.2065ZM6.9789 13.25C6.68339 13.2501 6.39077 13.1919 6.11774 13.0788C5.84471 12.9658 5.59663 12.8001 5.38765 12.5911C5.17868 12.3822 5.01291 12.1341 4.89981 11.8611C4.78671 11.5881 4.7285 11.2955 4.7285 11H9.2285C9.2285 11.5967 8.99145 12.169 8.56949 12.591C8.14753 13.0129 7.57524 13.25 6.9785 13.25H6.9789ZM9.5889 8.4066C9.35156 8.4066 9.11955 8.33622 8.92222 8.20436C8.72488 8.07251 8.57107 7.88509 8.48024 7.66582C8.38942 7.44655 8.36566 7.20527 8.41196 6.97249C8.45826 6.73972 8.57255 6.5259 8.74037 6.35807C8.90819 6.19025 9.12201 6.07596 9.35479 6.02966C9.58757 5.98336 9.82885 6.00712 10.0481 6.09795C10.2674 6.18877 10.4548 6.34258 10.5867 6.53992C10.7185 6.73726 10.7889 6.96926 10.7889 7.2066C10.7889 7.36424 10.7578 7.52033 10.6975 7.66596C10.6372 7.81159 10.5487 7.9439 10.4372 8.05534C10.3257 8.16678 10.1934 8.25516 10.0477 8.31543C9.90204 8.3757 9.74594 8.40668 9.5883 8.4066H9.5889ZM15 6.1562V11C14.9991 12.2852 14.6882 13.5513 14.0938 14.6907C13.4993 15.8302 12.6388 16.8095 11.5852 17.5455C12.1335 18.8108 13.1013 19.8484 14.3255 20.4834C15.5496 21.1183 16.9553 21.3118 18.3054 21.0311C19.6556 20.7505 20.8677 20.0129 21.7375 18.9427C22.6072 17.8726 23.0814 16.5352 23.08 15.1562V6.1562H15ZM14.83 17.25C14.83 16.6533 15.0671 16.081 15.489 15.659C15.911 15.2371 16.4833 15 17.08 15C17.6767 15 18.249 15.2371 18.671 15.659C19.0929 16.081 19.33 16.6533 19.33 17.25H14.83ZM19.6684 12.5628C19.4311 12.5628 19.1991 12.4924 19.0017 12.3606C18.8044 12.2287 18.6506 12.0413 18.5597 11.822C18.4689 11.6028 18.4452 11.3615 18.4915 11.1287C18.5378 10.8959 18.652 10.6821 18.8199 10.5143C18.9877 10.3464 19.2015 10.2322 19.4343 10.1859C19.6671 10.1396 19.9083 10.1633 20.1276 10.2541C20.3469 10.345 20.5343 10.4988 20.6662 10.6961C20.798 10.8935 20.8684 11.1255 20.8684 11.3628C20.8684 11.5204 20.8374 11.6765 20.777 11.8221C20.7167 11.9677 20.6283 12.1 20.5169 12.2114C20.4054 12.3228 20.2731 12.4112 20.1275 12.4715C19.9819 12.5318 19.8258 12.5628 19.6682 12.5628H19.6684Z" fill="black"/>
</svg>
