<svg width="24" height="24" viewBox="0 0 24 24" fill="none" xmlns="http://www.w3.org/2000/svg">
<path d="M2.9862 16.15C3.02404 16.6531 3.25058 17.1232 3.62043 17.4663C3.99029 17.8094 4.47613 18 4.9806 18H5V20H8V18H8.0194C8.52387 18 9.00971 17.8094 9.37957 17.4663C9.74942 17.1232 9.97596 16.6531 10.0138 16.15L11 3H2L2.9862 16.15ZM7.5 19.5H5.5V18H7.5V19.5ZM9.5151 16.1122C9.48541 16.489 9.31513 16.8409 9.03806 17.098C8.76098 17.3551 8.39737 17.4986 8.0194 17.5H4.9806C4.60263 17.4986 4.23902 17.3551 3.96194 17.098C3.68487 16.8409 3.51459 16.489 3.4849 16.1122L2.5389 3.5H10.4611L9.5151 16.1122ZM20.5 10H14.5C14.1022 10 13.7206 10.158 13.4393 10.4393C13.158 10.7206 13 11.1022 13 11.5V20H22V11.5C22 11.1022 21.842 10.7206 21.5607 10.4393C21.2794 10.158 20.8978 10 20.5 10ZM21.5 19.5H13.5V13.5H21.5V19.5ZM21.5 13H13.5V11.5C13.5003 11.2349 13.6057 10.9807 13.7932 10.7932C13.9807 10.6057 14.2349 10.5003 14.5 10.5H20.5C20.7651 10.5003 21.0193 10.6057 21.2068 10.7932C21.3943 10.9807 21.4997 11.2349 21.5 11.5V13Z" fill="black"/>
</svg>
