<svg width="24" height="24" viewBox="0 0 24 24" fill="none" xmlns="http://www.w3.org/2000/svg">
<path d="M2 15.5C2 16.6935 2.47411 17.8381 3.31802 18.682C4.16193 19.5259 5.30653 20 6.5 20C7.69347 20 8.83807 19.5259 9.68198 18.682C10.5259 17.8381 11 16.6935 11 15.5V12H2V15.5ZM6.5 2C5.30653 2 4.16193 2.47411 3.31802 3.31802C2.47411 4.16193 2 5.30653 2 6.5V10H11V6.5C11 5.30653 10.5259 4.16193 9.68198 3.31802C8.83807 2.47411 7.69347 2 6.5 2ZM21.2224 12.98L14.98 19.2224C15.845 19.8092 16.8874 20.0763 17.928 19.9775C18.9685 19.8787 19.9422 19.4204 20.6813 18.6813C21.4204 17.9422 21.8787 16.9686 21.9775 15.928C22.0763 14.8874 21.8092 13.845 21.2224 12.98ZM14.318 12.318C13.5793 13.0576 13.1214 14.0314 13.0228 15.0721C12.9243 16.1127 13.1913 17.1552 13.778 18.0203L20.02 11.7776C19.1549 11.191 18.1124 10.9241 17.0718 11.0227C16.0313 11.1213 15.0575 11.5793 14.318 12.318Z" fill="black"/>
</svg>
