<svg width="24" height="24" viewBox="0 0 24 24" fill="none" xmlns="http://www.w3.org/2000/svg">
<path d="M19.7073 4.1771C18.9892 3.45496 18.0649 2.97319 17.0616 2.79812C16.0584 2.62304 15.0255 2.76328 14.1053 3.19951C13.185 3.63574 12.4226 4.34652 11.923 5.23398C11.4235 6.12144 11.2113 7.14195 11.3157 8.155L2.52 18.1238L5.761 21.3647L15.7241 12.5739C15.8871 12.595 16.0512 12.6065 16.2155 12.6082C17.1923 12.6082 18.1472 12.3186 18.9594 11.7759C19.7716 11.2332 20.4046 10.4619 20.7784 9.5594C21.1522 8.65695 21.25 7.66391 21.0595 6.70586C20.8689 5.74782 20.3985 4.8678 19.7078 4.1771H19.7073ZM3.891 18.0811L5.2548 16.5355L7.3489 18.63L5.8033 19.9933L3.891 18.0811ZM8.0942 17.972L5.9124 15.79L11.8459 9.0652L14.819 12.0382L8.0942 17.972ZM19 10.4546C18.6351 10.8215 18.201 11.1123 17.723 11.3103C17.2449 11.5083 16.7323 11.6096 16.2149 11.6082C16.0621 11.6032 15.9097 11.5885 15.7588 11.5642L12.32 8.1255C12.2957 7.97455 12.2809 7.82221 12.2759 7.6694C12.2759 7.02164 12.4356 6.38387 12.741 5.8126C13.0463 5.24132 13.4879 4.75417 14.0264 4.39429C14.565 4.03441 15.1841 3.81291 15.8287 3.74942C16.4733 3.68593 17.1237 3.78239 17.7221 4.03028C18.3206 4.27817 18.8487 4.66982 19.2596 5.17054C19.6705 5.67127 19.9516 6.26561 20.078 6.90092C20.2044 7.53624 20.1721 8.19291 19.9841 8.81278C19.796 9.43264 19.458 9.99657 19 10.4546Z" fill="black"/>
</svg>
