<svg width="24" height="24" viewBox="0 0 24 24" fill="none" xmlns="http://www.w3.org/2000/svg">
<path d="M19.8107 4.18941C19.0294 3.40067 18.0226 2.87381 16.9291 2.68149C15.8357 2.48918 14.7095 2.64089 13.706 3.11571C12.7024 3.59052 11.8709 4.36504 11.3262 5.33243C10.7814 6.29981 10.5503 7.4124 10.6646 8.51671L2.3657 17.922L6.078 21.6343L15.478 13.3403C15.6509 13.3664 15.8252 13.3827 16 13.3892C17.0659 13.3893 18.1079 13.0733 18.9942 12.4811C19.8805 11.8889 20.5713 11.0472 20.9792 10.0624C21.3871 9.07766 21.4939 7.99403 21.2859 6.9486C21.0779 5.90316 20.5646 4.94289 19.8108 4.18921L19.8107 4.18941ZM5.1085 17.8364L6.4343 16.3338L7.6663 17.5657L6.1637 18.8915L5.1085 17.8364ZM9.1685 16.2399L7.76 14.8312L11.7376 10.3234L13.6765 12.2624L9.1685 16.2399ZM18.3962 10.3965C18.0428 10.7733 17.6022 11.0573 17.1131 11.2235C16.624 11.3897 16.1015 11.4329 15.5917 11.3494L12.6505 8.40791C12.6291 8.27287 12.6158 8.13665 12.6107 8.00001C12.6107 7.44262 12.7481 6.89382 13.0108 6.40222C13.2735 5.91063 13.6534 5.49142 14.1169 5.18172C14.5803 4.87203 15.113 4.68141 15.6677 4.62675C16.2224 4.5721 16.782 4.65509 17.297 4.86838C17.8119 5.08168 18.2663 5.41868 18.6199 5.84955C18.9736 6.28042 19.2154 6.79184 19.3242 7.33853C19.4329 7.88521 19.4051 8.45027 19.2433 8.98366C19.0815 9.51705 18.7907 10.0023 18.3965 10.3964L18.3962 10.3965Z" fill="black"/>
</svg>
