<svg width="24" height="24" viewBox="0 0 24 24" fill="none" xmlns="http://www.w3.org/2000/svg">
<path d="M13.9785 17.25H17.9785C17.9785 16.7196 17.7678 16.2109 17.3927 15.8358C17.0176 15.4607 16.5089 15.25 15.9785 15.25C15.448 15.25 14.9393 15.4607 14.5643 15.8358C14.1892 16.2109 13.9785 16.7196 13.9785 17.25ZM18.2026 12.2065C18.4004 12.2065 18.5937 12.1479 18.7581 12.038C18.9226 11.9281 19.0508 11.7719 19.1265 11.5892C19.2021 11.4065 19.2219 11.2054 19.1834 11.0114C19.1448 10.8174 19.0495 10.6392 18.9097 10.4994C18.7698 10.3595 18.5916 10.2643 18.3977 10.2257C18.2037 10.1871 18.0026 10.2069 17.8199 10.2826C17.6372 10.3583 17.481 10.4865 17.3711 10.6509C17.2612 10.8154 17.2026 11.0087 17.2026 11.2065C17.2026 11.4717 17.3079 11.7261 17.4955 11.9136C17.683 12.1011 17.9374 12.2065 18.2026 12.2065ZM15 6V2H0.999973V11C0.996667 12.0568 1.23345 13.1006 1.69244 14.0526C2.15144 15.0045 2.82067 15.8398 3.64962 16.4953C4.47856 17.1509 5.44558 17.6096 6.4777 17.8368C7.50981 18.064 8.58006 18.0539 9.60767 17.8071C10.2502 19.2794 11.3804 20.4855 12.808 21.2221C14.2356 21.9587 15.8734 22.1809 17.4457 21.8514C19.018 21.5218 20.4287 20.6606 21.4403 19.4127C22.452 18.1648 23.0028 16.6064 23 15V6H15ZM7.99997 16.5C6.54179 16.4984 5.14379 15.9184 4.1127 14.8873C3.0816 13.8562 2.50161 12.4582 2.49997 11V3.5H13.5V11C13.4983 12.4582 12.9183 13.8562 11.8872 14.8873C10.8562 15.9184 9.45816 16.4984 7.99997 16.5ZM21.5 15C21.5015 16.2528 21.0747 17.4685 20.2904 18.4454C19.5062 19.4224 18.4116 20.1019 17.1881 20.3713C15.9646 20.6408 14.6858 20.484 13.5637 19.9268C12.4416 19.3697 11.5436 18.4458 11.0187 17.3083C12.21 16.7397 13.2161 15.8456 13.9206 14.7293C14.6251 13.613 14.9993 12.32 15 11V7.5H21.5V15ZM7.97847 13C8.50891 13 9.01761 12.7893 9.39269 12.4142C9.76776 12.0391 9.97847 11.5304 9.97847 11H5.97847C5.97847 11.5304 6.18919 12.0391 6.56426 12.4142C6.93933 12.7893 7.44804 13 7.97847 13ZM10.2026 6.2065C10.0048 6.2065 9.81145 6.26515 9.647 6.37503C9.48255 6.48491 9.35438 6.64109 9.27869 6.82382C9.20301 7.00654 9.1832 7.20761 9.22179 7.40159C9.26037 7.59557 9.35561 7.77375 9.49547 7.91361C9.63532 8.05346 9.8135 8.1487 10.0075 8.18729C10.2015 8.22587 10.4025 8.20607 10.5853 8.13038C10.768 8.05469 10.9242 7.92652 11.034 7.76207C11.1439 7.59762 11.2026 7.40428 11.2026 7.2065C11.2026 6.94128 11.0972 6.68693 10.9097 6.49939C10.7221 6.31186 10.4678 6.2065 10.2026 6.2065ZM6.75437 7.2065C6.75437 7.00872 6.69572 6.81538 6.58584 6.65093C6.47596 6.48648 6.31978 6.35831 6.13706 6.28262C5.95433 6.20693 5.75326 6.18713 5.55928 6.22571C5.3653 6.2643 5.18712 6.35954 5.04727 6.49939C4.90741 6.63925 4.81217 6.81743 4.77359 7.01141C4.735 7.20539 4.75481 7.40646 4.83049 7.58918C4.90618 7.77191 5.03435 7.92809 5.1988 8.03797C5.36325 8.14785 5.55659 8.2065 5.75437 8.2065C6.01959 8.2065 6.27394 8.10114 6.46148 7.91361C6.64902 7.72607 6.75437 7.47172 6.75437 7.2065Z" fill="black"/>
</svg>
