<svg width="24" height="24" viewBox="0 0 24 24" fill="none" xmlns="http://www.w3.org/2000/svg">
<path d="M12 2C10.0222 2 8.08879 2.58649 6.4443 3.6853C4.79981 4.78412 3.51809 6.3459 2.76121 8.17317C2.00433 10.0004 1.8063 12.0111 2.19215 13.9509C2.578 15.8907 3.53041 17.6725 4.92894 19.0711C6.32746 20.4696 8.10929 21.422 10.0491 21.8079C11.9889 22.1937 13.9996 21.9957 15.8268 21.2388C17.6541 20.4819 19.2159 19.2002 20.3147 17.5557C21.4135 15.9112 22 13.9778 22 12C22 10.6868 21.7413 9.38642 21.2388 8.17317C20.7363 6.95991 19.9997 5.85752 19.0711 4.92893C18.1425 4.00035 17.0401 3.26375 15.8268 2.7612C14.6136 2.25866 13.3132 2 12 2ZM18.4539 8.9316L18.9272 7.6316C19.2393 8.12541 19.4974 8.65129 19.6972 9.2002H18.6418C18.6097 9.20019 18.578 9.19244 18.5495 9.17759C18.521 9.16274 18.4964 9.14124 18.478 9.1149C18.4596 9.08856 18.4477 9.05817 18.4436 9.0263C18.4394 8.99442 18.4429 8.96201 18.4539 8.9318V8.9316ZM4.915 16.1091C4.56379 15.5061 4.29156 14.8604 4.105 14.1879C4.22788 14.1386 4.35846 14.1111 4.4908 14.1069H4.4951C4.7353 14.1064 4.96834 14.1887 5.15496 14.3399C5.34159 14.4911 5.4704 14.702 5.51971 14.9371C5.56903 15.1722 5.53583 15.4171 5.4257 15.6306C5.31558 15.844 5.13526 16.013 4.9151 16.1091H4.915ZM12 20.2C10.8701 20.1993 9.75256 19.9643 8.71809 19.5097C7.68363 19.0552 6.75469 18.391 5.99 17.5591C6.51727 17.2355 6.92425 16.7484 7.14889 16.172C7.37353 15.5956 7.40349 14.9615 7.23421 14.3665C7.06493 13.7715 6.7057 13.2481 6.21129 12.8763C5.71689 12.5044 5.11444 12.3045 4.4958 12.3069H4.4911C4.26447 12.3109 4.03919 12.3429 3.8204 12.4022C3.8138 12.268 3.8 12.1357 3.8 12C3.8006 10.8719 4.03479 9.75619 4.48785 8.72309C4.9409 7.68999 5.60299 6.76191 6.4324 5.9973C6.49032 6.17719 6.60357 6.33419 6.75599 6.4459C6.90841 6.55762 7.09223 6.61834 7.2812 6.6194L7.3132 6.6188H7.3337C7.51971 6.63287 7.69302 6.71846 7.81726 6.8576C7.9415 6.99673 8.007 7.1786 8 7.365V10.4214C8 10.816 8.07783 11.2067 8.22906 11.5712C8.38029 11.9357 8.60194 12.2667 8.8813 12.5454L10.5791 14.239L10.5484 18.8069H12.989C13.6047 18.8069 14.2054 18.6174 14.7097 18.2643C15.214 17.9112 15.5975 17.4114 15.808 16.8329L16.6605 14.4909C16.7705 14.1888 16.806 13.8646 16.764 13.5458C16.722 13.227 16.6038 12.9231 16.4194 12.6597C16.235 12.3964 15.9898 12.1813 15.7046 12.0329C15.4194 11.8844 15.1026 11.8069 14.7811 11.8069H11.6094C11.4768 11.8069 11.3496 11.7542 11.2559 11.6605C11.1621 11.5667 11.1094 11.4395 11.1094 11.3069C11.1094 11.1743 11.1621 11.0471 11.2559 10.9533C11.3496 10.8596 11.4768 10.8069 11.6094 10.8069H13.8713C14.0766 10.807 14.2769 10.7438 14.4451 10.6261C14.6132 10.5084 14.7411 10.3418 14.8113 10.1489L15.7787 7.4909C15.8887 7.18877 15.9242 6.86458 15.8822 6.54582C15.8402 6.22705 15.722 5.9231 15.5376 5.65973C15.3532 5.39636 15.108 5.18133 14.8228 5.03287C14.5376 4.88441 14.2208 4.8069 13.8993 4.8069H8.0693C9.58226 3.97664 11.3194 3.64716 13.0313 3.86578C14.7432 4.0844 16.3418 4.83986 17.5975 6.0237L16.7631 8.3159C16.6531 8.61798 16.6176 8.94212 16.6596 9.26084C16.7015 9.57957 16.8196 9.88349 17.004 10.1469C17.1883 10.4102 17.4334 10.6253 17.7185 10.7738C18.0036 10.9223 18.3203 10.9999 18.6418 11H20.1327C20.282 12.1534 20.1827 13.3254 19.8417 14.4373C19.5007 15.5492 18.9257 16.5753 18.1554 17.4467C17.3851 18.3181 16.4373 19.0146 15.3757 19.4895C14.314 19.9644 13.163 20.2066 12 20.2ZM9.6868 6.6069H13.899C13.9312 6.60691 13.9628 6.61466 13.9913 6.62951C14.0199 6.64436 14.0444 6.66586 14.0628 6.6922C14.0812 6.71854 14.0931 6.74893 14.0973 6.7808C14.1014 6.81267 14.0979 6.84509 14.0869 6.8753L13.3112 9.0069H11.6094C11.3068 9.00606 11.0071 9.06532 10.7277 9.18124C10.4482 9.29717 10.1945 9.46745 9.9814 9.6822C9.91701 9.74671 9.85644 9.81493 9.8 9.8865V7.365C9.80001 7.10809 9.76186 6.8526 9.6868 6.6069ZM12.3605 17.0069L12.3791 14.251L12.3834 13.6069H14.7811C14.8132 13.6069 14.8449 13.6146 14.8734 13.6295C14.902 13.6443 14.9265 13.6658 14.9449 13.6921C14.9634 13.7185 14.9752 13.7488 14.9794 13.7807C14.9836 13.8126 14.9801 13.845 14.9691 13.8752L14.1166 16.2173C14.032 16.4485 13.8785 16.6482 13.6769 16.7895C13.4753 16.9307 13.2352 17.0067 12.989 17.0073L12.3605 17.0069Z" fill="black"/>
</svg>
