<svg width="24" height="24" viewBox="0 0 24 24" fill="none" xmlns="http://www.w3.org/2000/svg">
<path d="M18.3333 3H6.33331C5.53793 3.00087 4.77538 3.31722 4.21296 3.87964C3.65054 4.44206 3.33419 5.20462 3.33331 6V18C3.33419 18.7954 3.65054 19.5579 4.21296 20.1204C4.77538 20.6828 5.53793 20.9991 6.33331 21H18.3333C19.1287 20.9991 19.8912 20.6828 20.4537 20.1204C21.0161 19.5579 21.3324 18.7954 21.3333 18V6C21.3324 5.20462 21.0161 4.44206 20.4537 3.87964C19.8912 3.31722 19.1287 3.00087 18.3333 3ZM8.33331 16.75C8.18498 16.75 8.03997 16.706 7.91664 16.6236C7.7933 16.5412 7.69717 16.4241 7.6404 16.287C7.58364 16.15 7.56879 15.9992 7.59772 15.8537C7.62666 15.7082 7.69809 15.5746 7.80298 15.4697C7.90787 15.3648 8.04151 15.2934 8.187 15.2644C8.33248 15.2355 8.48328 15.2503 8.62033 15.3071C8.75737 15.3639 8.8745 15.46 8.95692 15.5833C9.03933 15.7067 9.08331 15.8517 9.08331 16C9.08331 16.1989 9.0043 16.3897 8.86364 16.5303C8.72299 16.671 8.53222 16.75 8.33331 16.75ZM8.33331 8.75C8.18498 8.75 8.03997 8.70601 7.91664 8.6236C7.7933 8.54119 7.69717 8.42406 7.6404 8.28701C7.58364 8.14997 7.56879 7.99917 7.59772 7.85368C7.62666 7.7082 7.69809 7.57456 7.80298 7.46967C7.90787 7.36478 8.04151 7.29335 8.187 7.26441C8.33248 7.23547 8.48328 7.25032 8.62033 7.30709C8.75737 7.36386 8.8745 7.45999 8.95692 7.58332C9.03933 7.70666 9.08331 7.85166 9.08331 8C9.08331 8.19891 9.0043 8.38968 8.86364 8.53033C8.72299 8.67098 8.53222 8.75 8.33331 8.75ZM12.3333 12.75C12.185 12.75 12.04 12.706 11.9166 12.6236C11.7933 12.5412 11.6972 12.4241 11.6404 12.287C11.5836 12.15 11.5688 11.9992 11.5977 11.8537C11.6267 11.7082 11.6981 11.5746 11.803 11.4697C11.9079 11.3648 12.0415 11.2934 12.187 11.2644C12.3325 11.2355 12.4833 11.2503 12.6203 11.3071C12.7574 11.3639 12.8745 11.46 12.9569 11.5833C13.0393 11.7067 13.0833 11.8517 13.0833 12C13.0833 12.0985 13.0639 12.196 13.0262 12.287C12.9885 12.378 12.9333 12.4607 12.8636 12.5303C12.794 12.6 12.7113 12.6552 12.6203 12.6929C12.5293 12.7306 12.4318 12.75 12.3333 12.75ZM16.3333 16.75C16.185 16.75 16.04 16.706 15.9166 16.6236C15.7933 16.5412 15.6972 16.4241 15.6404 16.287C15.5836 16.15 15.5688 15.9992 15.5977 15.8537C15.6267 15.7082 15.6981 15.5746 15.803 15.4697C15.9079 15.3648 16.0415 15.2934 16.187 15.2644C16.3325 15.2355 16.4833 15.2503 16.6203 15.3071C16.7574 15.3639 16.8745 15.46 16.9569 15.5833C17.0393 15.7067 17.0833 15.8517 17.0833 16C17.0833 16.1989 17.0043 16.3897 16.8636 16.5303C16.723 16.671 16.5322 16.75 16.3333 16.75ZM16.3333 8.75C16.185 8.75 16.04 8.70601 15.9166 8.6236C15.7933 8.54119 15.6972 8.42406 15.6404 8.28701C15.5836 8.14997 15.5688 7.99917 15.5977 7.85368C15.6267 7.7082 15.6981 7.57456 15.803 7.46967C15.9079 7.36478 16.0415 7.29335 16.187 7.26441C16.3325 7.23547 16.4833 7.25032 16.6203 7.30709C16.7574 7.36386 16.8745 7.45999 16.9569 7.58332C17.0393 7.70666 17.0833 7.85166 17.0833 8C17.0833 8.19891 17.0043 8.38968 16.8636 8.53033C16.723 8.67098 16.5322 8.75 16.3333 8.75Z" fill="black"/>
</svg>
