<svg width="24" height="24" viewBox="0 0 24 24" fill="none" xmlns="http://www.w3.org/2000/svg">
<path d="M18.5 4H13V3C13 2.73478 12.8946 2.48043 12.7071 2.29289C12.5196 2.10536 12.2652 2 12 2C11.7348 2 11.4804 2.10536 11.2929 2.29289C11.1054 2.48043 11 2.73478 11 3V4H5.5L1 13.9941C1.31326 14.9364 1.91809 15.7546 2.72704 16.3304C3.53598 16.9062 4.50712 17.2098 5.5 17.1973C6.49288 17.2098 7.46402 16.9062 8.27296 16.3304C9.08191 15.7546 9.68674 14.9364 10 13.9941L6.4006 6H11V19.0125L7 19.8125V21H17V19.8125L13 19.0125V6H17.5994L14 13.9941C14.3242 14.9294 14.9317 15.7405 15.7382 16.3146C16.5447 16.8886 17.5101 17.1971 18.5 17.1971C19.4899 17.1971 20.4553 16.8886 21.2618 16.3146C22.0683 15.7405 22.6758 14.9294 23 13.9941L18.5 4ZM5.5 15.3973C4.99413 15.404 4.49525 15.2787 4.05264 15.0336C3.61003 14.7886 3.239 14.4323 2.9762 14H8.0239C7.76107 14.4323 7.39003 14.7886 6.9474 15.0336C6.50478 15.2787 6.00589 15.404 5.5 15.3973ZM3.7368 12.3L5.5 8.3842L7.2633 12.3H3.7368ZM20.2632 12.3H16.7367L18.5 8.3842L20.2632 12.3ZM18.5 15.3973C17.9941 15.404 17.4952 15.2787 17.0526 15.0336C16.61 14.7886 16.2389 14.4323 15.9761 14H21.0238C20.761 14.4323 20.39 14.7886 19.9474 15.0336C19.5047 15.2787 19.0059 15.404 18.5 15.3973Z" fill="black"/>
</svg>
