<svg width="24" height="24" viewBox="0 0 24 24" fill="none" xmlns="http://www.w3.org/2000/svg">
<path d="M16 6V4C16 3.46957 15.7893 2.96086 15.4142 2.58579C15.0391 2.21071 14.5304 2 14 2H10C9.46957 2 8.96086 2.21071 8.58579 2.58579C8.21071 2.96086 8 3.46957 8 4V6H2V21H22V6H16ZM9.5 4C9.50016 3.86744 9.55289 3.74036 9.64662 3.64662C9.74036 3.55289 9.86744 3.50016 10 3.5H14C14.1326 3.50016 14.2596 3.55289 14.3534 3.64662C14.4471 3.74036 14.4998 3.86744 14.5 4V6H9.5V4ZM3.5 7.5H20.5V10C20.4995 10.3977 20.3414 10.779 20.0602 11.0602C19.779 11.3414 19.3977 11.4995 19 11.5H5C4.60231 11.4995 4.22104 11.3414 3.93984 11.0602C3.65863 10.779 3.50045 10.3977 3.5 10V7.5ZM3.5 19.5V12.5839C3.9541 12.8535 4.47189 12.9972 5 13H11.25V15H12.75V13H19C19.5281 12.9972 20.0459 12.8535 20.5 12.5839V19.5H3.5Z" fill="black"/>
</svg>
