<svg width="24" height="24" viewBox="0 0 24 24" fill="none" xmlns="http://www.w3.org/2000/svg">
<path d="M23 11.75H19.9874C19.9244 9.71788 19.089 7.78624 17.6514 6.34863C16.2138 4.91102 14.2821 4.0756 12.25 4.0126V1H11.75V4.0126C9.71788 4.0756 7.78624 4.91102 6.34863 6.34863C4.91102 7.78624 4.0756 9.71788 4.0126 11.75H1V12.25H4.0126C4.0756 14.2821 4.91102 16.2138 6.34863 17.6514C7.78624 19.089 9.71788 19.9244 11.75 19.9874V23H12.25V19.9874C14.2821 19.9244 16.2138 19.089 17.6514 17.6514C19.089 16.2138 19.9244 14.2821 19.9874 12.25H23V11.75ZM12 19.5C10.5166 19.5 9.06659 19.0601 7.83322 18.236C6.59985 17.4119 5.63856 16.2406 5.0709 14.8701C4.50325 13.4997 4.35472 11.9917 4.64411 10.5368C4.9335 9.08196 5.64781 7.74559 6.6967 6.6967C7.74559 5.64781 9.08196 4.9335 10.5368 4.64411C11.9917 4.35472 13.4997 4.50325 14.8701 5.0709C16.2406 5.63856 17.4119 6.59985 18.236 7.83322C19.0601 9.06659 19.5 10.5166 19.5 12C19.4977 13.9884 18.7069 15.8948 17.3008 17.3008C15.8948 18.7069 13.9884 19.4977 12 19.5Z" fill="black"/>
</svg>
