<svg width="24" height="24" viewBox="0 0 24 24" fill="none" xmlns="http://www.w3.org/2000/svg">
<path d="M19.071 4.92889C17.6725 3.53036 15.8906 2.57795 13.9508 2.19209C12.011 1.80624 10.0003 2.00427 8.17309 2.76114C6.34582 3.51802 4.78403 4.79974 3.68522 6.44424C2.5864 8.08873 1.99991 10.0221 1.99991 11.9999C1.99991 13.9778 2.5864 15.9112 3.68522 17.5557C4.78403 19.2001 6.34582 20.4819 8.17309 21.2387C10.0003 21.9956 12.011 22.1936 13.9508 21.8078C15.8906 21.4219 17.6725 20.4695 19.071 19.071C20.0033 18.1445 20.7432 17.0428 21.2481 15.8293C21.7531 14.6157 22.013 13.3143 22.013 11.9999C22.013 10.6856 21.7531 9.38415 21.2481 8.17061C20.7432 6.95708 20.0033 5.85537 19.071 4.92889ZM18.7175 18.7175C17.836 19.6027 16.7886 20.3053 15.6352 20.7851C14.4818 21.265 13.2451 21.5126 11.9959 21.5139C10.7467 21.5152 9.5095 21.2701 8.35513 20.7927C7.20076 20.3152 6.15189 19.6148 5.26856 18.7314C4.38523 17.8481 3.68479 16.7992 3.20734 15.6449C2.72988 14.4905 2.48479 13.2533 2.48608 12.0041C2.48737 10.7549 2.73503 9.51816 3.21488 8.36478C3.69473 7.21141 4.39734 6.16399 5.28249 5.28249C6.16399 4.39734 7.21141 3.69473 8.36479 3.21488C9.51816 2.73503 10.7549 2.48737 12.0041 2.48608C13.2533 2.48478 14.4905 2.72988 15.6449 3.20734C16.7992 3.68479 17.8481 4.38523 18.7314 5.26856C19.6148 6.15189 20.3152 7.20076 20.7927 8.35513C21.2701 9.5095 21.5152 10.7467 21.5139 11.9959C21.5126 13.2451 21.265 14.4818 20.7851 15.6352C20.3053 16.7886 19.6027 17.836 18.7175 18.7175ZM10.8514 13.0327L12.1919 16.5039L15.4726 8.41139L7.37999 11.6921L10.8514 13.0327ZM12.2032 15.1452L11.3178 12.8525L11.2378 12.6461L11.0313 12.5661L8.73869 11.6806L14.565 9.31859L12.2032 15.1452Z" fill="black"/>
</svg>
