<svg width="24" height="24" viewBox="0 0 24 24" fill="none" xmlns="http://www.w3.org/2000/svg">
<path d="M20.5 3H15V3.5H20.5V5.625H15V6.125H20.5V8.25H15V8.75H20.5V10.875H15V11.375H20.5V13.5H15V14H20.5V21H21V3.5C21 3.36739 20.9473 3.24021 20.8536 3.14645C20.7598 3.05268 20.6326 3 20.5 3ZM12 15C11.5045 14.9999 11.0168 15.1228 10.5804 15.3576C10.1441 15.5924 9.77288 15.9318 9.5 16.3454V14L8.7 3H8.3L7.5 14V16.3454C7.10227 15.7462 6.50233 15.31 5.80968 15.1164C5.11703 14.9228 4.37786 14.9847 3.72707 15.2909C3.07629 15.597 2.5573 16.127 2.26482 16.784C1.97235 17.4411 1.92589 18.1814 2.13393 18.8698C2.34197 19.5583 2.79064 20.1489 3.39804 20.5341C4.00544 20.9192 4.73108 21.073 5.4425 20.9675C6.15392 20.862 6.80368 20.5042 7.2732 19.9595C7.74272 19.4147 8.00068 18.7192 8 18V14H9V18C9 18.5933 9.17595 19.1734 9.50559 19.6667C9.83523 20.1601 10.3038 20.5446 10.8519 20.7716C11.4001 20.9987 12.0033 21.0581 12.5853 20.9424C13.1672 20.8266 13.7018 20.5409 14.1213 20.1213C14.5409 19.7018 14.8266 19.1672 14.9424 18.5853C15.0581 18.0033 14.9987 17.4001 14.7716 16.852C14.5446 16.3038 14.1601 15.8352 13.6667 15.5056C13.1734 15.1759 12.5933 15 12 15ZM5 20.5C4.50555 20.5 4.0222 20.3534 3.61107 20.0787C3.19995 19.804 2.87952 19.4135 2.6903 18.9567C2.50108 18.4999 2.45157 17.9972 2.54804 17.5123C2.6445 17.0273 2.8826 16.5819 3.23223 16.2322C3.58186 15.8826 4.02732 15.6445 4.51227 15.548C4.99723 15.4516 5.49989 15.5011 5.95671 15.6903C6.41352 15.8795 6.80397 16.2 7.07867 16.6111C7.35338 17.0222 7.5 17.5055 7.5 18C7.49926 18.6628 7.23563 19.2983 6.76695 19.767C6.29827 20.2356 5.66281 20.4993 5 20.5ZM8.0377 13.5L8.5 5.1436L8.9623 13.5H8.0377ZM12 20.5C11.5055 20.5 11.0222 20.3534 10.6111 20.0787C10.1999 19.804 9.87952 19.4135 9.6903 18.9567C9.50108 18.4999 9.45157 17.9972 9.54804 17.5123C9.6445 17.0273 9.8826 16.5819 10.2322 16.2322C10.5819 15.8826 11.0273 15.6445 11.5123 15.548C11.9972 15.4516 12.4999 15.5011 12.9567 15.6903C13.4135 15.8795 13.804 16.2 14.0787 16.6111C14.3534 17.0222 14.5 17.5055 14.5 18C14.4993 18.6628 14.2356 19.2983 13.7669 19.767C13.2983 20.2356 12.6628 20.4993 12 20.5Z" fill="black"/>
</svg>
