<svg width="24" height="24" viewBox="0 0 24 24" fill="none" xmlns="http://www.w3.org/2000/svg">
<path d="M9.87059 3V7H8.47609V3H7.47609V7H6.13269V3H5.24319L4.85439 7.8849C4.82754 8.22243 4.90023 8.56043 5.06346 8.85708C5.22669 9.15374 5.4733 9.39603 5.77279 9.554L6.64179 10.0121L6.16919 19.0712C6.1562 19.3197 6.19393 19.5682 6.28007 19.8016C6.36621 20.035 6.49896 20.2485 6.67024 20.429C6.84153 20.6094 7.04775 20.7531 7.27636 20.8514C7.50497 20.9496 7.75118 21.0002 7.99999 21.0002C8.2488 21.0002 8.49501 20.9496 8.72362 20.8514C8.95223 20.7531 9.15846 20.6094 9.32974 20.429C9.50102 20.2485 9.63377 20.035 9.71992 19.8016C9.80606 19.5682 9.84378 19.3197 9.83079 19.0712L9.35819 10.0121L10.2272 9.554C10.5267 9.39603 10.7733 9.15374 10.9365 8.85708C11.0998 8.56043 11.1724 8.22243 11.1456 7.8849L10.7568 3H9.87059ZM9.76059 8.6694L8.89159 9.1276L8.32609 9.4258L8.35939 10.0643L8.83209 19.1232C8.8379 19.2361 8.82068 19.349 8.78148 19.455C8.74228 19.561 8.68191 19.6579 8.60407 19.7399C8.52622 19.8219 8.43251 19.8871 8.32865 19.9317C8.22478 19.9763 8.11293 19.9993 7.99989 19.9993C7.88686 19.9993 7.775 19.9763 7.67114 19.9317C7.56727 19.8871 7.47356 19.8219 7.39572 19.7399C7.31787 19.6579 7.25751 19.561 7.21831 19.455C7.17911 19.349 7.16189 19.2361 7.16769 19.1232L7.64039 10.0642L7.67369 9.4257L7.10819 9.1275L6.23919 8.6693C6.11803 8.60546 6.01723 8.50887 5.94828 8.39054C5.87933 8.27221 5.84499 8.13689 5.84919 8H10.1508C10.155 8.13692 10.1207 8.27227 10.0517 8.39062C9.98273 8.50898 9.8819 8.60557 9.76069 8.6694H9.76059ZM17.4865 3C17.1611 2.99986 16.8443 3.10462 16.5831 3.29873C16.3219 3.49284 16.1302 3.76597 16.0365 4.0776L13.9765 10.9244C13.8301 11.4108 13.8743 11.9347 14.1001 12.3897C14.3258 12.8447 14.7162 13.1967 15.1921 13.3744L16.3046 13.7899L15.7046 19.1642C15.6802 19.3873 15.7015 19.6131 15.7672 19.8277C15.8329 20.0423 15.9417 20.2413 16.0868 20.4125C16.2319 20.5837 16.4104 20.7236 16.6114 20.8235C16.8123 20.9235 17.0316 20.9815 17.2557 20.9939C17.4798 21.0064 17.7041 20.9731 17.9149 20.896C18.1257 20.8189 18.3186 20.6997 18.4818 20.5456C18.645 20.3916 18.7751 20.2059 18.8642 19.9999C18.9533 19.7938 18.9995 19.5718 19 19.3474V4.5136C19 4.11219 18.8405 3.72721 18.5567 3.44336C18.2729 3.15951 17.8879 3.00003 17.4865 3ZM18 19.3474C17.9998 19.5204 17.931 19.6863 17.8086 19.8087C17.6863 19.931 17.5204 19.9998 17.3474 20C17.2556 20 17.1648 19.9806 17.081 19.9431C16.9972 19.9056 16.9223 19.8509 16.8611 19.7825C16.7999 19.7141 16.7538 19.6335 16.7258 19.546C16.6979 19.4586 16.6887 19.3662 16.6989 19.275L17.2989 13.9007L17.3856 13.1257L16.655 12.8528L15.5424 12.4374C15.3048 12.3481 15.11 12.172 14.9972 11.9447C14.8844 11.7174 14.862 11.4557 14.9346 11.2125L16.9946 4.3656C17.0301 4.24758 17.1069 4.14628 17.2109 4.08017C17.3149 4.01407 17.4393 3.98757 17.5612 4.00552C17.6831 4.02347 17.7945 4.08467 17.8751 4.17794C17.9557 4.27122 18 4.39035 18 4.5136V19.3474Z" fill="black"/>
</svg>
