<svg width="24" height="24" viewBox="0 0 24 24" fill="none" xmlns="http://www.w3.org/2000/svg">
<path d="M19.4376 5H2V19H19.4376L23.4376 12L19.4376 5ZM18.5676 17.5H3.5V6.5H18.5672L21.71 12L18.5676 17.5ZM17 10.85C16.7726 10.85 16.5502 10.9174 16.3611 11.0438C16.172 11.1702 16.0246 11.3498 15.9375 11.5599C15.8505 11.77 15.8277 12.0013 15.8721 12.2244C15.9165 12.4474 16.026 12.6523 16.1868 12.8132C16.3477 12.974 16.5526 13.0835 16.7756 13.1279C16.9987 13.1723 17.23 13.1495 17.4401 13.0625C17.6502 12.9754 17.8298 12.828 17.9562 12.6389C18.0826 12.4498 18.15 12.2274 18.15 12C18.15 11.695 18.0288 11.4025 17.8132 11.1868C17.5975 10.9712 17.305 10.85 17 10.85Z" fill="black"/>
</svg>
