<svg width="24" height="24" viewBox="0 0 24 24" fill="none" xmlns="http://www.w3.org/2000/svg">
<path d="M17 7V6C17 4.67392 16.4732 3.40215 15.5355 2.46447C14.5979 1.52678 13.3261 1 12 1C10.6739 1 9.40215 1.52678 8.46447 2.46447C7.52678 3.40215 7 4.67392 7 6V7H3V22H21V7H17ZM7.5 6C7.5 4.80653 7.97411 3.66193 8.81802 2.81802C9.66193 1.97411 10.8065 1.5 12 1.5C13.1935 1.5 14.3381 1.97411 15.182 2.81802C16.0259 3.66193 16.5 4.80653 16.5 6V7H7.5V6ZM8 13.5C7.70333 13.5 7.41332 13.412 7.16664 13.2472C6.91997 13.0824 6.72771 12.8481 6.61418 12.574C6.50065 12.2999 6.47094 11.9983 6.52882 11.7074C6.5867 11.4164 6.72956 11.1491 6.93934 10.9393C7.14912 10.7296 7.41639 10.5867 7.70736 10.5288C7.99834 10.4709 8.29994 10.5006 8.57403 10.6142C8.84811 10.7277 9.08238 10.92 9.2472 11.1666C9.41203 11.4133 9.5 11.7033 9.5 12C9.5 12.3978 9.34196 12.7794 9.06066 13.0607C8.77936 13.342 8.39782 13.5 8 13.5ZM16 13.5C15.7033 13.5 15.4133 13.412 15.1666 13.2472C14.92 13.0824 14.7277 12.8481 14.6142 12.574C14.5006 12.2999 14.4709 11.9983 14.5288 11.7074C14.5867 11.4164 14.7296 11.1491 14.9393 10.9393C15.1491 10.7296 15.4164 10.5867 15.7074 10.5288C15.9983 10.4709 16.2999 10.5006 16.574 10.6142C16.8481 10.7277 17.0824 10.92 17.2472 11.1666C17.412 11.4133 17.5 11.7033 17.5 12C17.5 12.3978 17.342 12.7794 17.0607 13.0607C16.7794 13.342 16.3978 13.5 16 13.5Z" fill="black"/>
</svg>
