<svg width="24" height="24" viewBox="0 0 24 24" fill="none" xmlns="http://www.w3.org/2000/svg">
<path d="M18.3333 3H6.33331C5.53793 3.00087 4.77538 3.31722 4.21296 3.87964C3.65054 4.44206 3.33419 5.20462 3.33331 6V18C3.33419 18.7954 3.65054 19.5579 4.21296 20.1204C4.77538 20.6828 5.53793 20.9991 6.33331 21H18.3333C19.1287 20.9991 19.8912 20.6828 20.4537 20.1204C21.0161 19.5579 21.3324 18.7954 21.3333 18V6C21.3324 5.20462 21.0161 4.44206 20.4537 3.87964C19.8912 3.31722 19.1287 3.00087 18.3333 3ZM20.8333 18C20.8326 18.6628 20.5689 19.2983 20.1003 19.7669C19.6316 20.2356 18.9961 20.4993 18.3333 20.5H6.33331C5.67051 20.4992 5.03507 20.2356 4.56639 19.7669C4.09772 19.2982 3.83408 18.6628 3.83331 18V6C3.83408 5.33719 4.09772 4.70176 4.56639 4.23308C5.03507 3.76441 5.67051 3.50077 6.33331 3.5H18.3333C18.9961 3.50074 19.6316 3.76437 20.1003 4.23305C20.5689 4.70173 20.8326 5.33719 20.8333 6V18ZM16.3333 7.5C16.2344 7.5 16.1378 7.52932 16.0555 7.58427C15.9733 7.63921 15.9092 7.7173 15.8714 7.80866C15.8335 7.90002 15.8236 8.00056 15.8429 8.09755C15.8622 8.19454 15.9098 8.28363 15.9798 8.35355C16.0497 8.42348 16.1388 8.4711 16.2358 8.49039C16.3328 8.50969 16.4333 8.49978 16.5247 8.46194C16.616 8.4241 16.6941 8.36001 16.749 8.27779C16.804 8.19556 16.8333 8.09889 16.8333 8C16.8333 7.86739 16.7806 7.74021 16.6869 7.64645C16.5931 7.55268 16.4659 7.5 16.3333 7.5ZM12.3333 11.5C12.2344 11.5 12.1378 11.5293 12.0555 11.5843C11.9733 11.6392 11.9092 11.7173 11.8714 11.8087C11.8335 11.9 11.8236 12.0006 11.8429 12.0975C11.8622 12.1945 11.9098 12.2836 11.9798 12.3536C12.0497 12.4235 12.1388 12.4711 12.2358 12.4904C12.3328 12.5097 12.4333 12.4998 12.5247 12.4619C12.616 12.4241 12.6941 12.36 12.749 12.2778C12.804 12.1956 12.8333 12.0989 12.8333 12C12.8333 11.9343 12.8204 11.8693 12.7953 11.8087C12.7701 11.748 12.7333 11.6929 12.6869 11.6464C12.6404 11.6 12.5853 11.5632 12.5247 11.5381C12.464 11.5129 12.399 11.5 12.3333 11.5ZM8.33331 7.5C8.23442 7.5 8.13775 7.52932 8.05553 7.58427C7.9733 7.63921 7.90922 7.7173 7.87137 7.80866C7.83353 7.90002 7.82363 8.00056 7.84292 8.09755C7.86221 8.19454 7.90983 8.28363 7.97976 8.35355C8.04969 8.42348 8.13878 8.4711 8.23577 8.49039C8.33276 8.50969 8.43329 8.49978 8.52465 8.46194C8.61602 8.4241 8.69411 8.36001 8.74905 8.27779C8.80399 8.19556 8.83331 8.09889 8.83331 8C8.83331 7.93434 8.82038 7.86932 8.79525 7.80866C8.77012 7.748 8.7333 7.69288 8.68687 7.64645C8.64044 7.60002 8.58532 7.56319 8.52465 7.53806C8.46399 7.51293 8.39897 7.5 8.33331 7.5ZM16.3333 15.5C16.2344 15.5 16.1378 15.5293 16.0555 15.5843C15.9733 15.6392 15.9092 15.7173 15.8714 15.8087C15.8335 15.9 15.8236 16.0006 15.8429 16.0975C15.8622 16.1945 15.9098 16.2836 15.9798 16.3536C16.0497 16.4235 16.1388 16.4711 16.2358 16.4904C16.3328 16.5097 16.4333 16.4998 16.5247 16.4619C16.616 16.4241 16.6941 16.36 16.749 16.2778C16.804 16.1956 16.8333 16.0989 16.8333 16C16.8333 15.8674 16.7806 15.7402 16.6869 15.6464C16.5931 15.5527 16.4659 15.5 16.3333 15.5ZM8.33331 15.5C8.23442 15.5 8.13775 15.5293 8.05553 15.5843C7.9733 15.6392 7.90922 15.7173 7.87137 15.8087C7.83353 15.9 7.82363 16.0006 7.84292 16.0975C7.86221 16.1945 7.90983 16.2836 7.97976 16.3536C8.04969 16.4235 8.13878 16.4711 8.23577 16.4904C8.33276 16.5097 8.43329 16.4998 8.52465 16.4619C8.61602 16.4241 8.69411 16.36 8.74905 16.2778C8.80399 16.1956 8.83331 16.0989 8.83331 16C8.83331 15.9343 8.82038 15.8693 8.79525 15.8087C8.77012 15.748 8.7333 15.6929 8.68687 15.6464C8.64044 15.6 8.58532 15.5632 8.52465 15.5381C8.46399 15.5129 8.39897 15.5 8.33331 15.5Z" fill="black"/>
</svg>
