<svg width="24" height="24" viewBox="0 0 24 24" fill="none" xmlns="http://www.w3.org/2000/svg">
<path d="M22.95 10.0026C20.0416 10.0153 17.2567 11.1796 15.2045 13.2406C13.1524 15.3016 12.0002 18.0915 12 21C11.9998 18.0915 10.8476 15.3016 8.79545 13.2406C6.74333 11.1796 3.9584 10.0153 1.05 10.0026C1.02 10.3316 1 10.6633 1 11C1 13.9174 2.15893 16.7152 4.22183 18.7781C6.28473 20.841 9.08262 22 12 22C14.9174 22 17.7153 20.841 19.7782 18.7781C21.8411 16.7152 23 13.9174 23 11C23 10.6633 22.9792 10.3316 22.95 10.0026ZM12 14.0873C13.0919 12.3699 14.5684 10.9301 16.3127 9.88177C15.8394 6.80768 14.3153 3.99263 12 1.91577C9.68468 3.99263 8.16064 6.80768 7.6873 9.88177C9.43165 10.9301 10.9081 12.3699 12 14.0873Z" fill="black"/>
</svg>
