<svg width="24" height="24" viewBox="0 0 24 24" fill="none" xmlns="http://www.w3.org/2000/svg">
<path d="M10.3 3V8H8.75001V3H7.25001V8H5.70001V3H4.50001L4.12081 7.7628C4.09081 8.13966 4.16823 8.51731 4.3441 8.85197C4.51998 9.18662 4.78711 9.46457 5.11451 9.6536L7.32231 10.9282L6.82091 19.752C6.8118 19.9125 6.83554 20.0731 6.89067 20.2241C6.94581 20.3751 7.03119 20.5132 7.14157 20.63C7.25196 20.7469 7.38503 20.8399 7.53263 20.9035C7.68024 20.9672 7.83928 21 8.00001 21C8.16074 21 8.31978 20.9672 8.46739 20.9035C8.615 20.8399 8.74807 20.7469 8.85846 20.63C8.96884 20.5132 9.05421 20.3751 9.10935 20.2241C9.16449 20.0731 9.18823 19.9125 9.17911 19.752L8.67771 10.9282L10.8855 9.6536C11.2129 9.46457 11.48 9.18662 11.6559 8.85197C11.8318 8.51731 11.9092 8.13966 11.8792 7.7628L11.5 3H10.3ZM17.4865 3C17.1611 2.99986 16.8443 3.10462 16.5831 3.29873C16.3219 3.49284 16.1302 3.76597 16.0365 4.0776L13.9765 10.9244C13.8301 11.4108 13.8743 11.9347 14.1001 12.3897C14.3258 12.8447 14.7163 13.1967 15.1921 13.3744L17.6075 14.2763L16.9957 19.8863C16.9821 20.0215 16.996 20.158 17.0366 20.2876C17.0773 20.4172 17.1438 20.5373 17.2321 20.6405C17.3205 20.7437 17.4288 20.8279 17.5506 20.888C17.6725 20.9481 17.8052 20.9829 17.9408 20.9903C18.0765 20.9977 18.2122 20.9775 18.3398 20.9309C18.4674 20.8843 18.5843 20.8123 18.6833 20.7193C18.7823 20.6263 18.8614 20.5142 18.9158 20.3897C18.9703 20.2653 18.9989 20.131 19 19.9952V4.5136C19 4.11219 18.8406 3.72721 18.5567 3.44336C18.2729 3.15951 17.8879 3.00003 17.4865 3ZM17.5 12.6345L15.7177 11.969C15.5989 11.9244 15.5015 11.8363 15.445 11.7226C15.3886 11.609 15.3774 11.4781 15.4137 11.3565L17.4737 4.5096C17.4745 4.50671 17.4762 4.50416 17.4785 4.50235C17.4809 4.50054 17.4838 4.49957 17.4868 4.4996L17.5003 4.5132L17.5 12.6345Z" fill="black"/>
</svg>
