<svg width="24" height="24" viewBox="0 0 24 24" fill="none" xmlns="http://www.w3.org/2000/svg">
<path d="M17 10.5C16.7033 10.5 16.4133 10.588 16.1666 10.7528C15.92 10.9176 15.7277 11.1519 15.6142 11.426C15.5006 11.7001 15.4709 12.0017 15.5288 12.2926C15.5867 12.5836 15.7296 12.8509 15.9393 13.0607C16.1491 13.2704 16.4164 13.4133 16.7074 13.4712C16.9983 13.5291 17.2999 13.4994 17.574 13.3858C17.8481 13.2723 18.0824 13.08 18.2472 12.8334C18.412 12.5867 18.5 12.2967 18.5 12C18.5 11.6022 18.342 11.2206 18.0607 10.9393C17.7794 10.658 17.3978 10.5 17 10.5ZM17 13C16.8022 13 16.6089 12.9414 16.4444 12.8315C16.28 12.7216 16.1518 12.5654 16.0761 12.3827C16.0004 12.2 15.9806 11.9989 16.0192 11.8049C16.0578 11.6109 16.153 11.4327 16.2929 11.2929C16.4327 11.153 16.6109 11.0578 16.8049 11.0192C16.9989 10.9806 17.2 11.0004 17.3827 11.0761C17.5654 11.1518 17.7216 11.28 17.8315 11.4444C17.9414 11.6089 18 11.8022 18 12C17.9997 12.2651 17.8943 12.5193 17.7068 12.7068C17.5193 12.8943 17.2651 12.9997 17 13ZM19.4375 5H2V19H19.4376L23.4376 12L19.4375 5ZM19.1475 18.5H2.5V5.5H19.1475L22.8617 12L19.1475 18.5Z" fill="black"/>
</svg>
