<svg width="24" height="24" viewBox="0 0 24 24" fill="none" xmlns="http://www.w3.org/2000/svg">
<path d="M12 2C10.0222 2 8.08879 2.58649 6.4443 3.6853C4.79981 4.78412 3.51809 6.3459 2.76121 8.17317C2.00433 10.0004 1.8063 12.0111 2.19215 13.9509C2.578 15.8907 3.53041 17.6725 4.92894 19.0711C6.32746 20.4696 8.10929 21.422 10.0491 21.8079C11.9889 22.1937 13.9996 21.9957 15.8268 21.2388C17.6541 20.4819 19.2159 19.2002 20.3147 17.5557C21.4135 15.9112 22 13.9778 22 12C22 10.6868 21.7413 9.38642 21.2388 8.17317C20.7363 6.95991 19.9997 5.85752 19.0711 4.92893C18.1425 4.00035 17.0401 3.26375 15.8268 2.7612C14.6136 2.25866 13.3132 2 12 2ZM7.899 6.3069C7.9794 6.30688 8.05861 6.32624 8.12993 6.36334C8.20124 6.40045 8.26256 6.4542 8.30868 6.52005C8.35481 6.58589 8.38437 6.66189 8.39487 6.74159C8.40537 6.8213 8.3965 6.90236 8.369 6.9779L7.5214 9.3069H5.6614C5.24655 9.3072 4.84203 9.43627 4.50366 9.67629C4.1653 9.91632 3.90979 10.2555 3.7724 10.6469L3.6386 10.5133C3.91826 8.94448 4.63504 7.48646 5.7065 6.3069H7.899ZM3.5264 12.5212L5.2458 14.239L5.2239 17.11C4.21745 15.7815 3.6268 14.1848 3.5264 12.5212ZM9.1454 13.3069C9.2258 13.3069 9.30501 13.3262 9.37633 13.3633C9.44764 13.4004 9.50896 13.4542 9.55508 13.52C9.60121 13.5859 9.63077 13.6619 9.64127 13.7416C9.65177 13.8213 9.6429 13.9024 9.6154 13.9779L8.6417 16.6533C8.5358 16.9422 8.34385 17.1918 8.09173 17.3682C7.83961 17.5447 7.53945 17.6396 7.2317 17.6402H6.72L6.746 14.2502L6.7507 13.3067L9.1454 13.3069ZM7.3854 19.1282C7.97334 19.0994 8.53975 18.8979 9.01382 18.549C9.48788 18.2001 9.84858 17.7191 10.0508 17.1663L11.0246 14.4909C11.1346 14.1888 11.1701 13.8646 11.1281 13.5458C11.0861 13.227 10.9679 12.9231 10.7835 12.6597C10.5991 12.3964 10.3539 12.1813 10.0687 12.0329C9.7835 11.8844 9.46672 11.8069 9.1452 11.8069H5.6615C5.5289 11.8069 5.40172 11.7542 5.30795 11.6605C5.21418 11.5667 5.1615 11.4395 5.1615 11.3069C5.1615 11.1743 5.21418 11.0471 5.30795 10.9533C5.40172 10.8596 5.5289 10.8069 5.6615 10.8069H7.8715C8.07678 10.807 8.2771 10.7438 8.44527 10.6261C8.61343 10.5084 8.7413 10.3418 8.8115 10.1489L9.7789 7.4909C9.88888 7.18873 9.92437 6.8645 9.88237 6.54569C9.84038 6.22689 9.72213 5.92291 9.53765 5.65952C9.35318 5.39614 9.10791 5.18113 8.82266 5.0327C8.5374 4.88427 8.22056 4.80682 7.899 4.8069H7.4921C8.80188 3.97769 10.315 3.52588 11.865 3.50118C13.415 3.47648 14.9418 3.87985 16.2773 4.6669H15.8873C15.4769 4.66689 15.0764 4.79316 14.7402 5.02857C14.4039 5.26397 14.1483 5.59712 14.0079 5.9828L13.1574 8.32C13.0749 8.54663 13.0483 8.78981 13.0798 9.02892C13.1113 9.26804 13.2 9.49602 13.3384 9.69356C13.4767 9.8911 13.6607 10.0524 13.8746 10.1637C14.0886 10.275 14.3262 10.3331 14.5674 10.333H17.5339C17.6665 10.333 17.7937 10.3857 17.8875 10.4794C17.9812 10.5732 18.0339 10.7004 18.0339 10.833C18.0339 10.9656 17.9812 11.0928 17.8875 11.1866C17.7937 11.2803 17.6665 11.333 17.5339 11.333H15.9247C15.2617 11.333 14.6258 11.5964 14.1569 12.0652C13.6881 12.5341 13.4247 13.17 13.4247 13.833V14.433C13.4247 14.9369 13.6249 15.4202 13.9812 15.7765C14.3375 16.1328 14.8208 16.333 15.3247 16.333H16.1909C16.2528 16.333 16.3122 16.3576 16.3559 16.4014C16.3997 16.4451 16.4243 16.5045 16.4243 16.5664V17.9542C16.4275 18.3399 16.5468 18.7157 16.7666 19.0327C15.3866 19.9721 13.7596 20.4823 12.0903 20.4993C10.421 20.5162 8.78399 20.0391 7.3852 19.1279L7.3854 19.1282ZM17.9467 18.063C17.9349 18.0279 17.9275 17.9914 17.9247 17.9545V16.5667C17.9242 16.1071 17.7414 15.6665 17.4164 15.3416C17.0915 15.0166 16.6509 14.8338 16.1913 14.8333H15.3251C15.2191 14.8331 15.1175 14.7909 15.0425 14.7159C14.9675 14.6409 14.9253 14.5393 14.9251 14.4333V13.8333C14.9254 13.5682 15.0308 13.314 15.2183 13.1265C15.4058 12.939 15.66 12.8336 15.9251 12.8333H17.5339C18.0643 12.8333 18.573 12.6226 18.9481 12.2475C19.3232 11.8724 19.5339 11.3637 19.5339 10.8333C19.5339 10.3029 19.3232 9.79416 18.9481 9.41909C18.573 9.04401 18.0643 8.8333 17.5339 8.8333H14.567L15.4178 6.4957C15.4531 6.39937 15.5171 6.31618 15.6011 6.25735C15.6852 6.19852 15.7852 6.16688 15.8878 6.1667H18.1663C19.7018 7.77987 20.5398 9.93313 20.4988 12.1599C20.4577 14.3866 19.5409 16.5075 17.9469 18.063H17.9467Z" fill="black"/>
</svg>
