<svg width="24" height="24" viewBox="0 0 24 24" fill="none" xmlns="http://www.w3.org/2000/svg">
<path d="M6.4937 9C6.88926 9 7.27594 8.8827 7.60484 8.66294C7.93374 8.44318 8.19008 8.13082 8.34146 7.76537C8.49283 7.39991 8.53244 6.99778 8.45527 6.60982C8.3781 6.22186 8.18762 5.86549 7.90791 5.58579C7.62821 5.30608 7.27184 5.1156 6.88388 5.03843C6.49592 4.96126 6.09379 5.00087 5.72833 5.15224C5.36288 5.30362 5.05052 5.55996 4.83076 5.88886C4.611 6.21776 4.4937 6.60444 4.4937 7C4.4937 7.53043 4.70441 8.03914 5.07949 8.41421C5.45456 8.78929 5.96327 9 6.4937 9ZM6.4937 5.5C6.79037 5.5 7.08038 5.58797 7.32706 5.7528C7.57373 5.91762 7.76599 6.15189 7.87952 6.42597C7.99305 6.70006 8.02276 7.00166 7.96488 7.29264C7.907 7.58361 7.76414 7.85088 7.55436 8.06066C7.34458 8.27044 7.07731 8.4133 6.78634 8.47118C6.49536 8.52906 6.19376 8.49935 5.91967 8.38582C5.64559 8.27229 5.41132 8.08003 5.2465 7.83336C5.08167 7.58668 4.9937 7.29667 4.9937 7C4.99415 6.60231 5.15233 6.22104 5.43354 5.93984C5.71474 5.65863 6.09601 5.50045 6.4937 5.5ZM6.4937 17C6.88926 17 7.27594 16.8827 7.60484 16.6629C7.93374 16.4432 8.19008 16.1308 8.34146 15.7654C8.49283 15.3999 8.53244 14.9978 8.45527 14.6098C8.3781 14.2219 8.18762 13.8655 7.90791 13.5858C7.62821 13.3061 7.27184 13.1156 6.88388 13.0384C6.49592 12.9613 6.09379 13.0009 5.72833 13.1522C5.36288 13.3036 5.05052 13.56 4.83076 13.8889C4.611 14.2178 4.4937 14.6044 4.4937 15C4.4937 15.5304 4.70441 16.0391 5.07949 16.4142C5.45456 16.7893 5.96327 17 6.4937 17ZM6.4937 13.5C6.79037 13.5 7.08038 13.588 7.32706 13.7528C7.57373 13.9176 7.76599 14.1519 7.87952 14.426C7.99305 14.7001 8.02276 15.0017 7.96488 15.2926C7.907 15.5836 7.76414 15.8509 7.55436 16.0607C7.34458 16.2704 7.07731 16.4133 6.78634 16.4712C6.49536 16.5291 6.19376 16.4993 5.91967 16.3858C5.64559 16.2723 5.41132 16.08 5.2465 15.8334C5.08167 15.5867 4.9937 15.2967 4.9937 15C4.99415 14.6023 5.15233 14.221 5.43354 13.9398C5.71474 13.6586 6.09601 13.5005 6.4937 13.5ZM21.5 3V10.5H19V8C19 7.20435 18.6839 6.44129 18.1213 5.87868C17.5587 5.31607 16.7956 5 16 5H10V10.5H2.5V3H2V21H2.5V19H21.5V21H22V3H21.5ZM10.5 5.5H16C16.6628 5.50074 17.2983 5.76437 17.7669 6.23305C18.2356 6.70173 18.4993 7.33719 18.5 8V10.5H10.5V5.5ZM18.5 18.5H10.5V13.5H16C16.6628 13.5007 17.2983 13.7644 17.7669 14.2331C18.2356 14.7017 18.4993 15.3372 18.5 16V18.5ZM21.5 18.5H19V16C19 15.2044 18.6839 14.4413 18.1213 13.8787C17.5587 13.3161 16.7956 13 16 13H10V18.5H2.5V11H21.5V18.5Z" fill="black"/>
</svg>
