<svg width="24" height="24" viewBox="0 0 24 24" fill="none" xmlns="http://www.w3.org/2000/svg">
<path d="M15.1328 19.2256C14.2782 18.4408 13.1602 18.0053 12 18.0053C10.8398 18.0053 9.72176 18.4408 8.8672 19.2256C8.35561 19.6959 7.69425 19.9702 7 20C6.30575 19.9702 5.64439 19.6959 5.1328 19.2256C4.26511 18.4614 3.15588 18.0275 2 18V20C2.69425 20.0298 3.35561 20.3041 3.8672 20.7744C4.73489 21.5386 5.84412 21.9725 7 22C8.15588 21.9725 9.26511 21.5386 10.1328 20.7744C10.3767 20.5269 10.6674 20.3303 10.9879 20.1962C11.3085 20.062 11.6525 19.9929 12 19.9929C12.3475 19.9929 12.6915 20.062 13.0121 20.1962C13.3326 20.3303 13.6233 20.5269 13.8672 20.7744C14.7349 21.5386 15.8441 21.9725 17 22C18.1559 21.9725 19.2651 21.5386 20.1328 20.7744C20.6444 20.3041 21.3057 20.0298 22 20V18C20.8441 18.0275 19.7349 18.4614 18.8672 19.2256C18.6233 19.4731 18.3326 19.6697 18.0121 19.8038C17.6915 19.938 17.3475 20.0071 17 20.0071C16.6525 20.0071 16.3085 19.938 15.9879 19.8038C15.6674 19.6697 15.3767 19.4731 15.1328 19.2256ZM18.8672 15.2256C18.5014 15.5972 18.0311 15.8485 17.5189 15.9462C17.0067 16.044 16.4769 15.9834 16 15.7726V5C16 4.20435 15.6839 3.44129 15.1213 2.87868C14.5587 2.31607 13.7956 2 13 2H12V4H13C13.2651 4.00029 13.5193 4.10574 13.7068 4.29321C13.8943 4.48069 13.9997 4.73487 14 5V6H10V5C10 4.20435 9.68393 3.44129 9.12132 2.87868C8.55871 2.31607 7.79565 2 7 2H6V4H7C7.26513 4.00029 7.51931 4.10574 7.70679 4.29321C7.89426 4.48069 7.99971 4.73487 8 5V15.77C7.68678 15.9168 7.34588 15.9952 7 16C6.30575 15.9702 5.64439 15.6959 5.1328 15.2256C4.26511 14.4614 3.15588 14.0275 2 14V16C2.69425 16.0298 3.35561 16.3041 3.8672 16.7744C4.73489 17.5386 5.84412 17.9725 7 18C8.15588 17.9725 9.26511 17.5386 10.1328 16.7744C10.6293 16.3221 11.2631 16.0495 11.9328 16H12.0666C12.7363 16.0495 13.3701 16.3221 13.8666 16.7744C14.7345 17.5387 15.8439 17.9726 17 18C18.1559 17.9725 19.2651 17.5386 20.1328 16.7744C20.6444 16.3041 21.3057 16.0298 22 16V14C20.8441 14.0275 19.7349 14.4614 18.8672 15.2256ZM14 14H10V12H14V14ZM14 10H10V8H14V10Z" fill="black"/>
</svg>
