<svg width="24" height="24" viewBox="0 0 24 24" fill="none" xmlns="http://www.w3.org/2000/svg">
<path d="M4.6343 15.9155L7.9111 19.1923L16.1167 11.9523L11.8745 7.70998L4.6343 15.9155ZM2.5967 18.2248L5.6018 21.23L7.5444 19.5158L4.3108 16.2821L2.5967 18.2248ZM19.6936 4.13298C19.268 3.70733 18.7626 3.36969 18.2065 3.13933C17.6504 2.90897 17.0543 2.79041 16.4524 2.79041C15.8504 2.79041 15.2543 2.90897 14.6982 3.13933C14.1421 3.36969 13.6367 3.70733 13.2111 4.13298C12.4348 4.918 11.9748 5.96138 11.9188 7.06398L16.7627 11.9078C17.8653 11.8517 18.9086 11.3917 19.6936 10.6155C20.5532 9.75583 21.0361 8.58992 21.0361 7.37423C21.0361 6.15854 20.5532 4.99264 19.6936 4.13298Z" fill="black"/>
</svg>
