<svg width="24" height="24" viewBox="0 0 24 24" fill="none" xmlns="http://www.w3.org/2000/svg">
<g clip-path="url(#clip0)">
<path d="M12 0C9.61557 0.0027525 7.32959 0.951184 5.64354 2.63723C3.95749 4.32328 3.00905 6.60927 3.0063 8.9937C3.0063 15.7563 10.9912 23.021 11.3311 23.3267L12 23.9287L12.6689 23.3267C13.0089 23.021 20.9941 15.7567 20.9941 8.9937C20.9913 6.60922 20.0428 4.32322 18.3566 2.63718C16.6705 0.951136 14.3845 0.00272589 12 0V0ZM12 5.0077C12.2959 5.0077 12.5852 5.09545 12.8313 5.25986C13.0773 5.42427 13.2691 5.65795 13.3823 5.93135C13.4956 6.20475 13.5252 6.50559 13.4674 6.79583C13.4097 7.08607 13.2672 7.35267 13.0579 7.56191C12.8487 7.77115 12.5821 7.91364 12.2918 7.97136C12.0016 8.02908 11.7008 7.99944 11.4274 7.88618C11.154 7.77292 10.9203 7.58113 10.7559 7.33507C10.5915 7.08901 10.5038 6.79972 10.5038 6.5038C10.5038 6.107 10.6615 5.72646 10.9421 5.44589C11.2227 5.16532 11.6032 5.0077 12 5.0077ZM15 10.5939V12H9V10.5939C9.79566 9.79826 10.8748 9.35128 12 9.35128C13.1252 9.35128 14.2043 9.79826 15 10.5939Z" fill="black"/>
</g>
<defs>
<clipPath id="clip0">
<rect width="24" height="24" fill="white"/>
</clipPath>
</defs>
</svg>
