<svg width="24" height="24" viewBox="0 0 24 24" fill="none" xmlns="http://www.w3.org/2000/svg">
<path d="M22 3V6.0991C21.6892 6.2533 21.347 6.33354 21 6.33354C20.653 6.33354 20.3108 6.2533 20 6.0991V3H19V6.6516C19.4396 6.98522 19.9549 7.20475 20.5 7.2906V18.9434C20.497 19.288 20.358 19.6174 20.1133 19.86C19.8686 20.1026 19.5379 20.2387 19.1933 20.2387C18.8488 20.2387 18.5181 20.1026 18.2734 19.86C18.0287 19.6174 17.8897 19.288 17.8867 18.9434V15.8066C17.8861 15.1952 17.643 14.609 17.2108 14.1766C16.7785 13.7442 16.1925 13.5009 15.5811 13.5H14V6C14 5.20435 13.6839 4.44129 13.1213 3.87868C12.5587 3.31607 11.7956 3 11 3H5C4.20435 3 3.44129 3.31607 2.87868 3.87868C2.31607 4.44129 2 5.20435 2 6V21H14V14.5H15.5811C15.9274 14.5005 16.2593 14.6384 16.5041 14.8833C16.7488 15.1283 16.8864 15.4603 16.8867 15.8066V18.9434C16.8907 19.5525 17.1355 20.1353 17.5676 20.5647C17.9998 20.994 18.5842 21.2349 19.1933 21.2349C19.8025 21.2349 20.3869 20.994 20.8191 20.5647C21.2512 20.1353 21.496 19.5525 21.5 18.9434V7.2906C22.0451 7.20475 22.5604 6.98522 23 6.6516V3H22ZM8 14.6616V11H5L8 5.3384V9H11L8 14.6616Z" fill="black"/>
</svg>
