<svg width="24" height="24" viewBox="0 0 24 24" fill="none" xmlns="http://www.w3.org/2000/svg">
<path d="M4.55127 7.3162C4.61764 7.51532 4.74498 7.68851 4.91525 7.81124C5.08552 7.93396 5.29009 8 5.49997 8H5.99997V5H3.77917L4.55127 7.3162ZM19.4487 7.3162L20.2208 5H18V8H18.5C18.7099 8 18.9144 7.93396 19.0847 7.81124C19.255 7.68851 19.3823 7.51532 19.4487 7.3162ZM4.55127 12.3162C4.61764 12.5153 4.74498 12.6885 4.91525 12.8112C5.08552 12.934 5.29009 13 5.49997 13H5.99997V10H3.77917L4.55127 12.3162ZM15 2H8.99997C8.46954 2 7.96083 2.21071 7.58576 2.58579C7.21069 2.96086 6.99997 3.46957 6.99997 4V20C6.99997 20.5304 7.21069 21.0391 7.58576 21.4142C7.96083 21.7893 8.46954 22 8.99997 22H15C15.5304 22 16.0391 21.7893 16.4142 21.4142C16.7893 21.0391 17 20.5304 17 20V4C17 3.46957 16.7893 2.96086 16.4142 2.58579C16.0391 2.21071 15.5304 2 15 2ZM12 18.6C11.6835 18.6 11.3742 18.5062 11.1111 18.3304C10.8479 18.1545 10.6429 17.9047 10.5218 17.6123C10.4007 17.3199 10.369 16.9982 10.4307 16.6879C10.4925 16.3775 10.6448 16.0924 10.8686 15.8686C11.0924 15.6449 11.3775 15.4925 11.6878 15.4307C11.9982 15.369 12.3199 15.4007 12.6123 15.5218C12.9046 15.6429 13.1545 15.848 13.3303 16.1111C13.5061 16.3742 13.6 16.6835 13.6 17C13.6 17.4243 13.4314 17.8313 13.1313 18.1314C12.8313 18.4314 12.4243 18.6 12 18.6ZM12 13.6C11.6835 13.6 11.3742 13.5062 11.1111 13.3304C10.8479 13.1545 10.6429 12.9047 10.5218 12.6123C10.4007 12.3199 10.369 11.9982 10.4307 11.6879C10.4925 11.3775 10.6448 11.0924 10.8686 10.8686C11.0924 10.6449 11.3775 10.4925 11.6878 10.4307C11.9982 10.369 12.3199 10.4007 12.6123 10.5218C12.9046 10.6429 13.1545 10.848 13.3303 11.1111C13.5061 11.3742 13.6 11.6835 13.6 12C13.6 12.4243 13.4314 12.8313 13.1313 13.1314C12.8313 13.4314 12.4243 13.6 12 13.6ZM12 8.6C11.6835 8.6 11.3742 8.50616 11.1111 8.33035C10.8479 8.15454 10.6429 7.90466 10.5218 7.61229C10.4007 7.31993 10.369 6.99823 10.4307 6.68786C10.4925 6.37749 10.6448 6.09239 10.8686 5.86863C11.0924 5.64487 11.3775 5.49248 11.6878 5.43074C11.9982 5.36901 12.3199 5.40069 12.6123 5.52179C12.9046 5.64289 13.1545 5.84797 13.3303 6.11109C13.5061 6.37421 13.6 6.68355 13.6 7C13.6 7.42435 13.4314 7.83131 13.1313 8.13137C12.8313 8.43143 12.4243 8.6 12 8.6ZM4.55127 17.3162C4.61764 17.5153 4.74498 17.6885 4.91525 17.8112C5.08552 17.934 5.29009 18 5.49997 18H5.99997V15H3.77917L4.55127 17.3162ZM18 13H18.5C18.7099 13 18.9144 12.934 19.0847 12.8112C19.255 12.6885 19.3823 12.5153 19.4487 12.3162L20.2208 10H18V13ZM18 18H18.5C18.7099 18 18.9144 17.934 19.0847 17.8112C19.255 17.6885 19.3823 17.5153 19.4487 17.3162L20.2208 15H18V18Z" fill="black"/>
</svg>
