<svg width="24" height="24" viewBox="0 0 24 24" fill="none" xmlns="http://www.w3.org/2000/svg">
<path d="M21.5 4.5V9.5H21C20.337 9.5 19.7011 9.76339 19.2322 10.2322C18.7634 10.7011 18.5 11.337 18.5 12C18.5 12.663 18.7634 13.2989 19.2322 13.7678C19.7011 14.2366 20.337 14.5 21 14.5H21.5V19.5H2.5V14.5H3C3.66304 14.5 4.29893 14.2366 4.76777 13.7678C5.23661 13.2989 5.5 12.663 5.5 12C5.5 11.337 5.23661 10.7011 4.76777 10.2322C4.29893 9.76339 3.66304 9.5 3 9.5H2.5V4.5H21.5ZM22 4H2V10H3C3.53043 10 4.03914 10.2107 4.41421 10.5858C4.78929 10.9609 5 11.4696 5 12C5 12.5304 4.78929 13.0391 4.41421 13.4142C4.03914 13.7893 3.53043 14 3 14H2V20H22V14H21C20.4696 14 19.9609 13.7893 19.5858 13.4142C19.2107 13.0391 19 12.5304 19 12C19 11.4696 19.2107 10.9609 19.5858 10.5858C19.9609 10.2107 20.4696 10 21 10H22V4Z" fill="black"/>
<path d="M21.5 4.5V9.5H21C20.337 9.5 19.7011 9.76339 19.2322 10.2322C18.7634 10.7011 18.5 11.337 18.5 12C18.5 12.663 18.7634 13.2989 19.2322 13.7678C19.7011 14.2366 20.337 14.5 21 14.5H21.5V19.5H2.5V14.5H3C3.66304 14.5 4.29893 14.2366 4.76777 13.7678C5.23661 13.2989 5.5 12.663 5.5 12C5.5 11.337 5.23661 10.7011 4.76777 10.2322C4.29893 9.76339 3.66304 9.5 3 9.5H2.5V4.5H21.5ZM22 4H2V10H3C3.53043 10 4.03914 10.2107 4.41421 10.5858C4.78929 10.9609 5 11.4696 5 12C5 12.5304 4.78929 13.0391 4.41421 13.4142C4.03914 13.7893 3.53043 14 3 14H2V20H22V14H21C20.4696 14 19.9609 13.7893 19.5858 13.4142C19.2107 13.0391 19 12.5304 19 12C19 11.4696 19.2107 10.9609 19.5858 10.5858C19.9609 10.2107 20.4696 10 21 10H22V4Z" fill="black"/>
</svg>
