<svg width="24" height="24" viewBox="0 0 24 24" fill="none" xmlns="http://www.w3.org/2000/svg">
<path d="M6.5 2C5.30653 2 4.16193 2.47411 3.31802 3.31802C2.47411 4.16193 2 5.30653 2 6.5V15.5C2 16.6935 2.47411 17.8381 3.31802 18.682C4.16193 19.5259 5.30653 20 6.5 20C7.69347 20 8.83807 19.5259 9.68198 18.682C10.5259 17.8381 11 16.6935 11 15.5V6.5C11 5.30653 10.5259 4.16193 9.68198 3.31802C8.83807 2.47411 7.69347 2 6.5 2ZM9 15.5C9 16.163 8.73661 16.7989 8.26777 17.2678C7.79893 17.7366 7.16304 18 6.5 18C5.83696 18 5.20107 17.7366 4.73223 17.2678C4.26339 16.7989 4 16.163 4 15.5V12H9V15.5ZM9 10H4V6.5C4 5.83696 4.26339 5.20107 4.73223 4.73223C5.20107 4.26339 5.83696 4 6.5 4C7.16304 4 7.79893 4.26339 8.26777 4.73223C8.73661 5.20107 9 5.83696 9 6.5V10ZM20.682 12.318C20.0527 11.6887 19.2508 11.2601 18.3779 11.0864C17.505 10.9128 16.6002 11.0019 15.7779 11.3425C14.9557 11.6831 14.2529 12.2599 13.7584 12.9999C13.2639 13.7399 13 14.6099 13 15.5C13 16.39 13.2639 17.26 13.7584 18C14.2529 18.74 14.9557 19.3168 15.7779 19.6574C16.6002 19.998 17.505 20.0871 18.3779 19.9135C19.2508 19.7398 20.0527 19.3112 20.682 18.6819C21.1015 18.265 21.4345 17.7692 21.6617 17.2231C21.8889 16.677 22.0058 16.0914 22.0058 15.5C22.0058 14.9085 21.8889 14.3229 21.6617 13.7768C21.4345 13.2307 21.1015 12.7349 20.682 12.318ZM15.6261 13.6262C16.0153 13.2328 16.5193 12.9729 17.0656 12.884C17.6118 12.7951 18.1722 12.8818 18.6661 13.1315L15.1328 16.665C14.8877 16.1703 14.8034 15.6114 14.8919 15.0665C14.9803 14.5215 15.2371 14.0179 15.6261 13.6262ZM19.3739 17.3738C18.9847 17.7673 18.4807 18.0271 17.9344 18.116C17.3882 18.2049 16.8278 18.1182 16.3339 17.8684L19.8674 14.335C20.1125 14.8297 20.1967 15.3886 20.1082 15.9336C20.0197 16.4785 19.763 16.9821 19.3739 17.3738Z" fill="black"/>
</svg>
