<svg width="24" height="24" viewBox="0 0 24 24" fill="none" xmlns="http://www.w3.org/2000/svg">
<path d="M20.4854 3.51462C18.252 1.28122 14.9072 0.994623 13.0254 2.87462C10.7454 5.15462 11.2793 10.3756 11.4103 11.4096C10.2461 11.2584 5.1503 10.7496 2.875 13.0255C2.41173 13.5029 2.06154 14.0782 1.85027 14.709C1.639 15.3398 1.57203 16.0099 1.6543 16.67C1.81365 18.1188 2.47109 19.4672 3.5143 20.485C4.64919 21.6558 6.19982 22.3321 7.83 22.3672C8.41031 22.3789 8.98715 22.2751 9.52698 22.0619C10.0668 21.8486 10.5589 21.5302 10.9745 21.125C13.2545 18.845 12.7206 13.6232 12.5895 12.5897C13.4121 12.6935 14.2404 12.7456 15.0695 12.7456C17.0656 12.7456 19.6711 12.4287 21.1252 10.9741C21.5884 10.4968 21.9385 9.92152 22.1497 9.29082C22.361 8.66013 22.4279 7.99005 22.3457 7.33002C22.1864 5.88111 21.5288 4.53249 20.4854 3.51462ZM10.2676 20.418C8.7776 21.908 6.0654 21.6211 4.2217 19.778C3.34283 18.9248 2.78715 17.7931 2.6494 16.5759C2.58261 16.0624 2.63171 15.5405 2.79309 15.0485C2.95448 14.5564 3.22405 14.1068 3.582 13.7326C4.732 12.5826 7.0264 12.257 9.002 12.257C9.82029 12.2556 10.6377 12.3114 11.4482 12.424L11.5596 12.4406L11.5762 12.5524C11.584 12.61 12.3975 18.2876 10.2676 20.418ZM20.4176 10.2671C18.7193 11.9644 14.5328 11.8647 12.5514 11.5757L12.44 11.5591L12.4234 11.4473C12.4156 11.3901 11.6021 5.71242 13.732 3.58202C15.2232 2.09282 17.9361 2.37892 19.7779 4.22202C20.6568 5.07528 21.2124 6.20697 21.3502 7.42412C21.417 7.93754 21.3679 8.4594 21.2066 8.95138C21.0453 9.44335 20.7758 9.89294 20.418 10.2671H20.4176Z" fill="black"/>
</svg>
