<svg width="24" height="24" viewBox="0 0 24 24" fill="none" xmlns="http://www.w3.org/2000/svg">
<path d="M12 10.75C11.7527 10.75 11.5111 10.8233 11.3055 10.9607C11.1 11.098 10.9397 11.2932 10.8451 11.5216C10.7505 11.7501 10.7258 12.0014 10.774 12.2439C10.8222 12.4863 10.9413 12.7091 11.1161 12.8839C11.2909 13.0587 11.5136 13.1778 11.7561 13.226C11.9986 13.2742 12.2499 13.2495 12.4783 13.1548C12.7067 13.0602 12.902 12.9 13.0393 12.6945C13.1767 12.4889 13.25 12.2472 13.25 12C13.25 11.6685 13.1183 11.3505 12.8839 11.1161C12.6494 10.8817 12.3315 10.75 12 10.75ZM12 15.75C11.7527 15.75 11.5111 15.8233 11.3055 15.9607C11.1 16.098 10.9397 16.2932 10.8451 16.5216C10.7505 16.7501 10.7258 17.0014 10.774 17.2439C10.8222 17.4863 10.9413 17.7091 11.1161 17.8839C11.2909 18.0587 11.5136 18.1777 11.7561 18.226C11.9986 18.2742 12.2499 18.2495 12.4783 18.1549C12.7067 18.0602 12.902 17.9 13.0393 17.6945C13.1767 17.4889 13.25 17.2472 13.25 17C13.25 16.6685 13.1183 16.3505 12.8839 16.1161C12.6494 15.8817 12.3315 15.75 12 15.75ZM12 5.75C11.7527 5.75 11.5111 5.82331 11.3055 5.96066C11.1 6.09801 10.9397 6.29324 10.8451 6.52165C10.7505 6.75005 10.7258 7.00139 10.774 7.24386C10.8222 7.48634 10.9413 7.70907 11.1161 7.88388C11.2909 8.0587 11.5136 8.17775 11.7561 8.22598C11.9986 8.27421 12.2499 8.24946 12.4783 8.15485C12.7067 8.06024 12.902 7.90002 13.0393 7.69446C13.1767 7.4889 13.25 7.24723 13.25 7C13.25 6.66848 13.1183 6.35054 12.8839 6.11612C12.6494 5.8817 12.3315 5.75 12 5.75ZM18.8448 12.39L19.6417 10H18V8C18.187 7.99979 18.3692 7.94077 18.5208 7.83129C18.6724 7.72182 18.7857 7.56744 18.8448 7.39L19.6417 5H18C18 4.20435 17.6839 3.44129 17.1213 2.87868C16.5587 2.31607 15.7956 2 15 2H8.99998C8.20433 2 7.44127 2.31607 6.87866 2.87868C6.31605 3.44129 5.99998 4.20435 5.99998 5H4.35828L5.15518 7.39C5.21421 7.56744 5.32755 7.72182 5.47916 7.83129C5.63077 7.94077 5.81297 7.99979 5.99998 8V10H4.35828L5.15518 12.39C5.21421 12.5674 5.32755 12.7218 5.47916 12.8313C5.63077 12.9408 5.81297 12.9998 5.99998 13V15H4.35828L5.15518 17.39C5.21421 17.5674 5.32755 17.7218 5.47916 17.8313C5.63077 17.9408 5.81297 17.9998 5.99998 18V19C5.99998 19.7956 6.31605 20.5587 6.87866 21.1213C7.44127 21.6839 8.20433 22 8.99998 22H15C15.7956 22 16.5587 21.6839 17.1213 21.1213C17.6839 20.5587 18 19.7956 18 19V18C18.187 17.9998 18.3692 17.9408 18.5208 17.8313C18.6724 17.7218 18.7857 17.5674 18.8448 17.39L19.6417 15H18V13C18.187 12.9998 18.3692 12.9408 18.5208 12.8313C18.6724 12.7218 18.7857 12.5674 18.8448 12.39ZM16.5 19C16.4995 19.3977 16.3413 19.779 16.0601 20.0602C15.7789 20.3414 15.3977 20.4995 15 20.5H8.99998C8.60229 20.4995 8.22102 20.3414 7.93981 20.0602C7.65861 19.779 7.50043 19.3977 7.49998 19V5C7.50043 4.60231 7.65861 4.22104 7.93981 3.93984C8.22102 3.65863 8.60229 3.50045 8.99998 3.5H15C15.3977 3.50045 15.7789 3.65863 16.0601 3.93984C16.3413 4.22104 16.4995 4.60231 16.5 5V19Z" fill="black"/>
</svg>
