<svg width="24" height="24" viewBox="0 0 24 24" fill="none" xmlns="http://www.w3.org/2000/svg">
<path d="M6.5 2C5.30653 2 4.16193 2.47411 3.31802 3.31802C2.47411 4.16193 2 5.30653 2 6.5V15.5C2 16.6935 2.47411 17.8381 3.31802 18.682C4.16193 19.5259 5.30653 20 6.5 20C7.69347 20 8.83807 19.5259 9.68198 18.682C10.5259 17.8381 11 16.6935 11 15.5V6.5C11 5.30653 10.5259 4.16193 9.68198 3.31802C8.83807 2.47411 7.69347 2 6.5 2ZM10.5 15.5C10.5 16.5609 10.0786 17.5783 9.32843 18.3284C8.57828 19.0786 7.56087 19.5 6.5 19.5C5.43913 19.5 4.42172 19.0786 3.67157 18.3284C2.92143 17.5783 2.5 16.5609 2.5 15.5V11.25H10.5V15.5ZM10.5 10.75H2.5V6.5C2.5 5.43913 2.92143 4.42172 3.67157 3.67157C4.42172 2.92143 5.43913 2.5 6.5 2.5C7.56087 2.5 8.57828 2.92143 9.32843 3.67157C10.0786 4.42172 10.5 5.43913 10.5 6.5V10.75ZM20.682 12.318C20.0527 11.6887 19.2508 11.2601 18.3779 11.0864C17.505 10.9128 16.6002 11.0019 15.7779 11.3425C14.9557 11.6831 14.2529 12.2599 13.7584 12.9999C13.2639 13.7399 13 14.6099 13 15.5C13 16.39 13.2639 17.26 13.7584 18C14.2529 18.74 14.9557 19.3168 15.7779 19.6574C16.6002 19.998 17.505 20.0871 18.3779 19.9135C19.2508 19.7398 20.0527 19.3112 20.682 18.6819C21.1015 18.265 21.4345 17.7692 21.6617 17.2231C21.8889 16.677 22.0058 16.0914 22.0058 15.5C22.0058 14.9085 21.8889 14.3229 21.6617 13.7768C21.4345 13.2307 21.1015 12.7349 20.682 12.318ZM14.6715 12.6716C15.3882 11.9501 16.3545 11.5312 17.371 11.5015C18.3875 11.4717 19.3767 11.8333 20.1344 12.5116L14.5127 18.1334C13.8402 17.3733 13.4823 16.3856 13.5118 15.3711C13.5413 14.3566 13.9559 13.3914 14.6715 12.6716ZM14.6715 18.3284L14.6724 18.3294L14.6715 18.3284ZM20.3285 18.3284C19.6118 19.0499 18.6455 19.4688 17.629 19.4986C16.6124 19.5284 15.6233 19.1668 14.8656 18.4884L20.4873 12.8666C21.1598 13.6267 21.5177 14.6144 21.4882 15.6289C21.4587 16.6434 21.044 17.6086 20.3285 18.3284Z" fill="black"/>
</svg>
