<svg width="24" height="24" viewBox="0 0 24 24" fill="none" xmlns="http://www.w3.org/2000/svg">
<path d="M7.3 17.8C7.59667 17.8 7.88668 17.712 8.13336 17.5472C8.38003 17.3824 8.57229 17.1481 8.68582 16.874C8.79935 16.5999 8.82906 16.2983 8.77118 16.0074C8.7133 15.7164 8.57044 15.4491 8.36066 15.2393C8.15088 15.0296 7.88361 14.8867 7.59264 14.8288C7.30166 14.7709 7.00006 14.8006 6.72598 14.9142C6.45189 15.0277 6.21762 15.22 6.0528 15.4666C5.88797 15.7133 5.8 16.0033 5.8 16.3C5.8 16.6978 5.95804 17.0794 6.23934 17.3607C6.52064 17.642 6.90218 17.8 7.3 17.8ZM7.3 9.8C7.59667 9.8 7.88668 9.71203 8.13336 9.5472C8.38003 9.38238 8.57229 9.14811 8.68582 8.87403C8.79935 8.59994 8.82906 8.29834 8.77118 8.00736C8.7133 7.71639 8.57044 7.44912 8.36066 7.23934C8.15088 7.02956 7.88361 6.8867 7.59264 6.82882C7.30166 6.77094 7.00006 6.80065 6.72598 6.91418C6.45189 7.02771 6.21762 7.21997 6.0528 7.46664C5.88797 7.71332 5.8 8.00333 5.8 8.3C5.8 8.69782 5.95804 9.07936 6.23934 9.36066C6.52064 9.64196 6.90218 9.8 7.3 9.8ZM2 3V21H22V3H2ZM20 19H19V18C19 17.2044 18.6839 16.4413 18.1213 15.8787C17.5587 15.3161 16.7956 15 16 15H10V19H4V13H20V19ZM20 11H19V10C19 9.20435 18.6839 8.44129 18.1213 7.87868C17.5587 7.31607 16.7956 7 16 7H10V11H4V5H20V11Z" fill="black"/>
</svg>
