<svg width="24" height="24" viewBox="0 0 24 24" fill="none" xmlns="http://www.w3.org/2000/svg">
<path d="M16 7V6C16 4.93913 15.5786 3.92172 14.8284 3.17157C14.0783 2.42143 13.0609 2 12 2C10.9391 2 9.92172 2.42143 9.17157 3.17157C8.42143 3.92172 8 4.93913 8 6V7H3V22H21V7H16ZM9 6C9 5.20435 9.31607 4.44129 9.87868 3.87868C10.4413 3.31607 11.2044 3 12 3C12.7956 3 13.5587 3.31607 14.1213 3.87868C14.6839 4.44129 15 5.20435 15 6V7H9V6ZM20 21H4V8H20V21ZM15 13.5C15.2967 13.5 15.5867 13.412 15.8334 13.2472C16.08 13.0824 16.2723 12.8481 16.3858 12.574C16.4993 12.2999 16.5291 11.9983 16.4712 11.7074C16.4133 11.4164 16.2704 11.1491 16.0607 10.9393C15.8509 10.7296 15.5836 10.5867 15.2926 10.5288C15.0017 10.4709 14.7001 10.5006 14.426 10.6142C14.1519 10.7277 13.9176 10.92 13.7528 11.1666C13.588 11.4133 13.5 11.7033 13.5 12C13.5 12.3978 13.658 12.7794 13.9393 13.0607C14.2206 13.342 14.6022 13.5 15 13.5ZM15 11.4C15.1187 11.4 15.2347 11.4352 15.3333 11.5011C15.432 11.567 15.5089 11.6608 15.5543 11.7704C15.5997 11.88 15.6116 12.0007 15.5885 12.1171C15.5653 12.2334 15.5082 12.3404 15.4243 12.4243C15.3404 12.5082 15.2334 12.5653 15.1171 12.5885C15.0007 12.6116 14.88 12.5997 14.7704 12.5543C14.6608 12.5089 14.567 12.432 14.5011 12.3333C14.4352 12.2347 14.4 12.1187 14.4 12C14.4002 11.8409 14.4635 11.6884 14.5759 11.5759C14.6884 11.4635 14.8409 11.4002 15 11.4ZM9 13.5C9.29667 13.5 9.58668 13.412 9.83335 13.2472C10.08 13.0824 10.2723 12.8481 10.3858 12.574C10.4994 12.2999 10.5291 11.9983 10.4712 11.7074C10.4133 11.4164 10.2704 11.1491 10.0607 10.9393C9.85088 10.7296 9.58361 10.5867 9.29264 10.5288C9.00166 10.4709 8.70006 10.5006 8.42597 10.6142C8.15189 10.7277 7.91762 10.92 7.7528 11.1666C7.58797 11.4133 7.5 11.7033 7.5 12C7.5 12.3978 7.65804 12.7794 7.93934 13.0607C8.22064 13.342 8.60218 13.5 9 13.5ZM9 11.4C9.11867 11.4 9.23467 11.4352 9.33334 11.5011C9.43201 11.567 9.50892 11.6608 9.55433 11.7704C9.59974 11.88 9.61162 12.0007 9.58847 12.1171C9.56532 12.2334 9.50818 12.3404 9.42426 12.4243C9.34035 12.5082 9.23344 12.5653 9.11705 12.5885C9.00067 12.6116 8.88003 12.5997 8.77039 12.5543C8.66075 12.5089 8.56705 12.432 8.50112 12.3333C8.43519 12.2347 8.4 12.1187 8.4 12C8.40019 11.8409 8.46346 11.6884 8.57594 11.5759C8.68842 11.4635 8.84093 11.4002 9 11.4Z" fill="#231F20"/>
</svg>
