<svg width="24" height="24" viewBox="0 0 24 24" fill="none" xmlns="http://www.w3.org/2000/svg">
<path d="M18.3428 3.0322L17.2822 4.0928L20.3613 7.1719H19.5C18.837 7.1719 18.2011 7.43529 17.7322 7.90413C17.2634 8.37297 17 9.00886 17 9.6719C17 10.3349 17.2634 10.9708 17.7322 11.4397C18.2011 11.9085 18.837 12.1719 19.5 12.1719H20.5V18.25C20.5 18.5815 20.3683 18.8995 20.1339 19.1339C19.8995 19.3683 19.5815 19.5 19.25 19.5C18.9185 19.5 18.6005 19.3683 18.3661 19.1339C18.1317 18.8995 18 18.5815 18 18.25V16C17.9993 15.2709 17.7093 14.5718 17.1937 14.0563C16.6782 13.5407 15.9791 13.2507 15.25 13.25H14V6C14 5.20435 13.6839 4.44129 13.1213 3.87868C12.5587 3.31607 11.7956 3 11 3H5C4.20435 3 3.44129 3.31607 2.87868 3.87868C2.31607 4.44129 2 5.20435 2 6V21H14V14.75H15.25C15.5814 14.7503 15.8992 14.8821 16.1336 15.1164C16.3679 15.3508 16.4997 15.6686 16.5 16V18.25C16.5 18.9793 16.7897 19.6788 17.3055 20.1945C17.8212 20.7103 18.5207 21 19.25 21C19.9793 21 20.6788 20.7103 21.1945 20.1945C21.7103 19.6788 22 18.9793 22 18.25V6.69L18.3428 3.0322ZM5 4.5H11C11.3977 4.50045 11.779 4.65863 12.0602 4.93984C12.3414 5.22104 12.4995 5.60231 12.5 6V10H3.5V6C3.50045 5.60231 3.65863 5.22104 3.93984 4.93984C4.22104 4.65863 4.60231 4.50045 5 4.5ZM19.5 10.6719C19.2348 10.6719 18.9804 10.5665 18.7929 10.379C18.6054 10.1915 18.5 9.93712 18.5 9.6719C18.5 9.40668 18.6054 9.15233 18.7929 8.96479C18.9804 8.77726 19.2348 8.6719 19.5 8.6719H20.5V10.6719H19.5Z" fill="black"/>
</svg>
