<svg width="24" height="24" viewBox="0 0 24 24" fill="none" xmlns="http://www.w3.org/2000/svg">
<path d="M7.55 12.1C7.95545 12.1 8.3518 11.9798 8.68892 11.7545C9.02604 11.5293 9.28879 11.2091 9.44395 10.8345C9.59911 10.4599 9.63971 10.0477 9.56061 9.65006C9.48151 9.2524 9.28627 8.88713 8.99957 8.60043C8.71287 8.31373 8.3476 8.11849 7.94993 8.03939C7.55227 7.96029 7.14009 8.00089 6.7655 8.15605C6.39091 8.31121 6.07074 8.57396 5.84549 8.91108C5.62023 9.2482 5.5 9.64455 5.5 10.05C5.5 10.5937 5.71598 11.1151 6.10043 11.4996C6.48488 11.884 7.00631 12.1 7.55 12.1ZM7.55 9.2C7.71811 9.2 7.88245 9.24985 8.02223 9.34325C8.16202 9.43665 8.27096 9.5694 8.3353 9.72472C8.39963 9.88004 8.41647 10.0509 8.38367 10.2158C8.35087 10.3807 8.26992 10.5322 8.15104 10.651C8.03217 10.7699 7.88071 10.8509 7.71583 10.8837C7.55094 10.9165 7.38004 10.8996 7.22472 10.8353C7.0694 10.771 6.93665 10.662 6.84325 10.5222C6.74985 10.3825 6.7 10.2181 6.7 10.05C6.70026 9.82465 6.7899 9.6086 6.94925 9.44925C7.1086 9.2899 7.32465 9.20026 7.55 9.2ZM18 8H11V13.5H3.5V5H2V18H3.5V15H20.5V18H22V12C22 10.9391 21.5786 9.92172 20.8284 9.17157C20.0783 8.42143 19.0609 8 18 8ZM20.5 13.5H12.5V9.5H18C18.6628 9.50074 19.2983 9.76437 19.7669 10.2331C20.2356 10.7017 20.4993 11.3372 20.5 12V13.5Z" fill="black"/>
</svg>
