<svg width="24" height="24" viewBox="0 0 24 24" fill="none" xmlns="http://www.w3.org/2000/svg">
<g clip-path="url(#clip0)">
<path d="M12 0C9.61557 0.0027525 7.32959 0.951184 5.64354 2.63723C3.95749 4.32328 3.00905 6.60927 3.0063 8.9937C3.0063 15.7563 10.9912 23.021 11.3311 23.3267L12 23.9287L12.6689 23.3267C13.0089 23.021 20.9941 15.7567 20.9941 8.9937C20.9913 6.60922 20.0428 4.32322 18.3566 2.63718C16.6705 0.951136 14.3845 0.00272589 12 0V0ZM12 22.5833C11.92 22.5114 4.0065 15.3207 4.0065 8.9939C4.0065 6.87379 4.84871 4.84051 6.34786 3.34136C7.84701 1.84221 9.88029 1 12.0004 1C14.1205 1 16.1538 1.84221 17.6529 3.34136C19.1521 4.84051 19.9943 6.87379 19.9943 8.9939C19.9941 15.3193 12.0821 22.51 12 22.5833ZM14.084 6.209L12 8.293L9.916 6.209L9.209 6.916L11.293 9L9.209 11.084L9.916 11.791L12 9.707L14.084 11.791L14.791 11.084L12.707 9L14.791 6.916L14.084 6.209Z" fill="black"/>
</g>
<defs>
<clipPath id="clip0">
<rect width="24" height="24" fill="white"/>
</clipPath>
</defs>
</svg>
