<svg width="24" height="24" viewBox="0 0 24 24" fill="none" xmlns="http://www.w3.org/2000/svg">
<path d="M20.4854 3.51462C19.4262 2.43069 18.0233 1.74846 16.5166 1.58462C15.8086 1.49749 15.0901 1.57074 14.4142 1.79894C13.7384 2.02714 13.1226 2.40445 12.6123 2.90292C10.5781 4.93722 10.6846 9.03482 10.8471 10.8471C9.03459 10.6841 4.93709 10.5766 2.90229 12.6124C0.900393 14.6144 1.17579 18.1466 3.51459 20.4855C4.57381 21.5695 5.97674 22.2517 7.48339 22.4155C7.66499 22.4326 7.84403 22.4411 8.02049 22.4409C8.64293 22.4523 9.26138 22.3393 9.83959 22.1086C10.4178 21.8779 10.9441 21.534 11.3877 21.0972C13.422 19.0629 13.3154 14.965 13.1528 13.1528C13.6136 13.1944 14.2187 13.2328 14.9043 13.2328C16.9131 13.2328 19.5791 12.9066 21.0977 11.3881C23.1 9.38572 22.8242 5.85352 20.4854 3.51462ZM9.97359 19.6831C9.66931 19.9702 9.30476 20.1857 8.90655 20.314C8.50834 20.4422 8.08653 20.4799 7.67189 20.4243C6.62836 20.3048 5.65873 19.8265 4.92869 19.0713C3.36869 17.5113 3.09469 15.2485 4.31639 14.0264C5.31249 13.03 7.38999 12.772 9.11999 12.772C9.78664 12.7714 10.4528 12.8091 11.1151 12.8848C11.31 14.5239 11.417 18.24 9.97359 19.6831ZM19.6836 9.97362C18.2402 11.4189 14.5254 11.311 12.8848 11.1152C12.69 9.47612 12.583 5.76002 14.0264 4.31692C14.3306 4.02972 14.6951 3.81412 15.0934 3.68588C15.4916 3.55764 15.9135 3.52 16.3281 3.57572C17.3716 3.69529 18.3413 4.17353 19.0713 4.92872C20.6309 6.48832 20.9053 8.75152 19.6836 9.97362Z" fill="black"/>
</svg>
