<svg width="24" height="24" viewBox="0 0 24 24" fill="none" xmlns="http://www.w3.org/2000/svg">
<path d="M10.3 3.00001V8.00001H8.74999V3.00001H7.24999V8.00001H5.69999V3.00001H4.49999L4.09999 8.02201C4.07001 8.3989 4.14748 8.77657 4.32341 9.11123C4.49934 9.44588 4.76652 9.72382 5.09399 9.91281L7.17399 11.1138L6.60199 19.5038C6.58902 19.6953 6.61555 19.8875 6.67993 20.0683C6.74431 20.2492 6.84517 20.4149 6.97625 20.5551C7.10732 20.6954 7.26582 20.8072 7.44191 20.8836C7.618 20.9601 7.80792 20.9995 7.99989 20.9995C8.19185 20.9995 8.38177 20.9601 8.55786 20.8836C8.73395 20.8072 8.89245 20.6954 9.02353 20.5551C9.1546 20.4149 9.25546 20.2492 9.31984 20.0683C9.38422 19.8875 9.41075 19.6953 9.39779 19.5038L8.82579 11.1138L10.9058 9.91281C11.2333 9.72385 11.5005 9.44592 11.6765 9.11126C11.8524 8.7766 11.9299 8.39892 11.9 8.02201L11.5 3.00001H10.3ZM17.3025 3.00001C16.9101 2.999 16.5296 3.1341 16.2256 3.38228C15.9217 3.63046 15.7133 3.97635 15.6359 4.36101C15.2472 5.83741 14.3373 9.29331 13.7837 11.3963C13.6588 11.8718 13.7141 12.3767 13.939 12.8138C14.1639 13.251 14.5426 13.5895 15.0021 13.7643L17.2562 14.6311L16.7949 19.797C16.7817 19.9456 16.7988 20.0952 16.8451 20.237C16.8913 20.3788 16.9658 20.5097 17.064 20.622C17.1623 20.7342 17.2822 20.8254 17.4166 20.89C17.551 20.9546 17.6971 20.9913 17.8461 20.998C17.9951 21.0046 18.1439 20.981 18.2835 20.9286C18.4231 20.8762 18.5507 20.7961 18.6585 20.693C18.7663 20.59 18.8522 20.4662 18.9109 20.3291C18.9695 20.192 18.9999 20.0444 19 19.8953V4.69741C19 4.24722 18.8211 3.81548 18.5028 3.49716C18.1844 3.17884 17.7527 3.00001 17.3025 3.00001ZM17.2 12.681L15.6481 12.0842C15.6024 12.0684 15.5643 12.036 15.5413 11.9934C15.5184 11.9507 15.5124 11.9011 15.5244 11.8542L16.6802 7.46421L17.2 5.49001V12.681Z" fill="black"/>
</svg>
