<svg width="24" height="24" viewBox="0 0 24 24" fill="none" xmlns="http://www.w3.org/2000/svg">
<path d="M7.1 17.8C7.33734 17.8 7.56934 17.7296 7.76668 17.5978C7.96402 17.4659 8.11783 17.2785 8.20866 17.0592C8.29948 16.8399 8.32324 16.5987 8.27694 16.3659C8.23064 16.1331 8.11635 15.9193 7.94853 15.7515C7.78071 15.5836 7.56689 15.4694 7.33411 15.4231C7.10133 15.3768 6.86005 15.4005 6.64078 15.4913C6.42151 15.5822 6.23409 15.736 6.10224 15.9333C5.97038 16.1307 5.9 16.3627 5.9 16.6C5.9 16.7576 5.93104 16.9136 5.99134 17.0592C6.05165 17.2048 6.14004 17.3371 6.25147 17.4485C6.3629 17.56 6.49519 17.6484 6.64078 17.7087C6.78637 17.769 6.94241 17.8 7.1 17.8ZM7.1 9.55C7.33734 9.55 7.56934 9.47962 7.76668 9.34776C7.96402 9.21591 8.11783 9.02849 8.20866 8.80922C8.29948 8.58995 8.32324 8.34867 8.27694 8.11589C8.23064 7.88311 8.11635 7.66929 7.94853 7.50147C7.78071 7.33365 7.56689 7.21936 7.33411 7.17306C7.10133 7.12676 6.86005 7.15052 6.64078 7.24134C6.42151 7.33217 6.23409 7.48598 6.10224 7.68332C5.97038 7.88065 5.9 8.11266 5.9 8.35C5.9 8.66826 6.02643 8.97348 6.25147 9.19853C6.47652 9.42357 6.78174 9.55 7.1 9.55ZM2 3V21H22V3H2ZM17.5 19.5H11.5V16.5H16C16.3977 16.5005 16.779 16.6586 17.0602 16.9398C17.3414 17.221 17.4995 17.6023 17.5 18V19.5ZM20.5 19.5H19V18C19 17.2044 18.6839 16.4413 18.1213 15.8787C17.5587 15.3161 16.7956 15 16 15H10V19.5H3.5V12.75H20.5V19.5ZM11.5 11.25V8.25H16C16.3977 8.25045 16.779 8.40863 17.0602 8.68984C17.3414 8.97104 17.4995 9.35231 17.5 9.75V11.25H11.5ZM20.5 11.25H19V9.75C19 8.95435 18.6839 8.19129 18.1213 7.62868C17.5587 7.06607 16.7956 6.75 16 6.75H10V11.25H3.5V4.5H20.5V11.25Z" fill="black"/>
</svg>
