<svg width="24" height="24" viewBox="0 0 24 24" fill="none" xmlns="http://www.w3.org/2000/svg">
<path d="M21.8662 16.4585C21.4902 16.7695 21.0889 17.0698 20.6719 17.3516C20.3251 17.5862 19.9581 17.8016 19.5884 18.0099L18.5079 15.5538C18.173 14.7924 18 13.9696 18 13.1378V10.625H18.4443C19.2358 10.6249 19.9967 10.3186 20.5674 9.77007C21.1381 9.22158 21.4744 8.47352 21.5059 7.6826C21.5143 6.93123 21.2553 6.20134 20.7752 5.62328C20.2952 5.04521 19.6252 4.65662 18.8851 4.5269L18 4.3542V2H16.01C15.1745 2 14.367 2.30136 13.7358 2.84877C13.1046 3.39618 12.692 4.15289 12.5738 4.98L12 9H6.8643C6.08802 9.00002 5.32852 9.22593 4.67842 9.65017C4.02832 10.0744 3.51571 10.6786 3.2031 11.3892L2.3408 13.3492L4.1708 14.1549L5.0331 12.1939C5.22879 11.7639 5.57172 11.4181 6 11.2187V13.1378C5.99998 13.9696 5.82702 14.7924 5.4921 15.5538L4.4116 18.01C4.0416 17.8022 3.6748 17.5866 3.3271 17.3515C2.9111 17.0702 2.5098 16.7699 2.1338 16.4589L0.858398 18C1.2842 18.3521 1.7384 18.6919 2.207 19.0083C2.6699 19.3218 3.1562 19.6172 3.6514 19.8858C4.1466 20.1544 4.6614 20.4028 5.1826 20.6235C5.708 20.8457 6.249 21.044 6.7926 21.2135C7.3426 21.3844 7.9068 21.5294 8.4713 21.6451C9.63267 21.8813 10.8148 22.0002 12 22C12.5975 22.0002 13.1946 21.9701 13.7891 21.91C14.3729 21.8506 14.9534 21.7619 15.5283 21.6443C16.0947 21.5287 16.655 21.3846 17.207 21.2127C17.751 21.0438 18.292 20.8455 18.817 20.6233C19.3385 20.4026 19.8541 20.1546 20.3482 19.886C20.8423 19.6174 21.3297 19.3216 21.7916 19.0086C22.2616 18.6917 22.7154 18.3519 23.1416 17.9998L21.8662 16.4585ZM13.7346 11L13.98 9.2828L14.5542 5.2628C14.6055 4.91469 14.7792 4.59627 15.0442 4.3648C15.3093 4.13333 15.6482 4.00398 16 4V6.0016L17.6169 6.3171L18.502 6.4899C18.7719 6.52896 19.0199 6.66068 19.2034 6.8625C19.3869 7.06432 19.4945 7.32366 19.5077 7.5961C19.4977 7.87178 19.3815 8.13289 19.1832 8.32471C18.985 8.51653 18.7202 8.62415 18.4443 8.625H16V13.1378C15.9999 13.4559 16.0187 13.7737 16.0562 14.0895C15.7795 14.03 15.4972 14 15.2141 14H8.7859C8.50282 14 8.22054 14.03 7.9438 14.0895C7.98133 13.7737 8.00009 13.4559 8 13.1378V11H13.7346ZM16.6133 19.3027C16.1248 19.4547 15.6291 19.5822 15.1279 19.6846C14.6191 19.7886 14.1006 19.8677 13.5869 19.9199C12.5313 20.0269 11.4677 20.0269 10.4121 19.9199C9.8994 19.8682 9.3809 19.7891 8.8721 19.6856C8.373 19.5835 7.874 19.4546 7.3867 19.3037C6.9919 19.1806 6.6021 19.03 6.2167 18.8749L6.9556 17.1949C7.11184 16.8396 7.36808 16.5375 7.69307 16.3253C8.01807 16.1131 8.39778 16.0001 8.7859 16H15.2141C15.6023 16 15.982 16.1129 16.3071 16.3251C16.6322 16.5372 16.8885 16.8393 17.0448 17.1946L17.7837 18.8746C17.3979 19.0294 17.0081 19.18 16.6133 19.3027Z" fill="black"/>
</svg>
