<svg width="24" height="24" viewBox="0 0 24 24" fill="none" xmlns="http://www.w3.org/2000/svg">
<path d="M12 2C10.0222 2 8.08879 2.58649 6.4443 3.6853C4.79981 4.78412 3.51809 6.3459 2.76121 8.17317C2.00433 10.0004 1.8063 12.0111 2.19215 13.9509C2.578 15.8907 3.53041 17.6725 4.92894 19.0711C6.32746 20.4696 8.10929 21.422 10.0491 21.8079C11.9889 22.1937 13.9996 21.9957 15.8268 21.2388C17.6541 20.4819 19.2159 19.2002 20.3147 17.5557C21.4135 15.9112 22 13.9778 22 12C22 10.6868 21.7413 9.38642 21.2388 8.17317C20.7363 6.95991 19.9997 5.85752 19.0711 4.92893C18.1425 4.00035 17.0401 3.26375 15.8268 2.7612C14.6136 2.25866 13.3132 2 12 2ZM12 21C10.5597 21.002 9.13986 20.6583 7.85993 19.9977C6.57999 19.3371 5.47729 18.379 4.64449 17.2038C3.81168 16.0286 3.27309 14.6707 3.07397 13.2442C2.87486 11.8177 3.02103 10.3642 3.50021 9.00588C3.97938 7.64757 4.77757 6.42411 5.8277 5.43829C6.87783 4.45248 8.14923 3.7331 9.53507 3.3406C10.9209 2.94811 12.3807 2.89396 13.7918 3.18272C15.2029 3.47147 16.5241 4.09468 17.6444 5H8.6436C8.23313 4.99999 7.83259 5.12627 7.49635 5.36172C7.16012 5.59717 6.90447 5.93037 6.7641 6.3161L6.1561 7.9871C6.07365 8.2137 6.04705 8.45683 6.07854 8.6959C6.11003 8.93496 6.19869 9.16291 6.33701 9.36043C6.47532 9.55794 6.65922 9.7192 6.87311 9.83054C7.087 9.94187 7.32457 10 7.5657 10H9.348C9.50713 10 9.65975 10.0632 9.77227 10.1757C9.88479 10.2883 9.948 10.4409 9.948 10.6C9.948 10.7591 9.88479 10.9117 9.77227 11.0243C9.65975 11.1368 9.50713 11.2 9.348 11.2H7.3334C6.80297 11.2 6.29426 11.4107 5.91919 11.7858C5.54412 12.1609 5.3334 12.6696 5.3334 13.2V14C5.3334 14.2652 5.43876 14.5196 5.6263 14.7071C5.81383 14.8946 6.06819 15 6.3334 15H7.3334V17.3333C7.33339 17.4208 7.35062 17.5075 7.38412 17.5884C7.41761 17.6693 7.46671 17.7428 7.52861 17.8047C7.59051 17.8666 7.664 17.9157 7.74488 17.9492C7.82577 17.9828 7.91246 18 8 18H8.1667C8.82975 18 9.46563 17.7366 9.93447 17.2678C10.4033 16.7989 10.6667 16.163 10.6667 15.5V12.3333H15.5C16.163 12.3333 16.7989 12.0699 17.2678 11.6011C17.7366 11.1322 18 10.4963 18 9.8333V5.3109C19.1821 6.36282 20.0641 7.70934 20.5562 9.21323C21.0483 10.7171 21.1329 12.3246 20.8013 13.8718C20.6826 13.6459 20.5126 13.451 20.3048 13.3029C20.0971 13.1547 19.8575 13.0574 19.6052 13.0187C19.353 12.9801 19.0952 13.0012 18.8527 13.0803C18.6101 13.1595 18.3895 13.2945 18.2086 13.4745L17 14.6719V17H19.3617C19.4042 17 19.4442 16.9907 19.4858 16.9875C18.6649 18.221 17.5521 19.2327 16.2462 19.9327C14.9403 20.6327 13.4817 20.9993 12 21Z" fill="black"/>
</svg>
