<svg width="24" height="24" viewBox="0 0 24 24" fill="none" xmlns="http://www.w3.org/2000/svg">
<path d="M2.9668 14.1724C3.00996 14.6712 3.23866 15.1357 3.60771 15.4741C3.97675 15.8125 4.4593 16.0002 4.96 16H8.041C8.54161 16 9.02404 15.8123 9.39298 15.474C9.76192 15.1356 9.99055 14.6712 10.0337 14.1724L11 3H2L2.9668 14.1724ZM5 20H8V18H5V20ZM13 20H22V15H13V20ZM20.2 10H14.8C14.5636 10 14.3296 10.0466 14.1112 10.137C13.8928 10.2275 13.6944 10.3601 13.5272 10.5272C13.3601 10.6944 13.2275 10.8928 13.137 11.1112C13.0466 11.3296 13 11.5636 13 11.8V13H22V11.8C22 11.5636 21.9534 11.3296 21.863 11.1112C21.7725 10.8928 21.6399 10.6944 21.4728 10.5272C21.3056 10.3601 21.1072 10.2275 20.8888 10.137C20.6704 10.0466 20.4364 10 20.2 10Z" fill="black"/>
</svg>
