<svg width="24" height="24" viewBox="0 0 24 24" fill="none" xmlns="http://www.w3.org/2000/svg">
<path d="M18.5 4H12.75V2.75C12.75 2.55109 12.671 2.36032 12.5303 2.21967C12.3897 2.07902 12.1989 2 12 2C11.8011 2 11.6103 2.07902 11.4697 2.21967C11.329 2.36032 11.25 2.55109 11.25 2.75V4H5.5L1 13.9941C1.31326 14.9364 1.91809 15.7546 2.72704 16.3304C3.53598 16.9062 4.50712 17.2098 5.5 17.1973C6.49288 17.2098 7.46402 16.9062 8.27296 16.3304C9.08191 15.7546 9.68674 14.9364 10 13.9941L6.1755 5.5H11.25V19.46L7 20.12V21H17V20.1207L12.75 19.4607V5.5H17.8245L14 13.9941C14.3242 14.9294 14.9317 15.7405 15.7382 16.3146C16.5447 16.8886 17.5101 17.1971 18.5 17.1971C19.4899 17.1971 20.4553 16.8886 21.2618 16.3146C22.0683 15.7405 22.6758 14.9294 23 13.9941L18.5 4ZM2.6423 14L5.5 7.6534L8.3578 14H2.6423ZM15.6423 14L18.5 7.6534L21.3577 14H15.6423Z" fill="black"/>
</svg>
