<svg width="24" height="24" viewBox="0 0 24 24" fill="none" xmlns="http://www.w3.org/2000/svg">
<g clip-path="url(#clip0)">
<path d="M12 0C9.61557 0.0027525 7.32959 0.951184 5.64354 2.63723C3.95749 4.32328 3.00905 6.60927 3.0063 8.9937C3.0063 15.7563 10.9912 23.021 11.3311 23.3267L12 23.9287L12.6689 23.3267C13.0089 23.021 20.9941 15.7567 20.9941 8.9937C20.9913 6.60922 20.0428 4.32322 18.3566 2.63718C16.6705 0.951136 14.3845 0.00272589 12 0V0ZM12 21.2C10.1336 19.3519 5.0063 13.8336 5.0063 8.9942C5.0063 7.1393 5.74316 5.36038 7.05477 4.04877C8.36638 2.73716 10.1453 2.0003 12.0002 2.0003C13.8551 2.0003 15.634 2.73716 16.9456 4.04877C18.2572 5.36038 18.9941 7.1393 18.9941 8.9942C18.9941 13.8327 13.8668 19.3511 12 21.2ZM12 8C12.2959 8 12.5852 7.91225 12.8312 7.74784C13.0773 7.58344 13.2691 7.34977 13.3823 7.07637C13.4956 6.80298 13.5252 6.50214 13.4675 6.21191C13.4097 5.92167 13.2672 5.65507 13.058 5.44583C12.8487 5.23658 12.5821 5.09408 12.2919 5.03635C12.0017 4.97862 11.7008 5.00825 11.4274 5.12149C11.154 5.23474 10.9204 5.42651 10.756 5.67256C10.5916 5.9186 10.5038 6.20788 10.5038 6.5038C10.5038 6.90062 10.6614 7.28118 10.942 7.56177C11.2226 7.84237 11.6032 8 12 8ZM9 10.5939V12H15V10.5939C14.606 10.1999 14.1383 9.88741 13.6236 9.6742C13.1089 9.46098 12.5572 9.35124 12 9.35124C11.4428 9.35124 10.8912 9.46098 10.3764 9.6742C9.86167 9.88741 9.39396 10.1999 9 10.5939Z" fill="black"/>
</g>
<defs>
<clipPath id="clip0">
<rect width="24" height="24" fill="white"/>
</clipPath>
</defs>
</svg>
