<svg width="24" height="24" viewBox="0 0 24 24" fill="none" xmlns="http://www.w3.org/2000/svg">
<path d="M20 3H15V4H20V5.5H15V6.5H20V8H15V9H20V10.5H15V11.5H20V13H15V14H20V21H21V4C21 3.73478 20.8946 3.48043 20.7071 3.29289C20.5196 3.10536 20.2652 3 20 3ZM12 15C11.2597 15.0019 10.5467 15.2795 10 15.7786V14L9.1531 3H7.8469L7 14V15.7786C6.48886 15.3228 5.83673 15.0563 5.15266 15.0236C4.46858 14.9909 3.79402 15.1941 3.24176 15.5991C2.68951 16.0041 2.29303 16.5865 2.11861 17.2487C1.9442 17.911 2.00242 18.6131 2.28355 19.2376C2.56467 19.8621 3.05166 20.3711 3.66309 20.6796C4.27452 20.9882 4.97333 21.0774 5.64268 20.9325C6.31203 20.7876 6.91135 20.4173 7.34043 19.8835C7.76951 19.3497 8.00234 18.6849 8 18V14H9V18C9 18.5933 9.17595 19.1734 9.5056 19.6667C9.83524 20.1601 10.3038 20.5446 10.852 20.7716C11.4001 20.9987 12.0033 21.0581 12.5853 20.9424C13.1672 20.8266 13.7018 20.5409 14.1213 20.1213C14.5409 19.7018 14.8266 19.1672 14.9424 18.5853C15.0581 18.0033 14.9987 17.4001 14.7716 16.8519C14.5446 16.3038 14.1601 15.8352 13.6667 15.5056C13.1734 15.1759 12.5933 15 12 15ZM5 20C4.60444 20 4.21776 19.8827 3.88886 19.6629C3.55997 19.4432 3.30362 19.1308 3.15225 18.7654C3.00087 18.3999 2.96126 17.9978 3.03843 17.6098C3.1156 17.2219 3.30609 16.8655 3.58579 16.5858C3.8655 16.3061 4.22186 16.1156 4.60982 16.0384C4.99779 15.9613 5.39992 16.0009 5.76537 16.1522C6.13082 16.3036 6.44318 16.56 6.66294 16.8889C6.88271 17.2178 7 17.6044 7 18C6.9994 18.5302 6.78849 19.0386 6.41355 19.4135C6.0386 19.7885 5.53025 19.9994 5 20ZM8.08 13L8.5 4.5443L8.92 13H8.08ZM12 20C11.6044 20 11.2178 19.8827 10.8889 19.6629C10.56 19.4432 10.3036 19.1308 10.1522 18.7654C10.0009 18.3999 9.96126 17.9978 10.0384 17.6098C10.1156 17.2219 10.3061 16.8655 10.5858 16.5858C10.8655 16.3061 11.2219 16.1156 11.6098 16.0384C11.9978 15.9613 12.3999 16.0009 12.7654 16.1522C13.1308 16.3036 13.4432 16.56 13.6629 16.8889C13.8827 17.2178 14 17.6044 14 18C13.9994 18.5302 13.7885 19.0386 13.4135 19.4135C13.0386 19.7885 12.5302 19.9994 12 20Z" fill="black"/>
</svg>
