<svg width="24" height="24" viewBox="0 0 24 24" fill="none" xmlns="http://www.w3.org/2000/svg">
<path d="M19.9621 11.1389C19.7873 9.28526 18.9714 7.55064 17.6548 6.2341C16.3383 4.91755 14.6037 4.10157 12.75 3.92682V0.888916H11.25V3.92682C9.39634 4.10157 7.66173 4.91755 6.34518 6.2341C5.02864 7.55064 4.21265 9.28526 4.0379 11.1389H1V12.6389H4.0379C4.21265 14.4926 5.02864 16.2272 6.34518 17.5437C7.66173 18.8603 9.39634 19.6763 11.25 19.851V22.8889H12.75V19.851C14.6037 19.6763 16.3383 18.8603 17.6548 17.5437C18.9714 16.2272 19.7873 14.4926 19.9621 12.6389H23V11.1389H19.9621ZM12 18.3889C10.7144 18.3889 9.45771 18.0077 8.38879 17.2935C7.31987 16.5792 6.48675 15.5641 5.99478 14.3764C5.50281 13.1886 5.37409 11.8817 5.6249 10.6208C5.8757 9.35995 6.49476 8.20176 7.40381 7.29272C8.31285 6.38368 9.47104 5.76462 10.7319 5.51381C11.9928 5.26301 13.2997 5.39173 14.4874 5.8837C15.6752 6.37567 16.6903 7.20879 17.4046 8.27771C18.1188 9.34663 18.5 10.6033 18.5 11.8889C18.498 13.6122 17.8126 15.2644 16.594 16.4829C15.3755 17.7015 13.7233 18.387 12 18.3889ZM13.7676 9.13102L12 10.8987L10.2324 9.13102L9.2424 10.121L11.01 11.8889L9.2421 13.6565L10.2321 14.6465L12 12.8791L13.7676 14.6468L14.7576 13.6568L12.99 11.8889L14.7577 10.1212L13.7676 9.13102Z" fill="black"/>
</svg>
