<svg width="24" height="24" viewBox="0 0 24 24" fill="none" xmlns="http://www.w3.org/2000/svg">
<g clip-path="url(#clip0)">
<path d="M12 0C9.61555 0.0027525 7.32957 0.951184 5.64352 2.63723C3.95747 4.32328 3.00904 6.60927 3.00629 8.9937C3.00629 15.7563 10.9912 23.021 11.3311 23.3267L12 23.9287L12.6689 23.3267C13.0089 23.021 20.9941 15.7567 20.9941 8.9937C20.9913 6.60922 20.0427 4.32322 18.3566 2.63718C16.6705 0.951136 14.3845 0.00272589 12 0V0ZM12.35 5L12.2177 10H11.7823L11.65 5H12.35ZM12 12.4C11.9209 12.4 11.8435 12.3765 11.7778 12.3326C11.712 12.2886 11.6607 12.2262 11.6304 12.1531C11.6002 12.08 11.5922 11.9996 11.6077 11.922C11.6231 11.8444 11.6612 11.7731 11.7171 11.7172C11.7731 11.6612 11.8444 11.6231 11.922 11.6077C11.9995 11.5923 12.08 11.6002 12.1531 11.6304C12.2262 11.6607 12.2886 11.712 12.3326 11.7778C12.3765 11.8436 12.4 11.9209 12.4 12C12.4 12.1061 12.3578 12.2078 12.2828 12.2828C12.2078 12.3579 12.1061 12.4 12 12.4Z" fill="black"/>
</g>
<defs>
<clipPath id="clip0">
<rect width="24" height="24" fill="white"/>
</clipPath>
</defs>
</svg>
