<svg width="24" height="24" viewBox="0 0 24 24" fill="none" xmlns="http://www.w3.org/2000/svg">
<path d="M9.99999 6H14V9L18 5L14 1V4H9.99999C8.47805 3.99883 6.98741 4.4322 5.70332 5.24915C4.41922 6.0661 3.39506 7.23267 2.75122 8.61172C2.10738 9.99077 1.87064 11.525 2.06883 13.034C2.26701 14.5429 2.89189 15.964 3.86999 17.13L5.29199 15.7079C4.59324 14.8244 4.15773 13.7617 4.03542 12.6419C3.91311 11.5221 4.10896 10.3905 4.6005 9.37699C5.09204 8.36344 5.85935 7.50899 6.8144 6.91167C7.76945 6.31436 8.87354 5.99838 9.99999 6ZM20.13 6.87L18.708 8.2921C19.4067 9.17564 19.8422 10.2383 19.9646 11.3581C20.0869 12.4779 19.891 13.6095 19.3995 14.623C18.9079 15.6366 18.1406 16.491 17.1856 17.0883C16.2305 17.6856 15.1264 18.0016 14 18H9.99999V15L5.99999 19L9.99999 23V20H14C15.5219 20.0012 17.0126 19.5678 18.2967 18.7508C19.5808 17.9339 20.6049 16.7673 21.2488 15.3883C21.8926 14.0092 22.1293 12.475 21.9312 10.966C21.733 9.45706 21.1081 8.03603 20.13 6.87Z" fill="black"/>
</svg>
