<svg width="24" height="24" viewBox="0 0 24 24" fill="none" xmlns="http://www.w3.org/2000/svg">
<path d="M8.6309 8.17161H5.2219L6.6968 6.69631C7.74572 5.64743 9.08212 4.93314 10.537 4.64379C11.9919 4.35443 13.4999 4.503 14.8703 5.0707C16.2408 5.6384 17.4121 6.59974 18.2362 7.83315C19.0602 9.06656 19.5001 10.5166 19.5 12H20.5C20.5 10.3189 20.0015 8.6756 19.0675 7.27783C18.1336 5.88005 16.8061 4.7906 15.253 4.14724C13.6999 3.50387 11.9909 3.33549 10.3421 3.66337C8.69333 3.99126 7.17879 4.80069 5.99 5.98931L4.5148 7.46461V4.05541H3.5148V9.17161H8.6309V8.17161ZM15.3691 15.8284H18.7781L17.3032 17.3036C16.2543 18.3525 14.9179 19.0668 13.463 19.3561C12.0082 19.6455 10.5002 19.4969 9.12972 18.9292C7.75928 18.3616 6.58796 17.4002 5.76388 16.1668C4.93979 14.9334 4.49996 13.4834 4.5 12H3.5C3.5014 13.6805 4.00072 15.3228 4.93491 16.7197C5.86909 18.1166 7.19624 19.2053 8.74876 19.8485C10.3013 20.4916 12.0096 20.6603 13.6579 20.3332C15.3062 20.0061 16.8207 19.1979 18.01 18.0107L19.4849 16.5354V19.9445H20.4849V14.8284H15.3691V15.8284Z" fill="black"/>
</svg>
