<svg width="24" height="24" viewBox="0 0 24 24" fill="none" xmlns="http://www.w3.org/2000/svg">
<path d="M19.6016 7.3984L19.2434 7.7567C20.0465 8.74673 20.5525 9.94407 20.7029 11.21C20.8532 12.4758 20.6418 13.7584 20.093 14.909C19.5442 16.0596 18.6805 17.0311 17.6021 17.711C16.5237 18.3908 15.2748 18.751 14 18.75H7.76999L10.4164 16.1034L10.063 15.75L6.81249 19L10.063 22.25L10.4167 21.8961L7.76999 19.25H14C15.3736 19.2502 16.7191 18.86 17.8796 18.125C19.04 17.39 19.9678 16.3404 20.5548 15.0985C21.1418 13.8566 21.3638 12.4734 21.1951 11.1102C21.0263 9.74694 20.4737 8.4597 19.6016 7.3984ZM9.99999 5.25H16.23L13.5833 7.8966L13.937 8.2505L17.1875 5L13.937 1.75L13.5833 2.1039L16.23 4.75H9.99999C8.62633 4.74985 7.2809 5.13999 6.12041 5.87498C4.95993 6.60997 4.03216 7.65955 3.44516 8.90148C2.85817 10.1434 2.63613 11.5266 2.80489 12.8898C2.97365 14.2531 3.52627 15.5403 4.39839 16.6016L4.75659 16.2433C3.95352 15.2533 3.44747 14.0559 3.29711 12.79C3.14674 11.5242 3.35821 10.2416 3.90701 9.09098C4.4558 7.94037 5.31945 6.96886 6.39784 6.28905C7.47623 5.60924 8.7252 5.24897 9.99999 5.25Z" fill="black"/>
</svg>
