<svg width="24" height="24" viewBox="0 0 24 24" fill="none" xmlns="http://www.w3.org/2000/svg">
<path d="M7.74798 16.2519C5.38657 13.8963 3.75043 10.9128 3.03368 7.65524C2.87089 6.81715 3.02344 5.94847 3.46203 5.21599C3.90062 4.48351 4.59434 3.93887 5.40998 3.68664L7.03648 3.16664L9.19268 7.28064L7.07088 9.40234L6.55758 9.91564L6.88658 10.5627C8.30891 13.3939 10.6061 15.691 13.4372 17.1133L14.0843 17.4423L14.5976 16.929L16.7193 14.8072L20.8335 16.9631L20.3135 18.5896C20.0613 19.4053 19.5167 20.0991 18.7842 20.5378C18.0517 20.9764 17.183 21.129 16.3449 20.9662C13.0873 20.2495 10.1037 18.6134 7.74798 16.2519ZM7.04088 16.959C9.53061 19.4567 12.6854 21.1866 16.13 21.9429C17.2117 22.1618 18.3361 21.9711 19.285 21.4077C20.234 20.8444 20.9399 19.9486 21.2658 18.8942L22.0422 16.4667L16.5322 13.5806L13.89 16.2219C11.2479 14.8956 9.10429 12.7521 7.77798 10.1099L10.4193 7.46874L7.53318 1.95874L5.10568 2.73514C4.0515 3.06098 3.1559 3.76673 2.59259 4.71549C2.02928 5.66426 1.8384 6.78842 2.05698 7.86994C2.81333 11.3145 4.54323 14.4692 7.04088 16.9589V16.959Z" fill="black"/>
</svg>
