<svg width="24" height="24" viewBox="0 0 24 24" fill="none" xmlns="http://www.w3.org/2000/svg">
<path d="M8.3469 8.4443H4.5957L6.52 6.52C7.60386 5.43617 8.98476 4.69808 10.4881 4.39906C11.9914 4.10004 13.5497 4.25351 14.9658 4.84008C16.3819 5.42664 17.5923 6.41996 18.4438 7.69441C19.2954 8.96886 19.75 10.4672 19.75 12H20.25C20.25 10.3683 19.7662 8.77323 18.8597 7.41649C17.9533 6.05976 16.6648 5.0023 15.1573 4.37783C13.6499 3.75337 11.9911 3.58995 10.3907 3.90824C8.79034 4.22653 7.32031 5.01224 6.1665 6.166L4.2505 8.0825V4.3479H3.7505V8.9446H8.3469V8.4443ZM15.6531 15.5557H19.4043L17.48 17.4805C16.3961 18.5644 15.0152 19.3025 13.5118 19.6015C12.0084 19.9005 10.4501 19.747 9.03399 19.1603C7.61787 18.5737 6.4075 17.5803 5.55595 16.3058C4.70441 15.0312 4.24993 13.5328 4.25 12H3.75C3.75134 13.6311 4.23596 15.2252 5.14268 16.581C6.0494 17.9369 7.33755 18.9936 8.84445 19.6178C10.3514 20.2421 12.0094 20.4058 13.6093 20.0883C15.2092 19.7708 16.6791 18.9863 17.8335 17.834L19.7495 15.9175V19.6521H20.2495V15.0553H15.6531V15.5557Z" fill="black"/>
</svg>
