<svg width="24" height="24" viewBox="0 0 24 24" fill="none" xmlns="http://www.w3.org/2000/svg">
<path d="M7.7 10H7V10.7H7.7V10ZM12.35 10H11.65V10.7H12.35V10ZM17 10H16.3V10.7H17V10ZM7.7 15.3H7V16H7.7V15.3ZM12.35 15.3H11.65V16H12.35V15.3ZM17 15.3H16.3V16H17V15.3ZM18 5V2.25C18 2.1837 17.9737 2.12011 17.9268 2.07322C17.8799 2.02634 17.8163 2 17.75 2C17.6837 2 17.6201 2.02634 17.5732 2.07322C17.5263 2.12011 17.5 2.1837 17.5 2.25V5H6.5V2.25C6.5 2.1837 6.47366 2.12011 6.42678 2.07322C6.37989 2.02634 6.3163 2 6.25 2C6.1837 2 6.12011 2.02634 6.07322 2.07322C6.02634 2.12011 6 2.1837 6 2.25V5H2V21H22V5H18ZM21.5 20.5H2.5V5.5H21.5V20.5Z" fill="black"/>
</svg>
