<svg width="24" height="24" viewBox="0 0 24 24" fill="none" xmlns="http://www.w3.org/2000/svg">
<path d="M12 10C12.7747 10 13.5319 9.77035 14.176 9.33999C14.8201 8.90963 15.3222 8.29793 15.6186 7.58225C15.9151 6.86657 15.9927 6.07905 15.8416 5.31928C15.6904 4.55951 15.3174 3.86161 14.7697 3.31384C14.2219 2.76607 13.524 2.39303 12.7642 2.24189C12.0045 2.09076 11.217 2.16832 10.5013 2.46476C9.78558 2.7612 9.17387 3.26322 8.74349 3.90732C8.31311 4.55142 8.0834 5.30867 8.0834 6.08333C8.08459 7.12172 8.49761 8.11724 9.23185 8.8515C9.9661 9.58577 10.9616 9.99881 12 10ZM12 3.66663C12.478 3.66661 12.9452 3.80833 13.3427 4.07387C13.7401 4.3394 14.0499 4.71683 14.2328 5.15843C14.4157 5.60002 14.4636 6.08594 14.3704 6.55474C14.2771 7.02354 14.047 7.45417 13.709 7.79216C13.371 8.13015 12.9404 8.36033 12.4716 8.45358C12.0028 8.54684 11.5169 8.49899 11.0753 8.31608C10.6337 8.13317 10.2562 7.82341 9.99069 7.42598C9.72514 7.02856 9.5834 6.56131 9.5834 6.08333C9.58414 5.44262 9.83898 4.82837 10.292 4.37532C10.7451 3.92226 11.3593 3.6674 12 3.66663ZM19.707 15.3978C17.6615 13.3567 14.8897 12.2103 12 12.2103C9.11027 12.2103 6.33855 13.3567 4.293 15.3978L4 15.6907V21H20V15.6907L19.707 15.3978ZM18.5 19.5H5.5V16.3206C5.5271 16.2958 5.6031 16.2225 5.6306 16.1984C7.3659 14.5986 9.63973 13.7103 12 13.7103C14.3603 13.7103 16.6341 14.5986 18.3694 16.1984C18.3969 16.2225 18.473 16.2958 18.5 16.3206V19.5Z" fill="black"/>
</svg>
