<svg width="24" height="24" viewBox="0 0 24 24" fill="none" xmlns="http://www.w3.org/2000/svg">
<path d="M19 4H5C4.20435 4 3.44129 4.31607 2.87868 4.87868C2.31607 5.44129 2 6.20435 2 7V17C2 17.7956 2.31607 18.5587 2.87868 19.1213C3.44129 19.6839 4.20435 20 5 20H19C19.7956 20 20.5587 19.6839 21.1213 19.1213C21.6839 18.5587 22 17.7956 22 17V7C22 6.20435 21.6839 5.44129 21.1213 4.87868C20.5587 4.31607 19.7956 4 19 4ZM20.5 17C20.4995 17.3977 20.3414 17.779 20.0602 18.0602C19.779 18.3414 19.3977 18.4995 19 18.5H5C4.60231 18.4995 4.22104 18.3414 3.93984 18.0602C3.65863 17.779 3.50045 17.3977 3.5 17V10.5H20.5V17ZM3.5 9V7C3.50045 6.60231 3.65863 6.22104 3.93984 5.93984C4.22104 5.65863 4.60231 5.50045 5 5.5H19C19.3977 5.50045 19.779 5.65863 20.0602 5.93984C20.3414 6.22104 20.4995 6.60231 20.5 7V9H3.5Z" fill="black"/>
</svg>
