<svg width="24" height="24" viewBox="0 0 24 24" fill="none" xmlns="http://www.w3.org/2000/svg">
<path d="M15.4 9.15C15.3011 9.15 15.2044 9.17932 15.1222 9.23427C15.04 9.28921 14.9759 9.3673 14.9381 9.45866C14.9002 9.55002 14.8903 9.65055 14.9096 9.74755C14.9289 9.84454 14.9765 9.93363 15.0465 10.0036C15.1164 10.0735 15.2055 10.1211 15.3025 10.1404C15.3995 10.1597 15.5 10.1498 15.5913 10.1119C15.6827 10.0741 15.7608 10.01 15.8157 9.92778C15.8707 9.84556 15.9 9.74889 15.9 9.65C15.9 9.51739 15.8473 9.39021 15.7536 9.29645C15.6598 9.20268 15.5326 9.15 15.4 9.15ZM9.1 9.65C9.1 9.55111 9.07068 9.45444 9.01574 9.37222C8.9608 9.28999 8.88271 9.2259 8.79135 9.18806C8.69998 9.15022 8.59945 9.14031 8.50246 9.15961C8.40547 9.1789 8.31638 9.22652 8.24645 9.29645C8.17652 9.36637 8.1289 9.45546 8.10961 9.55245C8.09032 9.64945 8.10022 9.74998 8.13806 9.84134C8.17591 9.9327 8.24 10.0108 8.32222 10.0657C8.40444 10.1207 8.50111 10.15 8.6 10.15C8.73261 10.15 8.85979 10.0973 8.95356 10.0036C9.04733 9.90979 9.1 9.78261 9.1 9.65ZM8.2876 15.5708L8.6411 15.9243C9.532 15.0336 10.7402 14.5332 12 14.5332C13.2598 14.5332 14.468 15.0336 15.3589 15.9243L15.7124 15.5708C15.2249 15.0833 14.6461 14.6965 14.0092 14.4327C13.3722 14.1688 12.6895 14.033 12 14.033C11.3105 14.033 10.6278 14.1688 9.99086 14.4327C9.35388 14.6965 8.77511 15.0833 8.2876 15.5708ZM12 2C10.0222 2 8.08879 2.58649 6.4443 3.6853C4.79981 4.78412 3.51809 6.3459 2.76121 8.17317C2.00433 10.0004 1.8063 12.0111 2.19215 13.9509C2.578 15.8907 3.53041 17.6725 4.92894 19.0711C6.32746 20.4696 8.10929 21.422 10.0491 21.8079C11.9889 22.1937 13.9996 21.9957 15.8268 21.2388C17.6541 20.4819 19.2159 19.2002 20.3147 17.5557C21.4135 15.9112 22 13.9778 22 12C22 10.6868 21.7413 9.38642 21.2388 8.17317C20.7363 6.95991 19.9997 5.85752 19.0711 4.92893C18.1425 4.00035 17.0401 3.26375 15.8268 2.7612C14.6136 2.25866 13.3132 2 12 2ZM12 21.5C10.1211 21.5 8.28435 20.9428 6.72209 19.899C5.15982 18.8551 3.94218 17.3714 3.22315 15.6355C2.50412 13.8996 2.31598 11.9895 2.68254 10.1466C3.0491 8.30382 3.95389 6.61108 5.28249 5.28249C6.61109 3.95389 8.30383 3.0491 10.1466 2.68254C11.9895 2.31598 13.8996 2.50411 15.6355 3.22314C17.3714 3.94218 18.8551 5.15982 19.899 6.72208C20.9428 8.28435 21.5 10.1211 21.5 12C21.4971 14.5187 20.4953 16.9334 18.7144 18.7144C16.9334 20.4953 14.5187 21.4971 12 21.5Z" fill="black"/>
</svg>
