<svg width="24" height="24" viewBox="0 0 24 24" fill="none" xmlns="http://www.w3.org/2000/svg">
<path d="M6.75 12C6.75 11.11 6.7891 10.282 6.854 9.5H2.3278C1.89073 11.138 1.89073 12.862 2.3278 14.5H6.854C6.7891 13.718 6.75 12.89 6.75 12ZM8.25 12C8.25 12.8649 8.2955 13.7 8.3729 14.5H15.6271C15.7045 13.7 15.75 12.8649 15.75 12C15.75 11.1351 15.7045 10.3 15.6271 9.5H8.3729C8.2955 10.3005 8.25 11.1351 8.25 12ZM21.1624 8C20.5956 6.70551 19.7614 5.54553 18.7146 4.59619C17.6678 3.64686 16.4321 2.92964 15.0885 2.4916C16.1242 4.16273 16.7711 6.04524 16.9814 8H21.1624ZM21.6724 9.5H17.146C17.2109 10.282 17.25 11.11 17.25 12C17.25 12.89 17.2109 13.718 17.146 14.5H21.6722C22.1093 12.862 22.1093 11.138 21.6722 9.5H21.6724ZM8.5641 16C9.143 19.5305 10.4626 22 12 22C13.5374 22 14.8571 19.5305 15.4359 16H8.5641ZM2.8376 16C3.40443 17.2945 4.23863 18.4545 5.28544 19.4039C6.33226 20.3532 7.56802 21.0704 8.9116 21.5084C7.87587 19.8373 7.22894 17.9548 7.0186 16H2.8376ZM15.0884 21.5084C16.432 21.0704 17.6677 20.3532 18.7146 19.4039C19.7614 18.4545 20.5956 17.2945 21.1624 16H16.9814C16.7711 17.9548 16.1241 19.8373 15.0884 21.5084ZM15.4359 8C14.8571 4.47 13.5374 2 12 2C10.4626 2 9.143 4.47 8.5641 8H15.4359ZM8.9115 2.4916C7.56794 2.92964 6.33222 3.64686 5.28542 4.59619C4.23863 5.54553 3.40444 6.70551 2.8376 8H7.0186C7.22891 6.04524 7.87581 4.16273 8.9115 2.4916Z" fill="black"/>
</svg>
