<svg width="24" height="24" viewBox="0 0 24 24" fill="none" xmlns="http://www.w3.org/2000/svg">
<g clip-path="url(#clip0)">
<path d="M12 2C13.8543 2.00204 15.632 2.73951 16.9432 4.05063C18.2544 5.36175 18.992 7.13944 18.9941 8.9937C18.9941 13.8327 13.8668 19.3511 12 21.1995C10.1336 19.3514 5.00635 13.8331 5.00635 8.9937C5.00844 7.1395 5.74594 5.36184 7.05706 4.05072C8.36818 2.7396 10.1458 2.00209 12 2ZM12 0C9.61561 0.0027525 7.32963 0.951184 5.64358 2.63723C3.95753 4.32328 3.0091 6.60927 3.00635 8.9937C3.00635 15.7563 10.9912 23.021 11.3311 23.3267L12 23.9287L12.6689 23.3267C13.0089 23.021 20.9941 15.7567 20.9941 8.9937C20.9913 6.60922 20.0428 4.32322 18.3567 2.63718C16.6706 0.951136 14.3845 0.00272589 12 0V0Z" fill="black"/>
<path d="M12 7.35C12.3263 7.35 12.6454 7.44677 12.9167 7.62808C13.188 7.80938 13.3995 8.06707 13.5244 8.36857C13.6493 8.67007 13.682 9.00183 13.6183 9.3219C13.5546 9.64197 13.3975 9.93597 13.1667 10.1667C12.936 10.3975 12.642 10.5546 12.3219 10.6183C12.0018 10.682 11.6701 10.6493 11.3686 10.5244C11.0671 10.3995 10.8094 10.188 10.6281 9.91669C10.4468 9.64535 10.35 9.32634 10.35 9C10.3505 8.56255 10.5245 8.14316 10.8338 7.83383C11.1432 7.5245 11.5625 7.3505 12 7.35ZM12 5.75C11.3572 5.75 10.7289 5.94061 10.1944 6.29772C9.65994 6.65484 9.24338 7.16242 8.99739 7.75628C8.75141 8.35014 8.68705 9.00361 8.81245 9.63404C8.93785 10.2645 9.24738 10.8436 9.70191 11.2981C10.1564 11.7526 10.7355 12.0622 11.366 12.1876C11.9964 12.313 12.6499 12.2486 13.2437 12.0026C13.8376 11.7566 14.3452 11.3401 14.7023 10.8056C15.0594 10.2711 15.25 9.64279 15.25 9C15.25 8.13805 14.9076 7.3114 14.2981 6.7019C13.6886 6.09241 12.862 5.75 12 5.75Z" fill="black"/>
</g>
<defs>
<clipPath id="clip0">
<rect width="24" height="24" fill="white"/>
</clipPath>
</defs>
</svg>
