<svg width="24" height="24" viewBox="0 0 24 24" fill="none" xmlns="http://www.w3.org/2000/svg">
<path d="M15 8.65C14.733 8.65 14.472 8.72918 14.25 8.87752C14.028 9.02586 13.8549 9.2367 13.7528 9.48338C13.6506 9.73006 13.6239 10.0015 13.6759 10.2634C13.728 10.5252 13.8566 10.7658 14.0454 10.9546C14.2342 11.1434 14.4748 11.272 14.7366 11.3241C14.9985 11.3762 15.2699 11.3494 15.5166 11.2472C15.7633 11.1451 15.9741 10.972 16.1225 10.75C16.2708 10.528 16.35 10.267 16.35 10C16.35 9.64196 16.2078 9.29858 15.9546 9.04541C15.7014 8.79223 15.358 8.65 15 8.65ZM9 11.35C9.26701 11.35 9.52802 11.2708 9.75002 11.1225C9.97203 10.9741 10.1451 10.7633 10.2472 10.5166C10.3494 10.2699 10.3762 9.9985 10.3241 9.73663C10.272 9.47475 10.1434 9.23421 9.9546 9.04541C9.7658 8.8566 9.52525 8.72803 9.26338 8.67594C9.0015 8.62385 8.73006 8.65058 8.48338 8.75276C8.2367 8.85494 8.02586 9.02797 7.87752 9.24998C7.72918 9.47199 7.65 9.733 7.65 10C7.65 10.358 7.79224 10.7014 8.04541 10.9546C8.29858 11.2078 8.64196 11.35 9 11.35ZM7.7573 15.0405L9.1714 16.4546C9.93353 15.7273 10.9465 15.3215 12 15.3215C13.0535 15.3215 14.0665 15.7273 14.8286 16.4546L16.2427 15.0405C15.6856 14.4833 15.0241 14.0414 14.2961 13.7398C13.5682 13.4383 12.788 13.2831 12 13.2831C11.2121 13.2831 10.4318 13.4383 9.70386 13.7398C8.9759 14.0414 8.31446 14.4833 7.7573 15.0405ZM12 2C10.0222 2 8.08879 2.58649 6.4443 3.6853C4.79981 4.78412 3.51809 6.3459 2.76121 8.17317C2.00433 10.0004 1.8063 12.0111 2.19215 13.9509C2.578 15.8907 3.53041 17.6725 4.92894 19.0711C6.32746 20.4696 8.10929 21.422 10.0491 21.8079C11.9889 22.1937 13.9996 21.9957 15.8268 21.2388C17.6541 20.4819 19.2159 19.2002 20.3147 17.5557C21.4135 15.9112 22 13.9778 22 12C22 10.6868 21.7413 9.38642 21.2388 8.17317C20.7363 6.95991 19.9997 5.85752 19.0711 4.92893C18.1425 4.00035 17.0401 3.26375 15.8268 2.7612C14.6136 2.25866 13.3132 2 12 2ZM12 20C10.4178 20 8.87104 19.5308 7.55544 18.6518C6.23985 17.7727 5.21447 16.5233 4.60897 15.0615C4.00347 13.5997 3.84504 11.9911 4.15372 10.4393C4.4624 8.88743 5.22433 7.46197 6.34315 6.34315C7.46197 5.22433 8.88743 4.4624 10.4393 4.15372C11.9911 3.84504 13.5997 4.00346 15.0615 4.60896C16.5233 5.21447 17.7727 6.23984 18.6518 7.55544C19.5308 8.87103 20 10.4177 20 12C19.9976 14.121 19.154 16.1544 17.6542 17.6542C16.1544 19.154 14.121 19.9976 12 20Z" fill="black"/>
</svg>
