<svg width="24" height="24" viewBox="0 0 24 24" fill="none" xmlns="http://www.w3.org/2000/svg">
<path d="M21.8536 21.1466L15.9936 15.2866C17.3723 13.7242 18.0888 11.6865 17.9913 9.60503C17.8939 7.52358 16.9901 5.56177 15.4715 4.13501C13.9528 2.70825 11.9385 1.92857 9.85503 1.96106C7.77155 1.99355 5.78251 2.83567 4.30909 4.30909C2.83567 5.78251 1.99355 7.77155 1.96106 9.85503C1.92857 11.9385 2.70825 13.9528 4.13501 15.4715C5.56177 16.9901 7.52358 17.8939 9.60503 17.9913C11.6865 18.0888 13.7242 17.3723 15.2866 15.9936L21.1466 21.8536L21.8536 21.1466ZM10.0001 17.0001C8.61558 17.0001 7.2622 16.5895 6.11106 15.8203C4.95992 15.0512 4.06271 13.9579 3.5329 12.6788C3.00308 11.3998 2.86446 9.99229 3.13456 8.63442C3.40465 7.27655 4.07134 6.02927 5.0503 5.0503C6.02927 4.07134 7.27655 3.40465 8.63442 3.13456C9.99229 2.86446 11.3998 3.00308 12.6788 3.5329C13.9579 4.06271 15.0512 4.95992 15.8203 6.11106C16.5895 7.2622 17.0001 8.61558 17.0001 10.0001C16.998 11.8559 16.2598 13.6352 14.9475 14.9475C13.6352 16.2598 11.8559 16.998 10.0001 17.0001Z" fill="black"/>
</svg>
