<svg width="24" height="24" viewBox="0 0 24 24" fill="none" xmlns="http://www.w3.org/2000/svg">
<path d="M22.0301 20.97L16.1616 15.1016C17.4735 13.5171 18.1248 11.4881 17.9802 9.43608C17.8356 7.38402 16.9062 5.4665 15.3849 4.08168C13.8637 2.69686 11.8675 1.95115 9.81095 1.9994C7.75437 2.04764 5.79538 2.88613 4.34075 4.34075C2.88613 5.79538 2.04764 7.75437 1.9994 9.81095C1.95115 11.8675 2.69686 13.8637 4.08168 15.3849C5.4665 16.9062 7.38402 17.8356 9.43608 17.9802C11.4881 18.1248 13.5171 17.4735 15.1016 16.1616L20.9701 22.03L22.0301 20.97ZM3.50006 9.99996C3.50006 8.71438 3.88128 7.45767 4.59551 6.38875C5.30974 5.31983 6.3249 4.48671 7.51262 3.99474C8.70034 3.50277 10.0073 3.37405 11.2681 3.62486C12.529 3.87566 13.6872 4.49472 14.5963 5.40377C15.5053 6.31281 16.1244 7.471 16.3752 8.73187C16.626 9.99275 16.4972 11.2997 16.0053 12.4874C15.5133 13.6751 14.6802 14.6903 13.6113 15.4045C12.5423 16.1187 11.2856 16.5 10.0001 16.5C8.27675 16.498 6.62459 15.8126 5.40603 14.594C4.18747 13.3754 3.50202 11.7233 3.50006 9.99996Z" fill="black"/>
</svg>
