<svg width="24" height="24" viewBox="0 0 24 24" fill="none" xmlns="http://www.w3.org/2000/svg">
<path d="M19.6384 10.71L22.447 8.5529C21.9734 7.12138 21.2116 5.80202 20.2087 4.6761L16.9365 6.03L14.7017 4.74L14.2383 1.229C12.7617 0.923666 11.2383 0.923666 9.76169 1.229L9.29829 4.74L7.06349 6.03L3.79129 4.6761C2.78836 5.80202 2.02661 7.12138 1.55299 8.5529L4.36159 10.71V13.29L1.55299 15.4471C2.02661 16.8786 2.78836 18.198 3.79129 19.3239L7.06349 17.97L9.29829 19.26L9.76169 22.7708C11.2383 23.0761 12.7617 23.0761 14.2383 22.7708L14.7017 19.26L16.9365 17.97L20.2087 19.3241C21.2116 18.1982 21.9734 16.8788 22.447 15.4473L19.6384 13.29V10.71ZM21.8557 15.6238C21.4401 16.7516 20.8347 17.8001 20.0657 18.7238L17.1277 17.508L16.9 17.4135L16.6866 17.5368L14.4518 18.8268L14.2384 18.95L14.2062 19.1944L13.79 22.347C12.6054 22.551 11.3946 22.551 10.21 22.347L9.79369 19.1948L9.76169 18.95L9.54829 18.8268L7.31349 17.5368L7.09999 17.4135L6.87219 17.5078L3.93419 18.7236C3.16515 17.7999 2.55975 16.7514 2.14419 15.6236L4.66599 13.687L4.86159 13.537V10.4631L4.66599 10.3131L2.14429 8.3766C2.55985 7.24877 3.16525 6.20032 3.93429 5.2766L6.87229 6.4924L7.09999 6.5865L7.31339 6.4632L9.54819 5.1732L9.76169 5.05L9.79389 4.8056L10.21 1.653C11.3946 1.44896 12.6054 1.44896 13.79 1.653L14.2063 4.8052L14.2385 5.0496L14.4519 5.1728L16.6867 6.4628L16.9001 6.5861L17.1279 6.4918L20.0659 5.276C20.8349 6.19972 21.4403 7.24817 21.8559 8.376L19.334 10.313L19.1384 10.463V13.5368L19.334 13.6868L21.8557 15.6238ZM12 8.5C11.3078 8.5 10.6311 8.70527 10.0555 9.08986C9.47993 9.47444 9.03132 10.0211 8.76642 10.6606C8.50151 11.3002 8.4322 12.0039 8.56725 12.6828C8.70229 13.3618 9.03564 13.9854 9.52512 14.4749C10.0146 14.9644 10.6382 15.2977 11.3172 15.4327C11.9961 15.5678 12.6998 15.4985 13.3394 15.2336C13.9789 14.9687 14.5256 14.5201 14.9101 13.9445C15.2947 13.3689 15.5 12.6922 15.5 12C15.4989 11.0721 15.1298 10.1824 14.4737 9.5263C13.8175 8.87015 12.9279 8.50106 12 8.5ZM12 15C11.4067 15 10.8266 14.8241 10.3333 14.4944C9.83994 14.1648 9.45542 13.6962 9.22835 13.1481C9.00129 12.5999 8.94188 11.9967 9.05764 11.4147C9.17339 10.8328 9.45912 10.2982 9.87867 9.87868C10.2982 9.45912 10.8328 9.1734 11.4147 9.05764C11.9967 8.94189 12.5999 9.0013 13.148 9.22836C13.6962 9.45543 14.1648 9.83994 14.4944 10.3333C14.824 10.8266 15 11.4067 15 12C14.9991 12.7954 14.6828 13.5579 14.1203 14.1204C13.5579 14.6828 12.7954 14.9991 12 15Z" fill="black"/>
</svg>
