<svg width="24" height="24" viewBox="0 0 24 24" fill="none" xmlns="http://www.w3.org/2000/svg">
<path d="M12 8.20003C11.2484 8.20003 10.5137 8.4229 9.88884 8.84045C9.26393 9.258 8.77688 9.85148 8.48926 10.5458C8.20165 11.2402 8.1264 12.0042 8.27302 12.7414C8.41965 13.4785 8.78156 14.1556 9.313 14.687C9.84444 15.2185 10.5215 15.5804 11.2587 15.727C11.9958 15.8736 12.7598 15.7984 13.4542 15.5108C14.1486 15.2232 14.742 14.7361 15.1596 14.1112C15.5771 13.4863 15.8 12.7516 15.8 12C15.7988 10.9926 15.3981 10.0267 14.6857 9.31431C13.9733 8.60193 13.0075 8.2012 12 8.20003ZM12 14.3C11.5451 14.3 11.1004 14.1651 10.7222 13.9124C10.344 13.6597 10.0492 13.3005 9.87508 12.8802C9.701 12.4599 9.65545 11.9975 9.7442 11.5513C9.83295 11.1052 10.052 10.6953 10.3737 10.3737C10.6953 10.052 11.1051 9.83297 11.5513 9.74423C11.9975 9.65548 12.4599 9.70103 12.8802 9.87511C13.3004 10.0492 13.6597 10.344 13.9124 10.7222C14.1651 11.1005 14.3 11.5451 14.3 12C14.2993 12.6098 14.0568 13.1944 13.6256 13.6256C13.1944 14.0568 12.6098 14.2993 12 14.3ZM20.2886 11.1567L22.6621 9.20263L22.4468 8.55183C21.973 7.12127 21.2118 5.80262 20.21 4.67683L19.7539 4.16503L16.875 5.24373L15.4136 4.40003L14.9082 1.36683L14.2368 1.22813C12.7612 0.923467 11.2388 0.923467 9.76321 1.22813L9.09181 1.36683L8.58641 4.40003L7.12501 5.24373L4.24611 4.16503L3.79001 4.67683C2.7882 5.80262 2.02702 7.12127 1.55321 8.55183L1.33791 9.20263L3.71141 11.1567V12.8433L1.33791 14.7974L1.55321 15.4482C2.02681 16.8789 2.7882 18.1975 3.79051 19.3228L4.24611 19.8345L7.12501 18.7563L8.58641 19.6L9.09181 22.6332L9.76321 22.7719C11.2388 23.0766 12.7612 23.0766 14.2368 22.7719L14.9082 22.6332L15.4136 19.6L16.875 18.7567L19.7539 19.8354L20.21 19.3236C21.2118 18.1978 21.973 16.8792 22.4468 15.4486L22.6621 14.7978L20.2886 12.8437V11.1567ZM20.9099 15.2978C20.5364 16.3043 19.996 17.2405 19.3113 18.0673L17.4013 17.3517L16.7384 17.1033L16.1251 17.4571L14.6638 18.3L14.0503 18.654L13.9341 19.3527L13.5986 21.3648C12.5404 21.5445 11.4596 21.5445 10.4014 21.3648L10.0659 19.3526L9.95001 18.6544L9.33621 18.3L7.87481 17.4567L7.26171 17.103L6.59891 17.3512L4.68891 18.0666C4.00403 17.2402 3.46348 16.3042 3.09001 15.2979L4.66471 14.0013L5.21131 13.5513V10.4487L4.66471 9.99873L3.09001 8.70213C3.46356 7.69575 4.00402 6.75951 4.68871 5.93273L6.59871 6.64833L7.26161 6.89663L7.87491 6.54283L9.33621 5.70003L9.94971 5.34603L10.0659 4.64733L10.4014 2.63513C11.4596 2.45553 12.5404 2.45553 13.5986 2.63513L13.9341 4.64733L14.0503 5.34603L14.6638 5.70003L16.1252 6.54323L16.7385 6.89703L17.4014 6.64873L19.3114 5.93313C19.9961 6.75974 20.5365 7.69586 20.91 8.70213L19.3352 9.99873L18.7886 10.4487V13.5513L19.3352 14.0013L20.9099 15.2978Z" fill="black"/>
</svg>
