<svg width="24" height="24" viewBox="0 0 24 24" fill="none" xmlns="http://www.w3.org/2000/svg">
<path d="M7.45655 16.5434C5.0275 14.1202 3.34457 11.051 2.60745 7.70002C2.41893 6.74037 2.59158 5.74491 3.09222 4.90479C3.59287 4.06466 4.38622 3.4391 5.31995 3.14822L6.95815 2.62422L9.45125 7.37742L6.87435 9.95432L6.61935 10.2093L6.78085 10.5317C8.22146 13.4302 10.5698 15.7785 13.4682 17.2191L13.7906 17.3806L14.0456 17.1256L16.6226 14.5487L21.3757 17.0418L20.8518 18.68C20.5609 19.6137 19.9353 20.4071 19.0952 20.9077C18.2551 21.4084 17.2596 21.581 16.2999 21.3925C12.9491 20.6553 9.88008 18.9724 7.45695 16.5434H7.45655ZM7.10335 16.897C9.59314 19.3947 12.748 21.1246 16.1925 21.8809C17.2742 22.0998 18.3986 21.909 19.3476 21.3457C20.2965 20.7824 21.0025 19.8867 21.3284 18.8323L21.9804 16.7941L16.5294 13.9351L13.6921 16.772C10.8901 15.3799 8.62009 13.1098 7.22795 10.3078L10.0648 7.47092L7.20585 2.02002L5.16765 2.67202C4.11329 2.99792 3.21758 3.70383 2.65427 4.6528C2.09096 5.60178 1.90022 6.72616 2.11905 7.80782C2.87542 11.2524 4.60531 14.4072 7.10295 16.897H7.10335Z" fill="black"/>
</svg>
