<svg width="24" height="24" viewBox="0 0 24 24" fill="none" xmlns="http://www.w3.org/2000/svg">
<path d="M21.6767 21.3231L15.8251 15.4716C17.2666 13.9374 18.047 11.8977 17.9978 9.7931C17.9486 7.68845 17.0737 5.68755 15.5621 4.22231C14.0504 2.75708 12.0232 1.94502 9.91808 1.96143C7.81292 1.97783 5.79863 2.82139 4.31001 4.31001C2.82139 5.79863 1.97783 7.81292 1.96143 9.91808C1.94502 12.0232 2.75708 14.0504 4.22231 15.5621C5.68755 17.0737 7.68845 17.9486 9.7931 17.9978C11.8977 18.047 13.9374 17.2666 15.4716 15.8251L21.3231 21.6767L21.6767 21.3231ZM9.99995 17.4999C8.51659 17.4999 7.06654 17.0601 5.83317 16.236C4.5998 15.4119 3.63851 14.2405 3.07085 12.8701C2.5032 11.4996 2.35467 9.99163 2.64406 8.53677C2.93345 7.08191 3.64775 5.74554 4.69665 4.69665C5.74554 3.64775 7.08191 2.93345 8.53677 2.64406C9.99163 2.35467 11.4996 2.5032 12.8701 3.07085C14.2405 3.63851 15.4119 4.5998 16.236 5.83317C17.0601 7.06654 17.4999 8.51659 17.4999 9.99995C17.4977 11.9884 16.7068 13.8947 15.3008 15.3008C13.8947 16.7068 11.9884 17.4977 9.99995 17.4999Z" fill="black"/>
</svg>
