<svg width="24" height="24" viewBox="0 0 24 24" fill="none" xmlns="http://www.w3.org/2000/svg">
<path d="M16.6685 3.5C20.0061 3.5 21.5 6.1647 21.5 8.8055C21.5 12.9512 15.9336 18.6669 12 21.3948C8.0664 18.6669 2.5 12.9512 2.5 8.8055C2.5 6.1647 3.994 3.5 7.3316 3.5C8.1906 3.5424 9.02683 3.79062 9.76984 4.22377C10.5128 4.65692 11.1409 5.26229 11.601 5.9889L12 6.517L12.399 5.9889C12.8592 5.26229 13.4872 4.65692 14.2302 4.22377C14.9732 3.79063 15.8095 3.5424 16.6685 3.5ZM16.6685 3C15.7327 3.04457 14.8211 3.31163 14.0092 3.77903C13.1972 4.24642 12.5085 4.90067 12 5.6875C11.4915 4.90068 10.8028 4.24644 9.99089 3.77905C9.17899 3.31166 8.26736 3.04459 7.3316 3C3.9564 3 2 5.5992 2 8.8055C2 13.5555 8.4583 19.6251 12 22C15.5417 19.6251 22 13.5555 22 8.8055C22 5.5992 20.0436 3 16.6685 3Z" fill="black"/>
</svg>
