<svg width="24" height="24" viewBox="0 0 24 24" fill="none" xmlns="http://www.w3.org/2000/svg">
<path d="M19.5 4H4.5C3.83696 4 3.20107 4.26339 2.73223 4.73223C2.26339 5.20107 2 5.83696 2 6.5V17.5C2 18.163 2.26339 18.7989 2.73223 19.2678C3.20107 19.7366 3.83696 20 4.5 20H19.5C20.163 20 20.7989 19.7366 21.2678 19.2678C21.7366 18.7989 22 18.163 22 17.5V6.5C22 5.83696 21.7366 5.20107 21.2678 4.73223C20.7989 4.26339 20.163 4 19.5 4ZM21.5 17.5C21.4994 18.0302 21.2885 18.5386 20.9135 18.9135C20.5386 19.2885 20.0302 19.4994 19.5 19.5H4.5C3.96975 19.4994 3.4614 19.2885 3.08646 18.9135C2.71152 18.5386 2.50061 18.0302 2.5 17.5V11.5H21.5V17.5ZM21.5 11H2.5V8.5H21.5V11ZM2.5 8V6.5C2.50061 5.96975 2.71152 5.4614 3.08646 5.08646C3.4614 4.71152 3.96975 4.50061 4.5 4.5H19.5C20.0302 4.50061 20.5386 4.71152 20.9135 5.08646C21.2885 5.4614 21.4994 5.96975 21.5 6.5V8H2.5Z" fill="black"/>
</svg>
