<svg width="24" height="24" viewBox="0 0 24 24" fill="none" xmlns="http://www.w3.org/2000/svg">
<path d="M16.6685 4.5C19.4966 4.5 20.5 6.8194 20.5 8.8055C20.5 12.2595 15.8058 17.359 12 20.1655C8.1943 17.359 3.5 12.26 3.5 8.8055C3.5 6.8194 4.5035 4.5 7.3316 4.5C8.03487 4.54746 8.71668 4.76197 9.32044 5.12574C9.92419 5.4895 10.4325 5.99203 10.8031 6.5916L12 8.1761L13.1969 6.5916C13.5675 5.99202 14.0758 5.48948 14.6796 5.12572C15.2834 4.76195 15.9652 4.54744 16.6685 4.5ZM16.6685 3C15.7327 3.04457 14.8211 3.31163 14.0092 3.77903C13.1972 4.24642 12.5085 4.90067 12 5.6875C11.4915 4.90068 10.8028 4.24644 9.99089 3.77905C9.17899 3.31166 8.26736 3.04459 7.3316 3C3.9564 3 2 5.5992 2 8.8055C2 13.5555 8.4583 19.6251 12 22C15.5417 19.6251 22 13.5555 22 8.8055C22 5.5992 20.0436 3 16.6685 3Z" fill="black"/>
</svg>
