<svg width="24" height="24" viewBox="0 0 24 24" fill="none" xmlns="http://www.w3.org/2000/svg">
<path d="M12 0.924316L3 4.48732V12.06C3.00293 13.9903 3.51243 15.8861 4.47759 17.5578C5.44275 19.2295 6.82976 20.6186 8.5 21.5863L12 23.6064L15.5 21.5859C17.1702 20.6183 18.5572 19.2292 19.5223 17.5576C20.4875 15.8859 20.997 13.9903 21 12.06V4.48732L12 0.924316ZM20 12.06C19.9973 13.8148 19.5341 15.5382 18.6567 17.0579C17.7793 18.5775 16.5184 19.8403 15 20.72L12 22.4519L9 20.72C7.48161 19.8403 6.2207 18.5776 5.34328 17.0579C4.46586 15.5382 4.00267 13.8148 4 12.06V5.16692L12 2.00002L20 5.16712V12.06ZM9.0186 10.3685L8.3115 11.0755L11.3975 14.1614L15.876 9.68392L15.1689 8.97692L11.3975 12.7474L9.0186 10.3685Z" fill="black"/>
</svg>
