<svg width="24" height="24" viewBox="0 0 24 24" fill="none" xmlns="http://www.w3.org/2000/svg">
<path d="M12 2C10.0222 2 8.08879 2.58649 6.4443 3.6853C4.79981 4.78412 3.51809 6.3459 2.76121 8.17317C2.00433 10.0004 1.8063 12.0111 2.19215 13.9509C2.578 15.8907 3.53041 17.6725 4.92894 19.0711C6.32746 20.4696 8.10929 21.422 10.0491 21.8079C11.9889 22.1937 13.9996 21.9957 15.8268 21.2388C17.6541 20.4819 19.2159 19.2002 20.3147 17.5557C21.4135 15.9112 22 13.9778 22 12C22 10.6868 21.7413 9.38642 21.2388 8.17317C20.7363 6.95991 19.9997 5.85752 19.0711 4.92893C18.1425 4.00035 17.0401 3.26375 15.8268 2.7612C14.6136 2.25866 13.3132 2 12 2ZM20.05 8H16.3521C16.0632 6.3058 15.379 4.70355 14.3551 3.3232C15.5799 3.65826 16.7203 4.248 17.7016 5.0539C18.6829 5.85979 19.4832 6.8637 20.05 8ZM15.75 12C15.7513 13.0044 15.6752 14.0073 15.5222 15H8.4778C8.17407 13.0115 8.17407 10.9885 8.4778 9H15.5222C15.6752 9.99265 15.7513 10.9956 15.75 12ZM12 21C10.72 21 9.3373 19.0671 8.6655 16H15.3345C14.6627 19.0671 13.2806 21 12 21ZM8.6655 8C9.3373 4.9329 10.72 3 12 3C13.28 3 14.6627 4.9329 15.3345 8H8.6655ZM9.6449 3.3232C8.62103 4.70357 7.93687 6.30581 7.6479 8H3.95C4.51686 6.86372 5.3171 5.85983 6.29843 5.05394C7.27976 4.24805 8.42009 3.65829 9.6449 3.3232ZM3.5251 9H7.4681C7.1773 10.9894 7.1773 13.0106 7.4681 15H3.5251C2.82497 13.0613 2.82497 10.9387 3.5251 9ZM3.95 16H7.6479C7.9368 17.6942 8.62096 19.2964 9.6449 20.6767C8.42009 20.3416 7.27976 19.7519 6.29843 18.946C5.3171 18.1401 4.51686 17.1363 3.95 16ZM14.3555 20.6767C15.3793 19.2964 16.0633 17.6941 16.3521 16H20.05C19.4831 17.1363 18.6829 18.1401 17.7016 18.946C16.7202 19.7519 15.5799 20.3416 14.3551 20.6767H14.3555ZM20.4749 15H16.5319C16.6784 14.0067 16.7513 13.004 16.75 12C16.7513 10.996 16.6784 9.99327 16.5319 9H20.475C21.1751 10.9387 21.1751 13.0613 20.475 15H20.4749Z" fill="black"/>
</svg>
