<svg width="24" height="24" viewBox="0 0 24 24" fill="none" xmlns="http://www.w3.org/2000/svg">
<path d="M22 16.1387L20.874 15.0063C20.5961 14.7287 20.3757 14.3988 20.2257 14.0357C20.0758 13.6726 19.999 13.2835 20 12.8906V9C20 6.87827 19.1571 4.84344 17.6569 3.34315C16.1566 1.84285 14.1217 1 12 1C9.87827 1 7.84344 1.84285 6.34315 3.34315C4.84285 4.84344 4 6.87827 4 9V12.8906C4.00094 13.2835 3.92421 13.6728 3.77422 14.0359C3.62423 14.3991 3.40393 14.729 3.126 15.0068L2 16.1387V20H8.145C8.36229 20.8576 8.85936 21.6183 9.55758 22.1617C10.2558 22.7051 11.1153 23.0001 12 23.0001C12.8847 23.0001 13.7442 22.7051 14.4424 22.1617C15.1406 21.6183 15.6377 20.8576 15.855 20H22V16.1387ZM12 21.5C11.5147 21.4988 11.0403 21.3563 10.6346 21.09C10.229 20.8236 9.90973 20.4449 9.7158 20H14.2842C14.0903 20.4449 13.771 20.8236 13.3654 21.09C12.9597 21.3563 12.4853 21.4988 12 21.5ZM20.5 18.5H3.5V16.7577L4.1895 16.0647C4.60629 15.6481 4.93664 15.1532 5.16154 14.6084C5.38644 14.0637 5.50146 13.4799 5.5 12.8906V9C5.5 7.27609 6.18482 5.62279 7.40381 4.40381C8.62279 3.18482 10.2761 2.5 12 2.5C13.7239 2.5 15.3772 3.18482 16.5962 4.40381C17.8152 5.62279 18.5 7.27609 18.5 9V12.8906C18.4985 13.4798 18.6135 14.0635 18.8384 14.6081C19.0633 15.1528 19.3937 15.6475 19.8105 16.064L20.5 16.7575V18.5Z" fill="black"/>
</svg>
