<svg width="24" height="24" viewBox="0 0 24 24" fill="none" xmlns="http://www.w3.org/2000/svg">
<path d="M20.3765 4.98256L19.0174 3.62346C18.8281 3.43412 18.6033 3.28392 18.3559 3.18146C18.1085 3.07899 17.8434 3.02625 17.5756 3.02625C17.3079 3.02625 17.0428 3.07899 16.7954 3.18146C16.548 3.28392 16.3232 3.43412 16.1339 3.62346L3 16.7574V21H7.2427L20.3765 7.86606C20.7589 7.48367 20.9737 6.96506 20.9737 6.4243C20.9737 5.88355 20.7589 5.36494 20.3765 4.98256ZM7.0356 20.5H3.5V16.9645L14.0555 6.40896L17.591 9.94446L7.0356 20.5ZM20.0229 7.51256L17.9445 9.59095L14.409 6.05546L16.4874 3.97706C16.6303 3.83413 16.7999 3.72076 16.9867 3.64341C17.1734 3.56606 17.3735 3.52625 17.5756 3.52625C17.7777 3.52625 17.9778 3.56606 18.1645 3.64341C18.3513 3.72076 18.5209 3.83413 18.6638 3.97706L20.0229 5.33616C20.3111 5.625 20.4729 6.01635 20.4729 6.42436C20.4729 6.83236 20.3111 7.22371 20.0229 7.51256Z" fill="black"/>
</svg>
