<svg width="24" height="24" viewBox="0 0 24 24" fill="none" xmlns="http://www.w3.org/2000/svg">
<g clip-path="url(#clip0)">
<path d="M12 0C9.61561 0.0027525 7.32963 0.951184 5.64358 2.63723C3.95753 4.32328 3.0091 6.60927 3.00635 8.9937C3.00635 15.7563 10.9912 23.021 11.3311 23.3267L12 23.9287L12.6689 23.3267C13.0089 23.021 20.9941 15.7567 20.9941 8.9937C20.9913 6.60922 20.0428 4.32322 18.3567 2.63718C16.6706 0.951136 14.3845 0.00272589 12 0V0ZM12 12C11.4067 12 10.8267 11.8241 10.3333 11.4944C9.83999 11.1648 9.45547 10.6962 9.22841 10.1481C9.00135 9.59987 8.94194 8.99667 9.05769 8.41473C9.17345 7.83279 9.45917 7.29824 9.87873 6.87868C10.2983 6.45912 10.8328 6.1734 11.4148 6.05764C11.9967 5.94189 12.5999 6.0013 13.1481 6.22836C13.6963 6.45542 14.1648 6.83994 14.4945 7.33329C14.8241 7.82664 15 8.40666 15 9C15 9.79565 14.684 10.5587 14.1214 11.1213C13.5588 11.6839 12.7957 12 12 12Z" fill="black"/>
</g>
<defs>
<clipPath id="clip0">
<rect width="24" height="24" fill="white"/>
</clipPath>
</defs>
</svg>
