<svg width="24" height="24" viewBox="0 0 24 24" fill="none" xmlns="http://www.w3.org/2000/svg">
<path d="M6.3785 7.72166L7.05 7.04996C7.90743 6.19303 8.97263 5.57337 10.1414 5.2516C11.3101 4.92983 12.5424 4.91699 13.7176 5.21432C14.8928 5.51165 15.9707 6.10896 16.8458 6.94783C17.7209 7.7867 18.3633 8.83837 18.71 9.99996H20.77C20.4133 8.43169 19.6426 6.98773 18.5383 5.81847C17.434 4.6492 16.0364 3.79739 14.491 3.35174C12.9457 2.90609 11.3091 2.8829 9.75175 3.28459C8.19439 3.68628 6.77321 4.49815 5.6362 5.63566L4.9642 6.30736L3 4.34306V9.99996H8.6569L6.3785 7.72166ZM15.3431 14L17.5731 16.23C17.3817 16.4837 17.1734 16.7243 16.9496 16.95C16.0922 17.8068 15.027 18.4264 13.8583 18.7481C12.6896 19.0698 11.4574 19.0826 10.2823 18.7853C9.10712 18.488 8.02928 17.8907 7.1542 17.0519C6.27913 16.2131 5.63678 15.1615 5.29 14H3.23C3.57886 15.664 4.39638 17.1935 5.58612 18.4081C6.77586 19.6226 8.28818 20.4716 9.94464 20.8547C11.6011 21.2379 13.3326 21.1392 14.9348 20.5704C16.5371 20.0017 17.9432 18.9865 18.9873 17.6447L21 19.6569V14H15.3431Z" fill="black"/>
</svg>
