<svg width="24" height="24" viewBox="0 0 24 24" fill="none" xmlns="http://www.w3.org/2000/svg">
<path d="M9.95743 12.8092C9.66076 12.8092 9.37075 12.8972 9.12407 13.062C8.8774 13.2269 8.68514 13.4611 8.57161 13.7352C8.45808 14.0093 8.42837 14.3109 8.48625 14.6019C8.54413 14.8928 8.68699 15.1601 8.89677 15.3699C9.10655 15.5797 9.37382 15.7225 9.66479 15.7804C9.95576 15.8383 10.2574 15.8086 10.5315 15.6951C10.8055 15.5815 11.0398 15.3893 11.2046 15.1426C11.3695 14.8959 11.4574 14.6059 11.4574 14.3092C11.4574 13.9114 11.2994 13.5299 11.0181 13.2486C10.7368 12.9673 10.3553 12.8092 9.95743 12.8092ZM9.95743 14.9592C9.82887 14.9592 9.7032 14.9211 9.59631 14.8497C9.48942 14.7783 9.4061 14.6768 9.35691 14.558C9.30771 14.4392 9.29484 14.3085 9.31992 14.1824C9.345 14.0563 9.40691 13.9405 9.49781 13.8496C9.58871 13.7587 9.70453 13.6968 9.83062 13.6717C9.95671 13.6466 10.0874 13.6595 10.2062 13.7087C10.3249 13.7579 10.4265 13.8412 10.4979 13.9481C10.5693 14.055 10.6074 14.1807 10.6074 14.3092C10.6072 14.4816 10.5387 14.6468 10.4168 14.7686C10.295 14.8905 10.1298 14.959 9.95743 14.9592ZM14.8865 15.3153C14.9611 14.9692 14.9991 14.6161 15 14.262V13.3153C15 13.0501 15.1054 12.7958 15.2929 12.6082C15.4805 12.4207 15.7348 12.3153 16 12.3153H20V10.3888C19.9998 8.00248 19.0519 5.7139 17.3646 4.02639C15.6772 2.33888 13.3888 1.39061 11.0024 1.39014H10.9269C8.5606 1.41014 6.29733 2.36116 4.62694 4.03737C2.95654 5.71359 2.0134 7.98015 2.00163 10.3465C2.00083 10.5198 2.00053 10.6771 2.00063 10.8154C2.00179 12.1667 2.29405 13.5019 2.85753 14.7301L3.73173 14.9849C4.08773 15.0887 4.41739 15.2675 4.69854 15.5093C4.9797 15.7511 5.20583 16.0503 5.36173 16.3867C5.71284 17.1508 6.24995 17.8146 6.92392 18.3174C7.59789 18.8202 8.38719 19.146 9.2196 19.2649C10.052 19.3838 10.901 19.2921 11.6888 18.9981C12.4765 18.7041 13.178 18.2172 13.729 17.582L16.4178 22.239L22 22.3153V15.3153H14.8865ZM14 14.262C14 15.1855 13.6847 16.0812 13.1063 16.801C12.5278 17.5208 11.721 18.0215 10.8192 18.2203C9.91742 18.4191 8.9748 18.304 8.14734 17.8941C7.31988 17.4842 6.65719 16.8041 6.26893 15.9662C6.05307 15.5003 5.73994 15.0859 5.35061 14.7511C4.96127 14.4162 4.50474 14.1686 4.01173 14.0248L3.59173 13.9023C3.20144 12.9196 3.001 11.8717 3.00103 10.8142L3.00203 10.3509C3.01968 8.24982 3.8603 6.23936 5.34348 4.75102C6.82666 3.26268 8.83419 2.41508 10.9352 2.39014H11.0024C13.1229 2.39273 15.1558 3.23632 16.6551 4.73583C18.1544 6.23535 18.9977 8.26835 19 10.3888V11.3153H16C15.4698 11.3159 14.9614 11.5269 14.5865 11.9018C14.2115 12.2767 14.0006 12.7851 14 13.3153V14.262ZM21.05 21.352L16.9705 21.2962L15.8121 19.2901H21.05V21.352ZM21.05 18.3405H15.264L14.3325 16.727C14.4241 16.5776 14.5077 16.4235 14.5831 16.2652H21.05V18.3405Z" fill="black"/>
</svg>
