<svg width="24" height="24" viewBox="0 0 24 24" fill="none" xmlns="http://www.w3.org/2000/svg">
<path d="M22 5H19V3H5V5H2C1.73478 5 1.48043 5.10536 1.29289 5.29289C1.10536 5.48043 1 5.73478 1 6V8C1.00193 9.19777 1.43499 10.3548 2.21997 11.2595C3.00494 12.1642 4.08937 12.7561 5.2749 12.9269C5.647 14.2222 6.3852 15.3824 7.4008 16.2683C8.41641 17.1541 9.6662 17.7278 11 17.9205V18.4384C10.9999 18.8844 10.8508 19.3175 10.5763 19.669C10.3019 20.0205 9.91776 20.2702 9.4851 20.3784L7 21V22H17V21L14.515 20.3787C14.0823 20.2705 13.6981 20.0208 13.4236 19.6693C13.1491 19.3177 13 18.8844 13 18.4384V17.9205C14.3338 17.7278 15.5836 17.1541 16.5992 16.2683C17.6148 15.3824 18.353 14.2222 18.7251 12.9269C19.9106 12.7561 20.9951 12.1642 21.78 11.2595C22.565 10.3548 22.9981 9.19777 23 8V6C23 5.73478 22.8946 5.48043 22.7071 5.29289C22.5196 5.10536 22.2652 5 22 5ZM2 8V6H5V11C5.00196 11.2932 5.02223 11.5861 5.0607 11.8768C4.19009 11.6667 3.41521 11.1704 2.86025 10.4674C2.30528 9.7645 2.00235 8.89561 2 8ZM22 8C21.9977 8.89561 21.6947 9.76451 21.1398 10.4675C20.5848 11.1704 19.8099 11.6667 18.9393 11.8768C18.9778 11.5861 18.998 11.2932 19 11V6H22V8Z" fill="black"/>
</svg>
