<svg width="24" height="24" viewBox="0 0 24 24" fill="none" xmlns="http://www.w3.org/2000/svg">
<path d="M6.88387 6.88399C10.4729 3.29499 15.0849 1.84759 18.135 3.07339C15.7742 3.34339 12.1679 5.48669 8.82727 8.82739C5.48667 12.1681 3.34297 15.7743 3.07327 18.1351C1.84747 15.0849 3.29487 10.473 6.88387 6.88399ZM17.1161 17.1162C13.5271 20.7052 8.91517 22.1526 5.86497 20.9268C8.22577 20.6568 11.8321 18.5135 15.1728 15.1729C18.5135 11.8323 20.657 8.22589 20.9267 5.86509C22.1525 8.91529 20.7051 13.5272 17.1161 17.1162ZM14.4261 14.4262C10.5161 18.3362 5.54527 21.2762 4.13477 19.8655C2.72427 18.4548 5.66477 13.4837 9.57407 9.57409C13.4834 5.66449 18.455 2.72409 19.8655 4.13469C21.276 5.54529 18.3356 10.5166 14.426 14.4262H14.4261ZM6.13717 6.13729C1.40717 10.8679 0.196573 17.3273 3.43457 20.5656C6.67257 23.8039 13.1323 22.5935 17.8628 17.8629C22.5933 13.1323 23.8034 6.67289 20.5655 3.43459C17.3276 0.196288 10.8678 1.40669 6.13717 6.13729Z" fill="black"/>
</svg>
