<svg width="24" height="24" viewBox="0 0 24 24" fill="none" xmlns="http://www.w3.org/2000/svg">
<path d="M16 2H10C8.93913 2 7.92172 2.42143 7.17157 3.17157C6.42143 3.92172 6 4.93913 6 6C6 6.0264 6.0073 6.0507 6.0077 6.077C5.44253 6.19155 4.93418 6.49755 4.56843 6.94338C4.20267 7.3892 4.0019 7.94755 4 8.5242V9.6863C4 11.808 4.84284 13.8428 6.3431 15.3431L8 17V22H18V17C19.2806 15.7194 20 13.9826 20 12.1716V6C20 4.93913 19.5786 3.92172 18.8284 3.17157C18.0783 2.42143 17.0609 2 16 2ZM10 2.5H16C16.9279 2.50106 17.8176 2.87015 18.4737 3.5263C19.1299 4.18244 19.4989 5.07207 19.5 6C19.5 7.0557 19.2476 10.5 16 10.5H11C9.80694 10.4987 8.66313 10.0241 7.81951 9.18049C6.97589 8.33687 6.50135 7.19306 6.5 6C6.50106 5.07207 6.87015 4.18244 7.5263 3.5263C8.18244 2.87015 9.07207 2.50106 10 2.5ZM17.5 21.5H8.5V17.25H17.5V21.5ZM19.5 12.1716C19.5023 13.003 19.3396 13.8266 19.0215 14.5947C18.7033 15.3628 18.236 16.0601 17.6465 16.6464L17.5429 16.75H8.4571L8.3536 16.6464L6.6967 14.99C5.99803 14.2951 5.44413 13.4686 5.06706 12.5582C4.69 11.6478 4.49726 10.6717 4.5 9.6863V8.5242C4.50187 8.07101 4.65671 7.63172 4.93943 7.27753C5.22216 6.92333 5.61619 6.67497 6.0577 6.5727C6.19421 7.78875 6.77338 8.91206 7.68484 9.72854C8.5963 10.545 9.77632 10.9976 11 11H16C16.7521 11.0313 17.4949 10.8251 18.1232 10.4104C18.7514 9.99578 19.2331 9.39384 19.5 8.69V12.1716Z" fill="black"/>
</svg>
