<svg width="24" height="24" viewBox="0 0 24 24" fill="none" xmlns="http://www.w3.org/2000/svg">
<path d="M8 5C8 4.40666 7.82405 3.82664 7.49441 3.33329C7.16477 2.83994 6.69623 2.45543 6.14805 2.22836C5.59987 2.0013 4.99667 1.94189 4.41473 2.05765C3.83279 2.1734 3.29824 2.45912 2.87868 2.87868C2.45912 3.29824 2.1734 3.83279 2.05765 4.41473C1.94189 4.99667 2.0013 5.59987 2.22836 6.14805C2.45543 6.69623 2.83994 7.16477 3.33329 7.49441C3.82664 7.82405 4.40666 8 5 8C5.79565 8 6.55871 7.68393 7.12132 7.12132C7.68393 6.55871 8 5.79565 8 5ZM5 7.5C4.50555 7.5 4.0222 7.35338 3.61108 7.07868C3.19995 6.80397 2.87952 6.41353 2.6903 5.95671C2.50108 5.49989 2.45158 4.99723 2.54804 4.51228C2.6445 4.02732 2.8826 3.58187 3.23223 3.23223C3.58187 2.8826 4.02732 2.6445 4.51228 2.54804C4.99723 2.45158 5.49989 2.50108 5.95671 2.6903C6.41353 2.87952 6.80397 3.19995 7.07868 3.61108C7.35338 4.0222 7.5 4.50555 7.5 5C7.49926 5.66282 7.23563 6.29827 6.76695 6.76695C6.29827 7.23563 5.66282 7.49926 5 7.5ZM20.0732 7.2924C19.535 6.72791 18.8883 6.27794 18.172 5.96947C17.4556 5.66101 16.6843 5.50041 15.9044 5.4973C13.7645 5.59876 11.7508 6.53967 10.3 8.116C9.4252 8.89998 8.78624 9.91228 8.45484 11.0393C8.12344 12.1662 8.11273 13.3633 8.4239 14.496C8.63291 15.1875 8.65087 15.9227 8.47589 16.6236C8.30091 17.3246 7.9395 17.965 7.43 18.4772L5.0257 20.8815L6.4839 22.34L8.8881 19.9359C9.25856 19.5661 9.69833 19.273 10.1822 19.0734C10.6661 18.8737 11.1846 18.7715 11.7081 18.7726C12.1013 18.7729 12.4924 18.8301 12.8692 18.9426C13.4103 19.1045 13.972 19.1868 14.5367 19.1872C15.4241 19.1659 16.2983 18.9673 17.1077 18.603C17.9172 18.2387 18.6456 17.7161 19.25 17.066C22.176 14.14 22.926 10.1453 20.0732 7.2924ZM13.0118 18.4624C12.5887 18.3362 12.1495 18.272 11.708 18.2719C11.1187 18.2696 10.5348 18.3842 9.99004 18.609C9.44531 18.8339 8.95058 19.1646 8.5345 19.5819L6.4839 21.6326L5.7328 20.8815L7.7836 18.8307C8.35668 18.2548 8.76328 17.5346 8.96032 16.7464C9.15735 15.9582 9.13748 15.1314 8.9028 14.3536C8.7817 13.9349 8.71291 13.5027 8.698 13.0671L14.3006 18.6693C13.8642 18.6533 13.4314 18.584 13.0118 18.4628V18.4624ZM18.8961 16.7124C17.8707 17.805 16.4892 18.496 15 18.6613L8.7148 12.3769C8.87811 10.8862 9.56503 9.50177 10.6533 8.47C12.0086 6.98488 13.8963 6.09616 15.9044 5.9978C16.6184 6.00295 17.324 6.15149 17.9795 6.4346C18.6349 6.71772 19.2268 7.12963 19.72 7.6459C22.5668 10.4931 21.3575 14.2511 18.8961 16.7124Z" fill="black"/>
</svg>
