<svg width="24" height="24" viewBox="0 0 24 24" fill="none" xmlns="http://www.w3.org/2000/svg">
<path d="M18.2261 2.05907C14.7942 0.845168 9.91318 2.36127 6.13718 6.13727C2.36118 9.91327 0.845182 14.7943 2.05908 18.2261C2.36628 15.4959 4.58598 11.6146 8.09998 8.10007C11.614 4.58557 15.4958 2.36637 18.2261 2.05907ZM5.77378 21.9409C9.20558 23.1549 14.0868 21.6389 17.8628 17.8629C21.6388 14.0869 23.1548 9.20567 21.9409 5.77377C21.6337 8.50397 19.414 12.3854 15.9 15.9001C12.386 19.4148 8.50398 21.6337 5.77378 21.9409ZM14.7827 14.7828C19.5133 10.0522 22.1027 4.97147 20.5654 3.43457C19.0281 1.89767 13.9478 4.48667 9.21718 9.21727C4.48658 13.9479 1.89768 19.0286 3.43448 20.5655C4.97128 22.1024 10.0522 19.5134 14.7827 14.7828Z" fill="black"/>
</svg>
