<svg width="24" height="24" viewBox="0 0 24 24" fill="none" xmlns="http://www.w3.org/2000/svg">
<path d="M7.67731 7.67728C10.4906 4.86388 13.8654 3.35728 16.4658 3.49668C13.6281 4.80837 11.0629 6.64297 8.90451 8.90448C6.643 11.0629 4.80841 13.6281 3.49671 16.4658C3.35761 13.8654 4.86391 10.4906 7.67731 7.67728ZM16.3227 16.3227C13.5094 19.1361 10.1346 20.6427 7.53421 20.5033C10.3719 19.1916 12.9371 17.357 15.0955 15.0955C17.357 12.9371 19.1916 10.3719 20.5033 7.53418C20.6424 10.1346 19.1361 13.5094 16.3227 16.3227ZM13.5554 13.5554C9.59821 17.5126 5.69381 20.0242 4.83481 19.1654C3.97581 18.3066 6.48741 14.402 10.4448 10.4448C14.4022 6.48758 18.3064 3.97598 19.1654 4.83478C20.0244 5.69358 17.5126 9.59818 13.5554 13.5554ZM6.13721 6.13718C1.40661 10.8678 0.196611 17.3275 3.43461 20.5654C6.67261 23.8033 13.1322 22.5934 17.8628 17.8628C22.5934 13.1322 23.8034 6.67278 20.5654 3.43458C17.3274 0.196377 10.8678 1.40658 6.13721 6.13718Z" fill="black"/>
</svg>
