<svg width="24" height="24" viewBox="0 0 24 24" fill="none" xmlns="http://www.w3.org/2000/svg">
<path d="M12 2C10.0222 2 8.08879 2.58649 6.4443 3.6853C4.79981 4.78412 3.51809 6.3459 2.76121 8.17317C2.00433 10.0004 1.8063 12.0111 2.19215 13.9509C2.578 15.8907 3.53041 17.6725 4.92894 19.0711C6.32746 20.4696 8.10929 21.422 10.0491 21.8079C11.9889 22.1937 13.9996 21.9957 15.8268 21.2388C17.6541 20.4819 19.2159 19.2002 20.3147 17.5557C21.4135 15.9112 22 13.9778 22 12C22 10.6868 21.7413 9.38642 21.2388 8.17317C20.7363 6.95991 19.9997 5.85752 19.0711 4.92893C18.1425 4.00035 17.0401 3.26375 15.8268 2.7612C14.6136 2.25866 13.3132 2 12 2ZM21.4916 11.8334L18.7178 9.8174L19.776 6.5593C20.8632 8.10581 21.4609 9.94321 21.4916 11.8334ZM12 2.5C12.9425 2.49984 13.8797 2.64046 14.7806 2.9172L12 4.9375L9.2194 2.9175C10.1203 2.64065 11.0575 2.49993 12 2.5ZM4.224 6.5593L5.2822 9.8174L2.5084 11.8334C2.5391 9.94321 3.13679 8.10581 4.224 6.5593ZM4.4285 17.7139H7.8485L8.908 20.9732C7.12493 20.3545 5.56583 19.2201 4.4285 17.7139ZM15.0919 20.9732L16.1514 17.7139H19.5714C18.4341 19.2201 16.875 20.3545 15.0919 20.9732ZM19.9326 17.2139H15.7881L14.5081 21.153C12.8677 21.6157 11.1313 21.6157 9.4909 21.153L8.2109 17.2139H4.0674C3.13103 15.7914 2.59712 14.142 2.5223 12.4406L5.87 10.0088L4.59 6.07C5.65584 4.74191 7.05806 3.72367 8.6508 3.1212L12 5.5547L15.3492 3.1212C16.9419 3.72367 18.3442 4.74191 19.41 6.07L18.13 10.0084L21.4778 12.4402C21.403 14.1417 20.8691 15.7913 19.9326 17.2139ZM8.4887 10.8591L9.83 14.9869H14.17L15.5112 10.8591L12 8.308L8.4887 10.8591ZM13.8068 14.4869H10.1932L9.0765 11.05L12 8.926L14.9235 11.05L13.8068 14.4869Z" fill="black"/>
</svg>
