<svg width="24" height="24" viewBox="0 0 24 24" fill="none" xmlns="http://www.w3.org/2000/svg">
<path d="M7.5 18.5176V10.55L16 6.5L6.5555 2V2.1111L6.5 2V18.5176C3.9769 18.6067 2 19.3434 2 20.25C2 21.2165 4.2386 22 7 22C9.7614 22 12 21.2165 12 20.25C12 19.3434 10.0231 18.6067 7.5 18.5176ZM7.5555 3.5842L13.6752 6.5L7.5552 9.4158L7.5555 3.5842ZM6.5 20.9868C5.33837 21.006 4.18831 20.7537 3.1414 20.25C4.18831 19.7463 5.33837 19.494 6.5 19.5132V20.9868ZM7.5 20.9868V19.5132C8.66163 19.494 9.8117 19.7463 10.8586 20.25C9.8117 20.7537 8.66163 21.006 7.5 20.9868ZM19 15C18.4067 15 17.8266 15.1759 17.3333 15.5056C16.8399 15.8352 16.4554 16.3038 16.2284 16.8519C16.0013 17.4001 15.9419 18.0033 16.0576 18.5853C16.1734 19.1672 16.4591 19.7018 16.8787 20.1213C17.2982 20.5409 17.8328 20.8266 18.4147 20.9424C18.9967 21.0581 19.5999 20.9987 20.1481 20.7716C20.6962 20.5446 21.1648 20.1601 21.4944 19.6667C21.8241 19.1734 22 18.5933 22 18C22 17.2044 21.6839 16.4413 21.1213 15.8787C20.5587 15.3161 19.7956 15 19 15ZM19 20C18.6044 20 18.2178 19.8827 17.8889 19.6629C17.56 19.4432 17.3036 19.1308 17.1522 18.7654C17.0009 18.3999 16.9613 17.9978 17.0384 17.6098C17.1156 17.2219 17.3061 16.8655 17.5858 16.5858C17.8655 16.3061 18.2219 16.1156 18.6098 16.0384C18.9978 15.9613 19.3999 16.0009 19.7654 16.1522C20.1308 16.3036 20.4432 16.56 20.6629 16.8889C20.8827 17.2178 21 17.6044 21 18C20.9994 18.5302 20.7885 19.0386 20.4135 19.4135C20.0386 19.7885 19.5302 19.9994 19 20Z" fill="black"/>
</svg>
