<svg width="24" height="24" viewBox="0 0 24 24" fill="none" xmlns="http://www.w3.org/2000/svg">
<path d="M22 5H19V3H5V5H2C1.73478 5 1.48043 5.10536 1.29289 5.29289C1.10536 5.48043 1 5.73478 1 6V8C1.00221 9.26549 1.4856 10.4828 2.35217 11.405C3.21873 12.3273 4.40359 12.8855 5.6665 12.9664C6.12186 13.9385 6.79456 14.7929 7.63264 15.4636C8.47073 16.1344 9.45177 16.6035 10.5 16.8348V17.11C10.4999 17.556 10.3508 17.9891 10.0763 18.3406C9.80185 18.6922 9.41776 18.9418 8.9851 19.05L6.5 19.6719V22H17.5V19.6719L15.015 19.0506C14.5822 18.9424 14.198 18.6927 13.9235 18.341C13.649 17.9894 13.4999 17.5561 13.5 17.11V16.8345C14.5482 16.6032 15.5293 16.1341 16.3674 15.4633C17.2055 14.7926 17.8782 13.9382 18.3335 12.9661C19.5964 12.8852 20.7812 12.327 21.6477 11.4049C22.5143 10.4827 22.9977 9.26544 23 8V6C23 5.73478 22.8946 5.48043 22.7071 5.29289C22.5196 5.10536 22.2652 5 22 5ZM2 8V6H5V10C5.00154 10.6433 5.0919 11.2833 5.2685 11.9019C4.35381 11.7355 3.5262 11.2542 2.9292 10.5415C2.3322 9.82885 2.00346 8.92969 2 8ZM14.7724 20.0208L16.5 20.4526V21H7.5V20.4526L9.2277 20.0208C9.87717 19.8592 10.4538 19.4847 10.8657 18.9571C11.2775 18.4296 11.5008 17.7793 11.5 17.11V16.9744C11.6658 16.9862 11.8312 16.9997 12 16.9997C12.1688 16.9997 12.3342 16.9862 12.5 16.9744V17.11C12.4992 17.7793 12.7225 18.4296 13.1344 18.9572C13.5462 19.4847 14.1229 19.8592 14.7724 20.0208ZM12 16C10.4093 15.9982 8.88418 15.3655 7.75935 14.2407C6.63452 13.1158 6.0018 11.5907 6 10V4H18V10C17.9982 11.5907 17.3655 13.1158 16.2407 14.2407C15.1158 15.3655 13.5907 15.9982 12 16ZM22 8C21.9966 8.9297 21.6678 9.82887 21.0708 10.5416C20.4738 11.2543 19.6462 11.7355 18.7315 11.9019C18.9081 11.2833 18.9985 10.6433 19 10V6H22V8Z" fill="black"/>
</svg>
