<svg width="24" height="24" viewBox="0 0 24 24" fill="none" xmlns="http://www.w3.org/2000/svg">
<path d="M8 4.67774C8 4.08439 7.82405 3.50437 7.49441 3.01102C7.16477 2.51768 6.69623 2.13316 6.14805 1.9061C5.59987 1.67903 4.99667 1.61962 4.41473 1.73538C3.83279 1.85114 3.29824 2.13686 2.87868 2.55642C2.45912 2.97597 2.1734 3.51052 2.05765 4.09246C1.94189 4.67441 2.0013 5.27761 2.22836 5.82579C2.45543 6.37396 2.83994 6.8425 3.33329 7.17214C3.82664 7.50179 4.40666 7.67774 5 7.67774C5.79565 7.67774 6.55871 7.36167 7.12132 6.79906C7.68393 6.23645 8 5.47339 8 4.67774ZM8.5352 14.5115C8.74897 15.0505 8.80344 15.6396 8.69213 16.2086C8.58081 16.7777 8.30841 17.3028 7.9073 17.7215L5.043 20.5859L6.457 22L9.3193 19.1379C9.70307 18.7394 10.1947 18.4615 10.7341 18.3382C11.2734 18.2148 11.837 18.2514 12.3558 18.4435C13.0463 18.7225 13.7838 18.8666 14.5285 18.868C14.5604 18.868 14.5927 18.8636 14.6246 18.863L8.1956 12.4343C8.18229 13.1416 8.29735 13.8454 8.5352 14.5115ZM20.0732 6.97004C19.535 6.40552 18.8883 5.95554 18.1719 5.64709C17.4556 5.33864 16.6843 5.17808 15.9043 5.17504C13.7644 5.27656 11.7508 6.21746 10.3 7.79374C9.3439 8.7113 8.66478 9.87899 8.34 11.1637L15.88 18.7037C17.1647 18.3785 18.3324 17.6994 19.2505 16.7437C22.176 13.8174 22.926 9.82304 20.0732 6.97004Z" fill="black"/>
</svg>
