<svg width="24" height="24" viewBox="0 0 24 24" fill="none" xmlns="http://www.w3.org/2000/svg">
<path d="M6.5 7C8.433 7 10 6.1046 10 5C10 3.8954 8.433 3 6.5 3C4.567 3 3 3.8954 3 5C3 6.1046 4.567 7 6.5 7ZM6.5 10C8.433 10 10 9.1106 10 8.0137V7.1637C8.9744 7.87501 7.74754 8.23826 6.5 8.2C5.25242 8.23815 4.02555 7.87475 3 7.1633V8.0133C3 9.1106 4.5671 10 6.5 10ZM19.9062 4.25L10.9262 16.9889H3.2316L3.8682 21H9.0709C9.5522 21 10.0264 20.8842 10.4536 20.6624C10.8807 20.4406 11.2482 20.1192 11.525 19.7255L21.5893 5.4119L19.9062 4.25Z" fill="black"/>
</svg>
