<svg width="24" height="24" viewBox="0 0 24 24" fill="none" xmlns="http://www.w3.org/2000/svg">
<path d="M16 2H10C8.93913 2 7.92172 2.42143 7.17157 3.17157C6.42143 3.92172 6 4.93913 6 6C6 6.0186 6.0053 6.0358 6.0055 6.0544C5.43858 6.17347 4.92987 6.4839 4.56471 6.93361C4.19955 7.38331 4.00016 7.94491 4 8.5242V9.6863C4 11.808 4.84284 13.8428 6.3431 15.3431L8 17V22H18V17C19.2806 15.7194 20 13.9826 20 12.1716V6C20 4.93913 19.5786 3.92172 18.8284 3.17157C18.0783 2.42143 17.0609 2 16 2ZM10 4H16C16.5302 4.00061 17.0386 4.21152 17.4135 4.58646C17.7885 4.9614 17.9994 5.46975 18 6C18 7.9907 17.3271 9 16 9H11C10.2046 8.9991 9.44209 8.68274 8.87967 8.12033C8.31726 7.55791 8.0009 6.79537 8 6C8.00061 5.46975 8.21152 4.9614 8.58646 4.58646C8.9614 4.21152 9.46975 4.00061 10 4ZM16 20H10V18H16V20ZM16.5858 15.5858L16.1716 16H9.8284L9.4142 15.5858L7.7574 13.9289C7.19847 13.3731 6.75534 12.7119 6.45368 11.9837C6.15202 11.2554 5.99782 10.4746 6 9.6863V8.5242C6.00119 8.40259 6.04516 8.28527 6.12418 8.19283C6.20321 8.10038 6.31225 8.0387 6.4322 8.0186C6.82267 8.90481 7.46231 9.65843 8.27328 10.1877C9.08424 10.7171 10.0316 10.9993 11 11H16C16.7032 11.0111 17.3957 10.8264 18 10.4666V12.1716C18.0017 12.8059 17.8776 13.4343 17.6349 14.0204C17.3921 14.6064 17.0356 15.1385 16.5858 15.5858Z" fill="black"/>
</svg>
