<svg width="24" height="24" viewBox="0 0 24 24" fill="none" xmlns="http://www.w3.org/2000/svg">
<path d="M14.9946 14.3153C14.9946 14.2971 15 14.2803 15 14.262V12.3153C15 12.0501 15.1054 11.7958 15.2929 11.6082C15.4805 11.4207 15.7348 11.3153 16 11.3153H20V10.3888C19.9998 8.00248 19.0519 5.7139 17.3646 4.02639C15.6772 2.33888 13.3888 1.39061 11.0024 1.39014H10.9269C8.5606 1.41014 6.29733 2.36116 4.62694 4.03737C2.95654 5.71359 2.0134 7.98015 2.00163 10.3465C2.00083 10.5198 2.00053 10.6771 2.00063 10.8154C2.00179 12.1667 2.29405 13.5019 2.85753 14.7301L3.73173 14.9849C4.08773 15.0887 4.41739 15.2675 4.69854 15.5093C4.9797 15.7511 5.20583 16.0503 5.36173 16.3867C5.71284 17.1508 6.24995 17.8146 6.92392 18.3174C7.59789 18.8202 8.38719 19.146 9.2196 19.2649C10.052 19.3838 10.901 19.2921 11.6888 18.9981C12.4765 18.7041 13.178 18.2172 13.729 17.582L16.4178 22.239L22 22.3153V14.3153H14.9946ZM9.95743 15.8092C9.66076 15.8092 9.37075 15.7213 9.12407 15.5564C8.8774 15.3916 8.68514 15.1574 8.57161 14.8833C8.45808 14.6092 8.42837 14.3076 8.48625 14.0166C8.54413 13.7256 8.68699 13.4584 8.89677 13.2486C9.10655 13.0388 9.37382 12.8959 9.66479 12.8381C9.95576 12.7802 10.2574 12.8099 10.5315 12.9234C10.8055 13.0369 11.0398 13.2292 11.2046 13.4759C11.3695 13.7226 11.4574 14.0126 11.4574 14.3092C11.4574 14.7071 11.2994 15.0886 11.0181 15.3699C10.7368 15.6512 10.3553 15.8092 9.95743 15.8092ZM20.3 20.5919L17.4069 20.5519L16.606 19.1651H20.3V20.5919ZM20.3 17.4659H15.6249L14.7875 16.0154H20.3V17.4659Z" fill="black"/>
</svg>
