<svg width="24" height="24" viewBox="0 0 24 24" fill="none" xmlns="http://www.w3.org/2000/svg">
<path d="M9.95743 12.8092C9.66076 12.8092 9.37075 12.8972 9.12407 13.062C8.8774 13.2269 8.68514 13.4611 8.57161 13.7352C8.45808 14.0093 8.42837 14.3109 8.48625 14.6019C8.54413 14.8928 8.68699 15.1601 8.89677 15.3699C9.10655 15.5797 9.37382 15.7225 9.66479 15.7804C9.95576 15.8383 10.2574 15.8086 10.5315 15.6951C10.8055 15.5815 11.0398 15.3893 11.2046 15.1426C11.3695 14.8959 11.4574 14.6059 11.4574 14.3092C11.4574 13.9114 11.2994 13.5299 11.0181 13.2486C10.7368 12.9673 10.3553 12.8092 9.95743 12.8092ZM9.95743 15.3092C9.75965 15.3092 9.56631 15.2506 9.40186 15.1407C9.23741 15.0308 9.10924 14.8746 9.03355 14.6919C8.95786 14.5092 8.93806 14.3081 8.97664 14.1141C9.01523 13.9202 9.11047 13.742 9.25032 13.6021C9.39017 13.4623 9.56836 13.367 9.76234 13.3285C9.95632 13.2899 10.1574 13.3097 10.3401 13.3854C10.5228 13.461 10.679 13.5892 10.7889 13.7537C10.8988 13.9181 10.9574 14.1115 10.9574 14.3092C10.9571 14.5744 10.8517 14.8285 10.6642 15.016C10.4767 15.2035 10.2226 15.3089 9.95743 15.3092ZM14.8865 15.3153C14.9611 14.9692 14.9991 14.6161 15 14.262V13.3153C15 13.0501 15.1054 12.7958 15.2929 12.6082C15.4805 12.4207 15.7348 12.3153 16 12.3153H20V10.3889C19.9999 8.00256 19.0519 5.71396 17.3646 4.02642C15.6773 2.33889 13.3888 1.39061 11.0024 1.39014H10.9269C8.5606 1.41014 6.29733 2.36116 4.62694 4.03737C2.95654 5.71359 2.0134 7.98015 2.00163 10.3465C2.00083 10.5198 2.00053 10.6771 2.00063 10.8154C2.00179 12.1667 2.29405 13.5019 2.85753 14.7301L3.73173 14.9849C4.08772 15.0887 4.41737 15.2675 4.69852 15.5093C4.97967 15.7511 5.20581 16.0503 5.36173 16.3867C5.71284 17.1508 6.24996 17.8146 6.92395 18.3174C7.59793 18.8202 8.38724 19.146 9.21967 19.2649C10.0521 19.3838 10.9011 19.2921 11.6889 18.998C12.4767 18.704 13.1781 18.2171 13.7291 17.5819L16.4178 22.239L22 22.3153V15.3153H14.8865ZM9.94653 18.8153C9.07829 18.8136 8.22854 18.5644 7.49683 18.0971C6.76512 17.6297 6.18177 16.9635 5.81513 16.1764C5.62924 15.7752 5.35959 15.4184 5.02433 15.1301C4.68907 14.8418 4.29596 14.6286 3.87143 14.5048L3.22043 14.3148C2.74548 13.2091 2.50051 12.0183 2.50043 10.8148L2.50143 10.3488C2.52007 8.11617 3.41331 5.9798 4.98942 4.39833C6.56552 2.81686 8.69884 1.91636 10.9314 1.89014H11.0027C13.2557 1.89297 15.4156 2.78933 17.0086 4.3826C18.6016 5.97586 19.4976 8.13592 19.5 10.3889V11.8153H16C15.6024 11.8158 15.2211 11.974 14.9399 12.2552C14.6587 12.5364 14.5005 12.9177 14.5 13.3153V14.262C14.4987 15.4692 14.0185 16.6266 13.1649 17.4802C12.3113 18.3338 11.1539 18.814 9.94673 18.8153H9.94653ZM21.505 21.8135L16.7057 21.7478L15.1557 19.0624H21.5057L21.505 21.8135ZM21.505 18.5683H14.87L14.0651 17.1743C14.3556 16.7562 14.5807 16.2963 14.7327 15.8103H21.505V18.5683Z" fill="black"/>
</svg>
