<svg width="24" height="24" viewBox="0 0 24 24" fill="none" xmlns="http://www.w3.org/2000/svg">
<path d="M12 2C10.0222 2 8.08879 2.58649 6.4443 3.6853C4.79981 4.78412 3.51809 6.3459 2.76121 8.17317C2.00433 10.0004 1.8063 12.0111 2.19215 13.9509C2.578 15.8907 3.53041 17.6725 4.92894 19.0711C6.32746 20.4696 8.10929 21.422 10.0491 21.8079C11.9889 22.1937 13.9996 21.9957 15.8268 21.2388C17.6541 20.4819 19.2159 19.2002 20.3147 17.5557C21.4135 15.9112 22 13.9778 22 12C22 10.6868 21.7413 9.38642 21.2388 8.17317C20.7363 6.95991 19.9997 5.85752 19.0711 4.92893C18.1425 4.00035 17.0401 3.26375 15.8268 2.7612C14.6136 2.25866 13.3132 2 12 2ZM21.4874 11.75H16.262C16.3168 9.39476 17.2287 7.14037 18.8268 5.4094C20.4777 7.11431 21.4274 9.37753 21.4874 11.75ZM12.25 11.75V2.5126C14.5648 2.57195 16.7773 3.47891 18.4677 5.0614C16.779 6.88551 15.8165 9.26479 15.762 11.75H12.25ZM11.75 11.75H8.238C8.18353 9.26479 7.22105 6.88551 5.5323 5.0614C7.22272 3.47891 9.43521 2.57195 11.75 2.5126V11.75ZM11.75 12.25V21.4874C9.43463 21.428 7.22164 20.5206 5.5311 18.9374C7.22021 17.1139 8.1831 14.735 8.2379 12.25H11.75ZM12.25 12.25H15.7621C15.8169 14.735 16.7798 17.114 18.4689 18.9375C16.7784 20.5207 14.5654 21.4281 12.25 21.4875V12.25ZM5.1732 5.4094C6.77129 7.14037 7.68321 9.39476 7.738 11.75H2.5126C2.57262 9.37753 3.5223 7.11431 5.1732 5.4094ZM2.5126 12.25H7.7379C7.68303 14.6052 6.77076 16.8595 5.1722 18.59C3.52179 16.8851 2.57248 14.6221 2.5126 12.25ZM18.8278 18.59C17.2292 16.8595 16.317 14.6052 16.2621 12.25H21.4874C21.4275 14.6221 20.4782 16.8851 18.8278 18.59Z" fill="black"/>
</svg>
