<svg width="24" height="24" viewBox="0 0 24 24" fill="none" xmlns="http://www.w3.org/2000/svg">
<path d="M6.5 7C8.433 7 10 6.1045 10 5C10 3.8955 8.433 3 6.5 3C4.567 3 3 3.8954 3 5C3 6.1046 4.567 7 6.5 7ZM6.5 9.6321C8.433 9.6321 10 8.7427 10 7.6458V6.9067C8.99225 7.65981 7.75724 8.04559 6.5 8C5.24276 8.04559 4.00775 7.65981 3 6.9067V7.6458C3 8.7427 4.5671 9.6321 6.5 9.6321ZM19.9062 4.25L10.9262 16.9889H3.2316L3.8682 21H9.0709C9.5522 21 10.0264 20.8842 10.4536 20.6624C10.8807 20.4406 11.2482 20.1192 11.525 19.7255L21.5893 5.4119L19.9062 4.25Z" fill="black"/>
</svg>
