<svg width="24" height="24" viewBox="0 0 24 24" fill="none" xmlns="http://www.w3.org/2000/svg">
<path d="M22 5H19V3H5V5H2C1.73478 5 1.48043 5.10536 1.29289 5.29289C1.10536 5.48043 1 5.73478 1 6V8C1.00193 9.19777 1.43499 10.3548 2.21997 11.2595C3.00494 12.1642 4.08937 12.7561 5.2749 12.9269C5.65763 14.2626 6.42923 15.4543 7.49144 16.35C8.55365 17.2458 9.85842 17.8051 11.2396 17.9569V18.6469C11.2395 19.0929 11.0904 19.526 10.8159 19.8775C10.5415 20.229 10.1574 20.4787 9.7247 20.5869L7.24 21.2083V22H16.76V21.2083L14.275 20.587C13.8423 20.4788 13.4582 20.2292 13.1837 19.8777C12.9092 19.5262 12.7601 19.093 12.76 18.647V17.957C14.1412 17.8052 15.4459 17.2459 16.5082 16.3501C17.5704 15.4544 18.342 14.2627 18.7247 12.927C19.9103 12.7563 20.9949 12.1644 21.7799 11.2597C22.565 10.355 22.9981 9.19785 23 8V6C23 5.73478 22.8946 5.48043 22.7071 5.29289C22.5196 5.10536 22.2652 5 22 5ZM2.5 8V6.5H5V11C5 11.1133 5.0117 11.2236 5.017 11.3355C4.29311 11.1266 3.65648 10.6886 3.20265 10.0872C2.74882 9.48579 2.50227 8.75342 2.5 8ZM17.5 11C17.5 12.4587 16.9205 13.8576 15.8891 14.8891C14.8576 15.9205 13.4587 16.5 12 16.5C10.5413 16.5 9.14236 15.9205 8.11091 14.8891C7.07946 13.8576 6.5 12.4587 6.5 11V4.5H17.5V11ZM21.5 8C21.4977 8.75342 21.2512 9.48579 20.7974 10.0872C20.3435 10.6886 19.7069 11.1266 18.983 11.3355C18.9883 11.2236 19 11.1133 19 11V6.5H21.5V8Z" fill="black"/>
</svg>
