<svg width="24" height="24" viewBox="0 0 24 24" fill="none" xmlns="http://www.w3.org/2000/svg">
<path d="M20.3406 6.2845C19.8581 5.78993 19.2818 5.39659 18.6455 5.12751C18.0091 4.85842 17.3254 4.719 16.6345 4.7174C15.7495 4.75019 14.8799 4.95859 14.0761 5.33049C13.2724 5.70239 12.5506 6.23036 11.9528 6.8837C11.0342 7.72643 10.3359 8.78125 9.91896 9.95603C9.50198 11.1308 9.37898 12.3898 9.5607 13.6231C9.6774 14.1176 9.66759 14.6335 9.53219 15.1232C9.39679 15.6129 9.14016 16.0606 8.786 16.4249L4.3022 20.9082L5.7163 22.3223L10.1953 17.8437C10.5692 17.4874 11.0264 17.2305 11.5252 17.0965C12.024 16.9626 12.5484 16.9559 13.0505 17.077C13.4164 17.1526 13.7891 17.1902 14.1627 17.1894C16.2794 17.1101 18.2813 16.2069 19.7415 14.6724C22.554 11.86 22.4914 8.4354 20.3406 6.2845ZM18.3273 13.2582C17.2389 14.4133 15.7475 15.1049 14.1627 15.1894C13.4273 15.2184 12.7103 14.9548 12.1687 14.4564C11.8673 14.1084 11.6484 13.6968 11.5283 13.2523C11.4081 12.8079 11.3898 12.3421 11.4748 11.8896C11.7048 10.5207 12.368 9.26175 13.3669 8.2979C13.7805 7.83194 14.2821 7.45241 14.843 7.18115C15.4039 6.9099 16.0129 6.75229 16.6349 6.7174C17.5223 6.73783 18.3652 7.1098 18.9784 7.75153C19.5916 8.39326 19.9248 9.25223 19.9049 10.1396C19.7869 11.3397 19.2241 12.4521 18.3273 13.2582ZM8 5C8 4.40666 7.82405 3.82664 7.49441 3.33329C7.16477 2.83994 6.69623 2.45543 6.14805 2.22836C5.59987 2.0013 4.99667 1.94189 4.41473 2.05765C3.83279 2.1734 3.29824 2.45912 2.87868 2.87868C2.45912 3.29824 2.1734 3.83279 2.05765 4.41473C1.94189 4.99667 2.0013 5.59987 2.22836 6.14805C2.45543 6.69623 2.83994 7.16477 3.33329 7.49441C3.82664 7.82405 4.40666 8 5 8C5.79565 8 6.55871 7.68393 7.12132 7.12132C7.68393 6.55871 8 5.79565 8 5Z" fill="black"/>
</svg>
