<svg width="24" height="24" viewBox="0 0 24 24" fill="none" xmlns="http://www.w3.org/2000/svg">
<path d="M4.03482 5.97162C2.86787 7.50802 2.17354 9.35096 2.03662 11.2754H6.23872C6.08711 9.31803 5.31505 7.46004 4.03482 5.97162ZM7.68792 11.2754H11.2754V2.03662C8.90991 2.20351 6.68159 3.20904 4.99132 4.87232C6.57967 6.64588 7.52892 8.8999 7.68792 11.2754ZM21.9634 11.2754C21.8265 9.35096 21.1322 7.50802 19.9652 5.97162C18.685 7.46004 17.9129 9.31803 17.7613 11.2754H21.9634ZM19.0087 4.87232C17.3185 3.20904 15.0901 2.20351 12.7246 2.03662V11.2754H16.3121C16.4711 8.8999 17.4204 6.64588 19.0087 4.87232ZM4.99132 19.1277C6.6816 20.791 8.90992 21.7965 11.2754 21.9634V12.7246H7.68792C7.52889 15.1001 6.57963 17.3541 4.99132 19.1277ZM19.9652 18.0283C21.1322 16.492 21.8265 14.649 21.9634 12.7246H17.7613C17.9129 14.682 18.685 16.5399 19.9652 18.0283ZM12.7246 12.7246V21.9634C15.0901 21.7965 17.3184 20.791 19.0087 19.1277C17.4204 17.3541 16.4712 15.1001 16.3121 12.7246H12.7246ZM2.03662 12.7246C2.17354 14.649 2.86787 16.492 4.03482 18.0283C5.31505 16.5399 6.08711 14.682 6.23872 12.7246H2.03662Z" fill="black"/>
</svg>
