<svg width="24" height="24" viewBox="0 0 24 24" fill="none" xmlns="http://www.w3.org/2000/svg">
<path d="M9.99999 2.99997H2.99999V7.99997H9.99999V2.99997ZM8.19999 6.19997H4.79999V4.79997H8.19999V6.19997ZM17.7062 2.97217L9.47449 14.7H2.91199L3.91199 21H10.0029C10.646 21 11.2797 20.8451 11.8502 20.5481C12.4206 20.2512 12.9111 19.8211 13.28 19.2943L22.412 6.25167L17.7062 2.97217ZM11.7231 18.2045C11.5294 18.4809 11.2719 18.7065 10.9725 18.8624C10.6731 19.0183 10.3406 19.0998 10.0031 19.1H5.53419L5.13729 16.6H10.4622L11.0296 15.7916L18.1735 5.61367L19.7635 6.72167L11.7231 18.2045Z" fill="black"/>
</svg>
