<svg width="24" height="24" viewBox="0 0 24 24" fill="none" xmlns="http://www.w3.org/2000/svg">
<path d="M7.25 19.0076V10.7568L16 6.5L6.75 2V19.0076C4.1073 19.0476 2 19.6976 2 20.5C2 21.3284 4.2386 22 7 22C9.7614 22 12 21.3284 12 20.5C12 19.6973 9.8927 19.0474 7.25 19.0076ZM7.25 2.7993L14.8571 6.5L7.25 10.2007V2.7993ZM6.75 21.4922C3.9975 21.4503 2.5731 20.7622 2.4992 20.5076C2.5731 20.2385 3.9975 19.5497 6.75 19.5076V21.4922ZM7.25 21.4922V19.5078C10.0025 19.5497 11.4269 20.2378 11.5008 20.4924C11.4269 20.7615 10.0025 21.45 7.25 21.4922ZM19 15C18.4067 15 17.8266 15.1759 17.3333 15.5056C16.8399 15.8352 16.4554 16.3038 16.2284 16.8519C16.0013 17.4001 15.9419 18.0033 16.0576 18.5853C16.1734 19.1672 16.4591 19.7018 16.8787 20.1213C17.2982 20.5409 17.8328 20.8266 18.4147 20.9424C18.9967 21.0581 19.5999 20.9987 20.1481 20.7716C20.6962 20.5446 21.1648 20.1601 21.4944 19.6667C21.8241 19.1734 22 18.5933 22 18C22 17.2044 21.6839 16.4413 21.1213 15.8787C20.5587 15.3161 19.7956 15 19 15ZM19 20.5C18.5055 20.5 18.0222 20.3534 17.6111 20.0787C17.2 19.804 16.8795 19.4135 16.6903 18.9567C16.5011 18.4999 16.4516 17.9972 16.548 17.5123C16.6445 17.0273 16.8826 16.5819 17.2322 16.2322C17.5819 15.8826 18.0273 15.6445 18.5123 15.548C18.9972 15.4516 19.4999 15.5011 19.9567 15.6903C20.4135 15.8795 20.804 16.2 21.0787 16.6111C21.3534 17.0222 21.5 17.5055 21.5 18C21.4993 18.6628 21.2356 19.2983 20.7669 19.7669C20.2983 20.2356 19.6628 20.4993 19 20.5Z" fill="black"/>
</svg>
