<svg width="24" height="24" viewBox="0 0 24 24" fill="none" xmlns="http://www.w3.org/2000/svg">
<path d="M14.9946 14.3153C14.9946 14.2971 15 14.2803 15 14.262V13.3153C15 13.0501 15.1054 12.7958 15.2929 12.6082C15.4805 12.4207 15.7348 12.3153 16 12.3153H20V10.3888C19.9998 8.00248 19.0519 5.7139 17.3646 4.02639C15.6772 2.33888 13.3888 1.39061 11.0024 1.39014H10.9269C8.5606 1.41014 6.29733 2.36116 4.62694 4.03737C2.95654 5.71359 2.0134 7.98015 2.00163 10.3465C2.00083 10.5198 2.00053 10.6771 2.00063 10.8154C2.00179 12.1667 2.29405 13.5019 2.85753 14.7301L3.73173 14.9849C4.08773 15.0887 4.41739 15.2675 4.69854 15.5093C4.9797 15.7511 5.20583 16.0503 5.36173 16.3867C5.71284 17.1508 6.24995 17.8146 6.92392 18.3174C7.59789 18.8202 8.38719 19.146 9.2196 19.2649C10.052 19.3838 10.901 19.2921 11.6888 18.9981C12.4765 18.7041 13.178 18.2172 13.729 17.582L16.4178 22.239L22 22.3153V14.3153H14.9946ZM13 13.3153V14.262C13 14.9576 12.7624 15.6323 12.3267 16.1745C11.891 16.7167 11.2832 17.0939 10.604 17.2436C9.92468 17.3934 9.21465 17.3067 8.59134 16.998C7.96804 16.6892 7.46883 16.1769 7.17633 15.5458C6.90554 14.9612 6.51489 14.4401 6.02971 14.0162C5.54454 13.5923 4.97568 13.2751 4.36003 13.0852C4.12217 12.3513 4.00103 11.5846 4.00103 10.813L4.00203 10.3554C4.0175 8.51702 4.75305 6.75793 6.05083 5.4557C7.34861 4.15347 9.10517 3.4119 10.9435 3.39014H11.0024C12.8451 3.3923 14.6128 4.12033 15.9226 5.41653C17.2323 6.71274 17.9787 8.47275 18 10.3153H16C15.2047 10.3162 14.4421 10.6326 13.8797 11.195C13.3173 11.7574 13.0009 12.52 13 13.3153ZM20.3 20.5919L17.4069 20.5519L16.606 19.1651H20.3V20.5919ZM20.3 17.4659H15.6249L14.7875 16.0154H20.3V17.4659ZM9.95743 13.1624C9.72968 13.1581 9.50579 13.2216 9.31429 13.345C9.12279 13.4683 8.97235 13.6459 8.88216 13.8551C8.79197 14.0643 8.76611 14.2956 8.80787 14.5195C8.84962 14.7434 8.95711 14.9498 9.11663 15.1125C9.27615 15.2751 9.48048 15.3865 9.70357 15.4325C9.92666 15.4786 10.1584 15.4572 10.3693 15.371C10.5801 15.2849 10.7606 15.1379 10.8876 14.9488C11.0146 14.7597 11.0824 14.537 11.0824 14.3092C11.0853 14.008 10.9684 13.7179 10.7574 13.5029C10.5464 13.2878 10.2587 13.1653 9.95743 13.1624Z" fill="black"/>
</svg>
