<svg width="24" height="24" viewBox="0 0 24 24" fill="none" xmlns="http://www.w3.org/2000/svg">
<path d="M15.75 6.5L6.75 2V19.0076C4.1073 19.0476 2 19.6976 2 20.5C2 21.3284 4.2386 22 7 22C9.7614 22 12 21.3284 12 20.5C12 19.6973 9.8927 19.0474 7.25 19.0076V10.75L15.75 6.5ZM19 15C18.4067 15 17.8266 15.1759 17.3333 15.5056C16.8399 15.8352 16.4554 16.3038 16.2284 16.8519C16.0013 17.4001 15.9419 18.0033 16.0576 18.5853C16.1734 19.1672 16.4591 19.7018 16.8787 20.1213C17.2982 20.5409 17.8328 20.8266 18.4147 20.9424C18.9967 21.0581 19.5999 20.9987 20.1481 20.7716C20.6962 20.5446 21.1648 20.1601 21.4944 19.6667C21.8241 19.1734 22 18.5933 22 18C22 17.2044 21.6839 16.4413 21.1213 15.8787C20.5587 15.3161 19.7956 15 19 15Z" fill="black"/>
</svg>
