<svg width="24" height="24" viewBox="0 0 24 24" fill="none" xmlns="http://www.w3.org/2000/svg">
<path d="M12 2C10.0222 2 8.08879 2.58649 6.4443 3.6853C4.79981 4.78412 3.51809 6.3459 2.76121 8.17317C2.00433 10.0004 1.8063 12.0111 2.19215 13.9509C2.578 15.8907 3.53041 17.6725 4.92894 19.0711C6.32746 20.4696 8.10929 21.422 10.0491 21.8079C11.9889 22.1937 13.9996 21.9957 15.8268 21.2388C17.6541 20.4819 19.2159 19.2002 20.3147 17.5557C21.4135 15.9112 22 13.9778 22 12C22 10.6868 21.7413 9.38642 21.2388 8.17317C20.7363 6.95991 19.9997 5.85752 19.0711 4.92893C18.1425 4.00035 17.0401 3.26375 15.8268 2.7612C14.6136 2.25866 13.3132 2 12 2ZM19.3441 7.452C20.0798 8.63359 20.517 9.97644 20.6179 11.3647L18.56 9.8691L19.3441 7.452ZM12 3.35C12.6942 3.35269 13.3856 3.43932 14.059 3.608L12 5.1035L9.941 3.608C10.6144 3.43932 11.3058 3.35269 12 3.35ZM4.6559 7.452L5.44 9.8691L3.3821 11.3647C3.48301 9.97644 3.92018 8.63359 4.6559 7.452ZM5.4005 17.5791H7.9463L8.7341 20.005C7.44427 19.4757 6.30085 18.6436 5.4005 17.5791ZM15.2659 20.005L16.0537 17.5791H18.6C17.6995 18.6437 16.5559 19.4758 15.2659 20.005ZM19.5377 16.23H15.0732L13.6923 20.4819C12.5753 20.7067 11.4247 20.7067 10.3077 20.4819L8.9268 16.23H4.4623C3.90244 15.237 3.5461 14.1423 3.4141 13.01L7.0283 10.3853L5.6508 6.1455C6.42385 5.30661 7.35465 4.62832 8.39 4.1494L12 6.7715L15.61 4.1494C16.6456 4.62823 17.5767 5.30653 18.35 6.1455L16.9725 10.3848L20.5859 13.01C20.4539 14.1423 20.0976 15.237 19.5377 16.23ZM8.4887 10.86L9.83 14.9869H14.17L15.5112 10.8591L12 8.308L8.4887 10.86ZM13.1893 13.6377H10.8107L10.0757 11.3757L12 9.9767L13.9243 11.3748L13.1893 13.6377Z" fill="black"/>
</svg>
