<svg width="24" height="24" viewBox="0 0 24 24" fill="none" xmlns="http://www.w3.org/2000/svg">
<path d="M9.95743 13.2091C9.73987 13.2091 9.52719 13.2737 9.3463 13.3945C9.16541 13.5154 9.02442 13.6872 8.94116 13.8882C8.8579 14.0892 8.83612 14.3104 8.87856 14.5237C8.92101 14.7371 9.02577 14.9331 9.17961 15.087C9.33345 15.2408 9.52945 15.3456 9.74283 15.388C9.95621 15.4304 10.1774 15.4087 10.3784 15.3254C10.5794 15.2421 10.7512 15.1012 10.872 14.9203C10.9929 14.7394 11.0574 14.5267 11.0574 14.3091C11.0571 14.0175 10.9411 13.7379 10.7349 13.5317C10.5287 13.3255 10.2491 13.2095 9.95743 13.2091ZM14.8865 15.3153C14.9611 14.9692 14.9991 14.6161 15 14.262V13.3153C15 13.0501 15.1054 12.7958 15.2929 12.6082C15.4805 12.4207 15.7348 12.3153 16 12.3153H20V10.3888C19.9998 8.00248 19.0519 5.7139 17.3646 4.02639C15.6772 2.33888 13.3888 1.39061 11.0024 1.39014H10.9269C8.5606 1.41014 6.29733 2.36116 4.62694 4.03737C2.95654 5.71359 2.0134 7.98015 2.00163 10.3465C2.00083 10.5198 2.00053 10.6771 2.00063 10.8154C2.00179 12.1667 2.29405 13.5019 2.85753 14.7301L3.73173 14.9849C4.08773 15.0887 4.41739 15.2675 4.69854 15.5093C4.9797 15.7511 5.20583 16.0503 5.36173 16.3867C5.71284 17.1508 6.24995 17.8146 6.92392 18.3174C7.59789 18.8202 8.38719 19.146 9.2196 19.2649C10.052 19.3838 10.901 19.2921 11.6888 18.9981C12.4765 18.7041 13.178 18.2172 13.729 17.582L16.4178 22.239L22 22.3153V15.3153H14.8865ZM9.95743 16.3092C9.56187 16.3092 9.17519 16.1919 8.84629 15.9722C8.51739 15.7524 8.26104 15.4401 8.10967 15.0746C7.95829 14.7092 7.91869 14.307 7.99586 13.9191C8.07303 13.5311 8.26351 13.1747 8.54321 12.895C8.82292 12.6153 9.17929 12.4248 9.56725 12.3477C9.95521 12.2705 10.3573 12.3101 10.7228 12.4615C11.0882 12.6129 11.4006 12.8692 11.6204 13.1981C11.8401 13.527 11.9574 13.9137 11.9574 14.3092C11.9574 14.8397 11.7467 15.3484 11.3716 15.7234C10.9966 16.0985 10.4879 16.3092 9.95743 16.3092ZM21.05 21.3522L16.9705 21.2964L15.8121 19.2901H21.05V21.3522ZM21.05 18.3407H15.264L14.3325 16.7272C14.4241 16.5778 14.5077 16.4237 14.5831 16.2654H21.05V18.3407Z" fill="black"/>
</svg>
