<svg width="24" height="24" viewBox="0 0 24 24" fill="none" xmlns="http://www.w3.org/2000/svg">
<path d="M7.23727 11.7501H11.75V2.0127C10.4145 2.04456 9.09901 2.34482 7.88194 2.8956C6.66488 3.44638 5.57108 4.23643 4.66567 5.2187C6.26909 7.02272 7.18035 9.33717 7.23727 11.7501ZM19.6718 18.4101C21.1198 16.6788 21.9364 14.5066 21.9874 12.2501H17.2626C17.3188 14.5223 18.1715 16.7026 19.6718 18.4101ZM19.3343 5.2187C18.4289 4.23643 17.3351 3.44638 16.118 2.8956C14.9009 2.34482 13.5855 2.04456 12.25 2.0127V11.7501H16.7627C16.8196 9.33717 17.7309 7.02272 19.3343 5.2187ZM21.9874 11.7501C21.9363 9.49359 21.1198 7.32145 19.6718 5.5901C18.1716 7.2976 17.3189 9.47786 17.2626 11.7501H21.9874ZM12.25 12.2501V21.9875C13.5855 21.9556 14.9009 21.6553 16.118 21.1046C17.3351 20.5538 18.4289 19.7637 19.3343 18.7815C17.7309 16.9775 16.8196 14.663 16.7627 12.2501H12.25ZM2.01257 12.2501C2.06358 14.5066 2.88011 16.6788 4.32817 18.4101C5.82842 16.7026 6.68114 14.5223 6.73737 12.2501H2.01257ZM4.66567 18.7815C5.57109 19.7637 6.6649 20.5538 7.88196 21.1046C9.09902 21.6553 10.4145 21.9556 11.75 21.9875V12.2501H7.23727C7.18035 14.663 6.26909 16.9775 4.66567 18.7815ZM4.32817 5.5901C2.88013 7.32145 2.0636 9.49359 2.01257 11.7501H6.73737C6.68109 9.47786 5.82839 7.2976 4.32817 5.5901Z" fill="black"/>
</svg>
