<svg width="24" height="24" viewBox="0 0 24 24" fill="none" xmlns="http://www.w3.org/2000/svg">
<path d="M22.31 5.09413C22.1978 4.23055 21.8031 3.42836 21.1873 2.8126C20.5715 2.19683 19.7693 1.8021 18.9057 1.68993C16.5745 1.39406 14.2064 1.63565 11.983 2.3962C9.75948 3.15676 7.73956 4.41609 6.07789 6.07776C4.41622 7.73944 3.15688 9.75936 2.39633 11.9828C1.63577 14.2063 1.39418 16.5744 1.69005 18.9056C1.80224 19.7692 2.197 20.5714 2.81278 21.1872C3.42856 21.803 4.23076 22.1977 5.09435 22.3099C7.42559 22.6057 9.7936 22.364 12.017 21.6034C14.2405 20.8428 16.2603 19.5834 17.922 17.9218C19.5836 16.2601 20.843 14.2402 21.6036 12.0168C22.3641 9.79338 22.6058 7.42537 22.31 5.09413ZM16.9793 10.9687C16.8856 11.0625 16.7584 11.1152 16.6258 11.1152C16.4932 11.1152 16.366 11.0625 16.2722 10.9687L15.0053 9.70173L12.7071 11.9999L13.974 13.2669C14.0671 13.3608 14.1192 13.4878 14.1189 13.62C14.1187 13.7523 14.066 13.879 13.9725 13.9725C13.879 14.066 13.7523 14.1186 13.62 14.1189C13.4878 14.1192 13.3609 14.0671 13.2669 13.974L12 12.7069L9.70195 15.005L10.9688 16.272C11.0156 16.3184 11.0528 16.3735 11.0782 16.4343C11.1036 16.495 11.1167 16.5602 11.1168 16.626C11.117 16.6919 11.1041 16.7571 11.079 16.818C11.0539 16.8788 11.017 16.9341 10.9704 16.9807C10.9238 17.0272 10.8685 17.0641 10.8077 17.0893C10.7468 17.1144 10.6816 17.1273 10.6158 17.1271C10.5499 17.127 10.4847 17.1138 10.424 17.0884C10.3632 17.063 10.3081 17.0259 10.2617 16.9791L7.02085 13.7382C6.97409 13.6919 6.93694 13.6367 6.91154 13.576C6.88614 13.5152 6.87299 13.4501 6.87285 13.3842C6.87271 13.3184 6.88557 13.2532 6.9107 13.1923C6.93583 13.1314 6.97274 13.0761 7.0193 13.0296C7.06586 12.983 7.12115 12.9461 7.18201 12.921C7.24287 12.8958 7.3081 12.883 7.37394 12.8831C7.43979 12.8833 7.50496 12.8964 7.56571 12.9218C7.62646 12.9472 7.68159 12.9844 7.72795 13.0311L8.99495 14.298L11.293 11.9999L10.026 10.733C9.93296 10.6391 9.88086 10.5122 9.88115 10.3799C9.88144 10.2477 9.93409 10.121 10.0276 10.0275C10.1211 9.93397 10.2478 9.88132 10.3801 9.88103C10.5123 9.88074 10.6392 9.93284 10.7331 10.0259L12 11.2928L14.2981 8.99473L13.0311 7.72783C12.9844 7.68147 12.9472 7.62634 12.9218 7.56559C12.8964 7.50484 12.8833 7.43967 12.8832 7.37382C12.883 7.30798 12.8959 7.24275 12.921 7.18189C12.9461 7.12103 12.983 7.06573 13.0296 7.01917C13.0762 6.97261 13.1315 6.93571 13.1923 6.91058C13.2532 6.88545 13.3184 6.87258 13.3842 6.87273C13.4501 6.87287 13.5153 6.88602 13.576 6.91142C13.6368 6.93682 13.6919 6.97396 13.7382 7.02073L16.9791 10.2616C17.0729 10.3554 17.1256 10.4825 17.1256 10.6152C17.1257 10.7478 17.073 10.8749 16.9792 10.9687H16.9793Z" fill="black"/>
</svg>
