<svg width="24" height="24" viewBox="0 0 24 24" fill="none" xmlns="http://www.w3.org/2000/svg">
<path d="M14.8865 15.3153C14.9611 14.9692 14.9991 14.6161 15 14.262V13.3153C15 13.0501 15.1054 12.7958 15.2929 12.6082C15.4805 12.4207 15.7348 12.3153 16 12.3153H20V10.3889C19.9999 8.00256 19.0519 5.71396 17.3646 4.02642C15.6773 2.33889 13.3888 1.39061 11.0024 1.39014H10.9269C8.5606 1.41014 6.29733 2.36116 4.62694 4.03737C2.95654 5.71359 2.0134 7.98015 2.00163 10.3465C2.00083 10.5198 2.00053 10.6771 2.00063 10.8154C2.00179 12.1667 2.29405 13.5019 2.85753 14.7301L3.73173 14.9849C4.08772 15.0887 4.41737 15.2675 4.69852 15.5093C4.97967 15.7511 5.20581 16.0503 5.36173 16.3867C5.71284 17.1508 6.24996 17.8146 6.92395 18.3174C7.59793 18.8202 8.38724 19.146 9.21967 19.2649C10.0521 19.3838 10.9011 19.2921 11.6889 18.998C12.4767 18.704 13.1781 18.2171 13.7291 17.5819L16.4178 22.239L22 22.3153V15.3153H14.8865ZM9.95743 16.3092C9.56187 16.3092 9.17519 16.1919 8.84629 15.9722C8.51739 15.7524 8.26104 15.4401 8.10967 15.0746C7.95829 14.7092 7.91869 14.307 7.99586 13.9191C8.07303 13.5311 8.26351 13.1747 8.54321 12.895C8.82292 12.6153 9.17929 12.4248 9.56725 12.3477C9.95521 12.2705 10.3573 12.3101 10.7228 12.4615C11.0882 12.6129 11.4006 12.8692 11.6204 13.1981C11.8401 13.527 11.9574 13.9137 11.9574 14.3092C11.9574 14.8397 11.7467 15.3484 11.3716 15.7234C10.9966 16.0985 10.4879 16.3092 9.95743 16.3092ZM21.505 21.8135L16.7057 21.7478L15.1557 19.0624H21.5057L21.505 21.8135ZM21.505 18.5683H14.87L14.0651 17.1743C14.3556 16.7562 14.5807 16.2963 14.7327 15.8103H21.505V18.5683ZM9.95743 12.8092C9.66076 12.8092 9.37075 12.8972 9.12407 13.062C8.8774 13.2269 8.68514 13.4611 8.57161 13.7352C8.45808 14.0093 8.42837 14.3109 8.48625 14.6019C8.54413 14.8928 8.68699 15.1601 8.89677 15.3699C9.10655 15.5797 9.37382 15.7225 9.66479 15.7804C9.95576 15.8383 10.2574 15.8086 10.5315 15.6951C10.8055 15.5815 11.0398 15.3893 11.2046 15.1426C11.3695 14.8959 11.4574 14.6059 11.4574 14.3092C11.457 13.9115 11.2988 13.5303 11.0176 13.2491C10.7364 12.9679 10.3551 12.8097 9.95743 12.8092Z" fill="black"/>
</svg>
