<svg width="24" height="24" viewBox="0 0 24 24" fill="none" xmlns="http://www.w3.org/2000/svg">
<path d="M16 2H10C8.93913 2 7.92172 2.42143 7.17157 3.17157C6.42143 3.92172 6 4.93913 6 6C6 6.0186 6.0053 6.0358 6.0055 6.0544C5.43858 6.17347 4.92987 6.4839 4.56471 6.93361C4.19955 7.38331 4.00016 7.94491 4 8.5242V9.6863C4 11.808 4.84284 13.8428 6.3431 15.3431L8 17V22H18V17C19.2806 15.7194 20 13.9826 20 12.1716V6C20 4.93913 19.5786 3.92172 18.8284 3.17157C18.0783 2.42143 17.0609 2 16 2ZM10 3.5H16C16.6628 3.50074 17.2983 3.76437 17.7669 4.23305C18.2356 4.70173 18.4993 5.33719 18.5 6C18.5 8.8928 17.14 9.5 16 9.5H11C10.0721 9.49894 9.18244 9.12985 8.5263 8.4737C7.87015 7.81756 7.50106 6.92793 7.5 6C7.50074 5.33719 7.76437 4.70173 8.23305 4.23305C8.70173 3.76437 9.33719 3.50074 10 3.5ZM16.5 20.5H9.5V17.75H16.5V20.5ZM18.5 12.1716C18.5019 12.8716 18.3649 13.5651 18.097 14.2118C17.8291 14.8585 17.4356 15.4457 16.9393 15.9393L16.6287 16.25H9.3713L7.4038 14.2825C6.79833 13.6803 6.31831 12.964 5.99153 12.1751C5.66474 11.3862 5.49767 10.5402 5.5 9.6863V8.5242C5.50203 8.29955 5.57882 8.08197 5.71826 7.90582C5.85769 7.72966 6.05182 7.60496 6.27 7.5514C6.5938 8.55171 7.22569 9.42398 8.07528 10.0434C8.92486 10.6628 9.94859 10.9977 11 11H16C16.9137 11.0308 17.8057 10.718 18.5 10.1232V12.1716Z" fill="black"/>
</svg>
