<svg width="24" height="24" viewBox="0 0 24 24" fill="none" xmlns="http://www.w3.org/2000/svg">
<path d="M8 5C8 4.40666 7.82405 3.82664 7.49441 3.33329C7.16477 2.83994 6.69623 2.45543 6.14805 2.22836C5.59987 2.0013 4.99667 1.94189 4.41473 2.05765C3.83279 2.1734 3.29824 2.45912 2.87868 2.87868C2.45912 3.29824 2.1734 3.83279 2.05765 4.41473C1.94189 4.99667 2.0013 5.59987 2.22836 6.14805C2.45543 6.69623 2.83994 7.16477 3.33329 7.49441C3.82664 7.82405 4.40666 8 5 8C5.79565 8 6.55871 7.68393 7.12132 7.12132C7.68393 6.55871 8 5.79565 8 5ZM5 6.3C4.74289 6.3 4.49154 6.22376 4.27776 6.08091C4.06398 5.93807 3.89735 5.73503 3.79896 5.49749C3.70056 5.25995 3.67482 4.99856 3.72498 4.74638C3.77514 4.49421 3.89895 4.26257 4.08076 4.08076C4.26257 3.89895 4.49421 3.77514 4.74638 3.72498C4.99856 3.67482 5.25995 3.70056 5.49749 3.79896C5.73503 3.89735 5.93807 4.06398 6.08091 4.27776C6.22376 4.49154 6.3 4.74289 6.3 5C6.2996 5.34466 6.16251 5.67509 5.9188 5.9188C5.67509 6.16251 5.34466 6.2996 5 6.3ZM20.0732 7.2924C19.535 6.72787 18.8883 6.27787 18.1719 5.96941C17.4556 5.66094 16.6843 5.50036 15.9043 5.4973C13.7644 5.59879 11.7508 6.53969 10.3 8.116C9.3772 8.93765 8.7175 10.0134 8.4036 11.2085C8.08971 12.4035 8.13559 13.6646 8.5355 14.8337C8.74926 15.3727 8.80372 15.9618 8.69241 16.5308C8.5811 17.0999 8.3087 17.625 7.9076 18.0437L5.043 20.9082L6.457 22.3223L9.3193 19.46C9.70308 19.0615 10.1947 18.7836 10.734 18.6602C11.2734 18.5368 11.8369 18.5734 12.3558 18.7654C13.0463 19.0444 13.7838 19.1886 14.5285 19.19C15.4174 19.1687 16.293 18.9698 17.1039 18.605C17.9147 18.2403 18.6444 17.717 19.25 17.066C22.176 14.14 22.926 10.1453 20.0732 7.2924ZM17.8355 15.6518C17.4142 16.1152 16.9047 16.4899 16.3369 16.754C15.7691 17.0182 15.1543 17.1665 14.5285 17.1903C13.9626 17.1769 13.4049 17.0518 12.8875 16.8221C12.3701 16.5924 11.9032 16.2627 11.5137 15.8519C9.6544 13.9926 9.7329 11.5111 11.7137 9.5302C12.7952 8.33628 14.2971 7.60767 15.9042 7.4973C16.4214 7.50142 16.9324 7.61077 17.4059 7.81869C17.8795 8.02661 18.3058 8.32874 18.6589 8.7067C20.9182 10.9658 19.6274 13.86 17.8355 15.6518Z" fill="black"/>
</svg>
