<svg width="24" height="24" viewBox="0 0 24 24" fill="none" xmlns="http://www.w3.org/2000/svg">
<path d="M20.3406 6.2845C19.8581 5.79 19.2818 5.3967 18.6454 5.12762C18.0091 4.85853 17.3254 4.71908 16.6345 4.7174C15.7495 4.75012 14.8798 4.95849 14.0761 5.33039C13.2724 5.70229 12.5506 6.2303 11.9528 6.8837C11.1372 7.65096 10.4929 8.58194 10.0623 9.61561C9.63161 10.6493 9.42429 11.7623 9.4539 12.8817C9.49343 13.7603 9.3443 14.6371 9.01657 15.4532C8.68883 16.2693 8.19009 17.0057 7.5539 17.6129L4.2864 20.88L5.7447 22.3382L9.0118 19.0711C10.1526 17.8855 11.7151 17.1977 13.36 17.1572C13.4875 17.1572 13.6153 17.1619 13.7432 17.1712C13.8832 17.1815 14.0249 17.1867 14.1682 17.1866C16.2829 17.1078 18.283 16.2055 19.7416 14.6724C22.554 11.86 22.4914 8.4354 20.3406 6.2845ZM8.6583 18.7178L5.7447 21.6313L4.9935 20.88L7.9073 17.9663C8.883 17.0082 9.55489 15.7839 9.8391 14.4463C10.0399 14.975 10.3484 15.4562 10.7451 15.8593C11.1419 16.2624 11.6181 16.5786 12.1436 16.7877C10.82 17.0815 9.60964 17.7518 8.6583 18.7178ZM19.3883 14.3188C18.0253 15.7609 16.1511 16.611 14.1683 16.6866C14.1466 16.6866 14.1255 16.6845 14.1039 16.6843C13.5526 16.6964 13.0043 16.5995 12.4906 16.3992C11.9768 16.1989 11.5077 15.8991 11.11 15.5171C10.4156 14.8023 10.0045 13.8596 9.9533 12.8644C9.9533 12.858 9.9533 12.8517 9.9533 12.8453C9.9292 11.7976 10.1264 10.7565 10.532 9.79019C10.9375 8.82384 11.5424 7.95391 12.307 7.2372C12.8581 6.62986 13.5247 6.13843 14.2678 5.7916C15.0109 5.44477 15.8157 5.2495 16.6352 5.2172C17.2607 5.21718 17.8799 5.34294 18.4558 5.58701C19.0318 5.83107 19.5527 6.18845 19.9878 6.6379C22.0718 8.7228 21.8254 11.8813 19.3879 14.3188H19.3883ZM8 5C8 4.40666 7.82405 3.82664 7.49441 3.33329C7.16477 2.83994 6.69623 2.45543 6.14805 2.22836C5.59987 2.0013 4.99667 1.94189 4.41473 2.05765C3.83279 2.1734 3.29824 2.45912 2.87868 2.87868C2.45912 3.29824 2.1734 3.83279 2.05765 4.41473C1.94189 4.99667 2.0013 5.59987 2.22836 6.14805C2.45543 6.69623 2.83994 7.16477 3.33329 7.49441C3.82664 7.82405 4.40666 8 5 8C5.79565 8 6.55871 7.68393 7.12132 7.12132C7.68393 6.55871 8 5.79565 8 5ZM2.5 5C2.5 4.50555 2.64662 4.0222 2.92133 3.61108C3.19603 3.19995 3.58648 2.87952 4.04329 2.6903C4.50011 2.50108 5.00277 2.45158 5.48773 2.54804C5.97268 2.6445 6.41814 2.8826 6.76777 3.23223C7.1174 3.58187 7.3555 4.02732 7.45196 4.51228C7.54843 4.99723 7.49892 5.49989 7.3097 5.95671C7.12048 6.41353 6.80005 6.80397 6.38893 7.07868C5.9778 7.35338 5.49445 7.5 5 7.5C4.33719 7.49926 3.70173 7.23563 3.23305 6.76695C2.76437 6.29827 2.50074 5.66282 2.5 5Z" fill="black"/>
</svg>
