<svg width="24" height="24" viewBox="0 0 24 24" fill="none" xmlns="http://www.w3.org/2000/svg">
<path d="M12 2C10.0222 2 8.08879 2.58649 6.4443 3.6853C4.79981 4.78412 3.51809 6.3459 2.76121 8.17317C2.00433 10.0004 1.8063 12.0111 2.19215 13.9509C2.578 15.8907 3.53041 17.6725 4.92894 19.0711C6.32746 20.4696 8.10929 21.422 10.0491 21.8079C11.9889 22.1937 13.9996 21.9957 15.8268 21.2388C17.6541 20.4819 19.2159 19.2002 20.3147 17.5557C21.4135 15.9112 22 13.9778 22 12C22 10.6868 21.7413 9.38642 21.2388 8.17317C20.7363 6.95991 19.9997 5.85752 19.0711 4.92893C18.1425 4.00035 17.0401 3.26375 15.8268 2.7612C14.6136 2.25866 13.3132 2 12 2ZM12.8252 11.1748V3.6918C14.4733 3.85441 16.0353 4.50557 17.3108 5.5618C16.0931 7.19592 15.3659 9.14302 15.2144 11.1753L12.8252 11.1748ZM11.1752 11.1748H8.7856C8.63406 9.14252 7.9069 7.19542 6.6892 5.5613C7.96481 4.50525 9.52677 3.85426 11.1748 3.6918L11.1752 11.1748ZM7.1357 11.1748H3.6918C3.85248 9.55294 4.48663 8.01415 5.5153 6.75C6.43462 8.05702 6.99337 9.58317 7.1353 11.1748H7.1357ZM7.1357 12.8248C6.99445 14.4167 6.43564 15.9432 5.5157 17.25C4.48685 15.9858 3.85256 14.447 3.6918 12.825L7.1357 12.8248ZM8.7857 12.8248H11.1757V20.3078C9.52753 20.1453 7.96549 19.4941 6.6899 18.4378C7.90738 16.804 8.63421 14.8571 8.7853 12.8252L8.7857 12.8248ZM12.8257 12.8248H15.2157C15.367 14.857 16.0941 16.8041 17.312 18.438C16.0364 19.4943 14.4744 20.1455 12.8262 20.308L12.8257 12.8248ZM16.8657 12.8248H20.3089C20.1482 14.4468 19.5139 15.9857 18.485 17.2498C17.5652 15.9431 17.0064 14.4169 16.865 12.8252L16.8657 12.8248ZM16.8657 11.1748C17.0077 9.58325 17.5665 8.05719 18.4857 6.7502C19.5143 8.0143 20.1485 9.55301 20.3092 11.1748H16.8657Z" fill="black"/>
</svg>
