<svg width="24" height="24" viewBox="0 0 24 24" fill="none" xmlns="http://www.w3.org/2000/svg">
<path d="M20.3406 6.2845C19.8581 5.78995 19.2818 5.39662 18.6454 5.12754C18.0091 4.85845 17.3254 4.71902 16.6345 4.7174C15.7495 4.75019 14.8799 4.95859 14.0761 5.33049C13.2724 5.70239 12.5506 6.23036 11.9528 6.8837C9.687 9.15 8.9006 12.2 9.8047 14.4246C9.94841 14.7845 9.98288 15.1788 9.90379 15.5583C9.8247 15.9377 9.63556 16.2854 9.36 16.5579L4.6558 21.2617L5.3628 21.9688L10.0767 17.2552C10.3511 16.9779 10.7015 16.7882 11.0837 16.7101C11.4658 16.6319 11.8626 16.6687 12.2238 16.816C12.8392 17.067 13.4981 17.1939 14.1627 17.1894C16.2794 17.1101 18.2813 16.2069 19.7415 14.6724C22.554 11.86 22.4914 8.4354 20.3406 6.2845ZM19.0344 13.9653C17.7577 15.3067 16.0125 16.1034 14.1627 16.1894C13.6668 16.2074 13.1723 16.126 12.7084 15.9498C12.2445 15.7736 11.8205 15.5063 11.4616 15.1636C9.7041 13.4061 10.2416 10.009 12.6599 7.5908C13.1651 7.03056 13.7767 6.57642 14.4592 6.25479C15.1416 5.93317 15.8811 5.75049 16.6348 5.7174C17.1945 5.71793 17.7484 5.83102 18.2636 6.04993C18.7787 6.26885 19.2446 6.58912 19.6335 6.9917C20.0578 7.40478 20.3901 7.90268 20.609 8.45289C20.8278 9.00311 20.9282 9.59328 20.9035 10.1849C20.777 11.635 20.1098 12.9844 19.0344 13.9653ZM8 5C8 4.40666 7.82405 3.82664 7.49441 3.33329C7.16477 2.83994 6.69623 2.45543 6.14805 2.22836C5.59987 2.0013 4.99667 1.94189 4.41473 2.05765C3.83279 2.1734 3.29824 2.45912 2.87868 2.87868C2.45912 3.29824 2.1734 3.83279 2.05765 4.41473C1.94189 4.99667 2.0013 5.59987 2.22836 6.14805C2.45543 6.69623 2.83994 7.16477 3.33329 7.49441C3.82664 7.82405 4.40666 8 5 8C5.79565 8 6.55871 7.68393 7.12132 7.12132C7.68393 6.55871 8 5.79565 8 5ZM3 5C3 4.60444 3.1173 4.21776 3.33706 3.88886C3.55682 3.55996 3.86918 3.30362 4.23463 3.15224C4.60009 3.00087 5.00222 2.96126 5.39018 3.03843C5.77814 3.1156 6.13451 3.30608 6.41422 3.58579C6.69392 3.86549 6.8844 4.22186 6.96157 4.60982C7.03874 4.99778 6.99914 5.39992 6.84776 5.76537C6.69639 6.13082 6.44004 6.44318 6.11114 6.66294C5.78224 6.8827 5.39556 7 5 7C4.46976 6.99939 3.9614 6.78848 3.58646 6.41354C3.21152 6.0386 3.00061 5.53025 3 5Z" fill="black"/>
</svg>
