<svg width="24" height="24" viewBox="0 0 24 24" fill="none" xmlns="http://www.w3.org/2000/svg">
<path d="M8.483 10.8572L9.8264 14.9918H14.1736L15.517 10.8572L12 8.3019L8.483 10.8572ZM12 2C10.0222 2 8.08879 2.58649 6.4443 3.6853C4.79981 4.78412 3.51809 6.3459 2.76121 8.17317C2.00433 10.0004 1.8063 12.0111 2.19215 13.9509C2.578 15.8907 3.53041 17.6725 4.92894 19.0711C6.32746 20.4696 8.10929 21.422 10.0491 21.8079C11.9889 22.1937 13.9996 21.9957 15.8268 21.2388C17.6541 20.4819 19.2159 19.2002 20.3147 17.5557C21.4135 15.9112 22 13.9778 22 12C22 10.6868 21.7413 9.38642 21.2388 8.17317C20.7363 6.95991 19.9997 5.85752 19.0711 4.92893C18.1425 4.00035 17.0401 3.26375 15.8268 2.7612C14.6136 2.25866 13.3132 2 12 2ZM15.7226 17.1237L14.4047 21.18C12.83 21.6071 11.17 21.6071 9.5953 21.18L8.2774 17.124H4.0126C3.13048 15.753 2.6189 14.1768 2.5278 12.5491L5.9767 10.0432L4.6567 5.9811C5.69156 4.72364 7.03117 3.75211 8.5479 3.1591L12 5.6667L15.4519 3.1588C16.9686 3.75181 18.3082 4.72334 19.3431 5.9808L18.0231 10.0429L21.472 12.5487C21.3809 14.1764 20.8693 15.7527 19.9872 17.1237H15.7226Z" fill="black"/>
</svg>
