<svg width="24" height="24" viewBox="0 0 24 24" fill="none" xmlns="http://www.w3.org/2000/svg">
<path d="M22.3101 5.09434C22.1979 4.23077 21.8031 3.42858 21.1874 2.81282C20.5716 2.19705 19.7694 1.80232 18.9059 1.69014C18.2637 1.60958 17.6172 1.56923 16.9701 1.56934C14.7838 1.5685 12.6225 2.03325 10.6299 2.93266C8.63728 3.83207 6.85903 5.14552 5.41349 6.78562C3.96795 8.42571 2.88826 10.3548 2.24625 12.4447C1.60424 14.5345 1.41464 16.737 1.69006 18.9058C1.80225 19.7694 2.197 20.5716 2.81278 21.1874C3.42856 21.8032 4.23077 22.1979 5.09436 22.3101C5.73634 22.3907 6.38273 22.431 7.02976 22.431C9.216 22.4319 11.3774 21.9672 13.37 21.0678C15.3627 20.1684 17.141 18.8549 18.5866 17.2148C20.0321 15.5747 21.1119 13.6455 21.7539 11.5556C22.3959 9.46578 22.5855 7.26316 22.3101 5.09434ZM16.5079 16.5079C15.2659 17.756 13.7887 18.7454 12.1618 19.4188C10.5349 20.0922 8.7906 20.4362 7.02986 20.4309C6.46605 20.4308 5.90279 20.3956 5.34336 20.3255C4.92083 20.2686 4.52871 20.0744 4.22723 19.773C3.92576 19.4715 3.73162 19.0794 3.67466 18.6568C3.43457 16.7695 3.59922 14.8527 4.15764 13.034C4.71607 11.2153 5.65546 9.53635 6.9133 8.10896C8.17114 6.68158 9.71858 5.53847 11.4526 4.75572C13.1867 3.97298 15.0675 3.56854 16.9701 3.56934C17.5338 3.56945 18.097 3.60462 18.6565 3.67464C19.079 3.73162 19.4711 3.92577 19.7726 4.22726C20.0741 4.52875 20.2683 4.92089 20.3253 5.34344C20.5882 7.37252 20.3806 9.4349 19.7187 11.3709C19.0567 13.3069 17.9581 15.0646 16.5079 16.5079ZM15.9951 9.27794L15.6768 8.95984L14.0212 7.30374C13.9378 7.21905 13.8386 7.1517 13.7291 7.10557C13.6196 7.05944 13.5021 7.03544 13.3833 7.03496C13.2644 7.03448 13.1467 7.05753 13.0369 7.10278C12.927 7.14802 12.8272 7.21457 12.7432 7.29858C12.6592 7.3826 12.5927 7.48241 12.5474 7.59227C12.5022 7.70212 12.4791 7.81985 12.4796 7.93865C12.4801 8.05746 12.5041 8.17499 12.5503 8.28447C12.5964 8.39396 12.6638 8.49322 12.7485 8.57654L13.4494 9.27744L12.0001 10.727L11.2992 10.0261C11.1304 9.85735 10.9015 9.76253 10.6628 9.76253C10.4241 9.76253 10.1951 9.85735 10.0264 10.0261C9.85757 10.1949 9.76275 10.4238 9.76275 10.6625C9.76275 10.9012 9.85757 11.1302 10.0264 11.2989L10.727 12.0001L9.27696 13.4501L8.57606 12.7493C8.49274 12.6646 8.39347 12.5973 8.28399 12.5511C8.17451 12.505 8.05698 12.481 7.93817 12.4805C7.81937 12.48 7.70164 12.5031 7.59178 12.5483C7.48193 12.5935 7.38211 12.6601 7.2981 12.7441C7.21409 12.8281 7.14754 12.9279 7.1023 13.0378C7.05705 13.1476 7.034 13.2653 7.03448 13.3841C7.03496 13.5029 7.05896 13.6205 7.10509 13.73C7.15122 13.8394 7.21857 13.9387 7.30326 14.022L9.97856 16.6973C10.0619 16.782 10.1611 16.8494 10.2706 16.8955C10.3801 16.9416 10.4977 16.9656 10.6165 16.9661C10.7353 16.9666 10.853 16.9435 10.9628 16.8983C11.0727 16.8531 11.1725 16.7865 11.2565 16.7025C11.3405 16.6185 11.4071 16.5187 11.4523 16.4088C11.4975 16.299 11.5206 16.1812 11.5201 16.0624C11.5196 15.9436 11.4956 15.8261 11.4494 15.7166C11.4033 15.6071 11.3359 15.5079 11.2513 15.4245L10.5504 14.7235L12.0001 13.273L12.7012 13.9741C12.8699 14.1429 13.0989 14.2377 13.3376 14.2377C13.5763 14.2377 13.8052 14.1429 13.974 13.9741C14.1427 13.8054 14.2376 13.5764 14.2376 13.3377C14.2376 13.099 14.1427 12.8701 13.974 12.7013L13.2729 12.0001L14.7229 10.5501L15.4242 11.2513C15.5077 11.3349 15.6069 11.4012 15.7161 11.4464C15.8253 11.4917 15.9424 11.5149 16.0606 11.5149C16.1787 11.5149 16.2958 11.4917 16.405 11.4464C16.5142 11.4012 16.6134 11.3349 16.697 11.2513C16.7805 11.1678 16.8468 11.0685 16.8921 10.9594C16.9373 10.8502 16.9606 10.7331 16.9606 10.6149C16.9606 10.4967 16.9373 10.3797 16.8921 10.2705C16.8468 10.1613 16.7805 10.0621 16.697 9.97854L15.9951 9.27794Z" fill="black"/>
</svg>
