<svg width="24" height="24" viewBox="0 0 24 24" fill="none" xmlns="http://www.w3.org/2000/svg">
<path d="M14.9946 14.3153C14.9946 14.2971 15 14.2803 15 14.262V12.3153C15 12.0501 15.1054 11.7958 15.2929 11.6082C15.4805 11.4207 15.7348 11.3153 16 11.3153H20V10.3888C19.9998 8.00248 19.0519 5.7139 17.3646 4.02639C15.6772 2.33888 13.3888 1.39061 11.0024 1.39014H10.9269C8.5606 1.41014 6.29733 2.36116 4.62694 4.03737C2.95654 5.71359 2.0134 7.98015 2.00163 10.3465C2.00083 10.5198 2.00053 10.6771 2.00063 10.8154C2.00179 12.1667 2.29405 13.5019 2.85753 14.7301L3.73173 14.9849C4.08772 15.0887 4.41737 15.2675 4.69852 15.5093C4.97967 15.7511 5.20581 16.0503 5.36173 16.3867C5.71284 17.1508 6.24995 17.8146 6.92392 18.3174C7.59789 18.8202 8.38719 19.146 9.2196 19.2649C10.052 19.3838 10.901 19.2921 11.6888 18.9981C12.4765 18.7041 13.178 18.2172 13.729 17.582L16.4178 22.239L22 22.3153V14.3153H14.9946ZM10 15.0751C9.78741 15.0751 9.57957 15.0121 9.40279 14.894C9.22601 14.7758 9.08822 14.608 9.00686 14.4115C8.92549 14.2151 8.90421 13.9989 8.94568 13.7904C8.98716 13.5819 9.08955 13.3903 9.23989 13.24C9.39023 13.0897 9.58178 12.9873 9.79031 12.9458C9.99884 12.9043 10.215 12.9256 10.4114 13.007C10.6078 13.0883 10.7757 13.2261 10.8939 13.4029C11.012 13.5797 11.075 13.7875 11.075 14.0001C11.075 14.2852 10.9618 14.5587 10.7602 14.7603C10.5586 14.9619 10.2851 15.0751 10 15.0751ZM20.6 20.896L17.2323 20.8501L16.1733 19.0159H20.6V20.896ZM20.6 17.6153H15.3649L14.5843 16.2633C14.654 16.0842 14.7134 15.9012 14.7623 15.7153H20.6V17.6153Z" fill="black"/>
</svg>
