<svg width="24" height="24" viewBox="0 0 24 24" fill="none" xmlns="http://www.w3.org/2000/svg">
<path d="M8.29319 8.29332C12.2322 4.35442 16.6516 2.10672 19.2816 2.47282C15.8154 0.538217 10.3063 1.96822 6.13719 6.13732C1.96809 10.3064 0.538095 15.8155 2.47269 19.2817C2.10659 16.6517 4.35429 12.2323 8.29319 8.29332ZM15.7068 15.7069C11.7678 19.6458 7.34839 21.8935 4.71839 21.5274C8.18449 23.4619 13.6937 22.032 17.8628 17.8629C22.0319 13.6938 23.4618 8.18462 21.5273 4.71852C21.8934 7.34852 19.6457 11.7679 15.7068 15.7069ZM15.2961 15.2962C20.0267 10.5656 22.3861 5.25512 20.5654 3.43472C18.7447 1.61432 13.4345 3.97342 8.70389 8.70402C3.97329 13.4346 1.61389 18.7452 3.43459 20.5655C5.25529 22.3858 10.5655 20.0268 15.2961 15.2962Z" fill="black"/>
</svg>
