<svg width="24" height="24" viewBox="0 0 24 24" fill="none" xmlns="http://www.w3.org/2000/svg">
<path d="M22.3101 5.09434C22.1979 4.23077 21.8031 3.42858 21.1874 2.81282C20.5716 2.19705 19.7694 1.80232 18.9059 1.69014C18.2637 1.60958 17.6172 1.56923 16.9701 1.56934C14.7838 1.5685 12.6225 2.03325 10.6299 2.93266C8.63728 3.83207 6.85903 5.14552 5.41349 6.78562C3.96795 8.42571 2.88826 10.3548 2.24625 12.4447C1.60424 14.5345 1.41464 16.737 1.69006 18.9058C1.80225 19.7694 2.197 20.5716 2.81278 21.1874C3.42856 21.8032 4.23077 22.1979 5.09436 22.3101C5.73634 22.3907 6.38273 22.431 7.02976 22.431C9.216 22.4319 11.3774 21.9672 13.37 21.0678C15.3627 20.1684 17.141 18.8549 18.5866 17.2148C20.0321 15.5747 21.1119 13.6455 21.7539 11.5556C22.3959 9.46578 22.5855 7.26316 22.3101 5.09434ZM16.8615 16.8614C15.5732 18.1562 14.0409 19.1826 12.3533 19.8813C10.6657 20.5799 8.85625 20.9368 7.02976 20.9314C6.44519 20.9313 5.86119 20.8949 5.28116 20.8222C4.74875 20.7504 4.25466 20.5058 3.87479 20.1259C3.49492 19.746 3.25028 19.2519 3.17846 18.7195C2.92949 16.7618 3.10034 14.7735 3.67964 12.887C4.25894 11.0004 5.2334 9.25891 6.53818 7.7783C7.84295 6.29769 9.44811 5.11196 11.2468 4.30001C13.0455 3.48807 14.9966 3.06854 16.9701 3.06934C17.5547 3.06945 18.1387 3.10592 18.7188 3.17854C19.2512 3.25028 19.7453 3.49488 20.1253 3.87474C20.5052 4.2546 20.7498 4.74871 20.8217 5.28114C21.0943 7.38584 20.8789 9.52505 20.1921 11.5332C19.5054 13.5413 18.3658 15.3644 16.8615 16.8614ZM13.8801 7.16234C13.8151 7.09733 13.7379 7.04577 13.6529 7.01059C13.568 6.97541 13.477 6.9573 13.3851 6.9573C13.2931 6.9573 13.2021 6.97541 13.1172 7.01059C13.0322 7.04577 12.9551 7.09733 12.8901 7.16234C12.8251 7.22734 12.7735 7.30451 12.7383 7.38944C12.7031 7.47438 12.685 7.56541 12.685 7.65734C12.685 7.74927 12.7031 7.8403 12.7383 7.92523C12.7735 8.01016 12.8251 8.08733 12.8901 8.15234L13.8389 9.10104L11.965 10.9748L11.0162 10.0261C10.9512 9.96113 10.874 9.90957 10.789 9.87439C10.7041 9.83921 10.6131 9.8211 10.5212 9.8211C10.4292 9.8211 10.3382 9.83921 10.2533 9.87439C10.1683 9.90957 10.0912 9.96113 10.0262 10.0261C9.96115 10.0911 9.90959 10.1683 9.87441 10.2532C9.83923 10.3382 9.82112 10.4292 9.82112 10.5211C9.82112 10.6131 9.83923 10.7041 9.87441 10.789C9.90959 10.874 9.96115 10.9511 10.0262 11.0161L10.975 11.9649L9.10106 13.8386L8.15226 12.8901C8.08725 12.8251 8.01008 12.7736 7.92515 12.7384C7.84022 12.7032 7.74919 12.6851 7.65726 12.6851C7.56533 12.6851 7.4743 12.7032 7.38936 12.7384C7.30443 12.7736 7.22726 12.8251 7.16226 12.8901C7.09725 12.9551 7.04569 13.0323 7.01051 13.1172C6.97533 13.2022 6.95722 13.2932 6.95722 13.3851C6.95722 13.4771 6.97533 13.5681 7.01051 13.653C7.04569 13.738 7.09725 13.8151 7.16226 13.8801L10.1201 16.8379C10.2513 16.9692 10.4294 17.043 10.6151 17.043C10.8007 17.043 10.9788 16.9692 11.1101 16.8379C11.2413 16.7067 11.3151 16.5286 11.3151 16.3429C11.3151 16.1573 11.2413 15.9792 11.1101 15.8479L10.1614 14.8991L12.0352 13.0253L12.984 13.9741C13.049 14.0391 13.1261 14.0907 13.2111 14.1259C13.296 14.1611 13.387 14.1792 13.479 14.1792C13.5709 14.1792 13.6619 14.1611 13.7468 14.1259C13.8318 14.0907 13.909 14.0391 13.974 13.9741C14.039 13.9091 14.0905 13.832 14.1257 13.747C14.1609 13.6621 14.179 13.5711 14.179 13.4791C14.179 13.3872 14.1609 13.2962 14.1257 13.2112C14.0905 13.1263 14.039 13.0491 13.974 12.9841L13.0253 12.0353L14.8991 10.1614L15.8478 11.1102C15.9128 11.1752 15.9899 11.2268 16.0749 11.262C16.1598 11.2972 16.2508 11.3153 16.3428 11.3153C16.4347 11.3153 16.5257 11.2972 16.6106 11.262C16.6956 11.2268 16.7728 11.1752 16.8378 11.1102C16.9028 11.0452 16.9543 10.9681 16.9895 10.8831C17.0247 10.7982 17.0428 10.7072 17.0428 10.6152C17.0428 10.5233 17.0247 10.4323 16.9895 10.3473C16.9543 10.2624 16.9028 10.1852 16.8378 10.1202L13.8801 7.16234Z" fill="black"/>
</svg>
