<svg width="24" height="24" viewBox="0 0 24 24" fill="none" xmlns="http://www.w3.org/2000/svg">
<path d="M6.49997 7.5C7.94487 7.5 9.49997 7.0306 9.49997 6V3.9722H9.49457C9.46507 2.9623 7.93097 2.5 6.49997 2.5C5.06897 2.5 3.53487 2.9623 3.50537 3.9722H3.49997V6C3.49997 7.0306 5.05507 7.5 6.49997 7.5ZM6.49997 3C7.88067 3 8.99997 3.4477 8.99997 4C8.99997 4.5523 7.88067 5 6.49997 5C5.11927 5 3.99997 4.5523 3.99997 4C3.99997 3.4477 5.11927 3 6.49997 3ZM3.99997 4.8693C4.7533 5.32043 5.62278 5.53979 6.49997 5.5C7.37715 5.53979 8.24663 5.32043 8.99997 4.8693V6C8.99997 6.5522 7.88067 7 6.49997 7C5.11927 7 3.99997 6.5522 3.99997 6V4.8693ZM19.1573 3.7336L10.1773 16.4725L3.14197 16.4246L3.86817 21H9.07087C9.55216 21 10.0264 20.8842 10.4535 20.6624C10.8807 20.4406 11.2481 20.1192 11.525 19.7255L21.5893 5.4119L19.1573 3.7336ZM11.116 19.4379C10.8851 19.7659 10.5789 20.0335 10.2229 20.2184C9.86704 20.4032 9.47191 20.4998 9.07087 20.5H4.29507L3.72827 16.9286L10.1741 16.9725L10.4355 16.9742L10.5862 16.7606L19.2808 4.4263L20.89 5.5369L11.116 19.4379Z" fill="black"/>
</svg>
