<svg width="24" height="24" viewBox="0 0 24 24" fill="none" xmlns="http://www.w3.org/2000/svg">
<path d="M22.31 5.09444C22.1979 4.23085 21.8031 3.42864 21.1874 2.81286C20.5716 2.19707 19.7694 1.80232 18.9058 1.69014C18.2637 1.60958 17.6172 1.56923 16.97 1.56934C14.7838 1.56854 12.6225 2.03331 10.6299 2.93273C8.63731 3.83215 6.85908 5.1456 5.41354 6.78568C3.96801 8.42577 2.88831 10.3549 2.24629 12.4447C1.60427 14.5345 1.41464 16.7371 1.69003 18.9058C1.80222 19.7694 2.19698 20.5716 2.81276 21.1874C3.42854 21.8032 4.23074 22.1979 5.09433 22.3101C5.73632 22.3907 6.38271 22.431 7.02973 22.431C9.21597 22.4319 11.3773 21.9672 13.37 21.0678C15.3627 20.1684 17.141 18.8549 18.5865 17.2148C20.0321 15.5747 21.1118 13.6456 21.7538 11.5557C22.3959 9.46587 22.5855 7.26326 22.31 5.09444ZM17.5685 17.5686C16.1876 18.9564 14.5452 20.0566 12.7362 20.8054C10.9273 21.5541 8.9878 21.9367 7.03003 21.9309C6.40384 21.9308 5.77826 21.8918 5.15693 21.8139C4.40495 21.7124 3.7071 21.3669 3.17055 20.8303C2.634 20.2938 2.28843 19.5959 2.18693 18.8439C1.92029 16.7456 2.10359 14.6144 2.72464 12.5924C3.34568 10.5704 4.39022 8.70379 5.78876 7.11684C7.18731 5.5299 8.90777 4.25899 10.8357 3.38868C12.7636 2.51836 14.8548 2.06861 16.97 2.06934C17.5963 2.06945 18.2219 2.10852 18.8432 2.18634C19.5952 2.28784 20.2931 2.63341 20.8296 3.16996C21.3662 3.7065 21.7117 4.40436 21.8132 5.15634C22.1054 7.41225 21.8746 9.70516 21.1385 11.8575C20.4025 14.0099 19.1809 15.9641 17.5685 17.5686ZM13.5615 6.84414C13.5146 6.79725 13.451 6.7709 13.3847 6.7709C13.3184 6.7709 13.2548 6.79725 13.2079 6.84414C13.161 6.89103 13.1347 6.95462 13.1347 7.02094C13.1347 7.08725 13.161 7.15085 13.2079 7.19774L14.8279 8.81774L12 11.6466L10.38 10.0266C10.3329 9.9811 10.2697 9.9559 10.2042 9.95647C10.1386 9.95704 10.0759 9.98333 10.0296 10.0297C9.98322 10.076 9.95693 10.1387 9.95636 10.2043C9.95579 10.2698 9.98099 10.333 10.0265 10.3801L11.6465 12.0001L8.81813 14.8285L7.19813 13.2085C7.15124 13.1616 7.08764 13.1353 7.02133 13.1353C6.95502 13.1353 6.89142 13.1616 6.84453 13.2085C6.79764 13.2554 6.7713 13.319 6.7713 13.3853C6.7713 13.4516 6.79764 13.5152 6.84453 13.5621L10.439 17.1565C10.486 17.2031 10.5495 17.2291 10.6156 17.229C10.6817 17.2289 10.745 17.2026 10.7918 17.1558C10.8386 17.1091 10.8649 17.0457 10.8651 16.9796C10.8652 16.9135 10.8392 16.85 10.7926 16.803L9.17263 15.183L12 12.3536L13.62 13.9736C13.6432 13.997 13.6708 14.0156 13.7012 14.0283C13.7315 14.041 13.7641 14.0475 13.797 14.0476C13.83 14.0477 13.8626 14.0412 13.893 14.0287C13.9234 14.0161 13.9511 13.9976 13.9744 13.9744C13.9976 13.9511 14.0161 13.9234 14.0286 13.893C14.0412 13.8626 14.0476 13.83 14.0476 13.797C14.0475 13.7641 14.0409 13.7315 14.0282 13.7011C14.0155 13.6708 13.9969 13.6432 13.9735 13.62L12.3535 12.0001L15.1819 9.17174L16.8019 10.7917C16.8251 10.8151 16.8527 10.8337 16.883 10.8464C16.9134 10.8591 16.946 10.8657 16.9789 10.8658C17.0118 10.8658 17.0445 10.8594 17.0749 10.8468C17.1053 10.8343 17.133 10.8158 17.1563 10.7926C17.1795 10.7693 17.198 10.7416 17.2106 10.7112C17.2231 10.6808 17.2296 10.6482 17.2295 10.6152C17.2294 10.5823 17.2229 10.5497 17.2102 10.5194C17.1975 10.489 17.1789 10.4614 17.1555 10.4382L13.5615 6.84414Z" fill="black"/>
</svg>
