<svg width="24" height="24" viewBox="0 0 24 24" fill="none" xmlns="http://www.w3.org/2000/svg">
<path d="M22.5834 6.0833L19 2H4.99999L1.41669 6.0833L7.52529 14.81C7.1842 15.4899 7.00445 16.2393 6.99999 17C6.99999 18.3261 7.52677 19.5979 8.46445 20.5355C9.40213 21.4732 10.6739 22 12 22C13.3261 22 14.5978 21.4732 15.5355 20.5355C16.4732 19.5979 17 18.3261 17 17C16.9955 16.2393 16.8158 15.4899 16.4747 14.81L22.5834 6.0833ZM16.2081 14.3188C15.8089 13.6954 15.2756 13.1689 14.647 12.7778C14.0185 12.3867 13.3106 12.1407 12.575 12.0579L12.5729 12.0534L19.0444 2.8085L21.9487 6.1185L16.2081 14.3188ZM12 12L8.49999 7H15.5L12 12ZM18.65 2.5L15.85 6.5H8.14999L5.34999 2.5H18.65ZM2.05129 6.1181L4.95569 2.8081L11.4271 12.053L11.425 12.0575C10.6893 12.1403 9.98146 12.3863 9.35294 12.7774C8.72442 13.1685 8.19111 13.695 7.79189 14.3184L2.05129 6.1181ZM12 21.5C11.11 21.5 10.2399 21.2361 9.49992 20.7416C8.7599 20.2471 8.18312 19.5443 7.84253 18.7221C7.50194 17.8998 7.41282 16.995 7.58645 16.1221C7.76009 15.2492 8.18867 14.4474 8.81801 13.818C9.44734 13.1887 10.2492 12.7601 11.1221 12.5865C11.995 12.4128 12.8998 12.5019 13.7221 12.8425C14.5443 13.1831 15.2471 13.7599 15.7416 14.4999C16.2361 15.24 16.5 16.11 16.5 17C16.4986 18.1931 16.0241 19.3369 15.1805 20.1805C14.3369 21.0241 13.193 21.4986 12 21.5Z" fill="black"/>
</svg>
