<svg width="24" height="24" viewBox="0 0 24 24" fill="none" xmlns="http://www.w3.org/2000/svg">
<path d="M8 22H18V18H8V22ZM17 2H10C9.20435 2 8.44129 2.31607 7.87868 2.87868C7.31607 3.44129 7 4.20435 7 5V7C7 8.06087 7.42143 9.07828 8.17157 9.82843C8.92172 10.5786 9.93913 11 11 11H16C17.0609 11 18.0783 10.5786 18.8284 9.82843C19.5786 9.07828 20 8.06087 20 7V5C20 4.20435 19.6839 3.44129 19.1213 2.87868C18.5587 2.31607 17.7956 2 17 2ZM16 12H11C9.67438 11.9985 8.40349 11.4712 7.46613 10.5339C6.52878 9.59651 6.00151 8.32562 6 7V6C5.46957 6 4.96086 6.21071 4.58579 6.58579C4.21071 6.96086 4 7.46957 4 8V9.6863C4 11.808 4.84284 13.8428 6.3431 15.3431L8 17H18C19.2806 15.7194 20 13.9826 20 12.1716V9.9692C19.5385 10.5969 18.9363 11.1077 18.2416 11.4604C17.5469 11.8131 16.7791 11.9979 16 12Z" fill="black"/>
</svg>
