<svg width="24" height="24" viewBox="0 0 24 24" fill="none" xmlns="http://www.w3.org/2000/svg">
<path d="M22.31 5.09413C22.1978 4.23055 21.8031 3.42836 21.1873 2.8126C20.5715 2.19683 19.7693 1.8021 18.9057 1.68993C16.5745 1.39406 14.2064 1.63565 11.983 2.3962C9.75948 3.15676 7.73956 4.41609 6.07789 6.07776C4.41622 7.73944 3.15688 9.75936 2.39633 11.9828C1.63577 14.2063 1.39418 16.5744 1.69005 18.9056C1.80224 19.7692 2.197 20.5714 2.81278 21.1872C3.42856 21.803 4.23076 22.1977 5.09435 22.3099C7.42559 22.6057 9.7936 22.364 12.017 21.6034C14.2405 20.8428 16.2603 19.5834 17.922 17.9218C19.5836 16.2601 20.843 14.2402 21.6036 12.0168C22.3641 9.79338 22.6058 7.42537 22.31 5.09413ZM17.156 10.7919C17.1328 10.8151 17.1053 10.8336 17.0749 10.8461C17.0446 10.8587 17.0121 10.8652 16.9792 10.8652C16.9464 10.8652 16.9139 10.8587 16.8836 10.8461C16.8532 10.8336 16.8257 10.8151 16.8024 10.7919L15.1824 9.17193L12.3535 11.9999L13.9735 13.6199C13.9969 13.6431 14.0155 13.6707 14.0282 13.701C14.0409 13.7314 14.0475 13.764 14.0476 13.7969C14.0476 13.8298 14.0412 13.8625 14.0287 13.8929C14.0161 13.9233 13.9977 13.951 13.9744 13.9743C13.9511 13.9975 13.9235 14.016 13.893 14.0286C13.8626 14.0411 13.83 14.0476 13.7971 14.0475C13.7641 14.0474 13.7316 14.0409 13.7012 14.0282C13.6708 14.0155 13.6432 13.9969 13.62 13.9735L12 12.3534L9.17165 15.1818L10.7916 16.8018C10.8382 16.8488 10.8642 16.9123 10.8641 16.9784C10.8639 17.0445 10.8376 17.1079 10.7908 17.1546C10.7441 17.2013 10.6807 17.2277 10.6146 17.2278C10.5485 17.2279 10.485 17.2019 10.438 17.1553L6.84405 13.5614C6.79716 13.5145 6.77082 13.4509 6.77082 13.3846C6.77082 13.3183 6.79716 13.2547 6.84405 13.2078C6.89094 13.1609 6.95454 13.1346 7.02085 13.1346C7.08716 13.1346 7.15076 13.1609 7.19765 13.2078L8.81765 14.8278L11.6465 11.9999L10.0265 10.3799C9.98101 10.3328 9.95581 10.2696 9.95638 10.2041C9.95695 10.1385 9.98324 10.0758 10.0296 10.0295C10.0759 9.98312 10.1386 9.95683 10.2042 9.95626C10.2697 9.95569 10.3329 9.98089 10.38 10.0264L12 11.6464L14.8284 8.81803L13.2084 7.19803C13.1616 7.15114 13.1352 7.08754 13.1352 7.02123C13.1352 6.95491 13.1616 6.89132 13.2084 6.84443C13.2553 6.79754 13.3189 6.77119 13.3852 6.77119C13.4516 6.77119 13.5152 6.79754 13.562 6.84443L17.1565 10.4389C17.2032 10.4859 17.2293 10.5494 17.2292 10.6155C17.2292 10.6817 17.2028 10.7451 17.156 10.7919Z" fill="black"/>
</svg>
