<svg width="24" height="24" viewBox="0 0 24 24" fill="none" xmlns="http://www.w3.org/2000/svg">
<path d="M8 5C8 4.40666 7.82405 3.82664 7.49441 3.33329C7.16477 2.83994 6.69623 2.45543 6.14805 2.22836C5.59987 2.0013 4.99667 1.94189 4.41473 2.05765C3.83279 2.1734 3.29824 2.45912 2.87868 2.87868C2.45912 3.29824 2.1734 3.83279 2.05765 4.41473C1.94189 4.99667 2.0013 5.59987 2.22836 6.14805C2.45543 6.69623 2.83994 7.16477 3.33329 7.49441C3.82664 7.82405 4.40666 8 5 8C5.79565 8 6.55871 7.68393 7.12132 7.12132C7.68393 6.55871 8 5.79565 8 5ZM5 7C4.60444 7 4.21776 6.8827 3.88886 6.66294C3.55996 6.44318 3.30362 6.13082 3.15224 5.76537C3.00087 5.39992 2.96126 4.99778 3.03843 4.60982C3.1156 4.22186 3.30608 3.86549 3.58579 3.58579C3.86549 3.30608 4.22186 3.1156 4.60982 3.03843C4.99778 2.96126 5.39992 3.00087 5.76537 3.15224C6.13082 3.30362 6.44318 3.55996 6.66294 3.88886C6.8827 4.21776 7 4.60444 7 5C6.99939 5.53025 6.78848 6.0386 6.41354 6.41354C6.0386 6.78848 5.53025 6.99939 5 7ZM20.0732 7.2924C19.535 6.72789 18.8883 6.2779 18.1719 5.96944C17.4556 5.66097 16.6843 5.50038 15.9043 5.4973C13.7644 5.59879 11.7508 6.53969 10.3 8.116C9.24727 9.04023 8.53866 10.2938 8.2897 11.6724C8.04075 13.051 8.26613 14.4732 8.9291 15.7073C9.13567 16.0848 9.21421 16.5191 9.1529 16.945C9.09159 17.3709 8.89375 17.7654 8.5891 18.0693L5.3965 21.2617L6.1035 21.9688L9.2947 18.7779C9.59136 18.4738 9.97875 18.2743 10.3986 18.2094C10.8184 18.1445 11.2479 18.2176 11.6226 18.4179C12.5091 18.92 13.5097 19.186 14.5285 19.1902C15.4174 19.1689 16.293 18.97 17.1039 18.6052C17.9147 18.2404 18.6444 17.717 19.25 17.066C22.176 14.14 22.926 10.1453 20.0732 7.2924ZM18.5426 16.3589C18.0293 16.9162 17.4098 17.3653 16.7205 17.6798C16.0311 17.9942 15.2859 18.1677 14.5285 18.19C13.8312 18.1771 13.1433 18.0264 12.5045 17.7464C11.8657 17.4664 11.2886 17.0628 10.8066 16.5587C9.79396 15.5897 9.20729 14.2583 9.1754 12.8571C9.19461 12.0962 9.36663 11.347 9.68125 10.6539C9.99587 9.96084 10.4467 9.33813 11.0068 8.8228C12.2689 7.43219 14.0291 6.59629 15.9044 6.497C16.5532 6.4993 17.1948 6.63375 17.79 6.89215C18.3851 7.15056 18.9214 7.52751 19.3661 8C21.969 10.6024 20.828 14.0735 18.5426 16.3589Z" fill="black"/>
</svg>
