<svg width="24" height="24" viewBox="0 0 24 24" fill="none" xmlns="http://www.w3.org/2000/svg">
<path d="M7.75 20.0629V10.7807L16 6.75L6.2778 2V2.037L6.25 2V20.0629C3.8472 20.1248 2 20.4742 2 20.9C2 21.3694 4.2386 21.75 7 21.75C9.7614 21.75 12 21.3694 12 20.9C12 20.4742 10.1528 20.1248 7.75 20.0629ZM7.75 4.2774L12.8108 6.75L7.75 9.2225V4.2774ZM19 15C18.4067 15 17.8266 15.1759 17.3333 15.5056C16.8399 15.8352 16.4554 16.3038 16.2284 16.8519C16.0013 17.4001 15.9419 18.0033 16.0576 18.5853C16.1734 19.1672 16.4591 19.7018 16.8787 20.1213C17.2982 20.5409 17.8328 20.8266 18.4147 20.9424C18.9967 21.0581 19.5999 20.9987 20.1481 20.7716C20.6962 20.5446 21.1648 20.1601 21.4944 19.6667C21.8241 19.1734 22 18.5933 22 18C22 17.2044 21.6839 16.4413 21.1213 15.8787C20.5587 15.3161 19.7956 15 19 15ZM19 19.55C18.6934 19.55 18.3938 19.4591 18.1389 19.2888C17.884 19.1185 17.6853 18.8764 17.568 18.5932C17.4507 18.3099 17.42 17.9983 17.4798 17.6976C17.5396 17.3969 17.6872 17.1208 17.904 16.904C18.1208 16.6872 18.3969 16.5396 18.6976 16.4798C18.9983 16.42 19.3099 16.4507 19.5932 16.568C19.8764 16.6853 20.1185 16.884 20.2888 17.1389C20.4591 17.3938 20.55 17.6934 20.55 18C20.5495 18.4109 20.3861 18.8049 20.0955 19.0955C19.8049 19.3861 19.4109 19.5495 19 19.55Z" fill="black"/>
</svg>
