<svg width="24" height="24" viewBox="0 0 24 24" fill="none" xmlns="http://www.w3.org/2000/svg">
<path d="M8.483 10.8572L9.8264 14.9918H14.1736L15.517 10.8572L12 8.3019L8.483 10.8572ZM12 2C10.0222 2 8.08879 2.58649 6.4443 3.6853C4.79981 4.78412 3.51809 6.3459 2.76121 8.17317C2.00433 10.0004 1.8063 12.0111 2.19215 13.9509C2.578 15.8907 3.53041 17.6725 4.92894 19.0711C6.32746 20.4696 8.10929 21.422 10.0491 21.8079C11.9889 22.1937 13.9996 21.9957 15.8268 21.2388C17.6541 20.4819 19.2159 19.2002 20.3147 17.5557C21.4135 15.9112 22 13.9778 22 12C22 10.6868 21.7413 9.38642 21.2388 8.17317C20.7363 6.95991 19.9997 5.85752 19.0711 4.92893C18.1425 4.00035 17.0401 3.26375 15.8268 2.7612C14.6136 2.25866 13.3132 2 12 2ZM15.1614 16.3513L13.8841 20.2823C12.6448 20.5726 11.3552 20.5726 10.1159 20.2823L8.8386 16.3513H4.7117C4.05534 15.261 3.65438 14.0363 3.5389 12.7689L6.8848 10.338L5.61 6.4135C6.44572 5.45465 7.4852 4.69472 8.6524 4.1893L12 6.6215L15.3476 4.1893C16.5148 4.69472 17.5543 5.45465 18.39 6.4135L17.1152 10.338L20.4611 12.7689C20.3456 14.0363 19.9447 15.261 19.2883 16.3513H15.1614Z" fill="black"/>
</svg>
