<svg width="24" height="24" viewBox="0 0 24 24" fill="none" xmlns="http://www.w3.org/2000/svg">
<path d="M20.3406 6.2848C19.8581 5.79023 19.2818 5.39689 18.6455 5.12781C18.0091 4.85872 17.3254 4.7193 16.6345 4.7177C15.7495 4.75047 14.8799 4.95886 14.0762 5.33074C13.2724 5.70262 12.5507 6.23057 11.9528 6.8839C9.4564 9.38 8.7581 12.8276 10.1352 15.0757L4.3022 20.9082L5.7163 22.3223L11.5506 16.4885C12.3396 16.9595 13.2439 17.2022 14.1627 17.1896C16.2794 17.1103 18.2813 16.2071 19.7415 14.6727C22.554 11.86 22.4914 8.4356 20.3406 6.2848ZM18.3273 13.2584C17.239 14.4137 15.7476 15.1054 14.1627 15.19C13.4273 15.219 12.7103 14.9555 12.1687 14.4571C11.8673 14.1091 11.6484 13.6975 11.5283 13.2531C11.4081 12.8087 11.3898 12.3429 11.4748 11.8904C11.7048 10.5215 12.368 9.26246 13.3669 8.2986C13.7805 7.83271 14.2822 7.45325 14.843 7.18208C15.4039 6.91091 16.0129 6.75339 16.6349 6.7186C17.5223 6.73898 18.3652 7.11091 18.9784 7.75264C19.5916 8.39436 19.9249 9.25333 19.9049 10.1407C19.7867 11.3405 19.224 12.4526 18.3273 13.2584ZM8 5C8 4.40666 7.82405 3.82664 7.49441 3.33329C7.16477 2.83994 6.69623 2.45543 6.14805 2.22836C5.59987 2.0013 4.99667 1.94189 4.41473 2.05765C3.83279 2.1734 3.29824 2.45912 2.87868 2.87868C2.45912 3.29824 2.1734 3.83279 2.05765 4.41473C1.94189 4.99667 2.0013 5.59987 2.22836 6.14805C2.45543 6.69623 2.83994 7.16477 3.33329 7.49441C3.82664 7.82405 4.40666 8 5 8C5.79565 8 6.55871 7.68393 7.12132 7.12132C7.68393 6.55871 8 5.79565 8 5ZM3.7 5C3.7 4.74289 3.77625 4.49154 3.91909 4.27776C4.06194 4.06398 4.26497 3.89735 4.50251 3.79896C4.74006 3.70056 5.00144 3.67482 5.25362 3.72498C5.50579 3.77514 5.73743 3.89895 5.91924 4.08076C6.10105 4.26257 6.22486 4.49421 6.27502 4.74638C6.32518 4.99856 6.29944 5.25995 6.20105 5.49749C6.10265 5.73503 5.93603 5.93807 5.72224 6.08091C5.50846 6.22376 5.25712 6.3 5 6.3C4.65533 6.29963 4.32489 6.16255 4.08117 5.91883C3.83746 5.67511 3.70037 5.34467 3.7 5Z" fill="black"/>
</svg>
