<svg width="24" height="24" viewBox="0 0 24 24" fill="none" xmlns="http://www.w3.org/2000/svg">
<path d="M12 2C10.0222 2 8.08879 2.58649 6.4443 3.6853C4.79981 4.78412 3.51809 6.3459 2.76121 8.17317C2.00433 10.0004 1.8063 12.0111 2.19215 13.9509C2.578 15.8907 3.53041 17.6725 4.92894 19.0711C6.32746 20.4696 8.10929 21.422 10.0491 21.8079C11.9889 22.1937 13.9996 21.9957 15.8268 21.2388C17.6541 20.4819 19.2159 19.2002 20.3147 17.5557C21.4135 15.9112 22 13.9778 22 12C22 10.6868 21.7413 9.38642 21.2388 8.17317C20.7363 6.95991 19.9997 5.85752 19.0711 4.92893C18.1425 4.00035 17.0401 3.26375 15.8268 2.7612C14.6136 2.25866 13.3132 2 12 2ZM12.6748 11.3252V3.3842C14.49 3.52422 16.214 4.2364 17.5988 5.4183C16.2679 7.11324 15.4859 9.174 15.3575 11.3252H12.6748ZM11.3248 11.3252H8.6425C8.51406 9.174 7.73213 7.11324 6.4012 5.4183C7.786 4.2364 9.51001 3.52422 11.3252 3.3842L11.3248 11.3252ZM7.2924 11.3252H3.3842C3.52507 9.50173 4.24339 7.77061 5.4349 6.3831C6.52138 7.81488 7.16701 9.53227 7.2928 11.3252H7.2924ZM7.2924 12.6752C7.1665 14.4678 6.52068 16.1848 5.434 17.616C4.24292 16.2286 3.52485 14.4979 3.384 12.6748L7.2924 12.6752ZM8.6424 12.6752H11.3253V20.6162C9.5094 20.4759 7.78487 19.7629 6.4 18.58C7.73141 16.8859 8.51373 14.8256 8.6423 12.6748L8.6424 12.6752ZM12.6749 12.6752H15.3578C15.4866 14.8259 16.269 16.8861 17.6005 18.58C16.2155 19.7629 14.4908 20.4757 12.6748 20.6158L12.6749 12.6752ZM16.7075 12.6752H20.6159C20.4751 14.4983 19.757 16.229 18.5659 17.6164C17.479 16.185 16.8332 14.4677 16.7074 12.6748L16.7075 12.6752ZM16.7075 11.3252C16.8333 9.53228 17.4789 7.81489 18.5654 6.3831C19.7569 7.77061 20.4752 9.50173 20.6161 11.3252H16.7075Z" fill="black"/>
</svg>
