<svg width="24" height="24" viewBox="0 0 24 24" fill="none" xmlns="http://www.w3.org/2000/svg">
<path d="M7.80655 11.1501H11.1499V2.04297C8.87237 2.23448 6.73008 3.20397 5.08295 4.78857C6.6645 6.55261 7.6216 8.78809 7.80655 11.1501ZM18.9165 4.78817C17.2695 3.2038 15.1273 2.23446 12.8499 2.04297V11.1501H16.1937C16.3785 8.78819 17.3353 6.55272 18.9165 4.78857V4.78817ZM3.95855 6.07367C2.86117 7.55519 2.19785 9.31292 2.04285 11.1501H6.10725C5.93277 9.27656 5.18212 7.50312 3.95855 6.07367ZM21.957 11.1501C21.8021 9.31278 21.1388 7.5549 20.0413 6.07327C18.8177 7.50283 18.067 9.27642 17.8926 11.1501H21.957ZM2.04285 12.8501C2.19778 14.6874 2.86111 16.4452 3.95855 17.9269C5.1822 16.4973 5.93285 14.7237 6.10725 12.8501H2.04285ZM5.08335 19.2119C6.73047 20.7965 8.87276 21.766 11.1503 21.9576V12.8501H7.80655C7.62171 15.212 6.66476 17.4474 5.08335 19.2115V19.2119ZM20.0413 17.9269C21.1388 16.4452 21.8021 14.6874 21.957 12.8501H17.8926C18.0671 14.7236 18.8178 16.497 20.0413 17.9265V17.9269ZM12.8499 12.8501V21.9576C15.1275 21.766 17.2698 20.7965 18.9169 19.2119C17.3353 17.4478 16.3782 15.2122 16.1933 12.8501H12.8499Z" fill="black"/>
</svg>
