<svg width="24" height="24" viewBox="0 0 24 24" fill="none" xmlns="http://www.w3.org/2000/svg">
<path d="M22.3101 5.09434C22.1979 4.23077 21.8031 3.42858 21.1874 2.81282C20.5716 2.19705 19.7694 1.80232 18.9059 1.69014C18.2637 1.60958 17.6172 1.56923 16.9701 1.56934C14.7838 1.5685 12.6225 2.03325 10.6299 2.93266C8.63728 3.83207 6.85903 5.14552 5.41349 6.78562C3.96795 8.42571 2.88826 10.3548 2.24625 12.4447C1.60424 14.5345 1.41464 16.737 1.69006 18.9058C1.80225 19.7694 2.197 20.5716 2.81278 21.1874C3.42856 21.8032 4.23077 22.1979 5.09436 22.3101C5.73634 22.3907 6.38273 22.431 7.02976 22.431C9.216 22.4319 11.3774 21.9672 13.37 21.0678C15.3627 20.1684 17.141 18.8549 18.5866 17.2148C20.0321 15.5747 21.1119 13.6455 21.7539 11.5556C22.3959 9.46578 22.5855 7.26316 22.3101 5.09434ZM17.2151 17.215C15.8805 18.5563 14.2931 19.6195 12.5448 20.3432C10.7966 21.0668 8.92216 21.4366 7.03006 21.4309C6.42466 21.4308 5.81986 21.3931 5.21916 21.3178C4.57692 21.2312 3.98089 20.9361 3.52265 20.4778C3.06441 20.0196 2.76929 19.4236 2.68266 18.7813C2.42493 16.7533 2.60207 14.6937 3.20228 12.7394C3.80248 10.7852 4.812 8.98118 6.16366 7.44745C7.51531 5.91372 9.1781 4.68544 11.0414 3.84434C12.9047 3.00323 14.9257 2.56859 16.9701 2.56934C17.5754 2.56945 18.1803 2.60722 18.781 2.68244C19.4232 2.76904 20.0192 3.06415 20.4775 3.5224C20.9357 3.98064 21.2308 4.57669 21.3175 5.21894C21.5998 7.39922 21.3767 9.61524 20.6653 11.6955C19.9539 13.7757 18.7733 15.6643 17.215 17.215H17.2151ZM13.7384 7.02094C13.692 6.97417 13.6369 6.93703 13.5761 6.91163C13.5154 6.88623 13.4502 6.87308 13.3844 6.87294C13.3185 6.8728 13.2533 6.88566 13.1924 6.91079C13.1316 6.93592 13.0763 6.97283 13.0297 7.01938C12.9831 7.06594 12.9462 7.12124 12.9211 7.1821C12.896 7.24296 12.8831 7.30819 12.8833 7.37403C12.8834 7.43988 12.8966 7.50505 12.9219 7.5658C12.9473 7.62655 12.9845 7.68168 13.0313 7.72804L14.2983 8.99494L12.0001 11.293L10.7331 10.0261C10.6391 9.93305 10.5122 9.88095 10.38 9.88124C10.2477 9.88153 10.121 9.93418 10.0275 10.0277C9.934 10.1212 9.88134 10.2479 9.88105 10.3801C9.88076 10.5124 9.93287 10.6393 10.026 10.7332L11.2931 12.0001L8.99496 14.2982L7.72796 13.0313C7.6816 12.9846 7.62646 12.9474 7.56571 12.922C7.50496 12.8966 7.4398 12.8835 7.37395 12.8833C7.30811 12.8832 7.24288 12.8961 7.18202 12.9212C7.12116 12.9463 7.06586 12.9832 7.0193 13.0298C6.97274 13.0763 6.93584 13.1316 6.91071 13.1925C6.88558 13.2534 6.87271 13.3186 6.87286 13.3844C6.873 13.4503 6.88615 13.5154 6.91155 13.5762C6.93695 13.6369 6.97409 13.6921 7.02086 13.7384L10.2618 16.9793C10.3081 17.0261 10.3632 17.0632 10.424 17.0886C10.4847 17.114 10.5499 17.1272 10.6158 17.1273C10.6816 17.1275 10.7468 17.1146 10.8077 17.0895C10.8686 17.0644 10.9238 17.0274 10.9704 16.9809C11.017 16.9343 11.0539 16.879 11.079 16.8182C11.1041 16.7573 11.117 16.6921 11.1169 16.6262C11.1167 16.5604 11.1036 16.4952 11.0782 16.4345C11.0528 16.3737 11.0156 16.3186 10.9689 16.2722L9.70195 15.0052L12.0001 12.7071L13.267 13.9741C13.3609 14.0672 13.4878 14.1193 13.6201 14.119C13.7523 14.1187 13.879 14.0661 13.9725 13.9726C14.066 13.8791 14.1187 13.7524 14.119 13.6201C14.1192 13.4879 14.0671 13.3609 13.9741 13.267L12.7072 12.0001L15.0053 9.70204L16.2722 10.969C16.3185 11.0158 16.3736 11.0529 16.4344 11.0783C16.4951 11.1037 16.5603 11.1169 16.6262 11.117C16.692 11.1172 16.7572 11.1043 16.8181 11.0792C16.879 11.0541 16.9342 11.0171 16.9808 10.9706C17.0274 10.924 17.0643 10.8687 17.0894 10.8079C17.1145 10.747 17.1274 10.6818 17.1273 10.6159C17.1271 10.5501 17.114 10.4849 17.0886 10.4242C17.0632 10.3634 17.026 10.3083 16.9793 10.2619L13.7384 7.02094Z" fill="black"/>
</svg>
