<svg width="24" height="24" viewBox="0 0 24 24" fill="none" xmlns="http://www.w3.org/2000/svg">
<path d="M12 2C10.0222 2 8.08879 2.58649 6.4443 3.6853C4.79981 4.78412 3.51809 6.3459 2.76121 8.17317C2.00433 10.0004 1.8063 12.0111 2.19215 13.9509C2.578 15.8907 3.53041 17.6725 4.92894 19.0711C6.32746 20.4696 8.10929 21.422 10.0491 21.8079C11.9889 22.1937 13.9996 21.9957 15.8268 21.2388C17.6541 20.4819 19.2159 19.2002 20.3147 17.5557C21.4135 15.9112 22 13.9778 22 12C22 10.6868 21.7413 9.38642 21.2388 8.17317C20.7363 6.95991 19.9997 5.85752 19.0711 4.92893C18.1425 4.00035 17.0401 3.26375 15.8268 2.7612C14.6136 2.25866 13.3132 2 12 2ZM19.5991 7.1987C20.404 8.46758 20.8757 9.91906 20.9705 11.4187L18.752 9.8057L19.5991 7.1987ZM12 3C12.7492 3.00292 13.495 3.09981 14.22 3.2884L12 4.9L9.78 3.2884C10.505 3.09981 11.2509 3.00292 12 3ZM4.4009 7.1987L5.248 9.8057L3.03 11.4182C3.12474 9.91877 3.59626 8.46748 4.4009 7.1987ZM5.0775 17.7432H7.8275L8.6767 20.3562C7.27802 19.7986 6.04082 18.9004 5.0775 17.7432ZM15.3237 20.3562L16.1729 17.7432H18.9229C17.9596 18.9004 16.7224 19.7986 15.3237 20.3562ZM19.6344 16.7432H15.4463L14.1511 20.7293C12.7397 21.0902 11.2603 21.0902 9.8489 20.7293L8.5537 16.7432H4.3656C3.59442 15.5084 3.13692 14.1037 3.033 12.6516L6.4238 10.1885L5.1282 6.201C6.06634 5.08985 7.25885 4.22159 8.6044 3.67L12 6.1367L15.3956 3.67C16.7412 4.22159 17.9337 5.08985 18.8718 6.201L17.5762 10.1885L20.967 12.6516C20.8631 14.1037 20.4056 15.5084 19.6344 16.7432ZM8.4887 10.8591L9.83 14.9869H14.17L15.5112 10.8591L12 8.308L8.4887 10.8591ZM13.4435 13.9869H10.5565L9.6643 11.2411L12 9.5441L14.3357 11.2411L13.4435 13.9869Z" fill="black"/>
</svg>
