<svg width="24" height="24" viewBox="0 0 24 24" fill="none" xmlns="http://www.w3.org/2000/svg">
<path d="M14.9946 14.3153C14.9946 14.2971 15 14.2803 15 14.262V13.3153C15 13.0501 15.1054 12.7958 15.2929 12.6082C15.4805 12.4207 15.7348 12.3153 16 12.3153H20V10.3888C19.9998 8.00248 19.0519 5.7139 17.3646 4.02639C15.6772 2.33888 13.3888 1.39061 11.0024 1.39014H10.9269C8.5606 1.41014 6.29733 2.36116 4.62694 4.03737C2.95654 5.71359 2.0134 7.98015 2.00163 10.3465C2.00083 10.5198 2.00053 10.6771 2.00063 10.8154C2.00179 12.1667 2.29405 13.5019 2.85753 14.7301L3.73173 14.9849C4.08772 15.0887 4.41737 15.2675 4.69852 15.5093C4.97967 15.7511 5.20581 16.0503 5.36173 16.3867C5.71284 17.1508 6.24995 17.8146 6.92392 18.3174C7.59789 18.8202 8.38719 19.146 9.2196 19.2649C10.052 19.3838 10.901 19.2921 11.6888 18.9981C12.4765 18.7041 13.178 18.2172 13.729 17.582L16.4178 22.239L22 22.3153V14.3153H14.9946ZM13.6 13.3153V14.262C13.6 15.0943 13.3157 15.9016 12.7944 16.5503C12.2731 17.1991 11.5458 17.6504 10.7331 17.8295C9.92033 18.0087 9.07076 17.905 8.32498 17.5355C7.5792 17.1661 6.9819 16.5531 6.63193 15.798C6.39205 15.2803 6.04409 14.8198 5.61144 14.4477C5.17879 14.0757 4.67148 13.8005 4.12363 13.6408L3.89363 13.5738C3.56727 12.6902 3.40022 11.7558 3.40023 10.8138L3.40123 10.3528C3.41792 8.35663 4.21659 6.44654 5.62579 5.03259C7.035 3.61864 8.94239 2.81354 10.9385 2.79014H11.0024C13.0169 2.7926 14.9481 3.594 16.3724 5.01853C17.7967 6.44306 18.5979 8.37439 18.6 10.3888V10.9153H16C15.3637 10.9161 14.7537 11.1691 14.3038 11.6191C13.8538 12.069 13.6007 12.679 13.6 13.3153ZM20.6 20.896L17.2323 20.8501L16.1733 19.0159H20.6V20.896ZM20.6 17.6153H15.3649L14.5843 16.2633C14.654 16.0842 14.7134 15.9012 14.7623 15.7153H20.6V17.6153ZM9.95743 13.3092C9.75965 13.3092 9.56631 13.3679 9.40186 13.4778C9.23741 13.5876 9.10924 13.7438 9.03355 13.9266C8.95786 14.1093 8.93806 14.3103 8.97664 14.5043C9.01523 14.6983 9.11047 14.8765 9.25032 15.0163C9.39017 15.1562 9.56836 15.2514 9.76234 15.29C9.95632 15.3286 10.1574 15.3088 10.3401 15.2331C10.5228 15.1574 10.679 15.0293 10.7889 14.8648C10.8988 14.7004 10.9574 14.507 10.9574 14.3092C10.9574 14.044 10.8521 13.7897 10.6645 13.6021C10.477 13.4146 10.2226 13.3092 9.95743 13.3092Z" fill="black"/>
</svg>
