<svg width="24" height="24" viewBox="0 0 24 24" fill="none" xmlns="http://www.w3.org/2000/svg">
<path d="M16 2H10C8.93913 2 7.92172 2.42143 7.17157 3.17157C6.42143 3.92172 6 4.93913 6 6C6 6.0194 6.0055 6.0373 6.0057 6.0566C5.43891 6.17514 4.93017 6.48512 4.56494 6.93446C4.19971 7.38381 4.00023 7.94515 4 8.5242V9.6863C4 11.808 4.84284 13.8428 6.3431 15.3431L8 17V22H18V17C19.2806 15.7194 20 13.9826 20 12.1716V6C20 4.93913 19.5786 3.92172 18.8284 3.17157C18.0783 2.42143 17.0609 2 16 2ZM10 3H16C16.7954 3.0009 17.5579 3.31726 18.1203 3.87967C18.6827 4.44209 18.9991 5.20463 19 6C19 7.2027 18.7077 10 16 10H11C9.9395 9.99881 8.92278 9.577 8.17289 8.82711C7.423 8.07722 7.00119 7.0605 7 6C7.0009 5.20463 7.31726 4.44209 7.87967 3.87967C8.44209 3.31726 9.20463 3.0009 10 3ZM17 21H9V17.5H17V21ZM19 12.1716C19.0021 12.9373 18.8523 13.6958 18.5592 14.4032C18.2662 15.1107 17.8358 15.7529 17.2929 16.2929L17.0857 16.5H8.9142L8.7071 16.2929L7.05 14.636C6.39799 13.9875 5.88108 13.2161 5.5292 12.3665C5.17732 11.5169 4.99745 10.6059 5 9.6863V8.5242C5.00113 8.19177 5.11106 7.86884 5.313 7.60477C5.51493 7.34069 5.79777 7.14999 6.1183 7.0618C6.36031 8.17683 6.97652 9.17549 7.86456 9.8919C8.7526 10.6083 9.85901 10.9993 11 11H16C16.5784 11.025 17.1541 10.9082 17.677 10.6597C18.1999 10.4113 18.6541 10.0387 19 9.5745V12.1716Z" fill="black"/>
</svg>
