<svg width="24" height="24" viewBox="0 0 24 24" fill="none" xmlns="http://www.w3.org/2000/svg">
<path d="M17.6983 1.85225C14.2837 0.998655 9.71662 2.55775 6.13722 6.13716C2.55782 9.71655 0.998716 14.2837 1.85232 17.6983C2.49622 14.9183 4.70232 11.3058 8.00382 8.00376C11.3053 4.70176 14.918 2.49615 17.6983 1.85225ZM6.30152 22.1477C9.71612 23.0014 14.2833 21.4424 17.8628 17.8628C21.4423 14.2832 23.0013 9.71616 22.1477 6.30146C21.5038 9.08146 19.2977 12.6942 15.9961 15.9961C12.6945 19.298 9.08182 21.5038 6.30152 22.1477ZM14.5261 14.5261C19.2561 9.79545 21.9605 4.82965 20.5654 3.43455C19.1703 2.03945 14.2045 4.74335 9.47392 9.47385C4.74332 14.2044 2.03942 19.1701 3.43452 20.5654C4.82962 21.9607 9.79552 19.2567 14.5261 14.5261Z" fill="black"/>
</svg>
