<svg width="24" height="24" viewBox="0 0 24 24" fill="none" xmlns="http://www.w3.org/2000/svg">
<path d="M18.7539 2.26569C15.3048 0.691493 10.11 2.16459 6.13722 6.13709C2.16442 10.1096 0.691621 15.3047 2.26592 18.7537C2.23652 16.0737 4.47022 11.9237 8.19682 8.19659C11.9234 4.46949 16.0737 2.23639 18.7539 2.26569ZM5.24612 21.734C8.69512 23.3082 13.8902 21.8352 17.8628 17.8627C21.8354 13.8902 23.3083 8.69489 21.7341 5.24599C21.7635 7.92599 19.5298 12.076 15.8032 15.8031C12.0766 19.5302 7.92622 21.7634 5.24612 21.734ZM15.0394 15.0393C19.77 10.3087 22.2441 5.11309 20.5654 3.43439C18.8867 1.75569 13.6911 4.22989 8.96062 8.96039C4.23012 13.6909 1.75592 18.8867 3.43452 20.5653C5.11312 22.2439 10.3088 19.7699 15.0394 15.0393Z" fill="black"/>
</svg>
