<svg width="24" height="24" viewBox="0 0 24 24" fill="none" xmlns="http://www.w3.org/2000/svg">
<path d="M20.9372 4.045C20.2023 3.31138 19.3125 2.7515 18.3331 2.4064L6.0377 14.7019L6.9216 15.5858C7.01447 15.6787 7.08814 15.7889 7.13841 15.9102C7.18867 16.0316 7.21454 16.1616 7.21454 16.293C7.21454 16.4243 7.18867 16.5543 7.13841 16.6757C7.08814 16.797 7.01447 16.9072 6.9216 17.0001L3.5322 20.3887L4.5928 21.4492L7.9822 18.0605C8.16974 17.873 8.42409 17.7676 8.6893 17.7676C8.95451 17.7676 9.20887 17.873 9.3964 18.0605L10.2803 18.9445L22.5758 6.6491C22.2307 5.66971 21.6708 4.77994 20.9372 4.045ZM10.28 16.9647L8.0176 14.7019L18.6482 4.0713C19.6095 4.58536 20.3968 5.37274 20.9109 6.334L10.28 16.9647ZM8 5C8 4.40666 7.82405 3.82664 7.49441 3.33329C7.16477 2.83994 6.69623 2.45543 6.14805 2.22836C5.59987 2.0013 4.99667 1.94189 4.41473 2.05765C3.83279 2.1734 3.29824 2.45912 2.87868 2.87868C2.45912 3.29824 2.1734 3.83279 2.05765 4.41473C1.94189 4.99667 2.0013 5.59987 2.22836 6.14805C2.45543 6.69623 2.83994 7.16477 3.33329 7.49441C3.82664 7.82405 4.40666 8 5 8C5.79565 8 6.55871 7.68393 7.12132 7.12132C7.68393 6.55871 8 5.79565 8 5ZM3.45 5C3.45 4.69344 3.54091 4.39376 3.71122 4.13887C3.88154 3.88397 4.12362 3.6853 4.40684 3.56799C4.69007 3.45067 5.00172 3.41998 5.30239 3.47978C5.60306 3.53959 5.87925 3.68721 6.09602 3.90399C6.31279 4.12076 6.46041 4.39694 6.52022 4.69761C6.58003 4.99828 6.54933 5.30994 6.43201 5.59316C6.3147 5.87639 6.11603 6.11846 5.86114 6.28878C5.60624 6.4591 5.30656 6.55 5 6.55C4.58905 6.54955 4.19507 6.3861 3.90448 6.09552C3.6139 5.80494 3.45045 5.41095 3.45 5Z" fill="black"/>
</svg>
