<svg width="24" height="24" viewBox="0 0 24 24" fill="none" xmlns="http://www.w3.org/2000/svg">
<path d="M20.9372 4.045C20.2023 3.31138 19.3125 2.7515 18.3331 2.4064L6.0377 14.7019L6.7448 15.4089C6.83767 15.5018 6.91134 15.612 6.96161 15.7333C7.01187 15.8547 7.03774 15.9847 7.03774 16.1161C7.03774 16.2474 7.01187 16.3774 6.96161 16.4988C6.91134 16.6201 6.83767 16.7303 6.7448 16.8232L3.3555 20.2119L4.77 21.626L8.1594 18.2372C8.34694 18.0497 8.60129 17.9443 8.8665 17.9443C9.13171 17.9443 9.38607 18.0497 9.5736 18.2372L10.2808 18.9445L22.5758 6.6491C22.2307 5.66971 21.6708 4.77994 20.9372 4.045ZM8 5C8 4.40666 7.82405 3.82664 7.49441 3.33329C7.16477 2.83994 6.69623 2.45543 6.14805 2.22836C5.59987 2.0013 4.99667 1.94189 4.41473 2.05765C3.83279 2.1734 3.29824 2.45912 2.87868 2.87868C2.45912 3.29824 2.1734 3.83279 2.05765 4.41473C1.94189 4.99667 2.0013 5.59987 2.22836 6.14805C2.45543 6.69623 2.83994 7.16477 3.33329 7.49441C3.82664 7.82405 4.40666 8 5 8C5.79565 8 6.55871 7.68393 7.12132 7.12132C7.68393 6.55871 8 5.79565 8 5Z" fill="black"/>
</svg>
