<svg width="24" height="24" viewBox="0 0 24 24" fill="none" xmlns="http://www.w3.org/2000/svg">
<path d="M12 2C10.0222 2 8.08879 2.58649 6.4443 3.6853C4.79981 4.78412 3.51809 6.3459 2.76121 8.17317C2.00433 10.0004 1.8063 12.0111 2.19215 13.9509C2.578 15.8907 3.53041 17.6725 4.92894 19.0711C6.32746 20.4696 8.10929 21.422 10.0491 21.8079C11.9889 22.1937 13.9996 21.9957 15.8268 21.2388C17.6541 20.4819 19.2159 19.2002 20.3147 17.5557C21.4135 15.9112 22 13.9778 22 12C22 10.6868 21.7413 9.38642 21.2388 8.17317C20.7363 6.95991 19.9997 5.85752 19.0711 4.92893C18.1425 4.00035 17.0401 3.26375 15.8268 2.7612C14.6136 2.25866 13.3132 2 12 2ZM12.5 11.5V3.0253C14.5188 3.13551 16.4408 3.926 17.9529 5.268C16.48 7.0217 15.6263 9.21208 15.524 11.5H12.5ZM11.5 11.5H8.476C8.37375 9.21208 7.52006 7.02169 6.0471 5.268C7.55926 3.926 9.48124 3.13551 11.5 3.0253V11.5ZM7.4761 11.5H3.0253C3.1377 9.44658 3.95375 7.49449 5.3362 5.972C6.62579 7.53638 7.37626 9.47507 7.4761 11.5ZM7.4761 12.5C7.37692 14.5252 6.62693 16.4643 5.3376 18.0292C3.9544 16.5066 3.13784 14.554 3.0253 12.5H7.4761ZM8.4761 12.5H11.5V20.9747C9.48171 20.8646 7.56015 20.0744 6.0482 18.7329C7.52114 16.9789 8.37445 14.7881 8.4759 12.5H8.4761ZM12.5002 12.5H15.5243C15.6258 14.7881 16.4791 16.9789 17.952 18.7329C16.44 20.0745 14.5184 20.8646 12.5 20.9747L12.5002 12.5ZM16.5244 12.5H20.9744C20.8619 14.554 20.0454 16.5066 18.6623 18.0292C17.3731 16.4643 16.6233 14.5251 16.5242 12.5H16.5244ZM16.5244 11.5C16.6242 9.47505 17.3747 7.53634 18.6644 5.972C20.0466 7.49457 20.8625 9.44666 20.9747 11.5H16.5244Z" fill="black"/>
</svg>
