<svg width="24" height="24" viewBox="0 0 24 24" fill="none" xmlns="http://www.w3.org/2000/svg">
<path d="M8 5C8 4.40666 7.82405 3.82664 7.49441 3.33329C7.16477 2.83994 6.69623 2.45543 6.14805 2.22836C5.59987 2.0013 4.99667 1.94189 4.41473 2.05765C3.83279 2.1734 3.29824 2.45912 2.87868 2.87868C2.45912 3.29824 2.1734 3.83279 2.05765 4.41473C1.94189 4.99667 2.0013 5.59987 2.22836 6.14805C2.45543 6.69623 2.83994 7.16477 3.33329 7.49441C3.82664 7.82405 4.40666 8 5 8C5.79565 8 6.55871 7.68393 7.12132 7.12132C7.68393 6.55871 8 5.79565 8 5ZM8.5352 14.8337C8.74896 15.3727 8.80342 15.9618 8.69211 16.5308C8.5808 17.0999 8.3084 17.625 7.9073 18.0437L5.043 20.9082L6.457 22.3223L9.3193 19.46C9.70308 19.0615 10.1947 18.7836 10.734 18.6602C11.2734 18.5368 11.8369 18.5734 12.3558 18.7654C13.0463 19.0444 13.7838 19.1886 14.5285 19.19C14.5475 19.19 14.5667 19.1872 14.5857 19.187L8.1949 12.797C8.1867 13.4907 8.30193 14.1803 8.5352 14.8337ZM20.0732 7.2924C19.535 6.72785 18.8883 6.27784 18.172 5.96937C17.4556 5.66091 16.6843 5.50034 15.9043 5.4973C13.7644 5.59879 11.7508 6.53969 10.3 8.116C9.61713 8.78676 9.06909 9.58213 8.6855 10.4591L16.9131 18.6863C17.7878 18.2994 18.5808 17.7496 19.25 17.0663C22.176 14.14 22.926 10.1453 20.0732 7.2924Z" fill="black"/>
</svg>
