<svg width="24" height="24" viewBox="0 0 24 24" fill="none" xmlns="http://www.w3.org/2000/svg">
<path d="M17 2H10.5C9.70435 2 8.94129 2.31607 8.37868 2.87868C7.81607 3.44129 7.5 4.20435 7.5 5V7C7.5 8.06087 7.92143 9.07828 8.67157 9.82843C9.42172 10.5786 10.4391 11 11.5 11H16C17.0609 11 18.0783 10.5786 18.8284 9.82843C19.5786 9.07828 20 8.06087 20 7V5C20 4.20435 19.6839 3.44129 19.1213 2.87868C18.5587 2.31607 17.7956 2 17 2ZM11.5 13C9.90925 12.9982 8.38418 12.3655 7.25935 11.2407C6.13452 10.1158 5.5018 8.59075 5.5 7V6.0707C5.07148 6.18051 4.6916 6.42961 4.42008 6.77884C4.14856 7.12807 4.00079 7.55763 4 8V9.6863C4 11.808 4.84284 13.8428 6.3431 15.3431L8 17H18C19.2806 15.7194 20 13.9826 20 12.1716V11.4594C18.9034 12.4505 17.4781 12.9995 16 13H11.5ZM8 22H18V19H8V22Z" fill="black"/>
</svg>
