<svg width="24" height="24" viewBox="0 0 24 24" fill="none" xmlns="http://www.w3.org/2000/svg">
<path d="M17 2H10C9.20435 2 8.44129 2.31607 7.87868 2.87868C7.31607 3.44129 7 4.20435 7 5V7C7 8.06087 7.42143 9.07828 8.17157 9.82843C8.92172 10.5786 9.93913 11 11 11H16C17.0609 11 18.0783 10.5786 18.8284 9.82843C19.5786 9.07828 20 8.06087 20 7V5C20 4.20435 19.6839 3.44129 19.1213 2.87868C18.5587 2.31607 17.7956 2 17 2ZM11 12.5C9.54181 12.4984 8.14382 11.9184 7.11273 10.8873C6.08163 9.85618 5.50164 8.45819 5.5 7V6.0707C5.07148 6.18051 4.6916 6.42961 4.42008 6.77884C4.14856 7.12807 4.00079 7.55763 4 8V9.6863C4 11.808 4.84284 13.8428 6.3431 15.3431L8 17H18C19.2806 15.7194 20 13.9826 20 12.1716V10.7632C19.4876 11.311 18.8682 11.7479 18.1802 12.0466C17.4922 12.3454 16.7501 12.4997 16 12.5H11ZM8 22H18V18.5H8V22Z" fill="black"/>
</svg>
