<svg width="24" height="24" viewBox="0 0 24 24" fill="none" xmlns="http://www.w3.org/2000/svg">
<path d="M6.5 8C8.5934 8 10 7.1962 10 6V3.9722H9.9958C9.9734 2.7919 8.5765 2 6.5 2C4.4235 2 3.0266 2.7919 3.0042 3.9722H3V6C3 7.1962 4.4066 8 6.5 8ZM6.5 3C7.8807 3 9 3.4477 9 4C9 4.5523 7.8807 5 6.5 5C5.1193 5 4 4.5522 4 4C4 3.4478 5.1193 3 6.5 3ZM4 5.4648C4.7762 5.84735 5.63522 6.03124 6.5 6C7.36478 6.03124 8.2238 5.84735 9 5.4648V6C9 6.5522 7.8807 7 6.5 7C5.1193 7 4 6.5522 4 6V5.4648ZM18.6736 3.48L9.9436 15.8817L3.0654 15.85L3.8828 21H9.3815C9.91675 21 10.4441 20.8712 10.9191 20.6243C11.394 20.3775 11.8025 20.0199 12.11 19.5818L21.8637 5.6918L18.6736 3.48ZM11.3183 19.027C11.0998 19.3378 10.8098 19.5914 10.4727 19.7666C10.1356 19.9418 9.76138 20.0333 9.3815 20.0335H4.7082L4.1982 16.8191L9.9411 16.8484L10.4447 16.8496L10.7347 16.4376L18.9117 4.8221L20.5146 5.9321L11.3183 19.027Z" fill="black"/>
</svg>
