<svg width="24" height="24" viewBox="0 0 24 24" fill="none" xmlns="http://www.w3.org/2000/svg">
<path d="M20.9372 4.045C20.2023 3.3114 19.3125 2.75152 18.3331 2.4064L6.0377 14.7019L7.0984 15.7625C7.19127 15.8554 7.26494 15.9656 7.31521 16.0869C7.36547 16.2083 7.39134 16.3383 7.39134 16.4697C7.39134 16.601 7.36547 16.731 7.31521 16.8524C7.26494 16.9737 7.19127 17.0839 7.0984 17.1768L3.709 20.5654L4.416 21.2725L7.806 17.8837C7.99353 17.6962 8.24786 17.5909 8.51305 17.5909C8.77824 17.5909 9.03257 17.6962 9.2201 17.8837L10.28 18.9445L22.5758 6.649C22.2306 5.66966 21.6708 4.77994 20.9372 4.045ZM7.4519 14.7019L18.57 3.5841C19.8125 4.17006 20.8124 5.17001 21.3984 6.4125L10.28 17.53L7.4519 14.7019ZM8 5C8 4.40666 7.82405 3.82664 7.49441 3.33329C7.16477 2.83994 6.69623 2.45543 6.14805 2.22836C5.59987 2.0013 4.99667 1.94189 4.41473 2.05765C3.83279 2.1734 3.29824 2.45912 2.87868 2.87868C2.45912 3.29824 2.1734 3.83279 2.05765 4.41473C1.94189 4.99667 2.0013 5.59987 2.22836 6.14805C2.45543 6.69623 2.83994 7.16477 3.33329 7.49441C3.82664 7.82405 4.40666 8 5 8C5.79565 8 6.55871 7.68393 7.12132 7.12132C7.68393 6.55871 8 5.79565 8 5ZM3 5C3 4.60444 3.1173 4.21776 3.33706 3.88886C3.55682 3.55996 3.86918 3.30362 4.23463 3.15224C4.60009 3.00087 5.00222 2.96126 5.39018 3.03843C5.77814 3.1156 6.13451 3.30608 6.41422 3.58579C6.69392 3.86549 6.8844 4.22186 6.96157 4.60982C7.03874 4.99778 6.99914 5.39992 6.84776 5.76537C6.69639 6.13082 6.44004 6.44318 6.11114 6.66294C5.78224 6.8827 5.39556 7 5 7C4.46976 6.99939 3.9614 6.78848 3.58646 6.41354C3.21152 6.0386 3.00061 5.53025 3 5Z" fill="black"/>
</svg>
