<svg width="24" height="24" viewBox="0 0 24 24" fill="none" xmlns="http://www.w3.org/2000/svg">
<path d="M12 2C10.0222 2 8.08879 2.58649 6.4443 3.6853C4.79981 4.78412 3.51809 6.3459 2.76121 8.17317C2.00433 10.0004 1.8063 12.0111 2.19215 13.9509C2.578 15.8907 3.53041 17.6725 4.92894 19.0711C6.32746 20.4696 8.10929 21.422 10.0491 21.8079C11.9889 22.1937 13.9996 21.9957 15.8268 21.2388C17.6541 20.4819 19.2159 19.2002 20.3147 17.5557C21.4135 15.9112 22 13.9778 22 12C22 10.6868 21.7413 9.38642 21.2388 8.17317C20.7363 6.95991 19.9997 5.85752 19.0711 4.92893C18.1425 4.00035 17.0401 3.26375 15.8268 2.7612C14.6136 2.25866 13.3132 2 12 2ZM19.2589 7.8884C19.8158 8.86535 20.168 9.94545 20.2939 11.0629L18.6221 9.8486L19.2589 7.8884ZM12 3.65C12.5628 3.64982 13.1241 3.70647 13.6755 3.8191L12 5.0366L10.3245 3.8191C10.8759 3.70647 11.4372 3.64982 12 3.65ZM4.7412 7.8885L5.3779 9.8485L3.7062 11.0628C3.83208 9.9454 4.18424 8.86534 4.7412 7.8885ZM5.855 17.6338H7.9072L8.5435 19.5917C7.5255 19.1253 6.61133 18.4595 5.855 17.6338ZM15.4565 19.5917L16.0928 17.6338H18.145C17.3887 18.4595 16.4745 19.1253 15.4565 19.5917ZM19.3365 15.9834H14.8936L13.5236 20.2042C12.5174 20.3986 11.4832 20.3986 10.477 20.2042L9.107 15.9834H4.6633C4.17559 15.0835 3.85877 14.101 3.7289 13.0857L7.3174 10.4785L5.9474 6.2643C6.65288 5.52064 7.48882 4.91274 8.4137 4.4708L12 7.0767L15.5864 4.4708C16.5112 4.91276 17.347 5.52062 18.0524 6.2642L16.6824 10.4785L20.2709 13.0857C20.1411 14.101 19.8244 15.0835 19.3367 15.9834H19.3365ZM8.4887 10.8591L9.83 14.9869H14.17L15.5112 10.8591L12 8.308L8.4887 10.8591ZM12.9713 13.3369H11.0287L10.4287 11.4893L12 10.3475L13.5716 11.4893L12.9713 13.3369Z" fill="black"/>
</svg>
