<svg width="24" height="24" viewBox="0 0 24 24" fill="none" xmlns="http://www.w3.org/2000/svg">
<path d="M23.1094 6.6719L19 2H5.00002L0.890625 6.6719L7.19792 15.6819C7.0728 16.1103 7.00623 16.5537 7.00002 17C6.98897 17.7194 7.13327 18.4326 7.42307 19.0911C7.71287 19.7496 8.14134 20.3378 8.67924 20.8156C9.21714 21.2934 9.8518 21.6494 10.5399 21.8595C11.228 22.0696 11.9533 22.1287 12.6663 22.0328C13.3793 21.937 14.0633 21.6884 14.6715 21.3041C15.2796 20.9197 15.7977 20.4087 16.1903 19.8058C16.583 19.2029 16.8409 18.5224 16.9465 17.8108C17.0521 17.0992 17.0029 16.3731 16.8022 15.6822L23.1094 6.6719ZM15.7399 13.7119C15.2862 13.1924 14.7297 12.7727 14.1056 12.4791L19.1791 5.2315L20.57 6.8126L15.7399 13.7119ZM12 12L9.20002 8H14.8L12 12ZM17.6 4L16.2 6H7.80002L6.40002 4H17.6ZM3.43053 6.8126L4.82052 5.2318L9.89433 12.48C9.27026 12.7733 8.71378 13.1929 8.26003 13.7121L3.43053 6.8126ZM12 20C11.4067 20 10.8267 19.8241 10.3333 19.4944C9.83997 19.1648 9.45545 18.6962 9.22839 18.1481C9.00132 17.5999 8.94191 16.9967 9.05767 16.4147C9.17342 15.8328 9.45915 15.2982 9.8787 14.8787C10.2983 14.4591 10.8328 14.1734 11.4148 14.0576C11.9967 13.9419 12.5999 14.0013 13.1481 14.2284C13.6963 14.4554 14.1648 14.8399 14.4944 15.3333C14.8241 15.8266 15 16.4067 15 17C14.9991 17.7954 14.6828 18.5579 14.1204 19.1203C13.5579 19.6827 12.7954 19.9991 12 20Z" fill="black"/>
</svg>
