<svg width="24" height="24" viewBox="0 0 24 24" fill="none" xmlns="http://www.w3.org/2000/svg">
<path d="M8 5C8 4.40666 7.82405 3.82664 7.49441 3.33329C7.16477 2.83994 6.69623 2.45543 6.14805 2.22836C5.59987 2.0013 4.99667 1.94189 4.41473 2.05765C3.83279 2.1734 3.29824 2.45912 2.87868 2.87868C2.45912 3.29824 2.1734 3.83279 2.05765 4.41473C1.94189 4.99667 2.0013 5.59987 2.22836 6.14805C2.45543 6.69623 2.83994 7.16477 3.33329 7.49441C3.82664 7.82405 4.40666 8 5 8C5.79565 8 6.55871 7.68393 7.12132 7.12132C7.68393 6.55871 8 5.79565 8 5ZM5 6.55C4.69344 6.55 4.39376 6.4591 4.13887 6.28878C3.88397 6.11846 3.6853 5.87639 3.56799 5.59316C3.45067 5.30994 3.41998 4.99828 3.47978 4.69761C3.53959 4.39694 3.68721 4.12076 3.90399 3.90399C4.12076 3.68721 4.39694 3.53959 4.69761 3.47978C4.99828 3.41998 5.30994 3.45067 5.59316 3.56799C5.87639 3.6853 6.11846 3.88397 6.28878 4.13887C6.4591 4.39376 6.55 4.69344 6.55 5C6.54955 5.41095 6.3861 5.80494 6.09552 6.09552C5.80494 6.3861 5.41095 6.54955 5 6.55ZM20.0732 7.2924C19.535 6.72787 18.8883 6.27787 18.1719 5.96941C17.4556 5.66094 16.6843 5.50036 15.9043 5.4973C13.7644 5.59879 11.7508 6.53969 10.3 8.116C9.35159 8.95785 8.68122 10.0679 8.37765 11.2992C8.07407 12.5304 8.15161 13.8249 8.6 15.0111C8.83597 15.5554 8.90603 16.1572 8.80139 16.7411C8.69676 17.3251 8.42208 17.8651 8.0118 18.2936L5.22 21.085L6.2806 22.145L9.0084 19.4174C9.41437 18.9948 9.93667 18.7023 10.5091 18.5769C11.0815 18.4515 11.6783 18.4989 12.2237 18.7131C12.952 19.0261 13.7361 19.1882 14.5288 19.1898C15.4176 19.1685 16.2932 18.9696 17.104 18.6049C17.9148 18.2401 18.6444 17.7169 19.25 17.066C22.176 14.14 22.926 10.1453 20.0732 7.2924ZM18.1891 16.0053C17.7218 16.5157 17.1573 16.9277 16.5288 17.217C15.9002 17.5064 15.2201 17.6673 14.5285 17.6903C13.8968 17.6772 13.274 17.5393 12.6959 17.2845C12.1178 17.0296 11.5958 16.6629 11.16 16.2055C10.241 15.3295 9.70701 14.1247 9.6752 12.8555C9.69537 12.1607 9.85489 11.4771 10.1443 10.8451C10.4337 10.2131 10.8471 9.64575 11.36 9.1766C12.529 7.88068 14.1616 7.09768 15.904 6.9973C16.487 7.00045 17.0632 7.12228 17.5976 7.35538C18.132 7.58847 18.6133 7.92794 19.0122 8.3531C21.5327 10.8732 20.144 14.05 18.1891 16.0053Z" fill="black"/>
</svg>
