<svg width="24" height="24" viewBox="0 0 24 24" fill="none" xmlns="http://www.w3.org/2000/svg">
<path d="M8 4.83887C8 4.24552 7.82405 3.66551 7.49441 3.17216C7.16477 2.67881 6.69623 2.29429 6.14805 2.06723C5.59987 1.84017 4.99667 1.78076 4.41473 1.89651C3.83279 2.01227 3.29824 2.29799 2.87868 2.71755C2.45912 3.13711 2.1734 3.67165 2.05765 4.2536C1.94189 4.83554 2.0013 5.43874 2.22836 5.98692C2.45543 6.5351 2.83994 7.00363 3.33329 7.33328C3.82664 7.66292 4.40666 7.83887 5 7.83887C5.79565 7.83887 6.55871 7.5228 7.12132 6.96019C7.68393 6.39758 8 5.63452 8 4.83887ZM8.5352 14.6726C8.74898 15.2116 8.80346 15.8006 8.69214 16.3697C8.58083 16.9387 8.30842 17.4639 7.9073 17.8826L5.043 20.7471L6.457 22.1611L9.3193 19.2991C9.70308 18.9006 10.1947 18.6226 10.734 18.4993C11.2734 18.3759 11.837 18.4125 12.3558 18.6046C13.0463 18.8836 13.7838 19.0277 14.5285 19.0292C14.6085 19.0292 14.6885 19.0199 14.7685 19.0167L8.1979 12.4467C8.16496 13.2035 8.27952 13.9595 8.5352 14.6726ZM20.0732 7.13127C19.535 6.56672 18.8883 6.11671 18.172 5.80824C17.4556 5.49977 16.6843 5.3392 15.9043 5.33617C13.7644 5.43766 11.7508 6.37852 10.3 7.95477C9.51921 8.71774 8.91919 9.64589 8.544 10.6711L16.54 18.6666C17.5629 18.2877 18.4886 17.6859 19.25 16.9048C22.176 13.9786 22.926 9.98407 20.0732 7.13127Z" fill="black"/>
</svg>
