<svg width="24" height="24" viewBox="0 0 24 24" fill="none" xmlns="http://www.w3.org/2000/svg">
<path d="M20.9372 4.045C20.2023 3.3114 19.3125 2.75152 18.3331 2.4064L6.0377 14.7019L7.0887 15.7529C7.18247 15.8467 7.23514 15.9738 7.23514 16.1065C7.23514 16.2391 7.18247 16.3662 7.0887 16.46L3.7959 19.752L5.23 21.1855L8.5229 17.8936C8.61666 17.7999 8.74382 17.7472 8.8764 17.7472C9.00898 17.7472 9.13614 17.7999 9.2299 17.8936L10.28 18.9445L22.5758 6.6491C22.2307 5.66972 21.6708 4.77996 20.9372 4.045ZM5.23 20.4785L4.5034 19.752L7.7958 16.46L8.5224 17.1866L5.23 20.4785ZM6.7453 14.7019L18.4583 2.9889C19.254 3.312 19.9769 3.79135 20.5841 4.39863C21.1914 5.00591 21.6707 5.72878 21.9938 6.5245L10.28 18.2374L6.7453 14.7019ZM8 5C8 4.40666 7.82405 3.82664 7.49441 3.33329C7.16477 2.83994 6.69623 2.45543 6.14805 2.22836C5.59987 2.0013 4.99667 1.94189 4.41473 2.05765C3.83279 2.1734 3.29824 2.45912 2.87868 2.87868C2.45912 3.29824 2.1734 3.83279 2.05765 4.41473C1.94189 4.99667 2.0013 5.59987 2.22836 6.14805C2.45543 6.69623 2.83994 7.16477 3.33329 7.49441C3.82664 7.82405 4.40666 8 5 8C5.79565 8 6.55871 7.68393 7.12132 7.12132C7.68393 6.55871 8 5.79565 8 5ZM2.5 5C2.5 4.50555 2.64662 4.0222 2.92133 3.61108C3.19603 3.19995 3.58648 2.87952 4.04329 2.6903C4.50011 2.50108 5.00277 2.45158 5.48773 2.54804C5.97268 2.6445 6.41814 2.8826 6.76777 3.23223C7.1174 3.58187 7.3555 4.02732 7.45196 4.51228C7.54843 4.99723 7.49892 5.49989 7.3097 5.95671C7.12048 6.41353 6.80005 6.80397 6.38893 7.07868C5.9778 7.35338 5.49445 7.5 5 7.5C4.33719 7.49926 3.70173 7.23563 3.23305 6.76695C2.76437 6.29827 2.50074 5.66282 2.5 5Z" fill="black"/>
</svg>
