<svg width="24" height="24" viewBox="0 0 24 24" fill="none" xmlns="http://www.w3.org/2000/svg">
<path d="M8 4.5166C8 3.92326 7.82405 3.34324 7.49441 2.84989C7.16477 2.35654 6.69623 1.97203 6.14805 1.74496C5.59987 1.5179 4.99667 1.45849 4.41473 1.57425C3.83279 1.69 3.29824 1.97573 2.87868 2.39528C2.45912 2.81484 2.1734 3.34939 2.05765 3.93133C1.94189 4.51328 2.0013 5.11648 2.22836 5.66465C2.45543 6.21283 2.83994 6.68137 3.33329 7.01101C3.82664 7.34066 4.40666 7.5166 5 7.5166C5.79565 7.5166 6.55871 7.20053 7.12132 6.63792C7.68393 6.07531 8 5.31225 8 4.5166ZM8.5352 14.3501C8.74895 14.8891 8.8034 15.4782 8.69209 16.0472C8.58078 16.6163 8.30839 17.1414 7.9073 17.5601L5.043 20.4248L6.457 21.8389L9.3193 18.9769C9.70308 18.5784 10.1947 18.3005 10.734 18.1771C11.2734 18.0538 11.837 18.0904 12.3558 18.2824C13.0463 18.5614 13.7838 18.7054 14.5285 18.7069C14.6212 18.7069 14.7145 18.6969 14.8074 18.6923L8.1985 12.0838C8.1601 12.8541 8.27453 13.6243 8.5352 14.3501ZM20.0732 6.8087C19.535 6.24417 18.8883 5.79417 18.1719 5.48571C17.4556 5.17724 16.6843 5.01666 15.9043 5.0136C13.7644 5.11521 11.7507 6.05622 10.3 7.6326C9.23104 8.6523 8.51806 9.98852 8.2662 11.4442L15.4481 18.6256C16.9006 18.3668 18.2326 17.6511 19.25 16.5826C22.176 13.6563 22.926 9.6619 20.0732 6.809V6.8087Z" fill="black"/>
</svg>
