<svg width="24" height="24" viewBox="0 0 24 24" fill="none" xmlns="http://www.w3.org/2000/svg">
<path d="M6.48717 6.48729C10.4641 2.51049 15.6946 1.09259 18.97 2.86169C16.543 2.80979 12.5025 5.07479 8.78857 8.78869C5.07467 12.5026 2.80997 16.5431 2.86157 18.9698C1.09247 15.6947 2.50997 10.4641 6.48717 6.48729ZM17.5128 17.5129C13.536 21.4898 8.30547 22.9076 5.02997 21.1385C7.45667 21.1902 11.4971 18.9254 15.211 15.2115C18.9249 11.4976 21.19 7.45719 21.1385 5.03049C22.9076 8.30549 21.49 13.5361 17.5128 17.5129ZM20.2155 3.78469C21.9017 5.47089 18.7472 10.9757 14.8614 14.8615C10.9756 18.7473 5.47077 21.9015 3.78457 20.2155C2.09837 18.5295 5.25287 13.0245 9.13857 9.13879C13.0243 5.25309 18.5292 2.09839 20.2155 3.78469ZM6.13717 6.13729C1.40717 10.8679 0.196573 17.3273 3.43457 20.5656C6.67257 23.8039 13.1323 22.5935 17.8628 17.8629C22.5933 13.1323 23.8034 6.67289 20.5655 3.43459C17.3276 0.196288 10.8678 1.40669 6.13717 6.13729Z" fill="black"/>
</svg>
