<svg width="24" height="24" viewBox="0 0 24 24" fill="none" xmlns="http://www.w3.org/2000/svg">
<path d="M11.3428 11.0612L4.99999 2L1.41669 6.0833L6.88669 13.8969C7.363 13.1148 8.01243 12.4525 8.78497 11.9609C9.55752 11.4692 10.4326 11.1614 11.3428 11.0612ZM19 2L12.6623 11.0539C13.5723 11.1558 14.4468 11.4654 15.2183 11.9586C15.9898 12.4519 16.6378 13.1157 17.1123 13.8989L22.5833 6.0833L19 2ZM14.2794 7L17.7794 2H6.22069L9.72069 7H14.2794ZM12 12C11.0111 12 10.0444 12.2932 9.22214 12.8427C8.39989 13.3921 7.75903 14.173 7.38059 15.0866C7.00215 16.0002 6.90313 17.0055 7.09606 17.9755C7.28899 18.9454 7.76519 19.8363 8.46445 20.5355C9.16372 21.2348 10.0546 21.711 11.0245 21.9039C11.9944 22.0969 12.9998 21.9978 13.9134 21.6194C14.827 21.241 15.6079 20.6001 16.1573 19.7779C16.7067 18.9556 17 17.9889 17 17C17 15.6739 16.4732 14.4021 15.5355 13.4645C14.5978 12.5268 13.3261 12 12 12Z" fill="black"/>
</svg>
