<svg width="24" height="24" viewBox="0 0 24 24" fill="none" xmlns="http://www.w3.org/2000/svg">
<path d="M8.483 10.8572L9.8264 14.9918H14.1736L15.517 10.8572L12 8.3019L8.483 10.8572ZM12 2C10.0222 2 8.08879 2.58649 6.4443 3.6853C4.79981 4.78412 3.51809 6.3459 2.76121 8.17317C2.00433 10.0004 1.8063 12.0111 2.19215 13.9509C2.578 15.8907 3.53041 17.6725 4.92894 19.0711C6.32746 20.4696 8.10929 21.422 10.0491 21.8079C11.9889 22.1937 13.9996 21.9957 15.8268 21.2388C17.6541 20.4819 19.2159 19.2002 20.3147 17.5557C21.4135 15.9112 22 13.9778 22 12C22 10.6868 21.7413 9.38642 21.2388 8.17317C20.7363 6.95991 19.9997 5.85752 19.0711 4.92893C18.1425 4.00035 17.0401 3.26375 15.8268 2.7612C14.6136 2.25866 13.3132 2 12 2ZM15.5287 16.8569L14.2814 20.6957C12.7875 21.1014 11.2125 21.1014 9.7186 20.6957L8.4713 16.8569H4.4348C3.59741 15.5566 3.11204 14.0611 3.0262 12.5169L6.29 10.1448L5.0413 6.3C6.02271 5.10664 7.29377 4.18491 8.733 3.6229L12 5.9965L15.267 3.6229C16.7062 4.18491 17.9773 5.10664 18.9587 6.3L17.71 10.1448L20.9742 12.5164C20.8884 14.0606 20.403 15.5561 19.5656 16.8564L15.5287 16.8569Z" fill="black"/>
</svg>
