<svg width="24" height="24" viewBox="0 0 24 24" fill="none" xmlns="http://www.w3.org/2000/svg">
<path d="M20.3406 6.2845C19.8581 5.78995 19.2818 5.39662 18.6454 5.12754C18.0091 4.85845 17.3254 4.71902 16.6345 4.7174C15.7495 4.75019 14.8799 4.95859 14.0761 5.33049C13.2724 5.70239 12.5506 6.23036 11.9528 6.8837C11.0146 7.73974 10.3068 8.81804 9.89453 10.0193C9.4823 11.2206 9.37888 12.5064 9.5938 13.7581C9.73556 14.2754 9.74062 14.8207 9.60849 15.3405C9.47636 15.8604 9.21156 16.3371 8.84 16.7239L4.479 21.085L5.5396 22.145L9.9 17.785C10.2885 17.4121 10.7674 17.1468 11.2896 17.0153C11.8119 16.8838 12.3593 16.8906 12.8781 17.035C13.2983 17.1385 13.7296 17.1902 14.1623 17.1889C16.279 17.1096 18.2809 16.2064 19.7411 14.6719C22.554 11.86 22.4914 8.4354 20.3406 6.2845ZM18.6806 13.6118C17.4981 14.86 15.8798 15.6041 14.1625 15.6894C13.7326 15.7044 13.3039 15.6345 12.9011 15.4836C12.4982 15.3327 12.1291 15.1038 11.8149 14.81C11.453 14.4115 11.1889 13.9341 11.0438 13.4156C10.8987 12.8972 10.8765 12.3521 10.979 11.8236C11.2173 10.3438 11.9315 8.98189 13.0132 7.9443C13.4726 7.43118 14.0292 7.01433 14.6509 6.7179C15.2725 6.42147 15.9468 6.25135 16.6347 6.2174C17.1416 6.22758 17.6415 6.33785 18.1057 6.54187C18.5698 6.74589 18.989 7.03964 19.3393 7.40623C19.6895 7.77282 19.9639 8.20502 20.1465 8.67799C20.3292 9.15095 20.4165 9.65536 20.4036 10.1622C20.2817 11.4873 19.6668 12.7183 18.6808 13.6118H18.6806ZM8 5C8 4.40666 7.82405 3.82664 7.49441 3.33329C7.16477 2.83994 6.69623 2.45543 6.14805 2.22836C5.59987 2.0013 4.99667 1.94189 4.41473 2.05765C3.83279 2.1734 3.29824 2.45912 2.87868 2.87868C2.45912 3.29824 2.1734 3.83279 2.05765 4.41473C1.94189 4.99667 2.0013 5.59987 2.22836 6.14805C2.45543 6.69623 2.83994 7.16477 3.33329 7.49441C3.82664 7.82405 4.40666 8 5 8C5.79565 8 6.55871 7.68393 7.12132 7.12132C7.68393 6.55871 8 5.79565 8 5ZM3.45 5C3.45 4.69344 3.54091 4.39376 3.71122 4.13887C3.88154 3.88397 4.12362 3.6853 4.40684 3.56799C4.69007 3.45067 5.00172 3.41998 5.30239 3.47978C5.60306 3.53959 5.87925 3.68721 6.09602 3.90399C6.31279 4.12076 6.46041 4.39694 6.52022 4.69761C6.58003 4.99828 6.54933 5.30994 6.43201 5.59316C6.3147 5.87639 6.11603 6.11846 5.86114 6.28878C5.60624 6.4591 5.30656 6.55 5 6.55C4.58905 6.54955 4.19507 6.3861 3.90448 6.09552C3.6139 5.80494 3.45045 5.41095 3.45 5Z" fill="black"/>
</svg>
