<svg width="24" height="24" viewBox="0 0 24 24" fill="none" xmlns="http://www.w3.org/2000/svg">
<path d="M23.1094 6.6719L19 2H5.00002L0.890625 6.6719L7.19792 15.6819C7.07282 16.1103 7.00625 16.5537 7.00002 17C6.98897 17.7194 7.13327 18.4326 7.42307 19.0911C7.71287 19.7496 8.14134 20.3378 8.67924 20.8156C9.21714 21.2934 9.8518 21.6494 10.5399 21.8595C11.228 22.0696 11.9533 22.1287 12.6663 22.0328C13.3793 21.937 14.0633 21.6884 14.6715 21.3041C15.2796 20.9197 15.7977 20.4087 16.1903 19.8058C16.583 19.2029 16.8409 18.5224 16.9465 17.8108C17.0521 17.0992 17.0029 16.3731 16.8022 15.6822L23.1094 6.6719ZM17.95 3.5L15.85 6.5H8.15002L6.05002 3.5H17.95ZM14.8 8L12 12L9.20002 8H14.8ZM7.93002 14.1124L2.79553 6.7774L4.86553 4.4238L10.3742 12.2938C9.38985 12.6304 8.53529 13.2663 7.93002 14.1124ZM12 20.5C11.3078 20.5 10.6311 20.2947 10.0555 19.9101C9.47996 19.5256 9.03135 18.9789 8.76645 18.3394C8.50154 17.6999 8.43223 16.9961 8.56728 16.3172C8.70232 15.6383 9.03567 15.0146 9.52515 14.5251C10.0146 14.0356 10.6383 13.7023 11.3172 13.5673C11.9961 13.4322 12.6999 13.5015 13.3394 13.7664C13.979 14.0313 14.5256 14.4799 14.9102 15.0555C15.2948 15.6311 15.5 16.3078 15.5 17C15.499 17.9279 15.1299 18.8176 14.4737 19.4737C13.8176 20.1299 12.928 20.4989 12 20.5ZM13.6255 12.2934L19.1343 4.4234L21.2043 6.777L16.07 14.1124C15.4647 13.2661 14.61 12.6301 13.6255 12.2934Z" fill="black"/>
</svg>
