<svg width="24" height="24" viewBox="0 0 24 24" fill="none" xmlns="http://www.w3.org/2000/svg">
<path d="M22.31 5.09413C22.1978 4.23055 21.8031 3.42836 21.1873 2.8126C20.5715 2.19683 19.7693 1.8021 18.9057 1.68993C16.5745 1.39406 14.2064 1.63565 11.983 2.3962C9.75948 3.15676 7.73956 4.41609 6.07789 6.07776C4.41622 7.73944 3.15688 9.75936 2.39633 11.9828C1.63577 14.2063 1.39418 16.5744 1.69005 18.9056C1.80224 19.7692 2.197 20.5714 2.81278 21.1872C3.42856 21.803 4.23076 22.1977 5.09435 22.3099C7.42559 22.6057 9.7936 22.364 12.017 21.6034C14.2405 20.8428 16.2603 19.5834 17.922 17.9218C19.5836 16.2601 20.843 14.2402 21.6036 12.0168C22.3641 9.79338 22.6058 7.42537 22.31 5.09413ZM16.6965 11.2515C16.613 11.3351 16.5138 11.4014 16.4046 11.4466C16.2954 11.4919 16.1783 11.5151 16.0601 11.5151C15.942 11.5151 15.8249 11.4919 15.7157 11.4466C15.6065 11.4014 15.5073 11.3351 15.4237 11.2515L14.7228 10.5506L13.2731 11.9999L13.974 12.7008C14.1428 12.8696 14.2377 13.0985 14.2377 13.3372C14.2377 13.5759 14.1428 13.8048 13.974 13.9736C13.8053 14.1424 13.5763 14.2372 13.3376 14.2372C13.099 14.2372 12.87 14.1424 12.7012 13.9736L12 13.273L10.55 14.723L11.2508 15.4239C11.3355 15.5072 11.4029 15.6065 11.449 15.716C11.4952 15.8255 11.5192 15.943 11.5197 16.0618C11.5202 16.1806 11.4971 16.2983 11.4519 16.4082C11.4066 16.5181 11.3401 16.6179 11.2561 16.7019C11.1721 16.7859 11.0723 16.8524 10.9624 16.8977C10.8526 16.9429 10.7349 16.966 10.6161 16.9655C10.4972 16.965 10.3797 16.941 10.2702 16.8949C10.1607 16.8488 10.0615 16.7814 9.97815 16.6967L7.30365 14.021C7.21896 13.9377 7.15161 13.8384 7.10548 13.7289C7.05935 13.6195 7.03535 13.5019 7.03487 13.3831C7.03439 13.2643 7.05744 13.1466 7.10269 13.0367C7.14793 12.9269 7.21448 12.8271 7.29849 12.7431C7.38251 12.6591 7.48232 12.5925 7.59218 12.5473C7.70203 12.5021 7.81976 12.479 7.93857 12.4795C8.05737 12.48 8.1749 12.504 8.28439 12.5501C8.39387 12.5963 8.49313 12.6636 8.57645 12.7483L9.27735 13.4491L10.7273 11.9991L10.0264 11.2983C9.85766 11.1295 9.76284 10.9006 9.76284 10.6619C9.76284 10.4232 9.85766 10.1943 10.0264 10.0255C10.1952 9.85674 10.4242 9.76192 10.6628 9.76192C10.9015 9.76192 11.1305 9.85674 11.2992 10.0255L12 10.7268L13.45 9.27683L12.7491 8.57593C12.6645 8.49261 12.5971 8.39334 12.551 8.28386C12.5048 8.17438 12.4808 8.05685 12.4803 7.93804C12.4798 7.81924 12.5029 7.70151 12.5481 7.59165C12.5933 7.4818 12.6599 7.38198 12.7439 7.29797C12.8279 7.21396 12.9277 7.14741 13.0376 7.10217C13.1474 7.05692 13.2651 7.03387 13.3839 7.03435C13.5028 7.03483 13.6203 7.05883 13.7298 7.10496C13.8393 7.15109 13.9385 7.21844 14.0218 7.30313L16.6971 9.97833C16.7807 10.062 16.847 10.1612 16.8922 10.2705C16.9374 10.3797 16.9607 10.4968 16.9606 10.6151C16.9605 10.7333 16.9372 10.8504 16.8919 10.9596C16.8465 11.0688 16.7801 11.168 16.6964 11.2515H16.6965Z" fill="black"/>
</svg>
