<svg width="24" height="24" viewBox="0 0 24 24" fill="none" xmlns="http://www.w3.org/2000/svg">
<path d="M22 5H19V3H5V5H2C1.73478 5 1.48043 5.10536 1.29289 5.29289C1.10536 5.48043 1 5.73478 1 6V8C1.00235 9.26504 1.4857 10.4819 2.35206 11.4037C3.21842 12.3255 4.40293 12.8834 5.6654 12.9641C6.1206 13.9367 6.79335 14.7917 7.63165 15.4628C8.46995 16.134 9.45135 16.6034 10.5 16.8348V17.6676C10.4999 18.1136 10.3508 18.5467 10.0763 18.8982C9.80185 19.2498 9.41776 19.4994 8.9851 19.6076L6.5 20.2292V22H17.5V20.2292L15.015 19.6079C14.5823 19.4997 14.1982 19.2501 13.9237 18.8986C13.6492 18.5471 13.5001 18.1139 13.5 17.6679V16.8351C14.5487 16.6037 15.5301 16.1343 16.3684 15.4631C17.2067 14.792 17.8794 13.937 18.3346 12.9644C19.5971 12.8836 20.7817 12.3258 21.648 11.4039C22.5144 10.482 22.9977 9.2651 23 8V6C23 5.73478 22.8946 5.48043 22.7071 5.29289C22.5196 5.10536 22.2652 5 22 5ZM1.5 8V6C1.50016 5.86744 1.55289 5.74036 1.64662 5.64662C1.74036 5.55289 1.86744 5.50016 2 5.5H5V10C5.00158 10.8288 5.15098 11.6507 5.4412 12.4271C4.35761 12.2962 3.35911 11.7741 2.63336 10.9589C1.90762 10.1437 1.50458 9.09146 1.5 8ZM14.8937 20.093L17 20.62V21.5H7V20.62L9.1064 20.0934C9.64765 19.9587 10.1282 19.6466 10.4714 19.207C10.8146 18.7673 11.0007 18.2254 11 17.6676V16.9205C11.6625 17.0265 12.3375 17.0265 13 16.9205V17.6676C12.9994 18.2253 13.1855 18.7672 13.5287 19.2067C13.872 19.6463 14.3525 19.9583 14.8937 20.093ZM12 16.5C10.2767 16.498 8.62453 15.8126 7.40597 14.594C6.18741 13.3755 5.50196 11.7233 5.5 10V3.5H18.5V10C18.498 11.7233 17.8126 13.3755 16.594 14.594C15.3755 15.8126 13.7233 16.498 12 16.5ZM22.5 8C22.4954 9.09146 22.0924 10.1437 21.3666 10.9589C20.6409 11.7741 19.6424 12.2962 18.5588 12.4271C18.849 11.6507 18.9984 10.8288 19 10V5.5H22C22.1326 5.50016 22.2596 5.55289 22.3534 5.64662C22.4471 5.74036 22.4998 5.86744 22.5 6V8Z" fill="black"/>
</svg>
