<svg width="24" height="24" viewBox="0 0 24 24" fill="none" xmlns="http://www.w3.org/2000/svg">
<path d="M20.8435 11.1C20.6693 9.37021 19.9892 7.7301 18.8882 6.3846L20.415 4.8579L19.1416 3.5854L17.6152 5.1118C16.2698 4.01081 14.6297 3.33075 12.9 3.1566V1H11.1V3.1566C9.37027 3.33075 7.73021 4.01081 6.3848 5.1118L4.8584 3.5854L3.585 4.8579L5.1118 6.3847C4.01084 7.73018 3.33075 9.37024 3.1565 11.1H1V12.9H3.1565C3.33073 14.6298 4.01082 16.2699 5.1118 17.6154L3.585 19.1421L4.8584 20.4146L6.3848 18.8882C7.73021 19.9892 9.37027 20.6693 11.1 20.8434V23H12.9V20.8434C14.6296 20.6692 16.2695 19.9891 17.6148 18.8882L19.1412 20.4146L20.4146 19.1421L18.8878 17.6153C19.9889 16.2699 20.6691 14.6298 20.8435 12.9H23V11.1H20.8435ZM12.9 4.9749C14.1494 5.13453 15.3331 5.62616 16.328 6.3986L12.9 9.8267V4.9749ZM11.0992 4.9749V9.8267L7.6716 6.3986C8.66658 5.62609 9.85048 5.13446 11.1 4.9749H11.0992ZM6.3984 7.6715L9.8271 11.1H4.9749C5.13439 9.85047 5.62595 8.66654 6.3984 7.6715ZM4.9749 12.9H9.8271L6.3984 16.3285C5.62595 15.3335 5.13439 14.1495 4.9749 12.9ZM11.1 19.0251C9.85062 18.8655 8.66687 18.3738 7.672 17.6014L11.1 14.1733V19.0251ZM12 13.1C11.7824 13.1 11.5698 13.0355 11.3889 12.9146C11.208 12.7937 11.067 12.622 10.9837 12.421C10.9005 12.22 10.8787 11.9988 10.9211 11.7854C10.9636 11.572 11.0683 11.376 11.2222 11.2222C11.376 11.0683 11.572 10.9636 11.7854 10.9211C11.9988 10.8787 12.22 10.9005 12.421 10.9837C12.622 11.067 12.7937 11.208 12.9146 11.3889C13.0355 11.5698 13.1 11.7824 13.1 12C13.1 12.2917 12.9841 12.5715 12.7778 12.7778C12.5715 12.9841 12.2917 13.1 12 13.1ZM12.9 19.0251V14.1733L16.328 17.6014C15.3331 18.3738 14.1494 18.8655 12.9 19.0251ZM17.6012 16.3285L14.1729 12.9H19.0251C18.8656 14.1495 18.374 15.3335 17.6016 16.3285H17.6012ZM14.1729 11.1L17.6016 7.6714C18.3741 8.66647 18.8656 9.85043 19.0251 11.1H14.1729Z" fill="black"/>
</svg>
