<svg width="24" height="24" viewBox="0 0 24 24" fill="none" xmlns="http://www.w3.org/2000/svg">
<path d="M9.99999 12C10.0001 9.88134 10.8406 7.84923 12.3372 6.34959C13.8338 4.84995 15.8642 4.00527 17.9829 4.0009C16.4973 2.88633 14.7306 2.20751 12.8809 2.04051C11.0311 1.87351 9.17146 2.22494 7.51022 3.0554C5.84899 3.88586 4.45185 5.16254 3.47538 6.74237C2.49891 8.32221 1.98169 10.1428 1.98169 12C1.98169 13.8573 2.49891 15.6778 3.47538 17.2576C4.45185 18.8375 5.84899 20.1141 7.51022 20.9446C9.17146 21.7751 11.0311 22.1265 12.8809 21.9595C14.7306 21.7925 16.4973 21.1137 17.9829 19.9991C15.8642 19.9947 13.8338 19.1501 12.3372 17.6504C10.8406 16.1508 10.0001 14.1187 9.99999 12ZM12 20.2C9.82521 20.2 7.73951 19.3361 6.20171 17.7983C4.66392 16.2605 3.79999 14.1748 3.79999 12C3.79999 9.82523 4.66392 7.73953 6.20171 6.20173C7.73951 4.66393 9.82521 3.8 12 3.8C12.2039 3.8 12.4067 3.80747 12.6084 3.8224C11.2537 4.7137 10.1417 5.92755 9.37226 7.35492C8.60279 8.78228 8.19996 10.3784 8.19996 12C8.19996 13.6216 8.60279 15.2177 9.37226 16.6451C10.1417 18.0725 11.2537 19.2863 12.6084 20.1776C12.4067 20.1925 12.2039 20.2 12 20.2ZM22.0581 10.8232H18.9581L18 7.875L17.042 10.8232H13.942L16.45 12.6454L15.4919 15.5938L18 13.7716L20.5081 15.5938L19.55 12.6454L22.0581 10.8232Z" fill="black"/>
</svg>
