<svg width="24" height="24" viewBox="0 0 24 24" fill="none" xmlns="http://www.w3.org/2000/svg">
<path d="M12 2C10.0222 2 8.08879 2.58649 6.4443 3.6853C4.79981 4.78412 3.51809 6.3459 2.76121 8.17317C2.00433 10.0004 1.8063 12.0111 2.19215 13.9509C2.578 15.8907 3.53041 17.6725 4.92894 19.0711C6.32746 20.4696 8.10929 21.422 10.0491 21.8079C11.9889 22.1937 13.9996 21.9957 15.8268 21.2388C17.6541 20.4819 19.2159 19.2002 20.3147 17.5557C21.4135 15.9112 22 13.9778 22 12C22 10.6868 21.7413 9.38642 21.2388 8.17317C20.7363 6.95991 19.9997 5.85752 19.0711 4.92893C18.1425 4.00035 17.0401 3.26375 15.8268 2.7612C14.6136 2.25866 13.3132 2 12 2ZM3.4 12C3.40265 9.71995 4.30957 7.53404 5.92181 5.9218C7.53405 4.30957 9.71996 3.40265 12 3.4C13.0473 3.40103 14.0514 3.81752 14.7919 4.55807C15.5325 5.29861 15.949 6.30271 15.95 7.35C15.95 9.4018 14.2928 11.0277 11.9187 11.3046C8.7176 11.6776 6.6487 13.7758 6.6487 16.6498C6.65487 17.5485 6.89015 18.4307 7.3323 19.2131C6.12678 18.4347 5.13536 17.3668 4.44848 16.1068C3.76161 14.8469 3.40116 13.435 3.4 12ZM12 20.6C10.9527 20.599 9.94862 20.1825 9.20807 19.4419C8.46753 18.7014 8.05104 17.6973 8.05 16.65C8.05 14.5006 9.5949 12.9855 12.0813 12.6954C15.1838 12.3336 17.3513 10.1354 17.3513 7.3502C17.3451 6.45153 17.1099 5.56929 16.6677 4.7869C18.2269 5.79337 19.4184 7.27756 20.0639 9.01749C20.7095 10.7574 20.7744 12.6596 20.2491 14.4395C19.7237 16.2194 18.6362 17.7814 17.1492 18.8919C15.6623 20.0023 13.8558 20.6016 12 20.6ZM12 15.5C11.8022 15.5 11.6089 15.5586 11.4444 15.6685C11.28 15.7784 11.1518 15.9346 11.0761 16.1173C11.0004 16.3 10.9806 16.5011 11.0192 16.6951C11.0578 16.8891 11.153 17.0673 11.2929 17.2071C11.4328 17.347 11.6109 17.4422 11.8049 17.4808C11.9989 17.5194 12.2 17.4996 12.3827 17.4239C12.5654 17.3482 12.7216 17.22 12.8315 17.0556C12.9414 16.8911 13 16.6978 13 16.5C13 16.2348 12.8946 15.9804 12.7071 15.7929C12.5196 15.6054 12.2652 15.5 12 15.5ZM12 8.5C12.1978 8.5 12.3911 8.44135 12.5556 8.33147C12.72 8.22159 12.8482 8.06541 12.9239 7.88268C12.9996 7.69996 13.0194 7.49889 12.9808 7.30491C12.9422 7.11093 12.847 6.93275 12.7071 6.79289C12.5673 6.65304 12.3891 6.5578 12.1951 6.51921C12.0011 6.48063 11.8 6.50043 11.6173 6.57612C11.4346 6.65181 11.2784 6.77998 11.1685 6.94443C11.0587 7.10888 11 7.30222 11 7.5C11 7.76522 11.1054 8.01957 11.2929 8.20711C11.4804 8.39464 11.7348 8.5 12 8.5Z" fill="black"/>
</svg>
