<svg width="24" height="24" viewBox="0 0 24 24" fill="none" xmlns="http://www.w3.org/2000/svg">
<path d="M18.6748 11.9999C20.7769 9.95993 21.7881 7.95993 21.0906 6.75143C20.7855 6.36686 20.3853 6.06856 19.9296 5.88603C19.4739 5.70349 18.9784 5.64303 18.4922 5.71063C17.4227 5.74005 16.362 5.91303 15.3386 6.22493C14.623 3.38143 13.3958 1.50293 12 1.50293C10.6042 1.50293 9.37702 3.38143 8.66142 6.22493C7.63802 5.91291 6.57732 5.73992 5.50782 5.71063C5.02159 5.64313 4.52617 5.70364 4.07048 5.88617C3.61479 6.06869 3.21459 6.36693 2.90942 6.75143C2.21192 7.95993 3.22312 9.95993 5.32522 11.9999C3.22312 14.0399 2.21192 16.0404 2.90942 17.2484C3.21454 17.633 3.61473 17.9313 4.07044 18.1138C4.52614 18.2963 5.02159 18.3568 5.50782 18.2892C6.57731 18.2599 7.63801 18.0869 8.66142 17.7749C9.37702 20.6183 10.6042 22.4969 12 22.4969C13.3958 22.4969 14.623 20.6183 15.3386 17.7749C16.362 18.0869 17.4227 18.2599 18.4922 18.2892C18.9784 18.3567 19.4739 18.2962 19.9296 18.1137C20.3852 17.9312 20.7854 17.6329 21.0906 17.2484C21.7881 16.0404 20.7769 14.0399 18.6748 11.9999ZM18.4927 6.21063C19.5942 6.21063 20.3633 6.49143 20.6575 7.00143C21.0747 7.72373 20.6362 8.97063 19.4546 10.4225C19.0977 10.8571 18.7155 11.2702 18.31 11.6599C17.5526 10.9681 16.7491 10.3285 15.905 9.74553C15.8222 8.72442 15.6703 7.7101 15.4504 6.70953C16.4373 6.40649 17.4607 6.23866 18.4927 6.21063ZM13.75 15.0306C13.1672 15.3671 12.5823 15.6683 12 15.9495C11.4177 15.6683 10.8328 15.3671 10.25 15.0306C9.66722 14.6941 9.10842 14.3426 8.57422 13.9795C8.52732 13.3457 8.50002 12.6863 8.50002 11.9999C8.50002 11.3135 8.52732 10.6541 8.57422 10.0199C9.10842 9.65683 9.66822 9.30473 10.25 8.96893C10.8318 8.63313 11.418 8.33103 12 8.04993C12.5823 8.33103 13.1672 8.63233 13.75 8.96883C14.3328 9.30533 14.8916 9.65673 15.4258 10.0198C15.4727 10.6541 15.5 11.3134 15.5 11.9998C15.5 12.6862 15.4727 13.3456 15.4258 13.9798C14.8916 14.343 14.3318 14.6951 13.75 15.031V15.0306ZM15.3684 14.6138C15.2862 15.4648 15.1534 16.3102 14.9709 17.1454C14.1554 16.8861 13.356 16.5789 12.5767 16.2254C13.0488 15.9887 13.5234 15.739 14 15.4639C14.4766 15.1888 14.9282 14.904 15.3684 14.6142V14.6138ZM11.4233 16.2251C10.644 16.5786 9.84459 16.8858 9.02912 17.1451C8.84659 16.3099 8.71386 15.4645 8.63162 14.6135C9.07162 14.9035 9.52472 15.1888 10 15.4635C10.4753 15.7382 10.9512 15.9888 11.4233 16.2255V16.2251ZM8.05182 13.6107C7.35547 13.1137 6.68917 12.5758 6.05642 11.9999C6.6892 11.4241 7.35549 10.8863 8.05182 10.3892C8.02102 10.9155 8.00002 11.4507 8.00002 11.9999C8.00002 12.5491 8.02102 13.0843 8.05182 13.6107ZM8.63182 9.38563C8.71406 8.53464 8.84679 7.68928 9.02932 6.85403C9.84482 7.11323 10.6443 7.42043 11.4235 7.77403C10.9514 8.01073 10.4768 8.26043 10.0002 8.53553C9.52362 8.81063 9.07182 9.09583 8.63162 9.38563H8.63182ZM12.5769 7.77433C13.3562 7.42082 14.1556 7.11362 14.9711 6.85433C15.1536 7.68955 15.2864 8.53487 15.3686 9.38583C14.9286 9.09583 14.4755 8.81053 14.0002 8.53583C13.5249 8.26113 13.0488 8.01103 12.5767 7.77433H12.5769ZM15.9484 10.3891C16.6447 10.8862 17.3109 11.4241 17.9436 11.9999C17.3109 12.5758 16.6446 13.1137 15.9482 13.6108C15.979 13.0843 16 12.5491 16 11.9999C16 11.4507 15.979 10.9155 15.9482 10.3891H15.9484ZM12 2.00293C13.05 2.00293 14.1738 3.65733 14.8569 6.36713C13.8802 6.67842 12.9258 7.05548 12 7.49573C11.0743 7.05541 10.1198 6.67834 9.14312 6.36713C9.82622 3.65723 10.95 2.00293 12 2.00293ZM4.54542 10.4229C3.36382 8.97103 2.92542 7.72413 3.34252 7.00183C3.63672 6.49183 4.40582 6.21103 5.50782 6.21103C6.53952 6.239 7.56267 6.40669 8.54932 6.70953C8.32926 7.71015 8.17738 8.72454 8.09472 9.74573C7.25073 10.3286 6.44731 10.9681 5.69002 11.6599C5.28457 11.2702 4.90237 10.8571 4.54542 10.4225V10.4229ZM5.50782 17.7896C4.40582 17.7896 3.63672 17.5088 3.34252 16.9988C2.92532 16.2765 3.36382 15.0295 4.54542 13.5776C4.90236 13.143 5.28456 12.7297 5.69002 12.3399C6.4474 13.0318 7.25092 13.6714 8.09502 14.2543C8.17783 15.2755 8.32971 16.2898 8.54962 17.2904C7.56289 17.5934 6.53964 17.7612 5.50782 17.7892V17.7896ZM12 21.9969C10.95 21.9969 9.82622 20.3425 9.14312 17.6327C10.1198 17.3215 11.0743 16.9445 12 16.5041C12.9257 16.9444 13.8802 17.3215 14.8569 17.6327C14.1738 20.3426 13.05 21.9969 12 21.9969ZM20.6575 16.9984C20.3633 17.5084 19.5942 17.7892 18.4922 17.7892C17.4605 17.7613 16.4374 17.5935 15.4507 17.2906C15.6706 16.29 15.8225 15.2757 15.9053 14.2545C16.7493 13.6715 17.5527 13.0319 18.31 12.3399C18.7154 12.7295 19.0974 13.1426 19.4543 13.577C20.6362 15.0291 21.0747 16.2761 20.6575 16.9984Z" fill="black"/>
</svg>
