<svg width="24" height="24" viewBox="0 0 24 24" fill="none" xmlns="http://www.w3.org/2000/svg">
<path d="M12 14.75C11.7033 14.75 11.4133 14.838 11.1666 15.0028C10.92 15.1676 10.7277 15.4019 10.6142 15.676C10.5007 15.9501 10.4709 16.2517 10.5288 16.5426C10.5867 16.8336 10.7296 17.1009 10.9393 17.3107C11.1491 17.5204 11.4164 17.6633 11.7074 17.7212C11.9983 17.7791 12.2999 17.7493 12.574 17.6358C12.8481 17.5223 13.0824 17.33 13.2472 17.0834C13.412 16.8367 13.5 16.5467 13.5 16.25C13.5 15.8522 13.342 15.4706 13.0607 15.1893C12.7794 14.908 12.3978 14.75 12 14.75ZM12 2C10.0222 2 8.08879 2.58649 6.4443 3.6853C4.79981 4.78412 3.51809 6.3459 2.76121 8.17317C2.00433 10.0004 1.8063 12.0111 2.19215 13.9509C2.578 15.8907 3.53041 17.6725 4.92894 19.0711C6.32746 20.4696 8.10929 21.422 10.0491 21.8079C11.9889 22.1937 13.9996 21.9957 15.8268 21.2388C17.6541 20.4819 19.2159 19.2002 20.3147 17.5557C21.4135 15.9112 22 13.9778 22 12C22 10.6868 21.7413 9.38642 21.2388 8.17317C20.7363 6.95991 19.9997 5.85752 19.0711 4.92893C18.1425 4.00035 17.0401 3.26375 15.8268 2.7612C14.6136 2.25866 13.3132 2 12 2ZM12 6.25C12.2967 6.25 12.5867 6.33797 12.8334 6.5028C13.08 6.66762 13.2723 6.90189 13.3858 7.17597C13.4994 7.45006 13.5291 7.75166 13.4712 8.04264C13.4133 8.33361 13.2704 8.60088 13.0607 8.81066C12.8509 9.02044 12.5836 9.1633 12.2926 9.22118C12.0017 9.27906 11.7001 9.24935 11.426 9.13582C11.1519 9.02229 10.9176 8.83003 10.7528 8.58335C10.588 8.33668 10.5 8.04667 10.5 7.75C10.5 7.35218 10.658 6.97064 10.9393 6.68934C11.2206 6.40804 11.6022 6.25 12 6.25ZM12 20.5C10.8728 20.5 9.79183 20.0522 8.9948 19.2552C8.19777 18.4582 7.75 17.3772 7.75 16.25C7.75 13.9028 9.6389 12.2755 12 12C14.5422 11.7034 16.2769 10.072 16.25 7.6949C16.2111 6.56923 15.736 5.50278 14.9253 4.7209C14.1145 3.93903 13.0316 3.50298 11.9052 3.5049C11.9372 3.5049 11.9682 3.5001 12.0002 3.5001C14.2545 3.5001 16.4166 4.39563 18.0106 5.98969C19.6047 7.58375 20.5002 9.74576 20.5002 12.0001C20.5002 14.2544 19.6047 16.4164 18.0106 18.0105C16.4166 19.6046 14.2545 20.5001 12.0002 20.5001L12 20.5Z" fill="black"/>
</svg>
