<svg width="24" height="24" viewBox="0 0 24 24" fill="none" xmlns="http://www.w3.org/2000/svg">
<path d="M18.6748 11.9999C20.7769 9.95993 21.7881 7.95993 21.0906 6.75143C20.7855 6.36686 20.3853 6.06856 19.9296 5.88603C19.4739 5.70349 18.9784 5.64303 18.4922 5.71063C17.4227 5.74005 16.362 5.91303 15.3386 6.22493C14.623 3.38143 13.3958 1.50293 12 1.50293C10.6042 1.50293 9.37702 3.38143 8.66142 6.22493C7.63802 5.91291 6.57732 5.73992 5.50782 5.71063C5.02159 5.64313 4.52617 5.70364 4.07048 5.88617C3.61479 6.06869 3.21459 6.36693 2.90942 6.75143C2.21192 7.95993 3.22312 9.95993 5.32522 11.9999C3.22312 14.0399 2.21192 16.0404 2.90942 17.2484C3.21454 17.633 3.61473 17.9313 4.07044 18.1138C4.52614 18.2963 5.02159 18.3568 5.50782 18.2892C6.57732 18.2599 7.63802 18.0869 8.66142 17.7749C9.37702 20.6184 10.6042 22.4969 12 22.4969C13.3958 22.4969 14.623 20.6184 15.3386 17.7749C16.362 18.087 17.4227 18.2599 18.4922 18.2892C18.9784 18.3567 19.4739 18.2962 19.9296 18.1137C20.3852 17.9312 20.7854 17.6329 21.0906 17.2484C21.7881 16.0404 20.7769 14.0399 18.6748 11.9999ZM18.4927 6.71063C19.3816 6.71063 20.0291 6.91273 20.2246 7.25143C20.4478 7.63813 20.2786 8.61793 19.0667 10.1069C18.7148 10.5348 18.3378 10.9414 17.9375 11.3244C17.2897 10.761 16.6113 10.2339 15.9053 9.74533C15.8354 8.89268 15.7185 8.04453 15.5553 7.20473C16.5075 6.90761 17.4957 6.74139 18.4927 6.71063ZM13.5 14.598C13.0034 14.8847 12.5015 15.1449 12 15.392C11.4985 15.1449 10.9966 14.8847 10.5 14.598C10.0005 14.3095 9.52102 14.008 9.05712 13.6988C9.02272 13.1533 9.00002 12.5906 9.00002 11.9999C9.00002 11.4092 9.02272 10.8465 9.05712 10.301C9.52102 9.99213 10.0005 9.69033 10.5 9.40183C10.9966 9.11513 11.4985 8.85493 12 8.60783C12.5015 8.85493 13.0034 9.11513 13.5 9.40183C13.9995 9.69033 14.479 9.99183 14.9429 10.301C14.9773 10.8465 15 11.4092 15 11.9999C15 12.5906 14.9773 13.1533 14.9429 13.6988C14.479 14.0077 14 14.3099 13.5 14.598ZM14.8347 14.9605C14.7725 15.5015 14.6924 16.0093 14.6013 16.4917C14.1282 16.3267 13.6445 16.1352 13.1553 15.9248C13.4365 15.7748 13.7178 15.627 14 15.464C14.2849 15.2999 14.562 15.1309 14.8347 14.9605ZM10.8447 15.9248C10.3555 16.1348 9.87182 16.3267 9.39872 16.4917C9.30762 16.0093 9.22752 15.5017 9.16532 14.9605C9.43802 15.1305 9.71532 15.2995 10 15.464C10.2822 15.627 10.5635 15.7752 10.8447 15.9248ZM8.01862 12.9724C7.59012 12.6538 7.18772 12.3284 6.80712 11.9999C7.18772 11.6714 7.59012 11.346 8.01862 11.0274C8.00732 11.348 8.00002 11.6716 8.00002 11.9999C8.00002 12.3282 8.00732 12.6518 8.01862 12.9724ZM9.16532 9.03933C9.22752 8.49833 9.30762 7.99053 9.39872 7.50813C9.87182 7.67313 10.3555 7.86463 10.8447 8.07503C10.5635 8.22503 10.2822 8.37283 10 8.53583C9.71512 8.69993 9.43802 8.86893 9.16532 9.03933ZM13.1553 8.07503C13.6445 7.86503 14.1282 7.67323 14.6013 7.50833C14.6924 7.99063 14.7725 8.49833 14.8347 9.03933C14.562 8.86933 14.2847 8.70033 14 8.53583C13.7178 8.37283 13.4365 8.22463 13.1553 8.07503ZM15.9814 11.0274C16.4099 11.346 16.8125 11.6714 17.1931 11.9999C16.8125 12.3284 16.4099 12.6538 15.9814 12.9724C15.9927 12.6518 16 12.3282 16 11.9999C16 11.6716 15.9927 11.348 15.9814 11.0274ZM12 2.50293C12.7715 2.50293 13.7627 3.97783 14.39 6.52023C13.5759 6.80099 12.778 7.12666 12 7.49573C11.222 7.12655 10.4241 6.80079 9.61002 6.51993C10.2373 3.97773 11.2285 2.50293 12 2.50293ZM4.93332 10.1069C3.72142 8.61793 3.55222 7.63813 3.77542 7.25143C3.97092 6.91273 4.61872 6.71063 5.50782 6.71063C6.50464 6.74131 7.49264 6.90753 8.44462 7.20473C8.28148 8.04454 8.16464 8.89269 8.09462 9.74533C7.38865 10.2339 6.71022 10.761 6.06242 11.3244C5.66219 10.9414 5.28516 10.5348 4.93332 10.1069ZM5.50782 17.2892C4.61842 17.2892 3.97092 17.0871 3.77542 16.7484C3.55222 16.3617 3.72142 15.3819 4.93332 13.8929C5.28519 13.465 5.66226 13.0585 6.06252 12.6754C6.71032 13.2388 7.38875 13.766 8.09472 14.2545C8.16474 15.1072 8.28158 15.9553 8.44472 16.7951C7.49271 17.0923 6.50467 17.2586 5.50782 17.2892ZM12 21.4969C11.2285 21.4969 10.2373 20.022 9.61002 17.4797C10.4241 17.1989 11.222 16.8732 12 16.5041C12.778 16.8733 13.5759 17.199 14.39 17.4797C13.7627 20.022 12.7715 21.4969 12 21.4969ZM20.2246 16.7484C20.0291 17.0871 19.3816 17.2892 18.4922 17.2892C17.4954 17.2586 16.5074 17.0923 15.5554 16.7951C15.7186 15.9553 15.8354 15.1072 15.9054 14.2545C16.6114 13.766 17.2898 13.2388 17.9376 12.6754C18.3379 13.0585 18.7149 13.465 19.0668 13.8929C20.2786 15.3819 20.4478 16.3617 20.2246 16.7484Z" fill="black"/>
</svg>
