<svg width="24" height="24" viewBox="0 0 24 24" fill="none" xmlns="http://www.w3.org/2000/svg">
<path d="M12 2C10.0222 2 8.08879 2.58649 6.4443 3.6853C4.79981 4.78412 3.51809 6.3459 2.76121 8.17317C2.00433 10.0004 1.8063 12.0111 2.19215 13.9509C2.578 15.8907 3.53041 17.6725 4.92894 19.0711C6.32746 20.4696 8.10929 21.422 10.0491 21.8079C11.9889 22.1937 13.9996 21.9957 15.8268 21.2388C17.6541 20.4819 19.2159 19.2002 20.3147 17.5557C21.4135 15.9112 22 13.9778 22 12C22 10.6868 21.7413 9.38642 21.2388 8.17317C20.7363 6.95991 19.9997 5.85752 19.0711 4.92893C18.1425 4.00035 17.0401 3.26375 15.8268 2.7612C14.6136 2.25866 13.3132 2 12 2ZM21 12C20.9973 12.7653 20.8965 13.527 20.7 14.2666L15.854 10.7466L17.7061 5.0466C18.7357 5.88944 19.5653 6.95042 20.1349 8.15291C20.7046 9.35541 21 10.6694 21 12ZM10.67 15.2759H13.33L12 19.3706L10.67 15.2759ZM10.3448 14.2759L9.3224 11.1279L12 9.1821L14.6777 11.1279L13.6553 14.2759H10.3448ZM8.9972 10.1279L7.667 6.0342L11.1494 8.5642L8.9972 10.1279ZM9.2931 14.2759H4.9893L8.4717 11.7459L9.2931 14.2759ZM12.8506 8.564L16.333 6.034L15.003 10.1277L12.8506 8.564ZM15.5283 11.7461L19.0107 14.2761H14.707L15.5283 11.7461ZM16.844 4.4269L12 7.9463L7.156 4.4269C8.59989 3.49542 10.2817 3 12 3C13.7183 3 15.4001 3.49542 16.844 4.4269ZM6.2947 5.0455L8.1465 10.7461L3.3005 14.267C2.85789 12.6048 2.90501 10.8502 3.43622 9.21421C3.96742 7.57822 4.96007 6.13058 6.2947 5.0455ZM3.6262 15.2755H9.6182L11.4688 20.9727C9.75441 20.8699 8.10518 20.2789 6.71561 19.2695C5.32605 18.2602 4.2541 16.8745 3.6262 15.2759V15.2755ZM12.5317 20.9726L14.3817 15.2755H20.3737C19.746 16.8741 18.6742 18.2599 17.2847 19.2694C15.8953 20.2789 14.2461 20.87 12.5317 20.973V20.9726Z" fill="black"/>
</svg>
