<svg width="24" height="24" viewBox="0 0 24 24" fill="none" xmlns="http://www.w3.org/2000/svg">
<path d="M16.5024 2.52302L15.7952 1.81592L15.0881 2.52302L15.7952 3.23012L16.5024 2.52302ZM19.97 5.39832L19.263 4.69132C17.011 6.94132 14.5364 6.65322 11.693 3.81132L10.986 4.51842C12.7623 6.29422 14.5016 7.18442 16.1481 7.18442C16.8727 7.1598 17.5848 6.98887 18.2416 6.68193C18.8984 6.37498 19.4863 5.93836 19.97 5.39832ZM17.5762 9.48992C16.191 9.56009 14.8778 10.128 13.8779 11.0891C13.2168 11.7451 12.3992 12.2216 11.5026 12.4733C10.6059 12.7251 9.65983 12.7438 8.7539 12.5277C9.33025 12.2673 9.83116 11.865 10.2098 11.3584C10.5884 10.8519 10.8324 10.2575 10.9189 9.63102C10.9516 9.21275 10.8976 8.79223 10.7606 8.39572C10.6235 7.99921 10.4061 7.6352 10.1221 7.32642C9.82643 7.0195 9.47062 6.77689 9.07692 6.61376C8.68322 6.45062 8.26009 6.37047 7.834 6.37832C6.34439 6.47283 4.9482 7.13666 3.9346 8.23232L4.6416 8.93942C5.46936 8.03317 6.61044 7.47517 7.834 7.37832C8.12363 7.371 8.41167 7.4235 8.68009 7.53256C8.94851 7.64161 9.19154 7.80487 9.394 8.01212C9.58422 8.22205 9.7292 8.46889 9.81992 8.73727C9.91064 9.00565 9.94514 9.28983 9.9213 9.57212C9.8022 11.5779 6.4174 12.3953 6.3832 12.4036L6.5805 13.3836C7.12018 13.2732 7.67784 13.2863 8.21174 13.422C8.74563 13.5576 9.24194 13.8122 9.6635 14.1668C10.0753 14.5143 10.4088 14.9452 10.6419 15.431C10.875 15.9168 11.0025 16.4465 11.016 16.9852C10.9711 17.916 10.576 18.7954 9.91005 19.4472C9.24406 20.099 8.35634 20.475 7.4248 20.4999C5.6143 20.4999 3.5 19.1757 3.5 15.4428H2.5C2.5 19.6269 4.9736 21.4999 7.4248 21.4999C8.62294 21.4796 9.76749 20.9997 10.6219 20.1595C11.4763 19.3193 11.9752 18.183 12.0156 16.9853C12.0006 16.3297 11.8521 15.684 11.5792 15.0876C11.3063 14.4912 10.9148 13.9567 10.4285 13.5167C11.9334 13.469 13.3726 12.889 14.49 11.8799C15.3175 11.0598 16.4134 10.5662 17.576 10.4899C18.0318 10.4641 18.4879 10.5364 18.9134 10.7018C19.339 10.8673 19.724 11.1222 20.0427 11.4492C20.3613 11.7762 20.606 12.1677 20.7604 12.5974C20.9148 13.0271 20.9752 13.4849 20.9375 13.9399C20.9375 16.2699 19.7227 17.9623 18.0498 17.9623C17.7069 17.9886 17.3623 17.9424 17.0385 17.8267C16.7147 17.711 16.4188 17.5284 16.1703 17.2908C15.9217 17.0531 15.726 16.7658 15.5959 16.4475C15.4657 16.1292 15.4041 15.787 15.415 15.4433H14.415C14.4023 15.9188 14.4886 16.3917 14.6683 16.8321C14.848 17.2725 15.1173 17.6708 15.459 18.0016C15.8008 18.3325 16.2075 18.5887 16.6535 18.7541C17.0995 18.9195 17.575 18.9904 18.0498 18.9623C20.3027 18.9623 21.9375 16.85 21.9375 13.9399C21.9775 13.3528 21.8928 12.7639 21.689 12.2118C21.4851 11.6597 21.1668 11.157 20.7549 10.7368C20.343 10.3165 19.8468 9.98809 19.299 9.7732C18.7511 9.55831 18.164 9.46177 17.5762 9.48992Z" fill="black"/>
</svg>
