<svg width="24" height="24" viewBox="0 0 24 24" fill="none" xmlns="http://www.w3.org/2000/svg">
<path d="M12 2C10.0222 2 8.08879 2.58649 6.4443 3.6853C4.79981 4.78412 3.51809 6.3459 2.76121 8.17317C2.00433 10.0004 1.8063 12.0111 2.19215 13.9509C2.578 15.8907 3.53041 17.6725 4.92894 19.0711C6.32746 20.4696 8.10929 21.422 10.0491 21.8079C11.9889 22.1937 13.9996 21.9957 15.8268 21.2388C17.6541 20.4819 19.2159 19.2002 20.3147 17.5557C21.4135 15.9112 22 13.9778 22 12C22 10.6868 21.7413 9.38642 21.2388 8.17317C20.7363 6.95991 19.9997 5.85752 19.0711 4.92893C18.1425 4.00035 17.0401 3.26375 15.8268 2.7612C14.6136 2.25866 13.3132 2 12 2ZM6.7092 17.9846C5.49029 16.9112 4.6275 15.4918 4.23583 13.9156C3.84416 12.3393 3.94222 10.6811 4.51693 9.16206C5.09165 7.64298 6.11572 6.33514 7.45265 5.41289C8.78957 4.49064 10.3758 3.99777 12 4C12.9279 4.00111 13.8175 4.37022 14.4737 5.02635C15.1298 5.68249 15.4989 6.57208 15.5 7.5C15.5 9.6313 13.6836 10.7969 11.8838 11.0068C8.6133 11.3882 6.5 13.5444 6.5 16.5C6.5013 17.0021 6.57169 17.5017 6.7092 17.9846ZM12 20C11.0721 19.9989 10.1825 19.6298 9.52636 18.9736C8.87022 18.3175 8.50112 17.4279 8.5 16.5C8.5 14.5972 9.8857 13.2534 12.1162 12.9932C15.2862 12.6232 17.5 10.3647 17.5 7.5C17.4987 6.99788 17.4283 6.49833 17.2908 6.0154C18.5097 7.0888 19.3725 8.50821 19.7642 10.0844C20.1558 11.6607 20.0578 13.3189 19.4831 14.8379C18.9084 16.357 17.8843 17.6649 16.5474 18.5871C15.2104 19.5094 13.6242 20.0022 12 20ZM12 15.15C11.733 15.15 11.472 15.2292 11.25 15.3775C11.028 15.5259 10.8549 15.7367 10.7528 15.9834C10.6506 16.2301 10.6239 16.5015 10.6759 16.7634C10.728 17.0252 10.8566 17.2658 11.0454 17.4546C11.2342 17.6434 11.4748 17.772 11.7366 17.8241C11.9985 17.8762 12.2699 17.8494 12.5166 17.7472C12.7633 17.6451 12.9741 17.472 13.1225 17.25C13.2708 17.028 13.35 16.767 13.35 16.5C13.35 16.142 13.2078 15.7986 12.9546 15.5454C12.7014 15.2922 12.358 15.15 12 15.15ZM12 8.85C12.267 8.85 12.528 8.77082 12.75 8.62248C12.972 8.47414 13.1451 8.2633 13.2472 8.01662C13.3494 7.76994 13.3762 7.4985 13.3241 7.23663C13.272 6.97475 13.1434 6.73421 12.9546 6.54541C12.7658 6.35661 12.5253 6.22803 12.2634 6.17594C12.0015 6.12385 11.7301 6.15058 11.4834 6.25276C11.2367 6.35494 11.0259 6.52797 10.8775 6.74998C10.7292 6.97199 10.65 7.233 10.65 7.5C10.65 7.85804 10.7922 8.20142 11.0454 8.45459C11.2986 8.70777 11.642 8.85 12 8.85Z" fill="black"/>
</svg>
