<svg width="24" height="24" viewBox="0 0 24 24" fill="none" xmlns="http://www.w3.org/2000/svg">
<path d="M9.99999 12C10.0001 9.88134 10.8406 7.84923 12.3372 6.34959C13.8338 4.84995 15.8642 4.00527 17.9829 4.0009C16.4973 2.88633 14.7306 2.20751 12.8809 2.04051C11.0311 1.87351 9.17146 2.22494 7.51022 3.0554C5.84899 3.88586 4.45185 5.16254 3.47538 6.74237C2.49891 8.32221 1.98169 10.1428 1.98169 12C1.98169 13.8573 2.49891 15.6778 3.47538 17.2576C4.45185 18.8375 5.84899 20.1141 7.51022 20.9446C9.17146 21.7751 11.0311 22.1265 12.8809 21.9595C14.7306 21.7925 16.4973 21.1137 17.9829 19.9991C15.8642 19.9947 13.8338 19.1501 12.3372 17.6504C10.8406 16.1508 10.0001 14.1187 9.99999 12ZM12 20.5C10.8202 20.4996 9.65349 20.2537 8.57398 19.7779C7.49446 19.302 6.52583 18.6066 5.72971 17.736C4.93359 16.8654 4.32743 15.8385 3.94979 14.7209C3.57215 13.6032 3.43131 12.4192 3.53623 11.2441C3.64114 10.069 3.98952 8.92865 4.55919 7.89556C5.12887 6.86247 5.90735 5.95928 6.84512 5.24346C7.78288 4.52764 8.85939 4.01487 10.0061 3.73778C11.1529 3.46069 12.3447 3.42535 13.5059 3.634C11.993 4.44556 10.7285 5.65215 9.84703 7.12535C8.96552 8.59855 8.49999 10.2832 8.49999 12C8.49999 13.7168 8.96552 15.4015 9.84703 16.8747C10.7285 18.3479 11.993 19.5545 13.5059 20.366C13.0089 20.4554 12.5049 20.5002 12 20.5ZM21.69 10.9345H18.8711L18 8.2535L17.1289 10.9345H14.31L16.5905 12.5915L15.7194 15.2726L18 13.6155L20.2808 15.2726L19.41 12.5915L21.69 10.9345Z" fill="black"/>
</svg>
