<svg width="24" height="24" viewBox="0 0 24 24" fill="none" xmlns="http://www.w3.org/2000/svg">
<path d="M20.8762 11.75C20.8182 9.56786 19.9554 7.48423 18.4536 5.9L19.9551 4.3986L19.6016 4.0451L18.1 5.5463C16.5157 4.04461 14.4321 3.18166 12.25 3.1234V1H11.75V3.1234C9.56787 3.18166 7.48431 4.04461 5.9 5.5463L4.3984 4.0449L4.0449 4.3984L5.5464 5.9C4.04463 7.48423 3.18176 9.56786 3.1238 11.75H1V12.25H3.1238C3.1818 14.4321 4.04466 16.5157 5.5464 18.1L4.0449 19.6016L4.3984 19.9551L5.9 18.4537C7.48435 19.9553 9.56788 20.8183 11.75 20.8766V23H12.25V20.8766C14.4321 20.8183 16.5156 19.9553 18.1 18.4537L19.6015 19.9551L19.955 19.6016L18.4536 18.1C19.9553 16.5157 20.8182 14.4321 20.8762 12.25H23V11.75H20.8762ZM17.7439 5.9026L13.2205 10.426C12.9391 10.2075 12.604 10.069 12.2505 10.0252V3.6234C14.2993 3.68315 16.2546 4.49438 17.7439 5.9026ZM12 13.5C11.7033 13.5 11.4133 13.412 11.1666 13.2472C10.92 13.0824 10.7277 12.8481 10.6142 12.574C10.5006 12.2999 10.4709 11.9983 10.5288 11.7074C10.5867 11.4164 10.7296 11.1491 10.9393 10.9393C11.1491 10.7296 11.4164 10.5867 11.7074 10.5288C11.9983 10.4709 12.2999 10.5006 12.574 10.6142C12.8481 10.7277 13.0824 10.92 13.2472 11.1666C13.412 11.4133 13.5 11.7033 13.5 12C13.4995 12.3977 13.3414 12.779 13.0602 13.0602C12.779 13.3414 12.3977 13.4995 12 13.5ZM11.75 3.6234V10.0252C11.3965 10.069 11.0614 10.2075 10.78 10.426L6.2561 5.9026C7.74556 4.49427 9.70102 3.68303 11.75 3.6234ZM5.9026 6.2561L10.426 10.78C10.2074 11.0613 10.0689 11.3965 10.0251 11.75H3.6238C3.68308 9.70102 4.49421 7.74548 5.9026 6.2561ZM3.6238 12.25H10.0251C10.0689 12.6035 10.2074 12.9387 10.426 13.22L5.9026 17.7439C4.49421 16.2545 3.68308 14.299 3.6238 12.25ZM6.2561 18.0974L10.78 13.574C11.0613 13.7925 11.3965 13.931 11.75 13.9748V20.3766C9.70102 20.317 7.74556 19.5057 6.2561 18.0974ZM12.25 20.3766V13.9748C12.6035 13.931 12.9387 13.7925 13.22 13.574L17.7434 18.0974C16.2541 19.5056 14.2988 20.3169 12.25 20.3766ZM18.0974 17.7439L13.574 13.2205C13.7926 12.9392 13.9311 12.604 13.9749 12.2505H20.3762C20.3168 14.2993 19.5057 16.2546 18.0974 17.7439ZM13.9749 11.75C13.9311 11.3965 13.7926 11.0613 13.574 10.78L18.0974 6.256C19.5058 7.74544 20.3169 9.701 20.3762 11.75H13.9749Z" fill="black"/>
</svg>
