<svg width="24" height="24" viewBox="0 0 24 24" fill="none" xmlns="http://www.w3.org/2000/svg">
<path d="M17.27 2.52318L15.7952 1.04858L14.3206 2.52318L15.7952 3.99778L17.27 2.52318ZM20.3232 5.75208L18.9092 4.33798C17.625 5.62168 15.5166 6.92798 12.0459 3.45798L10.6318 4.87218C12.499 6.73888 14.375 7.67688 16.1582 7.67688C16.9463 7.65309 17.7214 7.47033 18.4371 7.13957C19.1529 6.80882 19.7944 6.33688 20.3232 5.75208ZM17.5762 8.99008C16.0801 9.05948 14.6587 9.66427 13.5713 10.6942C12.5039 11.5224 11.5173 12.443 9.804 12.4242C10.2592 12.1102 10.6398 11.6999 10.9187 11.2224C11.1976 10.7449 11.3681 10.2119 11.418 9.66118C11.4553 9.17469 11.3917 8.68574 11.2313 8.22497C11.0708 7.76419 10.8169 7.34154 10.4854 6.98348C10.1433 6.6267 9.73127 6.34439 9.27503 6.15425C8.81879 5.9641 8.32821 5.87022 7.834 5.87848C6.2116 5.97219 4.68803 6.68867 3.5811 7.87848L4.9951 9.29308C5.72995 8.48147 6.74353 7.97641 7.834 7.87848C8.05528 7.87166 8.27559 7.91045 8.48123 7.99244C8.68687 8.07444 8.87343 8.19788 9.0293 8.35508C9.17381 8.51478 9.28337 8.7029 9.35098 8.90738C9.41858 9.11187 9.44274 9.32822 9.4219 9.54258C9.3419 10.8897 7.0619 11.7296 6.2705 11.9166L6.6631 13.8766C7.1311 13.7803 7.6148 13.7907 8.07822 13.9071C8.54163 14.0235 8.97285 14.2429 9.3398 14.5489C9.69693 14.8488 9.98638 15.2211 10.1891 15.6411C10.3917 16.0611 10.503 16.5193 10.5156 16.9855C10.4661 17.7818 10.1224 18.5314 9.55122 19.0885C8.98003 19.6456 8.22215 19.9705 7.4248 20.0001C5.77 20.0001 4 18.8028 4 15.443H2C2 19.9728 4.7246 22.0001 7.4248 22.0001C8.75454 21.9765 10.0244 21.443 10.9719 20.5097C11.9193 19.5764 12.472 18.3147 12.5156 16.9855C12.496 15.8405 12.1044 14.733 11.4 13.8301C12.6558 13.6405 13.833 13.1015 14.797 12.2746C15.5393 11.5269 16.5257 11.071 17.5762 10.9901C17.9663 10.9644 18.3573 11.0238 18.7222 11.1642C19.087 11.3046 19.4169 11.5227 19.6891 11.8033C19.9613 12.0839 20.1692 12.4204 20.2984 12.7894C20.4277 13.1583 20.4751 13.551 20.4375 13.9401C20.4375 15.6901 19.6175 17.4625 18.0498 17.4625C17.773 17.4876 17.4941 17.4535 17.2315 17.3625C16.9689 17.2715 16.7287 17.1257 16.5268 16.9347C16.3249 16.7438 16.1659 16.5121 16.0604 16.2549C15.9549 15.9978 15.9054 15.7212 15.915 15.4435H13.915C13.9053 15.9838 14.0065 16.5204 14.2124 17.0201C14.4182 17.5198 14.7244 17.9719 15.1119 18.3486C15.4994 18.7252 15.9601 19.0184 16.4654 19.21C16.9707 19.4016 17.51 19.4875 18.0498 19.4625C20.5918 19.4625 22.4375 17.1398 22.4375 13.9401C22.4736 13.2881 22.3733 12.6358 22.1429 12.0248C21.9126 11.4138 21.5573 10.8576 21.0998 10.3917C20.6423 9.92585 20.0926 9.56056 19.4859 9.31922C18.8791 9.07787 18.2287 8.96577 17.5762 8.99008Z" fill="black"/>
</svg>
