<svg width="24" height="24" viewBox="0 0 24 24" fill="none" xmlns="http://www.w3.org/2000/svg">
<path d="M12 15.25C11.7033 15.25 11.4133 15.338 11.1666 15.5028C10.92 15.6676 10.7277 15.9019 10.6142 16.176C10.5007 16.4501 10.4709 16.7517 10.5288 17.0426C10.5867 17.3336 10.7296 17.6009 10.9393 17.8107C11.1491 18.0204 11.4164 18.1633 11.7074 18.2212C11.9983 18.2791 12.2999 18.2493 12.574 18.1358C12.8481 18.0223 13.0824 17.83 13.2472 17.5834C13.412 17.3367 13.5 17.0467 13.5 16.75C13.5 16.3522 13.342 15.9706 13.0607 15.6893C12.7794 15.408 12.3978 15.25 12 15.25ZM12 2C10.0222 2 8.08879 2.58649 6.4443 3.6853C4.79981 4.78412 3.51809 6.3459 2.76121 8.17317C2.00433 10.0004 1.8063 12.0111 2.19215 13.9509C2.578 15.8907 3.53041 17.6725 4.92894 19.0711C6.32746 20.4696 8.10929 21.422 10.0491 21.8079C11.9889 22.1937 13.9996 21.9957 15.8268 21.2388C17.6541 20.4819 19.2159 19.2002 20.3147 17.5557C21.4135 15.9112 22 13.9778 22 12C22 10.6868 21.7413 9.38642 21.2388 8.17317C20.7363 6.95991 19.9997 5.85752 19.0711 4.92893C18.1425 4.00035 17.0401 3.26375 15.8268 2.7612C14.6136 2.25866 13.3132 2 12 2ZM12 5.75C12.2967 5.75 12.5867 5.83797 12.8334 6.0028C13.08 6.16762 13.2723 6.40189 13.3858 6.67597C13.4994 6.95006 13.5291 7.25166 13.4712 7.54264C13.4133 7.83361 13.2704 8.10088 13.0607 8.31066C12.8509 8.52044 12.5836 8.6633 12.2926 8.72118C12.0017 8.77906 11.7001 8.74935 11.426 8.63582C11.1519 8.52229 10.9176 8.33003 10.7528 8.08335C10.588 7.83668 10.5 7.54667 10.5 7.25C10.5 6.85218 10.658 6.47064 10.9393 6.18934C11.2206 5.90804 11.6022 5.75 12 5.75ZM12 21.5C10.7402 21.5 9.53204 20.9996 8.64125 20.1088C7.75045 19.218 7.25 18.0098 7.25 16.75C7.25 14.1266 9.3611 12.3079 12 12C14.8413 11.6685 16.78 9.8452 16.75 7.1884C16.7067 5.93028 16.1758 4.7383 15.2697 3.86441C14.3636 2.99051 13.1532 2.50317 11.8943 2.5054C11.9302 2.5054 11.9643 2.5 12.0005 2.5C14.5201 2.5 16.9364 3.50089 18.718 5.28249C20.4996 7.06408 21.5005 9.48044 21.5005 12C21.5005 14.5196 20.4996 16.9359 18.718 18.7175C16.9364 20.4991 14.5201 21.5 12.0005 21.5H12Z" fill="black"/>
</svg>
