<svg width="24" height="24" viewBox="0 0 24 24" fill="none" xmlns="http://www.w3.org/2000/svg">
<path d="M16.856 2.5231L15.7952 1.4624L14.7344 2.5231L15.7952 3.5837L16.856 2.5231ZM20.146 5.5752L19.0859 4.5146C16.9531 6.647 14.5928 6.3569 11.8691 3.6346L10.8091 4.6946C12.6191 6.5046 14.436 7.4146 16.1591 7.4146C16.9134 7.39244 17.6554 7.21809 18.3406 6.902C19.0258 6.58591 19.6401 6.13461 20.1465 5.5752H20.146ZM17.576 9.2402C16.1345 9.30641 14.766 9.89335 13.7244 10.8921C12.5657 11.7899 11.4363 12.7194 9.3157 12.4715C9.82553 12.1802 10.2592 11.7724 10.5812 11.2814C10.9033 10.7904 11.1046 10.2302 11.1687 9.6465C11.2037 9.19407 11.1449 8.7393 10.996 8.31064C10.8471 7.88199 10.6114 7.48867 10.3035 7.1553C9.9846 6.82341 9.60063 6.5609 9.17562 6.3842C8.75061 6.20751 8.29371 6.12042 7.8335 6.1284C6.27763 6.22276 4.81794 6.91301 3.7578 8.0557L4.8184 9.1157C5.59975 8.25695 6.67706 7.72562 7.834 7.6284C8.08947 7.62149 8.34364 7.66721 8.58068 7.76272C8.81773 7.85823 9.03259 8.0015 9.2119 8.1836C9.37993 8.3679 9.50756 8.58529 9.58661 8.82183C9.66565 9.05836 9.69437 9.30881 9.6709 9.5571C9.5654 11.3471 6.3584 12.1528 6.3262 12.1606L6.6221 13.6306C7.12597 13.528 7.64648 13.5401 8.14503 13.666C8.64359 13.792 9.10741 14.0285 9.5021 14.3581C9.88643 14.6819 10.1978 15.0835 10.4156 15.5364C10.6334 15.9893 10.7527 16.4832 10.7657 16.9856C10.7231 17.8508 10.3552 18.6679 9.73568 19.2732C9.11613 19.8786 8.29071 20.2275 7.4248 20.25C5.73 20.25 3.75 18.9912 3.75 15.4429H2.25C2.25 19.8 4.8486 21.75 7.4248 21.75C8.68877 21.7282 9.89601 21.2215 10.797 20.3347C11.6979 19.4479 12.2237 18.2489 12.2656 16.9854C12.2403 15.746 11.7609 14.5589 10.9185 13.6494C12.2948 13.531 13.5985 12.9809 14.6436 12.0776C15.4299 11.2957 16.4702 10.8211 17.5762 10.74C17.9998 10.7116 18.4245 10.7756 18.8209 10.9276C19.2173 11.0797 19.5759 11.3161 19.8719 11.6205C20.1678 11.9249 20.3941 12.29 20.5349 12.6905C20.6757 13.091 20.7278 13.5174 20.6875 13.94C20.6875 15.8145 19.7812 17.7124 18.0498 17.7124C17.7396 17.7398 17.4271 17.7009 17.1332 17.5981C16.8392 17.4954 16.5705 17.3313 16.3448 17.1166C16.1192 16.902 15.9419 16.6417 15.8247 16.3532C15.7075 16.0647 15.653 15.7546 15.665 15.4434H14.165C14.1509 15.9521 14.2427 16.4582 14.4344 16.9295C14.6262 17.4009 14.9139 17.8273 15.2791 18.1817C15.6443 18.536 16.0792 18.8106 16.5562 18.988C17.0331 19.1655 17.5418 19.2419 18.0498 19.2124C20.4473 19.2124 22.1875 16.9951 22.1875 13.94C22.2294 13.3195 22.1395 12.6972 21.9238 12.114C21.7081 11.5307 21.3715 10.9997 20.9359 10.5558C20.5004 10.1119 19.9759 9.76519 19.3969 9.53841C18.8178 9.31164 18.1973 9.20994 17.5762 9.24L17.576 9.2402Z" fill="black"/>
</svg>
