<svg width="24" height="24" viewBox="0 0 24 24" fill="none" xmlns="http://www.w3.org/2000/svg">
<path d="M12 2C10.0222 2 8.08879 2.58649 6.4443 3.6853C4.79981 4.78412 3.51809 6.3459 2.76121 8.17317C2.00433 10.0004 1.8063 12.0111 2.19215 13.9509C2.578 15.8907 3.53041 17.6725 4.92894 19.0711C6.32746 20.4696 8.10929 21.422 10.0491 21.8079C11.9889 22.1937 13.9996 21.9957 15.8268 21.2388C17.6541 20.4819 19.2159 19.2002 20.3147 17.5557C21.4135 15.9112 22 13.9778 22 12C22 10.6868 21.7413 9.38642 21.2388 8.17317C20.7363 6.95991 19.9997 5.85752 19.0711 4.92893C18.1425 4.00035 17.0401 3.26375 15.8268 2.7612C14.6136 2.25866 13.3132 2 12 2ZM20.6 12C20.5968 12.4652 20.5558 12.9294 20.4774 13.3879L16.5374 10.5244L18.0427 5.89C18.853 6.68787 19.4964 7.639 19.9354 8.68798C20.3745 9.73697 20.6004 10.8628 20.6 12ZM10.668 15.8584H13.332L12 19.9565L10.668 15.8584ZM10.2139 14.4584L9.1094 11.0591L12 8.959L14.8906 11.059L13.7861 14.458L10.2139 14.4584ZM8.6539 9.6596L7.3223 5.5605L10.8086 8.0938L8.6539 9.6596ZM8.7408 14.4584H4.4308L7.918 11.9243L8.7408 14.4584ZM13.19 8.0938L16.6773 5.5605L15.3453 9.6592L13.19 8.0938ZM16.0816 11.9243L19.5689 14.458H15.2589L16.0816 11.9243ZM15.9414 4.365L12 7.2285L8.0586 4.365C9.27567 3.73103 10.6277 3.4 12 3.4C13.3723 3.4 14.7243 3.73103 15.9414 4.365ZM5.957 5.89L7.4629 10.5248L3.5229 13.3883C3.2898 12.0348 3.38959 10.6448 3.81366 9.33846C4.23773 8.0321 4.97335 6.84856 5.957 5.89ZM4.325 15.8584H9.1963L10.7017 20.4911C9.34674 20.2824 8.0612 19.7531 6.95206 18.9473C5.84293 18.1415 4.94226 17.0825 4.325 15.8584ZM13.2986 20.4911L14.8037 15.8584H19.675C19.0577 17.0825 18.1571 18.1414 17.048 18.9472C15.9389 19.753 14.6535 20.2823 13.2986 20.4911Z" fill="black"/>
</svg>
