<svg width="24" height="24" viewBox="0 0 24 24" fill="none" xmlns="http://www.w3.org/2000/svg">
<path d="M18.3389 11.9792L21.5327 6.4473H15.145L12 1L8.85498 6.4473H2.46729L5.66109 11.9792L2.46729 17.5112H8.85498L12 22.9586L15.145 17.5112H21.5327L18.3389 11.9792ZM20.6667 6.9473L18.05 11.4793L15.4333 6.9473H20.6667ZM17.7615 11.9792L14.8564 17.0112H9.14359L6.23849 11.9792L9.14359 6.9473H14.8564L17.7615 11.9792ZM12 2L14.5676 6.4473H9.43238L12 2ZM3.33329 6.9473H8.56638L5.94999 11.4793L3.33329 6.9473ZM3.33329 17.0112L5.94999 12.4792L8.56669 17.0112H3.33329ZM12 21.9586L9.43238 17.5112H14.5676L12 21.9586ZM18.05 12.4792L20.6664 17.0112H15.4336L18.05 12.4792Z" fill="black"/>
</svg>
