<svg width="24" height="24" viewBox="0 0 24 24" fill="none" xmlns="http://www.w3.org/2000/svg">
<path d="M20.8638 11.5C20.754 9.49261 19.9633 7.58258 18.6221 6.085L20.1321 4.575L19.4251 3.868L17.9151 5.378C16.4175 4.03671 14.5074 3.24602 12.5 3.1364V1H11.5V3.1364C9.49261 3.24601 7.58257 4.03666 6.085 5.3779L4.575 3.8679L3.868 4.5749L5.378 6.0849C4.03671 7.5825 3.24596 9.49256 3.1362 11.5H1V12.5H3.1362C3.24596 14.5074 4.03667 16.4174 5.3779 17.915L3.8679 19.425L4.5749 20.132L6.0849 18.622C7.58248 19.9633 9.49257 20.754 11.5 20.8636V23H12.5V20.8636C14.5074 20.754 16.4174 19.9633 17.915 18.6221L19.425 20.1321L20.132 19.4251L18.622 17.9151C19.9633 16.4175 20.754 14.5074 20.8638 12.5H23V11.5H20.8638ZM12.5 4.1364C14.2418 4.24539 15.8975 4.93199 17.2053 6.0876L13.01 10.2829C12.8507 10.1887 12.6791 10.1173 12.5 10.0707V4.1364ZM11.5 4.1364V10.0707C11.3209 10.1173 11.1493 10.1887 10.99 10.2829L6.7947 6.0876C8.10248 4.93199 9.75821 4.24539 11.5 4.1364ZM6.0876 6.7947L10.283 10.99C10.1887 11.1492 10.1173 11.3209 10.0708 11.5H4.1365C4.24533 9.75819 4.93191 8.10242 6.0876 6.7947ZM4.1365 12.5H10.0708C10.1173 12.6791 10.1887 12.8508 10.283 13.01L6.0876 17.2053C4.93191 15.8976 4.24533 14.2418 4.1365 12.5ZM11.5 19.8636C9.75821 19.7546 8.10248 19.068 6.7947 17.9124L10.99 13.7171C11.1493 13.8113 11.3209 13.8827 11.5 13.9293V19.8636ZM12 13.2C11.7627 13.2 11.5307 13.1296 11.3333 12.9978C11.136 12.8659 10.9822 12.6785 10.8913 12.4592C10.8005 12.2399 10.7768 11.9987 10.8231 11.7659C10.8694 11.5331 10.9836 11.3193 11.1515 11.1515C11.3193 10.9836 11.5331 10.8694 11.7659 10.8231C11.9987 10.7768 12.2399 10.8005 12.4592 10.8913C12.6785 10.9822 12.8659 11.136 12.9978 11.3333C13.1296 11.5307 13.2 11.7627 13.2 12C13.1997 12.3182 13.0731 12.6232 12.8481 12.8481C12.6232 13.0731 12.3182 13.1997 12 13.2ZM12.5 19.8636V13.9293C12.6791 13.8827 12.8507 13.8113 13.01 13.7171L17.2053 17.9124C15.8975 19.068 14.2418 19.7546 12.5 19.8636ZM17.9124 17.2053L13.717 13.01C13.8113 12.8508 13.8827 12.6791 13.9292 12.5H19.8635C19.7547 14.2418 19.0681 15.8976 17.9124 17.2053ZM13.9292 11.5C13.8827 11.3209 13.8113 11.1492 13.717 10.99L17.9124 6.7948C19.0681 8.10249 19.7547 9.75823 19.8635 11.5H13.9292Z" fill="black"/>
</svg>
