<svg width="24" height="24" viewBox="0 0 24 24" fill="none" xmlns="http://www.w3.org/2000/svg">
<path d="M18.3389 11.9792L21.5327 6.4473H15.145L12 1L8.85498 6.4473H2.46729L5.66109 11.9792L2.46729 17.5112H8.85498L12 22.9586L15.145 17.5112H21.5327L18.3389 11.9792ZM19.1079 7.8473L17.5305 10.5793L15.9531 7.8473H19.1079ZM16.7222 11.9792L14.3367 16.1113H9.66328L7.27779 11.9792L9.66328 7.8473H14.3367L16.7222 11.9792ZM12 3.8L13.5283 6.4473H10.4717L12 3.8ZM4.89209 7.8473H8.04689L6.46999 10.5792L4.89209 7.8473ZM4.89209 16.1113L6.46999 13.3793L8.04739 16.1113H4.89209ZM12 20.1585L10.4717 17.5112H13.5283L12 20.1585ZM17.5305 13.3793L19.1079 16.1113H15.9531L17.5305 13.3793Z" fill="black"/>
</svg>
