<svg width="24" height="24" viewBox="0 0 24 24" fill="none" xmlns="http://www.w3.org/2000/svg">
<path d="M12 2C10.0222 2 8.08879 2.58649 6.4443 3.6853C4.79981 4.78412 3.51809 6.3459 2.76121 8.17317C2.00433 10.0004 1.8063 12.0111 2.19215 13.9509C2.578 15.8907 3.53041 17.6725 4.92894 19.0711C6.32746 20.4696 8.10929 21.422 10.0491 21.8079C11.9889 22.1937 13.9996 21.9957 15.8268 21.2388C17.6541 20.4819 19.2159 19.2002 20.3147 17.5557C21.4135 15.9112 22 13.9778 22 12C22 10.6868 21.7413 9.38642 21.2388 8.17317C20.7363 6.95991 19.9997 5.85752 19.0711 4.92893C18.1425 4.00035 17.0401 3.26375 15.8268 2.7612C14.6136 2.25866 13.3132 2 12 2ZM21.5 12C21.4988 12.9043 21.3678 13.8037 21.1111 14.6708L15.7539 10.7783L17.79 4.5137C17.793 4.5037 17.7878 4.4949 17.79 4.4854C18.943 5.36984 19.8772 6.5075 20.5205 7.81048C21.1638 9.11346 21.4989 10.5469 21.5 12ZM10.2051 15.1909H13.7951L12 20.7129L10.2051 15.1909ZM10.043 14.6909L8.834 10.9692L12 8.6689L15.166 10.9689L13.957 14.6906L10.043 14.6909ZM9.5176 14.6909H3.7119L8.4082 11.2783L9.5176 14.6909ZM6.877 4.9468L11.5742 8.36L8.6709 10.4692L6.877 4.9468ZM12.4258 8.36L17.123 4.9468L15.3291 10.4692L12.4258 8.36ZM15.5918 11.2784L20.2881 14.691H14.4824L15.5918 11.2784ZM17.3555 4.16L12 8.0513L6.6738 4.1813C6.6624 4.1725 6.647 4.1747 6.6345 4.1678C8.21124 3.08283 10.0798 2.50129 11.9938 2.4999C13.9078 2.49851 15.7772 3.07732 17.3555 4.16ZM6.2031 4.49L8.2461 10.7777L2.917 14.65C2.905 14.6587 2.9026 14.6739 2.8923 14.684C2.34653 12.8496 2.37087 10.8926 2.9621 9.0723C3.55333 7.252 4.68356 5.65423 6.2031 4.4906V4.49ZM3.0631 15.19H9.68L11.7161 21.4542L11.7317 21.4855C9.82142 21.4295 7.9724 20.7988 6.42598 19.6759C4.87956 18.553 3.70758 16.99 3.063 15.1909L3.0631 15.19ZM12.2748 21.4852L14.32 15.1909H20.9059C20.9186 15.1909 20.9282 15.1809 20.9406 15.1797C20.2982 16.9806 19.1275 18.5459 17.5814 19.671C16.0354 20.7961 14.1859 21.4287 12.2747 21.4861L12.2748 21.4852Z" fill="black"/>
</svg>
