<svg width="24" height="24" viewBox="0 0 24 24" fill="none" xmlns="http://www.w3.org/2000/svg">
<path d="M16.22 2.52293L15.7957 2.09863L15.3713 2.52293L15.7957 2.94713L16.22 2.52293ZM19.793 5.22153L19.44 4.86803C17.103 7.20393 14.438 6.90903 11.5161 3.98803L11.1626 4.34153C12.8814 6.05983 14.561 6.92153 16.148 6.92153C16.8388 6.89867 17.5179 6.73627 18.1443 6.44412C18.7707 6.15196 19.3315 5.73609 19.793 5.22153ZM17.5762 9.73983C16.2475 9.81446 14.9896 10.3633 14.0312 11.2867C13.3023 11.9713 12.4129 12.4614 11.4449 12.712C10.4769 12.9626 9.46139 12.9657 8.4919 12.7208V12.7325C8.33754 12.6864 8.1806 12.6493 8.0219 12.6214C9.1674 12.1048 10.5785 11.159 10.6703 9.61653C10.7009 9.23214 10.6518 8.84558 10.5261 8.48102C10.4004 8.11647 10.2009 7.78176 9.94 7.49783C9.66771 7.21586 9.3402 6.99307 8.97793 6.84338C8.61566 6.69369 8.22641 6.62031 7.8345 6.62783C6.41121 6.72317 5.07866 7.36067 4.1113 8.40903L4.4648 8.76253C5.33897 7.80886 6.54388 7.22439 7.834 7.12823C8.15762 7.12082 8.4793 7.18026 8.7789 7.30284C9.0785 7.42542 9.34959 7.6085 9.5752 7.84063C9.78933 8.07497 9.9527 8.35105 10.0551 8.65153C10.1574 8.95201 10.1965 9.27041 10.17 9.58673C10.041 11.7798 6.4766 12.6385 6.44 12.6468L6.5387 13.1368C7.11412 13.0209 7.70827 13.0361 8.27701 13.1813C8.84574 13.3265 9.37443 13.5981 9.8238 13.9757C10.2631 14.347 10.6187 14.8071 10.8672 15.3258C11.1156 15.8446 11.2513 16.4101 11.2652 16.985C11.218 17.9813 10.796 18.9229 10.0838 19.621C9.37157 20.3192 8.42178 20.7224 7.4248 20.7498C5.499 20.7498 3.25 19.3598 3.25 15.4427H2.75C2.75 19.4539 5.0977 21.2498 7.4248 21.2498C8.55717 21.2312 9.63909 20.7782 10.447 19.9845C11.2548 19.1908 11.7269 18.1171 11.7656 16.9852C11.753 16.2486 11.5607 15.5262 11.2055 14.8808C10.8504 14.2354 10.343 13.6864 9.7275 13.2815C10.5641 13.34 11.4038 13.2284 12.196 12.9534C12.9882 12.6784 13.7165 12.2458 14.3369 11.6815C15.2093 10.8287 16.3587 10.3171 17.5762 10.2398C18.0654 10.2117 18.555 10.2889 19.0119 10.4662C19.4688 10.6434 19.8823 10.9166 20.2246 11.2673C20.5669 11.618 20.8299 12.038 20.9961 12.4991C21.1622 12.9601 21.2275 13.4514 21.1875 13.9398C21.1875 16.4153 19.8682 18.2122 18.0498 18.2122C17.6736 18.2404 17.2957 18.189 16.9407 18.0614C16.5857 17.9337 16.2616 17.7328 15.9894 17.4715C15.7173 17.2103 15.5032 16.8947 15.3612 16.5452C15.2191 16.1957 15.1523 15.8203 15.165 15.4432H14.665C14.6539 15.8855 14.7348 16.3252 14.9025 16.7345C15.0702 17.1439 15.3211 17.5139 15.6393 17.8212C15.9575 18.1286 16.3361 18.3664 16.751 18.5198C17.166 18.6732 17.6082 18.7387 18.0498 18.7122C20.1572 18.7122 21.6875 16.7054 21.6875 13.9398C21.7256 13.386 21.646 12.8305 21.4541 12.3096C21.2621 11.7887 20.9622 11.3144 20.5739 10.9177C20.1856 10.521 19.7177 10.211 19.2011 10.008C18.6844 9.80498 18.1307 9.7136 17.5762 9.73983Z" fill="black"/>
</svg>
