<svg width="24" height="24" viewBox="0 0 24 24" fill="none" xmlns="http://www.w3.org/2000/svg">
<path d="M12 2C10.0222 2 8.08879 2.58649 6.4443 3.6853C4.79981 4.78412 3.51809 6.3459 2.76121 8.17317C2.00433 10.0004 1.8063 12.0111 2.19215 13.9509C2.578 15.8907 3.53041 17.6725 4.92894 19.0711C6.32746 20.4696 8.10929 21.422 10.0491 21.8079C11.9889 22.1937 13.9996 21.9957 15.8268 21.2388C17.6541 20.4819 19.2159 19.2002 20.3147 17.5557C21.4135 15.9112 22 13.9778 22 12C22 10.6868 21.7413 9.38642 21.2388 8.17317C20.7363 6.95991 19.9997 5.85752 19.0711 4.92893C18.1425 4.00035 17.0401 3.26375 15.8268 2.7612C14.6136 2.25866 13.3132 2 12 2ZM20.2 12C20.2 12.2081 20.1841 12.4123 20.1687 12.6165L17.0576 10.356L18.2456 6.7C19.5075 8.17754 20.2005 10.057 20.2 12ZM10.7666 16.3H13.2324L12 20.0942L10.7666 16.3ZM10.1816 14.5031L9.0566 11.0431L11.999 8.9031L14.9424 11.0398L13.8174 14.5013L10.1816 14.5031ZM7.2354 5.4448L10.47 7.7935L8.4717 9.2451L7.2354 5.4448ZM8.291 14.5039L4.2949 14.5049L7.5273 12.1549L8.291 14.5039ZM13.5283 7.792L16.7617 5.442L15.5264 9.2437L13.5283 7.792ZM16.4736 12.152L19.707 14.5002L15.71 14.5012L16.4736 12.152ZM15.1147 4.418L12 6.6816L8.885 4.4184C10.8798 3.59385 13.1202 3.59385 15.115 4.4184L15.1147 4.418ZM5.7547 6.6988L6.9424 10.356L3.8313 12.6167C3.8159 12.4124 3.8 12.2081 3.8 12C3.79942 10.0566 4.49266 8.1768 5.7549 6.6991L5.7547 6.6988ZM5.0312 16.3H8.875L10.0632 19.9591C7.97109 19.4461 6.16407 18.1321 5.0312 16.3ZM13.936 19.96L15.125 16.3H18.9688C17.836 18.1327 16.0286 19.4471 13.936 19.96Z" fill="black"/>
</svg>
