<svg width="24" height="24" viewBox="0 0 24 24" fill="none" xmlns="http://www.w3.org/2000/svg">
<path d="M7.99998 12C7.99874 10.7357 8.29748 9.48911 8.87164 8.36268C9.44581 7.23626 10.279 6.26212 11.3028 5.52029C12.3267 4.77847 13.5119 4.29012 14.7611 4.09537C16.0103 3.90062 17.2879 4.00503 18.489 4.40001C17.0362 3.15768 15.2579 2.35774 13.3645 2.09496C11.4712 1.83217 9.54215 2.11754 7.80599 2.91727C6.06982 3.71699 4.59923 4.99757 3.56842 6.60731C2.5376 8.21705 1.98975 10.0885 1.98975 12C1.98975 13.9115 2.5376 15.783 3.56842 17.3927C4.59923 19.0024 6.06982 20.283 7.80599 21.0827C9.54215 21.8825 11.4712 22.1678 13.3645 21.9051C15.2579 21.6423 17.0362 20.8423 18.489 19.6C17.2879 19.995 16.0103 20.0994 14.7611 19.9046C13.5119 19.7099 12.3267 19.2215 11.3028 18.4797C10.279 17.7379 9.44581 16.7638 8.87164 15.6373C8.29748 14.5109 7.99874 13.2643 7.99998 12ZM12 21C10.7328 21.001 9.47972 20.7344 8.3227 20.2177C7.16568 19.701 6.13082 18.9458 5.28584 18.0015C4.44086 17.0572 3.80481 15.9451 3.41931 14.738C3.03382 13.5309 2.90757 12.256 3.04883 10.9967C3.19009 9.73745 3.59567 8.52221 4.23903 7.43052C4.8824 6.33884 5.74904 5.39531 6.78224 4.6617C7.81545 3.92808 8.99192 3.42092 10.2347 3.17339C11.4774 2.92586 12.7584 2.94355 13.9939 3.22531C12.0068 3.6799 10.2329 4.79549 8.96232 6.38951C7.6918 7.98353 6.99992 9.96159 6.99992 12C6.99992 14.0384 7.6918 16.0165 8.96232 17.6105C10.2329 19.2045 12.0068 20.3201 13.9939 20.7747C13.3398 20.9243 12.671 20.9999 12 21ZM22.7344 10.6271H19.1177L18 7.18751L16.8823 10.6275H13.2656L16.1917 12.7534L15.074 16.1934L18 14.0668L20.926 16.1927L19.8083 12.7527L22.7344 10.6271ZM18.47 13.42L18 13.078L17.53 13.4196L16.5959 14.0983L16.9524 13L17.1324 12.4472L16.6624 12.1056L15.7283 11.4269H17.4641L17.6441 10.8741L18 9.77631L18.3569 10.8743L18.5369 11.4271H20.2727L19.3386 12.1058L18.8686 12.4474L19.0486 13.0002L19.4053 14.0983L18.47 13.42Z" fill="black"/>
</svg>
