<svg width="24" height="24" viewBox="0 0 24 24" fill="none" xmlns="http://www.w3.org/2000/svg">
<path d="M12 15C11.7033 15 11.4133 15.088 11.1666 15.2528C10.92 15.4176 10.7277 15.6519 10.6142 15.926C10.5007 16.2001 10.4709 16.5017 10.5288 16.7926C10.5867 17.0836 10.7296 17.3509 10.9393 17.5607C11.1491 17.7704 11.4164 17.9133 11.7074 17.9712C11.9983 18.0291 12.2999 17.9993 12.574 17.8858C12.8481 17.7723 13.0824 17.58 13.2472 17.3334C13.412 17.0867 13.5 16.7967 13.5 16.5C13.5 16.1022 13.342 15.7206 13.0607 15.4393C12.7794 15.158 12.3978 15 12 15ZM12 2C10.0222 2 8.08879 2.58649 6.4443 3.6853C4.79981 4.78412 3.51809 6.3459 2.76121 8.17317C2.00433 10.0004 1.8063 12.0111 2.19215 13.9509C2.578 15.8907 3.53041 17.6725 4.92894 19.0711C6.32746 20.4696 8.10929 21.422 10.0491 21.8079C11.9889 22.1937 13.9996 21.9957 15.8268 21.2388C17.6541 20.4819 19.2159 19.2002 20.3147 17.5557C21.4135 15.9112 22 13.9778 22 12C22 10.6868 21.7413 9.38642 21.2388 8.17317C20.7363 6.95991 19.9997 5.85752 19.0711 4.92893C18.1425 4.00035 17.0401 3.26375 15.8268 2.7612C14.6136 2.25866 13.3132 2 12 2ZM12 6C12.2967 6 12.5867 6.08797 12.8334 6.2528C13.08 6.41762 13.2723 6.65189 13.3858 6.92597C13.4994 7.20006 13.5291 7.50166 13.4712 7.79264C13.4133 8.08361 13.2704 8.35088 13.0607 8.56066C12.8509 8.77044 12.5836 8.9133 12.2926 8.97118C12.0017 9.02906 11.7001 8.99935 11.426 8.88582C11.1519 8.77229 10.9176 8.58003 10.7528 8.33335C10.588 8.08668 10.5 7.79667 10.5 7.5C10.5 7.10218 10.658 6.72064 10.9393 6.43934C11.2206 6.15804 11.6022 6 12 6ZM12 21C10.8065 21 9.66194 20.5259 8.81802 19.682C7.97411 18.8381 7.5 17.6935 7.5 16.5C7.5 14.0147 9.5 12.2916 12 12C14.6919 11.6859 16.5286 9.9586 16.5 7.4417C16.4588 6.24987 15.9558 5.12074 15.0975 4.29287C14.2391 3.465 13.0925 3.00322 11.9 3.0051C11.9333 3.0047 11.9661 3 12 3C14.387 3 16.6761 3.94821 18.364 5.63604C20.0518 7.32387 21 9.61305 21 12C21 14.3869 20.0518 16.6761 18.364 18.364C16.6761 20.0518 14.387 21 12 21Z" fill="black"/>
</svg>
