<svg width="24" height="24" viewBox="0 0 24 24" fill="none" xmlns="http://www.w3.org/2000/svg">
<path d="M18.3389 11.9792L21.5327 6.4473H15.145L12 1L8.85498 6.4473H2.46729L5.66109 11.9792L2.46729 17.5112H8.85498L12 22.9586L15.145 17.5112H21.5327L18.3389 11.9792ZM19.8008 7.4473L17.7615 10.9794L15.7224 7.4473H19.8008ZM17.1841 11.9792L14.5676 16.5112H9.43238L6.81589 11.9792L9.43238 7.4473H14.5676L17.1841 11.9792ZM12 3L13.99 6.4473H10.01L12 3ZM4.19919 7.4473H8.27759L6.23849 10.9792L4.19919 7.4473ZM4.19919 16.5112L6.23849 12.9793L8.27759 16.5112H4.19919ZM12 20.9585L10.01 17.5112H13.99L12 20.9585ZM17.7615 12.9792L19.8008 16.5112H15.7224L17.7615 12.9792Z" fill="black"/>
</svg>
