<svg width="24" height="24" viewBox="0 0 24 24" fill="none" xmlns="http://www.w3.org/2000/svg">
<path d="M12 2C10.0222 2 8.08879 2.58649 6.4443 3.6853C4.79981 4.78412 3.51809 6.3459 2.76121 8.17317C2.00433 10.0004 1.8063 12.0111 2.19215 13.9509C2.578 15.8907 3.53041 17.6725 4.92894 19.0711C6.32746 20.4696 8.10929 21.422 10.0491 21.8079C11.9889 22.1937 13.9996 21.9957 15.8268 21.2388C17.6541 20.4819 19.2159 19.2002 20.3147 17.5557C21.4135 15.9112 22 13.9778 22 12C22 10.6868 21.7413 9.38642 21.2388 8.17317C20.7363 6.95991 19.9997 5.85752 19.0711 4.92893C18.1425 4.00035 17.0401 3.26375 15.8268 2.7612C14.6136 2.25866 13.3132 2 12 2ZM3 12C3.00265 9.61386 3.95171 7.32622 5.63897 5.63896C7.32622 3.95171 9.61387 3.00265 12 3C13.1268 3.00124 14.2071 3.44941 15.0038 4.24617C15.8006 5.04293 16.2488 6.12321 16.25 7.25C16.25 9.458 14.4785 11.207 11.9424 11.5034C8.78811 11.8716 6.75 13.9312 6.75 16.75C6.75507 17.9387 7.1675 19.0896 7.9185 20.011C6.4402 19.2584 5.19856 18.1121 4.33063 16.6984C3.46269 15.2848 3.00221 13.6588 3 12ZM12 21C10.8732 20.9988 9.79293 20.5506 8.99617 19.7538C8.19941 18.9571 7.75125 17.8768 7.75 16.75C7.75 14.4365 9.4 12.8066 12.0576 12.4966C15.1152 12.14 17.25 9.9824 17.25 7.25C17.2449 6.06135 16.8325 4.91036 16.0815 3.989C17.8835 4.90493 19.3245 6.40124 20.1718 8.23653C21.0191 10.0718 21.2235 12.139 20.7518 14.1047C20.2802 16.0704 19.1601 17.8198 17.5723 19.0708C15.9844 20.3218 14.0215 21.0014 12 21ZM12 15.1C11.6737 15.1 11.3547 15.1968 11.0833 15.3781C10.812 15.5594 10.6005 15.8171 10.4756 16.1186C10.3507 16.4201 10.318 16.7518 10.3817 17.0719C10.4454 17.392 10.6025 17.686 10.8333 17.9167C11.064 18.1475 11.358 18.3046 11.6781 18.3683C11.9982 18.432 12.3299 18.3993 12.6314 18.2744C12.9329 18.1495 13.1906 17.938 13.3719 17.6667C13.5532 17.3953 13.65 17.0763 13.65 16.75C13.65 16.3124 13.4762 15.8927 13.1667 15.5833C12.8573 15.2738 12.4376 15.1 12 15.1ZM12 17.4C11.8714 17.4 11.7458 17.3619 11.6389 17.2905C11.532 17.219 11.4487 17.1175 11.3995 16.9987C11.3503 16.88 11.3374 16.7493 11.3625 16.6232C11.3876 16.4971 11.4495 16.3813 11.5404 16.2904C11.6313 16.1995 11.7471 16.1376 11.8732 16.1125C11.9993 16.0874 12.13 16.1003 12.2487 16.1495C12.3675 16.1987 12.469 16.282 12.5405 16.3889C12.6119 16.4958 12.65 16.6214 12.65 16.75C12.6498 16.9223 12.5813 17.0876 12.4594 17.2094C12.3376 17.3313 12.1723 17.3998 12 17.4ZM12 8.9C12.3263 8.9 12.6454 8.80323 12.9167 8.62192C13.188 8.44062 13.3995 8.18293 13.5244 7.88143C13.6493 7.57993 13.682 7.24817 13.6183 6.9281C13.5546 6.60803 13.3975 6.31403 13.1667 6.08327C12.936 5.85252 12.642 5.69537 12.3219 5.6317C12.0018 5.56804 11.6701 5.60071 11.3686 5.7256C11.0671 5.85048 10.8094 6.06197 10.6281 6.33331C10.4468 6.60465 10.35 6.92366 10.35 7.25C10.35 7.46668 10.3927 7.68124 10.4756 7.88143C10.5585 8.08161 10.6801 8.26351 10.8333 8.41673C10.9865 8.56994 11.1684 8.69148 11.3686 8.7744C11.5688 8.85732 11.7833 8.9 12 8.9ZM12 6.6C12.1286 6.6 12.2542 6.63812 12.3611 6.70954C12.468 6.78097 12.5513 6.88248 12.6005 7.00126C12.6497 7.12003 12.6626 7.25072 12.6375 7.37681C12.6124 7.5029 12.5505 7.61872 12.4596 7.70962C12.3687 7.80052 12.2529 7.86243 12.1268 7.88751C12.0007 7.91259 11.87 7.89972 11.7513 7.85052C11.6325 7.80132 11.531 7.71801 11.4595 7.61112C11.3881 7.50423 11.35 7.37856 11.35 7.25C11.3502 7.07767 11.4187 6.91244 11.5406 6.79059C11.6624 6.66873 11.8277 6.60019 12 6.6Z" fill="black"/>
</svg>
