<svg width="24" height="24" viewBox="0 0 24 24" fill="none" xmlns="http://www.w3.org/2000/svg">
<path d="M7.49998 12C7.49771 10.6539 7.8357 9.32905 8.48255 8.14857C9.12941 6.9681 10.0641 5.97027 11.1999 5.24779C12.3357 4.52531 13.6356 4.10162 14.979 4.01609C16.3224 3.93056 17.6656 4.18596 18.8838 4.75856C17.4666 3.40889 15.6845 2.50472 13.7584 2.1581C11.8323 1.81148 9.84687 2.03765 8.04806 2.80858C6.24926 3.5795 4.71621 4.8613 3.63888 6.49512C2.56155 8.12894 1.9873 10.043 1.9873 12C1.9873 13.957 2.56155 15.8711 3.63888 17.5049C4.71621 19.1387 6.24926 20.4205 8.04806 21.1914C9.84687 21.9624 11.8323 22.1885 13.7584 21.8419C15.6845 21.4953 17.4666 20.5911 18.8838 19.2415C17.6656 19.8141 16.3223 20.0695 14.979 19.984C13.6356 19.8985 12.3356 19.4748 11.1998 18.7523C10.064 18.0298 9.12931 17.0319 8.48247 15.8514C7.83562 14.6709 7.49766 13.3461 7.49998 12ZM22.0581 10.8232H18.9581L18 7.87496L17.042 10.8232H13.942L16.45 12.6454L15.4919 15.5938L18 13.7715L20.5081 15.5938L19.55 12.6454L22.0581 10.8232Z" fill="black"/>
</svg>
