<svg width="24" height="24" viewBox="0 0 24 24" fill="none" xmlns="http://www.w3.org/2000/svg">
<path d="M12 14.5C11.7033 14.5 11.4133 14.588 11.1666 14.7528C10.92 14.9176 10.7277 15.1519 10.6142 15.426C10.5007 15.7001 10.4709 16.0017 10.5288 16.2926C10.5867 16.5836 10.7296 16.8509 10.9393 17.0607C11.1491 17.2704 11.4164 17.4133 11.7074 17.4712C11.9983 17.5291 12.2999 17.4993 12.574 17.3858C12.8481 17.2723 13.0824 17.08 13.2472 16.8334C13.412 16.5867 13.5 16.2967 13.5 16C13.5 15.6022 13.342 15.2206 13.0607 14.9393C12.7794 14.658 12.3978 14.5 12 14.5ZM12 2C10.0222 2 8.08879 2.58649 6.4443 3.6853C4.79981 4.78412 3.51809 6.3459 2.76121 8.17317C2.00433 10.0004 1.8063 12.0111 2.19215 13.9509C2.578 15.8907 3.53041 17.6725 4.92894 19.0711C6.32746 20.4696 8.10929 21.422 10.0491 21.8079C11.9889 22.1937 13.9996 21.9957 15.8268 21.2388C17.6541 20.4819 19.2159 19.2002 20.3147 17.5557C21.4135 15.9112 22 13.9778 22 12C22 10.6868 21.7413 9.38642 21.2388 8.17317C20.7363 6.95991 19.9997 5.85752 19.0711 4.92893C18.1425 4.00035 17.0401 3.26375 15.8268 2.7612C14.6136 2.25866 13.3132 2 12 2ZM12 6.5C12.2967 6.5 12.5867 6.58797 12.8334 6.7528C13.08 6.91762 13.2723 7.15189 13.3858 7.42597C13.4994 7.70006 13.5291 8.00166 13.4712 8.29264C13.4133 8.58361 13.2704 8.85088 13.0607 9.06066C12.8509 9.27044 12.5836 9.4133 12.2926 9.47118C12.0017 9.52906 11.7001 9.49935 11.426 9.38582C11.1519 9.27229 10.9176 9.08003 10.7528 8.83335C10.588 8.58668 10.5 8.29667 10.5 8C10.5 7.60218 10.658 7.22064 10.9393 6.93934C11.2206 6.65804 11.6022 6.5 12 6.5ZM12 20C10.9391 20 9.92172 19.5786 9.17158 18.8284C8.42143 18.0783 8 17.0609 8 16C8.04121 14.9523 8.47587 13.9587 9.21727 13.2173C9.95867 12.4759 10.9523 12.0412 12 12C14.3928 11.7208 16.0254 10.1854 16 7.9482C15.9633 6.88874 15.5162 5.88503 14.7532 5.14913C13.9901 4.41322 12.9709 4.00278 11.9108 4.0045C11.9407 4.0042 11.97 4 12 4C14.1217 4 16.1566 4.84285 17.6569 6.34315C19.1572 7.84344 20 9.87827 20 12C20 14.1217 19.1572 16.1566 17.6569 17.6569C16.1566 19.1571 14.1217 20 12 20Z" fill="black"/>
</svg>
