<svg width="24" height="24" viewBox="0 0 24 24" fill="none" xmlns="http://www.w3.org/2000/svg">
<path d="M0 5V19H24V5H0ZM23 18H1V6H23V18ZM4.5862 13.3779C4.8917 13.3779 5.19034 13.2873 5.44436 13.1176C5.69838 12.9479 5.89637 12.7067 6.0133 12.4245C6.13022 12.1422 6.16082 11.8317 6.10123 11.532C6.04165 11.2324 5.89454 10.9572 5.67853 10.7411C5.46252 10.5251 5.1873 10.378 4.88767 10.3184C4.58805 10.2588 4.27747 10.2894 3.99523 10.4063C3.71299 10.5232 3.47175 10.7211 3.30202 10.9752C3.13229 11.2292 3.0417 11.5278 3.0417 11.8333C3.0417 12.2429 3.20442 12.6358 3.49407 12.9255C3.78371 13.2151 4.17656 13.3779 4.5862 13.3779ZM4.5862 11.1888C4.71367 11.1888 4.83828 11.2266 4.94426 11.2974C5.05025 11.3682 5.13286 11.4689 5.18164 11.5867C5.23042 11.7044 5.24318 11.834 5.21832 11.959C5.19345 12.0841 5.13207 12.1989 5.04193 12.289C4.9518 12.3792 4.83696 12.4405 4.71194 12.4654C4.58691 12.4903 4.45733 12.4775 4.33956 12.4287C4.22179 12.38 4.12114 12.2974 4.05032 12.1914C3.9795 12.0854 3.9417 11.9608 3.9417 11.8333C3.94191 11.6624 4.00988 11.4986 4.1307 11.3778C4.25152 11.257 4.41533 11.189 4.5862 11.1888ZM9.5287 13.3779C9.8342 13.3779 10.1328 13.2873 10.3869 13.1176C10.6409 12.9479 10.8389 12.7067 10.9558 12.4245C11.0727 12.1422 11.1033 11.8317 11.0437 11.532C10.9841 11.2324 10.837 10.9572 10.621 10.7411C10.405 10.5251 10.1298 10.378 9.83017 10.3184C9.53055 10.2588 9.21997 10.2894 8.93773 10.4063C8.65549 10.5232 8.41425 10.7211 8.24452 10.9752C8.07479 11.2292 7.9842 11.5278 7.9842 11.8333C7.9842 12.2429 8.14692 12.6358 8.43657 12.9255C8.72621 13.2151 9.11906 13.3779 9.5287 13.3779ZM9.5287 11.1888C9.65617 11.1888 9.78078 11.2266 9.88677 11.2974C9.99275 11.3682 10.0754 11.4689 10.1241 11.5867C10.1729 11.7044 10.1857 11.834 10.1608 11.959C10.1359 12.0841 10.0746 12.1989 9.98443 12.289C9.8943 12.3792 9.77946 12.4405 9.65444 12.4654C9.52942 12.4903 9.39983 12.4775 9.28206 12.4287C9.16429 12.38 9.06364 12.2974 8.99282 12.1914C8.922 12.0854 8.8842 11.9608 8.8842 11.8333C8.88439 11.6624 8.95235 11.4986 9.07317 11.3778C9.194 11.2569 9.35782 11.189 9.5287 11.1888ZM14.4713 13.3779C14.7768 13.3779 15.0754 13.2873 15.3295 13.1176C15.5835 12.9479 15.7815 12.7067 15.8984 12.4245C16.0153 12.1422 16.0459 11.8317 15.9863 11.532C15.9267 11.2324 15.7796 10.9572 15.5636 10.7411C15.3476 10.5251 15.0724 10.378 14.7728 10.3184C14.4731 10.2588 14.1626 10.2894 13.8803 10.4063C13.5981 10.5232 13.3568 10.7211 13.1871 10.9752C13.0174 11.2292 12.9268 11.5278 12.9268 11.8333C12.9268 12.2429 13.0895 12.6358 13.3792 12.9255C13.6688 13.2151 14.0617 13.3779 14.4713 13.3779ZM14.4713 11.1888C14.5988 11.1888 14.7234 11.2266 14.8293 11.2975C14.9353 11.3683 15.0179 11.469 15.0667 11.5867C15.1154 11.7045 15.1282 11.8341 15.1033 11.9591C15.0784 12.0841 15.017 12.1989 14.9269 12.2891C14.8368 12.3792 14.7219 12.4406 14.5969 12.4654C14.4719 12.4903 14.3423 12.4775 14.2245 12.4287C14.1068 12.3799 14.0061 12.2973 13.9353 12.1914C13.8645 12.0854 13.8267 11.9608 13.8267 11.8333C13.8269 11.6624 13.8949 11.4986 14.0157 11.3777C14.1366 11.2569 14.3004 11.189 14.4713 11.1888ZM19.4138 13.3779C19.7193 13.3779 20.0179 13.2873 20.272 13.1176C20.526 12.9479 20.724 12.7067 20.8409 12.4245C20.9578 12.1422 20.9884 11.8317 20.9288 11.532C20.8692 11.2324 20.7221 10.9572 20.5061 10.7411C20.2901 10.5251 20.0149 10.378 19.7153 10.3184C19.4156 10.2588 19.1051 10.2894 18.8228 10.4063C18.5406 10.5232 18.2993 10.7211 18.1296 10.9752C17.9599 11.2292 17.8693 11.5278 17.8693 11.8333C17.8693 12.2429 18.032 12.6358 18.3217 12.9255C18.6113 13.2151 19.0042 13.3779 19.4138 13.3779ZM19.4138 11.1888C19.5413 11.1888 19.6659 11.2266 19.7719 11.2974C19.8779 11.3682 19.9605 11.4689 20.0092 11.5867C20.058 11.7044 20.0708 11.834 20.0459 11.959C20.021 12.0841 19.9597 12.1989 19.8695 12.289C19.7794 12.3792 19.6646 12.4405 19.5395 12.4654C19.4145 12.4903 19.2849 12.4775 19.1672 12.4287C19.0494 12.38 18.9487 12.2974 18.8779 12.1914C18.8071 12.0854 18.7693 11.9608 18.7693 11.8333C18.7695 11.6624 18.8374 11.4986 18.9583 11.3778C19.0791 11.2569 19.2429 11.189 19.4138 11.1888Z" fill="black"/>
</svg>
