<svg width="24" height="24" viewBox="0 0 24 24" fill="none" xmlns="http://www.w3.org/2000/svg">
<path d="M16 5V2H4V22H20V8H19C18.2044 8 17.4413 7.68393 16.8787 7.12132C16.3161 6.55871 16 5.79565 16 5ZM14.7842 16H14.2842V13.888C14.1369 14.5612 13.7462 15.1562 13.1869 15.5587C12.6276 15.9613 11.9393 16.143 11.2543 16.0689C10.5692 15.9949 9.93561 15.6703 9.47529 15.1575C9.01496 14.6447 8.76034 13.98 8.76034 13.2909C8.76034 12.6018 9.01496 11.9371 9.47529 11.4243C9.93561 10.9115 10.5692 10.5869 11.2543 10.5129C11.9393 10.4388 12.6276 10.6205 13.1869 11.0231C13.7462 11.4256 14.1369 12.0206 14.2842 12.6938V8.8H9.1384V8.3H14.7842V16ZM11.5156 10.997C11.0637 11.0054 10.6244 11.1471 10.2527 11.4042C9.88107 11.6614 9.59365 12.0226 9.42652 12.4425C9.2594 12.8624 9.22002 13.3224 9.31333 13.7646C9.40664 14.2068 9.62848 14.6116 9.95102 14.9282C10.2736 15.2448 10.6824 15.4591 11.1263 15.5442C11.5702 15.6293 12.0293 15.5814 12.446 15.4065C12.8628 15.2316 13.2186 14.9375 13.4688 14.5611C13.719 14.1847 13.8525 13.7429 13.8525 13.2909C13.846 12.6771 13.5964 12.0908 13.1583 11.6608C12.7202 11.2308 12.1295 10.9921 11.5156 10.997ZM22.0783 3.2555L20.25 5.0839V1H19.75V5.0839L17.9217 3.2555L17.5678 3.6095L20 6.0416L22.4322 3.61L22.0783 3.2555Z" fill="black"/>
</svg>
