<svg width="24" height="24" viewBox="0 0 24 24" fill="none" xmlns="http://www.w3.org/2000/svg">
<path d="M15.031 4.35398L17.8636 9.25998L16.4521 8.88188L16.1934 9.84768L19.2539 10.6677L20.0739 7.60768L19.1079 7.34888L18.73 8.75998L15.8971 3.85398C15.5021 3.1699 14.9341 2.60184 14.25 2.20688C13.5659 1.81193 12.7899 1.604 12 1.604C11.2101 1.604 10.4341 1.81193 9.75 2.20688C9.06592 2.60184 8.49785 3.1699 8.10289 3.85398L6.31289 6.95398L7.17889 7.45398L8.96889 4.35398C9.27608 3.82193 9.71791 3.38011 10.25 3.07294C10.782 2.76576 11.3856 2.60405 11.9999 2.60405C12.6143 2.60405 13.2178 2.76576 13.7499 3.07294C14.282 3.38011 14.7238 3.82193 15.031 4.35398ZM2.38939 19.25C2.07867 18.7191 1.9149 18.1151 1.9149 17.5C1.9149 16.8849 2.07867 16.2808 2.38939 15.75L5.22199 10.8438L5.59999 12.2552L6.56589 11.9965L5.74589 8.93648L2.68589 9.75648L2.94469 10.7224L4.35629 10.3443L1.52339 15.25C1.12843 15.9341 0.920502 16.7101 0.920502 17.5C0.920501 18.2899 1.12843 19.0659 1.52338 19.75C1.91834 20.4341 2.48641 21.0021 3.17049 21.3971C3.85458 21.792 4.63057 22 5.42049 22H8.99999V21H5.41999C4.80497 21.0035 4.2001 20.8433 3.66749 20.5357C3.13489 20.2282 2.69375 19.7844 2.38939 19.25ZM22.4766 15.25L20.6866 12.15L19.8206 12.65L21.6106 15.75C21.9178 16.282 22.0795 16.8855 22.0795 17.4999C22.0795 18.1142 21.9178 18.7177 21.6107 19.2498C21.3036 19.7818 20.8618 20.2237 20.3298 20.5309C19.7978 20.8381 19.1943 20.9999 18.58 21H12.9143L13.9475 19.9667L13.2405 19.2596L11 21.5L13.24 23.74L13.9471 23.0329L12.9143 22H18.58C19.3699 21.9999 20.1458 21.7919 20.8298 21.3969C21.5138 21.0019 22.0818 20.4338 22.4767 19.7498C22.8716 19.0657 23.0795 18.2897 23.0795 17.4999C23.0794 16.71 22.8715 15.934 22.4766 15.25ZM14.042 14.0174C14.052 13.7571 14.0077 13.4976 13.9117 13.2554C13.8158 13.0133 13.6703 12.7938 13.4847 12.611C13.2992 12.4283 13.0775 12.2862 12.8339 12.194C12.5903 12.1018 12.3301 12.0614 12.07 12.0755C11.6016 12.0668 11.1451 12.2227 10.78 12.5162L10.9085 10.7607H13.7714V9.99998H10.2234L9.99679 13.3008H10.7368C10.8789 13.1205 11.0618 12.9765 11.2704 12.8807C11.479 12.7849 11.7074 12.74 11.9368 12.7496C12.1081 12.7433 12.2789 12.7724 12.4385 12.8349C12.5981 12.8975 12.7432 12.9922 12.8646 13.1132C12.9861 13.2341 13.0814 13.3788 13.1445 13.5382C13.2077 13.6976 13.2374 13.8682 13.2318 14.0396C13.2379 14.2158 13.2077 14.3913 13.1432 14.5554C13.0787 14.7194 12.9812 14.8685 12.8567 14.9934C12.7323 15.1182 12.5835 15.2162 12.4197 15.2813C12.2558 15.3463 12.0804 15.3771 11.9042 15.3716C11.627 15.3906 11.3505 15.3263 11.1103 15.1868C10.87 15.0474 10.677 14.8393 10.556 14.5892L9.82949 14.9065C10.0032 15.3019 10.2972 15.6325 10.6697 15.8512C11.0422 16.0699 11.4741 16.1655 11.9041 16.1244C12.1841 16.1314 12.4627 16.0819 12.7232 15.9789C12.9838 15.8759 13.2209 15.7214 13.4204 15.5248C13.6199 15.3281 13.7778 15.0933 13.8846 14.8343C13.9914 14.5753 14.0449 14.2975 14.042 14.0174Z" fill="black"/>
</svg>
