<svg width="24" height="24" viewBox="0 0 24 24" fill="none" xmlns="http://www.w3.org/2000/svg">
<path d="M12 6.85C11.8648 6.85 11.7327 6.89009 11.6203 6.9652C11.5079 7.04031 11.4203 7.14706 11.3685 7.27196C11.3168 7.39686 11.3033 7.53429 11.3296 7.66688C11.356 7.79947 11.4211 7.92126 11.5167 8.01684C11.6123 8.11243 11.7341 8.17752 11.8667 8.20388C11.9993 8.23024 12.1367 8.21669 12.2616 8.16494C12.3865 8.11319 12.4933 8.02557 12.5684 7.91316C12.6435 7.80075 12.6835 7.66859 12.6835 7.5334C12.6835 7.35214 12.6115 7.17832 12.4833 7.05016C12.3551 6.922 12.1813 6.85 12 6.85ZM12 2C10.0222 2 8.08879 2.58649 6.4443 3.6853C4.79981 4.78412 3.51809 6.3459 2.76121 8.17317C2.00433 10.0004 1.8063 12.0111 2.19215 13.9509C2.578 15.8907 3.53041 17.6725 4.92894 19.0711C6.32746 20.4696 8.10929 21.422 10.0491 21.8079C11.9889 22.1937 13.9996 21.9957 15.8268 21.2388C17.6541 20.4819 19.2159 19.2002 20.3147 17.5557C21.4135 15.9112 22 13.9778 22 12C22 10.6868 21.7413 9.38642 21.2388 8.17317C20.7363 6.95991 19.9997 5.85752 19.0711 4.92893C18.1425 4.00035 17.0401 3.26375 15.8268 2.7612C14.6136 2.25866 13.3132 2 12 2ZM12 21C10.22 21 8.47991 20.4722 6.99987 19.4832C5.51983 18.4943 4.36628 17.0887 3.68509 15.4442C3.0039 13.7996 2.82567 11.99 3.17294 10.2442C3.5202 8.49836 4.37737 6.89471 5.63604 5.63604C6.89472 4.37737 8.49836 3.5202 10.2442 3.17293C11.99 2.82567 13.7996 3.0039 15.4442 3.68508C17.0887 4.36627 18.4943 5.51983 19.4832 6.99987C20.4722 8.47991 21 10.22 21 12C20.9974 14.3861 20.0483 16.6738 18.361 18.361C16.6738 20.0483 14.3861 20.9974 12 21ZM11.5 17H12.5V10.5H11.5V17Z" fill="black"/>
</svg>
