<svg width="24" height="24" viewBox="0 0 24 24" fill="none" xmlns="http://www.w3.org/2000/svg">
<path d="M16.1416 2H7.8584L2 7.8579V16.1416L7.8584 22H16.1416L22 16.1416V7.8579L16.1416 2ZM21 15.7274L15.7274 21H8.2726L3 15.7274V8.2722L8.2726 3H15.7274L21 8.2722V15.7274ZM12.42 13.5L12.675 7H11.325L11.5803 13.5H12.42ZM12 15.5354C11.8649 15.5354 11.7328 15.5755 11.6204 15.6505C11.508 15.7256 11.4204 15.8323 11.3687 15.9572C11.317 16.082 11.3035 16.2194 11.3298 16.352C11.3562 16.4845 11.4212 16.6063 11.5168 16.7018C11.6124 16.7974 11.7341 16.8625 11.8666 16.8889C11.9992 16.9152 12.1366 16.9017 12.2614 16.85C12.3863 16.7983 12.493 16.7107 12.5681 16.5984C12.6432 16.486 12.6833 16.3539 12.6833 16.2188C12.6833 16.1291 12.6656 16.0402 12.6313 15.9573C12.597 15.8744 12.5467 15.799 12.4832 15.7356C12.4197 15.6721 12.3444 15.6218 12.2615 15.5874C12.1786 15.5531 12.0897 15.5354 12 15.5354Z" fill="black"/>
</svg>
