<svg width="24" height="24" viewBox="0 0 24 24" fill="none" xmlns="http://www.w3.org/2000/svg">
<path d="M19.2371 10.7125C19.2369 10.5678 19.1794 10.4291 19.077 10.3267C18.9747 10.2244 18.836 10.1668 18.6913 10.1666H16.957V11.7966H18.6913C18.836 11.7964 18.9748 11.7388 19.0771 11.6365C19.1794 11.5342 19.2369 11.3954 19.2371 11.2507V10.7125ZM6.462 10.1666H4.957V13.8333H6.462C6.71794 13.833 6.96333 13.7313 7.14431 13.5503C7.3253 13.3693 7.42711 13.1239 7.4274 12.868V11.132C7.42711 10.876 7.3253 10.6307 7.14432 10.4497C6.96334 10.2687 6.71795 10.1669 6.462 10.1666ZM1 4V20H23V4H1ZM8.5941 12.868C8.5941 13.148 8.53895 13.4252 8.4318 13.6839C8.32465 13.9426 8.1676 14.1776 7.96962 14.3756C7.77163 14.5736 7.53659 14.7306 7.27791 14.8377C7.01923 14.9449 6.74199 15 6.462 15H3.79V9H6.462C6.74199 8.99999 7.01923 9.05512 7.27791 9.16226C7.53659 9.2694 7.77163 9.42644 7.96962 9.62441C8.1676 9.82239 8.32465 10.0574 8.4318 10.3161C8.53895 10.5748 8.5941 10.852 8.5941 11.132V12.868ZM12.6265 15H11.3737L9.186 9H10.4388L12 13.282L13.5612 9H14.814L12.6265 15ZM19.29 15L17.996 12.9631H16.9569V15H15.79V9H18.691C19.1452 9 19.5808 9.18042 19.9019 9.50158C20.2231 9.82274 20.4035 10.2583 20.4035 10.7125V11.2505C20.4027 11.611 20.2878 11.9619 20.0752 12.253C19.8626 12.5442 19.5634 12.7605 19.2203 12.8711L20.5731 15H19.29Z" fill="black"/>
</svg>
