<svg width="24" height="24" viewBox="0 0 24 24" fill="none" xmlns="http://www.w3.org/2000/svg">
<path d="M12.6265 15L14.814 9H13.5612L12 13.282L10.4388 9H9.186L11.3737 15H12.6265ZM16.9565 12.9631H17.9959L19.29 15H20.5728L19.2203 12.8711C19.5634 12.7605 19.8626 12.5442 20.0752 12.253C20.2878 11.9619 20.4027 11.611 20.4035 11.2505V10.7125C20.4035 10.2584 20.2231 9.82283 19.902 9.50169C19.5809 9.18054 19.1454 9.00008 18.6913 9H15.79V15H16.9566L16.9565 12.9631ZM16.9565 10.1666H18.6908C18.8355 10.1668 18.9742 10.2244 19.0765 10.3267C19.1789 10.4291 19.2364 10.5678 19.2366 10.7125V11.2505C19.2364 11.3952 19.1789 11.534 19.0766 11.6363C18.9743 11.7386 18.8355 11.7962 18.6908 11.7964H16.957L16.9565 10.1666ZM8.5941 12.868V11.132C8.5941 10.852 8.53895 10.5748 8.4318 10.3161C8.32465 10.0574 8.1676 9.82239 7.96962 9.62441C7.77163 9.42644 7.53659 9.2694 7.27791 9.16226C7.01923 9.05512 6.74199 8.99999 6.462 9H3.79V15H6.462C6.74199 15 7.01923 14.9449 7.27791 14.8377C7.53659 14.7306 7.77163 14.5736 7.96962 14.3756C8.1676 14.1776 8.32465 13.9426 8.4318 13.6839C8.53895 13.4252 8.5941 13.148 8.5941 12.868ZM4.957 10.1666H6.462C6.71795 10.1669 6.96334 10.2687 7.14432 10.4497C7.3253 10.6307 7.42711 10.876 7.4274 11.132V12.868C7.42711 13.1239 7.3253 13.3693 7.14431 13.5503C6.96333 13.7313 6.71794 13.833 6.462 13.8333H4.957V10.1666ZM0 4V20H24V4H0ZM22.2 18.5H1.8V5.5H22.2V18.5Z" fill="black"/>
</svg>
