<svg width="24" height="24" viewBox="0 0 24 24" fill="none" xmlns="http://www.w3.org/2000/svg">
<path d="M12 2C10.0222 2 8.08879 2.58649 6.4443 3.6853C4.79981 4.78412 3.51809 6.3459 2.76121 8.17317C2.00433 10.0004 1.8063 12.0111 2.19215 13.9509C2.578 15.8907 3.53041 17.6725 4.92894 19.0711C6.32746 20.4696 8.10929 21.422 10.0491 21.8079C11.9889 22.1937 13.9996 21.9957 15.8268 21.2388C17.6541 20.4819 19.2159 19.2002 20.3147 17.5557C21.4135 15.9112 22 13.9778 22 12C22 10.6868 21.7413 9.38642 21.2388 8.17317C20.7363 6.95991 19.9997 5.85752 19.0711 4.92893C18.1425 4.00035 17.0401 3.26375 15.8268 2.7612C14.6136 2.25866 13.3132 2 12 2ZM12 6.85C12.2275 6.85 12.4498 6.91745 12.6389 7.04381C12.828 7.17017 12.9754 7.34978 13.0625 7.55991C13.1495 7.77005 13.1723 8.00128 13.1279 8.22435C13.0835 8.44743 12.974 8.65234 12.8132 8.81317C12.6523 8.974 12.4474 9.08353 12.2244 9.1279C12.0013 9.17228 11.7701 9.1495 11.5599 9.06246C11.3498 8.97542 11.1702 8.82802 11.0438 8.63891C10.9175 8.44979 10.85 8.22745 10.85 8C10.85 7.695 10.9712 7.40249 11.1868 7.18683C11.4025 6.97116 11.695 6.85 12 6.85ZM14.5 17H9.5V15.3H11.05V12.2H9.5V10.5H12.95V15.3H14.5V17Z" fill="black"/>
</svg>
