<svg width="24" height="24" viewBox="0 0 24 24" fill="none" xmlns="http://www.w3.org/2000/svg">
<path d="M22.4766 15.25L20.1866 11.2841L18.8875 12.0341L21.1775 16C21.4408 16.456 21.5794 16.9734 21.5794 17.5C21.5794 18.0266 21.4408 18.5439 21.1775 18.9999C20.9142 19.456 20.5355 19.8347 20.0795 20.098C19.6234 20.3613 19.1061 20.5 18.5795 20.5H13.7031V19.1L11.5531 21.25L13.7031 23.4V22H18.58C19.3699 21.9999 20.1458 21.7919 20.8298 21.3969C21.5138 21.0019 22.0818 20.4338 22.4767 19.7498C22.8716 19.0657 23.0795 18.2897 23.0795 17.4999C23.0794 16.71 22.8715 15.934 22.4766 15.25ZM9.40199 4.60398C9.6653 4.14796 10.044 3.76928 10.5001 3.506C10.9561 3.24272 11.4734 3.10411 12 3.10411C12.5266 3.10411 13.0439 3.24272 13.4999 3.506C13.956 3.76928 14.3347 4.14796 14.598 4.60398L17.0363 8.82698L15.8237 9.52698L18.7609 10.314L19.5479 7.37688L18.3352 8.07688L15.8971 3.85398C15.5021 3.1699 14.9341 2.60184 14.25 2.20688C13.5659 1.81193 12.7899 1.604 12 1.604C11.2101 1.604 10.4341 1.81193 9.75 2.20688C9.06592 2.60184 8.49785 3.1699 8.10289 3.85398L5.81319 7.81998L7.11229 8.56998L9.40199 4.60398ZM2.82249 19C2.55615 18.545 2.41577 18.0272 2.41577 17.5C2.41577 16.9727 2.55615 16.455 2.82249 16L5.26069 11.777L6.47309 12.477L5.68629 9.53998L2.74899 10.327L3.96149 11.027L1.52339 15.25C1.12843 15.9341 0.920502 16.7101 0.920502 17.5C0.920501 18.2899 1.12843 19.0659 1.52338 19.75C1.91834 20.4341 2.48641 21.0021 3.17049 21.3971C3.85458 21.792 4.63057 22 5.42049 22H9.99999V20.5H5.42049C4.89326 20.5031 4.3747 20.3659 3.91811 20.1022C3.46151 19.8386 3.08335 19.4582 2.82249 19ZM14.1517 14.0269C14.1571 13.7653 14.1094 13.5054 14.0116 13.2628C13.9137 13.0202 13.7678 12.8 13.5825 12.6153C13.3972 12.4307 13.1764 12.2855 12.9334 12.1885C12.6905 12.0915 12.4304 12.0448 12.1689 12.0511C11.8532 12.0513 11.5428 12.1325 11.2674 12.2869C10.992 12.4413 10.7608 12.6637 10.5959 12.9329C10.624 11.4638 11.3669 10.9153 12.1296 10.9153C12.3757 10.9183 12.6186 10.972 12.8431 11.073C13.0676 11.1739 13.269 11.32 13.4346 11.5021L14.0352 10.7379C13.7959 10.4687 13.5025 10.2529 13.1743 10.1046C12.846 9.95624 12.4902 9.87873 12.13 9.87708C10.8608 9.87708 9.50439 10.692 9.50439 12.9791C9.50439 15.4409 10.8592 16.1229 11.9677 16.1229C12.2503 16.135 12.5325 16.0897 12.7971 15.9898C13.0617 15.8899 13.3034 15.7374 13.5075 15.5415C13.7116 15.3456 13.8739 15.1104 13.9846 14.8501C14.0953 14.5898 14.1522 14.3098 14.1517 14.0269ZM10.8257 14.0369C10.8283 13.8901 10.86 13.7453 10.9192 13.6109C10.9783 13.4766 11.0637 13.3553 11.1702 13.2543C11.2768 13.1533 11.4023 13.0745 11.5397 13.0226C11.677 12.9707 11.8233 12.9466 11.97 12.9519C12.1113 12.9427 12.2529 12.9628 12.386 13.0112C12.519 13.0595 12.6406 13.135 12.743 13.2327C12.8454 13.3305 12.9264 13.4484 12.9809 13.5791C13.0354 13.7098 13.0621 13.8503 13.0595 13.9919C13.0645 14.1395 13.0395 14.2866 12.9861 14.4243C12.9326 14.562 12.8518 14.6875 12.7485 14.7931C12.6453 14.8987 12.5217 14.9823 12.3852 15.0388C12.2487 15.0953 12.1022 15.1236 11.9545 15.1219C11.8078 15.1301 11.6609 15.1081 11.5231 15.057C11.3854 15.006 11.2596 14.9271 11.1536 14.8252C11.0477 14.7234 10.9639 14.6008 10.9075 14.4651C10.8511 14.3295 10.8232 14.1836 10.8257 14.0367V14.0369Z" fill="black"/>
</svg>
