<svg width="24" height="24" viewBox="0 0 24 24" fill="none" xmlns="http://www.w3.org/2000/svg">
<path d="M1 4V20H23V4H1ZM11.4019 10.867H10.5686V10.7682C10.5683 10.5203 10.4697 10.2827 10.2945 10.1074C10.1192 9.93218 9.88156 9.83359 9.6337 9.8333H8.53C8.23875 9.83367 7.95953 9.94953 7.75358 10.1555C7.54763 10.3614 7.43177 10.6406 7.4314 10.9319V13.068C7.43177 13.3593 7.54763 13.6385 7.75358 13.8444C7.95953 14.0504 8.23875 14.1662 8.53 14.1666H9.6337C9.88155 14.1663 10.1192 14.0678 10.2944 13.8925C10.4697 13.7173 10.5683 13.4797 10.5686 13.2318V13.1329H11.4019V13.2318C11.4019 13.7008 11.2156 14.1505 10.884 14.4821C10.5524 14.8137 10.1027 15 9.6337 15H8.53C8.0176 15 7.52619 14.7965 7.16387 14.4341C6.80155 14.0718 6.598 13.5804 6.598 13.068V10.9319C6.598 10.6782 6.64797 10.427 6.74507 10.1926C6.84216 9.95818 6.98447 9.7452 7.16388 9.56581C7.34328 9.38641 7.55626 9.24411 7.79066 9.14703C8.02506 9.04995 8.27629 8.99999 8.53 9H9.6337C9.86591 8.99999 10.0958 9.04571 10.3104 9.13457C10.5249 9.22342 10.7198 9.35367 10.884 9.51786C11.0482 9.68206 11.1785 9.87699 11.2673 10.0915C11.3562 10.3061 11.4019 10.536 11.4019 10.7682V10.867ZM17.4019 10.867H16.5686V10.7682C16.5683 10.5203 16.4697 10.2827 16.2945 10.1074C16.1192 9.93218 15.8816 9.83359 15.6337 9.8333H14.53C14.2387 9.83367 13.9595 9.94953 13.7536 10.1555C13.5476 10.3614 13.4318 10.6406 13.4314 10.9319V13.068C13.4318 13.3593 13.5476 13.6385 13.7536 13.8444C13.9595 14.0504 14.2387 14.1662 14.53 14.1666H15.6336C15.8815 14.1663 16.1191 14.0678 16.2943 13.8925C16.4696 13.7173 16.5682 13.4797 16.5685 13.2318V13.1329H17.4018V13.2318C17.4018 13.7007 17.2155 14.1505 16.8839 14.4821C16.5524 14.8137 16.1026 15 15.6337 15H14.53C14.0176 15 13.5262 14.7965 13.1639 14.4341C12.8015 14.0718 12.598 13.5804 12.598 13.068V10.9319C12.598 10.6782 12.648 10.427 12.7451 10.1926C12.8422 9.95818 12.9845 9.7452 13.1639 9.56581C13.3433 9.38641 13.5563 9.24411 13.7907 9.14703C14.0251 9.04995 14.2763 8.99999 14.53 9H15.6336C15.8658 8.99999 16.0957 9.04571 16.3103 9.13457C16.5248 9.22342 16.7197 9.35367 16.8839 9.51786C17.0481 9.68206 17.1784 9.87699 17.2672 10.0915C17.3561 10.3061 17.4018 10.536 17.4018 10.7682L17.4019 10.867Z" fill="black"/>
</svg>
