<svg width="24" height="24" viewBox="0 0 24 24" fill="none" xmlns="http://www.w3.org/2000/svg">
<path d="M15.462 9.5H13.29V14.5H15.462C15.8947 14.4995 16.3096 14.3274 16.6155 14.0214C16.9215 13.7155 17.0936 13.3006 17.0941 12.8679V11.132C17.0936 10.6993 16.9215 10.2845 16.6155 9.97852C16.3095 9.67257 15.8947 9.50048 15.462 9.5ZM1 4V20H23V4H1ZM11.29 15H10.79V12.24H7.29V15H6.79V9H7.29V11.74H10.79V9H11.29V15ZM17.5938 12.8679C17.5938 13.4333 17.3692 13.9756 16.9694 14.3754C16.5696 14.7753 16.0274 14.9999 15.462 15H12.79V9H15.462C15.742 8.99999 16.0192 9.05512 16.2779 9.16226C16.5366 9.2694 16.7716 9.42644 16.9696 9.62441C17.1676 9.82239 17.3247 10.0574 17.4318 10.3161C17.5389 10.5748 17.5941 10.852 17.5941 11.132L17.5938 12.8679Z" fill="black"/>
</svg>
