<svg width="24" height="24" viewBox="0 0 24 24" fill="none" xmlns="http://www.w3.org/2000/svg">
<path d="M15.4641 4.10398L18.78 9.84718L16.64 9.27368L16.5116 9.75738L19.4622 10.548L20.2539 7.59338L19.77 7.46498L19.2029 9.57998L15.8971 3.85398C15.5021 3.1699 14.9341 2.60184 14.25 2.20688C13.5659 1.81193 12.7899 1.604 12 1.604C11.2101 1.604 10.4341 1.81193 9.75002 2.20688C9.06593 2.60184 8.49786 3.1699 8.1029 3.85398L6.3129 6.95398L6.7458 7.20398L8.5358 4.10398C8.88688 3.4959 9.39183 2.99095 9.9999 2.63988C10.608 2.28881 11.2978 2.10398 11.9999 2.10398C12.702 2.10398 13.3918 2.28881 13.9999 2.63988C14.608 2.99095 15.1129 3.4959 15.464 4.10398H15.4641ZM1.9564 19.5C1.60137 18.8933 1.41424 18.2029 1.41424 17.5C1.41424 16.797 1.60137 16.1067 1.9564 15.5L5.2722 9.75668L5.8458 11.8967L6.329 11.766L5.5383 8.81598L2.5837 9.60748L2.7144 10.0908L4.8293 9.52398L1.5234 15.25C1.12845 15.9341 0.920518 16.7101 0.920517 17.5C0.920516 18.2899 1.12844 19.0659 1.5234 19.75C1.91835 20.4341 2.48642 21.0021 3.17051 21.3971C3.85459 21.792 4.63059 22 5.4205 22H9V21.5H5.42C4.71712 21.5041 4.02581 21.321 3.41711 20.9695C2.8084 20.618 2.30424 20.1108 1.9564 19.5ZM22.4764 15.25L20.6864 12.15L20.2535 12.4L22.0435 15.5C22.3946 16.1081 22.5794 16.7978 22.5794 17.5C22.5794 18.2021 22.3946 18.8919 22.0435 19.5C21.6924 20.1081 21.1875 20.613 20.5794 20.9641C19.9713 21.3152 19.2815 21.5 18.5794 21.5H11.9478L13.5146 19.9331L13.16 19.58L11 21.74L13.1628 23.903L13.516 23.5483L11.9678 22H18.58C19.3699 21.9999 20.1458 21.7919 20.8298 21.3969C21.5138 21.0019 22.0818 20.4338 22.4767 19.7498C22.8716 19.0657 23.0795 18.2897 23.0795 17.4999C23.0795 16.71 22.8715 15.934 22.4766 15.25H22.4764ZM13.9057 15.5065H10.7257C11.3209 14.9155 12.6474 13.5965 13.0187 13.2086C13.255 13.0186 13.4504 12.7827 13.5929 12.515C13.7354 12.2474 13.8221 11.9536 13.8478 11.6515C13.8486 11.413 13.801 11.1768 13.7081 10.9572C13.6151 10.7376 13.4786 10.5391 13.3068 10.3737C13.135 10.2083 12.9314 10.0794 12.7085 9.99481C12.4855 9.91021 12.2477 9.87166 12.0094 9.88148C11.5499 9.91587 11.1135 10.0966 10.7642 10.3971C10.4149 10.6977 10.1711 11.1022 10.0685 11.5515L10.554 11.6715C10.6302 11.33 10.8118 11.0211 11.073 10.7885C11.3343 10.5558 11.662 10.4111 12.01 10.3748C12.1832 10.3648 12.3565 10.3905 12.5193 10.4504C12.6821 10.5102 12.8309 10.6028 12.9564 10.7225C13.0819 10.8423 13.1815 10.9865 13.2489 11.1463C13.3163 11.3061 13.3502 11.478 13.3484 11.6515C13.3484 12.0178 13.1672 12.3363 12.656 12.8693C12.1746 13.372 10.0545 15.5065 10.0545 15.5065V16H13.9064L13.9057 15.5065Z" fill="black"/>
</svg>
