<svg width="24" height="24" viewBox="0 0 24 24" fill="none" xmlns="http://www.w3.org/2000/svg">
<path d="M21.1716 9.85812C20.4215 9.10806 20.0001 8.09078 20 7.03002V4.00002H16.97C15.9092 4.00001 14.8918 3.57857 14.1416 2.82842L12 0.686523L9.85812 2.82842C9.10806 3.5785 8.09078 3.99993 7.03002 4.00002H4.00002V7.03002C3.99993 8.09078 3.5785 9.10806 2.82842 9.85812L0.686523 12L2.82842 14.1419C3.5785 14.892 3.99993 15.9093 4.00002 16.97V20H7.03002C8.09088 20 9.10829 20.4215 9.85842 21.1716L12 23.3135L14.1419 21.1716C14.892 20.4215 15.9093 20.0001 16.97 20H20V16.97C20 15.9092 20.4215 14.8918 21.1716 14.1416L23.3135 12L21.1716 9.85812ZM20.1109 13.0812C19.5986 13.5907 19.1925 14.1968 18.916 14.8643C18.6395 15.5318 18.4981 16.2475 18.5 16.97V18.5H16.97C16.2475 18.498 15.5317 18.6394 14.8641 18.9159C14.1966 19.1924 13.5905 19.5986 13.0809 20.1109L12 21.1921L10.9188 20.1109C10.4093 19.5986 9.80328 19.1925 9.13577 18.916C8.46826 18.6395 7.75254 18.4981 7.03002 18.5H5.50002V16.97C5.50199 16.2475 5.36063 15.5317 5.08411 14.8641C4.8076 14.1966 4.40144 13.5905 3.88912 13.0809L2.80792 12L3.88912 10.9187C4.4014 10.4092 4.80754 9.80321 5.08405 9.13572C5.36056 8.46822 5.50195 7.75252 5.50002 7.03002V5.50002H7.03002C7.75259 5.50199 8.46836 5.36063 9.13593 5.08411C9.80349 4.8076 10.4096 4.40144 10.9191 3.88912L12 2.80782L13.0812 3.88902C13.5907 4.40133 14.1968 4.80751 14.8643 5.08403C15.5318 5.36056 16.2475 5.50195 16.97 5.50002H18.5V7.03002C18.4981 7.75258 18.6394 8.46836 18.9159 9.13592C19.1925 9.80348 19.5986 10.4096 20.1109 10.9191L21.1921 12L20.1109 13.0812ZM11.4093 12.5H12.5907L12.95 7.50002H11.05L11.4093 12.5ZM12 14.1927C11.8187 14.1927 11.6415 14.2465 11.4907 14.3472C11.34 14.4479 11.2225 14.5911 11.1531 14.7586C11.0837 14.9261 11.0656 15.1104 11.1009 15.2883C11.1363 15.4661 11.2236 15.6294 11.3518 15.7576C11.48 15.8858 11.6434 15.9731 11.8212 16.0085C11.999 16.0439 12.1833 16.0257 12.3508 15.9563C12.5183 15.887 12.6615 15.7695 12.7622 15.6187C12.863 15.468 12.9167 15.2907 12.9167 15.1094C12.9167 14.8663 12.8201 14.6331 12.6482 14.4612C12.4763 14.2893 12.2431 14.1927 12 14.1927Z" fill="black"/>
</svg>
