<svg width="24" height="24" viewBox="0 0 24 24" fill="none" xmlns="http://www.w3.org/2000/svg">
<path d="M12.1072 20.3499H11.8928C10.4247 20.3479 9.01018 19.7985 7.92554 18.8092C6.84091 17.8198 6.16415 16.4616 6.0275 14.9999H12.5L13.5 12.9999H6V10.9999H14L15 8.9999H6.0275C6.16415 7.53821 6.84091 6.17999 7.92554 5.19065C9.01018 4.20131 10.4247 3.65194 11.8928 3.6499H12.1072C13.0915 3.65074 14.06 3.89831 14.9239 4.36998C15.7879 4.84165 16.5199 5.52237 17.0529 6.3499L18.7187 5.2399C18.0033 4.13781 17.0237 3.23207 15.869 2.60508C14.7143 1.97809 13.4211 1.64974 12.1072 1.6499H11.8928C9.89458 1.65079 7.97118 2.41009 6.5112 3.7744C5.05122 5.13871 4.1635 7.00632 4.0274 8.9999H2.5L1.5 10.9999H4V12.9999H2.5L1.5 14.9999H4.0274C4.1635 16.9935 5.05122 18.8611 6.5112 20.2254C7.97118 21.5897 9.89458 22.349 11.8928 22.3499H12.1072C13.4211 22.3501 14.7143 22.0217 15.869 21.3947C17.0237 20.7677 18.0033 19.862 18.7187 18.7599L17.0529 17.6499C16.5199 18.4774 15.7879 19.1582 14.9239 19.6298C14.06 20.1015 13.0915 20.3491 12.1072 20.3499Z" fill="black"/>
</svg>
