<svg width="24" height="24" viewBox="0 0 24 24" fill="none" xmlns="http://www.w3.org/2000/svg">
<path d="M12.7292 9H11.8959V15H12.7292V9ZM15.4361 12.6089H18.3261V11.8658H15.4361V9.7916H18.6056V9H14.6028V15H15.4361V12.6089ZM7.5347 15H8.6384C9.10735 15 9.55708 14.8137 9.88868 14.4821C10.2203 14.1505 10.4066 13.7007 10.4066 13.2318V11.8333H8.1736V12.5485H9.5736V13.2318C9.57331 13.4797 9.47471 13.7173 9.29945 13.8925C9.12418 14.0678 8.88655 14.1663 8.6387 14.1666H7.5347C7.24346 14.1662 6.96427 14.0503 6.75835 13.8444C6.55242 13.6384 6.43657 13.3592 6.4362 13.068V10.9319C6.43657 10.6407 6.55242 10.3615 6.75835 10.1555C6.96427 9.94957 7.24346 9.8337 7.5347 9.8333H8.6384C8.88626 9.83359 9.12389 9.93218 9.29915 10.1074C9.47442 10.2827 9.57301 10.5203 9.5733 10.7682V10.7819H10.4066V10.7682C10.4066 10.2992 10.2203 9.8495 9.88871 9.51789C9.5571 9.18629 9.10736 9 8.6384 9H7.5347C7.281 8.99999 7.02977 9.04995 6.79538 9.14703C6.56098 9.24411 6.34801 9.38642 6.16861 9.56581C5.98921 9.74521 5.84691 9.95818 5.74983 10.1926C5.65275 10.427 5.60279 10.6782 5.6028 10.9319V13.068C5.60279 13.3217 5.65275 13.5729 5.74983 13.8073C5.84691 14.0417 5.98921 14.2547 6.1686 14.4341C6.348 14.6135 6.56098 14.7558 6.79537 14.8529C7.02977 14.95 7.28099 15 7.5347 15ZM1 4V20H23V4H1ZM22 19H2V5H22V19Z" fill="black"/>
</svg>
