<svg width="24" height="24" viewBox="0 0 24 24" fill="none" xmlns="http://www.w3.org/2000/svg">
<path d="M21.1716 9.85812C20.4215 9.10806 20.0001 8.09078 20 7.03002V4.00002H16.97C15.9092 4.00001 14.8918 3.57857 14.1416 2.82842L12 0.686523L9.85812 2.82842C9.10806 3.5785 8.09078 3.99993 7.03002 4.00002H4.00002V7.03002C3.99993 8.09078 3.5785 9.10806 2.82842 9.85812L0.686523 12L2.82842 14.1419C3.5785 14.892 3.99993 15.9093 4.00002 16.97V20H7.03002C8.09088 20 9.10829 20.4215 9.85842 21.1716L12 23.3135L14.1419 21.1716C14.892 20.4215 15.9093 20.0001 16.97 20H20V16.97C20 15.9092 20.4215 14.8918 21.1716 14.1416L23.3135 12L21.1716 9.85812ZM20.818 13.7881C20.3989 14.205 20.0666 14.7009 19.8403 15.2471C19.6141 15.7932 19.4984 16.3789 19.5 16.97V19.5H16.97C16.3788 19.4984 15.7932 19.6141 15.247 19.8403C14.7008 20.0665 14.2049 20.3989 13.788 20.818L12 22.6064L10.2117 20.818C9.79486 20.3989 9.29902 20.0666 8.75288 19.8404C8.20674 19.6141 7.62116 19.4984 7.03002 19.5H4.50002V16.97C4.50162 16.3788 4.38595 15.7932 4.15972 15.247C3.93348 14.7008 3.60118 14.2049 3.18202 13.788L1.39362 12L3.18202 10.2116C3.60115 9.79478 3.93344 9.29894 4.15967 8.75283C4.3859 8.20671 4.50159 7.62114 4.50002 7.03002V4.50002H7.03002C7.62122 4.50166 8.20688 4.386 8.75307 4.15975C9.29927 3.93349 9.79516 3.60114 10.212 3.18192L12 1.39362L13.7883 3.18192C14.2052 3.6011 14.701 3.93344 15.2471 4.15969C15.7933 4.38594 16.3789 4.50162 16.97 4.50002H19.5V7.03002C19.4984 7.6212 19.6141 8.20682 19.8403 8.75299C20.0666 9.29916 20.3989 9.79504 20.818 10.2119L22.6064 12L20.818 13.7881ZM12.218 12.4998L12.3503 7.49982H11.6503L11.7826 12.4998H12.218ZM12 14.8781C11.911 14.8781 11.824 14.9045 11.75 14.954C11.676 15.0034 11.6183 15.0737 11.5843 15.1559C11.5502 15.2381 11.5413 15.3286 11.5587 15.4159C11.576 15.5032 11.6189 15.5834 11.6818 15.6463C11.7448 15.7093 11.8249 15.7521 11.9122 15.7695C11.9995 15.7868 12.09 15.7779 12.1722 15.7439C12.2545 15.7098 12.3247 15.6521 12.3742 15.5781C12.4236 15.5041 12.45 15.4171 12.45 15.3281C12.45 15.2088 12.4026 15.0943 12.3182 15.0099C12.2338 14.9255 12.1194 14.8781 12 14.8781Z" fill="black"/>
</svg>
