<svg width="24" height="24" viewBox="0 0 24 24" fill="none" xmlns="http://www.w3.org/2000/svg">
<path d="M8.2762 9.5H6.0362V12.0482H8.2762C8.54973 12.0479 8.81198 11.9391 9.0054 11.7457C9.19882 11.5523 9.30761 11.29 9.3079 11.0165V10.5317C9.30761 10.2582 9.19882 9.99592 9.0054 9.8025C8.81198 9.60908 8.54973 9.50029 8.2762 9.5ZM1 4V20H23V4H1ZM9.8079 11.0165C9.8079 11.2176 9.76828 11.4168 9.69131 11.6027C9.61433 11.7885 9.50151 11.9573 9.35928 12.0996C9.21704 12.2418 9.04819 12.3546 8.86236 12.4316C8.67652 12.5086 8.47735 12.5482 8.2762 12.5482H6.0362V15H5.5362V9H8.2762C8.47735 9 8.67652 9.03962 8.86236 9.11659C9.04819 9.19357 9.21704 9.30639 9.35928 9.44862C9.50151 9.59086 9.61433 9.75971 9.69131 9.94554C9.76828 10.1314 9.8079 10.3306 9.8079 10.5317V11.0165ZM12.0739 15H11.5739V9H12.0739V15ZM18.552 15H18.1261L14.6326 9.9373V15H14.1326V9H14.5496L18.052 14.0706V9H18.552V15Z" fill="black"/>
</svg>
