<svg width="24" height="24" viewBox="0 0 24 24" fill="none" xmlns="http://www.w3.org/2000/svg">
<path d="M8.4367 10.1666H6.7024V11.7966H8.4367C8.58142 11.7964 8.72017 11.7389 8.8225 11.6365C8.92482 11.5342 8.98237 11.3954 8.9825 11.2507V10.7127C8.98239 10.5679 8.92487 10.4292 8.82254 10.3268C8.72021 10.2244 8.58145 10.1668 8.4367 10.1666ZM1 4V20H23V4H1ZM10.1492 11.2505C10.1492 11.7047 9.96878 12.1403 9.64763 12.4615C9.32647 12.7826 8.89089 12.9631 8.4367 12.9631H6.7023V15H5.5357V9H8.4367C8.66159 9 8.88428 9.04429 9.09205 9.13036C9.29982 9.21642 9.4886 9.34256 9.64762 9.50158C9.80664 9.6606 9.93278 9.84938 10.0188 10.0572C10.1049 10.2649 10.1492 10.4876 10.1492 10.7125V11.2505ZM12.4072 15H11.2406V9H12.4072V15ZM18.6736 15H17.6972L15.1777 11.1634V15H14.011V9H14.9756L17.507 12.847V9H18.6736V15Z" fill="black"/>
</svg>
