<svg width="24" height="24" viewBox="0 0 24 24" fill="none" xmlns="http://www.w3.org/2000/svg">
<path d="M15.4141 2H4V22H20V6.5859L15.4141 2ZM14.928 16H13.5389V14.7516C13.2485 15.2674 12.7954 15.6724 12.2504 15.9034C11.7054 16.1344 11.0992 16.1782 10.5267 16.0281C9.95409 15.878 9.44739 15.5425 9.08578 15.0738C8.72417 14.6052 8.52803 14.03 8.52803 13.4381C8.52803 12.8461 8.72417 12.2709 9.08578 11.8023C9.44739 11.3336 9.95409 10.9981 10.5267 10.848C11.0992 10.6979 11.7054 10.7417 12.2504 10.9727C12.7954 11.2037 13.2485 11.6087 13.5389 12.1245V9.6564H9.0461V8.3H14.928V16ZM11.2065 12.06C10.9346 12.0628 10.6697 12.146 10.445 12.2991C10.2203 12.4522 10.046 12.6684 9.94389 12.9204C9.84181 13.1723 9.81658 13.4489 9.87135 13.7152C9.92613 13.9815 10.0585 14.2257 10.2517 14.4169C10.445 14.6081 10.6905 14.7379 10.9574 14.7899C11.2242 14.8419 11.5005 14.8138 11.7514 14.709C12.0023 14.6043 12.2166 14.4277 12.3674 14.2015C12.5181 13.9752 12.5985 13.7094 12.5985 13.4375C12.596 13.0705 12.4481 12.7194 12.1871 12.4613C11.9262 12.2031 11.5735 12.059 11.2065 12.0605V12.06Z" fill="black"/>
</svg>
