<svg width="24" height="24" viewBox="0 0 24 24" fill="none" xmlns="http://www.w3.org/2000/svg">
<path d="M11.0984 12.5885C10.9158 12.5885 10.7373 12.6426 10.5855 12.744C10.4336 12.8455 10.3153 12.9896 10.2454 13.1583C10.1755 13.327 10.1572 13.5127 10.1928 13.6917C10.2284 13.8708 10.3164 14.0353 10.4455 14.1645C10.5746 14.2936 10.7391 14.3815 10.9182 14.4172C11.0972 14.4528 11.2829 14.4345 11.4516 14.3646C11.6203 14.2948 11.7645 14.1764 11.8659 14.0246C11.9674 13.8728 12.0215 13.6943 12.0215 13.5117C12.0212 13.267 11.9239 13.0323 11.7508 12.8593C11.5778 12.6862 11.3431 12.5888 11.0984 12.5885ZM16 5V2H4V22H20V8H19C18.2044 8 17.4413 7.68393 16.8787 7.12132C16.3161 6.55871 16 5.79565 16 5ZM15 16H13.3V14.8252C13.0122 15.31 12.5732 15.6868 12.0504 15.8978C11.5276 16.1088 10.9499 16.1423 10.4063 15.9931C9.86259 15.8439 9.38297 15.5202 9.04112 15.0719C8.69928 14.6236 8.51412 14.0754 8.51412 13.5117C8.51412 12.9479 8.69928 12.3997 9.04112 11.9514C9.38297 11.5031 9.86259 11.1794 10.4063 11.0302C10.9499 10.881 11.5276 10.9145 12.0504 11.1255C12.5732 11.3365 13.0122 11.7133 13.3 12.1981V10H9V8.3H15V16ZM21 3V1H19V3H16.9584L20 6.0416L23.0416 3H21Z" fill="black"/>
</svg>
