<svg width="24" height="24" viewBox="0 0 24 24" fill="none" xmlns="http://www.w3.org/2000/svg">
<path d="M12 0L0 12L12 24L24 12L12 0ZM12.95 7.5L12.5907 12.5H11.4093L11.05 7.5H12.95ZM12 16.026C11.8187 16.026 11.6415 15.9722 11.4907 15.8715C11.3399 15.7708 11.2225 15.6276 11.1531 15.4601C11.0837 15.2926 11.0655 15.1082 11.1009 14.9304C11.1363 14.7526 11.2236 14.5893 11.3518 14.4611C11.48 14.3329 11.6434 14.2456 11.8212 14.2102C11.9991 14.1748 12.1834 14.193 12.3509 14.2624C12.5184 14.3318 12.6615 14.4493 12.7623 14.6001C12.863 14.7508 12.9167 14.9281 12.9167 15.1094C12.9167 15.3525 12.8201 15.5856 12.6482 15.7575C12.4763 15.9294 12.2431 16.026 12 16.026Z" fill="black"/>
</svg>
