<svg width="24" height="24" viewBox="0 0 24 24" fill="none" xmlns="http://www.w3.org/2000/svg">
<path d="M1.95639 19.5C1.60135 18.8933 1.41422 18.2029 1.41422 17.5C1.41422 16.797 1.60135 16.1067 1.95639 15.5L5.27219 9.75668L5.84579 11.8967L6.32899 11.766L5.53829 8.81598L2.58369 9.60748L2.71439 10.0908L4.82929 9.52398L1.52339 15.25C1.12843 15.9341 0.920502 16.7101 0.920502 17.5C0.920501 18.2899 1.12843 19.0659 1.52338 19.75C1.91834 20.4341 2.48641 21.0021 3.17049 21.3971C3.85458 21.792 4.63057 22 5.42049 22H8.99999V21.5H5.41999C4.7171 21.5041 4.0258 21.321 3.41709 20.9695C2.80839 20.618 2.30422 20.1108 1.95639 19.5ZM15.4641 4.10398L18.78 9.84718L16.64 9.27368L16.5116 9.75738L19.4622 10.548L20.2539 7.59338L19.77 7.46498L19.2029 9.57998L15.8971 3.85398C15.5021 3.1699 14.9341 2.60184 14.25 2.20688C13.5659 1.81193 12.7899 1.604 12 1.604C11.2101 1.604 10.4341 1.81193 9.75 2.20688C9.06592 2.60184 8.49785 3.1699 8.10289 3.85398L6.31289 6.95398L6.74579 7.20398L8.53579 4.10398C8.88686 3.4959 9.39181 2.99095 9.99989 2.63988C10.608 2.28881 11.2977 2.10398 11.9999 2.10398C12.702 2.10398 13.3918 2.28881 13.9999 2.63988C14.608 2.99095 15.1129 3.4959 15.464 4.10398H15.4641ZM22.4766 15.25L20.6866 12.15L20.2537 12.4L22.0437 15.5C22.3948 16.1081 22.5796 16.7978 22.5796 17.5C22.5796 18.2021 22.3948 18.8919 22.0437 19.5C21.6926 20.1081 21.1877 20.613 20.5796 20.9641C19.9715 21.3152 19.2817 21.5 18.5796 21.5H11.9478L13.5146 19.9331L13.16 19.58L11 21.74L13.1628 23.903L13.516 23.5483L11.9678 22H18.58C19.3699 21.9999 20.1458 21.7919 20.8298 21.3969C21.5138 21.0019 22.0818 20.4338 22.4767 19.7498C22.8716 19.0657 23.0795 18.2897 23.0795 17.4999C23.0794 16.71 22.8715 15.934 22.4766 15.25ZM11.0934 15.9675L13.9583 10.5V9.99998H9.98609V10.5H13.3486L10.53 15.9675H11.0934Z" fill="black"/>
</svg>
