<svg width="24" height="24" viewBox="0 0 24 24" fill="none" xmlns="http://www.w3.org/2000/svg">
<path d="M13.2969 14.0102H7.25V3.1044H13.2969C14.7432 3.1044 16.1302 3.67893 17.1528 4.70158C18.1755 5.72423 18.75 7.11125 18.75 8.5575C18.75 10.0038 18.1755 11.3908 17.1528 12.4134C16.1302 13.4361 14.7432 14.0106 13.2969 14.0106V14.0102ZM13.2969 2.604H6.75V14.0102H4V14.5102H6.75V17.0002H4V17.5002H6.75V22.6043H7.25V17.5002H14V17.0002H7.25V14.5102H13.2969C14.8691 14.4889 16.3708 13.8549 17.4826 12.7431C18.5944 11.6314 19.2285 10.1297 19.25 8.5575C19.2216 6.98751 18.5853 5.48974 17.475 4.3794C16.3647 3.26907 14.8669 2.63276 13.2969 2.6044V2.604Z" fill="black"/>
</svg>
