<svg width="24" height="24" viewBox="0 0 24 24" fill="none" xmlns="http://www.w3.org/2000/svg">
<path d="M12 8.6829C12.1813 8.6829 12.3585 8.62915 12.5092 8.52843C12.6599 8.42772 12.7774 8.28458 12.8468 8.11711C12.9161 7.94963 12.9343 7.76535 12.8989 7.58756C12.8635 7.40978 12.7762 7.24647 12.648 7.1183C12.5198 6.99013 12.3565 6.90285 12.1787 6.8675C12.001 6.83215 11.8167 6.85031 11.6492 6.91969C11.4817 6.98908 11.3386 7.10656 11.2379 7.25729C11.1372 7.40802 11.0835 7.58523 11.0835 7.7665C11.0835 8.00955 11.1801 8.24264 11.352 8.4145C11.5239 8.58635 11.757 8.6829 12 8.6829ZM12 2C10.0222 2 8.08879 2.58649 6.4443 3.6853C4.79981 4.78412 3.51809 6.3459 2.76121 8.17317C2.00433 10.0004 1.8063 12.0111 2.19215 13.9509C2.578 15.8907 3.53041 17.6725 4.92894 19.0711C6.32746 20.4696 8.10929 21.422 10.0491 21.8079C11.9889 22.1937 13.9996 21.9957 15.8268 21.2388C17.6541 20.4819 19.2159 19.2002 20.3147 17.5557C21.4135 15.9112 22 13.9778 22 12C22 10.6868 21.7413 9.38642 21.2388 8.17317C20.7363 6.95991 19.9997 5.85752 19.0711 4.92893C18.1425 4.00035 17.0401 3.26375 15.8268 2.7612C14.6136 2.25866 13.3132 2 12 2ZM12 20.5C10.3189 20.5 8.67548 20.0015 7.27766 19.0675C5.87984 18.1335 4.79037 16.806 4.14703 15.2528C3.50368 13.6996 3.33536 11.9906 3.66333 10.3417C3.9913 8.69289 4.80085 7.17834 5.9896 5.98959C7.17834 4.80085 8.6929 3.9913 10.3417 3.66333C11.9906 3.33535 13.6996 3.50368 15.2528 4.14702C16.806 4.79037 18.1335 5.87984 19.0675 7.27765C20.0015 8.67547 20.5 10.3189 20.5 12C20.4974 14.2535 19.601 16.414 18.0075 18.0075C16.414 19.601 14.2535 20.4974 12 20.5ZM12.75 10.5H9.5V11.9H11.25V15.6H9.5V17H14.5V15.6H12.75V10.5Z" fill="black"/>
</svg>
