<svg width="24" height="24" viewBox="0 0 24 24" fill="none" xmlns="http://www.w3.org/2000/svg">
<path d="M12.49 8.2169C12.6252 8.21692 12.7573 8.17685 12.8698 8.10176C12.9822 8.02667 13.0698 7.91993 13.1215 7.79503C13.1733 7.67014 13.1868 7.53271 13.1605 7.40012C13.1341 7.26752 13.069 7.14573 12.9734 7.05013C12.8779 6.95453 12.7561 6.88942 12.6235 6.86304C12.4909 6.83666 12.3535 6.85019 12.2286 6.90192C12.1037 6.95365 11.9969 7.04125 11.9218 7.15366C11.8467 7.26606 11.8066 7.39821 11.8066 7.5334C11.8066 7.71465 11.8786 7.88847 12.0068 8.01664C12.1349 8.14481 12.3088 8.21685 12.49 8.2169ZM12 2C10.0222 2 8.08879 2.58649 6.4443 3.6853C4.79981 4.78412 3.51809 6.3459 2.76121 8.17317C2.00433 10.0004 1.8063 12.0111 2.19215 13.9509C2.578 15.8907 3.53041 17.6725 4.92894 19.0711C6.32746 20.4696 8.10929 21.422 10.0491 21.8079C11.9889 22.1937 13.9996 21.9957 15.8268 21.2388C17.6541 20.4819 19.2159 19.2002 20.3147 17.5557C21.4135 15.9112 22 13.9778 22 12C22 10.6868 21.7413 9.38642 21.2388 8.17317C20.7363 6.95991 19.9997 5.85752 19.0711 4.92893C18.1425 4.00035 17.0401 3.26375 15.8268 2.7612C14.6136 2.25866 13.3132 2 12 2ZM12 21C10.22 21 8.47991 20.4722 6.99987 19.4832C5.51983 18.4943 4.36628 17.0887 3.68509 15.4442C3.0039 13.7996 2.82567 11.99 3.17294 10.2442C3.5202 8.49836 4.37737 6.89471 5.63604 5.63604C6.89472 4.37737 8.49836 3.5202 10.2442 3.17293C11.99 2.82567 13.7996 3.0039 15.4442 3.68508C17.0887 4.36627 18.4943 5.51983 19.4832 6.99987C20.4722 8.47991 21 10.22 21 12C20.9974 14.3861 20.0483 16.6738 18.361 18.361C16.6738 20.0483 14.3861 20.9974 12 21ZM12.0869 16.2344C12.0233 16.2492 11.9569 16.2471 11.8944 16.2283C11.8318 16.2094 11.7753 16.1745 11.7305 16.127C11.685 16.0806 11.6521 16.0233 11.635 15.9605C11.6179 15.8978 11.6171 15.8317 11.6328 15.7686L12.5361 11.9766C12.5876 11.7595 12.5833 11.5329 12.5235 11.3179C12.4637 11.103 12.3504 10.9067 12.1941 10.7474C12.0379 10.5881 11.8438 10.471 11.63 10.4071C11.4162 10.3432 11.1898 10.3345 10.9717 10.3818L9.2188 10.7646L9.418 11.6768L11.1709 11.2939C11.2346 11.2798 11.3009 11.2822 11.3634 11.3008C11.4259 11.3195 11.4827 11.3537 11.5283 11.4004C11.5745 11.4467 11.6079 11.504 11.6254 11.567C11.643 11.6299 11.6439 11.6964 11.6283 11.7598L10.725 15.5518C10.6788 15.7453 10.6769 15.9468 10.7196 16.1411C10.7622 16.3354 10.8483 16.5176 10.9714 16.6739C11.0945 16.8302 11.2513 16.9567 11.4302 17.0438C11.6091 17.1309 11.8054 17.1763 12.0043 17.1768C12.0965 17.1765 12.1884 17.167 12.2787 17.1484L14.0453 16.7773L13.8539 15.8633L12.0869 16.2344Z" fill="black"/>
</svg>
