<svg width="24" height="24" viewBox="0 0 24 24" fill="none" xmlns="http://www.w3.org/2000/svg">
<path d="M3.25549 18.7499C3.03166 18.3713 2.91358 17.9396 2.91358 17.4999C2.91358 17.0601 3.03166 16.6284 3.25549 16.2499L5.54549 12.284L6.68219 12.9402L5.83539 9.78128L2.67649 10.6277L3.81319 11.284L1.52339 15.2499C1.12843 15.934 0.920502 16.71 0.920502 17.4999C0.920501 18.2898 1.12843 19.0658 1.52338 19.7499C1.91834 20.434 2.48641 21.002 3.17049 21.397C3.85458 21.7919 4.63057 21.9999 5.42049 21.9999H9.99999V19.9999H5.42049C4.98075 20.0045 4.54786 19.8909 4.16702 19.671C3.78618 19.4511 3.47138 19.133 3.25549 18.7499ZM9.83499 4.85388C10.0544 4.47386 10.37 4.15829 10.75 3.93889C11.1301 3.71949 11.5612 3.60399 12 3.60399C12.4388 3.60399 12.8699 3.71949 13.2499 3.93889C13.63 4.15829 13.9456 4.47386 14.165 4.85388L16.455 8.81978L15.3183 9.47608L18.4773 10.3225L19.3237 7.16358L18.1868 7.81988L15.8968 3.85398C15.5018 3.1699 14.9338 2.60184 14.2497 2.20688C13.5656 1.81193 12.7896 1.604 11.9997 1.604C11.2098 1.604 10.4338 1.81193 9.7497 2.20688C9.06562 2.60184 8.49755 3.1699 8.10259 3.85398L5.81319 7.81988L7.54519 8.81988L9.83499 4.85388ZM22.4766 15.2499L20.1866 11.284L18.4546 12.284L20.7446 16.2499C20.964 16.6299 21.0795 17.061 21.0795 17.4998C21.0795 17.9386 20.9641 18.3696 20.7447 18.7497C20.5253 19.1297 20.2098 19.4453 19.8298 19.6648C19.4498 19.8842 19.0188 19.9998 18.58 19.9999H14V18.6874L11.6875 20.9999L14 23.3124V21.9999H18.58C19.3699 21.9998 20.1458 21.7918 20.8298 21.3968C21.5138 21.0018 22.0818 20.4337 22.4767 19.7497C22.8716 19.0656 23.0795 18.2896 23.0795 17.4998C23.0794 16.7099 22.8715 15.9339 22.4766 15.2499ZM14.2555 14.0275C14.2582 13.7645 14.2081 13.5037 14.1079 13.2606C14.0078 13.0175 13.8598 12.797 13.6727 12.6122C13.4855 12.4275 13.2632 12.2823 13.0188 12.1852C12.7744 12.0882 12.513 12.0414 12.2501 12.0475C11.9593 12.0389 11.6707 12.1005 11.4087 12.2269C11.1466 12.3533 10.9189 12.5409 10.7446 12.7739C10.7866 11.7498 11.3513 11.1813 12.1287 11.1813C12.6271 11.1946 13.1058 11.3788 13.4845 11.7032L14.1714 10.6873C13.6117 10.1775 12.8856 9.88884 12.1287 9.87508C10.7937 9.87508 9.36689 10.6906 9.36689 12.9792C9.36689 15.4427 10.8125 16.1251 11.9579 16.1251C12.2479 16.1443 12.5387 16.1047 12.813 16.0086C13.0873 15.9126 13.3393 15.7621 13.5539 15.5661C13.7685 15.3702 13.9413 15.1329 14.0619 14.8685C14.1824 14.6041 14.2483 14.318 14.2555 14.0275ZM10.99 14.0107C10.9956 13.8905 11.025 13.7727 11.0765 13.664C11.128 13.5554 11.2007 13.458 11.2902 13.3777C11.3797 13.2973 11.4843 13.2356 11.5978 13.1961C11.7114 13.1565 11.8317 13.14 11.9518 13.1474C12.0672 13.1372 12.1835 13.151 12.2933 13.1878C12.4031 13.2246 12.5042 13.2837 12.5901 13.3614C12.6761 13.4391 12.745 13.5338 12.7927 13.6393C12.8404 13.7449 12.8657 13.8592 12.8672 13.9751C12.868 14.0958 12.8442 14.2155 12.7975 14.3269C12.7507 14.4382 12.6819 14.5389 12.5951 14.6229C12.5083 14.7069 12.4054 14.7725 12.2926 14.8156C12.1798 14.8587 12.0595 14.8786 11.9388 14.8739C11.8183 14.8868 11.6964 14.874 11.5812 14.8364C11.4659 14.7988 11.36 14.7371 11.2703 14.6556C11.1807 14.574 11.1093 14.4744 11.061 14.3632C11.0127 14.252 10.9885 14.1319 10.99 14.0107Z" fill="black"/>
</svg>
