<svg width="24" height="24" viewBox="0 0 24 24" fill="none" xmlns="http://www.w3.org/2000/svg">
<path d="M21.1716 9.85812C20.4215 9.10806 20.0001 8.09078 20 7.03002V4.00002H16.97C15.9092 4.00001 14.8918 3.57857 14.1416 2.82842L12 0.686523L9.85812 2.82842C9.10806 3.5785 8.09078 3.99993 7.03002 4.00002H4.00002V7.03002C3.99993 8.09078 3.5785 9.10806 2.82842 9.85812L0.686523 12L2.82842 14.1419C3.5785 14.892 3.99993 15.9093 4.00002 16.97V20H7.03002C8.09088 20 9.10829 20.4215 9.85842 21.1716L12 23.3135L14.1419 21.1716C14.892 20.4215 15.9093 20.0001 16.97 20H20V16.97C20 15.9092 20.4215 14.8918 21.1716 14.1416L23.3135 12L21.1716 9.85812ZM19.7573 12.7281C19.1985 13.2839 18.7555 13.945 18.4539 14.6731C18.1522 15.4012 17.998 16.1819 18 16.97V18H16.97C16.1818 17.9979 15.4009 18.1521 14.6727 18.4537C13.9445 18.7554 13.2833 19.1984 12.7274 19.7573L12 20.485L11.2723 19.7574C10.7165 19.1985 10.0554 18.7554 9.32722 18.4538C8.59902 18.1521 7.81822 17.9979 7.03002 18H6.00002V16.97C6.00217 16.1818 5.84795 15.4009 5.5463 14.6727C5.24464 13.9444 4.80153 13.2833 4.24262 12.7274L3.51502 12L4.24272 11.2723C4.80156 10.7165 5.24461 10.0554 5.54625 9.32717C5.84789 8.59899 6.00212 7.81821 6.00002 7.03002V6.00002H7.03002C7.81827 6.00221 8.59913 5.848 9.32738 5.54634C10.0556 5.24468 10.7168 4.80156 11.2726 4.24262L12 3.51502L12.7277 4.24262C13.2835 4.80152 13.9446 5.24462 14.6728 5.54628C15.401 5.84794 16.1818 6.00217 16.97 6.00002H18V7.03002C17.9979 7.81827 18.1521 8.59912 18.4538 9.32736C18.7554 10.0556 19.1985 10.7168 19.7574 11.2726L20.485 12L19.7573 12.7281ZM11.2422 12.5H12.7578L13.2188 7.50002H10.7812L11.2422 12.5ZM12 13.85C11.7726 13.85 11.5502 13.9175 11.3611 14.0438C11.172 14.1702 11.0246 14.3498 10.9376 14.5599C10.8505 14.7701 10.8277 15.0013 10.8721 15.2244C10.9165 15.4475 11.026 15.6524 11.1869 15.8132C11.3477 15.974 11.5526 16.0836 11.7757 16.1279C11.9987 16.1723 12.23 16.1495 12.4401 16.0625C12.6502 15.9754 12.8299 15.828 12.9562 15.6389C13.0826 15.4498 13.15 15.2275 13.15 15C13.15 14.695 13.0289 14.4025 12.8132 14.1869C12.5975 13.9712 12.305 13.85 12 13.85Z" fill="black"/>
</svg>
