<svg width="24" height="24" viewBox="0 0 24 24" fill="none" xmlns="http://www.w3.org/2000/svg">
<path d="M12.5907 12.5L12.95 7.5H11.05L11.4093 12.5H12.5907ZM12 14.1927C11.8187 14.1927 11.6415 14.2465 11.4907 14.3472C11.34 14.4479 11.2225 14.5911 11.1531 14.7586C11.0837 14.9261 11.0655 15.1104 11.1009 15.2882C11.1363 15.4661 11.2236 15.6294 11.3518 15.7576C11.48 15.8858 11.6433 15.9731 11.8212 16.0085C11.999 16.0439 12.1833 16.0257 12.3508 15.9563C12.5183 15.8869 12.6615 15.7694 12.7622 15.6187C12.8629 15.4679 12.9167 15.2907 12.9167 15.1094C12.9167 14.8663 12.8201 14.6331 12.6482 14.4612C12.4763 14.2893 12.2431 14.1927 12 14.1927ZM12 0L0 12L12 24L24 12L12 0ZM2.1213 12L12 2.1213L21.8787 12L12 21.8787L2.1213 12Z" fill="black"/>
</svg>
