<svg width="24" height="24" viewBox="0 0 24 24" fill="none" xmlns="http://www.w3.org/2000/svg">
<path d="M12 2C10.0222 2 8.08879 2.58649 6.4443 3.6853C4.79981 4.78412 3.51809 6.3459 2.76121 8.17317C2.00433 10.0004 1.8063 12.0111 2.19215 13.9509C2.578 15.8907 3.53041 17.6725 4.92894 19.0711C6.32746 20.4696 8.10929 21.422 10.0491 21.8079C11.9889 22.1937 13.9996 21.9957 15.8268 21.2388C17.6541 20.4819 19.2159 19.2002 20.3147 17.5557C21.4135 15.9112 22 13.9778 22 12C22 10.6868 21.7413 9.38642 21.2388 8.17317C20.7363 6.95991 19.9997 5.85752 19.0711 4.92893C18.1425 4.00035 17.0401 3.26375 15.8268 2.7612C14.6136 2.25866 13.3132 2 12 2ZM12 21C10.22 21 8.47991 20.4722 6.99987 19.4832C5.51983 18.4943 4.36628 17.0887 3.68509 15.4442C3.0039 13.7996 2.82567 11.99 3.17294 10.2442C3.5202 8.49836 4.37737 6.89471 5.63604 5.63604C6.89472 4.37737 8.49836 3.5202 10.2442 3.17293C11.99 2.82567 13.7996 3.0039 15.4442 3.68508C17.0887 4.36627 18.4943 5.51983 19.4832 6.99987C20.4722 8.47991 21 10.22 21 12C20.9974 14.3861 20.0483 16.6738 18.361 18.361C16.6738 20.0483 14.3861 20.9974 12 21ZM11.8794 15.5354C11.7443 15.5354 11.6122 15.5755 11.4998 15.6505C11.3874 15.7256 11.2998 15.8323 11.2481 15.9572C11.1964 16.082 11.1829 16.2194 11.2092 16.352C11.2356 16.4845 11.3007 16.6063 11.3962 16.7018C11.4918 16.7974 11.6135 16.8625 11.746 16.8889C11.8786 16.9152 12.016 16.9017 12.1408 16.85C12.2657 16.7983 12.3724 16.7107 12.4475 16.5984C12.5226 16.486 12.5627 16.3539 12.5627 16.2188C12.5627 16.0376 12.4907 15.8638 12.3626 15.7356C12.2344 15.6074 12.0606 15.5354 11.8794 15.5354ZM12.1416 6.9766C10.7588 6.9766 9.1436 7.8604 9.1436 10.3516H10.11C10.11 8.8438 10.87 7.9434 12.1412 7.9434C12.6407 7.90447 13.1358 8.06147 13.5215 8.38117C13.9073 8.70086 14.1535 9.15815 14.208 9.6562C14.208 10.4248 13.8105 10.7295 13.1074 11.2012C12.5872 11.4575 12.1501 11.8558 11.8467 12.35C11.5432 12.8442 11.3858 13.4142 11.3926 13.9941H12.3594C12.3537 13.5726 12.4728 13.1587 12.7016 12.8047C12.9304 12.4506 13.2588 12.1721 13.6455 12.0041C14.0918 11.7914 14.4707 11.4597 14.7406 11.0455C15.0104 10.6312 15.1607 10.1506 15.1748 9.6564C15.1527 9.28089 15.0566 8.91346 14.892 8.57524C14.7273 8.23702 14.4975 7.93469 14.2156 7.68563C13.9337 7.43658 13.6053 7.24572 13.2494 7.12404C12.8934 7.00236 12.517 6.95225 12.1416 6.9766Z" fill="black"/>
</svg>
