<svg width="24" height="24" viewBox="0 0 24 24" fill="none" xmlns="http://www.w3.org/2000/svg">
<path d="M0 5V19H24V5H0ZM5.31 13.227C5.03436 13.2269 4.76494 13.1452 4.53578 12.992C4.30663 12.8388 4.12804 12.6211 4.0226 12.3664C3.91716 12.1118 3.88961 11.8316 3.94342 11.5612C3.99723 11.2909 4.12999 11.0426 4.32491 10.8477C4.51984 10.6528 4.76817 10.5201 5.03851 10.4664C5.30886 10.4126 5.58907 10.4402 5.84372 10.5457C6.09836 10.6512 6.31601 10.8298 6.46914 11.059C6.62227 11.2882 6.704 11.5577 6.704 11.8333C6.704 12.0163 6.66794 12.1976 6.59788 12.3667C6.52782 12.5358 6.42514 12.6895 6.29569 12.8189C6.16624 12.9483 6.01256 13.051 5.84344 13.121C5.67431 13.191 5.49305 13.227 5.31 13.227ZM9.77 13.227C9.49435 13.227 9.22489 13.1453 8.9957 12.9921C8.76651 12.839 8.58788 12.6213 8.48239 12.3666C8.3769 12.112 8.3493 11.8318 8.40308 11.5614C8.45686 11.2911 8.58959 11.0427 8.7845 10.8478C8.97942 10.6529 9.22775 10.5202 9.4981 10.4664C9.76845 10.4126 10.0487 10.4402 10.3033 10.5457C10.558 10.6512 10.7757 10.8298 10.9288 11.059C11.082 11.2882 11.1637 11.5577 11.1637 11.8333C11.1637 12.0163 11.1277 12.1976 11.0576 12.3667C10.9876 12.5358 10.8849 12.6894 10.7555 12.8188C10.6261 12.9482 10.4725 13.0509 10.3034 13.1209C10.1343 13.191 9.95303 13.227 9.77 13.227ZM14.23 13.227C13.9543 13.227 13.6849 13.1453 13.4557 12.9922C13.2265 12.839 13.0478 12.6214 12.9423 12.3667C12.8368 12.1121 12.8092 11.8318 12.863 11.5615C12.9167 11.2911 13.0495 11.0428 13.2444 10.8478C13.4393 10.6529 13.6876 10.5202 13.958 10.4664C14.2283 10.4126 14.5086 10.4402 14.7632 10.5457C15.0179 10.6512 15.2356 10.8298 15.3887 11.059C15.5419 11.2882 15.6236 11.5576 15.6236 11.8333C15.6236 12.2029 15.4768 12.5574 15.2154 12.8188C14.9541 13.0801 14.5996 13.227 14.23 13.227ZM18.69 13.227C18.4144 13.227 18.1449 13.1453 17.9157 12.9921C17.6865 12.839 17.5079 12.6213 17.4024 12.3666C17.2969 12.112 17.2693 11.8318 17.3231 11.5614C17.3769 11.2911 17.5096 11.0427 17.7045 10.8478C17.8994 10.6529 18.1478 10.5202 18.4181 10.4664C18.6885 10.4126 18.9687 10.4402 19.2233 10.5457C19.478 10.6512 19.6957 10.8298 19.8488 11.059C20.002 11.2882 20.0837 11.5577 20.0837 11.8333C20.0837 12.0163 20.0477 12.1976 19.9776 12.3667C19.9076 12.5358 19.8049 12.6894 19.6755 12.8188C19.5461 12.9482 19.3925 13.0509 19.2234 13.1209C19.0543 13.191 18.873 13.227 18.69 13.227Z" fill="black"/>
</svg>
