<svg width="24" height="24" viewBox="0 0 24 24" fill="none" xmlns="http://www.w3.org/2000/svg">
<path d="M0 5V19H24V5H0ZM21.6 17.25H2.4V6.75H21.6V17.25ZM6 13.0833C6.24723 13.0833 6.4889 13.01 6.69446 12.8726C6.90002 12.7353 7.06024 12.5401 7.15485 12.3117C7.24946 12.0832 7.27421 11.8319 7.22598 11.5894C7.17775 11.347 7.0587 11.1242 6.88388 10.9494C6.70907 10.7746 6.48634 10.6555 6.24386 10.6073C6.00139 10.5591 5.75005 10.5838 5.52165 10.6785C5.29324 10.7731 5.09801 10.9333 4.96066 11.1388C4.82331 11.3444 4.75 11.5861 4.75 11.8333C4.75 12.1648 4.8817 12.4828 5.11612 12.7172C5.35054 12.9516 5.66848 13.0833 6 13.0833ZM10 13.0833C10.2472 13.0833 10.4889 13.01 10.6945 12.8726C10.9 12.7353 11.0602 12.5401 11.1548 12.3117C11.2495 12.0832 11.2742 11.8319 11.226 11.5894C11.1778 11.347 11.0587 11.1242 10.8839 10.9494C10.7091 10.7746 10.4863 10.6555 10.2439 10.6073C10.0014 10.5591 9.75005 10.5838 9.52165 10.6785C9.29324 10.7731 9.09801 10.9333 8.96066 11.1388C8.82331 11.3444 8.75 11.5861 8.75 11.8333C8.75 12.1648 8.8817 12.4828 9.11612 12.7172C9.35054 12.9516 9.66848 13.0833 10 13.0833ZM14 13.0833C14.2472 13.0833 14.4889 13.01 14.6945 12.8726C14.9 12.7353 15.0602 12.5401 15.1548 12.3117C15.2495 12.0832 15.2742 11.8319 15.226 11.5894C15.1778 11.347 15.0587 11.1242 14.8839 10.9494C14.7091 10.7746 14.4863 10.6555 14.2439 10.6073C14.0014 10.5591 13.7501 10.5838 13.5216 10.6785C13.2932 10.7731 13.098 10.9333 12.9607 11.1388C12.8233 11.3444 12.75 11.5861 12.75 11.8333C12.75 12.1648 12.8817 12.4828 13.1161 12.7172C13.3505 12.9516 13.6685 13.0833 14 13.0833ZM18 13.0833C18.2472 13.0833 18.4889 13.01 18.6945 12.8726C18.9 12.7353 19.0602 12.5401 19.1549 12.3117C19.2495 12.0832 19.2742 11.8319 19.226 11.5894C19.1777 11.347 19.0587 11.1242 18.8839 10.9494C18.7091 10.7746 18.4863 10.6555 18.2439 10.6073C18.0014 10.5591 17.7501 10.5838 17.5216 10.6785C17.2932 10.7731 17.098 10.9333 16.9607 11.1388C16.8233 11.3444 16.75 11.5861 16.75 11.8333C16.75 12.1648 16.8817 12.4828 17.1161 12.7172C17.3505 12.9516 17.6685 13.0833 18 13.0833Z" fill="black"/>
</svg>
