<svg width="24" height="24" viewBox="0 0 24 24" fill="none" xmlns="http://www.w3.org/2000/svg">
<path d="M12.1072 20.8166H11.8928C10.2439 20.814 8.66037 20.1714 7.47601 19.0241C6.29165 17.8769 5.59894 16.3146 5.5439 14.6666H12.6667L13.4167 13.1666H5.5333V10.8332H14.25L15 9.3332H5.5439C5.59897 7.68521 6.29168 6.12297 7.47604 4.97571C8.6604 3.82846 10.2439 3.18581 11.8928 3.1832H12.1072C13.1684 3.18413 14.2124 3.45073 15.1441 3.9587C16.0757 4.46667 16.8654 5.19983 17.441 6.0913L18.7187 5.2399C18.0033 4.13781 17.0237 3.23207 15.869 2.60508C14.7143 1.97809 13.4211 1.64974 12.1072 1.6499H11.8928C9.83674 1.65065 7.86224 2.45419 6.38992 3.88935C4.91761 5.32451 4.06388 7.27783 4.0106 9.3332H2.25L1.5 10.8332H4V13.1665H2.25L1.5 14.6665H4.0106C4.06388 16.7219 4.91761 18.6752 6.38992 20.1104C7.86223 21.5456 9.83673 22.3491 11.8928 22.3499H12.1072C13.4211 22.3501 14.7143 22.0217 15.869 21.3947C17.0237 20.7677 18.0033 19.862 18.7187 18.7599L17.441 17.9081C16.8654 18.7997 16.0758 19.5329 15.1441 20.0409C14.2124 20.549 13.1684 20.8156 12.1072 20.8166Z" fill="black"/>
</svg>
