<svg width="24" height="24" viewBox="0 0 24 24" fill="none" xmlns="http://www.w3.org/2000/svg">
<path d="M12.42 12.5L12.6753 7.5H11.3253L11.5806 12.5H12.42ZM12 14.5354C11.8649 14.5354 11.7328 14.5755 11.6204 14.6505C11.508 14.7256 11.4204 14.8323 11.3687 14.9572C11.317 15.082 11.3035 15.2194 11.3298 15.352C11.3562 15.4845 11.4212 15.6063 11.5168 15.7018C11.6124 15.7974 11.7341 15.8625 11.8666 15.8889C11.9992 15.9152 12.1366 15.9017 12.2614 15.85C12.3863 15.7983 12.493 15.7107 12.5681 15.5984C12.6432 15.486 12.6833 15.3539 12.6833 15.2188C12.6833 15.1291 12.6656 15.0402 12.6313 14.9573C12.597 14.8744 12.5467 14.799 12.4832 14.7356C12.4197 14.6721 12.3444 14.6218 12.2615 14.5874C12.1786 14.5531 12.0897 14.5354 12 14.5354ZM12 0L0 12L12 24L24 12L12 0ZM1.4142 12L12 1.4142L22.5858 12L12 22.5858L1.4142 12Z" fill="black"/>
</svg>
