<svg width="24" height="24" viewBox="0 0 24 24" fill="none" xmlns="http://www.w3.org/2000/svg">
<path d="M12 0L0 12L12 24L24 12L12 0ZM12.675 7.5L12.4197 12.5H11.58L11.3247 7.5H12.675ZM12 15.902C11.8649 15.902 11.7327 15.8619 11.6204 15.7868C11.508 15.7118 11.4204 15.605 11.3687 15.4802C11.317 15.3553 11.3035 15.2179 11.3298 15.0854C11.3562 14.9528 11.4213 14.8311 11.5169 14.7355C11.6124 14.6399 11.7342 14.5749 11.8668 14.5485C11.9993 14.5222 12.1367 14.5357 12.2616 14.5874C12.3864 14.6392 12.4931 14.7268 12.5682 14.8392C12.6433 14.9515 12.6833 15.0837 12.6833 15.2188C12.6833 15.3085 12.6656 15.3974 12.6313 15.4803C12.5969 15.5632 12.5466 15.6385 12.4832 15.7019C12.4197 15.7654 12.3444 15.8157 12.2615 15.85C12.1786 15.8844 12.0897 15.902 12 15.902Z" fill="black"/>
</svg>
