<svg width="24" height="24" viewBox="0 0 24 24" fill="none" xmlns="http://www.w3.org/2000/svg">
<path d="M15.031 4.35398L17.8636 9.25998L16.4521 8.88188L16.1934 9.84768L19.2539 10.6677L20.0739 7.60768L19.1079 7.34888L18.73 8.75998L15.8971 3.85398C15.5021 3.1699 14.9341 2.60184 14.25 2.20688C13.5659 1.81193 12.7899 1.604 12 1.604C11.2101 1.604 10.4341 1.81193 9.75002 2.20688C9.06593 2.60184 8.49786 3.1699 8.1029 3.85398L6.3129 6.95398L7.1789 7.45398L8.9689 4.35398C9.2761 3.82193 9.71793 3.38011 10.25 3.07294C10.782 2.76576 11.3856 2.60405 12 2.60405C12.6143 2.60405 13.2179 2.76576 13.7499 3.07294C14.282 3.38011 14.7238 3.82193 15.031 4.35398ZM22.4766 15.25L20.6866 12.15L19.8206 12.65L21.6106 15.75C21.9178 16.282 22.0795 16.8855 22.0795 17.4999C22.0795 18.1142 21.9179 18.7177 21.6107 19.2498C21.3036 19.7818 20.8618 20.2237 20.3298 20.5309C19.7978 20.8381 19.1943 20.9999 18.58 21H12.9143L13.9475 19.9667L13.2405 19.2596L11 21.5L13.24 23.74L13.9471 23.0329L12.9143 22H18.58C19.3699 21.9999 20.1458 21.7919 20.8298 21.3969C21.5138 21.0019 22.0818 20.4338 22.4767 19.7498C22.8716 19.0657 23.0795 18.2897 23.0795 17.4999C23.0795 16.71 22.8715 15.934 22.4766 15.25ZM2.3894 19.25C2.07869 18.7191 1.91491 18.1151 1.91491 17.5C1.91491 16.8849 2.07869 16.2808 2.3894 15.75L5.222 10.8438L5.6 12.2552L6.5659 11.9965L5.7459 8.93648L2.6859 9.75648L2.9447 10.7224L4.3563 10.3443L1.5234 15.25C1.12845 15.9341 0.920518 16.7101 0.920517 17.5C0.920516 18.2899 1.12844 19.0659 1.5234 19.75C1.91835 20.4341 2.48642 21.0021 3.17051 21.3971C3.85459 21.792 4.63059 22 5.4205 22H9V21H5.42C4.80499 21.0035 4.20011 20.8433 3.66751 20.5357C3.1349 20.2282 2.69376 19.7844 2.3894 19.25ZM10.0194 15.2182V16H13.9217V15.2182H11.1117C11.6856 14.6602 12.7856 13.5792 13.1352 13.2174C13.3617 13.0271 13.5463 12.7919 13.6773 12.5266C13.8083 12.2614 13.8828 11.9719 13.8963 11.6764C13.8927 11.4305 13.8395 11.1879 13.7399 10.963C13.6402 10.7382 13.4962 10.5358 13.3165 10.368C13.1367 10.2002 12.9249 10.0704 12.6938 9.98637C12.4627 9.90238 12.217 9.86592 11.9714 9.87918C11.4967 9.8934 11.041 10.0685 10.6789 10.3757C10.3167 10.6829 10.0697 11.104 9.9783 11.57L10.74 11.7288C10.7959 11.4352 10.9468 11.1681 11.1694 10.9686C11.3919 10.7692 11.6739 10.6483 11.9718 10.6248C12.1189 10.6156 12.2663 10.6367 12.4049 10.6867C12.5435 10.7367 12.6704 10.8146 12.7778 10.9156C12.8851 11.0165 12.9706 11.1384 13.029 11.2738C13.0874 11.4091 13.1174 11.5549 13.1172 11.7023C13.093 11.9144 13.0269 12.1195 12.9228 12.3059C12.8188 12.4923 12.6788 12.6562 12.511 12.7882C12.0137 13.2977 10.02 15.2182 10.02 15.2182H10.0194Z" fill="black"/>
</svg>
