<svg width="24" height="24" viewBox="0 0 24 24" fill="none" xmlns="http://www.w3.org/2000/svg">
<path d="M0 5V19H24V5H0ZM22.5 17.5H1.5V6.5H22.5V17.5ZM6 12.9333C6.21756 12.9333 6.43023 12.8688 6.61113 12.7479C6.79202 12.627 6.93301 12.4553 7.01627 12.2543C7.09952 12.0533 7.12131 11.8321 7.07886 11.6187C7.03642 11.4053 6.93165 11.2093 6.77782 11.0555C6.62398 10.9016 6.42798 10.7969 6.2146 10.7544C6.00122 10.712 5.78005 10.7338 5.57905 10.817C5.37805 10.9003 5.20625 11.0413 5.08538 11.2222C4.96451 11.4031 4.9 11.6157 4.9 11.8333C4.9 12.125 5.01589 12.4048 5.22218 12.6111C5.42847 12.8174 5.70826 12.9333 6 12.9333ZM10 12.9333C10.2176 12.9333 10.4302 12.8688 10.6111 12.7479C10.792 12.627 10.933 12.4553 11.0163 12.2543C11.0995 12.0533 11.1213 11.8321 11.0789 11.6187C11.0364 11.4053 10.9317 11.2093 10.7778 11.0555C10.624 10.9016 10.428 10.7969 10.2146 10.7544C10.0012 10.712 9.78005 10.7338 9.57905 10.817C9.37805 10.9003 9.20625 11.0413 9.08538 11.2222C8.96451 11.4031 8.9 11.6157 8.9 11.8333C8.9 12.125 9.01589 12.4048 9.22218 12.6111C9.42847 12.8174 9.70826 12.9333 10 12.9333ZM14 12.9333C14.2176 12.9333 14.4302 12.8688 14.6111 12.7479C14.792 12.627 14.933 12.4553 15.0163 12.2543C15.0995 12.0533 15.1213 11.8321 15.0789 11.6187C15.0364 11.4053 14.9317 11.2093 14.7778 11.0555C14.624 10.9016 14.428 10.7969 14.2146 10.7544C14.0012 10.712 13.78 10.7338 13.579 10.817C13.378 10.9003 13.2063 11.0413 13.0854 11.2222C12.9645 11.4031 12.9 11.6157 12.9 11.8333C12.9 12.125 13.0159 12.4048 13.2222 12.6111C13.4285 12.8174 13.7083 12.9333 14 12.9333ZM18 12.9333C18.2176 12.9333 18.4302 12.8688 18.6111 12.7479C18.792 12.627 18.933 12.4553 19.0163 12.2543C19.0995 12.0533 19.1213 11.8321 19.0789 11.6187C19.0364 11.4053 18.9317 11.2093 18.7778 11.0555C18.624 10.9016 18.428 10.7969 18.2146 10.7544C18.0012 10.712 17.78 10.7338 17.579 10.817C17.378 10.9003 17.2063 11.0413 17.0854 11.2222C16.9645 11.4031 16.9 11.6157 16.9 11.8333C16.9 12.125 17.0159 12.4048 17.2222 12.6111C17.4285 12.8174 17.7083 12.9333 18 12.9333Z" fill="black"/>
</svg>
