<svg width="24" height="24" viewBox="0 0 24 24" fill="none" xmlns="http://www.w3.org/2000/svg">
<path d="M1 4V20H23V4H1ZM11.4019 11.1964H9.9019V10.9C9.9019 10.7939 9.85976 10.6922 9.78474 10.6172C9.70973 10.5421 9.60799 10.5 9.5019 10.5H8.6136C8.47692 10.5002 8.34589 10.5546 8.24926 10.6512C8.15262 10.7479 8.09826 10.8789 8.0981 11.0156V12.9844C8.09826 13.1211 8.15262 13.2521 8.24926 13.3488C8.34589 13.4454 8.47692 13.4998 8.6136 13.5H9.502C9.60809 13.5 9.70983 13.4579 9.78484 13.3828C9.85986 13.3078 9.902 13.2061 9.902 13.1V12.8036H11.402V13.1C11.402 13.6039 11.2018 14.0872 10.8455 14.4435C10.4892 14.7998 10.0059 15 9.502 15H8.6136C8.07905 15 7.5664 14.7876 7.18842 14.4096C6.81044 14.0316 6.5981 13.519 6.5981 12.9844V11.0156C6.5981 10.481 6.81044 9.96839 7.18842 9.59039C7.5664 9.2124 8.07905 9.00003 8.6136 9H9.502C10.0059 9 10.4892 9.20018 10.8455 9.5565C11.2018 9.91282 11.402 10.3961 11.402 10.9L11.4019 11.1964ZM17.4019 11.1964H15.9019V10.9C15.9019 10.7939 15.8598 10.6922 15.7847 10.6172C15.7097 10.5421 15.608 10.5 15.5019 10.5H14.6135C14.4768 10.5002 14.3458 10.5546 14.2492 10.6512C14.1525 10.7479 14.0982 10.8789 14.098 11.0156V12.9844C14.0982 13.1211 14.1525 13.2521 14.2492 13.3488C14.3458 13.4454 14.4768 13.4998 14.6135 13.5H15.5019C15.608 13.5 15.7097 13.4579 15.7847 13.3828C15.8598 13.3078 15.9019 13.2061 15.9019 13.1V12.8036H17.4019V13.1C17.4019 13.6039 17.2017 14.0872 16.8454 14.4435C16.4891 14.7998 16.0058 15 15.5019 15H14.6135C14.0789 15 13.5663 14.7876 13.1883 14.4096C12.8103 14.0316 12.598 13.519 12.598 12.9844V11.0156C12.598 10.7509 12.6501 10.4888 12.7514 10.2443C12.8527 9.99972 13.0012 9.77752 13.1884 9.59036C13.3755 9.40319 13.5977 9.25472 13.8423 9.15343C14.0868 9.05213 14.3489 9 14.6136 9H15.502C16.0059 9 16.4892 9.20018 16.8455 9.5565C17.2018 9.91282 17.402 10.3961 17.402 10.9L17.4019 11.1964Z" fill="black"/>
</svg>
