<svg width="24" height="24" viewBox="0 0 24 24" fill="none" xmlns="http://www.w3.org/2000/svg">
<path d="M1 4V20H23V4H1ZM11.29 15H10.4566V12.3612H7.6236V15H6.79V9H7.6233V11.6181H10.4566V9H11.29V15ZM17.2689 15.7033L16.4138 14.8481C16.1759 14.9487 15.9201 15.0003 15.6618 15H14.7218C14.2094 14.9999 13.7181 14.7964 13.3558 14.4341C12.9935 14.0717 12.79 13.5804 12.79 13.068V10.9319C12.79 10.6782 12.84 10.4269 12.9371 10.1925C13.0342 9.95812 13.1765 9.74513 13.3559 9.56573C13.5354 9.38634 13.7484 9.24404 13.9828 9.14697C14.2172 9.0499 14.4685 8.99996 14.7222 9H15.6622C15.9159 8.99999 16.1671 9.04995 16.4015 9.14703C16.6359 9.24411 16.8489 9.38641 17.0283 9.56581C17.2077 9.7452 17.35 9.95818 17.4471 10.1926C17.5442 10.427 17.5942 10.6782 17.5942 10.9319V13.068C17.5934 13.5563 17.4066 14.026 17.0718 14.3815L17.8318 15.1415L17.2689 15.7033ZM15.6618 9.8333H14.7218C14.4306 9.8337 14.1514 9.94957 13.9454 10.1555C13.7395 10.3615 13.6237 10.6407 13.6233 10.9319V13.068C13.6237 13.3592 13.7395 13.6384 13.9454 13.8444C14.1514 14.0503 14.4306 14.1662 14.7218 14.1666H15.6618C15.9531 14.1662 16.2323 14.0504 16.4382 13.8444C16.6442 13.6385 16.76 13.3593 16.7604 13.068V10.9319C16.76 10.6407 16.6442 10.3615 16.4383 10.1556C16.2324 9.94965 15.9533 9.83375 15.6621 9.8333H15.6618Z" fill="black"/>
</svg>
