<svg width="24" height="24" viewBox="0 0 24 24" fill="none" xmlns="http://www.w3.org/2000/svg">
<path d="M7.0357 13.1705H8.5169C8.99509 13.1705 9.45369 12.9805 9.79181 12.6424C10.1299 12.3043 10.3199 11.8457 10.3199 11.3675V10.803C10.3199 10.3248 10.1299 9.86621 9.79181 9.52809C9.45369 9.18996 8.99509 9 8.5169 9H5.5357V15H7.0357V13.1705ZM7.0357 10.5H8.5169C8.59724 10.5001 8.67426 10.532 8.73107 10.5888C8.78787 10.6456 8.81982 10.7227 8.8199 10.803V11.3675C8.81979 11.4478 8.78784 11.5248 8.73104 11.5816C8.67424 11.6384 8.59723 11.6704 8.5169 11.6705H7.0357V10.5ZM12.5739 9H11.0739V15H12.5739V9ZM15.45 11.7764L17.4827 15H18.7344V9H17.2344V12.2353L15.1886 9H13.95V15H15.45V11.7764ZM1 4V20H23V4H1ZM21 18H3V6H21V18Z" fill="black"/>
</svg>
