<svg width="24" height="24" viewBox="0 0 24 24" fill="none" xmlns="http://www.w3.org/2000/svg">
<path d="M7.5 3.40283H13.1979C13.8523 3.3999 14.5008 3.52625 15.1062 3.77464C15.7116 4.02303 16.262 4.38855 16.7258 4.85024C17.1895 5.31192 17.5575 5.86066 17.8086 6.46496C18.0597 7.06925 18.189 7.71719 18.189 8.37158C18.189 9.02597 18.0597 9.67391 17.8086 10.2782C17.5575 10.8825 17.1895 11.4312 16.7258 11.8929C16.262 12.3546 15.7116 12.7201 15.1062 12.9685C14.5008 13.2169 13.8523 13.3433 13.1979 13.3403H7.5V3.40283ZM13.1979 2.40283H6.5V13.34H4V14.34H6.5V16.6664H4V17.6664H6.5V22.4024H7.5V17.6664H14V16.6664H7.5V14.34H13.1979C14.7765 14.3258 16.2864 13.6923 17.4027 12.576C18.519 11.4597 19.1524 9.94984 19.1667 8.37123C19.1477 6.79416 18.5127 5.28706 17.3974 4.17186C16.2821 3.05665 14.775 2.42177 13.1979 2.40283Z" fill="black"/>
</svg>
