<svg width="24" height="24" viewBox="0 0 24 24" fill="none" xmlns="http://www.w3.org/2000/svg">
<path d="M19 21H5V3H16V2H4V22H20V8H19V21ZM14.8561 16V8.3H9.0922V9.2H13.9561V12.4543C13.7415 11.8499 13.3203 11.3408 12.7668 11.0168C12.2133 10.6929 11.5632 10.5749 10.9311 10.6838C10.2991 10.7926 9.72588 11.1213 9.31267 11.6118C8.89946 12.1023 8.67284 12.723 8.67284 13.3643C8.67284 14.0056 8.89946 14.6263 9.31267 15.1168C9.72588 15.6073 10.2991 15.936 10.9311 16.0448C11.5632 16.1537 12.2133 16.0357 12.7668 15.7118C13.3203 15.3878 13.7415 14.8787 13.9561 14.2743V16H14.8561ZM11.3761 15.2014C11.014 15.1958 10.6616 15.0833 10.3633 14.878C10.0649 14.6727 9.83386 14.3839 9.69918 14.0477C9.56449 13.7115 9.53217 13.343 9.60627 12.9885C9.68037 12.634 9.85758 12.3093 10.1156 12.0553C10.3737 11.8012 10.7011 11.629 11.0567 11.5605C11.4123 11.4919 11.7803 11.5299 12.1143 11.6698C12.4483 11.8097 12.7336 12.0452 12.9342 12.3467C13.1348 12.6483 13.2418 13.0023 13.2418 13.3645C13.2374 13.8552 13.0386 14.3242 12.6889 14.6686C12.3392 15.0129 11.8673 15.2045 11.3765 15.2014H11.3761ZM21.9712 2.6564L20.5 4.1276V1H19.5V4.1276L18.0288 2.6564L17.3218 3.3634L20 6.0416L22.6782 3.3634L21.9712 2.6564Z" fill="black"/>
</svg>
