<svg width="24" height="24" viewBox="0 0 24 24" fill="none" xmlns="http://www.w3.org/2000/svg">
<path d="M8.5718 15H9.5678C10.0542 15 10.5208 14.8067 10.8647 14.4627C11.2087 14.1188 11.4019 13.6522 11.4019 13.1658V12.9683H10.2352V13.1658C10.235 13.3428 10.1647 13.5124 10.0396 13.6376C9.91443 13.7627 9.74477 13.8331 9.5678 13.8333H8.5718C8.35783 13.8331 8.15269 13.7479 8.00139 13.5966C7.8501 13.4453 7.76501 13.2402 7.7648 13.0262V10.9738C7.76501 10.7598 7.8501 10.5547 8.00139 10.4033C8.15268 10.252 8.35782 10.1669 8.5718 10.1666H9.5678C9.74476 10.1668 9.9144 10.2372 10.0395 10.3623C10.1646 10.4875 10.235 10.6571 10.2352 10.8341V11.0317H11.4019V10.8341C11.4019 10.3477 11.2087 9.88116 10.8647 9.5372C10.5207 9.19323 10.0542 9 9.5678 9H8.5718C8.04833 9.00003 7.54632 9.20799 7.17618 9.57815C6.80604 9.9483 6.5981 10.4503 6.5981 10.9738V13.0262C6.5981 13.5497 6.80604 14.0517 7.17618 14.4219C7.54632 14.792 8.04833 15 8.5718 15ZM14.5718 15H15.5678C16.0542 15 16.5208 14.8067 16.8647 14.4627C17.2087 14.1188 17.4019 13.6522 17.4019 13.1658V12.9683H16.2352V13.1658C16.235 13.3428 16.1647 13.5124 16.0396 13.6376C15.9144 13.7627 15.7448 13.8331 15.5678 13.8333H14.5718C14.3578 13.8331 14.1527 13.7479 14.0014 13.5966C13.8501 13.4453 13.765 13.2402 13.7648 13.0262V10.9738C13.765 10.7598 13.8501 10.5547 14.0014 10.4033C14.1527 10.252 14.3578 10.1669 14.5718 10.1666H15.5678C15.7448 10.1668 15.9144 10.2372 16.0395 10.3623C16.1646 10.4875 16.235 10.6571 16.2352 10.8341V11.0317H17.4019V10.8341C17.4019 10.3477 17.2087 9.88116 16.8647 9.5372C16.5207 9.19323 16.0542 9 15.5678 9H14.5718C14.0483 9.00003 13.5463 9.20799 13.1762 9.57815C12.806 9.9483 12.5981 10.4503 12.5981 10.9738V13.0262C12.5981 13.5497 12.806 14.0517 13.1762 14.4219C13.5463 14.792 14.0483 15 14.5718 15ZM1 4V20H23V4H1ZM21.5 18.5H2.5V5.5H21.5V18.5Z" fill="black"/>
</svg>
