<svg width="24" height="24" viewBox="0 0 24 24" fill="none" xmlns="http://www.w3.org/2000/svg">
<path d="M12 2C10.0222 2 8.08879 2.58649 6.4443 3.6853C4.79981 4.78412 3.51809 6.3459 2.76121 8.17317C2.00433 10.0004 1.8063 12.0111 2.19215 13.9509C2.578 15.8907 3.53041 17.6725 4.92894 19.0711C6.32746 20.4696 8.10929 21.422 10.0491 21.8079C11.9889 22.1937 13.9996 21.9957 15.8268 21.2388C17.6541 20.4819 19.2159 19.2002 20.3147 17.5557C21.4135 15.9112 22 13.9778 22 12C22 10.6868 21.7413 9.38642 21.2388 8.17317C20.7363 6.95991 19.9997 5.85752 19.0711 4.92893C18.1425 4.00035 17.0401 3.26375 15.8268 2.7612C14.6136 2.25866 13.3132 2 12 2ZM12.49 6.85C12.579 6.85 12.666 6.87639 12.74 6.92584C12.814 6.97529 12.8717 7.04557 12.9058 7.12779C12.9398 7.21002 12.9487 7.3005 12.9314 7.38779C12.914 7.47508 12.8711 7.55526 12.8082 7.6182C12.7453 7.68113 12.6651 7.72399 12.5778 7.74135C12.4905 7.75872 12.4 7.74981 12.3178 7.71575C12.2356 7.68169 12.1653 7.62401 12.1158 7.55001C12.0664 7.476 12.04 7.389 12.04 7.3C12.04 7.18065 12.0874 7.06619 12.1718 6.9818C12.2562 6.89741 12.3707 6.85 12.49 6.85ZM12.1526 17.1748C12.0784 17.1902 12.0029 17.1981 11.9271 17.1982C11.7634 17.1979 11.602 17.1606 11.4548 17.089C11.3076 17.0175 11.1785 16.9136 11.0771 16.7851C10.9758 16.6566 10.9048 16.5069 10.8695 16.3471C10.8342 16.1872 10.8355 16.0215 10.8733 15.8623L11.9 11.55C11.9232 11.4538 11.9215 11.3533 11.895 11.2579C11.8685 11.1625 11.8181 11.0755 11.7486 11.0051C11.6789 10.9348 11.5927 10.8831 11.4978 10.8548C11.403 10.8265 11.3025 10.8224 11.2057 10.843L9.332 11.252L9.2246 10.7637L11.0996 10.3545C11.2788 10.3153 11.4651 10.3223 11.6409 10.3747C11.8167 10.427 11.9764 10.5232 12.105 10.654C12.2335 10.7849 12.3268 10.9462 12.3761 11.1229C12.4254 11.2997 12.429 11.486 12.3867 11.6645L11.3594 15.977C11.3357 16.0728 11.3371 16.173 11.3633 16.2681C11.3896 16.3632 11.4399 16.45 11.5094 16.52C11.5767 16.5925 11.6621 16.6459 11.7568 16.6748C11.8514 16.7036 11.9521 16.7068 12.0484 16.6841L13.9384 16.2876L14.0419 16.7776L12.1526 17.1748Z" fill="black"/>
</svg>
