<svg width="24" height="24" viewBox="0 0 24 24" fill="none" xmlns="http://www.w3.org/2000/svg">
<g clip-path="url(#clip0)">
<path d="M22.4766 15.25L20.6866 12.15L19.8206 12.65L21.6106 15.75C21.9178 16.282 22.0795 16.8855 22.0795 17.4999C22.0795 18.1142 21.9179 18.7177 21.6107 19.2498C21.3036 19.7818 20.8618 20.2237 20.3298 20.5309C19.7978 20.8381 19.1943 20.9999 18.58 21H12.9143L14.5394 19.3747L13.8324 18.6676L11 21.5L13.8323 24.3323L14.5394 23.6252L12.9143 22H18.58C19.3699 21.9999 20.1458 21.7919 20.8298 21.3969C21.5138 21.0019 22.0818 20.4338 22.4767 19.7498C22.8716 19.0657 23.0795 18.2897 23.0795 17.4999C23.0795 16.71 22.8715 15.934 22.4766 15.25ZM2.3894 19.25C2.07868 18.7191 1.91491 18.1151 1.91491 17.5C1.91491 16.8849 2.07868 16.2808 2.3894 15.75L5.222 10.8438L5.817 13.0638L6.783 12.8051L5.7461 8.93598L1.8772 9.97258L2.136 10.9386L4.356 10.3438L1.5234 15.25C1.12844 15.9341 0.920514 16.7101 0.920513 17.5C0.920513 18.2899 1.12844 19.0659 1.5234 19.75C1.91835 20.4341 2.48642 21.0021 3.1705 21.3971C3.85459 21.792 4.63059 22 5.4205 22H9V21H5.42C4.80498 21.0035 4.20011 20.8433 3.6675 20.5357C3.1349 20.2282 2.69376 19.7844 2.3894 19.25ZM15.031 4.35398L17.8636 9.25998L15.6436 8.66518L15.3848 9.63108L19.2539 10.6678L20.2905 6.79878L19.3247 6.53998L18.73 8.75998L15.8971 3.85398C15.5021 3.1699 14.9341 2.60184 14.25 2.20688C13.5659 1.81193 12.7899 1.604 12 1.604C11.2101 1.604 10.4341 1.81193 9.75001 2.20688C9.06593 2.60184 8.49786 3.1699 8.1029 3.85398L6.3129 6.95398L7.1789 7.45398L8.9689 4.35398C9.27609 3.82193 9.71792 3.38011 10.25 3.07294C10.782 2.76576 11.3856 2.60405 11.9999 2.60405C12.6143 2.60405 13.2179 2.76576 13.7499 3.07294C14.282 3.38011 14.7238 3.82193 15.031 4.35398Z" fill="black"/>
</g>
<defs>
<clipPath id="clip0">
<rect width="24" height="24" fill="white"/>
</clipPath>
</defs>
</svg>
