<svg width="24" height="24" viewBox="0 0 24 24" fill="none" xmlns="http://www.w3.org/2000/svg">
<path d="M1 4V20H23V4H1ZM11.29 15H10.79V12.24H7.29V15H6.79V9H7.29V11.74H10.79V9H11.29V15ZM17.4271 15.6314L16.574 14.7783C16.3063 14.9218 16.0077 14.9979 15.704 15H14.68C14.4318 15 14.186 14.9511 13.9567 14.8561C13.7274 14.7612 13.5191 14.6219 13.3436 14.4464C13.1681 14.2709 13.0288 14.0626 12.9339 13.8333C12.8389 13.604 12.79 13.3582 12.79 13.11V10.89C12.79 10.6418 12.8389 10.396 12.9339 10.1667C13.0288 9.93742 13.1681 9.72907 13.3436 9.55357C13.5191 9.37807 13.7274 9.23885 13.9567 9.14387C14.186 9.04889 14.4318 9 14.68 9H15.7035C16.2048 9 16.6855 9.19912 17.0399 9.55357C17.3944 9.90801 17.5935 10.3887 17.5935 10.89V13.11C17.5935 13.3617 17.5431 13.6109 17.4452 13.8427C17.3473 14.0746 17.2039 14.2845 17.0235 14.46L17.8109 15.2474L17.4271 15.6314ZM17.0941 10.89C17.0937 10.5215 16.9471 10.1682 16.6865 9.90762C16.4259 9.64704 16.0726 9.50045 15.7041 9.5H14.68C14.3115 9.50045 13.9582 9.64704 13.6976 9.90762C13.437 10.1682 13.2905 10.5215 13.29 10.89V13.11C13.2905 13.4785 13.4371 13.8318 13.6976 14.0924C13.9582 14.3529 14.3115 14.4995 14.68 14.5H15.7035C16.072 14.4995 16.4253 14.3529 16.6859 14.0924C16.9464 13.8318 17.093 13.4785 17.0935 13.11L17.0941 10.89Z" fill="black"/>
</svg>
