<svg width="24" height="24" viewBox="0 0 24 24" fill="none" xmlns="http://www.w3.org/2000/svg">
<path d="M12.8959 9H11.7292V15H12.8959V9ZM15.7694 12.7282H18.3256V11.7419H15.7694V10.0833H18.6056V9H14.6028V15H15.7694V12.7282ZM7.5765 15H8.5725C9.05894 15 9.52545 14.8067 9.86941 14.4627C10.2134 14.1188 10.4066 13.6522 10.4066 13.1658V11.7258H8.1149V12.65H9.24V13.1659C9.23981 13.3429 9.16943 13.5125 9.04429 13.6377C8.91915 13.7628 8.74948 13.8332 8.5725 13.8334H7.5765C7.36253 13.8332 7.15739 13.748 7.00609 13.5967C6.8548 13.4454 6.76971 13.2403 6.7695 13.0263V10.9738C6.76971 10.7598 6.8548 10.5547 7.00609 10.4033C7.15738 10.252 7.36252 10.1669 7.5765 10.1666H8.5725C8.74947 10.1668 8.91913 10.2372 9.04426 10.3623C9.16939 10.4875 9.23979 10.6571 9.24 10.8341V10.8616H10.4066V10.8341C10.4066 10.3477 10.2134 9.88116 9.8694 9.5372C9.52544 9.19323 9.05893 9 8.5725 9H7.5765C7.05303 9.00003 6.55101 9.20799 6.18088 9.57815C5.81074 9.9483 5.6028 10.4503 5.6028 10.9738V13.0262C5.6028 13.5497 5.81074 14.0517 6.18088 14.4219C6.55101 14.792 7.05303 15 7.5765 15ZM1 4V20H23V4H1ZM21.5 18.5H2.5V5.5H21.5V18.5Z" fill="black"/>
</svg>
