<svg width="24" height="24" viewBox="0 0 24 24" fill="none" xmlns="http://www.w3.org/2000/svg">
<path d="M22.4766 15.25L20.6177 12.03L19.3186 12.78L21.1775 16C21.4408 16.456 21.5794 16.9734 21.5794 17.5C21.5794 18.0266 21.4408 18.5439 21.1775 18.9999C20.9142 19.456 20.5355 19.8347 20.0795 20.098C19.6234 20.3613 19.1061 20.5 18.5795 20.5H13.7031V18.5469L11 21.25L13.7031 23.9531V22H18.58C19.3699 21.9999 20.1458 21.7919 20.8298 21.3969C21.5138 21.0019 22.0818 20.4338 22.4767 19.7498C22.8716 19.0657 23.0795 18.2897 23.0795 17.4999C23.0795 16.71 22.8715 15.934 22.4766 15.25ZM2.8225 19C2.55616 18.545 2.41578 18.0272 2.41578 17.5C2.41578 16.9727 2.55616 16.455 2.8225 16L5.33 11.6572L6.8139 12.514L5.8245 8.82148L2.1318 9.81088L4.0308 10.9072L1.5234 15.25C1.12844 15.9341 0.920514 16.7101 0.920513 17.5C0.920513 18.2899 1.12844 19.0659 1.5234 19.75C1.91835 20.4341 2.48642 21.0021 3.1705 21.3971C3.85459 21.792 4.63059 22 5.4205 22H9V20.5H5.42C4.89286 20.503 4.3744 20.3657 3.9179 20.1021C3.46141 19.8385 3.08332 19.4581 2.8225 19ZM14.598 4.60398L16.967 8.70728L15.4832 9.56408L19.1755 10.5535L20.165 6.86098L18.2661 7.95728L15.8971 3.85398C15.5021 3.1699 14.9341 2.60184 14.25 2.20688C13.5659 1.81193 12.7899 1.604 12 1.604C11.2101 1.604 10.4341 1.81193 9.75001 2.20688C9.06593 2.60184 8.49786 3.1699 8.1029 3.85398L6.3823 6.83398L7.6814 7.58398L9.402 4.60398C9.66531 4.14796 10.044 3.76928 10.5001 3.506C10.9561 3.24272 11.4734 3.10411 12 3.10411C12.5266 3.10411 13.0439 3.24272 13.4999 3.506C13.956 3.76928 14.3347 4.14796 14.598 4.60398Z" fill="black"/>
</svg>
