<svg width="24" height="24" viewBox="0 0 24 24" fill="none" xmlns="http://www.w3.org/2000/svg">
<path d="M7.75 3.70127H13.099C14.2847 3.70687 15.4198 4.1818 16.2563 5.02217C17.0927 5.86254 17.5622 6.99995 17.5622 8.18562C17.5622 9.37129 17.0927 10.5087 16.2563 11.3491C15.4198 12.1894 14.2847 12.6644 13.099 12.67H7.75V3.70127ZM13.099 2.20127H6.25V12.6699H4V14.1699H6.25V16.3331H4V17.8331H6.25V22.2012H7.75V17.8332H14V16.3332H7.75V14.1699H13.099C14.6819 14.1634 16.1978 13.5301 17.3148 12.4085C18.4318 11.2869 19.0589 9.76845 19.0589 8.18552C19.0589 6.6026 18.4318 5.08415 17.3148 3.96257C16.1978 2.84099 14.6819 2.20764 13.099 2.20117V2.20127Z" fill="black"/>
</svg>
