<svg width="24" height="24" viewBox="0 0 24 24" fill="none" xmlns="http://www.w3.org/2000/svg">
<path d="M21.1716 9.85812C20.4215 9.10806 20.0001 8.09078 20 7.03002V4.00002H16.97C15.9092 4.00001 14.8918 3.57857 14.1416 2.82842L12 0.686523L9.85812 2.82842C9.10806 3.5785 8.09078 3.99993 7.03002 4.00002H4.00002V7.03002C3.99993 8.09078 3.5785 9.10806 2.82842 9.85812L0.686523 12L2.82842 14.1419C3.5785 14.892 3.99993 15.9093 4.00002 16.97V20H7.03002C8.09088 20 9.10829 20.4215 9.85842 21.1716L12 23.3135L14.1419 21.1716C14.892 20.4215 15.9093 20.0001 16.97 20H20V16.97C20 15.9092 20.4215 14.8918 21.1716 14.1416L23.3135 12L21.1716 9.85812ZM20.4645 13.4348C19.9988 13.898 19.6296 14.4489 19.3782 15.0557C19.1268 15.6626 18.9983 16.3132 19 16.97V19H16.97C16.3132 18.9982 15.6624 19.1267 15.0556 19.3781C14.4487 19.6295 13.8977 19.9988 13.4345 20.4645L12 21.8992L10.5652 20.4645C10.1021 19.9988 9.55112 19.6296 8.94431 19.3782C8.33749 19.1268 7.68684 18.9983 7.03002 19H5.00002V16.97C5.00181 16.3132 4.8733 15.6624 4.62191 15.0556C4.37053 14.4487 4.00128 13.8977 3.53552 13.4345L2.10082 12L3.53552 10.5652C4.00124 10.1021 4.37048 9.55112 4.62186 8.94431C4.87324 8.33749 5.00177 7.68684 5.00002 7.03002V5.00002H7.03002C7.6869 5.00181 8.3376 4.8733 8.94447 4.62191C9.55134 4.37053 10.1023 4.00128 10.5655 3.53552L12 2.10072L13.4348 3.53552C13.898 4.00124 14.4489 4.37048 15.0557 4.62186C15.6626 4.87324 16.3132 5.00177 16.97 5.00002H19V7.03002C18.9982 7.6869 19.1267 8.3376 19.3781 8.94447C19.6295 9.55134 19.9988 10.1023 20.4645 10.5655L21.8992 12L20.4645 13.4348ZM12.42 12.5L12.6753 7.50002H11.3253L11.5806 12.5H12.42ZM12 14.5354C11.8649 14.5354 11.7328 14.5755 11.6204 14.6506C11.508 14.7257 11.4205 14.8324 11.3687 14.9572C11.317 15.0821 11.3035 15.2194 11.3298 15.352C11.3562 15.4845 11.4213 15.6063 11.5168 15.7019C11.6124 15.7974 11.7341 15.8625 11.8667 15.8889C11.9992 15.9153 12.1366 15.9017 12.2614 15.85C12.3863 15.7983 12.493 15.7108 12.5681 15.5984C12.6432 15.4861 12.6833 15.354 12.6833 15.2188C12.6833 15.1291 12.6657 15.0402 12.6313 14.9573C12.597 14.8744 12.5467 14.7991 12.4832 14.7356C12.4198 14.6721 12.3444 14.6218 12.2615 14.5874C12.1786 14.5531 12.0898 14.5354 12 14.5354Z" fill="black"/>
</svg>
