<svg width="24" height="24" viewBox="0 0 24 24" fill="none" xmlns="http://www.w3.org/2000/svg">
<path d="M12 2C10.0222 2 8.08879 2.58649 6.4443 3.6853C4.79981 4.78412 3.51809 6.3459 2.76121 8.17317C2.00433 10.0004 1.8063 12.0111 2.19215 13.9509C2.578 15.8907 3.53041 17.6725 4.92894 19.0711C6.32746 20.4696 8.10929 21.422 10.0491 21.8079C11.9889 22.1937 13.9996 21.9957 15.8268 21.2388C17.6541 20.4819 19.2159 19.2002 20.3147 17.5557C21.4135 15.9112 22 13.9778 22 12C22 10.6868 21.7413 9.38642 21.2388 8.17317C20.7363 6.95991 19.9997 5.85752 19.0711 4.92893C18.1425 4.00035 17.0401 3.26375 15.8268 2.7612C14.6136 2.25866 13.3132 2 12 2ZM12.49 6.85C12.6252 6.84998 12.7574 6.89005 12.8698 6.96515C12.9822 7.04025 13.0698 7.14699 13.1216 7.27189C13.1733 7.39679 13.1868 7.53422 13.1605 7.66682C13.1341 7.79942 13.069 7.92121 12.9734 8.01681C12.8778 8.1124 12.756 8.1775 12.6234 8.20387C12.4908 8.23024 12.3534 8.2167 12.2285 8.16495C12.1036 8.11321 11.9969 8.02559 11.9218 7.91317C11.8467 7.80075 11.8066 7.66859 11.8066 7.5334C11.8066 7.35216 11.8786 7.17835 12.0068 7.05019C12.135 6.92204 12.3088 6.85003 12.49 6.85ZM12.2786 17.1484C12.1883 17.167 12.0964 17.1765 12.0042 17.1768C11.8053 17.1763 11.609 17.1309 11.4301 17.0438C11.2512 16.9567 11.0944 16.8302 10.9713 16.6739C10.8482 16.5176 10.7621 16.3354 10.7195 16.1411C10.6768 15.9468 10.6787 15.7453 10.7249 15.5518L11.6282 11.7598C11.6438 11.6964 11.6429 11.6299 11.6253 11.567C11.6078 11.504 11.5744 11.4467 11.5282 11.4004C11.4824 11.3539 11.4257 11.3198 11.3632 11.3012C11.3007 11.2826 11.2345 11.2801 11.1708 11.2939L9.4179 11.6768L9.2187 10.7646L10.9716 10.3818C11.1897 10.3345 11.4161 10.3432 11.6299 10.4071C11.8437 10.471 12.0378 10.5881 12.194 10.7474C12.3503 10.9067 12.4636 11.103 12.5234 11.3179C12.5832 11.5329 12.5875 11.7595 12.536 11.9766L11.6327 15.7686C11.617 15.8317 11.6178 15.8978 11.6349 15.9605C11.652 16.0233 11.6849 16.0806 11.7304 16.127C11.7752 16.1745 11.8317 16.2094 11.8943 16.2283C11.9568 16.2471 12.0232 16.2492 12.0868 16.2344L13.8534 15.8633L14.0448 16.7773L12.2786 17.1484Z" fill="black"/>
</svg>
