<svg width="24" height="24" viewBox="0 0 24 24" fill="none" xmlns="http://www.w3.org/2000/svg">
<path d="M16.1416 2H7.8584L2 7.8579V16.1416L7.8584 22H16.1416L22 16.1416V7.8579L16.1416 2ZM12.675 7L12.42 13.5H11.58L11.325 7H12.675ZM12 16.902C11.8649 16.902 11.7327 16.8619 11.6204 16.7868C11.508 16.7118 11.4204 16.605 11.3687 16.4802C11.317 16.3553 11.3035 16.2179 11.3298 16.0854C11.3562 15.9528 11.4213 15.8311 11.5169 15.7355C11.6124 15.6399 11.7342 15.5749 11.8668 15.5485C11.9993 15.5222 12.1367 15.5357 12.2616 15.5874C12.3864 15.6392 12.4931 15.7268 12.5682 15.8392C12.6433 15.9515 12.6833 16.0837 12.6833 16.2188C12.6833 16.3085 12.6656 16.3974 12.6313 16.4803C12.5969 16.5632 12.5466 16.6385 12.4832 16.7019C12.4197 16.7654 12.3444 16.8157 12.2615 16.85C12.1786 16.8844 12.0897 16.902 12 16.902Z" fill="black"/>
</svg>
