<svg width="24" height="24" viewBox="0 0 24 24" fill="none" xmlns="http://www.w3.org/2000/svg">
<path d="M19.4 11.1335V10.6221C19.3997 10.413 19.3165 10.2125 19.1686 10.0647C19.0208 9.91682 18.8203 9.83362 18.6112 9.8333H16.6236V11.9223H18.611C18.8201 11.922 19.0206 11.8389 19.1685 11.691C19.3164 11.5431 19.3997 11.3426 19.4 11.1335ZM6.462 9.8333H4.6236V14.1666H6.462C6.80633 14.1663 7.13646 14.0293 7.37994 13.7858C7.62342 13.5424 7.76036 13.2122 7.7607 12.8679V11.132C7.76036 10.7877 7.62342 10.4575 7.37994 10.2141C7.13646 9.97058 6.80633 9.83364 6.462 9.8333ZM1 4V20H23V4H1ZM8.5941 12.8679C8.5941 13.1479 8.53895 13.4251 8.4318 13.6838C8.32466 13.9425 8.16761 14.1775 7.96962 14.3755C7.77164 14.5735 7.5366 14.7306 7.27792 14.8377C7.01924 14.9449 6.74199 15 6.462 15H3.79V9H6.462C6.74199 8.99999 7.01923 9.05512 7.27791 9.16226C7.53659 9.2694 7.77163 9.42644 7.96962 9.62441C8.1676 9.82239 8.32465 10.0574 8.4318 10.3161C8.53895 10.5748 8.5941 10.852 8.5941 11.132V12.8679ZM12.4459 15H11.5546L9.3317 9H10.2229L12 13.7971L13.7771 9H14.6683L12.4459 15ZM19.4673 15L18.0416 12.7556H16.6236V15H15.79V9H18.611C18.824 8.99999 19.035 9.04193 19.2318 9.12345C19.4286 9.20496 19.6074 9.32444 19.7581 9.47507C19.9087 9.62569 20.0282 9.80452 20.1097 10.0013C20.1912 10.1981 20.2332 10.4091 20.2332 10.6221V11.1335C20.233 11.5088 20.1026 11.8724 19.8643 12.1623C19.626 12.4523 19.2946 12.6506 18.9264 12.7235L20.3724 15H19.4673Z" fill="black"/>
</svg>
