<svg width="24" height="24" viewBox="0 0 24 24" fill="none" xmlns="http://www.w3.org/2000/svg">
<path d="M12 1L0.453003 21H23.547L12 1ZM13.2188 9L12.7578 13.5H11.2422L10.7812 9H13.2188ZM12 17.15C11.7726 17.15 11.5502 17.0826 11.3611 16.9562C11.172 16.8298 11.0246 16.6502 10.9375 16.4401C10.8505 16.23 10.8277 15.9987 10.8721 15.7756C10.9165 15.5526 11.026 15.3477 11.1868 15.1868C11.3477 15.026 11.5526 14.9165 11.7756 14.8721C11.9987 14.8277 12.23 14.8505 12.4401 14.9375C12.6502 15.0246 12.8298 15.172 12.9562 15.3611C13.0826 15.5502 13.15 15.7726 13.15 16C13.15 16.305 13.0288 16.5975 12.8132 16.8132C12.5975 17.0288 12.305 17.15 12 17.15Z" fill="black"/>
</svg>
