<svg width="24" height="24" viewBox="0 0 24 24" fill="none" xmlns="http://www.w3.org/2000/svg">
<path d="M12 2C10.0222 2 8.08879 2.58649 6.4443 3.6853C4.79981 4.78412 3.51809 6.3459 2.76121 8.17317C2.00433 10.0004 1.8063 12.0111 2.19215 13.9509C2.578 15.8907 3.53041 17.6725 4.92894 19.0711C6.32746 20.4696 8.10929 21.422 10.0491 21.8079C11.9889 22.1937 13.9996 21.9957 15.8268 21.2388C17.6541 20.4819 19.2159 19.2002 20.3147 17.5557C21.4135 15.9112 22 13.9778 22 12C22 10.6868 21.7413 9.38642 21.2388 8.17317C20.7363 6.95991 19.9997 5.85752 19.0711 4.92893C18.1425 4.00035 17.0401 3.26375 15.8268 2.7612C14.6136 2.25866 13.3132 2 12 2ZM12 20.5C10.3189 20.5 8.67548 20.0015 7.27766 19.0675C5.87984 18.1335 4.79037 16.806 4.14703 15.2528C3.50368 13.6996 3.33536 11.9906 3.66333 10.3417C3.9913 8.69289 4.80085 7.17834 5.9896 5.98959C7.17834 4.80085 8.6929 3.9913 10.3417 3.66333C11.9906 3.33535 13.6996 3.50368 15.2528 4.14702C16.806 4.79037 18.1335 5.87984 19.0675 7.27765C20.0015 8.67547 20.5 10.3189 20.5 12C20.4974 14.2535 19.601 16.414 18.0075 18.0075C16.414 19.601 14.2535 20.4974 12 20.5ZM11.8794 15.1927C11.6981 15.1927 11.5209 15.2465 11.3701 15.3472C11.2194 15.4479 11.1019 15.5911 11.0325 15.7586C10.9631 15.9261 10.9449 16.1104 10.9803 16.2882C11.0157 16.4661 11.103 16.6294 11.2312 16.7576C11.3594 16.8858 11.5227 16.9731 11.7006 17.0085C11.8784 17.0439 12.0627 17.0257 12.2302 16.9563C12.3977 16.8869 12.5409 16.7694 12.6416 16.6187C12.7423 16.4679 12.7961 16.2907 12.7961 16.1094C12.7961 15.8663 12.6995 15.6331 12.5276 15.4612C12.3557 15.2893 12.1225 15.1927 11.8794 15.1927ZM12.1394 6.9746C10.575 6.9746 8.9959 8.0586 8.9959 10.4805H10.43C10.43 8.6105 11.6253 8.4082 12.14 8.4082C12.5421 8.37612 12.9409 8.50164 13.2522 8.75822C13.5635 9.01481 13.7628 9.38236 13.808 9.7832C13.808 10.4502 13.5209 10.6738 12.8725 11.1172C12.3487 11.3905 11.9116 11.8046 11.6103 12.3129C11.3091 12.8211 11.1557 13.4034 11.1674 13.9941H12.601C12.601 13.0381 13.031 12.7441 13.6801 12.3008C14.1458 12.0642 14.5377 11.7043 14.813 11.2604C15.0883 10.8165 15.2366 10.3055 15.2416 9.7832C15.1998 9.00052 14.8504 8.26608 14.2694 7.73998C13.6884 7.21387 12.923 6.93876 12.14 6.9746H12.1394Z" fill="black"/>
</svg>
