<svg width="24" height="24" viewBox="0 0 24 24" fill="none" xmlns="http://www.w3.org/2000/svg">
<path d="M2.82249 19C2.55615 18.545 2.41577 18.0272 2.41577 17.5C2.41577 16.9727 2.55615 16.455 2.82249 16L5.26069 11.777L6.47309 12.477L5.68629 9.53998L2.74899 10.327L3.96149 11.027L1.52339 15.25C1.12843 15.9341 0.920502 16.7101 0.920502 17.5C0.920501 18.2899 1.12843 19.0659 1.52338 19.75C1.91834 20.4341 2.48641 21.0021 3.17049 21.3971C3.85458 21.792 4.63057 22 5.42049 22H9.99999V20.5H5.42049C4.89326 20.5031 4.3747 20.3659 3.91811 20.1022C3.46151 19.8386 3.08335 19.4582 2.82249 19ZM9.40199 4.60398C9.6653 4.14796 10.044 3.76928 10.5001 3.506C10.9561 3.24272 11.4734 3.10411 12 3.10411C12.5266 3.10411 13.0439 3.24272 13.4999 3.506C13.956 3.76928 14.3347 4.14796 14.598 4.60398L17.0363 8.82698L15.8237 9.52698L18.7609 10.314L19.5479 7.37688L18.3352 8.07688L15.8971 3.85398C15.5021 3.1699 14.9341 2.60184 14.25 2.20688C13.5659 1.81193 12.7899 1.604 12 1.604C11.2101 1.604 10.4341 1.81193 9.75 2.20688C9.06592 2.60184 8.49785 3.1699 8.10289 3.85398L5.81319 7.81998L7.11229 8.56998L9.40199 4.60398ZM22.4766 15.25L20.1866 11.2841L18.8875 12.0341L21.1775 16C21.4408 16.456 21.5794 16.9734 21.5794 17.5C21.5794 18.0266 21.4408 18.5439 21.1775 18.9999C20.9142 19.456 20.5355 19.8347 20.0795 20.098C19.6234 20.3613 19.1061 20.5 18.5795 20.5H13.7031V19.1L11.5531 21.25L13.7031 23.4V22H18.58C19.3699 21.9999 20.1458 21.7919 20.8298 21.3969C21.5138 21.0019 22.0818 20.4338 22.4767 19.7498C22.8716 19.0657 23.0795 18.2897 23.0795 17.4999C23.0794 16.71 22.8715 15.934 22.4766 15.25ZM14.1509 13.9629C14.1591 13.703 14.1129 13.4443 14.0153 13.2033C13.9176 12.9624 13.7706 12.7445 13.5838 12.5637C13.3969 12.3829 13.1743 12.2431 12.9303 12.1535C12.6863 12.0638 12.4261 12.0261 12.1667 12.0429C11.7155 12.0373 11.275 12.1801 10.9128 12.4492L11.0266 11.0214H13.86V9.99998H10.1133L9.86429 13.3818H10.87C10.9958 13.2228 11.1575 13.0959 11.3419 13.0115C11.5263 12.9272 11.728 12.8877 11.9306 12.8965C12.0771 12.8923 12.2229 12.9182 12.3589 12.9726C12.495 13.027 12.6185 13.1087 12.7216 13.2128C12.8248 13.3169 12.9055 13.441 12.9588 13.5775C13.0121 13.714 13.0367 13.86 13.0313 14.0065C13.0362 14.1581 13.0093 14.309 12.9522 14.4496C12.8951 14.5901 12.8092 14.7171 12.6999 14.8223C12.5907 14.9275 12.4605 15.0086 12.3179 15.0604C12.1754 15.1122 12.0235 15.1334 11.8722 15.1228C11.623 15.138 11.3753 15.0755 11.1631 14.944C10.9509 14.8125 10.7847 14.6185 10.6874 14.3886L9.70929 14.8316C9.88721 15.2477 10.1922 15.5969 10.5806 15.8291C10.969 16.0614 11.4209 16.1648 11.8717 16.1247C12.1651 16.14 12.4586 16.0954 12.7343 15.9936C13.01 15.8919 13.2621 15.7352 13.4753 15.533C13.6885 15.3308 13.8583 15.0873 13.9745 14.8174C14.0906 14.5474 14.1506 14.2567 14.1509 13.9629Z" fill="black"/>
</svg>
