<svg width="24" height="24" viewBox="0 0 24 24" fill="none" xmlns="http://www.w3.org/2000/svg">
<path d="M12 2C10.0222 2 8.08879 2.58649 6.4443 3.6853C4.79981 4.78412 3.51809 6.3459 2.76121 8.17317C2.00433 10.0004 1.8063 12.0111 2.19215 13.9509C2.578 15.8907 3.53041 17.6725 4.92894 19.0711C6.32746 20.4696 8.10929 21.422 10.0491 21.8079C11.9889 22.1937 13.9996 21.9957 15.8268 21.2388C17.6541 20.4819 19.2159 19.2002 20.3147 17.5557C21.4135 15.9112 22 13.9778 22 12C22 10.6868 21.7413 9.38642 21.2388 8.17317C20.7363 6.95991 19.9997 5.85752 19.0711 4.92893C18.1425 4.00035 17.0401 3.26375 15.8268 2.7612C14.6136 2.25866 13.3132 2 12 2ZM12.49 6.85C12.7175 6.85 12.9398 6.91745 13.1289 7.04381C13.318 7.17017 13.4654 7.34978 13.5525 7.55991C13.6395 7.77005 13.6623 8.00128 13.6179 8.22435C13.5735 8.44743 13.464 8.65234 13.3032 8.81317C13.1423 8.974 12.9374 9.08353 12.7144 9.1279C12.4913 9.17228 12.2601 9.1495 12.0499 9.06246C11.8398 8.97542 11.6602 8.82802 11.5338 8.63891C11.4075 8.44979 11.34 8.22745 11.34 8C11.34 7.695 11.4612 7.40249 11.6768 7.18683C11.8925 6.97116 12.185 6.85 12.49 6.85ZM12.5325 17.0957C12.2378 17.1576 11.9323 17.144 11.6443 17.0562C11.3563 16.9684 11.0951 16.8093 10.885 16.5937C10.6749 16.378 10.5226 16.1128 10.4424 15.8225C10.3622 15.5323 10.3566 15.2266 10.4261 14.9336L11.083 12.18L9.5908 12.5257L9.208 10.7657L10.7158 10.4376C11.011 10.3736 11.3177 10.3855 11.6071 10.4722C11.8964 10.5589 12.1591 10.7175 12.3706 10.9332C12.582 11.149 12.7354 11.4148 12.8162 11.7058C12.8971 11.9969 12.9029 12.3037 12.833 12.5976L12.1768 15.3505L13.6797 15.0145L14.0508 16.7763L12.5325 17.0957Z" fill="black"/>
</svg>
