<svg width="24" height="24" viewBox="0 0 24 24" fill="none" xmlns="http://www.w3.org/2000/svg">
<path d="M11.5156 10.9971C11.0637 11.0055 10.6244 11.1472 10.2528 11.4044C9.88118 11.6615 9.59379 12.0227 9.42669 12.4426C9.25958 12.8625 9.22022 13.3224 9.31354 13.7646C9.40686 14.2068 9.6287 14.6116 9.95122 14.9282C10.2737 15.2448 10.6826 15.459 11.1264 15.5441C11.5703 15.6292 12.0294 15.5812 12.4461 15.4064C12.8628 15.2315 13.2186 14.9374 13.4688 14.561C13.719 14.1847 13.8525 13.7428 13.8525 13.2909C13.846 12.6771 13.5964 12.0909 13.1583 11.6609C12.7202 11.2308 12.1294 10.9921 11.5156 10.9971ZM15.4141 2H4V22H20V6.5859L15.4141 2ZM14.7841 16H14.2841V13.888C14.1368 14.5611 13.7461 15.1561 13.1868 15.5586C12.6276 15.9612 11.9393 16.1429 11.2543 16.0688C10.5692 15.9948 9.93566 15.6702 9.47536 15.1574C9.01505 14.6447 8.76045 13.9799 8.76045 13.2909C8.76045 12.6019 9.01505 11.9371 9.47536 11.4244C9.93566 10.9116 10.5692 10.587 11.2543 10.513C11.9393 10.4389 12.6276 10.6206 13.1868 11.0232C13.7461 11.4257 14.1368 12.0207 14.2841 12.6938V8.8H9.1384V8.3H14.7842L14.7841 16Z" fill="black"/>
</svg>
