<svg width="24" height="24" viewBox="0 0 24 24" fill="none" xmlns="http://www.w3.org/2000/svg">
<path d="M12.4459 15L14.6683 9H13.7771L12 13.7971L10.2229 9H9.3317L11.5546 15H12.4459ZM16.6236 12.7556H18.0416L19.4673 15H20.3724L18.9264 12.7238C19.2946 12.6509 19.626 12.4526 19.8643 12.1626C20.1026 11.8727 20.233 11.5091 20.2332 11.1338V10.6224C20.2332 10.4093 20.1913 10.1984 20.1098 10.0015C20.0283 9.80469 19.9088 9.62583 19.7582 9.47517C19.6075 9.32451 19.4287 9.20501 19.2319 9.12348C19.035 9.04194 18.8241 8.99999 18.611 9H15.79V15H16.6233L16.6236 12.7556ZM16.6236 9.8333H18.611C18.8201 9.83362 19.0206 9.91682 19.1684 10.0647C19.3163 10.2125 19.3995 10.413 19.3998 10.6221V11.1335C19.3995 11.3426 19.3163 11.5431 19.1684 11.6909C19.0206 11.8388 18.8201 11.922 18.611 11.9223H16.6236V9.8333ZM8.5936 12.8679V11.132C8.5936 10.5666 8.36903 10.0244 7.96929 9.62459C7.56955 9.22477 7.02737 9.00011 6.462 9H3.79V15H6.462C7.02747 15 7.56978 14.7754 7.96962 14.3755C8.36947 13.9757 8.5941 13.4334 8.5941 12.8679H8.5936ZM4.6236 9.8333H6.462C6.80633 9.83364 7.13646 9.97058 7.37994 10.2141C7.62342 10.4575 7.76036 10.7877 7.7607 11.132V12.8679C7.76036 13.2122 7.62342 13.5424 7.37994 13.7858C7.13646 14.0293 6.80633 14.1663 6.462 14.1666H4.6236V9.8333ZM0 4V20H24V4H0ZM22.8 19H1.2V5H22.8V19Z" fill="black"/>
</svg>
