<svg width="24" height="24" viewBox="0 0 24 24" fill="none" xmlns="http://www.w3.org/2000/svg">
<path d="M6.462 10.5H5.29V13.5H6.462C6.62957 13.4998 6.79022 13.4332 6.90872 13.3147C7.02722 13.1962 7.09389 13.0356 7.0941 12.868V11.132C7.09389 10.9644 7.02722 10.8038 6.90872 10.6853C6.79022 10.5668 6.62957 10.5002 6.462 10.5ZM18.772 10.5H17.29V11.6705H18.7712C18.8515 11.6704 18.9285 11.6384 18.9853 11.5816C19.0421 11.5248 19.0741 11.4478 19.0742 11.3675V10.803C19.0741 10.7227 19.0422 10.6458 18.9854 10.589C18.9287 10.5322 18.8518 10.5002 18.7715 10.5H18.772ZM1 4V20H23V4H1ZM8.5941 12.868C8.5941 13.148 8.53895 13.4252 8.4318 13.6839C8.32465 13.9426 8.1676 14.1776 7.96962 14.3756C7.77163 14.5736 7.53659 14.7306 7.27791 14.8377C7.01923 14.9449 6.74199 15 6.462 15H3.79V9H6.462C6.74199 8.99999 7.01923 9.05512 7.27791 9.16226C7.53659 9.2694 7.77163 9.42644 7.96962 9.62441C8.1676 9.82239 8.32465 10.0574 8.4318 10.3161C8.53895 10.5748 8.5941 10.852 8.5941 11.132V12.868ZM12.8072 15H11.1928L9.04 9H10.6544L12 12.75L13.3453 9H14.96L12.8072 15ZM19.1132 15L17.951 13.1705H17.29V15H15.79V9H18.7712C19.2494 9 19.708 9.18996 20.0461 9.52809C20.3842 9.86621 20.5742 10.3248 20.5742 10.803V11.3675C20.5738 11.7148 20.4731 12.0545 20.284 12.3458C20.095 12.6371 19.8258 12.8675 19.5088 13.0093L20.7737 15H19.1132Z" fill="black"/>
</svg>
