<svg width="24" height="24" viewBox="0 0 24 24" fill="none" xmlns="http://www.w3.org/2000/svg">
<path d="M15.4641 4.10398L18.78 9.84718L16.64 9.27368L16.5116 9.75738L19.4622 10.548L20.2539 7.59338L19.77 7.46498L19.2029 9.57998L15.8971 3.85398C15.5021 3.1699 14.9341 2.60184 14.25 2.20688C13.5659 1.81193 12.7899 1.604 12 1.604C11.2101 1.604 10.4341 1.81193 9.75002 2.20688C9.06593 2.60184 8.49786 3.1699 8.1029 3.85398L6.3129 6.95398L6.7458 7.20398L8.5358 4.10398C8.88688 3.4959 9.39183 2.99095 9.9999 2.63988C10.608 2.28881 11.2978 2.10398 11.9999 2.10398C12.702 2.10398 13.3918 2.28881 13.9999 2.63988C14.608 2.99095 15.1129 3.4959 15.464 4.10398H15.4641ZM1.9564 19.5C1.60137 18.8933 1.41424 18.2029 1.41424 17.5C1.41424 16.797 1.60137 16.1067 1.9564 15.5L5.2722 9.75668L5.8458 11.8967L6.329 11.766L5.5383 8.81598L2.5837 9.60748L2.7144 10.0908L4.8293 9.52398L1.5234 15.25C1.12845 15.9341 0.920518 16.7101 0.920517 17.5C0.920516 18.2899 1.12844 19.0659 1.5234 19.75C1.91835 20.4341 2.48642 21.0021 3.17051 21.3971C3.85459 21.792 4.63059 22 5.4205 22H9V21.5H5.42C4.71712 21.5041 4.02581 21.321 3.41711 20.9695C2.8084 20.618 2.30424 20.1108 1.9564 19.5ZM22.4764 15.25L20.6864 12.15L20.2535 12.4L22.0435 15.5C22.3946 16.1081 22.5794 16.7978 22.5794 17.5C22.5794 18.2021 22.3946 18.8919 22.0435 19.5C21.6924 20.1081 21.1875 20.613 20.5794 20.9641C19.9713 21.3152 19.2815 21.5 18.5794 21.5H11.9478L13.5146 19.9331L13.16 19.58L11 21.74L13.1628 23.903L13.516 23.5483L11.9678 22H18.58C19.3699 21.9999 20.1458 21.7919 20.8298 21.3969C21.5138 21.0019 22.0818 20.4338 22.4767 19.7498C22.8716 19.0657 23.0795 18.2897 23.0795 17.4999C23.0795 16.71 22.8715 15.934 22.4766 15.25H22.4764ZM13.8685 14.3636C13.8759 13.9992 13.7498 13.6447 13.5138 13.3669C13.2779 13.0891 12.9485 12.9072 12.5877 12.8556C12.8713 12.7546 13.1188 12.5721 13.2992 12.3311C13.4796 12.0901 13.5849 11.8012 13.6019 11.5007C13.6017 11.273 13.5537 11.0479 13.4611 10.8399C13.3684 10.6319 13.2332 10.4457 13.0641 10.2932C12.8951 10.1408 12.6959 10.0255 12.4795 9.95476C12.263 9.88406 12.0342 9.85954 11.8077 9.88278C11.4175 9.8746 11.0345 9.98871 10.7124 10.2091C10.3903 10.4295 10.1453 10.7452 10.0116 11.1119L10.4449 11.3235C10.5571 11.0461 10.7493 10.8085 10.997 10.6408C11.2448 10.473 11.5368 10.3828 11.836 10.3817C11.9935 10.3674 12.1522 10.3855 12.3024 10.4348C12.4526 10.4841 12.5911 10.5636 12.7095 10.6684C12.8279 10.7732 12.9236 10.9011 12.9907 11.0442C13.0579 11.1873 13.0951 11.3427 13.1 11.5007C13.0951 11.6598 13.0583 11.8162 12.9919 11.9609C12.9255 12.1055 12.8307 12.2353 12.7133 12.3427C12.5958 12.4501 12.458 12.5329 12.308 12.5861C12.158 12.6393 11.9989 12.6619 11.84 12.6526H11.2182V13.1561H11.84C12.7632 13.1561 13.3432 13.5992 13.3432 14.3636C13.3311 14.5453 13.2826 14.7227 13.2004 14.8852C13.1182 15.0476 13.0041 15.1919 12.8649 15.3093C12.7257 15.4267 12.5642 15.5148 12.3902 15.5683C12.2162 15.6219 12.0331 15.6398 11.852 15.621C11.5192 15.6095 11.1969 15.5014 10.9245 15.3098C10.6521 15.1182 10.4414 14.8514 10.3181 14.5421L9.8848 14.7603C10.0248 15.167 10.2912 15.5183 10.6452 15.7627C10.9992 16.0071 11.4221 16.1319 11.852 16.1187C12.1015 16.1451 12.3537 16.1198 12.593 16.0444C12.8323 15.969 13.0534 15.8451 13.2426 15.6804C13.4319 15.5157 13.5851 15.3138 13.6929 15.0872C13.8006 14.8606 13.8604 14.6143 13.8687 14.3636H13.8685Z" fill="black"/>
</svg>
