<svg width="24" height="24" viewBox="0 0 24 24" fill="none" xmlns="http://www.w3.org/2000/svg">
<path d="M5.921 2L2.1189 12H2.6763L4.0624 8.3541H8.3369L9.723 12H10.28L6.4783 2H5.921ZM4.2526 7.8541L6.2 2.733L8.1467 7.8541H4.2526ZM22 13.1312H17.25V10.4712H16.75V13.1312H12V13.6312H16.1632C15.3632 15.8097 13.9298 17.6992 12.0474 19.0566L12.3354 19.4727C14.3479 18.0316 15.847 15.9848 16.6135 13.6312H16.75V21H17.25V13.6312H17.37C18.2085 15.9215 19.6892 17.9218 21.6349 19.3926L21.953 19.0059C20.1322 17.6128 18.7185 15.7567 17.8593 13.6312H22V13.1312Z" fill="black"/>
</svg>
