<svg width="24" height="24" viewBox="0 0 24 24" fill="none" xmlns="http://www.w3.org/2000/svg">
<path d="M1 4V20H23V4H1ZM11.29 15H9.79V12.6043H8.29V15H6.79V9H8.29V11.375H9.79V9H11.29V15ZM17.5938 12.868C17.5938 13.4334 17.3692 13.9757 16.9694 14.3755C16.5696 14.7753 16.0274 14.9999 15.462 15H12.79V9H15.462C15.742 8.99999 16.0192 9.05512 16.2779 9.16226C16.5366 9.2694 16.7716 9.42644 16.9696 9.62441C17.1676 9.82239 17.3247 10.0574 17.4318 10.3161C17.5389 10.5748 17.5941 10.852 17.5941 11.132L17.5938 12.868ZM15.462 10.5H14.29V13.5H15.462C15.6296 13.4998 15.7902 13.4332 15.9087 13.3147C16.0272 13.1962 16.0939 13.0356 16.0941 12.868V11.132C16.0939 10.9644 16.0272 10.8038 15.9087 10.6853C15.7902 10.5668 15.6296 10.5002 15.462 10.5Z" fill="black"/>
</svg>
