<svg width="24" height="24" viewBox="0 0 24 24" fill="none" xmlns="http://www.w3.org/2000/svg">
<path d="M7.9569 12.4828H10.1236V15H11.29V9H10.1236V11.4965H7.9569V9H6.79V15H7.9569V12.4828ZM14.764 15H15.62C15.8277 14.9974 16.0336 14.9617 16.23 14.8942L17.1111 15.7752L17.8511 15.0352L17.1161 14.3C17.4228 13.9462 17.5924 13.4941 17.5941 13.0258V10.9738C17.5941 10.7146 17.543 10.4579 17.4438 10.2184C17.3446 9.9789 17.1992 9.76129 17.0159 9.57801C16.8326 9.39472 16.6149 9.24934 16.3754 9.15016C16.1359 9.05099 15.8792 8.99996 15.62 9H14.764C14.5048 8.99997 14.2481 9.05101 14.0086 9.15019C13.7691 9.24937 13.5515 9.39476 13.3682 9.57804C13.1849 9.76133 13.0395 9.97893 12.9403 10.2184C12.8411 10.4579 12.79 10.7146 12.79 10.9738V13.0262C12.79 13.2854 12.8411 13.5421 12.9403 13.7816C13.0395 14.0211 13.1849 14.2387 13.3682 14.422C13.5515 14.6052 13.7691 14.7506 14.0086 14.8498C14.2481 14.949 14.5048 15 14.764 15ZM13.957 10.9738C13.9572 10.7598 14.0423 10.5547 14.1936 10.4033C14.3449 10.252 14.55 10.1669 14.764 10.1666H15.62C15.834 10.1668 16.0392 10.252 16.1905 10.4033C16.3418 10.5546 16.4269 10.7598 16.4271 10.9738V13.0262C16.4269 13.2402 16.3418 13.4454 16.1905 13.5967C16.0392 13.748 15.834 13.8331 15.62 13.8333H14.764C14.55 13.8331 14.3449 13.7479 14.1936 13.5966C14.0423 13.4453 13.9572 13.2402 13.957 13.0262V10.9738ZM1 4V20H23V4H1ZM21.5 18.5H2.5V5.5H21.5V18.5Z" fill="black"/>
</svg>
