<svg width="24" height="24" viewBox="0 0 24 24" fill="none" xmlns="http://www.w3.org/2000/svg">
<path d="M7.6236 12.3612H10.4569V15H11.29V9H10.4566V11.6181H7.6236V9H6.79V15H7.6233L7.6236 12.3612ZM17.5941 12.8679V11.132C17.5941 10.852 17.5389 10.5748 17.4318 10.3161C17.3247 10.0574 17.1676 9.82239 16.9696 9.62441C16.7716 9.42644 16.5366 9.2694 16.2779 9.16226C16.0192 9.05512 15.742 8.99999 15.462 9H12.79V15H15.462C15.742 15 16.0192 14.9449 16.2779 14.8377C16.5366 14.7306 16.7716 14.5735 16.9696 14.3755C17.1676 14.1775 17.3247 13.9425 17.4318 13.6838C17.5389 13.4251 17.5941 13.1479 17.5941 12.8679ZM13.6241 9.8333H15.462C15.8063 9.83364 16.1365 9.97058 16.3799 10.2141C16.6234 10.4575 16.7604 10.7877 16.7607 11.132V12.8679C16.7604 13.2122 16.6234 13.5424 16.3799 13.7858C16.1365 14.0293 15.8063 14.1663 15.462 14.1666H13.6237L13.6241 9.8333ZM1 4V20H23V4H1ZM22 19H2V5H22V19Z" fill="black"/>
</svg>
