<svg width="24" height="24" viewBox="0 0 24 24" fill="none" xmlns="http://www.w3.org/2000/svg">
<path d="M9.83499 4.85388C10.0544 4.47386 10.37 4.15829 10.75 3.93889C11.1301 3.71949 11.5612 3.60399 12 3.60399C12.4388 3.60399 12.8699 3.71949 13.2499 3.93889C13.63 4.15829 13.9456 4.47386 14.165 4.85388L16.455 8.81978L15.3183 9.47608L18.4773 10.3225L19.3237 7.16358L18.1868 7.81988L15.8968 3.85398C15.5018 3.1699 14.9338 2.60184 14.2497 2.20688C13.5656 1.81193 12.7896 1.604 11.9997 1.604C11.2098 1.604 10.4338 1.81193 9.7497 2.20688C9.06562 2.60184 8.49755 3.1699 8.10259 3.85398L5.81319 7.81988L7.54519 8.81988L9.83499 4.85388ZM3.25549 18.7499C3.03166 18.3713 2.91358 17.9396 2.91358 17.4999C2.91358 17.0601 3.03166 16.6284 3.25549 16.2499L5.54549 12.284L6.68219 12.9402L5.83539 9.78128L2.67649 10.6277L3.81319 11.284L1.52339 15.2499C1.12843 15.934 0.920502 16.71 0.920502 17.4999C0.920501 18.2898 1.12843 19.0658 1.52338 19.7499C1.91834 20.434 2.48641 21.002 3.17049 21.397C3.85458 21.7919 4.63057 21.9999 5.42049 21.9999H9.99999V19.9999H5.42049C4.98075 20.0045 4.54786 19.8909 4.16702 19.671C3.78618 19.4511 3.47138 19.133 3.25549 18.7499ZM22.4766 15.2499L20.1866 11.284L18.4546 12.284L20.7446 16.2499C20.964 16.6299 21.0795 17.061 21.0795 17.4998C21.0795 17.9386 20.9641 18.3696 20.7447 18.7497C20.5253 19.1297 20.2098 19.4453 19.8298 19.6648C19.4498 19.8842 19.0188 19.9998 18.58 19.9999H14V18.6874L11.6875 20.9999L14 23.3124V21.9999H18.58C19.3699 21.9998 20.1458 21.7918 20.8298 21.3968C21.5138 21.0018 22.0818 20.4337 22.4767 19.7497C22.8716 19.0656 23.0795 18.2896 23.0795 17.4998C23.0794 16.7099 22.8715 15.9339 22.4766 15.2499ZM11.74 15.9674L14.2057 11.3749V9.99988H9.73889V11.3749H12.7173L10.136 15.9674H11.74Z" fill="black"/>
</svg>
