<svg width="24" height="24" viewBox="0 0 24 24" fill="none" xmlns="http://www.w3.org/2000/svg">
<path d="M8.5169 10.5H7.0357V11.6705H8.5169C8.59723 11.6704 8.67424 11.6384 8.73104 11.5816C8.78784 11.5248 8.81979 11.4478 8.8199 11.3675V10.803C8.81982 10.7227 8.78787 10.6456 8.73107 10.5888C8.67426 10.532 8.59724 10.5001 8.5169 10.5ZM1 4V20H23V4H1ZM10.32 11.3675C10.32 11.8457 10.13 12.3043 9.79191 12.6424C9.45379 12.9805 8.99519 13.1705 8.517 13.1705H7.0357V15H5.5357V9H8.5169C8.99509 9 9.45369 9.18996 9.79181 9.52809C10.1299 9.86621 10.3199 10.3248 10.3199 10.803L10.32 11.3675ZM12.5739 15H11.0739V9H12.5739V15ZM18.7344 15H17.4827L15.45 11.7764V15H13.95V9H15.1884L17.2342 12.2353V9H18.7342L18.7344 15Z" fill="black"/>
</svg>
