<svg width="24" height="24" viewBox="0 0 24 24" fill="none" xmlns="http://www.w3.org/2000/svg">
<path d="M9.402 4.60398C9.66532 4.14796 10.044 3.76928 10.5001 3.506C10.9561 3.24272 11.4734 3.10411 12 3.10411C12.5266 3.10411 13.0439 3.24272 13.4999 3.506C13.956 3.76928 14.3347 4.14796 14.598 4.60398L17.0363 8.82698L15.8237 9.52698L18.7609 10.314L19.5479 7.37688L18.3352 8.07688L15.8971 3.85398C15.5021 3.1699 14.9341 2.60184 14.25 2.20688C13.5659 1.81193 12.7899 1.604 12 1.604C11.2101 1.604 10.4341 1.81193 9.75002 2.20688C9.06593 2.60184 8.49786 3.1699 8.1029 3.85398L5.8132 7.81998L7.1123 8.56998L9.402 4.60398ZM2.8225 19C2.55617 18.545 2.41578 18.0272 2.41578 17.5C2.41578 16.9727 2.55617 16.455 2.8225 16L5.2607 11.777L6.4731 12.477L5.6863 9.53998L2.749 10.327L3.9615 11.027L1.5234 15.25C1.12845 15.9341 0.920518 16.7101 0.920517 17.5C0.920516 18.2899 1.12844 19.0659 1.5234 19.75C1.91835 20.4341 2.48642 21.0021 3.17051 21.3971C3.85459 21.792 4.63059 22 5.4205 22H10V20.5H5.4205C4.89328 20.5031 4.37472 20.3659 3.91812 20.1022C3.46153 19.8386 3.08337 19.4582 2.8225 19ZM22.4766 15.25L20.1866 11.2841L18.8875 12.0341L21.1775 16C21.4408 16.456 21.5794 16.9734 21.5794 17.5C21.5794 18.0266 21.4408 18.5439 21.1775 18.9999C20.9142 19.456 20.5355 19.8347 20.0795 20.098C19.6234 20.3613 19.1061 20.5 18.5795 20.5H13.7031V19.1L11.5531 21.25L13.7031 23.4V22H18.58C19.3699 21.9999 20.1458 21.7919 20.8298 21.3969C21.5138 21.0019 22.0818 20.4338 22.4767 19.7498C22.8716 19.0657 23.0795 18.2897 23.0795 17.4999C23.0795 16.71 22.8715 15.934 22.4766 15.25ZM14.2114 14.3382C14.2005 13.9942 14.0762 13.6634 13.8578 13.3975C13.6394 13.1315 13.3392 12.9452 13.0039 12.8676C13.284 12.7672 13.5268 12.5837 13.6998 12.3416C13.8728 12.0995 13.9677 11.8103 13.9719 11.5128C13.9719 10.4875 13.0138 9.87758 11.887 9.87758C11.4583 9.85064 11.0315 9.95434 10.663 10.175C10.2945 10.3956 10.0015 10.7229 9.8228 11.1135L10.7466 11.4875C10.8505 11.2734 11.0142 11.0939 11.2179 10.9709C11.4216 10.8479 11.6566 10.7865 11.8944 10.7943C12.0137 10.7841 12.1339 10.7983 12.2476 10.8359C12.3613 10.8734 12.4663 10.9337 12.5561 11.013C12.6458 11.0922 12.7186 11.1889 12.77 11.297C12.8214 11.4052 12.8504 11.5227 12.8551 11.6424C12.8513 11.7659 12.8222 11.8873 12.7694 11.9991C12.7167 12.1108 12.6415 12.2105 12.5485 12.2919C12.4556 12.3733 12.3469 12.4347 12.2292 12.4723C12.1114 12.5099 11.9872 12.5228 11.8643 12.5103H11.3083V13.3344H11.9144C12.6321 13.3344 13.0815 13.7051 13.0815 14.257C13.0531 14.5345 12.9174 14.79 12.7033 14.969C12.4892 15.1479 12.2137 15.2361 11.9355 15.2149C11.6479 15.22 11.3647 15.1428 11.1196 14.9923C10.8744 14.8418 10.6774 14.6243 10.5518 14.3655L9.7063 14.758C9.88002 15.1925 10.1888 15.5598 10.587 15.8055C10.9853 16.0512 11.452 16.1625 11.9183 16.1229C13.2054 16.1229 14.2114 15.4585 14.2114 14.3382Z" fill="black"/>
</svg>
