<svg width="24" height="24" viewBox="0 0 24 24" fill="none" xmlns="http://www.w3.org/2000/svg">
<path d="M18.5718 15.9678C18.5718 13.4707 16.5654 11.666 13.0669 11.0166L12.4463 10.9072C12.0163 10.832 11.5034 10.7422 11.3863 10.7192C10.1319 10.4692 8.0274 9.75 8.0274 7.75C8.0274 5.1982 11.1012 5 12.0431 5C12.7057 5 15.8349 5.1517 16.2453 7.9374H18.2559C17.9448 4.5845 15.17 3.3386 13 3.0638V1H11V3.0684C7.952 3.3957 6.0278 5.1521 6.0278 7.75C6.0278 10.2163 7.8848 12.06 10.9946 12.68C11.1162 12.7044 11.6528 12.7986 12.1016 12.8772L12.7026 12.9832C13.8662 13.199 16.5718 13.9217 16.5718 15.9676C16.5718 17.7664 14.7529 18.9842 12.0454 18.9998C10.6864 19.068 9.34847 18.6436 8.2773 17.8045C7.78534 17.2931 7.49513 16.6209 7.4603 15.9122H5.4637C5.49986 17.1525 6.00081 18.3339 6.8672 19.2222C8.0078 20.2518 9.4659 20.861 11 20.9487V23H13V20.9484C16.368 20.629 18.5718 18.7071 18.5718 15.9678Z" fill="black"/>
</svg>
