<svg width="24" height="24" viewBox="0 0 24 24" fill="none" xmlns="http://www.w3.org/2000/svg">
<path d="M16.1416 2H7.8584L2 7.8579V16.1416L7.8584 22H16.1416L22 16.1416V7.8579L16.1416 2ZM12 17.026C11.8187 17.026 11.6415 16.9722 11.4907 16.8715C11.3399 16.7708 11.2225 16.6276 11.1531 16.4601C11.0837 16.2926 11.0655 16.1082 11.1009 15.9304C11.1363 15.7526 11.2236 15.5893 11.3518 15.4611C11.48 15.3329 11.6434 15.2456 11.8212 15.2102C11.9991 15.1748 12.1834 15.193 12.3509 15.2624C12.5184 15.3318 12.6615 15.4493 12.7623 15.6001C12.863 15.7508 12.9167 15.9281 12.9167 16.1094C12.9167 16.3525 12.8201 16.5856 12.6482 16.7575C12.4763 16.9294 12.2431 17.026 12 17.026ZM12.5907 13.5H11.4093L11.05 7H12.95L12.5907 13.5Z" fill="black"/>
</svg>
