<svg width="24" height="24" viewBox="0 0 24 24" fill="none" xmlns="http://www.w3.org/2000/svg">
<path d="M15.62 10.1666H14.764C14.55 10.1669 14.3449 10.252 14.1936 10.4033C14.0423 10.5547 13.9572 10.7598 13.957 10.9738V13.0262C13.9572 13.2402 14.0423 13.4453 14.1936 13.5966C14.3449 13.7479 14.55 13.8331 14.764 13.8333H15.62C15.834 13.8331 16.0392 13.748 16.1905 13.5967C16.3418 13.4454 16.4269 13.2402 16.4271 13.0262V10.9738C16.4269 10.7598 16.3418 10.5546 16.1905 10.4033C16.0392 10.252 15.834 10.1668 15.62 10.1666ZM1 4V20H23V4H1ZM11.29 15H10.1236V12.4828H7.9569V15H6.79V9H7.9569V11.4965H10.1236V9H11.29V15ZM17.1107 15.7752L16.2296 14.8942C16.0333 14.9617 15.8275 14.9974 15.62 15H14.764C14.5048 15 14.2481 14.949 14.0086 14.8498C13.7691 14.7506 13.5515 14.6052 13.3682 14.422C13.1849 14.2387 13.0395 14.0211 12.9403 13.7816C12.8411 13.5421 12.79 13.2854 12.79 13.0262V10.9738C12.79 10.7146 12.8411 10.4579 12.9403 10.2184C13.0395 9.97893 13.1849 9.76133 13.3682 9.57804C13.5515 9.39476 13.7691 9.24937 14.0086 9.15019C14.2481 9.05101 14.5048 8.99997 14.764 9H15.62C15.8792 9 16.1359 9.05105 16.3753 9.15025C16.6148 9.24944 16.8324 9.39483 17.0157 9.57811C17.199 9.7614 17.3444 9.97899 17.4436 10.2185C17.5427 10.4579 17.5938 10.7146 17.5938 10.9738V13.0262C17.5921 13.4945 17.4225 13.9466 17.1158 14.3004L17.8507 15.0353L17.1107 15.7752Z" fill="black"/>
</svg>
