<svg width="24" height="24" viewBox="0 0 24 24" fill="none" xmlns="http://www.w3.org/2000/svg">
<path d="M1 4V20H23V4H1ZM8.4883 14.5H9.7C10.0188 14.4996 10.3244 14.3728 10.5497 14.1474C10.7751 13.9221 10.9019 13.6165 10.9023 13.2977H11.4023C11.4023 13.5213 11.3583 13.7426 11.2727 13.9492C11.1872 14.1557 11.0618 14.3434 10.9037 14.5014C10.7457 14.6595 10.558 14.7849 10.3515 14.8704C10.1449 14.956 9.92355 15 9.7 15H8.4883C7.98704 15 7.50631 14.8009 7.15187 14.4464C6.79742 14.092 6.5983 13.6113 6.5983 13.11V10.89C6.5983 10.3887 6.79742 9.90801 7.15187 9.55357C7.50631 9.19912 7.98704 9 8.4883 9H9.7C9.92355 8.99999 10.1449 9.04401 10.3515 9.12955C10.558 9.2151 10.7457 9.34049 10.9037 9.49856C11.0618 9.65664 11.1872 9.8443 11.2727 10.0508C11.3583 10.2574 11.4023 10.4787 11.4023 10.7023H10.9023C10.9019 10.3835 10.7751 10.0779 10.5497 9.85255C10.3244 9.62716 10.0188 9.50037 9.7 9.5H8.4883C8.11979 9.50045 7.7665 9.64704 7.50592 9.90762C7.24534 10.1682 7.09875 10.5215 7.0983 10.89V13.11C7.09878 13.4785 7.24538 13.8318 7.50595 14.0924C7.76652 14.3529 8.1198 14.4995 8.4883 14.5ZM14.4883 14.5H15.7C16.0188 14.4996 16.3244 14.3728 16.5497 14.1474C16.7751 13.9221 16.9019 13.6165 16.9023 13.2977H17.4023C17.4023 13.5213 17.3583 13.7426 17.2727 13.9492C17.1872 14.1557 17.0618 14.3434 16.9037 14.5014C16.7457 14.6595 16.558 14.7849 16.3515 14.8704C16.1449 14.956 15.9236 15 15.7 15H14.4883C13.987 15 13.5063 14.8009 13.1519 14.4464C12.7974 14.092 12.5983 13.6113 12.5983 13.11V10.89C12.5983 10.3887 12.7974 9.90801 13.1519 9.55357C13.5063 9.19912 13.987 9 14.4883 9H15.7C15.9236 8.99999 16.1449 9.04401 16.3515 9.12955C16.558 9.2151 16.7457 9.34049 16.9037 9.49856C17.0618 9.65664 17.1872 9.8443 17.2727 10.0508C17.3583 10.2574 17.4023 10.4787 17.4023 10.7023H16.9023C16.9019 10.3835 16.7751 10.0779 16.5497 9.85255C16.3244 9.62716 16.0188 9.50037 15.7 9.5H14.4883C14.1198 9.50045 13.7665 9.64704 13.5059 9.90762C13.2453 10.1682 13.0988 10.5215 13.0983 10.89V13.11C13.0988 13.4785 13.2454 13.8318 13.5059 14.0924C13.7665 14.3529 14.1198 14.4995 14.4883 14.5Z" fill="black"/>
</svg>
