<svg width="24" height="24" viewBox="0 0 24 24" fill="none" xmlns="http://www.w3.org/2000/svg">
<path d="M12 2C10.0222 2 8.08879 2.58649 6.4443 3.6853C4.79981 4.78412 3.51809 6.3459 2.76121 8.17317C2.00433 10.0004 1.8063 12.0111 2.19215 13.9509C2.578 15.8907 3.53041 17.6725 4.92894 19.0711C6.32746 20.4696 8.10929 21.422 10.0491 21.8079C11.9889 22.1937 13.9996 21.9957 15.8268 21.2388C17.6541 20.4819 19.2159 19.2002 20.3147 17.5557C21.4135 15.9112 22 13.9778 22 12C22 10.6868 21.7413 9.38642 21.2388 8.17317C20.7363 6.95991 19.9997 5.85752 19.0711 4.92893C18.1425 4.00035 17.0401 3.26375 15.8268 2.7612C14.6136 2.25866 13.3132 2 12 2ZM12 6.85C12.1352 6.85 12.2673 6.89009 12.3797 6.9652C12.4922 7.04031 12.5798 7.14706 12.6315 7.27196C12.6832 7.39686 12.6967 7.53429 12.6704 7.66688C12.644 7.79947 12.5789 7.92126 12.4833 8.01684C12.3877 8.11243 12.2659 8.17752 12.1333 8.20388C12.0007 8.23024 11.8633 8.21669 11.7384 8.16494C11.6135 8.11319 11.5067 8.02557 11.4316 7.91316C11.3566 7.80075 11.3165 7.66859 11.3165 7.5334C11.3165 7.35214 11.3886 7.17832 11.5167 7.05016C11.6449 6.922 11.8187 6.85 12 6.85ZM14.5 17H9.5V16.05H11.5V11.45H9.5V10.5H12.5V16.05H14.5V17Z" fill="black"/>
</svg>
