<svg width="24" height="24" viewBox="0 0 24 24" fill="none" xmlns="http://www.w3.org/2000/svg">
<path d="M12.8072 15L14.96 9H13.3453L12 12.75L10.6547 9H9.04L11.1925 15H12.8072ZM17.29 13.1705H17.9507L19.1132 15H20.7737L19.5091 13.0093C19.8261 12.8675 20.0953 12.6371 20.2843 12.3458C20.4734 12.0545 20.5741 11.7148 20.5745 11.3675V10.803C20.5745 10.3248 20.3845 9.86621 20.0464 9.52809C19.7083 9.18996 19.2497 9 18.7715 9H15.79V15H17.29V13.1705ZM17.29 10.5H18.7712C18.8515 10.5001 18.9285 10.5321 18.9853 10.5889C19.0421 10.6457 19.0741 10.7227 19.0742 10.803V11.3675C19.0741 11.4478 19.0421 11.5248 18.9853 11.5816C18.9285 11.6384 18.8515 11.6704 18.7712 11.6705H17.29V10.5ZM8.5941 12.868V11.132C8.5941 10.852 8.53895 10.5748 8.4318 10.3161C8.32465 10.0574 8.1676 9.82239 7.96962 9.62441C7.77163 9.42644 7.53659 9.2694 7.27791 9.16226C7.01923 9.05512 6.74199 8.99999 6.462 9H3.79V15H6.462C6.74199 15 7.01923 14.9449 7.27791 14.8377C7.53659 14.7306 7.77163 14.5736 7.96962 14.3756C8.1676 14.1776 8.32465 13.9426 8.4318 13.6839C8.53895 13.4252 8.5941 13.148 8.5941 12.868ZM5.29 10.5H6.462C6.62957 10.5002 6.79022 10.5668 6.90872 10.6853C7.02722 10.8038 7.09389 10.9644 7.0941 11.132V12.868C7.09389 13.0356 7.02722 13.1962 6.90872 13.3147C6.79022 13.4332 6.62957 13.4998 6.462 13.5H5.29V10.5ZM0 4V20H24V4H0ZM21.6 18H2.4V6H21.6V18Z" fill="black"/>
</svg>
