<svg width="24" height="24" viewBox="0 0 24 24" fill="none" xmlns="http://www.w3.org/2000/svg">
<g clip-path="url(#clip0)">
<path d="M1.9564 19.5C1.60136 18.8933 1.41423 18.2029 1.41423 17.5C1.41423 16.797 1.60136 16.1067 1.9564 15.5L5.2722 9.75668L5.9834 12.4106L6.4668 12.2806L5.5383 8.81598L2.0732 9.74438L2.2026 10.2278L4.8293 9.52398L1.5234 15.25C1.12844 15.9341 0.920514 16.7101 0.920513 17.5C0.920513 18.2899 1.12844 19.0659 1.5234 19.75C1.91835 20.4341 2.48642 21.0021 3.1705 21.3971C3.85459 21.792 4.63059 22 5.4205 22H9V21.5H5.42C4.71711 21.5041 4.02581 21.321 3.4171 20.9695C2.8084 20.618 2.30423 20.1108 1.9564 19.5ZM22.4764 15.25L20.6864 12.15L20.2535 12.4L22.0435 15.5C22.3946 16.1081 22.5794 16.7978 22.5794 17.5C22.5794 18.2021 22.3946 18.8919 22.0435 19.5C21.6924 20.1081 21.1875 20.613 20.5794 20.9641C19.9713 21.3152 19.2815 21.5 18.5794 21.5H11.9478L13.8905 19.5572L13.5366 19.2033L11 21.74L13.5366 24.2767L13.8905 23.9228L11.9678 22H18.58C19.3699 21.9999 20.1458 21.7919 20.8298 21.3969C21.5138 21.0019 22.0818 20.4338 22.4767 19.7498C22.8716 19.0657 23.0795 18.2897 23.0795 17.4999C23.0795 16.71 22.8715 15.934 22.4766 15.25H22.4764ZM15.4641 4.10398L18.78 9.84718L16.126 9.13618L15.9966 9.61958L19.4617 10.548L20.39 7.08288L19.9066 6.95288L19.2029 9.57998L15.8971 3.85398C15.5021 3.1699 14.9341 2.60184 14.25 2.20688C13.5659 1.81193 12.7899 1.604 12 1.604C11.2101 1.604 10.4341 1.81193 9.75001 2.20688C9.06593 2.60184 8.49786 3.1699 8.1029 3.85398L6.3129 6.95398L6.7458 7.20398L8.5358 4.10398C8.88687 3.4959 9.39182 2.99095 9.9999 2.63988C10.608 2.28881 11.2978 2.10398 11.9999 2.10398C12.702 2.10398 13.3918 2.28881 13.9999 2.63988C14.608 2.99095 15.1129 3.4959 15.464 4.10398H15.4641Z" fill="black"/>
</g>
<defs>
<clipPath id="clip0">
<rect width="24" height="24" fill="white"/>
</clipPath>
</defs>
</svg>
