<svg width="24" height="24" viewBox="0 0 24 24" fill="none" xmlns="http://www.w3.org/2000/svg">
<path d="M9.835 4.85388C10.0544 4.47386 10.37 4.15829 10.7501 3.93889C11.1301 3.71949 11.5612 3.60399 12 3.60399C12.4388 3.60399 12.8699 3.71949 13.2499 3.93889C13.63 4.15829 13.9456 4.47386 14.165 4.85388L16.455 8.81978L15.3183 9.47608L18.4773 10.3225L19.3237 7.16358L18.1868 7.81988L15.8968 3.85398C15.5018 3.1699 14.9338 2.60184 14.2497 2.20688C13.5656 1.81193 12.7896 1.604 11.9997 1.604C11.2098 1.604 10.4338 1.81193 9.74971 2.20688C9.06563 2.60184 8.49756 3.1699 8.1026 3.85398L5.8132 7.81988L7.5452 8.81988L9.835 4.85388ZM22.4766 15.2499L20.1866 11.284L18.4546 12.284L20.7446 16.2499C20.964 16.6299 21.0795 17.061 21.0795 17.4998C21.0796 17.9386 20.9641 18.3696 20.7447 18.7497C20.5254 19.1297 20.2098 19.4453 19.8298 19.6648C19.4499 19.8842 19.0188 19.9998 18.58 19.9999H14V18.6874L11.6875 20.9999L14 23.3124V21.9999H18.58C19.3699 21.9998 20.1458 21.7918 20.8298 21.3968C21.5138 21.0018 22.0818 20.4337 22.4767 19.7497C22.8716 19.0656 23.0795 18.2896 23.0795 17.4998C23.0795 16.7099 22.8715 15.9339 22.4766 15.2499ZM3.2555 18.7499C3.03167 18.3713 2.91359 17.9396 2.91359 17.4999C2.91359 17.0601 3.03167 16.6284 3.2555 16.2499L5.5455 12.284L6.6822 12.9402L5.8354 9.78128L2.6765 10.6277L3.8132 11.284L1.5234 15.2499C1.12845 15.934 0.920518 16.71 0.920517 17.4999C0.920516 18.2898 1.12844 19.0658 1.5234 19.7499C1.91835 20.434 2.48642 21.002 3.17051 21.397C3.85459 21.7919 4.63059 21.9999 5.4205 21.9999H10V19.9999H5.4205C4.98077 20.0045 4.54787 19.8909 4.16703 19.671C3.7862 19.4511 3.47139 19.133 3.2555 18.7499ZM13.5349 15.9999V14.8335H14.207V13.6042H13.5349V9.99988H11.2188L9.168 13.6042V14.8335H12.0349V15.9999H13.5349ZM10.6284 13.6042L12.0349 11.1526V13.6042H10.6284Z" fill="black"/>
</svg>
