<svg width="24" height="24" viewBox="0 0 24 24" fill="none" xmlns="http://www.w3.org/2000/svg">
<path d="M12 2C10.0222 2 8.08879 2.58649 6.4443 3.6853C4.79981 4.78412 3.51809 6.3459 2.76121 8.17317C2.00433 10.0004 1.8063 12.0111 2.19215 13.9509C2.578 15.8907 3.53041 17.6725 4.92894 19.0711C6.32746 20.4696 8.10929 21.422 10.0491 21.8079C11.9889 22.1937 13.9996 21.9957 15.8268 21.2388C17.6541 20.4819 19.2159 19.2002 20.3147 17.5557C21.4135 15.9112 22 13.9778 22 12C22 10.6868 21.7413 9.38642 21.2388 8.17317C20.7363 6.95991 19.9997 5.85752 19.0711 4.92893C18.1425 4.00035 17.0401 3.26375 15.8268 2.7612C14.6136 2.25866 13.3132 2 12 2ZM15.5833 10.3647H15.0833V10.0137C15.0826 9.34732 14.8175 8.70844 14.3464 8.23721C13.8752 7.76597 13.2364 7.50085 12.57 7.5H11.546C10.8489 7.50079 10.1806 7.77806 9.68769 8.27098C9.19477 8.7639 8.9175 9.43221 8.9167 10.1293V13.8707C8.9175 14.5678 9.19477 15.2361 9.68769 15.729C10.1806 16.2219 10.8489 16.4992 11.546 16.5H12.57C13.2364 16.4992 13.8754 16.2342 14.3466 15.7629C14.8179 15.2917 15.0829 14.6527 15.0837 13.9863V13.6353H15.5837V13.9863C15.5837 14.7856 15.2662 15.5521 14.701 16.1173C14.1358 16.6825 13.3693 17 12.57 17H11.546C10.7161 17 9.92011 16.6703 9.33326 16.0834C8.7464 15.4966 8.4167 14.7006 8.4167 13.8707V10.1293C8.4167 9.29936 8.7464 8.50341 9.33326 7.91655C9.92011 7.32969 10.7161 7 11.546 7H12.57C13.3693 7 14.1358 7.31751 14.701 7.88269C15.2662 8.44787 15.5837 9.21442 15.5837 10.0137L15.5833 10.3647Z" fill="black"/>
</svg>
