<svg width="24" height="24" viewBox="0 0 24 24" fill="none" xmlns="http://www.w3.org/2000/svg">
<path d="M6.0357 12.5482H8.2757C8.47685 12.5482 8.67602 12.5086 8.86186 12.4316C9.04769 12.3546 9.21654 12.2418 9.35878 12.0996C9.50101 11.9573 9.61383 11.7885 9.69081 11.6027C9.76778 11.4168 9.8074 11.2176 9.8074 11.0165V10.5317C9.8074 10.1256 9.64609 9.73604 9.35895 9.4488C9.07181 9.16157 8.68235 9.00013 8.2762 9H5.5362V15H6.0362L6.0357 12.5482ZM6.0357 9.5H8.2757C8.54923 9.50029 8.81148 9.60908 9.0049 9.8025C9.19832 9.99592 9.30711 10.2582 9.3074 10.5317V11.0165C9.30711 11.29 9.19832 11.5523 9.0049 11.7457C8.81148 11.9391 8.54923 12.0479 8.2757 12.0482H6.0357V9.5ZM12.0739 9H11.5739V15H12.0739V9ZM14.6326 9.9373L18.1261 15H18.552V9H18.052V14.0706L14.55 9H14.133V15H14.633L14.6326 9.9373ZM1 4V20H23V4H1ZM22.5 19.5H1.5V4.5H22.5V19.5Z" fill="black"/>
</svg>
