<svg width="24" height="24" viewBox="0 0 24 24" fill="none" xmlns="http://www.w3.org/2000/svg">
<path d="M12 2C10.0222 2 8.08879 2.58649 6.4443 3.6853C4.79981 4.78412 3.51809 6.3459 2.76121 8.17317C2.00433 10.0004 1.8063 12.0111 2.19215 13.9509C2.578 15.8907 3.53041 17.6725 4.92894 19.0711C6.32746 20.4696 8.10929 21.422 10.0491 21.8079C11.9889 22.1937 13.9996 21.9957 15.8268 21.2388C17.6541 20.4819 19.2159 19.2002 20.3147 17.5557C21.4135 15.9112 22 13.9778 22 12C22 10.6868 21.7413 9.38642 21.2388 8.17317C20.7363 6.95991 19.9997 5.85752 19.0711 4.92893C18.1425 4.00035 17.0401 3.26375 15.8268 2.7612C14.6136 2.25866 13.3132 2 12 2ZM11.8794 17.026C11.6981 17.026 11.5209 16.9722 11.3701 16.8715C11.2193 16.7708 11.1019 16.6276 11.0325 16.4601C10.9631 16.2926 10.9449 16.1082 10.9803 15.9304C11.0157 15.7526 11.103 15.5893 11.2312 15.4611C11.3594 15.3329 11.5228 15.2456 11.7006 15.2102C11.8785 15.1748 12.0628 15.193 12.2303 15.2624C12.3978 15.3318 12.5409 15.4493 12.6417 15.6001C12.7424 15.7508 12.7961 15.9281 12.7961 16.1094C12.7961 16.3525 12.6995 16.5856 12.5276 16.7575C12.3557 16.9294 12.1225 17.026 11.8794 17.026ZM13.6794 12.3008C13.03 12.7441 12.6003 13.0381 12.6003 13.9941H11.167C11.1553 13.4034 11.3087 12.8211 11.6099 12.3129C11.9112 11.8046 12.3483 11.3905 12.8721 11.1172C13.5205 10.6738 13.8076 10.4502 13.8076 9.7832C13.7624 9.38236 13.5631 9.01481 13.2518 8.75822C12.9405 8.50164 12.5417 8.37612 12.1396 8.4082C11.625 8.4082 10.4296 8.6104 10.4296 10.4805H8.9961C8.9961 8.0586 10.5752 6.9746 12.1396 6.9746C12.9226 6.93876 13.688 7.21387 14.269 7.73998C14.85 8.26608 15.1994 9.00052 15.2412 9.7832C15.2362 10.3055 15.088 10.8165 14.8127 11.2604C14.5375 11.7043 14.1457 12.0642 13.68 12.3008H13.6794Z" fill="black"/>
</svg>
