<svg width="24" height="24" viewBox="0 0 24 24" fill="none" xmlns="http://www.w3.org/2000/svg">
<path d="M18.5 20.5H5.5V3.5H16V2H4V22H20V8H18.5V20.5ZM14.928 16V8.3H9.0461V9.6H13.6281V12.2954C13.369 11.754 12.9336 11.3168 12.3934 11.0554C11.8531 10.794 11.2401 10.724 10.6548 10.8568C10.0695 10.9897 9.54676 11.3175 9.17228 11.7865C8.7978 12.2555 8.59383 12.8378 8.59383 13.438C8.59383 14.0382 8.7978 14.6205 9.17228 15.0895C9.54676 15.5585 10.0695 15.8863 10.6548 16.0192C11.2401 16.152 11.8531 16.082 12.3934 15.8206C12.9336 15.5592 13.369 15.122 13.6281 14.5806V16H14.928ZM11.2374 14.8181C10.9651 14.8153 10.6997 14.7319 10.4747 14.5786C10.2496 14.4252 10.075 14.2087 9.97276 13.9563C9.87051 13.7039 9.84523 13.4269 9.90009 13.1602C9.95496 12.8934 10.0875 12.6489 10.2811 12.4573C10.4746 12.2658 10.7205 12.1357 10.9878 12.0837C11.2551 12.0316 11.5319 12.0597 11.7832 12.1646C12.0345 12.2694 12.2492 12.4463 12.4002 12.6729C12.5512 12.8995 12.6318 13.1658 12.6318 13.4381C12.6294 13.8059 12.4813 14.1577 12.2199 14.4164C11.9585 14.6751 11.6052 14.8196 11.2374 14.8181ZM20.75 3.5416V1H19.25V3.5416H17.5L20 6.0416L22.5 3.5416H20.75Z" fill="black"/>
</svg>
