<svg width="24" height="24" viewBox="0 0 24 24" fill="none" xmlns="http://www.w3.org/2000/svg">
<path d="M12.49 8.6829C12.6713 8.6829 12.8485 8.62915 12.9992 8.52843C13.1499 8.42772 13.2674 8.28458 13.3368 8.11711C13.4061 7.94963 13.4243 7.76535 13.3889 7.58756C13.3535 7.40978 13.2662 7.24647 13.138 7.1183C13.0098 6.99013 12.8465 6.90285 12.6687 6.8675C12.491 6.83215 12.3067 6.85031 12.1392 6.91969C11.9717 6.98908 11.8286 7.10656 11.7279 7.25729C11.6272 7.40802 11.5735 7.58523 11.5735 7.7665C11.5735 7.88685 11.5972 8.00602 11.6433 8.11721C11.6893 8.2284 11.7568 8.32943 11.8419 8.41453C11.9271 8.49962 12.0281 8.56712 12.1393 8.61317C12.2505 8.65922 12.3697 8.68291 12.49 8.6829ZM12 2C10.0222 2 8.08879 2.58649 6.4443 3.6853C4.79981 4.78412 3.51809 6.3459 2.76121 8.17317C2.00433 10.0004 1.8063 12.0111 2.19215 13.9509C2.578 15.8907 3.53041 17.6725 4.92894 19.0711C6.32746 20.4696 8.10929 21.422 10.0491 21.8079C11.9889 22.1937 13.9996 21.9957 15.8268 21.2388C17.6541 20.4819 19.2159 19.2002 20.3147 17.5557C21.4135 15.9112 22 13.9778 22 12C22 10.6868 21.7413 9.38642 21.2388 8.17317C20.7363 6.95991 19.9997 5.85752 19.0711 4.92893C18.1425 4.00035 17.0401 3.26375 15.8268 2.7612C14.6136 2.25866 13.3132 2 12 2ZM12 20.5C10.3189 20.5 8.67548 20.0015 7.27766 19.0675C5.87984 18.1335 4.79037 16.806 4.14703 15.2528C3.50368 13.6996 3.33536 11.9906 3.66333 10.3417C3.9913 8.69289 4.80085 7.17834 5.9896 5.98959C7.17834 4.80085 8.6929 3.9913 10.3417 3.66333C11.9906 3.33535 13.6996 3.50368 15.2528 4.14702C16.806 4.79037 18.1335 5.87984 19.0675 7.27765C20.0015 8.67547 20.5 10.3189 20.5 12C20.4974 14.2535 19.601 16.414 18.0075 18.0075C16.414 19.601 14.2535 20.4974 12 20.5ZM12.124 15.7842C12.0933 15.7906 12.0615 15.7893 12.0314 15.7802C12.0014 15.7712 11.9741 15.7547 11.9521 15.7324C11.9299 15.7102 11.9139 15.6825 11.9057 15.6522C11.8975 15.6219 11.8974 15.59 11.9053 15.5596L12.6846 12.2871C12.7455 12.0316 12.7405 11.7648 12.6702 11.5118C12.6 11.2587 12.4666 11.0276 12.2827 10.84C12.0988 10.6525 11.8704 10.5147 11.6187 10.4395C11.3671 10.3643 11.1004 10.3541 10.8438 10.41L9.2138 10.7644L9.5048 12.1004L11.1348 11.7459C11.1654 11.738 11.1975 11.7386 11.2277 11.7475C11.258 11.7565 11.2853 11.7735 11.3066 11.7967C11.3295 11.8187 11.3461 11.8464 11.3545 11.877C11.3629 11.9076 11.3629 11.9399 11.3545 11.9705L10.5752 15.243C10.5211 15.4709 10.5193 15.708 10.5698 15.9367C10.6203 16.1654 10.7218 16.3797 10.8668 16.5636C11.0119 16.7475 11.1966 16.8962 11.4072 16.9986C11.6178 17.1011 11.8488 17.1546 12.083 17.1551C12.1913 17.1551 12.2993 17.144 12.4053 17.1219L14.0479 16.7771L13.7666 15.44L12.124 15.7842Z" fill="black"/>
</svg>
