<svg width="24" height="24" viewBox="0 0 24 24" fill="none" xmlns="http://www.w3.org/2000/svg">
<path d="M21.1716 9.85812C20.4215 9.10806 20.0001 8.09078 20 7.03002V4.00002H16.97C15.9092 4.00001 14.8918 3.57857 14.1416 2.82842L12 0.686523L9.85812 2.82842C9.10806 3.5785 8.09078 3.99993 7.03002 4.00002H4.00002V7.03002C3.99993 8.09078 3.5785 9.10806 2.82842 9.85812L0.686523 12L2.82842 14.1419C3.5785 14.892 3.99993 15.9093 4.00002 16.97V20H7.03002C8.09088 20 9.10829 20.4215 9.85842 21.1716L12 23.3135L14.1419 21.1716C14.892 20.4215 15.9093 20.0001 16.97 20H20V16.97C20 15.9092 20.4215 14.8918 21.1716 14.1416L23.3135 12L21.1716 9.85812ZM12 16.15C11.7726 16.15 11.5502 16.0826 11.3611 15.9562C11.172 15.8299 11.0246 15.6502 10.9376 15.4401C10.8505 15.23 10.8277 14.9987 10.8721 14.7757C10.9165 14.5526 11.026 14.3477 11.1869 14.1869C11.3477 14.026 11.5526 13.9165 11.7757 13.8721C11.9987 13.8277 12.23 13.8505 12.4401 13.9376C12.6502 14.0246 12.8299 14.172 12.9562 14.3611C13.0826 14.5502 13.15 14.7726 13.15 15C13.15 15.305 13.0289 15.5975 12.8132 15.8132C12.5975 16.0289 12.305 16.15 12 16.15ZM12.7578 12.5H11.2422L10.7812 7.50002H13.2188L12.7578 12.5Z" fill="black"/>
</svg>
