<svg width="24" height="24" viewBox="0 0 24 24" fill="none" xmlns="http://www.w3.org/2000/svg">
<path d="M12.9879 13.9166H10.4833V12.4828H12.7078V11.4965H10.4833V10.0833H12.9879V9H9.3167V15H12.9879V13.9166ZM16.303 15L17.1458 10.4459L18.003 15H19.4745L20.7809 9H19.637L18.7338 13.5889L17.903 9H16.3939L15.5578 13.5889L14.6651 9H13.5108L14.8213 15H16.303ZM4.6275 11.1634L7.147 15H8.1234V9H6.9568V12.847L4.4254 9H3.4608V15H4.6275V11.1634ZM0 4V20H24V4H0ZM22.2 18.5H1.8V5.5H22.2V18.5Z" fill="black"/>
</svg>
