<svg width="24" height="24" viewBox="0 0 24 24" fill="none" xmlns="http://www.w3.org/2000/svg">
<path d="M12 2C10.0222 2 8.08879 2.58649 6.4443 3.6853C4.79981 4.78412 3.51809 6.3459 2.76121 8.17317C2.00433 10.0004 1.8063 12.0111 2.19215 13.9509C2.578 15.8907 3.53041 17.6725 4.92894 19.0711C6.32746 20.4696 8.10929 21.422 10.0491 21.8079C11.9889 22.1937 13.9996 21.9957 15.8268 21.2388C17.6541 20.4819 19.2159 19.2002 20.3147 17.5557C21.4135 15.9112 22 13.9778 22 12C22 10.6868 21.7413 9.38642 21.2388 8.17317C20.7363 6.95991 19.9997 5.85752 19.0711 4.92893C18.1425 4.00035 17.0401 3.26375 15.8268 2.7612C14.6136 2.25866 13.3132 2 12 2ZM12 20C10.4178 20 8.87104 19.5308 7.55544 18.6518C6.23985 17.7727 5.21447 16.5233 4.60897 15.0615C4.00347 13.5997 3.84504 11.9911 4.15372 10.4393C4.4624 8.88743 5.22433 7.46197 6.34315 6.34315C7.46197 5.22433 8.88743 4.4624 10.4393 4.15372C11.9911 3.84504 13.5997 4.00346 15.0615 4.60896C16.5233 5.21447 17.7727 6.23984 18.6518 7.55544C19.5308 8.87103 20 10.4177 20 12C19.9976 14.121 19.154 16.1544 17.6542 17.6542C16.1544 19.154 14.121 19.9976 12 20ZM11.8794 14.85C11.652 14.85 11.4296 14.9174 11.2405 15.0438C11.0514 15.1702 10.904 15.3498 10.8169 15.5599C10.7299 15.77 10.7071 16.0013 10.7515 16.2244C10.7959 16.4474 10.9054 16.6523 11.0662 16.8132C11.2271 16.974 11.432 17.0835 11.6551 17.1279C11.8781 17.1723 12.1094 17.1495 12.3195 17.0625C12.5296 16.9754 12.7092 16.828 12.8356 16.6389C12.962 16.4498 13.0294 16.2274 13.0294 16C13.0294 15.695 12.9082 15.4025 12.6926 15.1868C12.4769 14.9712 12.1844 14.85 11.8794 14.85ZM12.1377 6.9717C11.6746 6.96829 11.2161 7.0629 10.7922 7.2493C10.3682 7.4357 9.98856 7.70968 9.67806 8.05324C9.36755 8.39681 9.13325 8.80218 8.99053 9.24272C8.84782 9.68327 8.79993 10.149 8.85 10.6094H10.75C10.75 9.4888 11.2432 8.8721 12.1377 8.8721C12.4428 8.845 12.7465 8.93845 12.9836 9.13244C13.2206 9.32643 13.3724 9.60554 13.4062 9.91C13.4062 10.471 13.2207 10.6268 12.6338 11.035C12.1073 11.3255 11.6707 11.7552 11.372 12.2771C11.0733 12.799 10.9238 13.393 10.94 13.9941H12.84C12.84 13.2051 13.133 13.001 13.718 12.5947C14.2011 12.3331 14.6041 11.9451 14.8839 11.4723C15.1637 10.9994 15.3098 10.4594 15.3066 9.91C15.274 9.10085 14.9223 8.33752 14.3285 7.78692C13.7347 7.23631 12.947 6.94321 12.1377 6.9717Z" fill="black"/>
</svg>
