<svg width="24" height="24" viewBox="0 0 24 24" fill="none" xmlns="http://www.w3.org/2000/svg">
<path d="M1.95639 19.5C1.60135 18.8933 1.41422 18.2029 1.41422 17.5C1.41422 16.797 1.60135 16.1067 1.95639 15.5L5.27219 9.75668L5.84579 11.8967L6.32899 11.766L5.53829 8.81598L2.58369 9.60748L2.71439 10.0908L4.82929 9.52398L1.52339 15.25C1.12843 15.9341 0.920502 16.7101 0.920502 17.5C0.920501 18.2899 1.12843 19.0659 1.52338 19.75C1.91834 20.4341 2.48641 21.0021 3.17049 21.3971C3.85458 21.792 4.63057 22 5.42049 22H8.99999V21.5H5.41999C4.7171 21.5041 4.0258 21.321 3.41709 20.9695C2.80839 20.618 2.30422 20.1108 1.95639 19.5ZM15.4641 4.10398L18.78 9.84718L16.64 9.27368L16.5116 9.75738L19.4622 10.548L20.2539 7.59338L19.77 7.46498L19.2029 9.57998L15.8971 3.85398C15.5021 3.1699 14.9341 2.60184 14.25 2.20688C13.5659 1.81193 12.7899 1.604 12 1.604C11.2101 1.604 10.4341 1.81193 9.75 2.20688C9.06592 2.60184 8.49785 3.1699 8.10289 3.85398L6.31289 6.95398L6.74579 7.20398L8.53579 4.10398C8.88686 3.4959 9.39181 2.99095 9.99989 2.63988C10.608 2.28881 11.2977 2.10398 11.9999 2.10398C12.702 2.10398 13.3918 2.28881 13.9999 2.63988C14.608 2.99095 15.1129 3.4959 15.464 4.10398H15.4641ZM22.4766 15.25L20.6866 12.15L20.2537 12.4L22.0437 15.5C22.3948 16.1081 22.5796 16.7978 22.5796 17.5C22.5796 18.2021 22.3948 18.8919 22.0437 19.5C21.6926 20.1081 21.1877 20.613 20.5796 20.9641C19.9715 21.3152 19.2817 21.5 18.5796 21.5H11.9478L13.5146 19.9331L13.16 19.58L11 21.74L13.1628 23.903L13.516 23.5483L11.9678 22H18.58C19.3699 21.9999 20.1458 21.7919 20.8298 21.3969C21.5138 21.0019 22.0818 20.4338 22.4767 19.7498C22.8716 19.0657 23.0795 18.2897 23.0795 17.4999C23.0794 16.71 22.8715 15.934 22.4766 15.25ZM13.9441 14.0255C13.9547 13.7668 13.9121 13.5087 13.8189 13.2672C13.7257 13.0257 13.5839 12.8059 13.4022 12.6215C13.2206 12.437 13.0029 12.2919 12.7629 12.195C12.5228 12.0982 12.2654 12.0517 12.0066 12.0584C11.6348 12.0615 11.2726 12.1772 10.9677 12.3901C10.6629 12.603 10.4296 12.9032 10.2986 13.2512C10.2986 10.892 11.3986 10.3837 12.1316 10.3837C12.3789 10.3797 12.6224 10.4447 12.8349 10.5712C13.0473 10.6978 13.2204 10.881 13.3347 11.1003L13.7625 10.8394C13.6045 10.5456 13.3688 10.3009 13.0812 10.132C12.7936 9.96301 12.4651 9.87629 12.1316 9.88128C10.9939 9.88128 9.77809 10.6951 9.77809 12.9791C9.77809 15.4376 10.9513 16.1191 11.9861 16.1191C12.2539 16.1159 12.5183 16.0586 12.7634 15.9505C13.0085 15.8425 13.2291 15.6859 13.4121 15.4903C13.595 15.2947 13.7365 15.0641 13.8279 14.8123C13.9193 14.5606 13.9589 14.2929 13.9441 14.0255ZM10.4963 14.0885C10.4934 13.8885 10.5303 13.69 10.6049 13.5045C10.6796 13.319 10.7904 13.1502 10.9309 13.008C11.0715 12.8657 11.239 12.7529 11.4236 12.6762C11.6082 12.5994 11.8063 12.5601 12.0063 12.5607C12.1993 12.5538 12.3915 12.5872 12.5709 12.6587C12.7502 12.7303 12.9127 12.8384 13.0479 12.9762C13.1832 13.114 13.2882 13.2785 13.3564 13.4591C13.4245 13.6398 13.4543 13.8327 13.4438 14.0255C13.4594 14.2258 13.434 14.4272 13.3691 14.6174C13.3042 14.8076 13.2012 14.9825 13.0663 15.1315C12.9315 15.2804 12.7676 15.4003 12.5848 15.4837C12.402 15.5672 12.2041 15.6124 12.0032 15.6167C11.8023 15.621 11.6027 15.5843 11.4165 15.5087C11.2303 15.4332 11.0615 15.3204 10.9204 15.1773C10.7793 15.0343 10.6688 14.8639 10.5959 14.6767C10.5229 14.4894 10.4889 14.2893 10.496 14.0885H10.4963Z" fill="black"/>
</svg>
