<svg width="24" height="24" viewBox="0 0 24 24" fill="none" xmlns="http://www.w3.org/2000/svg">
<path d="M0 5V19H24V5H0ZM23.5 18.5H0.5V5.5H23.5V18.5ZM4.5862 13.3779C4.8917 13.3779 5.19034 13.2873 5.44436 13.1176C5.69838 12.9479 5.89637 12.7067 6.0133 12.4245C6.13022 12.1422 6.16082 11.8317 6.10123 11.532C6.04165 11.2324 5.89454 10.9572 5.67853 10.7411C5.46252 10.5251 5.1873 10.378 4.88767 10.3184C4.58805 10.2588 4.27747 10.2894 3.99523 10.4063C3.71299 10.5232 3.47175 10.7211 3.30202 10.9752C3.13229 11.2292 3.0417 11.5278 3.0417 11.8333C3.0417 12.2429 3.20442 12.6358 3.49407 12.9255C3.78371 13.2151 4.17656 13.3779 4.5862 13.3779ZM4.5862 10.7888C4.79281 10.7888 4.99479 10.85 5.16659 10.9648C5.33839 11.0796 5.47229 11.2427 5.55137 11.4336C5.63044 11.6245 5.65114 11.8345 5.61083 12.0372C5.57053 12.2398 5.47104 12.4259 5.32494 12.572C5.17885 12.7181 4.99271 12.8176 4.79007 12.8579C4.58742 12.8982 4.37738 12.8775 4.1865 12.7985C3.99562 12.7194 3.83248 12.5855 3.71771 12.4137C3.60293 12.2419 3.54168 12.0399 3.5417 11.8333C3.54202 11.5564 3.65216 11.2909 3.84798 11.0951C4.04379 10.8993 4.30928 10.7891 4.5862 10.7888ZM9.5287 13.3779C9.8342 13.3779 10.1328 13.2873 10.3869 13.1176C10.6409 12.9479 10.8389 12.7067 10.9558 12.4245C11.0727 12.1422 11.1033 11.8317 11.0437 11.532C10.9841 11.2324 10.837 10.9572 10.621 10.7411C10.405 10.5251 10.1298 10.378 9.83017 10.3184C9.53055 10.2588 9.21997 10.2894 8.93773 10.4063C8.65549 10.5232 8.41425 10.7211 8.24452 10.9752C8.07479 11.2292 7.9842 11.5278 7.9842 11.8333C7.9842 12.2429 8.14692 12.6358 8.43657 12.9255C8.72621 13.2151 9.11906 13.3779 9.5287 13.3779ZM9.5287 10.7888C9.73531 10.7888 9.93729 10.85 10.1091 10.9648C10.2809 11.0796 10.4148 11.2427 10.4939 11.4336C10.5729 11.6245 10.5936 11.8345 10.5533 12.0372C10.513 12.2398 10.4135 12.4259 10.2674 12.572C10.1213 12.7181 9.93521 12.8176 9.73257 12.8579C9.52993 12.8982 9.31988 12.8775 9.129 12.7985C8.93812 12.7194 8.77498 12.5855 8.6602 12.4137C8.54543 12.2419 8.48418 12.0399 8.4842 11.8333C8.48454 11.5564 8.5947 11.2909 8.79051 11.0951C8.98631 10.8993 9.25179 10.7891 9.5287 10.7888ZM14.4713 13.3779C14.7768 13.3779 15.0754 13.2873 15.3295 13.1176C15.5835 12.9479 15.7815 12.7067 15.8984 12.4245C16.0153 12.1422 16.0459 11.8317 15.9863 11.532C15.9267 11.2324 15.7796 10.9572 15.5636 10.7411C15.3476 10.5251 15.0724 10.378 14.7728 10.3184C14.4731 10.2588 14.1626 10.2894 13.8803 10.4063C13.5981 10.5232 13.3568 10.7211 13.1871 10.9752C13.0174 11.2292 12.9268 11.5278 12.9268 11.8333C12.9268 12.2429 13.0895 12.6358 13.3792 12.9255C13.6688 13.2151 14.0617 13.3779 14.4713 13.3779ZM14.4713 10.7888C14.6779 10.7888 14.8799 10.85 15.0517 10.9648C15.2235 11.0796 15.3574 11.2427 15.4365 11.4336C15.5155 11.6245 15.5362 11.8345 15.4959 12.0372C15.4556 12.2398 15.3561 12.4259 15.21 12.572C15.0639 12.7181 14.8778 12.8176 14.6752 12.8579C14.4725 12.8982 14.2625 12.8775 14.0716 12.7985C13.8807 12.7194 13.7176 12.5855 13.6028 12.4137C13.488 12.2419 13.4268 12.0399 13.4268 11.8333C13.4271 11.5564 13.5373 11.2909 13.7331 11.0951C13.9289 10.8993 14.1944 10.7891 14.4713 10.7888ZM19.4138 13.3779C19.7193 13.3779 20.0179 13.2873 20.272 13.1176C20.526 12.9479 20.724 12.7067 20.8409 12.4245C20.9578 12.1422 20.9884 11.8317 20.9288 11.532C20.8692 11.2324 20.7221 10.9572 20.5061 10.7411C20.2901 10.5251 20.0149 10.378 19.7153 10.3184C19.4156 10.2588 19.1051 10.2894 18.8228 10.4063C18.5406 10.5232 18.2993 10.7211 18.1296 10.9752C17.9599 11.2292 17.8693 11.5278 17.8693 11.8333C17.8693 12.2429 18.032 12.6358 18.3217 12.9255C18.6113 13.2151 19.0042 13.3779 19.4138 13.3779ZM19.4138 10.7888C19.6204 10.7888 19.8224 10.85 19.9942 10.9648C20.166 11.0796 20.2999 11.2427 20.379 11.4336C20.458 11.6245 20.4787 11.8345 20.4384 12.0372C20.3981 12.2398 20.2986 12.4259 20.1525 12.572C20.0064 12.7181 19.8203 12.8176 19.6177 12.8579C19.415 12.8982 19.205 12.8775 19.0141 12.7985C18.8232 12.7194 18.6601 12.5855 18.5453 12.4137C18.4305 12.2419 18.3693 12.0399 18.3693 11.8333C18.3696 11.5564 18.4798 11.2909 18.6756 11.0951C18.8714 10.8993 19.1369 10.7891 19.4138 10.7888Z" fill="black"/>
</svg>
