<svg width="24" height="24" viewBox="0 0 24 24" fill="none" xmlns="http://www.w3.org/2000/svg">
<path d="M19.1832 10.5H18.4432V11.6705H19.1832C19.2635 11.6704 19.3405 11.6384 19.3973 11.5816C19.4541 11.5248 19.4861 11.4478 19.4862 11.3675V10.8029C19.4861 10.7226 19.4541 10.6456 19.3973 10.5888C19.3405 10.532 19.2635 10.5001 19.1832 10.5ZM1 4V20H23V4H1ZM7.4693 15H5.9693V12.6043H4.4693V15H2.9693V9H4.4693V11.375H5.9693V9H7.4693V15ZM16.3082 10.375H14.7288V15H13.2288V10.375H11.1958V15H9.6958V10.375H8.1163V9H16.3082V10.375ZM20.9862 11.3675C20.9862 11.6043 20.9396 11.8387 20.849 12.0575C20.7583 12.2762 20.6255 12.475 20.4581 12.6424C20.2907 12.8098 20.0919 12.9426 19.8732 13.0333C19.6544 13.1239 19.42 13.1705 19.1832 13.1705H18.4432V15H16.9432V9H19.1832C19.42 8.99999 19.6544 9.04661 19.8732 9.13721C20.0919 9.22781 20.2907 9.36061 20.4581 9.52802C20.6255 9.69544 20.7583 9.89419 20.849 10.1129C20.9396 10.3317 20.9862 10.5661 20.9862 10.8029V11.3675Z" fill="black"/>
</svg>
