<svg width="24" height="24" viewBox="0 0 24 24" fill="none" xmlns="http://www.w3.org/2000/svg">
<path d="M21.1716 9.85812C20.4215 9.10806 20.0001 8.09078 20 7.03002V4.00002H16.97C15.9092 4.00001 14.8918 3.57857 14.1416 2.82842L12 0.686523L9.85812 2.82842C9.10806 3.5785 8.09078 3.99993 7.03002 4.00002H4.00002V7.03002C3.99993 8.09078 3.5785 9.10806 2.82842 9.85812L0.686523 12L2.82842 14.1419C3.5785 14.892 3.99993 15.9093 4.00002 16.97V20H7.03002C8.09088 20 9.10829 20.4215 9.85842 21.1716L12 23.3135L14.1419 21.1716C14.892 20.4215 15.9093 20.0001 16.97 20H20V16.97C20 15.9092 20.4215 14.8918 21.1716 14.1416L23.3135 12L21.1716 9.85812ZM12.35 7.50002L12.2177 12.5H11.7823L11.65 7.50002H12.35ZM12 15.7781C11.911 15.7781 11.824 15.7517 11.75 15.7023C11.676 15.6528 11.6183 15.5826 11.5843 15.5003C11.5502 15.4181 11.5413 15.3276 11.5587 15.2403C11.576 15.153 11.6189 15.0729 11.6818 15.0099C11.7448 14.947 11.8249 14.9041 11.9122 14.8868C11.9995 14.8694 12.09 14.8783 12.1722 14.9124C12.2545 14.9464 12.3247 15.0041 12.3742 15.0781C12.4236 15.1521 12.45 15.2391 12.45 15.3281C12.45 15.4475 12.4026 15.5619 12.3182 15.6463C12.2338 15.7307 12.1194 15.7781 12 15.7781Z" fill="black"/>
</svg>
