<svg width="24" height="24" viewBox="0 0 24 24" fill="none" xmlns="http://www.w3.org/2000/svg">
<path d="M12 0L0 12L12 24L24 12L12 0ZM13.2188 7.5L12.7578 12.5H11.2422L10.7812 7.5H13.2188ZM12 16.15C11.7726 16.15 11.5502 16.0826 11.3611 15.9562C11.172 15.8298 11.0246 15.6502 10.9375 15.4401C10.8505 15.23 10.8277 14.9987 10.8721 14.7756C10.9165 14.5526 11.026 14.3477 11.1868 14.1868C11.3477 14.026 11.5526 13.9165 11.7756 13.8721C11.9987 13.8277 12.23 13.8505 12.4401 13.9375C12.6502 14.0246 12.8298 14.172 12.9562 14.3611C13.0826 14.5502 13.15 14.7726 13.15 15C13.15 15.305 13.0288 15.5975 12.8132 15.8132C12.5975 16.0288 12.305 16.15 12 16.15Z" fill="black"/>
</svg>
