<svg width="24" height="24" viewBox="0 0 24 24" fill="none" xmlns="http://www.w3.org/2000/svg">
<path d="M7.29 12.24H10.79V15H11.29V9H10.79V11.74H7.29V9H6.79V15H7.29V12.24ZM17.5938 12.8683V11.132C17.5938 10.5666 17.3692 10.0243 16.9694 9.62452C16.5696 9.2247 16.0274 9.00005 15.462 9H12.79V15H15.462C15.742 15 16.0192 14.9449 16.2779 14.8377C16.5366 14.7306 16.7716 14.5735 16.9696 14.3755C17.1676 14.1775 17.3247 13.9425 17.4318 13.6838C17.5389 13.4251 17.5941 13.1479 17.5941 12.8679L17.5938 12.8683ZM13.29 9.5H15.462C15.8947 9.50048 16.3095 9.67257 16.6155 9.97852C16.9215 10.2845 17.0936 10.6993 17.0941 11.132V12.8679C17.0936 13.3006 16.9215 13.7155 16.6155 14.0214C16.3096 14.3274 15.8947 14.4995 15.462 14.5H13.29V9.5ZM1 4V20H23V4H1ZM22.5 19.5H1.5V4.5H22.5V19.5Z" fill="black"/>
</svg>
