<svg width="24" height="24" viewBox="0 0 24 24" fill="none" xmlns="http://www.w3.org/2000/svg">
<path d="M6.369 12.7556H8.3564C8.56943 12.7556 8.78037 12.7137 8.97718 12.6322C9.174 12.5506 9.35283 12.4312 9.50346 12.2805C9.6541 12.1299 9.77359 11.9511 9.85512 11.7543C9.93664 11.5575 9.9786 11.3465 9.9786 11.1335V10.6221C9.9786 10.4091 9.93664 10.1981 9.85512 10.0013C9.77359 9.80452 9.6541 9.62569 9.50346 9.47507C9.35283 9.32444 9.174 9.20496 8.97718 9.12345C8.78037 9.04193 8.56943 8.99999 8.3564 9H5.5357V15H6.369V12.7556ZM6.369 9.8333H8.3564C8.56551 9.83362 8.76596 9.91682 8.91382 10.0647C9.06168 10.2125 9.14488 10.413 9.1452 10.6221V11.1335C9.14488 11.3426 9.06168 11.5431 8.91382 11.6909C8.76596 11.8388 8.56551 11.922 8.3564 11.9223H6.369V9.8333ZM12.2406 9H11.4072V15H12.2406V9ZM14.9052 10.55L17.9117 15H18.6128V9H17.78V13.4588L14.7626 9H14.0718V15H14.9052V10.55ZM1 4V20H23V4H1ZM22 19H2V5H22V19Z" fill="black"/>
</svg>
