<svg width="24" height="24" viewBox="0 0 24 24" fill="none" xmlns="http://www.w3.org/2000/svg">
<path d="M18.3218 15.9678C18.3218 13.6025 16.3901 11.8878 13.0218 11.2627L12.3982 11.1527C11.9676 11.0775 11.4549 10.9887 11.3382 10.9652C9.076 10.5131 7.7782 9.3412 7.7782 7.7504C7.7782 4.9672 11.0434 4.7504 12.0439 4.7504C12.7488 4.7504 16.0939 4.9129 16.5009 7.9378H18.006C17.6836 4.6465 14.8546 3.4945 12.75 3.2886V1H11.25V3.3015C8.2113 3.5544 6.2778 5.2329 6.2778 7.75C6.2778 10.0869 8.0596 11.8389 11.0439 12.4355C11.1639 12.46 11.6939 12.5527 12.1401 12.6299L12.7485 12.7373C13.9731 12.9648 16.8218 13.7344 16.8218 15.9678C16.8218 17.915 14.9028 19.2334 12.0469 19.25C10.6213 19.3213 9.2185 18.8706 8.1011 17.9824C7.56188 17.4241 7.24535 16.6879 7.2111 15.9124H5.7135C5.75025 17.0863 6.22466 18.204 7.0435 19.0459C8.2061 20.0795 9.69508 20.6714 11.25 20.7182V23H12.75V20.7233C16.1113 20.4821 18.3218 18.6275 18.3218 15.9678Z" fill="black"/>
</svg>
