<svg width="24" height="24" viewBox="0 0 24 24" fill="none" xmlns="http://www.w3.org/2000/svg">
<path d="M12.1072 21.2831H11.8928C10.083 21.2811 8.34797 20.5612 7.06827 19.2815C5.78857 18.0018 5.06874 16.2668 5.0667 14.457V14.3331H12.8334L13.3334 13.3331H5.0667V10.6664H14.5L15 9.66641H5.0667V9.54261C5.06874 7.73284 5.78857 5.99776 7.06826 4.71805C8.34796 3.43833 10.083 2.71848 11.8928 2.71641H12.1072C13.2452 2.71736 14.3648 3.00297 15.3642 3.54722C16.3636 4.09148 17.2109 4.87709 17.8291 5.83251L18.7191 5.23941C18.0037 4.13732 17.0241 3.23158 15.8694 2.60459C14.7147 1.9776 13.4215 1.64925 12.1076 1.64941H11.8932C10.8566 1.64936 9.83021 1.85349 8.87254 2.25014C7.91487 2.64679 7.04471 3.2282 6.31175 3.96116C5.57879 4.69412 4.99738 5.56428 4.60073 6.52196C4.20408 7.47963 3.99995 8.50605 4 9.54261V9.66641H2L1.5 10.6664H4V13.3331H2L1.5 14.3331H4V14.457C4.00003 16.5503 4.8316 18.5579 6.31178 20.038C7.79196 21.5182 9.79951 22.3498 11.8928 22.3498H12.1072C13.4211 22.35 14.7143 22.0216 15.869 21.3946C17.0237 20.7676 18.0033 19.8619 18.7187 18.7598L17.8287 18.1667C17.2106 19.1221 16.3633 19.9078 15.364 20.4521C14.3647 20.9964 13.2451 21.2821 12.1072 21.2831Z" fill="black"/>
</svg>
