<svg width="24" height="24" viewBox="0 0 24 24" fill="none" xmlns="http://www.w3.org/2000/svg">
<path d="M12 2C10.0222 2 8.08879 2.58649 6.4443 3.6853C4.79981 4.78412 3.51809 6.3459 2.76121 8.17317C2.00433 10.0004 1.8063 12.0111 2.19215 13.9509C2.578 15.8907 3.53041 17.6725 4.92894 19.0711C6.32746 20.4696 8.10929 21.422 10.0491 21.8079C11.9889 22.1937 13.9996 21.9957 15.8268 21.2388C17.6541 20.4819 19.2159 19.2002 20.3147 17.5557C21.4135 15.9112 22 13.9778 22 12C22 10.6868 21.7413 9.38642 21.2388 8.17317C20.7363 6.95991 19.9997 5.85752 19.0711 4.92893C18.1425 4.00035 17.0401 3.26375 15.8268 2.7612C14.6136 2.25866 13.3132 2 12 2ZM12 20.5C10.3189 20.5 8.67548 20.0015 7.27766 19.0675C5.87984 18.1335 4.79037 16.806 4.14703 15.2528C3.50368 13.6996 3.33536 11.9906 3.66333 10.3417C3.9913 8.69289 4.80085 7.17834 5.9896 5.98959C7.17834 4.80085 8.6929 3.9913 10.3417 3.66333C11.9906 3.33535 13.6996 3.50368 15.2528 4.14702C16.806 4.79037 18.1335 5.87984 19.0675 7.27765C20.0015 8.67547 20.5 10.3189 20.5 12C20.4974 14.2535 19.601 16.414 18.0075 18.0075C16.414 19.601 14.2535 20.4974 12 20.5ZM12.6683 7H11.4472C10.5698 7 9.72831 7.34855 9.10788 7.96898C8.48746 8.58941 8.1389 9.43088 8.1389 10.3083V13.6917C8.1389 14.5691 8.48746 15.4106 9.10788 16.031C9.72831 16.6514 10.5698 17 11.4472 17H12.6683C13.0876 17 13.5028 16.9174 13.8901 16.757C14.2775 16.5965 14.6295 16.3613 14.926 16.0648C15.2224 15.7684 15.4576 15.4164 15.6181 15.029C15.7785 14.6417 15.8611 14.2265 15.8611 13.8072V13.6353H14.3611V13.8072C14.3606 14.256 14.1821 14.6863 13.8647 15.0036C13.5474 15.321 13.1171 15.4995 12.6683 15.5H11.4472C10.9678 15.4995 10.5081 15.3089 10.169 14.9699C9.83002 14.6308 9.63935 14.1712 9.6389 13.6917V10.3083C9.63935 9.82885 9.83002 9.36916 10.169 9.03014C10.5081 8.69111 10.9678 8.50045 11.4472 8.5H12.6683C13.1171 8.50048 13.5474 8.67896 13.8647 8.9963C14.1821 9.31364 14.3606 9.74391 14.3611 10.1927V10.3647H15.8611V10.1927C15.8611 9.34593 15.5247 8.53386 14.9259 7.93511C14.3272 7.33637 13.5151 7 12.6683 7Z" fill="#231F20"/>
</svg>
