<svg width="24" height="24" viewBox="0 0 24 24" fill="none" xmlns="http://www.w3.org/2000/svg">
<path d="M15.4141 2H4V22H20V6.5859L15.4141 2ZM18.5 20.5H5.5V3.5H14.7927L18.5 7.2073V20.5ZM9.0461 9.6564H13.5389V12.1245C13.2485 11.6087 12.7954 11.2036 12.2504 10.9726C11.7054 10.7416 11.0992 10.6978 10.5266 10.8479C9.95395 10.998 9.44723 11.3336 9.0856 11.8022C8.72397 12.2708 8.52782 12.8461 8.52782 13.4381C8.52782 14.03 8.72397 14.6053 9.0856 15.0739C9.44723 15.5425 9.95395 15.8781 10.5266 16.0282C11.0992 16.1783 11.7054 16.1345 12.2504 15.9035C12.7954 15.6725 13.2485 15.2674 13.5389 14.7516V16H14.928V8.3H9.0461V9.6564ZM11.2061 14.8157C10.9342 14.8129 10.6693 14.7297 10.4446 14.5766C10.22 14.4235 10.0456 14.2074 9.94351 13.9554C9.84143 13.7034 9.81618 13.4269 9.87094 13.1606C9.9257 12.8943 10.058 12.6501 10.2513 12.4589C10.4445 12.2676 10.69 12.1378 10.9568 12.0858C11.2237 12.0338 11.5 12.0619 11.7509 12.1666C12.0018 12.2713 12.2161 12.4479 12.3669 12.6741C12.5176 12.9003 12.5981 13.1661 12.5981 13.438C12.5958 13.8051 12.448 14.1563 12.1871 14.4146C11.9263 14.6728 11.5736 14.8171 11.2065 14.8157H11.2061Z" fill="black"/>
</svg>
