<svg width="24" height="24" viewBox="0 0 24 24" fill="none" xmlns="http://www.w3.org/2000/svg">
<path d="M12 2C10.0222 2 8.08879 2.58649 6.4443 3.6853C4.79981 4.78412 3.51809 6.3459 2.76121 8.17317C2.00433 10.0004 1.8063 12.0111 2.19215 13.9509C2.578 15.8907 3.53041 17.6725 4.92894 19.0711C6.32746 20.4696 8.10929 21.422 10.0491 21.8079C11.9889 22.1937 13.9996 21.9957 15.8268 21.2388C17.6541 20.4819 19.2159 19.2002 20.3147 17.5557C21.4135 15.9112 22 13.9778 22 12C22 10.6868 21.7413 9.38642 21.2388 8.17317C20.7363 6.95991 19.9997 5.85752 19.0711 4.92893C18.1425 4.00035 17.0401 3.26375 15.8268 2.7612C14.6136 2.25866 13.3132 2 12 2ZM11.8794 16.902C11.7443 16.902 11.6121 16.8619 11.4998 16.7868C11.3874 16.7118 11.2998 16.605 11.2481 16.4802C11.1964 16.3553 11.1829 16.2179 11.2092 16.0854C11.2356 15.9528 11.3007 15.8311 11.3963 15.7355C11.4918 15.6399 11.6136 15.5749 11.7462 15.5485C11.8787 15.5222 12.0161 15.5357 12.141 15.5874C12.2658 15.6392 12.3725 15.7268 12.4476 15.8392C12.5227 15.9515 12.5627 16.0837 12.5627 16.2188C12.5627 16.4 12.4907 16.5738 12.3625 16.7019C12.2344 16.83 12.0606 16.902 11.8794 16.902ZM13.6455 12.0039C13.2588 12.1719 12.9304 12.4504 12.7016 12.8045C12.4728 13.1585 12.3537 13.5724 12.3594 13.9939H11.3926C11.3858 13.414 11.5432 12.844 11.8467 12.3498C12.1501 11.8556 12.5872 11.4573 13.1074 11.201C13.8105 10.7293 14.208 10.4246 14.208 9.656C14.1535 9.15803 13.9074 8.7008 13.5217 8.38112C13.136 8.06143 12.641 7.90438 12.1416 7.9432C10.8701 7.9432 10.1104 8.8432 10.1104 10.3514H9.1436C9.1436 7.8602 10.7588 6.9764 12.1416 6.9764C12.517 6.95205 12.8935 7.00216 13.2494 7.12386C13.6054 7.24555 13.9337 7.43643 14.2156 7.6855C14.4975 7.93458 14.7274 8.23693 14.892 8.57518C15.0566 8.91342 15.1527 9.28088 15.1748 9.6564C15.1606 10.1505 15.0103 10.6312 14.7405 11.0454C14.4707 11.4596 14.0918 11.7913 13.6455 12.0039Z" fill="black"/>
</svg>
