<svg width="24" height="24" viewBox="0 0 24 24" fill="none" xmlns="http://www.w3.org/2000/svg">
<path d="M8.53 15H9.6337C10.1027 15 10.5524 14.8137 10.884 14.4821C11.2156 14.1505 11.4019 13.7008 11.4019 13.2318V13.1329H10.5686V13.2318C10.5683 13.4797 10.4697 13.7173 10.2944 13.8925C10.1192 14.0678 9.88155 14.1663 9.6337 14.1666H8.53C8.23876 14.1662 7.95957 14.0503 7.75365 13.8444C7.54772 13.6384 7.43187 13.3592 7.4315 13.068V10.9319C7.43187 10.6407 7.54772 10.3615 7.75365 10.1555C7.95957 9.94957 8.23876 9.8337 8.53 9.8333H9.6337C9.88156 9.83359 10.1192 9.93218 10.2945 10.1074C10.4697 10.2827 10.5683 10.5203 10.5686 10.7682V10.867H11.4019V10.7682C11.4019 10.536 11.3562 10.3061 11.2673 10.0915C11.1785 9.87699 11.0482 9.68206 10.884 9.51786C10.7198 9.35367 10.5249 9.22342 10.3104 9.13457C10.0958 9.04571 9.86591 8.99999 9.6337 9H8.53C8.27629 8.99999 8.02506 9.04995 7.79066 9.14703C7.55626 9.24411 7.34328 9.38641 7.16388 9.56581C6.98447 9.7452 6.84216 9.95818 6.74507 10.1926C6.64797 10.427 6.598 10.6782 6.598 10.9319V13.068C6.598 13.5804 6.80155 14.0718 7.16387 14.4341C7.52619 14.7965 8.0176 15 8.53 15ZM14.53 15H15.6336C16.1026 15 16.5523 14.8137 16.8839 14.4821C17.2155 14.1505 17.4018 13.7008 17.4018 13.2318V13.1329H16.5685V13.2318C16.5682 13.4797 16.4696 13.7173 16.2943 13.8925C16.1191 14.0678 15.8815 14.1663 15.6336 14.1666H14.53C14.2387 14.1662 13.9595 14.0504 13.7536 13.8444C13.5476 13.6385 13.4318 13.3593 13.4314 13.068V10.9319C13.4318 10.6406 13.5476 10.3614 13.7536 10.1555C13.9595 9.94953 14.2387 9.83367 14.53 9.8333H15.6336C15.8815 9.83359 16.1191 9.93218 16.2944 10.1074C16.4696 10.2827 16.5682 10.5203 16.5685 10.7682V10.867H17.4018V10.7682C17.4018 10.536 17.3561 10.3061 17.2672 10.0915C17.1784 9.87702 17.0482 9.68209 16.884 9.5179C16.7198 9.35371 16.5249 9.22346 16.3103 9.1346C16.0958 9.04574 15.8659 9 15.6337 9H14.53C14.2763 8.99999 14.0251 9.04995 13.7907 9.14703C13.5563 9.24411 13.3433 9.38641 13.1639 9.56581C12.9845 9.7452 12.8422 9.95818 12.7451 10.1926C12.648 10.427 12.598 10.6782 12.598 10.9319V13.068C12.598 13.5804 12.8015 14.0718 13.1639 14.4341C13.5262 14.7965 14.0176 15 14.53 15ZM1 4V20H23V4H1ZM22 19H2V5H22V19Z" fill="black"/>
</svg>
