<svg width="24" height="24" viewBox="0 0 24 24" fill="none" xmlns="http://www.w3.org/2000/svg">
<path d="M12.2177 13.5L12.35 7H11.65L11.7823 13.5H12.2177ZM12 2C10.0222 2 8.08879 2.58649 6.4443 3.6853C4.79981 4.78412 3.51809 6.3459 2.76121 8.17317C2.00433 10.0004 1.8063 12.0111 2.19215 13.9509C2.578 15.8907 3.53041 17.6725 4.92894 19.0711C6.32746 20.4696 8.10929 21.422 10.0491 21.8079C11.9889 22.1937 13.9996 21.9957 15.8268 21.2388C17.6541 20.4819 19.2159 19.2002 20.3147 17.5557C21.4135 15.9112 22 13.9778 22 12C22 10.6868 21.7413 9.38642 21.2388 8.17317C20.7363 6.95991 19.9997 5.85752 19.0711 4.92893C18.1425 4.00035 17.0401 3.26375 15.8268 2.7612C14.6136 2.25866 13.3132 2 12 2ZM12 21.5C10.1211 21.5 8.28435 20.9428 6.72209 19.899C5.15982 18.8551 3.94218 17.3714 3.22315 15.6355C2.50412 13.8996 2.31598 11.9895 2.68254 10.1466C3.0491 8.30382 3.95389 6.61108 5.28249 5.28249C6.61109 3.95389 8.30383 3.0491 10.1466 2.68254C11.9895 2.31598 13.8996 2.50411 15.6355 3.22314C17.3714 3.94218 18.8551 5.15982 19.899 6.72208C20.9428 8.28435 21.5 10.1211 21.5 12C21.4971 14.5187 20.4953 16.9334 18.7144 18.7144C16.9334 20.4953 14.5187 21.4971 12 21.5ZM12 15.8781C11.911 15.8781 11.824 15.9045 11.75 15.9539C11.676 16.0034 11.6183 16.0737 11.5843 16.1559C11.5502 16.2381 11.5413 16.3286 11.5587 16.4159C11.576 16.5032 11.6189 16.5834 11.6818 16.6463C11.7447 16.7092 11.8249 16.7521 11.9122 16.7695C11.9995 16.7868 12.09 16.7779 12.1722 16.7438C12.2544 16.7098 12.3247 16.6521 12.3742 16.5781C12.4236 16.5041 12.45 16.4171 12.45 16.3281C12.45 16.2088 12.4026 16.0943 12.3182 16.0099C12.2338 15.9255 12.1194 15.8781 12 15.8781Z" fill="black"/>
</svg>
