<svg width="24" height="24" viewBox="0 0 24 24" fill="none" xmlns="http://www.w3.org/2000/svg">
<path d="M1 4V20H23V4H1ZM10.4066 10.7819H9.5733V10.7682C9.57301 10.5203 9.47442 10.2827 9.29915 10.1074C9.12389 9.93218 8.88626 9.83359 8.6384 9.8333H7.5347C7.24346 9.8337 6.96427 9.94957 6.75835 10.1555C6.55242 10.3615 6.43657 10.6407 6.4362 10.9319V13.068C6.43657 13.3592 6.55242 13.6384 6.75835 13.8444C6.96427 14.0503 7.24346 14.1662 7.5347 14.1666H8.6384C8.88625 14.1663 9.12388 14.0678 9.29915 13.8925C9.47441 13.7173 9.57301 13.4797 9.5733 13.2318V12.5485H8.1733V11.8333H10.4063V13.2318C10.4063 13.7007 10.22 14.1504 9.88848 14.482C9.55695 14.8136 9.1073 14.9999 8.6384 15H7.5347C7.28099 15 7.02977 14.95 6.79537 14.8529C6.56098 14.7558 6.348 14.6135 6.1686 14.4341C5.98921 14.2547 5.84691 14.0417 5.74983 13.8073C5.65275 13.5729 5.60279 13.3217 5.6028 13.068V10.9319C5.60279 10.6782 5.65275 10.427 5.74983 10.1926C5.84691 9.95818 5.98921 9.74521 6.16861 9.56581C6.34801 9.38642 6.56098 9.24411 6.79538 9.14703C7.02977 9.04995 7.281 8.99999 7.5347 9H8.6384C9.10736 9 9.5571 9.18629 9.88871 9.51789C10.2203 9.8495 10.4066 10.2992 10.4066 10.7682V10.7819ZM12.7292 15H11.8959V9H12.7292V15ZM18.6056 9.7916H15.4361V11.8658H18.3261V12.6089H15.4361V15H14.6028V9H18.6056V9.7916Z" fill="black"/>
</svg>
