<svg width="24" height="24" viewBox="0 0 24 24" fill="none" xmlns="http://www.w3.org/2000/svg">
<path d="M15.031 4.35398L17.8636 9.25998L16.4521 8.88188L16.1934 9.84768L19.2539 10.6677L20.0739 7.60768L19.1079 7.34888L18.73 8.75998L15.8971 3.85398C15.5021 3.1699 14.9341 2.60184 14.25 2.20688C13.5659 1.81193 12.7899 1.604 12 1.604C11.2101 1.604 10.4341 1.81193 9.75002 2.20688C9.06593 2.60184 8.49786 3.1699 8.1029 3.85398L6.3129 6.95398L7.1789 7.45398L8.9689 4.35398C9.2761 3.82193 9.71793 3.38011 10.25 3.07294C10.782 2.76576 11.3856 2.60405 12 2.60405C12.6143 2.60405 13.2179 2.76576 13.7499 3.07294C14.282 3.38011 14.7238 3.82193 15.031 4.35398ZM2.3894 19.25C2.07869 18.7191 1.91491 18.1151 1.91491 17.5C1.91491 16.8849 2.07869 16.2808 2.3894 15.75L5.222 10.8438L5.6 12.2552L6.5659 11.9965L5.7459 8.93648L2.6859 9.75648L2.9447 10.7224L4.3563 10.3443L1.5234 15.25C1.12845 15.9341 0.920518 16.7101 0.920517 17.5C0.920516 18.2899 1.12844 19.0659 1.5234 19.75C1.91835 20.4341 2.48642 21.0021 3.17051 21.3971C3.85459 21.792 4.63059 22 5.4205 22H9V21H5.42C4.80499 21.0035 4.20011 20.8433 3.66751 20.5357C3.1349 20.2282 2.69376 19.7844 2.3894 19.25ZM22.4766 15.25L20.6866 12.15L19.8206 12.65L21.6106 15.75C21.9178 16.282 22.0795 16.8855 22.0795 17.4999C22.0795 18.1142 21.9179 18.7177 21.6107 19.2498C21.3036 19.7818 20.8618 20.2237 20.3298 20.5309C19.7978 20.8381 19.1943 20.9999 18.58 21H12.9143L13.9475 19.9667L13.2405 19.2596L11 21.5L13.24 23.74L13.9471 23.0329L12.9143 22H18.58C19.3699 21.9999 20.1458 21.7919 20.8298 21.3969C21.5138 21.0019 22.0818 20.4338 22.4767 19.7498C22.8716 19.0657 23.0795 18.2897 23.0795 17.4999C23.0795 16.71 22.8715 15.934 22.4766 15.25ZM14.04 14.3509C14.0383 13.9967 13.9131 13.6542 13.686 13.3823C13.4589 13.1105 13.1441 12.9263 12.7959 12.8616C13.0778 12.7609 13.3229 12.578 13.4996 12.3364C13.6763 12.0948 13.7764 11.8058 13.787 11.5067C13.775 11.2694 13.7141 11.0371 13.6082 10.8244C13.5023 10.6117 13.3537 10.4231 13.1716 10.2704C12.9895 10.1178 12.7779 10.0043 12.55 9.93719C12.3221 9.87004 12.0828 9.85063 11.847 9.88018C11.4376 9.86205 11.0325 9.97069 10.6871 10.1913C10.3417 10.4118 10.0728 10.7336 9.917 11.1127L10.5956 11.4055C10.7035 11.1595 10.8816 10.9508 11.1074 10.8054C11.3333 10.66 11.597 10.5844 11.8656 10.588C12.004 10.5759 12.1433 10.5921 12.2752 10.6356C12.4071 10.6791 12.5288 10.749 12.6328 10.841C12.7368 10.933 12.8211 11.0452 12.8804 11.1708C12.9397 11.2963 12.9728 11.4327 12.9777 11.5715C12.9734 11.7128 12.9405 11.8517 12.8809 11.98C12.8214 12.1082 12.7364 12.2229 12.6312 12.3174C12.526 12.4118 12.4027 12.4839 12.2688 12.5293C12.1349 12.5747 11.9932 12.5924 11.8523 12.5815H11.2633V13.2453H11.8773C12.6973 13.2453 13.2124 13.6523 13.2124 14.3104C13.1993 14.47 13.1548 14.6254 13.0812 14.7677C13.0077 14.9099 12.9067 15.0362 12.7841 15.1392C12.6615 15.2422 12.5197 15.3199 12.3669 15.3677C12.2141 15.4156 12.0533 15.4327 11.8938 15.418C11.5835 15.4152 11.2807 15.3227 11.0219 15.1516C10.763 14.9805 10.5592 14.7382 10.435 14.4539L9.7956 14.7593C9.9527 15.1798 10.2404 15.5389 10.6166 15.7839C10.9927 16.029 11.4375 16.147 11.8856 16.1208C13.0645 16.1207 14.04 15.4739 14.04 14.3509Z" fill="black"/>
</svg>
