<svg width="24" height="24" viewBox="0 0 24 24" fill="none" xmlns="http://www.w3.org/2000/svg">
<path d="M16.1416 2H7.8584L2 7.8579V16.1416L7.8584 22H16.1416L22 16.1416V7.8579L16.1416 2ZM21.5 15.9345L15.9345 21.5H8.0655L2.5 15.9345V8.065L8.0655 2.5H15.9345L21.5 8.065V15.9345ZM12.2177 13.5L12.35 7H11.65L11.7823 13.5H12.2177ZM12 15.8781C11.911 15.8781 11.824 15.9045 11.75 15.9539C11.676 16.0034 11.6183 16.0737 11.5843 16.1559C11.5502 16.2381 11.5413 16.3286 11.5586 16.4159C11.576 16.5032 11.6189 16.5834 11.6818 16.6463C11.7447 16.7092 11.8249 16.7521 11.9122 16.7695C11.9995 16.7868 12.09 16.7779 12.1722 16.7438C12.2544 16.7098 12.3247 16.6521 12.3742 16.5781C12.4236 16.5041 12.45 16.4171 12.45 16.3281C12.45 16.2088 12.4026 16.0943 12.3182 16.0099C12.2338 15.9255 12.1193 15.8781 12 15.8781Z" fill="black"/>
</svg>
