<svg width="24" height="24" viewBox="0 0 24 24" fill="none" xmlns="http://www.w3.org/2000/svg">
<path d="M21.1716 9.85812C20.4215 9.10806 20.0001 8.09078 20 7.03002V4.00002H16.97C15.9092 4.00001 14.8918 3.57857 14.1416 2.82842L12 0.686523L9.85812 2.82842C9.10806 3.5785 8.09078 3.99993 7.03002 4.00002H4.00002V7.03002C3.99993 8.09078 3.5785 9.10806 2.82842 9.85812L0.686523 12L2.82842 14.1419C3.5785 14.892 3.99993 15.9093 4.00002 16.97V20H7.03002C8.09088 20 9.10829 20.4215 9.85842 21.1716L12 23.3135L14.1419 21.1716C14.892 20.4215 15.9093 20.0001 16.97 20H20V16.97C20 15.9092 20.4215 14.8918 21.1716 14.1416L23.3135 12L21.1716 9.85812ZM12 16.026C11.8187 16.026 11.6415 15.9723 11.4907 15.8715C11.34 15.7708 11.2225 15.6276 11.1531 15.4601C11.0837 15.2926 11.0656 15.1083 11.1009 14.9304C11.1363 14.7526 11.2236 14.5893 11.3519 14.4611C11.4801 14.3329 11.6434 14.2456 11.8212 14.2102C11.9991 14.1749 12.1834 14.193 12.3509 14.2624C12.5184 14.3318 12.6616 14.4493 12.7623 14.6001C12.863 14.7509 12.9167 14.9281 12.9167 15.1094C12.9167 15.3525 12.8201 15.5857 12.6482 15.7576C12.4763 15.9295 12.2431 16.026 12 16.026ZM12.5907 12.5H11.4093L11.05 7.50002H12.95L12.5907 12.5Z" fill="black"/>
</svg>
