<svg width="24" height="24" viewBox="0 0 24 24" fill="none" xmlns="http://www.w3.org/2000/svg">
<path d="M12.7578 12.5L13.2188 7.5H10.7812L11.2422 12.5H12.7578ZM12 13.85C11.7726 13.85 11.5502 13.9174 11.3611 14.0438C11.172 14.1702 11.0246 14.3498 10.9375 14.5599C10.8505 14.77 10.8277 15.0013 10.8721 15.2244C10.9165 15.4474 11.026 15.6523 11.1868 15.8132C11.3477 15.974 11.5526 16.0835 11.7756 16.1279C11.9987 16.1723 12.23 16.1495 12.4401 16.0625C12.6502 15.9754 12.8298 15.828 12.9562 15.6389C13.0826 15.4498 13.15 15.2274 13.15 15C13.15 14.695 13.0288 14.4025 12.8132 14.1868C12.5975 13.9712 12.305 13.85 12 13.85ZM12 0L0 12L12 24L24 12L12 0ZM2.8284 12L12 2.8284L21.1716 12L12 21.1716L2.8284 12Z" fill="black"/>
</svg>
