<svg width="24" height="24" viewBox="0 0 24 24" fill="none" xmlns="http://www.w3.org/2000/svg">
<path d="M12 2C10.0222 2 8.08879 2.58649 6.4443 3.6853C4.79981 4.78412 3.51809 6.3459 2.76121 8.17317C2.00433 10.0004 1.8063 12.0111 2.19215 13.9509C2.578 15.8907 3.53041 17.6725 4.92894 19.0711C6.32746 20.4696 8.10929 21.422 10.0491 21.8079C11.9889 22.1937 13.9996 21.9957 15.8268 21.2388C17.6541 20.4819 19.2159 19.2002 20.3147 17.5557C21.4135 15.9112 22 13.9778 22 12C22 10.6868 21.7413 9.38642 21.2388 8.17317C20.7363 6.95991 19.9997 5.85752 19.0711 4.92893C18.1425 4.00035 17.0401 3.26375 15.8268 2.7612C14.6136 2.25866 13.3132 2 12 2ZM12.49 6.85C12.6713 6.85 12.8485 6.90375 12.9992 7.00446C13.1499 7.10516 13.2674 7.2483 13.3367 7.41577C13.4061 7.58324 13.4243 7.76752 13.3889 7.9453C13.3535 8.12308 13.2662 8.28639 13.1381 8.41456C13.0099 8.54274 12.8466 8.63003 12.6688 8.66539C12.491 8.70075 12.3067 8.6826 12.1393 8.61324C11.9718 8.54387 11.8287 8.4264 11.728 8.27568C11.6273 8.12496 11.5735 7.94777 11.5735 7.7665C11.5735 7.64614 11.5972 7.52696 11.6432 7.41576C11.6893 7.30455 11.7568 7.20351 11.8419 7.11841C11.927 7.0333 12.0281 6.96579 12.1393 6.91974C12.2505 6.87368 12.3696 6.84999 12.49 6.85ZM12.4056 17.1221C12.2996 17.1442 12.1916 17.1553 12.0833 17.1553C11.8491 17.1548 11.6181 17.1013 11.4075 16.9988C11.1969 16.8964 11.0122 16.7477 10.8671 16.5638C10.7221 16.3799 10.6206 16.1656 10.5701 15.9369C10.5196 15.7082 10.5214 15.4711 10.5755 15.2432L11.3548 11.9707C11.3632 11.9401 11.3632 11.9078 11.3548 11.8772C11.3464 11.8466 11.3298 11.8189 11.3069 11.7969C11.2857 11.7735 11.2584 11.7563 11.2281 11.7474C11.1978 11.7384 11.1656 11.738 11.1351 11.7461L9.5051 12.1006L9.2141 10.7646L10.8441 10.4102C11.1007 10.3544 11.3673 10.3645 11.619 10.4397C11.8706 10.5149 12.099 10.6527 12.2829 10.8402C12.4668 11.0277 12.6002 11.2588 12.6705 11.5118C12.7408 11.7649 12.7457 12.0316 12.6849 12.2871L11.9053 15.56C11.8974 15.5904 11.8975 15.6223 11.9057 15.6526C11.9139 15.6829 11.9299 15.7106 11.9521 15.7328C11.974 15.7553 12.0013 15.7719 12.0313 15.781C12.0614 15.79 12.0933 15.7913 12.124 15.7846L13.7666 15.4399L14.0479 16.7777L12.4056 17.1221Z" fill="black"/>
</svg>
