<svg width="24" height="24" viewBox="0 0 24 24" fill="none" xmlns="http://www.w3.org/2000/svg">
<path d="M4.4693 12.6043H5.9693V15H7.4693V9H5.9693V11.375H4.4693V9H2.9693V15H4.4693V12.6043ZM9.6958 15H11.1958V10.375H13.2288V15H14.7288V10.375H16.3082V9H8.1163V10.375H9.6958V15ZM18.4435 13.1705H19.1835C19.6617 13.1705 20.1203 12.9805 20.4584 12.6424C20.7965 12.3043 20.9865 11.8457 20.9865 11.3675V10.8029C20.9865 10.5661 20.9399 10.3316 20.8492 10.1129C20.7586 9.8941 20.6258 9.69534 20.4583 9.52792C20.2908 9.3605 20.092 9.2277 19.8733 9.13712C19.6545 9.04654 19.42 8.99995 19.1832 9H16.9432V15H18.4432L18.4435 13.1705ZM18.4435 10.5H19.1835C19.2638 10.5001 19.3408 10.532 19.3976 10.5888C19.4544 10.6456 19.4864 10.7226 19.4865 10.8029V11.3675C19.4864 11.4478 19.4544 11.5248 19.3976 11.5816C19.3408 11.6384 19.2638 11.6704 19.1835 11.6705H18.4435V10.5ZM0 4V20H24V4H0ZM22 18H2V6H22V18Z" fill="black"/>
</svg>
