<svg width="24" height="24" viewBox="0 0 24 24" fill="none" xmlns="http://www.w3.org/2000/svg">
<path d="M8.29 12.6043H9.79V15H11.29V9H9.79V11.375H8.29V9H6.79V15H8.29V12.6043ZM14.8058 15H15.5785C15.7361 14.9984 15.8929 14.9783 16.0458 14.94L16.9528 15.847L17.8706 14.9293L17.1606 14.2193C17.4398 13.868 17.5925 13.433 17.5941 12.9843V11.0156C17.5941 10.481 17.3817 9.96835 17.0037 9.59036C16.6257 9.21236 16.1131 9 15.5785 9H14.8058C14.5411 8.99996 14.279 9.05207 14.0344 9.15334C13.7898 9.25462 13.5676 9.40308 13.3804 9.59026C13.1932 9.77743 13.0447 9.99964 12.9434 10.2442C12.8421 10.4888 12.79 10.7509 12.79 11.0156V12.9844C12.79 13.2491 12.8421 13.5112 12.9434 13.7558C13.0447 14.0004 13.1932 14.2226 13.3804 14.4097C13.5676 14.5969 13.7898 14.7454 14.0344 14.8467C14.279 14.9479 14.5411 15 14.8058 15ZM14.29 11.0156C14.2901 10.8789 14.3445 10.7479 14.4411 10.6512C14.5378 10.5545 14.6688 10.5002 14.8055 10.5H15.5782C15.7149 10.5002 15.8459 10.5545 15.9426 10.6512C16.0393 10.7478 16.0936 10.8789 16.0938 11.0156V12.9844C16.0936 13.1211 16.0393 13.2521 15.9426 13.3488C15.8459 13.4455 15.7149 13.4998 15.5782 13.5H14.8055C14.6688 13.4998 14.5378 13.4455 14.4411 13.3488C14.3445 13.2521 14.2901 13.1211 14.29 12.9844V11.0156ZM1 4V20H23V4H1ZM21 18H3V6H21V18Z" fill="black"/>
</svg>
