<svg width="24" height="24" viewBox="0 0 24 24" fill="none" xmlns="http://www.w3.org/2000/svg">
<path d="M18 20H6V4H16V2H4V22H20V8H18V20ZM15 16V8.3H9V10H13.3V12.1981C13.0122 11.7133 12.5732 11.3365 12.0504 11.1255C11.5276 10.9145 10.9499 10.881 10.4063 11.0302C9.86259 11.1794 9.38297 11.5031 9.04112 11.9514C8.69928 12.3997 8.51412 12.9479 8.51412 13.5117C8.51412 14.0754 8.69928 14.6236 9.04112 15.0719C9.38297 15.5202 9.86259 15.8439 10.4063 15.9931C10.9499 16.1423 11.5276 16.1088 12.0504 15.8978C12.5732 15.6868 13.0122 15.31 13.3 14.8252V16H15ZM11.0984 14.4348C10.9158 14.4348 10.7373 14.3807 10.5855 14.2793C10.4336 14.1778 10.3153 14.0336 10.2454 13.8649C10.1755 13.6962 10.1572 13.5106 10.1928 13.3315C10.2285 13.1524 10.3164 12.9879 10.4455 12.8588C10.5746 12.7297 10.7391 12.6418 10.9182 12.6061C11.0973 12.5705 11.2829 12.5888 11.4516 12.6587C11.6203 12.7286 11.7645 12.8469 11.866 12.9988C11.9674 13.1506 12.0215 13.3291 12.0215 13.5117C12.0212 13.7564 11.9239 13.9911 11.7508 14.1641C11.5778 14.3372 11.3431 14.4345 11.0984 14.4348ZM21 3V1H19V3H16.9584L20 6.0416L23.0416 3H21Z" fill="black"/>
</svg>
