<svg width="24" height="24" viewBox="0 0 24 24" fill="none" xmlns="http://www.w3.org/2000/svg">
<path d="M16.1416 2H7.8584L2 7.8579V16.1416L7.8584 22H16.1416L22 16.1416V7.8579L16.1416 2ZM12.35 7L12.2177 13.5H11.7823L11.65 7H12.35ZM12 16.7781C11.911 16.7781 11.824 16.7517 11.75 16.7023C11.676 16.6528 11.6183 16.5825 11.5843 16.5003C11.5502 16.4181 11.5413 16.3276 11.5586 16.2403C11.576 16.153 11.6189 16.0728 11.6818 16.0099C11.7447 15.947 11.8249 15.9041 11.9122 15.8867C11.9995 15.8694 12.09 15.8783 12.1722 15.9124C12.2544 15.9464 12.3247 16.0041 12.3742 16.0781C12.4236 16.1521 12.45 16.2391 12.45 16.3281C12.45 16.4474 12.4026 16.5619 12.3182 16.6463C12.2338 16.7307 12.1193 16.7781 12 16.7781Z" fill="black"/>
</svg>
