<svg width="24" height="24" viewBox="0 0 24 24" fill="none" xmlns="http://www.w3.org/2000/svg">
<path d="M11.2374 12.058C10.9651 12.0608 10.6997 12.1442 10.4747 12.2975C10.2496 12.4509 10.075 12.6674 9.97276 12.9198C9.87051 13.1722 9.84523 13.4492 9.90009 13.7159C9.95496 13.9827 10.0875 14.2272 10.2811 14.4188C10.4746 14.6103 10.7205 14.7404 10.9878 14.7924C11.2551 14.8445 11.5319 14.8164 11.7832 14.7115C12.0345 14.6067 12.2492 14.4298 12.4002 14.2032C12.5512 13.9766 12.6318 13.7103 12.6318 13.438C12.6295 13.0702 12.4814 12.7184 12.2199 12.4597C11.9585 12.201 11.6052 12.0565 11.2374 12.058ZM16 5V2H4V22H20V8H19C18.2044 8 17.4413 7.68393 16.8787 7.12132C16.3161 6.55871 16 5.79565 16 5ZM14.928 16H13.628V14.5806C13.3689 15.1219 12.9335 15.5591 12.3933 15.8205C11.8531 16.0819 11.2401 16.1519 10.6548 16.0191C10.0696 15.8862 9.54683 15.5584 9.17236 15.0894C8.7979 14.6205 8.59394 14.0381 8.59394 13.438C8.59394 12.8379 8.7979 12.2555 9.17236 11.7866C9.54683 11.3176 10.0696 10.9898 10.6548 10.8569C11.2401 10.7241 11.8531 10.7941 12.3933 11.0555C12.9335 11.3169 13.3689 11.7541 13.628 12.2954V9.6H9.0461V8.3H14.928V16ZM20.75 3.5416V1H19.25V3.5416H17.5L20 6.0416L22.5 3.5416H20.75Z" fill="black"/>
</svg>
