<svg width="24" height="24" viewBox="0 0 24 24" fill="none" xmlns="http://www.w3.org/2000/svg">
<path d="M21.1716 9.85812C20.4215 9.10806 20.0001 8.09078 20 7.03002V4.00002H16.97C15.9092 4.00001 14.8918 3.57857 14.1416 2.82842L12 0.686523L9.85812 2.82842C9.10806 3.5785 8.09078 3.99993 7.03002 4.00002H4.00002V7.03002C3.99993 8.09078 3.5785 9.10806 2.82842 9.85812L0.686523 12L2.82842 14.1419C3.5785 14.892 3.99993 15.9093 4.00002 16.97V20H7.03002C8.09088 20 9.10829 20.4215 9.85842 21.1716L12 23.3135L14.1419 21.1716C14.892 20.4215 15.9093 20.0001 16.97 20H20V16.97C20 15.9092 20.4215 14.8918 21.1716 14.1416L23.3135 12L21.1716 9.85812ZM12.675 7.50002L12.4197 12.5H11.58L11.3247 7.50002H12.675ZM12 15.902C11.8649 15.902 11.7328 15.8619 11.6204 15.7869C11.508 15.7118 11.4204 15.6051 11.3687 15.4802C11.317 15.3553 11.3035 15.2179 11.3299 15.0854C11.3562 14.9528 11.4213 14.8311 11.5169 14.7355C11.6125 14.64 11.7342 14.5749 11.8668 14.5485C11.9993 14.5222 12.1367 14.5357 12.2616 14.5875C12.3864 14.6392 12.4931 14.7268 12.5682 14.8392C12.6433 14.9516 12.6833 15.0837 12.6833 15.2188C12.6833 15.3086 12.6656 15.3974 12.6313 15.4803C12.597 15.5632 12.5466 15.6385 12.4832 15.702C12.4197 15.7654 12.3444 15.8157 12.2615 15.85C12.1786 15.8844 12.0898 15.902 12 15.902Z" fill="black"/>
</svg>
