<svg width="24" height="24" viewBox="0 0 24 24" fill="none" xmlns="http://www.w3.org/2000/svg">
<path d="M11.3765 11.5275C11.0144 11.5331 10.662 11.6456 10.3637 11.8509C10.0653 12.0562 9.83427 12.345 9.69958 12.6812C9.5649 13.0174 9.53257 13.3859 9.60666 13.7403C9.68075 14.0948 9.85796 14.4195 10.116 14.6736C10.3741 14.9277 10.7015 15.0998 11.0571 15.1684C11.4127 15.237 11.7806 15.199 12.1146 15.0591C12.4487 14.9192 12.7339 14.6837 12.9345 14.3822C13.1352 14.0807 13.2422 13.7266 13.2422 13.3645C13.2378 12.8737 13.0389 12.4047 12.6891 12.0603C12.3394 11.7159 11.8673 11.5243 11.3765 11.5275ZM16 5V2H4V22H20V8H19C18.2044 8 17.4413 7.68393 16.8787 7.12132C16.3161 6.55871 16 5.79565 16 5ZM14.8561 16H13.9561V14.2747C13.7415 14.8791 13.3203 15.3882 12.7668 15.7122C12.2133 16.0361 11.5632 16.1541 10.9311 16.0452C10.2991 15.9364 9.72588 15.6077 9.31267 15.1172C8.89946 14.6267 8.67284 14.006 8.67284 13.3647C8.67284 12.7234 8.89946 12.1027 9.31267 11.6122C9.72588 11.1217 10.2991 10.793 10.9311 10.6842C11.5632 10.5753 12.2133 10.6933 12.7668 11.0172C13.3203 11.3412 13.7415 11.8503 13.9561 12.4547V9.2H9.0922V8.3H14.8561V16ZM21.9712 2.6564L20.5 4.1276V1H19.5V4.1276L18.0288 2.6564L17.3218 3.3634L20 6.0416L22.6782 3.3634L21.9712 2.6564Z" fill="black"/>
</svg>
