<svg width="24" height="24" viewBox="0 0 24 24" fill="none" xmlns="http://www.w3.org/2000/svg">
<path d="M7.29 12.24H10.79V15H11.29V9H10.79V11.74H7.29V9H6.79V15H7.29V12.24ZM14.68 15H15.7035C16.0072 14.9979 16.3058 14.9218 16.5735 14.7783L17.4266 15.6314L17.811 15.2471L17.0236 14.4597C17.204 14.2842 17.3474 14.0743 17.4453 13.8424C17.5432 13.6106 17.5936 13.3614 17.5936 13.1097V10.89C17.5936 10.3888 17.3945 9.90811 17.0401 9.55367C16.6858 9.19924 16.2051 9.00008 15.7039 9H14.68C14.4318 9 14.186 9.04889 13.9567 9.14387C13.7274 9.23885 13.5191 9.37807 13.3436 9.55357C13.1681 9.72907 13.0288 9.93742 12.9339 10.1667C12.8389 10.396 12.79 10.6418 12.79 10.89V13.11C12.79 13.3582 12.8389 13.604 12.9339 13.8333C13.0288 14.0626 13.1681 14.2709 13.3436 14.4464C13.5191 14.6219 13.7274 14.7612 13.9567 14.8561C14.186 14.9511 14.4318 15 14.68 15ZM13.29 10.89C13.2905 10.5215 13.437 10.1682 13.6976 9.90762C13.9582 9.64704 14.3115 9.50045 14.68 9.5H15.7035C16.072 9.50045 16.4253 9.64704 16.6859 9.90762C16.9465 10.1682 17.0931 10.5215 17.0935 10.89V13.11C17.093 13.4785 16.9464 13.8318 16.6859 14.0924C16.4253 14.3529 16.072 14.4995 15.7035 14.5H14.68C14.3115 14.4995 13.9582 14.3529 13.6976 14.0924C13.4371 13.8318 13.2905 13.4785 13.29 13.11V10.89ZM1 4V20H23V4H1ZM22.5 19.5H1.5V4.5H22.5V19.5Z" fill="black"/>
</svg>
