<svg width="24" height="24" viewBox="0 0 24 24" fill="none" xmlns="http://www.w3.org/2000/svg">
<path d="M8.3564 9.8333H6.369V11.9223H8.3564C8.56551 11.922 8.76596 11.8388 8.91382 11.6909C9.06168 11.5431 9.14488 11.3426 9.1452 11.1335V10.6221C9.14488 10.413 9.06168 10.2125 8.91382 10.0647C8.76596 9.91682 8.56551 9.83362 8.3564 9.8333ZM1 4V20H23V4H1ZM9.9786 11.1335C9.9786 11.3465 9.93664 11.5575 9.85512 11.7543C9.77359 11.9511 9.6541 12.1299 9.50346 12.2805C9.35283 12.4312 9.174 12.5506 8.97718 12.6322C8.78037 12.7137 8.56943 12.7556 8.3564 12.7556H6.369V15H5.5357V9H8.3564C8.56943 8.99999 8.78037 9.04193 8.97718 9.12345C9.174 9.20496 9.35283 9.32444 9.50346 9.47507C9.6541 9.62569 9.77359 9.80452 9.85512 10.0013C9.93664 10.1981 9.9786 10.4091 9.9786 10.6221V11.1335ZM12.2406 15H11.4072V9H12.2406V15ZM18.6128 15H17.9117L14.9052 10.55V15H14.0718V9H14.7626L17.78 13.4588V9H18.6134L18.6128 15Z" fill="black"/>
</svg>
