<svg width="24" height="24" viewBox="0 0 24 24" fill="none" xmlns="http://www.w3.org/2000/svg">
<path d="M15.4641 4.10398L18.78 9.84718L16.64 9.27368L16.5116 9.75738L19.4622 10.548L20.2539 7.59338L19.77 7.46498L19.2029 9.57998L15.8971 3.85398C15.5021 3.1699 14.9341 2.60184 14.25 2.20688C13.5659 1.81193 12.7899 1.604 12 1.604C11.2101 1.604 10.4341 1.81193 9.75 2.20688C9.06592 2.60184 8.49785 3.1699 8.10289 3.85398L6.31289 6.95398L6.74579 7.20398L8.53579 4.10398C8.88686 3.4959 9.39181 2.99095 9.99989 2.63988C10.608 2.28881 11.2977 2.10398 11.9999 2.10398C12.702 2.10398 13.3918 2.28881 13.9999 2.63988C14.608 2.99095 15.1129 3.4959 15.464 4.10398H15.4641ZM1.95639 19.5C1.60135 18.8933 1.41422 18.2029 1.41422 17.5C1.41422 16.797 1.60135 16.1067 1.95639 15.5L5.27219 9.75668L5.84579 11.8967L6.32899 11.766L5.53829 8.81598L2.58369 9.60748L2.71439 10.0908L4.82929 9.52398L1.52339 15.25C1.12843 15.9341 0.920502 16.7101 0.920502 17.5C0.920501 18.2899 1.12843 19.0659 1.52338 19.75C1.91834 20.4341 2.48641 21.0021 3.17049 21.3971C3.85458 21.792 4.63057 22 5.42049 22H8.99999V21.5H5.41999C4.7171 21.5041 4.0258 21.321 3.41709 20.9695C2.80839 20.618 2.30422 20.1108 1.95639 19.5ZM22.4764 15.25L20.6864 12.15L20.2535 12.4L22.0435 15.5C22.3946 16.1081 22.5794 16.7978 22.5794 17.5C22.5794 18.2021 22.3946 18.8919 22.0435 19.5C21.6924 20.1081 21.1875 20.613 20.5794 20.9641C19.9713 21.3152 19.2815 21.5 18.5794 21.5H11.9478L13.5146 19.9331L13.16 19.58L11 21.74L13.1628 23.903L13.516 23.5483L11.9678 22H18.58C19.3699 21.9999 20.1458 21.7919 20.8298 21.3969C21.5138 21.0019 22.0818 20.4338 22.4767 19.7498C22.8716 19.0657 23.0795 18.2897 23.0795 17.4999C23.0794 16.71 22.8715 15.934 22.4766 15.25H22.4764ZM13.933 14.0719C13.9448 13.8111 13.9022 13.5507 13.8079 13.3073C13.7136 13.0639 13.5696 12.8428 13.3851 12.6581C13.2007 12.4733 12.9798 12.329 12.7366 12.2343C12.4933 12.1396 12.233 12.0966 11.9722 12.108C11.4866 12.0965 11.014 12.2658 10.6462 12.5831L10.7893 10.5H13.682V9.99998H10.332L10.1282 13.22H10.6019C10.7603 13.0185 10.9642 12.8575 11.197 12.7503C11.4297 12.643 11.6846 12.5925 11.9407 12.603C12.1368 12.5946 12.3325 12.6267 12.5157 12.6972C12.6988 12.7678 12.8655 12.8754 13.0052 13.0132C13.145 13.1511 13.2548 13.3163 13.3279 13.4984C13.401 13.6806 13.4357 13.8759 13.43 14.0721C13.4373 14.2729 13.404 14.4731 13.332 14.6607C13.2601 14.8484 13.1511 15.0196 13.0115 15.1641C12.8719 15.3086 12.7046 15.4235 12.5195 15.5018C12.3345 15.5801 12.1355 15.6203 11.9346 15.62C11.6293 15.6424 11.324 15.5759 11.0556 15.4285C10.7873 15.2811 10.5675 15.0591 10.4227 14.7893L9.94799 14.981C10.1174 15.3558 10.4004 15.6678 10.7569 15.8729C11.1134 16.0779 11.5254 16.1657 11.9346 16.1238C12.2012 16.1225 12.4649 16.0682 12.7103 15.964C12.9557 15.8597 13.1779 15.7077 13.3639 15.5167C13.5499 15.3257 13.696 15.0996 13.7937 14.8515C13.8914 14.6035 13.9388 14.3384 13.933 14.0719Z" fill="black"/>
</svg>
