<svg width="24" height="24" viewBox="0 0 24 24" fill="none" xmlns="http://www.w3.org/2000/svg">
<g clip-path="url(#clip0)">
<path d="M14.165 4.85388L16.455 8.81978L14.723 9.81978L18.821 10.9179L19.9189 6.81988L18.1868 7.81988L15.8968 3.85398C15.5018 3.1699 14.9338 2.60184 14.2497 2.20688C13.5656 1.81193 12.7896 1.604 11.9997 1.604C11.2098 1.604 10.4338 1.81193 9.74971 2.20688C9.06563 2.60184 8.49756 3.1699 8.1026 3.85398L6.3126 6.95398L8.0446 7.95398L9.8346 4.85398C10.054 4.47396 10.3696 4.15839 10.7497 3.93899C11.1297 3.71959 11.5608 3.60409 11.9996 3.60409C12.4384 3.60409 12.8695 3.71959 13.2495 3.93899C13.6296 4.15839 13.9452 4.47396 14.1646 4.85398L14.165 4.85388ZM3.2555 18.7499C3.03167 18.3713 2.91359 17.9396 2.91359 17.4999C2.91359 17.0601 3.03167 16.6284 3.2555 16.2499L5.5455 12.284L7.2775 13.284L6.1792 9.18588L2.0811 10.284L3.8132 11.284L1.5234 15.2499C1.12844 15.934 0.920514 16.71 0.920513 17.4999C0.920513 18.2898 1.12844 19.0658 1.5234 19.7499C1.91835 20.434 2.48642 21.002 3.1705 21.397C3.85459 21.7919 4.63059 21.9999 5.4205 21.9999H9V19.9999H5.42C4.98035 20.0044 4.54756 19.8907 4.16682 19.6709C3.78607 19.451 3.47135 19.1329 3.2555 18.7499ZM22.4766 15.2499L20.6866 12.1499L18.9546 13.1499L20.7446 16.2499C20.964 16.6299 21.0795 17.061 21.0795 17.4998C21.0796 17.9386 20.9641 18.3696 20.7447 18.7497C20.5253 19.1297 20.2098 19.4453 19.8298 19.6648C19.4499 19.8842 19.0188 19.9998 18.58 19.9999H14V17.9999L11 20.9999L14 23.9999V21.9999H18.58C19.3699 21.9998 20.1458 21.7918 20.8298 21.3968C21.5138 21.0018 22.0818 20.4337 22.4767 19.7497C22.8716 19.0656 23.0795 18.2896 23.0795 17.4998C23.0795 16.7099 22.8715 15.9339 22.4766 15.2499Z" fill="black"/>
</g>
<defs>
<clipPath id="clip0">
<rect width="24" height="24" fill="white"/>
</clipPath>
</defs>
</svg>
