<svg width="24" height="24" viewBox="0 0 24 24" fill="none" xmlns="http://www.w3.org/2000/svg">
<path d="M1 4V20H23V4H1ZM7.4929 14.5H8.7042C9.02297 14.4997 9.32859 14.3729 9.55401 14.1475C9.77943 13.9221 9.90623 13.6165 9.9066 13.2977V12.447H8.2325V11.9412H10.4066V13.2977C10.4066 13.5213 10.3626 13.7426 10.277 13.9492C10.1915 14.1557 10.0661 14.3434 9.90797 14.5014C9.74989 14.6595 9.56222 14.7849 9.35567 14.8704C9.14913 14.956 8.92776 15 8.7042 15H7.4929C6.99164 15 6.51091 14.8009 6.15647 14.4464C5.80202 14.092 5.6029 13.6113 5.6029 13.11V10.89C5.6029 10.3887 5.80202 9.90801 6.15647 9.55357C6.51091 9.19912 6.99164 9 7.4929 9H8.7042C8.92776 8.99999 9.14913 9.04401 9.35567 9.12955C9.56222 9.21509 9.74989 9.34048 9.90797 9.49856C10.0661 9.65663 10.1915 9.8443 10.277 10.0508C10.3626 10.2574 10.4066 10.4787 10.4066 10.7023H9.9066C9.90623 10.3835 9.77943 10.0779 9.55401 9.85252C9.32859 9.62712 9.02297 9.50034 8.7042 9.5H7.4929C7.12439 9.50045 6.7711 9.64704 6.51052 9.90762C6.24994 10.1682 6.10335 10.5215 6.1029 10.89V13.11C6.10338 13.4785 6.24998 13.8318 6.51055 14.0924C6.77112 14.3529 7.1244 14.4995 7.4929 14.5ZM12.5629 15H12.0629V9H12.5629V15ZM18.606 9.5H15.1028V11.99H18.3256V12.49H15.1028V15H14.6028V9H18.6056L18.606 9.5Z" fill="black"/>
</svg>
