<svg width="24" height="24" viewBox="0 0 24 24" fill="none" xmlns="http://www.w3.org/2000/svg">
<path d="M15.4141 2H4V22H20V6.5859L15.4141 2ZM19.5 21.5H4.5V2.5H15.207L19.5 6.793V21.5ZM9.1384 8.8H14.2842V12.6938C14.1369 12.0206 13.7462 11.4256 13.1869 11.0231C12.6276 10.6205 11.9393 10.4388 11.2543 10.5129C10.5692 10.5869 9.93561 10.9115 9.47529 11.4243C9.01496 11.9371 8.76034 12.6018 8.76034 13.2909C8.76034 13.98 9.01496 14.6447 9.47529 15.1575C9.93561 15.6703 10.5692 15.9949 11.2543 16.0689C11.9393 16.143 12.6276 15.9613 13.1869 15.5587C13.7462 15.1562 14.1369 14.5612 14.2842 13.888V16H14.7842V8.3H9.1384V8.8ZM11.5156 15.5848C11.0638 15.5764 10.6245 15.4347 10.2528 15.1776C9.8812 14.9204 9.5938 14.5592 9.4267 14.1393C9.25959 13.7194 9.22022 13.2595 9.31353 12.8173C9.40684 12.3751 9.62867 11.9703 9.95119 11.6538C10.2737 11.3372 10.6825 11.1229 11.1264 11.0378C11.5702 10.9527 12.0293 11.0006 12.446 11.1755C12.8628 11.3504 13.2186 11.6444 13.4688 12.0208C13.719 12.3971 13.8525 12.839 13.8525 13.2909C13.846 13.9047 13.5964 14.491 13.1583 14.921C12.7202 15.351 12.1295 15.5897 11.5156 15.5848Z" fill="black"/>
</svg>
