<svg width="24" height="24" viewBox="0 0 24 24" fill="none" xmlns="http://www.w3.org/2000/svg">
<path d="M8.6136 15H9.502C10.0059 15 10.4892 14.7998 10.8455 14.4435C11.2018 14.0872 11.402 13.6039 11.402 13.1V12.8036H9.902V13.1C9.902 13.2061 9.85986 13.3078 9.78484 13.3828C9.70983 13.4579 9.60809 13.5 9.502 13.5H8.6136C8.47692 13.4998 8.34589 13.4454 8.24926 13.3488C8.15262 13.2521 8.09826 13.1211 8.0981 12.9844V11.0156C8.09826 10.8789 8.15262 10.7479 8.24926 10.6512C8.34589 10.5546 8.47692 10.5002 8.6136 10.5H9.502C9.60809 10.5 9.70983 10.5421 9.78484 10.6172C9.85986 10.6922 9.902 10.7939 9.902 10.9V11.1964H11.402V10.9C11.402 10.3961 11.2018 9.91282 10.8455 9.5565C10.4892 9.20018 10.0059 9 9.502 9H8.6136C8.07905 9.00003 7.5664 9.2124 7.18842 9.59039C6.81044 9.96839 6.5981 10.481 6.5981 11.0156V12.9844C6.5981 13.519 6.81044 14.0316 7.18842 14.4096C7.5664 14.7876 8.07905 15 8.6136 15ZM14.6136 15H15.502C16.0059 15 16.4892 14.7998 16.8455 14.4435C17.2018 14.0872 17.402 13.6039 17.402 13.1V12.8036H15.902V13.1C15.902 13.2061 15.8599 13.3078 15.7848 13.3828C15.7098 13.4579 15.6081 13.5 15.502 13.5H14.6136C14.4769 13.4998 14.3459 13.4454 14.2493 13.3488C14.1526 13.2521 14.0983 13.1211 14.0981 12.9844V11.0156C14.0983 10.8789 14.1526 10.7479 14.2493 10.6512C14.3459 10.5546 14.4769 10.5002 14.6136 10.5H15.502C15.6081 10.5 15.7098 10.5421 15.7848 10.6172C15.8599 10.6922 15.902 10.7939 15.902 10.9V11.1964H17.402V10.9C17.402 10.3961 17.2018 9.91282 16.8455 9.5565C16.4892 9.20018 16.0059 9 15.502 9H14.6136C14.079 9.00003 13.5664 9.2124 13.1884 9.59039C12.8104 9.96839 12.5981 10.481 12.5981 11.0156V12.9844C12.5981 13.519 12.8104 14.0316 13.1884 14.4096C13.5664 14.7876 14.079 15 14.6136 15ZM1 4V20H23V4H1ZM21 18H3V6H21V18Z" fill="black"/>
</svg>
