<svg width="24" height="24" viewBox="0 0 24 24" fill="none" xmlns="http://www.w3.org/2000/svg">
<path d="M15.4141 2H4V22H20V6.5859L15.4141 2ZM15 16H13.1663V15.0464C12.8419 15.4951 12.3836 15.8295 11.8573 16.0015C11.331 16.1735 10.7637 16.1744 10.2369 16.0039C9.71012 15.8334 9.25089 15.5004 8.92517 15.0526C8.59945 14.6048 8.42399 14.0654 8.42399 13.5117C8.42399 12.9579 8.59945 12.4185 8.92517 11.9707C9.25089 11.5229 9.71012 11.1899 10.2369 11.0194C10.7637 10.8489 11.331 10.8498 11.8573 11.0218C12.3836 11.1938 12.8419 11.5282 13.1663 11.9769V10.0847H9V8.3H15V16ZM11.0521 12.5922C10.8703 12.5923 10.6925 12.6463 10.5414 12.7474C10.3902 12.8485 10.2725 12.9921 10.2029 13.1602C10.1334 13.3282 10.1153 13.5131 10.1508 13.6914C10.1864 13.8697 10.274 14.0335 10.4026 14.1621C10.5312 14.2906 10.695 14.3781 10.8734 14.4136C11.0517 14.449 11.2366 14.4308 11.4046 14.3612C11.5726 14.2915 11.7162 14.1737 11.8172 14.0225C11.9182 13.8713 11.9721 13.6935 11.9721 13.5117C11.972 13.2678 11.875 13.0339 11.7025 12.8615C11.5299 12.6891 11.296 12.5922 11.0521 12.5922Z" fill="black"/>
</svg>
