<svg width="24" height="24" viewBox="0 0 24 24" fill="none" xmlns="http://www.w3.org/2000/svg">
<path d="M12 0L0 12L12 24L24 12L12 0ZM12.35 7.5L12.2177 12.5H11.7823L11.65 7.5H12.35ZM12 15.7781C11.911 15.7781 11.824 15.7517 11.75 15.7023C11.676 15.6528 11.6183 15.5825 11.5843 15.5003C11.5502 15.4181 11.5413 15.3276 11.5586 15.2403C11.576 15.153 11.6189 15.0728 11.6818 15.0099C11.7447 14.947 11.8249 14.9041 11.9122 14.8867C11.9995 14.8694 12.09 14.8783 12.1722 14.9124C12.2544 14.9464 12.3247 15.0041 12.3742 15.0781C12.4236 15.1521 12.45 15.2391 12.45 15.3281C12.45 15.4474 12.4026 15.5619 12.3182 15.6463C12.2338 15.7307 12.1193 15.7781 12 15.7781Z" fill="black"/>
</svg>
