<svg width="24" height="24" viewBox="0 0 24 24" fill="none" xmlns="http://www.w3.org/2000/svg">
<path d="M12.2177 12.5L12.35 7.5H11.65L11.7823 12.5H12.2177ZM12 14.8781C11.911 14.8781 11.824 14.9045 11.75 14.9539C11.676 15.0034 11.6183 15.0737 11.5843 15.1559C11.5502 15.2381 11.5413 15.3286 11.5586 15.4159C11.576 15.5032 11.6189 15.5834 11.6818 15.6463C11.7447 15.7092 11.8249 15.7521 11.9122 15.7695C11.9995 15.7868 12.09 15.7779 12.1722 15.7438C12.2544 15.7098 12.3247 15.6521 12.3742 15.5781C12.4236 15.5041 12.45 15.4171 12.45 15.3281C12.45 15.2088 12.4026 15.0943 12.3182 15.0099C12.2338 14.9255 12.1193 14.8781 12 14.8781ZM12 0L0 12L12 24L24 12L12 0ZM0.7071 12L12 0.7071L23.2929 12L12 23.2929L0.7071 12Z" fill="black"/>
</svg>
