<svg width="24" height="24" viewBox="0 0 24 24" fill="none" xmlns="http://www.w3.org/2000/svg">
<path d="M12 2C10.0222 2 8.08879 2.58649 6.4443 3.6853C4.79981 4.78412 3.51809 6.3459 2.76121 8.17317C2.00433 10.0004 1.8063 12.0111 2.19215 13.9509C2.578 15.8907 3.53041 17.6725 4.92894 19.0711C6.32746 20.4696 8.10929 21.422 10.0491 21.8079C11.9889 22.1937 13.9996 21.9957 15.8268 21.2388C17.6541 20.4819 19.2159 19.2002 20.3147 17.5557C21.4135 15.9112 22 13.9778 22 12C22 10.6868 21.7413 9.38642 21.2388 8.17317C20.7363 6.95991 19.9997 5.85752 19.0711 4.92893C18.1425 4.00035 17.0401 3.26375 15.8268 2.7612C14.6136 2.25866 13.3132 2 12 2ZM15.7222 10.3647H14.7222V10.1033C14.7216 9.54567 14.4998 9.01106 14.1055 8.61675C13.7112 8.22244 13.1766 8.00064 12.619 8H11.4966C10.9083 8.00066 10.3444 8.23464 9.92841 8.6506C9.51244 9.06656 9.27847 9.63054 9.2778 10.2188V13.7811C9.27844 14.3694 9.51241 14.9334 9.92837 15.3494C10.3443 15.7653 10.9083 15.9993 11.4966 16H12.619C13.1766 15.9994 13.7112 15.7776 14.1055 15.3833C14.4998 14.9889 14.7216 14.4543 14.7222 13.8967V13.6353H15.7222V13.8967C15.7222 14.7197 15.3953 15.509 14.8133 16.091C14.2313 16.673 13.442 17 12.619 17H11.4966C10.6429 17 9.8242 16.6608 9.22056 16.0572C8.61692 15.4535 8.2778 14.6348 8.2778 13.7811V10.2188C8.2778 9.36512 8.61693 8.54641 9.22057 7.94276C9.82421 7.33912 10.6429 7 11.4966 7H12.619C13.0265 7 13.4301 7.08027 13.8066 7.23623C14.1831 7.39218 14.5252 7.62077 14.8133 7.90894C15.1015 8.19711 15.3301 8.53922 15.486 8.91573C15.642 9.29223 15.7222 9.69577 15.7222 10.1033V10.3647Z" fill="black"/>
</svg>
