<svg width="24" height="24" viewBox="0 0 24 24" fill="none" xmlns="http://www.w3.org/2000/svg">
<path d="M11.3611 11.5287C10.9992 11.5343 10.6471 11.6467 10.3489 11.8518C10.0507 12.057 9.81983 12.3456 9.68522 12.6816C9.55061 13.0175 9.51829 13.3858 9.59232 13.7401C9.66636 14.0943 9.84344 14.4188 10.1013 14.6727C10.3592 14.9267 10.6864 15.0987 11.0418 15.1672C11.3971 15.2358 11.7648 15.1978 12.0986 15.058C12.4325 14.9182 12.7175 14.6829 12.918 14.3816C13.1185 14.0803 13.2255 13.7264 13.2255 13.3645C13.2211 12.874 13.0224 12.4053 12.6729 12.0611C12.3233 11.717 11.8516 11.5255 11.3611 11.5287ZM15.4141 2H4V22H20V6.5859L15.4141 2ZM14.8561 16H13.9116V14.4189C13.6679 15.0023 13.2297 15.4834 12.6714 15.7802C12.1131 16.077 11.4693 16.1713 10.8494 16.047C10.2294 15.9228 9.67164 15.5876 9.27089 15.0986C8.87014 14.6095 8.65114 13.9968 8.65114 13.3645C8.65114 12.7322 8.87014 12.1195 9.27089 11.6304C9.67164 11.1414 10.2294 10.8062 10.8494 10.682C11.4693 10.5577 12.1131 10.652 12.6714 10.9488C13.2297 11.2456 13.6679 11.7267 13.9116 12.3101V9.2282H9.0922V8.3H14.8561V16Z" fill="black"/>
</svg>
