<svg width="24" height="24" viewBox="0 0 24 24" fill="none" xmlns="http://www.w3.org/2000/svg">
<path d="M15.462 9.8333H13.6237V14.1666H15.462C15.8063 14.1663 16.1365 14.0293 16.3799 13.7858C16.6234 13.5424 16.7604 13.2122 16.7607 12.8679V11.132C16.7604 10.7877 16.6234 10.4575 16.3799 10.2141C16.1365 9.97058 15.8063 9.83364 15.462 9.8333ZM1 4V20H23V4H1ZM11.29 15H10.4566V12.3612H7.6236V15H6.79V9H7.6233V11.6181H10.4566V9H11.29V15ZM17.5938 12.8679C17.5938 13.4333 17.3692 13.9756 16.9694 14.3754C16.5696 14.7753 16.0274 14.9999 15.462 15H12.79V9H15.462C15.742 8.99999 16.0192 9.05512 16.2779 9.16226C16.5366 9.2694 16.7716 9.42644 16.9696 9.62441C17.1676 9.82239 17.3247 10.0574 17.4318 10.3161C17.5389 10.5748 17.5941 10.852 17.5941 11.132L17.5938 12.8679Z" fill="black"/>
</svg>
