<svg width="24" height="24" viewBox="0 0 24 24" fill="none" xmlns="http://www.w3.org/2000/svg">
<path d="M3.25549 18.7499C3.03166 18.3713 2.91358 17.9396 2.91358 17.4999C2.91358 17.0601 3.03166 16.6284 3.25549 16.2499L5.54549 12.284L6.68219 12.9402L5.83539 9.78128L2.67649 10.6277L3.81319 11.284L1.52339 15.2499C1.12843 15.934 0.920502 16.71 0.920502 17.4999C0.920501 18.2898 1.12843 19.0658 1.52338 19.7499C1.91834 20.434 2.48641 21.002 3.17049 21.397C3.85458 21.7919 4.63057 21.9999 5.42049 21.9999H9.99999V19.9999H5.42049C4.98075 20.0045 4.54786 19.8909 4.16702 19.671C3.78618 19.4511 3.47138 19.133 3.25549 18.7499ZM9.83499 4.85388C10.0544 4.47386 10.37 4.15829 10.75 3.93889C11.1301 3.71949 11.5612 3.60399 12 3.60399C12.4388 3.60399 12.8699 3.71949 13.2499 3.93889C13.63 4.15829 13.9456 4.47386 14.165 4.85388L16.455 8.81978L15.3183 9.47608L18.4773 10.3225L19.3237 7.16358L18.1868 7.81988L15.8968 3.85398C15.5018 3.1699 14.9338 2.60184 14.2497 2.20688C13.5656 1.81193 12.7896 1.604 11.9997 1.604C11.2098 1.604 10.4338 1.81193 9.7497 2.20688C9.06562 2.60184 8.49755 3.1699 8.10259 3.85398L5.81319 7.81988L7.54519 8.81988L9.83499 4.85388ZM22.4766 15.2499L20.1866 11.284L18.4546 12.284L20.7446 16.2499C20.964 16.6299 21.0795 17.061 21.0795 17.4998C21.0795 17.9386 20.9641 18.3696 20.7447 18.7497C20.5253 19.1297 20.2098 19.4453 19.8298 19.6648C19.4498 19.8842 19.0188 19.9998 18.58 19.9999H14V18.6874L11.6875 20.9999L14 23.3124V21.9999H18.58C19.3699 21.9998 20.1458 21.7918 20.8298 21.3968C21.5138 21.0018 22.0818 20.4337 22.4767 19.7497C22.8716 19.0656 23.0795 18.2896 23.0795 17.4998C23.0794 16.7099 22.8715 15.9339 22.4766 15.2499ZM14.26 13.9083C14.2663 13.6489 14.2182 13.391 14.1188 13.1513C14.0194 12.9116 13.8709 12.6954 13.6829 12.5166C13.4948 12.3378 13.2714 12.2003 13.027 12.1131C12.7826 12.0259 12.5227 11.9909 12.2639 12.0103C11.8297 12.0083 11.4051 12.138 11.0461 12.3823L11.1451 11.2823H13.9487V9.99988H10.0037L9.73189 13.4627H11.0032C11.1127 13.3249 11.2533 13.2151 11.4135 13.1421C11.5737 13.0692 11.7489 13.0353 11.9247 13.0432C12.0464 13.0408 12.1673 13.0634 12.2799 13.1096C12.3925 13.1558 12.4944 13.2247 12.5794 13.3118C12.6643 13.399 12.7305 13.5027 12.7738 13.6164C12.8171 13.7302 12.8366 13.8516 12.8311 13.9732C12.8349 14.1003 12.8111 14.2268 12.7613 14.3438C12.7116 14.4609 12.6371 14.5658 12.5429 14.6513C12.4488 14.7369 12.3372 14.801 12.2159 14.8393C12.0946 14.8776 11.9665 14.8891 11.8403 14.8732C11.619 14.8839 11.4001 14.8229 11.2162 14.6994C11.0323 14.5759 10.8931 14.3963 10.8193 14.1874L9.58929 14.756C9.77139 15.1927 10.0873 15.5604 10.4916 15.8063C10.8959 16.0521 11.3677 16.1634 11.8393 16.1242C12.1459 16.1475 12.4541 16.1078 12.7448 16.0074C13.0355 15.9069 13.3025 15.748 13.5294 15.5403C13.7562 15.3327 13.9381 15.0807 14.0638 14.8C14.1894 14.5193 14.2562 14.2158 14.26 13.9083Z" fill="black"/>
</svg>
