<svg width="24" height="24" viewBox="0 0 24 24" fill="none" xmlns="http://www.w3.org/2000/svg">
<path d="M12 2C10.0222 2 8.08879 2.58649 6.4443 3.6853C4.79981 4.78412 3.51809 6.3459 2.76121 8.17317C2.00433 10.0004 1.8063 12.0111 2.19215 13.9509C2.578 15.8907 3.53041 17.6725 4.92894 19.0711C6.32746 20.4696 8.10929 21.422 10.0491 21.8079C11.9889 22.1937 13.9996 21.9957 15.8268 21.2388C17.6541 20.4819 19.2159 19.2002 20.3147 17.5557C21.4135 15.9112 22 13.9778 22 12C22 10.6868 21.7413 9.38642 21.2388 8.17317C20.7363 6.95991 19.9997 5.85752 19.0711 4.92893C18.1425 4.00035 17.0401 3.26375 15.8268 2.7612C14.6136 2.25866 13.3132 2 12 2ZM11.8794 17.15C11.652 17.15 11.4296 17.0826 11.2405 16.9562C11.0514 16.8298 10.904 16.6502 10.8169 16.4401C10.7299 16.23 10.7071 15.9987 10.7515 15.7756C10.7959 15.5526 10.9054 15.3477 11.0662 15.1868C11.2271 15.026 11.432 14.9165 11.6551 14.8721C11.8781 14.8277 12.1094 14.8505 12.3195 14.9375C12.5296 15.0246 12.7092 15.172 12.8356 15.3611C12.962 15.5502 13.0294 15.7726 13.0294 16C13.0294 16.305 12.9082 16.5975 12.6926 16.8132C12.4769 17.0288 12.1844 17.15 11.8794 17.15ZM13.7188 12.5947C13.1338 13.001 12.8408 13.2047 12.8408 13.9941H10.9408C10.9246 13.393 11.0741 12.7991 11.3727 12.2773C11.6714 11.7554 12.1078 11.3257 12.6342 11.0352C13.2211 10.627 13.4066 10.4707 13.4066 9.9102C13.3727 9.60574 13.221 9.32665 12.9839 9.13264C12.7468 8.93862 12.4433 8.84511 12.1381 8.8721C11.2436 8.8721 10.7504 9.4893 10.7504 10.6094H8.85C8.79992 10.149 8.84783 9.6832 8.99056 9.24263C9.1333 8.80205 9.36764 8.39666 9.67819 8.05309C9.98874 7.70953 10.3685 7.43555 10.7924 7.24918C11.2164 7.0628 11.675 6.96824 12.1381 6.9717C12.9473 6.9434 13.7348 7.23657 14.3286 7.78715C14.9223 8.33773 15.2739 9.10095 15.3066 9.91C15.3101 10.4594 15.1643 10.9994 14.8846 11.4723C14.6049 11.9452 14.202 12.3332 13.7188 12.5947Z" fill="black"/>
</svg>
