<svg width="24" height="24" viewBox="0 0 24 24" fill="none" xmlns="http://www.w3.org/2000/svg">
<path d="M3.0318 12.24H6.5318V15H7.0318V9H6.5318V11.74H3.0318V9H2.5318V15H3.0318V12.24ZM9.8333 15H10.3333V9.5H13.7285V15H14.2285V9.5H16.0451V9H8.0089V9.5H9.8333V15ZM17.5625 12.5483H19.9415C20.1448 12.5483 20.346 12.5083 20.5338 12.4305C20.7216 12.3527 20.8922 12.2387 21.0359 12.095C21.1796 11.9512 21.2936 11.7806 21.3714 11.5928C21.4492 11.405 21.4892 11.2038 21.4892 11.0005V10.5477C21.4892 10.1372 21.3261 9.74356 21.0359 9.45331C20.7456 9.16306 20.352 9 19.9415 9H17.0625V15H17.5625V12.5483ZM17.5625 9.5H19.9415C20.2193 9.50032 20.4856 9.6108 20.682 9.80721C20.8784 10.0036 20.9889 10.2699 20.9892 10.5477V11.0005C20.9889 11.2783 20.8784 11.5446 20.682 11.741C20.4856 11.9374 20.2193 12.048 19.9415 12.0483H17.5625V9.5ZM0 4V20H24V4H0ZM23.5 19.5H0.5V4.5H23.5V19.5Z" fill="black"/>
</svg>
