<svg width="24" height="24" viewBox="0 0 24 24" fill="none" xmlns="http://www.w3.org/2000/svg">
<path d="M19.436 10.1666H18.15V11.7966H19.436C19.5821 11.7964 19.7222 11.7383 19.8256 11.635C19.9289 11.5316 19.987 11.3915 19.9872 11.2454V10.718C19.9871 10.5718 19.929 10.4317 19.8256 10.3283C19.7223 10.2249 19.5822 10.1668 19.436 10.1666ZM1 4V20H23V4H1ZM7.3235 15H6.1568V12.4828H3.99V15H2.8235V9H3.99V11.4965H6.1568V9H7.3235V15ZM16.2205 10.0833H14.562V15H13.3953V10.0833H10.9083V15H9.7416V10.0833H8.0805V9H16.2205V10.0833ZM21.1539 11.2452C21.1539 11.7008 20.9729 12.1378 20.6507 12.4599C20.3286 12.7821 19.8916 12.9631 19.436 12.9631H18.15V15H16.9832V9H19.436C19.6616 8.99999 19.885 9.04441 20.0934 9.13073C20.3018 9.21705 20.4912 9.34358 20.6507 9.5031C20.8103 9.66261 20.9368 9.85198 21.0231 10.0604C21.1095 10.2688 21.1539 10.4922 21.1539 10.7178V11.2452Z" fill="black"/>
</svg>
