<svg width="24" height="24" viewBox="0 0 24 24" fill="none" xmlns="http://www.w3.org/2000/svg">
<path d="M19.6887 9.8333H17.8562V11.9223H19.6887C19.9007 11.9222 20.1039 11.8379 20.2539 11.688C20.4038 11.5381 20.488 11.3349 20.4882 11.1229V10.6329C20.4881 10.4209 20.4038 10.2176 20.2539 10.0676C20.104 9.91772 19.9007 9.83343 19.6887 9.8333ZM1 4V20H23V4H1ZM7.1776 15H6.3443V12.3612H3.511V15H2.6776V9H3.511V11.6181H6.3443V9H7.1776V15ZM16.1328 9.7916H14.3952V15H13.5619V9.7916H10.6208V15H9.7875V9.7916H8.0447V9H16.1328V9.7916ZM21.3215 11.1229C21.3215 11.5559 21.1495 11.9713 20.8433 12.2775C20.5371 12.5837 20.1217 12.7557 19.6887 12.7557H17.8562V15H17.0228V9H19.6887C20.1217 9 20.5371 9.17203 20.8433 9.47824C21.1495 9.78445 21.3215 10.1998 21.3215 10.6328V11.1229Z" fill="black"/>
</svg>
