<svg width="24" height="24" viewBox="0 0 24 24" fill="none" xmlns="http://www.w3.org/2000/svg">
<path d="M12.5625 9H12.0625V15H12.5625V9ZM15.1025 12.49H18.3253V11.99H15.1028V9.5H18.6056V9H14.6028V15H15.1028L15.1025 12.49ZM7.4929 15H8.7042C8.92776 15 9.14913 14.956 9.35567 14.8704C9.56222 14.7849 9.74989 14.6595 9.90797 14.5014C10.0661 14.3434 10.1915 14.1557 10.277 13.9492C10.3626 13.7426 10.4066 13.5213 10.4066 13.2977V11.9412H8.2325V12.447H9.9066V13.2977C9.90623 13.6165 9.77943 13.9221 9.55401 14.1475C9.32859 14.3729 9.02297 14.4997 8.7042 14.5H7.4929C7.1244 14.4995 6.77112 14.3529 6.51055 14.0924C6.24998 13.8318 6.10338 13.4785 6.1029 13.11V10.89C6.10335 10.5215 6.24994 10.1682 6.51052 9.90762C6.7711 9.64704 7.12439 9.50045 7.4929 9.5H8.7042C9.02297 9.50034 9.32859 9.62712 9.55401 9.85252C9.77943 10.0779 9.90623 10.3835 9.9066 10.7023H10.4066C10.4066 10.4787 10.3626 10.2574 10.277 10.0508C10.1915 9.8443 10.0661 9.65663 9.90797 9.49856C9.74989 9.34048 9.56222 9.21509 9.35567 9.12955C9.14913 9.04401 8.92776 8.99999 8.7042 9H7.4929C6.99164 9 6.51091 9.19912 6.15647 9.55357C5.80202 9.90801 5.6029 10.3887 5.6029 10.89V13.11C5.6029 13.6113 5.80202 14.092 6.15647 14.4464C6.51091 14.8009 6.99164 15 7.4929 15ZM1 4V20H23V4H1ZM22.5 19.5H1.5V4.5H22.5V19.5Z" fill="black"/>
</svg>
