<svg width="24" height="24" viewBox="0 0 24 24" fill="none" xmlns="http://www.w3.org/2000/svg">
<path d="M12 8.2169C12.1352 8.2169 12.2673 8.17681 12.3797 8.10171C12.4921 8.02661 12.5797 7.91986 12.6315 7.79496C12.6832 7.67007 12.6967 7.53264 12.6704 7.40006C12.644 7.26747 12.5789 7.14568 12.4833 7.05009C12.3877 6.9545 12.2659 6.88941 12.1333 6.86303C12.0008 6.83666 11.8633 6.8502 11.7384 6.90193C11.6135 6.95366 11.5068 7.04127 11.4317 7.15367C11.3566 7.26607 11.3165 7.39822 11.3165 7.5334C11.3165 7.71468 11.3885 7.88853 11.5167 8.01671C11.6449 8.14489 11.8187 8.2169 12 8.2169ZM12 2C10.0222 2 8.08879 2.58649 6.4443 3.6853C4.79981 4.78412 3.51809 6.3459 2.76121 8.17317C2.00433 10.0004 1.8063 12.0111 2.19215 13.9509C2.578 15.8907 3.53041 17.6725 4.92894 19.0711C6.32746 20.4696 8.10929 21.422 10.0491 21.8079C11.9889 22.1937 13.9996 21.9957 15.8268 21.2388C17.6541 20.4819 19.2159 19.2002 20.3147 17.5557C21.4135 15.9112 22 13.9778 22 12C22 10.6868 21.7413 9.38642 21.2388 8.17317C20.7363 6.95991 19.9997 5.85752 19.0711 4.92893C18.1425 4.00035 17.0401 3.26375 15.8268 2.7612C14.6136 2.25866 13.3132 2 12 2ZM12 21C10.22 21 8.47991 20.4722 6.99987 19.4832C5.51983 18.4943 4.36628 17.0887 3.68509 15.4442C3.0039 13.7996 2.82567 11.99 3.17294 10.2442C3.5202 8.49836 4.37737 6.89471 5.63604 5.63604C6.89472 4.37737 8.49836 3.5202 10.2442 3.17293C11.99 2.82567 13.7996 3.0039 15.4442 3.68508C17.0887 4.36627 18.4943 5.51983 19.4832 6.99987C20.4722 8.47991 21 10.22 21 12C20.9974 14.3861 20.0483 16.6738 18.361 18.361C16.6738 20.0483 14.3861 20.9974 12 21ZM12.5 10.5H9.5V11.45H11.5V16.05H9.5V17H14.5V16.05H12.5V10.5Z" fill="black"/>
</svg>
