<svg width="24" height="24" viewBox="0 0 24 24" fill="none" xmlns="http://www.w3.org/2000/svg">
<path d="M12 2C10.0222 2 8.08879 2.58649 6.4443 3.6853C4.79981 4.78412 3.51809 6.3459 2.76121 8.17317C2.00433 10.0004 1.8063 12.0111 2.19215 13.9509C2.578 15.8907 3.53041 17.6725 4.92894 19.0711C6.32746 20.4696 8.10929 21.422 10.0491 21.8079C11.9889 22.1937 13.9996 21.9957 15.8268 21.2388C17.6541 20.4819 19.2159 19.2002 20.3147 17.5557C21.4135 15.9112 22 13.9778 22 12C22 10.6868 21.7413 9.38642 21.2388 8.17317C20.7363 6.95991 19.9997 5.85752 19.0711 4.92893C18.1425 4.00035 17.0401 3.26375 15.8268 2.7612C14.6136 2.25866 13.3132 2 12 2ZM12 6.85C12.089 6.85 12.176 6.87639 12.25 6.92584C12.324 6.97529 12.3817 7.04557 12.4158 7.12779C12.4498 7.21002 12.4587 7.3005 12.4414 7.38779C12.424 7.47508 12.3811 7.55526 12.3182 7.6182C12.2553 7.68113 12.1751 7.72399 12.0878 7.74135C12.0005 7.75872 11.91 7.74981 11.8278 7.71575C11.7456 7.68169 11.6753 7.62401 11.6258 7.55001C11.5764 7.476 11.55 7.389 11.55 7.3C11.55 7.18065 11.5974 7.06619 11.6818 6.9818C11.7662 6.89741 11.8807 6.85 12 6.85ZM14.5 17H9.5V16.5H11.75V11H9.5V10.5H12.25V16.5H14.5V17Z" fill="black"/>
</svg>
