<svg width="24" height="24" viewBox="0 0 24 24" fill="none" xmlns="http://www.w3.org/2000/svg">
<path d="M11.8794 15.8781C11.7904 15.8781 11.7034 15.9045 11.6294 15.9539C11.5554 16.0034 11.4977 16.0737 11.4637 16.1559C11.4296 16.2381 11.4207 16.3286 11.4381 16.4159C11.4554 16.5032 11.4983 16.5834 11.5612 16.6463C11.6241 16.7092 11.7043 16.7521 11.7916 16.7695C11.8789 16.7868 11.9694 16.7779 12.0516 16.7438C12.1338 16.7098 12.2041 16.6521 12.2536 16.5781C12.303 16.5041 12.3294 16.4171 12.3294 16.3281C12.3294 16.2088 12.282 16.0943 12.1976 16.0099C12.1132 15.9255 11.9988 15.8781 11.8794 15.8781ZM12 2C10.0222 2 8.08879 2.58649 6.4443 3.6853C4.79981 4.78412 3.51809 6.3459 2.76121 8.17317C2.00433 10.0004 1.8063 12.0111 2.19215 13.9509C2.578 15.8907 3.53041 17.6725 4.92894 19.0711C6.32746 20.4696 8.10929 21.422 10.0491 21.8079C11.9889 22.1937 13.9996 21.9957 15.8268 21.2388C17.6541 20.4819 19.2159 19.2002 20.3147 17.5557C21.4135 15.9112 22 13.9778 22 12C22 10.6868 21.7413 9.38642 21.2388 8.17317C20.7363 6.95991 19.9997 5.85752 19.0711 4.92893C18.1425 4.00035 17.0401 3.26375 15.8268 2.7612C14.6136 2.25866 13.3132 2 12 2ZM12 21.5C10.1211 21.5 8.28435 20.9428 6.72209 19.899C5.15982 18.8551 3.94218 17.3714 3.22315 15.6355C2.50412 13.8996 2.31598 11.9895 2.68254 10.1466C3.0491 8.30382 3.95389 6.61108 5.28249 5.28249C6.61109 3.95389 8.30383 3.0491 10.1466 2.68254C11.9895 2.31598 13.8996 2.50411 15.6355 3.22314C17.3714 3.94218 18.8551 5.15982 19.899 6.72208C20.9428 8.28435 21.5 10.1211 21.5 12C21.4971 14.5187 20.4953 16.9334 18.7144 18.7144C16.9334 20.4953 14.5187 21.4971 12 21.5ZM12.1436 6.98C10.8271 6.98 9.29 7.83 9.29 10.2241H9.79C9.79 8.2 11.0059 7.48 12.1436 7.48C12.7419 7.42694 13.3369 7.61272 13.7987 7.9968C14.2605 8.38088 14.5516 8.93205 14.6084 9.53C14.6084 10.4489 14.0215 10.8376 13.3408 11.2868C12.8258 11.5274 12.3901 11.9101 12.0851 12.3898C11.7801 12.8695 11.6184 13.4263 11.6191 13.9948H12.1191C12.1205 13.509 12.2628 13.034 12.5287 12.6273C12.7946 12.2207 13.1727 11.8999 13.6172 11.7038C14.044 11.5169 14.4099 11.2142 14.6735 10.83C14.937 10.4458 15.0877 9.99545 15.1084 9.53C15.0812 9.16787 14.983 8.81464 14.8193 8.49049C14.6556 8.16634 14.4296 7.87762 14.1543 7.64082C13.8789 7.40402 13.5597 7.22377 13.2147 7.11039C12.8697 6.997 12.5057 6.9527 12.1436 6.98Z" fill="black"/>
</svg>
