<svg width="24" height="24" viewBox="0 0 24 24" fill="none" xmlns="http://www.w3.org/2000/svg">
<path d="M18.0718 15.9678C18.0718 13.7344 16.2148 12.1094 12.9761 11.5088L12.355 11.3994C11.9214 11.3232 11.4062 11.2334 11.2891 11.21C8.8991 10.7324 7.5278 9.4707 7.5278 7.75C7.5278 5.3535 9.8604 4.5 12.0435 4.5C12.7908 4.5 16.3443 4.6774 16.7509 7.9374H17.7589C17.45 4.8754 14.8805 3.6505 12.5 3.5135V1H11.5V3.5348C8.4689 3.7108 6.5278 5.3148 6.5278 7.75C6.5278 9.959 8.2344 11.6191 11.0928 12.19C11.2128 12.2144 11.7397 12.3062 12.1828 12.3834L12.7936 12.4908C15.5124 12.9957 17.0715 14.2623 17.0715 15.9674C17.0715 18.0631 15.0529 19.483 12.048 19.4996C10.5561 19.5699 9.08979 19.0931 7.9245 18.1588C7.34202 17.5512 6.99989 16.7528 6.9617 15.912H5.9633C6.00042 17.0193 6.44841 18.0731 7.22 18.8682C8.40587 19.9045 9.92516 20.4793 11.5 20.4874V23H12.5V20.4689C15.8442 20.3022 18.0718 18.5422 18.0718 15.9678Z" fill="black"/>
</svg>
