<svg width="24" height="24" viewBox="0 0 24 24" fill="none" xmlns="http://www.w3.org/2000/svg">
<path d="M19.5625 11.0165V10.5317C19.5622 10.2582 19.4534 9.99592 19.26 9.8025C19.0666 9.60908 18.8043 9.50029 18.5308 9.5H16.29V12.0482H18.5305C18.8041 12.048 19.0664 11.9392 19.2599 11.7458C19.4534 11.5524 19.5622 11.2901 19.5625 11.0165ZM1 4V20H23V4H1ZM8.5941 12.8679C8.5941 13.1479 8.53895 13.4251 8.4318 13.6838C8.32466 13.9425 8.16761 14.1775 7.96962 14.3755C7.77164 14.5735 7.5366 14.7306 7.27792 14.8377C7.01924 14.9449 6.74199 15 6.462 15H3.79V9H6.462C6.74199 8.99999 7.01923 9.05512 7.27791 9.16226C7.53659 9.2694 7.77163 9.42644 7.96962 9.62441C8.1676 9.82239 8.32465 10.0574 8.4318 10.3161C8.53895 10.5748 8.5941 10.852 8.5941 11.132V12.8679ZM12.2652 15H11.7352L9.4774 9H10.0074L12 14.2962L13.993 9H14.523L12.2652 15ZM19.6444 15L18.0869 12.5482H16.29V15H15.79V9H18.53C18.7311 9 18.9303 9.03962 19.1162 9.11659C19.302 9.19357 19.4708 9.30639 19.6131 9.44862C19.7553 9.59086 19.8681 9.75971 19.9451 9.94554C20.0221 10.1314 20.0617 10.3306 20.0617 10.5317V11.0165C20.0611 11.4082 19.91 11.7847 19.6397 12.0683C19.3693 12.3518 19.0005 12.5207 18.6092 12.54L20.1718 15H19.6444ZM6.462 9.5H4.29V14.5H6.462C6.89471 14.4995 7.30957 14.3274 7.61554 14.0214C7.92152 13.7155 8.09362 13.3006 8.0941 12.8679V11.132C8.0936 10.6993 7.92148 10.2845 7.61551 9.97852C7.30954 9.67257 6.8947 9.50048 6.462 9.5Z" fill="black"/>
</svg>
