<svg width="24" height="24" viewBox="0 0 24 24" fill="none" xmlns="http://www.w3.org/2000/svg">
<path d="M12.49 7.75C12.579 7.75 12.666 7.72361 12.74 7.67416C12.814 7.62471 12.8717 7.55443 12.9058 7.47221C12.9398 7.38998 12.9487 7.2995 12.9314 7.21221C12.914 7.12492 12.8711 7.04474 12.8082 6.9818C12.7453 6.91887 12.6651 6.87601 12.5778 6.85865C12.4905 6.84128 12.4 6.85019 12.3178 6.88425C12.2356 6.91831 12.1653 6.97599 12.1158 7.04999C12.0664 7.124 12.04 7.211 12.04 7.3C12.04 7.41935 12.0874 7.53381 12.1718 7.6182C12.2562 7.70259 12.3707 7.75 12.49 7.75ZM12 2C10.0222 2 8.08879 2.58649 6.4443 3.6853C4.79981 4.78412 3.51809 6.3459 2.76121 8.17317C2.00433 10.0004 1.8063 12.0111 2.19215 13.9509C2.578 15.8907 3.53041 17.6725 4.92894 19.0711C6.32746 20.4696 8.10929 21.422 10.0491 21.8079C11.9889 22.1937 13.9996 21.9957 15.8268 21.2388C17.6541 20.4819 19.2159 19.2002 20.3147 17.5557C21.4135 15.9112 22 13.9778 22 12C22 10.6868 21.7413 9.38642 21.2388 8.17317C20.7363 6.95991 19.9997 5.85752 19.0711 4.92893C18.1425 4.00035 17.0401 3.26375 15.8268 2.7612C14.6136 2.25866 13.3132 2 12 2ZM12 21.5C10.1211 21.5 8.28435 20.9428 6.72209 19.899C5.15982 18.8551 3.94218 17.3714 3.22315 15.6355C2.50412 13.8996 2.31598 11.9895 2.68254 10.1466C3.0491 8.30382 3.95389 6.61108 5.28249 5.28249C6.61109 3.95389 8.30383 3.0491 10.1466 2.68254C11.9895 2.31598 13.8996 2.50411 15.6355 3.22314C17.3714 3.94218 18.8551 5.15982 19.899 6.72208C20.9428 8.28435 21.5 10.1211 21.5 12C21.4971 14.5187 20.4953 16.9334 18.7144 18.7144C16.9334 20.4953 14.5187 21.4971 12 21.5ZM12.0488 16.6846C11.9525 16.7073 11.8518 16.7041 11.7572 16.6753C11.6625 16.6464 11.5771 16.593 11.5098 16.5205C11.4403 16.4505 11.39 16.3637 11.3637 16.2686C11.3375 16.1735 11.3361 16.0733 11.3598 15.9775L12.3871 11.665C12.4294 11.4865 12.4258 11.3002 12.3765 11.1234C12.3272 10.9467 12.2339 10.7854 12.1054 10.6545C11.9768 10.5237 11.8171 10.4275 11.6413 10.3752C11.4655 10.3228 11.2792 10.3158 11.1 10.355L9.225 10.7642L9.3324 11.2525L11.2065 10.8433C11.3032 10.8222 11.4037 10.8259 11.4986 10.8542C11.5935 10.8825 11.6796 10.9343 11.749 11.005C11.8184 11.0756 11.8687 11.1627 11.8952 11.2581C11.9218 11.3534 11.9237 11.454 11.9008 11.5503L10.873 15.8623C10.8352 16.0215 10.8339 16.1872 10.8692 16.3471C10.9045 16.5069 10.9755 16.6566 11.0768 16.7851C11.1782 16.9136 11.3073 17.0175 11.4545 17.089C11.6017 17.1606 11.7631 17.1979 11.9268 17.1982C12.0026 17.1981 12.0781 17.1902 12.1523 17.1748L14.0423 16.7783L13.9388 16.2883L12.0488 16.6846Z" fill="black"/>
</svg>
