<svg width="24" height="24" viewBox="0 0 24 24" fill="none" xmlns="http://www.w3.org/2000/svg">
<path d="M14.7842 16V8.3H9.1384V8.8H14.2842V12.694C14.137 12.0208 13.7462 11.4258 13.187 11.0232C12.6277 10.6206 11.9394 10.4388 11.2543 10.5129C10.5692 10.5869 9.93562 10.9115 9.47528 11.4242C9.01493 11.937 8.7603 12.6018 8.7603 13.2909C8.7603 13.98 9.01493 14.6448 9.47528 15.1576C9.93562 15.6703 10.5692 15.9949 11.2543 16.0689C11.9394 16.143 12.6277 15.9612 13.187 15.5586C13.7462 15.156 14.137 14.561 14.2842 13.8878V16H14.7842ZM11.5156 15.5848C11.0638 15.5764 10.6245 15.4347 10.2528 15.1776C9.8812 14.9204 9.5938 14.5592 9.4267 14.1393C9.25959 13.7194 9.22022 13.2595 9.31353 12.8173C9.40684 12.3751 9.62867 11.9703 9.95119 11.6538C10.2737 11.3372 10.6825 11.1229 11.1264 11.0378C11.5702 10.9527 12.0293 11.0006 12.446 11.1755C12.8628 11.3504 13.2186 11.6444 13.4688 12.0208C13.719 12.3971 13.8525 12.839 13.8525 13.2909C13.8461 13.9047 13.5964 14.491 13.1583 14.921C12.7202 15.351 12.1295 15.5898 11.5156 15.5848ZM19.5 21.5H4.5V2.5H16V2H4V22H20V8H19.5V21.5ZM22.0783 3.2555L20.25 5.0839V1H19.75V5.0839L17.9217 3.2555L17.5678 3.6095L20 6.0416L22.4322 3.61L22.0783 3.2555Z" fill="black"/>
</svg>
