<svg width="24" height="24" viewBox="0 0 24 24" fill="none" xmlns="http://www.w3.org/2000/svg">
<path d="M12 2C10.0222 2 8.08879 2.58649 6.4443 3.6853C4.79981 4.78412 3.51809 6.3459 2.76121 8.17317C2.00433 10.0004 1.8063 12.0111 2.19215 13.9509C2.578 15.8907 3.53041 17.6725 4.92894 19.0711C6.32746 20.4696 8.10929 21.422 10.0491 21.8079C11.9889 22.1937 13.9996 21.9957 15.8268 21.2388C17.6541 20.4819 19.2159 19.2002 20.3147 17.5557C21.4135 15.9112 22 13.9778 22 12C22 10.6868 21.7413 9.38642 21.2388 8.17317C20.7363 6.95991 19.9997 5.85752 19.0711 4.92893C18.1425 4.00035 17.0401 3.26375 15.8268 2.7612C14.6136 2.25866 13.3132 2 12 2ZM11.8794 16.7781C11.7904 16.7781 11.7034 16.7517 11.6294 16.7023C11.5554 16.6528 11.4977 16.5825 11.4637 16.5003C11.4296 16.4181 11.4207 16.3276 11.4381 16.2403C11.4554 16.153 11.4983 16.0728 11.5612 16.0099C11.6241 15.947 11.7043 15.9041 11.7916 15.8867C11.8789 15.8694 11.9694 15.8783 12.0516 15.9124C12.1338 15.9464 12.2041 16.0041 12.2536 16.0781C12.303 16.1521 12.3294 16.2391 12.3294 16.3281C12.3294 16.4474 12.282 16.5619 12.1976 16.6463C12.1132 16.7307 11.9988 16.7781 11.8794 16.7781ZM13.6172 11.7031C13.1727 11.8992 12.7946 12.22 12.5287 12.6266C12.2628 13.0333 12.1205 13.5083 12.1191 13.9941H11.6191C11.6184 13.4256 11.7801 12.8688 12.0851 12.3891C12.3901 11.9094 12.8258 11.5267 13.3408 11.2861C14.0215 10.8369 14.6084 10.4482 14.6084 9.5293C14.5516 8.93135 14.2605 8.38018 13.7987 7.9961C13.3369 7.61202 12.7419 7.42624 12.1436 7.4793C11.0059 7.48 9.79 8.2 9.79 10.2236H9.29C9.29 7.8291 10.8271 6.9795 12.1436 6.9795C12.5057 6.9522 12.8697 6.99651 13.2147 7.10989C13.5597 7.22327 13.8789 7.40351 14.1543 7.64032C14.4296 7.87712 14.6556 8.16584 14.8193 8.48999C14.983 8.81414 15.0812 9.16737 15.1084 9.5295C15.0877 9.99492 14.937 10.4452 14.6734 10.8294C14.4099 11.2136 14.044 11.5162 13.6172 11.7031Z" fill="black"/>
</svg>
