<svg width="24" height="24" viewBox="0 0 24 24" fill="none" xmlns="http://www.w3.org/2000/svg">
<path d="M12 2C10.0222 2 8.08879 2.58649 6.4443 3.6853C4.79981 4.78412 3.51809 6.3459 2.76121 8.17317C2.00433 10.0004 1.8063 12.0111 2.19215 13.9509C2.578 15.8907 3.53041 17.6725 4.92894 19.0711C6.32746 20.4696 8.10929 21.422 10.0491 21.8079C11.9889 22.1937 13.9996 21.9957 15.8268 21.2388C17.6541 20.4819 19.2159 19.2002 20.3147 17.5557C21.4135 15.9112 22 13.9778 22 12C22 10.6868 21.7413 9.38642 21.2388 8.17317C20.7363 6.95991 19.9997 5.85752 19.0711 4.92893C18.1425 4.00035 17.0401 3.26375 15.8268 2.7612C14.6136 2.25866 13.3132 2 12 2ZM12 6.85C12.1813 6.85 12.3585 6.90375 12.5092 7.00446C12.6599 7.10516 12.7774 7.2483 12.8467 7.41577C12.9161 7.58324 12.9343 7.76752 12.8989 7.9453C12.8635 8.12308 12.7762 8.28639 12.6481 8.41456C12.5199 8.54274 12.3566 8.63003 12.1788 8.66539C12.001 8.70075 11.8167 8.6826 11.6493 8.61324C11.4818 8.54387 11.3387 8.4264 11.238 8.27568C11.1373 8.12496 11.0835 7.94777 11.0835 7.7665C11.0835 7.52343 11.1801 7.29031 11.3519 7.11844C11.5238 6.94656 11.7569 6.85 12 6.85ZM14.5 17H9.5V15.6H11.25V11.9H9.5V10.5H12.75V15.6H14.5V17Z" fill="black"/>
</svg>
