<svg width="24" height="24" viewBox="0 0 24 24" fill="none" xmlns="http://www.w3.org/2000/svg">
<path d="M12 2C10.0222 2 8.08879 2.58649 6.4443 3.6853C4.79981 4.78412 3.51809 6.3459 2.76121 8.17317C2.00433 10.0004 1.8063 12.0111 2.19215 13.9509C2.578 15.8907 3.53041 17.6725 4.92894 19.0711C6.32746 20.4696 8.10929 21.422 10.0491 21.8079C11.9889 22.1937 13.9996 21.9957 15.8268 21.2388C17.6541 20.4819 19.2159 19.2002 20.3147 17.5557C21.4135 15.9112 22 13.9778 22 12C22 10.6868 21.7413 9.38642 21.2388 8.17317C20.7363 6.95991 19.9997 5.85752 19.0711 4.92893C18.1425 4.00035 17.0401 3.26375 15.8268 2.7612C14.6136 2.25866 13.3132 2 12 2ZM12.675 7L12.42 13.5H11.58L11.325 7H12.675ZM12 16.902C11.8649 16.902 11.7327 16.8619 11.6204 16.7868C11.508 16.7118 11.4204 16.605 11.3687 16.4802C11.317 16.3553 11.3035 16.2179 11.3298 16.0854C11.3562 15.9528 11.4213 15.8311 11.5169 15.7355C11.6124 15.6399 11.7342 15.5749 11.8668 15.5485C11.9993 15.5222 12.1367 15.5357 12.2616 15.5874C12.3864 15.6392 12.4931 15.7268 12.5682 15.8392C12.6433 15.9515 12.6833 16.0837 12.6833 16.2188C12.6833 16.3085 12.6656 16.3974 12.6313 16.4803C12.5969 16.5632 12.5466 16.6385 12.4832 16.7019C12.4197 16.7654 12.3444 16.8157 12.2615 16.85C12.1786 16.8844 12.0897 16.902 12 16.902Z" fill="black"/>
</svg>
