<svg width="24" height="24" viewBox="0 0 24 24" fill="none" xmlns="http://www.w3.org/2000/svg">
<path d="M16.1416 2H7.8584L2 7.8579V16.1416L7.8584 22H16.1416L22 16.1416V7.8579L16.1416 2ZM20 15.3132L15.3132 20H8.6868L4 15.3132V8.6863L8.6868 4H15.3132L20 8.6863V15.3132ZM11.2422 13.5H12.7578L13.2188 7H10.7812L11.2422 13.5ZM12 14.85C11.7726 14.85 11.5502 14.9174 11.3611 15.0438C11.172 15.1702 11.0246 15.3498 10.9375 15.5599C10.8505 15.77 10.8277 16.0013 10.8721 16.2244C10.9165 16.4474 11.026 16.6523 11.1868 16.8132C11.3477 16.974 11.5526 17.0835 11.7756 17.1279C11.9987 17.1723 12.23 17.1495 12.4401 17.0625C12.6502 16.9754 12.8298 16.828 12.9562 16.6389C13.0826 16.4498 13.15 16.2274 13.15 16C13.15 15.695 13.0288 15.4025 12.8132 15.1868C12.5975 14.9712 12.305 14.85 12 14.85Z" fill="black"/>
</svg>
