<svg width="24" height="24" viewBox="0 0 24 24" fill="none" xmlns="http://www.w3.org/2000/svg">
<path d="M3.511 12.3612H6.3443V15H7.1776V9H6.3443V11.6181H3.511V9H2.6776V15H3.511V12.3612ZM9.7875 15H10.6208V9.7916H13.5619V15H14.3952V9.7916H16.1328V9H8.0447V9.7916H9.7875V15ZM17.8562 12.7557H19.6887C20.1217 12.7557 20.5371 12.5837 20.8433 12.2775C21.1495 11.9713 21.3215 11.5559 21.3215 11.1229V10.6329C21.3215 10.4185 21.2793 10.2061 21.1972 10.008C21.1152 9.80991 20.9949 9.6299 20.8433 9.47827C20.6917 9.32664 20.5117 9.20636 20.3136 9.1243C20.1155 9.04224 19.9031 9 19.6887 9H17.0228V15H17.8562V12.7557ZM17.8562 9.8333H19.6887C19.9008 9.83343 20.1041 9.91778 20.2541 10.0678C20.404 10.2178 20.4882 10.4212 20.4882 10.6333V11.1233C20.488 11.3353 20.4038 11.5385 20.2539 11.6884C20.1039 11.8383 19.9007 11.9226 19.6887 11.9227H17.8562V9.8333ZM0 4V20H24V4H0ZM23 19H1V5H23V19Z" fill="black"/>
</svg>
