<svg width="24" height="24" viewBox="0 0 24 24" fill="none" xmlns="http://www.w3.org/2000/svg">
<path d="M15.4141 2H4V22H20V6.5859L15.4141 2ZM19 21H5V3H15L19 7V21ZM9.0922 9.2282H13.9116V12.31C13.6679 11.7266 13.2297 11.2456 12.6715 10.9488C12.1132 10.652 11.4694 10.5577 10.8495 10.682C10.2295 10.8062 9.6718 11.1414 9.27107 11.6304C8.87034 12.1194 8.65135 12.7322 8.65135 13.3644C8.65135 13.9966 8.87034 14.6094 9.27107 15.0984C9.6718 15.5874 10.2295 15.9226 10.8495 16.0468C11.4694 16.1711 12.1132 16.0768 12.6715 15.78C13.2297 15.4832 13.6679 15.0022 13.9116 14.4188V16H14.8561V8.3H9.0922V9.2282ZM11.3611 15.2C10.9992 15.1944 10.6471 15.082 10.3489 14.8768C10.0507 14.6717 9.81982 14.383 9.68521 14.0471C9.5506 13.7111 9.51829 13.3429 9.59233 12.9886C9.66637 12.6343 9.84347 12.3099 10.1014 12.0559C10.3593 11.802 10.6864 11.63 11.0418 11.5614C11.3972 11.4929 11.7649 11.5309 12.0987 11.6707C12.4325 11.8105 12.7176 12.0459 12.9181 12.3472C13.1186 12.6485 13.2255 13.0024 13.2255 13.3643C13.2211 13.8548 13.0223 14.3235 12.6728 14.6676C12.3233 15.0117 11.8516 15.2032 11.3611 15.2Z" fill="black"/>
</svg>
