<svg width="24" height="24" viewBox="0 0 24 24" fill="none" xmlns="http://www.w3.org/2000/svg">
<path d="M15.031 4.35398L17.8636 9.25998L16.4521 8.88188L16.1934 9.84768L19.2539 10.6677L20.0739 7.60768L19.1079 7.34888L18.73 8.75998L15.8971 3.85398C15.5021 3.1699 14.9341 2.60184 14.25 2.20688C13.5659 1.81193 12.7899 1.604 12 1.604C11.2101 1.604 10.4341 1.81193 9.75 2.20688C9.06592 2.60184 8.49785 3.1699 8.10289 3.85398L6.31289 6.95398L7.17889 7.45398L8.96889 4.35398C9.27608 3.82193 9.71791 3.38011 10.25 3.07294C10.782 2.76576 11.3856 2.60405 11.9999 2.60405C12.6143 2.60405 13.2178 2.76576 13.7499 3.07294C14.282 3.38011 14.7238 3.82193 15.031 4.35398ZM2.38939 19.25C2.07867 18.7191 1.9149 18.1151 1.9149 17.5C1.9149 16.8849 2.07867 16.2808 2.38939 15.75L5.22199 10.8438L5.59999 12.2552L6.56589 11.9965L5.74589 8.93648L2.68589 9.75648L2.94469 10.7224L4.35629 10.3443L1.52339 15.25C1.12843 15.9341 0.920502 16.7101 0.920502 17.5C0.920501 18.2899 1.12843 19.0659 1.52338 19.75C1.91834 20.4341 2.48641 21.0021 3.17049 21.3971C3.85458 21.792 4.63057 22 5.42049 22H8.99999V21H5.41999C4.80497 21.0035 4.2001 20.8433 3.66749 20.5357C3.13489 20.2282 2.69375 19.7844 2.38939 19.25ZM22.4766 15.25L20.6866 12.15L19.8206 12.65L21.6106 15.75C21.9178 16.282 22.0795 16.8855 22.0795 17.4999C22.0795 18.1142 21.9178 18.7177 21.6107 19.2498C21.3036 19.7818 20.8618 20.2237 20.3298 20.5309C19.7978 20.8381 19.1943 20.9999 18.58 21H12.9143L13.9475 19.9667L13.2405 19.2596L11 21.5L13.24 23.74L13.9471 23.0329L12.9143 22H18.58C19.3699 21.9999 20.1458 21.7919 20.8298 21.3969C21.5138 21.0019 22.0818 20.4338 22.4767 19.7498C22.8716 19.0657 23.0795 18.2897 23.0795 17.4999C23.0794 16.71 22.8715 15.934 22.4766 15.25ZM14.0479 14.0262C14.0559 13.7661 14.0108 13.5071 13.9153 13.265C13.8198 13.0229 13.6759 12.8029 13.4924 12.6183C13.309 12.4338 13.0898 12.2886 12.8483 12.1917C12.6068 12.0948 12.348 12.0482 12.0879 12.0547C11.7452 12.0586 11.4104 12.1576 11.1208 12.3408C10.8312 12.524 10.5982 12.7841 10.4479 13.0921C10.4618 11.1779 11.3833 10.6495 12.1312 10.6495C12.3773 10.6489 12.6199 10.7079 12.8382 10.8214C13.0566 10.9349 13.2442 11.0995 13.3852 11.3013L13.8994 10.7886C13.7 10.5055 13.435 10.2749 13.1271 10.1166C12.8191 9.95819 12.4774 9.87674 12.1312 9.87918C10.9278 9.87918 9.64169 10.6936 9.64169 12.9792C9.64169 15.4392 10.9056 16.1208 11.9773 16.1208C12.2525 16.1254 12.5258 16.0742 12.7807 15.9703C13.0356 15.8664 13.2668 15.7119 13.4603 15.5161C13.6539 15.3203 13.8057 15.0874 13.9067 14.8313C14.0077 14.5752 14.0557 14.3013 14.0479 14.0262ZM10.6611 14.0626C10.6608 13.8892 10.6952 13.7175 10.7621 13.5575C10.8289 13.3976 10.927 13.2525 11.0506 13.1309C11.1742 13.0093 11.3208 12.9135 11.4818 12.8492C11.6428 12.7849 11.815 12.7533 11.9884 12.7563C12.1555 12.7482 12.3225 12.7749 12.4787 12.8348C12.635 12.8948 12.777 12.9865 12.8959 13.1043C13.0147 13.2221 13.1077 13.3634 13.1691 13.519C13.2304 13.6747 13.2586 13.8415 13.252 14.0087C13.2607 14.1819 13.2346 14.3552 13.1752 14.5181C13.1158 14.6811 13.0242 14.8305 12.906 14.9574C12.7878 15.0844 12.6453 15.1863 12.487 15.2572C12.3287 15.3281 12.1577 15.3665 11.9843 15.3701C11.8109 15.3737 11.6385 15.3424 11.4773 15.2782C11.3162 15.214 11.1696 15.1181 11.0462 14.9961C10.9228 14.8742 10.8252 14.7288 10.759 14.5684C10.6928 14.408 10.6596 14.236 10.6611 14.0626Z" fill="black"/>
</svg>
