<svg width="24" height="24" viewBox="0 0 24 24" fill="none" xmlns="http://www.w3.org/2000/svg">
<path d="M12 2C10.0222 2 8.08879 2.58649 6.4443 3.6853C4.79981 4.78412 3.51809 6.3459 2.76121 8.17317C2.00433 10.0004 1.8063 12.0111 2.19215 13.9509C2.578 15.8907 3.53041 17.6725 4.92894 19.0711C6.32746 20.4696 8.10929 21.422 10.0491 21.8079C11.9889 22.1937 13.9996 21.9957 15.8268 21.2388C17.6541 20.4819 19.2159 19.2002 20.3147 17.5557C21.4135 15.9112 22 13.9778 22 12C22 10.6868 21.7413 9.38642 21.2388 8.17317C20.7363 6.95991 19.9997 5.85752 19.0711 4.92893C18.1425 4.00035 17.0401 3.26375 15.8268 2.7612C14.6136 2.25866 13.3132 2 12 2ZM12.25 17H11.75V10.5H12.25V17ZM12 7.75C11.911 7.75 11.824 7.72361 11.75 7.67416C11.676 7.62471 11.6183 7.55443 11.5843 7.47221C11.5502 7.38998 11.5413 7.2995 11.5587 7.21221C11.576 7.12492 11.6189 7.04474 11.6818 6.9818C11.7447 6.91887 11.8249 6.87601 11.9122 6.85865C11.9995 6.84128 12.09 6.85019 12.1722 6.88425C12.2544 6.91831 12.3247 6.97599 12.3742 7.04999C12.4236 7.124 12.45 7.211 12.45 7.3C12.45 7.41935 12.4026 7.53381 12.3182 7.6182C12.2338 7.70259 12.1194 7.75 12 7.75Z" fill="black"/>
</svg>
