<svg width="24" height="24" viewBox="0 0 24 24" fill="none" xmlns="http://www.w3.org/2000/svg">
<path d="M12 2C10.0222 2 8.08879 2.58649 6.4443 3.6853C4.79981 4.78412 3.51809 6.3459 2.76121 8.17317C2.00433 10.0004 1.8063 12.0111 2.19215 13.9509C2.578 15.8907 3.53041 17.6725 4.92894 19.0711C6.32746 20.4696 8.10929 21.422 10.0491 21.8079C11.9889 22.1937 13.9996 21.9957 15.8268 21.2388C17.6541 20.4819 19.2159 19.2002 20.3147 17.5557C21.4135 15.9112 22 13.9778 22 12C22 10.6868 21.7413 9.38642 21.2388 8.17317C20.7363 6.95991 19.9997 5.85752 19.0711 4.92893C18.1425 4.00035 17.0401 3.26375 15.8268 2.7612C14.6136 2.25866 13.3132 2 12 2ZM12.75 17H11.25V10.5H12.75V17ZM12 8.6829C11.8187 8.6829 11.6415 8.62915 11.4908 8.52843C11.3401 8.42772 11.2226 8.28458 11.1533 8.11711C11.0839 7.94963 11.0658 7.76535 11.1011 7.58756C11.1365 7.40978 11.2238 7.24647 11.352 7.1183C11.4802 6.99013 11.6435 6.90285 11.8213 6.8675C11.9991 6.83215 12.1833 6.85031 12.3508 6.91969C12.5183 6.98908 12.6614 7.10656 12.7621 7.25729C12.8628 7.40802 12.9165 7.58523 12.9165 7.7665C12.9165 8.00955 12.8199 8.24264 12.648 8.4145C12.4762 8.58635 12.2431 8.6829 12 8.6829Z" fill="black"/>
</svg>
