<svg width="24" height="24" viewBox="0 0 24 24" fill="none" xmlns="http://www.w3.org/2000/svg">
<path d="M1 4V20H23V4H1ZM10.4066 10.9412H8.9066V10.9C8.9066 10.7939 8.86446 10.6922 8.78944 10.6172C8.71443 10.5421 8.61269 10.5 8.5066 10.5H7.6183C7.48161 10.5002 7.35057 10.5545 7.25393 10.6512C7.15728 10.7479 7.10293 10.8789 7.1028 11.0156V12.9844C7.10293 13.1211 7.15728 13.2521 7.25393 13.3488C7.35057 13.4455 7.48161 13.4998 7.6183 13.5H8.5066C8.61269 13.5 8.71443 13.4579 8.78944 13.3828C8.86446 13.3078 8.9066 13.2061 8.9066 13.1V12.7513H8.056V11.6176H10.4066V13.1C10.4066 13.6039 10.2064 14.0872 9.8501 14.4435C9.49378 14.7998 9.01051 15 8.5066 15H7.6183C7.35361 15 7.09152 14.9479 6.84698 14.8466C6.60244 14.7453 6.38025 14.5968 6.19309 14.4096C6.00593 14.2225 5.85747 14.0003 5.75619 13.7557C5.65491 13.5112 5.60279 13.2491 5.6028 12.9844V11.0156C5.60279 10.7509 5.65491 10.4888 5.75619 10.2443C5.85747 9.99973 6.00593 9.77753 6.19309 9.59036C6.38025 9.40319 6.60244 9.25472 6.84698 9.15343C7.09152 9.05214 7.35361 9 7.6183 9H8.5066C9.01051 9 9.49378 9.20018 9.8501 9.5565C10.2064 9.91282 10.4066 10.3961 10.4066 10.9V10.9412ZM13.0625 15H11.5625V9H13.0625V15ZM18.6056 10.375H16.1028V11.6181H18.3256V12.8475H16.1028V15H14.6028V9H18.6056V10.375Z" fill="black"/>
</svg>
