<svg width="24" height="24" viewBox="0 0 24 24" fill="none" xmlns="http://www.w3.org/2000/svg">
<path d="M5.41107 2L1.60907 12H3.31567L4.33997 9.3068H8.18997L9.21317 12H10.92L7.11777 2H5.41107ZM4.85717 7.9457L6.26447 4.2444L7.67177 7.9457H4.85717ZM18.6228 14.2979H22V12.9368H17.68V10.4707H16.32V12.9368H12V14.2979H15.35C14.5971 16.12 13.3626 17.703 11.7788 18.877L12.576 20.077C14.2185 18.7716 15.4941 17.0624 16.2783 15.1164L16.3195 15.1169V21H17.6805V15.1339H17.716C18.5342 17.0067 19.7608 18.6729 21.306 20.0106L22.226 18.8791C20.6654 17.6726 19.4276 16.0988 18.6228 14.2979Z" fill="black"/>
</svg>
