<svg width="24" height="24" viewBox="0 0 24 24" fill="none" xmlns="http://www.w3.org/2000/svg">
<path d="M22.5781 4.21091H20.4681L18.9081 1.21191H17.7754L18.3625 4.21091H16.57L15.96 3.19621H15.191V6.77781H15.96L16.57 5.76311H18.3627L17.7756 8.74651H18.9089L20.4689 5.76311H22.5789C22.7847 5.76311 22.9821 5.68135 23.1277 5.5358C23.2732 5.39025 23.355 5.19285 23.355 4.98701C23.355 4.78118 23.2732 4.58378 23.1277 4.43823C22.9821 4.29268 22.7847 4.21091 22.5789 4.21091H22.5781ZM12.4381 7.43751H3.5615C2.97144 7.43751 2.40328 7.66106 1.97144 8.06316C1.53959 8.46526 1.27613 9.01605 1.2341 9.60461C1.07803 11.7888 1 13.9765 1 16.1676V22.34C1 22.5151 1.06954 22.6829 1.19331 22.8067C1.31708 22.9305 1.48496 23 1.66 23H2.34C2.51504 23 2.68292 22.9305 2.80669 22.8067C2.93046 22.6829 3 22.5151 3 22.34V21.4375H13V22.34C13 22.5151 13.0695 22.6829 13.1933 22.8067C13.3171 22.9305 13.485 23 13.66 23H14.34C14.515 23 14.6829 22.9305 14.8067 22.8067C14.9305 22.6829 15 22.5151 15 22.34V16.1676C15 13.9778 14.922 11.7901 14.7659 9.60461C14.7239 9.01605 14.4604 8.46526 14.0286 8.06316C13.5967 7.66106 13.0286 7.43751 12.4385 7.43751H12.4381ZM3.7981 18.6605C3.59606 18.6605 3.39857 18.6005 3.23061 18.4882C3.06265 18.3759 2.93176 18.2163 2.85448 18.0297C2.7772 17.843 2.75701 17.6376 2.79647 17.4394C2.83592 17.2413 2.93324 17.0593 3.07613 16.9164C3.21901 16.7736 3.40104 16.6763 3.59921 16.6369C3.79737 16.5975 4.00276 16.6178 4.18942 16.6951C4.37607 16.7724 4.53561 16.9034 4.64785 17.0714C4.76009 17.2394 4.82 17.4369 4.82 17.6389C4.82001 17.7731 4.79358 17.906 4.74222 18.03C4.69086 18.1539 4.61558 18.2666 4.52067 18.3615C4.42576 18.4563 4.31309 18.5316 4.18909 18.5829C4.06509 18.6342 3.9322 18.6606 3.798 18.6605H3.7981ZM12.2021 18.6605C12 18.6605 11.8025 18.6006 11.6345 18.4884C11.4665 18.3761 11.3355 18.2166 11.2582 18.0299C11.1809 17.8433 11.1606 17.6378 11.2 17.4397C11.2394 17.2415 11.3367 17.0595 11.4796 16.9166C11.6225 16.7737 11.8045 16.6764 12.0027 16.637C12.2008 16.5975 12.4062 16.6178 12.5929 16.6951C12.7796 16.7724 12.9392 16.9033 13.0514 17.0713C13.1637 17.2393 13.2236 17.4369 13.2236 17.6389C13.2236 17.7731 13.1972 17.9059 13.1459 18.0299C13.0945 18.1538 13.0193 18.2665 12.9244 18.3613C12.8295 18.4562 12.7169 18.5314 12.593 18.5828C12.469 18.6341 12.3362 18.6605 12.202 18.6605H12.2021ZM1.521 15C1.5439 13.213 1.606 11.4168 1.7329 9.64001C1.75253 9.38434 1.82581 9.13567 1.94797 8.91021C2.07013 8.68476 2.23843 8.48757 2.4419 8.33151H13.5581C13.7616 8.48759 13.9299 8.68479 14.0521 8.91026C14.1742 9.13574 14.2475 9.38442 14.2671 9.64011C14.394 11.4166 14.4561 13.2128 14.479 15.0001L1.521 15Z" fill="black"/>
</svg>
