<svg width="24" height="24" viewBox="0 0 24 24" fill="none" xmlns="http://www.w3.org/2000/svg">
<path d="M23 13.1025C23 12.7981 22.9305 12.4978 22.7968 12.2243C22.6632 11.9508 22.4689 11.7115 22.2287 11.5245L20.2708 10L18.5446 6.6317C18.2928 6.1404 17.9103 5.72811 17.4393 5.44022C16.9682 5.15233 16.4269 5 15.8748 5H1V17.3333L3.5787 17.6614C3.71723 18.2278 4.03281 18.7352 4.47956 19.1098C4.92631 19.4845 5.48093 19.7069 6.06277 19.7447C6.6446 19.7824 7.22332 19.6336 7.71475 19.3198C8.20619 19.0061 8.58472 18.5437 8.7953 18H15.3818C15.586 18.5284 15.9491 18.9805 16.4211 19.2938C16.8931 19.607 17.4506 19.7661 18.0169 19.749C18.5831 19.732 19.1301 19.5396 19.5824 19.1984C20.0346 18.8573 20.3698 18.3842 20.5418 17.8444L23 17.7083V13.1025ZM3 7H15.8748C16.0589 6.99955 16.2396 7.05013 16.3967 7.14615C16.5538 7.24216 16.6812 7.37984 16.7648 7.5439L18.0234 10H3V7ZM6.24 18C6.04222 18 5.84888 17.9414 5.68443 17.8315C5.51998 17.7216 5.39181 17.5654 5.31612 17.3827C5.24043 17.2 5.22063 16.9989 5.25921 16.8049C5.2978 16.6109 5.39304 16.4327 5.53289 16.2929C5.67275 16.153 5.85093 16.0578 6.04491 16.0192C6.23889 15.9806 6.43996 16.0004 6.62268 16.0761C6.80541 16.1518 6.96159 16.28 7.07147 16.4444C7.18135 16.6089 7.24 16.8022 7.24 17C7.23971 17.2651 7.13426 17.5193 6.94678 17.7068C6.75931 17.8943 6.50513 17.9997 6.24 18ZM17.9379 18C17.7401 18 17.5468 17.9414 17.3823 17.8315C17.2179 17.7216 17.0897 17.5654 17.014 17.3827C16.9383 17.2 16.9185 16.9989 16.9571 16.8049C16.9957 16.6109 17.0909 16.4327 17.2308 16.2929C17.3706 16.153 17.5488 16.0578 17.7428 16.0192C17.9368 15.9806 18.1379 16.0004 18.3206 16.0761C18.5033 16.1518 18.6595 16.28 18.7694 16.4444C18.8793 16.6089 18.9379 16.8022 18.9379 17C18.9376 17.2652 18.8321 17.5194 18.6445 17.7069C18.457 17.8944 18.2027 17.9998 17.9375 18H17.9379ZM21 15.8159L20.4269 15.8477C20.2023 15.3583 19.8385 14.9458 19.3809 14.662C18.9233 14.3781 18.3921 14.2354 17.8539 14.2516C17.3156 14.2679 16.7941 14.4424 16.3544 14.7533C15.9147 15.0643 15.5764 15.4979 15.3818 16H8.7953C8.60738 15.513 8.28396 15.0899 7.86326 14.7808C7.44257 14.4717 6.94218 14.2895 6.42124 14.2557C5.9003 14.222 5.38057 14.338 4.92348 14.5902C4.4664 14.8424 4.09105 15.2201 3.8418 15.6788L3 15.5717V12H19.584L21 13.1025V15.8159Z" fill="black"/>
</svg>
