<svg width="24" height="24" viewBox="0 0 24 24" fill="none" xmlns="http://www.w3.org/2000/svg">
<path d="M23 17.0001V13.3959C23.0012 13.0406 22.9057 12.6918 22.7237 12.3867C22.5417 12.0816 22.2801 11.8317 21.967 11.664C20.6405 10.9548 19.1701 10.5567 17.667 10.4998L14.9579 7.44638C14.3513 6.7672 13.5213 6.32811 12.6185 6.20888L12.3527 4.88818H9.0233L8.7832 6.22008C7.7052 6.36188 6.71592 6.89197 6.0008 7.71098L3.6059 10.5001H2.7839C2.31083 10.5001 1.85714 10.688 1.5226 11.0225C1.18806 11.357 1.00008 11.8106 1 12.2837V16.4723L3.149 16.8305C3.25745 17.4515 3.57664 18.0163 4.0528 18.4295C4.52895 18.8427 5.13298 19.0792 5.76313 19.0991C6.39328 19.119 7.01104 18.9212 7.51234 18.5388C8.01364 18.1565 8.36785 17.6131 8.5153 17.0001H15.649C15.7925 17.5988 16.1334 18.1317 16.6168 18.5129C17.1002 18.8942 17.6979 19.1015 18.3136 19.1015C18.9292 19.1015 19.5269 18.8942 20.0103 18.5129C20.4937 18.1317 20.8346 17.5988 20.9781 17.0001H23ZM7.1026 8.62678C7.3895 8.29968 7.74293 8.03761 8.13927 7.8581C8.53561 7.67859 8.96571 7.58578 9.4008 7.58588H12.0919C12.7174 7.58477 13.3184 7.8289 13.7659 8.26588C13.8018 8.30058 13.9059 8.40588 13.9384 8.44498L15.8 10.5001H5.4876L7.1026 8.62678ZM5.8507 17.8006C5.56392 17.8006 5.28357 17.7155 5.04512 17.5562C4.80667 17.3969 4.62082 17.1704 4.51107 16.9055C4.40133 16.6405 4.37261 16.349 4.42856 16.0677C4.48451 15.7864 4.62261 15.5281 4.8254 15.3253C5.02818 15.1225 5.28655 14.9844 5.56782 14.9284C5.84909 14.8725 6.14064 14.9012 6.40559 15.011C6.67054 15.1207 6.897 15.3066 7.05633 15.545C7.21566 15.7835 7.3007 16.0638 7.3007 16.3506C7.30028 16.735 7.14737 17.1036 6.87554 17.3754C6.6037 17.6473 6.23513 17.8002 5.8507 17.8006ZM18.3135 17.8006C18.0267 17.8006 17.7464 17.7155 17.5079 17.5562C17.2695 17.3969 17.0836 17.1704 16.9739 16.9055C16.8641 16.6405 16.8354 16.349 16.8914 16.0677C16.9473 15.7864 17.0854 15.5281 17.2882 15.3253C17.491 15.1225 17.7493 14.9844 18.0306 14.9284C18.3119 14.8725 18.6034 14.9012 18.8684 15.011C19.1333 15.1207 19.3598 15.3066 19.5191 15.545C19.6785 15.7835 19.7635 16.0638 19.7635 16.3506C19.7631 16.735 19.6101 17.1036 19.3383 17.3754C19.0665 17.6472 18.6979 17.8001 18.3135 17.8006Z" fill="black"/>
</svg>
