<svg width="24" height="24" viewBox="0 0 24 24" fill="none" xmlns="http://www.w3.org/2000/svg">
<path d="M0 19V21H24V19H0ZM9.791 15.4258L18.5771 13.1172C19.7123 12.8128 20.8114 12.387 21.8555 11.8472L22.3018 11.6172C22.8027 11.3584 23.2079 10.9465 23.4584 10.4414C23.7088 9.93623 23.7915 9.36433 23.6943 8.80897C23.597 8.2536 23.3251 7.74378 22.9179 7.35376C22.5108 6.96374 21.9897 6.7139 21.4307 6.64064L18.3877 6.24124L14.5928 7.24124L9.6875 2.33594L4.9756 3.63874L8.0547 8.99714L6.1318 9.48634L4.4932 7.84774L0.0146 9.04694L3.6523 15.4258H9.791ZM3.8955 10.0781L5.5225 11.7051L11.1016 10.2861L7.9951 4.87894L9.0977 4.57424L13.9912 9.46784L18.5166 8.27444L21.1709 8.62304C21.3076 8.641 21.435 8.70213 21.5345 8.79751C21.634 8.8929 21.7005 9.01756 21.7243 9.15336C21.748 9.28915 21.7278 9.42898 21.6666 9.55249C21.6053 9.676 21.5063 9.77674 21.3838 9.84004L20.9375 10.07C20.0226 10.5435 19.0594 10.9171 18.0645 11.1843L9.5332 13.4258H4.8145L3.0361 10.3086L3.8955 10.0781Z" fill="black"/>
</svg>
