<svg width="24" height="24" viewBox="0 0 24 24" fill="none" xmlns="http://www.w3.org/2000/svg">
<path d="M23 16.9998V12.3411C23.0008 12.0109 22.9136 11.6864 22.7474 11.4011C22.5811 11.1158 22.3419 10.8799 22.0542 10.7178C20.6451 9.93935 19.0656 9.52096 17.456 9.49979L14.6078 6.51729C14.0819 5.97197 13.3686 5.64671 12.612 5.60729L12.3674 4.39209H9.0758L8.857 5.60519C8.32896 5.62262 7.80964 5.7448 7.32921 5.96462C6.84878 6.18444 6.41682 6.49752 6.0584 6.88569L3.6614 9.49979H2.7839C2.31083 9.49979 1.85714 9.6877 1.5226 10.0222C1.18806 10.3567 1.00008 10.8103 1 11.2834V16.1998L3.7148 16.8857C3.86493 17.4128 4.1798 17.878 4.61334 18.2133C5.04689 18.5486 5.57635 18.7364 6.12426 18.7491C6.67218 18.7619 7.2098 18.5989 7.65847 18.2842C8.10714 17.9694 8.44331 17.5193 8.6178 16.9998H15.1332C15.3044 17.5097 15.6315 17.9529 16.0682 18.2669C16.5049 18.5809 17.0291 18.7498 17.567 18.7498C18.1049 18.7498 18.6291 18.5809 19.0658 18.2669C19.5025 17.9529 19.8296 17.5097 20.0008 16.9998H23ZM7.1416 7.87869C7.37878 7.6209 7.6668 7.41505 7.98749 7.2741C8.30818 7.13316 8.6546 7.06019 9.0049 7.05979H12.44C12.6464 7.06028 12.8506 7.10238 13.0403 7.18358C13.2301 7.26479 13.4015 7.38342 13.5444 7.53239L15.4583 9.53659H5.6219L7.1416 7.87869ZM2.47 11.283C2.47032 11.1998 2.50359 11.1201 2.56253 11.0613C2.62147 11.0026 2.70128 10.9695 2.7845 10.9695H17.4258C18.7928 10.9851 20.1348 11.3387 21.332 11.9988C21.3929 12.0327 21.4435 12.0825 21.4784 12.1429C21.5133 12.2032 21.5312 12.2719 21.5303 12.3416V15.5298H20.062C19.9227 14.9736 19.6015 14.4799 19.1494 14.1271C18.6974 13.7743 18.1404 13.5827 17.567 13.5827C16.9936 13.5827 16.4366 13.7743 15.9846 14.1271C15.5325 14.4799 15.2113 14.9736 15.072 15.5298H8.679C8.54348 14.9871 8.23456 14.5034 7.79915 14.1523C7.36374 13.8011 6.82563 13.6016 6.26654 13.5841C5.70744 13.5666 5.1579 13.7321 4.70138 14.0553C4.24486 14.3785 3.9063 14.8419 3.7371 15.3751L2.4697 15.0551L2.47 11.283ZM6.184 17.4164C5.93677 17.4164 5.6951 17.3431 5.48954 17.2057C5.28398 17.0684 5.12376 16.8732 5.02915 16.6447C4.93454 16.4163 4.90979 16.165 4.95802 15.9225C5.00625 15.6801 5.1253 15.4573 5.30012 15.2825C5.47493 15.1077 5.69766 14.9886 5.94014 14.9404C6.18261 14.8922 6.43395 14.9169 6.66235 15.0115C6.89076 15.1061 7.08599 15.2664 7.22334 15.4719C7.36069 15.6775 7.434 15.9192 7.434 16.1664C7.43363 16.4978 7.30181 16.8155 7.06747 17.0499C6.83313 17.2842 6.51541 17.416 6.184 17.4164ZM17.567 17.4164C17.3198 17.4164 17.0781 17.3431 16.8725 17.2057C16.667 17.0684 16.5068 16.8732 16.4122 16.6447C16.3175 16.4163 16.2928 16.165 16.341 15.9225C16.3892 15.6801 16.5083 15.4573 16.6831 15.2825C16.8579 15.1077 17.0807 14.9886 17.3231 14.9404C17.5656 14.8922 17.8169 14.9169 18.0454 15.0115C18.2738 15.1061 18.469 15.2664 18.6063 15.4719C18.7437 15.6775 18.817 15.9192 18.817 16.1664C18.8166 16.4978 18.6848 16.8155 18.4505 17.0499C18.2161 17.2842 17.8984 17.416 17.567 17.4164Z" fill="black"/>
</svg>
