<svg width="24" height="24" viewBox="0 0 24 24" fill="none" xmlns="http://www.w3.org/2000/svg">
<path d="M5.26267 18.03L5.96967 18.737L14.7068 10C14.4456 9.79139 14.2086 9.55433 14 9.2932L5.26267 18.03ZM22 6.5C21.9986 5.30693 21.5241 4.16311 20.6805 3.31948C19.8369 2.47585 18.693 2.00132 17.5 2C16.8437 2.00299 16.1963 2.15102 15.604 2.4335L15.5986 2.4219L2.01947 8.7539L2.44137 9.6602L13.4841 4.5109C13.0931 5.27117 12.9336 6.12939 13.0253 6.97937C13.117 7.82936 13.4558 8.63381 14 9.2932L17.1467 6.1465L17.8537 6.8535L14.7068 10C15.3662 10.5441 16.1707 10.883 17.0207 10.9746C17.8707 11.0663 18.729 10.9067 19.4893 10.5157L14.34 21.5586L15.2463 21.9805L21.5783 8.4014L21.5666 8.3959C21.8491 7.80363 21.9971 7.15619 22 6.5Z" fill="black"/>
</svg>
