<svg width="24" height="24" viewBox="0 0 24 24" fill="none" xmlns="http://www.w3.org/2000/svg">
<path d="M23.5 11.5781L21.7471 7.09082C21.566 6.62095 21.2463 6.21721 20.8306 5.93311C20.4148 5.64902 19.9225 5.49798 19.4189 5.50002H0.5V18.5H3.9731C4.03112 18.983 4.26414 19.428 4.62807 19.7509C4.992 20.0737 5.46162 20.252 5.9481 20.252C6.43458 20.252 6.9042 20.0737 7.26813 19.7509C7.63206 19.428 7.86508 18.983 7.9231 18.5H16.7231C16.7911 18.9742 17.0278 19.4079 17.3897 19.7217C17.7517 20.0355 18.2146 20.2082 18.6936 20.2082C19.1727 20.2082 19.6356 20.0355 19.9976 19.7217C20.3595 19.4079 20.5962 18.9742 20.6642 18.5H23.5V11.5781ZM5.9479 19.75C5.65123 19.75 5.36122 19.662 5.11454 19.4972C4.86787 19.3324 4.67561 19.0981 4.56208 18.824C4.44855 18.55 4.41884 18.2484 4.47672 17.9574C4.5346 17.6664 4.67746 17.3991 4.88724 17.1894C5.09702 16.9796 5.36429 16.8367 5.65526 16.7788C5.94624 16.721 6.24784 16.7507 6.52192 16.8642C6.79601 16.9777 7.03028 17.17 7.1951 17.4167C7.35993 17.6633 7.4479 17.9533 7.4479 18.25C7.44745 18.6477 7.28927 19.029 7.00806 19.3102C6.72686 19.5914 6.34559 19.7496 5.9479 19.75ZM18.6929 19.7083C18.3962 19.7083 18.1062 19.6203 17.8595 19.4555C17.6129 19.2907 17.4206 19.0564 17.3071 18.7823C17.1936 18.5083 17.1638 18.2067 17.2217 17.9157C17.2796 17.6247 17.4225 17.3574 17.6322 17.1477C17.842 16.9379 18.1093 16.795 18.4003 16.7371C18.6912 16.6793 18.9928 16.709 19.2669 16.8225C19.541 16.936 19.7753 17.1283 19.9401 17.375C20.1049 17.6216 20.1929 17.9116 20.1929 18.2083C20.1924 18.606 20.0343 18.9873 19.7531 19.2685C19.4719 19.5497 19.0906 19.7079 18.6929 19.7083ZM1 11.5416V6.00002H19.4185C19.821 6.00002 20.2141 6.12146 20.5465 6.34845C20.8788 6.57544 21.135 6.89743 21.2814 7.27232L22.9491 11.5416H1Z" fill="black"/>
</svg>
