<svg width="24" height="24" viewBox="0 0 24 24" fill="none" xmlns="http://www.w3.org/2000/svg">
<path d="M14.3 3.29981C14.5472 3.29981 14.7889 3.22649 14.9945 3.08914C15.2 2.95179 15.3602 2.75657 15.4549 2.52816C15.5495 2.29975 15.5742 2.04842 15.526 1.80594C15.4778 1.56347 15.3587 1.34074 15.1839 1.16592C15.0091 0.991106 14.7863 0.872055 14.5439 0.823824C14.3014 0.775592 14.0501 0.800346 13.8216 0.894956C13.5932 0.989565 13.398 1.14978 13.2607 1.35534C13.1233 1.5609 13.05 1.80258 13.05 2.04981C13.05 2.38133 13.1817 2.69927 13.4161 2.93369C13.6505 3.16811 13.9685 3.29981 14.3 3.29981ZM14.3 1.29981C14.4483 1.29981 14.5933 1.34379 14.7167 1.4262C14.84 1.50861 14.9361 1.62575 14.9929 1.76279C15.0497 1.89984 15.0645 2.05064 15.0356 2.19612C15.0067 2.34161 14.9352 2.47525 14.8303 2.58014C14.7254 2.68502 14.5918 2.75646 14.4463 2.78539C14.3008 2.81433 14.15 2.79948 14.013 2.74271C13.8759 2.68595 13.7588 2.58982 13.6764 2.46648C13.594 2.34315 13.55 2.19814 13.55 2.04981C13.5502 1.85096 13.6293 1.66032 13.7699 1.51971C13.9105 1.3791 14.1012 1.30002 14.3 1.29981ZM19.7 3.29981C19.9472 3.29981 20.1889 3.22649 20.3945 3.08914C20.6 2.95179 20.7602 2.75657 20.8549 2.52816C20.9495 2.29975 20.9742 2.04842 20.926 1.80594C20.8778 1.56347 20.7587 1.34074 20.5839 1.16592C20.4091 0.991106 20.1863 0.872055 19.9439 0.823824C19.7014 0.775592 19.4501 0.800346 19.2216 0.894956C18.9932 0.989565 18.798 1.14978 18.6607 1.35534C18.5233 1.5609 18.45 1.80258 18.45 2.04981C18.45 2.38133 18.5817 2.69927 18.8161 2.93369C19.0505 3.16811 19.3685 3.29981 19.7 3.29981ZM19.7 1.29981C19.8483 1.29981 19.9933 1.34379 20.1167 1.4262C20.24 1.50861 20.3361 1.62575 20.3929 1.76279C20.4497 1.89984 20.4645 2.05064 20.4356 2.19612C20.4067 2.34161 20.3352 2.47525 20.2303 2.58014C20.1254 2.68502 19.9918 2.75646 19.8463 2.78539C19.7008 2.81433 19.55 2.79948 19.413 2.74271C19.2759 2.68595 19.1588 2.58982 19.0764 2.46648C18.994 2.34315 18.95 2.19814 18.95 2.04981C18.9502 1.85097 19.0293 1.66034 19.1699 1.51974C19.3105 1.37914 19.5012 1.30004 19.7 1.29981ZM19.7 4.13911C19.3378 4.13865 18.9791 4.20977 18.6444 4.34838C18.3098 4.48699 18.0058 4.69036 17.75 4.94681V6.99981H21.65V4.94681C21.3942 4.69034 21.0903 4.48695 20.7556 4.34834C20.421 4.20972 20.0622 4.13862 19.7 4.13911ZM21.15 6.49981H18.25V5.16601C18.6565 4.82561 19.1698 4.63907 19.7 4.63907C20.2302 4.63907 20.7435 4.82561 21.15 5.16601V6.49981ZM16.25 4.94681C15.9939 4.69071 15.6899 4.48757 15.3553 4.34897C15.0208 4.21038 14.6622 4.13904 14.3 4.13904C13.9378 4.13904 13.5792 4.21038 13.2447 4.34897C12.9101 4.48757 12.6061 4.69071 12.35 4.94681V6.99981H16.25V4.94681ZM15.75 6.49981H12.85V5.16601C13.2565 4.82561 13.7698 4.63907 14.3 4.63907C14.8302 4.63907 15.3435 4.82561 15.75 5.16601V6.49981ZM15.3828 15.9998C15.1387 15.9998 14.9 16.0722 14.697 16.2078C14.494 16.3435 14.3358 16.5363 14.2424 16.7618C14.1489 16.9874 14.1245 17.2356 14.1721 17.475C14.2198 17.7145 14.3373 17.9344 14.51 18.1071C14.6826 18.2797 14.9025 18.3973 15.142 18.4449C15.3814 18.4925 15.6296 18.4681 15.8552 18.3746C16.0807 18.2812 16.2735 18.123 16.4092 17.92C16.5448 17.717 16.6172 17.4783 16.6172 17.2342C16.6172 16.9068 16.4871 16.5929 16.2556 16.3614C16.0241 16.1299 15.7102 15.9998 15.3828 15.9998ZM15.3828 17.9686C15.2376 17.9686 15.0956 17.9255 14.9748 17.8448C14.854 17.7641 14.7599 17.6494 14.7043 17.5152C14.6487 17.3811 14.6342 17.2334 14.6625 17.0909C14.6909 16.9485 14.7608 16.8176 14.8635 16.7149C14.9662 16.6122 15.0971 16.5423 15.2395 16.5139C15.382 16.4856 15.5297 16.5001 15.6638 16.5557C15.798 16.6113 15.9127 16.7054 15.9934 16.8262C16.0741 16.947 16.1172 17.089 16.1172 17.2342C16.1169 17.4289 16.0395 17.6155 15.9018 17.7532C15.7641 17.8909 15.5775 17.9683 15.3828 17.9686ZM17.1458 10.5257C17.0396 10.0905 16.7904 9.7035 16.438 9.42682C16.0856 9.15013 15.6506 8.99976 15.2026 8.99981H6.0317C5.58372 8.99978 5.1487 9.15016 4.79637 9.42685C4.44403 9.70353 4.1948 10.0905 4.0886 10.5257C3.93094 11.1724 3.79277 11.8226 3.6741 12.4765H1.4978V13.9751L3.3369 14.8039C3.19277 16.0662 3.11932 17.3357 3.1169 18.6062V21.9335C3.1169 22.1085 3.18644 22.2764 3.31021 22.4002C3.43399 22.524 3.60186 22.5935 3.7769 22.5935H4.7869C4.87358 22.5935 4.9594 22.5764 5.03947 22.5433C5.11955 22.5101 5.19231 22.4615 5.25359 22.4002C5.31488 22.3389 5.3635 22.2662 5.39666 22.1861C5.42983 22.106 5.4469 22.0202 5.4469 21.9335V20.9998H15.7869V21.9335C15.7869 22.1085 15.8564 22.2764 15.9802 22.4002C16.104 22.524 16.2719 22.5935 16.4469 22.5935H17.4569C17.6319 22.5935 17.7998 22.524 17.9236 22.4002C18.0474 22.2764 18.1169 22.1085 18.1169 21.9335V18.6062C18.1145 17.3357 18.041 16.0662 17.8969 14.8039L19.736 13.9751V12.4765H17.56C17.4406 11.8229 17.3025 11.1726 17.1458 10.5257ZM4.5745 10.6443C4.65352 10.3176 4.84026 10.027 5.10462 9.81934C5.36898 9.61171 5.69555 9.49915 6.0317 9.49981H15.2026C15.5388 9.49909 15.8654 9.61162 16.1298 9.81926C16.3942 10.0269 16.581 10.3175 16.66 10.6443C16.9541 11.8598 17.1801 13.0907 17.337 14.3314H3.8975C4.05434 13.0907 4.28035 11.8598 4.5745 10.6443ZM3.3992 14.2836L1.9978 13.652V12.9765H3.5959C3.5232 13.4112 3.4551 13.8465 3.3992 14.2836ZM19.2366 12.9765V13.652L17.8352 14.2836C17.7793 13.8465 17.7112 13.4112 17.6384 12.9765H19.2366ZM17.6187 19.9058V20.7498H17.6172V21.9335C17.6172 21.9759 17.6003 22.0166 17.5703 22.0466C17.5403 22.0766 17.4996 22.0935 17.4572 22.0935H16.4472C16.4048 22.0935 16.3641 22.0766 16.3341 22.0466C16.3041 22.0166 16.2872 21.9759 16.2872 21.9335V20.7498H16.2857V20.4998H4.9487V20.7498H4.9473V21.9335C4.9473 21.9759 4.93045 22.0166 4.90044 22.0466C4.87043 22.0766 4.82974 22.0935 4.7873 22.0935H3.7773C3.73487 22.0935 3.69417 22.0766 3.66417 22.0466C3.63416 22.0166 3.6173 21.9759 3.6173 21.9335V20.7498H3.6157V19.9058H3.6172V18.6058C3.61942 17.3444 3.6926 16.0842 3.8364 14.831H17.3979C17.5418 16.0842 17.615 17.3444 17.6172 18.6058V19.9058H17.6187ZM5.8516 15.9998C5.60746 15.9998 5.36879 16.0722 5.16578 16.2078C4.96277 16.3434 4.80454 16.5362 4.71109 16.7618C4.61765 16.9873 4.59319 17.2355 4.64081 17.475C4.68843 17.7144 4.80598 17.9344 4.97861 18.107C5.15124 18.2797 5.37119 18.3972 5.61065 18.4449C5.8501 18.4925 6.0983 18.4681 6.32386 18.3747C6.54943 18.2812 6.74222 18.123 6.87786 17.92C7.0135 17.717 7.0859 17.4784 7.0859 17.2342C7.0859 16.9068 6.95586 16.5929 6.72439 16.3614C6.49292 16.1299 6.17897 15.9998 5.8516 15.9998ZM5.8516 17.9686C5.70635 17.9686 5.56435 17.9256 5.44356 17.8449C5.32278 17.7642 5.22864 17.6495 5.17303 17.5153C5.11743 17.3811 5.10288 17.2335 5.1312 17.091C5.15953 16.9485 5.22946 16.8177 5.33217 16.7149C5.43487 16.6122 5.56573 16.5423 5.70819 16.5139C5.85065 16.4856 5.99832 16.5001 6.13252 16.5557C6.26672 16.6113 6.38143 16.7054 6.46213 16.8262C6.54283 16.947 6.5859 17.089 6.5859 17.2342C6.58564 17.4289 6.50819 17.6155 6.37055 17.7532C6.2329 17.8908 6.04628 17.9683 5.8516 17.9686Z" fill="black"/>
</svg>
