<svg width="24" height="24" viewBox="0 0 24 24" fill="none" xmlns="http://www.w3.org/2000/svg">
<path d="M23 13.9271C23 13.6329 22.935 13.3423 22.8097 13.0761C22.6844 12.8099 22.5018 12.5746 22.2751 12.3871L20.3978 10.8337L18.57 7.4184C18.3138 6.93956 17.9325 6.53924 17.4667 6.26012C17.0009 5.98099 16.468 5.83355 15.925 5.8335H1V17.4724L3.3369 17.7078C3.38458 18.2624 3.62968 18.7816 4.02765 19.1708C4.42562 19.5601 4.95005 19.7936 5.50561 19.829C6.06117 19.8644 6.61099 19.6993 7.05515 19.3637C7.4993 19.0281 7.80831 18.5443 7.926 18.0002H16.2511C16.3673 18.5368 16.6696 19.0149 17.1045 19.35C17.5394 19.685 18.0789 19.8554 18.6273 19.8309C19.1758 19.8065 19.6979 19.5887 20.1012 19.2163C20.5046 18.8438 20.7631 18.3407 20.8311 17.7959L23 17.653V13.9271ZM2 6.8335H15.9248C16.2854 6.83327 16.6393 6.93065 16.949 7.1153C17.2588 7.29995 17.5127 7.56498 17.684 7.8823L19.3572 10.9955L19.36 11.0002H2V6.8335ZM5.6493 18.9168C5.3691 18.9168 5.09519 18.8337 4.86221 18.678C4.62924 18.5224 4.44765 18.3011 4.34043 18.0422C4.23321 17.7833 4.20516 17.4985 4.25983 17.2237C4.3145 16.9489 4.44944 16.6964 4.64758 16.4983C4.84572 16.3002 5.09816 16.1653 5.37298 16.1106C5.6478 16.056 5.93265 16.084 6.19152 16.1913C6.45038 16.2985 6.67163 16.4801 6.82729 16.7131C6.98295 16.9461 7.06602 17.22 7.066 17.5002C7.06555 17.8758 6.91614 18.2359 6.65056 18.5014C6.38497 18.767 6.02489 18.9164 5.6493 18.9168ZM18.5278 18.9168C18.2476 18.9168 17.9737 18.8337 17.7407 18.678C17.5077 18.5224 17.3262 18.3011 17.2189 18.0422C17.1117 17.7833 17.0837 17.4985 17.1383 17.2237C17.193 16.9489 17.3279 16.6964 17.5261 16.4983C17.7242 16.3002 17.9767 16.1653 18.2515 16.1106C18.5263 16.056 18.8111 16.084 19.07 16.1913C19.3289 16.2985 19.5501 16.4801 19.7058 16.7131C19.8614 16.9461 19.9445 17.22 19.9445 17.5002C19.9441 17.8758 19.7947 18.2359 19.5291 18.5015C19.2635 18.767 18.9034 18.9164 18.5278 18.9168Z" fill="black"/>
</svg>
