<svg width="24" height="24" viewBox="0 0 24 24" fill="none" xmlns="http://www.w3.org/2000/svg">
<path d="M11.6884 7.0001H4.3116C3.52007 7.00011 2.7583 7.30181 2.1814 7.84377C1.60451 8.38574 1.25588 9.1272 1.2065 9.9172C1.06883 12.12 1 14.3256 1 16.5339V22.3401C1 22.5151 1.06954 22.683 1.19331 22.8068C1.31708 22.9306 1.48496 23.0001 1.66 23.0001H2.34C2.51504 23.0001 2.68292 22.9306 2.80669 22.8068C2.93046 22.683 3 22.5151 3 22.3401V21.0001H13V22.3401C13 22.5151 13.0695 22.683 13.1933 22.8068C13.3171 22.9306 13.485 23.0001 13.66 23.0001H14.34C14.515 23.0001 14.6829 22.9306 14.8067 22.8068C14.9305 22.683 15 22.5151 15 22.3401V16.5339C15 14.3267 14.9312 12.1211 14.7935 9.9172C14.7441 9.1272 14.3955 8.38574 13.8186 7.84377C13.2417 7.30181 12.4799 7.00011 11.6884 7.0001ZM3.2026 10.042C3.22067 9.76 3.34532 9.49544 3.55126 9.30196C3.75721 9.10847 4.02903 9.00056 4.3116 9.0001H11.6884C11.971 9.00056 12.2428 9.10846 12.4487 9.30192C12.6546 9.49538 12.7793 9.75992 12.7974 10.0419C12.8794 11.354 12.928 12.6772 12.9602 14.0001H3.04C3.072 12.6772 3.1206 11.3541 3.2026 10.042ZM4 18.1606C3.79794 18.1606 3.60042 18.1007 3.4324 17.9885C3.26439 17.8762 3.13343 17.7167 3.05609 17.53C2.97876 17.3433 2.95851 17.1379 2.99792 16.9398C3.03732 16.7416 3.13462 16.5595 3.27748 16.4167C3.42035 16.2738 3.60239 16.1765 3.80056 16.137C3.99873 16.0976 4.20415 16.1178 4.39083 16.1952C4.57751 16.2725 4.73706 16.4034 4.84932 16.5714C4.96158 16.7394 5.0215 16.9369 5.0215 17.139C5.02151 17.2732 4.9951 17.406 4.94377 17.5299C4.89244 17.6539 4.8172 17.7665 4.72234 17.8614C4.62749 17.9562 4.51487 18.0315 4.39093 18.0828C4.26699 18.1342 4.13415 18.1606 4 18.1606ZM12 18.1606C11.7979 18.1606 11.6004 18.1007 11.4324 17.9885C11.2644 17.8762 11.1334 17.7167 11.0561 17.53C10.9788 17.3433 10.9585 17.1379 10.9979 16.9398C11.0373 16.7416 11.1346 16.5595 11.2775 16.4167C11.4204 16.2738 11.6024 16.1765 11.8006 16.137C11.9987 16.0976 12.2041 16.1178 12.3908 16.1952C12.5775 16.2725 12.7371 16.4034 12.8493 16.5714C12.9616 16.7394 13.0215 16.9369 13.0215 17.139C13.0215 17.2732 12.9951 17.406 12.9438 17.5299C12.8924 17.6539 12.8172 17.7665 12.7223 17.8614C12.6275 17.9562 12.5149 18.0315 12.3909 18.0828C12.267 18.1342 12.1342 18.1606 12 18.1606ZM20 4.5001H22.0416L19 1.4585L15.9584 4.5001H18V7.5001H15.9584L19 10.5417L22.0416 7.5001H20V4.5001Z" fill="black"/>
</svg>
