<svg width="24" height="24" viewBox="0 0 24 24" fill="none" xmlns="http://www.w3.org/2000/svg">
<path d="M22.7874 4.44089H20.2705L18.7105 1.44189H17.8343L18.4216 4.44089H16.2816L15.73 3.42629H15.1919V6.58939H15.73L16.2828 5.57469H18.4228L17.8355 8.55809H18.7117L20.2717 5.57469H22.7886C22.939 5.57469 23.0831 5.51497 23.1895 5.40865C23.2958 5.30234 23.3555 5.15815 23.3555 5.00779C23.3555 4.85744 23.2958 4.71325 23.1895 4.60694C23.0831 4.50062 22.939 4.44089 22.7886 4.44089H22.7874ZM12.522 7.72149C12.2066 7.68515 11.8895 7.66682 11.572 7.66659H4.432C4.11458 7.66676 3.79742 7.68466 3.482 7.72019C2.88842 7.78716 2.33722 8.0605 1.92466 8.49249C1.5121 8.92448 1.2644 9.48766 1.2248 10.0837C1.07493 12.2742 1 14.4679 1 16.6647V22.34C1 22.515 1.06954 22.6829 1.19331 22.8067C1.31708 22.9305 1.48496 23 1.66 23H3.34C3.51504 23 3.68292 22.9305 3.80669 22.8067C3.93046 22.6829 4 22.515 4 22.34V21H12V22.34C12 22.4267 12.0171 22.5125 12.0502 22.5926C12.0834 22.6726 12.132 22.7454 12.1933 22.8067C12.2546 22.868 12.3274 22.9166 12.4074 22.9498C12.4875 22.9829 12.5733 23 12.66 23H14.34C14.515 23 14.6829 22.9305 14.8067 22.8067C14.9305 22.6829 15 22.515 15 22.34V16.6647C15 14.4691 14.925 12.2754 14.7751 10.0837C14.7356 9.48844 14.4884 8.92593 14.0767 8.49425C13.6649 8.06256 13.1147 7.78908 12.522 7.72149ZM2.2229 10.149C2.25191 9.74709 2.43173 9.371 2.72634 9.09609C3.02094 8.82118 3.40855 8.66777 3.8115 8.66659H12.1885C12.5914 8.66777 12.9791 8.82118 13.2737 9.09609C13.5683 9.371 13.7481 9.74709 13.7771 10.149C13.8684 11.4816 13.9219 12.8254 13.9571 14.169H2.0428C2.0781 12.8254 2.1316 11.4816 2.2229 10.149ZM14 22H13V20H3V22H2V16.6647C2 16.168 2.0178 15.6675 2.0256 15.1686H13.9744C13.9822 15.6675 14 16.168 14 16.6647V22ZM11.7561 16.1272C11.4908 16.1272 11.2315 16.2058 11.0109 16.3532C10.7904 16.5005 10.6184 16.71 10.5169 16.9551C10.4154 17.2001 10.3888 17.4698 10.4406 17.73C10.4923 17.9902 10.62 18.2292 10.8076 18.4167C10.9952 18.6043 11.2341 18.7321 11.4943 18.7838C11.7545 18.8356 12.0242 18.809 12.2692 18.7075C12.5143 18.606 12.7238 18.4341 12.8712 18.2135C13.0185 17.993 13.0972 17.7337 13.0972 17.4684C13.0972 17.1127 12.9559 16.7716 12.7044 16.5201C12.4529 16.2686 12.1118 16.1272 11.7561 16.1272ZM11.7561 18.0096C11.6491 18.0096 11.5444 17.9778 11.4555 17.9183C11.3665 17.8589 11.2971 17.7743 11.2562 17.6754C11.2152 17.5765 11.2045 17.4677 11.2254 17.3628C11.2463 17.2578 11.2979 17.1614 11.3735 17.0857C11.4492 17.01 11.5457 16.9585 11.6507 16.9376C11.7556 16.9167 11.8644 16.9274 11.9633 16.9684C12.0622 17.0094 12.1467 17.0787 12.2062 17.1677C12.2657 17.2567 12.2974 17.3614 12.2974 17.4684C12.2973 17.612 12.2403 17.7496 12.1388 17.8512C12.0373 17.9527 11.8997 18.0099 11.7561 18.01V18.0096ZM4.2439 16.1272C3.97864 16.1272 3.71934 16.2059 3.4988 16.3533C3.27825 16.5007 3.10636 16.7101 3.00486 16.9552C2.90337 17.2003 2.87682 17.4699 2.92858 17.7301C2.98034 17.9903 3.10809 18.2292 3.29566 18.4168C3.48324 18.6044 3.72222 18.7321 3.98238 18.7838C4.24255 18.8356 4.51221 18.809 4.75728 18.7075C5.00234 18.606 5.21181 18.4341 5.35917 18.2135C5.50654 17.993 5.5852 17.7337 5.5852 17.4684C5.58521 17.2923 5.55053 17.1178 5.48312 16.9551C5.41572 16.7924 5.31692 16.6445 5.19237 16.52C5.06781 16.3954 4.91994 16.2966 4.7572 16.2292C4.59446 16.1618 4.42004 16.1272 4.2439 16.1272ZM4.2439 18.0096C4.13686 18.0096 4.03224 17.9778 3.94325 17.9183C3.85427 17.8589 3.78491 17.7743 3.74397 17.6754C3.70302 17.5765 3.69232 17.4677 3.71321 17.3628C3.7341 17.2578 3.78566 17.1614 3.86135 17.0857C3.93704 17.01 4.03347 16.9585 4.13845 16.9376C4.24343 16.9167 4.35225 16.9274 4.45113 16.9684C4.55002 17.0094 4.63453 17.0787 4.694 17.1677C4.75346 17.2567 4.7852 17.3614 4.7852 17.4684C4.78509 17.6119 4.72804 17.7496 4.62656 17.8511C4.52508 17.9527 4.38746 18.0098 4.2439 18.01V18.0096Z" fill="black"/>
</svg>
