<svg width="24" height="24" viewBox="0 0 24 24" fill="none" xmlns="http://www.w3.org/2000/svg">
<path d="M23 11.6721L21.2814 7.27205C21.1349 6.89724 20.8787 6.57534 20.5464 6.34842C20.214 6.1215 19.8209 6.00013 19.4185 6.00015H15.9941L15.8326 5.55635L5.18 1.89355L5.0165 2.36605L15.6658 6.00015H1V18.0002H3.9731C4.03112 18.4832 4.26414 18.9282 4.62807 19.251C4.992 19.5738 5.46162 19.7521 5.9481 19.7521C6.43458 19.7521 6.9042 19.5738 7.26813 19.251C7.63206 18.9282 7.86508 18.4832 7.9231 18.0002H16.5411C16.6064 18.4767 16.842 18.9135 17.2045 19.2297C17.567 19.5459 18.0317 19.7202 18.5127 19.7202C18.9937 19.7202 19.4584 19.5459 19.8209 19.2297C20.1834 18.9135 20.419 18.4767 20.4843 18.0002H23V11.6721ZM1.5 6.50015H19.4185C19.7206 6.49893 20.016 6.58952 20.2655 6.75991C20.515 6.93031 20.7069 7.17248 20.8157 7.45435L22.4124 11.5419H1.5V6.50015ZM5.9479 19.2502C5.65123 19.2502 5.36122 19.1622 5.11454 18.9974C4.86787 18.8325 4.67561 18.5983 4.56208 18.3242C4.44855 18.0501 4.41884 17.7485 4.47672 17.4575C4.5346 17.1665 4.67746 16.8993 4.88724 16.6895C5.09702 16.4797 5.36429 16.3369 5.65526 16.279C5.94624 16.2211 6.24784 16.2508 6.52192 16.3643C6.79601 16.4779 7.03028 16.6701 7.1951 16.9168C7.35993 17.1635 7.4479 17.4535 7.4479 17.7502C7.44745 18.1478 7.28927 18.5291 7.00806 18.8103C6.72686 19.0915 6.34559 19.2497 5.9479 19.2502ZM18.5123 19.219C18.2156 19.219 17.9256 19.131 17.6789 18.9662C17.4323 18.8013 17.24 18.5671 17.1265 18.293C17.0129 18.0189 16.9832 17.7173 17.0411 17.4263C17.099 17.1353 17.2419 16.8681 17.4516 16.6583C17.6614 16.4485 17.9287 16.3057 18.2197 16.2478C18.5106 16.1899 18.8122 16.2196 19.0863 16.3331C19.3604 16.4467 19.5947 16.6389 19.7595 16.8856C19.9243 17.1323 20.0123 17.4223 20.0123 17.719C20.0118 18.1166 19.8536 18.4979 19.5724 18.7791C19.2912 19.0603 18.91 19.2185 18.5123 19.219ZM22.5 17.5002H20.49C20.4387 17.0113 20.2082 16.5587 19.843 16.2298C19.4777 15.9008 19.0036 15.7188 18.5121 15.7188C18.0205 15.7188 17.5464 15.9008 17.1811 16.2298C16.8159 16.5587 16.5854 17.0113 16.5341 17.5002H7.9227C7.86468 17.0171 7.63166 16.5721 7.26773 16.2493C6.9038 15.9265 6.43418 15.7482 5.9477 15.7482C5.46122 15.7482 4.9916 15.9265 4.62767 16.2493C4.26374 16.5721 4.03072 17.0171 3.9727 17.5002H1.5V12.0419H22.5V17.5002Z" fill="black"/>
</svg>
