<svg width="24" height="24" viewBox="0 0 24 24" fill="none" xmlns="http://www.w3.org/2000/svg">
<path d="M19.4178 4.5068C19.3011 3.80631 18.9396 3.16995 18.3977 2.71093C17.8559 2.25191 17.1687 2 16.4586 2H7.5414C6.83125 2 6.14412 2.25191 5.60226 2.71093C5.0604 3.16995 4.69895 3.80631 4.5822 4.5068C4.19476 6.83163 4.00003 9.1845 4 11.5414V16.5C4 17.163 4.26339 17.7989 4.73223 18.2678C5.20107 18.7366 5.83696 19 6.5 19H8.1515L6.4193 22H8.7293L10.4615 19H13.5389L15.2711 22H17.5811L15.8489 19H17.5C18.163 19 18.7989 18.7366 19.2678 18.2678C19.7366 17.7989 20 17.163 20 16.5V11.5414C20 9.1845 19.8053 6.83163 19.4178 4.5068ZM7.2 15.5125C6.96266 15.5125 6.73065 15.4421 6.53332 15.3103C6.33598 15.1784 6.18217 14.991 6.09134 14.7717C6.00052 14.5524 5.97676 14.3112 6.02306 14.0784C6.06936 13.8456 6.18365 13.6318 6.35147 13.464C6.51929 13.2961 6.73311 13.1819 6.96589 13.1356C7.19867 13.0893 7.43995 13.113 7.65922 13.2038C7.87849 13.2947 8.06591 13.4485 8.19776 13.6458C8.32962 13.8432 8.4 14.0752 8.4 14.3125C8.4 14.6308 8.27357 14.936 8.04853 15.161C7.82348 15.3861 7.51826 15.5125 7.2 15.5125ZM16.7807 15.5125C16.5434 15.5125 16.3114 15.4421 16.114 15.3103C15.9167 15.1784 15.7629 14.991 15.672 14.7717C15.5812 14.5524 15.5575 14.3112 15.6038 14.0784C15.6501 13.8456 15.7643 13.6318 15.9322 13.464C16.1 13.2961 16.3138 13.1819 16.5466 13.1356C16.7794 13.0893 17.0206 13.113 17.2399 13.2038C17.4592 13.2947 17.6466 13.4485 17.7785 13.6458C17.9103 13.8432 17.9807 14.0752 17.9807 14.3125C17.9807 14.6308 17.8543 14.936 17.6292 15.161C17.4042 15.3861 17.099 15.5125 16.7807 15.5125ZM6.0112 11C6.03659 8.93442 6.21838 6.87373 6.555 4.8356C6.59331 4.60183 6.71362 4.38934 6.89438 4.23622C7.07513 4.0831 7.30451 3.99935 7.5414 4H16.4586C16.6955 3.99935 16.9249 4.0831 17.1056 4.23622C17.2864 4.38934 17.4067 4.60183 17.445 4.8356C17.7816 6.87373 17.9634 8.93442 17.9888 11H6.0112Z" fill="black"/>
</svg>
