<svg width="24" height="24" viewBox="0 0 24 24" fill="none" xmlns="http://www.w3.org/2000/svg">
<path d="M0 20.5V21H24V20.5H0ZM10.6 14.8682L19.1586 12.6162C20.4452 12.2719 21.6873 11.779 22.86 11.1475C23.1503 10.9914 23.3862 10.7506 23.5364 10.4572C23.6866 10.1638 23.744 9.83163 23.7009 9.50483C23.6579 9.17804 23.5165 8.87206 23.2955 8.62752C23.0745 8.38299 22.7843 8.21147 22.4635 8.13574L19.2335 7.37304L14.1367 8.68074L8.4287 3.09284L8.3271 2.99414L5.6895 3.68414L9.2939 9.96414L5.3008 11.0481L3.0771 8.87114L0.2171 9.65624L3.1888 14.8682H10.6ZM2.9326 9.43004L5.1562 11.6048L10.05 10.2764L6.4492 4.00204L8.1807 3.54884L13.9883 9.23544L19.2393 7.88874L22.3486 8.62214C22.5708 8.67455 22.7718 8.79329 22.9249 8.9626C23.078 9.13191 23.176 9.34378 23.2059 9.57009C23.2357 9.7964 23.1961 10.0264 23.0922 10.2297C22.9882 10.4329 22.825 10.5998 22.624 10.708C21.4849 11.3199 20.2789 11.7981 19.03 12.1328L10.5349 14.3682H3.48L0.9707 9.96884L2.9326 9.43004Z" fill="black"/>
</svg>
