<svg width="24" height="24" viewBox="0 0 24 24" fill="none" xmlns="http://www.w3.org/2000/svg">
<path d="M24 12.7254C24.0002 12.4375 23.9115 12.1564 23.7459 11.9208C23.5804 11.6851 23.346 11.5064 23.075 11.409C21.6725 10.8971 20.2033 10.5909 18.7131 10.4998L16.4415 7.04784C16.2594 6.77255 16.0119 6.54667 15.7212 6.3904C15.4304 6.23413 15.1055 6.15234 14.7754 6.15234H10.7869L10.7731 10.4998H0V16.4998L3.6143 16.9051C3.66149 17.681 3.99991 18.4104 4.56186 18.9475C5.12381 19.4845 5.86782 19.7895 6.64502 19.8015C7.42222 19.8134 8.17528 19.5315 8.7535 19.012C9.33172 18.4925 9.69244 17.7739 9.7635 16.9998H16.2664C16.3364 17.7657 16.6901 18.4777 17.2581 18.9961C17.8261 19.5146 18.5674 19.802 19.3364 19.802C20.1054 19.802 20.8467 19.5146 21.4147 18.9961C21.9827 18.4777 22.3364 17.7657 22.4064 16.9998H24V12.7254ZM6.6936 18.4678C6.34416 18.4679 6.00256 18.3643 5.71198 18.1702C5.42141 17.9761 5.19492 17.7002 5.06116 17.3774C4.9274 17.0546 4.89237 16.6994 4.96052 16.3566C5.02866 16.0139 5.19691 15.6991 5.44398 15.452C5.69106 15.2049 6.00586 15.0366 6.34858 14.9684C6.69131 14.9002 7.04655 14.9352 7.36939 15.0689C7.69222 15.2027 7.96816 15.4291 8.16228 15.7197C8.35641 16.0102 8.46002 16.3518 8.46 16.7012C8.45947 17.1696 8.2732 17.6186 7.94206 17.9498C7.61092 18.2809 7.16193 18.4673 6.6936 18.4678ZM12.2074 10.4163L12.2185 7.58564H14.7754C14.8139 7.58542 14.8516 7.59724 14.8831 7.61944C15.0231 7.63404 15.4399 8.16344 15.5237 8.27814L17.0166 10.4998H12.2066L12.2074 10.4163ZM19.3362 18.4678C18.9868 18.4678 18.6452 18.3642 18.3547 18.17C18.0642 17.9759 17.8377 17.7 17.704 17.3771C17.5703 17.0543 17.5354 16.6991 17.6036 16.3564C17.6718 16.0137 17.84 15.6989 18.0871 15.4518C18.3342 15.2048 18.649 15.0365 18.9917 14.9684C19.3344 14.9002 19.6897 14.9352 20.0125 15.069C20.3353 15.2027 20.6112 15.4292 20.8053 15.7197C20.9994 16.0102 21.103 16.3518 21.103 16.7012C21.1025 17.1696 20.9161 17.6187 20.5849 17.9499C20.2537 18.2811 19.8046 18.4674 19.3362 18.4678Z" fill="black"/>
</svg>
