<svg width="24" height="24" viewBox="0 0 24 24" fill="none" xmlns="http://www.w3.org/2000/svg">
<g clip-path="url(#clip0)">
<path d="M19 9.99997C18.6469 10.0011 18.295 10.0396 17.95 10.1149L16.11 3.24707H13.024C12.9577 3.24707 12.8941 3.27341 12.8472 3.32029C12.8004 3.36718 12.774 3.43077 12.774 3.49707C12.774 3.56337 12.8004 3.62696 12.8472 3.67385C12.8941 3.72073 12.9577 3.74707 13.024 3.74707H15.7272L16.8088 7.78417H7.20342L6.72162 5.98417L8.00002 5.71477V5.49997H4.88922C4.82292 5.49997 4.75933 5.52631 4.71245 5.57319C4.66556 5.62008 4.63922 5.68367 4.63922 5.74997C4.63922 5.81627 4.66556 5.87986 4.71245 5.92675C4.75933 5.97363 4.82292 5.99997 4.88922 5.99997H6.20922L6.68682 7.78417H6.67482L6.05022 10.1142C5.04969 9.89511 4.00601 9.98857 3.06032 10.3819C2.11462 10.7753 1.31253 11.4495 0.762484 12.3135C0.21244 13.1776 -0.0590212 14.1896 -0.0151937 15.2129C0.0286338 16.2362 0.385636 17.2214 1.00754 18.0352C1.62945 18.849 2.48626 19.4522 3.46212 19.7633C4.43798 20.0743 5.48583 20.0782 6.46397 19.7744C7.44211 19.4706 8.30337 18.8738 8.93129 18.0646C9.55921 17.2554 9.92351 16.2729 9.97492 15.25H11.7959L13.6631 8.28417H16.9421L17.4721 10.263C16.2963 10.6632 15.3147 11.492 14.7228 12.584C14.131 13.6759 13.9724 14.9509 14.2789 16.1545C14.5853 17.3582 15.3342 18.4021 16.3762 19.0781C17.4181 19.7541 18.6766 20.0125 19.9006 19.8018C21.1247 19.5911 22.2243 18.9268 22.9803 17.9413C23.7363 16.9558 24.093 15.7216 23.9794 14.4848C23.8657 13.2479 23.29 12.0994 22.3672 11.2681C21.4443 10.4369 20.242 9.98409 19 9.99997ZM5.00002 19.5C4.36957 19.5007 3.74599 19.369 3.16971 19.1133C2.59343 18.8576 2.0773 18.4837 1.65478 18.0158C1.23227 17.5478 0.912789 16.9964 0.717055 16.3971C0.521322 15.7978 0.453702 15.164 0.518578 14.5369C0.583453 13.9098 0.779378 13.3033 1.09365 12.7568C1.40793 12.2102 1.83353 11.7358 2.34289 11.3643C2.85225 10.9928 3.434 10.7325 4.05041 10.6002C4.66683 10.4679 5.30417 10.4666 5.92112 10.5964L4.75732 14.9385C4.74749 14.9751 4.74622 15.0136 4.75362 15.0508C4.76102 15.088 4.77689 15.1231 4.79999 15.1532C4.8231 15.1833 4.85282 15.2077 4.88687 15.2245C4.92091 15.2413 4.95836 15.25 4.99632 15.25H9.47472C9.41254 16.3958 8.91437 17.4744 8.08235 18.2646C7.25033 19.0549 6.14751 19.4969 5.00002 19.5ZM6.39872 10.7449C7.25457 11.026 8.00583 11.5585 8.55454 12.2729C9.10324 12.9874 9.42391 13.8506 9.47472 14.75H5.32622L6.39872 10.7449ZM11.4131 14.75H9.97492C9.92444 13.7403 9.56749 12.7701 8.95163 11.9685C8.33576 11.1668 7.49024 10.5719 6.52772 10.263L7.05772 8.28417H13.1456L11.4131 14.75ZM19 19.5C17.9304 19.5031 16.8948 19.124 16.08 18.431C15.2652 17.7381 14.7247 16.7769 14.556 15.7206C14.3873 14.6644 14.6014 13.5826 15.1598 12.6703C15.7181 11.758 16.5841 11.0752 17.6014 10.7449L18.7588 15.0649C18.7729 15.118 18.8042 15.1651 18.8479 15.1985C18.8915 15.232 18.945 15.2501 19 15.25C19.0218 15.2499 19.0435 15.247 19.0645 15.2412C19.0963 15.2328 19.126 15.2182 19.1521 15.1983C19.1782 15.1784 19.2001 15.1535 19.2165 15.1251C19.2329 15.0967 19.2436 15.0653 19.2478 15.0328C19.2521 15.0002 19.2498 14.9671 19.2412 14.9355L18.0786 10.5965C18.6953 10.4674 19.3321 10.4692 19.948 10.6018C20.5639 10.7345 21.1451 10.995 21.6539 11.3664C22.1627 11.7379 22.5879 12.2121 22.9018 12.7584C23.2157 13.3046 23.4115 13.9106 23.4763 14.5373C23.5412 15.164 23.4737 15.7973 23.2783 16.3962C23.0829 16.9951 22.7638 17.5463 22.3419 18.0142C21.9199 18.482 21.4044 18.856 20.8287 19.1119C20.253 19.3679 19.63 19.5001 19 19.5Z" fill="black"/>
</g>
<defs>
<clipPath id="clip0">
<rect width="24" height="24" fill="white"/>
</clipPath>
</defs>
</svg>
