<svg width="24" height="24" viewBox="0 0 24 24" fill="none" xmlns="http://www.w3.org/2000/svg">
<path d="M21.1427 14H19.0173C18.8308 12.7637 18.5602 11.5415 18.2073 10.342C18.1006 9.97971 17.8859 9.65858 17.5918 9.42159C17.2977 9.1846 16.9383 9.04304 16.5616 9.01583C16.5151 9.00543 16.184 9.00003 16.1345 9.00003C16.1345 9.00003 7.4932 9.00453 7.4502 9.01323C7.07116 9.0386 6.70901 9.1796 6.41259 9.4172C6.11618 9.65481 5.89975 9.97759 5.7925 10.342C5.43959 11.5415 5.16903 12.7637 4.9827 14H2.8573V15.4028L4.7462 16.0587C4.6984 16.6936 4.67243 17.3303 4.6683 17.9687C4.6672 18.0329 4.6667 21.9341 4.6667 21.9341C4.6667 22.1092 4.73624 22.277 4.86001 22.4008C4.98378 22.5246 5.15166 22.5941 5.3267 22.5941H5.9678C6.14284 22.5941 6.31072 22.5246 6.43449 22.4008C6.55826 22.277 6.6278 22.1092 6.6278 21.9341V21H17.3761V21.9337C17.3761 22.1088 17.4456 22.2766 17.5694 22.4004C17.6932 22.5242 17.8611 22.5937 18.0361 22.5937H18.6733C18.8483 22.5937 19.0162 22.5242 19.14 22.4004C19.2638 22.2766 19.3333 22.1088 19.3333 21.9337C19.3333 21.9337 19.3327 18.0344 19.3317 17.9713C19.3282 17.3325 19.3022 16.6949 19.2538 16.0586L21.1426 15.4028L21.1427 14ZM7.1827 10.7529C7.20585 10.6733 7.25283 10.6026 7.31733 10.5504C7.38182 10.4982 7.46075 10.467 7.5435 10.4609L16.4581 10.4619C16.5403 10.4684 16.6186 10.4997 16.6826 10.5517C16.7466 10.6036 16.7933 10.6738 16.8165 10.7529C17.128 11.8187 17.3709 12.9033 17.5439 14H6.4564C6.62887 12.9032 6.8716 11.8186 7.1831 10.7529H7.1827ZM7.3858 18.1605C7.18375 18.1605 6.98623 18.1006 6.81823 17.9884C6.65023 17.8761 6.51929 17.7166 6.44196 17.5299C6.36464 17.3432 6.34441 17.1378 6.38383 16.9396C6.42325 16.7415 6.52055 16.5594 6.66342 16.4165C6.80629 16.2737 6.98832 16.1764 7.1865 16.137C7.38467 16.0975 7.59008 16.1178 7.77675 16.1951C7.96342 16.2724 8.12297 16.4034 8.23523 16.5714C8.34748 16.7394 8.4074 16.9369 8.4074 17.1389C8.4074 17.4098 8.29982 17.6696 8.10832 17.8612C7.91682 18.0527 7.65708 18.1604 7.3862 18.1605H7.3858ZM16.6134 18.1605C16.4113 18.1605 16.2138 18.1006 16.0458 17.9884C15.8778 17.8761 15.7469 17.7166 15.6696 17.5299C15.5922 17.3432 15.572 17.1378 15.6114 16.9396C15.6508 16.7415 15.7481 16.5594 15.891 16.4165C16.0339 16.2737 16.2159 16.1764 16.4141 16.137C16.6123 16.0975 16.8177 16.1178 17.0043 16.1951C17.191 16.2724 17.3506 16.4034 17.4628 16.5714C17.5751 16.7394 17.635 16.9369 17.635 17.1389C17.635 17.4098 17.5274 17.6696 17.3359 17.8612C17.1444 18.0527 16.8847 18.1604 16.6138 18.1605H16.6134ZM16.4194 4.31513L17.48 3.25453C16.0255 1.8033 14.0547 0.988281 12 0.988281C9.94532 0.988281 7.97453 1.8033 6.52 3.25453L7.5806 4.31513C8.7536 3.14473 10.343 2.48742 12 2.48742C13.657 2.48742 15.2464 3.14473 16.4194 4.31513ZM10.4094 7.14363C10.8317 6.72225 11.4039 6.4856 12.0004 6.4856C12.5969 6.4856 13.1691 6.72225 13.5914 7.14363L14.6521 6.08293C13.9483 5.38065 12.9947 4.98623 12.0005 4.98623C11.0062 4.98623 10.0526 5.38065 9.3488 6.08293L10.4094 7.14363Z" fill="black"/>
</svg>
