<svg width="24" height="24" viewBox="0 0 24 24" fill="none" xmlns="http://www.w3.org/2000/svg">
<path d="M19.7 3.09981C19.9275 3.09981 20.1498 3.03236 20.3389 2.906C20.528 2.77963 20.6754 2.60003 20.7625 2.38989C20.8495 2.17976 20.8723 1.94853 20.8279 1.72545C20.7835 1.50237 20.674 1.29746 20.5132 1.13663C20.3524 0.975802 20.1474 0.866275 19.9244 0.821902C19.7013 0.777529 19.4701 0.800303 19.2599 0.887344C19.0498 0.974385 18.8702 1.12178 18.7438 1.3109C18.6175 1.50002 18.55 1.72236 18.55 1.94981C18.55 2.2548 18.6712 2.54731 18.8868 2.76298C19.1025 2.97864 19.395 3.09981 19.7 3.09981ZM16.25 4.94681C15.9939 4.69073 15.6899 4.48759 15.3553 4.349C15.0208 4.21041 14.6622 4.13908 14.3 4.13908C13.9379 4.13908 13.5793 4.21041 13.2447 4.349C12.9101 4.48759 12.6061 4.69073 12.35 4.94681V6.9998H16.25V4.94681ZM14.3 3.09981C14.5275 3.09981 14.7498 3.03236 14.9389 2.906C15.128 2.77963 15.2754 2.60003 15.3625 2.38989C15.4495 2.17976 15.4723 1.94853 15.4279 1.72545C15.3835 1.50237 15.274 1.29746 15.1132 1.13663C14.9523 0.975802 14.7474 0.866275 14.5244 0.821902C14.3013 0.777529 14.0701 0.800303 13.8599 0.887344C13.6498 0.974385 13.4702 1.12178 13.3438 1.3109C13.2175 1.50002 13.15 1.72236 13.15 1.94981C13.15 2.2548 13.2712 2.54731 13.4868 2.76298C13.7025 2.97864 13.995 3.09981 14.3 3.09981ZM17.75 4.94681V6.9998H21.65V4.94681C21.3939 4.69073 21.0899 4.48759 20.7553 4.349C20.4208 4.21041 20.0622 4.13908 19.7 4.13908C19.3379 4.13908 18.9793 4.21041 18.6447 4.349C18.3101 4.48759 18.0061 4.69073 17.75 4.94681ZM16.7354 10.4338C16.6381 10.0716 16.4369 9.74578 16.1566 9.49657C15.8763 9.24736 15.5291 9.08566 15.158 9.03141C15.0154 9.01037 14.8715 8.99981 14.7273 8.99981H6.49631C6.36396 8.9998 6.23176 9.00869 6.10061 9.02641C5.72464 9.0769 5.372 9.23746 5.08707 9.48789C4.80214 9.73832 4.59764 10.0674 4.49931 10.4338C4.18466 11.6068 3.94073 12.7976 3.76881 13.9998H1.68381V15.4026L3.53961 16.0469C3.49047 16.6958 3.46191 17.3463 3.45391 17.9982C3.45171 18.1266 3.45071 18.4503 3.45071 18.5787V21.9335C3.45071 22.1085 3.52024 22.2764 3.64402 22.4002C3.76779 22.524 3.93566 22.5935 4.11071 22.5935H4.71301C4.79968 22.5935 4.8855 22.5764 4.96558 22.5433C5.04565 22.5101 5.11841 22.4615 5.1797 22.4002C5.24098 22.3389 5.2896 22.2662 5.32277 22.1861C5.35594 22.106 5.37301 22.0202 5.37301 21.9335V20.9998H15.8694V21.9335C15.8694 22.1085 15.9389 22.2764 16.0627 22.4002C16.1865 22.524 16.3544 22.5935 16.5294 22.5935H17.1239C17.299 22.5935 17.4668 22.524 17.5906 22.4002C17.7144 22.2764 17.7839 22.1085 17.7839 21.9335V18.5785C17.7839 18.4521 17.7827 18.1305 17.7808 18.0041C17.7734 17.3508 17.7447 16.6984 17.6946 16.047L19.5505 15.4026V13.9998H17.4653C17.2936 12.7976 17.0499 11.6068 16.7354 10.4338ZM6.09181 18.1603C5.88976 18.1603 5.69225 18.1004 5.52426 17.9881C5.35628 17.8758 5.22535 17.7163 5.14804 17.5296C5.07074 17.3429 5.05052 17.1375 5.08995 16.9393C5.12938 16.7412 5.22669 16.5592 5.36956 16.4163C5.51244 16.2734 5.69447 16.1761 5.89264 16.1367C6.09081 16.0973 6.29621 16.1176 6.48288 16.1949C6.66955 16.2722 6.82909 16.4031 6.94134 16.5711C7.05359 16.7391 7.11351 16.9367 7.11351 17.1387C7.11348 17.4097 7.00583 17.6695 6.81422 17.8611C6.62262 18.0527 6.36276 18.1603 6.09181 18.1603ZM15.1426 18.1603C14.9405 18.1603 14.743 18.1004 14.575 17.9882C14.407 17.8759 14.276 17.7164 14.1987 17.5297C14.1214 17.3431 14.1011 17.1376 14.1405 16.9395C14.1799 16.7413 14.2772 16.5592 14.4201 16.4164C14.563 16.2735 14.745 16.1762 14.9432 16.1367C15.1413 16.0973 15.3468 16.1175 15.5334 16.1949C15.7201 16.2722 15.8797 16.4031 15.9919 16.5711C16.1042 16.7391 16.1641 16.9366 16.1641 17.1387C16.1641 17.4096 16.0564 17.6694 15.8649 17.861C15.6733 18.0526 15.4135 18.1602 15.1426 18.1603ZM4.78271 13.9998C4.94633 12.8857 5.17394 11.782 5.46441 10.6941C5.48643 10.6187 5.51784 10.5464 5.55791 10.4789H15.6763C15.7167 10.5463 15.7482 10.6186 15.77 10.6941C16.0604 11.782 16.288 12.8858 16.4517 13.9998H4.78271Z" fill="black"/>
</svg>
