<svg width="24" height="24" viewBox="0 0 24 24" fill="none" xmlns="http://www.w3.org/2000/svg">
<g clip-path="url(#clip0)">
<path d="M14 2.98828H12V4.98828H14V2.98828ZM20.6963 13.8008C20.7118 13.7484 20.7363 13.7008 20.7512 13.6481L22.0212 8.98808H17V6.99998C17 6.46955 16.7893 5.96084 16.4142 5.58577C16.0391 5.21069 15.5304 4.99998 15 4.99998H7L5.8586 8.98778H2.75V13.5817C2.18636 13.3898 1.5954 13.2903 1 13.2871V15.1871C1.79918 15.2013 2.57615 15.4525 3.2324 15.9088C4.19698 16.5644 5.33281 16.9224 6.499 16.9385L6.5 16.9375C7.66643 16.9223 8.80269 16.5647 9.7676 15.9092C10.4158 15.4361 11.1975 15.1812 12 15.1812C12.8025 15.1812 13.5842 15.4361 14.2324 15.9092C15.1906 16.5785 16.3312 16.9375 17.5 16.9375C18.6688 16.9375 19.8094 16.5785 20.7676 15.9092C21.4239 15.4529 22.2008 15.2017 23 15.1875V13.2875C22.2045 13.2944 21.4195 13.4693 20.6963 13.8008ZM8.4325 6.89998H15C15.0265 6.89998 15.052 6.91052 15.0707 6.92927C15.0895 6.94802 15.1 6.97346 15.1 6.99998V8.98778H7.835L8.4325 6.89998ZM18.918 13.1487C18.7351 13.8045 18.4505 14.4275 18.0745 14.9951C17.0861 15.1406 16.0798 14.8968 15.2676 14.3151C14.3083 13.6485 13.1681 13.2912 12 13.2912C10.8319 13.2912 9.69166 13.6485 8.7324 14.3151C8.07653 14.7722 7.29934 15.0236 6.5 15.0371V15.038C5.85072 15.0277 5.21448 14.8541 4.65 14.5331V10.8878H19.5339L18.918 13.1487ZM15.268 18.3154C14.3087 17.6488 13.1685 17.2915 12.0004 17.2915C10.8323 17.2915 9.69206 17.6488 8.7328 18.3154C8.07678 18.7725 7.29945 19.0237 6.5 19.0371V19.038C5.70078 19.0232 4.9239 18.7717 4.2676 18.3154C3.30264 17.6599 2.16641 17.3024 1 17.2871V19.1871C1.79918 19.2013 2.57615 19.4525 3.2324 19.9088C4.19698 20.5644 5.33281 20.9224 6.499 20.9385L6.5 20.9375C7.66643 20.9223 8.80269 20.5647 9.7676 19.9092C10.4158 19.4361 11.1975 19.1812 12 19.1812C12.8025 19.1812 13.5842 19.4361 14.2324 19.9092C15.1906 20.5785 16.3312 20.9375 17.5 20.9375C18.6688 20.9375 19.8094 20.5785 20.7676 19.9092C21.4239 19.4529 22.2008 19.2017 23 19.1875V17.2875C21.8336 17.3028 20.6974 17.6603 19.7324 18.3158C19.0846 18.7898 18.3027 19.0453 17.4999 19.0452C16.6972 19.0451 15.9153 18.7895 15.2676 18.3154H15.268Z" fill="black"/>
</g>
<defs>
<clipPath id="clip0">
<rect width="24" height="24" fill="white"/>
</clipPath>
</defs>
</svg>
