<svg width="24" height="24" viewBox="0 0 24 24" fill="none" xmlns="http://www.w3.org/2000/svg">
<g clip-path="url(#clip0)">
<path d="M24 14.5381C24.0028 14.1755 23.9057 13.8192 23.7195 13.5081C23.5332 13.197 23.265 12.9432 22.9441 12.7744C21.5292 12.0616 19.9899 11.6286 18.4109 11.4991L15.8 8.96301C15.0534 8.23823 14.0538 7.83289 13.0133 7.83301H2.5L0.5213 10.7346C0.181659 11.2328 -3.19234e-06 11.8217 0 12.4246L0 16.51L3.8818 16.9818C3.98888 17.4834 4.26435 17.9334 4.66246 18.2568C5.06056 18.5803 5.55733 18.7578 6.07027 18.7599C6.58321 18.7621 7.08143 18.5886 7.4822 18.2685C7.88297 17.9484 8.16216 17.5007 8.2734 17H17.8834C17.9941 17.4991 18.2717 17.9456 18.6704 18.2656C19.0691 18.5856 19.5651 18.76 20.0763 18.76C20.5876 18.76 21.0836 18.5856 21.4823 18.2656C21.881 17.9456 22.1586 17.4991 22.2693 17H24V14.5381ZM6.08 18.26C5.73388 18.26 5.39554 18.1574 5.10775 17.9651C4.81997 17.7728 4.59566 17.4995 4.46321 17.1797C4.33076 16.8599 4.2961 16.5081 4.36363 16.1686C4.43115 15.8291 4.59782 15.5173 4.84256 15.2726C5.08731 15.0278 5.39913 14.8612 5.73859 14.7936C6.07806 14.7261 6.42992 14.7608 6.7497 14.8932C7.06947 15.0257 7.34278 15.25 7.53507 15.5378C7.72736 15.8255 7.83 16.1639 7.83 16.51C7.82944 16.974 7.64489 17.4188 7.31682 17.7468C6.98875 18.0749 6.54396 18.2595 6.08 18.26ZM0.7015 11.4991C0.761433 11.3302 0.839523 11.1683 0.9344 11.0162L2.7644 8.33251H13.0128C13.9237 8.33063 14.7991 8.68575 15.4512 9.32171L17.6932 11.4991H0.7015ZM20.0762 18.26C19.7301 18.26 19.3917 18.1574 19.104 17.9651C18.8162 17.7728 18.5919 17.4995 18.4594 17.1797C18.327 16.8599 18.2923 16.5081 18.3598 16.1686C18.4273 15.8291 18.594 15.5173 18.8388 15.2726C19.0835 15.0278 19.3953 14.8612 19.7348 14.7936C20.0743 14.7261 20.4261 14.7608 20.7459 14.8932C21.0657 15.0257 21.339 15.25 21.5313 15.5378C21.7236 15.8255 21.8262 16.1639 21.8262 16.51C21.8257 16.974 21.6411 17.4188 21.3131 17.7469C20.985 18.0749 20.5402 18.2595 20.0762 18.26Z" fill="black"/>
</g>
<defs>
<clipPath id="clip0">
<rect width="24" height="24" fill="white"/>
</clipPath>
</defs>
</svg>
