<svg width="24" height="24" viewBox="0 0 24 24" fill="none" xmlns="http://www.w3.org/2000/svg">
<g clip-path="url(#clip0)">
<path d="M23.9368 14.4467C23.9396 14.1175 23.8556 13.7933 23.6932 13.5068C23.5308 13.2204 23.2958 12.9818 23.0118 12.8151C21.3478 12.0047 19.531 11.5562 17.681 11.4991L14.9686 8.83542C14.3141 8.19266 13.4335 7.83253 12.5162 7.83252H8.1341C7.5346 7.83251 6.94115 7.95229 6.38859 8.18483C5.83603 8.41736 5.3355 8.75796 4.9164 9.18662L2.6555 11.4991H1.6C1.17565 11.4991 0.768687 11.6677 0.468629 11.9677C0.168571 12.2678 0 12.6748 0 13.0991L0 16.4165L2.3361 16.8465C2.41321 17.3651 2.66956 17.8403 3.0606 18.1896C3.45165 18.5388 3.95268 18.74 4.47666 18.7583C5.00064 18.7765 5.51446 18.6106 5.92885 18.2894C6.34323 17.9682 6.63201 17.512 6.745 17H17.3212C17.4319 17.4992 17.7095 17.9456 18.1082 18.2656C18.5069 18.5856 19.0029 18.76 19.5142 18.76C20.0254 18.76 20.5214 18.5856 20.9201 18.2656C21.3188 17.9456 21.5964 17.4992 21.7071 17H23.9371L23.9368 14.4467ZM4.5521 18.26C4.20598 18.26 3.86764 18.1574 3.57985 17.9651C3.29207 17.7728 3.06776 17.4995 2.93531 17.1797C2.80286 16.8599 2.7682 16.5081 2.83573 16.1686C2.90325 15.8291 3.06992 15.5173 3.31466 15.2726C3.55941 15.0278 3.87123 14.8612 4.21069 14.7936C4.55016 14.7261 4.90203 14.7608 5.2218 14.8932C5.54157 15.0257 5.81488 15.25 6.00717 15.5378C6.19946 15.8256 6.3021 16.1639 6.3021 16.51C6.30157 16.974 6.11703 17.4188 5.78895 17.7469C5.46088 18.0749 5.01607 18.2595 4.5521 18.26ZM3.3548 11.4991L5.2739 9.53622C5.64719 9.15623 6.09222 8.85416 6.58317 8.64752C7.07413 8.44089 7.60123 8.33382 8.1339 8.33252H12.516C13.3027 8.33082 14.0582 8.63991 14.6181 9.19252L16.9672 11.4995L3.3548 11.4991ZM19.5142 18.26C19.1681 18.26 18.8297 18.1574 18.542 17.9651C18.2542 17.7728 18.0299 17.4995 17.8974 17.1797C17.765 16.8599 17.7303 16.5081 17.7978 16.1686C17.8653 15.8291 18.032 15.5173 18.2768 15.2726C18.5215 15.0278 18.8333 14.8612 19.1728 14.7936C19.5123 14.7261 19.8641 14.7608 20.1839 14.8932C20.5037 15.0257 20.777 15.25 20.9693 15.5378C21.1616 15.8256 21.2642 16.1639 21.2642 16.51C21.2637 16.974 21.0791 17.4188 20.7511 17.7469C20.423 18.0749 19.9782 18.2595 19.5142 18.26Z" fill="black"/>
</g>
<defs>
<clipPath id="clip0">
<rect width="24" height="24" fill="white"/>
</clipPath>
</defs>
</svg>
