<svg width="24" height="24" viewBox="0 0 24 24" fill="none" xmlns="http://www.w3.org/2000/svg">
<path d="M23.9368 13.9214C23.9388 13.5792 23.849 13.2427 23.6768 12.9469C23.5047 12.6511 23.2564 12.4069 22.9578 12.2397C21.4159 11.4842 19.7322 11.0619 18.0163 11.0002L15.3057 8.14098C14.9642 7.77837 14.5521 7.48944 14.0948 7.29197C13.6375 7.09449 13.1446 6.99264 12.6465 6.99268H8.296C7.67361 6.99263 7.05803 7.12208 6.48837 7.37279C5.91872 7.6235 5.40746 7.99 4.9871 8.44898L2.6592 11.0002H1.6919C1.24328 11.0002 0.813034 11.1783 0.495758 11.4955C0.178483 11.8127 0.000159093 12.2429 0 12.6915L0 16.4446L2.2424 16.838C2.3351 17.4079 2.62281 17.9279 3.05637 18.3092C3.48994 18.6905 4.04245 18.9094 4.61951 18.9286C5.19658 18.9477 5.76239 18.7659 6.22028 18.4142C6.67817 18.0625 6.99972 17.5627 7.13 17.0002H16.9533C17.0805 17.549 17.3899 18.0385 17.8309 18.3891C18.272 18.7396 18.8187 18.9304 19.3821 18.9304C19.9455 18.9304 20.4922 18.7396 20.9333 18.3891C21.3743 18.0385 21.6837 17.549 21.8109 17.0002H23.9367L23.9368 13.9214ZM4.7014 18.0302C4.38495 18.0302 4.07561 17.9363 3.81249 17.7605C3.54937 17.5847 3.34429 17.3348 3.22319 17.0425C3.10209 16.7501 3.07041 16.4284 3.13214 16.118C3.19388 15.8077 3.34627 15.5226 3.57003 15.2988C3.79379 15.075 4.07889 14.9227 4.38926 14.8609C4.69963 14.7992 5.02133 14.8309 5.31369 14.952C5.60606 15.0731 5.85594 15.2781 6.03175 15.5413C6.20756 15.8044 6.3014 16.1137 6.3014 16.4302C6.3009 16.8544 6.13216 17.261 5.83222 17.561C5.53227 17.8609 5.12559 18.0297 4.7014 18.0302ZM3.9564 11.0002L5.7164 9.08218C6.29691 8.45565 7.08771 8.0647 7.938 7.98388C8.0562 7.96768 8.3264 7.95938 8.4465 7.95938H12.6465C13.3412 7.95789 14.0094 8.22588 14.5105 8.70698C14.5372 8.73058 14.795 8.98488 14.8182 9.01278L16.7438 11.0002H3.9564ZM19.3822 18.0302C19.0658 18.0302 18.7564 17.9363 18.4933 17.7605C18.2302 17.5847 18.0251 17.3348 17.904 17.0425C17.7829 16.7501 17.7512 16.4284 17.8129 16.118C17.8747 15.8077 18.0271 15.5226 18.2508 15.2988C18.4746 15.075 18.7597 14.9227 19.0701 14.8609C19.3804 14.7992 19.7021 14.8309 19.9945 14.952C20.2869 15.0731 20.5367 15.2781 20.7126 15.5413C20.8884 15.8044 20.9822 16.1137 20.9822 16.4302C20.9817 16.8544 20.813 17.261 20.513 17.561C20.2131 17.8609 19.8064 18.0297 19.3822 18.0302Z" fill="black"/>
</svg>
