<svg width="24" height="24" viewBox="0 0 24 24" fill="none" xmlns="http://www.w3.org/2000/svg">
<g clip-path="url(#clip0)">
<path d="M13.75 3.32129H12.25V5.32129H13.75V3.32129ZM20.5649 14.417C20.6138 14.2695 20.6821 14.1328 20.7234 13.9815L21.9934 9.32149H17V6.99999C17 6.78111 16.9569 6.56437 16.8732 6.36215C16.7894 6.15994 16.6666 5.97619 16.5119 5.82142C16.3571 5.66666 16.1734 5.54389 15.9711 5.46013C15.7689 5.37638 15.5522 5.33328 15.3333 5.33329H7L5.9106 9.32109H2.618L2.7644 14.1546C2.19634 13.9598 1.60052 13.8581 1 13.8535V15.2871C1.84385 15.2975 2.66755 15.5463 3.376 16.0049C4.31053 16.5993 5.3925 16.921 6.5 16.9336C7.6075 16.921 8.68947 16.5993 9.624 16.0049C10.3263 15.5323 11.1535 15.2798 12 15.2798C12.8465 15.2798 13.6737 15.5323 14.376 16.0049C15.3052 16.6109 16.3906 16.9336 17.5 16.9336C18.6094 16.9336 19.6948 16.6109 20.624 16.0049C21.3324 15.5463 22.1562 15.2975 23 15.2871V13.8535C22.1567 13.8597 21.3252 14.0521 20.5649 14.417ZM8.0849 6.76699H15.3331C15.395 6.76699 15.4543 6.79152 15.4981 6.8352C15.5419 6.87888 15.5665 6.93814 15.5667 6.99999V9.32109H7.4019L8.0849 6.76699ZM19.3403 13.605C19.1688 14.2199 18.9122 14.8078 18.5779 15.3516C17.9949 15.5083 17.385 15.5386 16.7893 15.4405C16.1936 15.3423 15.6258 15.118 15.1238 14.7825C14.1936 14.1792 13.1085 13.8582 11.9998 13.8582C10.8911 13.8582 9.80605 14.1792 8.8758 14.7825C8.16738 15.2409 7.34375 15.4897 6.5 15.5C5.69317 15.4892 4.90455 15.2586 4.219 14.833L4.0671 10.7545H20.1171L19.3403 13.605ZM15.124 18.4492C14.1938 17.8459 13.1087 17.5249 12 17.5249C10.8913 17.5249 9.80625 17.8459 8.876 18.4492C8.16755 18.9078 7.34385 19.1566 6.5 19.167C5.65615 19.1566 4.83245 18.9078 4.124 18.4492C3.18947 17.8547 2.1075 17.5331 1 17.5205V18.9541C1.84385 18.9645 2.66755 19.2133 3.376 19.6719C4.31053 20.2663 5.3925 20.588 6.5 20.6006C7.6075 20.588 8.68947 20.2663 9.624 19.6719C10.3263 19.1993 11.1535 18.9468 12 18.9468C12.8465 18.9468 13.6737 19.1993 14.376 19.6719C15.3052 20.2779 16.3906 20.6006 17.5 20.6006C18.6094 20.6006 19.6948 20.2779 20.624 19.6719C21.3324 19.2133 22.1562 18.9645 23 18.9541V17.5205C21.8925 17.5331 20.8105 17.8547 19.876 18.4492C19.1737 18.9218 18.3465 19.1743 17.5 19.1743C16.6535 19.1743 15.8263 18.9218 15.124 18.4492Z" fill="black"/>
</g>
<defs>
<clipPath id="clip0">
<rect width="24" height="24" fill="white"/>
</clipPath>
</defs>
</svg>
