<svg width="24" height="24" viewBox="0 0 24 24" fill="none" xmlns="http://www.w3.org/2000/svg">
<path d="M22.4628 14.0602C22.4649 13.6941 22.3656 13.3346 22.1759 13.0215C21.9862 12.7084 21.7134 12.4541 21.3879 12.2866C20.0503 11.6054 18.6014 11.1697 17.11 11.0002L14.4249 8.12338C14.0843 7.76604 13.6747 7.48157 13.2209 7.28721C12.7671 7.09285 12.2785 6.99265 11.7849 6.99268H5.12257L2.22927 10.2502C1.73152 10.7997 1.45586 11.5146 1.45587 12.2561V16.2002L3.09057 16.8121C3.17736 17.3851 3.46125 17.91 3.89336 18.2963C4.32547 18.6826 4.87876 18.9061 5.45794 18.9284C6.03711 18.9507 6.60593 18.7703 7.06644 18.4184C7.52695 18.0664 7.85032 17.5649 7.98087 17.0002H15.7021C15.8291 17.5492 16.1384 18.039 16.5795 18.3897C17.0206 18.7404 17.5675 18.9314 18.131 18.9314C18.6946 18.9314 19.2415 18.7404 19.6826 18.3897C20.1237 18.039 20.433 17.5492 20.56 17.0002H22.4632L22.4628 14.0602ZM5.57097 7.95938H11.7848C12.1405 7.95861 12.4929 8.02874 12.8213 8.16569C13.1496 8.30264 13.4474 8.50365 13.6972 8.75698L15.7908 11.0002H2.86997L5.57097 7.95938ZM5.55207 18.0302C5.23562 18.0302 4.92628 17.9363 4.66316 17.7605C4.40004 17.5847 4.19496 17.3348 4.07386 17.0425C3.95276 16.7501 3.92108 16.4284 3.98282 16.118C4.04455 15.8077 4.19694 15.5226 4.4207 15.2988C4.64446 15.075 4.92956 14.9227 5.23993 14.8609C5.5503 14.7992 5.872 14.8309 6.16437 14.952C6.45673 15.0731 6.70661 15.2781 6.88242 15.5413C7.05823 15.8044 7.15207 16.1137 7.15207 16.4302C7.15157 16.8544 6.98284 17.261 6.68289 17.561C6.38294 17.8609 5.97626 18.0297 5.55207 18.0302ZM18.1309 18.0302C17.8144 18.0302 17.5051 17.9363 17.242 17.7605C16.9788 17.5847 16.7738 17.3348 16.6527 17.0425C16.5316 16.7501 16.4999 16.4284 16.5616 16.118C16.6234 15.8077 16.7757 15.5226 16.9995 15.2988C17.2233 15.075 17.5084 14.9227 17.8187 14.8609C18.1291 14.7992 18.4508 14.8309 18.7432 14.952C19.0355 15.0731 19.2854 15.2781 19.4612 15.5413C19.637 15.8044 19.7309 16.1137 19.7309 16.4302C19.7304 16.8544 19.5617 17.2611 19.2617 17.561C18.9618 17.861 18.5551 18.0297 18.1309 18.0302Z" fill="black"/>
</svg>
