<svg width="24" height="24" viewBox="0 0 24 24" fill="none" xmlns="http://www.w3.org/2000/svg">
<path d="M5.4414 18.8047L4.3809 19.8652C5.3814 20.8659 6.56921 21.6596 7.87651 22.2012C9.1838 22.7427 10.585 23.0215 12 23.0215C13.415 23.0215 14.8162 22.7427 16.1235 22.2012C17.4308 21.6596 18.6186 20.8659 19.6191 19.8652L18.5586 18.8047C16.818 20.5419 14.4592 21.5176 12 21.5176C9.54079 21.5176 7.18203 20.5419 5.4414 18.8047ZM16.0947 16.3408L15.0347 15.2803C14.6364 15.679 14.1634 15.9954 13.6428 16.2112C13.1222 16.427 12.5641 16.5381 12.0005 16.5381C11.4369 16.5381 10.8788 16.427 10.3582 16.2112C9.83758 15.9954 9.3646 15.679 8.9663 15.2803L7.9063 16.3408C8.44382 16.8789 9.08213 17.3057 9.78473 17.597C10.4873 17.8882 11.2404 18.0381 12.001 18.0381C12.7616 18.0381 13.5147 17.8882 14.2173 17.597C14.9199 17.3057 15.5582 16.8789 16.0957 16.3408H16.0947ZM17.6875 5L15.5 7.1875V3C15.5 2.73478 15.3946 2.48043 15.2071 2.29289C15.0196 2.10536 14.7652 2 14.5 2H9.5C9.23478 2 8.98043 2.10536 8.79289 2.29289C8.60536 2.48043 8.5 2.73478 8.5 3V7.1875L6.3125 5H1V10H6.3125L8.5 7.8125V12C8.5 12.2652 8.60536 12.5196 8.79289 12.7071C8.98043 12.8946 9.23478 13 9.5 13H14.5C14.7652 13 15.0196 12.8946 15.2071 12.7071C15.3946 12.5196 15.5 12.2652 15.5 12V7.8125L17.6875 10H23V5H17.6875Z" fill="black"/>
</svg>
