<svg width="24" height="24" viewBox="0 0 24 24" fill="none" xmlns="http://www.w3.org/2000/svg">
<g clip-path="url(#clip0)">
<path d="M20.8151 14.3118L21.993 9.98779H17V6.99999C17 6.78111 16.9569 6.56437 16.8732 6.36215C16.7894 6.15994 16.6666 5.97619 16.5119 5.82142C16.3571 5.66666 16.1734 5.54389 15.9711 5.46013C15.7689 5.37638 15.5522 5.33328 15.3333 5.33329H13.75V3.32129H12.25V5.33329H7L5.7285 9.98779H2.618L2.7439 14.147C2.18194 13.9569 1.59322 13.8578 1 13.8535V15.2871C1.84385 15.2975 2.66755 15.5463 3.376 16.0049C4.31053 16.5993 5.3925 16.921 6.5 16.9336C7.6075 16.921 8.68947 16.5993 9.624 16.0049C10.3263 15.5323 11.1535 15.2798 12 15.2798C12.8465 15.2798 13.6737 15.5323 14.376 16.0049C15.3052 16.6109 16.3906 16.9336 17.5 16.9336C18.6094 16.9336 19.6948 16.6109 20.624 16.0049C21.3324 15.5463 22.1562 15.2975 23 15.2871V13.8535C22.2485 13.8598 21.5058 14.0156 20.8151 14.3118ZM15.5667 9.98779H7.2235L8.0851 6.76669H15.3333C15.3952 6.76674 15.4545 6.79134 15.4982 6.83507C15.542 6.87881 15.5666 6.93812 15.5667 6.99999V9.98779ZM15.124 18.4492C14.1938 17.8459 13.1087 17.5249 12 17.5249C10.8913 17.5249 9.80625 17.8459 8.876 18.4492C8.16755 18.9078 7.34385 19.1566 6.5 19.167C5.65615 19.1566 4.83245 18.9078 4.124 18.4492C3.18947 17.8547 2.1075 17.5331 1 17.5205V18.9541C1.84385 18.9645 2.66755 19.2133 3.376 19.6719C4.31053 20.2663 5.3925 20.588 6.5 20.6006C7.6075 20.588 8.68947 20.2663 9.624 19.6719C10.3263 19.1993 11.1535 18.9468 12 18.9468C12.8465 18.9468 13.6737 19.1993 14.376 19.6719C15.3052 20.2779 16.3906 20.6006 17.5 20.6006C18.6094 20.6006 19.6948 20.2779 20.624 19.6719C21.3324 19.2133 22.1562 18.9645 23 18.9541V17.5205C21.8925 17.5331 20.8105 17.8547 19.876 18.4492C19.1737 18.9218 18.3465 19.1743 17.5 19.1743C16.6535 19.1743 15.8263 18.9218 15.124 18.4492Z" fill="black"/>
</g>
<defs>
<clipPath id="clip0">
<rect width="24" height="24" fill="white"/>
</clipPath>
</defs>
</svg>
