<svg width="24" height="24" viewBox="0 0 24 24" fill="none" xmlns="http://www.w3.org/2000/svg">
<path d="M5.2646 19.2275L4.5576 19.9346C6.53291 21.9057 9.20947 23.0127 12 23.0127C14.7905 23.0127 17.4671 21.9057 19.4424 19.9346L18.7354 19.2275C16.9474 21.0108 14.5252 22.0122 12 22.0122C9.47476 22.0122 7.05257 21.0108 5.2646 19.2275ZM15.918 16.41L15.2109 15.7029C14.7894 16.1249 14.2889 16.4596 13.7379 16.6881C13.187 16.9165 12.5964 17.034 12 17.034C11.4036 17.034 10.813 16.9165 10.2621 16.6881C9.71111 16.4596 9.21058 16.1249 8.7891 15.7029L8.082 16.41C8.59634 16.9248 9.2071 17.3333 9.87938 17.6119C10.5517 17.8906 11.2723 18.034 12 18.034C12.7277 18.034 13.4483 17.8906 14.1206 17.6119C14.7929 17.3333 15.4037 16.9248 15.918 16.41ZM17.6875 5L15.5 7.1875V3C15.5 2.73478 15.3946 2.48043 15.2071 2.29289C15.0196 2.10536 14.7652 2 14.5 2H9.5C9.23478 2 8.98043 2.10536 8.79289 2.29289C8.60536 2.48043 8.5 2.73478 8.5 3V7.1875L6.3125 5H1V10H6.3125L8.5 7.8125V12C8.5 12.2652 8.60536 12.5196 8.79289 12.7071C8.98043 12.8946 9.23478 13 9.5 13H14.5C14.7652 13 15.0196 12.8946 15.2071 12.7071C15.3946 12.5196 15.5 12.2652 15.5 12V7.8125L17.6875 10H23V5H17.6875Z" fill="black"/>
</svg>
