<svg width="24" height="24" viewBox="0 0 24 24" fill="none" xmlns="http://www.w3.org/2000/svg">
<path d="M14.7659 10.1669C14.7239 9.57838 14.4604 9.02759 14.0286 8.62549C13.5967 8.22339 13.0286 7.99984 12.4385 7.99984H3.5615C2.97144 7.99984 2.40328 8.22339 1.97144 8.62549C1.53959 9.02759 1.27613 9.57838 1.2341 10.1669C1.07803 12.3511 1 14.5388 1 16.7298V22.3398C1 22.5149 1.06954 22.6828 1.19331 22.8065C1.31708 22.9303 1.48496 22.9998 1.66 22.9998H2.67C2.84504 22.9998 3.01292 22.9303 3.13669 22.8065C3.26046 22.6828 3.33 22.5149 3.33 22.3398V20.9998H12.67V22.3398C12.67 22.5149 12.7395 22.6828 12.8633 22.8065C12.9871 22.9303 13.155 22.9998 13.33 22.9998H14.34C14.515 22.9998 14.6829 22.9303 14.8067 22.8065C14.9305 22.6828 15 22.5149 15 22.3398V16.7298C15 14.54 14.922 12.3523 14.7659 10.1667V10.1669ZM1.7329 10.2025C1.76746 9.74068 1.97492 9.30884 2.31388 8.99322C2.65284 8.6776 3.09835 8.50142 3.5615 8.49984H12.4385C12.9016 8.50142 13.3472 8.6776 13.6861 8.99322C14.0251 9.30884 14.2325 9.74068 14.2671 10.2025C14.3806 11.7925 14.4386 13.3983 14.469 14.9998H1.531C1.5614 13.3984 1.6194 11.7928 1.7329 10.2025ZM14.5 22.3398C14.5 22.3823 14.4831 22.423 14.4531 22.453C14.4231 22.483 14.3824 22.4998 14.34 22.4998H13.33C13.2876 22.4998 13.2469 22.483 13.2169 22.453C13.1869 22.423 13.17 22.3823 13.17 22.3398L13.1685 20.4998H2.833L2.83 22.3398C2.83 22.3823 2.81314 22.423 2.78314 22.453C2.75313 22.483 2.71243 22.4998 2.67 22.4998H1.66C1.61757 22.4998 1.57687 22.483 1.54686 22.453C1.51686 22.423 1.5 22.3823 1.5 22.3398V16.7298C1.5 16.3214 1.5165 15.9098 1.522 15.4998H14.478C14.4835 15.9098 14.5 16.3216 14.5 16.7298V22.3398ZM3.7344 16.4998C3.49026 16.4998 3.2516 16.5722 3.0486 16.7079C2.84561 16.8435 2.68739 17.0363 2.59396 17.2619C2.50053 17.4874 2.47609 17.7356 2.52372 17.9751C2.57135 18.2145 2.68891 18.4345 2.86155 18.6071C3.03418 18.7797 3.25413 18.8973 3.49358 18.9449C3.73303 18.9926 3.98123 18.9681 4.20678 18.8747C4.43234 18.7812 4.62513 18.623 4.76077 18.42C4.8964 18.217 4.9688 17.9784 4.9688 17.7342C4.9688 17.4069 4.83875 17.0929 4.60725 16.8614C4.37576 16.6299 4.06178 16.4998 3.7344 16.4998ZM3.7344 18.4686C3.58915 18.4686 3.44716 18.4256 3.32639 18.3449C3.20562 18.2642 3.11149 18.1495 3.0559 18.0153C3.00032 17.8811 2.98577 17.7334 3.01411 17.591C3.04245 17.4485 3.11239 17.3177 3.2151 17.2149C3.31781 17.1122 3.44867 17.0423 3.59113 17.014C3.73359 16.9856 3.88125 17.0002 4.01544 17.0557C4.14964 17.1113 4.26433 17.2055 4.34503 17.3262C4.42573 17.447 4.4688 17.589 4.4688 17.7342C4.46854 17.9289 4.39108 18.1156 4.25341 18.2533C4.11574 18.3909 3.92909 18.4684 3.7344 18.4686ZM12.2656 16.4998C12.0215 16.4998 11.7828 16.5722 11.5798 16.7079C11.3768 16.8435 11.2186 17.0363 11.1252 17.2619C11.0317 17.4874 11.0073 17.7356 11.0549 17.9751C11.1025 18.2145 11.2201 18.4345 11.3927 18.6071C11.5654 18.7797 11.7853 18.8973 12.0248 18.9449C12.2642 18.9926 12.5124 18.9681 12.738 18.8747C12.9635 18.7812 13.1563 18.623 13.292 18.42C13.4276 18.217 13.5 17.9784 13.5 17.7342C13.5 17.4069 13.3699 17.0929 13.1384 16.8614C12.9069 16.6299 12.593 16.4999 12.2656 16.4998ZM12.2656 18.4686C12.1203 18.4686 11.9784 18.4256 11.8576 18.3449C11.7368 18.2642 11.6427 18.1495 11.5871 18.0153C11.5315 17.8811 11.517 17.7334 11.5453 17.591C11.5736 17.4485 11.6436 17.3177 11.7463 17.2149C11.849 17.1122 11.9799 17.0423 12.1223 17.014C12.2648 16.9856 12.4124 17.0002 12.5466 17.0557C12.6808 17.1113 12.7955 17.2055 12.8762 17.3262C12.9569 17.447 13 17.589 13 17.7342C12.9997 17.9289 12.9223 18.1156 12.7846 18.2533C12.6469 18.3909 12.4603 18.4684 12.2656 18.4686ZM19.25 9.33534V2.66424L21.0784 4.49264L21.4321 4.13864L19 1.70654L16.5679 4.13864L16.9216 4.49264L18.75 2.66424V9.33534L16.9216 7.50694L16.5679 7.86094L19 10.2931L21.4321 7.86094L21.0784 7.50694L19.25 9.33534Z" fill="black"/>
</svg>
