<svg width="24" height="24" viewBox="0 0 24 24" fill="none" xmlns="http://www.w3.org/2000/svg">
<path d="M9.22921 6.72939C9.77637 6.72885 10.3107 6.56363 10.7626 6.25522C11.2146 5.94681 11.5632 5.50949 11.7632 5.00019H12.3232L13.5 4.14399L14.5 5.00019L15.5 4.14399L16.5 5.00019L17.5 4.14399V3.00019H11.7632C11.581 2.53907 11.2765 2.13636 10.8825 1.83537C10.4885 1.53438 10.0199 1.3465 9.5271 1.29195C9.0343 1.2374 8.53594 1.31823 8.08565 1.52575C7.63536 1.73328 7.25016 2.05964 6.9715 2.46974C6.69284 2.87984 6.53125 3.35815 6.50413 3.85322C6.47701 4.34829 6.58537 4.84139 6.81757 5.27947C7.04976 5.71756 7.397 6.08405 7.82193 6.33952C8.24686 6.59499 8.7334 6.72978 9.22921 6.72939ZM8.27781 3.25019C8.42615 3.25019 8.57115 3.29418 8.69449 3.37659C8.81783 3.459 8.91396 3.57613 8.97072 3.71318C9.02749 3.85022 9.04234 4.00102 9.0134 4.14651C8.98446 4.29199 8.91303 4.42563 8.80814 4.53052C8.70325 4.63541 8.56962 4.70684 8.42413 4.73578C8.27864 4.76472 8.12784 4.74987 7.9908 4.6931C7.85375 4.63633 7.73662 4.54021 7.65421 4.41687C7.5718 4.29353 7.52781 4.14853 7.52781 4.00019C7.52781 3.80128 7.60683 3.61051 7.74748 3.46986C7.88813 3.32921 8.0789 3.25019 8.27781 3.25019ZM20.9333 14.0002H18.8481C18.6765 12.798 18.4327 11.6071 18.1181 10.4342C18.0208 10.072 17.8196 9.74616 17.5393 9.49696C17.259 9.24775 16.9118 9.08605 16.5407 9.03179C16.3981 9.01077 16.2542 9.0002 16.11 9.00019H7.87921C7.74683 9.00019 7.6146 9.00907 7.48341 9.02679C7.10744 9.07728 6.75481 9.23785 6.46988 9.48828C6.18495 9.73871 5.98045 10.0678 5.88211 10.4342C5.56747 11.6072 5.32353 12.798 5.15161 14.0002H3.06671V15.403L4.92241 16.0473C4.87334 16.6962 4.84478 17.3467 4.83671 17.9986C4.83451 18.127 4.83331 18.4507 4.83331 18.5791V21.9339C4.83331 22.1089 4.90285 22.2768 5.02662 22.4006C5.15039 22.5244 5.31827 22.5939 5.49331 22.5939H6.09561C6.27065 22.5939 6.43853 22.5244 6.5623 22.4006C6.68608 22.2768 6.75561 22.1089 6.75561 21.9339V21.0002H17.2522V21.9339C17.2522 22.1089 17.3217 22.2768 17.4455 22.4006C17.5693 22.5244 17.7372 22.5939 17.9122 22.5939H18.5067C18.6818 22.5939 18.8496 22.5244 18.9734 22.4006C19.0972 22.2768 19.1667 22.1089 19.1667 21.9339V18.5789C19.1667 18.4525 19.1655 18.1309 19.1636 18.0045C19.1562 17.3512 19.1275 16.6988 19.0774 16.0474L20.9333 15.403V14.0002ZM7.47461 18.1602C7.27256 18.1602 7.07506 18.1002 6.90707 17.988C6.73908 17.8757 6.60815 17.7161 6.53085 17.5295C6.45354 17.3428 6.43332 17.1374 6.47275 16.9392C6.51218 16.7411 6.60949 16.559 6.75237 16.4162C6.89524 16.2733 7.07728 16.176 7.27544 16.1366C7.47361 16.0972 7.67902 16.1174 7.86568 16.1948C8.05235 16.2721 8.2119 16.403 8.32415 16.571C8.4364 16.739 8.49631 16.9365 8.49631 17.1386C8.49639 17.2728 8.47002 17.4057 8.41871 17.5297C8.3674 17.6537 8.29215 17.7664 8.19726 17.8614C8.10238 17.9563 7.98972 18.0316 7.86572 18.0829C7.74173 18.1343 7.60882 18.1607 7.47461 18.1607V18.1602ZM16.5254 18.1602C16.3234 18.1602 16.1258 18.1003 15.9578 17.9881C15.7898 17.8758 15.6588 17.7163 15.5815 17.5296C15.5042 17.3429 15.4839 17.1375 15.5233 16.9393C15.5627 16.7412 15.66 16.5591 15.8029 16.4162C15.9458 16.2734 16.1278 16.1761 16.326 16.1366C16.5241 16.0972 16.7296 16.1174 16.9162 16.1947C17.1029 16.2721 17.2625 16.403 17.3747 16.571C17.487 16.739 17.5469 16.9365 17.5469 17.1386C17.547 17.2728 17.5206 17.4057 17.4693 17.5297C17.418 17.6536 17.3427 17.7663 17.2479 17.8612C17.153 17.9561 17.0404 18.0314 16.9164 18.0828C16.7925 18.1342 16.6596 18.1607 16.5254 18.1607V18.1602ZM6.16551 14.0002C6.32918 12.8861 6.55679 11.7824 6.84721 10.6945C6.8691 10.6191 6.90052 10.5468 6.94071 10.4793H17.0591C17.0995 10.5467 17.131 10.619 17.1528 10.6945C17.4432 11.7824 17.6707 12.8861 17.8342 14.0002H6.16551Z" fill="black"/>
</svg>
