<svg width="24" height="24" viewBox="0 0 24 24" fill="none" xmlns="http://www.w3.org/2000/svg">
<path d="M15.5 19C16.163 19 16.7989 18.7366 17.2678 18.2678C17.7366 17.7989 18 17.163 18 16.5V13.5461C18 11.9886 17.8179 10.4364 17.4572 8.9212C17.327 8.37408 17.0161 7.88685 16.5748 7.53824C16.1335 7.18962 15.5875 7 15.0251 7H8.9751C8.41268 6.99995 7.86667 7.18954 7.42531 7.53813C6.98395 7.88673 6.67304 8.37397 6.5428 8.9211C6.18218 10.4363 6.00001 11.9885 6 13.5461V16.5C6 17.163 6.26339 17.7989 6.73223 18.2678C7.20108 18.7366 7.83696 19 8.5 19H9L7.8455 21H10.1555L11.31 19H12.69L13.8448 21H16.1548L15 19H15.5ZM8.2939 9.3379C8.32997 9.18451 8.41692 9.04784 8.54058 8.95017C8.66424 8.8525 8.81732 8.79957 8.9749 8.8H15.0249C15.1825 8.79957 15.3356 8.85252 15.4592 8.95021C15.5829 9.0479 15.6698 9.18459 15.7059 9.338C15.9116 10.2137 16.0519 11.1035 16.1259 12H7.8737C7.94773 11.1035 8.08819 10.2137 8.2939 9.3379ZM8.5 17.2C8.31441 17.1998 8.13649 17.126 8.00526 16.9947C7.87403 16.8635 7.80021 16.6856 7.8 16.5V13.8H16.2V16.5C16.1998 16.6856 16.126 16.8635 15.9947 16.9947C15.8635 17.126 15.6856 17.1998 15.5 17.2H8.5ZM14.2861 14.5982C14.117 14.5982 13.9518 14.6483 13.8112 14.7423C13.6706 14.8362 13.5611 14.9697 13.4964 15.1259C13.4317 15.2821 13.4147 15.454 13.4477 15.6198C13.4807 15.7856 13.5621 15.9379 13.6817 16.0575C13.8013 16.177 13.9536 16.2584 14.1194 16.2914C14.2852 16.3244 14.4571 16.3074 14.6133 16.2427C14.7695 16.178 14.903 16.0684 14.9969 15.9278C15.0908 15.7872 15.1409 15.622 15.1409 15.4529C15.1409 15.3407 15.1188 15.2295 15.0758 15.1258C15.0329 15.0221 14.9699 14.9279 14.8905 14.8485C14.8112 14.7691 14.7169 14.7062 14.6132 14.6632C14.5095 14.6203 14.3984 14.5982 14.2861 14.5982ZM12 1.5C9.7406 1.49857 7.53089 2.16314 5.64711 3.41065C3.76334 4.65816 2.28906 6.43326 1.40858 8.51404C0.528098 10.5948 0.280477 12.889 0.696671 15.1097C1.11287 17.3305 2.17441 19.3793 3.7486 21H6.93C5.1885 19.901 3.85125 18.2659 3.11968 16.3409C2.38812 14.416 2.30184 12.3054 2.87386 10.3272C3.44587 8.34891 4.6452 6.6101 6.29119 5.37262C7.93719 4.13514 9.94072 3.46601 12 3.46601C14.0593 3.46601 16.0628 4.13514 17.7088 5.37262C19.3548 6.6101 20.5541 8.34891 21.1261 10.3272C21.6982 12.3054 21.6119 14.416 20.8803 16.3409C20.1488 18.2659 18.8115 19.901 17.07 21H20.251C21.8252 19.3793 22.8867 17.3305 23.3029 15.1098C23.7191 12.8891 23.4715 10.595 22.5911 8.51422C21.7107 6.43346 20.2365 4.65836 18.3527 3.41082C16.469 2.16328 14.2594 1.49865 12 1.5ZM9.7139 14.5982C9.54483 14.5982 9.37956 14.6483 9.23899 14.7423C9.09842 14.8362 8.98885 14.9697 8.92416 15.1259C8.85946 15.2821 8.84254 15.454 8.87553 15.6198C8.90852 15.7856 8.98995 15.9379 9.1095 16.0575C9.22906 16.177 9.38138 16.2584 9.5472 16.2914C9.71302 16.3244 9.8849 16.3074 10.0411 16.2427C10.1973 16.178 10.3308 16.0684 10.4247 15.9278C10.5186 15.7872 10.5687 15.622 10.5687 15.4529C10.5687 15.3406 10.5466 15.2295 10.5037 15.1258C10.4607 15.0221 10.3977 14.9278 10.3184 14.8485C10.239 14.7691 10.1447 14.7061 10.041 14.6632C9.93731 14.6203 9.82615 14.5982 9.7139 14.5982Z" fill="black"/>
</svg>
