<svg width="24" height="24" viewBox="0 0 24 24" fill="none" xmlns="http://www.w3.org/2000/svg">
<path d="M23.1 3.2002H0.9C0.661305 3.2002 0.432387 3.29502 0.263604 3.4638C0.0948212 3.63258 1.89661e-08 3.8615 1.89661e-08 4.1002C1.89661e-08 4.33889 0.0948212 4.56781 0.263604 4.73659C0.432387 4.90537 0.661305 5.0002 0.9 5.0002H11.1V8.0002H5.1875L4.3125 6.0002H0L1 13.0002H6.931L9.125 18.0002H18.394C19.1436 18.0002 19.8756 17.7734 20.4938 17.3495C21.112 16.9257 21.5876 16.3247 21.8579 15.6256C22.1282 14.9265 22.1806 14.1619 22.0082 13.4324C21.8359 12.703 21.4468 12.0427 20.8922 11.5385L17.515 8.4685C17.1837 8.1672 16.7519 8.00023 16.3041 8.0002H12.9V5.0002H23.1C23.2182 5.0002 23.3352 4.97692 23.4444 4.93169C23.5536 4.88646 23.6528 4.82016 23.7364 4.73659C23.82 4.65302 23.8863 4.5538 23.9315 4.44461C23.9767 4.33542 24 4.21838 24 4.1002C24 3.98201 23.9767 3.86497 23.9315 3.75578C23.8863 3.64659 23.82 3.54737 23.7364 3.4638C23.6528 3.38023 23.5536 3.31393 23.4444 3.2687C23.3352 3.22347 23.2182 3.2002 23.1 3.2002ZM13.9 9.8002H16.3037L18.8337 12.1002H15C14.7083 12.1 14.4286 11.9841 14.2224 11.7778C14.0161 11.5716 13.9002 11.2919 13.9 11.0002V9.8002ZM15 13.9002H20.2759C20.3407 14.261 20.3073 14.6327 20.179 14.9761C20.045 15.3399 19.8013 15.6532 19.4815 15.8725C19.1617 16.0918 18.7817 16.2063 18.394 16.2002H10.3008L8.5792 12.2769L8.1068 11.2002H2.5612L2.0754 7.8002H3.1354L3.5386 8.7216L4.01 9.8002H12.1V11.0002C12.1012 11.7689 12.4071 12.5059 12.9507 13.0495C13.4943 13.5931 14.2312 13.899 15 13.9002ZM8 21.0002H20L21 19.2002H8V21.0002Z" fill="black"/>
</svg>
