<svg width="24" height="24" viewBox="0 0 24 24" fill="none" xmlns="http://www.w3.org/2000/svg">
<g clip-path="url(#clip0)">
<path d="M24 17V11.9343C24.0016 11.5739 23.9 11.2204 23.7071 10.9159C23.5142 10.6113 23.2382 10.3683 22.9116 10.2157C21.5777 9.59679 20.1566 9.18677 18.698 8.99995L16.774 6.51805C16.4001 6.03577 15.9209 5.64542 15.3729 5.37688C14.825 5.10835 14.2228 4.96874 13.6126 4.96875H2.2969L0.3479 8.65445C0.119425 9.08656 -4.63e-06 9.56795 1.34623e-10 10.0567L1.34623e-10 16.2L3.5708 16.9942C3.74348 17.6968 4.14661 18.3213 4.7158 18.7679C5.285 19.2146 5.98745 19.4577 6.71098 19.4584C7.43451 19.459 8.1374 19.2173 8.70743 18.7716C9.27745 18.326 9.68172 17.7023 9.8557 17H14.9822C15.156 17.7017 15.5598 18.3251 16.1292 18.7706C16.6986 19.2162 17.4008 19.4583 18.1238 19.4583C18.8467 19.4583 19.5489 19.2162 20.1183 18.7706C20.6877 18.3251 21.0915 17.7017 21.2653 17H24ZM3.4414 6.86865H13.6125C13.9327 6.86965 14.2486 6.94339 14.5361 7.0843C14.8237 7.22521 15.0755 7.4296 15.2725 7.68205L16.2939 8.99995H2.3145L3.4414 6.86865ZM1.9 10.8999H18.5486C19.7773 11.0659 20.9744 11.4146 22.1 11.9344V15.1H21.167C20.9422 14.4729 20.5292 13.9307 19.9845 13.5473C19.4397 13.1639 18.7899 12.9582 18.1238 12.9582C17.4577 12.9582 16.8079 13.1639 16.2631 13.5473C15.7184 13.9307 15.3054 14.4729 15.0806 15.1H9.7573C9.53307 14.4754 9.12217 13.935 8.58034 13.552C8.03851 13.169 7.39198 12.9619 6.72845 12.9588C6.06492 12.9558 5.41651 13.1569 4.87117 13.5349C4.32583 13.9129 3.90997 14.4495 3.68 15.0719L1.9 14.6761V10.8999ZM6.7141 17.7083C6.41743 17.7083 6.12742 17.6203 5.88074 17.4555C5.63407 17.2906 5.44181 17.0564 5.32828 16.7823C5.21475 16.5082 5.18504 16.2066 5.24292 15.9156C5.3008 15.6246 5.44366 15.3574 5.65344 15.1476C5.86322 14.9378 6.13049 14.795 6.42146 14.7371C6.71244 14.6792 7.01404 14.7089 7.28813 14.8224C7.56221 14.936 7.79648 15.1282 7.9613 15.3749C8.12613 15.6216 8.2141 15.9116 8.2141 16.2083C8.21365 16.6059 8.05547 16.9872 7.77426 17.2684C7.49306 17.5496 7.11179 17.7078 6.7141 17.7083ZM18.1241 17.7083C17.8274 17.7083 17.5374 17.6203 17.2907 17.4555C17.0441 17.2906 16.8518 17.0564 16.7383 16.7823C16.6248 16.5082 16.595 16.2066 16.6529 15.9156C16.7108 15.6246 16.8537 15.3574 17.0634 15.1476C17.2732 14.9378 17.5405 14.795 17.8315 14.7371C18.1224 14.6792 18.424 14.7089 18.6981 14.8224C18.9722 14.936 19.2065 15.1282 19.3713 15.3749C19.5361 15.6216 19.6241 15.9116 19.6241 16.2083C19.6237 16.606 19.4655 16.9873 19.1842 17.2685C18.9029 17.5498 18.5215 17.7079 18.1238 17.7083H18.1241Z" fill="black"/>
</g>
<defs>
<clipPath id="clip0">
<rect width="24" height="24" fill="white"/>
</clipPath>
</defs>
</svg>
