<svg width="24" height="24" viewBox="0 0 24 24" fill="none" xmlns="http://www.w3.org/2000/svg">
<path d="M18.9178 4.5068C18.8011 3.80631 18.4396 3.16995 17.8977 2.71093C17.3559 2.25191 16.6687 2 15.9586 2H8.0414C7.33125 2 6.64412 2.25191 6.10226 2.71093C5.5604 3.16995 5.19895 3.80631 5.0822 4.5068C4.69476 6.8316 4.50003 9.18444 4.5 11.5413V16.5C4.5 17.163 4.76339 17.7989 5.23223 18.2678C5.70107 18.7366 6.33696 19 7 19H8.99L7.2576 22H7.8908L9.623 19H14.377L16.1092 22H16.7424L15.01 19H17C17.663 19 18.2989 18.7366 18.7678 18.2678C19.2366 17.7989 19.5 17.163 19.5 16.5V11.5413C19.5 9.18443 19.3053 6.8316 18.9178 4.5068ZM7.2 15.5125C6.96266 15.5125 6.73065 15.4421 6.53332 15.3103C6.33598 15.1784 6.18217 14.991 6.09134 14.7717C6.00052 14.5524 5.97676 14.3112 6.02306 14.0784C6.06936 13.8456 6.18365 13.6318 6.35147 13.464C6.51929 13.2961 6.73311 13.1819 6.96589 13.1356C7.19867 13.0893 7.43995 13.113 7.65922 13.2038C7.87849 13.2947 8.06591 13.4485 8.19776 13.6458C8.32962 13.8432 8.4 14.0752 8.4 14.3125C8.4 14.6308 8.27357 14.936 8.04853 15.161C7.82348 15.3861 7.51826 15.5125 7.2 15.5125ZM16.7807 15.5125C16.5434 15.5125 16.3114 15.4421 16.114 15.3103C15.9167 15.1784 15.7629 14.991 15.672 14.7717C15.5812 14.5524 15.5575 14.3112 15.6038 14.0784C15.6501 13.8456 15.7643 13.6318 15.9322 13.464C16.1 13.2961 16.3138 13.1819 16.5466 13.1356C16.7794 13.0893 17.0206 13.113 17.2399 13.2038C17.4592 13.2947 17.6466 13.4485 17.7785 13.6458C17.9103 13.8432 17.9807 14.0752 17.9807 14.3125C17.9807 14.6308 17.8543 14.936 17.6292 15.161C17.4042 15.3861 17.099 15.5125 16.7807 15.5125ZM5.0112 11C5.03663 8.8518 5.22524 6.70863 5.5754 4.589C5.64301 4.19317 5.80532 3.81955 6.0485 3.5H17.9515C18.1947 3.81955 18.357 4.19317 18.4246 4.589C18.7748 6.70863 18.9634 8.8518 18.9888 11H5.0112Z" fill="black"/>
</svg>
