<svg width="24" height="24" viewBox="0 0 24 24" fill="none" xmlns="http://www.w3.org/2000/svg">
<path d="M23 12.7985C23.0016 12.4713 22.9146 12.1498 22.7484 11.8679C22.5821 11.5861 22.3426 11.3545 22.0554 11.1977C20.6642 10.462 19.1238 10.0524 17.5509 9.99995L14.6977 7.10475C14.2155 6.62163 13.5823 6.31829 12.9036 6.24525L12.5461 4.46875H8.5861L8.26 6.27455C7.38815 6.40627 6.58464 6.82354 5.9754 7.46095L3.5729 9.99995H2.6919C2.24327 9.99995 1.813 10.1781 1.49572 10.4953C1.17844 10.8125 1.00013 11.2427 1 11.6913V16.2L3.5043 16.8326C3.61422 17.36 3.89779 17.8354 4.3097 18.1828C4.72161 18.5301 5.23807 18.7294 5.77655 18.7487C6.31502 18.7679 6.84441 18.6061 7.2801 18.2891C7.7158 17.9721 8.03264 17.5182 8.18 17H15.625C15.7671 17.5037 16.0698 17.9472 16.4871 18.2631C16.9044 18.5789 17.4134 18.7499 17.9368 18.7499C18.4602 18.7499 18.9692 18.5789 19.3865 18.2631C19.8038 17.9472 20.1065 17.5037 20.2486 17H23V12.7985ZM9.2965 5.31865H11.85L12.03 6.21115H9.1355L9.2965 5.31865ZM6.7021 8.14865C6.98254 7.85312 7.32009 7.61763 7.69428 7.45648C8.06846 7.29532 8.47149 7.21186 8.8789 7.21115H12.5625C12.827 7.21173 13.0888 7.26458 13.3328 7.36665C13.5768 7.46873 13.7983 7.61802 13.9844 7.80595L16.18 10.0322H4.9189L6.7021 8.14865ZM5.868 17.8333C5.57133 17.8333 5.28132 17.7453 5.03464 17.5805C4.78797 17.4156 4.59571 17.1814 4.48218 16.9073C4.36865 16.6332 4.33894 16.3316 4.39682 16.0406C4.4547 15.7496 4.59756 15.4824 4.80734 15.2726C5.01712 15.0628 5.28439 14.9199 5.57536 14.8621C5.86634 14.8042 6.16794 14.8339 6.44203 14.9474C6.71611 15.061 6.95038 15.2532 7.1152 15.4999C7.28003 15.7466 7.368 16.0366 7.368 16.3333C7.36752 16.7309 7.20934 17.1122 6.92813 17.3934C6.64693 17.6746 6.26568 17.8328 5.868 17.8333ZM17.9368 17.8333C17.6401 17.8333 17.3501 17.7453 17.1034 17.5805C16.8568 17.4156 16.6645 17.1814 16.551 16.9073C16.4375 16.6332 16.4077 16.3316 16.4656 16.0406C16.5235 15.7496 16.6664 15.4824 16.8761 15.2726C17.0859 15.0628 17.3532 14.9199 17.6442 14.8621C17.9351 14.8042 18.2367 14.8339 18.5108 14.9474C18.7849 15.061 19.0192 15.2532 19.184 15.4999C19.3488 15.7466 19.4368 16.0366 19.4368 16.3333C19.4363 16.7309 19.2782 17.1122 18.997 17.3934C18.7158 17.6746 18.3345 17.8328 17.9368 17.8333ZM22 16H20.32C20.2422 15.4231 19.9577 14.8941 19.5195 14.511C19.0813 14.128 18.519 13.9168 17.9369 13.9168C17.3548 13.9168 16.7925 14.128 16.3543 14.511C15.9161 14.8941 15.6316 15.4231 15.5538 16H8.2512C8.17496 15.4398 7.90412 14.9244 7.48609 14.5438C7.06807 14.1633 6.52951 13.9419 5.96471 13.9185C5.39991 13.8951 4.84486 14.0711 4.39676 14.4157C3.94866 14.7603 3.63606 15.2516 3.5137 15.8034L2 15.4209V11.6913C2.00019 11.5078 2.07319 11.3318 2.203 11.202C2.33281 11.0721 2.50882 10.9991 2.6924 10.9989H17.5179C18.9358 11.0462 20.3245 11.4148 21.5791 12.077C21.7078 12.1482 21.8149 12.2528 21.889 12.3799C21.9631 12.5069 22.0015 12.6517 22 12.7987V16Z" fill="black"/>
</svg>
