<svg width="24" height="24" viewBox="0 0 24 24" fill="none" xmlns="http://www.w3.org/2000/svg">
<path d="M23 17V12.9323C23.0012 12.5332 22.8826 12.143 22.6594 11.8122C22.4362 11.4814 22.1189 11.2252 21.7484 11.0769C20.437 10.5321 19.0571 10.1698 17.6472 10L15.0333 7.0894C13.9682 6.02851 12.5503 5.39612 11.0493 5.3125H3.6042L1.3393 9.6611C1.1164 10.089 1.00001 10.5644 1 11.0469V16.2L2.785 16.7858C2.86103 17.5939 3.2292 18.3465 3.82048 18.9025C4.41176 19.4586 5.18555 19.7798 5.99678 19.8061C6.80801 19.8324 7.60097 19.5619 8.22699 19.0453C8.85302 18.5287 9.26913 17.8015 9.3973 17H14.6429C14.7688 17.7833 15.1697 18.4962 15.7736 19.0108C16.3774 19.5254 17.1449 19.808 17.9383 19.808C18.7317 19.808 19.4992 19.5254 20.103 19.0108C20.7069 18.4962 21.1078 17.7833 21.2337 17H23ZM4.7568 7.2125H11.0493C12.0105 7.29453 12.916 7.6984 13.6193 8.3588L15.0934 10H3.3051L4.7568 7.2125ZM6.1019 18.1079C5.77556 18.1079 5.45655 18.0111 5.18521 17.8298C4.91387 17.6485 4.70238 17.3908 4.5775 17.0893C4.45261 16.7878 4.41994 16.4561 4.4836 16.136C4.54727 15.8159 4.70442 15.5219 4.93517 15.2912C5.16593 15.0604 5.45993 14.9033 5.78 14.8396C6.10007 14.7759 6.43183 14.8086 6.73333 14.9335C7.03483 15.0584 7.29252 15.2699 7.47382 15.5412C7.65513 15.8126 7.7519 16.1316 7.7519 16.4579C7.7514 16.8954 7.5774 17.3147 7.26807 17.6241C6.95874 17.9334 6.53935 18.1074 6.1019 18.1079ZM17.9383 18.1079C17.612 18.1079 17.2929 18.0111 17.0216 17.8298C16.7503 17.6485 16.5388 17.3908 16.4139 17.0893C16.289 16.7878 16.2563 16.4561 16.32 16.136C16.3837 15.8159 16.5408 15.5219 16.7716 15.2912C17.0023 15.0604 17.2963 14.9033 17.6164 14.8396C17.9365 14.7759 18.2682 14.8086 18.5697 14.9335C18.8712 15.0584 19.1289 15.2699 19.3102 15.5412C19.4915 15.8126 19.5883 16.1316 19.5883 16.4579C19.5878 16.8954 19.4138 17.3147 19.1045 17.6241C18.7951 17.9334 18.3758 18.1074 17.9383 18.1079Z" fill="black"/>
</svg>
