<svg width="24" height="24" viewBox="0 0 24 24" fill="none" xmlns="http://www.w3.org/2000/svg">
<path d="M9.2292 6.72939C9.77635 6.72885 10.3107 6.56363 10.7626 6.25522C11.2146 5.94681 11.5632 5.50949 11.7632 5.00019H12.3232L13.5 4.14399L14.5 5.00019L15.5 4.14399L16.5 5.00019L17.5 4.14399V3.00019H11.7632C11.581 2.53907 11.2765 2.13636 10.8825 1.83537C10.4885 1.53438 10.0199 1.3465 9.52709 1.29195C9.03428 1.2374 8.53593 1.31823 8.08564 1.52575C7.63534 1.73328 7.25015 2.05964 6.97149 2.46974C6.69282 2.87984 6.53124 3.35815 6.50412 3.85322C6.477 4.34829 6.58536 4.84139 6.81756 5.27947C7.04975 5.71756 7.39699 6.08405 7.82192 6.33952C8.24685 6.59499 8.73339 6.72978 9.2292 6.72939ZM8.2778 3.25019C8.42614 3.25019 8.57114 3.29418 8.69448 3.37659C8.81781 3.459 8.91394 3.57613 8.97071 3.71318C9.02748 3.85022 9.04233 4.00102 9.01339 4.14651C8.98445 4.29199 8.91302 4.42563 8.80813 4.53052C8.70324 4.63541 8.5696 4.70684 8.42412 4.73578C8.27863 4.76472 8.12783 4.74987 7.99079 4.6931C7.85374 4.63633 7.73661 4.54021 7.6542 4.41687C7.57179 4.29353 7.5278 4.14853 7.5278 4.00019C7.5278 3.80128 7.60682 3.61051 7.74747 3.46986C7.88812 3.32921 8.07889 3.25019 8.2778 3.25019ZM15.7024 15.9925C15.5004 15.9925 15.3028 16.0524 15.1349 16.1647C14.9669 16.277 14.8359 16.4365 14.7586 16.6232C14.6813 16.8099 14.6611 17.0153 14.7005 17.2135C14.74 17.4116 14.8373 17.5936 14.9802 17.7365C15.123 17.8794 15.3051 17.9767 15.5032 18.0161C15.7014 18.0555 15.9068 18.0352 16.0935 17.9579C16.2801 17.8806 16.4397 17.7497 16.5519 17.5817C16.6642 17.4137 16.7241 17.2161 16.7241 17.0141C16.7241 16.8799 16.6977 16.7471 16.6464 16.6231C16.595 16.4991 16.5198 16.3865 16.4249 16.2916C16.33 16.1968 16.2174 16.1215 16.0934 16.0702C15.9694 16.0189 15.8366 15.9925 15.7024 15.9925ZM8.2976 15.9925C8.09555 15.9925 7.89805 16.0524 7.73006 16.1647C7.56207 16.277 7.43114 16.4365 7.35384 16.6232C7.27653 16.8099 7.25631 17.0153 7.29574 17.2135C7.33517 17.4116 7.43248 17.5936 7.57536 17.7365C7.71823 17.8794 7.90026 17.9767 8.09843 18.0161C8.2966 18.0555 8.50201 18.0352 8.68867 17.9579C8.87534 17.8806 9.03489 17.7497 9.14714 17.5817C9.25939 17.4137 9.3193 17.2161 9.3193 17.0141C9.31931 16.8799 9.29289 16.7471 9.24155 16.6231C9.19021 16.4991 9.11495 16.3865 9.02007 16.2916C8.9252 16.1968 8.81256 16.1215 8.6886 16.0702C8.56463 16.0189 8.43177 15.9925 8.2976 15.9925ZM21 13.3189H19.0542C18.8664 12.2812 18.6135 11.2563 18.2969 10.2503C18.1804 9.88727 17.9517 9.5706 17.6437 9.34593C17.3357 9.12126 16.9643 9.0002 16.583 9.00019H7.417C7.03576 9.00019 6.66437 9.12124 6.35635 9.34589C6.04833 9.57054 5.81959 9.88719 5.7031 10.2502C5.38655 11.2562 5.13361 12.2811 4.9458 13.3188H3V14.7216L4.6565 15.2968C4.55791 16.174 4.50567 17.0557 4.5 17.9384V21.9339C4.5 22.1089 4.56954 22.2768 4.69331 22.4006C4.81708 22.5244 4.98496 22.5939 5.16 22.5939H5.84C6.01504 22.5939 6.18292 22.5244 6.30669 22.4006C6.43046 22.2768 6.5 22.1089 6.5 21.9339V21.0002H17.5V21.9339C17.5 22.1089 17.5695 22.2768 17.6933 22.4006C17.8171 22.5244 17.985 22.5939 18.16 22.5939H18.84C19.015 22.5939 19.1829 22.5244 19.3067 22.4006C19.4305 22.2768 19.5 22.1089 19.5 21.9339V17.9384C19.4943 17.0558 19.4421 16.174 19.3435 15.2969L21 14.7217V13.3189ZM7.417 10.8002H16.583C16.8424 11.6273 17.0556 12.4681 17.2217 13.3189H6.7783C6.94435 12.4681 7.15758 11.6273 7.417 10.8002ZM17.7 19.2002H6.3V17.9384C6.30567 16.9956 6.36838 16.0541 6.4878 15.1189H17.5122C17.6316 16.0541 17.6943 16.9956 17.7 17.9384V19.2002Z" fill="black"/>
</svg>
