<svg width="24" height="24" viewBox="0 0 24 24" fill="none" xmlns="http://www.w3.org/2000/svg">
<g clip-path="url(#clip0)">
<path d="M24 13.4467C24.0028 13.1175 23.9188 12.7933 23.7564 12.5068C23.5941 12.2204 23.3591 11.9818 23.0751 11.8151C21.4111 11.0047 19.5943 10.5562 17.7443 10.4992L15.0319 7.83542C14.3776 7.19279 13.4971 6.83266 12.58 6.83252H8.1341C7.5346 6.83251 6.94115 6.95229 6.38859 7.18483C5.83603 7.41736 5.3355 7.75796 4.9164 8.18662L2.6556 10.4991H1.6C1.17565 10.4991 0.768687 10.6677 0.468629 10.9677C0.168571 11.2678 0 11.6748 0 12.0991L0 16.2L2.3312 16.7889C2.39715 17.3123 2.64556 17.7956 3.03272 18.1538C3.41988 18.5121 3.92098 18.7223 4.44786 18.7475C4.97474 18.7727 5.49363 18.6113 5.91324 18.2917C6.33284 17.9721 6.62627 17.5147 6.7419 17H17.1168C17.229 17.497 17.5069 17.9411 17.9049 18.2593C18.3029 18.5775 18.7973 18.7508 19.3068 18.7508C19.8163 18.7508 20.3107 18.5775 20.7087 18.2593C21.1067 17.9411 21.3846 17.497 21.4968 17H24V13.4467ZM5.2739 8.53622C5.64719 8.15624 6.09223 7.85417 6.58318 7.64754C7.07414 7.44091 7.60124 7.33383 8.1339 7.33252H12.58C13.3667 7.33082 14.1221 7.63991 14.682 8.19252L17.0311 10.4995H3.3548L5.2739 8.53622ZM4.5521 18.25C4.20598 18.25 3.86764 18.1474 3.57985 17.9551C3.29207 17.7628 3.06776 17.4895 2.93531 17.1697C2.80286 16.8499 2.7682 16.4981 2.83573 16.1586C2.90325 15.8191 3.06992 15.5073 3.31466 15.2626C3.55941 15.0178 3.87123 14.8512 4.21069 14.7836C4.55016 14.7161 4.90203 14.7508 5.2218 14.8832C5.54157 15.0157 5.81488 15.24 6.00717 15.5278C6.19946 15.8156 6.3021 16.1539 6.3021 16.5C6.3016 16.964 6.11706 17.4088 5.78898 17.7369C5.4609 18.065 5.01607 18.2495 4.5521 18.25ZM19.3066 18.25C18.9605 18.25 18.6221 18.1474 18.3344 17.9551C18.0466 17.7628 17.8223 17.4895 17.6898 17.1697C17.5574 16.8499 17.5227 16.4981 17.5902 16.1586C17.6577 15.8191 17.8244 15.5073 18.0692 15.2626C18.3139 15.0178 18.6257 14.8512 18.9652 14.7836C19.3047 14.7161 19.6565 14.7508 19.9763 14.8832C20.2961 15.0157 20.5694 15.24 20.7617 15.5278C20.954 15.8156 21.0566 16.1539 21.0566 16.5C21.0561 16.964 20.8716 17.4088 20.5435 17.7369C20.2154 18.065 19.7706 18.2495 19.3066 18.25ZM23.5 16.5H21.5566C21.5566 15.9033 21.3195 15.331 20.8976 14.909C20.4756 14.4871 19.9033 14.25 19.3066 14.25C18.7099 14.25 18.1376 14.4871 17.7156 14.909C17.2937 15.331 17.0566 15.9033 17.0566 16.5H6.8021C6.80376 15.9235 6.5835 15.3685 6.18699 14.9501C5.79047 14.5316 5.24812 14.2818 4.67239 14.2525C4.09666 14.2231 3.53171 14.4164 3.09469 14.7924C2.65766 15.1683 2.38209 15.6981 2.3251 16.2717L0.5 15.8106V12.0992C0.500318 11.8076 0.616312 11.528 0.822533 11.3218C1.02875 11.1155 1.30836 10.9995 1.6 10.9992H17.7236C19.493 11.0547 21.2311 11.4804 22.8259 12.2487C23.0334 12.3718 23.2049 12.5473 23.3232 12.7575C23.4415 12.9678 23.5025 13.2055 23.5 13.4467V16.5Z" fill="black"/>
</g>
<defs>
<clipPath id="clip0">
<rect width="24" height="24" fill="white"/>
</clipPath>
</defs>
</svg>
