<svg width="24" height="24" viewBox="0 0 24 24" fill="none" xmlns="http://www.w3.org/2000/svg">
<g clip-path="url(#clip0)">
<path d="M23.9368 17V12.87C23.9371 12.5018 23.8358 12.1406 23.644 11.8263C23.4523 11.5119 23.1775 11.2566 22.85 11.0883C21.552 10.4428 20.1347 10.0723 18.6868 10L15.98 6.7518C15.6046 6.30131 15.1347 5.93886 14.6037 5.69014C14.0726 5.44141 13.4934 5.31249 12.907 5.3125H8.62C7.9512 5.31244 7.29079 5.46146 6.68682 5.74872C6.08285 6.03597 5.5505 6.45424 5.1285 6.9731L2.6667 10H1.8758C1.37831 10 0.90119 10.1976 0.549409 10.5494C0.197628 10.9012 0 11.3783 0 11.8758L0 16.5L2.0558 16.8246C2.18044 17.4964 2.53132 18.1053 3.05008 18.55C3.56884 18.9947 4.22421 19.2484 4.90717 19.2689C5.59014 19.2894 6.25954 19.0754 6.80403 18.6627C7.34853 18.2499 7.73529 17.6631 7.9 17H16.218C16.3782 17.6482 16.7509 18.224 17.2766 18.6356C17.8023 19.0472 18.4507 19.2709 19.1183 19.2709C19.786 19.2709 20.4344 19.0472 20.9601 18.6356C21.4858 18.224 21.8585 17.6482 22.0187 17H23.9368ZM6.6025 8.1719C6.84587 7.87156 7.15339 7.62951 7.50249 7.46349C7.8516 7.29748 8.23343 7.21172 8.62 7.2125H12.907C13.2149 7.21211 13.5191 7.27963 13.798 7.41023C14.0768 7.54083 14.3235 7.73131 14.5203 7.9681L16.2136 10H5.1157L6.6025 8.1719ZM5 17.5708C4.74288 17.5708 4.49154 17.4946 4.27776 17.3517C4.06397 17.2089 3.89735 17.0058 3.79896 16.7683C3.70056 16.5307 3.67482 16.2694 3.72498 16.0172C3.77514 15.765 3.89895 15.5334 4.08076 15.3516C4.26257 15.1698 4.49421 15.0459 4.74638 14.9958C4.99856 14.9456 5.25994 14.9714 5.49749 15.0698C5.73503 15.1682 5.93807 15.3348 6.08091 15.5486C6.22376 15.7623 6.3 16.0137 6.3 16.2708C6.29963 16.6155 6.16255 16.9459 5.91883 17.1896C5.67511 17.4333 5.34467 17.5704 5 17.5708ZM19.1183 17.5708C18.8612 17.5708 18.6098 17.4946 18.3961 17.3517C18.1823 17.2089 18.0157 17.0058 17.9173 16.7683C17.8189 16.5307 17.7931 16.2694 17.8433 16.0172C17.8934 15.765 18.0173 15.5334 18.1991 15.3516C18.3809 15.1698 18.6125 15.0459 18.8647 14.9958C19.1169 14.9456 19.3782 14.9714 19.6158 15.0698C19.8533 15.1682 20.0564 15.3348 20.1992 15.5486C20.3421 15.7623 20.4183 16.0137 20.4183 16.2708C20.4179 16.6155 20.2808 16.9459 20.0371 17.1896C19.7934 17.4333 19.463 17.5704 19.1183 17.5708Z" fill="black"/>
</g>
<defs>
<clipPath id="clip0">
<rect width="24" height="24" fill="white"/>
</clipPath>
</defs>
</svg>
