<svg width="24" height="24" viewBox="0 0 24 24" fill="none" xmlns="http://www.w3.org/2000/svg">
<g clip-path="url(#clip0)">
<path d="M8.6667 20.3331H20.3646L21 19.3998H8.6667V20.3331ZM23.5333 4.06646H0.466695C0.404839 4.06555 0.34342 4.07695 0.28601 4.1C0.2286 4.12304 0.176344 4.15727 0.132281 4.20069C0.0882189 4.24412 0.0532288 4.29586 0.029346 4.35293C0.00546309 4.41 -0.00683594 4.47124 -0.00683594 4.53311C-0.00683594 4.59497 0.00546309 4.65621 0.029346 4.71328C0.0532288 4.77035 0.0882189 4.8221 0.132281 4.86552C0.176344 4.90894 0.2286 4.94317 0.28601 4.96622C0.34342 4.98926 0.404839 5.00066 0.466695 4.99976H11.5332V7.99976H3.5208L2.6458 5.99976H-4.57605e-06L0.964895 11.6248H7.6484L10 16.9998H19.16C19.722 16.9998 20.2713 16.833 20.7385 16.5205C21.2056 16.2081 21.5696 15.7641 21.7842 15.2447C21.9988 14.7253 22.0545 14.1539 21.9441 13.6028C21.8338 13.0518 21.5624 12.5459 21.1643 12.1492L17.5854 8.58306C17.2105 8.20949 16.7028 7.99974 16.1736 7.99976H12.4668V4.99976H23.5333C23.5952 5.00066 23.6566 4.98926 23.714 4.96622C23.7714 4.94317 23.8236 4.90894 23.8677 4.86552C23.9118 4.8221 23.9468 4.77035 23.9706 4.71328C23.9945 4.65621 24.0068 4.59497 24.0068 4.53311C24.0068 4.47124 23.9945 4.41 23.9706 4.35293C23.9468 4.29586 23.9118 4.24412 23.8677 4.20069C23.8236 4.15727 23.7714 4.12304 23.714 4.1C23.6566 4.07695 23.5952 4.06555 23.5333 4.06646ZM13.7921 8.99976H16.1736C16.3047 8.99942 16.4345 9.02501 16.5557 9.07505C16.6768 9.1251 16.7869 9.19861 16.8795 9.29136L19.9753 12.3765H15.5553C15.3237 12.3765 15.0944 12.3308 14.8804 12.2422C14.6665 12.1536 14.4721 12.0237 14.3083 11.8599C14.1446 11.6962 14.0147 11.5018 13.9261 11.2878C13.8375 11.0739 13.7919 10.8445 13.7919 10.613L13.7921 8.99976Z" fill="black"/>
</g>
<defs>
<clipPath id="clip0">
<rect width="24" height="24" fill="white"/>
</clipPath>
</defs>
</svg>
