<svg width="24" height="24" viewBox="0 0 24 24" fill="none" xmlns="http://www.w3.org/2000/svg">
<path d="M21.4951 16.9998V13.7787C21.4951 13.7333 21.4903 13.3301 21.4811 13.2867C21.463 12.978 21.3716 12.6779 21.2143 12.4116C21.057 12.1453 20.8384 11.9203 20.5767 11.7554C19.7382 11.2066 18.8177 10.7948 17.8497 10.5354L14.9728 7.21734C14.6919 6.88374 14.3414 6.61557 13.946 6.43161C13.5506 6.24764 13.1197 6.15233 12.6836 6.15234H4.77078L2.91078 9.89894C2.70489 10.3135 2.59777 10.7701 2.59778 11.233V16.1998L3.59888 16.5552C3.64506 17.2075 3.92314 17.8217 4.38283 18.2867C4.84251 18.7517 5.45344 19.0369 6.10512 19.0906C6.75679 19.1443 7.40617 18.9631 7.93579 18.5796C8.46542 18.1961 8.84032 17.6357 8.99268 16.9998H15.1027C15.2462 17.5985 15.5871 18.1315 16.0705 18.5127C16.5539 18.8939 17.1516 19.1013 17.7672 19.1013C18.3829 19.1013 18.9806 18.8939 19.464 18.5127C19.9474 18.1315 20.2883 17.5985 20.4318 16.9998H21.4951ZM5.68828 7.58564H12.6836C13.0501 7.58488 13.4033 7.72331 13.6718 7.97294L15.8777 10.4998H4.27918L5.68828 7.58564ZM6.32828 17.8003C6.0415 17.8003 5.76115 17.7153 5.5227 17.556C5.28425 17.3966 5.0984 17.1702 4.98865 16.9052C4.87891 16.6403 4.85019 16.3487 4.90614 16.0675C4.96209 15.7862 5.10019 15.5278 5.30297 15.325C5.50576 15.1223 5.76413 14.9842 6.0454 14.9282C6.32667 14.8723 6.61822 14.901 6.88317 15.0107C7.14812 15.1205 7.37458 15.3063 7.53391 15.5448C7.69324 15.7832 7.77828 16.0636 7.77828 16.3503C7.77785 16.7348 7.62494 17.1034 7.35308 17.3752C7.08122 17.6471 6.71263 17.7999 6.32818 17.8003H6.32828ZM17.7674 17.8003C17.4806 17.8003 17.2003 17.7153 16.9618 17.556C16.7233 17.3966 16.5375 17.1702 16.4278 16.9052C16.318 16.6403 16.2893 16.3487 16.3452 16.0675C16.4012 15.7862 16.5393 15.5278 16.7421 15.325C16.9449 15.1223 17.2032 14.9842 17.4845 14.9282C17.7658 14.8723 18.0573 14.901 18.3223 15.0107C18.5872 15.1205 18.8137 15.3063 18.973 15.5448C19.1323 15.7832 19.2174 16.0636 19.2174 16.3503C19.217 16.7348 19.064 17.1034 18.7922 17.3752C18.5203 17.6471 18.1517 17.7999 17.7673 17.8003H17.7674Z" fill="black"/>
</svg>
