<svg width="24" height="24" viewBox="0 0 24 24" fill="none" xmlns="http://www.w3.org/2000/svg">
<g clip-path="url(#clip0)">
<path d="M24 16.9998V12.4758C24.0015 12.1317 23.9088 11.7938 23.7319 11.4986C23.555 11.2034 23.3007 10.9623 22.9966 10.8013C21.4277 10.0034 19.7029 9.55914 17.9437 9.49984L15.3421 6.77874C14.9844 6.40304 14.554 6.10393 14.0772 5.89956C13.6004 5.69519 13.087 5.58982 12.5682 5.58984H8.5982C7.9277 5.58983 7.26455 5.72941 6.65095 5.99971C6.03735 6.27001 5.48675 6.66511 5.0342 7.15984L2.8852 9.49984H1.7839C1.31083 9.49984 0.857136 9.68775 0.522598 10.0222C0.188061 10.3567 7.95562e-05 10.8104 0 11.2834L0 16.1998L2.7148 16.8857C2.86493 17.4128 3.1798 17.8781 3.61334 18.2134C4.04689 18.5487 4.57635 18.7364 5.12426 18.7492C5.67218 18.7619 6.2098 18.599 6.65847 18.2842C7.10714 17.9695 7.44331 17.5194 7.6178 16.9998H16.1332C16.3044 17.5097 16.6315 17.9529 17.0682 18.2669C17.5049 18.5809 18.0291 18.7498 18.567 18.7498C19.1049 18.7498 19.6291 18.5809 20.0658 18.2669C20.5025 17.9529 20.8296 17.5097 21.0008 16.9998H24ZM6.1172 8.15414C6.43227 7.80983 6.81547 7.53476 7.24248 7.34638C7.66949 7.158 8.13099 7.06043 8.5977 7.05984H12.5684C12.8878 7.06051 13.2037 7.12574 13.4972 7.2516C13.7907 7.37746 14.0558 7.56136 14.2764 7.79224L16.0164 9.61224H4.778L6.1172 8.15414ZM1.47 11.283C1.47032 11.1998 1.50359 11.1201 1.56253 11.0614C1.62147 11.0026 1.70128 10.9696 1.7845 10.9695H17.881C19.4233 11.0192 20.9359 11.4062 22.3125 12.1033C22.3794 12.1394 22.4352 12.1932 22.4736 12.2588C22.512 12.3245 22.5316 12.3994 22.5303 12.4754V15.5298H21.062C20.9227 14.9736 20.6015 14.4799 20.1494 14.1272C19.6974 13.7744 19.1404 13.5828 18.567 13.5828C17.9936 13.5828 17.4366 13.7744 16.9846 14.1272C16.5325 14.4799 16.2113 14.9736 16.072 15.5298H7.679C7.54348 14.9871 7.23456 14.5035 6.79915 14.1523C6.36374 13.8012 5.82563 13.6017 5.26654 13.5842C4.70744 13.5667 4.1579 13.7321 3.70138 14.0553C3.24486 14.3786 2.9063 14.842 2.7371 15.3751L1.4697 15.0551L1.47 11.283ZM5.184 17.4164C4.93677 17.4164 4.6951 17.3431 4.48954 17.2058C4.28398 17.0684 4.12376 16.8732 4.02915 16.6448C3.93454 16.4164 3.90979 16.1651 3.95802 15.9226C4.00625 15.6801 4.1253 15.4574 4.30012 15.2826C4.47493 15.1077 4.69766 14.9887 4.94014 14.9405C5.18261 14.8922 5.43395 14.917 5.66235 15.0116C5.89076 15.1062 6.08599 15.2664 6.22334 15.472C6.36069 15.6775 6.434 15.9192 6.434 16.1664C6.43363 16.4978 6.30181 16.8156 6.06747 17.0499C5.83313 17.2843 5.51541 17.4161 5.184 17.4164ZM18.567 17.4164C18.3198 17.4164 18.0781 17.3431 17.8725 17.2058C17.667 17.0684 17.5068 16.8732 17.4122 16.6448C17.3175 16.4164 17.2928 16.1651 17.341 15.9226C17.3892 15.6801 17.5083 15.4574 17.6831 15.2826C17.8579 15.1077 18.0807 14.9887 18.3231 14.9405C18.5656 14.8922 18.8169 14.917 19.0454 15.0116C19.2738 15.1062 19.469 15.2664 19.6063 15.472C19.7437 15.6775 19.817 15.9192 19.817 16.1664C19.8166 16.4978 19.6848 16.8156 19.4505 17.0499C19.2161 17.2843 18.8984 17.4161 18.567 17.4164Z" fill="black"/>
</g>
<defs>
<clipPath id="clip0">
<rect width="24" height="24" fill="white"/>
</clipPath>
</defs>
</svg>
