<svg width="24" height="24" viewBox="0 0 24 24" fill="none" xmlns="http://www.w3.org/2000/svg">
<path d="M21.3521 14.0002H19.1881C18.9874 12.7293 18.6894 11.4756 18.2969 10.2502C18.1804 9.8872 17.9516 9.57055 17.6436 9.34589C17.3356 9.12124 16.9641 9.00021 16.5829 9.00022H7.41709C7.03583 9.00021 6.66442 9.12124 6.35638 9.34589C6.04834 9.57055 5.81958 9.8872 5.70309 10.2502C5.31055 11.4756 5.01261 12.7293 4.81189 14.0002H2.64789V15.403L4.57249 16.0712C4.52629 16.692 4.49999 17.3146 4.49999 17.9384V21.9339C4.49999 22.109 4.56952 22.2768 4.6933 22.4006C4.81707 22.5244 4.98495 22.5939 5.15999 22.5939H5.83999C6.01503 22.5939 6.1829 22.5244 6.30668 22.4006C6.43045 22.2768 6.49999 22.109 6.49999 21.9339V21.0002H17.5V21.9339C17.5 22.109 17.5695 22.2768 17.6933 22.4006C17.8171 22.5244 17.9849 22.5939 18.16 22.5939H18.84C19.015 22.5939 19.1829 22.5244 19.3067 22.4006C19.4305 22.2768 19.5 22.109 19.5 21.9339V17.9384C19.5 17.3146 19.4737 16.6919 19.4275 16.0712L21.3521 15.403V14.0002ZM7.41709 10.8002H16.5829C16.9154 11.8474 17.1735 12.9167 17.3555 14.0002H6.64449C6.82645 12.9167 7.08462 11.8474 7.41709 10.8002ZM7.29759 18.1602C7.09553 18.1602 6.89802 18.1003 6.73002 17.9881C6.56202 17.8758 6.43108 17.7162 6.35375 17.5296C6.27643 17.3429 6.2562 17.1375 6.29562 16.9393C6.33504 16.7412 6.43233 16.5591 6.57521 16.4162C6.71808 16.2734 6.90011 16.1761 7.09828 16.1367C7.29645 16.0972 7.50186 16.1175 7.68854 16.1948C7.87521 16.2721 8.03476 16.4031 8.14702 16.5711C8.25927 16.7391 8.31919 16.9366 8.31919 17.1386C8.31925 17.2728 8.29288 17.4057 8.24157 17.5297C8.19026 17.6537 8.11502 17.7664 8.02014 17.8613C7.92527 17.9562 7.81263 18.0315 7.68865 18.0829C7.56467 18.1343 7.43179 18.1607 7.29759 18.1607V18.1602ZM16.7024 18.1602C16.5003 18.1602 16.3028 18.1003 16.1348 17.9881C15.9668 17.8758 15.8359 17.7162 15.7586 17.5296C15.6812 17.3429 15.661 17.1375 15.7004 16.9393C15.7398 16.7412 15.8371 16.5591 15.98 16.4162C16.1229 16.2734 16.3049 16.1761 16.5031 16.1367C16.7013 16.0972 16.9067 16.1175 17.0933 16.1948C17.28 16.2721 17.4396 16.4031 17.5518 16.5711C17.6641 16.7391 17.724 16.9366 17.724 17.1386C17.7241 17.2728 17.6977 17.4057 17.6464 17.5297C17.5951 17.6537 17.5198 17.7664 17.4249 17.8613C17.3301 17.9562 17.2174 18.0315 17.0935 18.0829C16.9695 18.1343 16.8366 18.1607 16.7024 18.1607V18.1602ZM16.2427 4.64022L17.6569 3.22602C16.1554 1.728 14.121 0.886719 12 0.886719C9.879 0.886719 7.8446 1.728 6.34309 3.22602L7.75739 4.64022C8.88346 3.51661 10.4093 2.88558 12 2.88558C13.5908 2.88558 15.1166 3.51661 16.2427 4.64022ZM10.5858 7.46832C10.9611 7.0938 11.4697 6.88346 12 6.88346C12.5302 6.88346 13.0388 7.0938 13.4142 7.46832L14.8284 6.05402C14.0777 5.30497 13.0605 4.8843 12 4.8843C10.9395 4.8843 9.9223 5.30497 9.17159 6.05402L10.5858 7.46832Z" fill="black"/>
</svg>
