<svg width="24" height="24" viewBox="0 0 24 24" fill="none" xmlns="http://www.w3.org/2000/svg">
<path d="M20 3.81556C19.7658 3.81556 19.5368 3.88502 19.342 4.01515C19.1473 4.14529 18.9955 4.33025 18.9059 4.54665C18.8162 4.76305 18.7928 5.00118 18.8385 5.23091C18.8842 5.46064 18.9969 5.67166 19.1626 5.83729C19.3282 6.00292 19.5392 6.11571 19.769 6.16141C19.9987 6.2071 20.2368 6.18365 20.4532 6.09401C20.6696 6.00438 20.8546 5.85258 20.9847 5.65782C21.1148 5.46307 21.1843 5.2341 21.1843 4.99986C21.1843 4.68577 21.0595 4.38454 20.8374 4.16244C20.6153 3.94034 20.3141 3.81556 20 3.81556ZM20 5.73416C19.8548 5.73414 19.7128 5.69106 19.5921 5.61036C19.4713 5.52966 19.3772 5.41498 19.3217 5.2808C19.2661 5.14662 19.2516 4.99898 19.2799 4.85655C19.3083 4.71411 19.3782 4.58328 19.4809 4.4806C19.5836 4.37792 19.7144 4.30799 19.8569 4.27966C19.9993 4.25134 20.147 4.26589 20.2811 4.32147C20.4153 4.37705 20.53 4.47117 20.6107 4.59192C20.6913 4.71267 20.7344 4.85464 20.7344 4.99986C20.7341 5.19455 20.6567 5.38118 20.519 5.51883C20.3813 5.65649 20.1947 5.73392 20 5.73416ZM22.6592 4.61806L23.812 3.80546C23.6426 3.24126 23.3441 2.72427 22.9402 2.29546L21.6602 2.88746L20.9988 2.50556L20.8714 1.10106C20.2982 0.965661 19.7014 0.965661 19.1282 1.10106L19.001 2.50596L18.3398 2.88776L17.0598 2.29576C16.656 2.72458 16.3576 3.24158 16.1884 3.80576L17.341 4.61816V5.38186L16.1882 6.19436C16.3576 6.75857 16.6561 7.27557 17.06 7.70436L18.34 7.11236L19.0012 7.49416L19.1286 8.89876C19.7018 9.03416 20.2986 9.03416 20.8718 8.89876L20.9992 7.49426L21.66 7.11186L22.94 7.70386C23.3438 7.27507 23.6422 6.75806 23.8114 6.19386L22.6588 5.38136L22.6592 4.61806ZM23.2734 6.36516C23.1601 6.64772 23.0072 6.91268 22.8191 7.15206L21.8491 6.70346L21.6375 6.60546L21.4353 6.72216L20.7739 7.10396L20.5718 7.22066L20.5508 7.45306L20.4543 8.51726C20.153 8.56053 19.847 8.56053 19.5457 8.51726L19.4492 7.45296L19.4282 7.22056L19.2261 7.10386L18.5647 6.72206L18.3625 6.60536L18.1509 6.70336L17.1809 7.15186C16.9927 6.9126 16.8397 6.64761 16.7266 6.36496L17.6 5.74986L17.7907 5.61536V4.38536L17.6 4.24986L16.7265 3.63436C16.8398 3.35181 16.9927 3.08684 17.1808 2.84746L18.1508 3.29606L18.3624 3.39396L18.5646 3.27726L19.226 2.89546L19.4281 2.77876L19.4491 2.54636L19.5456 1.48216C19.8469 1.43896 20.1529 1.43896 20.4542 1.48216L20.5507 2.54636L20.5717 2.77876L20.7738 2.89546L21.4352 3.27736L21.6374 3.39406L21.849 3.29606L22.819 2.84746C23.0071 3.08674 23.1601 3.35169 23.2733 3.63426L22.4 4.24986L22.2093 4.38426V5.61426L22.4 5.74986L23.2734 6.36516ZM17.1458 10.5258C17.0396 10.0905 16.7904 9.70356 16.438 9.42687C16.0856 9.15019 15.6506 8.99982 15.2026 8.99986H6.0317C5.58372 8.99984 5.1487 9.15022 4.79637 9.4269C4.44403 9.70359 4.1948 10.0905 4.0886 10.5258C3.93094 11.1724 3.79277 11.8227 3.6741 12.4766H1.4978V13.9752L3.3369 14.804C3.19277 16.0663 3.11932 17.3357 3.1169 18.6063V21.9336C3.1169 22.1086 3.18644 22.2765 3.31021 22.4003C3.43399 22.524 3.60186 22.5936 3.7769 22.5936H4.7869C4.87358 22.5936 4.9594 22.5765 5.03947 22.5433C5.11955 22.5102 5.19231 22.4615 5.25359 22.4003C5.31488 22.339 5.3635 22.2662 5.39666 22.1861C5.42983 22.1061 5.4469 22.0202 5.4469 21.9336V20.9999H15.7869V21.9336C15.7869 22.1086 15.8564 22.2765 15.9802 22.4003C16.104 22.524 16.2719 22.5936 16.4469 22.5936H17.4569C17.6319 22.5936 17.7998 22.524 17.9236 22.4003C18.0474 22.2765 18.1169 22.1086 18.1169 21.9336V18.6063C18.1145 17.3357 18.041 16.0663 17.8969 14.804L19.736 13.9752V12.4766H17.56C17.4406 11.823 17.3025 11.1727 17.1458 10.5258ZM4.5745 10.6444C4.65352 10.3176 4.84026 10.027 5.10462 9.8194C5.36898 9.61177 5.69555 9.49921 6.0317 9.49986H15.2026C15.5388 9.49914 15.8654 9.61168 16.1298 9.81931C16.3942 10.0269 16.581 10.3176 16.66 10.6444C16.9541 11.8598 17.1801 13.0908 17.337 14.3315H3.8975C4.05434 13.0908 4.28035 11.8598 4.5745 10.6444ZM3.3992 14.2837L1.9978 13.6521V12.9766H3.5959C3.5232 13.4113 3.4551 13.8466 3.3992 14.2837ZM19.2366 12.9766V13.6521L17.8352 14.2837C17.7793 13.8466 17.7112 13.4113 17.6384 12.9766H19.2366ZM17.6187 19.9059V20.7499H17.6172V21.9336C17.6172 21.976 17.6003 22.0167 17.5703 22.0467C17.5403 22.0767 17.4996 22.0936 17.4572 22.0936H16.4472C16.4048 22.0936 16.3641 22.0767 16.3341 22.0467C16.3041 22.0167 16.2872 21.976 16.2872 21.9336V20.7499H16.2857V20.4999H4.9487V20.7499H4.9473V21.9336C4.9473 21.976 4.93045 22.0167 4.90044 22.0467C4.87043 22.0767 4.82974 22.0936 4.7873 22.0936H3.7773C3.73487 22.0936 3.69417 22.0767 3.66417 22.0467C3.63416 22.0167 3.6173 21.976 3.6173 21.9336V20.7499H3.6157V19.9059H3.6172V18.6059C3.61942 17.3445 3.6926 16.0842 3.8364 14.8311H17.3979C17.5418 16.0842 17.615 17.3445 17.6172 18.6059V19.9059H17.6187ZM15.3828 15.9999C15.1387 15.9999 14.9 16.0723 14.697 16.2079C14.494 16.3435 14.3358 16.5363 14.2424 16.7619C14.1489 16.9874 14.1245 17.2356 14.1721 17.4751C14.2198 17.7145 14.3373 17.9345 14.51 18.1071C14.6826 18.2797 14.9025 18.3973 15.142 18.4449C15.3814 18.4926 15.6296 18.4681 15.8552 18.3747C16.0807 18.2813 16.2735 18.1231 16.4092 17.9201C16.5448 17.7171 16.6172 17.4784 16.6172 17.2343C16.6172 16.9069 16.4871 16.5929 16.2556 16.3614C16.0241 16.1299 15.7102 15.9999 15.3828 15.9999ZM15.3828 17.9687C15.2376 17.9687 15.0956 17.9256 14.9748 17.8449C14.854 17.7642 14.7599 17.6495 14.7043 17.5153C14.6487 17.3811 14.6342 17.2334 14.6625 17.091C14.6909 16.9485 14.7608 16.8177 14.8635 16.715C14.9662 16.6123 15.0971 16.5423 15.2395 16.514C15.382 16.4856 15.5297 16.5002 15.6638 16.5558C15.798 16.6114 15.9127 16.7055 15.9934 16.8263C16.0741 16.947 16.1172 17.089 16.1172 17.2343C16.1169 17.429 16.0395 17.6156 15.9018 17.7533C15.7641 17.8909 15.5775 17.9684 15.3828 17.9687ZM5.8516 15.9999C5.60746 15.9998 5.36879 16.0722 5.16578 16.2078C4.96277 16.3435 4.80454 16.5363 4.71109 16.7618C4.61765 16.9874 4.59319 17.2356 4.64081 17.475C4.68843 17.7145 4.80598 17.9344 4.97861 18.1071C5.15124 18.2797 5.37119 18.3973 5.61065 18.4449C5.8501 18.4926 6.0983 18.4681 6.32386 18.3747C6.54943 18.2813 6.74222 18.1231 6.87786 17.9201C7.0135 17.7171 7.0859 17.4784 7.0859 17.2343C7.0859 16.9069 6.95586 16.5929 6.72439 16.3614C6.49292 16.13 6.17897 15.9999 5.8516 15.9999ZM5.8516 17.9687C5.70635 17.9687 5.56435 17.9256 5.44356 17.8449C5.32278 17.7643 5.22864 17.6496 5.17303 17.5154C5.11743 17.3812 5.10288 17.2335 5.1312 17.091C5.15953 16.9486 5.22946 16.8177 5.33217 16.715C5.43487 16.6123 5.56573 16.5423 5.70819 16.514C5.85065 16.4856 5.99832 16.5002 6.13252 16.5558C6.26672 16.6113 6.38143 16.7055 6.46213 16.8262C6.54283 16.947 6.5859 17.089 6.5859 17.2343C6.58564 17.4289 6.50819 17.6156 6.37055 17.7532C6.2329 17.8909 6.04628 17.9684 5.8516 17.9687Z" fill="black"/>
</svg>
