<svg width="24" height="24" viewBox="0 0 24 24" fill="none" xmlns="http://www.w3.org/2000/svg">
<path d="M23 14.4466C23.0028 14.1173 22.9188 13.7932 22.7564 13.5067C22.5941 13.2203 22.3591 12.9817 22.0751 12.815C20.6954 11.9746 19.1154 11.5201 17.5 11.499L14.7876 8.8353C14.1812 8.24564 13.3814 7.89626 12.5367 7.8521L12.3233 6.7915H8.9185L8.7264 7.8562C7.60095 7.9096 6.53675 8.38437 5.7452 9.1862L3.4844 11.499H2.6C2.17565 11.499 1.76869 11.6676 1.46863 11.9676C1.16857 12.2677 1 12.6747 1 13.099V16.4164L3.3361 16.8464C3.41321 17.365 3.66956 17.8402 4.0606 18.1894C4.45165 18.5387 4.95268 18.7399 5.47666 18.7582C6.00064 18.7764 6.51446 18.6105 6.92885 18.2893C7.34323 17.9681 7.63201 17.5119 7.745 16.9999H16.3845C16.4952 17.4989 16.7729 17.9452 17.1716 18.2651C17.5702 18.585 18.0661 18.7594 18.5772 18.7594C19.0884 18.7594 19.5843 18.585 19.9829 18.2651C20.3816 17.9452 20.6593 17.4989 20.77 16.9999H23V14.4466ZM6.1028 9.5361C6.47608 9.15611 6.92111 8.85403 7.41207 8.6474C7.90303 8.44077 8.43013 8.3337 8.9628 8.3324H12.335C13.1217 8.3307 13.8772 8.63979 14.4371 9.1924L16.7862 11.4994H4.1837L6.1028 9.5361ZM5.5521 18.2599C5.20598 18.2599 4.86764 18.1573 4.57985 17.965C4.29207 17.7727 4.06776 17.4994 3.93531 17.1796C3.80286 16.8598 3.7682 16.508 3.83573 16.1685C3.90325 15.829 4.06992 15.5172 4.31466 15.2725C4.5594 15.0277 4.87123 14.8611 5.21069 14.7935C5.55016 14.726 5.90203 14.7607 6.2218 14.8931C6.54157 15.0256 6.81488 15.2499 7.00717 15.5377C7.19946 15.8254 7.3021 16.1638 7.3021 16.5099C7.3016 16.9739 7.11706 17.4187 6.78898 17.7468C6.4609 18.0749 6.01607 18.2594 5.5521 18.2599ZM18.5774 18.2599C18.2313 18.2599 17.8929 18.1573 17.6052 17.965C17.3174 17.7727 17.0931 17.4994 16.9606 17.1796C16.8282 16.8598 16.7935 16.508 16.861 16.1685C16.9285 15.829 17.0952 15.5172 17.34 15.2725C17.5847 15.0277 17.8965 14.8611 18.236 14.7935C18.5755 14.726 18.9273 14.7607 19.2471 14.8931C19.5669 15.0256 19.8402 15.2499 20.0325 15.5377C20.2248 15.8254 20.3274 16.1638 20.3274 16.5099C20.3269 16.9739 20.1424 17.4187 19.8143 17.7468C19.4862 18.0749 19.0414 18.2594 18.5774 18.2599Z" fill="black"/>
</svg>
