<svg width="24" height="24" viewBox="0 0 24 24" fill="none" xmlns="http://www.w3.org/2000/svg">
<path d="M24 11.9999L22.8448 8.9542C22.7005 8.57551 22.4445 8.2496 22.1108 8.01964C21.7771 7.78969 21.3814 7.66654 20.9761 7.6665H16.6667V13.9999H0V17.9999H1.2117C1.30807 18.5151 1.58154 18.9803 1.98477 19.3151C2.388 19.6499 2.8956 19.8332 3.4197 19.8332C3.9438 19.8332 4.4514 19.6499 4.85463 19.3151C5.25786 18.9803 5.53133 18.5151 5.6277 17.9999H5.6323C5.72867 18.5151 6.00214 18.9803 6.40537 19.3151C6.8086 19.6499 7.3162 19.8332 7.8403 19.8332C8.3644 19.8332 8.872 19.6499 9.27523 19.3151C9.67846 18.9803 9.95193 18.5151 10.0483 17.9999H17.5767C17.6731 18.5151 17.9465 18.9803 18.3498 19.3151C18.753 19.6499 19.2606 19.8332 19.7847 19.8332C20.3088 19.8332 20.8164 19.6499 21.2196 19.3151C21.6229 18.9803 21.8963 18.5151 21.9927 17.9999H24V11.9999ZM3.42 18.9332C3.153 18.9332 2.89199 18.854 2.66998 18.7057C2.44797 18.5573 2.27494 18.3465 2.17276 18.0998C2.07058 17.8531 2.04385 17.5817 2.09594 17.3198C2.14803 17.058 2.27661 16.8174 2.46541 16.6286C2.65421 16.4398 2.89475 16.3112 3.15663 16.2591C3.4185 16.2071 3.68994 16.2338 3.93662 16.336C4.1833 16.4381 4.39414 16.6112 4.54248 16.8332C4.69082 17.0552 4.77 17.3162 4.77 17.5832C4.7696 17.9411 4.62724 18.2843 4.37416 18.5374C4.12107 18.7904 3.77792 18.9328 3.42 18.9332ZM7.8406 18.9332C7.5736 18.9332 7.31259 18.854 7.09058 18.7057C6.86857 18.5573 6.69554 18.3465 6.59336 18.0998C6.49118 17.8531 6.46445 17.5817 6.51654 17.3198C6.56863 17.058 6.69721 16.8174 6.88601 16.6286C7.07481 16.4398 7.31535 16.3112 7.57723 16.2591C7.8391 16.2071 8.11054 16.2338 8.35722 16.336C8.6039 16.4381 8.81474 16.6112 8.96308 16.8332C9.11142 17.0552 9.1906 17.3162 9.1906 17.5832C9.1902 17.9412 9.04776 18.2845 8.79454 18.5376C8.54133 18.7907 8.19802 18.933 7.84 18.9332H7.8406ZM19.785 18.9332C19.518 18.9332 19.257 18.854 19.035 18.7057C18.813 18.5573 18.6399 18.3465 18.5378 18.0998C18.4356 17.8531 18.4088 17.5817 18.4609 17.3198C18.513 17.058 18.6416 16.8174 18.8304 16.6286C19.0192 16.4398 19.2598 16.3112 19.5216 16.2591C19.7835 16.2071 20.0549 16.2338 20.3016 16.336C20.5483 16.4381 20.7591 16.6112 20.9075 16.8332C21.0558 17.0552 21.135 17.3162 21.135 17.5832C21.1346 17.9412 20.9922 18.2844 20.7391 18.5375C20.4859 18.7906 20.1427 18.9329 19.7847 18.9332H19.785ZM17.6 11.9999V8.5999H20.9761C21.1912 8.59909 21.4015 8.66369 21.579 8.78514C21.7566 8.90658 21.893 9.07913 21.9702 9.2799L23.0028 11.9999H17.6Z" fill="black"/>
</svg>
