<svg width="24" height="24" viewBox="0 0 24 24" fill="none" xmlns="http://www.w3.org/2000/svg">
<path d="M22.6592 4.99395L23.8821 4.11565C23.7998 3.7248 23.6589 3.34865 23.4641 2.99995C23.2596 2.65683 23.0044 2.34665 22.707 2.07995L21.335 2.69995L21.3242 2.69385L21.1753 1.19575C20.4137 0.93475 19.5869 0.93475 18.8253 1.19575L18.6758 2.69395L18.665 2.69995L17.293 2.07995C16.9957 2.34669 16.7404 2.65686 16.5359 2.99995C16.3411 3.34861 16.2002 3.72473 16.1179 4.11555L17.3408 4.99385V5.00595L16.1179 5.88425C16.2002 6.27509 16.3411 6.65124 16.5359 6.99995C16.7404 7.34304 16.9957 7.65321 17.293 7.91995L18.665 7.29995L18.6758 7.30595L18.8247 8.80415C19.5863 9.06515 20.4131 9.06515 21.1747 8.80415L21.3239 7.30605L21.335 7.29995L22.707 7.91995C23.0043 7.65318 23.2595 7.34301 23.4641 6.99995C23.6589 6.65132 23.7998 6.27523 23.8821 5.88445L22.6592 5.00595V4.99395ZM23.0164 6.18595C22.909 6.49107 22.7458 6.77359 22.5352 7.01915L21.6436 6.61645L21.2836 6.46435L20.9508 6.65575L20.6166 6.84795L20.5785 7.23155L20.4814 8.20515C20.1635 8.26476 19.8373 8.26476 19.5194 8.20515L19.4223 7.23155L19.3737 6.84155L19.0391 6.64995L18.7063 6.45855L18.3563 6.61665L17.4647 7.01945C17.2541 6.77388 17.0909 6.49132 16.9835 6.18615L17.7782 5.61535L18.0907 5.37885V4.60915L17.7782 4.38465L16.9835 3.81395C17.0909 3.50878 17.2541 3.22622 17.4647 2.98065L18.3563 3.38345L18.7187 3.53635L19.0524 3.34245L19.384 3.14995L19.4219 2.76845L19.519 1.79485C19.8369 1.73538 20.1631 1.73538 20.481 1.79485L20.5781 2.76845L20.627 3.15925L20.9624 3.35125L21.2949 3.54125L21.6436 3.38365L22.5352 2.98095C22.7459 3.22646 22.909 3.50899 23.0164 3.81415L22.2217 4.38495L21.9092 4.62145V5.39085L22.2217 5.61535L23.0164 6.18595ZM20 4.24995C19.8517 4.24995 19.7067 4.29394 19.5833 4.37635C19.46 4.45876 19.3639 4.57589 19.3071 4.71294C19.2503 4.84998 19.2355 5.00078 19.2644 5.14627C19.2934 5.29175 19.3648 5.42539 19.4697 5.53028C19.5746 5.63517 19.7082 5.7066 19.8537 5.73554C19.9992 5.76448 20.15 5.74962 20.287 5.69286C20.4241 5.63609 20.5412 5.53996 20.6236 5.41663C20.706 5.29329 20.75 5.14828 20.75 4.99995C20.75 4.80104 20.671 4.61027 20.5303 4.46962C20.3897 4.32897 20.1989 4.24995 20 4.24995ZM6.36111 15.8677C6.09585 15.8678 5.83655 15.9464 5.61601 16.0938C5.39546 16.2412 5.22357 16.4507 5.12208 16.6958C5.02058 16.9408 4.99403 17.2105 5.04579 17.4707C5.09756 17.7308 5.2253 17.9698 5.41287 18.1574C5.60045 18.3449 5.83943 18.4726 6.09959 18.5244C6.35976 18.5761 6.62942 18.5496 6.87449 18.448C7.11956 18.3465 7.32902 18.1746 7.47639 17.9541C7.62375 17.7335 7.70241 17.4742 7.70241 17.2089C7.70242 17.0328 7.66774 16.8584 7.60034 16.6957C7.53293 16.5329 7.43413 16.3851 7.30958 16.2605C7.18502 16.136 7.03715 16.0372 6.87441 15.9698C6.71167 15.9024 6.53725 15.8677 6.36111 15.8677ZM6.36111 17.7501C6.25407 17.7501 6.14944 17.7184 6.06044 17.6589C5.97144 17.5995 5.90207 17.5149 5.86111 17.4161C5.82015 17.3172 5.80943 17.2083 5.83031 17.1034C5.85119 16.9984 5.90274 16.9019 5.97842 16.8263C6.05411 16.7506 6.15055 16.699 6.25553 16.6781C6.36051 16.6573 6.46933 16.668 6.56822 16.7089C6.66711 16.7499 6.75163 16.8193 6.8111 16.9083C6.87057 16.9973 6.90231 17.1019 6.90231 17.2089C6.90207 17.3524 6.84497 17.4899 6.74352 17.5913C6.64207 17.6927 6.50455 17.7498 6.36111 17.7499V17.7501ZM14.8733 15.8677C14.608 15.8677 14.3487 15.9464 14.1282 16.0937C13.9076 16.2411 13.7357 16.4506 13.6341 16.6956C13.5326 16.9407 13.506 17.2104 13.5578 17.4705C13.6095 17.7307 13.7372 17.9697 13.9248 18.1573C14.1124 18.3449 14.3513 18.4726 14.6115 18.5244C14.8717 18.5761 15.1414 18.5496 15.3864 18.4481C15.6315 18.3466 15.841 18.1747 15.9884 17.9541C16.1357 17.7335 16.2144 17.4742 16.2144 17.2089C16.2144 16.8533 16.0731 16.5122 15.8216 16.2606C15.5701 16.0091 15.229 15.8678 14.8733 15.8677ZM14.8733 17.7501C14.7663 17.7501 14.6617 17.7184 14.5727 17.6589C14.4837 17.5994 14.4143 17.5149 14.3734 17.416C14.3324 17.3171 14.3217 17.2083 14.3426 17.1033C14.3635 16.9983 14.4151 16.9019 14.4908 16.8262C14.5665 16.7505 14.6629 16.699 14.7679 16.6781C14.8728 16.6573 14.9817 16.668 15.0805 16.709C15.1794 16.7499 15.2639 16.8193 15.3234 16.9083C15.3829 16.9973 15.4146 17.1019 15.4146 17.2089C15.4144 17.3524 15.3573 17.4899 15.2558 17.5914C15.1543 17.6928 15.0168 17.7498 14.8733 17.7499V17.7501ZM17.0686 10.4339C16.9664 10.0529 16.7499 9.71228 16.4482 9.45803C16.1465 9.20378 15.7742 9.0481 15.3813 9.01195C15.3225 9.00405 15.1907 8.99995 15.13 8.99995H6.10521C6.05131 8.99995 5.92521 9.00315 5.87281 9.00945C5.47616 9.04194 5.09925 9.19626 4.79371 9.45126C4.48816 9.70627 4.26892 10.0495 4.16601 10.4339C4.03911 10.9039 3.93461 11.3788 3.83061 11.8539H1.42871V14.0893L3.34381 14.7543C3.21141 15.831 3.1369 16.9139 3.12061 17.9985C3.11821 18.1268 3.11721 18.4505 3.11721 18.5785V21.9333C3.11721 22.02 3.13428 22.1058 3.16745 22.1859C3.20062 22.266 3.24923 22.3388 3.31052 22.4C3.37181 22.4613 3.44457 22.5099 3.52464 22.5431C3.60471 22.5763 3.69054 22.5933 3.77721 22.5933H5.28811C5.37478 22.5933 5.46061 22.5763 5.54068 22.5431C5.62076 22.5099 5.69351 22.4613 5.7548 22.4C5.81609 22.3388 5.8647 22.266 5.89787 22.1859C5.93104 22.1058 5.94811 22.02 5.94811 21.9333V20.9999H15.2865V21.9336C15.2865 22.1087 15.356 22.2766 15.4798 22.4003C15.6036 22.5241 15.7715 22.5936 15.9465 22.5936H17.4575C17.6326 22.5936 17.8004 22.5241 17.9242 22.4003C18.048 22.2766 18.1175 22.1087 18.1175 21.9336V18.5786C18.1175 18.4522 18.1165 18.1306 18.1143 18.0042C18.0982 16.9177 18.0236 15.8328 17.8909 14.7542L19.806 14.0893V11.8538H17.4038C17.3 11.3788 17.1953 10.9039 17.0686 10.4339ZM3.46241 13.8426L2.32861 13.449V12.7538H3.64791C3.58001 13.1158 3.51681 13.4784 3.46241 13.8426ZM5.13131 10.6942C5.18077 10.5089 5.28632 10.3433 5.43353 10.2202C5.58073 10.0971 5.76239 10.0226 5.95361 10.0067L6.10551 9.99995H15.13C15.1617 9.99995 15.2257 10.0009 15.2652 10.0048C15.4585 10.0195 15.6426 10.0933 15.7925 10.2164C15.9423 10.3394 16.0506 10.5056 16.1026 10.6923C16.3927 11.7789 16.6202 12.8813 16.7838 13.9939H4.45071C4.6143 12.8819 4.84154 11.7802 5.13131 10.6942ZM16.2192 21.6607L16.2144 19.9999H5.02001L5.01511 21.6607H4.11721C4.11721 21.6607 4.11871 18.1224 4.12061 18.0165C4.13628 16.9838 4.20638 15.9526 4.33061 14.9272H16.9036C17.0279 15.9519 17.098 16.9825 17.1136 18.0145L17.1165 21.6607H16.2192ZM18.9058 12.7538V13.449L17.772 13.8427C17.7175 13.4785 17.6543 13.1158 17.5864 12.7538H18.9058Z" fill="black"/>
</svg>
