<svg width="24" height="24" viewBox="0 0 24 24" fill="none" xmlns="http://www.w3.org/2000/svg">
<path d="M17.5 13.8472C17.2033 13.8472 16.9133 13.9352 16.6666 14.1C16.42 14.2648 16.2277 14.4991 16.1142 14.7732C16.0007 15.0473 15.9709 15.3489 16.0288 15.6398C16.0867 15.9308 16.2296 16.1981 16.4393 16.4079C16.6491 16.6176 16.9164 16.7605 17.2074 16.8184C17.4983 16.8763 17.7999 16.8465 18.074 16.733C18.3481 16.6195 18.5824 16.4272 18.7472 16.1806C18.912 15.9339 19 15.6439 19 15.3472C19 14.9494 18.842 14.5678 18.5607 14.2865C18.2794 14.0052 17.8978 13.8472 17.5 13.8472ZM17.5 15.9972C17.3714 15.9972 17.2458 15.9591 17.1389 15.8877C17.032 15.8162 16.9487 15.7147 16.8995 15.5959C16.8503 15.4772 16.8374 15.3465 16.8625 15.2204C16.8876 15.0943 16.9495 14.9785 17.0404 14.8876C17.1313 14.7967 17.2471 14.7348 17.3732 14.7097C17.4993 14.6846 17.63 14.6975 17.7487 14.7467C17.8675 14.7959 17.969 14.8792 18.0405 14.9861C18.1119 15.093 18.15 15.2186 18.15 15.3472C18.1498 15.5195 18.0812 15.6847 17.9594 15.8066C17.8375 15.9284 17.6723 15.997 17.5 15.9972ZM6.5 13.8472C6.20333 13.8472 5.91332 13.9352 5.66664 14.1C5.41997 14.2648 5.22771 14.4991 5.11418 14.7732C5.00065 15.0473 4.97094 15.3489 5.02882 15.6398C5.0867 15.9308 5.22956 16.1981 5.43934 16.4079C5.64912 16.6176 5.91639 16.7605 6.20736 16.8184C6.49834 16.8763 6.79994 16.8465 7.07403 16.733C7.34811 16.6195 7.58238 16.4272 7.7472 16.1806C7.91203 15.9339 8 15.6439 8 15.3472C8 14.9494 7.84196 14.5678 7.56066 14.2865C7.27936 14.0052 6.89782 13.8472 6.5 13.8472ZM6.5 15.9972C6.37144 15.9972 6.24577 15.9591 6.13888 15.8877C6.03199 15.8162 5.94868 15.7147 5.89948 15.5959C5.85028 15.4772 5.83741 15.3465 5.86249 15.2204C5.88757 15.0943 5.94948 14.9785 6.04038 14.8876C6.13128 14.7967 6.2471 14.7348 6.37319 14.7097C6.49928 14.6846 6.62997 14.6975 6.74874 14.7467C6.86752 14.7959 6.96903 14.8792 7.04046 14.9861C7.11188 15.093 7.15 15.2186 7.15 15.3472C7.14979 15.5195 7.08124 15.6847 6.95939 15.8066C6.83753 15.9284 6.67233 15.997 6.5 15.9972ZM20.7108 5.1077C20.6536 4.26465 20.2784 3.47477 19.661 2.89784C19.0436 2.32091 18.2302 1.99999 17.3852 2H6.6149C5.7699 1.99999 4.95643 2.3209 4.33903 2.89783C3.72163 3.47476 3.34639 4.26464 3.2892 5.1077C3.0964 7.92403 3 10.7444 3 13.5689V21.34C3 21.4267 3.01707 21.5125 3.05024 21.5926C3.08341 21.6726 3.13202 21.7454 3.19331 21.8067C3.2546 21.868 3.32735 21.9166 3.40743 21.9498C3.4875 21.9829 3.57333 22 3.66 22H5.34C5.51504 22 5.68292 21.9305 5.80669 21.8067C5.93046 21.6829 6 21.515 6 21.34V20H18V21.34C18 21.515 18.0695 21.6829 18.1933 21.8067C18.3171 21.9305 18.485 22 18.66 22H20.34C20.515 22 20.6829 21.9305 20.8067 21.8067C20.9305 21.6829 21 21.515 21 21.34V13.5689C21 10.746 20.9036 7.92563 20.7108 5.1077ZM4.287 5.173C4.32915 4.58387 4.59253 4.03246 5.02429 3.62943C5.45606 3.2264 6.02426 3.00155 6.6149 3H17.3849C17.9756 3.0015 18.5438 3.22632 18.9756 3.62936C19.4074 4.0324 19.6708 4.58383 19.713 5.173C19.8603 7.3253 19.9337 9.4998 19.9673 11.6666H4.0327C4.0663 9.5 4.14 7.3253 4.287 5.173ZM20 21H19V19H5V21H4V13.5689C4 13.2689 4.0132 12.9669 4.0155 12.6666H19.9845C19.9868 12.9666 20 13.2693 20 13.5689V21Z" fill="black"/>
</svg>
