<svg width="24" height="24" viewBox="0 0 24 24" fill="none" xmlns="http://www.w3.org/2000/svg">
<path d="M23 9.528L21.899 6.6212C21.7546 6.24245 21.4986 5.91651 21.1649 5.68655C20.8311 5.45659 20.4353 5.33347 20.03 5.3335H1V19.0002H4.1453C4.25749 19.4972 4.53542 19.9413 4.9334 20.2595C5.33139 20.5776 5.82577 20.751 6.3353 20.751C6.84483 20.751 7.33921 20.5776 7.7372 20.2595C8.13518 19.9413 8.41311 19.4972 8.5253 19.0002H15.9483C16.0659 19.4898 16.3449 19.9256 16.7404 20.2373C17.1358 20.5491 17.6247 20.7186 18.1283 20.7186C18.6319 20.7186 19.1208 20.5491 19.5162 20.2373C19.9117 19.9256 20.1907 19.4898 20.3083 19.0002H23V9.528ZM1.9333 6.2669H20.03C20.2451 6.26606 20.4554 6.33066 20.633 6.4521C20.8105 6.57355 20.947 6.74611 21.0242 6.9469L21.8217 9.0509H1.9333V6.2669ZM6.3351 19.8502C6.0681 19.8502 5.80709 19.771 5.58508 19.6227C5.36307 19.4743 5.19004 19.2635 5.08786 19.0168C4.98568 18.7701 4.95895 18.4987 5.01104 18.2368C5.06313 17.9749 5.19171 17.7344 5.38051 17.5456C5.56931 17.3568 5.80985 17.2282 6.07173 17.1761C6.3336 17.124 6.60504 17.1508 6.85172 17.253C7.0984 17.3551 7.30924 17.5282 7.45758 17.7502C7.60592 17.9722 7.6851 18.2332 7.6851 18.5002C7.6847 18.8581 7.54234 19.2013 7.28926 19.4544C7.03617 19.7074 6.69302 19.8498 6.3351 19.8502ZM18.128 19.8189C17.861 19.8189 17.6 19.7397 17.378 19.5914C17.156 19.443 16.9829 19.2322 16.8808 18.9855C16.7786 18.7388 16.7519 18.4674 16.8039 18.2055C16.856 17.9437 16.9846 17.7031 17.1734 17.5143C17.3622 17.3255 17.6028 17.1969 17.8646 17.1448C18.1265 17.0927 18.3979 17.1195 18.6446 17.2217C18.8913 17.3238 19.1021 17.4969 19.2505 17.7189C19.3988 17.9409 19.478 18.2019 19.478 18.4689C19.4776 18.8268 19.3352 19.17 19.0822 19.4231C18.8291 19.6761 18.4859 19.8185 18.128 19.8189ZM22.0667 18.0669H20.3375C20.2444 17.5487 19.9721 17.0797 19.5682 16.7419C19.1643 16.4042 18.6545 16.2191 18.128 16.2191C17.6015 16.2191 17.0917 16.4042 16.6878 16.7419C16.2839 17.0797 16.0116 17.5487 15.9185 18.0669H8.5414C8.44133 17.5552 8.16654 17.0943 7.76407 16.7629C7.36159 16.4315 6.85645 16.2503 6.3351 16.2503C5.81375 16.2503 5.30861 16.4315 4.90613 16.7629C4.50366 17.0943 4.22887 17.5552 4.1288 18.0669H1.9333V13.9842H22.0667V18.0669ZM22.0667 13.0509H1.9333V9.9842H22.0667V13.0509Z" fill="black"/>
</svg>
