<svg width="24" height="24" viewBox="0 0 24 24" fill="none" xmlns="http://www.w3.org/2000/svg">
<path d="M5.32317 18.3232L5.67677 18.6768L14.94 9.4138C14.8153 9.30299 14.6973 9.18491 14.5865 9.0602L5.32317 18.3232ZM22 6.25C21.9988 5.12319 21.5507 4.04286 20.7539 3.24608C19.9571 2.44931 18.8768 2.00116 17.75 2C17.1302 2.00284 16.5186 2.14264 15.9592 2.4094L15.9541 2.3984L2.15527 8.833L2.36617 9.2861L14.3877 3.68C13.7799 4.4557 13.4664 5.42154 13.5027 6.40631C13.5391 7.39109 13.9229 8.33119 14.5862 9.06L17.5732 6.073L17.9268 6.4266L14.94 9.4138C15.6688 10.077 16.6089 10.4608 17.5936 10.4972C18.5784 10.5336 19.5442 10.2201 20.32 9.6124L14.7139 21.6338L15.167 21.8447L21.6016 8.0459L21.5906 8.0408C21.8574 7.48133 21.9972 6.86981 22 6.25Z" fill="black"/>
</svg>
