<svg width="24" height="24" viewBox="0 0 24 24" fill="none" xmlns="http://www.w3.org/2000/svg">
<path d="M10.8275 3.64375L14.4909 9.76785L15.0149 10.6437H19.6272L21.0255 11.0363C21.2015 11.0858 21.3566 11.1915 21.4671 11.3372C21.5776 11.483 21.6373 11.6609 21.6373 11.8438C21.6373 12.0267 21.5776 12.2046 21.4671 12.3504C21.3566 12.4961 21.2015 12.6018 21.0255 12.6512L19.6272 13.0437H15.0149L14.4909 13.9197L10.8275 20.0437H9.41055L10.8433 15.3715L11.5571 13.0437H5.92215L5.39785 13.9174L4.12145 16.0437H3.07795L4.20055 12.37L4.36125 11.8441L4.20055 11.3181L3.07795 7.64375H4.12145L5.39785 9.77005L5.92215 10.6437H11.5571L10.8433 8.31605L9.41055 3.64375H10.8275ZM11.8481 1.84375H6.97585L9.12235 8.84375H6.94115L5.14035 5.84375H0.645752L2.47915 11.8438L0.645752 17.8438H5.13995L6.94075 14.8438H9.12235L6.97585 21.8438H11.8481L16.0356 14.8438H19.875L21.5119 14.3837C22.066 14.2282 22.5541 13.8958 22.9017 13.4372C23.2494 12.9785 23.4376 12.4187 23.4376 11.8432C23.4376 11.2677 23.2494 10.7079 22.9017 10.2492C22.5541 9.79058 22.066 9.45816 21.5119 9.30265L19.875 8.84385H16.0356L11.8481 1.84385V1.84375Z" fill="black"/>
</svg>
