<svg width="24" height="24" viewBox="0 0 24 24" fill="none" xmlns="http://www.w3.org/2000/svg">
<path d="M5.6182 18.3818L4.2041 19.7959C6.27344 21.8602 9.07706 23.0195 12 23.0195C14.9229 23.0195 17.7266 21.8602 19.7959 19.7959L18.3818 18.3818C16.6881 20.0722 14.3929 21.0215 12 21.0215C9.60709 21.0215 7.31192 20.0722 5.6182 18.3818ZM16.2715 16.2718L14.8574 14.8577C14.4823 15.2332 14.0369 15.5311 13.5466 15.7344C13.0563 15.9377 12.5308 16.0423 12 16.0423C11.4692 16.0423 10.9437 15.9377 10.4534 15.7344C9.96309 15.5311 9.51767 15.2332 9.1426 14.8577L7.7285 16.2715C8.28925 16.8328 8.95513 17.278 9.68806 17.5818C10.421 17.8856 11.2066 18.042 12 18.042C12.7934 18.042 13.579 17.8856 14.3119 17.5818C15.0449 17.278 15.7107 16.8328 16.2715 16.2715V16.2718ZM17.6875 5L15.5 7.1875V3C15.5 2.73478 15.3946 2.48043 15.2071 2.29289C15.0196 2.10536 14.7652 2 14.5 2H9.5C9.23478 2 8.98043 2.10536 8.79289 2.29289C8.60536 2.48043 8.5 2.73478 8.5 3V7.1875L6.3125 5H1V10H6.3125L8.5 7.8125V12C8.5 12.2652 8.60536 12.5196 8.79289 12.7071C8.98043 12.8946 9.23478 13 9.5 13H14.5C14.7652 13 15.0196 12.8946 15.2071 12.7071C15.3946 12.5196 15.5 12.2652 15.5 12V7.8125L17.6875 10H23V5H17.6875Z" fill="black"/>
</svg>
