<svg width="24" height="24" viewBox="0 0 24 24" fill="none" xmlns="http://www.w3.org/2000/svg">
<path d="M18.0576 6.93258L20 4.98998L21.9424 6.93238L22.9324 5.94238L20.99 3.99998L22.9324 2.05758L21.9424 1.06758L20 3.00998L18.0576 1.06738L17.0676 2.05738L19.01 3.99998L17.0674 5.94238L18.0576 6.93258ZM21.7015 9.71328L19.9062 9.17708H15.6627L11.2758 1.84378H7.13415L9.38275 9.17708H6.39605L4.69875 6.34708H0.797852L2.47915 11.8443L0.797852 17.3409H4.69875L6.39605 14.51H9.38275L7.13415 21.8438H11.2758L15.6627 14.51H19.9062L21.7015 13.9738C22.163 13.84 22.5687 13.56 22.8574 13.1757C23.1461 12.7915 23.3022 12.3239 23.3022 11.8433C23.3022 11.3627 23.1461 10.8952 22.8574 10.5109C22.5687 10.1267 22.163 9.84665 21.7015 9.71288V9.71328ZM21.3254 12.66L19.7145 13.1433H14.8876L14.4898 13.8084L10.5008 20.4767H8.98265L10.6895 14.9107L11.2314 13.1433H5.62225L5.22415 13.8069L3.92495 15.9742H2.64495L3.78635 12.2433L3.90855 11.8438L3.78635 11.4438L2.64465 7.71328H3.92465L5.22415 9.87998L5.62225 10.5436H11.2314L10.69 8.77638L8.98265 3.20998H10.5008L14.49 9.87868L14.8878 10.5438H19.7147L21.3257 11.027C21.5018 11.0791 21.6564 11.1868 21.7664 11.334C21.8763 11.4812 21.9357 11.66 21.9357 11.8437C21.9357 12.0274 21.8763 12.2062 21.7664 12.3534C21.6564 12.5006 21.5018 12.6083 21.3257 12.6604L21.3254 12.66Z" fill="black"/>
</svg>
