<svg width="24" height="24" viewBox="0 0 24 24" fill="none" xmlns="http://www.w3.org/2000/svg">
<g clip-path="url(#clip0)">
<path d="M24 12.9323C24.0013 12.5334 23.8828 12.1432 23.6597 11.8125C23.4367 11.4817 23.1194 11.2255 22.7491 11.0772C21.4375 10.5323 20.0573 10.1698 18.6472 10L16.0332 7.0893C14.9681 6.02848 13.5502 5.39612 12.0493 5.3125H2.6042L0 10.3125V16.2L3.1287 16.8959C3.23048 17.6916 3.61565 18.4239 4.21359 18.9587C4.81153 19.4934 5.58218 19.7948 6.38426 19.8074C7.18634 19.8201 7.9661 19.5432 8.58061 19.0276C9.19511 18.5119 9.60318 17.7921 9.73 17H15.83C15.9564 17.7828 16.3574 18.4951 16.9612 19.0091C17.565 19.5232 18.332 19.8055 19.125 19.8055C19.918 19.8055 20.685 19.5232 21.2888 19.0091C21.8926 18.4951 22.2936 17.7828 22.42 17H24V12.9323ZM3.7568 7.2125H12.0493C13.0106 7.29451 13.916 7.69838 14.6193 8.3588L16.0935 10H2.3051L3.7568 7.2125ZM6.4347 18.1079C6.10836 18.1079 5.78935 18.0111 5.51801 17.8298C5.24667 17.6485 5.03518 17.3908 4.9103 17.0893C4.78541 16.7878 4.75274 16.4561 4.8164 16.136C4.88007 15.8159 5.03722 15.5219 5.26797 15.2912C5.49873 15.0604 5.79273 14.9033 6.1128 14.8396C6.43287 14.7759 6.76463 14.8086 7.06613 14.9335C7.36763 15.0584 7.62532 15.2699 7.80662 15.5412C7.98793 15.8126 8.0847 16.1316 8.0847 16.4579C8.08417 16.8953 7.91016 17.3147 7.60084 17.624C7.29152 17.9334 6.87214 18.1074 6.4347 18.1079ZM19.1247 18.1079C18.7984 18.1079 18.4794 18.0111 18.208 17.8298C17.9367 17.6485 17.7252 17.3908 17.6003 17.0893C17.4754 16.7878 17.4427 16.4561 17.5064 16.136C17.5701 15.8159 17.7272 15.5219 17.958 15.2912C18.1887 15.0604 18.4827 14.9033 18.8028 14.8396C19.1229 14.7759 19.4546 14.8086 19.7561 14.9335C20.0576 15.0584 20.3153 15.2699 20.4966 15.5412C20.6779 15.8126 20.7747 16.1316 20.7747 16.4579C20.7742 16.8953 20.6002 17.3146 20.291 17.624C19.9817 17.9333 19.5624 18.1073 19.125 18.1079H19.1247Z" fill="black"/>
</g>
<defs>
<clipPath id="clip0">
<rect width="24" height="24" fill="white"/>
</clipPath>
</defs>
</svg>
