<svg width="24" height="24" viewBox="0 0 24 24" fill="none" xmlns="http://www.w3.org/2000/svg">
<path d="M3.7344 16.5001C3.49026 16.5001 3.2516 16.5725 3.0486 16.7082C2.84561 16.8438 2.68739 17.0366 2.59396 17.2621C2.50053 17.4877 2.47609 17.7359 2.52372 17.9754C2.57135 18.2148 2.68891 18.4348 2.86155 18.6074C3.03418 18.78 3.25413 18.8976 3.49358 18.9452C3.73303 18.9928 3.98123 18.9684 4.20678 18.875C4.43234 18.7815 4.62513 18.6233 4.76077 18.4203C4.8964 18.2173 4.9688 17.9787 4.9688 17.7345C4.9688 17.4072 4.83875 17.0932 4.60725 16.8617C4.37576 16.6302 4.06178 16.5001 3.7344 16.5001ZM3.7344 18.4689C3.58915 18.4689 3.44716 18.4259 3.32639 18.3452C3.20562 18.2645 3.11149 18.1498 3.0559 18.0156C3.00032 17.8814 2.98577 17.7337 3.01411 17.5913C3.04245 17.4488 3.11239 17.3179 3.2151 17.2152C3.31781 17.1125 3.44867 17.0426 3.59113 17.0142C3.73359 16.9859 3.88125 17.0005 4.01544 17.056C4.14964 17.1116 4.26433 17.2058 4.34503 17.3265C4.42573 17.4473 4.4688 17.5893 4.4688 17.7345C4.46854 17.9292 4.39108 18.1159 4.25341 18.2535C4.11574 18.3912 3.92909 18.4687 3.7344 18.4689ZM14.7659 10.1672C14.7239 9.57867 14.4604 9.02788 14.0286 8.62578C13.5967 8.22368 13.0286 8.00013 12.4385 8.00013H3.5615C2.97144 8.00013 2.40328 8.22368 1.97144 8.62578C1.53959 9.02788 1.27613 9.57867 1.2341 10.1672C1.07803 12.3514 1 14.5391 1 16.7301V22.3401C1 22.5152 1.06954 22.6831 1.19331 22.8068C1.31708 22.9306 1.48496 23.0001 1.66 23.0001H2.67C2.84504 23.0001 3.01292 22.9306 3.13669 22.8068C3.26046 22.6831 3.33 22.5152 3.33 22.3401V21.0001H12.67V22.3401C12.67 22.5152 12.7395 22.6831 12.8633 22.8068C12.9871 22.9306 13.155 23.0001 13.33 23.0001H14.34C14.515 23.0001 14.6829 22.9306 14.8067 22.8068C14.9305 22.6831 15 22.5152 15 22.3401V16.7301C15 14.5403 14.922 12.3526 14.7659 10.167V10.1672ZM1.7329 10.2028C1.76746 9.74097 1.97492 9.30914 2.31388 8.99352C2.65284 8.6779 3.09835 8.50171 3.5615 8.50013H12.4385C12.9016 8.50171 13.3472 8.6779 13.6861 8.99352C14.0251 9.30914 14.2325 9.74097 14.2671 10.2028C14.3806 11.7928 14.4385 13.3986 14.469 15.0001H1.531C1.5615 13.3987 1.6194 11.7931 1.7329 10.2028ZM14.5 22.3401C14.5 22.3826 14.4831 22.4233 14.4531 22.4533C14.4231 22.4833 14.3824 22.5001 14.34 22.5001H13.33C13.2876 22.5001 13.2469 22.4833 13.2169 22.4533C13.1869 22.4233 13.17 22.3826 13.17 22.3401L13.1686 20.5001H2.833L2.83 22.3401C2.83 22.3826 2.81314 22.4233 2.78314 22.4533C2.75313 22.4833 2.71243 22.5001 2.67 22.5001H1.66C1.61757 22.5001 1.57687 22.4833 1.54686 22.4533C1.51686 22.4233 1.5 22.3826 1.5 22.3401V16.7301C1.5 16.3217 1.5166 15.9101 1.522 15.5001H14.478C14.4834 15.9101 14.5 16.3219 14.5 16.7301V22.3401ZM12.2656 16.5001C12.0215 16.5001 11.7828 16.5725 11.5798 16.7082C11.3768 16.8438 11.2186 17.0366 11.1252 17.2621C11.0317 17.4877 11.0073 17.7359 11.0549 17.9754C11.1025 18.2148 11.2201 18.4348 11.3927 18.6074C11.5654 18.78 11.7853 18.8976 12.0248 18.9452C12.2642 18.9928 12.5124 18.9684 12.738 18.875C12.9635 18.7815 13.1563 18.6233 13.292 18.4203C13.4276 18.2173 13.5 17.9787 13.5 17.7345C13.5 17.4072 13.3699 17.0932 13.1384 16.8617C12.9069 16.6302 12.593 16.5002 12.2656 16.5001ZM12.2656 18.4689C12.1203 18.4689 11.9784 18.4259 11.8576 18.3452C11.7368 18.2645 11.6427 18.1498 11.5871 18.0156C11.5315 17.8814 11.517 17.7337 11.5453 17.5913C11.5736 17.4488 11.6436 17.3179 11.7463 17.2152C11.849 17.1125 11.9799 17.0426 12.1223 17.0142C12.2648 16.9859 12.4124 17.0005 12.5466 17.056C12.6808 17.1116 12.7955 17.2058 12.8762 17.3265C12.9569 17.4473 13 17.5893 13 17.7345C12.9997 17.9292 12.9223 18.1159 12.7846 18.2535C12.6469 18.3912 12.4603 18.4687 12.2656 18.4689ZM22.5 3.98093H20.6667L19.1067 0.981934H17.7161L18.3035 3.98093H16.8574L16.1914 2.96633H15.1914V6.96633H16.1914L16.8574 5.95163H18.3035L17.7161 8.93503H19.1067L20.6667 5.95163H22.5C22.6302 5.95295 22.7594 5.92843 22.8801 5.8795C23.0008 5.83057 23.1106 5.7582 23.2032 5.66657C23.2957 5.57494 23.3692 5.46587 23.4194 5.34567C23.4695 5.22547 23.4953 5.09652 23.4953 4.96628C23.4953 4.83604 23.4695 4.7071 23.4194 4.5869C23.3692 4.4667 23.2957 4.35763 23.2032 4.266C23.1106 4.17437 23.0008 4.102 22.8801 4.05307C22.7594 4.00414 22.6302 3.97962 22.5 3.98093ZM22.5 5.55093H20.4248L18.8643 8.53433H18.2021L18.79 5.55093H16.6416L15.9756 6.56553H15.5918V3.36633H15.9756L16.6416 4.38103H18.79L18.2021 1.38193H18.8633L20.4238 4.38103H22.5C22.6552 4.38103 22.8039 4.44267 22.9137 4.55238C23.0234 4.66209 23.085 4.81088 23.085 4.96603C23.085 5.12119 23.0234 5.26998 22.9137 5.37969C22.8039 5.4894 22.6552 5.55103 22.5 5.55103V5.55093Z" fill="black"/>
</svg>
