<svg width="24" height="24" viewBox="0 0 24 24" fill="none" xmlns="http://www.w3.org/2000/svg">
<path d="M22 6.5C21.9986 5.30693 21.5241 4.16311 20.6805 3.31948C19.8369 2.47585 18.693 2.00132 17.5 2C16.8437 2.00299 16.1963 2.15102 15.604 2.4335L15.5986 2.4219L2.01947 8.7539L2.44137 9.6602L13.4841 4.5109C13.0931 5.27117 12.9336 6.12939 13.0253 6.97937C13.117 7.82936 13.4558 8.63381 14 9.2932L5.26267 18.03L5.96967 18.737L14.7068 10C15.3662 10.5441 16.1707 10.883 17.0207 10.9746C17.8707 11.0663 18.729 10.9067 19.4893 10.5157L14.34 21.5586L15.2463 21.9805L21.5783 8.4014L21.5666 8.3959C21.8491 7.80363 21.9971 7.15619 22 6.5ZM15.4136 9.2933L17.8536 6.8533L17.1466 6.1463L14.7066 8.5863C14.2506 7.98613 14.0025 7.25374 14 6.5C14 5.80777 14.2052 5.13108 14.5898 4.5555C14.9744 3.97993 15.521 3.53133 16.1606 3.26642C16.8001 3.00151 17.5039 2.9322 18.1828 3.06725C18.8617 3.2023 19.4854 3.53564 19.9748 4.02513C20.4643 4.51461 20.7977 5.13825 20.9327 5.81718C21.0678 6.49612 20.9985 7.19985 20.7335 7.83939C20.4686 8.47893 20.02 9.02556 19.4445 9.41014C18.8689 9.79473 18.1922 10 17.5 10C16.7462 9.99756 16.0137 9.74946 15.4136 9.2933Z" fill="black"/>
</svg>
