<svg width="24" height="24" viewBox="0 0 24 24" fill="none" xmlns="http://www.w3.org/2000/svg">
<path d="M12 1.5C9.7406 1.49857 7.53089 2.16314 5.64711 3.41065C3.76334 4.65816 2.28906 6.43326 1.40858 8.51404C0.528098 10.5948 0.280477 12.889 0.696671 15.1097C1.11287 17.3305 2.17441 19.3793 3.7486 21H5.2156C3.57399 19.6102 2.39879 17.7499 1.84892 15.6704C1.29905 13.591 1.40104 11.3929 2.14111 9.37336C2.88118 7.3538 4.22361 5.61024 5.98686 4.37847C7.75011 3.1467 9.84911 2.48614 12 2.48614C14.1509 2.48614 16.2499 3.1467 18.0131 4.37847C19.7764 5.61024 21.1188 7.3538 21.8589 9.37336C22.599 11.3929 22.701 13.591 22.1511 15.6704C21.6012 17.7499 20.426 19.6102 18.7844 21H20.2514C21.8256 19.3793 22.8871 17.3305 23.3033 15.1097C23.7195 12.889 23.4719 10.5948 22.5914 8.51404C21.7109 6.43326 20.2367 4.65816 18.3529 3.41065C16.4691 2.16314 14.2594 1.49857 12 1.5ZM9.1118 16.8807C9.34284 16.8807 9.56869 16.8122 9.76079 16.6838C9.95289 16.5554 10.1026 16.3729 10.191 16.1595C10.2794 15.946 10.3025 15.7111 10.2574 15.4845C10.2124 15.2579 10.1011 15.0498 9.93771 14.8864C9.77433 14.7231 9.56617 14.6118 9.33957 14.5667C9.11296 14.5217 8.87808 14.5448 8.66463 14.6332C8.45117 14.7217 8.26873 14.8714 8.14037 15.0635C8.01201 15.2556 7.9435 15.4815 7.9435 15.7125C7.9435 15.8659 7.97372 16.0178 8.03243 16.1596C8.09115 16.3013 8.17721 16.4301 8.28569 16.5386C8.39418 16.6471 8.52298 16.7331 8.66472 16.7918C8.80646 16.8505 8.95838 16.8807 9.1118 16.8807ZM9.1118 15.2442C9.20442 15.2442 9.29496 15.2717 9.37197 15.3231C9.44899 15.3746 9.50901 15.4477 9.54445 15.5333C9.5799 15.6189 9.58917 15.713 9.5711 15.8039C9.55303 15.8947 9.50843 15.9781 9.44294 16.0436C9.37745 16.1091 9.294 16.1537 9.20316 16.1718C9.11232 16.1899 9.01816 16.1806 8.93259 16.1452C8.84702 16.1097 8.77388 16.0497 8.72242 15.9727C8.67097 15.8957 8.6435 15.8051 8.6435 15.7125C8.64363 15.5883 8.69302 15.4693 8.78081 15.3815C8.8686 15.2937 8.98764 15.2443 9.1118 15.2442ZM14.8882 16.8807C15.1192 16.8807 15.3451 16.8122 15.5372 16.6838C15.7293 16.5555 15.8791 16.373 15.9675 16.1596C16.0559 15.9461 16.079 15.7112 16.034 15.4846C15.9889 15.258 15.8776 15.0498 15.7142 14.8865C15.5509 14.7231 15.3427 14.6118 15.1161 14.5667C14.8895 14.5217 14.6546 14.5448 14.4411 14.6332C14.2277 14.7216 14.0452 14.8714 13.9169 15.0635C13.7885 15.2556 13.72 15.4815 13.72 15.7125C13.72 16.0223 13.8431 16.3194 14.0622 16.5385C14.2813 16.7576 14.5784 16.8807 14.8882 16.8807ZM14.8882 15.2442C14.9808 15.2442 15.0714 15.2716 15.1484 15.3231C15.2254 15.3745 15.2855 15.4477 15.3209 15.5332C15.3564 15.6188 15.3657 15.713 15.3476 15.8038C15.3296 15.8946 15.285 15.9781 15.2195 16.0436C15.154 16.1091 15.0705 16.1537 14.9797 16.1718C14.8889 16.1899 14.7947 16.1806 14.7091 16.1452C14.6235 16.1097 14.5504 16.0497 14.4989 15.9727C14.4475 15.8957 14.42 15.8051 14.42 15.7125C14.4202 15.5884 14.4695 15.4694 14.5573 15.3816C14.6451 15.2938 14.7641 15.2444 14.8882 15.2442ZM15.0882 7.0078C15.0505 7.0026 14.832 7 14.7933 7H9.2092C9.1729 7 8.954 7.0023 8.9192 7.0069C8.45496 7.0287 8.01012 7.19959 7.65069 7.49424C7.29127 7.78888 7.03644 8.19155 6.924 8.6425C6.53169 10.2086 6.3333 11.8169 6.3333 13.4314V16.5C6.3331 17.1196 6.56366 17.717 6.98002 18.1758C7.39639 18.6346 7.96871 18.9219 8.5854 18.9817C8.6663 18.9937 8.8754 19 8.9601 19H9.3875L8.2327 21H9.4248L10.58 19H13.42L14.5748 21H15.7669L14.6121 19H15.1663C15.8235 18.9999 16.4542 18.741 16.9219 18.2794C17.3897 17.8177 17.6568 17.1905 17.6656 16.5334C17.6656 16.5223 17.6663 16.4709 17.6663 16.4597V13.4315C17.6663 11.817 17.4679 10.2086 17.0756 8.6425C16.9635 8.19286 16.7097 7.7912 16.3518 7.49684C15.9939 7.20247 15.5508 7.03102 15.088 7.0078H15.0882ZM7.8306 8.8643C7.89767 8.59809 8.05174 8.36192 8.26834 8.19325C8.48494 8.02458 8.75167 7.93309 9.0262 7.9333H14.9738C15.2483 7.93309 15.5151 8.02458 15.7317 8.19325C15.9483 8.36192 16.1023 8.59809 16.1694 8.8643C16.4895 10.1533 16.672 11.4725 16.7139 12.8H7.2861C7.32797 11.4725 7.51049 10.1533 7.8306 8.8643ZM16.7333 16.5C16.7328 16.9154 16.5676 17.3136 16.2739 17.6073C15.9802 17.901 15.5821 18.0662 15.1667 18.0667H8.8333C8.41795 18.0662 8.01976 17.901 7.72607 17.6073C7.43238 17.3136 7.26718 16.9154 7.2667 16.5V13.8H16.7333V16.5Z" fill="black"/>
</svg>
