<svg width="24" height="24" viewBox="0 0 24 24" fill="none" xmlns="http://www.w3.org/2000/svg">
<path d="M0 19V21H24V19H0ZM7.1475 13.9258L16.0605 16.2432C17.2004 16.5287 18.3675 16.6913 19.542 16.7285L20.0459 16.7441C20.0732 16.7441 20.1006 16.7451 20.1279 16.7451C20.6846 16.7448 21.227 16.569 21.678 16.2428C22.1291 15.9165 22.4658 15.4564 22.6404 14.9278C22.8149 14.3992 22.8184 13.829 22.6503 13.2983C22.4822 12.7676 22.1511 12.3034 21.7041 11.9717L19.2383 10.1426L15.4365 9.17088L13.5352 2.50088L8.7842 1.34668L8.8691 7.52728L6.9512 7.01998L6.3164 4.79098L1.8193 3.66208L1.8955 11.0039L7.1475 13.9258ZM4.709 6.44918L5.34 8.66208L10.9064 10.1348L10.8195 3.89938L11.9318 4.16888L13.8273 10.8252L18.3635 11.9824L20.5119 13.5771C20.6212 13.6582 20.7022 13.7717 20.7433 13.9015C20.7845 14.0312 20.7837 14.1706 20.7411 14.2999C20.6985 14.4292 20.6163 14.5418 20.5061 14.6217C20.3959 14.7016 20.2633 14.7448 20.1272 14.7451L20.1072 14.7441L19.6043 14.7285C18.5745 14.6971 17.551 14.555 16.5516 14.3047L8.0066 12.1147L3.8838 9.81998L3.8467 6.23238L4.709 6.44918Z" fill="black"/>
</svg>
