<svg width="24" height="24" viewBox="0 0 24 24" fill="none" xmlns="http://www.w3.org/2000/svg">
<path d="M23 17.0002V12.8702C23.0003 12.5019 22.899 12.1407 22.7072 11.8263C22.5154 11.5119 22.2405 11.2565 21.9129 11.0883C20.6149 10.443 19.1977 10.0726 17.75 10.0002L15.0432 6.75202C14.4353 6.02979 13.5907 5.54675 12.66 5.38892L12.3677 3.93652H9.0758L8.8132 5.39222C7.75842 5.58233 6.80628 6.14307 6.1285 6.97332L3.6667 10.0002H2.8758C2.37831 10.0002 1.90119 10.1979 1.54941 10.5496C1.19763 10.9014 1 11.3785 1 11.876V16.5002L3.0558 16.8248C3.18044 17.4966 3.53132 18.1055 4.05008 18.5502C4.56884 18.9949 5.22421 19.2486 5.90717 19.2691C6.59014 19.2896 7.25954 19.0757 7.80403 18.6629C8.34853 18.2501 8.73529 17.6633 8.9 17.0002H15.2809C15.4411 17.6484 15.8138 18.2242 16.3395 18.6358C16.8652 19.0474 17.5136 19.2711 18.1812 19.2711C18.8489 19.2711 19.4973 19.0474 20.023 18.6358C20.5487 18.2242 20.9214 17.6484 21.0816 17.0002H23ZM7.6025 8.17212C7.84587 7.87178 8.15339 7.62973 8.50249 7.46372C8.8516 7.29771 9.23343 7.21194 9.62 7.21272H11.97C12.2779 7.21236 12.5821 7.27988 12.861 7.41048C13.1398 7.54108 13.3864 7.73155 13.5833 7.96832L15.2768 10.0002H6.1158L7.6025 8.17212ZM6 17.571C5.74288 17.571 5.49154 17.4948 5.27776 17.3519C5.06397 17.2091 4.89735 17.0061 4.79896 16.7685C4.70056 16.531 4.67482 16.2696 4.72498 16.0174C4.77514 15.7652 4.89895 15.5336 5.08076 15.3518C5.26257 15.17 5.49421 15.0462 5.74638 14.996C5.99856 14.9458 6.25994 14.9716 6.49749 15.07C6.73503 15.1684 6.93807 15.335 7.08091 15.5488C7.22376 15.7626 7.3 16.0139 7.3 16.271C7.2996 16.6157 7.16251 16.9461 6.9188 17.1898C6.67509 17.4335 6.34466 17.5706 6 17.571ZM18.1816 17.571C17.9245 17.571 17.6731 17.4948 17.4594 17.3519C17.2456 17.2091 17.079 17.0061 16.9806 16.7685C16.8822 16.531 16.8564 16.2696 16.9066 16.0174C16.9567 15.7652 17.0806 15.5336 17.2624 15.3518C17.4442 15.17 17.6758 15.0462 17.928 14.996C18.1802 14.9458 18.4415 14.9716 18.6791 15.07C18.9166 15.1684 19.1197 15.335 19.2625 15.5488C19.4054 15.7626 19.4816 16.0139 19.4816 16.271C19.4812 16.6157 19.3441 16.9461 19.1004 17.1898C18.8567 17.4335 18.5263 17.5706 18.1816 17.571Z" fill="black"/>
</svg>
