<svg width="24" height="24" viewBox="0 0 24 24" fill="none" xmlns="http://www.w3.org/2000/svg">
<path d="M17.6265 4.6665L15.6665 6.6265V3C15.6665 2.73478 15.5611 2.48043 15.3736 2.29289C15.1861 2.10536 14.9317 2 14.6665 2H9.3333C9.06808 2 8.81373 2.10536 8.62619 2.29289C8.43866 2.48043 8.3333 2.73478 8.3333 3V6.6263L6.3733 4.6663H1V10.3333H6.3735L8.3335 8.3733V12C8.3335 12.2652 8.43886 12.5196 8.62639 12.7071C8.81393 12.8946 9.06828 13 9.3335 13H14.6669C14.9321 13 15.1865 12.8946 15.374 12.7071C15.5615 12.5196 15.6669 12.2652 15.6669 12V8.3737L17.6269 10.3337H23V4.6665H17.6265ZM5.9731 9.3665H1.9666V5.6331H5.9731L7.84 7.5L5.9731 9.3665ZM14.7 11.7C14.7 11.8838 14.3623 12.0333 14.1787 12.0333H9.6333C9.4495 12.0333 9.3 11.6961 9.3 11.5123V3.3C9.3 3.1162 9.6377 2.9667 9.8213 2.9667H14.3667C14.5505 2.9667 14.7 3.3038 14.7 3.4877V11.7ZM22.0334 9.3668H18.0269L16.16 7.5L18.0267 5.6331H22.0332L22.0334 9.3668ZM5.2646 19.2275L4.5576 19.9346C6.53291 21.9057 9.20947 23.0127 12 23.0127C14.7905 23.0127 17.4671 21.9057 19.4424 19.9346L18.7354 19.2275C16.9474 21.0108 14.5252 22.0122 12 22.0122C9.47476 22.0122 7.05257 21.0108 5.2646 19.2275ZM15.918 16.41L15.2109 15.7029C14.7894 16.1249 14.2889 16.4596 13.7379 16.6881C13.187 16.9165 12.5964 17.034 12 17.034C11.4036 17.034 10.813 16.9165 10.2621 16.6881C9.71111 16.4596 9.21058 16.1249 8.7891 15.7029L8.082 16.41C8.59634 16.9248 9.2071 17.3333 9.87938 17.6119C10.5517 17.8906 11.2723 18.034 12 18.034C12.7277 18.034 13.4483 17.8906 14.1206 17.6119C14.7929 17.3333 15.4037 16.9248 15.918 16.41Z" fill="black"/>
</svg>
