<svg width="24" height="24" viewBox="0 0 24 24" fill="none" xmlns="http://www.w3.org/2000/svg">
<path d="M23 12L21.9345 9.2723C21.7881 8.89741 21.5319 8.57542 21.1996 8.34843C20.8672 8.12144 20.4741 8 20.0716 8H16V14H15V7C15 6.73478 14.8946 6.48043 14.7071 6.29289C14.5196 6.10536 14.2652 6 14 6H2C1.73478 6 1.48043 6.10536 1.29289 6.29289C1.10536 6.48043 1 6.73478 1 7V18H3.4731C3.53112 18.483 3.76414 18.928 4.12807 19.2508C4.492 19.5737 4.96162 19.7519 5.4481 19.7519C5.93458 19.7519 6.4042 19.5737 6.76813 19.2508C7.13206 18.928 7.36508 18.483 7.4231 18H16.8589C16.9169 18.483 17.1499 18.928 17.5139 19.2508C17.8778 19.5737 18.3474 19.7519 18.8339 19.7519C19.3204 19.7519 19.79 19.5737 20.1539 19.2508C20.5179 18.928 20.7509 18.483 20.8089 18H23V12ZM5.4479 19.25C5.15123 19.25 4.86122 19.162 4.61454 18.9972C4.36787 18.8324 4.17561 18.5981 4.06208 18.324C3.94855 18.0499 3.91884 17.7483 3.97672 17.4574C4.0346 17.1664 4.17746 16.8991 4.38724 16.6893C4.59702 16.4796 4.86429 16.3367 5.15526 16.2788C5.44624 16.2209 5.74784 16.2507 6.02192 16.3642C6.29601 16.4777 6.53028 16.67 6.6951 16.9166C6.85993 17.1633 6.9479 17.4533 6.9479 17.75C6.94745 18.1477 6.78927 18.529 6.50806 18.8102C6.22686 19.0914 5.84559 19.2495 5.4479 19.25ZM18.8333 19.25C18.5366 19.25 18.2466 19.162 17.9999 18.9972C17.7533 18.8324 17.561 18.5981 17.4475 18.324C17.334 18.0499 17.3042 17.7483 17.3621 17.4574C17.42 17.1664 17.5629 16.8991 17.7726 16.6893C17.9824 16.4796 18.2497 16.3367 18.5407 16.2788C18.8316 16.2209 19.1332 16.2507 19.4073 16.3642C19.6814 16.4777 19.9157 16.67 20.0805 16.9166C20.2453 17.1633 20.3333 17.4533 20.3333 17.75C20.3328 18.1477 20.1747 18.529 19.8935 18.8102C19.6123 19.0914 19.231 19.2495 18.8333 19.25ZM16.5 12V8.5H20.0716C20.3737 8.49878 20.6691 8.58936 20.9186 8.75976C21.1681 8.93016 21.36 9.17233 21.4688 9.4542L22.4632 12H16.5Z" fill="black"/>
</svg>
