<svg width="24" height="24" viewBox="0 0 24 24" fill="none" xmlns="http://www.w3.org/2000/svg">
<path d="M21.6808 17V12.9374C21.6799 12.5981 21.5931 12.2645 21.4286 11.9678C21.2641 11.671 21.0272 11.4206 20.74 11.24C19.8806 10.6664 18.9279 10.2468 17.9245 10L15.0917 6.4434C14.8107 6.09064 14.4538 5.80577 14.0476 5.60997C13.6413 5.41418 13.1961 5.3125 12.7451 5.3125H4.70831L2.72251 9.7253C2.54839 10.1124 2.45835 10.532 2.45831 10.9564V16.2L3.53271 16.56C3.5976 17.2628 3.90939 17.9199 4.41275 18.4146C4.9161 18.9093 5.57846 19.2097 6.28227 19.2625C6.98608 19.3152 7.68582 19.1169 8.25729 18.7027C8.82876 18.2885 9.235 17.6853 9.40391 17H14.7229C14.8831 17.6482 15.2558 18.224 15.7815 18.6356C16.3072 19.0472 16.9556 19.2709 17.6233 19.2709C18.2909 19.2709 18.9394 19.0472 19.4651 18.6356C19.9908 18.224 20.3634 17.6482 20.5236 17H21.6808ZM5.93681 7.2125H12.7451C12.9105 7.21214 13.0738 7.24926 13.2227 7.32109C13.3717 7.39292 13.5024 7.49758 13.6051 7.6272L15.4954 10H4.68241L5.93681 7.2125ZM6.50351 17.5708C6.2464 17.5708 5.99506 17.4946 5.78127 17.3517C5.56749 17.2089 5.40086 17.0058 5.30247 16.7683C5.20408 16.5307 5.17833 16.2694 5.22849 16.0172C5.27865 15.765 5.40247 15.5334 5.58427 15.3516C5.76608 15.1698 5.99772 15.0459 6.2499 14.9958C6.50207 14.9456 6.76346 14.9714 7.001 15.0698C7.23855 15.1682 7.44158 15.3348 7.58442 15.5486C7.72727 15.7623 7.80351 16.0137 7.80351 16.2708C7.80314 16.6155 7.66606 16.9459 7.42234 17.1896C7.17863 17.4333 6.84818 17.5704 6.50351 17.5708ZM17.6235 17.5708C17.3664 17.5708 17.1151 17.4946 16.9013 17.3517C16.6875 17.2089 16.5209 17.0058 16.4225 16.7683C16.3241 16.5307 16.2983 16.2694 16.3485 16.0172C16.3987 15.765 16.5225 15.5334 16.7043 15.3516C16.8861 15.1698 17.1177 15.0459 17.3699 14.9958C17.6221 14.9456 17.8835 14.9714 18.121 15.0698C18.3585 15.1682 18.5616 15.3348 18.7044 15.5486C18.8473 15.7623 18.9235 16.0137 18.9235 16.2708C18.9231 16.6155 18.786 16.946 18.5422 17.1897C18.2985 17.4335 17.9679 17.5705 17.6232 17.5708H17.6235Z" fill="black"/>
</svg>
