<svg width="24" height="24" viewBox="0 0 24 24" fill="none" xmlns="http://www.w3.org/2000/svg">
<path d="M20.3841 16.6313L20.9123 11.8022C20.9371 11.575 20.8834 11.3462 20.7601 11.1538C20.6367 10.9614 20.4512 10.8171 20.2344 10.7448L19 10.3333V5.5C19 5.10218 18.842 4.72064 18.5607 4.43934C18.2794 4.15804 17.8978 4 17.5 4H14V2.5H10V4H6.5C6.10218 4 5.72064 4.15804 5.43934 4.43934C5.15804 4.72064 5 5.10218 5 5.5V10.3333L3.7639 10.7454C3.54746 10.8175 3.36219 10.9615 3.23884 11.1535C3.1155 11.3454 3.0615 11.5737 3.0858 11.8006L3.603 16.6253C2.7937 16.2229 1.90376 16.0092 1 16V16.5C1.92108 16.5077 2.82574 16.7446 3.6323 17.1895C4.51146 17.6726 5.49689 17.9296 6.5 17.9375C7.50311 17.9296 8.48854 17.6726 9.3677 17.1895C10.1719 16.739 11.0782 16.5024 12 16.5024C12.9218 16.5024 13.8281 16.739 14.6323 17.1895C15.5085 17.68 16.4959 17.9375 17.5 17.9375C18.5041 17.9375 19.4915 17.68 20.3677 17.1895C21.1743 16.7446 22.0789 16.5077 23 16.5V16C22.0914 16.0092 21.1968 16.225 20.3841 16.6313ZM10.5 3H13.5V4H10.5V3ZM5.5 5.5C5.50029 5.23487 5.60574 4.98069 5.79321 4.79321C5.98069 4.60574 6.23487 4.50029 6.5 4.5H17.5C17.7651 4.50029 18.0193 4.60574 18.2068 4.79321C18.3943 4.98069 18.4997 5.23487 18.5 5.5V10.1667L12 8L5.5 10.1667V5.5ZM19.8542 16.8771C19.0747 17.2611 18.2137 17.45 17.345 17.4275C16.4764 17.405 15.6262 17.1718 14.8677 16.748C13.9907 16.26 13.0036 16.0039 12 16.0039C10.9964 16.0039 10.0093 16.26 9.1323 16.748C8.32574 17.1929 7.42108 17.4298 6.5 17.4375C5.67819 17.4288 4.86888 17.2351 4.1321 16.871L3.583 11.7473C3.57139 11.634 3.5986 11.52 3.66019 11.4242C3.72178 11.3283 3.81409 11.2562 3.922 11.2197L12 8.527L20.0763 11.2192C20.1844 11.2557 20.2769 11.328 20.3385 11.4241C20.4001 11.5202 20.4272 11.6344 20.4152 11.7479L19.8542 16.8771ZM14.8677 19.748C13.9907 19.26 13.0036 19.0039 12 19.0039C10.9964 19.0039 10.0093 19.26 9.1323 19.748C8.32574 20.1929 7.42108 20.4298 6.5 20.4375C5.57892 20.4298 4.67426 20.1929 3.8677 19.748C2.98854 19.2649 2.00311 19.0079 1 19V19.5C1.92108 19.5077 2.82574 19.7446 3.6323 20.1895C4.51146 20.6726 5.49689 20.9296 6.5 20.9375C7.50311 20.9296 8.48854 20.6726 9.3677 20.1895C10.1719 19.739 11.0782 19.5024 12 19.5024C12.9218 19.5024 13.8281 19.739 14.6323 20.1895C15.5085 20.68 16.4959 20.9375 17.5 20.9375C18.5041 20.9375 19.4915 20.68 20.3677 20.1895C21.1743 19.7446 22.0789 19.5077 23 19.5V19C21.9969 19.0079 21.0115 19.2649 20.1323 19.748C19.3281 20.1985 18.4218 20.4351 17.5 20.4351C16.5782 20.4351 15.6719 20.1985 14.8677 19.748Z" fill="black"/>
</svg>
