<svg width="24" height="24" viewBox="0 0 24 24" fill="none" xmlns="http://www.w3.org/2000/svg">
<path d="M22.5034 4.5131L23.7371 3.6087C23.5801 3.19146 23.3539 2.80369 23.0679 2.4617L21.6733 3.0754L20.83 2.5886L20.6635 1.0669C20.2256 0.9777 19.7742 0.9777 19.3363 1.0669L19.17 2.5886L18.3268 3.0754L16.9322 2.4617C16.6462 2.80369 16.42 3.19146 16.263 3.6087L17.4967 4.5131V5.4869L16.263 6.3912C16.42 6.80845 16.6463 7.19624 16.9322 7.5383L18.3268 6.9245L19.17 7.4114L19.3365 8.9331C19.7744 9.0223 20.2258 9.0223 20.6637 8.9331L20.83 7.4114L21.6732 6.9245L23.0678 7.5383C23.3537 7.19624 23.5799 6.80845 23.737 6.3912L22.5033 5.4869L22.5034 4.5131ZM20 6C19.8022 6 19.6089 5.94135 19.4444 5.83147C19.28 5.72159 19.1518 5.56541 19.0761 5.38268C19.0004 5.19996 18.9806 4.99889 19.0192 4.80491C19.0578 4.61093 19.153 4.43275 19.2929 4.29289C19.4327 4.15304 19.6109 4.0578 19.8049 4.01921C19.9989 3.98063 20.1999 4.00043 20.3827 4.07612C20.5654 4.15181 20.7216 4.27998 20.8315 4.44443C20.9413 4.60888 21 4.80222 21 5C21 5.26522 20.8946 5.51957 20.7071 5.70711C20.5196 5.89464 20.2652 6 20 6ZM6.91479 15.9923C6.71274 15.9923 6.51523 16.0523 6.34724 16.1645C6.17926 16.2768 6.04833 16.4363 5.97102 16.623C5.89372 16.8097 5.8735 17.0151 5.91293 17.2133C5.95236 17.4114 6.04967 17.5935 6.19254 17.7363C6.33542 17.8792 6.51745 17.9765 6.71562 18.0159C6.91379 18.0553 7.11919 18.0351 7.30586 17.9577C7.49253 17.8804 7.65207 17.7495 7.76432 17.5815C7.87657 17.4135 7.93649 17.216 7.93649 17.0139C7.9365 16.8797 7.91008 16.7469 7.85874 16.6229C7.8074 16.499 7.73214 16.3863 7.63726 16.2915C7.54238 16.1966 7.42975 16.1213 7.30578 16.07C7.18182 16.0187 7.04896 15.9923 6.91479 15.9923ZM14.3196 15.9923C14.1175 15.9923 13.92 16.0523 13.752 16.1645C13.5841 16.2768 13.4531 16.4363 13.3758 16.623C13.2985 16.8097 13.2783 17.0151 13.3177 17.2133C13.3572 17.4114 13.4545 17.5935 13.5973 17.7363C13.7402 17.8792 13.9223 17.9765 14.1204 18.0159C14.3186 18.0553 14.524 18.0351 14.7107 17.9577C14.8973 17.8804 15.0569 17.7495 15.1691 17.5815C15.2814 17.4135 15.3413 17.216 15.3413 17.0139C15.3413 16.743 15.2337 16.4832 15.0422 16.2916C14.8507 16.1 14.5909 15.9924 14.32 15.9923H14.3196ZM16.9141 10.25C16.7976 9.88696 16.5688 9.57029 16.2608 9.34564C15.9527 9.12099 15.5813 8.99996 15.2 9H6.03419C5.6529 8.99994 5.28144 9.12096 4.97336 9.34561C4.66528 9.57026 4.43649 9.88694 4.31999 10.25C4.00339 11.256 3.75045 12.2808 3.56269 13.3186H1.61719V14.7214L3.27369 15.2966C3.1751 16.1737 3.12286 17.0555 3.11719 17.9381V21.9336C3.11719 22.0203 3.13426 22.1061 3.16743 22.1862C3.2006 22.2662 3.24921 22.339 3.3105 22.4003C3.37178 22.4616 3.44454 22.5102 3.52462 22.5434C3.60469 22.5765 3.69051 22.5936 3.77719 22.5936H4.45719C4.63223 22.5936 4.8001 22.5241 4.92388 22.4003C5.04765 22.2765 5.11719 22.1086 5.11719 21.9336V21H16.1172V21.9337C16.1172 22.1087 16.1867 22.2766 16.3105 22.4004C16.4343 22.5242 16.6021 22.5937 16.7772 22.5937H17.4572C17.6322 22.5937 17.8001 22.5242 17.9239 22.4004C18.0477 22.2766 18.1172 22.1087 18.1172 21.9337V17.9382C18.1115 17.0556 18.0593 16.1738 17.9607 15.2967L19.6172 14.7215V13.3187H17.6714C17.4836 12.2809 17.2306 11.256 16.9141 10.25ZM6.03409 10.8H15.2C15.4594 11.6271 15.6726 12.4679 15.8387 13.3187H5.39549C5.56154 12.4679 5.77477 11.6271 6.03419 10.8H6.03409ZM16.317 19.2H4.91699V17.9382C4.92265 16.9954 4.98537 16.0539 5.10479 15.1187H16.1294C16.2488 16.0539 16.3115 16.9954 16.3171 17.9382L16.317 19.2Z" fill="black"/>
</svg>
