<svg width="24" height="24" viewBox="0 0 24 24" fill="none" xmlns="http://www.w3.org/2000/svg">
<path d="M19.7 3.09981C19.9275 3.09981 20.1498 3.03236 20.3389 2.906C20.528 2.77963 20.6754 2.60003 20.7625 2.38989C20.8495 2.17976 20.8723 1.94853 20.8279 1.72545C20.7835 1.50237 20.674 1.29746 20.5132 1.13663C20.3523 0.975802 20.1474 0.866275 19.9244 0.821902C19.7013 0.777529 19.4701 0.800303 19.2599 0.887344C19.0498 0.974385 18.8702 1.12178 18.7438 1.3109C18.6175 1.50002 18.55 1.72236 18.55 1.94981C18.55 2.2548 18.6712 2.54731 18.8868 2.76298C19.1025 2.97864 19.395 3.09981 19.7 3.09981ZM14.3 3.09981C14.5275 3.09981 14.7498 3.03236 14.9389 2.906C15.128 2.77963 15.2754 2.60003 15.3625 2.38989C15.4495 2.17976 15.4723 1.94853 15.4279 1.72545C15.3835 1.50237 15.274 1.29746 15.1132 1.13663C14.9523 0.975802 14.7474 0.866275 14.5244 0.821902C14.3013 0.777529 14.0701 0.800303 13.8599 0.887344C13.6498 0.974385 13.4702 1.12178 13.3438 1.3109C13.2175 1.50002 13.15 1.72236 13.15 1.94981C13.15 2.10083 13.1798 2.25037 13.2375 2.38989C13.2953 2.52942 13.38 2.65619 13.4868 2.76298C13.5936 2.86977 13.7204 2.95447 13.8599 3.01227C13.9994 3.07006 14.149 3.09981 14.3 3.09981ZM16.25 4.94681C15.9939 4.69073 15.6899 4.48759 15.3553 4.349C15.0208 4.21041 14.6622 4.13908 14.3 4.13908C13.9379 4.13908 13.5793 4.21041 13.2447 4.349C12.9101 4.48759 12.6061 4.69073 12.35 4.94681V6.9998H16.25V4.94681ZM17.75 4.94681V6.9998H21.65V4.94681C21.3939 4.69073 21.0899 4.48759 20.7553 4.349C20.4208 4.21041 20.0622 4.13908 19.7 4.13908C19.3379 4.13908 18.9793 4.21041 18.6447 4.349C18.3101 4.48759 18.0061 4.69073 17.75 4.94681ZM16.9141 10.2498C16.7976 9.88677 16.5688 9.5701 16.2608 9.34545C15.9527 9.1208 15.5813 8.99977 15.2 8.99981H6.03421C5.65292 8.99974 5.28146 9.12076 4.97338 9.34542C4.6653 9.57007 4.43651 9.88675 4.32001 10.2498C3.92765 11.4752 3.62985 12.7289 3.42921 13.9998H1.26511V15.4026L3.19001 16.0708C3.14391 16.6916 3.11751 17.3142 3.11751 17.938V21.9335C3.11751 22.1085 3.18704 22.2764 3.31082 22.4002C3.43459 22.524 3.60246 22.5935 3.77751 22.5935H4.45751C4.63255 22.5935 4.80042 22.524 4.9242 22.4002C5.04797 22.2764 5.11751 22.1085 5.11751 21.9335V20.9998H16.1175V21.9335C16.1175 22.1085 16.187 22.2764 16.3108 22.4002C16.4346 22.524 16.6025 22.5935 16.7775 22.5935H17.4575C17.6325 22.5935 17.8004 22.524 17.9242 22.4002C18.048 22.2764 18.1175 22.1085 18.1175 21.9335V17.938C18.1175 17.3142 18.0911 16.6915 18.045 16.0708L19.9695 15.4026V13.9998H17.8055C17.6048 12.7288 17.3068 11.4752 16.9141 10.2498ZM6.03411 10.7998H15.2C15.5324 11.847 15.7905 12.9163 15.9725 13.9998H5.26171C5.44368 12.9163 5.70182 11.847 6.03421 10.7998H6.03411ZM5.91471 18.1598C5.71266 18.1598 5.51515 18.0999 5.34716 17.9876C5.17917 17.8753 5.04825 17.7158 4.97094 17.5291C4.89363 17.3424 4.87342 17.137 4.91285 16.9388C4.95228 16.7407 5.04958 16.5587 5.19246 16.4158C5.33534 16.2729 5.51737 16.1756 5.71554 16.1362C5.91371 16.0968 6.11911 16.1171 6.30578 16.1944C6.49245 16.2717 6.65199 16.4026 6.76424 16.5706C6.87649 16.7386 6.93641 16.9362 6.93641 17.1382C6.93648 17.2724 6.91012 17.4053 6.85881 17.5293C6.80751 17.6533 6.73227 17.766 6.63739 17.8609C6.54252 17.9559 6.42987 18.0312 6.30589 18.0825C6.1819 18.1339 6.04901 18.1603 5.91481 18.1603L5.91471 18.1598ZM15.3195 18.1598C15.1175 18.1598 14.92 18.0999 14.752 17.9876C14.584 17.8753 14.453 17.7158 14.3757 17.5291C14.2984 17.3424 14.2782 17.137 14.3176 16.9388C14.3571 16.7407 14.4544 16.5587 14.5973 16.4158C14.7401 16.2729 14.9222 16.1756 15.1203 16.1362C15.3185 16.0968 15.5239 16.1171 15.7106 16.1944C15.8972 16.2717 16.0568 16.4026 16.169 16.5706C16.2813 16.7386 16.3412 16.9362 16.3412 17.1382C16.3413 17.2724 16.3149 17.4052 16.2636 17.5292C16.2124 17.6532 16.1372 17.7659 16.0423 17.8608C15.9475 17.9557 15.8349 18.031 15.711 18.0824C15.587 18.1338 15.4542 18.1603 15.32 18.1603L15.3195 18.1598Z" fill="black"/>
</svg>
