<svg width="24" height="24" viewBox="0 0 24 24" fill="none" xmlns="http://www.w3.org/2000/svg">
<path d="M5 12.7658C4.70332 12.7658 4.41331 12.8537 4.16664 13.0186C3.91997 13.1834 3.72771 13.4177 3.61418 13.6917C3.50065 13.9658 3.47094 14.2674 3.52882 14.5584C3.5867 14.8494 3.72956 15.1167 3.93934 15.3264C4.14912 15.5362 4.41639 15.6791 4.70736 15.737C4.99833 15.7948 5.29993 15.7651 5.57402 15.6516C5.84811 15.5381 6.08238 15.3458 6.2472 15.0991C6.41202 14.8525 6.5 14.5624 6.5 14.2658C6.5 13.8679 6.34196 13.4864 6.06066 13.2051C5.77935 12.9238 5.39782 12.7658 5 12.7658ZM19 12.7658C18.7033 12.7658 18.4133 12.8537 18.1666 13.0186C17.92 13.1834 17.7277 13.4177 17.6142 13.6917C17.5006 13.9658 17.4709 14.2674 17.5288 14.5584C17.5867 14.8494 17.7296 15.1167 17.9393 15.3264C18.1491 15.5362 18.4164 15.6791 18.7074 15.737C18.9983 15.7948 19.2999 15.7651 19.574 15.6516C19.8481 15.5381 20.0824 15.3458 20.2472 15.0991C20.412 14.8525 20.5 14.5624 20.5 14.2658C20.5 13.8679 20.342 13.4864 20.0607 13.2051C19.7794 12.9238 19.3978 12.7658 19 12.7658ZM23.9287 9.26187C23.8953 9.20465 23.8407 9.16291 23.7767 9.14572C23.7127 9.12853 23.6445 9.13728 23.5869 9.17007L21.5928 10.3201C21.106 10.6018 20.5536 10.7501 19.9912 10.7501H4.0088C3.4464 10.7501 2.89395 10.6018 2.4072 10.3201L0.413097 9.17017C0.355598 9.13702 0.287284 9.12807 0.223184 9.14528C0.159084 9.1625 0.104449 9.20447 0.0712968 9.26197C0.0381447 9.31947 0.0291918 9.38779 0.0464077 9.45189C0.0636235 9.51599 0.105598 9.57062 0.163097 9.60377L2.1572 10.7538C2.72018 11.0787 3.35876 11.2498 4.0088 11.2499H19.9912C20.6412 11.2498 21.2798 11.0787 21.8428 10.7538L23.8369 9.60377C23.8942 9.57042 23.936 9.51577 23.9532 9.45173C23.9704 9.38769 23.9616 9.31945 23.9287 9.26187Z" fill="black"/>
</svg>
