<svg width="24" height="24" viewBox="0 0 24 24" fill="none" xmlns="http://www.w3.org/2000/svg">
<path d="M5.125 18C4.77888 18 4.44054 18.1026 4.15275 18.2949C3.86497 18.4872 3.64066 18.7605 3.50821 19.0803C3.37576 19.4001 3.3411 19.7519 3.40863 20.0914C3.47615 20.4309 3.64282 20.7427 3.88756 20.9874C4.13231 21.2322 4.44413 21.3988 4.78359 21.4664C5.12306 21.5339 5.47493 21.4992 5.7947 21.3668C6.11447 21.2343 6.38778 21.01 6.58007 20.7222C6.77237 20.4345 6.875 20.0961 6.875 19.75C6.875 19.2859 6.69063 18.8408 6.36244 18.5126C6.03425 18.1844 5.58913 18 5.125 18ZM9.8333 18C9.48718 18 9.14884 18.1026 8.86105 18.2949C8.57327 18.4872 8.34896 18.7605 8.21651 19.0803C8.08406 19.4001 8.0494 19.7519 8.11693 20.0914C8.18445 20.4309 8.35112 20.7427 8.59586 20.9874C8.84061 21.2322 9.15243 21.3988 9.49189 21.4664C9.83136 21.5339 10.1832 21.4992 10.503 21.3668C10.8228 21.2343 11.0961 21.01 11.2884 20.7222C11.4807 20.4345 11.5833 20.0961 11.5833 19.75C11.5833 19.5202 11.538 19.2926 11.4501 19.0803C11.3621 18.868 11.2332 18.6751 11.0707 18.5126C10.9082 18.3501 10.7153 18.2212 10.503 18.1332C10.2907 18.0453 10.0631 18 9.8333 18ZM14.5417 18C14.1956 18 13.8572 18.1026 13.5695 18.2949C13.2817 18.4872 13.0574 18.7605 12.9249 19.0803C12.7925 19.4001 12.7578 19.7519 12.8253 20.0914C12.8929 20.4309 13.0595 20.7427 13.3043 20.9874C13.549 21.2322 13.8608 21.3988 14.2003 21.4664C14.5398 21.5339 14.8916 21.4992 15.2114 21.3668C15.5312 21.2343 15.8045 21.01 15.9968 20.7222C16.1891 20.4345 16.2917 20.0961 16.2917 19.75C16.2917 19.5202 16.2464 19.2926 16.1585 19.0803C16.0705 18.868 15.9416 18.6751 15.7791 18.5126C15.6166 18.3501 15.4237 18.2212 15.2114 18.1332C14.9991 18.0453 14.7715 18 14.5417 18ZM19.25 18C18.9039 18 18.5655 18.1026 18.2778 18.2949C17.99 18.4872 17.7657 18.7605 17.6332 19.0803C17.5008 19.4001 17.4661 19.7519 17.5336 20.0914C17.6012 20.4309 17.7678 20.7427 18.0126 20.9874C18.2573 21.2322 18.5691 21.3988 18.9086 21.4664C19.2481 21.5339 19.5999 21.4992 19.9197 21.3668C20.2395 21.2343 20.5128 21.01 20.7051 20.7222C20.8974 20.4345 21 20.0961 21 19.75C21 19.2859 20.8156 18.8408 20.4874 18.5126C20.1592 18.1844 19.7141 18 19.25 18ZM6.7064 17H20L20.6483 14.0216C20.7862 13.3883 20.6746 12.7262 20.3368 12.173C19.999 11.6198 19.4609 11.2182 18.8345 11.0516L13 9.5V2H10.4688C10.1557 1.99998 9.84582 2.06289 9.55753 2.18499C9.26923 2.3071 9.00842 2.48591 8.7906 2.7108L7.5417 4H4V14.2936C4 15.0114 4.28514 15.6998 4.79269 16.2073C5.30024 16.7149 5.98862 17 6.7064 17Z" fill="black"/>
</svg>
