<svg width="24" height="24" viewBox="0 0 24 24" fill="none" xmlns="http://www.w3.org/2000/svg">
<path d="M19 11.3329C18.7944 11.3398 18.5896 11.3605 18.3868 11.3949L16.5127 4.3999H13.3879H13.3857C13.2266 4.3999 13.0739 4.46312 12.9614 4.57564C12.8489 4.68816 12.7857 4.84077 12.7857 4.9999C12.7857 5.15903 12.8489 5.31164 12.9614 5.42417C13.0739 5.53669 13.2266 5.5999 13.3857 5.5999H13.3876H15.5928L16.2358 7.9999H13.1094C12.4076 8.00102 11.7184 8.18621 11.1106 8.53698C10.5027 8.88775 9.99757 9.39184 9.64549 9.9989L3.99999 9.9999V11.4467C3.16449 11.6267 2.39456 12.033 1.77433 12.621C1.1541 13.2091 0.707441 13.9563 0.48316 14.781C0.258878 15.6057 0.265606 16.4762 0.502608 17.2974C0.73961 18.1185 1.19777 18.8587 1.82701 19.4371C2.45625 20.0155 3.23237 20.4098 4.07055 20.5769C4.90873 20.744 5.77671 20.6775 6.57966 20.3847C7.3826 20.0918 8.08959 19.5839 8.62339 18.9164C9.15718 18.2489 9.49724 17.4476 9.60639 16.5999H14.3936C14.5109 17.4876 14.8817 18.3227 15.4615 19.005C16.0413 19.6874 16.8055 20.1881 17.6626 20.4472C18.5197 20.7064 19.4334 20.7129 20.2941 20.466C21.1548 20.2192 21.9261 19.7294 22.5156 19.0554C23.105 18.3814 23.4877 17.5517 23.6177 16.6658C23.7477 15.7798 23.6195 14.8752 23.2485 14.0603C22.8775 13.2453 22.2794 12.5546 21.5259 12.0709C20.7724 11.5872 19.8954 11.3309 19 11.3329ZM8.27249 16.5999C8.12284 17.4182 7.67261 18.1509 7.01025 18.6542C6.34789 19.1574 5.52129 19.3948 4.69283 19.3197C3.86438 19.2445 3.09396 18.8623 2.53295 18.2481C1.97193 17.6339 1.66086 16.8322 1.66086 16.0003C1.66086 15.1684 1.97193 14.3667 2.53295 13.7525C3.09396 13.1383 3.86438 12.7561 4.69283 12.6809C5.52129 12.6058 6.34789 12.8432 7.01025 13.3464C7.67261 13.8497 8.12284 14.5824 8.27249 15.4007H3.99999V16.5999H8.27249ZM19 19.3329C18.2435 19.3347 17.5091 19.0785 16.9178 18.6066C16.3266 18.1347 15.9139 17.4753 15.7479 16.7373C15.5819 15.9993 15.6725 15.2267 16.0047 14.5471C16.3369 13.8675 16.8909 13.3214 17.5753 12.9991L18.1631 15.1928C17.9806 15.3744 17.8629 15.6109 17.828 15.866C17.7931 16.121 17.8429 16.3805 17.9697 16.6045C18.0966 16.8285 18.2936 17.0046 18.5303 17.1058C18.767 17.207 19.0304 17.2276 19.28 17.1645C19.5296 17.1014 19.7515 16.9581 19.9117 16.7566C20.0719 16.5551 20.1615 16.3065 20.1667 16.0491C20.1719 15.7917 20.0924 15.5398 19.9404 15.332C19.7885 15.1242 19.5725 14.972 19.3257 14.8989L18.7349 12.6937C18.8239 12.6865 18.9092 12.6669 19 12.6669C19.884 12.6669 20.7317 13.0181 21.3568 13.6431C21.9818 14.2682 22.333 15.1159 22.333 15.9999C22.333 16.8839 21.9818 17.7316 21.3568 18.3567C20.7317 18.9817 19.884 19.3329 19 19.3329ZM19.9688 9.2499H20.43V6.7499H19.9691C19.6376 6.7499 19.3196 6.8816 19.0852 7.11602C18.8508 7.35044 18.7191 7.66838 18.7191 7.9999C18.7191 8.33142 18.8508 8.64937 19.0852 8.88379C19.3196 9.11821 19.6376 9.2499 19.9691 9.2499H19.9688Z" fill="black"/>
</svg>
