<svg width="24" height="24" viewBox="0 0 24 24" fill="none" xmlns="http://www.w3.org/2000/svg">
<path d="M23 11.9999L21.8458 8.957C21.7018 8.57758 21.4459 8.25093 21.1118 8.02043C20.7778 7.78993 20.3816 7.66649 19.9758 7.6665H15.6667V13.9999H14.6667V6.6665C14.6667 6.40129 14.5613 6.14693 14.3738 5.9594C14.1863 5.77186 13.9319 5.6665 13.6667 5.6665H2C1.73478 5.6665 1.48043 5.77186 1.29289 5.9594C1.10536 6.14693 1 6.40129 1 6.6665V17.9999H3.4335C3.5296 18.5154 3.80299 18.981 4.20629 19.316C4.6096 19.6511 5.11742 19.8345 5.64175 19.8345C6.16608 19.8345 6.6739 19.6511 7.07721 19.316C7.48051 18.981 7.7539 18.5154 7.85 17.9999H16.5772C16.6736 18.5151 16.947 18.9803 17.3503 19.3151C17.7535 19.6499 18.2611 19.8332 18.7852 19.8332C19.3093 19.8332 19.8169 19.6499 20.2201 19.3151C20.6234 18.9803 20.8968 18.5151 20.9932 17.9999H23V11.9999ZM5.6415 18.9332C5.3745 18.9332 5.11349 18.854 4.89148 18.7057C4.66947 18.5573 4.49644 18.3465 4.39426 18.0998C4.29208 17.8531 4.26535 17.5817 4.31744 17.3198C4.36953 17.058 4.49811 16.8174 4.68691 16.6286C4.87571 16.4398 5.11625 16.3112 5.37813 16.2591C5.64 16.2071 5.91144 16.2338 6.15812 16.336C6.4048 16.4381 6.61564 16.6112 6.76398 16.8332C6.91232 17.0552 6.9915 17.3162 6.9915 17.5832C6.9911 17.9411 6.84874 18.2843 6.59566 18.5374C6.34257 18.7904 5.99942 18.9328 5.6415 18.9332ZM18.7847 18.9332C18.5177 18.9332 18.2567 18.854 18.0347 18.7057C17.8127 18.5573 17.6396 18.3465 17.5375 18.0998C17.4353 17.8531 17.4086 17.5817 17.4606 17.3198C17.5127 17.058 17.6413 16.8174 17.8301 16.6286C18.0189 16.4398 18.2595 16.3112 18.5213 16.2591C18.7832 16.2071 19.0546 16.2338 19.3013 16.336C19.548 16.4381 19.7588 16.6112 19.9072 16.8332C20.0555 17.0552 20.1347 17.3162 20.1347 17.5832C20.1343 17.9411 19.9919 18.2843 19.7389 18.5374C19.4858 18.7904 19.1426 18.9328 18.7847 18.9332ZM16.6 11.9999V8.5999H19.9761C20.1912 8.59909 20.4015 8.66369 20.579 8.78514C20.7566 8.90658 20.893 9.07913 20.9702 9.2799L22.0028 11.9999H16.6Z" fill="black"/>
</svg>
