<svg width="24" height="24" viewBox="0 0 24 24" fill="none" xmlns="http://www.w3.org/2000/svg">
<path d="M20.125 9.41158L23.125 3.74998H20.125V0.0883789L17.125 5.74998H20.125V9.41158ZM22.075 13.8151C20.411 13.0047 18.5942 12.5561 16.7442 12.4991L14.0319 9.83538C13.3776 9.19275 12.4971 8.83262 11.58 8.83248H9.134C8.53452 8.83249 7.94109 8.95227 7.38854 9.18481C6.836 9.41734 6.33549 9.75793 5.9164 10.1866L3.6555 12.4991H2.6C2.17565 12.4991 1.76869 12.6677 1.46863 12.9677C1.16857 13.2678 1 13.6747 1 14.0991V17.4165L3.3361 17.8465C3.41321 18.3651 3.66956 18.8403 4.0606 19.1895C4.45165 19.5388 4.95268 19.74 5.47666 19.7582C6.00064 19.7765 6.51446 19.6106 6.92885 19.2894C7.34323 18.9682 7.63201 18.512 7.745 18H16.3845C16.4952 18.499 16.7729 18.9453 17.1716 19.2652C17.5702 19.5851 18.0661 19.7594 18.5772 19.7594C19.0884 19.7594 19.5843 19.5851 19.9829 19.2652C20.3816 18.9453 20.6593 18.499 20.77 18H23V15.4467C23.0028 15.1174 22.9188 14.7932 22.7564 14.5068C22.5941 14.2204 22.3591 13.9818 22.0751 13.8151H22.075ZM5.552 19.26C5.20588 19.26 4.86754 19.1573 4.57975 18.9651C4.29197 18.7728 4.06766 18.4994 3.93521 18.1797C3.80276 17.8599 3.7681 17.508 3.83563 17.1686C3.90315 16.8291 4.06982 16.5173 4.31456 16.2725C4.55931 16.0278 4.87112 15.8611 5.21059 15.7936C5.55006 15.7261 5.90193 15.7607 6.2217 15.8932C6.54147 16.0256 6.81478 16.2499 7.00707 16.5377C7.19936 16.8255 7.302 17.1639 7.302 17.51C7.30144 17.9739 7.11689 18.4187 6.78882 18.7468C6.46075 19.0749 6.01596 19.2594 5.552 19.26ZM4.3547 12.4991L6.2739 10.5362C6.64718 10.1562 7.09221 9.8541 7.58317 9.64747C8.07413 9.44084 8.60123 9.33377 9.1339 9.33248H11.58C12.3667 9.33076 13.1221 9.63985 13.682 10.1925L16.0311 12.4995L4.3547 12.4991ZM18.5774 19.26C18.2313 19.26 17.8929 19.1573 17.6052 18.9651C17.3174 18.7728 17.0931 18.4994 16.9606 18.1797C16.8282 17.8599 16.7935 17.508 16.861 17.1686C16.9285 16.8291 17.0952 16.5173 17.34 16.2725C17.5847 16.0278 17.8965 15.8611 18.236 15.7936C18.5755 15.7261 18.9273 15.7607 19.2471 15.8932C19.5669 16.0256 19.8402 16.2499 20.0325 16.5377C20.2248 16.8255 20.3274 17.1639 20.3274 17.51C20.3269 17.974 20.1424 18.4188 19.8143 18.7469C19.4862 19.0749 19.0414 19.2595 18.5774 19.26Z" fill="black"/>
</svg>
