<svg width="24" height="24" viewBox="0 0 24 24" fill="none" xmlns="http://www.w3.org/2000/svg">
<path d="M12.6055 7.4433C12.2854 7.37024 11.9582 7.33334 11.6299 7.3333H4.3716C4.04564 7.33326 3.72068 7.36918 3.4026 7.4404C2.81029 7.57318 2.277 7.89443 1.88272 8.35596C1.48844 8.81749 1.25444 9.39442 1.2158 10.0002C1.07193 12.1972 1 14.3969 1 16.5994V22.3402C1 22.5152 1.06954 22.6831 1.19331 22.8069C1.31708 22.9307 1.48496 23.0002 1.66 23.0002H1.99C2.16504 23.0002 2.33292 22.9307 2.45669 22.8069C2.58046 22.6831 2.65 22.5152 2.65 22.3402V21.0002H13.35V22.3402C13.35 22.5152 13.4195 22.6831 13.5433 22.8069C13.6671 22.9307 13.835 23.0002 14.01 23.0002H14.34C14.515 23.0002 14.6829 22.9307 14.8067 22.8069C14.9305 22.6831 15 22.5152 15 22.3402V16.5994C15 14.3981 14.9281 12.1984 14.7842 10.0002C14.7456 9.39596 14.5126 8.82041 14.1199 8.35956C13.7272 7.8987 13.196 7.57727 12.6055 7.4433ZM2.7126 10.0957C2.73619 9.75374 2.88846 9.43342 3.13874 9.19923C3.38902 8.96503 3.71873 8.83435 4.0615 8.8335H11.9385C12.2813 8.83435 12.611 8.96503 12.8613 9.19923C13.1115 9.43342 13.2638 9.75374 13.2874 10.0957C13.3574 11.1705 13.4106 12.2537 13.4462 13.3374H2.554C2.5894 12.2537 2.6423 11.1702 2.7126 10.0957ZM13.5 19.5002H2.5V16.5994C2.5 16.0145 2.5186 15.4252 2.5289 14.8374H13.4711C13.4811 15.4252 13.5 16.0145 13.5 16.5994V19.5002ZM11.3281 15.9246C11.1303 15.9246 10.937 15.9832 10.7725 16.0931C10.6081 16.203 10.4799 16.3592 10.4042 16.5419C10.3285 16.7246 10.3087 16.9257 10.3473 17.1197C10.3859 17.3137 10.4811 17.4918 10.621 17.6317C10.7608 17.7716 10.939 17.8668 11.133 17.9054C11.327 17.944 11.5281 17.9242 11.7108 17.8485C11.8935 17.7728 12.0497 17.6446 12.1596 17.4802C12.2695 17.3157 12.3281 17.1224 12.3281 16.9246C12.3281 16.6594 12.2227 16.405 12.0352 16.2175C11.8477 16.03 11.5933 15.9246 11.3281 15.9246ZM4.6719 15.9246C4.47412 15.9246 4.28078 15.9832 4.11633 16.0931C3.95188 16.203 3.82371 16.3592 3.74802 16.5419C3.67233 16.7246 3.65253 16.9257 3.69111 17.1197C3.7297 17.3137 3.82494 17.4918 3.96479 17.6317C4.10465 17.7716 4.28283 17.8668 4.47681 17.9054C4.67079 17.944 4.87186 17.9242 5.05458 17.8485C5.23731 17.7728 5.39349 17.6446 5.50337 17.4802C5.61325 17.3157 5.6719 17.1224 5.6719 16.9246C5.6719 16.6594 5.56654 16.405 5.37901 16.2175C5.19147 16.03 4.93712 15.9246 4.6719 15.9246ZM19.75 4.2085H21.5L19 1.7085L16.5 4.2085H18.25V7.7918H16.5L19 10.2918L21.5 7.7918H19.75V4.2085Z" fill="black"/>
</svg>
