<svg width="24" height="24" viewBox="0 0 24 24" fill="none" xmlns="http://www.w3.org/2000/svg">
<path d="M22.5034 4.5131L23.7371 3.6087C23.5801 3.19146 23.3538 2.80369 23.0679 2.4617L21.6733 3.0754L20.83 2.5886L20.6635 1.0669C20.2256 0.9777 19.7742 0.9777 19.3363 1.0669L19.17 2.5886L18.3268 3.0754L16.9322 2.4617C16.6462 2.80369 16.42 3.19146 16.263 3.6087L17.4967 4.5131V5.4869L16.263 6.3912C16.42 6.80845 16.6463 7.19624 16.9322 7.5383L18.3268 6.9245L19.17 7.4114L19.3365 8.9331C19.7744 9.0223 20.2258 9.0223 20.6637 8.9331L20.83 7.4114L21.6732 6.9245L23.0678 7.5383C23.3537 7.19624 23.5799 6.80845 23.737 6.3912L22.5033 5.4869L22.5034 4.5131ZM20 6C19.8022 6 19.6089 5.94135 19.4444 5.83147C19.28 5.72159 19.1518 5.56541 19.0761 5.38268C19.0004 5.19996 18.9806 4.99889 19.0192 4.80491C19.0578 4.61093 19.153 4.43275 19.2929 4.29289C19.4327 4.15304 19.6109 4.0578 19.8049 4.01921C19.9989 3.98063 20.1999 4.00043 20.3827 4.07612C20.5654 4.15181 20.7216 4.27998 20.8314 4.44443C20.9413 4.60888 21 4.80222 21 5C21 5.26522 20.8946 5.51957 20.7071 5.70711C20.5195 5.89464 20.2652 6 20 6ZM16.7354 10.434C16.6381 10.0718 16.4368 9.74597 16.1565 9.49677C15.8762 9.24756 15.5291 9.08585 15.158 9.0316C15.0154 9.01056 14.8714 9 14.7273 9H6.49628C6.36393 9 6.23173 9.00888 6.10058 9.0266C5.72461 9.07709 5.37197 9.23766 5.08704 9.48809C4.80211 9.73852 4.59761 10.0676 4.49928 10.434C4.18463 11.607 3.9407 12.7978 3.76878 14H1.68378V15.4028L3.53958 16.0471C3.49044 16.696 3.46188 17.3465 3.45388 17.9984C3.45168 18.1268 3.45068 18.4505 3.45068 18.5789V21.9337C3.45068 22.1087 3.52021 22.2766 3.64399 22.4004C3.76776 22.5242 3.93563 22.5937 4.11068 22.5937H4.71298C4.79965 22.5937 4.88547 22.5766 4.96555 22.5435C5.04562 22.5103 5.11838 22.4617 5.17967 22.4004C5.24095 22.3391 5.28957 22.2663 5.32274 22.1863C5.35591 22.1062 5.37298 22.0204 5.37298 21.9337V21H15.8694V21.9337C15.8694 22.1087 15.9389 22.2766 16.0627 22.4004C16.1865 22.5242 16.3543 22.5937 16.5294 22.5937H17.1239C17.2989 22.5937 17.4668 22.5242 17.5906 22.4004C17.7143 22.2766 17.7839 22.1087 17.7839 21.9337V18.5787C17.7839 18.4523 17.7827 18.1307 17.7808 18.0043C17.7734 17.351 17.7446 16.6986 17.6946 16.0472L19.5505 15.4028V14H17.4653C17.2936 12.7978 17.0498 11.607 16.7354 10.434ZM6.09178 18.1605C5.88973 18.1605 5.69222 18.1005 5.52423 17.9883C5.35625 17.876 5.22532 17.7165 5.14801 17.5298C5.07071 17.3431 5.05049 17.1377 5.08992 16.9395C5.12935 16.7414 5.22665 16.5593 5.36953 16.4165C5.51241 16.2736 5.69444 16.1763 5.89261 16.1369C6.09078 16.0975 6.29618 16.1177 6.48285 16.1951C6.66952 16.2724 6.82906 16.4033 6.94131 16.5713C7.05356 16.7393 7.11348 16.9369 7.11348 17.1389C7.11345 17.4099 7.0058 17.6697 6.81419 17.8613C6.62259 18.0529 6.36273 18.1605 6.09178 18.1605ZM15.1426 18.1605C14.9405 18.1605 14.743 18.1006 14.575 17.9884C14.407 17.8761 14.276 17.7166 14.1987 17.5299C14.1213 17.3432 14.1011 17.1378 14.1405 16.9397C14.1799 16.7415 14.2772 16.5594 14.4201 16.4166C14.5629 16.2737 14.745 16.1764 14.9431 16.1369C15.1413 16.0975 15.3467 16.1177 15.5334 16.1951C15.7201 16.2724 15.8796 16.4033 15.9919 16.5713C16.1042 16.7393 16.1641 16.9368 16.1641 17.1389C16.164 17.4098 16.0564 17.6696 15.8648 17.8612C15.6733 18.0528 15.4135 18.1604 15.1426 18.1605ZM4.78268 14C4.9463 12.8859 5.17391 11.7822 5.46438 10.6943C5.4864 10.6189 5.51781 10.5466 5.55788 10.4791H15.6763C15.7166 10.5465 15.7481 10.6188 15.77 10.6943C16.0604 11.7822 16.288 12.886 16.4517 14H4.78268Z" fill="black"/>
</svg>
