<svg width="24" height="24" viewBox="0 0 24 24" fill="none" xmlns="http://www.w3.org/2000/svg">
<path d="M12 1.5C9.7406 1.49857 7.53089 2.16314 5.64711 3.41065C3.76334 4.65816 2.28906 6.43326 1.40858 8.51404C0.528098 10.5948 0.280477 12.889 0.696671 15.1097C1.11287 17.3305 2.17441 19.3793 3.7486 21H4.4735C2.86514 19.491 1.74752 17.5333 1.26571 15.3812C0.783895 13.229 0.960143 10.9817 1.77157 8.93092C2.583 6.88017 3.99214 5.12068 5.81609 3.88084C7.64003 2.64099 9.79456 1.97805 12 1.97805C14.2054 1.97805 16.36 2.64099 18.1839 3.88084C20.0079 5.12068 21.417 6.88017 22.2284 8.93092C23.0399 10.9817 23.2161 13.229 22.7343 15.3812C22.2525 17.5333 21.1349 19.491 19.5265 21H20.2514C21.8256 19.3793 22.8871 17.3305 23.3033 15.1097C23.7195 12.889 23.4719 10.5948 22.5914 8.51404C21.7109 6.43326 20.2367 4.65816 18.3529 3.41065C16.4691 2.16314 14.2594 1.49857 12 1.5ZM8.8029 16.873C8.99949 16.873 9.19166 16.8147 9.35512 16.7055C9.51858 16.5963 9.64599 16.4411 9.72123 16.2595C9.79646 16.0779 9.81615 15.878 9.77781 15.6852C9.73946 15.4924 9.6448 15.3153 9.50579 15.1763C9.36679 15.0373 9.18968 14.9426 8.99688 14.9043C8.80407 14.8659 8.60422 14.8856 8.42261 14.9609C8.24099 15.0361 8.08576 15.1635 7.97656 15.327C7.86736 15.4904 7.80908 15.6826 7.8091 15.8792C7.8091 16.0097 7.83481 16.1389 7.88475 16.2595C7.93469 16.3801 8.00789 16.4896 8.10018 16.5819C8.19246 16.6742 8.30202 16.7474 8.42259 16.7974C8.54316 16.8473 8.67239 16.873 8.8029 16.873ZM8.8029 15.3853C8.90059 15.3853 8.99609 15.4142 9.07732 15.4685C9.15856 15.5227 9.22188 15.5999 9.25928 15.6901C9.29667 15.7804 9.30647 15.8797 9.28742 15.9755C9.26838 16.0713 9.22134 16.1593 9.15228 16.2284C9.08321 16.2975 8.9952 16.3445 8.89939 16.3636C8.80358 16.3827 8.70427 16.3729 8.61402 16.3355C8.52376 16.2981 8.44662 16.2348 8.39235 16.1536C8.33807 16.0724 8.3091 15.9769 8.3091 15.8792C8.30923 15.7483 8.3613 15.6227 8.45387 15.5301C8.54645 15.4376 8.67197 15.3855 8.8029 15.3853ZM14.9481 7H9.0519C8.60795 7.00001 8.17661 7.14772 7.82586 7.41988C7.47511 7.69204 7.22488 8.07316 7.1146 8.5032C6.7065 10.0947 6.50001 11.7313 6.5 13.3743V16.5C6.5 17.163 6.76339 17.7989 7.23223 18.2678C7.70108 18.7366 8.33696 19 9 19H9.5812L8.4264 21H9.06L10.2148 19H13.7861L14.9409 21H15.5741L14.4193 19H15C15.663 19 16.2989 18.7366 16.7678 18.2678C17.2366 17.7989 17.5 17.163 17.5 16.5V13.3743C17.5 11.7313 17.2935 10.0947 16.8854 8.5032C16.7751 8.07316 16.5249 7.69204 16.1741 7.41988C15.8234 7.14772 15.3921 7.00001 14.9481 7ZM17 16.5C16.9994 17.0302 16.7885 17.5386 16.4135 17.9135C16.0386 18.2885 15.5302 18.4994 15 18.5H9C8.46975 18.4994 7.9614 18.2885 7.58646 17.9135C7.21152 17.5386 7.00061 17.0302 7 16.5V13.8H17V16.5ZM7.0023 13.3C7.00781 11.7238 7.2082 10.1544 7.5989 8.6274C7.68152 8.30482 7.86917 8.01891 8.13226 7.81478C8.39535 7.61064 8.7189 7.4999 9.0519 7.5H14.9481C15.2811 7.4999 15.6047 7.61064 15.8677 7.81478C16.1308 8.01891 16.3185 8.30482 16.4011 8.6274C16.7918 10.1544 16.9922 11.7238 16.9977 13.3H7.0023ZM15.1971 16.873C15.3937 16.873 15.5858 16.8147 15.7493 16.7055C15.9127 16.5963 16.0401 16.441 16.1154 16.2594C16.1906 16.0778 16.2103 15.878 16.1719 15.6852C16.1335 15.4924 16.0389 15.3153 15.8999 15.1763C15.7608 15.0373 15.5837 14.9426 15.3909 14.9043C15.1981 14.8659 14.9983 14.8856 14.8167 14.9609C14.6351 15.0361 14.4799 15.1635 14.3707 15.327C14.2615 15.4905 14.2032 15.6826 14.2032 15.8792C14.2032 16.0097 14.2289 16.139 14.2789 16.2595C14.3288 16.3801 14.402 16.4897 14.4943 16.582C14.5866 16.6742 14.6962 16.7474 14.8168 16.7974C14.9373 16.8473 15.0666 16.873 15.1971 16.873ZM15.1971 15.3853C15.2948 15.3853 15.3903 15.4143 15.4715 15.4685C15.5527 15.5228 15.616 15.5999 15.6534 15.6902C15.6908 15.7804 15.7006 15.8798 15.6815 15.9756C15.6625 16.0714 15.6154 16.1594 15.5463 16.2284C15.4773 16.2975 15.3893 16.3446 15.2935 16.3636C15.1976 16.3827 15.0983 16.3729 15.0081 16.3355C14.9178 16.2981 14.8407 16.2348 14.7864 16.1536C14.7322 16.0724 14.7032 15.9769 14.7032 15.8792C14.7033 15.7483 14.7554 15.6227 14.848 15.5301C14.9406 15.4375 15.0662 15.3854 15.1971 15.3853Z" fill="black"/>
</svg>
