<svg width="24" height="24" viewBox="0 0 24 24" fill="none" xmlns="http://www.w3.org/2000/svg">
<path d="M15.62 16.4125C15.8376 16.4125 16.0502 16.348 16.2311 16.2271C16.412 16.1062 16.553 15.9345 16.6363 15.7335C16.7195 15.5325 16.7413 15.3113 16.6989 15.0979C16.6564 14.8845 16.5517 14.6885 16.3978 14.5347C16.244 14.3808 16.048 14.2761 15.8346 14.2336C15.6212 14.1912 15.4 14.213 15.199 14.2962C14.998 14.3795 14.8263 14.5205 14.7054 14.7014C14.5845 14.8823 14.52 15.0949 14.52 15.3125C14.52 15.6042 14.6359 15.884 14.8422 16.0903C15.0485 16.2966 15.3283 16.4125 15.62 16.4125ZM8.38 16.4125C8.59756 16.4125 8.81023 16.348 8.99113 16.2271C9.17202 16.1062 9.31301 15.9345 9.39627 15.7335C9.47952 15.5325 9.50131 15.3113 9.45886 15.0979C9.41642 14.8845 9.31166 14.6885 9.15782 14.5347C9.00398 14.3808 8.80798 14.2761 8.5946 14.2336C8.38122 14.1912 8.16005 14.213 7.95905 14.2962C7.75805 14.3795 7.58625 14.5205 7.46538 14.7014C7.34451 14.8823 7.28 15.0949 7.28 15.3125C7.28 15.457 7.30845 15.6 7.36373 15.7335C7.41901 15.8669 7.50004 15.9882 7.60218 16.0903C7.70433 16.1925 7.82559 16.2735 7.95905 16.3288C8.09251 16.384 8.23555 16.4125 8.38 16.4125ZM19.4178 5.5068C19.3011 4.80631 18.9396 4.16995 18.3977 3.71093C17.8559 3.25191 17.1687 3 16.4586 3H13V2L16 1.1962V0H8V1.1962L11 2V3H7.5414C6.83125 3 6.14412 3.25191 5.60226 3.71093C5.0604 4.16995 4.69895 4.80631 4.5822 5.5068C4.19476 7.83163 4.00003 10.1845 4 12.5414V17.5C4 18.163 4.26339 18.7989 4.73223 19.2678C5.20107 19.7366 5.83696 20 6.5 20H8.1515L6.4193 23H8.7293L10.4615 20H13.5389L15.2711 23H17.5811L15.8489 20H17.5C18.163 20 18.7989 19.7366 19.2678 19.2678C19.7366 18.7989 20 18.163 20 17.5V12.5414C20 10.1845 19.8053 7.83163 19.4178 5.5068ZM6.555 5.8356C6.59331 5.60183 6.71362 5.38934 6.89438 5.23622C7.07513 5.0831 7.30451 4.99935 7.5414 5H16.4586C16.6955 4.99935 16.9249 5.0831 17.1056 5.23622C17.2864 5.38934 17.4067 5.60183 17.445 5.8356C17.7285 7.54426 17.9032 9.2692 17.968 11H6.032C6.09683 9.2692 6.27151 7.54426 6.555 5.8356ZM18 17.5C17.9998 17.6326 17.9471 17.7596 17.8534 17.8534C17.7596 17.9471 17.6326 17.9998 17.5 18H6.5C6.36744 17.9998 6.24036 17.9471 6.14662 17.8534C6.05289 17.7596 6.00016 17.6326 6 17.5V13H18V17.5Z" fill="black"/>
</svg>
