<svg width="24" height="24" viewBox="0 0 24 24" fill="none" xmlns="http://www.w3.org/2000/svg">
<path d="M23 11.1147L21.4094 6.95469C21.2651 6.576 21.0091 6.25009 20.6754 6.02013C20.3417 5.79017 19.946 5.66702 19.5407 5.66699H1V18.0001H4.1453C4.25749 18.4971 4.53542 18.9412 4.9334 19.2594C5.33139 19.5775 5.82577 19.7508 6.3353 19.7508C6.84483 19.7508 7.33921 19.5775 7.7372 19.2594C8.13518 18.9412 8.41311 18.4971 8.5253 18.0001H15.9483C16.0659 18.4897 16.3449 18.9255 16.7404 19.2372C17.1358 19.549 17.6247 19.7185 18.1283 19.7185C18.6319 19.7185 19.1208 19.549 19.5162 19.2372C19.9117 18.9255 20.1907 18.4897 20.3083 18.0001H23V11.1147ZM1.9333 6.60009H19.5407C19.7558 6.59929 19.9661 6.66389 20.1437 6.78533C20.3212 6.90678 20.4577 7.07932 20.5349 7.28009L21.9778 11.0507H1.9333V6.60009ZM6.3351 18.8501C6.0681 18.8501 5.80709 18.7709 5.58508 18.6226C5.36307 18.4742 5.19004 18.2634 5.08786 18.0167C4.98568 17.77 4.95895 17.4986 5.01104 17.2367C5.06313 16.9748 5.19171 16.7343 5.38051 16.5455C5.56931 16.3567 5.80985 16.2281 6.07173 16.176C6.3336 16.1239 6.60504 16.1507 6.85172 16.2529C7.0984 16.355 7.30924 16.5281 7.45758 16.7501C7.60592 16.9721 7.6851 17.2331 7.6851 17.5001C7.6847 17.858 7.54234 18.2012 7.28926 18.4542C7.03617 18.7073 6.69302 18.8497 6.3351 18.8501ZM18.128 18.8188C17.861 18.8188 17.6 18.7396 17.378 18.5913C17.156 18.4429 16.9829 18.2321 16.8808 17.9854C16.7786 17.7387 16.7519 17.4673 16.8039 17.2054C16.856 16.9435 16.9846 16.703 17.1734 16.5142C17.3622 16.3254 17.6028 16.1968 17.8646 16.1447C18.1265 16.0926 18.3979 16.1194 18.6446 16.2216C18.8913 16.3237 19.1021 16.4968 19.2505 16.7188C19.3988 16.9408 19.478 17.2018 19.478 17.4688C19.4776 17.8267 19.3352 18.1699 19.0822 18.4229C18.8291 18.676 18.4859 18.8184 18.128 18.8188ZM22.0667 17.0668H20.3375C20.2444 16.5486 19.9721 16.0796 19.5682 15.7418C19.1643 15.4041 18.6545 15.219 18.128 15.219C17.6015 15.219 17.0917 15.4041 16.6878 15.7418C16.2839 16.0796 16.0116 16.5486 15.9185 17.0668H8.5414C8.44133 16.5551 8.16654 16.0942 7.76407 15.7628C7.36159 15.4314 6.85645 15.2502 6.3351 15.2502C5.81375 15.2502 5.30861 15.4314 4.90613 15.7628C4.50366 16.0942 4.22887 16.5551 4.1288 17.0668H1.9333V11.9841H22.0667V17.0668Z" fill="black"/>
</svg>
