<svg width="24" height="24" viewBox="0 0 24 24" fill="none" xmlns="http://www.w3.org/2000/svg">
<path d="M15.5 2H14V8H4.6371L3.8333 5H2V5.5H3.4545L5.2056 12.0353C5.4335 12.8858 5.93569 13.6374 6.63426 14.1734C7.33284 14.7095 8.18877 15 9.0693 15H15.5C17.2239 15 18.8772 14.3152 20.0962 13.0962C21.3152 11.8772 22 10.2239 22 8.5C22 6.77609 21.3152 5.12279 20.0962 3.90381C18.8772 2.68482 17.2239 2 15.5 2ZM15.5 14.5H9.0693C8.29905 14.4991 7.55052 14.2446 6.93943 13.7757C6.32834 13.3068 5.88871 12.6497 5.6885 11.9059L4.776 8.5H14.5V2.5H15.5C17.0913 2.5 18.6174 3.13214 19.7426 4.25736C20.8679 5.38258 21.5 6.9087 21.5 8.5C21.5 10.0913 20.8679 11.6174 19.7426 12.7426C18.6174 13.8679 17.0913 14.5 15.5 14.5ZM8.5 17C8.00555 17 7.5222 17.1466 7.11107 17.4213C6.69995 17.696 6.37952 18.0865 6.1903 18.5433C6.00108 19.0001 5.95157 19.5028 6.04804 19.9877C6.1445 20.4727 6.3826 20.9181 6.73223 21.2678C7.08186 21.6174 7.52732 21.8555 8.01227 21.952C8.49723 22.0484 8.99989 21.9989 9.45671 21.8097C9.91352 21.6205 10.304 21.3 10.5787 20.8889C10.8534 20.4778 11 19.9945 11 19.5C11 18.837 10.7366 18.2011 10.2678 17.7322C9.79893 17.2634 9.16304 17 8.5 17ZM8.5 21.5C8.10444 21.5 7.71776 21.3827 7.38886 21.1629C7.05996 20.9432 6.80362 20.6308 6.65224 20.2654C6.50087 19.8999 6.46126 19.4978 6.53843 19.1098C6.6156 18.7219 6.80608 18.3655 7.08579 18.0858C7.36549 17.8061 7.72186 17.6156 8.10982 17.5384C8.49778 17.4613 8.89991 17.5009 9.26537 17.6522C9.63082 17.8036 9.94318 18.06 10.1629 18.3889C10.3827 18.7178 10.5 19.1044 10.5 19.5C10.4994 20.0302 10.2885 20.5386 9.91354 20.9135C9.5386 21.2885 9.03025 21.4994 8.5 21.5ZM17.5 17C17.0055 17 16.5222 17.1466 16.1111 17.4213C15.7 17.696 15.3795 18.0865 15.1903 18.5433C15.0011 19.0001 14.9516 19.5028 15.048 19.9877C15.1445 20.4727 15.3826 20.9181 15.7322 21.2678C16.0819 21.6174 16.5273 21.8555 17.0123 21.952C17.4972 22.0484 17.9999 21.9989 18.4567 21.8097C18.9135 21.6205 19.304 21.3 19.5787 20.8889C19.8534 20.4778 20 19.9945 20 19.5C20 18.837 19.7366 18.2011 19.2678 17.7322C18.7989 17.2634 18.163 17 17.5 17ZM17.5 21.5C17.1044 21.5 16.7178 21.3827 16.3889 21.1629C16.06 20.9432 15.8036 20.6308 15.6522 20.2654C15.5009 19.8999 15.4613 19.4978 15.5384 19.1098C15.6156 18.7219 15.8061 18.3655 16.0858 18.0858C16.3655 17.8061 16.7219 17.6156 17.1098 17.5384C17.4978 17.4613 17.8999 17.5009 18.2654 17.6522C18.6308 17.8036 18.9432 18.06 19.1629 18.3889C19.3827 18.7178 19.5 19.1044 19.5 19.5C19.4994 20.0302 19.2885 20.5386 18.9135 20.9135C18.5386 21.2885 18.0302 21.4994 17.5 21.5Z" fill="black"/>
</svg>
