<svg width="24" height="24" viewBox="0 0 24 24" fill="none" xmlns="http://www.w3.org/2000/svg">
<path d="M14.3 3.09981C14.5274 3.09981 14.7498 3.03236 14.9389 2.906C15.128 2.77963 15.2754 2.60003 15.3625 2.38989C15.4495 2.17976 15.4723 1.94853 15.4279 1.72545C15.3835 1.50237 15.274 1.29746 15.1132 1.13663C14.9523 0.975802 14.7474 0.866275 14.5243 0.821902C14.3013 0.777529 14.07 0.800303 13.8599 0.887344C13.6498 0.974385 13.4702 1.12178 13.3438 1.3109C13.2174 1.50002 13.15 1.72236 13.15 1.94981C13.15 2.2548 13.2712 2.54731 13.4868 2.76298C13.7025 2.97864 13.995 3.09981 14.3 3.09981ZM19.7 3.09981C19.9274 3.09981 20.1498 3.03236 20.3389 2.906C20.528 2.77963 20.6754 2.60003 20.7625 2.38989C20.8495 2.17976 20.8723 1.94853 20.8279 1.72545C20.7835 1.50237 20.674 1.29746 20.5132 1.13663C20.3523 0.975802 20.1474 0.866275 19.9244 0.821902C19.7013 0.777529 19.47 0.800303 19.2599 0.887344C19.0498 0.974385 18.8702 1.12178 18.7438 1.3109C18.6174 1.50002 18.55 1.72236 18.55 1.94981C18.55 2.2548 18.6712 2.54731 18.8868 2.76298C19.1025 2.97864 19.395 3.09981 19.7 3.09981ZM17.75 4.94681V6.9998H21.65V4.94681C21.3939 4.69073 21.0899 4.48759 20.7553 4.349C20.4207 4.21041 20.0621 4.13908 19.7 4.13908C19.3378 4.13908 18.9792 4.21041 18.6447 4.349C18.3101 4.48759 18.0061 4.69073 17.75 4.94681ZM16.25 4.94681C15.9939 4.69073 15.6899 4.48759 15.3553 4.349C15.0207 4.21041 14.6621 4.13908 14.3 4.13908C13.9378 4.13908 13.5792 4.21041 13.2447 4.349C12.9101 4.48759 12.6061 4.69073 12.35 4.94681V6.9998H16.25V4.94681ZM16.6458 10.5257C16.5396 10.0905 16.2903 9.7035 15.938 9.42682C15.5856 9.15013 15.1506 8.99976 14.7026 8.99981H6.5317C6.08371 8.99978 5.64869 9.15016 5.29636 9.42685C4.94403 9.70353 4.69479 10.0905 4.5886 10.5257C4.31317 11.6718 4.09731 12.8314 3.9419 13.9998H1.8933V15.4026L3.6157 16.0007V20.7181H3.6172V21.9335C3.6172 22.1085 3.68673 22.2764 3.8105 22.4002C3.93428 22.524 4.10215 22.5935 4.2772 22.5935H4.8407C5.01574 22.5935 5.18361 22.524 5.30739 22.4002C5.43116 22.2764 5.5007 22.1085 5.5007 21.9335V20.9998H15.7456V21.9335C15.7456 22.1085 15.8151 22.2764 15.9389 22.4002C16.0627 22.524 16.2306 22.5935 16.4056 22.5935H16.9574C17.1324 22.5935 17.3003 22.524 17.4241 22.4002C17.5479 22.2764 17.6174 22.1085 17.6174 21.9335V20.7181H17.6189V16.0007L19.3415 15.4026V13.9998H17.2925C17.1371 12.8314 16.9212 11.6718 16.6458 10.5257ZM6.18 18.1603C5.97795 18.1603 5.78044 18.1004 5.61245 17.9881C5.44446 17.8758 5.31354 17.7163 5.23623 17.5296C5.15892 17.3429 5.13871 17.1375 5.17814 16.9393C5.21757 16.7412 5.31487 16.5592 5.45775 16.4163C5.60063 16.2734 5.78266 16.1761 5.98083 16.1367C6.179 16.0973 6.3844 16.1176 6.57107 16.1949C6.75773 16.2722 6.91728 16.4031 7.02953 16.5711C7.14178 16.7391 7.2017 16.9367 7.2017 17.1387C7.20171 17.2729 7.17529 17.4057 7.12395 17.5297C7.07261 17.6537 6.99735 17.7663 6.90247 17.8612C6.80759 17.956 6.69495 18.0313 6.57099 18.0826C6.44703 18.1339 6.31417 18.1603 6.18 18.1603ZM15.0536 18.1603C14.8515 18.1603 14.654 18.1004 14.4861 17.9881C14.3181 17.8758 14.1871 17.7163 14.1098 17.5296C14.0325 17.3429 14.0123 17.1375 14.0517 16.9393C14.0912 16.7412 14.1885 16.5592 14.3314 16.4163C14.4742 16.2734 14.6563 16.1761 14.8544 16.1367C15.0526 16.0973 15.258 16.1176 15.4447 16.1949C15.6313 16.2722 15.7909 16.4031 15.9031 16.5711C16.0154 16.7391 16.0753 16.9367 16.0753 17.1387C16.0753 17.4096 15.9677 17.6694 15.7762 17.861C15.5847 18.0526 15.3249 18.1603 15.054 18.1603H15.0536ZM4.4475 13.9998C4.59929 12.8714 4.80857 11.7514 5.0745 10.6443C5.13942 10.4018 5.26523 10.18 5.44 9.99981H15.795C15.9696 10.1801 16.0953 10.4019 16.1602 10.6443C16.426 11.7514 16.6351 12.8714 16.7869 13.9998H4.4475Z" fill="black"/>
</svg>
