<svg width="24" height="24" viewBox="0 0 24 24" fill="none" xmlns="http://www.w3.org/2000/svg">
<path d="M19.9282 15.0432L17.3193 2H13.5C13.2348 2 12.9804 2.10536 12.7929 2.29289C12.6053 2.48043 12.5 2.73478 12.5 3C12.5 3.26522 12.6053 3.51957 12.7929 3.70711C12.9804 3.89464 13.2348 4 13.5 4H15.6807L17.3207 12.2026L12.5234 17H7.31628C7.08039 16.3328 6.61621 15.7704 6.0058 15.4124C5.39539 15.0543 4.67804 14.9235 3.98055 15.0432C3.28305 15.1629 2.65032 15.5253 2.19418 16.0663C1.73803 16.6074 1.48785 17.2923 1.48785 18C1.48785 18.7077 1.73803 19.3926 2.19418 19.9337C2.65032 20.4747 3.28305 20.8371 3.98055 20.9568C4.67804 21.0765 5.39539 20.9457 6.0058 20.5876C6.61621 20.2296 7.08039 19.6672 7.31628 19H13.3516L17.7922 14.5594L17.967 15.434C17.3587 15.7957 16.8979 16.3608 16.666 17.0294C16.4341 17.6981 16.446 18.4271 16.6997 19.0878C16.9533 19.7485 17.4324 20.2982 18.0522 20.6399C18.6719 20.9815 19.3925 21.093 20.0866 20.9547C20.7807 20.8164 21.4035 20.4372 21.845 19.8841C22.2865 19.331 22.5182 18.6396 22.4993 17.9322C22.4803 17.2247 22.2118 16.5468 21.7414 16.0181C21.2709 15.4894 20.6286 15.1441 19.9282 15.0432ZM4.49998 19.2C4.26264 19.2 4.03064 19.1296 3.8333 18.9978C3.63596 18.8659 3.48215 18.6785 3.39133 18.4592C3.3005 18.24 3.27674 17.9987 3.32304 17.7659C3.36934 17.5331 3.48363 17.3193 3.65145 17.1515C3.81928 16.9836 4.0331 16.8694 4.26587 16.8231C4.49865 16.7768 4.73993 16.8005 4.9592 16.8913C5.17847 16.9822 5.36589 17.136 5.49774 17.3333C5.6296 17.5307 5.69998 17.7627 5.69998 18C5.69961 18.3181 5.57306 18.6232 5.3481 18.8481C5.12314 19.0731 4.81813 19.1996 4.49998 19.2ZM19.5 19.2C19.2626 19.2 19.0306 19.1296 18.8333 18.9978C18.636 18.8659 18.4822 18.6785 18.3913 18.4592C18.3005 18.24 18.2767 17.9987 18.323 17.7659C18.3693 17.5331 18.4836 17.3193 18.6515 17.1515C18.8193 16.9836 19.0331 16.8694 19.2659 16.8231C19.4986 16.7768 19.7399 16.8005 19.9592 16.8913C20.1785 16.9822 20.3659 17.136 20.4977 17.3333C20.6296 17.5307 20.7 17.7627 20.7 18C20.6996 18.3181 20.5731 18.6232 20.3481 18.8481C20.1231 19.0731 19.8181 19.1996 19.5 19.2Z" fill="black"/>
</svg>
