<svg width="24" height="24" viewBox="0 0 24 24" fill="none" xmlns="http://www.w3.org/2000/svg">
<path d="M20.348 15.5447L20.8472 11.551C20.8902 11.2069 20.8126 10.8586 20.6278 10.5652C20.4429 10.2719 20.1621 10.0517 19.8331 9.94201L18.8331 9.60871V5.33331C18.8329 4.84717 18.6398 4.38099 18.296 4.03722C17.9523 3.69345 17.4861 3.50022 17 3.50001H13.5V2.33301H10.5V3.50001H7C6.51382 3.50014 6.04759 3.69333 5.70381 4.03712C5.36003 4.3809 5.16683 4.84713 5.1667 5.33331V9.60851L4.1667 9.94201C3.83774 10.0517 3.55693 10.2719 3.37204 10.5652C3.18715 10.8586 3.10961 11.2069 3.1526 11.551L3.6518 15.5444C2.83473 15.1098 1.92542 14.8772 1 14.8662V16.3C1.84352 16.3135 2.66654 16.5621 3.3765 17.0178C4.31079 17.6123 5.39265 17.9339 6.5 17.9463C7.60737 17.9339 8.68923 17.6122 9.6235 17.0176C10.3284 16.5514 11.1549 16.3028 12 16.3028C12.8451 16.3028 13.6716 16.5514 14.3765 17.0176C15.3055 17.6236 16.3908 17.9463 17.5 17.9463C18.6092 17.9463 19.6945 17.6236 20.6235 17.0176C21.3335 16.562 22.1565 16.3134 23 16.3V14.8662C22.0745 14.8773 21.1651 15.11 20.348 15.5447ZM17.3335 9.10881L12 7.33081L6.6665 9.10851V5.33301C6.66663 5.24465 6.70183 5.15995 6.76436 5.09751C6.82689 5.03508 6.91164 5.00001 7 5.00001H17C17.0884 5.00001 17.1731 5.03508 17.2356 5.09751C17.2982 5.15995 17.3334 5.24465 17.3335 5.33301V9.10881ZM15.123 19.4609C14.1927 18.8586 13.108 18.5381 11.9998 18.5381C10.8915 18.5381 9.80682 18.8586 8.8765 19.4609C8.16654 19.9166 7.34352 20.1652 6.5 20.1787C5.65633 20.1651 4.83317 19.9166 4.123 19.4609C3.18855 18.8672 2.10703 18.5459 1 18.5332V19.9668C1.84335 19.9805 2.66624 20.2287 3.3765 20.6836C4.31077 21.2782 5.39263 21.5999 6.5 21.6123C7.60722 21.6 8.68894 21.2783 9.623 20.6836C10.3283 20.2183 11.1547 19.9702 11.9998 19.9702C12.8448 19.9702 13.6712 20.2183 14.3765 20.6836C15.3054 21.2896 16.3906 21.6123 17.4998 21.6123C18.6089 21.6123 19.6941 21.2896 20.623 20.6836C21.3335 20.2287 22.1565 19.9806 23 19.9668V18.5332C21.8928 18.546 20.8112 18.8673 19.8765 19.4609C19.1715 19.9272 18.345 20.1758 17.4998 20.1758C16.6545 20.1758 15.828 19.9272 15.123 19.4609Z" fill="black"/>
</svg>
