<svg width="24" height="24" viewBox="0 0 24 24" fill="none" xmlns="http://www.w3.org/2000/svg">
<path d="M5.0879 19.65L4.7344 20.0035C6.66281 21.9277 9.27578 23.0084 12 23.0084C14.7242 23.0084 17.3372 21.9277 19.2656 20.0035L18.9121 19.65C17.0773 21.4801 14.5915 22.5079 12 22.5079C9.40848 22.5079 6.92274 21.4801 5.0879 19.65ZM15.7412 16.48L15.3877 16.1265C14.943 16.5717 14.4149 16.9248 13.8336 17.1658C13.2523 17.4068 12.6292 17.5308 12 17.5308C11.3708 17.5308 10.7477 17.4068 10.1664 17.1658C9.5851 16.9248 9.05701 16.5717 8.6123 16.1265L8.2588 16.48C8.74992 16.9716 9.33312 17.3616 9.97506 17.6277C10.617 17.8938 11.3051 18.0308 12 18.0308C12.6949 18.0308 13.383 17.8938 14.0249 17.6277C14.6669 17.3616 15.2501 16.9716 15.7412 16.48ZM17.6875 5L15.5 7.1875V3C15.5 2.73478 15.3946 2.48043 15.2071 2.29289C15.0196 2.10536 14.7652 2 14.5 2H9.5C9.23478 2 8.98043 2.10536 8.79289 2.29289C8.60536 2.48043 8.5 2.73478 8.5 3V7.1875L6.3125 5H1V10H6.3125L8.5 7.8125V12C8.5 12.2652 8.60536 12.5196 8.79289 12.7071C8.98043 12.8946 9.23478 13 9.5 13H14.5C14.7652 13 15.0196 12.8946 15.2071 12.7071C15.3946 12.5196 15.5 12.2652 15.5 12V7.8125L17.6875 10H23V5H17.6875Z" fill="black"/>
</svg>
