<svg width="24" height="24" viewBox="0 0 24 24" fill="none" xmlns="http://www.w3.org/2000/svg">
<path d="M24 11.3334L22.7551 7.97009C22.6129 7.58759 22.3571 7.25774 22.022 7.02481C21.687 6.79188 21.2887 6.66702 20.8806 6.66699H16.2778V12.8059H0V18.0001H1.8912C2.03759 18.456 2.31699 18.8578 2.69348 19.1536C3.06998 19.4495 3.52637 19.6261 4.00398 19.6605C4.48159 19.695 4.9586 19.5858 5.37368 19.3471C5.78877 19.1083 6.12296 18.7509 6.3333 18.3207C6.54366 18.7509 6.87786 19.1083 7.29295 19.347C7.70804 19.5858 8.18505 19.695 8.66266 19.6605C9.14028 19.626 9.59667 19.4495 9.97317 19.1536C10.3497 18.8577 10.6291 18.456 10.7755 18.0001H17.3484C17.504 18.484 17.8091 18.9061 18.2199 19.2055C18.6307 19.505 19.1259 19.6663 19.6342 19.6663C20.1425 19.6663 20.6377 19.505 21.0485 19.2055C21.4593 18.9061 21.7644 18.484 21.92 18.0001H24V11.3334ZM20.8806 8.03339C21.0087 8.03304 21.1339 8.0717 21.2395 8.14423C21.345 8.21675 21.4261 8.3197 21.4717 8.43939L22.3217 10.7334H17.6445V8.03339H20.8806ZM4.1771 18.3667C3.95623 18.3667 3.74033 18.3012 3.55668 18.1785C3.37304 18.0558 3.22991 17.8814 3.14539 17.6773C3.06088 17.4733 3.03877 17.2487 3.08186 17.0321C3.12496 16.8155 3.23133 16.6165 3.38751 16.4603C3.54369 16.3042 3.74268 16.1978 3.9593 16.1547C4.17593 16.1117 4.40046 16.1338 4.60451 16.2183C4.80856 16.3029 4.98296 16.446 5.10565 16.6297C5.22834 16.8133 5.29382 17.0292 5.2938 17.2501C5.29346 17.5461 5.17569 17.83 4.96634 18.0393C4.75699 18.2486 4.47315 18.3664 4.1771 18.3667ZM8.4896 18.3667C8.26873 18.3667 8.05281 18.3012 7.86916 18.1785C7.6855 18.0558 7.54236 17.8814 7.45782 17.6774C7.37329 17.4733 7.35117 17.2488 7.39425 17.0322C7.43734 16.8155 7.54369 16.6165 7.69987 16.4604C7.85605 16.3042 8.05504 16.1978 8.27167 16.1547C8.4883 16.1117 8.71284 16.1338 8.91689 16.2183C9.12094 16.3028 9.29535 16.446 9.41804 16.6296C9.54074 16.8133 9.60622 17.0292 9.6062 17.2501C9.60586 17.5461 9.48816 17.8298 9.27892 18.0391C9.06968 18.2484 8.78597 18.3662 8.49 18.3667H8.4896ZM19.6343 18.3667C19.4134 18.3667 19.1975 18.3012 19.0139 18.1785C18.8302 18.0558 18.6871 17.8814 18.6026 17.6773C18.5181 17.4733 18.496 17.2487 18.5391 17.0321C18.5822 16.8155 18.6885 16.6165 18.8447 16.4603C19.0009 16.3042 19.1999 16.1978 19.4165 16.1547C19.6331 16.1117 19.8577 16.1338 20.0617 16.2183C20.2658 16.3029 20.4402 16.446 20.5629 16.6297C20.6855 16.8133 20.751 17.0292 20.751 17.2501C20.7507 17.5461 20.6329 17.83 20.4235 18.0393C20.2142 18.2486 19.9304 18.3664 19.6343 18.3667ZM21.9616 16.6334C21.8278 16.118 21.5266 15.6616 21.1054 15.3358C20.6842 15.01 20.1668 14.8333 19.6343 14.8333C19.1018 14.8333 18.5844 15.01 18.1632 15.3358C17.742 15.6616 17.4408 16.118 17.307 16.6334H10.817C10.6939 16.1582 10.4282 15.7322 10.0556 15.4126C9.68307 15.0929 9.22157 14.8951 8.7332 14.8457C8.24484 14.7962 7.75305 14.8976 7.32401 15.136C6.89497 15.3745 6.54926 15.7386 6.3334 16.1795C6.11756 15.7386 5.77187 15.3745 5.34283 15.136C4.91379 14.8975 4.422 14.7962 3.93364 14.8456C3.44527 14.8951 2.98377 15.0929 2.61123 15.4125C2.2387 15.7322 1.973 16.1582 1.8499 16.6334H1.3666V14.1723H17.6445V12.1001H22.6334V16.6334H21.9616Z" fill="black"/>
</svg>
