<svg width="24" height="24" viewBox="0 0 24 24" fill="none" xmlns="http://www.w3.org/2000/svg">
<path d="M19 11.1672C18.8444 11.1672 18.6975 11.1987 18.5457 11.2132L16.667 4.2002H13.387H13.386C13.1738 4.2002 12.9703 4.28448 12.8203 4.43451C12.6703 4.58454 12.586 4.78802 12.586 5.0002C12.586 5.21237 12.6703 5.41585 12.8203 5.56588C12.9703 5.71591 13.1738 5.8002 13.386 5.8002H13.387H15.4388L16.0288 8.0002H13.1094C12.4076 8.00131 11.7184 8.1865 11.1106 8.53727C10.5028 8.88805 9.99759 9.39213 9.6455 9.9992L4 10.0002V11.274C3.13954 11.4538 2.34445 11.8649 1.70039 12.4632C1.05633 13.0614 0.587713 13.8241 0.345041 14.6689C0.102369 15.5138 0.0948365 16.4089 0.323255 17.2577C0.551674 18.1066 1.00738 18.877 1.64129 19.486C2.27519 20.095 3.06325 20.5195 3.92056 20.7137C4.77787 20.9079 5.67193 20.8645 6.50641 20.5882C7.34088 20.3119 8.08414 19.8131 8.6561 19.1456C9.22806 18.4781 9.60704 17.6672 9.7522 16.8002H14.2478C14.4016 17.7076 14.8116 18.5522 15.4296 19.2343C16.0476 19.9164 16.8477 20.4075 17.7356 20.6499C18.6235 20.8922 19.5622 20.8756 20.441 20.6021C21.3198 20.3285 22.102 19.8094 22.6955 19.1059C23.289 18.4024 23.6689 17.5439 23.7906 16.6316C23.9122 15.7193 23.7705 14.7912 23.3821 13.9568C22.9937 13.1224 22.3748 12.4165 21.5983 11.9222C20.8219 11.4279 19.9204 11.166 19 11.1672ZM8.052 16.8002C7.85747 17.5453 7.39811 18.194 6.75987 18.6249C6.12163 19.0559 5.34825 19.2395 4.58442 19.1414C3.8206 19.0434 3.11868 18.6703 2.60999 18.0922C2.1013 17.514 1.82071 16.7703 1.82071 16.0002C1.82071 15.2301 2.1013 14.4864 2.60999 13.9082C3.11868 13.3301 3.8206 12.957 4.58442 12.859C5.34825 12.7609 6.12163 12.9445 6.75987 13.3754C7.39811 13.8064 7.85747 14.4551 8.052 15.2002H4V16.8002H8.052ZM19 19.1672C18.3016 19.1696 17.6221 18.9403 17.068 18.5151C16.5139 18.09 16.1164 17.4931 15.9378 16.8179C15.7593 16.1427 15.8097 15.4274 16.0812 14.7839C16.3527 14.1404 16.8299 13.6052 17.4382 13.262L18.0427 15.5178C17.9629 15.6663 17.9197 15.8317 17.9167 16.0002C17.9167 16.2875 18.0308 16.563 18.234 16.7662C18.4371 16.9694 18.7127 17.0835 19 17.0835C19.2873 17.0835 19.5628 16.9694 19.766 16.7662C19.9692 16.563 20.0833 16.2875 20.0833 16.0002C20.081 15.8236 20.0349 15.6503 19.949 15.496C19.863 15.3416 19.74 15.2111 19.5911 15.1162L18.9801 12.8352L19.0001 12.8332C19.84 12.8332 20.6456 13.1669 21.2395 13.7608C21.8334 14.3547 22.1671 15.1603 22.1671 16.0002C22.1671 16.8401 21.8334 17.6457 21.2395 18.2396C20.6456 18.8335 19.84 19.1672 19.0001 19.1672H19ZM20.2539 9.2502H20.7148V6.7502H20.2539C19.9224 6.7502 19.6044 6.88189 19.37 7.11631C19.1356 7.35073 19.0039 7.66867 19.0039 8.0002C19.0039 8.33172 19.1356 8.64966 19.37 8.88408C19.6044 9.1185 19.9224 9.2502 20.2539 9.2502Z" fill="black"/>
</svg>
