<svg width="24" height="24" viewBox="0 0 24 24" fill="none" xmlns="http://www.w3.org/2000/svg">
<path d="M12.522 7.7216C12.2066 7.68525 11.8895 7.66692 11.572 7.6667H4.432C4.11458 7.66687 3.79742 7.68476 3.482 7.7203C2.88842 7.78726 2.33722 8.0606 1.92466 8.49259C1.5121 8.92458 1.2644 9.48777 1.2248 10.0838C1.07493 12.2743 1 14.468 1 16.6648V22.3401C1 22.5151 1.06954 22.683 1.19331 22.8068C1.31708 22.9306 1.48496 23.0001 1.66 23.0001H3.34C3.51504 23.0001 3.68292 22.9306 3.80669 22.8068C3.93046 22.683 4 22.5151 4 22.3401V21.0001H12V22.3401C12 22.4268 12.0171 22.5126 12.0502 22.5927C12.0834 22.6727 12.132 22.7455 12.1933 22.8068C12.2546 22.8681 12.3274 22.9167 12.4074 22.9499C12.4875 22.983 12.5733 23.0001 12.66 23.0001H14.34C14.515 23.0001 14.6829 22.9306 14.8067 22.8068C14.9305 22.683 15 22.5151 15 22.3401V16.6648C15 14.4692 14.925 12.2755 14.7751 10.0838C14.7356 9.48854 14.4884 8.92604 14.0767 8.49435C13.6649 8.06266 13.1147 7.78919 12.522 7.7216ZM2.2229 10.1491C2.25191 9.7472 2.43173 9.3711 2.72634 9.09619C3.02094 8.82129 3.40855 8.66787 3.8115 8.6667H12.1885C12.5914 8.66787 12.9791 8.82129 13.2737 9.09619C13.5683 9.3711 13.7481 9.7472 13.7771 10.1491C13.8684 11.4817 13.9219 12.8255 13.9571 14.1691H2.0428C2.0781 12.8255 2.1316 11.4817 2.2229 10.1491ZM14 22.0001H13V20.0001H3V22.0001H2V16.6648C2 16.1681 2.0178 15.6676 2.0256 15.1687H13.9744C13.9822 15.6676 14 16.1681 14 16.6648V22.0001ZM4.2439 16.1273C3.97864 16.1273 3.71934 16.206 3.4988 16.3534C3.27825 16.5008 3.10636 16.7102 3.00486 16.9553C2.90337 17.2004 2.87682 17.4701 2.92858 17.7302C2.98034 17.9904 3.10809 18.2293 3.29566 18.4169C3.48324 18.6045 3.72222 18.7322 3.98238 18.7839C4.24255 18.8357 4.51221 18.8091 4.75728 18.7076C5.00234 18.6061 5.21181 18.4342 5.35917 18.2136C5.50654 17.9931 5.5852 17.7338 5.5852 17.4685C5.58521 17.2924 5.55053 17.1179 5.48312 16.9552C5.41572 16.7925 5.31692 16.6446 5.19237 16.5201C5.06781 16.3955 4.91994 16.2967 4.7572 16.2293C4.59446 16.1619 4.42004 16.1273 4.2439 16.1273ZM4.2439 18.0097C4.13686 18.0097 4.03224 17.9779 3.94325 17.9184C3.85427 17.859 3.78491 17.7744 3.74397 17.6755C3.70302 17.5766 3.69232 17.4678 3.71321 17.3629C3.7341 17.2579 3.78566 17.1615 3.86135 17.0858C3.93704 17.0101 4.03347 16.9586 4.13845 16.9377C4.24343 16.9168 4.35225 16.9275 4.45113 16.9685C4.55002 17.0095 4.63453 17.0788 4.694 17.1678C4.75346 17.2568 4.7852 17.3615 4.7852 17.4685C4.78509 17.6121 4.72804 17.7497 4.62656 17.8512C4.52508 17.9528 4.38746 18.0099 4.2439 18.0101V18.0097ZM11.7561 16.1273C11.4908 16.1273 11.2315 16.2059 11.0109 16.3533C10.7904 16.5006 10.6184 16.7101 10.5169 16.9552C10.4154 17.2002 10.3888 17.4699 10.4406 17.7301C10.4923 17.9903 10.62 18.2293 10.8076 18.4168C10.9952 18.6044 11.2341 18.7322 11.4943 18.7839C11.7545 18.8357 12.0242 18.8091 12.2692 18.7076C12.5143 18.6061 12.7238 18.4342 12.8712 18.2136C13.0185 17.9931 13.0972 17.7338 13.0972 17.4685C13.0972 17.1128 12.9559 16.7717 12.7044 16.5202C12.4529 16.2687 12.1118 16.1273 11.7561 16.1273ZM11.7561 18.0097C11.6491 18.0097 11.5444 17.9779 11.4555 17.9184C11.3665 17.859 11.2971 17.7744 11.2562 17.6755C11.2152 17.5766 11.2045 17.4678 11.2254 17.3629C11.2463 17.2579 11.2979 17.1615 11.3735 17.0858C11.4492 17.0101 11.5457 16.9586 11.6507 16.9377C11.7556 16.9168 11.8644 16.9275 11.9633 16.9685C12.0622 17.0095 12.1467 17.0788 12.2062 17.1678C12.2657 17.2568 12.2974 17.3615 12.2974 17.4685C12.2973 17.6121 12.2403 17.7498 12.1388 17.8513C12.0373 17.9528 11.8997 18.01 11.7561 18.0101V18.0097ZM19.5 8.3776V3.6226L20.9712 5.0938L21.6782 4.3868L19 1.7085L16.3218 4.3868L17.0288 5.0938L18.5 3.6226V8.3776L17.0288 6.9064L16.3218 7.6134L19 10.2917L21.6782 7.6134L20.9712 6.9064L19.5 8.3776Z" fill="black"/>
</svg>
