<svg width="24" height="24" viewBox="0 0 24 24" fill="none" xmlns="http://www.w3.org/2000/svg">
<path d="M22.5781 4.21091H20.4681L18.9081 1.21191H17.7754L18.3625 4.21091H16.57L15.96 3.19621H15.191V6.77781H15.96L16.57 5.76311H18.3627L17.7756 8.74651H18.9089L20.4689 5.76311H22.5789C22.7847 5.76311 22.9821 5.68135 23.1277 5.5358C23.2732 5.39025 23.355 5.19285 23.355 4.98701C23.355 4.78118 23.2732 4.58378 23.1277 4.43823C22.9821 4.29268 22.7847 4.21091 22.5789 4.21091H22.5781ZM11.6884 7.00001H4.3116C3.52007 7.00002 2.7583 7.30173 2.1814 7.84369C1.60451 8.38565 1.25588 9.12712 1.2065 9.91711C1.06883 12.1199 1 14.3255 1 16.5338V22.34C1 22.5151 1.06954 22.6829 1.19331 22.8067C1.31708 22.9305 1.48496 23 1.66 23H2.34C2.51504 23 2.68292 22.9305 2.80669 22.8067C2.93046 22.6829 3 22.5151 3 22.34V21H13V22.34C13 22.5151 13.0695 22.6829 13.1933 22.8067C13.3171 22.9305 13.485 23 13.66 23H14.34C14.515 23 14.6829 22.9305 14.8067 22.8067C14.9305 22.6829 15 22.5151 15 22.34V16.5338C15 14.3266 14.9312 12.121 14.7935 9.91711C14.7441 9.12712 14.3955 8.38565 13.8186 7.84369C13.2417 7.30173 12.4799 7.00002 11.6884 7.00001ZM3.2026 10.0419C3.22067 9.75992 3.34532 9.49535 3.55126 9.30187C3.75721 9.10839 4.02903 9.00048 4.3116 9.00001H11.6884C11.971 9.00047 12.2428 9.10838 12.4487 9.30184C12.6546 9.4953 12.7793 9.75984 12.7974 10.0418C12.8794 11.3539 12.928 12.6771 12.9602 14H3.04C3.072 12.6771 3.1206 11.354 3.2026 10.0419ZM4 18.1605C3.79794 18.1605 3.60042 18.1006 3.4324 17.9884C3.26439 17.8761 3.13343 17.7166 3.05609 17.5299C2.97876 17.3433 2.95851 17.1378 2.99792 16.9397C3.03732 16.7415 3.13462 16.5595 3.27748 16.4166C3.42035 16.2737 3.60239 16.1764 3.80056 16.137C3.99873 16.0975 4.20415 16.1178 4.39083 16.1951C4.57751 16.2724 4.73706 16.4033 4.84932 16.5713C4.96158 16.7393 5.0215 16.9369 5.0215 17.1389C5.02151 17.2731 4.9951 17.4059 4.94377 17.5299C4.89244 17.6538 4.8172 17.7664 4.72234 17.8613C4.62749 17.9562 4.51487 18.0314 4.39093 18.0827C4.26699 18.1341 4.13415 18.1605 4 18.1605ZM12 18.1605C11.7979 18.1605 11.6004 18.1006 11.4324 17.9884C11.2644 17.8761 11.1334 17.7166 11.0561 17.5299C10.9788 17.3433 10.9585 17.1378 10.9979 16.9397C11.0373 16.7415 11.1346 16.5595 11.2775 16.4166C11.4204 16.2737 11.6024 16.1764 11.8006 16.137C11.9987 16.0975 12.2041 16.1178 12.3908 16.1951C12.5775 16.2724 12.7371 16.4033 12.8493 16.5713C12.9616 16.7393 13.0215 16.9369 13.0215 17.1389C13.0215 17.2731 12.9951 17.4059 12.9438 17.5299C12.8924 17.6538 12.8172 17.7664 12.7223 17.8613C12.6275 17.9562 12.5149 18.0314 12.3909 18.0827C12.267 18.1341 12.1342 18.1605 12 18.1605Z" fill="black"/>
</svg>
