<svg width="24" height="24" viewBox="0 0 24 24" fill="none" xmlns="http://www.w3.org/2000/svg">
<path d="M14.3 3.29981C14.5472 3.29981 14.7889 3.22649 14.9945 3.08914C15.2 2.95179 15.3602 2.75657 15.4548 2.52816C15.5495 2.29975 15.5742 2.04842 15.526 1.80594C15.4777 1.56347 15.3587 1.34074 15.1839 1.16592C15.0091 0.991106 14.7863 0.872055 14.5439 0.823824C14.3014 0.775592 14.05 0.800346 13.8216 0.894956C13.5932 0.989565 13.398 1.14978 13.2607 1.35534C13.1233 1.5609 13.05 1.80258 13.05 2.04981C13.05 2.38133 13.1817 2.69927 13.4161 2.93369C13.6505 3.16811 13.9685 3.29981 14.3 3.29981ZM14.3 1.49981C14.4088 1.49981 14.5151 1.53206 14.6056 1.5925C14.696 1.65293 14.7665 1.73883 14.8081 1.83933C14.8498 1.93983 14.8607 2.05042 14.8394 2.1571C14.8182 2.26379 14.7658 2.3618 14.6889 2.43871C14.612 2.51563 14.514 2.56802 14.4073 2.58924C14.3006 2.61046 14.19 2.59957 14.0895 2.55794C13.989 2.51631 13.9031 2.44582 13.8427 2.35537C13.7823 2.26492 13.75 2.15858 13.75 2.04981C13.7502 1.90399 13.8082 1.76421 13.9113 1.6611C14.0144 1.558 14.1542 1.49999 14.3 1.49981ZM19.7 3.29981C19.9472 3.29981 20.1889 3.22649 20.3945 3.08914C20.6 2.95179 20.7602 2.75657 20.8548 2.52816C20.9495 2.29975 20.9742 2.04842 20.926 1.80594C20.8777 1.56347 20.7587 1.34074 20.5839 1.16592C20.4091 0.991106 20.1863 0.872055 19.9439 0.823824C19.7014 0.775592 19.45 0.800346 19.2216 0.894956C18.9932 0.989565 18.798 1.14978 18.6607 1.35534C18.5233 1.5609 18.45 1.80258 18.45 2.04981C18.45 2.38133 18.5817 2.69927 18.8161 2.93369C19.0505 3.16811 19.3685 3.29981 19.7 3.29981ZM19.7 1.49981C19.8088 1.49981 19.9151 1.53206 20.0056 1.5925C20.096 1.65293 20.1665 1.73883 20.2081 1.83933C20.2498 1.93983 20.2606 2.05042 20.2394 2.1571C20.2182 2.26379 20.1658 2.3618 20.0889 2.43871C20.012 2.51563 19.914 2.56802 19.8073 2.58924C19.7006 2.61046 19.59 2.59957 19.4895 2.55794C19.389 2.51631 19.3031 2.44582 19.2427 2.35537C19.1823 2.26492 19.15 2.15858 19.15 2.04981C19.1501 1.90398 19.2081 1.76416 19.3112 1.66104C19.4144 1.55793 19.5542 1.49994 19.7 1.49981ZM19.7 4.13911C19.3378 4.13865 18.979 4.20977 18.6444 4.34838C18.3098 4.48699 18.0058 4.69036 17.75 4.94681V6.99981H21.65V4.94681C21.3942 4.69034 21.0903 4.48695 20.7556 4.34834C20.421 4.20972 20.0622 4.13862 19.7 4.13911ZM20.85 6.19981H18.55V5.31191C18.8845 5.06956 19.287 4.93907 19.7 4.93907C20.113 4.93907 20.5155 5.06956 20.85 5.31191V6.19981ZM16.25 4.94681C15.9939 4.69071 15.6899 4.48757 15.3553 4.34897C15.0208 4.21038 14.6621 4.13904 14.3 4.13904C13.9378 4.13904 13.5792 4.21038 13.2447 4.34897C12.9101 4.48757 12.6061 4.69071 12.35 4.94681V6.99981H16.25V4.94681ZM15.45 6.19981H13.15V5.31191C13.4845 5.06956 13.887 4.93907 14.3 4.93907C14.713 4.93907 15.1155 5.06956 15.45 5.31191V6.19981ZM6.3611 15.8676C6.09584 15.8676 5.83654 15.9463 5.61599 16.0937C5.39545 16.2411 5.22356 16.4505 5.12206 16.6956C5.02056 16.9407 4.99402 17.2104 5.04578 17.4705C5.09754 17.7307 5.22529 17.9697 5.41286 18.1572C5.60043 18.3448 5.83941 18.4725 6.09958 18.5242C6.35974 18.576 6.62941 18.5494 6.87447 18.4479C7.11954 18.3464 7.329 18.1745 7.47637 17.9539C7.62374 17.7334 7.7024 17.4741 7.7024 17.2088C7.70241 17.0327 7.66772 16.8582 7.60032 16.6955C7.53292 16.5328 7.43412 16.3849 7.30956 16.2604C7.18501 16.1358 7.03714 16.037 6.8744 15.9696C6.71166 15.9023 6.53724 15.8676 6.3611 15.8676ZM6.3611 17.75C6.25406 17.75 6.14942 17.7183 6.06042 17.6588C5.97142 17.5993 5.90205 17.5148 5.86109 17.4159C5.82013 17.317 5.80941 17.2082 5.83029 17.1032C5.85118 16.9982 5.90272 16.9018 5.97841 16.8261C6.0541 16.7504 6.15053 16.6989 6.25551 16.678C6.3605 16.6571 6.46931 16.6678 6.5682 16.7088C6.6671 16.7498 6.75162 16.8191 6.81109 16.9081C6.87055 16.9971 6.9023 17.1018 6.9023 17.2088C6.90206 17.3522 6.84496 17.4897 6.74351 17.5912C6.64206 17.6926 6.50454 17.7496 6.3611 17.7498V17.75ZM17.0686 10.4338C16.9664 10.0527 16.7499 9.71214 16.4482 9.45789C16.1465 9.20364 15.7742 9.04796 15.3813 9.01181C15.3225 9.00391 15.1907 8.99981 15.13 8.99981H6.1052C6.0513 8.99981 5.9252 9.00301 5.8728 9.00931C5.47614 9.04179 5.09924 9.19611 4.79369 9.45112C4.48815 9.70613 4.2689 10.0494 4.166 10.4338C4.0391 10.9038 3.9346 11.3787 3.8306 11.8538H1.4287V14.0892L3.3438 14.7542C3.21139 15.8308 3.13689 16.9138 3.1206 17.9984C3.1182 18.1267 3.1172 18.4504 3.1172 18.5784V21.9332C3.1172 22.0199 3.13427 22.1057 3.16744 22.1858C3.2006 22.2659 3.24922 22.3386 3.31051 22.3999C3.37179 22.4612 3.44455 22.5098 3.52462 22.543C3.6047 22.5761 3.69052 22.5932 3.7772 22.5932H5.2881C5.37477 22.5932 5.46059 22.5761 5.54067 22.543C5.62074 22.5098 5.6935 22.4612 5.75479 22.3999C5.81607 22.3386 5.86469 22.2659 5.89786 22.1858C5.93102 22.1057 5.9481 22.0199 5.9481 21.9332V20.9998H15.2865V21.9335C15.2865 22.1085 15.356 22.2764 15.4798 22.4002C15.6036 22.524 15.7715 22.5935 15.9465 22.5935H17.4575C17.6325 22.5935 17.8004 22.524 17.9242 22.4002C18.048 22.2764 18.1175 22.1085 18.1175 21.9335V18.5785C18.1175 18.4521 18.1165 18.1305 18.1143 18.0041C18.0982 16.9175 18.0236 15.8326 17.8909 14.7541L19.806 14.0892V11.8537H17.4038C17.3 11.3787 17.1953 10.9038 17.0686 10.4338ZM3.4624 13.8425L2.3286 13.4489V12.7537H3.6479C3.58 13.1157 3.5168 13.4783 3.4624 13.8425ZM5.1313 10.6941C5.18075 10.5087 5.28631 10.3431 5.43351 10.2201C5.58072 10.097 5.76237 10.0224 5.9536 10.0066L6.1055 9.99981H15.13C15.1617 9.99981 15.2257 10.0008 15.2652 10.0047C15.4585 10.0193 15.6426 10.0932 15.7925 10.2162C15.9423 10.3392 16.0506 10.5054 16.1026 10.6922C16.3927 11.7788 16.6201 12.8811 16.7838 13.9938H4.4507C4.61429 12.8818 4.84153 11.7801 5.1313 10.6941ZM16.2192 21.6606L16.2144 19.9998H5.02L5.0151 21.6606H4.1172C4.1172 21.6606 4.1187 18.1223 4.1206 18.0164C4.13627 16.9837 4.20636 15.9525 4.3306 14.9271H16.9036C17.0279 15.9518 17.098 16.9823 17.1136 18.0144L17.1165 21.6606H16.2192ZM18.9058 12.7537V13.4489L17.772 13.8426C17.7175 13.4784 17.6543 13.1157 17.5864 12.7537H18.9058ZM14.8733 15.8676C14.608 15.8676 14.3487 15.9462 14.1281 16.0936C13.9076 16.241 13.7356 16.4504 13.6341 16.6955C13.5326 16.9406 13.506 17.2102 13.5578 17.4704C13.6095 17.7306 13.7372 17.9696 13.9248 18.1571C14.1124 18.3447 14.3513 18.4725 14.6115 18.5242C14.8717 18.576 15.1413 18.5494 15.3864 18.4479C15.6315 18.3464 15.841 18.1745 15.9884 17.9539C16.1357 17.7334 16.2144 17.4741 16.2144 17.2088C16.2144 16.8531 16.0731 16.512 15.8216 16.2605C15.5701 16.009 15.229 15.8677 14.8733 15.8676ZM14.8733 17.75C14.7663 17.75 14.6616 17.7182 14.5726 17.6587C14.4837 17.5993 14.4143 17.5147 14.3734 17.4158C14.3324 17.317 14.3217 17.2081 14.3426 17.1032C14.3635 16.9982 14.4151 16.9018 14.4907 16.8261C14.5664 16.7504 14.6629 16.6989 14.7678 16.678C14.8728 16.6571 14.9816 16.6678 15.0805 16.7088C15.1794 16.7498 15.2639 16.8191 15.3234 16.9081C15.3829 16.9971 15.4146 17.1018 15.4146 17.2088C15.4144 17.3523 15.3573 17.4898 15.2558 17.5912C15.1543 17.6926 15.0168 17.7497 14.8733 17.7498V17.75Z" fill="black"/>
</svg>
