<svg width="24" height="24" viewBox="0 0 24 24" fill="none" xmlns="http://www.w3.org/2000/svg">
<path d="M20.125 9.41158L23.125 3.74998H20.125V0.0883789L17.125 5.74998H20.125V9.41158ZM22.0459 12.2991C20.6666 11.4716 19.0932 11.0235 17.4849 11L14.9387 8.25068C14.5642 7.84636 14.1102 7.52379 13.6052 7.3032C13.1002 7.08261 12.555 6.96875 12.0039 6.96878H9.83C9.124 6.9687 8.42599 7.11814 7.7819 7.40725C7.13781 7.69637 6.56225 8.11861 6.0931 8.64618L4 11H2.8757C2.62937 11 2.38545 11.0485 2.15788 11.1428C1.9303 11.237 1.72352 11.3752 1.54934 11.5494C1.37517 11.7236 1.23701 11.9304 1.14275 12.1579C1.04849 12.3855 0.999987 12.6294 1 12.8758V18.2L3.9253 18.939C4.11438 19.464 4.45932 19.9187 4.91394 20.2422C5.36857 20.5657 5.91118 20.7426 6.46914 20.7493C7.02709 20.7559 7.57376 20.5919 8.03595 20.2793C8.49814 19.9667 8.85379 19.5203 9.0553 19H14.6411C14.841 19.5153 15.192 19.9582 15.6481 20.2705C16.1042 20.5828 16.644 20.7499 17.1968 20.7499C17.7496 20.7499 18.2894 20.5828 18.7455 20.2705C19.2016 19.9582 19.5526 19.5153 19.7525 19H23V13.9468C23.0002 13.6124 22.912 13.284 22.7445 12.9947C22.5769 12.7053 22.336 12.4654 22.0459 12.2991ZM7.5127 9.90918C7.80363 9.58228 8.16042 9.32061 8.55964 9.14137C8.95886 8.96213 9.39149 8.86937 9.8291 8.86918H12.0039C12.2931 8.86947 12.579 8.92938 12.844 9.04516C13.109 9.16094 13.3472 9.3301 13.5439 9.54208L14.8947 11H6.5426L7.5127 9.90918ZM6.5 19C6.30222 19 6.10888 18.9413 5.94443 18.8314C5.77998 18.7216 5.65181 18.5654 5.57612 18.3827C5.50043 18.1999 5.48063 17.9989 5.51921 17.8049C5.5578 17.6109 5.65304 17.4327 5.79289 17.2929C5.93275 17.153 6.11093 17.0578 6.30491 17.0192C6.49889 16.9806 6.69996 17.0004 6.88268 17.0761C7.06541 17.1518 7.22159 17.28 7.33147 17.4444C7.44135 17.6089 7.5 17.8022 7.5 18C7.49971 18.2651 7.39426 18.5193 7.20679 18.7068C7.01931 18.8942 6.76513 18.9997 6.5 19ZM17.1973 19C16.9995 19 16.8062 18.9413 16.6417 18.8314C16.4773 18.7216 16.3491 18.5654 16.2734 18.3827C16.1977 18.1999 16.1779 17.9989 16.2165 17.8049C16.2551 17.6109 16.3503 17.4327 16.4902 17.2929C16.63 17.153 16.8082 17.0578 17.0022 17.0192C17.1962 16.9806 17.3973 17.0004 17.58 17.0761C17.7627 17.1518 17.9189 17.28 18.0288 17.4444C18.1387 17.6089 18.1973 17.8022 18.1973 18C18.197 18.2651 18.0916 18.5193 17.9041 18.7068C17.7166 18.8942 17.4624 18.9997 17.1973 19ZM21.1 17.1H19.7839C19.5995 16.5604 19.251 16.092 18.7872 15.7603C18.3234 15.4287 17.7675 15.2504 17.1973 15.2504C16.627 15.2504 16.0711 15.4287 15.6073 15.7603C15.1435 16.092 14.795 16.5604 14.6106 17.1H9.0867C8.90497 16.5701 8.56509 16.1087 8.11291 15.778C7.66072 15.4474 7.118 15.2634 6.55795 15.2508C5.99791 15.2383 5.44749 15.3978 4.98097 15.7079C4.51444 16.018 4.15425 16.4638 3.949 16.985L2.9 16.7207V12.876L4 12.9H4.8525H17.4C18.7048 12.9111 19.9826 13.2724 21.1 13.9463V17.1Z" fill="black"/>
</svg>
