<svg width="24" height="24" viewBox="0 0 24 24" fill="none" xmlns="http://www.w3.org/2000/svg">
<g clip-path="url(#clip0)">
<path d="M24 12.9616C24.0022 12.625 23.9138 12.2939 23.7442 12.0031C23.5746 11.7123 23.3299 11.4724 23.0358 11.3085C21.4193 10.5044 19.6485 10.0582 17.844 10.0002L15.187 7.30733C14.846 6.9603 14.4393 6.68466 13.9906 6.4965C13.542 6.30834 13.0603 6.21143 12.5738 6.21143H8.3659C7.73098 6.21142 7.10274 6.34109 6.51971 6.59249C5.93668 6.84389 5.41114 7.21172 4.9753 7.67343L2.77 10.0002H1.6919C1.24327 10.0002 0.813001 10.1784 0.495723 10.4956C0.178444 10.8128 0.000132583 11.243 0 11.6916L0 16.2002L2.5043 16.8329C2.61423 17.3604 2.89781 17.8358 3.30973 18.1832C3.72165 18.5305 4.23812 18.7297 4.77659 18.749C5.31505 18.7683 5.84444 18.6064 6.28013 18.2894C6.71582 17.9724 7.03265 17.5185 7.18 17.0002H16.625C16.7671 17.5039 17.0698 17.9475 17.4871 18.2633C17.9044 18.5792 18.4134 18.7502 18.9368 18.7502C19.4602 18.7502 19.9692 18.5792 20.3865 18.2633C20.8038 17.9475 21.1065 17.5039 21.2486 17.0002H24V12.9616ZM5.7012 8.36023C6.04435 7.99802 6.45752 7.70931 6.91564 7.51162C7.37375 7.31394 7.86726 7.2114 8.3662 7.21023H12.5742C12.9276 7.21134 13.2772 7.28232 13.603 7.41908C13.9289 7.55585 14.2244 7.75569 14.4727 8.00713L16.4712 10.0316H4.1165L5.7012 8.36023ZM4.868 17.8335C4.57133 17.8335 4.28132 17.7456 4.03464 17.5807C3.78797 17.4159 3.59571 17.1816 3.48218 16.9076C3.36865 16.6335 3.33894 16.3319 3.39682 16.0409C3.4547 15.7499 3.59756 15.4826 3.80734 15.2729C4.01712 15.0631 4.28439 14.9202 4.57536 14.8623C4.86634 14.8045 5.16794 14.8342 5.44203 14.9477C5.71611 15.0612 5.95038 15.2535 6.1152 15.5002C6.28003 15.7468 6.368 16.0369 6.368 16.3335C6.36752 16.7312 6.20934 17.1125 5.92813 17.3937C5.64693 17.6749 5.26568 17.833 4.868 17.8335ZM18.9368 17.8335C18.6401 17.8335 18.3501 17.7456 18.1034 17.5807C17.8568 17.4159 17.6645 17.1816 17.551 16.9076C17.4375 16.6335 17.4077 16.3319 17.4656 16.0409C17.5235 15.7499 17.6664 15.4826 17.8761 15.2729C18.0859 15.0631 18.3532 14.9202 18.6442 14.8623C18.9351 14.8045 19.2367 14.8342 19.5108 14.9477C19.7849 15.0612 20.0192 15.2535 20.184 15.5002C20.3488 15.7468 20.4368 16.0369 20.4368 16.3335C20.4363 16.7312 20.2782 17.1125 19.997 17.3937C19.7158 17.6749 19.3345 17.8331 18.9368 17.8335ZM23 16.0002H21.32C21.2422 15.4234 20.9577 14.8944 20.5195 14.5113C20.0813 14.1282 19.519 13.9171 18.9369 13.9171C18.3548 13.9171 17.7925 14.1282 17.3543 14.5113C16.9161 14.8944 16.6316 15.4234 16.5538 16.0002H7.2512C7.17496 15.4401 6.90412 14.9246 6.48609 14.5441C6.06807 14.1636 5.52951 13.9422 4.96471 13.9188C4.39991 13.8954 3.84486 14.0714 3.39676 14.416C2.94866 14.7606 2.63606 15.2518 2.5137 15.8037L1 15.4211V11.6916C1.00019 11.508 1.07319 11.332 1.203 11.2022C1.33281 11.0724 1.50882 10.9994 1.6924 10.9992H17.8C19.4521 11.0492 21.0741 11.4539 22.5561 12.1857C22.6926 12.2636 22.8057 12.3765 22.8838 12.5129C22.9618 12.6493 23.002 12.804 23 12.9611V16.0002Z" fill="black"/>
</g>
<defs>
<clipPath id="clip0">
<rect width="24" height="24" fill="white"/>
</clipPath>
</defs>
</svg>
