<svg width="24" height="24" viewBox="0 0 24 24" fill="none" xmlns="http://www.w3.org/2000/svg">
<path d="M19.3065 8.3419H19.6875V6.2757H19.3065C19.0325 6.2757 18.7697 6.38454 18.576 6.57829C18.3823 6.77203 18.2734 7.03481 18.2734 7.3088C18.2734 7.5828 18.3823 7.84557 18.576 8.03931C18.7697 8.23306 19.0325 8.3419 19.3065 8.3419ZM19 10.5C18.7753 10.5056 18.5513 10.5282 18.33 10.5677L16.4365 3.5H13.3857C13.2531 3.5 13.1259 3.55268 13.0322 3.64645C12.9384 3.74021 12.8857 3.86739 12.8857 4C12.8857 4.13261 12.9384 4.25979 13.0322 4.35355C13.1259 4.44732 13.2531 4.5 13.3857 4.5H15.6689L16.2939 6.833H13.1094C12.4954 6.8339 11.8923 6.99601 11.3606 7.30312C10.8288 7.61023 10.387 8.05157 10.0794 8.583L9.93491 8.833H4.50001V10.5505C3.659 10.6426 2.86115 10.9705 2.19846 11.4965C1.53577 12.0224 1.03524 12.7249 0.754577 13.5231C0.473918 14.3212 0.424565 15.1824 0.61221 16.0074C0.799855 16.8323 1.21685 17.5875 1.81512 18.1857C2.41339 18.7839 3.16856 19.2008 3.99354 19.3884C4.81852 19.5759 5.67972 19.5265 6.47782 19.2457C7.27591 18.965 7.97841 18.4644 8.50429 17.8016C9.03016 17.1389 9.35801 16.341 9.45001 15.5H14.551C14.6496 16.3609 14.9952 17.1749 15.5462 17.8437C16.0972 18.5126 16.83 19.0076 17.6561 19.2692C18.4822 19.5308 19.3664 19.5476 20.2019 19.3178C21.0374 19.0879 21.7886 18.6212 22.3647 17.9739C22.9408 17.3266 23.3172 16.5264 23.4486 15.6698C23.5799 14.8133 23.4606 13.9371 23.105 13.1469C22.7493 12.3567 22.1726 11.6863 21.4444 11.2166C20.7162 10.7469 19.8676 10.498 19.001 10.5H19ZM8.45001 15.5C8.3236 16.3758 7.87016 17.1712 7.18093 17.7261C6.49171 18.2811 5.61786 18.5544 4.73527 18.491C3.85267 18.4276 3.02683 18.0323 2.42395 17.3846C1.82107 16.7369 1.48591 15.8849 1.48591 15C1.48591 14.1151 1.82107 13.2631 2.42395 12.6154C3.02683 11.9677 3.85267 11.5724 4.73527 11.509C5.61786 11.4456 6.49171 11.7189 7.18093 12.2739C7.87016 12.8288 8.3236 13.6242 8.45001 14.5H4.48631V15.5H8.45001ZM9.45001 14.5C9.33686 13.4913 8.88433 12.5511 8.16663 11.8334C7.44894 11.1157 6.50866 10.6631 5.50001 10.55V9.833H10.5107L10.9453 9.083C11.1649 8.7033 11.4804 8.38796 11.8602 8.16858C12.24 7.9492 12.6708 7.83347 13.1094 7.833H16.5618L17.3618 10.8194C16.6029 11.1194 15.9402 11.6206 15.4448 12.2691C14.9495 12.9176 14.6403 13.6889 14.5505 14.5H9.45001ZM19 18.5C18.1941 18.5003 17.4129 18.2223 16.7882 17.7131C16.1636 17.204 15.7339 16.4947 15.5717 15.7054C15.4095 14.916 15.5249 14.0948 15.8982 13.3806C16.2715 12.6664 16.8799 12.103 17.6206 11.7855L18.5166 15.1299L18.5258 15.1274C18.5525 15.2332 18.6135 15.3272 18.6993 15.3946C18.7851 15.4621 18.8909 15.4991 19 15.5C19.1326 15.5 19.2598 15.4473 19.3536 15.3536C19.4473 15.2598 19.5 15.1326 19.5 15C19.4972 14.9566 19.4885 14.9137 19.4742 14.8726L19.4834 14.8701L18.5913 11.5413C18.7266 11.5194 18.8631 11.5056 19 11.5C19.9283 11.5 20.8185 11.8687 21.4749 12.5251C22.1313 13.1815 22.5 14.0717 22.5 15C22.5 15.9283 22.1313 16.8185 21.4749 17.4749C20.8185 18.1313 19.9283 18.5 19 18.5Z" fill="black"/>
</svg>
