<svg width="24" height="24" viewBox="0 0 24 24" fill="none" xmlns="http://www.w3.org/2000/svg">
<path d="M23 8.9791H20.45C20.2526 7.98893 19.9968 7.01129 19.684 6.0513C19.4849 5.45393 19.1028 4.93436 18.592 4.56619C18.0811 4.19803 17.4674 3.99995 16.8377 4H13.0134L12.64 2H11.36L10.9869 4H7.1623C6.53265 3.99999 5.91895 4.19809 5.40814 4.56625C4.89734 4.93441 4.51532 5.45396 4.3162 6.0513C4.00336 7.01129 3.74751 7.98893 3.55 8.9791H1V9.9583L3.2481 10.7389C3.08899 11.8732 3.0061 13.0168 3 14.1622V20.34C3 20.4267 3.01707 20.5125 3.05024 20.5926C3.08341 20.6726 3.13202 20.7454 3.19331 20.8067C3.2546 20.868 3.32735 20.9166 3.40743 20.9498C3.4875 20.9829 3.57333 21 3.66 21H3.99C4.16504 21 4.33292 20.9305 4.45669 20.8067C4.58046 20.6829 4.65 20.515 4.65 20.34V19H19.35V20.34C19.35 20.515 19.4195 20.6829 19.5433 20.8067C19.6671 20.9305 19.835 21 20.01 21H20.34C20.515 21 20.6829 20.9305 20.8067 20.8067C20.9305 20.6829 21 20.515 21 20.34V14.1622C20.9939 13.0168 20.911 11.8732 20.7519 10.7389L23 9.9583V8.9791ZM5.7393 6.5256C5.8386 6.22678 6.02954 5.96685 6.28499 5.78274C6.54044 5.59863 6.84741 5.4997 7.1623 5.5H16.8377C17.1526 5.4997 17.4596 5.59863 17.715 5.78274C17.9705 5.96685 18.1614 6.22678 18.2607 6.5256C18.6744 7.76743 18.9864 9.04087 19.1935 10.3333H4.8065C5.01364 9.04087 5.3256 7.76743 5.7393 6.5256ZM19.5 17.5H4.5V14.1622C4.5 13.3822 4.55 12.6061 4.6248 11.8333H19.3748C19.4496 12.6061 19.4996 13.3819 19.4996 14.1622L19.5 17.5ZM6.6 13.16C6.38244 13.16 6.16977 13.2245 5.98887 13.3454C5.80798 13.4663 5.66699 13.6381 5.58373 13.839C5.50048 14.04 5.47869 14.2612 5.52114 14.4746C5.56358 14.688 5.66834 14.884 5.82218 15.0378C5.97602 15.1917 6.17202 15.2964 6.3854 15.3389C6.59878 15.3813 6.81995 15.3595 7.02095 15.2763C7.22195 15.193 7.39375 15.052 7.51462 14.8711C7.63549 14.6902 7.7 14.4776 7.7 14.26C7.7 13.9683 7.58411 13.6885 7.37782 13.4822C7.17153 13.2759 6.89174 13.16 6.6 13.16ZM17.4 13.16C17.1824 13.16 16.9698 13.2245 16.7889 13.3454C16.608 13.4663 16.467 13.6381 16.3837 13.839C16.3005 14.04 16.2787 14.2612 16.3211 14.4746C16.3636 14.688 16.4683 14.884 16.6222 15.0378C16.776 15.1917 16.972 15.2964 17.1854 15.3389C17.3988 15.3813 17.62 15.3595 17.821 15.2763C18.0219 15.193 18.1937 15.052 18.3146 14.8711C18.4355 14.6902 18.5 14.4776 18.5 14.26C18.5 13.9683 18.3841 13.6885 18.1778 13.4822C17.9715 13.2759 17.6917 13.16 17.4 13.16Z" fill="black"/>
</svg>
