<svg width="24" height="24" viewBox="0 0 24 24" fill="none" xmlns="http://www.w3.org/2000/svg">
<path d="M9.84743 2.34357L14.4874 10.1002L14.6329 10.3436H19.889L21.9252 11.0084C22.1013 11.0659 22.2547 11.1777 22.3634 11.3277C22.4722 11.4776 22.5307 11.6581 22.5307 11.8434C22.5307 12.0286 22.4722 12.2091 22.3634 12.3591C22.2547 12.5091 22.1013 12.6208 21.9252 12.6784L19.889 13.3434H14.6331L14.4876 13.5867L9.84763 21.3434H8.12683L10.3817 13.9898L10.58 13.3433H5.02233L4.87683 13.5866L3.53193 15.8351H1.77823L2.95723 11.9901L3.00223 11.8436L2.95723 11.697L1.77823 7.85197H3.53193L4.87683 10.0998L5.02233 10.3432H10.58L10.3817 9.69657L8.12683 2.34357H9.84743ZM10.131 1.84357H7.45053L9.90373 9.84357H5.30593L3.81593 7.35197H1.10193L2.47923 11.8436L1.10193 16.3351H3.81553L5.30553 13.8436H9.90373L7.45053 21.8436H10.131L14.9167 13.8436H19.9688L22.0806 13.1536C22.357 13.0633 22.5978 12.888 22.7685 12.6526C22.9393 12.4173 23.0312 12.1339 23.0312 11.8432C23.0312 11.5524 22.9393 11.2691 22.7685 11.0337C22.5978 10.7984 22.357 10.623 22.0806 10.5328L19.9688 9.84277H14.9167L10.131 1.84277V1.84357Z" fill="black"/>
</svg>
