<svg width="24" height="24" viewBox="0 0 24 24" fill="none" xmlns="http://www.w3.org/2000/svg">
<path d="M23 13.4657C22.9998 13.1128 22.9014 12.767 22.716 12.4668C22.5306 12.1666 22.2654 11.9239 21.95 11.7657C20.2713 10.9388 18.4535 10.4313 16.5893 10.2691L13.2136 6.60986H12.3687L15.1609 10.2028H11.2517L10.5167 9.07086C10.3936 8.88135 10.2125 8.73671 10.0004 8.65851C9.78841 8.58031 9.55677 8.57275 9.34008 8.63694C9.12339 8.70114 8.93325 8.83366 8.79802 9.01474C8.6628 9.19582 8.58972 9.41576 8.5897 9.64176V10.2028H2.6919C2.24321 10.2028 1.81289 10.381 1.49561 10.6983C1.17833 11.0156 1.00005 11.4459 1 11.8946V16.1999L3.5044 16.8326C3.61437 17.36 3.89796 17.8354 4.30987 18.1827C4.72177 18.53 5.23821 18.7292 5.77664 18.7484C6.31507 18.7677 6.84443 18.6059 7.2801 18.2889C7.71577 17.972 8.03262 17.5181 8.18 16.9999H15.625C15.767 17.5036 16.0697 17.9471 16.487 18.263C16.9043 18.5789 17.4134 18.7499 17.9368 18.7499C18.4601 18.7499 18.9692 18.5789 19.3865 18.263C19.8038 17.9471 20.1065 17.5036 20.2485 16.9999H23V13.4657ZM9.39 9.64166C9.38999 9.58818 9.40727 9.53612 9.43927 9.49326C9.47127 9.4504 9.51627 9.41903 9.56755 9.40383C9.61884 9.38864 9.67366 9.39043 9.72384 9.40895C9.77402 9.42746 9.81687 9.4617 9.846 9.50656L10.2981 10.2027H9.39V9.64166ZM5.8682 17.8332C5.57153 17.8332 5.28152 17.7452 5.03484 17.5804C4.78817 17.4155 4.59591 17.1813 4.48238 16.9072C4.36885 16.6331 4.33914 16.3315 4.39702 16.0405C4.4549 15.7496 4.59776 15.4823 4.80754 15.2725C5.01732 15.0627 5.28459 14.9199 5.57556 14.862C5.86654 14.8041 6.16814 14.8338 6.44222 14.9473C6.71631 15.0609 6.95058 15.2531 7.1154 15.4998C7.28023 15.7465 7.3682 16.0365 7.3682 16.3332C7.36778 16.7309 7.20961 17.1121 6.92839 17.3934C6.64718 17.6746 6.26589 17.8327 5.8682 17.8332ZM17.9368 17.8332C17.6401 17.8332 17.3501 17.7452 17.1034 17.5804C16.8568 17.4155 16.6645 17.1813 16.551 16.9072C16.4375 16.6331 16.4077 16.3315 16.4656 16.0405C16.5235 15.7496 16.6664 15.4823 16.8761 15.2725C17.0859 15.0627 17.3532 14.9199 17.6442 14.862C17.9351 14.8041 18.2367 14.8338 18.5108 14.9473C18.7849 15.0609 19.0192 15.2531 19.184 15.4998C19.3488 15.7465 19.4368 16.0365 19.4368 16.3332C19.4364 16.7309 19.2782 17.1121 18.997 17.3934C18.7158 17.6746 18.3345 17.8327 17.9368 17.8332ZM22 15.9999H20.32C20.2422 15.423 19.9579 14.8939 19.5196 14.5108C19.0814 14.1276 18.5191 13.9165 17.937 13.9165C17.3549 13.9165 16.7925 14.1276 16.3543 14.5108C15.916 14.8939 15.6317 15.423 15.5539 15.9999H8.2512C8.1749 15.4398 7.90404 14.9244 7.48603 14.5439C7.06802 14.1635 6.5295 13.9421 5.96475 13.9187C5.39999 13.8953 4.845 14.0713 4.39691 14.4158C3.94883 14.7604 3.63622 15.2515 3.5138 15.8034L2 15.4208V11.8944C2.0004 11.7109 2.07351 11.5352 2.2033 11.4056C2.33309 11.2759 2.50898 11.2031 2.6924 11.203H15.248C17.416 11.1995 19.5554 11.6975 21.499 12.6581C21.6493 12.7329 21.7757 12.848 21.8642 12.9907C21.9527 13.1333 21.9997 13.2978 22 13.4657V15.9999Z" fill="black"/>
</svg>
