<svg width="24" height="24" viewBox="0 0 24 24" fill="none" xmlns="http://www.w3.org/2000/svg">
<path d="M15.5 2H14V8H5.1531L4.3381 5H2V6H3.5885L5.2056 12.0353C5.4335 12.8858 5.93569 13.6374 6.63426 14.1734C7.33284 14.7095 8.18877 15 9.0693 15H15.5C17.2239 15 18.8772 14.3152 20.0962 13.0962C21.3152 11.8772 22 10.2239 22 8.5C22 6.77609 21.3152 5.12279 20.0962 3.90381C18.8772 2.68482 17.2239 2 15.5 2ZM17.5 17C17.0055 17 16.5222 17.1466 16.1111 17.4213C15.7 17.696 15.3795 18.0865 15.1903 18.5433C15.0011 19.0001 14.9516 19.5028 15.048 19.9877C15.1445 20.4727 15.3826 20.9181 15.7322 21.2678C16.0819 21.6174 16.5273 21.8555 17.0123 21.952C17.4972 22.0484 17.9999 21.9989 18.4567 21.8097C18.9135 21.6205 19.304 21.3 19.5787 20.8889C19.8534 20.4778 20 19.9945 20 19.5C20 18.837 19.7366 18.2011 19.2678 17.7322C18.7989 17.2634 18.163 17 17.5 17ZM17.5 21C17.2033 21 16.9133 20.912 16.6666 20.7472C16.42 20.5824 16.2277 20.3481 16.1142 20.074C16.0007 19.7999 15.9709 19.4983 16.0288 19.2074C16.0867 18.9164 16.2296 18.6491 16.4393 18.4393C16.6491 18.2296 16.9164 18.0867 17.2074 18.0288C17.4983 17.9709 17.7999 18.0007 18.074 18.1142C18.3481 18.2277 18.5824 18.42 18.7472 18.6666C18.912 18.9133 19 19.2033 19 19.5C18.9995 19.8977 18.8414 20.279 18.5602 20.5602C18.279 20.8414 17.8977 20.9995 17.5 21ZM8.5 17C8.00555 17 7.5222 17.1466 7.11107 17.4213C6.69995 17.696 6.37952 18.0865 6.1903 18.5433C6.00108 19.0001 5.95157 19.5028 6.04804 19.9877C6.1445 20.4727 6.3826 20.9181 6.73223 21.2678C7.08186 21.6174 7.52732 21.8555 8.01227 21.952C8.49723 22.0484 8.99989 21.9989 9.45671 21.8097C9.91352 21.6205 10.304 21.3 10.5787 20.8889C10.8534 20.4778 11 19.9945 11 19.5C11 18.837 10.7366 18.2011 10.2678 17.7322C9.79893 17.2634 9.16304 17 8.5 17ZM8.5 21C8.20333 21 7.91332 20.912 7.66664 20.7472C7.41997 20.5824 7.22771 20.3481 7.11418 20.074C7.00065 19.7999 6.97094 19.4983 7.02882 19.2074C7.0867 18.9164 7.22956 18.6491 7.43934 18.4393C7.64912 18.2296 7.91639 18.0867 8.20736 18.0288C8.49834 17.9709 8.79994 18.0007 9.07403 18.1142C9.34811 18.2277 9.58238 18.42 9.7472 18.6666C9.91203 18.9133 10 19.2033 10 19.5C9.99955 19.8977 9.84137 20.279 9.56016 20.5602C9.27896 20.8414 8.89769 20.9995 8.5 21Z" fill="black"/>
</svg>
