<svg width="24" height="24" viewBox="0 0 24 24" fill="none" xmlns="http://www.w3.org/2000/svg">
<path d="M21.2593 7.04002C21.1201 6.67576 20.8735 6.36242 20.5522 6.14155C20.2308 5.92068 19.8499 5.80272 19.46 5.80332L15.9313 5.80712L15.7477 5.30282L5.243 1.69092L4.9159 2.63602L14.4093 5.80882L1 5.82352V18H3.788C3.80742 18.5816 4.0521 19.1328 4.47035 19.5373C4.8886 19.9418 5.44769 20.1679 6.02955 20.1679C6.61141 20.1679 7.1705 19.9418 7.58875 19.5373C8.00701 19.1328 8.25168 18.5816 8.2711 18H16.2365C16.2626 18.5762 16.5099 19.1202 16.9269 19.5187C17.3439 19.9172 17.8985 20.1396 18.4753 20.1396C19.0521 20.1396 19.6067 19.9172 20.0237 19.5187C20.4407 19.1202 20.688 18.5762 20.7141 18H23V11.6147L21.2593 7.04002ZM6.03 19.2667C5.763 19.2667 5.50199 19.1875 5.27998 19.0392C5.05797 18.8909 4.88494 18.68 4.78276 18.4333C4.68058 18.1867 4.65385 17.9152 4.70594 17.6533C4.75803 17.3915 4.88661 17.1509 5.07541 16.9621C5.26421 16.7733 5.50475 16.6447 5.76663 16.5927C6.0285 16.5406 6.29994 16.5673 6.54662 16.6695C6.7933 16.7717 7.00414 16.9447 7.15248 17.1667C7.30082 17.3887 7.38 17.6497 7.38 17.9167C7.37955 18.2746 7.23717 18.6177 6.9841 18.8708C6.73102 19.1239 6.3879 19.2663 6.03 19.2667ZM18.4758 19.2389C18.2088 19.2389 17.9478 19.1597 17.7258 19.0114C17.5038 18.8631 17.3307 18.6522 17.2286 18.4055C17.1264 18.1589 17.0996 17.8874 17.1517 17.6255C17.2038 17.3637 17.3324 17.1231 17.5212 16.9343C17.71 16.7455 17.9506 16.6169 18.2124 16.5649C18.4743 16.5128 18.7457 16.5395 18.9924 16.6417C19.2391 16.7439 19.4499 16.9169 19.5983 17.1389C19.7466 17.3609 19.8258 17.6219 19.8258 17.8889C19.8254 18.2469 19.6829 18.5901 19.4298 18.8432C19.1766 19.0963 18.8333 19.2386 18.4753 19.2389H18.4758ZM2 11.5279V6.80372H19.4619C19.6485 6.80399 19.8307 6.86064 19.9846 6.96625C20.1385 7.07185 20.2568 7.22148 20.3242 7.39552L21.8972 11.5279H2Z" fill="black"/>
</svg>
