<svg width="24" height="24" viewBox="0 0 24 24" fill="none" xmlns="http://www.w3.org/2000/svg">
<g clip-path="url(#clip0)">
<path d="M24 16.9998L23.9826 13.3146C23.9624 12.9549 23.8423 12.608 23.6359 12.3126C23.4295 12.0173 23.145 11.7854 22.8141 11.6427C21.4789 11.0906 20.0763 10.7182 18.6431 10.5352L16.204 7.95524C15.9514 7.69067 15.6765 7.44831 15.3824 7.23084C14.5132 6.57027 13.4615 6.19367 12.3705 6.15234H2.57L0.3867 10.0237C0.13318 10.4734 -1.42733e-05 10.9809 1.14722e-09 11.4971L1.14722e-09 16.3031L3.4868 16.9597C3.62263 17.5639 3.95893 18.1043 4.44098 18.493C4.92302 18.8816 5.52242 19.0957 6.14163 19.1004C6.76084 19.105 7.36339 18.8999 7.85121 18.5186C8.33904 18.1372 8.68342 17.6019 8.8283 16.9998H16.7775C16.921 17.5985 17.2619 18.1315 17.7453 18.5127C18.2287 18.8939 18.8264 19.1013 19.4421 19.1013C20.0577 19.1013 20.6554 18.8939 21.1388 18.5127C21.6222 18.1315 21.9631 17.5985 22.1066 16.9998H24ZM6.1638 17.7998C5.87702 17.7998 5.59667 17.7148 5.35822 17.5555C5.11977 17.3961 4.93392 17.1697 4.82417 16.9047C4.71443 16.6398 4.68571 16.3482 4.74166 16.067C4.79761 15.7857 4.93571 15.5273 5.13849 15.3245C5.34128 15.1218 5.59965 14.9837 5.88092 14.9277C6.16219 14.8718 6.45374 14.9005 6.71869 15.0102C6.98364 15.12 7.2101 15.3058 7.36943 15.5443C7.52876 15.7827 7.6138 16.0631 7.6138 16.3498C7.61351 16.7344 7.46066 17.1031 7.18881 17.375C6.91696 17.6469 6.54832 17.7999 6.1638 17.8003V17.7998ZM1.782 10.4998C1.8661 10.3269 1.9449 10.1706 1.9863 10.0998L3.4111 7.60234H12.37C13.1466 7.64275 13.8928 7.91713 14.5106 8.38944C14.7284 8.55191 14.9338 8.73048 15.1249 8.92364L16.615 10.4998H1.782ZM19.442 17.8006C19.1552 17.8006 18.8749 17.7156 18.6364 17.5563C18.398 17.3969 18.2121 17.1705 18.1024 16.9055C17.9926 16.6406 17.9639 16.349 18.0199 16.0678C18.0758 15.7865 18.2139 15.5281 18.4167 15.3253C18.6195 15.1226 18.8778 14.9845 19.1591 14.9285C19.4404 14.8726 19.7319 14.9013 19.9969 15.011C20.2618 15.1208 20.4883 15.3066 20.6476 15.5451C20.807 15.7835 20.892 16.0639 20.892 16.3506C20.8915 16.735 20.7386 17.1035 20.4668 17.3753C20.195 17.647 19.8265 17.7999 19.4421 17.8003L19.442 17.8006Z" fill="black"/>
</g>
<defs>
<clipPath id="clip0">
<rect width="24" height="24" fill="white"/>
</clipPath>
</defs>
</svg>
