<svg width="24" height="24" viewBox="0 0 24 24" fill="none" xmlns="http://www.w3.org/2000/svg">
<path d="M19.4178 5.5068C19.3011 4.80631 18.9396 4.16995 18.3977 3.71093C17.8559 3.25191 17.1687 3 16.4586 3H13V2L16 1.1962V0H8V1.1962L11 2V3H7.5414C6.83125 3 6.14412 3.25191 5.60226 3.71093C5.0604 4.16995 4.69895 4.80631 4.5822 5.5068C4.19476 7.83163 4.00003 10.1845 4 12.5414V17.5C4 18.163 4.26339 18.7989 4.73223 19.2678C5.20107 19.7366 5.83696 20 6.5 20H8.1515L6.4193 23H8.7293L10.4615 20H13.5389L15.2711 23H17.5811L15.8489 20H17.5C18.163 20 18.7989 19.7366 19.2678 19.2678C19.7366 18.7989 20 18.163 20 17.5V12.5414C20 10.1845 19.8053 7.83163 19.4178 5.5068ZM7.2 16.5125C6.96266 16.5125 6.73065 16.4421 6.53332 16.3103C6.33598 16.1784 6.18217 15.991 6.09134 15.7717C6.00052 15.5524 5.97676 15.3112 6.02306 15.0784C6.06936 14.8456 6.18365 14.6318 6.35147 14.464C6.51929 14.2961 6.73311 14.1819 6.96589 14.1356C7.19867 14.0893 7.43995 14.113 7.65922 14.2038C7.87849 14.2947 8.06591 14.4485 8.19776 14.6458C8.32962 14.8432 8.4 15.0752 8.4 15.3125C8.4 15.6308 8.27357 15.936 8.04853 16.161C7.82348 16.3861 7.51826 16.5125 7.2 16.5125ZM16.7807 16.5125C16.5434 16.5125 16.3114 16.4421 16.114 16.3103C15.9167 16.1784 15.7629 15.991 15.672 15.7717C15.5812 15.5524 15.5575 15.3112 15.6038 15.0784C15.6501 14.8456 15.7643 14.6318 15.9322 14.464C16.1 14.2961 16.3138 14.1819 16.5466 14.1356C16.7794 14.0893 17.0206 14.113 17.2399 14.2038C17.4592 14.2947 17.6466 14.4485 17.7785 14.6458C17.9103 14.8432 17.9807 15.0752 17.9807 15.3125C17.9807 15.6308 17.8543 15.936 17.6292 16.161C17.4042 16.3861 17.099 16.5125 16.7807 16.5125ZM6.0112 12C6.03659 9.93442 6.21838 7.87373 6.555 5.8356C6.59331 5.60183 6.71362 5.38934 6.89438 5.23622C7.07513 5.0831 7.30451 4.99935 7.5414 5H16.4586C16.6955 4.99935 16.9249 5.0831 17.1056 5.23622C17.2864 5.38934 17.4067 5.60183 17.445 5.8356C17.7816 7.87373 17.9634 9.93442 17.9888 12H6.0112Z" fill="black"/>
</svg>
