<svg width="24" height="24" viewBox="0 0 24 24" fill="none" xmlns="http://www.w3.org/2000/svg">
<path d="M23 9.26399L21.7822 5.97009C21.64 5.58761 21.3842 5.25777 21.0492 5.02484C20.7141 4.79191 20.3159 4.66704 19.9078 4.66699H1V19.0001H3.6866C3.81607 19.5458 4.12584 20.0319 4.56582 20.3797C5.0058 20.7275 5.55025 20.9167 6.1111 20.9167C6.67195 20.9167 7.2164 20.7275 7.65638 20.3797C8.09636 20.0319 8.40613 19.5458 8.5356 19.0001H15.8364C15.9676 19.5434 16.2777 20.0268 16.7169 20.3726C17.1561 20.7183 17.6988 20.9063 18.2577 20.9063C18.8166 20.9063 19.3593 20.7183 19.7985 20.3726C20.2377 20.0268 20.5478 19.5434 20.679 19.0001H23V9.26399ZM2.3666 6.03339H19.9078C20.0359 6.03304 20.161 6.07169 20.2666 6.14422C20.3722 6.21675 20.4532 6.3197 20.4988 6.43939L21.2833 8.55939H2.3666V6.03339ZM6.1111 19.6167C5.87376 19.6167 5.64175 19.5463 5.44442 19.4145C5.24708 19.2826 5.09327 19.0952 5.00244 18.8759C4.91162 18.6566 4.88786 18.4154 4.93416 18.1826C4.98046 17.9498 5.09475 17.736 5.26257 17.5682C5.43039 17.4003 5.64421 17.2861 5.87699 17.2397C6.10977 17.1934 6.35105 17.2172 6.57032 17.308C6.78959 17.3989 6.97701 17.5527 7.10886 17.75C7.24072 17.9473 7.3111 18.1794 7.3111 18.4167C7.31076 18.7348 7.18422 19.0399 6.95925 19.2648C6.73428 19.4898 6.42925 19.6163 6.1111 19.6167ZM18.2577 19.6067C18.0204 19.6067 17.7884 19.5363 17.591 19.4045C17.3937 19.2726 17.2399 19.0852 17.149 18.8659C17.0582 18.6466 17.0345 18.4054 17.0808 18.1726C17.1271 17.9398 17.2413 17.726 17.4092 17.5582C17.577 17.3903 17.7908 17.2761 18.0236 17.2297C18.2564 17.1834 18.4977 17.2072 18.7169 17.298C18.9362 17.3889 19.1236 17.5427 19.2555 17.74C19.3873 17.9373 19.4577 18.1694 19.4577 18.4067C19.4573 18.7248 19.3307 19.0297 19.1057 19.2546C18.8808 19.4795 18.5758 19.606 18.2577 19.6064V19.6067ZM21.6334 12.5601H2.3666V9.92649H21.6334V12.5601Z" fill="black"/>
</svg>
