<svg width="24" height="24" viewBox="0 0 24 24" fill="none" xmlns="http://www.w3.org/2000/svg">
<path d="M24 11.6668L22.8448 8.6212C22.7005 8.2425 22.4445 7.91659 22.1108 7.68663C21.7771 7.45668 21.3814 7.33353 20.9761 7.3335H16.8889V13.903H0V18.0002H1.9162C2.02642 18.4517 2.28504 18.8532 2.6506 19.1403C3.01616 19.4273 3.4675 19.5833 3.9323 19.5833C4.3971 19.5833 4.84844 19.4273 5.214 19.1403C5.57956 18.8532 5.83818 18.4517 5.9484 18.0002H6.0308C6.14102 18.4517 6.39964 18.8532 6.7652 19.1403C7.13076 19.4273 7.5821 19.5833 8.0469 19.5833C8.5117 19.5833 8.96304 19.4273 9.3286 19.1403C9.69416 18.8532 9.95278 18.4517 10.063 18.0002H18.003C18.1132 18.4517 18.3718 18.8532 18.7374 19.1403C19.103 19.4273 19.5543 19.5833 20.0191 19.5833C20.4839 19.5833 20.9352 19.4273 21.3008 19.1403C21.6664 18.8532 21.925 18.4517 22.0352 18.0002H24V11.6668ZM20.9761 8.2668C21.1912 8.26597 21.4015 8.33057 21.579 8.45201C21.7566 8.57346 21.893 8.74602 21.9702 8.9468L22.8889 11.3668H17.8222V8.2668H20.9761ZM3.9323 18.6835C3.69827 18.6835 3.46949 18.6141 3.27489 18.4841C3.0803 18.3541 2.92863 18.1692 2.83907 17.953C2.74951 17.7368 2.72608 17.4989 2.77174 17.2693C2.81739 17.0398 2.93009 16.829 3.09558 16.6635C3.26107 16.498 3.47191 16.3853 3.70145 16.3396C3.93099 16.294 4.16891 16.3174 4.38513 16.407C4.60135 16.4965 4.78616 16.6482 4.91618 16.8428C5.0462 17.0374 5.1156 17.2662 5.1156 17.5002C5.11526 17.8139 4.99048 18.1147 4.76864 18.3365C4.5468 18.5584 4.24603 18.6832 3.9323 18.6835ZM8.0469 18.6835C7.81286 18.6835 7.58406 18.6142 7.38944 18.4842C7.19482 18.3542 7.04312 18.1694 6.95353 17.9532C6.86394 17.7369 6.84048 17.499 6.88611 17.2695C6.93175 17.0399 7.04443 16.8291 7.20991 16.6635C7.37539 16.498 7.58623 16.3853 7.81578 16.3396C8.04532 16.294 8.28325 16.3174 8.49948 16.4069C8.71571 16.4965 8.90053 16.6482 9.03056 16.8428C9.1606 17.0374 9.23 17.2662 9.23 17.5002C9.22963 17.8139 9.10487 18.1146 8.88308 18.3364C8.66129 18.5583 8.36058 18.6831 8.0469 18.6835ZM20.0186 18.6835C19.7846 18.6835 19.5558 18.6141 19.3612 18.484C19.1666 18.354 19.015 18.1692 18.9254 17.953C18.8359 17.7367 18.8125 17.4988 18.8581 17.2693C18.9038 17.0398 19.0165 16.8289 19.182 16.6634C19.3475 16.498 19.5584 16.3853 19.7879 16.3396C20.0174 16.294 20.2553 16.3174 20.4716 16.407C20.6878 16.4965 20.8726 16.6482 21.0026 16.8428C21.1326 17.0374 21.202 17.2662 21.202 17.5002C21.2017 17.8139 21.0769 18.1147 20.855 18.3366C20.6331 18.5584 20.3323 18.6832 20.0186 18.6835ZM22.0554 17.0669C21.9564 16.6001 21.7001 16.1814 21.3293 15.8811C20.9585 15.5807 20.4958 15.4168 20.0186 15.4168C19.5414 15.4168 19.0787 15.5807 18.7079 15.8811C18.3371 16.1814 18.0808 16.6001 17.9818 17.0669H10.0837C9.9847 16.6001 9.72836 16.1814 9.35758 15.8811C8.9868 15.5807 8.52409 15.4168 8.0469 15.4168C7.56971 15.4168 7.107 15.5807 6.73622 15.8811C6.36544 16.1814 6.1091 16.6001 6.0101 17.0669H5.9691C5.8701 16.6001 5.61376 16.1814 5.24298 15.8811C4.8722 15.5807 4.40949 15.4168 3.9323 15.4168C3.45511 15.4168 2.9924 15.5807 2.62162 15.8811C2.25084 16.1814 1.9945 16.6001 1.8955 17.0669H0.9333V14.8363H17.8222V12.3002H23.0667V17.0669H22.0554Z" fill="black"/>
</svg>
