<svg width="24" height="24" viewBox="0 0 24 24" fill="none" xmlns="http://www.w3.org/2000/svg">
<path d="M0 19.5V21H24V19.5H0ZM10.0605 15.24L18.7705 12.95C19.9552 12.6323 21.1012 12.1846 22.1875 11.615L22.49 11.46C22.9188 11.2359 23.2663 10.8826 23.4831 10.4501C23.7 10.0176 23.7753 9.52789 23.6984 9.05022C23.6215 8.57256 23.3963 8.1312 23.0546 7.78864C22.7129 7.44609 22.2722 7.21971 21.7947 7.14156L18.68 6.61616L14.44 7.72166L9.2334 2.55566L5.2134 3.65136L8.47 9.32316L5.8528 10.0059L4.02 8.18846L0.083 9.25096L3.498 15.24H10.0605ZM3.5762 9.86226L5.4033 11.6738L10.749 10.2783L7.4805 4.58886L8.792 4.23136L13.99 9.38996L18.7478 8.14996L21.5506 8.62166C21.7172 8.64863 21.8711 8.72721 21.9906 8.84633C22.1101 8.96545 22.1892 9.11909 22.2167 9.28557C22.2442 9.45204 22.2187 9.62296 22.1439 9.77419C22.0691 9.92543 21.9486 10.0493 21.7996 10.1285L21.4959 10.2848C20.5074 10.8039 19.4644 11.2117 18.3859 11.5006L9.8672 13.74H4.3691L2.3467 10.1943L3.5762 9.86226Z" fill="black"/>
</svg>
