<svg width="24" height="24" viewBox="0 0 24 24" fill="none" xmlns="http://www.w3.org/2000/svg">
<path d="M21.1194 12.4767H18.9431C18.8235 11.8234 18.6853 11.1731 18.5286 10.5259C18.4224 10.0907 18.1732 9.70369 17.8208 9.42701C17.4685 9.15033 17.0334 8.99995 16.5854 9H7.41462C6.96661 8.99995 6.53157 9.15033 6.17922 9.42701C5.82687 9.70369 5.57761 10.0907 5.47142 10.5259C5.31368 11.1726 5.17552 11.8228 5.05692 12.4767H2.88062V13.9753L4.71972 14.8041C4.57558 16.0664 4.50213 17.3359 4.49972 18.6064V21.9337C4.49972 22.1087 4.56925 22.2766 4.69302 22.4004C4.8168 22.5242 4.98467 22.5937 5.15972 22.5937H6.17002C6.34506 22.5937 6.51293 22.5242 6.63671 22.4004C6.76048 22.2766 6.83002 22.1087 6.83002 21.9337V21H17.17V21.9337C17.17 22.1087 17.2396 22.2766 17.3633 22.4004C17.4871 22.5242 17.655 22.5937 17.83 22.5937H18.84C19.0151 22.5937 19.1829 22.5242 19.3067 22.4004C19.4305 22.2766 19.5 22.1087 19.5 21.9337V18.6064C19.4976 17.3359 19.4241 16.0664 19.28 14.8041L21.1191 13.9753L21.1194 12.4767ZM5.95732 10.6445C6.03633 10.3178 6.22309 10.0271 6.48747 9.8195C6.75185 9.61187 7.07845 9.49932 7.41462 9.5H16.5854C16.9216 9.4993 17.2482 9.61185 17.5126 9.81948C17.777 10.0271 17.9637 10.3177 18.0427 10.6445C18.3368 11.86 18.5628 13.0909 18.7197 14.3316H5.28002C5.437 13.0909 5.66311 11.86 5.95732 10.6445ZM4.78202 14.2838L3.38062 13.6522V12.9767H4.97882C4.90602 13.4114 4.83792 13.8467 4.78202 14.2838ZM19.002 20.75H19V21.9337C19 21.9761 18.9832 22.0168 18.9532 22.0468C18.9231 22.0768 18.8825 22.0937 18.84 22.0937H17.83C17.7876 22.0937 17.7469 22.0768 17.7169 22.0468C17.6869 22.0168 17.67 21.9761 17.67 21.9337V20.75H17.6686V20.5H6.33152V20.75H6.33002V21.9337C6.33002 21.9761 6.31316 22.0168 6.28315 22.0468C6.25315 22.0768 6.21245 22.0937 6.17002 22.0937H5.16002C5.11758 22.0937 5.07688 22.0768 5.04688 22.0468C5.01687 22.0168 5.00002 21.9761 5.00002 21.9337V20.75H4.99852V19.906H5.00002V18.606C5.00223 17.3446 5.07541 16.0844 5.21922 14.8312H18.7808C18.9246 16.0845 18.9978 17.3449 19 18.6064V19.9064H19.0015L19.002 20.75ZM20.6199 13.6522L19.2185 14.2838C19.1626 13.8467 19.0945 13.4114 19.0217 12.9767H20.6199V13.6522ZM16.7656 16C16.5215 16 16.2828 16.0724 16.0798 16.208C15.8768 16.3437 15.7186 16.5365 15.6252 16.762C15.5317 16.9876 15.5073 17.2358 15.5549 17.4752C15.6026 17.7147 15.7201 17.9346 15.8928 18.1073C16.0654 18.2799 16.2853 18.3975 16.5248 18.4451C16.7642 18.4927 17.0124 18.4683 17.238 18.3748C17.4636 18.2814 17.6563 18.1232 17.792 17.9202C17.9276 17.7172 18 17.4785 18 17.2344C18 16.907 17.8699 16.5931 17.6384 16.3616C17.4069 16.1301 17.093 16 16.7656 16ZM16.7656 17.9688C16.6204 17.9688 16.4784 17.9257 16.3576 17.845C16.2368 17.7643 16.1427 17.6496 16.0871 17.5154C16.0315 17.3812 16.017 17.2336 16.0453 17.0911C16.0737 16.9487 16.1436 16.8178 16.2463 16.7151C16.349 16.6124 16.4799 16.5424 16.6223 16.5141C16.7648 16.4858 16.9125 16.5003 17.0467 16.5559C17.1809 16.6115 17.2956 16.7056 17.3762 16.8264C17.4569 16.9472 17.5 17.0891 17.5 17.2344C17.4998 17.4291 17.4223 17.6157 17.2846 17.7534C17.147 17.8911 16.9603 17.9685 16.7656 17.9688ZM7.23442 16C6.99027 16 6.75162 16.0724 6.54862 16.208C6.34562 16.3437 6.18741 16.5365 6.09398 16.762C6.00055 16.9876 5.9761 17.2358 6.02373 17.4752C6.07136 17.7147 6.18893 17.9346 6.36156 18.1073C6.5342 18.2799 6.75415 18.3975 6.9936 18.4451C7.23305 18.4927 7.48124 18.4683 7.7068 18.3748C7.93236 18.2814 8.12514 18.1232 8.26078 17.9202C8.39642 17.7172 8.46881 17.4785 8.46881 17.2344C8.46881 16.907 8.33876 16.593 8.10727 16.3615C7.87577 16.1301 7.5618 16 7.23442 16ZM7.23442 17.9688C7.08916 17.9688 6.94718 17.9257 6.8264 17.845C6.70563 17.7643 6.6115 17.6496 6.55592 17.5154C6.50033 17.3812 6.48579 17.2336 6.51413 17.0911C6.54246 16.9487 6.61241 16.8178 6.71512 16.7151C6.81782 16.6124 6.94868 16.5424 7.09114 16.5141C7.2336 16.4858 7.38126 16.5003 7.51546 16.5559C7.64965 16.6115 7.76435 16.7056 7.84505 16.8264C7.92574 16.9472 7.96882 17.0891 7.96882 17.2344C7.96855 17.4291 7.89109 17.6157 7.75342 17.7534C7.61575 17.8911 7.42911 17.9685 7.23442 17.9688ZM12 6.5C12.1799 6.5 12.3581 6.46456 12.5243 6.39571C12.6905 6.32687 12.8415 6.22595 12.9688 6.09874C13.096 5.97152 13.1969 5.82049 13.2657 5.65428C13.3346 5.48806 13.37 5.30991 13.37 5.13C13.1075 3.87509 12.6449 2.67056 12 1.5625C11.3551 2.67056 10.8925 3.87509 10.63 5.13C10.63 5.30991 10.6655 5.48806 10.7343 5.65428C10.8031 5.82049 10.9041 5.97152 11.0313 6.09874C11.2882 6.35566 11.6367 6.5 12 6.5ZM12 2.6505C12.4255 3.42304 12.7195 4.26098 12.87 5.13C12.87 5.36084 12.7783 5.58223 12.6151 5.74547C12.4518 5.9087 12.2305 6.0004 11.9996 6.0004C11.7688 6.0004 11.5474 5.9087 11.3841 5.74547C11.2209 5.58223 11.1292 5.36084 11.1292 5.13C11.2801 4.26097 11.5744 3.42306 12 2.6505ZM6.00002 6.5C6.17993 6.5 6.35808 6.46456 6.52429 6.39571C6.69051 6.32687 6.84154 6.22595 6.96875 6.09874C7.09597 5.97152 7.19688 5.82049 7.26573 5.65428C7.33458 5.48806 7.37002 5.30991 7.37002 5.13C7.1075 3.87509 6.64493 2.67056 6.00002 1.5625C5.3551 2.67056 4.89253 3.87509 4.63002 5.13C4.63002 5.30991 4.66545 5.48806 4.7343 5.65428C4.80315 5.82049 4.90406 5.97152 5.03128 6.09874C5.2882 6.35566 5.63667 6.5 6.00002 6.5ZM6.00002 2.6505C6.42549 3.42304 6.71951 4.26098 6.87002 5.13C6.87002 5.36084 6.77831 5.58223 6.61508 5.74547C6.45185 5.9087 6.23046 6.0004 5.99962 6.0004C5.76877 6.0004 5.54738 5.9087 5.38415 5.74547C5.22092 5.58223 5.12922 5.36084 5.12922 5.13C5.28014 4.26097 5.57442 3.42306 6.00002 2.6505ZM18 6.5C18.1799 6.5 18.3581 6.46456 18.5243 6.39571C18.6905 6.32687 18.8415 6.22595 18.9688 6.09874C19.096 5.97152 19.1969 5.82049 19.2657 5.65428C19.3346 5.48806 19.37 5.30991 19.37 5.13C19.1075 3.87509 18.6449 2.67056 18 1.5625C17.3551 2.67056 16.8925 3.87509 16.63 5.13C16.63 5.30991 16.6655 5.48806 16.7343 5.65428C16.8031 5.82049 16.9041 5.97152 17.0313 6.09874C17.2882 6.35566 17.6367 6.5 18 6.5ZM18 2.6505C18.4255 3.42304 18.7195 4.26098 18.87 5.13C18.87 5.36084 18.7783 5.58223 18.6151 5.74547C18.4518 5.9087 18.2305 6.0004 17.9996 6.0004C17.7688 6.0004 17.5474 5.9087 17.3841 5.74547C17.2209 5.58223 17.1292 5.36084 17.1292 5.13C17.2801 4.26097 17.5744 3.42306 18 2.6505Z" fill="black"/>
</svg>
