<svg width="24" height="24" viewBox="0 0 24 24" fill="none" xmlns="http://www.w3.org/2000/svg">
<path d="M23 13.4316C23 13.1323 22.9328 12.8368 22.8033 12.5669C22.6738 12.2971 22.4854 12.0598 22.2519 11.8725L20.3343 10.3335L18.5572 6.9419C18.3033 6.45681 17.9214 6.05047 17.453 5.76695C16.9846 5.48342 16.4475 5.33352 15.9 5.3335H1V17.403L3.5482 17.693C3.64507 18.2426 3.92384 18.7437 4.33973 19.1159C4.75562 19.488 5.2845 19.7096 5.84146 19.745C6.39841 19.7804 6.95112 19.6277 7.41082 19.3113C7.87052 18.9948 8.21055 18.5331 8.3763 18.0002H15.8008C15.9628 18.5222 16.2921 18.9763 16.7379 19.2924C17.1837 19.6086 17.7212 19.7692 18.2674 19.7494C18.8135 19.7296 19.338 19.5305 19.7597 19.1829C20.1815 18.8353 20.4771 18.3585 20.6008 17.8262L23.0008 17.6807L23 13.4316ZM2.47 6.8029H15.9C16.1795 6.80249 16.4537 6.87871 16.6929 7.02329C16.932 7.16787 17.127 7.37525 17.2565 7.6229L18.6759 10.3329H2.47V6.8029ZM6.0035 18.4168C5.77274 18.4168 5.54714 18.3484 5.35525 18.2203C5.16336 18.0921 5.01379 17.9099 4.92546 17.6967C4.83713 17.4835 4.814 17.2489 4.859 17.0226C4.904 16.7962 5.01512 16.5883 5.17828 16.4251C5.34145 16.262 5.54935 16.1508 5.77568 16.1058C6.00201 16.0608 6.2366 16.0839 6.4498 16.1722C6.663 16.2605 6.84521 16.4101 6.97341 16.602C7.10161 16.7938 7.17002 17.0194 7.17 17.2502C7.16963 17.5595 7.04662 17.856 6.82794 18.0747C6.60926 18.2934 6.31277 18.4164 6.0035 18.4168ZM18.1735 18.4168C17.9427 18.4168 17.7171 18.3484 17.5253 18.2203C17.3334 18.0921 17.1838 17.9099 17.0955 17.6967C17.0071 17.4835 16.984 17.2489 17.029 17.0226C17.074 16.7962 17.1851 16.5883 17.3483 16.4251C17.5115 16.262 17.7193 16.1508 17.9457 16.1058C18.172 16.0608 18.4066 16.0839 18.6198 16.1722C18.833 16.2605 19.0152 16.4101 19.1434 16.602C19.2716 16.7938 19.34 17.0194 19.34 17.2502C19.3397 17.5595 19.2167 17.856 18.998 18.0747C18.7793 18.2934 18.4829 18.4164 18.1736 18.4168H18.1735ZM21.5302 16.2968L20.5026 16.3592C20.3188 15.8719 19.9866 15.4545 19.553 15.1661C19.1193 14.8777 18.606 14.7327 18.0855 14.7515C17.565 14.7704 17.0636 14.9523 16.652 15.2714C16.2403 15.5905 15.9393 16.0308 15.7913 16.5302H8.3857C8.24071 16.0419 7.94935 15.6098 7.55096 15.2923C7.15257 14.9748 6.66636 14.7873 6.15797 14.7549C5.64958 14.7226 5.14352 14.8471 4.70813 15.1115C4.27273 15.376 3.92898 15.7677 3.7233 16.2337L2.47 16.091V11.8335H19.8553L21.332 13.0188C21.3938 13.0684 21.4438 13.1313 21.4781 13.2028C21.5124 13.2742 21.5302 13.3525 21.5303 13.4318L21.5302 16.2968Z" fill="black"/>
</svg>
