<svg width="24" height="24" viewBox="0 0 24 24" fill="none" xmlns="http://www.w3.org/2000/svg">
<path d="M6.499 13.2578L2 16.9998V20.156L7.5 20.87V12.1508C7.21821 12.5636 6.88144 12.936 6.499 13.2578ZM12 0.295898C9.9529 0.295898 8.5 4.6949 8.5 6.7998V21.9998H11.5134L11.7393 16.9998H12.2593L12.4863 21.9998H15.5V6.7998C15.5 4.6949 14.0471 0.295898 12 0.295898ZM13.9062 6.365C13.3659 5.93048 12.6934 5.6936 12 5.6936C11.3066 5.6936 10.6341 5.93048 10.0938 6.365V4.9677C10.2485 4.66654 10.4417 4.38677 10.6685 4.1354C10.8385 3.9521 11.0445 3.80586 11.2736 3.70586C11.5027 3.60586 11.75 3.55425 12 3.55425C12.25 3.55425 12.4973 3.60586 12.7264 3.70586C12.9555 3.80586 13.1615 3.9521 13.3315 4.1354C13.5583 4.38675 13.7515 4.66649 13.9062 4.9676V6.365ZM17.501 13.2578C17.1186 12.936 16.7818 12.5636 16.5 12.1508V20.8698L22 20.1558V16.9998L17.501 13.2578Z" fill="black"/>
</svg>
