<svg width="24" height="24" viewBox="0 0 24 24" fill="none" xmlns="http://www.w3.org/2000/svg">
<g clip-path="url(#clip0)">
<path d="M24 17V12.3279C24.0004 12.0468 23.916 11.772 23.7579 11.5396C23.5998 11.3071 23.3753 11.1277 23.1137 11.0247C21.723 10.4721 20.2587 10.1269 18.7677 10L16.3966 6.2448C16.2163 5.95927 15.9667 5.72403 15.671 5.561C15.3753 5.39798 15.0431 5.31249 14.7054 5.3125H10.4226V10H0V16.5L3.5834 16.9009C3.66468 17.7146 4.04237 18.47 4.64455 19.0233C5.24673 19.5766 6.03135 19.8891 6.84902 19.9013C7.6667 19.9136 8.46032 19.6247 9.07879 19.0897C9.69727 18.5547 10.0974 17.8109 10.203 17H15.811C15.9155 17.8026 16.3085 18.5398 16.9167 19.0739C17.5249 19.608 18.3066 19.9026 19.116 19.9026C19.9254 19.9026 20.7071 19.608 21.3153 19.0739C21.9235 18.5398 22.3165 17.8026 22.421 17H24ZM6.8982 18.1521C6.58175 18.1521 6.27241 18.0583 6.00929 17.8825C5.74617 17.7066 5.54109 17.4568 5.41999 17.1644C5.29889 16.872 5.26721 16.5503 5.32894 16.24C5.39068 15.9296 5.54307 15.6445 5.76683 15.4207C5.99059 15.197 6.27569 15.0446 6.58606 14.9828C6.89642 14.9211 7.21813 14.9528 7.51049 15.0739C7.80286 15.195 8.05274 15.4001 8.22855 15.6632C8.40436 15.9263 8.4982 16.2356 8.4982 16.5521C8.4977 16.9763 8.32897 17.383 8.02902 17.6829C7.72907 17.9829 7.32239 18.1516 6.8982 18.1521ZM12.3226 7.2121H14.7054C14.7223 7.21209 14.7389 7.21636 14.7537 7.22451C14.7685 7.23266 14.781 7.24442 14.79 7.2587L16.5206 10H12.3226V7.2121ZM19.116 18.1521C18.7995 18.1521 18.4902 18.0583 18.2271 17.8825C17.964 17.7066 17.7589 17.4568 17.6378 17.1644C17.5167 16.872 17.485 16.5503 17.5467 16.24C17.6085 15.9296 17.7609 15.6445 17.9846 15.4207C18.2084 15.197 18.4935 15.0446 18.8039 14.9828C19.1142 14.9211 19.4359 14.9528 19.7283 15.0739C20.0207 15.195 20.2705 15.4001 20.4464 15.6632C20.6222 15.9263 20.716 16.2356 20.716 16.5521C20.7155 16.9763 20.5468 17.383 20.2468 17.6829C19.9469 17.9829 19.5402 18.1516 19.116 18.1521Z" fill="black"/>
</g>
<defs>
<clipPath id="clip0">
<rect width="24" height="24" fill="white"/>
</clipPath>
</defs>
</svg>
