<svg width="24" height="24" viewBox="0 0 24 24" fill="none" xmlns="http://www.w3.org/2000/svg">
<path d="M14.9684 14.2356C14.7997 14.2356 14.6348 14.2856 14.4945 14.3793C14.3542 14.473 14.2448 14.6063 14.1803 14.7621C14.1157 14.918 14.0988 15.0895 14.1317 15.255C14.1646 15.4205 14.2458 15.5725 14.3651 15.6918C14.4844 15.8111 14.6364 15.8923 14.8019 15.9252C14.9674 15.9581 15.1389 15.9412 15.2948 15.8767C15.4506 15.8121 15.5839 15.7027 15.6776 15.5624C15.7713 15.4222 15.8213 15.2572 15.8213 15.0885C15.8213 14.8623 15.7314 14.6454 15.5715 14.4854C15.4115 14.3255 15.1946 14.2356 14.9684 14.2356ZM9.0317 14.2356C8.86298 14.2356 8.69805 14.2856 8.55776 14.3793C8.41747 14.473 8.30813 14.6063 8.24355 14.7621C8.17898 14.918 8.16208 15.0895 8.19499 15.255C8.2279 15.4205 8.30914 15.5725 8.42844 15.6918C8.54774 15.8111 8.69974 15.8923 8.86521 15.9252C9.03069 15.9581 9.20221 15.9412 9.35808 15.8767C9.51395 15.8121 9.64716 15.7027 9.74089 15.5624C9.83461 15.4222 9.88462 15.2572 9.8846 15.0885C9.8846 14.8623 9.79474 14.6454 9.63479 14.4854C9.47484 14.3255 9.2579 14.2356 9.0317 14.2356ZM16.2411 6.5H7.7589C7.7446 6.5408 7.7179 6.5745 7.707 6.617C7.30946 8.16796 7.10825 9.7627 7.1081 11.3638V13H16.8919V11.3638C16.8918 9.7627 16.6905 8.16796 16.293 6.617C16.2821 6.5745 16.2554 6.5408 16.2411 6.5ZM12 1.5C9.7406 1.49857 7.53089 2.16314 5.64711 3.41065C3.76334 4.65816 2.28906 6.43326 1.40858 8.51404C0.528098 10.5948 0.280477 12.889 0.696671 15.1097C1.11287 17.3305 2.17441 19.3793 3.7486 21H7.8486L9.5808 18H10.214L8.4822 21H15.5179L13.7857 18H14.4189L16.1511 21H20.2511C21.8253 19.3793 22.8868 17.3305 23.303 15.1098C23.7192 12.8891 23.4716 10.5949 22.5912 8.51418C21.7107 6.43341 20.2365 4.65831 18.3528 3.41078C16.469 2.16325 14.2594 1.49863 12 1.5ZM17.3919 15.99C17.3919 16.2526 17.3402 16.5127 17.2397 16.7554C17.1392 16.998 16.9918 17.2185 16.8061 17.4042C16.6204 17.5899 16.3999 17.7373 16.1573 17.8378C15.9146 17.9383 15.6545 17.99 15.3919 17.99H8.6081C8.07767 17.99 7.56896 17.7793 7.19389 17.4042C6.81881 17.0291 6.6081 16.5204 6.6081 15.99V11.3638C6.60811 9.7208 6.8146 8.08431 7.2227 6.4928C7.33306 6.06284 7.58332 5.6818 7.93406 5.40972C8.28481 5.13764 8.7161 4.98998 9.16 4.99H14.84C15.284 4.99001 15.7153 5.13772 16.066 5.40988C16.4168 5.68204 16.667 6.06316 16.7773 6.4932C17.1854 8.08471 17.3919 9.7212 17.3919 11.3642V15.99Z" fill="black"/>
</svg>
