<svg width="24" height="24" viewBox="0 0 24 24" fill="none" xmlns="http://www.w3.org/2000/svg">
<path d="M16.0752 16.0661C15.8774 16.0661 15.6841 16.1247 15.5196 16.2346C15.3552 16.3445 15.227 16.5007 15.1513 16.6834C15.0756 16.8661 15.0558 17.0672 15.0944 17.2612C15.133 17.4552 15.2282 17.6334 15.3681 17.7732C15.5079 17.9131 15.6861 18.0083 15.8801 18.0469C16.0741 18.0855 16.2751 18.0657 16.4579 17.99C16.6406 17.9143 16.7968 17.7861 16.9066 17.6217C17.0165 17.4572 17.0752 17.2639 17.0752 17.0661C17.0752 16.8009 16.9698 16.5465 16.7823 16.359C16.5947 16.1715 16.3404 16.0661 16.0752 16.0661ZM20.8657 13.3873H19.0715C18.897 12.3598 18.6641 11.3432 18.374 10.3422C18.2648 9.97031 18.0424 9.64174 17.7377 9.40226C17.433 9.16278 17.0611 9.02433 16.674 9.0062C16.644 9.0022 16.4705 9.0002 16.44 9.0002H7.56178C7.53468 9.0002 7.36248 9.0018 7.33638 9.005C6.94737 9.02129 6.57324 9.15903 6.26654 9.39886C5.95984 9.6387 5.73597 9.96859 5.62638 10.3422C5.33625 11.3432 5.10337 12.3598 4.92888 13.3873H3.13428V14.2638L4.71678 14.8138C4.58452 15.8605 4.5127 16.9139 4.50168 17.9689C4.50048 18.0331 4.49998 18.4878 4.49998 18.5521V21.9343C4.49998 22.1093 4.56951 22.2772 4.69329 22.401C4.81706 22.5248 4.98493 22.5943 5.15998 22.5943H5.48998C5.66502 22.5943 5.83289 22.5248 5.95667 22.401C6.08044 22.2772 6.14998 22.1093 6.14998 21.9343V21.0002H17.85V21.9339C17.85 22.1089 17.9195 22.2768 18.0433 22.4006C18.1671 22.5244 18.3349 22.5939 18.51 22.5939H18.84C19.015 22.5939 19.1829 22.5244 19.3067 22.4006C19.4304 22.2768 19.5 22.1089 19.5 21.9339V18.5513C19.5 18.4881 19.5 18.0346 19.4985 17.9713C19.4874 16.9153 19.4156 15.8609 19.2832 14.8132L20.8657 14.2632V13.3873ZM7.01658 10.7531C7.04026 10.6699 7.08956 10.5962 7.15749 10.5425C7.22541 10.4889 7.30851 10.458 7.39498 10.4543L7.56348 10.4504L16.5806 10.4523C16.6707 10.4527 16.7584 10.4819 16.8308 10.5357C16.9032 10.5895 16.9565 10.665 16.9829 10.7512C17.2598 11.7062 17.4817 12.6762 17.6475 13.6566H6.35248C6.51827 12.6769 6.74 11.7075 7.01658 10.7531ZM5.94998 19.5502L5.95098 17.9902C5.96168 16.9981 6.02868 16.0075 6.15168 15.023H17.8484C17.9713 16.0039 18.038 16.991 18.0484 17.9795L18.0499 19.5495L5.94998 19.5502ZM7.92458 16.0663C7.7268 16.0663 7.53346 16.1249 7.36901 16.2348C7.20456 16.3447 7.07639 16.5009 7.0007 16.6836C6.92501 16.8663 6.90521 17.0674 6.94379 17.2614C6.98238 17.4554 7.07762 17.6336 7.21747 17.7734C7.35732 17.9133 7.53551 18.0085 7.72949 18.0471C7.92347 18.0857 8.12453 18.0659 8.30726 17.9902C8.48999 17.9145 8.64616 17.7863 8.75605 17.6219C8.86593 17.4574 8.92458 17.2641 8.92458 17.0663C8.9246 16.935 8.89876 16.8049 8.84853 16.6836C8.7983 16.5623 8.72467 16.452 8.63183 16.3591C8.53899 16.2663 8.42876 16.1926 8.30745 16.1423C8.18613 16.092 8.0561 16.0661 7.92478 16.0661L7.92458 16.0663ZM18 6.5002C18.1122 6.50021 18.2234 6.47811 18.3271 6.43515C18.4308 6.3922 18.525 6.32923 18.6044 6.24985C18.6838 6.17047 18.7467 6.07624 18.7897 5.97252C18.8326 5.86881 18.8547 5.75765 18.8547 5.6454C18.6409 4.29805 18.3556 2.96302 18 1.646C17.6443 2.96302 17.359 4.29805 17.1453 5.6454C17.1453 5.75765 17.1673 5.86881 17.2103 5.97252C17.2532 6.07624 17.3162 6.17047 17.3955 6.24985C17.4749 6.32923 17.5691 6.3922 17.6729 6.43515C17.7766 6.47811 17.8877 6.50021 18 6.5002ZM12 6.5002C12.1122 6.50021 12.2234 6.47811 12.3271 6.43515C12.4308 6.3922 12.525 6.32923 12.6044 6.24985C12.6838 6.17047 12.7467 6.07624 12.7897 5.97252C12.8326 5.86881 12.8547 5.75765 12.8547 5.6454C12.6409 4.29805 12.3556 2.96302 12 1.646C11.6443 2.96302 11.359 4.29805 11.1453 5.6454C11.1453 5.75765 11.1673 5.86881 11.2103 5.97252C11.2532 6.07624 11.3162 6.17047 11.3955 6.24985C11.4749 6.32923 11.5691 6.3922 11.6729 6.43515C11.7766 6.47811 11.8877 6.50021 12 6.5002ZM5.99998 6.5002C6.11223 6.50021 6.22339 6.47811 6.3271 6.43515C6.43081 6.3922 6.52504 6.32923 6.60441 6.24985C6.68378 6.17047 6.74673 6.07624 6.78967 5.97252C6.83261 5.86881 6.8547 5.75765 6.85468 5.6454C6.64092 4.29805 6.35562 2.96302 5.99998 1.646C5.64434 2.96302 5.35903 4.29805 5.14528 5.6454C5.14525 5.75765 5.16734 5.86881 5.21028 5.97252C5.25322 6.07624 5.31618 6.17047 5.39555 6.24985C5.47492 6.32923 5.56915 6.3922 5.67286 6.43515C5.77657 6.47811 5.88772 6.50021 5.99998 6.5002Z" fill="black"/>
</svg>
