<svg width="24" height="24" viewBox="0 0 24 24" fill="none" xmlns="http://www.w3.org/2000/svg">
<path d="M15.2278 7.0156C15.153 7.0053 14.9865 7 14.9092 7H9.092C9.0193 7 8.856 7.0047 8.7855 7.0139C8.30172 7.05761 7.84374 7.25158 7.47573 7.56863C7.10771 7.88568 6.84811 8.30992 6.7333 8.7819C6.35691 10.3226 6.16668 11.9028 6.1667 13.4888V16.5C6.16641 17.1411 6.41315 17.7576 6.85564 18.2215C7.29812 18.6853 7.90233 18.9609 8.5427 18.9908C8.5827 18.9969 8.8781 19 8.9202 19H9.1938L8.0391 21H9.79L10.9448 19H13.0548L14.21 21H15.9609L14.8062 19H15.3333C15.9847 18.9999 16.6103 18.7456 17.077 18.2912C17.5436 17.8368 17.8145 17.2181 17.832 16.567C17.8329 16.5447 17.8333 16.5023 17.8333 16.4799V13.4888C17.8333 11.9028 17.6431 10.3226 17.2667 8.7819C17.1524 8.31219 16.8947 7.88973 16.5293 7.5732C16.1639 7.25667 15.709 7.06178 15.2278 7.0156ZM8.0622 9.1011C8.11377 8.89129 8.23428 8.70486 8.40441 8.57169C8.57454 8.43851 8.78444 8.36629 9.0005 8.3666H15C15.2161 8.36629 15.426 8.43851 15.5961 8.57169C15.7662 8.70486 15.8867 8.89129 15.9383 9.1011C16.1987 10.1673 16.3636 11.2546 16.431 12.35H7.57C7.63724 11.2546 7.80196 10.1673 8.0622 9.1011ZM16.4667 16.5C16.4664 16.8005 16.3468 17.0886 16.1343 17.301C15.9219 17.5135 15.6338 17.633 15.3333 17.6333H8.6667C8.36622 17.633 8.07813 17.5135 7.86565 17.301C7.65317 17.0886 7.53365 16.8005 7.5333 16.5V13.8H16.4667V16.5ZM12 1.5C9.7406 1.49857 7.53089 2.16314 5.64711 3.41065C3.76334 4.65816 2.28906 6.43326 1.40858 8.51404C0.528098 10.5948 0.280477 12.889 0.696671 15.1097C1.11287 17.3305 2.17441 19.3793 3.7486 21H6.0516C4.36006 19.7483 3.10649 17.9948 2.46937 15.9893C1.83224 13.9837 1.84402 11.8283 2.50304 9.82982C3.16206 7.83136 4.43472 6.09172 6.13986 4.85856C7.84499 3.62539 9.89568 2.96156 12 2.96156C14.1043 2.96156 16.155 3.62539 17.8601 4.85856C19.5653 6.09172 20.8379 7.83136 21.497 9.82982C22.156 11.8283 22.1678 13.9837 21.5306 15.9893C20.8935 17.9948 19.6399 19.7483 17.9484 21H20.2514C21.8256 19.3793 22.8871 17.3305 23.3033 15.1097C23.7195 12.889 23.4719 10.5948 22.5914 8.51404C21.7109 6.43326 20.2367 4.65816 18.3529 3.41065C16.4691 2.16314 14.2594 1.49857 12 1.5ZM9.325 16.4186C9.49407 16.4186 9.65935 16.3685 9.79994 16.2746C9.94053 16.1807 10.0501 16.0472 10.1148 15.891C10.1795 15.7348 10.1965 15.5629 10.1635 15.3971C10.1305 15.2312 10.0491 15.0789 9.92954 14.9594C9.80998 14.8398 9.65766 14.7584 9.49184 14.7254C9.32602 14.6924 9.15414 14.7094 8.99794 14.7741C8.84174 14.8388 8.70824 14.9484 8.61432 15.089C8.5204 15.2295 8.47028 15.3948 8.4703 15.5639C8.4703 15.7906 8.56035 16.008 8.72064 16.1683C8.88092 16.3286 9.09832 16.4186 9.325 16.4186ZM14.675 16.4186C14.8441 16.4186 15.0094 16.3685 15.1499 16.2746C15.2905 16.1807 15.4001 16.0472 15.4648 15.891C15.5295 15.7348 15.5465 15.5629 15.5135 15.3971C15.4805 15.2312 15.3991 15.0789 15.2795 14.9594C15.16 14.8398 15.0077 14.7584 14.8418 14.7254C14.676 14.6924 14.5041 14.7094 14.3479 14.7741C14.1917 14.8388 14.0582 14.9484 13.9643 15.089C13.8704 15.2295 13.8203 15.3948 13.8203 15.5639C13.8203 15.7906 13.9103 16.008 14.0706 16.1683C14.2309 16.3286 14.4483 16.4186 14.675 16.4186Z" fill="black"/>
</svg>
