<svg width="24" height="24" viewBox="0 0 24 24" fill="none" xmlns="http://www.w3.org/2000/svg">
<g clip-path="url(#clip0)">
<path d="M24 13.5061C24.0005 13.1395 23.8947 12.7806 23.6956 12.4727C23.4964 12.1649 23.2124 11.9213 22.8778 11.7714C21.3248 11.0686 19.6625 10.6383 17.9636 10.4992L15.2512 7.83542C14.5967 7.19264 13.716 6.83251 12.7987 6.83252H2.5215L0.5281 9.73132C0.184144 10.2315 2.99833e-06 10.8242 0 11.4312L0 16.2L4.0125 17H4.0156C4.12779 17.497 4.40572 17.9411 4.8037 18.2593C5.20169 18.5775 5.69607 18.7508 6.2056 18.7508C6.71513 18.7508 7.20951 18.5775 7.6075 18.2593C8.00548 17.9411 8.28341 17.497 8.3956 17H17.523C17.6352 17.497 17.9131 17.9411 18.3111 18.2593C18.7091 18.5775 19.2035 18.7508 19.713 18.7508C20.2225 18.7508 20.7169 18.5775 21.1149 18.2593C21.5129 17.9411 21.7908 17.497 21.903 17H24V13.5061ZM0.94 10.0146L2.7845 7.33252H12.7987C13.5854 7.33079 14.3409 7.63989 14.9008 8.19252L17.2499 10.4995H0.6873C0.753487 10.3291 0.838231 10.1665 0.94 10.0146ZM6.2054 18.25C5.85928 18.25 5.52094 18.1474 5.23315 17.9551C4.94537 17.7628 4.72106 17.4895 4.58861 17.1697C4.45616 16.8499 4.4215 16.4981 4.48903 16.1586C4.55655 15.8191 4.72322 15.5073 4.96796 15.2626C5.21271 15.0178 5.52453 14.8512 5.86399 14.7836C6.20346 14.7161 6.55533 14.7508 6.8751 14.8832C7.19487 15.0157 7.46818 15.24 7.66047 15.5278C7.85276 15.8156 7.9554 16.1539 7.9554 16.5C7.95487 16.964 7.77033 17.4088 7.44225 17.7369C7.11418 18.0649 6.66937 18.2495 6.2054 18.25ZM19.7128 18.25C19.3667 18.25 19.0283 18.1474 18.7406 17.9551C18.4528 17.7628 18.2285 17.4895 18.096 17.1697C17.9636 16.8499 17.9289 16.4981 17.9964 16.1586C18.0639 15.8191 18.2306 15.5073 18.4754 15.2626C18.7201 15.0178 19.0319 14.8512 19.3714 14.7836C19.7109 14.7161 20.0627 14.7508 20.3825 14.8832C20.7023 15.0157 20.9756 15.24 21.1679 15.5278C21.3602 15.8156 21.4628 16.1539 21.4628 16.5C21.4623 16.964 21.2777 17.4088 20.9497 17.7369C20.6216 18.0649 20.1768 18.2495 19.7128 18.25ZM23.5 16.5H21.9628C21.9628 15.9033 21.7257 15.331 21.3038 14.909C20.8818 14.4871 20.3095 14.25 19.7128 14.25C19.1161 14.25 18.5438 14.4871 18.1218 14.909C17.6999 15.331 17.4628 15.9033 17.4628 16.5H8.4554C8.45529 15.9054 8.21972 15.3351 7.80021 14.9137C7.3807 14.4923 6.81139 14.2542 6.2168 14.2514C5.62221 14.2487 5.05072 14.4815 4.62733 14.899C4.20394 15.3165 3.96311 15.8846 3.9575 16.4792L0.5 15.79V11.4312C0.5011 11.2863 0.514818 11.1417 0.541 10.9991H17.94C19.5764 11.1344 21.1773 11.5499 22.6729 12.2274C22.9192 12.3384 23.1282 12.5181 23.2749 12.7449C23.4216 12.9717 23.4997 13.236 23.5 13.5061V16.5Z" fill="black"/>
</g>
<defs>
<clipPath id="clip0">
<rect width="24" height="24" fill="white"/>
</clipPath>
</defs>
</svg>
