<svg width="24" height="24" viewBox="0 0 24 24" fill="none" xmlns="http://www.w3.org/2000/svg">
<g clip-path="url(#clip0)">
<path d="M24 17V11.9906C24.0008 11.639 23.9037 11.2941 23.7195 10.9946C23.5354 10.695 23.2714 10.4526 22.9573 10.2946C21.4361 9.50296 19.7573 9.06065 18.0435 8.99995L15.4972 6.25065C15.1227 5.84635 14.6687 5.52378 14.1637 5.30319C13.6587 5.0826 13.1136 4.96874 12.5625 4.96875H8.83C8.124 4.96867 7.42599 5.11811 6.7819 5.40722C6.13781 5.69634 5.56225 6.11858 5.0931 6.64615L3 8.99995H1.8758C1.37831 8.99995 0.90119 9.19758 0.549409 9.54936C0.197628 9.90114 0 10.3783 0 10.8758L0 16.2L2.9254 16.9389C3.11443 17.464 3.45936 17.9187 3.91399 18.2423C4.36862 18.5659 4.91126 18.7428 5.46923 18.7494C6.02721 18.7561 6.5739 18.5921 7.0361 18.2794C7.49829 17.9667 7.85394 17.5203 8.0554 17H15.6412C15.8411 17.5153 16.1921 17.9582 16.6482 18.2705C17.1043 18.5828 17.6441 18.7499 18.1969 18.7499C18.7497 18.7499 19.2895 18.5828 19.7456 18.2705C20.2017 17.9582 20.5527 17.5153 20.7526 17H24ZM6.513 7.90865C6.80399 7.58167 7.16088 7.31995 7.56021 7.14071C7.95954 6.96147 8.39228 6.86875 8.83 6.86865H12.563C12.8523 6.86905 13.1383 6.92902 13.4034 7.04482C13.6685 7.16063 13.9069 7.32978 14.1037 7.54175L15.4537 8.99995H5.5425L6.513 7.90865ZM1.8758 10.8999H17.9641C19.4075 10.9457 20.8217 11.3187 22.1 11.9906V15.1H20.784C20.5997 14.5603 20.2512 14.0918 19.7873 13.76C19.3235 13.4283 18.7675 13.2499 18.1972 13.2499C17.6269 13.2499 17.0709 13.4283 16.6071 13.76C16.1432 14.0918 15.7947 14.5603 15.6104 15.1H8.0868C7.90509 14.57 7.5652 14.1085 7.11298 13.7779C6.66076 13.4472 6.11798 13.2631 5.55789 13.2506C4.99779 13.2381 4.44734 13.3977 3.9808 13.7079C3.51426 14.018 3.1541 14.4638 2.9489 14.9852L1.8932 14.7186L1.8758 10.8999ZM5.5 17C5.30222 17 5.10888 16.9413 4.94443 16.8314C4.77998 16.7215 4.65181 16.5654 4.57612 16.3826C4.50043 16.1999 4.48063 15.9988 4.51921 15.8049C4.5578 15.6109 4.65304 15.4327 4.79289 15.2928C4.93275 15.153 5.11093 15.0578 5.30491 15.0192C5.49889 14.9806 5.69996 15.0004 5.88268 15.0761C6.06541 15.1518 6.22159 15.2799 6.33147 15.4444C6.44135 15.6088 6.5 15.8022 6.5 16C6.49971 16.2651 6.39426 16.5193 6.20679 16.7067C6.01931 16.8942 5.76513 16.9997 5.5 17ZM18.1972 17C17.9994 17 17.8061 16.9413 17.6416 16.8314C17.4772 16.7215 17.349 16.5654 17.2733 16.3826C17.1976 16.1999 17.1778 15.9988 17.2164 15.8049C17.255 15.6109 17.3502 15.4327 17.4901 15.2928C17.6299 15.153 17.8081 15.0578 18.0021 15.0192C18.1961 14.9806 18.3972 15.0004 18.5799 15.0761C18.7626 15.1518 18.9188 15.2799 19.0287 15.4444C19.1386 15.6088 19.1972 15.8022 19.1972 16C19.1969 16.2651 19.0915 16.5193 18.904 16.7067C18.7165 16.8942 18.4623 16.9997 18.1972 17Z" fill="black"/>
</g>
<defs>
<clipPath id="clip0">
<rect width="24" height="24" fill="white"/>
</clipPath>
</defs>
</svg>
