<svg width="24" height="24" viewBox="0 0 24 24" fill="none" xmlns="http://www.w3.org/2000/svg">
<path d="M10.1741 2.77726L14.4887 9.99016L14.7604 10.4443H19.8018L21.6255 11.0184C21.8016 11.0732 21.9556 11.1829 22.065 11.3315C22.1743 11.4801 22.2333 11.6598 22.2333 11.8443C22.2333 12.0288 22.1743 12.2084 22.065 12.357C21.9556 12.5056 21.8016 12.6153 21.6255 12.6702L19.8019 13.2443H14.76L14.4883 13.6985L10.1741 20.9102H8.55465L10.5356 14.4502L10.9056 13.2432H5.32225L5.05045 13.6967L3.72845 15.9043H2.21145L3.37145 12.1163L3.45495 11.8432L3.37145 11.5702L2.21145 7.78216H3.72845L5.05045 9.99016L5.32225 10.4436H10.9057L10.5357 9.23666L8.55475 2.77666H10.1742L10.1741 2.77726ZM10.7034 1.84326H7.29225L9.64315 9.51016H5.85095L4.25705 6.84956H0.949951L2.47925 11.8439L0.949951 16.8383H4.25705L5.85095 14.1773H9.64315L7.29225 21.8439H10.7033L15.29 14.1773H19.9377L21.8913 13.5644C22.2604 13.4523 22.5836 13.2246 22.8133 12.9148C23.043 12.605 23.167 12.2296 23.167 11.8439C23.167 11.4583 23.043 11.0828 22.8133 10.773C22.5836 10.4632 22.2604 10.2355 21.8913 10.1235L19.9375 9.51016H15.29L10.7033 1.84386L10.7034 1.84326Z" fill="black"/>
</svg>
