<svg width="24" height="24" viewBox="0 0 24 24" fill="none" xmlns="http://www.w3.org/2000/svg">
<path d="M15.9656 16.3779C16.1832 16.3779 16.3958 16.3134 16.5767 16.1925C16.7576 16.0716 16.8986 15.8998 16.9819 15.6988C17.0651 15.4978 17.0869 15.2767 17.0445 15.0633C17.002 14.8499 16.8973 14.6539 16.7434 14.5001C16.5896 14.3462 16.3936 14.2415 16.1802 14.199C15.9668 14.1566 15.7456 14.1784 15.5446 14.2616C15.3436 14.3449 15.1719 14.4859 15.051 14.6668C14.9301 14.8477 14.8656 15.0603 14.8656 15.2779C14.8656 15.5696 14.9815 15.8494 15.1878 16.0557C15.3941 16.262 15.6739 16.3779 15.9656 16.3779ZM8.0344 16.3779C8.25196 16.3779 8.46463 16.3134 8.64553 16.1925C8.82642 16.0716 8.96741 15.8998 9.05067 15.6988C9.13392 15.4978 9.15571 15.2767 9.11326 15.0633C9.07082 14.8499 8.96605 14.6539 8.81222 14.5001C8.65838 14.3462 8.46238 14.2415 8.249 14.199C8.03562 14.1566 7.81445 14.1784 7.61345 14.2616C7.41245 14.3449 7.24065 14.4859 7.11978 14.6668C6.99891 14.8477 6.9344 15.0603 6.9344 15.2779C6.9344 15.5696 7.05029 15.8494 7.25658 16.0557C7.46287 16.262 7.74266 16.3779 8.0344 16.3779ZM19.2512 5.507C19.1369 4.82086 18.7875 4.19585 18.2629 3.73913C17.7382 3.2824 17.071 3.0224 16.3757 3.0037C16.3481 3.0014 16.1666 3.0002 16.1384 3.0002H12.75V1.8455L16 1.2202V0.333496H8V1.2202L11.25 1.8454V3.0002H7.8633C7.8378 3.0002 7.6571 3.0012 7.6319 3.0031C6.93519 3.0202 6.26621 3.27954 5.74002 3.73652C5.21383 4.1935 4.86333 4.81955 4.7488 5.507C4.36139 7.83183 4.1667 10.1847 4.1667 12.5416V17.5002C4.16656 18.1472 4.41763 18.7689 4.86697 19.2344C5.31631 19.6998 5.92883 19.9726 6.5754 19.9953C6.6054 19.9985 6.799 20.0002 6.8298 20.0002H8.4309L6.6987 23.0002H8.45L10.1822 20.0002H13.8184L15.55 23.0002H17.301L15.5688 20.0002H17.333C17.996 20.0002 18.6319 19.7368 19.1008 19.268C19.5696 18.7991 19.833 18.1632 19.833 17.5002V12.5416C19.8331 10.1847 19.6385 7.83184 19.2512 5.507ZM6.2285 5.7536C6.28596 5.40293 6.46643 5.0842 6.73756 4.85452C7.00869 4.62484 7.35276 4.49923 7.7081 4.5002H16.2919C16.6473 4.49913 16.9915 4.6247 17.2627 4.85439C17.5339 5.08408 17.7144 5.40287 17.7719 5.7536C18.0767 7.59934 18.256 9.46361 18.3086 11.3336H5.6918C5.74443 9.46361 5.92374 7.59934 6.2285 5.7536ZM18.3333 17.5002C18.333 17.7653 18.2276 18.0195 18.0401 18.207C17.8526 18.3945 17.5984 18.4999 17.3333 18.5002H6.6667C6.40157 18.4999 6.14739 18.3945 5.95991 18.207C5.77244 18.0195 5.66699 17.7653 5.6667 17.5002V12.8335H18.3333V17.5002Z" fill="black"/>
</svg>
