<svg width="24" height="24" viewBox="0 0 24 24" fill="none" xmlns="http://www.w3.org/2000/svg">
<path d="M22.9652 13.6975C22.9237 13.3781 22.8025 13.0744 22.6126 12.8142C22.4228 12.554 22.1706 12.3459 21.8791 12.2089C20.6748 11.6424 19.3927 11.2589 18.0752 11.0711C17.8875 11.0418 17.7202 11.0122 17.5176 10.9943C17.5176 10.9943 14.702 8.17098 14.591 8.09718C13.7817 7.40426 12.7568 7.01386 11.6916 6.99268H3.5347L1.6407 10.0312C1.31861 10.547 1.10092 11.121 1 11.7207V16.4069L2.7747 16.8996C2.83214 17.5913 3.14435 18.2371 3.65081 18.7118C4.15727 19.1864 4.82192 19.4562 5.51593 19.4687C6.20995 19.4812 6.8839 19.2357 7.40716 18.7796C7.93043 18.3235 8.26573 17.6894 8.3481 17.0002H15.7908C15.872 17.6809 16.1999 18.3082 16.7125 18.7633C17.2252 19.2185 17.8869 19.4698 18.5724 19.4698C19.2579 19.4698 19.9196 19.2185 20.4323 18.7633C20.9449 18.3082 21.2728 17.6809 21.354 17.0002H23C23 17.0002 22.9881 13.7966 22.9652 13.6975ZM2.4668 10.5949L4.09 7.99238H11.6916C12.519 8.01256 13.3139 8.31824 13.9416 8.85758L16.11 11.0002H2.26C2.31868 10.8601 2.38781 10.7246 2.4668 10.5949ZM5.5668 18.5695C5.18771 18.5695 4.81712 18.4571 4.50191 18.2465C4.1867 18.0359 3.94101 17.7366 3.79593 17.3863C3.65084 17.0361 3.61287 16.6507 3.68682 16.2789C3.76076 15.9071 3.9433 15.5656 4.21135 15.2975C4.4794 15.0294 4.82093 14.8469 5.19273 14.7729C5.56454 14.6989 5.94993 14.7369 6.30017 14.882C6.6504 15.027 6.94976 15.2727 7.16037 15.5879C7.37099 15.9031 7.4834 16.2737 7.4834 16.6528C7.48284 17.161 7.2807 17.6482 6.92133 18.0075C6.56195 18.3669 6.0747 18.569 5.5665 18.5695H5.5668ZM18.5727 18.5695C18.1936 18.5695 17.823 18.4571 17.5078 18.2465C17.1926 18.0358 16.947 17.7365 16.8019 17.3863C16.6568 17.036 16.6189 16.6507 16.6928 16.2788C16.7668 15.907 16.9493 15.5655 17.2174 15.2975C17.4854 15.0294 17.827 14.8469 18.1988 14.7729C18.5706 14.6989 18.956 14.7369 19.3062 14.882C19.6564 15.027 19.9558 15.2727 20.1664 15.5879C20.377 15.9031 20.4894 16.2737 20.4894 16.6528C20.4888 17.161 20.2867 17.6482 19.9273 18.0076C19.5679 18.3669 19.0806 18.569 18.5724 18.5695H18.5727Z" fill="black"/>
</svg>
