<svg width="24" height="24" viewBox="0 0 24 24" fill="none" xmlns="http://www.w3.org/2000/svg">
<path d="M7.8333 16.8541C8.12997 16.8541 8.41998 16.7661 8.66666 16.6013C8.91333 16.4365 9.10559 16.2022 9.21912 15.9281C9.33265 15.654 9.36236 15.3524 9.30448 15.0615C9.2466 14.7705 9.10374 14.5032 8.89396 14.2934C8.68418 14.0837 8.41691 13.9408 8.12594 13.8829C7.83496 13.825 7.53336 13.8548 7.25927 13.9683C6.98519 14.0818 6.75092 14.2741 6.5861 14.5207C6.42127 14.7674 6.3333 15.0574 6.3333 15.3541C6.3333 15.7519 6.49133 16.1335 6.77264 16.4148C7.05394 16.6961 7.43547 16.8541 7.8333 16.8541ZM7.8333 14.7041C7.96186 14.7041 8.08753 14.7422 8.19442 14.8136C8.30131 14.8851 8.38462 14.9866 8.43382 15.1054C8.48302 15.2241 8.49589 15.3548 8.47081 15.4809C8.44573 15.607 8.38382 15.7228 8.29292 15.8137C8.20201 15.9046 8.0862 15.9665 7.96011 15.9916C7.83402 16.0167 7.70333 16.0038 7.58456 15.9546C7.46578 15.9054 7.36427 15.8221 7.29284 15.7152C7.22142 15.6083 7.1833 15.4827 7.1833 15.3541C7.18346 15.1818 7.25199 15.0165 7.37386 14.8947C7.49572 14.7728 7.66096 14.7043 7.8333 14.7041ZM19.0845 5.5067C18.9726 4.83473 18.6351 4.22093 18.1277 3.76647C17.6202 3.31202 16.973 3.04404 16.2928 3.0067C16.2375 3.0022 16.1049 2.9999 16.0485 2.9999H12.5V1.6905L16 1.2439V0.666504H8V1.2439L11.5 1.6905V2.9999H7.9523C7.9012 2.9999 7.7728 3.0018 7.7223 3.0056C7.0393 3.03975 6.3885 3.30642 5.87792 3.76135C5.36734 4.21629 5.02768 4.83214 4.9153 5.5067C4.52786 7.83151 4.33313 10.1843 4.3331 12.5412V17.4999C4.333 18.1311 4.57202 18.7388 5.00204 19.2008C5.43206 19.6629 6.02115 19.9448 6.6507 19.9899C6.7107 19.9964 6.8531 19.9999 6.9147 19.9999H8.71L6.9782 22.9999H8.17L9.9022 19.9999H14.0974L15.83 22.9999H17.022L15.29 19.9999H17.1671C17.8301 19.9999 18.466 19.7365 18.9349 19.2677C19.4037 18.7988 19.6671 18.1629 19.6671 17.4999V12.5412C19.6669 10.1843 19.4721 7.83149 19.0845 5.5067ZM5.9019 5.6711C5.97854 5.20356 6.21917 4.7786 6.58067 4.47236C6.94218 4.16612 7.40092 3.99863 7.8747 3.9999H16.1253C16.5991 3.99865 17.0578 4.16615 17.4193 4.47238C17.7808 4.77862 18.0214 5.20357 18.0981 5.6711C18.4249 7.6538 18.6087 9.65744 18.6481 11.6665H5.3514C5.39095 9.65742 5.57493 7.65379 5.9019 5.6711ZM18.6667 17.4999C18.6663 17.8976 18.5081 18.2789 18.2269 18.5601C17.9457 18.8413 17.5644 18.9995 17.1667 18.9999H6.8333C6.43561 18.9995 6.05434 18.8413 5.77314 18.5601C5.49193 18.2789 5.33375 17.8976 5.3333 17.4999V12.6665H18.6667V17.4999ZM16.1667 16.8541C16.4634 16.8541 16.7534 16.7661 17.0001 16.6013C17.2467 16.4365 17.439 16.2022 17.5525 15.9281C17.666 15.654 17.6958 15.3524 17.6379 15.0615C17.58 14.7705 17.4371 14.5032 17.2274 14.2934C17.0176 14.0837 16.7503 13.9408 16.4593 13.8829C16.1684 13.825 15.8668 13.8548 15.5927 13.9683C15.3186 14.0818 15.0843 14.2741 14.9195 14.5207C14.7547 14.7674 14.6667 15.0574 14.6667 15.3541C14.6667 15.7519 14.8247 16.1335 15.106 16.4148C15.3873 16.6961 15.7689 16.8541 16.1667 16.8541ZM16.1667 14.7041C16.2953 14.7041 16.4209 14.7422 16.5278 14.8136C16.6347 14.8851 16.718 14.9866 16.7672 15.1054C16.8164 15.2241 16.8293 15.3548 16.8042 15.4809C16.7791 15.607 16.7172 15.7228 16.6263 15.8137C16.5354 15.9046 16.4196 15.9665 16.2935 15.9916C16.1674 16.0167 16.0367 16.0038 15.918 15.9546C15.7992 15.9054 15.6977 15.8221 15.6262 15.7152C15.5548 15.6083 15.5167 15.4827 15.5167 15.3541C15.5169 15.1818 15.5854 15.0165 15.7073 14.8947C15.8291 14.7728 15.9944 14.7043 16.1667 14.7041Z" fill="black"/>
</svg>
