<svg width="24" height="24" viewBox="0 0 24 24" fill="none" xmlns="http://www.w3.org/2000/svg">
<path d="M23 11.6719L21.2814 7.2719C21.1349 6.89708 20.8787 6.57518 20.5464 6.34826C20.214 6.12135 19.8209 5.99997 19.4185 6H1V18H3.9731C4.03112 18.483 4.26414 18.928 4.62807 19.2508C4.992 19.5737 5.46162 19.7519 5.9481 19.7519C6.43458 19.7519 6.9042 19.5737 7.26813 19.2508C7.63206 18.928 7.86508 18.483 7.9231 18H16.5411C16.6064 18.4766 16.842 18.9134 17.2045 19.2296C17.567 19.5458 18.0317 19.72 18.5127 19.72C18.9937 19.72 19.4584 19.5458 19.8209 19.2296C20.1834 18.9134 20.419 18.4766 20.4843 18H23V11.6719ZM1.5 6.5H19.4185C19.7206 6.49878 20.016 6.58936 20.2655 6.75976C20.515 6.93016 20.7069 7.17233 20.8157 7.4542L22.4124 11.5416H1.5V6.5ZM5.9479 19.25C5.65123 19.25 5.36122 19.162 5.11454 18.9972C4.86787 18.8324 4.67561 18.5981 4.56208 18.324C4.44855 18.0499 4.41884 17.7483 4.47672 17.4574C4.5346 17.1664 4.67746 16.8991 4.88724 16.6893C5.09702 16.4796 5.36429 16.3367 5.65526 16.2788C5.94624 16.2209 6.24784 16.2507 6.52192 16.3642C6.79601 16.4777 7.03028 16.67 7.1951 16.9166C7.35993 17.1633 7.4479 17.4533 7.4479 17.75C7.44745 18.1477 7.28927 18.529 7.00806 18.8102C6.72686 19.0914 6.34559 19.2495 5.9479 19.25ZM18.5123 19.2188C18.2156 19.2188 17.9256 19.1308 17.6789 18.966C17.4323 18.8012 17.24 18.5669 17.1265 18.2928C17.0129 18.0187 16.9832 17.7171 17.0411 17.4262C17.099 17.1352 17.2419 16.8679 17.4516 16.6581C17.6614 16.4484 17.9287 16.3055 18.2197 16.2476C18.5106 16.1897 18.8122 16.2194 19.0863 16.333C19.3604 16.4465 19.5947 16.6388 19.7595 16.8854C19.9243 17.1321 20.0123 17.4221 20.0123 17.7188C20.0118 18.1165 19.8536 18.4977 19.5724 18.7789C19.2912 19.0601 18.91 19.2183 18.5123 19.2188ZM22.5 17.5H20.49C20.4387 17.0111 20.2082 16.5586 19.843 16.2296C19.4777 15.9007 19.0036 15.7187 18.5121 15.7187C18.0205 15.7187 17.5464 15.9007 17.1811 16.2296C16.8159 16.5586 16.5854 17.0111 16.5341 17.5H7.9227C7.86468 17.017 7.63166 16.572 7.26773 16.2492C6.9038 15.9263 6.43418 15.7481 5.9477 15.7481C5.46122 15.7481 4.9916 15.9263 4.62767 16.2492C4.26374 16.572 4.03072 17.017 3.9727 17.5H1.5V12.0416H22.5V17.5Z" fill="black"/>
</svg>
