<svg width="24" height="24" viewBox="0 0 24 24" fill="none" xmlns="http://www.w3.org/2000/svg">
<path d="M18.6753 14C18.5199 12.8316 18.3041 11.672 18.0286 10.5259C17.9224 10.0907 17.6732 9.70369 17.3208 9.42701C16.9685 9.15033 16.5334 8.99995 16.0854 9H7.91462C7.46662 8.99995 7.03158 9.15033 6.67923 9.42701C6.32687 9.70369 6.07762 10.0907 5.97142 10.5259C5.69599 11.672 5.48014 12.8316 5.32472 14H3.27612V15.4028L4.99852 16.0009V20.7183H5.00002V21.9337C5.00002 22.1087 5.06956 22.2766 5.19333 22.4004C5.31711 22.5242 5.48498 22.5937 5.66002 22.5937H6.22342C6.39847 22.5937 6.56634 22.5242 6.69011 22.4004C6.81389 22.2766 6.88342 22.1087 6.88342 21.9337V21H17.1284V21.9337C17.1284 22.1087 17.198 22.2766 17.3217 22.4004C17.4455 22.5242 17.6134 22.5937 17.7884 22.5937H18.34C18.5151 22.5937 18.6829 22.5242 18.8067 22.4004C18.9305 22.2766 19 22.1087 19 21.9337V20.7183H19.0015V16.0009L20.7241 15.4028V14H18.6753ZM7.56322 18.16C7.36116 18.16 7.16364 18.1 6.99566 17.9877C6.82767 17.8754 6.69676 17.7158 6.61948 17.5291C6.54221 17.3424 6.52203 17.137 6.56151 16.9388C6.601 16.7406 6.69836 16.5586 6.84129 16.4158C6.98422 16.2729 7.1663 16.1757 7.3645 16.1364C7.5627 16.097 7.76811 16.1173 7.95477 16.1947C8.14142 16.2721 8.30092 16.4032 8.41311 16.5712C8.52529 16.7393 8.58512 16.9368 8.58502 17.1389C8.58504 17.2731 8.55861 17.4059 8.50727 17.5299C8.45592 17.6539 8.38065 17.7665 8.28576 17.8614C8.19087 17.9562 8.07822 18.0315 7.95425 18.0828C7.83027 18.1341 7.6974 18.1605 7.56322 18.1605V18.16ZM16.4368 18.16C16.2348 18.16 16.0373 18.1 15.8693 17.9878C15.7013 17.8755 15.5704 17.716 15.4931 17.5293C15.4158 17.3426 15.3955 17.1372 15.435 16.939C15.4744 16.7409 15.5717 16.5588 15.7146 16.416C15.8575 16.2731 16.0395 16.1758 16.2377 16.1364C16.4358 16.097 16.6412 16.1172 16.8279 16.1946C17.0146 16.2719 17.1741 16.4028 17.2864 16.5708C17.3986 16.7388 17.4585 16.9363 17.4585 17.1384C17.4586 17.2726 17.4322 17.4055 17.3809 17.5295C17.3296 17.6536 17.2544 17.7662 17.1595 17.8612C17.0646 17.9561 16.9519 18.0314 16.8279 18.0827C16.7039 18.1341 16.571 18.1605 16.4368 18.1605V18.16ZM5.83002 14C5.98187 12.8716 6.19114 11.7516 6.45702 10.6445C6.52195 10.402 6.64776 10.1802 6.82252 10H17.1775C17.3522 10.1802 17.4779 10.4021 17.5427 10.6445C17.8087 11.7516 18.0181 12.8716 18.17 14H5.83002ZM18 6.5C18.1799 6.5 18.3581 6.46456 18.5243 6.39571C18.6905 6.32687 18.8415 6.22595 18.9688 6.09874C19.096 5.97152 19.1969 5.82049 19.2657 5.65428C19.3346 5.48806 19.37 5.30991 19.37 5.13C19.1075 3.87509 18.6449 2.67056 18 1.5625C17.3551 2.67056 16.8925 3.87509 16.63 5.13C16.63 5.30991 16.6655 5.48806 16.7343 5.65428C16.8032 5.82049 16.9041 5.97152 17.0313 6.09874C17.2882 6.35566 17.6367 6.5 18 6.5ZM12 6.5C12.1799 6.5 12.3581 6.46456 12.5243 6.39571C12.6905 6.32687 12.8415 6.22595 12.9688 6.09874C13.096 5.97152 13.1969 5.82049 13.2657 5.65428C13.3346 5.48806 13.37 5.30991 13.37 5.13C13.1075 3.87509 12.6449 2.67056 12 1.5625C11.3551 2.67056 10.8925 3.87509 10.63 5.13C10.63 5.30991 10.6655 5.48806 10.7343 5.65428C10.8032 5.82049 10.9041 5.97152 11.0313 6.09874C11.2882 6.35566 11.6367 6.5 12 6.5ZM6.00002 6.5C6.17993 6.5 6.35808 6.46456 6.5243 6.39571C6.69052 6.32687 6.84154 6.22595 6.96876 6.09874C7.09598 5.97152 7.19689 5.82049 7.26574 5.65428C7.33459 5.48806 7.37002 5.30991 7.37002 5.13C7.10751 3.87509 6.64494 2.67056 6.00002 1.5625C5.35511 2.67056 4.89254 3.87509 4.63002 5.13C4.63002 5.30991 4.66546 5.48806 4.73431 5.65428C4.80316 5.82049 4.90407 5.97152 5.03129 6.09874C5.28821 6.35566 5.63668 6.5 6.00002 6.5Z" fill="black"/>
</svg>
