<svg width="24" height="24" viewBox="0 0 24 24" fill="none" xmlns="http://www.w3.org/2000/svg">
<path d="M18.3333 13.5884C18.0366 13.5884 17.7466 13.6764 17.4999 13.8412C17.2533 14.006 17.061 14.2403 16.9475 14.5144C16.834 14.7885 16.8042 15.0901 16.8621 15.381C16.92 15.672 17.0629 15.9393 17.2726 16.1491C17.4824 16.3588 17.7497 16.5017 18.0407 16.5596C18.3316 16.6174 18.6332 16.5877 18.9073 16.4742C19.1814 16.3607 19.4157 16.1684 19.5805 15.9217C19.7453 15.6751 19.8333 15.3851 19.8333 15.0884C19.8333 14.6906 19.6753 14.309 19.394 14.0277C19.1127 13.7464 18.7311 13.5884 18.3333 13.5884ZM5.6667 13.5884C5.37003 13.5884 5.08002 13.6764 4.83334 13.8412C4.58667 14.006 4.39441 14.2403 4.28088 14.5144C4.16735 14.7885 4.13764 15.0901 4.19552 15.381C4.2534 15.672 4.39626 15.9393 4.60604 16.1491C4.81582 16.3588 5.08309 16.5017 5.37406 16.5596C5.66504 16.6174 5.96664 16.5877 6.24073 16.4742C6.51481 16.3607 6.74908 16.1684 6.9139 15.9217C7.07873 15.6751 7.1667 15.3851 7.1667 15.0884C7.1667 14.8914 7.1279 14.6964 7.05252 14.5144C6.97714 14.3324 6.86665 14.167 6.72736 14.0277C6.58807 13.8884 6.42271 13.778 6.24073 13.7026C6.05874 13.6272 5.86368 13.5884 5.6667 13.5884ZM23.8643 9.01159C23.7648 8.83941 23.601 8.71378 23.409 8.66232C23.2169 8.61086 23.0122 8.63779 22.84 8.73719L20.8449 9.88719C20.4344 10.1247 19.9685 10.2497 19.4943 10.2495H4.5059C4.03136 10.2496 3.56517 10.1246 3.1543 9.88719L1.16 8.73719C1.07464 8.68599 0.97994 8.6523 0.881424 8.63807C0.782908 8.62384 0.682546 8.62937 0.586187 8.65433C0.489829 8.67928 0.399402 8.72317 0.320178 8.78343C0.240954 8.84369 0.174517 8.91912 0.124742 9.00532C0.0749659 9.09152 0.0428464 9.18676 0.0302555 9.2855C0.0176645 9.38424 0.024854 9.4845 0.051405 9.58043C0.0779559 9.67636 0.123337 9.76605 0.184903 9.84426C0.246469 9.92247 0.322988 9.98765 0.41 10.036L2.4031 11.186C3.04239 11.555 3.76753 11.7494 4.5057 11.7495H19.4941C20.232 11.7495 20.9568 11.5551 21.5957 11.186L23.5898 10.036C23.762 9.93653 23.8877 9.77274 23.9392 9.58063C23.9907 9.38853 23.9637 9.18384 23.8643 9.01159Z" fill="black"/>
</svg>
