<svg width="24" height="24" viewBox="0 0 24 24" fill="none" xmlns="http://www.w3.org/2000/svg">
<path d="M22.5052 17.0001V12.9823C22.506 12.6177 22.4017 12.2606 22.2046 11.9539C22.0075 11.6471 21.7261 11.4038 21.3942 11.2529C19.9144 10.5783 18.3325 10.1549 16.7136 10.0001L14.6906 7.62094C14.3157 7.17908 13.8491 6.8241 13.3233 6.58062C12.7974 6.33714 12.2249 6.21099 11.6454 6.21094H3.9454L1.9663 9.37244C1.66063 9.85036 1.49819 10.4058 1.4982 10.9731V16.2001L3.7058 16.7201C3.74031 17.406 4.02818 18.0546 4.51364 18.5403C4.99909 19.026 5.64755 19.3142 6.33338 19.3491C7.0192 19.3839 7.69355 19.163 8.22576 18.729C8.75796 18.295 9.11012 17.6789 9.214 17.0001H15.01C15.1101 17.6551 15.4415 18.2526 15.9441 18.6843C16.4468 19.1159 17.0874 19.3533 17.75 19.3533C18.4126 19.3533 19.0532 19.1159 19.5559 18.6843C20.0585 18.2526 20.3899 17.6551 20.49 17.0001H22.5052ZM2.8086 9.91124L4.4986 7.21124H11.6451C12.0794 7.21097 12.5086 7.30537 12.9028 7.48787C13.2969 7.67036 13.6465 7.93656 13.9273 8.26794L15.4013 10.0001H2.7684C2.7846 9.97124 2.791 9.93894 2.8086 9.91124ZM6.4741 18.4362C6.10487 18.4363 5.74393 18.3268 5.43693 18.1216C5.12992 17.9165 4.89065 17.625 4.74936 17.2838C4.60808 16.9427 4.57114 16.5673 4.6432 16.2052C4.71526 15.8431 4.8931 15.5105 5.15422 15.2494C5.41534 14.9884 5.74801 14.8106 6.11016 14.7386C6.4723 14.6667 6.84766 14.7037 7.18875 14.8451C7.52984 14.9865 7.82134 15.2258 8.02639 15.5329C8.23144 15.8399 8.34082 16.2009 8.3407 16.5701C8.33999 17.0649 8.14308 17.5392 7.79317 17.8891C7.44325 18.2389 6.96889 18.4357 6.4741 18.4362ZM17.7501 18.4362C17.3809 18.4363 17.0199 18.3268 16.7129 18.1216C16.4059 17.9165 16.1666 17.625 16.0254 17.2838C15.8841 16.9427 15.8471 16.5673 15.9192 16.2052C15.9913 15.8431 16.1691 15.5105 16.4302 15.2494C16.6913 14.9884 17.024 14.8106 17.3862 14.7386C17.7483 14.6667 18.1237 14.7037 18.4647 14.8451C18.8058 14.9865 19.0973 15.2258 19.3024 15.5329C19.5074 15.8399 19.6168 16.2009 19.6167 16.5701C19.616 17.0649 19.4191 17.5393 19.0691 17.8891C18.7192 18.2389 18.2448 18.4357 17.75 18.4362H17.7501ZM17.7501 13.7862C17.1108 13.7863 16.4911 14.0065 15.995 14.4096C15.4989 14.8128 15.1567 15.3744 15.0259 16.0001H9.1982C9.07415 15.3988 8.75416 14.8557 8.28836 14.4557C7.82255 14.0558 7.23724 13.8216 6.6241 13.7899C6.01097 13.7582 5.40464 13.9308 4.90009 14.2806C4.39554 14.6304 4.02127 15.1377 3.8359 15.723L2.498 15.4083V10.9728L2.499 10.9662H16.299L16.6274 10.9952C18.1337 11.1403 19.6054 11.5353 20.9818 12.1642C21.1385 12.2359 21.2712 12.3512 21.364 12.4963C21.4569 12.6414 21.5059 12.8103 21.5053 12.9825V16.0001H20.4742C20.3434 15.3744 20.0012 14.8128 19.5051 14.4096C19.009 14.0065 18.3893 13.7863 17.75 13.7862H17.7501Z" fill="black"/>
</svg>
