<svg width="24" height="24" viewBox="0 0 24 24" fill="none" xmlns="http://www.w3.org/2000/svg">
<g clip-path="url(#clip0)">
<path d="M19 11C18.8984 11 18.8037 11.024 18.7036 11.03L16.82 4H13.3857C13.1205 4 12.8661 4.10536 12.6786 4.29289C12.4911 4.48043 12.3857 4.73478 12.3857 5C12.3857 5.26522 12.4911 5.51957 12.6786 5.70711C12.8661 5.89464 13.1205 6 13.3857 6H15.2852L15.821 8H13.1094C12.4076 8.00111 11.7184 8.1863 11.1106 8.53708C10.5028 8.88785 9.9976 9.39193 9.64551 9.999L4.00001 10V11.1011C3.11493 11.2817 2.29532 11.6988 1.62828 12.3079C0.961232 12.9171 0.471667 13.6955 0.211602 14.5606C-0.0484629 15.4257 -0.0693116 16.3451 0.151271 17.221C0.371854 18.097 0.825627 18.8969 1.46437 19.5356C2.10312 20.1744 2.90298 20.6282 3.77896 20.8487C4.65494 21.0693 5.57431 21.0485 6.43939 20.7884C7.30447 20.5283 8.08294 20.0388 8.69208 19.3717C9.30121 18.7047 9.71826 17.8851 9.89891 17H14.1011C14.2903 17.927 14.7386 18.7812 15.394 19.4635C16.0494 20.1459 16.8848 20.6283 17.8034 20.8547C18.722 21.0811 19.686 21.0423 20.5834 20.7427C21.4808 20.4431 22.2748 19.8951 22.8731 19.1622C23.4714 18.4294 23.8496 17.5419 23.9636 16.6027C24.0777 15.6635 23.9229 14.7112 23.5173 13.8565C23.1117 13.0018 22.472 12.2797 21.6724 11.774C20.8728 11.2684 19.9461 11 19 11ZM7.81571 17C7.57981 17.6672 7.11564 18.2296 6.50523 18.5876C5.89482 18.9457 5.17747 19.0765 4.47998 18.9568C3.78248 18.8371 3.14975 18.4747 2.6936 17.9337C2.23746 17.3926 1.98728 16.7077 1.98728 16C1.98728 15.2923 2.23746 14.6074 2.6936 14.0663C3.14975 13.5253 3.78248 13.1629 4.47998 13.0432C5.17747 12.9235 5.89482 13.0543 6.50523 13.4124C7.11564 13.7704 7.57981 14.3328 7.81571 15H4.00001V17H7.81571ZM19 19C18.3597 19.0006 17.736 18.7962 17.2203 18.4167C16.7046 18.0371 16.324 17.5024 16.1343 16.8908C15.9446 16.2793 15.9557 15.623 16.166 15.0182C16.3763 14.4134 16.7748 13.8919 17.303 13.53L18.0342 16.2586L18.0513 16.254C18.1045 16.4658 18.2265 16.654 18.3982 16.789C18.5699 16.9241 18.7816 16.9983 19 17C19.2652 17 19.5196 16.8946 19.7071 16.7071C19.8947 16.5196 20 16.2652 20 16C19.9943 15.9134 19.9771 15.8279 19.9487 15.7458L19.9658 15.7412L19.2378 13.024C20.0101 13.0833 20.7292 13.4397 21.2441 14.0184C21.759 14.597 22.0295 15.3527 21.9987 16.1266C21.9679 16.9005 21.6382 17.6323 21.079 18.1682C20.5198 18.7041 19.7745 19.0022 19 19ZM20.5391 9.25H21V6.75H20.5391C20.2076 6.75 19.8896 6.8817 19.6552 7.11612C19.4208 7.35054 19.2891 7.66848 19.2891 8C19.2891 8.33152 19.4208 8.64946 19.6552 8.88388C19.8896 9.1183 20.2076 9.25 20.5391 9.25Z" fill="black"/>
</g>
<defs>
<clipPath id="clip0">
<rect width="24" height="24" fill="white"/>
</clipPath>
</defs>
</svg>
