<svg width="24" height="24" viewBox="0 0 24 24" fill="none" xmlns="http://www.w3.org/2000/svg">
<path d="M23 11.6146L21.2593 7.03992C21.1201 6.67567 20.8735 6.36233 20.5522 6.14146C20.2308 5.92059 19.8499 5.80263 19.46 5.80322L1 5.82343V17.9999H3.788C3.80742 18.5815 4.0521 19.1327 4.47035 19.5372C4.8886 19.9417 5.44769 20.1679 6.02955 20.1679C6.61141 20.1679 7.1705 19.9417 7.58875 19.5372C8.00701 19.1327 8.25168 18.5815 8.2711 17.9999H16.2365C16.2626 18.5761 16.5099 19.1201 16.9269 19.5186C17.3439 19.9171 17.8985 20.1395 18.4753 20.1395C19.0521 20.1395 19.6067 19.9171 20.0237 19.5186C20.4407 19.1201 20.688 18.5761 20.7141 17.9999H23V11.6146ZM6.03 19.2666C5.763 19.2666 5.50199 19.1874 5.27998 19.0391C5.05797 18.8908 4.88494 18.6799 4.78276 18.4332C4.68058 18.1866 4.65385 17.9151 4.70594 17.6533C4.75803 17.3914 4.88661 17.1508 5.07541 16.962C5.26421 16.7732 5.50475 16.6447 5.76663 16.5926C6.0285 16.5405 6.29994 16.5672 6.54662 16.6694C6.7933 16.7716 7.00414 16.9446 7.15248 17.1666C7.30082 17.3886 7.38 17.6496 7.38 17.9166C7.37955 18.2745 7.23717 18.6176 6.9841 18.8707C6.73102 19.1238 6.3879 19.2662 6.03 19.2666ZM18.4758 19.2388C18.2088 19.2388 17.9478 19.1596 17.7258 19.0113C17.5038 18.863 17.3307 18.6521 17.2286 18.4054C17.1264 18.1588 17.0996 17.8873 17.1517 17.6255C17.2038 17.3636 17.3324 17.123 17.5212 16.9342C17.71 16.7454 17.9506 16.6169 18.2124 16.5648C18.4743 16.5127 18.7457 16.5394 18.9924 16.6416C19.2391 16.7438 19.4499 16.9168 19.5983 17.1388C19.7466 17.3608 19.8258 17.6218 19.8258 17.8888C19.8254 18.2468 19.6829 18.59 19.4298 18.8431C19.1766 19.0962 18.8333 19.2385 18.4753 19.2388H18.4758ZM2 11.5278V6.80362H19.4619C19.6485 6.8039 19.8307 6.86055 19.9846 6.96615C20.1385 7.07176 20.2568 7.22138 20.3242 7.39543L21.8972 11.5278H2Z" fill="black"/>
</svg>
