<svg width="24" height="24" viewBox="0 0 24 24" fill="none" xmlns="http://www.w3.org/2000/svg">
<g clip-path="url(#clip0)">
<path d="M24 11.9999L22.8448 8.9542C22.7005 8.57551 22.4445 8.2496 22.1108 8.01964C21.7771 7.78969 21.3814 7.66654 20.9761 7.6665H17.8235V6.6665C17.8235 6.40129 17.7181 6.14693 17.5306 5.9594C17.3431 5.77186 17.0887 5.6665 16.8235 5.6665H1C0.734784 5.6665 0.48043 5.77186 0.292893 5.9594C0.105357 6.14693 0 6.40129 0 6.6665L0 17.9999H1.9162C2.02642 18.4514 2.28504 18.8529 2.6506 19.14C3.01616 19.427 3.4675 19.5831 3.9323 19.5831C4.3971 19.5831 4.84844 19.427 5.214 19.14C5.57956 18.8529 5.83818 18.4514 5.9484 17.9999H6.0308C6.14102 18.4514 6.39964 18.8529 6.7652 19.14C7.13076 19.427 7.5821 19.5831 8.0469 19.5831C8.5117 19.5831 8.96304 19.427 9.3286 19.14C9.69416 18.8529 9.95278 18.4514 10.063 17.9999H18.003C18.1132 18.4514 18.3718 18.8529 18.7374 19.14C19.103 19.427 19.5543 19.5831 20.0191 19.5831C20.4839 19.5831 20.9352 19.427 21.3008 19.14C21.6664 18.8529 21.925 18.4514 22.0352 17.9999H24V11.9999ZM3.9323 18.6832C3.69827 18.6832 3.46949 18.6138 3.27489 18.4838C3.0803 18.3538 2.92863 18.169 2.83907 17.9527C2.74951 17.7365 2.72608 17.4986 2.77174 17.2691C2.81739 17.0395 2.93009 16.8287 3.09558 16.6632C3.26107 16.4977 3.47191 16.385 3.70145 16.3393C3.93099 16.2937 4.16891 16.3171 4.38513 16.4067C4.60135 16.4962 4.78616 16.6479 4.91618 16.8425C5.0462 17.0371 5.1156 17.2659 5.1156 17.4999C5.11526 17.8136 4.99048 18.1144 4.76864 18.3362C4.5468 18.5581 4.24603 18.6829 3.9323 18.6832ZM8.0469 18.6832C7.81286 18.6832 7.58406 18.6139 7.38944 18.4839C7.19482 18.3539 7.04312 18.1691 6.95353 17.9529C6.86394 17.7367 6.84048 17.4987 6.88611 17.2692C6.93175 17.0396 7.04443 16.8288 7.20991 16.6633C7.37539 16.4977 7.58623 16.385 7.81578 16.3394C8.04532 16.2937 8.28325 16.3171 8.49948 16.4067C8.71571 16.4962 8.90053 16.6479 9.03056 16.8425C9.1606 17.0371 9.23 17.2659 9.23 17.4999C9.22963 17.8136 9.10487 18.1143 8.88308 18.3361C8.66129 18.558 8.36058 18.6828 8.0469 18.6832ZM16.8889 17.0666H10.0837C9.9847 16.5998 9.72836 16.1812 9.35758 15.8808C8.9868 15.5804 8.52409 15.4165 8.0469 15.4165C7.56971 15.4165 7.107 15.5804 6.73622 15.8808C6.36544 16.1812 6.1091 16.5998 6.0101 17.0666H5.9691C5.8701 16.5998 5.61376 16.1812 5.24298 15.8808C4.8722 15.5804 4.40949 15.4165 3.9323 15.4165C3.45511 15.4165 2.9924 15.5804 2.62162 15.8808C2.25084 16.1812 1.9945 16.5998 1.8955 17.0666H0.9333L0.9294 6.5999H16.89L16.8889 17.0666ZM17.8235 8.5999H20.9761C21.1912 8.59909 21.4015 8.66369 21.579 8.78514C21.7566 8.90658 21.893 9.07913 21.9702 9.2799L22.8889 11.6999H17.8235V8.5999ZM20.0186 18.6832C19.7846 18.6832 19.5558 18.6138 19.3612 18.4837C19.1666 18.3537 19.015 18.1689 18.9254 17.9527C18.8359 17.7364 18.8125 17.4985 18.8581 17.269C18.9038 17.0395 19.0165 16.8286 19.182 16.6631C19.3475 16.4977 19.5584 16.385 19.7879 16.3393C20.0174 16.2937 20.2553 16.3171 20.4716 16.4067C20.6878 16.4963 20.8726 16.6479 21.0026 16.8425C21.1326 17.0371 21.202 17.2659 21.202 17.4999C21.2017 17.8136 21.0769 18.1144 20.855 18.3363C20.6331 18.5581 20.3323 18.6829 20.0186 18.6832ZM23.0667 17.0666H22.0554C21.9564 16.5998 21.7001 16.1812 21.3293 15.8808C20.9585 15.5804 20.4958 15.4165 20.0186 15.4165C19.5414 15.4165 19.0787 15.5804 18.7079 15.8808C18.3371 16.1812 18.0808 16.5998 17.9818 17.0666H17.8235V12.6332H23.0667V17.0666Z" fill="black"/>
</g>
<defs>
<clipPath id="clip0">
<rect width="24" height="24" fill="white"/>
</clipPath>
</defs>
</svg>
