<svg width="24" height="24" viewBox="0 0 24 24" fill="none" xmlns="http://www.w3.org/2000/svg">
<path d="M9.22919 6.72939C9.77634 6.72885 10.3107 6.56363 10.7626 6.25522C11.2146 5.94681 11.5632 5.50949 11.7632 5.00019H12.3232L13.5 4.14399L14.5 5.00019L15.5 4.14399L16.5 5.00019L17.5 4.14399V3.00019H11.7632C11.581 2.53907 11.2765 2.13636 10.8825 1.83537C10.4885 1.53438 10.0199 1.3465 9.52708 1.29195C9.03427 1.2374 8.53592 1.31823 8.08563 1.52575C7.63533 1.73328 7.25014 2.05964 6.97147 2.46974C6.69281 2.87984 6.53123 3.35815 6.50411 3.85322C6.47699 4.34829 6.58535 4.84139 6.81754 5.27947C7.04974 5.71756 7.39698 6.08405 7.82191 6.33952C8.24683 6.59499 8.73337 6.72978 9.22919 6.72939ZM8.27779 3.25019C8.42612 3.25019 8.57113 3.29418 8.69447 3.37659C8.8178 3.459 8.91393 3.57613 8.9707 3.71318C9.02746 3.85022 9.04232 4.00102 9.01338 4.14651C8.98444 4.29199 8.91301 4.42563 8.80812 4.53052C8.70323 4.63541 8.56959 4.70684 8.42411 4.73578C8.27862 4.76472 8.12782 4.74987 7.99078 4.6931C7.85373 4.63633 7.7366 4.54021 7.65419 4.41687C7.57177 4.29353 7.52779 4.14853 7.52779 4.00019C7.52779 3.80128 7.60681 3.61051 7.74746 3.46986C7.88811 3.32921 8.07888 3.25019 8.27779 3.25019ZM21.3521 14.0002H19.188C18.9874 12.7292 18.6895 11.4755 18.2969 10.2502C18.1804 9.88719 17.9517 9.57054 17.6436 9.34589C17.3356 9.12124 16.9642 9.00019 16.583 9.00019H7.41699C7.03575 9.00019 6.66436 9.12124 6.35634 9.34589C6.04832 9.57054 5.81958 9.88719 5.70309 10.2502C5.31052 11.4756 5.01255 12.7292 4.81179 14.0002H2.64789V15.403L4.57249 16.0712C4.52639 16.692 4.49999 17.3146 4.49999 17.9384V21.9339C4.49999 22.1089 4.56952 22.2768 4.6933 22.4006C4.81707 22.5244 4.98495 22.5939 5.15999 22.5939H5.83999C6.01503 22.5939 6.1829 22.5244 6.30668 22.4006C6.43045 22.2768 6.49999 22.1089 6.49999 21.9339V21.0002H17.5V21.9339C17.5 22.1089 17.5695 22.2768 17.6933 22.4006C17.8171 22.5244 17.9849 22.5939 18.16 22.5939H18.84C19.015 22.5939 19.1829 22.5244 19.3067 22.4006C19.4305 22.2768 19.5 22.1089 19.5 21.9339V17.9384C19.5 17.3146 19.4736 16.6919 19.4275 16.0712L21.3521 15.403V14.0002ZM7.41699 10.8002H16.583C16.9154 11.8474 17.1735 12.9167 17.3555 14.0002H6.64449C6.82632 12.9167 7.08446 11.8473 7.41699 10.8002ZM7.29759 18.1602C7.09553 18.1602 6.89801 18.1003 6.72999 17.9881C6.56198 17.8758 6.43102 17.7163 6.35368 17.5296C6.27634 17.3429 6.2561 17.1375 6.29551 16.9393C6.33491 16.7412 6.4322 16.5591 6.57507 16.4162C6.71794 16.2734 6.89997 16.1761 7.09815 16.1366C7.29632 16.0972 7.50174 16.1174 7.68841 16.1947C7.87509 16.2721 8.03465 16.403 8.14691 16.571C8.25917 16.739 8.31909 16.9365 8.31909 17.1386C8.31917 17.2728 8.2928 17.4057 8.2415 17.5297C8.1902 17.6537 8.11497 17.7664 8.02011 17.8613C7.92525 17.9562 7.81261 18.0315 7.68864 18.0829C7.56466 18.1342 7.43178 18.1607 7.29759 18.1607V18.1602ZM16.7024 18.1602C16.5003 18.1602 16.3028 18.1003 16.1348 17.9881C15.9668 17.8758 15.8358 17.7163 15.7585 17.5296C15.6811 17.3429 15.6609 17.1375 15.7003 16.9393C15.7397 16.7412 15.837 16.5591 15.9799 16.4162C16.1227 16.2734 16.3048 16.1761 16.5029 16.1366C16.7011 16.0972 16.9065 16.1174 17.0932 16.1947C17.2799 16.2721 17.4395 16.403 17.5517 16.571C17.664 16.739 17.7239 16.9365 17.7239 17.1386C17.724 17.2728 17.6976 17.4057 17.6463 17.5297C17.595 17.6537 17.5198 17.7664 17.4249 17.8613C17.33 17.9562 17.2174 18.0315 17.0934 18.0829C16.9695 18.1342 16.8366 18.1607 16.7024 18.1607V18.1602Z" fill="black"/>
</svg>
