<svg width="24" height="24" viewBox="0 0 24 24" fill="none" xmlns="http://www.w3.org/2000/svg">
<g clip-path="url(#clip0)">
<path d="M24 13.5059C24.0005 13.1393 23.8947 12.7804 23.6956 12.4725C23.4964 12.1647 23.2124 11.9211 22.8778 11.7712C21.3248 11.0684 19.6625 10.6381 17.9636 10.499L15.891 8.17203C15.5158 7.75063 15.0556 7.41338 14.5408 7.18243C14.026 6.95148 13.4681 6.83207 12.9039 6.83203H2.5215L0.5281 9.73113C0.184144 10.2313 2.99833e-06 10.824 0 11.431L0 16.1998L3.3005 16.9998H3.307C3.36511 17.6426 3.66153 18.2405 4.13802 18.6758C4.6145 19.1112 5.23658 19.3526 5.882 19.3526C6.52742 19.3526 7.1495 19.1112 7.62598 18.6758C8.10247 18.2405 8.39889 17.6426 8.457 16.9998H16.798C16.8561 17.6426 17.1525 18.2405 17.629 18.6758C18.1055 19.1112 18.7276 19.3526 19.373 19.3526C20.0184 19.3526 20.6405 19.1112 21.117 18.6758C21.5935 18.2405 21.8899 17.6426 21.948 16.9998H24V13.5059ZM0.94 10.0144L2.7844 7.33233H12.9044C13.3981 7.33252 13.8861 7.43705 14.3365 7.63906C14.787 7.84107 15.1896 8.13601 15.5181 8.50453L17.2944 10.4989H0.6873C0.753555 10.3287 0.838295 10.1662 0.94 10.0144ZM5.8818 18.8498C5.46646 18.8498 5.06045 18.7267 4.7151 18.4959C4.36976 18.2652 4.1006 17.9372 3.94165 17.5535C3.78271 17.1697 3.74112 16.7475 3.82215 16.3401C3.90318 15.9328 4.10319 15.5586 4.39688 15.2649C4.69057 14.9712 5.06475 14.7712 5.47211 14.6902C5.87947 14.6092 6.30171 14.6507 6.68544 14.8097C7.06916 14.9686 7.39714 15.2378 7.62789 15.5831C7.85864 15.9285 7.9818 16.3345 7.9818 16.7498C7.98114 17.3066 7.75968 17.8403 7.36599 18.234C6.97231 18.6277 6.43855 18.8492 5.8818 18.8498ZM19.3728 18.8498C18.9575 18.8498 18.5514 18.7267 18.2061 18.4959C17.8608 18.2652 17.5916 17.9372 17.4327 17.5535C17.2737 17.1697 17.2321 16.7475 17.3132 16.3401C17.3942 15.9328 17.5942 15.5586 17.8879 15.2649C18.1816 14.9712 18.5557 14.7712 18.9631 14.6902C19.3705 14.6092 19.7927 14.6507 20.1764 14.8097C20.5602 14.9686 20.8881 15.2378 21.1189 15.5831C21.3496 15.9285 21.4728 16.3345 21.4728 16.7498C21.4722 17.3066 21.2507 17.8404 20.857 18.2341C20.4633 18.6277 19.9296 18.8492 19.3728 18.8498ZM23.5 16.4998H21.9475C21.8894 15.857 21.593 15.2592 21.1165 14.8239C20.64 14.3885 20.0179 14.1471 19.3725 14.1471C18.7271 14.1471 18.105 14.3885 17.6285 14.8239C17.152 15.2592 16.8556 15.857 16.7975 16.4998H8.4565C8.39783 15.8587 8.10205 15.2625 7.62703 14.8279C7.152 14.3933 6.53192 14.1515 5.88809 14.15C5.24425 14.1484 4.62299 14.3871 4.14585 14.8193C3.6687 15.2516 3.37001 15.8464 3.3082 16.4872L0.5 15.8065V11.431C0.501116 11.2861 0.514801 11.1415 0.5409 10.9989H17.94C19.5764 11.1342 21.1774 11.5497 22.6731 12.2272C22.9193 12.3383 23.1283 12.518 23.2749 12.7448C23.4216 12.9716 23.4997 13.2358 23.5 13.5059V16.4998Z" fill="black"/>
</g>
<defs>
<clipPath id="clip0">
<rect width="24" height="24" fill="white"/>
</clipPath>
</defs>
</svg>
