<svg width="24" height="24" viewBox="0 0 24 24" fill="none" xmlns="http://www.w3.org/2000/svg">
<path d="M14.3 3.09981C14.5275 3.09981 14.7498 3.03236 14.9389 2.906C15.128 2.77963 15.2754 2.60003 15.3625 2.38989C15.4495 2.17976 15.4723 1.94853 15.4279 1.72545C15.3835 1.50237 15.274 1.29746 15.1132 1.13663C14.9523 0.975802 14.7474 0.866275 14.5244 0.821902C14.3013 0.777529 14.0701 0.800303 13.8599 0.887344C13.6498 0.974385 13.4702 1.12178 13.3438 1.3109C13.2174 1.50002 13.15 1.72236 13.15 1.94981C13.15 2.2548 13.2712 2.54731 13.4868 2.76298C13.7025 2.97864 13.995 3.09981 14.3 3.09981ZM19.7 3.09981C19.9275 3.09981 20.1498 3.03236 20.3389 2.906C20.528 2.77963 20.6754 2.60003 20.7625 2.38989C20.8495 2.17976 20.8723 1.94853 20.8279 1.72545C20.7835 1.50237 20.674 1.29746 20.5132 1.13663C20.3523 0.975802 20.1474 0.866275 19.9244 0.821902C19.7013 0.777529 19.4701 0.800303 19.2599 0.887344C19.0498 0.974385 18.8702 1.12178 18.7438 1.3109C18.6174 1.50002 18.55 1.72236 18.55 1.94981C18.55 2.2548 18.6712 2.54731 18.8868 2.76298C19.1025 2.97864 19.395 3.09981 19.7 3.09981ZM17.75 4.94681V6.9998H21.65V4.94681C21.3939 4.69073 21.0899 4.48759 20.7553 4.349C20.4208 4.21041 20.0622 4.13908 19.7 4.13908C19.3379 4.13908 18.9792 4.21041 18.6447 4.349C18.3101 4.48759 18.0061 4.69073 17.75 4.94681ZM16.25 4.94681C15.9939 4.69073 15.6899 4.48759 15.3553 4.349C15.0208 4.21041 14.6622 4.13908 14.3 4.13908C13.9379 4.13908 13.5793 4.21041 13.2447 4.349C12.9101 4.48759 12.6061 4.69073 12.35 4.94681V6.9998H16.25V4.94681ZM14.32 15.9921C14.118 15.9921 13.9204 16.0521 13.7525 16.1643C13.5845 16.2766 13.4535 16.4362 13.3762 16.6228C13.2989 16.8095 13.2787 17.0149 13.3181 17.2131C13.3576 17.4112 13.4549 17.5933 13.5978 17.7361C13.7406 17.879 13.9227 17.9763 14.1208 18.0157C14.319 18.0551 14.5244 18.0349 14.7111 17.9575C14.8977 17.8802 15.0573 17.7493 15.1695 17.5813C15.2818 17.4133 15.3417 17.2158 15.3417 17.0137C15.3417 16.8795 15.3153 16.7467 15.264 16.6227C15.2126 16.4988 15.1374 16.3861 15.0425 16.2913C14.9476 16.1964 14.835 16.1211 14.711 16.0698C14.587 16.0185 14.4542 15.9921 14.32 15.9921ZM6.9152 15.9921C6.71315 15.9921 6.51565 16.0521 6.34766 16.1643C6.17967 16.2766 6.04875 16.4362 5.97144 16.6228C5.89413 16.8095 5.87391 17.0149 5.91334 17.2131C5.95278 17.4112 6.05008 17.5933 6.19296 17.7361C6.33583 17.879 6.51787 17.9763 6.71604 18.0157C6.9142 18.0551 7.11961 18.0349 7.30628 17.9575C7.49294 17.8802 7.65249 17.7493 7.76474 17.5813C7.87699 17.4133 7.9369 17.2158 7.9369 17.0137C7.93692 16.8795 7.91048 16.7466 7.85912 16.6226C7.80775 16.4986 7.73246 16.386 7.63754 16.2911C7.54262 16.1962 7.42993 16.121 7.30592 16.0697C7.18191 16.0184 7.04901 15.992 6.9148 15.9921H6.9152ZM16.9141 10.2498C16.7976 9.88677 16.5688 9.5701 16.2608 9.34545C15.9527 9.1208 15.5813 8.99977 15.2 8.99981H6.0342C5.65291 8.99974 5.28145 9.12076 4.97337 9.34542C4.66529 9.57007 4.43651 9.88675 4.32 10.2498C4.0034 11.2558 3.75047 12.2807 3.5627 13.3184H1.6172V14.7212L3.2737 15.2964C3.17512 16.1735 3.12288 17.0553 3.1172 17.9379V21.9334C3.1172 22.0201 3.13427 22.1059 3.16744 22.186C3.20061 22.2661 3.24923 22.3388 3.31051 22.4001C3.3718 22.4614 3.44456 22.51 3.52463 22.5432C3.60471 22.5763 3.69053 22.5934 3.7772 22.5934H4.4572C4.63225 22.5934 4.80012 22.5239 4.92389 22.4001C5.04767 22.2763 5.1172 22.1084 5.1172 21.9334V20.9998H16.1172V21.9335C16.1172 22.1085 16.1867 22.2764 16.3105 22.4002C16.4343 22.524 16.6022 22.5935 16.7772 22.5935H17.4572C17.6322 22.5935 17.8001 22.524 17.9239 22.4002C18.0477 22.2764 18.1172 22.1085 18.1172 21.9335V17.938C18.1115 17.0554 18.0593 16.1736 17.9607 15.2965L19.6172 14.7213V13.3185H17.6714C17.4836 12.2807 17.2307 11.2558 16.9141 10.2498ZM6.0341 10.7998H15.2C15.4594 11.6269 15.6726 12.4678 15.8387 13.3185H5.3955C5.56155 12.4677 5.77478 11.6269 6.0342 10.7998H6.0341ZM16.317 19.1998H4.917V17.938C4.92267 16.9952 4.98538 16.0537 5.1048 15.1185H16.1294C16.2488 16.0537 16.3115 16.9952 16.3171 17.938L16.317 19.1998Z" fill="black"/>
</svg>
