<svg width="24" height="24" viewBox="0 0 24 24" fill="none" xmlns="http://www.w3.org/2000/svg">
<g clip-path="url(#clip0)">
<path d="M24 12.4302C24.0012 12.0987 23.8966 11.7754 23.7016 11.5073C23.5065 11.2392 23.231 11.0402 22.9152 10.9393C21.3437 10.4463 19.7218 10.1313 18.08 10.0002L16.1422 7.22463C15.9282 6.91232 15.6413 6.65685 15.3064 6.48032C14.9715 6.30378 14.5986 6.21149 14.22 6.21143H10.573L10.5452 10.0002H0V16.5002L3.679 16.9137C3.69286 17.6415 3.98884 18.3355 4.50451 18.8493C5.02019 19.3631 5.71525 19.6566 6.44312 19.6678C7.17098 19.679 7.87476 19.4071 8.40602 18.9095C8.93729 18.4118 9.25451 17.7273 9.2908 17.0002H16.5347C16.5699 17.7195 16.8804 18.3978 17.4019 18.8944C17.9235 19.3911 18.6161 19.6681 19.3363 19.6681C20.0564 19.6681 20.749 19.3911 21.2706 18.8944C21.7921 18.3978 22.1026 17.7195 22.1378 17.0002H24V12.4302ZM11.5654 7.21113H14.22C14.4362 7.21124 14.6492 7.26402 14.8405 7.36493C15.0317 7.46583 15.1955 7.6118 15.3177 7.79023L16.8814 10.0291H11.5444L11.5654 7.21113ZM6.4893 18.7511C6.11352 18.7511 5.74617 18.6397 5.43372 18.4309C5.12126 18.2221 4.87774 17.9254 4.73393 17.5782C4.59012 17.231 4.5525 16.849 4.62581 16.4805C4.69912 16.1119 4.88008 15.7733 5.1458 15.5076C5.41152 15.2419 5.75006 15.0609 6.11863 14.9876C6.48719 14.9143 6.86922 14.9519 7.2164 15.0958C7.56358 15.2396 7.86032 15.4831 8.06909 15.7955C8.27787 16.108 8.3893 16.4753 8.3893 16.8511C8.38867 17.3548 8.18828 17.8377 7.83209 18.1939C7.4759 18.55 6.993 18.7503 6.4893 18.7509V18.7511ZM19.3362 18.7511C18.9604 18.7511 18.5931 18.6397 18.2806 18.4309C17.9682 18.2221 17.7246 17.9254 17.5808 17.5782C17.437 17.231 17.3994 16.849 17.4727 16.4805C17.546 16.1119 17.727 15.7733 17.9927 15.5076C18.2584 15.2419 18.597 15.0609 18.9655 14.9876C19.3341 14.9143 19.7161 14.9519 20.0633 15.0958C20.4105 15.2396 20.7072 15.4831 20.916 15.7955C21.1248 16.108 21.2362 16.4753 21.2362 16.8511C21.2356 17.3548 21.0352 17.8377 20.679 18.1939C20.3228 18.55 19.8399 18.7504 19.3362 18.7509V18.7511ZM23 16.0002H22.0078C21.8303 15.4305 21.4753 14.9324 20.9947 14.5788C20.5141 14.2251 19.933 14.0343 19.3363 14.0343C18.7395 14.0343 18.1584 14.2251 17.6778 14.5788C17.1972 14.9324 16.8422 15.4305 16.6647 16.0002H9.1608C8.98518 15.4368 8.63599 14.9434 8.16311 14.5903C7.69024 14.2373 7.11788 14.0427 6.52781 14.0345C5.93774 14.0262 5.36015 14.2046 4.87757 14.5443C4.395 14.884 4.03212 15.3675 3.8408 15.9257L1 15.6066V10.9992L17.9985 10.9957L18.0059 10.9963C19.5712 11.1209 21.1175 11.4219 22.6152 11.8938C22.7282 11.9305 22.8265 12.0023 22.8957 12.0988C22.965 12.1953 23.0015 12.3115 23 12.4302V16.0002Z" fill="black"/>
</g>
<defs>
<clipPath id="clip0">
<rect width="24" height="24" fill="white"/>
</clipPath>
</defs>
</svg>
