<svg width="24" height="24" viewBox="0 0 24 24" fill="none" xmlns="http://www.w3.org/2000/svg">
<path d="M23.3167 3.6333H0.6833C0.503496 3.63548 0.331794 3.70843 0.205416 3.83635C0.0790375 3.96426 0.00816665 4.13683 0.00816665 4.31665C0.00816665 4.49647 0.0790375 4.66904 0.205416 4.79696C0.331794 4.92487 0.503496 4.99783 0.6833 5H11.3164V8H3.5208L2.6458 6H0L0.9649 11.625H7.6484L10 17H19.16C19.722 17 20.2713 16.8332 20.7385 16.5208C21.2056 16.2084 21.5696 15.7643 21.7842 15.2449C21.9988 14.7255 22.0545 14.1541 21.9441 13.6031C21.8338 13.052 21.5624 12.5461 21.1643 12.1494L17.5854 8.5833C17.2105 8.20973 16.7028 7.99998 16.1736 8H12.6836V5H23.3167C23.4965 4.99783 23.6682 4.92487 23.7946 4.79696C23.921 4.66904 23.9918 4.49647 23.9918 4.31665C23.9918 4.13683 23.921 3.96426 23.7946 3.83635C23.6682 3.70843 23.4965 3.63548 23.3167 3.6333ZM13.3476 9.5H16.1736C16.2391 9.49984 16.3041 9.51263 16.3647 9.53765C16.4252 9.56268 16.4803 9.59943 16.5266 9.6458L19.3785 12.4879H15.1111C14.6434 12.4879 14.1948 12.3021 13.8641 11.9714C13.5334 11.6407 13.3476 11.1921 13.3476 10.7244V9.5ZM8.3333 20.6666H20.1823L21 19.3H8.3333V20.6666Z" fill="black"/>
</svg>
