<svg width="24" height="24" viewBox="0 0 24 24" fill="none" xmlns="http://www.w3.org/2000/svg">
<path d="M22.3386 13.5059C22.3391 13.1393 22.2333 12.7803 22.0342 12.4725C21.835 12.1647 21.5509 11.9211 21.2163 11.7712C19.6633 11.0684 18.001 10.6381 16.3021 10.499L14.23 8.17203C13.8548 7.75064 13.3947 7.4134 12.8799 7.18245C12.3651 6.95151 11.8072 6.83208 11.243 6.83203H4.183L2.19 9.73113C1.84599 10.2313 1.66182 10.8241 1.6618 11.4311V16.1998L3.8561 16.7317L3.8543 16.7498C3.85347 17.4032 4.10415 18.0319 4.55435 18.5054C5.00456 18.979 5.61975 19.2611 6.27236 19.2932C6.92496 19.3254 7.56491 19.1051 8.05948 18.6781C8.55405 18.2511 8.86531 17.6501 8.9287 16.9998H15.5887C15.647 17.6292 15.9382 18.2141 16.4053 18.64C16.8724 19.0658 17.4816 19.3018 18.1137 19.3018C18.7458 19.3018 19.355 19.0658 19.8221 18.64C20.2892 18.2141 20.5804 17.6292 20.6387 16.9998H22.3387L22.3386 13.5059ZM2.6016 10.0144L4.446 7.33233H11.2426C11.7362 7.33254 12.2242 7.43708 12.6746 7.63909C13.125 7.8411 13.5277 8.13603 13.8561 8.50453L15.6324 10.4989H2.3488C2.41505 10.3286 2.49983 10.1662 2.6016 10.0144ZM6.4039 18.7998C5.99845 18.7998 5.60211 18.6796 5.26499 18.4543C4.92786 18.2291 4.66511 17.9089 4.50995 17.5343C4.35479 17.1597 4.31419 16.7476 4.39329 16.3499C4.47239 15.9522 4.66764 15.587 4.95434 15.3003C5.24103 15.0136 5.60631 14.8183 6.00397 14.7392C6.40163 14.6601 6.81382 14.7007 7.18841 14.8559C7.56299 15.011 7.88316 15.2738 8.10842 15.6109C8.33367 15.948 8.4539 16.3444 8.4539 16.7498C8.45327 17.2933 8.23708 17.8144 7.85277 18.1987C7.46846 18.583 6.9474 18.7992 6.4039 18.7998ZM18.1139 18.7998C17.7085 18.7998 17.3121 18.6796 16.975 18.4543C16.6379 18.2291 16.3751 17.9089 16.22 17.5343C16.0648 17.1597 16.0242 16.7476 16.1033 16.3499C16.1824 15.9522 16.3776 15.587 16.6643 15.3003C16.951 15.0136 17.3163 14.8183 17.714 14.7392C18.1116 14.6601 18.5238 14.7007 18.8984 14.8559C19.273 15.011 19.5932 15.2738 19.8184 15.6109C20.0437 15.948 20.1639 16.3444 20.1639 16.7498C20.1633 17.2934 19.9471 17.8145 19.5627 18.1988C19.1784 18.5831 18.6572 18.7993 18.1137 18.7998H18.1139ZM21.8388 16.4998H20.6388C20.5805 15.8705 20.2893 15.2855 19.8222 14.8597C19.3551 14.4339 18.7459 14.1978 18.1138 14.1978C17.4817 14.1978 16.8725 14.4339 16.4054 14.8597C15.9383 15.2855 15.6471 15.8705 15.5888 16.4998H8.9288C8.8708 15.8938 8.59723 15.3287 8.15785 14.9072C7.71846 14.4858 7.14243 14.236 6.53448 14.2033C5.92654 14.1706 5.32704 14.3572 4.845 14.7291C4.36295 15.101 4.03037 15.6335 3.9077 16.2298L2.1615 15.8065V11.431C2.16265 11.2861 2.17637 11.1415 2.2025 10.9989H16.2785C17.9149 11.1342 19.5158 11.5497 21.0114 12.2272C21.2577 12.3382 21.4668 12.5179 21.6135 12.7447C21.7602 12.9715 21.8384 13.2358 21.8387 13.5059L21.8388 16.4998Z" fill="black"/>
</svg>
