<svg width="24" height="24" viewBox="0 0 24 24" fill="none" xmlns="http://www.w3.org/2000/svg">
<path d="M8.59692 4.53349C8.7024 4.53347 8.80549 4.50218 8.89318 4.44356C8.98087 4.38495 9.04921 4.30166 9.08956 4.20421C9.12991 4.10676 9.14045 3.99953 9.11986 3.89609C9.09928 3.79264 9.04848 3.69763 8.97389 3.62305C8.8993 3.54848 8.80428 3.4977 8.70083 3.47713C8.59738 3.45656 8.49016 3.46713 8.39271 3.50749C8.29527 3.54786 8.21199 3.61622 8.15339 3.70391C8.0948 3.79161 8.06352 3.89472 8.06352 4.00019C8.06351 4.07024 8.0773 4.1396 8.1041 4.20431C8.1309 4.26903 8.17019 4.32783 8.21973 4.37735C8.26926 4.42688 8.32807 4.46616 8.39279 4.49295C8.45751 4.51974 8.52688 4.53352 8.59692 4.53349ZM9.13002 6.63019C9.59432 6.62911 10.05 6.50458 10.4503 6.26937C10.8506 6.03417 11.1812 5.69675 11.4081 5.29169H12.1561L13.3334 4.80169L14.3334 5.29169L15.3334 4.80169L16.3334 5.29169L17.4999 4.46169V2.70849H11.4082C11.1802 2.30686 10.8502 1.97249 10.4516 1.73914C10.0531 1.50578 9.59998 1.38171 9.13813 1.37943C8.67627 1.37715 8.22199 1.49675 7.82113 1.72615C7.42027 1.95556 7.08703 2.28665 6.85503 2.68602C6.62303 3.08538 6.50049 3.53888 6.49978 4.00074C6.49906 4.4626 6.6202 4.91648 6.85097 5.31655C7.08173 5.71663 7.41396 6.04876 7.8141 6.2794C8.21425 6.51004 8.66816 6.63104 9.13002 6.63019ZM9.13002 2.17019C9.45321 2.17005 9.77052 2.25662 10.0489 2.42086C10.3272 2.58511 10.5564 2.82101 10.7125 3.10399L10.9425 3.50869H16.7V4.04929L16.2576 4.36419L15.6853 4.08419L15.3335 3.91189L14.9817 4.08419L14.3335 4.40149L13.6853 4.08419L13.36 3.92469L13.026 4.06359L11.996 4.49189H10.942L10.712 4.89659C10.5559 5.17945 10.3268 5.41528 10.0485 5.57948C9.7703 5.74368 9.45311 5.83026 9.13002 5.83019C8.64468 5.83019 8.17921 5.63739 7.83602 5.2942C7.49283 4.951 7.30002 4.48554 7.30002 4.00019C7.30002 3.51484 7.49283 3.04938 7.83602 2.70618C8.17921 2.36299 8.64468 2.17019 9.13002 2.17019ZM7.74392 15.868C7.47866 15.868 7.21937 15.9467 6.99882 16.0941C6.77827 16.2415 6.60638 16.4509 6.50489 16.696C6.40339 16.9411 6.37684 17.2107 6.42861 17.4709C6.48037 17.7311 6.60811 17.97 6.79569 18.1576C6.98326 18.3452 7.22224 18.4729 7.48241 18.5246C7.74257 18.5764 8.01224 18.5498 8.2573 18.4483C8.50237 18.3468 8.71183 18.1749 8.8592 17.9543C9.00657 17.7338 9.08522 17.4744 9.08522 17.2092C9.08524 17.033 9.05055 16.8586 8.98315 16.6959C8.91574 16.5332 8.81694 16.3853 8.69239 16.2608C8.56783 16.1362 8.41996 16.0374 8.25722 15.97C8.09449 15.9026 7.92006 15.868 7.74392 15.868ZM7.74392 17.7504C7.63689 17.7504 7.53226 17.7186 7.44328 17.6591C7.35429 17.5997 7.28494 17.5151 7.24399 17.4162C7.20304 17.3173 7.19234 17.2085 7.21323 17.1035C7.23413 16.9986 7.28568 16.9021 7.36137 16.8265C7.43706 16.7508 7.5335 16.6993 7.63848 16.6784C7.74346 16.6575 7.85227 16.6682 7.95115 16.7092C8.05004 16.7502 8.13456 16.8195 8.19402 16.9085C8.25349 16.9975 8.28522 17.1022 8.28522 17.2092C8.28496 17.3526 8.22783 17.4901 8.12637 17.5915C8.02491 17.693 7.88738 17.75 7.74392 17.7502V17.7504ZM21.1885 11.8541H18.7866C18.6826 11.3791 18.5781 10.9041 18.4514 10.4341C18.3492 10.053 18.1327 9.71245 17.8311 9.4582C17.5294 9.20395 17.1571 9.04826 16.7642 9.01209C16.7053 9.00429 16.5735 9.00019 16.5129 9.00019H7.48802C7.43412 9.00019 7.30802 9.00339 7.25562 9.00969C6.85897 9.04218 6.48206 9.1965 6.17652 9.45151C5.87097 9.70651 5.65173 10.0497 5.54882 10.4342C5.42192 10.9042 5.31742 11.3791 5.21342 11.8542H2.81152V14.0896L4.72662 14.7546C4.59422 15.8312 4.51971 16.9142 4.50342 17.9988C4.50102 18.1271 4.50002 18.4508 4.50002 18.5788V21.9336C4.50002 22.0203 4.51709 22.1061 4.55026 22.1862C4.58343 22.2662 4.63205 22.339 4.69333 22.4003C4.75462 22.4616 4.82738 22.5102 4.90745 22.5434C4.98753 22.5765 5.07335 22.5936 5.16002 22.5936H6.67092C6.7576 22.5936 6.84342 22.5765 6.92349 22.5434C7.00357 22.5102 7.07633 22.4616 7.13761 22.4003C7.1989 22.339 7.24752 22.2662 7.28068 22.1862C7.31385 22.1061 7.33092 22.0203 7.33092 21.9336V21.0002H16.6693V21.9339C16.6693 22.1089 16.7389 22.2768 16.8626 22.4006C16.9864 22.5244 17.1543 22.5939 17.3293 22.5939H18.84C19.0151 22.5939 19.1829 22.5244 19.3067 22.4006C19.4305 22.2768 19.5 22.1089 19.5 21.9339V18.5789C19.5 18.4525 19.499 18.1309 19.4968 18.0045C19.4808 16.9179 19.4062 15.833 19.2734 14.7545L21.1885 14.0896V11.8541ZM4.84522 13.8429L3.71142 13.4493V12.7541H5.03082C4.96292 13.1161 4.90002 13.4787 4.84522 13.8429ZM6.51422 10.6945C6.56361 10.5091 6.66913 10.3435 6.81633 10.2204C6.96353 10.0973 7.1452 10.0228 7.33642 10.007L7.48832 10.0002H16.5127C16.5444 10.0002 16.6084 10.0012 16.6479 10.0051C16.8412 10.0197 17.0254 10.0936 17.1752 10.2166C17.3251 10.3396 17.4334 10.5058 17.4854 10.6926C17.7754 11.7792 18.0029 12.8815 18.1665 13.9942H5.83352C5.9971 12.8822 6.22438 11.7805 6.51422 10.6945ZM17.6021 21.661L17.5972 20.0002H6.40282L6.39792 21.661H5.50002C5.50002 21.661 5.50152 18.1227 5.50342 18.0168C5.51914 16.9841 5.58924 15.9529 5.71342 14.9275H18.2864C18.4107 15.9522 18.4808 16.9827 18.4964 18.0148L18.5 21.661H17.6021ZM20.2886 13.4493L19.1548 13.843C19.1003 13.4788 19.0371 13.1161 18.9692 12.7541H20.2886V13.4493ZM16.2561 15.868C15.9909 15.868 15.7315 15.9466 15.511 16.094C15.2904 16.2413 15.1185 16.4508 15.0169 16.6959C14.9154 16.9409 14.8888 17.2106 14.9406 17.4708C14.9923 17.731 15.1201 17.9699 15.3076 18.1575C15.4952 18.3451 15.7342 18.4729 15.9943 18.5246C16.2545 18.5764 16.5242 18.5498 16.7693 18.4483C17.0143 18.3468 17.2238 18.1749 17.3712 17.9543C17.5186 17.7338 17.5972 17.4745 17.5972 17.2092C17.5972 16.8535 17.4559 16.5124 17.2044 16.2609C16.9529 16.0094 16.6118 15.868 16.2561 15.868ZM16.2561 17.7504C16.1491 17.7504 16.0445 17.7186 15.9555 17.6591C15.8665 17.5997 15.7971 17.5151 15.7562 17.4162C15.7152 17.3173 15.7045 17.2085 15.7254 17.1035C15.7463 16.9986 15.7979 16.9021 15.8736 16.8265C15.9493 16.7508 16.0457 16.6993 16.1507 16.6784C16.2557 16.6575 16.3645 16.6682 16.4634 16.7092C16.5622 16.7502 16.6468 16.8195 16.7062 16.9085C16.7657 16.9975 16.7974 17.1022 16.7974 17.2092C16.7972 17.3527 16.7401 17.4902 16.6386 17.5916C16.5372 17.693 16.3996 17.7501 16.2561 17.7502V17.7504Z" fill="black"/>
</svg>
