<svg width="24" height="24" viewBox="0 0 24 24" fill="none" xmlns="http://www.w3.org/2000/svg">
<path d="M23 16.9998L22.9826 13.3146C22.9624 12.9549 22.8423 12.608 22.6359 12.3126C22.4295 12.0173 22.145 11.7854 21.8141 11.6427C20.5555 11.0883 19.2246 10.7154 17.8611 10.5352L17.6118 10.5037L15.6981 8.45524C15.2947 8.01088 14.8546 7.6013 14.3824 7.23084C13.5132 6.57027 12.4615 6.19367 11.3705 6.15234H3.57L1.3862 10.0323C1.13314 10.4815 1.00013 10.9882 1 11.5037V16.3031L2.78 16.842C2.84671 17.5919 3.18682 18.291 3.73559 18.8063C4.28436 19.3217 5.00346 19.6172 5.75601 19.6367C6.50856 19.6562 7.242 19.3983 7.81671 18.912C8.39142 18.4258 8.76727 17.7452 8.8727 16.9998H15.2168C15.3205 17.7319 15.685 18.4018 16.2433 18.8866C16.8015 19.3713 17.516 19.6382 18.2554 19.6382C18.9947 19.6382 19.7092 19.3713 20.2674 18.8866C20.8257 18.4018 21.1902 17.7319 21.2939 16.9998H23ZM4.426 7.58564H11.3705C12.1254 7.62239 12.8522 7.88353 13.4578 8.33564C13.713 8.51745 13.9515 8.72159 14.1706 8.94564L15.5931 10.4447L15.6456 10.4996H2.7626L4.426 7.58564ZM5.8342 18.3384C5.48147 18.3385 5.13666 18.2339 4.84337 18.0379C4.55008 17.842 4.32148 17.5635 4.18648 17.2376C4.05149 16.9117 4.01615 16.5531 4.08496 16.2072C4.15376 15.8612 4.3236 15.5434 4.57301 15.294C4.82242 15.0446 5.14019 14.8747 5.48614 14.8059C5.83209 14.7371 6.19067 14.7724 6.51655 14.9074C6.84243 15.0424 7.12097 15.2709 7.31694 15.5642C7.5129 15.8575 7.6175 16.2023 7.6175 16.555C7.61697 17.0279 7.42892 17.4811 7.0946 17.8155C6.76029 18.1498 6.30701 18.3379 5.8342 18.3384ZM18.2553 18.3384C17.9026 18.3384 17.5578 18.2338 17.2645 18.0379C16.9712 17.8419 16.7426 17.5634 16.6076 17.2375C16.4727 16.9116 16.4374 16.553 16.5062 16.2071C16.575 15.8611 16.7449 15.5434 16.9943 15.294C17.2437 15.0445 17.5615 14.8747 17.9074 14.8059C18.2534 14.7371 18.612 14.7724 18.9378 14.9074C19.2637 15.0424 19.5422 15.271 19.7382 15.5643C19.9341 15.8576 20.0387 16.2024 20.0387 16.5551C20.0382 17.028 19.8501 17.4813 19.5158 17.8156C19.1814 18.1499 18.7281 18.3379 18.2553 18.3384Z" fill="black"/>
</svg>
