<svg width="24" height="24" viewBox="0 0 24 24" fill="none" xmlns="http://www.w3.org/2000/svg">
<path d="M23 14.4467C23.0028 14.1175 22.9188 13.7933 22.7564 13.5068C22.5941 13.2204 22.3591 12.9818 22.0751 12.8151C20.4111 12.0047 18.5943 11.5562 16.7443 11.4991L14.0319 8.83542C13.3776 8.19279 12.4971 7.83266 11.58 7.83252H9.1341C8.5346 7.83251 7.94115 7.95229 7.38859 8.18483C6.83603 8.41736 6.3355 8.75796 5.9164 9.18662L3.6555 11.4991H2.6C2.17565 11.4991 1.76869 11.6677 1.46863 11.9677C1.16857 12.2678 1 12.6748 1 13.0991V16.4165L3.3361 16.8465C3.41321 17.3651 3.66956 17.8403 4.0606 18.1896C4.45165 18.5388 4.95268 18.74 5.47666 18.7583C6.00064 18.7765 6.51446 18.6106 6.92885 18.2894C7.34323 17.9682 7.63201 17.512 7.745 17H16.3845C16.4952 17.499 16.7729 17.9453 17.1716 18.2652C17.5702 18.5851 18.0661 18.7595 18.5772 18.7595C19.0884 18.7595 19.5843 18.5851 19.9829 18.2652C20.3816 17.9453 20.6593 17.499 20.77 17H23V14.4467ZM5.5521 18.26C5.20598 18.26 4.86764 18.1574 4.57985 17.9651C4.29207 17.7728 4.06776 17.4995 3.93531 17.1797C3.80286 16.8599 3.7682 16.5081 3.83573 16.1686C3.90325 15.8291 4.06992 15.5173 4.31466 15.2726C4.5594 15.0278 4.87123 14.8612 5.21069 14.7936C5.55016 14.7261 5.90203 14.7608 6.2218 14.8932C6.54157 15.0257 6.81488 15.25 7.00717 15.5378C7.19946 15.8256 7.3021 16.1639 7.3021 16.51C7.3016 16.974 7.11706 17.4188 6.78898 17.7469C6.4609 18.075 6.01607 18.2595 5.5521 18.26ZM4.3548 11.4991L6.2739 9.53622C6.64719 9.15623 7.09222 8.85416 7.58317 8.64752C8.07413 8.44089 8.60123 8.33382 9.1339 8.33252H11.58C12.3667 8.33082 13.1221 8.63991 13.682 9.19252L16.0311 11.4995L4.3548 11.4991ZM18.5774 18.26C18.2313 18.26 17.8929 18.1574 17.6052 17.9651C17.3174 17.7728 17.0931 17.4995 16.9606 17.1797C16.8282 16.8599 16.7935 16.5081 16.861 16.1686C16.9285 15.8291 17.0952 15.5173 17.34 15.2726C17.5847 15.0278 17.8965 14.8612 18.236 14.7936C18.5755 14.7261 18.9273 14.7608 19.2471 14.8932C19.5669 15.0257 19.8402 15.25 20.0325 15.5378C20.2248 15.8256 20.3274 16.1639 20.3274 16.51C20.3269 16.974 20.1424 17.4188 19.8143 17.7469C19.4862 18.075 19.0414 18.2595 18.5774 18.26Z" fill="black"/>
</svg>
