<svg width="24" height="24" viewBox="0 0 24 24" fill="none" xmlns="http://www.w3.org/2000/svg">
<g clip-path="url(#clip0)">
<path d="M24 17V11.7368C24.0014 11.3395 23.8778 10.952 23.6466 10.629C23.4154 10.306 23.0884 10.064 22.7119 9.93735C21.2879 9.45273 19.8116 9.13808 18.3138 8.99995L16.6451 6.36395C16.3745 5.9365 16.0001 5.58443 15.5569 5.34049C15.1137 5.09656 14.6159 4.96868 14.11 4.96875H9.9688V8.99995H0V16.5L3.6846 16.9122C3.76838 17.6981 4.13722 18.4261 4.72137 18.9586C5.30553 19.4911 6.06453 19.7911 6.85487 19.8019C7.64521 19.8127 8.41213 19.5336 9.01063 19.0173C9.60914 18.501 9.99775 17.7833 10.103 17H15.25C15.3543 17.776 15.7366 18.4879 16.326 19.0035C16.9155 19.519 17.6719 19.8031 18.455 19.8031C19.2381 19.8031 19.9945 19.519 20.584 19.0035C21.1734 18.4879 21.5557 17.776 21.66 17H24ZM11.8688 6.86865H14.11C14.2957 6.86802 14.4784 6.91462 14.6411 7.00406C14.8038 7.09351 14.9411 7.22286 15.04 7.37995L16.0652 8.99995H11.8688V6.86865ZM1.9 10.8999H18.2136C19.537 11.0279 20.8411 11.3087 22.0999 11.7368V15.1H21.348C21.0815 14.5603 20.6693 14.1059 20.158 13.7882C19.6468 13.4705 19.0568 13.3021 18.4549 13.3021C17.853 13.3021 17.263 13.4705 16.7518 13.7882C16.2405 14.1059 15.8283 14.5603 15.5618 15.1H9.7913C9.52754 14.5654 9.12079 14.1144 8.61621 13.7971C8.11163 13.4797 7.52898 13.3084 6.93293 13.3022C6.33689 13.296 5.75079 13.4551 5.2397 13.7619C4.72862 14.0686 4.31255 14.511 4.0377 15.04L1.9 14.8007V10.8999ZM6.8982 18.052C6.60153 18.052 6.31152 17.9641 6.06484 17.7993C5.81817 17.6344 5.62591 17.4002 5.51238 17.1261C5.39885 16.852 5.36914 16.5504 5.42702 16.2594C5.4849 15.9684 5.62776 15.7012 5.83754 15.4914C6.04732 15.2816 6.31459 15.1388 6.60556 15.0809C6.89654 15.023 7.19814 15.0527 7.47223 15.1662C7.74631 15.2798 7.98058 15.472 8.1454 15.7187C8.31023 15.9654 8.3982 16.2554 8.3982 16.552C8.39778 16.9497 8.2396 17.331 7.95839 17.6122C7.67718 17.8935 7.29589 18.0516 6.8982 18.052ZM18.455 18.052C18.1583 18.052 17.8683 17.9641 17.6216 17.7993C17.375 17.6344 17.1827 17.4002 17.0692 17.1261C16.9557 16.852 16.9259 16.5504 16.9838 16.2594C17.0417 15.9684 17.1846 15.7012 17.3943 15.4914C17.6041 15.2816 17.8714 15.1388 18.1624 15.0809C18.4533 15.023 18.7549 15.0527 19.029 15.1662C19.3031 15.2798 19.5374 15.472 19.7022 15.7187C19.867 15.9654 19.955 16.2554 19.955 16.552C19.9546 16.9497 19.7964 17.331 19.5152 17.6122C19.234 17.8935 18.8527 18.0516 18.455 18.052Z" fill="black"/>
</g>
<defs>
<clipPath id="clip0">
<rect width="24" height="24" fill="white"/>
</clipPath>
</defs>
</svg>
