<svg width="24" height="24" viewBox="0 0 24 24" fill="none" xmlns="http://www.w3.org/2000/svg">
<path d="M20.2886 16.6755L20.8465 12.2127C20.8895 11.8686 20.812 11.5202 20.6271 11.2269C20.4422 10.9335 20.1614 10.7133 19.8324 10.6036L19 10.3262V6C19 5.46957 18.7893 4.96086 18.4142 4.58579C18.0391 4.21071 17.5304 4 17 4H13.5V3H10.5V4H7C6.46957 4 5.96086 4.21071 5.58579 4.58579C5.21071 4.96086 5 5.46957 5 6V10.3255L4.1656 10.6036C3.83664 10.7133 3.55584 10.9335 3.37097 11.2269C3.1861 11.5203 3.10858 11.8686 3.1516 12.2127L3.7093 16.6746C2.87164 16.2403 1.94352 16.0092 1 16V16.5C1.92108 16.5077 2.82574 16.7446 3.6323 17.1895C4.51146 17.6726 5.49689 17.9296 6.5 17.9375C7.50311 17.9296 8.48854 17.6726 9.3677 17.1895C10.1719 16.739 11.0782 16.5024 12 16.5024C12.9218 16.5024 13.8281 16.739 14.6323 17.1895C15.5085 17.68 16.4959 17.9375 17.5 17.9375C18.5041 17.9375 19.4915 17.68 20.3677 17.1895C21.1743 16.7446 22.0789 16.5077 23 16.5V16C22.0557 16.0091 21.1268 16.2405 20.2886 16.6755ZM18.5 10.16L11.999 7.993L5.5 10.1589V6C5.50114 5.62977 5.64018 5.27325 5.89 5H18.11C18.3598 5.27325 18.4989 5.62977 18.5 6V10.16ZM14.8677 19.748C13.9907 19.26 13.0036 19.0039 12 19.0039C10.9964 19.0039 10.0093 19.26 9.1323 19.748C8.32574 20.1929 7.42108 20.4298 6.5 20.4375C5.57892 20.4298 4.67426 20.1929 3.8677 19.748C2.98854 19.2649 2.00311 19.0079 1 19V19.5C1.92108 19.5077 2.82574 19.7446 3.6323 20.1895C4.51146 20.6726 5.49689 20.9296 6.5 20.9375C7.50311 20.9296 8.48854 20.6726 9.3677 20.1895C10.1719 19.739 11.0782 19.5024 12 19.5024C12.9218 19.5024 13.8281 19.739 14.6323 20.1895C15.5085 20.68 16.4959 20.9375 17.5 20.9375C18.5041 20.9375 19.4915 20.68 20.3677 20.1895C21.1743 19.7446 22.0789 19.5077 23 19.5V19C21.9969 19.0079 21.0115 19.2649 20.1323 19.748C19.3281 20.1985 18.4218 20.4351 17.5 20.4351C16.5782 20.4351 15.6719 20.1985 14.8677 19.748Z" fill="black"/>
</svg>
