<svg width="24" height="24" viewBox="0 0 24 24" fill="none" xmlns="http://www.w3.org/2000/svg">
<path d="M21.215 6.57632C21.0906 6.23325 20.8632 5.93704 20.5639 5.72826C20.2646 5.51948 19.9081 5.40836 19.5432 5.41012L15.8049 5.41162L15.5781 4.78832L5.3691 1.27832L4.7148 3.16862L11.7072 5.41332L1 5.41772V18.0001H3.5593C3.71953 18.5754 4.06372 19.0823 4.53925 19.4435C5.01479 19.8047 5.5955 20.0002 6.19265 20.0002C6.78979 20.0002 7.37051 19.8047 7.84605 19.4435C8.32158 19.0823 8.66577 18.5754 8.826 18.0001H15.4067C15.5669 18.5754 15.9111 19.0823 16.3867 19.4435C16.8622 19.8047 17.4429 20.0002 18.0401 20.0002C18.6372 20.0002 19.2179 19.8047 19.6934 19.4435C20.169 19.0823 20.5132 18.5754 20.6734 18.0001H23V11.5001L21.215 6.57632ZM6.1927 18.3001C5.98503 18.3001 5.78202 18.2385 5.60935 18.1232C5.43668 18.0078 5.3021 17.8438 5.22263 17.6519C5.14315 17.4601 5.12236 17.249 5.16288 17.0453C5.20339 16.8416 5.30339 16.6545 5.45024 16.5077C5.59708 16.3608 5.78417 16.2608 5.98785 16.2203C6.19153 16.1798 6.40266 16.2006 6.59452 16.28C6.78638 16.3595 6.95037 16.4941 7.06574 16.6668C7.18112 16.8394 7.2427 17.0424 7.2427 17.2501C7.24238 17.5285 7.13166 17.7954 6.93481 17.9922C6.73797 18.1891 6.47108 18.2998 6.1927 18.3001ZM18.04 18.3001C17.8323 18.3001 17.6293 18.2385 17.4567 18.1232C17.284 18.0078 17.1494 17.8438 17.0699 17.6519C16.9905 17.4601 16.9697 17.249 17.0102 17.0453C17.0507 16.8416 17.1507 16.6545 17.2975 16.5077C17.4444 16.3608 17.6315 16.2608 17.8352 16.2203C18.0388 16.1798 18.25 16.2006 18.4418 16.28C18.6337 16.3595 18.7977 16.4941 18.913 16.6668C19.0284 16.8394 19.09 17.0424 19.09 17.2501C19.0897 17.5285 18.979 17.7954 18.7821 17.9923C18.5853 18.1891 18.3184 18.2998 18.04 18.3001ZM2.9 11.5001V7.31012H19.46L20.9787 11.5001H2.9Z" fill="black"/>
</svg>
