<svg width="24" height="24" viewBox="0 0 24 24" fill="none" xmlns="http://www.w3.org/2000/svg">
<path d="M18.8754 15.3544L16.2549 2.25H12.64C12.4411 2.25 12.2503 2.32902 12.1097 2.46967C11.969 2.61032 11.89 2.80109 11.89 3C11.89 3.19891 11.969 3.38968 12.1097 3.53033C12.2503 3.67098 12.4411 3.75 12.64 3.75H15.0248L16.7987 12.62L12.002 17.417H6.05371C5.87215 16.7555 5.4568 16.1824 4.88475 15.8039C4.31269 15.4255 3.62276 15.2674 2.94299 15.359C2.26321 15.4506 1.63974 15.7857 1.18827 16.3021C0.736798 16.8184 0.487976 17.4811 0.487976 18.167C0.487976 18.8529 0.736798 19.5156 1.18827 20.0319C1.63974 20.5483 2.26321 20.8834 2.94299 20.975C3.62276 21.0666 4.31269 20.9085 4.88475 20.5301C5.4568 20.1516 5.87215 19.5785 6.05371 18.917H12.6237L17.1526 14.387L17.4038 15.6429C16.7894 15.9485 16.3067 16.4666 16.0453 17.1011C15.7839 17.7356 15.7615 18.4433 15.9823 19.0931C16.2031 19.7428 16.6521 20.2903 17.246 20.6341C17.8399 20.9779 18.5384 21.0946 19.2118 20.9625C19.8851 20.8304 20.4878 20.4585 20.9078 19.9159C21.3278 19.3732 21.5367 18.6966 21.4957 18.0116C21.4547 17.3266 21.1666 16.6797 20.6848 16.191C20.2031 15.7023 19.5604 15.4049 18.8761 15.3541L18.8754 15.3544ZM3.33331 19.6333C3.04323 19.6333 2.75965 19.5473 2.51846 19.3861C2.27726 19.225 2.08927 18.9959 1.97826 18.7279C1.86725 18.4599 1.8382 18.165 1.89479 17.8805C1.95139 17.5959 2.09108 17.3346 2.2962 17.1295C2.50132 16.9244 2.76266 16.7847 3.04717 16.7281C3.33168 16.6715 3.62659 16.7005 3.89459 16.8115C4.1626 16.9226 4.39166 17.1105 4.55283 17.3517C4.71399 17.5929 4.80001 17.8765 4.80001 18.1666C4.79959 18.5555 4.64492 18.9283 4.36996 19.2032C4.09499 19.4782 3.72217 19.6329 3.33331 19.6333ZM18.6667 19.6333C18.3766 19.6333 18.093 19.5473 17.8518 19.3862C17.6106 19.225 17.4226 18.996 17.3116 18.728C17.2006 18.4599 17.1715 18.165 17.2281 17.8805C17.2847 17.596 17.4243 17.3347 17.6295 17.1295C17.8346 16.9244 18.0959 16.7847 18.3804 16.7281C18.665 16.6715 18.9599 16.7005 19.2279 16.8115C19.4959 16.9225 19.725 17.1105 19.8861 17.3517C20.0473 17.5929 20.1333 17.8765 20.1333 18.1666C20.1329 18.5554 19.9782 18.9282 19.7033 19.2032C19.4283 19.4782 19.0556 19.6329 18.6667 19.6333Z" fill="black"/>
</svg>
