<svg width="24" height="24" viewBox="0 0 24 24" fill="none" xmlns="http://www.w3.org/2000/svg">
<path d="M23 9L21.6654 5.3184C21.5254 4.93213 21.2698 4.59835 20.9334 4.36246C20.597 4.12657 20.1961 4.00001 19.7852 4H1V19H4.5536C4.75347 19.5154 5.10449 19.9583 5.56059 20.2706C6.01669 20.583 6.55656 20.7501 7.10935 20.7501C7.66214 20.7501 8.20201 20.583 8.65811 20.2706C9.11421 19.9583 9.46523 19.5154 9.6651 19H14.8134C15.0181 19.5077 15.3698 19.9426 15.8235 20.2488C16.2772 20.5551 16.812 20.7187 17.3594 20.7187C17.9068 20.7187 18.4416 20.5551 18.8953 20.2488C19.349 19.9426 19.7007 19.5077 19.9054 19H23V9ZM2.8 5.8H19.9254L20.7478 8.0687H2.8V5.8ZM7.1094 19.05C6.90173 19.05 6.69872 18.9884 6.52605 18.873C6.35338 18.7577 6.2188 18.5937 6.13933 18.4018C6.05985 18.21 6.03906 17.9988 6.07958 17.7952C6.12009 17.5915 6.22009 17.4044 6.36694 17.2575C6.51378 17.1107 6.70088 17.0107 6.90456 16.9702C7.10824 16.9297 7.31936 16.9505 7.51122 17.0299C7.70308 17.1094 7.86707 17.244 7.98244 17.4167C8.09782 17.5893 8.1594 17.7923 8.1594 18C8.15908 18.2784 8.04836 18.5453 7.85151 18.7421C7.65467 18.939 7.38778 19.0497 7.1094 19.05ZM17.3594 19.0187C17.1517 19.0187 16.9487 18.9571 16.7761 18.8417C16.6034 18.7264 16.4688 18.5624 16.3893 18.3705C16.3099 18.1787 16.2891 17.9675 16.3296 17.7639C16.3701 17.5602 16.4701 17.3731 16.6169 17.2262C16.7638 17.0794 16.9509 16.9794 17.1546 16.9389C17.3582 16.8984 17.5694 16.9192 17.7612 16.9986C17.9531 17.0781 18.1171 17.2127 18.2324 17.3854C18.3478 17.558 18.4094 17.761 18.4094 17.9687C18.4091 18.2471 18.2984 18.514 18.1015 18.7108C17.9047 18.9077 17.6378 19.0184 17.3594 19.0187ZM21.2 17.2H19.9869C19.8236 16.6292 19.4788 16.1271 19.0047 15.7696C18.5307 15.4122 17.9531 15.2188 17.3594 15.2188C16.7656 15.2188 16.188 15.4122 15.714 15.7696C15.2399 16.1271 14.8951 16.6292 14.7318 17.2H9.7272C9.55884 16.6365 9.21315 16.1424 8.74151 15.7911C8.26987 15.4397 7.69746 15.25 7.10935 15.25C6.52124 15.25 5.94883 15.4397 5.47719 15.7911C5.00555 16.1424 4.65986 16.6365 4.4915 17.2H2.8V13.8687H21.2V17.2ZM21.2 12.0687H2.8V9.8687H21.2V12.0687Z" fill="black"/>
</svg>
