<svg width="24" height="24" viewBox="0 0 24 24" fill="none" xmlns="http://www.w3.org/2000/svg">
<path d="M22.3689 3.98093H20.6667L19.1067 0.981934H17.7161L18.3035 3.98093H16.8574L16.1914 2.96633H15.1914V6.96633H16.1914L16.8574 5.95163H18.3035L17.7161 8.93503H19.1067L20.6667 5.95163H22.3689C22.6285 5.94902 22.8766 5.84405 23.0593 5.65955C23.2419 5.47504 23.3444 5.22591 23.3444 4.96628C23.3444 4.70666 23.2419 4.45752 23.0593 4.27302C22.8766 4.08851 22.6285 3.98355 22.3689 3.98093ZM4.939 15.4566C4.73692 15.4565 4.53934 15.5163 4.37126 15.6285C4.20317 15.7407 4.07214 15.9002 3.99473 16.0869C3.91732 16.2736 3.897 16.479 3.93636 16.6772C3.97572 16.8754 4.07298 17.0575 4.21584 17.2004C4.3587 17.3434 4.54074 17.4407 4.73894 17.4802C4.93713 17.5196 5.14257 17.4994 5.32928 17.4221C5.51599 17.3448 5.67557 17.2138 5.78784 17.0458C5.90011 16.8778 5.96002 16.6802 5.96 16.4781C5.95995 16.2073 5.85238 15.9476 5.66093 15.7561C5.46948 15.5645 5.20982 15.4568 4.939 15.4566ZM11.6884 7.00013H4.3116C3.52007 7.00014 2.7583 7.30185 2.1814 7.84381C1.60451 8.38577 1.25588 9.12724 1.2065 9.91723C1.06883 12.12 1 14.3256 1 16.5339V22.3401C1 22.5152 1.06954 22.6831 1.19331 22.8068C1.31708 22.9306 1.48496 23.0001 1.66 23.0001H2.34C2.51504 23.0001 2.68292 22.9306 2.80669 22.8068C2.93046 22.6831 3 22.5152 3 22.3401V21.0001H13V22.3401C13 22.5152 13.0695 22.6831 13.1933 22.8068C13.3171 22.9306 13.485 23.0001 13.66 23.0001H14.34C14.515 23.0001 14.6829 22.9306 14.8067 22.8068C14.9305 22.6831 15 22.5152 15 22.3401V16.5339C15 14.3267 14.9312 12.1212 14.7935 9.91723C14.7441 9.12724 14.3955 8.38577 13.8186 7.84381C13.2417 7.30185 12.4799 7.00014 11.6884 7.00013ZM3.2026 10.042C3.22067 9.76004 3.34532 9.49547 3.55126 9.30199C3.75721 9.10851 4.02903 9.0006 4.3116 9.00013H11.6884C11.971 9.00059 12.2428 9.10849 12.4487 9.30196C12.6546 9.49542 12.7793 9.75996 12.7974 10.0419C12.8484 10.8589 12.8807 11.6828 12.9126 12.506H3.0874C3.1193 11.6828 3.1516 10.859 3.2026 10.042ZM13 19.0001H3V16.5339C3 15.8607 3.0186 15.1828 3.0317 14.506H12.9683C12.9814 15.1828 13 15.8607 13 16.5339V19.0001ZM11.061 15.4566C10.859 15.4567 10.6615 15.5166 10.4935 15.6289C10.3255 15.7412 10.1946 15.9008 10.1173 16.0874C10.04 16.2741 10.0198 16.4795 10.0593 16.6777C10.0987 16.8759 10.196 17.0579 10.3389 17.2007C10.4818 17.3436 10.6639 17.4408 10.862 17.4802C11.0602 17.5196 11.2656 17.4994 11.4523 17.422C11.6389 17.3447 11.7985 17.2137 11.9107 17.0457C12.0229 16.8777 12.0828 16.6802 12.0828 16.4781C12.0828 16.344 12.0564 16.2111 12.005 16.0871C11.9537 15.9632 11.8784 15.8506 11.7835 15.7557C11.6886 15.6608 11.576 15.5856 11.452 15.5343C11.328 15.483 11.1952 15.4566 11.061 15.4566Z" fill="black"/>
</svg>
