<svg width="24" height="24" viewBox="0 0 24 24" fill="none" xmlns="http://www.w3.org/2000/svg">
<path d="M23 13.4467C23.0028 13.1175 22.9188 12.7933 22.7564 12.5068C22.5941 12.2204 22.3591 11.9818 22.0751 11.8151C20.4111 11.0047 18.5943 10.5562 16.7443 10.4992L14.0319 7.83542C13.3776 7.19279 12.4971 6.83266 11.58 6.83252H9.1341C8.5346 6.83251 7.94115 6.95229 7.38859 7.18483C6.83603 7.41736 6.3355 7.75796 5.9164 8.18662L3.6555 10.4992H2.6C2.17565 10.4992 1.76869 10.6678 1.46863 10.9678C1.16857 11.2679 1 11.6749 1 12.0992V16.2L3.3312 16.7889C3.39715 17.3123 3.64556 17.7956 4.03272 18.1538C4.41988 18.5121 4.92098 18.7223 5.44786 18.7475C5.97474 18.7727 6.49363 18.6113 6.91324 18.2917C7.33284 17.9721 7.62627 17.5147 7.7419 17H16.1168C16.229 17.497 16.5069 17.9411 16.9049 18.2593C17.3029 18.5775 17.7973 18.7508 18.3068 18.7508C18.8163 18.7508 19.3107 18.5775 19.7087 18.2593C20.1067 17.9411 20.3846 17.497 20.4968 17H23V13.4467ZM6.2734 8.53612C6.64665 8.15605 7.09166 7.85389 7.58262 7.64719C8.07358 7.44049 8.6007 7.33336 9.1334 7.33202H11.5787C12.3657 7.33058 13.1216 7.6396 13.6822 8.19202L16.03 10.499H4.3541L6.2734 8.53612ZM5.5521 18.25C5.20598 18.25 4.86764 18.1474 4.57985 17.9551C4.29207 17.7628 4.06776 17.4895 3.93531 17.1697C3.80286 16.8499 3.7682 16.4981 3.83573 16.1586C3.90325 15.8191 4.06992 15.5073 4.31466 15.2626C4.5594 15.0178 4.87123 14.8512 5.21069 14.7836C5.55016 14.7161 5.90203 14.7508 6.2218 14.8832C6.54157 15.0157 6.81488 15.24 7.00717 15.5278C7.19946 15.8156 7.3021 16.1539 7.3021 16.5C7.3016 16.964 7.11706 17.4088 6.78898 17.7369C6.4609 18.065 6.01607 18.2495 5.5521 18.25ZM18.3066 18.25C17.9605 18.25 17.6221 18.1474 17.3344 17.9551C17.0466 17.7628 16.8223 17.4895 16.6898 17.1697C16.5574 16.8499 16.5227 16.4981 16.5902 16.1586C16.6577 15.8191 16.8244 15.5073 17.0692 15.2626C17.3139 15.0178 17.6257 14.8512 17.9652 14.7836C18.3047 14.7161 18.6565 14.7508 18.9763 14.8832C19.2961 15.0157 19.5694 15.24 19.7617 15.5278C19.954 15.8156 20.0566 16.1539 20.0566 16.5C20.0561 16.964 19.8716 17.4088 19.5435 17.7369C19.2154 18.065 18.7706 18.2495 18.3066 18.25ZM22.5 16.5H20.5566C20.5566 15.9033 20.3195 15.331 19.8976 14.909C19.4756 14.4871 18.9033 14.25 18.3066 14.25C17.7099 14.25 17.1376 14.4871 16.7156 14.909C16.2937 15.331 16.0566 15.9033 16.0566 16.5H7.8021C7.80382 15.9235 7.58359 15.3685 7.1871 14.95C6.7906 14.5315 6.24824 14.2816 5.67249 14.2523C5.09674 14.2229 4.53177 14.4162 4.09472 14.7922C3.65768 15.1681 3.38209 15.6978 3.3251 16.2715L1.5 15.8105V12.1C1.50016 11.8082 1.61607 11.5284 1.8223 11.322C2.02852 11.1156 2.30822 10.9994 2.6 10.999H16.7229C18.4926 11.0546 20.2311 11.4804 21.8262 12.249C22.0337 12.372 22.2051 12.5473 22.3234 12.7575C22.4417 12.9676 22.5026 13.2052 22.5 13.4463V16.5Z" fill="black"/>
</svg>
