<svg width="24" height="24" viewBox="0 0 24 24" fill="none" xmlns="http://www.w3.org/2000/svg">
<path d="M23 12L21.9345 9.2723C21.7881 8.89741 21.5319 8.57542 21.1996 8.34843C20.8672 8.12144 20.4741 8 20.0716 8H17V7C17 6.73478 16.8946 6.48043 16.7071 6.29289C16.5196 6.10536 16.2652 6 16 6H2C1.73478 6 1.48043 6.10536 1.29289 6.29289C1.10536 6.48043 1 6.73478 1 7V18H3.4731C3.53112 18.483 3.76414 18.928 4.12807 19.2508C4.492 19.5737 4.96162 19.7519 5.4481 19.7519C5.93458 19.7519 6.4042 19.5737 6.76813 19.2508C7.13206 18.928 7.36508 18.483 7.4231 18H17.47C17.528 18.483 17.761 18.928 18.125 19.2508C18.4889 19.5737 18.9585 19.7519 19.445 19.7519C19.9315 19.7519 20.4011 19.5737 20.765 19.2508C21.129 18.928 21.362 18.483 21.42 18H23V12ZM17 8.5H20.0716C20.3737 8.49878 20.6691 8.58936 20.9186 8.75976C21.1681 8.93016 21.36 9.17233 21.4688 9.4542L22.4632 12H17V8.5ZM5.4479 19.25C5.15123 19.25 4.86122 19.162 4.61454 18.9972C4.36787 18.8324 4.17561 18.5981 4.06208 18.324C3.94855 18.0499 3.91884 17.7483 3.97672 17.4574C4.0346 17.1664 4.17746 16.8991 4.38724 16.6893C4.59702 16.4796 4.86429 16.3367 5.15526 16.2788C5.44624 16.2209 5.74784 16.2507 6.02192 16.3642C6.29601 16.4777 6.53028 16.67 6.6951 16.9166C6.85993 17.1633 6.9479 17.4533 6.9479 17.75C6.94745 18.1477 6.78927 18.529 6.50806 18.8102C6.22686 19.0914 5.84559 19.2495 5.4479 19.25ZM16.5 17.5H7.4227C7.36468 17.017 7.13166 16.572 6.76773 16.2492C6.4038 15.9263 5.93418 15.7481 5.4477 15.7481C4.96122 15.7481 4.4916 15.9263 4.12767 16.2492C3.76374 16.572 3.53072 17.017 3.4727 17.5H1.5V7C1.5 6.86739 1.55268 6.74021 1.64645 6.64645C1.74021 6.55268 1.86739 6.5 2 6.5H16C16.1326 6.5 16.2598 6.55268 16.3536 6.64645C16.4473 6.74021 16.5 6.86739 16.5 7V17.5ZM19.4446 19.25C19.1479 19.25 18.8579 19.162 18.6112 18.9972C18.3646 18.8324 18.1723 18.5981 18.0588 18.324C17.9452 18.0499 17.9155 17.7483 17.9734 17.4574C18.0313 17.1664 18.1742 16.8991 18.3839 16.6893C18.5937 16.4796 18.861 16.3367 19.152 16.2788C19.4429 16.2209 19.7445 16.2507 20.0186 16.3642C20.2927 16.4777 20.527 16.67 20.6918 16.9166C20.8566 17.1633 20.9446 17.4533 20.9446 17.75C20.9441 18.1477 20.7859 18.5289 20.5047 18.8101C20.2235 19.0913 19.8423 19.2495 19.4446 19.25ZM22.5 17.5H21.4194C21.3614 17.017 21.1284 16.572 20.7644 16.2492C20.4005 15.9263 19.9309 15.7481 19.4444 15.7481C18.9579 15.7481 18.4883 15.9263 18.1244 16.2492C17.7604 16.572 17.5274 17.017 17.4694 17.5H17V12.5H22.5V17.5Z" fill="black"/>
</svg>
