<svg width="24" height="24" viewBox="0 0 24 24" fill="none" xmlns="http://www.w3.org/2000/svg">
<path d="M14.7842 9.8131C14.7457 9.20879 14.5127 8.63315 14.12 8.17222C13.7273 7.71128 13.196 7.38979 12.6055 7.2558C12.2854 7.18274 11.9582 7.14584 11.6299 7.1458H4.3716C4.04564 7.14576 3.72068 7.18168 3.4026 7.2529C2.81026 7.38569 2.27695 7.70697 1.88266 8.16854C1.48838 8.63011 1.2544 9.20708 1.2158 9.8129C1.0784 11.9055 1.0067 14.0008 1.0007 16.0989C1 16.2034 1 22.3402 1 22.3402C1 22.5152 1.06954 22.6831 1.19331 22.8069C1.31708 22.9307 1.48496 23.0002 1.66 23.0002H2.34C2.51504 23.0002 2.68292 22.9307 2.80669 22.8069C2.93046 22.6831 3 22.5152 3 22.3402V21.146H13V22.3402C13 22.5152 13.0695 22.6831 13.1933 22.8069C13.3171 22.9307 13.485 23.0002 13.66 23.0002H14.34C14.515 23.0002 14.6829 22.9307 14.8067 22.8069C14.9305 22.6831 15 22.5152 15 22.3402C15 22.3402 15 16.2159 14.9994 16.1179C14.9937 14.0146 14.922 11.913 14.7842 9.8131ZM3.9326 18.3273C3.73054 18.3273 3.53302 18.2674 3.365 18.1552C3.19699 18.0429 3.06603 17.8834 2.98869 17.6967C2.91136 17.51 2.89111 17.3046 2.93052 17.1065C2.96993 16.9083 3.06722 16.7262 3.21008 16.5834C3.35295 16.4405 3.53499 16.3432 3.73316 16.3037C3.93133 16.2643 4.13675 16.2845 4.32343 16.3619C4.51011 16.4392 4.66966 16.5701 4.78192 16.7381C4.89418 16.9061 4.9541 17.1036 4.9541 17.3057C4.95411 17.4398 4.9277 17.5727 4.87637 17.6966C4.82504 17.8206 4.7498 17.9332 4.65494 18.0281C4.56009 18.1229 4.44747 18.1982 4.32353 18.2495C4.19959 18.3009 4.06675 18.3273 3.9326 18.3273ZM12.0674 18.3273C11.8653 18.3273 11.6678 18.2674 11.4998 18.1552C11.3318 18.0429 11.2008 17.8834 11.1235 17.6967C11.0462 17.51 11.0259 17.3046 11.0653 17.1065C11.1047 16.9083 11.202 16.7262 11.3449 16.5834C11.4878 16.4405 11.6698 16.3432 11.868 16.3037C12.0661 16.2643 12.2715 16.2845 12.4582 16.3619C12.6449 16.4392 12.8045 16.5701 12.9167 16.7381C13.029 16.9061 13.0889 17.1036 13.0889 17.3057C13.0889 17.4398 13.0625 17.5727 13.0112 17.6966C12.9598 17.8206 12.8846 17.9332 12.7897 18.0281C12.6949 18.1229 12.5823 18.1982 12.4583 18.2495C12.3344 18.3009 12.2016 18.3273 12.0674 18.3273ZM2.5342 14.3335C2.5652 12.8553 2.6167 11.3751 2.7126 9.9082C2.73619 9.56624 2.88846 9.24592 3.13874 9.01173C3.38902 8.77753 3.71873 8.64685 4.0615 8.646H11.9385C12.2812 8.64687 12.6109 8.77755 12.8612 9.01172C13.1115 9.24589 13.2638 9.56617 13.2874 9.9081C13.3833 11.3751 13.4348 12.8553 13.4658 14.3335H2.5342ZM19.75 4.2085H21.5L19 1.7085L16.5 4.2085H18.25V7.7918H16.5L19 10.2918L21.5 7.7918H19.75V4.2085Z" fill="black"/>
</svg>
