<svg width="24" height="24" viewBox="0 0 24 24" fill="none" xmlns="http://www.w3.org/2000/svg">
<path d="M21.1235 13.3873C21.1249 13.0679 21.0453 12.7534 20.892 12.4731C20.7388 12.1929 20.517 11.9561 20.2473 11.7849C19.3439 11.2164 18.3622 10.7832 17.3333 10.4992L14.7349 7.76562C14.4546 7.4708 14.1173 7.23605 13.7435 7.07564C13.3698 6.91523 12.9672 6.83252 12.5605 6.83252H4.89577L3.06677 10.1536C2.94207 10.3803 2.87671 10.6349 2.87677 10.8936V16.2L3.68757 16.5222C3.69244 17.073 3.89945 17.6027 4.26927 18.0109C4.63909 18.419 5.14596 18.6771 5.69356 18.7361C6.24117 18.795 6.79135 18.6508 7.23959 18.3307C7.68782 18.0107 8.00287 17.5371 8.12487 17H15.7576C15.8698 17.497 16.1477 17.9411 16.5457 18.2593C16.9437 18.5775 17.438 18.7508 17.9476 18.7508C18.4571 18.7508 18.9515 18.5775 19.3495 18.2593C19.7475 17.9411 20.0254 17.497 20.1376 17H21.1239L21.1235 13.3873ZM3.50477 10.3948L5.19127 7.33252H12.5605C12.8993 7.33313 13.2346 7.40234 13.546 7.53598C13.8574 7.66962 14.1386 7.86492 14.3725 8.11012L16.6434 10.4991H3.46337C3.47527 10.4636 3.48909 10.4288 3.50477 10.3948ZM5.93477 18.25C5.58865 18.25 5.25031 18.1474 4.96252 17.9551C4.67474 17.7628 4.45043 17.4895 4.31798 17.1697C4.18553 16.8499 4.15087 16.4981 4.2184 16.1586C4.28592 15.8191 4.45259 15.5073 4.69733 15.2626C4.94207 15.0178 5.2539 14.8512 5.59336 14.7836C5.93283 14.7161 6.2847 14.7508 6.60447 14.8832C6.92424 15.0157 7.19755 15.24 7.38984 15.5278C7.58213 15.8156 7.68477 16.1539 7.68477 16.5C7.68427 16.9639 7.49977 17.4087 7.17176 17.7368C6.84374 18.0649 6.39899 18.2494 5.93507 18.25H5.93477ZM17.9471 18.25C17.601 18.25 17.2626 18.1474 16.9748 17.9551C16.687 17.7628 16.4627 17.4895 16.3303 17.1697C16.1978 16.8499 16.1632 16.4981 16.2307 16.1586C16.2982 15.8191 16.4649 15.5073 16.7096 15.2626C16.9544 15.0178 17.2662 14.8512 17.6057 14.7836C17.9451 14.7161 18.297 14.7508 18.6168 14.8832C18.9365 15.0157 19.2098 15.24 19.4021 15.5278C19.5944 15.8156 19.6971 16.1539 19.6971 16.5C19.6966 16.9639 19.5121 17.4087 19.1841 17.7368C18.856 18.0649 18.4113 18.2494 17.9474 18.25H17.9471ZM20.6232 16.5H20.1971C20.1971 15.9033 19.96 15.331 19.5381 14.909C19.1161 14.4871 18.5438 14.25 17.9471 14.25C17.3503 14.25 16.778 14.4871 16.3561 14.909C15.9341 15.331 15.6971 15.9033 15.6971 16.5H8.18507C8.18546 15.9465 7.98162 15.4123 7.6126 14.9997C7.24358 14.5871 6.73532 14.3251 6.18517 14.264C5.63502 14.2029 5.08165 14.3468 4.63105 14.6683C4.18046 14.9899 3.86431 15.4663 3.74317 16.0064L3.37647 15.8607V10.9991H17.2559C18.2167 11.2705 19.134 11.6774 19.98 12.2076C20.1785 12.3335 20.3418 12.5079 20.4543 12.7144C20.5669 12.9208 20.625 13.1525 20.6232 13.3876V16.5Z" fill="black"/>
</svg>
