<svg width="24" height="24" viewBox="0 0 24 24" fill="none" xmlns="http://www.w3.org/2000/svg">
<path d="M23 13.7478C22.9998 13.3951 22.9016 13.0493 22.7163 12.7491C22.531 12.4489 22.2659 12.2061 21.9506 12.0478C20.2681 11.2197 18.4454 10.714 16.5768 10.5566L13.1328 6.82373H12.5528L15.6812 10.4994H11.3965L10.5165 9.14463C10.3934 8.95511 10.2123 8.81047 10.0002 8.73227C9.78821 8.65408 9.55657 8.64651 9.33988 8.71071C9.12319 8.77491 8.93305 8.90743 8.79782 9.08851C8.6626 9.26959 8.58952 9.48953 8.5895 9.71553V10.4994H2.6C2.17565 10.4994 1.76869 10.668 1.46863 10.9681C1.16857 11.2681 1 11.6751 1 12.0994V16.2002L3.3313 16.7891C3.39731 17.3124 3.64574 17.7957 4.03288 18.1539C4.42003 18.512 4.92109 18.7222 5.44792 18.7475C5.97475 18.7727 6.4936 18.6113 6.91318 18.2917C7.33277 17.9721 7.62622 17.5148 7.7419 17.0002H16.1167C16.2289 17.4973 16.5068 17.9413 16.9048 18.2595C17.3028 18.5777 17.7972 18.751 18.3067 18.751C18.8162 18.751 19.3106 18.5777 19.7086 18.2595C20.1066 17.9413 20.3845 17.4973 20.4967 17.0002H23V13.7478ZM9.06 9.71543C9.06004 9.59083 9.10033 9.46957 9.17488 9.36973C9.24943 9.26989 9.35424 9.19681 9.4737 9.16137C9.59316 9.12594 9.72087 9.13005 9.8378 9.17309C9.95473 9.21613 10.0546 9.2958 10.1226 9.40023L10.8362 10.499H9.06V9.71543ZM5.5521 18.2502C5.20598 18.2502 4.86764 18.1476 4.57985 17.9553C4.29207 17.763 4.06776 17.4897 3.93531 17.1699C3.80286 16.8502 3.7682 16.4983 3.83573 16.1588C3.90325 15.8194 4.06992 15.5075 4.31466 15.2628C4.5594 15.0181 4.87123 14.8514 5.21069 14.7839C5.55016 14.7163 5.90203 14.751 6.2218 14.8834C6.54157 15.0159 6.81488 15.2402 7.00717 15.528C7.19946 15.8158 7.3021 16.1541 7.3021 16.5002C7.30157 16.9642 7.11703 17.409 6.78895 17.7371C6.46088 18.0652 6.01607 18.2497 5.5521 18.2502ZM18.3065 18.2502C17.9604 18.2502 17.622 18.1476 17.3343 17.9553C17.0465 17.763 16.8222 17.4897 16.6897 17.1699C16.5573 16.8502 16.5226 16.4983 16.5901 16.1588C16.6576 15.8194 16.8243 15.5075 17.0691 15.2628C17.3138 15.0181 17.6256 14.8514 17.9651 14.7839C18.3046 14.7163 18.6564 14.751 18.9762 14.8834C19.296 15.0159 19.5693 15.2402 19.7616 15.528C19.9539 15.8158 20.0565 16.1541 20.0565 16.5002C20.056 16.9642 19.8714 17.409 19.5434 17.7371C19.2153 18.0652 18.7705 18.2497 18.3065 18.2502ZM22.5 16.5002H20.5565C20.5565 15.9035 20.3194 15.3312 19.8975 14.9092C19.4755 14.4873 18.9032 14.2502 18.3065 14.2502C17.7098 14.2502 17.1375 14.4873 16.7155 14.9092C16.2936 15.3312 16.0565 15.9035 16.0565 16.5002H7.8021C7.8035 15.9239 7.58312 15.3692 7.18663 14.9509C6.79015 14.5327 6.24795 14.283 5.67239 14.2537C5.09684 14.2243 4.53205 14.4176 4.09508 14.7933C3.6581 15.169 3.38243 15.6985 3.3252 16.2719L1.5 15.8108V12.0994C1.50032 11.8078 1.61631 11.5282 1.82253 11.322C2.02875 11.1157 2.30836 10.9997 2.6 10.9994H15.3412C17.5549 11.0072 19.7378 11.5183 21.7249 12.494C21.9579 12.6103 22.1539 12.7892 22.2908 13.0107C22.4277 13.2321 22.5002 13.4874 22.5 13.7478V16.5002Z" fill="black"/>
</svg>
