<svg width="24" height="24" viewBox="0 0 24 24" fill="none" xmlns="http://www.w3.org/2000/svg">
<path d="M22.9976 12.1782C21.5727 11.7448 20.0934 11.5162 18.6041 11.4991L16.5314 8.65472C16.3458 8.40001 16.1026 8.19277 15.8217 8.04988C15.5408 7.907 15.2302 7.83252 14.915 7.83252H11.5156L11.474 11.4991H0V16.5L3.6931 16.9161C3.6921 16.9446 3.6847 16.9713 3.6847 17C3.6847 17.3415 3.75195 17.6795 3.88261 17.995C4.01328 18.3104 4.20479 18.5971 4.44622 18.8385C4.68765 19.0799 4.97428 19.2714 5.28972 19.4021C5.60517 19.5328 5.94326 19.6 6.2847 19.6C6.62614 19.6 6.96423 19.5328 7.27968 19.4021C7.59512 19.2714 7.88175 19.0799 8.12318 18.8385C8.36461 18.5971 8.55612 18.3104 8.68679 17.995C8.81745 17.6795 8.8847 17.3415 8.8847 17H17.177C17.177 17.3415 17.2442 17.6795 17.3749 17.995C17.5056 18.3104 17.6971 18.5971 17.9385 18.8385C18.18 19.0799 18.4666 19.2714 18.782 19.4021C19.0975 19.5328 19.4356 19.6 19.777 19.6C20.1184 19.6 20.4565 19.5328 20.772 19.4021C21.0874 19.2714 21.374 19.0799 21.6155 18.8385C21.8569 18.5971 22.0484 18.3104 22.1791 17.995C22.3097 17.6795 22.377 17.3415 22.377 17H24V13.5211C24 13.2191 23.9024 12.9253 23.7217 12.6833C23.5411 12.4413 23.2871 12.2641 22.9976 12.1782ZM6.2847 19.1C5.86936 19.1 5.46335 18.9769 5.118 18.7461C4.77266 18.5154 4.5035 18.1874 4.34455 17.8037C4.18561 17.4199 4.14402 16.9977 4.22505 16.5903C4.30608 16.183 4.50609 15.8088 4.79978 15.5151C5.09347 15.2214 5.46765 15.0214 5.87501 14.9404C6.28237 14.8593 6.70461 14.9009 7.08834 15.0599C7.47206 15.2188 7.80004 15.488 8.03079 15.8333C8.26154 16.1787 8.3847 16.5847 8.3847 17C8.38409 17.5568 8.16265 18.0906 7.76895 18.4843C7.37526 18.878 6.84147 19.0994 6.2847 19.1ZM11.9741 11.4991L12.01 8.33252H14.915C15.1513 8.3329 15.3842 8.38892 15.5948 8.49604C15.8054 8.60316 15.9878 8.75838 16.1273 8.94912L17.9855 11.4991H11.9741ZM19.7769 19.1C19.3616 19.1 18.9555 18.9769 18.6102 18.7461C18.2649 18.5154 17.9957 18.1874 17.8368 17.8037C17.6778 17.4199 17.6362 16.9977 17.7173 16.5903C17.7983 16.183 17.9983 15.8088 18.292 15.5151C18.5857 15.2214 18.9599 15.0214 19.3672 14.9404C19.7746 14.8593 20.1968 14.9009 20.5805 15.0599C20.9643 15.2188 21.2922 15.488 21.523 15.8333C21.7537 16.1787 21.8769 16.5847 21.8769 17C21.8763 17.5568 21.6548 18.0906 21.2612 18.4843C20.8675 18.878 20.3337 19.0994 19.7769 19.1Z" fill="black"/>
</svg>
