<svg width="24" height="24" viewBox="0 0 24 24" fill="none" xmlns="http://www.w3.org/2000/svg">
<path d="M23 12.0002L21.7561 8.6392C21.6143 8.25605 21.3585 7.92553 21.0232 7.6921C20.6879 7.45867 20.2892 7.33352 19.8806 7.3335H16.647V6.3335C16.647 6.06828 16.5416 5.81393 16.3541 5.62639C16.1666 5.43885 15.9122 5.3335 15.647 5.3335H2C1.73478 5.3335 1.48043 5.43885 1.29289 5.62639C1.10536 5.81393 1 6.06828 1 6.3335V18.0002H3.8494C4.00611 18.5071 4.32102 18.9505 4.74802 19.2654C5.17501 19.5803 5.69163 19.7503 6.2222 19.7503C6.75277 19.7503 7.26939 19.5803 7.69638 19.2654C8.12338 18.9505 8.43829 18.5071 8.595 18.0002H16.275C16.4317 18.5071 16.7466 18.9505 17.1736 19.2654C17.6006 19.5803 18.1172 19.7503 18.6478 19.7503C19.1784 19.7503 19.695 19.5803 20.122 19.2654C20.549 18.9505 20.8639 18.5071 21.0206 18.0002H23V12.0002ZM16.647 8.7002H19.8806C20.0087 8.69985 20.1339 8.73851 20.2395 8.81103C20.345 8.88356 20.4261 8.98651 20.4717 9.1062L21.2443 11.1919H16.647V8.7002ZM6.2222 18.4502C5.98486 18.4502 5.75285 18.3798 5.55552 18.248C5.35818 18.1161 5.20437 17.9287 5.11354 17.7094C5.02272 17.4901 4.99896 17.2489 5.04526 17.0161C5.09156 16.7833 5.20585 16.5695 5.37367 16.4017C5.54149 16.2338 5.75531 16.1196 5.98809 16.0733C6.22087 16.027 6.46215 16.0507 6.68142 16.1415C6.90069 16.2324 7.08811 16.3862 7.21996 16.5835C7.35182 16.7809 7.4222 17.0129 7.4222 17.2502C7.42186 17.5684 7.29532 17.8734 7.07035 18.0983C6.84538 18.3233 6.54035 18.4499 6.2222 18.4502ZM15.28 7.3335H15.2774V16.6335H8.6364C8.50142 16.0954 8.19056 15.6179 7.75317 15.2766C7.31579 14.9354 6.77694 14.7501 6.2222 14.7501C5.66746 14.7501 5.12861 14.9354 4.69123 15.2766C4.25384 15.6179 3.94298 16.0954 3.808 16.6335H2.3666V6.7002H15.28V7.3335ZM18.6482 18.4502C18.4109 18.4502 18.1789 18.3798 17.9815 18.248C17.7842 18.1161 17.6304 17.9287 17.5395 17.7094C17.4487 17.4901 17.425 17.2489 17.4713 17.0161C17.5176 16.7833 17.6318 16.5695 17.7997 16.4017C17.9675 16.2338 18.1813 16.1196 18.4141 16.0733C18.6469 16.027 18.8881 16.0507 19.1074 16.1415C19.3267 16.2324 19.5141 16.3862 19.646 16.5835C19.7778 16.7809 19.8482 17.0129 19.8482 17.2502C19.8479 17.5684 19.7213 17.8734 19.4963 18.0983C19.2714 18.3233 18.9664 18.4499 18.6482 18.4502ZM21.6334 16.6335H21.0624C20.948 16.1755 20.7056 15.7595 20.3635 15.4343C20.0214 15.109 19.5937 14.8879 19.1305 14.7968C18.6673 14.7058 18.1877 14.7485 17.7479 14.92C17.3081 15.0915 16.9263 15.3847 16.647 15.7653V12.5585H21.6334V16.6335Z" fill="black"/>
</svg>
