<svg width="24" height="24" viewBox="0 0 24 24" fill="none" xmlns="http://www.w3.org/2000/svg">
<path d="M5.125 18C4.72944 18 4.34276 18.1173 4.01386 18.3371C3.68496 18.5568 3.42862 18.8692 3.27724 19.2346C3.12587 19.6001 3.08626 20.0022 3.16343 20.3902C3.2406 20.7781 3.43108 21.1345 3.71079 21.4142C3.99049 21.6939 4.34686 21.8844 4.73482 21.9616C5.12278 22.0387 5.52492 21.9991 5.89037 21.8478C6.25582 21.6964 6.56818 21.44 6.78794 21.1111C7.0077 20.7822 7.125 20.3956 7.125 20C7.125 19.4696 6.91429 18.9609 6.53921 18.5858C6.16414 18.2107 5.65543 18 5.125 18ZM5.125 21C4.92722 21 4.73388 20.9414 4.56943 20.8315C4.40498 20.7216 4.27681 20.5654 4.20112 20.3827C4.12543 20.2 4.10563 19.9989 4.14422 19.8049C4.1828 19.6109 4.27804 19.4327 4.41789 19.2929C4.55775 19.153 4.73593 19.0578 4.92991 19.0192C5.12389 18.9806 5.32496 19.0004 5.50768 19.0761C5.69041 19.1518 5.84659 19.28 5.95647 19.4444C6.06635 19.6089 6.125 19.8022 6.125 20C6.12471 20.2651 6.01926 20.5193 5.83179 20.7068C5.64431 20.8943 5.39013 20.9997 5.125 21ZM9.8334 18C9.43784 18 9.05116 18.1173 8.72226 18.3371C8.39336 18.5568 8.13702 18.8692 7.98564 19.2346C7.83427 19.6001 7.79466 20.0022 7.87183 20.3902C7.949 20.7781 8.13948 21.1345 8.41919 21.4142C8.69889 21.6939 9.05526 21.8844 9.44322 21.9616C9.83118 22.0387 10.2333 21.9991 10.5988 21.8478C10.9642 21.6964 11.2766 21.44 11.4963 21.1111C11.7161 20.7822 11.8334 20.3956 11.8334 20C11.8334 19.7374 11.7817 19.4773 11.6812 19.2346C11.5807 18.992 11.4333 18.7715 11.2476 18.5858C11.0619 18.4001 10.8414 18.2528 10.5988 18.1522C10.3561 18.0517 10.096 18 9.8334 18ZM9.8334 21C9.63562 21 9.44228 20.9414 9.27783 20.8315C9.11338 20.7216 8.98521 20.5654 8.90952 20.3827C8.83383 20.2 8.81403 19.9989 8.85262 19.8049C8.8912 19.6109 8.98644 19.4327 9.12629 19.2929C9.26615 19.153 9.44433 19.0578 9.63831 19.0192C9.83229 18.9806 10.0334 19.0004 10.2161 19.0761C10.3988 19.1518 10.555 19.28 10.6649 19.4444C10.7748 19.6089 10.8334 19.8022 10.8334 20C10.8331 20.2651 10.7277 20.5193 10.5402 20.7068C10.3527 20.8943 10.0985 20.9997 9.8334 21ZM14.5416 18C14.146 18 13.7594 18.1173 13.4305 18.3371C13.1016 18.5568 12.8452 18.8692 12.6938 19.2346C12.5425 19.6001 12.5029 20.0022 12.58 20.3902C12.6572 20.7781 12.8477 21.1345 13.1274 21.4142C13.4071 21.6939 13.7635 21.8844 14.1514 21.9616C14.5394 22.0387 14.9415 21.9991 15.307 21.8478C15.6724 21.6964 15.9848 21.44 16.2045 21.1111C16.4243 20.7822 16.5416 20.3956 16.5416 20C16.5416 19.7374 16.4899 19.4773 16.3894 19.2346C16.2888 18.992 16.1415 18.7715 15.9558 18.5858C15.7701 18.4001 15.5496 18.2528 15.307 18.1522C15.0643 18.0517 14.8042 18 14.5416 18ZM14.5416 21C14.3438 21 14.1505 20.9414 13.986 20.8315C13.8216 20.7216 13.6934 20.5654 13.6177 20.3827C13.542 20.2 13.5222 19.9989 13.5608 19.8049C13.5994 19.6109 13.6946 19.4327 13.8345 19.2929C13.9743 19.153 14.1525 19.0578 14.3465 19.0192C14.5405 18.9806 14.7416 19.0004 14.9243 19.0761C15.107 19.1518 15.2632 19.28 15.3731 19.4444C15.483 19.6089 15.5416 19.8022 15.5416 20C15.5413 20.2651 15.4359 20.5193 15.2484 20.7068C15.0609 20.8943 14.8067 20.9997 14.5416 21ZM19.25 18C18.8544 18 18.4678 18.1173 18.1389 18.3371C17.81 18.5568 17.5536 18.8692 17.4022 19.2346C17.2509 19.6001 17.2113 20.0022 17.2884 20.3902C17.3656 20.7781 17.5561 21.1345 17.8358 21.4142C18.1155 21.6939 18.4719 21.8844 18.8598 21.9616C19.2478 22.0387 19.6499 21.9991 20.0154 21.8478C20.3808 21.6964 20.6932 21.44 20.9129 21.1111C21.1327 20.7822 21.25 20.3956 21.25 20C21.25 19.4696 21.0393 18.9609 20.6642 18.5858C20.2891 18.2107 19.7804 18 19.25 18ZM19.25 21C19.0522 21 18.8589 20.9414 18.6944 20.8315C18.53 20.7216 18.4018 20.5654 18.3261 20.3827C18.2504 20.2 18.2306 19.9989 18.2692 19.8049C18.3078 19.6109 18.403 19.4327 18.5429 19.2929C18.6827 19.153 18.8609 19.0578 19.0549 19.0192C19.2489 18.9806 19.45 19.0004 19.6327 19.0761C19.8154 19.1518 19.9716 19.28 20.0815 19.4444C20.1914 19.6089 20.25 19.8022 20.25 20C20.2497 20.2651 20.1443 20.5193 19.9568 20.7068C19.7693 20.8943 19.5151 20.9997 19.25 21ZM6.7064 17H20L20.6311 13.9291C20.7747 13.2249 20.6463 12.4925 20.2719 11.879C19.8975 11.2655 19.3047 10.8166 18.6128 10.6223L13.3328 9.1666V2H10.7546C10.4566 1.99997 10.1615 2.05985 9.8871 2.17608C9.61265 2.29231 9.36437 2.46252 9.157 2.6766L7.875 4H4V14.2936C4 15.0114 4.28514 15.6998 4.79269 16.2073C5.30024 16.7149 5.98862 17 6.7064 17ZM5 5H8.0161L8.1687 4.8986L8.7972 4.4852L9.4012 3.8617C9.4226 3.8397 9.4692 3.7932 9.4921 3.7729C9.79027 3.49519 10.156 3.30048 10.5529 3.2082L11.5005 3H12.3333V9.9175L12.6785 10.0129L14.0051 10.3796L18.1165 11.5166C18.3766 11.5882 18.6238 11.7001 18.8494 11.848C19.133 12.0333 19.3589 12.2946 19.5012 12.602C19.6435 12.9095 19.6966 13.2507 19.6543 13.5869C19.6604 13.6361 19.5769 14.0648 19.5675 14.1159L19.1758 16H6.7064C6.47484 16.0013 6.24619 15.9484 6.03871 15.8455C5.83124 15.7427 5.65069 15.5928 5.5115 15.4077C5.17801 14.955 4.99871 14.4072 5 13.8449V5Z" fill="black"/>
</svg>
