<svg width="24" height="24" viewBox="0 0 24 24" fill="none" xmlns="http://www.w3.org/2000/svg">
<path d="M9.22922 6.72939C9.77638 6.72885 10.3107 6.56363 10.7626 6.25522C11.2146 5.94681 11.5632 5.50949 11.7632 5.00019H12.3232L13.5 4.14399L14.5 5.00019L15.5 4.14399L16.5 5.00019L17.5 4.14399V3.00019H11.7632C11.581 2.53907 11.2765 2.13636 10.8825 1.83537C10.4885 1.53438 10.0199 1.3465 9.52711 1.29195C9.03431 1.2374 8.53595 1.31823 8.08566 1.52575C7.63537 1.73328 7.25017 2.05964 6.97151 2.46974C6.69285 2.87984 6.53126 3.35815 6.50414 3.85322C6.47702 4.34829 6.58538 4.84139 6.81758 5.27947C7.04977 5.71756 7.39701 6.08405 7.82194 6.33952C8.24687 6.59499 8.73341 6.72978 9.22922 6.72939ZM8.27782 3.25019C8.42616 3.25019 8.57116 3.29418 8.6945 3.37659C8.81784 3.459 8.91397 3.57613 8.97073 3.71318C9.0275 3.85022 9.04235 4.00102 9.01341 4.14651C8.98447 4.29199 8.91304 4.42563 8.80815 4.53052C8.70326 4.63541 8.56963 4.70684 8.42414 4.73578C8.27865 4.76472 8.12785 4.74987 7.99081 4.6931C7.85377 4.63633 7.73663 4.54021 7.65422 4.41687C7.57181 4.29353 7.52782 4.14853 7.52782 4.00019C7.52782 3.80128 7.60684 3.61051 7.74749 3.46986C7.88814 3.32921 8.07891 3.25019 8.27782 3.25019ZM21.1426 14.0002H19.0173C18.8309 12.7638 18.5602 11.5417 18.2073 10.3422C18.1007 9.97986 17.886 9.65872 17.5919 9.42172C17.2978 9.18472 16.9383 9.04317 16.5616 9.01599C16.5151 9.00559 16.1841 9.00019 16.1345 9.00019C16.1345 9.00019 7.49322 9.00469 7.45022 9.01339C7.07117 9.03872 6.709 9.1797 6.41257 9.41731C6.11615 9.65492 5.89973 9.97773 5.79252 10.3422C5.43966 11.5417 5.1691 12.7639 4.98272 14.0002H2.85742V15.403L4.74612 16.0589C4.69852 16.6938 4.67266 17.3304 4.66852 17.9689C4.66722 18.0331 4.66672 21.9343 4.66672 21.9343C4.66672 22.1093 4.73626 22.2772 4.86003 22.401C4.98381 22.5248 5.15168 22.5943 5.32672 22.5943H5.96782C6.14286 22.5943 6.31074 22.5248 6.43451 22.401C6.55829 22.2772 6.62782 22.1093 6.62782 21.9343V21.0002H17.376V21.9339C17.376 22.1089 17.4456 22.2768 17.5693 22.4006C17.6931 22.5244 17.861 22.5939 18.036 22.5939H18.6732C18.7599 22.5939 18.8457 22.5768 18.9258 22.5437C19.0059 22.5105 19.0786 22.4619 19.1399 22.4006C19.2012 22.3393 19.2498 22.2665 19.283 22.1865C19.3162 22.1064 19.3332 22.0206 19.3332 21.9339C19.3332 21.9339 19.3325 18.0346 19.3315 17.9715C19.3281 17.3326 19.3022 16.6951 19.2536 16.0588L21.1423 15.403L21.1426 14.0002ZM7.18262 10.7531C7.20577 10.6734 7.25275 10.6027 7.31725 10.5505C7.38174 10.4983 7.46067 10.4671 7.54342 10.4611L16.458 10.4621C16.5402 10.4686 16.6185 10.4999 16.6825 10.5518C16.7465 10.6038 16.7932 10.674 16.8164 10.7531C17.1279 11.8188 17.3709 12.9034 17.5439 14.0002H6.45632C6.62892 12.9034 6.87169 11.8188 7.18312 10.7531H7.18262ZM7.38572 18.1607C7.18366 18.1607 6.98614 18.1008 6.81812 17.9886C6.65011 17.8763 6.51915 17.7168 6.44182 17.5301C6.36448 17.3434 6.34423 17.138 6.38364 16.9398C6.42305 16.7417 6.52034 16.5596 6.66321 16.4167C6.80608 16.2739 6.98811 16.1766 7.18628 16.1371C7.38445 16.0977 7.58987 16.1179 7.77655 16.1952C7.96323 16.2726 8.12279 16.4035 8.23504 16.5715C8.3473 16.7395 8.40722 16.937 8.40722 17.1391C8.40725 17.4099 8.29971 17.6697 8.10824 17.8613C7.91678 18.0529 7.65707 18.1606 7.38622 18.1607H7.38572ZM16.6133 18.1607C16.4113 18.1607 16.2138 18.1007 16.0458 17.9885C15.8778 17.8762 15.7469 17.7166 15.6696 17.53C15.5923 17.3433 15.572 17.1379 15.6115 16.9397C15.6509 16.7416 15.7482 16.5595 15.8911 16.4167C16.034 16.2738 16.216 16.1765 16.4142 16.1371C16.6123 16.0977 16.8177 16.1179 17.0044 16.1953C17.1911 16.2726 17.3506 16.4035 17.4629 16.5715C17.5751 16.7395 17.635 16.937 17.635 17.1391C17.635 17.41 17.5274 17.6697 17.3359 17.8613C17.1444 18.0529 16.8847 18.1606 16.6138 18.1607H16.6133Z" fill="black"/>
</svg>
