<svg width="24" height="24" viewBox="0 0 24 24" fill="none" xmlns="http://www.w3.org/2000/svg">
<path d="M5.12498 18.35C4.79864 18.35 4.47963 18.4468 4.20829 18.6281C3.93694 18.8094 3.72546 19.0671 3.60058 19.3686C3.47569 19.6701 3.44302 20.0018 3.50668 20.3219C3.57035 20.642 3.72749 20.936 3.95825 21.1667C4.18901 21.3975 4.48301 21.5546 4.80308 21.6183C5.12315 21.682 5.45491 21.6493 5.7564 21.5244C6.0579 21.3995 6.3156 21.188 6.4969 20.9167C6.67821 20.6453 6.77498 20.3263 6.77498 20C6.77498 19.7833 6.7323 19.5688 6.64938 19.3686C6.56646 19.1684 6.44492 18.9865 6.2917 18.8333C6.13849 18.6801 5.95659 18.5585 5.7564 18.4756C5.55622 18.3927 5.34166 18.35 5.12498 18.35ZM9.83328 18.35C9.50694 18.35 9.18793 18.4468 8.91658 18.6281C8.64524 18.8094 8.43376 19.0671 8.30888 19.3686C8.18399 19.6701 8.15131 20.0018 8.21498 20.3219C8.27865 20.642 8.43579 20.936 8.66655 21.1667C8.89731 21.3975 9.19131 21.5546 9.51138 21.6183C9.83145 21.682 10.1632 21.6493 10.4647 21.5244C10.7662 21.3995 11.0239 21.188 11.2052 20.9167C11.3865 20.6453 11.4833 20.3263 11.4833 20C11.4833 19.5624 11.3094 19.1427 11 18.8333C10.6906 18.5238 10.2709 18.35 9.83328 18.35ZM14.5417 18.35C14.2153 18.35 13.8963 18.4468 13.625 18.6281C13.3536 18.8094 13.1422 19.0671 13.0173 19.3686C12.8924 19.6701 12.8597 20.0018 12.9234 20.3219C12.987 20.642 13.1442 20.936 13.375 21.1667C13.6057 21.3975 13.8997 21.5546 14.2198 21.6183C14.5398 21.682 14.8716 21.6493 15.1731 21.5244C15.4746 21.3995 15.7323 21.188 15.9136 20.9167C16.0949 20.6453 16.1917 20.3263 16.1917 20C16.1917 19.5624 16.0178 19.1427 15.7084 18.8333C15.399 18.5238 14.9793 18.35 14.5417 18.35ZM19.25 18.35C18.9236 18.35 18.6046 18.4468 18.3333 18.6281C18.0619 18.8094 17.8505 19.0671 17.7256 19.3686C17.6007 19.6701 17.568 20.0018 17.6317 20.3219C17.6953 20.642 17.8525 20.936 18.0832 21.1667C18.314 21.3975 18.608 21.5546 18.9281 21.6183C19.2481 21.682 19.5799 21.6493 19.8814 21.5244C20.1829 21.3995 20.4406 21.188 20.6219 20.9167C20.8032 20.6453 20.9 20.3263 20.9 20C20.9 19.5624 20.7261 19.1427 20.4167 18.8333C20.1073 18.5238 19.6876 18.35 19.25 18.35ZM6.70638 17H20L20.5968 13.7441C20.7517 12.8983 20.5898 12.0252 20.1421 11.2911C19.6944 10.5571 18.9921 10.0135 18.1693 9.7641L14 8.5V2H11.3263C11.0583 2.00002 10.7931 2.05389 10.5464 2.1584C10.2996 2.26292 10.0764 2.41594 9.88998 2.6084L8.54158 4H3.99998V14.2936C3.99998 15.0114 4.28511 15.6998 4.79266 16.2073C5.30021 16.7149 5.98859 17 6.70638 17ZM5.99998 6H9.38868L9.97798 5.3916L11.3263 4H12V9.9836L13.42 10.4136L17.5893 11.6772C17.942 11.784 18.243 12.017 18.4348 12.3317C18.6267 12.6463 18.6959 13.0206 18.6293 13.3831L18.3333 15H6.70638C6.51909 14.9998 6.33954 14.9253 6.20711 14.7929C6.07468 14.6604 6.00019 14.4809 5.99998 14.2936V6Z" fill="black"/>
</svg>
