<svg width="24" height="24" viewBox="0 0 24 24" fill="none" xmlns="http://www.w3.org/2000/svg">
<path d="M21.6808 17.0002V11.9302C21.6825 11.6025 21.5986 11.2802 21.4376 10.9949C21.2765 10.7096 21.0438 10.4712 20.7625 10.3033C19.7707 9.70652 18.6923 9.26691 17.5659 9.00015L14.7228 5.93015C14.442 5.62694 14.1015 5.38503 13.7228 5.21959C13.344 5.05415 12.9352 4.96875 12.5219 4.96875H4.70831L2.92831 8.40505C2.61951 9.00127 2.45833 9.6629 2.45831 10.3344V16.2002L4.19831 16.7837C4.35927 17.3324 4.6881 17.817 5.13861 18.1693C5.58913 18.5216 6.13868 18.7238 6.71008 18.7477C7.28147 18.7716 7.846 18.6159 8.32434 18.3025C8.80268 17.989 9.17081 17.5336 9.37701 17.0002H14.6287C14.8286 17.5155 15.1796 17.9583 15.6357 18.2706C16.0918 18.5829 16.6316 18.75 17.1844 18.75C17.7371 18.75 18.2769 18.5829 18.733 18.2706C19.1891 17.9583 19.5401 17.5155 19.74 17.0002H21.6808ZM5.86391 6.86885H12.5219C12.6734 6.86908 12.8233 6.90051 12.9621 6.96117C13.1009 7.02184 13.2258 7.11043 13.3289 7.22145L14.9763 9.00015H4.76001L5.86391 6.86885ZM17.319 10.9001C18.1839 11.1262 19.0127 11.4729 19.7808 11.9302V15.1002H19.7708C19.5865 14.5605 19.238 14.092 18.7741 13.7603C18.3103 13.4286 17.7543 13.2502 17.1841 13.2502C16.6138 13.2502 16.0578 13.4286 15.594 13.7603C15.1301 14.092 14.7816 14.5605 14.5973 15.1002H9.40801C9.23279 14.5867 8.90871 14.137 8.47705 13.8083C8.04539 13.4797 7.52568 13.2869 6.98411 13.2546C6.44253 13.2223 5.90359 13.3519 5.43593 13.6269C4.96826 13.902 4.59303 14.31 4.35801 14.799V10.9001H17.319ZM6.82121 17.0002C6.62343 17.0002 6.43009 16.9415 6.26564 16.8316C6.10119 16.7217 5.97302 16.5656 5.89733 16.3828C5.82165 16.2001 5.80184 15.999 5.84043 15.8051C5.87901 15.6111 5.97425 15.4329 6.11411 15.293C6.25396 15.1532 6.43214 15.058 6.62612 15.0194C6.8201 14.9808 7.02117 15.0006 7.2039 15.0763C7.38662 15.152 7.5428 15.2801 7.65268 15.4446C7.76256 15.609 7.82121 15.8024 7.82121 16.0002C7.82092 16.2653 7.71547 16.5195 7.528 16.7069C7.34052 16.8944 7.08634 16.9999 6.82121 17.0002ZM17.1844 17.0002C16.9866 17.0002 16.7933 16.9415 16.6288 16.8316C16.4644 16.7217 16.3362 16.5656 16.2605 16.3828C16.1848 16.2001 16.165 15.999 16.2036 15.8051C16.2422 15.6111 16.3375 15.4329 16.4773 15.293C16.6172 15.1532 16.7953 15.058 16.9893 15.0194C17.1833 14.9808 17.3844 15.0006 17.5671 15.0763C17.7498 15.152 17.906 15.2801 18.0159 15.4446C18.1258 15.609 18.1844 15.8024 18.1844 16.0002C18.1841 16.2653 18.0786 16.5194 17.8912 16.7069C17.7037 16.8944 17.4495 16.9998 17.1844 17.0002Z" fill="black"/>
</svg>
