<svg width="24" height="24" viewBox="0 0 24 24" fill="none" xmlns="http://www.w3.org/2000/svg">
<path d="M22.3958 17V11.8585C22.3954 11.5057 22.297 11.1598 22.1116 10.8596C21.9262 10.5593 21.6611 10.3164 21.3458 10.1579C20.1356 9.55133 18.8292 9.15951 17.4849 8.99995L14.9387 6.25065C14.5642 5.84635 14.1102 5.52378 13.6052 5.30319C13.1002 5.0826 12.5551 4.96874 12.004 4.96875H6.02609L2.88539 8.14355C2.14462 8.89244 1.72915 9.90329 1.72919 10.9567V16.2L3.86329 16.739C4.01612 17.2943 4.34018 17.7872 4.78937 18.1477C5.23856 18.5081 5.78998 18.7177 6.36517 18.7466C6.94036 18.7755 7.51001 18.6222 7.99307 18.3086C8.47612 17.9951 8.84797 17.5371 9.05569 17H14.6415C14.8414 17.5153 15.1924 17.9582 15.6485 18.2705C16.1046 18.5828 16.6444 18.7499 17.1972 18.7499C17.75 18.7499 18.2898 18.5828 18.7459 18.2705C19.202 17.9582 19.553 17.5153 19.7529 17H22.3958ZM6.81909 6.86865H12.004C12.2932 6.86905 12.5793 6.92902 12.8444 7.04482C13.1095 7.16063 13.3479 7.32978 13.5447 7.54175L14.8952 8.99995H4.71079L6.81909 6.86865ZM3.62909 10.9567C3.62909 10.9374 3.63409 10.919 3.63459 10.8999H17.3352C18.4351 11.0385 19.5036 11.3626 20.4952 11.8585V15.1H19.784C19.5997 14.5603 19.2512 14.0918 18.7873 13.76C18.3235 13.4283 17.7675 13.2499 17.1972 13.2499C16.6269 13.2499 16.0709 13.4283 15.607 13.76C15.1432 14.0918 14.7947 14.5603 14.6104 15.1H9.08679C8.91071 14.5846 8.58475 14.1336 8.15069 13.8047C7.71662 13.4758 7.19423 13.284 6.65047 13.2539C6.1067 13.2239 5.56634 13.3568 5.09865 13.6358C4.63095 13.9149 4.25723 14.3272 4.02539 14.82L3.62919 14.72L3.62909 10.9567ZM6.49999 17C6.30221 17 6.10887 16.9413 5.94442 16.8314C5.77997 16.7215 5.6518 16.5654 5.57611 16.3826C5.50042 16.1999 5.48062 15.9988 5.5192 15.8049C5.55779 15.6109 5.65303 15.4327 5.79288 15.2928C5.93273 15.153 6.11092 15.0578 6.3049 15.0192C6.49888 14.9806 6.69994 15.0004 6.88267 15.0761C7.0654 15.1518 7.22158 15.2799 7.33146 15.4444C7.44134 15.6088 7.49999 15.8022 7.49999 16C7.4997 16.2651 7.39425 16.5193 7.20677 16.7067C7.0193 16.8942 6.76511 16.9997 6.49999 17ZM17.1972 17C16.9994 17 16.8061 16.9413 16.6416 16.8314C16.4772 16.7215 16.349 16.5654 16.2733 16.3826C16.1976 16.1999 16.1778 15.9988 16.2164 15.8049C16.255 15.6109 16.3502 15.4327 16.4901 15.2928C16.6299 15.153 16.8081 15.0578 17.0021 15.0192C17.1961 14.9806 17.3971 15.0004 17.5799 15.0761C17.7626 15.1518 17.9188 15.2799 18.0287 15.4444C18.1385 15.6088 18.1972 15.8022 18.1972 16C18.1969 16.2651 18.0914 16.5193 17.904 16.7067C17.7165 16.8942 17.4623 16.9997 17.1972 17Z" fill="black"/>
</svg>
