<svg width="24" height="24" viewBox="0 0 24 24" fill="none" xmlns="http://www.w3.org/2000/svg">
<path d="M13.4133 9.5262L5.2012 17.7383L6.2617 18.7988L14.4739 10.5867C14.0667 10.2913 13.7087 9.93339 13.4133 9.5262ZM22 6.75C21.9985 5.49067 21.4976 4.28333 20.6072 3.39285C19.7167 2.50237 18.5093 2.00146 17.25 2C16.5571 2.00319 15.8734 2.15955 15.248 2.4579L15.2422 2.4453L1.8822 8.6753L2.517 10.0347L12.7643 5.2567C12.5958 5.73683 12.5065 6.24119 12.5 6.75C12.5022 7.74885 12.8221 8.72112 13.4133 9.5262L16.72 6.22L17.78 7.28L14.4736 10.5864C15.0764 11.0387 15.7819 11.3347 16.527 11.448C17.272 11.5613 18.0336 11.4883 18.7436 11.2357L13.9658 21.4834L15.3252 22.1182L21.5552 8.7582L21.5425 8.7523C21.8408 8.12677 21.997 7.443 22 6.75Z" fill="black"/>
</svg>
