<svg width="24" height="24" viewBox="0 0 24 24" fill="none" xmlns="http://www.w3.org/2000/svg">
<path d="M5.12498 18C4.74919 18 4.38185 18.1114 4.06939 18.3202C3.75694 18.529 3.51341 18.8257 3.36961 19.1729C3.2258 19.5201 3.18817 19.9021 3.26148 20.2707C3.3348 20.6392 3.51575 20.9778 3.78147 21.2435C4.04719 21.5092 4.38574 21.6902 4.7543 21.7635C5.12287 21.8368 5.5049 21.7992 5.85207 21.6554C6.19925 21.5116 6.49599 21.268 6.70477 20.9556C6.91354 20.6431 7.02498 20.2758 7.02498 19.9C7.02498 19.3961 6.8248 18.9128 6.46848 18.5565C6.11216 18.2002 5.62889 18 5.12498 18ZM5.12498 21.3C4.84808 21.3 4.57741 21.2179 4.34718 21.0641C4.11695 20.9102 3.93751 20.6916 3.83155 20.4358C3.72558 20.1799 3.69786 19.8984 3.75188 19.6269C3.8059 19.3553 3.93923 19.1058 4.13503 18.9101C4.33082 18.7143 4.58028 18.5809 4.85185 18.5269C5.12342 18.4729 5.40492 18.5006 5.66073 18.6066C5.91655 18.7125 6.1352 18.892 6.28903 19.1222C6.44287 19.3524 6.52498 19.6231 6.52498 19.9C6.52455 20.2712 6.37692 20.627 6.11446 20.8895C5.852 21.1519 5.49615 21.2996 5.12498 21.3ZM9.83338 18C9.45759 18 9.09025 18.1114 8.77779 18.3202C8.46534 18.529 8.22181 18.8257 8.07801 19.1729C7.9342 19.5201 7.89657 19.9021 7.96988 20.2707C8.0432 20.6392 8.22415 20.9778 8.48987 21.2435C8.75559 21.5092 9.09414 21.6902 9.46271 21.7635C9.83127 21.8368 10.2133 21.7992 10.5605 21.6554C10.9077 21.5116 11.2044 21.268 11.4132 20.9556C11.6219 20.6431 11.7334 20.2758 11.7334 19.9C11.7334 19.3961 11.5332 18.9128 11.1769 18.5565C10.8206 18.2002 10.3373 18 9.83338 18ZM9.83338 21.3C9.55648 21.3 9.28581 21.2179 9.05558 21.0641C8.82535 20.9102 8.64591 20.6916 8.53995 20.4358C8.43398 20.1799 8.40626 19.8984 8.46028 19.6269C8.5143 19.3553 8.64763 19.1058 8.84343 18.9101C9.03922 18.7143 9.28868 18.5809 9.56025 18.5269C9.83182 18.4729 10.1133 18.5006 10.3691 18.6066C10.6249 18.7125 10.8436 18.892 10.9974 19.1222C11.1513 19.3524 11.2334 19.6231 11.2334 19.9C11.2329 20.2712 11.0853 20.627 10.8228 20.8895C10.5604 21.1519 10.2045 21.2995 9.83338 21.3ZM14.5416 18C14.1658 18 13.7984 18.1114 13.486 18.3202C13.1735 18.529 12.93 18.8257 12.7862 19.1729C12.6424 19.5201 12.6048 19.9021 12.6781 20.2707C12.7514 20.6392 12.9324 20.9778 13.1981 21.2435C13.4638 21.5092 13.8023 21.6902 14.1709 21.7635C14.5395 21.8368 14.9215 21.7992 15.2687 21.6554C15.6159 21.5116 15.9126 21.268 16.1214 20.9556C16.3301 20.6431 16.4416 20.2758 16.4416 19.9C16.4416 19.3961 16.2414 18.9128 15.8851 18.5565C15.5288 18.2002 15.0455 18 14.5416 18ZM14.5416 21.3C14.2647 21.3 13.994 21.2179 13.7638 21.0641C13.5335 20.9102 13.3541 20.6916 13.2481 20.4358C13.1422 20.1799 13.1145 19.8984 13.1685 19.6269C13.2225 19.3553 13.3558 19.1058 13.5516 18.9101C13.7474 18.7143 13.9969 18.5809 14.2684 18.5269C14.54 18.4729 14.8215 18.5006 15.0773 18.6066C15.3331 18.7125 15.5518 18.892 15.7056 19.1222C15.8595 19.3524 15.9416 19.6231 15.9416 19.9C15.9412 20.2712 15.7935 20.627 15.5311 20.8895C15.2686 21.1519 14.9127 21.2996 14.5416 21.3ZM19.25 18C18.8742 18 18.5068 18.1114 18.1944 18.3202C17.8819 18.529 17.6384 18.8257 17.4946 19.1729C17.3508 19.5201 17.3132 19.9021 17.3865 20.2707C17.4598 20.6392 17.6408 20.9778 17.9065 21.2435C18.1722 21.5092 18.5107 21.6902 18.8793 21.7635C19.2479 21.8368 19.6299 21.7992 19.9771 21.6554C20.3243 21.5116 20.621 21.268 20.8298 20.9556C21.0385 20.6431 21.15 20.2758 21.15 19.9C21.15 19.3961 20.9498 18.9128 20.5935 18.5565C20.2372 18.2002 19.7539 18 19.25 18ZM19.25 21.3C18.9731 21.3 18.7024 21.2179 18.4722 21.0641C18.242 20.9102 18.0625 20.6916 17.9565 20.4358C17.8506 20.1799 17.8229 19.8984 17.8769 19.6269C17.9309 19.3553 18.0642 19.1058 18.26 18.9101C18.4558 18.7143 18.7053 18.5809 18.9768 18.5269C19.2484 18.4729 19.5299 18.5006 19.7857 18.6066C20.0416 18.7125 20.2602 18.892 20.414 19.1222C20.5679 19.3524 20.65 19.6231 20.65 19.9C20.6496 20.2712 20.5019 20.627 20.2395 20.8895C19.977 21.1519 19.6212 21.2996 19.25 21.3ZM6.70638 17H20L20.6483 14.0216C20.7862 13.3883 20.6746 12.7262 20.3368 12.173C19.9989 11.6198 19.4609 11.2182 18.8345 11.0516L13 9.5V2H10.4688C10.1557 2 9.8458 2.06292 9.55751 2.18502C9.26922 2.30713 9.00841 2.48593 8.79058 2.7108L7.54158 4H3.99998V14.2936C3.99998 15.0114 4.28511 15.6998 4.79266 16.2073C5.30021 16.7149 5.98859 17 6.70638 17ZM4.49998 4.5H7.75338L7.90078 4.3479L9.14998 3.0586C9.32151 2.88234 9.52653 2.74212 9.753 2.6462C9.97947 2.55027 10.2228 2.50057 10.4688 2.5H12.5V9.8844L12.8715 9.9832L18.7059 11.5348C19.2083 11.6676 19.64 11.9893 19.9109 12.4328C20.1818 12.8762 20.271 13.4072 20.1598 13.9148L19.5972 16.5H6.70638C6.12141 16.4993 5.56058 16.2667 5.14695 15.853C4.73331 15.4394 4.50064 14.8786 4.49998 14.2936V4.5Z" fill="black"/>
</svg>
