<svg width="24" height="24" viewBox="0 0 24 24" fill="none" xmlns="http://www.w3.org/2000/svg">
<path d="M17.9045 4.333L15.8333 6.4042V3C15.8333 2.73478 15.7279 2.48043 15.5404 2.29289C15.3529 2.10536 15.0985 2 14.8333 2H9.1667C8.90148 2 8.64713 2.10536 8.45959 2.29289C8.27206 2.48043 8.1667 2.73478 8.1667 3V6.4042L6.0955 4.333H1V10.667H6.0955L8.1667 8.5958V12C8.1667 12.2652 8.27206 12.5196 8.45959 12.7071C8.64713 12.8946 8.90148 13 9.1667 13H14.8333C15.0985 13 15.3529 12.8946 15.5404 12.7071C15.7279 12.5196 15.8333 12.2652 15.8333 12V8.5958L17.9045 10.667H23V4.333H17.9045ZM5.5017 9.2336H2.4333V5.7663H5.5017L7.2356 7.5L5.5017 9.2336ZM14.4 11.4C14.4 11.4919 13.9491 11.5667 13.8571 11.5667H9.7666C9.6748 11.5667 9.5999 11.1167 9.5999 11.0247V3.6C9.5999 3.5081 10.0508 3.4333 10.1428 3.4333H14.2334C14.3252 3.4333 14.4001 3.8833 14.4001 3.9753L14.4 11.4ZM21.5666 9.2336H18.4983L16.7644 7.5L18.4983 5.7663H21.5667L21.5666 9.2336ZM5.4414 18.8047L4.3809 19.8652C5.3814 20.8659 6.56921 21.6596 7.87651 22.2012C9.1838 22.7427 10.585 23.0215 12 23.0215C13.415 23.0215 14.8162 22.7427 16.1235 22.2012C17.4308 21.6596 18.6186 20.8659 19.6191 19.8652L18.5586 18.8047C16.818 20.5419 14.4592 21.5176 12 21.5176C9.54079 21.5176 7.18203 20.5419 5.4414 18.8047ZM16.0947 16.3408L15.0347 15.2803C14.6364 15.679 14.1634 15.9954 13.6428 16.2112C13.1222 16.427 12.5641 16.5381 12.0005 16.5381C11.4369 16.5381 10.8788 16.427 10.3582 16.2112C9.83758 15.9954 9.3646 15.679 8.9663 15.2803L7.9063 16.3408C8.44382 16.8789 9.08213 17.3057 9.78473 17.597C10.4873 17.8882 11.2404 18.0381 12.001 18.0381C12.7616 18.0381 13.5147 17.8882 14.2173 17.597C14.9199 17.3057 15.5582 16.8789 16.0957 16.3408H16.0947Z" fill="black"/>
</svg>
