<svg width="24" height="24" viewBox="0 0 24 24" fill="none" xmlns="http://www.w3.org/2000/svg">
<path d="M23 14.5381C23.0028 14.1755 22.9057 13.8192 22.7195 13.5081C22.5332 13.197 22.265 12.9432 21.9441 12.7744C20.5292 12.0616 18.9899 11.6286 17.4109 11.4991L14.8 8.96301C14.0534 8.23823 13.0538 7.83289 12.0133 7.83301H3.5L1.5213 10.7346C1.18166 11.2328 0.999997 11.8217 1 12.4246V16.51L2.77 16.9575C2.8189 17.5908 3.10363 18.1826 3.56789 18.616C4.03215 19.0495 4.64213 19.2929 5.27724 19.2982C5.91235 19.3036 6.52635 19.0704 6.99783 18.6449C7.46931 18.2193 7.76395 17.6323 7.8235 17H16.3647C16.4227 17.6296 16.7138 18.2147 17.1809 18.6408C17.6481 19.0668 18.2575 19.303 18.8897 19.303C19.5219 19.303 20.1313 19.0668 20.5985 18.6408C21.0656 18.2147 21.3567 17.6296 21.4147 17H23V14.5381ZM1.9344 11.0162L3.7644 8.33251H12.013C12.9239 8.33063 13.7993 8.68575 14.4514 9.32171L16.6934 11.4991H1.7015C1.76143 11.3302 1.83952 11.1683 1.9344 11.0162ZM5.2988 18.8C4.89335 18.8 4.497 18.6798 4.15988 18.4545C3.82276 18.2293 3.56001 17.9091 3.40485 17.5345C3.24969 17.1599 3.20909 16.7477 3.28819 16.3501C3.36729 15.9524 3.56253 15.5871 3.84923 15.3004C4.13593 15.0137 4.5012 14.8185 4.89886 14.7394C5.29653 14.6603 5.70871 14.7009 6.0833 14.8561C6.45789 15.0112 6.77806 15.274 7.00331 15.6111C7.22857 15.9482 7.3488 16.3446 7.3488 16.75C7.34817 17.2935 7.13198 17.8146 6.74767 18.1989C6.36336 18.5832 5.8423 18.7994 5.2988 18.8ZM18.8895 18.8C18.484 18.8 18.0877 18.6798 17.7506 18.4545C17.4135 18.2293 17.1507 17.9091 16.9955 17.5345C16.8404 17.1599 16.7998 16.7477 16.8789 16.3501C16.958 15.9524 17.1532 15.5871 17.4399 15.3004C17.7266 15.0137 18.0919 14.8185 18.4896 14.7394C18.8872 14.6603 19.2994 14.7009 19.674 14.8561C20.0486 15.0112 20.3688 15.274 20.594 15.6111C20.8193 15.9482 20.9395 16.3446 20.9395 16.75C20.9389 17.2934 20.7228 17.8144 20.3386 18.1987C19.9544 18.583 19.4334 18.7993 18.89 18.8H18.8895Z" fill="black"/>
</svg>
