<svg width="24" height="24" viewBox="0 0 24 24" fill="none" xmlns="http://www.w3.org/2000/svg">
<path d="M21.1426 14H19.0173C18.8309 12.7637 18.5602 11.5415 18.2073 10.342C18.1007 9.97966 17.886 9.65852 17.5919 9.42153C17.2978 9.18453 16.9383 9.04298 16.5616 9.0158C16.5151 9.0054 16.1841 9 16.1345 9C16.1345 9 7.49322 9.0045 7.45022 9.0132C7.07117 9.03853 6.709 9.17951 6.41257 9.41712C6.11615 9.65473 5.89973 9.97754 5.79252 10.342C5.43966 11.5415 5.1691 12.7637 4.98272 14H2.85742V15.4028L4.74612 16.0587C4.69852 16.6936 4.67266 17.3302 4.66852 17.9687C4.66722 18.0329 4.66672 21.9341 4.66672 21.9341C4.66672 22.1091 4.73626 22.277 4.86003 22.4008C4.98381 22.5246 5.15168 22.5941 5.32672 22.5941H5.96782C6.14286 22.5941 6.31074 22.5246 6.43451 22.4008C6.55829 22.277 6.62782 22.1091 6.62782 21.9341V21H17.376V21.9337C17.376 22.1087 17.4456 22.2766 17.5693 22.4004C17.6931 22.5242 17.861 22.5937 18.036 22.5937H18.6732C18.7599 22.5937 18.8457 22.5766 18.9258 22.5435C19.0059 22.5103 19.0786 22.4617 19.1399 22.4004C19.2012 22.3391 19.2498 22.2663 19.283 22.1863C19.3162 22.1062 19.3332 22.0204 19.3332 21.9337C19.3332 21.9337 19.3325 18.0344 19.3315 17.9713C19.3281 17.3324 19.3022 16.6949 19.2536 16.0586L21.1423 15.4028L21.1426 14ZM7.18262 10.7529C7.20577 10.6732 7.25275 10.6025 7.31725 10.5503C7.38174 10.4981 7.46067 10.4669 7.54342 10.4609L16.458 10.4619C16.5402 10.4684 16.6185 10.4997 16.6825 10.5517C16.7465 10.6036 16.7932 10.6738 16.8164 10.7529C17.1279 11.8186 17.3709 12.9032 17.5439 14H6.45632C6.62892 12.9032 6.87169 11.8186 7.18312 10.7529H7.18262ZM7.38572 18.1605C7.18366 18.1605 6.98614 18.1006 6.81812 17.9884C6.65011 17.8761 6.51915 17.7166 6.44182 17.5299C6.36448 17.3432 6.34423 17.1378 6.38364 16.9397C6.42305 16.7415 6.52034 16.5594 6.66321 16.4166C6.80608 16.2737 6.98811 16.1764 7.18628 16.1369C7.38445 16.0975 7.58987 16.1177 7.77655 16.1951C7.96323 16.2724 8.12279 16.4033 8.23504 16.5713C8.3473 16.7393 8.40722 16.9368 8.40722 17.1389C8.40725 17.4097 8.29971 17.6695 8.10824 17.8611C7.91678 18.0527 7.65707 18.1604 7.38622 18.1605H7.38572ZM16.6133 18.1605C16.4113 18.1605 16.2138 18.1005 16.0458 17.9883C15.8778 17.876 15.7469 17.7165 15.6696 17.5298C15.5923 17.3431 15.572 17.1377 15.6115 16.9395C15.6509 16.7414 15.7482 16.5593 15.8911 16.4165C16.034 16.2736 16.216 16.1763 16.4142 16.1369C16.6123 16.0975 16.8177 16.1177 17.0044 16.1951C17.1911 16.2724 17.3506 16.4033 17.4629 16.5713C17.5751 16.7393 17.635 16.9369 17.635 17.1389C17.635 17.4098 17.5274 17.6695 17.3359 17.8611C17.1444 18.0527 16.8847 18.1604 16.6138 18.1605H16.6133ZM12 6.5C12.1799 6.5 12.3581 6.46456 12.5243 6.39571C12.6905 6.32687 12.8415 6.22595 12.9688 6.09874C13.096 5.97152 13.1969 5.82049 13.2657 5.65428C13.3346 5.48806 13.37 5.30991 13.37 5.13C13.1075 3.87509 12.6449 2.67056 12 1.5625C11.3551 2.67056 10.8925 3.87509 10.63 5.13C10.63 5.30991 10.6655 5.48806 10.7343 5.65428C10.8032 5.82049 10.9041 5.97152 11.0313 6.09874C11.2882 6.35566 11.6367 6.5 12 6.5ZM18 6.5C18.1799 6.5 18.3581 6.46456 18.5243 6.39571C18.6905 6.32687 18.8415 6.22595 18.9688 6.09874C19.096 5.97152 19.1969 5.82049 19.2657 5.65428C19.3346 5.48806 19.37 5.30991 19.37 5.13C19.1075 3.87509 18.6449 2.67056 18 1.5625C17.3551 2.67056 16.8925 3.87509 16.63 5.13C16.63 5.30991 16.6655 5.48806 16.7343 5.65428C16.8032 5.82049 16.9041 5.97152 17.0313 6.09874C17.2882 6.35566 17.6367 6.5 18 6.5ZM6.00002 6.5C6.17993 6.5 6.35808 6.46456 6.5243 6.39571C6.69051 6.32687 6.84154 6.22595 6.96876 6.09874C7.09597 5.97152 7.19689 5.82049 7.26574 5.65428C7.33459 5.48806 7.37002 5.30991 7.37002 5.13C7.10751 3.87509 6.64494 2.67056 6.00002 1.5625C5.35511 2.67056 4.89254 3.87509 4.63002 5.13C4.63002 5.30991 4.66546 5.48806 4.73431 5.65428C4.80316 5.82049 4.90407 5.97152 5.03129 6.09874C5.28821 6.35566 5.63668 6.5 6.00002 6.5Z" fill="black"/>
</svg>
