<svg width="24" height="24" viewBox="0 0 24 24" fill="none" xmlns="http://www.w3.org/2000/svg">
<path d="M22.3958 16.9998V12.386C22.396 12.033 22.2979 11.6869 22.1124 11.3864C21.927 11.086 21.6615 10.8432 21.3458 10.6851C20.059 10.0462 18.6674 9.64466 17.238 9.49984L14.6364 6.77874C14.2787 6.40304 13.8483 6.10393 13.3715 5.89956C12.8947 5.69519 12.3813 5.58982 11.8625 5.58984H5.76421L2.68241 8.73514C2.06932 9.35854 1.72573 10.1979 1.72571 11.0722V16.1998L3.65321 16.6868C3.76599 17.2419 4.05854 17.7443 4.48558 18.1163C4.91263 18.4883 5.45038 18.7092 6.01562 18.7449C6.58087 18.7805 7.1421 18.6289 7.61249 18.3134C8.08289 17.998 8.43621 17.5363 8.61781 16.9998H15.1332C15.3045 17.5097 15.6315 17.9529 16.0682 18.2669C16.5049 18.5809 17.0292 18.7498 17.567 18.7498C18.1049 18.7498 18.6291 18.5809 19.0658 18.2669C19.5025 17.9529 19.8296 17.5097 20.0008 16.9998H22.3958ZM6.37301 7.03984H11.8623C12.1847 7.0406 12.5037 7.10647 12.8 7.23351C13.0964 7.36055 13.364 7.54614 13.5869 7.77914L15.2316 9.49984H3.96391L6.37301 7.03984ZM3.17581 10.9328H16.9991L17.0898 10.9422C18.3437 11.0685 19.5645 11.4202 20.6934 11.9803C20.7691 12.0176 20.8328 12.0753 20.8774 12.1469C20.9219 12.2185 20.9454 12.3012 20.9453 12.3855V15.5498H20.068C19.9319 14.9891 19.6114 14.4904 19.1578 14.1338C18.7043 13.7771 18.144 13.5832 17.567 13.5832C16.99 13.5832 16.4298 13.7771 15.9762 14.1338C15.5226 14.4904 15.2021 14.9891 15.066 15.5498H8.68501C8.55565 15.0175 8.25982 14.5403 7.84056 14.1876C7.42129 13.8349 6.90046 13.6252 6.3538 13.589C5.80714 13.5527 5.26316 13.6918 4.80099 13.986C4.33882 14.2802 3.98255 14.7141 3.78401 15.2247L3.17581 15.0713V10.9328ZM6.18401 17.4164C5.93678 17.4164 5.69511 17.3431 5.48955 17.2058C5.28398 17.0684 5.12377 16.8732 5.02916 16.6448C4.93455 16.4164 4.90979 16.1651 4.95803 15.9226C5.00626 15.6801 5.12531 15.4574 5.30012 15.2826C5.47494 15.1077 5.69767 14.9887 5.94015 14.9405C6.18262 14.8922 6.43395 14.917 6.66236 15.0116C6.89077 15.1062 7.08599 15.2664 7.22335 15.472C7.3607 15.6775 7.43401 15.9192 7.43401 16.1664C7.43364 16.4978 7.30182 16.8156 7.06748 17.0499C6.83314 17.2843 6.51542 17.4161 6.18401 17.4164ZM17.567 17.4164C17.3198 17.4164 17.0781 17.3431 16.8725 17.2058C16.667 17.0684 16.5068 16.8732 16.4122 16.6448C16.3175 16.4164 16.2928 16.1651 16.341 15.9226C16.3893 15.6801 16.5083 15.4574 16.6831 15.2826C16.8579 15.1077 17.0807 14.9887 17.3231 14.9405C17.5656 14.8922 17.817 14.917 18.0454 15.0116C18.2738 15.1062 18.469 15.2664 18.6063 15.472C18.7437 15.6775 18.817 15.9192 18.817 16.1664C18.8166 16.4978 18.6848 16.8156 18.4505 17.0499C18.2161 17.2843 17.8984 17.4161 17.567 17.4164Z" fill="black"/>
</svg>
