<svg width="24" height="24" viewBox="0 0 24 24" fill="none" xmlns="http://www.w3.org/2000/svg">
<path d="M21 13.38C20.9964 10.62 20.9001 7.8626 20.7112 5.1078C20.6605 4.34238 20.3426 3.61906 19.8132 3.06399C19.2837 2.50891 18.5762 2.15731 17.814 2.0705C17.4268 2.02429 17.0373 2.00092 16.6474 2.0005L16.6458 2H15.2715L16.4263 0H15.2639L14.1091 2H10.2715L11.4263 0H10.2639L9.1091 2H7.3542L7.3525 2.0007C6.96441 2.00103 6.57667 2.02377 6.1912 2.0688C5.42803 2.15494 4.71937 2.50641 4.18896 3.06184C3.65855 3.61728 3.34009 4.34138 3.2892 5.1077C3.1006 7.85703 3.00437 10.6104 3.0005 13.3677C3.0005 13.4348 3 13.9037 3 13.9707V21.34C3 21.4267 3.01707 21.5125 3.05024 21.5926C3.08341 21.6726 3.13202 21.7454 3.19331 21.8067C3.2546 21.868 3.32735 21.9166 3.40743 21.9498C3.4875 21.9829 3.57333 22 3.66 22H4.34C4.42667 22 4.5125 21.9829 4.59257 21.9498C4.67265 21.9166 4.7454 21.868 4.80669 21.8067C4.86798 21.7454 4.91659 21.6726 4.94976 21.5926C4.98293 21.5125 5 21.4267 5 21.34V20H19V21.34C19 21.515 19.0695 21.6829 19.1933 21.8067C19.3171 21.9305 19.485 22 19.66 22H20.34C20.515 22 20.6829 21.9305 20.8067 21.8067C20.9305 21.6829 21 21.515 21 21.34V13.9707C21 13.9077 21 13.4429 21 13.38ZM6.3542 16.3264C6.10697 16.3264 5.8653 16.2531 5.65974 16.1157C5.45418 15.9784 5.29396 15.7832 5.19935 15.5548C5.10474 15.3263 5.07999 15.075 5.12822 14.8325C5.17645 14.5901 5.2955 14.3673 5.47032 14.1925C5.64513 14.0177 5.86786 13.8986 6.11034 13.8504C6.35281 13.8022 6.60415 13.8269 6.83255 13.9216C7.06096 14.0162 7.25619 14.1764 7.39354 14.3819C7.53089 14.5875 7.6042 14.8292 7.6042 15.0764C7.6042 15.4079 7.4725 15.7259 7.23808 15.9603C7.00366 16.1947 6.68572 16.3264 6.3542 16.3264ZM17.6458 16.3264C17.3986 16.3264 17.1569 16.2531 16.9513 16.1157C16.7458 15.9784 16.5856 15.7832 16.4909 15.5548C16.3963 15.3263 16.3716 15.075 16.4198 14.8325C16.4681 14.5901 16.5871 14.3673 16.7619 14.1925C16.9367 14.0177 17.1595 13.8986 17.4019 13.8504C17.6444 13.8022 17.8957 13.8269 18.1242 13.9216C18.3526 14.0162 18.5478 14.1764 18.6851 14.3819C18.8225 14.5875 18.8958 14.8292 18.8958 15.0764C18.8958 15.4079 18.7641 15.7259 18.5297 15.9603C18.2953 16.1947 17.9773 16.3264 17.6458 16.3264ZM4.0327 11.6664C4.0663 9.5 4.14 7.3253 4.287 5.173C4.31116 4.84612 4.40423 4.52806 4.56009 4.23971C4.71594 3.95137 4.93106 3.69927 5.1913 3.5H18.8087C19.0689 3.69927 19.2841 3.95137 19.4399 4.23971C19.5958 4.52806 19.6888 4.84612 19.713 5.173C19.8603 7.3253 19.9337 9.4998 19.9673 11.6666L4.0327 11.6664Z" fill="black"/>
</svg>
