<svg width="24" height="24" viewBox="0 0 24 24" fill="none" xmlns="http://www.w3.org/2000/svg">
<path d="M23.9368 16.9998V13.3955C23.938 13.0403 23.8425 12.6914 23.6605 12.3863C23.4785 12.0813 23.2169 11.8315 22.9037 11.6637C21.4839 10.9631 19.9334 10.5667 18.3515 10.4998L15.6428 7.44614C15.2842 7.0395 14.8432 6.71383 14.3491 6.49076C13.8549 6.26769 13.319 6.15233 12.7768 6.15234H8.4578C7.81234 6.1523 7.17446 6.29149 6.5877 6.56044C6.00094 6.82938 5.4791 7.22174 5.0578 7.71074L2.663 10.4998H1.7839C1.31083 10.4998 0.857136 10.6877 0.522598 11.0222C0.188061 11.3567 7.95562e-05 11.8104 0 12.2834L0 16.472L2.149 16.8302C2.25745 17.4513 2.57664 18.016 3.0528 18.4292C3.52895 18.8425 4.13298 19.079 4.76313 19.0989C5.39328 19.1188 6.01104 18.9209 6.51234 18.5386C7.01364 18.1562 7.36785 17.6128 7.5153 16.9998H16.5858C16.7293 17.5985 17.0702 18.1315 17.5536 18.5127C18.037 18.8939 18.6347 19.1013 19.2504 19.1013C19.866 19.1013 20.4637 18.8939 20.9471 18.5127C21.4305 18.1315 21.7714 17.5985 21.9149 16.9998H23.9368ZM6.16 8.62654C6.42561 8.32114 6.75022 8.07258 7.11434 7.89582C7.47845 7.71906 7.87454 7.61774 8.2788 7.59794C8.3379 7.58984 8.6988 7.58564 8.7588 7.58564H12.7767C13.3795 7.58455 13.9603 7.81167 14.4025 8.22134C14.4561 8.26854 14.6225 8.43444 14.6692 8.49024L16.3892 10.3819L16.4745 10.4746L16.5218 10.4995H4.5428L6.16 8.62654ZM4.851 17.8003C4.56422 17.8003 4.28387 17.7153 4.04542 17.556C3.80697 17.3966 3.62112 17.1702 3.51137 16.9052C3.40163 16.6403 3.37291 16.3487 3.42886 16.0675C3.48481 15.7862 3.62291 15.5278 3.8257 15.325C4.02848 15.1223 4.28685 14.9842 4.56812 14.9282C4.84939 14.8723 5.14094 14.901 5.40589 15.0107C5.67084 15.1205 5.8973 15.3063 6.05663 15.5448C6.21596 15.7832 6.301 16.0636 6.301 16.3503C6.30058 16.7348 6.14763 17.1034 5.87573 17.3753C5.60383 17.6471 5.23519 17.8 4.8507 17.8003H4.851ZM19.251 17.8003C18.9642 17.8003 18.6839 17.7153 18.4454 17.556C18.207 17.3966 18.0211 17.1702 17.9114 16.9052C17.8016 16.6403 17.7729 16.3487 17.8289 16.0675C17.8848 15.7862 18.0229 15.5278 18.2257 15.325C18.4285 15.1223 18.6868 14.9842 18.9681 14.9282C19.2494 14.8723 19.5409 14.901 19.8059 15.0107C20.0708 15.1205 20.2973 15.3063 20.4566 15.5448C20.616 15.7832 20.701 16.0636 20.701 16.3503C20.7006 16.735 20.5475 17.1037 20.2755 17.3755C20.0034 17.6474 19.6346 17.8002 19.25 17.8003H19.251Z" fill="black"/>
</svg>
