<svg width="24" height="24" viewBox="0 0 24 24" fill="none" xmlns="http://www.w3.org/2000/svg">
<g clip-path="url(#clip0)">
<path d="M19 10C18.8984 10 18.8036 10.0239 18.7035 10.03L16.8184 2.99414H13.3857C13.2544 2.99414 13.1244 3.02001 13.003 3.07026C12.8817 3.12052 12.7715 3.19418 12.6786 3.28703C12.5858 3.37989 12.5121 3.49013 12.4618 3.61146C12.4116 3.73278 12.3857 3.86282 12.3857 3.99414C12.3857 4.12546 12.4116 4.2555 12.4618 4.37682C12.5121 4.49815 12.5858 4.60839 12.6786 4.70125C12.7715 4.79411 12.8817 4.86777 13.003 4.91802C13.1244 4.96827 13.2544 4.99414 13.3857 4.99414H15.2832L15.83 7.03414H7.77923L7.43213 5.73834L9.00003 4.85944V4.00004H4.38573C4.12051 4.00004 3.86616 4.1054 3.67862 4.29293C3.49108 4.48047 3.38573 4.73482 3.38573 5.00004C3.38573 5.26526 3.49108 5.51961 3.67862 5.70715C3.86616 5.89468 4.12051 6.00004 4.38573 6.00004H5.43203L5.90383 7.76174L5.29633 10.03C5.19633 10.0239 5.10163 10 5.00003 10C4.05396 10.0001 3.12732 10.2685 2.32774 10.7742C1.52816 11.2799 0.888447 12.002 0.48291 12.8568C0.0773732 13.7115 -0.0773453 14.6637 0.0367252 15.6029C0.150796 16.5421 0.528974 17.4296 1.12733 18.1624C1.72569 18.8952 2.51968 19.4432 3.41706 19.7428C4.31445 20.0423 5.27841 20.0811 6.19697 19.8547C7.11554 19.6283 7.95102 19.1459 8.60636 18.4636C9.2617 17.7812 9.71001 16.927 9.89923 16H12.3721L14.2383 9.03424H16.366L16.7712 10.5463C15.6885 11.1012 14.8472 12.0344 14.4071 13.1687C13.967 14.303 13.9587 15.5594 14.3839 16.6994C14.8091 17.8393 15.638 18.7835 16.7134 19.3526C17.7888 19.9217 19.0357 20.076 20.2174 19.7864C21.3991 19.4967 22.4333 18.7832 23.1236 17.7814C23.8139 16.7795 24.1123 15.559 23.9621 14.3517C23.812 13.1443 23.2236 12.0341 22.3089 11.2319C21.3941 10.4297 20.2167 9.99134 19 10ZM7.81573 14H6.30273L6.69683 12.53C7.21484 12.8905 7.6063 13.4047 7.81573 14ZM5.00003 18C4.2255 18.0023 3.48028 17.7041 2.92105 17.1682C2.36182 16.6324 2.03215 15.9005 2.00135 15.1266C1.97056 14.3527 2.24103 13.597 2.75592 13.0184C3.2708 12.4398 3.98997 12.0834 4.76223 12.024L4.03443 14.7413C3.99476 14.8895 3.98968 15.0447 4.0196 15.1951C4.04952 15.3455 4.11362 15.487 4.20696 15.6087C4.3003 15.7304 4.42037 15.829 4.55788 15.8968C4.6954 15.9647 4.84668 16 5.00003 16H7.81573C7.61024 16.5833 7.22928 17.0886 6.72514 17.4467C6.22101 17.8048 5.6184 17.9981 5.00003 18ZM10.8369 14H9.89923C9.74487 13.2596 9.42425 12.5639 8.96158 11.9656C8.49891 11.3672 7.9063 10.8819 7.22853 10.5461L7.63383 9.03424H12.168L10.8369 14ZM19 18C18.3597 18.0008 17.7359 17.7964 17.2202 17.4168C16.7044 17.0373 16.3238 16.5025 16.1341 15.8909C15.9443 15.2793 15.9555 14.6231 16.1658 14.0182C16.3762 13.4134 16.7747 12.8919 17.303 12.53L18.0342 15.2585C18.1062 15.5109 18.2745 15.7249 18.5028 15.8544C18.7312 15.9838 19.0012 16.0182 19.2547 15.9503C19.5083 15.8824 19.7249 15.7175 19.8579 15.4912C19.991 15.265 20.0297 14.9955 19.9658 14.7409L19.2378 12.0237C20.0109 12.082 20.7311 12.4381 21.2469 13.0169C21.7627 13.5957 22.0337 14.352 22.0028 15.1266C21.972 15.9013 21.6418 16.6337 21.0816 17.1697C20.5215 17.7057 19.7753 18.0034 19 18Z" fill="black"/>
</g>
<defs>
<clipPath id="clip0">
<rect width="24" height="24" fill="white"/>
</clipPath>
</defs>
</svg>
