<svg width="24" height="24" viewBox="0 0 24 24" fill="none" xmlns="http://www.w3.org/2000/svg">
<path d="M5 16C4.50555 16 4.0222 16.1466 3.61108 16.4213C3.19995 16.696 2.87952 17.0865 2.6903 17.5433C2.50108 18.0001 2.45157 18.5028 2.54804 18.9877C2.6445 19.4727 2.8826 19.9181 3.23223 20.2678C3.58187 20.6174 4.02732 20.8555 4.51228 20.952C4.99723 21.0484 5.49989 20.9989 5.95671 20.8097C6.41352 20.6205 6.80397 20.3 7.07867 19.8889C7.35338 19.4778 7.5 18.9945 7.5 18.5C7.5 17.837 7.23661 17.2011 6.76777 16.7322C6.29893 16.2634 5.66304 16 5 16ZM5 20.5C4.60444 20.5 4.21776 20.3827 3.88886 20.1629C3.55996 19.9432 3.30362 19.6308 3.15224 19.2654C3.00087 18.8999 2.96126 18.4978 3.03843 18.1098C3.1156 17.7219 3.30608 17.3655 3.58579 17.0858C3.86549 16.8061 4.22186 16.6156 4.60982 16.5384C4.99778 16.4613 5.39992 16.5009 5.76537 16.6522C6.13082 16.8036 6.44318 17.06 6.66294 17.3889C6.8827 17.7178 7 18.1044 7 18.5C6.99939 19.0302 6.78848 19.5386 6.41354 19.9135C6.0386 20.2885 5.53025 20.4994 5 20.5ZM20 16C19.9238 16 19.8521 16.0157 19.7776 16.0224L17.123 2.75H13.918C13.8517 2.75 13.7881 2.77634 13.7412 2.82322C13.6943 2.87011 13.668 2.9337 13.668 3C13.668 3.0663 13.6943 3.12989 13.7412 3.17678C13.7881 3.22366 13.8517 3.25 13.918 3.25H16.7129L18.7542 13.4548L13.959 18.25H7.5V18.75H14.166L18.8721 14.0439L19.2865 16.1158C18.6931 16.3046 18.1931 16.7108 17.8868 17.253C17.5805 17.7952 17.4907 18.4332 17.6353 19.0388C17.78 19.6445 18.1484 20.1731 18.6666 20.5183C19.1848 20.8636 19.8145 21.0001 20.4292 20.9003C21.0438 20.8006 21.598 20.472 21.9804 19.9805C22.3629 19.4891 22.5452 18.8711 22.4909 18.2508C22.4365 17.6305 22.1496 17.0536 21.6875 16.6362C21.2255 16.2187 20.6227 15.9914 20 16ZM20 20.5C19.6044 20.5 19.2178 20.3827 18.8889 20.1629C18.56 19.9432 18.3036 19.6308 18.1522 19.2654C18.0009 18.8999 17.9613 18.4978 18.0384 18.1098C18.1156 17.7219 18.3061 17.3655 18.5858 17.0858C18.8655 16.8061 19.2219 16.6156 19.6098 16.5384C19.9978 16.4613 20.3999 16.5009 20.7654 16.6522C21.1308 16.8036 21.4432 17.06 21.6629 17.3889C21.8827 17.7178 22 18.1044 22 18.5C21.9994 19.0302 21.7885 19.5386 21.4135 19.9135C21.0386 20.2885 20.5302 20.4994 20 20.5Z" fill="black"/>
</svg>
