<svg width="24" height="24" viewBox="0 0 24 24" fill="none" xmlns="http://www.w3.org/2000/svg">
<path d="M19.2512 4.5068C19.1369 3.82067 18.7875 3.19566 18.2629 2.73893C17.7382 2.2822 17.071 2.0222 16.3757 2.0035C16.3481 2.0012 16.1666 2 16.1384 2H7.8633C7.8378 2 7.6571 2.001 7.6319 2.0029C6.93519 2.02 6.26621 2.27934 5.74002 2.73632C5.21384 3.1933 4.86334 3.81935 4.7488 4.5068C4.36139 6.83164 4.1667 9.1845 4.1667 11.5414V16.5C4.16656 17.147 4.41763 17.7687 4.86697 18.2342C5.31632 18.6996 5.92883 18.9724 6.5754 18.9951C6.6054 18.9983 6.799 19 6.8298 19H8.4309L6.6987 22H8.45L10.1822 19H13.8184L15.55 22H17.301L15.5688 19H17.333C17.996 19 18.6319 18.7366 19.1008 18.2678C19.5696 17.7989 19.833 17.163 19.833 16.5V11.5414C19.8331 9.18451 19.6385 6.83165 19.2512 4.5068ZM6.2285 4.7534C6.28597 4.40274 6.46644 4.084 6.73757 3.85432C7.0087 3.62464 7.35277 3.49903 7.7081 3.5H16.2919C16.6473 3.49894 16.9915 3.6245 17.2627 3.85419C17.5339 4.08388 17.7144 4.40267 17.7719 4.7534C18.0767 6.59914 18.256 8.46341 18.3086 10.3334H5.6918C5.74444 8.46341 5.92375 6.59914 6.2285 4.7534ZM18.3333 16.5C18.333 16.7651 18.2276 17.0193 18.0401 17.2068C17.8526 17.3943 17.5984 17.4997 17.3333 17.5H6.6667C6.40158 17.4997 6.14739 17.3943 5.95992 17.2068C5.77244 17.0193 5.66699 16.7651 5.6667 16.5V11.8333H18.3333V16.5ZM15.9656 15.3777C16.1832 15.3777 16.3958 15.3132 16.5767 15.1923C16.7576 15.0714 16.8986 14.8996 16.9819 14.6987C17.0651 14.4977 17.0869 14.2765 17.0445 14.0631C17.002 13.8497 16.8973 13.6537 16.7434 13.4999C16.5896 13.346 16.3936 13.2413 16.1802 13.1988C15.9668 13.1564 15.7456 13.1782 15.5447 13.2614C15.3437 13.3447 15.1719 13.4857 15.051 13.6666C14.9301 13.8475 14.8656 14.0601 14.8656 14.2777C14.8656 14.5694 14.9815 14.8492 15.1878 15.0555C15.3941 15.2618 15.6739 15.3777 15.9656 15.3777ZM8.0344 15.3777C8.25196 15.3777 8.46464 15.3132 8.64553 15.1923C8.82642 15.0714 8.96741 14.8996 9.05067 14.6987C9.13393 14.4977 9.15571 14.2765 9.11327 14.0631C9.07082 13.8497 8.96606 13.6537 8.81222 13.4999C8.65838 13.346 8.46238 13.2413 8.249 13.1988C8.03562 13.1564 7.81445 13.1782 7.61345 13.2614C7.41245 13.3447 7.24066 13.4857 7.11979 13.6666C6.99892 13.8475 6.9344 14.0601 6.9344 14.2777C6.9344 14.5694 7.0503 14.8492 7.25659 15.0555C7.46288 15.2618 7.74266 15.3777 8.0344 15.3777Z" fill="black"/>
</svg>
