<svg width="24" height="24" viewBox="0 0 24 24" fill="none" xmlns="http://www.w3.org/2000/svg">
<path d="M23 13.2558C23.0024 12.9316 22.9157 12.6129 22.7493 12.3345C22.5829 12.0562 22.3433 11.8288 22.0566 11.6773C20.6835 10.9841 19.1817 10.5829 17.6458 10.499L14.7875 7.69205C14.2593 7.17769 13.5598 6.8764 12.8232 6.84595L12.5461 5.46875H8.5861L8.3325 6.87455C7.4087 6.96568 6.54571 7.37648 5.8925 8.03605L3.4846 10.499H2.6C2.17565 10.499 1.76869 10.6676 1.46863 10.9677C1.16857 11.2677 1 11.6747 1 12.0991V16.1999L3.3312 16.7887C3.39715 17.3121 3.64556 17.7954 4.03272 18.1537C4.41988 18.5119 4.92098 18.7221 5.44786 18.7474C5.97474 18.7726 6.49363 18.6112 6.91324 18.2915C7.33284 17.9719 7.62627 17.5145 7.7419 16.9998H16.1168C16.229 17.4969 16.5069 17.941 16.9049 18.2591C17.3029 18.5773 17.7973 18.7506 18.3068 18.7506C18.8163 18.7506 19.3107 18.5773 19.7087 18.2591C20.1067 17.941 20.3846 17.4969 20.4968 16.9998H23V13.2558ZM9.004 5.96865H12.1367L12.3105 6.83235H8.8482L9.004 5.96865ZM6.25 8.38555C6.57663 8.05306 6.96603 7.78875 7.39562 7.60796C7.8252 7.42716 8.28642 7.33348 8.7525 7.33235H12.6855C13.341 7.33083 13.9706 7.58827 14.4372 8.04865L16.9322 10.4987H4.1837L6.25 8.38555ZM5.5521 18.2498C5.20598 18.2498 4.86764 18.1472 4.57985 17.9549C4.29207 17.7626 4.06776 17.4893 3.93531 17.1695C3.80286 16.8498 3.7682 16.4979 3.83573 16.1584C3.90325 15.819 4.06992 15.5072 4.31466 15.2624C4.5594 15.0177 4.87123 14.851 5.21069 14.7835C5.55016 14.716 5.90203 14.7506 6.2218 14.8831C6.54157 15.0155 6.81488 15.2398 7.00717 15.5276C7.19946 15.8154 7.3021 16.1537 7.3021 16.4998C7.3016 16.9638 7.11706 17.4087 6.78898 17.7367C6.4609 18.0648 6.01607 18.2493 5.5521 18.2498ZM18.3066 18.2498C17.9605 18.2498 17.6221 18.1472 17.3344 17.9549C17.0466 17.7626 16.8223 17.4893 16.6898 17.1695C16.5574 16.8498 16.5227 16.4979 16.5902 16.1584C16.6577 15.819 16.8244 15.5072 17.0692 15.2624C17.3139 15.0177 17.6257 14.851 17.9652 14.7835C18.3047 14.716 18.6565 14.7506 18.9763 14.8831C19.2961 15.0155 19.5694 15.2398 19.7617 15.5276C19.954 15.8154 20.0566 16.1537 20.0566 16.4998C20.0561 16.9638 19.8716 17.4087 19.5435 17.7367C19.2154 18.0648 18.7706 18.2493 18.3066 18.2498ZM22.5 16.4998H20.5566C20.5566 15.9031 20.3195 15.3308 19.8976 14.9089C19.4756 14.4869 18.9033 14.2498 18.3066 14.2498C17.7099 14.2498 17.1376 14.4869 16.7156 14.9089C16.2937 15.3308 16.0566 15.9031 16.0566 16.4998H7.8021C7.80376 15.9234 7.5835 15.3684 7.18699 14.9499C6.79047 14.5315 6.24812 14.2816 5.67239 14.2523C5.09666 14.2229 4.53171 14.4163 4.09469 14.7922C3.65766 15.1682 3.38209 15.6979 3.3251 16.2715L1.5 15.8104V12.0991C1.50032 11.8074 1.61631 11.5278 1.82253 11.3216C2.02875 11.1154 2.30836 10.9994 2.6 10.999H17.6219C19.0857 11.0791 20.517 11.4612 21.826 12.1211C22.0317 12.2301 22.2035 12.3937 22.3224 12.5938C22.4413 12.794 22.5027 13.023 22.5 13.2558V16.4998Z" fill="black"/>
</svg>
