<svg width="24" height="24" viewBox="0 0 24 24" fill="none" xmlns="http://www.w3.org/2000/svg">
<path d="M20.125 8.75624L22.7031 3.89084H20.125V0.744141L17.5469 5.60964H20.125V8.75624ZM22.0557 12.8046C20.5801 11.9836 18.9262 11.5358 17.238 11.5002L14.6365 8.77914C14.2787 8.40347 13.8484 8.10438 13.3715 7.90001C12.8947 7.69564 12.3813 7.59025 11.8625 7.59024H9.5977C8.92729 7.59029 8.26423 7.72991 7.65072 8.00021C7.03721 8.27051 6.48669 8.66557 6.0342 9.16024L3.8853 11.5002H2.7839C2.31083 11.5002 1.85714 11.6881 1.5226 12.0226C1.18806 12.3571 1.00008 12.8108 1 13.2838V18.2002L3.7148 18.8861C3.86493 19.4132 4.1798 19.8785 4.61334 20.2138C5.04689 20.549 5.57635 20.7368 6.12426 20.7496C6.67218 20.7623 7.2098 20.5994 7.65847 20.2846C8.10714 19.9699 8.44331 19.5198 8.6178 19.0002H15.1332C15.3044 19.5101 15.6314 19.9534 16.0681 20.2674C16.5048 20.5814 17.0291 20.7503 17.5669 20.7503C18.1048 20.7503 18.6291 20.5814 19.0658 20.2674C19.5025 19.9534 19.8295 19.5101 20.0007 19.0002H23V14.4469C23.001 14.1143 22.9143 13.7873 22.7485 13.4989C22.5827 13.2106 22.3437 12.9711 22.0557 12.8046ZM7.1172 10.1546C7.43226 9.81031 7.81546 9.53522 8.24247 9.34682C8.66947 9.15843 9.13098 9.06083 9.5977 9.06024H11.8623C12.182 9.06095 12.4983 9.12628 12.7922 9.25231C13.0861 9.37834 13.3514 9.56247 13.5723 9.79364L15.24 11.5366H5.8473L7.1172 10.1546ZM6.1841 19.4169C5.93687 19.4169 5.6952 19.3436 5.48964 19.2063C5.28408 19.0689 5.12386 18.8737 5.02925 18.6453C4.93464 18.4169 4.90989 18.1656 4.95812 17.9231C5.00635 17.6806 5.1254 17.4579 5.30022 17.2831C5.47503 17.1082 5.69776 16.9892 5.94024 16.941C6.18271 16.8927 6.43405 16.9175 6.66245 17.0121C6.89086 17.1067 7.08608 17.2669 7.22344 17.4725C7.36079 17.678 7.4341 17.9197 7.4341 18.1669C7.4337 18.4983 7.30188 18.816 7.06754 19.0504C6.8332 19.2847 6.51549 19.4165 6.1841 19.4168V19.4169ZM17.567 19.4169C17.3198 19.4169 17.0781 19.3436 16.8725 19.2063C16.667 19.0689 16.5068 18.8737 16.4122 18.6453C16.3175 18.4169 16.2928 18.1656 16.341 17.9231C16.3892 17.6806 16.5083 17.4579 16.6831 17.2831C16.8579 17.1082 17.0807 16.9892 17.3231 16.941C17.5656 16.8927 17.8169 16.9175 18.0454 17.0121C18.2738 17.1067 18.469 17.2669 18.6063 17.4725C18.7437 17.678 18.817 17.9197 18.817 18.1669C18.8166 18.4983 18.6848 18.816 18.4504 19.0504C18.2161 19.2847 17.8984 19.4165 17.567 19.4168V19.4169ZM21.53 17.5302H20.062C19.9227 16.974 19.6015 16.4803 19.1494 16.1276C18.6974 15.7748 18.1404 15.5832 17.567 15.5832C16.9936 15.5832 16.4366 15.7748 15.9846 16.1276C15.5325 16.4803 15.2113 16.974 15.072 17.5302H8.679C8.54348 16.9875 8.23456 16.5039 7.79915 16.1527C7.36374 15.8016 6.82563 15.6021 6.26654 15.5846C5.70744 15.5671 5.1579 15.7325 4.70138 16.0557C4.24486 16.379 3.9063 16.8424 3.7371 17.3755L2.4697 17.0555V13.2834C2.47002 13.2002 2.50329 13.1205 2.56223 13.0618C2.62117 13.003 2.70098 12.97 2.7842 12.9699H17.1761C18.6279 12.9988 20.0509 13.3795 21.3232 14.0793C21.387 14.1169 21.4397 14.1707 21.476 14.2352C21.5124 14.2996 21.5311 14.3725 21.5303 14.4465L21.53 17.5302Z" fill="black"/>
</svg>
