<svg width="24" height="24" viewBox="0 0 24 24" fill="none" xmlns="http://www.w3.org/2000/svg">
<path d="M23 13.7599C23 13.4657 22.935 13.1751 22.8097 12.9089C22.6844 12.6427 22.5018 12.4074 22.2751 12.2199L20.3978 10.6665L18.57 7.2515C18.3139 6.77265 17.9325 6.37231 17.4667 6.09317C17.0009 5.81403 16.4681 5.66656 15.925 5.6665H1V17.4721L3.54 17.728C3.59196 18.2583 3.83114 18.7527 4.21465 19.1226C4.59817 19.4925 5.10092 19.7136 5.63273 19.7463C6.16454 19.7791 6.69062 19.6213 7.1166 19.3012C7.54258 18.9812 7.8406 18.5198 7.9572 17.9999H16.22C16.3354 18.5128 16.6273 18.9689 17.0449 19.2884C17.4624 19.6079 17.9789 19.7705 18.5042 19.7478C19.0295 19.725 19.53 19.5184 19.9184 19.1639C20.3067 18.8095 20.5581 18.3299 20.6287 17.8089L23 17.6527V13.7599ZM2 6.6669H15.9248C16.2868 6.66631 16.6421 6.76426 16.9526 6.95024C17.2631 7.13622 17.5172 7.40322 17.6875 7.7226L19.2628 10.6665H2V6.6669ZM5.7673 18.8332C5.50357 18.8332 5.24576 18.755 5.02646 18.6085C4.80717 18.462 4.63625 18.2538 4.53532 18.0101C4.43438 17.7665 4.40797 17.4984 4.45942 17.2397C4.51086 16.981 4.63786 16.7434 4.82434 16.5569C5.01083 16.3705 5.24843 16.2435 5.50709 16.192C5.76575 16.1406 6.03387 16.167 6.27752 16.2679C6.52117 16.3689 6.72941 16.5398 6.87592 16.7591C7.02243 16.9784 7.10062 17.2362 7.1006 17.4999C7.10018 17.8534 6.95957 18.1923 6.70962 18.4422C6.45967 18.6922 6.12078 18.8328 5.7673 18.8332ZM18.4097 18.8332C18.146 18.8332 17.8882 18.755 17.6689 18.6085C17.4496 18.462 17.2787 18.2538 17.1777 18.0101C17.0768 17.7665 17.0504 17.4984 17.1018 17.2397C17.1533 16.981 17.2803 16.7434 17.4667 16.5569C17.6532 16.3705 17.8908 16.2435 18.1495 16.192C18.4082 16.1406 18.6763 16.167 18.9199 16.2679C19.1636 16.3689 19.3718 16.5398 19.5183 16.7591C19.6648 16.9784 19.743 17.2362 19.743 17.4999C19.7426 17.8533 19.602 18.1922 19.3521 18.4421C19.1022 18.6921 18.7634 18.8327 18.41 18.8332H18.4097ZM22 16.7157L20.5413 16.812C20.3925 16.3426 20.0932 15.9352 19.6896 15.6531C19.286 15.3709 18.8007 15.2295 18.3087 15.2509C17.8167 15.2723 17.3455 15.4552 16.9679 15.7714C16.5903 16.0876 16.3275 16.5193 16.22 16.9999H7.9572C7.85059 16.5264 7.59318 16.1002 7.22363 15.7855C6.85409 15.4708 6.39239 15.2845 5.90791 15.2547C5.42344 15.2249 4.94237 15.3531 4.53701 15.6201C4.13165 15.8871 3.8239 16.2784 3.66 16.7353L2 16.5683V11.6665H20.0367L21.6377 12.9901C21.7512 13.0838 21.8426 13.2015 21.9053 13.3347C21.9679 13.4679 22.0003 13.6134 22 13.7606V16.7157Z" fill="black"/>
</svg>
