<svg width="24" height="24" viewBox="0 0 24 24" fill="none" xmlns="http://www.w3.org/2000/svg">
<path d="M4 16.0001C3.50555 16.0001 3.0222 16.1467 2.61108 16.4214C2.19995 16.6961 1.87952 17.0866 1.6903 17.5434C1.50108 18.0002 1.45157 18.5029 1.54804 18.9878C1.6445 19.4728 1.8826 19.9182 2.23223 20.2679C2.58187 20.6175 3.02732 20.8556 3.51228 20.9521C3.99723 21.0485 4.49989 20.999 4.95671 20.8098C5.41352 20.6206 5.80397 20.3001 6.07867 19.889C6.35338 19.4779 6.5 18.9946 6.5 18.5001C6.5 17.8371 6.23661 17.2012 5.76777 16.7323C5.29893 16.2635 4.66304 16.0001 4 16.0001ZM4 20.0001C3.70333 20.0001 3.41332 19.9121 3.16665 19.7473C2.91997 19.5825 2.72771 19.3482 2.61418 19.0741C2.50065 18.8 2.47095 18.4984 2.52882 18.2075C2.5867 17.9165 2.72956 17.6492 2.93934 17.4394C3.14912 17.2297 3.41639 17.0868 3.70737 17.0289C3.99834 16.971 4.29994 17.0007 4.57403 17.1143C4.84812 17.2278 5.08238 17.4201 5.24721 17.6667C5.41203 17.9134 5.5 18.2034 5.5 18.5001C5.49955 18.8978 5.34137 19.2791 5.06016 19.5603C4.77896 19.8415 4.39769 19.9996 4 20.0001ZM19 16.0001C18.9753 16.0001 18.9524 16.0066 18.928 16.0074L16.2461 2.6001H12.918C12.8118 2.6001 12.71 2.64228 12.6349 2.71737C12.5598 2.79246 12.5176 2.89431 12.5176 3.0005C12.5176 3.10669 12.5598 3.20853 12.6349 3.28362C12.71 3.35871 12.8118 3.4009 12.918 3.4009H15.59L17.5911 13.4051L12.8965 18.1001H6.5V18.9001H13.2285L17.78 14.3492L18.1424 16.1607C17.5627 16.3802 17.0863 16.8088 16.8069 17.362C16.5274 17.9153 16.4653 18.5532 16.6328 19.15C16.8002 19.7467 17.1851 20.2592 17.7115 20.5864C18.2379 20.9135 18.8678 21.0317 19.4771 20.9176C20.0863 20.8035 20.6307 20.4655 21.0031 19.97C21.3755 19.4745 21.5488 18.8575 21.489 18.2405C21.4291 17.6236 21.1404 17.0515 20.6798 16.6368C20.2191 16.2221 19.6198 15.995 19 16.0001ZM19 20.0001C18.7033 20.0001 18.4133 19.9121 18.1666 19.7473C17.92 19.5825 17.7277 19.3482 17.6142 19.0741C17.5007 18.8 17.4709 18.4984 17.5288 18.2075C17.5867 17.9165 17.7296 17.6492 17.9393 17.4394C18.1491 17.2297 18.4164 17.0868 18.7074 17.0289C18.9983 16.971 19.2999 17.0007 19.574 17.1143C19.8481 17.2278 20.0824 17.4201 20.2472 17.6667C20.412 17.9134 20.5 18.2034 20.5 18.5001C20.4996 18.8978 20.3414 19.2791 20.0602 19.5603C19.779 19.8415 19.3977 19.9996 19 20.0001Z" fill="black"/>
</svg>
