<svg width="24" height="24" viewBox="0 0 24 24" fill="none" xmlns="http://www.w3.org/2000/svg">
<g clip-path="url(#clip0)">
<path d="M19 10C18.8163 10.0082 18.6331 10.0266 18.4515 10.0553L16.582 3.0791H13.2646C13.0657 3.0791 12.8749 3.15812 12.7343 3.29877C12.5936 3.43942 12.5146 3.63019 12.5146 3.8291C12.5146 4.02801 12.5936 4.21878 12.7343 4.35943C12.8749 4.50008 13.0657 4.5791 13.2646 4.5791H15.4316L16.1562 7.2842H7.58758L7.20058 5.8385L8.66669 5.1445V4.5H4.55358C4.35467 4.5 4.16391 4.57902 4.02325 4.71967C3.8826 4.86032 3.80358 5.05109 3.80358 5.25C3.80358 5.44891 3.8826 5.63968 4.02325 5.78033C4.16391 5.92098 4.35467 6 4.55358 6H5.69058L6.16258 7.7632L5.54848 10.0553C5.36683 10.0266 5.18371 10.0082 4.99998 10C4.04231 9.99636 3.10374 10.2678 2.29587 10.7821C1.488 11.2964 0.844826 12.0319 0.442818 12.9011C0.0408091 13.7703 -0.103116 14.7367 0.0281551 15.6853C0.159427 16.634 0.560372 17.525 1.18332 18.2523C1.80626 18.9797 2.62499 19.5129 3.54216 19.7885C4.45934 20.0641 5.43636 20.0704 6.35705 19.8069C7.27774 19.5433 8.10338 19.0209 8.73577 18.3017C9.36817 17.5825 9.78073 16.6968 9.92439 15.75H12.18L14.0472 8.7842H16.5584L16.9976 10.4236C15.8678 10.9213 14.9627 11.8202 14.457 12.9464C13.9513 14.0726 13.881 15.3462 14.2597 16.5213C14.6383 17.6963 15.439 18.6893 16.5071 19.3083C17.5752 19.9274 18.8348 20.1286 20.0426 19.8731C21.2504 19.6176 22.3206 18.9235 23.0465 17.925C23.7724 16.9264 24.1024 15.6942 23.9727 14.4665C23.8431 13.2388 23.263 12.1027 22.3446 11.2778C21.4261 10.4528 20.2345 9.99759 19 10ZM4.99998 18.5C4.07173 18.5 3.18149 18.1313 2.52511 17.4749C1.86873 16.8185 1.49998 15.9283 1.49998 15C1.49998 14.0717 1.86873 13.1815 2.52511 12.5251C3.18149 11.8688 4.07173 11.5 4.99998 11.5C5.05368 11.5 5.10379 11.5134 5.15698 11.5159L4.27538 14.8059C4.24561 14.917 4.2418 15.0335 4.26425 15.1464C4.28671 15.2592 4.33482 15.3654 4.40487 15.4566C4.47492 15.5479 4.56503 15.6218 4.66822 15.6727C4.77142 15.7236 4.88493 15.75 4.99998 15.75H8.41459C8.24324 16.5285 7.81151 17.2253 7.19069 17.7252C6.56988 18.2252 5.7971 18.4985 4.99998 18.5ZM6.60468 11.908C7.05927 12.1423 7.45694 12.4734 7.76967 12.8781C8.0824 13.2827 8.30258 13.751 8.41468 14.25H5.97748L6.60468 11.908ZM11.0293 14.25H9.92439C9.79975 13.4174 9.46646 12.63 8.95555 11.9609C8.44464 11.2918 7.77273 10.7629 7.00238 10.4234L7.44138 8.7842H12.4941L11.0293 14.25ZM19 18.5C18.2164 18.5026 17.4547 18.2412 16.8377 17.758C16.2208 17.2749 15.7844 16.5981 15.5991 15.8367C15.4137 15.0753 15.49 14.2737 15.8158 13.561C16.1416 12.8483 16.6979 12.2661 17.395 11.9081L18.275 15.1943C18.3265 15.3865 18.4523 15.5503 18.6246 15.6498C18.7099 15.699 18.8041 15.731 18.9018 15.7438C18.9995 15.7566 19.0987 15.7501 19.1939 15.7246C19.289 15.6991 19.3782 15.6551 19.4564 15.5951C19.5345 15.5351 19.6001 15.4603 19.6493 15.375C19.6986 15.2897 19.7305 15.1955 19.7434 15.0978C19.7562 15.0001 19.7497 14.9009 19.7242 14.8057L18.8426 11.5157C18.8957 11.5132 18.9459 11.4998 18.9996 11.4998C19.9278 11.4998 20.8181 11.8686 21.4745 12.5249C22.1308 13.1813 22.4996 14.0715 22.4996 14.9998C22.4996 15.9281 22.1308 16.8183 21.4745 17.4747C20.8181 18.1311 19.9278 18.4998 18.9996 18.4998L19 18.5Z" fill="black"/>
</g>
<defs>
<clipPath id="clip0">
<rect width="24" height="24" fill="white"/>
</clipPath>
</defs>
</svg>
