<svg width="24" height="24" viewBox="0 0 24 24" fill="none" xmlns="http://www.w3.org/2000/svg">
<path d="M22.5781 4.21091H20.4681L18.9081 1.21191H17.7754L18.3625 4.21091H16.57L15.96 3.19621H15.191V6.77781H15.96L16.57 5.76311H18.3627L17.7756 8.74651H18.9089L20.4689 5.76311H22.5789C22.7847 5.76311 22.9821 5.68135 23.1277 5.5358C23.2732 5.39025 23.355 5.19285 23.355 4.98701C23.355 4.78118 23.2732 4.58378 23.1277 4.43823C22.9821 4.29268 22.7847 4.21091 22.5789 4.21091H22.5781ZM4.6719 15.9244C4.47412 15.9244 4.28078 15.9831 4.11633 16.0929C3.95188 16.2028 3.82371 16.359 3.74802 16.5417C3.67233 16.7245 3.65253 16.9255 3.69111 17.1195C3.7297 17.3135 3.82494 17.4917 3.96479 17.6315C4.10465 17.7714 4.28283 17.8666 4.47681 17.9052C4.67079 17.9438 4.87186 17.924 5.05458 17.8483C5.23731 17.7726 5.39349 17.6444 5.50337 17.48C5.61325 17.3155 5.6719 17.1222 5.6719 16.9244C5.6719 16.6592 5.56654 16.4048 5.37901 16.2173C5.19147 16.0298 4.93712 15.9244 4.6719 15.9244ZM11.3281 15.9244C11.1303 15.9244 10.937 15.9831 10.7725 16.0929C10.6081 16.2028 10.4799 16.359 10.4042 16.5417C10.3285 16.7245 10.3087 16.9255 10.3473 17.1195C10.3859 17.3135 10.4811 17.4917 10.621 17.6315C10.7608 17.7714 10.939 17.8666 11.133 17.9052C11.327 17.9438 11.5281 17.924 11.7108 17.8483C11.8935 17.7726 12.0497 17.6444 12.1596 17.48C12.2695 17.3155 12.3281 17.1222 12.3281 16.9244C12.3281 16.6592 12.2227 16.4048 12.0352 16.2173C11.8477 16.0298 11.5933 15.9244 11.3281 15.9244ZM12.6055 7.44311C12.2854 7.37006 11.9582 7.33316 11.6299 7.33311H4.3716C4.04564 7.33308 3.72068 7.369 3.4026 7.44021C2.81029 7.573 2.277 7.89425 1.88272 8.35578C1.48844 8.81731 1.25444 9.39423 1.2158 10C1.07193 12.197 1 14.3967 1 16.5992V22.34C1 22.5151 1.06954 22.6829 1.19331 22.8067C1.31708 22.9305 1.48496 23 1.66 23H1.99C2.16504 23 2.33292 22.9305 2.45669 22.8067C2.58046 22.6829 2.65 22.5151 2.65 22.34V21H13.35V22.34C13.35 22.5151 13.4195 22.6829 13.5433 22.8067C13.6671 22.9305 13.835 23 14.01 23H14.34C14.515 23 14.6829 22.9305 14.8067 22.8067C14.9305 22.6829 15 22.5151 15 22.34V16.5992C15 14.3979 14.9281 12.1982 14.7842 10C14.7456 9.39577 14.5126 8.82023 14.1199 8.35938C13.7272 7.89852 13.196 7.57709 12.6055 7.44311ZM2.7126 10.0955C2.73619 9.75356 2.88846 9.43324 3.13874 9.19905C3.38902 8.96485 3.71873 8.83417 4.0615 8.83331H11.9385C12.2813 8.83417 12.611 8.96485 12.8613 9.19905C13.1115 9.43324 13.2638 9.75356 13.2874 10.0955C13.3574 11.1703 13.4106 12.2535 13.4462 13.3372H2.554C2.5894 12.2535 2.6423 11.17 2.7126 10.0955ZM13.5 19.5H2.5V16.5992C2.5 16.0143 2.5186 15.425 2.5289 14.8372H13.4711C13.4811 15.425 13.5 16.0143 13.5 16.5992V19.5Z" fill="black"/>
</svg>
