<svg width="24" height="24" viewBox="0 0 24 24" fill="none" xmlns="http://www.w3.org/2000/svg">
<path d="M19.2512 5.507C19.1344 4.80649 18.773 4.17012 18.2311 3.7111C17.6892 3.25207 17.0021 3.00017 16.2919 3.0002H12.75V1.8455L16 1.2202V0.333496H8V1.2202L11.25 1.8454V3.0002H7.7081C6.99793 3.00017 6.31078 3.25207 5.7689 3.7111C5.22702 4.17012 4.86555 4.80649 4.7488 5.507C4.36139 7.8318 4.1667 10.1846 4.1667 12.5415V17.5002C4.1667 18.1632 4.43009 18.7991 4.89893 19.268C5.36777 19.7368 6.00366 20.0002 6.6667 20.0002H8.4309L6.6987 23.0002H8.45L10.1822 20.0002H13.8184L15.55 23.0002H17.301L15.5688 20.0002H17.333C17.996 20.0002 18.6319 19.7368 19.1008 19.268C19.5696 18.7991 19.833 18.1632 19.833 17.5002V12.5415C19.8331 10.1846 19.6385 7.83181 19.2512 5.507ZM7.2 16.5127C6.96266 16.5127 6.73065 16.4423 6.53331 16.3105C6.33598 16.1786 6.18217 15.9912 6.09134 15.7719C6.00052 15.5526 5.97675 15.3114 6.02306 15.0786C6.06936 14.8458 6.18365 14.632 6.35147 14.4642C6.51929 14.2963 6.73311 14.1821 6.96589 14.1358C7.19867 14.0895 7.43995 14.1132 7.65922 14.204C7.87849 14.2949 8.0659 14.4487 8.19776 14.646C8.32962 14.8434 8.4 15.0754 8.4 15.3127C8.4 15.631 8.27357 15.9362 8.04853 16.1612C7.82348 16.3863 7.51826 16.5127 7.2 16.5127ZM16.7807 16.5127C16.5434 16.5127 16.3114 16.4423 16.114 16.3105C15.9167 16.1786 15.7629 15.9912 15.672 15.7719C15.5812 15.5526 15.5575 15.3114 15.6038 15.0786C15.6501 14.8458 15.7643 14.632 15.9322 14.4642C16.1 14.2963 16.3138 14.1821 16.5466 14.1358C16.7794 14.0895 17.0206 14.1132 17.2399 14.204C17.4592 14.2949 17.6466 14.4487 17.7785 14.646C17.9103 14.8434 17.9807 15.0754 17.9807 15.3127C17.9807 15.631 17.8543 15.9362 17.6292 16.1612C17.4042 16.3863 17.099 16.5127 16.7807 16.5127ZM5.6779 12.0002C5.70326 9.90707 5.88732 7.81888 6.2285 5.7536C6.28596 5.40293 6.46643 5.0842 6.73756 4.85452C7.00869 4.62484 7.35276 4.49923 7.7081 4.5002H16.2919C16.6473 4.49913 16.9915 4.6247 17.2627 4.85439C17.5339 5.08408 17.7144 5.40287 17.7719 5.7536C18.1129 7.81889 18.2969 9.90708 18.3221 12.0002H5.6779Z" fill="black"/>
</svg>
