<svg width="24" height="24" viewBox="0 0 24 24" fill="none" xmlns="http://www.w3.org/2000/svg">
<path d="M20.125 9.41158L23.125 3.74998H20.125V0.0883789L17.125 5.74998H20.125V9.41158ZM22.021 13.24C20.4793 12.4844 18.7958 12.0619 17.08 12L14.3689 9.14078C14.0274 8.7782 13.6154 8.48929 13.1581 8.29181C12.7009 8.09434 12.2081 7.99247 11.71 7.99248H9.2959C8.67353 7.99244 8.05796 8.12189 7.48832 8.37261C6.91869 8.62332 6.40745 8.98981 5.9871 9.44878L3.6592 12H2.6919C2.24329 12 1.81306 12.1782 1.49579 12.4953C1.17852 12.8125 1.00019 13.2427 1 13.6913V17.4444L3.2424 17.8378C3.3351 18.4077 3.62281 18.9277 4.05637 19.309C4.48994 19.6903 5.04245 19.9092 5.61951 19.9284C6.19658 19.9475 6.76239 19.7657 7.22028 19.414C7.67817 19.0623 7.99972 18.5625 8.13 18H16.0165C16.1438 18.5488 16.4531 19.0383 16.8942 19.3888C17.3352 19.7393 17.882 19.93 18.4454 19.93C19.0087 19.93 19.5555 19.7393 19.9965 19.3888C20.4376 19.0383 20.7469 18.5488 20.8742 18H23V14.9212C23.0019 14.579 22.9121 14.2426 22.7399 13.947C22.5678 13.6513 22.3195 13.4072 22.021 13.24ZM5.7014 19.03C5.38495 19.03 5.07561 18.9361 4.81249 18.7603C4.54937 18.5845 4.34429 18.3346 4.22319 18.0423C4.10209 17.7499 4.07041 17.4282 4.13214 17.1178C4.19388 16.8075 4.34627 16.5224 4.57003 16.2986C4.79379 16.0748 5.07889 15.9225 5.38926 15.8607C5.69963 15.799 6.02133 15.8307 6.31369 15.9518C6.60606 16.0729 6.85594 16.2779 7.03175 16.5411C7.20756 16.8042 7.3014 17.1135 7.3014 17.43C7.3009 17.8542 7.13216 18.2608 6.83222 18.5608C6.53227 18.8607 6.12559 19.0295 5.7014 19.03ZM4.9565 12L6.7165 10.082C7.04668 9.72821 7.44598 9.44602 7.88967 9.25288C8.33337 9.05975 8.81199 8.95978 9.2959 8.95918H11.71C12.4047 8.95767 13.0729 9.22566 13.574 9.70678C13.6008 9.73038 13.8585 9.98468 13.8818 10.0126L15.8071 12H4.9565ZM18.4454 19.03C18.129 19.03 17.8196 18.9361 17.5565 18.7603C17.2934 18.5845 17.0883 18.3346 16.9672 18.0423C16.8461 17.7499 16.8144 17.4282 16.8761 17.1178C16.9379 16.8075 17.0903 16.5224 17.314 16.2986C17.5378 16.0748 17.8229 15.9225 18.1333 15.8607C18.4436 15.799 18.7653 15.8307 19.0577 15.9518C19.3501 16.0729 19.5999 16.2779 19.7758 16.5411C19.9516 16.8042 20.0454 17.1135 20.0454 17.43C20.0449 17.8542 19.8762 18.2609 19.5762 18.5608C19.2763 18.8608 18.8696 19.0295 18.4454 19.03Z" fill="black"/>
</svg>
