<svg width="24" height="24" viewBox="0 0 24 24" fill="none" xmlns="http://www.w3.org/2000/svg">
<path d="M22.5781 4.21091H20.4681L18.9081 1.21191H17.7754L18.3625 4.21091H16.57L15.96 3.19621H15.191V6.77781H15.96L16.57 5.76311H18.3627L17.7756 8.74651H18.9089L20.4689 5.76311H22.5789C22.7847 5.76311 22.9821 5.68135 23.1277 5.5358C23.2732 5.39025 23.355 5.19285 23.355 4.98701C23.355 4.78118 23.2732 4.58378 23.1277 4.43823C22.9821 4.29268 22.7847 4.21091 22.5789 4.21091H22.5781ZM14.7842 9.81291C14.7457 9.2086 14.5127 8.63297 14.12 8.17203C13.7273 7.7111 13.196 7.38961 12.6055 7.25561C12.2854 7.18256 11.9582 7.14566 11.6299 7.14561H4.3716C4.04564 7.14558 3.72068 7.1815 3.4026 7.25271C2.81026 7.38551 2.27695 7.70679 1.88266 8.16836C1.48838 8.62993 1.2544 9.2069 1.2158 9.81271C1.0784 11.9053 1.0067 14.0006 1.0007 16.0987C1 16.2032 1 22.34 1 22.34C1 22.5151 1.06954 22.6829 1.19331 22.8067C1.31708 22.9305 1.48496 23 1.66 23H2.34C2.51504 23 2.68292 22.9305 2.80669 22.8067C2.93046 22.6829 3 22.5151 3 22.34V21.1458H13V22.34C13 22.5151 13.0695 22.6829 13.1933 22.8067C13.3171 22.9305 13.485 23 13.66 23H14.34C14.515 23 14.6829 22.9305 14.8067 22.8067C14.9305 22.6829 15 22.5151 15 22.34C15 22.34 15 16.2157 14.9994 16.1177C14.9937 14.0144 14.922 11.9128 14.7842 9.81291ZM3.9326 18.3271C3.73054 18.3271 3.53302 18.2672 3.365 18.155C3.19699 18.0427 3.06603 17.8832 2.98869 17.6965C2.91136 17.5099 2.89111 17.3044 2.93052 17.1063C2.96993 16.9081 3.06722 16.7261 3.21008 16.5832C3.35295 16.4403 3.53499 16.343 3.73316 16.3036C3.93133 16.2641 4.13675 16.2843 4.32343 16.3617C4.51011 16.439 4.66966 16.5699 4.78192 16.7379C4.89418 16.9059 4.9541 17.1035 4.9541 17.3055C4.95411 17.4397 4.9277 17.5725 4.87637 17.6965C4.82504 17.8204 4.7498 17.933 4.65494 18.0279C4.56009 18.1228 4.44747 18.198 4.32353 18.2493C4.19959 18.3007 4.06675 18.3271 3.9326 18.3271ZM12.0674 18.3271C11.8653 18.3271 11.6678 18.2672 11.4998 18.155C11.3318 18.0427 11.2008 17.8832 11.1235 17.6965C11.0462 17.5099 11.0259 17.3044 11.0653 17.1063C11.1047 16.9081 11.202 16.7261 11.3449 16.5832C11.4878 16.4403 11.6698 16.343 11.868 16.3036C12.0661 16.2641 12.2715 16.2843 12.4582 16.3617C12.6449 16.439 12.8045 16.5699 12.9167 16.7379C13.029 16.9059 13.0889 17.1035 13.0889 17.3055C13.0889 17.4397 13.0625 17.5725 13.0112 17.6965C12.9598 17.8204 12.8846 17.933 12.7897 18.0279C12.6949 18.1228 12.5823 18.198 12.4583 18.2493C12.3344 18.3007 12.2016 18.3271 12.0674 18.3271ZM2.5342 14.3333C2.5652 12.8551 2.6167 11.3749 2.7126 9.90801C2.73619 9.56606 2.88846 9.24574 3.13874 9.01155C3.38902 8.77735 3.71873 8.64667 4.0615 8.64581H11.9385C12.2812 8.64669 12.6109 8.77737 12.8612 9.01154C13.1115 9.24571 13.2638 9.56599 13.2874 9.90791C13.3833 11.3749 13.4348 12.8551 13.4658 14.3333H2.5342Z" fill="black"/>
</svg>
