<svg width="24" height="24" viewBox="0 0 24 24" fill="none" xmlns="http://www.w3.org/2000/svg">
<path d="M8 21.0002H20L21 19.2002H8V21.0002ZM23.1 3.2002H0.9C0.661305 3.2002 0.432387 3.29502 0.263604 3.4638C0.0948212 3.63258 1.89661e-08 3.8615 1.89661e-08 4.1002C1.89661e-08 4.33889 0.0948212 4.56781 0.263604 4.73659C0.432387 4.90537 0.661305 5.0002 0.9 5.0002H11.1V8.0002H3.5208L2.6458 6.0002H0L0.9649 11.6252H7.6484L10 17.0002H19.16C19.722 17.0002 20.2713 16.8334 20.7385 16.521C21.2056 16.2086 21.5696 15.7645 21.7842 15.2451C21.9988 14.7257 22.0545 14.1543 21.9441 13.6033C21.8338 13.0522 21.5624 12.5463 21.1643 12.1496L17.5854 8.5835C17.2105 8.20992 16.7028 8.00017 16.1736 8.0002H12.9V5.0002H23.1C23.2182 5.0002 23.3352 4.97692 23.4444 4.93169C23.5536 4.88646 23.6528 4.82016 23.7364 4.73659C23.82 4.65302 23.8863 4.5538 23.9315 4.44461C23.9767 4.33542 24 4.21838 24 4.1002C24 3.98201 23.9767 3.86497 23.9315 3.75578C23.8863 3.64659 23.82 3.54737 23.7364 3.4638C23.6528 3.38023 23.5536 3.31393 23.4444 3.2687C23.3352 3.22347 23.2182 3.2002 23.1 3.2002ZM12.9032 9.9002H16.1732C16.1863 9.90015 16.1993 9.90269 16.2114 9.90769C16.2235 9.91268 16.2345 9.92003 16.2438 9.9293L18.9229 12.5993H14.6667C14.4351 12.5993 14.2058 12.5537 13.9918 12.4651C13.7779 12.3765 13.5834 12.2466 13.4197 12.0828C13.2559 11.919 13.126 11.7246 13.0374 11.5107C12.9488 11.2967 12.9032 11.0674 12.9032 10.8358V9.9002Z" fill="black"/>
</svg>
