<svg width="24" height="24" viewBox="0 0 24 24" fill="none" xmlns="http://www.w3.org/2000/svg">
<path d="M11.31 18L9.5779 21H14.4221L12.69 18H11.31ZM16.06 11.5461C16.0598 10.129 15.8941 8.71669 15.5662 7.338C15.5301 7.18458 15.4432 7.04789 15.3195 6.9502C15.1958 6.85251 15.0427 6.79957 14.8851 6.8H9.1151C8.95751 6.79957 8.80441 6.85252 8.68075 6.95021C8.55709 7.0479 8.47016 7.18459 8.4341 7.338C8.10606 8.71667 7.94023 10.1289 7.94 11.5461V12H16.06V11.5461ZM12 1.5C9.7406 1.49857 7.53089 2.16314 5.64711 3.41065C3.76334 4.65816 2.28906 6.43326 1.40858 8.51404C0.528098 10.5948 0.280477 12.889 0.696671 15.1097C1.11287 17.3305 2.17441 19.3793 3.7486 21H7.2681L9 18H8.14C7.60957 18 7.10086 17.7893 6.72579 17.4142C6.35071 17.0391 6.14 16.5304 6.14 16V11.5461C6.13997 9.98858 6.32214 8.43639 6.6828 6.9212C6.81302 6.37403 7.12395 5.88676 7.56533 5.53814C8.00671 5.18952 8.55275 4.99993 9.1152 5H14.8852C15.4476 5 15.9936 5.18962 16.4349 5.53824C16.8762 5.88685 17.1871 6.37408 17.3173 6.9212C17.678 8.43639 17.8601 9.98858 17.8601 11.5461V16C17.8601 16.5304 17.6494 17.0391 17.2743 17.4142C16.8992 17.7893 16.3905 18 15.8601 18H15L16.7321 21H20.2521C21.8263 19.3792 22.8879 17.3303 23.3041 15.1095C23.7202 12.8887 23.4726 10.5945 22.592 8.51372C21.7114 6.43291 20.237 4.65782 18.3532 3.41036C16.4693 2.16291 14.2595 1.49843 12 1.5ZM16.1409 14.4479C16.1409 14.2501 16.0823 14.0568 15.9724 13.8923C15.8625 13.7279 15.7063 13.5997 15.5236 13.524C15.3409 13.4483 15.1398 13.4285 14.9458 13.4671C14.7518 13.5057 14.5736 13.6009 14.4338 13.7408C14.2939 13.8806 14.1987 14.0588 14.1601 14.2528C14.1215 14.4468 14.1413 14.6479 14.217 14.8306C14.2927 15.0133 14.4209 15.1695 14.5853 15.2794C14.7498 15.3893 14.9431 15.4479 15.1409 15.4479C15.4061 15.4479 15.6605 15.3425 15.848 15.155C16.0355 14.9675 16.1409 14.7131 16.1409 14.4479ZM8.8591 15.4479C9.05688 15.4479 9.25022 15.3893 9.41467 15.2794C9.57912 15.1695 9.70729 15.0133 9.78298 14.8306C9.85867 14.6479 9.87847 14.4468 9.83989 14.2528C9.8013 14.0588 9.70606 13.8806 9.56621 13.7408C9.42636 13.6009 9.24817 13.5057 9.05419 13.4671C8.86021 13.4285 8.65914 13.4483 8.47642 13.524C8.29369 13.5997 8.13751 13.7279 8.02763 13.8923C7.91775 14.0568 7.8591 14.2501 7.8591 14.4479C7.8591 14.7131 7.96446 14.9675 8.15199 15.155C8.33953 15.3425 8.59388 15.4479 8.8591 15.4479Z" fill="black"/>
</svg>
