<svg width="24" height="24" viewBox="0 0 24 24" fill="none" xmlns="http://www.w3.org/2000/svg">
<path d="M22.3958 14.5381C22.3986 14.1756 22.3016 13.8192 22.1153 13.5081C21.9291 13.1971 21.6609 12.9432 21.34 12.7744C19.9251 12.0616 18.3859 11.6286 16.8068 11.4991L14.1953 8.96301C13.4487 8.23823 12.4491 7.83289 11.4086 7.83301H5.24001L2.55511 10.6284C2.31422 10.8828 2.11987 11.1775 1.98091 11.4991H1.96211V11.5355C1.80301 11.9055 1.72025 12.3038 1.71881 12.7065V16.2L3.33561 16.8425C3.41172 17.3617 3.66744 17.8377 4.05828 18.1878C4.44913 18.5379 4.95035 18.7399 5.47473 18.7587C5.99912 18.7774 6.51347 18.6117 6.9283 18.2903C7.34312 17.969 7.63216 17.5124 7.74511 17H16.1136C16.2241 17.4994 16.5016 17.9461 16.9004 18.2664C17.2992 18.5866 17.7954 18.7611 18.3068 18.7611C18.8183 18.7611 19.3144 18.5866 19.7132 18.2664C20.112 17.9461 20.3896 17.4994 20.5 17H22.3963L22.3958 14.5381ZM2.91581 10.9747L5.45331 8.33251H11.4086C12.3195 8.33061 13.1949 8.68573 13.847 9.32171L16.0891 11.4991H2.54061C2.64241 11.3088 2.76846 11.1326 2.91561 10.9747H2.91581ZM5.55211 18.26C5.20599 18.26 4.86765 18.1574 4.57986 17.9651C4.29208 17.7728 4.06778 17.4995 3.93532 17.1797C3.80287 16.8599 3.76821 16.5081 3.83574 16.1686C3.90326 15.8291 4.06993 15.5173 4.31467 15.2726C4.55942 15.0278 4.87124 14.8612 5.2107 14.7936C5.55017 14.7261 5.90204 14.7608 6.22181 14.8932C6.54158 15.0257 6.81489 15.25 7.00718 15.5378C7.19948 15.8255 7.30211 16.1639 7.30211 16.51C7.30156 16.974 7.117 17.4188 6.78893 17.7468C6.46087 18.0749 6.01607 18.2595 5.55211 18.26ZM18.3065 18.26C17.9604 18.26 17.622 18.1574 17.3343 17.9651C17.0465 17.7728 16.8222 17.4995 16.6897 17.1797C16.5573 16.8599 16.5226 16.5081 16.5901 16.1686C16.6577 15.8291 16.8243 15.5173 17.0691 15.2726C17.3138 15.0278 17.6256 14.8612 17.9651 14.7936C18.3046 14.7261 18.6564 14.7608 18.9762 14.8932C19.296 15.0257 19.5693 15.25 19.7616 15.5378C19.9539 15.8255 20.0565 16.1639 20.0565 16.51C20.056 16.974 19.8714 17.4188 19.5433 17.7468C19.2153 18.0749 18.7705 18.2595 18.3065 18.26Z" fill="black"/>
</svg>
