<svg width="24" height="24" viewBox="0 0 24 24" fill="none" xmlns="http://www.w3.org/2000/svg">
<path d="M22 6.75C21.9985 5.49067 21.4976 4.28333 20.6072 3.39285C19.7167 2.50237 18.5093 2.00146 17.25 2C16.5571 2.00319 15.8734 2.15955 15.248 2.4579L15.2422 2.4453L1.8822 8.6753L2.517 10.0347L12.7643 5.2567C12.5958 5.73683 12.5065 6.24119 12.5 6.75C12.5022 7.74885 12.8221 8.72112 13.4133 9.5262L5.2012 17.7383L6.2617 18.7988L14.4739 10.5867C15.0767 11.039 15.7822 11.335 16.5273 11.4483C17.2723 11.5616 18.0339 11.4886 18.7439 11.236L13.9658 21.4834L15.3252 22.1182L21.5552 8.7582L21.5425 8.7523C21.8408 8.12677 21.997 7.443 22 6.75ZM15.5522 9.5083L17.78 7.28L16.72 6.22L14.492 8.4481C14.1727 7.93909 14.0023 7.35086 14 6.75C14 6.10721 14.1906 5.47886 14.5477 4.9444C14.9048 4.40994 15.4124 3.99338 16.0063 3.74739C16.6001 3.50141 17.2536 3.43705 17.884 3.56245C18.5145 3.68785 19.0936 3.99738 19.5481 4.4519C20.0026 4.90642 20.3122 5.48552 20.4376 6.11596C20.563 6.74639 20.4986 7.39986 20.2526 7.99372C20.0066 8.58758 19.5901 9.09516 19.0556 9.45228C18.5211 9.80939 17.8928 10 17.25 10C16.6493 9.99774 16.0612 9.82742 15.5522 9.5083Z" fill="black"/>
</svg>
