<svg width="24" height="24" viewBox="0 0 24 24" fill="none" xmlns="http://www.w3.org/2000/svg">
<path d="M23 9.7917L22.0159 7.2723C21.8695 6.89741 21.6133 6.57542 21.281 6.34843C20.9486 6.12144 20.5555 6 20.153 6H1V19H3.9731C4.03112 19.483 4.26414 19.928 4.62807 20.2508C4.992 20.5737 5.46162 20.7519 5.9481 20.7519C6.43458 20.7519 6.9042 20.5737 7.26813 20.2508C7.63206 19.928 7.86508 19.483 7.9231 19H16.7217C16.7869 19.4766 17.0225 19.9135 17.385 20.2298C17.7475 20.5461 18.2123 20.7204 18.6933 20.7204C19.1744 20.7204 19.6392 20.5461 20.0017 20.2298C20.3642 19.9135 20.5998 19.4766 20.665 19H23V9.7917ZM1.5 6.5H20.153C20.4551 6.49875 20.7505 6.58933 21 6.75973C21.2495 6.93014 21.4413 7.17232 21.5501 7.4542L22.3655 9.5417H1.5V6.5ZM5.9479 20.25C5.65123 20.25 5.36122 20.162 5.11454 19.9972C4.86787 19.8324 4.67561 19.5981 4.56208 19.324C4.44855 19.0499 4.41884 18.7483 4.47672 18.4574C4.5346 18.1664 4.67746 17.8991 4.88724 17.6893C5.09702 17.4796 5.36429 17.3367 5.65526 17.2788C5.94624 17.2209 6.24784 17.2507 6.52192 17.3642C6.79601 17.4777 7.03028 17.67 7.1951 17.9166C7.35993 18.1633 7.4479 18.4533 7.4479 18.75C7.44745 19.1477 7.28927 19.529 7.00806 19.8102C6.72686 20.0914 6.34559 20.2495 5.9479 20.25ZM18.6929 20.2188C18.3962 20.2188 18.1062 20.1308 17.8595 19.966C17.6129 19.8012 17.4206 19.5669 17.3071 19.2928C17.1936 19.0187 17.1638 18.7171 17.2217 18.4262C17.2796 18.1352 17.4225 17.8679 17.6322 17.6581C17.842 17.4484 18.1093 17.3055 18.4003 17.2476C18.6912 17.1897 18.9928 17.2194 19.2669 17.333C19.541 17.4465 19.7753 17.6388 19.9401 17.8854C20.1049 18.1321 20.1929 18.4221 20.1929 18.7188C20.1924 19.1165 20.0342 19.4977 19.753 19.7789C19.4718 20.0601 19.0906 20.2183 18.6929 20.2188ZM22.5 13.5416H1.5V10.0416H22.5V13.5416Z" fill="black"/>
</svg>
