<svg width="24" height="24" viewBox="0 0 24 24" fill="none" xmlns="http://www.w3.org/2000/svg">
<path d="M17.501 13.2578L17.5 13.2569V20.7398L22 20.1556V16.9998L17.501 13.2578ZM12 0.295898C9.9529 0.295898 8.5 4.6949 8.5 6.7998V21.9998H11.0745L11.5059 16.9998H12.4941L12.9255 21.9998H15.5V6.7998C15.5 4.6949 14.0471 0.295898 12 0.295898ZM13.9062 6.365C13.3659 5.93048 12.6934 5.6936 12 5.6936C11.3066 5.6936 10.6341 5.93048 10.0938 6.365V4.9677C10.2485 4.66654 10.4417 4.38677 10.6685 4.1354C10.8385 3.9521 11.0445 3.80586 11.2736 3.70586C11.5027 3.60586 11.75 3.55425 12 3.55425C12.25 3.55425 12.4973 3.60586 12.7264 3.70586C12.9555 3.80586 13.1615 3.9521 13.3315 4.1354C13.5583 4.38675 13.7515 4.66649 13.9062 4.9676V6.365ZM2 16.9998V20.156L6.5 20.7402V13.2569L6.499 13.2578L2 16.9998Z" fill="black"/>
</svg>
