<svg width="24" height="24" viewBox="0 0 24 24" fill="none" xmlns="http://www.w3.org/2000/svg">
<path d="M20.9333 14H18.8481C18.6765 12.7978 18.4327 11.607 18.1181 10.434C18.0208 10.0718 17.8196 9.74597 17.5393 9.49677C17.259 9.24756 16.9118 9.08586 16.5407 9.0316C16.3981 9.01057 16.2542 9.00001 16.11 9H7.87921C7.74683 9 7.6146 9.00888 7.48341 9.0266C7.10744 9.07709 6.75481 9.23766 6.46988 9.48809C6.18495 9.73852 5.98045 10.0676 5.88211 10.434C5.56747 11.607 5.32353 12.7978 5.15161 14H3.06671V15.4028L4.92241 16.0471C4.87334 16.696 4.84478 17.3465 4.83671 17.9984C4.83451 18.1268 4.83331 18.4505 4.83331 18.5789V21.9337C4.83331 22.1087 4.90285 22.2766 5.02662 22.4004C5.15039 22.5242 5.31827 22.5937 5.49331 22.5937H6.09561C6.27065 22.5937 6.43853 22.5242 6.5623 22.4004C6.68608 22.2766 6.75561 22.1087 6.75561 21.9337V21H17.2522V21.9337C17.2522 22.1087 17.3217 22.2766 17.4455 22.4004C17.5693 22.5242 17.7372 22.5937 17.9122 22.5937H18.5067C18.6818 22.5937 18.8496 22.5242 18.9734 22.4004C19.0972 22.2766 19.1667 22.1087 19.1667 21.9337V18.5787C19.1667 18.4523 19.1655 18.1307 19.1636 18.0043C19.1562 17.351 19.1275 16.6986 19.0774 16.0472L20.9333 15.4028V14ZM7.47461 18.16C7.27256 18.16 7.07506 18.1 6.90707 17.9878C6.73908 17.8755 6.60815 17.716 6.53085 17.5293C6.45354 17.3426 6.43332 17.1372 6.47275 16.939C6.51218 16.7409 6.60949 16.5588 6.75237 16.416C6.89524 16.2731 7.07728 16.1758 7.27544 16.1364C7.47361 16.097 7.67902 16.1172 7.86568 16.1946C8.05235 16.2719 8.2119 16.4028 8.32415 16.5708C8.4364 16.7388 8.49631 16.9363 8.49631 17.1384C8.49639 17.2726 8.47002 17.4055 8.41871 17.5295C8.3674 17.6536 8.29215 17.7662 8.19726 17.8612C8.10238 17.9561 7.98972 18.0314 7.86572 18.0827C7.74173 18.1341 7.60882 18.1605 7.47461 18.1605V18.16ZM16.5254 18.16C16.3234 18.16 16.1258 18.1001 15.9578 17.9879C15.7898 17.8756 15.6588 17.7161 15.5815 17.5294C15.5042 17.3427 15.4839 17.1373 15.5233 16.9392C15.5627 16.741 15.66 16.5589 15.8029 16.4161C15.9458 16.2732 16.1278 16.1759 16.326 16.1364C16.5241 16.097 16.7296 16.1172 16.9162 16.1946C17.1029 16.2719 17.2625 16.4028 17.3747 16.5708C17.487 16.7388 17.5469 16.9363 17.5469 17.1384C17.547 17.2726 17.5206 17.4055 17.4693 17.5295C17.418 17.6535 17.3427 17.7661 17.2479 17.861C17.153 17.956 17.0404 18.0312 16.9164 18.0826C16.7925 18.134 16.6596 18.1605 16.5254 18.1605V18.16ZM6.16551 14C6.32918 12.8859 6.55679 11.7822 6.84721 10.6943C6.8691 10.6189 6.90052 10.5466 6.94071 10.4791H17.0591C17.0995 10.5465 17.131 10.6188 17.1528 10.6943C17.4432 11.7822 17.6707 12.8859 17.8342 14H6.16551ZM18 6.5C18.1799 6.5 18.3581 6.46456 18.5243 6.39571C18.6905 6.32687 18.8415 6.22595 18.9687 6.09874C19.096 5.97152 19.1969 5.82049 19.2657 5.65428C19.3346 5.48806 19.37 5.30991 19.37 5.13C19.1075 3.87509 18.6449 2.67056 18 1.5625C17.3551 2.67056 16.8925 3.87509 16.63 5.13C16.63 5.30991 16.6654 5.48806 16.7343 5.65428C16.8031 5.82049 16.9041 5.97152 17.0313 6.09874C17.2882 6.35566 17.6367 6.5 18 6.5ZM6.00001 6.5C6.17992 6.5 6.35807 6.46456 6.52429 6.39571C6.6905 6.32687 6.84153 6.22595 6.96875 6.09874C7.09596 5.97152 7.19688 5.82049 7.26573 5.65428C7.33458 5.48806 7.37001 5.30991 7.37001 5.13C7.1075 3.87509 6.64493 2.67056 6.00001 1.5625C5.3551 2.67056 4.89253 3.87509 4.63001 5.13C4.63001 5.30991 4.66545 5.48806 4.7343 5.65428C4.80315 5.82049 4.90406 5.97152 5.03128 6.09874C5.2882 6.35566 5.63666 6.5 6.00001 6.5ZM12 6.5C12.1799 6.5 12.3581 6.46456 12.5243 6.39571C12.6905 6.32687 12.8415 6.22595 12.9687 6.09874C13.096 5.97152 13.1969 5.82049 13.2657 5.65428C13.3346 5.48806 13.37 5.30991 13.37 5.13C13.1075 3.87509 12.6449 2.67056 12 1.5625C11.3551 2.67056 10.8925 3.87509 10.63 5.13C10.63 5.30991 10.6654 5.48806 10.7343 5.65428C10.8031 5.82049 10.9041 5.97152 11.0313 6.09874C11.2882 6.35566 11.6367 6.5 12 6.5Z" fill="black"/>
</svg>
