<svg width="24" height="24" viewBox="0 0 24 24" fill="none" xmlns="http://www.w3.org/2000/svg">
<path d="M22 7C21.9985 5.6744 21.4712 4.40353 20.5338 3.46619C19.5965 2.52885 18.3256 2.00156 17 2C16.2708 2.00332 15.5513 2.16795 14.8931 2.4821L14.8867 2.4688L1.74512 8.5967L2.59082 10.4092L12.1089 5.9709C11.971 6.61771 11.964 7.2856 12.0884 7.93515C12.2127 8.58471 12.4659 9.20278 12.833 9.7529L5.14062 17.4453L6.55472 18.8594L14.2471 11.167C14.7973 11.534 15.4153 11.7872 16.0649 11.9116C16.7144 12.036 17.3823 12.029 18.0291 11.8912L13.5908 21.4092L15.4033 22.2549L21.5312 9.1133L21.5181 9.1071C21.8321 8.44883 21.9966 7.7293 22 7ZM15.7146 9.6994L17.707 7.707L16.293 6.293L14.3005 8.2853C14.1051 7.88486 14.0024 7.44556 14 7C14 6.40666 14.176 5.82664 14.5056 5.33329C14.8353 4.83994 15.3038 4.45542 15.852 4.22836C16.4001 4.0013 17.0033 3.94189 17.5853 4.05764C18.1672 4.1734 18.7018 4.45912 19.1213 4.87868C19.5409 5.29824 19.8266 5.83279 19.9424 6.41473C20.0581 6.99667 19.9987 7.59987 19.7717 8.14805C19.5446 8.69623 19.1601 9.16476 18.6667 9.49441C18.1734 9.82405 17.5934 10 17 10C16.5544 9.99762 16.1151 9.89487 15.7146 9.6994Z" fill="black"/>
</svg>
