<svg width="24" height="24" viewBox="0 0 24 24" fill="none" xmlns="http://www.w3.org/2000/svg">
<path d="M18.9178 5.5068C18.8011 4.80631 18.4396 4.16995 17.8977 3.71093C17.3559 3.25191 16.6687 3 15.9586 3H12.25V1.5358L16 1.2679V1H8V1.2679L11.75 1.5358V3H8.0414C7.33125 3 6.64412 3.25191 6.10226 3.71093C5.5604 4.16995 5.19895 4.80631 5.0822 5.5068C4.69476 7.8316 4.50003 10.1844 4.5 12.5413V17.5C4.5 18.163 4.76339 18.7989 5.23223 19.2678C5.70107 19.7366 6.33696 20 7 20H8.99L7.2576 23H7.8908L9.623 20H14.377L16.1092 23H16.7424L15.01 20H17C17.663 20 18.2989 19.7366 18.7678 19.2678C19.2366 18.7989 19.5 18.163 19.5 17.5V12.5413C19.5 10.1844 19.3053 7.8316 18.9178 5.5068ZM7.2 16.5125C6.96266 16.5125 6.73065 16.4421 6.53332 16.3103C6.33598 16.1784 6.18217 15.991 6.09134 15.7717C6.00052 15.5524 5.97676 15.3112 6.02306 15.0784C6.06936 14.8456 6.18365 14.6318 6.35147 14.464C6.51929 14.2961 6.73311 14.1819 6.96589 14.1356C7.19867 14.0893 7.43995 14.113 7.65922 14.2038C7.87849 14.2947 8.06591 14.4485 8.19776 14.6458C8.32962 14.8432 8.4 15.0752 8.4 15.3125C8.4 15.6308 8.27357 15.936 8.04853 16.161C7.82348 16.3861 7.51826 16.5125 7.2 16.5125ZM16.7807 16.5125C16.5434 16.5125 16.3114 16.4421 16.114 16.3103C15.9167 16.1784 15.7629 15.991 15.672 15.7717C15.5812 15.5524 15.5575 15.3112 15.6038 15.0784C15.6501 14.8456 15.7643 14.6318 15.9322 14.464C16.1 14.2961 16.3138 14.1819 16.5466 14.1356C16.7794 14.0893 17.0206 14.113 17.2399 14.2038C17.4592 14.2947 17.6466 14.4485 17.7785 14.6458C17.9103 14.8432 17.9807 15.0752 17.9807 15.3125C17.9807 15.6308 17.8543 15.936 17.6292 16.161C17.4042 16.3861 17.099 16.5125 16.7807 16.5125ZM5.0112 12C5.03663 9.8518 5.22524 7.70863 5.5754 5.589C5.64301 5.19317 5.80532 4.81955 6.0485 4.5H17.9515C18.1947 4.81955 18.357 5.19317 18.4246 5.589C18.7748 7.70863 18.9634 9.8518 18.9888 12H5.0112Z" fill="black"/>
</svg>
