<svg width="24" height="24" viewBox="0 0 24 24" fill="none" xmlns="http://www.w3.org/2000/svg">
<path d="M19.0845 5.5067C18.9678 4.80622 18.6063 4.16986 18.0644 3.71084C17.5226 3.25182 16.8355 2.9999 16.1253 2.9999H12.5V1.6905L16 1.2439V0.666504H8V1.2439L11.5 1.6905V2.9999H7.8747C7.16455 2.9999 6.47743 3.25182 5.93557 3.71084C5.39371 4.16986 5.03225 4.80622 4.9155 5.5067C4.52806 7.83151 4.33334 10.1843 4.3333 12.5412V17.4999C4.3333 18.1629 4.59669 18.7988 5.06553 19.2677C5.53438 19.7365 6.17026 19.9999 6.8333 19.9999H8.71L6.9782 22.9999H8.17L9.9022 19.9999H14.0974L15.83 22.9999H17.022L15.29 19.9999H17.1671C17.8301 19.9999 18.466 19.7365 18.9349 19.2677C19.4037 18.7988 19.6671 18.1629 19.6671 17.4999V12.5412C19.6669 10.1843 19.4721 7.83149 19.0845 5.5067ZM7.2 16.5124C6.96266 16.5124 6.73066 16.442 6.53332 16.3102C6.33598 16.1783 6.18217 15.9909 6.09135 15.7716C6.00052 15.5524 5.97676 15.3111 6.02306 15.0783C6.06936 14.8455 6.18365 14.6317 6.35147 14.4639C6.5193 14.2961 6.73312 14.1818 6.96589 14.1355C7.19867 14.0892 7.43995 14.1129 7.65922 14.2037C7.87849 14.2946 8.06591 14.4484 8.19776 14.6457C8.32962 14.8431 8.4 15.0751 8.4 15.3124C8.4 15.6307 8.27357 15.9359 8.04853 16.1609C7.82349 16.386 7.51826 16.5124 7.2 16.5124ZM16.7807 16.5124C16.5434 16.5124 16.3114 16.442 16.114 16.3102C15.9167 16.1783 15.7629 15.9909 15.672 15.7716C15.5812 15.5524 15.5575 15.3111 15.6038 15.0783C15.6501 14.8455 15.7643 14.6317 15.9322 14.4639C16.1 14.2961 16.3138 14.1818 16.5466 14.1355C16.7794 14.0892 17.0206 14.1129 17.2399 14.2037C17.4592 14.2946 17.6466 14.4484 17.7785 14.6457C17.9103 14.8431 17.9807 15.0751 17.9807 15.3124C17.9807 15.6307 17.8543 15.9359 17.6292 16.1609C17.4042 16.386 17.099 16.5124 16.7807 16.5124ZM5.3445 11.9999C5.36997 9.87924 5.5563 7.76357 5.9019 5.6711C5.97728 5.2172 6.20744 4.80337 6.5533 4.4999H17.4467C17.7926 4.80337 18.0227 5.2172 18.0981 5.6711C18.4437 7.76357 18.63 9.87924 18.6555 11.9999H5.3445Z" fill="black"/>
</svg>
