<svg width="24" height="24" viewBox="0 0 24 24" fill="none" xmlns="http://www.w3.org/2000/svg">
<path d="M21.4951 16.9998V12.4156C21.4967 12.0908 21.4143 11.771 21.2559 11.4874C21.0974 11.2038 20.8684 10.966 20.5909 10.797C19.6283 10.2102 18.5823 9.7728 17.4884 9.49984L14.7269 6.54194C14.4463 6.2415 14.1068 6.00194 13.7297 5.83816C13.3526 5.67438 12.9459 5.58986 12.5347 5.58984H4.77082L2.97452 8.98774C2.727 9.4608 2.59772 9.98675 2.59772 10.5206V16.1998L3.99772 16.695C4.11208 17.249 4.4056 17.7499 4.83296 18.1204C5.26032 18.4909 5.79776 18.7104 6.36231 18.7451C6.92686 18.7798 7.48712 18.6277 7.95661 18.3122C8.42611 17.9968 8.77872 17.5356 8.96002 16.9998H15.0053C15.1766 17.5097 15.5037 17.9529 15.9403 18.2669C16.377 18.5809 16.9013 18.7498 17.4392 18.7498C17.977 18.7498 18.5013 18.5809 18.938 18.2669C19.3747 17.9529 19.7017 17.5097 19.873 16.9998H21.4951ZM5.64452 7.03984H12.5352C12.7475 7.04014 12.9575 7.08398 13.1521 7.16863C13.3468 7.25329 13.522 7.37698 13.667 7.53204L15.5038 9.49984H4.34462L5.64452 7.03984ZM4.04792 10.9328H17.2321C18.1518 11.173 19.0316 11.5459 19.8438 12.0398C19.9067 12.08 19.9583 12.1357 19.9935 12.2016C20.0287 12.2674 20.0464 12.3412 20.0449 12.4158V15.5498H19.94C19.8039 14.9892 19.4833 14.4905 19.0298 14.1338C18.5762 13.7772 18.0159 13.5833 17.439 13.5833C16.862 13.5833 16.3017 13.7772 15.8482 14.1338C15.3946 14.4905 15.074 14.9892 14.9379 15.5498H9.02682C8.89766 15.0192 8.60319 14.5434 8.18593 14.1911C7.76868 13.8388 7.25023 13.6282 6.70548 13.5898C6.16072 13.5513 5.61786 13.6871 5.15528 13.9773C4.69271 14.2676 4.33437 14.6974 4.13202 15.2046L4.04792 15.1746V10.9328ZM6.52582 17.4164C6.27859 17.4164 6.03692 17.3431 5.83135 17.2058C5.62579 17.0684 5.46558 16.8732 5.37097 16.6448C5.27636 16.4164 5.2516 16.1651 5.29984 15.9226C5.34807 15.6801 5.46712 15.4574 5.64193 15.2826C5.81675 15.1077 6.03948 14.9887 6.28195 14.9405C6.52443 14.8922 6.77576 14.917 7.00417 15.0116C7.23258 15.1062 7.4278 15.2664 7.56515 15.472C7.70251 15.6775 7.77582 15.9192 7.77582 16.1664C7.77545 16.4978 7.64363 16.8156 7.40929 17.0499C7.17495 17.2843 6.85722 17.4161 6.52582 17.4164ZM17.4388 17.4164C17.1916 17.4164 16.9499 17.3431 16.7444 17.2058C16.5388 17.0684 16.3786 16.8732 16.284 16.6448C16.1894 16.4164 16.1646 16.1651 16.2128 15.9226C16.2611 15.6801 16.3801 15.4574 16.5549 15.2826C16.7297 15.1077 16.9525 14.9887 17.195 14.9405C17.4374 14.8922 17.6888 14.917 17.9172 15.0116C18.1456 15.1062 18.3408 15.2664 18.4782 15.472C18.6155 15.6775 18.6888 15.9192 18.6888 16.1664C18.6884 16.4978 18.5566 16.8156 18.3223 17.0499C18.088 17.2843 17.7702 17.4161 17.4388 17.4164Z" fill="black"/>
</svg>
