<svg width="24" height="24" viewBox="0 0 24 24" fill="none" xmlns="http://www.w3.org/2000/svg">
<path d="M23 10.5575L21.5374 6.6366C21.3952 6.25411 21.1394 5.92427 20.8044 5.69134C20.4693 5.45842 20.0711 5.33355 19.663 5.3335H1V18.0002H4.3494C4.50611 18.5071 4.82102 18.9505 5.24802 19.2654C5.67501 19.5803 6.19163 19.7503 6.7222 19.7503C7.25277 19.7503 7.76939 19.5803 8.19638 19.2654C8.62338 18.9505 8.93829 18.5071 9.095 18.0002H15.3806C15.5423 18.4996 15.8581 18.935 16.2827 19.2438C16.7072 19.5526 17.2187 19.7189 17.7437 19.7189C18.2687 19.7189 18.7802 19.5526 19.2047 19.2438C19.6293 18.935 19.9451 18.4996 20.1068 18.0002H23V10.5575ZM2.3666 6.7002H19.663C19.7911 6.69984 19.9162 6.7385 20.0218 6.81102C20.1274 6.88355 20.2084 6.98651 20.254 7.1062L21.544 10.5599H2.3666V6.7002ZM6.7222 18.4502C6.48486 18.4502 6.25285 18.3798 6.05552 18.248C5.85818 18.1161 5.70437 17.9287 5.61354 17.7094C5.52272 17.4901 5.49896 17.2489 5.54526 17.0161C5.59156 16.7833 5.70585 16.5695 5.87367 16.4017C6.04149 16.2338 6.25531 16.1196 6.48809 16.0733C6.72087 16.027 6.96215 16.0507 7.18142 16.1415C7.40069 16.2324 7.58811 16.3862 7.71996 16.5835C7.85182 16.7809 7.9222 17.0129 7.9222 17.2502C7.92186 17.5684 7.79532 17.8734 7.57035 18.0983C7.34538 18.3233 7.04035 18.4499 6.7222 18.4502ZM17.7437 18.419C17.5064 18.419 17.2744 18.3486 17.077 18.2168C16.8797 18.0849 16.7259 17.8975 16.635 17.6782C16.5442 17.4589 16.5205 17.2177 16.5668 16.9849C16.6131 16.7521 16.7273 16.5383 16.8952 16.3705C17.063 16.2026 17.2768 16.0884 17.5096 16.0421C17.7424 15.9958 17.9837 16.0195 18.2029 16.1103C18.4222 16.2012 18.6096 16.355 18.7415 16.5523C18.8733 16.7497 18.9437 16.9817 18.9437 17.219C18.9433 17.5371 18.8168 17.8422 18.5918 18.0671C18.3669 18.2921 18.0618 18.4186 17.7437 18.419ZM21.6337 16.6335H20.1676C20.0377 16.0883 19.7279 15.6028 19.2881 15.2554C18.8482 14.908 18.3042 14.7191 17.7437 14.7191C17.1832 14.7191 16.6392 14.908 16.1993 15.2554C15.7595 15.6028 15.4497 16.0883 15.3198 16.6335H9.1364C9.00142 16.0954 8.69056 15.6179 8.25317 15.2766C7.81579 14.9354 7.27694 14.7501 6.7222 14.7501C6.16746 14.7501 5.62861 14.9354 5.19123 15.2766C4.75384 15.6179 4.44298 16.0954 4.308 16.6335H2.3666V11.9266H21.6334L21.6337 16.6335Z" fill="black"/>
</svg>
