<svg width="24" height="24" viewBox="0 0 24 24" fill="none" xmlns="http://www.w3.org/2000/svg">
<g clip-path="url(#clip0)">
<path d="M19 9.99999C18.7316 10.0052 18.464 10.0322 18.2 10.0806L16.346 3.16309H13.1445C13.0119 3.16309 12.8847 3.21576 12.7909 3.30953C12.6971 3.4033 12.6445 3.53048 12.6445 3.66309C12.6445 3.79569 12.6971 3.92287 12.7909 4.01664C12.8847 4.11041 13.0119 4.16309 13.1445 4.16309H15.5781L16.4814 7.53419H7.39587L6.96467 5.92359L8.33327 5.42999V4.99999H4.72137C4.58876 4.99999 4.46159 5.05266 4.36782 5.14643C4.27405 5.2402 4.22137 5.36738 4.22137 5.49999C4.22137 5.63259 4.27405 5.75977 4.36782 5.85354C4.46159 5.94731 4.58876 5.99999 4.72137 5.99999H5.94927L6.42107 7.76259L5.79997 10.0807C5.53592 10.0323 5.26838 10.0053 4.99997 9.99999C4.03134 9.99516 3.08215 10.2718 2.26778 10.7963C1.45341 11.3207 0.808913 12.0705 0.412625 12.9543C0.0163371 13.8382 -0.11468 14.8182 0.0354969 15.7751C0.185674 16.732 0.610578 17.6248 1.25857 18.3447C1.90656 19.0647 2.74973 19.581 3.68562 19.8308C4.6215 20.0806 5.60979 20.0532 6.53038 19.7519C7.45097 19.4505 8.26422 18.8883 8.87129 18.1335C9.47835 17.3787 9.85309 16.4638 9.94997 15.5H11.9887L13.8549 8.53419H16.7497L17.2328 10.3375C16.0777 10.7866 15.1322 11.6512 14.5819 12.7616C14.0316 13.872 13.9162 15.148 14.2584 16.3391C14.6006 17.5302 15.3756 18.5504 16.4314 19.1994C17.4872 19.8484 18.7474 20.0794 19.9647 19.8469C21.182 19.6144 22.2684 18.9353 23.0107 17.9429C23.7531 16.9505 24.0976 15.7165 23.9768 14.4831C23.8559 13.2497 23.2784 12.106 22.3576 11.2766C21.4368 10.4471 20.2392 9.99179 19 9.99999ZM4.99997 19C3.9391 19 2.92169 18.5786 2.17154 17.8284C1.4214 17.0783 0.999971 16.0609 0.999971 15C0.999971 13.9391 1.4214 12.9217 2.17154 12.1716C2.92169 11.4214 3.9391 11 4.99997 11C5.18081 11.0058 5.36104 11.024 5.53937 11.0546L4.51597 14.8746C4.49627 14.9482 4.49377 15.0253 4.50866 15.1C4.52354 15.1747 4.55543 15.245 4.60183 15.3054C4.64824 15.3658 4.70792 15.4148 4.77627 15.4484C4.84462 15.4821 4.91979 15.4995 4.99597 15.4995H8.94997C8.83031 16.4637 8.36311 17.3512 7.63595 17.9956C6.90879 18.64 5.97158 18.9971 4.99997 19ZM6.50877 11.3C7.16247 11.5696 7.73289 12.0079 8.16178 12.5701C8.59067 13.1323 8.86266 13.7983 8.94997 14.5H5.65137L6.50877 11.3ZM11.2207 14.5H9.94997C9.85921 13.5787 9.51324 12.7011 8.95097 11.9657C8.3887 11.2303 7.63241 10.6664 6.76717 10.3373L7.24997 8.53419H12.8193L11.2207 14.5ZM19 19C18.0729 19.0006 17.1744 18.6789 16.4583 18.09C15.7422 17.5011 15.2532 16.6816 15.0748 15.7718C14.8964 14.862 15.0399 13.9185 15.4805 13.1028C15.9212 12.2871 16.6318 11.65 17.4905 11.3005L18.5166 15.13C18.5455 15.2361 18.6085 15.3298 18.6958 15.3966C18.7831 15.4634 18.89 15.4998 19 15.5C19.0438 15.4997 19.0875 15.4941 19.13 15.4834C19.2581 15.4488 19.3672 15.3648 19.4335 15.2498C19.4998 15.1348 19.5177 14.9983 19.4835 14.8701L18.4608 11.0545C18.639 11.024 18.8192 11.0058 19 11C20.0608 11 21.0783 11.4214 21.8284 12.1716C22.5785 12.9217 23 13.9391 23 15C23 16.0609 22.5785 17.0783 21.8284 17.8284C21.0783 18.5786 20.0608 19 19 19Z" fill="black"/>
</g>
<defs>
<clipPath id="clip0">
<rect width="24" height="24" fill="white"/>
</clipPath>
</defs>
</svg>
