<svg width="24" height="24" viewBox="0 0 24 24" fill="none" xmlns="http://www.w3.org/2000/svg">
<path d="M22.5781 4.21091H20.4681L18.9081 1.21191H17.7754L18.3625 4.21091H16.57L15.96 3.19621H15.191V6.77781H15.96L16.57 5.76311H18.3627L17.7756 8.74651H18.9089L20.4689 5.76311H22.5789C22.7847 5.76311 22.9821 5.68135 23.1277 5.5358C23.2732 5.39025 23.355 5.19285 23.355 4.98701C23.355 4.78118 23.2732 4.58378 23.1277 4.43823C22.9821 4.29268 22.7847 4.21091 22.5789 4.21091H22.5781ZM14.7751 9.70871C14.7356 9.11346 14.4884 8.55095 14.0767 8.11927C13.6649 7.68758 13.1147 7.4141 12.522 7.34651C12.2066 7.31017 11.8895 7.29184 11.572 7.29161H4.432C4.11458 7.29178 3.79742 7.30968 3.482 7.34521C2.88844 7.4122 2.33727 7.68555 1.92473 8.11754C1.51219 8.54953 1.26449 9.1127 1.2249 9.70871C1.07843 11.8471 1.00347 13.9886 1 16.1332C1 16.1854 1 16.55 1 16.6022V22.34C1 22.5151 1.06954 22.6829 1.19331 22.8067C1.31708 22.9305 1.48496 23 1.66 23H2.34C2.51504 23 2.68292 22.9305 2.80669 22.8067C2.93046 22.6829 3 22.5151 3 22.34V21.2916H13V22.34C13 22.5151 13.0695 22.6829 13.1933 22.8067C13.3171 22.9305 13.485 23 13.66 23H14.34C14.515 23 14.6829 22.9305 14.8067 22.8067C14.9305 22.6829 15 22.5151 15 22.34V16.6022C15 16.5532 15 16.1922 15 16.1422C14.9969 13.996 14.9219 11.8515 14.7751 9.70871ZM3.8651 18.4938C3.66304 18.4938 3.46552 18.4339 3.2975 18.3217C3.12949 18.2094 2.99853 18.0499 2.92119 17.8632C2.84386 17.6766 2.82361 17.4711 2.86302 17.273C2.90242 17.0748 2.99971 16.8928 3.14258 16.7499C3.28545 16.607 3.46749 16.5097 3.66566 16.4703C3.86383 16.4308 4.06925 16.451 4.25593 16.5284C4.44261 16.6057 4.60216 16.7366 4.71442 16.9046C4.82668 17.0726 4.8866 17.2702 4.8866 17.4722C4.88663 17.6064 4.86023 17.7392 4.80891 17.8631C4.75759 17.9871 4.68236 18.0997 4.58751 18.1946C4.49266 18.2894 4.38005 18.3647 4.25612 18.416C4.13218 18.4674 3.99935 18.4938 3.8652 18.4938H3.8651ZM12.1351 18.4938C11.933 18.4939 11.7355 18.434 11.5675 18.3217C11.3994 18.2095 11.2685 18.05 11.1911 17.8633C11.1138 17.6766 11.0935 17.4712 11.1329 17.273C11.1723 17.0748 11.2696 16.8928 11.4124 16.7499C11.5553 16.607 11.7373 16.5097 11.9355 16.4703C12.1337 16.4308 12.3391 16.451 12.5258 16.5284C12.7125 16.6057 12.8721 16.7366 12.9843 16.9046C13.0966 17.0726 13.1565 17.2702 13.1565 17.4722C13.1565 17.6064 13.1301 17.7392 13.0788 17.8632C13.0274 17.9872 12.9522 18.0998 12.8573 18.1947C12.7624 18.2895 12.6498 18.3648 12.5258 18.4161C12.4018 18.4674 12.269 18.4938 12.1348 18.4938H12.1351ZM2.0278 14.6666C2.0559 13.0336 2.1118 11.3958 2.2229 9.77401C2.25082 9.38392 2.42204 9.01794 2.7036 8.74651H13.2964C13.578 9.01794 13.7492 9.38392 13.7771 9.77401C13.8882 11.3958 13.9441 13.034 13.9722 14.6666H2.0278Z" fill="black"/>
</svg>
