<svg width="24" height="24" viewBox="0 0 24 24" fill="none" xmlns="http://www.w3.org/2000/svg">
<path d="M0 19.5V21H24V19.5H0ZM7.5771 13.9219L16.3838 16.2129C17.5746 16.5128 18.7949 16.6804 20.0225 16.7129L20.3584 16.7229C20.3799 16.7229 20.4004 16.7238 20.4219 16.7238C20.9004 16.7237 21.367 16.5748 21.757 16.2976C22.147 16.0204 22.4411 15.6287 22.5984 15.1768C22.7558 14.7249 22.7686 14.2353 22.6351 13.7758C22.5016 13.3163 22.2285 12.9097 21.8535 12.6125L19.39 10.6367L15.15 9.53611L13.12 2.4883L9.0742 1.4873L9.1553 8.0264L6.5371 7.3477L5.8213 4.8662L1.8662 3.8779L1.9307 10.7705L7.5771 13.9219ZM4.62 6.1123L5.332 8.584L10.6807 9.9717L10.5977 3.4092L11.9177 3.7363L13.944 10.7725L18.7018 12.0078L20.92 13.7861C21.0388 13.879 21.1288 14.0035 21.1798 14.1454C21.2308 14.2873 21.2406 14.4407 21.2081 14.5879C21.173 14.7735 21.0718 14.94 20.9233 15.0567C20.7748 15.1734 20.5891 15.2324 20.4005 15.2227L20.0636 15.2127C18.9469 15.1841 17.8368 15.0318 16.7536 14.7586L8.2236 12.5643L3.4229 9.8857L3.3838 5.8037L4.62 6.1123Z" fill="black"/>
</svg>
