<svg width="24" height="24" viewBox="0 0 24 24" fill="none" xmlns="http://www.w3.org/2000/svg">
<path d="M5 12.2658C4.60443 12.2658 4.21775 12.3831 3.88886 12.6028C3.55996 12.8226 3.30361 13.135 3.15224 13.5004C3.00086 13.8659 2.96126 14.268 3.03843 14.656C3.1156 15.0439 3.30608 15.4003 3.58578 15.68C3.86549 15.9597 4.22185 16.1502 4.60982 16.2273C4.99778 16.3045 5.39991 16.2649 5.76536 16.1135C6.13082 15.9622 6.44317 15.7058 6.66294 15.3769C6.8827 15.048 7 14.6613 7 14.2658C7 13.7353 6.78928 13.2266 6.41421 12.8516C6.03914 12.4765 5.53043 12.2658 5 12.2658ZM5 15.7658C4.70332 15.7658 4.41331 15.6778 4.16664 15.513C3.91997 15.3482 3.72771 15.1139 3.61418 14.8398C3.50065 14.5657 3.47094 14.2641 3.52882 13.9731C3.5867 13.6822 3.72956 13.4149 3.93934 13.2051C4.14912 12.9953 4.41639 12.8525 4.70736 12.7946C4.99833 12.7367 5.29993 12.7664 5.57402 12.88C5.84811 12.9935 6.08238 13.1857 6.2472 13.4324C6.41202 13.6791 6.5 13.9691 6.5 14.2658C6.49955 14.6635 6.34137 15.0447 6.06016 15.3259C5.77895 15.6071 5.39768 15.7653 5 15.7658ZM19 12.2658C18.6044 12.2658 18.2178 12.3831 17.8889 12.6028C17.56 12.8226 17.3036 13.135 17.1522 13.5004C17.0009 13.8659 16.9613 14.268 17.0384 14.656C17.1156 15.0439 17.3061 15.4003 17.5858 15.68C17.8655 15.9597 18.2219 16.1502 18.6098 16.2273C18.9978 16.3045 19.3999 16.2649 19.7654 16.1135C20.1308 15.9622 20.4432 15.7058 20.6629 15.3769C20.8827 15.048 21 14.6613 21 14.2658C21 13.7353 20.7893 13.2266 20.4142 12.8516C20.0391 12.4765 19.5304 12.2658 19 12.2658ZM19 15.7658C18.7033 15.7658 18.4133 15.6778 18.1666 15.513C17.92 15.3482 17.7277 15.1139 17.6142 14.8398C17.5006 14.5657 17.4709 14.2641 17.5288 13.9731C17.5867 13.6822 17.7296 13.4149 17.9393 13.2051C18.1491 12.9953 18.4164 12.8525 18.7074 12.7946C18.9983 12.7367 19.2999 12.7664 19.574 12.88C19.8481 12.9935 20.0824 13.1857 20.2472 13.4324C20.412 13.6791 20.5 13.9691 20.5 14.2658C20.4995 14.6635 20.3414 15.0447 20.0602 15.3259C19.779 15.6071 19.3977 15.7653 19 15.7658ZM23.9287 9.26187C23.8954 9.20448 23.8408 9.16261 23.7768 9.1454C23.7127 9.1282 23.6444 9.13707 23.5869 9.17007L21.5928 10.3201C21.106 10.6018 20.5536 10.7501 19.9912 10.7501H4.0088C3.4464 10.7501 2.89395 10.6018 2.4072 10.3201L0.413097 9.17017C0.355598 9.13702 0.287284 9.12807 0.223184 9.14528C0.159084 9.1625 0.104449 9.20447 0.0712968 9.26197C0.0381447 9.31947 0.0291918 9.38779 0.0464077 9.45189C0.0636235 9.51599 0.105598 9.57062 0.163097 9.60377L2.1572 10.7538C2.72018 11.0787 3.35876 11.2498 4.0088 11.2499H19.9912C20.6412 11.2498 21.2798 11.0787 21.8428 10.7538L23.8369 9.60377C23.8942 9.57042 23.936 9.51577 23.9532 9.45173C23.9704 9.38769 23.9616 9.31945 23.9287 9.26187Z" fill="black"/>
</svg>
