<svg width="24" height="24" viewBox="0 0 24 24" fill="none" xmlns="http://www.w3.org/2000/svg">
<path d="M19.7728 8.91158H21.2787L23.3 3.24998H20.477V0.588379H18.9713L16.95 6.24998H19.773L19.7728 8.91158ZM18.1559 5.39998L19.57 1.43838H19.6269V4.09998H22.0938L20.68 8.06158H20.6231V5.39998H18.1559ZM22.0653 13.31C20.495 12.4945 18.76 12.0465 16.9912 12L14.3341 9.30708C13.9931 8.96004 13.5864 8.68439 13.1378 8.49623C12.6891 8.30807 12.2074 8.21117 11.7209 8.21118H9.366C8.73106 8.21117 8.10281 8.34084 7.51976 8.59223C6.93671 8.84363 6.41115 9.21146 5.9753 9.67318L3.77 12H2.6919C2.24327 12 1.81302 12.1782 1.49575 12.4954C1.17848 12.8126 1.00016 13.2428 1 13.6914V18.2L3.5043 18.8326C3.61422 19.3601 3.89779 19.8355 4.3097 20.1828C4.72161 20.5302 5.23807 20.7294 5.77655 20.7487C6.31502 20.768 6.84441 20.6062 7.2801 20.2892C7.7158 19.9722 8.03264 19.5183 8.18 19H15.625C15.767 19.5037 16.0697 19.9473 16.487 20.2632C16.9043 20.5791 17.4134 20.75 17.9368 20.75C18.4601 20.75 18.9692 20.5791 19.3865 20.2632C19.8038 19.9473 20.1065 19.5037 20.2485 19H23V14.9467C23.0019 14.6158 22.9165 14.2902 22.7524 14.0028C22.5883 13.7155 22.3513 13.4765 22.0653 13.31ZM6.7012 10.36C7.04439 9.99786 7.45758 9.70925 7.9157 9.51165C8.37381 9.31405 8.86729 9.21159 9.3662 9.21048H11.7207C12.0742 9.21147 12.424 9.2824 12.75 9.41916C13.076 9.55593 13.3717 9.75584 13.6201 10.0074L15.6187 12.0319H5.1165L6.7012 10.36ZM5.868 19.8333C5.57133 19.8333 5.28132 19.7453 5.03464 19.5805C4.78797 19.4157 4.59571 19.1814 4.48218 18.9073C4.36865 18.6332 4.33894 18.3316 4.39682 18.0406C4.4547 17.7497 4.59756 17.4824 4.80734 17.2726C5.01712 17.0628 5.28439 16.92 5.57536 16.8621C5.86634 16.8042 6.16794 16.8339 6.44203 16.9475C6.71611 17.061 6.95038 17.2533 7.1152 17.4999C7.28003 17.7466 7.368 18.0366 7.368 18.3333C7.36752 18.731 7.20934 19.1122 6.92813 19.3934C6.64693 19.6746 6.26568 19.8328 5.868 19.8333ZM17.9368 19.8333C17.6401 19.8333 17.3501 19.7453 17.1034 19.5805C16.8568 19.4157 16.6645 19.1814 16.551 18.9073C16.4375 18.6332 16.4077 18.3316 16.4656 18.0406C16.5235 17.7497 16.6664 17.4824 16.8761 17.2726C17.0859 17.0628 17.3532 16.92 17.6442 16.8621C17.9351 16.8042 18.2367 16.8339 18.5108 16.9475C18.7849 17.061 19.0192 17.2533 19.184 17.4999C19.3488 17.7466 19.4368 18.0366 19.4368 18.3333C19.4364 18.731 19.2782 19.1123 18.997 19.3935C18.7158 19.6747 18.3345 19.8329 17.9368 19.8333ZM22 18H20.32C20.2422 17.4231 19.9579 16.894 19.5196 16.5109C19.0814 16.1277 18.5191 15.9166 17.937 15.9166C17.3549 15.9166 16.7925 16.1277 16.3543 16.5109C15.916 16.894 15.6317 17.4231 15.5539 18H8.2512C8.17496 17.4399 7.90412 16.9244 7.48609 16.5439C7.06807 16.1633 6.52951 15.942 5.96471 15.9185C5.39991 15.8951 4.84486 16.0711 4.39676 16.4157C3.94866 16.7603 3.63606 17.2516 3.5137 17.8035L2 17.4209V13.6914C2.00019 13.5078 2.07319 13.3318 2.203 13.202C2.33281 13.0722 2.50882 12.9992 2.6924 12.999H16.948C18.5567 13.0395 20.1356 13.4421 21.5674 14.1768C21.7007 14.2559 21.8108 14.3688 21.8867 14.5039C21.9627 14.639 22.0017 14.7918 22 14.9468V18Z" fill="black"/>
</svg>
