<svg width="24" height="24" viewBox="0 0 24 24" fill="none" xmlns="http://www.w3.org/2000/svg">
<path d="M18.8333 15.6666L18.8225 15.6677L16.1895 2.5H12.7795C12.6469 2.5 12.5197 2.55268 12.4259 2.64645C12.3322 2.74021 12.2795 2.86739 12.2795 3C12.2795 3.13261 12.3322 3.25979 12.4259 3.35355C12.5197 3.44732 12.6469 3.5 12.7795 3.5H15.3695L17.277 13.0377L12.4805 17.833H6.78269C6.65823 17.181 6.29508 16.5988 5.76423 16.2003C5.23338 15.8018 4.573 15.6156 3.91217 15.6782C3.25134 15.7407 2.63757 16.0474 2.19085 16.5383C1.74414 17.0293 1.49658 17.6692 1.49658 18.333C1.49658 18.9968 1.74414 19.6367 2.19085 20.1277C2.63757 20.6186 3.25134 20.9253 3.91217 20.9879C4.573 21.0504 5.23338 20.8642 5.76423 20.4657C6.29508 20.0672 6.65823 19.485 6.78269 18.833H12.8944L17.5122 14.2161L17.8415 15.8619C17.229 16.1106 16.7311 16.5786 16.4451 17.1746C16.159 17.7706 16.1053 18.4518 16.2944 19.0852C16.4835 19.7187 16.9018 20.259 17.4678 20.6006C18.0337 20.9423 18.7066 21.0608 19.3553 20.9331C20.0039 20.8054 20.5816 20.4405 20.9758 19.9098C21.3699 19.3791 21.5522 18.7205 21.4869 18.0627C21.4217 17.4048 21.1137 16.7948 20.6231 16.3518C20.1324 15.9088 19.4943 15.6645 18.8332 15.6666H18.8333ZM4.16669 20.0666C3.82385 20.0666 3.4887 19.965 3.20363 19.7745C2.91855 19.5841 2.69636 19.3133 2.56515 18.9966C2.43395 18.6798 2.39961 18.3313 2.46649 17.9951C2.53337 17.6588 2.69846 17.3499 2.94089 17.1075C3.18332 16.8651 3.49219 16.7 3.82844 16.6331C4.1647 16.5662 4.51324 16.6006 4.82998 16.7318C5.14672 16.863 5.41744 17.0852 5.6079 17.3702C5.79836 17.6553 5.90001 17.9905 5.89999 18.3333C5.89946 18.7928 5.71668 19.2334 5.39174 19.5584C5.0668 19.8833 4.62623 20.0661 4.16669 20.0667V20.0666ZM18.8333 20.0666C18.4905 20.0666 18.1553 19.9649 17.8703 19.7745C17.5852 19.584 17.363 19.3133 17.2318 18.9965C17.1006 18.6798 17.0663 18.3313 17.1332 17.995C17.2001 17.6588 17.3652 17.3499 17.6076 17.1075C17.85 16.8651 18.1589 16.7 18.4951 16.6331C18.8314 16.5662 19.1799 16.6005 19.4966 16.7317C19.8134 16.8629 20.0841 17.0851 20.2746 17.3702C20.465 17.6552 20.5667 17.9904 20.5667 18.3332C20.5662 18.7928 20.3834 19.2334 20.0585 19.5584C19.7335 19.8834 19.2929 20.0662 18.8333 20.0667V20.0666Z" fill="black"/>
</svg>
