<svg width="24" height="24" viewBox="0 0 24 24" fill="none" xmlns="http://www.w3.org/2000/svg">
<path d="M20.8658 13.3873H19.0715C18.8971 12.3598 18.6642 11.3431 18.3741 10.3422C18.2649 9.97029 18.0425 9.64174 17.7378 9.40227C17.4331 9.1628 17.0612 9.02433 16.6741 9.00616C16.6442 9.00216 16.4705 9.00016 16.44 9.00016H7.56172C7.53472 9.00016 7.36252 9.00176 7.33632 9.00496C6.94732 9.02128 6.57321 9.15903 6.26651 9.39886C5.95981 9.63869 5.73593 9.96857 5.62632 10.3422C5.33622 11.3431 5.10338 12.3598 4.92892 13.3873H3.13422V14.2638L4.71692 14.8138C4.58459 15.8604 4.51271 16.9139 4.50162 17.9689C4.50052 18.0331 4.50002 18.4878 4.50002 18.5521V21.9343C4.50002 22.1093 4.56955 22.2772 4.69333 22.4009C4.8171 22.5247 4.98497 22.5943 5.16002 22.5943H5.49002C5.66506 22.5943 5.83293 22.5247 5.95671 22.4009C6.08048 22.2772 6.15002 22.1093 6.15002 21.9343V21.0002H17.85V21.9339C17.85 22.1089 17.9196 22.2768 18.0433 22.4005C18.1671 22.5243 18.335 22.5939 18.51 22.5939H18.84C19.0151 22.5939 19.1829 22.5243 19.3067 22.4005C19.4305 22.2768 19.5 22.1089 19.5 21.9339V18.5513C19.5 18.4881 19.5 18.0346 19.4984 17.9713C19.4875 16.9153 19.4156 15.8608 19.2831 14.8132L20.8658 14.2632V13.3873ZM7.01662 10.7531C7.0403 10.6698 7.0896 10.5961 7.15753 10.5425C7.22545 10.4889 7.30855 10.458 7.39502 10.4543L7.56352 10.4504L16.5806 10.4523C16.6708 10.4527 16.7585 10.4819 16.8308 10.5357C16.9032 10.5894 16.9565 10.6649 16.9829 10.7512C17.2598 11.7061 17.4816 12.6762 17.6475 13.6566H6.35272C6.51825 12.6768 6.73992 11.7074 7.01662 10.7531ZM5.95002 19.5502L5.95102 17.9902C5.96162 16.9981 6.02862 16.0074 6.15172 15.023H17.8484C17.9713 16.0038 18.0381 16.9909 18.0484 17.9795L18.0499 19.5495L5.95002 19.5502ZM7.92472 16.0663C7.72693 16.0663 7.5336 16.1249 7.36915 16.2348C7.2047 16.3447 7.07652 16.5008 7.00084 16.6836C6.92515 16.8663 6.90535 17.0674 6.94393 17.2613C6.98252 17.4553 7.07776 17.6335 7.21761 17.7734C7.35746 17.9132 7.53564 18.0085 7.72963 18.047C7.92361 18.0856 8.12467 18.0658 8.3074 17.9901C8.49013 17.9144 8.6463 17.7863 8.75619 17.6218C8.86607 17.4574 8.92472 17.264 8.92472 17.0663C8.92474 16.9349 8.8989 16.8049 8.84867 16.6836C8.79844 16.5622 8.7248 16.452 8.63196 16.3591C8.53912 16.2662 8.4289 16.1925 8.30758 16.1423C8.18627 16.092 8.05624 16.0661 7.92492 16.0661L7.92472 16.0663ZM16.0747 16.0663C15.8769 16.0663 15.6836 16.1249 15.5191 16.2348C15.3547 16.3447 15.2265 16.5008 15.1508 16.6836C15.0751 16.8663 15.0553 17.0674 15.0939 17.2613C15.1325 17.4553 15.2278 17.6335 15.3676 17.7734C15.5075 17.9132 15.6856 18.0085 15.8796 18.047C16.0736 18.0856 16.2747 18.0658 16.4574 17.9901C16.6401 17.9144 16.7963 17.7863 16.9062 17.6218C17.0161 17.4574 17.0747 17.264 17.0747 17.0663C17.0748 16.8011 16.9695 16.5467 16.782 16.3592C16.5946 16.1716 16.3403 16.0662 16.0751 16.0661L16.0747 16.0663ZM16.4076 4.24015L17.48 3.19136C16.0414 1.72418 14.0794 0.887611 12.0247 0.865208C9.97001 0.842805 7.99032 1.63639 6.52002 3.07186L7.56902 4.14406C8.75468 2.98637 10.3512 2.34632 12.0082 2.36434C13.6652 2.38236 15.2474 3.05697 16.4076 4.24015ZM9.34842 5.96016L10.409 7.02075C10.8313 6.59945 11.4035 6.36285 12 6.36285C12.5965 6.36285 13.1687 6.59945 13.591 7.02075L14.6517 5.96016C13.9479 5.25797 12.9943 4.86362 12.0001 4.86362C11.0059 4.86362 10.0522 5.25797 9.34842 5.96016Z" fill="black"/>
</svg>
