<svg width="24" height="24" viewBox="0 0 24 24" fill="none" xmlns="http://www.w3.org/2000/svg">
<path d="M7.23438 16C6.99023 16 6.75158 16.0724 6.54858 16.208C6.34558 16.3437 6.18737 16.5365 6.09394 16.762C6.00051 16.9876 5.97607 17.2358 6.02369 17.4752C6.07132 17.7147 6.18889 17.9346 6.36152 18.1073C6.53416 18.2799 6.75411 18.3975 6.99356 18.4451C7.23301 18.4927 7.4812 18.4683 7.70676 18.3748C7.93232 18.2814 8.1251 18.1232 8.26074 17.9202C8.39638 17.7172 8.46878 17.4785 8.46878 17.2344C8.46878 16.907 8.33872 16.5931 8.10723 16.3616C7.87573 16.1301 7.56176 16 7.23438 16ZM7.23438 17.9688C7.08913 17.9688 6.94714 17.9257 6.82637 17.845C6.70559 17.7643 6.61146 17.6496 6.55588 17.5155C6.50029 17.3813 6.48575 17.2336 6.51409 17.0911C6.54242 16.9487 6.61237 16.8178 6.71508 16.7151C6.81778 16.6124 6.94864 16.5425 7.0911 16.5141C7.23356 16.4858 7.38123 16.5003 7.51542 16.5559C7.64961 16.6115 7.76431 16.7056 7.84501 16.8264C7.9257 16.9472 7.96878 17.0892 7.96878 17.2344C7.96854 17.4291 7.89109 17.6158 7.75341 17.7534C7.61574 17.8911 7.42908 17.9686 7.23438 17.9688ZM16.7656 16C16.5214 16 16.2828 16.0724 16.0798 16.208C15.8768 16.3437 15.7186 16.5365 15.6251 16.762C15.5317 16.9876 15.5073 17.2358 15.5549 17.4752C15.6025 17.7147 15.7201 17.9346 15.8927 18.1073C16.0654 18.2799 16.2853 18.3975 16.5248 18.4451C16.7642 18.4927 17.0124 18.4683 17.238 18.3748C17.4635 18.2814 17.6563 18.1232 17.7919 17.9202C17.9276 17.7172 18 17.4785 18 17.2344C18 17.0723 17.968 16.9118 17.906 16.762C17.844 16.6123 17.7531 16.4762 17.6384 16.3616C17.5238 16.2469 17.3877 16.156 17.238 16.094C17.0882 16.0319 16.9277 16 16.7656 16ZM16.7656 17.9688C16.6203 17.9688 16.4783 17.9257 16.3576 17.845C16.2368 17.7643 16.1427 17.6496 16.0871 17.5155C16.0315 17.3813 16.017 17.2336 16.0453 17.0911C16.0736 16.9487 16.1436 16.8178 16.2463 16.7151C16.349 16.6124 16.4798 16.5425 16.6223 16.5141C16.7648 16.4858 16.9124 16.5003 17.0466 16.5559C17.1808 16.6115 17.2955 16.7056 17.3762 16.8264C17.4569 16.9472 17.5 17.0892 17.5 17.2344C17.4997 17.4291 17.4223 17.6158 17.2846 17.7534C17.1469 17.8911 16.9603 17.9686 16.7656 17.9688ZM10.0556 6.49451C10.5717 5.97947 11.271 5.6902 12.0001 5.6902C12.7292 5.6902 13.4286 5.97947 13.9447 6.49451L14.2982 6.14101C13.6882 5.53239 12.8617 5.19059 12.0001 5.19059C11.1384 5.19059 10.3119 5.53239 9.70198 6.14101L10.0556 6.49451ZM16.773 3.66611L17.1265 3.31261C15.7658 1.95489 13.9222 1.19238 12 1.19238C10.0778 1.19238 8.23412 1.95489 6.87348 3.31261L7.22708 3.66611C8.49393 2.40211 10.2104 1.69224 12 1.69224C13.7896 1.69224 15.5061 2.40211 16.773 3.66611ZM21.1193 12.4767H18.9431C18.8235 11.8234 18.6853 11.1731 18.5286 10.5259C18.4224 10.0907 18.1731 9.70373 17.8208 9.42705C17.4685 9.15037 17.0335 8.99999 16.5855 9.00001H7.41448C6.96651 9.00001 6.53151 9.1504 6.1792 9.42708C5.82689 9.70376 5.57767 10.0907 5.47148 10.5259C5.31374 11.1726 5.17558 11.8228 5.05698 12.4767H2.88068V13.9753L4.71968 14.8041C4.57554 16.0665 4.5021 17.3359 4.49968 18.6064V21.9337C4.49968 22.1088 4.56921 22.2766 4.69299 22.4004C4.81676 22.5242 4.98463 22.5937 5.15968 22.5937H6.16998C6.34502 22.5937 6.51289 22.5242 6.63667 22.4004C6.76044 22.2766 6.82998 22.1088 6.82998 21.9337V21H17.17V21.9337C17.17 22.1088 17.2395 22.2766 17.3633 22.4004C17.4871 22.5242 17.6549 22.5937 17.83 22.5937H18.84C19.015 22.5937 19.1829 22.5242 19.3067 22.4004C19.4304 22.2766 19.5 22.1088 19.5 21.9337V18.6064C19.4976 17.3359 19.4241 16.0665 19.28 14.8041L21.119 13.9753L21.1193 12.4767ZM5.95718 10.6445C6.03623 10.3178 6.22299 10.0272 6.48736 9.81956C6.75174 9.61193 7.07832 9.49937 7.41448 9.50001H16.5855C16.9216 9.49935 17.2482 9.6119 17.5126 9.81953C17.777 10.0272 17.9637 10.3178 18.0428 10.6445C18.3368 11.86 18.5628 13.0909 18.7197 14.3316H5.27998C5.43687 13.0909 5.66296 11.86 5.95718 10.6445ZM4.78188 14.2838L3.38068 13.6522V12.9767H4.97878C4.90608 13.4114 4.83778 13.8467 4.78188 14.2838ZM19.0019 20.75H19V21.9337C19 21.9761 18.9831 22.0168 18.9531 22.0468C18.9231 22.0769 18.8824 22.0937 18.84 22.0937H17.83C17.7875 22.0937 17.7468 22.0769 17.7168 22.0468C17.6868 22.0168 17.67 21.9761 17.67 21.9337V20.75H17.6685V20.5H6.33148V20.75H6.32998V21.9337C6.32998 21.9761 6.31312 22.0168 6.28311 22.0468C6.25311 22.0769 6.21241 22.0937 6.16998 22.0937H5.15998C5.11754 22.0937 5.07685 22.0769 5.04684 22.0468C5.01683 22.0168 4.99998 21.9761 4.99998 21.9337V20.75H4.99848V19.906H4.99998V18.606C5.00212 17.3446 5.07534 16.0844 5.21928 14.8312H18.7807C18.9246 16.0845 18.9978 17.3449 19 18.6064V19.9064H19.0015L19.0019 20.75ZM20.6197 13.6522L19.2185 14.2838C19.1626 13.8467 19.0943 13.4114 19.0216 12.9767H20.6197V13.6522Z" fill="black"/>
</svg>
