<svg width="24" height="24" viewBox="0 0 24 24" fill="none" xmlns="http://www.w3.org/2000/svg">
<path d="M23 14.0891C23 13.7999 22.9373 13.5141 22.8161 13.2514C22.695 12.9888 22.5183 12.7556 22.2983 12.5678L20.4612 11L18.5824 7.5615C18.3242 7.08891 17.9435 6.69455 17.4803 6.4198C17.0171 6.14505 16.4885 6.00004 15.95 6H1V17.5416L3.5326 17.7632C3.53444 18.2703 3.7294 18.7577 4.07782 19.1261C4.42624 19.4946 4.90194 19.7165 5.40815 19.7466C5.91436 19.7768 6.41305 19.613 6.80277 19.2885C7.19248 18.9641 7.44395 18.5033 7.506 18H16.671C16.7323 18.5007 16.9813 18.9596 17.3677 19.2839C17.7541 19.6083 18.2491 19.774 18.7529 19.7478C19.2567 19.7215 19.7317 19.5051 20.0822 19.1423C20.4327 18.7794 20.6326 18.2972 20.6415 17.7928L23 17.625V14.0891ZM1.5 6.5H15.95C16.3988 6.4999 16.8394 6.62067 17.2254 6.84963C17.6114 7.0786 17.9287 7.4073 18.1438 7.8012L19.8915 11H1.5V6.5ZM5.5312 19.25C5.23453 19.25 4.94452 19.162 4.69784 18.9972C4.45117 18.8324 4.25891 18.5981 4.14538 18.324C4.03185 18.0499 4.00214 17.7483 4.06002 17.4574C4.1179 17.1664 4.26076 16.8991 4.47054 16.6893C4.68032 16.4796 4.94759 16.3367 5.23856 16.2788C5.52954 16.2209 5.83114 16.2507 6.10523 16.3642C6.37931 16.4777 6.61358 16.67 6.7784 16.9166C6.94323 17.1633 7.0312 17.4533 7.0312 17.75C7.03072 18.1477 6.87254 18.5289 6.59133 18.8101C6.31013 19.0913 5.92888 19.2495 5.5312 19.25ZM18.6458 19.25C18.3491 19.25 18.0591 19.162 17.8124 18.9972C17.5658 18.8324 17.3735 18.5981 17.26 18.324C17.1465 18.0499 17.1167 17.7483 17.1746 17.4574C17.2325 17.1664 17.3754 16.8991 17.5851 16.6893C17.7949 16.4796 18.0622 16.3367 18.3532 16.2788C18.6441 16.2209 18.9457 16.2507 19.2198 16.3642C19.4939 16.4777 19.7282 16.67 19.893 16.9166C20.0578 17.1633 20.1458 17.4533 20.1458 17.75C20.1453 18.1477 19.9872 18.529 19.706 18.8102C19.4248 19.0914 19.0435 19.2495 18.6458 19.25Z" fill="black"/>
</svg>
