<svg width="24" height="24" viewBox="0 0 24 24" fill="none" xmlns="http://www.w3.org/2000/svg">
<path d="M23 10.5574L21.5374 6.63651C21.3952 6.25402 21.1394 5.92418 20.8044 5.69125C20.4693 5.45833 20.0711 5.33346 19.663 5.3334H15.9941L15.6629 4.4234L5.3061 0.862305L4.8154 2.2801L14.1388 5.3332H1V18.0001H4.3494C4.50611 18.507 4.82102 18.9504 5.24802 19.2653C5.67501 19.5802 6.19163 19.7502 6.7222 19.7502C7.25277 19.7502 7.76939 19.5802 8.19638 19.2653C8.62338 18.9504 8.93829 18.507 9.095 18.0001H15.3806C15.5423 18.4995 15.8581 18.9349 16.2827 19.2437C16.7072 19.5525 17.2187 19.7188 17.7437 19.7188C18.2687 19.7188 18.7802 19.5525 19.2047 19.2437C19.6293 18.9349 19.9451 18.4995 20.1068 18.0001H23V10.5574ZM2.3666 6.7001H19.663C19.7911 6.69975 19.9162 6.73841 20.0218 6.81093C20.1274 6.88346 20.2084 6.98642 20.254 7.1061L21.544 10.5598H2.3666V6.7001ZM6.7222 18.4501C6.48486 18.4501 6.25285 18.3797 6.05552 18.2479C5.85818 18.116 5.70437 17.9286 5.61354 17.7093C5.52272 17.4901 5.49896 17.2488 5.54526 17.016C5.59156 16.7832 5.70585 16.5694 5.87367 16.4016C6.04149 16.2338 6.25531 16.1195 6.48809 16.0732C6.72087 16.0269 6.96215 16.0506 7.18142 16.1414C7.40069 16.2323 7.58811 16.3861 7.71996 16.5834C7.85182 16.7808 7.9222 17.0128 7.9222 17.2501C7.92186 17.5683 7.79532 17.8733 7.57035 18.0983C7.34538 18.3232 7.04035 18.4498 6.7222 18.4501ZM17.7437 18.4189C17.5064 18.4189 17.2744 18.3485 17.077 18.2167C16.8797 18.0848 16.7259 17.8974 16.635 17.6781C16.5442 17.4589 16.5205 17.2176 16.5668 16.9848C16.6131 16.752 16.7273 16.5382 16.8952 16.3704C17.063 16.2026 17.2768 16.0883 17.5096 16.042C17.7424 15.9957 17.9837 16.0194 18.2029 16.1102C18.4222 16.2011 18.6096 16.3549 18.7415 16.5522C18.8733 16.7496 18.9437 16.9816 18.9437 17.2189C18.9433 17.5371 18.8168 17.8421 18.5918 18.067C18.3669 18.292 18.0618 18.4185 17.7437 18.4189ZM21.6337 16.6334H20.1676C20.0377 16.0882 19.7279 15.6027 19.2881 15.2553C18.8482 14.908 18.3042 14.719 17.7437 14.719C17.1832 14.719 16.6392 14.908 16.1993 15.2553C15.7595 15.6027 15.4497 16.0882 15.3198 16.6334H9.1364C9.00142 16.0953 8.69056 15.6178 8.25317 15.2766C7.81579 14.9353 7.27694 14.75 6.7222 14.75C6.16746 14.75 5.62861 14.9353 5.19123 15.2766C4.75384 15.6178 4.44298 16.0953 4.308 16.6334H2.3666V11.9265H21.6334L21.6337 16.6334Z" fill="black"/>
</svg>
