<svg width="24" height="24" viewBox="0 0 24 24" fill="none" xmlns="http://www.w3.org/2000/svg">
<path d="M22.5034 4.5131L23.7371 3.6087C23.5801 3.19146 23.3539 2.80369 23.0679 2.4617L21.6733 3.0754L20.83 2.5886L20.6635 1.0669C20.2256 0.9777 19.7742 0.9777 19.3363 1.0669L19.17 2.5886L18.3268 3.0754L16.9322 2.4617C16.6462 2.80369 16.42 3.19146 16.263 3.6087L17.4967 4.5131V5.4869L16.263 6.3912C16.4201 6.80845 16.6463 7.19624 16.9322 7.5383L18.3268 6.9245L19.17 7.4114L19.3365 8.9331C19.7744 9.0223 20.2258 9.0223 20.6637 8.9331L20.83 7.4114L21.6732 6.9245L23.0678 7.5383C23.3537 7.19624 23.58 6.80845 23.737 6.3912L22.5033 5.4869L22.5034 4.5131ZM20 6C19.8022 6 19.6089 5.94135 19.4444 5.83147C19.28 5.72159 19.1518 5.56541 19.0761 5.38268C19.0004 5.19996 18.9806 4.99889 19.0192 4.80491C19.0578 4.61093 19.153 4.43275 19.2929 4.29289C19.4328 4.15304 19.6109 4.0578 19.8049 4.01921C19.9989 3.98063 20.2 4.00043 20.3827 4.07612C20.5654 4.15181 20.7216 4.27998 20.8315 4.44443C20.9414 4.60888 21 4.80222 21 5C21 5.26522 20.8947 5.51957 20.7071 5.70711C20.5196 5.89464 20.2652 6 20 6ZM16.8247 10.342C16.7181 9.97967 16.5033 9.65854 16.2093 9.42154C15.9152 9.18455 15.5557 9.04299 15.179 9.0158C15.1323 9.0054 14.8013 9 14.7517 9C14.7517 9 6.11041 9.0045 6.06741 9.0132C5.68841 9.03859 5.3263 9.1796 5.02994 9.4172C4.73357 9.65481 4.5172 9.97758 4.41001 10.342C4.05708 11.5415 3.78645 12.7637 3.60001 14H1.47461V15.4028L3.36331 16.0587C3.31571 16.6936 3.28981 17.3302 3.28561 17.9687C3.28441 18.0329 3.28391 21.9341 3.28391 21.9341C3.28391 22.0208 3.30098 22.1066 3.33415 22.1867C3.36732 22.2667 3.41593 22.3395 3.47722 22.4008C3.53851 22.4621 3.61126 22.5107 3.69134 22.5439C3.77141 22.577 3.85724 22.5941 3.94391 22.5941H4.58501C4.76005 22.5941 4.92793 22.5246 5.0517 22.4008C5.17547 22.277 5.24501 22.1091 5.24501 21.9341V21H15.9932V21.9337C15.9932 22.1087 16.0627 22.2766 16.1865 22.4004C16.3103 22.5242 16.4782 22.5937 16.6532 22.5937H17.2904C17.4655 22.5937 17.6333 22.5242 17.7571 22.4004C17.8809 22.2766 17.9504 22.1087 17.9504 21.9337C17.9504 21.9337 17.9497 18.0344 17.9487 17.9713C17.9453 17.3324 17.9193 16.6949 17.8708 16.0586L19.7595 15.4028V14H17.6345C17.4481 12.7637 17.1776 11.5415 16.8247 10.342ZM5.80001 10.7529C5.82316 10.6732 5.87014 10.6025 5.93464 10.5503C5.99913 10.4981 6.07806 10.4669 6.16081 10.4609L15.0754 10.4619C15.1576 10.4684 15.2359 10.4997 15.2999 10.5517C15.3639 10.6036 15.4106 10.6738 15.4338 10.7529C15.7452 11.8186 15.9882 12.9032 16.1611 14H5.07351C5.24601 12.9032 5.48867 11.8186 5.80001 10.7529ZM6.00311 18.1605C5.80105 18.1605 5.60353 18.1006 5.43551 17.9884C5.2675 17.8761 5.13654 17.7166 5.0592 17.5299C4.98187 17.3432 4.96162 17.1378 5.00103 16.9397C5.04043 16.7415 5.13772 16.5594 5.28059 16.4166C5.42346 16.2737 5.60549 16.1764 5.80367 16.1369C6.00184 16.0975 6.20726 16.1177 6.39394 16.1951C6.58061 16.2724 6.74017 16.4033 6.85243 16.5713C6.96469 16.7393 7.02461 16.9368 7.02461 17.1389C7.02464 17.4098 6.91707 17.6696 6.72556 17.8612C6.53405 18.0527 6.27429 18.1604 6.00341 18.1605H6.00311ZM15.2307 18.1605C15.0287 18.1605 14.8312 18.1005 14.6632 17.9883C14.4952 17.876 14.3643 17.7165 14.2869 17.5298C14.2096 17.3431 14.1894 17.1377 14.2289 16.9395C14.2683 16.7414 14.3656 16.5593 14.5085 16.4165C14.6513 16.2736 14.8334 16.1763 15.0315 16.1369C15.2297 16.0975 15.4351 16.1177 15.6218 16.1951C15.8084 16.2724 15.968 16.4033 16.0802 16.5713C16.1925 16.7393 16.2524 16.9369 16.2524 17.1389C16.2524 17.4098 16.1448 17.6696 15.9532 17.8612C15.7617 18.0528 15.5019 18.1604 15.231 18.1605H15.2307Z" fill="black"/>
</svg>
