<svg width="24" height="24" viewBox="0 0 24 24" fill="none" xmlns="http://www.w3.org/2000/svg">
<path d="M23 13.6025C23 13.2981 22.9305 12.9978 22.7968 12.7243C22.6632 12.4508 22.4689 12.2115 22.2287 12.0245L20.2708 10.5L18.5446 7.1317C18.2928 6.6404 17.9103 6.22811 17.4393 5.94022C16.9682 5.65233 16.4269 5.5 15.8748 5.5H1V17.3333L2.9439 17.5806C3.06939 18.2253 3.40359 18.8107 3.89492 19.2466C4.38624 19.6824 5.00737 19.9444 5.66242 19.9921C6.31746 20.0399 6.97 19.8706 7.5193 19.5106C8.0686 19.1505 8.48411 18.6197 8.7017 18H15.4754C15.6849 18.6004 16.0808 19.1182 16.6053 19.4777C17.1299 19.8372 17.7556 20.0197 18.3911 19.9985C19.0267 19.9773 19.6389 19.7535 20.1382 19.3598C20.6376 18.9661 20.9981 18.4231 21.1671 17.81L23 17.7083V13.6025ZM3 7.5H15.8748C16.0589 7.49955 16.2396 7.55013 16.3967 7.64615C16.5538 7.74216 16.6812 7.87984 16.7648 8.0439L18.28 11H3V7.5ZM5.8854 18.25C5.63817 18.25 5.3965 18.1767 5.19094 18.0393C4.98538 17.902 4.82516 17.7068 4.73055 17.4784C4.63594 17.2499 4.61119 16.9986 4.65942 16.7561C4.70765 16.5137 4.8267 16.2909 5.00152 16.1161C5.17633 15.9413 5.39906 15.8222 5.64154 15.774C5.88401 15.7258 6.13535 15.7505 6.36375 15.8452C6.59216 15.9398 6.78738 16.1 6.92474 16.3055C7.06209 16.5111 7.1354 16.7528 7.1354 17C7.13503 17.3314 7.00321 17.6491 6.76887 17.8835C6.53453 18.1178 6.21681 18.2496 5.8854 18.25ZM18.2917 18.25C18.0445 18.25 17.8028 18.1767 17.5972 18.0393C17.3917 17.902 17.2315 17.7068 17.1369 17.4784C17.0422 17.2499 17.0175 16.9986 17.0657 16.7561C17.1139 16.5137 17.233 16.2909 17.4078 16.1161C17.5826 15.9413 17.8054 15.8222 18.0478 15.774C18.2903 15.7258 18.5416 15.7505 18.7701 15.8452C18.9985 15.9398 19.1937 16.1 19.331 16.3055C19.4684 16.5111 19.5417 16.7528 19.5417 17C19.5413 17.3314 19.4095 17.6491 19.1752 17.8835C18.9408 18.1178 18.6231 18.2496 18.2917 18.25Z" fill="black"/>
</svg>
