<svg width="24" height="24" viewBox="0 0 24 24" fill="none" xmlns="http://www.w3.org/2000/svg">
<path d="M19.4178 4.5068C19.3011 3.80631 18.9396 3.16995 18.3977 2.71093C17.8559 2.25191 17.1687 2 16.4586 2H7.5414C6.83125 2 6.14412 2.25191 5.60226 2.71093C5.0604 3.16995 4.69895 3.80631 4.5822 4.5068C4.19476 6.83163 4.00003 9.1845 4 11.5414V16.5C4 17.163 4.26339 17.7989 4.73223 18.2678C5.20107 18.7366 5.83696 19 6.5 19H8.1515L6.4193 22H8.7293L10.4615 19H13.5389L15.2711 22H17.5811L15.8489 19H17.5C18.163 19 18.7989 18.7366 19.2678 18.2678C19.7366 17.7989 20 17.163 20 16.5V11.5414C20 9.1845 19.8053 6.83163 19.4178 4.5068ZM6.555 4.8356C6.59331 4.60183 6.71362 4.38934 6.89438 4.23622C7.07513 4.0831 7.30451 3.99935 7.5414 4H16.4586C16.6955 3.99935 16.9249 4.0831 17.1056 4.23622C17.2864 4.38934 17.4067 4.60183 17.445 4.8356C17.7285 6.54426 17.9032 8.2692 17.968 10H6.032C6.09683 8.2692 6.27151 6.54426 6.555 4.8356ZM18 16.5C17.9998 16.6326 17.9471 16.7596 17.8534 16.8534C17.7596 16.9471 17.6326 16.9998 17.5 17H6.5C6.36744 16.9998 6.24036 16.9471 6.14662 16.8534C6.05289 16.7596 6.00016 16.6326 6 16.5V12H18V16.5ZM15.62 15.4125C15.8376 15.4125 16.0502 15.348 16.2311 15.2271C16.412 15.1062 16.553 14.9345 16.6363 14.7335C16.7195 14.5325 16.7413 14.3113 16.6989 14.0979C16.6564 13.8845 16.5517 13.6885 16.3978 13.5347C16.244 13.3808 16.048 13.2761 15.8346 13.2336C15.6212 13.1912 15.4 13.213 15.199 13.2962C14.998 13.3795 14.8263 13.5205 14.7054 13.7014C14.5845 13.8823 14.52 14.0949 14.52 14.3125C14.52 14.6042 14.6359 14.884 14.8422 15.0903C15.0485 15.2966 15.3283 15.4125 15.62 15.4125ZM8.38 15.4125C8.59756 15.4125 8.81023 15.348 8.99113 15.2271C9.17202 15.1062 9.31301 14.9345 9.39627 14.7335C9.47952 14.5325 9.50131 14.3113 9.45886 14.0979C9.41642 13.8845 9.31166 13.6885 9.15782 13.5347C9.00398 13.3808 8.80798 13.2761 8.5946 13.2336C8.38122 13.1912 8.16005 13.213 7.95905 13.2962C7.75805 13.3795 7.58625 13.5205 7.46538 13.7014C7.34451 13.8823 7.28 14.0949 7.28 14.3125C7.28 14.6042 7.39589 14.884 7.60218 15.0903C7.80847 15.2966 8.08826 15.4125 8.38 15.4125Z" fill="black"/>
</svg>
