<svg width="24" height="24" viewBox="0 0 24 24" fill="none" xmlns="http://www.w3.org/2000/svg">
<path d="M23 8.5555H20.3635C20.1792 7.70983 19.9523 6.87403 19.6835 6.0513C19.4844 5.45401 19.1024 4.93449 18.5917 4.56634C18.0809 4.19818 17.4673 4.00005 16.8377 4H7.1623C6.53265 3.99999 5.91895 4.19809 5.40814 4.56625C4.89734 4.93441 4.51532 5.45396 4.3162 6.0513C4.04743 6.87403 3.82047 7.70983 3.6362 8.5555H1V9.9583L3.2481 10.7389C3.08899 11.8732 3.0061 13.0168 3 14.1622V20.34C3 20.4267 3.01707 20.5125 3.05024 20.5926C3.08341 20.6726 3.13202 20.7454 3.19331 20.8067C3.2546 20.868 3.32735 20.9166 3.40743 20.9498C3.4875 20.9829 3.57333 21 3.66 21H4.34C4.42667 21 4.5125 20.9829 4.59257 20.9498C4.67265 20.9166 4.7454 20.868 4.80669 20.8067C4.86798 20.7454 4.91659 20.6726 4.94976 20.5926C4.98293 20.5125 5 20.4267 5 20.34V19H19V20.34C19 20.515 19.0695 20.6829 19.1933 20.8067C19.3171 20.9305 19.485 21 19.66 21H20.34C20.515 21 20.6829 20.9305 20.8067 20.8067C20.9305 20.6829 21 20.515 21 20.34V14.1622C20.9939 13.0168 20.911 11.8732 20.7519 10.7389L23 9.9583V8.5555ZM6.2136 6.6838C6.2798 6.48457 6.40709 6.31127 6.5774 6.18852C6.7477 6.06576 6.95236 5.9998 7.1623 6H16.8377C17.0476 5.99979 17.2523 6.06574 17.4226 6.1885C17.5929 6.31126 17.7202 6.48457 17.7864 6.6838C18.1436 7.76766 18.4218 8.87595 18.6189 10H5.3811C5.57819 8.87595 5.85642 7.76766 6.2136 6.6838ZM6.3542 15.3264C6.10697 15.3264 5.8653 15.2531 5.65974 15.1157C5.45418 14.9784 5.29396 14.7832 5.19935 14.5548C5.10474 14.3263 5.07999 14.075 5.12822 13.8325C5.17645 13.5901 5.2955 13.3673 5.47032 13.1925C5.64513 13.0177 5.86786 12.8986 6.11034 12.8504C6.35281 12.8022 6.60415 12.8269 6.83255 12.9216C7.06096 13.0162 7.25619 13.1764 7.39354 13.3819C7.53089 13.5875 7.6042 13.8292 7.6042 14.0764C7.6042 14.4079 7.4725 14.7259 7.23808 14.9603C7.00366 15.1947 6.68572 15.3264 6.3542 15.3264ZM17.6459 15.3264C17.3987 15.3264 17.157 15.2531 16.9514 15.1157C16.7459 14.9784 16.5857 14.7832 16.4911 14.5548C16.3964 14.3263 16.3717 14.075 16.4199 13.8325C16.4681 13.5901 16.5872 13.3673 16.762 13.1925C16.9368 13.0177 17.1596 12.8986 17.402 12.8504C17.6445 12.8022 17.8958 12.8269 18.1243 12.9216C18.3527 13.0162 18.5479 13.1764 18.6852 13.3819C18.8226 13.5875 18.8959 13.8292 18.8959 14.0764C18.8959 14.4079 18.7642 14.7259 18.5298 14.9603C18.2954 15.1947 17.9774 15.3264 17.6459 15.3264Z" fill="black"/>
</svg>
