<svg width="24" height="24" viewBox="0 0 24 24" fill="none" xmlns="http://www.w3.org/2000/svg">
<path d="M23 9L21.6654 5.3184C21.5254 4.93213 21.2698 4.59835 20.9334 4.36246C20.597 4.12657 20.1961 4.00001 19.7852 4H1V19H3.5593C3.71953 19.5752 4.06372 20.0822 4.53925 20.4434C5.01479 20.8046 5.5955 21.0001 6.19265 21.0001C6.78979 21.0001 7.37051 20.8046 7.84605 20.4434C8.32158 20.0822 8.66577 19.5752 8.826 19H15.4067C15.5669 19.5752 15.9111 20.0822 16.3867 20.4434C16.8622 20.8046 17.4429 21.0001 18.0401 21.0001C18.6372 21.0001 19.2179 20.8046 19.6934 20.4434C20.169 20.0822 20.5132 19.5752 20.6734 19H23V9ZM2.8 5.8H19.9254L20.7478 8.0687H2.8V5.8ZM6.1927 19.3C5.98503 19.3 5.78202 19.2384 5.60935 19.123C5.43668 19.0077 5.3021 18.8437 5.22263 18.6518C5.14315 18.46 5.12236 18.2488 5.16288 18.0452C5.20339 17.8415 5.30339 17.6544 5.45024 17.5075C5.59708 17.3607 5.78417 17.2607 5.98785 17.2202C6.19153 17.1797 6.40266 17.2005 6.59452 17.2799C6.78638 17.3594 6.95037 17.494 7.06574 17.6667C7.18112 17.8393 7.2427 18.0423 7.2427 18.25C7.24238 18.5284 7.13166 18.7953 6.93481 18.9921C6.73797 19.189 6.47108 19.2997 6.1927 19.3ZM18.04 19.3C17.8323 19.3 17.6293 19.2384 17.4567 19.123C17.284 19.0077 17.1494 18.8437 17.0699 18.6518C16.9905 18.46 16.9697 18.2488 17.0102 18.0452C17.0507 17.8415 17.1507 17.6544 17.2975 17.5075C17.4444 17.3607 17.6315 17.2607 17.8352 17.2202C18.0388 17.1797 18.25 17.2005 18.4418 17.2799C18.6337 17.3594 18.7977 17.494 18.913 17.6667C19.0284 17.8393 19.09 18.0423 19.09 18.25C19.0897 18.5284 18.979 18.7953 18.7821 18.9921C18.5853 19.189 18.3184 19.2997 18.04 19.3ZM21.2 12.0687H2.8V9.8687H21.2V12.0687Z" fill="black"/>
</svg>
