<svg width="24" height="24" viewBox="0 0 24 24" fill="none" xmlns="http://www.w3.org/2000/svg">
<path d="M9 16C8.40666 16 7.82664 16.1759 7.33329 16.5056C6.83994 16.8352 6.45542 17.3038 6.22836 17.8519C6.0013 18.4001 5.94189 19.0033 6.05764 19.5853C6.1734 20.1672 6.45912 20.7018 6.87868 21.1213C7.29824 21.5409 7.83279 21.8266 8.41473 21.9424C8.99667 22.0581 9.59987 21.9987 10.1481 21.7716C10.6962 21.5446 11.1648 21.1601 11.4944 20.6667C11.8241 20.1734 12 19.5933 12 19C12 18.2044 11.6839 17.4413 11.1213 16.8787C10.5587 16.3161 9.79565 16 9 16ZM9 20C8.80222 20 8.60888 19.9414 8.44443 19.8315C8.27998 19.7216 8.15181 19.5654 8.07612 19.3827C8.00043 19.2 7.98063 18.9989 8.01921 18.8049C8.0578 18.6109 8.15304 18.4327 8.29289 18.2929C8.43275 18.153 8.61093 18.0578 8.80491 18.0192C8.99889 17.9806 9.19996 18.0004 9.38268 18.0761C9.56541 18.1518 9.72159 18.28 9.83147 18.4444C9.94135 18.6089 10 18.8022 10 19C9.99971 19.2651 9.89426 19.5193 9.70679 19.7068C9.51931 19.8943 9.26513 19.9997 9 20ZM17 16C16.4067 16 15.8266 16.1759 15.3333 16.5056C14.8399 16.8352 14.4554 17.3038 14.2284 17.8519C14.0013 18.4001 13.9419 19.0033 14.0576 19.5853C14.1734 20.1672 14.4591 20.7018 14.8787 21.1213C15.2982 21.5409 15.8328 21.8266 16.4147 21.9424C16.9967 22.0581 17.5999 21.9987 18.1481 21.7716C18.6962 21.5446 19.1648 21.1601 19.4944 20.6667C19.8241 20.1734 20 19.5933 20 19C20 18.2044 19.6839 17.4413 19.1213 16.8787C18.5587 16.3161 17.7956 16 17 16ZM17 20C16.8022 20 16.6089 19.9414 16.4444 19.8315C16.28 19.7216 16.1518 19.5654 16.0761 19.3827C16.0004 19.2 15.9806 18.9989 16.0192 18.8049C16.0578 18.6109 16.153 18.4327 16.2929 18.2929C16.4327 18.153 16.6109 18.0578 16.8049 18.0192C16.9989 17.9806 17.2 18.0004 17.3827 18.0761C17.5654 18.1518 17.7216 18.28 17.8315 18.4444C17.9414 18.6089 18 18.8022 18 19C17.9997 19.2651 17.8943 19.5193 17.7068 19.7068C17.5193 19.8943 17.2651 19.9997 17 20ZM15.5 2H14V8H6.1949L5.3911 5H2V7H3.8564L5.2056 12.0353C5.4335 12.8858 5.93569 13.6374 6.63426 14.1734C7.33284 14.7095 8.18877 15 9.0693 15H15.5C17.2239 15 18.8772 14.3152 20.0962 13.0962C21.3152 11.8772 22 10.2239 22 8.5C22 6.77609 21.3152 5.12279 20.0962 3.90381C18.8772 2.68482 17.2239 2 15.5 2ZM15.5 13H9.0693C8.62915 12.9995 8.20143 12.8541 7.85224 12.5861C7.50306 12.3181 7.25187 11.9426 7.1375 11.5176L6.7308 10H16V4.0276C17.1435 4.15483 18.1948 4.71522 18.9379 5.5936C19.681 6.47198 20.0594 7.60162 19.9954 8.75038C19.9314 9.89914 19.4298 10.9797 18.5937 11.7701C17.7576 12.5605 16.6505 13.0006 15.5 13Z" fill="black"/>
</svg>
