<svg width="24" height="24" viewBox="0 0 24 24" fill="none" xmlns="http://www.w3.org/2000/svg">
<g clip-path="url(#clip0)">
<path d="M24 17V12.9323C24.0012 12.5332 23.8826 12.143 23.6594 11.8122C23.4362 11.4814 23.1189 11.2252 22.7484 11.0769C21.437 10.5321 20.0571 10.1698 18.6472 10L16.0332 7.0893C14.9681 6.02847 13.5503 5.39611 12.0494 5.3125H2.6042L0.3393 9.6611C0.116405 10.089 1.35711e-05 10.5644 0 11.0469L0 16.2L3.2834 16.93C3.42997 17.588 3.79451 18.1771 4.3179 18.602C4.84129 19.0268 5.49283 19.2623 6.16688 19.2704C6.84093 19.2785 7.49795 19.0587 8.0314 18.6466C8.56485 18.2345 8.94345 17.6543 9.1058 17H16.2247C16.3849 17.6481 16.7576 18.2239 17.2833 18.6355C17.809 19.047 18.4574 19.2707 19.125 19.2707C19.7926 19.2707 20.441 19.047 20.9667 18.6355C21.4924 18.2239 21.8651 17.6481 22.0253 17H24ZM6.2054 17.5708C5.94828 17.5708 5.69694 17.4946 5.48316 17.3517C5.26937 17.2089 5.10275 17.0058 5.00436 16.7683C4.90596 16.5307 4.88022 16.2694 4.93038 16.0172C4.98054 15.765 5.10435 15.5334 5.28616 15.3516C5.46797 15.1698 5.69961 15.0459 5.95178 14.9958C6.20396 14.9456 6.46534 14.9714 6.70289 15.0698C6.94043 15.1682 7.14347 15.3348 7.28631 15.5486C7.42916 15.7623 7.5054 16.0137 7.5054 16.2708C7.50503 16.6155 7.36795 16.9459 7.12423 17.1896C6.88051 17.4333 6.55007 17.5704 6.2054 17.5708ZM2.3051 10L3.7568 7.2125H12.0493C13.0105 7.29453 13.916 7.6984 14.6193 8.3588L16.0934 10H2.3051ZM19.1251 17.5708C18.868 17.5708 18.6166 17.4946 18.4029 17.3517C18.1891 17.2089 18.0225 17.0058 17.9241 16.7683C17.8257 16.5307 17.7999 16.2694 17.8501 16.0172C17.9002 15.765 18.0241 15.5334 18.2059 15.3516C18.3877 15.1698 18.6193 15.0459 18.8715 14.9958C19.1237 14.9456 19.385 14.9714 19.6226 15.0698C19.8601 15.1682 20.0632 15.3348 20.206 15.5486C20.3489 15.7623 20.4251 16.0137 20.4251 16.2708C20.4247 16.6155 20.2876 16.9459 20.0439 17.1897C19.8002 17.4334 19.4697 17.5705 19.125 17.5708H19.1251Z" fill="black"/>
</g>
<defs>
<clipPath id="clip0">
<rect width="24" height="24" fill="white"/>
</clipPath>
</defs>
</svg>
