<svg width="24" height="24" viewBox="0 0 24 24" fill="none" xmlns="http://www.w3.org/2000/svg">
<path d="M7.74402 15.8677C7.47875 15.8676 7.21944 15.9463 6.99887 16.0936C6.77829 16.241 6.60637 16.4505 6.50484 16.6955C6.40332 16.9406 6.37674 17.2103 6.42848 17.4705C6.48022 17.7306 6.60795 17.9696 6.79552 18.1572C6.98308 18.3448 7.22206 18.4725 7.48223 18.5243C7.7424 18.576 8.01208 18.5495 8.25715 18.448C8.50223 18.3465 8.71171 18.1746 8.85908 17.954C9.00646 17.7334 9.08512 17.4741 9.08512 17.2089C9.08512 16.8532 8.94383 16.512 8.69233 16.2605C8.44083 16.009 8.09971 15.8677 7.74402 15.8677ZM7.74402 17.7501C7.63698 17.7501 7.53235 17.7183 7.44335 17.6588C7.35435 17.5994 7.28498 17.5149 7.24402 17.416C7.20306 17.3171 7.19234 17.2083 7.21322 17.1033C7.2341 16.9983 7.28565 16.9019 7.36134 16.8262C7.43703 16.7505 7.53346 16.6989 7.63844 16.6781C7.74342 16.6572 7.85224 16.6679 7.95113 16.7089C8.05002 16.7498 8.13455 16.8192 8.19402 16.9082C8.25348 16.9972 8.28522 17.1018 8.28522 17.2089C8.28501 17.3523 8.22792 17.4898 8.12646 17.5912C8.02501 17.6927 7.88748 17.7497 7.74402 17.7499V17.7501ZM16.256 15.8677C15.9908 15.8677 15.7315 15.9463 15.5109 16.0937C15.2903 16.2411 15.1184 16.4505 15.0169 16.6956C14.9154 16.9407 14.8888 17.2103 14.9406 17.4705C14.9923 17.7307 15.1201 17.9697 15.3077 18.1572C15.4952 18.3448 15.7342 18.4725 15.9944 18.5243C16.2545 18.576 16.5242 18.5495 16.7693 18.448C17.0143 18.3465 17.2238 18.1745 17.3712 17.954C17.5186 17.7334 17.5972 17.4741 17.5972 17.2089C17.5972 17.0327 17.5626 16.8583 17.4952 16.6956C17.4278 16.5329 17.329 16.385 17.2044 16.2605C17.0799 16.1359 16.932 16.0371 16.7693 15.9697C16.6066 15.9023 16.4322 15.8676 16.256 15.8677ZM16.256 17.7501C16.149 17.7501 16.0443 17.7183 15.9553 17.6588C15.8663 17.5994 15.797 17.5149 15.756 17.416C15.7151 17.3171 15.7043 17.2083 15.7252 17.1033C15.7461 16.9983 15.7976 16.9019 15.8733 16.8262C15.949 16.7505 16.0455 16.6989 16.1504 16.6781C16.2554 16.6572 16.3642 16.6679 16.4631 16.7089C16.562 16.7498 16.6465 16.8192 16.706 16.9082C16.7655 16.9972 16.7972 17.1018 16.7972 17.2089C16.797 17.3523 16.7399 17.4898 16.6385 17.5912C16.537 17.6927 16.3995 17.7497 16.256 17.7499V17.7501ZM10.2322 6.69766C10.7014 6.22941 11.3372 5.96643 12 5.96643C12.6629 5.96643 13.2987 6.22941 13.7678 6.69766L14.4749 5.99046C13.818 5.3351 12.9279 4.96707 11.9999 4.96707C11.072 4.96707 10.1819 5.3351 9.52492 5.99046L10.2322 6.69766ZM16.5962 3.86916L17.3033 3.16206C15.8957 1.75754 13.9885 0.96875 12 0.96875C10.0116 0.96875 8.10431 1.75754 6.69672 3.16206L7.40382 3.86916C8.62378 2.652 10.2767 1.96845 12 1.96845C13.7233 1.96845 15.3763 2.652 16.5962 3.86916ZM21.1885 11.8538H18.7867C18.6827 11.3788 18.5781 10.9038 18.4514 10.4338C18.3492 10.0527 18.1327 9.71212 17.8311 9.45787C17.5294 9.20362 17.1571 9.04793 16.7642 9.01176C16.7053 9.00396 16.5735 8.99986 16.5129 8.99986H7.48812C7.43412 8.99986 7.30812 9.00306 7.25562 9.00936C6.85895 9.04183 6.48202 9.19614 6.17646 9.45115C5.87089 9.70616 5.65164 10.0494 5.54872 10.4339C5.42192 10.9039 5.31732 11.3788 5.21332 11.8539H2.81152V14.0893L4.72652 14.7543C4.59417 15.8309 4.51966 16.9138 4.50332 17.9985C4.50112 18.1268 4.50002 18.4505 4.50002 18.5785V21.9333C4.50002 22.0199 4.51709 22.1058 4.55026 22.1858C4.58343 22.2659 4.63205 22.3387 4.69333 22.4C4.75462 22.4612 4.82738 22.5099 4.90745 22.543C4.98753 22.5762 5.07335 22.5933 5.16002 22.5933H6.67082C6.7575 22.5933 6.84332 22.5762 6.92339 22.543C7.00347 22.5099 7.07623 22.4612 7.13751 22.4C7.1988 22.3387 7.24742 22.2659 7.28058 22.1858C7.31375 22.1058 7.33082 22.0199 7.33082 21.9333V20.9999H16.6691V21.9336C16.6691 22.1086 16.7387 22.2765 16.8624 22.4002C16.9862 22.524 17.1541 22.5936 17.3291 22.5936H18.84C19.0151 22.5936 19.1829 22.524 19.3067 22.4002C19.4305 22.2765 19.5 22.1086 19.5 21.9336V18.5786C19.5 18.4522 19.499 18.1306 19.4968 18.0042C19.4807 16.9176 19.4062 15.8327 19.2736 14.7542L21.1885 14.0893V11.8538ZM4.84522 13.8426L3.71142 13.449V12.7538H5.03082C4.96302 13.1158 4.90002 13.4784 4.84522 13.8426ZM6.51422 10.6942C6.56361 10.5087 6.66913 10.3431 6.81633 10.2201C6.96353 10.097 7.1452 10.0224 7.33642 10.0067L7.48832 9.99986H16.5127C16.5444 9.99986 16.6084 10.0009 16.6479 10.0048C16.8412 10.0194 17.0254 10.0933 17.1752 10.2163C17.3251 10.3393 17.4334 10.5055 17.4854 10.6923C17.7755 11.7788 18.0029 12.8812 18.1666 13.9939H5.83362C5.99707 12.8818 6.22431 11.7801 6.51422 10.6942ZM18.5 21.6607H17.6022L17.5972 19.9999H6.40282L6.39782 21.6607H5.50002C5.50002 21.6607 5.50132 18.1224 5.50342 18.0165C5.51899 16.9837 5.58909 15.9525 5.71342 14.9272H18.2867C18.411 15.9518 18.4811 16.9824 18.4967 18.0145L18.5 21.6607ZM20.2886 13.449L19.1548 13.8427C19.1003 13.4785 19.0371 13.1158 18.9693 12.7538H20.2886V13.449Z" fill="black"/>
</svg>
