<svg width="24" height="24" viewBox="0 0 24 24" fill="none" xmlns="http://www.w3.org/2000/svg">
<path d="M9.22922 6.72939C9.77638 6.72885 10.3107 6.56363 10.7626 6.25522C11.2146 5.94681 11.5633 5.50949 11.7632 5.00019H12.3232L13.5 4.14399L14.5 5.00019L15.5 4.14399L16.5 5.00019L17.5 4.14399V3.00019H11.7632C11.581 2.53907 11.2765 2.13636 10.8825 1.83537C10.4885 1.53438 10.0199 1.3465 9.52711 1.29195C9.03431 1.2374 8.53595 1.31823 8.08566 1.52575C7.63537 1.73328 7.25017 2.05964 6.97151 2.46974C6.69285 2.87984 6.53127 3.35815 6.50414 3.85322C6.47702 4.34829 6.58539 4.84139 6.81758 5.27947C7.04977 5.71756 7.39701 6.08405 7.82194 6.33952C8.24687 6.59499 8.73341 6.72978 9.22922 6.72939ZM8.27782 3.25019C8.42616 3.25019 8.57116 3.29418 8.6945 3.37659C8.81784 3.459 8.91397 3.57613 8.97073 3.71318C9.0275 3.85022 9.04235 4.00102 9.01341 4.14651C8.98447 4.29199 8.91304 4.42563 8.80815 4.53052C8.70326 4.63541 8.56963 4.70684 8.42414 4.73578C8.27866 4.76472 8.12785 4.74987 7.99081 4.6931C7.85377 4.63633 7.73663 4.54021 7.65422 4.41687C7.57181 4.29353 7.52782 4.14853 7.52782 4.00019C7.52782 3.80128 7.60684 3.61051 7.74749 3.46986C7.88814 3.32921 8.07891 3.25019 8.27782 3.25019ZM18.6753 14.0002C18.5199 12.8318 18.3041 11.6722 18.0286 10.5261C17.9224 10.0909 17.6732 9.70388 17.3208 9.4272C16.9685 9.15052 16.5334 9.00015 16.0854 9.00019H7.91462C7.46662 9.00015 7.03158 9.15052 6.67923 9.4272C6.32687 9.70388 6.07762 10.0909 5.97142 10.5261C5.69599 11.6722 5.48014 12.8318 5.32472 14.0002H3.27612V15.403L4.99852 16.0011V20.7185H5.00002V21.9339C5.00002 22.1089 5.06956 22.2768 5.19333 22.4006C5.31711 22.5244 5.48498 22.5939 5.66002 22.5939H6.22342C6.39847 22.5939 6.56634 22.5244 6.69011 22.4006C6.81389 22.2768 6.88342 22.1089 6.88342 21.9339V21.0002H17.1284V21.9339C17.1284 22.1089 17.198 22.2768 17.3217 22.4006C17.4455 22.5244 17.6134 22.5939 17.7884 22.5939H18.34C18.5151 22.5939 18.6829 22.5244 18.8067 22.4006C18.9305 22.2768 19 22.1089 19 21.9339V20.7185H19.0015V16.0011L20.7241 15.403V14.0002H18.6753ZM7.56322 18.1602C7.36116 18.1602 7.16364 18.1002 6.99566 17.9879C6.82767 17.8756 6.69676 17.716 6.61948 17.5293C6.54221 17.3426 6.52203 17.1372 6.56151 16.939C6.601 16.7408 6.69836 16.5588 6.84129 16.416C6.98422 16.2731 7.1663 16.1759 7.3645 16.1365C7.5627 16.0972 7.76811 16.1175 7.95477 16.1949C8.14142 16.2723 8.30092 16.4033 8.41311 16.5714C8.52529 16.7395 8.58512 16.937 8.58502 17.1391C8.58504 17.2733 8.55861 17.4061 8.50727 17.5301C8.45592 17.6541 8.38065 17.7667 8.28576 17.8616C8.19087 17.9564 8.07822 18.0317 7.95425 18.083C7.83027 18.1343 7.6974 18.1607 7.56322 18.1607V18.1602ZM16.4368 18.1602C16.2348 18.1602 16.0373 18.1002 15.8693 17.988C15.7013 17.8757 15.5704 17.7161 15.4931 17.5295C15.4158 17.3428 15.3955 17.1374 15.435 16.9392C15.4744 16.7411 15.5717 16.559 15.7146 16.4162C15.8575 16.2733 16.0395 16.176 16.2377 16.1366C16.4358 16.0972 16.6412 16.1174 16.8279 16.1948C17.0146 16.2721 17.1741 16.403 17.2864 16.571C17.3986 16.739 17.4585 16.9365 17.4585 17.1386C17.4586 17.2728 17.4322 17.4057 17.3809 17.5297C17.3296 17.6537 17.2544 17.7664 17.1595 17.8614C17.0646 17.9563 16.9519 18.0316 16.8279 18.0829C16.7039 18.1343 16.571 18.1607 16.4368 18.1607V18.1602ZM5.83002 14.0002C5.98187 12.8718 6.19114 11.7518 6.45702 10.6447C6.52195 10.4022 6.64776 10.1804 6.82252 10.0002H17.1775C17.3522 10.1804 17.4779 10.4023 17.5427 10.6447C17.8087 11.7518 18.0181 12.8718 18.17 14.0002H5.83002Z" fill="black"/>
</svg>
