<svg width="24" height="24" viewBox="0 0 24 24" fill="none" xmlns="http://www.w3.org/2000/svg">
<path d="M8.2976 15.9923C8.09555 15.9923 7.89805 16.0523 7.73006 16.1645C7.56207 16.2768 7.43114 16.4363 7.35384 16.623C7.27653 16.8097 7.25631 17.0151 7.29574 17.2133C7.33517 17.4114 7.43248 17.5935 7.57536 17.7363C7.71823 17.8792 7.90026 17.9765 8.09843 18.0159C8.2966 18.0553 8.50201 18.0351 8.68867 17.9577C8.87534 17.8804 9.03489 17.7495 9.14714 17.5815C9.25939 17.4135 9.3193 17.216 9.3193 17.0139C9.31931 16.8797 9.29289 16.7469 9.24155 16.6229C9.19021 16.499 9.11495 16.3863 9.02007 16.2915C8.9252 16.1966 8.81256 16.1213 8.6886 16.07C8.56463 16.0187 8.43177 15.9923 8.2976 15.9923ZM15.7024 15.9923C15.5004 15.9923 15.3028 16.0523 15.1349 16.1645C14.9669 16.2768 14.8359 16.4363 14.7586 16.623C14.6813 16.8097 14.6611 17.0151 14.7005 17.2133C14.74 17.4114 14.8373 17.5935 14.9802 17.7363C15.123 17.8792 15.3051 17.9765 15.5032 18.0159C15.7014 18.0553 15.9068 18.0351 16.0935 17.9577C16.2801 17.8804 16.4397 17.7495 16.5519 17.5815C16.6642 17.4135 16.7241 17.216 16.7241 17.0139C16.7241 16.8797 16.6977 16.7469 16.6464 16.6229C16.595 16.499 16.5198 16.3863 16.4249 16.2915C16.33 16.1966 16.2174 16.1213 16.0934 16.07C15.9694 16.0187 15.8366 15.9923 15.7024 15.9923ZM21 13.3187H19.0542C18.8664 12.281 18.6135 11.2561 18.2969 10.2501C18.1804 9.88708 17.9517 9.57041 17.6437 9.34574C17.3357 9.12107 16.9643 9.00001 16.583 9H7.417C7.03576 9 6.66437 9.12105 6.35635 9.3457C6.04833 9.57035 5.81959 9.88699 5.7031 10.25C5.38655 11.256 5.13361 12.2809 4.9458 13.3186H3V14.7214L4.6565 15.2966C4.55791 16.1738 4.50567 17.0555 4.5 17.9382V21.9337C4.5 22.1087 4.56954 22.2766 4.69331 22.4004C4.81708 22.5242 4.98496 22.5937 5.16 22.5937H5.84C6.01504 22.5937 6.18292 22.5242 6.30669 22.4004C6.43046 22.2766 6.5 22.1087 6.5 21.9337V21H17.5V21.9337C17.5 22.1087 17.5695 22.2766 17.6933 22.4004C17.8171 22.5242 17.985 22.5937 18.16 22.5937H18.84C19.015 22.5937 19.1829 22.5242 19.3067 22.4004C19.4305 22.2766 19.5 22.1087 19.5 21.9337V17.9382C19.4943 17.0556 19.4421 16.1738 19.3435 15.2967L21 14.7215V13.3187ZM7.417 10.8H16.583C16.8424 11.6271 17.0556 12.4679 17.2217 13.3187H6.7783C6.94435 12.4679 7.15758 11.6271 7.417 10.8ZM17.7 19.2H6.3V17.9382C6.30567 16.9954 6.36838 16.0539 6.4878 15.1187H17.5122C17.6316 16.0539 17.6943 16.9954 17.7 17.9382V19.2ZM18 6.5C18.1799 6.5 18.3581 6.46456 18.5243 6.39571C18.6905 6.32687 18.8415 6.22595 18.9687 6.09874C19.096 5.97152 19.1969 5.82049 19.2657 5.65428C19.3346 5.48806 19.37 5.30991 19.37 5.13C19.1075 3.87509 18.6449 2.67056 18 1.5625C17.3551 2.67056 16.8925 3.87509 16.63 5.13C16.63 5.30991 16.6654 5.48806 16.7343 5.65428C16.8031 5.82049 16.904 5.97152 17.0313 6.09874C17.2882 6.35566 17.6367 6.5 18 6.5ZM6 6.5C6.17991 6.5 6.35806 6.46456 6.52428 6.39571C6.69049 6.32687 6.84152 6.22595 6.96874 6.09874C7.09595 5.97152 7.19687 5.82049 7.26572 5.65428C7.33456 5.48806 7.37 5.30991 7.37 5.13C7.10749 3.87509 6.64492 2.67056 6 1.5625C5.35508 2.67056 4.89251 3.87509 4.63 5.13C4.63 5.30991 4.66544 5.48806 4.73428 5.65428C4.80313 5.82049 4.90405 5.97152 5.03126 6.09874C5.28819 6.35566 5.63665 6.5 6 6.5ZM12 6.5C12.1799 6.5 12.3581 6.46456 12.5243 6.39571C12.6905 6.32687 12.8415 6.22595 12.9687 6.09874C13.096 5.97152 13.1969 5.82049 13.2657 5.65428C13.3346 5.48806 13.37 5.30991 13.37 5.13C13.1075 3.87509 12.6449 2.67056 12 1.5625C11.3551 2.67056 10.8925 3.87509 10.63 5.13C10.63 5.30991 10.6654 5.48806 10.7343 5.65428C10.8031 5.82049 10.904 5.97152 11.0313 6.09874C11.2882 6.35566 11.6367 6.5 12 6.5Z" fill="black"/>
</svg>
