<svg width="24" height="24" viewBox="0 0 24 24" fill="none" xmlns="http://www.w3.org/2000/svg">
<path d="M23 13.921C23.002 13.5788 22.9122 13.2423 22.7401 12.9466C22.5679 12.6508 22.3196 12.4066 22.021 12.2393C20.6672 11.4653 19.1423 11.0394 17.5833 10.9998L14.8728 8.14064C14.2667 7.50564 13.4515 7.11113 12.5775 7.02984L12.3375 5.83984H8.9709L8.7549 7.03704C7.65262 7.13451 6.62571 7.6375 5.873 8.44864L3.5452 10.9998H2.6919C2.24328 10.9998 1.81303 11.178 1.49576 11.4952C1.17848 11.8123 1.00016 12.2425 1 12.6911V16.4442L3.2424 16.8376C3.3351 17.4075 3.62281 17.9276 4.05637 18.3089C4.48994 18.6902 5.04245 18.9091 5.61951 18.9283C6.19658 18.9474 6.76239 18.7656 7.22028 18.4139C7.67817 18.0621 7.99972 17.5623 8.13 16.9998H16.0166C16.1438 17.5487 16.4531 18.0383 16.8941 18.3888C17.3352 18.7393 17.882 18.9302 18.4454 18.9302C19.0087 18.9302 19.5555 18.7393 19.9966 18.3888C20.4376 18.0383 20.7469 17.5487 20.8741 16.9998H23V13.921ZM6.6027 9.08124C6.9329 8.72764 7.33219 8.44559 7.77582 8.25256C8.21945 8.05953 8.69799 7.95963 9.1818 7.95904H12.2136C12.9197 7.95759 13.5979 8.23421 14.1016 8.72904C14.1195 8.74634 14.2771 8.90274 14.2933 8.92214L16.3013 10.9998H4.8444L6.6027 9.08124ZM5.7014 18.0298C5.38495 18.0298 5.07561 17.936 4.81249 17.7602C4.54937 17.5844 4.34429 17.3345 4.22319 17.0421C4.10209 16.7498 4.07041 16.4281 4.13214 16.1177C4.19388 15.8073 4.34627 15.5222 4.57003 15.2985C4.79379 15.0747 5.07889 14.9223 5.38926 14.8606C5.69963 14.7989 6.02133 14.8305 6.31369 14.9516C6.60606 15.0727 6.85594 15.2778 7.03175 15.5409C7.20756 15.804 7.3014 16.1134 7.3014 16.4298C7.3009 16.854 7.13216 17.2607 6.83222 17.5607C6.53227 17.8606 6.12559 18.0293 5.7014 18.0298ZM18.4454 18.0298C18.129 18.0298 17.8196 17.936 17.5565 17.7602C17.2934 17.5844 17.0883 17.3345 16.9672 17.0421C16.8461 16.7498 16.8144 16.4281 16.8761 16.1177C16.9379 15.8073 17.0903 15.5222 17.314 15.2985C17.5378 15.0747 17.8229 14.9223 18.1333 14.8606C18.4436 14.7989 18.7653 14.8305 19.0577 14.9516C19.3501 15.0727 19.5999 15.2778 19.7758 15.5409C19.9516 15.804 20.0454 16.1134 20.0454 16.4298C20.0449 16.854 19.8762 17.2607 19.5762 17.5607C19.2763 17.8606 18.8696 18.0294 18.4454 18.0298Z" fill="black"/>
</svg>
