<svg width="24" height="24" viewBox="0 0 24 24" fill="none" xmlns="http://www.w3.org/2000/svg">
<path d="M19 11.5001C18.7416 11.5037 18.4839 11.5298 18.23 11.578L16.3594 4.6001H13.3857C13.2796 4.6001 13.1779 4.64224 13.1029 4.71726C13.0278 4.79227 12.9857 4.89401 12.9857 5.0001C12.9857 5.10618 13.0278 5.20793 13.1029 5.28294C13.1779 5.35795 13.2796 5.4001 13.3857 5.4001H15.7457L16.4425 8.0001H13.1094C12.4076 8.00121 11.7184 8.1864 11.1106 8.53717C10.5028 8.88795 9.99759 9.39203 9.64551 9.9991L4.00001 10.0001V11.6209C3.19022 11.8025 2.44653 12.2048 1.85137 12.7831C1.25621 13.3615 0.832829 14.0934 0.628147 14.8976C0.423465 15.7019 0.445481 16.5471 0.691755 17.3396C0.938029 18.1321 1.39894 18.841 2.0234 19.3876C2.64787 19.9342 3.41149 20.2972 4.22963 20.4363C5.04776 20.5755 5.88847 20.4855 6.65854 20.1761C7.42862 19.8667 8.098 19.3502 8.59248 18.6837C9.08696 18.0172 9.38723 17.2268 9.46001 16.4001H14.541C14.6207 17.2673 14.9509 18.0926 15.4914 18.7754C16.0319 19.4583 16.7593 19.9692 17.585 20.2459C18.4107 20.5226 19.2991 20.5531 20.1419 20.3338C20.9847 20.1145 21.7455 19.6548 22.3316 19.0107C22.9177 18.3666 23.3039 17.566 23.4429 16.7063C23.582 15.8466 23.4681 14.965 23.115 14.169C22.7618 13.3729 22.1848 12.6968 21.4542 12.2229C20.7235 11.749 19.8709 11.4979 19 11.5001ZM8.46001 16.4001C8.35778 17.2878 7.91993 18.1027 7.23617 18.678C6.55241 19.2532 5.67453 19.5451 4.78245 19.4939C3.89038 19.4428 3.05166 19.0523 2.4382 18.4026C1.82474 17.7529 1.48298 16.8932 1.48298 15.9997C1.48298 15.1062 1.82474 14.2464 2.4382 13.5968C3.05166 12.9471 3.89038 12.5566 4.78245 12.5054C5.67453 12.4543 6.55241 12.7462 7.23617 13.3214C7.91993 13.8967 8.35778 14.7116 8.46001 15.5993H4.00001V16.4001H8.46001ZM19 19.5001C18.1856 19.5012 17.3963 19.2178 16.7685 18.699C16.1407 18.1802 15.7138 17.4584 15.5615 16.6583C15.4092 15.8582 15.541 15.0301 15.9343 14.3169C16.3275 13.6037 16.9574 13.0501 17.7153 12.7519L18.3132 14.9833C18.1427 15.0931 18.002 15.2434 17.9037 15.4208C17.8054 15.5983 17.7526 15.7973 17.75 16.0001C17.7472 16.2443 17.8161 16.484 17.948 16.6896C18.08 16.8951 18.2693 17.0575 18.4925 17.1566C18.7157 17.2558 18.9631 17.2874 19.204 17.2475C19.445 17.2076 19.669 17.098 19.8484 16.9322C20.0277 16.7664 20.1546 16.5517 20.2133 16.3146C20.272 16.0775 20.2599 15.8285 20.1786 15.5981C20.0973 15.3678 19.9503 15.1664 19.7558 15.0187C19.5612 14.871 19.3277 14.7835 19.084 14.7671L18.49 12.5516C18.6585 12.5218 18.829 12.5046 19 12.5001C19.9283 12.5001 20.8185 12.8688 21.4749 13.5252C22.1313 14.1816 22.5 15.0718 22.5 16.0001C22.5 16.9284 22.1313 17.8186 21.4749 18.475C20.8185 19.1313 19.9283 19.5001 19 19.5001ZM19.6836 9.2501H20.1445V6.7501H19.6836C19.3521 6.7501 19.0341 6.88179 18.7997 7.11621C18.5653 7.35063 18.4336 7.66858 18.4336 8.0001C18.4336 8.33162 18.5653 8.64956 18.7997 8.88398C19.0341 9.1184 19.3521 9.2501 19.6836 9.2501Z" fill="black"/>
</svg>
