<svg width="24" height="24" viewBox="0 0 24 24" fill="none" xmlns="http://www.w3.org/2000/svg">
<path d="M19.8765 15.7949C19.7726 15.8584 19.6675 15.9066 19.563 15.9616L20.1122 11.6006C20.1398 11.3823 20.091 11.1612 19.9739 10.9749C19.8569 10.7886 19.679 10.6486 19.4704 10.5787L19 10.4219V5.1666C19 4.68038 18.8069 4.21407 18.463 3.87026C18.1192 3.52645 17.6529 3.3333 17.1667 3.3333H13.5V2H10.5V3.3333H6.8334C6.59264 3.33329 6.35423 3.3807 6.1318 3.47282C5.90936 3.56495 5.70724 3.69999 5.537 3.87023C5.36675 4.04046 5.2317 4.24257 5.13956 4.465C5.04742 4.68744 5 4.92584 5 5.1666V10.4219L4.53 10.5787C4.32133 10.6486 4.14329 10.7886 4.02616 10.9748C3.90903 11.1611 3.86003 11.3823 3.8875 11.6006L4.4326 15.96C4.3295 15.9055 4.226 15.858 4.1235 15.7954C3.18928 15.2006 2.10742 14.8788 1 14.8662V16.3C1.84352 16.3135 2.66654 16.5621 3.3765 17.0178C4.31079 17.6123 5.39265 17.9339 6.5 17.9463C7.60737 17.9339 8.68923 17.6122 9.6235 17.0176C10.3284 16.5514 11.1549 16.3028 12 16.3028C12.8451 16.3028 13.6716 16.5514 14.3765 17.0176C15.3055 17.6236 16.3908 17.9463 17.5 17.9463C18.6092 17.9463 19.6945 17.6236 20.6235 17.0176C21.3335 16.562 22.1565 16.3134 23 16.3V14.8662C21.8926 14.8786 20.8108 15.2003 19.8765 15.7949ZM6.4333 5.1666C6.4333 5.06051 6.47544 4.95877 6.55046 4.88376C6.62547 4.80874 6.72721 4.7666 6.8333 4.7666H17.1667C17.2728 4.7666 17.3745 4.80874 17.4495 4.88376C17.5246 4.95877 17.5667 5.06051 17.5667 5.1666V9.9442L12 8.0885L6.4333 9.9442V5.1666ZM17.9869 16.4734C16.9828 16.5835 15.9714 16.3439 15.1235 15.7949C14.1934 15.1917 13.1086 14.8706 12 14.8706C10.8914 14.8706 9.80657 15.1917 8.8765 15.7949C8.16654 16.2506 7.34352 16.4992 6.5 16.5127C6.33566 16.5104 6.17162 16.498 6.0088 16.4756L5.4312 11.8594L12 9.67L18.5679 11.86L17.9869 16.4734ZM15.123 19.4609C14.1927 18.8586 13.108 18.5381 11.9998 18.5381C10.8915 18.5381 9.80682 18.8586 8.8765 19.4609C8.16654 19.9166 7.34352 20.1652 6.5 20.1787C5.65633 20.1651 4.83317 19.9166 4.123 19.4609C3.18855 18.8672 2.10703 18.5459 1 18.5332V19.9668C1.84335 19.9805 2.66624 20.2287 3.3765 20.6836C4.31077 21.2782 5.39263 21.5999 6.5 21.6123C7.60722 21.5999 8.68894 21.2783 9.623 20.6836C10.3283 20.2183 11.1547 19.9702 11.9998 19.9702C12.8448 19.9702 13.6712 20.2183 14.3765 20.6836C15.3054 21.2896 16.3906 21.6123 17.4998 21.6123C18.6089 21.6123 19.6941 21.2896 20.623 20.6836C21.3335 20.2287 22.1565 19.9805 23 19.9668V18.5332C21.8928 18.546 20.8112 18.8673 19.8765 19.4609C19.1715 19.9272 18.345 20.1758 17.4998 20.1758C16.6545 20.1758 15.828 19.9272 15.123 19.4609Z" fill="black"/>
</svg>
