<svg width="24" height="24" viewBox="0 0 24 24" fill="none" xmlns="http://www.w3.org/2000/svg">
<path d="M17.916 6.79098L20 4.70698L22.084 6.79098L22.791 6.08398L20.707 3.99998L22.791 1.91598L22.084 1.20898L20 3.29298L17.916 1.20898L17.209 1.91598L19.2929 3.99998L17.209 6.08398L17.916 6.79098ZM21.8911 10.1233L19.9375 9.50998H15.29L10.7034 1.84378H7.29225L9.64315 9.50998H5.85095L4.25705 6.84938H0.949951L2.47925 11.8438L0.949951 16.8381H4.25705L5.85095 14.1771H9.64315L7.29225 21.8438H10.7034L15.29 14.1771H19.9377L21.8913 13.5641C22.2603 13.452 22.5835 13.2243 22.8132 12.9145C23.0428 12.6047 23.1668 12.2293 23.1668 11.8437C23.1668 11.4581 23.0428 11.0826 22.8132 10.7729C22.5835 10.4631 22.2603 10.2354 21.8913 10.1233H21.8911ZM21.6254 12.67L19.8018 13.2441H14.76L14.4883 13.6983L10.1741 20.91H8.55465L10.5356 14.45L10.9056 13.243H5.32225L5.05045 13.6964L3.72845 15.904H2.21145L3.37145 12.1161L3.45495 11.8431L3.37145 11.57L2.21145 7.78198H3.72845L5.05045 9.98998L5.32225 10.4434H10.9057L10.5357 9.23648L8.55465 2.77698H10.1741L14.4887 9.98998L14.7604 10.4441H19.8018L21.6254 11.0182C21.8015 11.073 21.9555 11.1828 22.0649 11.3313C22.1742 11.4799 22.2332 11.6596 22.2332 11.8441C22.2332 12.0286 22.1742 12.2082 22.0649 12.3568C21.9555 12.5054 21.8015 12.6151 21.6254 12.67Z" fill="black"/>
</svg>
