<svg width="24" height="24" viewBox="0 0 24 24" fill="none" xmlns="http://www.w3.org/2000/svg">
<path d="M18.3911 10.1929L13.6667 8.8329V2H11.0405C10.7575 1.99996 10.4773 2.05681 10.2167 2.16718C9.95608 2.27756 9.72031 2.4392 9.5234 2.6425L8.2083 4H4V14.2936C4 15.0114 4.28514 15.6998 4.79269 16.2073C5.30023 16.7149 5.98862 17 6.7064 17H20L20.614 13.8367C20.7633 13.0616 20.6182 12.2588 20.2072 11.5849C19.7961 10.9111 19.1486 10.4148 18.3911 10.1929ZM19.0986 13.7498L18.7546 15.4998H6.7064C6.50049 15.5021 6.29884 15.4411 6.12881 15.3249C5.95878 15.2087 5.82859 15.0431 5.7559 14.8504C5.58772 14.384 5.50115 13.8921 5.5 13.3963V5.5H8.2788L8.4368 5.4493L9.093 5.2426L9.653 4.6647C9.6635 4.6537 9.7238 4.5924 9.7353 4.5823C10.0042 4.32029 10.3076 4.09625 10.6372 3.9164L11.4133 3.5H12.1667V9.9506L12.4856 10.0426L13.7125 10.3969L17.5271 11.4984C17.7648 11.5671 17.9963 11.6556 18.2192 11.7628C18.501 11.8971 18.7384 12.1094 18.9032 12.3745C19.068 12.6396 19.1534 12.9464 19.1492 13.2585C19.1474 13.4235 19.1304 13.5881 19.0986 13.75V13.7498ZM5.4586 18.2188C5.1916 18.2188 4.93059 18.298 4.70858 18.4463C4.48657 18.5947 4.31354 18.8055 4.21136 19.0522C4.10918 19.2989 4.08245 19.5703 4.13454 19.8322C4.18663 20.094 4.31521 20.3346 4.50401 20.5234C4.69281 20.7122 4.93335 20.8408 5.19523 20.8929C5.4571 20.945 5.72854 20.9182 5.97522 20.816C6.2219 20.7139 6.43274 20.5408 6.58108 20.3188C6.72942 20.0968 6.8086 19.8358 6.8086 19.5688C6.8086 19.3915 6.77367 19.2159 6.70581 19.0521C6.63795 18.8883 6.53848 18.7395 6.41309 18.6141C6.2877 18.4887 6.13884 18.3893 5.97501 18.3215C5.81119 18.2537 5.63561 18.2188 5.4583 18.2188H5.4586ZM10.0558 18.2188C9.7888 18.2188 9.52779 18.298 9.30578 18.4463C9.08377 18.5947 8.91074 18.8055 8.80856 19.0522C8.70638 19.2989 8.67965 19.5703 8.73174 19.8322C8.78383 20.094 8.91241 20.3346 9.10121 20.5234C9.29001 20.7122 9.53055 20.8408 9.79243 20.8929C10.0543 20.945 10.3257 20.9182 10.5724 20.816C10.8191 20.7139 11.0299 20.5408 11.1783 20.3188C11.3266 20.0968 11.4058 19.8358 11.4058 19.5688C11.4058 19.3915 11.3709 19.2159 11.303 19.0521C11.2351 18.8883 11.1357 18.7395 11.0103 18.6141C10.8849 18.4887 10.736 18.3893 10.5722 18.3215C10.4084 18.2537 10.2328 18.2188 10.0555 18.2188H10.0558ZM14.6531 18.2188C14.3861 18.2188 14.1251 18.298 13.9031 18.4463C13.6811 18.5947 13.508 18.8055 13.4059 19.0522C13.3037 19.2989 13.2769 19.5703 13.329 19.8322C13.3811 20.094 13.5097 20.3346 13.6985 20.5234C13.8873 20.7122 14.1279 20.8408 14.3897 20.8929C14.6516 20.945 14.923 20.9182 15.1697 20.816C15.4164 20.7139 15.6272 20.5408 15.7756 20.3188C15.9239 20.0968 16.0031 19.8358 16.0031 19.5688C16.0031 19.3915 15.9682 19.2159 15.9003 19.0521C15.8324 18.8883 15.733 18.7395 15.6076 18.6141C15.4822 18.4887 15.3333 18.3893 15.1695 18.3215C15.0057 18.2537 14.8301 18.2188 14.6528 18.2188H14.6531ZM19.2503 18.2188C18.9833 18.2188 18.7223 18.298 18.5003 18.4463C18.2783 18.5947 18.1052 18.8055 18.0031 19.0522C17.9009 19.2989 17.8741 19.5703 17.9262 19.8322C17.9783 20.094 18.1069 20.3346 18.2957 20.5234C18.4845 20.7122 18.7251 20.8408 18.9869 20.8929C19.2488 20.945 19.5202 20.9182 19.7669 20.816C20.0136 20.7139 20.2244 20.5408 20.3728 20.3188C20.5211 20.0968 20.6003 19.8358 20.6003 19.5688C20.6003 19.3915 20.5654 19.2159 20.4975 19.0521C20.4296 18.8883 20.3302 18.7395 20.2048 18.6141C20.0794 18.4887 19.9305 18.3893 19.7667 18.3215C19.6029 18.2537 19.4273 18.2188 19.25 18.2188H19.2503Z" fill="black"/>
</svg>
