<svg width="24" height="24" viewBox="0 0 24 24" fill="none" xmlns="http://www.w3.org/2000/svg">
<path d="M24 12.0002L22.7551 8.6366C22.6129 8.2541 22.3571 7.92425 22.022 7.69132C21.687 7.45839 21.2887 7.33353 20.8806 7.3335H16.3333V14.0002H0V18.0002H1.1545C1.28347 18.5449 1.59216 19.0304 2.03078 19.3782C2.4694 19.7261 3.0124 19.9161 3.5722 19.9175C4.13201 19.919 4.676 19.7319 5.11645 19.3864C5.55691 19.0409 5.86815 18.5571 6 18.013C6.13211 18.5567 6.44341 19.0401 6.88375 19.3853C7.32409 19.7305 7.86782 19.9175 8.42735 19.916C8.98687 19.9145 9.52961 19.7247 9.96811 19.3772C10.4066 19.0296 10.7154 18.5446 10.8446 18.0002H17.3116C17.4411 18.5459 17.7508 19.032 18.1908 19.3798C18.6308 19.7276 19.1753 19.9168 19.7361 19.9168C20.2969 19.9168 20.8414 19.7276 21.2814 19.3798C21.7214 19.032 22.0311 18.5459 22.1606 18.0002H24V12.0002ZM3.579 18.6168C3.34166 18.6168 3.10965 18.5464 2.91232 18.4146C2.71498 18.2827 2.56117 18.0953 2.47034 17.876C2.37952 17.6567 2.35576 17.4155 2.40206 17.1827C2.44836 16.9499 2.56265 16.7361 2.73047 16.5683C2.89829 16.4004 3.11211 16.2862 3.34489 16.2399C3.57767 16.1936 3.81895 16.2173 4.03822 16.3081C4.25749 16.399 4.44491 16.5528 4.57676 16.7501C4.70862 16.9475 4.779 17.1795 4.779 17.4168C4.77866 17.735 4.65212 18.04 4.42715 18.2649C4.20218 18.4899 3.89715 18.6165 3.579 18.6168ZM8.4201 18.6168C8.18276 18.6168 7.95075 18.5464 7.75342 18.4146C7.55608 18.2827 7.40227 18.0953 7.31144 17.876C7.22062 17.6567 7.19686 17.4155 7.24316 17.1827C7.28946 16.9499 7.40375 16.7361 7.57157 16.5683C7.73939 16.4004 7.95321 16.2862 8.18599 16.2399C8.41877 16.1936 8.66005 16.2173 8.87932 16.3081C9.09859 16.399 9.28601 16.5528 9.41786 16.7501C9.54972 16.9475 9.6201 17.1795 9.6201 17.4168C9.61976 17.735 9.4932 18.04 9.26821 18.265C9.04322 18.49 8.73817 18.6165 8.42 18.6168H8.4201ZM19.7361 18.6168C19.4988 18.6168 19.2668 18.5464 19.0694 18.4146C18.8721 18.2827 18.7183 18.0953 18.6274 17.876C18.5366 17.6567 18.5129 17.4155 18.5592 17.1827C18.6055 16.9499 18.7197 16.7361 18.8876 16.5683C19.0554 16.4004 19.2692 16.2862 19.502 16.2399C19.7348 16.1936 19.976 16.2173 20.1953 16.3081C20.4146 16.399 20.602 16.5528 20.7339 16.7501C20.8657 16.9475 20.9361 17.1795 20.9361 17.4168C20.9358 17.735 20.8092 18.04 20.5842 18.2649C20.3593 18.4899 20.0543 18.6165 19.7361 18.6168ZM17.7 12.0002V8.7002H20.8806C21.0087 8.69985 21.1339 8.73851 21.2395 8.81103C21.345 8.88356 21.4261 8.98651 21.4717 9.1062L22.5436 12.0002H17.7Z" fill="black"/>
</svg>
