<svg width="24" height="24" viewBox="0 0 24 24" fill="none" xmlns="http://www.w3.org/2000/svg">
<g clip-path="url(#clip0)">
<path d="M13.25 3.98828H12.75V5.98828H13.25V3.98828ZM20.3151 15.6506C20.4542 15.3244 20.572 14.9895 20.6678 14.6481L21.9378 9.98808H17V6.99998C17 6.73476 16.8946 6.48041 16.7071 6.29287C16.5196 6.10534 16.2652 5.99998 16 5.99998H7L6.0015 9.98778H2.3541L2.8367 15.3025C2.24546 15.0991 1.62522 14.9927 1 14.9873V15.4873C1.92082 15.4961 2.82507 15.7332 3.6318 16.1773C4.51121 16.6603 5.4967 16.9177 6.5 16.9263V16.9253C7.50295 16.9174 8.48822 16.6604 9.3672 16.1773C10.1717 15.7277 11.0779 15.4917 11.9995 15.4917C12.9211 15.4917 13.8273 15.7277 14.6318 16.1773C15.508 16.6677 16.4954 16.9253 17.4995 16.9253C18.5036 16.9253 19.491 16.6677 20.3672 16.1773C21.1743 15.7333 22.0789 15.4963 23 15.4873V14.9873C22.0657 14.997 21.1464 15.2241 20.3151 15.6506ZM7.39 6.49998H16C16.1326 6.49998 16.2598 6.55266 16.3536 6.64643C16.4473 6.7402 16.5 6.86737 16.5 6.99998V9.98778H6.517L7.39 6.49998ZM19.6146 15.9752C18.8582 16.3034 18.0362 16.4525 17.2127 16.4109C16.3891 16.3693 15.5864 16.138 14.8669 15.7352C13.9899 15.2472 13.0028 14.991 11.9992 14.991C10.9956 14.991 10.0085 15.2472 9.1315 15.7352C8.32518 16.1799 7.42081 16.4169 6.5 16.4248V16.4258C5.57889 16.4167 4.67437 16.1796 3.8672 15.7358C3.6985 15.6458 3.5272 15.5732 3.3572 15.4994L2.9021 10.4882H21.2831L20.1854 14.5171C20.0432 15.0205 19.8521 15.5089 19.6149 15.9752H19.6146ZM14.8669 18.7352C13.9899 18.2472 13.0028 17.991 11.9992 17.991C10.9956 17.991 10.0085 18.2472 9.1315 18.7352C8.32518 19.1799 7.42081 19.4169 6.5 19.4248V19.4258C5.57889 19.4167 4.67437 19.1796 3.8672 18.7358C2.98808 18.253 2.00293 17.9958 1 17.9873V18.4873C1.92078 18.496 2.82503 18.7329 3.6318 19.1768C4.51121 19.6598 5.4967 19.9172 6.5 19.9258V19.9248C7.50295 19.9169 8.48822 19.6599 9.3672 19.1768C10.1717 18.7272 11.0779 18.4912 11.9995 18.4912C12.9211 18.4912 13.8273 18.7272 14.6318 19.1768C15.508 19.6672 16.4954 19.9248 17.4995 19.9248C18.5036 19.9248 19.491 19.6672 20.3672 19.1768C21.1744 18.733 22.0789 18.4961 23 18.4873V17.9873C21.9968 17.9958 21.0114 18.2528 20.1318 18.7354C19.3276 19.1858 18.4213 19.4224 17.4995 19.4224C16.5777 19.4224 15.6714 19.1858 14.8672 18.7354L14.8669 18.7352Z" fill="black"/>
</g>
<defs>
<clipPath id="clip0">
<rect width="24" height="24" fill="white"/>
</clipPath>
</defs>
</svg>
