<svg width="24" height="24" viewBox="0 0 24 24" fill="none" xmlns="http://www.w3.org/2000/svg">
<path d="M18.1284 7.00338L20 5.13178L21.8716 7.00338L23.0034 5.87158L21.1318 3.99998L23.0034 2.12838L21.8716 0.996582L20 2.86818L18.1284 0.996582L16.9966 2.12838L18.8682 3.99998L16.9966 5.87158L18.1284 7.00338ZM21.512 9.30338L19.875 8.84398H16.0356L11.8481 1.84398H6.97597L9.12237 8.84398H6.94117L5.14037 5.84398H0.645874L2.47917 11.844L0.645874 17.844H5.13997L6.94077 14.844H9.12237L6.97597 21.844H11.8481L16.0356 14.844H19.875L21.512 14.384C22.066 14.2284 22.5541 13.896 22.9017 13.4373C23.2493 12.9787 23.4374 12.4189 23.4374 11.8434C23.4374 11.2679 23.2493 10.7082 22.9017 10.2496C22.5541 9.7909 22.066 9.45846 21.512 9.30288V9.30338ZM21.0255 12.6514L19.6272 13.044H15.015L14.491 13.9199L10.8275 20.044H9.41057L10.8433 15.3717L11.5571 13.044H5.92217L5.39787 13.9176L4.12147 16.0438H3.07797L4.20057 12.37L4.36127 11.844L4.20057 11.3179L3.07797 7.64368H4.12147L5.39787 9.76998L5.92217 10.6436H11.5571L10.8433 8.31598L9.41057 3.64368H10.8275L14.491 9.76778L15.015 10.6437H19.6272L21.0255 11.0363C21.2016 11.0857 21.3566 11.1914 21.4671 11.3372C21.5776 11.4829 21.6374 11.6608 21.6374 11.8437C21.6374 12.0266 21.5776 12.2045 21.4671 12.3503C21.3566 12.4961 21.2016 12.6017 21.0255 12.6512V12.6514Z" fill="black"/>
</svg>
