<svg width="24" height="24" viewBox="0 0 24 24" fill="none" xmlns="http://www.w3.org/2000/svg">
<path d="M22 6.25C21.9988 5.12319 21.5507 4.04286 20.7539 3.24608C19.9571 2.44931 18.8768 2.00116 17.75 2C17.1302 2.00284 16.5186 2.14264 15.9592 2.4094L15.9541 2.3984L2.15527 8.833L2.36617 9.2861L14.3877 3.68C13.7799 4.4557 13.4664 5.42154 13.5027 6.40631C13.5391 7.39109 13.9229 8.33119 14.5862 9.06L5.32317 18.323L5.67677 18.6766L14.94 9.4138C15.6688 10.077 16.6089 10.4608 17.5936 10.4972C18.5784 10.5336 19.5442 10.2201 20.32 9.6124L14.7139 21.6338L15.167 21.8447L21.6016 8.0459L21.5906 8.0408C21.8574 7.48133 21.9972 6.86981 22 6.25ZM15.2935 9.06L17.9268 6.4267L17.5732 6.0731L14.94 8.7066C14.2909 7.966 13.9552 7.00209 14.0037 6.01852C14.0523 5.03496 14.4813 4.10878 15.2001 3.43567C15.9189 2.76257 16.8712 2.39526 17.8558 2.41135C18.8405 2.42744 19.7803 2.82567 20.4767 3.52191C21.1731 4.21814 21.5716 5.15784 21.588 6.14246C21.6044 7.12709 21.2373 8.07952 20.5644 8.79852C19.8915 9.51751 18.9655 9.94677 17.9819 9.99558C16.9984 10.0444 16.0344 9.70894 15.2936 9.0601L15.2935 9.06Z" fill="black"/>
</svg>
