<svg width="24" height="24" viewBox="0 0 24 24" fill="none" xmlns="http://www.w3.org/2000/svg">
<path d="M9.13002 6.63019C9.61045 6.629 10.0813 6.49572 10.4911 6.24495C10.9009 5.99417 11.2338 5.63555 11.4535 5.20829H12.1561L13.3334 4.46299L14.3334 5.20829L15.3334 4.46299L16.3334 5.20829L17.5 4.31939V2.79179H11.4536C11.2384 2.37862 10.9171 2.03016 10.5227 1.78219C10.1282 1.53422 9.67497 1.39566 9.20933 1.38074C8.74369 1.36582 8.28246 1.47507 7.87299 1.69728C7.46353 1.91949 7.12056 2.24666 6.8793 2.6452C6.63804 3.04374 6.50717 3.49931 6.50014 3.96513C6.4931 4.43096 6.61014 4.89027 6.83925 5.29592C7.06836 5.70157 7.40129 6.03894 7.80386 6.27342C8.20642 6.5079 8.66414 6.63104 9.13002 6.63019ZM9.13002 1.87019C9.51899 1.87153 9.9001 1.9798 10.2317 2.18317C10.5632 2.38654 10.8325 2.67718 11.01 3.02329L11.15 3.29199H17V4.07199L16.33 4.58249L15.6322 4.06249L15.3334 3.83979L15.0346 4.06249L14.3334 4.58509L13.6322 4.06249L13.3566 3.85699L13.0666 4.04089L12.0116 4.70869H11.151L11.011 4.97739C10.8368 5.31187 10.5767 5.59395 10.2574 5.7947C9.93813 5.99544 9.57119 6.10761 9.19424 6.1197C8.8173 6.13178 8.44393 6.04334 8.11245 5.86346C7.78097 5.68358 7.50333 5.41874 7.30803 5.09611C7.11272 4.77349 7.00678 4.4047 7.00108 4.0276C6.99538 3.65051 7.09013 3.27869 7.2756 2.95031C7.46106 2.62193 7.73057 2.34881 8.05646 2.159C8.38235 1.96918 8.75288 1.8695 9.13002 1.87019ZM8.21412 4.46319C8.30568 4.46317 8.39519 4.436 8.47132 4.38511C8.54744 4.33423 8.60677 4.26191 8.6418 4.1773C8.67683 4.0927 8.68598 3.99961 8.66811 3.9098C8.65023 3.82 8.60613 3.73751 8.54137 3.67276C8.47661 3.60802 8.39412 3.56394 8.30431 3.54608C8.21449 3.52822 8.12141 3.5374 8.03681 3.57244C7.95221 3.60749 7.87991 3.66683 7.82904 3.74297C7.77817 3.81911 7.75102 3.90862 7.75102 4.00019C7.75102 4.061 7.76299 4.12122 7.78627 4.1774C7.80954 4.23358 7.84366 4.28462 7.88666 4.32762C7.92966 4.37061 7.98072 4.40471 8.0369 4.42798C8.09309 4.45124 8.1533 4.4632 8.21412 4.46319ZM7.23442 16.0002C6.99027 16.0002 6.75162 16.0726 6.54862 16.2082C6.34562 16.3439 6.18741 16.5366 6.09398 16.7622C6.00055 16.9878 5.9761 17.236 6.02373 17.4754C6.07136 17.7149 6.18893 17.9348 6.36156 18.1074C6.5342 18.2801 6.75415 18.3976 6.9936 18.4453C7.23305 18.4929 7.48124 18.4685 7.7068 18.375C7.93236 18.2816 8.12514 18.1234 8.26078 17.9204C8.39642 17.7174 8.46881 17.4787 8.46881 17.2346C8.46881 16.9072 8.33876 16.5932 8.10727 16.3617C7.87577 16.1302 7.5618 16.0002 7.23442 16.0002ZM7.23442 17.969C7.08916 17.969 6.94718 17.9259 6.8264 17.8452C6.70563 17.7645 6.6115 17.6498 6.55592 17.5156C6.50033 17.3814 6.48579 17.2338 6.51413 17.0913C6.54246 16.9489 6.61241 16.818 6.71512 16.7153C6.81782 16.6126 6.94868 16.5426 7.09114 16.5143C7.2336 16.486 7.38126 16.5005 7.51546 16.5561C7.64965 16.6117 7.76435 16.7058 7.84505 16.8266C7.92574 16.9474 7.96882 17.0893 7.96882 17.2346C7.96855 17.4293 7.89109 17.6159 7.75342 17.7536C7.61575 17.8913 7.42911 17.9687 7.23442 17.969ZM16.7656 16.0002C16.5215 16.0002 16.2828 16.0726 16.0798 16.2082C15.8768 16.3439 15.7186 16.5366 15.6252 16.7622C15.5317 16.9878 15.5073 17.236 15.5549 17.4754C15.6026 17.7149 15.7201 17.9348 15.8928 18.1074C16.0654 18.2801 16.2853 18.3976 16.5248 18.4453C16.7642 18.4929 17.0124 18.4685 17.238 18.375C17.4636 18.2816 17.6563 18.1234 17.792 17.9204C17.9276 17.7174 18 17.4787 18 17.2346C18 16.9072 17.8699 16.5933 17.6384 16.3618C17.4069 16.1303 17.093 16.0002 16.7656 16.0002ZM16.7656 17.969C16.6204 17.969 16.4784 17.9259 16.3576 17.8452C16.2368 17.7645 16.1427 17.6498 16.0871 17.5156C16.0315 17.3814 16.017 17.2338 16.0453 17.0913C16.0737 16.9489 16.1436 16.818 16.2463 16.7153C16.349 16.6126 16.4799 16.5426 16.6223 16.5143C16.7648 16.486 16.9125 16.5005 17.0467 16.5561C17.1809 16.6117 17.2956 16.7058 17.3762 16.8266C17.4569 16.9474 17.5 17.0893 17.5 17.2346C17.4998 17.4293 17.4223 17.6159 17.2846 17.7536C17.147 17.8913 16.9603 17.9687 16.7656 17.969ZM21.1194 12.4769H18.9431C18.8235 11.8236 18.6853 11.1733 18.5286 10.5261C18.4224 10.0909 18.1732 9.70388 17.8208 9.4272C17.4685 9.15052 17.0334 9.00014 16.5854 9.00019H7.41462C6.96661 9.00014 6.53157 9.15052 6.17922 9.4272C5.82687 9.70388 5.57761 10.0909 5.47142 10.5261C5.31368 11.1728 5.17552 11.823 5.05692 12.4769H2.88062V13.9755L4.71972 14.8043C4.57558 16.0666 4.50213 17.336 4.49972 18.6066V21.9339C4.49972 22.1089 4.56925 22.2768 4.69302 22.4006C4.8168 22.5244 4.98467 22.5939 5.15972 22.5939H6.17002C6.34506 22.5939 6.51293 22.5244 6.63671 22.4006C6.76048 22.2768 6.83002 22.1089 6.83002 21.9339V21.0002H17.17V21.9339C17.17 22.1089 17.2396 22.2768 17.3633 22.4006C17.4871 22.5244 17.655 22.5939 17.83 22.5939H18.84C19.0151 22.5939 19.1829 22.5244 19.3067 22.4006C19.4305 22.2768 19.5 22.1089 19.5 21.9339V18.6066C19.4976 17.336 19.4241 16.0666 19.28 14.8043L21.1191 13.9755L21.1194 12.4769ZM5.95732 10.6447C6.03633 10.3179 6.22309 10.0273 6.48747 9.81969C6.75185 9.61206 7.07845 9.49951 7.41462 9.50019H16.5854C16.9216 9.49949 17.2482 9.61204 17.5126 9.81967C17.777 10.0273 17.9637 10.3179 18.0427 10.6447C18.3368 11.8602 18.5628 13.0911 18.7197 14.3318H5.28002C5.437 13.0911 5.66311 11.8602 5.95732 10.6447ZM4.78202 14.284L3.38062 13.6524V12.9769H4.97882C4.90602 13.4116 4.83792 13.8469 4.78202 14.284ZM19.002 20.7502H19V21.9339C19 21.9763 18.9832 22.017 18.9532 22.047C18.9231 22.077 18.8825 22.0939 18.84 22.0939H17.83C17.7876 22.0939 17.7469 22.077 17.7169 22.047C17.6869 22.017 17.67 21.9763 17.67 21.9339V20.7502H17.6686V20.5002H6.33152V20.7502H6.33002V21.9339C6.33002 21.9763 6.31316 22.017 6.28315 22.047C6.25315 22.077 6.21245 22.0939 6.17002 22.0939H5.16002C5.11758 22.0939 5.07688 22.077 5.04688 22.047C5.01687 22.017 5.00002 21.9763 5.00002 21.9339V20.7502H4.99852V19.9062H5.00002V18.6062C5.00223 17.3448 5.07541 16.0845 5.21922 14.8314H18.7808C18.9246 16.0847 18.9978 17.3451 19 18.6066V19.9066H19.0015L19.002 20.7502ZM20.6199 13.6524L19.2185 14.284C19.1626 13.8469 19.0945 13.4116 19.0217 12.9769H20.6199V13.6524Z" fill="black"/>
</svg>
