<svg width="24" height="24" viewBox="0 0 24 24" fill="none" xmlns="http://www.w3.org/2000/svg">
<path d="M23 9.99998L21.6654 6.31838C21.5254 5.93211 21.2698 5.59833 20.9334 5.36244C20.597 5.12655 20.1961 4.99999 19.7852 4.99998H15.9941L15.5781 3.85688L5.3691 0.34668L4.7148 2.23728L13.3209 4.99998H1V18H4.5536C4.75347 18.5154 5.10449 18.9583 5.56059 19.2706C6.01669 19.5829 6.55656 19.7501 7.10935 19.7501C7.66214 19.7501 8.20201 19.5829 8.65811 19.2706C9.11421 18.9583 9.46523 18.5154 9.6651 18H14.8134C15.0181 18.5076 15.3698 18.9425 15.8235 19.2488C16.2772 19.5551 16.812 19.7187 17.3594 19.7187C17.9068 19.7187 18.4416 19.5551 18.8953 19.2488C19.349 18.9425 19.7007 18.5076 19.9054 18H23V9.99998ZM2.8 6.79998H19.7852C19.8263 6.8 19.8663 6.81266 19.8999 6.83624C19.9336 6.85982 19.9591 6.89318 19.9731 6.93178L21.11 10.0687H2.8V6.79998ZM7.1094 18.05C6.90173 18.05 6.69872 17.9884 6.52605 17.873C6.35338 17.7576 6.2188 17.5937 6.13933 17.4018C6.05985 17.2099 6.03906 16.9988 6.07958 16.7951C6.12009 16.5915 6.22009 16.4044 6.36694 16.2575C6.51378 16.1107 6.70088 16.0107 6.90456 15.9702C7.10824 15.9296 7.31936 15.9504 7.51122 16.0299C7.70308 16.1094 7.86707 16.244 7.98244 16.4166C8.09782 16.5893 8.1594 16.7923 8.1594 17C8.15908 17.2784 8.04836 17.5452 7.85151 17.7421C7.65467 17.9389 7.38778 18.0497 7.1094 18.05ZM17.3594 18.0187C17.1517 18.0187 16.9487 17.9571 16.7761 17.8417C16.6034 17.7263 16.4688 17.5624 16.3893 17.3705C16.3099 17.1786 16.2891 16.9675 16.3296 16.7638C16.3701 16.5602 16.4701 16.3731 16.6169 16.2262C16.7638 16.0794 16.9509 15.9794 17.1546 15.9389C17.3582 15.8983 17.5694 15.9191 17.7612 15.9986C17.9531 16.0781 18.1171 16.2127 18.2324 16.3853C18.3478 16.558 18.4094 16.761 18.4094 16.9687C18.4091 17.2471 18.2984 17.514 18.1015 17.7108C17.9047 17.9077 17.6378 18.0184 17.3594 18.0187ZM21.2 16.2H19.9869C19.8236 15.6292 19.4788 15.1271 19.0047 14.7696C18.5307 14.4122 17.9531 14.2188 17.3594 14.2188C16.7656 14.2188 16.188 14.4122 15.714 14.7696C15.2399 15.1271 14.8951 15.6292 14.7318 16.2H9.7272C9.55884 15.6365 9.21315 15.1424 8.74151 14.791C8.26987 14.4397 7.69746 14.2499 7.10935 14.2499C6.52124 14.2499 5.94883 14.4397 5.47719 14.791C5.00555 15.1424 4.65986 15.6365 4.4915 16.2H2.8V11.8687H21.2V16.2Z" fill="black"/>
</svg>
