<svg width="24" height="24" viewBox="0 0 24 24" fill="none" xmlns="http://www.w3.org/2000/svg">
<path d="M23 11.5002L21.215 6.57638C21.0906 6.23331 20.8632 5.93709 20.5639 5.72832C20.2646 5.51954 19.9081 5.40842 19.5432 5.41018L1 5.41778V18.0002H3.5593C3.71953 18.5754 4.06372 19.0824 4.53925 19.4436C5.01479 19.8047 5.5955 20.0003 6.19265 20.0003C6.78979 20.0003 7.37051 19.8047 7.84605 19.4436C8.32158 19.0824 8.66577 18.5754 8.826 18.0002H15.4067C15.5669 18.5754 15.9111 19.0824 16.3867 19.4436C16.8622 19.8047 17.4429 20.0003 18.0401 20.0003C18.6372 20.0003 19.2179 19.8047 19.6934 19.4436C20.169 19.0824 20.5132 18.5754 20.6734 18.0002H23V11.5002ZM6.1927 18.3002C5.98503 18.3002 5.78202 18.2386 5.60935 18.1232C5.43668 18.0078 5.3021 17.8439 5.22263 17.652C5.14315 17.4601 5.12236 17.249 5.16288 17.0453C5.20339 16.8417 5.30339 16.6546 5.45024 16.5077C5.59708 16.3609 5.78417 16.2609 5.98785 16.2204C6.19153 16.1798 6.40266 16.2006 6.59452 16.2801C6.78638 16.3596 6.95037 16.4942 7.06574 16.6668C7.18112 16.8395 7.2427 17.0425 7.2427 17.2502C7.24238 17.5286 7.13166 17.7954 6.93481 17.9923C6.73797 18.1891 6.47108 18.2999 6.1927 18.3002ZM18.04 18.3002C17.8323 18.3002 17.6293 18.2386 17.4567 18.1232C17.284 18.0078 17.1494 17.8439 17.0699 17.652C16.9905 17.4601 16.9697 17.249 17.0102 17.0453C17.0507 16.8417 17.1507 16.6546 17.2975 16.5077C17.4444 16.3609 17.6315 16.2609 17.8352 16.2204C18.0388 16.1798 18.25 16.2006 18.4418 16.2801C18.6337 16.3596 18.7977 16.4942 18.913 16.6668C19.0284 16.8395 19.09 17.0425 19.09 17.2502C19.0897 17.5286 18.979 17.7955 18.7821 17.9923C18.5853 18.1892 18.3184 18.2999 18.04 18.3002ZM2.9 11.5002V7.31018H19.46L20.9787 11.5002H2.9Z" fill="black"/>
</svg>
