<svg width="24" height="24" viewBox="0 0 24 24" fill="none" xmlns="http://www.w3.org/2000/svg">
<path d="M22.5034 4.361L23.7166 3.561C23.6471 3.36776 23.5627 3.1802 23.4641 3C23.3575 2.82464 23.2374 2.65781 23.105 2.501L21.805 3.1516L20.698 2.5125L20.6116 1.0616C20.2079 0.979466 19.7918 0.979466 19.388 1.0616L19.3016 2.5125L18.1946 3.1516L16.8946 2.501C16.7624 2.65782 16.6424 2.82466 16.5359 3C16.4374 3.18007 16.353 3.3675 16.2834 3.5606L17.4966 4.3606V5.639L16.2834 6.439C16.353 6.63223 16.4374 6.81979 16.5359 7C16.6426 7.17534 16.7626 7.34218 16.895 7.499L18.195 6.8484L19.302 7.4875L19.3884 8.9384C19.7922 9.02054 20.2083 9.02054 20.612 8.9384L20.6984 7.4875L21.8054 6.8484L23.1054 7.499C23.2377 7.34216 23.3576 7.17533 23.4641 7C23.5626 6.81992 23.647 6.6325 23.7166 6.4394L22.5034 5.6394V4.361ZM20 6.2118C19.7604 6.21178 19.5261 6.14069 19.3268 6.00753C19.1275 5.87436 18.9722 5.6851 18.8805 5.46367C18.7888 5.24224 18.7649 4.99859 18.8116 4.76353C18.8584 4.52847 18.9738 4.31256 19.1433 4.14309C19.3128 3.97363 19.5287 3.85823 19.7638 3.81148C19.9988 3.76473 20.2425 3.78873 20.4639 3.88045C20.6853 3.97217 20.8746 4.12749 21.0077 4.32677C21.1409 4.52605 21.2119 4.76033 21.2119 5C21.2119 5.32139 21.0842 5.6296 20.8569 5.85685C20.6296 6.0841 20.3214 6.21177 20 6.2118ZM6.54203 16.0659C6.34424 16.0659 6.1509 16.1245 5.98646 16.2344C5.82201 16.3443 5.69383 16.5005 5.61815 16.6832C5.54246 16.8659 5.52266 17.067 5.56124 17.261C5.59983 17.455 5.69507 17.6332 5.83492 17.773C5.97477 17.9129 6.15295 18.0081 6.34694 18.0467C6.54092 18.0853 6.74198 18.0655 6.92471 17.9898C7.10744 17.9141 7.26361 17.7859 7.3735 17.6215C7.48338 17.457 7.54203 17.2637 7.54203 17.0659C7.54203 16.8007 7.43667 16.5463 7.24913 16.3588C7.0616 16.1713 6.80724 16.0659 6.54203 16.0659ZM16.9912 10.342C16.8821 9.97012 16.6597 9.64154 16.3549 9.40206C16.0502 9.16258 15.6784 9.02413 15.2912 9.006C15.2612 9.002 15.088 9 15.0578 9H6.17903C6.15193 9 5.97973 9.0016 5.95363 9.0048C5.56462 9.02109 5.19049 9.15883 4.88379 9.39867C4.57709 9.63851 4.35322 9.9684 4.24363 10.342C3.95345 11.343 3.72057 12.3596 3.54613 13.3871H1.75153V14.2636L3.33403 14.8136C3.20177 15.8603 3.12995 16.9137 3.11893 17.9687C3.11773 18.0329 3.11723 18.4876 3.11723 18.5519V21.9341C3.11723 22.0208 3.1343 22.1066 3.16747 22.1867C3.20063 22.2667 3.24925 22.3395 3.31054 22.4008C3.37182 22.4621 3.44458 22.5107 3.52465 22.5439C3.60473 22.577 3.69055 22.5941 3.77723 22.5941H4.10723C4.28227 22.5941 4.45014 22.5246 4.57392 22.4008C4.69769 22.277 4.76723 22.1091 4.76723 21.9341V21H16.4672V21.9337C16.4672 22.0204 16.4843 22.1062 16.5175 22.1863C16.5506 22.2663 16.5992 22.3391 16.6605 22.4004C16.7218 22.4617 16.7946 22.5103 16.8747 22.5435C16.9547 22.5766 17.0406 22.5937 17.1272 22.5937H17.4572C17.6323 22.5937 17.8001 22.5242 17.9239 22.4004C18.0477 22.2766 18.1172 22.1087 18.1172 21.9337V18.5511C18.1172 18.4879 18.1172 18.0344 18.1157 17.9711C18.1045 16.9152 18.0325 15.8608 17.9 14.8132L19.4825 14.2632V13.3867H17.6887C17.5142 12.3594 17.2813 11.3428 16.9912 10.342ZM5.63383 10.7529C5.65751 10.6697 5.70681 10.596 5.77474 10.5423C5.84266 10.4887 5.92576 10.4578 6.01223 10.4541L6.18073 10.4502L15.1978 10.4521C15.288 10.4525 15.3757 10.4817 15.448 10.5355C15.5204 10.5893 15.5737 10.6648 15.6001 10.751C15.877 11.706 16.0989 12.676 16.2646 13.6564H4.97003C5.13572 12.6767 5.35735 11.7073 5.63383 10.7529ZM4.56743 19.55L4.56843 17.99C4.57915 16.998 4.64612 16.0074 4.76903 15.023H16.4656C16.5885 16.0039 16.6553 16.991 16.6656 17.9795L16.6671 19.5495L4.56743 19.55ZM14.6924 16.0661C14.4946 16.0661 14.3013 16.1248 14.1369 16.2346C13.9724 16.3445 13.8442 16.5007 13.7685 16.6834C13.6929 16.8661 13.6731 17.0672 13.7116 17.2612C13.7502 17.4552 13.8455 17.6334 13.9853 17.7732C14.1252 17.9131 14.3034 18.0083 14.4973 18.0469C14.6913 18.0855 14.8924 18.0657 15.0751 17.99C15.2578 17.9143 15.414 17.7861 15.5239 17.6217C15.6338 17.4572 15.6924 17.2639 15.6924 17.0661C15.6925 16.9348 15.6666 16.8047 15.6164 16.6834C15.5661 16.562 15.4925 16.4517 15.3996 16.3589C15.3067 16.266 15.1965 16.1923 15.0752 16.142C14.9538 16.0918 14.8238 16.0659 14.6924 16.0659V16.0661Z" fill="black"/>
</svg>
