<svg width="24" height="24" viewBox="0 0 24 24" fill="none" xmlns="http://www.w3.org/2000/svg">
<path d="M0 20V21H24V20H0ZM10.33 15.0537L18.9647 12.7842C20.1996 12.4525 21.3931 11.9824 22.5224 11.3828L22.6767 11.3028C23.0351 11.1126 23.3258 10.8162 23.5089 10.4543C23.6921 10.0923 23.7587 9.68252 23.6997 9.28118C23.6406 8.87983 23.4587 8.5066 23.1791 8.21274C22.8994 7.91889 22.5356 7.7188 22.1377 7.63997L18.9609 6.99447L14.2881 8.20247L8.7812 2.77637L5.4502 3.66637L8.8828 9.64447L5.5752 10.5264L3.5469 8.52997L0.15 9.45507L3.3434 15.0537H10.33ZM3.2559 9.64547L5.28 11.64L10.3981 10.2758L6.9658 4.29687L8.4863 3.88997L13.9893 9.31187L18.9883 8.01987L21.9424 8.62147C22.1165 8.65458 22.278 8.73552 22.4087 8.85522C22.5394 8.97491 22.6341 9.12864 22.6824 9.29917C22.7437 9.51091 22.7306 9.73725 22.6453 9.94052C22.56 10.1438 22.4077 10.3117 22.2137 10.4164L22.0594 10.4964C20.9955 11.0617 19.8712 11.5049 18.7078 11.8177L10.201 14.054H3.9238L1.6582 10.08L3.2559 9.64547Z" fill="black"/>
</svg>
