<svg width="24" height="24" viewBox="0 0 24 24" fill="none" xmlns="http://www.w3.org/2000/svg">
<path d="M18.1824 4L16 6.1819V3C16 2.73478 15.8946 2.48043 15.7071 2.29289C15.5196 2.10536 15.2652 2 15 2H9C8.73478 2 8.48043 2.10536 8.29289 2.29289C8.10536 2.48043 8 2.73478 8 3V6.1819L5.8176 4H1V11.001H5.8176L8 8.8181V12C8 12.2652 8.10536 12.5196 8.29289 12.7071C8.48043 12.8946 8.73478 13 9 13H15C15.2652 13 15.5196 12.8946 15.7071 12.7071C15.8946 12.5196 16 12.2652 16 12V8.8181L18.1824 11.0005H23V4H18.1824ZM5.0305 9.1005H2.9V5.9H5.0305L6.6311 7.5L5.0305 9.1005ZM14.1 11.1H9.9V3.9H14.1V11.1ZM21.1 9.1005H18.97L17.3689 7.5L18.97 5.9H21.1V9.1005ZM5.6182 18.3818L4.2041 19.7959C6.27344 21.8602 9.07706 23.0195 12 23.0195C14.9229 23.0195 17.7266 21.8602 19.7959 19.7959L18.3818 18.3818C16.6881 20.0722 14.3929 21.0215 12 21.0215C9.60709 21.0215 7.31192 20.0722 5.6182 18.3818ZM16.2715 16.2718L14.8574 14.8577C14.4823 15.2332 14.0369 15.5311 13.5466 15.7344C13.0563 15.9377 12.5308 16.0423 12 16.0423C11.4692 16.0423 10.9437 15.9377 10.4534 15.7344C9.96309 15.5311 9.51767 15.2332 9.1426 14.8577L7.7285 16.2715C8.28925 16.8328 8.95513 17.278 9.68806 17.5818C10.421 17.8856 11.2066 18.042 12 18.042C12.7934 18.042 13.579 17.8856 14.3119 17.5818C15.0449 17.278 15.7107 16.8328 16.2715 16.2715V16.2718Z" fill="black"/>
</svg>
