<svg width="24" height="24" viewBox="0 0 24 24" fill="none" xmlns="http://www.w3.org/2000/svg">
<path d="M19.9272 15.3602L17.2959 2.2002H13.64C13.4278 2.2002 13.2243 2.28448 13.0743 2.43451C12.9243 2.58454 12.84 2.78802 12.84 3.0002C12.84 3.21237 12.9243 3.41585 13.0743 3.56588C13.2243 3.71591 13.4278 3.8002 13.64 3.8002H15.9838L17.7448 12.6039L12.9818 17.3676H7.03827C6.84587 16.7139 6.42431 16.1514 5.85086 15.7833C5.27742 15.4151 4.5905 15.266 3.91602 15.3632C3.24154 15.4604 2.62469 15.7974 2.17852 16.3125C1.73235 16.8275 1.48676 17.4861 1.48676 18.1676C1.48676 18.849 1.73235 19.5077 2.17852 20.0227C2.62469 20.5378 3.24154 20.8748 3.91602 20.972C4.5905 21.0692 5.27742 20.9201 5.85086 20.5519C6.42431 20.1838 6.84587 19.6213 7.03827 18.9676H13.6438L18.1215 14.4891L18.3575 15.6691C17.753 15.9839 17.2822 16.5061 17.0315 17.1398C16.7807 17.7735 16.7667 18.4764 16.9921 19.1196C17.2175 19.7628 17.6672 20.3033 18.2587 20.6418C18.8502 20.9804 19.5439 21.0945 20.2127 20.9631C20.8815 20.8317 21.4805 20.4637 21.9 19.9266C22.3194 19.3894 22.5313 18.719 22.4966 18.0384C22.462 17.3577 22.1831 16.7123 21.7113 16.2205C21.2394 15.7287 20.6061 15.4235 19.9275 15.3607L19.9272 15.3602ZM4.33327 19.4669C4.07616 19.4669 3.82481 19.3906 3.61103 19.2478C3.39725 19.105 3.23062 18.9019 3.13223 18.6644C3.03383 18.4268 3.00809 18.1655 3.05825 17.9133C3.10841 17.6611 3.23222 17.4295 3.41403 17.2477C3.59584 17.0658 3.82748 16.942 4.07965 16.8919C4.33183 16.8417 4.59322 16.8675 4.83076 16.9659C5.0683 17.0642 5.27134 17.2309 5.41418 17.4447C5.55703 17.6584 5.63327 17.9098 5.63327 18.1669C5.6329 18.5116 5.49582 18.842 5.2521 19.0857C5.00838 19.3294 4.67794 19.4665 4.33327 19.4669ZM19.6667 19.4669C19.4096 19.4669 19.1582 19.3906 18.9444 19.2478C18.7306 19.105 18.564 18.9019 18.4656 18.6644C18.3672 18.4268 18.3415 18.1655 18.3917 17.9133C18.4418 17.6611 18.5656 17.4295 18.7474 17.2477C18.9292 17.0658 19.1609 16.942 19.4131 16.8919C19.6652 16.8417 19.9266 16.8675 20.1642 16.9659C20.4017 17.0642 20.6047 17.2309 20.7476 17.4447C20.8904 17.6584 20.9667 17.9098 20.9667 18.1669C20.9662 18.5115 20.8291 18.842 20.5854 19.0857C20.3417 19.3294 20.0113 19.4665 19.6667 19.4669Z" fill="black"/>
</svg>
