<svg width="24" height="24" viewBox="0 0 24 24" fill="none" xmlns="http://www.w3.org/2000/svg">
<g clip-path="url(#clip0)">
<path d="M23.75 4.5H0.25C0.183696 4.5 0.120107 4.52634 0.0732233 4.57322C0.0263392 4.62011 0 4.6837 0 4.75C0 4.8163 0.0263392 4.87989 0.0732233 4.92678C0.120107 4.97366 0.183696 5 0.25 5H11.75V8H3.5208L2.6458 6H0L0.9649 11.625H7.6484L10 17H19.16C19.722 17 20.2713 16.8332 20.7385 16.5208C21.2056 16.2084 21.5696 15.7643 21.7842 15.2449C21.9988 14.7255 22.0545 14.1541 21.9441 13.6031C21.8338 13.052 21.5624 12.5461 21.1643 12.1494L17.5854 8.5833C17.2105 8.20973 16.7028 7.99998 16.1736 8H12.25V5H23.75C23.8163 5 23.8799 4.97366 23.9268 4.92678C23.9737 4.87989 24 4.8163 24 4.75C24 4.6837 23.9737 4.62011 23.9268 4.57322C23.8799 4.52634 23.8163 4.5 23.75 4.5ZM14.25 8.5H16.1736C16.3702 8.49946 16.565 8.53784 16.7467 8.61292C16.9284 8.68801 17.0935 8.79832 17.2324 8.9375L20.8109 12.5036C20.8862 12.5811 20.9563 12.6634 21.0209 12.75H16C15.536 12.7494 15.0913 12.5649 14.7632 12.2368C14.4351 11.9087 14.2506 11.464 14.25 11V8.5ZM13.75 8.5V11C13.7508 11.5965 13.9881 12.1683 14.4099 12.5901C14.8317 13.0119 15.4035 13.2492 16 13.25H21.3162C21.4357 13.5356 21.4978 13.8419 21.4987 14.1515C21.4997 14.461 21.4395 14.7677 21.3217 15.054C21.1486 15.4844 20.8497 15.8527 20.464 16.1106C20.0784 16.3686 19.6239 16.5043 19.16 16.5H10.327L8.107 11.4246L7.976 11.1246H1.3864L0.5931 6.5H2.3188L3.0627 8.2L3.1938 8.5H13.75ZM9 20H20.5469L21 19.5H9V20Z" fill="black"/>
</g>
<defs>
<clipPath id="clip0">
<rect width="24" height="24" fill="white"/>
</clipPath>
</defs>
</svg>
