<svg width="24" height="24" viewBox="0 0 24 24" fill="none" xmlns="http://www.w3.org/2000/svg">
<g clip-path="url(#clip0)">
<path d="M20.3151 15.6506C20.4541 15.3243 20.572 14.9895 20.668 14.6481L21.938 9.98808H17V6.99998C17 6.73476 16.8946 6.48041 16.7071 6.29287C16.5196 6.10534 16.2652 5.99998 16 5.99998H15.834L15.8235 5.98778H13.25V3.98828H12.75V5.98778H7.08V5.99998H7L6.0015 9.98778H2.3542L2.8367 15.3025C2.24546 15.0991 1.62522 14.9927 1 14.9873V15.4873C1.92082 15.4961 2.82507 15.7332 3.6318 16.1773C4.51121 16.6603 5.4967 16.9177 6.5 16.9263V16.9253C7.50295 16.9174 8.48822 16.6604 9.3672 16.1773C10.1717 15.7277 11.0779 15.4917 11.9995 15.4917C12.9211 15.4917 13.8273 15.7277 14.6318 16.1773C15.508 16.6677 16.4954 16.9253 17.4995 16.9253C18.5036 16.9253 19.491 16.6677 20.3672 16.1773C21.1743 15.7333 22.0789 15.4963 23 15.4873V14.9873C22.0657 14.997 21.1464 15.2241 20.3151 15.6506ZM16.5 9.98778H6.517L7.2681 6.98778H16.4976L16.5 6.99998V9.98778ZM14.8672 18.7354C13.9902 18.2474 13.0031 17.9912 11.9995 17.9912C10.9959 17.9912 10.0088 18.2474 9.1318 18.7354C8.32537 19.1801 7.42089 19.417 6.5 19.4248V19.4258C5.57889 19.4167 4.67437 19.1796 3.8672 18.7358C2.98808 18.253 2.00293 17.9958 1 17.9873V18.4873C1.92078 18.496 2.82503 18.7329 3.6318 19.1768C4.51121 19.6598 5.4967 19.9172 6.5 19.9258V19.9248C7.50295 19.9169 8.48822 19.6599 9.3672 19.1768C10.1717 18.7272 11.0779 18.4912 11.9995 18.4912C12.9211 18.4912 13.8273 18.7272 14.6318 19.1768C15.508 19.6672 16.4954 19.9248 17.4995 19.9248C18.5036 19.9248 19.491 19.6672 20.3672 19.1768C21.1744 18.733 22.0789 18.4961 23 18.4873V17.9873C21.9968 17.9958 21.0114 18.2528 20.1318 18.7354C19.3276 19.1858 18.4213 19.4224 17.4995 19.4224C16.5777 19.4224 15.6714 19.1858 14.8672 18.7354Z" fill="black"/>
</g>
<defs>
<clipPath id="clip0">
<rect width="24" height="24" fill="white"/>
</clipPath>
</defs>
</svg>
