<svg width="24" height="24" viewBox="0 0 24 24" fill="none" xmlns="http://www.w3.org/2000/svg">
<path d="M19.0845 4.5068C18.9677 3.80631 18.6063 3.16995 18.0644 2.71093C17.5226 2.25191 16.8354 2 16.1253 2H7.8747C7.16455 2 6.47742 2.25191 5.93556 2.71093C5.3937 3.16995 5.03225 3.80631 4.9155 4.5068C4.52806 6.8316 4.33333 9.18444 4.3333 11.5413V16.5C4.3333 17.163 4.59669 17.7989 5.06553 18.2678C5.53437 18.7366 6.17026 19 6.8333 19H8.71L6.9782 22H8.17L9.9022 19H14.0974L15.83 22H17.022L15.29 19H17.1671C17.8301 19 18.466 18.7366 18.9349 18.2678C19.4037 17.7989 19.6671 17.163 19.6671 16.5V11.5413C19.6669 9.18442 19.4721 6.83159 19.0845 4.5068ZM7.2 15.5125C6.96266 15.5125 6.73065 15.4421 6.53331 15.3103C6.33597 15.1784 6.18217 14.991 6.09134 14.7717C6.00052 14.5524 5.97675 14.3112 6.02306 14.0784C6.06936 13.8456 6.18365 13.6318 6.35147 13.464C6.51929 13.2961 6.73311 13.1819 6.96589 13.1356C7.19867 13.0893 7.43995 13.113 7.65922 13.2038C7.87849 13.2947 8.0659 13.4485 8.19776 13.6458C8.32962 13.8432 8.4 14.0752 8.4 14.3125C8.4 14.6308 8.27357 14.936 8.04853 15.161C7.82348 15.3861 7.51826 15.5125 7.2 15.5125ZM16.7807 15.5125C16.5434 15.5125 16.3114 15.4421 16.114 15.3103C15.9167 15.1784 15.7629 14.991 15.672 14.7717C15.5812 14.5524 15.5575 14.3112 15.6038 14.0784C15.6501 13.8456 15.7643 13.6318 15.9322 13.464C16.1 13.2961 16.3138 13.1819 16.5466 13.1356C16.7794 13.0893 17.0206 13.113 17.2399 13.2038C17.4592 13.2947 17.6466 13.4485 17.7785 13.6458C17.9103 13.8432 17.9807 14.0752 17.9807 14.3125C17.9807 14.6308 17.8543 14.936 17.6292 15.161C17.4042 15.3861 17.099 15.5125 16.7807 15.5125ZM5.3445 11C5.36997 8.87934 5.5563 6.76367 5.9019 4.6712C5.97727 4.21729 6.20743 3.80347 6.5533 3.5H17.4467C17.7926 3.80347 18.0227 4.21729 18.0981 4.6712C18.4437 6.76367 18.63 8.87934 18.6555 11H5.3445Z" fill="black"/>
</svg>
