<svg width="24" height="24" viewBox="0 0 24 24" fill="none" xmlns="http://www.w3.org/2000/svg">
<path d="M21.7471 7.09056C21.566 6.62069 21.2463 6.21695 20.8306 5.93286C20.4148 5.64876 19.9225 5.49773 19.4189 5.49976H15.9089L15.8323 5.28976L5.18 1.62646L5.0165 2.09896L14.9821 5.49976H0.5V18.4998H3.9731C4.03112 18.9828 4.26414 19.4278 4.62807 19.7506C4.992 20.0734 5.46162 20.2517 5.9481 20.2517C6.43458 20.2517 6.9042 20.0734 7.26813 19.7506C7.63206 19.4278 7.86508 18.9828 7.9231 18.4998H16.7231C16.7911 18.9739 17.0278 19.4077 17.3897 19.7215C17.7517 20.0352 18.2146 20.2079 18.6936 20.2079C19.1727 20.2079 19.6356 20.0352 19.9976 19.7215C20.3595 19.4077 20.5962 18.9739 20.6642 18.4998H23.5V11.5779L21.7471 7.09056ZM5.9479 19.7498C5.65123 19.7498 5.36122 19.6618 5.11454 19.497C4.86787 19.3321 4.67561 19.0979 4.56208 18.8238C4.44855 18.5497 4.41884 18.2481 4.47672 17.9571C4.5346 17.6662 4.67746 17.3989 4.88724 17.1891C5.09702 16.9793 5.36429 16.8365 5.65526 16.7786C5.94624 16.7207 6.24784 16.7504 6.52192 16.8639C6.79601 16.9775 7.03028 17.1697 7.1951 17.4164C7.35993 17.6631 7.4479 17.9531 7.4479 18.2498C7.44745 18.6475 7.28927 19.0287 7.00806 19.3099C6.72686 19.5911 6.34559 19.7493 5.9479 19.7498ZM18.6929 19.7081C18.3962 19.7081 18.1062 19.6201 17.8595 19.4553C17.6129 19.2904 17.4206 19.0562 17.3071 18.7821C17.1936 18.508 17.1638 18.2064 17.2217 17.9154C17.2796 17.6245 17.4225 17.3572 17.6322 17.1474C17.842 16.9376 18.1093 16.7948 18.4003 16.7369C18.6912 16.679 18.9928 16.7087 19.2669 16.8222C19.541 16.9358 19.7753 17.128 19.9401 17.3747C20.1049 17.6214 20.1929 17.9114 20.1929 18.2081C20.1924 18.6058 20.0343 18.987 19.7531 19.2682C19.4719 19.5494 19.0906 19.7076 18.6929 19.7081ZM1 11.5414V5.99976H19.4185C19.821 5.99977 20.2141 6.1212 20.5465 6.34819C20.8788 6.57519 21.135 6.89717 21.2814 7.27206L22.9491 11.5414H1Z" fill="black"/>
</svg>
