<svg width="24" height="24" viewBox="0 0 24 24" fill="none" xmlns="http://www.w3.org/2000/svg">
<path d="M19.0845 4.5068C18.9726 3.83482 18.6351 3.22102 18.1277 2.76657C17.6202 2.31211 16.973 2.04413 16.2928 2.0068C16.2375 2.0023 16.1049 2 16.0485 2H7.9523C7.9012 2 7.7728 2.0019 7.7223 2.0057C7.0393 2.03984 6.3885 2.30651 5.87792 2.76145C5.36734 3.21639 5.02768 3.83224 4.9153 4.5068C4.52786 6.8316 4.33313 9.18444 4.3331 11.5413V16.5C4.333 17.1312 4.57202 17.7389 5.00204 18.2009C5.43206 18.6629 6.02115 18.9449 6.6507 18.99C6.7107 18.9965 6.8531 19 6.9147 19H8.71L6.9782 22H8.17L9.9022 19H14.0974L15.83 22H17.022L15.29 19H17.1671C17.8301 19 18.466 18.7366 18.9349 18.2678C19.4037 17.7989 19.6671 17.163 19.6671 16.5V11.5413C19.6669 9.18442 19.4721 6.83159 19.0845 4.5068ZM5.9019 4.6712C5.97854 4.20366 6.21917 3.77869 6.58067 3.47246C6.94218 3.16622 7.40092 2.99873 7.8747 3H16.1253C16.5991 2.99875 17.0578 3.16625 17.4193 3.47248C17.7808 3.77871 18.0214 4.20367 18.0981 4.6712C18.4249 6.6539 18.6087 8.65753 18.6481 10.6666H5.3514C5.39095 8.65752 5.57493 6.65389 5.9019 4.6712ZM18.6667 16.5C18.6663 16.8977 18.5081 17.279 18.2269 17.5602C17.9457 17.8414 17.5644 17.9995 17.1667 18H6.8333C6.43561 17.9995 6.05434 17.8414 5.77314 17.5602C5.49193 17.279 5.33375 16.8977 5.3333 16.5V11.6666H18.6667V16.5ZM16.1667 15.8542C16.4634 15.8542 16.7534 15.7662 17.0001 15.6014C17.2467 15.4366 17.439 15.2023 17.5525 14.9282C17.666 14.6541 17.6958 14.3525 17.6379 14.0616C17.58 13.7706 17.4371 13.5033 17.2274 13.2935C17.0176 13.0838 16.7503 12.9409 16.4593 12.883C16.1684 12.8251 15.8668 12.8548 15.5927 12.9684C15.3186 13.0819 15.0843 13.2742 14.9195 13.5208C14.7547 13.7675 14.6667 14.0575 14.6667 14.3542C14.6667 14.752 14.8247 15.1336 15.106 15.4149C15.3873 15.6962 15.7689 15.8542 16.1667 15.8542ZM16.1667 13.7042C16.2953 13.7042 16.4209 13.7423 16.5278 13.8137C16.6347 13.8852 16.718 13.9867 16.7672 14.1055C16.8164 14.2242 16.8293 14.3549 16.8042 14.481C16.7791 14.6071 16.7172 14.7229 16.6263 14.8138C16.5354 14.9047 16.4196 14.9666 16.2935 14.9917C16.1674 15.0168 16.0367 15.0039 15.918 14.9547C15.7992 14.9055 15.6977 14.8222 15.6262 14.7153C15.5548 14.6084 15.5167 14.4828 15.5167 14.3542C15.5169 14.1819 15.5854 14.0166 15.7073 13.8948C15.8291 13.7729 15.9944 13.7044 16.1667 13.7042ZM7.8333 15.8542C8.12997 15.8542 8.41998 15.7662 8.66666 15.6014C8.91333 15.4366 9.10559 15.2023 9.21912 14.9282C9.33265 14.6541 9.36236 14.3525 9.30448 14.0616C9.2466 13.7706 9.10374 13.5033 8.89396 13.2935C8.68418 13.0838 8.41691 12.9409 8.12594 12.883C7.83496 12.8251 7.53336 12.8548 7.25927 12.9684C6.98519 13.0819 6.75092 13.2742 6.5861 13.5208C6.42127 13.7675 6.3333 14.0575 6.3333 14.3542C6.3333 14.5512 6.3721 14.7462 6.44748 14.9282C6.52286 15.1102 6.63335 15.2756 6.77264 15.4149C6.91193 15.5541 7.07729 15.6646 7.25927 15.74C7.44126 15.8154 7.63632 15.8542 7.8333 15.8542ZM7.8333 13.7042C7.96186 13.7042 8.08753 13.7423 8.19442 13.8137C8.30131 13.8852 8.38462 13.9867 8.43382 14.1055C8.48302 14.2242 8.49589 14.3549 8.47081 14.481C8.44573 14.6071 8.38382 14.7229 8.29292 14.8138C8.20201 14.9047 8.0862 14.9666 7.96011 14.9917C7.83402 15.0168 7.70333 15.0039 7.58456 14.9547C7.46578 14.9055 7.36427 14.8222 7.29284 14.7153C7.22142 14.6084 7.1833 14.4828 7.1833 14.3542C7.18346 14.1819 7.25199 14.0166 7.37386 13.8948C7.49572 13.7729 7.66096 13.7044 7.8333 13.7042Z" fill="black"/>
</svg>
