<svg width="24" height="24" viewBox="0 0 24 24" fill="none" xmlns="http://www.w3.org/2000/svg">
<path d="M23 9.7917L22.0159 7.2723C21.8695 6.89741 21.6133 6.57542 21.281 6.34843C20.9486 6.12144 20.5555 6 20.153 6H1V19H3.9731C4.03112 19.483 4.26414 19.928 4.62807 20.2508C4.992 20.5737 5.46162 20.7519 5.9481 20.7519C6.43458 20.7519 6.9042 20.5737 7.26813 20.2508C7.63206 19.928 7.86508 19.483 7.9231 19H16.5411C16.6064 19.4766 16.842 19.9134 17.2045 20.2296C17.567 20.5458 18.0317 20.72 18.5127 20.72C18.9937 20.72 19.4584 20.5458 19.8209 20.2296C20.1834 19.9134 20.419 19.4766 20.4843 19H23V9.7917ZM1.5 6.5H20.153C20.4551 6.49875 20.7505 6.58933 21 6.75973C21.2495 6.93014 21.4413 7.17232 21.5501 7.4542L22.3655 9.5417H1.5V6.5ZM5.9479 20.25C5.65123 20.25 5.36122 20.162 5.11454 19.9972C4.86787 19.8324 4.67561 19.5981 4.56208 19.324C4.44855 19.0499 4.41884 18.7483 4.47672 18.4574C4.5346 18.1664 4.67746 17.8991 4.88724 17.6893C5.09702 17.4796 5.36429 17.3367 5.65526 17.2788C5.94624 17.2209 6.24784 17.2507 6.52192 17.3642C6.79601 17.4777 7.03028 17.67 7.1951 17.9166C7.35993 18.1633 7.4479 18.4533 7.4479 18.75C7.44745 19.1477 7.28927 19.529 7.00806 19.8102C6.72686 20.0914 6.34559 20.2495 5.9479 20.25ZM18.5123 20.2188C18.2156 20.2188 17.9256 20.1308 17.6789 19.966C17.4323 19.8012 17.24 19.5669 17.1265 19.2928C17.0129 19.0187 16.9832 18.7171 17.0411 18.4262C17.099 18.1352 17.2419 17.8679 17.4516 17.6581C17.6614 17.4484 17.9287 17.3055 18.2197 17.2476C18.5106 17.1897 18.8122 17.2194 19.0863 17.333C19.3604 17.4465 19.5947 17.6388 19.7595 17.8854C19.9243 18.1321 20.0123 18.4221 20.0123 18.7188C20.0118 19.1165 19.8536 19.4977 19.5724 19.7789C19.2912 20.0601 18.91 20.2183 18.5123 20.2188ZM22.5 18.5H20.49C20.4387 18.0111 20.2082 17.5586 19.843 17.2296C19.4777 16.9007 19.0036 16.7187 18.5121 16.7187C18.0205 16.7187 17.5464 16.9007 17.1811 17.2296C16.8159 17.5586 16.5854 18.0111 16.5341 18.5H7.9227C7.86468 18.017 7.63166 17.572 7.26773 17.2492C6.9038 16.9263 6.43418 16.7481 5.9477 16.7481C5.46122 16.7481 4.9916 16.9263 4.62767 17.2492C4.26374 17.572 4.03072 18.017 3.9727 18.5H1.5V14.0417H22.5V18.5ZM22.5 13.5417H1.5V10.0417H22.5V13.5417Z" fill="black"/>
</svg>
