<svg width="24" height="24" viewBox="0 0 24 24" fill="none" xmlns="http://www.w3.org/2000/svg">
<path d="M17.9 5.1051V7.0002H21.5V5.1051C21.0226 4.62773 20.3751 4.35956 19.7 4.35956C19.0249 4.35956 18.3774 4.62773 17.9 5.1051ZM14.3 2.9502C14.4978 2.9502 14.6911 2.89155 14.8556 2.78167C15.02 2.67178 15.1482 2.51561 15.2239 2.33288C15.2996 2.15015 15.3194 1.94909 15.2808 1.75511C15.2422 1.56112 15.147 1.38294 15.0071 1.24309C14.8672 1.10324 14.6891 1.008 14.4951 0.96941C14.3011 0.930825 14.1 0.950629 13.9173 1.02632C13.7346 1.102 13.5784 1.23018 13.4685 1.39463C13.3586 1.55907 13.3 1.75241 13.3 1.9502C13.3 2.21541 13.4054 2.46977 13.5929 2.6573C13.7804 2.84484 14.0348 2.9502 14.3 2.9502ZM16.1 5.1051C15.6226 4.62773 14.9751 4.35956 14.3 4.35956C13.6249 4.35956 12.9774 4.62773 12.5 5.1051V7.0002H16.1V5.1051ZM19.7 2.9502C19.8978 2.9502 20.0911 2.89155 20.2556 2.78167C20.42 2.67178 20.5482 2.51561 20.6239 2.33288C20.6996 2.15015 20.7194 1.94909 20.6808 1.75511C20.6422 1.56112 20.547 1.38294 20.4071 1.24309C20.2673 1.10324 20.0891 1.008 19.8951 0.96941C19.7011 0.930825 19.5 0.950629 19.3173 1.02632C19.1346 1.102 18.9784 1.23018 18.8685 1.39463C18.7586 1.55907 18.7 1.75241 18.7 1.9502C18.7 2.21541 18.8054 2.46977 18.9929 2.6573C19.1804 2.84484 19.4348 2.9502 19.7 2.9502ZM16.9912 10.3422C16.8821 9.97031 16.6596 9.64174 16.3549 9.40226C16.0502 9.16278 15.6783 9.02433 15.2912 9.0062C15.2612 9.0022 15.088 9.0002 15.0578 9.0002H6.179C6.1519 9.0002 5.9797 9.0018 5.9536 9.005C5.56459 9.02129 5.19046 9.15903 4.88376 9.39886C4.57705 9.6387 4.35319 9.96859 4.2436 10.3422C3.95342 11.3431 3.72054 12.3598 3.5461 13.3873H1.7515V14.2638L3.334 14.8138C3.20174 15.8605 3.12992 16.9139 3.1189 17.9689C3.1177 18.0331 3.1172 18.4878 3.1172 18.5521V21.9343C3.1172 22.021 3.13427 22.1068 3.16743 22.1869C3.2006 22.2669 3.24922 22.3397 3.3105 22.401C3.37179 22.4623 3.44455 22.5109 3.52462 22.5441C3.6047 22.5772 3.69052 22.5943 3.7772 22.5943H4.1072C4.28224 22.5943 4.45011 22.5248 4.57389 22.401C4.69766 22.2772 4.7672 22.1093 4.7672 21.9343V21.0002H16.4672V21.9339C16.4672 22.0206 16.4843 22.1064 16.5174 22.1865C16.5506 22.2665 16.5992 22.3393 16.6605 22.4006C16.7218 22.4619 16.7945 22.5105 16.8746 22.5437C16.9547 22.5768 17.0405 22.5939 17.1272 22.5939H17.4572C17.6322 22.5939 17.8001 22.5244 17.9239 22.4006C18.0477 22.2768 18.1172 22.1089 18.1172 21.9339V18.5513C18.1172 18.4881 18.1172 18.0346 18.1157 17.9713C18.1045 16.9154 18.0324 15.861 17.9 14.8134L19.4825 14.2634V13.3869H17.6887C17.5142 12.3596 17.2813 11.343 16.9912 10.3422ZM5.6338 10.7531C5.65748 10.6699 5.70678 10.5962 5.77471 10.5425C5.84263 10.4889 5.92573 10.458 6.0122 10.4543L6.1807 10.4504L15.1978 10.4523C15.288 10.4527 15.3756 10.4819 15.448 10.5357C15.5204 10.5895 15.5737 10.665 15.6001 10.7512C15.877 11.7062 16.0989 12.6762 16.2646 13.6566H4.97C5.13569 12.6769 5.35732 11.7075 5.6338 10.7531ZM4.5674 19.5502L4.5684 17.9902C4.57912 16.9982 4.64609 16.0076 4.769 15.0232H16.4656C16.5885 16.0041 16.6553 16.9912 16.6656 17.9797L16.6671 19.5497L4.5674 19.5502ZM14.6924 16.0663C14.4946 16.0663 14.3013 16.1249 14.1368 16.2348C13.9724 16.3447 13.8442 16.5009 13.7685 16.6836C13.6928 16.8663 13.673 17.0674 13.7116 17.2614C13.7502 17.4554 13.8454 17.6336 13.9853 17.7734C14.1251 17.9133 14.3033 18.0085 14.4973 18.0471C14.6913 18.0857 14.8924 18.0659 15.0751 17.9902C15.2578 17.9145 15.414 17.7863 15.5239 17.6219C15.6337 17.4574 15.6924 17.2641 15.6924 17.0663C15.6924 16.935 15.6666 16.8049 15.6163 16.6836C15.5661 16.5622 15.4924 16.4519 15.3996 16.3591C15.3067 16.2662 15.1965 16.1925 15.0751 16.1422C14.9538 16.092 14.8237 16.0661 14.6924 16.0661V16.0663ZM6.5424 16.0663C6.34461 16.0663 6.15127 16.1249 5.98682 16.2348C5.82238 16.3447 5.6942 16.5009 5.61852 16.6836C5.54283 16.8663 5.52302 17.0674 5.56161 17.2614C5.60019 17.4554 5.69544 17.6336 5.83529 17.7734C5.97514 17.9133 6.15332 18.0085 6.3473 18.0471C6.54129 18.0857 6.74235 18.0659 6.92508 17.9902C7.1078 17.9145 7.26398 17.7863 7.37386 17.6219C7.48375 17.4574 7.5424 17.2641 7.5424 17.0663C7.54242 16.9349 7.51656 16.8048 7.46629 16.6835C7.41603 16.5621 7.34233 16.4518 7.24943 16.3589C7.15653 16.266 7.04623 16.1924 6.92485 16.1421C6.80346 16.0919 6.67337 16.066 6.542 16.0661L6.5424 16.0663Z" fill="black"/>
</svg>
