<svg width="24" height="24" viewBox="0 0 24 24" fill="none" xmlns="http://www.w3.org/2000/svg">
<path d="M22.5034 4.5131L23.7371 3.6087C23.5801 3.19146 23.3538 2.80369 23.0679 2.4617L21.6733 3.0754L20.83 2.5886L20.6635 1.0669C20.2256 0.9777 19.7742 0.9777 19.3363 1.0669L19.17 2.5886L18.3268 3.0754L16.9322 2.4617C16.6462 2.80369 16.42 3.19146 16.263 3.6087L17.4967 4.5131V5.4869L16.263 6.3912C16.42 6.80845 16.6462 7.19624 16.9322 7.5383L18.3268 6.9245L19.17 7.4114L19.3365 8.9331C19.7744 9.0223 20.2258 9.0223 20.6637 8.9331L20.83 7.4114L21.6732 6.9245L23.0678 7.5383C23.3537 7.19624 23.5799 6.80845 23.737 6.3912L22.5033 5.4869L22.5034 4.5131ZM20 6C19.8022 6 19.6089 5.94135 19.4444 5.83147C19.28 5.72159 19.1518 5.56541 19.0761 5.38268C19.0004 5.19996 18.9806 4.99889 19.0192 4.80491C19.0578 4.61093 19.153 4.43275 19.2929 4.29289C19.4327 4.15304 19.6109 4.0578 19.8049 4.01921C19.9989 3.98063 20.1999 4.00043 20.3827 4.07612C20.5654 4.15181 20.7216 4.27998 20.8314 4.44443C20.9413 4.60888 21 4.80222 21 5C21 5.26522 20.8946 5.51957 20.7071 5.70711C20.5195 5.89464 20.2652 6 20 6ZM16.9141 10.25C16.7976 9.88696 16.5688 9.57029 16.2607 9.34564C15.9527 9.12099 15.5812 8.99996 15.2 9H6.03418C5.65289 8.99994 5.28142 9.12096 4.97334 9.34561C4.66526 9.57026 4.43648 9.88694 4.31998 10.25C3.92762 11.4754 3.62982 12.7291 3.42918 14H1.26508V15.4028L3.18998 16.071C3.14388 16.6918 3.11748 17.3144 3.11748 17.9382V21.9337C3.11748 22.1087 3.18701 22.2766 3.31079 22.4004C3.43456 22.5242 3.60243 22.5937 3.77748 22.5937H4.45748C4.63252 22.5937 4.80039 22.5242 4.92417 22.4004C5.04794 22.2766 5.11748 22.1087 5.11748 21.9337V21H16.1175V21.9337C16.1175 22.1087 16.187 22.2766 16.3108 22.4004C16.4346 22.5242 16.6024 22.5937 16.7775 22.5937H17.4575C17.6325 22.5937 17.8004 22.5242 17.9242 22.4004C18.0479 22.2766 18.1175 22.1087 18.1175 21.9337V17.9382C18.1175 17.3144 18.0911 16.6917 18.045 16.071L19.9695 15.4028V14H17.8055C17.6047 12.729 17.3067 11.4753 16.9141 10.25ZM6.03408 10.8H15.2C15.5324 11.8472 15.7905 12.9165 15.9725 14H5.26168C5.44365 12.9165 5.70179 11.8472 6.03418 10.8H6.03408ZM5.91468 18.16C5.71263 18.16 5.51512 18.1 5.34713 17.9878C5.17914 17.8755 5.04822 17.716 4.97091 17.5293C4.8936 17.3426 4.87339 17.1372 4.91282 16.939C4.95225 16.7409 5.04955 16.5588 5.19243 16.416C5.33531 16.2731 5.51734 16.1758 5.71551 16.1364C5.91368 16.097 6.11908 16.1172 6.30575 16.1946C6.49241 16.2719 6.65196 16.4028 6.76421 16.5708C6.87646 16.7388 6.93638 16.9363 6.93638 17.1384C6.93645 17.2726 6.91009 17.4055 6.85878 17.5295C6.80748 17.6535 6.73224 17.7662 6.63736 17.8611C6.54249 17.9561 6.42984 18.0313 6.30586 18.0827C6.18187 18.1341 6.04898 18.1605 5.91478 18.1605L5.91468 18.16ZM15.3195 18.16C15.1174 18.16 14.9199 18.1 14.7519 17.9878C14.5839 17.8755 14.453 17.716 14.3757 17.5293C14.2984 17.3426 14.2782 17.1372 14.3176 16.939C14.357 16.7409 14.4544 16.5588 14.5972 16.416C14.7401 16.2731 14.9221 16.1758 15.1203 16.1364C15.3185 16.097 15.5239 16.1172 15.7105 16.1946C15.8972 16.2719 16.0568 16.4028 16.169 16.5708C16.2813 16.7388 16.3412 16.9363 16.3412 17.1384C16.3413 17.2726 16.3149 17.4054 16.2636 17.5294C16.2123 17.6534 16.1371 17.7661 16.0423 17.861C15.9475 17.9559 15.8349 18.0312 15.7109 18.0826C15.587 18.134 15.4541 18.1605 15.32 18.1605L15.3195 18.16Z" fill="black"/>
</svg>
