<svg width="24" height="24" viewBox="0 0 24 24" fill="none" xmlns="http://www.w3.org/2000/svg">
<path d="M23 11.9999L21.8448 8.9542C21.7012 8.57563 21.4458 8.24969 21.1126 8.01969C20.7794 7.78969 20.3841 7.66651 19.9792 7.6665H16.8235V6.6665C16.8235 6.40129 16.7181 6.14693 16.5306 5.9594C16.3431 5.77186 16.0887 5.6665 15.8235 5.6665H2C1.73478 5.6665 1.48043 5.77186 1.29289 5.9594C1.10536 6.14693 1 6.40129 1 6.6665V17.9999H3.6453C3.75749 18.4969 4.03542 18.941 4.4334 19.2592C4.83139 19.5773 5.32577 19.7507 5.8353 19.7507C6.34483 19.7507 6.83921 19.5773 7.2372 19.2592C7.63518 18.941 7.91311 18.4969 8.0253 17.9999H16.857C16.9692 18.4969 17.2471 18.941 17.6451 19.2592C18.0431 19.5773 18.5375 19.7507 19.047 19.7507C19.5565 19.7507 20.0509 19.5773 20.4489 19.2592C20.8469 18.941 21.1248 18.4969 21.237 17.9999H23V11.9999ZM16.8235 8.5999H19.9761C20.1912 8.59909 20.4015 8.66369 20.579 8.78514C20.7566 8.90658 20.893 9.07913 20.9702 9.2799L21.8494 11.5956H16.8235V8.5999ZM5.8351 18.8499C5.5681 18.8499 5.30709 18.7707 5.08508 18.6224C4.86307 18.474 4.69004 18.2632 4.58786 18.0165C4.48568 17.7698 4.45895 17.4984 4.51104 17.2365C4.56313 16.9747 4.69171 16.7341 4.88051 16.5453C5.06931 16.3565 5.30985 16.2279 5.57173 16.1758C5.8336 16.1238 6.10504 16.1505 6.35172 16.2527C6.5984 16.3548 6.80924 16.5279 6.95758 16.7499C7.10592 16.9719 7.1851 17.2329 7.1851 17.4999C7.1847 17.8578 7.04234 18.201 6.78926 18.4541C6.53617 18.7071 6.19302 18.8495 5.8351 18.8499ZM15.89 7.6665H15.8887V17.0665H8.0414C7.94133 16.5548 7.66654 16.0939 7.26407 15.7625C6.86159 15.4311 6.35645 15.2499 5.8351 15.2499C5.31375 15.2499 4.80861 15.4311 4.40613 15.7625C4.00366 16.0939 3.72887 16.5548 3.6288 17.0665H1.9333V6.5999H15.89V7.6665ZM19.0464 18.8499C18.7794 18.8499 18.5184 18.7707 18.2964 18.6224C18.0744 18.474 17.9013 18.2632 17.7992 18.0165C17.697 17.7698 17.6702 17.4984 17.7223 17.2365C17.7744 16.9747 17.903 16.7341 18.0918 16.5453C18.2806 16.3565 18.5212 16.2279 18.783 16.1758C19.0449 16.1238 19.3163 16.1505 19.563 16.2527C19.8097 16.3548 20.0205 16.5279 20.1689 16.7499C20.3172 16.9719 20.3964 17.2329 20.3964 17.4999C20.396 17.8578 20.2536 18.201 20.0006 18.4541C19.7475 18.7071 19.4043 18.8495 19.0464 18.8499ZM22.0664 17.0666H21.2524C21.1523 16.5549 20.8775 16.094 20.4751 15.7626C20.0726 15.4312 19.5674 15.25 19.0461 15.25C18.5248 15.25 18.0196 15.4312 17.6171 15.7626C17.2147 16.094 16.9399 16.5549 16.8398 17.0666H16.8232V12.5291H22.0664V17.0666Z" fill="black"/>
</svg>
