<svg width="24" height="24" viewBox="0 0 24 24" fill="none" xmlns="http://www.w3.org/2000/svg">
<path d="M19.2512 4.5068C19.1344 3.8063 18.773 3.16992 18.2311 2.7109C17.6892 2.25188 17.0021 1.99997 16.2919 2H7.7081C6.99794 1.99997 6.31079 2.25188 5.76891 2.7109C5.22702 3.16992 4.86555 3.8063 4.7488 4.5068C4.3614 6.8316 4.1667 9.18444 4.1667 11.5413V16.5C4.1667 17.163 4.43009 17.7989 4.89894 18.2678C5.36778 18.7366 6.00366 19 6.6667 19H8.4309L6.6987 22H8.45L10.1822 19H13.8184L15.55 22H17.301L15.5688 19H17.333C17.996 19 18.6319 18.7366 19.1008 18.2678C19.5696 17.7989 19.833 17.163 19.833 16.5V11.5413C19.8331 9.18445 19.6385 6.83161 19.2512 4.5068ZM7.2 15.5125C6.96266 15.5125 6.73066 15.4421 6.53332 15.3103C6.33598 15.1784 6.18217 14.991 6.09135 14.7717C6.00052 14.5524 5.97676 14.3112 6.02306 14.0784C6.06936 13.8456 6.18365 13.6318 6.35147 13.464C6.5193 13.2961 6.73312 13.1819 6.96589 13.1356C7.19867 13.0893 7.43995 13.113 7.65922 13.2038C7.87849 13.2947 8.06591 13.4485 8.19777 13.6458C8.32962 13.8432 8.4 14.0752 8.4 14.3125C8.4 14.6308 8.27357 14.936 8.04853 15.161C7.82349 15.3861 7.51826 15.5125 7.2 15.5125ZM16.7807 15.5125C16.5434 15.5125 16.3114 15.4421 16.114 15.3103C15.9167 15.1784 15.7629 14.991 15.672 14.7717C15.5812 14.5524 15.5575 14.3112 15.6038 14.0784C15.6501 13.8456 15.7644 13.6318 15.9322 13.464C16.1 13.2961 16.3138 13.1819 16.5466 13.1356C16.7794 13.0893 17.0206 13.113 17.2399 13.2038C17.4592 13.2947 17.6466 13.4485 17.7785 13.6458C17.9103 13.8432 17.9807 14.0752 17.9807 14.3125C17.9807 14.6308 17.8543 14.936 17.6292 15.161C17.4042 15.3861 17.099 15.5125 16.7807 15.5125ZM5.6779 11C5.70326 8.90688 5.88732 6.81869 6.2285 4.7534C6.28597 4.40274 6.46644 4.084 6.73757 3.85432C7.0087 3.62464 7.35277 3.49903 7.7081 3.5H16.2919C16.6473 3.49894 16.9915 3.6245 17.2627 3.85419C17.5339 4.08388 17.7144 4.40267 17.7719 4.7534C18.1129 6.8187 18.2969 8.90689 18.3221 11H5.6779Z" fill="black"/>
</svg>
