<svg width="24" height="24" viewBox="0 0 24 24" fill="none" xmlns="http://www.w3.org/2000/svg">
<path d="M14.7751 9.7088C14.7356 9.11354 14.4884 8.55104 14.0767 8.11935C13.6649 7.68766 13.1147 7.41419 12.522 7.3466C12.2066 7.31025 11.8895 7.29192 11.572 7.2917H4.432C4.11458 7.29187 3.79742 7.30976 3.482 7.3453C2.88844 7.41228 2.33727 7.68564 1.92473 8.11762C1.51219 8.54961 1.26449 9.11278 1.2249 9.7088C1.07843 11.8472 1.00347 13.9887 1 16.1333C1 16.1855 1 16.5501 1 16.6023V22.3401C1 22.5151 1.06954 22.683 1.19331 22.8068C1.31708 22.9306 1.48496 23.0001 1.66 23.0001H2.34C2.51504 23.0001 2.68292 22.9306 2.80669 22.8068C2.93046 22.683 3 22.5151 3 22.3401V21.2917H13V22.3401C13 22.5151 13.0695 22.683 13.1933 22.8068C13.3171 22.9306 13.485 23.0001 13.66 23.0001H14.34C14.515 23.0001 14.6829 22.9306 14.8067 22.8068C14.9305 22.683 15 22.5151 15 22.3401V16.6023C15 16.5533 15 16.1923 15 16.1423C14.9969 13.9961 14.9219 11.8516 14.7751 9.7088ZM3.8651 18.4939C3.66304 18.4939 3.46552 18.434 3.2975 18.3218C3.12949 18.2095 2.99853 18.05 2.92119 17.8633C2.84386 17.6766 2.82361 17.4712 2.86302 17.2731C2.90242 17.0749 2.99971 16.8928 3.14258 16.75C3.28545 16.6071 3.46749 16.5098 3.66566 16.4703C3.86383 16.4309 4.06925 16.4511 4.25593 16.5285C4.44261 16.6058 4.60216 16.7367 4.71442 16.9047C4.82668 17.0727 4.8866 17.2702 4.8866 17.4723C4.88663 17.6064 4.86023 17.7393 4.80891 17.8632C4.75759 17.9872 4.68236 18.0998 4.58751 18.1947C4.49266 18.2895 4.38005 18.3648 4.25612 18.4161C4.13218 18.4675 3.99935 18.4939 3.8652 18.4939H3.8651ZM12.1351 18.4939C11.933 18.4939 11.7355 18.4341 11.5675 18.3218C11.3994 18.2096 11.2685 18.0501 11.1911 17.8634C11.1138 17.6767 11.0935 17.4713 11.1329 17.2731C11.1723 17.0749 11.2696 16.8929 11.4124 16.75C11.5553 16.6071 11.7373 16.5098 11.9355 16.4703C12.1337 16.4309 12.3391 16.4511 12.5258 16.5284C12.7125 16.6058 12.8721 16.7367 12.9843 16.9047C13.0966 17.0727 13.1565 17.2702 13.1565 17.4723C13.1565 17.6065 13.1301 17.7393 13.0788 17.8633C13.0274 17.9872 12.9522 18.0999 12.8573 18.1947C12.7624 18.2896 12.6498 18.3649 12.5258 18.4162C12.4018 18.4675 12.269 18.4939 12.1348 18.4939H12.1351ZM2.0278 14.6667C2.0559 13.0337 2.1118 11.3959 2.2229 9.7741C2.25082 9.38401 2.42204 9.01803 2.7036 8.7466H13.2964C13.578 9.01803 13.7492 9.38401 13.7771 9.7741C13.8882 11.3959 13.9441 13.0341 13.9722 14.6667H2.0278ZM19.5 8.3776V3.6226L20.9712 5.0938L21.6782 4.3868L19 1.7085L16.3218 4.3868L17.0288 5.0938L18.5 3.6226V8.3776L17.0288 6.9064L16.3218 7.6134L19 10.2917L21.6782 7.6134L20.9712 6.9064L19.5 8.3776Z" fill="black"/>
</svg>
