<svg width="24" height="24" viewBox="0 0 24 24" fill="none" xmlns="http://www.w3.org/2000/svg">
<path d="M22.3958 12.9139C22.3966 12.5606 22.2986 12.2142 22.113 11.9136C21.9273 11.6131 21.6614 11.3703 21.3452 11.2128C19.9818 10.5416 18.5052 10.1303 16.9911 10.0002L14.3341 7.30781C13.9931 6.96078 13.5864 6.68513 13.1378 6.49697C12.6891 6.30882 12.2075 6.21191 11.7209 6.21191H5.50223L2.47943 9.32721C1.99394 9.82511 1.72222 10.493 1.72223 11.1884V16.2002L3.48273 16.6449C3.55142 17.1952 3.80834 17.7049 4.20993 18.0874C4.61152 18.4699 5.13305 18.7017 5.68608 18.7436C6.2391 18.7854 6.78957 18.6346 7.24413 18.3169C7.69868 17.9991 8.02934 17.534 8.18003 17.0002H15.625C15.7671 17.5039 16.0698 17.9475 16.4871 18.2633C16.9044 18.5792 17.4135 18.7502 17.9368 18.7502C18.4602 18.7502 18.9692 18.5792 19.3865 18.2633C19.8038 17.9475 20.1066 17.5039 20.2486 17.0002H22.3958V12.9139ZM5.92483 7.21111H11.7207C12.0742 7.21211 12.4241 7.28303 12.75 7.4198C13.076 7.55657 13.3717 7.75648 13.6201 8.00801L15.5867 10.0002H3.22053L5.92483 7.21111ZM5.86803 17.8335C5.57136 17.8335 5.28135 17.7455 5.03467 17.5807C4.788 17.4159 4.59574 17.1816 4.48221 16.9075C4.36868 16.6335 4.33897 16.3319 4.39685 16.0409C4.45473 15.7499 4.59759 15.4826 4.80737 15.2729C5.01715 15.0631 5.28442 14.9202 5.57539 14.8623C5.86637 14.8045 6.16796 14.8342 6.44205 14.9477C6.71614 15.0612 6.95041 15.2535 7.11523 15.5002C7.28006 15.7468 7.36803 16.0368 7.36803 16.3335C7.36755 16.7312 7.20936 17.1124 6.92816 17.3936C6.64696 17.6749 6.26571 17.833 5.86803 17.8335ZM17.9368 17.8335C17.6402 17.8335 17.3501 17.7455 17.1035 17.5807C16.8568 17.4159 16.6645 17.1816 16.551 16.9075C16.4375 16.6335 16.4078 16.3319 16.4657 16.0409C16.5235 15.7499 16.6664 15.4826 16.8762 15.2729C17.0859 15.0631 17.3532 14.9202 17.6442 14.8623C17.9352 14.8045 18.2368 14.8342 18.5109 14.9477C18.7849 15.0612 19.0192 15.2535 19.184 15.5002C19.3489 15.7468 19.4368 16.0368 19.4368 16.3335C19.4364 16.7312 19.2782 17.1125 18.997 17.3937C18.7158 17.6749 18.3345 17.8331 17.9368 17.8335ZM21.3955 16.0002H20.32C20.2422 15.4234 19.9578 14.8944 19.5195 14.5113C19.0813 14.1282 18.519 13.9171 17.9369 13.9171C17.3549 13.9171 16.7926 14.1282 16.3543 14.5113C15.9161 14.8944 15.6317 15.4234 15.5538 16.0002H8.25123C8.17805 15.4553 7.92022 14.952 7.52077 14.5742C7.12133 14.1964 6.60441 13.967 6.05627 13.9242C5.50812 13.8815 4.9619 14.028 4.50874 14.3394C4.05557 14.6507 3.72287 15.108 3.56613 15.635L2.72273 15.4221V11.1887C2.72488 11.1142 2.73199 11.0399 2.74403 10.9663H16.5748L16.9043 10.9953C18.2933 11.1145 19.6478 11.4917 20.8984 12.1076C21.0484 12.1821 21.1745 12.2972 21.2624 12.4398C21.3503 12.5824 21.3964 12.7468 21.3955 12.9143V16.0002Z" fill="black"/>
</svg>
