<svg width="24" height="24" viewBox="0 0 24 24" fill="none" xmlns="http://www.w3.org/2000/svg">
<path d="M20.01 16.2677C19.9541 16.2997 19.8973 16.3219 19.8412 16.3517L20.3881 11.6876C20.4109 11.4934 20.3662 11.2973 20.2615 11.1321C20.1568 10.967 19.9985 10.8429 19.8131 10.7807L19 10.5101V5.33338C19 4.89136 18.8244 4.46744 18.5119 4.15488C18.1993 3.84232 17.7754 3.66671 17.3334 3.66668H14V1.97168H10V3.66668H6.6667C6.22466 3.66668 5.80073 3.84228 5.48816 4.15484C5.1756 4.46741 5 4.89134 5 5.33338V10.5094L4.1862 10.7807C4.00088 10.843 3.84259 10.9671 3.73784 11.1322C3.6331 11.2973 3.58825 11.4934 3.6108 11.6876L4.15 16.3483C4.0968 16.3199 4.0429 16.2989 3.99 16.2683C3.08452 15.7308 2.05294 15.4425 1 15.4327V16.3995C1.88445 16.4101 2.75037 16.6543 3.51 17.1075C4.41602 17.6435 5.44735 17.9312 6.5 17.9415C7.5528 17.9313 8.58424 17.6432 9.49 17.1065C10.2464 16.6462 11.1147 16.4028 12.0001 16.403C12.8855 16.4032 13.7538 16.6469 14.51 17.1075C15.4119 17.6532 16.446 17.9415 17.5001 17.9414C18.5543 17.9412 19.5883 17.6525 20.49 17.1065C21.2499 16.6541 22.1157 16.4102 23 16.3995V15.4327C21.9472 15.4428 20.9157 15.7308 20.01 16.2677ZM10.85 2.82158H13.15V3.66668H10.85V2.82158ZM5.9667 5.33338C5.96691 5.14779 6.04073 4.96987 6.17196 4.83864C6.30319 4.70741 6.48111 4.63359 6.6667 4.63338H17.3334C17.519 4.63356 17.6969 4.70737 17.8282 4.83861C17.9594 4.96985 18.0332 5.14779 18.0334 5.33338V10.1875L12 8.17618L5.9667 10.1872V5.33338ZM18.7827 16.7901C18.1486 16.9676 17.4847 17.0129 16.8324 16.9233C16.18 16.8337 15.553 16.611 14.9902 16.2691C14.0878 15.7251 13.054 15.4376 12.0003 15.4374C10.9466 15.4372 9.91282 15.7244 9.0102 16.2681C8.25047 16.7209 7.38456 16.9648 6.5002 16.9751C6.06284 16.9736 5.62785 16.9107 5.208 16.7882L4.618 11.6909L12 9.23008L19.38 11.6901L18.7827 16.7901ZM14.99 19.6007C14.087 19.0582 13.0534 18.7717 12 18.7717C10.9466 18.7717 9.91302 19.0582 9.01 19.6007C8.25022 20.0535 7.38439 20.2977 6.5 20.3087C5.61561 20.2977 4.74978 20.0535 3.99 19.6007C3.08395 19.0647 2.05264 18.7771 1 18.7667V19.7335C1.88436 19.7438 2.75028 19.9877 3.51 20.4405C4.41591 20.9769 5.44725 21.2649 6.5 21.2755C7.55275 21.2649 8.58409 20.9769 9.49 20.4405C10.2461 19.9796 11.1145 19.7358 12 19.7358C12.8855 19.7358 13.7539 19.9796 14.51 20.4405C15.4117 20.9866 16.4458 21.2754 17.5 21.2754C18.5542 21.2754 19.5883 20.9866 20.49 20.4405C21.2497 19.9877 22.1156 19.7438 23 19.7335V18.7667C21.9474 18.7771 20.916 19.0647 20.01 19.6007C19.2539 20.0615 18.3855 20.3053 17.5 20.3053C16.6145 20.3053 15.7461 20.0615 14.99 19.6007Z" fill="black"/>
</svg>
