<svg width="24" height="24" viewBox="0 0 24 24" fill="none" xmlns="http://www.w3.org/2000/svg">
<path d="M24 13.1236C24.0002 12.8286 23.9071 12.5411 23.734 12.3022C23.5609 12.0633 23.3167 11.8853 23.0363 11.7936C21.6224 11.3215 20.1483 11.0544 18.6587 11.0002L16.4865 7.85148C16.3026 7.58646 16.0572 7.36993 15.7714 7.22037C15.4856 7.07082 15.1678 6.99269 14.8452 6.99268H11.1514L11.1235 11.0002H0V16.5002L3.6453 16.9102C3.65868 17.6469 3.95775 18.3496 4.47939 18.8701C5.00103 19.3905 5.70444 19.6879 6.44121 19.6996C7.17797 19.7113 7.89045 19.4363 8.42832 18.9326C8.96619 18.429 9.28738 17.7361 9.3241 17.0002H16.7217C16.7563 17.7288 17.0701 18.4161 17.598 18.9194C18.1259 19.4228 18.8273 19.7036 19.5567 19.7036C20.2861 19.7036 20.9875 19.4228 21.5154 18.9194C22.0433 18.4161 22.3571 17.7288 22.3917 17.0002H24V13.1236ZM6.4893 18.7842C6.10693 18.7842 5.73314 18.6708 5.4152 18.4584C5.09726 18.246 4.84945 17.9441 4.7031 17.5908C4.55676 17.2376 4.51845 16.8488 4.59303 16.4738C4.66761 16.0988 4.85172 15.7543 5.12208 15.4839C5.39244 15.2135 5.73691 15.0294 6.11193 14.9547C6.48695 14.8801 6.87568 14.9184 7.22895 15.0647C7.58222 15.211 7.88417 15.4588 8.09662 15.7767C8.30907 16.0946 8.42248 16.4684 8.4225 16.8508C8.42194 17.3633 8.2181 17.8548 7.85568 18.2172C7.49326 18.5797 7.00186 18.7836 6.4893 18.7842ZM12.1143 7.95938H14.8452C14.8897 7.95938 14.9338 7.9664 14.9761 7.98018C15.32 8.09455 15.6178 8.31678 15.8254 8.61388L17.5042 11.0002H12.0908L12.1143 7.95938ZM19.5565 18.7842C19.1741 18.7841 18.8004 18.6707 18.4825 18.4583C18.1646 18.2458 17.9168 17.9439 17.7705 17.5906C17.6242 17.2373 17.586 16.8486 17.6606 16.4736C17.7352 16.0986 17.9193 15.7542 18.1897 15.4838C18.4601 15.2134 18.8045 15.0293 19.1795 14.9547C19.5546 14.8801 19.9433 14.9184 20.2965 15.0647C20.6498 15.211 20.9517 15.4588 21.1641 15.7767C21.3766 16.0947 21.49 16.4684 21.49 16.8508C21.4894 17.3634 21.2856 17.8549 20.9231 18.2173C20.5606 18.5798 20.0691 18.7836 19.5565 18.7842Z" fill="black"/>
</svg>
