<svg width="24" height="24" viewBox="0 0 24 24" fill="none" xmlns="http://www.w3.org/2000/svg">
<path d="M21 13.3188H19.0543C18.8665 12.2811 18.6135 11.2562 18.2969 10.2502C18.1804 9.8872 17.9517 9.57052 17.6436 9.34585C17.3356 9.12118 16.9642 9.00012 16.5829 9.00014H7.4171C7.03584 9.00012 6.66443 9.12116 6.35639 9.34581C6.04835 9.57046 5.8196 9.88711 5.7031 10.2501C5.38656 11.2561 5.1336 12.281 4.9457 13.3187H3V14.7215L4.6564 15.2967C4.55795 16.1739 4.50574 17.0557 4.5 17.9383V21.9338C4.5 22.1089 4.56954 22.2768 4.69331 22.4005C4.81708 22.5243 4.98496 22.5938 5.16 22.5938H5.84C6.01504 22.5938 6.18292 22.5243 6.30669 22.4005C6.43046 22.2768 6.5 22.1089 6.5 21.9338V21.0001H17.5V21.9338C17.5 22.1089 17.5695 22.2768 17.6933 22.4005C17.8171 22.5243 17.985 22.5938 18.16 22.5938H18.84C19.015 22.5938 19.1829 22.5243 19.3067 22.4005C19.4305 22.2768 19.5 22.1089 19.5 21.9338V17.9383C19.4943 17.0557 19.4421 16.174 19.3436 15.2968L21 14.7216V13.3188ZM7.4171 10.8001H16.5829C16.8424 11.6272 17.0556 12.4681 17.2216 13.3188H6.7784C6.94436 12.4681 7.15759 11.6272 7.4171 10.8001ZM17.7 19.2001H6.3V17.9383C6.30565 16.9956 6.3684 16.054 6.4879 15.1188H17.5121C17.6316 16.054 17.6944 16.9956 17.7 17.9383V19.2001ZM8.2976 15.9924C8.09555 15.9924 7.89803 16.0524 7.73003 16.1646C7.56203 16.2769 7.43109 16.4364 7.35376 16.6231C7.27644 16.8098 7.25621 17.0152 7.29563 17.2133C7.33505 17.4115 7.43235 17.5935 7.57522 17.7364C7.71809 17.8793 7.90013 17.9766 8.0983 18.016C8.29647 18.0554 8.50188 18.0352 8.68855 17.9579C8.87522 17.8805 9.03477 17.7496 9.14703 17.5816C9.25928 17.4136 9.3192 17.2161 9.3192 17.014C9.31921 16.8799 9.2928 16.747 9.24146 16.6231C9.19013 16.4991 9.11488 16.3865 9.02001 16.2916C8.92514 16.1968 8.81252 16.1215 8.68857 16.0702C8.56461 16.0188 8.43176 15.9924 8.2976 15.9924ZM15.7024 15.9924C15.5003 15.9924 15.3028 16.0524 15.1348 16.1646C14.9668 16.2769 14.8359 16.4364 14.7586 16.6231C14.6812 16.8098 14.661 17.0152 14.7004 17.2133C14.7398 17.4115 14.8371 17.5935 14.98 17.7364C15.1229 17.8793 15.3049 17.9766 15.5031 18.016C15.7013 18.0554 15.9067 18.0352 16.0933 17.9579C16.28 17.8805 16.4396 17.7496 16.5518 17.5816C16.6641 17.4136 16.724 17.2161 16.724 17.014C16.724 16.7431 16.6164 16.4832 16.4248 16.2917C16.2332 16.1001 15.9733 15.9924 15.7024 15.9924ZM16.2424 4.63974L17.6566 3.22554C16.1551 1.72752 14.1207 0.88623 11.9997 0.88623C9.87871 0.88623 7.84431 1.72752 6.3428 3.22554L7.7574 4.64014C8.88348 3.51653 10.4093 2.8855 12 2.8855C13.5908 2.8855 15.1166 3.51653 16.2427 4.64014L16.2424 4.63974ZM10.5858 7.46824C10.9612 7.09371 11.4698 6.88337 12 6.88337C12.5302 6.88337 13.0388 7.09371 13.4142 7.46824L14.8284 6.05394C14.0777 5.30488 13.0605 4.88421 12 4.88421C10.9395 4.88421 9.92231 5.30488 9.1716 6.05394L10.5858 7.46824Z" fill="black"/>
</svg>
