<svg width="24" height="24" viewBox="0 0 24 24" fill="none" xmlns="http://www.w3.org/2000/svg">
<path d="M23 13.9214C23.002 13.5792 22.9122 13.2426 22.7401 12.9469C22.5679 12.6511 22.3196 12.4069 22.021 12.2397C20.4793 11.4843 18.7957 11.0619 17.08 11.0002L14.37 8.14148C14.0284 7.77869 13.6162 7.48962 13.1588 7.29205C12.7013 7.09449 12.2083 6.99261 11.71 6.99268H9.296C8.67361 6.99263 8.05803 7.12208 7.48837 7.37279C6.91872 7.6235 6.40746 7.99 5.9871 8.44898L3.6592 11.0002H2.6919C2.24328 11.0002 1.81303 11.1783 1.49576 11.4955C1.17848 11.8127 1.00016 12.2429 1 12.6915V16.4446L3.2424 16.838C3.3351 17.4079 3.62281 17.9279 4.05637 18.3092C4.48994 18.6905 5.04245 18.9094 5.61951 18.9286C6.19658 18.9477 6.76239 18.7659 7.22028 18.4142C7.67817 18.0625 7.99972 17.5627 8.13 17.0002H16.0166C16.1438 17.549 16.4531 18.0386 16.8941 18.3891C17.3352 18.7397 17.882 18.9305 18.4454 18.9305C19.0087 18.9305 19.5555 18.7397 19.9966 18.3891C20.4376 18.0386 20.7469 17.549 20.8741 17.0002H23V13.9214ZM5.7014 18.0302C5.38495 18.0302 5.07561 17.9363 4.81249 17.7605C4.54937 17.5847 4.34429 17.3348 4.22319 17.0425C4.10209 16.7501 4.07041 16.4284 4.13214 16.118C4.19388 15.8077 4.34627 15.5226 4.57003 15.2988C4.79379 15.075 5.07889 14.9227 5.38926 14.8609C5.69963 14.7992 6.02133 14.8309 6.31369 14.952C6.60606 15.0731 6.85594 15.2781 7.03175 15.5413C7.20756 15.8044 7.3014 16.1137 7.3014 16.4302C7.3009 16.8544 7.13216 17.261 6.83222 17.561C6.53227 17.8609 6.12559 18.0297 5.7014 18.0302ZM4.9565 11.0002L6.7165 9.08218C7.04668 8.72839 7.446 8.44619 7.88972 8.25305C8.33343 8.05991 8.81208 7.95996 9.296 7.95938H11.71C12.4047 7.95788 13.0729 8.22588 13.574 8.70698C13.6008 8.73058 13.8585 8.98488 13.8818 9.01278L15.8071 11.0002H4.9565ZM18.4454 18.0302C18.129 18.0302 17.8196 17.9363 17.5565 17.7605C17.2934 17.5847 17.0883 17.3348 16.9672 17.0425C16.8461 16.7501 16.8144 16.4284 16.8761 16.118C16.9379 15.8077 17.0903 15.5226 17.314 15.2988C17.5378 15.075 17.8229 14.9227 18.1333 14.8609C18.4436 14.7992 18.7653 14.8309 19.0577 14.952C19.3501 15.0731 19.5999 15.2781 19.7758 15.5413C19.9516 15.8044 20.0454 16.1137 20.0454 16.4302C20.0449 16.8544 19.8762 17.2611 19.5762 17.561C19.2763 17.861 18.8696 18.0297 18.4454 18.0302Z" fill="black"/>
</svg>
