<svg width="24" height="24" viewBox="0 0 24 24" fill="none" xmlns="http://www.w3.org/2000/svg">
<path d="M18.3333 12.7551C17.8718 12.7551 17.4207 12.8919 17.0369 13.1483C16.6532 13.4047 16.3541 13.7692 16.1775 14.1956C16.0009 14.6219 15.9547 15.0911 16.0447 15.5438C16.1348 15.9964 16.357 16.4122 16.6834 16.7385C17.0097 17.0648 17.4255 17.287 17.8781 17.3771C18.3308 17.4671 18.8 17.4209 19.2263 17.2442C19.6527 17.0676 20.0171 16.7685 20.2735 16.3848C20.5299 16.001 20.6667 15.5499 20.6667 15.0884C20.6667 14.4696 20.4208 13.8761 19.9832 13.4385C19.5456 13.0009 18.9521 12.7551 18.3333 12.7551ZM18.3333 16.1551C18.1223 16.1551 17.9161 16.0925 17.7407 15.9753C17.5653 15.8581 17.4285 15.6915 17.3478 15.4966C17.2671 15.3017 17.2459 15.0872 17.2871 14.8803C17.3283 14.6734 17.4298 14.4833 17.579 14.3341C17.7282 14.1849 17.9183 14.0833 18.1252 14.0422C18.3321 14.001 18.5466 14.0222 18.7415 14.1029C18.9364 14.1836 19.103 14.3203 19.2202 14.4958C19.3374 14.6712 19.4 14.8774 19.4 15.0884C19.3997 15.3712 19.2872 15.6423 19.0872 15.8423C18.8872 16.0423 18.6161 16.1548 18.3333 16.1551ZM5.6667 12.7551C5.20519 12.7551 4.75404 12.8919 4.37029 13.1483C3.98655 13.4047 3.68746 13.7691 3.51084 14.1955C3.33422 14.6219 3.288 15.091 3.37803 15.5437C3.46806 15.9963 3.6903 16.4121 4.01664 16.7385C4.34297 17.0648 4.75876 17.287 5.2114 17.3771C5.66405 17.4671 6.13322 17.4209 6.5596 17.2443C6.98598 17.0676 7.3504 16.7685 7.60679 16.3848C7.86318 16.0011 8.00002 15.5499 8 15.0884C8 14.4696 7.75417 13.8761 7.31659 13.4385C6.87901 13.0009 6.28553 12.7551 5.6667 12.7551ZM5.6667 16.1884C5.44914 16.1884 5.23647 16.1239 5.05557 16.003C4.87468 15.8821 4.73369 15.7103 4.65043 15.5093C4.56718 15.3083 4.54539 15.0872 4.58784 14.8738C4.63028 14.6604 4.73504 14.4644 4.88888 14.3106C5.04272 14.1567 5.23872 14.052 5.4521 14.0095C5.66548 13.9671 5.88665 13.9889 6.08765 14.0721C6.28865 14.1554 6.46045 14.2964 6.58132 14.4773C6.70219 14.6582 6.7667 14.8708 6.7667 15.0884C6.76638 15.38 6.65039 15.6596 6.44417 15.8659C6.23795 16.0721 5.95834 16.1881 5.6667 16.1884ZM23.8643 9.01159C23.7648 8.83941 23.601 8.71378 23.409 8.66232C23.2169 8.61086 23.0122 8.63779 22.84 8.73719L20.8449 9.88719C20.4344 10.1247 19.9685 10.2497 19.4943 10.2495H4.5059C4.03136 10.2496 3.56517 10.1246 3.1543 9.88719L1.16 8.73719C1.07464 8.68599 0.97994 8.6523 0.881424 8.63807C0.782908 8.62384 0.682546 8.62937 0.586187 8.65433C0.489829 8.67928 0.399402 8.72317 0.320178 8.78343C0.240954 8.84369 0.174517 8.91912 0.124742 9.00532C0.0749659 9.09152 0.0428464 9.18676 0.0302555 9.2855C0.0176645 9.38424 0.024854 9.4845 0.051405 9.58043C0.0779559 9.67636 0.123337 9.76605 0.184903 9.84426C0.246469 9.92247 0.322988 9.98765 0.41 10.036L2.4031 11.186C3.04239 11.555 3.76753 11.7494 4.5057 11.7495H19.4941C20.232 11.7495 20.9568 11.5551 21.5957 11.186L23.5898 10.036C23.762 9.93653 23.8877 9.77274 23.9392 9.58063C23.9907 9.38853 23.9637 9.18384 23.8643 9.01159Z" fill="black"/>
</svg>
