<svg width="24" height="24" viewBox="0 0 24 24" fill="none" xmlns="http://www.w3.org/2000/svg">
<path d="M23.9983 12.9824C23.9992 12.6178 23.8948 12.2607 23.6977 11.954C23.5007 11.6472 23.2193 11.4038 22.8873 11.253C21.4075 10.5784 19.8256 10.155 18.2067 10.0002L15.55 7.30733C15.209 6.9603 14.8023 6.68466 14.3537 6.49651C13.905 6.30835 13.4234 6.21144 12.9369 6.21143H2.4467L0.468 9.37253C0.1624 9.85048 3.54885e-06 10.4059 0 10.9732L0 16.2002L4.1172 17.0002H4.1211C4.26318 17.5039 4.56589 17.9475 4.98318 18.2633C5.40048 18.5792 5.90953 18.7502 6.4329 18.7502C6.95627 18.7502 7.46532 18.5792 7.88262 18.2633C8.29991 17.9475 8.60262 17.5039 8.7447 17.0002H17.0312C17.1733 17.5039 17.476 17.9475 17.8933 18.2633C18.3106 18.5792 18.8196 18.7502 19.343 18.7502C19.8664 18.7502 20.3754 18.5792 20.7927 18.2633C21.21 17.9475 21.5127 17.5039 21.6548 17.0002H23.9983V12.9824ZM1.31 9.91133L3 7.21113H12.9365C13.29 7.21212 13.6398 7.28304 13.9658 7.41981C14.2918 7.55658 14.5875 7.75649 14.8359 8.00803L16.8026 10.0002H1.27C1.2856 9.97133 1.292 9.93893 1.31 9.91133ZM6.4333 17.8335C6.13663 17.8335 5.84662 17.7456 5.59994 17.5807C5.35327 17.4159 5.16101 17.1816 5.04748 16.9076C4.93395 16.6335 4.90424 16.3319 4.96212 16.0409C5.02 15.7499 5.16286 15.4826 5.37264 15.2729C5.58242 15.0631 5.84969 14.9202 6.14066 14.8623C6.43164 14.8045 6.73324 14.8342 7.00733 14.9477C7.28141 15.0612 7.51568 15.2535 7.6805 15.5002C7.84533 15.7468 7.9333 16.0369 7.9333 16.3335C7.93285 16.7313 7.77461 17.1126 7.49332 17.3938C7.21203 17.675 6.83066 17.8332 6.4329 17.8335H6.4333ZM19.3433 17.8335C19.0466 17.8335 18.7566 17.7456 18.5099 17.5807C18.2633 17.4159 18.071 17.1816 17.9575 16.9076C17.844 16.6335 17.8142 16.3319 17.8721 16.0409C17.93 15.7499 18.0729 15.4826 18.2826 15.2729C18.4924 15.0631 18.7597 14.9202 19.0507 14.8623C19.3416 14.8045 19.6432 14.8342 19.9173 14.9477C20.1914 15.0612 20.4257 15.2535 20.5905 15.5002C20.7553 15.7468 20.8433 16.0369 20.8433 16.3335C20.8428 16.7313 20.6846 17.1126 20.4034 17.3938C20.1221 17.675 19.7407 17.8332 19.343 17.8335H19.3433ZM22.998 16.0002H21.7261C21.6483 15.4233 21.364 14.8942 20.9257 14.5111C20.4875 14.128 19.9251 13.9168 19.3431 13.9168C18.761 13.9168 18.1986 14.128 17.7604 14.5111C17.3221 14.8942 17.0378 15.4233 16.96 16.0002H8.816C8.73837 15.426 8.45609 14.8992 8.02105 14.5165C7.58601 14.1338 7.02745 13.9209 6.44804 13.9172C5.86864 13.9134 5.30734 14.1188 4.86732 14.4958C4.4273 14.8728 4.13814 15.3959 4.053 15.969L1 15.3762V10.9729L1.0009 10.9663H17.7909L18.1204 10.9953C19.6268 11.1403 21.0984 11.5354 22.4749 12.1643C22.6316 12.236 22.7643 12.3513 22.8571 12.4964C22.9499 12.6415 22.9989 12.8104 22.9983 12.9826L22.998 16.0002Z" fill="black"/>
</svg>
