<svg width="24" height="24" viewBox="0 0 24 24" fill="none" xmlns="http://www.w3.org/2000/svg">
<path d="M10.5008 3.20986L14.49 9.87856L14.8879 10.5437H19.7147L21.3257 11.027C21.5018 11.0791 21.6563 11.1868 21.7662 11.334C21.8762 11.4812 21.9355 11.6599 21.9355 11.8436C21.9355 12.0273 21.8762 12.2061 21.7662 12.3532C21.6563 12.5004 21.5018 12.6081 21.3257 12.6603L19.7147 13.1436H14.8877L14.4898 13.8087L10.5008 20.477H8.98265L10.6894 14.911L11.2314 13.1436H5.62225L5.22415 13.8072L3.92495 15.9742H2.64495L3.78635 12.2432L3.90855 11.8437L3.78635 11.4437L2.64465 7.71306H3.92465L5.22415 9.87986L5.62225 10.5435H11.2314L10.6894 8.77606L8.98265 3.20986H10.5008ZM11.2757 1.84326H7.13405L9.38275 9.17696H6.39605L4.69875 6.34696H0.797852L2.47915 11.8442L0.797852 17.3408H4.69875L6.39605 14.5099H9.38275L7.13405 21.8437H11.2757L15.6626 14.5099H19.9063L21.7015 13.9737C22.163 13.8399 22.5687 13.5598 22.8574 13.1756C23.1461 12.7914 23.3022 12.3238 23.3022 11.8432C23.3022 11.3626 23.1461 10.895 22.8574 10.5108C22.5687 10.1266 22.163 9.84653 21.7015 9.71276L19.9063 9.17656H15.6626L11.2757 1.84366V1.84326Z" fill="black"/>
</svg>
