<svg width="24" height="24" viewBox="0 0 24 24" fill="none" xmlns="http://www.w3.org/2000/svg">
<path d="M20.38 14.9638L20.848 11.2202C20.891 10.8761 20.8135 10.5277 20.6286 10.2344C20.4437 9.941 20.1629 9.72075 19.8339 9.6111L19 9.3333V5C19 4.46957 18.7893 3.96086 18.4142 3.58579C18.0391 3.21071 17.5304 3 17 3H13.5V2H10.5V3H7C6.46957 3 5.96086 3.21071 5.58579 3.58579C5.21071 3.96086 5 4.46957 5 5V9.3334L4.1666 9.6111C3.83766 9.72075 3.55686 9.94096 3.37198 10.2343C3.18709 10.5276 3.10953 10.8759 3.1525 11.22L3.62 14.9635C2.81201 14.5367 1.91372 14.3093 1 14.3V16.2C1.79947 16.2134 2.57684 16.4646 3.2329 16.9217C4.19755 17.5774 5.3337 17.935 6.5 17.95C7.66659 17.9349 8.80302 17.5773 9.7681 16.9217C10.4159 16.4476 11.1978 16.1921 12.0005 16.1921C12.8032 16.1921 13.5851 16.4476 14.2329 16.9217C15.1911 17.5911 16.3317 17.95 17.5005 17.95C18.6693 17.95 19.8099 17.5911 20.7681 16.9217C21.4237 16.4645 22.2008 16.2132 23 16.2V14.3C22.0862 14.3092 21.1879 14.5368 20.38 14.9638ZM17.1 8.7L12 7L6.9 8.7V5C6.9 4.97348 6.91054 4.94804 6.92929 4.92929C6.94804 4.91054 6.97348 4.9 7 4.9H17C17.0265 4.9 17.052 4.91054 17.0707 4.92929C17.0895 4.94804 17.1 4.97348 17.1 5V8.7ZM15.2681 19.3281C14.3085 18.6624 13.1684 18.3056 12.0005 18.3056C10.8326 18.3056 9.69251 18.6624 8.7329 19.3281C8.07649 19.7845 7.29936 20.0357 6.5 20.05C5.70095 20.0359 4.92411 19.7847 4.2681 19.3283C3.30306 18.6726 2.16661 18.315 1 18.3V20.2C1.79947 20.2134 2.57684 20.4646 3.2329 20.9217C4.19755 21.5774 5.3337 21.935 6.5 21.95C7.66659 21.9349 8.80302 21.5773 9.7681 20.9217C10.4159 20.4476 11.1978 20.1921 12.0005 20.1921C12.8032 20.1921 13.5851 20.4476 14.2329 20.9217C15.1911 21.5911 16.3317 21.95 17.5005 21.95C18.6693 21.95 19.8099 21.5911 20.7681 20.9217C21.4237 20.4645 22.2008 20.2132 23 20.2V18.3C21.8337 18.3149 20.6975 18.6725 19.7329 19.3283C19.0847 19.8014 18.3029 20.0563 17.5005 20.0562C16.698 20.0562 15.9163 19.8012 15.2681 19.3281Z" fill="black"/>
</svg>
