<svg width="24" height="24" viewBox="0 0 24 24" fill="none" xmlns="http://www.w3.org/2000/svg">
<path d="M20.7344 5.7505C20.6709 4.73481 20.2227 3.7815 19.481 3.0847C18.7393 2.3879 17.7599 2 16.7422 2H7.2578C6.24021 1.99999 5.26087 2.38782 4.51917 3.08452C3.77748 3.78121 3.3292 4.7344 3.2656 5.75C3.08853 8.58267 3 11.4186 3 14.2578V21.34C3 21.4267 3.01707 21.5125 3.05024 21.5926C3.08341 21.6726 3.13202 21.7454 3.19331 21.8067C3.2546 21.868 3.32735 21.9166 3.40743 21.9498C3.4875 21.9829 3.57333 22 3.66 22H4.34C4.42667 22 4.5125 21.9829 4.59257 21.9498C4.67265 21.9166 4.7454 21.868 4.80669 21.8067C4.86798 21.7454 4.91659 21.6726 4.94976 21.5926C4.98293 21.5125 5 21.4267 5 21.34V20H19V21.34C19 21.515 19.0695 21.6829 19.1933 21.8067C19.3171 21.9305 19.485 22 19.66 22H20.34C20.515 22 20.6829 21.9305 20.8067 21.8067C20.9305 21.6829 21 21.515 21 21.34V14.2578C21 11.4199 20.9115 8.58417 20.7344 5.7505ZM6.3542 16.3264C6.10697 16.3264 5.8653 16.2531 5.65974 16.1157C5.45418 15.9784 5.29396 15.7832 5.19935 15.5548C5.10474 15.3263 5.07999 15.075 5.12822 14.8325C5.17645 14.5901 5.2955 14.3673 5.47032 14.1925C5.64513 14.0177 5.86786 13.8986 6.11034 13.8504C6.35281 13.8022 6.60415 13.8269 6.83255 13.9216C7.06096 14.0162 7.25619 14.1764 7.39354 14.3819C7.53089 14.5875 7.6042 14.8292 7.6042 15.0764C7.6042 15.4079 7.4725 15.7259 7.23808 15.9603C7.00366 16.1947 6.68572 16.3264 6.3542 16.3264ZM17.6458 16.3264C17.3986 16.3264 17.1569 16.2531 16.9513 16.1157C16.7458 15.9784 16.5856 15.7832 16.4909 15.5548C16.3963 15.3263 16.3716 15.075 16.4198 14.8325C16.4681 14.5901 16.5871 14.3673 16.7619 14.1925C16.9367 14.0177 17.1595 13.8986 17.4019 13.8504C17.6444 13.8022 17.8957 13.8269 18.1242 13.9216C18.3526 14.0162 18.5478 14.1764 18.6851 14.3819C18.8225 14.5875 18.8958 14.8292 18.8958 15.0764C18.8958 15.4079 18.7641 15.7259 18.5297 15.9603C18.2953 16.1947 17.9773 16.3264 17.6458 16.3264ZM5.0511 11C5.0927 9.2875 5.1555 7.5744 5.2617 5.8752C5.29427 5.36766 5.51864 4.8915 5.88931 4.54328C6.25998 4.19506 6.74922 4.00083 7.2578 4H16.7422C17.2508 4.00083 17.74 4.19506 18.1107 4.54328C18.4814 4.8915 18.7057 5.36766 18.7383 5.8752C18.8445 7.5743 18.9073 9.2874 18.9489 11H5.0511Z" fill="black"/>
</svg>
