<svg width="24" height="24" viewBox="0 0 24 24" fill="none" xmlns="http://www.w3.org/2000/svg">
<path d="M18.6667 13.1773C18.37 13.1773 18.08 13.2653 17.8334 13.4301C17.5867 13.5949 17.3944 13.8292 17.2809 14.1033C17.1674 14.3774 17.1377 14.679 17.1955 14.9699C17.2534 15.2609 17.3963 15.5282 17.6061 15.738C17.8158 15.9477 18.0831 16.0906 18.3741 16.1485C18.6651 16.2064 18.9667 16.1766 19.2407 16.0631C19.5148 15.9496 19.7491 15.7573 19.9139 15.5107C20.0787 15.264 20.1667 14.974 20.1667 14.6773C20.1667 14.2795 20.0087 13.8979 19.7274 13.6166C19.4461 13.3353 19.0645 13.1773 18.6667 13.1773ZM5.33332 13.1773C5.03664 13.1773 4.74663 13.2653 4.49996 13.4301C4.25329 13.5949 4.06103 13.8292 3.9475 14.1033C3.83397 14.3774 3.80426 14.679 3.86214 14.9699C3.92002 15.2609 4.06288 15.5282 4.27266 15.738C4.48244 15.9477 4.74971 16.0906 5.04068 16.1485C5.33165 16.2064 5.63325 16.1766 5.90734 16.0631C6.18143 15.9496 6.4157 15.7573 6.58052 15.5107C6.74534 15.264 6.83332 14.974 6.83332 14.6773C6.83332 14.2795 6.67528 13.8979 6.39398 13.6166C6.11267 13.3353 5.73114 13.1773 5.33332 13.1773ZM23.8955 9.1373C23.8628 9.08034 23.8192 9.0304 23.7672 8.99036C23.7151 8.95033 23.6556 8.92098 23.5922 8.90401C23.5288 8.88704 23.4626 8.88278 23.3975 8.89148C23.3324 8.90018 23.2697 8.92166 23.2129 8.9547L21.2197 10.1047C20.7707 10.3636 20.2615 10.5 19.7432 10.5002H4.25682C3.73839 10.5001 3.22911 10.3637 2.78002 10.1047L0.787117 8.9543C0.730202 8.91847 0.666645 8.89449 0.600249 8.8838C0.533852 8.87311 0.465981 8.87592 0.400696 8.89207C0.335411 8.90822 0.274055 8.93737 0.220299 8.97778C0.166544 9.01819 0.121493 9.06903 0.0878426 9.12726C0.0541925 9.18549 0.0326349 9.24991 0.0244599 9.31666C0.0162848 9.38342 0.0216603 9.45113 0.0402646 9.51576C0.0588689 9.58039 0.0903197 9.6406 0.132735 9.69279C0.17515 9.74498 0.227658 9.78807 0.287117 9.8195L2.28002 10.9702C2.88093 11.3172 3.56259 11.5 4.25652 11.5002H19.7432C20.4371 11.5 21.1188 11.3172 21.7197 10.9702L23.7129 9.8202C23.7699 9.78746 23.8199 9.74377 23.8599 9.69166C23.9 9.63954 23.9293 9.58002 23.9463 9.51652C23.9633 9.45302 23.9675 9.38679 23.9588 9.32164C23.9501 9.25649 23.9286 9.19371 23.8955 9.1369V9.1373Z" fill="black"/>
</svg>
