<svg width="24" height="24" viewBox="0 0 24 24" fill="none" xmlns="http://www.w3.org/2000/svg">
<path d="M22.9345 9.2723C22.7881 8.89741 22.5319 8.57542 22.1996 8.34843C21.8672 8.12144 21.4741 8 21.0716 8H17.5V15H0V18H1.9627C2.0206 18.4163 2.22712 18.7977 2.54416 19.0737C2.86119 19.3497 3.26736 19.5017 3.6877 19.5017C4.10804 19.5017 4.51421 19.3497 4.83124 19.0737C5.14828 18.7977 5.3548 18.4163 5.4127 18H5.8798C5.9377 18.4163 6.14422 18.7977 6.46126 19.0737C6.77829 19.3497 7.18446 19.5017 7.6048 19.5017C8.02514 19.5017 8.43131 19.3497 8.74834 19.0737C9.06538 18.7977 9.2719 18.4163 9.3298 18H18.679C18.7369 18.4163 18.9434 18.7977 19.2605 19.0737C19.5775 19.3497 19.9837 19.5017 20.404 19.5017C20.8243 19.5017 21.2305 19.3497 21.5475 19.0737C21.8646 18.7977 22.0711 18.4163 22.129 18H24V12L22.9345 9.2723ZM18 8.5H21.0716C21.3737 8.49878 21.6691 8.58936 21.9186 8.75976C22.1681 8.93016 22.36 9.17233 22.4688 9.4542L23.4632 12H18V8.5ZM3.6875 19C3.44027 19 3.1986 18.9267 2.99304 18.7893C2.78748 18.652 2.62726 18.4568 2.53265 18.2284C2.43804 17.9999 2.41329 17.7486 2.46152 17.5061C2.50975 17.2637 2.6288 17.0409 2.80362 16.8661C2.97843 16.6913 3.20116 16.5723 3.44364 16.524C3.68611 16.4758 3.93745 16.5005 4.16585 16.5951C4.39426 16.6898 4.58949 16.85 4.72684 17.0555C4.86419 17.2611 4.9375 17.5028 4.9375 17.75C4.93713 18.0814 4.80531 18.3991 4.57097 18.6335C4.33663 18.8678 4.01891 18.9996 3.6875 19ZM7.6042 19C7.35697 19 7.1153 18.9267 6.90974 18.7893C6.70418 18.652 6.54396 18.4568 6.44935 18.2284C6.35474 17.9999 6.32999 17.7486 6.37822 17.5061C6.42645 17.2637 6.5455 17.0409 6.72032 16.8661C6.89513 16.6913 7.11786 16.5723 7.36034 16.524C7.60281 16.4758 7.85415 16.5005 8.08255 16.5951C8.31096 16.6898 8.50618 16.85 8.64354 17.0555C8.78089 17.2611 8.8542 17.5028 8.8542 17.75C8.85383 18.0814 8.72201 18.3991 8.48767 18.6335C8.25333 18.8678 7.93561 18.9996 7.6042 19ZM20.403 19C20.1558 19 19.9141 18.9267 19.7085 18.7893C19.503 18.652 19.3428 18.4568 19.2481 18.2284C19.1535 17.9999 19.1288 17.7486 19.177 17.5061C19.2253 17.2637 19.3443 17.0409 19.5191 16.8661C19.6939 16.6913 19.9167 16.5723 20.1591 16.524C20.4016 16.4758 20.6529 16.5005 20.8814 16.5951C21.1098 16.6898 21.305 16.85 21.4423 17.0555C21.5797 17.2611 21.653 17.5028 21.653 17.75C21.6526 18.0814 21.5208 18.3991 21.2865 18.6335C21.0521 18.8678 20.7344 18.9996 20.403 19ZM23.5 17.5H22.1277C22.0698 17.0837 21.8633 16.7023 21.5462 16.4263C21.2292 16.1503 20.823 15.9983 20.4027 15.9983C19.9824 15.9983 19.5762 16.1503 19.2592 16.4263C18.9421 16.7023 18.7356 17.0837 18.6777 17.5H9.329C9.2711 17.0837 9.06458 16.7023 8.74754 16.4263C8.43051 16.1503 8.02434 15.9983 7.604 15.9983C7.18366 15.9983 6.77749 16.1503 6.46046 16.4263C6.14342 16.7023 5.9369 17.0837 5.879 17.5H5.4123C5.3544 17.0837 5.14788 16.7023 4.83084 16.4263C4.51381 16.1503 4.10764 15.9983 3.6873 15.9983C3.26696 15.9983 2.86079 16.1503 2.54376 16.4263C2.22672 16.7023 2.0202 17.0837 1.9623 17.5H0.5V15.5H18V12.5H23.5V17.5Z" fill="black"/>
</svg>
