<svg width="24" height="24" viewBox="0 0 24 24" fill="none" xmlns="http://www.w3.org/2000/svg">
<path d="M20.3177 16.1144L20.8468 11.8819C20.8898 11.5378 20.8123 11.1895 20.6274 10.8961C20.4426 10.6027 20.1618 10.3825 19.8328 10.2728L18.6667 9.88419V5.66659C18.6664 5.22466 18.4907 4.80093 18.1782 4.48844C17.8657 4.17596 17.4419 4.00028 17 3.99999H13.5V2.66699H10.5V3.99999H7C6.55808 4.00028 6.13434 4.17596 5.82186 4.48845C5.50937 4.80093 5.33369 5.22467 5.3334 5.66659V9.88369L4.166 10.2728C3.83702 10.3824 3.5562 10.6027 3.37131 10.8961C3.18642 11.1894 3.10889 11.5378 3.1519 11.8819L3.681 16.1146C2.85431 15.6772 1.93519 15.4434 1 15.4326V16.3994C1.88445 16.41 2.75037 16.6543 3.51 17.1074C4.41602 17.6434 5.44735 17.9311 6.5 17.9414C7.5528 17.9312 8.58424 17.6431 9.49 17.1064C10.2464 16.6461 11.1147 16.4027 12.0001 16.4029C12.8855 16.4031 13.7538 16.6468 14.51 17.1074C15.4119 17.6531 16.446 17.9415 17.5001 17.9413C18.5543 17.9411 19.5883 17.6524 20.49 17.1064C21.2499 16.654 22.1157 16.4101 23 16.3994V15.4326C22.0644 15.4435 21.1449 15.6772 20.3177 16.1144ZM17.6665 9.55069L11.9993 7.66169L6.3335 9.54999V5.66699C6.33666 5.54437 6.37453 5.42516 6.4427 5.32319H17.5573C17.6255 5.42516 17.6633 5.54437 17.6665 5.66699V9.55069ZM14.99 19.6006C14.087 19.0582 13.0534 18.7716 12 18.7716C10.9466 18.7716 9.91302 19.0582 9.01 19.6006C8.25022 20.0534 7.38439 20.2976 6.5 20.3086C5.61561 20.2976 4.74978 20.0534 3.99 19.6006C3.08395 19.0646 2.05264 18.777 1 18.7666V19.7334C1.88436 19.7437 2.75028 19.9876 3.51 20.4404C4.41591 20.9768 5.44725 21.2648 6.5 21.2754C7.55275 21.2648 8.58409 20.9768 9.49 20.4404C10.2461 19.9795 11.1145 19.7357 12 19.7357C12.8855 19.7357 13.7539 19.9795 14.51 20.4404C15.4117 20.9865 16.4458 21.2753 17.5 21.2753C18.5542 21.2753 19.5883 20.9865 20.49 20.4404C21.2497 19.9876 22.1156 19.7437 23 19.7334V18.7666C21.9474 18.777 20.916 19.0646 20.01 19.6006C19.2539 20.0615 18.3855 20.3053 17.5 20.3053C16.6145 20.3053 15.7461 20.0615 14.99 19.6006Z" fill="black"/>
</svg>
