<svg width="24" height="24" viewBox="0 0 24 24" fill="none" xmlns="http://www.w3.org/2000/svg">
<path d="M17.916 6.79098L20 4.70698L22.084 6.79098L22.791 6.08398L20.707 3.99998L22.791 1.91598L22.084 1.20898L20 3.29298L17.916 1.20898L17.209 1.91598L19.293 3.99998L17.209 6.08398L17.916 6.79098ZM22.0806 10.5333L19.9688 9.84328H14.9167L10.131 1.84328H7.45103L9.90413 9.84328H5.30593L3.81593 7.35168H1.10193L2.47923 11.8433L1.10193 16.3353H3.81553L5.30553 13.8438H9.90373L7.45063 21.8438H10.1306L14.9163 13.8438H19.9684L22.0802 13.1538C22.3566 13.0635 22.5974 12.8882 22.7681 12.6528C22.9389 12.4175 23.0308 12.1341 23.0308 11.8434C23.0308 11.5526 22.9389 11.2693 22.7681 11.0339C22.5974 10.7986 22.3566 10.6232 22.0802 10.533L22.0806 10.5333Z" fill="black"/>
</svg>
