<svg width="24" height="24" viewBox="0 0 24 24" fill="none" xmlns="http://www.w3.org/2000/svg">
<path d="M21.3093 14.0833C21.3093 13.9339 21.2999 13.7847 21.2811 13.6365C21.2462 13.3587 21.1501 13.0921 20.9998 12.8559C20.8495 12.6197 20.6487 12.4198 20.4119 12.2705C19.515 11.7212 18.5499 11.2922 17.5412 10.9943L14.8538 7.99168C14.5725 7.67736 14.2281 7.42593 13.843 7.25379C13.4579 7.08165 13.0408 6.99267 12.619 6.99268H4.83332L3.07222 10.3991C2.85207 10.825 2.73716 11.2974 2.73712 11.7769V16.2002L3.66472 16.5486C3.69128 17.1504 3.935 17.7223 4.35076 18.1583C4.76653 18.5943 5.32618 18.8649 5.9261 18.92C6.52603 18.9751 7.12561 18.811 7.61384 18.458C8.10206 18.105 8.44587 17.5871 8.58162 17.0002H15.4826C15.6098 17.549 15.9192 18.0385 16.3602 18.389C16.8012 18.7395 17.348 18.9303 17.9113 18.9303C18.4747 18.9303 19.0214 18.7395 19.4624 18.389C19.9035 18.0385 20.2128 17.549 20.34 17.0002H21.3092L21.3093 14.0833ZM5.44432 7.99238H12.6221C12.9027 7.99263 13.18 8.05198 13.4361 8.16656C13.6922 8.28113 13.9213 8.44837 14.1084 8.65738L16.2 11.0002H3.90492L5.44432 7.99238ZM6.15282 18.0302C5.83637 18.0302 5.52703 17.9363 5.26391 17.7605C5.00079 17.5847 4.79571 17.3348 4.67461 17.0425C4.55351 16.7501 4.52183 16.4284 4.58357 16.118C4.6453 15.8077 4.79769 15.5226 5.02145 15.2988C5.24521 15.075 5.53031 14.9227 5.84068 14.8609C6.15105 14.7992 6.47275 14.8309 6.76511 14.952C7.05748 15.0731 7.30736 15.2781 7.48317 15.5413C7.65898 15.8044 7.75282 16.1137 7.75282 16.4302C7.75232 16.8544 7.58359 17.261 7.28364 17.561C6.98369 17.8609 6.57701 18.0297 6.15282 18.0302ZM17.9114 18.0302C17.595 18.0302 17.2856 17.9363 17.0225 17.7605C16.7594 17.5847 16.5543 17.3348 16.4332 17.0425C16.3121 16.7501 16.2804 16.4284 16.3422 16.118C16.4039 15.8077 16.5563 15.5226 16.7801 15.2988C17.0038 15.075 17.2889 14.9227 17.5993 14.8609C17.9096 14.7992 18.2314 14.8309 18.5237 14.952C18.8161 15.0731 19.066 15.2781 19.2418 15.5413C19.4176 15.8044 19.5114 16.1137 19.5114 16.4302C19.5109 16.8544 19.3422 17.261 19.0422 17.561C18.7423 17.8609 18.3356 18.0297 17.9114 18.0302Z" fill="black"/>
</svg>
