<svg width="24" height="24" viewBox="0 0 24 24" fill="none" xmlns="http://www.w3.org/2000/svg">
<path d="M22.6719 12.4581C22.6731 12.0956 22.57 11.7403 22.375 11.4347C22.18 11.129 21.9012 10.8858 21.5719 10.7341C20.1652 10.0874 18.6638 9.67066 17.125 9.49984L15.1515 7.06984C14.7771 6.60764 14.3042 6.2349 13.7673 5.97885C13.2304 5.7228 12.6431 5.58989 12.0483 5.58984H3.70681L1.74311 9.01324C1.47591 9.46855 1.33507 9.98692 1.33511 10.5148V16.1998L3.55981 16.7085C3.63407 17.4232 3.96173 18.0877 4.48347 18.5818C5.00521 19.0758 5.68657 19.3668 6.40424 19.402C7.12192 19.4372 7.82848 19.2143 8.39607 18.7737C8.96366 18.3331 9.35476 17.7038 9.49861 16.9998H14.4319C14.5726 17.6794 14.9433 18.2897 15.4814 18.7279C16.0196 19.166 16.6924 19.4053 17.3864 19.4053C18.0803 19.4053 18.7531 19.166 19.2913 18.7279C19.8295 18.2897 20.2001 17.6794 20.3408 16.9998H22.6719V12.4581ZM4.54691 7.03984H12.0479C12.4269 7.03877 12.8013 7.12291 13.1434 7.28603C13.4856 7.44915 13.7866 7.68709 14.0244 7.98224L15.2564 9.49984H3.13571L4.54691 7.03984ZM6.54421 18.072C6.21129 18.072 5.88584 17.9733 5.60902 17.7884C5.3322 17.6034 5.11645 17.3405 4.98905 17.0329C4.86164 16.7253 4.82831 16.3869 4.89326 16.0603C4.95821 15.7338 5.11853 15.4339 5.35394 15.1985C5.58935 14.9631 5.88929 14.8027 6.21582 14.7378C6.54235 14.6728 6.8808 14.7062 7.18838 14.8336C7.49597 14.961 7.75886 15.1767 7.94383 15.4536C8.12879 15.7304 8.22751 16.0558 8.22751 16.3887C8.22698 16.835 8.04947 17.2629 7.7339 17.5784C7.41834 17.894 6.99049 18.0715 6.54421 18.072ZM17.3864 18.072C17.0535 18.072 16.7281 17.9732 16.4513 17.7882C16.1745 17.6032 15.9588 17.3403 15.8315 17.0327C15.7041 16.7251 15.6708 16.3867 15.7358 16.0602C15.8008 15.7337 15.9611 15.4337 16.1965 15.1984C16.432 14.963 16.7319 14.8027 17.0584 14.7378C17.3849 14.6728 17.7234 14.7062 18.031 14.8336C18.3385 14.961 18.6014 15.1768 18.7863 15.4536C18.9713 15.7304 19.07 16.0558 19.07 16.3887C19.0695 16.8351 18.892 17.263 18.5763 17.5786C18.2607 17.8941 17.8328 18.0716 17.3864 18.072ZM21.2217 15.5498H20.27C20.0916 14.9227 19.7135 14.3707 19.1931 13.9778C18.6728 13.5848 18.0384 13.3722 17.3864 13.3722C16.7343 13.3722 16.1 13.5848 15.5796 13.9778C15.0592 14.3707 14.6812 14.9227 14.5027 15.5498H9.42791C9.25548 14.9472 8.89886 14.4136 8.40799 14.0238C7.91713 13.634 7.31662 13.4075 6.69059 13.376C6.06456 13.3445 5.44437 13.5097 4.9169 13.8483C4.38943 14.187 3.9811 14.6821 3.74911 15.2644L2.78521 15.0444V10.9328H16.8852L16.9759 10.9422C18.3578 11.0961 19.706 11.4709 20.9691 12.0522C21.046 12.088 21.1109 12.1453 21.1558 12.2173C21.2007 12.2893 21.2237 12.3727 21.222 12.4575L21.2217 15.5498Z" fill="black"/>
</svg>
