<svg width="24" height="24" viewBox="0 0 24 24" fill="none" xmlns="http://www.w3.org/2000/svg">
<path d="M23 13.7474C22.9998 13.3947 22.9016 13.0489 22.7163 12.7487C22.531 12.4485 22.266 12.2057 21.9507 12.0474C20.2681 11.2194 18.4454 10.7135 16.5767 10.5561L13.1328 6.82324H12.6118L15.6189 10.5098C15.5251 10.508 15.4362 10.4998 15.3412 10.4998H10.7561L9.9089 9.19464C9.81714 9.05338 9.68218 8.94556 9.52415 8.88725C9.36611 8.82894 9.19347 8.82327 9.03195 8.87108C8.87043 8.91889 8.72868 9.01762 8.62785 9.15255C8.52701 9.28749 8.47249 9.45139 8.4724 9.61984V10.4986H2.6C2.17565 10.4986 1.76869 10.6672 1.46863 10.9673C1.16857 11.2673 1 11.6743 1 12.0986V16.1998L3.6018 16.8571C3.68123 17.3746 3.93913 17.848 4.33084 18.1953C4.72255 18.5427 5.2234 18.7421 5.74664 18.759C6.26989 18.7759 6.78259 18.6093 7.19594 18.2881C7.60929 17.9668 7.89727 17.5111 8.01 16.9998H16.7534C16.8641 17.499 17.1418 17.9454 17.5405 18.2653C17.9392 18.5853 18.4352 18.7597 18.9464 18.7597C19.4576 18.7597 19.9536 18.5853 20.3523 18.2653C20.751 17.9454 21.0287 17.499 21.1394 16.9998H23V13.7474ZM5.8168 18.2598C5.47068 18.2598 5.13234 18.1572 4.84455 17.9649C4.55677 17.7726 4.33246 17.4993 4.20001 17.1795C4.06756 16.8598 4.0329 16.5079 4.10043 16.1684C4.16795 15.829 4.33462 15.5171 4.57936 15.2724C4.82411 15.0277 5.13593 14.861 5.47539 14.7935C5.81486 14.7259 6.16673 14.7606 6.4865 14.8931C6.80627 15.0255 7.07958 15.2498 7.27187 15.5376C7.46416 15.8254 7.5668 16.1637 7.5668 16.5098C7.5663 16.9738 7.38176 17.4186 7.05368 17.7467C6.7256 18.0748 6.28077 18.2593 5.8168 18.2598ZM18.9462 18.2598C18.6001 18.2598 18.2617 18.1572 17.974 17.9649C17.6862 17.7726 17.4619 17.4993 17.3294 17.1795C17.197 16.8598 17.1623 16.5079 17.2298 16.1684C17.2973 15.829 17.464 15.5171 17.7088 15.2724C17.9535 15.0277 18.2653 14.861 18.6048 14.7935C18.9443 14.7259 19.2961 14.7606 19.6159 14.8931C19.9357 15.0255 20.209 15.2498 20.4013 15.5376C20.5936 15.8254 20.6962 16.1637 20.6962 16.5098C20.6957 16.9738 20.5112 17.4186 20.1831 17.7467C19.855 18.0748 19.4102 18.2593 18.9462 18.2598Z" fill="black"/>
</svg>
