<svg width="24" height="24" viewBox="0 0 24 24" fill="none" xmlns="http://www.w3.org/2000/svg">
<path d="M24 12L22.6654 8.3184C22.5254 7.93213 22.2698 7.59835 21.9334 7.36246C21.597 7.12657 21.1961 7.00001 20.7852 7H16V14H0V18H1.1049C1.26495 18.5745 1.60849 19.0809 2.08315 19.442C2.55781 19.8031 3.13754 19.999 3.73393 19.9999C4.33032 20.0009 4.91065 19.8067 5.38642 19.4471C5.86218 19.0875 6.20729 18.5821 6.3691 18.0081C6.53088 18.5822 6.87598 19.0876 7.35176 19.4472C7.82754 19.8069 8.4079 20.001 9.00432 20.0001C9.60074 19.9992 10.1805 19.8032 10.6552 19.4421C11.1298 19.081 11.4734 18.5746 11.6334 18H17.0541C17.2144 18.5752 17.5586 19.0822 18.0341 19.4433C18.5096 19.8045 19.0904 20 19.6875 20C20.2846 20 20.8654 19.8045 21.3409 19.4433C21.8164 19.0822 22.1606 18.5752 22.3209 18H24V12ZM3.7383 18.3C3.53063 18.3 3.32762 18.2384 3.15495 18.123C2.98228 18.0077 2.8477 17.8437 2.76823 17.6518C2.68875 17.46 2.66796 17.2488 2.70848 17.0452C2.74899 16.8415 2.84899 16.6544 2.99584 16.5075C3.14268 16.3607 3.32978 16.2607 3.53346 16.2202C3.73714 16.1797 3.94826 16.2005 4.14012 16.2799C4.33198 16.3594 4.49597 16.494 4.61134 16.6667C4.72672 16.8393 4.7883 17.0423 4.7883 17.25C4.78798 17.5284 4.67726 17.7953 4.48041 17.9921C4.28357 18.189 4.01668 18.2997 3.7383 18.3ZM9 18.3C8.79233 18.3 8.58932 18.2384 8.41665 18.123C8.24398 18.0077 8.1094 17.8437 8.02993 17.6518C7.95045 17.46 7.92966 17.2488 7.97018 17.0452C8.01069 16.8415 8.11069 16.6544 8.25754 16.5075C8.40438 16.3607 8.59148 16.2607 8.79516 16.2202C8.99884 16.1797 9.20996 16.2005 9.40182 16.2799C9.59368 16.3594 9.75767 16.494 9.87304 16.6667C9.98842 16.8393 10.05 17.0423 10.05 17.25C10.0497 17.5284 9.93896 17.7953 9.74211 17.9921C9.54527 18.189 9.27838 18.2997 9 18.3ZM17.8 8.8H20.7852C20.8263 8.8001 20.8663 8.81279 20.8999 8.83636C20.9335 8.85993 20.9591 8.89324 20.9732 8.9318L22.0854 12H17.8V8.8ZM19.6875 18.3C19.4798 18.3 19.2768 18.2384 19.1042 18.123C18.9315 18.0077 18.7969 17.8437 18.7174 17.6518C18.638 17.46 18.6172 17.2488 18.6577 17.0452C18.6982 16.8415 18.7982 16.6544 18.945 16.5075C19.0919 16.3607 19.279 16.2607 19.4827 16.2202C19.6863 16.1797 19.8975 16.2005 20.0893 16.2799C20.2812 16.3594 20.4452 16.494 20.5605 16.6667C20.6759 16.8393 20.7375 17.0423 20.7375 17.25C20.7372 17.5284 20.6265 17.7953 20.4296 17.9921C20.2328 18.189 19.9659 18.2997 19.6875 18.3Z" fill="black"/>
</svg>
