<svg width="24" height="24" viewBox="0 0 24 24" fill="none" xmlns="http://www.w3.org/2000/svg">
<path d="M23 13.7646C23 13.4653 22.9328 13.1698 22.8033 12.8999C22.6738 12.6301 22.4854 12.3928 22.2519 12.2055L20.3343 10.6665L18.5572 7.2749C18.3032 6.78986 17.9214 6.38356 17.453 6.10004C16.9846 5.81653 16.4475 5.6666 15.9 5.6665H1V17.4027L3.1407 17.6467C3.22816 18.2465 3.51838 18.7982 3.96306 19.21C4.40775 19.6219 4.98006 19.869 5.58476 19.9103C6.18945 19.9516 6.79005 19.7845 7.28658 19.4369C7.78312 19.0894 8.14563 18.5822 8.3138 17.9999H15.8632C16.0287 18.5695 16.38 19.0675 16.8612 19.4144C17.3424 19.7613 17.9258 19.9373 18.5185 19.9144C19.1113 19.8915 19.6793 19.671 20.1323 19.2879C20.5852 18.9049 20.8971 18.3813 21.0181 17.8006L23 17.6804V13.7646ZM2.5 7.1665H15.9C16.1724 7.16617 16.4396 7.24016 16.6731 7.38049C16.9065 7.52083 17.0972 7.7222 17.2246 7.9629L18.6922 10.7508L18.7186 10.8008H2.5V7.1665ZM5.7673 18.5832C5.50357 18.5832 5.24577 18.505 5.02649 18.3585C4.80721 18.212 4.63631 18.0037 4.53539 17.7601C4.43447 17.5164 4.40807 17.2483 4.45953 16.9896C4.51099 16.731 4.63799 16.4934 4.82448 16.3069C5.01097 16.1204 5.24857 15.9935 5.50723 15.942C5.76589 15.8906 6.03399 15.917 6.27764 16.0179C6.52128 16.1189 6.72953 16.2898 6.87603 16.5091C7.02253 16.7284 7.10072 16.9862 7.1007 17.2499C7.10028 17.6034 6.95965 17.9423 6.70968 18.1923C6.45971 18.4422 6.1208 18.5828 5.7673 18.5832ZM18.4097 18.5832C18.146 18.5832 17.8882 18.505 17.6689 18.3585C17.4496 18.212 17.2787 18.0038 17.1777 17.7601C17.0768 17.5165 17.0504 17.2484 17.1018 16.9897C17.1533 16.731 17.2803 16.4934 17.4667 16.3069C17.6532 16.1205 17.8908 15.9935 18.1495 15.942C18.4082 15.8906 18.6763 15.917 18.9199 16.0179C19.1636 16.1189 19.3718 16.2898 19.5183 16.5091C19.6648 16.7284 19.743 16.9862 19.743 17.2499C19.7426 17.6033 19.602 17.9422 19.3522 18.1921C19.1023 18.4421 18.7634 18.5827 18.41 18.5832H18.4097Z" fill="black"/>
</svg>
