<svg width="24" height="24" viewBox="0 0 24 24" fill="none" xmlns="http://www.w3.org/2000/svg">
<path d="M21.1235 14.3873C21.1249 14.0679 21.0453 13.7534 20.892 13.4731C20.7388 13.1929 20.517 12.9561 20.2473 12.7849C19.3439 12.2164 18.3622 11.7832 17.3333 11.4991L14.7349 8.76562C14.4546 8.4708 14.1173 8.23605 13.7435 8.07564C13.3698 7.91523 12.9672 7.83252 12.5605 7.83252H4.89577L3.06677 11.1536C2.94207 11.3803 2.87671 11.6349 2.87677 11.8936V16.2L3.73067 16.5393C3.73788 17.0899 3.94705 17.6187 4.31845 18.0253C4.68985 18.4319 5.19763 18.6879 5.74536 18.7447C6.29308 18.8015 6.84261 18.6553 7.28958 18.3336C7.73655 18.012 8.04985 17.5374 8.16997 17H15.8621C15.9727 17.4992 16.2504 17.9456 16.6491 18.2656C17.0478 18.5856 17.5438 18.76 18.055 18.76C18.5663 18.76 19.0622 18.5856 19.461 18.2656C19.8597 17.9456 20.1373 17.4992 20.248 17H21.1231L21.1235 14.3873ZM3.50477 11.3948L5.19127 8.33252H12.5605C12.8993 8.33313 13.2346 8.40234 13.546 8.53598C13.8574 8.66962 14.1386 8.86492 14.3725 9.11012L16.6434 11.4991H3.46337C3.47527 11.4636 3.48909 11.4288 3.50477 11.3948ZM5.97747 18.26C5.63135 18.26 5.29301 18.1574 5.00522 17.9651C4.71744 17.7728 4.49313 17.4995 4.36068 17.1797C4.22823 16.8599 4.19357 16.5081 4.2611 16.1686C4.32862 15.8291 4.49529 15.5173 4.74003 15.2726C4.98478 15.0278 5.29659 14.8612 5.63606 14.7936C5.97553 14.7261 6.32739 14.7608 6.64717 14.8932C6.96694 15.0257 7.24025 15.25 7.43254 15.5378C7.62483 15.8256 7.72747 16.1639 7.72747 16.51C7.72694 16.974 7.5424 17.4188 7.21432 17.7469C6.88625 18.0749 6.44144 18.2595 5.97747 18.26ZM18.0555 18.26C17.7094 18.26 17.371 18.1574 17.0832 17.9651C16.7954 17.7728 16.5711 17.4995 16.4387 17.1797C16.3062 16.8599 16.2716 16.5081 16.3391 16.1686C16.4066 15.8291 16.5733 15.5173 16.818 15.2726C17.0628 15.0278 17.3746 14.8612 17.7141 14.7936C18.0535 14.7261 18.4054 14.7608 18.7252 14.8932C19.0449 15.0257 19.3182 15.25 19.5105 15.5378C19.7028 15.8256 19.8055 16.1639 19.8055 16.51C19.8049 16.974 19.6204 17.4188 19.2923 17.7469C18.9642 18.0749 18.5194 18.2595 18.0555 18.26Z" fill="black"/>
</svg>
