<svg width="24" height="24" viewBox="0 0 24 24" fill="none" xmlns="http://www.w3.org/2000/svg">
<path d="M23 13.7768C22.9996 13.424 22.9013 13.0782 22.7159 12.778C22.5305 12.4778 22.2653 12.2351 21.95 12.0768C20.2523 11.2392 18.4127 10.7271 16.5264 10.5668L13.2942 7.06299H12.2042L14.6082 10.4991H10.6392L9.9092 9.37499C9.81742 9.23371 9.68244 9.12587 9.52438 9.06757C9.36631 9.00927 9.19364 9.00362 9.0321 9.05147C8.87057 9.09932 8.72883 9.1981 8.62801 9.33308C8.5272 9.46806 8.47272 9.63201 8.4727 9.80049V10.4991H2.7839C2.31078 10.4991 1.85704 10.687 1.52249 11.0216C1.18795 11.3561 1 11.8099 1 12.283V16.2L3.1907 16.7534C3.28181 17.3837 3.58976 17.9626 4.06157 18.3905C4.53338 18.8183 5.13955 19.0683 5.77579 19.0975C6.41203 19.1267 7.03855 18.9333 7.54756 18.5504C8.05657 18.1676 8.41625 17.6194 8.5647 17H15.8142C15.9577 17.5987 16.2986 18.1316 16.782 18.5128C17.2654 18.8941 17.8631 19.1014 18.4788 19.1014C19.0944 19.1014 19.6921 18.8941 20.1755 18.5128C20.6589 18.1316 20.9998 17.5987 21.1433 17H23V13.7768ZM5.9 17.8005C5.61322 17.8005 5.33287 17.7154 5.09442 17.5561C4.85597 17.3968 4.67012 17.1703 4.56037 16.9054C4.45063 16.6404 4.42191 16.3489 4.47786 16.0676C4.53381 15.7863 4.67191 15.528 4.8747 15.3252C5.07748 15.1224 5.33585 14.9843 5.61712 14.9283C5.89839 14.8724 6.18994 14.9011 6.45489 15.0109C6.71984 15.1206 6.9463 15.3065 7.10563 15.5449C7.26496 15.7834 7.35 16.0637 7.35 16.3505C7.34955 16.7349 7.19664 17.1035 6.92481 17.3753C6.65298 17.6471 6.28443 17.8 5.9 17.8005ZM18.4787 17.8005C18.1919 17.8005 17.9116 17.7154 17.6731 17.5561C17.4347 17.3968 17.2488 17.1703 17.1391 16.9054C17.0293 16.6404 17.0006 16.3489 17.0566 16.0676C17.1125 15.7863 17.2506 15.528 17.4534 15.3252C17.6562 15.1224 17.9145 14.9843 18.1958 14.9283C18.4771 14.8724 18.7686 14.9011 19.0336 15.0109C19.2985 15.1206 19.525 15.3065 19.6843 15.5449C19.8437 15.7834 19.9287 16.0637 19.9287 16.3505C19.9282 16.7349 19.7754 17.1034 19.5035 17.3753C19.2317 17.6471 18.8632 17.8 18.4788 17.8005H18.4787Z" fill="black"/>
</svg>
