<svg width="24" height="24" viewBox="0 0 24 24" fill="none" xmlns="http://www.w3.org/2000/svg">
<path d="M8.99998 6.50015C9.48609 6.49991 9.96157 6.35786 10.3682 6.09143C10.7748 5.825 11.0948 5.44575 11.2891 5.00015H12.3228L13.5 4.14395L14.5 5.00015L15.5 4.14395L16.5 5.00015L17.5 4.14395V3.00015H11.2891C11.1086 2.58733 10.8199 2.23096 10.4536 1.96876C10.0872 1.70656 9.65673 1.54828 9.20776 1.51068C8.7588 1.47307 8.30802 1.55753 7.90312 1.75513C7.49822 1.95272 7.15427 2.2561 6.90767 2.63316C6.66106 3.01021 6.52098 3.44692 6.50223 3.89707C6.48348 4.34722 6.58677 4.79406 6.80118 5.19032C7.01558 5.58657 7.33311 5.91749 7.72017 6.14807C8.10724 6.37865 8.54944 6.5003 8.99998 6.50015ZM8.24998 3.25015C8.39831 3.25015 8.54332 3.29414 8.66665 3.37655C8.78999 3.45896 8.88612 3.5761 8.94289 3.71314C8.99965 3.85019 9.0145 4.00099 8.98557 4.14647C8.95663 4.29196 8.8852 4.42559 8.78031 4.53048C8.67542 4.63537 8.54178 4.7068 8.39629 4.73574C8.25081 4.76468 8.10001 4.74983 7.96297 4.69306C7.82592 4.6363 7.70879 4.54017 7.62638 4.41683C7.54396 4.29349 7.49998 4.14849 7.49998 4.00015C7.49998 3.80124 7.579 3.61048 7.71965 3.46982C7.8603 3.32917 8.05106 3.25015 8.24998 3.25015ZM7.92478 16.0661C7.727 16.0661 7.53366 16.1247 7.36921 16.2346C7.20476 16.3445 7.07659 16.5006 7.0009 16.6834C6.92521 16.8661 6.90541 17.0672 6.94399 17.2611C6.98258 17.4551 7.07782 17.6333 7.21767 17.7732C7.35752 17.913 7.53571 18.0083 7.72969 18.0468C7.92367 18.0854 8.12473 18.0656 8.30746 17.9899C8.49019 17.9142 8.64637 17.7861 8.75625 17.6216C8.86613 17.4572 8.92478 17.2638 8.92478 17.0661C8.92478 16.9347 8.89891 16.8047 8.84866 16.6834C8.7984 16.562 8.72474 16.4518 8.63188 16.3589C8.53902 16.2661 8.42879 16.1924 8.30746 16.1422C8.18614 16.0919 8.0561 16.0661 7.92478 16.0661ZM20.8657 13.3873H19.0715C18.897 12.3598 18.6641 11.3431 18.374 10.3422C18.2648 9.97027 18.0424 9.6417 17.7377 9.40222C17.433 9.16274 17.0611 9.02429 16.674 9.00615C16.644 9.00215 16.4705 9.00015 16.44 9.00015H7.56178C7.53468 9.00015 7.36248 9.00175 7.33638 9.00495C6.94737 9.02125 6.57324 9.15898 6.26654 9.39882C5.95984 9.63866 5.73597 9.96855 5.62638 10.3422C5.33625 11.3431 5.10337 12.3598 4.92888 13.3873H3.13428V14.2638L4.71678 14.8138C4.58452 15.8604 4.5127 16.9139 4.50168 17.9689C4.50048 18.0331 4.49998 18.4878 4.49998 18.5521V21.9343C4.49998 22.1093 4.56951 22.2772 4.69329 22.4009C4.81706 22.5247 4.98493 22.5943 5.15998 22.5943H5.48998C5.66502 22.5943 5.83289 22.5247 5.95667 22.4009C6.08044 22.2772 6.14998 22.1093 6.14998 21.9343V21.0002H17.85V21.9339C17.85 22.1089 17.9195 22.2768 18.0433 22.4005C18.1671 22.5243 18.3349 22.5939 18.51 22.5939H18.84C19.015 22.5939 19.1829 22.5243 19.3067 22.4005C19.4304 22.2768 19.5 22.1089 19.5 21.9339V18.5513C19.5 18.4881 19.5 18.0346 19.4985 17.9713C19.4874 16.9153 19.4156 15.8608 19.2832 14.8132L20.8657 14.2632V13.3873ZM7.01658 10.7531C7.04026 10.6698 7.08956 10.5961 7.15749 10.5425C7.22541 10.4889 7.30851 10.458 7.39498 10.4543L7.56348 10.4504L16.5806 10.4523C16.6707 10.4527 16.7584 10.4819 16.8308 10.5357C16.9032 10.5894 16.9565 10.6649 16.9829 10.7512C17.2598 11.7061 17.4817 12.6762 17.6475 13.6566H6.35248C6.51827 12.6768 6.74 11.7074 7.01658 10.7531ZM5.94998 19.5502L5.95098 17.9902C5.96168 16.9981 6.02868 16.0074 6.15168 15.023H17.8484C17.9713 16.0038 18.038 16.991 18.0484 17.9795L18.0499 19.5495L5.94998 19.5502ZM16.075 16.0663C15.8772 16.0663 15.6839 16.1249 15.5194 16.2348C15.355 16.3447 15.2268 16.5008 15.1511 16.6836C15.0754 16.8663 15.0556 17.0674 15.0942 17.2613C15.1328 17.4553 15.228 17.6335 15.3679 17.7734C15.5077 17.9132 15.6859 18.0085 15.8799 18.047C16.0739 18.0856 16.2749 18.0658 16.4577 17.9901C16.6404 17.9144 16.7966 17.7863 16.9064 17.6218C17.0163 17.4574 17.075 17.264 17.075 17.0663C17.075 16.9349 17.0492 16.8049 16.9989 16.6836C16.9487 16.5622 16.8751 16.452 16.7822 16.3591C16.6894 16.2662 16.5792 16.1925 16.4578 16.1423C16.3365 16.092 16.2065 16.0661 16.0752 16.0661L16.075 16.0663Z" fill="black"/>
</svg>
