<svg width="24" height="24" viewBox="0 0 24 24" fill="none" xmlns="http://www.w3.org/2000/svg">
<path d="M14.75 4H9.25C9.1837 4 9.12011 4.02634 9.07322 4.07322C9.02634 4.12011 9 4.1837 9 4.25C9 4.3163 9.02634 4.37989 9.07322 4.42678C9.12011 4.47366 9.1837 4.5 9.25 4.5H14.75C14.8163 4.5 14.8799 4.47366 14.9268 4.42678C14.9737 4.37989 15 4.3163 15 4.25C15 4.1837 14.9737 4.12011 14.9268 4.07322C14.8799 4.02634 14.8163 4 14.75 4ZM18 14C17.7033 14 17.4133 14.088 17.1666 14.2528C16.92 14.4176 16.7277 14.6519 16.6142 14.926C16.5007 15.2001 16.4709 15.5017 16.5288 15.7926C16.5867 16.0836 16.7296 16.3509 16.9393 16.5607C17.1491 16.7704 17.4164 16.9133 17.7074 16.9712C17.9983 17.0291 18.2999 16.9993 18.574 16.8858C18.8481 16.7723 19.0824 16.58 19.2472 16.3334C19.412 16.0867 19.5 15.7967 19.5 15.5C19.5 15.1022 19.342 14.7206 19.0607 14.4393C18.7794 14.158 18.3978 14 18 14ZM18 16.5C17.8022 16.5 17.6089 16.4414 17.4444 16.3315C17.28 16.2216 17.1518 16.0654 17.0761 15.8827C17.0004 15.7 16.9806 15.4989 17.0192 15.3049C17.0578 15.1109 17.153 14.9327 17.2929 14.7929C17.4327 14.653 17.6109 14.5578 17.8049 14.5192C17.9989 14.4806 18.2 14.5004 18.3827 14.5761C18.5654 14.6518 18.7216 14.78 18.8315 14.9444C18.9414 15.1089 19 15.3022 19 15.5C18.9997 15.7651 18.8943 16.0193 18.7068 16.2068C18.5193 16.3943 18.2651 16.4997 18 16.5ZM6 14C5.70333 14 5.41332 14.088 5.16664 14.2528C4.91997 14.4176 4.72771 14.6519 4.61418 14.926C4.50065 15.2001 4.47094 15.5017 4.52882 15.7926C4.5867 16.0836 4.72956 16.3509 4.93934 16.5607C5.14912 16.7704 5.41639 16.9133 5.70736 16.9712C5.99834 17.0291 6.29994 16.9993 6.57403 16.8858C6.84811 16.7723 7.08238 16.58 7.2472 16.3334C7.41203 16.0867 7.5 15.7967 7.5 15.5C7.5 15.1022 7.34196 14.7206 7.06066 14.4393C6.77936 14.158 6.39782 14 6 14ZM6 16.5C5.80222 16.5 5.60888 16.4414 5.44443 16.3315C5.27998 16.2216 5.15181 16.0654 5.07612 15.8827C5.00043 15.7 4.98063 15.4989 5.01921 15.3049C5.0578 15.1109 5.15304 14.9327 5.29289 14.7929C5.43275 14.653 5.61093 14.5578 5.80491 14.5192C5.99889 14.4806 6.19996 14.5004 6.38268 14.5761C6.56541 14.6518 6.72159 14.78 6.83147 14.9444C6.94135 15.1089 7 15.3022 7 15.5C6.99971 15.7651 6.89426 16.0193 6.70679 16.2068C6.51931 16.3943 6.26513 16.4997 6 16.5ZM21 12H20.9781C20.9532 9.5932 20.8705 7.1873 20.699 4.7863C20.645 4.02958 20.3062 3.32144 19.751 2.80445C19.1958 2.28746 18.4653 2.00002 17.7067 2H6.2934C5.53474 1.99999 4.80425 2.28743 4.24902 2.80442C3.69378 3.32141 3.35504 4.02957 3.301 4.7863C3.13 7.1873 3.0468 9.5932 3.0219 12H3V12.5H3.0129C3.0115 12.7416 3 12.9829 3 13.2245V21.34C3 21.4267 3.01707 21.5125 3.05024 21.5926C3.08341 21.6726 3.13202 21.7454 3.19331 21.8067C3.2546 21.868 3.32735 21.9166 3.40743 21.9498C3.4875 21.9829 3.57333 22 3.66 22H4.67C4.75667 22 4.8425 21.9829 4.92257 21.9498C5.00265 21.9166 5.0754 21.868 5.13669 21.8067C5.19798 21.7454 5.24659 21.6726 5.27976 21.5926C5.31293 21.5125 5.33 21.4267 5.33 21.34V20H18.67V21.34C18.67 21.515 18.7395 21.6829 18.8633 21.8067C18.9871 21.9305 19.155 22 19.33 22H20.34C20.515 22 20.6829 21.9305 20.8067 21.8067C20.9305 21.6829 21 21.515 21 21.34V13.2245C21 12.9829 20.9885 12.7416 20.9871 12.5H21V12ZM3.8 4.8218C3.84707 4.192 4.12994 3.60313 4.59214 3.17274C5.05433 2.74235 5.66185 2.50212 6.2934 2.5H17.7067C18.3382 2.50215 18.9458 2.74241 19.4079 3.17281C19.8701 3.60322 20.153 4.1921 20.2 4.8219C20.37 7.2006 20.4527 9.6077 20.4778 12H3.5219C3.547 9.6077 3.63 7.2006 3.8 4.8218ZM20.5015 19.75H20.5V21.34C20.5 21.3824 20.4831 21.4231 20.4531 21.4531C20.4231 21.4831 20.3824 21.5 20.34 21.5H19.33C19.2876 21.5 19.2469 21.4831 19.2169 21.4531C19.1869 21.4231 19.17 21.3824 19.17 21.34V19.75H19.1685V19.5H4.8329V19.75H4.83V21.34C4.83 21.3824 4.81314 21.4231 4.78314 21.4531C4.75313 21.4831 4.71243 21.5 4.67 21.5H3.66C3.61757 21.5 3.57687 21.4831 3.54686 21.4531C3.51686 21.4231 3.5 21.3824 3.5 21.34V19.75V18.5416V13.2245C3.5 12.9839 3.5115 12.741 3.5129 12.5H20.4871C20.4885 12.741 20.5 12.9839 20.5 13.2245V18.5416H20.5015V19.75Z" fill="black"/>
</svg>
