<svg width="24" height="24" viewBox="0 0 24 24" fill="none" xmlns="http://www.w3.org/2000/svg">
<path d="M23 11.5575L21.2371 6.80805C21.1054 6.45435 20.8684 6.14954 20.5581 5.93468C20.2478 5.71983 19.879 5.60528 19.5016 5.60645H1V17.9999H3.6531C3.74981 18.5819 4.04994 19.1108 4.50006 19.4923C4.95017 19.8738 5.52106 20.0831 6.1111 20.0831C6.70114 20.0831 7.27203 19.8738 7.72214 19.4923C8.17226 19.1108 8.47239 18.5819 8.5691 17.9999H15.8011C15.9009 18.5791 16.2021 19.1044 16.6516 19.483C17.1011 19.8617 17.67 20.0694 18.2577 20.0694C18.8454 20.0694 19.4143 19.8617 19.8638 19.483C20.3133 19.1044 20.6145 18.5791 20.7143 17.9999H23V11.5575ZM6.1111 18.7832C5.87376 18.7832 5.64175 18.7128 5.44442 18.5809C5.24708 18.4491 5.09327 18.2616 5.00244 18.0424C4.91162 17.8231 4.88786 17.5818 4.93416 17.349C4.98046 17.1163 5.09475 16.9024 5.26257 16.7346C5.43039 16.5668 5.64421 16.4525 5.87699 16.4062C6.10977 16.3599 6.35105 16.3837 6.57032 16.4745C6.78959 16.5653 6.97701 16.7191 7.10886 16.9165C7.24072 17.1138 7.3111 17.3458 7.3111 17.5832C7.31076 17.9013 7.18422 18.2063 6.95925 18.4313C6.73428 18.6563 6.42925 18.7828 6.1111 18.7832ZM18.2577 18.7693C18.0204 18.7693 17.7884 18.6989 17.591 18.567C17.3937 18.4352 17.2399 18.2477 17.149 18.0285C17.0582 17.8092 17.0345 17.5679 17.0808 17.3351C17.1271 17.1024 17.2413 16.8885 17.4092 16.7207C17.577 16.5529 17.7908 16.4386 18.0236 16.3923C18.2564 16.346 18.4977 16.3698 18.7169 16.4606C18.9362 16.5514 19.1236 16.7052 19.2555 16.9026C19.3873 17.0999 19.4577 17.3319 19.4577 17.5693C19.4574 17.8874 19.3308 18.1924 19.1058 18.4174C18.8809 18.6424 18.5759 18.7689 18.2577 18.7693ZM2.47 11.5141V7.07605H19.5068C19.5835 7.07634 19.6583 7.09993 19.7213 7.14371C19.7842 7.18748 19.8324 7.24937 19.8594 7.32115L21.4163 11.5141H2.47Z" fill="black"/>
</svg>
