<svg width="24" height="24" viewBox="0 0 24 24" fill="none" xmlns="http://www.w3.org/2000/svg">
<path d="M22.5034 4.5131L23.7371 3.6087C23.5801 3.19146 23.3539 2.80369 23.0679 2.4617L21.6733 3.0754L20.83 2.5886L20.6635 1.0669C20.2256 0.9777 19.7742 0.9777 19.3363 1.0669L19.17 2.5886L18.3268 3.0754L16.9322 2.4617C16.6462 2.80369 16.42 3.19146 16.263 3.6087L17.4967 4.5131V5.4869L16.263 6.3912C16.4201 6.80845 16.6463 7.19624 16.9322 7.5383L18.3268 6.9245L19.17 7.4114L19.3365 8.9331C19.7744 9.0223 20.2258 9.0223 20.6637 8.9331L20.83 7.4114L21.6732 6.9245L23.0678 7.5383C23.3537 7.19624 23.58 6.80845 23.737 6.3912L22.5033 5.4869L22.5034 4.5131ZM20 6C19.8022 6 19.6089 5.94135 19.4444 5.83147C19.28 5.72159 19.1518 5.56541 19.0761 5.38268C19.0004 5.19996 18.9806 4.99889 19.0192 4.80491C19.0578 4.61093 19.1531 4.43275 19.2929 4.29289C19.4328 4.15304 19.6109 4.0578 19.8049 4.01921C19.9989 3.98063 20.2 4.00043 20.3827 4.07612C20.5654 4.15181 20.7216 4.27998 20.8315 4.44443C20.9414 4.60888 21 4.80222 21 5C21 5.26522 20.8947 5.51957 20.7071 5.70711C20.5196 5.89464 20.2652 6 20 6ZM16.6458 10.5259C16.5396 10.0907 16.2904 9.70369 15.938 9.42701C15.5857 9.15032 15.1506 8.99995 14.7026 9H6.53171C6.08373 8.99998 5.6487 9.15036 5.29637 9.42704C4.94404 9.70372 4.69481 10.0907 4.58861 10.5259C4.31318 11.672 4.09733 12.8316 3.94191 14H1.89331V15.4028L3.61571 16.0009V20.7183H3.61721V21.9337C3.61721 22.1087 3.68675 22.2766 3.81052 22.4004C3.93429 22.5242 4.10217 22.5937 4.27721 22.5937H4.84071C5.01575 22.5937 5.18363 22.5242 5.3074 22.4004C5.43118 22.2766 5.50071 22.1087 5.50071 21.9337V21H15.7456V21.9337C15.7456 22.1087 15.8151 22.2766 15.9389 22.4004C16.0627 22.5242 16.2306 22.5937 16.4056 22.5937H16.9574C17.1325 22.5937 17.3003 22.5242 17.4241 22.4004C17.5479 22.2766 17.6174 22.1087 17.6174 21.9337V20.7183H17.6189V16.0009L19.3415 15.4028V14H17.2925C17.1371 12.8316 16.9212 11.672 16.6458 10.5259ZM6.18001 18.1605C5.97796 18.1605 5.78046 18.1005 5.61247 17.9883C5.44448 17.876 5.31355 17.7165 5.23625 17.5298C5.15894 17.3431 5.13872 17.1377 5.17815 16.9395C5.21758 16.7414 5.31489 16.5593 5.45777 16.4165C5.60064 16.2736 5.78267 16.1763 5.98084 16.1369C6.17901 16.0975 6.38442 16.1177 6.57108 16.1951C6.75775 16.2724 6.9173 16.4033 7.02955 16.5713C7.1418 16.7393 7.20171 16.9369 7.20171 17.1389C7.20172 17.2731 7.1753 17.4059 7.12396 17.5299C7.07262 17.6538 6.99736 17.7665 6.90248 17.8613C6.80761 17.9562 6.69497 18.0315 6.57101 18.0828C6.44704 18.1341 6.31418 18.1605 6.18001 18.1605ZM15.0536 18.1605C14.8516 18.1605 14.6541 18.1005 14.4861 17.9883C14.3181 17.876 14.1872 17.7165 14.1098 17.5298C14.0325 17.3431 14.0123 17.1377 14.0518 16.9395C14.0912 16.7414 14.1885 16.5593 14.3314 16.4165C14.4742 16.2736 14.6563 16.1763 14.8544 16.1369C15.0526 16.0975 15.258 16.1177 15.4447 16.1951C15.6314 16.2724 15.7909 16.4033 15.9031 16.5713C16.0154 16.7393 16.0753 16.9369 16.0753 17.1389C16.0753 17.4098 15.9678 17.6696 15.7762 17.8612C15.5847 18.0528 15.3249 18.1604 15.054 18.1605H15.0536ZM4.44751 14C4.59931 12.8716 4.80858 11.7516 5.07451 10.6445C5.13944 10.402 5.26525 10.1802 5.44001 10H15.795C15.9696 10.1803 16.0953 10.4021 16.1602 10.6445C16.426 11.7516 16.6352 12.8716 16.7869 14H4.44751Z" fill="black"/>
</svg>
