<svg width="24" height="24" viewBox="0 0 24 24" fill="none" xmlns="http://www.w3.org/2000/svg">
<path d="M14.3 3.09981C14.5274 3.09981 14.7498 3.03236 14.9389 2.906C15.128 2.77963 15.2754 2.60003 15.3625 2.38989C15.4495 2.17976 15.4723 1.94853 15.4279 1.72545C15.3835 1.50237 15.274 1.29746 15.1132 1.13663C14.9523 0.975802 14.7474 0.866275 14.5243 0.821902C14.3013 0.777529 14.07 0.800303 13.8599 0.887344C13.6498 0.974385 13.4702 1.12178 13.3438 1.3109C13.2174 1.50002 13.15 1.72236 13.15 1.94981C13.15 2.2548 13.2712 2.54731 13.4868 2.76298C13.7025 2.97864 13.995 3.09981 14.3 3.09981ZM16.25 4.94681C15.9939 4.69073 15.6899 4.48759 15.3553 4.349C15.0207 4.21041 14.6621 4.13908 14.3 4.13908C13.9378 4.13908 13.5792 4.21041 13.2447 4.349C12.9101 4.48759 12.6061 4.69073 12.35 4.94681V6.9998H16.25V4.94681ZM19.7 3.09981C19.9274 3.09981 20.1498 3.03236 20.3389 2.906C20.528 2.77963 20.6754 2.60003 20.7625 2.38989C20.8495 2.17976 20.8723 1.94853 20.8279 1.72545C20.7835 1.50237 20.674 1.29746 20.5132 1.13663C20.3523 0.975802 20.1474 0.866275 19.9243 0.821902C19.7013 0.777529 19.47 0.800303 19.2599 0.887344C19.0498 0.974385 18.8702 1.12178 18.7438 1.3109C18.6174 1.50002 18.55 1.72236 18.55 1.94981C18.55 2.2548 18.6712 2.54731 18.8868 2.76298C19.1025 2.97864 19.395 3.09981 19.7 3.09981ZM17.75 4.94681V6.9998H21.65V4.94681C21.3939 4.69073 21.0899 4.48759 20.7553 4.349C20.4207 4.21041 20.0621 4.13908 19.7 4.13908C19.3378 4.13908 18.9792 4.21041 18.6447 4.349C18.3101 4.48759 18.0061 4.69073 17.75 4.94681ZM16.8247 10.3418C16.718 9.97948 16.5033 9.65834 16.2092 9.42135C15.9151 9.18436 15.5557 9.0428 15.179 9.01561C15.1323 9.00521 14.8013 8.99981 14.7517 8.99981C14.7517 8.99981 6.11039 9.0043 6.06739 9.01301C5.68839 9.03839 5.32629 9.1794 5.02992 9.41701C4.73356 9.65461 4.51719 9.97739 4.40999 10.3418C4.05707 11.5413 3.78644 12.7635 3.59999 13.9998H1.47459V15.4026L3.36329 16.0585C3.31569 16.6934 3.28979 17.33 3.28559 17.9685C3.28439 18.0327 3.28389 21.9339 3.28389 21.9339C3.28389 22.0206 3.30097 22.1064 3.33413 22.1865C3.3673 22.2666 3.41592 22.3393 3.4772 22.4006C3.53849 22.4619 3.61125 22.5105 3.69132 22.5437C3.7714 22.5768 3.85722 22.5939 3.94389 22.5939H4.58499C4.76004 22.5939 4.92791 22.5244 5.05168 22.4006C5.17546 22.2768 5.24499 22.1089 5.24499 21.9339V20.9998H15.9932V21.9335C15.9932 22.1085 16.0627 22.2764 16.1865 22.4002C16.3103 22.524 16.4782 22.5935 16.6532 22.5935H17.2904C17.4654 22.5935 17.6333 22.524 17.7571 22.4002C17.8809 22.2764 17.9504 22.1085 17.9504 21.9335C17.9504 21.9335 17.9497 18.0342 17.9487 17.9711C17.9453 17.3322 17.9193 16.6947 17.8708 16.0584L19.7595 15.4026V13.9998H17.6345C17.4481 12.7635 17.1775 11.5413 16.8247 10.3418ZM5.79999 10.7527C5.82315 10.673 5.87012 10.6023 5.93462 10.5501C5.99912 10.4979 6.07804 10.4667 6.16079 10.4607L15.0754 10.4617C15.1576 10.4682 15.2359 10.4995 15.2999 10.5515C15.3639 10.6034 15.4106 10.6736 15.4338 10.7527C15.7452 11.8185 15.9882 12.903 16.1611 13.9998H5.07349C5.24599 12.903 5.48866 11.8184 5.79999 10.7527ZM6.00309 18.1603C5.80104 18.1603 5.60351 18.1004 5.4355 17.9882C5.26748 17.8759 5.13653 17.7164 5.05919 17.5297C4.98185 17.3431 4.9616 17.1376 5.00101 16.9395C5.04042 16.7413 5.13771 16.5592 5.28058 16.4164C5.42345 16.2735 5.60548 16.1762 5.80365 16.1367C6.00183 16.0973 6.20724 16.1175 6.39392 16.1949C6.5806 16.2722 6.74016 16.4031 6.85242 16.5711C6.96468 16.7391 7.02459 16.9366 7.02459 17.1387C7.02462 17.4096 6.91705 17.6694 6.72555 17.861C6.53404 18.0526 6.27428 18.1602 6.00339 18.1603H6.00309ZM15.2307 18.1603C15.0286 18.1603 14.8311 18.1004 14.6632 17.9881C14.4952 17.8758 14.3642 17.7163 14.2869 17.5296C14.2096 17.3429 14.1894 17.1375 14.2288 16.9393C14.2683 16.7412 14.3656 16.5592 14.5084 16.4163C14.6513 16.2734 14.8334 16.1761 15.0315 16.1367C15.2297 16.0973 15.4351 16.1176 15.6218 16.1949C15.8084 16.2722 15.968 16.4031 16.0802 16.5711C16.1925 16.7391 16.2524 16.9367 16.2524 17.1387C16.2524 17.4096 16.1448 17.6694 15.9532 17.861C15.7617 18.0526 15.5019 18.1602 15.231 18.1603H15.2307Z" fill="black"/>
</svg>
