<svg width="24" height="24" viewBox="0 0 24 24" fill="none" xmlns="http://www.w3.org/2000/svg">
<path d="M18.9178 5.5068C18.8011 4.80631 18.4396 4.16995 17.8977 3.71093C17.3559 3.25191 16.6687 3 15.9586 3H12.25V1.5358L16 1.2679V1H8V1.2679L11.75 1.5358V3H8.0414C7.33125 3 6.64412 3.25191 6.10226 3.71093C5.5604 4.16995 5.19895 4.80631 5.0822 5.5068C4.69476 7.83163 4.50003 10.1845 4.5 12.5414V17.5C4.5 18.163 4.76339 18.7989 5.23223 19.2678C5.70107 19.7366 6.33696 20 7 20H8.99L7.2576 23H7.8908L9.623 20H14.377L16.1092 23H16.7424L15.01 20H17C17.663 20 18.2989 19.7366 18.7678 19.2678C19.2366 18.7989 19.5 18.163 19.5 17.5V12.5414C19.5 10.1845 19.3053 7.83163 18.9178 5.5068ZM5.5754 5.589C5.67121 5.00458 5.972 4.47338 6.42388 4.09059C6.87576 3.70779 7.44918 3.49842 8.0414 3.5H15.9586C16.5508 3.4984 17.1243 3.70776 17.5761 4.09056C18.028 4.47336 18.3288 5.00457 18.4246 5.589C18.7748 7.70863 18.9634 9.8518 18.9888 12H5.0112C5.03663 9.8518 5.22524 7.70863 5.5754 5.589ZM19 17.5C18.9994 18.0302 18.7885 18.5386 18.4135 18.9135C18.0386 19.2885 17.5302 19.4994 17 19.5H7C6.46975 19.4994 5.9614 19.2885 5.58646 18.9135C5.21152 18.5386 5.00061 18.0302 5 17.5V12.5414L5.0009 12.5H18.9991L19 12.5414V17.5ZM7.5212 13.9861C7.22453 13.9861 6.93452 14.0741 6.68784 14.2389C6.44117 14.4037 6.24891 14.638 6.13538 14.9121C6.02185 15.1862 5.99214 15.4878 6.05002 15.7787C6.1079 16.0697 6.25076 16.337 6.46054 16.5468C6.67032 16.7565 6.93759 16.8994 7.22856 16.9573C7.51954 17.0152 7.82114 16.9855 8.09523 16.8719C8.36931 16.7584 8.60358 16.5661 8.7684 16.3195C8.93323 16.0728 9.0212 15.7828 9.0212 15.4861C9.0212 15.0883 8.86316 14.7067 8.58186 14.4254C8.30056 14.1441 7.91902 13.9861 7.5212 13.9861ZM7.5212 16.4861C7.32342 16.4861 7.13008 16.4275 6.96563 16.3176C6.80118 16.2077 6.67301 16.0515 6.59732 15.8688C6.52163 15.6861 6.50183 15.485 6.54041 15.291C6.579 15.097 6.67424 14.9188 6.81409 14.779C6.95395 14.6391 7.13213 14.5439 7.32611 14.5053C7.52009 14.4667 7.72116 14.4865 7.90388 14.5622C8.08661 14.6379 8.24279 14.7661 8.35267 14.9305C8.46255 15.095 8.5212 15.2883 8.5212 15.4861C8.52091 15.7512 8.41546 16.0054 8.22799 16.1929C8.04051 16.3804 7.78633 16.4858 7.5212 16.4861ZM16.4788 13.9861C16.1821 13.9861 15.8921 14.0741 15.6454 14.2389C15.3988 14.4037 15.2065 14.638 15.093 14.9121C14.9794 15.1862 14.9497 15.4878 15.0076 15.7787C15.0655 16.0697 15.2084 16.337 15.4181 16.5468C15.6279 16.7565 15.8952 16.8994 16.1862 16.9573C16.4771 17.0152 16.7787 16.9855 17.0528 16.8719C17.3269 16.7584 17.5612 16.5661 17.726 16.3195C17.8908 16.0728 17.9788 15.7828 17.9788 15.4861C17.9788 15.0883 17.8208 14.7067 17.5395 14.4254C17.2582 14.1441 16.8766 13.9861 16.4788 13.9861ZM16.4788 16.4861C16.281 16.4861 16.0877 16.4275 15.9232 16.3176C15.7588 16.2077 15.6306 16.0515 15.5549 15.8688C15.4792 15.6861 15.4594 15.485 15.498 15.291C15.5366 15.097 15.6318 14.9188 15.7717 14.779C15.9115 14.6391 16.0897 14.5439 16.2837 14.5053C16.4777 14.4667 16.6788 14.4865 16.8615 14.5622C17.0442 14.6379 17.2004 14.7661 17.3103 14.9305C17.4202 15.095 17.4788 15.2883 17.4788 15.4861C17.4785 15.7512 17.3731 16.0054 17.1856 16.1929C16.9981 16.3804 16.7439 16.4858 16.4788 16.4861Z" fill="black"/>
</svg>
