<svg width="24" height="24" viewBox="0 0 24 24" fill="none" xmlns="http://www.w3.org/2000/svg">
<g clip-path="url(#clip0)">
<path d="M20.5822 14.9713C20.6176 14.8622 20.6653 14.7597 20.6957 14.6481L21.9657 9.9881H17V7C17 6.8249 16.9655 6.65151 16.8985 6.48973C16.8315 6.32796 16.7333 6.18097 16.6095 6.05715C16.4857 5.93333 16.3387 5.83511 16.177 5.7681C16.0152 5.70109 15.8418 5.6666 15.6667 5.6666H13.5V3.6543H12.5V5.6666H7L5.871 9.9878H2.4861L2.7727 14.7213C2.20154 14.5275 1.60312 14.4261 1 14.4209V15.3877C1.8842 15.3982 2.74999 15.6418 3.51 16.0938C4.41549 16.6313 5.44703 16.9198 6.5 16.93C7.5528 16.9198 8.58424 16.6318 9.49 16.095C10.2462 15.6344 11.1145 15.3907 11.9999 15.3905C12.8853 15.3904 13.7537 15.6338 14.51 16.0941C15.4115 16.6407 16.4456 16.9297 17.4999 16.9299C18.5541 16.93 19.5883 16.6413 20.49 16.095C21.2498 15.6423 22.1157 15.3984 23 15.388V14.4212C22.1639 14.4283 21.3391 14.616 20.5822 14.9713ZM16.0333 9.9878H6.8755L7.6006 7.1664H16.0333V9.9878ZM14.99 18.59C14.0875 18.046 13.0538 17.7585 12.0001 17.7584C10.9464 17.7582 9.91262 18.0454 9.01 18.5891C8.25022 19.0417 7.38434 19.2856 6.5 19.2961C5.6158 19.2856 4.75001 19.042 3.99 18.59C3.0845 18.0525 2.05296 17.7641 1 17.7539V18.7207C1.88444 18.7314 2.75035 18.9756 3.51 19.4287C4.41593 19.9649 5.44732 20.2526 6.5 20.2627C7.55283 20.2527 8.58433 19.9647 9.49 19.4277C10.2464 18.9674 11.1147 18.7241 12.0001 18.7242C12.8855 18.7244 13.7538 18.9681 14.51 19.4287C15.4119 19.9744 16.446 20.2628 17.5001 20.2626C18.5543 20.2624 19.5883 19.9737 20.49 19.4277C21.2499 18.9754 22.1157 18.7315 23 18.7207V17.7539C21.9472 17.7641 20.9158 18.0521 20.01 18.5889C19.2538 19.0495 18.3856 19.2932 17.5002 19.2934C16.6148 19.2936 15.7464 19.0503 14.99 18.59Z" fill="black"/>
</g>
<defs>
<clipPath id="clip0">
<rect width="24" height="24" fill="white"/>
</clipPath>
</defs>
</svg>
