<svg width="24" height="24" viewBox="0 0 24 24" fill="none" xmlns="http://www.w3.org/2000/svg">
<path d="M17.9836 12.5999C17.3592 12.0373 16.86 11.3497 16.5182 10.5818C16.1765 9.81393 16 8.9828 16 8.1423V6.4999C16 4.798 14.5938 0.266602 12 0.266602C9.4062 0.266602 8 4.798 8 6.4999V8.1423C8.00003 8.9828 7.82346 9.81393 7.48175 10.5818C7.14004 11.3497 6.64081 12.0373 6.0164 12.5999L2 16.2187V20.3124L8 20.9999V21.9999H11.0745L10.9883 22.9999H13.0117L12.9255 21.9999H16V20.9999L22 20.3124V16.2187L17.9836 12.5999ZM8 19.2385L3.75 18.7515V16.9975L7.1877 13.8999C7.50369 13.5979 7.77698 13.2541 8 12.8782V19.2385ZM14.2 20.1999H12.77L12.4941 16.9999H11.5059L11.23 20.1999H9.8V6.4999C9.8 4.5499 11.2913 2.0666 12 2.0666C12.7087 2.0666 14.2 4.5499 14.2 6.4999V20.1999ZM20.25 18.7515L16 19.2385V12.8785C16.223 13.2543 16.4963 13.598 16.8123 13.8999L20.25 16.9975V18.7515ZM11.5532 4.9192C11.3414 4.98675 11.1498 5.10609 10.9958 5.2664C10.8249 5.45605 10.6792 5.66703 10.5625 5.8941V6.9329C10.9717 6.60907 11.4782 6.43287 12 6.43287C12.5218 6.43287 13.0283 6.60907 13.4375 6.9329V5.894C13.3208 5.66698 13.1751 5.45603 13.0042 5.2664C12.8502 5.10609 12.6586 4.98675 12.4468 4.9192C12.1575 4.8183 11.8425 4.8183 11.5532 4.9192Z" fill="black"/>
</svg>
