<svg width="24" height="24" viewBox="0 0 24 24" fill="none" xmlns="http://www.w3.org/2000/svg">
<g clip-path="url(#clip0)">
<path d="M23.9966 16.9998V12.4581C23.9978 12.0956 23.8947 11.7403 23.6997 11.4346C23.5047 11.129 23.2259 10.8858 22.8966 10.7341C21.49 10.0875 19.9887 9.67072 18.45 9.49984L15.8481 6.77874C15.4904 6.40304 15.06 6.10393 14.5832 5.89956C14.1064 5.69519 13.593 5.58982 13.0742 5.58984H2.3718L0.408 9.01324C0.140801 9.46855 -4.53694e-05 9.98692 1.09626e-08 10.5148V16.1998L4.222 16.9998H4.2265C4.39774 17.5097 4.72479 17.9529 5.16148 18.2669C5.59817 18.5809 6.12244 18.7498 6.6603 18.7498C7.19816 18.7498 7.72243 18.5809 8.15912 18.2669C8.59581 17.9529 8.92286 17.5097 9.0941 16.9998H16.5394C16.7106 17.5097 17.0377 17.9529 17.4744 18.2669C17.9111 18.5809 18.4353 18.7498 18.9732 18.7498C19.5111 18.7498 20.0353 18.5809 20.472 18.2669C20.9087 17.9529 21.2358 17.5097 21.407 16.9998H23.9966ZM3.2119 7.03984H13.0742C13.3963 7.04048 13.7149 7.10621 14.0109 7.23308C14.307 7.35996 14.5743 7.54535 14.7969 7.77814L16.4431 9.49984H1.8008L3.2119 7.03984ZM1.45 10.9328H18.21C19.6209 11.0914 20.9985 11.4693 22.2928 12.0528C22.3694 12.089 22.4341 12.1465 22.4791 12.2183C22.5241 12.2901 22.5476 12.3734 22.5467 12.4581V15.5498H21.4742C21.3381 14.9891 21.0176 14.4904 20.564 14.1338C20.1104 13.7771 19.5502 13.5832 18.9732 13.5832C18.3962 13.5832 17.836 13.7771 17.3824 14.1338C16.9288 14.4904 16.6083 14.9891 16.4722 15.5498H9.1613C9.02618 14.9923 8.70853 14.4959 8.25888 14.1396C7.80922 13.7833 7.25335 13.5875 6.67966 13.5835C6.10597 13.5794 5.54737 13.7672 5.09269 14.1171C4.63801 14.4669 4.31334 14.9588 4.1703 15.5143L1.45 14.9988V10.9328ZM6.66 17.4164C6.41277 17.4164 6.1711 17.3431 5.96554 17.2058C5.75998 17.0684 5.59976 16.8732 5.50515 16.6448C5.41054 16.4164 5.38579 16.1651 5.43402 15.9226C5.48225 15.6801 5.6013 15.4574 5.77612 15.2826C5.95093 15.1077 6.17366 14.9887 6.41614 14.9405C6.65861 14.8922 6.90995 14.917 7.13835 15.0116C7.36676 15.1062 7.56199 15.2664 7.69934 15.472C7.83669 15.6775 7.91 15.9192 7.91 16.1664C7.90963 16.4978 7.77781 16.8156 7.54347 17.0499C7.30913 17.2843 6.99141 17.4161 6.66 17.4164ZM18.973 17.4164C18.7258 17.4164 18.4841 17.3431 18.2785 17.2058C18.073 17.0684 17.9128 16.8732 17.8182 16.6448C17.7235 16.4164 17.6988 16.1651 17.747 15.9226C17.7952 15.6801 17.9143 15.4574 18.0891 15.2826C18.2639 15.1077 18.4867 14.9887 18.7291 14.9405C18.9716 14.8922 19.2229 14.917 19.4514 15.0116C19.6798 15.1062 19.875 15.2664 20.0123 15.472C20.1497 15.6775 20.223 15.9192 20.223 16.1664C20.2226 16.4978 20.0909 16.8155 19.8566 17.0498C19.6223 17.2841 19.3047 17.416 18.9733 17.4164H18.973Z" fill="black"/>
</g>
<defs>
<clipPath id="clip0">
<rect width="24" height="24" fill="white"/>
</clipPath>
</defs>
</svg>
