<svg width="24" height="24" viewBox="0 0 24 24" fill="none" xmlns="http://www.w3.org/2000/svg">
<path d="M23.832 8.88692C23.7664 8.77316 23.6789 8.67344 23.5748 8.59346C23.4706 8.51349 23.3516 8.45482 23.2248 8.42082C23.0979 8.38681 22.9656 8.37813 22.8354 8.39527C22.7051 8.41242 22.5796 8.45504 22.4658 8.52073L20.4707 9.67212C20.0985 9.88725 19.6761 10.0004 19.2461 10.0002H4.75391C4.32352 10.0004 3.90071 9.88689 3.52831 9.67113L1.53421 8.52112C1.30448 8.38852 1.03148 8.3526 0.775269 8.42128C0.519057 8.48995 0.30062 8.65759 0.168011 8.88733C0.0354031 9.11706 -0.00051374 9.39006 0.0681621 9.64627C0.136838 9.90248 0.304481 10.1209 0.534211 10.2535L2.52731 11.4029C3.20413 11.7942 3.97212 12.0002 4.75391 12.0002H19.2461C20.0275 12.0001 20.7951 11.7943 21.4717 11.4035L23.4658 10.2535C23.5796 10.1879 23.6794 10.1004 23.7594 9.99622C23.8394 9.892 23.8981 9.77303 23.9321 9.64611C23.9661 9.5192 23.9748 9.38682 23.9576 9.25656C23.9404 9.12629 23.8978 9.00069 23.832 8.88692ZM6.00001 14.0002C5.70334 14.0002 5.41333 14.0882 5.16666 14.253C4.91998 14.4178 4.72772 14.6521 4.61419 14.9262C4.50066 15.2003 4.47096 15.5019 4.52883 15.7929C4.58671 16.0838 4.72957 16.3511 4.93935 16.5609C5.14913 16.7707 5.4164 16.9135 5.70738 16.9714C5.99835 17.0293 6.29995 16.9996 6.57404 16.886C6.84813 16.7725 7.08239 16.5803 7.24722 16.3336C7.41204 16.0869 7.50001 15.7969 7.50001 15.5002C7.50001 15.1024 7.34198 14.7209 7.06067 14.4396C6.77937 14.1583 6.39784 14.0002 6.00001 14.0002ZM18 14.0002C17.7033 14.0002 17.4133 14.0882 17.1667 14.253C16.92 14.4178 16.7277 14.6521 16.6142 14.9262C16.5007 15.2003 16.471 15.5019 16.5288 15.7929C16.5867 16.0838 16.7296 16.3511 16.9394 16.5609C17.1491 16.7707 17.4164 16.9135 17.7074 16.9714C17.9983 17.0293 18.2999 16.9996 18.574 16.886C18.8481 16.7725 19.0824 16.5803 19.2472 16.3336C19.412 16.0869 19.5 15.7969 19.5 15.5002C19.5 15.1024 19.342 14.7209 19.0607 14.4396C18.7794 14.1583 18.3978 14.0002 18 14.0002Z" fill="black"/>
</svg>
