<svg width="24" height="24" viewBox="0 0 24 24" fill="none" xmlns="http://www.w3.org/2000/svg">
<path d="M20.9992 13.5353C20.9919 10.831 20.8998 8.12897 20.7227 5.4291C20.6732 4.65211 20.3736 3.91199 19.8686 3.31936C19.3637 2.72672 18.6806 2.31338 17.9213 2.1411C17.5098 2.04736 17.0891 2.00003 16.6671 2H15.5584L16.7132 0H14.977L13.8222 2H10.5584L11.7132 0H9.977L8.8222 2H7.335C6.91591 2.00001 6.49809 2.04616 6.0891 2.1376C5.3275 2.30835 4.6418 2.72143 4.13485 3.31489C3.6279 3.90835 3.32704 4.65018 3.2774 5.4291C3.10093 8.1195 3.00877 10.8135 3.0009 13.511C3 13.6451 3 13.98 3 14.1143V21.34C3 21.4267 3.01707 21.5125 3.05024 21.5926C3.08341 21.6726 3.13202 21.7454 3.19331 21.8067C3.2546 21.868 3.32735 21.9166 3.40743 21.9498C3.4875 21.9829 3.57333 22 3.66 22H4.34C4.42667 22 4.5125 21.9829 4.59257 21.9498C4.67265 21.9166 4.7454 21.868 4.80669 21.8067C4.86798 21.7454 4.91659 21.6726 4.94976 21.5926C4.98293 21.5125 5 21.4267 5 21.34V20H19V21.34C19 21.515 19.0695 21.6829 19.1933 21.8067C19.3171 21.9305 19.485 22 19.66 22H20.34C20.515 22 20.6829 21.9305 20.8067 21.8067C20.9305 21.6829 21 21.515 21 21.34V14.1143C21 13.9882 21 13.6613 20.9992 13.5353ZM6.3542 16.3264C6.10697 16.3264 5.8653 16.2531 5.65974 16.1157C5.45418 15.9784 5.29396 15.7832 5.19935 15.5548C5.10474 15.3263 5.07999 15.075 5.12822 14.8325C5.17645 14.5901 5.2955 14.3673 5.47032 14.1925C5.64513 14.0177 5.86786 13.8986 6.11034 13.8504C6.35281 13.8022 6.60415 13.8269 6.83255 13.9216C7.06096 14.0162 7.25619 14.1764 7.39354 14.3819C7.53089 14.5875 7.6042 14.8292 7.6042 15.0764C7.6042 15.4079 7.4725 15.7259 7.23808 15.9603C7.00366 16.1947 6.68572 16.3264 6.3542 16.3264ZM17.6458 16.3264C17.3986 16.3264 17.1569 16.2531 16.9513 16.1157C16.7458 15.9784 16.5856 15.7832 16.4909 15.5548C16.3963 15.3263 16.3716 15.075 16.4198 14.8325C16.4681 14.5901 16.5871 14.3673 16.7619 14.1925C16.9367 14.0177 17.1595 13.8986 17.4019 13.8504C17.6444 13.8022 17.8957 13.8269 18.1242 13.9216C18.3526 14.0162 18.5478 14.1764 18.6851 14.3819C18.8225 14.5875 18.8958 14.8292 18.8958 15.0764C18.8958 15.4079 18.7641 15.7259 18.5297 15.9603C18.2953 16.1947 17.9773 16.3264 17.6458 16.3264ZM4.5424 11.3333C4.5815 9.3933 4.6483 7.4499 4.7744 5.5241C4.81178 4.97578 5.05564 4.46203 5.45684 4.0864C5.85803 3.71078 6.38671 3.50123 6.9363 3.5H17.0637C17.6133 3.50123 18.142 3.71078 18.5432 4.0864C18.9444 4.46203 19.1882 4.97578 19.2256 5.5241C19.3517 7.4498 19.4185 9.3931 19.4576 11.3333H4.5424Z" fill="black"/>
</svg>
