<svg width="24" height="24" viewBox="0 0 24 24" fill="none" xmlns="http://www.w3.org/2000/svg">
<path d="M24 11L22.6654 7.3184C22.5254 6.93213 22.2698 6.59835 21.9334 6.36246C21.597 6.12657 21.1961 6.00001 20.7852 6H15.6667V11.7083H0V18H1.8661C2.04625 18.4643 2.34945 18.8707 2.74315 19.1757C3.13685 19.4807 3.60618 19.6727 4.10075 19.7311C4.59533 19.7895 5.09647 19.7121 5.55037 19.5071C6.00426 19.3022 6.39378 18.9776 6.6771 18.568C6.9604 18.9776 7.34991 19.3022 7.80381 19.5072C8.2577 19.7121 8.75883 19.7895 9.2534 19.7311C9.74797 19.6727 10.2173 19.4807 10.611 19.1757C11.0047 18.8707 11.3079 18.4643 11.488 18H16.6943C16.8942 18.5154 17.2452 18.9582 17.7013 19.2705C18.1574 19.5828 18.6972 19.75 19.25 19.75C19.8028 19.75 20.3426 19.5828 20.7987 19.2705C21.2548 18.9582 21.6058 18.5154 21.8057 18H24V11ZM20.7852 7.8C20.8263 7.8001 20.8663 7.81279 20.8999 7.83636C20.9335 7.85993 20.9591 7.89324 20.9732 7.9318L21.7592 10.1H17.4667V7.8H20.7852ZM4.4219 18.05C4.21423 18.05 4.01122 17.9884 3.83855 17.873C3.66588 17.7577 3.5313 17.5937 3.45183 17.4018C3.37235 17.21 3.35156 16.9988 3.39208 16.7952C3.43259 16.5915 3.53259 16.4044 3.67944 16.2575C3.82628 16.1107 4.01338 16.0107 4.21706 15.9702C4.42074 15.9297 4.63186 15.9505 4.82372 16.0299C5.01558 16.1094 5.17957 16.244 5.29494 16.4167C5.41032 16.5893 5.4719 16.7923 5.4719 17C5.47158 17.2784 5.36086 17.5453 5.16401 17.7421C4.96717 17.939 4.70028 18.0497 4.4219 18.05ZM8.9319 18.05C8.72425 18.0499 8.52128 17.9883 8.34866 17.8728C8.17604 17.7574 8.04152 17.5934 7.96211 17.4015C7.8827 17.2097 7.86196 16.9986 7.90252 16.7949C7.94308 16.5913 8.04312 16.4042 8.18998 16.2574C8.33684 16.1106 8.52393 16.0106 8.7276 15.9701C8.93127 15.9297 9.14237 15.9505 9.33421 16.03C9.52605 16.1094 9.69001 16.244 9.80537 16.4167C9.92073 16.5894 9.9823 16.7923 9.9823 17C9.98198 17.2784 9.87126 17.5453 9.67441 17.7421C9.47757 17.939 9.21068 18.0497 8.9323 18.05H8.9319ZM19.2496 18.05C19.0419 18.0499 18.839 17.9883 18.6664 17.8728C18.4937 17.7574 18.3592 17.5934 18.2798 17.4015C18.2004 17.2097 18.1797 16.9986 18.2202 16.7949C18.2608 16.5913 18.3608 16.4042 18.5077 16.2574C18.6545 16.1106 18.8416 16.0106 19.0453 15.9701C19.249 15.9297 19.4601 15.9505 19.6519 16.03C19.8438 16.1094 20.0077 16.244 20.1231 16.4167C20.2384 16.5894 20.3 16.7923 20.3 17C20.2997 17.2784 20.189 17.5453 19.9921 17.7421C19.7953 17.939 19.5284 18.0497 19.25 18.05H19.2496ZM21.8675 16.2C21.6991 15.6365 21.3534 15.1424 20.8818 14.7911C20.4101 14.4398 19.8377 14.25 19.2496 14.25C18.6615 14.25 18.0891 14.4398 17.6174 14.7911C17.1458 15.1424 16.8001 15.6365 16.6317 16.2H11.55C11.4018 15.7062 11.1172 15.2643 10.7288 14.9252C10.3405 14.5862 9.86425 14.3637 9.35499 14.2834C8.84573 14.2031 8.32415 14.2684 7.85034 14.4716C7.37654 14.6748 6.96977 15.0077 6.6769 15.432C6.38401 15.0078 5.97726 14.6749 5.50347 14.4717C5.02969 14.2686 4.50816 14.2034 3.99894 14.2836C3.48971 14.3639 3.01352 14.5863 2.62519 14.9254C2.23687 15.2644 1.95221 15.7063 1.804 16.2H1.8V13.5083H17.4667V11.9H22.2V16.2H21.8675Z" fill="black"/>
</svg>
