<svg width="24" height="24" viewBox="0 0 24 24" fill="none" xmlns="http://www.w3.org/2000/svg">
<path d="M20.9333 14.0001H18.8483C18.6766 12.7979 18.4328 11.607 18.1183 10.4341C18.021 10.0718 17.8198 9.74603 17.5395 9.49682C17.2592 9.24762 16.912 9.08591 16.5409 9.03166C16.3982 9.01063 16.2542 9.00007 16.11 9.00006H7.87921C7.74683 9.00006 7.6146 9.00895 7.48341 9.02666C7.10744 9.07717 6.7548 9.23774 6.46986 9.48816C6.18491 9.73859 5.98039 10.0677 5.88201 10.4341C5.56743 11.607 5.32356 12.7978 5.15171 14.0001H3.06671V15.4029L4.92241 16.0472C4.87334 16.6961 4.84474 17.3465 4.83661 17.9985C4.83441 18.1269 4.83341 18.4506 4.83341 18.579V21.9338C4.83341 22.1088 4.90295 22.2767 5.02672 22.4004C5.1505 22.5242 5.31837 22.5938 5.49341 22.5938H6.09581C6.27085 22.5938 6.43873 22.5242 6.5625 22.4004C6.68628 22.2767 6.75581 22.1088 6.75581 21.9338V21.0001H17.2523V21.9338C17.2523 22.0204 17.2694 22.1063 17.3026 22.1863C17.3357 22.2664 17.3843 22.3392 17.4456 22.4004C17.5069 22.4617 17.5797 22.5103 17.6597 22.5435C17.7398 22.5767 17.8256 22.5938 17.9123 22.5938H18.5068C18.6819 22.5938 18.8497 22.5242 18.9735 22.4004C19.0973 22.2767 19.1668 22.1088 19.1668 21.9338V18.5788C19.1668 18.4524 19.1657 18.1308 19.1636 18.0044C19.1564 17.351 19.1277 16.6987 19.0775 16.0473L20.9334 15.4029L20.9333 14.0001ZM7.47471 18.1601C7.27266 18.1601 7.07514 18.1001 6.90714 17.9879C6.73914 17.8756 6.6082 17.7161 6.53088 17.5294C6.45355 17.3427 6.43332 17.1373 6.47274 16.9392C6.51216 16.741 6.60946 16.559 6.75233 16.4161C6.8952 16.2732 7.07724 16.1759 7.27541 16.1365C7.47358 16.0971 7.67899 16.1173 7.86566 16.1946C8.05233 16.2719 8.21189 16.4029 8.32414 16.5709C8.4364 16.7389 8.49631 16.9364 8.49631 17.1385C8.49638 17.2727 8.47 17.4056 8.41869 17.5296C8.36738 17.6536 8.29214 17.7662 8.19727 17.8612C8.1024 17.9561 7.98976 18.0314 7.86578 18.0827C7.7418 18.1341 7.60891 18.1606 7.47471 18.1606V18.1601ZM16.5253 18.1601C16.3233 18.1601 16.1257 18.1001 15.9577 17.9879C15.7897 17.8756 15.6588 17.7161 15.5815 17.5294C15.5042 17.3427 15.4839 17.1373 15.5233 16.9392C15.5628 16.741 15.6601 16.559 15.8029 16.4161C15.9458 16.2732 16.1278 16.1759 16.326 16.1365C16.5242 16.0971 16.7296 16.1173 16.9163 16.1946C17.1029 16.2719 17.2625 16.4029 17.3747 16.5709C17.487 16.7389 17.5469 16.9364 17.5469 17.1385C17.547 17.2727 17.5206 17.4056 17.4693 17.5296C17.418 17.6536 17.3427 17.7662 17.2479 17.8612C17.153 17.9561 17.0404 18.0314 16.9164 18.0827C16.7924 18.1341 16.6595 18.1606 16.5253 18.1606V18.1601ZM6.16561 14.0001C6.3292 12.886 6.55677 11.7823 6.84721 10.6944C6.8691 10.6189 6.90052 10.5466 6.94071 10.4792H17.059C17.0995 10.5465 17.131 10.6189 17.1528 10.6944C17.4432 11.7823 17.6708 12.886 17.8344 14.0001H6.16561ZM16.5962 3.99066L17.3033 3.28356C15.8957 1.87909 13.9885 1.09033 12 1.09033C10.0116 1.09033 8.10432 1.87909 6.69671 3.28356L7.40381 3.99066C8.62376 2.77348 10.2767 2.0899 12 2.0899C13.7233 2.0899 15.3763 2.77348 16.5962 3.99066ZM10.2322 6.81906C10.7014 6.35086 11.3372 6.08791 12 6.08791C12.6628 6.08791 13.2986 6.35086 13.7678 6.81906L14.4749 6.11196C13.818 5.45648 12.9279 5.08836 11.9999 5.08836C11.0719 5.08836 10.1818 5.45648 9.52491 6.11196L10.2322 6.81906Z" fill="black"/>
</svg>
