<svg width="24" height="24" viewBox="0 0 24 24" fill="none" xmlns="http://www.w3.org/2000/svg">
<g clip-path="url(#clip0)">
<path d="M24 12.0832C24.0013 11.7189 23.8872 11.3635 23.674 11.068C23.4609 10.7724 23.1597 10.552 22.8135 10.4382C21.3159 9.9488 19.7668 9.63392 18.197 9.49984L16.3937 6.79414C16.1513 6.42421 15.8207 6.12042 15.4316 5.91018C15.0426 5.69993 14.6073 5.58984 14.165 5.58984H10.2708L10.257 9.49984H0V16.4998L3.6816 16.9127C3.73092 17.6699 4.0637 18.3808 4.61364 18.9036C5.16358 19.4264 5.89031 19.7228 6.64903 19.7338C7.40775 19.7448 8.14276 19.4695 8.70761 18.9629C9.27246 18.4562 9.62568 17.7553 9.6969 16.9998H15.8923C15.9625 17.7478 16.3093 18.4426 16.8647 18.9484C17.4202 19.4541 18.1444 19.7345 18.8956 19.7345C19.6468 19.7345 20.371 19.4541 20.9265 18.9484C21.4819 18.4426 21.8287 17.7478 21.8989 16.9998H24V12.0832ZM11.7158 7.03984H14.165C14.3666 7.03947 14.5652 7.08948 14.7425 7.18534C14.9199 7.2812 15.0705 7.41987 15.1807 7.58874L16.4543 9.49984H11.7073L11.7158 7.03984ZM6.6936 18.4012C6.35737 18.4012 6.02869 18.3015 5.74913 18.1147C5.46957 17.9279 5.25167 17.6624 5.123 17.3518C4.99434 17.0412 4.96067 16.6994 5.02627 16.3696C5.09186 16.0398 5.25377 15.7369 5.49152 15.4992C5.72927 15.2614 6.03218 15.0995 6.36195 15.0339C6.69171 14.9683 7.03353 15.002 7.34416 15.1306C7.6548 15.2593 7.9203 15.4772 8.1071 15.7568C8.2939 16.0363 8.3936 16.365 8.3936 16.7012C8.3931 17.152 8.21383 17.5841 7.89513 17.9028C7.57642 18.2215 7.14431 18.4007 6.6936 18.4012ZM18.8956 18.4012C18.5594 18.4012 18.2307 18.3015 17.9511 18.1147C17.6716 17.9279 17.4537 17.6624 17.325 17.3518C17.1963 17.0412 17.1627 16.6994 17.2283 16.3696C17.2939 16.0398 17.4558 15.7369 17.6935 15.4992C17.9313 15.2614 18.2342 15.0995 18.5639 15.0339C18.8937 14.9683 19.2355 15.002 19.5462 15.1306C19.8568 15.2593 20.1223 15.4772 20.3091 15.7568C20.4959 16.0363 20.5956 16.365 20.5956 16.7012C20.5951 17.1519 20.4158 17.584 20.0971 17.9027C19.7784 18.2214 19.3463 18.4007 18.8956 18.4012ZM22.55 15.5498H21.7C21.4721 14.9933 21.0838 14.5172 20.5844 14.1821C20.0851 13.847 19.4974 13.6681 18.896 13.6681C18.2946 13.6681 17.7069 13.847 17.2076 14.1821C16.7082 14.5172 16.3199 14.9933 16.092 15.5498H9.4977C9.27243 14.9993 8.89004 14.5273 8.39823 14.1927C7.90642 13.8581 7.32698 13.6757 6.73218 13.6683C6.13739 13.6609 5.55358 13.8288 5.0536 14.1511C4.55362 14.4733 4.1596 14.9357 3.9207 15.4804L1.45 15.2029V10.9498H11.7021V10.9328H17.9148L18.0889 10.9461C19.5439 11.0706 20.9796 11.3632 22.3672 11.8182C22.4218 11.8373 22.4689 11.8732 22.5017 11.9207C22.5345 11.9683 22.5514 12.0251 22.5498 12.0828L22.55 15.5498Z" fill="black"/>
</g>
<defs>
<clipPath id="clip0">
<rect width="24" height="24" fill="white"/>
</clipPath>
</defs>
</svg>
