<svg width="24" height="24" viewBox="0 0 24 24" fill="none" xmlns="http://www.w3.org/2000/svg">
<path d="M22.53 17V13.5809C22.5315 13.2113 22.43 12.8486 22.2368 12.5336C22.0435 12.2186 21.7662 11.9636 21.4361 11.7975C20.1742 11.1504 18.8156 10.7122 17.4134 10.5L14.6544 7.28363C14.3434 6.92838 13.96 6.6437 13.53 6.44868C13.1 6.25365 12.6333 6.15278 12.1611 6.15283H5.00478L1.90348 9.87283C1.44499 10.4128 1.19335 11.0982 1.19348 11.8066V16.2L2.84618 16.7847C2.94484 17.4109 3.25758 17.9835 3.7311 18.405C4.20462 18.8265 4.80963 19.0707 5.44303 19.0961C6.07644 19.1215 6.69906 18.9265 7.2048 18.5443C7.71054 18.1621 8.06811 17.6163 8.21658 17H15.2906C15.4339 17.5989 15.7748 18.132 16.2583 18.5133C16.7417 18.8947 17.3395 19.1021 17.9553 19.1021C18.571 19.1021 19.1688 18.8947 19.6523 18.5133C20.1357 18.132 20.4766 17.5989 20.62 17H22.53ZM5.68868 7.58583H12.1611C12.4216 7.58523 12.6793 7.63881 12.918 7.74317C13.1567 7.84753 13.3711 8.00038 13.5475 8.19203L15.527 10.5H3.24678L5.68868 7.58583ZM5.55208 17.8005C5.2653 17.8005 4.98496 17.7155 4.7465 17.5562C4.50805 17.3968 4.3222 17.1704 4.21246 16.9054C4.10271 16.6405 4.07399 16.3489 4.12994 16.0677C4.18589 15.7864 4.32399 15.528 4.52678 15.3252C4.72956 15.1224 4.98793 14.9843 5.2692 14.9284C5.55047 14.8724 5.84202 14.9012 6.10697 15.0109C6.37192 15.1207 6.59838 15.3065 6.75771 15.545C6.91704 15.7834 7.00208 16.0637 7.00208 16.3505C7.00166 16.735 6.84875 17.1035 6.57692 17.3754C6.30508 17.6472 5.93652 17.8001 5.55208 17.8005ZM17.9551 17.8005C17.6683 17.8005 17.388 17.7155 17.1495 17.5562C16.9111 17.3968 16.7252 17.1704 16.6155 16.9054C16.5057 16.6405 16.477 16.3489 16.5329 16.0677C16.5889 15.7864 16.727 15.528 16.9298 15.3252C17.1326 15.1224 17.3909 14.9843 17.6722 14.9284C17.9535 14.8724 18.245 14.9012 18.51 15.0109C18.7749 15.1207 19.0014 15.3065 19.1607 15.545C19.32 15.7834 19.4051 16.0637 19.4051 16.3505C19.4047 16.735 19.2518 17.1036 18.9799 17.3754C18.7081 17.6472 18.3395 17.8001 17.9551 17.8005Z" fill="black"/>
</svg>
