<svg width="24" height="24" viewBox="0 0 24 24" fill="none" xmlns="http://www.w3.org/2000/svg">
<path d="M19 10.75C18.7122 10.7499 18.4251 10.779 18.1431 10.8369L16.2441 3.75H13.3857C13.3194 3.75 13.2558 3.77634 13.2089 3.82322C13.162 3.87011 13.1357 3.9337 13.1357 4C13.1357 4.0663 13.162 4.12989 13.2089 4.17678C13.2558 4.22366 13.3194 4.25 13.3857 4.25H15.8613L16.5313 6.75H13.1094C12.5391 6.75092 11.979 6.90148 11.4851 7.18664C10.9913 7.4718 10.5808 7.88156 10.2949 8.375L10.0781 8.75H4.75V10.7753C3.93307 10.8217 3.14703 11.1035 2.48665 11.5867C1.82628 12.0699 1.31979 12.7337 1.02825 13.4983C0.736712 14.2628 0.672581 15.0954 0.843593 15.8956C1.0146 16.6958 1.41345 17.4294 1.99204 18.008C2.57063 18.5865 3.30425 18.9854 4.10443 19.1564C4.9046 19.3274 5.73717 19.2633 6.50172 18.9718C7.26627 18.6802 7.93015 18.1737 8.4133 17.5133C8.89646 16.853 9.17825 16.0669 9.2247 15.25H14.7753C14.8258 16.0767 15.1173 16.8704 15.6137 17.5334C16.1101 18.1963 16.7897 18.6995 17.5687 18.9806C18.3477 19.2618 19.192 19.3088 19.9974 19.1158C20.8027 18.9227 21.534 18.4981 22.1008 17.8943C22.6677 17.2905 23.0454 16.5339 23.1873 15.718C23.3292 14.902 23.2291 14.0624 22.8993 13.3026C22.5696 12.5429 22.0246 11.8963 21.3317 11.4427C20.6388 10.9891 19.8282 10.7483 19 10.75ZM8.7247 15.25C8.65984 16.2207 8.22025 17.1283 7.49875 17.781C6.77725 18.4336 5.83034 18.7804 4.85797 18.7479C3.88561 18.7155 2.96392 18.3064 2.28754 17.6071C1.61116 16.9077 1.23304 15.9729 1.23304 15C1.23304 14.0271 1.61116 13.0923 2.28754 12.3929C2.96392 11.6936 3.88561 11.2845 4.85797 11.2521C5.83034 11.2196 6.77725 11.5664 7.49875 12.219C8.22025 12.8717 8.65984 13.7793 8.7247 14.75H4.73V15.25H8.7247ZM9.2247 14.75C9.1635 13.7158 8.72509 12.74 7.99254 12.0075C7.25999 11.2749 6.28418 10.8365 5.25 10.7753V9.25H10.3672L10.7285 8.625C10.9702 8.20738 11.3173 7.86056 11.7352 7.61925C12.153 7.37794 12.6269 7.25061 13.1094 7.25H16.665L17.6659 10.9854C16.863 11.2521 16.1584 11.7533 15.6432 12.4243C15.1279 13.0954 14.8256 13.9055 14.7753 14.75H9.2247ZM19 18.75C18.1125 18.752 17.2531 18.4384 16.5756 17.8651C15.898 17.2918 15.4465 16.4962 15.3016 15.6206C15.1567 14.7449 15.3279 13.8463 15.7847 13.0853C16.2414 12.3243 16.9539 11.7506 17.7948 11.4666L18.7588 15.0645L18.7749 15.0601C18.7859 15.1123 18.814 15.1594 18.8548 15.1938C18.8956 15.2282 18.9467 15.248 19 15.25C19.0663 15.25 19.1299 15.2237 19.1768 15.1768C19.2237 15.1299 19.25 15.0663 19.25 15C19.25 14.9765 19.2312 14.9614 19.2251 14.94L19.2412 14.9356L18.2734 11.3236C18.7867 11.222 19.3155 11.2289 19.8259 11.344C20.3364 11.459 20.8171 11.6796 21.2371 11.9916C21.6571 12.3037 22.0072 12.7001 22.2647 13.1556C22.5223 13.611 22.6817 14.1153 22.7327 14.6361C22.7836 15.1568 22.725 15.6824 22.5606 16.1792C22.3962 16.6759 22.1296 17.1327 21.778 17.5202C21.4264 17.9077 20.9976 18.2173 20.5192 18.4291C20.0407 18.6409 19.5232 18.7502 19 18.75ZM19.2805 8.386H19.7916V5.614H19.2805C18.9129 5.614 18.5604 5.76002 18.3005 6.01995C18.0405 6.27988 17.8945 6.63241 17.8945 7C17.8945 7.36759 18.0405 7.72012 18.3005 7.98005C18.5604 8.23998 18.9129 8.386 19.2805 8.386ZM19.2805 6.114H19.2916V7.886H19.2805C19.0455 7.886 18.8202 7.79265 18.654 7.6265C18.4878 7.46034 18.3945 7.23498 18.3945 7C18.3945 6.76502 18.4878 6.53966 18.654 6.3735C18.8202 6.20735 19.0455 6.114 19.2805 6.114Z" fill="black"/>
</svg>
