<svg width="24" height="24" viewBox="0 0 24 24" fill="none" xmlns="http://www.w3.org/2000/svg">
<path d="M23 8.75H20.4031C20.2125 7.83804 19.9724 6.93714 19.6838 6.0513C19.4847 5.45396 19.1027 4.93441 18.5919 4.56625C18.081 4.19809 17.4674 3.99999 16.8377 4H7.1623C6.53265 3.99999 5.91895 4.19809 5.40814 4.56625C4.89734 4.93441 4.51532 5.45396 4.3162 6.0513C4.02762 6.93714 3.78749 7.83804 3.5969 8.75H1V10.5L3.1591 11.4731C3.05894 12.3661 3.00584 13.2637 3 14.1623V20.34C3 20.4267 3.01707 20.5125 3.05024 20.5926C3.08341 20.6726 3.13202 20.7454 3.19331 20.8067C3.2546 20.868 3.32735 20.9166 3.40743 20.9498C3.4875 20.9829 3.57333 21 3.66 21H4.67C4.75667 21 4.8425 20.9829 4.92257 20.9498C5.00265 20.9166 5.0754 20.868 5.13669 20.8067C5.19798 20.7454 5.24659 20.6726 5.27976 20.5926C5.31293 20.5125 5.33 20.4267 5.33 20.34V19H18.67V20.34C18.67 20.515 18.7395 20.6829 18.8633 20.8067C18.9871 20.9305 19.155 21 19.33 21H20.34C20.515 21 20.6829 20.9305 20.8067 20.8067C20.9305 20.6829 21 20.515 21 20.34V14.1623C20.9942 13.2637 20.9411 12.3661 20.8409 11.4731L23 10.5V8.75ZM4.7906 6.2094C4.95611 5.71136 5.27434 5.27814 5.7001 4.97128C6.12586 4.66442 6.63748 4.49951 7.1623 4.5H16.8377C17.3626 4.4994 17.8744 4.66425 18.3002 4.97112C18.7261 5.27799 19.0444 5.71127 19.21 6.2094C19.7226 7.76743 20.0813 9.37197 20.2808 11H3.7192C3.9189 9.37195 4.27775 7.76741 4.7906 6.2094ZM3.2221 10.9531L1.5 10.1769V9.25H3.495C3.385 9.8148 3.29403 10.3825 3.2221 10.9531ZM20.5015 18.75H20.5V20.34C20.5 20.3824 20.4831 20.4231 20.4531 20.4531C20.4231 20.4831 20.3824 20.5 20.34 20.5H19.33C19.2876 20.5 19.2469 20.4831 19.2169 20.4531C19.1869 20.4231 19.17 20.3824 19.17 20.34V18.75H19.1685V18.5H4.8329V18.75H4.83V20.34C4.83 20.3824 4.81314 20.4231 4.78314 20.4531C4.75313 20.4831 4.71243 20.5 4.67 20.5H3.66C3.61757 20.5 3.57687 20.4831 3.54686 20.4531C3.51686 20.4231 3.5 20.3824 3.5 20.34V18.75V17.5416V14.1623C3.50576 13.2727 3.5587 12.384 3.6586 11.5H20.3414C20.4413 12.384 20.4942 13.2727 20.5 14.1623V17.5416H20.5015V18.75ZM22.5 10.1769L20.7779 10.9531C20.706 10.3821 20.615 9.8144 20.505 9.25H22.5V10.1769ZM18 13C17.7033 13 17.4133 13.088 17.1666 13.2528C16.92 13.4176 16.7277 13.6519 16.6142 13.926C16.5007 14.2001 16.4709 14.5017 16.5288 14.7926C16.5867 15.0836 16.7296 15.3509 16.9393 15.5607C17.1491 15.7704 17.4164 15.9133 17.7074 15.9712C17.9983 16.0291 18.2999 15.9994 18.574 15.8858C18.8481 15.7723 19.0824 15.58 19.2472 15.3334C19.412 15.0867 19.5 14.7967 19.5 14.5C19.5 14.1022 19.342 13.7206 19.0607 13.4393C18.7794 13.158 18.3978 13 18 13ZM18 15.5C17.8022 15.5 17.6089 15.4414 17.4444 15.3315C17.28 15.2216 17.1518 15.0654 17.0761 14.8827C17.0004 14.7 16.9806 14.4989 17.0192 14.3049C17.0578 14.1109 17.153 13.9327 17.2929 13.7929C17.4327 13.653 17.6109 13.5578 17.8049 13.5192C17.9989 13.4806 18.2 13.5004 18.3827 13.5761C18.5654 13.6518 18.7216 13.78 18.8315 13.9444C18.9414 14.1089 19 14.3022 19 14.5C18.9997 14.7651 18.8943 15.0193 18.7068 15.2068C18.5193 15.3943 18.2651 15.4997 18 15.5ZM6 13C5.70333 13 5.41332 13.088 5.16664 13.2528C4.91997 13.4176 4.72771 13.6519 4.61418 13.926C4.50065 14.2001 4.47094 14.5017 4.52882 14.7926C4.5867 15.0836 4.72956 15.3509 4.93934 15.5607C5.14912 15.7704 5.41639 15.9133 5.70736 15.9712C5.99834 16.0291 6.29994 15.9994 6.57403 15.8858C6.84811 15.7723 7.08238 15.58 7.2472 15.3334C7.41203 15.0867 7.5 14.7967 7.5 14.5C7.5 14.1022 7.34196 13.7206 7.06066 13.4393C6.77936 13.158 6.39782 13 6 13ZM6 15.5C5.80222 15.5 5.60888 15.4414 5.44443 15.3315C5.27998 15.2216 5.15181 15.0654 5.07612 14.8827C5.00043 14.7 4.98063 14.4989 5.01921 14.3049C5.0578 14.1109 5.15304 13.9327 5.29289 13.7929C5.43275 13.653 5.61093 13.5578 5.80491 13.5192C5.99889 13.4806 6.19996 13.5004 6.38268 13.5761C6.56541 13.6518 6.72159 13.78 6.83147 13.9444C6.94135 14.1089 7 14.3022 7 14.5C6.99971 14.7651 6.89426 15.0193 6.70679 15.2068C6.51931 15.3943 6.26513 15.4997 6 15.5Z" fill="black"/>
</svg>
