<svg width="24" height="24" viewBox="0 0 24 24" fill="none" xmlns="http://www.w3.org/2000/svg">
<path d="M18.6754 14C18.52 12.8316 18.3041 11.672 18.0286 10.5259C17.9224 10.0907 17.6732 9.70373 17.3209 9.42705C16.9685 9.15037 16.5335 8.99999 16.0855 9.00001H7.91452C7.46656 9.00001 7.03156 9.1504 6.67925 9.42708C6.32694 9.70376 6.07771 10.0907 5.97152 10.5259C5.69601 11.672 5.48012 12.8316 5.32472 14H3.27612V15.4028L4.99852 16.0009V20.7183H5.00002V21.9337C5.00002 22.1088 5.06956 22.2766 5.19333 22.4004C5.31711 22.5242 5.48498 22.5937 5.66002 22.5937H6.22362C6.39867 22.5937 6.56654 22.5242 6.69031 22.4004C6.81409 22.2766 6.88362 22.1088 6.88362 21.9337V21H17.1284V21.9337C17.1284 22.1088 17.198 22.2766 17.3217 22.4004C17.4455 22.5242 17.6134 22.5937 17.7884 22.5937H18.34C18.5151 22.5937 18.6829 22.5242 18.8067 22.4004C18.9305 22.2766 19 22.1088 19 21.9337V20.7183H19.0015V16.0009L20.724 15.4028V14H18.6754ZM7.56322 18.16C7.36117 18.16 7.16365 18.1001 6.99565 17.9878C6.82765 17.8756 6.69671 17.716 6.61939 17.5294C6.54207 17.3427 6.52183 17.1373 6.56125 16.9391C6.60067 16.7409 6.69797 16.5589 6.84084 16.416C6.98372 16.2732 7.16575 16.1759 7.36392 16.1364C7.56209 16.097 7.7675 16.1173 7.95417 16.1946C8.14085 16.2719 8.3004 16.4028 8.41265 16.5708C8.52491 16.7388 8.58482 16.9364 8.58482 17.1384C8.58489 17.2726 8.55851 17.4055 8.5072 17.5295C8.45589 17.6535 8.38065 17.7662 8.28578 17.8611C8.19091 17.956 8.07827 18.0313 7.95429 18.0827C7.83031 18.1341 7.69742 18.1605 7.56322 18.1605V18.16ZM16.4368 18.16C16.2348 18.16 16.0373 18.1001 15.8693 17.9878C15.7013 17.8756 15.5703 17.716 15.493 17.5294C15.4157 17.3427 15.3954 17.1373 15.4349 16.9391C15.4743 16.7409 15.5716 16.5589 15.7144 16.416C15.8573 16.2732 16.0393 16.1759 16.2375 16.1364C16.4357 16.097 16.6411 16.1173 16.8278 16.1946C17.0144 16.2719 17.174 16.4028 17.2863 16.5708C17.3985 16.7388 17.4584 16.9364 17.4584 17.1384C17.4585 17.2726 17.4321 17.4055 17.3808 17.5295C17.3295 17.6535 17.2543 17.7662 17.1594 17.8611C17.0645 17.956 16.9519 18.0313 16.8279 18.0827C16.7039 18.1341 16.571 18.1605 16.4368 18.1605V18.16ZM5.83002 14C5.98198 12.8716 6.19122 11.7517 6.45692 10.6445C6.52192 10.4021 6.64777 10.1802 6.82252 10H17.1776C17.3522 10.1802 17.4779 10.4021 17.5428 10.6445C17.8086 11.7517 18.018 12.8716 18.17 14H5.83002ZM10.0552 6.49451C10.5713 5.97947 11.2707 5.6902 11.9998 5.6902C12.7289 5.6902 13.4282 5.97947 13.9443 6.49451L14.2978 6.14101C13.6879 5.53239 12.8614 5.19059 11.9997 5.19059C11.1381 5.19059 10.3116 5.53239 9.70162 6.14101L10.0552 6.49451ZM16.773 3.66611L17.1265 3.31261C15.7659 1.95489 13.9222 1.19238 12 1.19238C10.0778 1.19238 8.23417 1.95489 6.87352 3.31261L7.22712 3.66611C8.49398 2.40211 10.2105 1.69224 12.0001 1.69224C13.7897 1.69224 15.5062 2.40211 16.773 3.66611Z" fill="black"/>
</svg>
