<svg width="24" height="24" viewBox="0 0 24 24" fill="none" xmlns="http://www.w3.org/2000/svg">
<path d="M17.7393 6.61434L20 4.35354L22.2607 6.61434L22.6143 6.26074L20.3535 4.00004L22.6143 1.73934L22.2607 1.38574L20 3.64654L17.7393 1.38574L17.3857 1.73934L19.6465 4.00004L17.3857 6.26074L17.7393 6.61434ZM22.0806 10.5333L19.9688 9.84334H14.9167L10.131 1.84334H7.45103L9.90413 9.84334H5.30593L3.81593 7.35174H1.10193L2.47923 11.8433L1.10193 16.3353H3.81553L5.30553 13.8438H9.90373L7.45063 21.8438H10.1306L14.9163 13.8438H19.9684L22.0802 13.1538C22.3566 13.0636 22.5974 12.8882 22.7681 12.6529C22.9389 12.4175 23.0308 12.1342 23.0308 11.8434C23.0308 11.5527 22.9389 11.2694 22.7681 11.034C22.5974 10.7986 22.3566 10.6233 22.0802 10.533L22.0806 10.5333ZM21.9254 12.6788L19.8892 13.3438H14.6331L14.4876 13.587L9.84763 21.3438H8.12683L10.3817 13.99L10.58 13.3435H5.02233L4.87683 13.5867L3.53193 15.8353H1.77833L2.95723 11.99L3.00223 11.8435L2.95723 11.6968L1.77833 7.85224H3.53193L4.87683 10.1L5.02233 10.3434H10.58L10.3817 9.69674L8.12683 2.34384H9.84743L14.4874 10.1004L14.6329 10.3438H19.889L21.9253 11.0086C22.1014 11.0662 22.2548 11.178 22.3635 11.3279C22.4723 11.4779 22.5308 11.6584 22.5308 11.8436C22.5308 12.0289 22.4723 12.2094 22.3635 12.3594C22.2548 12.5093 22.1014 12.6211 21.9253 12.6786L21.9254 12.6788Z" fill="black"/>
</svg>
