<svg width="24" height="24" viewBox="0 0 24 24" fill="none" xmlns="http://www.w3.org/2000/svg">
<path d="M0 20V21H24V20H0ZM8.0068 13.918L16.708 16.1816C17.9471 16.496 19.218 16.6687 20.4961 16.6963L20.6699 16.7021H20.7139C21.1161 16.7024 21.5087 16.5793 21.8386 16.3494C22.1686 16.1194 22.42 15.7937 22.5589 15.4162C22.6977 15.0388 22.7174 14.6278 22.6152 14.2388C22.513 13.8498 22.2938 13.5016 21.9873 13.2412L19.53 11.127L14.8623 9.90001L12.7051 2.47561L9.3623 1.62891L9.44 8.52151L6.124 7.67581L5.3281 4.94341L1.9131 4.09341L1.9658 10.5387L8.0068 13.918ZM4.5293 5.77541L5.3232 8.50391L10.4561 9.81251L10.3779 2.91801L11.9043 3.30371L14.0596 10.7227L19.0537 12.0352L21.3379 14.002C21.4737 14.1163 21.5751 14.2659 21.631 14.4343C21.6868 14.6028 21.6949 14.7834 21.6543 14.9561C21.6001 15.1686 21.4769 15.3571 21.304 15.4921C21.1312 15.6271 20.9185 15.7009 20.6992 15.7021L20.5244 15.6963C19.3205 15.6709 18.1234 15.5087 16.9561 15.2129L8.4385 13.0137L2.9619 9.94921L2.9229 5.37501L4.5293 5.77541Z" fill="black"/>
</svg>
