<svg width="24" height="24" viewBox="0 0 24 24" fill="none" xmlns="http://www.w3.org/2000/svg">
<path d="M18.9257 15.6758L16.2715 2.39981H12.7793C12.6987 2.39687 12.6183 2.4102 12.543 2.43901C12.4677 2.46781 12.399 2.51151 12.3409 2.56747C12.2829 2.62344 12.2367 2.69054 12.2052 2.76475C12.1736 2.83897 12.1574 2.91878 12.1574 2.99941C12.1574 3.08005 12.1736 3.15986 12.2052 3.23408C12.2367 3.30829 12.2829 3.37538 12.3409 3.43135C12.399 3.48732 12.4677 3.53101 12.543 3.55982C12.6183 3.58863 12.6987 3.60196 12.7793 3.59901H15.2871L17.1685 13.0047L12.44 17.7332H6.75997C6.61269 17.095 6.23569 16.5333 5.70083 16.1553C5.16598 15.7772 4.51069 15.6092 3.85992 15.6833C3.20915 15.7575 2.60841 16.0685 2.17226 16.5571C1.73611 17.0458 1.49506 17.6778 1.49506 18.3328C1.49506 18.9878 1.73611 19.6199 2.17226 20.1085C2.60841 20.5971 3.20915 20.9082 3.85992 20.9823C4.51069 21.0564 5.16598 20.8884 5.70083 20.5104C6.23569 20.1323 6.61269 19.5706 6.75997 18.9324H12.9357L17.4511 14.4178L17.748 15.9018C17.1474 16.1671 16.6655 16.6441 16.3941 17.2419C16.1228 17.8398 16.081 18.5166 16.2767 19.1432C16.4724 19.7699 16.892 20.3026 17.4553 20.6398C18.0187 20.9769 18.6865 21.0948 19.3312 20.9711C19.976 20.8474 20.5527 20.4907 20.9513 19.969C21.3499 19.4473 21.5425 18.7971 21.4924 18.1425C21.4422 17.4879 21.1529 16.8746 20.6796 16.4197C20.2062 15.9647 19.582 15.6999 18.9259 15.6758H18.9257ZM4.16667 19.7331C3.88978 19.7331 3.6191 19.651 3.38887 19.4972C3.15864 19.3433 2.9792 19.1247 2.87324 18.8689C2.76728 18.6131 2.73955 18.3316 2.79357 18.06C2.84759 17.7884 2.98093 17.539 3.17672 17.3432C3.37251 17.1474 3.62197 17.014 3.89354 16.96C4.16512 16.906 4.44661 16.9337 4.70243 17.0397C4.95824 17.1456 5.17689 17.3251 5.33073 17.5553C5.48456 17.7855 5.56667 18.0562 5.56667 18.3331C5.56622 18.7043 5.41858 19.0601 5.15612 19.3226C4.89367 19.585 4.53783 19.7327 4.16667 19.7331ZM18.8333 19.7331C18.5564 19.7331 18.2857 19.651 18.0555 19.4972C17.8252 19.3433 17.6458 19.1247 17.5398 18.8689C17.4339 18.6131 17.4062 18.3316 17.4602 18.06C17.5142 17.7884 17.6475 17.539 17.8433 17.3432C18.0391 17.1474 18.2886 17.014 18.5601 16.96C18.8317 16.906 19.1132 16.9337 19.369 17.0397C19.6248 17.1456 19.8435 17.3251 19.9973 17.5553C20.1512 17.7855 20.2333 18.0562 20.2333 18.3331C20.2329 18.7043 20.0852 19.0602 19.8228 19.3226C19.5603 19.5851 19.2045 19.7327 18.8333 19.7331Z" fill="black"/>
</svg>
