<svg width="24" height="24" viewBox="0 0 24 24" fill="none" xmlns="http://www.w3.org/2000/svg">
<path d="M22.8386 17V11.9343C22.8401 11.5738 22.7385 11.2204 22.5456 10.9159C22.3526 10.6113 22.0766 10.3683 21.75 10.2157C20.4161 9.59679 18.9949 9.18676 17.5364 8.99995L15.6125 6.51805C15.2386 6.03577 14.7594 5.64542 14.2114 5.37688C13.6634 5.10835 13.0613 4.96874 12.4511 4.96875H3.46879L1.51999 8.65445C1.29151 9.08656 1.17208 9.56795 1.17209 10.0567V16.2L3.41399 16.6987C3.5244 17.4397 3.88853 18.1195 4.44424 18.622C4.99994 19.1245 5.7128 19.4186 6.46118 19.4542C7.20956 19.4897 7.94709 19.2645 8.54794 18.817C9.14879 18.3694 9.57572 17.7272 9.75589 17H13.8812C14.055 17.7017 14.4588 18.3251 15.0281 18.7707C15.5975 19.2163 16.2997 19.4584 17.0227 19.4584C17.7457 19.4584 18.4479 19.2163 19.0172 18.7707C19.5866 18.3251 19.9904 17.7017 20.1642 17H22.8386ZM4.61329 6.86865H12.4511C12.7713 6.86964 13.0871 6.94337 13.3747 7.08428C13.6623 7.22519 13.9141 7.42959 14.1111 7.68205L15.1324 8.99995H3.48639L4.61329 6.86865ZM3.07189 10.8999H17.3871C18.6158 11.0659 19.8128 11.4146 20.9385 11.9343V15.1H20.066C19.8411 14.4729 19.4281 13.9307 18.8834 13.5473C18.3387 13.164 17.6888 12.9582 17.0227 12.9582C16.3566 12.9582 15.7068 13.164 15.1621 13.5473C14.6173 13.9307 14.2043 14.4729 13.9795 15.1H9.65759C9.44174 14.4978 9.05211 13.9732 8.538 13.5926C8.02389 13.212 7.40842 12.9925 6.7695 12.9619C6.13057 12.9312 5.49692 13.0908 4.94873 13.4204C4.40055 13.7501 3.96249 14.2349 3.68999 14.8137L3.07179 14.6761L3.07189 10.8999ZM6.61429 17.7083C6.31762 17.7083 6.02761 17.6203 5.78093 17.4555C5.53426 17.2906 5.342 17.0564 5.22847 16.7823C5.11494 16.5082 5.08523 16.2066 5.14311 15.9156C5.20099 15.6246 5.34385 15.3574 5.55363 15.1476C5.76341 14.9378 6.03068 14.795 6.32165 14.7371C6.61262 14.6792 6.91422 14.7089 7.18831 14.8224C7.4624 14.936 7.69667 15.1282 7.86149 15.3749C8.02632 15.6216 8.11429 15.9116 8.11429 16.2083C8.11384 16.6059 7.95566 16.9872 7.67445 17.2684C7.39324 17.5496 7.01197 17.7078 6.61429 17.7083ZM17.0227 17.7083C16.726 17.7083 16.436 17.6203 16.1893 17.4555C15.9427 17.2906 15.7504 17.0564 15.6369 16.7823C15.5233 16.5082 15.4936 16.2066 15.5515 15.9156C15.6094 15.6246 15.7522 15.3574 15.962 15.1476C16.1718 14.9378 16.4391 14.795 16.7301 14.7371C17.021 14.6792 17.3226 14.7089 17.5967 14.8224C17.8708 14.936 18.1051 15.1282 18.2699 15.3749C18.4347 15.6216 18.5227 15.9116 18.5227 16.2083C18.5222 16.6059 18.3641 16.9872 18.0829 17.2684C17.8016 17.5496 17.4204 17.7078 17.0227 17.7083Z" fill="black"/>
</svg>
