<svg width="24" height="24" viewBox="0 0 24 24" fill="none" xmlns="http://www.w3.org/2000/svg">
<path d="M23 16.9998V13.3955C23.0012 13.0403 22.9057 12.6915 22.7237 12.3864C22.5417 12.0813 22.2801 11.8315 21.967 11.6637C20.5471 10.9631 18.9966 10.5667 17.4147 10.4998L14.7061 7.44614C14.3475 7.03951 13.9065 6.71384 13.4123 6.49077C12.9181 6.2677 12.3822 6.15234 11.84 6.15234H9.4578C8.81234 6.1523 8.17446 6.29149 7.5877 6.56044C7.00094 6.82938 6.4791 7.22174 6.0578 7.71074L3.663 10.4998H2.7839C2.31083 10.4998 1.85714 10.6877 1.5226 11.0222C1.18806 11.3567 1.00008 11.8104 1 12.2834V16.472L3.149 16.8302C3.25745 17.4513 3.57664 18.016 4.0528 18.4292C4.52895 18.8425 5.13298 19.079 5.76313 19.0989C6.39328 19.1188 7.01104 18.9209 7.51234 18.5386C8.01364 18.1562 8.36785 17.6128 8.5153 16.9998H15.649C15.7925 17.5985 16.1334 18.1315 16.6168 18.5127C17.1002 18.8939 17.6979 19.1013 18.3136 19.1013C18.9292 19.1013 19.5269 18.8939 20.0103 18.5127C20.4937 18.1315 20.8346 17.5985 20.9781 16.9998H23ZM7.16 8.62654C7.44685 8.29949 7.80022 8.03745 8.19649 7.85794C8.59275 7.67844 9.02277 7.5856 9.4578 7.58564H11.84C12.4428 7.58457 13.0237 7.81168 13.4659 8.22134C13.5195 8.26854 13.6859 8.43444 13.7325 8.49024L15.4525 10.3819L15.5378 10.4746L15.5852 10.4995H5.5428L7.16 8.62654ZM5.851 17.8003C5.56422 17.8003 5.28387 17.7153 5.04542 17.556C4.80697 17.3966 4.62112 17.1702 4.51137 16.9052C4.40163 16.6403 4.37291 16.3487 4.42886 16.0675C4.48481 15.7862 4.62291 15.5278 4.8257 15.325C5.02848 15.1223 5.28685 14.9842 5.56812 14.9282C5.84939 14.8723 6.14094 14.901 6.40589 15.0107C6.67084 15.1205 6.8973 15.3063 7.05663 15.5448C7.21596 15.7832 7.301 16.0636 7.301 16.3503C7.30058 16.7348 7.14763 17.1034 6.87573 17.3753C6.60383 17.6471 6.23519 17.8 5.8507 17.8003H5.851ZM18.3138 17.8003C18.027 17.8003 17.7467 17.7153 17.5082 17.556C17.2698 17.3966 17.0839 17.1702 16.9742 16.9052C16.8644 16.6403 16.8357 16.3487 16.8917 16.0675C16.9476 15.7862 17.0857 15.5278 17.2885 15.325C17.4913 15.1223 17.7496 14.9842 18.0309 14.9282C18.3122 14.8723 18.6037 14.901 18.8687 15.0107C19.1336 15.1205 19.3601 15.3063 19.5194 15.5448C19.6788 15.7832 19.7638 16.0636 19.7638 16.3503C19.7633 16.7348 19.6104 17.1034 19.3385 17.3753C19.0666 17.6471 18.698 17.8 18.3135 17.8003H18.3138Z" fill="black"/>
</svg>
