<svg width="24" height="24" viewBox="0 0 24 24" fill="none" xmlns="http://www.w3.org/2000/svg">
<g clip-path="url(#clip0)">
<path d="M23.5333 4.06646H0.466695C0.404839 4.06555 0.34342 4.07695 0.28601 4.1C0.2286 4.12304 0.176344 4.15727 0.132281 4.20069C0.0882189 4.24412 0.0532288 4.29586 0.029346 4.35293C0.00546309 4.41 -0.00683594 4.47124 -0.00683594 4.53311C-0.00683594 4.59497 0.00546309 4.65621 0.029346 4.71328C0.0532288 4.77035 0.0882189 4.8221 0.132281 4.86552C0.176344 4.90894 0.2286 4.94317 0.28601 4.96622C0.34342 4.98926 0.404839 5.00066 0.466695 4.99976H11.5332V7.99976H4.0764L3.2014 5.99976H-4.57605e-06L0.976595 12.0831H7.4092L9.70829 17.3331H18.9044C19.5289 17.3332 20.1392 17.1466 20.6568 16.7971C21.1744 16.4476 21.5756 15.9513 21.8089 15.3719C22.0421 14.7926 22.0967 14.1567 21.9656 13.5461C21.8345 12.9355 21.5238 12.378 21.0733 11.9455L17.5619 8.54466C17.2015 8.19516 16.7191 7.99972 16.2171 7.99976H12.4671V4.99976H23.5333C23.5952 5.00066 23.6566 4.98926 23.714 4.96622C23.7714 4.94317 23.8236 4.90894 23.8677 4.86552C23.9118 4.8221 23.9468 4.77035 23.9706 4.71328C23.9945 4.65621 24.0068 4.59497 24.0068 4.53311C24.0068 4.47124 23.9945 4.41 23.9706 4.35293C23.9468 4.29586 23.9118 4.24412 23.8677 4.20069C23.8236 4.15727 23.7714 4.12304 23.714 4.1C23.6566 4.07695 23.5952 4.06555 23.5333 4.06646ZM14.1338 8.93306H15.8832C16.2503 8.93101 16.6107 9.03207 16.9232 9.22476L20.339 12.533H15.667C15.2605 12.5326 14.8707 12.3709 14.5833 12.0835C14.2958 11.796 14.1342 11.4063 14.1338 10.9998V8.93306ZM13.2002 8.93306V10.9998C13.2009 11.6538 13.461 12.2808 13.9234 12.7433C14.3859 13.2058 15.013 13.4659 15.667 13.4666H20.9777C21.1524 13.9747 21.1393 14.5286 20.9408 15.0279C20.7898 15.4113 20.5323 15.7435 20.1986 15.9854C19.865 16.2273 19.4691 16.3687 19.0577 16.393C19.0077 16.3974 18.9007 16.3998 18.8483 16.3998H10.3183L8.4452 12.1223L8.1829 11.5235L8.05659 11.2349L7.8012 11.1498H1.778L1.0872 6.93306H2.591L3.0117 7.89486L3.4445 8.88406L3.588 8.93306H13.2002ZM8.6667 20.3331H20.3646L21 19.3998H8.6667V20.3331Z" fill="black"/>
</g>
<defs>
<clipPath id="clip0">
<rect width="24" height="24" fill="white"/>
</clipPath>
</defs>
</svg>
