<svg width="24" height="24" viewBox="0 0 24 24" fill="none" xmlns="http://www.w3.org/2000/svg">
<path d="M17.501 13.2578C16.8748 12.737 16.3709 12.0847 16.0251 11.3473C15.6793 10.6099 15.5 9.80538 15.5 8.9909V6.7998C15.5 4.6949 14.0471 0.295898 12 0.295898C9.9529 0.295898 8.5 4.6949 8.5 6.7998V8.9909C8.49999 9.80538 8.32071 10.6099 7.97489 11.3473C7.62908 12.0847 7.12519 12.737 6.499 13.2578L2 16.9998V20.156L8.5 20.9998V21.9998H11.7329L11.7083 22.9998H12.2917L12.2666 21.9998H15.5V20.9998L22 20.156V16.9998L17.501 13.2578ZM8.5 20.4956L2.5 19.7168V17.2342L6.8188 13.6423C7.57896 12.9743 8.15738 12.1244 8.5 11.1722V20.4956ZM15 21.4998H12.2544L12.1421 16.9998H11.8562L11.7454 21.4998H9V6.7998C9 4.8228 10.3887 0.795898 12 0.795898C13.6113 0.795898 15 4.8228 15 6.7998V21.4998ZM21.5 19.7168L15.5 20.4956V11.1722C15.8426 12.1244 16.421 12.9742 17.1812 13.6422L21.5 17.2342V19.7168ZM10.6277 4.1098C10.3939 4.36881 10.1948 4.65712 10.0354 4.9675V6.4075C10.5923 5.95966 11.2854 5.71551 12 5.71551C12.7146 5.71551 13.4077 5.95966 13.9646 6.4075V4.9678C13.8052 4.65747 13.6061 4.36919 13.3723 4.1102C13.1971 3.92127 12.9848 3.77056 12.7487 3.66749C12.5125 3.56442 12.2577 3.51122 12 3.51122C11.7423 3.51122 11.4875 3.56442 11.2513 3.66749C11.0152 3.77056 10.8029 3.92127 10.6277 4.1102V4.1098ZM13.4646 5.0953V5.5247C13.0032 5.32094 12.5044 5.2157 12 5.2157C11.4956 5.2157 10.9968 5.32094 10.5354 5.5247V5.0957C10.662 4.86292 10.8161 4.64617 10.9944 4.4501C11.1228 4.31162 11.2784 4.20115 11.4514 4.1256C11.6245 4.05005 11.8113 4.01106 12.0001 4.01106C12.189 4.01106 12.3758 4.05005 12.5489 4.1256C12.7219 4.20115 12.8775 4.31162 13.0059 4.4501C13.184 4.64625 13.338 4.86299 13.4646 5.0957V5.0953Z" fill="black"/>
</svg>
