<svg width="24" height="24" viewBox="0 0 24 24" fill="none" xmlns="http://www.w3.org/2000/svg">
<path d="M23 17V11.8839C23 11.5507 22.9126 11.2233 22.7464 10.9345C22.5802 10.6458 22.3411 10.4057 22.053 10.2383C20.7586 9.49682 19.3045 9.07817 17.814 9.01778V8.99998H17.3611L14.518 5.92998C14.0307 5.41072 13.3739 5.08261 12.666 5.00478L12.3674 3.52148H9.0758L8.8086 5.00308C7.78425 5.07887 6.82875 5.54732 6.1415 6.31068L3.75 8.99998H2.8758C2.37831 8.99998 1.90119 9.19761 1.54941 9.54939C1.19763 9.90117 1 10.3783 1 10.8758V16.2L3.9254 16.939C4.11443 17.464 4.45936 17.9187 4.91399 18.2423C5.36862 18.5659 5.91126 18.7428 6.46923 18.7495C7.02721 18.7561 7.5739 18.5921 8.0361 18.2794C8.49829 17.9668 8.85394 17.5204 9.0554 17H14.6412C14.8411 17.5153 15.1921 17.9582 15.6482 18.2705C16.1043 18.5828 16.6441 18.7499 17.1969 18.7499C17.7497 18.7499 18.2895 18.5828 18.7456 18.2705C19.2017 17.9582 19.5527 17.5153 19.7526 17H23ZM7.5613 7.57318C7.7584 7.35172 8.00012 7.17446 8.27058 7.05305C8.54104 6.93163 8.83413 6.8688 9.1306 6.86868H12.317C12.4685 6.8689 12.6184 6.90032 12.7572 6.96098C12.896 7.02165 13.0209 7.11025 13.124 7.22128L14.7714 8.99998H6.2925L7.5613 7.57318ZM2.8758 10.9H17.3611C18.6728 10.8887 19.9637 11.2284 21.0999 11.884V15.1H19.784C19.5997 14.5603 19.2512 14.0918 18.7873 13.76C18.3235 13.4283 17.7675 13.2499 17.1972 13.2499C16.6269 13.2499 16.0709 13.4283 15.6071 13.76C15.1432 14.0918 14.7947 14.5603 14.6104 15.1H9.0868C8.90509 14.57 8.5652 14.1086 8.11298 13.7779C7.66076 13.4472 7.11798 13.2632 6.55789 13.2507C5.99779 13.2381 5.44734 13.3977 4.9808 13.7079C4.51427 14.0181 4.1541 14.4639 3.9489 14.9852L2.8932 14.7186L2.8758 10.9ZM6.5 17C6.30222 17 6.10888 16.9413 5.94443 16.8315C5.77998 16.7216 5.65181 16.5654 5.57612 16.3827C5.50043 16.1999 5.48063 15.9989 5.51921 15.8049C5.5578 15.6109 5.65304 15.4327 5.79289 15.2929C5.93275 15.153 6.11093 15.0578 6.30491 15.0192C6.49889 14.9806 6.69996 15.0004 6.88268 15.0761C7.06541 15.1518 7.22159 15.28 7.33147 15.4444C7.44135 15.6089 7.5 15.8022 7.5 16C7.49971 16.2651 7.39426 16.5193 7.20679 16.7068C7.01931 16.8942 6.76513 16.9997 6.5 17ZM17.1972 17C16.9994 17 16.8061 16.9413 16.6416 16.8315C16.4772 16.7216 16.349 16.5654 16.2733 16.3827C16.1976 16.1999 16.1778 15.9989 16.2164 15.8049C16.255 15.6109 16.3502 15.4327 16.4901 15.2929C16.6299 15.153 16.8081 15.0578 17.0021 15.0192C17.1961 14.9806 17.3972 15.0004 17.5799 15.0761C17.7626 15.1518 17.9188 15.28 18.0287 15.4444C18.1386 15.6089 18.1972 15.8022 18.1972 16C18.1969 16.2651 18.0915 16.5193 17.904 16.7068C17.7165 16.8942 17.4623 16.9997 17.1972 17Z" fill="black"/>
</svg>
