<svg width="24" height="24" viewBox="0 0 24 24" fill="none" xmlns="http://www.w3.org/2000/svg">
<path d="M21.2371 6.80818C21.1054 6.45447 20.8684 6.14966 20.5581 5.9348C20.2478 5.71995 19.879 5.6054 19.5016 5.60658H15.8672L15.6629 5.04547L5.3061 1.48438L4.8154 2.90227L13.0736 5.60658H1V18H3.6531C3.74981 18.582 4.04994 19.1109 4.50006 19.4924C4.95017 19.8739 5.52106 20.0833 6.1111 20.0833C6.70114 20.0833 7.27203 19.8739 7.72214 19.4924C8.17226 19.1109 8.47239 18.582 8.5691 18H15.8011C15.9009 18.5792 16.2021 19.1045 16.6516 19.4832C17.1011 19.8618 17.67 20.0695 18.2577 20.0695C18.8454 20.0695 19.4143 19.8618 19.8638 19.4832C20.3133 19.1045 20.6145 18.5792 20.7143 18H23V11.5576L21.2371 6.80818ZM6.1111 18.7833C5.87376 18.7833 5.64175 18.7129 5.44442 18.581C5.24708 18.4492 5.09327 18.2618 5.00244 18.0425C4.91162 17.8232 4.88786 17.5819 4.93416 17.3492C4.98046 17.1164 5.09475 16.9026 5.26257 16.7347C5.43039 16.5669 5.64421 16.4526 5.87699 16.4063C6.10977 16.36 6.35105 16.3838 6.57032 16.4746C6.78959 16.5654 6.97701 16.7193 7.10886 16.9166C7.24072 17.1139 7.3111 17.3459 7.3111 17.5833C7.31076 17.9014 7.18422 18.2065 6.95925 18.4314C6.73428 18.6564 6.42925 18.7829 6.1111 18.7833ZM18.2577 18.7694C18.0204 18.7694 17.7884 18.699 17.591 18.5671C17.3937 18.4353 17.2399 18.2479 17.149 18.0286C17.0582 17.8093 17.0345 17.568 17.0808 17.3353C17.1271 17.1025 17.2413 16.8887 17.4092 16.7208C17.577 16.553 17.7908 16.4387 18.0236 16.3924C18.2564 16.3461 18.4977 16.3699 18.7169 16.4607C18.9362 16.5515 19.1236 16.7054 19.2555 16.9027C19.3873 17.1 19.4577 17.332 19.4577 17.5694C19.4574 17.8875 19.3308 18.1926 19.1058 18.4175C18.8809 18.6425 18.5759 18.769 18.2577 18.7694ZM2.47 11.5142V7.07617H19.5068C19.5835 7.07646 19.6583 7.10005 19.7213 7.14383C19.7842 7.1876 19.8324 7.24949 19.8594 7.32127L21.4163 11.5142H2.47Z" fill="black"/>
</svg>
