<svg width="24" height="24" viewBox="0 0 24 24" fill="none" xmlns="http://www.w3.org/2000/svg">
<path d="M18.6667 12.5102C18.2382 12.5102 17.8193 12.6372 17.4629 12.8753C17.1066 13.1134 16.8289 13.4518 16.6649 13.8477C16.5009 14.2436 16.4579 14.6792 16.5415 15.0995C16.6251 15.5198 16.8315 15.9059 17.1345 16.209C17.4375 16.512 17.8236 16.7183 18.2439 16.802C18.6642 16.8856 19.0998 16.8427 19.4958 16.6787C19.8917 16.5147 20.2301 16.237 20.4682 15.8807C20.7062 15.5243 20.8333 15.1054 20.8333 14.6769C20.8333 14.1023 20.6051 13.5512 20.1987 13.1448C19.7924 12.7385 19.2413 12.5102 18.6667 12.5102ZM18.6667 15.9602C18.4129 15.9602 18.1647 15.885 17.9536 15.7439C17.7425 15.6029 17.578 15.4024 17.4809 15.1679C17.3838 14.9333 17.3584 14.6753 17.4079 14.4263C17.4575 14.1773 17.5797 13.9486 17.7593 13.7692C17.9388 13.5897 18.1675 13.4675 18.4165 13.418C18.6655 13.3685 18.9236 13.394 19.1581 13.4912C19.3926 13.5884 19.593 13.753 19.734 13.9641C19.8749 14.1753 19.9501 14.4234 19.95 14.6773C19.9495 15.0175 19.8141 15.3435 19.5736 15.584C19.333 15.8245 19.0069 15.9598 18.6667 15.9602ZM5.33332 12.5102C4.9048 12.5102 4.48591 12.6373 4.1296 12.8753C3.7733 13.1134 3.49559 13.4518 3.33159 13.8476C3.16758 14.2435 3.12465 14.6792 3.20822 15.0995C3.29179 15.5197 3.49811 15.9058 3.80109 16.2088C4.10407 16.5119 4.4901 16.7183 4.91037 16.8019C5.33064 16.8856 5.76628 16.8427 6.1622 16.6788C6.55812 16.5149 6.89654 16.2372 7.13467 15.8809C7.3728 15.5247 7.49994 15.1058 7.50002 14.6773C7.50007 14.3927 7.44406 14.1109 7.3352 13.848C7.22634 13.5851 7.06675 13.3462 6.86555 13.145C6.66434 12.9437 6.42547 12.7841 6.16257 12.6752C5.89967 12.5663 5.61789 12.5102 5.33332 12.5102ZM5.33332 15.9769C5.0762 15.9769 4.82486 15.9007 4.61108 15.7578C4.39729 15.615 4.23067 15.4119 4.13227 15.1744C4.03388 14.9368 4.00813 14.6755 4.0583 14.4233C4.10846 14.1711 4.23227 13.9395 4.41408 13.7577C4.59589 13.5759 4.82752 13.452 5.0797 13.4019C5.33187 13.3517 5.59326 13.3775 5.83081 13.4759C6.06835 13.5742 6.27138 13.7409 6.41423 13.9547C6.55707 14.1684 6.63332 14.4198 6.63332 14.6769C6.63303 15.0216 6.49598 15.3522 6.25226 15.596C6.00854 15.8398 5.67805 15.9769 5.33332 15.9773V15.9769ZM23.8955 9.1369C23.8628 9.07993 23.8192 9.02998 23.7672 8.98994C23.7151 8.94989 23.6557 8.92054 23.5922 8.90357C23.5288 8.88659 23.4626 8.88234 23.3975 8.89105C23.3324 8.89975 23.2697 8.92125 23.2129 8.9543L21.2197 10.1043C20.7707 10.3633 20.2615 10.4996 19.7432 10.4998H4.25682C3.73843 10.4998 3.22914 10.3636 2.78002 10.1047L0.787117 8.9543C0.730202 8.91847 0.666645 8.89449 0.600249 8.8838C0.533852 8.87311 0.465981 8.87592 0.400696 8.89207C0.335411 8.90822 0.274055 8.93737 0.220299 8.97778C0.166544 9.01819 0.121493 9.06903 0.0878426 9.12726C0.0541925 9.18549 0.0326349 9.24991 0.0244599 9.31666C0.0162848 9.38342 0.0216603 9.45113 0.0402646 9.51576C0.0588689 9.58039 0.0903197 9.6406 0.132735 9.69279C0.17515 9.74498 0.227658 9.78807 0.287117 9.8195L2.28002 10.9702C2.88093 11.3172 3.56259 11.5 4.25652 11.5002H19.7432C20.4371 11.5 21.1188 11.3172 21.7197 10.9702L23.7129 9.8202C23.7699 9.78746 23.8199 9.74377 23.8599 9.69166C23.9 9.63954 23.9293 9.58002 23.9463 9.51652C23.9633 9.45302 23.9675 9.38679 23.9588 9.32164C23.9501 9.25649 23.9286 9.19371 23.8955 9.1369Z" fill="black"/>
</svg>
