<svg width="24" height="24" viewBox="0 0 24 24" fill="none" xmlns="http://www.w3.org/2000/svg">
<path d="M6.5 12.8472C6.20333 12.8472 5.91332 12.9352 5.66664 13.1C5.41997 13.2648 5.22771 13.4991 5.11418 13.7732C5.00065 14.0473 4.97094 14.3489 5.02882 14.6398C5.0867 14.9308 5.22956 15.1981 5.43934 15.4079C5.64912 15.6176 5.91639 15.7605 6.20736 15.8184C6.49834 15.8763 6.79994 15.8465 7.07403 15.733C7.34811 15.6195 7.58238 15.4272 7.7472 15.1806C7.91203 14.9339 8 14.6439 8 14.3472C8 13.9494 7.84196 13.5678 7.56066 13.2865C7.27936 13.0052 6.89782 12.8472 6.5 12.8472ZM6.5 14.9972C6.37144 14.9972 6.24577 14.9591 6.13888 14.8877C6.03199 14.8162 5.94868 14.7147 5.89948 14.5959C5.85028 14.4772 5.83741 14.3465 5.86249 14.2204C5.88757 14.0943 5.94948 13.9785 6.04038 13.8876C6.13128 13.7967 6.2471 13.7348 6.37319 13.7097C6.49928 13.6846 6.62997 13.6975 6.74874 13.7467C6.86752 13.7959 6.96903 13.8792 7.04046 13.9861C7.11188 14.093 7.15 14.2186 7.15 14.3472C7.14979 14.5195 7.08124 14.6847 6.95939 14.8066C6.83753 14.9284 6.67233 14.997 6.5 14.9972ZM23 8.32H20.3153C20.1365 7.5562 19.9325 6.798 19.6838 6.0518C19.4848 5.45437 19.1028 4.93471 18.592 4.56645C18.0812 4.1982 17.4674 4.00002 16.8377 4H13.48L12.9466 2H10.62L10.0841 4H7.1623C6.53265 3.99999 5.91895 4.19809 5.40814 4.56625C4.89734 4.93441 4.51532 5.45396 4.3162 6.0513C4.0675 6.7974 3.8635 7.5557 3.6847 8.3195H1V10.75L3.1559 11.4986C3.05771 12.3832 3.00568 13.2722 3 14.1622V20.34C3 20.4267 3.01707 20.5125 3.05024 20.5926C3.08341 20.6726 3.13202 20.7454 3.19331 20.8067C3.2546 20.868 3.32735 20.9166 3.40743 20.9498C3.4875 20.9829 3.57333 21 3.66 21H5.34C5.51504 21 5.68292 20.9305 5.80669 20.8067C5.93046 20.6829 6 20.515 6 20.34V19H18V20.34C18 20.515 18.0695 20.6829 18.1933 20.8067C18.3171 20.9305 18.485 21 18.66 21H20.34C20.515 21 20.6829 20.9305 20.8067 20.8067C20.9305 20.6829 21 20.515 21 20.34V14.1622C20.9943 13.2722 20.9423 12.3831 20.8441 11.4985L23 10.75V8.32ZM3.2791 10.4828L2 10.0386V9.32H3.4808C3.4064 9.7062 3.3356 10.093 3.2791 10.4828ZM11.3871 3H12.1783L12.4449 4H11.1192L11.3871 3ZM5.2649 6.3676C5.3973 5.96915 5.65189 5.62256 5.99251 5.37706C6.33312 5.13155 6.74243 4.99962 7.1623 5H16.8377C17.2576 4.9996 17.6669 5.13153 18.0075 5.37704C18.3481 5.62254 18.6027 5.96915 18.7351 6.3676C19.1972 7.76769 19.5326 9.20648 19.7372 10.6666H4.2628C4.4674 9.20648 4.80278 7.76769 5.2649 6.3676ZM20 20H19V18H5V20H4V14.1622C4.00499 13.3285 4.05229 12.4955 4.1417 11.6666H19.8583C19.9477 12.4955 19.995 13.3285 20 14.1622V20ZM22 10.0386L20.7208 10.4828C20.6643 10.0928 20.5936 9.7062 20.5192 9.3195H22V10.0386ZM17.5 12.8472C17.2033 12.8472 16.9133 12.9352 16.6666 13.1C16.42 13.2648 16.2277 13.4991 16.1142 13.7732C16.0007 14.0473 15.9709 14.3489 16.0288 14.6398C16.0867 14.9308 16.2296 15.1981 16.4393 15.4079C16.6491 15.6176 16.9164 15.7605 17.2074 15.8184C17.4983 15.8763 17.7999 15.8465 18.074 15.733C18.3481 15.6195 18.5824 15.4272 18.7472 15.1806C18.912 14.9339 19 14.6439 19 14.3472C19 13.9494 18.842 13.5678 18.5607 13.2865C18.2794 13.0052 17.8978 12.8472 17.5 12.8472ZM17.5 14.9972C17.3714 14.9972 17.2458 14.9591 17.1389 14.8877C17.032 14.8162 16.9487 14.7147 16.8995 14.5959C16.8503 14.4772 16.8374 14.3465 16.8625 14.2204C16.8876 14.0943 16.9495 13.9785 17.0404 13.8876C17.1313 13.7967 17.2471 13.7348 17.3732 13.7097C17.4993 13.6846 17.63 13.6975 17.7487 13.7467C17.8675 13.7959 17.969 13.8792 18.0405 13.9861C18.1119 14.093 18.15 14.2186 18.15 14.3472C18.1498 14.5195 18.0812 14.6847 17.9594 14.8066C17.8375 14.9284 17.6723 14.997 17.5 14.9972Z" fill="black"/>
</svg>
