<svg width="24" height="24" viewBox="0 0 24 24" fill="none" xmlns="http://www.w3.org/2000/svg">
<path d="M24 16.9998C24 16.9998 23.994 13.3641 23.9827 13.3146C23.9624 12.955 23.8423 12.608 23.6359 12.3127C23.4295 12.0174 23.145 11.7854 22.8142 11.6427C21.5556 11.0883 20.2246 10.7154 18.8611 10.5352C18.7673 10.5206 18.7011 10.5146 18.6 10.5057L16.204 7.95524C15.9515 7.69062 15.6766 7.44826 15.3824 7.23084C14.5132 6.57027 13.4615 6.19367 12.3705 6.15234H2.57L0.76 9.32734C0.45368 9.86497 0.199201 10.4305 0 11.0163L0 16.3031L3.27 16.9189C3.35481 17.6603 3.70692 18.3453 4.26041 18.8457C4.81391 19.3462 5.53083 19.6277 6.27694 19.6376C7.02306 19.6475 7.74721 19.3852 8.31381 18.8996C8.88041 18.4141 9.25061 17.7387 9.3551 16.9998H16.4036C16.5072 17.7319 16.8717 18.402 17.43 18.8867C17.9882 19.3715 18.7027 19.6385 19.4421 19.6385C20.1815 19.6385 20.896 19.3715 21.4542 18.8867C22.0125 18.402 22.377 17.7319 22.4806 16.9998H24ZM1.9678 10.1089L3.426 7.58564H12.3705C13.1254 7.62239 13.8522 7.88353 14.4578 8.33564C14.713 8.51748 14.9516 8.72161 15.1707 8.94564L16.6456 10.4998H1.7627C1.82446 10.3662 1.89291 10.2357 1.9678 10.1089ZM6.3167 18.3389C5.96399 18.339 5.6192 18.2344 5.32592 18.0385C5.03264 17.8425 4.80404 17.564 4.66903 17.2382C4.53402 16.9124 4.49866 16.5538 4.56742 16.2079C4.63618 15.8619 4.80597 15.5441 5.05533 15.2947C5.30469 15.0453 5.62242 14.8754 5.96833 14.8065C6.31425 14.7376 6.67282 14.7728 6.99871 14.9077C7.3246 15.0426 7.60317 15.2712 7.79919 15.5644C7.99522 15.8576 8.0999 16.2023 8.1 16.555C8.09944 17.0278 7.91139 17.4811 7.57708 17.8154C7.24277 18.1498 6.7895 18.3379 6.3167 18.3384V18.3389ZM19.4421 18.3389C19.0894 18.339 18.7445 18.2344 18.4512 18.0385C18.1579 17.8425 17.9293 17.564 17.7943 17.2382C17.6593 16.9123 17.624 16.5537 17.6927 16.2077C17.7615 15.8618 17.9314 15.544 18.1808 15.2946C18.4302 15.0451 18.748 14.8753 19.0939 14.8064C19.4399 14.7376 19.7984 14.7729 20.1243 14.9079C20.4502 15.0429 20.7288 15.2714 20.9247 15.5647C21.1207 15.858 21.2253 16.2028 21.2253 16.5555C21.2246 17.0282 21.0365 17.4814 20.7023 17.8156C20.368 18.1498 19.9148 18.3379 19.4421 18.3384V18.3389Z" fill="black"/>
</svg>
