<svg width="24" height="24" viewBox="0 0 24 24" fill="none" xmlns="http://www.w3.org/2000/svg">
<path d="M22.3958 13.4412C22.3971 13.0878 22.2994 12.741 22.1136 12.4403C21.9278 12.1396 21.6615 11.897 21.3448 11.74C19.9049 11.0363 18.3433 10.6151 16.7448 10.4992L14.0319 7.83542C13.3776 7.19279 12.4971 6.83266 11.58 6.83252H5.24001L2.27631 9.91872C1.91857 10.2912 1.7188 10.7877 1.71881 11.3041V16.2L3.31241 16.6026C3.3356 17.1459 3.55532 17.6622 3.9307 18.0556C4.30607 18.449 4.81156 18.6926 5.35312 18.7412C5.89469 18.7898 6.43547 18.64 6.87487 18.3197C7.31428 17.9994 7.62239 17.5305 7.74191 17H16.1168C16.229 17.497 16.5069 17.9411 16.9049 18.2593C17.3029 18.5775 17.7973 18.7508 18.3068 18.7508C18.8163 18.7508 19.3107 18.5775 19.7087 18.2593C20.1067 17.9411 20.3846 17.497 20.4968 17H22.3962L22.3958 13.4412ZM2.63691 10.265L5.45331 7.33252H11.58C12.3667 7.33082 13.1221 7.63991 13.682 8.19252L16.0311 10.4995H2.48521C2.52829 10.4168 2.57908 10.3382 2.63691 10.265ZM5.55211 18.25C5.20599 18.25 4.86765 18.1474 4.57986 17.9551C4.29208 17.7628 4.06778 17.4895 3.93532 17.1697C3.80287 16.8499 3.76821 16.4981 3.83574 16.1586C3.90326 15.8191 4.06993 15.5073 4.31467 15.2626C4.55942 15.0178 4.87124 14.8512 5.2107 14.7836C5.55017 14.7161 5.90204 14.7508 6.22181 14.8832C6.54158 15.0157 6.81489 15.24 7.00718 15.5278C7.19948 15.8156 7.30211 16.1539 7.30211 16.5C7.30161 16.964 7.11707 17.4088 6.78899 17.7369C6.46091 18.065 6.01609 18.2495 5.55211 18.25ZM18.3066 18.25C17.9605 18.25 17.6222 18.1474 17.3344 17.9551C17.0466 17.7628 16.8223 17.4895 16.6898 17.1697C16.5574 16.8499 16.5227 16.4981 16.5902 16.1586C16.6578 15.8191 16.8244 15.5073 17.0692 15.2626C17.3139 15.0178 17.6257 14.8512 17.9652 14.7836C18.3047 14.7161 18.6565 14.7508 18.9763 14.8832C19.2961 15.0157 19.5694 15.24 19.7617 15.5278C19.954 15.8156 20.0566 16.1539 20.0566 16.5C20.0561 16.964 19.8716 17.4088 19.5435 17.7369C19.2154 18.065 18.7706 18.2495 18.3066 18.25ZM21.8958 16.5H20.5566C20.5566 15.9033 20.3196 15.331 19.8976 14.909C19.4756 14.4871 18.9033 14.25 18.3066 14.25C17.7099 14.25 17.1376 14.4871 16.7156 14.909C16.2937 15.331 16.0566 15.9033 16.0566 16.5H7.80211C7.8026 15.9388 7.5931 15.3976 7.21481 14.983C6.83651 14.5684 6.31679 14.3103 5.75783 14.2595C5.19888 14.2087 4.64113 14.3688 4.19426 14.7084C3.7474 15.048 3.44374 15.5425 3.34301 16.0946L2.21881 15.8106V11.3041C2.2276 11.2007 2.24727 11.0984 2.27751 10.9991H16.7175C18.2485 11.111 19.7439 11.5147 21.1232 12.1884C21.3566 12.3036 21.5529 12.4822 21.6895 12.7038C21.8261 12.9253 21.8974 13.1809 21.8954 13.4412L21.8958 16.5Z" fill="black"/>
</svg>
