<svg width="24" height="24" viewBox="0 0 24 24" fill="none" xmlns="http://www.w3.org/2000/svg">
<g clip-path="url(#clip0)">
<path d="M9.5 2H8.5V5H9.5V2ZM5.1113 6.4038L2.9893 4.2827L2.2822 4.9897L4.4043 7.1108L5.1113 6.4038ZM3 10.5H0V11.5H3V10.5ZM2.2822 17.01L2.9893 17.717L5.1113 15.5959L4.4043 14.8889L2.2822 17.01ZM15.5029 4.7588L14.7729 4.0771L12.7266 6.271L13.4566 6.9526L15.5029 4.7588ZM21.1288 12.1814C21.0329 11.254 20.6611 10.3767 20.0613 9.66284C19.4616 8.94901 18.6615 8.43149 17.7645 8.1772C16.8675 7.9229 15.9149 7.94352 15.0297 8.23638C14.1446 8.52924 13.3676 9.08089 12.7993 9.82C12.6061 9.18564 12.2577 8.6095 11.7856 8.14377C11.3135 7.67805 10.7327 7.33746 10.0958 7.15285C9.45888 6.96825 8.78596 6.94546 8.13801 7.08656C7.49006 7.22766 6.88755 7.52818 6.38505 7.9609C5.88256 8.39362 5.49596 8.94487 5.26028 9.56471C5.0246 10.1846 4.94729 10.8534 5.03534 11.5107C5.12339 12.1679 5.37403 12.7928 5.76455 13.3288C6.15507 13.8647 6.67313 14.2948 7.2718 14.58C7.03593 15.1845 6.95162 15.8375 7.02624 16.4821C7.10086 17.1267 7.33213 17.7432 7.69987 18.2778C8.06761 18.8124 8.56063 19.2489 9.13588 19.5491C9.71114 19.8493 10.3511 20.0041 11 20H20C20.9611 20.0027 21.8909 19.6582 22.6184 19.03C23.3458 18.4018 23.822 17.5321 23.9593 16.5808C24.0967 15.6296 23.886 14.6607 23.3659 13.8524C22.8458 13.0441 22.0514 12.4507 21.1288 12.1814ZM6 11C6 10.2044 6.31607 9.44129 6.87868 8.87868C7.44129 8.31607 8.20435 8 9 8C9.79565 8 10.5587 8.31607 11.1213 8.87868C11.6839 9.44129 12 10.2044 12 11C11.9977 11.3418 11.9343 11.6805 11.8128 12H11C10.3586 12.0004 9.72683 12.1553 9.15812 12.4518C8.5894 12.7483 8.10055 13.1775 7.733 13.7031C7.21666 13.4644 6.77924 13.0832 6.47223 12.6043C6.16521 12.1254 6.00138 11.5688 6 11ZM20 19H11C10.2044 19 9.44129 18.6839 8.87868 18.1213C8.31607 17.5587 8 16.7956 8 16C8 15.2044 8.31607 14.4413 8.87868 13.8787C9.44129 13.3161 10.2044 13 11 13H12.7233L12.8507 12.1478C12.9783 11.2616 13.4254 10.4527 14.1078 9.87311C14.7902 9.29357 15.6609 8.98341 16.5561 9.00101C17.4512 9.0186 18.309 9.36274 18.9682 9.96866C19.6273 10.5746 20.0422 11.4005 20.1349 12.291L20.2077 12.9517L20.8452 13.1403C21.4664 13.3179 22.0129 13.6931 22.4017 14.2091C22.7906 14.7252 23.0006 15.3539 23 16C22.9991 16.7954 22.6827 17.5579 22.1203 18.1203C21.5579 18.6827 20.7954 18.9991 20 19Z" fill="black"/>
</g>
<defs>
<clipPath id="clip0">
<rect width="24" height="24" fill="white"/>
</clipPath>
</defs>
</svg>
