<svg width="24" height="24" viewBox="0 0 24 24" fill="none" xmlns="http://www.w3.org/2000/svg">
<path d="M22 11.242H17.228L20.453 8.016L19.547 7.109L15.413 11.242H12.758V8.587L16.891 4.454L15.984 3.546L12.758 6.772V2H11.242V6.772L8.016 3.546L7.109 4.454L11.242 8.587V11.242H8.587L4.454 7.109L3.546 8.016L6.772 11.242H2V12.758H6.772L3.546 15.984L4.454 16.891L8.587 12.758H11.242V15.413L7.109 19.546L8.016 20.454L11.242 17.228V22H12.758V17.228L15.984 20.454L16.891 19.546L12.758 15.413V12.758H15.413L19.547 16.891L20.453 15.984L17.228 12.758H22V11.242Z" fill="black"/>
</svg>
