<svg width="24" height="24" viewBox="0 0 24 24" fill="none" xmlns="http://www.w3.org/2000/svg">
<path d="M4.14518 22.1453C4.14518 22.372 4.23526 22.5895 4.3956 22.7499C4.55594 22.9102 4.77342 23.0003 5.00018 23.0003C5.22694 23.0003 5.44441 22.9102 5.60475 22.7499C5.7651 22.5895 5.85518 22.372 5.85518 22.1453C5.64126 20.7979 5.35579 19.4629 4.99998 18.1459C4.6443 19.4629 4.35896 20.7979 4.14518 22.1453ZM18.1452 22.1453C18.1452 22.372 18.2353 22.5895 18.3956 22.7499C18.5559 22.9102 18.7734 23.0003 19.0002 23.0003C19.2269 23.0003 19.4444 22.9102 19.6048 22.7499C19.7651 22.5895 19.8552 22.372 19.8552 22.1453C19.6413 20.7979 19.3558 19.4629 19 18.1459C18.6443 19.4629 18.359 20.7979 18.1452 22.1453ZM20.6414 8.36008C20.6478 8.25758 20.6721 8.16008 20.6721 8.05608C20.6721 7.40683 20.5442 6.76394 20.2957 6.16411C20.0473 5.56428 19.6831 5.01927 19.224 4.56018C18.7649 4.1011 18.2199 3.73693 17.6201 3.48849C17.0202 3.24004 16.3773 3.11217 15.7281 3.11218C14.885 3.1174 14.0577 3.34049 13.3263 3.75978C12.5458 2.93912 11.5371 2.37135 10.4306 2.1298C9.32413 1.88826 8.17063 1.98404 7.11913 2.40478C6.06763 2.82552 5.16644 3.55188 4.53198 4.49003C3.89753 5.42819 3.55894 6.53503 3.55998 7.66758C3.56026 7.86801 3.57107 8.06829 3.59238 8.26758C2.71544 8.59577 1.98172 9.2217 1.51947 10.036C1.05722 10.8503 0.895835 11.8011 1.06353 12.7223C1.23122 13.6435 1.71732 14.4765 2.43687 15.0756C3.15642 15.6748 4.06364 16.002 4.99998 16.0001H11.0226L9.98258 19.9634H12.3587L11.454 23.4752L14.646 18.4634H11.8741L12.5221 16.0001H19C19.9147 16.0012 20.802 15.6884 21.5138 15.114C22.2256 14.5395 22.7188 13.7383 22.9109 12.844C23.103 11.9497 22.9825 11.0166 22.5694 10.2005C22.1564 9.38442 21.4758 8.73477 20.6414 8.36008Z" fill="black"/>
</svg>
