<svg width="24" height="24" viewBox="0 0 24 24" fill="none" xmlns="http://www.w3.org/2000/svg">
<g clip-path="url(#clip0)">
<path d="M9 3.00002C8.09577 2.99741 7.20271 3.1998 6.38794 3.59198C5.57317 3.98415 4.8579 4.55591 4.29589 5.26428C3.73387 5.97264 3.33973 6.79919 3.1431 7.68179C2.94646 8.56438 2.95245 9.48007 3.1606 10.36C2.07878 10.7872 1.17996 11.5785 0.61918 12.5974C0.0583998 13.6164 -0.129171 14.7992 0.0888244 15.9416C0.30682 17.0841 0.916711 18.1147 1.81329 18.8556C2.70987 19.5965 3.83691 20.0012 5 20H19C20.0682 20.0005 21.1084 19.6587 21.9682 19.0248C22.8279 18.3909 23.462 17.4982 23.7773 16.4776C24.0927 15.457 24.0728 14.3623 23.7205 13.3539C23.3683 12.3454 22.7022 11.4764 21.82 10.8741C22.1 9.79287 22.0439 8.65198 21.6592 7.60341C21.2745 6.55483 20.5795 5.64833 19.6667 5.00464C18.754 4.36094 17.6667 4.0106 16.5499 4.00027C15.433 3.98995 14.3395 4.32012 13.415 4.94683C12.8548 4.33332 12.1728 3.84333 11.4127 3.50813C10.6525 3.17293 9.8308 2.99988 9 3.00002Z" fill="black"/>
</g>
<defs>
<clipPath id="clip0">
<rect width="24" height="24" fill="white"/>
</clipPath>
</defs>
</svg>
