<svg width="24" height="24" viewBox="0 0 24 24" fill="none" xmlns="http://www.w3.org/2000/svg">
<path d="M12.25 4H11.75V6H12.25V4ZM6.1665 6.52L7.5806 7.9341L7.9341 7.5806L6.52 6.1665L6.1665 6.52ZM4 12.25H6V11.75H4V12.25ZM6.1665 17.48L6.52 17.8335L7.9341 16.4184L7.5806 16.0649L6.1665 17.48ZM11.75 20H12.25V18H11.75V20ZM16.0659 16.4189L17.48 17.834L17.8335 17.4805L16.4194 16.0654L16.0659 16.4189ZM18 11.75V12.25H20V11.75H18ZM16.0659 7.5806L16.4194 7.9341L17.8335 6.52L17.48 6.1665L16.0659 7.5806ZM12 8C11.2089 8 10.4355 8.2346 9.77772 8.67412C9.11992 9.11365 8.60723 9.73836 8.30448 10.4693C8.00173 11.2002 7.92252 12.0044 8.07686 12.7804C8.2312 13.5563 8.61216 14.269 9.17157 14.8284C9.73098 15.3878 10.4437 15.7688 11.2196 15.9231C11.9956 16.0775 12.7998 15.9983 13.5307 15.6955C14.2616 15.3928 14.8864 14.8801 15.3259 14.2223C15.7654 13.5645 16 12.7911 16 12C16 10.9391 15.5786 9.92172 14.8284 9.17157C14.0783 8.42143 13.0609 8 12 8ZM12 15.5C11.3078 15.5 10.6311 15.2947 10.0555 14.9101C9.47993 14.5256 9.03133 13.9789 8.76642 13.3394C8.50151 12.6999 8.4322 11.9961 8.56725 11.3172C8.7023 10.6382 9.03564 10.0146 9.52513 9.52513C10.0146 9.03564 10.6382 8.7023 11.3172 8.56725C11.9961 8.4322 12.6999 8.50151 13.3394 8.76642C13.9789 9.03133 14.5256 9.47993 14.9101 10.0555C15.2947 10.6311 15.5 11.3078 15.5 12C15.4989 12.9279 15.1299 13.8176 14.4737 14.4737C13.8176 15.1299 12.9279 15.4989 12 15.5Z" fill="black"/>
</svg>
