<svg width="24" height="24" viewBox="0 0 24 24" fill="none" xmlns="http://www.w3.org/2000/svg">
<path d="M20.6414 8.36008C20.6478 8.25758 20.6721 8.16008 20.6721 8.05608C20.6721 7.40683 20.5442 6.76394 20.2957 6.16411C20.0473 5.56428 19.6831 5.01927 19.224 4.56018C18.7649 4.1011 18.2199 3.73693 17.6201 3.48849C17.0202 3.24004 16.3773 3.11217 15.7281 3.11218C14.885 3.1174 14.0577 3.34049 13.3263 3.75978C12.5458 2.93912 11.5371 2.37135 10.4306 2.1298C9.32413 1.88826 8.17063 1.98404 7.11913 2.40478C6.06763 2.82552 5.16644 3.55188 4.53198 4.49003C3.89753 5.42819 3.55894 6.53503 3.55998 7.66758C3.56026 7.86801 3.57107 8.06829 3.59238 8.26758C2.71544 8.59577 1.98172 9.2217 1.51947 10.036C1.05722 10.8503 0.895835 11.8011 1.06353 12.7223C1.23122 13.6435 1.71732 14.4765 2.43687 15.0756C3.15642 15.6748 4.06364 16.002 4.99998 16.0001H19C19.9147 16.0012 20.802 15.6884 21.5138 15.114C22.2256 14.5395 22.7188 13.7383 22.9109 12.844C23.103 11.9497 22.9825 11.0166 22.5694 10.2005C22.1564 9.38442 21.4758 8.73477 20.6414 8.36008ZM13.915 18.8175L12.5 19.6344V18.0001H11.5V19.6344L10.085 18.8175L9.58498 19.6827L11.0007 20.5001L9.58498 21.3175L10.085 22.1827L11.5 21.3658V23.0001H12.5V21.3658L13.915 22.1827L14.415 21.3175L12.9993 20.5001L14.415 19.6827L13.915 18.8175ZM20.915 18.8175L19.5 19.6344V18.0001H18.5V19.6344L17.085 18.8175L16.585 19.6827L18.0007 20.5001L16.585 21.3175L17.085 22.1827L18.5 21.3658V23.0001H19.5V21.3658L20.915 22.1827L21.415 21.3175L19.9993 20.5001L21.415 19.6827L20.915 18.8175ZM6.91498 18.8175L5.49998 19.6344V18.0001H4.49998V19.6344L3.08498 18.8175L2.58498 19.6827L4.00068 20.5001L2.58498 21.3175L3.08498 22.1827L4.49998 21.3658V23.0001H5.49998V21.3658L6.91498 22.1827L7.41498 21.3175L5.99928 20.5001L7.41498 19.6827L6.91498 18.8175Z" fill="black"/>
</svg>
