<svg width="24" height="24" viewBox="0 0 24 24" fill="none" xmlns="http://www.w3.org/2000/svg">
<path d="M16.5 15H4V14H16.5C16.9945 14 17.4778 13.8534 17.8889 13.5787C18.3 13.304 18.6205 12.9135 18.8097 12.4567C18.9989 11.9999 19.0484 11.4972 18.952 11.0123C18.8555 10.5273 18.6174 10.0819 18.2678 9.73223C17.9181 9.3826 17.4727 9.1445 16.9877 9.04804C16.5028 8.95158 16.0001 9.00108 15.5433 9.1903C15.0865 9.37952 14.696 9.69995 14.4213 10.1111C14.1466 10.5222 14 11.0055 14 11.5V12H13V11.5C13 10.8078 13.2053 10.1311 13.5899 9.55551C13.9744 8.97993 14.5211 8.53133 15.1606 8.26642C15.8001 8.00152 16.5039 7.9322 17.1828 8.06725C17.8617 8.2023 18.4854 8.53564 18.9749 9.02513C19.4644 9.51461 19.7977 10.1383 19.9327 10.8172C20.0678 11.4961 19.9985 12.1999 19.7336 12.8394C19.4687 13.4789 19.0201 14.0256 18.4445 14.4101C17.8689 14.7947 17.1922 15 16.5 15Z" fill="black"/>
</svg>
