<svg width="24" height="24" viewBox="0 0 24 24" fill="none" xmlns="http://www.w3.org/2000/svg">
<path d="M3.62998 21.6301C3.62998 21.9935 3.77436 22.3421 4.03136 22.5991C4.28836 22.8561 4.63692 23.0005 5.00038 23.0005C5.36383 23.0005 5.7124 22.8561 5.9694 22.5991C6.2264 22.3421 6.37078 21.9935 6.37078 21.6301C6.10801 20.3751 5.64517 19.1706 4.99998 18.0626C4.35506 19.1706 3.89249 20.3752 3.62998 21.6301ZM5.59078 21.6301C5.59078 21.7867 5.52858 21.9368 5.41787 22.0475C5.30716 22.1582 5.157 22.2204 5.00043 22.2204C4.84386 22.2204 4.6937 22.1582 4.58299 22.0475C4.47227 21.9368 4.41008 21.7867 4.41008 21.6301C4.508 20.996 4.70718 20.3818 4.99998 19.811C5.29292 20.3818 5.49214 20.996 5.58998 21.6301H5.59078ZM17.63 21.6301C17.63 21.9935 17.7744 22.3421 18.0314 22.5991C18.2884 22.8561 18.6369 23.0005 19.0004 23.0005C19.3638 23.0005 19.7124 22.8561 19.9694 22.5991C20.2264 22.3421 20.3708 21.9935 20.3708 21.6301C20.108 20.3751 19.6452 19.1706 19 18.0626C18.3551 19.1706 17.8925 20.3752 17.63 21.6301ZM19.5908 21.6301C19.5908 21.7076 19.5755 21.7844 19.5458 21.856C19.5162 21.9276 19.4727 21.9927 19.4179 22.0475C19.363 22.1023 19.298 22.1458 19.2263 22.1755C19.1547 22.2052 19.078 22.2204 19.0004 22.2204C18.9229 22.2204 18.8461 22.2052 18.7745 22.1755C18.7029 22.1458 18.6378 22.1023 18.583 22.0475C18.5282 21.9927 18.4847 21.9276 18.455 21.856C18.4253 21.7844 18.4101 21.7076 18.4101 21.6301C18.508 20.996 18.7072 20.3818 19 19.811C19.2929 20.3818 19.4921 20.996 19.59 21.6301H19.5908ZM20.6414 8.36008C20.6478 8.25758 20.6721 8.16008 20.6721 8.05608C20.6721 7.40683 20.5442 6.76394 20.2957 6.16411C20.0473 5.56428 19.6831 5.01927 19.224 4.56018C18.7649 4.1011 18.2199 3.73693 17.6201 3.48849C17.0202 3.24004 16.3773 3.11217 15.7281 3.11218C14.885 3.1174 14.0577 3.34049 13.3263 3.75978C12.5458 2.93912 11.5371 2.37135 10.4306 2.1298C9.32413 1.88826 8.17063 1.98404 7.11913 2.40478C6.06763 2.82552 5.16644 3.55188 4.53198 4.49003C3.89753 5.42819 3.55894 6.53503 3.55998 7.66758C3.56026 7.86801 3.57107 8.06829 3.59238 8.26758C2.71544 8.59577 1.98172 9.2217 1.51947 10.036C1.05722 10.8503 0.895835 11.8011 1.06353 12.7223C1.23122 13.6435 1.71732 14.4765 2.43687 15.0756C3.15642 15.6748 4.06364 16.002 4.99998 16.0001H11.2309L10.1909 19.9267H12.9309L12.0261 23.4385L14.4387 18.9267H11.4531L12.2305 16.0001H19C19.9147 16.0012 20.802 15.6884 21.5138 15.114C22.2256 14.5395 22.7188 13.7383 22.9109 12.844C23.103 11.9497 22.9825 11.0166 22.5694 10.2005C22.1564 9.38442 21.4758 8.73477 20.6414 8.36008ZM19 15.0001H4.99998C4.2046 14.9992 3.44206 14.6828 2.87965 14.1204C2.31724 13.558 2.00088 12.7955 1.99998 12.0001C1.99853 11.3907 2.18445 10.7955 2.53253 10.2953C2.88061 9.79507 3.37404 9.41392 3.94598 9.20348L4.66828 8.93078L4.58728 8.16308C4.51702 7.51193 4.58472 6.85328 4.78598 6.23004C4.98723 5.6068 5.31752 5.03295 5.75533 4.54586C6.19315 4.05877 6.72866 3.66938 7.32699 3.40304C7.92532 3.13671 8.57305 2.99941 9.22798 3.00008C9.85969 2.99849 10.485 3.12632 11.0654 3.3757C11.6459 3.62509 12.169 3.99073 12.6027 4.45008L13.1383 5.01168L13.8152 4.63218C14.3971 4.29622 15.0562 4.11705 15.7281 4.11218C16.7711 4.11246 17.7716 4.52573 18.5108 5.26163C19.2499 5.99752 19.6677 6.99616 19.6726 8.03918L19.6656 8.09328C19.6556 8.16108 19.6476 8.22898 19.6433 8.29828L19.6006 8.98708L20.2296 9.27138C20.8557 9.55185 21.3666 10.0388 21.6768 10.6508C21.987 11.2627 22.0777 11.9626 21.9337 12.6335C21.7897 13.3043 21.4198 13.9053 20.8858 14.3361C20.3518 14.7669 19.6861 15.0013 19 15.0001Z" fill="black"/>
</svg>
