<svg width="24" height="24" viewBox="0 0 24 24" fill="none" xmlns="http://www.w3.org/2000/svg">
<path d="M11 4C13.1217 4 15.1566 4.84286 16.6569 6.34315C18.1572 7.84344 19 9.87827 19 12C19 14.1217 18.1572 16.1566 16.6569 17.6569C15.1566 19.1571 13.1217 20 11 20C10.3273 20 9.65724 19.9144 9.00611 19.7452C10.241 18.8661 11.2478 17.7045 11.9426 16.3572C12.6373 15.0099 12.9997 13.5161 12.9997 12.0002C12.9997 10.4844 12.6373 8.99048 11.9426 7.64319C11.2478 6.29591 10.241 5.13428 9.00611 4.2552C9.65723 4.08587 10.3272 4.00011 11 4ZM11 2C8.5429 1.99938 6.17245 2.90794 4.34521 4.5507C6.17607 4.75757 7.86663 5.63143 9.09416 7.00547C10.3217 8.37952 11.0002 10.1575 11.0002 12C11.0002 13.8425 10.3217 15.6205 9.09416 16.9945C7.86663 18.3686 6.17607 19.2424 4.34521 19.4493C5.55343 20.5287 7.00594 21.2983 8.57763 21.6917C10.1493 22.0851 11.7931 22.0905 13.3673 21.7075C14.9416 21.3245 16.3992 20.5646 17.6145 19.4932C18.8298 18.4218 19.7665 17.071 20.3438 15.5572C20.9212 14.0434 21.1219 12.4119 20.9287 10.8033C20.7354 9.19468 20.1541 7.65715 19.2346 6.32313C18.3152 4.98911 17.0853 3.89858 15.6508 3.14548C14.2163 2.39237 12.6202 1.99926 11 2Z" fill="black"/>
</svg>
