<svg width="24" height="24" viewBox="0 0 24 24" fill="none" xmlns="http://www.w3.org/2000/svg">
<path d="M6.94738 21.9475C6.95008 22.2249 7.06218 22.49 7.25929 22.6852C7.45641 22.8804 7.72261 22.9899 8.00003 22.9899C8.27744 22.9899 8.54365 22.8804 8.74076 22.6852C8.93788 22.49 9.04997 22.2249 9.05268 21.9475C8.79742 20.4303 8.4458 18.9309 7.99998 17.4584C7.55419 18.9309 7.20261 20.4303 6.94738 21.9475ZM20.6414 8.36008C20.6477 8.25758 20.672 8.16008 20.672 8.05608C20.672 6.74488 20.1511 5.48738 19.2239 4.56022C18.2968 3.63306 17.0393 3.11218 15.7281 3.11218C14.885 3.1174 14.0577 3.34049 13.3263 3.75978C12.5458 2.93912 11.5371 2.37135 10.4306 2.1298C9.32413 1.88826 8.17063 1.98404 7.11913 2.40478C6.06763 2.82552 5.16644 3.55188 4.53198 4.49003C3.89753 5.42819 3.55894 6.53503 3.55998 7.66758C3.56026 7.86801 3.57107 8.06829 3.59238 8.26758C2.71544 8.59577 1.98172 9.2217 1.51947 10.036C1.05722 10.8503 0.895835 11.8011 1.06353 12.7223C1.23122 13.6435 1.71732 14.4765 2.43687 15.0756C3.15642 15.6748 4.06364 16.002 4.99998 16.0001H19C19.9147 16.0012 20.802 15.6884 21.5138 15.114C22.2256 14.5395 22.7188 13.7383 22.9109 12.844C23.103 11.9497 22.9825 11.0166 22.5694 10.2005C22.1564 9.38442 21.4758 8.73477 20.6414 8.36008ZM17.4147 18.8175L16 19.6344V18.0001H15V19.6344L13.5849 18.8175L13.0849 19.6827L14.5 20.5001L13.0843 21.3175L13.5843 22.1827L15 21.3658V23.0001H16V21.3658L17.415 22.1827L17.915 21.3175L16.499 20.5001L17.9147 19.6827L17.4147 18.8175Z" fill="black"/>
</svg>
