<svg width="24" height="24" viewBox="0 0 24 24" fill="none" xmlns="http://www.w3.org/2000/svg">
<path d="M17 5.75C16.1384 5.75101 15.3123 6.09374 14.703 6.70301C14.0937 7.31229 13.751 8.13836 13.75 9H14.25C14.25 8.4561 14.4113 7.92442 14.7135 7.47218C15.0156 7.01995 15.4451 6.66747 15.9476 6.45933C16.4501 6.25119 17.0031 6.19673 17.5365 6.30284C18.0699 6.40895 18.5599 6.67086 18.9445 7.05546C19.3291 7.44005 19.591 7.93005 19.6972 8.4635C19.8033 8.99695 19.7488 9.54988 19.5407 10.0524C19.3325 10.5549 18.9801 10.9844 18.5278 11.2865C18.0756 11.5887 17.5439 11.75 17 11.75H6V12.25H17C17.862 12.25 18.6886 11.9076 19.2981 11.2981C19.9076 10.6886 20.25 9.86195 20.25 9C20.25 8.13805 19.9076 7.3114 19.2981 6.7019C18.6886 6.09241 17.862 5.75 17 5.75ZM11.25 6C11.2493 5.40347 11.0121 4.83155 10.5903 4.40974C10.1684 3.98793 9.59653 3.75066 9 3.75H8V4.25H9C9.46413 4.25 9.90925 4.43437 10.2374 4.76256C10.5656 5.09075 10.75 5.53587 10.75 6C10.75 6.46413 10.5656 6.90925 10.2374 7.23744C9.90925 7.56563 9.46413 7.75 9 7.75H4V8.25H9C9.59653 8.24934 10.1684 8.01207 10.5903 7.59026C11.0121 7.16845 11.2493 6.59653 11.25 6ZM14 15.75H4V16.25H14C14.4641 16.25 14.9092 16.4344 15.2374 16.7626C15.5656 17.0908 15.75 17.5359 15.75 18C15.75 18.4641 15.5656 18.9092 15.2374 19.2374C14.9092 19.5656 14.4641 19.75 14 19.75H13V20.25H14C14.5967 20.25 15.169 20.0129 15.591 19.591C16.0129 19.169 16.25 18.5967 16.25 18C16.25 17.4033 16.0129 16.831 15.591 16.409C15.169 15.9871 14.5967 15.75 14 15.75Z" fill="black"/>
</svg>
