<svg width="24" height="24" viewBox="0 0 24 24" fill="none" xmlns="http://www.w3.org/2000/svg">
<path d="M20.6414 8.36008C20.6478 8.25758 20.6721 8.16008 20.6721 8.05608C20.6721 7.40683 20.5442 6.76394 20.2957 6.16411C20.0473 5.56428 19.6831 5.01927 19.224 4.56018C18.7649 4.1011 18.2199 3.73693 17.6201 3.48849C17.0202 3.24004 16.3773 3.11217 15.7281 3.11218C14.885 3.1174 14.0577 3.34049 13.3263 3.75978C12.5458 2.93912 11.5371 2.37135 10.4306 2.1298C9.32413 1.88826 8.17063 1.98404 7.11913 2.40478C6.06763 2.82552 5.16644 3.55188 4.53198 4.49003C3.89753 5.42819 3.55894 6.53503 3.55998 7.66758C3.56026 7.86801 3.57107 8.06829 3.59238 8.26758C2.71544 8.59577 1.98172 9.2217 1.51947 10.036C1.05722 10.8503 0.895835 11.8011 1.06353 12.7223C1.23122 13.6435 1.71732 14.4765 2.43687 15.0756C3.15642 15.6748 4.06364 16.002 4.99998 16.0001H19C19.9147 16.0012 20.802 15.6884 21.5138 15.114C22.2256 14.5395 22.7188 13.7383 22.9109 12.844C23.103 11.9497 22.9825 11.0166 22.5694 10.2005C22.1564 9.38442 21.4758 8.73477 20.6414 8.36008ZM19 14.5001H4.99998C4.33716 14.4993 3.70171 14.2357 3.23303 13.767C2.76435 13.2984 2.50072 12.6629 2.49998 12.0001C2.49907 11.4924 2.65425 10.9967 2.94449 10.5801C3.23472 10.1635 3.64599 9.84621 4.12258 9.67118L5.20608 9.26228L5.08458 8.11058C5.0216 7.52913 5.08187 6.94092 5.26145 6.38432C5.44104 5.82771 5.73591 5.3152 6.12684 4.88019C6.51778 4.44519 6.996 4.09745 7.53033 3.85965C8.06467 3.62186 8.64312 3.49934 9.22798 3.50008C9.79199 3.49875 10.3503 3.61298 10.8685 3.83572C11.3866 4.05846 11.8537 4.38499 12.2408 4.79518L13.0443 5.63758L14.06 5.06828C14.5673 4.77451 15.1421 4.61739 15.7283 4.61228C16.6355 4.61331 17.5057 4.97184 18.1504 5.61015C18.795 6.24847 19.1621 7.11514 19.1721 8.02228L19.1714 8.02008L19.1703 8.02408C19.1592 8.10408 19.1494 8.18508 19.1443 8.26728L19.08 9.30078L20.0234 9.72708C20.5452 9.96056 20.971 10.3661 21.2296 10.876C21.4882 11.3858 21.564 11.969 21.4441 12.5279C21.3243 13.0869 21.0161 13.5878 20.5712 13.9467C20.1263 14.3057 19.5716 14.5011 19 14.5001ZM10.44 18.8601L8.94998 19.7201V18.0001H8.04998V19.7209L6.55998 18.8609L6.10998 19.6401L7.59998 20.5001L6.10998 21.3601L6.55998 22.1401L8.04998 21.2801V23.0001H8.94998V21.2793L10.44 22.1393L10.89 21.3601L9.39998 20.5001L10.89 19.6401L10.44 18.8601ZM17.44 18.8601L15.95 19.7201V18.0001H15.05V19.7209L13.56 18.8609L13.11 19.6401L14.6 20.5001L13.11 21.3601L13.5592 22.1393L15.0492 21.2793V23.0001H15.9492V21.2793L17.4392 22.1393L17.89 21.3601L16.4 20.5001L17.89 19.6401L17.44 18.8601Z" fill="black"/>
</svg>
