<svg width="24" height="24" viewBox="0 0 24 24" fill="none" xmlns="http://www.w3.org/2000/svg">
<path d="M20.6414 8.36008C20.6478 8.25758 20.6721 8.16008 20.6721 8.05608C20.6721 7.40683 20.5443 6.76394 20.2958 6.16411C20.0473 5.56428 19.6832 5.01927 19.2241 4.56018C18.765 4.1011 18.2199 3.73693 17.6201 3.48849C17.0203 3.24004 16.3774 3.11217 15.7281 3.11218C14.8851 3.1174 14.0577 3.34049 13.3263 3.75978C12.5458 2.93912 11.5372 2.37135 10.4307 2.1298C9.32419 1.88826 8.17069 1.98404 7.11919 2.40478C6.06769 2.82552 5.16651 3.55188 4.53205 4.49003C3.89759 5.42819 3.559 6.53503 3.56004 7.66758C3.56032 7.86801 3.57114 8.06829 3.59244 8.26758C2.7155 8.59577 1.98178 9.2217 1.51953 10.036C1.05728 10.8503 0.895896 11.8011 1.06359 12.7223C1.23128 13.6435 1.71738 14.4765 2.43693 15.0756C3.15648 15.6748 4.0637 16.002 5.00004 16.0001H19C19.9147 16.0012 20.8021 15.6884 21.5139 15.114C22.2257 14.5395 22.7188 13.7383 22.911 12.844C23.1031 11.9497 22.9826 11.0166 22.5695 10.2005C22.1564 9.38442 21.4758 8.73477 20.6414 8.36008ZM19 15.0001H5.00004C4.20466 14.9992 3.44213 14.6828 2.87971 14.1204C2.3173 13.558 2.00094 12.7955 2.00004 12.0001C1.9986 11.3907 2.18451 10.7955 2.53259 10.2953C2.88067 9.79507 3.3741 9.41392 3.94604 9.20348L4.66834 8.93078L4.58734 8.16308C4.51708 7.51193 4.58478 6.85328 4.78604 6.23004C4.98729 5.6068 5.31758 5.03295 5.7554 4.54586C6.19321 4.05877 6.72872 3.66938 7.32705 3.40304C7.92538 3.13671 8.57311 2.99941 9.22804 3.00008C9.85975 2.99849 10.4851 3.12632 11.0655 3.3757C11.6459 3.62509 12.1691 3.99073 12.6027 4.45008L13.1383 5.01168L13.8153 4.63218C14.3972 4.29621 15.0563 4.11703 15.7281 4.11218C16.7712 4.11246 17.7717 4.52573 18.5108 5.26163C19.25 5.99752 19.6677 6.99616 19.6726 8.03918L19.6656 8.09328C19.6556 8.16108 19.6476 8.22898 19.6434 8.29828L19.6007 8.98708L20.2296 9.27138C20.8558 9.55185 21.3667 10.0388 21.6768 10.6508C21.987 11.2627 22.0777 11.9626 21.9337 12.6335C21.7897 13.3043 21.4198 13.9053 20.8858 14.3361C20.3518 14.7669 19.6861 15.0013 19 15.0001ZM10.63 21.6301C10.63 21.9935 10.7744 22.3421 11.0314 22.5991C11.2884 22.8561 11.637 23.0005 12.0004 23.0005C12.3639 23.0005 12.7125 22.8561 12.9695 22.5991C13.2265 22.3421 13.3708 21.9935 13.3708 21.6301C13.1081 20.3751 12.6452 19.1706 12 18.0626C11.3551 19.1706 10.8926 20.3752 10.63 21.6301ZM12.5908 21.6301C12.5908 21.7867 12.5286 21.9368 12.4179 22.0475C12.3072 22.1582 12.1571 22.2204 12.0005 22.2204C11.8439 22.2204 11.6938 22.1582 11.583 22.0475C11.4723 21.9368 11.4101 21.7867 11.4101 21.6301C11.5081 20.996 11.7072 20.3818 12 19.811C12.293 20.3818 12.4922 20.996 12.59 21.6301H12.5908ZM16.63 21.6301C16.63 21.9935 16.7744 22.3421 17.0314 22.5991C17.2884 22.8561 17.637 23.0005 18.0004 23.0005C18.3639 23.0005 18.7125 22.8561 18.9695 22.5991C19.2265 22.3421 19.3708 21.9935 19.3708 21.6301C19.1081 20.3751 18.6452 19.1706 18 18.0626C17.3551 19.1706 16.8926 20.3752 16.63 21.6301ZM18.5908 21.6301C18.5908 21.7867 18.5286 21.9368 18.4179 22.0475C18.3072 22.1582 18.1571 22.2204 18.0005 22.2204C17.8439 22.2204 17.6938 22.1582 17.583 22.0475C17.4723 21.9368 17.4101 21.7867 17.4101 21.6301C17.5081 20.996 17.7072 20.3818 18 19.811C18.293 20.3818 18.4922 20.996 18.59 21.6301H18.5908ZM4.63004 21.6301C4.63004 21.9935 4.77442 22.3421 5.03142 22.5991C5.28842 22.8561 5.63699 23.0005 6.00044 23.0005C6.36389 23.0005 6.71246 22.8561 6.96946 22.5991C7.22646 22.3421 7.37084 21.9935 7.37084 21.6301C7.10807 20.3751 6.64523 19.1706 6.00004 18.0626C5.35512 19.1706 4.89255 20.3752 4.63004 21.6301ZM6.59084 21.6301C6.59084 21.7867 6.52864 21.9368 6.41793 22.0475C6.30722 22.1582 6.15706 22.2204 6.00049 22.2204C5.84392 22.2204 5.69376 22.1582 5.58305 22.0475C5.47234 21.9368 5.41014 21.7867 5.41014 21.6301C5.50807 20.996 5.70724 20.3818 6.00004 19.811C6.29298 20.3818 6.4922 20.996 6.59004 21.6301H6.59084Z" fill="black"/>
</svg>
