<svg width="24" height="24" viewBox="0 0 24 24" fill="none" xmlns="http://www.w3.org/2000/svg">
<path d="M22 11.483H16.692L20.306 7.869L19.694 7.256L15.466 11.483H12.517V8.534L16.744 4.306L16.131 3.694L12.517 7.308V2H11.483V7.308L7.869 3.694L7.256 4.306L11.483 8.534V11.483H8.534L4.306 7.256L3.694 7.869L7.308 11.483H2V12.517H7.308L3.694 16.131L4.306 16.744L8.534 12.517H11.483V15.466L7.256 19.694L7.869 20.306L11.483 16.692V22H12.517V16.692L16.131 20.306L16.744 19.694L12.517 15.466V12.517H15.466L19.694 16.744L20.306 16.131L16.692 12.517H22V11.483Z" fill="black"/>
</svg>
