<svg width="24" height="24" viewBox="0 0 24 24" fill="none" xmlns="http://www.w3.org/2000/svg">
<path d="M6 11.25H2V12.75H6V11.25ZM19.6016 5.459L18.541 4.3984L15.7124 7.2271L16.7724 8.2871L19.6016 5.459ZM4.3984 5.459L7.2271 8.2876L8.2871 7.2276L5.459 4.3984L4.3984 5.459ZM13 2H11V6H13V2ZM4.3984 18.541L5.459 19.6016L8.2876 16.7729L7.2276 15.7129L4.3984 18.541ZM11.25 22H12.75V18H11.25V22ZM15.7124 16.7729L18.541 19.6016L19.6016 18.541L16.7729 15.7124L15.7124 16.7729ZM18 11.25V12.75H22V11.25H18ZM11.131 8.25L8.6351 15.25H9.9481L10.5109 13.6917H13.4819L14.0447 15.25H15.3647L12.8687 8.25H11.131ZM10.8823 12.6332L11.997 9.5508L13.1105 12.6332H10.8823Z" fill="black"/>
</svg>
