<svg width="24" height="24" viewBox="0 0 24 24" fill="none" xmlns="http://www.w3.org/2000/svg">
<path d="M22 11.725H16.156L20.159 7.722L19.841 7.403L15.519 11.725H12.275V8.481L16.597 4.159L16.278 3.841L12.275 7.844V2H11.725V7.844L7.722 3.841L7.403 4.159L11.725 8.481V11.725H8.481L4.159 7.403L3.841 7.722L7.844 11.725H2V12.275H7.844L3.841 16.278L4.159 16.597L8.481 12.275H11.725V15.519L7.403 19.841L7.722 20.159L11.725 16.156V22H12.275V16.156L16.278 20.159L16.597 19.841L12.275 15.519V12.275H15.519L19.841 16.597L20.159 16.278L16.156 12.275H22V11.725Z" fill="black"/>
</svg>
