<svg width="24" height="24" viewBox="0 0 24 24" fill="none" xmlns="http://www.w3.org/2000/svg">
<path d="M13 4H11V6H13V4ZM8.4644 7.05L7.05 5.6362L5.6362 7.05L7.05 8.4644L8.4644 7.05ZM6 11H4V13H6V11ZM5.6362 16.95L7.05 18.3638L8.4644 16.95L7.05 15.5356L5.6362 16.95ZM11 20H13V18H11V20ZM15.5356 16.95L16.95 18.3638L18.3638 16.95L16.95 15.5356L15.5356 16.95ZM18 11V13H20V11H18ZM18.3638 7.05L16.95 5.6362L15.5356 7.05L16.95 8.4644L18.3638 7.05ZM12 8C11.2089 8 10.4355 8.2346 9.77772 8.67412C9.11992 9.11365 8.60723 9.73836 8.30448 10.4693C8.00173 11.2002 7.92252 12.0044 8.07686 12.7804C8.2312 13.5563 8.61216 14.269 9.17157 14.8284C9.73098 15.3878 10.4437 15.7688 11.2196 15.9231C11.9956 16.0775 12.7998 15.9983 13.5307 15.6955C14.2616 15.3928 14.8864 14.8801 15.3259 14.2223C15.7654 13.5645 16 12.7911 16 12C16 10.9391 15.5786 9.92172 14.8284 9.17157C14.0783 8.42143 13.0609 8 12 8Z" fill="black"/>
</svg>
