<svg width="24" height="24" viewBox="0 0 24 24" fill="none" xmlns="http://www.w3.org/2000/svg">
<path d="M5.49999 19.5C6.54035 19.5065 7.57068 19.2965 8.52549 18.8833C9.48031 18.4702 10.3387 17.8629 11.0462 17.1C11.7536 16.3372 12.2946 15.4356 12.6348 14.4524C12.9749 13.4692 13.1068 12.426 13.0221 11.389C12.9373 10.3521 12.6377 9.34419 12.1424 8.4293C11.6471 7.51441 10.9668 6.71258 10.1449 6.07478C9.32296 5.43698 8.37731 4.97715 7.36807 4.72454C6.35883 4.47193 5.30807 4.43206 4.28259 4.60746C5.7154 3.30224 7.49662 2.44153 9.40959 2.13001C11.3226 1.8185 13.2848 2.06961 15.0577 2.8528C16.8306 3.636 18.3377 4.91751 19.3957 6.54147C20.4536 8.16543 21.0168 10.0618 21.0168 12C21.0168 13.9382 20.4536 15.8346 19.3957 17.4585C18.3377 19.0825 16.8306 20.364 15.0577 21.1472C13.2848 21.9304 11.3226 22.1815 9.40959 21.87C7.49662 21.5585 5.7154 20.6978 4.28259 19.3926C4.6848 19.4614 5.09195 19.4973 5.49999 19.5Z" fill="black"/>
</svg>
