<svg width="24" height="24" viewBox="0 0 24 24" fill="none" xmlns="http://www.w3.org/2000/svg">
<path d="M20.99 18.9474L19.3494 19.8946V18.0001H18.65V19.8946L17.01 18.9474L16.66 19.5528L18.3006 20.5001L16.66 21.4474L17.01 22.0528L18.6506 21.1056V23.0001H19.35V21.1056L20.9906 22.0528L21.3406 21.4474L19.6992 20.5001L21.3398 19.5528L20.99 18.9474ZM6.98998 18.9474L5.34998 19.8946V18.0001H4.64998V19.8946L3.00998 18.9474L2.65998 19.5528L4.30078 20.5001L2.65998 21.4474L3.00998 22.0528L4.64998 21.1056V23.0001H5.34998V21.1056L6.99058 22.0528L7.34058 21.4474L5.69918 20.5001L7.33998 19.5528L6.98998 18.9474ZM20.6414 8.36008C20.6478 8.25758 20.6721 8.16008 20.6721 8.05608C20.6721 7.40683 20.5442 6.76394 20.2957 6.16411C20.0473 5.56428 19.6831 5.01927 19.224 4.56018C18.7649 4.1011 18.2199 3.73693 17.6201 3.48849C17.0202 3.24004 16.3773 3.11217 15.7281 3.11218C14.885 3.1174 14.0577 3.34049 13.3263 3.75978C12.5458 2.93912 11.5371 2.37135 10.4306 2.1298C9.32413 1.88826 8.17063 1.98404 7.11913 2.40478C6.06763 2.82552 5.16644 3.55188 4.53198 4.49003C3.89753 5.42819 3.55894 6.53503 3.55998 7.66758C3.56026 7.86801 3.57107 8.06829 3.59238 8.26758C2.71544 8.59577 1.98172 9.2217 1.51947 10.036C1.05722 10.8503 0.895835 11.8011 1.06353 12.7223C1.23122 13.6435 1.71732 14.4765 2.43687 15.0756C3.15642 15.6748 4.06364 16.002 4.99998 16.0001H11.2309L10.1909 19.9267H12.9309L12.0261 23.4385L14.4387 18.9267H11.4531L12.2305 16.0001H19C19.9147 16.0012 20.802 15.6884 21.5138 15.114C22.2256 14.5395 22.7188 13.7383 22.9109 12.844C23.103 11.9497 22.9825 11.0166 22.5694 10.2005C22.1564 9.38442 21.4758 8.73477 20.6414 8.36008Z" fill="black"/>
</svg>
