<svg width="24" height="24" viewBox="0 0 24 24" fill="none" xmlns="http://www.w3.org/2000/svg">
<path d="M17 4C15.9395 4.00119 14.9228 4.423 14.1729 5.17289C13.423 5.92278 13.0012 6.9395 13 8H15C15 7.60444 15.1173 7.21776 15.3371 6.88886C15.5568 6.55996 15.8692 6.30362 16.2346 6.15224C16.6001 6.00087 17.0022 5.96126 17.3902 6.03843C17.7781 6.1156 18.1345 6.30608 18.4142 6.58579C18.6939 6.86549 18.8844 7.22186 18.9616 7.60982C19.0387 7.99778 18.9991 8.39991 18.8478 8.76537C18.6964 9.13082 18.44 9.44318 18.1111 9.66294C17.7822 9.8827 17.3956 10 17 10H4V12H17C18.0609 12 19.0783 11.5786 19.8284 10.8284C20.5786 10.0783 21 9.06087 21 8C21 6.93913 20.5786 5.92172 19.8284 5.17157C19.0783 4.42143 18.0609 4 17 4ZM14 14H6V16H14C14.2652 16 14.5196 16.1054 14.7071 16.2929C14.8946 16.4804 15 16.7348 15 17C15 17.2652 14.8946 17.5196 14.7071 17.7071C14.5196 17.8946 14.2652 18 14 18H13V20H14C14.7956 20 15.5587 19.6839 16.1213 19.1213C16.6839 18.5587 17 17.7956 17 17C17 16.2044 16.6839 15.4413 16.1213 14.8787C15.5587 14.3161 14.7956 14 14 14Z" fill="black"/>
</svg>
