<svg width="24" height="24" viewBox="0 0 24 24" fill="none" xmlns="http://www.w3.org/2000/svg">
<path d="M6.94738 21.9475C6.95008 22.2249 7.06218 22.49 7.25929 22.6852C7.45641 22.8804 7.72261 22.9899 8.00003 22.9899C8.27744 22.9899 8.54365 22.8804 8.74076 22.6852C8.93788 22.49 9.04997 22.2249 9.05268 21.9475C8.79742 20.4303 8.4458 18.9309 7.99998 17.4584C7.55419 18.9309 7.20261 20.4303 6.94738 21.9475ZM20.6414 8.36008C20.6477 8.25758 20.672 8.16008 20.672 8.05608C20.672 6.74488 20.1511 5.48738 19.2239 4.56022C18.2968 3.63306 17.0393 3.11218 15.7281 3.11218C14.885 3.1174 14.0577 3.34049 13.3263 3.75978C12.5458 2.93912 11.5371 2.37135 10.4306 2.1298C9.32413 1.88826 8.17063 1.98404 7.11913 2.40478C6.06763 2.82552 5.16644 3.55188 4.53198 4.49003C3.89753 5.42819 3.55894 6.53503 3.55998 7.66758C3.56026 7.86801 3.57107 8.06829 3.59238 8.26758C2.71544 8.59577 1.98172 9.2217 1.51947 10.036C1.05722 10.8503 0.895835 11.8011 1.06353 12.7223C1.23122 13.6435 1.71732 14.4765 2.43687 15.0756C3.15642 15.6748 4.06364 16.002 4.99998 16.0001H19C19.9147 16.0012 20.802 15.6884 21.5138 15.114C22.2256 14.5395 22.7188 13.7383 22.9109 12.844C23.103 11.9497 22.9825 11.0166 22.5694 10.2005C22.1564 9.38442 21.4758 8.73477 20.6414 8.36008ZM19 14.5001H4.99998C4.33716 14.4993 3.70171 14.2357 3.23303 13.767C2.76435 13.2984 2.50072 12.6629 2.49998 12.0001C2.49907 11.4924 2.65423 10.9967 2.94445 10.5801C3.23466 10.1635 3.64591 9.84623 4.12248 9.67118L5.20598 9.26228L5.08458 8.11058C5.0216 7.52913 5.08186 6.94094 5.26144 6.38434C5.44102 5.82774 5.73589 5.31523 6.12681 4.88023C6.51773 4.44523 6.99594 4.09749 7.53026 3.85968C8.06459 3.62188 8.64303 3.49935 9.22788 3.50008C9.7919 3.49874 10.3502 3.61296 10.8684 3.83571C11.3866 4.05845 11.8537 4.38499 12.2408 4.79518L13.0443 5.63758L14.06 5.06828C14.5673 4.77451 15.1421 4.61739 15.7283 4.61228C16.6355 4.61331 17.5057 4.97184 18.1504 5.61015C18.795 6.24847 19.1621 7.11514 19.1721 8.02228L19.1714 8.02008L19.1703 8.02408C19.1592 8.10408 19.1494 8.18508 19.1443 8.26728L19.08 9.30078L20.0234 9.72708C20.5452 9.96056 20.971 10.3661 21.2296 10.876C21.4882 11.3858 21.564 11.969 21.4441 12.5279C21.3243 13.0869 21.0161 13.5878 20.5712 13.9467C20.1263 14.3057 19.5716 14.5011 19 14.5001ZM17.4147 18.817L16 19.634V18.0001H15V19.634L13.5849 18.817L13.0849 19.6832L14.5 20.5001L13.085 21.317L13.585 22.1832L15 21.3662V23.0001H16V21.3662L17.415 22.1832L17.915 21.317L16.5 20.5001L17.9149 19.6832L17.4147 18.817Z" fill="black"/>
</svg>
