<svg width="24" height="24" viewBox="0 0 24 24" fill="none" xmlns="http://www.w3.org/2000/svg">
<path d="M20.6414 8.36008C20.6478 8.25758 20.6721 8.16008 20.6721 8.05608C20.6721 7.40683 20.5443 6.76394 20.2958 6.16411C20.0473 5.56428 19.6832 5.01927 19.2241 4.56018C18.765 4.1011 18.2199 3.73693 17.6201 3.48849C17.0203 3.24004 16.3774 3.11217 15.7281 3.11218C14.8851 3.1174 14.0577 3.34049 13.3263 3.75978C12.5458 2.93912 11.5372 2.37135 10.4307 2.1298C9.32419 1.88826 8.17069 1.98404 7.11919 2.40478C6.06769 2.82552 5.16651 3.55188 4.53205 4.49003C3.89759 5.42819 3.559 6.53503 3.56004 7.66758C3.56032 7.86801 3.57114 8.06829 3.59244 8.26758C2.7155 8.59577 1.98178 9.2217 1.51953 10.036C1.05728 10.8503 0.895896 11.8011 1.06359 12.7223C1.23128 13.6435 1.71738 14.4765 2.43693 15.0756C3.15648 15.6748 4.0637 16.002 5.00004 16.0001H19C19.9147 16.0012 20.8021 15.6884 21.5139 15.114C22.2257 14.5395 22.7188 13.7383 22.911 12.844C23.1031 11.9497 22.9826 11.0166 22.5695 10.2005C22.1564 9.38442 21.4758 8.73477 20.6414 8.36008ZM19 14.0001H5.00004C4.46979 13.9995 3.96144 13.7886 3.5865 13.4136C3.21156 13.0387 3.00065 12.5303 3.00004 12.0001C2.99966 11.5941 3.12408 11.1978 3.35646 10.8649C3.58883 10.532 3.91792 10.2786 4.29914 10.139L5.74384 9.59368L5.58184 8.05808C5.52627 7.54633 5.57919 7.02862 5.73716 6.5387C5.89513 6.04877 6.1546 5.59765 6.49864 5.21476C6.84268 4.83186 7.26357 4.52578 7.73386 4.31649C8.20415 4.10719 8.71328 3.99938 9.22804 4.00008C9.72435 3.99897 10.2156 4.09956 10.6716 4.29562C11.1275 4.49169 11.5384 4.77908 11.879 5.14008L12.95 6.26348L14.304 5.50448C14.7367 5.25282 15.2273 5.11768 15.7278 5.11228C16.4959 5.11307 17.2334 5.41366 17.7831 5.95005C18.3329 6.48644 18.6515 7.21625 18.6712 7.98408C18.66 8.06748 18.6505 8.15128 18.6453 8.23658L18.56 9.61428L19.8178 10.1827C20.2355 10.3691 20.5765 10.6933 20.7837 11.1011C20.9908 11.5089 21.0516 11.9755 20.9558 12.4228C20.8599 12.87 20.6134 13.2708 20.2573 13.5579C19.9013 13.8451 19.4574 14.0012 19 14.0001ZM10.63 21.6301C10.63 21.9935 10.7744 22.3421 11.0314 22.5991C11.2884 22.8561 11.637 23.0005 12.0004 23.0005C12.3639 23.0005 12.7125 22.8561 12.9695 22.5991C13.2265 22.3421 13.3708 21.9935 13.3708 21.6301C13.1081 20.3751 12.6452 19.1706 12 18.0626C11.3551 19.1706 10.8926 20.3752 10.63 21.6301Z" fill="black"/>
</svg>
