<svg width="24" height="24" viewBox="0 0 24 24" fill="none" xmlns="http://www.w3.org/2000/svg">
<path d="M12.75 1H11.25V4H12.75V1ZM8.2876 5.2271L6.1665 3.106L5.106 4.1665L7.2271 6.2876L8.2876 5.2271ZM6 9.25H3V10.75H6V9.25ZM18 9.25V10.75H21V9.25H18ZM18.894 4.1665L17.834 3.106L15.7124 5.2271L16.7724 6.2876L18.894 4.1665ZM16 10C16.0018 9.31341 15.8268 8.63792 15.4919 8.03855C15.157 7.43918 14.6734 6.9361 14.0877 6.57775C13.5021 6.21939 12.8341 6.01782 12.1479 5.99243C11.4618 5.96704 10.7807 6.11869 10.1702 6.43278C9.55961 6.74688 9.0402 7.21284 8.66191 7.78582C8.28362 8.3588 8.05918 9.01951 8.0102 9.70435C7.96122 10.3892 8.08935 11.0751 8.38226 11.6961C8.67516 12.3171 9.12297 12.8522 9.6826 13.25H3V14.75H21V13.25H14.3174C14.837 12.882 15.2608 12.3949 15.5536 11.8294C15.8463 11.264 15.9994 10.6367 16 10ZM12 12.5C11.5055 12.5 11.0222 12.3534 10.6111 12.0787C10.2 11.804 9.87952 11.4135 9.6903 10.9567C9.50108 10.4999 9.45157 9.99723 9.54804 9.51227C9.6445 9.02732 9.8826 8.58186 10.2322 8.23223C10.5819 7.8826 11.0273 7.6445 11.5123 7.54804C11.9972 7.45157 12.4999 7.50108 12.9567 7.6903C13.4135 7.87952 13.804 8.19995 14.0787 8.61107C14.3534 9.0222 14.5 9.50555 14.5 10C14.4993 10.6628 14.2356 11.2983 13.7669 11.7669C13.2983 12.2356 12.6628 12.4993 12 12.5ZM12.75 17H11.25V20.5H9.5L12 23L14.5 20.5H12.75V17Z" fill="black"/>
</svg>
