<svg width="24" height="24" viewBox="0 0 24 24" fill="none" xmlns="http://www.w3.org/2000/svg">
<path d="M17 5C15.9395 5.00119 14.9228 5.423 14.1729 6.17289C13.423 6.92278 13.0012 7.9395 13 9H15C15 8.60444 15.1173 8.21776 15.3371 7.88886C15.5568 7.55996 15.8692 7.30362 16.2346 7.15224C16.6001 7.00087 17.0022 6.96126 17.3902 7.03843C17.7781 7.1156 18.1345 7.30608 18.4142 7.58579C18.6939 7.86549 18.8844 8.22186 18.9616 8.60982C19.0387 8.99778 18.9991 9.39991 18.8478 9.76537C18.6964 10.1308 18.44 10.4432 18.1111 10.6629C17.7822 10.8827 17.3956 11 17 11H6V13H17C18.0609 13 19.0783 12.5786 19.8284 11.8284C20.5786 11.0783 21 10.0609 21 9C21 7.93913 20.5786 6.92172 19.8284 6.17157C19.0783 5.42143 18.0609 5 17 5ZM12 6C11.9991 5.20462 11.6828 4.44206 11.1204 3.87964C10.5579 3.31722 9.79538 3.00087 9 3H8V5H9C9.26522 5 9.51957 5.10536 9.70711 5.29289C9.89464 5.48043 10 5.73478 10 6C10 6.26522 9.89464 6.51957 9.70711 6.70711C9.51957 6.89464 9.26522 7 9 7H4V9H9C9.79538 8.99913 10.5579 8.68278 11.1204 8.12036C11.6828 7.55794 11.9991 6.79538 12 6ZM14 15H4V17H14C14.2652 17 14.5196 17.1054 14.7071 17.2929C14.8946 17.4804 15 17.7348 15 18C15 18.2652 14.8946 18.5196 14.7071 18.7071C14.5196 18.8946 14.2652 19 14 19H13V21H14C14.7956 21 15.5587 20.6839 16.1213 20.1213C16.6839 19.5587 17 18.7956 17 18C17 17.2044 16.6839 16.4413 16.1213 15.8787C15.5587 15.3161 14.7956 15 14 15Z" fill="black"/>
</svg>
