<svg width="24" height="24" viewBox="0 0 24 24" fill="none" xmlns="http://www.w3.org/2000/svg">
<path d="M13.5068 4.6162C15.0291 5.70987 16.2739 7.14524 17.141 8.80707C18.0082 10.4689 18.4736 12.3109 18.5 14.1852C18.4889 15.9386 17.79 17.6175 16.5535 18.8607C15.3171 20.1039 13.642 20.812 11.8887 20.8326C10.1354 20.8532 8.44413 20.1846 7.17881 18.9708C5.9135 17.757 5.1753 16.0949 5.12309 14.3423V14.3414V14.1814C5.24073 12.1805 6.05997 10.285 7.43679 8.8283C7.47361 9.92234 7.73689 10.9969 8.20999 11.984C8.48934 12.5505 8.92405 13.0259 9.46339 13.3546C9.77776 13.5467 10.1343 13.659 10.502 13.6819C10.5938 13.6879 10.6859 13.6889 10.7779 13.685C11.5029 13.6591 12.1893 13.352 12.6917 12.8287C13.1216 12.3959 13.4513 11.874 13.6578 11.3C14.2899 9.10869 14.2372 6.77653 13.5068 4.616V4.6162ZM10.5 1C13.4523 6.0363 13.4375 12.1909 10.6041 12.1909C8.56249 12.1909 8.60408 7.5 9.06249 5.1667C6.37499 6.9063 3.62349 10.5 3.62349 14.181L3.62119 14.1852C3.64727 16.34 4.52156 18.3977 6.05454 19.9122C7.58751 21.4267 9.65563 22.2761 11.8106 22.2761C13.9655 22.2761 16.0337 21.4267 17.5666 19.9122C19.0996 18.3977 19.9739 16.34 20 14.1852V14.181C20 7.7188 15.4167 2.875 10.5 1Z" fill="black"/>
</svg>
