<svg width="24" height="24" viewBox="0 0 24 24" fill="none" xmlns="http://www.w3.org/2000/svg">
<path d="M20.6414 8.36008C20.6478 8.25758 20.6721 8.16008 20.6721 8.05608C20.6721 7.40683 20.5442 6.76394 20.2957 6.16411C20.0473 5.56428 19.6831 5.01927 19.224 4.56018C18.7649 4.1011 18.2199 3.73693 17.6201 3.48849C17.0202 3.24004 16.3773 3.11217 15.7281 3.11218C14.885 3.1174 14.0577 3.34049 13.3263 3.75978C12.5458 2.93912 11.5371 2.37135 10.4306 2.1298C9.32413 1.88826 8.17063 1.98404 7.11913 2.40478C6.06763 2.82552 5.16644 3.55188 4.53198 4.49003C3.89753 5.42819 3.55894 6.53503 3.55998 7.66758C3.56026 7.86801 3.57107 8.06829 3.59238 8.26758C2.71544 8.59577 1.98172 9.2217 1.51947 10.036C1.05722 10.8503 0.895835 11.8011 1.06353 12.7223C1.23122 13.6435 1.71732 14.4765 2.43687 15.0756C3.15642 15.6748 4.06364 16.002 4.99998 16.0001H19C19.9147 16.0012 20.802 15.6884 21.5138 15.114C22.2256 14.5395 22.7188 13.7383 22.9109 12.844C23.103 11.9497 22.9825 11.0166 22.5694 10.2005C22.1564 9.38442 21.4758 8.73477 20.6414 8.36008ZM19 15.5001H4.99998C4.1808 15.5018 3.38707 15.2156 2.75756 14.6914C2.12805 14.1672 1.70281 13.4384 1.55619 12.6325C1.40956 11.8265 1.55089 10.9946 1.95545 10.2823C2.36001 9.57002 3.00207 9.02257 3.76938 8.73568L4.13058 8.59928L4.08998 8.21548C4.01231 7.49462 4.08736 6.76548 4.31024 6.07555C4.53311 5.38563 4.89882 4.75038 5.38353 4.21119C5.86825 3.672 6.46111 3.24096 7.1235 2.94614C7.78588 2.65132 8.50294 2.49934 9.22798 2.50008C9.92738 2.4982 10.6198 2.63963 11.2624 2.91566C11.905 3.19168 12.4843 3.59645 12.9645 4.10498L13.2323 4.38578L13.5708 4.19578C14.2272 3.81769 14.9706 3.61653 15.7281 3.61198C16.9063 3.61331 18.0358 4.08192 18.869 4.91503C19.7021 5.74813 20.1707 6.87769 20.1721 8.05588C20.1708 8.09147 20.167 8.12692 20.1608 8.16198C20.1531 8.21718 20.1459 8.27248 20.1424 8.32898L20.1211 8.67338L20.4355 8.81548C21.1659 9.14301 21.7617 9.71131 22.1234 10.4254C22.4851 11.1395 22.5907 11.956 22.4227 12.7387C22.2546 13.5213 21.823 14.2225 21.2 14.7251C20.5771 15.2277 19.8004 15.5013 19 15.5001ZM7.62998 21.6301C7.62998 21.9935 7.77436 22.3421 8.03136 22.5991C8.28836 22.8561 8.63692 23.0005 9.00038 23.0005C9.36383 23.0005 9.7124 22.8561 9.9694 22.5991C10.2264 22.3421 10.3708 21.9935 10.3708 21.6301C10.108 20.3751 9.64517 19.1706 8.99998 18.0626C8.35506 19.1706 7.89249 20.3752 7.62998 21.6301ZM9.87078 21.6301C9.87078 21.8609 9.77907 22.0823 9.61584 22.2456C9.45261 22.4088 9.23122 22.5005 9.00038 22.5005C8.76953 22.5005 8.54814 22.4088 8.38491 22.2456C8.22168 22.0823 8.12998 21.8609 8.12998 21.6301C8.28067 20.7611 8.57467 19.9232 8.99998 19.1506C9.42547 19.9231 9.71948 20.7611 9.86998 21.6301H9.87078ZM13.63 21.6301C13.63 21.9935 13.7744 22.3421 14.0314 22.5991C14.2884 22.8561 14.6369 23.0005 15.0004 23.0005C15.3638 23.0005 15.7124 22.8561 15.9694 22.5991C16.2264 22.3421 16.3708 21.9935 16.3708 21.6301C16.108 20.3751 15.6452 19.1706 15 18.0626C14.3551 19.1706 13.8925 20.3752 13.63 21.6301ZM15.8708 21.6301C15.8708 21.8609 15.7791 22.0823 15.6158 22.2456C15.4526 22.4088 15.2312 22.5005 15.0004 22.5005C14.7695 22.5005 14.5481 22.4088 14.3849 22.2456C14.2217 22.0823 14.13 21.8609 14.13 21.6301C14.2807 20.7611 14.5747 19.9232 15 19.1506C15.4255 19.9231 15.7195 20.7611 15.87 21.6301H15.8708Z" fill="black"/>
</svg>
