<svg width="24" height="24" viewBox="0 0 24 24" fill="none" xmlns="http://www.w3.org/2000/svg">
<path d="M18.5 19.5C17.4597 19.5065 16.4293 19.2965 15.4745 18.8833C14.5197 18.4702 13.6613 17.8629 12.9538 17.1C12.2464 16.3372 11.7054 15.4356 11.3652 14.4524C11.0251 13.4692 10.8932 12.426 10.9779 11.389C11.0627 10.3521 11.3623 9.34419 11.8576 8.4293C12.3529 7.51441 13.0332 6.71258 13.8551 6.07478C14.677 5.43698 15.6227 4.97715 16.6319 4.72454C17.6412 4.47193 18.6919 4.43206 19.7174 4.60746C18.2846 3.30224 16.5034 2.44153 14.5904 2.13001C12.6774 1.8185 10.7152 2.06961 8.94227 2.8528C7.16939 3.636 5.66231 4.91751 4.60435 6.54147C3.54639 8.16543 2.98315 10.0618 2.98315 12C2.98315 13.9382 3.54639 15.8346 4.60435 17.4585C5.66231 19.0825 7.16939 20.364 8.94227 21.1472C10.7152 21.9304 12.6774 22.1815 14.5904 21.87C16.5034 21.5585 18.2846 20.6978 19.7174 19.3926C19.3152 19.4614 18.9081 19.4973 18.5 19.5Z" fill="black"/>
</svg>
