<svg width="24" height="24" viewBox="0 0 24 24" fill="none" xmlns="http://www.w3.org/2000/svg">
<path d="M9.5 2H8.5V5H9.5V2ZM5.1113 6.4043L2.9893 4.2822L2.2822 4.9893L4.4043 7.1113L5.1113 6.4043ZM3 10.5H0V11.5H3V10.5ZM2.2822 17.0107L2.9893 17.7178L5.1113 15.5957L4.4043 14.8887L2.2822 17.0107ZM15.5029 4.7588L14.7729 4.0771L12.7266 6.2715L13.4566 6.9531L15.5029 4.7588ZM12.2663 8.7305C11.9038 8.198 11.4168 7.76203 10.8476 7.46046C10.2784 7.15889 9.64417 7.00083 9 7C8.17915 6.99722 7.37746 7.24791 6.70441 7.71781C6.03137 8.18772 5.51979 8.85393 5.23954 9.62547C4.9593 10.397 4.92406 11.2362 5.13863 12.0285C5.3532 12.8209 5.80712 13.5276 6.4384 14.0523C6.82737 13.1035 7.46202 12.2753 8.2771 11.653C9.09219 11.0307 10.0583 10.6367 11.0761 10.5115C11.3692 9.85474 11.7716 9.25251 12.2663 8.7305ZM21.2977 12.6413C21.1854 11.5759 20.688 10.5882 19.8988 9.86376C19.1096 9.1393 18.0831 8.72795 17.012 8.70698C15.941 8.68602 14.8991 9.0569 14.0822 9.74993C13.2653 10.443 12.7296 11.4104 12.5757 12.4706H11.7647C10.7662 12.4706 9.80867 12.8672 9.10266 13.5733C8.39664 14.2793 8 15.2368 8 16.2353C8 17.2338 8.39664 18.1913 9.10266 18.8973C9.80867 19.6034 10.7662 20 11.7647 20H20.2353C21.1399 20.0024 22.0149 19.6782 22.6995 19.087C23.3841 18.4957 23.8322 17.6772 23.9614 16.7819C24.0907 15.8866 23.8924 14.9748 23.403 14.214C22.9136 13.4533 22.166 12.8948 21.2977 12.6413Z" fill="black"/>
</svg>
