<svg width="24" height="24" viewBox="0 0 24 24" fill="none" xmlns="http://www.w3.org/2000/svg">
<path d="M11.6543 8L8.9763 15H9.5117L10.2768 13H13.7232L14.4883 15H15.0237L12.3458 8H11.6543ZM10.4681 12.5L11.9981 8.5H12.0014L13.5314 12.5H10.4681ZM6 11.75H2V12.25H6V11.75ZM12.25 2H11.75V6H12.25V2ZM16.0659 16.4189L18.8945 19.248L19.248 18.8945L16.4194 16.0654L16.0659 16.4189ZM4.752 18.8945L5.1055 19.248L7.9341 16.4189L7.5806 16.0654L4.752 18.8945ZM19.248 5.1055L18.8945 4.752L16.0659 7.5806L16.4194 7.9341L19.248 5.1055ZM18 11.75V12.25H22V11.75H18ZM11.75 22H12.25V18H11.75V22ZM4.752 5.1055L7.5806 7.9341L7.9341 7.5806L5.1055 4.752L4.752 5.1055Z" fill="black"/>
</svg>
