<svg width="24" height="24" viewBox="0 0 24 24" fill="none" xmlns="http://www.w3.org/2000/svg">
<path d="M12.75 3H11.25V6H12.75V3ZM8.2876 7.2271L6.1665 5.106L5.106 6.1665L7.2271 8.2876L8.2876 7.2271ZM6 11.25H3V12.75H6V11.25ZM5.106 17.8335L6.1665 18.8935L8.2876 16.7724L7.2276 15.7124L5.106 17.8335ZM11.25 21H12.75V18H11.25V21ZM15.7124 16.7729L17.8335 18.894L18.8935 17.834L16.7724 15.7129L15.7124 16.7729ZM18 11.25V12.75H21V11.25H18ZM18.894 6.1665L17.834 5.106L15.7124 7.2271L16.7724 8.2871L18.894 6.1665ZM12 8C11.2089 8 10.4355 8.2346 9.77772 8.67412C9.11992 9.11365 8.60723 9.73836 8.30448 10.4693C8.00173 11.2002 7.92252 12.0044 8.07686 12.7804C8.2312 13.5563 8.61216 14.269 9.17157 14.8284C9.73098 15.3878 10.4437 15.7688 11.2196 15.9231C11.9956 16.0775 12.7998 15.9983 13.5307 15.6955C14.2616 15.3928 14.8864 14.8801 15.3259 14.2223C15.7654 13.5645 16 12.7911 16 12C16 10.9391 15.5786 9.92172 14.8284 9.17157C14.0783 8.42143 13.0609 8 12 8Z" fill="black"/>
</svg>
