<svg width="24" height="24" viewBox="0 0 24 24" fill="none" xmlns="http://www.w3.org/2000/svg">
<g clip-path="url(#clip0)">
<path d="M9 3.50002C9.76122 3.50204 10.5138 3.66169 11.2102 3.96892C11.9067 4.27615 12.532 4.72429 13.0467 5.28513L13.3387 5.60303L13.6958 5.36052C14.5356 4.78663 15.5307 4.48311 16.5478 4.49064C17.5649 4.49817 18.5554 4.81638 19.3866 5.40265C20.2177 5.98891 20.8499 6.81521 21.1983 7.77081C21.5466 8.72642 21.5946 9.76568 21.3358 10.7493L21.2483 11.0886L21.5374 11.2866C22.3315 11.8285 22.9311 12.6106 23.2483 13.5182C23.5655 14.4258 23.5835 15.4111 23.2997 16.3297C23.0159 17.2483 22.4453 18.0517 21.6715 18.6223C20.8977 19.1929 19.9614 19.5005 19 19.5H5C3.95318 19.5013 2.93877 19.1371 2.13178 18.4703C1.3248 17.8035 0.77587 16.8759 0.579709 15.8477C0.383548 14.8194 0.552461 13.7549 1.0573 12.8379C1.56214 11.9208 2.37125 11.2087 3.345 10.8245L3.745 10.6658L3.6477 10.2467C3.45665 9.44012 3.45097 8.60069 3.63109 7.79157C3.81121 6.98246 4.17244 6.22471 4.68762 5.57532C5.2028 4.92593 5.85851 4.4018 6.60544 4.04234C7.35237 3.68289 8.17108 3.49747 9 3.50002ZM9 3.00002C8.09577 2.99741 7.20271 3.1998 6.38794 3.59198C5.57317 3.98415 4.8579 4.55591 4.29589 5.26428C3.73387 5.97264 3.33973 6.79919 3.1431 7.68179C2.94646 8.56438 2.95245 9.48007 3.1606 10.36C2.07878 10.7872 1.17996 11.5785 0.61918 12.5974C0.0583998 13.6164 -0.129171 14.7992 0.0888244 15.9416C0.30682 17.0841 0.916711 18.1147 1.81329 18.8556C2.70987 19.5965 3.83691 20.0012 5 20H19C20.0682 20.0005 21.1084 19.6587 21.9682 19.0248C22.8279 18.3909 23.462 17.4982 23.7773 16.4776C24.0927 15.457 24.0728 14.3623 23.7205 13.3539C23.3683 12.3454 22.7022 11.4764 21.82 10.8741C22.1 9.79287 22.0439 8.65198 21.6592 7.60341C21.2745 6.55483 20.5795 5.64833 19.6667 5.00464C18.754 4.36094 17.6667 4.0106 16.5499 4.00027C15.433 3.98995 14.3395 4.32012 13.415 4.94683C12.8548 4.33332 12.1728 3.84333 11.4127 3.50813C10.6525 3.17293 9.8308 2.99988 9 3.00002Z" fill="black"/>
</g>
<defs>
<clipPath id="clip0">
<rect width="24" height="24" fill="white"/>
</clipPath>
</defs>
</svg>
