<svg width="24" height="24" viewBox="0 0 24 24" fill="none" xmlns="http://www.w3.org/2000/svg">
<path d="M20 12C20 14.6522 18.9464 17.1957 17.0711 19.0711C15.1957 20.9464 12.6522 22 10 22C9.70751 22 9.42001 21.9808 9.13341 21.9562C7.67808 20.7372 6.50769 19.214 5.70464 17.4939C4.90159 15.7737 4.48541 13.8984 4.48541 12C4.48541 10.1016 4.90159 8.22631 5.70464 6.50615C6.50769 4.78598 7.67808 3.26278 9.13341 2.0438C9.42001 2.0192 9.70751 2 10 2C11.3132 2 12.6136 2.25866 13.8268 2.7612C15.0401 3.26375 16.1425 4.00035 17.0711 4.92893C17.9997 5.85752 18.7363 6.95991 19.2388 8.17317C19.7413 9.38642 20 10.6868 20 12Z" fill="black"/>
</svg>
