<svg width="24" height="24" viewBox="0 0 24 24" fill="none" xmlns="http://www.w3.org/2000/svg">
<path d="M17.63 21.6301C17.63 21.9935 17.7744 22.3421 18.0314 22.5991C18.2884 22.8561 18.6369 23.0005 19.0004 23.0005C19.3638 23.0005 19.7124 22.8561 19.9694 22.5991C20.2264 22.3421 20.3708 21.9935 20.3708 21.6301C20.108 20.3751 19.6452 19.1706 19 18.0626C18.3551 19.1706 17.8925 20.3752 17.63 21.6301ZM3.62998 21.6301C3.62998 21.9935 3.77436 22.3421 4.03136 22.5991C4.28836 22.8561 4.63692 23.0005 5.00038 23.0005C5.36383 23.0005 5.7124 22.8561 5.9694 22.5991C6.2264 22.3421 6.37078 21.9935 6.37078 21.6301C6.10801 20.3751 5.64517 19.1706 4.99998 18.0626C4.35506 19.1706 3.89249 20.3752 3.62998 21.6301ZM20.6414 8.36008C20.6478 8.25758 20.6721 8.16008 20.6721 8.05608C20.6721 7.40683 20.5442 6.76394 20.2957 6.16411C20.0473 5.56428 19.6831 5.01927 19.224 4.56018C18.7649 4.1011 18.2199 3.73693 17.6201 3.48849C17.0202 3.24004 16.3773 3.11217 15.7281 3.11218C14.885 3.1174 14.0577 3.34049 13.3263 3.75978C12.5458 2.93912 11.5371 2.37135 10.4306 2.1298C9.32413 1.88826 8.17063 1.98404 7.11913 2.40478C6.06763 2.82552 5.16644 3.55188 4.53198 4.49003C3.89753 5.42819 3.55894 6.53503 3.55998 7.66758C3.56026 7.86801 3.57107 8.06829 3.59238 8.26758C2.71544 8.59577 1.98172 9.2217 1.51947 10.036C1.05722 10.8503 0.895835 11.8011 1.06353 12.7223C1.23122 13.6435 1.71732 14.4765 2.43687 15.0756C3.15642 15.6748 4.06364 16.002 4.99998 16.0001H10.8152L9.77518 20.0001H11.7868L10.882 23.5119L14.8538 18.0001H12.2952L12.8152 16.0001H19C19.9147 16.0012 20.802 15.6884 21.5138 15.114C22.2256 14.5395 22.7188 13.7383 22.9109 12.844C23.103 11.9497 22.9825 11.0166 22.5694 10.2005C22.1564 9.38442 21.4758 8.73477 20.6414 8.36008Z" fill="black"/>
</svg>
