<svg width="24" height="24" viewBox="0 0 24 24" fill="none" xmlns="http://www.w3.org/2000/svg">
<path d="M16.5 5C15.5721 5.00111 14.6825 5.37022 14.0264 6.02635C13.3702 6.68249 13.0011 7.57208 13 8.5V9H14V8.5C14 8.00555 14.1466 7.5222 14.4213 7.11107C14.696 6.69995 15.0865 6.37952 15.5433 6.1903C16.0001 6.00108 16.5028 5.95157 16.9877 6.04804C17.4727 6.1445 17.9181 6.3826 18.2678 6.73223C18.6174 7.08186 18.8555 7.52732 18.952 8.01227C19.0484 8.49723 18.9989 8.99989 18.8097 9.45671C18.6205 9.91352 18.3 10.304 17.8889 10.5787C17.4778 10.8534 16.9945 11 16.5 11H4V12H16.5C17.4283 12 18.3185 11.6313 18.9749 10.9749C19.6313 10.3185 20 9.42826 20 8.5C20 7.57174 19.6313 6.6815 18.9749 6.02513C18.3185 5.36875 17.4283 5 16.5 5ZM13.5 15H6V16H13.5C13.8978 16 14.2794 16.158 14.5607 16.4393C14.842 16.7206 15 17.1022 15 17.5C15 17.8978 14.842 18.2794 14.5607 18.5607C14.2794 18.842 13.8978 19 13.5 19H12V20H13.5C14.163 20 14.7989 19.7366 15.2678 19.2678C15.7366 18.7989 16 18.163 16 17.5C16 16.837 15.7366 16.2011 15.2678 15.7322C14.7989 15.2634 14.163 15 13.5 15Z" fill="black"/>
</svg>
