<svg width="24" height="24" viewBox="0 0 24 24" fill="none" xmlns="http://www.w3.org/2000/svg">
<path d="M13 1H11V4H13V1ZM8.4644 5.05L6.3433 2.9292L4.9292 4.3433L7.05 6.4644L8.4644 5.05ZM6 9H3V11H6V9ZM18 9V11H21V9H18ZM19.0708 4.3433L17.6567 2.9292L15.5356 5.05L16.95 6.4644L19.0708 4.3433ZM16 10C16.0038 9.32921 15.8388 8.66824 15.5202 8.07791C15.2016 7.48757 14.7397 6.98684 14.177 6.62177C13.6142 6.25671 12.9686 6.03903 12.2997 5.98878C11.6308 5.93853 10.96 6.05731 10.349 6.33419C9.73801 6.61108 9.20646 7.03717 8.80326 7.57328C8.40006 8.10939 8.13817 8.73829 8.04167 9.40211C7.94517 10.0659 8.01717 10.7434 8.25103 11.3721C8.4849 12.0008 8.87313 12.5606 9.38 13H3V15H21V13H14.6205C15.0521 12.6281 15.3986 12.1677 15.6366 11.6501C15.8746 11.1325 15.9986 10.5697 16 10ZM12 12C11.6044 12 11.2178 11.8827 10.8889 11.6629C10.56 11.4432 10.3036 11.1308 10.1522 10.7654C10.0009 10.3999 9.96126 9.99778 10.0384 9.60982C10.1156 9.22186 10.3061 8.86549 10.5858 8.58579C10.8655 8.30608 11.2219 8.1156 11.6098 8.03843C11.9978 7.96126 12.3999 8.00087 12.7654 8.15224C13.1308 8.30362 13.4432 8.55996 13.6629 8.88886C13.8827 9.21776 14 9.60444 14 10C13.9994 10.5302 13.7885 11.0386 13.4135 11.4135C13.0386 11.7885 12.5302 11.9994 12 12ZM8.9583 20H11V23H13V20H15.0416L12 17L8.9583 20Z" fill="black"/>
</svg>
