<svg width="24" height="24" viewBox="0 0 24 24" fill="none" xmlns="http://www.w3.org/2000/svg">
<path d="M20.6414 8.36008C20.6478 8.25758 20.6721 8.16008 20.6721 8.05608C20.6721 7.40683 20.5443 6.76394 20.2958 6.16411C20.0473 5.56428 19.6832 5.01927 19.2241 4.56018C18.765 4.1011 18.2199 3.73693 17.6201 3.48849C17.0203 3.24004 16.3774 3.11217 15.7281 3.11218C14.8851 3.1174 14.0577 3.34049 13.3263 3.75978C12.5458 2.93912 11.5372 2.37135 10.4307 2.1298C9.32419 1.88826 8.17069 1.98404 7.11919 2.40478C6.06769 2.82552 5.16651 3.55188 4.53205 4.49003C3.89759 5.42819 3.559 6.53503 3.56004 7.66758C3.56032 7.86801 3.57114 8.06829 3.59244 8.26758C2.7155 8.59577 1.98178 9.2217 1.51953 10.036C1.05728 10.8503 0.895896 11.8011 1.06359 12.7223C1.23128 13.6435 1.71738 14.4765 2.43693 15.0756C3.15648 15.6748 4.0637 16.002 5.00004 16.0001H19C19.9147 16.0012 20.8021 15.6884 21.5139 15.114C22.2257 14.5395 22.7188 13.7383 22.911 12.844C23.1031 11.9497 22.9826 11.0166 22.5695 10.2005C22.1564 9.38442 21.4758 8.73477 20.6414 8.36008ZM10.63 21.6301C10.63 21.9935 10.7744 22.3421 11.0314 22.5991C11.2884 22.8561 11.637 23.0005 12.0004 23.0005C12.3639 23.0005 12.7125 22.8561 12.9695 22.5991C13.2265 22.3421 13.3708 21.9935 13.3708 21.6301C13.1081 20.3751 12.6452 19.1706 12 18.0626C11.3551 19.1706 10.8926 20.3752 10.63 21.6301ZM12.8708 21.6301C12.8708 21.8609 12.7791 22.0823 12.6159 22.2456C12.4527 22.4088 12.2313 22.5005 12.0004 22.5005C11.7696 22.5005 11.5482 22.4088 11.385 22.2456C11.2217 22.0823 11.13 21.8609 11.13 21.6301C11.2807 20.7611 11.5747 19.9232 12 19.1506C12.4255 19.9231 12.7195 20.7611 12.87 21.6301H12.8708ZM16.63 21.6301C16.63 21.9935 16.7744 22.3421 17.0314 22.5991C17.2884 22.8561 17.637 23.0005 18.0004 23.0005C18.3639 23.0005 18.7125 22.8561 18.9695 22.5991C19.2265 22.3421 19.3708 21.9935 19.3708 21.6301C19.1081 20.3751 18.6452 19.1706 18 18.0626C17.3551 19.1706 16.8926 20.3752 16.63 21.6301ZM18.8708 21.6301C18.8708 21.8609 18.7791 22.0823 18.6159 22.2456C18.4527 22.4088 18.2313 22.5005 18.0004 22.5005C17.7696 22.5005 17.5482 22.4088 17.385 22.2456C17.2217 22.0823 17.13 21.8609 17.13 21.6301C17.2807 20.7611 17.5747 19.9232 18 19.1506C18.4255 19.9231 18.7195 20.7611 18.87 21.6301H18.8708ZM4.63004 21.6301C4.63004 21.9935 4.77442 22.3421 5.03142 22.5991C5.28842 22.8561 5.63699 23.0005 6.00044 23.0005C6.36389 23.0005 6.71246 22.8561 6.96946 22.5991C7.22646 22.3421 7.37084 21.9935 7.37084 21.6301C7.10807 20.3751 6.64523 19.1706 6.00004 18.0626C5.35512 19.1706 4.89255 20.3752 4.63004 21.6301ZM6.87084 21.6301C6.87084 21.8609 6.77914 22.0823 6.6159 22.2456C6.45267 22.4088 6.23128 22.5005 6.00044 22.5005C5.76959 22.5005 5.5482 22.4088 5.38497 22.2456C5.22174 22.0823 5.13004 21.8609 5.13004 21.6301C5.28073 20.7611 5.57473 19.9232 6.00004 19.1506C6.42553 19.9231 6.71954 20.7611 6.87004 21.6301H6.87084Z" fill="black"/>
</svg>
