<svg width="24" height="24" viewBox="0 0 24 24" fill="none" xmlns="http://www.w3.org/2000/svg">
<path d="M14.4531 5.9058C15.5661 6.9799 16.4532 8.26563 17.0624 9.68744C17.6715 11.1092 17.9902 12.6384 18 14.1852C17.9911 15.8061 17.3467 17.3589 16.2052 18.5098C15.0638 19.6608 13.5165 20.3181 11.8957 20.3405C10.2749 20.3629 8.70997 19.7487 7.53716 18.6297C6.36435 17.5108 5.67725 15.9765 5.62349 14.3564V14.181C5.67613 12.724 6.13871 11.3114 6.95809 10.1054C7.07658 11.1442 7.46591 12.1335 8.08709 12.9745C8.38826 13.3534 8.77096 13.6595 9.20672 13.87C9.64248 14.0806 10.1201 14.1903 10.6041 14.1909C11.281 14.1888 11.9448 14.0034 12.5248 13.6543C13.1048 13.3053 13.5794 12.8056 13.8983 12.2085C14.7884 10.2302 14.9839 8.00918 14.4531 5.9058ZM10.5 1C13.4523 6.0362 13.4375 12.1909 10.6041 12.1909C8.56249 12.1909 8.60408 7.5 9.06249 5.1667C6.37499 6.9062 3.62349 10.5 3.62349 14.181L3.62119 14.1852C3.64727 16.34 4.52156 18.3977 6.05454 19.9122C7.58751 21.4267 9.65563 22.2761 11.8106 22.2761C13.9655 22.2761 16.0337 21.4267 17.5666 19.9122C19.0996 18.3977 19.9739 16.34 20 14.1852V14.181C20 7.7188 15.4167 2.875 10.5 1Z" fill="black"/>
</svg>
