<svg width="24" height="24" viewBox="0 0 24 24" fill="none" xmlns="http://www.w3.org/2000/svg">
<path d="M6.62998 21.6301C6.62998 21.81 6.66542 21.9882 6.73429 22.1545C6.80316 22.3208 6.90409 22.4718 7.03134 22.5991C7.15859 22.7263 7.30966 22.8273 7.47592 22.8961C7.64218 22.965 7.82037 23.0004 8.00033 23.0004C8.18028 23.0004 8.35848 22.965 8.52474 22.8961C8.691 22.8273 8.84206 22.7263 8.96931 22.5991C9.09656 22.4718 9.1975 22.3208 9.26637 22.1545C9.33523 21.9882 9.37068 21.81 9.37068 21.6301C9.10793 20.3751 8.64513 19.1706 7.99998 18.0626C7.35506 19.1706 6.89249 20.3752 6.62998 21.6301ZM20.6414 8.36008C20.6477 8.25758 20.672 8.16008 20.672 8.05608C20.672 6.74488 20.1511 5.48738 19.2239 4.56022C18.2968 3.63306 17.0393 3.11218 15.7281 3.11218C14.885 3.1174 14.0577 3.34049 13.3263 3.75978C12.5458 2.93912 11.5371 2.37135 10.4306 2.1298C9.32413 1.88826 8.17063 1.98404 7.11913 2.40478C6.06763 2.82552 5.16644 3.55188 4.53198 4.49003C3.89753 5.42819 3.55894 6.53503 3.55998 7.66758C3.56026 7.86801 3.57107 8.06829 3.59238 8.26758C2.71544 8.59577 1.98172 9.2217 1.51947 10.036C1.05722 10.8503 0.895835 11.8011 1.06353 12.7223C1.23122 13.6435 1.71732 14.4765 2.43687 15.0756C3.15642 15.6748 4.06364 16.002 4.99998 16.0001H19C19.9147 16.0012 20.802 15.6884 21.5138 15.114C22.2256 14.5395 22.7188 13.7383 22.9109 12.844C23.103 11.9497 22.9825 11.0166 22.5694 10.2005C22.1564 9.38442 21.4758 8.73477 20.6414 8.36008ZM19 14.0001H4.99998C4.46973 13.9995 3.96138 13.7886 3.58644 13.4136C3.21149 13.0387 3.00059 12.5303 2.99998 12.0001C2.9996 11.5941 3.12402 11.1978 3.35639 10.8649C3.58877 10.532 3.91786 10.2786 4.29908 10.139L5.74378 9.59368L5.58178 8.05808C5.56783 7.92855 5.56069 7.79837 5.56038 7.66808C5.56136 6.69566 5.94805 5.76333 6.63561 5.07567C7.32318 4.38802 8.25545 4.00119 9.22788 4.00008C9.7242 3.99897 10.2155 4.09955 10.6714 4.29562C11.1274 4.49168 11.5384 4.77908 11.879 5.14008L12.95 6.26348L14.3039 5.50448C14.7366 5.25282 15.2272 5.11768 15.7278 5.11228C16.4959 5.11307 17.2333 5.41366 17.7831 5.95005C18.3328 6.48644 18.6515 7.21625 18.6712 7.98408C18.66 8.06748 18.6506 8.15128 18.6452 8.23658L18.56 9.61428L19.8179 10.1827C20.2356 10.3691 20.5766 10.6933 20.7837 11.1011C20.9909 11.509 21.0516 11.9756 20.9558 12.4228C20.86 12.8701 20.6134 13.2708 20.2573 13.558C19.9013 13.8451 19.4574 14.0012 19 14.0001ZM17.3649 18.7301L16.0993 19.4608V18.0001H14.9V19.4613L13.6343 18.7306L13.0343 19.7696L14.3 20.5001L13.0348 21.2301L13.6348 22.2691L14.9 21.5389V23.0001H16.0992V21.5389L17.3648 22.2696L17.9648 21.2306L16.6996 20.5006L17.9648 19.7706L17.3649 18.7301Z" fill="black"/>
</svg>
