<svg width="24" height="24" viewBox="0 0 24 24" fill="none" xmlns="http://www.w3.org/2000/svg">
<path d="M12 1.8718C13.9139 4.0158 19.0015 10.1702 19.0015 14.9987C19.0015 16.8556 18.2638 18.6365 16.9508 19.9495C15.6378 21.2625 13.8569 22.0002 12 22.0002C10.1431 22.0002 8.36223 21.2625 7.0492 19.9495C5.73616 18.6365 4.9985 16.8556 4.9985 14.9987C4.9985 10.1702 10.0861 4.0158 12 1.8718ZM12 0.395996C12 0.395996 3.9985 8.5974 3.9985 14.9987C3.9985 17.1208 4.84152 19.156 6.34209 20.6566C7.84266 22.1572 9.87788 23.0002 12 23.0002C14.1221 23.0002 16.1573 22.1572 17.6579 20.6566C19.1585 19.156 20.0015 17.1208 20.0015 14.9987C20.0015 8.5974 12 0.395996 12 0.395996Z" fill="black"/>
</svg>
