<svg width="24" height="24" viewBox="0 0 24 24" fill="none" xmlns="http://www.w3.org/2000/svg">
<path d="M20.6414 8.36008C20.6478 8.25758 20.6721 8.16008 20.6721 8.05608C20.6721 7.40683 20.5442 6.76394 20.2957 6.16411C20.0473 5.56428 19.6831 5.01927 19.224 4.56018C18.7649 4.1011 18.2199 3.73693 17.6201 3.48849C17.0202 3.24004 16.3773 3.11217 15.7281 3.11218C14.885 3.1174 14.0577 3.34049 13.3263 3.75978C12.5458 2.93912 11.5371 2.37135 10.4306 2.1298C9.32413 1.88826 8.17063 1.98404 7.11913 2.40478C6.06763 2.82552 5.16644 3.55188 4.53198 4.49003C3.89753 5.42819 3.55894 6.53503 3.55998 7.66758C3.56026 7.86801 3.57107 8.06829 3.59238 8.26758C2.71544 8.59577 1.98172 9.2217 1.51947 10.036C1.05722 10.8503 0.895835 11.8011 1.06353 12.7223C1.23122 13.6435 1.71732 14.4765 2.43687 15.0756C3.15642 15.6748 4.06364 16.002 4.99998 16.0001H19C19.9147 16.0012 20.802 15.6884 21.5138 15.114C22.2256 14.5395 22.7188 13.7383 22.9109 12.844C23.103 11.9497 22.9825 11.0166 22.5694 10.2005C22.1564 9.38442 21.4758 8.73477 20.6414 8.36008ZM13.8652 18.7301L12.6 19.4613V18.0001H11.4V19.4613L10.1344 18.7306L9.53438 19.7696L10.8 20.5001L9.53478 21.2301L10.1348 22.2691L11.4 21.5389V23.0001H12.6V21.5389L13.8656 22.2696L14.4656 21.2306L13.2 20.5001L14.4652 19.7701L13.8652 18.7301ZM20.8652 18.7301L19.6 19.4613V18.0001H18.4V19.4613L17.1344 18.7306L16.5344 19.7696L17.8 20.5001L16.5348 21.2301L17.1348 22.2691L18.4 21.5389V23.0001H19.6V21.5389L20.8656 22.2696L21.4656 21.2306L20.2 20.5001L21.4652 19.7701L20.8652 18.7301ZM6.86518 18.7301L5.59998 19.4613V18.0001H4.39998V19.4613L3.13438 18.7306L2.53438 19.7696L3.79998 20.5001L2.53478 21.2301L3.13478 22.2691L4.39998 21.5389V23.0001H5.59998V21.5389L6.86558 22.2696L7.46558 21.2306L6.19998 20.5001L7.46518 19.7701L6.86518 18.7301Z" fill="black"/>
</svg>
