<svg width="24" height="24" viewBox="0 0 24 24" fill="none" xmlns="http://www.w3.org/2000/svg">
<path d="M12.25 1H11.75V4H12.25V1ZM7.9341 5.5811L5.813 3.459L5.46 3.8125L7.5806 5.9346L7.9341 5.5811ZM6 9.75H3V10.25H6V9.75ZM18 9.75V10.25H21V9.75H18ZM18.5405 3.8125L18.187 3.459L16.0659 5.5811L16.4194 5.9346L18.5405 3.8125ZM15.5805 11.75C15.8528 11.2066 15.9963 10.6078 16 10C16 8.93913 15.5786 7.92172 14.8284 7.17157C14.0783 6.42143 13.0609 6 12 6C10.9391 6 9.92172 6.42143 9.17157 7.17157C8.42143 7.92172 8 8.93913 8 10C8.00353 10.6078 8.14694 11.2066 8.4191 11.75H15.5805ZM3 14.25H21V13.75H3V14.25ZM9.3286 19.6349L9.6801 19.9913L11.753 17.9488V23H12.253V17.9488L14.32 19.9853L14.6715 19.6288L12.003 17L9.3286 19.6349Z" fill="black"/>
</svg>
