<svg width="24" height="24" viewBox="0 0 24 24" fill="none" xmlns="http://www.w3.org/2000/svg">
<path d="M13 2.50001C14.9678 2.50088 16.8864 3.11537 18.4885 4.25791C16.774 4.70316 15.2557 5.70495 14.1719 7.10613C13.0882 8.50731 12.5002 10.2286 12.5002 12C12.5002 13.7714 13.0882 15.4927 14.1719 16.8939C15.2557 18.2951 16.774 19.2969 18.4885 19.7421C17.2697 20.6063 15.8642 21.1707 14.3862 21.3895C12.9082 21.6082 11.3994 21.4751 9.98256 21.001C8.56569 20.5269 7.28069 19.7251 6.23201 18.6609C5.18334 17.5966 4.40059 16.2999 3.9474 14.8762C3.49421 13.4525 3.38335 11.942 3.62386 10.4674C3.86436 8.99275 4.44944 7.59569 5.33151 6.38976C6.21359 5.18384 7.36778 4.20307 8.70027 3.52718C10.0327 2.8513 11.5059 2.49937 13 2.50001ZM13 2.00001C11.3781 1.99732 9.77983 2.38918 8.34308 3.14181C6.90634 3.89444 5.67423 4.98525 4.753 6.32017C3.83176 7.65509 3.24906 9.19406 3.05514 10.8044C2.86121 12.4147 3.06188 14.048 3.63985 15.5634C4.21782 17.0789 5.15573 18.431 6.37271 19.5033C7.58969 20.5755 9.04921 21.3356 10.6254 21.718C12.2016 22.1005 13.8472 22.0938 15.4202 21.6985C16.9933 21.3033 18.4466 20.5314 19.6548 19.4493C17.824 19.2424 16.1334 18.3686 14.9059 16.9945C13.6783 15.6205 12.9998 13.8425 12.9998 12C12.9998 10.1575 13.6783 8.37953 14.9059 7.00549C16.1334 5.63144 17.824 4.75758 19.6548 4.55071C17.8276 2.908 15.4571 1.99944 13 2.00001Z" fill="black"/>
</svg>
