<svg width="24" height="24" viewBox="0 0 24 24" fill="none" xmlns="http://www.w3.org/2000/svg">
<path d="M12 2.6161C14.4741 5.455 18.5015 10.9313 18.5015 14.9987C18.5015 16.723 17.8165 18.3767 16.5973 19.596C15.378 20.8152 13.7243 21.5002 12 21.5002C10.2757 21.5002 8.62202 20.8152 7.40275 19.596C6.18348 18.3767 5.4985 16.723 5.4985 14.9987C5.4985 10.9313 9.5259 5.455 12 2.6161ZM12 0.396096C12 0.396096 3.9985 8.5974 3.9985 14.9987C3.9985 17.1208 4.84152 19.156 6.34209 20.6566C7.84266 22.1572 9.87788 23.0002 12 23.0002C14.1221 23.0002 16.1573 22.1572 17.6579 20.6566C19.1585 19.156 20.0015 17.1208 20.0015 14.9987C20.0015 8.5974 12 0.395996 12 0.395996V0.396096Z" fill="black"/>
</svg>
