<svg width="24" height="24" viewBox="0 0 24 24" fill="none" xmlns="http://www.w3.org/2000/svg">
<path d="M12.5 4H11.5V6H12.5V4ZM8.1108 7.4038L6.6968 5.99L5.99 6.6968L7.4041 8.1108L8.1108 7.4038ZM6 11.5H4V12.5H6V11.5ZM5.99 17.3032L6.6971 18.0103L8.1111 16.5962L7.4041 15.8892L5.99 17.3032ZM11.5 20H12.5V18H11.5V20ZM15.8892 16.5962L17.3032 18.0103L18.0103 17.3032L16.5962 15.8892L15.8892 16.5962ZM18 11.5V12.5H20V11.5H18ZM18.01 6.6968L17.3032 5.99L15.8892 7.4041L16.5962 8.1111L18.01 6.6968ZM12 8C11.2089 8 10.4355 8.2346 9.77772 8.67412C9.11992 9.11365 8.60723 9.73836 8.30448 10.4693C8.00173 11.2002 7.92252 12.0044 8.07686 12.7804C8.2312 13.5563 8.61216 14.269 9.17157 14.8284C9.73098 15.3878 10.4437 15.7688 11.2196 15.9231C11.9956 16.0775 12.7998 15.9983 13.5307 15.6955C14.2616 15.3928 14.8864 14.8801 15.3259 14.2223C15.7654 13.5645 16 12.7911 16 12C16 10.9391 15.5786 9.92172 14.8284 9.17157C14.0783 8.42143 13.0609 8 12 8Z" fill="black"/>
</svg>
