<svg width="24" height="24" viewBox="0 0 24 24" fill="none" xmlns="http://www.w3.org/2000/svg">
<path d="M13 3.00001C14.512 3.0003 15.9993 3.38384 17.3229 4.11481C15.7508 4.74875 14.404 5.83819 13.4556 7.2432C12.5072 8.64822 12.0005 10.3047 12.0005 11.9998C12.0005 13.695 12.5072 15.3514 13.4556 16.7564C14.404 18.1614 15.7508 19.2509 17.3229 19.8848C16.1201 20.5446 14.7824 20.9206 13.412 20.984C12.0416 21.0474 10.6749 20.7966 9.41628 20.2508C8.1577 19.7049 7.04061 18.8785 6.15044 17.8346C5.26027 16.7908 4.6206 15.5572 4.28035 14.2282C3.9401 12.8992 3.90827 11.51 4.18731 10.1669C4.46635 8.82368 5.04885 7.5621 5.89029 6.4786C6.73172 5.39509 7.80979 4.51836 9.04206 3.91545C10.2743 3.31253 11.6282 2.99941 13 3.00001ZM13 2.00001C11.3781 1.99732 9.77983 2.38918 8.34308 3.14181C6.90634 3.89444 5.67423 4.98525 4.753 6.32017C3.83176 7.65509 3.24906 9.19406 3.05514 10.8044C2.86121 12.4147 3.06188 14.048 3.63985 15.5634C4.21782 17.0789 5.15573 18.431 6.37271 19.5033C7.58969 20.5755 9.04921 21.3356 10.6254 21.718C12.2016 22.1005 13.8472 22.0938 15.4202 21.6985C16.9933 21.3033 18.4466 20.5314 19.6548 19.4493C17.824 19.2424 16.1334 18.3686 14.9059 16.9945C13.6783 15.6205 12.9998 13.8425 12.9998 12C12.9998 10.1575 13.6783 8.37953 14.9059 7.00549C16.1334 5.63144 17.824 4.75758 19.6548 4.55071C17.8276 2.90796 15.4571 1.99939 13 2.00001Z" fill="black"/>
</svg>
