<svg width="24" height="24" viewBox="0 0 24 24" fill="none" xmlns="http://www.w3.org/2000/svg">
<path d="M14 4H14.0581C15.1495 5.02711 16.0191 6.26666 16.6135 7.64239C17.208 9.01812 17.5146 10.5009 17.5146 11.9996C17.5146 13.4983 17.208 14.9811 16.6135 16.3568C16.0191 17.7325 15.1495 18.9721 14.0581 19.9992L14 20C11.8783 20 9.84344 19.1571 8.34315 17.6569C6.84285 16.1566 6 14.1217 6 12C6 9.87827 6.84285 7.84344 8.34315 6.34315C9.84344 4.84285 11.8783 4 14 4ZM14 2C11.3478 2 8.8043 3.05357 6.92893 4.92893C5.05357 6.8043 4 9.34784 4 12C4 14.6522 5.05357 17.1957 6.92893 19.0711C8.8043 20.9464 11.3478 22 14 22C14.2925 22 14.58 21.9808 14.8666 21.9562C16.3219 20.7372 17.4923 19.214 18.2954 17.4939C19.0984 15.7737 19.5146 13.8984 19.5146 12C19.5146 10.1016 19.0984 8.22631 18.2954 6.50615C17.4923 4.78598 16.3219 3.26278 14.8666 2.0438C14.58 2.0192 14.2925 2 14 2Z" fill="black"/>
</svg>
