<svg width="24" height="24" viewBox="0 0 24 24" fill="none" xmlns="http://www.w3.org/2000/svg">
<path d="M11.6142 2.0369C13.9252 3.13224 15.8864 4.84824 17.2789 6.99339C18.6713 9.13853 19.4403 11.6284 19.5 14.1852C19.4864 16.2045 18.679 18.1375 17.2523 19.5665C15.8255 20.9956 13.8939 21.8061 11.8746 21.8231C9.85532 21.84 7.9104 21.062 6.4599 19.657C5.00941 18.252 4.16976 16.3329 4.12229 14.3141L4.12349 14.3118V14.181C4.12349 11.1692 6.14689 8.1093 8.39419 6.2739C8.18659 8.2311 8.26718 10.8324 9.24548 12.0216C9.40603 12.2292 9.61188 12.3975 9.84733 12.5135C10.0828 12.6295 10.3416 12.6901 10.6041 12.6909C11.0175 12.6912 11.4228 12.5765 11.7747 12.3596C12.1266 12.1427 12.4112 11.8322 12.5968 11.4628C13.7339 9.478 13.2826 5.5394 11.6142 2.0369ZM10.5 1C13.4523 6.0363 13.4375 12.1909 10.6041 12.1909C8.56249 12.1909 8.60408 7.5 9.06249 5.1667C6.37499 6.9063 3.62349 10.5 3.62349 14.181L3.62119 14.1852C3.64727 16.34 4.52156 18.3977 6.05454 19.9122C7.58751 21.4267 9.65563 22.2761 11.8106 22.2761C13.9655 22.2761 16.0337 21.4267 17.5666 19.9122C19.0996 18.3977 19.9739 16.34 20 14.1852V14.181C20 7.7188 15.4167 2.875 10.5 1Z" fill="black"/>
</svg>
