<svg width="24" height="24" viewBox="0 0 24 24" fill="none" xmlns="http://www.w3.org/2000/svg">
<path fill-rule="evenodd" clip-rule="evenodd" d="M4.2 3.79981C3.96266 3.79981 3.73066 3.87018 3.53332 4.00204C3.33598 4.1339 3.18217 4.32131 3.09135 4.54059C3.00052 4.75986 2.97676 5.00114 3.02306 5.23391C3.06936 5.46669 3.18365 5.68051 3.35147 5.84833C3.5193 6.01616 3.73311 6.13045 3.96589 6.17675C4.19867 6.22305 4.43995 6.19929 4.65922 6.10846C4.87849 6.01764 5.06591 5.86383 5.19776 5.66649C5.32962 5.46915 5.4 5.23714 5.4 4.99981C5.4 4.84222 5.36896 4.68618 5.30866 4.54059C5.24835 4.39499 5.15996 4.26271 5.04853 4.15128C4.9371 4.03985 4.80481 3.95146 4.65922 3.89115C4.51363 3.83084 4.35759 3.79981 4.2 3.79981ZM15.8 6.19981C16.0373 6.19981 16.2693 6.12943 16.4667 5.99757C16.664 5.86571 16.8178 5.6783 16.9087 5.45903C16.9995 5.23975 17.0232 4.99847 16.9769 4.7657C16.9306 4.53292 16.8164 4.3191 16.6485 4.15128C16.4807 3.98345 16.2669 3.86917 16.0341 3.82286C15.8013 3.77656 15.5601 3.80032 15.3408 3.89115C15.1215 3.98197 14.9341 4.13578 14.8022 4.33312C14.6704 4.53046 14.6 4.76247 14.6 4.99981C14.6 5.31806 14.7264 5.62329 14.9515 5.84833C15.1765 6.07338 15.4817 6.19981 15.8 6.19981ZM8.0667 6.19981C8.30404 6.19981 8.53605 6.12943 8.73338 5.99757C8.93072 5.86571 9.08453 5.6783 9.17536 5.45903C9.26618 5.23975 9.28995 4.99847 9.24364 4.7657C9.19734 4.53292 9.08305 4.3191 8.91523 4.15128C8.74741 3.98345 8.53359 3.86917 8.30081 3.82286C8.06803 3.77656 7.82675 3.80032 7.60748 3.89115C7.38821 3.98197 7.20079 4.13578 7.06894 4.33312C6.93708 4.53046 6.8667 4.76247 6.8667 4.99981C6.8667 5.31806 6.99313 5.62329 7.21817 5.84833C7.44322 6.07338 7.74844 6.19981 8.0667 6.19981ZM11.9333 6.19981C12.1706 6.19981 12.4026 6.12943 12.6 5.99757C12.7973 5.86571 12.9511 5.6783 13.042 5.45903C13.1328 5.23975 13.1565 4.99847 13.1102 4.7657C13.0639 4.53292 12.9497 4.3191 12.7818 4.15128C12.614 3.98345 12.4002 3.86917 12.1674 3.82286C11.9346 3.77656 11.6934 3.80032 11.4741 3.89115C11.2548 3.98197 11.0674 4.13578 10.9355 4.33312C10.8037 4.53046 10.7333 4.76247 10.7333 4.99981C10.7333 5.31806 10.8597 5.62329 11.0848 5.84833C11.3098 6.07338 11.615 6.19981 11.9333 6.19981ZM8.2 8.79981C7.96266 8.79981 7.73066 8.87018 7.53332 9.00204C7.33598 9.1339 7.18217 9.32131 7.09134 9.54059C7.00052 9.75986 6.97676 10.0011 7.02306 10.2339C7.06936 10.4667 7.18365 10.6805 7.35147 10.8483C7.5193 11.0162 7.73312 11.1304 7.96589 11.1767C8.19867 11.223 8.43995 11.1993 8.65922 11.1085C8.87849 11.0176 9.06591 10.8638 9.19776 10.6665C9.32962 10.4692 9.4 10.2371 9.4 9.99981C9.4 9.84222 9.36896 9.68618 9.30866 9.54059C9.24835 9.39499 9.15996 9.26271 9.04853 9.15128C8.9371 9.03985 8.80481 8.95146 8.65922 8.89115C8.51363 8.83084 8.35759 8.79981 8.2 8.79981ZM19.8 11.1998C20.0373 11.1998 20.2693 11.1294 20.4667 10.9976C20.664 10.8657 20.8178 10.6783 20.9087 10.459C20.9995 10.2398 21.0232 9.99847 20.9769 9.7657C20.9306 9.53292 20.8164 9.3191 20.6485 9.15128C20.4807 8.98345 20.2669 8.86917 20.0341 8.82286C19.8013 8.77656 19.5601 8.80033 19.3408 8.89115C19.1215 8.98198 18.9341 9.13578 18.8022 9.33312C18.6704 9.53046 18.6 9.76247 18.6 9.99981C18.6 10.3181 18.7264 10.6233 18.9515 10.8483C19.1765 11.0734 19.4817 11.1998 19.8 11.1998ZM12.0667 8.79981C11.8294 8.79981 11.5974 8.87018 11.4 9.00204C11.2027 9.1339 11.0489 9.32131 10.958 9.54059C10.8672 9.75986 10.8435 10.0011 10.8898 10.2339C10.9361 10.4667 11.0504 10.6805 11.2182 10.8483C11.386 11.0162 11.5998 11.1304 11.8326 11.1767C12.0654 11.223 12.3066 11.1993 12.5259 11.1085C12.7452 11.0176 12.9326 10.8638 13.0645 10.6665C13.1963 10.4692 13.2667 10.2371 13.2667 9.99981C13.2667 9.68155 13.1403 9.37632 12.9152 9.15128C12.6902 8.92623 12.385 8.79981 12.0667 8.79981ZM15.9333 8.79981C15.696 8.79981 15.464 8.87018 15.2666 9.00204C15.0693 9.1339 14.9155 9.32131 14.8246 9.54059C14.7338 9.75986 14.7101 10.0011 14.7564 10.2339C14.8027 10.4667 14.917 10.6805 15.0848 10.8483C15.2526 11.0162 15.4664 11.1304 15.6992 11.1767C15.932 11.223 16.1733 11.1993 16.3925 11.1085C16.6118 11.0176 16.7992 10.8638 16.9311 10.6665C17.0629 10.4692 17.1333 10.2371 17.1333 9.99981C17.1333 9.84222 17.1023 9.68618 17.042 9.54059C16.9817 9.39499 16.8933 9.26271 16.7818 9.15128C16.6704 9.03985 16.5381 8.95146 16.3925 8.89115C16.2469 8.83084 16.0909 8.79981 15.9333 8.79981ZM4.2 13.7998C3.96266 13.7998 3.73066 13.8702 3.53332 14.002C3.33598 14.1339 3.18217 14.3213 3.09135 14.5406C3.00052 14.7599 2.97676 15.0011 3.02306 15.2339C3.06936 15.4667 3.18365 15.6805 3.35147 15.8483C3.5193 16.0162 3.73311 16.1304 3.96589 16.1767C4.19867 16.2231 4.43995 16.1993 4.65922 16.1085C4.87849 16.0176 5.06591 15.8638 5.19776 15.6665C5.32962 15.4692 5.4 15.2371 5.4 14.9998C5.4 14.8422 5.36896 14.6862 5.30866 14.5406C5.24835 14.395 5.15996 14.2627 5.04853 14.1513C4.9371 14.0398 4.80481 13.9515 4.65922 13.8912C4.51363 13.8308 4.35759 13.7998 4.2 13.7998ZM15.8 16.1998C16.0373 16.1998 16.2693 16.1294 16.4667 15.9976C16.664 15.8657 16.8178 15.6783 16.9087 15.459C16.9995 15.2398 17.0232 14.9985 16.9769 14.7657C16.9306 14.5329 16.8164 14.3191 16.6485 14.1513C16.4807 13.9835 16.2669 13.8692 16.0341 13.8229C15.8013 13.7766 15.5601 13.8003 15.3408 13.8912C15.1215 13.982 14.9341 14.1358 14.8022 14.3331C14.6704 14.5305 14.6 14.7625 14.6 14.9998C14.6 15.3181 14.7264 15.6233 14.9515 15.8483C15.1765 16.0734 15.4817 16.1998 15.8 16.1998ZM8.0667 16.1998C8.30404 16.1998 8.53605 16.1294 8.73338 15.9976C8.93072 15.8657 9.08453 15.6783 9.17536 15.459C9.26618 15.2398 9.28995 14.9985 9.24364 14.7657C9.19734 14.5329 9.08305 14.3191 8.91523 14.1513C8.74741 13.9835 8.53359 13.8692 8.30081 13.8229C8.06803 13.7766 7.82675 13.8003 7.60748 13.8912C7.38821 13.982 7.20079 14.1358 7.06894 14.3331C6.93708 14.5305 6.8667 14.7625 6.8667 14.9998C6.8667 15.3181 6.99313 15.6233 7.21817 15.8483C7.44322 16.0734 7.74844 16.1998 8.0667 16.1998ZM11.9333 16.1998C12.1706 16.1998 12.4026 16.1294 12.6 15.9976C12.7973 15.8657 12.9511 15.6783 13.042 15.459C13.1328 15.2398 13.1565 14.9985 13.1102 14.7657C13.0639 14.5329 12.9497 14.3191 12.7818 14.1513C12.614 13.9835 12.4002 13.8692 12.1674 13.8229C11.9346 13.7766 11.6934 13.8003 11.4741 13.8912C11.2548 13.982 11.0674 14.1358 10.9355 14.3331C10.8037 14.5305 10.7333 14.7625 10.7333 14.9998C10.7333 15.3181 10.8597 15.6233 11.0848 15.8483C11.3098 16.0734 11.615 16.1998 11.9333 16.1998ZM8.2 18.7998C7.96266 18.7998 7.73066 18.8702 7.53332 19.002C7.33598 19.1339 7.18217 19.3213 7.09134 19.5406C7.00052 19.7599 6.97676 20.0011 7.02306 20.2339C7.06936 20.4667 7.18365 20.6805 7.35147 20.8483C7.5193 21.0162 7.73312 21.1304 7.96589 21.1767C8.19867 21.2231 8.43995 21.1993 8.65922 21.1085C8.87849 21.0176 9.06591 20.8638 9.19776 20.6665C9.32962 20.4692 9.4 20.2371 9.4 19.9998C9.4 19.8422 9.36896 19.6862 9.30866 19.5406C9.24835 19.395 9.15996 19.2627 9.04853 19.1513C8.9371 19.0398 8.80481 18.9515 8.65922 18.8911C8.51363 18.8308 8.35759 18.7998 8.2 18.7998ZM19.8 18.7998C19.5627 18.7998 19.3307 18.8702 19.1333 19.002C18.936 19.1339 18.7822 19.3213 18.6913 19.5406C18.6005 19.7599 18.5768 20.0011 18.6231 20.2339C18.6694 20.4667 18.7836 20.6805 18.9515 20.8483C19.1193 21.0162 19.3331 21.1304 19.5659 21.1767C19.7987 21.2231 20.0399 21.1993 20.2592 21.1085C20.4785 21.0176 20.6659 20.8638 20.7978 20.6665C20.9296 20.4692 21 20.2371 21 19.9998C21 19.6815 20.8736 19.3763 20.6485 19.1513C20.4235 18.9262 20.1183 18.7998 19.8 18.7998ZM12.0667 18.7998C11.8294 18.7998 11.5974 18.8702 11.4 19.002C11.2027 19.1339 11.0489 19.3213 10.958 19.5406C10.8672 19.7599 10.8435 20.0011 10.8898 20.2339C10.9361 20.4667 11.0504 20.6805 11.2182 20.8483C11.386 21.0162 11.5998 21.1304 11.8326 21.1767C12.0654 21.2231 12.3066 21.1993 12.5259 21.1085C12.7452 21.0176 12.9326 20.8638 13.0645 20.6665C13.1963 20.4692 13.2667 20.2371 13.2667 19.9998C13.2667 19.6815 13.1403 19.3763 12.9152 19.1513C12.6902 18.9262 12.385 18.7998 12.0667 18.7998ZM15.9333 18.7998C15.696 18.7998 15.464 18.8702 15.2666 19.002C15.0693 19.1339 14.9155 19.3213 14.8246 19.5406C14.7338 19.7599 14.7101 20.0011 14.7564 20.2339C14.8027 20.4667 14.917 20.6805 15.0848 20.8483C15.2526 21.0162 15.4664 21.1304 15.6992 21.1767C15.932 21.2231 16.1733 21.1993 16.3925 21.1085C16.6118 21.0176 16.7992 20.8638 16.9311 20.6665C17.0629 20.4692 17.1333 20.2371 17.1333 19.9998C17.1333 19.6815 17.0069 19.3763 16.7818 19.1513C16.5568 18.9262 16.2516 18.7998 15.9333 18.7998Z" fill="black"/>
</svg>
