<svg width="24" height="24" viewBox="0 0 24 24" fill="none" xmlns="http://www.w3.org/2000/svg">
<path d="M9.75 2H8.25V5H9.75V2ZM5.2881 6.2271L3.166 4.106L2.106 5.1665L4.228 7.2876L5.2881 6.2271ZM3 10.25H0V11.75H3V10.25ZM2.1055 16.8335L3.1655 17.8935L5.2876 15.7724L4.227 14.7124L2.1055 16.8335ZM15.6865 4.93L14.5889 3.9062L12.543 6.1L13.6406 7.1234L15.6865 4.93ZM20.7321 11.1927C20.4712 10.405 20.0046 9.70129 19.3804 9.15443C18.7563 8.60757 17.9974 8.23741 17.1823 8.08225C16.3671 7.92709 15.5253 7.99257 14.7439 8.27191C13.9626 8.55126 13.27 9.03431 12.738 9.6711C12.5243 9.05906 12.1643 8.50849 11.6893 8.06726C11.2143 7.62604 10.6388 7.30752 10.0127 7.1394C9.38654 6.97128 8.72884 6.95864 8.09674 7.1026C7.46464 7.24655 6.87727 7.54274 6.3857 7.9654C5.89414 8.38806 5.51326 8.9244 5.27618 9.52778C5.03911 10.1312 4.95302 10.7833 5.02539 11.4276C5.09777 12.0718 5.32642 12.6886 5.69147 13.2243C6.05652 13.7601 6.54691 14.1985 7.12 14.5016C6.96423 15.1604 6.96014 15.846 7.10805 16.5067C7.25595 17.1673 7.55197 17.7857 7.97378 18.3152C8.3956 18.8447 8.93217 19.2715 9.54302 19.5634C10.1539 19.8552 10.823 20.0045 11.5 20H19.5C20.5846 20.0028 21.6336 19.6127 22.4528 18.9018C23.2721 18.191 23.8062 17.2076 23.9565 16.1334C24.1068 15.0593 23.863 13.967 23.2702 13.0587C22.6775 12.1503 21.7759 11.4874 20.7321 11.1924V11.1927ZM7.6959 13.1177C7.32565 12.8893 7.02156 12.5681 6.81382 12.1859C6.60607 11.8036 6.5019 11.3737 6.51163 10.9388C6.52136 10.5039 6.64466 10.0791 6.8693 9.70654C7.09393 9.334 7.41208 9.02668 7.79218 8.81509C8.17228 8.60349 8.60111 8.49497 9.0361 8.50031C9.47109 8.50564 9.89713 8.62465 10.2719 8.8455C10.6467 9.06636 10.9572 9.38139 11.1727 9.75933C11.3881 10.1373 11.5009 10.565 11.5 11C10.7383 11.0009 9.98932 11.1958 9.32377 11.5663C8.65821 11.9368 8.09799 12.4707 7.6959 13.1177ZM19.5 18.5H11.5C10.7044 18.5 9.94129 18.1839 9.37868 17.6213C8.81607 17.0587 8.5 16.2956 8.5 15.5C8.5 14.7044 8.81607 13.9413 9.37868 13.3787C9.94129 12.8161 10.7044 12.5 11.5 12.5H12.9653L13.337 11.5432C13.57 10.9312 13.9867 10.4064 14.5299 10.0407C15.0731 9.67499 15.7162 9.48642 16.3709 9.50085C17.0255 9.51528 17.6597 9.732 18.1863 10.1213C18.7128 10.5105 19.106 11.0532 19.3118 11.6749L19.5644 12.4185L20.3194 12.6345C21.0154 12.8299 21.617 13.2711 22.0126 13.8761C22.4083 14.4812 22.5712 15.2091 22.4712 15.9251C22.3711 16.6411 22.015 17.2965 21.4687 17.77C20.9223 18.2434 20.2229 18.5028 19.5 18.5Z" fill="black"/>
</svg>
