<svg width="24" height="24" viewBox="0 0 24 24" fill="none" xmlns="http://www.w3.org/2000/svg">
<path fill-rule="evenodd" clip-rule="evenodd" d="M3.6 3.8999C3.48133 3.8999 3.36533 3.93509 3.26666 4.00102C3.16799 4.06695 3.09109 4.16066 3.04567 4.27029C3.00026 4.37993 2.98838 4.50057 3.01153 4.61696C3.03468 4.73334 3.09182 4.84025 3.17574 4.92417C3.25965 5.00808 3.36656 5.06522 3.48295 5.08837C3.59933 5.11152 3.71997 5.09964 3.82961 5.05423C3.93925 5.00882 4.03295 4.93191 4.09888 4.83324C4.16481 4.73457 4.2 4.61857 4.2 4.4999C4.2 4.34077 4.13679 4.18816 4.02426 4.07564C3.91174 3.96312 3.75913 3.8999 3.6 3.8999ZM7.8 3.8999C7.68133 3.8999 7.56533 3.93509 7.46666 4.00102C7.36799 4.06695 7.29109 4.16066 7.24567 4.27029C7.20026 4.37993 7.18838 4.50057 7.21153 4.61696C7.23468 4.73334 7.29182 4.84025 7.37574 4.92417C7.45965 5.00808 7.56656 5.06522 7.68295 5.08837C7.79934 5.11152 7.91997 5.09964 8.02961 5.05423C8.13925 5.00882 8.23295 4.93191 8.29888 4.83324C8.36481 4.73457 8.4 4.61857 8.4 4.4999C8.4 4.34077 8.33679 4.18816 8.22426 4.07564C8.11174 3.96312 7.95913 3.8999 7.8 3.8999ZM12 3.8999C11.8813 3.8999 11.7653 3.93509 11.6667 4.00102C11.568 4.06695 11.4911 4.16066 11.4457 4.27029C11.4003 4.37993 11.3884 4.50057 11.4115 4.61696C11.4347 4.73334 11.4918 4.84025 11.5757 4.92417C11.6596 5.00808 11.7666 5.06522 11.8829 5.08837C11.9993 5.11152 12.12 5.09964 12.2296 5.05423C12.3392 5.00882 12.433 4.93191 12.4989 4.83324C12.5648 4.73457 12.6 4.61857 12.6 4.4999C12.6 4.34077 12.5368 4.18816 12.4243 4.07564C12.3117 3.96312 12.1591 3.8999 12 3.8999ZM16.2 3.8999C16.0813 3.8999 15.9653 3.93509 15.8667 4.00102C15.768 4.06695 15.6911 4.16066 15.6457 4.27029C15.6003 4.37993 15.5884 4.50057 15.6115 4.61696C15.6347 4.73334 15.6918 4.84025 15.7757 4.92417C15.8596 5.00808 15.9666 5.06522 16.0829 5.08837C16.1993 5.11152 16.32 5.09964 16.4296 5.05423C16.5392 5.00882 16.633 4.93191 16.6989 4.83324C16.7648 4.73457 16.8 4.61857 16.8 4.4999C16.8 4.34077 16.7368 4.18816 16.6243 4.07564C16.5117 3.96312 16.3591 3.8999 16.2 3.8999ZM7.8 8.8999C7.68133 8.8999 7.56533 8.93509 7.46666 9.00102C7.36799 9.06695 7.29109 9.16066 7.24567 9.27029C7.20026 9.37993 7.18838 9.50057 7.21153 9.61696C7.23468 9.73335 7.29182 9.84025 7.37574 9.92417C7.45965 10.0081 7.56656 10.0652 7.68295 10.0884C7.79934 10.1115 7.91997 10.0996 8.02961 10.0542C8.13925 10.0088 8.23295 9.93191 8.29888 9.83324C8.36481 9.73458 8.4 9.61857 8.4 9.4999C8.4 9.34077 8.33679 9.18816 8.22426 9.07564C8.11174 8.96312 7.95913 8.8999 7.8 8.8999ZM12 8.8999C11.8813 8.8999 11.7653 8.93509 11.6667 9.00102C11.568 9.06695 11.4911 9.16066 11.4457 9.27029C11.4003 9.37993 11.3884 9.50057 11.4115 9.61696C11.4347 9.73335 11.4918 9.84025 11.5757 9.92417C11.6596 10.0081 11.7666 10.0652 11.8829 10.0884C11.9993 10.1115 12.12 10.0996 12.2296 10.0542C12.3392 10.0088 12.433 9.93191 12.4989 9.83324C12.5648 9.73458 12.6 9.61857 12.6 9.4999C12.6 9.34077 12.5368 9.18816 12.4243 9.07564C12.3117 8.96312 12.1591 8.8999 12 8.8999ZM16.2 8.8999C16.0813 8.8999 15.9653 8.93509 15.8667 9.00102C15.768 9.06695 15.6911 9.16066 15.6457 9.27029C15.6003 9.37993 15.5884 9.50057 15.6115 9.61696C15.6347 9.73335 15.6918 9.84025 15.7757 9.92417C15.8596 10.0081 15.9666 10.0652 16.0829 10.0884C16.1993 10.1115 16.32 10.0996 16.4296 10.0542C16.5392 10.0088 16.633 9.93191 16.6989 9.83324C16.7648 9.73458 16.8 9.61857 16.8 9.4999C16.8 9.34077 16.7368 9.18816 16.6243 9.07564C16.5117 8.96312 16.3591 8.8999 16.2 8.8999ZM20.4 10.0999C20.5187 10.0999 20.6347 10.0647 20.7333 9.99878C20.832 9.93285 20.9089 9.83915 20.9543 9.72951C20.9997 9.61988 21.0116 9.49924 20.9885 9.38285C20.9653 9.26646 20.9082 9.15955 20.8243 9.07564C20.7404 8.99173 20.6334 8.93458 20.5171 8.91143C20.4007 8.88828 20.28 8.90016 20.1704 8.94557C20.0608 8.99099 19.967 9.06789 19.9011 9.16656C19.8352 9.26523 19.8 9.38123 19.8 9.4999C19.8 9.65903 19.8632 9.81164 19.9757 9.92417C20.0883 10.0367 20.2409 10.0999 20.4 10.0999ZM3.6 13.8999C3.48133 13.8999 3.36533 13.9351 3.26666 14.001C3.16799 14.0669 3.09109 14.1607 3.04567 14.2703C3.00026 14.3799 2.98838 14.5006 3.01153 14.617C3.03468 14.7333 3.09182 14.8403 3.17574 14.9242C3.25965 15.0081 3.36656 15.0652 3.48295 15.0884C3.59933 15.1115 3.71997 15.0996 3.82961 15.0542C3.93925 15.0088 4.03295 14.9319 4.09888 14.8332C4.16481 14.7346 4.2 14.6186 4.2 14.4999C4.2 14.3408 4.13679 14.1882 4.02426 14.0756C3.91174 13.9631 3.75913 13.8999 3.6 13.8999ZM7.8 13.8999C7.68133 13.8999 7.56533 13.9351 7.46666 14.001C7.36799 14.0669 7.29109 14.1607 7.24567 14.2703C7.20026 14.3799 7.18838 14.5006 7.21153 14.617C7.23468 14.7333 7.29182 14.8403 7.37574 14.9242C7.45965 15.0081 7.56656 15.0652 7.68295 15.0884C7.79934 15.1115 7.91997 15.0996 8.02961 15.0542C8.13925 15.0088 8.23295 14.9319 8.29888 14.8332C8.36481 14.7346 8.4 14.6186 8.4 14.4999C8.4 14.3408 8.33679 14.1882 8.22426 14.0756C8.11174 13.9631 7.95913 13.8999 7.8 13.8999ZM12 13.8999C11.8813 13.8999 11.7653 13.9351 11.6667 14.001C11.568 14.0669 11.4911 14.1607 11.4457 14.2703C11.4003 14.3799 11.3884 14.5006 11.4115 14.617C11.4347 14.7333 11.4918 14.8403 11.5757 14.9242C11.6596 15.0081 11.7666 15.0652 11.8829 15.0884C11.9993 15.1115 12.12 15.0996 12.2296 15.0542C12.3392 15.0088 12.433 14.9319 12.4989 14.8332C12.5648 14.7346 12.6 14.6186 12.6 14.4999C12.6 14.3408 12.5368 14.1882 12.4243 14.0756C12.3117 13.9631 12.1591 13.8999 12 13.8999ZM16.2 13.8999C16.0813 13.8999 15.9653 13.9351 15.8667 14.001C15.768 14.0669 15.6911 14.1607 15.6457 14.2703C15.6003 14.3799 15.5884 14.5006 15.6115 14.617C15.6347 14.7333 15.6918 14.8403 15.7757 14.9242C15.8596 15.0081 15.9666 15.0652 16.0829 15.0884C16.1993 15.1115 16.32 15.0996 16.4296 15.0542C16.5392 15.0088 16.633 14.9319 16.6989 14.8332C16.7648 14.7346 16.8 14.6186 16.8 14.4999C16.8 14.3408 16.7368 14.1882 16.6243 14.0756C16.5117 13.9631 16.3591 13.8999 16.2 13.8999ZM7.8 18.8999C7.68133 18.8999 7.56533 18.9351 7.46666 19.001C7.36799 19.0669 7.29109 19.1607 7.24567 19.2703C7.20026 19.3799 7.18838 19.5006 7.21153 19.617C7.23468 19.7333 7.29182 19.8403 7.37574 19.9242C7.45965 20.0081 7.56656 20.0652 7.68295 20.0884C7.79934 20.1115 7.91997 20.0996 8.02961 20.0542C8.13925 20.0088 8.23295 19.9319 8.29888 19.8332C8.36481 19.7346 8.4 19.6186 8.4 19.4999C8.4 19.3408 8.33679 19.1882 8.22426 19.0756C8.11174 18.9631 7.95913 18.8999 7.8 18.8999ZM12 18.8999C11.8813 18.8999 11.7653 18.9351 11.6667 19.001C11.568 19.0669 11.4911 19.1607 11.4457 19.2703C11.4003 19.3799 11.3884 19.5006 11.4115 19.617C11.4347 19.7333 11.4918 19.8403 11.5757 19.9242C11.6596 20.0081 11.7666 20.0652 11.8829 20.0884C11.9993 20.1115 12.12 20.0996 12.2296 20.0542C12.3392 20.0088 12.433 19.9319 12.4989 19.8332C12.5648 19.7346 12.6 19.6186 12.6 19.4999C12.6 19.3408 12.5368 19.1882 12.4243 19.0756C12.3117 18.9631 12.1591 18.8999 12 18.8999ZM16.2 18.8999C16.0813 18.8999 15.9653 18.9351 15.8667 19.001C15.768 19.0669 15.6911 19.1607 15.6457 19.2703C15.6003 19.3799 15.5884 19.5006 15.6115 19.617C15.6347 19.7333 15.6918 19.8403 15.7757 19.9242C15.8596 20.0081 15.9666 20.0652 16.0829 20.0884C16.1993 20.1115 16.32 20.0996 16.4296 20.0542C16.5392 20.0088 16.633 19.9319 16.6989 19.8332C16.7648 19.7346 16.8 19.6186 16.8 19.4999C16.8 19.3408 16.7368 19.1882 16.6243 19.0756C16.5117 18.9631 16.3591 18.8999 16.2 18.8999ZM20.4 18.8999C20.2813 18.8999 20.1653 18.9351 20.0667 19.001C19.968 19.0669 19.8911 19.1607 19.8457 19.2703C19.8003 19.3799 19.7884 19.5006 19.8115 19.617C19.8347 19.7333 19.8918 19.8403 19.9757 19.9242C20.0596 20.0081 20.1666 20.0652 20.2829 20.0884C20.3993 20.1115 20.52 20.0996 20.6296 20.0542C20.7392 20.0088 20.833 19.9319 20.8989 19.8332C20.9648 19.7346 21 19.6186 21 19.4999C21 19.3408 20.9368 19.1882 20.8243 19.0756C20.7117 18.9631 20.5591 18.8999 20.4 18.8999Z" fill="black"/>
</svg>
