<svg width="24" height="24" viewBox="0 0 24 24" fill="none" xmlns="http://www.w3.org/2000/svg">
<path d="M17 5.25C16.0058 5.25109 15.0526 5.64652 14.3495 6.34955C13.6465 7.05257 13.2511 8.00577 13.25 9H14.75C14.75 8.55499 14.882 8.11998 15.1292 7.74997C15.3764 7.37996 15.7278 7.09157 16.139 6.92127C16.5501 6.75097 17.0025 6.70642 17.439 6.79323C17.8754 6.88005 18.2763 7.09434 18.591 7.40901C18.9057 7.72368 19.1199 8.12459 19.2068 8.56105C19.2936 8.9975 19.249 9.4499 19.0787 9.86104C18.9084 10.2722 18.62 10.6236 18.25 10.8708C17.88 11.118 17.445 11.25 17 11.25H6V12.75H17C17.9946 12.75 18.9484 12.3549 19.6517 11.6517C20.3549 10.9484 20.75 9.99456 20.75 9C20.75 8.00544 20.3549 7.05161 19.6517 6.34835C18.9484 5.64509 17.9946 5.25 17 5.25ZM11.75 6C11.7493 5.27088 11.4593 4.57184 10.9437 4.05627C10.4282 3.54071 9.72912 3.25074 9 3.25H8V4.75H9C9.33152 4.75 9.64946 4.8817 9.88388 5.11612C10.1183 5.35054 10.25 5.66848 10.25 6C10.25 6.33152 10.1183 6.64946 9.88388 6.88388C9.64946 7.1183 9.33152 7.25 9 7.25H4V8.75H9C9.72912 8.74926 10.4282 8.45929 10.9437 7.94373C11.4593 7.42816 11.7493 6.72912 11.75 6ZM14 15.25H4V16.75H14C14.3315 16.75 14.6495 16.8817 14.8839 17.1161C15.1183 17.3505 15.25 17.6685 15.25 18C15.25 18.3315 15.1183 18.6495 14.8839 18.8839C14.6495 19.1183 14.3315 19.25 14 19.25H13V20.75H14C14.7293 20.75 15.4288 20.4603 15.9445 19.9445C16.4603 19.4288 16.75 18.7293 16.75 18C16.75 17.2707 16.4603 16.5712 15.9445 16.0555C15.4288 15.5397 14.7293 15.25 14 15.25Z" fill="black"/>
</svg>
