<svg width="24" height="24" viewBox="0 0 24 24" fill="none" xmlns="http://www.w3.org/2000/svg">
<path d="M13 3.50001C14.0824 3.50003 15.1547 3.70839 16.1583 4.11371C14.7474 4.89132 13.5709 6.03322 12.7515 7.42034C11.9322 8.80745 11.5 10.389 11.5 12C11.5 13.611 11.9322 15.1926 12.7515 16.5797C13.5709 17.9668 14.7474 19.1087 16.1583 19.8863C14.9957 20.3521 13.7445 20.5551 12.4943 20.4809C11.244 20.4066 10.0257 20.0569 8.92635 19.4569C7.82703 18.8568 6.87395 18.0211 6.13531 17.0097C5.39667 15.9982 4.89073 14.836 4.6537 13.6062C4.41666 12.3764 4.4544 11.1094 4.7642 9.89588C5.074 8.68236 5.64821 7.55232 6.44574 6.58664C7.24327 5.62095 8.24439 4.84348 9.37747 4.30988C10.5106 3.77627 11.7476 3.49972 13 3.50001ZM13 2.00001C11.3781 1.99732 9.77983 2.38918 8.34308 3.14181C6.90634 3.89444 5.67423 4.98525 4.753 6.32017C3.83176 7.65509 3.24906 9.19406 3.05514 10.8044C2.86121 12.4147 3.06188 14.048 3.63985 15.5634C4.21782 17.0789 5.15573 18.431 6.37271 19.5033C7.58969 20.5755 9.04921 21.3356 10.6254 21.718C12.2016 22.1005 13.8472 22.0938 15.4202 21.6985C16.9933 21.3033 18.4466 20.5314 19.6548 19.4493C17.824 19.2424 16.1334 18.3686 14.9059 16.9945C13.6783 15.6205 12.9998 13.8425 12.9998 12C12.9998 10.1575 13.6783 8.37953 14.9059 7.00549C16.1334 5.63144 17.824 4.75758 19.6548 4.55071C17.8276 2.90796 15.4571 1.99939 13 2.00001Z" fill="black"/>
</svg>
