<svg width="24" height="24" viewBox="0 0 24 24" fill="none" xmlns="http://www.w3.org/2000/svg">
<path d="M11 2.5C12.4958 2.49734 13.9711 2.84793 15.3058 3.52325C16.6406 4.19856 17.7969 5.17951 18.6808 6.38624C19.5648 7.59297 20.1512 8.99137 20.3925 10.4676C20.6338 11.9438 20.5231 13.4562 20.0693 14.8816C19.6156 16.3069 18.8317 17.605 17.7815 18.6701C16.7312 19.7352 15.4443 20.5373 14.0255 21.011C12.6067 21.4847 11.096 21.6167 9.61653 21.3962C8.13704 21.1757 6.73053 20.609 5.51149 19.7421C7.22603 19.2969 8.74427 18.2951 9.82805 16.8939C10.9118 15.4927 11.4998 13.7714 11.4998 12C11.4998 10.2286 10.9118 8.50729 9.82805 7.10611C8.74427 5.70494 7.22603 4.70315 5.51149 4.2579C7.11363 3.11536 9.03219 2.50087 11 2.5ZM11 2C8.54285 1.9994 6.17237 2.90796 4.34509 4.5507C6.17595 4.75757 7.8665 5.63143 9.09404 7.00547C10.3216 8.37952 11.0001 10.1575 11.0001 12C11.0001 13.8425 10.3216 15.6205 9.09404 16.9945C7.8665 18.3686 6.17595 19.2424 4.34509 19.4493C5.55331 20.5287 7.00581 21.2983 8.57749 21.6917C10.1492 22.0851 11.7929 22.0905 13.3672 21.7075C14.9414 21.3246 16.399 20.5646 17.6143 19.4932C18.8297 18.4218 19.7664 17.0711 20.3437 15.5572C20.9211 14.0434 21.1218 12.412 20.9285 10.8034C20.7353 9.19475 20.154 7.65722 19.2345 6.32319C18.3151 4.98917 17.0852 3.89863 15.6507 3.14552C14.2162 2.3924 12.6202 1.99927 11 2Z" fill="black"/>
</svg>
