<svg width="24" height="24" viewBox="0 0 24 24" fill="none" xmlns="http://www.w3.org/2000/svg">
<path d="M17 14.25H4V13.75H17C17.5439 13.75 18.0756 13.5887 18.5278 13.2865C18.9801 12.9844 19.3325 12.5549 19.5407 12.0524C19.7488 11.5499 19.8033 10.997 19.6972 10.4635C19.591 9.93006 19.3291 9.44005 18.9445 9.05546C18.5599 8.67086 18.0699 8.40895 17.5365 8.30284C17.0031 8.19673 16.4501 8.25119 15.9476 8.45933C15.4451 8.66747 15.0156 9.01995 14.7135 9.47218C14.4113 9.92442 14.25 10.4561 14.25 11H13.75C13.75 10.3572 13.9406 9.72886 14.2977 9.1944C14.6548 8.65994 15.1624 8.24338 15.7563 7.99739C16.3501 7.75141 17.0036 7.68705 17.634 7.81245C18.2645 7.93785 18.8436 8.24738 19.2981 8.7019C19.7526 9.15643 20.0621 9.73552 20.1876 10.366C20.313 10.9964 20.2486 11.6499 20.0026 12.2437C19.7566 12.8376 19.3401 13.3452 18.8056 13.7023C18.2711 14.0594 17.6428 14.25 17 14.25Z" fill="black"/>
</svg>
