<svg width="24" height="24" viewBox="0 0 24 24" fill="none" xmlns="http://www.w3.org/2000/svg">
<path d="M19.4248 5.2822L18.7178 4.5752L15.8892 7.4038L16.5962 8.1108L19.4248 5.2822ZM4.5752 18.7178L5.2822 19.4248L8.1108 16.5962L7.4038 15.8892L4.5752 18.7178ZM6 11.5H2V12.5H6V11.5ZM12.5 2H11.5V6H12.5V2ZM4.5752 5.2822L7.4038 8.1108L8.1108 7.4038L5.2822 4.5752L4.5752 5.2822ZM15.8892 16.5962L18.7178 19.4248L19.4248 18.7178L16.5962 15.8892L15.8892 16.5962ZM11.5 22H12.5V18H11.5V22ZM18 11.5V12.5H22V11.5H18ZM11.3927 8L8.8057 15H9.73L10.3939 13.2208H13.6027L14.2665 15H15.1943L12.6074 8H11.3927ZM13.3212 12.4416H10.6752L11.9993 8.9L13.3212 12.4416Z" fill="black"/>
</svg>
