<svg width="24" height="24" viewBox="0 0 24 24" fill="none" xmlns="http://www.w3.org/2000/svg">
<path d="M13 2H11V6H13V2ZM8.2876 7.2271L5.459 4.3984L4.3984 5.459L7.2271 8.2876L8.2876 7.2271ZM6 11.25H2V12.75H6V11.25ZM4.3984 18.541L5.459 19.6016L8.2876 16.7729L7.2276 15.7129L4.3984 18.541ZM11.25 22H12.75V18H11.25V22ZM15.7124 16.7729L18.541 19.6016L19.6016 18.541L16.7729 15.7124L15.7124 16.7729ZM18 11.25V12.75H22V11.25H18ZM19.6016 5.459L18.541 4.3984L15.7124 7.2271L16.7724 8.2871L19.6016 5.459ZM12 8C11.2089 8 10.4355 8.2346 9.77772 8.67412C9.11992 9.11365 8.60723 9.73836 8.30448 10.4693C8.00173 11.2002 7.92252 12.0044 8.07686 12.7804C8.2312 13.5563 8.61216 14.269 9.17157 14.8284C9.73098 15.3878 10.4437 15.7688 11.2196 15.9231C11.9956 16.0775 12.7998 15.9983 13.5307 15.6955C14.2616 15.3928 14.8864 14.8801 15.3259 14.2223C15.7654 13.5645 16 12.7911 16 12C16 10.9391 15.5786 9.92172 14.8284 9.17157C14.0783 8.42143 13.0609 8 12 8Z" fill="black"/>
</svg>
