<svg width="24" height="24" viewBox="0 0 24 24" fill="none" xmlns="http://www.w3.org/2000/svg">
<path d="M4 12C4 14.6522 5.05357 17.1957 6.92893 19.0711C8.8043 20.9464 11.3478 22 14 22C14.2925 22 14.58 21.9808 14.8666 21.9562C16.3219 20.7372 17.4923 19.214 18.2954 17.4939C19.0984 15.7737 19.5146 13.8984 19.5146 12C19.5146 10.1016 19.0984 8.22631 18.2954 6.50615C17.4923 4.78598 16.3219 3.26278 14.8666 2.0438C14.58 2.0192 14.2925 2 14 2C11.3478 2 8.8043 3.05357 6.92893 4.92893C5.05357 6.8043 4 9.34784 4 12Z" fill="black"/>
</svg>
