<svg width="24" height="24" viewBox="0 0 24 24" fill="none" xmlns="http://www.w3.org/2000/svg">
<path d="M20.6414 8.36008C20.6478 8.25758 20.6721 8.16008 20.6721 8.05608C20.6721 7.40683 20.5442 6.76394 20.2957 6.16411C20.0473 5.56428 19.6831 5.01927 19.224 4.56018C18.7649 4.1011 18.2199 3.73693 17.6201 3.48849C17.0202 3.24004 16.3773 3.11217 15.7281 3.11218C14.885 3.1174 14.0577 3.34049 13.3263 3.75978C12.5458 2.93912 11.5371 2.37135 10.4306 2.1298C9.32413 1.88826 8.17063 1.98404 7.11913 2.40478C6.06763 2.82552 5.16644 3.55188 4.53198 4.49003C3.89753 5.42819 3.55894 6.53503 3.55998 7.66758C3.56026 7.86801 3.57107 8.06829 3.59238 8.26758C2.71544 8.59577 1.98172 9.2217 1.51947 10.036C1.05722 10.8503 0.895835 11.8011 1.06353 12.7223C1.23122 13.6435 1.71732 14.4765 2.43687 15.0756C3.15642 15.6748 4.06364 16.002 4.99998 16.0001H19C19.9147 16.0012 20.802 15.6884 21.5138 15.114C22.2256 14.5395 22.7188 13.7383 22.9109 12.844C23.103 11.9497 22.9825 11.0166 22.5694 10.2005C22.1564 9.38442 21.4758 8.73477 20.6414 8.36008ZM19 15.0001H4.99998C4.2046 14.9992 3.44206 14.6828 2.87965 14.1204C2.31724 13.558 2.00088 12.7955 1.99998 12.0001C1.99853 11.3907 2.18445 10.7955 2.53253 10.2953C2.88061 9.79507 3.37404 9.41392 3.94598 9.20348L4.66828 8.93078L4.58728 8.16308C4.51702 7.51193 4.58472 6.85328 4.78598 6.23004C4.98723 5.6068 5.31752 5.03295 5.75533 4.54586C6.19315 4.05877 6.72866 3.66938 7.32699 3.40304C7.92532 3.13671 8.57305 2.99941 9.22798 3.00008C9.85969 2.99849 10.485 3.12632 11.0654 3.3757C11.6459 3.62509 12.169 3.99073 12.6027 4.45008L13.1383 5.01168L13.8153 4.63218C14.3971 4.29621 15.0562 4.11703 15.7281 4.11218C16.7711 4.11246 17.7716 4.52573 18.5108 5.26163C19.2499 5.99752 19.6677 6.99616 19.6726 8.03918L19.6656 8.09328C19.6556 8.16108 19.6476 8.22898 19.6433 8.29828L19.6007 8.98708L20.2296 9.27138C20.8557 9.55185 21.3666 10.0388 21.6768 10.6508C21.987 11.2627 22.0777 11.9626 21.9337 12.6335C21.7897 13.3043 21.4198 13.9053 20.8858 14.3361C20.3518 14.7669 19.6861 15.0013 19 15.0001ZM13.99 18.9469L12.35 19.8941V18.0001H11.65V19.8941L10.01 18.9469L9.65998 19.5533L11.3 20.5001L9.65998 21.4469L10.01 22.0533L11.65 21.1061V23.0001H12.35V21.1061L13.9906 22.0533L14.3406 21.4469L12.7 20.5001L14.34 19.5533L13.99 18.9469Z" fill="black"/>
</svg>
