<svg width="24" height="24" viewBox="0 0 24 24" fill="none" xmlns="http://www.w3.org/2000/svg">
<path d="M20.6414 8.36008C20.6477 8.25758 20.672 8.16008 20.672 8.05608C20.672 6.74488 20.1511 5.48738 19.2239 4.56022C18.2968 3.63306 17.0393 3.11218 15.7281 3.11218C14.885 3.1174 14.0577 3.34049 13.3263 3.75978C12.5458 2.93912 11.5371 2.37135 10.4306 2.1298C9.32413 1.88826 8.17063 1.98404 7.11913 2.40478C6.06763 2.82552 5.16644 3.55188 4.53198 4.49003C3.89753 5.42819 3.55894 6.53503 3.55998 7.66758C3.56026 7.86801 3.57107 8.06829 3.59238 8.26758C2.71544 8.59577 1.98172 9.2217 1.51947 10.036C1.05722 10.8503 0.895835 11.8011 1.06353 12.7223C1.23122 13.6435 1.71732 14.4765 2.43687 15.0756C3.15642 15.6748 4.06364 16.002 4.99998 16.0001H19C19.9147 16.0012 20.802 15.6884 21.5138 15.114C22.2256 14.5395 22.7188 13.7383 22.9109 12.844C23.103 11.9497 22.9825 11.0166 22.5694 10.2005C22.1564 9.38442 21.4758 8.73477 20.6414 8.36008ZM19 15.0001H4.99998C4.2046 14.9992 3.44206 14.6828 2.87965 14.1204C2.31724 13.558 2.00088 12.7955 1.99998 12.0001C1.99851 11.3907 2.18441 10.7955 2.53249 10.2953C2.88058 9.79504 3.37403 9.4139 3.94598 9.20348L4.66828 8.93078L4.58728 8.16308C4.51702 7.51194 4.58472 6.8533 4.78597 6.23007C4.98722 5.60683 5.3175 5.03298 5.7553 4.5459C6.1931 4.05881 6.7286 3.66942 7.32692 3.40307C7.92524 3.13673 8.57296 2.99942 9.22788 3.00008C9.85959 2.99846 10.4849 3.12629 11.0654 3.37567C11.6458 3.62505 12.1689 3.99071 12.6026 4.45008L13.1383 5.01168L13.8153 4.63218C14.3971 4.29621 15.0562 4.11703 15.7281 4.11218C16.7711 4.11249 17.7716 4.52577 18.5107 5.26166C19.2499 5.99754 19.6676 6.99617 19.6726 8.03918L19.6656 8.09328C19.6556 8.16108 19.6476 8.22898 19.6434 8.29828L19.6007 8.98708L20.2296 9.27138C20.8557 9.55185 21.3666 10.0388 21.6768 10.6508C21.987 11.2627 22.0777 11.9626 21.9337 12.6335C21.7897 13.3043 21.4198 13.9053 20.8858 14.3361C20.3518 14.7669 19.6861 15.0013 19 15.0001ZM17.4772 18.9254L15.8747 19.8506V18.0001H15.1247V19.8506L13.5221 18.9254L13.1471 19.5748L14.75 20.5001L13.1473 21.4254L13.5223 22.0748L15.1249 21.1496V23.0001H15.8749V21.1501L17.4774 22.0753L17.8524 21.4259L16.25 20.5001L17.8526 19.5748L17.4772 18.9254ZM6.39768 21.3979C6.40102 21.8206 6.5713 22.2249 6.87141 22.5227C7.17153 22.8204 7.57716 22.9875 7.99993 22.9875C8.42269 22.9875 8.82832 22.8204 9.12844 22.5227C9.42856 22.2249 9.59884 21.8206 9.60218 21.3979C9.60218 20.1161 7.99998 17.6331 7.99998 17.6331C7.99998 17.6331 6.39768 20.1161 6.39768 21.3979ZM7.99998 22.2201C7.78199 22.2198 7.573 22.1331 7.41886 21.979C7.26472 21.8249 7.17802 21.6159 7.17778 21.3979C7.31048 20.6149 7.5894 19.8639 7.99998 19.1841C8.4106 19.8639 8.68952 20.6149 8.82218 21.3979C8.82191 21.6159 8.7352 21.8248 8.58107 21.979C8.42693 22.1331 8.21796 22.2198 7.99998 22.2201Z" fill="black"/>
</svg>
