<svg width="24" height="24" viewBox="0 0 24 24" fill="none" xmlns="http://www.w3.org/2000/svg">
<g clip-path="url(#clip0)">
<path d="M9.1667 4C9.84664 4.00046 10.5197 4.13621 11.1467 4.39933C11.7736 4.66245 12.342 5.04768 12.8186 5.5326L13.3269 6.0035L13.9387 5.6814C14.6574 5.23458 15.487 4.99849 16.3333 5C17.5706 5.0014 18.7567 5.49352 19.6316 6.3684C20.5065 7.24327 20.9986 8.42945 21 9.6667C20.9976 10.0189 20.9544 10.3697 20.8713 10.712L20.7479 11.3437L21.2735 11.7162C21.9752 12.2003 22.5037 12.8961 22.7817 13.7019C23.0596 14.5078 23.0726 15.3814 22.8186 16.1952C22.5646 17.0089 22.057 17.7201 21.3699 18.2247C20.6829 18.7294 19.8525 19.001 19 19H5C4.07107 19.0009 3.17084 18.6782 2.45408 18.0873C1.73732 17.4964 1.2488 16.6742 1.07251 15.7622C0.896222 14.8501 1.04317 13.9052 1.4881 13.0897C1.93303 12.2743 2.64814 11.6393 3.5105 11.294L4.2492 10.9901L4.1148 10.2035C4.04068 9.86282 4.00221 9.51535 4 9.1667C4.00156 7.79689 4.54641 6.48362 5.51501 5.51502C6.48362 4.54641 7.79688 4.00156 9.1667 4ZM9.1667 3C7.53119 3 5.96266 3.64971 4.80618 4.80619C3.6497 5.96267 3 7.53119 3 9.1667C3.00189 9.571 3.04545 9.97403 3.13 10.3694C2.05364 10.8029 1.16175 11.5976 0.607408 12.617C0.0530689 13.6364 -0.129146 14.817 0.0920393 15.9561C0.313224 17.0953 0.924014 18.1219 1.81957 18.8597C2.71513 19.5976 3.83961 20.0008 5 20H19C20.0646 20.0011 21.1017 19.662 21.96 19.0322C22.8183 18.4024 23.4529 17.5149 23.7714 16.499C24.0898 15.4832 24.0753 14.3922 23.7301 13.3851C23.3849 12.3781 22.727 11.5076 21.8523 10.9008C21.9485 10.4964 21.998 10.0824 22 9.6667C22 8.1638 21.403 6.72245 20.3403 5.65974C19.2775 4.59703 17.8362 4 16.3333 4C15.3303 3.99866 14.3462 4.27298 13.4885 4.793C12.9217 4.22419 12.2482 3.77297 11.5065 3.46527C10.7648 3.15757 9.96967 2.99945 9.1667 3Z" fill="black"/>
</g>
<defs>
<clipPath id="clip0">
<rect width="24" height="24" fill="white"/>
</clipPath>
</defs>
</svg>
