<svg width="24" height="24" viewBox="0 0 24 24" fill="none" xmlns="http://www.w3.org/2000/svg">
<path d="M10 2H8V5H10V2ZM5.4648 6.05L3.3428 3.9292L1.9287 5.3433L4.0508 7.4644L5.4648 6.05ZM3 10H0V12H3V10ZM1.9287 16.6567L3.3428 18.0708L5.4648 15.95L4.0508 14.5359L1.9287 16.6567ZM15.8691 5.1L14.4062 3.7358L12.36 5.93L13.8228 7.2942L15.8691 5.1ZM20.7321 11.1923C20.4718 10.4063 20.0066 9.70386 19.3845 9.1575C18.7623 8.61114 18.0057 8.2406 17.1926 8.08407C16.3795 7.92753 15.5394 7.99068 14.7589 8.26699C13.9783 8.5433 13.2856 9.02278 12.7521 9.656C12.5365 9.04377 12.1749 8.49338 11.6984 8.0526C11.222 7.61182 10.6452 7.29395 10.018 7.12658C9.39092 6.95921 8.73243 6.94739 8.09971 7.09216C7.46699 7.23692 6.87915 7.53389 6.3872 7.95729C5.89525 8.3807 5.51404 8.91775 5.27666 9.52185C5.03928 10.126 4.95289 10.7789 5.02499 11.4239C5.0971 12.069 5.32551 12.6867 5.69042 13.2235C6.05532 13.7602 6.5457 14.1999 7.119 14.5042C6.96383 15.1629 6.96023 15.8483 7.10846 16.5086C7.25669 17.1689 7.5529 17.7869 7.97474 18.3161C8.39658 18.8453 8.93305 19.2718 9.5437 19.5635C10.1544 19.8552 10.8233 20.0044 11.5 20H19.5C20.5846 20.0028 21.6336 19.6127 22.4528 18.9018C23.2721 18.191 23.8062 17.2076 23.9565 16.1334C24.1068 15.0593 23.863 13.967 23.2702 13.0587C22.6775 12.1503 21.7759 11.4874 20.7321 11.1924V11.1923ZM7.99 12.7161C7.6886 12.5385 7.43916 12.2848 7.26668 11.9804C7.09421 11.676 7.00474 11.3317 7.00726 10.9818C7.00977 10.632 7.10417 10.2889 7.281 9.98707C7.45783 9.6852 7.71088 9.4351 8.01481 9.26182C8.31873 9.08855 8.66285 8.99818 9.0127 8.99977C9.36254 9.00137 9.70582 9.09486 10.0082 9.2709C10.3105 9.44694 10.5613 9.69934 10.7353 10.0028C10.9094 10.3063 11.0007 10.6502 11 11C11 11.0178 10.9927 11.0335 10.9922 11.0512C10.4067 11.1169 9.83993 11.2978 9.32467 11.5835C8.8094 11.8693 8.35579 12.2542 7.99 12.7161ZM19.5 18H11.5C10.837 18 10.2011 17.7366 9.73223 17.2678C9.26339 16.7989 9 16.163 9 15.5C9 14.837 9.26339 14.2011 9.73223 13.7322C10.2011 13.2634 10.837 13 11.5 13H13.3074L13.803 11.7242C13.9988 11.2078 14.3498 10.7648 14.8078 10.4562C15.2657 10.1475 15.808 9.98832 16.3601 10.0006C16.9123 10.0128 17.447 10.1958 17.8908 10.5245C18.3346 10.8531 18.6657 11.3113 18.8384 11.8358L19.1752 12.8271L20.1819 13.1152C20.762 13.2775 21.2636 13.6446 21.5935 14.1486C21.9235 14.6525 22.0594 15.2591 21.9761 15.8557C21.8928 16.4522 21.596 16.9984 21.1406 17.3927C20.6853 17.787 20.1024 18.0028 19.5 18Z" fill="black"/>
</svg>
