<svg width="24" height="24" viewBox="0 0 24 24" fill="none" xmlns="http://www.w3.org/2000/svg">
<path d="M3.37428 20.5313L5.01728 23.0001L6.62568 20.5314L5.01728 18.0625L3.37428 20.5313ZM5.00998 21.5818L4.31088 20.5313L5.00998 19.4813L5.69438 20.5313L5.00998 21.5818ZM17.3739 20.5313L19.0173 23.0001L20.6257 20.5314L19.0173 18.0626L17.3739 20.5313ZM19.01 21.5818L18.3109 20.5313L19.01 19.4813L19.6944 20.5313L19.01 21.5818ZM20.6414 8.36008C20.6477 8.25758 20.6721 8.16008 20.6721 8.05608C20.6721 6.74487 20.1512 5.48737 19.224 4.56021C18.2968 3.63305 17.0393 3.11218 15.7281 3.11218C14.885 3.11743 14.0577 3.34051 13.3263 3.75978C12.5458 2.93912 11.5371 2.37135 10.4306 2.1298C9.32413 1.88826 8.17063 1.98404 7.11913 2.40478C6.06763 2.82552 5.16644 3.55188 4.53198 4.49003C3.89753 5.42819 3.55894 6.53503 3.55998 7.66758C3.56026 7.86801 3.57107 8.06829 3.59238 8.26758C2.71544 8.59577 1.98172 9.2217 1.51947 10.036C1.05722 10.8503 0.895835 11.8011 1.06353 12.7223C1.23122 13.6435 1.71732 14.4765 2.43687 15.0756C3.15642 15.6748 4.06364 16.002 4.99998 16.0001H11.2309L10.1909 19.9267H12.9309L12.0261 23.4385L14.4387 18.9267H11.4531L12.2305 16.0001H19C19.9147 16.0012 20.802 15.6884 21.5138 15.114C22.2256 14.5395 22.7188 13.7383 22.9109 12.844C23.103 11.9497 22.9825 11.0166 22.5694 10.2005C22.1564 9.38442 21.4758 8.73477 20.6414 8.36008Z" fill="black"/>
</svg>
