<svg width="24" height="24" viewBox="0 0 24 24" fill="none" xmlns="http://www.w3.org/2000/svg">
<path d="M16.5 6C15.5721 6.00111 14.6825 6.37022 14.0264 7.02635C13.3702 7.68249 13.0011 8.57208 13 9.5V10H14V9.5C14 9.00555 14.1466 8.5222 14.4213 8.11107C14.696 7.69995 15.0865 7.37952 15.5433 7.1903C16.0001 7.00108 16.5028 6.95157 16.9877 7.04804C17.4727 7.1445 17.9181 7.3826 18.2678 7.73223C18.6174 8.08186 18.8555 8.52732 18.952 9.01227C19.0484 9.49723 18.9989 9.99989 18.8097 10.4567C18.6205 10.9135 18.3 11.304 17.8889 11.5787C17.4778 11.8534 16.9945 12 16.5 12H6V13H16.5C17.4283 13 18.3185 12.6313 18.9749 11.9749C19.6313 11.3185 20 10.4283 20 9.5C20 8.57174 19.6313 7.6815 18.9749 7.02513C18.3185 6.36875 17.4283 6 16.5 6ZM11 6.5C10.9992 5.8372 10.7356 5.20178 10.2669 4.73311C9.79822 4.26444 9.1628 4.00079 8.5 4H7V5H8.5C8.89782 5 9.27936 5.15804 9.56066 5.43934C9.84196 5.72064 10 6.10218 10 6.5C10 6.89782 9.84196 7.27936 9.56066 7.56066C9.27936 7.84196 8.89782 8 8.5 8H4V9H8.5C9.1628 8.99921 9.79822 8.73556 10.2669 8.26689C10.7356 7.79822 10.9992 7.1628 11 6.5ZM13.5 16H4V17H13.5C13.8978 17 14.2794 17.158 14.5607 17.4393C14.842 17.7206 15 18.1022 15 18.5C15 18.8978 14.842 19.2794 14.5607 19.5607C14.2794 19.842 13.8978 20 13.5 20H12V21H13.5C14.163 21 14.7989 20.7366 15.2678 20.2678C15.7366 19.7989 16 19.163 16 18.5C16 17.837 15.7366 17.2011 15.2678 16.7322C14.7989 16.2634 14.163 16 13.5 16Z" fill="black"/>
</svg>
