<svg width="24" height="24" viewBox="0 0 24 24" fill="none" xmlns="http://www.w3.org/2000/svg">
<path d="M14 2.5C14.2335 2.5 14.4612 2.5132 14.6654 2.5289C16.0297 3.70116 17.1247 5.15435 17.8753 6.78901C18.626 8.42368 19.0146 10.2012 19.0146 12C19.0146 13.7988 18.626 15.5763 17.8753 17.211C17.1247 18.8456 16.0297 20.2988 14.6654 21.4711C14.4612 21.4868 14.2335 21.5 14 21.5C11.4804 21.5 9.06408 20.4991 7.28249 18.7175C5.50089 16.9359 4.5 14.5196 4.5 12C4.5 9.48044 5.50089 7.06408 7.28249 5.28249C9.06408 3.50089 11.4804 2.5 14 2.5ZM14 2C11.3478 2 8.8043 3.05357 6.92893 4.92893C5.05357 6.8043 4 9.34784 4 12C4 14.6522 5.05357 17.1957 6.92893 19.0711C8.8043 20.9464 11.3478 22 14 22C14.2925 22 14.58 21.9808 14.8666 21.9562C16.3219 20.7372 17.4923 19.214 18.2954 17.4939C19.0984 15.7737 19.5146 13.8984 19.5146 12C19.5146 10.1016 19.0984 8.22631 18.2954 6.50615C17.4923 4.78598 16.3219 3.26278 14.8666 2.0438C14.58 2.0192 14.2925 2 14 2Z" fill="black"/>
</svg>
