<svg width="24" height="24" viewBox="0 0 24 24" fill="none" xmlns="http://www.w3.org/2000/svg">
<path d="M20.94 18.8602L19.45 19.7201V18.0002H18.55V19.721L17.06 18.861L16.61 19.6402L18.1 20.5002L16.61 21.3602L17.0592 22.1394L18.5492 21.2794V23.0002H19.4492V21.2794L20.9392 22.1394L21.39 21.3602L19.9 20.5002L21.39 19.6402L20.94 18.8602ZM6.93998 18.8602L5.44998 19.7201V18.0002H4.54998V19.721L3.05998 18.861L2.60998 19.6402L4.09998 20.5002L2.60998 21.3602L3.05998 22.1402L4.54998 21.2802V23.0002H5.44998V21.2794L6.93998 22.1394L7.38998 21.3602L5.89998 20.5002L7.38998 19.6402L6.93998 18.8602ZM20.641 8.36015C20.6474 8.25765 20.6717 8.16015 20.6717 8.05615C20.6717 7.4069 20.5438 6.76401 20.2953 6.16418C20.0469 5.56435 19.6827 5.01934 19.2236 4.56025C18.7645 4.10117 18.2195 3.737 17.6197 3.48855C17.0198 3.24011 16.3769 3.11224 15.7277 3.11225C14.8846 3.11747 14.0573 3.34055 13.3259 3.75985C12.5453 2.93933 11.5367 2.37168 10.4303 2.13022C9.32388 1.88876 8.17047 1.98458 7.11906 2.4053C6.06764 2.82602 5.16652 3.55232 4.53208 4.49038C3.89764 5.42845 3.55903 6.53519 3.55998 7.66765C3.56026 7.86808 3.57107 8.06836 3.59238 8.26765C2.71544 8.59583 1.98172 9.22177 1.51947 10.036C1.05722 10.8503 0.895835 11.8012 1.06353 12.7224C1.23122 13.6436 1.71732 14.4765 2.43687 15.0757C3.15642 15.6748 4.06364 16.0021 4.99998 16.0002H11.0226L9.98258 19.9635H12.3587L11.454 23.4754L14.646 18.4635H11.8741L12.5221 16.0002H19C19.9147 16.0012 20.802 15.6885 21.5138 15.114C22.2256 14.5396 22.7188 13.7383 22.9109 12.8441C23.103 11.9498 22.9825 11.0167 22.5694 10.2006C22.1564 9.38449 21.4758 8.73484 20.6414 8.36015H20.641ZM19 14.5002H4.99998C4.33716 14.4994 3.70171 14.2358 3.23303 13.7671C2.76435 13.2984 2.50072 12.663 2.49998 12.0002C2.49907 11.4924 2.65425 10.9967 2.94449 10.5801C3.23472 10.1636 3.64599 9.84628 4.12258 9.67125L5.20598 9.26235L5.08448 8.11065C5.06871 7.96351 5.06066 7.81564 5.06038 7.66765C5.06165 6.56273 5.50114 5.50344 6.28245 4.72215C7.06375 3.94087 8.12306 3.50139 9.22798 3.50015C9.79199 3.49882 10.3503 3.61304 10.8685 3.83579C11.3866 4.05853 11.8537 4.38506 12.2408 4.79525L13.0443 5.63765L14.06 5.06835C14.5673 4.77458 15.1421 4.61746 15.7283 4.61235C16.6355 4.61337 17.5057 4.9719 18.1504 5.61022C18.795 6.24854 19.1621 7.1152 19.1721 8.02235L19.1714 8.02015L19.1703 8.02415C19.1592 8.10415 19.1494 8.18515 19.1443 8.26735L19.08 9.30085L20.0234 9.72715C20.5452 9.96063 20.971 10.3662 21.2296 10.876C21.4882 11.3859 21.564 11.969 21.4441 12.528C21.3243 13.087 21.0161 13.5878 20.5712 13.9468C20.1263 14.3058 19.5716 14.5011 19 14.5002Z" fill="black"/>
</svg>
