<svg width="24" height="24" viewBox="0 0 24 24" fill="none" xmlns="http://www.w3.org/2000/svg">
<path d="M17 4.25C16.0058 4.25109 15.0526 4.64652 14.3495 5.34955C13.6465 6.05257 13.2511 7.00577 13.25 8H14.75C14.75 7.55499 14.882 7.11998 15.1292 6.74997C15.3764 6.37996 15.7278 6.09157 16.139 5.92127C16.5501 5.75097 17.0025 5.70642 17.439 5.79323C17.8754 5.88005 18.2763 6.09434 18.591 6.40901C18.9057 6.72368 19.1199 7.12459 19.2068 7.56105C19.2936 7.9975 19.249 8.4499 19.0787 8.86104C18.9084 9.27217 18.62 9.62357 18.25 9.87081C17.88 10.118 17.445 10.25 17 10.25H4V11.75H17C17.9946 11.75 18.9484 11.3549 19.6517 10.6517C20.3549 9.94839 20.75 8.99456 20.75 8C20.75 7.00544 20.3549 6.05161 19.6517 5.34835C18.9484 4.64509 17.9946 4.25 17 4.25ZM14 14.25H6V15.75H14C14.3315 15.75 14.6495 15.8817 14.8839 16.1161C15.1183 16.3505 15.25 16.6685 15.25 17C15.25 17.3315 15.1183 17.6495 14.8839 17.8839C14.6495 18.1183 14.3315 18.25 14 18.25H13V19.75H14C14.7293 19.75 15.4288 19.4603 15.9445 18.9445C16.4603 18.4288 16.75 17.7293 16.75 17C16.75 16.2707 16.4603 15.5712 15.9445 15.0555C15.4288 14.5397 14.7293 14.25 14 14.25Z" fill="black"/>
</svg>
