<svg width="24" height="24" viewBox="0 0 24 24" fill="none" xmlns="http://www.w3.org/2000/svg">
<path d="M14 3C14.1579 3 14.3147 3.0066 14.4629 3.0159C15.7364 4.14068 16.7563 5.52337 17.4548 7.07227C18.1533 8.62117 18.5146 10.3009 18.5146 12C18.5146 13.6991 18.1533 15.3788 17.4548 16.9277C16.7563 18.4766 15.7364 19.8593 14.4629 20.9841C14.3147 20.9934 14.1579 21 14 21C11.6131 21 9.32387 20.0518 7.63604 18.364C5.94821 16.6761 5 14.3869 5 12C5 9.61305 5.94821 7.32387 7.63604 5.63604C9.32387 3.94821 11.6131 3 14 3ZM14 2C11.3478 2 8.8043 3.05357 6.92893 4.92893C5.05357 6.8043 4 9.34784 4 12C4 14.6522 5.05357 17.1957 6.92893 19.0711C8.8043 20.9464 11.3478 22 14 22C14.2925 22 14.58 21.9808 14.8666 21.9562C16.3219 20.7372 17.4923 19.214 18.2954 17.4939C19.0984 15.7737 19.5146 13.8984 19.5146 12C19.5146 10.1016 19.0984 8.22631 18.2954 6.50615C17.4923 4.78598 16.3219 3.26278 14.8666 2.0438C14.58 2.0192 14.2925 2 14 2Z" fill="black"/>
</svg>
