<svg width="24" height="24" viewBox="0 0 24 24" fill="none" xmlns="http://www.w3.org/2000/svg">
<path d="M12.5 1H11.5V4H12.5V1ZM8.1108 5.4043L5.99 3.2822L5.283 3.9893L7.4041 6.1113L8.1108 5.4043ZM6 9.5H3V10.5H6V9.5ZM18 9.5V10.5H21V9.5H18ZM18.7173 3.9893L18.0103 3.2822L15.8892 5.4043L16.5962 6.1113L18.7173 3.9893ZM8.2966 11.5H15.7034C15.9513 10.8926 16.046 10.2335 15.9792 9.5809C15.9123 8.92826 15.686 8.30208 15.3201 7.75754C14.9542 7.21301 14.46 6.76682 13.881 6.45831C13.302 6.1498 12.6561 5.98844 12 5.98844C11.3439 5.98844 10.698 6.1498 10.119 6.45831C9.54 6.76682 9.04578 7.21301 8.67989 7.75754C8.314 8.30208 8.08766 8.92826 8.02081 9.5809C7.95397 10.2335 8.04868 10.8926 8.2966 11.5ZM3 14.5H21V13.5H3V14.5ZM12.5 21.0859V17H11.5V21.0859L10.0288 19.6147L9.3218 20.3218L12 23L14.6782 20.3218L13.9712 19.6147L12.5 21.0859Z" fill="black"/>
</svg>
