<svg width="24" height="24" viewBox="0 0 24 24" fill="none" xmlns="http://www.w3.org/2000/svg">
<path d="M21.0654 19.0772L19.2 20.1542V18.0001H18.8V20.1542L16.9348 19.0772L16.7356 19.423L18.601 20.5001L16.7354 21.5772L16.9346 21.923L18.8 20.846V23.0001H19.2V20.846L21.0652 21.923L21.2644 21.5772L19.399 20.5001L21.2646 19.423L21.0654 19.0772ZM7.06538 19.0772L5.19998 20.1542V18.0001H4.79998V20.1542L2.93478 19.0772L2.73558 19.423L4.60098 20.5001L2.73538 21.5772L2.93458 21.923L4.79998 20.846V23.0001H5.19998V20.846L7.06518 21.923L7.26438 21.5772L5.39898 20.5001L7.26458 19.423L7.06538 19.0772ZM20.6414 8.36008C20.6478 8.25758 20.6721 8.16008 20.6721 8.05608C20.6721 7.40683 20.5442 6.76394 20.2957 6.16411C20.0473 5.56428 19.6831 5.01927 19.224 4.56018C18.7649 4.1011 18.2199 3.73693 17.6201 3.48849C17.0202 3.24004 16.3773 3.11217 15.7281 3.11218C14.885 3.1174 14.0577 3.34049 13.3263 3.75978C12.5458 2.93912 11.5371 2.37135 10.4306 2.1298C9.32413 1.88826 8.17063 1.98404 7.11913 2.40478C6.06763 2.82552 5.16644 3.55188 4.53198 4.49003C3.89753 5.42819 3.55894 6.53503 3.55998 7.66758C3.56026 7.86801 3.57107 8.06829 3.59238 8.26758C2.71544 8.59577 1.98172 9.2217 1.51947 10.036C1.05722 10.8503 0.895835 11.8011 1.06353 12.7223C1.23122 13.6435 1.71732 14.4765 2.43687 15.0756C3.15642 15.6748 4.06364 16.002 4.99998 16.0001H11.44L10.398 19.8901H13.5029L12.5981 23.4019L14.2311 19.3901H11.032L11.94 16.0001H19C19.9147 16.0012 20.802 15.6884 21.5138 15.114C22.2256 14.5395 22.7188 13.7383 22.9109 12.844C23.103 11.9497 22.9825 11.0166 22.5694 10.2005C22.1564 9.38442 21.4758 8.73477 20.6414 8.36008ZM19 15.5001H4.99998C4.1808 15.5018 3.38707 15.2156 2.75756 14.6914C2.12805 14.1672 1.70281 13.4384 1.55619 12.6325C1.40956 11.8265 1.55089 10.9946 1.95545 10.2823C2.36001 9.57002 3.00207 9.02257 3.76938 8.73568L4.13058 8.59928L4.08998 8.21548C4.01231 7.49462 4.08736 6.76548 4.31024 6.07555C4.53311 5.38563 4.89882 4.75038 5.38353 4.21119C5.86825 3.672 6.46111 3.24096 7.1235 2.94614C7.78588 2.65132 8.50294 2.49934 9.22798 2.50008C9.92738 2.4982 10.6198 2.63963 11.2624 2.91566C11.905 3.19168 12.4843 3.59645 12.9645 4.10498L13.2323 4.38578L13.5708 4.19578C14.2272 3.81769 14.9706 3.61653 15.7281 3.61198C16.9063 3.61331 18.0358 4.08192 18.869 4.91503C19.7021 5.74813 20.1707 6.87769 20.1721 8.05588C20.1708 8.09147 20.167 8.12692 20.1608 8.16198C20.1531 8.21718 20.1459 8.27248 20.1424 8.32898L20.121 8.67338L20.4355 8.81548C21.1659 9.14301 21.7617 9.71131 22.1234 10.4254C22.4851 11.1395 22.5907 11.956 22.4227 12.7387C22.2546 13.5213 21.823 14.2225 21.2 14.7251C20.5771 15.2277 19.8004 15.5013 19 15.5001Z" fill="black"/>
</svg>
