<svg width="24" height="24" viewBox="0 0 24 24" fill="none" xmlns="http://www.w3.org/2000/svg">
<path d="M12.5 3H11.5V6H12.5V3ZM8.1108 7.4038L5.99 5.2827L5.283 5.9897L7.4038 8.1108L8.1108 7.4038ZM6 11.5H3V12.5H6V11.5ZM5.2827 18.01L5.9897 18.717L8.1108 16.5959L7.4038 15.8889L5.2827 18.01ZM11.5 21H12.5V18H11.5V21ZM15.8892 16.5962L18.01 18.7173L18.717 18.0103L16.5959 15.8892L15.8892 16.5962ZM18 11.5V12.5H21V11.5H18ZM18.7173 5.99L18.0103 5.283L15.8892 7.4038L16.5962 8.1108L18.7173 5.99ZM12 8C11.2089 8 10.4355 8.2346 9.77772 8.67412C9.11992 9.11365 8.60723 9.73836 8.30448 10.4693C8.00173 11.2002 7.92252 12.0044 8.07686 12.7804C8.2312 13.5563 8.61216 14.269 9.17157 14.8284C9.73098 15.3878 10.4437 15.7688 11.2196 15.9231C11.9956 16.0775 12.7998 15.9983 13.5307 15.6955C14.2616 15.3928 14.8864 14.8801 15.3259 14.2223C15.7654 13.5645 16 12.7911 16 12C16 10.9391 15.5786 9.92172 14.8284 9.17157C14.0783 8.42143 13.0609 8 12 8Z" fill="black"/>
</svg>
