<svg width="24" height="24" viewBox="0 0 24 24" fill="none" xmlns="http://www.w3.org/2000/svg">
<path d="M10 2H8V5H10V2ZM5.4648 6.0508L3.3428 3.9287L1.9287 5.3428L4.0508 7.4648L5.4648 6.0508ZM3 10H0V12H3V10ZM12.2663 8.73C11.9038 8.19759 11.4167 7.76172 10.8475 7.46024C10.2783 7.15876 9.64412 7.00077 9 7C8.17915 6.99722 7.37746 7.24791 6.70441 7.71781C6.03137 8.18772 5.51979 8.85393 5.23954 9.62547C4.9593 10.397 4.92406 11.2362 5.13863 12.0285C5.3532 12.8209 5.80712 13.5276 6.4384 14.0523C6.82737 13.1035 7.46202 12.2753 8.2771 11.653C9.09219 11.0307 10.0583 10.6367 11.0761 10.5115C11.3692 9.85474 11.7716 9.25251 12.2663 8.7305V8.73ZM21.2977 12.6408C21.1854 11.5754 20.688 10.5877 19.8988 9.86326C19.1096 9.1388 18.0831 8.72745 17.012 8.70648C15.941 8.68552 14.8991 9.0564 14.0822 9.74943C13.2653 10.4425 12.7296 11.4099 12.5757 12.4701H11.7647C10.7662 12.4701 9.80867 12.8667 9.10266 13.5728C8.39664 14.2788 8 15.2363 8 16.2348C8 17.2333 8.39664 18.1908 9.10266 18.8968C9.80867 19.6029 10.7662 19.9995 11.7647 19.9995H20.2353C21.1399 20.0019 22.0149 19.6777 22.6995 19.0865C23.3841 18.4952 23.8322 17.6767 23.9614 16.7814C24.0907 15.8861 23.8924 14.9743 23.403 14.2135C22.9136 13.4528 22.166 12.8943 21.2977 12.6408ZM1.9287 16.6572L3.3428 18.0713L5.4648 15.9492L4.0508 14.5352L1.9287 16.6572ZM15.8691 5.1L14.4062 3.7363L12.36 5.9307L13.8228 7.2939L15.8691 5.1Z" fill="black"/>
</svg>
