<svg width="24" height="24" viewBox="0 0 24 24" fill="none" xmlns="http://www.w3.org/2000/svg">
<path d="M13 1H11V4H13V1ZM8.4644 5.0508L6.3433 2.9287L4.9292 4.3428L7.05 6.4648L8.4644 5.0508ZM6 9H3V11H6V9ZM18 9V11H21V9H18ZM19.0708 4.3428L17.6567 2.9287L15.5356 5.0508L16.95 6.4648L19.0708 4.3428ZM8.9583 20H11V23H13V20H15.0416L12 17L8.9583 20ZM8.1414 11H15.8586C16.0207 10.4065 16.0438 9.78369 15.926 9.17988C15.8082 8.57606 15.5527 8.00756 15.1794 7.51857C14.806 7.02959 14.325 6.6333 13.7735 6.36053C13.2221 6.08776 12.6152 5.94586 12 5.94586C11.3848 5.94586 10.7779 6.08776 10.2265 6.36053C9.67504 6.6333 9.19397 7.02959 8.82065 7.51857C8.44733 8.00756 8.19183 8.57606 8.07403 9.17988C7.95622 9.78369 7.97927 10.4065 8.1414 11ZM3 15H21V13H3V15Z" fill="black"/>
</svg>
