<svg width="24" height="24" viewBox="0 0 24 24" fill="none" xmlns="http://www.w3.org/2000/svg">
<path d="M17.5651 19.0772L15.7 20.1542V18.0001H15.3V20.1542L13.4347 19.0772L13.2355 19.423L15.1007 20.5001L13.235 21.5772L13.4342 21.923L15.3 20.846V23.0001H15.7V20.846L17.5652 21.923L17.7644 21.5772L15.8987 20.5001L17.7643 19.423L17.5651 19.0772ZM20.6414 8.36008C20.6477 8.25758 20.672 8.16008 20.672 8.05608C20.672 6.74488 20.1511 5.48738 19.2239 4.56022C18.2968 3.63306 17.0393 3.11218 15.7281 3.11218C14.885 3.1174 14.0577 3.34049 13.3263 3.75978C12.5458 2.93912 11.5371 2.37135 10.4306 2.1298C9.32413 1.88826 8.17063 1.98404 7.11913 2.40478C6.06763 2.82552 5.16644 3.55188 4.53198 4.49003C3.89753 5.42819 3.55894 6.53503 3.55998 7.66758C3.56026 7.86801 3.57107 8.06829 3.59238 8.26758C2.71544 8.59577 1.98172 9.2217 1.51947 10.036C1.05722 10.8503 0.895835 11.8011 1.06353 12.7223C1.23122 13.6435 1.71732 14.4765 2.43687 15.0756C3.15642 15.6748 4.06364 16.002 4.99998 16.0001H19C19.9147 16.0012 20.802 15.6884 21.5138 15.114C22.2256 14.5395 22.7188 13.7383 22.9109 12.844C23.103 11.9497 22.9825 11.0166 22.5694 10.2005C22.1564 9.38442 21.4758 8.73477 20.6414 8.36008ZM19 15.5001H4.99998C4.1808 15.5018 3.38707 15.2156 2.75756 14.6914C2.12805 14.1672 1.70281 13.4384 1.55619 12.6325C1.40956 11.8265 1.55089 10.9946 1.95545 10.2823C2.36001 9.57002 3.00207 9.02257 3.76938 8.73568L4.13048 8.59928L4.09048 8.21548C4.01282 7.49467 4.08785 6.76558 4.31069 6.0757C4.53353 5.38581 4.89918 4.75059 5.38383 4.21142C5.86849 3.67224 6.46127 3.24118 7.12358 2.94633C7.7859 2.65147 8.50289 2.49942 9.22788 2.50008C9.9273 2.49819 10.6197 2.63961 11.2624 2.91564C11.905 3.19166 12.4843 3.59644 12.9645 4.10498L13.2323 4.38578L13.5708 4.19578C14.2272 3.81769 14.9706 3.61653 15.7281 3.61198C16.9063 3.61331 18.0359 4.08197 18.869 4.91514C19.7021 5.74831 20.1707 6.87794 20.172 8.05618C20.1707 8.09177 20.1669 8.12723 20.1607 8.16228C20.1531 8.21748 20.1459 8.27278 20.1424 8.32928L20.1211 8.67368L20.4355 8.81578C21.1657 9.14342 21.7613 9.71172 22.1229 10.4257C22.4845 11.1397 22.59 11.9562 22.422 12.7387C22.2539 13.5212 21.8225 14.2223 21.1996 14.7249C20.5768 15.2275 19.8003 15.5011 19 15.5001ZM6.39768 21.3978C6.40102 21.8205 6.5713 22.2248 6.87141 22.5226C7.17153 22.8203 7.57716 22.9874 7.99993 22.9874C8.42269 22.9874 8.82832 22.8203 9.12844 22.5226C9.42856 22.2248 9.59884 21.8205 9.60218 21.3978C9.60218 20.116 7.99998 17.633 7.99998 17.633C7.99998 17.633 6.39768 20.116 6.39768 21.3978ZM7.99998 22.5001C7.70774 22.4998 7.42757 22.3835 7.22092 22.1769C7.01427 21.9703 6.89802 21.6901 6.89768 21.3979C7.07716 20.4026 7.45179 19.4527 7.99998 18.6028C8.54817 19.4526 8.92277 20.4025 9.10218 21.3978C9.10189 21.69 8.98567 21.9702 8.77903 22.1769C8.5724 22.3835 8.29222 22.4998 7.99998 22.5001Z" fill="black"/>
</svg>
