<svg width="24" height="24" viewBox="0 0 24 24" fill="none" xmlns="http://www.w3.org/2000/svg">
<path d="M20.6414 8.36008C20.6478 8.25758 20.6721 8.16008 20.6721 8.05608C20.6721 7.40683 20.5443 6.76394 20.2958 6.16411C20.0473 5.56428 19.6832 5.01927 19.2241 4.56018C18.765 4.1011 18.2199 3.73693 17.6201 3.48849C17.0203 3.24004 16.3774 3.11217 15.7281 3.11218C14.8851 3.1174 14.0577 3.34049 13.3263 3.75978C12.5458 2.93912 11.5372 2.37135 10.4307 2.1298C9.32419 1.88826 8.17069 1.98404 7.11919 2.40478C6.06769 2.82552 5.16651 3.55188 4.53205 4.49003C3.89759 5.42819 3.559 6.53503 3.56004 7.66758C3.56032 7.86801 3.57114 8.06829 3.59244 8.26758C2.7155 8.59577 1.98178 9.2217 1.51953 10.036C1.05728 10.8503 0.895896 11.8011 1.06359 12.7223C1.23128 13.6435 1.71738 14.4765 2.43693 15.0756C3.15648 15.6748 4.0637 16.002 5.00004 16.0001H19C19.9147 16.0012 20.8021 15.6884 21.5139 15.114C22.2257 14.5395 22.7188 13.7383 22.911 12.844C23.1031 11.9497 22.9826 11.0166 22.5695 10.2005C22.1564 9.38442 21.4758 8.73477 20.6414 8.36008ZM10.63 21.6301C10.63 21.9935 10.7744 22.3421 11.0314 22.5991C11.2884 22.8561 11.637 23.0005 12.0004 23.0005C12.3639 23.0005 12.7125 22.8561 12.9695 22.5991C13.2265 22.3421 13.3708 21.9935 13.3708 21.6301C13.1081 20.3751 12.6452 19.1706 12 18.0626C11.3551 19.1706 10.8926 20.3752 10.63 21.6301ZM12.5908 21.6301C12.5908 21.7867 12.5286 21.9368 12.4179 22.0475C12.3072 22.1582 12.1571 22.2204 12.0005 22.2204C11.8439 22.2204 11.6938 22.1582 11.583 22.0475C11.4723 21.9368 11.4101 21.7867 11.4101 21.6301C11.5081 20.996 11.7072 20.3818 12 19.8109C12.293 20.3817 12.4922 20.996 12.59 21.6301H12.5908Z" fill="black"/>
</svg>
