<svg width="24" height="24" viewBox="0 0 24 24" fill="none" xmlns="http://www.w3.org/2000/svg">
<g clip-path="url(#clip0)">
<path d="M9.33329 4.5C10.5421 4.49798 11.7065 4.95555 12.5905 5.78L13.3151 6.4039L14.1817 6.0022C14.7909 5.67143 15.4734 5.49877 16.1667 5.5C17.3156 5.5013 18.417 5.95826 19.2294 6.77063C20.0417 7.583 20.4987 8.68444 20.5 9.8333C20.4974 10.1162 20.4662 10.3982 20.4067 10.6748L20.2476 11.5988L21.0096 12.1457C21.6188 12.5719 22.0761 13.1815 22.3149 13.8856C22.5537 14.5897 22.5616 15.3517 22.3374 16.0606C22.1132 16.7695 21.6686 17.3883 21.0684 17.8271C20.4681 18.2658 19.7435 18.5016 19 18.5H4.99999C4.18898 18.5005 3.403 18.2191 2.77652 17.7041C2.15003 17.1891 1.72197 16.4724 1.56557 15.6766C1.40917 14.8808 1.53414 14.0554 1.91911 13.3416C2.30408 12.6278 2.92512 12.0699 3.67599 11.7634L4.75349 11.3144L4.58199 10.16C4.52995 9.88735 4.50251 9.61057 4.49999 9.333C4.50153 8.05163 5.01125 6.82319 5.91735 5.91715C6.82344 5.01111 8.05192 4.50146 9.33329 4.5ZM9.33329 3C7.65359 3 6.0427 3.66726 4.85497 4.85498C3.66725 6.04271 2.99999 7.65361 2.99999 9.3333C3.00201 9.6841 3.03504 10.034 3.09869 10.379C2.02785 10.819 1.14296 11.617 0.595131 12.6369C0.0473009 13.6568 -0.129487 14.8352 0.0949564 15.971C0.3194 17.1067 0.931155 18.1293 1.82575 18.8641C2.72034 19.599 3.84229 20.0004 4.99999 20H19C20.061 20.0016 21.0949 19.6652 21.9518 19.0395C22.8086 18.4138 23.4439 17.5314 23.7654 16.5203C24.0868 15.5092 24.0778 14.422 23.7397 13.4163C23.4015 12.4107 22.7517 11.5389 21.8846 10.9275C21.9592 10.5675 21.9979 10.201 22 9.8333C22 8.28622 21.3854 6.80252 20.2914 5.70857C19.1975 4.61462 17.7138 4.00003 16.1667 4C15.2595 3.99904 14.3657 4.21839 13.5621 4.6392C12.4072 3.58306 10.8983 2.99819 9.33329 3Z" fill="black"/>
</g>
<defs>
<clipPath id="clip0">
<rect width="24" height="24" fill="white"/>
</clipPath>
</defs>
</svg>
