<svg width="24" height="24" viewBox="0 0 24 24" fill="none" xmlns="http://www.w3.org/2000/svg">
<path d="M12 3.3825C14.4381 6.2607 18.0015 11.2752 18.0015 14.9987C18.0015 16.5904 17.3692 18.1169 16.2437 19.2424C15.1182 20.3679 13.5917 21.0002 12 21.0002C10.4083 21.0002 8.8818 20.3679 7.7563 19.2424C6.6308 18.1169 5.9985 16.5904 5.9985 14.9987C5.9985 11.2752 9.5619 6.2607 12 3.3825ZM12 0.395996C12 0.395996 3.9985 8.5974 3.9985 14.9987C3.9985 17.1208 4.84152 19.156 6.34209 20.6566C7.84266 22.1572 9.87788 23.0002 12 23.0002C14.1221 23.0002 16.1573 22.1572 17.6579 20.6566C19.1585 19.156 20.0015 17.1208 20.0015 14.9987C20.0015 8.5974 12 0.395996 12 0.395996Z" fill="black"/>
</svg>
