<svg width="24" height="24" viewBox="0 0 24 24" fill="none" xmlns="http://www.w3.org/2000/svg">
<g clip-path="url(#clip0)">
<path d="M9.5 5.00016C10.5453 4.99541 11.5587 5.35926 12.3623 6.02776L13.3033 6.80466L14.4247 6.32336C15.0331 6.06268 15.6967 5.95707 16.356 6.01597C17.0152 6.07487 17.6496 6.29646 18.2022 6.66086C18.7547 7.02527 19.2082 7.52109 19.522 8.1039C19.8358 8.6867 20 9.33826 20 10.0002C19.9976 10.2139 19.9783 10.4271 19.9422 10.6378L19.7472 11.8541L20.7457 12.5755C21.1336 12.8497 21.4499 13.2131 21.6682 13.635C21.8865 14.0569 22.0003 14.5251 22 15.0002C21.9991 15.7955 21.6827 16.5581 21.1203 17.1205C20.5579 17.6829 19.7954 17.9993 19 18.0002H5C4.30699 18.0001 3.63538 17.76 3.09929 17.3208C2.5632 16.8817 2.19569 16.2704 2.0592 15.591C1.92272 14.9116 2.02567 14.2058 2.35057 13.5937C2.67548 12.9815 3.20229 12.5008 3.8415 12.2331L5.2578 11.6389L5.0492 10.1172C4.95342 9.47949 4.99719 8.82864 5.17749 8.20954C5.35779 7.59044 5.67032 7.01786 6.0935 6.53133C6.51669 6.04481 7.04043 5.65593 7.62857 5.39158C8.2167 5.12722 8.85522 4.99367 9.5 5.00016ZM9.5 3.00016C8.56962 2.99368 7.64884 3.18839 6.80073 3.57096C5.95263 3.95353 5.19724 4.51491 4.58633 5.21665C3.97542 5.91838 3.52343 6.74389 3.26131 7.6366C2.99919 8.52931 2.93315 9.46814 3.0677 10.3888C2.0025 10.8352 1.1247 11.6366 0.583413 12.6569C0.0421301 13.6771 -0.129247 14.8533 0.0983947 15.9857C0.326037 17.118 0.938659 18.1365 1.83219 18.8684C2.72571 19.6002 3.84504 20.0001 5 20.0002H19C20.0574 20.0023 21.0881 19.6685 21.9435 19.0469C22.7989 18.4253 23.4347 17.548 23.7592 16.5416C24.0837 15.5353 24.0802 14.4518 23.7491 13.4476C23.418 12.4434 22.7764 11.5703 21.917 10.9544C22.0888 9.89433 21.9726 8.80763 21.5808 7.80782C21.189 6.80801 20.5358 5.9318 19.6895 5.27075C18.8432 4.6097 17.835 4.18808 16.77 4.04996C15.7051 3.91183 14.6226 4.06227 13.6357 4.48556C12.4725 3.52331 11.0096 2.99788 9.5 3.00016Z" fill="black"/>
</g>
<defs>
<clipPath id="clip0">
<rect width="24" height="24" fill="white"/>
</clipPath>
</defs>
</svg>
