<svg width="24" height="24" viewBox="0 0 24 24" fill="none" xmlns="http://www.w3.org/2000/svg">
<path d="M13 2H11V6H13V2ZM4.2217 5.6357L7.05 8.4644L8.4644 7.05L5.6357 4.2217L4.2217 5.6357ZM6 11H2V13H6V11ZM4.2217 18.3643L5.6357 19.7783L8.4644 16.95L7.05 15.5356L4.2217 18.3643ZM11 22H13V18H11V22ZM15.5356 16.95L18.3643 19.7786L19.7783 18.3646L16.95 15.5356L15.5356 16.95ZM18 11V13H22V11H18ZM19.7783 5.6357L18.3643 4.2217L15.5356 7.05L16.95 8.4644L19.7783 5.6357ZM13.1306 8H10.8694L8.4644 15H10.1664L10.6279 13.6625H13.3613L13.8228 15H15.5356L13.1306 8ZM11.0894 12.3248L11.9946 9.7012L12.9 12.3248H11.0894Z" fill="black"/>
</svg>
