<svg width="24" height="24" viewBox="0 0 24 24" fill="none" xmlns="http://www.w3.org/2000/svg">
<path d="M12.5605 3.3266C14.4813 4.42505 16.0844 6.00296 17.2131 7.90619C18.3417 9.80942 18.9574 11.9729 19 14.1852C18.9874 16.0714 18.2341 17.877 16.9025 19.2129C15.571 20.5488 13.7678 21.308 11.8817 21.3268C9.99555 21.3455 8.17761 20.6224 6.81974 19.3132C5.46186 18.0041 4.67281 16.2137 4.62269 14.3282L4.62349 14.3266V14.181C4.80413 11.6235 5.98723 9.24076 7.91549 7.551C7.86568 8.71354 8.00657 9.87639 8.33258 10.9934C8.51321 11.6405 8.86642 12.2262 9.35438 12.688C9.64419 12.954 10.0094 13.1234 10.3997 13.1728C10.4963 13.1848 10.5936 13.1899 10.691 13.1879C11.0761 13.1825 11.4543 13.0851 11.7941 12.9038C12.1338 12.7225 12.4253 12.4626 12.6442 12.1457C13.0242 11.623 13.2878 11.025 13.4173 10.3918C13.7975 8.00291 13.5007 5.55526 12.5605 3.3265V3.3266ZM10.5 1C13.4523 6.0363 13.4375 12.1909 10.6041 12.1909C8.56249 12.1909 8.60408 7.5 9.06249 5.1667C6.37499 6.9063 3.62349 10.5 3.62349 14.181L3.62119 14.1852C3.64727 16.34 4.52156 18.3977 6.05454 19.9122C7.58751 21.4267 9.65563 22.2761 11.8106 22.2761C13.9655 22.2761 16.0337 21.4267 17.5666 19.9122C19.0996 18.3977 19.9739 16.34 20 14.1852V14.181C20 7.7188 15.4167 2.875 10.5 1Z" fill="black"/>
</svg>
