<svg width="24" height="24" viewBox="0 0 24 24" fill="none" xmlns="http://www.w3.org/2000/svg">
<path d="M17 4.75C16.1384 4.75101 15.3123 5.09374 14.703 5.70301C14.0937 6.31229 13.751 7.13836 13.75 8H14.25C14.25 7.4561 14.4113 6.92442 14.7135 6.47218C15.0156 6.01995 15.4451 5.66747 15.9476 5.45933C16.4501 5.25119 17.0031 5.19673 17.5365 5.30284C18.0699 5.40895 18.5599 5.67086 18.9445 6.05546C19.3291 6.44005 19.591 6.93005 19.6972 7.4635C19.8033 7.99695 19.7488 8.54988 19.5407 9.05238C19.3325 9.55488 18.9801 9.98437 18.5278 10.2865C18.0756 10.5887 17.5439 10.75 17 10.75H4V11.25H17C17.862 11.25 18.6886 10.9076 19.2981 10.2981C19.9076 9.6886 20.25 8.86195 20.25 8C20.25 7.13805 19.9076 6.3114 19.2981 5.7019C18.6886 5.09241 17.862 4.75 17 4.75ZM14 14.75H6V15.25H14C14.4641 15.25 14.9092 15.4344 15.2374 15.7626C15.5656 16.0908 15.75 16.5359 15.75 17C15.75 17.4641 15.5656 17.9092 15.2374 18.2374C14.9092 18.5656 14.4641 18.75 14 18.75H13V19.25H14C14.5967 19.25 15.169 19.0129 15.591 18.591C16.0129 18.169 16.25 17.5967 16.25 17C16.25 16.4033 16.0129 15.831 15.591 15.409C15.169 14.9871 14.5967 14.75 14 14.75Z" fill="black"/>
</svg>
