<svg width="24" height="24" viewBox="0 0 24 24" fill="none" xmlns="http://www.w3.org/2000/svg">
<path d="M10 2.5C12.5196 2.5 14.9359 3.50089 16.7175 5.28249C18.4991 7.06408 19.5 9.48044 19.5 12C19.5 14.5196 18.4991 16.9359 16.7175 18.7175C14.9359 20.4991 12.5196 21.5 10 21.5C9.76651 21.5 9.53881 21.4868 9.33461 21.4711C7.97027 20.2988 6.87531 18.8456 6.12466 17.211C5.37401 15.5763 4.98538 13.7988 4.98538 12C4.98538 10.2012 5.37401 8.42368 6.12466 6.78901C6.87531 5.15435 7.97027 3.70116 9.33461 2.5289C9.53881 2.5132 9.76651 2.5 10 2.5ZM10 2C9.70751 2 9.42001 2.0192 9.13341 2.0438C7.67808 3.26278 6.50769 4.78598 5.70464 6.50615C4.90159 8.22631 4.48541 10.1016 4.48541 12C4.48541 13.8984 4.90159 15.7737 5.70464 17.4939C6.50769 19.214 7.67808 20.7372 9.13341 21.9562C9.42001 21.9808 9.70751 22 10 22C12.6522 22 15.1957 20.9464 17.0711 19.0711C18.9464 17.1957 20 14.6522 20 12C20 9.34784 18.9464 6.8043 17.0711 4.92893C15.1957 3.05357 12.6522 2 10 2Z" fill="black"/>
</svg>
