<svg width="24" height="24" viewBox="0 0 24 24" fill="none" xmlns="http://www.w3.org/2000/svg">
<path d="M14 3.5C14.087 3.5 14.1743 3.5022 14.26 3.5058C15.4427 4.58226 16.3875 5.89382 17.034 7.35652C17.6806 8.81921 18.0145 10.4008 18.0145 12C18.0145 13.5992 17.6806 15.1808 17.034 16.6435C16.3875 18.1062 15.4427 19.4177 14.26 20.4942C14.1742 20.4978 14.0869 20.5 14 20.5C11.7457 20.5 9.58365 19.6045 7.98959 18.0104C6.39553 16.4163 5.5 14.2543 5.5 12C5.5 9.74566 6.39553 7.58365 7.98959 5.98959C9.58365 4.39553 11.7457 3.5 14 3.5ZM14 2C11.3478 2 8.8043 3.05357 6.92893 4.92893C5.05357 6.8043 4 9.34784 4 12C4 14.6522 5.05357 17.1957 6.92893 19.0711C8.8043 20.9464 11.3478 22 14 22C14.2925 22 14.58 21.9808 14.8666 21.9562C16.3219 20.7372 17.4923 19.214 18.2954 17.4939C19.0984 15.7737 19.5146 13.8984 19.5146 12C19.5146 10.1016 19.0984 8.22631 18.2954 6.50615C17.4923 4.78598 16.3219 3.26278 14.8666 2.0438C14.58 2.0192 14.2925 2 14 2Z" fill="black"/>
</svg>
