<svg width="24" height="24" viewBox="0 0 24 24" fill="none" xmlns="http://www.w3.org/2000/svg">
<path d="M9.25 2H8.75V5H9.25V2ZM2.459 4.8125L4.5811 6.9346L4.9346 6.5811L2.8125 4.459L2.459 4.8125ZM3 10.75H0V11.25H3V10.75ZM2.459 17.1875L2.8125 17.541L4.9346 15.4189L4.5811 15.0654L2.459 17.1875ZM15.32 4.5889L14.9548 4.2471L12.9092 6.4414L13.2744 6.7832L15.32 4.5889ZM12.266 8.7305C11.9035 8.19804 11.4166 7.7621 10.8474 7.46053C10.2783 7.15896 9.64412 7.00088 9 7C8.17915 6.99722 7.37746 7.24791 6.70441 7.71781C6.03137 8.18772 5.51979 8.85393 5.23954 9.62547C4.9593 10.397 4.92406 11.2362 5.13863 12.0285C5.3532 12.8209 5.80712 13.5276 6.4384 14.0523C6.82737 13.1035 7.46202 12.2753 8.2771 11.653C9.09219 11.0307 10.0583 10.6367 11.0761 10.5115C11.3692 9.85474 11.7716 9.25251 12.2663 8.7305H12.266ZM21.2974 12.6413C21.1851 11.5759 20.6877 10.5882 19.8985 9.86376C19.1093 9.1393 18.0828 8.72795 17.0117 8.70698C15.9407 8.68602 14.8988 9.0569 14.0819 9.74993C13.265 10.443 12.7293 11.4104 12.5754 12.4706H11.7644C10.7659 12.4706 9.80837 12.8672 9.10236 13.5733C8.39634 14.2793 7.9997 15.2368 7.9997 16.2353C7.9997 17.2338 8.39634 18.1913 9.10236 18.8973C9.80837 19.6034 10.7659 20 11.7644 20H20.235C21.1396 20.0024 22.0146 19.6782 22.6992 19.087C23.3838 18.4957 23.8319 17.6772 23.9611 16.7819C24.0904 15.8866 23.8921 14.9748 23.4027 14.214C22.9133 13.4533 22.1657 12.8948 21.2974 12.6413Z" fill="black"/>
</svg>
