<svg width="24" height="24" viewBox="0 0 24 24" fill="none" xmlns="http://www.w3.org/2000/svg">
<path d="M10 3.5C12.2543 3.5 14.4164 4.39553 16.0104 5.98959C17.6045 7.58365 18.5 9.74566 18.5 12C18.5 14.2543 17.6045 16.4163 16.0104 18.0104C14.4164 19.6045 12.2543 20.5 10 20.5C9.91301 20.5 9.82571 20.4978 9.74001 20.4942C8.55734 19.4177 7.6125 18.1062 6.96598 16.6435C6.31945 15.1808 5.9855 13.5992 5.9855 12C5.9855 10.4008 6.31945 8.81921 6.96598 7.35652C7.6125 5.89382 8.55734 4.58226 9.74001 3.5058C9.82571 3.5022 9.91301 3.5 10 3.5ZM10 2C9.70751 2 9.42001 2.0192 9.13341 2.0438C7.67808 3.26278 6.50769 4.78598 5.70464 6.50615C4.90159 8.22631 4.48541 10.1016 4.48541 12C4.48541 13.8984 4.90159 15.7737 5.70464 17.4939C6.50769 19.214 7.67808 20.7372 9.13341 21.9562C9.42001 21.9808 9.70751 22 10 22C12.6522 22 15.1957 20.9464 17.0711 19.0711C18.9464 17.1957 20 14.6522 20 12C20 9.34784 18.9464 6.8043 17.0711 4.92893C15.1957 3.05357 12.6522 2 10 2Z" fill="black"/>
</svg>
