<svg width="24" height="24" viewBox="0 0 24 24" fill="none" xmlns="http://www.w3.org/2000/svg">
<path d="M17 14.75H4V13.25H17C17.445 13.25 17.88 13.118 18.25 12.8708C18.62 12.6236 18.9084 12.2722 19.0787 11.861C19.249 11.4499 19.2936 10.9975 19.2068 10.561C19.1199 10.1246 18.9057 9.72368 18.591 9.40901C18.2763 9.09434 17.8754 8.88005 17.439 8.79323C17.0025 8.70642 16.5501 8.75098 16.139 8.92127C15.7278 9.09157 15.3764 9.37996 15.1292 9.74997C14.882 10.12 14.75 10.555 14.75 11H13.25C13.25 10.2583 13.4699 9.5333 13.882 8.91661C14.294 8.29993 14.8797 7.81928 15.5649 7.53545C16.2502 7.25162 17.0042 7.17736 17.7316 7.32206C18.459 7.46675 19.1272 7.8239 19.6517 8.34835C20.1761 8.8728 20.5332 9.54098 20.6779 10.2684C20.8226 10.9958 20.7484 11.7498 20.4645 12.4351C20.1807 13.1203 19.7001 13.706 19.0834 14.118C18.4667 14.5301 17.7417 14.75 17 14.75Z" fill="black"/>
</svg>
