<svg width="24" height="24" viewBox="0 0 24 24" fill="none" xmlns="http://www.w3.org/2000/svg">
<path d="M17 15H4V13H17C17.3956 13 17.7822 12.8827 18.1111 12.6629C18.44 12.4432 18.6964 12.1308 18.8478 11.7654C18.9991 11.3999 19.0387 10.9978 18.9616 10.6098C18.8844 10.2219 18.6939 9.86549 18.4142 9.58579C18.1345 9.30608 17.7781 9.1156 17.3902 9.03843C17.0022 8.96126 16.6001 9.00087 16.2346 9.15224C15.8692 9.30362 15.5568 9.55996 15.3371 9.88886C15.1173 10.2178 15 10.6044 15 11H13C13 10.2089 13.2346 9.43552 13.6741 8.77772C14.1136 8.11992 14.7384 7.60723 15.4693 7.30448C16.2002 7.00173 17.0044 6.92252 17.7804 7.07686C18.5563 7.2312 19.269 7.61216 19.8284 8.17157C20.3878 8.73098 20.7688 9.44372 20.9231 10.2196C21.0775 10.9956 20.9983 11.7998 20.6955 12.5307C20.3928 13.2616 19.8801 13.8864 19.2223 14.3259C18.5645 14.7654 17.7911 15 17 15Z" fill="black"/>
</svg>
