<svg width="24" height="24" viewBox="0 0 24 24" fill="none" xmlns="http://www.w3.org/2000/svg">
<path d="M10 4C12.1217 4 14.1566 4.84285 15.6569 6.34315C17.1572 7.84344 18 9.87827 18 12C18 14.1217 17.1572 16.1566 15.6569 17.6569C14.1566 19.1571 12.1217 20 10 20H9.94191C8.85043 18.9729 7.98067 17.7333 7.38616 16.3575C6.79165 14.9817 6.48496 13.4988 6.48496 12C6.48496 10.5012 6.79165 9.01833 7.38616 7.64252C7.98067 6.26672 8.85043 5.02711 9.94191 4C9.96131 4 9.98071 4 10 4ZM10 2C9.70751 2 9.42001 2.0192 9.13341 2.0438C7.67808 3.26278 6.50769 4.78598 5.70464 6.50615C4.90159 8.22631 4.48541 10.1016 4.48541 12C4.48541 13.8984 4.90159 15.7737 5.70464 17.4939C6.50769 19.214 7.67808 20.7372 9.13341 21.9562C9.42001 21.9808 9.70751 22 10 22C12.6522 22 15.1957 20.9464 17.0711 19.0711C18.9464 17.1957 20 14.6522 20 12C20 9.34784 18.9464 6.8043 17.0711 4.92893C15.1957 3.05357 12.6522 2 10 2Z" fill="black"/>
</svg>
