<svg width="24" height="24" viewBox="0 0 24 24" fill="none" xmlns="http://www.w3.org/2000/svg">
<path d="M20.6414 8.36008C20.6478 8.25758 20.6721 8.16008 20.6721 8.05608C20.6721 7.40683 20.5442 6.76394 20.2957 6.16411C20.0473 5.56428 19.6831 5.01927 19.224 4.56018C18.7649 4.1011 18.2199 3.73693 17.6201 3.48849C17.0202 3.24004 16.3773 3.11217 15.7281 3.11218C14.885 3.1174 14.0577 3.34049 13.3263 3.75978C12.5458 2.93912 11.5371 2.37135 10.4306 2.1298C9.32413 1.88826 8.17063 1.98404 7.11913 2.40478C6.06763 2.82552 5.16644 3.55188 4.53198 4.49003C3.89753 5.42819 3.55894 6.53503 3.55998 7.66758C3.56026 7.86801 3.57107 8.06829 3.59238 8.26758C2.71544 8.59577 1.98172 9.2217 1.51947 10.036C1.05722 10.8503 0.895835 11.8011 1.06353 12.7223C1.23122 13.6435 1.71732 14.4765 2.43687 15.0756C3.15642 15.6748 4.06364 16.002 4.99998 16.0001H19C19.9147 16.0012 20.802 15.6884 21.5138 15.114C22.2256 14.5395 22.7188 13.7383 22.9109 12.844C23.103 11.9497 22.9825 11.0166 22.5694 10.2005C22.1564 9.38442 21.4758 8.73477 20.6414 8.36008ZM7.62998 21.6301C7.62998 21.9935 7.77436 22.3421 8.03136 22.5991C8.28836 22.8561 8.63692 23.0005 9.00038 23.0005C9.36383 23.0005 9.7124 22.8561 9.9694 22.5991C10.2264 22.3421 10.3708 21.9935 10.3708 21.6301C10.108 20.3751 9.64517 19.1706 8.99998 18.0626C8.35506 19.1706 7.89249 20.3752 7.62998 21.6301ZM9.59078 21.6301C9.59078 21.7867 9.52858 21.9368 9.41787 22.0475C9.30716 22.1582 9.157 22.2204 9.00043 22.2204C8.84386 22.2204 8.6937 22.1582 8.58299 22.0475C8.47227 21.9368 8.41008 21.7867 8.41008 21.6301C8.50801 20.996 8.70718 20.3818 8.99998 19.8109C9.29294 20.3817 9.49215 20.996 9.58998 21.6301H9.59078ZM13.63 21.6301C13.63 21.9935 13.7744 22.3421 14.0314 22.5991C14.2884 22.8561 14.6369 23.0005 15.0004 23.0005C15.3638 23.0005 15.7124 22.8561 15.9694 22.5991C16.2264 22.3421 16.3708 21.9935 16.3708 21.6301C16.108 20.3751 15.6452 19.1706 15 18.0626C14.3551 19.1706 13.8925 20.3752 13.63 21.6301ZM15.5908 21.6301C15.5908 21.7867 15.5286 21.9368 15.4179 22.0475C15.3072 22.1582 15.157 22.2204 15.0004 22.2204C14.8439 22.2204 14.6937 22.1582 14.583 22.0475C14.4723 21.9368 14.4101 21.7867 14.4101 21.6301C14.508 20.996 14.7072 20.3818 15 19.8109C15.2929 20.3817 15.4922 20.996 15.59 21.6301H15.5908Z" fill="black"/>
</svg>
