<svg width="24" height="24" viewBox="0 0 24 24" fill="none" xmlns="http://www.w3.org/2000/svg">
<path fill-rule="evenodd" clip-rule="evenodd" d="M3.4 4.1001C3.32089 4.1001 3.24355 4.12356 3.17777 4.16751C3.11199 4.21146 3.06072 4.27393 3.03045 4.34702C3.00017 4.42011 2.99225 4.50054 3.00769 4.57813C3.02312 4.65573 3.06122 4.727 3.11716 4.78294C3.1731 4.83888 3.24437 4.87698 3.32196 4.89241C3.39956 4.90785 3.47998 4.89992 3.55307 4.86965C3.62616 4.83937 3.68864 4.78811 3.73259 4.72233C3.77654 4.65655 3.8 4.57921 3.8 4.5001C3.8 4.39401 3.75786 4.29227 3.68284 4.21726C3.60783 4.14224 3.50609 4.1001 3.4 4.1001ZM7.7 4.1001C7.62089 4.1001 7.54355 4.12356 7.47777 4.16751C7.41199 4.21146 7.36072 4.27393 7.33045 4.34702C7.30017 4.42011 7.29225 4.50054 7.30769 4.57813C7.32312 4.65573 7.36122 4.727 7.41716 4.78294C7.4731 4.83888 7.54437 4.87698 7.62196 4.89241C7.69956 4.90785 7.77998 4.89992 7.85307 4.86965C7.92616 4.83937 7.98864 4.78811 8.03259 4.72233C8.07654 4.65655 8.1 4.57921 8.1 4.5001C8.1 4.39401 8.05786 4.29227 7.98284 4.21726C7.90783 4.14224 7.80609 4.1001 7.7 4.1001ZM12 4.1001C11.9209 4.1001 11.8436 4.12356 11.7778 4.16751C11.712 4.21146 11.6607 4.27393 11.6304 4.34702C11.6002 4.42011 11.5923 4.50054 11.6077 4.57813C11.6231 4.65573 11.6612 4.727 11.7172 4.78294C11.7731 4.83888 11.8444 4.87698 11.922 4.89241C11.9996 4.90785 12.08 4.89992 12.1531 4.86965C12.2262 4.83937 12.2886 4.78811 12.3326 4.72233C12.3765 4.65655 12.4 4.57921 12.4 4.5001C12.4 4.39401 12.3579 4.29227 12.2828 4.21726C12.2078 4.14224 12.1061 4.1001 12 4.1001ZM16.3 4.1001C16.2209 4.1001 16.1436 4.12356 16.0778 4.16751C16.012 4.21146 15.9607 4.27393 15.9304 4.34702C15.9002 4.42011 15.8923 4.50054 15.9077 4.57813C15.9231 4.65573 15.9612 4.727 16.0172 4.78294C16.0731 4.83888 16.1444 4.87698 16.222 4.89241C16.2996 4.90785 16.38 4.89992 16.4531 4.86965C16.5262 4.83937 16.5886 4.78811 16.6326 4.72233C16.6765 4.65655 16.7 4.57921 16.7 4.5001C16.7 4.39401 16.6579 4.29227 16.5828 4.21726C16.5078 4.14224 16.4061 4.1001 16.3 4.1001ZM7.7 9.1001C7.62089 9.1001 7.54355 9.12356 7.47777 9.16751C7.41199 9.21146 7.36072 9.27393 7.33045 9.34702C7.30017 9.42011 7.29225 9.50054 7.30769 9.57813C7.32312 9.65573 7.36122 9.727 7.41716 9.78294C7.4731 9.83888 7.54437 9.87698 7.62196 9.89241C7.69956 9.90785 7.77998 9.89992 7.85307 9.86965C7.92616 9.83937 7.98864 9.78811 8.03259 9.72233C8.07654 9.65655 8.1 9.57921 8.1 9.5001C8.1 9.39401 8.05786 9.29227 7.98284 9.21726C7.90783 9.14224 7.80609 9.1001 7.7 9.1001ZM12 9.1001C11.9209 9.1001 11.8436 9.12356 11.7778 9.16751C11.712 9.21146 11.6607 9.27393 11.6304 9.34702C11.6002 9.42011 11.5923 9.50054 11.6077 9.57813C11.6231 9.65573 11.6612 9.727 11.7172 9.78294C11.7731 9.83888 11.8444 9.87698 11.922 9.89241C11.9996 9.90785 12.08 9.89992 12.1531 9.86965C12.2262 9.83937 12.2886 9.78811 12.3326 9.72233C12.3765 9.65655 12.4 9.57921 12.4 9.5001C12.4 9.39401 12.3579 9.29227 12.2828 9.21726C12.2078 9.14224 12.1061 9.1001 12 9.1001ZM16.3 9.1001C16.2209 9.1001 16.1436 9.12356 16.0778 9.16751C16.012 9.21146 15.9607 9.27393 15.9304 9.34702C15.9002 9.42011 15.8923 9.50054 15.9077 9.57813C15.9231 9.65573 15.9612 9.727 16.0172 9.78294C16.0731 9.83888 16.1444 9.87698 16.222 9.89241C16.2996 9.90785 16.38 9.89992 16.4531 9.86965C16.5262 9.83937 16.5886 9.78811 16.6326 9.72233C16.6765 9.65655 16.7 9.57921 16.7 9.5001C16.7 9.39401 16.6579 9.29227 16.5828 9.21726C16.5078 9.14224 16.4061 9.1001 16.3 9.1001ZM20.6 9.9001C20.6791 9.9001 20.7564 9.87664 20.8222 9.83269C20.888 9.78873 20.9393 9.72626 20.9696 9.65317C20.9998 9.58008 21.0077 9.49965 20.9923 9.42206C20.9769 9.34447 20.9388 9.2732 20.8828 9.21726C20.8269 9.16131 20.7556 9.12322 20.678 9.10778C20.6004 9.09235 20.52 9.10027 20.4469 9.13055C20.3738 9.16082 20.3114 9.21209 20.2674 9.27787C20.2235 9.34365 20.2 9.42099 20.2 9.5001C20.2 9.60618 20.2421 9.70793 20.3172 9.78294C20.3922 9.85795 20.4939 9.9001 20.6 9.9001ZM3.4 14.1001C3.32089 14.1001 3.24355 14.1236 3.17777 14.1675C3.11199 14.2115 3.06072 14.2739 3.03045 14.347C3.00017 14.4201 2.99225 14.5005 3.00769 14.5781C3.02312 14.6557 3.06122 14.727 3.11716 14.7829C3.1731 14.8389 3.24437 14.877 3.32196 14.8924C3.39956 14.9078 3.47998 14.8999 3.55307 14.8696C3.62616 14.8394 3.68864 14.7881 3.73259 14.7223C3.77654 14.6565 3.8 14.5792 3.8 14.5001C3.8 14.394 3.75786 14.2923 3.68284 14.2173C3.60783 14.1422 3.50609 14.1001 3.4 14.1001ZM7.7 14.1001C7.62089 14.1001 7.54355 14.1236 7.47777 14.1675C7.41199 14.2115 7.36072 14.2739 7.33045 14.347C7.30017 14.4201 7.29225 14.5005 7.30769 14.5781C7.32312 14.6557 7.36122 14.727 7.41716 14.7829C7.4731 14.8389 7.54437 14.877 7.62196 14.8924C7.69956 14.9078 7.77998 14.8999 7.85307 14.8696C7.92616 14.8394 7.98864 14.7881 8.03259 14.7223C8.07654 14.6565 8.1 14.5792 8.1 14.5001C8.1 14.394 8.05786 14.2923 7.98284 14.2173C7.90783 14.1422 7.80609 14.1001 7.7 14.1001ZM12 14.1001C11.9209 14.1001 11.8436 14.1236 11.7778 14.1675C11.712 14.2115 11.6607 14.2739 11.6304 14.347C11.6002 14.4201 11.5923 14.5005 11.6077 14.5781C11.6231 14.6557 11.6612 14.727 11.7172 14.7829C11.7731 14.8389 11.8444 14.877 11.922 14.8924C11.9996 14.9078 12.08 14.8999 12.1531 14.8696C12.2262 14.8394 12.2886 14.7881 12.3326 14.7223C12.3765 14.6565 12.4 14.5792 12.4 14.5001C12.4 14.394 12.3579 14.2923 12.2828 14.2173C12.2078 14.1422 12.1061 14.1001 12 14.1001ZM16.3 14.1001C16.2209 14.1001 16.1436 14.1236 16.0778 14.1675C16.012 14.2115 15.9607 14.2739 15.9304 14.347C15.9002 14.4201 15.8923 14.5005 15.9077 14.5781C15.9231 14.6557 15.9612 14.727 16.0172 14.7829C16.0731 14.8389 16.1444 14.877 16.222 14.8924C16.2996 14.9078 16.38 14.8999 16.4531 14.8696C16.5262 14.8394 16.5886 14.7881 16.6326 14.7223C16.6765 14.6565 16.7 14.5792 16.7 14.5001C16.7 14.394 16.6579 14.2923 16.5828 14.2173C16.5078 14.1422 16.4061 14.1001 16.3 14.1001ZM7.7 19.1001C7.62089 19.1001 7.54355 19.1236 7.47777 19.1675C7.41199 19.2115 7.36072 19.2739 7.33045 19.347C7.30017 19.4201 7.29225 19.5005 7.30769 19.5781C7.32312 19.6557 7.36122 19.727 7.41716 19.7829C7.4731 19.8389 7.54437 19.877 7.62196 19.8924C7.69956 19.9078 7.77998 19.8999 7.85307 19.8696C7.92616 19.8394 7.98864 19.7881 8.03259 19.7223C8.07654 19.6565 8.1 19.5792 8.1 19.5001C8.1 19.394 8.05786 19.2923 7.98284 19.2173C7.90783 19.1422 7.80609 19.1001 7.7 19.1001ZM12 19.1001C11.9209 19.1001 11.8436 19.1236 11.7778 19.1675C11.712 19.2115 11.6607 19.2739 11.6304 19.347C11.6002 19.4201 11.5923 19.5005 11.6077 19.5781C11.6231 19.6557 11.6612 19.727 11.7172 19.7829C11.7731 19.8389 11.8444 19.877 11.922 19.8924C11.9996 19.9078 12.08 19.8999 12.1531 19.8696C12.2262 19.8394 12.2886 19.7881 12.3326 19.7223C12.3765 19.6565 12.4 19.5792 12.4 19.5001C12.4 19.394 12.3579 19.2923 12.2828 19.2173C12.2078 19.1422 12.1061 19.1001 12 19.1001ZM16.3 19.1001C16.2209 19.1001 16.1436 19.1236 16.0778 19.1675C16.012 19.2115 15.9607 19.2739 15.9304 19.347C15.9002 19.4201 15.8923 19.5005 15.9077 19.5781C15.9231 19.6557 15.9612 19.727 16.0172 19.7829C16.0731 19.8389 16.1444 19.877 16.222 19.8924C16.2996 19.9078 16.38 19.8999 16.4531 19.8696C16.5262 19.8394 16.5886 19.7881 16.6326 19.7223C16.6765 19.6565 16.7 19.5792 16.7 19.5001C16.7 19.394 16.6579 19.2923 16.5828 19.2173C16.5078 19.1422 16.4061 19.1001 16.3 19.1001ZM20.6 19.1001C20.5209 19.1001 20.4436 19.1236 20.3778 19.1675C20.312 19.2115 20.2607 19.2739 20.2304 19.347C20.2002 19.4201 20.1923 19.5005 20.2077 19.5781C20.2231 19.6557 20.2612 19.727 20.3172 19.7829C20.3731 19.8389 20.4444 19.877 20.522 19.8924C20.5996 19.9078 20.68 19.8999 20.7531 19.8696C20.8262 19.8394 20.8886 19.7881 20.9326 19.7223C20.9765 19.6565 21 19.5792 21 19.5001C21 19.394 20.9579 19.2923 20.8828 19.2173C20.8078 19.1422 20.7061 19.1001 20.6 19.1001Z" fill="black"/>
</svg>
