<svg width="24" height="24" viewBox="0 0 24 24" fill="none" xmlns="http://www.w3.org/2000/svg">
<path d="M20.6414 8.36008C20.6478 8.25758 20.6721 8.16008 20.6721 8.05608C20.6721 7.40683 20.5443 6.76394 20.2958 6.16411C20.0473 5.56428 19.6832 5.01927 19.2241 4.56018C18.765 4.1011 18.2199 3.73693 17.6201 3.48849C17.0203 3.24004 16.3774 3.11217 15.7281 3.11218C14.8851 3.1174 14.0577 3.34049 13.3263 3.75978C12.5458 2.93912 11.5372 2.37135 10.4307 2.1298C9.32419 1.88826 8.17069 1.98404 7.11919 2.40478C6.06769 2.82552 5.16651 3.55188 4.53205 4.49003C3.89759 5.42819 3.559 6.53503 3.56004 7.66758C3.56032 7.86801 3.57114 8.06829 3.59244 8.26758C2.7155 8.59577 1.98178 9.2217 1.51953 10.036C1.05728 10.8503 0.895896 11.8011 1.06359 12.7223C1.23128 13.6435 1.71738 14.4765 2.43693 15.0756C3.15648 15.6748 4.0637 16.002 5.00004 16.0001H19C19.9147 16.0012 20.8021 15.6884 21.5139 15.114C22.2257 14.5395 22.7188 13.7383 22.911 12.844C23.1031 11.9497 22.9826 11.0166 22.5695 10.2005C22.1564 9.38442 21.4758 8.73477 20.6414 8.36008ZM19 14.5001H5.00004C4.33722 14.4993 3.70177 14.2357 3.23309 13.767C2.76441 13.2984 2.50078 12.6629 2.50004 12.0001C2.49913 11.4924 2.65431 10.9967 2.94455 10.5801C3.23478 10.1635 3.64605 9.84621 4.12264 9.67118L5.20614 9.26228L5.08464 8.11058C5.02166 7.52913 5.08193 6.94092 5.26151 6.38432C5.4411 5.82771 5.73597 5.3152 6.1269 4.88019C6.51784 4.44519 6.99606 4.09745 7.53039 3.85965C8.06473 3.62186 8.64318 3.49934 9.22804 3.50008C9.79205 3.49875 10.3504 3.61298 10.8685 3.83572C11.3867 4.05846 11.8537 4.38499 12.2408 4.79518L13.0443 5.63758L14.06 5.06828C14.5673 4.77451 15.1422 4.61739 15.7283 4.61228C16.6355 4.61331 17.5058 4.97184 18.1504 5.61015C18.7951 6.24847 19.1622 7.11514 19.1721 8.02228L19.1714 8.02008L19.1703 8.02408C19.1592 8.10408 19.1494 8.18508 19.1443 8.26728L19.08 9.30078L20.0234 9.72708C20.5453 9.96056 20.9711 10.3661 21.2297 10.876C21.4883 11.3858 21.564 11.969 21.4442 12.5279C21.3243 13.0869 21.0162 13.5878 20.5713 13.9467C20.1264 14.3057 19.5717 14.5011 19 14.5001ZM11.1452 22.1453C11.1452 22.372 11.2353 22.5895 11.3957 22.7499C11.556 22.9102 11.7735 23.0003 12.0002 23.0003C12.227 23.0003 12.4445 22.9102 12.6048 22.7499C12.7652 22.5895 12.8552 22.372 12.8552 22.1453C12.6413 20.7979 12.3559 19.4629 12 18.1459C11.6444 19.4629 11.359 20.7979 11.1452 22.1453ZM5.14524 22.1453C5.14524 22.372 5.23532 22.5895 5.39566 22.7499C5.55601 22.9102 5.77348 23.0003 6.00024 23.0003C6.227 23.0003 6.44447 22.9102 6.60481 22.7499C6.76516 22.5895 6.85524 22.372 6.85524 22.1453C6.64132 20.7979 6.35585 19.4629 6.00004 18.1459C5.64436 19.4629 5.35902 20.7979 5.14524 22.1453ZM17.1452 22.1453C17.1452 22.372 17.2353 22.5895 17.3957 22.7499C17.556 22.9102 17.7735 23.0003 18.0002 23.0003C18.227 23.0003 18.4445 22.9102 18.6048 22.7499C18.7652 22.5895 18.8552 22.372 18.8552 22.1453C18.6413 20.7979 18.3559 19.4629 18 18.1459C17.6444 19.4629 17.359 20.7979 17.1452 22.1453Z" fill="black"/>
</svg>
