<svg width="24" height="24" viewBox="0 0 24 24" fill="none" xmlns="http://www.w3.org/2000/svg">
<path d="M17.5651 19.0772L15.7 20.1542V18.0001H15.3V20.1542L13.4347 19.0772L13.2355 19.423L15.1007 20.5001L13.235 21.5772L13.4342 21.923L15.3 20.846V23.0001H15.7V20.846L17.5652 21.923L17.7644 21.5772L15.8987 20.5001L17.7643 19.423L17.5651 19.0772ZM20.6414 8.36008C20.6477 8.25758 20.672 8.16008 20.672 8.05608C20.672 6.74488 20.1511 5.48738 19.2239 4.56022C18.2968 3.63306 17.0393 3.11218 15.7281 3.11218C14.885 3.1174 14.0577 3.34049 13.3263 3.75978C12.5458 2.93912 11.5371 2.37135 10.4306 2.1298C9.32413 1.88826 8.17063 1.98404 7.11913 2.40478C6.06763 2.82552 5.16644 3.55188 4.53198 4.49003C3.89753 5.42819 3.55894 6.53503 3.55998 7.66758C3.56026 7.86801 3.57107 8.06829 3.59238 8.26758C2.71544 8.59577 1.98172 9.2217 1.51947 10.036C1.05722 10.8503 0.895835 11.8011 1.06353 12.7223C1.23122 13.6435 1.71732 14.4765 2.43687 15.0756C3.15642 15.6748 4.06364 16.002 4.99998 16.0001H19C19.9147 16.0012 20.802 15.6884 21.5138 15.114C22.2256 14.5395 22.7188 13.7383 22.9109 12.844C23.103 11.9497 22.9825 11.0166 22.5694 10.2005C22.1564 9.38442 21.4758 8.73477 20.6414 8.36008ZM6.39768 21.3978C6.40102 21.8205 6.5713 22.2248 6.87141 22.5226C7.17153 22.8203 7.57716 22.9874 7.99993 22.9874C8.42269 22.9874 8.82832 22.8203 9.12844 22.5226C9.42856 22.2248 9.59884 21.8205 9.60218 21.3978C9.60218 20.116 7.99998 17.633 7.99998 17.633C7.99998 17.633 6.39768 20.116 6.39768 21.3978ZM7.99998 22.5001C7.70774 22.4998 7.42757 22.3835 7.22092 22.1769C7.01427 21.9703 6.89802 21.6901 6.89768 21.3979C7.07716 20.4026 7.45179 19.4527 7.99998 18.6028C8.54817 19.4526 8.92277 20.4025 9.10218 21.3978C9.10189 21.69 8.98567 21.9702 8.77903 22.1769C8.5724 22.3835 8.29222 22.4998 7.99998 22.5001Z" fill="black"/>
</svg>
