<svg width="24" height="24" viewBox="0 0 24 24" fill="none" xmlns="http://www.w3.org/2000/svg">
<path d="M20.89 18.7735L19.55 19.5471V18.0001H18.45V19.5471L17.11 18.7735L16.5592 19.7267L17.8992 20.5001L16.5592 21.2735L17.11 22.2267L18.45 21.4531V23.0001H19.55V21.4531L20.89 22.2267L21.4408 21.2735L20.1008 20.5001L21.4408 19.7267L20.89 18.7735ZM6.88998 18.7735L5.54998 19.5471V18.0001H4.44998V19.5471L3.10998 18.7735L2.55918 19.7267L3.89918 20.5001L2.55918 21.2735L3.10998 22.2267L4.44998 21.4531V23.0001H5.54998V21.4531L6.88998 22.2267L7.44078 21.2735L6.10078 20.5001L7.44078 19.7267L6.88998 18.7735ZM20.6414 8.36008C20.6478 8.25758 20.6721 8.16008 20.6721 8.05608C20.6721 7.40683 20.5442 6.76394 20.2957 6.16411C20.0473 5.56428 19.6831 5.01927 19.224 4.56018C18.7649 4.1011 18.2199 3.73693 17.6201 3.48849C17.0202 3.24004 16.3773 3.11217 15.7281 3.11218C14.885 3.1174 14.0577 3.34049 13.3263 3.75978C12.5458 2.93912 11.5371 2.37135 10.4306 2.1298C9.32413 1.88826 8.17063 1.98404 7.11913 2.40478C6.06763 2.82552 5.16644 3.55188 4.53198 4.49003C3.89753 5.42819 3.55894 6.53503 3.55998 7.66758C3.56026 7.86801 3.57107 8.06829 3.59238 8.26758C2.71544 8.59577 1.98172 9.2217 1.51947 10.036C1.05722 10.8503 0.895835 11.8011 1.06353 12.7223C1.23122 13.6435 1.71732 14.4765 2.43687 15.0756C3.15642 15.6748 4.06364 16.002 4.99998 16.0001H10.8152L9.77518 20.0001H11.7868L10.882 23.5119L14.8538 18.0001H12.2952L12.8152 16.0001H19C19.9147 16.0012 20.802 15.6884 21.5138 15.114C22.2256 14.5395 22.7188 13.7383 22.9109 12.844C23.103 11.9497 22.9825 11.0166 22.5694 10.2005C22.1564 9.38442 21.4758 8.73477 20.6414 8.36008Z" fill="black"/>
</svg>
